<?xml version="1.0" encoding="UTF-8" standalone="no"?>
<!DOCTYPE svg PUBLIC "-//W3C//DTD SVG 1.1//EN"
 "http://www.w3.org/Graphics/SVG/1.1/DTD/svg11.dtd">
<!-- Generated by graphviz version 2.38.0 (20140413.2041)
 -->
<!-- Title: parameter/AreaConfiguration.h Pages: 1 -->
<svg width="415pt" height="196pt"
 viewBox="0.00 0.00 415.00 196.00" xmlns="http://www.w3.org/2000/svg" xmlns:xlink="http://www.w3.org/1999/xlink">
<g id="graph0" class="graph" transform="scale(1 1) rotate(0) translate(4 192)">
<title>parameter/AreaConfiguration.h</title>
<polygon fill="white" stroke="none" points="-4,4 -4,-192 411,-192 411,4 -4,4"/>
<!-- Node1 -->
<g id="node1" class="node"><title>Node1</title>
<polygon fill="#bfbfbf" stroke="black" points="220.5,-168.5 220.5,-187.5 386.5,-187.5 386.5,-168.5 220.5,-168.5"/>
<text text-anchor="middle" x="303.5" y="-175.5" font-family="Verdana" font-size="10.00">parameter/AreaConfiguration.h</text>
</g>
<!-- Node2 -->
<g id="node2" class="node"><title>Node2</title>
<g id="a_node2"><a xlink:href="ParameterBlackboard_8h.html" target="_top" xlink:title="ParameterBlackboard.h">
<polygon fill="white" stroke="black" points="132,-112.5 132,-131.5 261,-131.5 261,-112.5 132,-112.5"/>
<text text-anchor="middle" x="196.5" y="-119.5" font-family="Verdana" font-size="10.00">ParameterBlackboard.h</text>
</a>
</g>
</g>
<!-- Node1&#45;&gt;Node2 -->
<g id="edge1" class="edge"><title>Node1&#45;&gt;Node2</title>
<path fill="none" stroke="midnightblue" d="M286.309,-168.324C269.149,-159.664 242.554,-146.242 222.753,-136.249"/>
<polygon fill="midnightblue" stroke="midnightblue" points="224.153,-133.035 213.649,-131.655 220.999,-139.285 224.153,-133.035"/>
</g>
<!-- Node7 -->
<g id="node7" class="node"><title>Node7</title>
<g id="a_node7"><a xlink:href="SyncerSet_8h.html" target="_top" xlink:title="SyncerSet.h">
<polygon fill="white" stroke="black" points="332,-112.5 332,-131.5 407,-131.5 407,-112.5 332,-112.5"/>
<text text-anchor="middle" x="369.5" y="-119.5" font-family="Verdana" font-size="10.00">SyncerSet.h</text>
</a>
</g>
</g>
<!-- Node1&#45;&gt;Node7 -->
<g id="edge6" class="edge"><title>Node1&#45;&gt;Node7</title>
<path fill="none" stroke="midnightblue" d="M314.104,-168.324C323.956,-160.263 338.851,-148.077 350.715,-138.369"/>
<polygon fill="midnightblue" stroke="midnightblue" points="353.18,-140.875 358.703,-131.834 348.747,-135.457 353.18,-140.875"/>
</g>
<!-- Node8 -->
<g id="node8" class="node"><title>Node8</title>
<g id="a_node8"><a xlink:href="Results_8h.html" target="_top" xlink:title="Results.h">
<polygon fill="white" stroke="black" points="290,-56.5 290,-75.5 349,-75.5 349,-56.5 290,-56.5"/>
<text text-anchor="middle" x="319.5" y="-63.5" font-family="Verdana" font-size="10.00">Results.h</text>
</a>
</g>
</g>
<!-- Node1&#45;&gt;Node8 -->
<g id="edge11" class="edge"><title>Node1&#45;&gt;Node8</title>
<path fill="none" stroke="midnightblue" d="M304.755,-168.368C307.338,-150.617 313.294,-109.666 316.795,-85.5974"/>
<polygon fill="midnightblue" stroke="midnightblue" points="320.274,-85.9911 318.25,-75.5914 313.347,-84.9835 320.274,-85.9911"/>
</g>
<!-- Node3 -->
<g id="node3" class="node"><title>Node3</title>
<g id="a_node3"><a xlink:href="NonCopyable_8hpp.html" target="_top" xlink:title="NonCopyable.hpp">
<polygon fill="white" stroke="black" points="0,-56.5 0,-75.5 101,-75.5 101,-56.5 0,-56.5"/>
<text text-anchor="middle" x="50.5" y="-63.5" font-family="Verdana" font-size="10.00">NonCopyable.hpp</text>
</a>
</g>
</g>
<!-- Node2&#45;&gt;Node3 -->
<g id="edge2" class="edge"><title>Node2&#45;&gt;Node3</title>
<path fill="none" stroke="midnightblue" d="M173.366,-112.444C149.018,-103.438 110.493,-89.1891 83.077,-79.049"/>
<polygon fill="midnightblue" stroke="midnightblue" points="84.1191,-75.7028 73.5259,-75.5164 81.6908,-82.2681 84.1191,-75.7028"/>
</g>
<!-- Node4 -->
<g id="node4" class="node"><title>Node4</title>
<polygon fill="white" stroke="#bfbfbf" points="119,-56.5 119,-75.5 168,-75.5 168,-56.5 119,-56.5"/>
<text text-anchor="middle" x="143.5" y="-63.5" font-family="Verdana" font-size="10.00">cstdint</text>
</g>
<!-- Node2&#45;&gt;Node4 -->
<g id="edge3" class="edge"><title>Node2&#45;&gt;Node4</title>
<path fill="none" stroke="midnightblue" d="M187.748,-112.083C180.03,-104.22 168.595,-92.5688 159.283,-83.0813"/>
<polygon fill="midnightblue" stroke="midnightblue" points="161.592,-80.4363 152.089,-75.7511 156.596,-85.3396 161.592,-80.4363"/>
</g>
<!-- Node5 -->
<g id="node5" class="node"><title>Node5</title>
<polygon fill="white" stroke="#bfbfbf" points="208.5,-0.5 208.5,-19.5 252.5,-19.5 252.5,-0.5 208.5,-0.5"/>
<text text-anchor="middle" x="230.5" y="-7.5" font-family="Verdana" font-size="10.00">string</text>
</g>
<!-- Node2&#45;&gt;Node5 -->
<g id="edge4" class="edge"><title>Node2&#45;&gt;Node5</title>
<path fill="none" stroke="midnightblue" d="M198.977,-112.137C202.508,-99.5963 209.254,-75.9736 215.5,-56 218.268,-47.1467 221.505,-37.3722 224.261,-29.2013"/>
<polygon fill="midnightblue" stroke="midnightblue" points="227.622,-30.1902 227.528,-19.5958 220.994,-27.9359 227.622,-30.1902"/>
</g>
<!-- Node6 -->
<g id="node6" class="node"><title>Node6</title>
<polygon fill="white" stroke="#bfbfbf" points="225,-56.5 225,-75.5 272,-75.5 272,-56.5 225,-56.5"/>
<text text-anchor="middle" x="248.5" y="-63.5" font-family="Verdana" font-size="10.00">vector</text>
</g>
<!-- Node2&#45;&gt;Node6 -->
<g id="edge5" class="edge"><title>Node2&#45;&gt;Node6</title>
<path fill="none" stroke="midnightblue" d="M205.087,-112.083C212.659,-104.22 223.878,-92.5688 233.014,-83.0813"/>
<polygon fill="midnightblue" stroke="midnightblue" points="235.658,-85.3821 240.073,-75.7511 230.615,-80.5266 235.658,-85.3821"/>
</g>
<!-- Node7&#45;&gt;Node8 -->
<g id="edge7" class="edge"><title>Node7&#45;&gt;Node8</title>
<path fill="none" stroke="midnightblue" d="M361.244,-112.083C354.035,-104.298 343.39,-92.8015 334.654,-83.3665"/>
<polygon fill="midnightblue" stroke="midnightblue" points="336.965,-80.7108 327.603,-75.7511 331.829,-85.4666 336.965,-80.7108"/>
</g>
<!-- Node10 -->
<g id="node10" class="node"><title>Node10</title>
<polygon fill="white" stroke="#bfbfbf" points="367.5,-56.5 367.5,-75.5 399.5,-75.5 399.5,-56.5 367.5,-56.5"/>
<text text-anchor="middle" x="383.5" y="-63.5" font-family="Verdana" font-size="10.00">set</text>
</g>
<!-- Node7&#45;&gt;Node10 -->
<g id="edge10" class="edge"><title>Node7&#45;&gt;Node10</title>
<path fill="none" stroke="midnightblue" d="M371.812,-112.083C373.667,-104.927 376.335,-94.6353 378.654,-85.6911"/>
<polygon fill="midnightblue" stroke="midnightblue" points="382.109,-86.3094 381.231,-75.7511 375.334,-84.5527 382.109,-86.3094"/>
</g>
<!-- Node8&#45;&gt;Node5 -->
<g id="edge9" class="edge"><title>Node8&#45;&gt;Node5</title>
<path fill="none" stroke="midnightblue" d="M305.201,-56.324C291.317,-47.9002 270.008,-34.9709 253.696,-25.0741"/>
<polygon fill="midnightblue" stroke="midnightblue" points="255.129,-21.8495 244.764,-19.6545 251.498,-27.8341 255.129,-21.8495"/>
</g>
<!-- Node9 -->
<g id="node9" class="node"><title>Node9</title>
<polygon fill="white" stroke="#bfbfbf" points="304.5,-0.5 304.5,-19.5 334.5,-19.5 334.5,-0.5 304.5,-0.5"/>
<text text-anchor="middle" x="319.5" y="-7.5" font-family="Verdana" font-size="10.00">list</text>
</g>
<!-- Node8&#45;&gt;Node9 -->
<g id="edge8" class="edge"><title>Node8&#45;&gt;Node9</title>
<path fill="none" stroke="midnightblue" d="M319.5,-56.083C319.5,-49.0059 319.5,-38.8611 319.5,-29.9865"/>
<polygon fill="midnightblue" stroke="midnightblue" points="323,-29.751 319.5,-19.7511 316,-29.7511 323,-29.751"/>
</g>
</g>
</svg>
