<?xml version="1.0" encoding="UTF-8" standalone="no"?>
<!DOCTYPE svg PUBLIC "-//W3C//DTD SVG 1.1//EN"
 "http://www.w3.org/Graphics/SVG/1.1/DTD/svg11.dtd">
<!-- Generated by graphviz version 2.38.0 (20140413.2041)
 -->
<!-- Title: parameter/AreaConfiguration.cpp Pages: 1 -->
<svg width="980pt" height="308pt"
 viewBox="0.00 0.00 979.75 308.00" xmlns="http://www.w3.org/2000/svg" xmlns:xlink="http://www.w3.org/1999/xlink">
<g id="graph0" class="graph" transform="scale(1 1) rotate(0) translate(4 304)">
<title>parameter/AreaConfiguration.cpp</title>
<polygon fill="white" stroke="none" points="-4,4 -4,-304 975.748,-304 975.748,4 -4,4"/>
<!-- Node1 -->
<g id="node1" class="node"><title>Node1</title>
<polygon fill="#bfbfbf" stroke="black" points="189.5,-280.5 189.5,-299.5 366.5,-299.5 366.5,-280.5 189.5,-280.5"/>
<text text-anchor="middle" x="278" y="-287.5" font-family="Verdana" font-size="10.00">parameter/AreaConfiguration.cpp</text>
</g>
<!-- Node2 -->
<g id="node2" class="node"><title>Node2</title>
<g id="a_node2"><a xlink:href="AreaConfiguration_8h.html" target="_top" xlink:title="AreaConfiguration.h">
<polygon fill="white" stroke="black" points="60,-168.5 60,-187.5 172,-187.5 172,-168.5 60,-168.5"/>
<text text-anchor="middle" x="116" y="-175.5" font-family="Verdana" font-size="10.00">AreaConfiguration.h</text>
</a>
</g>
</g>
<!-- Node1&#45;&gt;Node2 -->
<g id="edge1" class="edge"><title>Node1&#45;&gt;Node2</title>
<path fill="none" stroke="midnightblue" d="M263.749,-280.48C249.094,-271.628 225.693,-257.244 206,-244 181.26,-227.362 153.558,-207.098 135.506,-193.666"/>
<polygon fill="midnightblue" stroke="midnightblue" points="137.581,-190.847 127.475,-187.666 133.391,-196.455 137.581,-190.847"/>
</g>
<!-- Node5 -->
<g id="node5" class="node"><title>Node5</title>
<g id="a_node5"><a xlink:href="BinaryStream_8h.html" target="_top" xlink:title="BinaryStream.h">
<polygon fill="white" stroke="black" points="0,-56.5 0,-75.5 92,-75.5 92,-56.5 0,-56.5"/>
<text text-anchor="middle" x="46" y="-63.5" font-family="Verdana" font-size="10.00">BinaryStream.h</text>
</a>
</g>
</g>
<!-- Node1&#45;&gt;Node5 -->
<g id="edge41" class="edge"><title>Node1&#45;&gt;Node5</title>
<path fill="none" stroke="midnightblue" d="M245.335,-280.494C198.369,-267.017 110.844,-237.128 51,-188 21.4974,-163.781 -1.38772,-148.104 11,-112 14.719,-101.161 22.2332,-90.9216 29.349,-82.9566"/>
<polygon fill="midnightblue" stroke="midnightblue" points="32.0542,-85.1922 36.4444,-75.5497 26.9993,-80.3498 32.0542,-85.1922"/>
</g>
<!-- Node11 -->
<g id="node11" class="node"><title>Node11</title>
<g id="a_node11"><a xlink:href="ConfigurableElement_8h.html" target="_top" xlink:title="ConfigurableElement.h">
<polygon fill="white" stroke="black" points="215.5,-224.5 215.5,-243.5 340.5,-243.5 340.5,-224.5 215.5,-224.5"/>
<text text-anchor="middle" x="278" y="-231.5" font-family="Verdana" font-size="10.00">ConfigurableElement.h</text>
</a>
</g>
</g>
<!-- Node1&#45;&gt;Node11 -->
<g id="edge14" class="edge"><title>Node1&#45;&gt;Node11</title>
<path fill="none" stroke="midnightblue" d="M278,-280.083C278,-273.006 278,-262.861 278,-253.986"/>
<polygon fill="midnightblue" stroke="midnightblue" points="281.5,-253.751 278,-243.751 274.5,-253.751 281.5,-253.751"/>
</g>
<!-- Node19 -->
<g id="node19" class="node"><title>Node19</title>
<g id="a_node19"><a xlink:href="ConfigurationAccessContext_8h.html" target="_top" xlink:title="ConfigurationAccessContext.h">
<polygon fill="white" stroke="black" points="782.5,-168.5 782.5,-187.5 943.5,-187.5 943.5,-168.5 782.5,-168.5"/>
<text text-anchor="middle" x="863" y="-175.5" font-family="Verdana" font-size="10.00">ConfigurationAccessContext.h</text>
</a>
</g>
</g>
<!-- Node1&#45;&gt;Node19 -->
<g id="edge34" class="edge"><title>Node1&#45;&gt;Node19</title>
<path fill="none" stroke="midnightblue" d="M292.008,-280.256C319.275,-263.306 377.715,-227.341 388,-224 457.183,-201.527 655.01,-188.709 772.404,-182.876"/>
<polygon fill="midnightblue" stroke="midnightblue" points="772.642,-186.369 782.458,-182.384 772.299,-179.377 772.642,-186.369"/>
</g>
<!-- Node22 -->
<g id="node22" class="node"><title>Node22</title>
<polygon fill="white" stroke="#bfbfbf" points="397,-224.5 397,-243.5 453,-243.5 453,-224.5 397,-224.5"/>
<text text-anchor="middle" x="425" y="-231.5" font-family="Verdana" font-size="10.00">assert.h</text>
</g>
<!-- Node1&#45;&gt;Node22 -->
<g id="edge42" class="edge"><title>Node1&#45;&gt;Node22</title>
<path fill="none" stroke="midnightblue" d="M301.293,-280.444C325.807,-271.438 364.596,-257.189 392.2,-247.049"/>
<polygon fill="midnightblue" stroke="midnightblue" points="393.637,-250.25 401.816,-243.516 391.223,-243.679 393.637,-250.25"/>
</g>
<!-- Node3 -->
<g id="node3" class="node"><title>Node3</title>
<g id="a_node3"><a xlink:href="ParameterBlackboard_8h.html" target="_top" xlink:title="ParameterBlackboard.h">
<polygon fill="white" stroke="black" points="27.5,-112.5 27.5,-131.5 156.5,-131.5 156.5,-112.5 27.5,-112.5"/>
<text text-anchor="middle" x="92" y="-119.5" font-family="Verdana" font-size="10.00">ParameterBlackboard.h</text>
</a>
</g>
</g>
<!-- Node2&#45;&gt;Node3 -->
<g id="edge2" class="edge"><title>Node2&#45;&gt;Node3</title>
<path fill="none" stroke="midnightblue" d="M112.037,-168.083C108.787,-160.77 104.081,-150.181 100.046,-141.103"/>
<polygon fill="midnightblue" stroke="midnightblue" points="103.149,-139.468 95.8894,-131.751 96.7525,-142.311 103.149,-139.468"/>
</g>
<!-- Node2&#45;&gt;Node5 -->
<g id="edge9" class="edge"><title>Node2&#45;&gt;Node5</title>
<path fill="none" stroke="midnightblue" d="M72.9328,-168.486C52.6037,-162.074 30.1772,-150.991 18,-132 8.11375,-116.582 19.2338,-97.0809 30.2491,-83.4794"/>
<polygon fill="midnightblue" stroke="midnightblue" points="32.9608,-85.6952 36.9054,-75.8621 27.6897,-81.0891 32.9608,-85.6952"/>
</g>
<!-- Node8 -->
<g id="node8" class="node"><title>Node8</title>
<g id="a_node8"><a xlink:href="SyncerSet_8h.html" target="_top" xlink:title="SyncerSet.h">
<polygon fill="white" stroke="black" points="174.5,-112.5 174.5,-131.5 249.5,-131.5 249.5,-112.5 174.5,-112.5"/>
<text text-anchor="middle" x="212" y="-119.5" font-family="Verdana" font-size="10.00">SyncerSet.h</text>
</a>
</g>
</g>
<!-- Node2&#45;&gt;Node8 -->
<g id="edge10" class="edge"><title>Node2&#45;&gt;Node8</title>
<path fill="none" stroke="midnightblue" d="M131.424,-168.324C146.54,-159.822 169.815,-146.729 187.471,-136.797"/>
<polygon fill="midnightblue" stroke="midnightblue" points="189.614,-139.608 196.614,-131.655 186.183,-133.507 189.614,-139.608"/>
</g>
<!-- Node4 -->
<g id="node4" class="node"><title>Node4</title>
<polygon fill="white" stroke="#bfbfbf" points="324.5,-0.5 324.5,-19.5 377.5,-19.5 377.5,-0.5 324.5,-0.5"/>
<text text-anchor="middle" x="351" y="-7.5" font-family="Verdana" font-size="10.00">stdint.h</text>
</g>
<!-- Node3&#45;&gt;Node4 -->
<g id="edge3" class="edge"><title>Node3&#45;&gt;Node4</title>
<path fill="none" stroke="midnightblue" d="M96.4135,-112.255C104.057,-98.0598 121.156,-70.1654 144,-56 196.985,-23.1446 270.568,-14.07 314.234,-11.6883"/>
<polygon fill="midnightblue" stroke="midnightblue" points="314.566,-15.1769 324.397,-11.2261 314.248,-8.1841 314.566,-15.1769"/>
</g>
<!-- Node3&#45;&gt;Node5 -->
<g id="edge4" class="edge"><title>Node3&#45;&gt;Node5</title>
<path fill="none" stroke="midnightblue" d="M84.404,-112.083C77.7725,-104.298 67.979,-92.8015 59.9419,-83.3665"/>
<polygon fill="midnightblue" stroke="midnightblue" points="62.6037,-81.0939 53.4546,-75.7511 57.275,-85.6332 62.6037,-81.0939"/>
</g>
<!-- Node6 -->
<g id="node6" class="node"><title>Node6</title>
<polygon fill="white" stroke="#bfbfbf" points="583,-0.5 583,-19.5 627,-19.5 627,-0.5 583,-0.5"/>
<text text-anchor="middle" x="605" y="-7.5" font-family="Verdana" font-size="10.00">string</text>
</g>
<!-- Node3&#45;&gt;Node6 -->
<g id="edge8" class="edge"><title>Node3&#45;&gt;Node6</title>
<path fill="none" stroke="midnightblue" d="M101.883,-112.332C120.49,-96.2073 160.344,-62.6295 177,-56 249.137,-27.2879 486.236,-15.5362 572.906,-12.1304"/>
<polygon fill="midnightblue" stroke="midnightblue" points="573.084,-15.6263 582.943,-11.7472 572.816,-8.63137 573.084,-15.6263"/>
</g>
<!-- Node5&#45;&gt;Node4 -->
<g id="edge5" class="edge"><title>Node5&#45;&gt;Node4</title>
<path fill="none" stroke="midnightblue" d="M92.3229,-56.7986C153.067,-46.0439 258.429,-27.3897 314.091,-17.5347"/>
<polygon fill="midnightblue" stroke="midnightblue" points="314.972,-20.9332 324.209,-15.7433 313.752,-14.0404 314.972,-20.9332"/>
</g>
<!-- Node5&#45;&gt;Node6 -->
<g id="edge6" class="edge"><title>Node5&#45;&gt;Node6</title>
<path fill="none" stroke="midnightblue" d="M92.2209,-60.535C202.416,-49.8901 478.414,-23.2283 572.777,-14.1128"/>
<polygon fill="midnightblue" stroke="midnightblue" points="573.241,-17.5843 582.858,-13.1389 572.568,-10.6168 573.241,-17.5843"/>
</g>
<!-- Node7 -->
<g id="node7" class="node"><title>Node7</title>
<polygon fill="white" stroke="#bfbfbf" points="19,-0.5 19,-19.5 73,-19.5 73,-0.5 19,-0.5"/>
<text text-anchor="middle" x="46" y="-7.5" font-family="Verdana" font-size="10.00">fstream</text>
</g>
<!-- Node5&#45;&gt;Node7 -->
<g id="edge7" class="edge"><title>Node5&#45;&gt;Node7</title>
<path fill="none" stroke="midnightblue" d="M46,-56.083C46,-49.0059 46,-38.8611 46,-29.9865"/>
<polygon fill="midnightblue" stroke="midnightblue" points="49.5001,-29.751 46,-19.7511 42.5001,-29.7511 49.5001,-29.751"/>
</g>
<!-- Node8&#45;&gt;Node6 -->
<g id="edge12" class="edge"><title>Node8&#45;&gt;Node6</title>
<path fill="none" stroke="midnightblue" d="M216.417,-112.039C224.09,-97.5326 241.353,-69.2014 265,-56 317.402,-26.7459 498.1,-15.6606 572.549,-12.2699"/>
<polygon fill="midnightblue" stroke="midnightblue" points="572.897,-15.7581 582.735,-11.8242 572.591,-8.7648 572.897,-15.7581"/>
</g>
<!-- Node9 -->
<g id="node9" class="node"><title>Node9</title>
<polygon fill="white" stroke="#bfbfbf" points="186,-56.5 186,-75.5 218,-75.5 218,-56.5 186,-56.5"/>
<text text-anchor="middle" x="202" y="-63.5" font-family="Verdana" font-size="10.00">set</text>
</g>
<!-- Node8&#45;&gt;Node9 -->
<g id="edge11" class="edge"><title>Node8&#45;&gt;Node9</title>
<path fill="none" stroke="midnightblue" d="M210.349,-112.083C209.024,-104.927 207.118,-94.6353 205.461,-85.6911"/>
<polygon fill="midnightblue" stroke="midnightblue" points="208.883,-84.9466 203.621,-75.7511 202,-86.2212 208.883,-84.9466"/>
</g>
<!-- Node10 -->
<g id="node10" class="node"><title>Node10</title>
<polygon fill="white" stroke="#bfbfbf" points="274,-56.5 274,-75.5 304,-75.5 304,-56.5 274,-56.5"/>
<text text-anchor="middle" x="289" y="-63.5" font-family="Verdana" font-size="10.00">list</text>
</g>
<!-- Node8&#45;&gt;Node10 -->
<g id="edge13" class="edge"><title>Node8&#45;&gt;Node10</title>
<path fill="none" stroke="midnightblue" d="M224.371,-112.324C236.158,-104.058 254.132,-91.4527 268.136,-81.6322"/>
<polygon fill="midnightblue" stroke="midnightblue" points="270.482,-84.2619 276.659,-75.6545 266.462,-78.5307 270.482,-84.2619"/>
</g>
<!-- Node11&#45;&gt;Node10 -->
<g id="edge33" class="edge"><title>Node11&#45;&gt;Node10</title>
<path fill="none" stroke="midnightblue" d="M278.591,-224.075C280.323,-197.945 285.408,-121.211 287.769,-85.577"/>
<polygon fill="midnightblue" stroke="midnightblue" points="291.263,-85.7777 288.432,-75.5681 284.279,-85.3148 291.263,-85.7777"/>
</g>
<!-- Node12 -->
<g id="node12" class="node"><title>Node12</title>
<g id="a_node12"><a xlink:href="Element_8h.html" target="_top" xlink:title="Element.h">
<polygon fill="white" stroke="black" points="432.5,-168.5 432.5,-187.5 497.5,-187.5 497.5,-168.5 432.5,-168.5"/>
<text text-anchor="middle" x="465" y="-175.5" font-family="Verdana" font-size="10.00">Element.h</text>
</a>
</g>
</g>
<!-- Node11&#45;&gt;Node12 -->
<g id="edge15" class="edge"><title>Node11&#45;&gt;Node12</title>
<path fill="none" stroke="midnightblue" d="M307.631,-224.444C339.5,-215.241 390.333,-200.562 425.564,-190.388"/>
<polygon fill="midnightblue" stroke="midnightblue" points="426.872,-193.653 435.508,-187.516 424.929,-186.928 426.872,-193.653"/>
</g>
<!-- Node12&#45;&gt;Node4 -->
<g id="edge18" class="edge"><title>Node12&#45;&gt;Node4</title>
<path fill="none" stroke="midnightblue" d="M432.478,-169.172C412.278,-162.607 387.486,-151.14 373,-132 350.205,-101.882 348.409,-55.6074 349.475,-29.8886"/>
<polygon fill="midnightblue" stroke="midnightblue" points="352.984,-29.8451 350.101,-19.6501 345.997,-29.4179 352.984,-29.8451"/>
</g>
<!-- Node12&#45;&gt;Node6 -->
<g id="edge16" class="edge"><title>Node12&#45;&gt;Node6</title>
<path fill="none" stroke="midnightblue" d="M497.871,-177.798C545.69,-177.469 635.633,-171.111 699,-132 725.703,-115.519 731.908,-105.713 742,-76 757.323,-30.8837 682.502,-17.0717 637.34,-12.851"/>
<polygon fill="midnightblue" stroke="midnightblue" points="637.365,-9.34135 627.111,-12.0097 636.791,-16.3178 637.365,-9.34135"/>
</g>
<!-- Node12&#45;&gt;Node10 -->
<g id="edge19" class="edge"><title>Node12&#45;&gt;Node10</title>
<path fill="none" stroke="midnightblue" d="M432.344,-170.534C405.634,-164.065 367.859,-152.123 340,-132 322.617,-119.444 308.143,-99.3856 299.11,-84.8694"/>
<polygon fill="midnightblue" stroke="midnightblue" points="301.875,-82.672 293.756,-75.8655 295.859,-86.2496 301.875,-82.672"/>
</g>
<!-- Node13 -->
<g id="node13" class="node"><title>Node13</title>
<polygon fill="white" stroke="#bfbfbf" points="436.5,-56.5 436.5,-75.5 483.5,-75.5 483.5,-56.5 436.5,-56.5"/>
<text text-anchor="middle" x="460" y="-63.5" font-family="Verdana" font-size="10.00">vector</text>
</g>
<!-- Node12&#45;&gt;Node13 -->
<g id="edge17" class="edge"><title>Node12&#45;&gt;Node13</title>
<path fill="none" stroke="midnightblue" d="M470.353,-168.218C477.271,-155.773 487.878,-132.264 483,-112 480.693,-102.418 475.983,-92.5813 471.422,-84.5579"/>
<polygon fill="midnightblue" stroke="midnightblue" points="474.289,-82.537 466.105,-75.8095 468.308,-86.1727 474.289,-82.537"/>
</g>
<!-- Node14 -->
<g id="node14" class="node"><title>Node14</title>
<g id="a_node14"><a xlink:href="XmlSink_8h.html" target="_top" xlink:title="XmlSink.h">
<polygon fill="white" stroke="black" points="626,-112.5 626,-131.5 690,-131.5 690,-112.5 626,-112.5"/>
<text text-anchor="middle" x="658" y="-119.5" font-family="Verdana" font-size="10.00">XmlSink.h</text>
</a>
</g>
</g>
<!-- Node12&#45;&gt;Node14 -->
<g id="edge20" class="edge"><title>Node12&#45;&gt;Node14</title>
<path fill="none" stroke="midnightblue" d="M495.581,-168.444C528.615,-159.201 581.388,-144.436 617.766,-134.257"/>
<polygon fill="midnightblue" stroke="midnightblue" points="618.875,-137.582 627.562,-131.516 616.988,-130.84 618.875,-137.582"/>
</g>
<!-- Node17 -->
<g id="node17" class="node"><title>Node17</title>
<g id="a_node17"><a xlink:href="XmlSource_8h.html" target="_top" xlink:title="XmlSource.h">
<polygon fill="white" stroke="black" points="530.5,-112.5 530.5,-131.5 607.5,-131.5 607.5,-112.5 530.5,-112.5"/>
<text text-anchor="middle" x="569" y="-119.5" font-family="Verdana" font-size="10.00">XmlSource.h</text>
</a>
</g>
</g>
<!-- Node12&#45;&gt;Node17 -->
<g id="edge26" class="edge"><title>Node12&#45;&gt;Node17</title>
<path fill="none" stroke="midnightblue" d="M481.709,-168.324C498.312,-159.703 524.002,-146.364 543.22,-136.386"/>
<polygon fill="midnightblue" stroke="midnightblue" points="545.07,-139.369 552.332,-131.655 541.844,-133.156 545.07,-139.369"/>
</g>
<!-- Node18 -->
<g id="node18" class="node"><title>Node18</title>
<g id="a_node18"><a xlink:href="PathNavigator_8h.html" target="_top" xlink:title="PathNavigator.h">
<polygon fill="white" stroke="black" points="382,-112.5 382,-131.5 474,-131.5 474,-112.5 382,-112.5"/>
<text text-anchor="middle" x="428" y="-119.5" font-family="Verdana" font-size="10.00">PathNavigator.h</text>
</a>
</g>
</g>
<!-- Node12&#45;&gt;Node18 -->
<g id="edge29" class="edge"><title>Node12&#45;&gt;Node18</title>
<path fill="none" stroke="midnightblue" d="M458.89,-168.083C453.718,-160.534 446.154,-149.495 439.806,-140.23"/>
<polygon fill="midnightblue" stroke="midnightblue" points="442.536,-138.022 433.996,-131.751 436.761,-141.979 442.536,-138.022"/>
</g>
<!-- Node15 -->
<g id="node15" class="node"><title>Node15</title>
<g id="a_node15"><a xlink:href="XmlElement_8h.html" target="_top" xlink:title="XmlElement.h">
<polygon fill="white" stroke="black" points="501.5,-56.5 501.5,-75.5 584.5,-75.5 584.5,-56.5 501.5,-56.5"/>
<text text-anchor="middle" x="543" y="-63.5" font-family="Verdana" font-size="10.00">XmlElement.h</text>
</a>
</g>
</g>
<!-- Node14&#45;&gt;Node15 -->
<g id="edge21" class="edge"><title>Node14&#45;&gt;Node15</title>
<path fill="none" stroke="midnightblue" d="M639.778,-112.444C621.104,-103.675 591.844,-89.9355 570.383,-79.8579"/>
<polygon fill="midnightblue" stroke="midnightblue" points="571.676,-76.5988 561.137,-75.5164 568.701,-82.935 571.676,-76.5988"/>
</g>
<!-- Node16 -->
<g id="node16" class="node"><title>Node16</title>
<g id="a_node16"><a xlink:href="XmlSerializingContext_8h.html" target="_top" xlink:title="XmlSerializingContext.h">
<polygon fill="white" stroke="black" points="603,-56.5 603,-75.5 733,-75.5 733,-56.5 603,-56.5"/>
<text text-anchor="middle" x="668" y="-63.5" font-family="Verdana" font-size="10.00">XmlSerializingContext.h</text>
</a>
</g>
</g>
<!-- Node14&#45;&gt;Node16 -->
<g id="edge24" class="edge"><title>Node14&#45;&gt;Node16</title>
<path fill="none" stroke="midnightblue" d="M659.651,-112.083C660.976,-104.927 662.882,-94.6353 664.539,-85.6911"/>
<polygon fill="midnightblue" stroke="midnightblue" points="668,-86.2212 666.379,-75.7511 661.117,-84.9466 668,-86.2212"/>
</g>
<!-- Node15&#45;&gt;Node4 -->
<g id="edge22" class="edge"><title>Node15&#45;&gt;Node4</title>
<path fill="none" stroke="midnightblue" d="M512.577,-56.4435C478.555,-46.8749 423.485,-31.3864 387.256,-21.1971"/>
<polygon fill="midnightblue" stroke="midnightblue" points="388.145,-17.8113 377.571,-18.473 386.25,-24.5498 388.145,-17.8113"/>
</g>
<!-- Node15&#45;&gt;Node6 -->
<g id="edge23" class="edge"><title>Node15&#45;&gt;Node6</title>
<path fill="none" stroke="midnightblue" d="M552.961,-56.324C562.127,-48.3414 575.937,-36.3128 587.028,-26.6529"/>
<polygon fill="midnightblue" stroke="midnightblue" points="589.615,-29.041 594.857,-19.8339 585.018,-23.7624 589.615,-29.041"/>
</g>
<!-- Node16&#45;&gt;Node6 -->
<g id="edge25" class="edge"><title>Node16&#45;&gt;Node6</title>
<path fill="none" stroke="midnightblue" d="M657.878,-56.324C648.474,-48.2631 634.256,-36.0765 622.931,-26.3695"/>
<polygon fill="midnightblue" stroke="midnightblue" points="625.177,-23.6844 615.306,-19.8339 620.621,-28.9993 625.177,-23.6844"/>
</g>
<!-- Node17&#45;&gt;Node15 -->
<g id="edge27" class="edge"><title>Node17&#45;&gt;Node15</title>
<path fill="none" stroke="midnightblue" d="M564.707,-112.083C561.148,-104.691 555.978,-93.9533 551.576,-84.8111"/>
<polygon fill="midnightblue" stroke="midnightblue" points="554.705,-83.2427 547.213,-75.7511 548.398,-86.2795 554.705,-83.2427"/>
</g>
<!-- Node17&#45;&gt;Node16 -->
<g id="edge28" class="edge"><title>Node17&#45;&gt;Node16</title>
<path fill="none" stroke="midnightblue" d="M584.906,-112.324C600.638,-103.743 624.942,-90.486 643.209,-80.5224"/>
<polygon fill="midnightblue" stroke="midnightblue" points="645.03,-83.5157 652.133,-75.6545 641.678,-77.3704 645.03,-83.5157"/>
</g>
<!-- Node18&#45;&gt;Node4 -->
<g id="edge32" class="edge"><title>Node18&#45;&gt;Node4</title>
<path fill="none" stroke="midnightblue" d="M421.32,-112.492C414.343,-103.53 403.162,-88.9493 394,-76 382.681,-60.0012 370.405,-41.2984 361.879,-28.073"/>
<polygon fill="midnightblue" stroke="midnightblue" points="364.744,-26.0572 356.4,-19.5279 358.851,-29.8354 364.744,-26.0572"/>
</g>
<!-- Node18&#45;&gt;Node6 -->
<g id="edge31" class="edge"><title>Node18&#45;&gt;Node6</title>
<path fill="none" stroke="midnightblue" d="M424.78,-112.356C420.34,-98.7957 414.242,-72.385 427,-56 444.714,-33.2508 526.283,-20.1817 572.611,-14.472"/>
<polygon fill="midnightblue" stroke="midnightblue" points="573.231,-17.9232 582.749,-13.2706 572.407,-10.9718 573.231,-17.9232"/>
</g>
<!-- Node18&#45;&gt;Node13 -->
<g id="edge30" class="edge"><title>Node18&#45;&gt;Node13</title>
<path fill="none" stroke="midnightblue" d="M433.284,-112.083C437.711,-104.613 444.163,-93.7244 449.618,-84.5199"/>
<polygon fill="midnightblue" stroke="midnightblue" points="452.727,-86.1383 454.814,-75.7511 446.705,-82.5697 452.727,-86.1383"/>
</g>
<!-- Node19&#45;&gt;Node6 -->
<g id="edge40" class="edge"><title>Node19&#45;&gt;Node6</title>
<path fill="none" stroke="midnightblue" d="M891.211,-168.374C909.438,-161.387 932.241,-149.747 946,-132 967.044,-104.856 982.708,-81.7682 960,-56 938.801,-31.9436 720.916,-17.4215 637.367,-12.7012"/>
<polygon fill="midnightblue" stroke="midnightblue" points="637.361,-9.19559 627.182,-12.137 636.973,-16.1849 637.361,-9.19559"/>
</g>
<!-- Node20 -->
<g id="node20" class="node"><title>Node20</title>
<g id="a_node20"><a xlink:href="ParameterAccessContext_8h.html" target="_top" xlink:title="ParameterAccessContext.h">
<polygon fill="white" stroke="black" points="789.5,-112.5 789.5,-131.5 936.5,-131.5 936.5,-112.5 789.5,-112.5"/>
<text text-anchor="middle" x="863" y="-119.5" font-family="Verdana" font-size="10.00">ParameterAccessContext.h</text>
</a>
</g>
</g>
<!-- Node19&#45;&gt;Node20 -->
<g id="edge35" class="edge"><title>Node19&#45;&gt;Node20</title>
<path fill="none" stroke="midnightblue" d="M863,-168.083C863,-161.006 863,-150.861 863,-141.986"/>
<polygon fill="midnightblue" stroke="midnightblue" points="866.5,-141.751 863,-131.751 859.5,-141.751 866.5,-141.751"/>
</g>
<!-- Node20&#45;&gt;Node4 -->
<g id="edge36" class="edge"><title>Node20&#45;&gt;Node4</title>
<path fill="none" stroke="midnightblue" d="M850.641,-112.286C829.501,-97.8732 784.551,-69.3384 742,-56 616.414,-16.6322 458.465,-11.0302 387.946,-10.6697"/>
<polygon fill="midnightblue" stroke="midnightblue" points="387.799,-7.16949 377.793,-10.6517 387.787,-14.1695 387.799,-7.16949"/>
</g>
<!-- Node20&#45;&gt;Node6 -->
<g id="edge39" class="edge"><title>Node20&#45;&gt;Node6</title>
<path fill="none" stroke="midnightblue" d="M858.849,-112.254C851.633,-98.0556 835.379,-70.1579 813,-56 758.167,-21.3102 680.68,-13.038 637.425,-11.2633"/>
<polygon fill="midnightblue" stroke="midnightblue" points="637.306,-7.75791 627.2,-10.94 637.085,-14.7544 637.306,-7.75791"/>
</g>
<!-- Node21 -->
<g id="node21" class="node"><title>Node21</title>
<g id="a_node21"><a xlink:href="ErrorContext_8h.html" target="_top" xlink:title="ErrorContext.h">
<polygon fill="white" stroke="black" points="865,-56.5 865,-75.5 951,-75.5 951,-56.5 865,-56.5"/>
<text text-anchor="middle" x="908" y="-63.5" font-family="Verdana" font-size="10.00">ErrorContext.h</text>
</a>
</g>
</g>
<!-- Node20&#45;&gt;Node21 -->
<g id="edge37" class="edge"><title>Node20&#45;&gt;Node21</title>
<path fill="none" stroke="midnightblue" d="M870.431,-112.083C876.853,-104.377 886.306,-93.0333 894.122,-83.6531"/>
<polygon fill="midnightblue" stroke="midnightblue" points="896.994,-85.674 900.707,-75.7511 891.617,-81.1927 896.994,-85.674"/>
</g>
<!-- Node21&#45;&gt;Node6 -->
<g id="edge38" class="edge"><title>Node21&#45;&gt;Node6</title>
<path fill="none" stroke="midnightblue" d="M864.909,-57.3205C803.487,-46.3739 692.139,-26.5298 637.297,-16.7558"/>
<polygon fill="midnightblue" stroke="midnightblue" points="637.572,-13.2498 627.113,-14.9409 636.344,-20.1413 637.572,-13.2498"/>
</g>
</g>
</svg>
