<?xml version="1.0" encoding="UTF-8" standalone="no"?>
<!DOCTYPE svg PUBLIC "-//W3C//DTD SVG 1.1//EN"
 "http://www.w3.org/Graphics/SVG/1.1/DTD/svg11.dtd">
<!-- Generated by graphviz version 2.38.0 (20140413.2041)
 -->
<!-- Title: /home/dawagner/dev/parameter&#45;framework/parameter/AutoLock.h Pages: 1 -->
<svg width="366pt" height="128pt"
 viewBox="0.00 0.00 365.50 128.00" xmlns="http://www.w3.org/2000/svg" xmlns:xlink="http://www.w3.org/1999/xlink">
<g id="graph0" class="graph" transform="scale(1 1) rotate(0) translate(4 124)">
<title>/home/dawagner/dev/parameter&#45;framework/parameter/AutoLock.h</title>
<polygon fill="white" stroke="none" points="-4,4 -4,-124 361.5,-124 361.5,4 -4,4"/>
<!-- Node1 -->
<g id="node1" class="node"><title>Node1</title>
<polygon fill="#bfbfbf" stroke="black" points="119.5,-78.5 119.5,-119.5 246.5,-119.5 246.5,-78.5 119.5,-78.5"/>
<text text-anchor="start" x="127.5" y="-107.5" font-family="Verdana" font-size="10.00">/home/dawagner/dev</text>
<text text-anchor="start" x="127.5" y="-96.5" font-family="Verdana" font-size="10.00">/parameter&#45;framework</text>
<text text-anchor="middle" x="183" y="-85.5" font-family="Verdana" font-size="10.00">/parameter/AutoLock.h</text>
</g>
<!-- Node2 -->
<g id="node2" class="node"><title>Node2</title>
<g id="a_node2"><a xlink:href="ParameterHandle_8cpp.html" target="_top" xlink:title="/home/dawagner/dev\l/parameter&#45;framework\l/parameter/ParameterHandle.cpp">
<polygon fill="white" stroke="black" points="0,-0.5 0,-41.5 178,-41.5 178,-0.5 0,-0.5"/>
<text text-anchor="start" x="8" y="-29.5" font-family="Verdana" font-size="10.00">/home/dawagner/dev</text>
<text text-anchor="start" x="8" y="-18.5" font-family="Verdana" font-size="10.00">/parameter&#45;framework</text>
<text text-anchor="middle" x="89" y="-7.5" font-family="Verdana" font-size="10.00">/parameter/ParameterHandle.cpp</text>
</a>
</g>
</g>
<!-- Node1&#45;&gt;Node2 -->
<g id="edge1" class="edge"><title>Node1&#45;&gt;Node2</title>
<path fill="none" stroke="midnightblue" d="M150.922,-72.0648C138.545,-62.0574 124.627,-50.8045 113.125,-41.5056"/>
<polygon fill="midnightblue" stroke="midnightblue" points="148.816,-74.8626 158.793,-78.4281 153.217,-69.4191 148.816,-74.8626"/>
</g>
<!-- Node3 -->
<g id="node3" class="node"><title>Node3</title>
<g id="a_node3"><a xlink:href="ParameterMgr_8cpp.html" target="_top" xlink:title="/home/dawagner/dev\l/parameter&#45;framework\l/parameter/ParameterMgr.cpp">
<polygon fill="white" stroke="black" points="196.5,-0.5 196.5,-41.5 357.5,-41.5 357.5,-0.5 196.5,-0.5"/>
<text text-anchor="start" x="204.5" y="-29.5" font-family="Verdana" font-size="10.00">/home/dawagner/dev</text>
<text text-anchor="start" x="204.5" y="-18.5" font-family="Verdana" font-size="10.00">/parameter&#45;framework</text>
<text text-anchor="middle" x="277" y="-7.5" font-family="Verdana" font-size="10.00">/parameter/ParameterMgr.cpp</text>
</a>
</g>
</g>
<!-- Node1&#45;&gt;Node3 -->
<g id="edge2" class="edge"><title>Node1&#45;&gt;Node3</title>
<path fill="none" stroke="midnightblue" d="M215.078,-72.0648C227.455,-62.0574 241.373,-50.8045 252.875,-41.5056"/>
<polygon fill="midnightblue" stroke="midnightblue" points="212.783,-69.4191 207.207,-78.4281 217.184,-74.8626 212.783,-69.4191"/>
</g>
</g>
</svg>
