<?xml version="1.0" encoding="UTF-8" standalone="no"?>
<!DOCTYPE svg PUBLIC "-//W3C//DTD SVG 1.1//EN"
 "http://www.w3.org/Graphics/SVG/1.1/DTD/svg11.dtd">
<!-- Generated by graphviz version 2.38.0 (20140413.2041)
 -->
<!-- Title: /home/dawagner/dev/parameter&#45;framework/parameter/AutoLock.h Pages: 1 -->
<svg width="135pt" height="106pt"
 viewBox="0.00 0.00 135.00 106.00" xmlns="http://www.w3.org/2000/svg" xmlns:xlink="http://www.w3.org/1999/xlink">
<g id="graph0" class="graph" transform="scale(1 1) rotate(0) translate(4 102)">
<title>/home/dawagner/dev/parameter&#45;framework/parameter/AutoLock.h</title>
<polygon fill="white" stroke="none" points="-4,4 -4,-102 131,-102 131,4 -4,4"/>
<!-- Node1 -->
<g id="node1" class="node"><title>Node1</title>
<polygon fill="#bfbfbf" stroke="black" points="0,-56.5 0,-97.5 127,-97.5 127,-56.5 0,-56.5"/>
<text text-anchor="start" x="8" y="-85.5" font-family="Verdana" font-size="10.00">/home/dawagner/dev</text>
<text text-anchor="start" x="8" y="-74.5" font-family="Verdana" font-size="10.00">/parameter&#45;framework</text>
<text text-anchor="middle" x="63.5" y="-63.5" font-family="Verdana" font-size="10.00">/parameter/AutoLock.h</text>
</g>
<!-- Node2 -->
<g id="node2" class="node"><title>Node2</title>
<polygon fill="white" stroke="#bfbfbf" points="32,-0.5 32,-19.5 95,-19.5 95,-0.5 32,-0.5"/>
<text text-anchor="middle" x="63.5" y="-7.5" font-family="Verdana" font-size="10.00">pthread.h</text>
</g>
<!-- Node1&#45;&gt;Node2 -->
<g id="edge1" class="edge"><title>Node1&#45;&gt;Node2</title>
<path fill="none" stroke="midnightblue" d="M63.5,-56.4979C63.5,-48.0653 63.5,-38.2351 63.5,-29.874"/>
<polygon fill="midnightblue" stroke="midnightblue" points="67.0001,-29.6525 63.5,-19.6525 60.0001,-29.6525 67.0001,-29.6525"/>
</g>
</g>
</svg>
