<?xml version="1.0" encoding="UTF-8" standalone="no"?>
<!DOCTYPE svg PUBLIC "-//W3C//DTD SVG 1.1//EN"
 "http://www.w3.org/Graphics/SVG/1.1/DTD/svg11.dtd">
<!-- Generated by graphviz version 2.36.0 (20140111.2315)
 -->
<!-- Title: parameter/AutoLog.h Pages: 1 -->
<svg width="1051pt" height="96pt"
 viewBox="0.00 0.00 1051.00 96.00" xmlns="http://www.w3.org/2000/svg" xmlns:xlink="http://www.w3.org/1999/xlink">
<g id="graph0" class="graph" transform="scale(1 1) rotate(0) translate(4 92)">
<title>parameter/AutoLog.h</title>
<polygon fill="white" stroke="none" points="-4,4 -4,-92 1047,-92 1047,4 -4,4"/>
<!-- Node1 -->
<g id="node1" class="node"><title>Node1</title>
<polygon fill="#bfbfbf" stroke="black" points="472.5,-68.5 472.5,-87.5 591.5,-87.5 591.5,-68.5 472.5,-68.5"/>
<text text-anchor="middle" x="532" y="-75.5" font-family="Verdana" font-size="10.00">parameter/AutoLog.h</text>
</g>
<!-- Node2 -->
<g id="node2" class="node"><title>Node2</title>
<g id="a_node2"><a xlink:href="AutoLog_8cpp.html" target="_top" xlink:title="parameter/AutoLog.cpp">
<polygon fill="white" stroke="black" points="-0.5,-6.5 -0.5,-25.5 130.5,-25.5 130.5,-6.5 -0.5,-6.5"/>
<text text-anchor="middle" x="65" y="-13.5" font-family="Verdana" font-size="10.00">parameter/AutoLog.cpp</text>
</a>
</g>
</g>
<!-- Node1&#45;&gt;Node2 -->
<g id="edge1" class="edge"><title>Node1&#45;&gt;Node2</title>
<path fill="none" stroke="midnightblue" d="M462.094,-70.7435C383.503,-63.2995 252.205,-49.6295 140,-32 128.456,-30.1863 115.987,-27.847 104.592,-25.5579"/>
<polygon fill="midnightblue" stroke="midnightblue" points="462.071,-74.2567 472.354,-71.7083 462.726,-67.2874 462.071,-74.2567"/>
</g>
<!-- Node3 -->
<g id="node3" class="node"><title>Node3</title>
<g id="a_node3"><a xlink:href="ConfigurableDomains_8cpp.html" target="_top" xlink:title="parameter/ConfigurableDomains.cpp">
<polygon fill="white" stroke="black" points="149,-6.5 149,-25.5 343,-25.5 343,-6.5 149,-6.5"/>
<text text-anchor="middle" x="246" y="-13.5" font-family="Verdana" font-size="10.00">parameter/ConfigurableDomains.cpp</text>
</a>
</g>
</g>
<!-- Node1&#45;&gt;Node3 -->
<g id="edge2" class="edge"><title>Node1&#45;&gt;Node3</title>
<path fill="none" stroke="midnightblue" d="M481.346,-66.3734C425.782,-54.7166 337.715,-36.2408 286.533,-25.5034"/>
<polygon fill="midnightblue" stroke="midnightblue" points="480.821,-69.8393 491.327,-68.4672 482.259,-62.9885 480.821,-69.8393"/>
</g>
<!-- Node4 -->
<g id="node4" class="node"><title>Node4</title>
<g id="a_node4"><a xlink:href="ParameterMgr_8cpp.html" target="_top" xlink:title="parameter/ParameterMgr.cpp">
<polygon fill="white" stroke="black" points="361,-6.5 361,-25.5 519,-25.5 519,-6.5 361,-6.5"/>
<text text-anchor="middle" x="440" y="-13.5" font-family="Verdana" font-size="10.00">parameter/ParameterMgr.cpp</text>
</a>
</g>
</g>
<!-- Node1&#45;&gt;Node4 -->
<g id="edge3" class="edge"><title>Node1&#45;&gt;Node4</title>
<path fill="none" stroke="midnightblue" d="M510.244,-62.8113C492.508,-51.2443 468.04,-35.2867 453.157,-25.5806"/>
<polygon fill="midnightblue" stroke="midnightblue" points="508.531,-65.8724 518.819,-68.4035 512.354,-60.0091 508.531,-65.8724"/>
</g>
<!-- Node5 -->
<g id="node5" class="node"><title>Node5</title>
<g id="a_node5"><a xlink:href="SelectionCriterion_8cpp.html" target="_top" xlink:title="parameter/SelectionCriterion.cpp">
<polygon fill="white" stroke="black" points="537,-6.5 537,-25.5 713,-25.5 713,-6.5 537,-6.5"/>
<text text-anchor="middle" x="625" y="-13.5" font-family="Verdana" font-size="10.00">parameter/SelectionCriterion.cpp</text>
</a>
</g>
</g>
<!-- Node1&#45;&gt;Node5 -->
<g id="edge4" class="edge"><title>Node1&#45;&gt;Node5</title>
<path fill="none" stroke="midnightblue" d="M553.993,-62.8113C571.921,-51.2443 596.656,-35.2867 611.7,-25.5806"/>
<polygon fill="midnightblue" stroke="midnightblue" points="551.83,-60.0411 545.325,-68.4035 555.625,-65.9232 551.83,-60.0411"/>
</g>
<!-- Node6 -->
<g id="node6" class="node"><title>Node6</title>
<g id="a_node6"><a xlink:href="SystemClass_8cpp.html" target="_top" xlink:title="parameter/SystemClass.cpp">
<polygon fill="white" stroke="black" points="731.5,-6.5 731.5,-25.5 884.5,-25.5 884.5,-6.5 731.5,-6.5"/>
<text text-anchor="middle" x="808" y="-13.5" font-family="Verdana" font-size="10.00">parameter/SystemClass.cpp</text>
</a>
</g>
</g>
<!-- Node1&#45;&gt;Node6 -->
<g id="edge5" class="edge"><title>Node1&#45;&gt;Node6</title>
<path fill="none" stroke="midnightblue" d="M581.217,-66.3007C634.856,-54.6399 719.595,-36.2185 768.884,-25.5034"/>
<polygon fill="midnightblue" stroke="midnightblue" points="580.279,-62.9227 571.251,-68.4672 581.766,-69.7629 580.279,-62.9227"/>
</g>
<!-- Node7 -->
<g id="node7" class="node"><title>Node7</title>
<g id="a_node7"><a xlink:href="XmlFileIncluderElement_8cpp.html" target="_top" xlink:title="parameter/XmlFileIncluder\lElement.cpp">
<polygon fill="white" stroke="black" points="902.5,-1 902.5,-31 1043.5,-31 1043.5,-1 902.5,-1"/>
<text text-anchor="start" x="910.5" y="-19" font-family="Verdana" font-size="10.00">parameter/XmlFileIncluder</text>
<text text-anchor="middle" x="973" y="-8" font-family="Verdana" font-size="10.00">Element.cpp</text>
</a>
</g>
</g>
<!-- Node1&#45;&gt;Node7 -->
<g id="edge6" class="edge"><title>Node1&#45;&gt;Node7</title>
<path fill="none" stroke="midnightblue" d="M601.537,-69.613C674.361,-61.5771 791.976,-47.7523 893,-32 896.072,-31.521 899.206,-31.0136 902.37,-30.4862"/>
<polygon fill="midnightblue" stroke="midnightblue" points="601.122,-66.1373 591.564,-70.7081 601.887,-73.0955 601.122,-66.1373"/>
</g>
</g>
</svg>
