<?xml version="1.0" encoding="UTF-8" standalone="no"?>
<!DOCTYPE svg PUBLIC "-//W3C//DTD SVG 1.1//EN"
 "http://www.w3.org/Graphics/SVG/1.1/DTD/svg11.dtd">
<!-- Generated by graphviz version 2.38.0 (20140413.2041)
 -->
<!-- Title: remote&#45;processor/BackgroundRemoteProcessorServer.h Pages: 1 -->
<svg width="610pt" height="263pt"
 viewBox="0.00 0.00 610.00 263.00" xmlns="http://www.w3.org/2000/svg" xmlns:xlink="http://www.w3.org/1999/xlink">
<g id="graph0" class="graph" transform="scale(1 1) rotate(0) translate(4 259)">
<title>remote&#45;processor/BackgroundRemoteProcessorServer.h</title>
<polygon fill="white" stroke="none" points="-4,4 -4,-259 606,-259 606,4 -4,4"/>
<!-- Node1 -->
<g id="node1" class="node"><title>Node1</title>
<polygon fill="#bfbfbf" stroke="black" points="372,-224.5 372,-254.5 535,-254.5 535,-224.5 372,-224.5"/>
<text text-anchor="start" x="380" y="-242.5" font-family="Verdana" font-size="10.00">remote&#45;processor/Background</text>
<text text-anchor="middle" x="453.5" y="-231.5" font-family="Verdana" font-size="10.00">RemoteProcessorServer.h</text>
</g>
<!-- Node2 -->
<g id="node2" class="node"><title>Node2</title>
<g id="a_node2"><a xlink:href="RemoteProcessorServerInterface_8h.html" target="_top" xlink:title="RemoteProcessorServerInterface.h">
<polygon fill="white" stroke="black" points="242,-168.5 242,-187.5 425,-187.5 425,-168.5 242,-168.5"/>
<text text-anchor="middle" x="333.5" y="-175.5" font-family="Verdana" font-size="10.00">RemoteProcessorServerInterface.h</text>
</a>
</g>
</g>
<!-- Node1&#45;&gt;Node2 -->
<g id="edge1" class="edge"><title>Node1&#45;&gt;Node2</title>
<path fill="none" stroke="midnightblue" d="M425.062,-224.399C405.377,-214.639 379.357,-201.737 360.087,-192.183"/>
<polygon fill="midnightblue" stroke="midnightblue" points="361.475,-188.964 350.961,-187.658 358.365,-195.236 361.475,-188.964"/>
</g>
<!-- Node4 -->
<g id="node4" class="node"><title>Node4</title>
<polygon fill="white" stroke="#bfbfbf" points="0,-0.5 0,-19.5 149,-19.5 149,-0.5 0,-0.5"/>
<text text-anchor="middle" x="74.5" y="-7.5" font-family="Verdana" font-size="10.00">remote_processor_export.h</text>
</g>
<!-- Node1&#45;&gt;Node4 -->
<g id="edge22" class="edge"><title>Node1&#45;&gt;Node4</title>
<path fill="none" stroke="midnightblue" d="M371.869,-231.935C328.117,-225.538 274.694,-212.912 232.5,-188 162.793,-146.843 106.998,-64.5669 84.8346,-28.558"/>
<polygon fill="midnightblue" stroke="midnightblue" points="87.6541,-26.4558 79.4917,-19.7011 81.6603,-30.0717 87.6541,-26.4558"/>
</g>
<!-- Node12 -->
<g id="node12" class="node"><title>Node12</title>
<g id="a_node12"><a xlink:href="RemoteCommandHandler_8h.html" target="_top" xlink:title="RemoteCommandHandler.h">
<polygon fill="white" stroke="black" points="392,-112.5 392,-131.5 541,-131.5 541,-112.5 392,-112.5"/>
<text text-anchor="middle" x="466.5" y="-119.5" font-family="Verdana" font-size="10.00">RemoteCommandHandler.h</text>
</a>
</g>
</g>
<!-- Node1&#45;&gt;Node12 -->
<g id="edge17" class="edge"><title>Node1&#45;&gt;Node12</title>
<path fill="none" stroke="midnightblue" d="M455.094,-224.337C457.426,-203.622 461.771,-165.016 464.373,-141.899"/>
<polygon fill="midnightblue" stroke="midnightblue" points="467.884,-141.998 465.524,-131.669 460.928,-141.215 467.884,-141.998"/>
</g>
<!-- Node13 -->
<g id="node13" class="node"><title>Node13</title>
<polygon fill="white" stroke="#bfbfbf" points="482,-168.5 482,-187.5 539,-187.5 539,-168.5 482,-168.5"/>
<text text-anchor="middle" x="510.5" y="-175.5" font-family="Verdana" font-size="10.00">memory</text>
</g>
<!-- Node1&#45;&gt;Node13 -->
<g id="edge20" class="edge"><title>Node1&#45;&gt;Node13</title>
<path fill="none" stroke="midnightblue" d="M467.008,-224.399C475.462,-215.575 486.375,-204.183 495.155,-195.018"/>
<polygon fill="midnightblue" stroke="midnightblue" points="497.816,-197.3 502.206,-187.658 492.761,-192.458 497.816,-197.3"/>
</g>
<!-- Node14 -->
<g id="node14" class="node"><title>Node14</title>
<polygon fill="white" stroke="#bfbfbf" points="557,-168.5 557,-187.5 602,-187.5 602,-168.5 557,-168.5"/>
<text text-anchor="middle" x="579.5" y="-175.5" font-family="Verdana" font-size="10.00">future</text>
</g>
<!-- Node1&#45;&gt;Node14 -->
<g id="edge21" class="edge"><title>Node1&#45;&gt;Node14</title>
<path fill="none" stroke="midnightblue" d="M483.36,-224.399C504.123,-214.595 531.6,-201.619 551.861,-192.052"/>
<polygon fill="midnightblue" stroke="midnightblue" points="553.618,-195.093 561.166,-187.658 550.629,-188.763 553.618,-195.093"/>
</g>
<!-- Node3 -->
<g id="node3" class="node"><title>Node3</title>
<g id="a_node3"><a xlink:href="RequestMessage_8h.html" target="_top" xlink:title="RequestMessage.h">
<polygon fill="white" stroke="black" points="267,-112.5 267,-131.5 374,-131.5 374,-112.5 267,-112.5"/>
<text text-anchor="middle" x="320.5" y="-119.5" font-family="Verdana" font-size="10.00">RequestMessage.h</text>
</a>
</g>
</g>
<!-- Node2&#45;&gt;Node3 -->
<g id="edge2" class="edge"><title>Node2&#45;&gt;Node3</title>
<path fill="none" stroke="midnightblue" d="M331.353,-168.083C329.631,-160.927 327.153,-150.635 325,-141.691"/>
<polygon fill="midnightblue" stroke="midnightblue" points="328.35,-140.654 322.607,-131.751 321.545,-142.293 328.35,-140.654"/>
</g>
<!-- Node8 -->
<g id="node8" class="node"><title>Node8</title>
<polygon fill="white" stroke="#bfbfbf" points="489.5,-0.5 489.5,-19.5 533.5,-19.5 533.5,-0.5 489.5,-0.5"/>
<text text-anchor="middle" x="511.5" y="-7.5" font-family="Verdana" font-size="10.00">string</text>
</g>
<!-- Node2&#45;&gt;Node8 -->
<g id="edge16" class="edge"><title>Node2&#45;&gt;Node8</title>
<path fill="none" stroke="midnightblue" d="M425.213,-169.361C476.621,-162.966 533.55,-151.615 549.5,-132 574.849,-100.825 544.75,-52.6118 525.373,-27.4917"/>
<polygon fill="midnightblue" stroke="midnightblue" points="528.06,-25.2483 519.074,-19.6354 522.599,-29.6269 528.06,-25.2483"/>
</g>
<!-- Node3&#45;&gt;Node4 -->
<g id="edge3" class="edge"><title>Node3&#45;&gt;Node4</title>
<path fill="none" stroke="midnightblue" d="M300.716,-112.459C279.951,-103.471 246.375,-88.8692 217.5,-76 177.393,-58.1247 131.167,-37.0213 102.386,-23.8221"/>
<polygon fill="midnightblue" stroke="midnightblue" points="103.52,-20.4917 92.9718,-19.5013 100.6,-26.8536 103.52,-20.4917"/>
</g>
<!-- Node5 -->
<g id="node5" class="node"><title>Node5</title>
<g id="a_node5"><a xlink:href="Message_8h.html" target="_top" xlink:title="Message.h">
<polygon fill="white" stroke="black" points="226.5,-56.5 226.5,-75.5 294.5,-75.5 294.5,-56.5 226.5,-56.5"/>
<text text-anchor="middle" x="260.5" y="-63.5" font-family="Verdana" font-size="10.00">Message.h</text>
</a>
</g>
</g>
<!-- Node3&#45;&gt;Node5 -->
<g id="edge4" class="edge"><title>Node3&#45;&gt;Node5</title>
<path fill="none" stroke="midnightblue" d="M310.86,-112.324C301.99,-104.341 288.625,-92.3128 277.892,-82.6529"/>
<polygon fill="midnightblue" stroke="midnightblue" points="280.09,-79.922 270.315,-75.8339 275.407,-85.1251 280.09,-79.922"/>
</g>
<!-- Node7 -->
<g id="node7" class="node"><title>Node7</title>
<polygon fill="white" stroke="#bfbfbf" points="353,-0.5 353,-19.5 400,-19.5 400,-0.5 353,-0.5"/>
<text text-anchor="middle" x="376.5" y="-7.5" font-family="Verdana" font-size="10.00">vector</text>
</g>
<!-- Node3&#45;&gt;Node7 -->
<g id="edge14" class="edge"><title>Node3&#45;&gt;Node7</title>
<path fill="none" stroke="midnightblue" d="M322.313,-112.204C325.189,-99.3372 331.515,-74.8669 341.5,-56 346.929,-45.7419 354.728,-35.4394 361.587,-27.2856"/>
<polygon fill="midnightblue" stroke="midnightblue" points="364.309,-29.4904 368.256,-19.6583 359.039,-24.883 364.309,-29.4904"/>
</g>
<!-- Node3&#45;&gt;Node8 -->
<g id="edge15" class="edge"><title>Node3&#45;&gt;Node8</title>
<path fill="none" stroke="midnightblue" d="M361.251,-112.45C400.071,-103.691 455.095,-89.4833 472.5,-76 488.071,-63.9374 498.766,-43.7613 504.964,-29.0821"/>
<polygon fill="midnightblue" stroke="midnightblue" points="508.305,-30.1475 508.687,-19.5596 501.786,-27.5983 508.305,-30.1475"/>
</g>
<!-- Node10 -->
<g id="node10" class="node"><title>Node10</title>
<g id="a_node10"><a xlink:href="RemoteCommand_8h.html" target="_top" xlink:title="RemoteCommand.h">
<polygon fill="white" stroke="black" points="351,-56.5 351,-75.5 464,-75.5 464,-56.5 351,-56.5"/>
<text text-anchor="middle" x="407.5" y="-63.5" font-family="Verdana" font-size="10.00">RemoteCommand.h</text>
</a>
</g>
</g>
<!-- Node3&#45;&gt;Node10 -->
<g id="edge10" class="edge"><title>Node3&#45;&gt;Node10</title>
<path fill="none" stroke="midnightblue" d="M334.478,-112.324C348.05,-103.9 368.88,-90.9709 384.825,-81.0741"/>
<polygon fill="midnightblue" stroke="midnightblue" points="386.906,-83.9019 393.557,-75.6545 383.214,-77.9544 386.906,-83.9019"/>
</g>
<!-- Node5&#45;&gt;Node4 -->
<g id="edge9" class="edge"><title>Node5&#45;&gt;Node4</title>
<path fill="none" stroke="midnightblue" d="M231.028,-56.4435C199.329,-47.2406 148.768,-32.5617 113.725,-22.3879"/>
<polygon fill="midnightblue" stroke="midnightblue" points="114.414,-18.9434 103.834,-19.5164 112.462,-25.6658 114.414,-18.9434"/>
</g>
<!-- Node6 -->
<g id="node6" class="node"><title>Node6</title>
<g id="a_node6"><a xlink:href="NonCopyable_8hpp.html" target="_top" xlink:title="NonCopyable.hpp">
<polygon fill="white" stroke="black" points="167,-0.5 167,-19.5 268,-19.5 268,-0.5 167,-0.5"/>
<text text-anchor="middle" x="217.5" y="-7.5" font-family="Verdana" font-size="10.00">NonCopyable.hpp</text>
</a>
</g>
</g>
<!-- Node5&#45;&gt;Node6 -->
<g id="edge5" class="edge"><title>Node5&#45;&gt;Node6</title>
<path fill="none" stroke="midnightblue" d="M253.399,-56.083C247.263,-48.3768 238.23,-37.0333 230.761,-27.6531"/>
<polygon fill="midnightblue" stroke="midnightblue" points="233.436,-25.3936 224.468,-19.7511 227.96,-29.7542 233.436,-25.3936"/>
</g>
<!-- Node5&#45;&gt;Node7 -->
<g id="edge6" class="edge"><title>Node5&#45;&gt;Node7</title>
<path fill="none" stroke="midnightblue" d="M278.881,-56.4435C297.716,-47.6751 327.231,-33.9355 348.879,-23.8579"/>
<polygon fill="midnightblue" stroke="midnightblue" points="350.617,-26.9098 358.205,-19.5164 347.662,-20.5637 350.617,-26.9098"/>
</g>
<!-- Node5&#45;&gt;Node8 -->
<g id="edge7" class="edge"><title>Node5&#45;&gt;Node8</title>
<path fill="none" stroke="midnightblue" d="M294.809,-58.7372C336.123,-51.0234 407.815,-37.091 479.119,-19.94"/>
<polygon fill="midnightblue" stroke="midnightblue" points="480.282,-23.2593 489.174,-17.4989 478.631,-16.4569 480.282,-23.2593"/>
</g>
<!-- Node9 -->
<g id="node9" class="node"><title>Node9</title>
<polygon fill="white" stroke="#bfbfbf" points="286,-0.5 286,-19.5 335,-19.5 335,-0.5 286,-0.5"/>
<text text-anchor="middle" x="310.5" y="-7.5" font-family="Verdana" font-size="10.00">cstdint</text>
</g>
<!-- Node5&#45;&gt;Node9 -->
<g id="edge8" class="edge"><title>Node5&#45;&gt;Node9</title>
<path fill="none" stroke="midnightblue" d="M268.756,-56.083C275.965,-48.2982 286.61,-36.8015 295.346,-27.3665"/>
<polygon fill="midnightblue" stroke="midnightblue" points="298.171,-29.4666 302.397,-19.7511 293.035,-24.7108 298.171,-29.4666"/>
</g>
<!-- Node10&#45;&gt;Node7 -->
<g id="edge12" class="edge"><title>Node10&#45;&gt;Node7</title>
<path fill="none" stroke="midnightblue" d="M402.381,-56.083C398.092,-48.6127 391.842,-37.7244 386.558,-28.5199"/>
<polygon fill="midnightblue" stroke="midnightblue" points="389.538,-26.6811 381.524,-19.7511 383.467,-30.1662 389.538,-26.6811"/>
</g>
<!-- Node10&#45;&gt;Node8 -->
<g id="edge13" class="edge"><title>Node10&#45;&gt;Node8</title>
<path fill="none" stroke="midnightblue" d="M424.209,-56.324C440.812,-47.7034 466.502,-34.3643 485.72,-24.3855"/>
<polygon fill="midnightblue" stroke="midnightblue" points="487.57,-27.3689 494.832,-19.6545 484.344,-21.1565 487.57,-27.3689"/>
</g>
<!-- Node11 -->
<g id="node11" class="node"><title>Node11</title>
<polygon fill="white" stroke="#bfbfbf" points="418,-0.5 418,-19.5 471,-19.5 471,-0.5 418,-0.5"/>
<text text-anchor="middle" x="444.5" y="-7.5" font-family="Verdana" font-size="10.00">stdint.h</text>
</g>
<!-- Node10&#45;&gt;Node11 -->
<g id="edge11" class="edge"><title>Node10&#45;&gt;Node11</title>
<path fill="none" stroke="midnightblue" d="M413.61,-56.083C418.782,-48.5341 426.346,-37.4948 432.694,-28.2298"/>
<polygon fill="midnightblue" stroke="midnightblue" points="435.739,-29.9787 438.504,-19.7511 429.964,-26.0221 435.739,-29.9787"/>
</g>
<!-- Node12&#45;&gt;Node8 -->
<g id="edge19" class="edge"><title>Node12&#45;&gt;Node8</title>
<path fill="none" stroke="midnightblue" d="M477.493,-112.317C487.009,-104.091 500.206,-90.8158 506.5,-76 512.661,-61.4975 513.6,-43.5452 513.174,-30.1844"/>
<polygon fill="midnightblue" stroke="midnightblue" points="516.645,-29.5968 512.546,-19.827 509.658,-30.0206 516.645,-29.5968"/>
</g>
<!-- Node12&#45;&gt;Node10 -->
<g id="edge18" class="edge"><title>Node12&#45;&gt;Node10</title>
<path fill="none" stroke="midnightblue" d="M457.021,-112.324C448.299,-104.341 435.157,-92.3128 424.602,-82.6529"/>
<polygon fill="midnightblue" stroke="midnightblue" points="426.892,-80.0036 417.152,-75.8339 422.166,-85.1674 426.892,-80.0036"/>
</g>
</g>
</svg>
