<?xml version="1.0" encoding="UTF-8" standalone="no"?>
<!DOCTYPE svg PUBLIC "-//W3C//DTD SVG 1.1//EN"
 "http://www.w3.org/Graphics/SVG/1.1/DTD/svg11.dtd">
<!-- Generated by graphviz version 2.38.0 (20140413.2041)
 -->
<!-- Title: /home/dawagner/dev/parameter&#45;framework/parameter/BackSynchronizer.h Pages: 1 -->
<svg width="487pt" height="330pt"
 viewBox="0.00 0.00 487.38 330.00" xmlns="http://www.w3.org/2000/svg" xmlns:xlink="http://www.w3.org/1999/xlink">
<g id="graph0" class="graph" transform="scale(1 1) rotate(0) translate(4 326)">
<title>/home/dawagner/dev/parameter&#45;framework/parameter/BackSynchronizer.h</title>
<polygon fill="white" stroke="none" points="-4,4 -4,-326 483.383,-326 483.383,4 -4,4"/>
<!-- Node1 -->
<g id="node1" class="node"><title>Node1</title>
<polygon fill="#bfbfbf" stroke="black" points="0,-280.5 0,-321.5 167,-321.5 167,-280.5 0,-280.5"/>
<text text-anchor="start" x="8" y="-309.5" font-family="Verdana" font-size="10.00">/home/dawagner/dev</text>
<text text-anchor="start" x="8" y="-298.5" font-family="Verdana" font-size="10.00">/parameter&#45;framework</text>
<text text-anchor="middle" x="83.5" y="-287.5" font-family="Verdana" font-size="10.00">/parameter/BackSynchronizer.h</text>
</g>
<!-- Node2 -->
<g id="node2" class="node"><title>Node2</title>
<g id="a_node2"><a xlink:href="ConfigurableElementAggregator_8h.html" target="_top" xlink:title="ConfigurableElementAggregator.h">
<polygon fill="white" stroke="black" points="112,-224.5 112,-243.5 291,-243.5 291,-224.5 112,-224.5"/>
<text text-anchor="middle" x="201.5" y="-231.5" font-family="Verdana" font-size="10.00">ConfigurableElementAggregator.h</text>
</a>
</g>
</g>
<!-- Node1&#45;&gt;Node2 -->
<g id="edge1" class="edge"><title>Node1&#45;&gt;Node2</title>
<path fill="none" stroke="midnightblue" d="M118.904,-280.498C137.517,-270.245 159.882,-257.925 176.643,-248.693"/>
<polygon fill="midnightblue" stroke="midnightblue" points="178.722,-251.543 185.792,-243.652 175.345,-245.412 178.722,-251.543"/>
</g>
<!-- Node3 -->
<g id="node3" class="node"><title>Node3</title>
<g id="a_node3"><a xlink:href="ConfigurableElement_8h.html" target="_top" xlink:title="ConfigurableElement.h">
<polygon fill="white" stroke="black" points="48,-168.5 48,-187.5 173,-187.5 173,-168.5 48,-168.5"/>
<text text-anchor="middle" x="110.5" y="-175.5" font-family="Verdana" font-size="10.00">ConfigurableElement.h</text>
</a>
</g>
</g>
<!-- Node1&#45;&gt;Node3 -->
<g id="edge17" class="edge"><title>Node1&#45;&gt;Node3</title>
<path fill="none" stroke="midnightblue" d="M87.8981,-280.29C93.0114,-257.375 101.386,-219.846 106.378,-197.473"/>
<polygon fill="midnightblue" stroke="midnightblue" points="109.825,-198.097 108.587,-187.575 102.993,-196.573 109.825,-198.097"/>
</g>
<!-- Node8 -->
<g id="node8" class="node"><title>Node8</title>
<polygon fill="white" stroke="#bfbfbf" points="34.5,-56.5 34.5,-75.5 64.5,-75.5 64.5,-56.5 34.5,-56.5"/>
<text text-anchor="middle" x="49.5" y="-63.5" font-family="Verdana" font-size="10.00">list</text>
</g>
<!-- Node1&#45;&gt;Node8 -->
<g id="edge18" class="edge"><title>Node1&#45;&gt;Node8</title>
<path fill="none" stroke="midnightblue" d="M72.9727,-280.473C61.861,-258.661 45.0647,-221.947 38.5,-188 31.5507,-152.064 39.0757,-109.253 44.6461,-85.3968"/>
<polygon fill="midnightblue" stroke="midnightblue" points="48.0678,-86.1399 47.0803,-75.5912 41.274,-84.4534 48.0678,-86.1399"/>
</g>
<!-- Node2&#45;&gt;Node3 -->
<g id="edge2" class="edge"><title>Node2&#45;&gt;Node3</title>
<path fill="none" stroke="midnightblue" d="M186.879,-224.324C172.551,-215.822 150.487,-202.729 133.751,-192.797"/>
<polygon fill="midnightblue" stroke="midnightblue" points="135.47,-189.748 125.084,-187.655 131.898,-195.768 135.47,-189.748"/>
</g>
<!-- Node5 -->
<g id="node5" class="node"><title>Node5</title>
<polygon fill="white" stroke="#bfbfbf" points="352.5,-0.5 352.5,-19.5 396.5,-19.5 396.5,-0.5 352.5,-0.5"/>
<text text-anchor="middle" x="374.5" y="-7.5" font-family="Verdana" font-size="10.00">string</text>
</g>
<!-- Node2&#45;&gt;Node5 -->
<g id="edge16" class="edge"><title>Node2&#45;&gt;Node5</title>
<path fill="none" stroke="midnightblue" d="M238.784,-224.397C300.931,-207.818 423.956,-164.941 475.5,-76 493.343,-45.2116 442.515,-26.5867 406.641,-17.5903"/>
<polygon fill="midnightblue" stroke="midnightblue" points="407.072,-14.0958 396.535,-15.2051 405.464,-20.9086 407.072,-14.0958"/>
</g>
<!-- Node2&#45;&gt;Node8 -->
<g id="edge15" class="edge"><title>Node2&#45;&gt;Node8</title>
<path fill="none" stroke="midnightblue" d="M200.53,-224.267C198.706,-211.049 193.776,-185.637 181.5,-168 153.088,-127.183 103.104,-95.5471 73.4712,-79.2304"/>
<polygon fill="midnightblue" stroke="midnightblue" points="75.0848,-76.1242 64.6185,-74.4788 71.7743,-82.2919 75.0848,-76.1242"/>
</g>
<!-- Node4 -->
<g id="node4" class="node"><title>Node4</title>
<g id="a_node4"><a xlink:href="Element_8h.html" target="_top" xlink:title="Element.h">
<polygon fill="white" stroke="black" points="230,-112.5 230,-131.5 295,-131.5 295,-112.5 230,-112.5"/>
<text text-anchor="middle" x="262.5" y="-119.5" font-family="Verdana" font-size="10.00">Element.h</text>
</a>
</g>
</g>
<!-- Node3&#45;&gt;Node4 -->
<g id="edge3" class="edge"><title>Node3&#45;&gt;Node4</title>
<path fill="none" stroke="midnightblue" d="M134.585,-168.444C160.045,-159.399 200.394,-145.064 228.959,-134.916"/>
<polygon fill="midnightblue" stroke="midnightblue" points="230.277,-138.162 238.528,-131.516 227.933,-131.566 230.277,-138.162"/>
</g>
<!-- Node3&#45;&gt;Node8 -->
<g id="edge14" class="edge"><title>Node3&#45;&gt;Node8</title>
<path fill="none" stroke="midnightblue" d="M105.713,-168.368C95.7358,-150.376 72.5415,-108.55 59.2748,-84.6267"/>
<polygon fill="midnightblue" stroke="midnightblue" points="62.1749,-82.6393 54.2643,-75.5914 56.0532,-86.0342 62.1749,-82.6393"/>
</g>
<!-- Node4&#45;&gt;Node5 -->
<g id="edge4" class="edge"><title>Node4&#45;&gt;Node5</title>
<path fill="none" stroke="midnightblue" d="M280.074,-112.433C295.191,-104.466 316.954,-91.5099 332.5,-76 346.43,-62.1027 358.167,-42.8331 365.662,-28.8863"/>
<polygon fill="midnightblue" stroke="midnightblue" points="368.863,-30.3159 370.34,-19.8245 362.643,-27.1048 368.863,-30.3159"/>
</g>
<!-- Node6 -->
<g id="node6" class="node"><title>Node6</title>
<polygon fill="white" stroke="#bfbfbf" points="190,-0.5 190,-19.5 237,-19.5 237,-0.5 190,-0.5"/>
<text text-anchor="middle" x="213.5" y="-7.5" font-family="Verdana" font-size="10.00">vector</text>
</g>
<!-- Node4&#45;&gt;Node6 -->
<g id="edge5" class="edge"><title>Node4&#45;&gt;Node6</title>
<path fill="none" stroke="midnightblue" d="M245.302,-112.386C232.249,-104.794 215.266,-92.3889 207.5,-76 200.607,-61.4546 203.21,-43.0411 206.893,-29.529"/>
<polygon fill="midnightblue" stroke="midnightblue" points="210.256,-30.5003 209.918,-19.9108 203.579,-28.4001 210.256,-30.5003"/>
</g>
<!-- Node7 -->
<g id="node7" class="node"><title>Node7</title>
<polygon fill="white" stroke="#bfbfbf" points="258,-0.5 258,-19.5 311,-19.5 311,-0.5 258,-0.5"/>
<text text-anchor="middle" x="284.5" y="-7.5" font-family="Verdana" font-size="10.00">stdint.h</text>
</g>
<!-- Node4&#45;&gt;Node7 -->
<g id="edge6" class="edge"><title>Node4&#45;&gt;Node7</title>
<path fill="none" stroke="midnightblue" d="M279.698,-112.386C292.751,-104.794 309.734,-92.3889 317.5,-76 325.489,-59.1417 313.336,-40.1467 301.589,-27.0651"/>
<polygon fill="midnightblue" stroke="midnightblue" points="303.982,-24.5046 294.51,-19.7561 298.953,-29.3745 303.982,-24.5046"/>
</g>
<!-- Node4&#45;&gt;Node8 -->
<g id="edge7" class="edge"><title>Node4&#45;&gt;Node8</title>
<path fill="none" stroke="midnightblue" d="M229.728,-114.498C193.7,-107.066 133.992,-93.9172 74.226,-75.9311"/>
<polygon fill="midnightblue" stroke="midnightblue" points="75.2232,-72.5761 64.637,-73.003 73.1788,-79.2709 75.2232,-72.5761"/>
</g>
<!-- Node9 -->
<g id="node9" class="node"><title>Node9</title>
<polygon fill="white" stroke="#bfbfbf" points="402.5,-56.5 402.5,-75.5 466.5,-75.5 466.5,-56.5 402.5,-56.5"/>
<text text-anchor="middle" x="434.5" y="-63.5" font-family="Verdana" font-size="10.00">XmlSink.h</text>
</g>
<!-- Node4&#45;&gt;Node9 -->
<g id="edge8" class="edge"><title>Node4&#45;&gt;Node9</title>
<path fill="none" stroke="midnightblue" d="M289.754,-112.444C318.941,-103.28 365.421,-88.6876 397.809,-78.5192"/>
<polygon fill="midnightblue" stroke="midnightblue" points="398.881,-81.8512 407.374,-75.5164 396.784,-75.1726 398.881,-81.8512"/>
</g>
<!-- Node10 -->
<g id="node10" class="node"><title>Node10</title>
<polygon fill="white" stroke="#bfbfbf" points="83,-56.5 83,-75.5 160,-75.5 160,-56.5 83,-56.5"/>
<text text-anchor="middle" x="121.5" y="-63.5" font-family="Verdana" font-size="10.00">XmlSource.h</text>
</g>
<!-- Node4&#45;&gt;Node10 -->
<g id="edge9" class="edge"><title>Node4&#45;&gt;Node10</title>
<path fill="none" stroke="midnightblue" d="M240.158,-112.444C216.747,-103.478 179.764,-89.314 153.31,-79.1827"/>
<polygon fill="midnightblue" stroke="midnightblue" points="154.328,-75.8245 143.737,-75.5164 151.824,-82.3615 154.328,-75.8245"/>
</g>
<!-- Node11 -->
<g id="node11" class="node"><title>Node11</title>
<g id="a_node11"><a xlink:href="PathNavigator_8h.html" target="_top" xlink:title="PathNavigator.h">
<polygon fill="white" stroke="black" points="216.5,-56.5 216.5,-75.5 308.5,-75.5 308.5,-56.5 216.5,-56.5"/>
<text text-anchor="middle" x="262.5" y="-63.5" font-family="Verdana" font-size="10.00">PathNavigator.h</text>
</a>
</g>
</g>
<!-- Node4&#45;&gt;Node11 -->
<g id="edge10" class="edge"><title>Node4&#45;&gt;Node11</title>
<path fill="none" stroke="midnightblue" d="M262.5,-112.083C262.5,-105.006 262.5,-94.8611 262.5,-85.9865"/>
<polygon fill="midnightblue" stroke="midnightblue" points="266,-85.751 262.5,-75.7511 259,-85.7511 266,-85.751"/>
</g>
<!-- Node11&#45;&gt;Node5 -->
<g id="edge12" class="edge"><title>Node11&#45;&gt;Node5</title>
<path fill="none" stroke="midnightblue" d="M280.495,-56.324C298.538,-47.6247 326.547,-34.1202 347.303,-24.113"/>
<polygon fill="midnightblue" stroke="midnightblue" points="349.062,-27.1502 356.55,-19.6545 346.022,-20.8449 349.062,-27.1502"/>
</g>
<!-- Node11&#45;&gt;Node6 -->
<g id="edge11" class="edge"><title>Node11&#45;&gt;Node6</title>
<path fill="none" stroke="midnightblue" d="M254.409,-56.083C247.345,-48.2982 236.912,-36.8015 228.351,-27.3665"/>
<polygon fill="midnightblue" stroke="midnightblue" points="230.753,-24.8047 221.441,-19.7511 225.569,-29.5087 230.753,-24.8047"/>
</g>
<!-- Node11&#45;&gt;Node7 -->
<g id="edge13" class="edge"><title>Node11&#45;&gt;Node7</title>
<path fill="none" stroke="midnightblue" d="M266.133,-56.083C269.112,-48.77 273.426,-38.1814 277.125,-29.1034"/>
<polygon fill="midnightblue" stroke="midnightblue" points="280.403,-30.3326 280.935,-19.7511 273.92,-27.6914 280.403,-30.3326"/>
</g>
</g>
</svg>
