<?xml version="1.0" encoding="UTF-8" standalone="no"?>
<!DOCTYPE svg PUBLIC "-//W3C//DTD SVG 1.1//EN"
 "http://www.w3.org/Graphics/SVG/1.1/DTD/svg11.dtd">
<!-- Generated by graphviz version 2.38.0 (20140413.2041)
 -->
<!-- Title: parameter/BackSynchronizer.h Pages: 1 -->
<svg width="821pt" height="420pt"
 viewBox="0.00 0.00 820.50 420.00" xmlns="http://www.w3.org/2000/svg" xmlns:xlink="http://www.w3.org/1999/xlink">
<g id="graph0" class="graph" transform="scale(1 1) rotate(0) translate(4 416)">
<title>parameter/BackSynchronizer.h</title>
<polygon fill="white" stroke="none" points="-4,4 -4,-416 816.5,-416 816.5,4 -4,4"/>
<!-- Node1 -->
<g id="node1" class="node"><title>Node1</title>
<polygon fill="#bfbfbf" stroke="black" points="583,-392.5 583,-411.5 747,-411.5 747,-392.5 583,-392.5"/>
<text text-anchor="middle" x="665" y="-399.5" font-family="Verdana" font-size="10.00">parameter/BackSynchronizer.h</text>
</g>
<!-- Node2 -->
<g id="node2" class="node"><title>Node2</title>
<g id="a_node2"><a xlink:href="ConfigurableElementAggregator_8h.html" target="_top" xlink:title="ConfigurableElementAggregator.h">
<polygon fill="white" stroke="black" points="516.5,-336.5 516.5,-355.5 695.5,-355.5 695.5,-336.5 516.5,-336.5"/>
<text text-anchor="middle" x="606" y="-343.5" font-family="Verdana" font-size="10.00">ConfigurableElementAggregator.h</text>
</a>
</g>
</g>
<!-- Node1&#45;&gt;Node2 -->
<g id="edge1" class="edge"><title>Node1&#45;&gt;Node2</title>
<path fill="none" stroke="midnightblue" d="M655.521,-392.324C646.799,-384.341 633.657,-372.313 623.102,-362.653"/>
<polygon fill="midnightblue" stroke="midnightblue" points="625.392,-360.004 615.652,-355.834 620.666,-365.167 625.392,-360.004"/>
</g>
<!-- Node3 -->
<g id="node3" class="node"><title>Node3</title>
<g id="a_node3"><a xlink:href="ConfigurableElement_8h.html" target="_top" xlink:title="ConfigurableElement.h">
<polygon fill="white" stroke="black" points="297.5,-280.5 297.5,-299.5 422.5,-299.5 422.5,-280.5 297.5,-280.5"/>
<text text-anchor="middle" x="360" y="-287.5" font-family="Verdana" font-size="10.00">ConfigurableElement.h</text>
</a>
</g>
</g>
<!-- Node1&#45;&gt;Node3 -->
<g id="edge30" class="edge"><title>Node1&#45;&gt;Node3</title>
<path fill="none" stroke="midnightblue" d="M629.726,-392.453C597.41,-384.27 548.441,-370.981 507,-356 463.854,-340.402 415.495,-318.029 386.415,-304.016"/>
<polygon fill="midnightblue" stroke="midnightblue" points="387.852,-300.824 377.328,-299.607 384.796,-307.121 387.852,-300.824"/>
</g>
<!-- Node13 -->
<g id="node13" class="node"><title>Node13</title>
<g id="a_node13"><a xlink:href="NonCopyable_8hpp.html" target="_top" xlink:title="NonCopyable.hpp">
<polygon fill="white" stroke="black" points="711.5,-0.5 711.5,-19.5 812.5,-19.5 812.5,-0.5 711.5,-0.5"/>
<text text-anchor="middle" x="762" y="-7.5" font-family="Verdana" font-size="10.00">NonCopyable.hpp</text>
</a>
</g>
</g>
<!-- Node1&#45;&gt;Node13 -->
<g id="edge31" class="edge"><title>Node1&#45;&gt;Node13</title>
<path fill="none" stroke="midnightblue" d="M692.645,-392.416C732.141,-378.23 800,-345.872 800,-291 800,-291 800,-291 800,-121 800,-86.8131 783.4,-49.7639 772.143,-28.5707"/>
<polygon fill="midnightblue" stroke="midnightblue" points="775.181,-26.832 767.284,-19.769 769.053,-30.2151 775.181,-26.832"/>
</g>
<!-- Node16 -->
<g id="node16" class="node"><title>Node16</title>
<polygon fill="white" stroke="#bfbfbf" points="655,-224.5 655,-243.5 685,-243.5 685,-224.5 655,-224.5"/>
<text text-anchor="middle" x="670" y="-231.5" font-family="Verdana" font-size="10.00">list</text>
</g>
<!-- Node1&#45;&gt;Node16 -->
<g id="edge32" class="edge"><title>Node1&#45;&gt;Node16</title>
<path fill="none" stroke="midnightblue" d="M675.99,-392.365C685.453,-384.171 698.436,-370.917 704,-356 717.473,-319.883 696.16,-275.992 681.655,-252.255"/>
<polygon fill="midnightblue" stroke="midnightblue" points="684.496,-250.2 676.156,-243.665 678.6,-253.974 684.496,-250.2"/>
</g>
<!-- Node2&#45;&gt;Node3 -->
<g id="edge2" class="edge"><title>Node2&#45;&gt;Node3</title>
<path fill="none" stroke="midnightblue" d="M567.021,-336.444C524.106,-327.023 455.054,-311.866 408.631,-301.675"/>
<polygon fill="midnightblue" stroke="midnightblue" points="409.315,-298.242 398.797,-299.516 407.814,-305.079 409.315,-298.242"/>
</g>
<!-- Node6 -->
<g id="node6" class="node"><title>Node6</title>
<polygon fill="white" stroke="#bfbfbf" points="439,-0.5 439,-19.5 483,-19.5 483,-0.5 439,-0.5"/>
<text text-anchor="middle" x="461" y="-7.5" font-family="Verdana" font-size="10.00">string</text>
</g>
<!-- Node2&#45;&gt;Node6 -->
<g id="edge29" class="edge"><title>Node2&#45;&gt;Node6</title>
<path fill="none" stroke="midnightblue" d="M608.832,-336.268C614.564,-317.794 627,-273.301 627,-235 627,-235 627,-235 627,-177 627,-146.902 625.649,-136.38 608,-112 577.593,-69.9956 524.061,-39.7252 490.672,-23.8122"/>
<polygon fill="midnightblue" stroke="midnightblue" points="491.96,-20.5514 481.415,-19.522 489.016,-26.9025 491.96,-20.5514"/>
</g>
<!-- Node2&#45;&gt;Node13 -->
<g id="edge27" class="edge"><title>Node2&#45;&gt;Node13</title>
<path fill="none" stroke="midnightblue" d="M642.575,-336.462C688.684,-323.274 762,-293.159 762,-235 762,-235 762,-235 762,-121 762,-88.948 762,-51.6426 762,-29.7489"/>
<polygon fill="midnightblue" stroke="midnightblue" points="765.5,-29.5577 762,-19.5578 758.5,-29.5578 765.5,-29.5577"/>
</g>
<!-- Node2&#45;&gt;Node16 -->
<g id="edge28" class="edge"><title>Node2&#45;&gt;Node16</title>
<path fill="none" stroke="midnightblue" d="M613.637,-336.491C621.218,-327.763 632.854,-313.58 641,-300 650.029,-284.95 657.966,-266.592 663.243,-253.229"/>
<polygon fill="midnightblue" stroke="midnightblue" points="666.568,-254.332 666.875,-243.742 660.031,-251.829 666.568,-254.332"/>
</g>
<!-- Node4 -->
<g id="node4" class="node"><title>Node4</title>
<polygon fill="white" stroke="#bfbfbf" points="17.5,-168.5 17.5,-187.5 130.5,-187.5 130.5,-168.5 17.5,-168.5"/>
<text text-anchor="middle" x="74" y="-175.5" font-family="Verdana" font-size="10.00">parameter_export.h</text>
</g>
<!-- Node3&#45;&gt;Node4 -->
<g id="edge3" class="edge"><title>Node3&#45;&gt;Node4</title>
<path fill="none" stroke="midnightblue" d="M337.558,-280.368C287.018,-260.93 164.154,-213.674 105.792,-191.228"/>
<polygon fill="midnightblue" stroke="midnightblue" points="106.928,-187.915 96.3377,-187.591 104.415,-194.448 106.928,-187.915"/>
</g>
<!-- Node5 -->
<g id="node5" class="node"><title>Node5</title>
<g id="a_node5"><a xlink:href="Element_8h.html" target="_top" xlink:title="Element.h">
<polygon fill="white" stroke="black" points="268.5,-224.5 268.5,-243.5 333.5,-243.5 333.5,-224.5 268.5,-224.5"/>
<text text-anchor="middle" x="301" y="-231.5" font-family="Verdana" font-size="10.00">Element.h</text>
</a>
</g>
</g>
<!-- Node3&#45;&gt;Node5 -->
<g id="edge4" class="edge"><title>Node3&#45;&gt;Node5</title>
<path fill="none" stroke="midnightblue" d="M350.521,-280.324C341.799,-272.341 328.657,-260.313 318.102,-250.653"/>
<polygon fill="midnightblue" stroke="midnightblue" points="320.392,-248.004 310.652,-243.834 315.666,-253.167 320.392,-248.004"/>
</g>
<!-- Node7 -->
<g id="node7" class="node"><title>Node7</title>
<polygon fill="white" stroke="#bfbfbf" points="187.5,-112.5 187.5,-131.5 234.5,-131.5 234.5,-112.5 187.5,-112.5"/>
<text text-anchor="middle" x="211" y="-119.5" font-family="Verdana" font-size="10.00">vector</text>
</g>
<!-- Node3&#45;&gt;Node7 -->
<g id="edge26" class="edge"><title>Node3&#45;&gt;Node7</title>
<path fill="none" stroke="midnightblue" d="M298.869,-280.474C207.541,-266.329 42.4876,-234.848 8,-188 -35.3151,-129.161 108.929,-122.417 177.191,-122.411"/>
<polygon fill="midnightblue" stroke="midnightblue" points="177.436,-125.912 187.453,-122.461 177.47,-118.912 177.436,-125.912"/>
</g>
<!-- Node3&#45;&gt;Node16 -->
<g id="edge25" class="edge"><title>Node3&#45;&gt;Node16</title>
<path fill="none" stroke="midnightblue" d="M409.12,-280.444C476.064,-268.782 593.48,-248.329 644.798,-239.39"/>
<polygon fill="midnightblue" stroke="midnightblue" points="645.452,-242.829 654.703,-237.665 644.251,-235.933 645.452,-242.829"/>
</g>
<!-- Node5&#45;&gt;Node4 -->
<g id="edge5" class="edge"><title>Node5&#45;&gt;Node4</title>
<path fill="none" stroke="midnightblue" d="M268.476,-225.263C229.466,-215.983 163.825,-200.368 119.724,-189.877"/>
<polygon fill="midnightblue" stroke="midnightblue" points="120.372,-186.434 109.834,-187.524 118.752,-193.244 120.372,-186.434"/>
</g>
<!-- Node5&#45;&gt;Node6 -->
<g id="edge6" class="edge"><title>Node5&#45;&gt;Node6</title>
<path fill="none" stroke="midnightblue" d="M269.676,-224.365C249.162,-217.374 222.929,-205.734 205,-188 179.515,-162.792 159.438,-142.666 178,-112 230.478,-25.3048 366.272,-12.0254 428.717,-10.6626"/>
<polygon fill="midnightblue" stroke="midnightblue" points="428.833,-14.1615 438.788,-10.5338 428.744,-7.16207 428.833,-14.1615"/>
</g>
<!-- Node5&#45;&gt;Node7 -->
<g id="edge7" class="edge"><title>Node5&#45;&gt;Node7</title>
<path fill="none" stroke="midnightblue" d="M268.572,-224.375C249.97,-217.647 227.993,-206.292 216,-188 207.176,-174.542 206.612,-155.982 207.854,-142.139"/>
<polygon fill="midnightblue" stroke="midnightblue" points="211.375,-142.201 209.181,-131.836 204.432,-141.307 211.375,-142.201"/>
</g>
<!-- Node8 -->
<g id="node8" class="node"><title>Node8</title>
<polygon fill="white" stroke="#bfbfbf" points="312.5,-56.5 312.5,-75.5 365.5,-75.5 365.5,-56.5 312.5,-56.5"/>
<text text-anchor="middle" x="339" y="-63.5" font-family="Verdana" font-size="10.00">stdint.h</text>
</g>
<!-- Node5&#45;&gt;Node8 -->
<g id="edge8" class="edge"><title>Node5&#45;&gt;Node8</title>
<path fill="none" stroke="midnightblue" d="M307.31,-224.183C313.209,-215.447 321.732,-201.46 326,-188 337.031,-153.212 339.094,-110.281 339.27,-86.0345"/>
<polygon fill="midnightblue" stroke="midnightblue" points="342.769,-85.7381 339.235,-75.75 335.769,-85.7617 342.769,-85.7381"/>
</g>
<!-- Node9 -->
<g id="node9" class="node"><title>Node9</title>
<g id="a_node9"><a xlink:href="XmlSink_8h.html" target="_top" xlink:title="XmlSink.h">
<polygon fill="white" stroke="black" points="375,-168.5 375,-187.5 439,-187.5 439,-168.5 375,-168.5"/>
<text text-anchor="middle" x="407" y="-175.5" font-family="Verdana" font-size="10.00">XmlSink.h</text>
</a>
</g>
</g>
<!-- Node5&#45;&gt;Node9 -->
<g id="edge9" class="edge"><title>Node5&#45;&gt;Node9</title>
<path fill="none" stroke="midnightblue" d="M318.031,-224.324C335.03,-215.664 361.376,-202.242 380.993,-192.249"/>
<polygon fill="midnightblue" stroke="midnightblue" points="382.69,-195.312 390.012,-187.655 379.512,-189.075 382.69,-195.312"/>
</g>
<!-- Node14 -->
<g id="node14" class="node"><title>Node14</title>
<g id="a_node14"><a xlink:href="XmlSource_8h.html" target="_top" xlink:title="XmlSource.h">
<polygon fill="white" stroke="black" points="457.5,-168.5 457.5,-187.5 534.5,-187.5 534.5,-168.5 457.5,-168.5"/>
<text text-anchor="middle" x="496" y="-175.5" font-family="Verdana" font-size="10.00">XmlSource.h</text>
</a>
</g>
</g>
<!-- Node5&#45;&gt;Node14 -->
<g id="edge18" class="edge"><title>Node5&#45;&gt;Node14</title>
<path fill="none" stroke="midnightblue" d="M331.898,-224.444C365.274,-215.201 418.594,-200.436 455.349,-190.257"/>
<polygon fill="midnightblue" stroke="midnightblue" points="456.543,-193.558 465.246,-187.516 454.675,-186.812 456.543,-193.558"/>
</g>
<!-- Node15 -->
<g id="node15" class="node"><title>Node15</title>
<g id="a_node15"><a xlink:href="PathNavigator_8h.html" target="_top" xlink:title="PathNavigator.h">
<polygon fill="white" stroke="black" points="225,-168.5 225,-187.5 317,-187.5 317,-168.5 225,-168.5"/>
<text text-anchor="middle" x="271" y="-175.5" font-family="Verdana" font-size="10.00">PathNavigator.h</text>
</a>
</g>
</g>
<!-- Node5&#45;&gt;Node15 -->
<g id="edge21" class="edge"><title>Node5&#45;&gt;Node15</title>
<path fill="none" stroke="midnightblue" d="M296.046,-224.083C291.896,-216.613 285.847,-205.724 280.733,-196.52"/>
<polygon fill="midnightblue" stroke="midnightblue" points="283.778,-194.793 275.862,-187.751 277.659,-198.192 283.778,-194.793"/>
</g>
<!-- Node10 -->
<g id="node10" class="node"><title>Node10</title>
<g id="a_node10"><a xlink:href="XmlElement_8h.html" target="_top" xlink:title="XmlElement.h">
<polygon fill="white" stroke="black" points="367.5,-112.5 367.5,-131.5 450.5,-131.5 450.5,-112.5 367.5,-112.5"/>
<text text-anchor="middle" x="409" y="-119.5" font-family="Verdana" font-size="10.00">XmlElement.h</text>
</a>
</g>
</g>
<!-- Node9&#45;&gt;Node10 -->
<g id="edge10" class="edge"><title>Node9&#45;&gt;Node10</title>
<path fill="none" stroke="midnightblue" d="M407.33,-168.083C407.592,-161.006 407.968,-150.861 408.297,-141.986"/>
<polygon fill="midnightblue" stroke="midnightblue" points="411.803,-141.874 408.676,-131.751 404.808,-141.615 411.803,-141.874"/>
</g>
<!-- Node11 -->
<g id="node11" class="node"><title>Node11</title>
<g id="a_node11"><a xlink:href="XmlSerializingContext_8h.html" target="_top" xlink:title="XmlSerializingContext.h">
<polygon fill="white" stroke="black" points="469,-112.5 469,-131.5 599,-131.5 599,-112.5 469,-112.5"/>
<text text-anchor="middle" x="534" y="-119.5" font-family="Verdana" font-size="10.00">XmlSerializingContext.h</text>
</a>
</g>
</g>
<!-- Node9&#45;&gt;Node11 -->
<g id="edge13" class="edge"><title>Node9&#45;&gt;Node11</title>
<path fill="none" stroke="midnightblue" d="M427.124,-168.444C448.024,-159.557 480.935,-145.563 504.716,-135.451"/>
<polygon fill="midnightblue" stroke="midnightblue" points="506.138,-138.65 513.971,-131.516 503.398,-132.208 506.138,-138.65"/>
</g>
<!-- Node10&#45;&gt;Node6 -->
<g id="edge12" class="edge"><title>Node10&#45;&gt;Node6</title>
<path fill="none" stroke="midnightblue" d="M413.08,-112.368C421.548,-94.4563 441.182,-52.9233 452.515,-28.9482"/>
<polygon fill="midnightblue" stroke="midnightblue" points="455.829,-30.128 456.939,-19.5914 449.5,-27.1363 455.829,-30.128"/>
</g>
<!-- Node10&#45;&gt;Node8 -->
<g id="edge11" class="edge"><title>Node10&#45;&gt;Node8</title>
<path fill="none" stroke="midnightblue" d="M397.753,-112.324C387.203,-104.185 371.199,-91.8395 358.558,-82.0874"/>
<polygon fill="midnightblue" stroke="midnightblue" points="360.507,-79.1707 350.451,-75.8339 356.231,-84.7132 360.507,-79.1707"/>
</g>
<!-- Node11&#45;&gt;Node6 -->
<g id="edge17" class="edge"><title>Node11&#45;&gt;Node6</title>
<path fill="none" stroke="midnightblue" d="M528.272,-112.368C516.225,-94.2153 488.077,-51.8015 472.275,-27.9902"/>
<polygon fill="midnightblue" stroke="midnightblue" points="475.147,-25.9882 466.702,-19.5914 469.315,-29.8589 475.147,-25.9882"/>
</g>
<!-- Node12 -->
<g id="node12" class="node"><title>Node12</title>
<g id="a_node12"><a xlink:href="ErrorContext_8hpp.html" target="_top" xlink:title="ErrorContext.hpp">
<polygon fill="white" stroke="black" points="636,-56.5 636,-75.5 734,-75.5 734,-56.5 636,-56.5"/>
<text text-anchor="middle" x="685" y="-63.5" font-family="Verdana" font-size="10.00">ErrorContext.hpp</text>
</a>
</g>
</g>
<!-- Node11&#45;&gt;Node12 -->
<g id="edge14" class="edge"><title>Node11&#45;&gt;Node12</title>
<path fill="none" stroke="midnightblue" d="M557.926,-112.444C583.219,-103.399 623.302,-89.064 651.68,-78.9158"/>
<polygon fill="midnightblue" stroke="midnightblue" points="652.948,-82.1794 661.186,-75.5164 650.591,-75.5882 652.948,-82.1794"/>
</g>
<!-- Node12&#45;&gt;Node6 -->
<g id="edge15" class="edge"><title>Node12&#45;&gt;Node6</title>
<path fill="none" stroke="midnightblue" d="M649.507,-56.4435C606.405,-46.0529 534.346,-28.6816 492.922,-18.6955"/>
<polygon fill="midnightblue" stroke="midnightblue" points="493.629,-15.2657 483.087,-16.3245 491.988,-22.0707 493.629,-15.2657"/>
</g>
<!-- Node12&#45;&gt;Node13 -->
<g id="edge16" class="edge"><title>Node12&#45;&gt;Node13</title>
<path fill="none" stroke="midnightblue" d="M697.371,-56.324C709.158,-48.0577 727.132,-35.4527 741.136,-25.6322"/>
<polygon fill="midnightblue" stroke="midnightblue" points="743.482,-28.2619 749.659,-19.6545 739.462,-22.5307 743.482,-28.2619"/>
</g>
<!-- Node14&#45;&gt;Node10 -->
<g id="edge19" class="edge"><title>Node14&#45;&gt;Node10</title>
<path fill="none" stroke="midnightblue" d="M482.022,-168.324C468.45,-159.9 447.62,-146.971 431.675,-137.074"/>
<polygon fill="midnightblue" stroke="midnightblue" points="433.286,-133.954 422.943,-131.655 429.594,-139.902 433.286,-133.954"/>
</g>
<!-- Node14&#45;&gt;Node11 -->
<g id="edge20" class="edge"><title>Node14&#45;&gt;Node11</title>
<path fill="none" stroke="midnightblue" d="M502.275,-168.083C507.642,-160.455 515.518,-149.264 522.079,-139.941"/>
<polygon fill="midnightblue" stroke="midnightblue" points="524.949,-141.943 527.842,-131.751 519.225,-137.915 524.949,-141.943"/>
</g>
<!-- Node15&#45;&gt;Node6 -->
<g id="edge23" class="edge"><title>Node15&#45;&gt;Node6</title>
<path fill="none" stroke="midnightblue" d="M270.589,-168.292C270.049,-146.259 271.801,-87.7945 303,-56 336.219,-22.146 392.953,-13.286 428.633,-11.2335"/>
<polygon fill="midnightblue" stroke="midnightblue" points="429.138,-14.7153 438.981,-10.7949 428.842,-7.72161 429.138,-14.7153"/>
</g>
<!-- Node15&#45;&gt;Node7 -->
<g id="edge22" class="edge"><title>Node15&#45;&gt;Node7</title>
<path fill="none" stroke="midnightblue" d="M261.36,-168.324C252.49,-160.341 239.125,-148.313 228.392,-138.653"/>
<polygon fill="midnightblue" stroke="midnightblue" points="230.59,-135.922 220.815,-131.834 225.907,-141.125 230.59,-135.922"/>
</g>
<!-- Node15&#45;&gt;Node8 -->
<g id="edge24" class="edge"><title>Node15&#45;&gt;Node8</title>
<path fill="none" stroke="midnightblue" d="M276.336,-168.368C287.508,-150.296 313.546,-108.176 328.301,-84.3074"/>
<polygon fill="midnightblue" stroke="midnightblue" points="331.408,-85.9378 333.689,-75.5914 325.454,-82.257 331.408,-85.9378"/>
</g>
</g>
</svg>
