<?xml version="1.0" encoding="UTF-8" standalone="no"?>
<!DOCTYPE svg PUBLIC "-//W3C//DTD SVG 1.1//EN"
 "http://www.w3.org/Graphics/SVG/1.1/DTD/svg11.dtd">
<!-- Generated by graphviz version 2.36.0 (20140111.2315)
 -->
<!-- Title: parameter/BaseParameter.cpp Pages: 1 -->
<svg width="1100pt" height="420pt"
 viewBox="0.00 0.00 1100.00 420.00" xmlns="http://www.w3.org/2000/svg" xmlns:xlink="http://www.w3.org/1999/xlink">
<g id="graph0" class="graph" transform="scale(1 1) rotate(0) translate(4 416)">
<title>parameter/BaseParameter.cpp</title>
<polygon fill="white" stroke="none" points="-4,4 -4,-416 1096,-416 1096,4 -4,4"/>
<!-- Node1 -->
<g id="node1" class="node"><title>Node1</title>
<polygon fill="#bfbfbf" stroke="black" points="756,-392.5 756,-411.5 920,-411.5 920,-392.5 756,-392.5"/>
<text text-anchor="middle" x="838" y="-399.5" font-family="Verdana" font-size="10.00">parameter/BaseParameter.cpp</text>
</g>
<!-- Node2 -->
<g id="node2" class="node"><title>Node2</title>
<g id="a_node2"><a xlink:href="BaseParameter_8h.html" target="_top" xlink:title="BaseParameter.h">
<polygon fill="white" stroke="black" points="404.5,-336.5 404.5,-355.5 503.5,-355.5 503.5,-336.5 404.5,-336.5"/>
<text text-anchor="middle" x="454" y="-343.5" font-family="Verdana" font-size="10.00">BaseParameter.h</text>
</a>
</g>
</g>
<!-- Node1&#45;&gt;Node2 -->
<g id="edge1" class="edge"><title>Node1&#45;&gt;Node2</title>
<path fill="none" stroke="midnightblue" d="M777.154,-392.444C704.993,-382.296 585.487,-365.49 513.791,-355.408"/>
<polygon fill="midnightblue" stroke="midnightblue" points="513.961,-351.898 503.571,-353.971 512.987,-358.83 513.961,-351.898"/>
</g>
<!-- Node15 -->
<g id="node15" class="node"><title>Node15</title>
<g id="a_node15"><a xlink:href="ParameterType_8h.html" target="_top" xlink:title="ParameterType.h">
<polygon fill="white" stroke="black" points="732.5,-224.5 732.5,-243.5 829.5,-243.5 829.5,-224.5 732.5,-224.5"/>
<text text-anchor="middle" x="781" y="-231.5" font-family="Verdana" font-size="10.00">ParameterType.h</text>
</a>
</g>
</g>
<!-- Node1&#45;&gt;Node15 -->
<g id="edge25" class="edge"><title>Node1&#45;&gt;Node15</title>
<path fill="none" stroke="midnightblue" d="M834.935,-392.075C825.924,-365.832 799.386,-288.545 787.221,-253.117"/>
<polygon fill="midnightblue" stroke="midnightblue" points="790.5,-251.889 783.942,-243.568 783.879,-254.163 790.5,-251.889"/>
</g>
<!-- Node17 -->
<g id="node17" class="node"><title>Node17</title>
<g id="a_node17"><a xlink:href="ParameterAccessContext_8h.html" target="_top" xlink:title="ParameterAccessContext.h">
<polygon fill="white" stroke="black" points="675.5,-112.5 675.5,-131.5 822.5,-131.5 822.5,-112.5 675.5,-112.5"/>
<text text-anchor="middle" x="749" y="-119.5" font-family="Verdana" font-size="10.00">ParameterAccessContext.h</text>
</a>
</g>
</g>
<!-- Node1&#45;&gt;Node17 -->
<g id="edge30" class="edge"><title>Node1&#45;&gt;Node17</title>
<path fill="none" stroke="midnightblue" d="M840.697,-392.258C846.156,-373.765 858,-329.238 858,-291 858,-291 858,-291 858,-233 858,-187.119 809.563,-153.527 777.266,-136.228"/>
<polygon fill="midnightblue" stroke="midnightblue" points="778.73,-133.045 768.236,-131.585 775.529,-139.27 778.73,-133.045"/>
</g>
<!-- Node19 -->
<g id="node19" class="node"><title>Node19</title>
<g id="a_node19"><a xlink:href="ConfigurationAccessContext_8h.html" target="_top" xlink:title="ConfigurationAccessContext.h">
<polygon fill="white" stroke="black" points="468.5,-168.5 468.5,-187.5 629.5,-187.5 629.5,-168.5 468.5,-168.5"/>
<text text-anchor="middle" x="549" y="-175.5" font-family="Verdana" font-size="10.00">ConfigurationAccessContext.h</text>
</a>
</g>
</g>
<!-- Node1&#45;&gt;Node19 -->
<g id="edge35" class="edge"><title>Node1&#45;&gt;Node19</title>
<path fill="none" stroke="midnightblue" d="M826.671,-392.297C782.787,-358.588 623.69,-236.374 568.229,-193.771"/>
<polygon fill="midnightblue" stroke="midnightblue" points="570.313,-190.959 560.251,-187.643 566.049,-196.51 570.313,-190.959"/>
</g>
<!-- Node20 -->
<g id="node20" class="node"><title>Node20</title>
<g id="a_node20"><a xlink:href="ParameterBlackboard_8h.html" target="_top" xlink:title="ParameterBlackboard.h">
<polygon fill="white" stroke="black" points="962.5,-112.5 962.5,-131.5 1091.5,-131.5 1091.5,-112.5 962.5,-112.5"/>
<text text-anchor="middle" x="1027" y="-119.5" font-family="Verdana" font-size="10.00">ParameterBlackboard.h</text>
</a>
</g>
</g>
<!-- Node1&#45;&gt;Node20 -->
<g id="edge38" class="edge"><title>Node1&#45;&gt;Node20</title>
<path fill="none" stroke="midnightblue" d="M865.117,-392.471C904.272,-378.267 972,-345.779 972,-291 972,-291 972,-291 972,-233 972,-196.569 996.433,-159.836 1012.73,-139.387"/>
<polygon fill="midnightblue" stroke="midnightblue" points="1015.44,-141.603 1019.12,-131.668 1010.05,-137.139 1015.44,-141.603"/>
</g>
<!-- Node23 -->
<g id="node23" class="node"><title>Node23</title>
<polygon fill="white" stroke="#bfbfbf" points="1000,-336.5 1000,-355.5 1056,-355.5 1056,-336.5 1000,-336.5"/>
<text text-anchor="middle" x="1028" y="-343.5" font-family="Verdana" font-size="10.00">assert.h</text>
</g>
<!-- Node1&#45;&gt;Node23 -->
<g id="edge45" class="edge"><title>Node1&#45;&gt;Node23</title>
<path fill="none" stroke="midnightblue" d="M868.106,-392.444C901.2,-383.038 954.418,-367.913 990.272,-357.723"/>
<polygon fill="midnightblue" stroke="midnightblue" points="991.231,-361.089 999.893,-354.988 989.317,-354.356 991.231,-361.089"/>
</g>
<!-- Node3 -->
<g id="node3" class="node"><title>Node3</title>
<polygon fill="white" stroke="#bfbfbf" points="869.5,-0.5 869.5,-19.5 922.5,-19.5 922.5,-0.5 869.5,-0.5"/>
<text text-anchor="middle" x="896" y="-7.5" font-family="Verdana" font-size="10.00">stdint.h</text>
</g>
<!-- Node2&#45;&gt;Node3 -->
<g id="edge2" class="edge"><title>Node2&#45;&gt;Node3</title>
<path fill="none" stroke="midnightblue" d="M503.686,-338.116C596.35,-324.312 790.469,-290.539 838,-244 898.153,-185.103 899.494,-74.1282 897.379,-29.8952"/>
<polygon fill="midnightblue" stroke="midnightblue" points="900.862,-29.4932 896.769,-19.7207 893.874,-29.9124 900.862,-29.4932"/>
</g>
<!-- Node4 -->
<g id="node4" class="node"><title>Node4</title>
<polygon fill="white" stroke="#bfbfbf" points="138.5,-0.5 138.5,-19.5 185.5,-19.5 185.5,-0.5 138.5,-0.5"/>
<text text-anchor="middle" x="162" y="-7.5" font-family="Verdana" font-size="10.00">vector</text>
</g>
<!-- Node2&#45;&gt;Node4 -->
<g id="edge3" class="edge"><title>Node2&#45;&gt;Node4</title>
<path fill="none" stroke="midnightblue" d="M404.115,-343.411C286.179,-338.304 0,-317.418 0,-235 0,-235 0,-235 0,-121 0,-59.3981 81.1654,-29.891 128.594,-17.9074"/>
<polygon fill="midnightblue" stroke="midnightblue" points="129.535,-21.281 138.444,-15.5467 127.903,-14.4738 129.535,-21.281"/>
</g>
<!-- Node5 -->
<g id="node5" class="node"><title>Node5</title>
<g id="a_node5"><a xlink:href="InstanceConfigurableElement_8h.html" target="_top" xlink:title="InstanceConfigurableElement.h">
<polygon fill="white" stroke="black" points="156,-280.5 156,-299.5 322,-299.5 322,-280.5 156,-280.5"/>
<text text-anchor="middle" x="239" y="-287.5" font-family="Verdana" font-size="10.00">InstanceConfigurableElement.h</text>
</a>
</g>
</g>
<!-- Node2&#45;&gt;Node5 -->
<g id="edge4" class="edge"><title>Node2&#45;&gt;Node5</title>
<path fill="none" stroke="midnightblue" d="M419.933,-336.444C382.82,-327.122 323.339,-312.183 282.785,-301.997"/>
<polygon fill="midnightblue" stroke="midnightblue" points="283.459,-298.558 272.908,-299.516 281.754,-305.347 283.459,-298.558"/>
</g>
<!-- Node6 -->
<g id="node6" class="node"><title>Node6</title>
<g id="a_node6"><a xlink:href="ConfigurableElementWithMapping_8h.html" target="_top" xlink:title="ConfigurableElementWithMapping.h">
<polygon fill="white" stroke="black" points="146,-224.5 146,-243.5 332,-243.5 332,-224.5 146,-224.5"/>
<text text-anchor="middle" x="239" y="-231.5" font-family="Verdana" font-size="10.00">ConfigurableElementWithMapping.h</text>
</a>
</g>
</g>
<!-- Node5&#45;&gt;Node6 -->
<g id="edge5" class="edge"><title>Node5&#45;&gt;Node6</title>
<path fill="none" stroke="midnightblue" d="M239,-280.083C239,-273.006 239,-262.861 239,-253.986"/>
<polygon fill="midnightblue" stroke="midnightblue" points="242.5,-253.751 239,-243.751 235.5,-253.751 242.5,-253.751"/>
</g>
<!-- Node9 -->
<g id="node9" class="node"><title>Node9</title>
<polygon fill="white" stroke="#bfbfbf" points="542,-0.5 542,-19.5 586,-19.5 586,-0.5 542,-0.5"/>
<text text-anchor="middle" x="564" y="-7.5" font-family="Verdana" font-size="10.00">string</text>
</g>
<!-- Node5&#45;&gt;Node9 -->
<g id="edge24" class="edge"><title>Node5&#45;&gt;Node9</title>
<path fill="none" stroke="midnightblue" d="M172.349,-280.448C113.84,-268.763 38,-241.554 38,-179 38,-179 38,-179 38,-121 38,-86.6051 50.5865,-73.8286 80,-56 156.178,-9.82566 435.867,-9.20475 531.605,-10.4066"/>
<polygon fill="midnightblue" stroke="midnightblue" points="531.784,-13.9093 541.832,-10.5511 531.883,-6.91004 531.784,-13.9093"/>
</g>
<!-- Node10 -->
<g id="node10" class="node"><title>Node10</title>
<polygon fill="white" stroke="#bfbfbf" points="104,-56.5 104,-75.5 134,-75.5 134,-56.5 104,-56.5"/>
<text text-anchor="middle" x="119" y="-63.5" font-family="Verdana" font-size="10.00">list</text>
</g>
<!-- Node5&#45;&gt;Node10 -->
<g id="edge23" class="edge"><title>Node5&#45;&gt;Node10</title>
<path fill="none" stroke="midnightblue" d="M195.305,-280.463C174.306,-274.036 150.766,-262.947 137,-244 102.256,-196.18 109.398,-120.946 115.219,-86.0057"/>
<polygon fill="midnightblue" stroke="midnightblue" points="118.729,-86.2644 117.08,-75.7987 111.843,-85.0088 118.729,-86.2644"/>
</g>
<!-- Node14 -->
<g id="node14" class="node"><title>Node14</title>
<g id="a_node14"><a xlink:href="TypeElement_8h.html" target="_top" xlink:title="TypeElement.h">
<polygon fill="white" stroke="black" points="356,-168.5 356,-187.5 442,-187.5 442,-168.5 356,-168.5"/>
<text text-anchor="middle" x="399" y="-175.5" font-family="Verdana" font-size="10.00">TypeElement.h</text>
</a>
</g>
</g>
<!-- Node5&#45;&gt;Node14 -->
<g id="edge20" class="edge"><title>Node5&#45;&gt;Node14</title>
<path fill="none" stroke="midnightblue" d="M265.905,-280.471C287.23,-272.926 317.14,-260.544 340,-244 358.635,-230.514 375.806,-210.335 386.761,-196.043"/>
<polygon fill="midnightblue" stroke="midnightblue" points="389.857,-197.745 393.015,-187.631 384.24,-193.568 389.857,-197.745"/>
</g>
<!-- Node7 -->
<g id="node7" class="node"><title>Node7</title>
<g id="a_node7"><a xlink:href="ConfigurableElement_8h.html" target="_top" xlink:title="ConfigurableElement.h">
<polygon fill="white" stroke="black" points="180.5,-168.5 180.5,-187.5 305.5,-187.5 305.5,-168.5 180.5,-168.5"/>
<text text-anchor="middle" x="243" y="-175.5" font-family="Verdana" font-size="10.00">ConfigurableElement.h</text>
</a>
</g>
</g>
<!-- Node6&#45;&gt;Node7 -->
<g id="edge6" class="edge"><title>Node6&#45;&gt;Node7</title>
<path fill="none" stroke="midnightblue" d="M239.661,-224.083C240.185,-217.006 240.936,-206.861 241.594,-197.986"/>
<polygon fill="midnightblue" stroke="midnightblue" points="245.103,-197.982 242.352,-187.751 238.123,-197.465 245.103,-197.982"/>
</g>
<!-- Node6&#45;&gt;Node9 -->
<g id="edge19" class="edge"><title>Node6&#45;&gt;Node9</title>
<path fill="none" stroke="midnightblue" d="M222.352,-224.436C173.7,-198.371 38.656,-118.009 95,-56 124.324,-23.7282 430.179,-13.9969 531.557,-11.6461"/>
<polygon fill="midnightblue" stroke="midnightblue" points="531.882,-15.1398 541.802,-11.4178 531.726,-8.14159 531.882,-15.1398"/>
</g>
<!-- Node8 -->
<g id="node8" class="node"><title>Node8</title>
<g id="a_node8"><a xlink:href="Element_8h.html" target="_top" xlink:title="Element.h">
<polygon fill="white" stroke="black" points="278.5,-112.5 278.5,-131.5 343.5,-131.5 343.5,-112.5 278.5,-112.5"/>
<text text-anchor="middle" x="311" y="-119.5" font-family="Verdana" font-size="10.00">Element.h</text>
</a>
</g>
</g>
<!-- Node7&#45;&gt;Node8 -->
<g id="edge7" class="edge"><title>Node7&#45;&gt;Node8</title>
<path fill="none" stroke="midnightblue" d="M253.925,-168.324C264.175,-160.185 279.721,-147.839 292.001,-138.087"/>
<polygon fill="midnightblue" stroke="midnightblue" points="294.221,-140.794 299.876,-131.834 289.868,-135.312 294.221,-140.794"/>
</g>
<!-- Node7&#45;&gt;Node10 -->
<g id="edge18" class="edge"><title>Node7&#45;&gt;Node10</title>
<path fill="none" stroke="midnightblue" d="M233.27,-168.368C212.354,-149.814 162.865,-105.913 136.402,-82.4376"/>
<polygon fill="midnightblue" stroke="midnightblue" points="138.488,-79.6093 128.685,-75.5914 133.843,-84.8459 138.488,-79.6093"/>
</g>
<!-- Node8&#45;&gt;Node3 -->
<g id="edge10" class="edge"><title>Node8&#45;&gt;Node3</title>
<path fill="none" stroke="midnightblue" d="M343.706,-114.85C445.002,-95.803 753.106,-37.869 859.448,-17.8731"/>
<polygon fill="midnightblue" stroke="midnightblue" points="860.204,-21.2923 869.385,-16.0045 858.91,-14.4129 860.204,-21.2923"/>
</g>
<!-- Node8&#45;&gt;Node4 -->
<g id="edge9" class="edge"><title>Node8&#45;&gt;Node4</title>
<path fill="none" stroke="midnightblue" d="M278.467,-118.074C249.074,-113.72 206.612,-102.895 181,-76 169.228,-63.6387 164.698,-44.3916 162.981,-30.045"/>
<polygon fill="midnightblue" stroke="midnightblue" points="166.447,-29.4876 162.123,-19.8151 159.471,-30.0727 166.447,-29.4876"/>
</g>
<!-- Node8&#45;&gt;Node9 -->
<g id="edge8" class="edge"><title>Node8&#45;&gt;Node9</title>
<path fill="none" stroke="midnightblue" d="M343.564,-114.94C376.297,-108.118 427.688,-95.3861 469,-76 497.762,-62.5029 527.44,-40.7008 545.802,-26.1146"/>
<polygon fill="midnightblue" stroke="midnightblue" points="548.281,-28.6119 553.854,-19.6018 543.878,-23.1694 548.281,-28.6119"/>
</g>
<!-- Node8&#45;&gt;Node10 -->
<g id="edge11" class="edge"><title>Node8&#45;&gt;Node10</title>
<path fill="none" stroke="midnightblue" d="M278.75,-112.419C245.806,-103.577 193.216,-89.2541 148,-76 146.577,-75.5829 145.117,-75.1489 143.645,-74.7066"/>
<polygon fill="midnightblue" stroke="midnightblue" points="144.611,-71.3421 134.024,-71.7616 142.562,-78.0355 144.611,-71.3421"/>
</g>
<!-- Node11 -->
<g id="node11" class="node"><title>Node11</title>
<polygon fill="white" stroke="#bfbfbf" points="190,-56.5 190,-75.5 254,-75.5 254,-56.5 190,-56.5"/>
<text text-anchor="middle" x="222" y="-63.5" font-family="Verdana" font-size="10.00">XmlSink.h</text>
</g>
<!-- Node8&#45;&gt;Node11 -->
<g id="edge12" class="edge"><title>Node8&#45;&gt;Node11</title>
<path fill="none" stroke="midnightblue" d="M296.701,-112.324C282.817,-103.9 261.508,-90.9709 245.196,-81.0741"/>
<polygon fill="midnightblue" stroke="midnightblue" points="246.629,-77.8495 236.264,-75.6545 242.998,-83.8341 246.629,-77.8495"/>
</g>
<!-- Node12 -->
<g id="node12" class="node"><title>Node12</title>
<polygon fill="white" stroke="#bfbfbf" points="272.5,-56.5 272.5,-75.5 349.5,-75.5 349.5,-56.5 272.5,-56.5"/>
<text text-anchor="middle" x="311" y="-63.5" font-family="Verdana" font-size="10.00">XmlSource.h</text>
</g>
<!-- Node8&#45;&gt;Node12 -->
<g id="edge13" class="edge"><title>Node8&#45;&gt;Node12</title>
<path fill="none" stroke="midnightblue" d="M311,-112.083C311,-105.006 311,-94.8611 311,-85.9865"/>
<polygon fill="midnightblue" stroke="midnightblue" points="314.5,-85.751 311,-75.7511 307.5,-85.7511 314.5,-85.751"/>
</g>
<!-- Node13 -->
<g id="node13" class="node"><title>Node13</title>
<g id="a_node13"><a xlink:href="PathNavigator_8h.html" target="_top" xlink:title="PathNavigator.h">
<polygon fill="white" stroke="black" points="368,-56.5 368,-75.5 460,-75.5 460,-56.5 368,-56.5"/>
<text text-anchor="middle" x="414" y="-63.5" font-family="Verdana" font-size="10.00">PathNavigator.h</text>
</a>
</g>
</g>
<!-- Node8&#45;&gt;Node13 -->
<g id="edge14" class="edge"><title>Node8&#45;&gt;Node13</title>
<path fill="none" stroke="midnightblue" d="M327.549,-112.324C343.992,-103.703 369.435,-90.3643 388.468,-80.3855"/>
<polygon fill="midnightblue" stroke="midnightblue" points="390.261,-83.3977 397.492,-75.6545 387.011,-77.198 390.261,-83.3977"/>
</g>
<!-- Node13&#45;&gt;Node3 -->
<g id="edge17" class="edge"><title>Node13&#45;&gt;Node3</title>
<path fill="none" stroke="midnightblue" d="M460.216,-59.8223C555.556,-49.141 772.371,-24.8505 859.119,-15.1319"/>
<polygon fill="midnightblue" stroke="midnightblue" points="859.728,-18.5857 869.276,-13.994 858.949,-11.6292 859.728,-18.5857"/>
</g>
<!-- Node13&#45;&gt;Node4 -->
<g id="edge15" class="edge"><title>Node13&#45;&gt;Node4</title>
<path fill="none" stroke="midnightblue" d="M374.07,-56.4435C324.782,-45.8819 241.837,-28.1079 195.64,-18.2085"/>
<polygon fill="midnightblue" stroke="midnightblue" points="196.331,-14.7772 185.819,-16.1041 194.864,-21.6218 196.331,-14.7772"/>
</g>
<!-- Node13&#45;&gt;Node9 -->
<g id="edge16" class="edge"><title>Node13&#45;&gt;Node9</title>
<path fill="none" stroke="midnightblue" d="M437.768,-56.4435C463.336,-47.239 504.121,-32.5565 532.382,-22.3826"/>
<polygon fill="midnightblue" stroke="midnightblue" points="533.587,-25.6687 541.81,-18.9883 531.216,-19.0825 533.587,-25.6687"/>
</g>
<!-- Node14&#45;&gt;Node8 -->
<g id="edge21" class="edge"><title>Node14&#45;&gt;Node8</title>
<path fill="none" stroke="midnightblue" d="M384.861,-168.324C371.134,-159.9 350.064,-146.971 333.936,-137.074"/>
<polygon fill="midnightblue" stroke="midnightblue" points="335.457,-133.902 325.104,-131.655 331.796,-139.868 335.457,-133.902"/>
</g>
<!-- Node14&#45;&gt;Node9 -->
<g id="edge22" class="edge"><title>Node14&#45;&gt;Node9</title>
<path fill="none" stroke="midnightblue" d="M407.669,-168.376C425.167,-150.96 465.94,-110.325 500,-76 516.443,-59.4292 535.169,-40.3906 548.098,-27.2203"/>
<polygon fill="midnightblue" stroke="midnightblue" points="550.821,-29.4421 555.326,-19.8528 545.824,-24.5398 550.821,-29.4421"/>
</g>
<!-- Node15&#45;&gt;Node3 -->
<g id="edge26" class="edge"><title>Node15&#45;&gt;Node3</title>
<path fill="none" stroke="midnightblue" d="M787.1,-224.23C793.204,-215.299 802.71,-200.961 810,-188 841.751,-131.551 873.637,-61.6456 888.047,-29.1668"/>
<polygon fill="midnightblue" stroke="midnightblue" points="891.406,-30.2226 892.238,-19.6605 885.001,-27.3985 891.406,-30.2226"/>
</g>
<!-- Node15&#45;&gt;Node9 -->
<g id="edge29" class="edge"><title>Node15&#45;&gt;Node9</title>
<path fill="none" stroke="midnightblue" d="M770.055,-224.315C749.03,-207.434 701.894,-168.629 666,-132 631.556,-96.8506 595.378,-51.6524 576.754,-27.6745"/>
<polygon fill="midnightblue" stroke="midnightblue" points="579.395,-25.3686 570.516,-19.589 573.853,-29.6445 579.395,-25.3686"/>
</g>
<!-- Node15&#45;&gt;Node14 -->
<g id="edge28" class="edge"><title>Node15&#45;&gt;Node14</title>
<path fill="none" stroke="midnightblue" d="M732.428,-226.367C669.372,-217.72 555.922,-202.041 459,-188 456.798,-187.681 454.551,-187.353 452.281,-187.021"/>
<polygon fill="midnightblue" stroke="midnightblue" points="452.656,-183.538 442.252,-185.541 451.634,-190.463 452.656,-183.538"/>
</g>
<!-- Node16 -->
<g id="node16" class="node"><title>Node16</title>
<polygon fill="white" stroke="#bfbfbf" points="760,-168.5 760,-187.5 802,-187.5 802,-168.5 760,-168.5"/>
<text text-anchor="middle" x="781" y="-175.5" font-family="Verdana" font-size="10.00">limits</text>
</g>
<!-- Node15&#45;&gt;Node16 -->
<g id="edge27" class="edge"><title>Node15&#45;&gt;Node16</title>
<path fill="none" stroke="midnightblue" d="M781,-224.083C781,-217.006 781,-206.861 781,-197.986"/>
<polygon fill="midnightblue" stroke="midnightblue" points="784.5,-197.751 781,-187.751 777.5,-197.751 784.5,-197.751"/>
</g>
<!-- Node17&#45;&gt;Node3 -->
<g id="edge31" class="edge"><title>Node17&#45;&gt;Node3</title>
<path fill="none" stroke="midnightblue" d="M760.535,-112.368C785.545,-93.6531 845.017,-49.1509 876.178,-25.8324"/>
<polygon fill="midnightblue" stroke="midnightblue" points="878.609,-28.385 884.519,-19.5914 874.415,-22.7804 878.609,-28.385"/>
</g>
<!-- Node17&#45;&gt;Node9 -->
<g id="edge34" class="edge"><title>Node17&#45;&gt;Node9</title>
<path fill="none" stroke="midnightblue" d="M734.483,-112.368C702.602,-93.4121 626.228,-48.0006 587.449,-24.9424"/>
<polygon fill="midnightblue" stroke="midnightblue" points="588.833,-21.6938 578.449,-19.5914 585.256,-27.7106 588.833,-21.6938"/>
</g>
<!-- Node18 -->
<g id="node18" class="node"><title>Node18</title>
<g id="a_node18"><a xlink:href="ErrorContext_8h.html" target="_top" xlink:title="ErrorContext.h">
<polygon fill="white" stroke="black" points="706,-56.5 706,-75.5 792,-75.5 792,-56.5 706,-56.5"/>
<text text-anchor="middle" x="749" y="-63.5" font-family="Verdana" font-size="10.00">ErrorContext.h</text>
</a>
</g>
</g>
<!-- Node17&#45;&gt;Node18 -->
<g id="edge32" class="edge"><title>Node17&#45;&gt;Node18</title>
<path fill="none" stroke="midnightblue" d="M749,-112.083C749,-105.006 749,-94.8611 749,-85.9865"/>
<polygon fill="midnightblue" stroke="midnightblue" points="752.5,-85.751 749,-75.7511 745.5,-85.7511 752.5,-85.751"/>
</g>
<!-- Node18&#45;&gt;Node9 -->
<g id="edge33" class="edge"><title>Node18&#45;&gt;Node9</title>
<path fill="none" stroke="midnightblue" d="M719.686,-56.4435C685.932,-46.591 630.676,-30.4621 595.876,-20.3044"/>
<polygon fill="midnightblue" stroke="midnightblue" points="596.789,-16.9249 586.209,-17.4826 594.828,-23.6445 596.789,-16.9249"/>
</g>
<!-- Node19&#45;&gt;Node9 -->
<g id="edge37" class="edge"><title>Node19&#45;&gt;Node9</title>
<path fill="none" stroke="midnightblue" d="M549.806,-168.075C552.168,-141.945 559.101,-65.2106 562.321,-29.577"/>
<polygon fill="midnightblue" stroke="midnightblue" points="565.812,-29.8425 563.226,-19.5681 558.84,-29.2125 565.812,-29.8425"/>
</g>
<!-- Node19&#45;&gt;Node17 -->
<g id="edge36" class="edge"><title>Node19&#45;&gt;Node17</title>
<path fill="none" stroke="midnightblue" d="M580.691,-168.444C615.068,-159.162 670.077,-144.309 707.789,-134.127"/>
<polygon fill="midnightblue" stroke="midnightblue" points="708.716,-137.502 717.458,-131.516 706.891,-130.744 708.716,-137.502"/>
</g>
<!-- Node20&#45;&gt;Node3 -->
<g id="edge39" class="edge"><title>Node20&#45;&gt;Node3</title>
<path fill="none" stroke="midnightblue" d="M1038.12,-112.304C1053.32,-99.3528 1077.2,-74.5339 1063,-56 1047.28,-35.4786 977.148,-22.2042 932.918,-15.7124"/>
<polygon fill="midnightblue" stroke="midnightblue" points="933.213,-12.2194 922.821,-14.2816 932.231,-19.1501 933.213,-12.2194"/>
</g>
<!-- Node20&#45;&gt;Node9 -->
<g id="edge44" class="edge"><title>Node20&#45;&gt;Node9</title>
<path fill="none" stroke="midnightblue" d="M1000.42,-112.49C958.397,-99.2295 873.878,-73.3598 801,-56 728.241,-38.6685 641.658,-23.6185 595.948,-16.1014"/>
<polygon fill="midnightblue" stroke="midnightblue" points="596.469,-12.6402 586.036,-14.4844 595.342,-19.5489 596.469,-12.6402"/>
</g>
<!-- Node21 -->
<g id="node21" class="node"><title>Node21</title>
<g id="a_node21"><a xlink:href="BinaryStream_8h.html" target="_top" xlink:title="BinaryStream.h">
<polygon fill="white" stroke="black" points="962,-56.5 962,-75.5 1054,-75.5 1054,-56.5 962,-56.5"/>
<text text-anchor="middle" x="1008" y="-63.5" font-family="Verdana" font-size="10.00">BinaryStream.h</text>
</a>
</g>
</g>
<!-- Node20&#45;&gt;Node21 -->
<g id="edge40" class="edge"><title>Node20&#45;&gt;Node21</title>
<path fill="none" stroke="midnightblue" d="M1023.86,-112.083C1021.32,-104.849 1017.64,-94.4087 1014.47,-85.3968"/>
<polygon fill="midnightblue" stroke="midnightblue" points="1017.7,-84.0225 1011.08,-75.7511 1011.1,-86.3459 1017.7,-84.0225"/>
</g>
<!-- Node21&#45;&gt;Node3 -->
<g id="edge41" class="edge"><title>Node21&#45;&gt;Node3</title>
<path fill="none" stroke="midnightblue" d="M990.005,-56.324C971.962,-47.6247 943.953,-34.1202 923.197,-24.113"/>
<polygon fill="midnightblue" stroke="midnightblue" points="924.478,-20.8449 913.95,-19.6545 921.438,-27.1502 924.478,-20.8449"/>
</g>
<!-- Node21&#45;&gt;Node9 -->
<g id="edge42" class="edge"><title>Node21&#45;&gt;Node9</title>
<path fill="none" stroke="midnightblue" d="M961.741,-59.3739C871.585,-48.409 674.392,-24.4261 596.542,-14.9579"/>
<polygon fill="midnightblue" stroke="midnightblue" points="596.722,-11.454 586.373,-13.721 595.877,-18.4028 596.722,-11.454"/>
</g>
<!-- Node22 -->
<g id="node22" class="node"><title>Node22</title>
<polygon fill="white" stroke="#bfbfbf" points="981,-0.5 981,-19.5 1035,-19.5 1035,-0.5 981,-0.5"/>
<text text-anchor="middle" x="1008" y="-7.5" font-family="Verdana" font-size="10.00">fstream</text>
</g>
<!-- Node21&#45;&gt;Node22 -->
<g id="edge43" class="edge"><title>Node21&#45;&gt;Node22</title>
<path fill="none" stroke="midnightblue" d="M1008,-56.083C1008,-49.0059 1008,-38.8611 1008,-29.9865"/>
<polygon fill="midnightblue" stroke="midnightblue" points="1011.5,-29.751 1008,-19.7511 1004.5,-29.7511 1011.5,-29.751"/>
</g>
</g>
</svg>
