<?xml version="1.0" encoding="UTF-8" standalone="no"?>
<!DOCTYPE svg PUBLIC "-//W3C//DTD SVG 1.1//EN"
 "http://www.w3.org/Graphics/SVG/1.1/DTD/svg11.dtd">
<!-- Generated by graphviz version 2.38.0 (20140413.2041)
 -->
<!-- Title: /home/dawagner/dev/parameter&#45;framework/parameter/BinarySerializableElement.cpp Pages: 1 -->
<svg width="565pt" height="285pt"
 viewBox="0.00 0.00 564.54 285.00" xmlns="http://www.w3.org/2000/svg" xmlns:xlink="http://www.w3.org/1999/xlink">
<g id="graph0" class="graph" transform="scale(1 1) rotate(0) translate(4 281)">
<title>/home/dawagner/dev/parameter&#45;framework/parameter/BinarySerializableElement.cpp</title>
<polygon fill="white" stroke="none" points="-4,4 -4,-281 560.543,-281 560.543,4 -4,4"/>
<!-- Node1 -->
<g id="node1" class="node"><title>Node1</title>
<polygon fill="#bfbfbf" stroke="black" points="357.543,-224.5 357.543,-276.5 515.543,-276.5 515.543,-224.5 357.543,-224.5"/>
<text text-anchor="start" x="365.543" y="-264.5" font-family="Verdana" font-size="10.00">/home/dawagner/dev</text>
<text text-anchor="start" x="365.543" y="-253.5" font-family="Verdana" font-size="10.00">/parameter&#45;framework</text>
<text text-anchor="start" x="365.543" y="-242.5" font-family="Verdana" font-size="10.00">/parameter/BinarySerializable</text>
<text text-anchor="middle" x="436.543" y="-231.5" font-family="Verdana" font-size="10.00">Element.cpp</text>
</g>
<!-- Node2 -->
<g id="node2" class="node"><title>Node2</title>
<g id="a_node2"><a xlink:href="BinarySerializableElement_8h.html" target="_top" xlink:title="BinarySerializableElement.h">
<polygon fill="white" stroke="black" points="361.543,-168.5 361.543,-187.5 511.543,-187.5 511.543,-168.5 361.543,-168.5"/>
<text text-anchor="middle" x="436.543" y="-175.5" font-family="Verdana" font-size="10.00">BinarySerializableElement.h</text>
</a>
</g>
</g>
<!-- Node1&#45;&gt;Node2 -->
<g id="edge1" class="edge"><title>Node1&#45;&gt;Node2</title>
<path fill="none" stroke="midnightblue" d="M436.543,-224.446C436.543,-215.73 436.543,-206.104 436.543,-197.964"/>
<polygon fill="midnightblue" stroke="midnightblue" points="440.043,-197.695 436.543,-187.695 433.043,-197.696 440.043,-197.695"/>
</g>
<!-- Node3 -->
<g id="node3" class="node"><title>Node3</title>
<g id="a_node3"><a xlink:href="Element_8h.html" target="_top" xlink:title="Element.h">
<polygon fill="white" stroke="black" points="162.043,-112.5 162.043,-131.5 227.043,-131.5 227.043,-112.5 162.043,-112.5"/>
<text text-anchor="middle" x="194.543" y="-119.5" font-family="Verdana" font-size="10.00">Element.h</text>
</a>
</g>
</g>
<!-- Node2&#45;&gt;Node3 -->
<g id="edge2" class="edge"><title>Node2&#45;&gt;Node3</title>
<path fill="none" stroke="midnightblue" d="M398.197,-168.444C354.335,-158.656 282.715,-142.675 237.145,-132.506"/>
<polygon fill="midnightblue" stroke="midnightblue" points="237.799,-129.066 227.276,-130.304 236.274,-135.898 237.799,-129.066"/>
</g>
<!-- Node4 -->
<g id="node4" class="node"><title>Node4</title>
<polygon fill="white" stroke="#bfbfbf" points="297.543,-0.5 297.543,-19.5 341.543,-19.5 341.543,-0.5 297.543,-0.5"/>
<text text-anchor="middle" x="319.543" y="-7.5" font-family="Verdana" font-size="10.00">string</text>
</g>
<!-- Node2&#45;&gt;Node4 -->
<g id="edge17" class="edge"><title>Node2&#45;&gt;Node4</title>
<path fill="none" stroke="midnightblue" d="M437.657,-168.331C439.924,-146.882 442.834,-90.5753 416.543,-56 400.828,-35.3337 373.335,-23.8174 351.622,-17.6216"/>
<polygon fill="midnightblue" stroke="midnightblue" points="352.37,-14.1997 341.81,-15.063 350.603,-20.9732 352.37,-14.1997"/>
</g>
<!-- Node11 -->
<g id="node11" class="node"><title>Node11</title>
<g id="a_node11"><a xlink:href="BinaryStream_8h.html" target="_top" xlink:title="BinaryStream.h">
<polygon fill="white" stroke="black" points="464.543,-56.5 464.543,-75.5 556.543,-75.5 556.543,-56.5 464.543,-56.5"/>
<text text-anchor="middle" x="510.543" y="-63.5" font-family="Verdana" font-size="10.00">BinaryStream.h</text>
</a>
</g>
</g>
<!-- Node2&#45;&gt;Node11 -->
<g id="edge13" class="edge"><title>Node2&#45;&gt;Node11</title>
<path fill="none" stroke="midnightblue" d="M442.349,-168.368C454.562,-150.215 483.095,-107.802 499.113,-83.9902"/>
<polygon fill="midnightblue" stroke="midnightblue" points="502.085,-85.8423 504.763,-75.5914 496.277,-81.935 502.085,-85.8423"/>
</g>
<!-- Node3&#45;&gt;Node4 -->
<g id="edge3" class="edge"><title>Node3&#45;&gt;Node4</title>
<path fill="none" stroke="midnightblue" d="M191.113,-112.492C186.334,-99.1197 179.527,-72.9611 191.543,-56 213.103,-25.5671 256.957,-15.5652 287.28,-12.3631"/>
<polygon fill="midnightblue" stroke="midnightblue" points="287.721,-15.8382 297.383,-11.4917 287.119,-8.86406 287.721,-15.8382"/>
</g>
<!-- Node5 -->
<g id="node5" class="node"><title>Node5</title>
<polygon fill="white" stroke="#bfbfbf" points="0.042804,-0.5 0.042804,-19.5 47.0428,-19.5 47.0428,-0.5 0.042804,-0.5"/>
<text text-anchor="middle" x="23.5428" y="-7.5" font-family="Verdana" font-size="10.00">vector</text>
</g>
<!-- Node3&#45;&gt;Node5 -->
<g id="edge4" class="edge"><title>Node3&#45;&gt;Node5</title>
<path fill="none" stroke="midnightblue" d="M161.869,-118.018C113.032,-112.808 24.6725,-100.219 5.5428,-76 -5.30769,-62.2627 2.65353,-42.4027 11.1554,-28.2561"/>
<polygon fill="midnightblue" stroke="midnightblue" points="14.3304,-29.7982 16.9031,-19.5204 8.48265,-25.9505 14.3304,-29.7982"/>
</g>
<!-- Node6 -->
<g id="node6" class="node"><title>Node6</title>
<polygon fill="white" stroke="#bfbfbf" points="108.043,-0.5 108.043,-19.5 161.043,-19.5 161.043,-0.5 108.043,-0.5"/>
<text text-anchor="middle" x="134.543" y="-7.5" font-family="Verdana" font-size="10.00">stdint.h</text>
</g>
<!-- Node3&#45;&gt;Node6 -->
<g id="edge5" class="edge"><title>Node3&#45;&gt;Node6</title>
<path fill="none" stroke="midnightblue" d="M186.173,-112.316C178.209,-103.679 166.318,-89.7634 158.543,-76 150.222,-61.2714 143.801,-43.1104 139.703,-29.7324"/>
<polygon fill="midnightblue" stroke="midnightblue" points="142.968,-28.426 136.817,-19.8001 136.246,-30.3796 142.968,-28.426"/>
</g>
<!-- Node7 -->
<g id="node7" class="node"><title>Node7</title>
<polygon fill="white" stroke="#bfbfbf" points="200.543,-56.5 200.543,-75.5 230.543,-75.5 230.543,-56.5 200.543,-56.5"/>
<text text-anchor="middle" x="215.543" y="-63.5" font-family="Verdana" font-size="10.00">list</text>
</g>
<!-- Node3&#45;&gt;Node7 -->
<g id="edge6" class="edge"><title>Node3&#45;&gt;Node7</title>
<path fill="none" stroke="midnightblue" d="M198.011,-112.083C200.854,-104.77 204.972,-94.1814 208.503,-85.1034"/>
<polygon fill="midnightblue" stroke="midnightblue" points="211.777,-86.3397 212.14,-75.7511 205.253,-83.8025 211.777,-86.3397"/>
</g>
<!-- Node8 -->
<g id="node8" class="node"><title>Node8</title>
<polygon fill="white" stroke="#bfbfbf" points="248.543,-56.5 248.543,-75.5 312.543,-75.5 312.543,-56.5 248.543,-56.5"/>
<text text-anchor="middle" x="280.543" y="-63.5" font-family="Verdana" font-size="10.00">XmlSink.h</text>
</g>
<!-- Node3&#45;&gt;Node8 -->
<g id="edge7" class="edge"><title>Node3&#45;&gt;Node8</title>
<path fill="none" stroke="midnightblue" d="M208.36,-112.324C221.776,-103.9 242.367,-90.9709 258.128,-81.0741"/>
<polygon fill="midnightblue" stroke="midnightblue" points="260.152,-83.9364 266.76,-75.6545 256.43,-78.0081 260.152,-83.9364"/>
</g>
<!-- Node9 -->
<g id="node9" class="node"><title>Node9</title>
<polygon fill="white" stroke="#bfbfbf" points="331.043,-56.5 331.043,-75.5 408.043,-75.5 408.043,-56.5 331.043,-56.5"/>
<text text-anchor="middle" x="369.543" y="-63.5" font-family="Verdana" font-size="10.00">XmlSource.h</text>
</g>
<!-- Node3&#45;&gt;Node9 -->
<g id="edge8" class="edge"><title>Node3&#45;&gt;Node9</title>
<path fill="none" stroke="midnightblue" d="M222.272,-112.444C251.968,-103.28 299.259,-88.6876 332.212,-78.5192"/>
<polygon fill="midnightblue" stroke="midnightblue" points="333.42,-81.8094 341.943,-75.5164 331.356,-75.1206 333.42,-81.8094"/>
</g>
<!-- Node10 -->
<g id="node10" class="node"><title>Node10</title>
<g id="a_node10"><a xlink:href="PathNavigator_8h.html" target="_top" xlink:title="PathNavigator.h">
<polygon fill="white" stroke="black" points="14.5428,-56.5 14.5428,-75.5 106.543,-75.5 106.543,-56.5 14.5428,-56.5"/>
<text text-anchor="middle" x="60.5428" y="-63.5" font-family="Verdana" font-size="10.00">PathNavigator.h</text>
</a>
</g>
</g>
<!-- Node3&#45;&gt;Node10 -->
<g id="edge9" class="edge"><title>Node3&#45;&gt;Node10</title>
<path fill="none" stroke="midnightblue" d="M173.31,-112.444C151.159,-103.517 116.224,-89.4387 91.1068,-79.3168"/>
<polygon fill="midnightblue" stroke="midnightblue" points="92.2596,-76.0079 81.6762,-75.5164 89.6431,-82.5006 92.2596,-76.0079"/>
</g>
<!-- Node10&#45;&gt;Node4 -->
<g id="edge11" class="edge"><title>Node10&#45;&gt;Node4</title>
<path fill="none" stroke="midnightblue" d="M101.582,-56.4435C153.167,-45.6884 240.624,-27.4541 287.54,-17.6724"/>
<polygon fill="midnightblue" stroke="midnightblue" points="288.381,-21.0724 297.456,-15.6049 286.952,-14.2197 288.381,-21.0724"/>
</g>
<!-- Node10&#45;&gt;Node5 -->
<g id="edge10" class="edge"><title>Node10&#45;&gt;Node5</title>
<path fill="none" stroke="midnightblue" d="M54.433,-56.083C49.2606,-48.5341 41.6967,-37.4948 35.3484,-28.2298"/>
<polygon fill="midnightblue" stroke="midnightblue" points="38.0785,-26.0221 29.5389,-19.7511 32.304,-29.9787 38.0785,-26.0221"/>
</g>
<!-- Node10&#45;&gt;Node6 -->
<g id="edge12" class="edge"><title>Node10&#45;&gt;Node6</title>
<path fill="none" stroke="midnightblue" d="M72.4322,-56.324C83.693,-48.1066 100.829,-35.6017 114.252,-25.8069"/>
<polygon fill="midnightblue" stroke="midnightblue" points="116.422,-28.5559 122.437,-19.8339 112.296,-22.9014 116.422,-28.5559"/>
</g>
<!-- Node11&#45;&gt;Node4 -->
<g id="edge15" class="edge"><title>Node11&#45;&gt;Node4</title>
<path fill="none" stroke="midnightblue" d="M480.278,-56.4435C445.142,-46.5098 387.439,-30.1958 351.569,-20.0544"/>
<polygon fill="midnightblue" stroke="midnightblue" points="352.202,-16.5964 341.627,-17.2437 350.298,-23.3324 352.202,-16.5964"/>
</g>
<!-- Node11&#45;&gt;Node6 -->
<g id="edge14" class="edge"><title>Node11&#45;&gt;Node6</title>
<path fill="none" stroke="midnightblue" d="M464.438,-58.3785C388.896,-47.5294 240.277,-26.1852 171.31,-16.2803"/>
<polygon fill="midnightblue" stroke="midnightblue" points="171.735,-12.8056 161.339,-14.8484 170.74,-19.7345 171.735,-12.8056"/>
</g>
<!-- Node12 -->
<g id="node12" class="node"><title>Node12</title>
<polygon fill="white" stroke="#bfbfbf" points="483.543,-0.5 483.543,-19.5 537.543,-19.5 537.543,-0.5 483.543,-0.5"/>
<text text-anchor="middle" x="510.543" y="-7.5" font-family="Verdana" font-size="10.00">fstream</text>
</g>
<!-- Node11&#45;&gt;Node12 -->
<g id="edge16" class="edge"><title>Node11&#45;&gt;Node12</title>
<path fill="none" stroke="midnightblue" d="M510.543,-56.083C510.543,-49.0059 510.543,-38.8611 510.543,-29.9865"/>
<polygon fill="midnightblue" stroke="midnightblue" points="514.043,-29.751 510.543,-19.7511 507.043,-29.7511 514.043,-29.751"/>
</g>
</g>
</svg>
