<?xml version="1.0" encoding="UTF-8" standalone="no"?>
<!DOCTYPE svg PUBLIC "-//W3C//DTD SVG 1.1//EN"
 "http://www.w3.org/Graphics/SVG/1.1/DTD/svg11.dtd">
<!-- Generated by graphviz version 2.38.0 (20140413.2041)
 -->
<!-- Title: /home/dawagner/dev/parameter&#45;framework/parameter/BinaryStream.cpp Pages: 1 -->
<svg width="294pt" height="162pt"
 viewBox="0.00 0.00 293.50 162.00" xmlns="http://www.w3.org/2000/svg" xmlns:xlink="http://www.w3.org/1999/xlink">
<g id="graph0" class="graph" transform="scale(1 1) rotate(0) translate(4 158)">
<title>/home/dawagner/dev/parameter&#45;framework/parameter/BinaryStream.cpp</title>
<polygon fill="white" stroke="none" points="-4,4 -4,-158 289.5,-158 289.5,4 -4,4"/>
<!-- Node1 -->
<g id="node1" class="node"><title>Node1</title>
<polygon fill="#bfbfbf" stroke="black" points="104.5,-112.5 104.5,-153.5 264.5,-153.5 264.5,-112.5 104.5,-112.5"/>
<text text-anchor="start" x="112.5" y="-141.5" font-family="Verdana" font-size="10.00">/home/dawagner/dev</text>
<text text-anchor="start" x="112.5" y="-130.5" font-family="Verdana" font-size="10.00">/parameter&#45;framework</text>
<text text-anchor="middle" x="184.5" y="-119.5" font-family="Verdana" font-size="10.00">/parameter/BinaryStream.cpp</text>
</g>
<!-- Node2 -->
<g id="node2" class="node"><title>Node2</title>
<g id="a_node2"><a xlink:href="BinaryStream_8h.html" target="_top" xlink:title="BinaryStream.h">
<polygon fill="white" stroke="black" points="47.5,-56.5 47.5,-75.5 139.5,-75.5 139.5,-56.5 47.5,-56.5"/>
<text text-anchor="middle" x="93.5" y="-63.5" font-family="Verdana" font-size="10.00">BinaryStream.h</text>
</a>
</g>
</g>
<!-- Node1&#45;&gt;Node2 -->
<g id="edge1" class="edge"><title>Node1&#45;&gt;Node2</title>
<path fill="none" stroke="midnightblue" d="M157.197,-112.498C143.245,-102.532 126.56,-90.6142 113.767,-81.4764"/>
<polygon fill="midnightblue" stroke="midnightblue" points="115.785,-78.6168 105.613,-75.6525 111.716,-84.313 115.785,-78.6168"/>
</g>
<!-- Node6 -->
<g id="node6" class="node"><title>Node6</title>
<polygon fill="white" stroke="#bfbfbf" points="158,-56.5 158,-75.5 211,-75.5 211,-56.5 158,-56.5"/>
<text text-anchor="middle" x="184.5" y="-63.5" font-family="Verdana" font-size="10.00">string.h</text>
</g>
<!-- Node1&#45;&gt;Node6 -->
<g id="edge5" class="edge"><title>Node1&#45;&gt;Node6</title>
<path fill="none" stroke="midnightblue" d="M184.5,-112.498C184.5,-104.065 184.5,-94.2351 184.5,-85.874"/>
<polygon fill="midnightblue" stroke="midnightblue" points="188,-85.6525 184.5,-75.6525 181,-85.6525 188,-85.6525"/>
</g>
<!-- Node7 -->
<g id="node7" class="node"><title>Node7</title>
<polygon fill="white" stroke="#bfbfbf" points="229.5,-56.5 229.5,-75.5 285.5,-75.5 285.5,-56.5 229.5,-56.5"/>
<text text-anchor="middle" x="257.5" y="-63.5" font-family="Verdana" font-size="10.00">assert.h</text>
</g>
<!-- Node1&#45;&gt;Node7 -->
<g id="edge6" class="edge"><title>Node1&#45;&gt;Node7</title>
<path fill="none" stroke="midnightblue" d="M206.402,-112.498C217.164,-102.915 229.953,-91.5281 240.044,-82.5428"/>
<polygon fill="midnightblue" stroke="midnightblue" points="242.642,-84.9165 247.783,-75.6525 237.987,-79.6885 242.642,-84.9165"/>
</g>
<!-- Node3 -->
<g id="node3" class="node"><title>Node3</title>
<polygon fill="white" stroke="#bfbfbf" points="0,-0.5 0,-19.5 53,-19.5 53,-0.5 0,-0.5"/>
<text text-anchor="middle" x="26.5" y="-7.5" font-family="Verdana" font-size="10.00">stdint.h</text>
</g>
<!-- Node2&#45;&gt;Node3 -->
<g id="edge2" class="edge"><title>Node2&#45;&gt;Node3</title>
<path fill="none" stroke="midnightblue" d="M82.7353,-56.324C72.7339,-48.2631 57.6135,-36.0765 45.5695,-26.3695"/>
<polygon fill="midnightblue" stroke="midnightblue" points="47.4429,-23.3841 37.4606,-19.8339 43.0502,-28.8343 47.4429,-23.3841"/>
</g>
<!-- Node4 -->
<g id="node4" class="node"><title>Node4</title>
<polygon fill="white" stroke="#bfbfbf" points="71.5,-0.5 71.5,-19.5 115.5,-19.5 115.5,-0.5 71.5,-0.5"/>
<text text-anchor="middle" x="93.5" y="-7.5" font-family="Verdana" font-size="10.00">string</text>
</g>
<!-- Node2&#45;&gt;Node4 -->
<g id="edge3" class="edge"><title>Node2&#45;&gt;Node4</title>
<path fill="none" stroke="midnightblue" d="M93.5,-56.083C93.5,-49.0059 93.5,-38.8611 93.5,-29.9865"/>
<polygon fill="midnightblue" stroke="midnightblue" points="97.0001,-29.751 93.5,-19.7511 90.0001,-29.7511 97.0001,-29.751"/>
</g>
<!-- Node5 -->
<g id="node5" class="node"><title>Node5</title>
<polygon fill="white" stroke="#bfbfbf" points="133.5,-0.5 133.5,-19.5 187.5,-19.5 187.5,-0.5 133.5,-0.5"/>
<text text-anchor="middle" x="160.5" y="-7.5" font-family="Verdana" font-size="10.00">fstream</text>
</g>
<!-- Node2&#45;&gt;Node5 -->
<g id="edge4" class="edge"><title>Node2&#45;&gt;Node5</title>
<path fill="none" stroke="midnightblue" d="M104.265,-56.324C114.266,-48.2631 129.387,-36.0765 141.43,-26.3695"/>
<polygon fill="midnightblue" stroke="midnightblue" points="143.95,-28.8343 149.539,-19.8339 139.557,-23.3841 143.95,-28.8343"/>
</g>
</g>
</svg>
