<?xml version="1.0" encoding="UTF-8" standalone="no"?>
<!DOCTYPE svg PUBLIC "-//W3C//DTD SVG 1.1//EN"
 "http://www.w3.org/Graphics/SVG/1.1/DTD/svg11.dtd">
<!-- Generated by graphviz version 2.38.0 (20140413.2041)
 -->
<!-- Title: /home/dawagner/dev/parameter&#45;framework/parameter/BitParameterType.h Pages: 1 -->
<svg width="487pt" height="274pt"
 viewBox="0.00 0.00 486.75 274.00" xmlns="http://www.w3.org/2000/svg" xmlns:xlink="http://www.w3.org/1999/xlink">
<g id="graph0" class="graph" transform="scale(1 1) rotate(0) translate(4 270)">
<title>/home/dawagner/dev/parameter&#45;framework/parameter/BitParameterType.h</title>
<polygon fill="white" stroke="none" points="-4,4 -4,-270 482.747,-270 482.747,4 -4,4"/>
<!-- Node1 -->
<g id="node1" class="node"><title>Node1</title>
<polygon fill="#bfbfbf" stroke="black" points="14.5,-224.5 14.5,-265.5 181.5,-265.5 181.5,-224.5 14.5,-224.5"/>
<text text-anchor="start" x="22.5" y="-253.5" font-family="Verdana" font-size="10.00">/home/dawagner/dev</text>
<text text-anchor="start" x="22.5" y="-242.5" font-family="Verdana" font-size="10.00">/parameter&#45;framework</text>
<text text-anchor="middle" x="98" y="-231.5" font-family="Verdana" font-size="10.00">/parameter/BitParameterType.h</text>
</g>
<!-- Node2 -->
<g id="node2" class="node"><title>Node2</title>
<polygon fill="white" stroke="#bfbfbf" points="248.5,-0.5 248.5,-19.5 301.5,-19.5 301.5,-0.5 248.5,-0.5"/>
<text text-anchor="middle" x="275" y="-7.5" font-family="Verdana" font-size="10.00">stdint.h</text>
</g>
<!-- Node1&#45;&gt;Node2 -->
<g id="edge1" class="edge"><title>Node1&#45;&gt;Node2</title>
<path fill="none" stroke="midnightblue" d="M181.584,-232.863C270.857,-216.018 408.1,-174.755 472,-76 509.7,-17.7357 379.035,-10.3563 312.102,-10.2697"/>
<polygon fill="midnightblue" stroke="midnightblue" points="311.928,-6.77027 301.942,-10.3117 311.957,-13.7702 311.928,-6.77027"/>
</g>
<!-- Node3 -->
<g id="node3" class="node"><title>Node3</title>
<g id="a_node3"><a xlink:href="TypeElement_8h.html" target="_top" xlink:title="TypeElement.h">
<polygon fill="white" stroke="black" points="55,-168.5 55,-187.5 141,-187.5 141,-168.5 55,-168.5"/>
<text text-anchor="middle" x="98" y="-175.5" font-family="Verdana" font-size="10.00">TypeElement.h</text>
</a>
</g>
</g>
<!-- Node1&#45;&gt;Node3 -->
<g id="edge2" class="edge"><title>Node1&#45;&gt;Node3</title>
<path fill="none" stroke="midnightblue" d="M98,-224.498C98,-216.065 98,-206.235 98,-197.874"/>
<polygon fill="midnightblue" stroke="midnightblue" points="101.5,-197.652 98,-187.652 94.5001,-197.653 101.5,-197.652"/>
</g>
<!-- Node5 -->
<g id="node5" class="node"><title>Node5</title>
<polygon fill="white" stroke="#bfbfbf" points="0,-0.5 0,-19.5 44,-19.5 44,-0.5 0,-0.5"/>
<text text-anchor="middle" x="22" y="-7.5" font-family="Verdana" font-size="10.00">string</text>
</g>
<!-- Node1&#45;&gt;Node5 -->
<g id="edge15" class="edge"><title>Node1&#45;&gt;Node5</title>
<path fill="none" stroke="midnightblue" d="M73.9868,-224.303C63.6762,-214.496 52.5205,-201.794 46,-188 20.8675,-134.833 19.8002,-63.3057 20.9357,-29.7963"/>
<polygon fill="midnightblue" stroke="midnightblue" points="24.4404,-29.7687 21.3933,-19.6215 17.4474,-29.4541 24.4404,-29.7687"/>
</g>
<!-- Node4 -->
<g id="node4" class="node"><title>Node4</title>
<g id="a_node4"><a xlink:href="Element_8h.html" target="_top" xlink:title="Element.h">
<polygon fill="white" stroke="black" points="128.5,-112.5 128.5,-131.5 193.5,-131.5 193.5,-112.5 128.5,-112.5"/>
<text text-anchor="middle" x="161" y="-119.5" font-family="Verdana" font-size="10.00">Element.h</text>
</a>
</g>
</g>
<!-- Node3&#45;&gt;Node4 -->
<g id="edge3" class="edge"><title>Node3&#45;&gt;Node4</title>
<path fill="none" stroke="midnightblue" d="M108.122,-168.324C117.526,-160.263 131.744,-148.077 143.069,-138.369"/>
<polygon fill="midnightblue" stroke="midnightblue" points="145.379,-140.999 150.694,-131.834 140.823,-135.684 145.379,-140.999"/>
</g>
<!-- Node3&#45;&gt;Node5 -->
<g id="edge14" class="edge"><title>Node3&#45;&gt;Node5</title>
<path fill="none" stroke="midnightblue" d="M93.9139,-168.075C81.8473,-141.719 46.2092,-63.878 30.0856,-28.6608"/>
<polygon fill="midnightblue" stroke="midnightblue" points="33.2679,-27.2035 25.9227,-19.5681 26.9032,-30.1175 33.2679,-27.2035"/>
</g>
<!-- Node4&#45;&gt;Node2 -->
<g id="edge6" class="edge"><title>Node4&#45;&gt;Node2</title>
<path fill="none" stroke="midnightblue" d="M193.889,-112.905C214.464,-106.231 240.008,-94.7416 256,-76 267.08,-63.0151 271.703,-43.8517 273.63,-29.6944"/>
<polygon fill="midnightblue" stroke="midnightblue" points="277.124,-29.934 274.669,-19.6275 270.161,-29.2155 277.124,-29.934"/>
</g>
<!-- Node4&#45;&gt;Node5 -->
<g id="edge4" class="edge"><title>Node4&#45;&gt;Node5</title>
<path fill="none" stroke="midnightblue" d="M146.236,-112.381C131.917,-103.791 109.807,-89.9103 92,-76 72.3347,-60.6385 51.6036,-40.8793 37.8535,-27.1991"/>
<polygon fill="midnightblue" stroke="midnightblue" points="40.1569,-24.5516 30.6251,-19.926 35.1919,-29.4861 40.1569,-24.5516"/>
</g>
<!-- Node6 -->
<g id="node6" class="node"><title>Node6</title>
<polygon fill="white" stroke="#bfbfbf" points="116.5,-0.5 116.5,-19.5 163.5,-19.5 163.5,-0.5 116.5,-0.5"/>
<text text-anchor="middle" x="140" y="-7.5" font-family="Verdana" font-size="10.00">vector</text>
</g>
<!-- Node4&#45;&gt;Node6 -->
<g id="edge5" class="edge"><title>Node4&#45;&gt;Node6</title>
<path fill="none" stroke="midnightblue" d="M140.153,-112.427C125.422,-105.129 106.795,-93.0905 98,-76 88.7667,-58.0579 104.823,-38.7962 119.673,-25.9386"/>
<polygon fill="midnightblue" stroke="midnightblue" points="122.056,-28.5128 127.631,-19.5033 117.655,-23.0698 122.056,-28.5128"/>
</g>
<!-- Node7 -->
<g id="node7" class="node"><title>Node7</title>
<polygon fill="white" stroke="#bfbfbf" points="107,-56.5 107,-75.5 137,-75.5 137,-56.5 107,-56.5"/>
<text text-anchor="middle" x="122" y="-63.5" font-family="Verdana" font-size="10.00">list</text>
</g>
<!-- Node4&#45;&gt;Node7 -->
<g id="edge7" class="edge"><title>Node4&#45;&gt;Node7</title>
<path fill="none" stroke="midnightblue" d="M154.56,-112.083C149.051,-104.455 140.969,-93.2645 134.235,-83.9408"/>
<polygon fill="midnightblue" stroke="midnightblue" points="137.013,-81.8087 128.32,-75.7511 131.338,-85.9071 137.013,-81.8087"/>
</g>
<!-- Node8 -->
<g id="node8" class="node"><title>Node8</title>
<polygon fill="white" stroke="#bfbfbf" points="303,-56.5 303,-75.5 367,-75.5 367,-56.5 303,-56.5"/>
<text text-anchor="middle" x="335" y="-63.5" font-family="Verdana" font-size="10.00">XmlSink.h</text>
</g>
<!-- Node4&#45;&gt;Node8 -->
<g id="edge8" class="edge"><title>Node4&#45;&gt;Node8</title>
<path fill="none" stroke="midnightblue" d="M188.571,-112.444C218.097,-103.28 265.118,-88.6876 297.883,-78.5192"/>
<polygon fill="midnightblue" stroke="midnightblue" points="299.045,-81.8232 307.558,-75.5164 296.97,-75.1378 299.045,-81.8232"/>
</g>
<!-- Node9 -->
<g id="node9" class="node"><title>Node9</title>
<polygon fill="white" stroke="#bfbfbf" points="385.5,-56.5 385.5,-75.5 462.5,-75.5 462.5,-56.5 385.5,-56.5"/>
<text text-anchor="middle" x="424" y="-63.5" font-family="Verdana" font-size="10.00">XmlSource.h</text>
</g>
<!-- Node4&#45;&gt;Node9 -->
<g id="edge9" class="edge"><title>Node4&#45;&gt;Node9</title>
<path fill="none" stroke="midnightblue" d="M193.513,-114.324C239.089,-104.966 322.321,-87.8771 375.308,-76.9977"/>
<polygon fill="midnightblue" stroke="midnightblue" points="376.066,-80.4151 385.158,-74.9753 374.658,-73.5581 376.066,-80.4151"/>
</g>
<!-- Node10 -->
<g id="node10" class="node"><title>Node10</title>
<g id="a_node10"><a xlink:href="PathNavigator_8h.html" target="_top" xlink:title="PathNavigator.h">
<polygon fill="white" stroke="black" points="155,-56.5 155,-75.5 247,-75.5 247,-56.5 155,-56.5"/>
<text text-anchor="middle" x="201" y="-63.5" font-family="Verdana" font-size="10.00">PathNavigator.h</text>
</a>
</g>
</g>
<!-- Node4&#45;&gt;Node10 -->
<g id="edge10" class="edge"><title>Node4&#45;&gt;Node10</title>
<path fill="none" stroke="midnightblue" d="M167.605,-112.083C173.255,-104.455 181.545,-93.2645 188.451,-83.9408"/>
<polygon fill="midnightblue" stroke="midnightblue" points="191.378,-85.87 194.518,-75.7511 185.753,-81.7034 191.378,-85.87"/>
</g>
<!-- Node10&#45;&gt;Node2 -->
<g id="edge13" class="edge"><title>Node10&#45;&gt;Node2</title>
<path fill="none" stroke="midnightblue" d="M212.889,-56.324C224.15,-48.1066 241.287,-35.6017 254.709,-25.8069"/>
<polygon fill="midnightblue" stroke="midnightblue" points="256.88,-28.5559 262.894,-19.8339 252.753,-22.9014 256.88,-28.5559"/>
</g>
<!-- Node10&#45;&gt;Node5 -->
<g id="edge12" class="edge"><title>Node10&#45;&gt;Node5</title>
<path fill="none" stroke="midnightblue" d="M172.637,-56.4435C140.296,-46.6872 87.5551,-30.7764 53.834,-20.6036"/>
<polygon fill="midnightblue" stroke="midnightblue" points="54.6079,-17.1813 44.0232,-17.6439 52.5861,-23.883 54.6079,-17.1813"/>
</g>
<!-- Node10&#45;&gt;Node6 -->
<g id="edge11" class="edge"><title>Node10&#45;&gt;Node6</title>
<path fill="none" stroke="midnightblue" d="M191.199,-56.324C182.182,-48.3414 168.594,-36.3128 157.682,-26.6529"/>
<polygon fill="midnightblue" stroke="midnightblue" points="159.787,-23.8416 149.979,-19.8339 155.147,-29.083 159.787,-23.8416"/>
</g>
</g>
</svg>
