<?xml version="1.0" encoding="UTF-8" standalone="no"?>
<!DOCTYPE svg PUBLIC "-//W3C//DTD SVG 1.1//EN"
 "http://www.w3.org/Graphics/SVG/1.1/DTD/svg11.dtd">
<!-- Generated by graphviz version 2.38.0 (20140413.2041)
 -->
<!-- Title: parameter/BitParameterBlockType.cpp Pages: 1 -->
<svg width="870pt" height="487pt"
 viewBox="0.00 0.00 869.50 487.00" xmlns="http://www.w3.org/2000/svg" xmlns:xlink="http://www.w3.org/1999/xlink">
<g id="graph0" class="graph" transform="scale(1 1) rotate(0) translate(4 483)">
<title>parameter/BitParameterBlockType.cpp</title>
<polygon fill="white" stroke="none" points="-4,4 -4,-483 865.5,-483 865.5,4 -4,4"/>
<!-- Node1 -->
<g id="node1" class="node"><title>Node1</title>
<polygon fill="#bfbfbf" stroke="black" points="198,-448.5 198,-478.5 357,-478.5 357,-448.5 198,-448.5"/>
<text text-anchor="start" x="206" y="-466.5" font-family="Verdana" font-size="10.00">parameter/BitParameterBlock</text>
<text text-anchor="middle" x="277.5" y="-455.5" font-family="Verdana" font-size="10.00">Type.cpp</text>
</g>
<!-- Node2 -->
<g id="node2" class="node"><title>Node2</title>
<g id="a_node2"><a xlink:href="BitParameterBlockType_8h.html" target="_top" xlink:title="BitParameterBlockType.h">
<polygon fill="white" stroke="black" points="0,-280.5 0,-299.5 135,-299.5 135,-280.5 0,-280.5"/>
<text text-anchor="middle" x="67.5" y="-287.5" font-family="Verdana" font-size="10.00">BitParameterBlockType.h</text>
</a>
</g>
</g>
<!-- Node1&#45;&gt;Node2 -->
<g id="edge1" class="edge"><title>Node1&#45;&gt;Node2</title>
<path fill="none" stroke="midnightblue" d="M258.547,-448.359C245.258,-438.357 227.145,-424.547 211.5,-412 165.299,-374.945 112.283,-329.66 85.2988,-306.406"/>
<polygon fill="midnightblue" stroke="midnightblue" points="87.3509,-303.554 77.4941,-299.669 82.7767,-308.853 87.3509,-303.554"/>
</g>
<!-- Node14 -->
<g id="node14" class="node"><title>Node14</title>
<g id="a_node14"><a xlink:href="BitParameterBlock_8h.html" target="_top" xlink:title="BitParameterBlock.h">
<polygon fill="white" stroke="black" points="220.5,-392.5 220.5,-411.5 334.5,-411.5 334.5,-392.5 220.5,-392.5"/>
<text text-anchor="middle" x="277.5" y="-399.5" font-family="Verdana" font-size="10.00">BitParameterBlock.h</text>
</a>
</g>
</g>
<!-- Node1&#45;&gt;Node14 -->
<g id="edge23" class="edge"><title>Node1&#45;&gt;Node14</title>
<path fill="none" stroke="midnightblue" d="M277.5,-448.399C277.5,-440.466 277.5,-430.458 277.5,-421.858"/>
<polygon fill="midnightblue" stroke="midnightblue" points="281,-421.658 277.5,-411.658 274,-421.658 281,-421.658"/>
</g>
<!-- Node18 -->
<g id="node18" class="node"><title>Node18</title>
<g id="a_node18"><a xlink:href="Utility_8h.html" target="_top" xlink:title="Utility.h">
<polygon fill="white" stroke="black" points="696,-168.5 696,-187.5 747,-187.5 747,-168.5 696,-168.5"/>
<text text-anchor="middle" x="721.5" y="-175.5" font-family="Verdana" font-size="10.00">Utility.h</text>
</a>
</g>
</g>
<!-- Node1&#45;&gt;Node18 -->
<g id="edge33" class="edge"><title>Node1&#45;&gt;Node18</title>
<path fill="none" stroke="midnightblue" d="M357.102,-457.58C482.394,-447.627 711.5,-419.512 711.5,-347 711.5,-347 711.5,-347 711.5,-289 711.5,-256.816 715.798,-219.552 718.759,-197.702"/>
<polygon fill="midnightblue" stroke="midnightblue" points="722.262,-197.925 720.193,-187.534 715.331,-196.947 722.262,-197.925"/>
</g>
<!-- Node3 -->
<g id="node3" class="node"><title>Node3</title>
<g id="a_node3"><a xlink:href="TypeElement_8h.html" target="_top" xlink:title="TypeElement.h">
<polygon fill="white" stroke="black" points="174.5,-224.5 174.5,-243.5 260.5,-243.5 260.5,-224.5 174.5,-224.5"/>
<text text-anchor="middle" x="217.5" y="-231.5" font-family="Verdana" font-size="10.00">TypeElement.h</text>
</a>
</g>
</g>
<!-- Node2&#45;&gt;Node3 -->
<g id="edge2" class="edge"><title>Node2&#45;&gt;Node3</title>
<path fill="none" stroke="midnightblue" d="M91.2679,-280.444C116.393,-271.399 156.211,-257.064 184.4,-246.916"/>
<polygon fill="midnightblue" stroke="midnightblue" points="185.62,-250.197 193.843,-243.516 183.249,-243.611 185.62,-250.197"/>
</g>
<!-- Node5 -->
<g id="node5" class="node"><title>Node5</title>
<polygon fill="white" stroke="#bfbfbf" points="238.5,-0.5 238.5,-19.5 282.5,-19.5 282.5,-0.5 238.5,-0.5"/>
<text text-anchor="middle" x="260.5" y="-7.5" font-family="Verdana" font-size="10.00">string</text>
</g>
<!-- Node2&#45;&gt;Node5 -->
<g id="edge22" class="edge"><title>Node2&#45;&gt;Node5</title>
<path fill="none" stroke="midnightblue" d="M70.3322,-280.268C76.0643,-261.794 88.5,-217.301 88.5,-179 88.5,-179 88.5,-179 88.5,-121 88.5,-55.3128 178.633,-27.0841 228.405,-16.5036"/>
<polygon fill="midnightblue" stroke="midnightblue" points="229.249,-19.9041 238.366,-14.5066 227.873,-13.0407 229.249,-19.9041"/>
</g>
<!-- Node4 -->
<g id="node4" class="node"><title>Node4</title>
<g id="a_node4"><a xlink:href="Element_8h.html" target="_top" xlink:title="Element.h">
<polygon fill="white" stroke="black" points="405,-168.5 405,-187.5 470,-187.5 470,-168.5 405,-168.5"/>
<text text-anchor="middle" x="437.5" y="-175.5" font-family="Verdana" font-size="10.00">Element.h</text>
</a>
</g>
</g>
<!-- Node3&#45;&gt;Node4 -->
<g id="edge3" class="edge"><title>Node3&#45;&gt;Node4</title>
<path fill="none" stroke="midnightblue" d="M252.36,-224.444C291.088,-214.938 353.619,-199.589 395.139,-189.398"/>
<polygon fill="midnightblue" stroke="midnightblue" points="396.078,-192.771 404.955,-186.988 394.409,-185.973 396.078,-192.771"/>
</g>
<!-- Node3&#45;&gt;Node5 -->
<g id="edge21" class="edge"><title>Node3&#45;&gt;Node5</title>
<path fill="none" stroke="midnightblue" d="M214.391,-224.369C205.351,-197.779 181.383,-115.327 208.5,-56 214.277,-43.3602 225.552,-32.911 236.131,-25.2737"/>
<polygon fill="midnightblue" stroke="midnightblue" points="238.349,-28.0009 244.717,-19.5333 234.458,-22.1817 238.349,-28.0009"/>
</g>
<!-- Node4&#45;&gt;Node5 -->
<g id="edge4" class="edge"><title>Node4&#45;&gt;Node5</title>
<path fill="none" stroke="midnightblue" d="M404.933,-175.976C371.519,-173.131 320.328,-163.485 290.5,-132 263.919,-103.943 259.824,-56.152 259.778,-29.8102"/>
<polygon fill="midnightblue" stroke="midnightblue" points="263.281,-29.7209 259.964,-19.6584 256.282,-29.5926 263.281,-29.7209"/>
</g>
<!-- Node6 -->
<g id="node6" class="node"><title>Node6</title>
<polygon fill="white" stroke="#bfbfbf" points="538,-56.5 538,-75.5 585,-75.5 585,-56.5 538,-56.5"/>
<text text-anchor="middle" x="561.5" y="-63.5" font-family="Verdana" font-size="10.00">vector</text>
</g>
<!-- Node4&#45;&gt;Node6 -->
<g id="edge5" class="edge"><title>Node4&#45;&gt;Node6</title>
<path fill="none" stroke="midnightblue" d="M446.248,-168.384C459.172,-155.741 484.242,-131.547 506.5,-112 518.203,-101.722 531.74,-90.6369 542.455,-82.0406"/>
<polygon fill="midnightblue" stroke="midnightblue" points="544.717,-84.7135 550.355,-75.7431 540.354,-79.2399 544.717,-84.7135"/>
</g>
<!-- Node7 -->
<g id="node7" class="node"><title>Node7</title>
<polygon fill="white" stroke="#bfbfbf" points="663,-0.5 663,-19.5 716,-19.5 716,-0.5 663,-0.5"/>
<text text-anchor="middle" x="689.5" y="-7.5" font-family="Verdana" font-size="10.00">stdint.h</text>
</g>
<!-- Node4&#45;&gt;Node7 -->
<g id="edge6" class="edge"><title>Node4&#45;&gt;Node7</title>
<path fill="none" stroke="midnightblue" d="M470.299,-175.984C508.733,-173.274 572.719,-163.871 616.5,-132 652.412,-105.857 674.041,-56.1696 683.627,-29.3175"/>
<polygon fill="midnightblue" stroke="midnightblue" points="687.012,-30.2347 686.91,-19.6403 680.383,-27.9862 687.012,-30.2347"/>
</g>
<!-- Node8 -->
<g id="node8" class="node"><title>Node8</title>
<polygon fill="white" stroke="#bfbfbf" points="663.5,-112.5 663.5,-131.5 693.5,-131.5 693.5,-112.5 663.5,-112.5"/>
<text text-anchor="middle" x="678.5" y="-119.5" font-family="Verdana" font-size="10.00">list</text>
</g>
<!-- Node4&#45;&gt;Node8 -->
<g id="edge7" class="edge"><title>Node4&#45;&gt;Node8</title>
<path fill="none" stroke="midnightblue" d="M470.041,-171.055C511.841,-163.199 586.513,-148.422 649.5,-132 650.763,-131.671 652.052,-131.321 653.351,-130.958"/>
<polygon fill="midnightblue" stroke="midnightblue" points="654.633,-134.229 663.224,-128.029 652.642,-127.518 654.633,-134.229"/>
</g>
<!-- Node9 -->
<g id="node9" class="node"><title>Node9</title>
<g id="a_node9"><a xlink:href="XmlSink_8h.html" target="_top" xlink:title="XmlSink.h">
<polygon fill="white" stroke="black" points="395.5,-112.5 395.5,-131.5 459.5,-131.5 459.5,-112.5 395.5,-112.5"/>
<text text-anchor="middle" x="427.5" y="-119.5" font-family="Verdana" font-size="10.00">XmlSink.h</text>
</a>
</g>
</g>
<!-- Node4&#45;&gt;Node9 -->
<g id="edge8" class="edge"><title>Node4&#45;&gt;Node9</title>
<path fill="none" stroke="midnightblue" d="M435.849,-168.083C434.524,-160.927 432.618,-150.635 430.961,-141.691"/>
<polygon fill="midnightblue" stroke="midnightblue" points="434.383,-140.947 429.121,-131.751 427.5,-142.221 434.383,-140.947"/>
</g>
<!-- Node12 -->
<g id="node12" class="node"><title>Node12</title>
<g id="a_node12"><a xlink:href="XmlSource_8h.html" target="_top" xlink:title="XmlSource.h">
<polygon fill="white" stroke="black" points="300,-112.5 300,-131.5 377,-131.5 377,-112.5 300,-112.5"/>
<text text-anchor="middle" x="338.5" y="-119.5" font-family="Verdana" font-size="10.00">XmlSource.h</text>
</a>
</g>
</g>
<!-- Node4&#45;&gt;Node12 -->
<g id="edge14" class="edge"><title>Node4&#45;&gt;Node12</title>
<path fill="none" stroke="midnightblue" d="M421.594,-168.324C405.862,-159.743 381.558,-146.486 363.291,-136.522"/>
<polygon fill="midnightblue" stroke="midnightblue" points="364.822,-133.37 354.367,-131.655 361.47,-139.516 364.822,-133.37"/>
</g>
<!-- Node13 -->
<g id="node13" class="node"><title>Node13</title>
<g id="a_node13"><a xlink:href="PathNavigator_8h.html" target="_top" xlink:title="PathNavigator.h">
<polygon fill="white" stroke="black" points="515.5,-112.5 515.5,-131.5 607.5,-131.5 607.5,-112.5 515.5,-112.5"/>
<text text-anchor="middle" x="561.5" y="-119.5" font-family="Verdana" font-size="10.00">PathNavigator.h</text>
</a>
</g>
</g>
<!-- Node4&#45;&gt;Node13 -->
<g id="edge17" class="edge"><title>Node4&#45;&gt;Node13</title>
<path fill="none" stroke="midnightblue" d="M457.148,-168.444C477.465,-159.596 509.403,-145.687 532.598,-135.586"/>
<polygon fill="midnightblue" stroke="midnightblue" points="534.173,-138.718 541.944,-131.516 531.378,-132.3 534.173,-138.718"/>
</g>
<!-- Node10 -->
<g id="node10" class="node"><title>Node10</title>
<g id="a_node10"><a xlink:href="XmlElement_8h.html" target="_top" xlink:title="XmlElement.h">
<polygon fill="white" stroke="black" points="437,-56.5 437,-75.5 520,-75.5 520,-56.5 437,-56.5"/>
<text text-anchor="middle" x="478.5" y="-63.5" font-family="Verdana" font-size="10.00">XmlElement.h</text>
</a>
</g>
</g>
<!-- Node9&#45;&gt;Node10 -->
<g id="edge9" class="edge"><title>Node9&#45;&gt;Node10</title>
<path fill="none" stroke="midnightblue" d="M435.922,-112.083C443.348,-104.22 454.352,-92.5688 463.312,-83.0813"/>
<polygon fill="midnightblue" stroke="midnightblue" points="465.913,-85.4244 470.235,-75.7511 460.824,-80.618 465.913,-85.4244"/>
</g>
<!-- Node11 -->
<g id="node11" class="node"><title>Node11</title>
<g id="a_node11"><a xlink:href="XmlSerializingContext_8h.html" target="_top" xlink:title="XmlSerializingContext.h">
<polygon fill="white" stroke="black" points="288.5,-56.5 288.5,-75.5 418.5,-75.5 418.5,-56.5 288.5,-56.5"/>
<text text-anchor="middle" x="353.5" y="-63.5" font-family="Verdana" font-size="10.00">XmlSerializingContext.h</text>
</a>
</g>
</g>
<!-- Node9&#45;&gt;Node11 -->
<g id="edge12" class="edge"><title>Node9&#45;&gt;Node11</title>
<path fill="none" stroke="midnightblue" d="M415.611,-112.324C404.35,-104.107 387.213,-91.6017 373.791,-81.8069"/>
<polygon fill="midnightblue" stroke="midnightblue" points="375.747,-78.9014 365.606,-75.8339 371.62,-84.5559 375.747,-78.9014"/>
</g>
<!-- Node10&#45;&gt;Node5 -->
<g id="edge11" class="edge"><title>Node10&#45;&gt;Node5</title>
<path fill="none" stroke="midnightblue" d="M443.957,-56.4435C402.32,-46.1296 332.915,-28.9378 292.465,-18.9179"/>
<polygon fill="midnightblue" stroke="midnightblue" points="293.145,-15.4808 282.597,-16.4736 291.462,-22.2754 293.145,-15.4808"/>
</g>
<!-- Node10&#45;&gt;Node7 -->
<g id="edge10" class="edge"><title>Node10&#45;&gt;Node7</title>
<path fill="none" stroke="midnightblue" d="M511.934,-56.4435C550.417,-46.5947 613.406,-30.4742 653.099,-20.3159"/>
<polygon fill="midnightblue" stroke="midnightblue" points="654.084,-23.6768 662.904,-17.8067 652.348,-16.8953 654.084,-23.6768"/>
</g>
<!-- Node11&#45;&gt;Node5 -->
<g id="edge13" class="edge"><title>Node11&#45;&gt;Node5</title>
<path fill="none" stroke="midnightblue" d="M338.558,-56.324C323.915,-47.8215 301.366,-34.7288 284.262,-24.7975"/>
<polygon fill="midnightblue" stroke="midnightblue" points="285.81,-21.6491 275.405,-19.6545 282.295,-27.7027 285.81,-21.6491"/>
</g>
<!-- Node12&#45;&gt;Node10 -->
<g id="edge15" class="edge"><title>Node12&#45;&gt;Node10</title>
<path fill="none" stroke="midnightblue" d="M360.683,-112.444C383.928,-103.478 420.649,-89.314 446.915,-79.1827"/>
<polygon fill="midnightblue" stroke="midnightblue" points="448.35,-82.3807 456.42,-75.5164 445.831,-75.8497 448.35,-82.3807"/>
</g>
<!-- Node12&#45;&gt;Node11 -->
<g id="edge16" class="edge"><title>Node12&#45;&gt;Node11</title>
<path fill="none" stroke="midnightblue" d="M340.977,-112.083C342.986,-104.849 345.886,-94.4087 348.39,-85.3968"/>
<polygon fill="midnightblue" stroke="midnightblue" points="351.765,-86.323 351.069,-75.7511 345.02,-84.4495 351.765,-86.323"/>
</g>
<!-- Node13&#45;&gt;Node5 -->
<g id="edge19" class="edge"><title>Node13&#45;&gt;Node5</title>
<path fill="none" stroke="midnightblue" d="M571.752,-112.167C586.035,-98.8183 608.564,-73.2371 593.5,-56 554.623,-11.5158 368.822,-9.25294 292.915,-10.2478"/>
<polygon fill="midnightblue" stroke="midnightblue" points="292.487,-6.75413 282.544,-10.4136 292.599,-13.7532 292.487,-6.75413"/>
</g>
<!-- Node13&#45;&gt;Node6 -->
<g id="edge18" class="edge"><title>Node13&#45;&gt;Node6</title>
<path fill="none" stroke="midnightblue" d="M561.5,-112.083C561.5,-105.006 561.5,-94.8611 561.5,-85.9865"/>
<polygon fill="midnightblue" stroke="midnightblue" points="565,-85.751 561.5,-75.7511 558,-85.7511 565,-85.751"/>
</g>
<!-- Node13&#45;&gt;Node7 -->
<g id="edge20" class="edge"><title>Node13&#45;&gt;Node7</title>
<path fill="none" stroke="midnightblue" d="M575.766,-112.499C589.568,-103.997 610.793,-90.1782 627.5,-76 645.421,-60.7911 663.731,-40.9602 675.76,-27.2214"/>
<polygon fill="midnightblue" stroke="midnightblue" points="678.496,-29.4079 682.378,-19.55 673.196,-24.8353 678.496,-29.4079"/>
</g>
<!-- Node15 -->
<g id="node15" class="node"><title>Node15</title>
<g id="a_node15"><a xlink:href="InstanceConfigurableElement_8h.html" target="_top" xlink:title="InstanceConfigurableElement.h">
<polygon fill="white" stroke="black" points="194.5,-336.5 194.5,-355.5 360.5,-355.5 360.5,-336.5 194.5,-336.5"/>
<text text-anchor="middle" x="277.5" y="-343.5" font-family="Verdana" font-size="10.00">InstanceConfigurableElement.h</text>
</a>
</g>
</g>
<!-- Node14&#45;&gt;Node15 -->
<g id="edge24" class="edge"><title>Node14&#45;&gt;Node15</title>
<path fill="none" stroke="midnightblue" d="M277.5,-392.083C277.5,-385.006 277.5,-374.861 277.5,-365.986"/>
<polygon fill="midnightblue" stroke="midnightblue" points="281,-365.751 277.5,-355.751 274,-365.751 281,-365.751"/>
</g>
<!-- Node15&#45;&gt;Node3 -->
<g id="edge30" class="edge"><title>Node15&#45;&gt;Node3</title>
<path fill="none" stroke="midnightblue" d="M267.315,-336.346C258.032,-327.941 244.573,-314.376 236.5,-300 228.405,-285.584 223.47,-267.392 220.666,-253.923"/>
<polygon fill="midnightblue" stroke="midnightblue" points="224.071,-253.09 218.79,-243.906 217.191,-254.379 224.071,-253.09"/>
</g>
<!-- Node15&#45;&gt;Node5 -->
<g id="edge32" class="edge"><title>Node15&#45;&gt;Node5</title>
<path fill="none" stroke="midnightblue" d="M266.793,-336.205C255.981,-327.255 238.871,-312.903 224.5,-300 176.891,-257.254 146.5,-242.983 146.5,-179 146.5,-179 146.5,-179 146.5,-121 146.5,-74.1149 197.052,-40.8944 230.829,-23.9302"/>
<polygon fill="midnightblue" stroke="midnightblue" points="232.368,-27.0742 239.855,-19.5787 229.328,-20.7687 232.368,-27.0742"/>
</g>
<!-- Node15&#45;&gt;Node8 -->
<g id="edge31" class="edge"><title>Node15&#45;&gt;Node8</title>
<path fill="none" stroke="midnightblue" d="M326.267,-336.466C359.576,-329.47 404.098,-317.782 440.5,-300 532.552,-255.032 625.272,-173.055 662.025,-138.752"/>
<polygon fill="midnightblue" stroke="midnightblue" points="664.5,-141.228 669.379,-131.824 659.7,-136.133 664.5,-141.228"/>
</g>
<!-- Node16 -->
<g id="node16" class="node"><title>Node16</title>
<g id="a_node16"><a xlink:href="ConfigurableElementWithMapping_8h.html" target="_top" xlink:title="ConfigurableElementWithMapping.h">
<polygon fill="white" stroke="black" points="245.5,-280.5 245.5,-299.5 431.5,-299.5 431.5,-280.5 245.5,-280.5"/>
<text text-anchor="middle" x="338.5" y="-287.5" font-family="Verdana" font-size="10.00">ConfigurableElementWithMapping.h</text>
</a>
</g>
</g>
<!-- Node15&#45;&gt;Node16 -->
<g id="edge25" class="edge"><title>Node15&#45;&gt;Node16</title>
<path fill="none" stroke="midnightblue" d="M287.301,-336.324C296.318,-328.341 309.906,-316.313 320.818,-306.653"/>
<polygon fill="midnightblue" stroke="midnightblue" points="323.353,-309.083 328.521,-299.834 318.713,-303.842 323.353,-309.083"/>
</g>
<!-- Node16&#45;&gt;Node5 -->
<g id="edge29" class="edge"><title>Node16&#45;&gt;Node5</title>
<path fill="none" stroke="midnightblue" d="M333.623,-280.452C317.955,-252.355 269.243,-159.846 257.5,-76 255.343,-60.5979 256.373,-42.9632 257.787,-29.9516"/>
<polygon fill="midnightblue" stroke="midnightblue" points="261.278,-30.2389 259.057,-19.8795 254.334,-29.3629 261.278,-30.2389"/>
</g>
<!-- Node17 -->
<g id="node17" class="node"><title>Node17</title>
<g id="a_node17"><a xlink:href="ConfigurableElement_8h.html" target="_top" xlink:title="ConfigurableElement.h">
<polygon fill="white" stroke="black" points="375,-224.5 375,-243.5 500,-243.5 500,-224.5 375,-224.5"/>
<text text-anchor="middle" x="437.5" y="-231.5" font-family="Verdana" font-size="10.00">ConfigurableElement.h</text>
</a>
</g>
</g>
<!-- Node16&#45;&gt;Node17 -->
<g id="edge26" class="edge"><title>Node16&#45;&gt;Node17</title>
<path fill="none" stroke="midnightblue" d="M354.406,-280.324C370.138,-271.743 394.442,-258.486 412.709,-248.522"/>
<polygon fill="midnightblue" stroke="midnightblue" points="414.53,-251.516 421.633,-243.655 411.178,-245.37 414.53,-251.516"/>
</g>
<!-- Node17&#45;&gt;Node4 -->
<g id="edge27" class="edge"><title>Node17&#45;&gt;Node4</title>
<path fill="none" stroke="midnightblue" d="M437.5,-224.083C437.5,-217.006 437.5,-206.861 437.5,-197.986"/>
<polygon fill="midnightblue" stroke="midnightblue" points="441,-197.751 437.5,-187.751 434,-197.751 441,-197.751"/>
</g>
<!-- Node17&#45;&gt;Node8 -->
<g id="edge28" class="edge"><title>Node17&#45;&gt;Node8</title>
<path fill="none" stroke="midnightblue" d="M456.411,-224.368C499.714,-204.604 606.026,-156.079 654.141,-134.118"/>
<polygon fill="midnightblue" stroke="midnightblue" points="655.837,-137.191 663.481,-129.855 652.931,-130.823 655.837,-137.191"/>
</g>
<!-- Node18&#45;&gt;Node5 -->
<g id="edge34" class="edge"><title>Node18&#45;&gt;Node5</title>
<path fill="none" stroke="midnightblue" d="M720.919,-168.103C719.631,-154.67 715.521,-128.98 702.5,-112 673.371,-74.0148 655.67,-71.8428 610.5,-56 498.468,-16.7064 355.489,-11.116 292.614,-10.7194"/>
<polygon fill="midnightblue" stroke="midnightblue" points="292.535,-7.21931 282.527,-10.6972 292.519,-14.2193 292.535,-7.21931"/>
</g>
<!-- Node18&#45;&gt;Node8 -->
<g id="edge35" class="edge"><title>Node18&#45;&gt;Node8</title>
<path fill="none" stroke="midnightblue" d="M714.399,-168.083C708.263,-160.377 699.23,-149.033 691.761,-139.653"/>
<polygon fill="midnightblue" stroke="midnightblue" points="694.436,-137.394 685.468,-131.751 688.96,-141.754 694.436,-137.394"/>
</g>
<!-- Node19 -->
<g id="node19" class="node"><title>Node19</title>
<polygon fill="white" stroke="#bfbfbf" points="823.5,-112.5 823.5,-131.5 861.5,-131.5 861.5,-112.5 823.5,-112.5"/>
<text text-anchor="middle" x="842.5" y="-119.5" font-family="Verdana" font-size="10.00">map</text>
</g>
<!-- Node18&#45;&gt;Node19 -->
<g id="edge36" class="edge"><title>Node18&#45;&gt;Node19</title>
<path fill="none" stroke="midnightblue" d="M740.673,-168.444C760.409,-159.636 791.385,-145.812 813.993,-135.722"/>
<polygon fill="midnightblue" stroke="midnightblue" points="815.711,-138.788 823.417,-131.516 812.859,-132.396 815.711,-138.788"/>
</g>
<!-- Node20 -->
<g id="node20" class="node"><title>Node20</title>
<polygon fill="white" stroke="#bfbfbf" points="749.5,-112.5 749.5,-131.5 805.5,-131.5 805.5,-112.5 749.5,-112.5"/>
<text text-anchor="middle" x="777.5" y="-119.5" font-family="Verdana" font-size="10.00">sstream</text>
</g>
<!-- Node18&#45;&gt;Node20 -->
<g id="edge37" class="edge"><title>Node18&#45;&gt;Node20</title>
<path fill="none" stroke="midnightblue" d="M730.497,-168.324C738.694,-160.42 751.006,-148.548 760.972,-138.938"/>
<polygon fill="midnightblue" stroke="midnightblue" points="763.57,-141.295 768.339,-131.834 758.711,-136.256 763.57,-141.295"/>
</g>
</g>
</svg>
