<?xml version="1.0" encoding="UTF-8" standalone="no"?>
<!DOCTYPE svg PUBLIC "-//W3C//DTD SVG 1.1//EN"
 "http://www.w3.org/Graphics/SVG/1.1/DTD/svg11.dtd">
<!-- Generated by graphviz version 2.38.0 (20140413.2041)
 -->
<!-- Title: parameter/BitParameterType.h Pages: 1 -->
<svg width="531pt" height="84pt"
 viewBox="0.00 0.00 530.50 84.00" xmlns="http://www.w3.org/2000/svg" xmlns:xlink="http://www.w3.org/1999/xlink">
<g id="graph0" class="graph" transform="scale(1 1) rotate(0) translate(4 80)">
<title>parameter/BitParameterType.h</title>
<polygon fill="white" stroke="none" points="-4,4 -4,-80 526.5,-80 526.5,4 -4,4"/>
<!-- Node1 -->
<g id="node1" class="node"><title>Node1</title>
<polygon fill="#bfbfbf" stroke="black" points="176.5,-56.5 176.5,-75.5 340.5,-75.5 340.5,-56.5 176.5,-56.5"/>
<text text-anchor="middle" x="258.5" y="-63.5" font-family="Verdana" font-size="10.00">parameter/BitParameterType.h</text>
</g>
<!-- Node2 -->
<g id="node2" class="node"><title>Node2</title>
<g id="a_node2"><a xlink:href="BitParameter_8cpp.html" target="_top" xlink:title="parameter/BitParameter.cpp">
<polygon fill="white" stroke="black" points="0,-0.5 0,-19.5 153,-19.5 153,-0.5 0,-0.5"/>
<text text-anchor="middle" x="76.5" y="-7.5" font-family="Verdana" font-size="10.00">parameter/BitParameter.cpp</text>
</a>
</g>
</g>
<!-- Node1&#45;&gt;Node2 -->
<g id="edge1" class="edge"><title>Node1&#45;&gt;Node2</title>
<path fill="none" stroke="midnightblue" d="M219.969,-53.5677C185.636,-43.381 136.167,-28.7034 105.204,-19.5164"/>
<polygon fill="midnightblue" stroke="midnightblue" points="219.079,-56.9544 229.662,-56.4435 221.07,-50.2436 219.079,-56.9544"/>
</g>
<!-- Node3 -->
<g id="node3" class="node"><title>Node3</title>
<g id="a_node3"><a xlink:href="BitParameterType_8cpp.html" target="_top" xlink:title="parameter/BitParameterType.cpp">
<polygon fill="white" stroke="black" points="171,-0.5 171,-19.5 346,-19.5 346,-0.5 171,-0.5"/>
<text text-anchor="middle" x="258.5" y="-7.5" font-family="Verdana" font-size="10.00">parameter/BitParameterType.cpp</text>
</a>
</g>
</g>
<!-- Node1&#45;&gt;Node3 -->
<g id="edge2" class="edge"><title>Node1&#45;&gt;Node3</title>
<path fill="none" stroke="midnightblue" d="M258.5,-45.8045C258.5,-36.9102 258.5,-26.7798 258.5,-19.7511"/>
<polygon fill="midnightblue" stroke="midnightblue" points="255,-46.083 258.5,-56.083 262,-46.083 255,-46.083"/>
</g>
<!-- Node4 -->
<g id="node4" class="node"><title>Node4</title>
<g id="a_node4"><a xlink:href="ParameterMgr_8cpp.html" target="_top" xlink:title="parameter/ParameterMgr.cpp">
<polygon fill="white" stroke="black" points="364.5,-0.5 364.5,-19.5 522.5,-19.5 522.5,-0.5 364.5,-0.5"/>
<text text-anchor="middle" x="443.5" y="-7.5" font-family="Verdana" font-size="10.00">parameter/ParameterMgr.cpp</text>
</a>
</g>
</g>
<!-- Node1&#45;&gt;Node4 -->
<g id="edge3" class="edge"><title>Node1&#45;&gt;Node4</title>
<path fill="none" stroke="midnightblue" d="M297.666,-53.5677C332.565,-43.381 382.849,-28.7034 414.323,-19.5164"/>
<polygon fill="midnightblue" stroke="midnightblue" points="296.433,-50.2817 287.814,-56.4435 298.394,-57.0013 296.433,-50.2817"/>
</g>
</g>
</svg>
