<?xml version="1.0" encoding="UTF-8" standalone="no"?>
<!DOCTYPE svg PUBLIC "-//W3C//DTD SVG 1.1//EN"
 "http://www.w3.org/Graphics/SVG/1.1/DTD/svg11.dtd">
<!-- Generated by graphviz version 2.36.0 (20140111.2315)
 -->
<!-- Title: parameter/BitwiseAreaConfiguration.h Pages: 1 -->
<svg width="389pt" height="84pt"
 viewBox="0.00 0.00 389.00 84.00" xmlns="http://www.w3.org/2000/svg" xmlns:xlink="http://www.w3.org/1999/xlink">
<g id="graph0" class="graph" transform="scale(1 1) rotate(0) translate(4 80)">
<title>parameter/BitwiseAreaConfiguration.h</title>
<polygon fill="white" stroke="none" points="-4,4 -4,-80 385,-80 385,4 -4,4"/>
<!-- Node1 -->
<g id="node1" class="node"><title>Node1</title>
<polygon fill="#bfbfbf" stroke="black" points="76.5,-56.5 76.5,-75.5 275.5,-75.5 275.5,-56.5 76.5,-56.5"/>
<text text-anchor="middle" x="176" y="-63.5" font-family="Verdana" font-size="10.00">parameter/BitwiseAreaConfiguration.h</text>
</g>
<!-- Node2 -->
<g id="node2" class="node"><title>Node2</title>
<g id="a_node2"><a xlink:href="BitParameter_8cpp.html" target="_top" xlink:title="parameter/BitParameter.cpp">
<polygon fill="white" stroke="black" points="-0.5,-0.5 -0.5,-19.5 152.5,-19.5 152.5,-0.5 -0.5,-0.5"/>
<text text-anchor="middle" x="76" y="-7.5" font-family="Verdana" font-size="10.00">parameter/BitParameter.cpp</text>
</a>
</g>
</g>
<!-- Node1&#45;&gt;Node2 -->
<g id="edge1" class="edge"><title>Node1&#45;&gt;Node2</title>
<path fill="none" stroke="midnightblue" d="M150.912,-51.4526C132.451,-41.4835 107.903,-28.2279 92.0269,-19.6545"/>
<polygon fill="midnightblue" stroke="midnightblue" points="149.471,-54.6521 159.933,-56.324 152.797,-48.4928 149.471,-54.6521"/>
</g>
<!-- Node3 -->
<g id="node3" class="node"><title>Node3</title>
<g id="a_node3"><a xlink:href="BitwiseAreaConfiguration_8cpp.html" target="_top" xlink:title="parameter/BitwiseAreaConfiguration.cpp">
<polygon fill="white" stroke="black" points="171,-0.5 171,-19.5 381,-19.5 381,-0.5 171,-0.5"/>
<text text-anchor="middle" x="276" y="-7.5" font-family="Verdana" font-size="10.00">parameter/BitwiseAreaConfiguration.cpp</text>
</a>
</g>
</g>
<!-- Node1&#45;&gt;Node3 -->
<g id="edge2" class="edge"><title>Node1&#45;&gt;Node3</title>
<path fill="none" stroke="midnightblue" d="M201.088,-51.4526C219.549,-41.4835 244.097,-28.2279 259.973,-19.6545"/>
<polygon fill="midnightblue" stroke="midnightblue" points="199.203,-48.4928 192.067,-56.324 202.529,-54.6521 199.203,-48.4928"/>
</g>
</g>
</svg>
