<?xml version="1.0" encoding="UTF-8" standalone="no"?>
<!DOCTYPE svg PUBLIC "-//W3C//DTD SVG 1.1//EN"
 "http://www.w3.org/Graphics/SVG/1.1/DTD/svg11.dtd">
<!-- Generated by graphviz version 2.38.0 (20140413.2041)
 -->
<!-- Title: parameter/BitwiseAreaConfiguration.cpp Pages: 1 -->
<svg width="1886pt" height="532pt"
 viewBox="0.00 0.00 1885.50 532.00" xmlns="http://www.w3.org/2000/svg" xmlns:xlink="http://www.w3.org/1999/xlink">
<g id="graph0" class="graph" transform="scale(1 1) rotate(0) translate(4 528)">
<title>parameter/BitwiseAreaConfiguration.cpp</title>
<polygon fill="white" stroke="none" points="-4,4 -4,-528 1881.5,-528 1881.5,4 -4,4"/>
<!-- Node1 -->
<g id="node1" class="node"><title>Node1</title>
<polygon fill="#bfbfbf" stroke="black" points="843,-504.5 843,-523.5 1053,-523.5 1053,-504.5 843,-504.5"/>
<text text-anchor="middle" x="948" y="-511.5" font-family="Verdana" font-size="10.00">parameter/BitwiseAreaConfiguration.cpp</text>
</g>
<!-- Node2 -->
<g id="node2" class="node"><title>Node2</title>
<g id="a_node2"><a xlink:href="BitwiseAreaConfiguration_8h.html" target="_top" xlink:title="BitwiseAreaConfiguration.h">
<polygon fill="white" stroke="black" points="1198.5,-448.5 1198.5,-467.5 1343.5,-467.5 1343.5,-448.5 1198.5,-448.5"/>
<text text-anchor="middle" x="1271" y="-455.5" font-family="Verdana" font-size="10.00">BitwiseAreaConfiguration.h</text>
</a>
</g>
</g>
<!-- Node1&#45;&gt;Node2 -->
<g id="edge1" class="edge"><title>Node1&#45;&gt;Node2</title>
<path fill="none" stroke="midnightblue" d="M999.18,-504.444C1056.47,-494.865 1149.24,-479.356 1210.19,-469.167"/>
<polygon fill="midnightblue" stroke="midnightblue" points="1210.77,-472.618 1220.06,-467.516 1209.62,-465.713 1210.77,-472.618"/>
</g>
<!-- Node13 -->
<g id="node13" class="node"><title>Node13</title>
<g id="a_node13"><a xlink:href="BitParameter_8h.html" target="_top" xlink:title="BitParameter.h">
<polygon fill="white" stroke="black" points="467,-448.5 467,-467.5 555,-467.5 555,-448.5 467,-448.5"/>
<text text-anchor="middle" x="511" y="-455.5" font-family="Verdana" font-size="10.00">BitParameter.h</text>
</a>
</g>
</g>
<!-- Node1&#45;&gt;Node13 -->
<g id="edge14" class="edge"><title>Node1&#45;&gt;Node13</title>
<path fill="none" stroke="midnightblue" d="M878.756,-504.444C791.923,-493.714 644.848,-475.54 565.554,-465.741"/>
<polygon fill="midnightblue" stroke="midnightblue" points="565.649,-462.226 555.296,-464.474 564.791,-469.174 565.649,-462.226"/>
</g>
<!-- Node27 -->
<g id="node27" class="node"><title>Node27</title>
<g id="a_node27"><a xlink:href="Subsystem_8h.html" target="_top" xlink:title="Subsystem.h">
<polygon fill="white" stroke="black" points="908,-336.5 908,-355.5 988,-355.5 988,-336.5 908,-336.5"/>
<text text-anchor="middle" x="948" y="-343.5" font-family="Verdana" font-size="10.00">Subsystem.h</text>
</a>
</g>
</g>
<!-- Node1&#45;&gt;Node27 -->
<g id="edge52" class="edge"><title>Node1&#45;&gt;Node27</title>
<path fill="none" stroke="midnightblue" d="M948,-504.075C948,-477.945 948,-401.211 948,-365.577"/>
<polygon fill="midnightblue" stroke="midnightblue" points="951.5,-365.568 948,-355.568 944.5,-365.568 951.5,-365.568"/>
</g>
<!-- Node3 -->
<g id="node3" class="node"><title>Node3</title>
<g id="a_node3"><a xlink:href="AreaConfiguration_8h.html" target="_top" xlink:title="AreaConfiguration.h">
<polygon fill="white" stroke="black" points="1691,-224.5 1691,-243.5 1803,-243.5 1803,-224.5 1691,-224.5"/>
<text text-anchor="middle" x="1747" y="-231.5" font-family="Verdana" font-size="10.00">AreaConfiguration.h</text>
</a>
</g>
</g>
<!-- Node2&#45;&gt;Node3 -->
<g id="edge2" class="edge"><title>Node2&#45;&gt;Node3</title>
<path fill="none" stroke="midnightblue" d="M1289.37,-448.433C1362.33,-414.405 1631.94,-288.662 1719.41,-247.869"/>
<polygon fill="midnightblue" stroke="midnightblue" points="1721.1,-250.94 1728.69,-243.541 1718.14,-244.596 1721.1,-250.94"/>
</g>
<!-- Node4 -->
<g id="node4" class="node"><title>Node4</title>
<g id="a_node4"><a xlink:href="ParameterBlackboard_8h.html" target="_top" xlink:title="ParameterBlackboard.h">
<polygon fill="white" stroke="black" points="1622.5,-168.5 1622.5,-187.5 1751.5,-187.5 1751.5,-168.5 1622.5,-168.5"/>
<text text-anchor="middle" x="1687" y="-175.5" font-family="Verdana" font-size="10.00">ParameterBlackboard.h</text>
</a>
</g>
</g>
<!-- Node3&#45;&gt;Node4 -->
<g id="edge3" class="edge"><title>Node3&#45;&gt;Node4</title>
<path fill="none" stroke="midnightblue" d="M1737.36,-224.324C1728.49,-216.341 1715.13,-204.313 1704.39,-194.653"/>
<polygon fill="midnightblue" stroke="midnightblue" points="1706.59,-191.922 1696.82,-187.834 1701.91,-197.125 1706.59,-191.922"/>
</g>
<!-- Node9 -->
<g id="node9" class="node"><title>Node9</title>
<g id="a_node9"><a xlink:href="SyncerSet_8h.html" target="_top" xlink:title="SyncerSet.h">
<polygon fill="white" stroke="black" points="1769.5,-168.5 1769.5,-187.5 1844.5,-187.5 1844.5,-168.5 1769.5,-168.5"/>
<text text-anchor="middle" x="1807" y="-175.5" font-family="Verdana" font-size="10.00">SyncerSet.h</text>
</a>
</g>
</g>
<!-- Node3&#45;&gt;Node9 -->
<g id="edge8" class="edge"><title>Node3&#45;&gt;Node9</title>
<path fill="none" stroke="midnightblue" d="M1756.64,-224.324C1765.51,-216.341 1778.87,-204.313 1789.61,-194.653"/>
<polygon fill="midnightblue" stroke="midnightblue" points="1792.09,-197.125 1797.18,-187.834 1787.41,-191.922 1792.09,-197.125"/>
</g>
<!-- Node10 -->
<g id="node10" class="node"><title>Node10</title>
<g id="a_node10"><a xlink:href="Results_8h.html" target="_top" xlink:title="Results.h">
<polygon fill="white" stroke="black" points="1818.5,-112.5 1818.5,-131.5 1877.5,-131.5 1877.5,-112.5 1818.5,-112.5"/>
<text text-anchor="middle" x="1848" y="-119.5" font-family="Verdana" font-size="10.00">Results.h</text>
</a>
</g>
</g>
<!-- Node3&#45;&gt;Node10 -->
<g id="edge13" class="edge"><title>Node3&#45;&gt;Node10</title>
<path fill="none" stroke="midnightblue" d="M1796.77,-224.45C1817.83,-218.104 1840.37,-207.089 1853,-188 1862.06,-174.312 1859.25,-155.271 1855.11,-141.336"/>
<polygon fill="midnightblue" stroke="midnightblue" points="1858.41,-140.175 1851.86,-131.848 1851.79,-142.442 1858.41,-140.175"/>
</g>
<!-- Node5 -->
<g id="node5" class="node"><title>Node5</title>
<g id="a_node5"><a xlink:href="NonCopyable_8hpp.html" target="_top" xlink:title="NonCopyable.hpp">
<polygon fill="white" stroke="black" points="1621.5,-0.5 1621.5,-19.5 1722.5,-19.5 1722.5,-0.5 1621.5,-0.5"/>
<text text-anchor="middle" x="1672" y="-7.5" font-family="Verdana" font-size="10.00">NonCopyable.hpp</text>
</a>
</g>
</g>
<!-- Node4&#45;&gt;Node5 -->
<g id="edge4" class="edge"><title>Node4&#45;&gt;Node5</title>
<path fill="none" stroke="midnightblue" d="M1696.02,-168.34C1704.07,-159.932 1715.3,-146.363 1720,-132 1722.77,-123.552 1721.96,-120.671 1720,-112 1712.95,-80.7315 1695.03,-47.7847 1683.19,-28.3306"/>
<polygon fill="midnightblue" stroke="midnightblue" points="1686.06,-26.3224 1677.79,-19.6989 1680.13,-30.0335 1686.06,-26.3224"/>
</g>
<!-- Node6 -->
<g id="node6" class="node"><title>Node6</title>
<polygon fill="white" stroke="#bfbfbf" points="1662.5,-112.5 1662.5,-131.5 1711.5,-131.5 1711.5,-112.5 1662.5,-112.5"/>
<text text-anchor="middle" x="1687" y="-119.5" font-family="Verdana" font-size="10.00">cstdint</text>
</g>
<!-- Node4&#45;&gt;Node6 -->
<g id="edge5" class="edge"><title>Node4&#45;&gt;Node6</title>
<path fill="none" stroke="midnightblue" d="M1687,-168.083C1687,-161.006 1687,-150.861 1687,-141.986"/>
<polygon fill="midnightblue" stroke="midnightblue" points="1690.5,-141.751 1687,-131.751 1683.5,-141.751 1690.5,-141.751"/>
</g>
<!-- Node7 -->
<g id="node7" class="node"><title>Node7</title>
<polygon fill="white" stroke="#bfbfbf" points="930,-0.5 930,-19.5 974,-19.5 974,-0.5 930,-0.5"/>
<text text-anchor="middle" x="952" y="-7.5" font-family="Verdana" font-size="10.00">string</text>
</g>
<!-- Node4&#45;&gt;Node7 -->
<g id="edge6" class="edge"><title>Node4&#45;&gt;Node7</title>
<path fill="none" stroke="midnightblue" d="M1680.5,-168.312C1661.2,-142.803 1603.94,-69.0933 1577,-56 1523.46,-29.9754 1104.53,-15.5554 984.212,-11.9219"/>
<polygon fill="midnightblue" stroke="midnightblue" points="984.252,-8.42165 974.152,-11.6224 984.043,-15.4186 984.252,-8.42165"/>
</g>
<!-- Node8 -->
<g id="node8" class="node"><title>Node8</title>
<polygon fill="white" stroke="#bfbfbf" points="738.5,-112.5 738.5,-131.5 785.5,-131.5 785.5,-112.5 738.5,-112.5"/>
<text text-anchor="middle" x="762" y="-119.5" font-family="Verdana" font-size="10.00">vector</text>
</g>
<!-- Node4&#45;&gt;Node8 -->
<g id="edge7" class="edge"><title>Node4&#45;&gt;Node8</title>
<path fill="none" stroke="midnightblue" d="M1622.32,-173.224C1441.08,-162.644 932.609,-132.96 796.096,-124.99"/>
<polygon fill="midnightblue" stroke="midnightblue" points="796.024,-121.48 785.837,-124.392 795.616,-128.469 796.024,-121.48"/>
</g>
<!-- Node9&#45;&gt;Node10 -->
<g id="edge9" class="edge"><title>Node9&#45;&gt;Node10</title>
<path fill="none" stroke="midnightblue" d="M1813.77,-168.083C1819.56,-160.455 1828.06,-149.264 1835.14,-139.941"/>
<polygon fill="midnightblue" stroke="midnightblue" points="1838.1,-141.832 1841.36,-131.751 1832.52,-137.599 1838.1,-141.832"/>
</g>
<!-- Node12 -->
<g id="node12" class="node"><title>Node12</title>
<polygon fill="white" stroke="#bfbfbf" points="1768,-112.5 1768,-131.5 1800,-131.5 1800,-112.5 1768,-112.5"/>
<text text-anchor="middle" x="1784" y="-119.5" font-family="Verdana" font-size="10.00">set</text>
</g>
<!-- Node9&#45;&gt;Node12 -->
<g id="edge12" class="edge"><title>Node9&#45;&gt;Node12</title>
<path fill="none" stroke="midnightblue" d="M1803.2,-168.083C1800.09,-160.77 1795.58,-150.181 1791.71,-141.103"/>
<polygon fill="midnightblue" stroke="midnightblue" points="1794.87,-139.58 1787.73,-131.751 1788.43,-142.323 1794.87,-139.58"/>
</g>
<!-- Node10&#45;&gt;Node7 -->
<g id="edge11" class="edge"><title>Node10&#45;&gt;Node7</title>
<path fill="none" stroke="midnightblue" d="M1823.01,-112.404C1780.05,-98.0318 1689.19,-69.385 1610,-56 1372.19,-15.804 1080.27,-11.2894 984.265,-10.9517"/>
<polygon fill="midnightblue" stroke="midnightblue" points="984.061,-7.45135 974.053,-10.9295 984.046,-14.4513 984.061,-7.45135"/>
</g>
<!-- Node11 -->
<g id="node11" class="node"><title>Node11</title>
<polygon fill="white" stroke="#bfbfbf" points="1172,-56.5 1172,-75.5 1202,-75.5 1202,-56.5 1172,-56.5"/>
<text text-anchor="middle" x="1187" y="-63.5" font-family="Verdana" font-size="10.00">list</text>
</g>
<!-- Node10&#45;&gt;Node11 -->
<g id="edge10" class="edge"><title>Node10&#45;&gt;Node11</title>
<path fill="none" stroke="midnightblue" d="M1818.28,-113.618C1815.16,-113 1812.03,-112.443 1809,-112 1562.23,-75.8403 1497.05,-101.935 1249,-76 1236.87,-74.7315 1223.47,-72.847 1212.23,-71.1297"/>
<polygon fill="midnightblue" stroke="midnightblue" points="1212.67,-67.6548 1202.25,-69.5601 1211.58,-74.57 1212.67,-67.6548"/>
</g>
<!-- Node14 -->
<g id="node14" class="node"><title>Node14</title>
<polygon fill="white" stroke="#bfbfbf" points="109.5,-56.5 109.5,-75.5 162.5,-75.5 162.5,-56.5 109.5,-56.5"/>
<text text-anchor="middle" x="136" y="-63.5" font-family="Verdana" font-size="10.00">stdint.h</text>
</g>
<!-- Node13&#45;&gt;Node14 -->
<g id="edge15" class="edge"><title>Node13&#45;&gt;Node14</title>
<path fill="none" stroke="midnightblue" d="M466.99,-456.845C343.04,-455.232 0,-442.171 0,-347 0,-347 0,-347 0,-233 0,-162.81 73.6554,-106.026 112.557,-80.9303"/>
<polygon fill="midnightblue" stroke="midnightblue" points="114.577,-83.7949 121.187,-75.515 110.856,-77.8656 114.577,-83.7949"/>
</g>
<!-- Node15 -->
<g id="node15" class="node"><title>Node15</title>
<g id="a_node15"><a xlink:href="BaseParameter_8h.html" target="_top" xlink:title="BaseParameter.h">
<polygon fill="white" stroke="black" points="461.5,-392.5 461.5,-411.5 560.5,-411.5 560.5,-392.5 461.5,-392.5"/>
<text text-anchor="middle" x="511" y="-399.5" font-family="Verdana" font-size="10.00">BaseParameter.h</text>
</a>
</g>
</g>
<!-- Node13&#45;&gt;Node15 -->
<g id="edge16" class="edge"><title>Node13&#45;&gt;Node15</title>
<path fill="none" stroke="midnightblue" d="M511,-448.083C511,-441.006 511,-430.861 511,-421.986"/>
<polygon fill="midnightblue" stroke="midnightblue" points="514.5,-421.751 511,-411.751 507.5,-421.751 514.5,-421.751"/>
</g>
<!-- Node15&#45;&gt;Node8 -->
<g id="edge18" class="edge"><title>Node15&#45;&gt;Node8</title>
<path fill="none" stroke="midnightblue" d="M539.661,-392.449C559.464,-385.34 585.321,-373.525 603,-356 629.82,-329.413 620.936,-311.994 641,-280 675.133,-225.573 723.831,-167.035 747.699,-139.326"/>
<polygon fill="midnightblue" stroke="midnightblue" points="750.358,-141.602 754.266,-131.755 745.07,-137.016 750.358,-141.602"/>
</g>
<!-- Node15&#45;&gt;Node14 -->
<g id="edge17" class="edge"><title>Node15&#45;&gt;Node14</title>
<path fill="none" stroke="midnightblue" d="M461.1,-398.884C346.84,-392.68 76,-369.677 76,-291 76,-291 76,-291 76,-177 76,-139.883 102.654,-103.378 120.431,-83.1581"/>
<polygon fill="midnightblue" stroke="midnightblue" points="123.237,-85.2762 127.403,-75.5349 118.072,-80.552 123.237,-85.2762"/>
</g>
<!-- Node16 -->
<g id="node16" class="node"><title>Node16</title>
<g id="a_node16"><a xlink:href="InstanceConfigurableElement_8h.html" target="_top" xlink:title="InstanceConfigurableElement.h">
<polygon fill="white" stroke="black" points="428,-336.5 428,-355.5 594,-355.5 594,-336.5 428,-336.5"/>
<text text-anchor="middle" x="511" y="-343.5" font-family="Verdana" font-size="10.00">InstanceConfigurableElement.h</text>
</a>
</g>
</g>
<!-- Node15&#45;&gt;Node16 -->
<g id="edge19" class="edge"><title>Node15&#45;&gt;Node16</title>
<path fill="none" stroke="midnightblue" d="M511,-392.083C511,-385.006 511,-374.861 511,-365.986"/>
<polygon fill="midnightblue" stroke="midnightblue" points="514.5,-365.751 511,-355.751 507.5,-365.751 514.5,-365.751"/>
</g>
<!-- Node16&#45;&gt;Node7 -->
<g id="edge51" class="edge"><title>Node16&#45;&gt;Node7</title>
<path fill="none" stroke="midnightblue" d="M510.496,-336.122C509.927,-323.563 509.392,-299.919 512,-280 518.881,-227.44 519.156,-208.797 553,-168 649.234,-51.9959 842.839,-21.2796 919.589,-13.5064"/>
<polygon fill="midnightblue" stroke="midnightblue" points="919.996,-16.9836 929.621,-12.5553 919.335,-10.0149 919.996,-16.9836"/>
</g>
<!-- Node16&#45;&gt;Node11 -->
<g id="edge50" class="edge"><title>Node16&#45;&gt;Node11</title>
<path fill="none" stroke="midnightblue" d="M511.496,-336.264C513.571,-307.915 523.921,-217.46 573,-168 682.015,-58.1399 1089.85,-80.1455 1125,-76 1137.2,-74.5614 1150.7,-72.641 1161.98,-70.9436"/>
<polygon fill="midnightblue" stroke="midnightblue" points="1162.64,-74.3825 1172,-69.4076 1161.58,-67.4634 1162.64,-74.3825"/>
</g>
<!-- Node17 -->
<g id="node17" class="node"><title>Node17</title>
<polygon fill="white" stroke="#bfbfbf" points="582.5,-168.5 582.5,-187.5 695.5,-187.5 695.5,-168.5 582.5,-168.5"/>
<text text-anchor="middle" x="639" y="-175.5" font-family="Verdana" font-size="10.00">parameter_export.h</text>
</g>
<!-- Node16&#45;&gt;Node17 -->
<g id="edge20" class="edge"><title>Node16&#45;&gt;Node17</title>
<path fill="none" stroke="midnightblue" d="M517.882,-336.075C538.379,-309.493 599.26,-230.538 626.074,-195.763"/>
<polygon fill="midnightblue" stroke="midnightblue" points="629.059,-197.624 632.393,-187.568 623.515,-193.35 629.059,-197.624"/>
</g>
<!-- Node18 -->
<g id="node18" class="node"><title>Node18</title>
<g id="a_node18"><a xlink:href="ConfigurableElement_8h.html" target="_top" xlink:title="ConfigurableElement.h">
<polygon fill="white" stroke="black" points="650.5,-280.5 650.5,-299.5 775.5,-299.5 775.5,-280.5 650.5,-280.5"/>
<text text-anchor="middle" x="713" y="-287.5" font-family="Verdana" font-size="10.00">ConfigurableElement.h</text>
</a>
</g>
</g>
<!-- Node16&#45;&gt;Node18 -->
<g id="edge21" class="edge"><title>Node16&#45;&gt;Node18</title>
<path fill="none" stroke="midnightblue" d="M543.008,-336.444C577.729,-327.162 633.288,-312.309 671.377,-302.127"/>
<polygon fill="midnightblue" stroke="midnightblue" points="672.385,-305.48 681.142,-299.516 670.578,-298.718 672.385,-305.48"/>
</g>
<!-- Node26 -->
<g id="node26" class="node"><title>Node26</title>
<g id="a_node26"><a xlink:href="TypeElement_8h.html" target="_top" xlink:title="TypeElement.h">
<polygon fill="white" stroke="black" points="350,-280.5 350,-299.5 436,-299.5 436,-280.5 350,-280.5"/>
<text text-anchor="middle" x="393" y="-287.5" font-family="Verdana" font-size="10.00">TypeElement.h</text>
</a>
</g>
</g>
<!-- Node16&#45;&gt;Node26 -->
<g id="edge46" class="edge"><title>Node16&#45;&gt;Node26</title>
<path fill="none" stroke="midnightblue" d="M492.303,-336.444C473.056,-327.636 442.848,-313.812 420.8,-303.722"/>
<polygon fill="midnightblue" stroke="midnightblue" points="422.16,-300.495 411.61,-299.516 419.247,-306.86 422.16,-300.495"/>
</g>
<!-- Node18&#45;&gt;Node8 -->
<g id="edge45" class="edge"><title>Node18&#45;&gt;Node8</title>
<path fill="none" stroke="midnightblue" d="M715.634,-280.075C723.347,-253.945 745.998,-177.211 756.516,-141.577"/>
<polygon fill="midnightblue" stroke="midnightblue" points="759.997,-142.15 759.471,-131.568 753.283,-140.168 759.997,-142.15"/>
</g>
<!-- Node18&#45;&gt;Node11 -->
<g id="edge44" class="edge"><title>Node18&#45;&gt;Node11</title>
<path fill="none" stroke="midnightblue" d="M752.884,-280.432C783.406,-273.04 826.056,-260.878 861,-244 953.918,-199.121 959.686,-158.11 1052,-112 1088.49,-93.7753 1134.06,-80.3422 1161.82,-73.0996"/>
<polygon fill="midnightblue" stroke="midnightblue" points="1163.04,-76.4004 1171.87,-70.5459 1161.32,-69.6159 1163.04,-76.4004"/>
</g>
<!-- Node18&#45;&gt;Node17 -->
<g id="edge22" class="edge"><title>Node18&#45;&gt;Node17</title>
<path fill="none" stroke="midnightblue" d="M680.815,-280.488C662.461,-273.801 640.984,-262.45 630,-244 621.548,-229.803 625.561,-210.83 630.628,-197.049"/>
<polygon fill="midnightblue" stroke="midnightblue" points="633.913,-198.265 634.52,-187.688 627.449,-195.578 633.913,-198.265"/>
</g>
<!-- Node19 -->
<g id="node19" class="node"><title>Node19</title>
<g id="a_node19"><a xlink:href="Element_8h.html" target="_top" xlink:title="Element.h">
<polygon fill="white" stroke="black" points="346.5,-224.5 346.5,-243.5 411.5,-243.5 411.5,-224.5 346.5,-224.5"/>
<text text-anchor="middle" x="379" y="-231.5" font-family="Verdana" font-size="10.00">Element.h</text>
</a>
</g>
</g>
<!-- Node18&#45;&gt;Node19 -->
<g id="edge23" class="edge"><title>Node18&#45;&gt;Node19</title>
<path fill="none" stroke="midnightblue" d="M660.077,-280.444C594.175,-269.789 482.873,-251.794 421.977,-241.948"/>
<polygon fill="midnightblue" stroke="midnightblue" points="422.364,-238.466 411.933,-240.325 421.246,-245.376 422.364,-238.466"/>
</g>
<!-- Node19&#45;&gt;Node7 -->
<g id="edge25" class="edge"><title>Node19&#45;&gt;Node7</title>
<path fill="none" stroke="midnightblue" d="M346.422,-227.133C324.061,-221.267 295.838,-209.833 281,-188 261.999,-160.042 258.578,-139.668 278,-112 320.084,-52.0493 361.464,-71.7411 433,-56 613.902,-16.1934 837.529,-11.2775 919.737,-10.9033"/>
<polygon fill="midnightblue" stroke="midnightblue" points="919.947,-14.4029 929.938,-10.8776 919.93,-7.4029 919.947,-14.4029"/>
</g>
<!-- Node19&#45;&gt;Node8 -->
<g id="edge26" class="edge"><title>Node19&#45;&gt;Node8</title>
<path fill="none" stroke="midnightblue" d="M402.379,-224.41C438.617,-211.268 510.673,-185.823 573,-168 626.802,-152.615 690.246,-138.272 728.24,-130.081"/>
<polygon fill="midnightblue" stroke="midnightblue" points="729.206,-133.454 738.252,-127.939 727.741,-126.609 729.206,-133.454"/>
</g>
<!-- Node19&#45;&gt;Node14 -->
<g id="edge27" class="edge"><title>Node19&#45;&gt;Node14</title>
<path fill="none" stroke="midnightblue" d="M346.041,-231.992C285.372,-229.368 159.759,-220.098 133,-188 108.864,-159.048 120.024,-111.263 128.868,-85.2505"/>
<polygon fill="midnightblue" stroke="midnightblue" points="132.266,-86.1477 132.406,-75.5538 125.69,-83.7481 132.266,-86.1477"/>
</g>
<!-- Node19&#45;&gt;Node17 -->
<g id="edge24" class="edge"><title>Node19&#45;&gt;Node17</title>
<path fill="none" stroke="midnightblue" d="M411.666,-226.216C455.907,-217.027 535.338,-200.53 587.612,-189.673"/>
<polygon fill="midnightblue" stroke="midnightblue" points="588.607,-193.041 597.687,-187.58 587.184,-186.187 588.607,-193.041"/>
</g>
<!-- Node20 -->
<g id="node20" class="node"><title>Node20</title>
<g id="a_node20"><a xlink:href="XmlSink_8h.html" target="_top" xlink:title="XmlSink.h">
<polygon fill="white" stroke="black" points="386,-168.5 386,-187.5 450,-187.5 450,-168.5 386,-168.5"/>
<text text-anchor="middle" x="418" y="-175.5" font-family="Verdana" font-size="10.00">XmlSink.h</text>
</a>
</g>
</g>
<!-- Node19&#45;&gt;Node20 -->
<g id="edge28" class="edge"><title>Node19&#45;&gt;Node20</title>
<path fill="none" stroke="midnightblue" d="M385.44,-224.083C390.949,-216.455 399.031,-205.264 405.765,-195.941"/>
<polygon fill="midnightblue" stroke="midnightblue" points="408.662,-197.907 411.68,-187.751 402.987,-193.809 408.662,-197.907"/>
</g>
<!-- Node24 -->
<g id="node24" class="node"><title>Node24</title>
<g id="a_node24"><a xlink:href="XmlSource_8h.html" target="_top" xlink:title="XmlSource.h">
<polygon fill="white" stroke="black" points="290.5,-168.5 290.5,-187.5 367.5,-187.5 367.5,-168.5 290.5,-168.5"/>
<text text-anchor="middle" x="329" y="-175.5" font-family="Verdana" font-size="10.00">XmlSource.h</text>
</a>
</g>
</g>
<!-- Node19&#45;&gt;Node24 -->
<g id="edge37" class="edge"><title>Node19&#45;&gt;Node24</title>
<path fill="none" stroke="midnightblue" d="M370.744,-224.083C363.535,-216.298 352.89,-204.801 344.154,-195.367"/>
<polygon fill="midnightblue" stroke="midnightblue" points="346.465,-192.711 337.103,-187.751 341.329,-197.467 346.465,-192.711"/>
</g>
<!-- Node25 -->
<g id="node25" class="node"><title>Node25</title>
<g id="a_node25"><a xlink:href="PathNavigator_8h.html" target="_top" xlink:title="PathNavigator.h">
<polygon fill="white" stroke="black" points="142,-168.5 142,-187.5 234,-187.5 234,-168.5 142,-168.5"/>
<text text-anchor="middle" x="188" y="-175.5" font-family="Verdana" font-size="10.00">PathNavigator.h</text>
</a>
</g>
</g>
<!-- Node19&#45;&gt;Node25 -->
<g id="edge40" class="edge"><title>Node19&#45;&gt;Node25</title>
<path fill="none" stroke="midnightblue" d="M348.735,-224.444C316.045,-215.201 263.818,-200.436 227.817,-190.257"/>
<polygon fill="midnightblue" stroke="midnightblue" points="228.698,-186.869 218.123,-187.516 226.794,-193.605 228.698,-186.869"/>
</g>
<!-- Node21 -->
<g id="node21" class="node"><title>Node21</title>
<g id="a_node21"><a xlink:href="XmlElement_8h.html" target="_top" xlink:title="XmlElement.h">
<polygon fill="white" stroke="black" points="287.5,-112.5 287.5,-131.5 370.5,-131.5 370.5,-112.5 287.5,-112.5"/>
<text text-anchor="middle" x="329" y="-119.5" font-family="Verdana" font-size="10.00">XmlElement.h</text>
</a>
</g>
</g>
<!-- Node20&#45;&gt;Node21 -->
<g id="edge29" class="edge"><title>Node20&#45;&gt;Node21</title>
<path fill="none" stroke="midnightblue" d="M403.701,-168.324C389.817,-159.9 368.508,-146.971 352.196,-137.074"/>
<polygon fill="midnightblue" stroke="midnightblue" points="353.629,-133.85 343.264,-131.655 349.998,-139.834 353.629,-133.85"/>
</g>
<!-- Node22 -->
<g id="node22" class="node"><title>Node22</title>
<g id="a_node22"><a xlink:href="XmlSerializingContext_8h.html" target="_top" xlink:title="XmlSerializingContext.h">
<polygon fill="white" stroke="black" points="389,-112.5 389,-131.5 519,-131.5 519,-112.5 389,-112.5"/>
<text text-anchor="middle" x="454" y="-119.5" font-family="Verdana" font-size="10.00">XmlSerializingContext.h</text>
</a>
</g>
</g>
<!-- Node20&#45;&gt;Node22 -->
<g id="edge32" class="edge"><title>Node20&#45;&gt;Node22</title>
<path fill="none" stroke="midnightblue" d="M423.945,-168.083C428.977,-160.534 436.337,-149.495 442.513,-140.23"/>
<polygon fill="midnightblue" stroke="midnightblue" points="445.531,-142.013 448.166,-131.751 439.707,-138.13 445.531,-142.013"/>
</g>
<!-- Node21&#45;&gt;Node7 -->
<g id="edge31" class="edge"><title>Node21&#45;&gt;Node7</title>
<path fill="none" stroke="midnightblue" d="M346.748,-112.337C376.992,-97.9993 440.804,-69.5724 498,-56 652.986,-19.2226 844.645,-12.4573 919.71,-11.2469"/>
<polygon fill="midnightblue" stroke="midnightblue" points="919.97,-14.7437 929.921,-11.1057 919.873,-7.74441 919.97,-14.7437"/>
</g>
<!-- Node21&#45;&gt;Node14 -->
<g id="edge30" class="edge"><title>Node21&#45;&gt;Node14</title>
<path fill="none" stroke="midnightblue" d="M298.419,-112.444C264.22,-102.875 208.863,-87.3864 172.445,-77.1971"/>
<polygon fill="midnightblue" stroke="midnightblue" points="173.282,-73.797 162.709,-74.473 171.396,-80.5381 173.282,-73.797"/>
</g>
<!-- Node22&#45;&gt;Node7 -->
<g id="edge36" class="edge"><title>Node22&#45;&gt;Node7</title>
<path fill="none" stroke="midnightblue" d="M461.245,-112.415C474.041,-97.9257 502.216,-68.9332 533,-56 602.859,-26.6506 833.991,-15.3349 919.672,-12.0846"/>
<polygon fill="midnightblue" stroke="midnightblue" points="919.979,-15.5758 929.844,-11.711 919.722,-8.58049 919.979,-15.5758"/>
</g>
<!-- Node23 -->
<g id="node23" class="node"><title>Node23</title>
<g id="a_node23"><a xlink:href="ErrorContext_8hpp.html" target="_top" xlink:title="ErrorContext.hpp">
<polygon fill="white" stroke="black" points="1018,-56.5 1018,-75.5 1116,-75.5 1116,-56.5 1018,-56.5"/>
<text text-anchor="middle" x="1067" y="-63.5" font-family="Verdana" font-size="10.00">ErrorContext.hpp</text>
</a>
</g>
</g>
<!-- Node22&#45;&gt;Node23 -->
<g id="edge33" class="edge"><title>Node22&#45;&gt;Node23</title>
<path fill="none" stroke="midnightblue" d="M519.021,-115.272C638.812,-104.72 892.624,-82.361 1007.86,-72.2093"/>
<polygon fill="midnightblue" stroke="midnightblue" points="1008.26,-75.6883 1017.91,-71.3242 1007.64,-68.7153 1008.26,-75.6883"/>
</g>
<!-- Node23&#45;&gt;Node5 -->
<g id="edge35" class="edge"><title>Node23&#45;&gt;Node5</title>
<path fill="none" stroke="midnightblue" d="M1116.33,-60.3251C1131.31,-58.9183 1147.83,-57.3817 1163,-56 1324.96,-41.2491 1515.97,-24.5486 1611.38,-16.2549"/>
<polygon fill="midnightblue" stroke="midnightblue" points="1611.76,-19.7349 1621.42,-15.3823 1611.15,-12.7612 1611.76,-19.7349"/>
</g>
<!-- Node23&#45;&gt;Node7 -->
<g id="edge34" class="edge"><title>Node23&#45;&gt;Node7</title>
<path fill="none" stroke="midnightblue" d="M1048.78,-56.4435C1030.1,-47.6751 1000.84,-33.9355 979.383,-23.8579"/>
<polygon fill="midnightblue" stroke="midnightblue" points="980.676,-20.5988 970.137,-19.5164 977.701,-26.935 980.676,-20.5988"/>
</g>
<!-- Node24&#45;&gt;Node21 -->
<g id="edge38" class="edge"><title>Node24&#45;&gt;Node21</title>
<path fill="none" stroke="midnightblue" d="M329,-168.083C329,-161.006 329,-150.861 329,-141.986"/>
<polygon fill="midnightblue" stroke="midnightblue" points="332.5,-141.751 329,-131.751 325.5,-141.751 332.5,-141.751"/>
</g>
<!-- Node24&#45;&gt;Node22 -->
<g id="edge39" class="edge"><title>Node24&#45;&gt;Node22</title>
<path fill="none" stroke="midnightblue" d="M348.807,-168.444C369.287,-159.596 401.483,-145.687 424.865,-135.586"/>
<polygon fill="midnightblue" stroke="midnightblue" points="426.494,-138.695 434.286,-131.516 423.718,-132.269 426.494,-138.695"/>
</g>
<!-- Node25&#45;&gt;Node7 -->
<g id="edge42" class="edge"><title>Node25&#45;&gt;Node7</title>
<path fill="none" stroke="midnightblue" d="M189.096,-168.368C192.515,-145.458 205.248,-83.0243 245,-56 301.267,-17.7478 788.49,-12.0026 919.617,-11.1478"/>
<polygon fill="midnightblue" stroke="midnightblue" points="919.836,-14.6467 929.814,-11.0867 919.794,-7.64681 919.836,-14.6467"/>
</g>
<!-- Node25&#45;&gt;Node8 -->
<g id="edge41" class="edge"><title>Node25&#45;&gt;Node8</title>
<path fill="none" stroke="midnightblue" d="M234.356,-172.485C249.25,-171.042 265.821,-169.445 281,-168 448.86,-152.026 649.722,-133.388 728.225,-126.122"/>
<polygon fill="midnightblue" stroke="midnightblue" points="728.839,-129.581 738.474,-125.174 728.194,-122.611 728.839,-129.581"/>
</g>
<!-- Node25&#45;&gt;Node14 -->
<g id="edge43" class="edge"><title>Node25&#45;&gt;Node14</title>
<path fill="none" stroke="midnightblue" d="M183.92,-168.368C175.452,-150.456 155.818,-108.923 144.485,-84.9482"/>
<polygon fill="midnightblue" stroke="midnightblue" points="147.5,-83.1363 140.061,-75.5914 141.171,-86.128 147.5,-83.1363"/>
</g>
<!-- Node26&#45;&gt;Node7 -->
<g id="edge49" class="edge"><title>Node26&#45;&gt;Node7</title>
<path fill="none" stroke="midnightblue" d="M355.272,-280.496C300.229,-266.937 196.082,-236.849 119,-188 89.0026,-168.99 75.7356,-164.75 62,-132 47.3938,-97.1742 67.1092,-74.5571 100,-56 172.368,-15.17 772.43,-11.3436 919.538,-11.0213"/>
<polygon fill="midnightblue" stroke="midnightblue" points="919.722,-14.5211 929.716,-11.0031 919.709,-7.52106 919.722,-14.5211"/>
</g>
<!-- Node26&#45;&gt;Node17 -->
<g id="edge47" class="edge"><title>Node26&#45;&gt;Node17</title>
<path fill="none" stroke="midnightblue" d="M412.303,-280.368C455.415,-261.091 559.713,-214.454 610.398,-191.789"/>
<polygon fill="midnightblue" stroke="midnightblue" points="612.086,-194.869 619.786,-187.591 609.229,-188.478 612.086,-194.869"/>
</g>
<!-- Node26&#45;&gt;Node19 -->
<g id="edge48" class="edge"><title>Node26&#45;&gt;Node19</title>
<path fill="none" stroke="midnightblue" d="M390.688,-280.083C388.833,-272.927 386.165,-262.635 383.846,-253.691"/>
<polygon fill="midnightblue" stroke="midnightblue" points="387.166,-252.553 381.269,-243.751 380.391,-254.309 387.166,-252.553"/>
</g>
<!-- Node27&#45;&gt;Node7 -->
<g id="edge81" class="edge"><title>Node27&#45;&gt;Node7</title>
<path fill="none" stroke="midnightblue" d="M948.103,-336.408C948.629,-292.475 951.023,-92.5716 951.774,-29.8701"/>
<polygon fill="midnightblue" stroke="midnightblue" points="955.278,-29.5763 951.898,-19.5351 948.278,-29.4924 955.278,-29.5763"/>
</g>
<!-- Node27&#45;&gt;Node8 -->
<g id="edge82" class="edge"><title>Node27&#45;&gt;Node8</title>
<path fill="none" stroke="midnightblue" d="M942.511,-336.458C929.362,-316.21 894.645,-263.994 861,-224 834.188,-192.128 799.441,-158.149 779.047,-138.849"/>
<polygon fill="midnightblue" stroke="midnightblue" points="781.178,-136.048 771.493,-131.751 776.385,-141.149 781.178,-136.048"/>
</g>
<!-- Node27&#45;&gt;Node11 -->
<g id="edge79" class="edge"><title>Node27&#45;&gt;Node11</title>
<path fill="none" stroke="midnightblue" d="M983.718,-336.486C1004.56,-329.799 1029.84,-318.448 1046,-300 1065.92,-277.265 1066,-265.225 1066,-235 1066,-235 1066,-235 1066,-177 1066,-146.902 1065.16,-134.631 1085,-112 1105.03,-89.1571 1138.84,-77.4087 1162.01,-71.7374"/>
<polygon fill="midnightblue" stroke="midnightblue" points="1162.82,-75.1422 1171.81,-69.5413 1161.29,-68.3114 1162.82,-75.1422"/>
</g>
<!-- Node27&#45;&gt;Node17 -->
<g id="edge53" class="edge"><title>Node27&#45;&gt;Node17</title>
<path fill="none" stroke="midnightblue" d="M925.108,-336.464C902.81,-327.936 868.113,-314.099 839,-300 770.938,-267.037 695.99,-217.949 660.244,-193.677"/>
<polygon fill="midnightblue" stroke="midnightblue" points="661.865,-190.546 651.634,-187.794 657.916,-196.325 661.865,-190.546"/>
</g>
<!-- Node27&#45;&gt;Node18 -->
<g id="edge54" class="edge"><title>Node27&#45;&gt;Node18</title>
<path fill="none" stroke="midnightblue" d="M910.764,-336.444C869.94,-327.063 804.357,-311.993 760.016,-301.804"/>
<polygon fill="midnightblue" stroke="midnightblue" points="760.592,-298.345 750.062,-299.516 759.024,-305.167 760.592,-298.345"/>
</g>
<!-- Node28 -->
<g id="node28" class="node"><title>Node28</title>
<g id="a_node28"><a xlink:href="Mapper_8h.html" target="_top" xlink:title="Mapper.h">
<polygon fill="white" stroke="black" points="976.5,-280.5 976.5,-299.5 1037.5,-299.5 1037.5,-280.5 976.5,-280.5"/>
<text text-anchor="middle" x="1007" y="-287.5" font-family="Verdana" font-size="10.00">Mapper.h</text>
</a>
</g>
</g>
<!-- Node27&#45;&gt;Node28 -->
<g id="edge55" class="edge"><title>Node27&#45;&gt;Node28</title>
<path fill="none" stroke="midnightblue" d="M957.479,-336.324C966.201,-328.341 979.343,-316.313 989.898,-306.653"/>
<polygon fill="midnightblue" stroke="midnightblue" points="992.334,-309.167 997.348,-299.834 987.608,-304.004 992.334,-309.167"/>
</g>
<!-- Node29 -->
<g id="node29" class="node"><title>Node29</title>
<g id="a_node29"><a xlink:href="MappingContext_8h.html" target="_top" xlink:title="MappingContext.h">
<polygon fill="white" stroke="black" points="748,-224.5 748,-243.5 852,-243.5 852,-224.5 748,-224.5"/>
<text text-anchor="middle" x="800" y="-231.5" font-family="Verdana" font-size="10.00">MappingContext.h</text>
</a>
</g>
</g>
<!-- Node27&#45;&gt;Node29 -->
<g id="edge57" class="edge"><title>Node27&#45;&gt;Node29</title>
<path fill="none" stroke="midnightblue" d="M928.875,-336.372C911.66,-328.183 886.061,-314.931 866,-300 846.556,-285.528 827.13,-265.566 814.441,-251.595"/>
<polygon fill="midnightblue" stroke="midnightblue" points="816.736,-248.91 807.47,-243.773 811.51,-253.567 816.736,-248.91"/>
</g>
<!-- Node30 -->
<g id="node30" class="node"><title>Node30</title>
<g id="a_node30"><a xlink:href="Logger_8h.html" target="_top" xlink:title="log/Logger.h">
<polygon fill="white" stroke="black" points="1181.5,-224.5 1181.5,-243.5 1256.5,-243.5 1256.5,-224.5 1181.5,-224.5"/>
<text text-anchor="middle" x="1219" y="-231.5" font-family="Verdana" font-size="10.00">log/Logger.h</text>
</a>
</g>
</g>
<!-- Node27&#45;&gt;Node30 -->
<g id="edge62" class="edge"><title>Node27&#45;&gt;Node30</title>
<path fill="none" stroke="midnightblue" d="M988.092,-341.676C1029.35,-336.952 1094.55,-325.794 1145,-300 1168.89,-287.783 1191.3,-266.117 1205.07,-251.178"/>
<polygon fill="midnightblue" stroke="midnightblue" points="1207.72,-253.461 1211.78,-243.674 1202.5,-248.794 1207.72,-253.461"/>
</g>
<!-- Node39 -->
<g id="node39" class="node"><title>Node39</title>
<polygon fill="white" stroke="#bfbfbf" points="1094,-280.5 1094,-299.5 1136,-299.5 1136,-280.5 1094,-280.5"/>
<text text-anchor="middle" x="1115" y="-287.5" font-family="Verdana" font-size="10.00">stack</text>
</g>
<!-- Node27&#45;&gt;Node39 -->
<g id="edge80" class="edge"><title>Node27&#45;&gt;Node39</title>
<path fill="none" stroke="midnightblue" d="M974.462,-336.444C1004.34,-326.783 1052.88,-311.088 1084.37,-300.905"/>
<polygon fill="midnightblue" stroke="midnightblue" points="1085.51,-304.214 1093.95,-297.807 1083.36,-297.553 1085.51,-304.214"/>
</g>
<!-- Node28&#45;&gt;Node7 -->
<g id="edge56" class="edge"><title>Node28&#45;&gt;Node7</title>
<path fill="none" stroke="midnightblue" d="M1005.9,-280.456C1001.86,-249.807 987.004,-142.618 966,-56 963.828,-47.0435 960.857,-37.2566 958.211,-29.1042"/>
<polygon fill="midnightblue" stroke="midnightblue" points="961.502,-27.9109 955.013,-19.5358 954.863,-30.1296 961.502,-27.9109"/>
</g>
<!-- Node29&#45;&gt;Node7 -->
<g id="edge60" class="edge"><title>Node29&#45;&gt;Node7</title>
<path fill="none" stroke="midnightblue" d="M805.959,-224.297C828.608,-191.217 909.612,-72.9094 940.196,-28.2407"/>
<polygon fill="midnightblue" stroke="midnightblue" points="943.156,-30.1124 945.917,-19.8837 937.38,-26.1577 943.156,-30.1124"/>
</g>
<!-- Node29&#45;&gt;Node8 -->
<g id="edge61" class="edge"><title>Node29&#45;&gt;Node8</title>
<path fill="none" stroke="midnightblue" d="M797.018,-224.368C790.858,-206.537 776.611,-165.295 768.312,-141.272"/>
<polygon fill="midnightblue" stroke="midnightblue" points="771.541,-139.9 764.968,-131.591 764.925,-142.186 771.541,-139.9"/>
</g>
<!-- Node29&#45;&gt;Node14 -->
<g id="edge59" class="edge"><title>Node29&#45;&gt;Node14</title>
<path fill="none" stroke="midnightblue" d="M802.876,-224.495C809.74,-202.429 824.349,-142.923 794,-112 750.319,-67.4928 304.482,-66.1475 172.572,-66.735"/>
<polygon fill="midnightblue" stroke="midnightblue" points="172.543,-63.235 162.561,-66.7861 172.578,-70.2349 172.543,-63.235"/>
</g>
<!-- Node29&#45;&gt;Node17 -->
<g id="edge58" class="edge"><title>Node29&#45;&gt;Node17</title>
<path fill="none" stroke="midnightblue" d="M774.489,-224.444C747.404,-215.359 704.41,-200.939 674.131,-190.783"/>
<polygon fill="midnightblue" stroke="midnightblue" points="674.986,-187.378 664.392,-187.516 672.76,-194.015 674.986,-187.378"/>
</g>
<!-- Node30&#45;&gt;Node5 -->
<g id="edge78" class="edge"><title>Node30&#45;&gt;Node5</title>
<path fill="none" stroke="midnightblue" d="M1242.76,-224.355C1301.25,-202.697 1456.24,-143.02 1577,-76 1604.6,-60.6796 1634.32,-39.5143 1653.02,-25.5524"/>
<polygon fill="midnightblue" stroke="midnightblue" points="1655.16,-28.3288 1661.03,-19.5127 1650.94,-22.7402 1655.16,-28.3288"/>
</g>
<!-- Node31 -->
<g id="node31" class="node"><title>Node31</title>
<g id="a_node31"><a xlink:href="ILogger_8h.html" target="_top" xlink:title="log/ILogger.h">
<polygon fill="white" stroke="black" points="1094.5,-112.5 1094.5,-131.5 1171.5,-131.5 1171.5,-112.5 1094.5,-112.5"/>
<text text-anchor="middle" x="1133" y="-119.5" font-family="Verdana" font-size="10.00">log/ILogger.h</text>
</a>
</g>
</g>
<!-- Node30&#45;&gt;Node31 -->
<g id="edge63" class="edge"><title>Node30&#45;&gt;Node31</title>
<path fill="none" stroke="midnightblue" d="M1210.99,-224.231C1202.94,-215.302 1190.27,-200.965 1180,-188 1167.47,-172.191 1154.08,-153.463 1144.8,-140.18"/>
<polygon fill="midnightblue" stroke="midnightblue" points="1147.42,-137.817 1138.85,-131.59 1141.67,-141.803 1147.42,-137.817"/>
</g>
<!-- Node32 -->
<g id="node32" class="node"><title>Node32</title>
<g id="a_node32"><a xlink:href="LogWrapper_8h.html" target="_top" xlink:title="log/LogWrapper.h">
<polygon fill="white" stroke="black" points="1189,-168.5 1189,-187.5 1287,-187.5 1287,-168.5 1189,-168.5"/>
<text text-anchor="middle" x="1238" y="-175.5" font-family="Verdana" font-size="10.00">log/LogWrapper.h</text>
</a>
</g>
</g>
<!-- Node30&#45;&gt;Node32 -->
<g id="edge65" class="edge"><title>Node30&#45;&gt;Node32</title>
<path fill="none" stroke="midnightblue" d="M1222.14,-224.083C1224.68,-216.849 1228.36,-206.409 1231.53,-197.397"/>
<polygon fill="midnightblue" stroke="midnightblue" points="1234.9,-198.346 1234.92,-187.751 1228.3,-196.023 1234.9,-198.346"/>
</g>
<!-- Node31&#45;&gt;Node7 -->
<g id="edge64" class="edge"><title>Node31&#45;&gt;Node7</title>
<path fill="none" stroke="midnightblue" d="M1134.73,-112.202C1136.89,-98.4309 1138.79,-71.7366 1125,-56 1106.64,-35.0368 1028.89,-21.3389 984.12,-15.0302"/>
<polygon fill="midnightblue" stroke="midnightblue" points="984.418,-11.5384 974.036,-13.6554 983.472,-18.4742 984.418,-11.5384"/>
</g>
<!-- Node32&#45;&gt;Node7 -->
<g id="edge74" class="edge"><title>Node32&#45;&gt;Node7</title>
<path fill="none" stroke="midnightblue" d="M1239,-168.442C1241.07,-146.249 1243.22,-86.4609 1211,-56 1178.79,-25.5454 1046.32,-15.3984 984.305,-12.2755"/>
<polygon fill="midnightblue" stroke="midnightblue" points="984.436,-8.77792 974.282,-11.8015 984.105,-15.7701 984.436,-8.77792"/>
</g>
<!-- Node32&#45;&gt;Node11 -->
<g id="edge77" class="edge"><title>Node32&#45;&gt;Node11</title>
<path fill="none" stroke="midnightblue" d="M1234,-168.368C1225.69,-150.456 1206.44,-108.923 1195.32,-84.9482"/>
<polygon fill="midnightblue" stroke="midnightblue" points="1198.36,-83.1916 1190.98,-75.5914 1192.01,-86.136 1198.36,-83.1916"/>
</g>
<!-- Node32&#45;&gt;Node31 -->
<g id="edge66" class="edge"><title>Node32&#45;&gt;Node31</title>
<path fill="none" stroke="midnightblue" d="M1221.13,-168.324C1204.29,-159.664 1178.19,-146.242 1158.76,-136.249"/>
<polygon fill="midnightblue" stroke="midnightblue" points="1160.32,-133.116 1149.83,-131.655 1157.12,-139.341 1160.32,-133.116"/>
</g>
<!-- Node33 -->
<g id="node33" class="node"><title>Node33</title>
<g id="a_node33"><a xlink:href="Utility_8h.html" target="_top" xlink:title="Utility.h">
<polygon fill="white" stroke="black" points="1374.5,-112.5 1374.5,-131.5 1425.5,-131.5 1425.5,-112.5 1374.5,-112.5"/>
<text text-anchor="middle" x="1400" y="-119.5" font-family="Verdana" font-size="10.00">Utility.h</text>
</a>
</g>
</g>
<!-- Node32&#45;&gt;Node33 -->
<g id="edge67" class="edge"><title>Node32&#45;&gt;Node33</title>
<path fill="none" stroke="midnightblue" d="M1263.67,-168.444C1290.92,-159.359 1334.18,-144.939 1364.65,-134.783"/>
<polygon fill="midnightblue" stroke="midnightblue" points="1366.07,-137.999 1374.45,-131.516 1363.86,-131.358 1366.07,-137.999"/>
</g>
<!-- Node35 -->
<g id="node35" class="node"><title>Node35</title>
<polygon fill="white" stroke="#bfbfbf" points="1258,-56.5 1258,-75.5 1314,-75.5 1314,-56.5 1258,-56.5"/>
<text text-anchor="middle" x="1286" y="-63.5" font-family="Verdana" font-size="10.00">sstream</text>
</g>
<!-- Node32&#45;&gt;Node35 -->
<g id="edge75" class="edge"><title>Node32&#45;&gt;Node35</title>
<path fill="none" stroke="midnightblue" d="M1241.77,-168.368C1249.58,-150.456 1267.71,-108.923 1278.17,-84.9482"/>
<polygon fill="midnightblue" stroke="midnightblue" points="1281.46,-86.1566 1282.25,-75.5914 1275.04,-83.357 1281.46,-86.1566"/>
</g>
<!-- Node38 -->
<g id="node38" class="node"><title>Node38</title>
<polygon fill="white" stroke="#bfbfbf" points="1304,-112.5 1304,-131.5 1356,-131.5 1356,-112.5 1304,-112.5"/>
<text text-anchor="middle" x="1330" y="-119.5" font-family="Verdana" font-size="10.00">iterator</text>
</g>
<!-- Node32&#45;&gt;Node38 -->
<g id="edge76" class="edge"><title>Node32&#45;&gt;Node38</title>
<path fill="none" stroke="midnightblue" d="M1252.78,-168.324C1267.27,-159.822 1289.57,-146.729 1306.49,-136.797"/>
<polygon fill="midnightblue" stroke="midnightblue" points="1308.4,-139.735 1315.26,-131.655 1304.86,-133.698 1308.4,-139.735"/>
</g>
<!-- Node33&#45;&gt;Node7 -->
<g id="edge68" class="edge"><title>Node33&#45;&gt;Node7</title>
<path fill="none" stroke="midnightblue" d="M1392.97,-112.459C1380.54,-98.034 1353.15,-69.137 1323,-56 1262.36,-29.5775 1062.94,-16.6971 984.299,-12.5493"/>
<polygon fill="midnightblue" stroke="midnightblue" points="984.197,-9.03955 974.03,-12.0215 983.838,-16.0303 984.197,-9.03955"/>
</g>
<!-- Node33&#45;&gt;Node11 -->
<g id="edge69" class="edge"><title>Node33&#45;&gt;Node11</title>
<path fill="none" stroke="midnightblue" d="M1374.39,-114.401C1371.23,-113.591 1368.04,-112.775 1365,-112 1310.65,-98.1427 1246.92,-82.0754 1212.38,-73.3826"/>
<polygon fill="midnightblue" stroke="midnightblue" points="1212.8,-69.8774 1202.24,-70.8316 1211.09,-76.6658 1212.8,-69.8774"/>
</g>
<!-- Node34 -->
<g id="node34" class="node"><title>Node34</title>
<polygon fill="white" stroke="#bfbfbf" points="1456,-56.5 1456,-75.5 1494,-75.5 1494,-56.5 1456,-56.5"/>
<text text-anchor="middle" x="1475" y="-63.5" font-family="Verdana" font-size="10.00">map</text>
</g>
<!-- Node33&#45;&gt;Node34 -->
<g id="edge70" class="edge"><title>Node33&#45;&gt;Node34</title>
<path fill="none" stroke="midnightblue" d="M1412.05,-112.324C1423.46,-104.107 1440.83,-91.6017 1454.43,-81.8069"/>
<polygon fill="midnightblue" stroke="midnightblue" points="1456.66,-84.5174 1462.73,-75.8339 1452.57,-78.8366 1456.66,-84.5174"/>
</g>
<!-- Node33&#45;&gt;Node35 -->
<g id="edge71" class="edge"><title>Node33&#45;&gt;Node35</title>
<path fill="none" stroke="midnightblue" d="M1381.94,-112.444C1363.43,-103.675 1334.42,-89.9355 1313.14,-79.8579"/>
<polygon fill="midnightblue" stroke="midnightblue" points="1314.51,-76.6343 1303.98,-75.5164 1311.52,-82.9604 1314.51,-76.6343"/>
</g>
<!-- Node36 -->
<g id="node36" class="node"><title>Node36</title>
<polygon fill="white" stroke="#bfbfbf" points="1512,-56.5 1512,-75.5 1568,-75.5 1568,-56.5 1512,-56.5"/>
<text text-anchor="middle" x="1540" y="-63.5" font-family="Verdana" font-size="10.00">numeric</text>
</g>
<!-- Node33&#45;&gt;Node36 -->
<g id="edge72" class="edge"><title>Node33&#45;&gt;Node36</title>
<path fill="none" stroke="midnightblue" d="M1422.18,-112.444C1445.43,-103.478 1482.15,-89.314 1508.42,-79.1827"/>
<polygon fill="midnightblue" stroke="midnightblue" points="1509.85,-82.3807 1517.92,-75.5164 1507.33,-75.8497 1509.85,-82.3807"/>
</g>
<!-- Node37 -->
<g id="node37" class="node"><title>Node37</title>
<polygon fill="white" stroke="#bfbfbf" points="1370,-56.5 1370,-75.5 1438,-75.5 1438,-56.5 1370,-56.5"/>
<text text-anchor="middle" x="1404" y="-63.5" font-family="Verdana" font-size="10.00">type_traits</text>
</g>
<!-- Node33&#45;&gt;Node37 -->
<g id="edge73" class="edge"><title>Node33&#45;&gt;Node37</title>
<path fill="none" stroke="midnightblue" d="M1400.66,-112.083C1401.18,-105.006 1401.94,-94.8611 1402.59,-85.9865"/>
<polygon fill="midnightblue" stroke="midnightblue" points="1406.1,-85.9823 1403.35,-75.7511 1399.12,-85.4652 1406.1,-85.9823"/>
</g>
</g>
</svg>
