<?xml version="1.0" encoding="UTF-8" standalone="no"?>
<!DOCTYPE svg PUBLIC "-//W3C//DTD SVG 1.1//EN"
 "http://www.w3.org/Graphics/SVG/1.1/DTD/svg11.dtd">
<!-- Generated by graphviz version 2.38.0 (20140413.2041)
 -->
<!-- Title: parameter/BooleanParameterType.cpp Pages: 1 -->
<svg width="1216pt" height="487pt"
 viewBox="0.00 0.00 1215.50 487.00" xmlns="http://www.w3.org/2000/svg" xmlns:xlink="http://www.w3.org/1999/xlink">
<g id="graph0" class="graph" transform="scale(1 1) rotate(0) translate(4 483)">
<title>parameter/BooleanParameterType.cpp</title>
<polygon fill="white" stroke="none" points="-4,4 -4,-483 1211.5,-483 1211.5,4 -4,4"/>
<!-- Node1 -->
<g id="node1" class="node"><title>Node1</title>
<polygon fill="#bfbfbf" stroke="black" points="692.5,-448.5 692.5,-478.5 852.5,-478.5 852.5,-448.5 692.5,-448.5"/>
<text text-anchor="start" x="700.5" y="-466.5" font-family="Verdana" font-size="10.00">parameter/BooleanParameter</text>
<text text-anchor="middle" x="772.5" y="-455.5" font-family="Verdana" font-size="10.00">Type.cpp</text>
</g>
<!-- Node2 -->
<g id="node2" class="node"><title>Node2</title>
<g id="a_node2"><a xlink:href="BooleanParameterType_8h.html" target="_top" xlink:title="BooleanParameterType.h">
<polygon fill="white" stroke="black" points="704.5,-392.5 704.5,-411.5 840.5,-411.5 840.5,-392.5 704.5,-392.5"/>
<text text-anchor="middle" x="772.5" y="-399.5" font-family="Verdana" font-size="10.00">BooleanParameterType.h</text>
</a>
</g>
</g>
<!-- Node1&#45;&gt;Node2 -->
<g id="edge1" class="edge"><title>Node1&#45;&gt;Node2</title>
<path fill="none" stroke="midnightblue" d="M772.5,-448.399C772.5,-440.466 772.5,-430.458 772.5,-421.858"/>
<polygon fill="midnightblue" stroke="midnightblue" points="776,-421.658 772.5,-411.658 769,-421.658 776,-421.658"/>
</g>
<!-- Node18 -->
<g id="node18" class="node"><title>Node18</title>
<g id="a_node18"><a xlink:href="ParameterAccessContext_8h.html" target="_top" xlink:title="ParameterAccessContext.h">
<polygon fill="white" stroke="black" points="0,-112.5 0,-131.5 147,-131.5 147,-112.5 0,-112.5"/>
<text text-anchor="middle" x="73.5" y="-119.5" font-family="Verdana" font-size="10.00">ParameterAccessContext.h</text>
</a>
</g>
</g>
<!-- Node1&#45;&gt;Node18 -->
<g id="edge32" class="edge"><title>Node1&#45;&gt;Node18</title>
<path fill="none" stroke="midnightblue" d="M692.431,-457.53C509.089,-445.081 74.5,-409.028 74.5,-347 74.5,-347 74.5,-347 74.5,-233 74.5,-200.947 74.0702,-163.642 73.7741,-141.748"/>
<polygon fill="midnightblue" stroke="midnightblue" points="77.2712,-141.507 73.6307,-131.558 70.2719,-141.606 77.2712,-141.507"/>
</g>
<!-- Node19 -->
<g id="node19" class="node"><title>Node19</title>
<g id="a_node19"><a xlink:href="Utility_8h.html" target="_top" xlink:title="Utility.h">
<polygon fill="white" stroke="black" points="929,-392.5 929,-411.5 980,-411.5 980,-392.5 929,-392.5"/>
<text text-anchor="middle" x="954.5" y="-399.5" font-family="Verdana" font-size="10.00">Utility.h</text>
</a>
</g>
</g>
<!-- Node1&#45;&gt;Node19 -->
<g id="edge36" class="edge"><title>Node1&#45;&gt;Node19</title>
<path fill="none" stroke="midnightblue" d="M815.631,-448.399C847.269,-438.056 889.698,-424.185 919.299,-414.508"/>
<polygon fill="midnightblue" stroke="midnightblue" points="920.394,-417.832 928.811,-411.398 918.219,-411.179 920.394,-417.832"/>
</g>
<!-- Node3 -->
<g id="node3" class="node"><title>Node3</title>
<g id="a_node3"><a xlink:href="ParameterType_8h.html" target="_top" xlink:title="ParameterType.h">
<polygon fill="white" stroke="black" points="656,-336.5 656,-355.5 753,-355.5 753,-336.5 656,-336.5"/>
<text text-anchor="middle" x="704.5" y="-343.5" font-family="Verdana" font-size="10.00">ParameterType.h</text>
</a>
</g>
</g>
<!-- Node2&#45;&gt;Node3 -->
<g id="edge2" class="edge"><title>Node2&#45;&gt;Node3</title>
<path fill="none" stroke="midnightblue" d="M761.575,-392.324C751.325,-384.185 735.779,-371.839 723.499,-362.087"/>
<polygon fill="midnightblue" stroke="midnightblue" points="725.632,-359.312 715.624,-355.834 721.279,-364.794 725.632,-359.312"/>
</g>
<!-- Node9 -->
<g id="node9" class="node"><title>Node9</title>
<polygon fill="white" stroke="#bfbfbf" points="414.5,-0.5 414.5,-19.5 458.5,-19.5 458.5,-0.5 414.5,-0.5"/>
<text text-anchor="middle" x="436.5" y="-7.5" font-family="Verdana" font-size="10.00">string</text>
</g>
<!-- Node2&#45;&gt;Node9 -->
<g id="edge31" class="edge"><title>Node2&#45;&gt;Node9</title>
<path fill="none" stroke="midnightblue" d="M779.313,-392.458C792.777,-374.688 821.5,-331.976 821.5,-291 821.5,-291 821.5,-291 821.5,-121 821.5,-47.8638 561.395,-20.6401 468.77,-13.2642"/>
<polygon fill="midnightblue" stroke="midnightblue" points="468.821,-9.75787 458.582,-12.4798 468.284,-16.7372 468.821,-9.75787"/>
</g>
<!-- Node4 -->
<g id="node4" class="node"><title>Node4</title>
<polygon fill="white" stroke="#bfbfbf" points="143,-168.5 143,-187.5 256,-187.5 256,-168.5 143,-168.5"/>
<text text-anchor="middle" x="199.5" y="-175.5" font-family="Verdana" font-size="10.00">parameter_export.h</text>
</g>
<!-- Node3&#45;&gt;Node4 -->
<g id="edge3" class="edge"><title>Node3&#45;&gt;Node4</title>
<path fill="none" stroke="midnightblue" d="M655.77,-344.932C590.09,-343.382 470.447,-335.366 375.5,-300 310.034,-275.615 245.602,-221.586 216.14,-194.754"/>
<polygon fill="midnightblue" stroke="midnightblue" points="218.187,-191.88 208.47,-187.657 213.433,-197.018 218.187,-191.88"/>
</g>
<!-- Node5 -->
<g id="node5" class="node"><title>Node5</title>
<polygon fill="white" stroke="#bfbfbf" points="596,-56.5 596,-75.5 649,-75.5 649,-56.5 596,-56.5"/>
<text text-anchor="middle" x="622.5" y="-63.5" font-family="Verdana" font-size="10.00">stdint.h</text>
</g>
<!-- Node3&#45;&gt;Node5 -->
<g id="edge4" class="edge"><title>Node3&#45;&gt;Node5</title>
<path fill="none" stroke="midnightblue" d="M701.938,-336.249C696.751,-317.738 685.5,-273.179 685.5,-235 685.5,-235 685.5,-235 685.5,-177 685.5,-139.475 657.552,-103.139 638.885,-83.0548"/>
<polygon fill="midnightblue" stroke="midnightblue" points="641.262,-80.4771 631.796,-75.7181 636.228,-85.3414 641.262,-80.4771"/>
</g>
<!-- Node6 -->
<g id="node6" class="node"><title>Node6</title>
<polygon fill="white" stroke="#bfbfbf" points="751.5,-280.5 751.5,-299.5 793.5,-299.5 793.5,-280.5 751.5,-280.5"/>
<text text-anchor="middle" x="772.5" y="-287.5" font-family="Verdana" font-size="10.00">limits</text>
</g>
<!-- Node3&#45;&gt;Node6 -->
<g id="edge5" class="edge"><title>Node3&#45;&gt;Node6</title>
<path fill="none" stroke="midnightblue" d="M715.425,-336.324C725.675,-328.185 741.221,-315.839 753.501,-306.087"/>
<polygon fill="midnightblue" stroke="midnightblue" points="755.721,-308.794 761.376,-299.834 751.368,-303.312 755.721,-308.794"/>
</g>
<!-- Node7 -->
<g id="node7" class="node"><title>Node7</title>
<g id="a_node7"><a xlink:href="TypeElement_8h.html" target="_top" xlink:title="TypeElement.h">
<polygon fill="white" stroke="black" points="384.5,-280.5 384.5,-299.5 470.5,-299.5 470.5,-280.5 384.5,-280.5"/>
<text text-anchor="middle" x="427.5" y="-287.5" font-family="Verdana" font-size="10.00">TypeElement.h</text>
</a>
</g>
</g>
<!-- Node3&#45;&gt;Node7 -->
<g id="edge6" class="edge"><title>Node3&#45;&gt;Node7</title>
<path fill="none" stroke="midnightblue" d="M660.609,-336.444C611.84,-326.936 533.092,-311.585 480.816,-301.394"/>
<polygon fill="midnightblue" stroke="midnightblue" points="481.215,-297.906 470.73,-299.428 479.876,-304.776 481.215,-297.906"/>
</g>
<!-- Node3&#45;&gt;Node9 -->
<g id="edge30" class="edge"><title>Node3&#45;&gt;Node9</title>
<path fill="none" stroke="midnightblue" d="M707.062,-336.249C712.249,-317.738 723.5,-273.179 723.5,-235 723.5,-235 723.5,-235 723.5,-121 723.5,-79.8295 693.839,-75.3512 657.5,-56 596.069,-23.2869 513.401,-14.3069 468.603,-11.8737"/>
<polygon fill="midnightblue" stroke="midnightblue" points="468.742,-8.37643 458.589,-11.4058 468.415,-15.3688 468.742,-8.37643"/>
</g>
<!-- Node7&#45;&gt;Node4 -->
<g id="edge7" class="edge"><title>Node7&#45;&gt;Node4</title>
<path fill="none" stroke="midnightblue" d="M409.609,-280.368C369.818,-261.171 273.79,-214.842 226.599,-192.074"/>
<polygon fill="midnightblue" stroke="midnightblue" points="227.835,-188.784 217.308,-187.591 224.793,-195.089 227.835,-188.784"/>
</g>
<!-- Node8 -->
<g id="node8" class="node"><title>Node8</title>
<g id="a_node8"><a xlink:href="Element_8h.html" target="_top" xlink:title="Element.h">
<polygon fill="white" stroke="black" points="409,-224.5 409,-243.5 474,-243.5 474,-224.5 409,-224.5"/>
<text text-anchor="middle" x="441.5" y="-231.5" font-family="Verdana" font-size="10.00">Element.h</text>
</a>
</g>
</g>
<!-- Node7&#45;&gt;Node8 -->
<g id="edge8" class="edge"><title>Node7&#45;&gt;Node8</title>
<path fill="none" stroke="midnightblue" d="M429.812,-280.083C431.667,-272.927 434.335,-262.635 436.654,-253.691"/>
<polygon fill="midnightblue" stroke="midnightblue" points="440.109,-254.309 439.231,-243.751 433.334,-252.553 440.109,-254.309"/>
</g>
<!-- Node7&#45;&gt;Node9 -->
<g id="edge29" class="edge"><title>Node7&#45;&gt;Node9</title>
<path fill="none" stroke="midnightblue" d="M384.373,-288.8C317.521,-285.863 190.638,-269.219 133.5,-188 105.573,-148.303 166.752,-129.748 194.5,-112 263.996,-67.55 356.357,-35.4228 404.394,-20.444"/>
<polygon fill="midnightblue" stroke="midnightblue" points="405.694,-23.7063 414.226,-17.4256 403.639,-17.0146 405.694,-23.7063"/>
</g>
<!-- Node8&#45;&gt;Node4 -->
<g id="edge9" class="edge"><title>Node8&#45;&gt;Node4</title>
<path fill="none" stroke="midnightblue" d="M408.863,-225.717C367.429,-216.472 295.6,-200.444 247.81,-189.78"/>
<polygon fill="midnightblue" stroke="midnightblue" points="248.518,-186.352 237.996,-187.59 246.994,-193.184 248.518,-186.352"/>
</g>
<!-- Node8&#45;&gt;Node5 -->
<g id="edge12" class="edge"><title>Node8&#45;&gt;Node5</title>
<path fill="none" stroke="midnightblue" d="M474.229,-229.92C522.636,-224.613 609.642,-211.934 628.5,-188 651.839,-158.379 639.542,-110.895 630.079,-85.1007"/>
<polygon fill="midnightblue" stroke="midnightblue" points="633.334,-83.8135 626.429,-75.7774 626.815,-86.3652 633.334,-83.8135"/>
</g>
<!-- Node8&#45;&gt;Node9 -->
<g id="edge10" class="edge"><title>Node8&#45;&gt;Node9</title>
<path fill="none" stroke="midnightblue" d="M441.703,-224.373C441.913,-215.315 442.246,-200.657 442.5,-188 442.999,-163.112 443.278,-156.892 443.5,-132 443.579,-123.111 443.807,-120.884 443.5,-112 442.504,-83.2318 439.918,-49.937 438.183,-29.6805"/>
<polygon fill="midnightblue" stroke="midnightblue" points="441.663,-29.2915 437.301,-19.6362 434.69,-29.9041 441.663,-29.2915"/>
</g>
<!-- Node10 -->
<g id="node10" class="node"><title>Node10</title>
<polygon fill="white" stroke="#bfbfbf" points="492,-112.5 492,-131.5 539,-131.5 539,-112.5 492,-112.5"/>
<text text-anchor="middle" x="515.5" y="-119.5" font-family="Verdana" font-size="10.00">vector</text>
</g>
<!-- Node8&#45;&gt;Node10 -->
<g id="edge11" class="edge"><title>Node8&#45;&gt;Node10</title>
<path fill="none" stroke="midnightblue" d="M448.529,-224.219C455.59,-215.28 466.662,-200.936 475.5,-188 486.221,-172.307 497.486,-153.793 505.319,-140.547"/>
<polygon fill="midnightblue" stroke="midnightblue" points="508.539,-141.975 510.574,-131.578 502.499,-138.436 508.539,-141.975"/>
</g>
<!-- Node11 -->
<g id="node11" class="node"><title>Node11</title>
<g id="a_node11"><a xlink:href="XmlSink_8h.html" target="_top" xlink:title="XmlSink.h">
<polygon fill="white" stroke="black" points="369.5,-168.5 369.5,-187.5 433.5,-187.5 433.5,-168.5 369.5,-168.5"/>
<text text-anchor="middle" x="401.5" y="-175.5" font-family="Verdana" font-size="10.00">XmlSink.h</text>
</a>
</g>
</g>
<!-- Node8&#45;&gt;Node11 -->
<g id="edge13" class="edge"><title>Node8&#45;&gt;Node11</title>
<path fill="none" stroke="midnightblue" d="M434.895,-224.083C429.245,-216.455 420.955,-205.264 414.049,-195.941"/>
<polygon fill="midnightblue" stroke="midnightblue" points="416.747,-193.703 407.982,-187.751 411.122,-197.87 416.747,-193.703"/>
</g>
<!-- Node16 -->
<g id="node16" class="node"><title>Node16</title>
<g id="a_node16"><a xlink:href="XmlSource_8h.html" target="_top" xlink:title="XmlSource.h">
<polygon fill="white" stroke="black" points="274,-168.5 274,-187.5 351,-187.5 351,-168.5 274,-168.5"/>
<text text-anchor="middle" x="312.5" y="-175.5" font-family="Verdana" font-size="10.00">XmlSource.h</text>
</a>
</g>
</g>
<!-- Node8&#45;&gt;Node16 -->
<g id="edge22" class="edge"><title>Node8&#45;&gt;Node16</title>
<path fill="none" stroke="midnightblue" d="M421.06,-224.444C399.83,-215.557 366.401,-201.563 342.245,-191.451"/>
<polygon fill="midnightblue" stroke="midnightblue" points="343.421,-188.149 332.845,-187.516 340.718,-194.606 343.421,-188.149"/>
</g>
<!-- Node17 -->
<g id="node17" class="node"><title>Node17</title>
<g id="a_node17"><a xlink:href="PathNavigator_8h.html" target="_top" xlink:title="PathNavigator.h">
<polygon fill="white" stroke="black" points="527.5,-168.5 527.5,-187.5 619.5,-187.5 619.5,-168.5 527.5,-168.5"/>
<text text-anchor="middle" x="573.5" y="-175.5" font-family="Verdana" font-size="10.00">PathNavigator.h</text>
</a>
</g>
</g>
<!-- Node8&#45;&gt;Node17 -->
<g id="edge25" class="edge"><title>Node8&#45;&gt;Node17</title>
<path fill="none" stroke="midnightblue" d="M462.416,-224.444C484.236,-215.517 518.65,-201.439 543.392,-191.317"/>
<polygon fill="midnightblue" stroke="midnightblue" points="544.752,-194.542 552.682,-187.516 542.101,-188.063 544.752,-194.542"/>
</g>
<!-- Node12 -->
<g id="node12" class="node"><title>Node12</title>
<g id="a_node12"><a xlink:href="XmlElement_8h.html" target="_top" xlink:title="XmlElement.h">
<polygon fill="white" stroke="black" points="352,-112.5 352,-131.5 435,-131.5 435,-112.5 352,-112.5"/>
<text text-anchor="middle" x="393.5" y="-119.5" font-family="Verdana" font-size="10.00">XmlElement.h</text>
</a>
</g>
</g>
<!-- Node11&#45;&gt;Node12 -->
<g id="edge14" class="edge"><title>Node11&#45;&gt;Node12</title>
<path fill="none" stroke="midnightblue" d="M400.179,-168.083C399.119,-160.927 397.594,-150.635 396.269,-141.691"/>
<polygon fill="midnightblue" stroke="midnightblue" points="399.724,-141.13 394.796,-131.751 392.8,-142.156 399.724,-141.13"/>
</g>
<!-- Node13 -->
<g id="node13" class="node"><title>Node13</title>
<g id="a_node13"><a xlink:href="XmlSerializingContext_8h.html" target="_top" xlink:title="XmlSerializingContext.h">
<polygon fill="white" stroke="black" points="203.5,-112.5 203.5,-131.5 333.5,-131.5 333.5,-112.5 203.5,-112.5"/>
<text text-anchor="middle" x="268.5" y="-119.5" font-family="Verdana" font-size="10.00">XmlSerializingContext.h</text>
</a>
</g>
</g>
<!-- Node11&#45;&gt;Node13 -->
<g id="edge17" class="edge"><title>Node11&#45;&gt;Node13</title>
<path fill="none" stroke="midnightblue" d="M380.426,-168.444C358.44,-159.517 323.766,-145.439 298.836,-135.317"/>
<polygon fill="midnightblue" stroke="midnightblue" points="300.058,-132.035 289.476,-131.516 297.424,-138.521 300.058,-132.035"/>
</g>
<!-- Node12&#45;&gt;Node5 -->
<g id="edge15" class="edge"><title>Node12&#45;&gt;Node5</title>
<path fill="none" stroke="midnightblue" d="M429.786,-112.444C472.519,-102.367 543.093,-85.7247 585.943,-75.6203"/>
<polygon fill="midnightblue" stroke="midnightblue" points="586.756,-79.0247 595.686,-73.323 585.15,-72.2116 586.756,-79.0247"/>
</g>
<!-- Node12&#45;&gt;Node9 -->
<g id="edge16" class="edge"><title>Node12&#45;&gt;Node9</title>
<path fill="none" stroke="midnightblue" d="M396.874,-112.368C403.876,-94.4563 420.112,-52.9233 429.484,-28.9482"/>
<polygon fill="midnightblue" stroke="midnightblue" points="432.76,-30.1794 433.142,-19.5914 426.241,-27.6308 432.76,-30.1794"/>
</g>
<!-- Node13&#45;&gt;Node9 -->
<g id="edge21" class="edge"><title>Node13&#45;&gt;Node9</title>
<path fill="none" stroke="midnightblue" d="M281.683,-112.368C310.512,-93.4924 379.403,-48.385 414.757,-25.2367"/>
<polygon fill="midnightblue" stroke="midnightblue" points="416.93,-27.9975 423.379,-19.5914 413.095,-22.1412 416.93,-27.9975"/>
</g>
<!-- Node14 -->
<g id="node14" class="node"><title>Node14</title>
<g id="a_node14"><a xlink:href="ErrorContext_8hpp.html" target="_top" xlink:title="ErrorContext.hpp">
<polygon fill="white" stroke="black" points="75.5,-56.5 75.5,-75.5 173.5,-75.5 173.5,-56.5 75.5,-56.5"/>
<text text-anchor="middle" x="124.5" y="-63.5" font-family="Verdana" font-size="10.00">ErrorContext.hpp</text>
</a>
</g>
</g>
<!-- Node13&#45;&gt;Node14 -->
<g id="edge18" class="edge"><title>Node13&#45;&gt;Node14</title>
<path fill="none" stroke="midnightblue" d="M245.683,-112.444C221.668,-103.438 183.671,-89.1891 156.631,-79.049"/>
<polygon fill="midnightblue" stroke="midnightblue" points="157.803,-75.7506 147.21,-75.5164 155.345,-82.3049 157.803,-75.7506"/>
</g>
<!-- Node14&#45;&gt;Node9 -->
<g id="edge19" class="edge"><title>Node14&#45;&gt;Node9</title>
<path fill="none" stroke="midnightblue" d="M173.593,-56.5031C238.107,-45.3372 349.622,-26.0365 404.336,-16.5669"/>
<polygon fill="midnightblue" stroke="midnightblue" points="405.234,-19.9636 414.49,-14.8094 404.04,-13.0661 405.234,-19.9636"/>
</g>
<!-- Node15 -->
<g id="node15" class="node"><title>Node15</title>
<g id="a_node15"><a xlink:href="NonCopyable_8hpp.html" target="_top" xlink:title="NonCopyable.hpp">
<polygon fill="white" stroke="black" points="74,-0.5 74,-19.5 175,-19.5 175,-0.5 74,-0.5"/>
<text text-anchor="middle" x="124.5" y="-7.5" font-family="Verdana" font-size="10.00">NonCopyable.hpp</text>
</a>
</g>
</g>
<!-- Node14&#45;&gt;Node15 -->
<g id="edge20" class="edge"><title>Node14&#45;&gt;Node15</title>
<path fill="none" stroke="midnightblue" d="M124.5,-56.083C124.5,-49.0059 124.5,-38.8611 124.5,-29.9865"/>
<polygon fill="midnightblue" stroke="midnightblue" points="128,-29.751 124.5,-19.7511 121,-29.7511 128,-29.751"/>
</g>
<!-- Node16&#45;&gt;Node12 -->
<g id="edge23" class="edge"><title>Node16&#45;&gt;Node12</title>
<path fill="none" stroke="midnightblue" d="M325.514,-168.324C338.032,-159.979 357.182,-147.212 371.971,-137.352"/>
<polygon fill="midnightblue" stroke="midnightblue" points="374.139,-140.114 380.518,-131.655 370.256,-134.289 374.139,-140.114"/>
</g>
<!-- Node16&#45;&gt;Node13 -->
<g id="edge24" class="edge"><title>Node16&#45;&gt;Node13</title>
<path fill="none" stroke="midnightblue" d="M305.234,-168.083C298.955,-160.377 289.712,-149.033 282.069,-139.653"/>
<polygon fill="midnightblue" stroke="midnightblue" points="284.661,-137.293 275.631,-131.751 279.234,-141.714 284.661,-137.293"/>
</g>
<!-- Node17&#45;&gt;Node5 -->
<g id="edge28" class="edge"><title>Node17&#45;&gt;Node5</title>
<path fill="none" stroke="midnightblue" d="M577.345,-168.368C585.324,-150.456 603.825,-108.923 614.505,-84.9482"/>
<polygon fill="midnightblue" stroke="midnightblue" points="617.801,-86.1503 618.673,-75.5914 611.407,-83.3019 617.801,-86.1503"/>
</g>
<!-- Node17&#45;&gt;Node9 -->
<g id="edge27" class="edge"><title>Node17&#45;&gt;Node9</title>
<path fill="none" stroke="midnightblue" d="M571.399,-168.402C567.931,-155.36 560.109,-130.175 547.5,-112 522.369,-75.7749 481.962,-43.3097 457.455,-25.4618"/>
<polygon fill="midnightblue" stroke="midnightblue" points="459.374,-22.532 449.203,-19.5677 455.306,-28.2281 459.374,-22.532"/>
</g>
<!-- Node17&#45;&gt;Node10 -->
<g id="edge26" class="edge"><title>Node17&#45;&gt;Node10</title>
<path fill="none" stroke="midnightblue" d="M564.181,-168.324C555.607,-160.341 542.688,-148.313 532.312,-138.653"/>
<polygon fill="midnightblue" stroke="midnightblue" points="534.692,-136.086 524.988,-131.834 529.922,-141.21 534.692,-136.086"/>
</g>
<!-- Node18&#45;&gt;Node5 -->
<g id="edge33" class="edge"><title>Node18&#45;&gt;Node5</title>
<path fill="none" stroke="midnightblue" d="M147.256,-113.745C266.263,-102.04 496.331,-79.41 585.724,-70.6173"/>
<polygon fill="midnightblue" stroke="midnightblue" points="586.302,-74.0774 595.912,-69.6152 585.617,-67.111 586.302,-74.0774"/>
</g>
<!-- Node18&#45;&gt;Node9 -->
<g id="edge35" class="edge"><title>Node18&#45;&gt;Node9</title>
<path fill="none" stroke="midnightblue" d="M68.8644,-112.177C62.3272,-98.3728 52.6529,-71.6332 66.5,-56 88.7701,-30.8572 318.284,-16.8982 404.237,-12.5201"/>
<polygon fill="midnightblue" stroke="midnightblue" points="404.637,-16.0046 414.451,-12.0108 404.289,-9.01332 404.637,-16.0046"/>
</g>
<!-- Node18&#45;&gt;Node14 -->
<g id="edge34" class="edge"><title>Node18&#45;&gt;Node14</title>
<path fill="none" stroke="midnightblue" d="M81.9216,-112.083C89.3482,-104.22 100.352,-92.5688 109.312,-83.0813"/>
<polygon fill="midnightblue" stroke="midnightblue" points="111.913,-85.4244 116.235,-75.7511 106.824,-80.618 111.913,-85.4244"/>
</g>
<!-- Node19&#45;&gt;Node9 -->
<g id="edge37" class="edge"><title>Node19&#45;&gt;Node9</title>
<path fill="none" stroke="midnightblue" d="M930.655,-392.408C913.778,-385.162 891.855,-373.197 878.5,-356 860.04,-332.228 859.5,-321.098 859.5,-291 859.5,-291 859.5,-291 859.5,-121 859.5,-73.4424 818.439,-74.1953 774.5,-56 719.502,-33.2254 542.321,-18.4622 468.869,-13.1782"/>
<polygon fill="midnightblue" stroke="midnightblue" points="469.033,-9.68118 458.811,-12.4676 468.54,-16.6638 469.033,-9.68118"/>
</g>
<!-- Node20 -->
<g id="node20" class="node"><title>Node20</title>
<polygon fill="white" stroke="#bfbfbf" points="887.5,-336.5 887.5,-355.5 917.5,-355.5 917.5,-336.5 887.5,-336.5"/>
<text text-anchor="middle" x="902.5" y="-343.5" font-family="Verdana" font-size="10.00">list</text>
</g>
<!-- Node19&#45;&gt;Node20 -->
<g id="edge38" class="edge"><title>Node19&#45;&gt;Node20</title>
<path fill="none" stroke="midnightblue" d="M945.913,-392.083C938.341,-384.22 927.122,-372.569 917.986,-363.081"/>
<polygon fill="midnightblue" stroke="midnightblue" points="920.385,-360.527 910.927,-355.751 915.342,-365.382 920.385,-360.527"/>
</g>
<!-- Node21 -->
<g id="node21" class="node"><title>Node21</title>
<polygon fill="white" stroke="#bfbfbf" points="935.5,-336.5 935.5,-355.5 973.5,-355.5 973.5,-336.5 935.5,-336.5"/>
<text text-anchor="middle" x="954.5" y="-343.5" font-family="Verdana" font-size="10.00">map</text>
</g>
<!-- Node19&#45;&gt;Node21 -->
<g id="edge39" class="edge"><title>Node19&#45;&gt;Node21</title>
<path fill="none" stroke="midnightblue" d="M954.5,-392.083C954.5,-385.006 954.5,-374.861 954.5,-365.986"/>
<polygon fill="midnightblue" stroke="midnightblue" points="958,-365.751 954.5,-355.751 951,-365.751 958,-365.751"/>
</g>
<!-- Node22 -->
<g id="node22" class="node"><title>Node22</title>
<polygon fill="white" stroke="#bfbfbf" points="991.5,-336.5 991.5,-355.5 1047.5,-355.5 1047.5,-336.5 991.5,-336.5"/>
<text text-anchor="middle" x="1019.5" y="-343.5" font-family="Verdana" font-size="10.00">sstream</text>
</g>
<!-- Node19&#45;&gt;Node22 -->
<g id="edge40" class="edge"><title>Node19&#45;&gt;Node22</title>
<path fill="none" stroke="midnightblue" d="M964.943,-392.324C974.646,-384.263 989.315,-372.077 1001,-362.369"/>
<polygon fill="midnightblue" stroke="midnightblue" points="1003.41,-364.916 1008.87,-355.834 998.938,-359.532 1003.41,-364.916"/>
</g>
<!-- Node23 -->
<g id="node23" class="node"><title>Node23</title>
<polygon fill="white" stroke="#bfbfbf" points="1065.5,-336.5 1065.5,-355.5 1121.5,-355.5 1121.5,-336.5 1065.5,-336.5"/>
<text text-anchor="middle" x="1093.5" y="-343.5" font-family="Verdana" font-size="10.00">numeric</text>
</g>
<!-- Node19&#45;&gt;Node23 -->
<g id="edge41" class="edge"><title>Node19&#45;&gt;Node23</title>
<path fill="none" stroke="midnightblue" d="M976.525,-392.444C999.604,-383.478 1036.06,-369.314 1062.14,-359.183"/>
<polygon fill="midnightblue" stroke="midnightblue" points="1063.52,-362.4 1071.58,-355.516 1060.99,-355.875 1063.52,-362.4"/>
</g>
<!-- Node24 -->
<g id="node24" class="node"><title>Node24</title>
<polygon fill="white" stroke="#bfbfbf" points="1139.5,-336.5 1139.5,-355.5 1207.5,-355.5 1207.5,-336.5 1139.5,-336.5"/>
<text text-anchor="middle" x="1173.5" y="-343.5" font-family="Verdana" font-size="10.00">type_traits</text>
</g>
<!-- Node19&#45;&gt;Node24 -->
<g id="edge42" class="edge"><title>Node19&#45;&gt;Node24</title>
<path fill="none" stroke="midnightblue" d="M980.051,-394.7C1016.66,-385.673 1084.56,-368.931 1129.39,-357.878"/>
<polygon fill="midnightblue" stroke="midnightblue" points="1130.27,-361.265 1139.14,-355.473 1128.59,-354.469 1130.27,-361.265"/>
</g>
</g>
</svg>
