<?xml version="1.0" encoding="UTF-8" standalone="no"?>
<!DOCTYPE svg PUBLIC "-//W3C//DTD SVG 1.1//EN"
 "http://www.w3.org/Graphics/SVG/1.1/DTD/svg11.dtd">
<!-- Generated by graphviz version 2.38.0 (20140413.2041)
 -->
<!-- Title: CParameterMgrFullConnector::importSingleDomainXml Pages: 1 -->
<svg width="1001pt" height="154pt"
 viewBox="0.00 0.00 1001.00 154.00" xmlns="http://www.w3.org/2000/svg" xmlns:xlink="http://www.w3.org/1999/xlink">
<g id="graph0" class="graph" transform="scale(1 1) rotate(0) translate(4 150)">
<title>CParameterMgrFullConnector::importSingleDomainXml</title>
<polygon fill="white" stroke="none" points="-4,4 -4,-150 997,-150 997,4 -4,4"/>
<!-- Node1 -->
<g id="node1" class="node"><title>Node1</title>
<polygon fill="#bfbfbf" stroke="black" points="0,-61 0,-91 156,-91 156,-61 0,-61"/>
<text text-anchor="start" x="8" y="-79" font-family="Verdana" font-size="10.00">CParameterMgrFullConnector</text>
<text text-anchor="middle" x="78" y="-68" font-family="Verdana" font-size="10.00">::importSingleDomainXml</text>
</g>
<!-- Node2 -->
<g id="node2" class="node"><title>Node2</title>
<g id="a_node2"><a xlink:href="classCParameterMgr.html#a3b70c39ad6c10dfb6635f60e49f1c797" target="_top" xlink:title="Method that imports a single Configurable Domain from an Xml source. ">
<polygon fill="white" stroke="black" points="192,-61 192,-91 350,-91 350,-61 192,-61"/>
<text text-anchor="start" x="200" y="-79" font-family="Verdana" font-size="10.00">CParameterMgr::importSingle</text>
<text text-anchor="middle" x="271" y="-68" font-family="Verdana" font-size="10.00">DomainXml</text>
</a>
</g>
</g>
<!-- Node1&#45;&gt;Node2 -->
<g id="edge1" class="edge"><title>Node1&#45;&gt;Node2</title>
<path fill="none" stroke="midnightblue" d="M156.136,-76C164.62,-76 173.304,-76 181.908,-76"/>
<polygon fill="midnightblue" stroke="midnightblue" points="181.954,-79.5001 191.954,-76 181.954,-72.5001 181.954,-79.5001"/>
</g>
<!-- Node3 -->
<g id="node3" class="node"><title>Node3</title>
<g id="a_node3"><a xlink:href="classCConfigurableDomains.html#a35d3b509ee35cb374fc7a2d1b678c203" target="_top" xlink:title="CConfigurableDomains\l::addDomain">
<polygon fill="white" stroke="black" points="386,-61 386,-91 512,-91 512,-61 386,-61"/>
<text text-anchor="start" x="394" y="-79" font-family="Verdana" font-size="10.00">CConfigurableDomains</text>
<text text-anchor="middle" x="449" y="-68" font-family="Verdana" font-size="10.00">::addDomain</text>
</a>
</g>
</g>
<!-- Node2&#45;&gt;Node3 -->
<g id="edge2" class="edge"><title>Node2&#45;&gt;Node3</title>
<path fill="none" stroke="midnightblue" d="M350.221,-76C358.706,-76 367.314,-76 375.724,-76"/>
<polygon fill="midnightblue" stroke="midnightblue" points="375.862,-79.5001 385.862,-76 375.862,-72.5001 375.862,-79.5001"/>
</g>
<!-- Node4 -->
<g id="node4" class="node"><title>Node4</title>
<g id="a_node4"><a xlink:href="classCElement.html#a49581fb6412e29e932962acd82d52d6a" target="_top" xlink:title="CElement::getName">
<polygon fill="white" stroke="black" points="554,-126.5 554,-145.5 668,-145.5 668,-126.5 554,-126.5"/>
<text text-anchor="middle" x="611" y="-133.5" font-family="Verdana" font-size="10.00">CElement::getName</text>
</a>
</g>
</g>
<!-- Node3&#45;&gt;Node4 -->
<g id="edge3" class="edge"><title>Node3&#45;&gt;Node4</title>
<path fill="none" stroke="midnightblue" d="M490.375,-91.1405C516.527,-100.948 550.238,-113.589 575.205,-122.952"/>
<polygon fill="midnightblue" stroke="midnightblue" points="574.055,-126.259 584.648,-126.493 576.513,-119.704 574.055,-126.259"/>
</g>
<!-- Node5 -->
<g id="node5" class="node"><title>Node5</title>
<g id="a_node5"><a xlink:href="classCConfigurableDomains.html#a4dce38a1560b6e33871d3fa2d85cc449" target="_top" xlink:title="CConfigurableDomains\l::findConfigurableDomain">
<polygon fill="white" stroke="black" points="710,-61 710,-91 847,-91 847,-61 710,-61"/>
<text text-anchor="start" x="718" y="-79" font-family="Verdana" font-size="10.00">CConfigurableDomains</text>
<text text-anchor="middle" x="778.5" y="-68" font-family="Verdana" font-size="10.00">::findConfigurableDomain</text>
</a>
</g>
</g>
<!-- Node3&#45;&gt;Node5 -->
<g id="edge4" class="edge"><title>Node3&#45;&gt;Node5</title>
<path fill="none" stroke="midnightblue" d="M512.205,-78.1909C524.087,-78.5282 536.426,-78.8229 548,-79 603.993,-79.8568 618.006,-79.8113 674,-79 682.333,-78.8793 691.042,-78.7039 699.718,-78.4976"/>
<polygon fill="midnightblue" stroke="midnightblue" points="699.953,-81.9929 709.862,-78.2426 699.777,-74.9951 699.953,-81.9929"/>
</g>
<!-- Node7 -->
<g id="node7" class="node"><title>Node7</title>
<g id="a_node7"><a xlink:href="classCConfigurableDomains.html#a26ae82c8fd65751062ea4fcffa69944f" target="_top" xlink:title="Delete a domain by name. ">
<polygon fill="white" stroke="black" points="548,-39 548,-69 674,-69 674,-39 548,-39"/>
<text text-anchor="start" x="556" y="-57" font-family="Verdana" font-size="10.00">CConfigurableDomains</text>
<text text-anchor="middle" x="611" y="-46" font-family="Verdana" font-size="10.00">::deleteDomain</text>
</a>
</g>
</g>
<!-- Node3&#45;&gt;Node7 -->
<g id="edge6" class="edge"><title>Node3&#45;&gt;Node7</title>
<path fill="none" stroke="midnightblue" d="M512.318,-67.4312C520.706,-66.2779 529.367,-65.087 537.907,-63.9129"/>
<polygon fill="midnightblue" stroke="midnightblue" points="538.422,-67.375 547.852,-62.5454 537.468,-60.4403 538.422,-67.375"/>
</g>
<!-- Node8 -->
<g id="node8" class="node"><title>Node8</title>
<g id="a_node8"><a xlink:href="classCElement.html#ac2ad66ee438a4a0c1390b7388874fe72" target="_top" xlink:title="CElement::addChild">
<polygon fill="white" stroke="black" points="556,-0.5 556,-19.5 666,-19.5 666,-0.5 556,-0.5"/>
<text text-anchor="middle" x="611" y="-7.5" font-family="Verdana" font-size="10.00">CElement::addChild</text>
</a>
</g>
</g>
<!-- Node3&#45;&gt;Node8 -->
<g id="edge8" class="edge"><title>Node3&#45;&gt;Node8</title>
<path fill="none" stroke="midnightblue" d="M479.593,-60.9083C498.817,-51.4057 524.569,-39.2352 548,-30 554.433,-27.4643 561.33,-24.999 568.102,-22.7151"/>
<polygon fill="midnightblue" stroke="midnightblue" points="569.456,-25.9547 577.866,-19.5117 567.273,-19.3036 569.456,-25.9547"/>
</g>
<!-- Node6 -->
<g id="node6" class="node"><title>Node6</title>
<g id="a_node6"><a xlink:href="classCElement.html#a8595814a3159f32f874269907e70b260" target="_top" xlink:title="CElement::findChild">
<polygon fill="white" stroke="black" points="883,-66.5 883,-85.5 993,-85.5 993,-66.5 883,-66.5"/>
<text text-anchor="middle" x="938" y="-73.5" font-family="Verdana" font-size="10.00">CElement::findChild</text>
</a>
</g>
</g>
<!-- Node5&#45;&gt;Node6 -->
<g id="edge5" class="edge"><title>Node5&#45;&gt;Node6</title>
<path fill="none" stroke="midnightblue" d="M847.208,-76C855.625,-76 864.214,-76 872.579,-76"/>
<polygon fill="midnightblue" stroke="midnightblue" points="872.646,-79.5001 882.646,-76 872.646,-72.5001 872.646,-79.5001"/>
</g>
<!-- Node7&#45;&gt;Node5 -->
<g id="edge7" class="edge"><title>Node7&#45;&gt;Node5</title>
<path fill="none" stroke="midnightblue" d="M674.097,-62.2546C682.469,-63.3675 691.143,-64.5205 699.745,-65.6639"/>
<polygon fill="midnightblue" stroke="midnightblue" points="699.413,-69.1505 709.787,-66.9988 700.335,-62.2115 699.413,-69.1505"/>
</g>
</g>
</svg>
