<?xml version="1.0" encoding="UTF-8" standalone="no"?>
<!DOCTYPE svg PUBLIC "-//W3C//DTD SVG 1.1//EN"
 "http://www.w3.org/Graphics/SVG/1.1/DTD/svg11.dtd">
<!-- Generated by graphviz version 2.38.0 (20140413.2041)
 -->
<!-- Title: CFrameworkConfigurationGroup Pages: 1 -->
<svg width="176pt" height="196pt"
 viewBox="0.00 0.00 176.00 196.00" xmlns="http://www.w3.org/2000/svg" xmlns:xlink="http://www.w3.org/1999/xlink">
<g id="graph0" class="graph" transform="scale(1 1) rotate(0) translate(4 192)">
<title>CFrameworkConfigurationGroup</title>
<polygon fill="white" stroke="none" points="-4,4 -4,-192 172,-192 172,4 -4,4"/>
<!-- Node1 -->
<g id="node1" class="node"><title>Node1</title>
<polygon fill="#bfbfbf" stroke="black" points="-1.42109e-14,-0.5 -1.42109e-14,-19.5 168,-19.5 168,-0.5 -1.42109e-14,-0.5"/>
<text text-anchor="middle" x="84" y="-7.5" font-family="Verdana" font-size="10.00">CFrameworkConfigurationGroup</text>
</g>
<!-- Node2 -->
<g id="node2" class="node"><title>Node2</title>
<g id="a_node2"><a xlink:href="classCKindElement.html" target="_top" xlink:title="CKindElement">
<polygon fill="white" stroke="black" points="42.5,-56.5 42.5,-75.5 125.5,-75.5 125.5,-56.5 42.5,-56.5"/>
<text text-anchor="middle" x="84" y="-63.5" font-family="Verdana" font-size="10.00">CKindElement</text>
</a>
</g>
</g>
<!-- Node2&#45;&gt;Node1 -->
<g id="edge1" class="edge"><title>Node2&#45;&gt;Node1</title>
<path fill="none" stroke="midnightblue" d="M84,-45.8045C84,-36.9102 84,-26.7798 84,-19.7511"/>
<polygon fill="midnightblue" stroke="midnightblue" points="80.5001,-46.083 84,-56.083 87.5001,-46.083 80.5001,-46.083"/>
</g>
<!-- Node3 -->
<g id="node3" class="node"><title>Node3</title>
<g id="a_node3"><a xlink:href="classCElement.html" target="_top" xlink:title="CElement">
<polygon fill="white" stroke="black" points="52.5,-112.5 52.5,-131.5 115.5,-131.5 115.5,-112.5 52.5,-112.5"/>
<text text-anchor="middle" x="84" y="-119.5" font-family="Verdana" font-size="10.00">CElement</text>
</a>
</g>
</g>
<!-- Node3&#45;&gt;Node2 -->
<g id="edge2" class="edge"><title>Node3&#45;&gt;Node2</title>
<path fill="none" stroke="midnightblue" d="M84,-101.805C84,-92.9102 84,-82.7798 84,-75.7511"/>
<polygon fill="midnightblue" stroke="midnightblue" points="80.5001,-102.083 84,-112.083 87.5001,-102.083 80.5001,-102.083"/>
</g>
<!-- Node4 -->
<g id="node4" class="node"><title>Node4</title>
<polygon fill="white" stroke="#bfbfbf" points="14.5,-168.5 14.5,-187.5 71.5,-187.5 71.5,-168.5 14.5,-168.5"/>
<text text-anchor="middle" x="43" y="-175.5" font-family="Verdana" font-size="10.00">IXmlSink</text>
</g>
<!-- Node4&#45;&gt;Node3 -->
<g id="edge3" class="edge"><title>Node4&#45;&gt;Node3</title>
<path fill="none" stroke="midnightblue" d="M56.0172,-159.855C63.1167,-150.505 71.604,-139.327 77.3557,-131.751"/>
<polygon fill="midnightblue" stroke="midnightblue" points="53.0299,-158.002 49.7703,-168.083 58.605,-162.235 53.0299,-158.002"/>
</g>
<!-- Node5 -->
<g id="node5" class="node"><title>Node5</title>
<polygon fill="white" stroke="#bfbfbf" points="89.5,-168.5 89.5,-187.5 160.5,-187.5 160.5,-168.5 89.5,-168.5"/>
<text text-anchor="middle" x="125" y="-175.5" font-family="Verdana" font-size="10.00">IXmlSource</text>
</g>
<!-- Node5&#45;&gt;Node3 -->
<g id="edge4" class="edge"><title>Node5&#45;&gt;Node3</title>
<path fill="none" stroke="midnightblue" d="M111.983,-159.855C104.883,-150.505 96.396,-139.327 90.6443,-131.751"/>
<polygon fill="midnightblue" stroke="midnightblue" points="109.395,-162.235 118.23,-168.083 114.97,-158.002 109.395,-162.235"/>
</g>
</g>
</svg>
