<?xml version="1.0" encoding="UTF-8" standalone="no"?>
<!DOCTYPE svg PUBLIC "-//W3C//DTD SVG 1.1//EN"
 "http://www.w3.org/Graphics/SVG/1.1/DTD/svg11.dtd">
<!-- Generated by graphviz version 2.38.0 (20140413.2041)
 -->
<!-- Title: CParameterMgrFullConnector::setSequenceAwareness Pages: 1 -->
<svg width="857pt" height="115pt"
 viewBox="0.00 0.00 857.00 114.50" xmlns="http://www.w3.org/2000/svg" xmlns:xlink="http://www.w3.org/1999/xlink">
<g id="graph0" class="graph" transform="scale(1 1) rotate(0) translate(4 110.5)">
<title>CParameterMgrFullConnector::setSequenceAwareness</title>
<polygon fill="white" stroke="none" points="-4,4 -4,-110.5 853,-110.5 853,4 -4,4"/>
<!-- Node1 -->
<g id="node1" class="node"><title>Node1</title>
<polygon fill="#bfbfbf" stroke="black" points="0,-51 0,-81 156,-81 156,-51 0,-51"/>
<text text-anchor="start" x="8" y="-69" font-family="Verdana" font-size="10.00">CParameterMgrFullConnector</text>
<text text-anchor="middle" x="78" y="-58" font-family="Verdana" font-size="10.00">::setSequenceAwareness</text>
</g>
<!-- Node2 -->
<g id="node2" class="node"><title>Node2</title>
<g id="a_node2"><a xlink:href="classCParameterMgr.html#a8392607ed686806362c9a8882a471553" target="_top" xlink:title="CParameterMgr::setSequence\lAwareness">
<polygon fill="white" stroke="black" points="192,-51 192,-81 353,-81 353,-51 192,-51"/>
<text text-anchor="start" x="200" y="-69" font-family="Verdana" font-size="10.00">CParameterMgr::setSequence</text>
<text text-anchor="middle" x="272.5" y="-58" font-family="Verdana" font-size="10.00">Awareness</text>
</a>
</g>
</g>
<!-- Node1&#45;&gt;Node2 -->
<g id="edge1" class="edge"><title>Node1&#45;&gt;Node2</title>
<path fill="none" stroke="midnightblue" d="M156.188,-66C164.517,-66 173.044,-66 181.506,-66"/>
<polygon fill="midnightblue" stroke="midnightblue" points="181.779,-69.5001 191.779,-66 181.779,-62.5001 181.779,-69.5001"/>
</g>
<!-- Node3 -->
<g id="node3" class="node"><title>Node3</title>
<g id="a_node3"><a xlink:href="classCConfigurableDomains.html#aa41f38a45f556c4b6c3c80609d8ad2b1" target="_top" xlink:title="CConfigurableDomains\l::setSequenceAwareness">
<polygon fill="white" stroke="black" points="389,-51 389,-81 526,-81 526,-51 389,-51"/>
<text text-anchor="start" x="397" y="-69" font-family="Verdana" font-size="10.00">CConfigurableDomains</text>
<text text-anchor="middle" x="457.5" y="-58" font-family="Verdana" font-size="10.00">::setSequenceAwareness</text>
</a>
</g>
</g>
<!-- Node2&#45;&gt;Node3 -->
<g id="edge2" class="edge"><title>Node2&#45;&gt;Node3</title>
<path fill="none" stroke="midnightblue" d="M353.234,-66C361.657,-66 370.214,-66 378.616,-66"/>
<polygon fill="midnightblue" stroke="midnightblue" points="378.766,-69.5001 388.766,-66 378.766,-62.5001 378.766,-69.5001"/>
</g>
<!-- Node4 -->
<g id="node4" class="node"><title>Node4</title>
<g id="a_node4"><a xlink:href="classCConfigurableDomains.html#a4dce38a1560b6e33871d3fa2d85cc449" target="_top" xlink:title="CConfigurableDomains\l::findConfigurableDomain">
<polygon fill="white" stroke="black" points="562,-76 562,-106 699,-106 699,-76 562,-76"/>
<text text-anchor="start" x="570" y="-94" font-family="Verdana" font-size="10.00">CConfigurableDomains</text>
<text text-anchor="middle" x="630.5" y="-83" font-family="Verdana" font-size="10.00">::findConfigurableDomain</text>
</a>
</g>
</g>
<!-- Node3&#45;&gt;Node4 -->
<g id="edge3" class="edge"><title>Node3&#45;&gt;Node4</title>
<path fill="none" stroke="midnightblue" d="M526.084,-75.8807C534.538,-77.1167 543.237,-78.3885 551.83,-79.6447"/>
<polygon fill="midnightblue" stroke="midnightblue" points="551.446,-83.1257 561.847,-81.1092 552.459,-76.1994 551.446,-83.1257"/>
</g>
<!-- Node6 -->
<g id="node6" class="node"><title>Node6</title>
<g id="a_node6"><a xlink:href="classCConfigurableDomain.html#a3a77775be8a0df31842b5857a238789e" target="_top" xlink:title="CConfigurableDomain\l::setSequenceAwareness">
<polygon fill="white" stroke="black" points="562,-27 562,-57 699,-57 699,-27 562,-27"/>
<text text-anchor="start" x="570" y="-45" font-family="Verdana" font-size="10.00">CConfigurableDomain</text>
<text text-anchor="middle" x="630.5" y="-34" font-family="Verdana" font-size="10.00">::setSequenceAwareness</text>
</a>
</g>
</g>
<!-- Node3&#45;&gt;Node6 -->
<g id="edge5" class="edge"><title>Node3&#45;&gt;Node6</title>
<path fill="none" stroke="midnightblue" d="M526.084,-56.5146C534.538,-55.328 543.237,-54.1071 551.83,-52.9011"/>
<polygon fill="midnightblue" stroke="midnightblue" points="552.431,-56.3511 561.847,-51.4951 551.458,-49.4191 552.431,-56.3511"/>
</g>
<!-- Node5 -->
<g id="node5" class="node"><title>Node5</title>
<g id="a_node5"><a xlink:href="classCElement.html#a8595814a3159f32f874269907e70b260" target="_top" xlink:title="CElement::findChild">
<polygon fill="white" stroke="black" points="737,-81.5 737,-100.5 847,-100.5 847,-81.5 737,-81.5"/>
<text text-anchor="middle" x="792" y="-88.5" font-family="Verdana" font-size="10.00">CElement::findChild</text>
</a>
</g>
</g>
<!-- Node4&#45;&gt;Node5 -->
<g id="edge4" class="edge"><title>Node4&#45;&gt;Node5</title>
<path fill="none" stroke="midnightblue" d="M699.142,-91C708.272,-91 717.619,-91 726.689,-91"/>
<polygon fill="midnightblue" stroke="midnightblue" points="726.785,-94.5001 736.785,-91 726.785,-87.5001 726.785,-94.5001"/>
</g>
<!-- Node7 -->
<g id="node7" class="node"><title>Node7</title>
<g id="a_node7"><a xlink:href="classCElement.html#a1dee87366d307b43bf8851dd2614c160" target="_top" xlink:title="CElement::log_info">
<polygon fill="white" stroke="black" points="739,-38.5 739,-57.5 845,-57.5 845,-38.5 739,-38.5"/>
<text text-anchor="middle" x="792" y="-45.5" font-family="Verdana" font-size="10.00">CElement::log_info</text>
</a>
</g>
</g>
<!-- Node6&#45;&gt;Node7 -->
<g id="edge6" class="edge"><title>Node6&#45;&gt;Node7</title>
<path fill="none" stroke="midnightblue" d="M699.142,-44.5445C708.869,-44.9104 718.842,-45.2856 728.464,-45.6476"/>
<polygon fill="midnightblue" stroke="midnightblue" points="728.615,-49.1556 738.739,-46.0341 728.878,-42.1605 728.615,-49.1556"/>
</g>
<!-- Node8 -->
<g id="node8" class="node"><title>Node8</title>
<g id="a_node8"><a xlink:href="classCElement.html#a49581fb6412e29e932962acd82d52d6a" target="_top" xlink:title="CElement::getName">
<polygon fill="white" stroke="black" points="735,-0.5 735,-19.5 849,-19.5 849,-0.5 735,-0.5"/>
<text text-anchor="middle" x="792" y="-7.5" font-family="Verdana" font-size="10.00">CElement::getName</text>
</a>
</g>
</g>
<!-- Node6&#45;&gt;Node8 -->
<g id="edge7" class="edge"><title>Node6&#45;&gt;Node8</title>
<path fill="none" stroke="midnightblue" d="M699.142,-28.4291C710.583,-26.1337 722.365,-23.7701 733.515,-21.533"/>
<polygon fill="midnightblue" stroke="midnightblue" points="734.434,-24.9186 743.55,-19.5198 733.056,-18.0554 734.434,-24.9186"/>
</g>
</g>
</svg>
