<?xml version="1.0" encoding="UTF-8" standalone="no"?>
<!DOCTYPE svg PUBLIC "-//W3C//DTD SVG 1.1//EN"
 "http://www.w3.org/Graphics/SVG/1.1/DTD/svg11.dtd">
<!-- Generated by graphviz version 2.38.0 (20140413.2041)
 -->
<!-- Title: CConfigurableDomain::isApplicableConfigurationValid Pages: 1 -->
<svg width="458pt" height="50pt"
 viewBox="0.00 0.00 458.00 50.00" xmlns="http://www.w3.org/2000/svg" xmlns:xlink="http://www.w3.org/1999/xlink">
<g id="graph0" class="graph" transform="scale(1 1) rotate(0) translate(4 46)">
<title>CConfigurableDomain::isApplicableConfigurationValid</title>
<polygon fill="white" stroke="none" points="-4,4 -4,-46 454,-46 454,4 -4,4"/>
<!-- Node1 -->
<g id="node1" class="node"><title>Node1</title>
<polygon fill="#bfbfbf" stroke="black" points="0,-0.5 0,-41.5 143,-41.5 143,-0.5 0,-0.5"/>
<text text-anchor="start" x="8" y="-29.5" font-family="Verdana" font-size="10.00">CConfigurableDomain</text>
<text text-anchor="start" x="8" y="-18.5" font-family="Verdana" font-size="10.00">::isApplicableConfiguration</text>
<text text-anchor="middle" x="71.5" y="-7.5" font-family="Verdana" font-size="10.00">Valid</text>
</g>
<!-- Node2 -->
<g id="node2" class="node"><title>Node2</title>
<g id="a_node2"><a xlink:href="classCDomainConfiguration.html#ad5929cbe47434a4b6c9195c0a27723f6" target="_top" xlink:title="CDomainConfiguration\l::isValid">
<polygon fill="white" stroke="black" points="179,-6 179,-36 304,-36 304,-6 179,-6"/>
<text text-anchor="start" x="187" y="-24" font-family="Verdana" font-size="10.00">CDomainConfiguration</text>
<text text-anchor="middle" x="241.5" y="-13" font-family="Verdana" font-size="10.00">::isValid</text>
</a>
</g>
</g>
<!-- Node1&#45;&gt;Node2 -->
<g id="edge1" class="edge"><title>Node1&#45;&gt;Node2</title>
<path fill="none" stroke="midnightblue" d="M143.26,-21C151.676,-21 160.273,-21 168.703,-21"/>
<polygon fill="midnightblue" stroke="midnightblue" points="168.878,-24.5001 178.878,-21 168.878,-17.5001 168.878,-24.5001"/>
</g>
<!-- Node3 -->
<g id="node3" class="node"><title>Node3</title>
<g id="a_node3"><a xlink:href="classCAreaConfiguration.html#a0154cd24ffc0127b9038546ab2657917" target="_top" xlink:title="CAreaConfiguration\l::isValid">
<polygon fill="white" stroke="black" points="340,-6 340,-36 450,-36 450,-6 340,-6"/>
<text text-anchor="start" x="348" y="-24" font-family="Verdana" font-size="10.00">CAreaConfiguration</text>
<text text-anchor="middle" x="395" y="-13" font-family="Verdana" font-size="10.00">::isValid</text>
</a>
</g>
</g>
<!-- Node2&#45;&gt;Node3 -->
<g id="edge2" class="edge"><title>Node2&#45;&gt;Node3</title>
<path fill="none" stroke="midnightblue" d="M304.121,-21C312.508,-21 321.134,-21 329.568,-21"/>
<polygon fill="midnightblue" stroke="midnightblue" points="329.733,-24.5001 339.733,-21 329.733,-17.5001 329.733,-24.5001"/>
</g>
</g>
</svg>
