<?xml version="1.0" encoding="UTF-8" standalone="no"?>
<!DOCTYPE svg PUBLIC "-//W3C//DTD SVG 1.1//EN"
 "http://www.w3.org/Graphics/SVG/1.1/DTD/svg11.dtd">
<!-- Generated by graphviz version 2.38.0 (20140413.2041)
 -->
<!-- Title: CConfigurableDomains::renameDomain Pages: 1 -->
<svg width="480pt" height="189pt"
 viewBox="0.00 0.00 480.00 188.50" xmlns="http://www.w3.org/2000/svg" xmlns:xlink="http://www.w3.org/1999/xlink">
<g id="graph0" class="graph" transform="scale(1 1) rotate(0) translate(4 184.5)">
<title>CConfigurableDomains::renameDomain</title>
<polygon fill="white" stroke="none" points="-4,4 -4,-184.5 476,-184.5 476,4 -4,4"/>
<!-- Node1 -->
<g id="node1" class="node"><title>Node1</title>
<polygon fill="#bfbfbf" stroke="black" points="0,-106 0,-136 126,-136 126,-106 0,-106"/>
<text text-anchor="start" x="8" y="-124" font-family="Verdana" font-size="10.00">CConfigurableDomains</text>
<text text-anchor="middle" x="63" y="-113" font-family="Verdana" font-size="10.00">::renameDomain</text>
</g>
<!-- Node2 -->
<g id="node2" class="node"><title>Node2</title>
<g id="a_node2"><a xlink:href="classCConfigurableDomains.html#a4dce38a1560b6e33871d3fa2d85cc449" target="_top" xlink:title="CConfigurableDomains\l::findConfigurableDomain">
<polygon fill="white" stroke="black" points="162,-150 162,-180 299,-180 299,-150 162,-150"/>
<text text-anchor="start" x="170" y="-168" font-family="Verdana" font-size="10.00">CConfigurableDomains</text>
<text text-anchor="middle" x="230.5" y="-157" font-family="Verdana" font-size="10.00">::findConfigurableDomain</text>
</a>
</g>
</g>
<!-- Node1&#45;&gt;Node2 -->
<g id="edge1" class="edge"><title>Node1&#45;&gt;Node2</title>
<path fill="none" stroke="midnightblue" d="M120.493,-136.019C134.264,-139.68 149.117,-143.629 163.295,-147.399"/>
<polygon fill="midnightblue" stroke="midnightblue" points="162.417,-150.787 172.981,-149.974 164.216,-144.022 162.417,-150.787"/>
</g>
<!-- Node4 -->
<g id="node4" class="node"><title>Node4</title>
<g id="a_node4"><a xlink:href="classCElement.html#a1dee87366d307b43bf8851dd2614c160" target="_top" xlink:title="CElement::log_info">
<polygon fill="white" stroke="black" points="177.5,-111.5 177.5,-130.5 283.5,-130.5 283.5,-111.5 177.5,-111.5"/>
<text text-anchor="middle" x="230.5" y="-118.5" font-family="Verdana" font-size="10.00">CElement::log_info</text>
</a>
</g>
</g>
<!-- Node1&#45;&gt;Node4 -->
<g id="edge3" class="edge"><title>Node1&#45;&gt;Node4</title>
<path fill="none" stroke="midnightblue" d="M126.097,-121C139.546,-121 153.772,-121 167.227,-121"/>
<polygon fill="midnightblue" stroke="midnightblue" points="167.341,-124.5 177.341,-121 167.341,-117.5 167.341,-124.5"/>
</g>
<!-- Node5 -->
<g id="node5" class="node"><title>Node5</title>
<g id="a_node5"><a xlink:href="classCElement.html#aa09118f89e5b3208ee92d0ec51151ccf" target="_top" xlink:title="CElement::rename">
<polygon fill="white" stroke="black" points="177,-73.5 177,-92.5 284,-92.5 284,-73.5 177,-73.5"/>
<text text-anchor="middle" x="230.5" y="-80.5" font-family="Verdana" font-size="10.00">CElement::rename</text>
</a>
</g>
</g>
<!-- Node1&#45;&gt;Node5 -->
<g id="edge4" class="edge"><title>Node1&#45;&gt;Node5</title>
<path fill="none" stroke="midnightblue" d="M126.097,-106.742C143.111,-102.835 161.37,-98.6431 177.738,-94.8849"/>
<polygon fill="midnightblue" stroke="midnightblue" points="178.694,-98.2566 187.657,-92.6074 177.128,-91.4341 178.694,-98.2566"/>
</g>
<!-- Node3 -->
<g id="node3" class="node"><title>Node3</title>
<g id="a_node3"><a xlink:href="classCElement.html#a8595814a3159f32f874269907e70b260" target="_top" xlink:title="CElement::findChild">
<polygon fill="white" stroke="black" points="348.5,-155.5 348.5,-174.5 458.5,-174.5 458.5,-155.5 348.5,-155.5"/>
<text text-anchor="middle" x="403.5" y="-162.5" font-family="Verdana" font-size="10.00">CElement::findChild</text>
</a>
</g>
</g>
<!-- Node2&#45;&gt;Node3 -->
<g id="edge2" class="edge"><title>Node2&#45;&gt;Node3</title>
<path fill="none" stroke="midnightblue" d="M299.084,-165C311.975,-165 325.434,-165 338.219,-165"/>
<polygon fill="midnightblue" stroke="midnightblue" points="338.303,-168.5 348.303,-165 338.303,-161.5 338.303,-168.5"/>
</g>
<!-- Node6 -->
<g id="node6" class="node"><title>Node6</title>
<g id="a_node6"><a xlink:href="classCElement.html#a58b6cdb5715497442fde6afa1e65f8e5" target="_top" xlink:title="CElement::getNbChildren">
<polygon fill="white" stroke="black" points="335,-114.5 335,-133.5 472,-133.5 472,-114.5 335,-114.5"/>
<text text-anchor="middle" x="403.5" y="-121.5" font-family="Verdana" font-size="10.00">CElement::getNbChildren</text>
</a>
</g>
</g>
<!-- Node5&#45;&gt;Node6 -->
<g id="edge5" class="edge"><title>Node5&#45;&gt;Node6</title>
<path fill="none" stroke="midnightblue" d="M271.161,-92.5093C295.462,-98.3358 326.777,-105.844 352.734,-112.068"/>
<polygon fill="midnightblue" stroke="midnightblue" points="352.218,-115.543 362.759,-114.471 353.85,-108.736 352.218,-115.543"/>
</g>
<!-- Node7 -->
<g id="node7" class="node"><title>Node7</title>
<g id="a_node7"><a xlink:href="classCElement.html#a9bba10d2dc72821589a898e16ace9ae5" target="_top" xlink:title="Get a child element (const) ">
<polygon fill="white" stroke="black" points="349.5,-76.5 349.5,-95.5 457.5,-95.5 457.5,-76.5 349.5,-76.5"/>
<text text-anchor="middle" x="403.5" y="-83.5" font-family="Verdana" font-size="10.00">CElement::getChild</text>
</a>
</g>
</g>
<!-- Node5&#45;&gt;Node7 -->
<g id="edge6" class="edge"><title>Node5&#45;&gt;Node7</title>
<path fill="none" stroke="midnightblue" d="M284.201,-83.9246C301.591,-84.2297 321.114,-84.5722 339.211,-84.8897"/>
<polygon fill="midnightblue" stroke="midnightblue" points="339.324,-88.3921 349.384,-85.0681 339.447,-81.3932 339.324,-88.3921"/>
</g>
<!-- Node8 -->
<g id="node8" class="node"><title>Node8</title>
<g id="a_node8"><a xlink:href="classCElement.html#a49581fb6412e29e932962acd82d52d6a" target="_top" xlink:title="CElement::getName">
<polygon fill="white" stroke="black" points="346.5,-38.5 346.5,-57.5 460.5,-57.5 460.5,-38.5 346.5,-38.5"/>
<text text-anchor="middle" x="403.5" y="-45.5" font-family="Verdana" font-size="10.00">CElement::getName</text>
</a>
</g>
</g>
<!-- Node5&#45;&gt;Node8 -->
<g id="edge7" class="edge"><title>Node5&#45;&gt;Node8</title>
<path fill="none" stroke="midnightblue" d="M278.227,-73.4361C299.15,-69.1534 324.005,-64.0663 345.967,-59.5711"/>
<polygon fill="midnightblue" stroke="midnightblue" points="346.735,-62.9865 355.83,-57.5523 345.331,-56.1287 346.735,-62.9865"/>
</g>
<!-- Node9 -->
<g id="node9" class="node"><title>Node9</title>
<g id="a_node9"><a xlink:href="classCElement.html#a9018d33125b066d6cd791659af95c6fe" target="_top" xlink:title="CElement::setName">
<polygon fill="white" stroke="black" points="347,-0.5 347,-19.5 460,-19.5 460,-0.5 347,-0.5"/>
<text text-anchor="middle" x="403.5" y="-7.5" font-family="Verdana" font-size="10.00">CElement::setName</text>
</a>
</g>
</g>
<!-- Node5&#45;&gt;Node9 -->
<g id="edge8" class="edge"><title>Node5&#45;&gt;Node9</title>
<path fill="none" stroke="midnightblue" d="M247.499,-73.3201C267.427,-61.5798 302.785,-41.7789 335,-29 340.941,-26.6433 347.284,-24.4542 353.615,-22.463"/>
<polygon fill="midnightblue" stroke="midnightblue" points="354.919,-25.7259 363.493,-19.5012 352.909,-19.0208 354.919,-25.7259"/>
</g>
</g>
</svg>
