<?xml version="1.0" encoding="UTF-8" standalone="no"?>
<!DOCTYPE svg PUBLIC "-//W3C//DTD SVG 1.1//EN"
 "http://www.w3.org/Graphics/SVG/1.1/DTD/svg11.dtd">
<!-- Generated by graphviz version 2.38.0 (20140413.2041)
 -->
<!-- Title: CParameterMgrFullConnector::createConfiguration Pages: 1 -->
<svg width="1215pt" height="215pt"
 viewBox="0.00 0.00 1215.00 214.50" xmlns="http://www.w3.org/2000/svg" xmlns:xlink="http://www.w3.org/1999/xlink">
<g id="graph0" class="graph" transform="scale(1 1) rotate(0) translate(4 210.5)">
<title>CParameterMgrFullConnector::createConfiguration</title>
<polygon fill="white" stroke="none" points="-4,4 -4,-210.5 1211,-210.5 1211,4 -4,4"/>
<!-- Node1 -->
<g id="node1" class="node"><title>Node1</title>
<polygon fill="#bfbfbf" stroke="black" points="0,-88.5 0,-118.5 156,-118.5 156,-88.5 0,-88.5"/>
<text text-anchor="start" x="8" y="-106.5" font-family="Verdana" font-size="10.00">CParameterMgrFullConnector</text>
<text text-anchor="middle" x="78" y="-95.5" font-family="Verdana" font-size="10.00">::createConfiguration</text>
</g>
<!-- Node2 -->
<g id="node2" class="node"><title>Node2</title>
<g id="a_node2"><a xlink:href="classCParameterMgr.html#ad60e8abcd5881a2833d24c3a531e16f0" target="_top" xlink:title="CParameterMgr::createConfiguration">
<polygon fill="white" stroke="black" points="192,-94 192,-113 384,-113 384,-94 192,-94"/>
<text text-anchor="middle" x="288" y="-101" font-family="Verdana" font-size="10.00">CParameterMgr::createConfiguration</text>
</a>
</g>
</g>
<!-- Node1&#45;&gt;Node2 -->
<g id="edge1" class="edge"><title>Node1&#45;&gt;Node2</title>
<path fill="none" stroke="midnightblue" d="M156.156,-103.5C164.549,-103.5 173.192,-103.5 181.846,-103.5"/>
<polygon fill="midnightblue" stroke="midnightblue" points="181.996,-107 191.996,-103.5 181.996,-100 181.996,-107"/>
</g>
<!-- Node3 -->
<g id="node3" class="node"><title>Node3</title>
<g id="a_node3"><a xlink:href="classCConfigurableDomains.html#aa96eec13d9bdbb307e1dcfe6f057a685" target="_top" xlink:title="CConfigurableDomains\l::createConfiguration">
<polygon fill="white" stroke="black" points="420,-88.5 420,-118.5 546,-118.5 546,-88.5 420,-88.5"/>
<text text-anchor="start" x="428" y="-106.5" font-family="Verdana" font-size="10.00">CConfigurableDomains</text>
<text text-anchor="middle" x="483" y="-95.5" font-family="Verdana" font-size="10.00">::createConfiguration</text>
</a>
</g>
</g>
<!-- Node2&#45;&gt;Node3 -->
<g id="edge2" class="edge"><title>Node2&#45;&gt;Node3</title>
<path fill="none" stroke="midnightblue" d="M384.086,-103.5C392.745,-103.5 401.419,-103.5 409.829,-103.5"/>
<polygon fill="midnightblue" stroke="midnightblue" points="409.938,-107 419.938,-103.5 409.938,-100 409.938,-107"/>
</g>
<!-- Node4 -->
<g id="node4" class="node"><title>Node4</title>
<g id="a_node4"><a xlink:href="classCConfigurableDomain.html#a82e376a127b18da449923829825bcbed" target="_top" xlink:title="CConfigurableDomain\l::createConfiguration">
<polygon fill="white" stroke="black" points="582,-88.5 582,-118.5 703,-118.5 703,-88.5 582,-88.5"/>
<text text-anchor="start" x="590" y="-106.5" font-family="Verdana" font-size="10.00">CConfigurableDomain</text>
<text text-anchor="middle" x="642.5" y="-95.5" font-family="Verdana" font-size="10.00">::createConfiguration</text>
</a>
</g>
</g>
<!-- Node3&#45;&gt;Node4 -->
<g id="edge3" class="edge"><title>Node3&#45;&gt;Node4</title>
<path fill="none" stroke="midnightblue" d="M546.248,-103.5C554.562,-103.5 563.132,-103.5 571.566,-103.5"/>
<polygon fill="midnightblue" stroke="midnightblue" points="571.76,-107 581.76,-103.5 571.759,-100 571.76,-107"/>
</g>
<!-- Node5 -->
<g id="node5" class="node"><title>Node5</title>
<g id="a_node5"><a xlink:href="classCElement.html#af51bbf231ec74ff4d4b7fac9588be603" target="_top" xlink:title="CElement::findChild">
<polygon fill="white" stroke="black" points="754,-187 754,-206 864,-206 864,-187 754,-187"/>
<text text-anchor="middle" x="809" y="-194" font-family="Verdana" font-size="10.00">CElement::findChild</text>
</a>
</g>
</g>
<!-- Node4&#45;&gt;Node5 -->
<g id="edge4" class="edge"><title>Node4&#45;&gt;Node5</title>
<path fill="none" stroke="midnightblue" d="M659.066,-118.73C676.952,-135.43 707.863,-161.919 739,-177.5 743.604,-179.804 748.526,-181.86 753.541,-183.688"/>
<polygon fill="midnightblue" stroke="midnightblue" points="752.65,-187.08 763.244,-186.927 754.867,-180.44 752.65,-187.08"/>
</g>
<!-- Node6 -->
<g id="node6" class="node"><title>Node6</title>
<g id="a_node6"><a xlink:href="classCDomainConfiguration.html#a80948f485ce0b70ce80c8bd9f9aca003" target="_top" xlink:title="CDomainConfiguration\l::CDomainConfiguration">
<polygon fill="white" stroke="black" points="743.5,-137.5 743.5,-167.5 874.5,-167.5 874.5,-137.5 743.5,-137.5"/>
<text text-anchor="start" x="751.5" y="-155.5" font-family="Verdana" font-size="10.00">CDomainConfiguration</text>
<text text-anchor="middle" x="809" y="-144.5" font-family="Verdana" font-size="10.00">::CDomainConfiguration</text>
</a>
</g>
</g>
<!-- Node4&#45;&gt;Node6 -->
<g id="edge5" class="edge"><title>Node4&#45;&gt;Node6</title>
<path fill="none" stroke="midnightblue" d="M694.198,-118.601C711.164,-123.655 730.241,-129.338 747.856,-134.585"/>
<polygon fill="midnightblue" stroke="midnightblue" points="746.887,-137.948 757.47,-137.448 748.885,-131.239 746.887,-137.948"/>
</g>
<!-- Node8 -->
<g id="node8" class="node"><title>Node8</title>
<g id="a_node8"><a xlink:href="classCDomainConfiguration.html#a2722416342b16b07ffa05b0e0253bc66" target="_top" xlink:title="CDomainConfiguration\l::addConfigurableElement">
<polygon fill="white" stroke="black" points="739,-88.5 739,-118.5 879,-118.5 879,-88.5 739,-88.5"/>
<text text-anchor="start" x="747" y="-106.5" font-family="Verdana" font-size="10.00">CDomainConfiguration</text>
<text text-anchor="middle" x="809" y="-95.5" font-family="Verdana" font-size="10.00">::addConfigurableElement</text>
</a>
</g>
</g>
<!-- Node4&#45;&gt;Node8 -->
<g id="edge7" class="edge"><title>Node4&#45;&gt;Node8</title>
<path fill="none" stroke="midnightblue" d="M703.354,-103.5C711.673,-103.5 720.323,-103.5 728.927,-103.5"/>
<polygon fill="midnightblue" stroke="midnightblue" points="728.984,-107 738.984,-103.5 728.984,-100 728.984,-107"/>
</g>
<!-- Node11 -->
<g id="node11" class="node"><title>Node11</title>
<g id="a_node11"><a xlink:href="classCElement.html#ac2ad66ee438a4a0c1390b7388874fe72" target="_top" xlink:title="CElement::addChild">
<polygon fill="white" stroke="black" points="754,-50 754,-69 864,-69 864,-50 754,-50"/>
<text text-anchor="middle" x="809" y="-57" font-family="Verdana" font-size="10.00">CElement::addChild</text>
</a>
</g>
</g>
<!-- Node4&#45;&gt;Node11 -->
<g id="edge10" class="edge"><title>Node4&#45;&gt;Node11</title>
<path fill="none" stroke="midnightblue" d="M699.651,-88.4808C720.1,-83.0112 742.95,-76.8993 762.375,-71.7036"/>
<polygon fill="midnightblue" stroke="midnightblue" points="763.434,-75.0434 772.19,-69.0783 761.625,-68.2812 763.434,-75.0434"/>
</g>
<!-- Node12 -->
<g id="node12" class="node"><title>Node12</title>
<g id="a_node12"><a xlink:href="classCDomainConfiguration.html#a442810a2eceb0eb11da8fefef93406d5" target="_top" xlink:title="CDomainConfiguration\l::validate">
<polygon fill="white" stroke="black" points="746.5,-0.5 746.5,-30.5 871.5,-30.5 871.5,-0.5 746.5,-0.5"/>
<text text-anchor="start" x="754.5" y="-18.5" font-family="Verdana" font-size="10.00">CDomainConfiguration</text>
<text text-anchor="middle" x="809" y="-7.5" font-family="Verdana" font-size="10.00">::validate</text>
</a>
</g>
</g>
<!-- Node4&#45;&gt;Node12 -->
<g id="edge11" class="edge"><title>Node4&#45;&gt;Node12</title>
<path fill="none" stroke="midnightblue" d="M663.518,-88.2706C682.281,-74.497 711.487,-54.316 739,-40.5 743.259,-38.3612 747.747,-36.3137 752.305,-34.3764"/>
<polygon fill="midnightblue" stroke="midnightblue" points="753.76,-37.5633 761.711,-30.5608 751.129,-31.0767 753.76,-37.5633"/>
</g>
<!-- Node7 -->
<g id="node7" class="node"><title>Node7</title>
<g id="a_node7"><a xlink:href="classCElement.html#adda0945fbca000ff1e605a9b93f74c64" target="_top" xlink:title="CElement::CElement">
<polygon fill="white" stroke="black" points="927,-143 927,-162 1043,-162 1043,-143 927,-143"/>
<text text-anchor="middle" x="985" y="-150" font-family="Verdana" font-size="10.00">CElement::CElement</text>
</a>
</g>
</g>
<!-- Node6&#45;&gt;Node7 -->
<g id="edge6" class="edge"><title>Node6&#45;&gt;Node7</title>
<path fill="none" stroke="midnightblue" d="M874.791,-152.5C888.419,-152.5 902.827,-152.5 916.55,-152.5"/>
<polygon fill="midnightblue" stroke="midnightblue" points="916.887,-156 926.887,-152.5 916.887,-149 916.887,-156"/>
</g>
<!-- Node9 -->
<g id="node9" class="node"><title>Node9</title>
<g id="a_node9"><a xlink:href="classCConfigurableElement.html#a41fcefde73d823509e16458ef712e0c3" target="_top" xlink:title="CConfigurableElement\l::createAreaConfiguration">
<polygon fill="white" stroke="black" points="915,-88.5 915,-118.5 1055,-118.5 1055,-88.5 915,-88.5"/>
<text text-anchor="start" x="923" y="-106.5" font-family="Verdana" font-size="10.00">CConfigurableElement</text>
<text text-anchor="middle" x="985" y="-95.5" font-family="Verdana" font-size="10.00">::createAreaConfiguration</text>
</a>
</g>
</g>
<!-- Node8&#45;&gt;Node9 -->
<g id="edge8" class="edge"><title>Node8&#45;&gt;Node9</title>
<path fill="none" stroke="midnightblue" d="M879.019,-103.5C887.476,-103.5 896.169,-103.5 904.761,-103.5"/>
<polygon fill="midnightblue" stroke="midnightblue" points="904.78,-107 914.779,-103.5 904.779,-100 904.78,-107"/>
</g>
<!-- Node10 -->
<g id="node10" class="node"><title>Node10</title>
<g id="a_node10"><a xlink:href="classCAreaConfiguration.html#ab7057b4cf2482e15666f538211ac65c5" target="_top" xlink:title="CAreaConfiguration\l::CAreaConfiguration">
<polygon fill="white" stroke="black" points="1091,-88.5 1091,-118.5 1207,-118.5 1207,-88.5 1091,-88.5"/>
<text text-anchor="start" x="1099" y="-106.5" font-family="Verdana" font-size="10.00">CAreaConfiguration</text>
<text text-anchor="middle" x="1149" y="-95.5" font-family="Verdana" font-size="10.00">::CAreaConfiguration</text>
</a>
</g>
</g>
<!-- Node9&#45;&gt;Node10 -->
<g id="edge9" class="edge"><title>Node9&#45;&gt;Node10</title>
<path fill="none" stroke="midnightblue" d="M1055.17,-103.5C1063.61,-103.5 1072.22,-103.5 1080.63,-103.5"/>
<polygon fill="midnightblue" stroke="midnightblue" points="1080.77,-107 1090.77,-103.5 1080.77,-100 1080.77,-107"/>
</g>
<!-- Node13 -->
<g id="node13" class="node"><title>Node13</title>
<g id="a_node13"><a xlink:href="classCAreaConfiguration.html#a9c0ddade93f42f2ed315dd3a0719933c" target="_top" xlink:title="CAreaConfiguration\l::validate">
<polygon fill="white" stroke="black" points="930,-0.5 930,-30.5 1040,-30.5 1040,-0.5 930,-0.5"/>
<text text-anchor="start" x="938" y="-18.5" font-family="Verdana" font-size="10.00">CAreaConfiguration</text>
<text text-anchor="middle" x="985" y="-7.5" font-family="Verdana" font-size="10.00">::validate</text>
</a>
</g>
</g>
<!-- Node12&#45;&gt;Node13 -->
<g id="edge12" class="edge"><title>Node12&#45;&gt;Node13</title>
<path fill="none" stroke="midnightblue" d="M871.836,-15.5C887.381,-15.5 904.099,-15.5 919.758,-15.5"/>
<polygon fill="midnightblue" stroke="midnightblue" points="919.873,-19.0001 929.873,-15.5 919.873,-12.0001 919.873,-19.0001"/>
</g>
<!-- Node14 -->
<g id="node14" class="node"><title>Node14</title>
<g id="a_node14"><a xlink:href="classCAreaConfiguration.html#a0ab61255d58c402f059aceb6668b943d" target="_top" xlink:title="CAreaConfiguration\l::save">
<polygon fill="white" stroke="black" points="1094,-0.5 1094,-30.5 1204,-30.5 1204,-0.5 1094,-0.5"/>
<text text-anchor="start" x="1102" y="-18.5" font-family="Verdana" font-size="10.00">CAreaConfiguration</text>
<text text-anchor="middle" x="1149" y="-7.5" font-family="Verdana" font-size="10.00">::save</text>
</a>
</g>
</g>
<!-- Node13&#45;&gt;Node14 -->
<g id="edge13" class="edge"><title>Node13&#45;&gt;Node14</title>
<path fill="none" stroke="midnightblue" d="M1040.39,-15.5C1054.23,-15.5 1069.22,-15.5 1083.5,-15.5"/>
<polygon fill="midnightblue" stroke="midnightblue" points="1083.75,-19.0001 1093.75,-15.5 1083.75,-12.0001 1083.75,-19.0001"/>
</g>
</g>
</svg>
