<?xml version="1.0" encoding="UTF-8" standalone="no"?>
<!DOCTYPE svg PUBLIC "-//W3C//DTD SVG 1.1//EN"
 "http://www.w3.org/Graphics/SVG/1.1/DTD/svg11.dtd">
<!-- Generated by graphviz version 2.38.0 (20140413.2041)
 -->
<!-- Title: CElement::addChild Pages: 1 -->
<svg width="1388pt" height="488pt"
 viewBox="0.00 0.00 1388.00 488.00" xmlns="http://www.w3.org/2000/svg" xmlns:xlink="http://www.w3.org/1999/xlink">
<g id="graph0" class="graph" transform="scale(1 1) rotate(0) translate(4 484)">
<title>CElement::addChild</title>
<polygon fill="white" stroke="none" points="-4,4 -4,-484 1384,-484 1384,4 -4,4"/>
<!-- Node1 -->
<g id="node1" class="node"><title>Node1</title>
<polygon fill="#bfbfbf" stroke="black" points="0,-237 0,-256 110,-256 110,-237 0,-237"/>
<text text-anchor="middle" x="55" y="-244" font-family="Verdana" font-size="10.00">CElement::addChild</text>
</g>
<!-- Node2 -->
<g id="node2" class="node"><title>Node2</title>
<g id="a_node2"><a xlink:href="classCConfigurableDomain.html#a82e376a127b18da449923829825bcbed" target="_top" xlink:title="CConfigurableDomain\l::createConfiguration">
<polygon fill="white" stroke="black" points="172,-449.5 172,-479.5 293,-479.5 293,-449.5 172,-449.5"/>
<text text-anchor="start" x="180" y="-467.5" font-family="Verdana" font-size="10.00">CConfigurableDomain</text>
<text text-anchor="middle" x="232.5" y="-456.5" font-family="Verdana" font-size="10.00">::createConfiguration</text>
</a>
</g>
</g>
<!-- Node1&#45;&gt;Node2 -->
<g id="edge1" class="edge"><title>Node1&#45;&gt;Node2</title>
<path fill="none" stroke="midnightblue" d="M59.4793,-266.188C67.4576,-305.405 90.8069,-393.534 146,-440.5 153.397,-446.795 162.332,-451.445 171.599,-454.878"/>
<polygon fill="midnightblue" stroke="midnightblue" points="62.9032,-265.458 57.5863,-256.294 56.0279,-266.774 62.9032,-265.458"/>
</g>
<!-- Node6 -->
<g id="node6" class="node"><title>Node6</title>
<g id="a_node6"><a xlink:href="classCConfigurableDomains.html#a879368ed109dc1a906205f8324d05d81" target="_top" xlink:title="Domains. ">
<polygon fill="white" stroke="black" points="169.5,-400.5 169.5,-430.5 295.5,-430.5 295.5,-400.5 169.5,-400.5"/>
<text text-anchor="start" x="177.5" y="-418.5" font-family="Verdana" font-size="10.00">CConfigurableDomains</text>
<text text-anchor="middle" x="232.5" y="-407.5" font-family="Verdana" font-size="10.00">::createDomain</text>
</a>
</g>
</g>
<!-- Node1&#45;&gt;Node6 -->
<g id="edge5" class="edge"><title>Node1&#45;&gt;Node6</title>
<path fill="none" stroke="midnightblue" d="M62.7846,-266.089C74.6439,-297.399 102.142,-358.539 146,-391.5 152.902,-396.687 160.876,-400.753 169.122,-403.941"/>
<polygon fill="midnightblue" stroke="midnightblue" points="65.9502,-264.553 59.2409,-256.353 59.3725,-266.947 65.9502,-264.553"/>
</g>
<!-- Node9 -->
<g id="node9" class="node"><title>Node9</title>
<g id="a_node9"><a xlink:href="classCConfigurableDomains.html#a35d3b509ee35cb374fc7a2d1b678c203" target="_top" xlink:title="CConfigurableDomains\l::addDomain">
<polygon fill="white" stroke="black" points="169.5,-351.5 169.5,-381.5 295.5,-381.5 295.5,-351.5 169.5,-351.5"/>
<text text-anchor="start" x="177.5" y="-369.5" font-family="Verdana" font-size="10.00">CConfigurableDomains</text>
<text text-anchor="middle" x="232.5" y="-358.5" font-family="Verdana" font-size="10.00">::addDomain</text>
</a>
</g>
</g>
<!-- Node1&#45;&gt;Node9 -->
<g id="edge8" class="edge"><title>Node1&#45;&gt;Node9</title>
<path fill="none" stroke="midnightblue" d="M68.3157,-264.407C83.9559,-285.818 112.921,-321.29 146,-341.5 153.126,-345.854 161.051,-349.484 169.119,-352.5"/>
<polygon fill="midnightblue" stroke="midnightblue" points="71.1069,-262.293 62.4554,-256.177 65.4047,-266.353 71.1069,-262.293"/>
</g>
<!-- Node10 -->
<g id="node10" class="node"><title>Node10</title>
<g id="a_node10"><a xlink:href="classCElement.html#a0b4cdc10e6df8fd3740255c5faf3b596" target="_top" xlink:title="Creates a child CElement from a child XML Element. ">
<polygon fill="white" stroke="black" points="171,-313 171,-332 294,-332 294,-313 171,-313"/>
<text text-anchor="middle" x="232.5" y="-320" font-family="Verdana" font-size="10.00">CElement::createChild</text>
</a>
</g>
</g>
<!-- Node1&#45;&gt;Node10 -->
<g id="edge9" class="edge"><title>Node1&#45;&gt;Node10</title>
<path fill="none" stroke="midnightblue" d="M76.3676,-262.311C93.9101,-275.191 120.379,-292.92 146,-303.5 155.276,-307.331 165.452,-310.449 175.448,-312.968"/>
<polygon fill="midnightblue" stroke="midnightblue" points="78.1597,-259.28 68.0595,-256.08 73.96,-264.88 78.1597,-259.28"/>
</g>
<!-- Node14 -->
<g id="node14" class="node"><title>Node14</title>
<g id="a_node14"><a xlink:href="classCParameterMgr.html#a62ac187a0a8c321c3a312d4b2eeb9da2" target="_top" xlink:title="CParameterMgr::CParameterMgr">
<polygon fill="white" stroke="black" points="146,-237 146,-256 319,-256 319,-237 146,-237"/>
<text text-anchor="middle" x="232.5" y="-244" font-family="Verdana" font-size="10.00">CParameterMgr::CParameterMgr</text>
</a>
</g>
</g>
<!-- Node1&#45;&gt;Node14 -->
<g id="edge15" class="edge"><title>Node1&#45;&gt;Node14</title>
<path fill="none" stroke="midnightblue" d="M120.157,-246.5C128.558,-246.5 137.27,-246.5 145.954,-246.5"/>
<polygon fill="midnightblue" stroke="midnightblue" points="120.088,-243 110.088,-246.5 120.088,-250 120.088,-243"/>
</g>
<!-- Node15 -->
<g id="node15" class="node"><title>Node15</title>
<g id="a_node15"><a xlink:href="classCRuleParser.html#acbce516a22f0dca0af620e751d298f7a" target="_top" xlink:title="CRuleParser::parse">
<polygon fill="white" stroke="black" points="179.5,-199 179.5,-218 285.5,-218 285.5,-199 179.5,-199"/>
<text text-anchor="middle" x="232.5" y="-206" font-family="Verdana" font-size="10.00">CRuleParser::parse</text>
</a>
</g>
</g>
<!-- Node1&#45;&gt;Node15 -->
<g id="edge16" class="edge"><title>Node1&#45;&gt;Node15</title>
<path fill="none" stroke="midnightblue" d="M110.278,-234.747C135.094,-229.374 164.111,-223.091 187.532,-218.02"/>
<polygon fill="midnightblue" stroke="midnightblue" points="109.319,-231.374 100.286,-236.911 110.8,-238.215 109.319,-231.374"/>
</g>
<!-- Node21 -->
<g id="node21" class="node"><title>Node21</title>
<g id="a_node21"><a xlink:href="classCSelectionCriteria.html#a5c8850871021dbb3f23354130304ae0e" target="_top" xlink:title="CSelectionCriteria\l::CSelectionCriteria">
<polygon fill="white" stroke="black" points="178.5,-149.5 178.5,-179.5 286.5,-179.5 286.5,-149.5 178.5,-149.5"/>
<text text-anchor="start" x="186.5" y="-167.5" font-family="Verdana" font-size="10.00">CSelectionCriteria</text>
<text text-anchor="middle" x="232.5" y="-156.5" font-family="Verdana" font-size="10.00">::CSelectionCriteria</text>
</a>
</g>
</g>
<!-- Node1&#45;&gt;Node21 -->
<g id="edge22" class="edge"><title>Node1&#45;&gt;Node21</title>
<path fill="none" stroke="midnightblue" d="M76.856,-230.905C94.5116,-218.303 120.884,-200.852 146,-189.5 156.147,-184.914 167.349,-180.93 178.211,-177.572"/>
<polygon fill="midnightblue" stroke="midnightblue" points="74.505,-228.287 68.4707,-236.996 78.6186,-233.951 74.505,-228.287"/>
</g>
<!-- Node22 -->
<g id="node22" class="node"><title>Node22</title>
<g id="a_node22"><a xlink:href="classCSelectionCriteriaDefinition.html#ad6447026bd630fa502212eeb6f419146" target="_top" xlink:title="CSelectionCriteriaDefinition\l::createSelectionCriterion">
<polygon fill="white" stroke="black" points="159,-100.5 159,-130.5 306,-130.5 306,-100.5 159,-100.5"/>
<text text-anchor="start" x="167" y="-118.5" font-family="Verdana" font-size="10.00">CSelectionCriteriaDefinition</text>
<text text-anchor="middle" x="232.5" y="-107.5" font-family="Verdana" font-size="10.00">::createSelectionCriterion</text>
</a>
</g>
</g>
<!-- Node1&#45;&gt;Node22 -->
<g id="edge23" class="edge"><title>Node1&#45;&gt;Node22</title>
<path fill="none" stroke="midnightblue" d="M66.63,-228.015C81.3811,-204.019 110.316,-162.502 146,-139.5 151.313,-136.075 157.117,-133.132 163.119,-130.604"/>
<polygon fill="midnightblue" stroke="midnightblue" points="63.4816,-226.461 61.3601,-236.841 69.4917,-230.049 63.4816,-226.461"/>
</g>
<!-- Node27 -->
<g id="node27" class="node"><title>Node27</title>
<g id="a_node27"><a xlink:href="classCSelectionCriterionLibrary.html#a84be6fc12a809170fb6d114285997b1c" target="_top" xlink:title="CSelectionCriterionLibrary\l::createSelectionCriterionType">
<polygon fill="white" stroke="black" points="153,-51.5 153,-81.5 312,-81.5 312,-51.5 153,-51.5"/>
<text text-anchor="start" x="161" y="-69.5" font-family="Verdana" font-size="10.00">CSelectionCriterionLibrary</text>
<text text-anchor="middle" x="232.5" y="-58.5" font-family="Verdana" font-size="10.00">::createSelectionCriterionType</text>
</a>
</g>
</g>
<!-- Node1&#45;&gt;Node27 -->
<g id="edge28" class="edge"><title>Node1&#45;&gt;Node27</title>
<path fill="none" stroke="midnightblue" d="M61.8915,-226.841C72.8682,-193.631 99.6393,-126.524 146,-90.5 150.383,-87.0944 155.224,-84.1721 160.307,-81.6644"/>
<polygon fill="midnightblue" stroke="midnightblue" points="58.4485,-226.121 58.769,-236.711 65.1225,-228.232 58.4485,-226.121"/>
</g>
<!-- Node32 -->
<g id="node32" class="node"><title>Node32</title>
<g id="a_node32"><a xlink:href="classCTypeElement.html#a7cdfd91a35b67d17fb2c92f8a2883854" target="_top" xlink:title="CTypeElement::populate">
<polygon fill="white" stroke="black" points="166.5,-275 166.5,-294 298.5,-294 298.5,-275 166.5,-275"/>
<text text-anchor="middle" x="232.5" y="-282" font-family="Verdana" font-size="10.00">CTypeElement::populate</text>
</a>
</g>
</g>
<!-- Node1&#45;&gt;Node32 -->
<g id="edge33" class="edge"><title>Node1&#45;&gt;Node32</title>
<path fill="none" stroke="midnightblue" d="M110.278,-258.253C135.094,-263.626 164.111,-269.909 187.532,-274.98"/>
<polygon fill="midnightblue" stroke="midnightblue" points="110.8,-254.785 100.286,-256.089 109.319,-261.626 110.8,-254.785"/>
</g>
<!-- Node35 -->
<g id="node35" class="node"><title>Node35</title>
<g id="a_node35"><a xlink:href="classCXmlFileIncluderElement.html#a754298eb75aacfe300ed3942d51611aa" target="_top" xlink:title="CXmlFileIncluderElement\l::fromXml">
<polygon fill="white" stroke="black" points="165.5,-2.5 165.5,-32.5 299.5,-32.5 299.5,-2.5 165.5,-2.5"/>
<text text-anchor="start" x="173.5" y="-20.5" font-family="Verdana" font-size="10.00">CXmlFileIncluderElement</text>
<text text-anchor="middle" x="232.5" y="-9.5" font-family="Verdana" font-size="10.00">::fromXml</text>
</a>
</g>
</g>
<!-- Node1&#45;&gt;Node35 -->
<g id="edge38" class="edge"><title>Node1&#45;&gt;Node35</title>
<path fill="none" stroke="midnightblue" d="M58.9796,-226.559C66.1691,-185.591 88.3399,-91.6027 146,-41.5 151.702,-36.5449 158.354,-32.6074 165.383,-29.4795"/>
<polygon fill="midnightblue" stroke="midnightblue" points="55.4929,-226.193 57.332,-236.627 62.401,-227.324 55.4929,-226.193"/>
</g>
<!-- Node3 -->
<g id="node3" class="node"><title>Node3</title>
<g id="a_node3"><a xlink:href="classCConfigurableDomains.html#aa96eec13d9bdbb307e1dcfe6f057a685" target="_top" xlink:title="CConfigurableDomains\l::createConfiguration">
<polygon fill="white" stroke="black" points="375,-449.5 375,-479.5 501,-479.5 501,-449.5 375,-449.5"/>
<text text-anchor="start" x="383" y="-467.5" font-family="Verdana" font-size="10.00">CConfigurableDomains</text>
<text text-anchor="middle" x="438" y="-456.5" font-family="Verdana" font-size="10.00">::createConfiguration</text>
</a>
</g>
</g>
<!-- Node2&#45;&gt;Node3 -->
<g id="edge2" class="edge"><title>Node2&#45;&gt;Node3</title>
<path fill="none" stroke="midnightblue" d="M303.313,-464.5C326.539,-464.5 352.236,-464.5 374.843,-464.5"/>
<polygon fill="midnightblue" stroke="midnightblue" points="303.182,-461 293.182,-464.5 303.182,-468 303.182,-461"/>
</g>
<!-- Node4 -->
<g id="node4" class="node"><title>Node4</title>
<g id="a_node4"><a xlink:href="classCParameterMgr.html#ad60e8abcd5881a2833d24c3a531e16f0" target="_top" xlink:title="CParameterMgr::createConfiguration">
<polygon fill="white" stroke="black" points="557,-455 557,-474 749,-474 749,-455 557,-455"/>
<text text-anchor="middle" x="653" y="-462" font-family="Verdana" font-size="10.00">CParameterMgr::createConfiguration</text>
</a>
</g>
</g>
<!-- Node3&#45;&gt;Node4 -->
<g id="edge3" class="edge"><title>Node3&#45;&gt;Node4</title>
<path fill="none" stroke="midnightblue" d="M511.601,-464.5C526.164,-464.5 541.671,-464.5 556.867,-464.5"/>
<polygon fill="midnightblue" stroke="midnightblue" points="511.181,-461 501.181,-464.5 511.181,-468 511.181,-461"/>
</g>
<!-- Node5 -->
<g id="node5" class="node"><title>Node5</title>
<g id="a_node5"><a xlink:href="classCParameterMgrFullConnector.html#ac863444469b87e23f6aeba390e46f5b3" target="_top" xlink:title="CParameterMgrFullConnector\l::createConfiguration">
<polygon fill="white" stroke="black" points="798,-449.5 798,-479.5 954,-479.5 954,-449.5 798,-449.5"/>
<text text-anchor="start" x="806" y="-467.5" font-family="Verdana" font-size="10.00">CParameterMgrFullConnector</text>
<text text-anchor="middle" x="876" y="-456.5" font-family="Verdana" font-size="10.00">::createConfiguration</text>
</a>
</g>
</g>
<!-- Node4&#45;&gt;Node5 -->
<g id="edge4" class="edge"><title>Node4&#45;&gt;Node5</title>
<path fill="none" stroke="midnightblue" d="M759.344,-464.5C772.277,-464.5 785.304,-464.5 797.715,-464.5"/>
<polygon fill="midnightblue" stroke="midnightblue" points="759.006,-461 749.006,-464.5 759.006,-468 759.006,-461"/>
</g>
<!-- Node7 -->
<g id="node7" class="node"><title>Node7</title>
<g id="a_node7"><a xlink:href="classCParameterMgr.html#af7d24a3ef2e52fb2aee19e303092d696" target="_top" xlink:title="CParameterMgr::createDomain">
<polygon fill="white" stroke="black" points="355,-409 355,-428 521,-428 521,-409 355,-409"/>
<text text-anchor="middle" x="438" y="-416" font-family="Verdana" font-size="10.00">CParameterMgr::createDomain</text>
</a>
</g>
</g>
<!-- Node6&#45;&gt;Node7 -->
<g id="edge6" class="edge"><title>Node6&#45;&gt;Node7</title>
<path fill="none" stroke="midnightblue" d="M305.93,-416.568C321.811,-416.802 338.734,-417.051 354.962,-417.291"/>
<polygon fill="midnightblue" stroke="midnightblue" points="305.713,-413.064 295.662,-416.416 305.61,-420.064 305.713,-413.064"/>
</g>
<!-- Node8 -->
<g id="node8" class="node"><title>Node8</title>
<g id="a_node8"><a xlink:href="classCParameterMgrFullConnector.html#a25e98b1d6b0eb374ad3908e6cffd475e" target="_top" xlink:title="CParameterMgrFullConnector\l::createDomain">
<polygon fill="white" stroke="black" points="575,-403.5 575,-433.5 731,-433.5 731,-403.5 575,-403.5"/>
<text text-anchor="start" x="583" y="-421.5" font-family="Verdana" font-size="10.00">CParameterMgrFullConnector</text>
<text text-anchor="middle" x="653" y="-410.5" font-family="Verdana" font-size="10.00">::createDomain</text>
</a>
</g>
</g>
<!-- Node7&#45;&gt;Node8 -->
<g id="edge7" class="edge"><title>Node7&#45;&gt;Node8</title>
<path fill="none" stroke="midnightblue" d="M531.087,-418.5C545.696,-418.5 560.672,-418.5 574.891,-418.5"/>
<polygon fill="midnightblue" stroke="midnightblue" points="531.047,-415 521.047,-418.5 531.047,-422 531.047,-415"/>
</g>
<!-- Node11 -->
<g id="node11" class="node"><title>Node11</title>
<g id="a_node11"><a xlink:href="classCComponentLibrary.html#ad4cc928cda43371fb31f20394e8e04e5" target="_top" xlink:title="CComponentLibrary::\lfromXml">
<polygon fill="white" stroke="black" points="594.5,-320.5 594.5,-350.5 711.5,-350.5 711.5,-320.5 594.5,-320.5"/>
<text text-anchor="start" x="602.5" y="-338.5" font-family="Verdana" font-size="10.00">CComponentLibrary::</text>
<text text-anchor="middle" x="653" y="-327.5" font-family="Verdana" font-size="10.00">fromXml</text>
</a>
</g>
</g>
<!-- Node10&#45;&gt;Node11 -->
<g id="edge10" class="edge"><title>Node10&#45;&gt;Node11</title>
<path fill="none" stroke="midnightblue" d="M297.539,-334.6C304.868,-336.61 312.159,-338.902 319,-341.5 336.111,-347.997 337.282,-356.909 355,-361.5 438.8,-383.215 539.872,-365.459 599.878,-350.537"/>
<polygon fill="midnightblue" stroke="midnightblue" points="298.116,-331.134 287.559,-332.031 296.371,-337.913 298.116,-331.134"/>
</g>
<!-- Node13 -->
<g id="node13" class="node"><title>Node13</title>
<g id="a_node13"><a xlink:href="classCElement.html#a1978d50e2db432e7b8f0928f33d3f01a" target="_top" xlink:title="CElement::fromXml">
<polygon fill="white" stroke="black" points="383,-315 383,-334 493,-334 493,-315 383,-315"/>
<text text-anchor="middle" x="438" y="-322" font-family="Verdana" font-size="10.00">CElement::fromXml</text>
</a>
</g>
</g>
<!-- Node10&#45;&gt;Node13 -->
<g id="edge12" class="edge"><title>Node10&#45;&gt;Node13</title>
<path fill="none" stroke="midnightblue" d="M304.125,-323.194C329.973,-323.448 358.786,-323.731 382.957,-323.969"/>
<polygon fill="midnightblue" stroke="midnightblue" points="304.04,-319.693 294.006,-323.095 303.971,-326.693 304.04,-319.693"/>
</g>
<!-- Node12 -->
<g id="node12" class="node"><title>Node12</title>
<g id="a_node12"><a xlink:href="classCSubsystem.html#aa114a31f4aa4b0f47b3c616b721854d4" target="_top" xlink:title="CSubsystem::fromXml">
<polygon fill="white" stroke="black" points="814,-302 814,-321 938,-321 938,-302 814,-302"/>
<text text-anchor="middle" x="876" y="-309" font-family="Verdana" font-size="10.00">CSubsystem::fromXml</text>
</a>
</g>
</g>
<!-- Node11&#45;&gt;Node12 -->
<g id="edge11" class="edge"><title>Node11&#45;&gt;Node12</title>
<path fill="none" stroke="midnightblue" d="M721.92,-328.124C751.201,-324.944 785.191,-321.253 813.694,-318.158"/>
<polygon fill="midnightblue" stroke="midnightblue" points="721.34,-324.666 711.776,-329.226 722.096,-331.625 721.34,-324.666"/>
</g>
<!-- Node13&#45;&gt;Node11 -->
<g id="edge13" class="edge"><title>Node13&#45;&gt;Node11</title>
<path fill="none" stroke="midnightblue" d="M503.057,-327.808C532.065,-329.306 566.096,-331.064 594.3,-332.52"/>
<polygon fill="midnightblue" stroke="midnightblue" points="503.191,-324.31 493.024,-327.29 502.83,-331.301 503.191,-324.31"/>
</g>
<!-- Node13&#45;&gt;Node13 -->
<g id="edge14" class="edge"><title>Node13&#45;&gt;Node13</title>
<path fill="none" stroke="midnightblue" d="M399.768,-341.614C399.196,-347.626 411.94,-352.5 438,-352.5 474.258,-352.5 484.739,-343.065 469.442,-334.257"/>
<polygon fill="midnightblue" stroke="midnightblue" points="402.348,-343.98 406.558,-334.257 397.204,-339.232 402.348,-343.98"/>
</g>
<!-- Node16 -->
<g id="node16" class="node"><title>Node16</title>
<g id="a_node16"><a xlink:href="classCDomainConfiguration.html#a3b12c8d561b1e468bd03214326bdf450" target="_top" xlink:title="CDomainConfiguration\l::setApplicationRule">
<polygon fill="white" stroke="black" points="375.5,-189.5 375.5,-219.5 500.5,-219.5 500.5,-189.5 375.5,-189.5"/>
<text text-anchor="start" x="383.5" y="-207.5" font-family="Verdana" font-size="10.00">CDomainConfiguration</text>
<text text-anchor="middle" x="438" y="-196.5" font-family="Verdana" font-size="10.00">::setApplicationRule</text>
</a>
</g>
</g>
<!-- Node15&#45;&gt;Node16 -->
<g id="edge17" class="edge"><title>Node15&#45;&gt;Node16</title>
<path fill="none" stroke="midnightblue" d="M295.825,-207.275C321.036,-206.779 350.067,-206.209 375.223,-205.714"/>
<polygon fill="midnightblue" stroke="midnightblue" points="295.571,-203.779 285.642,-207.475 295.709,-210.778 295.571,-203.779"/>
</g>
<!-- Node17 -->
<g id="node17" class="node"><title>Node17</title>
<g id="a_node17"><a xlink:href="classCConfigurableDomain.html#ab28e6a66ae7197d4fa131193f32891f4" target="_top" xlink:title="CConfigurableDomain\l::setApplicationRule">
<polygon fill="white" stroke="black" points="592.5,-193.5 592.5,-223.5 713.5,-223.5 713.5,-193.5 592.5,-193.5"/>
<text text-anchor="start" x="600.5" y="-211.5" font-family="Verdana" font-size="10.00">CConfigurableDomain</text>
<text text-anchor="middle" x="653" y="-200.5" font-family="Verdana" font-size="10.00">::setApplicationRule</text>
</a>
</g>
</g>
<!-- Node16&#45;&gt;Node17 -->
<g id="edge18" class="edge"><title>Node16&#45;&gt;Node17</title>
<path fill="none" stroke="midnightblue" d="M510.612,-205.845C537.172,-206.344 566.986,-206.903 592.364,-207.38"/>
<polygon fill="midnightblue" stroke="midnightblue" points="510.672,-202.345 500.608,-205.657 510.541,-209.344 510.672,-202.345"/>
</g>
<!-- Node18 -->
<g id="node18" class="node"><title>Node18</title>
<g id="a_node18"><a xlink:href="classCConfigurableDomains.html#ac2b2354eecc80c7ca4a71fe2f40606ed" target="_top" xlink:title="CConfigurableDomains\l::setApplicationRule">
<polygon fill="white" stroke="black" points="813,-196.5 813,-226.5 939,-226.5 939,-196.5 813,-196.5"/>
<text text-anchor="start" x="821" y="-214.5" font-family="Verdana" font-size="10.00">CConfigurableDomains</text>
<text text-anchor="middle" x="876" y="-203.5" font-family="Verdana" font-size="10.00">::setApplicationRule</text>
</a>
</g>
</g>
<!-- Node17&#45;&gt;Node18 -->
<g id="edge19" class="edge"><title>Node17&#45;&gt;Node18</title>
<path fill="none" stroke="midnightblue" d="M723.807,-209.448C752.303,-209.834 784.997,-210.278 812.676,-210.654"/>
<polygon fill="midnightblue" stroke="midnightblue" points="723.561,-205.944 713.515,-209.308 723.466,-212.943 723.561,-205.944"/>
</g>
<!-- Node19 -->
<g id="node19" class="node"><title>Node19</title>
<g id="a_node19"><a xlink:href="classCParameterMgr.html#af63f9ad7f792b2bf226afd791c1db70e" target="_top" xlink:title="CParameterMgr::setApplicationRule">
<polygon fill="white" stroke="black" points="1003,-202 1003,-221 1188,-221 1188,-202 1003,-202"/>
<text text-anchor="middle" x="1095.5" y="-209" font-family="Verdana" font-size="10.00">CParameterMgr::setApplicationRule</text>
</a>
</g>
</g>
<!-- Node18&#45;&gt;Node19 -->
<g id="edge20" class="edge"><title>Node18&#45;&gt;Node19</title>
<path fill="none" stroke="midnightblue" d="M949.474,-211.5C966.547,-211.5 984.967,-211.5 1002.76,-211.5"/>
<polygon fill="midnightblue" stroke="midnightblue" points="949.036,-208 939.036,-211.5 949.036,-215 949.036,-208"/>
</g>
<!-- Node20 -->
<g id="node20" class="node"><title>Node20</title>
<g id="a_node20"><a xlink:href="classCParameterMgrFullConnector.html#a7a0323667af932143f43399070f7fe62" target="_top" xlink:title="CParameterMgrFullConnector\l::setApplicationRule">
<polygon fill="white" stroke="black" points="1224,-196.5 1224,-226.5 1380,-226.5 1380,-196.5 1224,-196.5"/>
<text text-anchor="start" x="1232" y="-214.5" font-family="Verdana" font-size="10.00">CParameterMgrFullConnector</text>
<text text-anchor="middle" x="1302" y="-203.5" font-family="Verdana" font-size="10.00">::setApplicationRule</text>
</a>
</g>
</g>
<!-- Node19&#45;&gt;Node20 -->
<g id="edge21" class="edge"><title>Node19&#45;&gt;Node20</title>
<path fill="none" stroke="midnightblue" d="M1198.35,-211.5C1206.93,-211.5 1215.53,-211.5 1223.88,-211.5"/>
<polygon fill="midnightblue" stroke="midnightblue" points="1198.28,-208 1188.28,-211.5 1198.28,-215 1198.28,-208"/>
</g>
<!-- Node23 -->
<g id="node23" class="node"><title>Node23</title>
<g id="a_node23"><a xlink:href="classCSelectionCriteria.html#af0f5289db594b0d2633c59cf8570fa50" target="_top" xlink:title="CSelectionCriteria\l::createSelectionCriterion">
<polygon fill="white" stroke="black" points="369,-100.5 369,-130.5 507,-130.5 507,-100.5 369,-100.5"/>
<text text-anchor="start" x="377" y="-118.5" font-family="Verdana" font-size="10.00">CSelectionCriteria</text>
<text text-anchor="middle" x="438" y="-107.5" font-family="Verdana" font-size="10.00">::createSelectionCriterion</text>
</a>
</g>
</g>
<!-- Node22&#45;&gt;Node23 -->
<g id="edge24" class="edge"><title>Node22&#45;&gt;Node23</title>
<path fill="none" stroke="midnightblue" d="M316.285,-115.5C333.751,-115.5 351.99,-115.5 368.844,-115.5"/>
<polygon fill="midnightblue" stroke="midnightblue" points="316.106,-112 306.106,-115.5 316.106,-119 316.106,-112"/>
</g>
<!-- Node24 -->
<g id="node24" class="node"><title>Node24</title>
<g id="a_node24"><a xlink:href="classCParameterMgr.html#a3b6a3500b78f43bfb894263689b809a7" target="_top" xlink:title="CParameterMgr::createSelection\lCriterion">
<polygon fill="white" stroke="black" points="566.5,-100.5 566.5,-130.5 739.5,-130.5 739.5,-100.5 566.5,-100.5"/>
<text text-anchor="start" x="574.5" y="-118.5" font-family="Verdana" font-size="10.00">CParameterMgr::createSelection</text>
<text text-anchor="middle" x="653" y="-107.5" font-family="Verdana" font-size="10.00">Criterion</text>
</a>
</g>
</g>
<!-- Node23&#45;&gt;Node24 -->
<g id="edge25" class="edge"><title>Node23&#45;&gt;Node24</title>
<path fill="none" stroke="midnightblue" d="M517.535,-115.5C533.37,-115.5 550.092,-115.5 566.162,-115.5"/>
<polygon fill="midnightblue" stroke="midnightblue" points="517.273,-112 507.273,-115.5 517.273,-119 517.273,-112"/>
</g>
<!-- Node25 -->
<g id="node25" class="node"><title>Node25</title>
<g id="a_node25"><a xlink:href="classCParameterMgrFullConnector.html#a32239564e838c5eeac07c11c14bb14b1" target="_top" xlink:title="CParameterMgrFullConnector\l::createSelectionCriterion">
<polygon fill="white" stroke="black" points="798,-147.5 798,-177.5 954,-177.5 954,-147.5 798,-147.5"/>
<text text-anchor="start" x="806" y="-165.5" font-family="Verdana" font-size="10.00">CParameterMgrFullConnector</text>
<text text-anchor="middle" x="876" y="-154.5" font-family="Verdana" font-size="10.00">::createSelectionCriterion</text>
</a>
</g>
</g>
<!-- Node24&#45;&gt;Node25 -->
<g id="edge26" class="edge"><title>Node24&#45;&gt;Node25</title>
<path fill="none" stroke="midnightblue" d="M734.551,-132.631C757.422,-137.495 782.144,-142.752 804.379,-147.481"/>
<polygon fill="midnightblue" stroke="midnightblue" points="735.043,-129.157 724.533,-130.5 733.587,-136.004 735.043,-129.157"/>
</g>
<!-- Node26 -->
<g id="node26" class="node"><title>Node26</title>
<g id="a_node26"><a xlink:href="classCParameterMgrPlatformConnector.html#ab96bc20c11b804b95a0b44a5d39009c2" target="_top" xlink:title="CParameterMgrPlatformConnector\l::createSelectionCriterion">
<polygon fill="white" stroke="black" points="785,-98.5 785,-128.5 967,-128.5 967,-98.5 785,-98.5"/>
<text text-anchor="start" x="793" y="-116.5" font-family="Verdana" font-size="10.00">CParameterMgrPlatformConnector</text>
<text text-anchor="middle" x="876" y="-105.5" font-family="Verdana" font-size="10.00">::createSelectionCriterion</text>
</a>
</g>
</g>
<!-- Node24&#45;&gt;Node26 -->
<g id="edge27" class="edge"><title>Node24&#45;&gt;Node26</title>
<path fill="none" stroke="midnightblue" d="M749.905,-114.632C761.527,-114.527 773.369,-114.42 784.903,-114.315"/>
<polygon fill="midnightblue" stroke="midnightblue" points="749.729,-111.133 739.761,-114.724 749.792,-118.133 749.729,-111.133"/>
</g>
<!-- Node28 -->
<g id="node28" class="node"><title>Node28</title>
<g id="a_node28"><a xlink:href="classCSelectionCriteria.html#a450f1208de1f19ad99740510b896a3af" target="_top" xlink:title="CSelectionCriteria\l::createSelectionCriterionType">
<polygon fill="white" stroke="black" points="358.5,-49.5 358.5,-79.5 517.5,-79.5 517.5,-49.5 358.5,-49.5"/>
<text text-anchor="start" x="366.5" y="-67.5" font-family="Verdana" font-size="10.00">CSelectionCriteria</text>
<text text-anchor="middle" x="438" y="-56.5" font-family="Verdana" font-size="10.00">::createSelectionCriterionType</text>
</a>
</g>
</g>
<!-- Node27&#45;&gt;Node28 -->
<g id="edge29" class="edge"><title>Node27&#45;&gt;Node28</title>
<path fill="none" stroke="midnightblue" d="M322.535,-65.625C334.407,-65.5083 346.514,-65.3893 358.195,-65.2745"/>
<polygon fill="midnightblue" stroke="midnightblue" points="322.144,-62.1285 312.178,-65.7267 322.212,-69.1282 322.144,-62.1285"/>
</g>
<!-- Node29 -->
<g id="node29" class="node"><title>Node29</title>
<g id="a_node29"><a xlink:href="classCParameterMgr.html#a4d2a54a91f937ac71a1f7bbea2ffa1c2" target="_top" xlink:title="CParameterMgr::createSelection\lCriterionType">
<polygon fill="white" stroke="black" points="566.5,-49.5 566.5,-79.5 739.5,-79.5 739.5,-49.5 566.5,-49.5"/>
<text text-anchor="start" x="574.5" y="-67.5" font-family="Verdana" font-size="10.00">CParameterMgr::createSelection</text>
<text text-anchor="middle" x="653" y="-56.5" font-family="Verdana" font-size="10.00">CriterionType</text>
</a>
</g>
</g>
<!-- Node28&#45;&gt;Node29 -->
<g id="edge30" class="edge"><title>Node28&#45;&gt;Node29</title>
<path fill="none" stroke="midnightblue" d="M527.861,-64.5C540.632,-64.5 553.751,-64.5 566.456,-64.5"/>
<polygon fill="midnightblue" stroke="midnightblue" points="527.708,-61.0001 517.708,-64.5 527.708,-68.0001 527.708,-61.0001"/>
</g>
<!-- Node30 -->
<g id="node30" class="node"><title>Node30</title>
<g id="a_node30"><a xlink:href="classCParameterMgrFullConnector.html#a664df3b9fa02b02d7fb72df7101d6e78" target="_top" xlink:title="CParameterMgrFullConnector\l::createSelectionCriterionType">
<polygon fill="white" stroke="black" points="796.5,-49.5 796.5,-79.5 955.5,-79.5 955.5,-49.5 796.5,-49.5"/>
<text text-anchor="start" x="804.5" y="-67.5" font-family="Verdana" font-size="10.00">CParameterMgrFullConnector</text>
<text text-anchor="middle" x="876" y="-56.5" font-family="Verdana" font-size="10.00">::createSelectionCriterionType</text>
</a>
</g>
</g>
<!-- Node29&#45;&gt;Node30 -->
<g id="edge31" class="edge"><title>Node29&#45;&gt;Node30</title>
<path fill="none" stroke="midnightblue" d="M749.85,-64.5C765.308,-64.5 781.155,-64.5 796.153,-64.5"/>
<polygon fill="midnightblue" stroke="midnightblue" points="749.761,-61.0001 739.761,-64.5 749.761,-68.0001 749.761,-61.0001"/>
</g>
<!-- Node31 -->
<g id="node31" class="node"><title>Node31</title>
<g id="a_node31"><a xlink:href="classCParameterMgrPlatformConnector.html#a025538f1532d26442e0acb7c3ed7497b" target="_top" xlink:title="CParameterMgrPlatformConnector\l::createSelectionCriterionType">
<polygon fill="white" stroke="black" points="785,-0.5 785,-30.5 967,-30.5 967,-0.5 785,-0.5"/>
<text text-anchor="start" x="793" y="-18.5" font-family="Verdana" font-size="10.00">CParameterMgrPlatformConnector</text>
<text text-anchor="middle" x="876" y="-7.5" font-family="Verdana" font-size="10.00">::createSelectionCriterionType</text>
</a>
</g>
</g>
<!-- Node29&#45;&gt;Node31 -->
<g id="edge32" class="edge"><title>Node29&#45;&gt;Node31</title>
<path fill="none" stroke="midnightblue" d="M731.838,-47.2419C756.463,-41.782 783.465,-35.795 807.319,-30.5062"/>
<polygon fill="midnightblue" stroke="midnightblue" points="730.814,-43.8837 721.809,-49.4654 732.33,-50.7177 730.814,-43.8837"/>
</g>
<!-- Node33 -->
<g id="node33" class="node"><title>Node33</title>
<g id="a_node33"><a xlink:href="classCInstanceDefinition.html#aa29d3b10a23894522cfaa937cf385d10" target="_top" xlink:title="CInstanceDefinition\l::createInstances">
<polygon fill="white" stroke="black" points="598.5,-271.5 598.5,-301.5 707.5,-301.5 707.5,-271.5 598.5,-271.5"/>
<text text-anchor="start" x="606.5" y="-289.5" font-family="Verdana" font-size="10.00">CInstanceDefinition</text>
<text text-anchor="middle" x="653" y="-278.5" font-family="Verdana" font-size="10.00">::createInstances</text>
</a>
</g>
</g>
<!-- Node32&#45;&gt;Node33 -->
<g id="edge34" class="edge"><title>Node32&#45;&gt;Node33</title>
<path fill="none" stroke="midnightblue" d="M309.074,-284.861C392.561,-285.26 524.883,-285.893 598.359,-286.244"/>
<polygon fill="midnightblue" stroke="midnightblue" points="308.907,-281.36 298.891,-284.812 308.874,-288.36 308.907,-281.36"/>
</g>
<!-- Node34 -->
<g id="node34" class="node"><title>Node34</title>
<g id="a_node34"><a xlink:href="classCTypeElement.html#a0fd0b5dfb3e3515ff5b54eda3d7e0a45" target="_top" xlink:title="CTypeElement::instantiate">
<polygon fill="white" stroke="black" points="367.5,-239 367.5,-258 508.5,-258 508.5,-239 367.5,-239"/>
<text text-anchor="middle" x="438" y="-246" font-family="Verdana" font-size="10.00">CTypeElement::instantiate</text>
</a>
</g>
</g>
<!-- Node32&#45;&gt;Node34 -->
<g id="edge36" class="edge"><title>Node32&#45;&gt;Node34</title>
<path fill="none" stroke="midnightblue" d="M270.322,-272.647C297.31,-266.493 334.764,-259.499 367.333,-254.382"/>
<polygon fill="midnightblue" stroke="midnightblue" points="269.452,-269.257 260.523,-274.959 271.06,-276.069 269.452,-269.257"/>
</g>
<!-- Node33&#45;&gt;Node12 -->
<g id="edge35" class="edge"><title>Node33&#45;&gt;Node12</title>
<path fill="none" stroke="midnightblue" d="M717.805,-293.718C748.062,-297.141 784.044,-301.211 813.942,-304.593"/>
<polygon fill="midnightblue" stroke="midnightblue" points="718.11,-290.23 707.78,-292.584 717.323,-297.186 718.11,-290.23"/>
</g>
<!-- Node34&#45;&gt;Node32 -->
<g id="edge37" class="edge"><title>Node34&#45;&gt;Node32</title>
<path fill="none" stroke="midnightblue" d="M400.151,-260.359C371.929,-266.793 332.275,-274.144 298.728,-279.308"/>
<polygon fill="midnightblue" stroke="midnightblue" points="401.069,-263.738 409.998,-258.035 399.462,-256.925 401.069,-263.738"/>
</g>
</g>
</svg>
