<?xml version="1.0" encoding="UTF-8" standalone="no"?>
<!DOCTYPE svg PUBLIC "-//W3C//DTD SVG 1.1//EN"
 "http://www.w3.org/Graphics/SVG/1.1/DTD/svg11.dtd">
<!-- Generated by graphviz version 2.38.0 (20140413.2041)
 -->
<!-- Title: CDomainConfiguration::getApplicationRule Pages: 1 -->
<svg width="471pt" height="104pt"
 viewBox="0.00 0.00 471.00 104.00" xmlns="http://www.w3.org/2000/svg" xmlns:xlink="http://www.w3.org/1999/xlink">
<g id="graph0" class="graph" transform="scale(1 1) rotate(0) translate(4 100)">
<title>CDomainConfiguration::getApplicationRule</title>
<polygon fill="white" stroke="none" points="-4,4 -4,-100 467,-100 467,4 -4,4"/>
<!-- Node1 -->
<g id="node1" class="node"><title>Node1</title>
<polygon fill="#bfbfbf" stroke="black" points="0,-33 0,-63 125,-63 125,-33 0,-33"/>
<text text-anchor="start" x="8" y="-51" font-family="Verdana" font-size="10.00">CDomainConfiguration</text>
<text text-anchor="middle" x="62.5" y="-40" font-family="Verdana" font-size="10.00">::getApplicationRule</text>
</g>
<!-- Node2 -->
<g id="node2" class="node"><title>Node2</title>
<g id="a_node2"><a xlink:href="classCCompoundRule.html#aa96236e3d92d64f6d525082be7f3c115" target="_top" xlink:title="CCompoundRule::dump">
<polygon fill="white" stroke="black" points="161,-38.5 161,-57.5 290,-57.5 290,-38.5 161,-38.5"/>
<text text-anchor="middle" x="225.5" y="-45.5" font-family="Verdana" font-size="10.00">CCompoundRule::dump</text>
</a>
</g>
</g>
<!-- Node1&#45;&gt;Node2 -->
<g id="edge1" class="edge"><title>Node1&#45;&gt;Node2</title>
<path fill="none" stroke="midnightblue" d="M125.286,-48C133.545,-48 142.082,-48 150.523,-48"/>
<polygon fill="midnightblue" stroke="midnightblue" points="150.746,-51.5001 160.746,-48 150.746,-44.5001 150.746,-51.5001"/>
</g>
<!-- Node3 -->
<g id="node3" class="node"><title>Node3</title>
<g id="a_node3"><a xlink:href="classCElement.html#a58b6cdb5715497442fde6afa1e65f8e5" target="_top" xlink:title="CElement::getNbChildren">
<polygon fill="white" stroke="black" points="326,-76.5 326,-95.5 463,-95.5 463,-76.5 326,-76.5"/>
<text text-anchor="middle" x="394.5" y="-83.5" font-family="Verdana" font-size="10.00">CElement::getNbChildren</text>
</a>
</g>
</g>
<!-- Node2&#45;&gt;Node3 -->
<g id="edge2" class="edge"><title>Node2&#45;&gt;Node3</title>
<path fill="none" stroke="midnightblue" d="M268.641,-57.589C290.877,-62.6487 318.348,-68.8996 341.856,-74.2488"/>
<polygon fill="midnightblue" stroke="midnightblue" points="341.135,-77.6739 351.662,-76.4799 342.688,-70.8484 341.135,-77.6739"/>
</g>
<!-- Node4 -->
<g id="node4" class="node"><title>Node4</title>
<g id="a_node4"><a xlink:href="classCElement.html#aee0d626525e9cd24d7639b6365afdc16" target="_top" xlink:title="Get a child element (const) ">
<polygon fill="white" stroke="black" points="340.5,-38.5 340.5,-57.5 448.5,-57.5 448.5,-38.5 340.5,-38.5"/>
<text text-anchor="middle" x="394.5" y="-45.5" font-family="Verdana" font-size="10.00">CElement::getChild</text>
</a>
</g>
</g>
<!-- Node2&#45;&gt;Node4 -->
<g id="edge3" class="edge"><title>Node2&#45;&gt;Node4</title>
<path fill="none" stroke="midnightblue" d="M290.112,-48C303.204,-48 316.988,-48 330.074,-48"/>
<polygon fill="midnightblue" stroke="midnightblue" points="330.391,-51.5001 340.391,-48 330.391,-44.5001 330.391,-51.5001"/>
</g>
<!-- Node5 -->
<g id="node5" class="node"><title>Node5</title>
<g id="a_node5"><a xlink:href="classCRule.html#a1f1682adc8db3c266f6c79bde39b12cd" target="_top" xlink:title="CRule::dump">
<polygon fill="white" stroke="black" points="356,-0.5 356,-19.5 433,-19.5 433,-0.5 356,-0.5"/>
<text text-anchor="middle" x="394.5" y="-7.5" font-family="Verdana" font-size="10.00">CRule::dump</text>
</a>
</g>
</g>
<!-- Node2&#45;&gt;Node5 -->
<g id="edge4" class="edge"><title>Node2&#45;&gt;Node5</title>
<path fill="none" stroke="midnightblue" d="M268.641,-38.411C292.25,-33.0389 321.761,-26.3238 346.164,-20.7711"/>
<polygon fill="midnightblue" stroke="midnightblue" points="346.957,-24.1802 355.931,-18.5487 345.404,-17.3547 346.957,-24.1802"/>
</g>
</g>
</svg>
