<?xml version="1.0" encoding="UTF-8" standalone="no"?>
<!DOCTYPE svg PUBLIC "-//W3C//DTD SVG 1.1//EN"
 "http://www.w3.org/Graphics/SVG/1.1/DTD/svg11.dtd">
<!-- Generated by graphviz version 2.38.0 (20140413.2041)
 -->
<!-- Title: CXmlElement::setAttribute Pages: 1 -->
<svg width="879pt" height="991pt"
 viewBox="0.00 0.00 879.00 990.62" xmlns="http://www.w3.org/2000/svg" xmlns:xlink="http://www.w3.org/1999/xlink">
<g id="graph0" class="graph" transform="scale(1 1) rotate(0) translate(4 986.619)">
<title>CXmlElement::setAttribute</title>
<polygon fill="white" stroke="none" points="-4,4 -4,-986.619 875,-986.619 875,4 -4,4"/>
<!-- Node1 -->
<g id="node1" class="node"><title>Node1</title>
<polygon fill="#bfbfbf" stroke="black" points="0,-494 0,-513 144,-513 144,-494 0,-494"/>
<text text-anchor="middle" x="72" y="-501" font-family="Verdana" font-size="10.00">CXmlElement::setAttribute</text>
</g>
<!-- Node2 -->
<g id="node2" class="node"><title>Node2</title>
<g id="a_node2"><a xlink:href="classCBitParameterBlock.html#ae8f1443ff248a9b5cb783bea475157f3" target="_top" xlink:title="Serialize the structure to xml. ">
<polygon fill="white" stroke="black" points="594.5,-707.5 594.5,-737.5 706.5,-737.5 706.5,-707.5 594.5,-707.5"/>
<text text-anchor="start" x="602.5" y="-725.5" font-family="Verdana" font-size="10.00">CBitParameterBlock</text>
<text text-anchor="middle" x="650.5" y="-714.5" font-family="Verdana" font-size="10.00">::structureToXml</text>
</a>
</g>
</g>
<!-- Node1&#45;&gt;Node2 -->
<g id="edge1" class="edge"><title>Node1&#45;&gt;Node2</title>
<path fill="none" stroke="midnightblue" d="M74.5672,-523.041C81.3313,-601.889 110.866,-894.99 180,-949.5 339.611,-1075.35 580.347,-805.897 637.174,-737.681"/>
<polygon fill="midnightblue" stroke="midnightblue" points="78.0503,-522.692 73.7324,-513.017 71.0744,-523.273 78.0503,-522.692"/>
</g>
<!-- Node3 -->
<g id="node3" class="node"><title>Node3</title>
<g id="a_node3"><a xlink:href="classCBitParameterBlockType.html#a4d3f66cff415a8f8ef825092b92ed787" target="_top" xlink:title="CBitParameterBlockType\l::toXml">
<polygon fill="white" stroke="black" points="200,-909.5 200,-939.5 333,-939.5 333,-909.5 200,-909.5"/>
<text text-anchor="start" x="208" y="-927.5" font-family="Verdana" font-size="10.00">CBitParameterBlockType</text>
<text text-anchor="middle" x="266.5" y="-916.5" font-family="Verdana" font-size="10.00">::toXml</text>
</a>
</g>
</g>
<!-- Node1&#45;&gt;Node3 -->
<g id="edge2" class="edge"><title>Node1&#45;&gt;Node3</title>
<path fill="none" stroke="midnightblue" d="M75.7094,-523.17C86.0447,-595.462 125.188,-845.115 180,-900.5 185.639,-906.198 192.515,-910.572 199.893,-913.924"/>
<polygon fill="midnightblue" stroke="midnightblue" points="79.1585,-522.563 74.3,-513.148 72.2267,-523.538 79.1585,-522.563"/>
</g>
<!-- Node4 -->
<g id="node4" class="node"><title>Node4</title>
<g id="a_node4"><a xlink:href="classCBitParameterType.html#aec2c699920b9ab28fa560721b0fb9e05" target="_top" xlink:title="CBitParameterType::\ltoXml">
<polygon fill="white" stroke="black" points="210,-860.5 210,-890.5 323,-890.5 323,-860.5 210,-860.5"/>
<text text-anchor="start" x="218" y="-878.5" font-family="Verdana" font-size="10.00">CBitParameterType::</text>
<text text-anchor="middle" x="266.5" y="-867.5" font-family="Verdana" font-size="10.00">toXml</text>
</a>
</g>
</g>
<!-- Node1&#45;&gt;Node4 -->
<g id="edge3" class="edge"><title>Node1&#45;&gt;Node4</title>
<path fill="none" stroke="midnightblue" d="M72.9746,-523.294C74.0091,-582.049 85.2836,-757.16 180,-850.5 188.151,-858.533 198.734,-864.011 209.662,-867.739"/>
<polygon fill="midnightblue" stroke="midnightblue" points="76.4733,-523.121 72.8826,-513.153 69.4736,-523.184 76.4733,-523.121"/>
</g>
<!-- Node5 -->
<g id="node5" class="node"><title>Node5</title>
<g id="a_node5"><a xlink:href="classCCompoundRule.html#a39df5f49ea5dea5b888d0983a01b2f2a" target="_top" xlink:title="CCompoundRule::toXml">
<polygon fill="white" stroke="black" points="202,-822 202,-841 331,-841 331,-822 202,-822"/>
<text text-anchor="middle" x="266.5" y="-829" font-family="Verdana" font-size="10.00">CCompoundRule::toXml</text>
</a>
</g>
</g>
<!-- Node1&#45;&gt;Node5 -->
<g id="edge4" class="edge"><title>Node1&#45;&gt;Node5</title>
<path fill="none" stroke="midnightblue" d="M73.5523,-523.207C76.2108,-578.065 91.575,-733.676 180,-812.5 186.243,-818.065 193.75,-822.116 201.689,-825.046"/>
<polygon fill="midnightblue" stroke="midnightblue" points="77.045,-522.949 73.1561,-513.094 70.0504,-523.223 77.045,-522.949"/>
</g>
<!-- Node6 -->
<g id="node6" class="node"><title>Node6</title>
<g id="a_node6"><a xlink:href="classCConfigurableDomain.html#a16fb6528dc374c46aa56b936611bff7c" target="_top" xlink:title="CConfigurableDomain\l::toXml">
<polygon fill="white" stroke="black" points="206,-772.5 206,-802.5 327,-802.5 327,-772.5 206,-772.5"/>
<text text-anchor="start" x="214" y="-790.5" font-family="Verdana" font-size="10.00">CConfigurableDomain</text>
<text text-anchor="middle" x="266.5" y="-779.5" font-family="Verdana" font-size="10.00">::toXml</text>
</a>
</g>
</g>
<!-- Node1&#45;&gt;Node6 -->
<g id="edge5" class="edge"><title>Node1&#45;&gt;Node6</title>
<path fill="none" stroke="midnightblue" d="M75.2737,-523.367C81.9059,-571.915 105.72,-697.423 180,-763.5 187.372,-770.058 196.402,-774.837 205.8,-778.317"/>
<polygon fill="midnightblue" stroke="midnightblue" points="78.7206,-522.726 73.9928,-513.244 71.776,-523.605 78.7206,-522.726"/>
</g>
<!-- Node7 -->
<g id="node7" class="node"><title>Node7</title>
<g id="a_node7"><a xlink:href="classCConfigurableDomains.html#a5860b741035feefdee06566ec1ab94b0" target="_top" xlink:title="CConfigurableDomains\l::toXml">
<polygon fill="white" stroke="black" points="203.5,-723.5 203.5,-753.5 329.5,-753.5 329.5,-723.5 203.5,-723.5"/>
<text text-anchor="start" x="211.5" y="-741.5" font-family="Verdana" font-size="10.00">CConfigurableDomains</text>
<text text-anchor="middle" x="266.5" y="-730.5" font-family="Verdana" font-size="10.00">::toXml</text>
</a>
</g>
</g>
<!-- Node1&#45;&gt;Node7 -->
<g id="edge6" class="edge"><title>Node1&#45;&gt;Node7</title>
<path fill="none" stroke="midnightblue" d="M77.3323,-523.226C87.5567,-565.031 117.198,-662.923 180,-714.5 186.791,-720.077 194.797,-724.361 203.14,-727.65"/>
<polygon fill="midnightblue" stroke="midnightblue" points="80.6787,-522.164 74.9991,-513.22 73.8617,-523.754 80.6787,-522.164"/>
</g>
<!-- Node8 -->
<g id="node8" class="node"><title>Node8</title>
<g id="a_node8"><a xlink:href="classCDomainConfiguration.html#a39c907e9023554f7a86836ac9f8da32f" target="_top" xlink:title="CDomainConfiguration\l::composeSettings">
<polygon fill="white" stroke="black" points="204,-674.5 204,-704.5 329,-704.5 329,-674.5 204,-674.5"/>
<text text-anchor="start" x="212" y="-692.5" font-family="Verdana" font-size="10.00">CDomainConfiguration</text>
<text text-anchor="middle" x="266.5" y="-681.5" font-family="Verdana" font-size="10.00">::composeSettings</text>
</a>
</g>
</g>
<!-- Node1&#45;&gt;Node8 -->
<g id="edge7" class="edge"><title>Node1&#45;&gt;Node8</title>
<path fill="none" stroke="midnightblue" d="M80.4661,-522.998C94.5661,-557.178 128.405,-627.852 180,-665.5 187.099,-670.68 195.275,-674.743 203.698,-677.93"/>
<polygon fill="midnightblue" stroke="midnightblue" points="83.5415,-521.261 76.5842,-513.271 77.0401,-523.856 83.5415,-521.261"/>
</g>
<!-- Node9 -->
<g id="node9" class="node"><title>Node9</title>
<g id="a_node9"><a xlink:href="classCElement.html#a581660a35394ecc99fe7128f9548c3d0" target="_top" xlink:title="Fill the Description field of the Xml Element during XML composing. ">
<polygon fill="white" stroke="black" points="188.5,-625.5 188.5,-655.5 344.5,-655.5 344.5,-625.5 188.5,-625.5"/>
<text text-anchor="start" x="196.5" y="-643.5" font-family="Verdana" font-size="10.00">CElement::setXmlDescription</text>
<text text-anchor="middle" x="266.5" y="-632.5" font-family="Verdana" font-size="10.00">Attribute</text>
</a>
</g>
</g>
<!-- Node1&#45;&gt;Node9 -->
<g id="edge8" class="edge"><title>Node1&#45;&gt;Node9</title>
<path fill="none" stroke="midnightblue" d="M84.9761,-521.229C102.775,-546.209 138.595,-591.502 180,-616.5 185.675,-619.926 191.856,-622.879 198.213,-625.42"/>
<polygon fill="midnightblue" stroke="midnightblue" points="87.8451,-519.224 79.2569,-513.02 82.1016,-523.226 87.8451,-519.224"/>
</g>
<!-- Node14 -->
<g id="node14" class="node"><title>Node14</title>
<g id="a_node14"><a xlink:href="classCEnumParameterType.html#a657fc941f16df1059a7f1377aa85b258" target="_top" xlink:title="CEnumParameterType\l::toXml">
<polygon fill="white" stroke="black" points="205.5,-576.5 205.5,-606.5 327.5,-606.5 327.5,-576.5 205.5,-576.5"/>
<text text-anchor="start" x="213.5" y="-594.5" font-family="Verdana" font-size="10.00">CEnumParameterType</text>
<text text-anchor="middle" x="266.5" y="-583.5" font-family="Verdana" font-size="10.00">::toXml</text>
</a>
</g>
</g>
<!-- Node1&#45;&gt;Node14 -->
<g id="edge14" class="edge"><title>Node1&#45;&gt;Node14</title>
<path fill="none" stroke="midnightblue" d="M95.1266,-518.737C116.185,-532.694 149.15,-553.154 180,-566.5 188.516,-570.184 197.737,-573.515 206.865,-576.455"/>
<polygon fill="midnightblue" stroke="midnightblue" points="96.8579,-515.683 86.6054,-513.012 92.9543,-521.494 96.8579,-515.683"/>
</g>
<!-- Node15 -->
<g id="node15" class="node"><title>Node15</title>
<g id="a_node15"><a xlink:href="classCEnumValuePair.html#af7f3d59a079b449b72e6e0eb5dd8fedc" target="_top" xlink:title="CEnumValuePair::toXml">
<polygon fill="white" stroke="black" points="202.5,-538 202.5,-557 330.5,-557 330.5,-538 202.5,-538"/>
<text text-anchor="middle" x="266.5" y="-545" font-family="Verdana" font-size="10.00">CEnumValuePair::toXml</text>
</a>
</g>
</g>
<!-- Node1&#45;&gt;Node15 -->
<g id="edge15" class="edge"><title>Node1&#45;&gt;Node15</title>
<path fill="none" stroke="midnightblue" d="M123.312,-515.374C141.2,-519.564 161.489,-524.281 180,-528.5 193.64,-531.609 208.518,-534.937 221.983,-537.925"/>
<polygon fill="midnightblue" stroke="midnightblue" points="123.905,-511.918 113.37,-513.041 122.306,-518.733 123.905,-511.918"/>
</g>
<!-- Node16 -->
<g id="node16" class="node"><title>Node16</title>
<g id="a_node16"><a xlink:href="classCFixedPointParameterType.html#ac5dd869d9846a4e999fe9715b397c17d" target="_top" xlink:title="Value space handling for settings import/export from/to XML. ">
<polygon fill="white" stroke="black" points="190,-488.5 190,-518.5 343,-518.5 343,-488.5 190,-488.5"/>
<text text-anchor="start" x="198" y="-506.5" font-family="Verdana" font-size="10.00">CFixedPointParameterType</text>
<text text-anchor="middle" x="266.5" y="-495.5" font-family="Verdana" font-size="10.00">::handleValueSpaceAttribute</text>
</a>
</g>
</g>
<!-- Node1&#45;&gt;Node16 -->
<g id="edge16" class="edge"><title>Node1&#45;&gt;Node16</title>
<path fill="none" stroke="midnightblue" d="M154.366,-503.5C166.12,-503.5 178.178,-503.5 189.815,-503.5"/>
<polygon fill="midnightblue" stroke="midnightblue" points="154.133,-500 144.133,-503.5 154.133,-507 154.133,-500"/>
</g>
<!-- Node17 -->
<g id="node17" class="node"><title>Node17</title>
<g id="a_node17"><a xlink:href="classCFixedPointParameterType.html#ac9e0de762e60d0cfce00122bdbef137e" target="_top" xlink:title="CFixedPointParameterType\l::toXml">
<polygon fill="white" stroke="black" points="195,-439.5 195,-469.5 338,-469.5 338,-439.5 195,-439.5"/>
<text text-anchor="start" x="203" y="-457.5" font-family="Verdana" font-size="10.00">CFixedPointParameterType</text>
<text text-anchor="middle" x="266.5" y="-446.5" font-family="Verdana" font-size="10.00">::toXml</text>
</a>
</g>
</g>
<!-- Node1&#45;&gt;Node17 -->
<g id="edge17" class="edge"><title>Node1&#45;&gt;Node17</title>
<path fill="none" stroke="midnightblue" d="M120.543,-491.398C146.496,-484.792 178.864,-476.553 206.426,-469.537"/>
<polygon fill="midnightblue" stroke="midnightblue" points="119.4,-488.077 110.573,-493.936 121.127,-494.861 119.4,-488.077"/>
</g>
<!-- Node18 -->
<g id="node18" class="node"><title>Node18</title>
<g id="a_node18"><a xlink:href="classCFloatingPointParameterType.html#a5fcda53d3c5e9e2cdab424158c808f19" target="_top" xlink:title="Value space handling for settings import/export from/to XML. ">
<polygon fill="white" stroke="black" points="188.5,-390.5 188.5,-420.5 344.5,-420.5 344.5,-390.5 188.5,-390.5"/>
<text text-anchor="start" x="196.5" y="-408.5" font-family="Verdana" font-size="10.00">CFloatingPointParameterType</text>
<text text-anchor="middle" x="266.5" y="-397.5" font-family="Verdana" font-size="10.00">::handleValueSpaceAttribute</text>
</a>
</g>
</g>
<!-- Node1&#45;&gt;Node18 -->
<g id="edge18" class="edge"><title>Node1&#45;&gt;Node18</title>
<path fill="none" stroke="midnightblue" d="M92.4108,-487.461C113.017,-471.128 147.09,-446.057 180,-430.5 187.97,-426.733 196.629,-423.403 205.276,-420.504"/>
<polygon fill="midnightblue" stroke="midnightblue" points="90.0413,-484.875 84.4466,-493.872 94.431,-490.328 90.0413,-484.875"/>
</g>
<!-- Node19 -->
<g id="node19" class="node"><title>Node19</title>
<g id="a_node19"><a xlink:href="classCFloatingPointParameterType.html#ab6a0070b3b32a68d8dd1cb3868019817" target="_top" xlink:title="CFloatingPointParameterType\l::toXml">
<polygon fill="white" stroke="black" points="188.5,-341.5 188.5,-371.5 344.5,-371.5 344.5,-341.5 188.5,-341.5"/>
<text text-anchor="start" x="196.5" y="-359.5" font-family="Verdana" font-size="10.00">CFloatingPointParameterType</text>
<text text-anchor="middle" x="266.5" y="-348.5" font-family="Verdana" font-size="10.00">::toXml</text>
</a>
</g>
</g>
<!-- Node1&#45;&gt;Node19 -->
<g id="edge19" class="edge"><title>Node1&#45;&gt;Node19</title>
<path fill="none" stroke="midnightblue" d="M84.1575,-485.191C101.399,-458.439 137.053,-408.885 180,-381.5 185.998,-377.675 192.602,-374.418 199.399,-371.647"/>
<polygon fill="midnightblue" stroke="midnightblue" points="81.0212,-483.603 78.6591,-493.931 86.9464,-487.331 81.0212,-483.603"/>
</g>
<!-- Node20 -->
<g id="node20" class="node"><title>Node20</title>
<g id="a_node20"><a xlink:href="classCIntegerParameterType.html#a26c10292fad5a8e6603dc0673f813d69" target="_top" xlink:title="CIntegerParameterType\l::toXml">
<polygon fill="white" stroke="black" points="202.5,-292.5 202.5,-322.5 330.5,-322.5 330.5,-292.5 202.5,-292.5"/>
<text text-anchor="start" x="210.5" y="-310.5" font-family="Verdana" font-size="10.00">CIntegerParameterType</text>
<text text-anchor="middle" x="266.5" y="-299.5" font-family="Verdana" font-size="10.00">::toXml</text>
</a>
</g>
</g>
<!-- Node1&#45;&gt;Node20 -->
<g id="edge20" class="edge"><title>Node1&#45;&gt;Node20</title>
<path fill="none" stroke="midnightblue" d="M79.8314,-483.957C93.2813,-448.365 126.612,-372.924 180,-332.5 186.658,-327.459 194.312,-323.432 202.244,-320.216"/>
<polygon fill="midnightblue" stroke="midnightblue" points="76.4377,-483.047 76.2953,-493.641 83.0131,-485.448 76.4377,-483.047"/>
</g>
<!-- Node21 -->
<g id="node21" class="node"><title>Node21</title>
<g id="a_node21"><a xlink:href="classCSelectionCriterion.html#a3942150fa9e5980d89268672fff31032" target="_top" xlink:title="Export to XML. ">
<polygon fill="white" stroke="black" points="417,-202.5 417,-232.5 525,-232.5 525,-202.5 417,-202.5"/>
<text text-anchor="start" x="425" y="-220.5" font-family="Verdana" font-size="10.00">CSelectionCriterion</text>
<text text-anchor="middle" x="471" y="-209.5" font-family="Verdana" font-size="10.00">::toXml</text>
</a>
</g>
</g>
<!-- Node1&#45;&gt;Node21 -->
<g id="edge21" class="edge"><title>Node1&#45;&gt;Node21</title>
<path fill="none" stroke="midnightblue" d="M76.6206,-483.86C85.6901,-440.489 113.594,-336.213 180,-283.5 182.344,-281.639 333.558,-247.821 416.666,-229.336"/>
<polygon fill="midnightblue" stroke="midnightblue" points="73.1758,-483.238 74.6673,-493.728 80.0426,-484.598 73.1758,-483.238"/>
</g>
<!-- Node22 -->
<g id="node22" class="node"><title>Node22</title>
<g id="a_node22"><a xlink:href="classCSelectionCriterionRule.html#aa31aa27a5aba096913b6f5d1e59a9360" target="_top" xlink:title="CSelectionCriterionRule\l::toXml">
<polygon fill="white" stroke="black" points="202.5,-204.5 202.5,-234.5 330.5,-234.5 330.5,-204.5 202.5,-204.5"/>
<text text-anchor="start" x="210.5" y="-222.5" font-family="Verdana" font-size="10.00">CSelectionCriterionRule</text>
<text text-anchor="middle" x="266.5" y="-211.5" font-family="Verdana" font-size="10.00">::toXml</text>
</a>
</g>
</g>
<!-- Node1&#45;&gt;Node22 -->
<g id="edge22" class="edge"><title>Node1&#45;&gt;Node22</title>
<path fill="none" stroke="midnightblue" d="M75.7864,-483.751C83.4769,-436.51 109.32,-315.978 180,-249.5 186.532,-243.357 194.393,-238.462 202.669,-234.564"/>
<polygon fill="midnightblue" stroke="midnightblue" points="72.2909,-483.456 74.2394,-493.871 79.2105,-484.514 72.2909,-483.456"/>
</g>
<!-- Node23 -->
<g id="node23" class="node"><title>Node23</title>
<g id="a_node23"><a xlink:href="classCSelectionCriterionType.html#a95813f4b14f06857afaf8a50d0d62600" target="_top" xlink:title="Export to XML. ">
<polygon fill="white" stroke="black" points="202,-155.5 202,-185.5 331,-185.5 331,-155.5 202,-155.5"/>
<text text-anchor="start" x="210" y="-173.5" font-family="Verdana" font-size="10.00">CSelectionCriterionType</text>
<text text-anchor="middle" x="266.5" y="-162.5" font-family="Verdana" font-size="10.00">::toXml</text>
</a>
</g>
</g>
<!-- Node1&#45;&gt;Node23 -->
<g id="edge23" class="edge"><title>Node1&#45;&gt;Node23</title>
<path fill="none" stroke="midnightblue" d="M73.8001,-483.674C77.1,-429.134 93.9683,-275.543 180,-194.5 186.284,-188.58 193.911,-184.101 201.991,-180.717"/>
<polygon fill="midnightblue" stroke="midnightblue" points="70.3003,-483.581 73.2818,-493.747 77.2911,-483.94 70.3003,-483.581"/>
</g>
<!-- Node24 -->
<g id="node24" class="node"><title>Node24</title>
<g id="a_node24"><a xlink:href="classCStringParameterType.html#ab655874731579f60d025ae601920e463" target="_top" xlink:title="CStringParameterType\l::toXml">
<polygon fill="white" stroke="black" points="205,-106.5 205,-136.5 328,-136.5 328,-106.5 205,-106.5"/>
<text text-anchor="start" x="213" y="-124.5" font-family="Verdana" font-size="10.00">CStringParameterType</text>
<text text-anchor="middle" x="266.5" y="-113.5" font-family="Verdana" font-size="10.00">::toXml</text>
</a>
</g>
</g>
<!-- Node1&#45;&gt;Node24 -->
<g id="edge25" class="edge"><title>Node1&#45;&gt;Node24</title>
<path fill="none" stroke="midnightblue" d="M72.7066,-483.824C72.9268,-423.896 82.0152,-241.855 180,-145.5 186.925,-138.69 195.62,-133.778 204.794,-130.243"/>
<polygon fill="midnightblue" stroke="midnightblue" points="69.2066,-483.85 72.7531,-493.834 76.2065,-483.817 69.2066,-483.85"/>
</g>
<!-- Node25 -->
<g id="node25" class="node"><title>Node25</title>
<g id="a_node25"><a xlink:href="classCTypeElement.html#ac4118594de3638c76ab40ccc4ecbb2a8" target="_top" xlink:title="CTypeElement::toXml">
<polygon fill="white" stroke="black" points="207.5,-68 207.5,-87 325.5,-87 325.5,-68 207.5,-68"/>
<text text-anchor="middle" x="266.5" y="-75" font-family="Verdana" font-size="10.00">CTypeElement::toXml</text>
</a>
</g>
</g>
<!-- Node1&#45;&gt;Node25 -->
<g id="edge26" class="edge"><title>Node1&#45;&gt;Node25</title>
<path fill="none" stroke="midnightblue" d="M75.4738,-483.721C85.1013,-409.905 122.408,-151.921 180,-96.5 187.56,-89.2249 197.256,-84.4912 207.388,-81.4575"/>
<polygon fill="midnightblue" stroke="midnightblue" points="71.9654,-483.564 74.1675,-493.928 78.9088,-484.453 71.9654,-483.564"/>
</g>
<!-- Node27 -->
<g id="node27" class="node"><title>Node27</title>
<g id="a_node27"><a xlink:href="classCXmlElement.html#a011852f913ce7102341352588f0efa51" target="_top" xlink:title="CXmlElement::setNameAttribute">
<polygon fill="white" stroke="black" points="180,-30 180,-49 353,-49 353,-30 180,-30"/>
<text text-anchor="middle" x="266.5" y="-37" font-family="Verdana" font-size="10.00">CXmlElement::setNameAttribute</text>
</a>
</g>
</g>
<!-- Node1&#45;&gt;Node27 -->
<g id="edge28" class="edge"><title>Node1&#45;&gt;Node27</title>
<path fill="none" stroke="midnightblue" d="M75.0322,-483.42C83.3845,-404.883 117.608,-119.822 180,-58.5 183.796,-54.7694 188.152,-51.7038 192.844,-49.191"/>
<polygon fill="midnightblue" stroke="midnightblue" points="71.5034,-483.516 73.9501,-493.824 78.4659,-484.24 71.5034,-483.516"/>
</g>
<!-- Node10 -->
<g id="node10" class="node"><title>Node10</title>
<g id="a_node10"><a xlink:href="classCElement.html#a7ce1bde0fda5cf412b652000cab473e4" target="_top" xlink:title="CElement::toXml">
<polygon fill="white" stroke="black" points="422.5,-608 422.5,-627 519.5,-627 519.5,-608 422.5,-608"/>
<text text-anchor="middle" x="471" y="-615" font-family="Verdana" font-size="10.00">CElement::toXml</text>
</a>
</g>
</g>
<!-- Node9&#45;&gt;Node10 -->
<g id="edge9" class="edge"><title>Node9&#45;&gt;Node10</title>
<path fill="none" stroke="midnightblue" d="M354.846,-630.579C378.032,-627.946 402.209,-625.2 422.389,-622.908"/>
<polygon fill="midnightblue" stroke="midnightblue" points="354.175,-627.133 344.634,-631.739 354.965,-634.088 354.175,-627.133"/>
</g>
<!-- Node13 -->
<g id="node13" class="node"><title>Node13</title>
<g id="a_node13"><a xlink:href="classCInstanceConfigurableElement.html#a9fc955181503bd0cfd5a148dd5653905" target="_top" xlink:title="Serialize the structure to xml. ">
<polygon fill="white" stroke="black" points="389,-648.5 389,-678.5 553,-678.5 553,-648.5 389,-648.5"/>
<text text-anchor="start" x="397" y="-666.5" font-family="Verdana" font-size="10.00">CInstanceConfigurableElement</text>
<text text-anchor="middle" x="471" y="-655.5" font-family="Verdana" font-size="10.00">::structureToXml</text>
</a>
</g>
</g>
<!-- Node9&#45;&gt;Node13 -->
<g id="edge12" class="edge"><title>Node9&#45;&gt;Node13</title>
<path fill="none" stroke="midnightblue" d="M354.87,-650.424C366.105,-651.7 377.571,-653.002 388.703,-654.266"/>
<polygon fill="midnightblue" stroke="midnightblue" points="354.965,-646.912 344.634,-649.261 354.175,-653.867 354.965,-646.912"/>
</g>
<!-- Node11 -->
<g id="node11" class="node"><title>Node11</title>
<g id="a_node11"><a xlink:href="classCConfigurableElement.html#aae8cc511624bd2cee5d204815178299b" target="_top" xlink:title="Serialize the structure to xml. ">
<polygon fill="white" stroke="black" points="589,-543.5 589,-573.5 712,-573.5 712,-543.5 589,-543.5"/>
<text text-anchor="start" x="597" y="-561.5" font-family="Verdana" font-size="10.00">CConfigurableElement</text>
<text text-anchor="middle" x="650.5" y="-550.5" font-family="Verdana" font-size="10.00">::structureToXml</text>
</a>
</g>
</g>
<!-- Node10&#45;&gt;Node11 -->
<g id="edge10" class="edge"><title>Node10&#45;&gt;Node11</title>
<path fill="none" stroke="midnightblue" d="M510.601,-604.669C538.164,-595.507 575.334,-583.152 604.287,-573.529"/>
<polygon fill="midnightblue" stroke="midnightblue" points="509.299,-601.414 500.913,-607.889 511.507,-608.056 509.299,-601.414"/>
</g>
<!-- Node12 -->
<g id="node12" class="node"><title>Node12</title>
<g id="a_node12"><a xlink:href="classCConfigurableElement.html#a2331dbc00f60d4d19a5686bbb519c473" target="_top" xlink:title="CConfigurableElement\l::toXml">
<polygon fill="white" stroke="black" points="748,-405.5 748,-435.5 871,-435.5 871,-405.5 748,-405.5"/>
<text text-anchor="start" x="756" y="-423.5" font-family="Verdana" font-size="10.00">CConfigurableElement</text>
<text text-anchor="middle" x="809.5" y="-412.5" font-family="Verdana" font-size="10.00">::toXml</text>
</a>
</g>
</g>
<!-- Node11&#45;&gt;Node12 -->
<g id="edge11" class="edge"><title>Node11&#45;&gt;Node12</title>
<path fill="none" stroke="midnightblue" d="M676.238,-536.756C708.359,-508.522 763.593,-459.972 791.42,-435.513"/>
<polygon fill="midnightblue" stroke="midnightblue" points="673.801,-534.238 668.601,-543.469 678.422,-539.496 673.801,-534.238"/>
</g>
<!-- Node13&#45;&gt;Node2 -->
<g id="edge13" class="edge"><title>Node13&#45;&gt;Node2</title>
<path fill="none" stroke="midnightblue" d="M526.904,-681.75C551.754,-690.01 580.77,-699.654 604.333,-707.487"/>
<polygon fill="midnightblue" stroke="midnightblue" points="527.844,-678.374 517.25,-678.541 525.636,-685.017 527.844,-678.374"/>
</g>
<!-- Node23&#45;&gt;Node21 -->
<g id="edge24" class="edge"><title>Node23&#45;&gt;Node21</title>
<path fill="none" stroke="midnightblue" d="M340.886,-187.533C366.038,-193.371 393.678,-199.786 416.909,-205.178"/>
<polygon fill="midnightblue" stroke="midnightblue" points="341.549,-184.094 331.017,-185.242 339.966,-190.912 341.549,-184.094"/>
</g>
<!-- Node26 -->
<g id="node26" class="node"><title>Node26</title>
<g id="a_node26"><a xlink:href="classCBaseParameter.html#a42621ccce8ce4235e124789c7f2a9b8a" target="_top" xlink:title="Serialize the structure to xml. ">
<polygon fill="white" stroke="black" points="397.5,-91.5 397.5,-121.5 544.5,-121.5 544.5,-91.5 397.5,-91.5"/>
<text text-anchor="start" x="405.5" y="-109.5" font-family="Verdana" font-size="10.00">CBaseParameter::structure</text>
<text text-anchor="middle" x="471" y="-98.5" font-family="Verdana" font-size="10.00">ToXml</text>
</a>
</g>
</g>
<!-- Node25&#45;&gt;Node26 -->
<g id="edge27" class="edge"><title>Node25&#45;&gt;Node26</title>
<path fill="none" stroke="midnightblue" d="M335.678,-87.2638C355.453,-90.0958 377.119,-93.1985 397.167,-96.0695"/>
<polygon fill="midnightblue" stroke="midnightblue" points="335.924,-83.7633 325.528,-85.8102 334.931,-90.6926 335.924,-83.7633"/>
</g>
<!-- Node28 -->
<g id="node28" class="node"><title>Node28</title>
<g id="a_node28"><a xlink:href="classCConfigurableElement.html#a0e3feb8a7b18a3291ec960c9726b4eaf" target="_top" xlink:title="CConfigurableElement\l::serializeXmlSettings">
<polygon fill="white" stroke="black" points="409.5,-24.5 409.5,-54.5 532.5,-54.5 532.5,-24.5 409.5,-24.5"/>
<text text-anchor="start" x="417.5" y="-42.5" font-family="Verdana" font-size="10.00">CConfigurableElement</text>
<text text-anchor="middle" x="471" y="-31.5" font-family="Verdana" font-size="10.00">::serializeXmlSettings</text>
</a>
</g>
</g>
<!-- Node27&#45;&gt;Node28 -->
<g id="edge29" class="edge"><title>Node27&#45;&gt;Node28</title>
<path fill="none" stroke="midnightblue" d="M363.324,-39.5C378.968,-39.5 394.784,-39.5 409.275,-39.5"/>
<polygon fill="midnightblue" stroke="midnightblue" points="363.085,-36.0001 353.085,-39.5 363.085,-43.0001 363.085,-36.0001"/>
</g>
<!-- Node28&#45;&gt;Node12 -->
<g id="edge32" class="edge"><title>Node28&#45;&gt;Node12</title>
<path fill="none" stroke="midnightblue" d="M518.263,-58.9925C530.254,-65.2119 542.684,-72.7819 553,-81.5 674.303,-184.014 772.434,-354.159 800.447,-405.428"/>
<polygon fill="midnightblue" stroke="midnightblue" points="519.734,-55.8154 509.221,-54.5031 516.621,-62.0851 519.734,-55.8154"/>
</g>
<!-- Node28&#45;&gt;Node28 -->
<g id="edge33" class="edge"><title>Node28&#45;&gt;Node28</title>
<path fill="none" stroke="midnightblue" d="M439.372,-64.9579C443.297,-69.679 453.84,-73 471,-73 499.16,-73 509.5,-64.0566 502.02,-54.659"/>
<polygon fill="midnightblue" stroke="midnightblue" points="442.884,-64.848 439.98,-54.659 435.896,-64.4352 442.884,-64.848"/>
</g>
<!-- Node29 -->
<g id="node29" class="node"><title>Node29</title>
<g id="a_node29"><a xlink:href="classCAreaConfiguration.html#a6b8c95a79343ee9823b026d74184e798" target="_top" xlink:title="CAreaConfiguration\l::serializeXmlSettings">
<polygon fill="white" stroke="black" points="591,-49.5 591,-79.5 710,-79.5 710,-49.5 591,-49.5"/>
<text text-anchor="start" x="599" y="-67.5" font-family="Verdana" font-size="10.00">CAreaConfiguration</text>
<text text-anchor="middle" x="650.5" y="-56.5" font-family="Verdana" font-size="10.00">::serializeXmlSettings</text>
</a>
</g>
</g>
<!-- Node28&#45;&gt;Node29 -->
<g id="edge30" class="edge"><title>Node28&#45;&gt;Node29</title>
<path fill="none" stroke="midnightblue" d="M542.928,-49.4898C558.871,-51.7354 575.615,-54.0936 590.984,-56.2583"/>
<polygon fill="midnightblue" stroke="midnightblue" points="542.979,-45.9626 532.589,-48.0337 542.003,-52.8942 542.979,-45.9626"/>
</g>
<!-- Node30 -->
<g id="node30" class="node"><title>Node30</title>
<g id="a_node30"><a xlink:href="classCConfigurableElement.html#ac5bbe709d02fa6af3469a91a72edcd06" target="_top" xlink:title="CConfigurableElement\l::fromXml">
<polygon fill="white" stroke="black" points="589,-0.5 589,-30.5 712,-30.5 712,-0.5 589,-0.5"/>
<text text-anchor="start" x="597" y="-18.5" font-family="Verdana" font-size="10.00">CConfigurableElement</text>
<text text-anchor="middle" x="650.5" y="-7.5" font-family="Verdana" font-size="10.00">::fromXml</text>
</a>
</g>
</g>
<!-- Node28&#45;&gt;Node30 -->
<g id="edge31" class="edge"><title>Node28&#45;&gt;Node30</title>
<path fill="none" stroke="midnightblue" d="M542.538,-29.9625C557.875,-27.8888 573.97,-25.7125 588.883,-23.6961"/>
<polygon fill="midnightblue" stroke="midnightblue" points="542.03,-26.4992 532.589,-31.3077 542.968,-33.4361 542.03,-26.4992"/>
</g>
</g>
</svg>
