<?xml version="1.0" encoding="UTF-8" standalone="no"?>
<!DOCTYPE svg PUBLIC "-//W3C//DTD SVG 1.1//EN"
 "http://www.w3.org/Graphics/SVG/1.1/DTD/svg11.dtd">
<!-- Generated by graphviz version 2.36.0 (20140111.2315)
 -->
<!-- Title: CComponentLibrary::fromXml Pages: 1 -->
<svg width="674pt" height="203pt"
 viewBox="0.00 0.00 674.00 203.00" xmlns="http://www.w3.org/2000/svg" xmlns:xlink="http://www.w3.org/1999/xlink">
<g id="graph0" class="graph" transform="scale(1 1) rotate(0) translate(4 199)">
<title>CComponentLibrary::fromXml</title>
<polygon fill="white" stroke="none" points="-4,4 -4,-199 670,-199 670,4 -4,4"/>
<!-- Node1 -->
<g id="node1" class="node"><title>Node1</title>
<polygon fill="#bfbfbf" stroke="black" points="0.5,-93 0.5,-123 117.5,-123 117.5,-93 0.5,-93"/>
<text text-anchor="start" x="8.5" y="-111" font-family="Verdana" font-size="10.00">CComponentLibrary::</text>
<text text-anchor="middle" x="59" y="-100" font-family="Verdana" font-size="10.00">fromXml</text>
</g>
<!-- Node2 -->
<g id="node2" class="node"><title>Node2</title>
<g id="a_node2"><a xlink:href="classCElement.html#a0b4cdc10e6df8fd3740255c5faf3b596" target="_top" xlink:title="Creates a child CElement from a child XML Element. ">
<polygon fill="white" stroke="black" points="317.5,-126.5 317.5,-145.5 440.5,-145.5 440.5,-126.5 317.5,-126.5"/>
<text text-anchor="middle" x="379" y="-133.5" font-family="Verdana" font-size="10.00">CElement::createChild</text>
</a>
</g>
</g>
<!-- Node1&#45;&gt;Node2 -->
<g id="edge1" class="edge"><title>Node1&#45;&gt;Node2</title>
<path fill="none" stroke="midnightblue" d="M117.656,-113.62C129.665,-114.762 142.244,-115.939 154,-117 205.207,-121.623 263.03,-126.519 307.1,-130.184"/>
<polygon fill="midnightblue" stroke="midnightblue" points="306.883,-133.678 317.138,-131.017 307.462,-126.702 306.883,-133.678"/>
</g>
<!-- Node6 -->
<g id="node6" class="node"><title>Node6</title>
<g id="a_node6"><a xlink:href="classCElement.html#a1978d50e2db432e7b8f0928f33d3f01a" target="_top" xlink:title="CElement::fromXml">
<polygon fill="white" stroke="black" points="154,-70.5 154,-89.5 264,-89.5 264,-70.5 154,-70.5"/>
<text text-anchor="middle" x="209" y="-77.5" font-family="Verdana" font-size="10.00">CElement::fromXml</text>
</a>
</g>
</g>
<!-- Node1&#45;&gt;Node6 -->
<g id="edge5" class="edge"><title>Node1&#45;&gt;Node6</title>
<path fill="none" stroke="midnightblue" d="M117.644,-97.0943C127.403,-95.2481 137.561,-93.3262 147.393,-91.4662"/>
<polygon fill="midnightblue" stroke="midnightblue" points="148.315,-94.8539 157.49,-89.5559 147.014,-87.9759 148.315,-94.8539"/>
</g>
<!-- Node3 -->
<g id="node3" class="node"><title>Node3</title>
<g id="a_node3"><a xlink:href="classCXmlElementSerializingContext.html#a6c36b7e23b9968c6ea898612d2a55ee9" target="_top" xlink:title="CXmlElementSerializingContext\l::getElementLibrary">
<polygon fill="white" stroke="black" points="496.5,-165 496.5,-195 663.5,-195 663.5,-165 496.5,-165"/>
<text text-anchor="start" x="504.5" y="-183" font-family="Verdana" font-size="10.00">CXmlElementSerializingContext</text>
<text text-anchor="middle" x="580" y="-172" font-family="Verdana" font-size="10.00">::getElementLibrary</text>
</a>
</g>
</g>
<!-- Node2&#45;&gt;Node3 -->
<g id="edge2" class="edge"><title>Node2&#45;&gt;Node3</title>
<path fill="none" stroke="midnightblue" d="M423.18,-145.547C445.885,-150.568 474.424,-156.878 500.854,-162.721"/>
<polygon fill="midnightblue" stroke="midnightblue" points="500.344,-166.193 510.863,-164.935 501.855,-159.358 500.344,-166.193"/>
</g>
<!-- Node4 -->
<g id="node4" class="node"><title>Node4</title>
<g id="a_node4"><a xlink:href="classCElementLibrary.html#a5ad95964216e50fc59f0c803370fb4de" target="_top" xlink:title="CElementLibrary::createElement">
<polygon fill="white" stroke="black" points="494.5,-126.5 494.5,-145.5 665.5,-145.5 665.5,-126.5 494.5,-126.5"/>
<text text-anchor="middle" x="580" y="-133.5" font-family="Verdana" font-size="10.00">CElementLibrary::createElement</text>
</a>
</g>
</g>
<!-- Node2&#45;&gt;Node4 -->
<g id="edge3" class="edge"><title>Node2&#45;&gt;Node4</title>
<path fill="none" stroke="midnightblue" d="M440.517,-136C454.268,-136 469.198,-136 483.995,-136"/>
<polygon fill="midnightblue" stroke="midnightblue" points="484.203,-139.5 494.203,-136 484.202,-132.5 484.203,-139.5"/>
</g>
<!-- Node5 -->
<g id="node5" class="node"><title>Node5</title>
<g id="a_node5"><a xlink:href="classCElement.html#ac2ad66ee438a4a0c1390b7388874fe72" target="_top" xlink:title="CElement::addChild">
<polygon fill="white" stroke="black" points="525,-88.5 525,-107.5 635,-107.5 635,-88.5 525,-88.5"/>
<text text-anchor="middle" x="580" y="-95.5" font-family="Verdana" font-size="10.00">CElement::addChild</text>
</a>
</g>
</g>
<!-- Node2&#45;&gt;Node5 -->
<g id="edge4" class="edge"><title>Node2&#45;&gt;Node5</title>
<path fill="none" stroke="midnightblue" d="M429.959,-126.46C457.045,-121.288 490.708,-114.86 519.183,-109.422"/>
<polygon fill="midnightblue" stroke="midnightblue" points="519.854,-112.858 529.02,-107.544 518.541,-105.982 519.854,-112.858"/>
</g>
<!-- Node6&#45;&gt;Node2 -->
<g id="edge10" class="edge"><title>Node6&#45;&gt;Node2</title>
<path fill="none" stroke="midnightblue" d="M230.759,-89.5849C248.788,-97.654 275.741,-109.109 300,-117 307.727,-119.513 315.979,-121.867 324.117,-124.004"/>
<polygon fill="midnightblue" stroke="midnightblue" points="323.39,-127.431 333.944,-126.499 325.113,-120.646 323.39,-127.431"/>
</g>
<!-- Node6&#45;&gt;Node6 -->
<g id="edge11" class="edge"><title>Node6&#45;&gt;Node6</title>
<path fill="none" stroke="midnightblue" d="M185.881,-89.7571C174.633,-98.5653 182.34,-108 209,-108 226.496,-108 235.829,-103.937 236.999,-98.6539"/>
<polygon fill="midnightblue" stroke="midnightblue" points="239.997,-96.8417 232.119,-89.7571 233.86,-100.208 239.997,-96.8417"/>
</g>
<!-- Node7 -->
<g id="node7" class="node"><title>Node7</title>
<g id="a_node7"><a xlink:href="classCElement.html#ac5fa8c7e838a44733f3887f1bec20d7b" target="_top" xlink:title="CElement::setDescription">
<polygon fill="white" stroke="black" points="310,-88.5 310,-107.5 448,-107.5 448,-88.5 310,-88.5"/>
<text text-anchor="middle" x="379" y="-95.5" font-family="Verdana" font-size="10.00">CElement::setDescription</text>
</a>
</g>
</g>
<!-- Node6&#45;&gt;Node7 -->
<g id="edge6" class="edge"><title>Node6&#45;&gt;Node7</title>
<path fill="none" stroke="midnightblue" d="M264.081,-85.7944C275.472,-87.0148 287.707,-88.3257 299.782,-89.6195"/>
<polygon fill="midnightblue" stroke="midnightblue" points="299.549,-93.1145 309.865,-90.6998 300.295,-86.1543 299.549,-93.1145"/>
</g>
<!-- Node8 -->
<g id="node8" class="node"><title>Node8</title>
<g id="a_node8"><a xlink:href="classCElement.html#a40a0b69c1b556a06406e022dc7d7a7eb" target="_top" xlink:title="Extract the Description field from the Xml Element during XML decomposing. ">
<polygon fill="white" stroke="black" points="300.5,-39 300.5,-69 457.5,-69 457.5,-39 300.5,-39"/>
<text text-anchor="start" x="308.5" y="-57" font-family="Verdana" font-size="10.00">CElement::getXmlDescription</text>
<text text-anchor="middle" x="379" y="-46" font-family="Verdana" font-size="10.00">Attribute</text>
</a>
</g>
</g>
<!-- Node6&#45;&gt;Node8 -->
<g id="edge7" class="edge"><title>Node6&#45;&gt;Node8</title>
<path fill="none" stroke="midnightblue" d="M264.081,-71.6303C272.514,-70.3252 281.409,-68.9485 290.36,-67.5633"/>
<polygon fill="midnightblue" stroke="midnightblue" points="291.121,-70.9874 300.468,-65.999 290.05,-64.0697 291.121,-70.9874"/>
</g>
<!-- Node9 -->
<g id="node9" class="node"><title>Node9</title>
<g id="a_node9"><a xlink:href="classCElement.html#acee1af3e8516a211731a59b85727c6b9" target="_top" xlink:title="CElement::findChildOfKind">
<polygon fill="white" stroke="black" points="309,-0.5 309,-19.5 449,-19.5 449,-0.5 309,-0.5"/>
<text text-anchor="middle" x="379" y="-7.5" font-family="Verdana" font-size="10.00">CElement::findChildOfKind</text>
</a>
</g>
</g>
<!-- Node6&#45;&gt;Node9 -->
<g id="edge8" class="edge"><title>Node6&#45;&gt;Node9</title>
<path fill="none" stroke="midnightblue" d="M224.037,-70.4079C241.241,-59.046 271.616,-40.2463 300,-29 306.355,-26.4819 313.138,-24.2313 319.952,-22.238"/>
<polygon fill="midnightblue" stroke="midnightblue" points="321.196,-25.526 329.911,-19.5007 319.341,-18.7763 321.196,-25.526"/>
</g>
<!-- Node10 -->
<g id="node10" class="node"><title>Node10</title>
<g id="a_node10"><a xlink:href="classCElement.html#aed2ca7f2a56dbf2edcd82167859535ee" target="_top" xlink:title="CElement::getKind">
<polygon fill="white" stroke="black" points="527.5,-0.5 527.5,-19.5 632.5,-19.5 632.5,-0.5 527.5,-0.5"/>
<text text-anchor="middle" x="580" y="-7.5" font-family="Verdana" font-size="10.00">CElement::getKind</text>
</a>
</g>
</g>
<!-- Node9&#45;&gt;Node10 -->
<g id="edge9" class="edge"><title>Node9&#45;&gt;Node10</title>
<path fill="none" stroke="midnightblue" d="M449.042,-10C471.234,-10 495.664,-10 517.295,-10"/>
<polygon fill="midnightblue" stroke="midnightblue" points="517.341,-13.5001 527.341,-10 517.341,-6.5001 517.341,-13.5001"/>
</g>
</g>
</svg>
