<?xml version="1.0" encoding="UTF-8" standalone="no"?>
<!DOCTYPE svg PUBLIC "-//W3C//DTD SVG 1.1//EN"
 "http://www.w3.org/Graphics/SVG/1.1/DTD/svg11.dtd">
<!-- Generated by graphviz version 2.38.0 (20140413.2041)
 -->
<!-- Title: CXmlElement::getChildElement Pages: 1 -->
<svg width="565pt" height="183pt"
 viewBox="0.00 0.00 565.00 182.50" xmlns="http://www.w3.org/2000/svg" xmlns:xlink="http://www.w3.org/1999/xlink">
<g id="graph0" class="graph" transform="scale(1 1) rotate(0) translate(4 178.5)">
<title>CXmlElement::getChildElement</title>
<polygon fill="white" stroke="none" points="-4,4 -4,-178.5 561,-178.5 561,4 -4,4"/>
<!-- Node1 -->
<g id="node1" class="node"><title>Node1</title>
<polygon fill="#bfbfbf" stroke="black" points="0,-60.5 0,-79.5 166,-79.5 166,-60.5 0,-60.5"/>
<text text-anchor="middle" x="83" y="-67.5" font-family="Verdana" font-size="10.00">CXmlElement::getChildElement</text>
</g>
<!-- Node2 -->
<g id="node2" class="node"><title>Node2</title>
<g id="a_node2"><a xlink:href="classCXmlElement_1_1CChildIterator.html#a0f5dd314825ba2a437cd6098749b0fd6" target="_top" xlink:title="CXmlElement::CChildIterator\l::CChildIterator">
<polygon fill="white" stroke="black" points="213,-126 213,-156 365,-156 365,-126 213,-126"/>
<text text-anchor="start" x="221" y="-144" font-family="Verdana" font-size="10.00">CXmlElement::CChildIterator</text>
<text text-anchor="middle" x="289" y="-133" font-family="Verdana" font-size="10.00">::CChildIterator</text>
</a>
</g>
</g>
<!-- Node1&#45;&gt;Node2 -->
<g id="edge1" class="edge"><title>Node1&#45;&gt;Node2</title>
<path fill="none" stroke="midnightblue" d="M105.921,-79.5495C129.418,-89.5921 167.945,-105.503 202,-117 208.072,-119.05 214.426,-121.064 220.812,-123"/>
<polygon fill="midnightblue" stroke="midnightblue" points="220.256,-126.485 230.838,-125.971 222.245,-119.774 220.256,-126.485"/>
</g>
<!-- Node3 -->
<g id="node3" class="node"><title>Node3</title>
<g id="a_node3"><a xlink:href="classCXmlElement_1_1CChildIterator.html#a65a1c3514c3fac2cfab99224991f2bdc" target="_top" xlink:title="CXmlElement::CChildIterator\l::next">
<polygon fill="white" stroke="black" points="213,-77 213,-107 365,-107 365,-77 213,-77"/>
<text text-anchor="start" x="221" y="-95" font-family="Verdana" font-size="10.00">CXmlElement::CChildIterator</text>
<text text-anchor="middle" x="289" y="-84" font-family="Verdana" font-size="10.00">::next</text>
</a>
</g>
</g>
<!-- Node1&#45;&gt;Node3 -->
<g id="edge3" class="edge"><title>Node1&#45;&gt;Node3</title>
<path fill="none" stroke="midnightblue" d="M166.093,-78.8531C178.202,-80.1591 190.701,-81.507 202.871,-82.8194"/>
<polygon fill="midnightblue" stroke="midnightblue" points="202.682,-86.3193 213,-83.9117 203.433,-79.3596 202.682,-86.3193"/>
</g>
<!-- Node4 -->
<g id="node4" class="node"><title>Node4</title>
<g id="a_node4"><a xlink:href="classCXmlElement.html#ab2e750aaad2b93b4d875d04b624de1c4" target="_top" xlink:title="CXmlElement::getType">
<polygon fill="white" stroke="black" points="227,-38.5 227,-57.5 351,-57.5 351,-38.5 227,-38.5"/>
<text text-anchor="middle" x="289" y="-45.5" font-family="Verdana" font-size="10.00">CXmlElement::getType</text>
</a>
</g>
</g>
<!-- Node1&#45;&gt;Node4 -->
<g id="edge4" class="edge"><title>Node1&#45;&gt;Node4</title>
<path fill="none" stroke="midnightblue" d="M166.093,-61.1469C182.871,-59.3374 200.398,-57.4473 216.759,-55.6828"/>
<polygon fill="midnightblue" stroke="midnightblue" points="217.212,-59.1544 226.779,-54.6023 216.461,-52.1948 217.212,-59.1544"/>
</g>
<!-- Node5 -->
<g id="node5" class="node"><title>Node5</title>
<g id="a_node5"><a xlink:href="classCXmlElement.html#a21b9cfd66e7cd6f33a889e099102ef89" target="_top" xlink:title="CXmlElement::getNameAttribute">
<polygon fill="white" stroke="black" points="202,-0.5 202,-19.5 376,-19.5 376,-0.5 202,-0.5"/>
<text text-anchor="middle" x="289" y="-7.5" font-family="Verdana" font-size="10.00">CXmlElement::getNameAttribute</text>
</a>
</g>
</g>
<!-- Node1&#45;&gt;Node5 -->
<g id="edge5" class="edge"><title>Node1&#45;&gt;Node5</title>
<path fill="none" stroke="midnightblue" d="M109.048,-60.3385C132.75,-51.4258 169.447,-38.2172 202,-29 211.063,-26.4339 220.744,-24.0026 230.221,-21.7898"/>
<polygon fill="midnightblue" stroke="midnightblue" points="231.014,-25.1987 239.988,-19.5664 229.461,-18.3733 231.014,-25.1987"/>
</g>
<!-- Node2&#45;&gt;Node2 -->
<g id="edge2" class="edge"><title>Node2&#45;&gt;Node2</title>
<path fill="none" stroke="midnightblue" d="M255.191,-156.159C247.039,-165.557 258.309,-174.5 289,-174.5 307.703,-174.5 319.193,-171.179 323.471,-166.458"/>
<polygon fill="midnightblue" stroke="midnightblue" points="326.944,-165.913 322.809,-156.159 319.958,-166.363 326.944,-165.913"/>
</g>
<!-- Node6 -->
<g id="node6" class="node"><title>Node6</title>
<g id="a_node6"><a xlink:href="classCXmlElement.html#a6198359168c744489018bc2b8d732dc3" target="_top" xlink:title="Get attribute. ">
<polygon fill="white" stroke="black" points="412,-0.5 412,-19.5 557,-19.5 557,-0.5 412,-0.5"/>
<text text-anchor="middle" x="484.5" y="-7.5" font-family="Verdana" font-size="10.00">CXmlElement::getAttribute</text>
</a>
</g>
</g>
<!-- Node5&#45;&gt;Node6 -->
<g id="edge6" class="edge"><title>Node5&#45;&gt;Node6</title>
<path fill="none" stroke="midnightblue" d="M376.281,-10C384.735,-10 393.298,-10 401.706,-10"/>
<polygon fill="midnightblue" stroke="midnightblue" points="401.868,-13.5001 411.868,-10 401.868,-6.5001 401.868,-13.5001"/>
</g>
<!-- Node6&#45;&gt;Node6 -->
<g id="edge7" class="edge"><title>Node6&#45;&gt;Node6</title>
<path fill="none" stroke="midnightblue" d="M454.599,-19.7571C440.053,-28.5653 450.02,-38 484.5,-38 508.744,-38 520.869,-33.3356 520.875,-27.5043"/>
<polygon fill="midnightblue" stroke="midnightblue" points="523.499,-25.1862 514.401,-19.7571 518.128,-29.6749 523.499,-25.1862"/>
</g>
</g>
</svg>
