<?xml version="1.0" encoding="UTF-8" standalone="no"?>
<!DOCTYPE svg PUBLIC "-//W3C//DTD SVG 1.1//EN"
 "http://www.w3.org/Graphics/SVG/1.1/DTD/svg11.dtd">
<!-- Generated by graphviz version 2.38.0 (20140413.2041)
 -->
<!-- Title: CConfigurableElement::getBelongingDomainCount Pages: 1 -->
<svg width="327pt" height="88pt"
 viewBox="0.00 0.00 327.00 88.00" xmlns="http://www.w3.org/2000/svg" xmlns:xlink="http://www.w3.org/1999/xlink">
<g id="graph0" class="graph" transform="scale(1 1) rotate(0) translate(4 84)">
<title>CConfigurableElement::getBelongingDomainCount</title>
<polygon fill="white" stroke="none" points="-4,4 -4,-84 323,-84 323,4 -4,4"/>
<!-- Node1 -->
<g id="node1" class="node"><title>Node1</title>
<polygon fill="#bfbfbf" stroke="black" points="0,-24.5 0,-54.5 152,-54.5 152,-24.5 0,-24.5"/>
<text text-anchor="start" x="8" y="-42.5" font-family="Verdana" font-size="10.00">CConfigurableElement</text>
<text text-anchor="middle" x="76" y="-31.5" font-family="Verdana" font-size="10.00">::getBelongingDomainCount</text>
</g>
<!-- Node2 -->
<g id="node2" class="node"><title>Node2</title>
<g id="a_node2"><a xlink:href="classCConfigurableDomains.html#a8aa98ddd65e7d28bbe559ea7a23985d0" target="_top" xlink:title="CConfigurableDomains\l::listConflictingElements">
<polygon fill="white" stroke="black" points="188,-49.5 188,-79.5 319,-79.5 319,-49.5 188,-49.5"/>
<text text-anchor="start" x="196" y="-67.5" font-family="Verdana" font-size="10.00">CConfigurableDomains</text>
<text text-anchor="middle" x="253.5" y="-56.5" font-family="Verdana" font-size="10.00">::listConflictingElements</text>
</a>
</g>
</g>
<!-- Node1&#45;&gt;Node2 -->
<g id="edge1" class="edge"><title>Node1&#45;&gt;Node2</title>
<path fill="none" stroke="midnightblue" d="M162.294,-51.6501C170.929,-52.8802 179.596,-54.1149 187.96,-55.3063"/>
<polygon fill="midnightblue" stroke="midnightblue" points="162.585,-48.1564 152.192,-50.211 161.598,-55.0864 162.585,-48.1564"/>
</g>
<!-- Node3 -->
<g id="node3" class="node"><title>Node3</title>
<g id="a_node3"><a xlink:href="classCConfigurableElement.html#a67e6de36b68b0ff6c74c5a1a06f3046a" target="_top" xlink:title="CConfigurableElement\l::isRogue">
<polygon fill="white" stroke="black" points="192,-0.5 192,-30.5 315,-30.5 315,-0.5 192,-0.5"/>
<text text-anchor="start" x="200" y="-18.5" font-family="Verdana" font-size="10.00">CConfigurableElement</text>
<text text-anchor="middle" x="253.5" y="-7.5" font-family="Verdana" font-size="10.00">::isRogue</text>
</a>
</g>
</g>
<!-- Node1&#45;&gt;Node3 -->
<g id="edge2" class="edge"><title>Node1&#45;&gt;Node3</title>
<path fill="none" stroke="midnightblue" d="M162.153,-27.8551C172.149,-26.4882 182.19,-25.1151 191.756,-23.8068"/>
<polygon fill="midnightblue" stroke="midnightblue" points="161.625,-24.3947 152.192,-29.2174 162.574,-31.3301 161.625,-24.3947"/>
</g>
</g>
</svg>
