<?xml version="1.0" encoding="UTF-8" standalone="no"?>
<!DOCTYPE svg PUBLIC "-//W3C//DTD SVG 1.1//EN"
 "http://www.w3.org/Graphics/SVG/1.1/DTD/svg11.dtd">
<!-- Generated by graphviz version 2.38.0 (20140413.2041)
 -->
<!-- Title: CXmlElement::createChild Pages: 1 -->
<svg width="474pt" height="194pt"
 viewBox="0.00 0.00 474.00 194.00" xmlns="http://www.w3.org/2000/svg" xmlns:xlink="http://www.w3.org/1999/xlink">
<g id="graph0" class="graph" transform="scale(1 1) rotate(0) translate(4 190)">
<title>CXmlElement::createChild</title>
<polygon fill="white" stroke="none" points="-4,4 -4,-190 470,-190 470,4 -4,4"/>
<!-- Node1 -->
<g id="node1" class="node"><title>Node1</title>
<polygon fill="#bfbfbf" stroke="black" points="0,-72 0,-91 141,-91 141,-72 0,-72"/>
<text text-anchor="middle" x="70.5" y="-79" font-family="Verdana" font-size="10.00">CXmlElement::createChild</text>
</g>
<!-- Node2 -->
<g id="node2" class="node"><title>Node2</title>
<g id="a_node2"><a xlink:href="classCConfigurableElement.html#a0e3feb8a7b18a3291ec960c9726b4eaf" target="_top" xlink:title="CConfigurableElement\l::serializeXmlSettings">
<polygon fill="white" stroke="black" points="182.5,-137.5 182.5,-167.5 305.5,-167.5 305.5,-137.5 182.5,-137.5"/>
<text text-anchor="start" x="190.5" y="-155.5" font-family="Verdana" font-size="10.00">CConfigurableElement</text>
<text text-anchor="middle" x="244" y="-144.5" font-family="Verdana" font-size="10.00">::serializeXmlSettings</text>
</a>
</g>
</g>
<!-- Node1&#45;&gt;Node2 -->
<g id="edge1" class="edge"><title>Node1&#45;&gt;Node2</title>
<path fill="none" stroke="midnightblue" d="M101.279,-95.4386C122.28,-105.103 151.16,-118.061 177,-128.5 184.461,-131.514 192.462,-134.569 200.228,-137.444"/>
<polygon fill="midnightblue" stroke="midnightblue" points="102.482,-92.139 91.9365,-91.1178 99.5435,-98.4924 102.482,-92.139"/>
</g>
<!-- Node4 -->
<g id="node4" class="node"><title>Node4</title>
<g id="a_node4"><a xlink:href="classCDomainConfiguration.html#a39c907e9023554f7a86836ac9f8da32f" target="_top" xlink:title="CDomainConfiguration\l::composeSettings">
<polygon fill="white" stroke="black" points="181.5,-88.5 181.5,-118.5 306.5,-118.5 306.5,-88.5 181.5,-88.5"/>
<text text-anchor="start" x="189.5" y="-106.5" font-family="Verdana" font-size="10.00">CDomainConfiguration</text>
<text text-anchor="middle" x="244" y="-95.5" font-family="Verdana" font-size="10.00">::composeSettings</text>
</a>
</g>
</g>
<!-- Node1&#45;&gt;Node4 -->
<g id="edge4" class="edge"><title>Node1&#45;&gt;Node4</title>
<path fill="none" stroke="midnightblue" d="M151.28,-91.7342C161.362,-93.0275 171.555,-94.335 181.297,-95.5847"/>
<polygon fill="midnightblue" stroke="midnightblue" points="151.62,-88.2491 141.256,-90.4482 150.729,-95.1923 151.62,-88.2491"/>
</g>
<!-- Node5 -->
<g id="node5" class="node"><title>Node5</title>
<g id="a_node5"><a xlink:href="classCElement.html#aee22d6b038603b6481a8f029bf59ff3d" target="_top" xlink:title="Serialize the children to XML. ">
<polygon fill="white" stroke="black" points="177,-50 177,-69 311,-69 311,-50 177,-50"/>
<text text-anchor="middle" x="244" y="-57" font-family="Verdana" font-size="10.00">CElement::childrenToXml</text>
</a>
</g>
</g>
<!-- Node1&#45;&gt;Node5 -->
<g id="edge5" class="edge"><title>Node1&#45;&gt;Node5</title>
<path fill="none" stroke="midnightblue" d="M151.271,-71.267C159.852,-70.1662 168.513,-69.0552 176.908,-67.9782"/>
<polygon fill="midnightblue" stroke="midnightblue" points="150.729,-67.8077 141.256,-72.5518 151.62,-74.7509 150.729,-67.8077"/>
</g>
<!-- Node7 -->
<g id="node7" class="node"><title>Node7</title>
<g id="a_node7"><a xlink:href="classCSelectionCriterionType.html#a95813f4b14f06857afaf8a50d0d62600" target="_top" xlink:title="Export to XML. ">
<polygon fill="white" stroke="black" points="179.5,-0.5 179.5,-30.5 308.5,-30.5 308.5,-0.5 179.5,-0.5"/>
<text text-anchor="start" x="187.5" y="-18.5" font-family="Verdana" font-size="10.00">CSelectionCriterionType</text>
<text text-anchor="middle" x="244" y="-7.5" font-family="Verdana" font-size="10.00">::toXml</text>
</a>
</g>
</g>
<!-- Node1&#45;&gt;Node7 -->
<g id="edge7" class="edge"><title>Node1&#45;&gt;Node7</title>
<path fill="none" stroke="midnightblue" d="M105.102,-68.3569C125.813,-60.2768 152.926,-49.7371 177,-40.5 185.465,-37.2519 194.551,-33.7926 203.192,-30.5157"/>
<polygon fill="midnightblue" stroke="midnightblue" points="103.823,-65.0987 95.7809,-71.9958 106.369,-71.6194 103.823,-65.0987"/>
</g>
<!-- Node2&#45;&gt;Node2 -->
<g id="edge3" class="edge"><title>Node2&#45;&gt;Node2</title>
<path fill="none" stroke="midnightblue" d="M215.215,-177.958C218.787,-182.679 228.382,-186 244,-186 269.629,-186 279.04,-177.057 272.232,-167.659"/>
<polygon fill="midnightblue" stroke="midnightblue" points="218.726,-177.832 215.768,-167.659 211.736,-177.457 218.726,-177.832"/>
</g>
<!-- Node3 -->
<g id="node3" class="node"><title>Node3</title>
<g id="a_node3"><a xlink:href="classCAreaConfiguration.html#a6b8c95a79343ee9823b026d74184e798" target="_top" xlink:title="CAreaConfiguration\l::serializeXmlSettings">
<polygon fill="white" stroke="black" points="347,-137.5 347,-167.5 466,-167.5 466,-137.5 347,-137.5"/>
<text text-anchor="start" x="355" y="-155.5" font-family="Verdana" font-size="10.00">CAreaConfiguration</text>
<text text-anchor="middle" x="406.5" y="-144.5" font-family="Verdana" font-size="10.00">::serializeXmlSettings</text>
</a>
</g>
</g>
<!-- Node2&#45;&gt;Node3 -->
<g id="edge2" class="edge"><title>Node2&#45;&gt;Node3</title>
<path fill="none" stroke="midnightblue" d="M315.92,-152.5C326.257,-152.5 336.803,-152.5 346.86,-152.5"/>
<polygon fill="midnightblue" stroke="midnightblue" points="315.678,-149 305.678,-152.5 315.678,-156 315.678,-149"/>
</g>
<!-- Node6 -->
<g id="node6" class="node"><title>Node6</title>
<g id="a_node6"><a xlink:href="classCElement.html#a7ce1bde0fda5cf412b652000cab473e4" target="_top" xlink:title="CElement::toXml">
<polygon fill="white" stroke="black" points="358,-50 358,-69 455,-69 455,-50 358,-50"/>
<text text-anchor="middle" x="406.5" y="-57" font-family="Verdana" font-size="10.00">CElement::toXml</text>
</a>
</g>
</g>
<!-- Node5&#45;&gt;Node6 -->
<g id="edge6" class="edge"><title>Node5&#45;&gt;Node6</title>
<path fill="none" stroke="midnightblue" d="M321.487,-59.5C333.787,-59.5 346.205,-59.5 357.582,-59.5"/>
<polygon fill="midnightblue" stroke="midnightblue" points="321.208,-56.0001 311.208,-59.5 321.208,-63.0001 321.208,-56.0001"/>
</g>
<!-- Node8 -->
<g id="node8" class="node"><title>Node8</title>
<g id="a_node8"><a xlink:href="classCSelectionCriterion.html#a3942150fa9e5980d89268672fff31032" target="_top" xlink:title="Export to XML. ">
<polygon fill="white" stroke="black" points="352.5,-0.5 352.5,-30.5 460.5,-30.5 460.5,-0.5 352.5,-0.5"/>
<text text-anchor="start" x="360.5" y="-18.5" font-family="Verdana" font-size="10.00">CSelectionCriterion</text>
<text text-anchor="middle" x="406.5" y="-7.5" font-family="Verdana" font-size="10.00">::toXml</text>
</a>
</g>
</g>
<!-- Node7&#45;&gt;Node8 -->
<g id="edge8" class="edge"><title>Node7&#45;&gt;Node8</title>
<path fill="none" stroke="midnightblue" d="M319.133,-15.5C330.358,-15.5 341.743,-15.5 352.403,-15.5"/>
<polygon fill="midnightblue" stroke="midnightblue" points="318.895,-12.0001 308.895,-15.5 318.895,-19.0001 318.895,-12.0001"/>
</g>
</g>
</svg>
