<?xml version="1.0" encoding="UTF-8" standalone="no"?>
<!DOCTYPE svg PUBLIC "-//W3C//DTD SVG 1.1//EN"
 "http://www.w3.org/Graphics/SVG/1.1/DTD/svg11.dtd">
<!-- Generated by graphviz version 2.38.0 (20140413.2041)
 -->
<!-- Title: CConfigurableElement::hasNoDomainAssociated Pages: 1 -->
<svg width="310pt" height="39pt"
 viewBox="0.00 0.00 310.00 39.00" xmlns="http://www.w3.org/2000/svg" xmlns:xlink="http://www.w3.org/1999/xlink">
<g id="graph0" class="graph" transform="scale(1 1) rotate(0) translate(4 35)">
<title>CConfigurableElement::hasNoDomainAssociated</title>
<polygon fill="white" stroke="none" points="-4,4 -4,-35 306,-35 306,4 -4,4"/>
<!-- Node1 -->
<g id="node1" class="node"><title>Node1</title>
<polygon fill="#bfbfbf" stroke="black" points="0,-0.5 0,-30.5 143,-30.5 143,-0.5 0,-0.5"/>
<text text-anchor="start" x="8" y="-18.5" font-family="Verdana" font-size="10.00">CConfigurableElement</text>
<text text-anchor="middle" x="71.5" y="-7.5" font-family="Verdana" font-size="10.00">::hasNoDomainAssociated</text>
</g>
<!-- Node2 -->
<g id="node2" class="node"><title>Node2</title>
<g id="a_node2"><a xlink:href="classCConfigurableElement.html#a1b28dbdb4a01edd94c1ae8b5e42d76b2" target="_top" xlink:title="CConfigurableElement\l::listRogueElements">
<polygon fill="white" stroke="black" points="179,-0.5 179,-30.5 302,-30.5 302,-0.5 179,-0.5"/>
<text text-anchor="start" x="187" y="-18.5" font-family="Verdana" font-size="10.00">CConfigurableElement</text>
<text text-anchor="middle" x="240.5" y="-7.5" font-family="Verdana" font-size="10.00">::listRogueElements</text>
</a>
</g>
</g>
<!-- Node1&#45;&gt;Node2 -->
<g id="edge1" class="edge"><title>Node1&#45;&gt;Node2</title>
<path fill="none" stroke="midnightblue" d="M153.36,-15.5C161.943,-15.5 170.563,-15.5 178.857,-15.5"/>
<polygon fill="midnightblue" stroke="midnightblue" points="153.323,-12.0001 143.323,-15.5 153.323,-19.0001 153.323,-12.0001"/>
</g>
</g>
</svg>
