<?xml version="1.0" encoding="UTF-8" standalone="no"?>
<!DOCTYPE svg PUBLIC "-//W3C//DTD SVG 1.1//EN"
 "http://www.w3.org/Graphics/SVG/1.1/DTD/svg11.dtd">
<!-- Generated by graphviz version 2.38.0 (20140413.2041)
 -->
<!-- Title: CParameterMgrFullConnector::accessConfigurationValue Pages: 1 -->
<svg width="575pt" height="88pt"
 viewBox="0.00 0.00 575.00 88.00" xmlns="http://www.w3.org/2000/svg" xmlns:xlink="http://www.w3.org/1999/xlink">
<g id="graph0" class="graph" transform="scale(1 1) rotate(0) translate(4 84)">
<title>CParameterMgrFullConnector::accessConfigurationValue</title>
<polygon fill="white" stroke="none" points="-4,4 -4,-84 571,-84 571,4 -4,4"/>
<!-- Node1 -->
<g id="node1" class="node"><title>Node1</title>
<polygon fill="#bfbfbf" stroke="black" points="0,-24.5 0,-54.5 156,-54.5 156,-24.5 0,-24.5"/>
<text text-anchor="start" x="8" y="-42.5" font-family="Verdana" font-size="10.00">CParameterMgrFullConnector</text>
<text text-anchor="middle" x="78" y="-31.5" font-family="Verdana" font-size="10.00">::accessConfigurationValue</text>
</g>
<!-- Node2 -->
<g id="node2" class="node"><title>Node2</title>
<g id="a_node2"><a xlink:href="classCParameterMgr.html#a25055f536c2d537e86852c87a4e1a061" target="_top" xlink:title="CParameterMgr::accessConfiguration\lValue">
<polygon fill="white" stroke="black" points="192,-24.5 192,-54.5 386,-54.5 386,-24.5 192,-24.5"/>
<text text-anchor="start" x="200" y="-42.5" font-family="Verdana" font-size="10.00">CParameterMgr::accessConfiguration</text>
<text text-anchor="middle" x="289" y="-31.5" font-family="Verdana" font-size="10.00">Value</text>
</a>
</g>
</g>
<!-- Node1&#45;&gt;Node2 -->
<g id="edge1" class="edge"><title>Node1&#45;&gt;Node2</title>
<path fill="none" stroke="midnightblue" d="M156.23,-39.5C164.588,-39.5 173.196,-39.5 181.819,-39.5"/>
<polygon fill="midnightblue" stroke="midnightblue" points="181.935,-43.0001 191.935,-39.5 181.935,-36.0001 181.935,-43.0001"/>
</g>
<!-- Node3 -->
<g id="node3" class="node"><title>Node3</title>
<g id="a_node3"><a xlink:href="classCParameterAccessContext.html#a07eda176f4ae601bd26a6d0c9e0cc6e2" target="_top" xlink:title="CParameterAccessContext\l::setAutoSync">
<polygon fill="white" stroke="black" points="422,-49.5 422,-79.5 567,-79.5 567,-49.5 422,-49.5"/>
<text text-anchor="start" x="430" y="-67.5" font-family="Verdana" font-size="10.00">CParameterAccessContext</text>
<text text-anchor="middle" x="494.5" y="-56.5" font-family="Verdana" font-size="10.00">::setAutoSync</text>
</a>
</g>
</g>
<!-- Node2&#45;&gt;Node3 -->
<g id="edge2" class="edge"><title>Node2&#45;&gt;Node3</title>
<path fill="none" stroke="midnightblue" d="M386.089,-51.3045C394.649,-52.3561 403.263,-53.4143 411.686,-54.4492"/>
<polygon fill="midnightblue" stroke="midnightblue" points="411.499,-57.9524 421.851,-55.698 412.353,-51.0046 411.499,-57.9524"/>
</g>
<!-- Node4 -->
<g id="node4" class="node"><title>Node4</title>
<g id="a_node4"><a xlink:href="classCParameterAccessContext.html#a5c8a052ad42c4e93476715cd85f1d6e3" target="_top" xlink:title="CParameterAccessContext\l::setParameterBlackboard">
<polygon fill="white" stroke="black" points="422,-0.5 422,-30.5 567,-30.5 567,-0.5 422,-0.5"/>
<text text-anchor="start" x="430" y="-18.5" font-family="Verdana" font-size="10.00">CParameterAccessContext</text>
<text text-anchor="middle" x="494.5" y="-7.5" font-family="Verdana" font-size="10.00">::setParameterBlackboard</text>
</a>
</g>
</g>
<!-- Node2&#45;&gt;Node4 -->
<g id="edge3" class="edge"><title>Node2&#45;&gt;Node4</title>
<path fill="none" stroke="midnightblue" d="M386.089,-28.1677C394.649,-27.1581 403.263,-26.1423 411.686,-25.1488"/>
<polygon fill="midnightblue" stroke="midnightblue" points="412.33,-28.5972 421.851,-23.95 411.51,-21.6454 412.33,-28.5972"/>
</g>
</g>
</svg>
