<?xml version="1.0" encoding="UTF-8" standalone="no"?>
<!DOCTYPE svg PUBLIC "-//W3C//DTD SVG 1.1//EN"
 "http://www.w3.org/Graphics/SVG/1.1/DTD/svg11.dtd">
<!-- Generated by graphviz version 2.38.0 (20140413.2041)
 -->
<!-- Title: CConfigurableDomains::restoreConfiguration Pages: 1 -->
<svg width="867pt" height="102pt"
 viewBox="0.00 0.00 867.00 101.50" xmlns="http://www.w3.org/2000/svg" xmlns:xlink="http://www.w3.org/1999/xlink">
<g id="graph0" class="graph" transform="scale(1 1) rotate(0) translate(4 97.5)">
<title>CConfigurableDomains::restoreConfiguration</title>
<polygon fill="white" stroke="none" points="-4,4 -4,-97.5 863,-97.5 863,4 -4,4"/>
<!-- Node1 -->
<g id="node1" class="node"><title>Node1</title>
<polygon fill="#bfbfbf" stroke="black" points="0,-38 0,-68 126,-68 126,-38 0,-38"/>
<text text-anchor="start" x="8" y="-56" font-family="Verdana" font-size="10.00">CConfigurableDomains</text>
<text text-anchor="middle" x="63" y="-45" font-family="Verdana" font-size="10.00">::restoreConfiguration</text>
</g>
<!-- Node2 -->
<g id="node2" class="node"><title>Node2</title>
<g id="a_node2"><a xlink:href="classCConfigurableDomains.html#a4dce38a1560b6e33871d3fa2d85cc449" target="_top" xlink:title="CConfigurableDomains\l::findConfigurableDomain">
<polygon fill="white" stroke="black" points="162,-63 162,-93 299,-93 299,-63 162,-63"/>
<text text-anchor="start" x="170" y="-81" font-family="Verdana" font-size="10.00">CConfigurableDomains</text>
<text text-anchor="middle" x="230.5" y="-70" font-family="Verdana" font-size="10.00">::findConfigurableDomain</text>
</a>
</g>
</g>
<!-- Node1&#45;&gt;Node2 -->
<g id="edge1" class="edge"><title>Node1&#45;&gt;Node2</title>
<path fill="none" stroke="midnightblue" d="M126.097,-62.3802C134.469,-63.6449 143.143,-64.9552 151.745,-66.2545"/>
<polygon fill="midnightblue" stroke="midnightblue" points="151.376,-69.7384 161.787,-67.7714 152.422,-62.8169 151.376,-69.7384"/>
</g>
<!-- Node4 -->
<g id="node4" class="node"><title>Node4</title>
<g id="a_node4"><a xlink:href="classCConfigurableDomain.html#aa07e34aa3fabe688ae8034ff0578c1c7" target="_top" xlink:title="Restore a configuration. ">
<polygon fill="white" stroke="black" points="170,-14 170,-44 291,-44 291,-14 170,-14"/>
<text text-anchor="start" x="178" y="-32" font-family="Verdana" font-size="10.00">CConfigurableDomain</text>
<text text-anchor="middle" x="230.5" y="-21" font-family="Verdana" font-size="10.00">::restoreConfiguration</text>
</a>
</g>
</g>
<!-- Node1&#45;&gt;Node4 -->
<g id="edge3" class="edge"><title>Node1&#45;&gt;Node4</title>
<path fill="none" stroke="midnightblue" d="M126.097,-43.995C137.052,-42.4064 148.523,-40.7429 159.673,-39.126"/>
<polygon fill="midnightblue" stroke="midnightblue" points="160.404,-42.5567 169.798,-37.6577 159.399,-35.6291 160.404,-42.5567"/>
</g>
<!-- Node3 -->
<g id="node3" class="node"><title>Node3</title>
<g id="a_node3"><a xlink:href="classCElement.html#a8595814a3159f32f874269907e70b260" target="_top" xlink:title="CElement::findChild">
<polygon fill="white" stroke="black" points="342.5,-68.5 342.5,-87.5 452.5,-87.5 452.5,-68.5 342.5,-68.5"/>
<text text-anchor="middle" x="397.5" y="-75.5" font-family="Verdana" font-size="10.00">CElement::findChild</text>
</a>
</g>
</g>
<!-- Node2&#45;&gt;Node3 -->
<g id="edge2" class="edge"><title>Node2&#45;&gt;Node3</title>
<path fill="none" stroke="midnightblue" d="M299.088,-78C310.014,-78 321.301,-78 332.147,-78"/>
<polygon fill="midnightblue" stroke="midnightblue" points="332.385,-81.5001 342.385,-78 332.385,-74.5001 332.385,-81.5001"/>
</g>
<!-- Node5 -->
<g id="node5" class="node"><title>Node5</title>
<g id="a_node5"><a xlink:href="classCDomainConfiguration.html#a0b7c7c014a797b2bfa9235470d97944b" target="_top" xlink:title="Restore the configuration. ">
<polygon fill="white" stroke="black" points="335,-17 335,-47 460,-47 460,-17 335,-17"/>
<text text-anchor="start" x="343" y="-35" font-family="Verdana" font-size="10.00">CDomainConfiguration</text>
<text text-anchor="middle" x="397.5" y="-24" font-family="Verdana" font-size="10.00">::restore</text>
</a>
</g>
</g>
<!-- Node4&#45;&gt;Node5 -->
<g id="edge4" class="edge"><title>Node4&#45;&gt;Node5</title>
<path fill="none" stroke="midnightblue" d="M291.069,-30.0831C301.953,-30.281 313.415,-30.4894 324.612,-30.6929"/>
<polygon fill="midnightblue" stroke="midnightblue" points="324.734,-34.1956 334.796,-30.8781 324.861,-27.1968 324.734,-34.1956"/>
</g>
<!-- Node7 -->
<g id="node7" class="node"><title>Node7</title>
<g id="a_node7"><a xlink:href="classCSyncerSet.html#a8f8381b520a758f49ba8013c5cb8c7b5" target="_top" xlink:title="Sync the blackboard. ">
<polygon fill="white" stroke="black" points="642,-0.5 642,-19.5 743,-19.5 743,-0.5 642,-0.5"/>
<text text-anchor="middle" x="692.5" y="-7.5" font-family="Verdana" font-size="10.00">CSyncerSet::sync</text>
</a>
</g>
</g>
<!-- Node4&#45;&gt;Node7 -->
<g id="edge8" class="edge"><title>Node4&#45;&gt;Node7</title>
<path fill="none" stroke="midnightblue" d="M291.089,-14.1112C305.38,-11.159 320.658,-8.50739 335,-7 438.846,3.91485 560.643,-0.858829 631.634,-5.38372"/>
<polygon fill="midnightblue" stroke="midnightblue" points="631.523,-8.8839 641.732,-6.04763 631.983,-1.89898 631.523,-8.8839"/>
</g>
<!-- Node6 -->
<g id="node6" class="node"><title>Node6</title>
<g id="a_node6"><a xlink:href="classCAreaConfiguration.html#a428784970faf0dd87652936a4fa29c55" target="_top" xlink:title="Restore the configuration area. ">
<polygon fill="white" stroke="black" points="496,-17 496,-47 606,-47 606,-17 496,-17"/>
<text text-anchor="start" x="504" y="-35" font-family="Verdana" font-size="10.00">CAreaConfiguration</text>
<text text-anchor="middle" x="551" y="-24" font-family="Verdana" font-size="10.00">::restore</text>
</a>
</g>
</g>
<!-- Node5&#45;&gt;Node6 -->
<g id="edge5" class="edge"><title>Node5&#45;&gt;Node6</title>
<path fill="none" stroke="midnightblue" d="M460.121,-32C468.508,-32 477.134,-32 485.568,-32"/>
<polygon fill="midnightblue" stroke="midnightblue" points="485.733,-35.5001 495.733,-32 485.733,-28.5001 485.733,-35.5001"/>
</g>
<!-- Node6&#45;&gt;Node7 -->
<g id="edge6" class="edge"><title>Node6&#45;&gt;Node7</title>
<path fill="none" stroke="midnightblue" d="M606.334,-23.4312C614.601,-22.1275 623.172,-20.7757 631.551,-19.4544"/>
<polygon fill="midnightblue" stroke="midnightblue" points="632.309,-22.8781 641.642,-17.8629 631.219,-15.9635 632.309,-22.8781"/>
</g>
<!-- Node8 -->
<g id="node8" class="node"><title>Node8</title>
<g id="a_node8"><a xlink:href="classISyncer.html#a16844aac52fb0caf4aed4f68d4b038d9" target="_top" xlink:title="ISyncer::sync">
<polygon fill="white" stroke="black" points="779,-0.5 779,-19.5 859,-19.5 859,-0.5 779,-0.5"/>
<text text-anchor="middle" x="819" y="-7.5" font-family="Verdana" font-size="10.00">ISyncer::sync</text>
</a>
</g>
</g>
<!-- Node7&#45;&gt;Node8 -->
<g id="edge7" class="edge"><title>Node7&#45;&gt;Node8</title>
<path fill="none" stroke="midnightblue" d="M743.063,-10C751.548,-10 760.361,-10 768.836,-10"/>
<polygon fill="midnightblue" stroke="midnightblue" points="768.96,-13.5001 778.96,-10 768.96,-6.5001 768.96,-13.5001"/>
</g>
</g>
</svg>
