<?xml version="1.0" encoding="UTF-8" standalone="no"?>
<!DOCTYPE svg PUBLIC "-//W3C//DTD SVG 1.1//EN"
 "http://www.w3.org/Graphics/SVG/1.1/DTD/svg11.dtd">
<!-- Generated by graphviz version 2.38.0 (20140413.2041)
 -->
<!-- Title: CInstanceConfigurableElement::getTypeElement Pages: 1 -->
<svg width="399pt" height="145pt"
 viewBox="0.00 0.00 399.00 144.50" xmlns="http://www.w3.org/2000/svg" xmlns:xlink="http://www.w3.org/1999/xlink">
<g id="graph0" class="graph" transform="scale(1 1) rotate(0) translate(4 140.5)">
<title>CInstanceConfigurableElement::getTypeElement</title>
<polygon fill="white" stroke="none" points="-4,4 -4,-140.5 395,-140.5 395,4 -4,4"/>
<!-- Node1 -->
<g id="node1" class="node"><title>Node1</title>
<polygon fill="#bfbfbf" stroke="black" points="0,-57 0,-87 164,-87 164,-57 0,-57"/>
<text text-anchor="start" x="8" y="-75" font-family="Verdana" font-size="10.00">CInstanceConfigurableElement</text>
<text text-anchor="middle" x="82" y="-64" font-family="Verdana" font-size="10.00">::getTypeElement</text>
</g>
<!-- Node2 -->
<g id="node2" class="node"><title>Node2</title>
<g id="a_node2"><a xlink:href="classCInstanceConfigurableElement.html#a7fa7f7850ff261cd394b53bd549029b3" target="_top" xlink:title="Get the value associated to a mapping key in the object&#39;s mapping. ">
<polygon fill="white" stroke="black" points="213.5,-106 213.5,-136 377.5,-136 377.5,-106 213.5,-106"/>
<text text-anchor="start" x="221.5" y="-124" font-family="Verdana" font-size="10.00">CInstanceConfigurableElement</text>
<text text-anchor="middle" x="295.5" y="-113" font-family="Verdana" font-size="10.00">::getMappingData</text>
</a>
</g>
</g>
<!-- Node1&#45;&gt;Node2 -->
<g id="edge1" class="edge"><title>Node1&#45;&gt;Node2</title>
<path fill="none" stroke="midnightblue" d="M157.806,-89.3309C181.288,-94.7712 207.002,-100.729 229.728,-105.994"/>
<polygon fill="midnightblue" stroke="midnightblue" points="158.426,-85.882 147.894,-87.0346 156.846,-92.7014 158.426,-85.882"/>
</g>
<!-- Node3 -->
<g id="node3" class="node"><title>Node3</title>
<g id="a_node3"><a xlink:href="classCInstanceConfigurableElement.html#a67d39595d62a9490423bc4e88d8d8e65" target="_top" xlink:title="Returns the mapping data associated to the type element of the current InstanceConfigurableElement, as a formatted std::string. ">
<polygon fill="white" stroke="black" points="213.5,-57 213.5,-87 377.5,-87 377.5,-57 213.5,-57"/>
<text text-anchor="start" x="221.5" y="-75" font-family="Verdana" font-size="10.00">CInstanceConfigurableElement</text>
<text text-anchor="middle" x="295.5" y="-64" font-family="Verdana" font-size="10.00">::getFormattedMapping</text>
</a>
</g>
</g>
<!-- Node1&#45;&gt;Node3 -->
<g id="edge2" class="edge"><title>Node1&#45;&gt;Node3</title>
<path fill="none" stroke="midnightblue" d="M174.432,-72C187.328,-72 200.513,-72 213.201,-72"/>
<polygon fill="midnightblue" stroke="midnightblue" points="174.167,-68.5001 164.167,-72 174.167,-75.5001 174.167,-68.5001"/>
</g>
<!-- Node4 -->
<g id="node4" class="node"><title>Node4</title>
<g id="a_node4"><a xlink:href="classCInstanceConfigurableElement.html#a43d2ce5dbc487aa8de02d39af1b1c2d3" target="_top" xlink:title="CInstanceConfigurableElement::map">
<polygon fill="white" stroke="black" points="200,-0.5 200,-19.5 391,-19.5 391,-0.5 200,-0.5"/>
<text text-anchor="middle" x="295.5" y="-7.5" font-family="Verdana" font-size="10.00">CInstanceConfigurableElement::map</text>
</a>
</g>
</g>
<!-- Node1&#45;&gt;Node4 -->
<g id="edge3" class="edge"><title>Node1&#45;&gt;Node4</title>
<path fill="none" stroke="midnightblue" d="M144.243,-54.047C182.637,-42.7919 230.605,-28.7303 261.87,-19.5654"/>
<polygon fill="midnightblue" stroke="midnightblue" points="142.81,-50.8197 134.198,-56.9915 144.779,-57.5371 142.81,-50.8197"/>
</g>
<!-- Node4&#45;&gt;Node4 -->
<g id="edge4" class="edge"><title>Node4&#45;&gt;Node4</title>
<path fill="none" stroke="midnightblue" d="M255.849,-26.618C254.46,-32.8557 267.677,-38 295.5,-38 333.387,-38 344.19,-28.4613 327.911,-19.6119"/>
<polygon fill="midnightblue" stroke="midnightblue" points="258.337,-29.0812 263.089,-19.6119 253.469,-24.0508 258.337,-29.0812"/>
</g>
</g>
</svg>
