<?xml version="1.0" encoding="UTF-8" standalone="no"?>
<!DOCTYPE svg PUBLIC "-//W3C//DTD SVG 1.1//EN"
 "http://www.w3.org/Graphics/SVG/1.1/DTD/svg11.dtd">
<!-- Generated by graphviz version 2.38.0 (20140413.2041)
 -->
<!-- Title: CInstanceConfigurableElement::toXml Pages: 1 -->
<svg width="552pt" height="110pt"
 viewBox="0.00 0.00 552.00 110.00" xmlns="http://www.w3.org/2000/svg" xmlns:xlink="http://www.w3.org/1999/xlink">
<g id="graph0" class="graph" transform="scale(1 1) rotate(0) translate(4 106)">
<title>CInstanceConfigurableElement::toXml</title>
<polygon fill="white" stroke="none" points="-4,4 -4,-106 548,-106 548,4 -4,4"/>
<!-- Node1 -->
<g id="node1" class="node"><title>Node1</title>
<polygon fill="#bfbfbf" stroke="black" points="0,-46.5 0,-76.5 164,-76.5 164,-46.5 0,-46.5"/>
<text text-anchor="start" x="8" y="-64.5" font-family="Verdana" font-size="10.00">CInstanceConfigurableElement</text>
<text text-anchor="middle" x="82" y="-53.5" font-family="Verdana" font-size="10.00">::toXml</text>
</g>
<!-- Node2 -->
<g id="node2" class="node"><title>Node2</title>
<g id="a_node2"><a xlink:href="classCInstanceConfigurableElement.html#ae2d941df411f8ec4c025cbd04d3ba421" target="_top" xlink:title="CInstanceConfigurableElement\l::getTypeElement">
<polygon fill="white" stroke="black" points="200,-71.5 200,-101.5 364,-101.5 364,-71.5 200,-71.5"/>
<text text-anchor="start" x="208" y="-89.5" font-family="Verdana" font-size="10.00">CInstanceConfigurableElement</text>
<text text-anchor="middle" x="282" y="-78.5" font-family="Verdana" font-size="10.00">::getTypeElement</text>
</a>
</g>
</g>
<!-- Node1&#45;&gt;Node2 -->
<g id="edge1" class="edge"><title>Node1&#45;&gt;Node2</title>
<path fill="none" stroke="midnightblue" d="M164.105,-71.7406C172.549,-72.8067 181.172,-73.8955 189.719,-74.9746"/>
<polygon fill="midnightblue" stroke="midnightblue" points="189.341,-78.4545 199.7,-76.2349 190.217,-71.5097 189.341,-78.4545"/>
</g>
<!-- Node3 -->
<g id="node3" class="node"><title>Node3</title>
<g id="a_node3"><a xlink:href="classCElement.html#a581660a35394ecc99fe7128f9548c3d0" target="_top" xlink:title="Fill the Description field of the Xml Element during XML composing. ">
<polygon fill="white" stroke="black" points="204,-22.5 204,-52.5 360,-52.5 360,-22.5 204,-22.5"/>
<text text-anchor="start" x="212" y="-40.5" font-family="Verdana" font-size="10.00">CElement::setXmlDescription</text>
<text text-anchor="middle" x="282" y="-29.5" font-family="Verdana" font-size="10.00">Attribute</text>
</a>
</g>
</g>
<!-- Node1&#45;&gt;Node3 -->
<g id="edge2" class="edge"><title>Node1&#45;&gt;Node3</title>
<path fill="none" stroke="midnightblue" d="M164.105,-51.669C173.855,-50.4873 183.844,-49.2765 193.677,-48.0846"/>
<polygon fill="midnightblue" stroke="midnightblue" points="194.345,-51.5293 203.851,-46.8514 193.503,-44.5802 194.345,-51.5293"/>
</g>
<!-- Node4 -->
<g id="node4" class="node"><title>Node4</title>
<g id="a_node4"><a xlink:href="classCElement.html#a83c3c6e07b015c44706edf4bb8fc41c2" target="_top" xlink:title="CElement::getDescription">
<polygon fill="white" stroke="black" points="402.5,-50 402.5,-69 541.5,-69 541.5,-50 402.5,-50"/>
<text text-anchor="middle" x="472" y="-57" font-family="Verdana" font-size="10.00">CElement::getDescription</text>
</a>
</g>
</g>
<!-- Node3&#45;&gt;Node4 -->
<g id="edge3" class="edge"><title>Node3&#45;&gt;Node4</title>
<path fill="none" stroke="midnightblue" d="M360.009,-46.5117C370.614,-47.7527 381.517,-49.0286 392.154,-50.2733"/>
<polygon fill="midnightblue" stroke="midnightblue" points="391.914,-53.769 402.253,-51.4551 392.727,-46.8165 391.914,-53.769"/>
</g>
<!-- Node5 -->
<g id="node5" class="node"><title>Node5</title>
<g id="a_node5"><a xlink:href="classCXmlElement.html#a263dbb440f86ef0ad7a74a07f09c87d1" target="_top" xlink:title="CXmlElement::setAttribute\lString">
<polygon fill="white" stroke="black" points="400,-0.5 400,-30.5 544,-30.5 544,-0.5 400,-0.5"/>
<text text-anchor="start" x="408" y="-18.5" font-family="Verdana" font-size="10.00">CXmlElement::setAttribute</text>
<text text-anchor="middle" x="472" y="-7.5" font-family="Verdana" font-size="10.00">String</text>
</a>
</g>
</g>
<!-- Node3&#45;&gt;Node5 -->
<g id="edge4" class="edge"><title>Node3&#45;&gt;Node5</title>
<path fill="none" stroke="midnightblue" d="M360.009,-28.4883C369.793,-27.3434 379.831,-26.1687 389.68,-25.0162"/>
<polygon fill="midnightblue" stroke="midnightblue" points="390.331,-28.464 399.856,-23.8253 389.517,-21.5114 390.331,-28.464"/>
</g>
</g>
</svg>
