<?xml version="1.0" encoding="UTF-8" standalone="no"?>
<!DOCTYPE svg PUBLIC "-//W3C//DTD SVG 1.1//EN"
 "http://www.w3.org/Graphics/SVG/1.1/DTD/svg11.dtd">
<!-- Generated by graphviz version 2.36.0 (20140111.2315)
 -->
<!-- Title: CBinarySerializableElement::binarySerialize Pages: 1 -->
<svg width="526pt" height="87pt"
 viewBox="0.00 0.00 526.00 87.00" xmlns="http://www.w3.org/2000/svg" xmlns:xlink="http://www.w3.org/1999/xlink">
<g id="graph0" class="graph" transform="scale(1 1) rotate(0) translate(4 83)">
<title>CBinarySerializableElement::binarySerialize</title>
<polygon fill="white" stroke="none" points="-4,4 -4,-83 522,-83 522,4 -4,4"/>
<!-- Node1 -->
<g id="node1" class="node"><title>Node1</title>
<polygon fill="#bfbfbf" stroke="black" points="0,-24 0,-54 148,-54 148,-24 0,-24"/>
<text text-anchor="start" x="8" y="-42" font-family="Verdana" font-size="10.00">CBinarySerializableElement</text>
<text text-anchor="middle" x="74" y="-31" font-family="Verdana" font-size="10.00">::binarySerialize</text>
</g>
<!-- Node1&#45;&gt;Node1 -->
<g id="edge1" class="edge"><title>Node1&#45;&gt;Node1</title>
<path fill="none" stroke="midnightblue" d="M43.8936,-64.5975C48.0075,-68.9704 58.043,-72 74,-72 100.875,-72 110.953,-63.4062 104.234,-54.2754"/>
<polygon fill="midnightblue" stroke="midnightblue" points="47.3894,-64.2312 43.7656,-54.2754 40.3899,-64.318 47.3894,-64.2312"/>
</g>
<!-- Node2 -->
<g id="node2" class="node"><title>Node2</title>
<g id="a_node2"><a xlink:href="classCConfigurableDomains.html#ae9bf3db3133286cb842a613185b7145c" target="_top" xlink:title="CConfigurableDomains\l::serializeSettings">
<polygon fill="white" stroke="black" points="184,-24 184,-54 310,-54 310,-24 184,-24"/>
<text text-anchor="start" x="192" y="-42" font-family="Verdana" font-size="10.00">CConfigurableDomains</text>
<text text-anchor="middle" x="247" y="-31" font-family="Verdana" font-size="10.00">::serializeSettings</text>
</a>
</g>
</g>
<!-- Node1&#45;&gt;Node2 -->
<g id="edge2" class="edge"><title>Node1&#45;&gt;Node2</title>
<path fill="none" stroke="midnightblue" d="M158.183,-39C166.876,-39 175.6,-39 183.997,-39"/>
<polygon fill="midnightblue" stroke="midnightblue" points="158.015,-35.5001 148.015,-39 158.015,-42.5001 158.015,-35.5001"/>
</g>
<!-- Node3 -->
<g id="node3" class="node"><title>Node3</title>
<g id="a_node3"><a xlink:href="classCParameterMgr.html#a119c70bbe044eceb5e8cae6cc72ca690" target="_top" xlink:title="CParameterMgr::importDomains\lBinary">
<polygon fill="white" stroke="black" points="346,-49 346,-79 518,-79 518,-49 346,-49"/>
<text text-anchor="start" x="354" y="-67" font-family="Verdana" font-size="10.00">CParameterMgr::importDomains</text>
<text text-anchor="middle" x="432" y="-56" font-family="Verdana" font-size="10.00">Binary</text>
</a>
</g>
</g>
<!-- Node2&#45;&gt;Node3 -->
<g id="edge3" class="edge"><title>Node2&#45;&gt;Node3</title>
<path fill="none" stroke="midnightblue" d="M320.337,-48.8822C328.748,-50.0312 337.385,-51.2111 345.946,-52.3806"/>
<polygon fill="midnightblue" stroke="midnightblue" points="320.593,-45.3846 310.211,-47.4987 319.645,-52.3202 320.593,-45.3846"/>
</g>
<!-- Node4 -->
<g id="node4" class="node"><title>Node4</title>
<g id="a_node4"><a xlink:href="classCParameterMgr.html#a4ba2047e2257649af8a544d5b80396e2" target="_top" xlink:title="CParameterMgr::exportDomains\lBinary">
<polygon fill="white" stroke="black" points="346.5,-0 346.5,-30 517.5,-30 517.5,-0 346.5,-0"/>
<text text-anchor="start" x="354.5" y="-18" font-family="Verdana" font-size="10.00">CParameterMgr::exportDomains</text>
<text text-anchor="middle" x="432" y="-7" font-family="Verdana" font-size="10.00">Binary</text>
</a>
</g>
</g>
<!-- Node2&#45;&gt;Node4 -->
<g id="edge4" class="edge"><title>Node2&#45;&gt;Node4</title>
<path fill="none" stroke="midnightblue" d="M320.15,-29.5377C328.726,-28.4129 337.54,-27.257 346.272,-26.1119"/>
<polygon fill="midnightblue" stroke="midnightblue" points="319.671,-26.0705 310.211,-30.8412 320.581,-33.0111 319.671,-26.0705"/>
</g>
</g>
</svg>
