<?xml version="1.0" encoding="UTF-8" standalone="no"?>
<!DOCTYPE svg PUBLIC "-//W3C//DTD SVG 1.1//EN"
 "http://www.w3.org/Graphics/SVG/1.1/DTD/svg11.dtd">
<!-- Generated by graphviz version 2.36.0 (20140111.2315)
 -->
<!-- Title: CParameterFrameworkConfiguration Pages: 1 -->
<svg width="196pt" height="140pt"
 viewBox="0.00 0.00 196.00 140.00" xmlns="http://www.w3.org/2000/svg" xmlns:xlink="http://www.w3.org/1999/xlink">
<g id="graph0" class="graph" transform="scale(1 1) rotate(0) translate(4 136)">
<title>CParameterFrameworkConfiguration</title>
<polygon fill="white" stroke="none" points="-4,4 -4,-136 192,-136 192,4 -4,4"/>
<!-- Node1 -->
<g id="node1" class="node"><title>Node1</title>
<polygon fill="#bfbfbf" stroke="black" points="-0.5,-0.5 -0.5,-19.5 188.5,-19.5 188.5,-0.5 -0.5,-0.5"/>
<text text-anchor="middle" x="94" y="-7.5" font-family="Verdana" font-size="10.00">CParameterFrameworkConfiguration</text>
</g>
<!-- Node2 -->
<g id="node2" class="node"><title>Node2</title>
<g id="a_node2"><a xlink:href="classCElement.html" target="_top" xlink:title="CElement">
<polygon fill="white" stroke="black" points="62.5,-56.5 62.5,-75.5 125.5,-75.5 125.5,-56.5 62.5,-56.5"/>
<text text-anchor="middle" x="94" y="-63.5" font-family="Verdana" font-size="10.00">CElement</text>
</a>
</g>
</g>
<!-- Node2&#45;&gt;Node1 -->
<g id="edge1" class="edge"><title>Node2&#45;&gt;Node1</title>
<path fill="none" stroke="midnightblue" d="M94,-45.8045C94,-36.9102 94,-26.7798 94,-19.7511"/>
<polygon fill="midnightblue" stroke="midnightblue" points="90.5001,-46.083 94,-56.083 97.5001,-46.083 90.5001,-46.083"/>
</g>
<!-- Node3 -->
<g id="node3" class="node"><title>Node3</title>
<polygon fill="white" stroke="#bfbfbf" points="24.5,-112.5 24.5,-131.5 81.5,-131.5 81.5,-112.5 24.5,-112.5"/>
<text text-anchor="middle" x="53" y="-119.5" font-family="Verdana" font-size="10.00">IXmlSink</text>
</g>
<!-- Node3&#45;&gt;Node2 -->
<g id="edge2" class="edge"><title>Node3&#45;&gt;Node2</title>
<path fill="none" stroke="midnightblue" d="M66.0172,-103.855C73.1167,-94.5048 81.604,-83.3265 87.3557,-75.7511"/>
<polygon fill="midnightblue" stroke="midnightblue" points="63.0299,-102.002 59.7703,-112.083 68.605,-106.235 63.0299,-102.002"/>
</g>
<!-- Node4 -->
<g id="node4" class="node"><title>Node4</title>
<polygon fill="white" stroke="#bfbfbf" points="99.5,-112.5 99.5,-131.5 170.5,-131.5 170.5,-112.5 99.5,-112.5"/>
<text text-anchor="middle" x="135" y="-119.5" font-family="Verdana" font-size="10.00">IXmlSource</text>
</g>
<!-- Node4&#45;&gt;Node2 -->
<g id="edge3" class="edge"><title>Node4&#45;&gt;Node2</title>
<path fill="none" stroke="midnightblue" d="M121.983,-103.855C114.883,-94.5048 106.396,-83.3265 100.644,-75.7511"/>
<polygon fill="midnightblue" stroke="midnightblue" points="119.395,-106.235 128.23,-112.083 124.97,-102.002 119.395,-106.235"/>
</g>
</g>
</svg>
