<?xml version="1.0" encoding="UTF-8" standalone="no"?>
<!DOCTYPE svg PUBLIC "-//W3C//DTD SVG 1.1//EN"
 "http://www.w3.org/Graphics/SVG/1.1/DTD/svg11.dtd">
<!-- Generated by graphviz version 2.38.0 (20140413.2041)
 -->
<!-- Title: CComponentType::fromXml Pages: 1 -->
<svg width="761pt" height="302pt"
 viewBox="0.00 0.00 761.00 301.50" xmlns="http://www.w3.org/2000/svg" xmlns:xlink="http://www.w3.org/1999/xlink">
<g id="graph0" class="graph" transform="scale(1 1) rotate(0) translate(4 297.5)">
<title>CComponentType::fromXml</title>
<polygon fill="white" stroke="none" points="-4,4 -4,-297.5 757,-297.5 757,4 -4,4"/>
<!-- Node1 -->
<g id="node1" class="node"><title>Node1</title>
<polygon fill="#bfbfbf" stroke="black" points="0,-158.5 0,-177.5 147,-177.5 147,-158.5 0,-158.5"/>
<text text-anchor="middle" x="73.5" y="-165.5" font-family="Verdana" font-size="10.00">CComponentType::fromXml</text>
</g>
<!-- Node2 -->
<g id="node2" class="node"><title>Node2</title>
<g id="a_node2"><a xlink:href="classCXmlParameterSerializingContext.html#a1ca5ee65e05cff3a9a453d8b0ff8fd09" target="_top" xlink:title="CXmlParameterSerializing\lContext::getComponentLibrary">
<polygon fill="white" stroke="black" points="183,-263 183,-293 347,-293 347,-263 183,-263"/>
<text text-anchor="start" x="191" y="-281" font-family="Verdana" font-size="10.00">CXmlParameterSerializing</text>
<text text-anchor="middle" x="265" y="-270" font-family="Verdana" font-size="10.00">Context::getComponentLibrary</text>
</a>
</g>
</g>
<!-- Node1&#45;&gt;Node2 -->
<g id="edge1" class="edge"><title>Node1&#45;&gt;Node2</title>
<path fill="none" stroke="midnightblue" d="M85.204,-177.511C103.917,-193.751 144.283,-227.098 183,-248 190.493,-252.045 198.647,-255.772 206.8,-259.122"/>
<polygon fill="midnightblue" stroke="midnightblue" points="205.744,-262.468 216.331,-262.879 208.311,-255.955 205.744,-262.468"/>
</g>
<!-- Node3 -->
<g id="node3" class="node"><title>Node3</title>
<g id="a_node3"><a xlink:href="classCXmlElement.html#aacd4d202e3de66715641cc3bb89bd4b5" target="_top" xlink:title="CXmlElement::hasAttribute">
<polygon fill="white" stroke="black" points="397,-129.5 397,-148.5 543,-148.5 543,-129.5 397,-129.5"/>
<text text-anchor="middle" x="470" y="-136.5" font-family="Verdana" font-size="10.00">CXmlElement::hasAttribute</text>
</a>
</g>
</g>
<!-- Node1&#45;&gt;Node3 -->
<g id="edge2" class="edge"><title>Node1&#45;&gt;Node3</title>
<path fill="none" stroke="midnightblue" d="M147.317,-162.647C215.114,-157.663 316.06,-150.243 386.74,-145.047"/>
<polygon fill="midnightblue" stroke="midnightblue" points="387.224,-148.521 396.941,-144.297 386.711,-141.54 387.224,-148.521"/>
</g>
<!-- Node4 -->
<g id="node4" class="node"><title>Node4</title>
<g id="a_node4"><a xlink:href="classCXmlElement.html#a6198359168c744489018bc2b8d732dc3" target="_top" xlink:title="Get attribute. ">
<polygon fill="white" stroke="black" points="600.5,-127.5 600.5,-146.5 745.5,-146.5 745.5,-127.5 600.5,-127.5"/>
<text text-anchor="middle" x="673" y="-134.5" font-family="Verdana" font-size="10.00">CXmlElement::getAttribute</text>
</a>
</g>
</g>
<!-- Node1&#45;&gt;Node4 -->
<g id="edge3" class="edge"><title>Node1&#45;&gt;Node4</title>
<path fill="none" stroke="midnightblue" d="M91.1021,-177.542C111.822,-188.849 148.715,-207.032 183,-214 217.813,-221.075 554.8,-209.66 557,-209 594.644,-197.701 632.069,-170.545 653.57,-153.002"/>
<polygon fill="midnightblue" stroke="midnightblue" points="655.823,-155.681 661.254,-146.584 651.336,-150.309 655.823,-155.681"/>
</g>
<!-- Node5 -->
<g id="node5" class="node"><title>Node5</title>
<g id="a_node5"><a xlink:href="classCComponentLibrary.html#afc3a6329eb7e76f3b585755611a2e7d8" target="_top" xlink:title="CComponentLibrary::\lgetComponentType">
<polygon fill="white" stroke="black" points="206.5,-175 206.5,-205 323.5,-205 323.5,-175 206.5,-175"/>
<text text-anchor="start" x="214.5" y="-193" font-family="Verdana" font-size="10.00">CComponentLibrary::</text>
<text text-anchor="middle" x="265" y="-182" font-family="Verdana" font-size="10.00">getComponentType</text>
</a>
</g>
</g>
<!-- Node1&#45;&gt;Node5 -->
<g id="edge4" class="edge"><title>Node1&#45;&gt;Node5</title>
<path fill="none" stroke="midnightblue" d="M147.224,-176.443C163.32,-178.312 180.315,-180.285 196.206,-182.129"/>
<polygon fill="midnightblue" stroke="midnightblue" points="196.132,-185.644 206.469,-183.321 196.939,-178.691 196.132,-185.644"/>
</g>
<!-- Node7 -->
<g id="node7" class="node"><title>Node7</title>
<g id="a_node7"><a xlink:href="classutility_1_1ErrorContext.html#afc2e1af8c4a81e36e5013bf31127c15f" target="_top" xlink:title="utility::ErrorContext\l::setError">
<polygon fill="white" stroke="black" points="211,-87 211,-117 319,-117 319,-87 211,-87"/>
<text text-anchor="start" x="219" y="-105" font-family="Verdana" font-size="10.00">utility::ErrorContext</text>
<text text-anchor="middle" x="265" y="-94" font-family="Verdana" font-size="10.00">::setError</text>
</a>
</g>
</g>
<!-- Node1&#45;&gt;Node7 -->
<g id="edge6" class="edge"><title>Node1&#45;&gt;Node7</title>
<path fill="none" stroke="midnightblue" d="M102.055,-158.403C130.485,-148.501 175.545,-132.808 210.924,-120.486"/>
<polygon fill="midnightblue" stroke="midnightblue" points="212.332,-123.702 220.624,-117.107 210.029,-117.091 212.332,-123.702"/>
</g>
<!-- Node8 -->
<g id="node8" class="node"><title>Node8</title>
<g id="a_node8"><a xlink:href="classCXmlElement.html#ac47c56a3cad8ac7d1fe7579e833227c5" target="_top" xlink:title="CXmlElement::getPath">
<polygon fill="white" stroke="black" points="203,-30.5 203,-49.5 327,-49.5 327,-30.5 203,-30.5"/>
<text text-anchor="middle" x="265" y="-37.5" font-family="Verdana" font-size="10.00">CXmlElement::getPath</text>
</a>
</g>
</g>
<!-- Node1&#45;&gt;Node8 -->
<g id="edge7" class="edge"><title>Node1&#45;&gt;Node8</title>
<path fill="none" stroke="midnightblue" d="M84.2533,-158.228C102.44,-140.387 143.295,-102.07 183,-77 197.477,-67.8593 214.586,-59.703 229.342,-53.39"/>
<polygon fill="midnightblue" stroke="midnightblue" points="230.76,-56.5907 238.647,-49.5158 228.07,-50.1284 230.76,-56.5907"/>
</g>
<!-- Node6 -->
<g id="node6" class="node"><title>Node6</title>
<g id="a_node6"><a xlink:href="classCElement.html#a8595814a3159f32f874269907e70b260" target="_top" xlink:title="CElement::findChild">
<polygon fill="white" stroke="black" points="415,-180.5 415,-199.5 525,-199.5 525,-180.5 415,-180.5"/>
<text text-anchor="middle" x="470" y="-187.5" font-family="Verdana" font-size="10.00">CElement::findChild</text>
</a>
</g>
</g>
<!-- Node5&#45;&gt;Node6 -->
<g id="edge5" class="edge"><title>Node5&#45;&gt;Node6</title>
<path fill="none" stroke="midnightblue" d="M323.629,-190C348.878,-190 378.613,-190 404.59,-190"/>
<polygon fill="midnightblue" stroke="midnightblue" points="404.716,-193.5 414.716,-190 404.716,-186.5 404.716,-193.5"/>
</g>
<!-- Node8&#45;&gt;Node3 -->
<g id="edge9" class="edge"><title>Node8&#45;&gt;Node3</title>
<path fill="none" stroke="midnightblue" d="M290.854,-49.5855C307.281,-56.3427 329.018,-66.1041 347,-77 364.336,-87.5041 365.397,-94.95 383,-105 397.411,-113.228 414.204,-120.354 429.107,-125.927"/>
<polygon fill="midnightblue" stroke="midnightblue" points="427.989,-129.244 438.583,-129.361 430.374,-122.663 427.989,-129.244"/>
</g>
<!-- Node8&#45;&gt;Node8 -->
<g id="edge14" class="edge"><title>Node8&#45;&gt;Node8</title>
<path fill="none" stroke="midnightblue" d="M235.715,-49.7571C221.469,-58.5653 231.23,-68 265,-68 288.744,-68 300.619,-63.3356 300.625,-57.5043"/>
<polygon fill="midnightblue" stroke="midnightblue" points="303.327,-55.279 294.285,-49.7571 297.909,-59.7125 303.327,-55.279"/>
</g>
<!-- Node9 -->
<g id="node9" class="node"><title>Node9</title>
<g id="a_node9"><a xlink:href="classCXmlElement.html#ab2e750aaad2b93b4d875d04b624de1c4" target="_top" xlink:title="CXmlElement::getType">
<polygon fill="white" stroke="black" points="408,-76.5 408,-95.5 532,-95.5 532,-76.5 408,-76.5"/>
<text text-anchor="middle" x="470" y="-83.5" font-family="Verdana" font-size="10.00">CXmlElement::getType</text>
</a>
</g>
</g>
<!-- Node8&#45;&gt;Node9 -->
<g id="edge8" class="edge"><title>Node8&#45;&gt;Node9</title>
<path fill="none" stroke="midnightblue" d="M306.859,-49.5277C329.319,-54.7403 357.684,-61.2825 383,-67 393.399,-69.3484 404.512,-71.827 415.179,-74.1905"/>
<polygon fill="midnightblue" stroke="midnightblue" points="414.712,-77.6717 425.232,-76.4133 416.223,-70.8368 414.712,-77.6717"/>
</g>
<!-- Node10 -->
<g id="node10" class="node"><title>Node10</title>
<g id="a_node10"><a xlink:href="classCXmlElement.html#a21b9cfd66e7cd6f33a889e099102ef89" target="_top" xlink:title="CXmlElement::getNameAttribute">
<polygon fill="white" stroke="black" points="383,-38.5 383,-57.5 557,-57.5 557,-38.5 383,-38.5"/>
<text text-anchor="middle" x="470" y="-45.5" font-family="Verdana" font-size="10.00">CXmlElement::getNameAttribute</text>
</a>
</g>
</g>
<!-- Node8&#45;&gt;Node10 -->
<g id="edge10" class="edge"><title>Node8&#45;&gt;Node10</title>
<path fill="none" stroke="midnightblue" d="M327.182,-42.4111C341.547,-42.9772 357.198,-43.594 372.688,-44.2044"/>
<polygon fill="midnightblue" stroke="midnightblue" points="372.698,-47.7075 382.828,-44.6041 372.974,-40.7129 372.698,-47.7075"/>
</g>
<!-- Node11 -->
<g id="node11" class="node"><title>Node11</title>
<g id="a_node11"><a xlink:href="classCXmlElement.html#a28a62e123c5042524a20eda9cc425d5f" target="_top" xlink:title="CXmlElement::getParentElement">
<polygon fill="white" stroke="black" points="383.5,-0.5 383.5,-19.5 556.5,-19.5 556.5,-0.5 383.5,-0.5"/>
<text text-anchor="middle" x="470" y="-7.5" font-family="Verdana" font-size="10.00">CXmlElement::getParentElement</text>
</a>
</g>
</g>
<!-- Node8&#45;&gt;Node11 -->
<g id="edge12" class="edge"><title>Node8&#45;&gt;Node11</title>
<path fill="none" stroke="midnightblue" d="M327.182,-30.9583C348.341,-27.8314 372.29,-24.2921 394.404,-21.0241"/>
<polygon fill="midnightblue" stroke="midnightblue" points="395.037,-24.4686 404.418,-19.5441 394.014,-17.5438 395.037,-24.4686"/>
</g>
<!-- Node10&#45;&gt;Node4 -->
<g id="edge11" class="edge"><title>Node10&#45;&gt;Node4</title>
<path fill="none" stroke="midnightblue" d="M526.868,-57.5304C537.073,-60.058 547.494,-63.1799 557,-67 592.073,-81.0945 628.726,-105.316 650.966,-121.245"/>
<polygon fill="midnightblue" stroke="midnightblue" points="649.152,-124.253 659.296,-127.309 653.271,-118.594 649.152,-124.253"/>
</g>
<!-- Node12 -->
<g id="node12" class="node"><title>Node12</title>
<g id="a_node12"><a xlink:href="classCXmlElement.html#a3b230e1c8e92537da6a1a365dc1e71b2" target="_top" xlink:title="CXmlElement::setXmlElement">
<polygon fill="white" stroke="black" points="593,-0.5 593,-19.5 753,-19.5 753,-0.5 593,-0.5"/>
<text text-anchor="middle" x="673" y="-7.5" font-family="Verdana" font-size="10.00">CXmlElement::setXmlElement</text>
</a>
</g>
</g>
<!-- Node11&#45;&gt;Node12 -->
<g id="edge13" class="edge"><title>Node11&#45;&gt;Node12</title>
<path fill="none" stroke="midnightblue" d="M556.534,-10C565.212,-10 574.042,-10 582.758,-10"/>
<polygon fill="midnightblue" stroke="midnightblue" points="582.922,-13.5001 592.922,-10 582.922,-6.5001 582.922,-13.5001"/>
</g>
</g>
</svg>
