<?xml version="1.0" encoding="UTF-8" standalone="no"?>
<!DOCTYPE svg PUBLIC "-//W3C//DTD SVG 1.1//EN"
 "http://www.w3.org/Graphics/SVG/1.1/DTD/svg11.dtd">
<!-- Generated by graphviz version 2.38.0 (20140413.2041)
 -->
<!-- Title: CDomainConfiguration::addConfigurableElement Pages: 1 -->
<svg width="467pt" height="39pt"
 viewBox="0.00 0.00 467.00 39.00" xmlns="http://www.w3.org/2000/svg" xmlns:xlink="http://www.w3.org/1999/xlink">
<g id="graph0" class="graph" transform="scale(1 1) rotate(0) translate(4 35)">
<title>CDomainConfiguration::addConfigurableElement</title>
<polygon fill="white" stroke="none" points="-4,4 -4,-35 463,-35 463,4 -4,4"/>
<!-- Node1 -->
<g id="node1" class="node"><title>Node1</title>
<polygon fill="#bfbfbf" stroke="black" points="0,-0.5 0,-30.5 140,-30.5 140,-0.5 0,-0.5"/>
<text text-anchor="start" x="8" y="-18.5" font-family="Verdana" font-size="10.00">CDomainConfiguration</text>
<text text-anchor="middle" x="70" y="-7.5" font-family="Verdana" font-size="10.00">::addConfigurableElement</text>
</g>
<!-- Node2 -->
<g id="node2" class="node"><title>Node2</title>
<g id="a_node2"><a xlink:href="classCConfigurableDomain.html#a82e376a127b18da449923829825bcbed" target="_top" xlink:title="CConfigurableDomain\l::createConfiguration">
<polygon fill="white" stroke="black" points="176,-0.5 176,-30.5 297,-30.5 297,-0.5 176,-0.5"/>
<text text-anchor="start" x="184" y="-18.5" font-family="Verdana" font-size="10.00">CConfigurableDomain</text>
<text text-anchor="middle" x="236.5" y="-7.5" font-family="Verdana" font-size="10.00">::createConfiguration</text>
</a>
</g>
</g>
<!-- Node1&#45;&gt;Node2 -->
<g id="edge1" class="edge"><title>Node1&#45;&gt;Node2</title>
<path fill="none" stroke="midnightblue" d="M150.352,-15.5C158.964,-15.5 167.617,-15.5 175.935,-15.5"/>
<polygon fill="midnightblue" stroke="midnightblue" points="150.286,-12.0001 140.286,-15.5 150.286,-19.0001 150.286,-12.0001"/>
</g>
<!-- Node3 -->
<g id="node3" class="node"><title>Node3</title>
<g id="a_node3"><a xlink:href="classCConfigurableDomains.html#aa96eec13d9bdbb307e1dcfe6f057a685" target="_top" xlink:title="CConfigurableDomains\l::createConfiguration">
<polygon fill="white" stroke="black" points="333,-0.5 333,-30.5 459,-30.5 459,-0.5 333,-0.5"/>
<text text-anchor="start" x="341" y="-18.5" font-family="Verdana" font-size="10.00">CConfigurableDomains</text>
<text text-anchor="middle" x="396" y="-7.5" font-family="Verdana" font-size="10.00">::createConfiguration</text>
</a>
</g>
</g>
<!-- Node2&#45;&gt;Node3 -->
<g id="edge2" class="edge"><title>Node2&#45;&gt;Node3</title>
<path fill="none" stroke="midnightblue" d="M307.29,-15.5C315.769,-15.5 324.389,-15.5 332.748,-15.5"/>
<polygon fill="midnightblue" stroke="midnightblue" points="307.044,-12.0001 297.044,-15.5 307.044,-19.0001 307.044,-12.0001"/>
</g>
</g>
</svg>
