<?xml version="1.0" encoding="UTF-8" standalone="no"?>
<!DOCTYPE svg PUBLIC "-//W3C//DTD SVG 1.1//EN"
 "http://www.w3.org/Graphics/SVG/1.1/DTD/svg11.dtd">
<!-- Generated by graphviz version 2.38.0 (20140413.2041)
 -->
<!-- Title: CParameterAccessContext::CParameterAccessContext Pages: 1 -->
<svg width="359pt" height="88pt"
 viewBox="0.00 0.00 359.00 88.00" xmlns="http://www.w3.org/2000/svg" xmlns:xlink="http://www.w3.org/1999/xlink">
<g id="graph0" class="graph" transform="scale(1 1) rotate(0) translate(4 84)">
<title>CParameterAccessContext::CParameterAccessContext</title>
<polygon fill="white" stroke="none" points="-4,4 -4,-84 355,-84 355,4 -4,4"/>
<!-- Node1 -->
<g id="node1" class="node"><title>Node1</title>
<polygon fill="#bfbfbf" stroke="black" points="0,-24.5 0,-54.5 151,-54.5 151,-24.5 0,-24.5"/>
<text text-anchor="start" x="8" y="-42.5" font-family="Verdana" font-size="10.00">CParameterAccessContext</text>
<text text-anchor="middle" x="75.5" y="-31.5" font-family="Verdana" font-size="10.00">::CParameterAccessContext</text>
</g>
<!-- Node2 -->
<g id="node2" class="node"><title>Node2</title>
<g id="a_node2"><a xlink:href="classCConfigurationAccessContext.html#adaaceedaa7126310911f3d7b308c05b6" target="_top" xlink:title="CConfigurationAccessContext\l::CConfigurationAccessContext">
<polygon fill="white" stroke="black" points="187,-49.5 187,-79.5 351,-79.5 351,-49.5 187,-49.5"/>
<text text-anchor="start" x="195" y="-67.5" font-family="Verdana" font-size="10.00">CConfigurationAccessContext</text>
<text text-anchor="middle" x="269" y="-56.5" font-family="Verdana" font-size="10.00">::CConfigurationAccessContext</text>
</a>
</g>
</g>
<!-- Node1&#45;&gt;Node2 -->
<g id="edge1" class="edge"><title>Node1&#45;&gt;Node2</title>
<path fill="none" stroke="midnightblue" d="M161.101,-50.5445C169.693,-51.6662 178.407,-52.8038 186.96,-53.9204"/>
<polygon fill="midnightblue" stroke="midnightblue" points="161.456,-47.0613 151.087,-49.2372 160.55,-54.0024 161.456,-47.0613"/>
</g>
<!-- Node3 -->
<g id="node3" class="node"><title>Node3</title>
<g id="a_node3"><a xlink:href="classElementHandle.html#a364115ffa9f7e6e718b586b2da72e1e4" target="_top" xlink:title="Gets element structure description as XML string. ">
<polygon fill="white" stroke="black" points="190.5,-0.5 190.5,-30.5 347.5,-30.5 347.5,-0.5 190.5,-0.5"/>
<text text-anchor="start" x="198.5" y="-18.5" font-family="Verdana" font-size="10.00">ElementHandle::getStructure</text>
<text text-anchor="middle" x="269" y="-7.5" font-family="Verdana" font-size="10.00">AsXML</text>
</a>
</g>
</g>
<!-- Node1&#45;&gt;Node3 -->
<g id="edge2" class="edge"><title>Node1&#45;&gt;Node3</title>
<path fill="none" stroke="midnightblue" d="M161.169,-28.8888C170.913,-27.6675 180.813,-26.4268 190.457,-25.2182"/>
<polygon fill="midnightblue" stroke="midnightblue" points="160.574,-25.4358 151.087,-30.1523 161.445,-32.3815 160.574,-25.4358"/>
</g>
</g>
</svg>
