<?xml version="1.0" encoding="UTF-8" standalone="no"?>
<!DOCTYPE svg PUBLIC "-//W3C//DTD SVG 1.1//EN"
 "http://www.w3.org/Graphics/SVG/1.1/DTD/svg11.dtd">
<!-- Generated by graphviz version 2.36.0 (20140111.2315)
 -->
<!-- Title: CElementLibrary::clean Pages: 1 -->
<svg width="342pt" height="77pt"
 viewBox="0.00 0.00 342.00 77.00" xmlns="http://www.w3.org/2000/svg" xmlns:xlink="http://www.w3.org/1999/xlink">
<g id="graph0" class="graph" transform="scale(1 1) rotate(0) translate(4 73)">
<title>CElementLibrary::clean</title>
<polygon fill="white" stroke="none" points="-4,4 -4,-73 338,-73 338,4 -4,4"/>
<!-- Node1 -->
<g id="node1" class="node"><title>Node1</title>
<polygon fill="#bfbfbf" stroke="black" points="0,-22.5 0,-41.5 126,-41.5 126,-22.5 0,-22.5"/>
<text text-anchor="middle" x="63" y="-29.5" font-family="Verdana" font-size="10.00">CElementLibrary::clean</text>
</g>
<!-- Node2 -->
<g id="node2" class="node"><title>Node2</title>
<g id="a_node2"><a xlink:href="classCElementLibrary.html#a81cfe4997c07bd8ebc15c4244454da79" target="_top" xlink:title="CElementLibrary::~CElement\lLibrary">
<polygon fill="white" stroke="black" points="170.5,-39 170.5,-69 325.5,-69 325.5,-39 170.5,-39"/>
<text text-anchor="start" x="178.5" y="-57" font-family="Verdana" font-size="10.00">CElementLibrary::~CElement</text>
<text text-anchor="middle" x="248" y="-46" font-family="Verdana" font-size="10.00">Library</text>
</a>
</g>
</g>
<!-- Node1&#45;&gt;Node2 -->
<g id="edge1" class="edge"><title>Node1&#45;&gt;Node2</title>
<path fill="none" stroke="midnightblue" d="M136.345,-40.6972C147.524,-42.0412 159.103,-43.4332 170.373,-44.788"/>
<polygon fill="midnightblue" stroke="midnightblue" points="136.557,-37.1976 126.211,-39.4789 135.722,-44.1476 136.557,-37.1976"/>
</g>
<!-- Node3 -->
<g id="node3" class="node"><title>Node3</title>
<g id="a_node3"><a xlink:href="classCSystemClass.html#a3264a476e689e33f8c30c6596e3f0d16" target="_top" xlink:title="Load subsystem plugin and fill the corresponding libraries. ">
<polygon fill="white" stroke="black" points="162.5,-0.5 162.5,-19.5 333.5,-19.5 333.5,-0.5 162.5,-0.5"/>
<text text-anchor="middle" x="248" y="-7.5" font-family="Verdana" font-size="10.00">CSystemClass::loadSubsystems</text>
</a>
</g>
</g>
<!-- Node1&#45;&gt;Node3 -->
<g id="edge2" class="edge"><title>Node1&#45;&gt;Node3</title>
<path fill="none" stroke="midnightblue" d="M136.39,-23.2974C146.703,-22.0576 157.354,-20.7771 167.789,-19.5226"/>
<polygon fill="midnightblue" stroke="midnightblue" points="135.722,-19.8524 126.211,-24.5211 136.557,-26.8024 135.722,-19.8524"/>
</g>
</g>
</svg>
