<?xml version="1.0" encoding="UTF-8" standalone="no"?>
<!DOCTYPE svg PUBLIC "-//W3C//DTD SVG 1.1//EN"
 "http://www.w3.org/Graphics/SVG/1.1/DTD/svg11.dtd">
<!-- Generated by graphviz version 2.36.0 (20140111.2315)
 -->
<!-- Title: CConfigurableDomains::removeConfigurableElementFromDomain Pages: 1 -->
<svg width="398pt" height="48pt"
 viewBox="0.00 0.00 398.00 48.00" xmlns="http://www.w3.org/2000/svg" xmlns:xlink="http://www.w3.org/1999/xlink">
<g id="graph0" class="graph" transform="scale(1 1) rotate(0) translate(4 44)">
<title>CConfigurableDomains::removeConfigurableElementFromDomain</title>
<polygon fill="white" stroke="none" points="-4,4 -4,-44 394,-44 394,4 -4,4"/>
<!-- Node1 -->
<g id="node1" class="node"><title>Node1</title>
<polygon fill="#bfbfbf" stroke="black" points="0.5,0.5 0.5,-40.5 159.5,-40.5 159.5,0.5 0.5,0.5"/>
<text text-anchor="start" x="8.5" y="-28.5" font-family="Verdana" font-size="10.00">CConfigurableDomains</text>
<text text-anchor="start" x="8.5" y="-17.5" font-family="Verdana" font-size="10.00">::removeConfigurableElement</text>
<text text-anchor="middle" x="80" y="-6.5" font-family="Verdana" font-size="10.00">FromDomain</text>
</g>
<!-- Node2 -->
<g id="node2" class="node"><title>Node2</title>
<g id="a_node2"><a xlink:href="classCParameterMgr.html#a4f307490c67f2dde0b08e638500dd5d4" target="_top" xlink:title="CParameterMgr::removeConfigurable\lElementFromDomain">
<polygon fill="white" stroke="black" points="196,-5 196,-35 390,-35 390,-5 196,-5"/>
<text text-anchor="start" x="204" y="-23" font-family="Verdana" font-size="10.00">CParameterMgr::removeConfigurable</text>
<text text-anchor="middle" x="293" y="-12" font-family="Verdana" font-size="10.00">ElementFromDomain</text>
</a>
</g>
</g>
<!-- Node1&#45;&gt;Node2 -->
<g id="edge1" class="edge"><title>Node1&#45;&gt;Node2</title>
<path fill="none" stroke="midnightblue" d="M169.654,-20C178.319,-20 187.139,-20 195.873,-20"/>
<polygon fill="midnightblue" stroke="midnightblue" points="169.569,-16.5001 159.569,-20 169.569,-23.5001 169.569,-16.5001"/>
</g>
</g>
</svg>
