<?xml version="1.0" encoding="UTF-8" standalone="no"?>
<!DOCTYPE svg PUBLIC "-//W3C//DTD SVG 1.1//EN"
 "http://www.w3.org/Graphics/SVG/1.1/DTD/svg11.dtd">
<!-- Generated by graphviz version 2.36.0 (20140111.2315)
 -->
<!-- Title: CParameterAccessContext::setParameterBlackboard Pages: 1 -->
<svg width="354pt" height="87pt"
 viewBox="0.00 0.00 354.00 87.00" xmlns="http://www.w3.org/2000/svg" xmlns:xlink="http://www.w3.org/1999/xlink">
<g id="graph0" class="graph" transform="scale(1 1) rotate(0) translate(4 83)">
<title>CParameterAccessContext::setParameterBlackboard</title>
<polygon fill="white" stroke="none" points="-4,4 -4,-83 350,-83 350,4 -4,4"/>
<!-- Node1 -->
<g id="node1" class="node"><title>Node1</title>
<polygon fill="#bfbfbf" stroke="black" points="0.5,-24 0.5,-54 145.5,-54 145.5,-24 0.5,-24"/>
<text text-anchor="start" x="8.5" y="-42" font-family="Verdana" font-size="10.00">CParameterAccessContext</text>
<text text-anchor="middle" x="73" y="-31" font-family="Verdana" font-size="10.00">::setParameterBlackboard</text>
</g>
<!-- Node2 -->
<g id="node2" class="node"><title>Node2</title>
<g id="a_node2"><a xlink:href="classCAreaConfiguration.html#a6b8c95a79343ee9823b026d74184e798" target="_top" xlink:title="CAreaConfiguration\l::serializeXmlSettings">
<polygon fill="white" stroke="black" points="204.5,-49 204.5,-79 323.5,-79 323.5,-49 204.5,-49"/>
<text text-anchor="start" x="212.5" y="-67" font-family="Verdana" font-size="10.00">CAreaConfiguration</text>
<text text-anchor="middle" x="264" y="-56" font-family="Verdana" font-size="10.00">::serializeXmlSettings</text>
</a>
</g>
</g>
<!-- Node1&#45;&gt;Node2 -->
<g id="edge1" class="edge"><title>Node1&#45;&gt;Node2</title>
<path fill="none" stroke="midnightblue" d="M155.786,-49.8182C172.083,-51.9739 188.894,-54.1977 204.233,-56.2265"/>
<polygon fill="midnightblue" stroke="midnightblue" points="156.095,-46.3287 145.722,-48.4871 155.177,-53.2683 156.095,-46.3287"/>
</g>
<!-- Node3 -->
<g id="node3" class="node"><title>Node3</title>
<g id="a_node3"><a xlink:href="classCSimulatedBackSynchronizer.html#a29b298407c7bccc21caa811d04813bcf" target="_top" xlink:title="CSimulatedBackSynchronizer\l::CSimulatedBackSynchronizer">
<polygon fill="white" stroke="black" points="182,-0 182,-30 346,-30 346,-0 182,-0"/>
<text text-anchor="start" x="190" y="-18" font-family="Verdana" font-size="10.00">CSimulatedBackSynchronizer</text>
<text text-anchor="middle" x="264" y="-7" font-family="Verdana" font-size="10.00">::CSimulatedBackSynchronizer</text>
</a>
</g>
</g>
<!-- Node1&#45;&gt;Node3 -->
<g id="edge2" class="edge"><title>Node1&#45;&gt;Node3</title>
<path fill="none" stroke="midnightblue" d="M155.781,-28.6152C164.42,-27.518 173.205,-26.4026 181.837,-25.3064"/>
<polygon fill="midnightblue" stroke="midnightblue" points="155.202,-25.1605 145.722,-29.8924 156.084,-32.1047 155.202,-25.1605"/>
</g>
</g>
</svg>
