<?xml version="1.0" encoding="UTF-8" standalone="no"?>
<!DOCTYPE svg PUBLIC "-//W3C//DTD SVG 1.1//EN"
 "http://www.w3.org/Graphics/SVG/1.1/DTD/svg11.dtd">
<!-- Generated by graphviz version 2.38.0 (20140413.2041)
 -->
<!-- Title: CElement::showDescriptionProperty Pages: 1 -->
<svg width="554pt" height="72pt"
 viewBox="0.00 0.00 554.00 71.50" xmlns="http://www.w3.org/2000/svg" xmlns:xlink="http://www.w3.org/1999/xlink">
<g id="graph0" class="graph" transform="scale(1 1) rotate(0) translate(4 67.5)">
<title>CElement::showDescriptionProperty</title>
<polygon fill="white" stroke="none" points="-4,4 -4,-67.5 550,-67.5 550,4 -4,4"/>
<!-- Node1 -->
<g id="node1" class="node"><title>Node1</title>
<polygon fill="#bfbfbf" stroke="black" points="0,-19.5 0,-49.5 147,-49.5 147,-19.5 0,-19.5"/>
<text text-anchor="start" x="8" y="-37.5" font-family="Verdana" font-size="10.00">CElement::showDescription</text>
<text text-anchor="middle" x="73.5" y="-26.5" font-family="Verdana" font-size="10.00">Property</text>
</g>
<!-- Node2 -->
<g id="node2" class="node"><title>Node2</title>
<g id="a_node2"><a xlink:href="classCElement.html#a8c87fea54766f49f45346713d9d09880" target="_top" xlink:title="CElement::showProperties">
<polygon fill="white" stroke="black" points="193.5,-44 193.5,-63 335.5,-63 335.5,-44 193.5,-44"/>
<text text-anchor="middle" x="264.5" y="-51" font-family="Verdana" font-size="10.00">CElement::showProperties</text>
</a>
</g>
</g>
<!-- Node1&#45;&gt;Node2 -->
<g id="edge1" class="edge"><title>Node1&#45;&gt;Node2</title>
<path fill="none" stroke="midnightblue" d="M157.103,-42.804C169.188,-44.0189 181.537,-45.2603 193.342,-46.447"/>
<polygon fill="midnightblue" stroke="midnightblue" points="157.332,-39.3094 147.032,-41.7916 156.632,-46.2743 157.332,-39.3094"/>
</g>
<!-- Node3 -->
<g id="node3" class="node"><title>Node3</title>
<g id="a_node3"><a xlink:href="classCTypeElement.html#a71898c707fb687b3a90c06fe25c3e171" target="_top" xlink:title="CTypeElement::showProperties">
<polygon fill="white" stroke="black" points="183,-6 183,-25 346,-25 346,-6 183,-6"/>
<text text-anchor="middle" x="264.5" y="-13" font-family="Verdana" font-size="10.00">CTypeElement::showProperties</text>
</a>
</g>
</g>
<!-- Node1&#45;&gt;Node3 -->
<g id="edge2" class="edge"><title>Node1&#45;&gt;Node3</title>
<path fill="none" stroke="midnightblue" d="M157.054,-26.201C165.658,-25.3359 174.397,-24.4574 182.979,-23.5947"/>
<polygon fill="midnightblue" stroke="midnightblue" points="156.632,-22.7257 147.032,-27.2084 157.332,-29.6906 156.632,-22.7257"/>
</g>
<!-- Node4 -->
<g id="node4" class="node"><title>Node4</title>
<g id="a_node4"><a xlink:href="classCInstanceConfigurableElement.html#a47a5949cc354fc3bb11cefef76f87ea7" target="_top" xlink:title="CInstanceConfigurableElement\l::showProperties">
<polygon fill="white" stroke="black" points="382,-0.5 382,-30.5 546,-30.5 546,-0.5 382,-0.5"/>
<text text-anchor="start" x="390" y="-18.5" font-family="Verdana" font-size="10.00">CInstanceConfigurableElement</text>
<text text-anchor="middle" x="464" y="-7.5" font-family="Verdana" font-size="10.00">::showProperties</text>
</a>
</g>
</g>
<!-- Node3&#45;&gt;Node4 -->
<g id="edge3" class="edge"><title>Node3&#45;&gt;Node4</title>
<path fill="none" stroke="midnightblue" d="M356.362,-15.5C364.808,-15.5 373.33,-15.5 381.682,-15.5"/>
<polygon fill="midnightblue" stroke="midnightblue" points="356.116,-12.0001 346.116,-15.5 356.116,-19.0001 356.116,-12.0001"/>
</g>
</g>
</svg>
