<?xml version="1.0" encoding="UTF-8" standalone="no"?>
<!DOCTYPE svg PUBLIC "-//W3C//DTD SVG 1.1//EN"
 "http://www.w3.org/Graphics/SVG/1.1/DTD/svg11.dtd">
<!-- Generated by graphviz version 2.38.0 (20140413.2041)
 -->
<!-- Title: CBaseParameter::toXml Pages: 1 -->
<svg width="719pt" height="122pt"
 viewBox="0.00 0.00 719.00 121.50" xmlns="http://www.w3.org/2000/svg" xmlns:xlink="http://www.w3.org/1999/xlink">
<g id="graph0" class="graph" transform="scale(1 1) rotate(0) translate(4 117.5)">
<title>CBaseParameter::toXml</title>
<polygon fill="white" stroke="none" points="-4,4 -4,-117.5 715,-117.5 715,4 -4,4"/>
<!-- Node1 -->
<g id="node1" class="node"><title>Node1</title>
<polygon fill="#bfbfbf" stroke="black" points="0,-66.5 0,-85.5 131,-85.5 131,-66.5 0,-66.5"/>
<text text-anchor="middle" x="65.5" y="-73.5" font-family="Verdana" font-size="10.00">CBaseParameter::toXml</text>
</g>
<!-- Node2 -->
<g id="node2" class="node"><title>Node2</title>
<g id="a_node2"><a xlink:href="classCInstanceConfigurableElement.html#ae2d941df411f8ec4c025cbd04d3ba421" target="_top" xlink:title="CInstanceConfigurableElement\l::getTypeElement">
<polygon fill="white" stroke="black" points="167,-83 167,-113 331,-113 331,-83 167,-83"/>
<text text-anchor="start" x="175" y="-101" font-family="Verdana" font-size="10.00">CInstanceConfigurableElement</text>
<text text-anchor="middle" x="249" y="-90" font-family="Verdana" font-size="10.00">::getTypeElement</text>
</a>
</g>
</g>
<!-- Node1&#45;&gt;Node2 -->
<g id="edge1" class="edge"><title>Node1&#45;&gt;Node2</title>
<path fill="none" stroke="midnightblue" d="M131.001,-83.8183C139.35,-84.8303 148.023,-85.8816 156.703,-86.9336"/>
<polygon fill="midnightblue" stroke="midnightblue" points="156.527,-90.4379 166.876,-88.1668 157.37,-83.4888 156.527,-90.4379"/>
</g>
<!-- Node3 -->
<g id="node3" class="node"><title>Node3</title>
<g id="a_node3"><a xlink:href="classCTypeElement.html#ac4118594de3638c76ab40ccc4ecbb2a8" target="_top" xlink:title="CTypeElement::toXml">
<polygon fill="white" stroke="black" points="190,-44.5 190,-63.5 308,-63.5 308,-44.5 190,-44.5"/>
<text text-anchor="middle" x="249" y="-51.5" font-family="Verdana" font-size="10.00">CTypeElement::toXml</text>
</a>
</g>
</g>
<!-- Node1&#45;&gt;Node3 -->
<g id="edge2" class="edge"><title>Node1&#45;&gt;Node3</title>
<path fill="none" stroke="midnightblue" d="M131.001,-68.1817C146.715,-66.277 163.577,-64.2331 179.47,-62.3066"/>
<polygon fill="midnightblue" stroke="midnightblue" points="180.247,-65.7382 189.753,-61.0602 179.404,-58.7891 180.247,-65.7382"/>
</g>
<!-- Node4 -->
<g id="node4" class="node"><title>Node4</title>
<g id="a_node4"><a xlink:href="classCTypeElement.html#a31edf559bc169a1e22e312280bb7a495" target="_top" xlink:title="CTypeElement::isScalar">
<polygon fill="white" stroke="black" points="385,-88.5 385,-107.5 513,-107.5 513,-88.5 385,-88.5"/>
<text text-anchor="middle" x="449" y="-95.5" font-family="Verdana" font-size="10.00">CTypeElement::isScalar</text>
</a>
</g>
</g>
<!-- Node3&#45;&gt;Node4 -->
<g id="edge3" class="edge"><title>Node3&#45;&gt;Node4</title>
<path fill="none" stroke="midnightblue" d="M292.963,-63.5473C322.931,-70.2069 363.114,-79.1363 395.061,-86.2358"/>
<polygon fill="midnightblue" stroke="midnightblue" points="394.6,-89.7186 405.121,-88.4713 396.118,-82.8853 394.6,-89.7186"/>
</g>
<!-- Node5 -->
<g id="node5" class="node"><title>Node5</title>
<g id="a_node5"><a xlink:href="classCXmlElement.html#abd180175ea22c468a4e8c4d287807062" target="_top" xlink:title="CXmlElement::setAttribute\lInteger">
<polygon fill="white" stroke="black" points="377,-39 377,-69 521,-69 521,-39 377,-39"/>
<text text-anchor="start" x="385" y="-57" font-family="Verdana" font-size="10.00">CXmlElement::setAttribute</text>
<text text-anchor="middle" x="449" y="-46" font-family="Verdana" font-size="10.00">Integer</text>
</a>
</g>
</g>
<!-- Node3&#45;&gt;Node5 -->
<g id="edge4" class="edge"><title>Node3&#45;&gt;Node5</title>
<path fill="none" stroke="midnightblue" d="M308.069,-54C326.434,-54 347.08,-54 366.759,-54"/>
<polygon fill="midnightblue" stroke="midnightblue" points="366.944,-57.5001 376.944,-54 366.944,-50.5001 366.944,-57.5001"/>
</g>
<!-- Node7 -->
<g id="node7" class="node"><title>Node7</title>
<g id="a_node7"><a xlink:href="classCTypeElement.html#af00d2effc61c73560aabdf950a70f753" target="_top" xlink:title="CTypeElement::getArrayLength">
<polygon fill="white" stroke="black" points="367,-0.5 367,-19.5 531,-19.5 531,-0.5 367,-0.5"/>
<text text-anchor="middle" x="449" y="-7.5" font-family="Verdana" font-size="10.00">CTypeElement::getArrayLength</text>
</a>
</g>
</g>
<!-- Node3&#45;&gt;Node7 -->
<g id="edge6" class="edge"><title>Node3&#45;&gt;Node7</title>
<path fill="none" stroke="midnightblue" d="M292.963,-44.4527C322.931,-37.7931 363.114,-28.8637 395.061,-21.7642"/>
<polygon fill="midnightblue" stroke="midnightblue" points="396.118,-25.1147 405.121,-19.5287 394.6,-18.2814 396.118,-25.1147"/>
</g>
<!-- Node6 -->
<g id="node6" class="node"><title>Node6</title>
<g id="a_node6"><a xlink:href="classCXmlElement.html#a263dbb440f86ef0ad7a74a07f09c87d1" target="_top" xlink:title="CXmlElement::setAttribute\lString">
<polygon fill="white" stroke="black" points="567,-39 567,-69 711,-69 711,-39 567,-39"/>
<text text-anchor="start" x="575" y="-57" font-family="Verdana" font-size="10.00">CXmlElement::setAttribute</text>
<text text-anchor="middle" x="639" y="-46" font-family="Verdana" font-size="10.00">String</text>
</a>
</g>
</g>
<!-- Node5&#45;&gt;Node6 -->
<g id="edge5" class="edge"><title>Node5&#45;&gt;Node6</title>
<path fill="none" stroke="midnightblue" d="M521.075,-54C532.656,-54 544.731,-54 556.538,-54"/>
<polygon fill="midnightblue" stroke="midnightblue" points="556.825,-57.5001 566.825,-54 556.825,-50.5001 556.825,-57.5001"/>
</g>
</g>
</svg>
