<?xml version="1.0" encoding="UTF-8" standalone="no"?>
<!DOCTYPE svg PUBLIC "-//W3C//DTD SVG 1.1//EN"
 "http://www.w3.org/Graphics/SVG/1.1/DTD/svg11.dtd">
<!-- Generated by graphviz version 2.38.0 (20140413.2041)
 -->
<!-- Title: CRequestMessageGenerator::next Pages: 1 -->
<svg width="373pt" height="104pt"
 viewBox="0.00 0.00 373.00 104.00" xmlns="http://www.w3.org/2000/svg" xmlns:xlink="http://www.w3.org/1999/xlink">
<g id="graph0" class="graph" transform="scale(1 1) rotate(0) translate(4 100)">
<title>CRequestMessageGenerator::next</title>
<polygon fill="white" stroke="none" points="-4,4 -4,-100 369,-100 369,4 -4,4"/>
<!-- Node1 -->
<g id="node1" class="node"><title>Node1</title>
<polygon fill="#bfbfbf" stroke="black" points="0,-33 0,-63 153,-63 153,-33 0,-33"/>
<text text-anchor="start" x="8" y="-51" font-family="Verdana" font-size="10.00">CRequestMessageGenerator</text>
<text text-anchor="middle" x="76.5" y="-40" font-family="Verdana" font-size="10.00">::next</text>
</g>
<!-- Node2 -->
<g id="node2" class="node"><title>Node2</title>
<g id="a_node2"><a xlink:href="classNaiveTokenizer.html#ac5159be438eedc6886029d4b7a499e42" target="_top" xlink:title="tokenize a space&#45;separated string, handling quotes ">
<polygon fill="white" stroke="black" points="197.5,-76.5 197.5,-95.5 356.5,-95.5 356.5,-76.5 197.5,-76.5"/>
<text text-anchor="middle" x="277" y="-83.5" font-family="Verdana" font-size="10.00">NaiveTokenizer::getNextToken</text>
</a>
</g>
</g>
<!-- Node1&#45;&gt;Node2 -->
<g id="edge1" class="edge"><title>Node1&#45;&gt;Node2</title>
<path fill="none" stroke="midnightblue" d="M153.111,-62.4746C174.012,-66.4758 196.398,-70.7613 216.261,-74.5638"/>
<polygon fill="midnightblue" stroke="midnightblue" points="215.614,-78.0033 226.093,-76.4461 216.93,-71.1282 215.614,-78.0033"/>
</g>
<!-- Node3 -->
<g id="node3" class="node"><title>Node3</title>
<g id="a_node3"><a xlink:href="classCRequestMessage.html#a399c6f1c96ed942b4632841e20a28555" target="_top" xlink:title="CRequestMessage::setCommand">
<polygon fill="white" stroke="black" points="189,-38.5 189,-57.5 365,-57.5 365,-38.5 189,-38.5"/>
<text text-anchor="middle" x="277" y="-45.5" font-family="Verdana" font-size="10.00">CRequestMessage::setCommand</text>
</a>
</g>
</g>
<!-- Node1&#45;&gt;Node3 -->
<g id="edge2" class="edge"><title>Node1&#45;&gt;Node3</title>
<path fill="none" stroke="midnightblue" d="M153.111,-48C161.537,-48 170.204,-48 178.85,-48"/>
<polygon fill="midnightblue" stroke="midnightblue" points="178.975,-51.5001 188.974,-48 178.974,-44.5001 178.975,-51.5001"/>
</g>
<!-- Node4 -->
<g id="node4" class="node"><title>Node4</title>
<g id="a_node4"><a xlink:href="classCRequestMessage.html#acabef458b313a1e9a9c1c31239c0cbd3" target="_top" xlink:title="CRequestMessage::addArgument">
<polygon fill="white" stroke="black" points="189,-0.5 189,-19.5 365,-19.5 365,-0.5 189,-0.5"/>
<text text-anchor="middle" x="277" y="-7.5" font-family="Verdana" font-size="10.00">CRequestMessage::addArgument</text>
</a>
</g>
</g>
<!-- Node1&#45;&gt;Node4 -->
<g id="edge3" class="edge"><title>Node1&#45;&gt;Node4</title>
<path fill="none" stroke="midnightblue" d="M153.111,-33.5254C174.012,-29.5242 196.398,-25.2387 216.261,-21.4362"/>
<polygon fill="midnightblue" stroke="midnightblue" points="216.93,-24.8718 226.093,-19.5539 215.614,-17.9967 216.93,-24.8718"/>
</g>
</g>
</svg>
