<?xml version="1.0" encoding="UTF-8" standalone="no"?>
<!DOCTYPE svg PUBLIC "-//W3C//DTD SVG 1.1//EN"
 "http://www.w3.org/Graphics/SVG/1.1/DTD/svg11.dtd">
<!-- Generated by graphviz version 2.36.0 (20140111.2315)
 -->
<!-- Title: CInstanceConfigurableElement::map Pages: 1 -->
<svg width="408pt" height="229pt"
 viewBox="0.00 0.00 408.00 229.00" xmlns="http://www.w3.org/2000/svg" xmlns:xlink="http://www.w3.org/1999/xlink">
<g id="graph0" class="graph" transform="scale(1 1) rotate(0) translate(4 225)">
<title>CInstanceConfigurableElement::map</title>
<polygon fill="white" stroke="none" points="-4,4 -4,-225 404,-225 404,4 -4,4"/>
<!-- Node1 -->
<g id="node1" class="node"><title>Node1</title>
<polygon fill="#bfbfbf" stroke="black" points="0.5,-95.5 0.5,-114.5 191.5,-114.5 191.5,-95.5 0.5,-95.5"/>
<text text-anchor="middle" x="96" y="-102.5" font-family="Verdana" font-size="10.00">CInstanceConfigurableElement::map</text>
</g>
<!-- Node1&#45;&gt;Node1 -->
<g id="edge6" class="edge"><title>Node1&#45;&gt;Node1</title>
<path fill="none" stroke="midnightblue" d="M62.6718,-114.612C45.9316,-123.461 57.041,-133 96,-133 124.611,-133 138.202,-127.856 136.773,-121.618"/>
<polygon fill="midnightblue" stroke="midnightblue" points="139.009,-118.916 129.328,-114.612 134.212,-124.014 139.009,-118.916"/>
</g>
<!-- Node2 -->
<g id="node2" class="node"><title>Node2</title>
<g id="a_node2"><a xlink:href="classCInstanceConfigurableElement.html#ae2d941df411f8ec4c025cbd04d3ba421" target="_top" xlink:title="CInstanceConfigurableElement\l::getTypeElement">
<polygon fill="white" stroke="black" points="232,-191 232,-221 396,-221 396,-191 232,-191"/>
<text text-anchor="start" x="240" y="-209" font-family="Verdana" font-size="10.00">CInstanceConfigurableElement</text>
<text text-anchor="middle" x="314" y="-198" font-family="Verdana" font-size="10.00">::getTypeElement</text>
</a>
</g>
</g>
<!-- Node1&#45;&gt;Node2 -->
<g id="edge1" class="edge"><title>Node1&#45;&gt;Node2</title>
<path fill="none" stroke="midnightblue" d="M110.949,-114.608C134.274,-130.32 183.068,-161.691 228,-181 233.432,-183.334 239.149,-185.531 244.943,-187.58"/>
<polygon fill="midnightblue" stroke="midnightblue" points="244.136,-191.001 254.73,-190.884 246.375,-184.369 244.136,-191.001"/>
</g>
<!-- Node3 -->
<g id="node3" class="node"><title>Node3</title>
<g id="a_node3"><a xlink:href="classCTypeElement.html#a52e9c905327db823c913041e481eacb0" target="_top" xlink:title="CTypeElement::hasMappingData">
<polygon fill="white" stroke="black" points="228.5,-152.5 228.5,-171.5 399.5,-171.5 399.5,-152.5 228.5,-152.5"/>
<text text-anchor="middle" x="314" y="-159.5" font-family="Verdana" font-size="10.00">CTypeElement::hasMappingData</text>
</a>
</g>
</g>
<!-- Node1&#45;&gt;Node3 -->
<g id="edge2" class="edge"><title>Node1&#45;&gt;Node3</title>
<path fill="none" stroke="midnightblue" d="M127.819,-114.53C154.271,-122.567 193.479,-134.144 228,-143 237.667,-145.48 247.999,-147.944 258.011,-150.236"/>
<polygon fill="midnightblue" stroke="midnightblue" points="257.354,-153.675 267.879,-152.464 258.896,-146.847 257.354,-153.675"/>
</g>
<!-- Node4 -->
<g id="node4" class="node"><title>Node4</title>
<g id="a_node4"><a xlink:href="classIMapper.html#a729bea23fd3c18e24972ca93f89fe6f4" target="_top" xlink:title="IMapper::mapBegin">
<polygon fill="white" stroke="black" points="259,-114.5 259,-133.5 369,-133.5 369,-114.5 259,-114.5"/>
<text text-anchor="middle" x="314" y="-121.5" font-family="Verdana" font-size="10.00">IMapper::mapBegin</text>
</a>
</g>
</g>
<!-- Node1&#45;&gt;Node4 -->
<g id="edge3" class="edge"><title>Node1&#45;&gt;Node4</title>
<path fill="none" stroke="midnightblue" d="M191.741,-113.334C211.066,-115.034 230.966,-116.784 248.916,-118.363"/>
<polygon fill="midnightblue" stroke="midnightblue" points="248.686,-121.856 258.955,-119.246 249.3,-114.883 248.686,-121.856"/>
</g>
<!-- Node5 -->
<g id="node5" class="node"><title>Node5</title>
<g id="a_node5"><a xlink:href="classCElement.html#a58b6cdb5715497442fde6afa1e65f8e5" target="_top" xlink:title="CElement::getNbChildren">
<polygon fill="white" stroke="black" points="245.5,-76.5 245.5,-95.5 382.5,-95.5 382.5,-76.5 245.5,-76.5"/>
<text text-anchor="middle" x="314" y="-83.5" font-family="Verdana" font-size="10.00">CElement::getNbChildren</text>
</a>
</g>
</g>
<!-- Node1&#45;&gt;Node5 -->
<g id="edge4" class="edge"><title>Node1&#45;&gt;Node5</title>
<path fill="none" stroke="midnightblue" d="M191.741,-96.6663C206.244,-95.3906 221.07,-94.0864 235.154,-92.8476"/>
<polygon fill="midnightblue" stroke="midnightblue" points="235.607,-96.3213 245.262,-91.9585 234.993,-89.3483 235.607,-96.3213"/>
</g>
<!-- Node6 -->
<g id="node6" class="node"><title>Node6</title>
<g id="a_node6"><a xlink:href="classCElement.html#a9bba10d2dc72821589a898e16ace9ae5" target="_top" xlink:title="Get a child element (const) ">
<polygon fill="white" stroke="black" points="260,-38.5 260,-57.5 368,-57.5 368,-38.5 260,-38.5"/>
<text text-anchor="middle" x="314" y="-45.5" font-family="Verdana" font-size="10.00">CElement::getChild</text>
</a>
</g>
</g>
<!-- Node1&#45;&gt;Node6 -->
<g id="edge5" class="edge"><title>Node1&#45;&gt;Node6</title>
<path fill="none" stroke="midnightblue" d="M127.819,-95.4703C154.271,-87.4327 193.479,-75.856 228,-67 237.667,-64.5201 247.999,-62.056 258.011,-59.7644"/>
<polygon fill="midnightblue" stroke="midnightblue" points="258.896,-63.1528 267.879,-57.5361 257.354,-56.3247 258.896,-63.1528"/>
</g>
<!-- Node7 -->
<g id="node7" class="node"><title>Node7</title>
<g id="a_node7"><a xlink:href="classIMapper.html#a07d1b4904f96cccc320500961dd89517" target="_top" xlink:title="IMapper::mapEnd">
<polygon fill="white" stroke="black" points="263.5,-0.5 263.5,-19.5 364.5,-19.5 364.5,-0.5 263.5,-0.5"/>
<text text-anchor="middle" x="314" y="-7.5" font-family="Verdana" font-size="10.00">IMapper::mapEnd</text>
</a>
</g>
</g>
<!-- Node1&#45;&gt;Node7 -->
<g id="edge7" class="edge"><title>Node1&#45;&gt;Node7</title>
<path fill="none" stroke="midnightblue" d="M110.44,-95.3158C133.416,-79.2063 182.209,-46.9087 228,-29 236.083,-25.8387 244.815,-23.1399 253.497,-20.8551"/>
<polygon fill="midnightblue" stroke="midnightblue" points="254.373,-24.244 263.243,-18.4487 252.695,-17.4481 254.373,-24.244"/>
</g>
</g>
</svg>
