<?xml version="1.0" encoding="UTF-8" standalone="no"?>
<!DOCTYPE svg PUBLIC "-//W3C//DTD SVG 1.1//EN"
 "http://www.w3.org/Graphics/SVG/1.1/DTD/svg11.dtd">
<!-- Generated by graphviz version 2.38.0 (20140413.2041)
 -->
<!-- Title: CDomainConfiguration::isValid Pages: 1 -->
<svg width="865pt" height="106pt"
 viewBox="0.00 0.00 865.00 106.00" xmlns="http://www.w3.org/2000/svg" xmlns:xlink="http://www.w3.org/1999/xlink">
<g id="graph0" class="graph" transform="scale(1 1) rotate(0) translate(4 102)">
<title>CDomainConfiguration::isValid</title>
<polygon fill="white" stroke="none" points="-4,4 -4,-102 861,-102 861,4 -4,4"/>
<!-- Node1 -->
<g id="node1" class="node"><title>Node1</title>
<polygon fill="#bfbfbf" stroke="black" points="0,-33.5 0,-63.5 125,-63.5 125,-33.5 0,-33.5"/>
<text text-anchor="start" x="8" y="-51.5" font-family="Verdana" font-size="10.00">CDomainConfiguration</text>
<text text-anchor="middle" x="62.5" y="-40.5" font-family="Verdana" font-size="10.00">::isValid</text>
</g>
<!-- Node2 -->
<g id="node2" class="node"><title>Node2</title>
<g id="a_node2"><a xlink:href="classCConfigurableDomain.html#ace240c416bae0554c2168c1b6e5d0d79" target="_top" xlink:title="CConfigurableDomain\l::isApplicableConfiguration\lValid">
<polygon fill="white" stroke="black" points="161,-28 161,-69 304,-69 304,-28 161,-28"/>
<text text-anchor="start" x="169" y="-57" font-family="Verdana" font-size="10.00">CConfigurableDomain</text>
<text text-anchor="start" x="169" y="-46" font-family="Verdana" font-size="10.00">::isApplicableConfiguration</text>
<text text-anchor="middle" x="232.5" y="-35" font-family="Verdana" font-size="10.00">Valid</text>
</a>
</g>
</g>
<!-- Node1&#45;&gt;Node2 -->
<g id="edge1" class="edge"><title>Node1&#45;&gt;Node2</title>
<path fill="none" stroke="midnightblue" d="M135.304,-48.5C143.754,-48.5 152.373,-48.5 160.808,-48.5"/>
<polygon fill="midnightblue" stroke="midnightblue" points="135.103,-45.0001 125.103,-48.5 135.103,-52.0001 135.103,-45.0001"/>
</g>
<!-- Node3 -->
<g id="node3" class="node"><title>Node3</title>
<g id="a_node3"><a xlink:href="classCConfigurableElement.html#a711b8af1b9aac12e57244f2edbe916e9" target="_top" xlink:title="CConfigurableElement\l::hasNoValidDomainAssociated">
<polygon fill="white" stroke="black" points="340,-33.5 340,-63.5 506,-63.5 506,-33.5 340,-33.5"/>
<text text-anchor="start" x="348" y="-51.5" font-family="Verdana" font-size="10.00">CConfigurableElement</text>
<text text-anchor="middle" x="423" y="-40.5" font-family="Verdana" font-size="10.00">::hasNoValidDomainAssociated</text>
</a>
</g>
</g>
<!-- Node2&#45;&gt;Node3 -->
<g id="edge2" class="edge"><title>Node2&#45;&gt;Node3</title>
<path fill="none" stroke="midnightblue" d="M314.391,-48.5C322.798,-48.5 331.35,-48.5 339.772,-48.5"/>
<polygon fill="midnightblue" stroke="midnightblue" points="314.227,-45.0001 304.227,-48.5 314.227,-52.0001 314.227,-45.0001"/>
</g>
<!-- Node4 -->
<g id="node4" class="node"><title>Node4</title>
<g id="a_node4"><a xlink:href="classCBackSynchronizer.html#a8f1d4835d14d4c2a89a093c72ed140b7" target="_top" xlink:title="CBackSynchronizer::\lCBackSynchronizer">
<polygon fill="white" stroke="black" points="542,-33.5 542,-63.5 657,-63.5 657,-33.5 542,-33.5"/>
<text text-anchor="start" x="550" y="-51.5" font-family="Verdana" font-size="10.00">CBackSynchronizer::</text>
<text text-anchor="middle" x="599.5" y="-40.5" font-family="Verdana" font-size="10.00">CBackSynchronizer</text>
</a>
</g>
</g>
<!-- Node3&#45;&gt;Node4 -->
<g id="edge3" class="edge"><title>Node3&#45;&gt;Node4</title>
<path fill="none" stroke="midnightblue" d="M516.294,-48.5C524.936,-48.5 533.511,-48.5 541.679,-48.5"/>
<polygon fill="midnightblue" stroke="midnightblue" points="516.14,-45.0001 506.14,-48.5 516.14,-52.0001 516.14,-45.0001"/>
</g>
<!-- Node5 -->
<g id="node5" class="node"><title>Node5</title>
<g id="a_node5"><a xlink:href="classCHardwareBackSynchronizer.html#ad06f7ec68fcd8ce9b878963a39300839" target="_top" xlink:title="CHardwareBackSynchronizer\l::CHardwareBackSynchronizer">
<polygon fill="white" stroke="black" points="694.5,-67.5 694.5,-97.5 855.5,-97.5 855.5,-67.5 694.5,-67.5"/>
<text text-anchor="start" x="702.5" y="-85.5" font-family="Verdana" font-size="10.00">CHardwareBackSynchronizer</text>
<text text-anchor="middle" x="775" y="-74.5" font-family="Verdana" font-size="10.00">::CHardwareBackSynchronizer</text>
</a>
</g>
</g>
<!-- Node4&#45;&gt;Node5 -->
<g id="edge4" class="edge"><title>Node4&#45;&gt;Node5</title>
<path fill="none" stroke="midnightblue" d="M667.345,-61.5992C677.118,-63.5146 687.249,-65.4998 697.202,-67.4502"/>
<polygon fill="midnightblue" stroke="midnightblue" points="667.797,-58.1214 657.31,-59.6329 666.451,-64.9907 667.797,-58.1214"/>
</g>
<!-- Node6 -->
<g id="node6" class="node"><title>Node6</title>
<g id="a_node6"><a xlink:href="classCSimulatedBackSynchronizer.html#a29b298407c7bccc21caa811d04813bcf" target="_top" xlink:title="CSimulatedBackSynchronizer\l::CSimulatedBackSynchronizer">
<polygon fill="white" stroke="black" points="693,-0.5 693,-30.5 857,-30.5 857,-0.5 693,-0.5"/>
<text text-anchor="start" x="701" y="-18.5" font-family="Verdana" font-size="10.00">CSimulatedBackSynchronizer</text>
<text text-anchor="middle" x="775" y="-7.5" font-family="Verdana" font-size="10.00">::CSimulatedBackSynchronizer</text>
</a>
</g>
</g>
<!-- Node4&#45;&gt;Node6 -->
<g id="edge5" class="edge"><title>Node4&#45;&gt;Node6</title>
<path fill="none" stroke="midnightblue" d="M667.376,-35.7801C676.425,-34.0589 685.78,-32.2796 695.016,-30.5229"/>
<polygon fill="midnightblue" stroke="midnightblue" points="666.48,-32.3876 657.31,-37.6946 667.788,-39.2643 666.48,-32.3876"/>
</g>
<!-- Node6&#45;&gt;Node6 -->
<g id="edge6" class="edge"><title>Node6&#45;&gt;Node6</title>
<path fill="none" stroke="midnightblue" d="M744.082,-40.9579C747.92,-45.679 758.226,-49 775,-49 802.527,-49 812.635,-40.0566 805.323,-30.659"/>
<polygon fill="midnightblue" stroke="midnightblue" points="747.595,-40.8441 744.677,-30.659 740.606,-40.4406 747.595,-40.8441"/>
</g>
</g>
</svg>
