<?xml version="1.0" encoding="UTF-8" standalone="no"?>
<!DOCTYPE svg PUBLIC "-//W3C//DTD SVG 1.1//EN"
 "http://www.w3.org/Graphics/SVG/1.1/DTD/svg11.dtd">
<!-- Generated by graphviz version 2.38.0 (20140413.2041)
 -->
<!-- Title: CMessage::serialize Pages: 1 -->
<svg width="322pt" height="104pt"
 viewBox="0.00 0.00 322.00 104.00" xmlns="http://www.w3.org/2000/svg" xmlns:xlink="http://www.w3.org/1999/xlink">
<g id="graph0" class="graph" transform="scale(1 1) rotate(0) translate(4 100)">
<title>CMessage::serialize</title>
<polygon fill="white" stroke="none" points="-4,4 -4,-100 318,-100 318,4 -4,4"/>
<!-- Node1 -->
<g id="node1" class="node"><title>Node1</title>
<polygon fill="#bfbfbf" stroke="black" points="0,-38.5 0,-57.5 111,-57.5 111,-38.5 0,-38.5"/>
<text text-anchor="middle" x="55.5" y="-45.5" font-family="Verdana" font-size="10.00">CMessage::serialize</text>
</g>
<!-- Node2 -->
<g id="node2" class="node"><title>Node2</title>
<g id="a_node2"><a xlink:href="classCSocket.html#a56781c4ee49b861a1177cf72bca4b058" target="_top" xlink:title="CSocket::write">
<polygon fill="white" stroke="black" points="188,-76.5 188,-95.5 273,-95.5 273,-76.5 188,-76.5"/>
<text text-anchor="middle" x="230.5" y="-83.5" font-family="Verdana" font-size="10.00">CSocket::write</text>
</a>
</g>
</g>
<!-- Node1&#45;&gt;Node2 -->
<g id="edge1" class="edge"><title>Node1&#45;&gt;Node2</title>
<path fill="none" stroke="midnightblue" d="M100.155,-57.589C123.821,-62.7872 153.211,-69.2428 177.992,-74.6861"/>
<polygon fill="midnightblue" stroke="midnightblue" points="177.427,-78.1454 187.945,-76.8724 178.929,-71.3084 177.427,-78.1454"/>
</g>
<!-- Node3 -->
<g id="node3" class="node"><title>Node3</title>
<g id="a_node3"><a xlink:href="classCSocket.html#a33d4c0e9b69e048b3ca73e435e890af2" target="_top" xlink:title="CSocket::hasPeerDisconnected">
<polygon fill="white" stroke="black" points="147,-38.5 147,-57.5 314,-57.5 314,-38.5 147,-38.5"/>
<text text-anchor="middle" x="230.5" y="-45.5" font-family="Verdana" font-size="10.00">CSocket::hasPeerDisconnected</text>
</a>
</g>
</g>
<!-- Node1&#45;&gt;Node3 -->
<g id="edge2" class="edge"><title>Node1&#45;&gt;Node3</title>
<path fill="none" stroke="midnightblue" d="M111.238,-48C119.421,-48 128.043,-48 136.751,-48"/>
<polygon fill="midnightblue" stroke="midnightblue" points="136.99,-51.5001 146.99,-48 136.99,-44.5001 136.99,-51.5001"/>
</g>
<!-- Node4 -->
<g id="node4" class="node"><title>Node4</title>
<g id="a_node4"><a xlink:href="classCSocket.html#a476a64ffeb8843cbce048dd89a62e38c" target="_top" xlink:title="CSocket::read">
<polygon fill="white" stroke="black" points="188.5,-0.5 188.5,-19.5 272.5,-19.5 272.5,-0.5 188.5,-0.5"/>
<text text-anchor="middle" x="230.5" y="-7.5" font-family="Verdana" font-size="10.00">CSocket::read</text>
</a>
</g>
</g>
<!-- Node1&#45;&gt;Node4 -->
<g id="edge3" class="edge"><title>Node1&#45;&gt;Node4</title>
<path fill="none" stroke="midnightblue" d="M100.155,-38.411C123.909,-33.1935 153.429,-26.7092 178.268,-21.2533"/>
<polygon fill="midnightblue" stroke="midnightblue" points="179.225,-24.6267 188.241,-19.0627 177.723,-17.7897 179.225,-24.6267"/>
</g>
</g>
</svg>
