<?xml version="1.0" encoding="UTF-8" standalone="no"?>
<!DOCTYPE svg PUBLIC "-//W3C//DTD SVG 1.1//EN"
 "http://www.w3.org/Graphics/SVG/1.1/DTD/svg11.dtd">
<!-- Generated by graphviz version 2.36.0 (20140111.2315)
 -->
<!-- Title: CParameterMgr::removeConfigurableElementFromDomain Pages: 1 -->
<svg width="748pt" height="267pt"
 viewBox="0.00 0.00 748.00 266.53" xmlns="http://www.w3.org/2000/svg" xmlns:xlink="http://www.w3.org/1999/xlink">
<g id="graph0" class="graph" transform="scale(1 1) rotate(0) translate(4 262.53)">
<title>CParameterMgr::removeConfigurableElementFromDomain</title>
<polygon fill="white" stroke="none" points="-4,4 -4,-262.53 744,-262.53 744,4 -4,4"/>
<!-- Node1 -->
<g id="node1" class="node"><title>Node1</title>
<polygon fill="#bfbfbf" stroke="black" points="0,-113 0,-143 194,-143 194,-113 0,-113"/>
<text text-anchor="start" x="8" y="-131" font-family="Verdana" font-size="10.00">CParameterMgr::removeConfigurable</text>
<text text-anchor="middle" x="97" y="-120" font-family="Verdana" font-size="10.00">ElementFromDomain</text>
</g>
<!-- Node2 -->
<g id="node2" class="node"><title>Node2</title>
<g id="a_node2"><a xlink:href="classCElementLocator.html#a94ddc34b50d96cd1cc78f43e3014ce36" target="_top" xlink:title="CElementLocator::locate">
<polygon fill="white" stroke="black" points="243,-159.5 243,-178.5 377,-178.5 377,-159.5 243,-159.5"/>
<text text-anchor="middle" x="310" y="-166.5" font-family="Verdana" font-size="10.00">CElementLocator::locate</text>
</a>
</g>
</g>
<!-- Node1&#45;&gt;Node2 -->
<g id="edge1" class="edge"><title>Node1&#45;&gt;Node2</title>
<path fill="none" stroke="midnightblue" d="M175.37,-143.034C199.96,-147.812 226.748,-153.017 249.84,-157.504"/>
<polygon fill="midnightblue" stroke="midnightblue" points="249.345,-160.974 259.829,-159.446 250.681,-154.102 249.345,-160.974"/>
</g>
<!-- Node8 -->
<g id="node8" class="node"><title>Node8</title>
<g id="a_node8"><a xlink:href="classCConfigurableDomains.html#ac5e3f505c51b2b016614aa460597fd59" target="_top" xlink:title="CConfigurableDomains\l::removeConfigurableElement\lFromDomain">
<polygon fill="white" stroke="black" points="230.5,-66.5 230.5,-107.5 389.5,-107.5 389.5,-66.5 230.5,-66.5"/>
<text text-anchor="start" x="238.5" y="-95.5" font-family="Verdana" font-size="10.00">CConfigurableDomains</text>
<text text-anchor="start" x="238.5" y="-84.5" font-family="Verdana" font-size="10.00">::removeConfigurableElement</text>
<text text-anchor="middle" x="310" y="-73.5" font-family="Verdana" font-size="10.00">FromDomain</text>
</a>
</g>
</g>
<!-- Node1&#45;&gt;Node8 -->
<g id="edge9" class="edge"><title>Node1&#45;&gt;Node8</title>
<path fill="none" stroke="midnightblue" d="M175.37,-112.966C189.896,-110.143 205.189,-107.172 220.034,-104.287"/>
<polygon fill="midnightblue" stroke="midnightblue" points="221.076,-107.65 230.225,-102.307 219.741,-100.779 221.076,-107.65"/>
</g>
<!-- Node3 -->
<g id="node3" class="node"><title>Node3</title>
<g id="a_node3"><a xlink:href="classCPathNavigator.html#ac63504ec6203e15a9ca4a15e9775bfe8" target="_top" xlink:title="CPathNavigator::isPathValid">
<polygon fill="white" stroke="black" points="432,-159.5 432,-178.5 580,-178.5 580,-159.5 432,-159.5"/>
<text text-anchor="middle" x="506" y="-166.5" font-family="Verdana" font-size="10.00">CPathNavigator::isPathValid</text>
</a>
</g>
</g>
<!-- Node2&#45;&gt;Node3 -->
<g id="edge2" class="edge"><title>Node2&#45;&gt;Node3</title>
<path fill="none" stroke="midnightblue" d="M377.221,-169C391.491,-169 406.752,-169 421.581,-169"/>
<polygon fill="midnightblue" stroke="midnightblue" points="421.761,-172.5 431.761,-169 421.761,-165.5 421.761,-172.5"/>
</g>
<!-- Node4 -->
<g id="node4" class="node"><title>Node4</title>
<g id="a_node4"><a xlink:href="classCPathNavigator.html#a06f35d45c0bf392e11de0bf1197cc589" target="_top" xlink:title="CPathNavigator::next">
<polygon fill="white" stroke="black" points="622,-234.5 622,-253.5 740,-253.5 740,-234.5 622,-234.5"/>
<text text-anchor="middle" x="681" y="-241.5" font-family="Verdana" font-size="10.00">CPathNavigator::next</text>
</a>
</g>
</g>
<!-- Node2&#45;&gt;Node4 -->
<g id="edge3" class="edge"><title>Node2&#45;&gt;Node4</title>
<path fill="none" stroke="midnightblue" d="M321.037,-178.541C339.824,-195.663 382.361,-231.027 426,-244 486.927,-262.112 559.768,-259.828 611.792,-254.374"/>
<polygon fill="midnightblue" stroke="midnightblue" points="612.359,-257.833 621.91,-253.246 611.583,-250.876 612.359,-257.833"/>
</g>
<!-- Node5 -->
<g id="node5" class="node"><title>Node5</title>
<g id="a_node5"><a xlink:href="classCElement.html#a49581fb6412e29e932962acd82d52d6a" target="_top" xlink:title="CElement::getName">
<polygon fill="white" stroke="black" points="624,-121.5 624,-140.5 738,-140.5 738,-121.5 624,-121.5"/>
<text text-anchor="middle" x="681" y="-128.5" font-family="Verdana" font-size="10.00">CElement::getName</text>
</a>
</g>
</g>
<!-- Node2&#45;&gt;Node5 -->
<g id="edge4" class="edge"><title>Node2&#45;&gt;Node5</title>
<path fill="none" stroke="midnightblue" d="M362.668,-159.457C382.427,-156.073 405.204,-152.491 426,-150 489.464,-142.399 562.235,-137.324 613.572,-134.346"/>
<polygon fill="midnightblue" stroke="midnightblue" points="614.082,-137.823 623.867,-133.76 613.685,-130.834 614.082,-137.823"/>
</g>
<!-- Node6 -->
<g id="node6" class="node"><title>Node6</title>
<g id="a_node6"><a xlink:href="classCElement.html#a182dcfb7ab154cc97cff047c5f5539f5" target="_top" xlink:title="CElement::findDescendant">
<polygon fill="white" stroke="black" points="434,-197.5 434,-216.5 578,-216.5 578,-197.5 434,-197.5"/>
<text text-anchor="middle" x="506" y="-204.5" font-family="Verdana" font-size="10.00">CElement::findDescendant</text>
</a>
</g>
</g>
<!-- Node2&#45;&gt;Node6 -->
<g id="edge5" class="edge"><title>Node2&#45;&gt;Node6</title>
<path fill="none" stroke="midnightblue" d="M359.954,-178.589C386.247,-183.739 418.84,-190.123 446.465,-195.534"/>
<polygon fill="midnightblue" stroke="midnightblue" points="445.911,-198.992 456.398,-197.48 447.257,-192.123 445.911,-198.992"/>
</g>
<!-- Node6&#45;&gt;Node4 -->
<g id="edge6" class="edge"><title>Node6&#45;&gt;Node4</title>
<path fill="none" stroke="midnightblue" d="M551.552,-216.528C574.065,-221.343 601.581,-227.228 625.361,-232.314"/>
<polygon fill="midnightblue" stroke="midnightblue" points="624.788,-235.771 635.299,-234.44 626.252,-228.926 624.788,-235.771"/>
</g>
<!-- Node6&#45;&gt;Node6 -->
<g id="edge8" class="edge"><title>Node6&#45;&gt;Node6</title>
<path fill="none" stroke="midnightblue" d="M479.182,-216.757C466.135,-225.565 475.074,-235 506,-235 526.778,-235 537.632,-230.741 538.56,-225.275"/>
<polygon fill="midnightblue" stroke="midnightblue" points="541.31,-223.093 532.818,-216.757 535.506,-227.005 541.31,-223.093"/>
</g>
<!-- Node7 -->
<g id="node7" class="node"><title>Node7</title>
<g id="a_node7"><a xlink:href="classCElement.html#a8595814a3159f32f874269907e70b260" target="_top" xlink:title="CElement::findChild">
<polygon fill="white" stroke="black" points="626,-178.5 626,-197.5 736,-197.5 736,-178.5 626,-178.5"/>
<text text-anchor="middle" x="681" y="-185.5" font-family="Verdana" font-size="10.00">CElement::findChild</text>
</a>
</g>
</g>
<!-- Node6&#45;&gt;Node7 -->
<g id="edge7" class="edge"><title>Node6&#45;&gt;Node7</title>
<path fill="none" stroke="midnightblue" d="M578.365,-199.162C590.799,-197.797 603.664,-196.384 615.888,-195.041"/>
<polygon fill="midnightblue" stroke="midnightblue" points="616.424,-198.503 625.983,-193.933 615.66,-191.545 616.424,-198.503"/>
</g>
<!-- Node9 -->
<g id="node9" class="node"><title>Node9</title>
<g id="a_node9"><a xlink:href="classCConfigurableDomains.html#a4dce38a1560b6e33871d3fa2d85cc449" target="_top" xlink:title="CConfigurableDomains\l::findConfigurableDomain">
<polygon fill="white" stroke="black" points="437.5,-72 437.5,-102 574.5,-102 574.5,-72 437.5,-72"/>
<text text-anchor="start" x="445.5" y="-90" font-family="Verdana" font-size="10.00">CConfigurableDomains</text>
<text text-anchor="middle" x="506" y="-79" font-family="Verdana" font-size="10.00">::findConfigurableDomain</text>
</a>
</g>
</g>
<!-- Node8&#45;&gt;Node9 -->
<g id="edge10" class="edge"><title>Node8&#45;&gt;Node9</title>
<path fill="none" stroke="midnightblue" d="M389.628,-87C402.018,-87 414.824,-87 427.195,-87"/>
<polygon fill="midnightblue" stroke="midnightblue" points="427.467,-90.5001 437.467,-87 427.467,-83.5001 427.467,-90.5001"/>
</g>
<!-- Node10 -->
<g id="node10" class="node"><title>Node10</title>
<g id="a_node10"><a xlink:href="classCConfigurableDomain.html#acf2423f10f9c85b255fb9bade2664801" target="_top" xlink:title="CConfigurableDomain\l::removeConfigurableElement">
<polygon fill="white" stroke="black" points="426.5,-23 426.5,-53 585.5,-53 585.5,-23 426.5,-23"/>
<text text-anchor="start" x="434.5" y="-41" font-family="Verdana" font-size="10.00">CConfigurableDomain</text>
<text text-anchor="middle" x="506" y="-30" font-family="Verdana" font-size="10.00">::removeConfigurableElement</text>
</a>
</g>
</g>
<!-- Node8&#45;&gt;Node10 -->
<g id="edge12" class="edge"><title>Node8&#45;&gt;Node10</title>
<path fill="none" stroke="midnightblue" d="M389.628,-67.1405C404.732,-63.3253 420.454,-59.3543 435.255,-55.6161"/>
<polygon fill="midnightblue" stroke="midnightblue" points="436.497,-58.9123 445.335,-53.07 434.783,-52.1255 436.497,-58.9123"/>
</g>
<!-- Node9&#45;&gt;Node7 -->
<g id="edge11" class="edge"><title>Node9&#45;&gt;Node7</title>
<path fill="none" stroke="midnightblue" d="M532.9,-102.121C565.672,-121.254 621.767,-154.003 654.398,-173.053"/>
<polygon fill="midnightblue" stroke="midnightblue" points="652.929,-176.248 663.33,-178.268 656.458,-170.203 652.929,-176.248"/>
</g>
<!-- Node10&#45;&gt;Node5 -->
<g id="edge15" class="edge"><title>Node10&#45;&gt;Node5</title>
<path fill="none" stroke="midnightblue" d="M564.848,-53.0759C572.117,-55.6926 579.335,-58.6637 586,-62 601.25,-69.633 637.14,-97.1039 659.898,-114.996"/>
<polygon fill="midnightblue" stroke="midnightblue" points="657.891,-117.87 667.907,-121.323 662.23,-112.377 657.891,-117.87"/>
</g>
<!-- Node11 -->
<g id="node11" class="node"><title>Node11</title>
<g id="a_node11"><a xlink:href="classCElement.html#a7022c0fc8063f0aae9d97b06e74d4ac1" target="_top" xlink:title="CElement::getPath">
<polygon fill="white" stroke="black" points="628,-0.5 628,-19.5 734,-19.5 734,-0.5 628,-0.5"/>
<text text-anchor="middle" x="681" y="-7.5" font-family="Verdana" font-size="10.00">CElement::getPath</text>
</a>
</g>
</g>
<!-- Node10&#45;&gt;Node11 -->
<g id="edge13" class="edge"><title>Node10&#45;&gt;Node11</title>
<path fill="none" stroke="midnightblue" d="M585.654,-25.2699C596.365,-23.5363 607.238,-21.7766 617.608,-20.0981"/>
<polygon fill="midnightblue" stroke="midnightblue" points="618.474,-23.5036 627.786,-18.4508 617.356,-16.5935 618.474,-23.5036"/>
</g>
<!-- Node12 -->
<g id="node12" class="node"><title>Node12</title>
<g id="a_node12"><a xlink:href="classCElement.html#a1dee87366d307b43bf8851dd2614c160" target="_top" xlink:title="CElement::log_info">
<polygon fill="white" stroke="black" points="628,-56.5 628,-75.5 734,-75.5 734,-56.5 628,-56.5"/>
<text text-anchor="middle" x="681" y="-63.5" font-family="Verdana" font-size="10.00">CElement::log_info</text>
</a>
</g>
</g>
<!-- Node10&#45;&gt;Node12 -->
<g id="edge16" class="edge"><title>Node10&#45;&gt;Node12</title>
<path fill="none" stroke="midnightblue" d="M585.654,-50.7301C596.365,-52.4637 607.238,-54.2234 617.608,-55.9019"/>
<polygon fill="midnightblue" stroke="midnightblue" points="617.356,-59.4065 627.786,-57.5492 618.474,-52.4964 617.356,-59.4065"/>
</g>
<!-- Node11&#45;&gt;Node11 -->
<g id="edge14" class="edge"><title>Node11&#45;&gt;Node11</title>
<path fill="none" stroke="midnightblue" d="M654.182,-19.7571C641.135,-28.5653 650.074,-38 681,-38 701.778,-38 712.632,-33.741 713.56,-28.2746"/>
<polygon fill="midnightblue" stroke="midnightblue" points="716.31,-26.0928 707.818,-19.7571 710.506,-30.0054 716.31,-26.0928"/>
</g>
</g>
</svg>
