<?xml version="1.0" encoding="UTF-8" standalone="no"?>
<!DOCTYPE svg PUBLIC "-//W3C//DTD SVG 1.1//EN"
 "http://www.w3.org/Graphics/SVG/1.1/DTD/svg11.dtd">
<!-- Generated by graphviz version 2.38.0 (20140413.2041)
 -->
<!-- Title: CParameterMgrPlatformConnector::start Pages: 1 -->
<svg width="1256pt" height="400pt"
 viewBox="0.00 0.00 1256.00 399.50" xmlns="http://www.w3.org/2000/svg" xmlns:xlink="http://www.w3.org/1999/xlink">
<g id="graph0" class="graph" transform="scale(1 1) rotate(0) translate(4 395.5)">
<title>CParameterMgrPlatformConnector::start</title>
<polygon fill="white" stroke="none" points="-4,4 -4,-395.5 1252,-395.5 1252,4 -4,4"/>
<!-- Node1 -->
<g id="node1" class="node"><title>Node1</title>
<polygon fill="#bfbfbf" stroke="black" points="0,-259.5 0,-289.5 182,-289.5 182,-259.5 0,-259.5"/>
<text text-anchor="start" x="8" y="-277.5" font-family="Verdana" font-size="10.00">CParameterMgrPlatformConnector</text>
<text text-anchor="middle" x="91" y="-266.5" font-family="Verdana" font-size="10.00">::start</text>
</g>
<!-- Node2 -->
<g id="node2" class="node"><title>Node2</title>
<g id="a_node2"><a xlink:href="classCParameterMgr.html#aad4830a40d67cfae091cbf1a15ff29d0" target="_top" xlink:title="Load plugins, structures and settings from the config file given. ">
<polygon fill="white" stroke="black" points="218,-265 218,-284 336,-284 336,-265 218,-265"/>
<text text-anchor="middle" x="277" y="-272" font-family="Verdana" font-size="10.00">CParameterMgr::load</text>
</a>
</g>
</g>
<!-- Node1&#45;&gt;Node2 -->
<g id="edge1" class="edge"><title>Node1&#45;&gt;Node2</title>
<path fill="none" stroke="midnightblue" d="M182.113,-274.5C190.788,-274.5 199.485,-274.5 207.895,-274.5"/>
<polygon fill="midnightblue" stroke="midnightblue" points="207.991,-278 217.991,-274.5 207.991,-271 207.991,-278"/>
</g>
<!-- Node3 -->
<g id="node3" class="node"><title>Node3</title>
<g id="a_node3"><a xlink:href="classCHardwareBackSynchronizer.html#abc01484c03230247c0a8a3982140b652" target="_top" xlink:title="CHardwareBackSynchronizer\l::sync">
<polygon fill="white" stroke="black" points="372,-348.5 372,-378.5 527,-378.5 527,-348.5 372,-348.5"/>
<text text-anchor="start" x="380" y="-366.5" font-family="Verdana" font-size="10.00">CHardwareBackSynchronizer</text>
<text text-anchor="middle" x="449.5" y="-355.5" font-family="Verdana" font-size="10.00">::sync</text>
</a>
</g>
</g>
<!-- Node2&#45;&gt;Node3 -->
<g id="edge2" class="edge"><title>Node2&#45;&gt;Node3</title>
<path fill="none" stroke="midnightblue" d="M296.246,-284.025C323.374,-298.185 374.956,-325.11 410.507,-343.668"/>
<polygon fill="midnightblue" stroke="midnightblue" points="409.141,-346.903 419.625,-348.428 412.38,-340.697 409.141,-346.903"/>
</g>
<!-- Node6 -->
<g id="node6" class="node"><title>Node6</title>
<g id="a_node6"><a xlink:href="classCConfigurableDomains.html#a6fd812eea1fd18c0d4fa14ec33b57fd5" target="_top" xlink:title="CConfigurableDomains\l::validate">
<polygon fill="white" stroke="black" points="386.5,-282.5 386.5,-312.5 512.5,-312.5 512.5,-282.5 386.5,-282.5"/>
<text text-anchor="start" x="394.5" y="-300.5" font-family="Verdana" font-size="10.00">CConfigurableDomains</text>
<text text-anchor="middle" x="449.5" y="-289.5" font-family="Verdana" font-size="10.00">::validate</text>
</a>
</g>
</g>
<!-- Node2&#45;&gt;Node6 -->
<g id="edge5" class="edge"><title>Node2&#45;&gt;Node6</title>
<path fill="none" stroke="midnightblue" d="M336.2,-282.351C349.114,-284.093 362.953,-285.96 376.35,-287.767"/>
<polygon fill="midnightblue" stroke="midnightblue" points="376.108,-291.266 386.486,-289.134 377.044,-284.329 376.108,-291.266"/>
</g>
<!-- Node11 -->
<g id="node11" class="node"><title>Node11</title>
<g id="a_node11"><a xlink:href="classCSelectionCriteria.html#a25ca6671e46d02c906f512f6b33a44e4" target="_top" xlink:title="CSelectionCriteria\l::listSelectionCriteria">
<polygon fill="white" stroke="black" points="392,-147.5 392,-177.5 507,-177.5 507,-147.5 392,-147.5"/>
<text text-anchor="start" x="400" y="-165.5" font-family="Verdana" font-size="10.00">CSelectionCriteria</text>
<text text-anchor="middle" x="449.5" y="-154.5" font-family="Verdana" font-size="10.00">::listSelectionCriteria</text>
</a>
</g>
</g>
<!-- Node2&#45;&gt;Node11 -->
<g id="edge12" class="edge"><title>Node2&#45;&gt;Node11</title>
<path fill="none" stroke="midnightblue" d="M292.537,-264.951C319.973,-246.929 379.951,-207.529 417.017,-183.181"/>
<polygon fill="midnightblue" stroke="midnightblue" points="419.025,-186.05 425.461,-177.634 415.182,-180.199 419.025,-186.05"/>
</g>
<!-- Node21 -->
<g id="node21" class="node"><title>Node21</title>
<g id="a_node21"><a xlink:href="classCSystemClass.html#ae6f4699f2c40ce3a72bde018aa4453ad" target="_top" xlink:title="Reset subsystems need to resync flag. ">
<polygon fill="white" stroke="black" points="563,-235.5 563,-265.5 739,-265.5 739,-235.5 563,-235.5"/>
<text text-anchor="start" x="571" y="-253.5" font-family="Verdana" font-size="10.00">CSystemClass::cleanSubsystems</text>
<text text-anchor="middle" x="651" y="-242.5" font-family="Verdana" font-size="10.00">NeedToResync</text>
</a>
</g>
</g>
<!-- Node2&#45;&gt;Node21 -->
<g id="edge25" class="edge"><title>Node2&#45;&gt;Node21</title>
<path fill="none" stroke="midnightblue" d="M336.125,-270.75C394.068,-267.012 484.101,-261.203 552.908,-256.764"/>
<polygon fill="midnightblue" stroke="midnightblue" points="553.146,-260.256 562.9,-256.119 552.695,-253.271 553.146,-260.256"/>
</g>
<!-- Node4 -->
<g id="node4" class="node"><title>Node4</title>
<g id="a_node4"><a xlink:href="classCSyncerSet.html#a8f8381b520a758f49ba8013c5cb8c7b5" target="_top" xlink:title="Sync the blackboard. ">
<polygon fill="white" stroke="black" points="600.5,-372 600.5,-391 701.5,-391 701.5,-372 600.5,-372"/>
<text text-anchor="middle" x="651" y="-379" font-family="Verdana" font-size="10.00">CSyncerSet::sync</text>
</a>
</g>
</g>
<!-- Node3&#45;&gt;Node4 -->
<g id="edge3" class="edge"><title>Node3&#45;&gt;Node4</title>
<path fill="none" stroke="midnightblue" d="M527.061,-370.408C548.022,-372.299 570.428,-374.321 590.293,-376.113"/>
<polygon fill="midnightblue" stroke="midnightblue" points="590.155,-379.615 600.429,-377.027 590.784,-372.643 590.155,-379.615"/>
</g>
<!-- Node5 -->
<g id="node5" class="node"><title>Node5</title>
<g id="a_node5"><a xlink:href="classISyncer.html#a16844aac52fb0caf4aed4f68d4b038d9" target="_top" xlink:title="ISyncer::sync">
<polygon fill="white" stroke="black" points="806.5,-372 806.5,-391 886.5,-391 886.5,-372 806.5,-372"/>
<text text-anchor="middle" x="846.5" y="-379" font-family="Verdana" font-size="10.00">ISyncer::sync</text>
</a>
</g>
</g>
<!-- Node4&#45;&gt;Node5 -->
<g id="edge4" class="edge"><title>Node4&#45;&gt;Node5</title>
<path fill="none" stroke="midnightblue" d="M701.58,-381.5C730.601,-381.5 767.118,-381.5 796.107,-381.5"/>
<polygon fill="midnightblue" stroke="midnightblue" points="796.418,-385 806.418,-381.5 796.418,-378 796.418,-385"/>
</g>
<!-- Node7 -->
<g id="node7" class="node"><title>Node7</title>
<g id="a_node7"><a xlink:href="classCElement.html#a58b6cdb5715497442fde6afa1e65f8e5" target="_top" xlink:title="CElement::getNbChildren">
<polygon fill="white" stroke="black" points="778,-276 778,-295 915,-295 915,-276 778,-276"/>
<text text-anchor="middle" x="846.5" y="-283" font-family="Verdana" font-size="10.00">CElement::getNbChildren</text>
</a>
</g>
</g>
<!-- Node6&#45;&gt;Node7 -->
<g id="edge6" class="edge"><title>Node6&#45;&gt;Node7</title>
<path fill="none" stroke="midnightblue" d="M503.148,-312.518C561.597,-326.832 658.334,-343.481 739,-323.5 756.561,-319.15 758.162,-311.117 775,-304.5 781.183,-302.07 787.789,-299.839 794.385,-297.827"/>
<polygon fill="midnightblue" stroke="midnightblue" points="795.365,-301.187 803.993,-295.038 793.414,-294.465 795.365,-301.187"/>
</g>
<!-- Node8 -->
<g id="node8" class="node"><title>Node8</title>
<g id="a_node8"><a xlink:href="classCElement.html#aee0d626525e9cd24d7639b6365afdc16" target="_top" xlink:title="Get a child element (const) ">
<polygon fill="white" stroke="black" points="792.5,-197 792.5,-216 900.5,-216 900.5,-197 792.5,-197"/>
<text text-anchor="middle" x="846.5" y="-204" font-family="Verdana" font-size="10.00">CElement::getChild</text>
</a>
</g>
</g>
<!-- Node6&#45;&gt;Node8 -->
<g id="edge7" class="edge"><title>Node6&#45;&gt;Node8</title>
<path fill="none" stroke="midnightblue" d="M467.751,-282.454C488.673,-265.212 525.779,-237.762 563,-225.5 635.451,-201.632 723.872,-199.719 782.278,-201.914"/>
<polygon fill="midnightblue" stroke="midnightblue" points="782.324,-205.419 792.464,-202.35 782.623,-198.426 782.324,-205.419"/>
</g>
<!-- Node9 -->
<g id="node9" class="node"><title>Node9</title>
<g id="a_node9"><a xlink:href="classCConfigurableDomain.html#a2df6f85b21fa2ccbecc4a1c6d01ae2ed" target="_top" xlink:title="CConfigurableDomain\l::validate">
<polygon fill="white" stroke="black" points="590.5,-284.5 590.5,-314.5 711.5,-314.5 711.5,-284.5 590.5,-284.5"/>
<text text-anchor="start" x="598.5" y="-302.5" font-family="Verdana" font-size="10.00">CConfigurableDomain</text>
<text text-anchor="middle" x="651" y="-291.5" font-family="Verdana" font-size="10.00">::validate</text>
</a>
</g>
</g>
<!-- Node6&#45;&gt;Node9 -->
<g id="edge8" class="edge"><title>Node6&#45;&gt;Node9</title>
<path fill="none" stroke="midnightblue" d="M512.529,-298.122C533.957,-298.337 558.108,-298.579 580.12,-298.799"/>
<polygon fill="midnightblue" stroke="midnightblue" points="580.364,-302.302 590.399,-298.902 580.435,-295.302 580.364,-302.302"/>
</g>
<!-- Node9&#45;&gt;Node7 -->
<g id="edge9" class="edge"><title>Node9&#45;&gt;Node7</title>
<path fill="none" stroke="midnightblue" d="M711.635,-295.185C729.425,-293.898 749.189,-292.468 767.949,-291.111"/>
<polygon fill="midnightblue" stroke="midnightblue" points="768.228,-294.6 777.949,-290.387 767.723,-287.618 768.228,-294.6"/>
</g>
<!-- Node9&#45;&gt;Node8 -->
<g id="edge10" class="edge"><title>Node9&#45;&gt;Node8</title>
<path fill="none" stroke="midnightblue" d="M711.79,-287.735C721.354,-284.36 730.791,-280.035 739,-274.5 760.525,-259.986 753.641,-243.257 775,-228.5 779.866,-225.138 785.266,-222.274 790.852,-219.836"/>
<polygon fill="midnightblue" stroke="midnightblue" points="792.32,-223.021 800.364,-216.125 789.776,-216.499 792.32,-223.021"/>
</g>
<!-- Node10 -->
<g id="node10" class="node"><title>Node10</title>
<g id="a_node10"><a xlink:href="classCDomainConfiguration.html#a10c3a1e0899400ecd23a90fb7dc4e4e6" target="_top" xlink:title="CDomainConfiguration\l::validate">
<polygon fill="white" stroke="black" points="784,-314.5 784,-344.5 909,-344.5 909,-314.5 784,-314.5"/>
<text text-anchor="start" x="792" y="-332.5" font-family="Verdana" font-size="10.00">CDomainConfiguration</text>
<text text-anchor="middle" x="846.5" y="-321.5" font-family="Verdana" font-size="10.00">::validate</text>
</a>
</g>
</g>
<!-- Node9&#45;&gt;Node10 -->
<g id="edge11" class="edge"><title>Node9&#45;&gt;Node10</title>
<path fill="none" stroke="midnightblue" d="M711.635,-308.746C731.294,-311.794 753.362,-315.215 773.823,-318.387"/>
<polygon fill="midnightblue" stroke="midnightblue" points="773.302,-321.848 783.72,-319.922 774.375,-314.931 773.302,-321.848"/>
</g>
<!-- Node12 -->
<g id="node12" class="node"><title>Node12</title>
<g id="a_node12"><a xlink:href="classCSelectionCriteria.html#aa87e3488047e305e72d84d5aa0ed3e08" target="_top" xlink:title="CSelectionCriteria\l::getSelectionCriteriaDefinition">
<polygon fill="white" stroke="black" points="570,-147.5 570,-177.5 732,-177.5 732,-147.5 570,-147.5"/>
<text text-anchor="start" x="578" y="-165.5" font-family="Verdana" font-size="10.00">CSelectionCriteria</text>
<text text-anchor="middle" x="651" y="-154.5" font-family="Verdana" font-size="10.00">::getSelectionCriteriaDefinition</text>
</a>
</g>
</g>
<!-- Node11&#45;&gt;Node12 -->
<g id="edge13" class="edge"><title>Node11&#45;&gt;Node12</title>
<path fill="none" stroke="midnightblue" d="M507.135,-162.5C523.409,-162.5 541.58,-162.5 559.361,-162.5"/>
<polygon fill="midnightblue" stroke="midnightblue" points="559.767,-166 569.767,-162.5 559.767,-159 559.767,-166"/>
</g>
<!-- Node13 -->
<g id="node13" class="node"><title>Node13</title>
<g id="a_node13"><a xlink:href="classCSelectionCriteriaDefinition.html#a24f1eb22f90ddb42ee971bdfc5f99aa5" target="_top" xlink:title="CSelectionCriteriaDefinition\l::listSelectionCriteria">
<polygon fill="white" stroke="black" points="577.5,-98.5 577.5,-128.5 724.5,-128.5 724.5,-98.5 577.5,-98.5"/>
<text text-anchor="start" x="585.5" y="-116.5" font-family="Verdana" font-size="10.00">CSelectionCriteriaDefinition</text>
<text text-anchor="middle" x="651" y="-105.5" font-family="Verdana" font-size="10.00">::listSelectionCriteria</text>
</a>
</g>
</g>
<!-- Node11&#45;&gt;Node13 -->
<g id="edge15" class="edge"><title>Node11&#45;&gt;Node13</title>
<path fill="none" stroke="midnightblue" d="M507.135,-148.59C529.411,-143.118 555.24,-136.774 578.76,-130.998"/>
<polygon fill="midnightblue" stroke="midnightblue" points="579.805,-134.345 588.681,-128.561 578.135,-127.547 579.805,-134.345"/>
</g>
<!-- Node12&#45;&gt;Node8 -->
<g id="edge14" class="edge"><title>Node12&#45;&gt;Node8</title>
<path fill="none" stroke="midnightblue" d="M718.051,-177.519C742.751,-183.136 770.431,-189.43 793.667,-194.714"/>
<polygon fill="midnightblue" stroke="midnightblue" points="793.14,-198.183 803.667,-196.988 794.692,-191.357 793.14,-198.183"/>
</g>
<!-- Node13&#45;&gt;Node7 -->
<g id="edge16" class="edge"><title>Node13&#45;&gt;Node7</title>
<path fill="none" stroke="midnightblue" d="M724.646,-126.925C729.902,-129.812 734.784,-133.296 739,-137.5 781.152,-179.527 732.723,-224.598 775,-266.5 776.452,-267.939 778,-269.272 779.628,-270.507"/>
<polygon fill="midnightblue" stroke="midnightblue" points="777.994,-273.611 788.339,-275.897 781.677,-267.659 777.994,-273.611"/>
</g>
<!-- Node13&#45;&gt;Node8 -->
<g id="edge17" class="edge"><title>Node13&#45;&gt;Node8</title>
<path fill="none" stroke="midnightblue" d="M715.53,-128.574C723.565,-131.191 731.567,-134.163 739,-137.5 771.182,-151.95 804.772,-175.319 825.417,-190.796"/>
<polygon fill="midnightblue" stroke="midnightblue" points="823.354,-193.624 833.431,-196.896 827.594,-188.054 823.354,-193.624"/>
</g>
<!-- Node14 -->
<g id="node14" class="node"><title>Node14</title>
<g id="a_node14"><a xlink:href="classCSelectionCriterion.html#a10a460a1ee7b1a38b34ab8eb90ea74f9" target="_top" xlink:title="User request. ">
<polygon fill="white" stroke="black" points="775,-98.5 775,-128.5 918,-128.5 918,-98.5 775,-98.5"/>
<text text-anchor="start" x="783" y="-116.5" font-family="Verdana" font-size="10.00">CSelectionCriterion</text>
<text text-anchor="middle" x="846.5" y="-105.5" font-family="Verdana" font-size="10.00">::getFormattedDescription</text>
</a>
</g>
</g>
<!-- Node13&#45;&gt;Node14 -->
<g id="edge18" class="edge"><title>Node13&#45;&gt;Node14</title>
<path fill="none" stroke="midnightblue" d="M724.603,-113.5C737.678,-113.5 751.381,-113.5 764.672,-113.5"/>
<polygon fill="midnightblue" stroke="midnightblue" points="764.738,-117 774.738,-113.5 764.738,-110 764.738,-117"/>
</g>
<!-- Node15 -->
<g id="node15" class="node"><title>Node15</title>
<g id="a_node15"><a xlink:href="namespaceutility.html#afd9949bbd80a31bbdbc1aa57439c5d40" target="_top" xlink:title="Utility to underline. ">
<polygon fill="white" stroke="black" points="967,-186 967,-205 1070,-205 1070,-186 967,-186"/>
<text text-anchor="middle" x="1018.5" y="-193" font-family="Verdana" font-size="10.00">utility::appendTitle</text>
</a>
</g>
</g>
<!-- Node14&#45;&gt;Node15 -->
<g id="edge19" class="edge"><title>Node14&#45;&gt;Node15</title>
<path fill="none" stroke="midnightblue" d="M869.502,-128.679C890.466,-142.61 923.298,-163.066 954,-176.5 959.139,-178.749 964.624,-180.83 970.136,-182.726"/>
<polygon fill="midnightblue" stroke="midnightblue" points="969.427,-186.176 980.019,-185.935 971.589,-179.518 969.427,-186.176"/>
</g>
<!-- Node16 -->
<g id="node16" class="node"><title>Node16</title>
<g id="a_node16"><a xlink:href="classCElement.html#a49581fb6412e29e932962acd82d52d6a" target="_top" xlink:title="CElement::getName">
<polygon fill="white" stroke="black" points="961.5,-148 961.5,-167 1075.5,-167 1075.5,-148 961.5,-148"/>
<text text-anchor="middle" x="1018.5" y="-155" font-family="Verdana" font-size="10.00">CElement::getName</text>
</a>
</g>
</g>
<!-- Node14&#45;&gt;Node16 -->
<g id="edge20" class="edge"><title>Node14&#45;&gt;Node16</title>
<path fill="none" stroke="midnightblue" d="M905.529,-128.519C926.841,-134.035 950.676,-140.204 970.86,-145.428"/>
<polygon fill="midnightblue" stroke="midnightblue" points="970.189,-148.87 980.747,-147.988 971.943,-142.093 970.189,-148.87"/>
</g>
<!-- Node17 -->
<g id="node17" class="node"><title>Node17</title>
<g id="a_node17"><a xlink:href="classCSelectionCriterionType.html#ae88c284c1f002d7237f25e9c21dcf44f" target="_top" xlink:title="CSelectionCriterionType\l::isTypeInclusive">
<polygon fill="white" stroke="black" points="954,-98.5 954,-128.5 1083,-128.5 1083,-98.5 954,-98.5"/>
<text text-anchor="start" x="962" y="-116.5" font-family="Verdana" font-size="10.00">CSelectionCriterionType</text>
<text text-anchor="middle" x="1018.5" y="-105.5" font-family="Verdana" font-size="10.00">::isTypeInclusive</text>
</a>
</g>
</g>
<!-- Node14&#45;&gt;Node17 -->
<g id="edge21" class="edge"><title>Node14&#45;&gt;Node17</title>
<path fill="none" stroke="midnightblue" d="M918.118,-113.5C926.55,-113.5 935.175,-113.5 943.65,-113.5"/>
<polygon fill="midnightblue" stroke="midnightblue" points="943.89,-117 953.89,-113.5 943.89,-110 943.89,-117"/>
</g>
<!-- Node18 -->
<g id="node18" class="node"><title>Node18</title>
<g id="a_node18"><a xlink:href="classCSelectionCriterionType.html#a31f9a40404c9564b2c54658a679db628" target="_top" xlink:title="CSelectionCriterionType\l::listPossibleValues">
<polygon fill="white" stroke="black" points="954,-49.5 954,-79.5 1083,-79.5 1083,-49.5 954,-49.5"/>
<text text-anchor="start" x="962" y="-67.5" font-family="Verdana" font-size="10.00">CSelectionCriterionType</text>
<text text-anchor="middle" x="1018.5" y="-56.5" font-family="Verdana" font-size="10.00">::listPossibleValues</text>
</a>
</g>
</g>
<!-- Node14&#45;&gt;Node18 -->
<g id="edge22" class="edge"><title>Node14&#45;&gt;Node18</title>
<path fill="none" stroke="midnightblue" d="M899.893,-98.3986C917.507,-93.3215 937.323,-87.6098 955.598,-82.3423"/>
<polygon fill="midnightblue" stroke="midnightblue" points="956.641,-85.6843 965.28,-79.5516 954.702,-78.9582 956.641,-85.6843"/>
</g>
<!-- Node19 -->
<g id="node19" class="node"><title>Node19</title>
<g id="a_node19"><a xlink:href="classCSelectionCriterionType.html#acf1d7bbd1dc0b21897cdf7cf3d362bb3" target="_top" xlink:title="CSelectionCriterionType\l::getFormattedState">
<polygon fill="white" stroke="black" points="954,-0.5 954,-30.5 1083,-30.5 1083,-0.5 954,-0.5"/>
<text text-anchor="start" x="962" y="-18.5" font-family="Verdana" font-size="10.00">CSelectionCriterionType</text>
<text text-anchor="middle" x="1018.5" y="-7.5" font-family="Verdana" font-size="10.00">::getFormattedState</text>
</a>
</g>
</g>
<!-- Node14&#45;&gt;Node19 -->
<g id="edge23" class="edge"><title>Node14&#45;&gt;Node19</title>
<path fill="none" stroke="midnightblue" d="M866.216,-98.3587C886.805,-82.2261 921.322,-56.6917 954,-39.5 957.269,-37.7801 960.69,-36.1216 964.176,-34.5352"/>
<polygon fill="midnightblue" stroke="midnightblue" points="965.702,-37.6884 973.496,-30.5118 962.928,-31.2616 965.702,-37.6884"/>
</g>
<!-- Node20 -->
<g id="node20" class="node"><title>Node20</title>
<g id="a_node20"><a xlink:href="classCSelectionCriterionType.html#ae526e3679a02dd85be47abe8a548f1ee" target="_top" xlink:title="CSelectionCriterionType\l::getLiteralValue">
<polygon fill="white" stroke="black" points="1119,-0.5 1119,-30.5 1248,-30.5 1248,-0.5 1119,-0.5"/>
<text text-anchor="start" x="1127" y="-18.5" font-family="Verdana" font-size="10.00">CSelectionCriterionType</text>
<text text-anchor="middle" x="1183.5" y="-7.5" font-family="Verdana" font-size="10.00">::getLiteralValue</text>
</a>
</g>
</g>
<!-- Node19&#45;&gt;Node20 -->
<g id="edge24" class="edge"><title>Node19&#45;&gt;Node20</title>
<path fill="none" stroke="midnightblue" d="M1083.45,-15.5C1091.76,-15.5 1100.32,-15.5 1108.77,-15.5"/>
<polygon fill="midnightblue" stroke="midnightblue" points="1109,-19.0001 1119,-15.5 1109,-12.0001 1109,-19.0001"/>
</g>
<!-- Node21&#45;&gt;Node7 -->
<g id="edge26" class="edge"><title>Node21&#45;&gt;Node7</title>
<path fill="none" stroke="midnightblue" d="M735.184,-265.546C751.081,-268.422 767.475,-271.387 782.606,-274.124"/>
<polygon fill="midnightblue" stroke="midnightblue" points="782.394,-277.642 792.857,-275.978 783.64,-270.754 782.394,-277.642"/>
</g>
<!-- Node21&#45;&gt;Node8 -->
<g id="edge27" class="edge"><title>Node21&#45;&gt;Node8</title>
<path fill="none" stroke="midnightblue" d="M718.051,-235.481C742.751,-229.864 770.431,-223.57 793.667,-218.286"/>
<polygon fill="midnightblue" stroke="midnightblue" points="794.692,-221.643 803.667,-216.012 793.14,-214.817 794.692,-221.643"/>
</g>
<!-- Node22 -->
<g id="node22" class="node"><title>Node22</title>
<g id="a_node22"><a xlink:href="classCSubsystem.html#a4cb6e87e55f40b52408e42285e504be4" target="_top" xlink:title="CSubsystem::needResync">
<polygon fill="white" stroke="black" points="776.5,-238 776.5,-257 916.5,-257 916.5,-238 776.5,-238"/>
<text text-anchor="middle" x="846.5" y="-245" font-family="Verdana" font-size="10.00">CSubsystem::needResync</text>
</a>
</g>
</g>
<!-- Node21&#45;&gt;Node22 -->
<g id="edge28" class="edge"><title>Node21&#45;&gt;Node22</title>
<path fill="none" stroke="midnightblue" d="M739.127,-249.149C748.067,-249.011 757.118,-248.87 765.971,-248.733"/>
<polygon fill="midnightblue" stroke="midnightblue" points="766.308,-252.228 776.253,-248.574 766.2,-245.229 766.308,-252.228"/>
</g>
</g>
</svg>
