<?xml version="1.0" encoding="UTF-8" standalone="no"?>
<!DOCTYPE svg PUBLIC "-//W3C//DTD SVG 1.1//EN"
 "http://www.w3.org/Graphics/SVG/1.1/DTD/svg11.dtd">
<!-- Generated by graphviz version 2.38.0 (20140413.2041)
 -->
<!-- Title: CElement::getPath Pages: 1 -->
<svg width="298pt" height="165pt"
 viewBox="0.00 0.00 298.00 164.50" xmlns="http://www.w3.org/2000/svg" xmlns:xlink="http://www.w3.org/1999/xlink">
<g id="graph0" class="graph" transform="scale(1 1) rotate(0) translate(4 160.5)">
<title>CElement::getPath</title>
<polygon fill="white" stroke="none" points="-4,4 -4,-160.5 294,-160.5 294,4 -4,4"/>
<!-- Node1 -->
<g id="node1" class="node"><title>Node1</title>
<polygon fill="#bfbfbf" stroke="black" points="0,-60.5 0,-79.5 106,-79.5 106,-60.5 0,-60.5"/>
<text text-anchor="middle" x="53" y="-67.5" font-family="Verdana" font-size="10.00">CElement::getPath</text>
</g>
<!-- Node1&#45;&gt;Node1 -->
<g id="edge4" class="edge"><title>Node1&#45;&gt;Node1</title>
<path fill="none" stroke="midnightblue" d="M22.6856,-88.2746C23.5499,-93.741 33.6547,-98 53,-98 81.793,-98 90.1159,-88.5653 77.9689,-79.7571"/>
<polygon fill="midnightblue" stroke="midnightblue" points="25.6799,-90.0877 28.0311,-79.7571 19.7508,-86.3667 25.6799,-90.0877"/>
</g>
<!-- Node2 -->
<g id="node2" class="node"><title>Node2</title>
<g id="a_node2"><a xlink:href="classCDomainConfiguration.html#a07ba71bfd498ff4291eb765975360339" target="_top" xlink:title="CDomainConfiguration\l::parseSettings">
<polygon fill="white" stroke="black" points="153.5,-126 153.5,-156 278.5,-156 278.5,-126 153.5,-126"/>
<text text-anchor="start" x="161.5" y="-144" font-family="Verdana" font-size="10.00">CDomainConfiguration</text>
<text text-anchor="middle" x="216" y="-133" font-family="Verdana" font-size="10.00">::parseSettings</text>
</a>
</g>
</g>
<!-- Node1&#45;&gt;Node2 -->
<g id="edge1" class="edge"><title>Node1&#45;&gt;Node2</title>
<path fill="none" stroke="midnightblue" d="M78.7053,-84.6808C96.0386,-94.6084 119.963,-107.577 142,-117 149.36,-120.147 157.28,-123.138 165.093,-125.872"/>
<polygon fill="midnightblue" stroke="midnightblue" points="80.214,-81.5098 69.8077,-79.5201 76.7019,-87.565 80.214,-81.5098"/>
</g>
<!-- Node3 -->
<g id="node3" class="node"><title>Node3</title>
<g id="a_node3"><a xlink:href="classCDomainConfiguration.html#a30e09c1bbf837e1f1536c0747a2fadee" target="_top" xlink:title="CDomainConfiguration\l::validateAgainst">
<polygon fill="white" stroke="black" points="153.5,-77 153.5,-107 278.5,-107 278.5,-77 153.5,-77"/>
<text text-anchor="start" x="161.5" y="-95" font-family="Verdana" font-size="10.00">CDomainConfiguration</text>
<text text-anchor="middle" x="216" y="-84" font-family="Verdana" font-size="10.00">::validateAgainst</text>
</a>
</g>
</g>
<!-- Node1&#45;&gt;Node3 -->
<g id="edge2" class="edge"><title>Node1&#45;&gt;Node3</title>
<path fill="none" stroke="midnightblue" d="M116.344,-78.5191C128.53,-80.1843 141.302,-81.9295 153.462,-83.591"/>
<polygon fill="midnightblue" stroke="midnightblue" points="116.654,-75.029 106.272,-77.1428 115.706,-81.9645 116.654,-75.029"/>
</g>
<!-- Node4 -->
<g id="node4" class="node"><title>Node4</title>
<g id="a_node4"><a xlink:href="classCElement.html#a1565e8418977482b9b054a93980c2242" target="_top" xlink:title="CElement::listChildrenPaths">
<polygon fill="white" stroke="black" points="142,-38.5 142,-57.5 290,-57.5 290,-38.5 142,-38.5"/>
<text text-anchor="middle" x="216" y="-45.5" font-family="Verdana" font-size="10.00">CElement::listChildrenPaths</text>
</a>
</g>
</g>
<!-- Node1&#45;&gt;Node4 -->
<g id="edge3" class="edge"><title>Node1&#45;&gt;Node4</title>
<path fill="none" stroke="midnightblue" d="M116.416,-61.4711C125.917,-60.1729 135.772,-58.8262 145.414,-57.5086"/>
<polygon fill="midnightblue" stroke="midnightblue" points="115.706,-58.0355 106.272,-62.8572 116.654,-64.971 115.706,-58.0355"/>
</g>
<!-- Node5 -->
<g id="node5" class="node"><title>Node5</title>
<g id="a_node5"><a xlink:href="classCElement.html#a893e7d2d24391fd0279245c7bda1e468" target="_top" xlink:title="CElement::getQualifiedPath">
<polygon fill="white" stroke="black" points="142.5,-0.5 142.5,-19.5 289.5,-19.5 289.5,-0.5 142.5,-0.5"/>
<text text-anchor="middle" x="216" y="-7.5" font-family="Verdana" font-size="10.00">CElement::getQualifiedPath</text>
</a>
</g>
</g>
<!-- Node1&#45;&gt;Node5 -->
<g id="edge5" class="edge"><title>Node1&#45;&gt;Node5</title>
<path fill="none" stroke="midnightblue" d="M81.4985,-55.6135C98.5841,-47.0738 121.185,-36.4876 142,-29 151.858,-25.4537 162.684,-22.2684 172.91,-19.5647"/>
<polygon fill="midnightblue" stroke="midnightblue" points="79.4655,-52.7202 72.1314,-60.3662 82.6329,-58.9627 79.4655,-52.7202"/>
</g>
</g>
</svg>
