<?xml version="1.0" encoding="UTF-8" standalone="no"?>
<!DOCTYPE svg PUBLIC "-//W3C//DTD SVG 1.1//EN"
 "http://www.w3.org/Graphics/SVG/1.1/DTD/svg11.dtd">
<!-- Generated by graphviz version 2.38.0 (20140413.2041)
 -->
<!-- Title: CParameterMgr::setFailureOnFailedSettingsLoad Pages: 1 -->
<svg width="369pt" height="88pt"
 viewBox="0.00 0.00 369.00 88.00" xmlns="http://www.w3.org/2000/svg" xmlns:xlink="http://www.w3.org/1999/xlink">
<g id="graph0" class="graph" transform="scale(1 1) rotate(0) translate(4 84)">
<title>CParameterMgr::setFailureOnFailedSettingsLoad</title>
<polygon fill="white" stroke="none" points="-4,4 -4,-84 365,-84 365,4 -4,4"/>
<!-- Node1 -->
<g id="node1" class="node"><title>Node1</title>
<polygon fill="#bfbfbf" stroke="black" points="0,-24.5 0,-54.5 143,-54.5 143,-24.5 0,-24.5"/>
<text text-anchor="start" x="8" y="-42.5" font-family="Verdana" font-size="10.00">CParameterMgr::setFailure</text>
<text text-anchor="middle" x="71.5" y="-31.5" font-family="Verdana" font-size="10.00">OnFailedSettingsLoad</text>
</g>
<!-- Node2 -->
<g id="node2" class="node"><title>Node2</title>
<g id="a_node2"><a xlink:href="classCParameterMgrFullConnector.html#a494e2ee62fbf707e42fce75e14789833" target="_top" xlink:title="Should start fail in failed settings load. ">
<polygon fill="white" stroke="black" points="184,-49.5 184,-79.5 356,-79.5 356,-49.5 184,-49.5"/>
<text text-anchor="start" x="192" y="-67.5" font-family="Verdana" font-size="10.00">CParameterMgrFullConnector</text>
<text text-anchor="middle" x="270" y="-56.5" font-family="Verdana" font-size="10.00">::setFailureOnFailedSettingsLoad</text>
</a>
</g>
</g>
<!-- Node1&#45;&gt;Node2 -->
<g id="edge1" class="edge"><title>Node1&#45;&gt;Node2</title>
<path fill="none" stroke="midnightblue" d="M153.185,-49.7653C163.309,-51.0533 173.69,-52.374 183.879,-53.6704"/>
<polygon fill="midnightblue" stroke="midnightblue" points="153.525,-46.2804 143.163,-48.4903 152.642,-53.2244 153.525,-46.2804"/>
</g>
<!-- Node3 -->
<g id="node3" class="node"><title>Node3</title>
<g id="a_node3"><a xlink:href="classCParameterMgrPlatformConnector.html#ad7c0df8d1b3db61efba09222ec443e14" target="_top" xlink:title="Should start fail in failed settings load. ">
<polygon fill="white" stroke="black" points="179,-0.5 179,-30.5 361,-30.5 361,-0.5 179,-0.5"/>
<text text-anchor="start" x="187" y="-18.5" font-family="Verdana" font-size="10.00">CParameterMgrPlatformConnector</text>
<text text-anchor="middle" x="270" y="-7.5" font-family="Verdana" font-size="10.00">::setFailureOnFailedSettingsLoad</text>
</a>
</g>
</g>
<!-- Node1&#45;&gt;Node3 -->
<g id="edge2" class="edge"><title>Node1&#45;&gt;Node3</title>
<path fill="none" stroke="midnightblue" d="M153.304,-29.6309C161.702,-28.6051 170.277,-27.5578 178.771,-26.5204"/>
<polygon fill="midnightblue" stroke="midnightblue" points="152.665,-26.1827 143.163,-30.8694 153.514,-33.1311 152.665,-26.1827"/>
</g>
</g>
</svg>
