<?xml version="1.0" encoding="UTF-8" standalone="no"?>
<!DOCTYPE svg PUBLIC "-//W3C//DTD SVG 1.1//EN"
 "http://www.w3.org/Graphics/SVG/1.1/DTD/svg11.dtd">
<!-- Generated by graphviz version 2.38.0 (20140413.2041)
 -->
<!-- Title: CBaseParameter::appendParameterPathToError Pages: 1 -->
<svg width="398pt" height="154pt"
 viewBox="0.00 0.00 398.00 154.00" xmlns="http://www.w3.org/2000/svg" xmlns:xlink="http://www.w3.org/1999/xlink">
<g id="graph0" class="graph" transform="scale(1 1) rotate(0) translate(4 150)">
<title>CBaseParameter::appendParameterPathToError</title>
<polygon fill="white" stroke="none" points="-4,4 -4,-150 394,-150 394,4 -4,4"/>
<!-- Node1 -->
<g id="node1" class="node"><title>Node1</title>
<polygon fill="#bfbfbf" stroke="black" points="0,-55 0,-85 190,-85 190,-55 0,-55"/>
<text text-anchor="start" x="8" y="-73" font-family="Verdana" font-size="10.00">CBaseParameter::appendParameter</text>
<text text-anchor="middle" x="95" y="-62" font-family="Verdana" font-size="10.00">PathToError</text>
</g>
<!-- Node2 -->
<g id="node2" class="node"><title>Node2</title>
<g id="a_node2"><a xlink:href="classCArrayParameter.html#a07b3af958a03b2295be159f69b22d42d" target="_top" xlink:title="CArrayParameter::accessValue">
<polygon fill="white" stroke="black" points="226,-126.5 226,-145.5 390,-145.5 390,-126.5 226,-126.5"/>
<text text-anchor="middle" x="308" y="-133.5" font-family="Verdana" font-size="10.00">CArrayParameter::accessValue</text>
</a>
</g>
</g>
<!-- Node1&#45;&gt;Node2 -->
<g id="edge1" class="edge"><title>Node1&#45;&gt;Node2</title>
<path fill="none" stroke="midnightblue" d="M143.404,-88.6432C167.848,-97.8712 198.277,-108.767 226,-117 237.631,-120.454 250.35,-123.687 262.191,-126.472"/>
<polygon fill="midnightblue" stroke="midnightblue" points="144.597,-85.3525 134.006,-85.0666 142.108,-91.8947 144.597,-85.3525"/>
</g>
<!-- Node3 -->
<g id="node3" class="node"><title>Node3</title>
<g id="a_node3"><a xlink:href="classCBaseParameter.html#a97e096908df72fa729a62c3f5c362ddd" target="_top" xlink:title="CBaseParameter::serialize\lXmlSettings">
<polygon fill="white" stroke="black" points="236.5,-77 236.5,-107 379.5,-107 379.5,-77 236.5,-77"/>
<text text-anchor="start" x="244.5" y="-95" font-family="Verdana" font-size="10.00">CBaseParameter::serialize</text>
<text text-anchor="middle" x="308" y="-84" font-family="Verdana" font-size="10.00">XmlSettings</text>
</a>
</g>
</g>
<!-- Node1&#45;&gt;Node3 -->
<g id="edge2" class="edge"><title>Node1&#45;&gt;Node3</title>
<path fill="none" stroke="midnightblue" d="M200.286,-80.8734C212.455,-82.1422 224.645,-83.4132 236.209,-84.6189"/>
<polygon fill="midnightblue" stroke="midnightblue" points="200.393,-77.3657 190.084,-79.8097 199.667,-84.3279 200.393,-77.3657"/>
</g>
<!-- Node4 -->
<g id="node4" class="node"><title>Node4</title>
<g id="a_node4"><a xlink:href="classCBaseParameter.html#aa0367b428dcd868c67f34989bb101020" target="_top" xlink:title="CBaseParameter::access">
<polygon fill="white" stroke="black" points="239.5,-38.5 239.5,-57.5 376.5,-57.5 376.5,-38.5 239.5,-38.5"/>
<text text-anchor="middle" x="308" y="-45.5" font-family="Verdana" font-size="10.00">CBaseParameter::access</text>
</a>
</g>
</g>
<!-- Node1&#45;&gt;Node4 -->
<g id="edge3" class="edge"><title>Node1&#45;&gt;Node4</title>
<path fill="none" stroke="midnightblue" d="M200.229,-59.1325C213.521,-57.7466 226.84,-56.3579 239.342,-55.0544"/>
<polygon fill="midnightblue" stroke="midnightblue" points="199.667,-55.6721 190.084,-60.1903 200.393,-62.6343 199.667,-55.6721"/>
</g>
<!-- Node5 -->
<g id="node5" class="node"><title>Node5</title>
<g id="a_node5"><a xlink:href="classCBitParameter.html#a830225eeed4e53e72bcd04bb62a2e8fb" target="_top" xlink:title="Value access. ">
<polygon fill="white" stroke="black" points="245.5,-0.5 245.5,-19.5 370.5,-19.5 370.5,-0.5 245.5,-0.5"/>
<text text-anchor="middle" x="308" y="-7.5" font-family="Verdana" font-size="10.00">CBitParameter::access</text>
</a>
</g>
</g>
<!-- Node1&#45;&gt;Node5 -->
<g id="edge4" class="edge"><title>Node1&#45;&gt;Node5</title>
<path fill="none" stroke="midnightblue" d="M150.522,-51.8016C173.678,-44.3343 201.04,-35.8531 226,-29 238.118,-25.6729 251.355,-22.4128 263.55,-19.5584"/>
<polygon fill="midnightblue" stroke="midnightblue" points="149.307,-48.5163 140.876,-54.9321 151.468,-55.1745 149.307,-48.5163"/>
</g>
</g>
</svg>
