<?xml version="1.0" encoding="UTF-8" standalone="no"?>
<!DOCTYPE svg PUBLIC "-//W3C//DTD SVG 1.1//EN"
 "http://www.w3.org/Graphics/SVG/1.1/DTD/svg11.dtd">
<!-- Generated by graphviz version 2.38.0 (20140413.2041)
 -->
<!-- Title: CConfigurableDomain::validate Pages: 1 -->
<svg width="982pt" height="137pt"
 viewBox="0.00 0.00 982.00 137.00" xmlns="http://www.w3.org/2000/svg" xmlns:xlink="http://www.w3.org/1999/xlink">
<g id="graph0" class="graph" transform="scale(1 1) rotate(0) translate(4 133)">
<title>CConfigurableDomain::validate</title>
<polygon fill="white" stroke="none" points="-4,4 -4,-133 978,-133 978,4 -4,4"/>
<!-- Node1 -->
<g id="node1" class="node"><title>Node1</title>
<polygon fill="#bfbfbf" stroke="black" points="0,-27.5 0,-57.5 121,-57.5 121,-27.5 0,-27.5"/>
<text text-anchor="start" x="8" y="-45.5" font-family="Verdana" font-size="10.00">CConfigurableDomain</text>
<text text-anchor="middle" x="60.5" y="-34.5" font-family="Verdana" font-size="10.00">::validate</text>
</g>
<!-- Node2 -->
<g id="node2" class="node"><title>Node2</title>
<g id="a_node2"><a xlink:href="classCConfigurableDomains.html#a6fd812eea1fd18c0d4fa14ec33b57fd5" target="_top" xlink:title="CConfigurableDomains\l::validate">
<polygon fill="white" stroke="black" points="157,-27.5 157,-57.5 283,-57.5 283,-27.5 157,-27.5"/>
<text text-anchor="start" x="165" y="-45.5" font-family="Verdana" font-size="10.00">CConfigurableDomains</text>
<text text-anchor="middle" x="220" y="-34.5" font-family="Verdana" font-size="10.00">::validate</text>
</a>
</g>
</g>
<!-- Node1&#45;&gt;Node2 -->
<g id="edge1" class="edge"><title>Node1&#45;&gt;Node2</title>
<path fill="none" stroke="midnightblue" d="M131.29,-42.5C139.769,-42.5 148.389,-42.5 156.748,-42.5"/>
<polygon fill="midnightblue" stroke="midnightblue" points="131.044,-39.0001 121.044,-42.5 131.044,-46.0001 131.044,-39.0001"/>
</g>
<!-- Node3 -->
<g id="node3" class="node"><title>Node3</title>
<g id="a_node3"><a xlink:href="classCParameterMgr.html#aad4830a40d67cfae091cbf1a15ff29d0" target="_top" xlink:title="Load plugins, structures and settings from the config file given. ">
<polygon fill="white" stroke="black" points="355,-55 355,-74 473,-74 473,-55 355,-55"/>
<text text-anchor="middle" x="414" y="-62" font-family="Verdana" font-size="10.00">CParameterMgr::load</text>
</a>
</g>
</g>
<!-- Node2&#45;&gt;Node3 -->
<g id="edge2" class="edge"><title>Node2&#45;&gt;Node3</title>
<path fill="none" stroke="midnightblue" d="M293.216,-50.7747C313.523,-53.1016 335.346,-55.6022 354.729,-57.8231"/>
<polygon fill="midnightblue" stroke="midnightblue" points="293.405,-47.2736 283.072,-49.6124 292.608,-54.2281 293.405,-47.2736"/>
</g>
<!-- Node8 -->
<g id="node8" class="node"><title>Node8</title>
<g id="a_node8"><a xlink:href="classCParameterMgr.html#ac2a3211a14a825e94e0090a9ad0e4c57" target="_top" xlink:title="Method that imports Configurable Domains from an Xml source. ">
<polygon fill="white" stroke="black" points="319,-12 319,-31 509,-31 509,-12 319,-12"/>
<text text-anchor="middle" x="414" y="-19" font-family="Verdana" font-size="10.00">CParameterMgr::importDomainsXml</text>
</a>
</g>
</g>
<!-- Node2&#45;&gt;Node8 -->
<g id="edge7" class="edge"><title>Node2&#45;&gt;Node8</title>
<path fill="none" stroke="midnightblue" d="M293.189,-34.6043C303.897,-33.4332 315.026,-32.216 325.996,-31.016"/>
<polygon fill="midnightblue" stroke="midnightblue" points="292.632,-31.1443 283.072,-35.7109 293.393,-38.1028 292.632,-31.1443"/>
</g>
<!-- Node4 -->
<g id="node4" class="node"><title>Node4</title>
<g id="a_node4"><a xlink:href="classCParameterMgrFullConnector.html#a60cb4e00e70c6a7b700e464d0de084ff" target="_top" xlink:title="CParameterMgrFullConnector\l::start">
<polygon fill="white" stroke="black" points="558,-98.5 558,-128.5 714,-128.5 714,-98.5 558,-98.5"/>
<text text-anchor="start" x="566" y="-116.5" font-family="Verdana" font-size="10.00">CParameterMgrFullConnector</text>
<text text-anchor="middle" x="636" y="-105.5" font-family="Verdana" font-size="10.00">::start</text>
</a>
</g>
</g>
<!-- Node3&#45;&gt;Node4 -->
<g id="edge3" class="edge"><title>Node3&#45;&gt;Node4</title>
<path fill="none" stroke="midnightblue" d="M467.501,-76.1934C497.412,-82.8554 535.214,-91.2749 567.333,-98.4287"/>
<polygon fill="midnightblue" stroke="midnightblue" points="468.201,-72.7636 457.679,-74.0058 466.679,-79.5962 468.201,-72.7636"/>
</g>
<!-- Node5 -->
<g id="node5" class="node"><title>Node5</title>
<g id="a_node5"><a xlink:href="classCParameterMgrPlatformConnector.html#a04060080b3be8780e4a7d0211fd95da7" target="_top" xlink:title="CParameterMgrPlatformConnector\l::start">
<polygon fill="white" stroke="black" points="545,-49.5 545,-79.5 727,-79.5 727,-49.5 545,-49.5"/>
<text text-anchor="start" x="553" y="-67.5" font-family="Verdana" font-size="10.00">CParameterMgrPlatformConnector</text>
<text text-anchor="middle" x="636" y="-56.5" font-family="Verdana" font-size="10.00">::start</text>
</a>
</g>
</g>
<!-- Node3&#45;&gt;Node5 -->
<g id="edge4" class="edge"><title>Node3&#45;&gt;Node5</title>
<path fill="none" stroke="midnightblue" d="M483.328,-64.5C502.713,-64.5 524.123,-64.5 544.597,-64.5"/>
<polygon fill="midnightblue" stroke="midnightblue" points="483.09,-61.0001 473.09,-64.5 483.09,-68.0001 483.09,-61.0001"/>
</g>
<!-- Node6 -->
<g id="node6" class="node"><title>Node6</title>
<g id="a_node6"><a xlink:href="ParameterFramework_8cpp.html#a44326e09ebb9719ecb017d1d67832b6f" target="_top" xlink:title="pfwStart">
<polygon fill="white" stroke="black" points="763,-55 763,-74 819,-74 819,-55 763,-55"/>
<text text-anchor="middle" x="791" y="-62" font-family="Verdana" font-size="10.00">pfwStart</text>
</a>
</g>
</g>
<!-- Node5&#45;&gt;Node6 -->
<g id="edge5" class="edge"><title>Node5&#45;&gt;Node6</title>
<path fill="none" stroke="midnightblue" d="M737.494,-64.5C746.703,-64.5 755.397,-64.5 762.96,-64.5"/>
<polygon fill="midnightblue" stroke="midnightblue" points="737.328,-61.0001 727.328,-64.5 737.328,-68.0001 737.328,-61.0001"/>
</g>
<!-- Node7 -->
<g id="node7" class="node"><title>Node7</title>
<g id="a_node7"><a xlink:href="Test_8cpp.html#ae78f4780e83e5f2b9721a2d66c70fec9" target="_top" xlink:title="TEST_CASE_METHOD">
<polygon fill="white" stroke="black" points="855,-55 855,-74 974,-74 974,-55 855,-55"/>
<text text-anchor="middle" x="914.5" y="-62" font-family="Verdana" font-size="10.00">TEST_CASE_METHOD</text>
</a>
</g>
</g>
<!-- Node6&#45;&gt;Node7 -->
<g id="edge6" class="edge"><title>Node6&#45;&gt;Node7</title>
<path fill="none" stroke="midnightblue" d="M829.342,-64.5C837.329,-64.5 845.954,-64.5 854.531,-64.5"/>
<polygon fill="midnightblue" stroke="midnightblue" points="829.267,-61.0001 819.267,-64.5 829.267,-68.0001 829.267,-61.0001"/>
</g>
<!-- Node9 -->
<g id="node9" class="node"><title>Node9</title>
<g id="a_node9"><a xlink:href="classCParameterMgrFullConnector.html#aabfcc64867c0d79840b5fdfd6efaf4fa" target="_top" xlink:title="Method that imports Configurable Domains from an Xml source. ">
<polygon fill="white" stroke="black" points="558,-0.5 558,-30.5 714,-30.5 714,-0.5 558,-0.5"/>
<text text-anchor="start" x="566" y="-18.5" font-family="Verdana" font-size="10.00">CParameterMgrFullConnector</text>
<text text-anchor="middle" x="636" y="-7.5" font-family="Verdana" font-size="10.00">::importDomainsXml</text>
</a>
</g>
</g>
<!-- Node8&#45;&gt;Node9 -->
<g id="edge8" class="edge"><title>Node8&#45;&gt;Node9</title>
<path fill="none" stroke="midnightblue" d="M519.564,-18.6482C532.46,-18.2966 545.455,-17.9421 557.839,-17.6044"/>
<polygon fill="midnightblue" stroke="midnightblue" points="519.158,-15.1579 509.257,-18.9293 519.349,-22.1553 519.158,-15.1579"/>
</g>
</g>
</svg>
