<?xml version="1.0" encoding="UTF-8" standalone="no"?>
<!DOCTYPE svg PUBLIC "-//W3C//DTD SVG 1.1//EN"
 "http://www.w3.org/Graphics/SVG/1.1/DTD/svg11.dtd">
<!-- Generated by graphviz version 2.38.0 (20140413.2041)
 -->
<!-- Title: BackgroundRemoteProcessorServer::stop Pages: 1 -->
<svg width="405pt" height="50pt"
 viewBox="0.00 0.00 405.00 50.00" xmlns="http://www.w3.org/2000/svg" xmlns:xlink="http://www.w3.org/1999/xlink">
<g id="graph0" class="graph" transform="scale(1 1) rotate(0) translate(4 46)">
<title>BackgroundRemoteProcessorServer::stop</title>
<polygon fill="white" stroke="none" points="-4,4 -4,-46 401,-46 401,4 -4,4"/>
<!-- Node1 -->
<g id="node1" class="node"><title>Node1</title>
<polygon fill="#bfbfbf" stroke="black" points="0,-6 0,-36 158,-36 158,-6 0,-6"/>
<text text-anchor="start" x="8" y="-24" font-family="Verdana" font-size="10.00">BackgroundRemoteProcessor</text>
<text text-anchor="middle" x="79" y="-13" font-family="Verdana" font-size="10.00">Server::stop</text>
</g>
<!-- Node2 -->
<g id="node2" class="node"><title>Node2</title>
<g id="a_node2"><a xlink:href="classBackgroundRemoteProcessorServer.html#a570a795b4b9f1d5215123dffced3d4e0" target="_top" xlink:title="BackgroundRemoteProcessor\lServer::~BackgroundRemoteProcessor\lServer">
<polygon fill="white" stroke="black" points="194,-0.5 194,-41.5 397,-41.5 397,-0.5 194,-0.5"/>
<text text-anchor="start" x="202" y="-29.5" font-family="Verdana" font-size="10.00">BackgroundRemoteProcessor</text>
<text text-anchor="start" x="202" y="-18.5" font-family="Verdana" font-size="10.00">Server::~BackgroundRemoteProcessor</text>
<text text-anchor="middle" x="295.5" y="-7.5" font-family="Verdana" font-size="10.00">Server</text>
</a>
</g>
</g>
<!-- Node1&#45;&gt;Node2 -->
<g id="edge1" class="edge"><title>Node1&#45;&gt;Node2</title>
<path fill="none" stroke="midnightblue" d="M168.232,-21C176.66,-21 185.25,-21 193.785,-21"/>
<polygon fill="midnightblue" stroke="midnightblue" points="168.046,-17.5001 158.046,-21 168.046,-24.5001 168.046,-17.5001"/>
</g>
</g>
</svg>
