<?xml version="1.0" encoding="UTF-8" standalone="no"?>
<!DOCTYPE svg PUBLIC "-//W3C//DTD SVG 1.1//EN"
 "http://www.w3.org/Graphics/SVG/1.1/DTD/svg11.dtd">
<!-- Generated by graphviz version 2.38.0 (20140413.2041)
 -->
<!-- Title: CParameterMgrFullConnector::setAutoSync Pages: 1 -->
<svg width="1045pt" height="183pt"
 viewBox="0.00 0.00 1045.00 182.50" xmlns="http://www.w3.org/2000/svg" xmlns:xlink="http://www.w3.org/1999/xlink">
<g id="graph0" class="graph" transform="scale(1 1) rotate(0) translate(4 178.5)">
<title>CParameterMgrFullConnector::setAutoSync</title>
<polygon fill="white" stroke="none" points="-4,4 -4,-178.5 1041,-178.5 1041,4 -4,4"/>
<!-- Node1 -->
<g id="node1" class="node"><title>Node1</title>
<polygon fill="#bfbfbf" stroke="black" points="0,-33 0,-63 156,-63 156,-33 0,-33"/>
<text text-anchor="start" x="8" y="-51" font-family="Verdana" font-size="10.00">CParameterMgrFullConnector</text>
<text text-anchor="middle" x="78" y="-40" font-family="Verdana" font-size="10.00">::setAutoSync</text>
</g>
<!-- Node2 -->
<g id="node2" class="node"><title>Node2</title>
<g id="a_node2"><a xlink:href="classCParameterMgr.html#acdcc1016dc61898195e8855979803572" target="_top" xlink:title="Sync. ">
<polygon fill="white" stroke="black" points="192,-38.5 192,-57.5 350,-57.5 350,-38.5 192,-38.5"/>
<text text-anchor="middle" x="271" y="-45.5" font-family="Verdana" font-size="10.00">CParameterMgr::setAutoSync</text>
</a>
</g>
</g>
<!-- Node1&#45;&gt;Node2 -->
<g id="edge1" class="edge"><title>Node1&#45;&gt;Node2</title>
<path fill="none" stroke="midnightblue" d="M156.136,-48C164.62,-48 173.304,-48 181.908,-48"/>
<polygon fill="midnightblue" stroke="midnightblue" points="181.954,-51.5001 191.954,-48 181.954,-44.5001 181.954,-51.5001"/>
</g>
<!-- Node3 -->
<g id="node3" class="node"><title>Node3</title>
<g id="a_node3"><a xlink:href="classCParameterMgr.html#a3c23f1ef6dbe73de230fe429af194937" target="_top" xlink:title="CParameterMgr::sync">
<polygon fill="white" stroke="black" points="386,-38.5 386,-57.5 505,-57.5 505,-38.5 386,-38.5"/>
<text text-anchor="middle" x="445.5" y="-45.5" font-family="Verdana" font-size="10.00">CParameterMgr::sync</text>
</a>
</g>
</g>
<!-- Node2&#45;&gt;Node3 -->
<g id="edge2" class="edge"><title>Node2&#45;&gt;Node3</title>
<path fill="none" stroke="midnightblue" d="M350.175,-48C358.73,-48 367.393,-48 375.822,-48"/>
<polygon fill="midnightblue" stroke="midnightblue" points="375.964,-51.5001 385.964,-48 375.964,-44.5001 375.964,-51.5001"/>
</g>
<!-- Node4 -->
<g id="node4" class="node"><title>Node4</title>
<g id="a_node4"><a xlink:href="classCConfigurableElement.html#a0b3d6d2477e5ea7c23905604fabdb7bf" target="_top" xlink:title="CConfigurableElement\l::fillSyncerSet">
<polygon fill="white" stroke="black" points="541,-77 541,-107 664,-107 664,-77 541,-77"/>
<text text-anchor="start" x="549" y="-95" font-family="Verdana" font-size="10.00">CConfigurableElement</text>
<text text-anchor="middle" x="602.5" y="-84" font-family="Verdana" font-size="10.00">::fillSyncerSet</text>
</a>
</g>
</g>
<!-- Node3&#45;&gt;Node4 -->
<g id="edge3" class="edge"><title>Node3&#45;&gt;Node4</title>
<path fill="none" stroke="midnightblue" d="M480.133,-57.5473C497.272,-62.4128 518.68,-68.4898 538.724,-74.1796"/>
<polygon fill="midnightblue" stroke="midnightblue" points="537.853,-77.5707 548.429,-76.9346 539.765,-70.8368 537.853,-77.5707"/>
</g>
<!-- Node10 -->
<g id="node10" class="node"><title>Node10</title>
<g id="a_node10"><a xlink:href="classCSyncerSet.html#a8f8381b520a758f49ba8013c5cb8c7b5" target="_top" xlink:title="Sync the blackboard. ">
<polygon fill="white" stroke="black" points="552,-38.5 552,-57.5 653,-57.5 653,-38.5 552,-38.5"/>
<text text-anchor="middle" x="602.5" y="-45.5" font-family="Verdana" font-size="10.00">CSyncerSet::sync</text>
</a>
</g>
</g>
<!-- Node3&#45;&gt;Node10 -->
<g id="edge10" class="edge"><title>Node3&#45;&gt;Node10</title>
<path fill="none" stroke="midnightblue" d="M505.099,-48C517.034,-48 529.606,-48 541.586,-48"/>
<polygon fill="midnightblue" stroke="midnightblue" points="541.931,-51.5001 551.931,-48 541.931,-44.5001 541.931,-51.5001"/>
</g>
<!-- Node12 -->
<g id="node12" class="node"><title>Node12</title>
<g id="a_node12"><a xlink:href="namespaceutility.html#a3fb85a4dbd0307733f0dda49811db6d1" target="_top" xlink:title="Format the items of a map into a string as a list of key&#45;value pairs. ">
<polygon fill="white" stroke="black" points="559,-0.5 559,-19.5 646,-19.5 646,-0.5 559,-0.5"/>
<text text-anchor="middle" x="602.5" y="-7.5" font-family="Verdana" font-size="10.00">utility::asString</text>
</a>
</g>
</g>
<!-- Node3&#45;&gt;Node12 -->
<g id="edge12" class="edge"><title>Node3&#45;&gt;Node12</title>
<path fill="none" stroke="midnightblue" d="M485.613,-38.411C505.975,-33.4191 531.066,-27.2676 552.689,-21.9666"/>
<polygon fill="midnightblue" stroke="midnightblue" points="553.789,-25.3006 562.668,-19.5201 552.122,-18.5019 553.789,-25.3006"/>
</g>
<!-- Node5 -->
<g id="node5" class="node"><title>Node5</title>
<g id="a_node5"><a xlink:href="classCConfigurableElement.html#ace18ab1044203825e43ce44126c9322d" target="_top" xlink:title="CConfigurableElement\l::getSyncer">
<polygon fill="white" stroke="black" points="720.5,-144 720.5,-174 843.5,-174 843.5,-144 720.5,-144"/>
<text text-anchor="start" x="728.5" y="-162" font-family="Verdana" font-size="10.00">CConfigurableElement</text>
<text text-anchor="middle" x="782" y="-151" font-family="Verdana" font-size="10.00">::getSyncer</text>
</a>
</g>
</g>
<!-- Node4&#45;&gt;Node5 -->
<g id="edge4" class="edge"><title>Node4&#45;&gt;Node5</title>
<path fill="none" stroke="midnightblue" d="M635.741,-107.103C654.322,-115.536 678.242,-125.936 700,-134 706.305,-136.337 712.939,-138.636 719.584,-140.836"/>
<polygon fill="midnightblue" stroke="midnightblue" points="718.699,-144.228 729.291,-143.982 720.857,-137.569 718.699,-144.228"/>
</g>
<!-- Node7 -->
<g id="node7" class="node"><title>Node7</title>
<g id="a_node7"><a xlink:href="classCConfigurableElement.html#a9f29ba1f8a319c22896deda2cf826e78" target="_top" xlink:title="CConfigurableElement\l::fillSyncerSetFromDescendant">
<polygon fill="white" stroke="black" points="700,-77 700,-107 864,-107 864,-77 700,-77"/>
<text text-anchor="start" x="708" y="-95" font-family="Verdana" font-size="10.00">CConfigurableElement</text>
<text text-anchor="middle" x="782" y="-84" font-family="Verdana" font-size="10.00">::fillSyncerSetFromDescendant</text>
</a>
</g>
</g>
<!-- Node4&#45;&gt;Node7 -->
<g id="edge6" class="edge"><title>Node4&#45;&gt;Node7</title>
<path fill="none" stroke="midnightblue" d="M664.089,-92C672.39,-92 681.058,-92 689.758,-92"/>
<polygon fill="midnightblue" stroke="midnightblue" points="689.965,-95.5001 699.965,-92 689.965,-88.5001 689.965,-95.5001"/>
</g>
<!-- Node6 -->
<g id="node6" class="node"><title>Node6</title>
<g id="a_node6"><a xlink:href="classCElement.html#a7987056bec3cbc71bed07cc88b060cf0" target="_top" xlink:title="CElement::getParent">
<polygon fill="white" stroke="black" points="910.5,-149.5 910.5,-168.5 1026.5,-168.5 1026.5,-149.5 910.5,-149.5"/>
<text text-anchor="middle" x="968.5" y="-156.5" font-family="Verdana" font-size="10.00">CElement::getParent</text>
</a>
</g>
</g>
<!-- Node5&#45;&gt;Node6 -->
<g id="edge5" class="edge"><title>Node5&#45;&gt;Node6</title>
<path fill="none" stroke="midnightblue" d="M843.668,-159C861.746,-159 881.664,-159 900.142,-159"/>
<polygon fill="midnightblue" stroke="midnightblue" points="900.239,-162.5 910.239,-159 900.239,-155.5 900.239,-162.5"/>
</g>
<!-- Node7&#45;&gt;Node7 -->
<g id="edge9" class="edge"><title>Node7&#45;&gt;Node7</title>
<path fill="none" stroke="midnightblue" d="M750.98,-107.159C743.5,-116.557 753.84,-125.5 782,-125.5 799.16,-125.5 809.703,-122.179 813.628,-117.458"/>
<polygon fill="midnightblue" stroke="midnightblue" points="817.104,-116.935 813.02,-107.159 810.116,-117.348 817.104,-116.935"/>
</g>
<!-- Node8 -->
<g id="node8" class="node"><title>Node8</title>
<g id="a_node8"><a xlink:href="classCElement.html#a58b6cdb5715497442fde6afa1e65f8e5" target="_top" xlink:title="CElement::getNbChildren">
<polygon fill="white" stroke="black" points="900,-97.5 900,-116.5 1037,-116.5 1037,-97.5 900,-97.5"/>
<text text-anchor="middle" x="968.5" y="-104.5" font-family="Verdana" font-size="10.00">CElement::getNbChildren</text>
</a>
</g>
</g>
<!-- Node7&#45;&gt;Node8 -->
<g id="edge7" class="edge"><title>Node7&#45;&gt;Node8</title>
<path fill="none" stroke="midnightblue" d="M864.193,-98.601C872.647,-99.2884 881.227,-99.9859 889.643,-100.67"/>
<polygon fill="midnightblue" stroke="midnightblue" points="889.557,-104.175 899.807,-101.497 890.124,-97.1976 889.557,-104.175"/>
</g>
<!-- Node9 -->
<g id="node9" class="node"><title>Node9</title>
<g id="a_node9"><a xlink:href="classCElement.html#aee0d626525e9cd24d7639b6365afdc16" target="_top" xlink:title="Get a child element (const) ">
<polygon fill="white" stroke="black" points="914.5,-59.5 914.5,-78.5 1022.5,-78.5 1022.5,-59.5 914.5,-59.5"/>
<text text-anchor="middle" x="968.5" y="-66.5" font-family="Verdana" font-size="10.00">CElement::getChild</text>
</a>
</g>
</g>
<!-- Node7&#45;&gt;Node9 -->
<g id="edge8" class="edge"><title>Node7&#45;&gt;Node9</title>
<path fill="none" stroke="midnightblue" d="M864.193,-81.8784C877.619,-80.2047 891.362,-78.4914 904.263,-76.8833"/>
<polygon fill="midnightblue" stroke="midnightblue" points="904.915,-80.329 914.406,-75.6188 904.049,-73.3828 904.915,-80.329"/>
</g>
<!-- Node11 -->
<g id="node11" class="node"><title>Node11</title>
<g id="a_node11"><a xlink:href="classISyncer.html#a16844aac52fb0caf4aed4f68d4b038d9" target="_top" xlink:title="ISyncer::sync">
<polygon fill="white" stroke="black" points="742,-38.5 742,-57.5 822,-57.5 822,-38.5 742,-38.5"/>
<text text-anchor="middle" x="782" y="-45.5" font-family="Verdana" font-size="10.00">ISyncer::sync</text>
</a>
</g>
</g>
<!-- Node10&#45;&gt;Node11 -->
<g id="edge11" class="edge"><title>Node10&#45;&gt;Node11</title>
<path fill="none" stroke="midnightblue" d="M653.416,-48C677.91,-48 707.32,-48 731.727,-48"/>
<polygon fill="midnightblue" stroke="midnightblue" points="731.852,-51.5001 741.852,-48 731.852,-44.5001 731.852,-51.5001"/>
</g>
</g>
</svg>
