<?xml version="1.0" encoding="UTF-8" standalone="no"?>
<!DOCTYPE svg PUBLIC "-//W3C//DTD SVG 1.1//EN"
 "http://www.w3.org/Graphics/SVG/1.1/DTD/svg11.dtd">
<!-- Generated by graphviz version 2.36.0 (20140111.2315)
 -->
<!-- Title: CIntegerParameterType::fromXml Pages: 1 -->
<svg width="326pt" height="66pt"
 viewBox="0.00 0.00 326.00 66.00" xmlns="http://www.w3.org/2000/svg" xmlns:xlink="http://www.w3.org/1999/xlink">
<g id="graph0" class="graph" transform="scale(1 1) rotate(0) translate(4 62)">
<title>CIntegerParameterType::fromXml</title>
<polygon fill="white" stroke="none" points="-4,4 -4,-62 322,-62 322,4 -4,4"/>
<!-- Node1 -->
<g id="node1" class="node"><title>Node1</title>
<polygon fill="#bfbfbf" stroke="black" points="0,-14 0,-44 128,-44 128,-14 0,-14"/>
<text text-anchor="start" x="8" y="-32" font-family="Verdana" font-size="10.00">CIntegerParameterType</text>
<text text-anchor="middle" x="64" y="-21" font-family="Verdana" font-size="10.00">::fromXml</text>
</g>
<!-- Node2 -->
<g id="node2" class="node"><title>Node2</title>
<g id="a_node2"><a xlink:href="classCParameterType.html#a001697bcc5a0c57d1e8021cd3898313a" target="_top" xlink:title="CParameterType::setSize">
<polygon fill="white" stroke="black" points="173,-38.5 173,-57.5 309,-57.5 309,-38.5 173,-38.5"/>
<text text-anchor="middle" x="241" y="-45.5" font-family="Verdana" font-size="10.00">CParameterType::setSize</text>
</a>
</g>
</g>
<!-- Node1&#45;&gt;Node2 -->
<g id="edge1" class="edge"><title>Node1&#45;&gt;Node2</title>
<path fill="none" stroke="midnightblue" d="M128.179,-35.8594C139.386,-37.0762 151.171,-38.3557 162.716,-39.6091"/>
<polygon fill="midnightblue" stroke="midnightblue" points="162.459,-43.1017 172.778,-40.7017 163.215,-36.1426 162.459,-43.1017"/>
</g>
<!-- Node3 -->
<g id="node3" class="node"><title>Node3</title>
<g id="a_node3"><a xlink:href="classCParameterType.html#ac32b37965ef213b6a8df9656b37596df" target="_top" xlink:title="Sign extension (32 bits) ">
<polygon fill="white" stroke="black" points="164.5,-0.5 164.5,-19.5 317.5,-19.5 317.5,-0.5 164.5,-0.5"/>
<text text-anchor="middle" x="241" y="-7.5" font-family="Verdana" font-size="10.00">CParameterType::signExtend</text>
</a>
</g>
</g>
<!-- Node1&#45;&gt;Node3 -->
<g id="edge2" class="edge"><title>Node1&#45;&gt;Node3</title>
<path fill="none" stroke="midnightblue" d="M128.179,-22.1406C136.715,-21.2138 145.586,-20.2506 154.431,-19.2903"/>
<polygon fill="midnightblue" stroke="midnightblue" points="154.824,-22.7684 164.387,-18.2094 154.068,-15.8093 154.824,-22.7684"/>
</g>
</g>
</svg>
