<?xml version="1.0" encoding="UTF-8" standalone="no"?>
<!DOCTYPE svg PUBLIC "-//W3C//DTD SVG 1.1//EN"
 "http://www.w3.org/Graphics/SVG/1.1/DTD/svg11.dtd">
<!-- Generated by graphviz version 2.38.0 (20140413.2041)
 -->
<!-- Title: CConfigurableDomain::removeConfigurableElement Pages: 1 -->
<svg width="317pt" height="84pt"
 viewBox="0.00 0.00 317.00 84.00" xmlns="http://www.w3.org/2000/svg" xmlns:xlink="http://www.w3.org/1999/xlink">
<g id="graph0" class="graph" transform="scale(1 1) rotate(0) translate(4 80)">
<title>CConfigurableDomain::removeConfigurableElement</title>
<polygon fill="white" stroke="none" points="-4,4 -4,-80 313,-80 313,4 -4,4"/>
<!-- Node1 -->
<g id="node1" class="node"><title>Node1</title>
<polygon fill="#bfbfbf" stroke="black" points="0,-14 0,-44 159,-44 159,-14 0,-14"/>
<text text-anchor="start" x="8" y="-32" font-family="Verdana" font-size="10.00">CConfigurableDomain</text>
<text text-anchor="middle" x="79.5" y="-21" font-family="Verdana" font-size="10.00">::removeConfigurableElement</text>
</g>
<!-- Node2 -->
<g id="node2" class="node"><title>Node2</title>
<g id="a_node2"><a xlink:href="classCElement.html#a7022c0fc8063f0aae9d97b06e74d4ac1" target="_top" xlink:title="CElement::getPath">
<polygon fill="white" stroke="black" points="199,-38.5 199,-57.5 305,-57.5 305,-38.5 199,-38.5"/>
<text text-anchor="middle" x="252" y="-45.5" font-family="Verdana" font-size="10.00">CElement::getPath</text>
</a>
</g>
</g>
<!-- Node1&#45;&gt;Node2 -->
<g id="edge1" class="edge"><title>Node1&#45;&gt;Node2</title>
<path fill="none" stroke="midnightblue" d="M159.262,-37.777C169.13,-38.8766 179.114,-39.9893 188.682,-41.0555"/>
<polygon fill="midnightblue" stroke="midnightblue" points="188.55,-44.5624 198.876,-42.1915 189.325,-37.6054 188.55,-44.5624"/>
</g>
<!-- Node3 -->
<g id="node3" class="node"><title>Node3</title>
<g id="a_node3"><a xlink:href="classCElement.html#a49581fb6412e29e932962acd82d52d6a" target="_top" xlink:title="CElement::getName">
<polygon fill="white" stroke="black" points="195,-0.5 195,-19.5 309,-19.5 309,-0.5 195,-0.5"/>
<text text-anchor="middle" x="252" y="-7.5" font-family="Verdana" font-size="10.00">CElement::getName</text>
</a>
</g>
</g>
<!-- Node1&#45;&gt;Node3 -->
<g id="edge3" class="edge"><title>Node1&#45;&gt;Node3</title>
<path fill="none" stroke="midnightblue" d="M159.262,-20.223C167.822,-19.2691 176.471,-18.3053 184.859,-17.3706"/>
<polygon fill="midnightblue" stroke="midnightblue" points="185.387,-20.8335 194.938,-16.2474 184.611,-13.8766 185.387,-20.8335"/>
</g>
<!-- Node2&#45;&gt;Node2 -->
<g id="edge2" class="edge"><title>Node2&#45;&gt;Node2</title>
<path fill="none" stroke="midnightblue" d="M225.49,-57.7571C212.593,-66.5653 221.43,-76 252,-76 272.539,-76 283.268,-71.741 284.186,-66.2746"/>
<polygon fill="midnightblue" stroke="midnightblue" points="286.968,-64.1381 278.51,-57.7571 281.143,-68.0197 286.968,-64.1381"/>
</g>
</g>
</svg>
