<?xml version="1.0" encoding="UTF-8" standalone="no"?>
<!DOCTYPE svg PUBLIC "-//W3C//DTD SVG 1.1//EN"
 "http://www.w3.org/Graphics/SVG/1.1/DTD/svg11.dtd">
<!-- Generated by graphviz version 2.38.0 (20140413.2041)
 -->
<!-- Title: CParameterMgrLogger&lt; T &gt; Pages: 1 -->
<svg width="310pt" height="163pt"
 viewBox="0.00 0.00 309.50 163.00" xmlns="http://www.w3.org/2000/svg" xmlns:xlink="http://www.w3.org/1999/xlink">
<g id="graph0" class="graph" transform="scale(1 1) rotate(0) translate(4 159)">
<title>CParameterMgrLogger&lt; T &gt;</title>
<polygon fill="white" stroke="none" points="-4,4 -4,-159 305.5,-159 305.5,4 -4,4"/>
<!-- Node1 -->
<g id="node1" class="node"><title>Node1</title>
<polygon fill="#bfbfbf" stroke="black" points="34.5,-78.5 34.5,-97.5 186.5,-97.5 186.5,-78.5 34.5,-78.5"/>
<text text-anchor="middle" x="110.5" y="-85.5" font-family="Verdana" font-size="10.00">CParameterMgrLogger&lt; T &gt;</text>
</g>
<!-- Node4 -->
<g id="node4" class="node"><title>Node4</title>
<g id="a_node4"><a xlink:href="classCParameterMgrLogger.html" target="_top" xlink:title="CParameterMgrLogger\l\&lt; CParameterMgrPlatformConnector \&gt;">
<polygon fill="white" stroke="black" points="8.5,-0.5 8.5,-30.5 212.5,-30.5 212.5,-0.5 8.5,-0.5"/>
<text text-anchor="start" x="16.5" y="-18.5" font-family="Verdana" font-size="10.00">CParameterMgrLogger</text>
<text text-anchor="middle" x="110.5" y="-7.5" font-family="Verdana" font-size="10.00">&lt; CParameterMgrPlatformConnector &gt;</text>
</a>
</g>
</g>
<!-- Node1&#45;&gt;Node4 -->
<g id="edge3" class="edge"><title>Node1&#45;&gt;Node4</title>
<path fill="none" stroke="orange" stroke-dasharray="5,2" d="M110.5,-68.2362C110.5,-56.4079 110.5,-41.3829 110.5,-30.5762"/>
<polygon fill="orange" stroke="orange" points="107,-68.3553 110.5,-78.3553 114,-68.3554 107,-68.3553"/>
<text text-anchor="middle" x="206" y="-52" font-family="Verdana" font-size="10.00"> &lt; CParameterMgrPlatformConnector &gt;</text>
</g>
<!-- Node2 -->
<g id="node2" class="node"><title>Node2</title>
<g id="a_node2"><a xlink:href="classcore_1_1log_1_1ILogger.html" target="_top" xlink:title="Logger interface provided by client. ">
<polygon fill="white" stroke="black" points="0,-135.5 0,-154.5 99,-154.5 99,-135.5 0,-135.5"/>
<text text-anchor="middle" x="49.5" y="-142.5" font-family="Verdana" font-size="10.00">core::log::ILogger</text>
</a>
</g>
</g>
<!-- Node2&#45;&gt;Node1 -->
<g id="edge1" class="edge"><title>Node2&#45;&gt;Node1</title>
<path fill="none" stroke="midnightblue" d="M66.4602,-128.708C77.5433,-118.715 91.6191,-106.024 100.834,-97.7149"/>
<polygon fill="midnightblue" stroke="midnightblue" points="64.1144,-126.11 59.0312,-135.406 68.8019,-131.309 64.1144,-126.11"/>
</g>
<!-- Node3 -->
<g id="node3" class="node"><title>Node3</title>
<g id="a_node3"><a xlink:href="classutility_1_1NonCopyable.html" target="_top" xlink:title="Base class for private inheritance to make the derived class non copyable. ">
<polygon fill="white" stroke="black" points="117,-135.5 117,-154.5 228,-154.5 228,-135.5 117,-135.5"/>
<text text-anchor="middle" x="172.5" y="-142.5" font-family="Verdana" font-size="10.00">utility::NonCopyable</text>
</a>
</g>
</g>
<!-- Node3&#45;&gt;Node1 -->
<g id="edge2" class="edge"><title>Node3&#45;&gt;Node1</title>
<path fill="none" stroke="#8b1a1a" d="M155.262,-128.708C143.997,-118.715 129.69,-106.024 120.324,-97.7149"/>
<polygon fill="#8b1a1a" stroke="#8b1a1a" points="153.009,-131.388 162.812,-135.406 157.654,-126.152 153.009,-131.388"/>
</g>
</g>
</svg>
