<?xml version="1.0" encoding="UTF-8" standalone="no"?>
<!DOCTYPE svg PUBLIC "-//W3C//DTD SVG 1.1//EN"
 "http://www.w3.org/Graphics/SVG/1.1/DTD/svg11.dtd">
<!-- Generated by graphviz version 2.38.0 (20140413.2041)
 -->
<!-- Title: CBaseParameter::accessAsBoolean Pages: 1 -->
<svg width="373pt" height="66pt"
 viewBox="0.00 0.00 373.00 66.00" xmlns="http://www.w3.org/2000/svg" xmlns:xlink="http://www.w3.org/1999/xlink">
<g id="graph0" class="graph" transform="scale(1 1) rotate(0) translate(4 62)">
<title>CBaseParameter::accessAsBoolean</title>
<polygon fill="white" stroke="none" points="-4,4 -4,-62 369,-62 369,4 -4,4"/>
<!-- Node1 -->
<g id="node1" class="node"><title>Node1</title>
<polygon fill="#bfbfbf" stroke="black" points="0,-14 0,-44 149,-44 149,-14 0,-14"/>
<text text-anchor="start" x="8" y="-32" font-family="Verdana" font-size="10.00">CBaseParameter::accessAs</text>
<text text-anchor="middle" x="74.5" y="-21" font-family="Verdana" font-size="10.00">Boolean</text>
</g>
<!-- Node2 -->
<g id="node2" class="node"><title>Node2</title>
<g id="a_node2"><a xlink:href="classCParameterHandle.html#a9633a54d1119566d284f85bfbe26af3a" target="_top" xlink:title="CParameterHandle::setAsBoolean">
<polygon fill="white" stroke="black" points="185.5,-38.5 185.5,-57.5 364.5,-57.5 364.5,-38.5 185.5,-38.5"/>
<text text-anchor="middle" x="275" y="-45.5" font-family="Verdana" font-size="10.00">CParameterHandle::setAsBoolean</text>
</a>
</g>
</g>
<!-- Node1&#45;&gt;Node2 -->
<g id="edge1" class="edge"><title>Node1&#45;&gt;Node2</title>
<path fill="none" stroke="midnightblue" d="M159.2,-37.0116C167.854,-37.8399 176.669,-38.6837 185.374,-39.5169"/>
<polygon fill="midnightblue" stroke="midnightblue" points="159.42,-33.5167 149.132,-36.0479 158.753,-40.4849 159.42,-33.5167"/>
</g>
<!-- Node3 -->
<g id="node3" class="node"><title>Node3</title>
<g id="a_node3"><a xlink:href="classCParameterHandle.html#a79508645556e3081ac678040daca92a1" target="_top" xlink:title="Fetch the parameter value as a boolean. ">
<polygon fill="white" stroke="black" points="185,-0.5 185,-19.5 365,-19.5 365,-0.5 185,-0.5"/>
<text text-anchor="middle" x="275" y="-7.5" font-family="Verdana" font-size="10.00">CParameterHandle::getAsBoolean</text>
</a>
</g>
</g>
<!-- Node1&#45;&gt;Node3 -->
<g id="edge2" class="edge"><title>Node1&#45;&gt;Node3</title>
<path fill="none" stroke="midnightblue" d="M159.287,-20.9801C167.688,-20.176 176.24,-19.3574 184.695,-18.5481"/>
<polygon fill="midnightblue" stroke="midnightblue" points="158.753,-17.5151 149.132,-21.9521 159.42,-24.4833 158.753,-17.5151"/>
</g>
</g>
</svg>
