<?xml version="1.0" encoding="UTF-8" standalone="no"?>
<!DOCTYPE svg PUBLIC "-//W3C//DTD SVG 1.1//EN"
 "http://www.w3.org/Graphics/SVG/1.1/DTD/svg11.dtd">
<!-- Generated by graphviz version 2.36.0 (20140111.2315)
 -->
<!-- Title: CAreaConfiguration::save Pages: 1 -->
<svg width="278pt" height="38pt"
 viewBox="0.00 0.00 278.00 38.00" xmlns="http://www.w3.org/2000/svg" xmlns:xlink="http://www.w3.org/1999/xlink">
<g id="graph0" class="graph" transform="scale(1 1) rotate(0) translate(4 34)">
<title>CAreaConfiguration::save</title>
<polygon fill="white" stroke="none" points="-4,4 -4,-34 274,-34 274,4 -4,4"/>
<!-- Node1 -->
<g id="node1" class="node"><title>Node1</title>
<polygon fill="#bfbfbf" stroke="black" points="0,-0 0,-30 110,-30 110,-0 0,-0"/>
<text text-anchor="start" x="8" y="-18" font-family="Verdana" font-size="10.00">CAreaConfiguration</text>
<text text-anchor="middle" x="55" y="-7" font-family="Verdana" font-size="10.00">::save</text>
</g>
<!-- Node2 -->
<g id="node2" class="node"><title>Node2</title>
<g id="a_node2"><a xlink:href="classCConfigurableElement.html#a29d61e6d09ff508ebb87aea802f2704e" target="_top" xlink:title="CConfigurableElement\l::getOffset">
<polygon fill="white" stroke="black" points="146.5,-0 146.5,-30 269.5,-30 269.5,-0 146.5,-0"/>
<text text-anchor="start" x="154.5" y="-18" font-family="Verdana" font-size="10.00">CConfigurableElement</text>
<text text-anchor="middle" x="208" y="-7" font-family="Verdana" font-size="10.00">::getOffset</text>
</a>
</g>
</g>
<!-- Node1&#45;&gt;Node2 -->
<g id="edge1" class="edge"><title>Node1&#45;&gt;Node2</title>
<path fill="none" stroke="midnightblue" d="M110.088,-15C118.542,-15 127.388,-15 136.149,-15"/>
<polygon fill="midnightblue" stroke="midnightblue" points="136.367,-18.5001 146.367,-15 136.367,-11.5001 136.367,-18.5001"/>
</g>
</g>
</svg>
