<?xml version="1.0" encoding="UTF-8" standalone="no"?>
<!DOCTYPE svg PUBLIC "-//W3C//DTD SVG 1.1//EN"
 "http://www.w3.org/Graphics/SVG/1.1/DTD/svg11.dtd">
<!-- Generated by graphviz version 2.38.0 (20140413.2041)
 -->
<!-- Title: CBaseParameter::serializeXmlSettings Pages: 1 -->
<svg width="521pt" height="340pt"
 viewBox="0.00 0.00 521.00 339.50" xmlns="http://www.w3.org/2000/svg" xmlns:xlink="http://www.w3.org/1999/xlink">
<g id="graph0" class="graph" transform="scale(1 1) rotate(0) translate(4 335.5)">
<title>CBaseParameter::serializeXmlSettings</title>
<polygon fill="white" stroke="none" points="-4,4 -4,-335.5 517,-335.5 517,4 -4,4"/>
<!-- Node1 -->
<g id="node1" class="node"><title>Node1</title>
<polygon fill="#bfbfbf" stroke="black" points="0,-150 0,-180 143,-180 143,-150 0,-150"/>
<text text-anchor="start" x="8" y="-168" font-family="Verdana" font-size="10.00">CBaseParameter::serialize</text>
<text text-anchor="middle" x="71.5" y="-157" font-family="Verdana" font-size="10.00">XmlSettings</text>
</g>
<!-- Node2 -->
<g id="node2" class="node"><title>Node2</title>
<g id="a_node2"><a xlink:href="classCConfigurationAccessContext.html#ac0a975afc840488e5e82345441de56cc" target="_top" xlink:title="CConfigurationAccessContext\l::serializeOut">
<polygon fill="white" stroke="black" points="195,-301 195,-331 353,-331 353,-301 195,-301"/>
<text text-anchor="start" x="203" y="-319" font-family="Verdana" font-size="10.00">CConfigurationAccessContext</text>
<text text-anchor="middle" x="274" y="-308" font-family="Verdana" font-size="10.00">::serializeOut</text>
</a>
</g>
</g>
<!-- Node1&#45;&gt;Node2 -->
<g id="edge1" class="edge"><title>Node1&#45;&gt;Node2</title>
<path fill="none" stroke="midnightblue" d="M80.9184,-180.001C96.6283,-206.582 133.023,-261.885 179,-291 182.355,-293.124 185.887,-295.07 189.534,-296.85"/>
<polygon fill="midnightblue" stroke="midnightblue" points="188.245,-300.107 198.806,-300.947 191.074,-293.704 188.245,-300.107"/>
</g>
<!-- Node3 -->
<g id="node3" class="node"><title>Node3</title>
<g id="a_node3"><a xlink:href="classCBaseParameter.html#aba32f63221f15e369b43dbe71d0943c4" target="_top" xlink:title="CBaseParameter::doSetValue">
<polygon fill="white" stroke="black" points="195,-262.5 195,-281.5 353,-281.5 353,-262.5 195,-262.5"/>
<text text-anchor="middle" x="274" y="-269.5" font-family="Verdana" font-size="10.00">CBaseParameter::doSetValue</text>
</a>
</g>
</g>
<!-- Node1&#45;&gt;Node3 -->
<g id="edge2" class="edge"><title>Node1&#45;&gt;Node3</title>
<path fill="none" stroke="midnightblue" d="M86.0382,-180.087C104.848,-200.049 140.898,-234.829 179,-253 184.199,-255.479 189.709,-257.636 195.352,-259.511"/>
<polygon fill="midnightblue" stroke="midnightblue" points="194.356,-262.866 204.941,-262.408 196.381,-256.165 194.356,-262.866"/>
</g>
<!-- Node4 -->
<g id="node4" class="node"><title>Node4</title>
<g id="a_node4"><a xlink:href="classCXmlElement.html#af42464fc00ca5744b45346cb56b4b9e9" target="_top" xlink:title="CXmlElement::getTextContent">
<polygon fill="white" stroke="black" points="194,-224.5 194,-243.5 354,-243.5 354,-224.5 194,-224.5"/>
<text text-anchor="middle" x="274" y="-231.5" font-family="Verdana" font-size="10.00">CXmlElement::getTextContent</text>
</a>
</g>
</g>
<!-- Node1&#45;&gt;Node4 -->
<g id="edge3" class="edge"><title>Node1&#45;&gt;Node4</title>
<path fill="none" stroke="midnightblue" d="M99.7811,-180.037C120.866,-191.104 151.072,-205.77 179,-215 187.27,-217.733 196.085,-220.143 204.877,-222.247"/>
<polygon fill="midnightblue" stroke="midnightblue" points="204.237,-225.69 214.764,-224.493 205.788,-218.864 204.237,-225.69"/>
</g>
<!-- Node5 -->
<g id="node5" class="node"><title>Node5</title>
<g id="a_node5"><a xlink:href="classCConfigurableElement.html#aad502a1139a10faa1a87fd1e033e4ad4" target="_top" xlink:title="CConfigurableElement\l::getOffset">
<polygon fill="white" stroke="black" points="212.5,-175 212.5,-205 335.5,-205 335.5,-175 212.5,-175"/>
<text text-anchor="start" x="220.5" y="-193" font-family="Verdana" font-size="10.00">CConfigurableElement</text>
<text text-anchor="middle" x="274" y="-182" font-family="Verdana" font-size="10.00">::getOffset</text>
</a>
</g>
</g>
<!-- Node1&#45;&gt;Node5 -->
<g id="edge4" class="edge"><title>Node1&#45;&gt;Node5</title>
<path fill="none" stroke="midnightblue" d="M143.189,-173.814C162.303,-176.197 182.991,-178.777 202.115,-181.161"/>
<polygon fill="midnightblue" stroke="midnightblue" points="201.9,-184.662 212.257,-182.426 202.767,-177.716 201.9,-184.662"/>
</g>
<!-- Node6 -->
<g id="node6" class="node"><title>Node6</title>
<g id="a_node6"><a xlink:href="classCParameterAccessContext.html#af89af08aeec798e2e4e3a5c269722343" target="_top" xlink:title="CParameterAccessContext\l::getBaseOffset">
<polygon fill="white" stroke="black" points="201.5,-126 201.5,-156 346.5,-156 346.5,-126 201.5,-126"/>
<text text-anchor="start" x="209.5" y="-144" font-family="Verdana" font-size="10.00">CParameterAccessContext</text>
<text text-anchor="middle" x="274" y="-133" font-family="Verdana" font-size="10.00">::getBaseOffset</text>
</a>
</g>
</g>
<!-- Node1&#45;&gt;Node6 -->
<g id="edge5" class="edge"><title>Node1&#45;&gt;Node6</title>
<path fill="none" stroke="midnightblue" d="M143.189,-156.538C158.634,-154.69 175.107,-152.718 190.953,-150.821"/>
<polygon fill="midnightblue" stroke="midnightblue" points="191.744,-154.251 201.257,-149.588 190.912,-147.301 191.744,-154.251"/>
</g>
<!-- Node7 -->
<g id="node7" class="node"><title>Node7</title>
<g id="a_node7"><a xlink:href="classCBaseParameter.html#a911cbd2df0c950a79863fdd689731f88" target="_top" xlink:title="Append the parameter path to the error. ">
<polygon fill="white" stroke="black" points="179,-77 179,-107 369,-107 369,-77 179,-77"/>
<text text-anchor="start" x="187" y="-95" font-family="Verdana" font-size="10.00">CBaseParameter::appendParameter</text>
<text text-anchor="middle" x="274" y="-84" font-family="Verdana" font-size="10.00">PathToError</text>
</a>
</g>
</g>
<!-- Node1&#45;&gt;Node7 -->
<g id="edge6" class="edge"><title>Node1&#45;&gt;Node7</title>
<path fill="none" stroke="midnightblue" d="M102.715,-149.784C123.743,-139.594 152.631,-126.378 179,-117 186.025,-114.502 193.423,-112.121 200.856,-109.893"/>
<polygon fill="midnightblue" stroke="midnightblue" points="201.995,-113.207 210.62,-107.054 200.04,-106.485 201.995,-113.207"/>
</g>
<!-- Node10 -->
<g id="node10" class="node"><title>Node10</title>
<g id="a_node10"><a xlink:href="classCBaseParameter.html#afe363cf469f5cf453ea9e89ddf298a9e" target="_top" xlink:title="CBaseParameter::doGetValue">
<polygon fill="white" stroke="black" points="194.5,-38.5 194.5,-57.5 353.5,-57.5 353.5,-38.5 194.5,-38.5"/>
<text text-anchor="middle" x="274" y="-45.5" font-family="Verdana" font-size="10.00">CBaseParameter::doGetValue</text>
</a>
</g>
</g>
<!-- Node1&#45;&gt;Node10 -->
<g id="edge10" class="edge"><title>Node1&#45;&gt;Node10</title>
<path fill="none" stroke="midnightblue" d="M84.4967,-149.864C102.569,-128.16 138.951,-88.5555 179,-68 184.552,-65.1502 190.489,-62.7061 196.58,-60.6102"/>
<polygon fill="midnightblue" stroke="midnightblue" points="197.74,-63.9147 206.243,-57.5947 195.654,-57.2325 197.74,-63.9147"/>
</g>
<!-- Node11 -->
<g id="node11" class="node"><title>Node11</title>
<g id="a_node11"><a xlink:href="classCXmlElement.html#ab857990a760fb9b6640e62dbeb0a075a" target="_top" xlink:title="CXmlElement::setTextContent">
<polygon fill="white" stroke="black" points="194.5,-0.5 194.5,-19.5 353.5,-19.5 353.5,-0.5 194.5,-0.5"/>
<text text-anchor="middle" x="274" y="-7.5" font-family="Verdana" font-size="10.00">CXmlElement::setTextContent</text>
</a>
</g>
</g>
<!-- Node1&#45;&gt;Node11 -->
<g id="edge11" class="edge"><title>Node1&#45;&gt;Node11</title>
<path fill="none" stroke="midnightblue" d="M79.7263,-149.867C94.2259,-121.26 129.746,-59.3979 179,-29 182.409,-26.8959 186.008,-25.0195 189.731,-23.3466"/>
<polygon fill="midnightblue" stroke="midnightblue" points="191.195,-26.5313 199.202,-19.5934 188.616,-20.0237 191.195,-26.5313"/>
</g>
<!-- Node8 -->
<g id="node8" class="node"><title>Node8</title>
<g id="a_node8"><a xlink:href="classutility_1_1ErrorContext.html#aafe9cd30a03303cf376926d9c4e9dd02" target="_top" xlink:title="utility::ErrorContext\l::appendToError">
<polygon fill="white" stroke="black" points="405,-108 405,-138 513,-138 513,-108 405,-108"/>
<text text-anchor="start" x="413" y="-126" font-family="Verdana" font-size="10.00">utility::ErrorContext</text>
<text text-anchor="middle" x="459" y="-115" font-family="Verdana" font-size="10.00">::appendToError</text>
</a>
</g>
</g>
<!-- Node7&#45;&gt;Node8 -->
<g id="edge7" class="edge"><title>Node7&#45;&gt;Node8</title>
<path fill="none" stroke="midnightblue" d="M363.552,-107.001C374.158,-108.797 384.816,-110.603 394.957,-112.321"/>
<polygon fill="midnightblue" stroke="midnightblue" points="394.46,-115.786 404.904,-114.006 395.629,-108.885 394.46,-115.786"/>
</g>
<!-- Node9 -->
<g id="node9" class="node"><title>Node9</title>
<g id="a_node9"><a xlink:href="classCElement.html#a7022c0fc8063f0aae9d97b06e74d4ac1" target="_top" xlink:title="CElement::getPath">
<polygon fill="white" stroke="black" points="406,-51.5 406,-70.5 512,-70.5 512,-51.5 406,-51.5"/>
<text text-anchor="middle" x="459" y="-58.5" font-family="Verdana" font-size="10.00">CElement::getPath</text>
</a>
</g>
</g>
<!-- Node7&#45;&gt;Node9 -->
<g id="edge8" class="edge"><title>Node7&#45;&gt;Node9</title>
<path fill="none" stroke="midnightblue" d="M363.552,-76.9994C374.431,-75.1565 385.366,-73.304 395.741,-71.5466"/>
<polygon fill="midnightblue" stroke="midnightblue" points="396.631,-74.9457 405.906,-69.8246 395.462,-68.0441 396.631,-74.9457"/>
</g>
<!-- Node9&#45;&gt;Node9 -->
<g id="edge9" class="edge"><title>Node9&#45;&gt;Node9</title>
<path fill="none" stroke="midnightblue" d="M430.64,-70.7571C416.844,-79.5653 426.297,-89 459,-89 481.483,-89 492.978,-84.5406 493.483,-78.8913"/>
<polygon fill="midnightblue" stroke="midnightblue" points="496.17,-76.6417 487.36,-70.7571 490.577,-80.8515 496.17,-76.6417"/>
</g>
</g>
</svg>
