<?xml version="1.0" encoding="UTF-8" standalone="no"?>
<!DOCTYPE svg PUBLIC "-//W3C//DTD SVG 1.1//EN"
 "http://www.w3.org/Graphics/SVG/1.1/DTD/svg11.dtd">
<!-- Generated by graphviz version 2.38.0 (20140413.2041)
 -->
<!-- Title: CElement::setName Pages: 1 -->
<svg width="1096pt" height="116pt"
 viewBox="0.00 0.00 1096.00 115.50" xmlns="http://www.w3.org/2000/svg" xmlns:xlink="http://www.w3.org/1999/xlink">
<g id="graph0" class="graph" transform="scale(1 1) rotate(0) translate(4 111.5)">
<title>CElement::setName</title>
<polygon fill="white" stroke="none" points="-4,4 -4,-111.5 1092,-111.5 1092,4 -4,4"/>
<!-- Node1 -->
<g id="node1" class="node"><title>Node1</title>
<polygon fill="#bfbfbf" stroke="black" points="0,-38.5 0,-57.5 113,-57.5 113,-38.5 0,-38.5"/>
<text text-anchor="middle" x="56.5" y="-45.5" font-family="Verdana" font-size="10.00">CElement::setName</text>
</g>
<!-- Node2 -->
<g id="node2" class="node"><title>Node2</title>
<g id="a_node2"><a xlink:href="classCConfigurableDomain.html#aa1fdeb04cae19531f2588e0419b53b84" target="_top" xlink:title="CConfigurableDomain\l::fromXml">
<polygon fill="white" stroke="black" points="159,-77 159,-107 280,-107 280,-77 159,-77"/>
<text text-anchor="start" x="167" y="-95" font-family="Verdana" font-size="10.00">CConfigurableDomain</text>
<text text-anchor="middle" x="219.5" y="-84" font-family="Verdana" font-size="10.00">::fromXml</text>
</a>
</g>
</g>
<!-- Node1&#45;&gt;Node2 -->
<g id="edge1" class="edge"><title>Node1&#45;&gt;Node2</title>
<path fill="none" stroke="midnightblue" d="M102.288,-60.2402C121.217,-65.4134 143.451,-71.4897 163.374,-76.9346"/>
<polygon fill="midnightblue" stroke="midnightblue" points="103.004,-56.8075 92.4346,-57.5473 101.158,-63.5599 103.004,-56.8075"/>
</g>
<!-- Node3 -->
<g id="node3" class="node"><title>Node3</title>
<g id="a_node3"><a xlink:href="classCElement.html#aa09118f89e5b3208ee92d0ec51151ccf" target="_top" xlink:title="CElement::rename">
<polygon fill="white" stroke="black" points="166,-38.5 166,-57.5 273,-57.5 273,-38.5 166,-38.5"/>
<text text-anchor="middle" x="219.5" y="-45.5" font-family="Verdana" font-size="10.00">CElement::rename</text>
</a>
</g>
</g>
<!-- Node1&#45;&gt;Node3 -->
<g id="edge2" class="edge"><title>Node1&#45;&gt;Node3</title>
<path fill="none" stroke="midnightblue" d="M123.524,-48C137.67,-48 152.434,-48 165.988,-48"/>
<polygon fill="midnightblue" stroke="midnightblue" points="123.358,-44.5001 113.358,-48 123.358,-51.5001 123.358,-44.5001"/>
</g>
<!-- Node11 -->
<g id="node11" class="node"><title>Node11</title>
<g id="a_node11"><a xlink:href="classCEnumValuePair.html#a75b1589707a64d5cf13145acde4dad03" target="_top" xlink:title="CEnumValuePair::fromXml">
<polygon fill="white" stroke="black" points="149,-0.5 149,-19.5 290,-19.5 290,-0.5 149,-0.5"/>
<text text-anchor="middle" x="219.5" y="-7.5" font-family="Verdana" font-size="10.00">CEnumValuePair::fromXml</text>
</a>
</g>
</g>
<!-- Node1&#45;&gt;Node11 -->
<g id="edge10" class="edge"><title>Node1&#45;&gt;Node11</title>
<path fill="none" stroke="midnightblue" d="M107.902,-36.1039C130.532,-30.7626 156.87,-24.5463 178.165,-19.5201"/>
<polygon fill="midnightblue" stroke="midnightblue" points="107.056,-32.7074 98.1271,-38.411 108.664,-39.5202 107.056,-32.7074"/>
</g>
<!-- Node4 -->
<g id="node4" class="node"><title>Node4</title>
<g id="a_node4"><a xlink:href="classCConfigurableDomain.html#a647386b073c9dd776f9cd9dcb24088a7" target="_top" xlink:title="CConfigurableDomain\l::renameConfiguration">
<polygon fill="white" stroke="black" points="327,-58 327,-88 451,-88 451,-58 327,-58"/>
<text text-anchor="start" x="335" y="-76" font-family="Verdana" font-size="10.00">CConfigurableDomain</text>
<text text-anchor="middle" x="389" y="-65" font-family="Verdana" font-size="10.00">::renameConfiguration</text>
</a>
</g>
</g>
<!-- Node3&#45;&gt;Node4 -->
<g id="edge3" class="edge"><title>Node3&#45;&gt;Node4</title>
<path fill="none" stroke="midnightblue" d="M283.25,-57.3657C297.521,-59.4957 312.662,-61.7554 326.864,-63.8752"/>
<polygon fill="midnightblue" stroke="midnightblue" points="283.446,-53.8562 273.038,-55.8416 282.412,-60.7795 283.446,-53.8562"/>
</g>
<!-- Node8 -->
<g id="node8" class="node"><title>Node8</title>
<g id="a_node8"><a xlink:href="classCConfigurableDomains.html#a5191495863bf95f1fc3beb545b410269" target="_top" xlink:title="CConfigurableDomains\l::renameDomain">
<polygon fill="white" stroke="black" points="326,-9 326,-39 452,-39 452,-9 326,-9"/>
<text text-anchor="start" x="334" y="-27" font-family="Verdana" font-size="10.00">CConfigurableDomains</text>
<text text-anchor="middle" x="389" y="-16" font-family="Verdana" font-size="10.00">::renameDomain</text>
</a>
</g>
</g>
<!-- Node3&#45;&gt;Node8 -->
<g id="edge7" class="edge"><title>Node3&#45;&gt;Node8</title>
<path fill="none" stroke="midnightblue" d="M283.075,-39.034C297.098,-37.0247 311.969,-34.8939 325.97,-32.8878"/>
<polygon fill="midnightblue" stroke="midnightblue" points="282.441,-35.589 273.038,-40.4721 283.434,-42.5183 282.441,-35.589"/>
</g>
<!-- Node5 -->
<g id="node5" class="node"><title>Node5</title>
<g id="a_node5"><a xlink:href="classCConfigurableDomains.html#a052bfda8fb27ff5a1eeb0a53444031e8" target="_top" xlink:title="CConfigurableDomains\l::renameConfiguration">
<polygon fill="white" stroke="black" points="511.5,-58 511.5,-88 637.5,-88 637.5,-58 511.5,-58"/>
<text text-anchor="start" x="519.5" y="-76" font-family="Verdana" font-size="10.00">CConfigurableDomains</text>
<text text-anchor="middle" x="574.5" y="-65" font-family="Verdana" font-size="10.00">::renameConfiguration</text>
</a>
</g>
</g>
<!-- Node4&#45;&gt;Node5 -->
<g id="edge4" class="edge"><title>Node4&#45;&gt;Node5</title>
<path fill="none" stroke="midnightblue" d="M461.264,-73C477.811,-73 495.295,-73 511.411,-73"/>
<polygon fill="midnightblue" stroke="midnightblue" points="461.103,-69.5001 451.103,-73 461.103,-76.5001 461.103,-69.5001"/>
</g>
<!-- Node6 -->
<g id="node6" class="node"><title>Node6</title>
<g id="a_node6"><a xlink:href="classCParameterMgr.html#af73dc2735e178eb3571400b76172b03e" target="_top" xlink:title="CParameterMgr::renameConfiguration">
<polygon fill="white" stroke="black" points="697,-63.5 697,-82.5 896,-82.5 896,-63.5 697,-63.5"/>
<text text-anchor="middle" x="796.5" y="-70.5" font-family="Verdana" font-size="10.00">CParameterMgr::renameConfiguration</text>
</a>
</g>
</g>
<!-- Node5&#45;&gt;Node6 -->
<g id="edge5" class="edge"><title>Node5&#45;&gt;Node6</title>
<path fill="none" stroke="midnightblue" d="M647.792,-73C663.489,-73 680.351,-73 696.868,-73"/>
<polygon fill="midnightblue" stroke="midnightblue" points="647.661,-69.5001 637.661,-73 647.661,-76.5001 647.661,-69.5001"/>
</g>
<!-- Node7 -->
<g id="node7" class="node"><title>Node7</title>
<g id="a_node7"><a xlink:href="classCParameterMgrFullConnector.html#a352932b594bc113459c5bd687c03963f" target="_top" xlink:title="CParameterMgrFullConnector\l::renameConfiguration">
<polygon fill="white" stroke="black" points="932,-58 932,-88 1088,-88 1088,-58 932,-58"/>
<text text-anchor="start" x="940" y="-76" font-family="Verdana" font-size="10.00">CParameterMgrFullConnector</text>
<text text-anchor="middle" x="1010" y="-65" font-family="Verdana" font-size="10.00">::renameConfiguration</text>
</a>
</g>
</g>
<!-- Node6&#45;&gt;Node7 -->
<g id="edge6" class="edge"><title>Node6&#45;&gt;Node7</title>
<path fill="none" stroke="midnightblue" d="M906.23,-73C914.837,-73 923.416,-73 931.742,-73"/>
<polygon fill="midnightblue" stroke="midnightblue" points="906.129,-69.5001 896.129,-73 906.129,-76.5001 906.129,-69.5001"/>
</g>
<!-- Node9 -->
<g id="node9" class="node"><title>Node9</title>
<g id="a_node9"><a xlink:href="classCParameterMgr.html#a7d8898361dc42076dccb72489e3e7a43" target="_top" xlink:title="CParameterMgr::renameDomain">
<polygon fill="white" stroke="black" points="488,-14.5 488,-33.5 661,-33.5 661,-14.5 488,-14.5"/>
<text text-anchor="middle" x="574.5" y="-21.5" font-family="Verdana" font-size="10.00">CParameterMgr::renameDomain</text>
</a>
</g>
</g>
<!-- Node8&#45;&gt;Node9 -->
<g id="edge8" class="edge"><title>Node8&#45;&gt;Node9</title>
<path fill="none" stroke="midnightblue" d="M462.195,-24C470.56,-24 479.153,-24 487.677,-24"/>
<polygon fill="midnightblue" stroke="midnightblue" points="462.125,-20.5001 452.125,-24 462.125,-27.5001 462.125,-20.5001"/>
</g>
<!-- Node10 -->
<g id="node10" class="node"><title>Node10</title>
<g id="a_node10"><a xlink:href="classCParameterMgrFullConnector.html#a6023605e54ac2840c135950ec0fc8775" target="_top" xlink:title="CParameterMgrFullConnector\l::renameDomain">
<polygon fill="white" stroke="black" points="718.5,-9 718.5,-39 874.5,-39 874.5,-9 718.5,-9"/>
<text text-anchor="start" x="726.5" y="-27" font-family="Verdana" font-size="10.00">CParameterMgrFullConnector</text>
<text text-anchor="middle" x="796.5" y="-16" font-family="Verdana" font-size="10.00">::renameDomain</text>
</a>
</g>
</g>
<!-- Node9&#45;&gt;Node10 -->
<g id="edge9" class="edge"><title>Node9&#45;&gt;Node10</title>
<path fill="none" stroke="midnightblue" d="M671.417,-24C687.088,-24 703.148,-24 718.294,-24"/>
<polygon fill="midnightblue" stroke="midnightblue" points="671.188,-20.5001 661.188,-24 671.188,-27.5001 671.188,-20.5001"/>
</g>
</g>
</svg>
