<?xml version="1.0" encoding="UTF-8" standalone="no"?>
<!DOCTYPE svg PUBLIC "-//W3C//DTD SVG 1.1//EN"
 "http://www.w3.org/Graphics/SVG/1.1/DTD/svg11.dtd">
<!-- Generated by graphviz version 2.36.0 (20140111.2315)
 -->
<!-- Title: CParameterMgr Pages: 1 -->
<svg width="153pt" height="140pt"
 viewBox="0.00 0.00 153.00 140.00" xmlns="http://www.w3.org/2000/svg" xmlns:xlink="http://www.w3.org/1999/xlink">
<g id="graph0" class="graph" transform="scale(1 1) rotate(0) translate(4 136)">
<title>CParameterMgr</title>
<polygon fill="white" stroke="none" points="-4,4 -4,-136 149,-136 149,4 -4,4"/>
<!-- Node1 -->
<g id="node1" class="node"><title>Node1</title>
<polygon fill="#bfbfbf" stroke="black" points="23,-0.5 23,-19.5 115,-19.5 115,-0.5 23,-0.5"/>
<text text-anchor="middle" x="69" y="-7.5" font-family="Verdana" font-size="10.00">CParameterMgr</text>
</g>
<!-- Node2 -->
<g id="node2" class="node"><title>Node2</title>
<g id="a_node2"><a xlink:href="classCElement.html" target="_top" xlink:title="CElement">
<polygon fill="white" stroke="black" points="37.5,-56.5 37.5,-75.5 100.5,-75.5 100.5,-56.5 37.5,-56.5"/>
<text text-anchor="middle" x="69" y="-63.5" font-family="Verdana" font-size="10.00">CElement</text>
</a>
</g>
</g>
<!-- Node2&#45;&gt;Node1 -->
<g id="edge1" class="edge"><title>Node2&#45;&gt;Node1</title>
<path fill="none" stroke="#8b1a1a" d="M69,-45.8045C69,-36.9102 69,-26.7798 69,-19.7511"/>
<polygon fill="#8b1a1a" stroke="#8b1a1a" points="65.5001,-46.083 69,-56.083 72.5001,-46.083 65.5001,-46.083"/>
</g>
<!-- Node3 -->
<g id="node3" class="node"><title>Node3</title>
<polygon fill="white" stroke="#bfbfbf" points="-0.5,-112.5 -0.5,-131.5 56.5,-131.5 56.5,-112.5 -0.5,-112.5"/>
<text text-anchor="middle" x="28" y="-119.5" font-family="Verdana" font-size="10.00">IXmlSink</text>
</g>
<!-- Node3&#45;&gt;Node2 -->
<g id="edge2" class="edge"><title>Node3&#45;&gt;Node2</title>
<path fill="none" stroke="midnightblue" d="M41.0172,-103.855C48.1167,-94.5048 56.604,-83.3265 62.3557,-75.7511"/>
<polygon fill="midnightblue" stroke="midnightblue" points="38.0299,-102.002 34.7703,-112.083 43.605,-106.235 38.0299,-102.002"/>
</g>
<!-- Node4 -->
<g id="node4" class="node"><title>Node4</title>
<polygon fill="white" stroke="#bfbfbf" points="74.5,-112.5 74.5,-131.5 145.5,-131.5 145.5,-112.5 74.5,-112.5"/>
<text text-anchor="middle" x="110" y="-119.5" font-family="Verdana" font-size="10.00">IXmlSource</text>
</g>
<!-- Node4&#45;&gt;Node2 -->
<g id="edge3" class="edge"><title>Node4&#45;&gt;Node2</title>
<path fill="none" stroke="midnightblue" d="M96.9828,-103.855C89.8833,-94.5048 81.396,-83.3265 75.6443,-75.7511"/>
<polygon fill="midnightblue" stroke="midnightblue" points="94.395,-106.235 103.23,-112.083 99.9701,-102.002 94.395,-106.235"/>
</g>
</g>
</svg>
