<?xml version="1.0" encoding="UTF-8" standalone="no"?>
<!DOCTYPE svg PUBLIC "-//W3C//DTD SVG 1.1//EN"
 "http://www.w3.org/Graphics/SVG/1.1/DTD/svg11.dtd">
<!-- Generated by graphviz version 2.38.0 (20140413.2041)
 -->
<!-- Title: CXmlElement::setXmlElement Pages: 1 -->
<svg width="1396pt" height="817pt"
 viewBox="0.00 0.00 1396.00 817.00" xmlns="http://www.w3.org/2000/svg" xmlns:xlink="http://www.w3.org/1999/xlink">
<g id="graph0" class="graph" transform="scale(1 1) rotate(0) translate(4 813)">
<title>CXmlElement::setXmlElement</title>
<polygon fill="white" stroke="none" points="-4,4 -4,-813 1392,-813 1392,4 -4,4"/>
<!-- Node1 -->
<g id="node1" class="node"><title>Node1</title>
<polygon fill="#bfbfbf" stroke="black" points="0,-347 0,-366 160,-366 160,-347 0,-347"/>
<text text-anchor="middle" x="80" y="-354" font-family="Verdana" font-size="10.00">CXmlElement::setXmlElement</text>
</g>
<!-- Node2 -->
<g id="node2" class="node"><title>Node2</title>
<g id="a_node2"><a xlink:href="classCXmlDocSource.html#a2a7e3d4b2568b41e56b6f553eba7b93c" target="_top" xlink:title="Method that returns the root element of the Xml tree. ">
<polygon fill="white" stroke="black" points="196,-566 196,-585 372,-585 372,-566 196,-566"/>
<text text-anchor="middle" x="284" y="-573" font-family="Verdana" font-size="10.00">CXmlDocSource::getRootElement</text>
</a>
</g>
</g>
<!-- Node1&#45;&gt;Node2 -->
<g id="edge1" class="edge"><title>Node1&#45;&gt;Node2</title>
<path fill="none" stroke="midnightblue" d="M96.9021,-373.74C137.304,-417.543 242.908,-532.034 274.163,-565.919"/>
<polygon fill="midnightblue" stroke="midnightblue" points="99.2931,-371.17 89.9403,-366.193 94.1477,-375.916 99.2931,-371.17"/>
</g>
<!-- Node4 -->
<g id="node4" class="node"><title>Node4</title>
<g id="a_node4"><a xlink:href="classCXmlElement.html#a28a62e123c5042524a20eda9cc425d5f" target="_top" xlink:title="CXmlElement::getParentElement">
<polygon fill="white" stroke="black" points="197.5,-399 197.5,-418 370.5,-418 370.5,-399 197.5,-399"/>
<text text-anchor="middle" x="284" y="-406" font-family="Verdana" font-size="10.00">CXmlElement::getParentElement</text>
</a>
</g>
</g>
<!-- Node1&#45;&gt;Node4 -->
<g id="edge3" class="edge"><title>Node1&#45;&gt;Node4</title>
<path fill="none" stroke="midnightblue" d="M127.809,-368.55C163.714,-377.793 212.599,-390.377 245.843,-398.935"/>
<polygon fill="midnightblue" stroke="midnightblue" points="128.607,-365.141 118.05,-366.038 126.862,-371.92 128.607,-365.141"/>
</g>
<!-- Node21 -->
<g id="node21" class="node"><title>Node21</title>
<g id="a_node21"><a xlink:href="classCXmlElement.html#ab496b728efa782727a27b294858e8fc6" target="_top" xlink:title="CXmlElement::createChild">
<polygon fill="white" stroke="black" points="213.5,-99 213.5,-118 354.5,-118 354.5,-99 213.5,-99"/>
<text text-anchor="middle" x="284" y="-106" font-family="Verdana" font-size="10.00">CXmlElement::createChild</text>
</a>
</g>
</g>
<!-- Node1&#45;&gt;Node21 -->
<g id="edge27" class="edge"><title>Node1&#45;&gt;Node21</title>
<path fill="none" stroke="midnightblue" d="M95.2372,-339.021C134.731,-290.534 244.748,-155.463 275.136,-118.155"/>
<polygon fill="midnightblue" stroke="midnightblue" points="92.5203,-336.814 88.9186,-346.778 97.9477,-341.235 92.5203,-336.814"/>
</g>
<!-- Node31 -->
<g id="node31" class="node"><title>Node31</title>
<g id="a_node31"><a xlink:href="classCXmlElement_1_1CChildIterator.html#a65a1c3514c3fac2cfab99224991f2bdc" target="_top" xlink:title="CXmlElement::CChildIterator\l::next">
<polygon fill="white" stroke="black" points="593,-193.5 593,-223.5 745,-223.5 745,-193.5 593,-193.5"/>
<text text-anchor="start" x="601" y="-211.5" font-family="Verdana" font-size="10.00">CXmlElement::CChildIterator</text>
<text text-anchor="middle" x="669" y="-200.5" font-family="Verdana" font-size="10.00">::next</text>
</a>
</g>
</g>
<!-- Node1&#45;&gt;Node31 -->
<g id="edge40" class="edge"><title>Node1&#45;&gt;Node31</title>
<path fill="none" stroke="midnightblue" d="M128.885,-344.427C235.312,-317.594 491.29,-253.054 608.084,-223.606"/>
<polygon fill="midnightblue" stroke="midnightblue" points="127.903,-341.065 119.062,-346.903 129.615,-347.852 127.903,-341.065"/>
</g>
<!-- Node3 -->
<g id="node3" class="node"><title>Node3</title>
<g id="a_node3"><a xlink:href="classCXmlFileIncluderElement.html#a754298eb75aacfe300ed3942d51611aa" target="_top" xlink:title="CXmlFileIncluderElement\l::fromXml">
<polygon fill="white" stroke="black" points="602,-778.5 602,-808.5 736,-808.5 736,-778.5 602,-778.5"/>
<text text-anchor="start" x="610" y="-796.5" font-family="Verdana" font-size="10.00">CXmlFileIncluderElement</text>
<text text-anchor="middle" x="669" y="-785.5" font-family="Verdana" font-size="10.00">::fromXml</text>
</a>
</g>
</g>
<!-- Node2&#45;&gt;Node3 -->
<g id="edge2" class="edge"><title>Node2&#45;&gt;Node3</title>
<path fill="none" stroke="midnightblue" d="M304.299,-591.357C349.433,-627.71 466.521,-717.817 578,-768.5 586.267,-772.259 595.224,-775.569 604.173,-778.448"/>
<polygon fill="midnightblue" stroke="midnightblue" points="306.461,-588.605 296.49,-585.024 302.052,-594.041 306.461,-588.605"/>
</g>
<!-- Node5 -->
<g id="node5" class="node"><title>Node5</title>
<g id="a_node5"><a xlink:href="classCXmlElement.html#ac47c56a3cad8ac7d1fe7579e833227c5" target="_top" xlink:title="CXmlElement::getPath">
<polygon fill="white" stroke="black" points="413,-497 413,-516 537,-516 537,-497 413,-497"/>
<text text-anchor="middle" x="475" y="-504" font-family="Verdana" font-size="10.00">CXmlElement::getPath</text>
</a>
</g>
</g>
<!-- Node4&#45;&gt;Node5 -->
<g id="edge4" class="edge"><title>Node4&#45;&gt;Node5</title>
<path fill="none" stroke="midnightblue" d="M312.69,-422.858C351.781,-443.127 422.094,-479.586 455.459,-496.886"/>
<polygon fill="midnightblue" stroke="midnightblue" points="313.955,-419.571 303.466,-418.075 310.733,-425.785 313.955,-419.571"/>
</g>
<!-- Node5&#45;&gt;Node3 -->
<g id="edge25" class="edge"><title>Node5&#45;&gt;Node3</title>
<path fill="none" stroke="midnightblue" d="M483.757,-525.866C496.183,-556.95 521.264,-619.926 542,-673.5 558.298,-715.608 544.649,-738.063 578,-768.5 584.828,-774.731 593.076,-779.427 601.775,-782.962"/>
<polygon fill="midnightblue" stroke="midnightblue" points="486.881,-524.253 479.917,-516.269 480.382,-526.854 486.881,-524.253"/>
</g>
<!-- Node5&#45;&gt;Node5 -->
<g id="edge26" class="edge"><title>Node5&#45;&gt;Node5</title>
<path fill="none" stroke="midnightblue" d="M439.375,-524.004C439.381,-529.836 451.256,-534.5 475,-534.5 508.77,-534.5 518.531,-525.065 504.285,-516.257"/>
<polygon fill="midnightblue" stroke="midnightblue" points="442.091,-526.212 445.715,-516.257 436.673,-521.779 442.091,-526.212"/>
</g>
<!-- Node6 -->
<g id="node6" class="node"><title>Node6</title>
<g id="a_node6"><a xlink:href="classCComponentInstance.html#a1943a2510a8a326f0fedd9cc8f07b193" target="_top" xlink:title="CComponentInstance\l::fromXml">
<polygon fill="white" stroke="black" points="609,-592.5 609,-622.5 729,-622.5 729,-592.5 609,-592.5"/>
<text text-anchor="start" x="617" y="-610.5" font-family="Verdana" font-size="10.00">CComponentInstance</text>
<text text-anchor="middle" x="669" y="-599.5" font-family="Verdana" font-size="10.00">::fromXml</text>
</a>
</g>
</g>
<!-- Node5&#45;&gt;Node6 -->
<g id="edge5" class="edge"><title>Node5&#45;&gt;Node6</title>
<path fill="none" stroke="midnightblue" d="M493.584,-522.834C512.914,-539.977 545.553,-566.599 578,-582.5 587.611,-587.21 598.248,-591.153 608.744,-594.411"/>
<polygon fill="midnightblue" stroke="midnightblue" points="495.922,-520.23 486.154,-516.127 491.231,-525.426 495.922,-520.23"/>
</g>
<!-- Node7 -->
<g id="node7" class="node"><title>Node7</title>
<g id="a_node7"><a xlink:href="classCComponentType.html#a962c2716cd757893d0a1dafc84d538da" target="_top" xlink:title="CComponentType::fromXml">
<polygon fill="white" stroke="black" points="595.5,-554 595.5,-573 742.5,-573 742.5,-554 595.5,-554"/>
<text text-anchor="middle" x="669" y="-561" font-family="Verdana" font-size="10.00">CComponentType::fromXml</text>
</a>
</g>
</g>
<!-- Node5&#45;&gt;Node7 -->
<g id="edge6" class="edge"><title>Node5&#45;&gt;Node7</title>
<path fill="none" stroke="midnightblue" d="M513.603,-519.185C532.799,-525.528 556.565,-533.179 578,-539.5 595.062,-544.531 614.078,-549.67 630.219,-553.895"/>
<polygon fill="midnightblue" stroke="midnightblue" points="514.612,-515.832 504.019,-516.001 512.405,-522.475 514.612,-515.832"/>
</g>
<!-- Node8 -->
<g id="node8" class="node"><title>Node8</title>
<g id="a_node8"><a xlink:href="classCElement.html#a1978d50e2db432e7b8f0928f33d3f01a" target="_top" xlink:title="CElement::fromXml">
<polygon fill="white" stroke="black" points="833.5,-401 833.5,-420 943.5,-420 943.5,-401 833.5,-401"/>
<text text-anchor="middle" x="888.5" y="-408" font-family="Verdana" font-size="10.00">CElement::fromXml</text>
</a>
</g>
</g>
<!-- Node5&#45;&gt;Node8 -->
<g id="edge7" class="edge"><title>Node5&#45;&gt;Node8</title>
<path fill="none" stroke="midnightblue" d="M481.487,-486.96C496.456,-435.202 539.458,-296.787 578,-271.5 645.632,-227.127 694.817,-223.603 760,-271.5 803.158,-303.213 757.253,-349.527 796,-386.5 806.099,-396.137 819.579,-402.02 833.082,-405.58"/>
<polygon fill="midnightblue" stroke="midnightblue" points="478.036,-486.298 478.658,-496.875 484.767,-488.219 478.036,-486.298"/>
</g>
<!-- Node10 -->
<g id="node10" class="node"><title>Node10</title>
<g id="a_node10"><a xlink:href="classCSubsystem.html#a82e0dd2dd8f504c57e3b997f13dc7654" target="_top" xlink:title="Deserialize the structure from xml. ">
<polygon fill="white" stroke="black" points="1219,-450 1219,-469 1388,-469 1388,-450 1219,-450"/>
<text text-anchor="middle" x="1303.5" y="-457" font-family="Verdana" font-size="10.00">CSubsystem::structureFromXml</text>
</a>
</g>
</g>
<!-- Node5&#45;&gt;Node10 -->
<g id="edge22" class="edge"><title>Node5&#45;&gt;Node10</title>
<path fill="none" stroke="midnightblue" d="M484.554,-525.227C499.021,-554.33 531.372,-609.367 578,-631.5 651.074,-666.187 679.907,-642.819 760,-631.5 970.339,-601.773 1210.02,-500.66 1281.4,-469.035"/>
<polygon fill="midnightblue" stroke="midnightblue" points="487.664,-523.618 480.188,-516.111 481.35,-526.642 487.664,-523.618"/>
</g>
<!-- Node13 -->
<g id="node13" class="node"><title>Node13</title>
<g id="a_node13"><a xlink:href="classCElement.html#a0b4cdc10e6df8fd3740255c5faf3b596" target="_top" xlink:title="Creates a child CElement from a child XML Element. ">
<polygon fill="white" stroke="black" points="607.5,-478 607.5,-497 730.5,-497 730.5,-478 607.5,-478"/>
<text text-anchor="middle" x="669" y="-485" font-family="Verdana" font-size="10.00">CElement::createChild</text>
</a>
</g>
</g>
<!-- Node5&#45;&gt;Node13 -->
<g id="edge13" class="edge"><title>Node5&#45;&gt;Node13</title>
<path fill="none" stroke="midnightblue" d="M547.215,-499.453C567.023,-497.493 588.342,-495.383 607.474,-493.49"/>
<polygon fill="midnightblue" stroke="midnightblue" points="546.621,-495.994 537.014,-500.462 547.31,-502.96 546.621,-495.994"/>
</g>
<!-- Node14 -->
<g id="node14" class="node"><title>Node14</title>
<g id="a_node14"><a xlink:href="classCFixedPointParameterType.html#a58d031a099f032135417110023dad31e" target="_top" xlink:title="CFixedPointParameterType\l::fromXml">
<polygon fill="white" stroke="black" points="597.5,-428.5 597.5,-458.5 740.5,-458.5 740.5,-428.5 597.5,-428.5"/>
<text text-anchor="start" x="605.5" y="-446.5" font-family="Verdana" font-size="10.00">CFixedPointParameterType</text>
<text text-anchor="middle" x="669" y="-435.5" font-family="Verdana" font-size="10.00">::fromXml</text>
</a>
</g>
</g>
<!-- Node5&#45;&gt;Node14 -->
<g id="edge16" class="edge"><title>Node5&#45;&gt;Node14</title>
<path fill="none" stroke="midnightblue" d="M509.596,-493.157C529.365,-485.514 554.935,-475.985 578,-468.5 588.643,-465.046 600.087,-461.638 611.127,-458.502"/>
<polygon fill="midnightblue" stroke="midnightblue" points="508.161,-489.96 500.113,-496.85 510.702,-496.482 508.161,-489.96"/>
</g>
<!-- Node15 -->
<g id="node15" class="node"><title>Node15</title>
<g id="a_node15"><a xlink:href="classCFloatingPointParameterType.html#afc9886b6b3b300f27057c7361f690f54" target="_top" xlink:title="CFloatingPointParameterType\l::fromXml">
<polygon fill="white" stroke="black" points="591,-379.5 591,-409.5 747,-409.5 747,-379.5 591,-379.5"/>
<text text-anchor="start" x="599" y="-397.5" font-family="Verdana" font-size="10.00">CFloatingPointParameterType</text>
<text text-anchor="middle" x="669" y="-386.5" font-family="Verdana" font-size="10.00">::fromXml</text>
</a>
</g>
</g>
<!-- Node5&#45;&gt;Node15 -->
<g id="edge17" class="edge"><title>Node5&#45;&gt;Node15</title>
<path fill="none" stroke="midnightblue" d="M491.02,-489.539C509.549,-469.646 542.925,-437.039 578,-418.5 584.434,-415.1 591.386,-412.153 598.477,-409.606"/>
<polygon fill="midnightblue" stroke="midnightblue" points="488.397,-487.221 484.241,-496.967 493.567,-491.94 488.397,-487.221"/>
</g>
<!-- Node16 -->
<g id="node16" class="node"><title>Node16</title>
<g id="a_node16"><a xlink:href="classCFrameworkConfigurationLocation.html#a2e9a4fed347353201cd0272de4952841" target="_top" xlink:title="CFrameworkConfigurationLocation\l::fromXml">
<polygon fill="white" stroke="black" points="579.5,-330.5 579.5,-360.5 758.5,-360.5 758.5,-330.5 579.5,-330.5"/>
<text text-anchor="start" x="587.5" y="-348.5" font-family="Verdana" font-size="10.00">CFrameworkConfigurationLocation</text>
<text text-anchor="middle" x="669" y="-337.5" font-family="Verdana" font-size="10.00">::fromXml</text>
</a>
</g>
</g>
<!-- Node5&#45;&gt;Node16 -->
<g id="edge18" class="edge"><title>Node5&#45;&gt;Node16</title>
<path fill="none" stroke="midnightblue" d="M484.883,-487.483C499.804,-457.665 532.769,-400.16 578,-369.5 583.087,-366.052 588.646,-363.099 594.426,-360.57"/>
<polygon fill="midnightblue" stroke="midnightblue" points="481.585,-486.261 480.367,-496.785 487.882,-489.318 481.585,-486.261"/>
</g>
<!-- Node17 -->
<g id="node17" class="node"><title>Node17</title>
<g id="a_node17"><a xlink:href="classCLinearParameterAdaptation.html#a3dfe0a5f0d6ddc9ca72f159bc066354e" target="_top" xlink:title="CLinearParameterAdaptation\l::fromXml">
<polygon fill="white" stroke="black" points="591.5,-281.5 591.5,-311.5 746.5,-311.5 746.5,-281.5 591.5,-281.5"/>
<text text-anchor="start" x="599.5" y="-299.5" font-family="Verdana" font-size="10.00">CLinearParameterAdaptation</text>
<text text-anchor="middle" x="669" y="-288.5" font-family="Verdana" font-size="10.00">::fromXml</text>
</a>
</g>
</g>
<!-- Node5&#45;&gt;Node17 -->
<g id="edge19" class="edge"><title>Node5&#45;&gt;Node17</title>
<path fill="none" stroke="midnightblue" d="M481.18,-486.731C492.23,-448.549 521.812,-364.55 578,-320.5 582.327,-317.108 587.092,-314.193 592.103,-311.689"/>
<polygon fill="midnightblue" stroke="midnightblue" points="477.738,-486.045 478.441,-496.616 484.484,-487.914 477.738,-486.045"/>
</g>
<!-- Node18 -->
<g id="node18" class="node"><title>Node18</title>
<g id="a_node18"><a xlink:href="classCLogarithmicParameterAdaptation.html#ac0b21330479721a562cbc9ff572b5e8e" target="_top" xlink:title="CLogarithmicParameterAdaptation\l::fromXml">
<polygon fill="white" stroke="black" points="578,-729.5 578,-759.5 760,-759.5 760,-729.5 578,-729.5"/>
<text text-anchor="start" x="586" y="-747.5" font-family="Verdana" font-size="10.00">CLogarithmicParameterAdaptation</text>
<text text-anchor="middle" x="669" y="-736.5" font-family="Verdana" font-size="10.00">::fromXml</text>
</a>
</g>
</g>
<!-- Node5&#45;&gt;Node18 -->
<g id="edge20" class="edge"><title>Node5&#45;&gt;Node18</title>
<path fill="none" stroke="midnightblue" d="M482.923,-525.899C500.163,-573.211 545.933,-692.623 578,-719.5 582.599,-723.354 587.748,-726.617 593.193,-729.378"/>
<polygon fill="midnightblue" stroke="midnightblue" points="486.121,-524.45 479.433,-516.233 479.537,-526.827 486.121,-524.45"/>
</g>
<!-- Node19 -->
<g id="node19" class="node"><title>Node19</title>
<g id="a_node19"><a xlink:href="classCSelectionCriterionRule.html#aa3536258af1e5f9cc1db535e7629d42c" target="_top" xlink:title="CSelectionCriterionRule\l::fromXml">
<polygon fill="white" stroke="black" points="605,-680.5 605,-710.5 733,-710.5 733,-680.5 605,-680.5"/>
<text text-anchor="start" x="613" y="-698.5" font-family="Verdana" font-size="10.00">CSelectionCriterionRule</text>
<text text-anchor="middle" x="669" y="-687.5" font-family="Verdana" font-size="10.00">::fromXml</text>
</a>
</g>
</g>
<!-- Node5&#45;&gt;Node19 -->
<g id="edge21" class="edge"><title>Node5&#45;&gt;Node19</title>
<path fill="none" stroke="midnightblue" d="M483.338,-525.869C496.934,-559.213 529.18,-627.526 578,-665.5 585.93,-671.668 595.191,-676.601 604.699,-680.535"/>
<polygon fill="midnightblue" stroke="midnightblue" points="486.509,-524.37 479.581,-516.355 479.998,-526.941 486.509,-524.37"/>
</g>
<!-- Node20 -->
<g id="node20" class="node"><title>Node20</title>
<g id="a_node20"><a xlink:href="classCTypeElement.html#a8f3a08cd11a7db4fde3bd69dde5c8b66" target="_top" xlink:title="CTypeElement::fromXml">
<polygon fill="white" stroke="black" points="1034.5,-481 1034.5,-500 1165.5,-500 1165.5,-481 1034.5,-481"/>
<text text-anchor="middle" x="1100" y="-488" font-family="Verdana" font-size="10.00">CTypeElement::fromXml</text>
</a>
</g>
</g>
<!-- Node5&#45;&gt;Node20 -->
<g id="edge23" class="edge"><title>Node5&#45;&gt;Node20</title>
<path fill="none" stroke="midnightblue" d="M547.291,-507.43C604.735,-507.956 687.576,-508.208 760,-506.5 855.571,-504.246 966.17,-498.422 1034.36,-494.459"/>
<polygon fill="midnightblue" stroke="midnightblue" points="547.26,-503.93 537.226,-507.333 547.192,-510.93 547.26,-503.93"/>
</g>
<!-- Node8&#45;&gt;Node8 -->
<g id="edge12" class="edge"><title>Node8&#45;&gt;Node8</title>
<path fill="none" stroke="midnightblue" d="M849.223,-427.118C847.847,-433.356 860.939,-438.5 888.5,-438.5 926.029,-438.5 936.731,-428.961 920.605,-420.112"/>
<polygon fill="midnightblue" stroke="midnightblue" points="851.687,-429.604 856.395,-420.112 846.796,-424.596 851.687,-429.604"/>
</g>
<!-- Node9 -->
<g id="node9" class="node"><title>Node9</title>
<g id="a_node9"><a xlink:href="classCComponentLibrary.html#ad4cc928cda43371fb31f20394e8e04e5" target="_top" xlink:title="CComponentLibrary::\lfromXml">
<polygon fill="white" stroke="black" points="1041.5,-413.5 1041.5,-443.5 1158.5,-443.5 1158.5,-413.5 1041.5,-413.5"/>
<text text-anchor="start" x="1049.5" y="-431.5" font-family="Verdana" font-size="10.00">CComponentLibrary::</text>
<text text-anchor="middle" x="1100" y="-420.5" font-family="Verdana" font-size="10.00">fromXml</text>
</a>
</g>
</g>
<!-- Node8&#45;&gt;Node9 -->
<g id="edge8" class="edge"><title>Node8&#45;&gt;Node9</title>
<path fill="none" stroke="midnightblue" d="M953.792,-416.024C981.725,-418.424 1014.19,-421.214 1041.34,-423.546"/>
<polygon fill="midnightblue" stroke="midnightblue" points="953.987,-412.528 943.724,-415.159 953.388,-419.502 953.987,-412.528"/>
</g>
<!-- Node11 -->
<g id="node11" class="node"><title>Node11</title>
<g id="a_node11"><a xlink:href="classCConfigurableElement.html#a58dabad79b39f912250eed36e43d718a" target="_top" xlink:title="Deserialize the structure from xml. ">
<polygon fill="white" stroke="black" points="1038.5,-263.5 1038.5,-293.5 1161.5,-293.5 1161.5,-263.5 1038.5,-263.5"/>
<text text-anchor="start" x="1046.5" y="-281.5" font-family="Verdana" font-size="10.00">CConfigurableElement</text>
<text text-anchor="middle" x="1100" y="-270.5" font-family="Verdana" font-size="10.00">::structureFromXml</text>
</a>
</g>
</g>
<!-- Node8&#45;&gt;Node11 -->
<g id="edge10" class="edge"><title>Node8&#45;&gt;Node11</title>
<path fill="none" stroke="midnightblue" d="M913.566,-395.337C953.952,-369.89 1034.89,-318.895 1075.14,-293.535"/>
<polygon fill="midnightblue" stroke="midnightblue" points="911.5,-392.502 904.905,-400.794 915.231,-398.424 911.5,-392.502"/>
</g>
<!-- Node9&#45;&gt;Node10 -->
<g id="edge9" class="edge"><title>Node9&#45;&gt;Node10</title>
<path fill="none" stroke="midnightblue" d="M1168.84,-438.938C1192.03,-442.505 1217.83,-446.473 1240.52,-449.965"/>
<polygon fill="midnightblue" stroke="midnightblue" points="1169.16,-435.445 1158.74,-437.383 1168.09,-442.363 1169.16,-435.445"/>
</g>
<!-- Node12 -->
<g id="node12" class="node"><title>Node12</title>
<g id="a_node12"><a xlink:href="classCConfigurableElement.html#ac5bbe709d02fa6af3469a91a72edcd06" target="_top" xlink:title="CConfigurableElement\l::fromXml">
<polygon fill="white" stroke="black" points="1242,-197.5 1242,-227.5 1365,-227.5 1365,-197.5 1242,-197.5"/>
<text text-anchor="start" x="1250" y="-215.5" font-family="Verdana" font-size="10.00">CConfigurableElement</text>
<text text-anchor="middle" x="1303.5" y="-204.5" font-family="Verdana" font-size="10.00">::fromXml</text>
</a>
</g>
</g>
<!-- Node11&#45;&gt;Node12 -->
<g id="edge11" class="edge"><title>Node11&#45;&gt;Node12</title>
<path fill="none" stroke="midnightblue" d="M1156.87,-260.201C1188.19,-249.941 1226.79,-237.3 1256.37,-227.608"/>
<polygon fill="midnightblue" stroke="midnightblue" points="1155.39,-257.002 1146.98,-263.441 1157.57,-263.654 1155.39,-257.002"/>
</g>
<!-- Node13&#45;&gt;Node8 -->
<g id="edge15" class="edge"><title>Node13&#45;&gt;Node8</title>
<path fill="none" stroke="midnightblue" d="M731.396,-475.6C741.057,-473.229 750.865,-470.523 760,-467.5 800.284,-454.171 845.073,-432.429 869.383,-420.005"/>
<polygon fill="midnightblue" stroke="midnightblue" points="730.348,-472.251 721.416,-477.949 731.952,-479.065 730.348,-472.251"/>
</g>
<!-- Node13&#45;&gt;Node9 -->
<g id="edge14" class="edge"><title>Node13&#45;&gt;Node9</title>
<path fill="none" stroke="midnightblue" d="M740.805,-479.042C803.897,-471.351 898.706,-459.415 981,-447.5 1000.71,-444.646 1022.24,-441.26 1041.44,-438.143"/>
<polygon fill="midnightblue" stroke="midnightblue" points="740.075,-475.605 730.57,-480.287 740.92,-482.554 740.075,-475.605"/>
</g>
<!-- Node20&#45;&gt;Node10 -->
<g id="edge24" class="edge"><title>Node20&#45;&gt;Node10</title>
<path fill="none" stroke="midnightblue" d="M1172.82,-479.451C1194.92,-476.05 1219.06,-472.338 1240.44,-469.047"/>
<polygon fill="midnightblue" stroke="midnightblue" points="1172.18,-476.008 1162.83,-480.988 1173.24,-482.927 1172.18,-476.008"/>
</g>
<!-- Node22 -->
<g id="node22" class="node"><title>Node22</title>
<g id="a_node22"><a xlink:href="classCConfigurableElement.html#a0e3feb8a7b18a3291ec960c9726b4eaf" target="_top" xlink:title="CConfigurableElement\l::serializeXmlSettings">
<polygon fill="white" stroke="black" points="827,-131.5 827,-161.5 950,-161.5 950,-131.5 827,-131.5"/>
<text text-anchor="start" x="835" y="-149.5" font-family="Verdana" font-size="10.00">CConfigurableElement</text>
<text text-anchor="middle" x="888.5" y="-138.5" font-family="Verdana" font-size="10.00">::serializeXmlSettings</text>
</a>
</g>
</g>
<!-- Node21&#45;&gt;Node22 -->
<g id="edge28" class="edge"><title>Node21&#45;&gt;Node22</title>
<path fill="none" stroke="midnightblue" d="M347.689,-119.591C366.976,-122.624 388.312,-125.596 408,-127.5 558.094,-142.019 735.644,-145.505 826.795,-146.302"/>
<polygon fill="midnightblue" stroke="midnightblue" points="348.237,-116.134 337.809,-118.005 347.128,-123.046 348.237,-116.134"/>
</g>
<!-- Node25 -->
<g id="node25" class="node"><title>Node25</title>
<g id="a_node25"><a xlink:href="classCDomainConfiguration.html#a39c907e9023554f7a86836ac9f8da32f" target="_top" xlink:title="CDomainConfiguration\l::composeSettings">
<polygon fill="white" stroke="black" points="412.5,-49.5 412.5,-79.5 537.5,-79.5 537.5,-49.5 412.5,-49.5"/>
<text text-anchor="start" x="420.5" y="-67.5" font-family="Verdana" font-size="10.00">CDomainConfiguration</text>
<text text-anchor="middle" x="475" y="-56.5" font-family="Verdana" font-size="10.00">::composeSettings</text>
</a>
</g>
</g>
<!-- Node21&#45;&gt;Node25 -->
<g id="edge33" class="edge"><title>Node21&#45;&gt;Node25</title>
<path fill="none" stroke="midnightblue" d="M335.786,-96.6767C359.315,-91.1992 387.48,-84.6422 412.229,-78.8806"/>
<polygon fill="midnightblue" stroke="midnightblue" points="334.956,-93.2763 326.01,-98.9527 336.543,-100.094 334.956,-93.2763"/>
</g>
<!-- Node26 -->
<g id="node26" class="node"><title>Node26</title>
<g id="a_node26"><a xlink:href="classCElement.html#aee22d6b038603b6481a8f029bf59ff3d" target="_top" xlink:title="Serialize the children to XML. ">
<polygon fill="white" stroke="black" points="408,-99 408,-118 542,-118 542,-99 408,-99"/>
<text text-anchor="middle" x="475" y="-106" font-family="Verdana" font-size="10.00">CElement::childrenToXml</text>
</a>
</g>
</g>
<!-- Node21&#45;&gt;Node26 -->
<g id="edge34" class="edge"><title>Node21&#45;&gt;Node26</title>
<path fill="none" stroke="midnightblue" d="M364.867,-108.5C379.142,-108.5 393.875,-108.5 407.718,-108.5"/>
<polygon fill="midnightblue" stroke="midnightblue" points="364.571,-105 354.571,-108.5 364.571,-112 364.571,-105"/>
</g>
<!-- Node29 -->
<g id="node29" class="node"><title>Node29</title>
<g id="a_node29"><a xlink:href="classCSelectionCriterionType.html#a95813f4b14f06857afaf8a50d0d62600" target="_top" xlink:title="Export to XML. ">
<polygon fill="white" stroke="black" points="410.5,-0.5 410.5,-30.5 539.5,-30.5 539.5,-0.5 410.5,-0.5"/>
<text text-anchor="start" x="418.5" y="-18.5" font-family="Verdana" font-size="10.00">CSelectionCriterionType</text>
<text text-anchor="middle" x="475" y="-7.5" font-family="Verdana" font-size="10.00">::toXml</text>
</a>
</g>
</g>
<!-- Node21&#45;&gt;Node29 -->
<g id="edge38" class="edge"><title>Node21&#45;&gt;Node29</title>
<path fill="none" stroke="midnightblue" d="M308.669,-93.6956C333.003,-78.8434 372.28,-55.8818 408,-39.5 414.871,-36.3487 422.285,-33.3162 429.576,-30.5296"/>
<polygon fill="midnightblue" stroke="midnightblue" points="306.796,-90.7388 300.113,-98.9602 310.464,-96.7006 306.796,-90.7388"/>
</g>
<!-- Node22&#45;&gt;Node12 -->
<g id="edge30" class="edge"><title>Node22&#45;&gt;Node12</title>
<path fill="none" stroke="midnightblue" d="M960.259,-144.99C1020.25,-145.151 1108.21,-148.801 1183,-165.5 1214.33,-172.496 1248.23,-186.492 1271.89,-197.4"/>
<polygon fill="midnightblue" stroke="midnightblue" points="960.134,-141.49 950.136,-144.995 960.137,-148.49 960.134,-141.49"/>
</g>
<!-- Node22&#45;&gt;Node22 -->
<g id="edge32" class="edge"><title>Node22&#45;&gt;Node22</title>
<path fill="none" stroke="midnightblue" d="M851.186,-171.958C855.817,-176.679 868.255,-180 888.5,-180 921.723,-180 933.922,-171.057 925.097,-161.659"/>
<polygon fill="midnightblue" stroke="midnightblue" points="854.699,-171.878 851.903,-161.659 847.716,-171.391 854.699,-171.878"/>
</g>
<!-- Node23 -->
<g id="node23" class="node"><title>Node23</title>
<g id="a_node23"><a xlink:href="classCAreaConfiguration.html#a6b8c95a79343ee9823b026d74184e798" target="_top" xlink:title="CAreaConfiguration\l::serializeXmlSettings">
<polygon fill="white" stroke="black" points="1040.5,-175.5 1040.5,-205.5 1159.5,-205.5 1159.5,-175.5 1040.5,-175.5"/>
<text text-anchor="start" x="1048.5" y="-193.5" font-family="Verdana" font-size="10.00">CAreaConfiguration</text>
<text text-anchor="middle" x="1100" y="-182.5" font-family="Verdana" font-size="10.00">::serializeXmlSettings</text>
</a>
</g>
</g>
<!-- Node22&#45;&gt;Node23 -->
<g id="edge29" class="edge"><title>Node22&#45;&gt;Node23</title>
<path fill="none" stroke="midnightblue" d="M959.936,-161.293C986.059,-166.78 1015.38,-172.938 1040.34,-178.181"/>
<polygon fill="midnightblue" stroke="midnightblue" points="960.602,-157.857 950.096,-159.227 959.163,-164.707 960.602,-157.857"/>
</g>
<!-- Node24 -->
<g id="node24" class="node"><title>Node24</title>
<g id="a_node24"><a xlink:href="classCConfigurableElement.html#a2331dbc00f60d4d19a5686bbb519c473" target="_top" xlink:title="CConfigurableElement\l::toXml">
<polygon fill="white" stroke="black" points="1038.5,-85.5 1038.5,-115.5 1161.5,-115.5 1161.5,-85.5 1038.5,-85.5"/>
<text text-anchor="start" x="1046.5" y="-103.5" font-family="Verdana" font-size="10.00">CConfigurableElement</text>
<text text-anchor="middle" x="1100" y="-92.5" font-family="Verdana" font-size="10.00">::toXml</text>
</a>
</g>
</g>
<!-- Node22&#45;&gt;Node24 -->
<g id="edge31" class="edge"><title>Node22&#45;&gt;Node24</title>
<path fill="none" stroke="midnightblue" d="M960.016,-131.017C985.367,-125.451 1013.72,-119.224 1038.18,-113.855"/>
<polygon fill="midnightblue" stroke="midnightblue" points="959.113,-127.632 950.096,-133.195 960.614,-134.469 959.113,-127.632"/>
</g>
<!-- Node27 -->
<g id="node27" class="node"><title>Node27</title>
<g id="a_node27"><a xlink:href="classCElement.html#a7ce1bde0fda5cf412b652000cab473e4" target="_top" xlink:title="CElement::toXml">
<polygon fill="white" stroke="black" points="620.5,-93 620.5,-112 717.5,-112 717.5,-93 620.5,-93"/>
<text text-anchor="middle" x="669" y="-100" font-family="Verdana" font-size="10.00">CElement::toXml</text>
</a>
</g>
</g>
<!-- Node26&#45;&gt;Node27 -->
<g id="edge35" class="edge"><title>Node26&#45;&gt;Node27</title>
<path fill="none" stroke="midnightblue" d="M552.158,-106.12C575.144,-105.402 599.718,-104.634 620.291,-103.991"/>
<polygon fill="midnightblue" stroke="midnightblue" points="551.961,-102.624 542.076,-106.435 552.18,-109.621 551.961,-102.624"/>
</g>
<!-- Node28 -->
<g id="node28" class="node"><title>Node28</title>
<g id="a_node28"><a xlink:href="classCConfigurableElement.html#aae8cc511624bd2cee5d204815178299b" target="_top" xlink:title="Serialize the structure to xml. ">
<polygon fill="white" stroke="black" points="827,-82.5 827,-112.5 950,-112.5 950,-82.5 827,-82.5"/>
<text text-anchor="start" x="835" y="-100.5" font-family="Verdana" font-size="10.00">CConfigurableElement</text>
<text text-anchor="middle" x="888.5" y="-89.5" font-family="Verdana" font-size="10.00">::structureToXml</text>
</a>
</g>
</g>
<!-- Node27&#45;&gt;Node28 -->
<g id="edge36" class="edge"><title>Node27&#45;&gt;Node28</title>
<path fill="none" stroke="midnightblue" d="M727.788,-101.172C758.282,-100.471 795.684,-99.6107 826.625,-98.8994"/>
<polygon fill="midnightblue" stroke="midnightblue" points="727.648,-97.6737 717.731,-101.403 727.809,-104.672 727.648,-97.6737"/>
</g>
<!-- Node28&#45;&gt;Node24 -->
<g id="edge37" class="edge"><title>Node28&#45;&gt;Node24</title>
<path fill="none" stroke="midnightblue" d="M960.353,-98.5146C985.618,-98.8764 1013.83,-99.2804 1038.18,-99.629"/>
<polygon fill="midnightblue" stroke="midnightblue" points="960.145,-95.0114 950.096,-98.3677 960.045,-102.011 960.145,-95.0114"/>
</g>
<!-- Node30 -->
<g id="node30" class="node"><title>Node30</title>
<g id="a_node30"><a xlink:href="classCSelectionCriterion.html#a3942150fa9e5980d89268672fff31032" target="_top" xlink:title="Export to XML. ">
<polygon fill="white" stroke="black" points="615,-0.5 615,-30.5 723,-30.5 723,-0.5 615,-0.5"/>
<text text-anchor="start" x="623" y="-18.5" font-family="Verdana" font-size="10.00">CSelectionCriterion</text>
<text text-anchor="middle" x="669" y="-7.5" font-family="Verdana" font-size="10.00">::toXml</text>
</a>
</g>
</g>
<!-- Node29&#45;&gt;Node30 -->
<g id="edge39" class="edge"><title>Node29&#45;&gt;Node30</title>
<path fill="none" stroke="midnightblue" d="M549.808,-15.5C571.445,-15.5 594.673,-15.5 614.762,-15.5"/>
<polygon fill="midnightblue" stroke="midnightblue" points="549.667,-12.0001 539.667,-15.5 549.666,-19.0001 549.667,-12.0001"/>
</g>
<!-- Node31&#45;&gt;Node8 -->
<g id="edge44" class="edge"><title>Node31&#45;&gt;Node8</title>
<path fill="none" stroke="midnightblue" d="M748.644,-228.78C752.786,-231.608 756.623,-234.83 760,-238.5 805.837,-288.316 748.562,-338.205 796,-386.5 805.897,-396.576 819.471,-402.591 833.134,-406.136"/>
<polygon fill="midnightblue" stroke="midnightblue" points="750.152,-225.605 739.766,-223.511 746.579,-231.625 750.152,-225.605"/>
</g>
<!-- Node31&#45;&gt;Node9 -->
<g id="edge41" class="edge"><title>Node31&#45;&gt;Node9</title>
<path fill="none" stroke="midnightblue" d="M753.853,-228.254C756.015,-229.87 758.072,-231.616 760,-233.5 799.515,-272.124 755.285,-315.144 796,-352.5 857.917,-409.309 899.705,-370.238 981,-391.5 1005.51,-397.91 1032.5,-406.272 1054.47,-413.425"/>
<polygon fill="midnightblue" stroke="midnightblue" points="755.366,-225.068 745.053,-222.64 751.601,-230.969 755.366,-225.068"/>
</g>
<!-- Node31&#45;&gt;Node22 -->
<g id="edge42" class="edge"><title>Node31&#45;&gt;Node22</title>
<path fill="none" stroke="midnightblue" d="M732.446,-190.699C764.755,-181.489 803.77,-170.368 834.58,-161.585"/>
<polygon fill="midnightblue" stroke="midnightblue" points="731.308,-187.384 722.651,-193.492 733.227,-194.116 731.308,-187.384"/>
</g>
<!-- Node32 -->
<g id="node32" class="node"><title>Node32</title>
<g id="a_node32"><a xlink:href="classCDomainConfiguration.html#a07ba71bfd498ff4291eb765975360339" target="_top" xlink:title="CDomainConfiguration\l::parseSettings">
<polygon fill="white" stroke="black" points="826,-313.5 826,-343.5 951,-343.5 951,-313.5 826,-313.5"/>
<text text-anchor="start" x="834" y="-331.5" font-family="Verdana" font-size="10.00">CDomainConfiguration</text>
<text text-anchor="middle" x="888.5" y="-320.5" font-family="Verdana" font-size="10.00">::parseSettings</text>
</a>
</g>
</g>
<!-- Node31&#45;&gt;Node32 -->
<g id="edge43" class="edge"><title>Node31&#45;&gt;Node32</title>
<path fill="none" stroke="midnightblue" d="M743.696,-228.025C749.497,-231.04 755.026,-234.51 760,-238.5 784.258,-257.959 771.694,-279.101 796,-298.5 804.754,-305.487 815.194,-310.872 825.836,-315.014"/>
<polygon fill="midnightblue" stroke="midnightblue" points="744.935,-224.74 734.396,-223.652 741.956,-231.075 744.935,-224.74"/>
</g>
<!-- Node33 -->
<g id="node33" class="node"><title>Node33</title>
<g id="a_node33"><a xlink:href="classCPluginLocation.html#a078d8017417c36f89f9d05b5e4d1b33b" target="_top" xlink:title="CPluginLocation::fromXml">
<polygon fill="white" stroke="black" points="819,-237 819,-256 958,-256 958,-237 819,-237"/>
<text text-anchor="middle" x="888.5" y="-244" font-family="Verdana" font-size="10.00">CPluginLocation::fromXml</text>
</a>
</g>
</g>
<!-- Node31&#45;&gt;Node33 -->
<g id="edge45" class="edge"><title>Node31&#45;&gt;Node33</title>
<path fill="none" stroke="midnightblue" d="M755.083,-223.365C781.267,-227.94 809.374,-232.85 832.928,-236.966"/>
<polygon fill="midnightblue" stroke="midnightblue" points="755.609,-219.904 745.156,-221.631 754.404,-226.8 755.609,-219.904"/>
</g>
<!-- Node34 -->
<g id="node34" class="node"><title>Node34</title>
<g id="a_node34"><a xlink:href="classCXmlElement.html#abffb4b3c9d2ac6c552b3222a92bf0d8a" target="_top" xlink:title="CXmlElement::getChildElement">
<polygon fill="white" stroke="black" points="1017,-354 1017,-373 1183,-373 1183,-354 1017,-354"/>
<text text-anchor="middle" x="1100" y="-361" font-family="Verdana" font-size="10.00">CXmlElement::getChildElement</text>
</a>
</g>
</g>
<!-- Node31&#45;&gt;Node34 -->
<g id="edge46" class="edge"><title>Node31&#45;&gt;Node34</title>
<path fill="none" stroke="midnightblue" d="M747.012,-227.285C751.493,-229.176 755.857,-231.243 760,-233.5 778.799,-243.741 776.862,-255.908 796,-265.5 871.041,-303.111 901.769,-275.785 981,-303.5 1019.61,-317.007 1061.58,-340.739 1083.57,-353.946"/>
<polygon fill="midnightblue" stroke="midnightblue" points="748.272,-224.02 737.683,-223.647 745.728,-230.541 748.272,-224.02"/>
</g>
<!-- Node35 -->
<g id="node35" class="node"><title>Node35</title>
<g id="a_node35"><a xlink:href="classCXmlElement.html#adf23655abe898403789f9d7c35ff3225" target="_top" xlink:title="CXmlElement::getNbChildElements">
<polygon fill="white" stroke="black" points="796,-199 796,-218 981,-218 981,-199 796,-199"/>
<text text-anchor="middle" x="888.5" y="-206" font-family="Verdana" font-size="10.00">CXmlElement::getNbChildElements</text>
</a>
</g>
</g>
<!-- Node31&#45;&gt;Node35 -->
<g id="edge48" class="edge"><title>Node31&#45;&gt;Node35</title>
<path fill="none" stroke="midnightblue" d="M755.232,-208.5C768.553,-208.5 782.368,-208.5 795.826,-208.5"/>
<polygon fill="midnightblue" stroke="midnightblue" points="755.156,-205 745.156,-208.5 755.156,-212 755.156,-205"/>
</g>
<!-- Node34&#45;&gt;Node10 -->
<g id="edge47" class="edge"><title>Node34&#45;&gt;Node10</title>
<path fill="none" stroke="midnightblue" d="M1130.11,-377.37C1171.62,-397.147 1246.75,-432.94 1282.52,-449.983"/>
<polygon fill="midnightblue" stroke="midnightblue" points="1131.59,-374.197 1121.06,-373.056 1128.58,-380.517 1131.59,-374.197"/>
</g>
</g>
</svg>
