<?xml version="1.0" encoding="UTF-8" standalone="no"?>
<!DOCTYPE svg PUBLIC "-//W3C//DTD SVG 1.1//EN"
 "http://www.w3.org/Graphics/SVG/1.1/DTD/svg11.dtd">
<!-- Generated by graphviz version 2.38.0 (20140413.2041)
 -->
<!-- Title: CSelectionCriterion::getFormattedDescription Pages: 1 -->
<svg width="481pt" height="214pt"
 viewBox="0.00 0.00 481.00 213.50" xmlns="http://www.w3.org/2000/svg" xmlns:xlink="http://www.w3.org/1999/xlink">
<g id="graph0" class="graph" transform="scale(1 1) rotate(0) translate(4 209.5)">
<title>CSelectionCriterion::getFormattedDescription</title>
<polygon fill="white" stroke="none" points="-4,4 -4,-209.5 477,-209.5 477,4 -4,4"/>
<!-- Node1 -->
<g id="node1" class="node"><title>Node1</title>
<polygon fill="#bfbfbf" stroke="black" points="0,-98.5 0,-128.5 143,-128.5 143,-98.5 0,-98.5"/>
<text text-anchor="start" x="8" y="-116.5" font-family="Verdana" font-size="10.00">CSelectionCriterion</text>
<text text-anchor="middle" x="71.5" y="-105.5" font-family="Verdana" font-size="10.00">::getFormattedDescription</text>
</g>
<!-- Node2 -->
<g id="node2" class="node"><title>Node2</title>
<g id="a_node2"><a xlink:href="namespaceutility.html#afd9949bbd80a31bbdbc1aa57439c5d40" target="_top" xlink:title="Utility to underline. ">
<polygon fill="white" stroke="black" points="192,-186 192,-205 295,-205 295,-186 192,-186"/>
<text text-anchor="middle" x="243.5" y="-193" font-family="Verdana" font-size="10.00">utility::appendTitle</text>
</a>
</g>
</g>
<!-- Node1&#45;&gt;Node2 -->
<g id="edge1" class="edge"><title>Node1&#45;&gt;Node2</title>
<path fill="none" stroke="midnightblue" d="M94.5017,-128.679C115.466,-142.61 148.298,-163.066 179,-176.5 184.139,-178.749 189.624,-180.83 195.136,-182.726"/>
<polygon fill="midnightblue" stroke="midnightblue" points="194.427,-186.176 205.019,-185.935 196.589,-179.518 194.427,-186.176"/>
</g>
<!-- Node3 -->
<g id="node3" class="node"><title>Node3</title>
<g id="a_node3"><a xlink:href="classCElement.html#a49581fb6412e29e932962acd82d52d6a" target="_top" xlink:title="CElement::getName">
<polygon fill="white" stroke="black" points="186.5,-148 186.5,-167 300.5,-167 300.5,-148 186.5,-148"/>
<text text-anchor="middle" x="243.5" y="-155" font-family="Verdana" font-size="10.00">CElement::getName</text>
</a>
</g>
</g>
<!-- Node1&#45;&gt;Node3 -->
<g id="edge2" class="edge"><title>Node1&#45;&gt;Node3</title>
<path fill="none" stroke="midnightblue" d="M130.529,-128.519C151.841,-134.035 175.676,-140.204 195.86,-145.428"/>
<polygon fill="midnightblue" stroke="midnightblue" points="195.189,-148.87 205.747,-147.988 196.943,-142.093 195.189,-148.87"/>
</g>
<!-- Node4 -->
<g id="node4" class="node"><title>Node4</title>
<g id="a_node4"><a xlink:href="classCSelectionCriterionType.html#ae88c284c1f002d7237f25e9c21dcf44f" target="_top" xlink:title="CSelectionCriterionType\l::isTypeInclusive">
<polygon fill="white" stroke="black" points="179,-98.5 179,-128.5 308,-128.5 308,-98.5 179,-98.5"/>
<text text-anchor="start" x="187" y="-116.5" font-family="Verdana" font-size="10.00">CSelectionCriterionType</text>
<text text-anchor="middle" x="243.5" y="-105.5" font-family="Verdana" font-size="10.00">::isTypeInclusive</text>
</a>
</g>
</g>
<!-- Node1&#45;&gt;Node4 -->
<g id="edge3" class="edge"><title>Node1&#45;&gt;Node4</title>
<path fill="none" stroke="midnightblue" d="M143.118,-113.5C151.55,-113.5 160.175,-113.5 168.65,-113.5"/>
<polygon fill="midnightblue" stroke="midnightblue" points="168.89,-117 178.89,-113.5 168.89,-110 168.89,-117"/>
</g>
<!-- Node5 -->
<g id="node5" class="node"><title>Node5</title>
<g id="a_node5"><a xlink:href="classCSelectionCriterionType.html#a31f9a40404c9564b2c54658a679db628" target="_top" xlink:title="CSelectionCriterionType\l::listPossibleValues">
<polygon fill="white" stroke="black" points="179,-49.5 179,-79.5 308,-79.5 308,-49.5 179,-49.5"/>
<text text-anchor="start" x="187" y="-67.5" font-family="Verdana" font-size="10.00">CSelectionCriterionType</text>
<text text-anchor="middle" x="243.5" y="-56.5" font-family="Verdana" font-size="10.00">::listPossibleValues</text>
</a>
</g>
</g>
<!-- Node1&#45;&gt;Node5 -->
<g id="edge4" class="edge"><title>Node1&#45;&gt;Node5</title>
<path fill="none" stroke="midnightblue" d="M124.893,-98.3986C142.507,-93.3215 162.323,-87.6098 180.598,-82.3423"/>
<polygon fill="midnightblue" stroke="midnightblue" points="181.641,-85.6843 190.28,-79.5516 179.702,-78.9582 181.641,-85.6843"/>
</g>
<!-- Node6 -->
<g id="node6" class="node"><title>Node6</title>
<g id="a_node6"><a xlink:href="classCSelectionCriterionType.html#acf1d7bbd1dc0b21897cdf7cf3d362bb3" target="_top" xlink:title="CSelectionCriterionType\l::getFormattedState">
<polygon fill="white" stroke="black" points="179,-0.5 179,-30.5 308,-30.5 308,-0.5 179,-0.5"/>
<text text-anchor="start" x="187" y="-18.5" font-family="Verdana" font-size="10.00">CSelectionCriterionType</text>
<text text-anchor="middle" x="243.5" y="-7.5" font-family="Verdana" font-size="10.00">::getFormattedState</text>
</a>
</g>
</g>
<!-- Node1&#45;&gt;Node6 -->
<g id="edge5" class="edge"><title>Node1&#45;&gt;Node6</title>
<path fill="none" stroke="midnightblue" d="M91.6757,-98.38C112.375,-82.5415 146.726,-57.6307 179,-40.5 182.767,-38.5003 186.731,-36.5686 190.761,-34.7254"/>
<polygon fill="midnightblue" stroke="midnightblue" points="192.459,-37.803 200.224,-30.5946 189.659,-31.3875 192.459,-37.803"/>
</g>
<!-- Node7 -->
<g id="node7" class="node"><title>Node7</title>
<g id="a_node7"><a xlink:href="classCSelectionCriterionType.html#ae526e3679a02dd85be47abe8a548f1ee" target="_top" xlink:title="CSelectionCriterionType\l::getLiteralValue">
<polygon fill="white" stroke="black" points="344,-0.5 344,-30.5 473,-30.5 473,-0.5 344,-0.5"/>
<text text-anchor="start" x="352" y="-18.5" font-family="Verdana" font-size="10.00">CSelectionCriterionType</text>
<text text-anchor="middle" x="408.5" y="-7.5" font-family="Verdana" font-size="10.00">::getLiteralValue</text>
</a>
</g>
</g>
<!-- Node6&#45;&gt;Node7 -->
<g id="edge6" class="edge"><title>Node6&#45;&gt;Node7</title>
<path fill="none" stroke="midnightblue" d="M308.454,-15.5C316.761,-15.5 325.322,-15.5 333.772,-15.5"/>
<polygon fill="midnightblue" stroke="midnightblue" points="333.998,-19.0001 343.998,-15.5 333.998,-12.0001 333.998,-19.0001"/>
</g>
</g>
</svg>
