<?xml version="1.0" encoding="UTF-8" standalone="no"?>
<!DOCTYPE svg PUBLIC "-//W3C//DTD SVG 1.1//EN"
 "http://www.w3.org/Graphics/SVG/1.1/DTD/svg11.dtd">
<!-- Generated by graphviz version 2.38.0 (20140413.2041)
 -->
<!-- Title: CParameterHandle::getAsSignedIntegerArray Pages: 1 -->
<svg width="531pt" height="39pt"
 viewBox="0.00 0.00 531.00 39.00" xmlns="http://www.w3.org/2000/svg" xmlns:xlink="http://www.w3.org/1999/xlink">
<g id="graph0" class="graph" transform="scale(1 1) rotate(0) translate(4 35)">
<title>CParameterHandle::getAsSignedIntegerArray</title>
<polygon fill="white" stroke="none" points="-4,4 -4,-35 527,-35 527,4 -4,4"/>
<!-- Node1 -->
<g id="node1" class="node"><title>Node1</title>
<polygon fill="#bfbfbf" stroke="black" points="0,-0.5 0,-30.5 174,-30.5 174,-0.5 0,-0.5"/>
<text text-anchor="start" x="8" y="-18.5" font-family="Verdana" font-size="10.00">CParameterHandle::getAsSigned</text>
<text text-anchor="middle" x="87" y="-7.5" font-family="Verdana" font-size="10.00">IntegerArray</text>
</g>
<!-- Node2 -->
<g id="node2" class="node"><title>Node2</title>
<g id="a_node2"><a xlink:href="classCBaseParameter.html#a4fb0984d60996ba29e646b9080aee070" target="_top" xlink:title="CBaseParameter::accessAs\lSignedIntegerArray">
<polygon fill="white" stroke="black" points="210,-0.5 210,-30.5 359,-30.5 359,-0.5 210,-0.5"/>
<text text-anchor="start" x="218" y="-18.5" font-family="Verdana" font-size="10.00">CBaseParameter::accessAs</text>
<text text-anchor="middle" x="284.5" y="-7.5" font-family="Verdana" font-size="10.00">SignedIntegerArray</text>
</a>
</g>
</g>
<!-- Node1&#45;&gt;Node2 -->
<g id="edge1" class="edge"><title>Node1&#45;&gt;Node2</title>
<path fill="none" stroke="midnightblue" d="M174.034,-15.5C182.555,-15.5 191.196,-15.5 199.694,-15.5"/>
<polygon fill="midnightblue" stroke="midnightblue" points="199.971,-19.0001 209.971,-15.5 199.971,-12.0001 199.971,-19.0001"/>
</g>
<!-- Node3 -->
<g id="node3" class="node"><title>Node3</title>
<g id="a_node3"><a xlink:href="classCErrorContext.html#a9d58b281c0d0fc9a6d3b83714cf812ef" target="_top" xlink:title="CErrorContext::setError">
<polygon fill="white" stroke="black" points="395,-6 395,-25 523,-25 523,-6 395,-6"/>
<text text-anchor="middle" x="459" y="-13" font-family="Verdana" font-size="10.00">CErrorContext::setError</text>
</a>
</g>
</g>
<!-- Node2&#45;&gt;Node3 -->
<g id="edge2" class="edge"><title>Node2&#45;&gt;Node3</title>
<path fill="none" stroke="midnightblue" d="M359.156,-15.5C367.619,-15.5 376.248,-15.5 384.706,-15.5"/>
<polygon fill="midnightblue" stroke="midnightblue" points="384.917,-19.0001 394.917,-15.5 384.917,-12.0001 384.917,-19.0001"/>
</g>
</g>
</svg>
