<?xml version="1.0" encoding="UTF-8" standalone="no"?>
<!DOCTYPE svg PUBLIC "-//W3C//DTD SVG 1.1//EN"
 "http://www.w3.org/Graphics/SVG/1.1/DTD/svg11.dtd">
<!-- Generated by graphviz version 2.38.0 (20140413.2041)
 -->
<!-- Title: CConfigurableDomains::apply Pages: 1 -->
<svg width="889pt" height="176pt"
 viewBox="0.00 0.00 889.00 176.00" xmlns="http://www.w3.org/2000/svg" xmlns:xlink="http://www.w3.org/1999/xlink">
<g id="graph0" class="graph" transform="scale(1 1) rotate(0) translate(4 172)">
<title>CConfigurableDomains::apply</title>
<polygon fill="white" stroke="none" points="-4,4 -4,-172 885,-172 885,4 -4,4"/>
<!-- Node1 -->
<g id="node1" class="node"><title>Node1</title>
<polygon fill="#bfbfbf" stroke="black" points="0,-83 0,-113 126,-113 126,-83 0,-83"/>
<text text-anchor="start" x="8" y="-101" font-family="Verdana" font-size="10.00">CConfigurableDomains</text>
<text text-anchor="middle" x="63" y="-90" font-family="Verdana" font-size="10.00">::apply</text>
</g>
<!-- Node2 -->
<g id="node2" class="node"><title>Node2</title>
<g id="a_node2"><a xlink:href="classCElement.html#a58b6cdb5715497442fde6afa1e65f8e5" target="_top" xlink:title="CElement::getNbChildren">
<polygon fill="white" stroke="black" points="162,-148.5 162,-167.5 299,-167.5 299,-148.5 162,-148.5"/>
<text text-anchor="middle" x="230.5" y="-155.5" font-family="Verdana" font-size="10.00">CElement::getNbChildren</text>
</a>
</g>
</g>
<!-- Node1&#45;&gt;Node2 -->
<g id="edge1" class="edge"><title>Node1&#45;&gt;Node2</title>
<path fill="none" stroke="midnightblue" d="M97.1721,-113.065C115.973,-121.302 140.056,-131.353 162,-139 168.565,-141.288 175.561,-143.5 182.467,-145.558"/>
<polygon fill="midnightblue" stroke="midnightblue" points="181.884,-149.032 192.463,-148.451 183.83,-142.308 181.884,-149.032"/>
</g>
<!-- Node3 -->
<g id="node3" class="node"><title>Node3</title>
<g id="a_node3"><a xlink:href="classCElement.html#a9bba10d2dc72821589a898e16ace9ae5" target="_top" xlink:title="Get a child element (const) ">
<polygon fill="white" stroke="black" points="176.5,-110.5 176.5,-129.5 284.5,-129.5 284.5,-110.5 176.5,-110.5"/>
<text text-anchor="middle" x="230.5" y="-117.5" font-family="Verdana" font-size="10.00">CElement::getChild</text>
</a>
</g>
</g>
<!-- Node1&#45;&gt;Node3 -->
<g id="edge2" class="edge"><title>Node1&#45;&gt;Node3</title>
<path fill="none" stroke="midnightblue" d="M126.097,-106.255C139.253,-108.003 153.154,-109.851 166.349,-111.605"/>
<polygon fill="midnightblue" stroke="midnightblue" points="165.903,-115.077 176.277,-112.925 166.826,-108.138 165.903,-115.077"/>
</g>
<!-- Node4 -->
<g id="node4" class="node"><title>Node4</title>
<g id="a_node4"><a xlink:href="classCConfigurableDomain.html#a928805e163719f902c207c061ab3b1c2" target="_top" xlink:title="CConfigurableDomain\l::apply">
<polygon fill="white" stroke="black" points="170,-61 170,-91 291,-91 291,-61 170,-61"/>
<text text-anchor="start" x="178" y="-79" font-family="Verdana" font-size="10.00">CConfigurableDomain</text>
<text text-anchor="middle" x="230.5" y="-68" font-family="Verdana" font-size="10.00">::apply</text>
</a>
</g>
</g>
<!-- Node1&#45;&gt;Node4 -->
<g id="edge3" class="edge"><title>Node1&#45;&gt;Node4</title>
<path fill="none" stroke="midnightblue" d="M126.097,-89.7454C137.052,-88.2892 148.523,-86.7643 159.673,-85.2822"/>
<polygon fill="midnightblue" stroke="midnightblue" points="160.347,-88.7235 169.798,-83.9362 159.424,-81.7845 160.347,-88.7235"/>
</g>
<!-- Node10 -->
<g id="node10" class="node"><title>Node10</title>
<g id="a_node10"><a xlink:href="classCSyncerSet.html#a6ee2b3a5edcccc64b8694df736312e4b" target="_top" xlink:title="CSyncerSet::sync">
<polygon fill="white" stroke="black" points="653,-0.5 653,-19.5 754,-19.5 754,-0.5 653,-0.5"/>
<text text-anchor="middle" x="703.5" y="-7.5" font-family="Verdana" font-size="10.00">CSyncerSet::sync</text>
</a>
</g>
</g>
<!-- Node1&#45;&gt;Node10 -->
<g id="edge11" class="edge"><title>Node1&#45;&gt;Node10</title>
<path fill="none" stroke="midnightblue" d="M90.5778,-82.7899C109.81,-72.4736 136.752,-59.4111 162,-52 330.946,-2.40812 541.608,-2.86743 642.797,-6.70962"/>
<polygon fill="midnightblue" stroke="midnightblue" points="642.696,-10.2083 652.829,-7.11556 642.979,-3.21401 642.696,-10.2083"/>
</g>
<!-- Node5 -->
<g id="node5" class="node"><title>Node5</title>
<g id="a_node5"><a xlink:href="classCElement.html#aaa4df1b13a53263f8cc2b668172873d9" target="_top" xlink:title="CElement::log_info">
<polygon fill="white" stroke="black" points="344.5,-126.5 344.5,-145.5 450.5,-145.5 450.5,-126.5 344.5,-126.5"/>
<text text-anchor="middle" x="397.5" y="-133.5" font-family="Verdana" font-size="10.00">CElement::log_info</text>
</a>
</g>
</g>
<!-- Node4&#45;&gt;Node5 -->
<g id="edge4" class="edge"><title>Node4&#45;&gt;Node5</title>
<path fill="none" stroke="midnightblue" d="M273.428,-91.0583C281.93,-94.2435 290.782,-97.6558 299,-101 315.218,-107.599 318.607,-110.849 335,-117 340.905,-119.215 347.195,-121.378 353.414,-123.402"/>
<polygon fill="midnightblue" stroke="midnightblue" points="352.472,-126.775 363.062,-126.458 354.586,-120.102 352.472,-126.775"/>
</g>
<!-- Node6 -->
<g id="node6" class="node"><title>Node6</title>
<g id="a_node6"><a xlink:href="classCElement.html#a49581fb6412e29e932962acd82d52d6a" target="_top" xlink:title="CElement::getName">
<polygon fill="white" stroke="black" points="340.5,-88.5 340.5,-107.5 454.5,-107.5 454.5,-88.5 340.5,-88.5"/>
<text text-anchor="middle" x="397.5" y="-95.5" font-family="Verdana" font-size="10.00">CElement::getName</text>
</a>
</g>
</g>
<!-- Node4&#45;&gt;Node6 -->
<g id="edge5" class="edge"><title>Node4&#45;&gt;Node6</title>
<path fill="none" stroke="midnightblue" d="M291.069,-83.9425C303.743,-85.6323 317.201,-87.4267 330.111,-89.1481"/>
<polygon fill="midnightblue" stroke="midnightblue" points="329.947,-92.6572 340.322,-90.5096 330.872,-85.7186 329.947,-92.6572"/>
</g>
<!-- Node7 -->
<g id="node7" class="node"><title>Node7</title>
<g id="a_node7"><a xlink:href="classCDomainConfiguration.html#a1e837621d00a5ed2282c525c25a484e7" target="_top" xlink:title="CDomainConfiguration\l::restore">
<polygon fill="white" stroke="black" points="335,-39 335,-69 460,-69 460,-39 335,-39"/>
<text text-anchor="start" x="343" y="-57" font-family="Verdana" font-size="10.00">CDomainConfiguration</text>
<text text-anchor="middle" x="397.5" y="-46" font-family="Verdana" font-size="10.00">::restore</text>
</a>
</g>
</g>
<!-- Node4&#45;&gt;Node7 -->
<g id="edge6" class="edge"><title>Node4&#45;&gt;Node7</title>
<path fill="none" stroke="midnightblue" d="M291.069,-68.0575C301.953,-66.6063 313.415,-65.078 324.612,-63.5851"/>
<polygon fill="midnightblue" stroke="midnightblue" points="325.346,-67.0182 334.796,-62.2272 324.421,-60.0796 325.346,-67.0182"/>
</g>
<!-- Node8 -->
<g id="node8" class="node"><title>Node8</title>
<g id="a_node8"><a xlink:href="classCAreaConfiguration.html#a5f72a0349e2309a77459650ba10918a1" target="_top" xlink:title="CAreaConfiguration\l::restore">
<polygon fill="white" stroke="black" points="496,-39 496,-69 606,-69 606,-39 496,-39"/>
<text text-anchor="start" x="504" y="-57" font-family="Verdana" font-size="10.00">CAreaConfiguration</text>
<text text-anchor="middle" x="551" y="-46" font-family="Verdana" font-size="10.00">::restore</text>
</a>
</g>
</g>
<!-- Node7&#45;&gt;Node8 -->
<g id="edge7" class="edge"><title>Node7&#45;&gt;Node8</title>
<path fill="none" stroke="midnightblue" d="M460.121,-54C468.508,-54 477.134,-54 485.568,-54"/>
<polygon fill="midnightblue" stroke="midnightblue" points="485.733,-57.5001 495.733,-54 485.733,-50.5001 485.733,-57.5001"/>
</g>
<!-- Node9 -->
<g id="node9" class="node"><title>Node9</title>
<g id="a_node9"><a xlink:href="classCConfigurableElement.html#a29d61e6d09ff508ebb87aea802f2704e" target="_top" xlink:title="CConfigurableElement\l::getOffset">
<polygon fill="white" stroke="black" points="642,-39 642,-69 765,-69 765,-39 642,-39"/>
<text text-anchor="start" x="650" y="-57" font-family="Verdana" font-size="10.00">CConfigurableElement</text>
<text text-anchor="middle" x="703.5" y="-46" font-family="Verdana" font-size="10.00">::getOffset</text>
</a>
</g>
</g>
<!-- Node8&#45;&gt;Node9 -->
<g id="edge8" class="edge"><title>Node8&#45;&gt;Node9</title>
<path fill="none" stroke="midnightblue" d="M606.334,-54C614.625,-54 623.283,-54 631.862,-54"/>
<polygon fill="midnightblue" stroke="midnightblue" points="631.869,-57.5001 641.869,-54 631.869,-50.5001 631.869,-57.5001"/>
</g>
<!-- Node8&#45;&gt;Node10 -->
<g id="edge9" class="edge"><title>Node8&#45;&gt;Node10</title>
<path fill="none" stroke="midnightblue" d="M603.373,-38.9808C621.738,-33.6115 642.22,-27.6234 659.777,-22.4905"/>
<polygon fill="midnightblue" stroke="midnightblue" points="661.122,-25.7439 669.738,-19.5783 659.158,-19.0251 661.122,-25.7439"/>
</g>
<!-- Node11 -->
<g id="node11" class="node"><title>Node11</title>
<g id="a_node11"><a xlink:href="classISyncer.html#a16844aac52fb0caf4aed4f68d4b038d9" target="_top" xlink:title="ISyncer::sync">
<polygon fill="white" stroke="black" points="801,-0.5 801,-19.5 881,-19.5 881,-0.5 801,-0.5"/>
<text text-anchor="middle" x="841" y="-7.5" font-family="Verdana" font-size="10.00">ISyncer::sync</text>
</a>
</g>
</g>
<!-- Node10&#45;&gt;Node11 -->
<g id="edge10" class="edge"><title>Node10&#45;&gt;Node11</title>
<path fill="none" stroke="midnightblue" d="M754.186,-10C766.103,-10 778.825,-10 790.724,-10"/>
<polygon fill="midnightblue" stroke="midnightblue" points="790.927,-13.5001 800.927,-10 790.927,-6.5001 790.927,-13.5001"/>
</g>
</g>
</svg>
