<?xml version="1.0" encoding="UTF-8" standalone="no"?>
<!DOCTYPE svg PUBLIC "-//W3C//DTD SVG 1.1//EN"
 "http://www.w3.org/Graphics/SVG/1.1/DTD/svg11.dtd">
<!-- Generated by graphviz version 2.38.0 (20140413.2041)
 -->
<!-- Title: CStringParameter::CStringParameter Pages: 1 -->
<svg width="895pt" height="39pt"
 viewBox="0.00 0.00 895.00 39.00" xmlns="http://www.w3.org/2000/svg" xmlns:xlink="http://www.w3.org/1999/xlink">
<g id="graph0" class="graph" transform="scale(1 1) rotate(0) translate(4 35)">
<title>CStringParameter::CStringParameter</title>
<polygon fill="white" stroke="none" points="-4,4 -4,-35 891,-35 891,4 -4,4"/>
<!-- Node1 -->
<g id="node1" class="node"><title>Node1</title>
<polygon fill="#bfbfbf" stroke="black" points="0,-0.5 0,-30.5 143,-30.5 143,-0.5 0,-0.5"/>
<text text-anchor="start" x="8" y="-18.5" font-family="Verdana" font-size="10.00">CStringParameter::CString</text>
<text text-anchor="middle" x="71.5" y="-7.5" font-family="Verdana" font-size="10.00">Parameter</text>
</g>
<!-- Node2 -->
<g id="node2" class="node"><title>Node2</title>
<g id="a_node2"><a xlink:href="classCBaseParameter.html#a1fc2da9917f7fc5ab39bef1f7a45653f" target="_top" xlink:title="CBaseParameter::CBaseParameter">
<polygon fill="white" stroke="black" points="179,-6 179,-25 364,-25 364,-6 179,-6"/>
<text text-anchor="middle" x="271.5" y="-13" font-family="Verdana" font-size="10.00">CBaseParameter::CBaseParameter</text>
</a>
</g>
</g>
<!-- Node1&#45;&gt;Node2 -->
<g id="edge1" class="edge"><title>Node1&#45;&gt;Node2</title>
<path fill="none" stroke="midnightblue" d="M143.144,-15.5C151.446,-15.5 160.038,-15.5 168.659,-15.5"/>
<polygon fill="midnightblue" stroke="midnightblue" points="168.777,-19.0001 178.777,-15.5 168.777,-12.0001 168.777,-19.0001"/>
</g>
<!-- Node3 -->
<g id="node3" class="node"><title>Node3</title>
<g id="a_node3"><a xlink:href="classCInstanceConfigurableElement.html#a06c2f5c077a21c715caa1d1d86ce3432" target="_top" xlink:title="CInstanceConfigurableElement\l::CInstanceConfigurableElement">
<polygon fill="white" stroke="black" points="400,-0.5 400,-30.5 570,-30.5 570,-0.5 400,-0.5"/>
<text text-anchor="start" x="408" y="-18.5" font-family="Verdana" font-size="10.00">CInstanceConfigurableElement</text>
<text text-anchor="middle" x="485" y="-7.5" font-family="Verdana" font-size="10.00">::CInstanceConfigurableElement</text>
</a>
</g>
</g>
<!-- Node2&#45;&gt;Node3 -->
<g id="edge2" class="edge"><title>Node2&#45;&gt;Node3</title>
<path fill="none" stroke="midnightblue" d="M364.037,-15.5C372.623,-15.5 381.336,-15.5 389.945,-15.5"/>
<polygon fill="midnightblue" stroke="midnightblue" points="389.988,-19.0001 399.988,-15.5 389.988,-12.0001 389.988,-19.0001"/>
</g>
<!-- Node4 -->
<g id="node4" class="node"><title>Node4</title>
<g id="a_node4"><a xlink:href="classCConfigurableElement.html#a227e3ad5b43843c0171bdd80ab9ec048" target="_top" xlink:title="CConfigurableElement\l::CConfigurableElement">
<polygon fill="white" stroke="black" points="606,-0.5 606,-30.5 735,-30.5 735,-0.5 606,-0.5"/>
<text text-anchor="start" x="614" y="-18.5" font-family="Verdana" font-size="10.00">CConfigurableElement</text>
<text text-anchor="middle" x="670.5" y="-7.5" font-family="Verdana" font-size="10.00">::CConfigurableElement</text>
</a>
</g>
</g>
<!-- Node3&#45;&gt;Node4 -->
<g id="edge3" class="edge"><title>Node3&#45;&gt;Node4</title>
<path fill="none" stroke="midnightblue" d="M570.231,-15.5C578.738,-15.5 587.331,-15.5 595.717,-15.5"/>
<polygon fill="midnightblue" stroke="midnightblue" points="595.822,-19.0001 605.822,-15.5 595.821,-12.0001 595.822,-19.0001"/>
</g>
<!-- Node5 -->
<g id="node5" class="node"><title>Node5</title>
<g id="a_node5"><a xlink:href="classCElement.html#adda0945fbca000ff1e605a9b93f74c64" target="_top" xlink:title="CElement::CElement">
<polygon fill="white" stroke="black" points="771,-6 771,-25 887,-25 887,-6 771,-6"/>
<text text-anchor="middle" x="829" y="-13" font-family="Verdana" font-size="10.00">CElement::CElement</text>
</a>
</g>
</g>
<!-- Node4&#45;&gt;Node5 -->
<g id="edge4" class="edge"><title>Node4&#45;&gt;Node5</title>
<path fill="none" stroke="midnightblue" d="M735.155,-15.5C743.577,-15.5 752.234,-15.5 760.715,-15.5"/>
<polygon fill="midnightblue" stroke="midnightblue" points="760.946,-19.0001 770.946,-15.5 760.946,-12.0001 760.946,-19.0001"/>
</g>
</g>
</svg>
