<?xml version="1.0" encoding="UTF-8" standalone="no"?>
<!DOCTYPE svg PUBLIC "-//W3C//DTD SVG 1.1//EN"
 "http://www.w3.org/Graphics/SVG/1.1/DTD/svg11.dtd">
<!-- Generated by graphviz version 2.38.0 (20140413.2041)
 -->
<!-- Title: CAreaConfiguration::copyToOuter Pages: 1 -->
<svg width="299pt" height="145pt"
 viewBox="0.00 0.00 299.00 144.50" xmlns="http://www.w3.org/2000/svg" xmlns:xlink="http://www.w3.org/1999/xlink">
<g id="graph0" class="graph" transform="scale(1 1) rotate(0) translate(4 140.5)">
<title>CAreaConfiguration::copyToOuter</title>
<polygon fill="white" stroke="none" points="-4,4 -4,-140.5 295,-140.5 295,4 -4,4"/>
<!-- Node1 -->
<g id="node1" class="node"><title>Node1</title>
<polygon fill="#bfbfbf" stroke="black" points="0,-49.5 0,-79.5 110,-79.5 110,-49.5 0,-49.5"/>
<text text-anchor="start" x="8" y="-67.5" font-family="Verdana" font-size="10.00">CAreaConfiguration</text>
<text text-anchor="middle" x="55" y="-56.5" font-family="Verdana" font-size="10.00">::copyToOuter</text>
</g>
<!-- Node2 -->
<g id="node2" class="node"><title>Node2</title>
<g id="a_node2"><a xlink:href="classCElement.html#a7653fbad5491138533ac0fa889ffecd9" target="_top" xlink:title="CElement::isDescendantOf">
<polygon fill="white" stroke="black" points="146,-99 146,-118 291,-118 291,-99 146,-99"/>
<text text-anchor="middle" x="218.5" y="-106" font-family="Verdana" font-size="10.00">CElement::isDescendantOf</text>
</a>
</g>
</g>
<!-- Node1&#45;&gt;Node2 -->
<g id="edge1" class="edge"><title>Node1&#45;&gt;Node2</title>
<path fill="none" stroke="midnightblue" d="M109.75,-79.5368C121.679,-82.8442 134.263,-86.3106 146,-89.5 154.196,-91.7272 162.928,-94.0715 171.373,-96.3238"/>
<polygon fill="midnightblue" stroke="midnightblue" points="170.541,-99.7242 181.105,-98.913 172.341,-92.9595 170.541,-99.7242"/>
</g>
<!-- Node3 -->
<g id="node3" class="node"><title>Node3</title>
<g id="a_node3"><a xlink:href="classCAreaConfiguration.html#a1f85dedf12591c3f43830a00e5c352df" target="_top" xlink:title="CAreaConfiguration\l::getConfigurableElement">
<polygon fill="white" stroke="black" points="149.5,-49.5 149.5,-79.5 287.5,-79.5 287.5,-49.5 149.5,-49.5"/>
<text text-anchor="start" x="157.5" y="-67.5" font-family="Verdana" font-size="10.00">CAreaConfiguration</text>
<text text-anchor="middle" x="218.5" y="-56.5" font-family="Verdana" font-size="10.00">::getConfigurableElement</text>
</a>
</g>
</g>
<!-- Node1&#45;&gt;Node3 -->
<g id="edge3" class="edge"><title>Node1&#45;&gt;Node3</title>
<path fill="none" stroke="midnightblue" d="M110.226,-64.5C119.544,-64.5 129.391,-64.5 139.191,-64.5"/>
<polygon fill="midnightblue" stroke="midnightblue" points="139.362,-68.0001 149.361,-64.5 139.361,-61.0001 139.362,-68.0001"/>
</g>
<!-- Node4 -->
<g id="node4" class="node"><title>Node4</title>
<g id="a_node4"><a xlink:href="classCConfigurableElement.html#aad502a1139a10faa1a87fd1e033e4ad4" target="_top" xlink:title="CConfigurableElement\l::getOffset">
<polygon fill="white" stroke="black" points="157,-0.5 157,-30.5 280,-30.5 280,-0.5 157,-0.5"/>
<text text-anchor="start" x="165" y="-18.5" font-family="Verdana" font-size="10.00">CConfigurableElement</text>
<text text-anchor="middle" x="218.5" y="-7.5" font-family="Verdana" font-size="10.00">::getOffset</text>
</a>
</g>
</g>
<!-- Node1&#45;&gt;Node4 -->
<g id="edge4" class="edge"><title>Node1&#45;&gt;Node4</title>
<path fill="none" stroke="midnightblue" d="M105.773,-49.3986C122.275,-44.3917 140.812,-38.7676 157.972,-33.561"/>
<polygon fill="midnightblue" stroke="midnightblue" points="159.338,-36.8042 167.891,-30.5516 157.306,-30.1058 159.338,-36.8042"/>
</g>
<!-- Node2&#45;&gt;Node2 -->
<g id="edge2" class="edge"><title>Node2&#45;&gt;Node2</title>
<path fill="none" stroke="midnightblue" d="M193.531,-118.257C181.384,-127.065 189.707,-136.5 218.5,-136.5 237.845,-136.5 247.95,-132.241 248.814,-126.775"/>
<polygon fill="midnightblue" stroke="midnightblue" points="251.749,-124.867 243.469,-118.257 245.82,-128.588 251.749,-124.867"/>
</g>
</g>
</svg>
