<?xml version="1.0" encoding="UTF-8" standalone="no"?>
<!DOCTYPE svg PUBLIC "-//W3C//DTD SVG 1.1//EN"
 "http://www.w3.org/Graphics/SVG/1.1/DTD/svg11.dtd">
<!-- Generated by graphviz version 2.38.0 (20140413.2041)
 -->
<!-- Title: CRequestMessage Pages: 1 -->
<svg width="198pt" height="84pt"
 viewBox="0.00 0.00 198.00 84.00" xmlns="http://www.w3.org/2000/svg" xmlns:xlink="http://www.w3.org/1999/xlink">
<g id="graph0" class="graph" transform="scale(1 1) rotate(0) translate(4 80)">
<title>CRequestMessage</title>
<polygon fill="white" stroke="none" points="-4,4 -4,-80 194,-80 194,4 -4,4"/>
<!-- Node1 -->
<g id="node1" class="node"><title>Node1</title>
<polygon fill="#bfbfbf" stroke="black" points="33,-0.5 33,-19.5 137,-19.5 137,-0.5 33,-0.5"/>
<text text-anchor="middle" x="85" y="-7.5" font-family="Verdana" font-size="10.00">CRequestMessage</text>
</g>
<!-- Node2 -->
<g id="node2" class="node"><title>Node2</title>
<g id="a_node2"><a xlink:href="classCMessage.html" target="_top" xlink:title="CMessage">
<polygon fill="white" stroke="black" points="0,-56.5 0,-75.5 66,-75.5 66,-56.5 0,-56.5"/>
<text text-anchor="middle" x="33" y="-63.5" font-family="Verdana" font-size="10.00">CMessage</text>
</a>
</g>
</g>
<!-- Node2&#45;&gt;Node1 -->
<g id="edge1" class="edge"><title>Node2&#45;&gt;Node1</title>
<path fill="none" stroke="midnightblue" d="M48.6794,-48.7175C57.8447,-39.1997 69.0526,-27.5608 76.573,-19.7511"/>
<polygon fill="midnightblue" stroke="midnightblue" points="46.0021,-46.452 41.5867,-56.083 51.0443,-51.3075 46.0021,-46.452"/>
</g>
<!-- Node3 -->
<g id="node3" class="node"><title>Node3</title>
<g id="a_node3"><a xlink:href="classIRemoteCommand.html" target="_top" xlink:title="IRemoteCommand">
<polygon fill="white" stroke="black" points="84,-56.5 84,-75.5 190,-75.5 190,-56.5 84,-56.5"/>
<text text-anchor="middle" x="137" y="-63.5" font-family="Verdana" font-size="10.00">IRemoteCommand</text>
</a>
</g>
</g>
<!-- Node3&#45;&gt;Node1 -->
<g id="edge2" class="edge"><title>Node3&#45;&gt;Node1</title>
<path fill="none" stroke="midnightblue" d="M121.321,-48.7175C112.155,-39.1997 100.947,-27.5608 93.427,-19.7511"/>
<polygon fill="midnightblue" stroke="midnightblue" points="118.956,-51.3075 128.413,-56.083 123.998,-46.452 118.956,-51.3075"/>
</g>
</g>
</svg>
