<?xml version="1.0" encoding="UTF-8" standalone="no"?>
<!DOCTYPE svg PUBLIC "-//W3C//DTD SVG 1.1//EN"
 "http://www.w3.org/Graphics/SVG/1.1/DTD/svg11.dtd">
<!-- Generated by graphviz version 2.38.0 (20140413.2041)
 -->
<!-- Title: CConfigurableElement::getListOfElementsWithMapping Pages: 1 -->
<svg width="331pt" height="57pt"
 viewBox="0.00 0.00 331.00 57.00" xmlns="http://www.w3.org/2000/svg" xmlns:xlink="http://www.w3.org/1999/xlink">
<g id="graph0" class="graph" transform="scale(1 1) rotate(0) translate(4 53)">
<title>CConfigurableElement::getListOfElementsWithMapping</title>
<polygon fill="white" stroke="none" points="-4,4 -4,-53 327,-53 327,4 -4,4"/>
<!-- Node1 -->
<g id="node1" class="node"><title>Node1</title>
<polygon fill="#bfbfbf" stroke="black" points="0,-0.5 0,-30.5 171,-30.5 171,-0.5 0,-0.5"/>
<text text-anchor="start" x="8" y="-18.5" font-family="Verdana" font-size="10.00">CConfigurableElement</text>
<text text-anchor="middle" x="85.5" y="-7.5" font-family="Verdana" font-size="10.00">::getListOfElementsWithMapping</text>
</g>
<!-- Node1&#45;&gt;Node1 -->
<g id="edge2" class="edge"><title>Node1&#45;&gt;Node1</title>
<path fill="none" stroke="midnightblue" d="M54.4798,-30.659C46.9998,-40.0566 57.3398,-49 85.5,-49 102.66,-49 113.203,-45.679 117.128,-40.9579"/>
<polygon fill="midnightblue" stroke="midnightblue" points="120.604,-40.4352 116.52,-30.659 113.616,-40.848 120.604,-40.4352"/>
</g>
<!-- Node2 -->
<g id="node2" class="node"><title>Node2</title>
<g id="a_node2"><a xlink:href="classCElement.html#a7987056bec3cbc71bed07cc88b060cf0" target="_top" xlink:title="CElement::getParent">
<polygon fill="white" stroke="black" points="207,-6 207,-25 323,-25 323,-6 207,-6"/>
<text text-anchor="middle" x="265" y="-13" font-family="Verdana" font-size="10.00">CElement::getParent</text>
</a>
</g>
</g>
<!-- Node1&#45;&gt;Node2 -->
<g id="edge1" class="edge"><title>Node1&#45;&gt;Node2</title>
<path fill="none" stroke="midnightblue" d="M171.091,-15.5C179.725,-15.5 188.41,-15.5 196.821,-15.5"/>
<polygon fill="midnightblue" stroke="midnightblue" points="196.922,-19.0001 206.922,-15.5 196.922,-12.0001 196.922,-19.0001"/>
</g>
</g>
</svg>
