<?xml version="1.0" encoding="UTF-8" standalone="no"?>
<!DOCTYPE svg PUBLIC "-//W3C//DTD SVG 1.1//EN"
 "http://www.w3.org/Graphics/SVG/1.1/DTD/svg11.dtd">
<!-- Generated by graphviz version 2.38.0 (20140413.2041)
 -->
<!-- Title: CXmlElement::getAttributeInteger Pages: 1 -->
<svg width="538pt" height="372pt"
 viewBox="0.00 0.00 538.00 371.50" xmlns="http://www.w3.org/2000/svg" xmlns:xlink="http://www.w3.org/1999/xlink">
<g id="graph0" class="graph" transform="scale(1 1) rotate(0) translate(4 367.5)">
<title>CXmlElement::getAttributeInteger</title>
<polygon fill="white" stroke="none" points="-4,4 -4,-367.5 534,-367.5 534,4 -4,4"/>
<!-- Node1 -->
<g id="node1" class="node"><title>Node1</title>
<polygon fill="#bfbfbf" stroke="black" points="0,-161 0,-191 145,-191 145,-161 0,-161"/>
<text text-anchor="start" x="8" y="-179" font-family="Verdana" font-size="10.00">CXmlElement::getAttribute</text>
<text text-anchor="middle" x="72.5" y="-168" font-family="Verdana" font-size="10.00">Integer</text>
</g>
<!-- Node2 -->
<g id="node2" class="node"><title>Node2</title>
<g id="a_node2"><a xlink:href="classCBitParameterBlockType.html#a71df01e5ca9d73091f7b5845185915a4" target="_top" xlink:title="CBitParameterBlockType\l::fromXml">
<polygon fill="white" stroke="black" points="209,-333 209,-363 342,-363 342,-333 209,-333"/>
<text text-anchor="start" x="217" y="-351" font-family="Verdana" font-size="10.00">CBitParameterBlockType</text>
<text text-anchor="middle" x="275.5" y="-340" font-family="Verdana" font-size="10.00">::fromXml</text>
</a>
</g>
</g>
<!-- Node1&#45;&gt;Node2 -->
<g id="edge1" class="edge"><title>Node1&#45;&gt;Node2</title>
<path fill="none" stroke="midnightblue" d="M84.6897,-200.715C101.024,-233.935 134.584,-292.454 181,-324 189.316,-329.652 198.871,-333.973 208.626,-337.277"/>
<polygon fill="midnightblue" stroke="midnightblue" points="87.6482,-198.789 80.1781,-191.276 81.3325,-201.807 87.6482,-198.789"/>
</g>
<!-- Node3 -->
<g id="node3" class="node"><title>Node3</title>
<g id="a_node3"><a xlink:href="classCBitParameterType.html#a76b208c42677a4a7a90494f348924403" target="_top" xlink:title="CBitParameterType::\lfromXml">
<polygon fill="white" stroke="black" points="219,-284 219,-314 332,-314 332,-284 219,-284"/>
<text text-anchor="start" x="227" y="-302" font-family="Verdana" font-size="10.00">CBitParameterType::</text>
<text text-anchor="middle" x="275.5" y="-291" font-family="Verdana" font-size="10.00">fromXml</text>
</a>
</g>
</g>
<!-- Node1&#45;&gt;Node3 -->
<g id="edge2" class="edge"><title>Node1&#45;&gt;Node3</title>
<path fill="none" stroke="midnightblue" d="M92.3501,-199.015C112.127,-221.659 145.262,-255.58 181,-275 192.633,-281.321 205.99,-286.027 218.9,-289.512"/>
<polygon fill="midnightblue" stroke="midnightblue" points="94.8493,-196.552 85.6881,-191.23 89.5309,-201.103 94.8493,-196.552"/>
</g>
<!-- Node4 -->
<g id="node4" class="node"><title>Node4</title>
<g id="a_node4"><a xlink:href="classCEnumParameterType.html#a9822e2ea066ea375f50bdc9c46808da2" target="_top" xlink:title="CEnumParameterType\l::fromXml">
<polygon fill="white" stroke="black" points="214.5,-235 214.5,-265 336.5,-265 336.5,-235 214.5,-235"/>
<text text-anchor="start" x="222.5" y="-253" font-family="Verdana" font-size="10.00">CEnumParameterType</text>
<text text-anchor="middle" x="275.5" y="-242" font-family="Verdana" font-size="10.00">::fromXml</text>
</a>
</g>
</g>
<!-- Node1&#45;&gt;Node4 -->
<g id="edge3" class="edge"><title>Node1&#45;&gt;Node4</title>
<path fill="none" stroke="midnightblue" d="M111.299,-195.665C131.586,-205.683 157.24,-217.507 181,-226 191.573,-229.78 203.016,-233.225 214.15,-236.251"/>
<polygon fill="midnightblue" stroke="midnightblue" points="112.603,-192.404 102.093,-191.062 109.472,-198.665 112.603,-192.404"/>
</g>
<!-- Node5 -->
<g id="node5" class="node"><title>Node5</title>
<g id="a_node5"><a xlink:href="classCFixedPointParameterType.html#a58d031a099f032135417110023dad31e" target="_top" xlink:title="CFixedPointParameterType\l::fromXml">
<polygon fill="white" stroke="black" points="204,-186 204,-216 347,-216 347,-186 204,-186"/>
<text text-anchor="start" x="212" y="-204" font-family="Verdana" font-size="10.00">CFixedPointParameterType</text>
<text text-anchor="middle" x="275.5" y="-193" font-family="Verdana" font-size="10.00">::fromXml</text>
</a>
</g>
</g>
<!-- Node1&#45;&gt;Node5 -->
<g id="edge4" class="edge"><title>Node1&#45;&gt;Node5</title>
<path fill="none" stroke="midnightblue" d="M155.157,-186.156C171.29,-188.163 188.094,-190.253 203.826,-192.21"/>
<polygon fill="midnightblue" stroke="midnightblue" points="155.57,-182.681 145.214,-184.92 154.706,-189.627 155.57,-182.681"/>
</g>
<!-- Node6 -->
<g id="node6" class="node"><title>Node6</title>
<g id="a_node6"><a xlink:href="classCIntegerParameterType.html#a8d8e329f5f61b6e50108e7fe1a7f7446" target="_top" xlink:title="CIntegerParameterType\l::fromXml">
<polygon fill="white" stroke="black" points="211.5,-137 211.5,-167 339.5,-167 339.5,-137 211.5,-137"/>
<text text-anchor="start" x="219.5" y="-155" font-family="Verdana" font-size="10.00">CIntegerParameterType</text>
<text text-anchor="middle" x="275.5" y="-144" font-family="Verdana" font-size="10.00">::fromXml</text>
</a>
</g>
</g>
<!-- Node1&#45;&gt;Node6 -->
<g id="edge5" class="edge"><title>Node1&#45;&gt;Node6</title>
<path fill="none" stroke="midnightblue" d="M155.227,-166.242C173.99,-164.001 193.658,-161.653 211.488,-159.524"/>
<polygon fill="midnightblue" stroke="midnightblue" points="154.729,-162.776 145.214,-167.437 155.559,-169.727 154.729,-162.776"/>
</g>
<!-- Node7 -->
<g id="node7" class="node"><title>Node7</title>
<g id="a_node7"><a xlink:href="classCParameterFrameworkConfiguration.html#a9d9882f3de792f4f5a84e8a3c095e2dd" target="_top" xlink:title="CParameterFrameworkConfiguration\l::fromXml">
<polygon fill="white" stroke="black" points="181,-88 181,-118 370,-118 370,-88 181,-88"/>
<text text-anchor="start" x="189" y="-106" font-family="Verdana" font-size="10.00">CParameterFrameworkConfiguration</text>
<text text-anchor="middle" x="275.5" y="-95" font-family="Verdana" font-size="10.00">::fromXml</text>
</a>
</g>
</g>
<!-- Node1&#45;&gt;Node7 -->
<g id="edge6" class="edge"><title>Node1&#45;&gt;Node7</title>
<path fill="none" stroke="midnightblue" d="M113.146,-156.485C133.179,-147.093 158.049,-136.134 181,-128 191.136,-124.408 202.048,-121.049 212.714,-118.032"/>
<polygon fill="midnightblue" stroke="midnightblue" points="111.555,-153.366 104.019,-160.813 114.554,-159.691 111.555,-153.366"/>
</g>
<!-- Node8 -->
<g id="node8" class="node"><title>Node8</title>
<g id="a_node8"><a xlink:href="classCStringParameterType.html#a756cad076226c0ef05f99e4d19efae53" target="_top" xlink:title="CStringParameterType\l::fromXml">
<polygon fill="white" stroke="black" points="214,-39 214,-69 337,-69 337,-39 214,-39"/>
<text text-anchor="start" x="222" y="-57" font-family="Verdana" font-size="10.00">CStringParameterType</text>
<text text-anchor="middle" x="275.5" y="-46" font-family="Verdana" font-size="10.00">::fromXml</text>
</a>
</g>
</g>
<!-- Node1&#45;&gt;Node8 -->
<g id="edge7" class="edge"><title>Node1&#45;&gt;Node8</title>
<path fill="none" stroke="midnightblue" d="M92.8202,-153.169C112.741,-131.052 145.786,-98.1315 181,-79 191.04,-73.5454 202.343,-69.2246 213.53,-65.8201"/>
<polygon fill="midnightblue" stroke="midnightblue" points="90.092,-150.971 86.0949,-160.783 95.3384,-155.605 90.092,-150.971"/>
</g>
<!-- Node9 -->
<g id="node9" class="node"><title>Node9</title>
<g id="a_node9"><a xlink:href="classCTypeElement.html#a8f3a08cd11a7db4fde3bd69dde5c8b66" target="_top" xlink:title="CTypeElement::fromXml">
<polygon fill="white" stroke="black" points="210,-0.5 210,-19.5 341,-19.5 341,-0.5 210,-0.5"/>
<text text-anchor="middle" x="275.5" y="-7.5" font-family="Verdana" font-size="10.00">CTypeElement::fromXml</text>
</a>
</g>
</g>
<!-- Node1&#45;&gt;Node9 -->
<g id="edge8" class="edge"><title>Node1&#45;&gt;Node9</title>
<path fill="none" stroke="midnightblue" d="M84.5997,-151.348C100.831,-118.264 134.272,-60.1775 181,-30 189.646,-24.4165 199.588,-20.3644 209.691,-17.4295"/>
<polygon fill="midnightblue" stroke="midnightblue" points="81.2599,-150.22 80.1193,-160.754 87.5796,-153.231 81.2599,-150.22"/>
</g>
<!-- Node10 -->
<g id="node10" class="node"><title>Node10</title>
<g id="a_node10"><a xlink:href="classCSubsystem.html#aa114a31f4aa4b0f47b3c616b721854d4" target="_top" xlink:title="CSubsystem::fromXml">
<polygon fill="white" stroke="black" points="406,-0.5 406,-19.5 530,-19.5 530,-0.5 406,-0.5"/>
<text text-anchor="middle" x="468" y="-7.5" font-family="Verdana" font-size="10.00">CSubsystem::fromXml</text>
</a>
</g>
</g>
<!-- Node9&#45;&gt;Node10 -->
<g id="edge9" class="edge"><title>Node9&#45;&gt;Node10</title>
<path fill="none" stroke="midnightblue" d="M351.464,-10C369.528,-10 388.613,-10 405.954,-10"/>
<polygon fill="midnightblue" stroke="midnightblue" points="351.26,-6.5001 341.26,-10 351.26,-13.5001 351.26,-6.5001"/>
</g>
</g>
</svg>
