<?xml version="1.0" encoding="UTF-8" standalone="no"?>
<!DOCTYPE svg PUBLIC "-//W3C//DTD SVG 1.1//EN"
 "http://www.w3.org/Graphics/SVG/1.1/DTD/svg11.dtd">
<!-- Generated by graphviz version 2.38.0 (20140413.2041)
 -->
<!-- Title: CConfigurableDomains::saveConfiguration Pages: 1 -->
<svg width="773pt" height="88pt"
 viewBox="0.00 0.00 773.00 88.00" xmlns="http://www.w3.org/2000/svg" xmlns:xlink="http://www.w3.org/1999/xlink">
<g id="graph0" class="graph" transform="scale(1 1) rotate(0) translate(4 84)">
<title>CConfigurableDomains::saveConfiguration</title>
<polygon fill="white" stroke="none" points="-4,4 -4,-84 769,-84 769,4 -4,4"/>
<!-- Node1 -->
<g id="node1" class="node"><title>Node1</title>
<polygon fill="#bfbfbf" stroke="black" points="0,-24.5 0,-54.5 126,-54.5 126,-24.5 0,-24.5"/>
<text text-anchor="start" x="8" y="-42.5" font-family="Verdana" font-size="10.00">CConfigurableDomains</text>
<text text-anchor="middle" x="63" y="-31.5" font-family="Verdana" font-size="10.00">::saveConfiguration</text>
</g>
<!-- Node2 -->
<g id="node2" class="node"><title>Node2</title>
<g id="a_node2"><a xlink:href="classCConfigurableDomains.html#a4dce38a1560b6e33871d3fa2d85cc449" target="_top" xlink:title="CConfigurableDomains\l::findConfigurableDomain">
<polygon fill="white" stroke="black" points="162,-49.5 162,-79.5 299,-79.5 299,-49.5 162,-49.5"/>
<text text-anchor="start" x="170" y="-67.5" font-family="Verdana" font-size="10.00">CConfigurableDomains</text>
<text text-anchor="middle" x="230.5" y="-56.5" font-family="Verdana" font-size="10.00">::findConfigurableDomain</text>
</a>
</g>
</g>
<!-- Node1&#45;&gt;Node2 -->
<g id="edge1" class="edge"><title>Node1&#45;&gt;Node2</title>
<path fill="none" stroke="midnightblue" d="M126.097,-48.8802C134.469,-50.1449 143.143,-51.4552 151.745,-52.7545"/>
<polygon fill="midnightblue" stroke="midnightblue" points="151.376,-56.2384 161.787,-54.2714 152.422,-49.3169 151.376,-56.2384"/>
</g>
<!-- Node4 -->
<g id="node4" class="node"><title>Node4</title>
<g id="a_node4"><a xlink:href="classCConfigurableDomain.html#a7656ea4134ae47e8a19e1565c16323f0" target="_top" xlink:title="CConfigurableDomain\l::saveConfiguration">
<polygon fill="white" stroke="black" points="170,-0.5 170,-30.5 291,-30.5 291,-0.5 170,-0.5"/>
<text text-anchor="start" x="178" y="-18.5" font-family="Verdana" font-size="10.00">CConfigurableDomain</text>
<text text-anchor="middle" x="230.5" y="-7.5" font-family="Verdana" font-size="10.00">::saveConfiguration</text>
</a>
</g>
</g>
<!-- Node1&#45;&gt;Node4 -->
<g id="edge3" class="edge"><title>Node1&#45;&gt;Node4</title>
<path fill="none" stroke="midnightblue" d="M126.097,-30.495C137.052,-28.9064 148.523,-27.2429 159.673,-25.626"/>
<polygon fill="midnightblue" stroke="midnightblue" points="160.404,-29.0567 169.798,-24.1577 159.399,-22.1291 160.404,-29.0567"/>
</g>
<!-- Node3 -->
<g id="node3" class="node"><title>Node3</title>
<g id="a_node3"><a xlink:href="classCElement.html#a8595814a3159f32f874269907e70b260" target="_top" xlink:title="CElement::findChild">
<polygon fill="white" stroke="black" points="342.5,-55 342.5,-74 452.5,-74 452.5,-55 342.5,-55"/>
<text text-anchor="middle" x="397.5" y="-62" font-family="Verdana" font-size="10.00">CElement::findChild</text>
</a>
</g>
</g>
<!-- Node2&#45;&gt;Node3 -->
<g id="edge2" class="edge"><title>Node2&#45;&gt;Node3</title>
<path fill="none" stroke="midnightblue" d="M299.088,-64.5C310.014,-64.5 321.301,-64.5 332.147,-64.5"/>
<polygon fill="midnightblue" stroke="midnightblue" points="332.385,-68.0001 342.385,-64.5 332.385,-61.0001 332.385,-68.0001"/>
</g>
<!-- Node5 -->
<g id="node5" class="node"><title>Node5</title>
<g id="a_node5"><a xlink:href="classCDomainConfiguration.html#aff0adeb0eb6645ef3ae8a4b75c4a7892" target="_top" xlink:title="CDomainConfiguration\l::save">
<polygon fill="white" stroke="black" points="335,-0.5 335,-30.5 460,-30.5 460,-0.5 335,-0.5"/>
<text text-anchor="start" x="343" y="-18.5" font-family="Verdana" font-size="10.00">CDomainConfiguration</text>
<text text-anchor="middle" x="397.5" y="-7.5" font-family="Verdana" font-size="10.00">::save</text>
</a>
</g>
</g>
<!-- Node4&#45;&gt;Node5 -->
<g id="edge4" class="edge"><title>Node4&#45;&gt;Node5</title>
<path fill="none" stroke="midnightblue" d="M291.069,-15.5C301.953,-15.5 313.415,-15.5 324.612,-15.5"/>
<polygon fill="midnightblue" stroke="midnightblue" points="324.796,-19.0001 334.796,-15.5 324.796,-12.0001 324.796,-19.0001"/>
</g>
<!-- Node6 -->
<g id="node6" class="node"><title>Node6</title>
<g id="a_node6"><a xlink:href="classCAreaConfiguration.html#a0ab61255d58c402f059aceb6668b943d" target="_top" xlink:title="CAreaConfiguration\l::save">
<polygon fill="white" stroke="black" points="496,-0.5 496,-30.5 606,-30.5 606,-0.5 496,-0.5"/>
<text text-anchor="start" x="504" y="-18.5" font-family="Verdana" font-size="10.00">CAreaConfiguration</text>
<text text-anchor="middle" x="551" y="-7.5" font-family="Verdana" font-size="10.00">::save</text>
</a>
</g>
</g>
<!-- Node5&#45;&gt;Node6 -->
<g id="edge5" class="edge"><title>Node5&#45;&gt;Node6</title>
<path fill="none" stroke="midnightblue" d="M460.121,-15.5C468.508,-15.5 477.134,-15.5 485.568,-15.5"/>
<polygon fill="midnightblue" stroke="midnightblue" points="485.733,-19.0001 495.733,-15.5 485.733,-12.0001 485.733,-19.0001"/>
</g>
<!-- Node7 -->
<g id="node7" class="node"><title>Node7</title>
<g id="a_node7"><a xlink:href="classCConfigurableElement.html#aad502a1139a10faa1a87fd1e033e4ad4" target="_top" xlink:title="CConfigurableElement\l::getOffset">
<polygon fill="white" stroke="black" points="642,-0.5 642,-30.5 765,-30.5 765,-0.5 642,-0.5"/>
<text text-anchor="start" x="650" y="-18.5" font-family="Verdana" font-size="10.00">CConfigurableElement</text>
<text text-anchor="middle" x="703.5" y="-7.5" font-family="Verdana" font-size="10.00">::getOffset</text>
</a>
</g>
</g>
<!-- Node6&#45;&gt;Node7 -->
<g id="edge6" class="edge"><title>Node6&#45;&gt;Node7</title>
<path fill="none" stroke="midnightblue" d="M606.334,-15.5C614.625,-15.5 623.283,-15.5 631.862,-15.5"/>
<polygon fill="midnightblue" stroke="midnightblue" points="631.869,-19.0001 641.869,-15.5 631.869,-12.0001 631.869,-19.0001"/>
</g>
</g>
</svg>
