<?xml version="1.0" encoding="UTF-8" standalone="no"?>
<!DOCTYPE svg PUBLIC "-//W3C//DTD SVG 1.1//EN"
 "http://www.w3.org/Graphics/SVG/1.1/DTD/svg11.dtd">
<!-- Generated by graphviz version 2.38.0 (20140413.2041)
 -->
<!-- Title: CConfigurableDomain::listAssociatedToElements Pages: 1 -->
<svg width="313pt" height="39pt"
 viewBox="0.00 0.00 313.00 39.00" xmlns="http://www.w3.org/2000/svg" xmlns:xlink="http://www.w3.org/1999/xlink">
<g id="graph0" class="graph" transform="scale(1 1) rotate(0) translate(4 35)">
<title>CConfigurableDomain::listAssociatedToElements</title>
<polygon fill="white" stroke="none" points="-4,4 -4,-35 309,-35 309,4 -4,4"/>
<!-- Node1 -->
<g id="node1" class="node"><title>Node1</title>
<polygon fill="#bfbfbf" stroke="black" points="0,-0.5 0,-30.5 143,-30.5 143,-0.5 0,-0.5"/>
<text text-anchor="start" x="8" y="-18.5" font-family="Verdana" font-size="10.00">CConfigurableDomain</text>
<text text-anchor="middle" x="71.5" y="-7.5" font-family="Verdana" font-size="10.00">::listAssociatedToElements</text>
</g>
<!-- Node2 -->
<g id="node2" class="node"><title>Node2</title>
<g id="a_node2"><a xlink:href="classCConfigurableDomains.html#a9bd88d865d285a699d7b03d558ce9ea2" target="_top" xlink:title="CConfigurableDomains\l::listDomainElements">
<polygon fill="white" stroke="black" points="179,-0.5 179,-30.5 305,-30.5 305,-0.5 179,-0.5"/>
<text text-anchor="start" x="187" y="-18.5" font-family="Verdana" font-size="10.00">CConfigurableDomains</text>
<text text-anchor="middle" x="242" y="-7.5" font-family="Verdana" font-size="10.00">::listDomainElements</text>
</a>
</g>
</g>
<!-- Node1&#45;&gt;Node2 -->
<g id="edge1" class="edge"><title>Node1&#45;&gt;Node2</title>
<path fill="none" stroke="midnightblue" d="M153.475,-15.5C162.033,-15.5 170.636,-15.5 178.931,-15.5"/>
<polygon fill="midnightblue" stroke="midnightblue" points="153.471,-12.0001 143.471,-15.5 153.471,-19.0001 153.471,-12.0001"/>
</g>
</g>
</svg>
