<?xml version="1.0" encoding="UTF-8" standalone="no"?>
<!DOCTYPE svg PUBLIC "-//W3C//DTD SVG 1.1//EN"
 "http://www.w3.org/Graphics/SVG/1.1/DTD/svg11.dtd">
<!-- Generated by graphviz version 2.36.0 (20140111.2315)
 -->
<!-- Title: CTypeElement::fromXml Pages: 1 -->
<svg width="518pt" height="46pt"
 viewBox="0.00 0.00 518.00 46.00" xmlns="http://www.w3.org/2000/svg" xmlns:xlink="http://www.w3.org/1999/xlink">
<g id="graph0" class="graph" transform="scale(1 1) rotate(0) translate(4 42)">
<title>CTypeElement::fromXml</title>
<polygon fill="white" stroke="none" points="-4,4 -4,-42 514,-42 514,4 -4,4"/>
<!-- Node1 -->
<g id="node1" class="node"><title>Node1</title>
<polygon fill="#bfbfbf" stroke="black" points="0.5,-0.5 0.5,-19.5 131.5,-19.5 131.5,-0.5 0.5,-0.5"/>
<text text-anchor="middle" x="66" y="-7.5" font-family="Verdana" font-size="10.00">CTypeElement::fromXml</text>
</g>
<!-- Node2 -->
<g id="node2" class="node"><title>Node2</title>
<g id="a_node2"><a xlink:href="classCTypeElement.html#aa8d910c6cf51c03d03f183a6a81a8372" target="_top" xlink:title="CTypeElement::getMappingData">
<polygon fill="white" stroke="black" points="168,-0.5 168,-19.5 338,-19.5 338,-0.5 168,-0.5"/>
<text text-anchor="middle" x="253" y="-7.5" font-family="Verdana" font-size="10.00">CTypeElement::getMappingData</text>
</a>
</g>
</g>
<!-- Node1&#45;&gt;Node2 -->
<g id="edge1" class="edge"><title>Node1&#45;&gt;Node2</title>
<path fill="none" stroke="midnightblue" d="M131.704,-10C140.092,-10 148.816,-10 157.563,-10"/>
<polygon fill="midnightblue" stroke="midnightblue" points="157.823,-13.5001 167.823,-10 157.823,-6.5001 157.823,-13.5001"/>
</g>
<!-- Node2&#45;&gt;Node2 -->
<g id="edge2" class="edge"><title>Node2&#45;&gt;Node2</title>
<path fill="none" stroke="midnightblue" d="M224.332,-19.7571C210.385,-28.5653 219.941,-38 253,-38 275.728,-38 287.347,-33.5406 287.857,-27.8913"/>
<polygon fill="midnightblue" stroke="midnightblue" points="290.509,-25.5958 281.668,-19.7571 284.938,-29.8346 290.509,-25.5958"/>
</g>
<!-- Node3 -->
<g id="node3" class="node"><title>Node3</title>
<g id="a_node3"><a xlink:href="classCMappingData.html#a7a2d5172201c72ab434175fadc1f3053" target="_top" xlink:title="CMappingData::getValue">
<polygon fill="white" stroke="black" points="374.5,-0.5 374.5,-19.5 509.5,-19.5 509.5,-0.5 374.5,-0.5"/>
<text text-anchor="middle" x="442" y="-7.5" font-family="Verdana" font-size="10.00">CMappingData::getValue</text>
</a>
</g>
</g>
<!-- Node2&#45;&gt;Node3 -->
<g id="edge3" class="edge"><title>Node2&#45;&gt;Node3</title>
<path fill="none" stroke="midnightblue" d="M338.2,-10C346.91,-10 355.728,-10 364.349,-10"/>
<polygon fill="midnightblue" stroke="midnightblue" points="364.36,-13.5001 374.36,-10 364.36,-6.5001 364.36,-13.5001"/>
</g>
</g>
</svg>
