<?xml version="1.0" encoding="UTF-8" standalone="no"?>
<!DOCTYPE svg PUBLIC "-//W3C//DTD SVG 1.1//EN"
 "http://www.w3.org/Graphics/SVG/1.1/DTD/svg11.dtd">
<!-- Generated by graphviz version 2.38.0 (20140413.2041)
 -->
<!-- Title: CConfigurableDomain::deleteConfiguration Pages: 1 -->
<svg width="294pt" height="104pt"
 viewBox="0.00 0.00 294.00 104.00" xmlns="http://www.w3.org/2000/svg" xmlns:xlink="http://www.w3.org/1999/xlink">
<g id="graph0" class="graph" transform="scale(1 1) rotate(0) translate(4 100)">
<title>CConfigurableDomain::deleteConfiguration</title>
<polygon fill="white" stroke="none" points="-4,4 -4,-100 290,-100 290,4 -4,4"/>
<!-- Node1 -->
<g id="node1" class="node"><title>Node1</title>
<polygon fill="#bfbfbf" stroke="black" points="0,-33 0,-63 121,-63 121,-33 0,-33"/>
<text text-anchor="start" x="8" y="-51" font-family="Verdana" font-size="10.00">CConfigurableDomain</text>
<text text-anchor="middle" x="60.5" y="-40" font-family="Verdana" font-size="10.00">::deleteConfiguration</text>
</g>
<!-- Node2 -->
<g id="node2" class="node"><title>Node2</title>
<g id="a_node2"><a xlink:href="classCElement.html#a1dee87366d307b43bf8851dd2614c160" target="_top" xlink:title="CElement::log_info">
<polygon fill="white" stroke="black" points="168.5,-76.5 168.5,-95.5 274.5,-95.5 274.5,-76.5 168.5,-76.5"/>
<text text-anchor="middle" x="221.5" y="-83.5" font-family="Verdana" font-size="10.00">CElement::log_info</text>
</a>
</g>
</g>
<!-- Node1&#45;&gt;Node2 -->
<g id="edge1" class="edge"><title>Node1&#45;&gt;Node2</title>
<path fill="none" stroke="midnightblue" d="M121.158,-62.2579C137.35,-66.1277 154.715,-70.2778 170.325,-74.0086"/>
<polygon fill="midnightblue" stroke="midnightblue" points="169.761,-77.4722 180.301,-76.3926 171.388,-70.6639 169.761,-77.4722"/>
</g>
<!-- Node3 -->
<g id="node3" class="node"><title>Node3</title>
<g id="a_node3"><a xlink:href="classCElement.html#a49581fb6412e29e932962acd82d52d6a" target="_top" xlink:title="CElement::getName">
<polygon fill="white" stroke="black" points="164.5,-38.5 164.5,-57.5 278.5,-57.5 278.5,-38.5 164.5,-38.5"/>
<text text-anchor="middle" x="221.5" y="-45.5" font-family="Verdana" font-size="10.00">CElement::getName</text>
</a>
</g>
</g>
<!-- Node1&#45;&gt;Node3 -->
<g id="edge2" class="edge"><title>Node1&#45;&gt;Node3</title>
<path fill="none" stroke="midnightblue" d="M121.158,-48C132.02,-48 143.41,-48 154.444,-48"/>
<polygon fill="midnightblue" stroke="midnightblue" points="154.452,-51.5001 164.452,-48 154.452,-44.5001 154.452,-51.5001"/>
</g>
<!-- Node4 -->
<g id="node4" class="node"><title>Node4</title>
<g id="a_node4"><a xlink:href="classCElement.html#a4aec98bde47367325cf332a5dc471eb9" target="_top" xlink:title="CElement::removeChild">
<polygon fill="white" stroke="black" points="157,-0.5 157,-19.5 286,-19.5 286,-0.5 157,-0.5"/>
<text text-anchor="middle" x="221.5" y="-7.5" font-family="Verdana" font-size="10.00">CElement::removeChild</text>
</a>
</g>
</g>
<!-- Node1&#45;&gt;Node4 -->
<g id="edge3" class="edge"><title>Node1&#45;&gt;Node4</title>
<path fill="none" stroke="midnightblue" d="M121.158,-33.7421C137.35,-29.8723 154.715,-25.7222 170.325,-21.9914"/>
<polygon fill="midnightblue" stroke="midnightblue" points="171.388,-25.3361 180.301,-19.6074 169.761,-18.5278 171.388,-25.3361"/>
</g>
</g>
</svg>
