<?xml version="1.0" encoding="UTF-8" standalone="no"?>
<!DOCTYPE svg PUBLIC "-//W3C//DTD SVG 1.1//EN"
 "http://www.w3.org/Graphics/SVG/1.1/DTD/svg11.dtd">
<!-- Generated by graphviz version 2.36.0 (20140111.2315)
 -->
<!-- Title: CConfigurableDomain::getLastAppliedConfigurationName Pages: 1 -->
<svg width="394pt" height="38pt"
 viewBox="0.00 0.00 394.00 38.00" xmlns="http://www.w3.org/2000/svg" xmlns:xlink="http://www.w3.org/1999/xlink">
<g id="graph0" class="graph" transform="scale(1 1) rotate(0) translate(4 34)">
<title>CConfigurableDomain::getLastAppliedConfigurationName</title>
<polygon fill="white" stroke="none" points="-4,4 -4,-34 390,-34 390,4 -4,4"/>
<!-- Node1 -->
<g id="node1" class="node"><title>Node1</title>
<polygon fill="#bfbfbf" stroke="black" points="0.5,-0 0.5,-30 187.5,-30 187.5,-0 0.5,-0"/>
<text text-anchor="start" x="8.5" y="-18" font-family="Verdana" font-size="10.00">CConfigurableDomain</text>
<text text-anchor="middle" x="94" y="-7" font-family="Verdana" font-size="10.00">::getLastAppliedConfigurationName</text>
</g>
<!-- Node2 -->
<g id="node2" class="node"><title>Node2</title>
<g id="a_node2"><a xlink:href="classCConfigurableDomains.html#a46ceaaf62295c80f621e2476a83352b1" target="_top" xlink:title="CConfigurableDomains\l::listLastAppliedConfigurations">
<polygon fill="white" stroke="black" points="224.5,-0 224.5,-30 385.5,-30 385.5,-0 224.5,-0"/>
<text text-anchor="start" x="232.5" y="-18" font-family="Verdana" font-size="10.00">CConfigurableDomains</text>
<text text-anchor="middle" x="305" y="-7" font-family="Verdana" font-size="10.00">::listLastAppliedConfigurations</text>
</a>
</g>
</g>
<!-- Node1&#45;&gt;Node2 -->
<g id="edge1" class="edge"><title>Node1&#45;&gt;Node2</title>
<path fill="none" stroke="midnightblue" d="M197.65,-15C206.586,-15 215.54,-15 224.25,-15"/>
<polygon fill="midnightblue" stroke="midnightblue" points="197.583,-11.5001 187.583,-15 197.583,-18.5001 197.583,-11.5001"/>
</g>
</g>
</svg>
