<?xml version="1.0" encoding="UTF-8" standalone="no"?>
<!DOCTYPE svg PUBLIC "-//W3C//DTD SVG 1.1//EN"
 "http://www.w3.org/Graphics/SVG/1.1/DTD/svg11.dtd">
<!-- Generated by graphviz version 2.36.0 (20140111.2315)
 -->
<!-- Title: CBitParameter Pages: 1 -->
<svg width="172pt" height="376pt"
 viewBox="0.00 0.00 172.00 376.00" xmlns="http://www.w3.org/2000/svg" xmlns:xlink="http://www.w3.org/1999/xlink">
<g id="graph0" class="graph" transform="scale(1 1) rotate(0) translate(4 372)">
<title>CBitParameter</title>
<polygon fill="white" stroke="none" points="-4,4 -4,-372 168,-372 168,4 -4,4"/>
<!-- Node1 -->
<g id="node1" class="node"><title>Node1</title>
<polygon fill="#bfbfbf" stroke="black" points="39,-0.5 39,-19.5 125,-19.5 125,-0.5 39,-0.5"/>
<text text-anchor="middle" x="82" y="-7.5" font-family="Verdana" font-size="10.00">CBitParameter</text>
</g>
<!-- Node2 -->
<g id="node2" class="node"><title>Node2</title>
<g id="a_node2"><a xlink:href="classCBaseParameter.html" target="_top" xlink:title="CBaseParameter">
<polygon fill="white" stroke="black" points="33,-56.5 33,-75.5 131,-75.5 131,-56.5 33,-56.5"/>
<text text-anchor="middle" x="82" y="-63.5" font-family="Verdana" font-size="10.00">CBaseParameter</text>
</a>
</g>
</g>
<!-- Node2&#45;&gt;Node1 -->
<g id="edge1" class="edge"><title>Node2&#45;&gt;Node1</title>
<path fill="none" stroke="midnightblue" d="M82,-45.8045C82,-36.9102 82,-26.7798 82,-19.7511"/>
<polygon fill="midnightblue" stroke="midnightblue" points="78.5001,-46.083 82,-56.083 85.5001,-46.083 78.5001,-46.083"/>
</g>
<!-- Node3 -->
<g id="node3" class="node"><title>Node3</title>
<g id="a_node3"><a xlink:href="classCInstanceConfigurableElement.html" target="_top" xlink:title="CInstanceConfigurableElement">
<polygon fill="white" stroke="black" points="0,-112.5 0,-131.5 164,-131.5 164,-112.5 0,-112.5"/>
<text text-anchor="middle" x="82" y="-119.5" font-family="Verdana" font-size="10.00">CInstanceConfigurableElement</text>
</a>
</g>
</g>
<!-- Node3&#45;&gt;Node2 -->
<g id="edge2" class="edge"><title>Node3&#45;&gt;Node2</title>
<path fill="none" stroke="midnightblue" d="M82,-101.805C82,-92.9102 82,-82.7798 82,-75.7511"/>
<polygon fill="midnightblue" stroke="midnightblue" points="78.5001,-102.083 82,-112.083 85.5001,-102.083 78.5001,-102.083"/>
</g>
<!-- Node4 -->
<g id="node4" class="node"><title>Node4</title>
<g id="a_node4"><a xlink:href="classCConfigurableElementWithMapping.html" target="_top" xlink:title="Base class for all Configurable Elements that can have a Mapping attribute. ">
<polygon fill="white" stroke="black" points="10.5,-169 10.5,-199 153.5,-199 153.5,-169 10.5,-169"/>
<text text-anchor="start" x="18.5" y="-187" font-family="Verdana" font-size="10.00">CConfigurableElementWith</text>
<text text-anchor="middle" x="82" y="-176" font-family="Verdana" font-size="10.00">Mapping</text>
</a>
</g>
</g>
<!-- Node4&#45;&gt;Node3 -->
<g id="edge3" class="edge"><title>Node4&#45;&gt;Node3</title>
<path fill="none" stroke="midnightblue" d="M82,-158.586C82,-149.074 82,-138.786 82,-131.731"/>
<polygon fill="midnightblue" stroke="midnightblue" points="78.5001,-158.781 82,-168.781 85.5001,-158.781 78.5001,-158.781"/>
</g>
<!-- Node5 -->
<g id="node5" class="node"><title>Node5</title>
<g id="a_node5"><a xlink:href="classCConfigurableElement.html" target="_top" xlink:title="CConfigurableElement">
<polygon fill="white" stroke="black" points="20.5,-236.5 20.5,-255.5 143.5,-255.5 143.5,-236.5 20.5,-236.5"/>
<text text-anchor="middle" x="82" y="-243.5" font-family="Verdana" font-size="10.00">CConfigurableElement</text>
</a>
</g>
</g>
<!-- Node5&#45;&gt;Node4 -->
<g id="edge4" class="edge"><title>Node5&#45;&gt;Node4</title>
<path fill="none" stroke="midnightblue" d="M82,-226.371C82,-217.585 82,-207.272 82,-199.141"/>
<polygon fill="midnightblue" stroke="midnightblue" points="78.5001,-226.403 82,-236.403 85.5001,-226.403 78.5001,-226.403"/>
</g>
<!-- Node6 -->
<g id="node6" class="node"><title>Node6</title>
<g id="a_node6"><a xlink:href="classCElement.html" target="_top" xlink:title="CElement">
<polygon fill="white" stroke="black" points="50.5,-292.5 50.5,-311.5 113.5,-311.5 113.5,-292.5 50.5,-292.5"/>
<text text-anchor="middle" x="82" y="-299.5" font-family="Verdana" font-size="10.00">CElement</text>
</a>
</g>
</g>
<!-- Node6&#45;&gt;Node5 -->
<g id="edge5" class="edge"><title>Node6&#45;&gt;Node5</title>
<path fill="none" stroke="midnightblue" d="M82,-281.805C82,-272.91 82,-262.78 82,-255.751"/>
<polygon fill="midnightblue" stroke="midnightblue" points="78.5001,-282.083 82,-292.083 85.5001,-282.083 78.5001,-282.083"/>
</g>
<!-- Node7 -->
<g id="node7" class="node"><title>Node7</title>
<polygon fill="white" stroke="#bfbfbf" points="12.5,-348.5 12.5,-367.5 69.5,-367.5 69.5,-348.5 12.5,-348.5"/>
<text text-anchor="middle" x="41" y="-355.5" font-family="Verdana" font-size="10.00">IXmlSink</text>
</g>
<!-- Node7&#45;&gt;Node6 -->
<g id="edge6" class="edge"><title>Node7&#45;&gt;Node6</title>
<path fill="none" stroke="midnightblue" d="M54.0172,-339.855C61.1167,-330.505 69.604,-319.327 75.3557,-311.751"/>
<polygon fill="midnightblue" stroke="midnightblue" points="51.0299,-338.002 47.7703,-348.083 56.605,-342.235 51.0299,-338.002"/>
</g>
<!-- Node8 -->
<g id="node8" class="node"><title>Node8</title>
<polygon fill="white" stroke="#bfbfbf" points="87.5,-348.5 87.5,-367.5 158.5,-367.5 158.5,-348.5 87.5,-348.5"/>
<text text-anchor="middle" x="123" y="-355.5" font-family="Verdana" font-size="10.00">IXmlSource</text>
</g>
<!-- Node8&#45;&gt;Node6 -->
<g id="edge7" class="edge"><title>Node8&#45;&gt;Node6</title>
<path fill="none" stroke="midnightblue" d="M109.983,-339.855C102.883,-330.505 94.396,-319.327 88.6443,-311.751"/>
<polygon fill="midnightblue" stroke="midnightblue" points="107.395,-342.235 116.23,-348.083 112.97,-338.002 107.395,-342.235"/>
</g>
</g>
</svg>
