<?xml version="1.0" encoding="UTF-8" standalone="no"?>
<!DOCTYPE svg PUBLIC "-//W3C//DTD SVG 1.1//EN"
 "http://www.w3.org/Graphics/SVG/1.1/DTD/svg11.dtd">
<!-- Generated by graphviz version 2.38.0 (20140413.2041)
 -->
<!-- Title: CTypeElement::fromXml Pages: 1 -->
<svg width="933pt" height="305pt"
 viewBox="0.00 0.00 933.00 305.19" xmlns="http://www.w3.org/2000/svg" xmlns:xlink="http://www.w3.org/1999/xlink">
<g id="graph0" class="graph" transform="scale(1 1) rotate(0) translate(4 301.193)">
<title>CTypeElement::fromXml</title>
<polygon fill="white" stroke="none" points="-4,4 -4,-301.193 929,-301.193 929,4 -4,4"/>
<!-- Node1 -->
<g id="node1" class="node"><title>Node1</title>
<polygon fill="#bfbfbf" stroke="black" points="0,-116.093 0,-135.093 131,-135.093 131,-116.093 0,-116.093"/>
<text text-anchor="middle" x="65.5" y="-123.093" font-family="Verdana" font-size="10.00">CTypeElement::fromXml</text>
</g>
<!-- Node2 -->
<g id="node2" class="node"><title>Node2</title>
<g id="a_node2"><a xlink:href="classCXmlElement.html#aacd4d202e3de66715641cc3bb89bd4b5" target="_top" xlink:title="CXmlElement::hasAttribute">
<polygon fill="white" stroke="black" points="779,-187.093 779,-206.093 925,-206.093 925,-187.093 779,-187.093"/>
<text text-anchor="middle" x="852" y="-194.093" font-family="Verdana" font-size="10.00">CXmlElement::hasAttribute</text>
</a>
</g>
</g>
<!-- Node1&#45;&gt;Node2 -->
<g id="edge1" class="edge"><title>Node1&#45;&gt;Node2</title>
<path fill="none" stroke="midnightblue" d="M70.8307,-135.335C82.322,-159.82 116.221,-223.75 167,-248.593 395.022,-360.149 717.524,-249.886 819.093,-209.851"/>
<polygon fill="midnightblue" stroke="midnightblue" points="820.505,-213.056 828.493,-206.096 817.908,-206.555 820.505,-213.056"/>
</g>
<!-- Node3 -->
<g id="node3" class="node"><title>Node3</title>
<g id="a_node3"><a xlink:href="classCXmlElement.html#a9df6d2d6b9fb1edfe5458497c2fe9574" target="_top" xlink:title="CXmlElement::getAttribute\lInteger">
<polygon fill="white" stroke="black" points="179.5,-88.5927 179.5,-118.593 324.5,-118.593 324.5,-88.5927 179.5,-88.5927"/>
<text text-anchor="start" x="187.5" y="-106.593" font-family="Verdana" font-size="10.00">CXmlElement::getAttribute</text>
<text text-anchor="middle" x="252" y="-95.5927" font-family="Verdana" font-size="10.00">Integer</text>
</a>
</g>
</g>
<!-- Node1&#45;&gt;Node3 -->
<g id="edge2" class="edge"><title>Node1&#45;&gt;Node3</title>
<path fill="none" stroke="midnightblue" d="M131.029,-117.898C143.328,-116.432 156.353,-114.879 169.109,-113.357"/>
<polygon fill="midnightblue" stroke="midnightblue" points="169.748,-116.806 179.263,-112.147 168.919,-109.855 169.748,-116.806"/>
</g>
<!-- Node4 -->
<g id="node4" class="node"><title>Node4</title>
<g id="a_node4"><a xlink:href="classCXmlElement.html#a4aacb946f656aab1e585e1aa8f63d4e2" target="_top" xlink:title="CXmlElement::getAttribute\lString">
<polygon fill="white" stroke="black" points="590.5,-48.5927 590.5,-78.5927 735.5,-78.5927 735.5,-48.5927 590.5,-48.5927"/>
<text text-anchor="start" x="598.5" y="-66.5927" font-family="Verdana" font-size="10.00">CXmlElement::getAttribute</text>
<text text-anchor="middle" x="663" y="-55.5927" font-family="Verdana" font-size="10.00">String</text>
</a>
</g>
</g>
<!-- Node1&#45;&gt;Node4 -->
<g id="edge5" class="edge"><title>Node1&#45;&gt;Node4</title>
<path fill="none" stroke="midnightblue" d="M72.5998,-116.091C86.4244,-95.558 122.431,-47.4588 167,-29.5927 318.203,31.0189 516.133,-16.4716 609.244,-45.4274"/>
<polygon fill="midnightblue" stroke="midnightblue" points="608.408,-48.8337 618.998,-48.5127 610.519,-42.1596 608.408,-48.8337"/>
</g>
<!-- Node5 -->
<g id="node5" class="node"><title>Node5</title>
<g id="a_node5"><a xlink:href="classCTypeElement.html#aa8d910c6cf51c03d03f183a6a81a8372" target="_top" xlink:title="CTypeElement::getMappingData">
<polygon fill="white" stroke="black" points="167,-202.093 167,-221.093 337,-221.093 337,-202.093 167,-202.093"/>
<text text-anchor="middle" x="252" y="-209.093" font-family="Verdana" font-size="10.00">CTypeElement::getMappingData</text>
</a>
</g>
</g>
<!-- Node1&#45;&gt;Node5 -->
<g id="edge6" class="edge"><title>Node1&#45;&gt;Node5</title>
<path fill="none" stroke="midnightblue" d="M80.6113,-135.23C99.5863,-147.867 134.684,-170.125 167,-184.593 179.135,-190.025 192.698,-194.878 205.325,-198.919"/>
<polygon fill="midnightblue" stroke="midnightblue" points="204.618,-202.364 215.206,-201.982 206.69,-195.678 204.618,-202.364"/>
</g>
<!-- Node7 -->
<g id="node7" class="node"><title>Node7</title>
<g id="a_node7"><a xlink:href="classCXmlSerializingContext.html#a32535de3d5fb180f216d837ee7d5326d" target="_top" xlink:title="CXmlSerializingContext\l::setError">
<polygon fill="white" stroke="black" points="188,-39.5927 188,-69.5927 316,-69.5927 316,-39.5927 188,-39.5927"/>
<text text-anchor="start" x="196" y="-57.5927" font-family="Verdana" font-size="10.00">CXmlSerializingContext</text>
<text text-anchor="middle" x="252" y="-46.5927" font-family="Verdana" font-size="10.00">::setError</text>
</a>
</g>
</g>
<!-- Node1&#45;&gt;Node7 -->
<g id="edge9" class="edge"><title>Node1&#45;&gt;Node7</title>
<path fill="none" stroke="midnightblue" d="M84.6459,-116.033C104.489,-105.835 137.412,-89.6578 167,-78.5927 172.46,-76.5506 178.175,-74.5807 183.944,-72.7074"/>
<polygon fill="midnightblue" stroke="midnightblue" points="185.179,-75.988 193.669,-69.6501 183.08,-69.3102 185.179,-75.988"/>
</g>
<!-- Node8 -->
<g id="node8" class="node"><title>Node8</title>
<g id="a_node8"><a xlink:href="classCXmlElement.html#ac47c56a3cad8ac7d1fe7579e833227c5" target="_top" xlink:title="CXmlElement::getPath">
<polygon fill="white" stroke="black" points="190,-138.093 190,-157.093 314,-157.093 314,-138.093 190,-138.093"/>
<text text-anchor="middle" x="252" y="-145.093" font-family="Verdana" font-size="10.00">CXmlElement::getPath</text>
</a>
</g>
</g>
<!-- Node1&#45;&gt;Node8 -->
<g id="edge10" class="edge"><title>Node1&#45;&gt;Node8</title>
<path fill="none" stroke="midnightblue" d="M131.029,-133.287C146.714,-135.157 163.577,-137.168 179.561,-139.074"/>
<polygon fill="midnightblue" stroke="midnightblue" points="179.572,-142.6 189.916,-140.309 180.401,-135.65 179.572,-142.6"/>
</g>
<!-- Node3&#45;&gt;Node4 -->
<g id="edge3" class="edge"><title>Node3&#45;&gt;Node4</title>
<path fill="none" stroke="midnightblue" d="M306.598,-88.5619C316.757,-85.4535 327.253,-82.0629 337,-78.5927 353.329,-72.7791 356.003,-66.9921 373,-63.5927 441.807,-49.8314 521.686,-51.1057 580.004,-55.0947"/>
<polygon fill="midnightblue" stroke="midnightblue" points="580.041,-58.6065 590.269,-55.8399 580.548,-51.6249 580.041,-58.6065"/>
</g>
<!-- Node4&#45;&gt;Node2 -->
<g id="edge4" class="edge"><title>Node4&#45;&gt;Node2</title>
<path fill="none" stroke="midnightblue" d="M685.451,-78.8495C721.181,-104.262 792.528,-155.005 828.769,-180.781"/>
<polygon fill="midnightblue" stroke="midnightblue" points="827.005,-183.822 837.183,-186.766 831.062,-178.118 827.005,-183.822"/>
</g>
<!-- Node5&#45;&gt;Node5 -->
<g id="edge7" class="edge"><title>Node5&#45;&gt;Node5</title>
<path fill="none" stroke="midnightblue" d="M223.332,-221.35C209.385,-230.158 218.941,-239.593 252,-239.593 274.728,-239.593 286.347,-235.133 286.857,-229.484"/>
<polygon fill="midnightblue" stroke="midnightblue" points="289.509,-227.188 280.668,-221.35 283.938,-231.427 289.509,-227.188"/>
</g>
<!-- Node6 -->
<g id="node6" class="node"><title>Node6</title>
<g id="a_node6"><a xlink:href="classCMappingData.html#a7a2d5172201c72ab434175fadc1f3053" target="_top" xlink:title="CMappingData::getValue">
<polygon fill="white" stroke="black" points="392.5,-225.093 392.5,-244.093 527.5,-244.093 527.5,-225.093 392.5,-225.093"/>
<text text-anchor="middle" x="460" y="-232.093" font-family="Verdana" font-size="10.00">CMappingData::getValue</text>
</a>
</g>
</g>
<!-- Node5&#45;&gt;Node6 -->
<g id="edge8" class="edge"><title>Node5&#45;&gt;Node6</title>
<path fill="none" stroke="midnightblue" d="M337.085,-220.981C352,-222.646 367.463,-224.373 382.164,-226.014"/>
<polygon fill="midnightblue" stroke="midnightblue" points="381.877,-229.504 392.204,-227.135 382.654,-222.547 381.877,-229.504"/>
</g>
<!-- Node8&#45;&gt;Node2 -->
<g id="edge12" class="edge"><title>Node8&#45;&gt;Node2</title>
<path fill="none" stroke="midnightblue" d="M283.733,-157.13C307.773,-164.137 342.177,-173.175 373,-177.593 510.821,-197.346 673.118,-199.376 768.733,-198.424"/>
<polygon fill="midnightblue" stroke="midnightblue" points="768.955,-201.922 778.915,-198.309 768.876,-194.922 768.955,-201.922"/>
</g>
<!-- Node8&#45;&gt;Node8 -->
<g id="edge17" class="edge"><title>Node8&#45;&gt;Node8</title>
<path fill="none" stroke="midnightblue" d="M223.332,-157.35C209.385,-166.158 218.941,-175.593 252,-175.593 274.728,-175.593 286.347,-171.133 286.857,-165.484"/>
<polygon fill="midnightblue" stroke="midnightblue" points="289.509,-163.188 280.668,-157.35 283.938,-167.427 289.509,-163.188"/>
</g>
<!-- Node9 -->
<g id="node9" class="node"><title>Node9</title>
<g id="a_node9"><a xlink:href="classCXmlElement.html#ab2e750aaad2b93b4d875d04b624de1c4" target="_top" xlink:title="CXmlElement::getType">
<polygon fill="white" stroke="black" points="398,-111.093 398,-130.093 522,-130.093 522,-111.093 398,-111.093"/>
<text text-anchor="middle" x="460" y="-118.093" font-family="Verdana" font-size="10.00">CXmlElement::getType</text>
</a>
</g>
</g>
<!-- Node8&#45;&gt;Node9 -->
<g id="edge11" class="edge"><title>Node8&#45;&gt;Node9</title>
<path fill="none" stroke="midnightblue" d="M314.249,-139.565C337.391,-136.532 363.917,-133.055 387.888,-129.913"/>
<polygon fill="midnightblue" stroke="midnightblue" points="388.527,-133.36 397.987,-128.59 387.617,-126.419 388.527,-133.36"/>
</g>
<!-- Node10 -->
<g id="node10" class="node"><title>Node10</title>
<g id="a_node10"><a xlink:href="classCXmlElement.html#a21b9cfd66e7cd6f33a889e099102ef89" target="_top" xlink:title="CXmlElement::getNameAttribute">
<polygon fill="white" stroke="black" points="373,-73.0927 373,-92.0927 547,-92.0927 547,-73.0927 373,-73.0927"/>
<text text-anchor="middle" x="460" y="-80.0927" font-family="Verdana" font-size="10.00">CXmlElement::getNameAttribute</text>
</a>
</g>
</g>
<!-- Node8&#45;&gt;Node10 -->
<g id="edge13" class="edge"><title>Node8&#45;&gt;Node10</title>
<path fill="none" stroke="midnightblue" d="M306.929,-138.065C317.159,-135.34 327.596,-131.901 337,-127.593 354.943,-119.372 354.991,-109.667 373,-101.593 378.677,-99.0476 384.722,-96.8315 390.874,-94.9042"/>
<polygon fill="midnightblue" stroke="midnightblue" points="391.951,-98.2365 400.593,-92.1075 390.015,-91.5094 391.951,-98.2365"/>
</g>
<!-- Node11 -->
<g id="node11" class="node"><title>Node11</title>
<g id="a_node11"><a xlink:href="classCXmlElement.html#a28a62e123c5042524a20eda9cc425d5f" target="_top" xlink:title="CXmlElement::getParentElement">
<polygon fill="white" stroke="black" points="373.5,-149.093 373.5,-168.093 546.5,-168.093 546.5,-149.093 373.5,-149.093"/>
<text text-anchor="middle" x="460" y="-156.093" font-family="Verdana" font-size="10.00">CXmlElement::getParentElement</text>
</a>
</g>
</g>
<!-- Node8&#45;&gt;Node11 -->
<g id="edge15" class="edge"><title>Node8&#45;&gt;Node11</title>
<path fill="none" stroke="midnightblue" d="M314.249,-150.863C329.571,-151.681 346.376,-152.579 362.941,-153.463"/>
<polygon fill="midnightblue" stroke="midnightblue" points="363.036,-156.973 373.208,-154.012 363.409,-149.983 363.036,-156.973"/>
</g>
<!-- Node10&#45;&gt;Node4 -->
<g id="edge14" class="edge"><title>Node10&#45;&gt;Node4</title>
<path fill="none" stroke="midnightblue" d="M547.117,-74.4523C558.018,-73.4219 569.149,-72.3697 579.983,-71.3455"/>
<polygon fill="midnightblue" stroke="midnightblue" points="580.637,-74.7995 590.263,-70.3738 579.978,-67.8305 580.637,-74.7995"/>
</g>
<!-- Node12 -->
<g id="node12" class="node"><title>Node12</title>
<g id="a_node12"><a xlink:href="classCXmlElement.html#a3b230e1c8e92537da6a1a365dc1e71b2" target="_top" xlink:title="CXmlElement::setXmlElement">
<polygon fill="white" stroke="black" points="583,-149.093 583,-168.093 743,-168.093 743,-149.093 583,-149.093"/>
<text text-anchor="middle" x="663" y="-156.093" font-family="Verdana" font-size="10.00">CXmlElement::setXmlElement</text>
</a>
</g>
</g>
<!-- Node11&#45;&gt;Node12 -->
<g id="edge16" class="edge"><title>Node11&#45;&gt;Node12</title>
<path fill="none" stroke="midnightblue" d="M546.534,-158.593C555.212,-158.593 564.042,-158.593 572.758,-158.593"/>
<polygon fill="midnightblue" stroke="midnightblue" points="572.922,-162.093 582.922,-158.593 572.922,-155.093 572.922,-162.093"/>
</g>
</g>
</svg>
