<?xml version="1.0" encoding="UTF-8" standalone="no"?>
<!DOCTYPE svg PUBLIC "-//W3C//DTD SVG 1.1//EN"
 "http://www.w3.org/Graphics/SVG/1.1/DTD/svg11.dtd">
<!-- Generated by graphviz version 2.38.0 (20140413.2041)
 -->
<!-- Title: CElement::childrenToXml Pages: 1 -->
<svg width="515pt" height="28pt"
 viewBox="0.00 0.00 515.00 28.00" xmlns="http://www.w3.org/2000/svg" xmlns:xlink="http://www.w3.org/1999/xlink">
<g id="graph0" class="graph" transform="scale(1 1) rotate(0) translate(4 24)">
<title>CElement::childrenToXml</title>
<polygon fill="white" stroke="none" points="-4,4 -4,-24 511,-24 511,4 -4,4"/>
<!-- Node1 -->
<g id="node1" class="node"><title>Node1</title>
<polygon fill="#bfbfbf" stroke="black" points="0,-0.5 0,-19.5 134,-19.5 134,-0.5 0,-0.5"/>
<text text-anchor="middle" x="67" y="-7.5" font-family="Verdana" font-size="10.00">CElement::childrenToXml</text>
</g>
<!-- Node2 -->
<g id="node2" class="node"><title>Node2</title>
<g id="a_node2"><a xlink:href="classCXmlElement.html#ab496b728efa782727a27b294858e8fc6" target="_top" xlink:title="CXmlElement::createChild">
<polygon fill="white" stroke="black" points="170,-0.5 170,-19.5 311,-19.5 311,-0.5 170,-0.5"/>
<text text-anchor="middle" x="240.5" y="-7.5" font-family="Verdana" font-size="10.00">CXmlElement::createChild</text>
</a>
</g>
</g>
<!-- Node1&#45;&gt;Node2 -->
<g id="edge1" class="edge"><title>Node1&#45;&gt;Node2</title>
<path fill="none" stroke="midnightblue" d="M134.306,-10C142.707,-10 151.371,-10 159.951,-10"/>
<polygon fill="midnightblue" stroke="midnightblue" points="159.965,-13.5001 169.965,-10 159.965,-6.5001 159.965,-13.5001"/>
</g>
<!-- Node3 -->
<g id="node3" class="node"><title>Node3</title>
<g id="a_node3"><a xlink:href="classCXmlElement.html#a3b230e1c8e92537da6a1a365dc1e71b2" target="_top" xlink:title="CXmlElement::setXmlElement">
<polygon fill="white" stroke="black" points="347,-0.5 347,-19.5 507,-19.5 507,-0.5 347,-0.5"/>
<text text-anchor="middle" x="427" y="-7.5" font-family="Verdana" font-size="10.00">CXmlElement::setXmlElement</text>
</a>
</g>
</g>
<!-- Node2&#45;&gt;Node3 -->
<g id="edge2" class="edge"><title>Node2&#45;&gt;Node3</title>
<path fill="none" stroke="midnightblue" d="M311.252,-10C319.613,-10 328.237,-10 336.825,-10"/>
<polygon fill="midnightblue" stroke="midnightblue" points="336.873,-13.5001 346.873,-10 336.873,-6.5001 336.873,-13.5001"/>
</g>
</g>
</svg>
