<?xml version="1.0" encoding="UTF-8" standalone="no"?>
<!DOCTYPE svg PUBLIC "-//W3C//DTD SVG 1.1//EN"
 "http://www.w3.org/Graphics/SVG/1.1/DTD/svg11.dtd">
<!-- Generated by graphviz version 2.36.0 (20140111.2315)
 -->
<!-- Title: CConnectionSocket::connect Pages: 1 -->
<svg width="292pt" height="66pt"
 viewBox="0.00 0.00 292.00 66.00" xmlns="http://www.w3.org/2000/svg" xmlns:xlink="http://www.w3.org/1999/xlink">
<g id="graph0" class="graph" transform="scale(1 1) rotate(0) translate(4 62)">
<title>CConnectionSocket::connect</title>
<polygon fill="white" stroke="none" points="-4,4 -4,-62 288,-62 288,4 -4,4"/>
<!-- Node1 -->
<g id="node1" class="node"><title>Node1</title>
<polygon fill="#bfbfbf" stroke="black" points="0,-14 0,-44 116,-44 116,-14 0,-14"/>
<text text-anchor="start" x="8" y="-32" font-family="Verdana" font-size="10.00">CConnectionSocket::</text>
<text text-anchor="middle" x="58" y="-21" font-family="Verdana" font-size="10.00">connect</text>
</g>
<!-- Node2 -->
<g id="node2" class="node"><title>Node2</title>
<g id="a_node2"><a xlink:href="classCSocket.html#a489715f4b7fc3e5b5efd832766208acd" target="_top" xlink:title="CSocket::initSockAddrIn">
<polygon fill="white" stroke="black" points="152.5,-38.5 152.5,-57.5 283.5,-57.5 283.5,-38.5 152.5,-38.5"/>
<text text-anchor="middle" x="218" y="-45.5" font-family="Verdana" font-size="10.00">CSocket::initSockAddrIn</text>
</a>
</g>
</g>
<!-- Node1&#45;&gt;Node2 -->
<g id="edge1" class="edge"><title>Node1&#45;&gt;Node2</title>
<path fill="none" stroke="midnightblue" d="M116.042,-35.8594C124.491,-36.8756 133.305,-37.9355 142.053,-38.9874"/>
<polygon fill="midnightblue" stroke="midnightblue" points="141.919,-42.4964 152.265,-40.2154 142.755,-35.5465 141.919,-42.4964"/>
</g>
<!-- Node3 -->
<g id="node3" class="node"><title>Node3</title>
<g id="a_node3"><a xlink:href="classCSocket.html#aa925e6f828f6084610bb19c80709ff0a" target="_top" xlink:title="CSocket::getFd">
<polygon fill="white" stroke="black" points="173.5,-0.5 173.5,-19.5 262.5,-19.5 262.5,-0.5 173.5,-0.5"/>
<text text-anchor="middle" x="218" y="-7.5" font-family="Verdana" font-size="10.00">CSocket::getFd</text>
</a>
</g>
</g>
<!-- Node1&#45;&gt;Node3 -->
<g id="edge2" class="edge"><title>Node1&#45;&gt;Node3</title>
<path fill="none" stroke="midnightblue" d="M116.042,-22.1406C131.411,-20.2924 147.985,-18.2993 163.172,-16.4729"/>
<polygon fill="midnightblue" stroke="midnightblue" points="163.923,-19.908 173.434,-15.239 163.087,-12.958 163.923,-19.908"/>
</g>
</g>
</svg>
