<?xml version="1.0" encoding="UTF-8" standalone="no"?>
<!DOCTYPE svg PUBLIC "-//W3C//DTD SVG 1.1//EN"
 "http://www.w3.org/Graphics/SVG/1.1/DTD/svg11.dtd">
<!-- Generated by graphviz version 2.36.0 (20140111.2315)
 -->
<!-- Title: CConfigurableElement::setOffset Pages: 1 -->
<svg width="466pt" height="87pt"
 viewBox="0.00 0.00 466.00 86.99" xmlns="http://www.w3.org/2000/svg" xmlns:xlink="http://www.w3.org/1999/xlink">
<g id="graph0" class="graph" transform="scale(1 1) rotate(0) translate(4 82.9869)">
<title>CConfigurableElement::setOffset</title>
<polygon fill="white" stroke="none" points="-4,4 -4,-82.9869 462,-82.9869 462,4 -4,4"/>
<!-- Node1 -->
<g id="node1" class="node"><title>Node1</title>
<polygon fill="#bfbfbf" stroke="black" points="0.5,-16 0.5,-46 123.5,-46 123.5,-16 0.5,-16"/>
<text text-anchor="start" x="8.5" y="-34" font-family="Verdana" font-size="10.00">CConfigurableElement</text>
<text text-anchor="middle" x="62" y="-23" font-family="Verdana" font-size="10.00">::setOffset</text>
</g>
<!-- Node1&#45;&gt;Node1 -->
<g id="edge3" class="edge"><title>Node1&#45;&gt;Node1</title>
<path fill="none" stroke="midnightblue" d="M33.875,-46.2754C27.625,-55.4062 37,-64 62,-64 76.8438,-64 86.1791,-60.9704 90.006,-56.5975"/>
<polygon fill="midnightblue" stroke="midnightblue" points="93.5094,-56.3151 90.125,-46.2754 86.5098,-56.2343 93.5094,-56.3151"/>
</g>
<!-- Node2 -->
<g id="node2" class="node"><title>Node2</title>
<g id="a_node2"><a xlink:href="classCElement.html#a58b6cdb5715497442fde6afa1e65f8e5" target="_top" xlink:title="CElement::getNbChildren">
<polygon fill="white" stroke="black" points="320.5,-41.5 320.5,-60.5 457.5,-60.5 457.5,-41.5 320.5,-41.5"/>
<text text-anchor="middle" x="389" y="-48.5" font-family="Verdana" font-size="10.00">CElement::getNbChildren</text>
</a>
</g>
</g>
<!-- Node1&#45;&gt;Node2 -->
<g id="edge1" class="edge"><title>Node1&#45;&gt;Node2</title>
<path fill="none" stroke="midnightblue" d="M89.6117,-46.0566C108.572,-55.8872 135.022,-67.8247 160,-73 223.173,-86.0894 297.842,-73.7539 344.067,-62.9611"/>
<polygon fill="midnightblue" stroke="midnightblue" points="345.15,-66.3001 354.049,-60.5505 343.507,-59.4957 345.15,-66.3001"/>
</g>
<!-- Node3 -->
<g id="node3" class="node"><title>Node3</title>
<g id="a_node3"><a xlink:href="classCElement.html#a9bba10d2dc72821589a898e16ace9ae5" target="_top" xlink:title="Get a child element (const) ">
<polygon fill="white" stroke="black" points="335,-0.5 335,-19.5 443,-19.5 443,-0.5 335,-0.5"/>
<text text-anchor="middle" x="389" y="-7.5" font-family="Verdana" font-size="10.00">CElement::getChild</text>
</a>
</g>
</g>
<!-- Node1&#45;&gt;Node3 -->
<g id="edge2" class="edge"><title>Node1&#45;&gt;Node3</title>
<path fill="none" stroke="midnightblue" d="M111.383,-15.9751C126.767,-11.89 143.955,-8.03439 160,-6 215.318,1.01399 278.782,-0.900841 324.684,-4.04263"/>
<polygon fill="midnightblue" stroke="midnightblue" points="324.56,-7.5427 334.786,-4.7732 325.065,-0.560929 324.56,-7.5427"/>
</g>
<!-- Node4 -->
<g id="node4" class="node"><title>Node4</title>
<g id="a_node4"><a xlink:href="classCConfigurableElement.html#a6bc3e14e1da435b74e38ea3e95a31e62" target="_top" xlink:title="CConfigurableElement\l::getFootPrint">
<polygon fill="white" stroke="black" points="160.5,-16 160.5,-46 283.5,-46 283.5,-16 160.5,-16"/>
<text text-anchor="start" x="168.5" y="-34" font-family="Verdana" font-size="10.00">CConfigurableElement</text>
<text text-anchor="middle" x="222" y="-23" font-family="Verdana" font-size="10.00">::getFootPrint</text>
</a>
</g>
</g>
<!-- Node1&#45;&gt;Node4 -->
<g id="edge4" class="edge"><title>Node1&#45;&gt;Node4</title>
<path fill="none" stroke="midnightblue" d="M123.635,-31C132.267,-31 141.208,-31 150.016,-31"/>
<polygon fill="midnightblue" stroke="midnightblue" points="150.266,-34.5001 160.266,-31 150.266,-27.5001 150.266,-34.5001"/>
</g>
<!-- Node4&#45;&gt;Node2 -->
<g id="edge5" class="edge"><title>Node4&#45;&gt;Node2</title>
<path fill="none" stroke="midnightblue" d="M283.503,-38.3337C292.19,-39.3867 301.229,-40.4823 310.193,-41.5688"/>
<polygon fill="midnightblue" stroke="midnightblue" points="309.911,-45.0602 320.26,-42.789 310.753,-38.1111 309.911,-45.0602"/>
</g>
<!-- Node4&#45;&gt;Node3 -->
<g id="edge6" class="edge"><title>Node4&#45;&gt;Node3</title>
<path fill="none" stroke="midnightblue" d="M283.503,-23.2996C296.915,-21.5926 311.165,-19.779 324.686,-18.0581"/>
<polygon fill="midnightblue" stroke="midnightblue" points="325.38,-21.4981 334.858,-16.7635 324.496,-14.5542 325.38,-21.4981"/>
</g>
<!-- Node4&#45;&gt;Node4 -->
<g id="edge7" class="edge"><title>Node4&#45;&gt;Node4</title>
<path fill="none" stroke="midnightblue" d="M193.875,-46.2754C187.625,-55.4062 197,-64 222,-64 236.844,-64 246.179,-60.9704 250.006,-56.5975"/>
<polygon fill="midnightblue" stroke="midnightblue" points="253.509,-56.3151 250.125,-46.2754 246.51,-56.2343 253.509,-56.3151"/>
</g>
</g>
</svg>
