<?xml version="1.0" encoding="UTF-8" standalone="no"?>
<!DOCTYPE svg PUBLIC "-//W3C//DTD SVG 1.1//EN"
 "http://www.w3.org/Graphics/SVG/1.1/DTD/svg11.dtd">
<!-- Generated by graphviz version 2.36.0 (20140111.2315)
 -->
<!-- Title: CConfigurableDomains::listConfigurations Pages: 1 -->
<svg width="482pt" height="112pt"
 viewBox="0.00 0.00 482.00 112.00" xmlns="http://www.w3.org/2000/svg" xmlns:xlink="http://www.w3.org/1999/xlink">
<g id="graph0" class="graph" transform="scale(1 1) rotate(0) translate(4 108)">
<title>CConfigurableDomains::listConfigurations</title>
<polygon fill="white" stroke="none" points="-4,4 -4,-108 478,-108 478,4 -4,4"/>
<!-- Node1 -->
<g id="node1" class="node"><title>Node1</title>
<polygon fill="#bfbfbf" stroke="black" points="0,-52 0,-82 126,-82 126,-52 0,-52"/>
<text text-anchor="start" x="8" y="-70" font-family="Verdana" font-size="10.00">CConfigurableDomains</text>
<text text-anchor="middle" x="63" y="-59" font-family="Verdana" font-size="10.00">::listConfigurations</text>
</g>
<!-- Node2 -->
<g id="node2" class="node"><title>Node2</title>
<g id="a_node2"><a xlink:href="classCConfigurableDomains.html#a4dce38a1560b6e33871d3fa2d85cc449" target="_top" xlink:title="CConfigurableDomains\l::findConfigurableDomain">
<polygon fill="white" stroke="black" points="162.5,-74 162.5,-104 299.5,-104 299.5,-74 162.5,-74"/>
<text text-anchor="start" x="170.5" y="-92" font-family="Verdana" font-size="10.00">CConfigurableDomains</text>
<text text-anchor="middle" x="231" y="-81" font-family="Verdana" font-size="10.00">::findConfigurableDomain</text>
</a>
</g>
</g>
<!-- Node1&#45;&gt;Node2 -->
<g id="edge1" class="edge"><title>Node1&#45;&gt;Node2</title>
<path fill="none" stroke="midnightblue" d="M126.285,-75.2546C134.748,-76.3763 143.519,-77.5387 152.214,-78.691"/>
<polygon fill="midnightblue" stroke="midnightblue" points="151.989,-82.1917 162.362,-80.0359 152.908,-75.2523 151.989,-82.1917"/>
</g>
<!-- Node4 -->
<g id="node4" class="node"><title>Node4</title>
<g id="a_node4"><a xlink:href="classCElement.html#af5b93310000754358a178340f6269d51" target="_top" xlink:title="CElement::listChildren">
<polygon fill="white" stroke="black" points="170,-35.5 170,-54.5 292,-54.5 292,-35.5 170,-35.5"/>
<text text-anchor="middle" x="231" y="-42.5" font-family="Verdana" font-size="10.00">CElement::listChildren</text>
</a>
</g>
</g>
<!-- Node1&#45;&gt;Node4 -->
<g id="edge3" class="edge"><title>Node1&#45;&gt;Node4</title>
<path fill="none" stroke="midnightblue" d="M126.285,-58.7454C137.202,-57.2985 148.631,-55.7839 159.747,-54.3107"/>
<polygon fill="midnightblue" stroke="midnightblue" points="160.39,-57.7561 169.844,-52.9725 159.471,-50.8168 160.39,-57.7561"/>
</g>
<!-- Node3 -->
<g id="node3" class="node"><title>Node3</title>
<g id="a_node3"><a xlink:href="classCElement.html#a8595814a3159f32f874269907e70b260" target="_top" xlink:title="CElement::findChild">
<polygon fill="white" stroke="black" points="350,-79.5 350,-98.5 460,-98.5 460,-79.5 350,-79.5"/>
<text text-anchor="middle" x="405" y="-86.5" font-family="Verdana" font-size="10.00">CElement::findChild</text>
</a>
</g>
</g>
<!-- Node2&#45;&gt;Node3 -->
<g id="edge2" class="edge"><title>Node2&#45;&gt;Node3</title>
<path fill="none" stroke="midnightblue" d="M299.979,-89C313.019,-89 326.639,-89 339.563,-89"/>
<polygon fill="midnightblue" stroke="midnightblue" points="339.755,-92.5001 349.755,-89 339.755,-85.5001 339.755,-92.5001"/>
</g>
<!-- Node5 -->
<g id="node5" class="node"><title>Node5</title>
<g id="a_node5"><a xlink:href="classCElement.html#a58b6cdb5715497442fde6afa1e65f8e5" target="_top" xlink:title="CElement::getNbChildren">
<polygon fill="white" stroke="black" points="336.5,-38.5 336.5,-57.5 473.5,-57.5 473.5,-38.5 336.5,-38.5"/>
<text text-anchor="middle" x="405" y="-45.5" font-family="Verdana" font-size="10.00">CElement::getNbChildren</text>
</a>
</g>
</g>
<!-- Node4&#45;&gt;Node5 -->
<g id="edge4" class="edge"><title>Node4&#45;&gt;Node5</title>
<path fill="none" stroke="midnightblue" d="M292.157,-46.0493C303.06,-46.2394 314.574,-46.4402 325.903,-46.6379"/>
<polygon fill="midnightblue" stroke="midnightblue" points="326.174,-50.143 336.233,-46.818 326.296,-43.1441 326.174,-50.143"/>
</g>
<!-- Node6 -->
<g id="node6" class="node"><title>Node6</title>
<g id="a_node6"><a xlink:href="classCElement.html#a49581fb6412e29e932962acd82d52d6a" target="_top" xlink:title="CElement::getName">
<polygon fill="white" stroke="black" points="348,-0.5 348,-19.5 462,-19.5 462,-0.5 348,-0.5"/>
<text text-anchor="middle" x="405" y="-7.5" font-family="Verdana" font-size="10.00">CElement::getName</text>
</a>
</g>
</g>
<!-- Node4&#45;&gt;Node6 -->
<g id="edge5" class="edge"><title>Node4&#45;&gt;Node6</title>
<path fill="none" stroke="midnightblue" d="M279,-35.4361C300.046,-31.1534 325.046,-26.0663 347.137,-21.5711"/>
<polygon fill="midnightblue" stroke="midnightblue" points="347.956,-24.9762 357.057,-19.5523 346.56,-18.1167 347.956,-24.9762"/>
</g>
</g>
</svg>
