<?xml version="1.0" encoding="UTF-8" standalone="no"?>
<!DOCTYPE svg PUBLIC "-//W3C//DTD SVG 1.1//EN"
 "http://www.w3.org/Graphics/SVG/1.1/DTD/svg11.dtd">
<!-- Generated by graphviz version 2.38.0 (20140413.2041)
 -->
<!-- Title: CXmlElement::createChild Pages: 1 -->
<svg width="796pt" height="224pt"
 viewBox="0.00 0.00 796.00 224.00" xmlns="http://www.w3.org/2000/svg" xmlns:xlink="http://www.w3.org/1999/xlink">
<g id="graph0" class="graph" transform="scale(1 1) rotate(0) translate(4 220)">
<title>CXmlElement::createChild</title>
<polygon fill="white" stroke="none" points="-4,4 -4,-220 792,-220 792,4 -4,4"/>
<!-- Node1 -->
<g id="node1" class="node"><title>Node1</title>
<polygon fill="#bfbfbf" stroke="black" points="0,-72 0,-91 141,-91 141,-72 0,-72"/>
<text text-anchor="middle" x="70.5" y="-79" font-family="Verdana" font-size="10.00">CXmlElement::createChild</text>
</g>
<!-- Node2 -->
<g id="node2" class="node"><title>Node2</title>
<g id="a_node2"><a xlink:href="classCConfigurableElement.html#a0e3feb8a7b18a3291ec960c9726b4eaf" target="_top" xlink:title="CConfigurableElement\l::serializeXmlSettings">
<polygon fill="white" stroke="black" points="182.5,-137.5 182.5,-167.5 305.5,-167.5 305.5,-137.5 182.5,-137.5"/>
<text text-anchor="start" x="190.5" y="-155.5" font-family="Verdana" font-size="10.00">CConfigurableElement</text>
<text text-anchor="middle" x="244" y="-144.5" font-family="Verdana" font-size="10.00">::serializeXmlSettings</text>
</a>
</g>
</g>
<!-- Node1&#45;&gt;Node2 -->
<g id="edge1" class="edge"><title>Node1&#45;&gt;Node2</title>
<path fill="none" stroke="midnightblue" d="M102.14,-95.3336C123.106,-104.682 151.598,-117.158 177,-127.5 185.171,-130.826 193.966,-134.259 202.389,-137.476"/>
<polygon fill="midnightblue" stroke="midnightblue" points="103.345,-92.0384 92.7879,-91.1482 100.486,-98.4277 103.345,-92.0384"/>
</g>
<!-- Node6 -->
<g id="node6" class="node"><title>Node6</title>
<g id="a_node6"><a xlink:href="classCDomainConfiguration.html#a39c907e9023554f7a86836ac9f8da32f" target="_top" xlink:title="CDomainConfiguration\l::composeSettings">
<polygon fill="white" stroke="black" points="181.5,-88.5 181.5,-118.5 306.5,-118.5 306.5,-88.5 181.5,-88.5"/>
<text text-anchor="start" x="189.5" y="-106.5" font-family="Verdana" font-size="10.00">CDomainConfiguration</text>
<text text-anchor="middle" x="244" y="-95.5" font-family="Verdana" font-size="10.00">::composeSettings</text>
</a>
</g>
</g>
<!-- Node1&#45;&gt;Node6 -->
<g id="edge6" class="edge"><title>Node1&#45;&gt;Node6</title>
<path fill="none" stroke="midnightblue" d="M151.28,-91.7342C161.362,-93.0275 171.555,-94.335 181.297,-95.5847"/>
<polygon fill="midnightblue" stroke="midnightblue" points="151.62,-88.2491 141.256,-90.4482 150.729,-95.1923 151.62,-88.2491"/>
</g>
<!-- Node7 -->
<g id="node7" class="node"><title>Node7</title>
<g id="a_node7"><a xlink:href="classCElement.html#aee22d6b038603b6481a8f029bf59ff3d" target="_top" xlink:title="Serialize the children to XML. ">
<polygon fill="white" stroke="black" points="177,-50 177,-69 311,-69 311,-50 177,-50"/>
<text text-anchor="middle" x="244" y="-57" font-family="Verdana" font-size="10.00">CElement::childrenToXml</text>
</a>
</g>
</g>
<!-- Node1&#45;&gt;Node7 -->
<g id="edge7" class="edge"><title>Node1&#45;&gt;Node7</title>
<path fill="none" stroke="midnightblue" d="M151.271,-71.267C159.852,-70.1662 168.513,-69.0552 176.908,-67.9782"/>
<polygon fill="midnightblue" stroke="midnightblue" points="150.729,-67.8077 141.256,-72.5518 151.62,-74.7509 150.729,-67.8077"/>
</g>
<!-- Node10 -->
<g id="node10" class="node"><title>Node10</title>
<g id="a_node10"><a xlink:href="classCSelectionCriterionType.html#a95813f4b14f06857afaf8a50d0d62600" target="_top" xlink:title="Export to XML. ">
<polygon fill="white" stroke="black" points="179.5,-0.5 179.5,-30.5 308.5,-30.5 308.5,-0.5 179.5,-0.5"/>
<text text-anchor="start" x="187.5" y="-18.5" font-family="Verdana" font-size="10.00">CSelectionCriterionType</text>
<text text-anchor="middle" x="244" y="-7.5" font-family="Verdana" font-size="10.00">::toXml</text>
</a>
</g>
</g>
<!-- Node1&#45;&gt;Node10 -->
<g id="edge11" class="edge"><title>Node1&#45;&gt;Node10</title>
<path fill="none" stroke="midnightblue" d="M105.102,-68.3569C125.813,-60.2768 152.926,-49.7371 177,-40.5 185.465,-37.2519 194.551,-33.7926 203.192,-30.5157"/>
<polygon fill="midnightblue" stroke="midnightblue" points="103.823,-65.0987 95.7809,-71.9958 106.369,-71.6194 103.823,-65.0987"/>
</g>
<!-- Node2&#45;&gt;Node2 -->
<g id="edge5" class="edge"><title>Node2&#45;&gt;Node2</title>
<path fill="none" stroke="midnightblue" d="M214.859,-177.958C218.476,-182.679 228.19,-186 244,-186 269.945,-186 279.472,-177.057 272.58,-167.659"/>
<polygon fill="midnightblue" stroke="midnightblue" points="218.371,-177.834 215.42,-167.659 211.381,-177.454 218.371,-177.834"/>
</g>
<!-- Node3 -->
<g id="node3" class="node"><title>Node3</title>
<g id="a_node3"><a xlink:href="classCAreaConfiguration.html#a6b8c95a79343ee9823b026d74184e798" target="_top" xlink:title="CAreaConfiguration\l::serializeXmlSettings">
<polygon fill="white" stroke="black" points="349,-185.5 349,-215.5 468,-215.5 468,-185.5 349,-185.5"/>
<text text-anchor="start" x="357" y="-203.5" font-family="Verdana" font-size="10.00">CAreaConfiguration</text>
<text text-anchor="middle" x="408.5" y="-192.5" font-family="Verdana" font-size="10.00">::serializeXmlSettings</text>
</a>
</g>
</g>
<!-- Node2&#45;&gt;Node3 -->
<g id="edge2" class="edge"><title>Node2&#45;&gt;Node3</title>
<path fill="none" stroke="midnightblue" d="M305.691,-170.427C322.489,-175.389 340.541,-180.721 356.711,-185.498"/>
<polygon fill="midnightblue" stroke="midnightblue" points="306.552,-167.032 295.97,-167.556 304.569,-173.745 306.552,-167.032"/>
</g>
<!-- Node4 -->
<g id="node4" class="node"><title>Node4</title>
<g id="a_node4"><a xlink:href="classCConfigurableElement.html#ac5bbe709d02fa6af3469a91a72edcd06" target="_top" xlink:title="CConfigurableElement\l::fromXml">
<polygon fill="white" stroke="black" points="347,-136.5 347,-166.5 470,-166.5 470,-136.5 347,-136.5"/>
<text text-anchor="start" x="355" y="-154.5" font-family="Verdana" font-size="10.00">CConfigurableElement</text>
<text text-anchor="middle" x="408.5" y="-143.5" font-family="Verdana" font-size="10.00">::fromXml</text>
</a>
</g>
</g>
<!-- Node2&#45;&gt;Node4 -->
<g id="edge3" class="edge"><title>Node2&#45;&gt;Node4</title>
<path fill="none" stroke="midnightblue" d="M315.789,-152.064C326.172,-152 336.787,-151.935 346.94,-151.873"/>
<polygon fill="midnightblue" stroke="midnightblue" points="315.487,-148.566 305.509,-152.128 315.53,-155.566 315.487,-148.566"/>
</g>
<!-- Node5 -->
<g id="node5" class="node"><title>Node5</title>
<g id="a_node5"><a xlink:href="classCConfigurableElement.html#a2331dbc00f60d4d19a5686bbb519c473" target="_top" xlink:title="CConfigurableElement\l::toXml">
<polygon fill="white" stroke="black" points="665,-69.5 665,-99.5 788,-99.5 788,-69.5 665,-69.5"/>
<text text-anchor="start" x="673" y="-87.5" font-family="Verdana" font-size="10.00">CConfigurableElement</text>
<text text-anchor="middle" x="726.5" y="-76.5" font-family="Verdana" font-size="10.00">::toXml</text>
</a>
</g>
</g>
<!-- Node2&#45;&gt;Node5 -->
<g id="edge4" class="edge"><title>Node2&#45;&gt;Node5</title>
<path fill="none" stroke="midnightblue" d="M307.858,-135.02C320.734,-131.851 334.249,-128.821 347,-126.5 458.229,-106.254 589.743,-94.3157 664.814,-88.62"/>
<polygon fill="midnightblue" stroke="midnightblue" points="307.002,-131.626 298.159,-137.461 308.711,-138.415 307.002,-131.626"/>
</g>
<!-- Node8 -->
<g id="node8" class="node"><title>Node8</title>
<g id="a_node8"><a xlink:href="classCElement.html#a7ce1bde0fda5cf412b652000cab473e4" target="_top" xlink:title="CElement::toXml">
<polygon fill="white" stroke="black" points="360,-52 360,-71 457,-71 457,-52 360,-52"/>
<text text-anchor="middle" x="408.5" y="-59" font-family="Verdana" font-size="10.00">CElement::toXml</text>
</a>
</g>
</g>
<!-- Node7&#45;&gt;Node8 -->
<g id="edge8" class="edge"><title>Node7&#45;&gt;Node8</title>
<path fill="none" stroke="midnightblue" d="M321.136,-60.4371C334.343,-60.5996 347.732,-60.7644 359.897,-60.9141"/>
<polygon fill="midnightblue" stroke="midnightblue" points="321.137,-56.9369 311.095,-60.3135 321.051,-63.9364 321.137,-56.9369"/>
</g>
<!-- Node9 -->
<g id="node9" class="node"><title>Node9</title>
<g id="a_node9"><a xlink:href="classCConfigurableElement.html#aae8cc511624bd2cee5d204815178299b" target="_top" xlink:title="Serialize the structure to xml. ">
<polygon fill="white" stroke="black" points="506,-47.5 506,-77.5 629,-77.5 629,-47.5 506,-47.5"/>
<text text-anchor="start" x="514" y="-65.5" font-family="Verdana" font-size="10.00">CConfigurableElement</text>
<text text-anchor="middle" x="567.5" y="-54.5" font-family="Verdana" font-size="10.00">::structureToXml</text>
</a>
</g>
</g>
<!-- Node8&#45;&gt;Node9 -->
<g id="edge9" class="edge"><title>Node8&#45;&gt;Node9</title>
<path fill="none" stroke="midnightblue" d="M467.339,-61.8684C479.858,-61.9481 493.132,-62.0327 505.759,-62.1131"/>
<polygon fill="midnightblue" stroke="midnightblue" points="467.053,-58.3666 457.031,-61.8027 467.009,-65.3665 467.053,-58.3666"/>
</g>
<!-- Node9&#45;&gt;Node5 -->
<g id="edge10" class="edge"><title>Node9&#45;&gt;Node5</title>
<path fill="none" stroke="midnightblue" d="M639.21,-72.4084C647.807,-73.6131 656.53,-74.8354 664.961,-76.0168"/>
<polygon fill="midnightblue" stroke="midnightblue" points="639.589,-68.9274 629.2,-71.0058 638.618,-75.8597 639.589,-68.9274"/>
</g>
<!-- Node11 -->
<g id="node11" class="node"><title>Node11</title>
<g id="a_node11"><a xlink:href="classCSelectionCriterion.html#a3942150fa9e5980d89268672fff31032" target="_top" xlink:title="Export to XML. ">
<polygon fill="white" stroke="black" points="354.5,-0.5 354.5,-30.5 462.5,-30.5 462.5,-0.5 354.5,-0.5"/>
<text text-anchor="start" x="362.5" y="-18.5" font-family="Verdana" font-size="10.00">CSelectionCriterion</text>
<text text-anchor="middle" x="408.5" y="-7.5" font-family="Verdana" font-size="10.00">::toXml</text>
</a>
</g>
</g>
<!-- Node10&#45;&gt;Node11 -->
<g id="edge12" class="edge"><title>Node10&#45;&gt;Node11</title>
<path fill="none" stroke="midnightblue" d="M318.776,-15.5C330.792,-15.5 343.027,-15.5 354.42,-15.5"/>
<polygon fill="midnightblue" stroke="midnightblue" points="318.758,-12.0001 308.758,-15.5 318.758,-19.0001 318.758,-12.0001"/>
</g>
</g>
</svg>
