<?xml version="1.0" encoding="UTF-8" standalone="no"?>
<!DOCTYPE svg PUBLIC "-//W3C//DTD SVG 1.1//EN"
 "http://www.w3.org/Graphics/SVG/1.1/DTD/svg11.dtd">
<!-- Generated by graphviz version 2.38.0 (20140413.2041)
 -->
<!-- Title: CInstanceConfigurableElement::sync Pages: 1 -->
<svg width="910pt" height="142pt"
 viewBox="0.00 0.00 910.00 142.00" xmlns="http://www.w3.org/2000/svg" xmlns:xlink="http://www.w3.org/1999/xlink">
<g id="graph0" class="graph" transform="scale(1 1) rotate(0) translate(4 138)">
<title>CInstanceConfigurableElement::sync</title>
<polygon fill="white" stroke="none" points="-4,4 -4,-138 906,-138 906,4 -4,4"/>
<!-- Node1 -->
<g id="node1" class="node"><title>Node1</title>
<polygon fill="#bfbfbf" stroke="black" points="0,-63 0,-93 164,-93 164,-63 0,-63"/>
<text text-anchor="start" x="8" y="-81" font-family="Verdana" font-size="10.00">CInstanceConfigurableElement</text>
<text text-anchor="middle" x="82" y="-70" font-family="Verdana" font-size="10.00">::sync</text>
</g>
<!-- Node2 -->
<g id="node2" class="node"><title>Node2</title>
<g id="a_node2"><a xlink:href="classCArrayParameter.html#a07b3af958a03b2295be159f69b22d42d" target="_top" xlink:title="CArrayParameter::accessValue">
<polygon fill="white" stroke="black" points="203.5,-112.5 203.5,-131.5 367.5,-131.5 367.5,-112.5 203.5,-112.5"/>
<text text-anchor="middle" x="285.5" y="-119.5" font-family="Verdana" font-size="10.00">CArrayParameter::accessValue</text>
</a>
</g>
</g>
<!-- Node1&#45;&gt;Node2 -->
<g id="edge1" class="edge"><title>Node1&#45;&gt;Node2</title>
<path fill="none" stroke="midnightblue" d="M161.602,-95.1637C188.572,-101.053 217.771,-107.429 240.937,-112.488"/>
<polygon fill="midnightblue" stroke="midnightblue" points="162.298,-91.7332 151.781,-93.0192 160.804,-98.5721 162.298,-91.7332"/>
</g>
<!-- Node3 -->
<g id="node3" class="node"><title>Node3</title>
<g id="a_node3"><a xlink:href="classCBaseParameter.html#a2b425561e193a3d54e7225d896a3d39b" target="_top" xlink:title="CBaseParameter::accessAs\lString">
<polygon fill="white" stroke="black" points="211,-63 211,-93 360,-93 360,-63 211,-63"/>
<text text-anchor="start" x="219" y="-81" font-family="Verdana" font-size="10.00">CBaseParameter::accessAs</text>
<text text-anchor="middle" x="285.5" y="-70" font-family="Verdana" font-size="10.00">String</text>
</a>
</g>
</g>
<!-- Node1&#45;&gt;Node3 -->
<g id="edge2" class="edge"><title>Node1&#45;&gt;Node3</title>
<path fill="none" stroke="midnightblue" d="M174.282,-78C186.49,-78 198.885,-78 210.742,-78"/>
<polygon fill="midnightblue" stroke="midnightblue" points="174.087,-74.5001 164.087,-78 174.087,-81.5001 174.087,-74.5001"/>
</g>
<!-- Node10 -->
<g id="node10" class="node"><title>Node10</title>
<g id="a_node10"><a xlink:href="classCBitParameter.html#ad348903f16d702fac8adcfa1c725a92b" target="_top" xlink:title="CBitParameter::accessAsInteger">
<polygon fill="white" stroke="black" points="200,-16.5 200,-35.5 371,-35.5 371,-16.5 200,-16.5"/>
<text text-anchor="middle" x="285.5" y="-23.5" font-family="Verdana" font-size="10.00">CBitParameter::accessAsInteger</text>
</a>
</g>
</g>
<!-- Node1&#45;&gt;Node10 -->
<g id="edge10" class="edge"><title>Node1&#45;&gt;Node10</title>
<path fill="none" stroke="midnightblue" d="M151.121,-60.4205C183.395,-52.0916 220.677,-42.4704 247.606,-35.5211"/>
<polygon fill="midnightblue" stroke="midnightblue" points="150.09,-57.0716 141.282,-62.9594 151.84,-63.8496 150.09,-57.0716"/>
</g>
<!-- Node4 -->
<g id="node4" class="node"><title>Node4</title>
<g id="a_node4"><a xlink:href="classCBaseParameter.html#a4a9b3e3a2d1ea65a8dc7048559db8dc2" target="_top" xlink:title="CBaseParameter::accessValue">
<polygon fill="white" stroke="black" points="413.5,-114.5 413.5,-133.5 576.5,-133.5 576.5,-114.5 413.5,-114.5"/>
<text text-anchor="middle" x="495" y="-121.5" font-family="Verdana" font-size="10.00">CBaseParameter::accessValue</text>
</a>
</g>
</g>
<!-- Node3&#45;&gt;Node4 -->
<g id="edge3" class="edge"><title>Node3&#45;&gt;Node4</title>
<path fill="none" stroke="midnightblue" d="M363.343,-95.2832C377.842,-98.5258 392.883,-101.877 407,-105 421.039,-108.106 436.359,-111.462 450.177,-114.478"/>
<polygon fill="midnightblue" stroke="midnightblue" points="363.933,-91.8287 353.41,-93.0599 362.404,-98.6597 363.933,-91.8287"/>
</g>
<!-- Node5 -->
<g id="node5" class="node"><title>Node5</title>
<g id="a_node5"><a xlink:href="classCParameterHandle.html#ac8ddc2a8c57fa45742f94eca2d1c8516" target="_top" xlink:title="CParameterHandle::setAsString">
<polygon fill="white" stroke="black" points="410.5,-76.5 410.5,-95.5 579.5,-95.5 579.5,-76.5 410.5,-76.5"/>
<text text-anchor="middle" x="495" y="-83.5" font-family="Verdana" font-size="10.00">CParameterHandle::setAsString</text>
</a>
</g>
</g>
<!-- Node3&#45;&gt;Node5 -->
<g id="edge4" class="edge"><title>Node3&#45;&gt;Node5</title>
<path fill="none" stroke="midnightblue" d="M370.613,-81.2429C383.682,-81.7468 397.183,-82.2673 410.244,-82.7709"/>
<polygon fill="midnightblue" stroke="midnightblue" points="370.368,-77.731 360.241,-80.843 370.099,-84.7258 370.368,-77.731"/>
</g>
<!-- Node8 -->
<g id="node8" class="node"><title>Node8</title>
<g id="a_node8"><a xlink:href="classCParameterHandle.html#a393a04f321892c5c25f076135d1b9a2c" target="_top" xlink:title="CParameterHandle::getAsString">
<polygon fill="white" stroke="black" points="410,-38.5 410,-57.5 580,-57.5 580,-38.5 410,-38.5"/>
<text text-anchor="middle" x="495" y="-45.5" font-family="Verdana" font-size="10.00">CParameterHandle::getAsString</text>
</a>
</g>
</g>
<!-- Node3&#45;&gt;Node8 -->
<g id="edge7" class="edge"><title>Node3&#45;&gt;Node8</title>
<path fill="none" stroke="midnightblue" d="M370.214,-65.8968C389.48,-63.1113 409.705,-60.1873 428.092,-57.5289"/>
<polygon fill="midnightblue" stroke="midnightblue" points="369.637,-62.4437 360.241,-67.3387 370.639,-69.3716 369.637,-62.4437"/>
</g>
<!-- Node6 -->
<g id="node6" class="node"><title>Node6</title>
<g id="a_node6"><a xlink:href="ParameterFramework_8h.html#a02e479cdd18adee13f01c05affcd5892" target="_top" xlink:title="Set the value of a previously bind string parameter. ">
<polygon fill="white" stroke="black" points="619,-76.5 619,-95.5 747,-95.5 747,-76.5 619,-76.5"/>
<text text-anchor="middle" x="683" y="-83.5" font-family="Verdana" font-size="10.00">pfwSetStringParameter</text>
</a>
</g>
</g>
<!-- Node5&#45;&gt;Node6 -->
<g id="edge5" class="edge"><title>Node5&#45;&gt;Node6</title>
<path fill="none" stroke="midnightblue" d="M589.924,-86C599.699,-86 609.461,-86 618.777,-86"/>
<polygon fill="midnightblue" stroke="midnightblue" points="589.75,-82.5001 579.75,-86 589.75,-89.5001 589.75,-82.5001"/>
</g>
<!-- Node7 -->
<g id="node7" class="node"><title>Node7</title>
<g id="a_node7"><a xlink:href="Test_8cpp.html#ae78f4780e83e5f2b9721a2d66c70fec9" target="_top" xlink:title="TEST_CASE_METHOD">
<polygon fill="white" stroke="black" points="783,-57.5 783,-76.5 902,-76.5 902,-57.5 783,-57.5"/>
<text text-anchor="middle" x="842.5" y="-64.5" font-family="Verdana" font-size="10.00">TEST_CASE_METHOD</text>
</a>
</g>
</g>
<!-- Node6&#45;&gt;Node7 -->
<g id="edge6" class="edge"><title>Node6&#45;&gt;Node7</title>
<path fill="none" stroke="midnightblue" d="M757.209,-77.1684C765.831,-76.1283 774.542,-75.0774 782.926,-74.066"/>
<polygon fill="midnightblue" stroke="midnightblue" points="756.663,-73.7089 747.154,-78.3815 757.501,-80.6585 756.663,-73.7089"/>
</g>
<!-- Node9 -->
<g id="node9" class="node"><title>Node9</title>
<g id="a_node9"><a xlink:href="ParameterFramework_8h.html#a0318f736980ecc4a0a456581f44a2cf0" target="_top" xlink:title="Access the value of a previously bind string parameter. ">
<polygon fill="white" stroke="black" points="619,-38.5 619,-57.5 747,-57.5 747,-38.5 619,-38.5"/>
<text text-anchor="middle" x="683" y="-45.5" font-family="Verdana" font-size="10.00">pfwGetStringParameter</text>
</a>
</g>
</g>
<!-- Node8&#45;&gt;Node9 -->
<g id="edge8" class="edge"><title>Node8&#45;&gt;Node9</title>
<path fill="none" stroke="midnightblue" d="M590.178,-48C599.935,-48 609.675,-48 618.968,-48"/>
<polygon fill="midnightblue" stroke="midnightblue" points="590.021,-44.5001 580.021,-48 590.021,-51.5001 590.021,-44.5001"/>
</g>
<!-- Node9&#45;&gt;Node7 -->
<g id="edge9" class="edge"><title>Node9&#45;&gt;Node7</title>
<path fill="none" stroke="midnightblue" d="M757.209,-56.8316C765.831,-57.8717 774.542,-58.9226 782.926,-59.934"/>
<polygon fill="midnightblue" stroke="midnightblue" points="757.501,-53.3415 747.154,-55.6185 756.663,-60.2911 757.501,-53.3415"/>
</g>
<!-- Node11 -->
<g id="node11" class="node"><title>Node11</title>
<g id="a_node11"><a xlink:href="classCBitParameter.html#a2e0ed93baec3479a9b92314818433a31" target="_top" xlink:title="Value access. ">
<polygon fill="white" stroke="black" points="407,-0.5 407,-19.5 583,-19.5 583,-0.5 407,-0.5"/>
<text text-anchor="middle" x="495" y="-7.5" font-family="Verdana" font-size="10.00">CBitParameter::accessAsBoolean</text>
</a>
</g>
</g>
<!-- Node10&#45;&gt;Node11 -->
<g id="edge11" class="edge"><title>Node10&#45;&gt;Node11</title>
<path fill="none" stroke="midnightblue" d="M381.192,-18.6985C389.75,-18.0386 398.391,-17.3723 406.879,-16.7178"/>
<polygon fill="midnightblue" stroke="midnightblue" points="380.899,-15.2106 371.197,-19.4691 381.437,-22.1899 380.899,-15.2106"/>
</g>
</g>
</svg>
