<?xml version="1.0" encoding="UTF-8" standalone="no"?>
<!DOCTYPE svg PUBLIC "-//W3C//DTD SVG 1.1//EN"
 "http://www.w3.org/Graphics/SVG/1.1/DTD/svg11.dtd">
<!-- Generated by graphviz version 2.38.0 (20140413.2041)
 -->
<!-- Title: CBitParameter::access Pages: 1 -->
<svg width="503pt" height="163pt"
 viewBox="0.00 0.00 503.00 162.50" xmlns="http://www.w3.org/2000/svg" xmlns:xlink="http://www.w3.org/1999/xlink">
<g id="graph0" class="graph" transform="scale(1 1) rotate(0) translate(4 158.5)">
<title>CBitParameter::access</title>
<polygon fill="white" stroke="none" points="-4,4 -4,-158.5 499,-158.5 499,4 -4,4"/>
<!-- Node1 -->
<g id="node1" class="node"><title>Node1</title>
<polygon fill="#bfbfbf" stroke="black" points="0,-80.5 0,-99.5 125,-99.5 125,-80.5 0,-80.5"/>
<text text-anchor="middle" x="62.5" y="-87.5" font-family="Verdana" font-size="10.00">CBitParameter::access</text>
</g>
<!-- Node2 -->
<g id="node2" class="node"><title>Node2</title>
<g id="a_node2"><a xlink:href="classCInstanceConfigurableElement.html#ae2d941df411f8ec4c025cbd04d3ba421" target="_top" xlink:title="CInstanceConfigurableElement\l::getTypeElement">
<polygon fill="white" stroke="black" points="174,-124 174,-154 338,-154 338,-124 174,-124"/>
<text text-anchor="start" x="182" y="-142" font-family="Verdana" font-size="10.00">CInstanceConfigurableElement</text>
<text text-anchor="middle" x="256" y="-131" font-family="Verdana" font-size="10.00">::getTypeElement</text>
</a>
</g>
</g>
<!-- Node1&#45;&gt;Node2 -->
<g id="edge1" class="edge"><title>Node1&#45;&gt;Node2</title>
<path fill="none" stroke="midnightblue" d="M100.536,-99.506C118.748,-104.178 141.023,-109.889 161,-115 169.151,-117.086 177.7,-119.271 186.182,-121.438"/>
<polygon fill="midnightblue" stroke="midnightblue" points="185.524,-124.882 196.079,-123.966 187.256,-118.1 185.524,-124.882"/>
</g>
<!-- Node3 -->
<g id="node3" class="node"><title>Node3</title>
<g id="a_node3"><a xlink:href="classutility_1_1ErrorContext.html#afc2e1af8c4a81e36e5013bf31127c15f" target="_top" xlink:title="utility::ErrorContext\l::setError">
<polygon fill="white" stroke="black" points="202,-75 202,-105 310,-105 310,-75 202,-75"/>
<text text-anchor="start" x="210" y="-93" font-family="Verdana" font-size="10.00">utility::ErrorContext</text>
<text text-anchor="middle" x="256" y="-82" font-family="Verdana" font-size="10.00">::setError</text>
</a>
</g>
</g>
<!-- Node1&#45;&gt;Node3 -->
<g id="edge2" class="edge"><title>Node1&#45;&gt;Node3</title>
<path fill="none" stroke="midnightblue" d="M125.146,-90C146.382,-90 170.192,-90 191.567,-90"/>
<polygon fill="midnightblue" stroke="midnightblue" points="191.843,-93.5001 201.843,-90 191.843,-86.5001 191.843,-93.5001"/>
</g>
<!-- Node4 -->
<g id="node4" class="node"><title>Node4</title>
<g id="a_node4"><a xlink:href="classCBaseParameter.html#a911cbd2df0c950a79863fdd689731f88" target="_top" xlink:title="Append the parameter path to the error. ">
<polygon fill="white" stroke="black" points="161,-26 161,-56 351,-56 351,-26 161,-26"/>
<text text-anchor="start" x="169" y="-44" font-family="Verdana" font-size="10.00">CBaseParameter::appendParameter</text>
<text text-anchor="middle" x="256" y="-33" font-family="Verdana" font-size="10.00">PathToError</text>
</a>
</g>
</g>
<!-- Node1&#45;&gt;Node4 -->
<g id="edge3" class="edge"><title>Node1&#45;&gt;Node4</title>
<path fill="none" stroke="midnightblue" d="M100.878,-80.436C125.122,-74.2324 157.441,-65.9629 186.22,-58.599"/>
<polygon fill="midnightblue" stroke="midnightblue" points="187.413,-61.9067 196.233,-56.037 185.678,-55.1252 187.413,-61.9067"/>
</g>
<!-- Node5 -->
<g id="node5" class="node"><title>Node5</title>
<g id="a_node5"><a xlink:href="classutility_1_1ErrorContext.html#aafe9cd30a03303cf376926d9c4e9dd02" target="_top" xlink:title="utility::ErrorContext\l::appendToError">
<polygon fill="white" stroke="black" points="387,-57 387,-87 495,-87 495,-57 387,-57"/>
<text text-anchor="start" x="395" y="-75" font-family="Verdana" font-size="10.00">utility::ErrorContext</text>
<text text-anchor="middle" x="441" y="-64" font-family="Verdana" font-size="10.00">::appendToError</text>
</a>
</g>
</g>
<!-- Node4&#45;&gt;Node5 -->
<g id="edge4" class="edge"><title>Node4&#45;&gt;Node5</title>
<path fill="none" stroke="midnightblue" d="M345.552,-56.0006C356.158,-57.7972 366.816,-59.6028 376.957,-61.3206"/>
<polygon fill="midnightblue" stroke="midnightblue" points="376.46,-64.7862 386.904,-63.0056 377.629,-57.8845 376.46,-64.7862"/>
</g>
<!-- Node6 -->
<g id="node6" class="node"><title>Node6</title>
<g id="a_node6"><a xlink:href="classCElement.html#a7022c0fc8063f0aae9d97b06e74d4ac1" target="_top" xlink:title="CElement::getPath">
<polygon fill="white" stroke="black" points="388,-0.5 388,-19.5 494,-19.5 494,-0.5 388,-0.5"/>
<text text-anchor="middle" x="441" y="-7.5" font-family="Verdana" font-size="10.00">CElement::getPath</text>
</a>
</g>
</g>
<!-- Node4&#45;&gt;Node6 -->
<g id="edge5" class="edge"><title>Node4&#45;&gt;Node6</title>
<path fill="none" stroke="midnightblue" d="M345.552,-25.9994C356.431,-24.1565 367.366,-22.304 377.741,-20.5466"/>
<polygon fill="midnightblue" stroke="midnightblue" points="378.631,-23.9457 387.906,-18.8246 377.462,-17.0441 378.631,-23.9457"/>
</g>
<!-- Node6&#45;&gt;Node6 -->
<g id="edge6" class="edge"><title>Node6&#45;&gt;Node6</title>
<path fill="none" stroke="midnightblue" d="M412.64,-19.7571C398.844,-28.5653 408.297,-38 441,-38 463.483,-38 474.978,-33.5406 475.483,-27.8913"/>
<polygon fill="midnightblue" stroke="midnightblue" points="478.17,-25.6417 469.36,-19.7571 472.577,-29.8515 478.17,-25.6417"/>
</g>
</g>
</svg>
