<?xml version="1.0" encoding="UTF-8" standalone="no"?>
<!DOCTYPE svg PUBLIC "-//W3C//DTD SVG 1.1//EN"
 "http://www.w3.org/Graphics/SVG/1.1/DTD/svg11.dtd">
<!-- Generated by graphviz version 2.38.0 (20140413.2041)
 -->
<!-- Title: CConfigurableDomains::renameConfiguration Pages: 1 -->
<svg width="603pt" height="102pt"
 viewBox="0.00 0.00 603.00 101.50" xmlns="http://www.w3.org/2000/svg" xmlns:xlink="http://www.w3.org/1999/xlink">
<g id="graph0" class="graph" transform="scale(1 1) rotate(0) translate(4 97.5)">
<title>CConfigurableDomains::renameConfiguration</title>
<polygon fill="white" stroke="none" points="-4,4 -4,-97.5 599,-97.5 599,4 -4,4"/>
<!-- Node1 -->
<g id="node1" class="node"><title>Node1</title>
<polygon fill="#bfbfbf" stroke="black" points="0,-38 0,-68 126,-68 126,-38 0,-38"/>
<text text-anchor="start" x="8" y="-56" font-family="Verdana" font-size="10.00">CConfigurableDomains</text>
<text text-anchor="middle" x="63" y="-45" font-family="Verdana" font-size="10.00">::renameConfiguration</text>
</g>
<!-- Node2 -->
<g id="node2" class="node"><title>Node2</title>
<g id="a_node2"><a xlink:href="classCConfigurableDomains.html#a4dce38a1560b6e33871d3fa2d85cc449" target="_top" xlink:title="CConfigurableDomains\l::findConfigurableDomain">
<polygon fill="white" stroke="black" points="162,-63 162,-93 299,-93 299,-63 162,-63"/>
<text text-anchor="start" x="170" y="-81" font-family="Verdana" font-size="10.00">CConfigurableDomains</text>
<text text-anchor="middle" x="230.5" y="-70" font-family="Verdana" font-size="10.00">::findConfigurableDomain</text>
</a>
</g>
</g>
<!-- Node1&#45;&gt;Node2 -->
<g id="edge1" class="edge"><title>Node1&#45;&gt;Node2</title>
<path fill="none" stroke="midnightblue" d="M126.097,-62.3802C134.469,-63.6449 143.143,-64.9552 151.745,-66.2545"/>
<polygon fill="midnightblue" stroke="midnightblue" points="151.376,-69.7384 161.787,-67.7714 152.422,-62.8169 151.376,-69.7384"/>
</g>
<!-- Node4 -->
<g id="node4" class="node"><title>Node4</title>
<g id="a_node4"><a xlink:href="classCConfigurableDomain.html#a647386b073c9dd776f9cd9dcb24088a7" target="_top" xlink:title="CConfigurableDomain\l::renameConfiguration">
<polygon fill="white" stroke="black" points="168.5,-14 168.5,-44 292.5,-44 292.5,-14 168.5,-14"/>
<text text-anchor="start" x="176.5" y="-32" font-family="Verdana" font-size="10.00">CConfigurableDomain</text>
<text text-anchor="middle" x="230.5" y="-21" font-family="Verdana" font-size="10.00">::renameConfiguration</text>
</a>
</g>
</g>
<!-- Node1&#45;&gt;Node4 -->
<g id="edge3" class="edge"><title>Node1&#45;&gt;Node4</title>
<path fill="none" stroke="midnightblue" d="M126.097,-43.995C136.593,-42.473 147.562,-40.8823 158.269,-39.3296"/>
<polygon fill="midnightblue" stroke="midnightblue" points="159.035,-42.7551 168.429,-37.8562 158.031,-35.8276 159.035,-42.7551"/>
</g>
<!-- Node3 -->
<g id="node3" class="node"><title>Node3</title>
<g id="a_node3"><a xlink:href="classCElement.html#a8595814a3159f32f874269907e70b260" target="_top" xlink:title="CElement::findChild">
<polygon fill="white" stroke="black" points="335,-68.5 335,-87.5 445,-87.5 445,-68.5 335,-68.5"/>
<text text-anchor="middle" x="390" y="-75.5" font-family="Verdana" font-size="10.00">CElement::findChild</text>
</a>
</g>
</g>
<!-- Node2&#45;&gt;Node3 -->
<g id="edge2" class="edge"><title>Node2&#45;&gt;Node3</title>
<path fill="none" stroke="midnightblue" d="M299.208,-78C307.625,-78 316.214,-78 324.579,-78"/>
<polygon fill="midnightblue" stroke="midnightblue" points="324.646,-81.5001 334.646,-78 324.646,-74.5001 324.646,-81.5001"/>
</g>
<!-- Node5 -->
<g id="node5" class="node"><title>Node5</title>
<g id="a_node5"><a xlink:href="classCElement.html#aa09118f89e5b3208ee92d0ec51151ccf" target="_top" xlink:title="CElement::rename">
<polygon fill="white" stroke="black" points="336.5,-19.5 336.5,-38.5 443.5,-38.5 443.5,-19.5 336.5,-19.5"/>
<text text-anchor="middle" x="390" y="-26.5" font-family="Verdana" font-size="10.00">CElement::rename</text>
</a>
</g>
</g>
<!-- Node4&#45;&gt;Node5 -->
<g id="edge4" class="edge"><title>Node4&#45;&gt;Node5</title>
<path fill="none" stroke="midnightblue" d="M292.845,-29C303.71,-29 315.041,-29 325.953,-29"/>
<polygon fill="midnightblue" stroke="midnightblue" points="326.257,-32.5001 336.257,-29 326.257,-25.5001 326.257,-32.5001"/>
</g>
<!-- Node6 -->
<g id="node6" class="node"><title>Node6</title>
<g id="a_node6"><a xlink:href="classCElement.html#a49581fb6412e29e932962acd82d52d6a" target="_top" xlink:title="CElement::getName">
<polygon fill="white" stroke="black" points="481,-38.5 481,-57.5 595,-57.5 595,-38.5 481,-38.5"/>
<text text-anchor="middle" x="538" y="-45.5" font-family="Verdana" font-size="10.00">CElement::getName</text>
</a>
</g>
</g>
<!-- Node5&#45;&gt;Node6 -->
<g id="edge5" class="edge"><title>Node5&#45;&gt;Node6</title>
<path fill="none" stroke="midnightblue" d="M443.709,-35.8594C452.492,-37.0024 461.701,-38.2008 470.77,-39.381"/>
<polygon fill="midnightblue" stroke="midnightblue" points="470.55,-42.8818 480.918,-40.7017 471.453,-35.9403 470.55,-42.8818"/>
</g>
<!-- Node7 -->
<g id="node7" class="node"><title>Node7</title>
<g id="a_node7"><a xlink:href="classCElement.html#a9018d33125b066d6cd791659af95c6fe" target="_top" xlink:title="CElement::setName">
<polygon fill="white" stroke="black" points="481.5,-0.5 481.5,-19.5 594.5,-19.5 594.5,-0.5 481.5,-0.5"/>
<text text-anchor="middle" x="538" y="-7.5" font-family="Verdana" font-size="10.00">CElement::setName</text>
</a>
</g>
</g>
<!-- Node5&#45;&gt;Node7 -->
<g id="edge6" class="edge"><title>Node5&#45;&gt;Node7</title>
<path fill="none" stroke="midnightblue" d="M443.709,-22.1406C452.707,-20.9697 462.151,-19.7406 471.433,-18.5326"/>
<polygon fill="midnightblue" stroke="midnightblue" points="471.949,-21.9952 481.413,-17.2339 471.045,-15.0537 471.949,-21.9952"/>
</g>
</g>
</svg>
