<?xml version="1.0" encoding="UTF-8" standalone="no"?>
<!DOCTYPE svg PUBLIC "-//W3C//DTD SVG 1.1//EN"
 "http://www.w3.org/Graphics/SVG/1.1/DTD/svg11.dtd">
<!-- Generated by graphviz version 2.38.0 (20140413.2041)
 -->
<!-- Title: CXmlFileIncluderElement::fromXml Pages: 1 -->
<svg width="1166pt" height="567pt"
 viewBox="0.00 0.00 1166.00 566.83" xmlns="http://www.w3.org/2000/svg" xmlns:xlink="http://www.w3.org/1999/xlink">
<g id="graph0" class="graph" transform="scale(1 1) rotate(0) translate(4 562.828)">
<title>CXmlFileIncluderElement::fromXml</title>
<polygon fill="white" stroke="none" points="-4,4 -4,-562.828 1162,-562.828 1162,4 -4,4"/>
<!-- Node1 -->
<g id="node1" class="node"><title>Node1</title>
<polygon fill="#bfbfbf" stroke="black" points="0,-269 0,-299 134,-299 134,-269 0,-269"/>
<text text-anchor="start" x="8" y="-287" font-family="Verdana" font-size="10.00">CXmlFileIncluderElement</text>
<text text-anchor="middle" x="67" y="-276" font-family="Verdana" font-size="10.00">::fromXml</text>
</g>
<!-- Node2 -->
<g id="node2" class="node"><title>Node2</title>
<g id="a_node2"><a xlink:href="classCXmlElement.html#a4aacb946f656aab1e585e1aa8f63d4e2" target="_top" xlink:title="CXmlElement::getAttribute\lString">
<polygon fill="white" stroke="black" points="831,-209 831,-239 976,-239 976,-209 831,-209"/>
<text text-anchor="start" x="839" y="-227" font-family="Verdana" font-size="10.00">CXmlElement::getAttribute</text>
<text text-anchor="middle" x="903.5" y="-216" font-family="Verdana" font-size="10.00">String</text>
</a>
</g>
</g>
<!-- Node1&#45;&gt;Node2 -->
<g id="edge1" class="edge"><title>Node1&#45;&gt;Node2</title>
<path fill="none" stroke="midnightblue" d="M68.627,-299.254C71.432,-345.06 86.7371,-481.711 170,-538 232.962,-580.565 265.388,-545.665 341,-538 545.918,-517.227 632.295,-571.292 795,-445 859.727,-394.759 887.837,-295.53 897.843,-249.083"/>
<polygon fill="midnightblue" stroke="midnightblue" points="901.282,-249.737 899.861,-239.238 894.424,-248.332 901.282,-249.737"/>
</g>
<!-- Node4 -->
<g id="node4" class="node"><title>Node4</title>
<g id="a_node4"><a xlink:href="classCXmlElementSerializingContext.html#a5b554140f8c2ca7047f6f0f7fa8ef6e3" target="_top" xlink:title="CXmlElementSerializingContext\l::getXmlFolder">
<polygon fill="white" stroke="black" points="172,-498 172,-528 339,-528 339,-498 172,-498"/>
<text text-anchor="start" x="180" y="-516" font-family="Verdana" font-size="10.00">CXmlElementSerializingContext</text>
<text text-anchor="middle" x="255.5" y="-505" font-family="Verdana" font-size="10.00">::getXmlFolder</text>
</a>
</g>
</g>
<!-- Node1&#45;&gt;Node4 -->
<g id="edge3" class="edge"><title>Node1&#45;&gt;Node4</title>
<path fill="none" stroke="midnightblue" d="M71.1293,-299.246C79.7461,-337.291 107.454,-437.071 170,-489 171.54,-490.279 173.144,-491.489 174.802,-492.635"/>
<polygon fill="midnightblue" stroke="midnightblue" points="173.112,-495.703 183.488,-497.846 176.713,-489.7 173.112,-495.703"/>
</g>
<!-- Node5 -->
<g id="node5" class="node"><title>Node5</title>
<g id="a_node5"><a xlink:href="classCXmlElementSerializingContext.html#a0691a9da062b3950f316853cf9e8e391" target="_top" xlink:title="CXmlElementSerializingContext\l::getXmlSchemaPathFolder">
<polygon fill="white" stroke="black" points="172,-449 172,-479 339,-479 339,-449 172,-449"/>
<text text-anchor="start" x="180" y="-467" font-family="Verdana" font-size="10.00">CXmlElementSerializingContext</text>
<text text-anchor="middle" x="255.5" y="-456" font-family="Verdana" font-size="10.00">::getXmlSchemaPathFolder</text>
</a>
</g>
</g>
<!-- Node1&#45;&gt;Node5 -->
<g id="edge4" class="edge"><title>Node1&#45;&gt;Node5</title>
<path fill="none" stroke="midnightblue" d="M74.3339,-299.1C87.6516,-329.085 121.389,-396.476 170,-434 175.299,-438.09 181.202,-441.653 187.356,-444.75"/>
<polygon fill="midnightblue" stroke="midnightblue" points="185.964,-447.962 196.512,-448.961 188.889,-441.602 185.964,-447.962"/>
</g>
<!-- Node6 -->
<g id="node6" class="node"><title>Node6</title>
<g id="a_node6"><a xlink:href="classCXmlDocSource.html#a5a1330e2c0bd340ad542050053f31803" target="_top" xlink:title="Helper method for creating an xml document from either a file or a string. ">
<polygon fill="white" stroke="black" points="389,-410.5 389,-429.5 541,-429.5 541,-410.5 389,-410.5"/>
<text text-anchor="middle" x="465" y="-417.5" font-family="Verdana" font-size="10.00">CXmlDocSource::mkXmlDoc</text>
</a>
</g>
</g>
<!-- Node1&#45;&gt;Node6 -->
<g id="edge5" class="edge"><title>Node1&#45;&gt;Node6</title>
<path fill="none" stroke="midnightblue" d="M75.921,-299.209C90.5059,-325.413 124.344,-378.427 170,-401 238.623,-434.928 327.497,-435.679 389.487,-430.449"/>
<polygon fill="midnightblue" stroke="midnightblue" points="389.943,-433.922 399.582,-429.525 389.305,-426.951 389.943,-433.922"/>
</g>
<!-- Node8 -->
<g id="node8" class="node"><title>Node8</title>
<g id="a_node8"><a xlink:href="classCXmlDocSource.html#a1e04673df5c2f8da52daac761a39daf5" target="_top" xlink:title="Method that checks that the xml document has been correctly parsed. ">
<polygon fill="white" stroke="black" points="181.5,-372.5 181.5,-391.5 329.5,-391.5 329.5,-372.5 181.5,-372.5"/>
<text text-anchor="middle" x="255.5" y="-379.5" font-family="Verdana" font-size="10.00">CXmlDocSource::isParsable</text>
</a>
</g>
</g>
<!-- Node1&#45;&gt;Node8 -->
<g id="edge7" class="edge"><title>Node1&#45;&gt;Node8</title>
<path fill="none" stroke="midnightblue" d="M83.1361,-299.264C101.875,-317.264 135.551,-346.778 170,-363 175.229,-365.462 180.793,-367.613 186.473,-369.491"/>
<polygon fill="midnightblue" stroke="midnightblue" points="185.518,-372.859 196.103,-372.401 187.542,-366.158 185.518,-372.859"/>
</g>
<!-- Node9 -->
<g id="node9" class="node"><title>Node9</title>
<g id="a_node9"><a xlink:href="classCXmlSerializingContext.html#a32535de3d5fb180f216d837ee7d5326d" target="_top" xlink:title="CXmlSerializingContext\l::setError">
<polygon fill="white" stroke="black" points="628,-268 628,-298 756,-298 756,-268 628,-268"/>
<text text-anchor="start" x="636" y="-286" font-family="Verdana" font-size="10.00">CXmlSerializingContext</text>
<text text-anchor="middle" x="692" y="-275" font-family="Verdana" font-size="10.00">::setError</text>
</a>
</g>
</g>
<!-- Node1&#45;&gt;Node9 -->
<g id="edge8" class="edge"><title>Node1&#45;&gt;Node9</title>
<path fill="none" stroke="midnightblue" d="M134.114,-285.485C146.058,-285.7 158.399,-285.886 170,-286 329.588,-287.564 516.681,-285.547 617.557,-284.142"/>
<polygon fill="midnightblue" stroke="midnightblue" points="617.691,-287.641 627.641,-284 617.592,-280.642 617.691,-287.641"/>
</g>
<!-- Node10 -->
<g id="node10" class="node"><title>Node10</title>
<g id="a_node10"><a xlink:href="classCXmlDocSource.html#a2a7e3d4b2568b41e56b6f553eba7b93c" target="_top" xlink:title="Method that returns the root element of the Xml tree. ">
<polygon fill="white" stroke="black" points="377,-38.5 377,-57.5 553,-57.5 553,-38.5 377,-38.5"/>
<text text-anchor="middle" x="465" y="-45.5" font-family="Verdana" font-size="10.00">CXmlDocSource::getRootElement</text>
</a>
</g>
</g>
<!-- Node1&#45;&gt;Node10 -->
<g id="edge9" class="edge"><title>Node1&#45;&gt;Node10</title>
<path fill="none" stroke="midnightblue" d="M69.9088,-268.821C75.9373,-227.991 98.6102,-115.628 170,-67 201.088,-45.8242 293.501,-42.7093 366.511,-43.8918"/>
<polygon fill="midnightblue" stroke="midnightblue" points="366.61,-47.3943 376.675,-44.0858 366.744,-40.3956 366.61,-47.3943"/>
</g>
<!-- Node12 -->
<g id="node12" class="node"><title>Node12</title>
<g id="a_node12"><a xlink:href="classCXmlElementSerializingContext.html#a6c36b7e23b9968c6ea898612d2a55ee9" target="_top" xlink:title="CXmlElementSerializingContext\l::getElementLibrary">
<polygon fill="white" stroke="black" points="172,-247 172,-277 339,-277 339,-247 172,-247"/>
<text text-anchor="start" x="180" y="-265" font-family="Verdana" font-size="10.00">CXmlElementSerializingContext</text>
<text text-anchor="middle" x="255.5" y="-254" font-family="Verdana" font-size="10.00">::getElementLibrary</text>
</a>
</g>
</g>
<!-- Node1&#45;&gt;Node12 -->
<g id="edge11" class="edge"><title>Node1&#45;&gt;Node12</title>
<path fill="none" stroke="midnightblue" d="M134.015,-276.213C143.019,-275.151 152.393,-274.045 161.761,-272.94"/>
<polygon fill="midnightblue" stroke="midnightblue" points="162.385,-276.391 171.906,-271.743 161.564,-269.439 162.385,-276.391"/>
</g>
<!-- Node13 -->
<g id="node13" class="node"><title>Node13</title>
<g id="a_node13"><a xlink:href="classCElementLibrary.html#a5ad95964216e50fc59f0c803370fb4de" target="_top" xlink:title="CElementLibrary::createElement">
<polygon fill="white" stroke="black" points="170,-208.5 170,-227.5 341,-227.5 341,-208.5 170,-208.5"/>
<text text-anchor="middle" x="255.5" y="-215.5" font-family="Verdana" font-size="10.00">CElementLibrary::createElement</text>
</a>
</g>
</g>
<!-- Node1&#45;&gt;Node13 -->
<g id="edge12" class="edge"><title>Node1&#45;&gt;Node13</title>
<path fill="none" stroke="midnightblue" d="M96.356,-268.968C116.465,-258.801 144.33,-245.692 170,-237 177.695,-234.394 185.906,-232.042 194.073,-229.953"/>
<polygon fill="midnightblue" stroke="midnightblue" points="195.09,-233.307 203.974,-227.535 193.429,-226.507 195.09,-233.307"/>
</g>
<!-- Node14 -->
<g id="node14" class="node"><title>Node14</title>
<g id="a_node14"><a xlink:href="classCElement.html#a7987056bec3cbc71bed07cc88b060cf0" target="_top" xlink:title="CElement::getParent">
<polygon fill="white" stroke="black" points="197.5,-170.5 197.5,-189.5 313.5,-189.5 313.5,-170.5 197.5,-170.5"/>
<text text-anchor="middle" x="255.5" y="-177.5" font-family="Verdana" font-size="10.00">CElement::getParent</text>
</a>
</g>
</g>
<!-- Node1&#45;&gt;Node14 -->
<g id="edge13" class="edge"><title>Node1&#45;&gt;Node14</title>
<path fill="none" stroke="midnightblue" d="M81.6179,-268.882C99.8314,-249.628 134.024,-216.733 170,-199 175.576,-196.252 181.555,-193.895 187.661,-191.876"/>
<polygon fill="midnightblue" stroke="midnightblue" points="188.752,-195.203 197.322,-188.973 186.738,-188.499 188.752,-195.203"/>
</g>
<!-- Node15 -->
<g id="node15" class="node"><title>Node15</title>
<g id="a_node15"><a xlink:href="classCElement.html#ac2ad66ee438a4a0c1390b7388874fe72" target="_top" xlink:title="CElement::addChild">
<polygon fill="white" stroke="black" points="200.5,-132.5 200.5,-151.5 310.5,-151.5 310.5,-132.5 200.5,-132.5"/>
<text text-anchor="middle" x="255.5" y="-139.5" font-family="Verdana" font-size="10.00">CElement::addChild</text>
</a>
</g>
</g>
<!-- Node1&#45;&gt;Node15 -->
<g id="edge14" class="edge"><title>Node1&#45;&gt;Node15</title>
<path fill="none" stroke="midnightblue" d="M76.1167,-268.765C91.0043,-242.383 125.296,-188.397 170,-161 176.258,-157.165 183.202,-154.101 190.342,-151.655"/>
<polygon fill="midnightblue" stroke="midnightblue" points="191.596,-154.932 200.155,-148.686 189.569,-148.232 191.596,-154.932"/>
</g>
<!-- Node16 -->
<g id="node16" class="node"><title>Node16</title>
<g id="a_node16"><a xlink:href="classCXmlElement.html#ac47c56a3cad8ac7d1fe7579e833227c5" target="_top" xlink:title="CXmlElement::getPath">
<polygon fill="white" stroke="black" points="193.5,-76.5 193.5,-95.5 317.5,-95.5 317.5,-76.5 193.5,-76.5"/>
<text text-anchor="middle" x="255.5" y="-83.5" font-family="Verdana" font-size="10.00">CXmlElement::getPath</text>
</a>
</g>
</g>
<!-- Node1&#45;&gt;Node16 -->
<g id="edge15" class="edge"><title>Node1&#45;&gt;Node16</title>
<path fill="none" stroke="midnightblue" d="M74.0734,-268.575C87.1432,-237.177 120.792,-165.244 170,-123 181.848,-112.829 196.928,-105.039 211.059,-99.2905"/>
<polygon fill="midnightblue" stroke="midnightblue" points="212.546,-102.47 220.64,-95.6333 210.049,-95.9298 212.546,-102.47"/>
</g>
<!-- Node20 -->
<g id="node20" class="node"><title>Node20</title>
<g id="a_node20"><a xlink:href="classCXmlDocSink.html#ad795635a506e9fbe16c1d54052281d91" target="_top" xlink:title="Method to be called to use an xmlDocSource. ">
<polygon fill="white" stroke="black" points="193.5,-334.5 193.5,-353.5 317.5,-353.5 317.5,-334.5 193.5,-334.5"/>
<text text-anchor="middle" x="255.5" y="-341.5" font-family="Verdana" font-size="10.00">CXmlDocSink::process</text>
</a>
</g>
</g>
<!-- Node1&#45;&gt;Node20 -->
<g id="edge23" class="edge"><title>Node1&#45;&gt;Node20</title>
<path fill="none" stroke="midnightblue" d="M108.995,-299.128C127.535,-305.799 149.779,-313.567 170,-320 182.614,-324.013 196.388,-328.064 209.086,-331.665"/>
<polygon fill="midnightblue" stroke="midnightblue" points="208.421,-335.114 218.995,-334.448 210.314,-328.375 208.421,-335.114"/>
</g>
<!-- Node24 -->
<g id="node24" class="node"><title>Node24</title>
<g id="a_node24"><a xlink:href="classCElement.html#a4aec98bde47367325cf332a5dc471eb9" target="_top" xlink:title="CElement::removeChild">
<polygon fill="white" stroke="black" points="191,-0.5 191,-19.5 320,-19.5 320,-0.5 191,-0.5"/>
<text text-anchor="middle" x="255.5" y="-7.5" font-family="Verdana" font-size="10.00">CElement::removeChild</text>
</a>
</g>
</g>
<!-- Node1&#45;&gt;Node24 -->
<g id="edge30" class="edge"><title>Node1&#45;&gt;Node24</title>
<path fill="none" stroke="midnightblue" d="M69.6305,-268.734C75.106,-225.221 96.8244,-99.4959 170,-34 174.513,-29.9603 179.66,-26.5963 185.136,-23.7958"/>
<polygon fill="midnightblue" stroke="midnightblue" points="186.885,-26.849 194.606,-19.5946 184.046,-20.4503 186.885,-26.849"/>
</g>
<!-- Node3 -->
<g id="node3" class="node"><title>Node3</title>
<g id="a_node3"><a xlink:href="classCXmlElement.html#aacd4d202e3de66715641cc3bb89bd4b5" target="_top" xlink:title="CXmlElement::hasAttribute">
<polygon fill="white" stroke="black" points="1012,-187.5 1012,-206.5 1158,-206.5 1158,-187.5 1012,-187.5"/>
<text text-anchor="middle" x="1085" y="-194.5" font-family="Verdana" font-size="10.00">CXmlElement::hasAttribute</text>
</a>
</g>
</g>
<!-- Node2&#45;&gt;Node3 -->
<g id="edge2" class="edge"><title>Node2&#45;&gt;Node3</title>
<path fill="none" stroke="midnightblue" d="M976.217,-213.212C987.622,-211.497 999.432,-209.721 1010.87,-208"/>
<polygon fill="midnightblue" stroke="midnightblue" points="1011.44,-211.455 1020.8,-206.506 1010.39,-204.532 1011.44,-211.455"/>
</g>
<!-- Node7 -->
<g id="node7" class="node"><title>Node7</title>
<g id="a_node7"><a xlink:href="classCXmlSerializingContext.html#a9e5ad5515d4c68fba4313df538382da7" target="_top" xlink:title="CXmlSerializingContext\l::appendLineToError">
<polygon fill="white" stroke="black" points="628,-405 628,-435 756,-435 756,-405 628,-405"/>
<text text-anchor="start" x="636" y="-423" font-family="Verdana" font-size="10.00">CXmlSerializingContext</text>
<text text-anchor="middle" x="692" y="-412" font-family="Verdana" font-size="10.00">::appendLineToError</text>
</a>
</g>
</g>
<!-- Node6&#45;&gt;Node7 -->
<g id="edge6" class="edge"><title>Node6&#45;&gt;Node7</title>
<path fill="none" stroke="midnightblue" d="M541.235,-420C565.827,-420 593.097,-420 617.556,-420"/>
<polygon fill="midnightblue" stroke="midnightblue" points="617.85,-423.5 627.85,-420 617.85,-416.5 617.85,-423.5"/>
</g>
<!-- Node11 -->
<g id="node11" class="node"><title>Node11</title>
<g id="a_node11"><a xlink:href="classCXmlElement.html#a3b230e1c8e92537da6a1a365dc1e71b2" target="_top" xlink:title="CXmlElement::setXmlElement">
<polygon fill="white" stroke="black" points="612,-57.5 612,-76.5 772,-76.5 772,-57.5 612,-57.5"/>
<text text-anchor="middle" x="692" y="-64.5" font-family="Verdana" font-size="10.00">CXmlElement::setXmlElement</text>
</a>
</g>
</g>
<!-- Node10&#45;&gt;Node11 -->
<g id="edge10" class="edge"><title>Node10&#45;&gt;Node11</title>
<path fill="none" stroke="midnightblue" d="M553.313,-55.3731C569.121,-56.708 585.628,-58.1019 601.497,-59.4419"/>
<polygon fill="midnightblue" stroke="midnightblue" points="601.56,-62.9597 611.819,-60.3136 602.149,-55.9845 601.56,-62.9597"/>
</g>
<!-- Node16&#45;&gt;Node3 -->
<g id="edge17" class="edge"><title>Node16&#45;&gt;Node3</title>
<path fill="none" stroke="midnightblue" d="M280.086,-95.6235C297.187,-102.771 320.765,-112.977 341,-123 357.401,-131.124 359.47,-137.737 377,-143 491.792,-177.464 841.007,-190.741 1001.6,-195.123"/>
<polygon fill="midnightblue" stroke="midnightblue" points="1001.82,-198.63 1011.91,-195.399 1002,-191.633 1001.82,-198.63"/>
</g>
<!-- Node16&#45;&gt;Node16 -->
<g id="edge22" class="edge"><title>Node16&#45;&gt;Node16</title>
<path fill="none" stroke="midnightblue" d="M226.524,-95.7571C212.427,-104.565 222.086,-114 255.5,-114 278.472,-114 290.216,-109.541 290.732,-103.891"/>
<polygon fill="midnightblue" stroke="midnightblue" points="293.347,-101.55 284.476,-95.7571 287.798,-105.818 293.347,-101.55"/>
</g>
<!-- Node17 -->
<g id="node17" class="node"><title>Node17</title>
<g id="a_node17"><a xlink:href="classCXmlElement.html#ab2e750aaad2b93b4d875d04b624de1c4" target="_top" xlink:title="CXmlElement::getType">
<polygon fill="white" stroke="black" points="403,-114.5 403,-133.5 527,-133.5 527,-114.5 403,-114.5"/>
<text text-anchor="middle" x="465" y="-121.5" font-family="Verdana" font-size="10.00">CXmlElement::getType</text>
</a>
</g>
</g>
<!-- Node16&#45;&gt;Node17 -->
<g id="edge16" class="edge"><title>Node16&#45;&gt;Node17</title>
<path fill="none" stroke="midnightblue" d="M308.593,-95.54C336.96,-100.735 372.243,-107.196 402.017,-112.649"/>
<polygon fill="midnightblue" stroke="midnightblue" points="401.418,-116.097 411.885,-114.456 402.679,-109.212 401.418,-116.097"/>
</g>
<!-- Node18 -->
<g id="node18" class="node"><title>Node18</title>
<g id="a_node18"><a xlink:href="classCXmlElement.html#a21b9cfd66e7cd6f33a889e099102ef89" target="_top" xlink:title="CXmlElement::getNameAttribute">
<polygon fill="white" stroke="black" points="378,-210.5 378,-229.5 552,-229.5 552,-210.5 378,-210.5"/>
<text text-anchor="middle" x="465" y="-217.5" font-family="Verdana" font-size="10.00">CXmlElement::getNameAttribute</text>
</a>
</g>
</g>
<!-- Node16&#45;&gt;Node18 -->
<g id="edge18" class="edge"><title>Node16&#45;&gt;Node18</title>
<path fill="none" stroke="midnightblue" d="M290.983,-95.5442C307.524,-101.422 326.783,-110.309 341,-123 364.771,-144.219 352.911,-164.143 377,-185 387.994,-194.519 401.907,-201.656 415.364,-206.915"/>
<polygon fill="midnightblue" stroke="midnightblue" points="414.44,-210.302 425.034,-210.419 416.825,-203.721 414.44,-210.302"/>
</g>
<!-- Node19 -->
<g id="node19" class="node"><title>Node19</title>
<g id="a_node19"><a xlink:href="classCXmlElement.html#a28a62e123c5042524a20eda9cc425d5f" target="_top" xlink:title="CXmlElement::getParentElement">
<polygon fill="white" stroke="black" points="378.5,-76.5 378.5,-95.5 551.5,-95.5 551.5,-76.5 378.5,-76.5"/>
<text text-anchor="middle" x="465" y="-83.5" font-family="Verdana" font-size="10.00">CXmlElement::getParentElement</text>
</a>
</g>
</g>
<!-- Node16&#45;&gt;Node19 -->
<g id="edge20" class="edge"><title>Node16&#45;&gt;Node19</title>
<path fill="none" stroke="midnightblue" d="M317.635,-86C333.524,-86 351.027,-86 368.236,-86"/>
<polygon fill="midnightblue" stroke="midnightblue" points="368.32,-89.5001 378.32,-86 368.319,-82.5001 368.32,-89.5001"/>
</g>
<!-- Node18&#45;&gt;Node2 -->
<g id="edge19" class="edge"><title>Node18&#45;&gt;Node2</title>
<path fill="none" stroke="midnightblue" d="M552.238,-220.79C630.23,-221.505 744.248,-222.55 820.801,-223.251"/>
<polygon fill="midnightblue" stroke="midnightblue" points="820.847,-226.752 830.879,-223.344 820.912,-219.752 820.847,-226.752"/>
</g>
<!-- Node19&#45;&gt;Node11 -->
<g id="edge21" class="edge"><title>Node19&#45;&gt;Node11</title>
<path fill="none" stroke="midnightblue" d="M551.705,-78.7627C568.057,-77.3819 585.211,-75.9333 601.673,-74.5431"/>
<polygon fill="midnightblue" stroke="midnightblue" points="602.151,-78.0154 611.821,-73.6863 601.561,-71.0402 602.151,-78.0154"/>
</g>
<!-- Node21 -->
<g id="node21" class="node"><title>Node21</title>
<g id="a_node21"><a xlink:href="classCXmlDocSource.html#a60c2e8020389b6896e61fe058f611565" target="_top" xlink:title="Method called by the CXmlDocSink::process method. ">
<polygon fill="white" stroke="black" points="394,-334.5 394,-353.5 536,-353.5 536,-334.5 394,-334.5"/>
<text text-anchor="middle" x="465" y="-341.5" font-family="Verdana" font-size="10.00">CXmlDocSource::populate</text>
</a>
</g>
</g>
<!-- Node20&#45;&gt;Node21 -->
<g id="edge24" class="edge"><title>Node20&#45;&gt;Node21</title>
<path fill="none" stroke="midnightblue" d="M317.635,-344C338.275,-344 361.639,-344 383.542,-344"/>
<polygon fill="midnightblue" stroke="midnightblue" points="383.822,-347.5 393.822,-344 383.822,-340.5 383.822,-347.5"/>
</g>
<!-- Node21&#45;&gt;Node7 -->
<g id="edge27" class="edge"><title>Node21&#45;&gt;Node7</title>
<path fill="none" stroke="midnightblue" d="M486.528,-353.648C510.656,-364.721 552.095,-382.905 589,-395 598.356,-398.066 608.303,-400.951 618.176,-403.595"/>
<polygon fill="midnightblue" stroke="midnightblue" points="617.44,-407.02 628,-406.156 619.206,-400.247 617.44,-407.02"/>
</g>
<!-- Node21&#45;&gt;Node9 -->
<g id="edge25" class="edge"><title>Node21&#45;&gt;Node9</title>
<path fill="none" stroke="midnightblue" d="M503.015,-334.467C518.536,-330.294 536.724,-325.175 553,-320 569.211,-314.845 572.693,-311.845 589,-307 598.351,-304.221 608.261,-301.554 618.084,-299.073"/>
<polygon fill="midnightblue" stroke="midnightblue" points="618.987,-302.455 627.854,-296.657 617.307,-295.66 618.987,-302.455"/>
</g>
<!-- Node22 -->
<g id="node22" class="node"><title>Node22</title>
<g id="a_node22"><a xlink:href="classCXmlDocSource.html#a87f5d62acf578217f003779459d50d81" target="_top" xlink:title="Getter method. ">
<polygon fill="white" stroke="black" points="589,-366.5 589,-385.5 795,-385.5 795,-366.5 589,-366.5"/>
<text text-anchor="middle" x="692" y="-373.5" font-family="Verdana" font-size="10.00">CXmlDocSource::getRootElementName</text>
</a>
</g>
</g>
<!-- Node21&#45;&gt;Node22 -->
<g id="edge26" class="edge"><title>Node21&#45;&gt;Node22</title>
<path fill="none" stroke="midnightblue" d="M532.898,-353.514C558.398,-357.141 587.661,-361.303 614.023,-365.052"/>
<polygon fill="midnightblue" stroke="midnightblue" points="613.578,-368.524 623.971,-366.467 614.563,-361.594 613.578,-368.524"/>
</g>
<!-- Node23 -->
<g id="node23" class="node"><title>Node23</title>
<g id="a_node23"><a xlink:href="classCXmlDocSource.html#a07f17719f201049c80c47c7e6d4c4933" target="_top" xlink:title="Getter method. ">
<polygon fill="white" stroke="black" points="604,-317 604,-347 780,-347 780,-317 604,-317"/>
<text text-anchor="start" x="612" y="-335" font-family="Verdana" font-size="10.00">CXmlDocSource::getRootElement</text>
<text text-anchor="middle" x="692" y="-324" font-family="Verdana" font-size="10.00">AttributeString</text>
</a>
</g>
</g>
<!-- Node21&#45;&gt;Node23 -->
<g id="edge28" class="edge"><title>Node21&#45;&gt;Node23</title>
<path fill="none" stroke="midnightblue" d="M536.266,-340.252C554.493,-339.28 574.45,-338.216 593.793,-337.184"/>
<polygon fill="midnightblue" stroke="midnightblue" points="594.04,-340.676 603.839,-336.649 593.667,-333.686 594.04,-340.676"/>
</g>
<!-- Node23&#45;&gt;Node2 -->
<g id="edge29" class="edge"><title>Node23&#45;&gt;Node2</title>
<path fill="none" stroke="midnightblue" d="M769.702,-316.916C778.424,-314.119 787.033,-310.838 795,-307 827.255,-291.462 859.067,-265.156 879.613,-246.322"/>
<polygon fill="midnightblue" stroke="midnightblue" points="882.256,-248.643 887.175,-239.259 877.477,-243.527 882.256,-248.643"/>
</g>
</g>
</svg>
