<?xml version="1.0" encoding="UTF-8" standalone="no"?>
<!DOCTYPE svg PUBLIC "-//W3C//DTD SVG 1.1//EN"
 "http://www.w3.org/Graphics/SVG/1.1/DTD/svg11.dtd">
<!-- Generated by graphviz version 2.38.0 (20140413.2041)
 -->
<!-- Title: CParameterMgr::deleteConfiguration Pages: 1 -->
<svg width="683pt" height="39pt"
 viewBox="0.00 0.00 683.00 39.00" xmlns="http://www.w3.org/2000/svg" xmlns:xlink="http://www.w3.org/1999/xlink">
<g id="graph0" class="graph" transform="scale(1 1) rotate(0) translate(4 35)">
<title>CParameterMgr::deleteConfiguration</title>
<polygon fill="white" stroke="none" points="-4,4 -4,-35 679,-35 679,4 -4,4"/>
<!-- Node1 -->
<g id="node1" class="node"><title>Node1</title>
<polygon fill="#bfbfbf" stroke="black" points="0,-6 0,-25 191,-25 191,-6 0,-6"/>
<text text-anchor="middle" x="95.5" y="-13" font-family="Verdana" font-size="10.00">CParameterMgr::deleteConfiguration</text>
</g>
<!-- Node2 -->
<g id="node2" class="node"><title>Node2</title>
<g id="a_node2"><a xlink:href="classCConfigurableDomains.html#a911e0a0a3af2b8cfb630edb899038bbe" target="_top" xlink:title="CConfigurableDomains\l::deleteConfiguration">
<polygon fill="white" stroke="black" points="227,-0.5 227,-30.5 353,-30.5 353,-0.5 227,-0.5"/>
<text text-anchor="start" x="235" y="-18.5" font-family="Verdana" font-size="10.00">CConfigurableDomains</text>
<text text-anchor="middle" x="290" y="-7.5" font-family="Verdana" font-size="10.00">::deleteConfiguration</text>
</a>
</g>
</g>
<!-- Node1&#45;&gt;Node2 -->
<g id="edge1" class="edge"><title>Node1&#45;&gt;Node2</title>
<path fill="none" stroke="midnightblue" d="M191.058,-15.5C199.711,-15.5 208.381,-15.5 216.791,-15.5"/>
<polygon fill="midnightblue" stroke="midnightblue" points="216.899,-19.0001 226.899,-15.5 216.899,-12.0001 216.899,-19.0001"/>
</g>
<!-- Node3 -->
<g id="node3" class="node"><title>Node3</title>
<g id="a_node3"><a xlink:href="classCConfigurableDomain.html#a5029ae23af30ac7b4f5ba526ac50508f" target="_top" xlink:title="CConfigurableDomain\l::deleteConfiguration">
<polygon fill="white" stroke="black" points="389,-0.5 389,-30.5 510,-30.5 510,-0.5 389,-0.5"/>
<text text-anchor="start" x="397" y="-18.5" font-family="Verdana" font-size="10.00">CConfigurableDomain</text>
<text text-anchor="middle" x="449.5" y="-7.5" font-family="Verdana" font-size="10.00">::deleteConfiguration</text>
</a>
</g>
</g>
<!-- Node2&#45;&gt;Node3 -->
<g id="edge2" class="edge"><title>Node2&#45;&gt;Node3</title>
<path fill="none" stroke="midnightblue" d="M353.248,-15.5C361.562,-15.5 370.132,-15.5 378.566,-15.5"/>
<polygon fill="midnightblue" stroke="midnightblue" points="378.76,-19.0001 388.76,-15.5 378.759,-12.0001 378.76,-19.0001"/>
</g>
<!-- Node4 -->
<g id="node4" class="node"><title>Node4</title>
<g id="a_node4"><a xlink:href="classCElement.html#a4aec98bde47367325cf332a5dc471eb9" target="_top" xlink:title="CElement::removeChild">
<polygon fill="white" stroke="black" points="546,-6 546,-25 675,-25 675,-6 546,-6"/>
<text text-anchor="middle" x="610.5" y="-13" font-family="Verdana" font-size="10.00">CElement::removeChild</text>
</a>
</g>
</g>
<!-- Node3&#45;&gt;Node4 -->
<g id="edge3" class="edge"><title>Node3&#45;&gt;Node4</title>
<path fill="none" stroke="midnightblue" d="M510.158,-15.5C518.518,-15.5 527.191,-15.5 535.774,-15.5"/>
<polygon fill="midnightblue" stroke="midnightblue" points="535.784,-19.0001 545.784,-15.5 535.784,-12.0001 535.784,-19.0001"/>
</g>
</g>
</svg>
