<?xml version="1.0" encoding="UTF-8" standalone="no"?>
<!DOCTYPE svg PUBLIC "-//W3C//DTD SVG 1.1//EN"
 "http://www.w3.org/Graphics/SVG/1.1/DTD/svg11.dtd">
<!-- Generated by graphviz version 2.38.0 (20140413.2041)
 -->
<!-- Title: CTypeElement::getArrayLength Pages: 1 -->
<svg width="563pt" height="78pt"
 viewBox="0.00 0.00 563.00 77.50" xmlns="http://www.w3.org/2000/svg" xmlns:xlink="http://www.w3.org/1999/xlink">
<g id="graph0" class="graph" transform="scale(1 1) rotate(0) translate(4 73.5)">
<title>CTypeElement::getArrayLength</title>
<polygon fill="white" stroke="none" points="-4,4 -4,-73.5 559,-73.5 559,4 -4,4"/>
<!-- Node1 -->
<g id="node1" class="node"><title>Node1</title>
<polygon fill="#bfbfbf" stroke="black" points="0,-22.5 0,-41.5 164,-41.5 164,-22.5 0,-22.5"/>
<text text-anchor="middle" x="82" y="-29.5" font-family="Verdana" font-size="10.00">CTypeElement::getArrayLength</text>
</g>
<!-- Node2 -->
<g id="node2" class="node"><title>Node2</title>
<g id="a_node2"><a xlink:href="classCInstanceConfigurableElement.html#a590967d30772d8ada0ac367f4273d248" target="_top" xlink:title="CInstanceConfigurableElement\l::getArrayLength">
<polygon fill="white" stroke="black" points="200,-39 200,-69 364,-69 364,-39 200,-39"/>
<text text-anchor="start" x="208" y="-57" font-family="Verdana" font-size="10.00">CInstanceConfigurableElement</text>
<text text-anchor="middle" x="282" y="-46" font-family="Verdana" font-size="10.00">::getArrayLength</text>
</a>
</g>
</g>
<!-- Node1&#45;&gt;Node2 -->
<g id="edge1" class="edge"><title>Node1&#45;&gt;Node2</title>
<path fill="none" stroke="midnightblue" d="M174.085,-42.1205C182.63,-43.07 191.254,-44.0282 199.7,-44.9667"/>
<polygon fill="midnightblue" stroke="midnightblue" points="174.431,-38.6375 164.105,-41.0117 173.658,-45.5947 174.431,-38.6375"/>
</g>
<!-- Node4 -->
<g id="node4" class="node"><title>Node4</title>
<g id="a_node4"><a xlink:href="classCTypeElement.html#ac4118594de3638c76ab40ccc4ecbb2a8" target="_top" xlink:title="CTypeElement::toXml">
<polygon fill="white" stroke="black" points="223,-0.5 223,-19.5 341,-19.5 341,-0.5 223,-0.5"/>
<text text-anchor="middle" x="282" y="-7.5" font-family="Verdana" font-size="10.00">CTypeElement::toXml</text>
</a>
</g>
</g>
<!-- Node1&#45;&gt;Node4 -->
<g id="edge3" class="edge"><title>Node1&#45;&gt;Node4</title>
<path fill="none" stroke="midnightblue" d="M174.308,-21.8547C190.779,-20.0246 207.536,-18.1627 222.739,-16.4734"/>
<polygon fill="midnightblue" stroke="midnightblue" points="173.658,-18.4053 164.105,-22.9883 174.431,-25.3625 173.658,-18.4053"/>
</g>
<!-- Node3 -->
<g id="node3" class="node"><title>Node3</title>
<g id="a_node3"><a xlink:href="classCParameterHandle.html#ac4cb5852a5c0f9ec73cc20894ac3cfd6" target="_top" xlink:title="CParameterHandle::getArray\lLength">
<polygon fill="white" stroke="black" points="400,-39 400,-69 555,-69 555,-39 400,-39"/>
<text text-anchor="start" x="408" y="-57" font-family="Verdana" font-size="10.00">CParameterHandle::getArray</text>
<text text-anchor="middle" x="477.5" y="-46" font-family="Verdana" font-size="10.00">Length</text>
</a>
</g>
</g>
<!-- Node2&#45;&gt;Node3 -->
<g id="edge2" class="edge"><title>Node2&#45;&gt;Node3</title>
<path fill="none" stroke="midnightblue" d="M374.227,-54C382.788,-54 391.407,-54 399.814,-54"/>
<polygon fill="midnightblue" stroke="midnightblue" points="374.22,-50.5001 364.22,-54 374.22,-57.5001 374.22,-50.5001"/>
</g>
<!-- Node5 -->
<g id="node5" class="node"><title>Node5</title>
<g id="a_node5"><a xlink:href="classCBaseParameter.html#a0fe540f46e1b69858e68b72fd7d383a8" target="_top" xlink:title="CBaseParameter::toXml">
<polygon fill="white" stroke="black" points="412,-0.5 412,-19.5 543,-19.5 543,-0.5 412,-0.5"/>
<text text-anchor="middle" x="477.5" y="-7.5" font-family="Verdana" font-size="10.00">CBaseParameter::toXml</text>
</a>
</g>
</g>
<!-- Node4&#45;&gt;Node5 -->
<g id="edge4" class="edge"><title>Node4&#45;&gt;Node5</title>
<path fill="none" stroke="midnightblue" d="M351.168,-10C370.843,-10 392.251,-10 411.714,-10"/>
<polygon fill="midnightblue" stroke="midnightblue" points="351.056,-6.5001 341.056,-10 351.056,-13.5001 351.056,-6.5001"/>
</g>
</g>
</svg>
