<?xml version="1.0" encoding="UTF-8" standalone="no"?>
<!DOCTYPE svg PUBLIC "-//W3C//DTD SVG 1.1//EN"
 "http://www.w3.org/Graphics/SVG/1.1/DTD/svg11.dtd">
<!-- Generated by graphviz version 2.36.0 (20140111.2315)
 -->
<!-- Title: CBitParameterBlock::getSize Pages: 1 -->
<svg width="268pt" height="87pt"
 viewBox="0.00 0.00 268.00 87.00" xmlns="http://www.w3.org/2000/svg" xmlns:xlink="http://www.w3.org/1999/xlink">
<g id="graph0" class="graph" transform="scale(1 1) rotate(0) translate(4 83)">
<title>CBitParameterBlock::getSize</title>
<polygon fill="white" stroke="none" points="-4,4 -4,-83 264,-83 264,4 -4,4"/>
<!-- Node1 -->
<g id="node1" class="node"><title>Node1</title>
<polygon fill="#bfbfbf" stroke="black" points="0,-24 0,-54 112,-54 112,-24 0,-24"/>
<text text-anchor="start" x="8" y="-42" font-family="Verdana" font-size="10.00">CBitParameterBlock</text>
<text text-anchor="middle" x="56" y="-31" font-family="Verdana" font-size="10.00">::getSize</text>
</g>
<!-- Node2 -->
<g id="node2" class="node"><title>Node2</title>
<g id="a_node2"><a xlink:href="classCBitParameterBlock.html#a95ebf43ee26531c6f4b9b33b4af6709e" target="_top" xlink:title="CBitParameterBlock\l::getFootPrint">
<polygon fill="white" stroke="black" points="148,-49 148,-79 260,-79 260,-49 148,-49"/>
<text text-anchor="start" x="156" y="-67" font-family="Verdana" font-size="10.00">CBitParameterBlock</text>
<text text-anchor="middle" x="204" y="-56" font-family="Verdana" font-size="10.00">::getFootPrint</text>
</a>
</g>
</g>
<!-- Node1&#45;&gt;Node2 -->
<g id="edge1" class="edge"><title>Node1&#45;&gt;Node2</title>
<path fill="none" stroke="midnightblue" d="M122.131,-50.1526C130.676,-51.6157 139.366,-53.1037 147.726,-54.5352"/>
<polygon fill="midnightblue" stroke="midnightblue" points="122.644,-46.6895 112.196,-48.4514 121.462,-53.5891 122.644,-46.6895"/>
</g>
<!-- Node3 -->
<g id="node3" class="node"><title>Node3</title>
<g id="a_node3"><a xlink:href="classCBitParameterBlock.html#a74485c7734eb44648b1182cf8e884d40" target="_top" xlink:title="CBitParameterBlock\l::setDefaultValues">
<polygon fill="white" stroke="black" points="148,-0 148,-30 260,-30 260,-0 148,-0"/>
<text text-anchor="start" x="156" y="-18" font-family="Verdana" font-size="10.00">CBitParameterBlock</text>
<text text-anchor="middle" x="204" y="-7" font-family="Verdana" font-size="10.00">::setDefaultValues</text>
</a>
</g>
</g>
<!-- Node1&#45;&gt;Node3 -->
<g id="edge2" class="edge"><title>Node1&#45;&gt;Node3</title>
<path fill="none" stroke="midnightblue" d="M122.131,-28.2935C130.676,-26.8889 139.366,-25.4604 147.726,-24.0862"/>
<polygon fill="midnightblue" stroke="midnightblue" points="121.496,-24.8508 112.196,-29.9266 122.632,-31.7581 121.496,-24.8508"/>
</g>
</g>
</svg>
