<?xml version="1.0" encoding="UTF-8" standalone="no"?>
<!DOCTYPE svg PUBLIC "-//W3C//DTD SVG 1.1//EN"
 "http://www.w3.org/Graphics/SVG/1.1/DTD/svg11.dtd">
<!-- Generated by graphviz version 2.38.0 (20140413.2041)
 -->
<!-- Title: CParameterMgr::createConfiguration Pages: 1 -->
<svg width="1023pt" height="215pt"
 viewBox="0.00 0.00 1023.00 214.50" xmlns="http://www.w3.org/2000/svg" xmlns:xlink="http://www.w3.org/1999/xlink">
<g id="graph0" class="graph" transform="scale(1 1) rotate(0) translate(4 210.5)">
<title>CParameterMgr::createConfiguration</title>
<polygon fill="white" stroke="none" points="-4,4 -4,-210.5 1019,-210.5 1019,4 -4,4"/>
<!-- Node1 -->
<g id="node1" class="node"><title>Node1</title>
<polygon fill="#bfbfbf" stroke="black" points="0,-94 0,-113 192,-113 192,-94 0,-94"/>
<text text-anchor="middle" x="96" y="-101" font-family="Verdana" font-size="10.00">CParameterMgr::createConfiguration</text>
</g>
<!-- Node2 -->
<g id="node2" class="node"><title>Node2</title>
<g id="a_node2"><a xlink:href="classCConfigurableDomains.html#aa96eec13d9bdbb307e1dcfe6f057a685" target="_top" xlink:title="CConfigurableDomains\l::createConfiguration">
<polygon fill="white" stroke="black" points="228,-88.5 228,-118.5 354,-118.5 354,-88.5 228,-88.5"/>
<text text-anchor="start" x="236" y="-106.5" font-family="Verdana" font-size="10.00">CConfigurableDomains</text>
<text text-anchor="middle" x="291" y="-95.5" font-family="Verdana" font-size="10.00">::createConfiguration</text>
</a>
</g>
</g>
<!-- Node1&#45;&gt;Node2 -->
<g id="edge1" class="edge"><title>Node1&#45;&gt;Node2</title>
<path fill="none" stroke="midnightblue" d="M192.086,-103.5C200.745,-103.5 209.419,-103.5 217.829,-103.5"/>
<polygon fill="midnightblue" stroke="midnightblue" points="217.938,-107 227.938,-103.5 217.938,-100 217.938,-107"/>
</g>
<!-- Node3 -->
<g id="node3" class="node"><title>Node3</title>
<g id="a_node3"><a xlink:href="classCConfigurableDomain.html#a82e376a127b18da449923829825bcbed" target="_top" xlink:title="CConfigurableDomain\l::createConfiguration">
<polygon fill="white" stroke="black" points="390,-88.5 390,-118.5 511,-118.5 511,-88.5 390,-88.5"/>
<text text-anchor="start" x="398" y="-106.5" font-family="Verdana" font-size="10.00">CConfigurableDomain</text>
<text text-anchor="middle" x="450.5" y="-95.5" font-family="Verdana" font-size="10.00">::createConfiguration</text>
</a>
</g>
</g>
<!-- Node2&#45;&gt;Node3 -->
<g id="edge2" class="edge"><title>Node2&#45;&gt;Node3</title>
<path fill="none" stroke="midnightblue" d="M354.248,-103.5C362.562,-103.5 371.132,-103.5 379.566,-103.5"/>
<polygon fill="midnightblue" stroke="midnightblue" points="379.76,-107 389.76,-103.5 379.759,-100 379.76,-107"/>
</g>
<!-- Node4 -->
<g id="node4" class="node"><title>Node4</title>
<g id="a_node4"><a xlink:href="classCElement.html#af51bbf231ec74ff4d4b7fac9588be603" target="_top" xlink:title="CElement::findChild">
<polygon fill="white" stroke="black" points="562,-187 562,-206 672,-206 672,-187 562,-187"/>
<text text-anchor="middle" x="617" y="-194" font-family="Verdana" font-size="10.00">CElement::findChild</text>
</a>
</g>
</g>
<!-- Node3&#45;&gt;Node4 -->
<g id="edge3" class="edge"><title>Node3&#45;&gt;Node4</title>
<path fill="none" stroke="midnightblue" d="M467.066,-118.73C484.952,-135.43 515.863,-161.919 547,-177.5 551.604,-179.804 556.526,-181.86 561.541,-183.688"/>
<polygon fill="midnightblue" stroke="midnightblue" points="560.65,-187.08 571.244,-186.927 562.867,-180.44 560.65,-187.08"/>
</g>
<!-- Node5 -->
<g id="node5" class="node"><title>Node5</title>
<g id="a_node5"><a xlink:href="classCDomainConfiguration.html#a80948f485ce0b70ce80c8bd9f9aca003" target="_top" xlink:title="CDomainConfiguration\l::CDomainConfiguration">
<polygon fill="white" stroke="black" points="551.5,-137.5 551.5,-167.5 682.5,-167.5 682.5,-137.5 551.5,-137.5"/>
<text text-anchor="start" x="559.5" y="-155.5" font-family="Verdana" font-size="10.00">CDomainConfiguration</text>
<text text-anchor="middle" x="617" y="-144.5" font-family="Verdana" font-size="10.00">::CDomainConfiguration</text>
</a>
</g>
</g>
<!-- Node3&#45;&gt;Node5 -->
<g id="edge4" class="edge"><title>Node3&#45;&gt;Node5</title>
<path fill="none" stroke="midnightblue" d="M502.198,-118.601C519.164,-123.655 538.241,-129.338 555.856,-134.585"/>
<polygon fill="midnightblue" stroke="midnightblue" points="554.887,-137.948 565.47,-137.448 556.885,-131.239 554.887,-137.948"/>
</g>
<!-- Node7 -->
<g id="node7" class="node"><title>Node7</title>
<g id="a_node7"><a xlink:href="classCDomainConfiguration.html#a2722416342b16b07ffa05b0e0253bc66" target="_top" xlink:title="CDomainConfiguration\l::addConfigurableElement">
<polygon fill="white" stroke="black" points="547,-88.5 547,-118.5 687,-118.5 687,-88.5 547,-88.5"/>
<text text-anchor="start" x="555" y="-106.5" font-family="Verdana" font-size="10.00">CDomainConfiguration</text>
<text text-anchor="middle" x="617" y="-95.5" font-family="Verdana" font-size="10.00">::addConfigurableElement</text>
</a>
</g>
</g>
<!-- Node3&#45;&gt;Node7 -->
<g id="edge6" class="edge"><title>Node3&#45;&gt;Node7</title>
<path fill="none" stroke="midnightblue" d="M511.354,-103.5C519.673,-103.5 528.323,-103.5 536.927,-103.5"/>
<polygon fill="midnightblue" stroke="midnightblue" points="536.984,-107 546.984,-103.5 536.984,-100 536.984,-107"/>
</g>
<!-- Node10 -->
<g id="node10" class="node"><title>Node10</title>
<g id="a_node10"><a xlink:href="classCElement.html#ac2ad66ee438a4a0c1390b7388874fe72" target="_top" xlink:title="CElement::addChild">
<polygon fill="white" stroke="black" points="562,-50 562,-69 672,-69 672,-50 562,-50"/>
<text text-anchor="middle" x="617" y="-57" font-family="Verdana" font-size="10.00">CElement::addChild</text>
</a>
</g>
</g>
<!-- Node3&#45;&gt;Node10 -->
<g id="edge9" class="edge"><title>Node3&#45;&gt;Node10</title>
<path fill="none" stroke="midnightblue" d="M507.651,-88.4808C528.1,-83.0112 550.95,-76.8993 570.375,-71.7036"/>
<polygon fill="midnightblue" stroke="midnightblue" points="571.434,-75.0434 580.19,-69.0783 569.625,-68.2812 571.434,-75.0434"/>
</g>
<!-- Node11 -->
<g id="node11" class="node"><title>Node11</title>
<g id="a_node11"><a xlink:href="classCDomainConfiguration.html#a442810a2eceb0eb11da8fefef93406d5" target="_top" xlink:title="CDomainConfiguration\l::validate">
<polygon fill="white" stroke="black" points="554.5,-0.5 554.5,-30.5 679.5,-30.5 679.5,-0.5 554.5,-0.5"/>
<text text-anchor="start" x="562.5" y="-18.5" font-family="Verdana" font-size="10.00">CDomainConfiguration</text>
<text text-anchor="middle" x="617" y="-7.5" font-family="Verdana" font-size="10.00">::validate</text>
</a>
</g>
</g>
<!-- Node3&#45;&gt;Node11 -->
<g id="edge10" class="edge"><title>Node3&#45;&gt;Node11</title>
<path fill="none" stroke="midnightblue" d="M471.518,-88.2706C490.281,-74.497 519.487,-54.316 547,-40.5 551.259,-38.3612 555.747,-36.3137 560.305,-34.3764"/>
<polygon fill="midnightblue" stroke="midnightblue" points="561.76,-37.5633 569.711,-30.5608 559.129,-31.0767 561.76,-37.5633"/>
</g>
<!-- Node6 -->
<g id="node6" class="node"><title>Node6</title>
<g id="a_node6"><a xlink:href="classCElement.html#adda0945fbca000ff1e605a9b93f74c64" target="_top" xlink:title="CElement::CElement">
<polygon fill="white" stroke="black" points="735,-143 735,-162 851,-162 851,-143 735,-143"/>
<text text-anchor="middle" x="793" y="-150" font-family="Verdana" font-size="10.00">CElement::CElement</text>
</a>
</g>
</g>
<!-- Node5&#45;&gt;Node6 -->
<g id="edge5" class="edge"><title>Node5&#45;&gt;Node6</title>
<path fill="none" stroke="midnightblue" d="M682.791,-152.5C696.419,-152.5 710.827,-152.5 724.55,-152.5"/>
<polygon fill="midnightblue" stroke="midnightblue" points="724.887,-156 734.887,-152.5 724.887,-149 724.887,-156"/>
</g>
<!-- Node8 -->
<g id="node8" class="node"><title>Node8</title>
<g id="a_node8"><a xlink:href="classCConfigurableElement.html#a41fcefde73d823509e16458ef712e0c3" target="_top" xlink:title="CConfigurableElement\l::createAreaConfiguration">
<polygon fill="white" stroke="black" points="723,-88.5 723,-118.5 863,-118.5 863,-88.5 723,-88.5"/>
<text text-anchor="start" x="731" y="-106.5" font-family="Verdana" font-size="10.00">CConfigurableElement</text>
<text text-anchor="middle" x="793" y="-95.5" font-family="Verdana" font-size="10.00">::createAreaConfiguration</text>
</a>
</g>
</g>
<!-- Node7&#45;&gt;Node8 -->
<g id="edge7" class="edge"><title>Node7&#45;&gt;Node8</title>
<path fill="none" stroke="midnightblue" d="M687.019,-103.5C695.476,-103.5 704.169,-103.5 712.761,-103.5"/>
<polygon fill="midnightblue" stroke="midnightblue" points="712.78,-107 722.779,-103.5 712.779,-100 712.78,-107"/>
</g>
<!-- Node9 -->
<g id="node9" class="node"><title>Node9</title>
<g id="a_node9"><a xlink:href="classCAreaConfiguration.html#ab7057b4cf2482e15666f538211ac65c5" target="_top" xlink:title="CAreaConfiguration\l::CAreaConfiguration">
<polygon fill="white" stroke="black" points="899,-88.5 899,-118.5 1015,-118.5 1015,-88.5 899,-88.5"/>
<text text-anchor="start" x="907" y="-106.5" font-family="Verdana" font-size="10.00">CAreaConfiguration</text>
<text text-anchor="middle" x="957" y="-95.5" font-family="Verdana" font-size="10.00">::CAreaConfiguration</text>
</a>
</g>
</g>
<!-- Node8&#45;&gt;Node9 -->
<g id="edge8" class="edge"><title>Node8&#45;&gt;Node9</title>
<path fill="none" stroke="midnightblue" d="M863.172,-103.5C871.61,-103.5 880.222,-103.5 888.632,-103.5"/>
<polygon fill="midnightblue" stroke="midnightblue" points="888.766,-107 898.766,-103.5 888.766,-100 888.766,-107"/>
</g>
<!-- Node12 -->
<g id="node12" class="node"><title>Node12</title>
<g id="a_node12"><a xlink:href="classCAreaConfiguration.html#a9c0ddade93f42f2ed315dd3a0719933c" target="_top" xlink:title="CAreaConfiguration\l::validate">
<polygon fill="white" stroke="black" points="738,-0.5 738,-30.5 848,-30.5 848,-0.5 738,-0.5"/>
<text text-anchor="start" x="746" y="-18.5" font-family="Verdana" font-size="10.00">CAreaConfiguration</text>
<text text-anchor="middle" x="793" y="-7.5" font-family="Verdana" font-size="10.00">::validate</text>
</a>
</g>
</g>
<!-- Node11&#45;&gt;Node12 -->
<g id="edge11" class="edge"><title>Node11&#45;&gt;Node12</title>
<path fill="none" stroke="midnightblue" d="M679.836,-15.5C695.381,-15.5 712.099,-15.5 727.758,-15.5"/>
<polygon fill="midnightblue" stroke="midnightblue" points="727.873,-19.0001 737.873,-15.5 727.873,-12.0001 727.873,-19.0001"/>
</g>
<!-- Node13 -->
<g id="node13" class="node"><title>Node13</title>
<g id="a_node13"><a xlink:href="classCAreaConfiguration.html#a0ab61255d58c402f059aceb6668b943d" target="_top" xlink:title="CAreaConfiguration\l::save">
<polygon fill="white" stroke="black" points="902,-0.5 902,-30.5 1012,-30.5 1012,-0.5 902,-0.5"/>
<text text-anchor="start" x="910" y="-18.5" font-family="Verdana" font-size="10.00">CAreaConfiguration</text>
<text text-anchor="middle" x="957" y="-7.5" font-family="Verdana" font-size="10.00">::save</text>
</a>
</g>
</g>
<!-- Node12&#45;&gt;Node13 -->
<g id="edge12" class="edge"><title>Node12&#45;&gt;Node13</title>
<path fill="none" stroke="midnightblue" d="M848.394,-15.5C862.226,-15.5 877.222,-15.5 891.503,-15.5"/>
<polygon fill="midnightblue" stroke="midnightblue" points="891.749,-19.0001 901.749,-15.5 891.749,-12.0001 891.749,-19.0001"/>
</g>
</g>
</svg>
