<?xml version="1.0" encoding="UTF-8" standalone="no"?>
<!DOCTYPE svg PUBLIC "-//W3C//DTD SVG 1.1//EN"
 "http://www.w3.org/Graphics/SVG/1.1/DTD/svg11.dtd">
<!-- Generated by graphviz version 2.38.0 (20140413.2041)
 -->
<!-- Title: CConfigurableElement::hasNoValidDomainAssociated Pages: 1 -->
<svg width="525pt" height="106pt"
 viewBox="0.00 0.00 525.00 106.00" xmlns="http://www.w3.org/2000/svg" xmlns:xlink="http://www.w3.org/1999/xlink">
<g id="graph0" class="graph" transform="scale(1 1) rotate(0) translate(4 102)">
<title>CConfigurableElement::hasNoValidDomainAssociated</title>
<polygon fill="white" stroke="none" points="-4,4 -4,-102 521,-102 521,4 -4,4"/>
<!-- Node1 -->
<g id="node1" class="node"><title>Node1</title>
<polygon fill="#bfbfbf" stroke="black" points="0,-33.5 0,-63.5 166,-63.5 166,-33.5 0,-33.5"/>
<text text-anchor="start" x="8" y="-51.5" font-family="Verdana" font-size="10.00">CConfigurableElement</text>
<text text-anchor="middle" x="83" y="-40.5" font-family="Verdana" font-size="10.00">::hasNoValidDomainAssociated</text>
</g>
<!-- Node2 -->
<g id="node2" class="node"><title>Node2</title>
<g id="a_node2"><a xlink:href="classCBackSynchronizer.html#a8f1d4835d14d4c2a89a093c72ed140b7" target="_top" xlink:title="CBackSynchronizer::\lCBackSynchronizer">
<polygon fill="white" stroke="black" points="202,-33.5 202,-63.5 317,-63.5 317,-33.5 202,-33.5"/>
<text text-anchor="start" x="210" y="-51.5" font-family="Verdana" font-size="10.00">CBackSynchronizer::</text>
<text text-anchor="middle" x="259.5" y="-40.5" font-family="Verdana" font-size="10.00">CBackSynchronizer</text>
</a>
</g>
</g>
<!-- Node1&#45;&gt;Node2 -->
<g id="edge1" class="edge"><title>Node1&#45;&gt;Node2</title>
<path fill="none" stroke="midnightblue" d="M176.294,-48.5C184.936,-48.5 193.511,-48.5 201.679,-48.5"/>
<polygon fill="midnightblue" stroke="midnightblue" points="176.14,-45.0001 166.14,-48.5 176.14,-52.0001 176.14,-45.0001"/>
</g>
<!-- Node3 -->
<g id="node3" class="node"><title>Node3</title>
<g id="a_node3"><a xlink:href="classCHardwareBackSynchronizer.html#ad06f7ec68fcd8ce9b878963a39300839" target="_top" xlink:title="CHardwareBackSynchronizer\l::CHardwareBackSynchronizer">
<polygon fill="white" stroke="black" points="354.5,-67.5 354.5,-97.5 515.5,-97.5 515.5,-67.5 354.5,-67.5"/>
<text text-anchor="start" x="362.5" y="-85.5" font-family="Verdana" font-size="10.00">CHardwareBackSynchronizer</text>
<text text-anchor="middle" x="435" y="-74.5" font-family="Verdana" font-size="10.00">::CHardwareBackSynchronizer</text>
</a>
</g>
</g>
<!-- Node2&#45;&gt;Node3 -->
<g id="edge2" class="edge"><title>Node2&#45;&gt;Node3</title>
<path fill="none" stroke="midnightblue" d="M327.345,-61.5992C337.118,-63.5146 347.249,-65.4998 357.202,-67.4502"/>
<polygon fill="midnightblue" stroke="midnightblue" points="327.797,-58.1214 317.31,-59.6329 326.451,-64.9907 327.797,-58.1214"/>
</g>
<!-- Node4 -->
<g id="node4" class="node"><title>Node4</title>
<g id="a_node4"><a xlink:href="classCSimulatedBackSynchronizer.html#a29b298407c7bccc21caa811d04813bcf" target="_top" xlink:title="CSimulatedBackSynchronizer\l::CSimulatedBackSynchronizer">
<polygon fill="white" stroke="black" points="353,-0.5 353,-30.5 517,-30.5 517,-0.5 353,-0.5"/>
<text text-anchor="start" x="361" y="-18.5" font-family="Verdana" font-size="10.00">CSimulatedBackSynchronizer</text>
<text text-anchor="middle" x="435" y="-7.5" font-family="Verdana" font-size="10.00">::CSimulatedBackSynchronizer</text>
</a>
</g>
</g>
<!-- Node2&#45;&gt;Node4 -->
<g id="edge3" class="edge"><title>Node2&#45;&gt;Node4</title>
<path fill="none" stroke="midnightblue" d="M327.376,-35.7801C336.425,-34.0589 345.78,-32.2796 355.016,-30.5229"/>
<polygon fill="midnightblue" stroke="midnightblue" points="326.48,-32.3876 317.31,-37.6946 327.788,-39.2643 326.48,-32.3876"/>
</g>
<!-- Node4&#45;&gt;Node4 -->
<g id="edge4" class="edge"><title>Node4&#45;&gt;Node4</title>
<path fill="none" stroke="midnightblue" d="M404.082,-40.9579C407.92,-45.679 418.226,-49 435,-49 462.527,-49 472.635,-40.0566 465.323,-30.659"/>
<polygon fill="midnightblue" stroke="midnightblue" points="407.595,-40.8441 404.677,-30.659 400.606,-40.4406 407.595,-40.8441"/>
</g>
</g>
</svg>
