<?xml version="1.0" encoding="UTF-8" standalone="no"?>
<!DOCTYPE svg PUBLIC "-//W3C//DTD SVG 1.1//EN"
 "http://www.w3.org/Graphics/SVG/1.1/DTD/svg11.dtd">
<!-- Generated by graphviz version 2.38.0 (20140413.2041)
 -->
<!-- Title: ElementHandle::setAsSignedInteger Pages: 1 -->
<svg width="466pt" height="39pt"
 viewBox="0.00 0.00 466.00 39.00" xmlns="http://www.w3.org/2000/svg" xmlns:xlink="http://www.w3.org/1999/xlink">
<g id="graph0" class="graph" transform="scale(1 1) rotate(0) translate(4 35)">
<title>ElementHandle::setAsSignedInteger</title>
<polygon fill="white" stroke="none" points="-4,4 -4,-35 462,-35 462,4 -4,4"/>
<!-- Node1 -->
<g id="node1" class="node"><title>Node1</title>
<polygon fill="#bfbfbf" stroke="black" points="0,-0.5 0,-30.5 156,-30.5 156,-0.5 0,-0.5"/>
<text text-anchor="start" x="8" y="-18.5" font-family="Verdana" font-size="10.00">ElementHandle::setAsSigned</text>
<text text-anchor="middle" x="78" y="-7.5" font-family="Verdana" font-size="10.00">Integer</text>
</g>
<!-- Node2 -->
<g id="node2" class="node"><title>Node2</title>
<g id="a_node2"><a xlink:href="ParameterFramework_8h.html#af7fd08602e984c778aaf0e4526cbbded" target="_top" xlink:title="Set the value of a previously bind int parameter. ">
<polygon fill="white" stroke="black" points="192,-6 192,-25 303,-25 303,-6 192,-6"/>
<text text-anchor="middle" x="247.5" y="-13" font-family="Verdana" font-size="10.00">pfwSetIntParameter</text>
</a>
</g>
</g>
<!-- Node1&#45;&gt;Node2 -->
<g id="edge1" class="edge"><title>Node1&#45;&gt;Node2</title>
<path fill="none" stroke="midnightblue" d="M166.521,-15.5C175.161,-15.5 183.747,-15.5 191.911,-15.5"/>
<polygon fill="midnightblue" stroke="midnightblue" points="166.376,-12.0001 156.376,-15.5 166.376,-19.0001 166.376,-12.0001"/>
</g>
<!-- Node3 -->
<g id="node3" class="node"><title>Node3</title>
<g id="a_node3"><a xlink:href="Test_8cpp.html#ae78f4780e83e5f2b9721a2d66c70fec9" target="_top" xlink:title="TEST_CASE_METHOD">
<polygon fill="white" stroke="black" points="339,-6 339,-25 458,-25 458,-6 339,-6"/>
<text text-anchor="middle" x="398.5" y="-13" font-family="Verdana" font-size="10.00">TEST_CASE_METHOD</text>
</a>
</g>
</g>
<!-- Node2&#45;&gt;Node3 -->
<g id="edge2" class="edge"><title>Node2&#45;&gt;Node3</title>
<path fill="none" stroke="midnightblue" d="M313.364,-15.5C321.843,-15.5 330.49,-15.5 338.859,-15.5"/>
<polygon fill="midnightblue" stroke="midnightblue" points="313.136,-12.0001 303.136,-15.5 313.136,-19.0001 313.136,-12.0001"/>
</g>
</g>
</svg>
