<?xml version="1.0" encoding="UTF-8" standalone="no"?>
<!DOCTYPE svg PUBLIC "-//W3C//DTD SVG 1.1//EN"
 "http://www.w3.org/Graphics/SVG/1.1/DTD/svg11.dtd">
<!-- Generated by graphviz version 2.36.0 (20140111.2315)
 -->
<!-- Title: CElement::log_info Pages: 1 -->
<svg width="810pt" height="899pt"
 viewBox="0.00 0.00 810.00 899.00" xmlns="http://www.w3.org/2000/svg" xmlns:xlink="http://www.w3.org/1999/xlink">
<g id="graph0" class="graph" transform="scale(1 1) rotate(0) translate(4 895)">
<title>CElement::log_info</title>
<polygon fill="white" stroke="none" points="-4,4 -4,-895 806,-895 806,4 -4,4"/>
<!-- Node1 -->
<g id="node1" class="node"><title>Node1</title>
<polygon fill="#bfbfbf" stroke="black" points="0,-415.5 0,-434.5 106,-434.5 106,-415.5 0,-415.5"/>
<text text-anchor="middle" x="53" y="-422.5" font-family="Verdana" font-size="10.00">CElement::log_info</text>
</g>
<!-- Node2 -->
<g id="node2" class="node"><title>Node2</title>
<g id="a_node2"><a xlink:href="classCConfigurableDomain.html#a3a77775be8a0df31842b5857a238789e" target="_top" xlink:title="CConfigurableDomain\l::setSequenceAwareness">
<polygon fill="white" stroke="black" points="170.5,-859 170.5,-889 307.5,-889 307.5,-859 170.5,-859"/>
<text text-anchor="start" x="178.5" y="-877" font-family="Verdana" font-size="10.00">CConfigurableDomain</text>
<text text-anchor="middle" x="239" y="-866" font-family="Verdana" font-size="10.00">::setSequenceAwareness</text>
</a>
</g>
</g>
<!-- Node1&#45;&gt;Node2 -->
<g id="edge1" class="edge"><title>Node1&#45;&gt;Node2</title>
<path fill="none" stroke="midnightblue" d="M55.5712,-445.164C61.827,-520.444 87.3226,-783.812 142,-844 149.632,-852.401 159.577,-858.47 170.169,-862.849"/>
<polygon fill="midnightblue" stroke="midnightblue" points="59.0244,-444.442 54.7309,-434.756 52.0472,-445.006 59.0244,-444.442"/>
</g>
<!-- Node5 -->
<g id="node5" class="node"><title>Node5</title>
<g id="a_node5"><a xlink:href="classCConfigurableDomain.html#acf2423f10f9c85b255fb9bade2664801" target="_top" xlink:title="CConfigurableDomain\l::removeConfigurableElement">
<polygon fill="white" stroke="black" points="159.5,-805 159.5,-835 318.5,-835 318.5,-805 159.5,-805"/>
<text text-anchor="start" x="167.5" y="-823" font-family="Verdana" font-size="10.00">CConfigurableDomain</text>
<text text-anchor="middle" x="239" y="-812" font-family="Verdana" font-size="10.00">::removeConfigurableElement</text>
</a>
</g>
</g>
<!-- Node1&#45;&gt;Node5 -->
<g id="edge4" class="edge"><title>Node1&#45;&gt;Node5</title>
<path fill="none" stroke="midnightblue" d="M56.147,-444.87C63.9701,-513.718 93.0821,-740.652 142,-792 147.03,-797.279 152.993,-801.58 159.448,-805.081"/>
<polygon fill="midnightblue" stroke="midnightblue" points="59.5859,-444.126 55.0033,-434.573 52.6287,-444.899 59.5859,-444.126"/>
</g>
<!-- Node8 -->
<g id="node8" class="node"><title>Node8</title>
<g id="a_node8"><a xlink:href="classCConfigurableDomain.html#aea88fe7f6e3f02217f5d9f0e2e820da2" target="_top" xlink:title="CConfigurableDomain\l::split">
<polygon fill="white" stroke="black" points="178.5,-753 178.5,-783 299.5,-783 299.5,-753 178.5,-753"/>
<text text-anchor="start" x="186.5" y="-771" font-family="Verdana" font-size="10.00">CConfigurableDomain</text>
<text text-anchor="middle" x="239" y="-760" font-family="Verdana" font-size="10.00">::split</text>
</a>
</g>
</g>
<!-- Node1&#45;&gt;Node8 -->
<g id="edge7" class="edge"><title>Node1&#45;&gt;Node8</title>
<path fill="none" stroke="midnightblue" d="M53.1785,-444.998C52.0415,-500.719 56.8417,-659.128 142,-743 151.816,-752.668 164.873,-758.735 178.185,-762.507"/>
<polygon fill="midnightblue" stroke="midnightblue" points="56.6849,-444.83 53.4844,-434.731 49.688,-444.622 56.6849,-444.83"/>
</g>
<!-- Node11 -->
<g id="node11" class="node"><title>Node11</title>
<g id="a_node11"><a xlink:href="classCConfigurableDomain.html#a928805e163719f902c207c061ab3b1c2" target="_top" xlink:title="CConfigurableDomain\l::apply">
<polygon fill="white" stroke="black" points="178.5,-704 178.5,-734 299.5,-734 299.5,-704 178.5,-704"/>
<text text-anchor="start" x="186.5" y="-722" font-family="Verdana" font-size="10.00">CConfigurableDomain</text>
<text text-anchor="middle" x="239" y="-711" font-family="Verdana" font-size="10.00">::apply</text>
</a>
</g>
</g>
<!-- Node1&#45;&gt;Node11 -->
<g id="edge10" class="edge"><title>Node1&#45;&gt;Node11</title>
<path fill="none" stroke="midnightblue" d="M54.3483,-444.537C56.329,-493.971 68.6093,-624.983 142,-694 152.037,-703.439 165.176,-709.42 178.498,-713.182"/>
<polygon fill="midnightblue" stroke="midnightblue" points="57.8467,-444.429 54.0489,-434.538 50.8498,-444.638 57.8467,-444.429"/>
</g>
<!-- Node13 -->
<g id="node13" class="node"><title>Node13</title>
<g id="a_node13"><a xlink:href="classCConfigurableDomain.html#a82e376a127b18da449923829825bcbed" target="_top" xlink:title="CConfigurableDomain\l::createConfiguration">
<polygon fill="white" stroke="black" points="178.5,-655 178.5,-685 299.5,-685 299.5,-655 178.5,-655"/>
<text text-anchor="start" x="186.5" y="-673" font-family="Verdana" font-size="10.00">CConfigurableDomain</text>
<text text-anchor="middle" x="239" y="-662" font-family="Verdana" font-size="10.00">::createConfiguration</text>
</a>
</g>
</g>
<!-- Node1&#45;&gt;Node13 -->
<g id="edge12" class="edge"><title>Node1&#45;&gt;Node13</title>
<path fill="none" stroke="midnightblue" d="M55.9958,-444.683C61.4409,-487.75 80.5307,-590.812 142,-645 152.206,-653.997 165.255,-659.822 178.421,-663.576"/>
<polygon fill="midnightblue" stroke="midnightblue" points="59.462,-444.187 54.8425,-434.652 52.5078,-444.986 59.462,-444.187"/>
</g>
<!-- Node16 -->
<g id="node16" class="node"><title>Node16</title>
<g id="a_node16"><a xlink:href="classCConfigurableDomain.html#a5029ae23af30ac7b4f5ba526ac50508f" target="_top" xlink:title="CConfigurableDomain\l::deleteConfiguration">
<polygon fill="white" stroke="black" points="178.5,-606 178.5,-636 299.5,-636 299.5,-606 178.5,-606"/>
<text text-anchor="start" x="186.5" y="-624" font-family="Verdana" font-size="10.00">CConfigurableDomain</text>
<text text-anchor="middle" x="239" y="-613" font-family="Verdana" font-size="10.00">::deleteConfiguration</text>
</a>
</g>
</g>
<!-- Node1&#45;&gt;Node16 -->
<g id="edge15" class="edge"><title>Node1&#45;&gt;Node16</title>
<path fill="none" stroke="midnightblue" d="M58.4792,-444.643C67.6788,-480.399 92.162,-556.097 142,-596 152.419,-604.342 165.328,-609.925 178.265,-613.654"/>
<polygon fill="midnightblue" stroke="midnightblue" points="61.8756,-443.797 56.1037,-434.912 55.0753,-445.457 61.8756,-443.797"/>
</g>
<!-- Node19 -->
<g id="node19" class="node"><title>Node19</title>
<g id="a_node19"><a xlink:href="classCConfigurableDomain.html#a647386b073c9dd776f9cd9dcb24088a7" target="_top" xlink:title="CConfigurableDomain\l::renameConfiguration">
<polygon fill="white" stroke="black" points="177,-557 177,-587 301,-587 301,-557 177,-557"/>
<text text-anchor="start" x="185" y="-575" font-family="Verdana" font-size="10.00">CConfigurableDomain</text>
<text text-anchor="middle" x="239" y="-564" font-family="Verdana" font-size="10.00">::renameConfiguration</text>
</a>
</g>
</g>
<!-- Node1&#45;&gt;Node19 -->
<g id="edge18" class="edge"><title>Node1&#45;&gt;Node19</title>
<path fill="none" stroke="midnightblue" d="M62.4058,-443.85C75.4622,-470.915 103.211,-520.444 142,-547 152.374,-554.102 164.638,-559.187 176.87,-562.827"/>
<polygon fill="midnightblue" stroke="midnightblue" points="65.5251,-442.257 58.1288,-434.671 59.1801,-445.214 65.5251,-442.257"/>
</g>
<!-- Node22 -->
<g id="node22" class="node"><title>Node22</title>
<g id="a_node22"><a xlink:href="classCConfigurableDomain.html#aa9e776e80956f8cc956b77213aae96ec" target="_top" xlink:title="CConfigurableDomain\l::restoreConfiguration">
<polygon fill="white" stroke="black" points="178.5,-508 178.5,-538 299.5,-538 299.5,-508 178.5,-508"/>
<text text-anchor="start" x="186.5" y="-526" font-family="Verdana" font-size="10.00">CConfigurableDomain</text>
<text text-anchor="middle" x="239" y="-515" font-family="Verdana" font-size="10.00">::restoreConfiguration</text>
</a>
</g>
</g>
<!-- Node1&#45;&gt;Node22 -->
<g id="edge21" class="edge"><title>Node1&#45;&gt;Node22</title>
<path fill="none" stroke="midnightblue" d="M69.9682,-442.035C86.4802,-458.668 113.763,-483.528 142,-498 153.265,-503.774 165.975,-508.293 178.372,-511.802"/>
<polygon fill="midnightblue" stroke="midnightblue" points="72.2446,-439.355 62.7706,-434.612 67.2191,-444.228 72.2446,-439.355"/>
</g>
<!-- Node25 -->
<g id="node25" class="node"><title>Node25</title>
<g id="a_node25"><a xlink:href="classCConfigurableDomain.html#a7656ea4134ae47e8a19e1565c16323f0" target="_top" xlink:title="CConfigurableDomain\l::saveConfiguration">
<polygon fill="white" stroke="black" points="178.5,-459 178.5,-489 299.5,-489 299.5,-459 178.5,-459"/>
<text text-anchor="start" x="186.5" y="-477" font-family="Verdana" font-size="10.00">CConfigurableDomain</text>
<text text-anchor="middle" x="239" y="-466" font-family="Verdana" font-size="10.00">::saveConfiguration</text>
</a>
</g>
</g>
<!-- Node1&#45;&gt;Node25 -->
<g id="edge24" class="edge"><title>Node1&#45;&gt;Node25</title>
<path fill="none" stroke="midnightblue" d="M98.4976,-437.242C112.419,-441.044 127.84,-445.226 142,-449 154.231,-452.26 167.353,-455.709 179.845,-458.97"/>
<polygon fill="midnightblue" stroke="midnightblue" points="99.2348,-433.816 88.6657,-434.553 97.3878,-440.568 99.2348,-433.816"/>
</g>
<!-- Node28 -->
<g id="node28" class="node"><title>Node28</title>
<g id="a_node28"><a xlink:href="classCConfigurableDomains.html#a879368ed109dc1a906205f8324d05d81" target="_top" xlink:title="Domains. ">
<polygon fill="white" stroke="black" points="176,-410 176,-440 302,-440 302,-410 176,-410"/>
<text text-anchor="start" x="184" y="-428" font-family="Verdana" font-size="10.00">CConfigurableDomains</text>
<text text-anchor="middle" x="239" y="-417" font-family="Verdana" font-size="10.00">::createDomain</text>
</a>
</g>
</g>
<!-- Node1&#45;&gt;Node28 -->
<g id="edge27" class="edge"><title>Node1&#45;&gt;Node28</title>
<path fill="none" stroke="midnightblue" d="M116.372,-425C135.561,-425 156.676,-425 175.85,-425"/>
<polygon fill="midnightblue" stroke="midnightblue" points="116.235,-421.5 106.235,-425 116.235,-428.5 116.235,-421.5"/>
</g>
<!-- Node30 -->
<g id="node30" class="node"><title>Node30</title>
<g id="a_node30"><a xlink:href="classCConfigurableDomains.html#a35d3b509ee35cb374fc7a2d1b678c203" target="_top" xlink:title="CConfigurableDomains\l::addDomain">
<polygon fill="white" stroke="black" points="176,-361 176,-391 302,-391 302,-361 176,-361"/>
<text text-anchor="start" x="184" y="-379" font-family="Verdana" font-size="10.00">CConfigurableDomains</text>
<text text-anchor="middle" x="239" y="-368" font-family="Verdana" font-size="10.00">::addDomain</text>
</a>
</g>
</g>
<!-- Node1&#45;&gt;Node30 -->
<g id="edge29" class="edge"><title>Node1&#45;&gt;Node30</title>
<path fill="none" stroke="midnightblue" d="M98.4976,-412.758C112.419,-408.956 127.84,-404.774 142,-401 154.231,-397.74 167.353,-394.291 179.845,-391.03"/>
<polygon fill="midnightblue" stroke="midnightblue" points="97.3878,-409.432 88.6657,-415.447 99.2348,-416.184 97.3878,-409.432"/>
</g>
<!-- Node31 -->
<g id="node31" class="node"><title>Node31</title>
<g id="a_node31"><a xlink:href="classCConfigurableDomains.html#a4fc3d6b09acd45d1d94f9191b01bf4c0" target="_top" xlink:title="CConfigurableDomains\l::deleteAllDomains">
<polygon fill="white" stroke="black" points="176,-312 176,-342 302,-342 302,-312 176,-312"/>
<text text-anchor="start" x="184" y="-330" font-family="Verdana" font-size="10.00">CConfigurableDomains</text>
<text text-anchor="middle" x="239" y="-319" font-family="Verdana" font-size="10.00">::deleteAllDomains</text>
</a>
</g>
</g>
<!-- Node1&#45;&gt;Node31 -->
<g id="edge30" class="edge"><title>Node1&#45;&gt;Node31</title>
<path fill="none" stroke="midnightblue" d="M69.9682,-407.965C86.4802,-391.332 113.763,-366.472 142,-352 152.499,-346.619 164.252,-342.328 175.838,-338.928"/>
<polygon fill="midnightblue" stroke="midnightblue" points="67.2191,-405.772 62.7706,-415.388 72.2446,-410.645 67.2191,-405.772"/>
</g>
<!-- Node33 -->
<g id="node33" class="node"><title>Node33</title>
<g id="a_node33"><a xlink:href="classCConfigurableDomains.html#a5191495863bf95f1fc3beb545b410269" target="_top" xlink:title="CConfigurableDomains\l::renameDomain">
<polygon fill="white" stroke="black" points="176,-263 176,-293 302,-293 302,-263 176,-263"/>
<text text-anchor="start" x="184" y="-281" font-family="Verdana" font-size="10.00">CConfigurableDomains</text>
<text text-anchor="middle" x="239" y="-270" font-family="Verdana" font-size="10.00">::renameDomain</text>
</a>
</g>
</g>
<!-- Node1&#45;&gt;Node33 -->
<g id="edge32" class="edge"><title>Node1&#45;&gt;Node33</title>
<path fill="none" stroke="midnightblue" d="M62.4058,-406.15C75.4622,-379.085 103.211,-329.556 142,-303 152.09,-296.092 163.967,-291.093 175.865,-287.475"/>
<polygon fill="midnightblue" stroke="midnightblue" points="59.1801,-404.786 58.1288,-415.329 65.5251,-407.743 59.1801,-404.786"/>
</g>
<!-- Node35 -->
<g id="node35" class="node"><title>Node35</title>
<g id="a_node35"><a xlink:href="classCConfigurableDomains.html#a181ae71432b21ee3fedb82abb05872e3" target="_top" xlink:title="CConfigurableDomains\l::findConfigurationBlackboard">
<polygon fill="white" stroke="black" points="160.5,-214 160.5,-244 317.5,-244 317.5,-214 160.5,-214"/>
<text text-anchor="start" x="168.5" y="-232" font-family="Verdana" font-size="10.00">CConfigurableDomains</text>
<text text-anchor="middle" x="239" y="-221" font-family="Verdana" font-size="10.00">::findConfigurationBlackboard</text>
</a>
</g>
</g>
<!-- Node1&#45;&gt;Node35 -->
<g id="edge34" class="edge"><title>Node1&#45;&gt;Node35</title>
<path fill="none" stroke="midnightblue" d="M58.4792,-405.357C67.6788,-369.601 92.162,-293.903 142,-254 147.512,-249.587 153.721,-245.946 160.262,-242.943"/>
<polygon fill="midnightblue" stroke="midnightblue" points="55.0753,-404.543 56.1037,-415.088 61.8756,-406.203 55.0753,-404.543"/>
</g>
<!-- Node36 -->
<g id="node36" class="node"><title>Node36</title>
<g id="a_node36"><a xlink:href="classCParameterMgr.html#a25055f536c2d537e86852c87a4e1a061" target="_top" xlink:title="CParameterMgr::accessConfiguration\lValue">
<polygon fill="white" stroke="black" points="372,-192 372,-222 566,-222 566,-192 372,-192"/>
<text text-anchor="start" x="380" y="-210" font-family="Verdana" font-size="10.00">CParameterMgr::accessConfiguration</text>
<text text-anchor="middle" x="469" y="-199" font-family="Verdana" font-size="10.00">Value</text>
</a>
</g>
</g>
<!-- Node1&#45;&gt;Node36 -->
<g id="edge36" class="edge"><title>Node1&#45;&gt;Node36</title>
<path fill="none" stroke="midnightblue" d="M54.9824,-405.012C58.4,-360.046 73.6872,-251.25 142,-205 227.064,-147.409 355.377,-172.486 422.855,-191.958"/>
<polygon fill="midnightblue" stroke="midnightblue" points="51.475,-405.018 54.3326,-415.22 58.4609,-405.463 51.475,-405.018"/>
</g>
<!-- Node37 -->
<g id="node37" class="node"><title>Node37</title>
<g id="a_node37"><a xlink:href="classCSelectionCriterion.html#a83e33a27a1094e00154018756c0be2dc" target="_top" xlink:title="From ISelectionCriterionInterface. ">
<polygon fill="white" stroke="black" points="185,-126 185,-156 293,-156 293,-126 185,-126"/>
<text text-anchor="start" x="193" y="-144" font-family="Verdana" font-size="10.00">CSelectionCriterion</text>
<text text-anchor="middle" x="239" y="-133" font-family="Verdana" font-size="10.00">::setCriterionState</text>
</a>
</g>
</g>
<!-- Node1&#45;&gt;Node37 -->
<g id="edge37" class="edge"><title>Node1&#45;&gt;Node37</title>
<path fill="none" stroke="midnightblue" d="M55.0203,-405.174C58.5398,-357.763 74.0659,-236.884 142,-171 153.657,-159.694 169.514,-152.644 184.981,-148.249"/>
<polygon fill="midnightblue" stroke="midnightblue" points="51.5162,-405.129 54.372,-415.331 58.502,-405.575 51.5162,-405.129"/>
</g>
<!-- Node38 -->
<g id="node38" class="node"><title>Node38</title>
<g id="a_node38"><a xlink:href="classCSubsystemObject.html#a89982d829209f3204dfad5d0b125c698" target="_top" xlink:title="CSubsystemObject::log_info">
<polygon fill="white" stroke="black" points="163.5,-87.5 163.5,-106.5 314.5,-106.5 314.5,-87.5 163.5,-87.5"/>
<text text-anchor="middle" x="239" y="-94.5" font-family="Verdana" font-size="10.00">CSubsystemObject::log_info</text>
</a>
</g>
</g>
<!-- Node1&#45;&gt;Node38 -->
<g id="edge38" class="edge"><title>Node1&#45;&gt;Node38</title>
<path fill="none" stroke="midnightblue" d="M53.196,-405.402C52.1046,-350.838 57.0123,-196.007 142,-117 148.11,-111.32 155.398,-107.082 163.189,-103.942"/>
<polygon fill="midnightblue" stroke="midnightblue" points="49.6992,-405.568 53.4932,-415.46 56.6962,-405.361 49.6992,-405.568"/>
</g>
<!-- Node39 -->
<g id="node39" class="node"><title>Node39</title>
<g id="a_node39"><a xlink:href="classCSystemClass.html#a3264a476e689e33f8c30c6596e3f0d16" target="_top" xlink:title="Load subsystem plugin and fill the corresponding libraries. ">
<polygon fill="white" stroke="black" points="153.5,-49.5 153.5,-68.5 324.5,-68.5 324.5,-49.5 153.5,-49.5"/>
<text text-anchor="middle" x="239" y="-56.5" font-family="Verdana" font-size="10.00">CSystemClass::loadSubsystems</text>
</a>
</g>
</g>
<!-- Node1&#45;&gt;Node39 -->
<g id="edge39" class="edge"><title>Node1&#45;&gt;Node39</title>
<path fill="none" stroke="midnightblue" d="M56.2587,-405.183C64.2586,-338.535 93.4028,-124.089 142,-78 145.945,-74.2588 150.403,-71.156 155.186,-68.5905"/>
<polygon fill="midnightblue" stroke="midnightblue" points="52.7721,-404.865 55.0829,-415.204 59.7244,-405.68 52.7721,-404.865"/>
</g>
<!-- Node40 -->
<g id="node40" class="node"><title>Node40</title>
<g id="a_node40"><a xlink:href="classCSystemClass.html#ab71ea33fad4ce8978ad2577314146fec" target="_top" xlink:title="Look for subsystems that need to be resynchronized. ">
<polygon fill="white" stroke="black" points="142,-0 142,-30 336,-30 336,-0 142,-0"/>
<text text-anchor="start" x="150" y="-18" font-family="Verdana" font-size="10.00">CSystemClass::checkForSubsystems</text>
<text text-anchor="middle" x="239" y="-7" font-family="Verdana" font-size="10.00">ToResync</text>
</a>
</g>
</g>
<!-- Node1&#45;&gt;Node40 -->
<g id="edge40" class="edge"><title>Node1&#45;&gt;Node40</title>
<path fill="none" stroke="midnightblue" d="M55.859,-405.026C62.8856,-333.775 90.0982,-93.4852 142,-40 145.718,-36.1685 149.943,-32.8983 154.499,-30.1097"/>
<polygon fill="midnightblue" stroke="midnightblue" points="52.3451,-405.004 54.8723,-415.293 59.313,-405.673 52.3451,-405.004"/>
</g>
<!-- Node3 -->
<g id="node3" class="node"><title>Node3</title>
<g id="a_node3"><a xlink:href="classCConfigurableDomains.html#aa41f38a45f556c4b6c3c80609d8ad2b1" target="_top" xlink:title="CConfigurableDomains\l::setSequenceAwareness">
<polygon fill="white" stroke="black" points="400.5,-861 400.5,-891 537.5,-891 537.5,-861 400.5,-861"/>
<text text-anchor="start" x="408.5" y="-879" font-family="Verdana" font-size="10.00">CConfigurableDomains</text>
<text text-anchor="middle" x="469" y="-868" font-family="Verdana" font-size="10.00">::setSequenceAwareness</text>
</a>
</g>
</g>
<!-- Node2&#45;&gt;Node3 -->
<g id="edge2" class="edge"><title>Node2&#45;&gt;Node3</title>
<path fill="none" stroke="midnightblue" d="M317.912,-874.683C344.74,-874.919 374.541,-875.18 400.471,-875.408"/>
<polygon fill="midnightblue" stroke="midnightblue" points="317.821,-871.183 307.79,-874.595 317.759,-878.182 317.821,-871.183"/>
</g>
<!-- Node4 -->
<g id="node4" class="node"><title>Node4</title>
<g id="a_node4"><a xlink:href="classCParameterMgr.html#a8392607ed686806362c9a8882a471553" target="_top" xlink:title="CParameterMgr::setSequence\lAwareness">
<polygon fill="white" stroke="black" points="621.5,-861 621.5,-891 782.5,-891 782.5,-861 621.5,-861"/>
<text text-anchor="start" x="629.5" y="-879" font-family="Verdana" font-size="10.00">CParameterMgr::setSequence</text>
<text text-anchor="middle" x="702" y="-868" font-family="Verdana" font-size="10.00">Awareness</text>
</a>
</g>
</g>
<!-- Node3&#45;&gt;Node4 -->
<g id="edge3" class="edge"><title>Node3&#45;&gt;Node4</title>
<path fill="none" stroke="midnightblue" d="M547.755,-876C571.48,-876 597.592,-876 621.435,-876"/>
<polygon fill="midnightblue" stroke="midnightblue" points="547.747,-872.5 537.747,-876 547.747,-879.5 547.747,-872.5"/>
</g>
<!-- Node6 -->
<g id="node6" class="node"><title>Node6</title>
<g id="a_node6"><a xlink:href="classCConfigurableDomains.html#ac5e3f505c51b2b016614aa460597fd59" target="_top" xlink:title="CConfigurableDomains\l::removeConfigurableElement\lFromDomain">
<polygon fill="white" stroke="black" points="389.5,-801.5 389.5,-842.5 548.5,-842.5 548.5,-801.5 389.5,-801.5"/>
<text text-anchor="start" x="397.5" y="-830.5" font-family="Verdana" font-size="10.00">CConfigurableDomains</text>
<text text-anchor="start" x="397.5" y="-819.5" font-family="Verdana" font-size="10.00">::removeConfigurableElement</text>
<text text-anchor="middle" x="469" y="-808.5" font-family="Verdana" font-size="10.00">FromDomain</text>
</a>
</g>
</g>
<!-- Node5&#45;&gt;Node6 -->
<g id="edge5" class="edge"><title>Node5&#45;&gt;Node6</title>
<path fill="none" stroke="midnightblue" d="M329.053,-820.781C348.902,-820.955 369.812,-821.139 389.213,-821.309"/>
<polygon fill="midnightblue" stroke="midnightblue" points="328.814,-817.279 318.784,-820.691 328.753,-824.279 328.814,-817.279"/>
</g>
<!-- Node7 -->
<g id="node7" class="node"><title>Node7</title>
<g id="a_node7"><a xlink:href="classCParameterMgr.html#a4f307490c67f2dde0b08e638500dd5d4" target="_top" xlink:title="CParameterMgr::removeConfigurable\lElementFromDomain">
<polygon fill="white" stroke="black" points="605,-807 605,-837 799,-837 799,-807 605,-807"/>
<text text-anchor="start" x="613" y="-825" font-family="Verdana" font-size="10.00">CParameterMgr::removeConfigurable</text>
<text text-anchor="middle" x="702" y="-814" font-family="Verdana" font-size="10.00">ElementFromDomain</text>
</a>
</g>
</g>
<!-- Node6&#45;&gt;Node7 -->
<g id="edge6" class="edge"><title>Node6&#45;&gt;Node7</title>
<path fill="none" stroke="midnightblue" d="M558.81,-822C573.828,-822 589.482,-822 604.681,-822"/>
<polygon fill="midnightblue" stroke="midnightblue" points="558.528,-818.5 548.528,-822 558.528,-825.5 558.528,-818.5"/>
</g>
<!-- Node9 -->
<g id="node9" class="node"><title>Node9</title>
<g id="a_node9"><a xlink:href="classCConfigurableDomains.html#ae01182802f0ce424d239ea19f9365330" target="_top" xlink:title="CConfigurableDomains\l::split">
<polygon fill="white" stroke="black" points="406,-753 406,-783 532,-783 532,-753 406,-753"/>
<text text-anchor="start" x="414" y="-771" font-family="Verdana" font-size="10.00">CConfigurableDomains</text>
<text text-anchor="middle" x="469" y="-760" font-family="Verdana" font-size="10.00">::split</text>
</a>
</g>
</g>
<!-- Node8&#45;&gt;Node9 -->
<g id="edge8" class="edge"><title>Node8&#45;&gt;Node9</title>
<path fill="none" stroke="midnightblue" d="M309.802,-768C340.484,-768 376.221,-768 405.957,-768"/>
<polygon fill="midnightblue" stroke="midnightblue" points="309.607,-764.5 299.607,-768 309.606,-771.5 309.607,-764.5"/>
</g>
<!-- Node10 -->
<g id="node10" class="node"><title>Node10</title>
<g id="a_node10"><a xlink:href="classCParameterMgr.html#a042735242f31241743085d2d9d7edcc5" target="_top" xlink:title="CParameterMgr::split">
<polygon fill="white" stroke="black" points="643.5,-758.5 643.5,-777.5 760.5,-777.5 760.5,-758.5 643.5,-758.5"/>
<text text-anchor="middle" x="702" y="-765.5" font-family="Verdana" font-size="10.00">CParameterMgr::split</text>
</a>
</g>
</g>
<!-- Node9&#45;&gt;Node10 -->
<g id="edge9" class="edge"><title>Node9&#45;&gt;Node10</title>
<path fill="none" stroke="midnightblue" d="M542.565,-768C575.089,-768 612.909,-768 643.44,-768"/>
<polygon fill="midnightblue" stroke="midnightblue" points="542.208,-764.5 532.208,-768 542.208,-771.5 542.208,-764.5"/>
</g>
<!-- Node12 -->
<g id="node12" class="node"><title>Node12</title>
<g id="a_node12"><a xlink:href="classCConfigurableDomains.html#ab8f2aa74fe0ed3e98fa052587d6c417d" target="_top" xlink:title="CConfigurableDomains\l::apply">
<polygon fill="white" stroke="black" points="406,-704 406,-734 532,-734 532,-704 406,-704"/>
<text text-anchor="start" x="414" y="-722" font-family="Verdana" font-size="10.00">CConfigurableDomains</text>
<text text-anchor="middle" x="469" y="-711" font-family="Verdana" font-size="10.00">::apply</text>
</a>
</g>
</g>
<!-- Node11&#45;&gt;Node12 -->
<g id="edge11" class="edge"><title>Node11&#45;&gt;Node12</title>
<path fill="none" stroke="midnightblue" d="M309.802,-719C340.484,-719 376.221,-719 405.957,-719"/>
<polygon fill="midnightblue" stroke="midnightblue" points="309.607,-715.5 299.607,-719 309.606,-722.5 309.607,-715.5"/>
</g>
<!-- Node14 -->
<g id="node14" class="node"><title>Node14</title>
<g id="a_node14"><a xlink:href="classCConfigurableDomains.html#aa96eec13d9bdbb307e1dcfe6f057a685" target="_top" xlink:title="CConfigurableDomains\l::createConfiguration">
<polygon fill="white" stroke="black" points="406,-655 406,-685 532,-685 532,-655 406,-655"/>
<text text-anchor="start" x="414" y="-673" font-family="Verdana" font-size="10.00">CConfigurableDomains</text>
<text text-anchor="middle" x="469" y="-662" font-family="Verdana" font-size="10.00">::createConfiguration</text>
</a>
</g>
</g>
<!-- Node13&#45;&gt;Node14 -->
<g id="edge13" class="edge"><title>Node13&#45;&gt;Node14</title>
<path fill="none" stroke="midnightblue" d="M309.802,-670C340.484,-670 376.221,-670 405.957,-670"/>
<polygon fill="midnightblue" stroke="midnightblue" points="309.607,-666.5 299.607,-670 309.606,-673.5 309.607,-666.5"/>
</g>
<!-- Node15 -->
<g id="node15" class="node"><title>Node15</title>
<g id="a_node15"><a xlink:href="classCParameterMgr.html#ad60e8abcd5881a2833d24c3a531e16f0" target="_top" xlink:title="CParameterMgr::createConfiguration">
<polygon fill="white" stroke="black" points="606,-660.5 606,-679.5 798,-679.5 798,-660.5 606,-660.5"/>
<text text-anchor="middle" x="702" y="-667.5" font-family="Verdana" font-size="10.00">CParameterMgr::createConfiguration</text>
</a>
</g>
</g>
<!-- Node14&#45;&gt;Node15 -->
<g id="edge14" class="edge"><title>Node14&#45;&gt;Node15</title>
<path fill="none" stroke="midnightblue" d="M542.479,-670C562.501,-670 584.536,-670 605.644,-670"/>
<polygon fill="midnightblue" stroke="midnightblue" points="542.208,-666.5 532.208,-670 542.208,-673.5 542.208,-666.5"/>
</g>
<!-- Node17 -->
<g id="node17" class="node"><title>Node17</title>
<g id="a_node17"><a xlink:href="classCConfigurableDomains.html#a911e0a0a3af2b8cfb630edb899038bbe" target="_top" xlink:title="CConfigurableDomains\l::deleteConfiguration">
<polygon fill="white" stroke="black" points="406,-606 406,-636 532,-636 532,-606 406,-606"/>
<text text-anchor="start" x="414" y="-624" font-family="Verdana" font-size="10.00">CConfigurableDomains</text>
<text text-anchor="middle" x="469" y="-613" font-family="Verdana" font-size="10.00">::deleteConfiguration</text>
</a>
</g>
</g>
<!-- Node16&#45;&gt;Node17 -->
<g id="edge16" class="edge"><title>Node16&#45;&gt;Node17</title>
<path fill="none" stroke="midnightblue" d="M309.802,-621C340.484,-621 376.221,-621 405.957,-621"/>
<polygon fill="midnightblue" stroke="midnightblue" points="309.607,-617.5 299.607,-621 309.606,-624.5 309.607,-617.5"/>
</g>
<!-- Node18 -->
<g id="node18" class="node"><title>Node18</title>
<g id="a_node18"><a xlink:href="classCParameterMgr.html#a1bb4638a89187ef50cf3a1aaea566244" target="_top" xlink:title="CParameterMgr::deleteConfiguration">
<polygon fill="white" stroke="black" points="606.5,-611.5 606.5,-630.5 797.5,-630.5 797.5,-611.5 606.5,-611.5"/>
<text text-anchor="middle" x="702" y="-618.5" font-family="Verdana" font-size="10.00">CParameterMgr::deleteConfiguration</text>
</a>
</g>
</g>
<!-- Node17&#45;&gt;Node18 -->
<g id="edge17" class="edge"><title>Node17&#45;&gt;Node18</title>
<path fill="none" stroke="midnightblue" d="M542.264,-621C562.482,-621 584.766,-621 606.084,-621"/>
<polygon fill="midnightblue" stroke="midnightblue" points="542.208,-617.5 532.208,-621 542.208,-624.5 542.208,-617.5"/>
</g>
<!-- Node20 -->
<g id="node20" class="node"><title>Node20</title>
<g id="a_node20"><a xlink:href="classCConfigurableDomains.html#a052bfda8fb27ff5a1eeb0a53444031e8" target="_top" xlink:title="CConfigurableDomains\l::renameConfiguration">
<polygon fill="white" stroke="black" points="406,-557 406,-587 532,-587 532,-557 406,-557"/>
<text text-anchor="start" x="414" y="-575" font-family="Verdana" font-size="10.00">CConfigurableDomains</text>
<text text-anchor="middle" x="469" y="-564" font-family="Verdana" font-size="10.00">::renameConfiguration</text>
</a>
</g>
</g>
<!-- Node19&#45;&gt;Node20 -->
<g id="edge19" class="edge"><title>Node19&#45;&gt;Node20</title>
<path fill="none" stroke="midnightblue" d="M311.199,-572C341.558,-572 376.656,-572 405.938,-572"/>
<polygon fill="midnightblue" stroke="midnightblue" points="311.1,-568.5 301.1,-572 311.1,-575.5 311.1,-568.5"/>
</g>
<!-- Node21 -->
<g id="node21" class="node"><title>Node21</title>
<g id="a_node21"><a xlink:href="classCParameterMgr.html#af73dc2735e178eb3571400b76172b03e" target="_top" xlink:title="CParameterMgr::renameConfiguration">
<polygon fill="white" stroke="black" points="602.5,-562.5 602.5,-581.5 801.5,-581.5 801.5,-562.5 602.5,-562.5"/>
<text text-anchor="middle" x="702" y="-569.5" font-family="Verdana" font-size="10.00">CParameterMgr::renameConfiguration</text>
</a>
</g>
</g>
<!-- Node20&#45;&gt;Node21 -->
<g id="edge20" class="edge"><title>Node20&#45;&gt;Node21</title>
<path fill="none" stroke="midnightblue" d="M542.246,-572C561.218,-572 582.01,-572 602.116,-572"/>
<polygon fill="midnightblue" stroke="midnightblue" points="542.208,-568.5 532.208,-572 542.208,-575.5 542.208,-568.5"/>
</g>
<!-- Node23 -->
<g id="node23" class="node"><title>Node23</title>
<g id="a_node23"><a xlink:href="classCConfigurableDomains.html#a9fa62075b2521f79af18240367662cc7" target="_top" xlink:title="CConfigurableDomains\l::restoreConfiguration">
<polygon fill="white" stroke="black" points="406,-508 406,-538 532,-538 532,-508 406,-508"/>
<text text-anchor="start" x="414" y="-526" font-family="Verdana" font-size="10.00">CConfigurableDomains</text>
<text text-anchor="middle" x="469" y="-515" font-family="Verdana" font-size="10.00">::restoreConfiguration</text>
</a>
</g>
</g>
<!-- Node22&#45;&gt;Node23 -->
<g id="edge22" class="edge"><title>Node22&#45;&gt;Node23</title>
<path fill="none" stroke="midnightblue" d="M309.802,-523C340.484,-523 376.221,-523 405.957,-523"/>
<polygon fill="midnightblue" stroke="midnightblue" points="309.607,-519.5 299.607,-523 309.606,-526.5 309.607,-519.5"/>
</g>
<!-- Node24 -->
<g id="node24" class="node"><title>Node24</title>
<g id="a_node24"><a xlink:href="classCParameterMgr.html#a04786772b59275eef5f1af23dc9a639d" target="_top" xlink:title="CParameterMgr::restoreConfiguration">
<polygon fill="white" stroke="black" points="604,-513.5 604,-532.5 800,-532.5 800,-513.5 604,-513.5"/>
<text text-anchor="middle" x="702" y="-520.5" font-family="Verdana" font-size="10.00">CParameterMgr::restoreConfiguration</text>
</a>
</g>
</g>
<!-- Node23&#45;&gt;Node24 -->
<g id="edge23" class="edge"><title>Node23&#45;&gt;Node24</title>
<path fill="none" stroke="midnightblue" d="M542.231,-523C561.763,-523 583.225,-523 603.882,-523"/>
<polygon fill="midnightblue" stroke="midnightblue" points="542.208,-519.5 532.208,-523 542.208,-526.5 542.208,-519.5"/>
</g>
<!-- Node26 -->
<g id="node26" class="node"><title>Node26</title>
<g id="a_node26"><a xlink:href="classCConfigurableDomains.html#a1be81268a7220733d7aed82e75e8253c" target="_top" xlink:title="CConfigurableDomains\l::saveConfiguration">
<polygon fill="white" stroke="black" points="406,-459 406,-489 532,-489 532,-459 406,-459"/>
<text text-anchor="start" x="414" y="-477" font-family="Verdana" font-size="10.00">CConfigurableDomains</text>
<text text-anchor="middle" x="469" y="-466" font-family="Verdana" font-size="10.00">::saveConfiguration</text>
</a>
</g>
</g>
<!-- Node25&#45;&gt;Node26 -->
<g id="edge25" class="edge"><title>Node25&#45;&gt;Node26</title>
<path fill="none" stroke="midnightblue" d="M309.802,-474C340.484,-474 376.221,-474 405.957,-474"/>
<polygon fill="midnightblue" stroke="midnightblue" points="309.607,-470.5 299.607,-474 309.606,-477.5 309.607,-470.5"/>
</g>
<!-- Node27 -->
<g id="node27" class="node"><title>Node27</title>
<g id="a_node27"><a xlink:href="classCParameterMgr.html#aabb760bc56ad6e76f32bf732005730cb" target="_top" xlink:title="CParameterMgr::saveConfiguration">
<polygon fill="white" stroke="black" points="610,-464.5 610,-483.5 794,-483.5 794,-464.5 610,-464.5"/>
<text text-anchor="middle" x="702" y="-471.5" font-family="Verdana" font-size="10.00">CParameterMgr::saveConfiguration</text>
</a>
</g>
</g>
<!-- Node26&#45;&gt;Node27 -->
<g id="edge26" class="edge"><title>Node26&#45;&gt;Node27</title>
<path fill="none" stroke="midnightblue" d="M542.456,-474C563.736,-474 587.292,-474 609.593,-474"/>
<polygon fill="midnightblue" stroke="midnightblue" points="542.208,-470.5 532.208,-474 542.208,-477.5 542.208,-470.5"/>
</g>
<!-- Node29 -->
<g id="node29" class="node"><title>Node29</title>
<g id="a_node29"><a xlink:href="classCParameterMgr.html#af7d24a3ef2e52fb2aee19e303092d696" target="_top" xlink:title="CParameterMgr::createDomain">
<polygon fill="white" stroke="black" points="386,-415.5 386,-434.5 552,-434.5 552,-415.5 386,-415.5"/>
<text text-anchor="middle" x="469" y="-422.5" font-family="Verdana" font-size="10.00">CParameterMgr::createDomain</text>
</a>
</g>
</g>
<!-- Node28&#45;&gt;Node29 -->
<g id="edge28" class="edge"><title>Node28&#45;&gt;Node29</title>
<path fill="none" stroke="midnightblue" d="M312.207,-425C335.635,-425 361.796,-425 385.891,-425"/>
<polygon fill="midnightblue" stroke="midnightblue" points="312.001,-421.5 302.001,-425 312.001,-428.5 312.001,-421.5"/>
</g>
<!-- Node32 -->
<g id="node32" class="node"><title>Node32</title>
<g id="a_node32"><a xlink:href="classCParameterMgr.html#a927c41273e23d3303f456d3c01907391" target="_top" xlink:title="CParameterMgr::deleteAll\lDomains">
<polygon fill="white" stroke="black" points="399.5,-312 399.5,-342 538.5,-342 538.5,-312 399.5,-312"/>
<text text-anchor="start" x="407.5" y="-330" font-family="Verdana" font-size="10.00">CParameterMgr::deleteAll</text>
<text text-anchor="middle" x="469" y="-319" font-family="Verdana" font-size="10.00">Domains</text>
</a>
</g>
</g>
<!-- Node31&#45;&gt;Node32 -->
<g id="edge31" class="edge"><title>Node31&#45;&gt;Node32</title>
<path fill="none" stroke="midnightblue" d="M312.071,-327C339.923,-327 371.654,-327 399.189,-327"/>
<polygon fill="midnightblue" stroke="midnightblue" points="312.001,-323.5 302.001,-327 312.001,-330.5 312.001,-323.5"/>
</g>
<!-- Node34 -->
<g id="node34" class="node"><title>Node34</title>
<g id="a_node34"><a xlink:href="classCParameterMgr.html#a7d8898361dc42076dccb72489e3e7a43" target="_top" xlink:title="CParameterMgr::renameDomain">
<polygon fill="white" stroke="black" points="382.5,-268.5 382.5,-287.5 555.5,-287.5 555.5,-268.5 382.5,-268.5"/>
<text text-anchor="middle" x="469" y="-275.5" font-family="Verdana" font-size="10.00">CParameterMgr::renameDomain</text>
</a>
</g>
</g>
<!-- Node33&#45;&gt;Node34 -->
<g id="edge33" class="edge"><title>Node33&#45;&gt;Node34</title>
<path fill="none" stroke="midnightblue" d="M312.084,-278C334.446,-278 359.308,-278 382.491,-278"/>
<polygon fill="midnightblue" stroke="midnightblue" points="312.001,-274.5 302.001,-278 312.001,-281.5 312.001,-274.5"/>
</g>
<!-- Node35&#45;&gt;Node36 -->
<g id="edge35" class="edge"><title>Node35&#45;&gt;Node36</title>
<path fill="none" stroke="midnightblue" d="M327.852,-220.523C342.218,-219.137 357.17,-217.694 371.726,-216.29"/>
<polygon fill="midnightblue" stroke="midnightblue" points="327.126,-217.077 317.509,-221.521 327.799,-224.044 327.126,-217.077"/>
</g>
</g>
</svg>
