<?xml version="1.0" encoding="UTF-8" standalone="no"?>
<!DOCTYPE svg PUBLIC "-//W3C//DTD SVG 1.1//EN"
 "http://www.w3.org/Graphics/SVG/1.1/DTD/svg11.dtd">
<!-- Generated by graphviz version 2.36.0 (20140111.2315)
 -->
<!-- Title: CParameterMgr::deleteDomain Pages: 1 -->
<svg width="656pt" height="38pt"
 viewBox="0.00 0.00 656.00 38.00" xmlns="http://www.w3.org/2000/svg" xmlns:xlink="http://www.w3.org/1999/xlink">
<g id="graph0" class="graph" transform="scale(1 1) rotate(0) translate(4 34)">
<title>CParameterMgr::deleteDomain</title>
<polygon fill="white" stroke="none" points="-4,4 -4,-34 652,-34 652,4 -4,4"/>
<!-- Node1 -->
<g id="node1" class="node"><title>Node1</title>
<polygon fill="#bfbfbf" stroke="black" points="0.5,-5.5 0.5,-24.5 165.5,-24.5 165.5,-5.5 0.5,-5.5"/>
<text text-anchor="middle" x="83" y="-12.5" font-family="Verdana" font-size="10.00">CParameterMgr::deleteDomain</text>
</g>
<!-- Node2 -->
<g id="node2" class="node"><title>Node2</title>
<g id="a_node2"><a xlink:href="classCConfigurableDomains.html#a26ae82c8fd65751062ea4fcffa69944f" target="_top" xlink:title="Delete a domain by name. ">
<polygon fill="white" stroke="black" points="202,-0 202,-30 328,-30 328,-0 202,-0"/>
<text text-anchor="start" x="210" y="-18" font-family="Verdana" font-size="10.00">CConfigurableDomains</text>
<text text-anchor="middle" x="265" y="-7" font-family="Verdana" font-size="10.00">::deleteDomain</text>
</a>
</g>
</g>
<!-- Node1&#45;&gt;Node2 -->
<g id="edge1" class="edge"><title>Node1&#45;&gt;Node2</title>
<path fill="none" stroke="midnightblue" d="M165.573,-15C174.332,-15 183.198,-15 191.835,-15"/>
<polygon fill="midnightblue" stroke="midnightblue" points="191.849,-18.5001 201.849,-15 191.849,-11.5001 191.849,-18.5001"/>
</g>
<!-- Node3 -->
<g id="node3" class="node"><title>Node3</title>
<g id="a_node3"><a xlink:href="classCConfigurableDomains.html#a4dce38a1560b6e33871d3fa2d85cc449" target="_top" xlink:title="CConfigurableDomains\l::findConfigurableDomain">
<polygon fill="white" stroke="black" points="364.5,-0 364.5,-30 501.5,-30 501.5,-0 364.5,-0"/>
<text text-anchor="start" x="372.5" y="-18" font-family="Verdana" font-size="10.00">CConfigurableDomains</text>
<text text-anchor="middle" x="433" y="-7" font-family="Verdana" font-size="10.00">::findConfigurableDomain</text>
</a>
</g>
</g>
<!-- Node2&#45;&gt;Node3 -->
<g id="edge2" class="edge"><title>Node2&#45;&gt;Node3</title>
<path fill="none" stroke="midnightblue" d="M328.285,-15C336.748,-15 345.519,-15 354.214,-15"/>
<polygon fill="midnightblue" stroke="midnightblue" points="354.362,-18.5001 364.362,-15 354.362,-11.5001 354.362,-18.5001"/>
</g>
<!-- Node4 -->
<g id="node4" class="node"><title>Node4</title>
<g id="a_node4"><a xlink:href="classCElement.html#a8595814a3159f32f874269907e70b260" target="_top" xlink:title="CElement::findChild">
<polygon fill="white" stroke="black" points="538,-5.5 538,-24.5 648,-24.5 648,-5.5 538,-5.5"/>
<text text-anchor="middle" x="593" y="-12.5" font-family="Verdana" font-size="10.00">CElement::findChild</text>
</a>
</g>
</g>
<!-- Node3&#45;&gt;Node4 -->
<g id="edge3" class="edge"><title>Node3&#45;&gt;Node4</title>
<path fill="none" stroke="midnightblue" d="M501.923,-15C510.486,-15 519.225,-15 527.729,-15"/>
<polygon fill="midnightblue" stroke="midnightblue" points="527.957,-18.5001 537.957,-15 527.957,-11.5001 527.957,-18.5001"/>
</g>
</g>
</svg>
