<?xml version="1.0" encoding="UTF-8" standalone="no"?>
<!DOCTYPE svg PUBLIC "-//W3C//DTD SVG 1.1//EN"
 "http://www.w3.org/Graphics/SVG/1.1/DTD/svg11.dtd">
<!-- Generated by graphviz version 2.38.0 (20140413.2041)
 -->
<!-- Title: CParameterType::isEncodable Pages: 1 -->
<svg width="345pt" height="186pt"
 viewBox="0.00 0.00 345.00 186.00" xmlns="http://www.w3.org/2000/svg" xmlns:xlink="http://www.w3.org/1999/xlink">
<g id="graph0" class="graph" transform="scale(1 1) rotate(0) translate(4 182)">
<title>CParameterType::isEncodable</title>
<polygon fill="white" stroke="none" points="-4,4 -4,-182 341,-182 341,4 -4,4"/>
<!-- Node1 -->
<g id="node1" class="node"><title>Node1</title>
<polygon fill="#bfbfbf" stroke="black" points="0,-79 0,-98 158,-98 158,-79 0,-79"/>
<text text-anchor="middle" x="79" y="-86" font-family="Verdana" font-size="10.00">CParameterType::isEncodable</text>
</g>
<!-- Node2 -->
<g id="node2" class="node"><title>Node2</title>
<g id="a_node2"><a xlink:href="classCFixedPointParameterType.html#a915d48511911653dc8ddf03cf39dc0ec" target="_top" xlink:title="CFixedPointParameterType\l::fromBlackboard">
<polygon fill="white" stroke="black" points="194,-147.5 194,-177.5 337,-177.5 337,-147.5 194,-147.5"/>
<text text-anchor="start" x="202" y="-165.5" font-family="Verdana" font-size="10.00">CFixedPointParameterType</text>
<text text-anchor="middle" x="265.5" y="-154.5" font-family="Verdana" font-size="10.00">::fromBlackboard</text>
</a>
</g>
</g>
<!-- Node1&#45;&gt;Node2 -->
<g id="edge1" class="edge"><title>Node1&#45;&gt;Node2</title>
<path fill="none" stroke="midnightblue" d="M109.534,-102.281C132.38,-112.739 164.918,-127.196 194,-138.5 201.833,-141.545 210.234,-144.591 218.408,-147.441"/>
<polygon fill="midnightblue" stroke="midnightblue" points="110.922,-99.067 100.374,-98.0648 107.995,-105.426 110.922,-99.067"/>
</g>
<!-- Node3 -->
<g id="node3" class="node"><title>Node3</title>
<g id="a_node3"><a xlink:href="classCFixedPointParameterType.html#aadca613bcd3e811718bbe3f0f63bd59f" target="_top" xlink:title="CFixedPointParameterType\l::toBlackboard">
<polygon fill="white" stroke="black" points="194,-98.5 194,-128.5 337,-128.5 337,-98.5 194,-98.5"/>
<text text-anchor="start" x="202" y="-116.5" font-family="Verdana" font-size="10.00">CFixedPointParameterType</text>
<text text-anchor="middle" x="265.5" y="-105.5" font-family="Verdana" font-size="10.00">::toBlackboard</text>
</a>
</g>
</g>
<!-- Node1&#45;&gt;Node3 -->
<g id="edge2" class="edge"><title>Node1&#45;&gt;Node3</title>
<path fill="none" stroke="midnightblue" d="M160.406,-99.3951C171.526,-100.902 182.88,-102.44 193.806,-103.921"/>
<polygon fill="midnightblue" stroke="midnightblue" points="160.657,-95.8973 150.278,-98.0227 159.717,-102.834 160.657,-95.8973"/>
</g>
<!-- Node4 -->
<g id="node4" class="node"><title>Node4</title>
<g id="a_node4"><a xlink:href="classCIntegerParameterType.html#aac12d359362c7ab46915cadb574bca76" target="_top" xlink:title="Conversion. ">
<polygon fill="white" stroke="black" points="201.5,-49.5 201.5,-79.5 329.5,-79.5 329.5,-49.5 201.5,-49.5"/>
<text text-anchor="start" x="209.5" y="-67.5" font-family="Verdana" font-size="10.00">CIntegerParameterType</text>
<text text-anchor="middle" x="265.5" y="-56.5" font-family="Verdana" font-size="10.00">::toBlackboard</text>
</a>
</g>
</g>
<!-- Node1&#45;&gt;Node4 -->
<g id="edge3" class="edge"><title>Node1&#45;&gt;Node4</title>
<path fill="none" stroke="midnightblue" d="M163.33,-77.6603C176.066,-76.0036 189.03,-74.3172 201.241,-72.7289"/>
<polygon fill="midnightblue" stroke="midnightblue" points="162.649,-74.2193 153.184,-78.9801 163.552,-81.1608 162.649,-74.2193"/>
</g>
<!-- Node5 -->
<g id="node5" class="node"><title>Node5</title>
<g id="a_node5"><a xlink:href="classCIntegerParameterType.html#a20f5eb6c8e4cea3d1f0ccdb92e1d008c" target="_top" xlink:title="CIntegerParameterType\l::fromBlackboard">
<polygon fill="white" stroke="black" points="201.5,-0.5 201.5,-30.5 329.5,-30.5 329.5,-0.5 201.5,-0.5"/>
<text text-anchor="start" x="209.5" y="-18.5" font-family="Verdana" font-size="10.00">CIntegerParameterType</text>
<text text-anchor="middle" x="265.5" y="-7.5" font-family="Verdana" font-size="10.00">::fromBlackboard</text>
</a>
</g>
</g>
<!-- Node1&#45;&gt;Node5 -->
<g id="edge4" class="edge"><title>Node1&#45;&gt;Node5</title>
<path fill="none" stroke="midnightblue" d="M110.891,-74.9237C133.713,-65.0329 165.616,-51.4977 194,-40.5 202.598,-37.1688 211.849,-33.7624 220.73,-30.5787"/>
<polygon fill="midnightblue" stroke="midnightblue" points="109.476,-71.7223 101.702,-78.9214 112.268,-78.1411 109.476,-71.7223"/>
</g>
</g>
</svg>
