<?xml version="1.0" encoding="UTF-8" standalone="no"?>
<!DOCTYPE svg PUBLIC "-//W3C//DTD SVG 1.1//EN"
 "http://www.w3.org/Graphics/SVG/1.1/DTD/svg11.dtd">
<!-- Generated by graphviz version 2.38.0 (20140413.2041)
 -->
<!-- Title: CBinarySerializableElement::binarySerialize Pages: 1 -->
<svg width="329pt" height="71pt"
 viewBox="0.00 0.00 329.00 70.50" xmlns="http://www.w3.org/2000/svg" xmlns:xlink="http://www.w3.org/1999/xlink">
<g id="graph0" class="graph" transform="scale(1 1) rotate(0) translate(4 66.5)">
<title>CBinarySerializableElement::binarySerialize</title>
<polygon fill="white" stroke="none" points="-4,4 -4,-66.5 325,-66.5 325,4 -4,4"/>
<!-- Node1 -->
<g id="node1" class="node"><title>Node1</title>
<polygon fill="#bfbfbf" stroke="black" points="0,-14 0,-44 148,-44 148,-14 0,-14"/>
<text text-anchor="start" x="8" y="-32" font-family="Verdana" font-size="10.00">CBinarySerializableElement</text>
<text text-anchor="middle" x="74" y="-21" font-family="Verdana" font-size="10.00">::binarySerialize</text>
</g>
<!-- Node1&#45;&gt;Node1 -->
<g id="edge3" class="edge"><title>Node1&#45;&gt;Node1</title>
<path fill="none" stroke="midnightblue" d="M42.9798,-44.159C35.4998,-53.5566 45.8398,-62.5 74,-62.5 91.1601,-62.5 101.703,-59.179 105.628,-54.4579"/>
<polygon fill="midnightblue" stroke="midnightblue" points="109.104,-53.9352 105.02,-44.159 102.116,-54.348 109.104,-53.9352"/>
</g>
<!-- Node2 -->
<g id="node2" class="node"><title>Node2</title>
<g id="a_node2"><a xlink:href="classCElement.html#a58b6cdb5715497442fde6afa1e65f8e5" target="_top" xlink:title="CElement::getNbChildren">
<polygon fill="white" stroke="black" points="184,-38.5 184,-57.5 321,-57.5 321,-38.5 184,-38.5"/>
<text text-anchor="middle" x="252.5" y="-45.5" font-family="Verdana" font-size="10.00">CElement::getNbChildren</text>
</a>
</g>
</g>
<!-- Node1&#45;&gt;Node2 -->
<g id="edge1" class="edge"><title>Node1&#45;&gt;Node2</title>
<path fill="none" stroke="midnightblue" d="M148.063,-36.8652C156.584,-37.7824 165.299,-38.7206 173.878,-39.6441"/>
<polygon fill="midnightblue" stroke="midnightblue" points="173.55,-43.1289 183.867,-40.7194 174.299,-36.1691 173.55,-43.1289"/>
</g>
<!-- Node3 -->
<g id="node3" class="node"><title>Node3</title>
<g id="a_node3"><a xlink:href="classCElement.html#a9bba10d2dc72821589a898e16ace9ae5" target="_top" xlink:title="Get a child element (const) ">
<polygon fill="white" stroke="black" points="198.5,-0.5 198.5,-19.5 306.5,-19.5 306.5,-0.5 198.5,-0.5"/>
<text text-anchor="middle" x="252.5" y="-7.5" font-family="Verdana" font-size="10.00">CElement::getChild</text>
</a>
</g>
</g>
<!-- Node1&#45;&gt;Node3 -->
<g id="edge2" class="edge"><title>Node1&#45;&gt;Node3</title>
<path fill="none" stroke="midnightblue" d="M148.063,-21.1348C161.383,-19.7009 175.179,-18.2158 188.188,-16.8155"/>
<polygon fill="midnightblue" stroke="midnightblue" points="188.859,-20.2635 198.427,-15.7132 188.11,-13.3037 188.859,-20.2635"/>
</g>
</g>
</svg>
