<?xml version="1.0" encoding="UTF-8" standalone="no"?>
<!DOCTYPE svg PUBLIC "-//W3C//DTD SVG 1.1//EN"
 "http://www.w3.org/Graphics/SVG/1.1/DTD/svg11.dtd">
<!-- Generated by graphviz version 2.38.0 (20140413.2041)
 -->
<!-- Title: CParameterAccessContext::getParameterBlackboard Pages: 1 -->
<svg width="553pt" height="302pt"
 viewBox="0.00 0.00 553.00 301.50" xmlns="http://www.w3.org/2000/svg" xmlns:xlink="http://www.w3.org/1999/xlink">
<g id="graph0" class="graph" transform="scale(1 1) rotate(0) translate(4 297.5)">
<title>CParameterAccessContext::getParameterBlackboard</title>
<polygon fill="white" stroke="none" points="-4,4 -4,-297.5 549,-297.5 549,4 -4,4"/>
<!-- Node1 -->
<g id="node1" class="node"><title>Node1</title>
<polygon fill="#bfbfbf" stroke="black" points="0,-121 0,-151 145,-151 145,-121 0,-121"/>
<text text-anchor="start" x="8" y="-139" font-family="Verdana" font-size="10.00">CParameterAccessContext</text>
<text text-anchor="middle" x="72.5" y="-128" font-family="Verdana" font-size="10.00">::getParameterBlackboard</text>
</g>
<!-- Node2 -->
<g id="node2" class="node"><title>Node2</title>
<g id="a_node2"><a xlink:href="classCArrayParameter.html#a92c36813ec9f475880d47409c01e52db" target="_top" xlink:title="CArrayParameter::setDefault\lValues">
<polygon fill="white" stroke="black" points="185.5,-263 185.5,-293 340.5,-293 340.5,-263 185.5,-263"/>
<text text-anchor="start" x="193.5" y="-281" font-family="Verdana" font-size="10.00">CArrayParameter::setDefault</text>
<text text-anchor="middle" x="263" y="-270" font-family="Verdana" font-size="10.00">Values</text>
</a>
</g>
</g>
<!-- Node1&#45;&gt;Node2 -->
<g id="edge1" class="edge"><title>Node1&#45;&gt;Node2</title>
<path fill="none" stroke="midnightblue" d="M88.8889,-159.474C107.581,-186.176 141.552,-229.269 181,-254 186.468,-257.428 192.449,-260.386 198.605,-262.936"/>
<polygon fill="midnightblue" stroke="midnightblue" points="91.689,-157.368 83.1496,-151.097 85.9143,-161.324 91.689,-157.368"/>
</g>
<!-- Node3 -->
<g id="node3" class="node"><title>Node3</title>
<g id="a_node3"><a xlink:href="classCBitParameterBlock.html#a74485c7734eb44648b1182cf8e884d40" target="_top" xlink:title="CBitParameterBlock\l::setDefaultValues">
<polygon fill="white" stroke="black" points="207,-214 207,-244 319,-244 319,-214 207,-214"/>
<text text-anchor="start" x="215" y="-232" font-family="Verdana" font-size="10.00">CBitParameterBlock</text>
<text text-anchor="middle" x="263" y="-221" font-family="Verdana" font-size="10.00">::setDefaultValues</text>
</a>
</g>
</g>
<!-- Node1&#45;&gt;Node3 -->
<g id="edge2" class="edge"><title>Node1&#45;&gt;Node3</title>
<path fill="none" stroke="midnightblue" d="M101.263,-156.942C122.262,-171.988 152.29,-191.856 181,-205 189.135,-208.724 197.992,-212.036 206.765,-214.921"/>
<polygon fill="midnightblue" stroke="midnightblue" points="103.272,-154.076 93.125,-151.028 99.1569,-159.738 103.272,-154.076"/>
</g>
<!-- Node4 -->
<g id="node4" class="node"><title>Node4</title>
<g id="a_node4"><a xlink:href="classCInstanceConfigurableElement.html#a2e6e7782de8e4d7e844a869917f2f037" target="_top" xlink:title="Performs the sync if the AutoSync is enabled. ">
<polygon fill="white" stroke="black" points="181,-165 181,-195 345,-195 345,-165 181,-165"/>
<text text-anchor="start" x="189" y="-183" font-family="Verdana" font-size="10.00">CInstanceConfigurableElement</text>
<text text-anchor="middle" x="263" y="-172" font-family="Verdana" font-size="10.00">::sync</text>
</a>
</g>
</g>
<!-- Node1&#45;&gt;Node4 -->
<g id="edge3" class="edge"><title>Node1&#45;&gt;Node4</title>
<path fill="none" stroke="midnightblue" d="M147.944,-153.377C164.371,-157.211 181.638,-161.242 197.626,-164.974"/>
<polygon fill="midnightblue" stroke="midnightblue" points="148.378,-149.884 137.844,-151.019 146.786,-156.701 148.378,-149.884"/>
</g>
<!-- Node8 -->
<g id="node8" class="node"><title>Node8</title>
<g id="a_node8"><a xlink:href="classCParameter.html#a26fa5e3c97be1577ad15d04295ada708" target="_top" xlink:title="CParameter::setDefaultValues">
<polygon fill="white" stroke="black" points="182.5,-126.5 182.5,-145.5 343.5,-145.5 343.5,-126.5 182.5,-126.5"/>
<text text-anchor="middle" x="263" y="-133.5" font-family="Verdana" font-size="10.00">CParameter::setDefaultValues</text>
</a>
</g>
</g>
<!-- Node1&#45;&gt;Node8 -->
<g id="edge7" class="edge"><title>Node1&#45;&gt;Node8</title>
<path fill="none" stroke="midnightblue" d="M155.131,-136C164.151,-136 173.328,-136 182.323,-136"/>
<polygon fill="midnightblue" stroke="midnightblue" points="155.033,-132.5 145.033,-136 155.033,-139.5 155.033,-132.5"/>
</g>
<!-- Node9 -->
<g id="node9" class="node"><title>Node9</title>
<g id="a_node9"><a xlink:href="classCStringParameter.html#a76f587f59ddcfd51704f55fd2fa88485" target="_top" xlink:title="CStringParameter::setDefault\lValues">
<polygon fill="white" stroke="black" points="184,-77 184,-107 342,-107 342,-77 184,-77"/>
<text text-anchor="start" x="192" y="-95" font-family="Verdana" font-size="10.00">CStringParameter::setDefault</text>
<text text-anchor="middle" x="263" y="-84" font-family="Verdana" font-size="10.00">Values</text>
</a>
</g>
</g>
<!-- Node1&#45;&gt;Node9 -->
<g id="edge8" class="edge"><title>Node1&#45;&gt;Node9</title>
<path fill="none" stroke="midnightblue" d="M147.944,-118.623C164.371,-114.789 181.638,-110.758 197.626,-107.026"/>
<polygon fill="midnightblue" stroke="midnightblue" points="146.786,-115.299 137.844,-120.981 148.378,-122.116 146.786,-115.299"/>
</g>
<!-- Node10 -->
<g id="node10" class="node"><title>Node10</title>
<g id="a_node10"><a xlink:href="classCStringParameter.html#a67ccec1129a496f5ce7beeb3dd27b096" target="_top" xlink:title="CStringParameter::doSetValue">
<polygon fill="white" stroke="black" points="181.5,-38.5 181.5,-57.5 344.5,-57.5 344.5,-38.5 181.5,-38.5"/>
<text text-anchor="middle" x="263" y="-45.5" font-family="Verdana" font-size="10.00">CStringParameter::doSetValue</text>
</a>
</g>
</g>
<!-- Node1&#45;&gt;Node10 -->
<g id="edge9" class="edge"><title>Node1&#45;&gt;Node10</title>
<path fill="none" stroke="midnightblue" d="M101.137,-114.994C122.072,-99.982 152.076,-80.3327 181,-68 190.86,-63.7959 201.788,-60.3511 212.342,-57.578"/>
<polygon fill="midnightblue" stroke="midnightblue" points="99.0475,-112.186 93.0267,-120.904 103.17,-117.843 99.0475,-112.186"/>
</g>
<!-- Node11 -->
<g id="node11" class="node"><title>Node11</title>
<g id="a_node11"><a xlink:href="classCStringParameter.html#a2e558a9119de1cd1d17ae95989400f04" target="_top" xlink:title="CStringParameter::doGetValue">
<polygon fill="white" stroke="black" points="181,-0.5 181,-19.5 345,-19.5 345,-0.5 181,-0.5"/>
<text text-anchor="middle" x="263" y="-7.5" font-family="Verdana" font-size="10.00">CStringParameter::doGetValue</text>
</a>
</g>
</g>
<!-- Node1&#45;&gt;Node11 -->
<g id="edge10" class="edge"><title>Node1&#45;&gt;Node11</title>
<path fill="none" stroke="midnightblue" d="M90.3346,-112.863C109.501,-88.2525 143.105,-50.0347 181,-29 187.946,-25.1444 195.646,-22.0686 203.456,-19.6153"/>
<polygon fill="midnightblue" stroke="midnightblue" points="87.4499,-110.874 84.1742,-120.949 93.0182,-115.116 87.4499,-110.874"/>
</g>
<!-- Node5 -->
<g id="node5" class="node"><title>Node5</title>
<g id="a_node5"><a xlink:href="classCArrayParameter.html#a07b3af958a03b2295be159f69b22d42d" target="_top" xlink:title="CArrayParameter::accessValue">
<polygon fill="white" stroke="black" points="381,-208.5 381,-227.5 545,-227.5 545,-208.5 381,-208.5"/>
<text text-anchor="middle" x="463" y="-215.5" font-family="Verdana" font-size="10.00">CArrayParameter::accessValue</text>
</a>
</g>
</g>
<!-- Node4&#45;&gt;Node5 -->
<g id="edge4" class="edge"><title>Node4&#45;&gt;Node5</title>
<path fill="none" stroke="midnightblue" d="M352.324,-196.951C372.971,-200.914 394.244,-204.996 412.495,-208.499"/>
<polygon fill="midnightblue" stroke="midnightblue" points="352.735,-193.466 342.255,-195.019 351.416,-200.341 352.735,-193.466"/>
</g>
<!-- Node6 -->
<g id="node6" class="node"><title>Node6</title>
<g id="a_node6"><a xlink:href="classCBaseParameter.html#aa0367b428dcd868c67f34989bb101020" target="_top" xlink:title="CBaseParameter::access">
<polygon fill="white" stroke="black" points="394.5,-170.5 394.5,-189.5 531.5,-189.5 531.5,-170.5 394.5,-170.5"/>
<text text-anchor="middle" x="463" y="-177.5" font-family="Verdana" font-size="10.00">CBaseParameter::access</text>
</a>
</g>
</g>
<!-- Node4&#45;&gt;Node6 -->
<g id="edge5" class="edge"><title>Node4&#45;&gt;Node6</title>
<path fill="none" stroke="midnightblue" d="M355.13,-180C368.308,-180 381.673,-180 394.283,-180"/>
<polygon fill="midnightblue" stroke="midnightblue" points="355.106,-176.5 345.105,-180 355.105,-183.5 355.106,-176.5"/>
</g>
<!-- Node7 -->
<g id="node7" class="node"><title>Node7</title>
<g id="a_node7"><a xlink:href="classCBitParameter.html#a8cf5e6e2d4e823eca86f0c30ff837fef" target="_top" xlink:title="CBitParameter::access">
<polygon fill="white" stroke="black" points="400.5,-132.5 400.5,-151.5 525.5,-151.5 525.5,-132.5 400.5,-132.5"/>
<text text-anchor="middle" x="463" y="-139.5" font-family="Verdana" font-size="10.00">CBitParameter::access</text>
</a>
</g>
</g>
<!-- Node4&#45;&gt;Node7 -->
<g id="edge6" class="edge"><title>Node4&#45;&gt;Node7</title>
<path fill="none" stroke="midnightblue" d="M352.324,-163.049C372.971,-159.086 394.244,-155.004 412.495,-151.501"/>
<polygon fill="midnightblue" stroke="midnightblue" points="351.416,-159.659 342.255,-164.981 352.735,-166.534 351.416,-159.659"/>
</g>
</g>
</svg>
