<?xml version="1.0" encoding="UTF-8" standalone="no"?>
<!DOCTYPE svg PUBLIC "-//W3C//DTD SVG 1.1//EN"
 "http://www.w3.org/Graphics/SVG/1.1/DTD/svg11.dtd">
<!-- Generated by graphviz version 2.36.0 (20140111.2315)
 -->
<!-- Title: CParameterMgr::setSequenceAwareness Pages: 1 -->
<svg width="668pt" height="114pt"
 viewBox="0.00 0.00 668.00 114.00" xmlns="http://www.w3.org/2000/svg" xmlns:xlink="http://www.w3.org/1999/xlink">
<g id="graph0" class="graph" transform="scale(1 1) rotate(0) translate(4 110)">
<title>CParameterMgr::setSequenceAwareness</title>
<polygon fill="white" stroke="none" points="-4,4 -4,-110 664,-110 664,4 -4,4"/>
<!-- Node1 -->
<g id="node1" class="node"><title>Node1</title>
<polygon fill="#bfbfbf" stroke="black" points="0.5,-51 0.5,-81 161.5,-81 161.5,-51 0.5,-51"/>
<text text-anchor="start" x="8.5" y="-69" font-family="Verdana" font-size="10.00">CParameterMgr::setSequence</text>
<text text-anchor="middle" x="81" y="-58" font-family="Verdana" font-size="10.00">Awareness</text>
</g>
<!-- Node2 -->
<g id="node2" class="node"><title>Node2</title>
<g id="a_node2"><a xlink:href="classCConfigurableDomains.html#aa41f38a45f556c4b6c3c80609d8ad2b1" target="_top" xlink:title="CConfigurableDomains\l::setSequenceAwareness">
<polygon fill="white" stroke="black" points="198.5,-51 198.5,-81 335.5,-81 335.5,-51 198.5,-51"/>
<text text-anchor="start" x="206.5" y="-69" font-family="Verdana" font-size="10.00">CConfigurableDomains</text>
<text text-anchor="middle" x="267" y="-58" font-family="Verdana" font-size="10.00">::setSequenceAwareness</text>
</a>
</g>
</g>
<!-- Node1&#45;&gt;Node2 -->
<g id="edge1" class="edge"><title>Node1&#45;&gt;Node2</title>
<path fill="none" stroke="midnightblue" d="M161.635,-66C170.431,-66 179.38,-66 188.154,-66"/>
<polygon fill="midnightblue" stroke="midnightblue" points="188.353,-69.5001 198.353,-66 188.353,-62.5001 188.353,-69.5001"/>
</g>
<!-- Node3 -->
<g id="node3" class="node"><title>Node3</title>
<g id="a_node3"><a xlink:href="classCConfigurableDomains.html#a4dce38a1560b6e33871d3fa2d85cc449" target="_top" xlink:title="CConfigurableDomains\l::findConfigurableDomain">
<polygon fill="white" stroke="black" points="372.5,-76 372.5,-106 509.5,-106 509.5,-76 372.5,-76"/>
<text text-anchor="start" x="380.5" y="-94" font-family="Verdana" font-size="10.00">CConfigurableDomains</text>
<text text-anchor="middle" x="441" y="-83" font-family="Verdana" font-size="10.00">::findConfigurableDomain</text>
</a>
</g>
</g>
<!-- Node2&#45;&gt;Node3 -->
<g id="edge2" class="edge"><title>Node2&#45;&gt;Node3</title>
<path fill="none" stroke="midnightblue" d="M335.979,-75.8807C344.55,-77.1265 353.372,-78.4087 362.082,-79.6746"/>
<polygon fill="midnightblue" stroke="midnightblue" points="361.834,-83.1753 372.233,-81.1502 362.841,-76.2481 361.834,-83.1753"/>
</g>
<!-- Node5 -->
<g id="node5" class="node"><title>Node5</title>
<g id="a_node5"><a xlink:href="classCConfigurableDomain.html#a3a77775be8a0df31842b5857a238789e" target="_top" xlink:title="CConfigurableDomain\l::setSequenceAwareness">
<polygon fill="white" stroke="black" points="372.5,-27 372.5,-57 509.5,-57 509.5,-27 372.5,-27"/>
<text text-anchor="start" x="380.5" y="-45" font-family="Verdana" font-size="10.00">CConfigurableDomain</text>
<text text-anchor="middle" x="441" y="-34" font-family="Verdana" font-size="10.00">::setSequenceAwareness</text>
</a>
</g>
</g>
<!-- Node2&#45;&gt;Node5 -->
<g id="edge4" class="edge"><title>Node2&#45;&gt;Node5</title>
<path fill="none" stroke="midnightblue" d="M335.979,-56.5146C344.55,-55.3186 353.372,-54.0877 362.082,-52.8723"/>
<polygon fill="midnightblue" stroke="midnightblue" points="362.813,-56.3043 372.233,-51.4558 361.845,-49.3715 362.813,-56.3043"/>
</g>
<!-- Node4 -->
<g id="node4" class="node"><title>Node4</title>
<g id="a_node4"><a xlink:href="classCElement.html#a8595814a3159f32f874269907e70b260" target="_top" xlink:title="CElement::findChild">
<polygon fill="white" stroke="black" points="548,-81.5 548,-100.5 658,-100.5 658,-81.5 548,-81.5"/>
<text text-anchor="middle" x="603" y="-88.5" font-family="Verdana" font-size="10.00">CElement::findChild</text>
</a>
</g>
</g>
<!-- Node3&#45;&gt;Node4 -->
<g id="edge3" class="edge"><title>Node3&#45;&gt;Node4</title>
<path fill="none" stroke="midnightblue" d="M509.854,-91C519.013,-91 528.389,-91 537.487,-91"/>
<polygon fill="midnightblue" stroke="midnightblue" points="537.615,-94.5001 547.615,-91 537.615,-87.5001 537.615,-94.5001"/>
</g>
<!-- Node6 -->
<g id="node6" class="node"><title>Node6</title>
<g id="a_node6"><a xlink:href="classCElement.html#a1dee87366d307b43bf8851dd2614c160" target="_top" xlink:title="CElement::log_info">
<polygon fill="white" stroke="black" points="550,-38.5 550,-57.5 656,-57.5 656,-38.5 550,-38.5"/>
<text text-anchor="middle" x="603" y="-45.5" font-family="Verdana" font-size="10.00">CElement::log_info</text>
</a>
</g>
</g>
<!-- Node5&#45;&gt;Node6 -->
<g id="edge5" class="edge"><title>Node5&#45;&gt;Node6</title>
<path fill="none" stroke="midnightblue" d="M509.854,-44.5445C519.716,-44.9143 529.829,-45.2936 539.576,-45.6591"/>
<polygon fill="midnightblue" stroke="midnightblue" points="539.451,-49.1568 549.575,-46.0341 539.714,-42.1617 539.451,-49.1568"/>
</g>
<!-- Node7 -->
<g id="node7" class="node"><title>Node7</title>
<g id="a_node7"><a xlink:href="classCElement.html#a49581fb6412e29e932962acd82d52d6a" target="_top" xlink:title="CElement::getName">
<polygon fill="white" stroke="black" points="546,-0.5 546,-19.5 660,-19.5 660,-0.5 546,-0.5"/>
<text text-anchor="middle" x="603" y="-7.5" font-family="Verdana" font-size="10.00">CElement::getName</text>
</a>
</g>
</g>
<!-- Node5&#45;&gt;Node7 -->
<g id="edge6" class="edge"><title>Node5&#45;&gt;Node7</title>
<path fill="none" stroke="midnightblue" d="M509.854,-28.4291C521.331,-26.1337 533.15,-23.7701 544.335,-21.533"/>
<polygon fill="midnightblue" stroke="midnightblue" points="545.282,-24.9131 554.401,-19.5198 543.909,-18.049 545.282,-24.9131"/>
</g>
</g>
</svg>
