<?xml version="1.0" encoding="UTF-8" standalone="no"?>
<!DOCTYPE svg PUBLIC "-//W3C//DTD SVG 1.1//EN"
 "http://www.w3.org/Graphics/SVG/1.1/DTD/svg11.dtd">
<!-- Generated by graphviz version 2.38.0 (20140413.2041)
 -->
<!-- Title: CHardwareBackSynchronizer::sync Pages: 1 -->
<svg width="416pt" height="39pt"
 viewBox="0.00 0.00 416.00 39.00" xmlns="http://www.w3.org/2000/svg" xmlns:xlink="http://www.w3.org/1999/xlink">
<g id="graph0" class="graph" transform="scale(1 1) rotate(0) translate(4 35)">
<title>CHardwareBackSynchronizer::sync</title>
<polygon fill="white" stroke="none" points="-4,4 -4,-35 412,-35 412,4 -4,4"/>
<!-- Node1 -->
<g id="node1" class="node"><title>Node1</title>
<polygon fill="#bfbfbf" stroke="black" points="0,-0.5 0,-30.5 155,-30.5 155,-0.5 0,-0.5"/>
<text text-anchor="start" x="8" y="-18.5" font-family="Verdana" font-size="10.00">CHardwareBackSynchronizer</text>
<text text-anchor="middle" x="77.5" y="-7.5" font-family="Verdana" font-size="10.00">::sync</text>
</g>
<!-- Node2 -->
<g id="node2" class="node"><title>Node2</title>
<g id="a_node2"><a xlink:href="classCSyncerSet.html#a8f8381b520a758f49ba8013c5cb8c7b5" target="_top" xlink:title="Sync the blackboard. ">
<polygon fill="white" stroke="black" points="191,-6 191,-25 292,-25 292,-6 191,-6"/>
<text text-anchor="middle" x="241.5" y="-13" font-family="Verdana" font-size="10.00">CSyncerSet::sync</text>
</a>
</g>
</g>
<!-- Node1&#45;&gt;Node2 -->
<g id="edge1" class="edge"><title>Node1&#45;&gt;Node2</title>
<path fill="none" stroke="midnightblue" d="M155.23,-15.5C163.741,-15.5 172.314,-15.5 180.573,-15.5"/>
<polygon fill="midnightblue" stroke="midnightblue" points="180.839,-19.0001 190.839,-15.5 180.839,-12.0001 180.839,-19.0001"/>
</g>
<!-- Node3 -->
<g id="node3" class="node"><title>Node3</title>
<g id="a_node3"><a xlink:href="classISyncer.html#a16844aac52fb0caf4aed4f68d4b038d9" target="_top" xlink:title="ISyncer::sync">
<polygon fill="white" stroke="black" points="328,-6 328,-25 408,-25 408,-6 328,-6"/>
<text text-anchor="middle" x="368" y="-13" font-family="Verdana" font-size="10.00">ISyncer::sync</text>
</a>
</g>
</g>
<!-- Node2&#45;&gt;Node3 -->
<g id="edge2" class="edge"><title>Node2&#45;&gt;Node3</title>
<path fill="none" stroke="midnightblue" d="M292.063,-15.5C300.548,-15.5 309.361,-15.5 317.836,-15.5"/>
<polygon fill="midnightblue" stroke="midnightblue" points="317.96,-19.0001 327.96,-15.5 317.96,-12.0001 317.96,-19.0001"/>
</g>
</g>
</svg>
