<?xml version="1.0" encoding="UTF-8" standalone="no"?>
<!DOCTYPE svg PUBLIC "-//W3C//DTD SVG 1.1//EN"
 "http://www.w3.org/Graphics/SVG/1.1/DTD/svg11.dtd">
<!-- Generated by graphviz version 2.38.0 (20140413.2041)
 -->
<!-- Title: CElement::clean Pages: 1 -->
<svg width="483pt" height="78pt"
 viewBox="0.00 0.00 483.00 77.50" xmlns="http://www.w3.org/2000/svg" xmlns:xlink="http://www.w3.org/1999/xlink">
<g id="graph0" class="graph" transform="scale(1 1) rotate(0) translate(4 73.5)">
<title>CElement::clean</title>
<polygon fill="white" stroke="none" points="-4,4 -4,-73.5 479,-73.5 479,4 -4,4"/>
<!-- Node1 -->
<g id="node1" class="node"><title>Node1</title>
<polygon fill="#bfbfbf" stroke="black" points="0,-22.5 0,-41.5 95,-41.5 95,-22.5 0,-22.5"/>
<text text-anchor="middle" x="47.5" y="-29.5" font-family="Verdana" font-size="10.00">CElement::clean</text>
</g>
<!-- Node2 -->
<g id="node2" class="node"><title>Node2</title>
<g id="a_node2"><a xlink:href="classCConfigurableDomains.html#a4fc3d6b09acd45d1d94f9191b01bf4c0" target="_top" xlink:title="CConfigurableDomains\l::deleteAllDomains">
<polygon fill="white" stroke="black" points="152.5,-39 152.5,-69 278.5,-69 278.5,-39 152.5,-39"/>
<text text-anchor="start" x="160.5" y="-57" font-family="Verdana" font-size="10.00">CConfigurableDomains</text>
<text text-anchor="middle" x="215.5" y="-46" font-family="Verdana" font-size="10.00">::deleteAllDomains</text>
</a>
</g>
</g>
<!-- Node1&#45;&gt;Node2 -->
<g id="edge1" class="edge"><title>Node1&#45;&gt;Node2</title>
<path fill="none" stroke="midnightblue" d="M105.424,-39.5441C120.555,-41.5495 136.973,-43.7254 152.368,-45.7656"/>
<polygon fill="midnightblue" stroke="midnightblue" points="105.555,-36.031 95.182,-38.1868 104.635,-42.9703 105.555,-36.031"/>
</g>
<!-- Node4 -->
<g id="node4" class="node"><title>Node4</title>
<g id="a_node4"><a xlink:href="classCSystemClass.html#a83e967c796ffbb738fe8147109329ab2" target="_top" xlink:title="CSystemClass::~CSystemClass">
<polygon fill="white" stroke="black" points="131,-0.5 131,-19.5 300,-19.5 300,-0.5 131,-0.5"/>
<text text-anchor="middle" x="215.5" y="-7.5" font-family="Verdana" font-size="10.00">CSystemClass::~CSystemClass</text>
</a>
</g>
</g>
<!-- Node1&#45;&gt;Node4 -->
<g id="edge3" class="edge"><title>Node1&#45;&gt;Node4</title>
<path fill="none" stroke="midnightblue" d="M105.122,-24.4959C117.219,-22.8926 130.151,-21.1787 142.733,-19.5113"/>
<polygon fill="midnightblue" stroke="midnightblue" points="104.635,-21.0297 95.182,-25.8132 105.555,-27.969 104.635,-21.0297"/>
</g>
<!-- Node3 -->
<g id="node3" class="node"><title>Node3</title>
<g id="a_node3"><a xlink:href="classCParameterMgr.html#a927c41273e23d3303f456d3c01907391" target="_top" xlink:title="CParameterMgr::deleteAll\lDomains">
<polygon fill="white" stroke="black" points="336,-39 336,-69 475,-69 475,-39 336,-39"/>
<text text-anchor="start" x="344" y="-57" font-family="Verdana" font-size="10.00">CParameterMgr::deleteAll</text>
<text text-anchor="middle" x="405.5" y="-46" font-family="Verdana" font-size="10.00">Domains</text>
</a>
</g>
</g>
<!-- Node2&#45;&gt;Node3 -->
<g id="edge2" class="edge"><title>Node2&#45;&gt;Node3</title>
<path fill="none" stroke="midnightblue" d="M288.596,-54C304.052,-54 320.344,-54 335.673,-54"/>
<polygon fill="midnightblue" stroke="midnightblue" points="288.579,-50.5001 278.579,-54 288.579,-57.5001 288.579,-50.5001"/>
</g>
</g>
</svg>
