<?xml version="1.0" encoding="UTF-8" standalone="no"?>
<!DOCTYPE svg PUBLIC "-//W3C//DTD SVG 1.1//EN"
 "http://www.w3.org/Graphics/SVG/1.1/DTD/svg11.dtd">
<!-- Generated by graphviz version 2.38.0 (20140413.2041)
 -->
<!-- Title: CConfigurableDomains::restoreConfiguration Pages: 1 -->
<svg width="584pt" height="124pt"
 viewBox="0.00 0.00 584.00 123.50" xmlns="http://www.w3.org/2000/svg" xmlns:xlink="http://www.w3.org/1999/xlink">
<g id="graph0" class="graph" transform="scale(1 1) rotate(0) translate(4 119.5)">
<title>CConfigurableDomains::restoreConfiguration</title>
<polygon fill="white" stroke="none" points="-4,4 -4,-119.5 580,-119.5 580,4 -4,4"/>
<!-- Node1 -->
<g id="node1" class="node"><title>Node1</title>
<polygon fill="#bfbfbf" stroke="black" points="0,-60 0,-90 126,-90 126,-60 0,-60"/>
<text text-anchor="start" x="8" y="-78" font-family="Verdana" font-size="10.00">CConfigurableDomains</text>
<text text-anchor="middle" x="63" y="-67" font-family="Verdana" font-size="10.00">::restoreConfiguration</text>
</g>
<!-- Node2 -->
<g id="node2" class="node"><title>Node2</title>
<g id="a_node2"><a xlink:href="classCConfigurableDomains.html#a4dce38a1560b6e33871d3fa2d85cc449" target="_top" xlink:title="CConfigurableDomains\l::findConfigurableDomain">
<polygon fill="white" stroke="black" points="162,-85 162,-115 299,-115 299,-85 162,-85"/>
<text text-anchor="start" x="170" y="-103" font-family="Verdana" font-size="10.00">CConfigurableDomains</text>
<text text-anchor="middle" x="230.5" y="-92" font-family="Verdana" font-size="10.00">::findConfigurableDomain</text>
</a>
</g>
</g>
<!-- Node1&#45;&gt;Node2 -->
<g id="edge1" class="edge"><title>Node1&#45;&gt;Node2</title>
<path fill="none" stroke="midnightblue" d="M126.097,-84.3802C134.469,-85.6449 143.143,-86.9552 151.745,-88.2545"/>
<polygon fill="midnightblue" stroke="midnightblue" points="151.376,-91.7384 161.787,-89.7714 152.422,-84.8169 151.376,-91.7384"/>
</g>
<!-- Node4 -->
<g id="node4" class="node"><title>Node4</title>
<g id="a_node4"><a xlink:href="classCConfigurableDomain.html#aa07e34aa3fabe688ae8034ff0578c1c7" target="_top" xlink:title="Restore a configuration. ">
<polygon fill="white" stroke="black" points="170,-36 170,-66 291,-66 291,-36 170,-36"/>
<text text-anchor="start" x="178" y="-54" font-family="Verdana" font-size="10.00">CConfigurableDomain</text>
<text text-anchor="middle" x="230.5" y="-43" font-family="Verdana" font-size="10.00">::restoreConfiguration</text>
</a>
</g>
</g>
<!-- Node1&#45;&gt;Node4 -->
<g id="edge3" class="edge"><title>Node1&#45;&gt;Node4</title>
<path fill="none" stroke="midnightblue" d="M126.097,-65.995C137.052,-64.4064 148.523,-62.7429 159.673,-61.126"/>
<polygon fill="midnightblue" stroke="midnightblue" points="160.404,-64.5567 169.798,-59.6577 159.399,-57.6291 160.404,-64.5567"/>
</g>
<!-- Node3 -->
<g id="node3" class="node"><title>Node3</title>
<g id="a_node3"><a xlink:href="classCElement.html#a8595814a3159f32f874269907e70b260" target="_top" xlink:title="CElement::findChild">
<polygon fill="white" stroke="black" points="342.5,-90.5 342.5,-109.5 452.5,-109.5 452.5,-90.5 342.5,-90.5"/>
<text text-anchor="middle" x="397.5" y="-97.5" font-family="Verdana" font-size="10.00">CElement::findChild</text>
</a>
</g>
</g>
<!-- Node2&#45;&gt;Node3 -->
<g id="edge2" class="edge"><title>Node2&#45;&gt;Node3</title>
<path fill="none" stroke="midnightblue" d="M299.088,-100C310.014,-100 321.301,-100 332.147,-100"/>
<polygon fill="midnightblue" stroke="midnightblue" points="332.385,-103.5 342.385,-100 332.385,-96.5001 332.385,-103.5"/>
</g>
<!-- Node5 -->
<g id="node5" class="node"><title>Node5</title>
<g id="a_node5"><a xlink:href="classCDomainConfiguration.html#a1ddc929e5782dabbf3d95f2c916f995e" target="_top" xlink:title="Restore the configuration. ">
<polygon fill="white" stroke="black" points="335,-39 335,-69 460,-69 460,-39 335,-39"/>
<text text-anchor="start" x="343" y="-57" font-family="Verdana" font-size="10.00">CDomainConfiguration</text>
<text text-anchor="middle" x="397.5" y="-46" font-family="Verdana" font-size="10.00">::restore</text>
</a>
</g>
</g>
<!-- Node4&#45;&gt;Node5 -->
<g id="edge4" class="edge"><title>Node4&#45;&gt;Node5</title>
<path fill="none" stroke="midnightblue" d="M291.069,-52.0831C301.953,-52.281 313.415,-52.4894 324.612,-52.6929"/>
<polygon fill="midnightblue" stroke="midnightblue" points="324.734,-56.1956 334.796,-52.8781 324.861,-49.1968 324.734,-56.1956"/>
</g>
<!-- Node6 -->
<g id="node6" class="node"><title>Node6</title>
<g id="a_node6"><a xlink:href="classCSyncerSet.html#a8f8381b520a758f49ba8013c5cb8c7b5" target="_top" xlink:title="Sync the blackboard. ">
<polygon fill="white" stroke="black" points="347,-0.5 347,-19.5 448,-19.5 448,-0.5 347,-0.5"/>
<text text-anchor="middle" x="397.5" y="-7.5" font-family="Verdana" font-size="10.00">CSyncerSet::sync</text>
</a>
</g>
</g>
<!-- Node4&#45;&gt;Node6 -->
<g id="edge5" class="edge"><title>Node4&#45;&gt;Node6</title>
<path fill="none" stroke="midnightblue" d="M291.069,-36.1981C309.83,-31.5362 330.31,-26.4473 348.187,-22.005"/>
<polygon fill="midnightblue" stroke="midnightblue" points="349.24,-25.3498 358.101,-19.5416 347.552,-18.5564 349.24,-25.3498"/>
</g>
<!-- Node7 -->
<g id="node7" class="node"><title>Node7</title>
<g id="a_node7"><a xlink:href="classISyncer.html#a16844aac52fb0caf4aed4f68d4b038d9" target="_top" xlink:title="ISyncer::sync">
<polygon fill="white" stroke="black" points="496,-0.5 496,-19.5 576,-19.5 576,-0.5 496,-0.5"/>
<text text-anchor="middle" x="536" y="-7.5" font-family="Verdana" font-size="10.00">ISyncer::sync</text>
</a>
</g>
</g>
<!-- Node6&#45;&gt;Node7 -->
<g id="edge6" class="edge"><title>Node6&#45;&gt;Node7</title>
<path fill="none" stroke="midnightblue" d="M448.166,-10C460.434,-10 473.569,-10 485.814,-10"/>
<polygon fill="midnightblue" stroke="midnightblue" points="485.852,-13.5001 495.852,-10 485.852,-6.5001 485.852,-13.5001"/>
</g>
</g>
</svg>
