<?xml version="1.0" encoding="UTF-8" standalone="no"?>
<!DOCTYPE svg PUBLIC "-//W3C//DTD SVG 1.1//EN"
 "http://www.w3.org/Graphics/SVG/1.1/DTD/svg11.dtd">
<!-- Generated by graphviz version 2.38.0 (20140413.2041)
 -->
<!-- Title: CCompoundRule::dump Pages: 1 -->
<svg width="310pt" height="104pt"
 viewBox="0.00 0.00 310.00 104.00" xmlns="http://www.w3.org/2000/svg" xmlns:xlink="http://www.w3.org/1999/xlink">
<g id="graph0" class="graph" transform="scale(1 1) rotate(0) translate(4 100)">
<title>CCompoundRule::dump</title>
<polygon fill="white" stroke="none" points="-4,4 -4,-100 306,-100 306,4 -4,4"/>
<!-- Node1 -->
<g id="node1" class="node"><title>Node1</title>
<polygon fill="#bfbfbf" stroke="black" points="0,-38.5 0,-57.5 129,-57.5 129,-38.5 0,-38.5"/>
<text text-anchor="middle" x="64.5" y="-45.5" font-family="Verdana" font-size="10.00">CCompoundRule::dump</text>
</g>
<!-- Node2 -->
<g id="node2" class="node"><title>Node2</title>
<g id="a_node2"><a xlink:href="classCElement.html#a58b6cdb5715497442fde6afa1e65f8e5" target="_top" xlink:title="CElement::getNbChildren">
<polygon fill="white" stroke="black" points="165,-76.5 165,-95.5 302,-95.5 302,-76.5 165,-76.5"/>
<text text-anchor="middle" x="233.5" y="-83.5" font-family="Verdana" font-size="10.00">CElement::getNbChildren</text>
</a>
</g>
</g>
<!-- Node1&#45;&gt;Node2 -->
<g id="edge1" class="edge"><title>Node1&#45;&gt;Node2</title>
<path fill="none" stroke="midnightblue" d="M107.641,-57.589C129.877,-62.6487 157.348,-68.8996 180.856,-74.2488"/>
<polygon fill="midnightblue" stroke="midnightblue" points="180.135,-77.6739 190.662,-76.4799 181.688,-70.8484 180.135,-77.6739"/>
</g>
<!-- Node3 -->
<g id="node3" class="node"><title>Node3</title>
<g id="a_node3"><a xlink:href="classCElement.html#aee0d626525e9cd24d7639b6365afdc16" target="_top" xlink:title="Get a child element (const) ">
<polygon fill="white" stroke="black" points="179.5,-38.5 179.5,-57.5 287.5,-57.5 287.5,-38.5 179.5,-38.5"/>
<text text-anchor="middle" x="233.5" y="-45.5" font-family="Verdana" font-size="10.00">CElement::getChild</text>
</a>
</g>
</g>
<!-- Node1&#45;&gt;Node3 -->
<g id="edge2" class="edge"><title>Node1&#45;&gt;Node3</title>
<path fill="none" stroke="midnightblue" d="M129.112,-48C142.204,-48 155.988,-48 169.074,-48"/>
<polygon fill="midnightblue" stroke="midnightblue" points="169.391,-51.5001 179.391,-48 169.391,-44.5001 169.391,-51.5001"/>
</g>
<!-- Node4 -->
<g id="node4" class="node"><title>Node4</title>
<g id="a_node4"><a xlink:href="classCRule.html#a1f1682adc8db3c266f6c79bde39b12cd" target="_top" xlink:title="CRule::dump">
<polygon fill="white" stroke="black" points="195,-0.5 195,-19.5 272,-19.5 272,-0.5 195,-0.5"/>
<text text-anchor="middle" x="233.5" y="-7.5" font-family="Verdana" font-size="10.00">CRule::dump</text>
</a>
</g>
</g>
<!-- Node1&#45;&gt;Node4 -->
<g id="edge3" class="edge"><title>Node1&#45;&gt;Node4</title>
<path fill="none" stroke="midnightblue" d="M107.641,-38.411C131.25,-33.0389 160.761,-26.3238 185.164,-20.7711"/>
<polygon fill="midnightblue" stroke="midnightblue" points="185.957,-24.1802 194.931,-18.5487 184.404,-17.3547 185.957,-24.1802"/>
</g>
</g>
</svg>
