<?xml version="1.0" encoding="UTF-8" standalone="no"?>
<!DOCTYPE svg PUBLIC "-//W3C//DTD SVG 1.1//EN"
 "http://www.w3.org/Graphics/SVG/1.1/DTD/svg11.dtd">
<!-- Generated by graphviz version 2.38.0 (20140413.2041)
 -->
<!-- Title: CEnumParameterType::toBlackboard Pages: 1 -->
<svg width="324pt" height="104pt"
 viewBox="0.00 0.00 324.00 104.00" xmlns="http://www.w3.org/2000/svg" xmlns:xlink="http://www.w3.org/1999/xlink">
<g id="graph0" class="graph" transform="scale(1 1) rotate(0) translate(4 100)">
<title>CEnumParameterType::toBlackboard</title>
<polygon fill="white" stroke="none" points="-4,4 -4,-100 320,-100 320,4 -4,4"/>
<!-- Node1 -->
<g id="node1" class="node"><title>Node1</title>
<polygon fill="#bfbfbf" stroke="black" points="0,-33 0,-63 122,-63 122,-33 0,-33"/>
<text text-anchor="start" x="8" y="-51" font-family="Verdana" font-size="10.00">CEnumParameterType</text>
<text text-anchor="middle" x="61" y="-40" font-family="Verdana" font-size="10.00">::toBlackboard</text>
</g>
<!-- Node2 -->
<g id="node2" class="node"><title>Node2</title>
<g id="a_node2"><a xlink:href="classCParameterType.html#ac32b37965ef213b6a8df9656b37596df" target="_top" xlink:title="Sign extension (32 bits) ">
<polygon fill="white" stroke="black" points="160.5,-76.5 160.5,-95.5 313.5,-95.5 313.5,-76.5 160.5,-76.5"/>
<text text-anchor="middle" x="237" y="-83.5" font-family="Verdana" font-size="10.00">CParameterType::signExtend</text>
</a>
</g>
</g>
<!-- Node1&#45;&gt;Node2 -->
<g id="edge1" class="edge"><title>Node1&#45;&gt;Node2</title>
<path fill="none" stroke="midnightblue" d="M122.368,-61.1839C141.921,-65.454 163.459,-70.1578 182.479,-74.3115"/>
<polygon fill="midnightblue" stroke="midnightblue" points="181.947,-77.7777 192.463,-76.492 183.44,-70.9389 181.947,-77.7777"/>
</g>
<!-- Node3 -->
<g id="node3" class="node"><title>Node3</title>
<g id="a_node3"><a xlink:href="classCErrorContext.html#a9d58b281c0d0fc9a6d3b83714cf812ef" target="_top" xlink:title="CErrorContext::setError">
<polygon fill="white" stroke="black" points="173,-38.5 173,-57.5 301,-57.5 301,-38.5 173,-38.5"/>
<text text-anchor="middle" x="237" y="-45.5" font-family="Verdana" font-size="10.00">CErrorContext::setError</text>
</a>
</g>
</g>
<!-- Node1&#45;&gt;Node3 -->
<g id="edge2" class="edge"><title>Node1&#45;&gt;Node3</title>
<path fill="none" stroke="midnightblue" d="M122.368,-48C135.352,-48 149.212,-48 162.629,-48"/>
<polygon fill="midnightblue" stroke="midnightblue" points="162.78,-51.5001 172.78,-48 162.78,-44.5001 162.78,-51.5001"/>
</g>
<!-- Node4 -->
<g id="node4" class="node"><title>Node4</title>
<g id="a_node4"><a xlink:href="classCParameterType.html#af5e79e641e4cd7929b60395d9ffd761a" target="_top" xlink:title="CParameterType::isEncodable">
<polygon fill="white" stroke="black" points="158,-0.5 158,-19.5 316,-19.5 316,-0.5 158,-0.5"/>
<text text-anchor="middle" x="237" y="-7.5" font-family="Verdana" font-size="10.00">CParameterType::isEncodable</text>
</a>
</g>
</g>
<!-- Node1&#45;&gt;Node4 -->
<g id="edge3" class="edge"><title>Node1&#45;&gt;Node4</title>
<path fill="none" stroke="midnightblue" d="M122.368,-34.8161C141.921,-30.546 163.459,-25.8422 182.479,-21.6885"/>
<polygon fill="midnightblue" stroke="midnightblue" points="183.44,-25.0611 192.463,-19.508 181.947,-18.2223 183.44,-25.0611"/>
</g>
</g>
</svg>
