<?xml version="1.0" encoding="UTF-8" standalone="no"?>
<!DOCTYPE svg PUBLIC "-//W3C//DTD SVG 1.1//EN"
 "http://www.w3.org/Graphics/SVG/1.1/DTD/svg11.dtd">
<!-- Generated by graphviz version 2.38.0 (20140413.2041)
 -->
<!-- Title: CParameterMgrFullConnector::importSingleDomainXml Pages: 1 -->
<svg width="550pt" height="39pt"
 viewBox="0.00 0.00 550.00 39.00" xmlns="http://www.w3.org/2000/svg" xmlns:xlink="http://www.w3.org/1999/xlink">
<g id="graph0" class="graph" transform="scale(1 1) rotate(0) translate(4 35)">
<title>CParameterMgrFullConnector::importSingleDomainXml</title>
<polygon fill="white" stroke="none" points="-4,4 -4,-35 546,-35 546,4 -4,4"/>
<!-- Node1 -->
<g id="node1" class="node"><title>Node1</title>
<polygon fill="#bfbfbf" stroke="black" points="0,-0.5 0,-30.5 156,-30.5 156,-0.5 0,-0.5"/>
<text text-anchor="start" x="8" y="-18.5" font-family="Verdana" font-size="10.00">CParameterMgrFullConnector</text>
<text text-anchor="middle" x="78" y="-7.5" font-family="Verdana" font-size="10.00">::importSingleDomainXml</text>
</g>
<!-- Node2 -->
<g id="node2" class="node"><title>Node2</title>
<g id="a_node2"><a xlink:href="classCParameterMgrFullConnector.html#aabb2c632ebbc334427a78b51225082c4" target="_top" xlink:title="Method that imports a single Configurable Domain from an Xml source. ">
<polygon fill="white" stroke="black" points="192,-0.5 192,-30.5 348,-30.5 348,-0.5 192,-0.5"/>
<text text-anchor="start" x="200" y="-18.5" font-family="Verdana" font-size="10.00">CParameterMgrFullConnector</text>
<text text-anchor="middle" x="270" y="-7.5" font-family="Verdana" font-size="10.00">::importSingleDomainXml</text>
</a>
</g>
</g>
<!-- Node1&#45;&gt;Node2 -->
<g id="edge1" class="edge"><title>Node1&#45;&gt;Node2</title>
<path fill="none" stroke="midnightblue" d="M156.006,-15.5C164.509,-15.5 173.211,-15.5 181.827,-15.5"/>
<polygon fill="midnightblue" stroke="midnightblue" points="181.884,-19.0001 191.884,-15.5 181.884,-12.0001 181.884,-19.0001"/>
</g>
<!-- Node3 -->
<g id="node3" class="node"><title>Node3</title>
<g id="a_node3"><a xlink:href="classCParameterMgr.html#a3b70c39ad6c10dfb6635f60e49f1c797" target="_top" xlink:title="Method that imports a single Configurable Domain from an Xml source. ">
<polygon fill="white" stroke="black" points="384,-0.5 384,-30.5 542,-30.5 542,-0.5 384,-0.5"/>
<text text-anchor="start" x="392" y="-18.5" font-family="Verdana" font-size="10.00">CParameterMgr::importSingle</text>
<text text-anchor="middle" x="463" y="-7.5" font-family="Verdana" font-size="10.00">DomainXml</text>
</a>
</g>
</g>
<!-- Node2&#45;&gt;Node3 -->
<g id="edge2" class="edge"><title>Node2&#45;&gt;Node3</title>
<path fill="none" stroke="midnightblue" d="M348.136,-15.5C356.62,-15.5 365.304,-15.5 373.908,-15.5"/>
<polygon fill="midnightblue" stroke="midnightblue" points="373.954,-19.0001 383.954,-15.5 373.954,-12.0001 373.954,-19.0001"/>
</g>
</g>
</svg>
