<?xml version="1.0" encoding="UTF-8" standalone="no"?>
<!DOCTYPE svg PUBLIC "-//W3C//DTD SVG 1.1//EN"
 "http://www.w3.org/Graphics/SVG/1.1/DTD/svg11.dtd">
<!-- Generated by graphviz version 2.38.0 (20140413.2041)
 -->
<!-- Title: CConfigurableDomains::removeConfigurableElementFromDomain Pages: 1 -->
<svg width="616pt" height="50pt"
 viewBox="0.00 0.00 616.00 50.00" xmlns="http://www.w3.org/2000/svg" xmlns:xlink="http://www.w3.org/1999/xlink">
<g id="graph0" class="graph" transform="scale(1 1) rotate(0) translate(4 46)">
<title>CConfigurableDomains::removeConfigurableElementFromDomain</title>
<polygon fill="white" stroke="none" points="-4,4 -4,-46 612,-46 612,4 -4,4"/>
<!-- Node1 -->
<g id="node1" class="node"><title>Node1</title>
<polygon fill="#bfbfbf" stroke="black" points="0,-0.5 0,-41.5 159,-41.5 159,-0.5 0,-0.5"/>
<text text-anchor="start" x="8" y="-29.5" font-family="Verdana" font-size="10.00">CConfigurableDomains</text>
<text text-anchor="start" x="8" y="-18.5" font-family="Verdana" font-size="10.00">::removeConfigurableElement</text>
<text text-anchor="middle" x="79.5" y="-7.5" font-family="Verdana" font-size="10.00">FromDomain</text>
</g>
<!-- Node2 -->
<g id="node2" class="node"><title>Node2</title>
<g id="a_node2"><a xlink:href="classCParameterMgr.html#a4f307490c67f2dde0b08e638500dd5d4" target="_top" xlink:title="CParameterMgr::removeConfigurable\lElementFromDomain">
<polygon fill="white" stroke="black" points="195,-6 195,-36 389,-36 389,-6 195,-6"/>
<text text-anchor="start" x="203" y="-24" font-family="Verdana" font-size="10.00">CParameterMgr::removeConfigurable</text>
<text text-anchor="middle" x="292" y="-13" font-family="Verdana" font-size="10.00">ElementFromDomain</text>
</a>
</g>
</g>
<!-- Node1&#45;&gt;Node2 -->
<g id="edge1" class="edge"><title>Node1&#45;&gt;Node2</title>
<path fill="none" stroke="midnightblue" d="M169.41,-21C177.867,-21 186.468,-21 194.988,-21"/>
<polygon fill="midnightblue" stroke="midnightblue" points="169.182,-17.5001 159.182,-21 169.182,-24.5001 169.182,-17.5001"/>
</g>
<!-- Node3 -->
<g id="node3" class="node"><title>Node3</title>
<g id="a_node3"><a xlink:href="classCParameterMgrFullConnector.html#aeb023e264ddb06255bea04ddb2c65708" target="_top" xlink:title="CParameterMgrFullConnector\l::removeConfigurableElementFrom\lDomain">
<polygon fill="white" stroke="black" points="425,-0.5 425,-41.5 608,-41.5 608,-0.5 425,-0.5"/>
<text text-anchor="start" x="433" y="-29.5" font-family="Verdana" font-size="10.00">CParameterMgrFullConnector</text>
<text text-anchor="start" x="433" y="-18.5" font-family="Verdana" font-size="10.00">::removeConfigurableElementFrom</text>
<text text-anchor="middle" x="516.5" y="-7.5" font-family="Verdana" font-size="10.00">Domain</text>
</a>
</g>
</g>
<!-- Node2&#45;&gt;Node3 -->
<g id="edge2" class="edge"><title>Node2&#45;&gt;Node3</title>
<path fill="none" stroke="midnightblue" d="M399.526,-21C407.937,-21 416.384,-21 424.675,-21"/>
<polygon fill="midnightblue" stroke="midnightblue" points="399.298,-17.5001 389.298,-21 399.298,-24.5001 399.298,-17.5001"/>
</g>
</g>
</svg>
