<?xml version="1.0" encoding="UTF-8" standalone="no"?>
<!DOCTYPE svg PUBLIC "-//W3C//DTD SVG 1.1//EN"
 "http://www.w3.org/Graphics/SVG/1.1/DTD/svg11.dtd">
<!-- Generated by graphviz version 2.38.0 (20140413.2041)
 -->
<!-- Title: CParameterMgrFullConnector::renameConfiguration Pages: 1 -->
<svg width="1014pt" height="66pt"
 viewBox="0.00 0.00 1014.00 66.00" xmlns="http://www.w3.org/2000/svg" xmlns:xlink="http://www.w3.org/1999/xlink">
<g id="graph0" class="graph" transform="scale(1 1) rotate(0) translate(4 62)">
<title>CParameterMgrFullConnector::renameConfiguration</title>
<polygon fill="white" stroke="none" points="-4,4 -4,-62 1010,-62 1010,4 -4,4"/>
<!-- Node1 -->
<g id="node1" class="node"><title>Node1</title>
<polygon fill="#bfbfbf" stroke="black" points="0,-14 0,-44 156,-44 156,-14 0,-14"/>
<text text-anchor="start" x="8" y="-32" font-family="Verdana" font-size="10.00">CParameterMgrFullConnector</text>
<text text-anchor="middle" x="78" y="-21" font-family="Verdana" font-size="10.00">::renameConfiguration</text>
</g>
<!-- Node2 -->
<g id="node2" class="node"><title>Node2</title>
<g id="a_node2"><a xlink:href="classCParameterMgr.html#af73dc2735e178eb3571400b76172b03e" target="_top" xlink:title="CParameterMgr::renameConfiguration">
<polygon fill="white" stroke="black" points="192,-19.5 192,-38.5 391,-38.5 391,-19.5 192,-19.5"/>
<text text-anchor="middle" x="291.5" y="-26.5" font-family="Verdana" font-size="10.00">CParameterMgr::renameConfiguration</text>
</a>
</g>
</g>
<!-- Node1&#45;&gt;Node2 -->
<g id="edge1" class="edge"><title>Node1&#45;&gt;Node2</title>
<path fill="none" stroke="midnightblue" d="M156.254,-29C164.566,-29 173.132,-29 181.724,-29"/>
<polygon fill="midnightblue" stroke="midnightblue" points="181.809,-32.5001 191.809,-29 181.809,-25.5001 181.809,-32.5001"/>
</g>
<!-- Node3 -->
<g id="node3" class="node"><title>Node3</title>
<g id="a_node3"><a xlink:href="classCConfigurableDomains.html#a052bfda8fb27ff5a1eeb0a53444031e8" target="_top" xlink:title="CConfigurableDomains\l::renameConfiguration">
<polygon fill="white" stroke="black" points="427,-14 427,-44 553,-44 553,-14 427,-14"/>
<text text-anchor="start" x="435" y="-32" font-family="Verdana" font-size="10.00">CConfigurableDomains</text>
<text text-anchor="middle" x="490" y="-21" font-family="Verdana" font-size="10.00">::renameConfiguration</text>
</a>
</g>
</g>
<!-- Node2&#45;&gt;Node3 -->
<g id="edge2" class="edge"><title>Node2&#45;&gt;Node3</title>
<path fill="none" stroke="midnightblue" d="M391.038,-29C399.684,-29 408.327,-29 416.699,-29"/>
<polygon fill="midnightblue" stroke="midnightblue" points="416.759,-32.5001 426.759,-29 416.759,-25.5001 416.759,-32.5001"/>
</g>
<!-- Node4 -->
<g id="node4" class="node"><title>Node4</title>
<g id="a_node4"><a xlink:href="classCConfigurableDomain.html#a647386b073c9dd776f9cd9dcb24088a7" target="_top" xlink:title="CConfigurableDomain\l::renameConfiguration">
<polygon fill="white" stroke="black" points="589,-14 589,-44 713,-44 713,-14 589,-14"/>
<text text-anchor="start" x="597" y="-32" font-family="Verdana" font-size="10.00">CConfigurableDomain</text>
<text text-anchor="middle" x="651" y="-21" font-family="Verdana" font-size="10.00">::renameConfiguration</text>
</a>
</g>
</g>
<!-- Node3&#45;&gt;Node4 -->
<g id="edge3" class="edge"><title>Node3&#45;&gt;Node4</title>
<path fill="none" stroke="midnightblue" d="M553.385,-29C561.673,-29 570.222,-29 578.647,-29"/>
<polygon fill="midnightblue" stroke="midnightblue" points="578.837,-32.5001 588.837,-29 578.837,-25.5001 578.837,-32.5001"/>
</g>
<!-- Node5 -->
<g id="node5" class="node"><title>Node5</title>
<g id="a_node5"><a xlink:href="classCElement.html#aa09118f89e5b3208ee92d0ec51151ccf" target="_top" xlink:title="CElement::rename">
<polygon fill="white" stroke="black" points="749,-19.5 749,-38.5 856,-38.5 856,-19.5 749,-19.5"/>
<text text-anchor="middle" x="802.5" y="-26.5" font-family="Verdana" font-size="10.00">CElement::rename</text>
</a>
</g>
</g>
<!-- Node4&#45;&gt;Node5 -->
<g id="edge4" class="edge"><title>Node4&#45;&gt;Node5</title>
<path fill="none" stroke="midnightblue" d="M713.239,-29C721.609,-29 730.212,-29 738.611,-29"/>
<polygon fill="midnightblue" stroke="midnightblue" points="738.725,-32.5001 748.725,-29 738.724,-25.5001 738.725,-32.5001"/>
</g>
<!-- Node6 -->
<g id="node6" class="node"><title>Node6</title>
<g id="a_node6"><a xlink:href="classCElement.html#a49581fb6412e29e932962acd82d52d6a" target="_top" xlink:title="CElement::getName">
<polygon fill="white" stroke="black" points="892,-38.5 892,-57.5 1006,-57.5 1006,-38.5 892,-38.5"/>
<text text-anchor="middle" x="949" y="-45.5" font-family="Verdana" font-size="10.00">CElement::getName</text>
</a>
</g>
</g>
<!-- Node5&#45;&gt;Node6 -->
<g id="edge5" class="edge"><title>Node5&#45;&gt;Node6</title>
<path fill="none" stroke="midnightblue" d="M856.077,-35.9132C864.429,-37.0114 873.16,-38.1595 881.777,-39.2924"/>
<polygon fill="midnightblue" stroke="midnightblue" points="881.438,-42.778 891.809,-40.6116 882.351,-35.8377 881.438,-42.778"/>
</g>
<!-- Node7 -->
<g id="node7" class="node"><title>Node7</title>
<g id="a_node7"><a xlink:href="classCElement.html#a9018d33125b066d6cd791659af95c6fe" target="_top" xlink:title="CElement::setName">
<polygon fill="white" stroke="black" points="892.5,-0.5 892.5,-19.5 1005.5,-19.5 1005.5,-0.5 892.5,-0.5"/>
<text text-anchor="middle" x="949" y="-7.5" font-family="Verdana" font-size="10.00">CElement::setName</text>
</a>
</g>
</g>
<!-- Node5&#45;&gt;Node7 -->
<g id="edge6" class="edge"><title>Node5&#45;&gt;Node7</title>
<path fill="none" stroke="midnightblue" d="M856.077,-22.0868C864.545,-20.9734 873.403,-19.8086 882.136,-18.6604"/>
<polygon fill="midnightblue" stroke="midnightblue" points="882.841,-22.0979 892.299,-17.324 881.928,-15.1576 882.841,-22.0979"/>
</g>
</g>
</svg>
