<?xml version="1.0" encoding="UTF-8" standalone="no"?>
<!DOCTYPE svg PUBLIC "-//W3C//DTD SVG 1.1//EN"
 "http://www.w3.org/Graphics/SVG/1.1/DTD/svg11.dtd">
<!-- Generated by graphviz version 2.38.0 (20140413.2041)
 -->
<!-- Title: CBitParameterType::toBlackboard Pages: 1 -->
<svg width="285pt" height="78pt"
 viewBox="0.00 0.00 285.00 77.50" xmlns="http://www.w3.org/2000/svg" xmlns:xlink="http://www.w3.org/1999/xlink">
<g id="graph0" class="graph" transform="scale(1 1) rotate(0) translate(4 73.5)">
<title>CBitParameterType::toBlackboard</title>
<polygon fill="white" stroke="none" points="-4,4 -4,-73.5 281,-73.5 281,4 -4,4"/>
<!-- Node1 -->
<g id="node1" class="node"><title>Node1</title>
<polygon fill="#bfbfbf" stroke="black" points="0,-17 0,-47 113,-47 113,-17 0,-17"/>
<text text-anchor="start" x="8" y="-35" font-family="Verdana" font-size="10.00">CBitParameterType::</text>
<text text-anchor="middle" x="56.5" y="-24" font-family="Verdana" font-size="10.00">toBlackboard</text>
</g>
<!-- Node2 -->
<g id="node2" class="node"><title>Node2</title>
<g id="a_node2"><a xlink:href="classCBitParameterType.html#a869a8ec74c4c3566ea658a01dde70824" target="_top" xlink:title="CBitParameterType::\lgetKind">
<polygon fill="white" stroke="black" points="156.5,-39 156.5,-69 269.5,-69 269.5,-39 156.5,-39"/>
<text text-anchor="start" x="164.5" y="-57" font-family="Verdana" font-size="10.00">CBitParameterType::</text>
<text text-anchor="middle" x="213" y="-46" font-family="Verdana" font-size="10.00">getKind</text>
</a>
</g>
</g>
<!-- Node1&#45;&gt;Node2 -->
<g id="edge1" class="edge"><title>Node1&#45;&gt;Node2</title>
<path fill="none" stroke="midnightblue" d="M113.278,-39.9425C123.999,-41.4691 135.319,-43.081 146.318,-44.6473"/>
<polygon fill="midnightblue" stroke="midnightblue" points="145.91,-48.1244 156.304,-46.0692 146.897,-41.1943 145.91,-48.1244"/>
</g>
<!-- Node3 -->
<g id="node3" class="node"><title>Node3</title>
<g id="a_node3"><a xlink:href="classCErrorContext.html#a9d58b281c0d0fc9a6d3b83714cf812ef" target="_top" xlink:title="CErrorContext::setError">
<polygon fill="white" stroke="black" points="149,-0.5 149,-19.5 277,-19.5 277,-0.5 149,-0.5"/>
<text text-anchor="middle" x="213" y="-7.5" font-family="Verdana" font-size="10.00">CErrorContext::setError</text>
</a>
</g>
</g>
<!-- Node1&#45;&gt;Node3 -->
<g id="edge2" class="edge"><title>Node1&#45;&gt;Node3</title>
<path fill="none" stroke="midnightblue" d="M113.278,-24.0575C121.603,-22.8721 130.289,-21.6352 138.906,-20.4082"/>
<polygon fill="midnightblue" stroke="midnightblue" points="139.557,-23.8509 148.964,-18.976 138.57,-16.9208 139.557,-23.8509"/>
</g>
</g>
</svg>
