<?xml version="1.0" encoding="UTF-8" standalone="no"?>
<!DOCTYPE svg PUBLIC "-//W3C//DTD SVG 1.1//EN"
 "http://www.w3.org/Graphics/SVG/1.1/DTD/svg11.dtd">
<!-- Generated by graphviz version 2.38.0 (20140413.2041)
 -->
<!-- Title: CXmlElement::getNameAttribute Pages: 1 -->
<svg width="545pt" height="39pt"
 viewBox="0.00 0.00 545.00 39.00" xmlns="http://www.w3.org/2000/svg" xmlns:xlink="http://www.w3.org/1999/xlink">
<g id="graph0" class="graph" transform="scale(1 1) rotate(0) translate(4 35)">
<title>CXmlElement::getNameAttribute</title>
<polygon fill="white" stroke="none" points="-4,4 -4,-35 541,-35 541,4 -4,4"/>
<!-- Node1 -->
<g id="node1" class="node"><title>Node1</title>
<polygon fill="#bfbfbf" stroke="black" points="0,-6 0,-25 174,-25 174,-6 0,-6"/>
<text text-anchor="middle" x="87" y="-13" font-family="Verdana" font-size="10.00">CXmlElement::getNameAttribute</text>
</g>
<!-- Node2 -->
<g id="node2" class="node"><title>Node2</title>
<g id="a_node2"><a xlink:href="classCXmlElement.html#a4aacb946f656aab1e585e1aa8f63d4e2" target="_top" xlink:title="CXmlElement::getAttribute\lString">
<polygon fill="white" stroke="black" points="210,-0.5 210,-30.5 355,-30.5 355,-0.5 210,-0.5"/>
<text text-anchor="start" x="218" y="-18.5" font-family="Verdana" font-size="10.00">CXmlElement::getAttribute</text>
<text text-anchor="middle" x="282.5" y="-7.5" font-family="Verdana" font-size="10.00">String</text>
</a>
</g>
</g>
<!-- Node1&#45;&gt;Node2 -->
<g id="edge1" class="edge"><title>Node1&#45;&gt;Node2</title>
<path fill="none" stroke="midnightblue" d="M174.281,-15.5C182.735,-15.5 191.298,-15.5 199.706,-15.5"/>
<polygon fill="midnightblue" stroke="midnightblue" points="199.868,-19.0001 209.868,-15.5 199.868,-12.0001 199.868,-19.0001"/>
</g>
<!-- Node3 -->
<g id="node3" class="node"><title>Node3</title>
<g id="a_node3"><a xlink:href="classCXmlElement.html#aacd4d202e3de66715641cc3bb89bd4b5" target="_top" xlink:title="CXmlElement::hasAttribute">
<polygon fill="white" stroke="black" points="391,-6 391,-25 537,-25 537,-6 391,-6"/>
<text text-anchor="middle" x="464" y="-13" font-family="Verdana" font-size="10.00">CXmlElement::hasAttribute</text>
</a>
</g>
</g>
<!-- Node2&#45;&gt;Node3 -->
<g id="edge2" class="edge"><title>Node2&#45;&gt;Node3</title>
<path fill="none" stroke="midnightblue" d="M355.217,-15.5C363.548,-15.5 372.095,-15.5 380.555,-15.5"/>
<polygon fill="midnightblue" stroke="midnightblue" points="380.811,-19.0001 390.811,-15.5 380.811,-12.0001 380.811,-19.0001"/>
</g>
</g>
</svg>
