<?xml version="1.0" encoding="UTF-8" standalone="no"?>
<!DOCTYPE svg PUBLIC "-//W3C//DTD SVG 1.1//EN"
 "http://www.w3.org/Graphics/SVG/1.1/DTD/svg11.dtd">
<!-- Generated by graphviz version 2.36.0 (20140111.2315)
 -->
<!-- Title: CSelectionCriterionRule::parse Pages: 1 -->
<svg width="470pt" height="262pt"
 viewBox="0.00 0.00 470.00 262.00" xmlns="http://www.w3.org/2000/svg" xmlns:xlink="http://www.w3.org/1999/xlink">
<g id="graph0" class="graph" transform="scale(1 1) rotate(0) translate(4 258)">
<title>CSelectionCriterionRule::parse</title>
<polygon fill="white" stroke="none" points="-4,4 -4,-258 466,-258 466,4 -4,4"/>
<!-- Node1 -->
<g id="node1" class="node"><title>Node1</title>
<polygon fill="#bfbfbf" stroke="black" points="0,-112 0,-142 128,-142 128,-112 0,-112"/>
<text text-anchor="start" x="8" y="-130" font-family="Verdana" font-size="10.00">CSelectionCriterionRule</text>
<text text-anchor="middle" x="64" y="-119" font-family="Verdana" font-size="10.00">::parse</text>
</g>
<!-- Node2 -->
<g id="node2" class="node"><title>Node2</title>
<g id="a_node2"><a xlink:href="classCRuleParser.html#af179ac22a54025386da02a5bdb33b253" target="_top" xlink:title="CRuleParser::getSelection\lCriteriaDefinition">
<polygon fill="white" stroke="black" points="168.5,-224 168.5,-254 307.5,-254 307.5,-224 168.5,-224"/>
<text text-anchor="start" x="176.5" y="-242" font-family="Verdana" font-size="10.00">CRuleParser::getSelection</text>
<text text-anchor="middle" x="238" y="-231" font-family="Verdana" font-size="10.00">CriteriaDefinition</text>
</a>
</g>
</g>
<!-- Node1&#45;&gt;Node2 -->
<g id="edge1" class="edge"><title>Node1&#45;&gt;Node2</title>
<path fill="none" stroke="midnightblue" d="M78.6729,-142.244C96.5834,-161.393 129.756,-194.144 164,-214 167.651,-216.117 171.508,-218.091 175.466,-219.926"/>
<polygon fill="midnightblue" stroke="midnightblue" points="174.265,-223.219 184.834,-223.956 177.031,-216.789 174.265,-223.219"/>
</g>
<!-- Node3 -->
<g id="node3" class="node"><title>Node3</title>
<g id="a_node3"><a xlink:href="classCSelectionCriteriaDefinition.html#ade9c9f7fe7806988d3d922bf615e5994" target="_top" xlink:title="CSelectionCriteriaDefinition\l::getSelectionCriterion">
<polygon fill="white" stroke="black" points="164.5,-175 164.5,-205 311.5,-205 311.5,-175 164.5,-175"/>
<text text-anchor="start" x="172.5" y="-193" font-family="Verdana" font-size="10.00">CSelectionCriteriaDefinition</text>
<text text-anchor="middle" x="238" y="-182" font-family="Verdana" font-size="10.00">::getSelectionCriterion</text>
</a>
</g>
</g>
<!-- Node1&#45;&gt;Node3 -->
<g id="edge2" class="edge"><title>Node1&#45;&gt;Node3</title>
<path fill="none" stroke="midnightblue" d="M103.43,-142.126C121.717,-149.227 143.926,-157.713 164,-165 169.95,-167.16 176.19,-169.374 182.411,-171.549"/>
<polygon fill="midnightblue" stroke="midnightblue" points="181.531,-174.949 192.126,-174.921 183.827,-168.336 181.531,-174.949"/>
</g>
<!-- Node5 -->
<g id="node5" class="node"><title>Node5</title>
<g id="a_node5"><a xlink:href="classCRuleParser.html#ae574ae0109f76cc624590bd4899e0a91" target="_top" xlink:title="CRuleParser::getType">
<polygon fill="white" stroke="black" points="180,-136.5 180,-155.5 296,-155.5 296,-136.5 180,-136.5"/>
<text text-anchor="middle" x="238" y="-143.5" font-family="Verdana" font-size="10.00">CRuleParser::getType</text>
</a>
</g>
</g>
<!-- Node1&#45;&gt;Node5 -->
<g id="edge4" class="edge"><title>Node1&#45;&gt;Node5</title>
<path fill="none" stroke="midnightblue" d="M128.07,-133.967C141.593,-135.461 155.932,-137.045 169.611,-138.556"/>
<polygon fill="midnightblue" stroke="midnightblue" points="169.595,-142.075 179.919,-139.695 170.364,-135.118 169.595,-142.075"/>
</g>
<!-- Node6 -->
<g id="node6" class="node"><title>Node6</title>
<g id="a_node6"><a xlink:href="classCRuleParser.html#a7f6198bd3656599e15aee6860c1bf4d7" target="_top" xlink:title="CRuleParser::next">
<polygon fill="white" stroke="black" points="188,-98.5 188,-117.5 288,-117.5 288,-98.5 188,-98.5"/>
<text text-anchor="middle" x="238" y="-105.5" font-family="Verdana" font-size="10.00">CRuleParser::next</text>
</a>
</g>
</g>
<!-- Node1&#45;&gt;Node6 -->
<g id="edge5" class="edge"><title>Node1&#45;&gt;Node6</title>
<path fill="none" stroke="midnightblue" d="M128.07,-120.033C144.271,-118.243 161.644,-116.324 177.651,-114.556"/>
<polygon fill="midnightblue" stroke="midnightblue" points="178.39,-117.996 187.945,-113.419 177.622,-111.038 178.39,-117.996"/>
</g>
<!-- Node7 -->
<g id="node7" class="node"><title>Node7</title>
<g id="a_node7"><a xlink:href="classCSelectionCriterion.html#a3551b612a002f7cc311f21be1685f794" target="_top" xlink:title="CSelectionCriterion\l::getCriterionType">
<polygon fill="white" stroke="black" points="184,-49 184,-79 292,-79 292,-49 184,-49"/>
<text text-anchor="start" x="192" y="-67" font-family="Verdana" font-size="10.00">CSelectionCriterion</text>
<text text-anchor="middle" x="238" y="-56" font-family="Verdana" font-size="10.00">::getCriterionType</text>
</a>
</g>
</g>
<!-- Node1&#45;&gt;Node7 -->
<g id="edge6" class="edge"><title>Node1&#45;&gt;Node7</title>
<path fill="none" stroke="midnightblue" d="M103.43,-111.874C121.717,-104.773 143.926,-96.2872 164,-89 169.95,-86.8401 176.19,-84.6259 182.411,-82.451"/>
<polygon fill="midnightblue" stroke="midnightblue" points="183.827,-85.6645 192.126,-79.079 181.531,-79.0515 183.827,-85.6645"/>
</g>
<!-- Node8 -->
<g id="node8" class="node"><title>Node8</title>
<g id="a_node8"><a xlink:href="classCSelectionCriterion.html#a1570d99b016390cca5b5d6f3c1d405c1" target="_top" xlink:title="CSelectionCriterion\l::getCriterionName">
<polygon fill="white" stroke="black" points="184,-0 184,-30 292,-30 292,-0 184,-0"/>
<text text-anchor="start" x="192" y="-18" font-family="Verdana" font-size="10.00">CSelectionCriterion</text>
<text text-anchor="middle" x="238" y="-7" font-family="Verdana" font-size="10.00">::getCriterionName</text>
</a>
</g>
</g>
<!-- Node1&#45;&gt;Node8 -->
<g id="edge7" class="edge"><title>Node1&#45;&gt;Node8</title>
<path fill="none" stroke="midnightblue" d="M78.6729,-111.756C96.5834,-92.6065 129.756,-59.8559 164,-40 167.651,-37.8833 171.508,-35.909 175.466,-34.0741"/>
<polygon fill="midnightblue" stroke="midnightblue" points="177.031,-37.2109 184.834,-30.0442 174.265,-30.7806 177.031,-37.2109"/>
</g>
<!-- Node4 -->
<g id="node4" class="node"><title>Node4</title>
<g id="a_node4"><a xlink:href="classCElement.html#a8595814a3159f32f874269907e70b260" target="_top" xlink:title="CElement::findChild">
<polygon fill="white" stroke="black" points="350,-180.5 350,-199.5 460,-199.5 460,-180.5 350,-180.5"/>
<text text-anchor="middle" x="405" y="-187.5" font-family="Verdana" font-size="10.00">CElement::findChild</text>
</a>
</g>
</g>
<!-- Node3&#45;&gt;Node4 -->
<g id="edge3" class="edge"><title>Node3&#45;&gt;Node4</title>
<path fill="none" stroke="midnightblue" d="M311.852,-190C321.135,-190 330.583,-190 339.718,-190"/>
<polygon fill="midnightblue" stroke="midnightblue" points="339.873,-193.5 349.873,-190 339.873,-186.5 339.873,-193.5"/>
</g>
<!-- Node9 -->
<g id="node9" class="node"><title>Node9</title>
<g id="a_node9"><a xlink:href="classCElement.html#a49581fb6412e29e932962acd82d52d6a" target="_top" xlink:title="CElement::getName">
<polygon fill="white" stroke="black" points="348,-5.5 348,-24.5 462,-24.5 462,-5.5 348,-5.5"/>
<text text-anchor="middle" x="405" y="-12.5" font-family="Verdana" font-size="10.00">CElement::getName</text>
</a>
</g>
</g>
<!-- Node8&#45;&gt;Node9 -->
<g id="edge8" class="edge"><title>Node8&#45;&gt;Node9</title>
<path fill="none" stroke="midnightblue" d="M292.115,-15C306.582,-15 322.436,-15 337.543,-15"/>
<polygon fill="midnightblue" stroke="midnightblue" points="337.856,-18.5001 347.856,-15 337.856,-11.5001 337.856,-18.5001"/>
</g>
</g>
</svg>
