<?xml version="1.0" encoding="UTF-8" standalone="no"?>
<!DOCTYPE svg PUBLIC "-//W3C//DTD SVG 1.1//EN"
 "http://www.w3.org/Graphics/SVG/1.1/DTD/svg11.dtd">
<!-- Generated by graphviz version 2.36.0 (20140111.2315)
 -->
<!-- Title: CConfigurableDomain::getElementSequence Pages: 1 -->
<svg width="296pt" height="38pt"
 viewBox="0.00 0.00 296.00 38.00" xmlns="http://www.w3.org/2000/svg" xmlns:xlink="http://www.w3.org/1999/xlink">
<g id="graph0" class="graph" transform="scale(1 1) rotate(0) translate(4 34)">
<title>CConfigurableDomain::getElementSequence</title>
<polygon fill="white" stroke="none" points="-4,4 -4,-34 292,-34 292,4 -4,4"/>
<!-- Node1 -->
<g id="node1" class="node"><title>Node1</title>
<polygon fill="#bfbfbf" stroke="black" points="0,-0 0,-30 126,-30 126,-0 0,-0"/>
<text text-anchor="start" x="8" y="-18" font-family="Verdana" font-size="10.00">CConfigurableDomain</text>
<text text-anchor="middle" x="63" y="-7" font-family="Verdana" font-size="10.00">::getElementSequence</text>
</g>
<!-- Node2 -->
<g id="node2" class="node"><title>Node2</title>
<g id="a_node2"><a xlink:href="classCConfigurableDomains.html#a0ed279dec1b574701cd94a6449a295e6" target="_top" xlink:title="CConfigurableDomains\l::getElementSequence">
<polygon fill="white" stroke="black" points="162,-0 162,-30 288,-30 288,-0 162,-0"/>
<text text-anchor="start" x="170" y="-18" font-family="Verdana" font-size="10.00">CConfigurableDomains</text>
<text text-anchor="middle" x="225" y="-7" font-family="Verdana" font-size="10.00">::getElementSequence</text>
</a>
</g>
</g>
<!-- Node1&#45;&gt;Node2 -->
<g id="edge1" class="edge"><title>Node1&#45;&gt;Node2</title>
<path fill="none" stroke="midnightblue" d="M136.545,-15C144.996,-15 153.559,-15 161.852,-15"/>
<polygon fill="midnightblue" stroke="midnightblue" points="136.318,-11.5001 126.318,-15 136.318,-18.5001 136.318,-11.5001"/>
</g>
</g>
</svg>
