<?xml version="1.0" encoding="UTF-8" standalone="no"?>
<!DOCTYPE svg PUBLIC "-//W3C//DTD SVG 1.1//EN"
 "http://www.w3.org/Graphics/SVG/1.1/DTD/svg11.dtd">
<!-- Generated by graphviz version 2.38.0 (20140413.2041)
 -->
<!-- Title: CErrorContext::appendToError Pages: 1 -->
<svg width="1131pt" height="203pt"
 viewBox="0.00 0.00 1131.00 203.00" xmlns="http://www.w3.org/2000/svg" xmlns:xlink="http://www.w3.org/1999/xlink">
<g id="graph0" class="graph" transform="scale(1 1) rotate(0) translate(4 199)">
<title>CErrorContext::appendToError</title>
<polygon fill="white" stroke="none" points="-4,4 -4,-199 1127,-199 1127,4 -4,4"/>
<!-- Node1 -->
<g id="node1" class="node"><title>Node1</title>
<polygon fill="#bfbfbf" stroke="black" points="0,-57.5 0,-76.5 159,-76.5 159,-57.5 0,-57.5"/>
<text text-anchor="middle" x="79.5" y="-64.5" font-family="Verdana" font-size="10.00">CErrorContext::appendToError</text>
</g>
<!-- Node2 -->
<g id="node2" class="node"><title>Node2</title>
<g id="a_node2"><a xlink:href="classCBaseParameter.html#a911cbd2df0c950a79863fdd689731f88" target="_top" xlink:title="Append the parameter path to the error. ">
<polygon fill="white" stroke="black" points="195,-77 195,-107 385,-107 385,-77 195,-77"/>
<text text-anchor="start" x="203" y="-95" font-family="Verdana" font-size="10.00">CBaseParameter::appendParameter</text>
<text text-anchor="middle" x="290" y="-84" font-family="Verdana" font-size="10.00">PathToError</text>
</a>
</g>
</g>
<!-- Node1&#45;&gt;Node2 -->
<g id="edge1" class="edge"><title>Node1&#45;&gt;Node2</title>
<path fill="none" stroke="midnightblue" d="M168.96,-77.6067C177.489,-78.6293 186.162,-79.6693 194.744,-80.6983"/>
<polygon fill="midnightblue" stroke="midnightblue" points="169.373,-74.1313 159.028,-76.4158 168.54,-81.0815 169.373,-74.1313"/>
</g>
<!-- Node14 -->
<g id="node14" class="node"><title>Node14</title>
<g id="a_node14"><a xlink:href="classCBooleanParameterType.html#a3984c73c19bf9ba8511152983b60f834" target="_top" xlink:title="Conversion. ">
<polygon fill="white" stroke="black" points="223,-28 223,-58 357,-58 357,-28 223,-28"/>
<text text-anchor="start" x="231" y="-46" font-family="Verdana" font-size="10.00">CBooleanParameterType</text>
<text text-anchor="middle" x="290" y="-35" font-family="Verdana" font-size="10.00">::toBlackboard</text>
</a>
</g>
</g>
<!-- Node1&#45;&gt;Node14 -->
<g id="edge15" class="edge"><title>Node1&#45;&gt;Node14</title>
<path fill="none" stroke="midnightblue" d="M168.971,-56.8163C187.013,-54.7395 205.701,-52.5884 222.804,-50.6196"/>
<polygon fill="midnightblue" stroke="midnightblue" points="168.562,-53.3402 159.028,-57.9608 169.362,-60.2943 168.562,-53.3402"/>
</g>
<!-- Node3 -->
<g id="node3" class="node"><title>Node3</title>
<g id="a_node3"><a xlink:href="classCArrayParameter.html#a07b3af958a03b2295be159f69b22d42d" target="_top" xlink:title="CArrayParameter::accessValue">
<polygon fill="white" stroke="black" points="424.5,-175.5 424.5,-194.5 588.5,-194.5 588.5,-175.5 424.5,-175.5"/>
<text text-anchor="middle" x="506.5" y="-182.5" font-family="Verdana" font-size="10.00">CArrayParameter::accessValue</text>
</a>
</g>
</g>
<!-- Node2&#45;&gt;Node3 -->
<g id="edge2" class="edge"><title>Node2&#45;&gt;Node3</title>
<path fill="none" stroke="midnightblue" d="M321.497,-112.825C347.055,-129.41 385.037,-152.079 421,-166 430.676,-169.745 441.274,-172.852 451.595,-175.392"/>
<polygon fill="midnightblue" stroke="midnightblue" points="323.277,-109.807 312.998,-107.237 319.431,-115.656 323.277,-109.807"/>
</g>
<!-- Node4 -->
<g id="node4" class="node"><title>Node4</title>
<g id="a_node4"><a xlink:href="classCBaseParameter.html#a97e096908df72fa729a62c3f5c362ddd" target="_top" xlink:title="CBaseParameter::serialize\lXmlSettings">
<polygon fill="white" stroke="black" points="435,-126 435,-156 578,-156 578,-126 435,-126"/>
<text text-anchor="start" x="443" y="-144" font-family="Verdana" font-size="10.00">CBaseParameter::serialize</text>
<text text-anchor="middle" x="506.5" y="-133" font-family="Verdana" font-size="10.00">XmlSettings</text>
</a>
</g>
</g>
<!-- Node2&#45;&gt;Node4 -->
<g id="edge3" class="edge"><title>Node2&#45;&gt;Node4</title>
<path fill="none" stroke="midnightblue" d="M366.867,-109.331C390.682,-114.771 416.761,-120.729 439.81,-125.994"/>
<polygon fill="midnightblue" stroke="midnightblue" points="367.343,-105.85 356.815,-107.035 365.784,-112.674 367.343,-105.85"/>
</g>
<!-- Node5 -->
<g id="node5" class="node"><title>Node5</title>
<g id="a_node5"><a xlink:href="classCBaseParameter.html#a2b425561e193a3d54e7225d896a3d39b" target="_top" xlink:title="CBaseParameter::accessAs\lString">
<polygon fill="white" stroke="black" points="432,-77 432,-107 581,-107 581,-77 432,-77"/>
<text text-anchor="start" x="440" y="-95" font-family="Verdana" font-size="10.00">CBaseParameter::accessAs</text>
<text text-anchor="middle" x="506.5" y="-84" font-family="Verdana" font-size="10.00">String</text>
</a>
</g>
</g>
<!-- Node2&#45;&gt;Node5 -->
<g id="edge4" class="edge"><title>Node2&#45;&gt;Node5</title>
<path fill="none" stroke="midnightblue" d="M395.391,-92C407.694,-92 420.047,-92 431.802,-92"/>
<polygon fill="midnightblue" stroke="midnightblue" points="395.083,-88.5001 385.083,-92 395.083,-95.5001 395.083,-88.5001"/>
</g>
<!-- Node12 -->
<g id="node12" class="node"><title>Node12</title>
<g id="a_node12"><a xlink:href="classCBitParameter.html#a2e0ed93baec3479a9b92314818433a31" target="_top" xlink:title="Value access. ">
<polygon fill="white" stroke="black" points="628,-3.5 628,-22.5 804,-22.5 804,-3.5 628,-3.5"/>
<text text-anchor="middle" x="716" y="-10.5" font-family="Verdana" font-size="10.00">CBitParameter::accessAsBoolean</text>
</a>
</g>
</g>
<!-- Node2&#45;&gt;Node12 -->
<g id="edge12" class="edge"><title>Node2&#45;&gt;Node12</title>
<path fill="none" stroke="midnightblue" d="M378.845,-75.0035C392.939,-72.3064 407.368,-69.5626 421,-67 505.409,-51.1323 603.554,-33.2122 662.398,-22.5251"/>
<polygon fill="midnightblue" stroke="midnightblue" points="377.821,-71.636 368.659,-76.9559 379.139,-78.5109 377.821,-71.636"/>
</g>
<!-- Node13 -->
<g id="node13" class="node"><title>Node13</title>
<g id="a_node13"><a xlink:href="classCBitParameter.html#ad348903f16d702fac8adcfa1c725a92b" target="_top" xlink:title="CBitParameter::accessAsInteger">
<polygon fill="white" stroke="black" points="421,-0.5 421,-19.5 592,-19.5 592,-0.5 421,-0.5"/>
<text text-anchor="middle" x="506.5" y="-7.5" font-family="Verdana" font-size="10.00">CBitParameter::accessAsInteger</text>
</a>
</g>
</g>
<!-- Node2&#45;&gt;Node13 -->
<g id="edge13" class="edge"><title>Node2&#45;&gt;Node13</title>
<path fill="none" stroke="midnightblue" d="M372.401,-73.0671C376.746,-71.2211 380.975,-69.2036 385,-67 404.038,-56.5761 402.05,-44.5835 421,-34 432.051,-27.828 444.819,-23.1354 457.028,-19.6115"/>
<polygon fill="midnightblue" stroke="midnightblue" points="370.78,-69.9426 362.738,-76.8402 373.326,-76.4631 370.78,-69.9426"/>
</g>
<!-- Node6 -->
<g id="node6" class="node"><title>Node6</title>
<g id="a_node6"><a xlink:href="classCBaseParameter.html#a4a9b3e3a2d1ea65a8dc7048559db8dc2" target="_top" xlink:title="CBaseParameter::accessValue">
<polygon fill="white" stroke="black" points="634.5,-120.5 634.5,-139.5 797.5,-139.5 797.5,-120.5 634.5,-120.5"/>
<text text-anchor="middle" x="716" y="-127.5" font-family="Verdana" font-size="10.00">CBaseParameter::accessValue</text>
</a>
</g>
</g>
<!-- Node5&#45;&gt;Node6 -->
<g id="edge5" class="edge"><title>Node5&#45;&gt;Node6</title>
<path fill="none" stroke="midnightblue" d="M591.175,-107.324C615.454,-111.77 641.258,-116.495 662.99,-120.475"/>
<polygon fill="midnightblue" stroke="midnightblue" points="591.708,-103.863 581.241,-105.504 590.447,-110.749 591.708,-103.863"/>
</g>
<!-- Node7 -->
<g id="node7" class="node"><title>Node7</title>
<g id="a_node7"><a xlink:href="classCParameterHandle.html#ac8ddc2a8c57fa45742f94eca2d1c8516" target="_top" xlink:title="CParameterHandle::setAsString">
<polygon fill="white" stroke="black" points="631.5,-82.5 631.5,-101.5 800.5,-101.5 800.5,-82.5 631.5,-82.5"/>
<text text-anchor="middle" x="716" y="-89.5" font-family="Verdana" font-size="10.00">CParameterHandle::setAsString</text>
</a>
</g>
</g>
<!-- Node5&#45;&gt;Node7 -->
<g id="edge6" class="edge"><title>Node5&#45;&gt;Node7</title>
<path fill="none" stroke="midnightblue" d="M591.613,-92C604.682,-92 618.183,-92 631.244,-92"/>
<polygon fill="midnightblue" stroke="midnightblue" points="591.241,-88.5001 581.241,-92 591.241,-95.5001 591.241,-88.5001"/>
</g>
<!-- Node10 -->
<g id="node10" class="node"><title>Node10</title>
<g id="a_node10"><a xlink:href="classCParameterHandle.html#a393a04f321892c5c25f076135d1b9a2c" target="_top" xlink:title="CParameterHandle::getAsString">
<polygon fill="white" stroke="black" points="631,-44.5 631,-63.5 801,-63.5 801,-44.5 631,-44.5"/>
<text text-anchor="middle" x="716" y="-51.5" font-family="Verdana" font-size="10.00">CParameterHandle::getAsString</text>
</a>
</g>
</g>
<!-- Node5&#45;&gt;Node10 -->
<g id="edge9" class="edge"><title>Node5&#45;&gt;Node10</title>
<path fill="none" stroke="midnightblue" d="M591.175,-76.6764C615.454,-72.2302 641.258,-67.5046 662.99,-63.5246"/>
<polygon fill="midnightblue" stroke="midnightblue" points="590.447,-73.2514 581.241,-78.4956 591.708,-80.1369 590.447,-73.2514"/>
</g>
<!-- Node8 -->
<g id="node8" class="node"><title>Node8</title>
<g id="a_node8"><a xlink:href="ParameterFramework_8h.html#a02e479cdd18adee13f01c05affcd5892" target="_top" xlink:title="Set the value of a previously bind string parameter. ">
<polygon fill="white" stroke="black" points="840,-82.5 840,-101.5 968,-101.5 968,-82.5 840,-82.5"/>
<text text-anchor="middle" x="904" y="-89.5" font-family="Verdana" font-size="10.00">pfwSetStringParameter</text>
</a>
</g>
</g>
<!-- Node7&#45;&gt;Node8 -->
<g id="edge7" class="edge"><title>Node7&#45;&gt;Node8</title>
<path fill="none" stroke="midnightblue" d="M810.924,-92C820.699,-92 830.461,-92 839.777,-92"/>
<polygon fill="midnightblue" stroke="midnightblue" points="810.75,-88.5001 800.75,-92 810.75,-95.5001 810.75,-88.5001"/>
</g>
<!-- Node9 -->
<g id="node9" class="node"><title>Node9</title>
<g id="a_node9"><a xlink:href="Test_8cpp.html#ae78f4780e83e5f2b9721a2d66c70fec9" target="_top" xlink:title="TEST_CASE_METHOD">
<polygon fill="white" stroke="black" points="1004,-63.5 1004,-82.5 1123,-82.5 1123,-63.5 1004,-63.5"/>
<text text-anchor="middle" x="1063.5" y="-70.5" font-family="Verdana" font-size="10.00">TEST_CASE_METHOD</text>
</a>
</g>
</g>
<!-- Node8&#45;&gt;Node9 -->
<g id="edge8" class="edge"><title>Node8&#45;&gt;Node9</title>
<path fill="none" stroke="midnightblue" d="M978.209,-83.1684C986.831,-82.1283 995.542,-81.0774 1003.93,-80.066"/>
<polygon fill="midnightblue" stroke="midnightblue" points="977.663,-79.7089 968.154,-84.3815 978.501,-86.6585 977.663,-79.7089"/>
</g>
<!-- Node11 -->
<g id="node11" class="node"><title>Node11</title>
<g id="a_node11"><a xlink:href="ParameterFramework_8h.html#a0318f736980ecc4a0a456581f44a2cf0" target="_top" xlink:title="Access the value of a previously bind string parameter. ">
<polygon fill="white" stroke="black" points="840,-44.5 840,-63.5 968,-63.5 968,-44.5 840,-44.5"/>
<text text-anchor="middle" x="904" y="-51.5" font-family="Verdana" font-size="10.00">pfwGetStringParameter</text>
</a>
</g>
</g>
<!-- Node10&#45;&gt;Node11 -->
<g id="edge10" class="edge"><title>Node10&#45;&gt;Node11</title>
<path fill="none" stroke="midnightblue" d="M811.178,-54C820.935,-54 830.675,-54 839.968,-54"/>
<polygon fill="midnightblue" stroke="midnightblue" points="811.021,-50.5001 801.021,-54 811.021,-57.5001 811.021,-50.5001"/>
</g>
<!-- Node11&#45;&gt;Node9 -->
<g id="edge11" class="edge"><title>Node11&#45;&gt;Node9</title>
<path fill="none" stroke="midnightblue" d="M978.209,-62.8316C986.831,-63.8717 995.542,-64.9226 1003.93,-65.934"/>
<polygon fill="midnightblue" stroke="midnightblue" points="978.501,-59.3415 968.154,-61.6185 977.663,-66.2911 978.501,-59.3415"/>
</g>
<!-- Node13&#45;&gt;Node12 -->
<g id="edge14" class="edge"><title>Node13&#45;&gt;Node12</title>
<path fill="none" stroke="midnightblue" d="M602.471,-11.3731C610.938,-11.4955 619.483,-11.619 627.879,-11.7404"/>
<polygon fill="midnightblue" stroke="midnightblue" points="602.247,-7.86957 592.197,-11.2245 602.146,-14.8688 602.247,-7.86957"/>
</g>
</g>
</svg>
