<?xml version="1.0" encoding="UTF-8" standalone="no"?>
<!DOCTYPE svg PUBLIC "-//W3C//DTD SVG 1.1//EN"
 "http://www.w3.org/Graphics/SVG/1.1/DTD/svg11.dtd">
<!-- Generated by graphviz version 2.36.0 (20140111.2315)
 -->
<!-- Title: CElement::getParent Pages: 1 -->
<svg width="976pt" height="350pt"
 viewBox="0.00 0.00 976.00 350.00" xmlns="http://www.w3.org/2000/svg" xmlns:xlink="http://www.w3.org/1999/xlink">
<g id="graph0" class="graph" transform="scale(1 1) rotate(0) translate(4 346)">
<title>CElement::getParent</title>
<polygon fill="white" stroke="none" points="-4,4 -4,-346 972,-346 972,4 -4,4"/>
<!-- Node1 -->
<g id="node1" class="node"><title>Node1</title>
<polygon fill="#bfbfbf" stroke="black" points="0,-170.5 0,-189.5 116,-189.5 116,-170.5 0,-170.5"/>
<text text-anchor="middle" x="58" y="-177.5" font-family="Verdana" font-size="10.00">CElement::getParent</text>
</g>
<!-- Node2 -->
<g id="node2" class="node"><title>Node2</title>
<g id="a_node2"><a xlink:href="classCBitParameter.html#a5fcbaa6052e15453764a1a83da160c10" target="_top" xlink:title="CBitParameter::getBelonging\lBlockSize">
<polygon fill="white" stroke="black" points="160.5,-312 160.5,-342 315.5,-342 315.5,-312 160.5,-312"/>
<text text-anchor="start" x="168.5" y="-330" font-family="Verdana" font-size="10.00">CBitParameter::getBelonging</text>
<text text-anchor="middle" x="238" y="-319" font-family="Verdana" font-size="10.00">BlockSize</text>
</a>
</g>
</g>
<!-- Node1&#45;&gt;Node2 -->
<g id="edge1" class="edge"><title>Node1&#45;&gt;Node2</title>
<path fill="none" stroke="midnightblue" d="M68.2804,-198.685C82.5732,-225.546 112.508,-274.822 152,-302 157.575,-305.837 163.745,-309.093 170.14,-311.856"/>
<polygon fill="midnightblue" stroke="midnightblue" points="71.278,-196.862 63.5812,-189.581 65.0577,-200.073 71.278,-196.862"/>
</g>
<!-- Node3 -->
<g id="node3" class="node"><title>Node3</title>
<g id="a_node3"><a xlink:href="classCBitParameterType.html#a76b208c42677a4a7a90494f348924403" target="_top" xlink:title="CBitParameterType::\lfromXml">
<polygon fill="white" stroke="black" points="181.5,-263 181.5,-293 294.5,-293 294.5,-263 181.5,-263"/>
<text text-anchor="start" x="189.5" y="-281" font-family="Verdana" font-size="10.00">CBitParameterType::</text>
<text text-anchor="middle" x="238" y="-270" font-family="Verdana" font-size="10.00">fromXml</text>
</a>
</g>
</g>
<!-- Node1&#45;&gt;Node3 -->
<g id="edge2" class="edge"><title>Node1&#45;&gt;Node3</title>
<path fill="none" stroke="midnightblue" d="M75.9675,-196.619C93.6205,-213.07 122.728,-237.917 152,-253 161.161,-257.72 171.35,-261.682 181.4,-264.96"/>
<polygon fill="midnightblue" stroke="midnightblue" points="78.3636,-194.068 68.7032,-189.717 73.5419,-199.143 78.3636,-194.068"/>
</g>
<!-- Node4 -->
<g id="node4" class="node"><title>Node4</title>
<g id="a_node4"><a xlink:href="classCComponentInstance.html#a1943a2510a8a326f0fedd9cc8f07b193" target="_top" xlink:title="CComponentInstance\l::fromXml">
<polygon fill="white" stroke="black" points="178,-214 178,-244 298,-244 298,-214 178,-214"/>
<text text-anchor="start" x="186" y="-232" font-family="Verdana" font-size="10.00">CComponentInstance</text>
<text text-anchor="middle" x="238" y="-221" font-family="Verdana" font-size="10.00">::fromXml</text>
</a>
</g>
</g>
<!-- Node1&#45;&gt;Node4 -->
<g id="edge3" class="edge"><title>Node1&#45;&gt;Node4</title>
<path fill="none" stroke="midnightblue" d="M103.6,-192.278C127.489,-198.854 157.115,-207.009 182.376,-213.963"/>
<polygon fill="midnightblue" stroke="midnightblue" points="104.313,-188.844 93.7427,-189.564 102.455,-195.593 104.313,-188.844"/>
</g>
<!-- Node5 -->
<g id="node5" class="node"><title>Node5</title>
<g id="a_node5"><a xlink:href="classCConfigurableElement.html#a78722d8443df22565bf41d01308368ab" target="_top" xlink:title="Get the list of all the ancestors that have a mapping. ">
<polygon fill="white" stroke="black" points="152.5,-98 152.5,-128 323.5,-128 323.5,-98 152.5,-98"/>
<text text-anchor="start" x="160.5" y="-116" font-family="Verdana" font-size="10.00">CConfigurableElement</text>
<text text-anchor="middle" x="238" y="-105" font-family="Verdana" font-size="10.00">::getListOfElementsWithMapping</text>
</a>
</g>
</g>
<!-- Node1&#45;&gt;Node5 -->
<g id="edge4" class="edge"><title>Node1&#45;&gt;Node5</title>
<path fill="none" stroke="midnightblue" d="M94.028,-166.815C123.669,-155.658 166.143,-139.671 197.091,-128.022"/>
<polygon fill="midnightblue" stroke="midnightblue" points="92.629,-163.602 84.5031,-170.401 95.095,-170.153 92.629,-163.602"/>
</g>
<!-- Node7 -->
<g id="node7" class="node"><title>Node7</title>
<g id="a_node7"><a xlink:href="classCConfigurableElement.html#ace18ab1044203825e43ce44126c9322d" target="_top" xlink:title="CConfigurableElement\l::getSyncer">
<polygon fill="white" stroke="black" points="176.5,-165 176.5,-195 299.5,-195 299.5,-165 176.5,-165"/>
<text text-anchor="start" x="184.5" y="-183" font-family="Verdana" font-size="10.00">CConfigurableElement</text>
<text text-anchor="middle" x="238" y="-172" font-family="Verdana" font-size="10.00">::getSyncer</text>
</a>
</g>
</g>
<!-- Node1&#45;&gt;Node7 -->
<g id="edge7" class="edge"><title>Node1&#45;&gt;Node7</title>
<path fill="none" stroke="midnightblue" d="M126.383,-180C142.83,-180 160.326,-180 176.433,-180"/>
<polygon fill="midnightblue" stroke="midnightblue" points="126.3,-176.5 116.3,-180 126.3,-183.5 126.3,-176.5"/>
</g>
<!-- Node13 -->
<g id="node13" class="node"><title>Node13</title>
<g id="a_node13"><a xlink:href="classCConfigurableElement.html#a1e30831c0d3ce07df6d0f6730ba04654" target="_top" xlink:title="CConfigurableElement\l::getBelongingSubsystem">
<polygon fill="white" stroke="black" points="168,-49 168,-79 308,-79 308,-49 168,-49"/>
<text text-anchor="start" x="176" y="-67" font-family="Verdana" font-size="10.00">CConfigurableElement</text>
<text text-anchor="middle" x="238" y="-56" font-family="Verdana" font-size="10.00">::getBelongingSubsystem</text>
</a>
</g>
</g>
<!-- Node1&#45;&gt;Node13 -->
<g id="edge13" class="edge"><title>Node1&#45;&gt;Node13</title>
<path fill="none" stroke="midnightblue" d="M72.2131,-162.317C88.6642,-141.529 118.69,-107.409 152,-88 157.829,-84.6032 164.166,-81.6651 170.663,-79.1284"/>
<polygon fill="midnightblue" stroke="midnightblue" points="69.368,-160.275 66.0237,-170.328 74.9073,-164.555 69.368,-160.275"/>
</g>
<!-- Node15 -->
<g id="node15" class="node"><title>Node15</title>
<g id="a_node15"><a xlink:href="classCXmlFileIncluderElement.html#a754298eb75aacfe300ed3942d51611aa" target="_top" xlink:title="CXmlFileIncluderElement\l::fromXml">
<polygon fill="white" stroke="black" points="171,-0 171,-30 305,-30 305,-0 171,-0"/>
<text text-anchor="start" x="179" y="-18" font-family="Verdana" font-size="10.00">CXmlFileIncluderElement</text>
<text text-anchor="middle" x="238" y="-7" font-family="Verdana" font-size="10.00">::fromXml</text>
</a>
</g>
</g>
<!-- Node1&#45;&gt;Node15 -->
<g id="edge16" class="edge"><title>Node1&#45;&gt;Node15</title>
<path fill="none" stroke="midnightblue" d="M66.3532,-160.952C79.0904,-130.506 108.171,-71.0539 152,-39 157.693,-34.8361 164.085,-31.3937 170.741,-28.548"/>
<polygon fill="midnightblue" stroke="midnightblue" points="63.0295,-159.836 62.5321,-170.419 69.5207,-162.456 63.0295,-159.836"/>
</g>
<!-- Node5&#45;&gt;Node5 -->
<g id="edge5" class="edge"><title>Node5&#45;&gt;Node5</title>
<path fill="none" stroke="midnightblue" d="M206.493,-138.598C210.799,-142.97 221.301,-146 238,-146 266.125,-146 276.672,-137.406 269.641,-128.275"/>
<polygon fill="midnightblue" stroke="midnightblue" points="209.989,-138.229 206.359,-128.275 202.989,-138.32 209.989,-138.229"/>
</g>
<!-- Node6 -->
<g id="node6" class="node"><title>Node6</title>
<g id="a_node6"><a xlink:href="classCParameterMgr.html#a00467972dcf35bd3036a536f5c328436" target="_top" xlink:title="Returns the element mapping corresponding to the path given in parameter. ">
<polygon fill="white" stroke="black" points="370,-95 370,-125 534,-125 534,-95 370,-95"/>
<text text-anchor="start" x="378" y="-113" font-family="Verdana" font-size="10.00">CParameterMgr::getParameter</text>
<text text-anchor="middle" x="452" y="-102" font-family="Verdana" font-size="10.00">Mapping</text>
</a>
</g>
</g>
<!-- Node5&#45;&gt;Node6 -->
<g id="edge6" class="edge"><title>Node5&#45;&gt;Node6</title>
<path fill="none" stroke="midnightblue" d="M333.767,-111.659C345.82,-111.488 358.068,-111.315 369.881,-111.148"/>
<polygon fill="midnightblue" stroke="midnightblue" points="333.651,-108.16 323.702,-111.801 333.751,-115.159 333.651,-108.16"/>
</g>
<!-- Node8 -->
<g id="node8" class="node"><title>Node8</title>
<g id="a_node8"><a xlink:href="classCConfigurableElement.html#a0b3d6d2477e5ea7c23905604fabdb7bf" target="_top" xlink:title="CConfigurableElement\l::fillSyncerSet">
<polygon fill="white" stroke="black" points="390.5,-165 390.5,-195 513.5,-195 513.5,-165 390.5,-165"/>
<text text-anchor="start" x="398.5" y="-183" font-family="Verdana" font-size="10.00">CConfigurableElement</text>
<text text-anchor="middle" x="452" y="-172" font-family="Verdana" font-size="10.00">::fillSyncerSet</text>
</a>
</g>
</g>
<!-- Node7&#45;&gt;Node8 -->
<g id="edge8" class="edge"><title>Node7&#45;&gt;Node8</title>
<path fill="none" stroke="midnightblue" d="M309.933,-180C335.966,-180 365.18,-180 390.24,-180"/>
<polygon fill="midnightblue" stroke="midnightblue" points="309.751,-176.5 299.751,-180 309.751,-183.5 309.751,-176.5"/>
</g>
<!-- Node9 -->
<g id="node9" class="node"><title>Node9</title>
<g id="a_node9"><a xlink:href="classCHardwareBackSynchronizer.html#ad06f7ec68fcd8ce9b878963a39300839" target="_top" xlink:title="CHardwareBackSynchronizer\l::CHardwareBackSynchronizer">
<polygon fill="white" stroke="black" points="596.5,-209 596.5,-239 757.5,-239 757.5,-209 596.5,-209"/>
<text text-anchor="start" x="604.5" y="-227" font-family="Verdana" font-size="10.00">CHardwareBackSynchronizer</text>
<text text-anchor="middle" x="677" y="-216" font-family="Verdana" font-size="10.00">::CHardwareBackSynchronizer</text>
</a>
</g>
</g>
<!-- Node8&#45;&gt;Node9 -->
<g id="edge9" class="edge"><title>Node8&#45;&gt;Node9</title>
<path fill="none" stroke="midnightblue" d="M523.494,-193.909C547.783,-198.702 575.088,-204.089 599.81,-208.967"/>
<polygon fill="midnightblue" stroke="midnightblue" points="524.13,-190.467 513.641,-191.965 522.774,-197.335 524.13,-190.467"/>
</g>
<!-- Node10 -->
<g id="node10" class="node"><title>Node10</title>
<g id="a_node10"><a xlink:href="classCParameterMgr.html#a3c23f1ef6dbe73de230fe429af194937" target="_top" xlink:title="CParameterMgr::sync">
<polygon fill="white" stroke="black" points="617.5,-170.5 617.5,-189.5 736.5,-189.5 736.5,-170.5 617.5,-170.5"/>
<text text-anchor="middle" x="677" y="-177.5" font-family="Verdana" font-size="10.00">CParameterMgr::sync</text>
</a>
</g>
</g>
<!-- Node8&#45;&gt;Node10 -->
<g id="edge10" class="edge"><title>Node8&#45;&gt;Node10</title>
<path fill="none" stroke="midnightblue" d="M523.673,-180C553.823,-180 588.594,-180 617.297,-180"/>
<polygon fill="midnightblue" stroke="midnightblue" points="523.641,-176.5 513.641,-180 523.641,-183.5 523.641,-176.5"/>
</g>
<!-- Node12 -->
<g id="node12" class="node"><title>Node12</title>
<g id="a_node12"><a xlink:href="classCSystemClass.html#ab71ea33fad4ce8978ad2577314146fec" target="_top" xlink:title="Look for subsystems that need to be resynchronized. ">
<polygon fill="white" stroke="black" points="580,-121 580,-151 774,-151 774,-121 580,-121"/>
<text text-anchor="start" x="588" y="-139" font-family="Verdana" font-size="10.00">CSystemClass::checkForSubsystems</text>
<text text-anchor="middle" x="677" y="-128" font-family="Verdana" font-size="10.00">ToResync</text>
</a>
</g>
</g>
<!-- Node8&#45;&gt;Node12 -->
<g id="edge12" class="edge"><title>Node8&#45;&gt;Node12</title>
<path fill="none" stroke="midnightblue" d="M523.494,-166.091C547.783,-161.298 575.088,-155.911 599.81,-151.033"/>
<polygon fill="midnightblue" stroke="midnightblue" points="522.774,-162.665 513.641,-168.035 524.13,-169.533 522.774,-162.665"/>
</g>
<!-- Node11 -->
<g id="node11" class="node"><title>Node11</title>
<g id="a_node11"><a xlink:href="classCParameterMgr.html#acdcc1016dc61898195e8855979803572" target="_top" xlink:title="Sync. ">
<polygon fill="white" stroke="black" points="810,-170.5 810,-189.5 968,-189.5 968,-170.5 810,-170.5"/>
<text text-anchor="middle" x="889" y="-177.5" font-family="Verdana" font-size="10.00">CParameterMgr::setAutoSync</text>
</a>
</g>
</g>
<!-- Node10&#45;&gt;Node11 -->
<g id="edge11" class="edge"><title>Node10&#45;&gt;Node11</title>
<path fill="none" stroke="midnightblue" d="M746.823,-180C767.022,-180 789.257,-180 809.986,-180"/>
<polygon fill="midnightblue" stroke="midnightblue" points="746.776,-176.5 736.776,-180 746.776,-183.5 746.776,-176.5"/>
</g>
<!-- Node13&#45;&gt;Node6 -->
<g id="edge14" class="edge"><title>Node13&#45;&gt;Node6</title>
<path fill="none" stroke="midnightblue" d="M317.929,-81.1261C338.836,-85.6626 361.249,-90.5257 381.608,-94.9432"/>
<polygon fill="midnightblue" stroke="midnightblue" points="318.638,-77.6986 308.123,-78.9985 317.154,-84.5394 318.638,-77.6986"/>
</g>
<!-- Node14 -->
<g id="node14" class="node"><title>Node14</title>
<g id="a_node14"><a xlink:href="classCSubsystemObject.html#ae18b34938c86c5eca33f8b5036404a7c" target="_top" xlink:title="CSubsystemObject::getSubsystem">
<polygon fill="white" stroke="black" points="360,-54.5 360,-73.5 544,-73.5 544,-54.5 360,-54.5"/>
<text text-anchor="middle" x="452" y="-61.5" font-family="Verdana" font-size="10.00">CSubsystemObject::getSubsystem</text>
</a>
</g>
</g>
<!-- Node13&#45;&gt;Node14 -->
<g id="edge15" class="edge"><title>Node13&#45;&gt;Node14</title>
<path fill="none" stroke="midnightblue" d="M318.365,-64C331.937,-64 346.132,-64 359.979,-64"/>
<polygon fill="midnightblue" stroke="midnightblue" points="318.123,-60.5001 308.123,-64 318.123,-67.5001 318.123,-60.5001"/>
</g>
</g>
</svg>
