<?xml version="1.0" encoding="UTF-8" standalone="no"?>
<!DOCTYPE svg PUBLIC "-//W3C//DTD SVG 1.1//EN"
 "http://www.w3.org/Graphics/SVG/1.1/DTD/svg11.dtd">
<!-- Generated by graphviz version 2.38.0 (20140413.2041)
 -->
<!-- Title: CBaseParameter::appendParameterPathToError Pages: 1 -->
<svg width="617pt" height="203pt"
 viewBox="0.00 0.00 617.00 203.00" xmlns="http://www.w3.org/2000/svg" xmlns:xlink="http://www.w3.org/1999/xlink">
<g id="graph0" class="graph" transform="scale(1 1) rotate(0) translate(4 199)">
<title>CBaseParameter::appendParameterPathToError</title>
<polygon fill="white" stroke="none" points="-4,4 -4,-199 613,-199 613,4 -4,4"/>
<!-- Node1 -->
<g id="node1" class="node"><title>Node1</title>
<polygon fill="#bfbfbf" stroke="black" points="0,-77 0,-107 190,-107 190,-77 0,-77"/>
<text text-anchor="start" x="8" y="-95" font-family="Verdana" font-size="10.00">CBaseParameter::appendParameter</text>
<text text-anchor="middle" x="95" y="-84" font-family="Verdana" font-size="10.00">PathToError</text>
</g>
<!-- Node2 -->
<g id="node2" class="node"><title>Node2</title>
<g id="a_node2"><a xlink:href="classCArrayParameter.html#a07b3af958a03b2295be159f69b22d42d" target="_top" xlink:title="CArrayParameter::accessValue">
<polygon fill="white" stroke="black" points="229.5,-175.5 229.5,-194.5 393.5,-194.5 393.5,-175.5 229.5,-175.5"/>
<text text-anchor="middle" x="311.5" y="-182.5" font-family="Verdana" font-size="10.00">CArrayParameter::accessValue</text>
</a>
</g>
</g>
<!-- Node1&#45;&gt;Node2 -->
<g id="edge1" class="edge"><title>Node1&#45;&gt;Node2</title>
<path fill="none" stroke="midnightblue" d="M126.497,-112.825C152.055,-129.41 190.037,-152.079 226,-166 235.676,-169.745 246.274,-172.852 256.595,-175.392"/>
<polygon fill="midnightblue" stroke="midnightblue" points="128.277,-109.807 117.998,-107.237 124.431,-115.656 128.277,-109.807"/>
</g>
<!-- Node3 -->
<g id="node3" class="node"><title>Node3</title>
<g id="a_node3"><a xlink:href="classCBaseParameter.html#a97e096908df72fa729a62c3f5c362ddd" target="_top" xlink:title="CBaseParameter::serialize\lXmlSettings">
<polygon fill="white" stroke="black" points="240,-126 240,-156 383,-156 383,-126 240,-126"/>
<text text-anchor="start" x="248" y="-144" font-family="Verdana" font-size="10.00">CBaseParameter::serialize</text>
<text text-anchor="middle" x="311.5" y="-133" font-family="Verdana" font-size="10.00">XmlSettings</text>
</a>
</g>
</g>
<!-- Node1&#45;&gt;Node3 -->
<g id="edge2" class="edge"><title>Node1&#45;&gt;Node3</title>
<path fill="none" stroke="midnightblue" d="M171.867,-109.331C195.682,-114.771 221.761,-120.729 244.81,-125.994"/>
<polygon fill="midnightblue" stroke="midnightblue" points="172.343,-105.85 161.815,-107.035 170.784,-112.674 172.343,-105.85"/>
</g>
<!-- Node4 -->
<g id="node4" class="node"><title>Node4</title>
<g id="a_node4"><a xlink:href="classCBaseParameter.html#a2b425561e193a3d54e7225d896a3d39b" target="_top" xlink:title="CBaseParameter::accessAs\lString">
<polygon fill="white" stroke="black" points="237,-77 237,-107 386,-107 386,-77 237,-77"/>
<text text-anchor="start" x="245" y="-95" font-family="Verdana" font-size="10.00">CBaseParameter::accessAs</text>
<text text-anchor="middle" x="311.5" y="-84" font-family="Verdana" font-size="10.00">String</text>
</a>
</g>
</g>
<!-- Node1&#45;&gt;Node4 -->
<g id="edge3" class="edge"><title>Node1&#45;&gt;Node4</title>
<path fill="none" stroke="midnightblue" d="M200.391,-92C212.694,-92 225.047,-92 236.802,-92"/>
<polygon fill="midnightblue" stroke="midnightblue" points="200.083,-88.5001 190.083,-92 200.083,-95.5001 200.083,-88.5001"/>
</g>
<!-- Node6 -->
<g id="node6" class="node"><title>Node6</title>
<g id="a_node6"><a xlink:href="classCBitParameter.html#a2e0ed93baec3479a9b92314818433a31" target="_top" xlink:title="Value access. ">
<polygon fill="white" stroke="black" points="433,-19.5 433,-38.5 609,-38.5 609,-19.5 433,-19.5"/>
<text text-anchor="middle" x="521" y="-26.5" font-family="Verdana" font-size="10.00">CBitParameter::accessAsBoolean</text>
</a>
</g>
</g>
<!-- Node1&#45;&gt;Node6 -->
<g id="edge5" class="edge"><title>Node1&#45;&gt;Node6</title>
<path fill="none" stroke="midnightblue" d="M184.042,-75.1223C198.057,-72.6157 212.411,-70.1543 226,-68 298.212,-56.5522 380.771,-45.8048 439.981,-38.5031"/>
<polygon fill="midnightblue" stroke="midnightblue" points="183.132,-71.7301 173.913,-76.9518 184.376,-78.6187 183.132,-71.7301"/>
</g>
<!-- Node7 -->
<g id="node7" class="node"><title>Node7</title>
<g id="a_node7"><a xlink:href="classCBitParameter.html#a6f4d06e327fb0b816c08e383177a82fc" target="_top" xlink:title="CBitParameter::accessAsInteger">
<polygon fill="white" stroke="black" points="226,-0.5 226,-19.5 397,-19.5 397,-0.5 226,-0.5"/>
<text text-anchor="middle" x="311.5" y="-7.5" font-family="Verdana" font-size="10.00">CBitParameter::accessAsInteger</text>
</a>
</g>
</g>
<!-- Node1&#45;&gt;Node7 -->
<g id="edge6" class="edge"><title>Node1&#45;&gt;Node7</title>
<path fill="none" stroke="midnightblue" d="M135.791,-72.4675C161.217,-60.4337 195.101,-45.2157 226,-34 240.909,-28.5884 257.65,-23.6128 272.274,-19.6121"/>
<polygon fill="midnightblue" stroke="midnightblue" points="134.002,-69.4431 126.484,-76.9086 137.017,-75.7607 134.002,-69.4431"/>
</g>
<!-- Node5 -->
<g id="node5" class="node"><title>Node5</title>
<g id="a_node5"><a xlink:href="classCBaseParameter.html#a4a9b3e3a2d1ea65a8dc7048559db8dc2" target="_top" xlink:title="CBaseParameter::accessValue">
<polygon fill="white" stroke="black" points="439.5,-82.5 439.5,-101.5 602.5,-101.5 602.5,-82.5 439.5,-82.5"/>
<text text-anchor="middle" x="521" y="-89.5" font-family="Verdana" font-size="10.00">CBaseParameter::accessValue</text>
</a>
</g>
</g>
<!-- Node4&#45;&gt;Node5 -->
<g id="edge4" class="edge"><title>Node4&#45;&gt;Node5</title>
<path fill="none" stroke="midnightblue" d="M396.465,-92C410.653,-92 425.353,-92 439.45,-92"/>
<polygon fill="midnightblue" stroke="midnightblue" points="396.241,-88.5001 386.241,-92 396.241,-95.5001 396.241,-88.5001"/>
</g>
<!-- Node7&#45;&gt;Node6 -->
<g id="edge7" class="edge"><title>Node7&#45;&gt;Node6</title>
<path fill="none" stroke="midnightblue" d="M407.192,-18.6706C415.75,-19.4542 424.391,-20.2454 432.879,-21.0227"/>
<polygon fill="midnightblue" stroke="midnightblue" points="407.475,-15.182 397.197,-17.7554 406.837,-22.1528 407.475,-15.182"/>
</g>
</g>
</svg>
