<?xml version="1.0" encoding="UTF-8" standalone="no"?>
<!DOCTYPE svg PUBLIC "-//W3C//DTD SVG 1.1//EN"
 "http://www.w3.org/Graphics/SVG/1.1/DTD/svg11.dtd">
<!-- Generated by graphviz version 2.38.0 (20140413.2041)
 -->
<!-- Title: Status::success Pages: 1 -->
<svg width="437pt" height="218pt"
 viewBox="0.00 0.00 437.00 218.00" xmlns="http://www.w3.org/2000/svg" xmlns:xlink="http://www.w3.org/1999/xlink">
<g id="graph0" class="graph" transform="scale(1 1) rotate(0) translate(4 214)">
<title>Status::success</title>
<polygon fill="white" stroke="none" points="-4,4 -4,-214 433,-214 433,4 -4,4"/>
<!-- Node1 -->
<g id="node1" class="node"><title>Node1</title>
<polygon fill="#bfbfbf" stroke="black" points="0,-95.5 0,-114.5 92,-114.5 92,-95.5 0,-95.5"/>
<text text-anchor="middle" x="46" y="-102.5" font-family="Verdana" font-size="10.00">Status::success</text>
</g>
<!-- Node2 -->
<g id="node2" class="node"><title>Node2</title>
<g id="a_node2"><a xlink:href="structPfwHandler__.html#affe94703ab48bd3ee5c78ac4fffc0b45" target="_top" xlink:title="PfwHandler_::createCriteria">
<polygon fill="white" stroke="black" points="128,-190.5 128,-209.5 274,-209.5 274,-190.5 128,-190.5"/>
<text text-anchor="middle" x="201" y="-197.5" font-family="Verdana" font-size="10.00">PfwHandler_::createCriteria</text>
</a>
</g>
</g>
<!-- Node1&#45;&gt;Node2 -->
<g id="edge1" class="edge"><title>Node1&#45;&gt;Node2</title>
<path fill="none" stroke="midnightblue" d="M60.8095,-122.234C75.6306,-139.593 100.746,-165.906 128,-181 135.012,-184.883 142.85,-188 150.704,-190.494"/>
<polygon fill="midnightblue" stroke="midnightblue" points="63.4806,-119.973 54.3963,-114.52 58.0978,-124.448 63.4806,-119.973"/>
</g>
<!-- Node3 -->
<g id="node3" class="node"><title>Node3</title>
<g id="a_node3"><a xlink:href="ParameterFramework_8h.html#a7e2da0cb4b2dad4fe639259c4a087feb" target="_top" xlink:title="Set a criterion value given its name and value. ">
<polygon fill="white" stroke="black" points="156.5,-152.5 156.5,-171.5 245.5,-171.5 245.5,-152.5 156.5,-152.5"/>
<text text-anchor="middle" x="201" y="-159.5" font-family="Verdana" font-size="10.00">pfwSetCriterion</text>
</a>
</g>
</g>
<!-- Node1&#45;&gt;Node3 -->
<g id="edge2" class="edge"><title>Node1&#45;&gt;Node3</title>
<path fill="none" stroke="midnightblue" d="M73.9587,-119.148C89.4719,-126.906 109.501,-136.282 128,-143 137.721,-146.53 148.398,-149.709 158.484,-152.412"/>
<polygon fill="midnightblue" stroke="midnightblue" points="75.438,-115.974 64.9372,-114.565 72.2675,-122.215 75.438,-115.974"/>
</g>
<!-- Node5 -->
<g id="node5" class="node"><title>Node5</title>
<g id="a_node5"><a xlink:href="ParameterFramework_8h.html#afe708ce766409bc0d82638cca172330a" target="_top" xlink:title="Get a criterion value given its name. ">
<polygon fill="white" stroke="black" points="156,-114.5 156,-133.5 246,-133.5 246,-114.5 156,-114.5"/>
<text text-anchor="middle" x="201" y="-121.5" font-family="Verdana" font-size="10.00">pfwGetCriterion</text>
</a>
</g>
</g>
<!-- Node1&#45;&gt;Node5 -->
<g id="edge4" class="edge"><title>Node1&#45;&gt;Node5</title>
<path fill="none" stroke="midnightblue" d="M102.221,-111.857C119.822,-114.043 139.055,-116.432 155.772,-118.508"/>
<polygon fill="midnightblue" stroke="midnightblue" points="102.433,-108.357 92.0775,-110.598 101.57,-115.304 102.433,-108.357"/>
</g>
<!-- Node6 -->
<g id="node6" class="node"><title>Node6</title>
<g id="a_node6"><a xlink:href="ParameterFramework_8h.html#a78db487e58935caf376608255d652caa" target="_top" xlink:title="Commit criteria change and change parameters according to the configurations. ">
<polygon fill="white" stroke="black" points="137,-76.5 137,-95.5 265,-95.5 265,-76.5 137,-76.5"/>
<text text-anchor="middle" x="201" y="-83.5" font-family="Verdana" font-size="10.00">pfwApplyConfigurations</text>
</a>
</g>
</g>
<!-- Node1&#45;&gt;Node6 -->
<g id="edge6" class="edge"><title>Node1&#45;&gt;Node6</title>
<path fill="none" stroke="midnightblue" d="M102.182,-98.1474C113.422,-96.7515 125.33,-95.2728 136.824,-93.8454"/>
<polygon fill="midnightblue" stroke="midnightblue" points="101.57,-94.6964 92.0775,-99.4021 102.433,-101.643 101.57,-94.6964"/>
</g>
<!-- Node7 -->
<g id="node7" class="node"><title>Node7</title>
<g id="a_node7"><a xlink:href="ParameterFramework_8h.html#a1c73add8fee0c519bfa18677d533ebd4" target="_top" xlink:title="Construct the handle to a parameter given its path. ">
<polygon fill="white" stroke="black" points="149,-38.5 149,-57.5 253,-57.5 253,-38.5 149,-38.5"/>
<text text-anchor="middle" x="201" y="-45.5" font-family="Verdana" font-size="10.00">pfwBindParameter</text>
</a>
</g>
</g>
<!-- Node1&#45;&gt;Node7 -->
<g id="edge8" class="edge"><title>Node1&#45;&gt;Node7</title>
<path fill="none" stroke="midnightblue" d="M73.9587,-90.8521C89.4719,-83.0942 109.501,-73.7177 128,-67 137.721,-63.4699 148.398,-60.2906 158.484,-57.5876"/>
<polygon fill="midnightblue" stroke="midnightblue" points="72.2675,-87.7854 64.9372,-95.4351 75.438,-94.0263 72.2675,-87.7854"/>
</g>
<!-- Node8 -->
<g id="node8" class="node"><title>Node8</title>
<g id="a_node8"><a xlink:href="ParameterFramework_8h.html#a7d998384abf12976a2bbb59bc0ba82e4" target="_top" xlink:title="Access the value of a previously bind string parameter. ">
<polygon fill="white" stroke="black" points="137,-0.5 137,-19.5 265,-19.5 265,-0.5 137,-0.5"/>
<text text-anchor="middle" x="201" y="-7.5" font-family="Verdana" font-size="10.00">pfwGetStringParameter</text>
</a>
</g>
</g>
<!-- Node1&#45;&gt;Node8 -->
<g id="edge10" class="edge"><title>Node1&#45;&gt;Node8</title>
<path fill="none" stroke="midnightblue" d="M60.8095,-87.7656C75.6306,-70.4066 100.746,-44.0942 128,-29 135.012,-25.1166 142.85,-21.9998 150.704,-19.5061"/>
<polygon fill="midnightblue" stroke="midnightblue" points="58.0978,-85.5524 54.3963,-95.4796 63.4806,-90.0275 58.0978,-85.5524"/>
</g>
<!-- Node4 -->
<g id="node4" class="node"><title>Node4</title>
<g id="a_node4"><a xlink:href="Test_8cpp.html#ae78f4780e83e5f2b9721a2d66c70fec9" target="_top" xlink:title="TEST_CASE_METHOD">
<polygon fill="white" stroke="black" points="310,-76.5 310,-95.5 429,-95.5 429,-76.5 310,-76.5"/>
<text text-anchor="middle" x="369.5" y="-83.5" font-family="Verdana" font-size="10.00">TEST_CASE_METHOD</text>
</a>
</g>
</g>
<!-- Node3&#45;&gt;Node4 -->
<g id="edge3" class="edge"><title>Node3&#45;&gt;Node4</title>
<path fill="none" stroke="midnightblue" d="M255.57,-149.691C261.872,-147.709 268.14,-145.48 274,-143 304.878,-129.931 337.7,-108.094 355.379,-95.5832"/>
<polygon fill="midnightblue" stroke="midnightblue" points="254.292,-146.419 245.691,-152.604 256.272,-153.133 254.292,-146.419"/>
</g>
<!-- Node5&#45;&gt;Node4 -->
<g id="edge5" class="edge"><title>Node5&#45;&gt;Node4</title>
<path fill="none" stroke="midnightblue" d="M253.809,-112.176C277.283,-106.818 304.665,-100.569 326.787,-95.5201"/>
<polygon fill="midnightblue" stroke="midnightblue" points="252.985,-108.774 244.015,-114.411 254.543,-115.598 252.985,-108.774"/>
</g>
<!-- Node6&#45;&gt;Node4 -->
<g id="edge7" class="edge"><title>Node6&#45;&gt;Node4</title>
<path fill="none" stroke="midnightblue" d="M275.464,-86C286.991,-86 298.773,-86 309.907,-86"/>
<polygon fill="midnightblue" stroke="midnightblue" points="275.422,-82.5001 265.421,-86 275.421,-89.5001 275.422,-82.5001"/>
</g>
<!-- Node7&#45;&gt;Node4 -->
<g id="edge9" class="edge"><title>Node7&#45;&gt;Node4</title>
<path fill="none" stroke="midnightblue" d="M253.809,-59.8243C277.283,-65.1816 304.665,-71.4311 326.787,-76.4799"/>
<polygon fill="midnightblue" stroke="midnightblue" points="254.543,-56.4019 244.015,-57.589 252.985,-63.2264 254.543,-56.4019"/>
</g>
<!-- Node8&#45;&gt;Node4 -->
<g id="edge11" class="edge"><title>Node8&#45;&gt;Node4</title>
<path fill="none" stroke="midnightblue" d="M255.822,-22.3882C262.039,-24.3507 268.218,-26.553 274,-29 304.878,-42.0687 337.7,-63.9061 355.379,-76.4168"/>
<polygon fill="midnightblue" stroke="midnightblue" points="256.653,-18.9843 246.071,-19.5011 254.666,-25.6962 256.653,-18.9843"/>
</g>
</g>
</svg>
