<?xml version="1.0" encoding="UTF-8" standalone="no"?>
<!DOCTYPE svg PUBLIC "-//W3C//DTD SVG 1.1//EN"
 "http://www.w3.org/Graphics/SVG/1.1/DTD/svg11.dtd">
<!-- Generated by graphviz version 2.38.0 (20140413.2041)
 -->
<!-- Title: CInstanceConfigurableElement::getTypeElement Pages: 1 -->
<svg width="599pt" height="720pt"
 viewBox="0.00 0.00 599.00 720.00" xmlns="http://www.w3.org/2000/svg" xmlns:xlink="http://www.w3.org/1999/xlink">
<g id="graph0" class="graph" transform="scale(1 1) rotate(0) translate(4 716)">
<title>CInstanceConfigurableElement::getTypeElement</title>
<polygon fill="white" stroke="none" points="-4,4 -4,-716 595,-716 595,4 -4,4"/>
<!-- Node1 -->
<g id="node1" class="node"><title>Node1</title>
<polygon fill="#bfbfbf" stroke="black" points="0,-343.5 0,-373.5 164,-373.5 164,-343.5 0,-343.5"/>
<text text-anchor="start" x="8" y="-361.5" font-family="Verdana" font-size="10.00">CInstanceConfigurableElement</text>
<text text-anchor="middle" x="82" y="-350.5" font-family="Verdana" font-size="10.00">::getTypeElement</text>
</g>
<!-- Node2 -->
<g id="node2" class="node"><title>Node2</title>
<g id="a_node2"><a xlink:href="classCArrayParameter.html#a92c36813ec9f475880d47409c01e52db" target="_top" xlink:title="CArrayParameter::setDefault\lValues">
<polygon fill="white" stroke="black" points="431.5,-681.5 431.5,-711.5 586.5,-711.5 586.5,-681.5 431.5,-681.5"/>
<text text-anchor="start" x="439.5" y="-699.5" font-family="Verdana" font-size="10.00">CArrayParameter::setDefault</text>
<text text-anchor="middle" x="509" y="-688.5" font-family="Verdana" font-size="10.00">Values</text>
</a>
</g>
</g>
<!-- Node1&#45;&gt;Node2 -->
<g id="edge1" class="edge"><title>Node1&#45;&gt;Node2</title>
<path fill="none" stroke="midnightblue" d="M86.6266,-383.664C95.6117,-436.458 123.952,-559.131 200,-622.5 265.063,-676.716 363.305,-692.482 431.263,-696.439"/>
<polygon fill="midnightblue" stroke="midnightblue" points="90.0364,-382.822 84.9928,-373.505 83.1252,-383.934 90.0364,-382.822"/>
</g>
<!-- Node3 -->
<g id="node3" class="node"><title>Node3</title>
<g id="a_node3"><a xlink:href="classCBaseParameter.html#a0fe540f46e1b69858e68b72fd7d383a8" target="_top" xlink:title="CBaseParameter::toXml">
<polygon fill="white" stroke="black" points="230,-518 230,-537 361,-537 361,-518 230,-518"/>
<text text-anchor="middle" x="295.5" y="-525" font-family="Verdana" font-size="10.00">CBaseParameter::toXml</text>
</a>
</g>
</g>
<!-- Node1&#45;&gt;Node3 -->
<g id="edge2" class="edge"><title>Node1&#45;&gt;Node3</title>
<path fill="none" stroke="midnightblue" d="M94.9195,-382.962C112.796,-416.888 149.877,-477.535 200,-508.5 208.969,-514.041 219.247,-518.006 229.646,-520.834"/>
<polygon fill="midnightblue" stroke="midnightblue" points="97.8723,-381.049 90.1929,-373.75 91.6443,-384.245 97.8723,-381.049"/>
</g>
<!-- Node4 -->
<g id="node4" class="node"><title>Node4</title>
<g id="a_node4"><a xlink:href="classCBitParameter.html#a830225eeed4e53e72bcd04bb62a2e8fb" target="_top" xlink:title="Value access. ">
<polygon fill="white" stroke="black" points="233,-480 233,-499 358,-499 358,-480 233,-480"/>
<text text-anchor="middle" x="295.5" y="-487" font-family="Verdana" font-size="10.00">CBitParameter::access</text>
</a>
</g>
</g>
<!-- Node1&#45;&gt;Node4 -->
<g id="edge3" class="edge"><title>Node1&#45;&gt;Node4</title>
<path fill="none" stroke="midnightblue" d="M100.455,-381.77C121.215,-407.678 158.342,-448.76 200,-470.5 210.088,-475.765 221.485,-479.573 232.783,-482.328"/>
<polygon fill="midnightblue" stroke="midnightblue" points="102.985,-379.323 94.0592,-373.615 97.4767,-383.643 102.985,-379.323"/>
</g>
<!-- Node5 -->
<g id="node5" class="node"><title>Node5</title>
<g id="a_node5"><a xlink:href="classCBitParameter.html#a0527dce697f0e4bda7daec7055f5f9de" target="_top" xlink:title="CBitParameter::merge">
<polygon fill="white" stroke="black" points="233.5,-442 233.5,-461 357.5,-461 357.5,-442 233.5,-442"/>
<text text-anchor="middle" x="295.5" y="-449" font-family="Verdana" font-size="10.00">CBitParameter::merge</text>
</a>
</g>
</g>
<!-- Node1&#45;&gt;Node5 -->
<g id="edge4" class="edge"><title>Node1&#45;&gt;Node5</title>
<path fill="none" stroke="midnightblue" d="M110.726,-379.711C133.535,-396.166 167.314,-418.324 200,-431.5 210.654,-435.795 222.373,-439.223 233.823,-441.941"/>
<polygon fill="midnightblue" stroke="midnightblue" points="112.681,-376.804 102.547,-373.714 108.542,-382.449 112.681,-376.804"/>
</g>
<!-- Node6 -->
<g id="node6" class="node"><title>Node6</title>
<g id="a_node6"><a xlink:href="classCBitParameterBlock.html#a53ab74abef6085b354322affebd7072c" target="_top" xlink:title="CBitParameterBlock\l::getSize">
<polygon fill="white" stroke="black" points="239.5,-392.5 239.5,-422.5 351.5,-422.5 351.5,-392.5 239.5,-392.5"/>
<text text-anchor="start" x="247.5" y="-410.5" font-family="Verdana" font-size="10.00">CBitParameterBlock</text>
<text text-anchor="middle" x="295.5" y="-399.5" font-family="Verdana" font-size="10.00">::getSize</text>
</a>
</g>
</g>
<!-- Node1&#45;&gt;Node6 -->
<g id="edge5" class="edge"><title>Node1&#45;&gt;Node6</title>
<path fill="none" stroke="midnightblue" d="M157.659,-375.797C184.565,-382.03 214.418,-388.947 239.357,-394.725"/>
<polygon fill="midnightblue" stroke="midnightblue" points="158.426,-372.382 147.894,-373.535 156.846,-379.201 158.426,-372.382"/>
</g>
<!-- Node9 -->
<g id="node9" class="node"><title>Node9</title>
<g id="a_node9"><a xlink:href="classCInstanceConfigurableElement.html#a73aace151a51fbd2a2c02bfd83b24f59" target="_top" xlink:title="Get the value associated to a mapping key in the object&#39;s mapping. ">
<polygon fill="white" stroke="black" points="213.5,-343.5 213.5,-373.5 377.5,-373.5 377.5,-343.5 213.5,-343.5"/>
<text text-anchor="start" x="221.5" y="-361.5" font-family="Verdana" font-size="10.00">CInstanceConfigurableElement</text>
<text text-anchor="middle" x="295.5" y="-350.5" font-family="Verdana" font-size="10.00">::getMappingData</text>
</a>
</g>
</g>
<!-- Node1&#45;&gt;Node9 -->
<g id="edge8" class="edge"><title>Node1&#45;&gt;Node9</title>
<path fill="none" stroke="midnightblue" d="M174.432,-358.5C187.328,-358.5 200.513,-358.5 213.201,-358.5"/>
<polygon fill="midnightblue" stroke="midnightblue" points="174.167,-355 164.167,-358.5 174.167,-362 174.167,-355"/>
</g>
<!-- Node10 -->
<g id="node10" class="node"><title>Node10</title>
<g id="a_node10"><a xlink:href="classCInstanceConfigurableElement.html#ab64a2df11be985c8f1deecbf26681594" target="_top" xlink:title="Returns the mapping data associated to the type element of the current InstanceConfigurableElement, as a formatted std::string. ">
<polygon fill="white" stroke="black" points="213.5,-294.5 213.5,-324.5 377.5,-324.5 377.5,-294.5 213.5,-294.5"/>
<text text-anchor="start" x="221.5" y="-312.5" font-family="Verdana" font-size="10.00">CInstanceConfigurableElement</text>
<text text-anchor="middle" x="295.5" y="-301.5" font-family="Verdana" font-size="10.00">::getFormattedMapping</text>
</a>
</g>
</g>
<!-- Node1&#45;&gt;Node10 -->
<g id="edge9" class="edge"><title>Node1&#45;&gt;Node10</title>
<path fill="none" stroke="midnightblue" d="M157.806,-341.169C181.288,-335.729 207.002,-329.771 229.728,-324.506"/>
<polygon fill="midnightblue" stroke="midnightblue" points="156.846,-337.799 147.894,-343.465 158.426,-344.618 156.846,-337.799"/>
</g>
<!-- Node11 -->
<g id="node11" class="node"><title>Node11</title>
<g id="a_node11"><a xlink:href="classCInstanceConfigurableElement.html#a43d2ce5dbc487aa8de02d39af1b1c2d3" target="_top" xlink:title="CInstanceConfigurableElement::map">
<polygon fill="white" stroke="black" points="200,-238 200,-257 391,-257 391,-238 200,-238"/>
<text text-anchor="middle" x="295.5" y="-245" font-family="Verdana" font-size="10.00">CInstanceConfigurableElement::map</text>
</a>
</g>
</g>
<!-- Node1&#45;&gt;Node11 -->
<g id="edge10" class="edge"><title>Node1&#45;&gt;Node11</title>
<path fill="none" stroke="midnightblue" d="M112.6,-337.552C135.715,-321.75 169.006,-300.188 200,-284.5 221.379,-273.679 246.713,-263.912 265.767,-257.135"/>
<polygon fill="midnightblue" stroke="midnightblue" points="110.509,-334.743 104.265,-343.302 114.484,-340.505 110.509,-334.743"/>
</g>
<!-- Node12 -->
<g id="node12" class="node"><title>Node12</title>
<g id="a_node12"><a xlink:href="classCInstanceConfigurableElement.html#abc77a2dd814b6696ce9c0a9a6e8af7a7" target="_top" xlink:title="Get the list of all the ancestors that have a mapping. ">
<polygon fill="white" stroke="black" points="210,-188.5 210,-218.5 381,-218.5 381,-188.5 210,-188.5"/>
<text text-anchor="start" x="218" y="-206.5" font-family="Verdana" font-size="10.00">CInstanceConfigurableElement</text>
<text text-anchor="middle" x="295.5" y="-195.5" font-family="Verdana" font-size="10.00">::getListOfElementsWithMapping</text>
</a>
</g>
</g>
<!-- Node1&#45;&gt;Node12 -->
<g id="edge12" class="edge"><title>Node1&#45;&gt;Node12</title>
<path fill="none" stroke="midnightblue" d="M97.7522,-335.047C117.458,-305.677 155.146,-255.896 200,-228.5 206.372,-224.608 213.346,-221.315 220.526,-218.531"/>
<polygon fill="midnightblue" stroke="midnightblue" points="94.7912,-333.18 92.2257,-343.46 100.642,-337.024 94.7912,-333.18"/>
</g>
<!-- Node13 -->
<g id="node13" class="node"><title>Node13</title>
<g id="a_node13"><a xlink:href="classCInstanceConfigurableElement.html#a466b63cf9c344e256680c409c29ef9b6" target="_top" xlink:title="CInstanceConfigurableElement\l::toXml">
<polygon fill="white" stroke="black" points="213.5,-139.5 213.5,-169.5 377.5,-169.5 377.5,-139.5 213.5,-139.5"/>
<text text-anchor="start" x="221.5" y="-157.5" font-family="Verdana" font-size="10.00">CInstanceConfigurableElement</text>
<text text-anchor="middle" x="295.5" y="-146.5" font-family="Verdana" font-size="10.00">::toXml</text>
</a>
</g>
</g>
<!-- Node1&#45;&gt;Node13 -->
<g id="edge13" class="edge"><title>Node1&#45;&gt;Node13</title>
<path fill="none" stroke="midnightblue" d="M92.0789,-333.89C107.817,-294.749 143.953,-218.645 200,-178.5 204.816,-175.05 210.082,-172.095 215.585,-169.564"/>
<polygon fill="midnightblue" stroke="midnightblue" points="88.7248,-332.857 88.3488,-343.446 95.2456,-335.403 88.7248,-332.857"/>
</g>
<!-- Node14 -->
<g id="node14" class="node"><title>Node14</title>
<g id="a_node14"><a xlink:href="classCParameter.html#a7e66c668b2fabb20c8659c21423f4a29" target="_top" xlink:title="CParameter::handleValueSpace\lAttribute">
<polygon fill="white" stroke="black" points="211.5,-90.5 211.5,-120.5 379.5,-120.5 379.5,-90.5 211.5,-90.5"/>
<text text-anchor="start" x="219.5" y="-108.5" font-family="Verdana" font-size="10.00">CParameter::handleValueSpace</text>
<text text-anchor="middle" x="295.5" y="-97.5" font-family="Verdana" font-size="10.00">Attribute</text>
</a>
</g>
</g>
<!-- Node1&#45;&gt;Node14 -->
<g id="edge14" class="edge"><title>Node1&#45;&gt;Node14</title>
<path fill="none" stroke="midnightblue" d="M88.5396,-333.462C100.364,-286.079 132.664,-183.241 200,-129.5 204.234,-126.121 208.885,-123.212 213.785,-120.708"/>
<polygon fill="midnightblue" stroke="midnightblue" points="85.0668,-332.936 86.1424,-343.476 91.8744,-334.566 85.0668,-332.936"/>
</g>
<!-- Node17 -->
<g id="node17" class="node"><title>Node17</title>
<g id="a_node17"><a xlink:href="classCParameter.html#a8e739ef864f7e7f11b775305022bc499" target="_top" xlink:title="CParameter::getSize">
<polygon fill="white" stroke="black" points="237.5,-594 237.5,-613 353.5,-613 353.5,-594 237.5,-594"/>
<text text-anchor="middle" x="295.5" y="-601" font-family="Verdana" font-size="10.00">CParameter::getSize</text>
</a>
</g>
</g>
<!-- Node1&#45;&gt;Node17 -->
<g id="edge17" class="edge"><title>Node1&#45;&gt;Node17</title>
<path fill="none" stroke="midnightblue" d="M88.9873,-383.342C101.411,-429.386 134.461,-527.97 200,-579.5 210.645,-587.87 223.866,-593.352 237.012,-596.935"/>
<polygon fill="midnightblue" stroke="midnightblue" points="92.355,-382.385 86.454,-373.586 85.5797,-384.144 92.355,-382.385"/>
</g>
<!-- Node21 -->
<g id="node21" class="node"><title>Node21</title>
<g id="a_node21"><a xlink:href="classCParameter.html#a26fa5e3c97be1577ad15d04295ada708" target="_top" xlink:title="CParameter::setDefaultValues">
<polygon fill="white" stroke="black" points="428.5,-518 428.5,-537 589.5,-537 589.5,-518 428.5,-518"/>
<text text-anchor="middle" x="509" y="-525" font-family="Verdana" font-size="10.00">CParameter::setDefaultValues</text>
</a>
</g>
</g>
<!-- Node1&#45;&gt;Node21 -->
<g id="edge23" class="edge"><title>Node1&#45;&gt;Node21</title>
<path fill="none" stroke="midnightblue" d="M89.8957,-383.463C103.151,-425.992 136.644,-511.306 200,-546.5 242.911,-570.337 382.208,-550.312 457.913,-537.006"/>
<polygon fill="midnightblue" stroke="midnightblue" points="93.1735,-382.208 86.956,-373.629 86.4667,-384.212 93.1735,-382.208"/>
</g>
<!-- Node22 -->
<g id="node22" class="node"><title>Node22</title>
<g id="a_node22"><a xlink:href="classCStringParameter.html#af4bab1c1d9a9c32f7b0018cdfa1c9881" target="_top" xlink:title="CStringParameter::getSize">
<polygon fill="white" stroke="black" points="223.5,-50 223.5,-69 367.5,-69 367.5,-50 223.5,-50"/>
<text text-anchor="middle" x="295.5" y="-57" font-family="Verdana" font-size="10.00">CStringParameter::getSize</text>
</a>
</g>
</g>
<!-- Node1&#45;&gt;Node22 -->
<g id="edge24" class="edge"><title>Node1&#45;&gt;Node22</title>
<path fill="none" stroke="midnightblue" d="M85.8947,-333.404C93.6193,-278.509 119.914,-147.349 200,-80.5 206.838,-74.792 214.895,-70.5474 223.374,-67.4049"/>
<polygon fill="midnightblue" stroke="midnightblue" points="82.424,-332.952 84.587,-343.324 89.364,-333.867 82.424,-332.952"/>
</g>
<!-- Node25 -->
<g id="node25" class="node"><title>Node25</title>
<g id="a_node25"><a xlink:href="classCSubsystemObject.html#a754574ad36ea1f8ef4bb9f41be6030a6" target="_top" xlink:title="Conversion of int8, int16, int32 to int (taking care of sign extension) ">
<polygon fill="white" stroke="black" points="222.5,-0.5 222.5,-30.5 368.5,-30.5 368.5,-0.5 222.5,-0.5"/>
<text text-anchor="start" x="230.5" y="-18.5" font-family="Verdana" font-size="10.00">CSubsystemObject::toPlain</text>
<text text-anchor="middle" x="295.5" y="-7.5" font-family="Verdana" font-size="10.00">Integer</text>
</a>
</g>
</g>
<!-- Node1&#45;&gt;Node25 -->
<g id="edge27" class="edge"><title>Node1&#45;&gt;Node25</title>
<path fill="none" stroke="midnightblue" d="M84.6592,-333.059C89.9928,-272.843 111.948,-120.647 200,-40.5 206.401,-34.674 214.001,-30.1771 222.07,-26.711"/>
<polygon fill="midnightblue" stroke="midnightblue" points="81.1571,-332.945 83.8445,-343.194 88.1346,-333.506 81.1571,-332.945"/>
</g>
<!-- Node7 -->
<g id="node7" class="node"><title>Node7</title>
<g id="a_node7"><a xlink:href="classCBitParameterBlock.html#a2150ec48ecd90423aa42a47c49543191" target="_top" xlink:title="CBitParameterBlock\l::getFootPrint">
<polygon fill="white" stroke="black" points="453,-416.5 453,-446.5 565,-446.5 565,-416.5 453,-416.5"/>
<text text-anchor="start" x="461" y="-434.5" font-family="Verdana" font-size="10.00">CBitParameterBlock</text>
<text text-anchor="middle" x="509" y="-423.5" font-family="Verdana" font-size="10.00">::getFootPrint</text>
</a>
</g>
</g>
<!-- Node6&#45;&gt;Node7 -->
<g id="edge6" class="edge"><title>Node6&#45;&gt;Node7</title>
<path fill="none" stroke="midnightblue" d="M361.632,-414.891C390.855,-418.207 424.959,-422.077 452.891,-425.247"/>
<polygon fill="midnightblue" stroke="midnightblue" points="361.848,-411.393 351.517,-413.743 361.059,-418.348 361.848,-411.393"/>
</g>
<!-- Node8 -->
<g id="node8" class="node"><title>Node8</title>
<g id="a_node8"><a xlink:href="classCBitParameterBlock.html#a74485c7734eb44648b1182cf8e884d40" target="_top" xlink:title="CBitParameterBlock\l::setDefaultValues">
<polygon fill="white" stroke="black" points="453,-367.5 453,-397.5 565,-397.5 565,-367.5 453,-367.5"/>
<text text-anchor="start" x="461" y="-385.5" font-family="Verdana" font-size="10.00">CBitParameterBlock</text>
<text text-anchor="middle" x="509" y="-374.5" font-family="Verdana" font-size="10.00">::setDefaultValues</text>
</a>
</g>
</g>
<!-- Node6&#45;&gt;Node8 -->
<g id="edge7" class="edge"><title>Node6&#45;&gt;Node8</title>
<path fill="none" stroke="midnightblue" d="M361.632,-399.801C390.855,-396.347 424.959,-392.316 452.891,-389.014"/>
<polygon fill="midnightblue" stroke="midnightblue" points="361.037,-396.347 351.517,-400.997 361.859,-403.299 361.037,-396.347"/>
</g>
<!-- Node11&#45;&gt;Node11 -->
<g id="edge11" class="edge"><title>Node11&#45;&gt;Node11</title>
<path fill="none" stroke="midnightblue" d="M255.849,-264.118C254.46,-270.356 267.677,-275.5 295.5,-275.5 333.387,-275.5 344.19,-265.961 327.911,-257.112"/>
<polygon fill="midnightblue" stroke="midnightblue" points="258.337,-266.581 263.089,-257.112 253.469,-261.551 258.337,-266.581"/>
</g>
<!-- Node15 -->
<g id="node15" class="node"><title>Node15</title>
<g id="a_node15"><a xlink:href="classCArrayParameter.html#a192ed81d047795b1823cab20337ad283" target="_top" xlink:title="CArrayParameter::serialize\lXmlSettings">
<polygon fill="white" stroke="black" points="437,-141.5 437,-171.5 581,-171.5 581,-141.5 437,-141.5"/>
<text text-anchor="start" x="445" y="-159.5" font-family="Verdana" font-size="10.00">CArrayParameter::serialize</text>
<text text-anchor="middle" x="509" y="-148.5" font-family="Verdana" font-size="10.00">XmlSettings</text>
</a>
</g>
</g>
<!-- Node14&#45;&gt;Node15 -->
<g id="edge15" class="edge"><title>Node14&#45;&gt;Node15</title>
<path fill="none" stroke="midnightblue" d="M368.631,-122.893C393.695,-128.937 421.572,-135.659 445.767,-141.494"/>
<polygon fill="midnightblue" stroke="midnightblue" points="369.355,-119.468 358.813,-120.526 367.714,-126.273 369.355,-119.468"/>
</g>
<!-- Node16 -->
<g id="node16" class="node"><title>Node16</title>
<g id="a_node16"><a xlink:href="classCParameter.html#a74e2c5c9292fcd85c6a78181ab865cfe" target="_top" xlink:title="CParameter::serializeXml\lSettings">
<polygon fill="white" stroke="black" points="440.5,-92.5 440.5,-122.5 577.5,-122.5 577.5,-92.5 440.5,-92.5"/>
<text text-anchor="start" x="448.5" y="-110.5" font-family="Verdana" font-size="10.00">CParameter::serializeXml</text>
<text text-anchor="middle" x="509" y="-99.5" font-family="Verdana" font-size="10.00">Settings</text>
</a>
</g>
</g>
<!-- Node14&#45;&gt;Node16 -->
<g id="edge16" class="edge"><title>Node14&#45;&gt;Node16</title>
<path fill="none" stroke="midnightblue" d="M390.243,-106.386C407.148,-106.546 424.467,-106.71 440.443,-106.861"/>
<polygon fill="midnightblue" stroke="midnightblue" points="389.819,-102.882 379.787,-106.288 389.753,-109.882 389.819,-102.882"/>
</g>
<!-- Node17&#45;&gt;Node2 -->
<g id="edge20" class="edge"><title>Node17&#45;&gt;Node2</title>
<path fill="none" stroke="midnightblue" d="M322.324,-617.938C354.135,-635.584 406.481,-664.132 427,-672.5 434.877,-675.712 443.342,-678.701 451.725,-681.402"/>
<polygon fill="midnightblue" stroke="midnightblue" points="323.995,-614.862 313.554,-613.061 320.592,-620.98 323.995,-614.862"/>
</g>
<!-- Node18 -->
<g id="node18" class="node"><title>Node18</title>
<g id="a_node18"><a xlink:href="classCArrayParameter.html#a7b1e06bd0fc4ed9aebdadcc3b3afa7d4" target="_top" xlink:title="CArrayParameter::getFoot\lPrint">
<polygon fill="white" stroke="black" points="438,-632.5 438,-662.5 580,-662.5 580,-632.5 438,-632.5"/>
<text text-anchor="start" x="446" y="-650.5" font-family="Verdana" font-size="10.00">CArrayParameter::getFoot</text>
<text text-anchor="middle" x="509" y="-639.5" font-family="Verdana" font-size="10.00">Print</text>
</a>
</g>
</g>
<!-- Node17&#45;&gt;Node18 -->
<g id="edge18" class="edge"><title>Node17&#45;&gt;Node18</title>
<path fill="none" stroke="midnightblue" d="M352.492,-615.148C378.602,-620.58 409.953,-627.103 437.645,-632.863"/>
<polygon fill="midnightblue" stroke="midnightblue" points="352.896,-611.658 342.392,-613.047 351.47,-618.511 352.896,-611.658"/>
</g>
<!-- Node19 -->
<g id="node19" class="node"><title>Node19</title>
<g id="a_node19"><a xlink:href="classCArrayParameter.html#a07b3af958a03b2295be159f69b22d42d" target="_top" xlink:title="CArrayParameter::accessValue">
<polygon fill="white" stroke="black" points="427,-594 427,-613 591,-613 591,-594 427,-594"/>
<text text-anchor="middle" x="509" y="-601" font-family="Verdana" font-size="10.00">CArrayParameter::accessValue</text>
</a>
</g>
</g>
<!-- Node17&#45;&gt;Node19 -->
<g id="edge19" class="edge"><title>Node17&#45;&gt;Node19</title>
<path fill="none" stroke="midnightblue" d="M363.988,-603.5C383.998,-603.5 406.121,-603.5 426.9,-603.5"/>
<polygon fill="midnightblue" stroke="midnightblue" points="363.735,-600 353.735,-603.5 363.735,-607 363.735,-600"/>
</g>
<!-- Node20 -->
<g id="node20" class="node"><title>Node20</title>
<g id="a_node20"><a xlink:href="classCParameter.html#ab1b32c17998875bab9b1deecfb76e67d" target="_top" xlink:title="CParameter::getFootPrint">
<polygon fill="white" stroke="black" points="440,-556 440,-575 578,-575 578,-556 440,-556"/>
<text text-anchor="middle" x="509" y="-563" font-family="Verdana" font-size="10.00">CParameter::getFootPrint</text>
</a>
</g>
</g>
<!-- Node17&#45;&gt;Node20 -->
<g id="edge21" class="edge"><title>Node17&#45;&gt;Node20</title>
<path fill="none" stroke="midnightblue" d="M359.655,-592.153C390,-586.701 425.964,-580.239 454.881,-575.044"/>
<polygon fill="midnightblue" stroke="midnightblue" points="358.821,-588.747 349.597,-593.96 360.059,-595.636 358.821,-588.747"/>
</g>
<!-- Node17&#45;&gt;Node21 -->
<g id="edge22" class="edge"><title>Node17&#45;&gt;Node21</title>
<path fill="none" stroke="midnightblue" d="M362.895,-591.091C372.623,-588.016 382.288,-584.207 391,-579.5 410.096,-569.183 407.81,-556.642 427,-546.5 434.279,-542.653 442.332,-539.577 450.454,-537.12"/>
<polygon fill="midnightblue" stroke="midnightblue" points="361.797,-587.766 353.179,-593.929 363.76,-594.485 361.797,-587.766"/>
</g>
<!-- Node23 -->
<g id="node23" class="node"><title>Node23</title>
<g id="a_node23"><a xlink:href="classCStringParameter.html#a11d3f70f1e4c7bd104adbbfde2f0358f" target="_top" xlink:title="CStringParameter::getFoot\lPrint">
<polygon fill="white" stroke="black" points="436.5,-43.5 436.5,-73.5 581.5,-73.5 581.5,-43.5 436.5,-43.5"/>
<text text-anchor="start" x="444.5" y="-61.5" font-family="Verdana" font-size="10.00">CStringParameter::getFoot</text>
<text text-anchor="middle" x="509" y="-50.5" font-family="Verdana" font-size="10.00">Print</text>
</a>
</g>
</g>
<!-- Node22&#45;&gt;Node23 -->
<g id="edge25" class="edge"><title>Node22&#45;&gt;Node23</title>
<path fill="none" stroke="midnightblue" d="M377.538,-59.1168C396.939,-59.0251 417.516,-58.9278 436.452,-58.8383"/>
<polygon fill="midnightblue" stroke="midnightblue" points="377.498,-55.6169 367.515,-59.1642 377.531,-62.6168 377.498,-55.6169"/>
</g>
<!-- Node24 -->
<g id="node24" class="node"><title>Node24</title>
<g id="a_node24"><a xlink:href="classCStringParameter.html#a67ccec1129a496f5ce7beeb3dd27b096" target="_top" xlink:title="CStringParameter::doSetValue">
<polygon fill="white" stroke="black" points="427.5,-5 427.5,-24 590.5,-24 590.5,-5 427.5,-5"/>
<text text-anchor="middle" x="509" y="-12" font-family="Verdana" font-size="10.00">CStringParameter::doSetValue</text>
</a>
</g>
</g>
<!-- Node22&#45;&gt;Node24 -->
<g id="edge26" class="edge"><title>Node22&#45;&gt;Node24</title>
<path fill="none" stroke="midnightblue" d="M351.806,-47.8139C364.672,-45.09 378.316,-42.1974 391,-39.5 414.974,-34.4018 441.705,-28.6919 463.558,-24.0174"/>
<polygon fill="midnightblue" stroke="midnightblue" points="350.746,-44.4606 341.688,-49.9552 352.195,-51.3089 350.746,-44.4606"/>
</g>
</g>
</svg>
