<?xml version="1.0" encoding="UTF-8" standalone="no"?>
<!DOCTYPE svg PUBLIC "-//W3C//DTD SVG 1.1//EN"
 "http://www.w3.org/Graphics/SVG/1.1/DTD/svg11.dtd">
<!-- Generated by graphviz version 2.38.0 (20140413.2041)
 -->
<!-- Title: CLogarithmicParameterAdaptation::fromXml Pages: 1 -->
<svg width="959pt" height="201pt"
 viewBox="0.00 0.00 959.00 201.31" xmlns="http://www.w3.org/2000/svg" xmlns:xlink="http://www.w3.org/1999/xlink">
<g id="graph0" class="graph" transform="scale(1 1) rotate(0) translate(4 197.314)">
<title>CLogarithmicParameterAdaptation::fromXml</title>
<polygon fill="white" stroke="none" points="-4,4 -4,-197.314 955,-197.314 955,4 -4,4"/>
<!-- Node1 -->
<g id="node1" class="node"><title>Node1</title>
<polygon fill="#bfbfbf" stroke="black" points="0,-120 0,-150 182,-150 182,-120 0,-120"/>
<text text-anchor="start" x="8" y="-138" font-family="Verdana" font-size="10.00">CLogarithmicParameterAdaptation</text>
<text text-anchor="middle" x="91" y="-127" font-family="Verdana" font-size="10.00">::fromXml</text>
</g>
<!-- Node2 -->
<g id="node2" class="node"><title>Node2</title>
<g id="a_node2"><a xlink:href="classCXmlElement.html#aacd4d202e3de66715641cc3bb89bd4b5" target="_top" xlink:title="CXmlElement::hasAttribute">
<polygon fill="white" stroke="black" points="805,-134.5 805,-153.5 951,-153.5 951,-134.5 805,-134.5"/>
<text text-anchor="middle" x="878" y="-141.5" font-family="Verdana" font-size="10.00">CXmlElement::hasAttribute</text>
</a>
</g>
</g>
<!-- Node1&#45;&gt;Node2 -->
<g id="edge1" class="edge"><title>Node1&#45;&gt;Node2</title>
<path fill="none" stroke="midnightblue" d="M121.37,-150.026C146.335,-161.906 183.513,-177.53 218,-184 309.342,-201.136 582.9,-192.146 769,-168 789.924,-165.285 812.777,-160.481 832.051,-155.881"/>
<polygon fill="midnightblue" stroke="midnightblue" points="832.891,-159.278 841.775,-153.505 831.23,-152.478 832.891,-159.278"/>
</g>
<!-- Node3 -->
<g id="node3" class="node"><title>Node3</title>
<g id="a_node3"><a xlink:href="classCXmlElement.html#ad50d5c78178e963fd6e4f6280a57baf3" target="_top" xlink:title="CXmlElement::getAttribute\lDouble">
<polygon fill="white" stroke="black" points="218,-145 218,-175 363,-175 363,-145 218,-145"/>
<text text-anchor="start" x="226" y="-163" font-family="Verdana" font-size="10.00">CXmlElement::getAttribute</text>
<text text-anchor="middle" x="290.5" y="-152" font-family="Verdana" font-size="10.00">Double</text>
</a>
</g>
</g>
<!-- Node1&#45;&gt;Node3 -->
<g id="edge2" class="edge"><title>Node1&#45;&gt;Node3</title>
<path fill="none" stroke="midnightblue" d="M182.081,-146.403C190.709,-147.495 199.427,-148.598 207.967,-149.679"/>
<polygon fill="midnightblue" stroke="midnightblue" points="207.534,-153.152 217.895,-150.936 208.413,-146.208 207.534,-153.152"/>
</g>
<!-- Node5 -->
<g id="node5" class="node"><title>Node5</title>
<g id="a_node5"><a xlink:href="classCXmlSerializingContext.html#a32535de3d5fb180f216d837ee7d5326d" target="_top" xlink:title="CXmlSerializingContext\l::setError">
<polygon fill="white" stroke="black" points="226.5,-96 226.5,-126 354.5,-126 354.5,-96 226.5,-96"/>
<text text-anchor="start" x="234.5" y="-114" font-family="Verdana" font-size="10.00">CXmlSerializingContext</text>
<text text-anchor="middle" x="290.5" y="-103" font-family="Verdana" font-size="10.00">::setError</text>
</a>
</g>
</g>
<!-- Node1&#45;&gt;Node5 -->
<g id="edge5" class="edge"><title>Node1&#45;&gt;Node5</title>
<path fill="none" stroke="midnightblue" d="M182.081,-124.053C193.531,-122.662 205.137,-121.252 216.279,-119.898"/>
<polygon fill="midnightblue" stroke="midnightblue" points="216.857,-123.353 226.362,-118.673 216.012,-116.404 216.857,-123.353"/>
</g>
<!-- Node6 -->
<g id="node6" class="node"><title>Node6</title>
<g id="a_node6"><a xlink:href="classCXmlElement.html#ac47c56a3cad8ac7d1fe7579e833227c5" target="_top" xlink:title="CXmlElement::getPath">
<polygon fill="white" stroke="black" points="228.5,-39.5 228.5,-58.5 352.5,-58.5 352.5,-39.5 228.5,-39.5"/>
<text text-anchor="middle" x="290.5" y="-46.5" font-family="Verdana" font-size="10.00">CXmlElement::getPath</text>
</a>
</g>
</g>
<!-- Node1&#45;&gt;Node6 -->
<g id="edge6" class="edge"><title>Node1&#45;&gt;Node6</title>
<path fill="none" stroke="midnightblue" d="M126.854,-119.823C164.003,-103.647 222.293,-78.2647 258.074,-62.6842"/>
<polygon fill="midnightblue" stroke="midnightblue" points="259.762,-65.7668 267.533,-58.5654 256.967,-59.3488 259.762,-65.7668"/>
</g>
<!-- Node4 -->
<g id="node4" class="node"><title>Node4</title>
<g id="a_node4"><a xlink:href="classCXmlElement.html#a4aacb946f656aab1e585e1aa8f63d4e2" target="_top" xlink:title="CXmlElement::getAttribute\lString">
<polygon fill="white" stroke="black" points="616.5,-129 616.5,-159 761.5,-159 761.5,-129 616.5,-129"/>
<text text-anchor="start" x="624.5" y="-147" font-family="Verdana" font-size="10.00">CXmlElement::getAttribute</text>
<text text-anchor="middle" x="689" y="-136" font-family="Verdana" font-size="10.00">String</text>
</a>
</g>
</g>
<!-- Node3&#45;&gt;Node4 -->
<g id="edge3" class="edge"><title>Node3&#45;&gt;Node4</title>
<path fill="none" stroke="midnightblue" d="M363.303,-157.103C431.687,-154.343 534.522,-150.193 606.075,-147.306"/>
<polygon fill="midnightblue" stroke="midnightblue" points="606.546,-150.79 616.397,-146.889 606.264,-143.796 606.546,-150.79"/>
</g>
<!-- Node4&#45;&gt;Node2 -->
<g id="edge4" class="edge"><title>Node4&#45;&gt;Node2</title>
<path fill="none" stroke="midnightblue" d="M761.764,-144C772.568,-144 783.781,-144 794.783,-144"/>
<polygon fill="midnightblue" stroke="midnightblue" points="794.81,-147.5 804.81,-144 794.81,-140.5 794.81,-147.5"/>
</g>
<!-- Node6&#45;&gt;Node2 -->
<g id="edge8" class="edge"><title>Node6&#45;&gt;Node2</title>
<path fill="none" stroke="midnightblue" d="M352.689,-40.3871C445.534,-29.7077 626.287,-18.3523 769,-67 805.589,-79.4725 840.632,-108.698 860.424,-127.341"/>
<polygon fill="midnightblue" stroke="midnightblue" points="858.076,-129.94 867.699,-134.373 862.941,-124.907 858.076,-129.94"/>
</g>
<!-- Node6&#45;&gt;Node6 -->
<g id="edge13" class="edge"><title>Node6&#45;&gt;Node6</title>
<path fill="none" stroke="midnightblue" d="M260.599,-58.7571C246.053,-67.5653 256.02,-77 290.5,-77 314.744,-77 326.869,-72.3356 326.875,-66.5043"/>
<polygon fill="midnightblue" stroke="midnightblue" points="329.499,-64.1862 320.401,-58.7571 324.128,-68.6749 329.499,-64.1862"/>
</g>
<!-- Node7 -->
<g id="node7" class="node"><title>Node7</title>
<g id="a_node7"><a xlink:href="classCXmlElement.html#ab2e750aaad2b93b4d875d04b624de1c4" target="_top" xlink:title="CXmlElement::getType">
<polygon fill="white" stroke="black" points="424,-0.5 424,-19.5 548,-19.5 548,-0.5 424,-0.5"/>
<text text-anchor="middle" x="486" y="-7.5" font-family="Verdana" font-size="10.00">CXmlElement::getType</text>
</a>
</g>
</g>
<!-- Node6&#45;&gt;Node7 -->
<g id="edge7" class="edge"><title>Node6&#45;&gt;Node7</title>
<path fill="none" stroke="midnightblue" d="M338.835,-39.4595C365.641,-34.0569 399.364,-27.26 427.661,-21.5567"/>
<polygon fill="midnightblue" stroke="midnightblue" points="428.707,-24.9163 437.818,-19.5095 427.324,-18.0543 428.707,-24.9163"/>
</g>
<!-- Node8 -->
<g id="node8" class="node"><title>Node8</title>
<g id="a_node8"><a xlink:href="classCXmlElement.html#a21b9cfd66e7cd6f33a889e099102ef89" target="_top" xlink:title="CXmlElement::getNameAttribute">
<polygon fill="white" stroke="black" points="399,-114.5 399,-133.5 573,-133.5 573,-114.5 399,-114.5"/>
<text text-anchor="middle" x="486" y="-121.5" font-family="Verdana" font-size="10.00">CXmlElement::getNameAttribute</text>
</a>
</g>
</g>
<!-- Node6&#45;&gt;Node8 -->
<g id="edge9" class="edge"><title>Node6&#45;&gt;Node8</title>
<path fill="none" stroke="midnightblue" d="M310.039,-58.5418C324.486,-65.9896 345.039,-76.6131 363,-86 379.034,-94.3797 382.015,-98.7704 399,-105 406.087,-107.599 413.639,-109.903 421.212,-111.927"/>
<polygon fill="midnightblue" stroke="midnightblue" points="420.592,-115.38 431.144,-114.43 422.303,-108.593 420.592,-115.38"/>
</g>
<!-- Node9 -->
<g id="node9" class="node"><title>Node9</title>
<g id="a_node9"><a xlink:href="classCXmlElement.html#a28a62e123c5042524a20eda9cc425d5f" target="_top" xlink:title="CXmlElement::getParentElement">
<polygon fill="white" stroke="black" points="399.5,-76.5 399.5,-95.5 572.5,-95.5 572.5,-76.5 399.5,-76.5"/>
<text text-anchor="middle" x="486" y="-83.5" font-family="Verdana" font-size="10.00">CXmlElement::getParentElement</text>
</a>
</g>
</g>
<!-- Node6&#45;&gt;Node9 -->
<g id="edge11" class="edge"><title>Node6&#45;&gt;Node9</title>
<path fill="none" stroke="midnightblue" d="M341.331,-58.5284C366.849,-63.4079 398.113,-69.386 424.953,-74.5182"/>
<polygon fill="midnightblue" stroke="midnightblue" points="424.522,-77.9992 435.002,-76.4396 425.837,-71.1237 424.522,-77.9992"/>
</g>
<!-- Node8&#45;&gt;Node4 -->
<g id="edge10" class="edge"><title>Node8&#45;&gt;Node4</title>
<path fill="none" stroke="midnightblue" d="M573.117,-132.569C584.018,-133.653 595.149,-134.761 605.983,-135.839"/>
<polygon fill="midnightblue" stroke="midnightblue" points="605.966,-139.355 616.263,-136.862 606.659,-132.389 605.966,-139.355"/>
</g>
<!-- Node10 -->
<g id="node10" class="node"><title>Node10</title>
<g id="a_node10"><a xlink:href="classCXmlElement.html#a3b230e1c8e92537da6a1a365dc1e71b2" target="_top" xlink:title="CXmlElement::setXmlElement">
<polygon fill="white" stroke="black" points="609,-76.5 609,-95.5 769,-95.5 769,-76.5 609,-76.5"/>
<text text-anchor="middle" x="689" y="-83.5" font-family="Verdana" font-size="10.00">CXmlElement::setXmlElement</text>
</a>
</g>
</g>
<!-- Node9&#45;&gt;Node10 -->
<g id="edge12" class="edge"><title>Node9&#45;&gt;Node10</title>
<path fill="none" stroke="midnightblue" d="M572.534,-86C581.212,-86 590.042,-86 598.758,-86"/>
<polygon fill="midnightblue" stroke="midnightblue" points="598.922,-89.5001 608.922,-86 598.922,-82.5001 598.922,-89.5001"/>
</g>
</g>
</svg>
