<?xml version="1.0" encoding="UTF-8" standalone="no"?>
<!DOCTYPE svg PUBLIC "-//W3C//DTD SVG 1.1//EN"
 "http://www.w3.org/Graphics/SVG/1.1/DTD/svg11.dtd">
<!-- Generated by graphviz version 2.38.0 (20140413.2041)
 -->
<!-- Title: CRemoteProcessorServer::CRemoteProcessorServer Pages: 1 -->
<svg width="384pt" height="63pt"
 viewBox="0.00 0.00 384.00 62.50" xmlns="http://www.w3.org/2000/svg" xmlns:xlink="http://www.w3.org/1999/xlink">
<g id="graph0" class="graph" transform="scale(1 1) rotate(0) translate(4 58.5)">
<title>CRemoteProcessorServer::CRemoteProcessorServer</title>
<polygon fill="white" stroke="none" points="-4,4 -4,-58.5 380,-58.5 380,4 -4,4"/>
<!-- Node1 -->
<g id="node1" class="node"><title>Node1</title>
<polygon fill="#bfbfbf" stroke="black" points="0,-6 0,-36 145,-36 145,-6 0,-6"/>
<text text-anchor="start" x="8" y="-24" font-family="Verdana" font-size="10.00">CRemoteProcessorServer</text>
<text text-anchor="middle" x="72.5" y="-13" font-family="Verdana" font-size="10.00">::CRemoteProcessorServer</text>
</g>
<!-- Node1&#45;&gt;Node1 -->
<g id="edge2" class="edge"><title>Node1&#45;&gt;Node1</title>
<path fill="none" stroke="midnightblue" d="M35.8963,-46.4579C40.4393,-51.179 52.6406,-54.5 72.5,-54.5 105.09,-54.5 117.056,-45.5566 108.4,-36.159"/>
<polygon fill="midnightblue" stroke="midnightblue" points="39.4101,-46.3744 36.6003,-36.159 32.4264,-45.897 39.4101,-46.3744"/>
</g>
<!-- Node2 -->
<g id="node2" class="node"><title>Node2</title>
<g id="a_node2"><a xlink:href="classBackgroundRemoteProcessorServer.html#a843f44a059fae8e93acc9ca75589531a" target="_top" xlink:title="BackgroundRemoteProcessor\lServer::BackgroundRemoteProcessor\lServer">
<polygon fill="white" stroke="black" points="181,-0.5 181,-41.5 376,-41.5 376,-0.5 181,-0.5"/>
<text text-anchor="start" x="189" y="-29.5" font-family="Verdana" font-size="10.00">BackgroundRemoteProcessor</text>
<text text-anchor="start" x="189" y="-18.5" font-family="Verdana" font-size="10.00">Server::BackgroundRemoteProcessor</text>
<text text-anchor="middle" x="278.5" y="-7.5" font-family="Verdana" font-size="10.00">Server</text>
</a>
</g>
</g>
<!-- Node1&#45;&gt;Node2 -->
<g id="edge1" class="edge"><title>Node1&#45;&gt;Node2</title>
<path fill="none" stroke="midnightblue" d="M155.319,-21C163.759,-21 172.391,-21 180.972,-21"/>
<polygon fill="midnightblue" stroke="midnightblue" points="155.136,-17.5001 145.136,-21 155.136,-24.5001 155.136,-17.5001"/>
</g>
</g>
</svg>
