<?xml version="1.0" encoding="UTF-8" standalone="no"?>
<!DOCTYPE svg PUBLIC "-//W3C//DTD SVG 1.1//EN"
 "http://www.w3.org/Graphics/SVG/1.1/DTD/svg11.dtd">
<!-- Generated by graphviz version 2.38.0 (20140413.2041)
 -->
<!-- Title: CParameterMgr::sync Pages: 1 -->
<svg width="659pt" height="145pt"
 viewBox="0.00 0.00 659.00 144.50" xmlns="http://www.w3.org/2000/svg" xmlns:xlink="http://www.w3.org/1999/xlink">
<g id="graph0" class="graph" transform="scale(1 1) rotate(0) translate(4 140.5)">
<title>CParameterMgr::sync</title>
<polygon fill="white" stroke="none" points="-4,4 -4,-140.5 655,-140.5 655,4 -4,4"/>
<!-- Node1 -->
<g id="node1" class="node"><title>Node1</title>
<polygon fill="#bfbfbf" stroke="black" points="0,-22.5 0,-41.5 119,-41.5 119,-22.5 0,-22.5"/>
<text text-anchor="middle" x="59.5" y="-29.5" font-family="Verdana" font-size="10.00">CParameterMgr::sync</text>
</g>
<!-- Node2 -->
<g id="node2" class="node"><title>Node2</title>
<g id="a_node2"><a xlink:href="classCConfigurableElement.html#a0b3d6d2477e5ea7c23905604fabdb7bf" target="_top" xlink:title="CConfigurableElement\l::fillSyncerSet">
<polygon fill="white" stroke="black" points="155,-39 155,-69 278,-69 278,-39 155,-39"/>
<text text-anchor="start" x="163" y="-57" font-family="Verdana" font-size="10.00">CConfigurableElement</text>
<text text-anchor="middle" x="216.5" y="-46" font-family="Verdana" font-size="10.00">::fillSyncerSet</text>
</a>
</g>
</g>
<!-- Node1&#45;&gt;Node2 -->
<g id="edge1" class="edge"><title>Node1&#45;&gt;Node2</title>
<path fill="none" stroke="midnightblue" d="M119.099,-40.3173C127.479,-41.5067 136.173,-42.7407 144.756,-43.9589"/>
<polygon fill="midnightblue" stroke="midnightblue" points="144.362,-47.4379 154.754,-45.378 145.345,-40.5074 144.362,-47.4379"/>
</g>
<!-- Node8 -->
<g id="node8" class="node"><title>Node8</title>
<g id="a_node8"><a xlink:href="classCSyncerSet.html#a6ee2b3a5edcccc64b8694df736312e4b" target="_top" xlink:title="CSyncerSet::sync">
<polygon fill="white" stroke="black" points="166,-0.5 166,-19.5 267,-19.5 267,-0.5 166,-0.5"/>
<text text-anchor="middle" x="216.5" y="-7.5" font-family="Verdana" font-size="10.00">CSyncerSet::sync</text>
</a>
</g>
</g>
<!-- Node1&#45;&gt;Node8 -->
<g id="edge8" class="edge"><title>Node1&#45;&gt;Node8</title>
<path fill="none" stroke="midnightblue" d="M119.099,-23.6827C131.155,-21.9716 143.86,-20.1683 155.949,-18.4524"/>
<polygon fill="midnightblue" stroke="midnightblue" points="156.522,-21.9062 165.931,-17.0356 155.538,-14.9757 156.522,-21.9062"/>
</g>
<!-- Node3 -->
<g id="node3" class="node"><title>Node3</title>
<g id="a_node3"><a xlink:href="classCConfigurableElement.html#ace18ab1044203825e43ce44126c9322d" target="_top" xlink:title="CConfigurableElement\l::getSyncer">
<polygon fill="white" stroke="black" points="334.5,-106 334.5,-136 457.5,-136 457.5,-106 334.5,-106"/>
<text text-anchor="start" x="342.5" y="-124" font-family="Verdana" font-size="10.00">CConfigurableElement</text>
<text text-anchor="middle" x="396" y="-113" font-family="Verdana" font-size="10.00">::getSyncer</text>
</a>
</g>
</g>
<!-- Node2&#45;&gt;Node3 -->
<g id="edge2" class="edge"><title>Node2&#45;&gt;Node3</title>
<path fill="none" stroke="midnightblue" d="M249.741,-69.1029C268.322,-77.536 292.242,-87.9356 314,-96 320.305,-98.3367 326.939,-100.636 333.584,-102.836"/>
<polygon fill="midnightblue" stroke="midnightblue" points="332.699,-106.228 343.291,-105.982 334.857,-99.5692 332.699,-106.228"/>
</g>
<!-- Node5 -->
<g id="node5" class="node"><title>Node5</title>
<g id="a_node5"><a xlink:href="classCConfigurableElement.html#a9f29ba1f8a319c22896deda2cf826e78" target="_top" xlink:title="CConfigurableElement\l::fillSyncerSetFromDescendant">
<polygon fill="white" stroke="black" points="314,-39 314,-69 478,-69 478,-39 314,-39"/>
<text text-anchor="start" x="322" y="-57" font-family="Verdana" font-size="10.00">CConfigurableElement</text>
<text text-anchor="middle" x="396" y="-46" font-family="Verdana" font-size="10.00">::fillSyncerSetFromDescendant</text>
</a>
</g>
</g>
<!-- Node2&#45;&gt;Node5 -->
<g id="edge4" class="edge"><title>Node2&#45;&gt;Node5</title>
<path fill="none" stroke="midnightblue" d="M278.089,-54C286.39,-54 295.058,-54 303.758,-54"/>
<polygon fill="midnightblue" stroke="midnightblue" points="303.965,-57.5001 313.965,-54 303.965,-50.5001 303.965,-57.5001"/>
</g>
<!-- Node4 -->
<g id="node4" class="node"><title>Node4</title>
<g id="a_node4"><a xlink:href="classCElement.html#a7987056bec3cbc71bed07cc88b060cf0" target="_top" xlink:title="CElement::getParent">
<polygon fill="white" stroke="black" points="524.5,-111.5 524.5,-130.5 640.5,-130.5 640.5,-111.5 524.5,-111.5"/>
<text text-anchor="middle" x="582.5" y="-118.5" font-family="Verdana" font-size="10.00">CElement::getParent</text>
</a>
</g>
</g>
<!-- Node3&#45;&gt;Node4 -->
<g id="edge3" class="edge"><title>Node3&#45;&gt;Node4</title>
<path fill="none" stroke="midnightblue" d="M457.668,-121C475.746,-121 495.664,-121 514.142,-121"/>
<polygon fill="midnightblue" stroke="midnightblue" points="514.239,-124.5 524.239,-121 514.239,-117.5 514.239,-124.5"/>
</g>
<!-- Node5&#45;&gt;Node5 -->
<g id="edge7" class="edge"><title>Node5&#45;&gt;Node5</title>
<path fill="none" stroke="midnightblue" d="M364.98,-69.159C357.5,-78.5566 367.84,-87.5 396,-87.5 413.16,-87.5 423.703,-84.179 427.628,-79.4579"/>
<polygon fill="midnightblue" stroke="midnightblue" points="431.104,-78.9352 427.02,-69.159 424.116,-79.348 431.104,-78.9352"/>
</g>
<!-- Node6 -->
<g id="node6" class="node"><title>Node6</title>
<g id="a_node6"><a xlink:href="classCElement.html#a58b6cdb5715497442fde6afa1e65f8e5" target="_top" xlink:title="CElement::getNbChildren">
<polygon fill="white" stroke="black" points="514,-59.5 514,-78.5 651,-78.5 651,-59.5 514,-59.5"/>
<text text-anchor="middle" x="582.5" y="-66.5" font-family="Verdana" font-size="10.00">CElement::getNbChildren</text>
</a>
</g>
</g>
<!-- Node5&#45;&gt;Node6 -->
<g id="edge5" class="edge"><title>Node5&#45;&gt;Node6</title>
<path fill="none" stroke="midnightblue" d="M478.193,-60.601C486.647,-61.2884 495.227,-61.9859 503.643,-62.6701"/>
<polygon fill="midnightblue" stroke="midnightblue" points="503.557,-66.1746 513.807,-63.4965 504.124,-59.1976 503.557,-66.1746"/>
</g>
<!-- Node7 -->
<g id="node7" class="node"><title>Node7</title>
<g id="a_node7"><a xlink:href="classCElement.html#a9bba10d2dc72821589a898e16ace9ae5" target="_top" xlink:title="Get a child element (const) ">
<polygon fill="white" stroke="black" points="528.5,-21.5 528.5,-40.5 636.5,-40.5 636.5,-21.5 528.5,-21.5"/>
<text text-anchor="middle" x="582.5" y="-28.5" font-family="Verdana" font-size="10.00">CElement::getChild</text>
</a>
</g>
</g>
<!-- Node5&#45;&gt;Node7 -->
<g id="edge6" class="edge"><title>Node5&#45;&gt;Node7</title>
<path fill="none" stroke="midnightblue" d="M478.193,-43.8784C491.619,-42.2047 505.362,-40.4914 518.263,-38.8833"/>
<polygon fill="midnightblue" stroke="midnightblue" points="518.915,-42.329 528.406,-37.6188 518.049,-35.3828 518.915,-42.329"/>
</g>
<!-- Node9 -->
<g id="node9" class="node"><title>Node9</title>
<g id="a_node9"><a xlink:href="classISyncer.html#a16844aac52fb0caf4aed4f68d4b038d9" target="_top" xlink:title="ISyncer::sync">
<polygon fill="white" stroke="black" points="356,-0.5 356,-19.5 436,-19.5 436,-0.5 356,-0.5"/>
<text text-anchor="middle" x="396" y="-7.5" font-family="Verdana" font-size="10.00">ISyncer::sync</text>
</a>
</g>
</g>
<!-- Node8&#45;&gt;Node9 -->
<g id="edge9" class="edge"><title>Node8&#45;&gt;Node9</title>
<path fill="none" stroke="midnightblue" d="M267.416,-10C291.91,-10 321.32,-10 345.727,-10"/>
<polygon fill="midnightblue" stroke="midnightblue" points="345.852,-13.5001 355.852,-10 345.852,-6.5001 345.852,-13.5001"/>
</g>
</g>
</svg>
