<?xml version="1.0" encoding="UTF-8" standalone="no"?>
<!DOCTYPE svg PUBLIC "-//W3C//DTD SVG 1.1//EN"
 "http://www.w3.org/Graphics/SVG/1.1/DTD/svg11.dtd">
<!-- Generated by graphviz version 2.38.0 (20140413.2041)
 -->
<!-- Title: CSelectionCriteria::listSelectionCriteria Pages: 1 -->
<svg width="830pt" height="214pt"
 viewBox="0.00 0.00 830.00 213.50" xmlns="http://www.w3.org/2000/svg" xmlns:xlink="http://www.w3.org/1999/xlink">
<g id="graph0" class="graph" transform="scale(1 1) rotate(0) translate(4 209.5)">
<title>CSelectionCriteria::listSelectionCriteria</title>
<polygon fill="white" stroke="none" points="-4,4 -4,-209.5 826,-209.5 826,4 -4,4"/>
<!-- Node1 -->
<g id="node1" class="node"><title>Node1</title>
<polygon fill="#bfbfbf" stroke="black" points="0,-122.5 0,-152.5 115,-152.5 115,-122.5 0,-122.5"/>
<text text-anchor="start" x="8" y="-140.5" font-family="Verdana" font-size="10.00">CSelectionCriteria</text>
<text text-anchor="middle" x="57.5" y="-129.5" font-family="Verdana" font-size="10.00">::listSelectionCriteria</text>
</g>
<!-- Node2 -->
<g id="node2" class="node"><title>Node2</title>
<g id="a_node2"><a xlink:href="classCSelectionCriteria.html#aa87e3488047e305e72d84d5aa0ed3e08" target="_top" xlink:title="CSelectionCriteria\l::getSelectionCriteriaDefinition">
<polygon fill="white" stroke="black" points="151,-147.5 151,-177.5 313,-177.5 313,-147.5 151,-147.5"/>
<text text-anchor="start" x="159" y="-165.5" font-family="Verdana" font-size="10.00">CSelectionCriteria</text>
<text text-anchor="middle" x="232" y="-154.5" font-family="Verdana" font-size="10.00">::getSelectionCriteriaDefinition</text>
</a>
</g>
</g>
<!-- Node1&#45;&gt;Node2 -->
<g id="edge1" class="edge"><title>Node1&#45;&gt;Node2</title>
<path fill="none" stroke="midnightblue" d="M115.461,-145.755C123.643,-146.941 132.224,-148.185 140.857,-149.436"/>
<polygon fill="midnightblue" stroke="midnightblue" points="140.597,-152.935 150.995,-150.905 141.601,-146.007 140.597,-152.935"/>
</g>
<!-- Node3 -->
<g id="node3" class="node"><title>Node3</title>
<g id="a_node3"><a xlink:href="classCSelectionCriteriaDefinition.html#a24f1eb22f90ddb42ee971bdfc5f99aa5" target="_top" xlink:title="CSelectionCriteriaDefinition\l::listSelectionCriteria">
<polygon fill="white" stroke="black" points="158.5,-98.5 158.5,-128.5 305.5,-128.5 305.5,-98.5 158.5,-98.5"/>
<text text-anchor="start" x="166.5" y="-116.5" font-family="Verdana" font-size="10.00">CSelectionCriteriaDefinition</text>
<text text-anchor="middle" x="232" y="-105.5" font-family="Verdana" font-size="10.00">::listSelectionCriteria</text>
</a>
</g>
</g>
<!-- Node1&#45;&gt;Node3 -->
<g id="edge2" class="edge"><title>Node1&#45;&gt;Node3</title>
<path fill="none" stroke="midnightblue" d="M115.461,-129.575C125.98,-128.111 137.158,-126.556 148.259,-125.012"/>
<polygon fill="midnightblue" stroke="midnightblue" points="148.989,-128.444 158.411,-123.599 148.024,-121.511 148.989,-128.444"/>
</g>
<!-- Node4 -->
<g id="node4" class="node"><title>Node4</title>
<g id="a_node4"><a xlink:href="classCSelectionCriterion.html#a10a460a1ee7b1a38b34ab8eb90ea74f9" target="_top" xlink:title="User request. ">
<polygon fill="white" stroke="black" points="349,-98.5 349,-128.5 492,-128.5 492,-98.5 349,-98.5"/>
<text text-anchor="start" x="357" y="-116.5" font-family="Verdana" font-size="10.00">CSelectionCriterion</text>
<text text-anchor="middle" x="420.5" y="-105.5" font-family="Verdana" font-size="10.00">::getFormattedDescription</text>
</a>
</g>
</g>
<!-- Node3&#45;&gt;Node4 -->
<g id="edge3" class="edge"><title>Node3&#45;&gt;Node4</title>
<path fill="none" stroke="midnightblue" d="M305.64,-113.5C316.524,-113.5 327.803,-113.5 338.842,-113.5"/>
<polygon fill="midnightblue" stroke="midnightblue" points="338.895,-117 348.895,-113.5 338.895,-110 338.895,-117"/>
</g>
<!-- Node5 -->
<g id="node5" class="node"><title>Node5</title>
<g id="a_node5"><a xlink:href="namespaceutility.html#afd9949bbd80a31bbdbc1aa57439c5d40" target="_top" xlink:title="Utility to underline. ">
<polygon fill="white" stroke="black" points="541,-186 541,-205 644,-205 644,-186 541,-186"/>
<text text-anchor="middle" x="592.5" y="-193" font-family="Verdana" font-size="10.00">utility::appendTitle</text>
</a>
</g>
</g>
<!-- Node4&#45;&gt;Node5 -->
<g id="edge4" class="edge"><title>Node4&#45;&gt;Node5</title>
<path fill="none" stroke="midnightblue" d="M443.502,-128.679C464.466,-142.61 497.298,-163.066 528,-176.5 533.139,-178.749 538.624,-180.83 544.136,-182.726"/>
<polygon fill="midnightblue" stroke="midnightblue" points="543.427,-186.176 554.019,-185.935 545.589,-179.518 543.427,-186.176"/>
</g>
<!-- Node6 -->
<g id="node6" class="node"><title>Node6</title>
<g id="a_node6"><a xlink:href="classCElement.html#a49581fb6412e29e932962acd82d52d6a" target="_top" xlink:title="CElement::getName">
<polygon fill="white" stroke="black" points="535.5,-148 535.5,-167 649.5,-167 649.5,-148 535.5,-148"/>
<text text-anchor="middle" x="592.5" y="-155" font-family="Verdana" font-size="10.00">CElement::getName</text>
</a>
</g>
</g>
<!-- Node4&#45;&gt;Node6 -->
<g id="edge5" class="edge"><title>Node4&#45;&gt;Node6</title>
<path fill="none" stroke="midnightblue" d="M479.529,-128.519C500.841,-134.035 524.676,-140.204 544.86,-145.428"/>
<polygon fill="midnightblue" stroke="midnightblue" points="544.189,-148.87 554.747,-147.988 545.943,-142.093 544.189,-148.87"/>
</g>
<!-- Node7 -->
<g id="node7" class="node"><title>Node7</title>
<g id="a_node7"><a xlink:href="classCSelectionCriterionType.html#a031d3104b102c648eb358b9fd5e275f5" target="_top" xlink:title="CSelectionCriterionType\l::isTypeInclusive">
<polygon fill="white" stroke="black" points="528,-98.5 528,-128.5 657,-128.5 657,-98.5 528,-98.5"/>
<text text-anchor="start" x="536" y="-116.5" font-family="Verdana" font-size="10.00">CSelectionCriterionType</text>
<text text-anchor="middle" x="592.5" y="-105.5" font-family="Verdana" font-size="10.00">::isTypeInclusive</text>
</a>
</g>
</g>
<!-- Node4&#45;&gt;Node7 -->
<g id="edge6" class="edge"><title>Node4&#45;&gt;Node7</title>
<path fill="none" stroke="midnightblue" d="M492.118,-113.5C500.55,-113.5 509.175,-113.5 517.65,-113.5"/>
<polygon fill="midnightblue" stroke="midnightblue" points="517.89,-117 527.89,-113.5 517.89,-110 517.89,-117"/>
</g>
<!-- Node8 -->
<g id="node8" class="node"><title>Node8</title>
<g id="a_node8"><a xlink:href="classCSelectionCriterionType.html#a31f9a40404c9564b2c54658a679db628" target="_top" xlink:title="CSelectionCriterionType\l::listPossibleValues">
<polygon fill="white" stroke="black" points="528,-49.5 528,-79.5 657,-79.5 657,-49.5 528,-49.5"/>
<text text-anchor="start" x="536" y="-67.5" font-family="Verdana" font-size="10.00">CSelectionCriterionType</text>
<text text-anchor="middle" x="592.5" y="-56.5" font-family="Verdana" font-size="10.00">::listPossibleValues</text>
</a>
</g>
</g>
<!-- Node4&#45;&gt;Node8 -->
<g id="edge7" class="edge"><title>Node4&#45;&gt;Node8</title>
<path fill="none" stroke="midnightblue" d="M473.893,-98.3986C491.507,-93.3215 511.323,-87.6098 529.598,-82.3423"/>
<polygon fill="midnightblue" stroke="midnightblue" points="530.641,-85.6843 539.28,-79.5516 528.702,-78.9582 530.641,-85.6843"/>
</g>
<!-- Node9 -->
<g id="node9" class="node"><title>Node9</title>
<g id="a_node9"><a xlink:href="classCSelectionCriterionType.html#a85a934c842efc58837ed014db7ccdb5d" target="_top" xlink:title="CSelectionCriterionType\l::getFormattedState">
<polygon fill="white" stroke="black" points="528,-0.5 528,-30.5 657,-30.5 657,-0.5 528,-0.5"/>
<text text-anchor="start" x="536" y="-18.5" font-family="Verdana" font-size="10.00">CSelectionCriterionType</text>
<text text-anchor="middle" x="592.5" y="-7.5" font-family="Verdana" font-size="10.00">::getFormattedState</text>
</a>
</g>
</g>
<!-- Node4&#45;&gt;Node9 -->
<g id="edge8" class="edge"><title>Node4&#45;&gt;Node9</title>
<path fill="none" stroke="midnightblue" d="M440.676,-98.38C461.375,-82.5415 495.726,-57.6307 528,-40.5 531.767,-38.5003 535.731,-36.5686 539.761,-34.7254"/>
<polygon fill="midnightblue" stroke="midnightblue" points="541.459,-37.803 549.224,-30.5946 538.659,-31.3875 541.459,-37.803"/>
</g>
<!-- Node10 -->
<g id="node10" class="node"><title>Node10</title>
<g id="a_node10"><a xlink:href="classCSelectionCriterionType.html#a2b3ecd30ad2e3e442a0c4ce0ca8ca05e" target="_top" xlink:title="CSelectionCriterionType\l::getLiteralValue">
<polygon fill="white" stroke="black" points="693,-0.5 693,-30.5 822,-30.5 822,-0.5 693,-0.5"/>
<text text-anchor="start" x="701" y="-18.5" font-family="Verdana" font-size="10.00">CSelectionCriterionType</text>
<text text-anchor="middle" x="757.5" y="-7.5" font-family="Verdana" font-size="10.00">::getLiteralValue</text>
</a>
</g>
</g>
<!-- Node9&#45;&gt;Node10 -->
<g id="edge9" class="edge"><title>Node9&#45;&gt;Node10</title>
<path fill="none" stroke="midnightblue" d="M657.454,-15.5C665.761,-15.5 674.322,-15.5 682.772,-15.5"/>
<polygon fill="midnightblue" stroke="midnightblue" points="682.998,-19.0001 692.998,-15.5 682.998,-12.0001 682.998,-19.0001"/>
</g>
</g>
</svg>
