<?xml version="1.0" encoding="UTF-8" standalone="no"?>
<!DOCTYPE svg PUBLIC "-//W3C//DTD SVG 1.1//EN"
 "http://www.w3.org/Graphics/SVG/1.1/DTD/svg11.dtd">
<!-- Generated by graphviz version 2.38.0 (20140413.2041)
 -->
<!-- Title: CConfigurableDomain::fromXml Pages: 1 -->
<svg width="676pt" height="200pt"
 viewBox="0.00 0.00 676.00 200.46" xmlns="http://www.w3.org/2000/svg" xmlns:xlink="http://www.w3.org/1999/xlink">
<g id="graph0" class="graph" transform="scale(1 1) rotate(0) translate(4 196.463)">
<title>CConfigurableDomain::fromXml</title>
<polygon fill="white" stroke="none" points="-4,4 -4,-196.463 672,-196.463 672,4 -4,4"/>
<!-- Node1 -->
<g id="node1" class="node"><title>Node1</title>
<polygon fill="#bfbfbf" stroke="black" points="0,-82.5 0,-112.5 121,-112.5 121,-82.5 0,-82.5"/>
<text text-anchor="start" x="8" y="-100.5" font-family="Verdana" font-size="10.00">CConfigurableDomain</text>
<text text-anchor="middle" x="60.5" y="-89.5" font-family="Verdana" font-size="10.00">::fromXml</text>
</g>
<!-- Node2 -->
<g id="node2" class="node"><title>Node2</title>
<g id="a_node2"><a xlink:href="classCXmlElement.html#aacd4d202e3de66715641cc3bb89bd4b5" target="_top" xlink:title="CXmlElement::hasAttribute">
<polygon fill="white" stroke="black" points="522,-154 522,-173 668,-173 668,-154 522,-154"/>
<text text-anchor="middle" x="595" y="-161" font-family="Verdana" font-size="10.00">CXmlElement::hasAttribute</text>
</a>
</g>
</g>
<!-- Node1&#45;&gt;Node2 -->
<g id="edge1" class="edge"><title>Node1&#45;&gt;Node2</title>
<path fill="none" stroke="midnightblue" d="M76.0054,-112.606C93.3931,-129.513 124.304,-155.924 157,-166.5 288.278,-208.963 453.569,-189.582 538.301,-174.795"/>
<polygon fill="midnightblue" stroke="midnightblue" points="539,-178.225 548.227,-173.018 537.767,-171.335 539,-178.225"/>
</g>
<!-- Node3 -->
<g id="node3" class="node"><title>Node3</title>
<g id="a_node3"><a xlink:href="classCXmlElement.html#a888b37c9e0fc336bd93de01d1a170bb6" target="_top" xlink:title="CXmlElement::getAttribute\lBoolean">
<polygon fill="white" stroke="black" points="158.5,-126.5 158.5,-156.5 303.5,-156.5 303.5,-126.5 158.5,-126.5"/>
<text text-anchor="start" x="166.5" y="-144.5" font-family="Verdana" font-size="10.00">CXmlElement::getAttribute</text>
<text text-anchor="middle" x="231" y="-133.5" font-family="Verdana" font-size="10.00">Boolean</text>
</a>
</g>
</g>
<!-- Node1&#45;&gt;Node3 -->
<g id="edge2" class="edge"><title>Node1&#45;&gt;Node3</title>
<path fill="none" stroke="midnightblue" d="M119.017,-112.519C133.038,-116.18 148.16,-120.129 162.595,-123.899"/>
<polygon fill="midnightblue" stroke="midnightblue" points="161.897,-127.334 172.456,-126.474 163.665,-120.561 161.897,-127.334"/>
</g>
<!-- Node4 -->
<g id="node4" class="node"><title>Node4</title>
<g id="a_node4"><a xlink:href="classCXmlElement.html#a4aacb946f656aab1e585e1aa8f63d4e2" target="_top" xlink:title="CXmlElement::getAttribute\lString">
<polygon fill="white" stroke="black" points="341,-126.5 341,-156.5 486,-156.5 486,-126.5 341,-126.5"/>
<text text-anchor="start" x="349" y="-144.5" font-family="Verdana" font-size="10.00">CXmlElement::getAttribute</text>
<text text-anchor="middle" x="413.5" y="-133.5" font-family="Verdana" font-size="10.00">String</text>
</a>
</g>
</g>
<!-- Node1&#45;&gt;Node4 -->
<g id="edge6" class="edge"><title>Node1&#45;&gt;Node4</title>
<path fill="none" stroke="midnightblue" d="M121.308,-100.112C170.764,-102.823 242.726,-108.037 305,-117.5 317.083,-119.336 329.834,-121.751 342.165,-124.342"/>
<polygon fill="midnightblue" stroke="midnightblue" points="341.431,-127.764 351.944,-126.45 342.906,-120.921 341.431,-127.764"/>
</g>
<!-- Node5 -->
<g id="node5" class="node"><title>Node5</title>
<g id="a_node5"><a xlink:href="classCElement.html#a9018d33125b066d6cd791659af95c6fe" target="_top" xlink:title="CElement::setName">
<polygon fill="white" stroke="black" points="174.5,-50 174.5,-69 287.5,-69 287.5,-50 174.5,-50"/>
<text text-anchor="middle" x="231" y="-57" font-family="Verdana" font-size="10.00">CElement::setName</text>
</a>
</g>
</g>
<!-- Node1&#45;&gt;Node5 -->
<g id="edge5" class="edge"><title>Node1&#45;&gt;Node5</title>
<path fill="none" stroke="midnightblue" d="M121.381,-83.9956C139.726,-79.8584 159.758,-75.3409 177.567,-71.3247"/>
<polygon fill="midnightblue" stroke="midnightblue" points="178.781,-74.6389 187.766,-69.0246 177.241,-67.8104 178.781,-74.6389"/>
</g>
<!-- Node6 -->
<g id="node6" class="node"><title>Node6</title>
<g id="a_node6"><a xlink:href="classCXmlDomainImportContext.html#a6131d7195b5c80cabcd9a0f0be5776bd" target="_top" xlink:title="CXmlDomainImportContext\l::autoValidationRequired">
<polygon fill="white" stroke="black" points="157,-0.5 157,-30.5 305,-30.5 305,-0.5 157,-0.5"/>
<text text-anchor="start" x="165" y="-18.5" font-family="Verdana" font-size="10.00">CXmlDomainImportContext</text>
<text text-anchor="middle" x="231" y="-7.5" font-family="Verdana" font-size="10.00">::autoValidationRequired</text>
</a>
</g>
</g>
<!-- Node1&#45;&gt;Node6 -->
<g id="edge7" class="edge"><title>Node1&#45;&gt;Node6</title>
<path fill="none" stroke="midnightblue" d="M83.9245,-82.2915C102.829,-69.9229 130.898,-52.5985 157,-40.5 161.862,-38.2466 166.986,-36.0871 172.173,-34.047"/>
<polygon fill="midnightblue" stroke="midnightblue" points="173.416,-37.319 181.533,-30.5096 170.941,-30.771 173.416,-37.319"/>
</g>
<!-- Node3&#45;&gt;Node4 -->
<g id="edge3" class="edge"><title>Node3&#45;&gt;Node4</title>
<path fill="none" stroke="midnightblue" d="M303.598,-141.5C312.537,-141.5 321.731,-141.5 330.809,-141.5"/>
<polygon fill="midnightblue" stroke="midnightblue" points="330.989,-145 340.989,-141.5 330.989,-138 330.989,-145"/>
</g>
<!-- Node4&#45;&gt;Node2 -->
<g id="edge4" class="edge"><title>Node4&#45;&gt;Node2</title>
<path fill="none" stroke="midnightblue" d="M486.217,-150.29C494.639,-151.322 503.283,-152.381 511.834,-153.43"/>
<polygon fill="midnightblue" stroke="midnightblue" points="511.459,-156.91 521.811,-154.652 512.311,-149.962 511.459,-156.91"/>
</g>
</g>
</svg>
