<?xml version="1.0" encoding="UTF-8" standalone="no"?>
<!DOCTYPE svg PUBLIC "-//W3C//DTD SVG 1.1//EN"
 "http://www.w3.org/Graphics/SVG/1.1/DTD/svg11.dtd">
<!-- Generated by graphviz version 2.36.0 (20140111.2315)
 -->
<!-- Title: CRule::dump Pages: 1 -->
<svg width="956pt" height="38pt"
 viewBox="0.00 0.00 956.00 38.00" xmlns="http://www.w3.org/2000/svg" xmlns:xlink="http://www.w3.org/1999/xlink">
<g id="graph0" class="graph" transform="scale(1 1) rotate(0) translate(4 34)">
<title>CRule::dump</title>
<polygon fill="white" stroke="none" points="-4,4 -4,-34 952,-34 952,4 -4,4"/>
<!-- Node1 -->
<g id="node1" class="node"><title>Node1</title>
<polygon fill="#bfbfbf" stroke="black" points="0.5,-5.5 0.5,-24.5 77.5,-24.5 77.5,-5.5 0.5,-5.5"/>
<text text-anchor="middle" x="39" y="-12.5" font-family="Verdana" font-size="10.00">CRule::dump</text>
</g>
<!-- Node2 -->
<g id="node2" class="node"><title>Node2</title>
<g id="a_node2"><a xlink:href="classCCompoundRule.html#a4852b10618c0cf75059018ae60fb6eab" target="_top" xlink:title="CCompoundRule::dump">
<polygon fill="white" stroke="black" points="114.5,-5.5 114.5,-24.5 243.5,-24.5 243.5,-5.5 114.5,-5.5"/>
<text text-anchor="middle" x="179" y="-12.5" font-family="Verdana" font-size="10.00">CCompoundRule::dump</text>
</a>
</g>
</g>
<!-- Node1&#45;&gt;Node2 -->
<g id="edge1" class="edge"><title>Node1&#45;&gt;Node2</title>
<path fill="none" stroke="midnightblue" d="M87.854,-15C96.3987,-15 105.422,-15 114.327,-15"/>
<polygon fill="midnightblue" stroke="midnightblue" points="87.7091,-11.5001 77.7091,-15 87.7091,-18.5001 87.7091,-11.5001"/>
</g>
<!-- Node3 -->
<g id="node3" class="node"><title>Node3</title>
<g id="a_node3"><a xlink:href="classCDomainConfiguration.html#a0f9e4ae6ceadd57ec7d5e7a570939d38" target="_top" xlink:title="CDomainConfiguration\l::getApplicationRule">
<polygon fill="white" stroke="black" points="280.5,-0 280.5,-30 405.5,-30 405.5,-0 280.5,-0"/>
<text text-anchor="start" x="288.5" y="-18" font-family="Verdana" font-size="10.00">CDomainConfiguration</text>
<text text-anchor="middle" x="343" y="-7" font-family="Verdana" font-size="10.00">::getApplicationRule</text>
</a>
</g>
</g>
<!-- Node2&#45;&gt;Node3 -->
<g id="edge2" class="edge"><title>Node2&#45;&gt;Node3</title>
<path fill="none" stroke="midnightblue" d="M253.623,-15C262.601,-15 271.702,-15 280.478,-15"/>
<polygon fill="midnightblue" stroke="midnightblue" points="253.562,-11.5001 243.562,-15 253.562,-18.5001 253.562,-11.5001"/>
</g>
<!-- Node4 -->
<g id="node4" class="node"><title>Node4</title>
<g id="a_node4"><a xlink:href="classCConfigurableDomain.html#a172bcb617227f40d21b29e91b2424ee0" target="_top" xlink:title="CConfigurableDomain\l::getApplicationRule">
<polygon fill="white" stroke="black" points="442.5,-0 442.5,-30 563.5,-30 563.5,-0 442.5,-0"/>
<text text-anchor="start" x="450.5" y="-18" font-family="Verdana" font-size="10.00">CConfigurableDomain</text>
<text text-anchor="middle" x="503" y="-7" font-family="Verdana" font-size="10.00">::getApplicationRule</text>
</a>
</g>
</g>
<!-- Node3&#45;&gt;Node4 -->
<g id="edge3" class="edge"><title>Node3&#45;&gt;Node4</title>
<path fill="none" stroke="midnightblue" d="M415.595,-15C424.572,-15 433.678,-15 442.443,-15"/>
<polygon fill="midnightblue" stroke="midnightblue" points="415.539,-11.5001 405.539,-15 415.539,-18.5001 415.539,-11.5001"/>
</g>
<!-- Node5 -->
<g id="node5" class="node"><title>Node5</title>
<g id="a_node5"><a xlink:href="classCConfigurableDomains.html#a2c09cdf7f3d0ce257831c2df930cb60b" target="_top" xlink:title="CConfigurableDomains\l::getApplicationRule">
<polygon fill="white" stroke="black" points="600,-0 600,-30 726,-30 726,-0 600,-0"/>
<text text-anchor="start" x="608" y="-18" font-family="Verdana" font-size="10.00">CConfigurableDomains</text>
<text text-anchor="middle" x="663" y="-7" font-family="Verdana" font-size="10.00">::getApplicationRule</text>
</a>
</g>
</g>
<!-- Node4&#45;&gt;Node5 -->
<g id="edge4" class="edge"><title>Node4&#45;&gt;Node5</title>
<path fill="none" stroke="midnightblue" d="M573.807,-15C582.468,-15 591.279,-15 599.815,-15"/>
<polygon fill="midnightblue" stroke="midnightblue" points="573.733,-11.5001 563.733,-15 573.733,-18.5001 573.733,-11.5001"/>
</g>
<!-- Node6 -->
<g id="node6" class="node"><title>Node6</title>
<g id="a_node6"><a xlink:href="classCParameterMgr.html#a001de36ae98f163d21ec23f2d8a626d3" target="_top" xlink:title="CParameterMgr::getApplicationRule">
<polygon fill="white" stroke="black" points="762.5,-5.5 762.5,-24.5 947.5,-24.5 947.5,-5.5 762.5,-5.5"/>
<text text-anchor="middle" x="855" y="-12.5" font-family="Verdana" font-size="10.00">CParameterMgr::getApplicationRule</text>
</a>
</g>
</g>
<!-- Node5&#45;&gt;Node6 -->
<g id="edge5" class="edge"><title>Node5&#45;&gt;Node6</title>
<path fill="none" stroke="midnightblue" d="M736.421,-15C744.91,-15 753.654,-15 762.361,-15"/>
<polygon fill="midnightblue" stroke="midnightblue" points="736.213,-11.5001 726.213,-15 736.213,-18.5001 736.213,-11.5001"/>
</g>
</g>
</svg>
