<?xml version="1.0" encoding="UTF-8" standalone="no"?>
<!DOCTYPE svg PUBLIC "-//W3C//DTD SVG 1.1//EN"
 "http://www.w3.org/Graphics/SVG/1.1/DTD/svg11.dtd">
<!-- Generated by graphviz version 2.38.0 (20140413.2041)
 -->
<!-- Title: CConfigurableElement::isRogue Pages: 1 -->
<svg width="319pt" height="39pt"
 viewBox="0.00 0.00 319.00 39.00" xmlns="http://www.w3.org/2000/svg" xmlns:xlink="http://www.w3.org/1999/xlink">
<g id="graph0" class="graph" transform="scale(1 1) rotate(0) translate(4 35)">
<title>CConfigurableElement::isRogue</title>
<polygon fill="white" stroke="none" points="-4,4 -4,-35 315,-35 315,4 -4,4"/>
<!-- Node1 -->
<g id="node1" class="node"><title>Node1</title>
<polygon fill="#bfbfbf" stroke="black" points="0,-0.5 0,-30.5 123,-30.5 123,-0.5 0,-0.5"/>
<text text-anchor="start" x="8" y="-18.5" font-family="Verdana" font-size="10.00">CConfigurableElement</text>
<text text-anchor="middle" x="61.5" y="-7.5" font-family="Verdana" font-size="10.00">::isRogue</text>
</g>
<!-- Node2 -->
<g id="node2" class="node"><title>Node2</title>
<g id="a_node2"><a xlink:href="classCConfigurableElement.html#aef6b3524cacbbfdf7829b9126c8a8307" target="_top" xlink:title="CConfigurableElement\l::getBelongingDomainCount">
<polygon fill="white" stroke="black" points="159,-0.5 159,-30.5 311,-30.5 311,-0.5 159,-0.5"/>
<text text-anchor="start" x="167" y="-18.5" font-family="Verdana" font-size="10.00">CConfigurableElement</text>
<text text-anchor="middle" x="235" y="-7.5" font-family="Verdana" font-size="10.00">::getBelongingDomainCount</text>
</a>
</g>
</g>
<!-- Node1&#45;&gt;Node2 -->
<g id="edge1" class="edge"><title>Node1&#45;&gt;Node2</title>
<path fill="none" stroke="midnightblue" d="M123.447,-15.5C131.682,-15.5 140.251,-15.5 148.812,-15.5"/>
<polygon fill="midnightblue" stroke="midnightblue" points="148.838,-19.0001 158.838,-15.5 148.838,-12.0001 148.838,-19.0001"/>
</g>
</g>
</svg>
