<?xml version="1.0" encoding="UTF-8" standalone="no"?>
<!DOCTYPE svg PUBLIC "-//W3C//DTD SVG 1.1//EN"
 "http://www.w3.org/Graphics/SVG/1.1/DTD/svg11.dtd">
<!-- Generated by graphviz version 2.38.0 (20140413.2041)
 -->
<!-- Title: CXmlFileIncluderElement::fromXml Pages: 1 -->
<svg width="984pt" height="611pt"
 viewBox="0.00 0.00 984.00 610.78" xmlns="http://www.w3.org/2000/svg" xmlns:xlink="http://www.w3.org/1999/xlink">
<g id="graph0" class="graph" transform="scale(1 1) rotate(0) translate(4 606.778)">
<title>CXmlFileIncluderElement::fromXml</title>
<polygon fill="white" stroke="none" points="-4,4 -4,-606.778 980,-606.778 980,4 -4,4"/>
<!-- Node1 -->
<g id="node1" class="node"><title>Node1</title>
<polygon fill="#bfbfbf" stroke="black" points="0,-263 0,-293 134,-293 134,-263 0,-263"/>
<text text-anchor="start" x="8" y="-281" font-family="Verdana" font-size="10.00">CXmlFileIncluderElement</text>
<text text-anchor="middle" x="67" y="-270" font-family="Verdana" font-size="10.00">::fromXml</text>
</g>
<!-- Node2 -->
<g id="node2" class="node"><title>Node2</title>
<g id="a_node2"><a xlink:href="classCXmlElement.html#a6198359168c744489018bc2b8d732dc3" target="_top" xlink:title="Get attribute. ">
<polygon fill="white" stroke="black" points="831,-439.5 831,-458.5 976,-458.5 976,-439.5 831,-439.5"/>
<text text-anchor="middle" x="903.5" y="-446.5" font-family="Verdana" font-size="10.00">CXmlElement::getAttribute</text>
</a>
</g>
</g>
<!-- Node1&#45;&gt;Node2 -->
<g id="edge1" class="edge"><title>Node1&#45;&gt;Node2</title>
<path fill="none" stroke="midnightblue" d="M69.0063,-293.178C72.8669,-338.209 90.8086,-471.85 170,-535 278.691,-621.674 667.81,-618.114 795,-562 839.79,-542.24 874.933,-494.029 891.715,-467.409"/>
<polygon fill="midnightblue" stroke="midnightblue" points="894.827,-469.03 897.051,-458.672 888.852,-465.382 894.827,-469.03"/>
</g>
<!-- Node3 -->
<g id="node3" class="node"><title>Node3</title>
<g id="a_node3"><a xlink:href="classCXmlDocSource.html#a5b4b82f588740b673d3c1127b77326d0" target="_top" xlink:title="Helper method to build final URI from base and relative uri/path. ">
<polygon fill="white" stroke="black" points="191.5,-290.5 191.5,-309.5 319.5,-309.5 319.5,-290.5 191.5,-290.5"/>
<text text-anchor="middle" x="255.5" y="-297.5" font-family="Verdana" font-size="10.00">CXmlDocSource::mkUri</text>
</a>
</g>
</g>
<!-- Node1&#45;&gt;Node3 -->
<g id="edge2" class="edge"><title>Node1&#45;&gt;Node3</title>
<path fill="none" stroke="midnightblue" d="M134.015,-285.787C149.316,-287.592 165.688,-289.524 181.277,-291.362"/>
<polygon fill="midnightblue" stroke="midnightblue" points="181.048,-294.86 191.389,-292.555 181.868,-287.908 181.048,-294.86"/>
</g>
<!-- Node4 -->
<g id="node4" class="node"><title>Node4</title>
<g id="a_node4"><a xlink:href="classCXmlElementSerializingContext.html#a257b1df29ae5417c3a0dab5a0b3feb5e" target="_top" xlink:title="CXmlElementSerializingContext\l::getXmlUri">
<polygon fill="white" stroke="black" points="172,-241 172,-271 339,-271 339,-241 172,-241"/>
<text text-anchor="start" x="180" y="-259" font-family="Verdana" font-size="10.00">CXmlElementSerializingContext</text>
<text text-anchor="middle" x="255.5" y="-248" font-family="Verdana" font-size="10.00">::getXmlUri</text>
</a>
</g>
</g>
<!-- Node1&#45;&gt;Node4 -->
<g id="edge3" class="edge"><title>Node1&#45;&gt;Node4</title>
<path fill="none" stroke="midnightblue" d="M134.015,-270.213C143.019,-269.151 152.393,-268.045 161.761,-266.94"/>
<polygon fill="midnightblue" stroke="midnightblue" points="162.385,-270.391 171.906,-265.743 161.564,-263.439 162.385,-270.391"/>
</g>
<!-- Node5 -->
<g id="node5" class="node"><title>Node5</title>
<g id="a_node5"><a xlink:href="classCXmlDocSource.html#a5a1330e2c0bd340ad542050053f31803" target="_top" xlink:title="Helper method for creating an xml document from either a file or a string. ">
<polygon fill="white" stroke="black" points="389,-422.5 389,-441.5 541,-441.5 541,-422.5 389,-422.5"/>
<text text-anchor="middle" x="465" y="-429.5" font-family="Verdana" font-size="10.00">CXmlDocSource::mkXmlDoc</text>
</a>
</g>
</g>
<!-- Node1&#45;&gt;Node5 -->
<g id="edge4" class="edge"><title>Node1&#45;&gt;Node5</title>
<path fill="none" stroke="midnightblue" d="M75.2702,-293.192C89.2808,-320.576 122.856,-377.712 170,-403 234.007,-437.334 317.167,-442.556 378.703,-440.368"/>
<polygon fill="midnightblue" stroke="midnightblue" points="378.93,-443.862 388.772,-439.938 378.631,-436.868 378.93,-443.862"/>
</g>
<!-- Node8 -->
<g id="node8" class="node"><title>Node8</title>
<g id="a_node8"><a xlink:href="classCXmlDocSource.html#a1e04673df5c2f8da52daac761a39daf5" target="_top" xlink:title="Method that checks that the xml document has been correctly parsed. ">
<polygon fill="white" stroke="black" points="181.5,-202.5 181.5,-221.5 329.5,-221.5 329.5,-202.5 181.5,-202.5"/>
<text text-anchor="middle" x="255.5" y="-209.5" font-family="Verdana" font-size="10.00">CXmlDocSource::isParsable</text>
</a>
</g>
</g>
<!-- Node1&#45;&gt;Node8 -->
<g id="edge7" class="edge"><title>Node1&#45;&gt;Node8</title>
<path fill="none" stroke="midnightblue" d="M97.2981,-262.98C117.365,-253.146 144.806,-240.575 170,-232 178.699,-229.039 188.046,-226.355 197.239,-223.983"/>
<polygon fill="midnightblue" stroke="midnightblue" points="198.253,-227.337 207.116,-221.533 196.568,-220.543 198.253,-227.337"/>
</g>
<!-- Node9 -->
<g id="node9" class="node"><title>Node9</title>
<g id="a_node9"><a xlink:href="classutility_1_1ErrorContext.html#afc2e1af8c4a81e36e5013bf31127c15f" target="_top" xlink:title="utility::ErrorContext\l::setError">
<polygon fill="white" stroke="black" points="638,-522 638,-552 746,-552 746,-522 638,-522"/>
<text text-anchor="start" x="646" y="-540" font-family="Verdana" font-size="10.00">utility::ErrorContext</text>
<text text-anchor="middle" x="692" y="-529" font-family="Verdana" font-size="10.00">::setError</text>
</a>
</g>
</g>
<!-- Node1&#45;&gt;Node9 -->
<g id="edge8" class="edge"><title>Node1&#45;&gt;Node9</title>
<path fill="none" stroke="midnightblue" d="M70.221,-293.247C76.9289,-333.197 100.95,-441.13 170,-489 309.251,-585.537 522.194,-566.874 627.499,-549.638"/>
<polygon fill="midnightblue" stroke="midnightblue" points="628.376,-553.04 637.655,-547.925 627.212,-546.137 628.376,-553.04"/>
</g>
<!-- Node10 -->
<g id="node10" class="node"><title>Node10</title>
<g id="a_node10"><a xlink:href="classCXmlDocSource.html#a2a7e3d4b2568b41e56b6f553eba7b93c" target="_top" xlink:title="Method that returns the root element of the Xml tree. ">
<polygon fill="white" stroke="black" points="377,-384.5 377,-403.5 553,-403.5 553,-384.5 377,-384.5"/>
<text text-anchor="middle" x="465" y="-391.5" font-family="Verdana" font-size="10.00">CXmlDocSource::getRootElement</text>
</a>
</g>
</g>
<!-- Node1&#45;&gt;Node10 -->
<g id="edge9" class="edge"><title>Node1&#45;&gt;Node10</title>
<path fill="none" stroke="midnightblue" d="M78.4271,-293.161C94.8891,-315.667 129.253,-357.173 170,-375 232.016,-402.132 308.485,-406.289 367.889,-403.975"/>
<polygon fill="midnightblue" stroke="midnightblue" points="368.191,-407.464 378.021,-403.511 367.872,-400.472 368.191,-407.464"/>
</g>
<!-- Node12 -->
<g id="node12" class="node"><title>Node12</title>
<g id="a_node12"><a xlink:href="classCXmlElementSerializingContext.html#a6c36b7e23b9968c6ea898612d2a55ee9" target="_top" xlink:title="CXmlElementSerializingContext\l::getElementLibrary">
<polygon fill="white" stroke="black" points="172,-153 172,-183 339,-183 339,-153 172,-153"/>
<text text-anchor="start" x="180" y="-171" font-family="Verdana" font-size="10.00">CXmlElementSerializingContext</text>
<text text-anchor="middle" x="255.5" y="-160" font-family="Verdana" font-size="10.00">::getElementLibrary</text>
</a>
</g>
</g>
<!-- Node1&#45;&gt;Node12 -->
<g id="edge11" class="edge"><title>Node1&#45;&gt;Node12</title>
<path fill="none" stroke="midnightblue" d="M82.1245,-262.921C100.617,-244.015 134.836,-211.81 170,-193 174.245,-190.729 178.723,-188.639 183.313,-186.719"/>
<polygon fill="midnightblue" stroke="midnightblue" points="184.798,-189.897 192.853,-183.014 182.264,-183.372 184.798,-189.897"/>
</g>
<!-- Node13 -->
<g id="node13" class="node"><title>Node13</title>
<g id="a_node13"><a xlink:href="classCElementLibrary.html#a5ad95964216e50fc59f0c803370fb4de" target="_top" xlink:title="CElementLibrary::createElement">
<polygon fill="white" stroke="black" points="170,-114.5 170,-133.5 341,-133.5 341,-114.5 170,-114.5"/>
<text text-anchor="middle" x="255.5" y="-121.5" font-family="Verdana" font-size="10.00">CElementLibrary::createElement</text>
</a>
</g>
</g>
<!-- Node1&#45;&gt;Node13 -->
<g id="edge12" class="edge"><title>Node1&#45;&gt;Node13</title>
<path fill="none" stroke="midnightblue" d="M75.1122,-262.798C89.0908,-234.669 122.932,-174.589 170,-144 173.873,-141.483 178.03,-139.282 182.346,-137.357"/>
<polygon fill="midnightblue" stroke="midnightblue" points="183.972,-140.479 192.004,-133.57 181.416,-133.962 183.972,-140.479"/>
</g>
<!-- Node14 -->
<g id="node14" class="node"><title>Node14</title>
<g id="a_node14"><a xlink:href="classCElement.html#a7987056bec3cbc71bed07cc88b060cf0" target="_top" xlink:title="CElement::getParent">
<polygon fill="white" stroke="black" points="197.5,-76.5 197.5,-95.5 313.5,-95.5 313.5,-76.5 197.5,-76.5"/>
<text text-anchor="middle" x="255.5" y="-83.5" font-family="Verdana" font-size="10.00">CElement::getParent</text>
</a>
</g>
</g>
<!-- Node1&#45;&gt;Node14 -->
<g id="edge13" class="edge"><title>Node1&#45;&gt;Node14</title>
<path fill="none" stroke="midnightblue" d="M72.3366,-262.936C82.9333,-228.968 113.497,-146.164 170,-105 175.264,-101.165 181.165,-98.084 187.338,-95.6114"/>
<polygon fill="midnightblue" stroke="midnightblue" points="188.897,-98.776 197.209,-92.2058 186.614,-92.1588 188.897,-98.776"/>
</g>
<!-- Node15 -->
<g id="node15" class="node"><title>Node15</title>
<g id="a_node15"><a xlink:href="classCElement.html#ac2ad66ee438a4a0c1390b7388874fe72" target="_top" xlink:title="CElement::addChild">
<polygon fill="white" stroke="black" points="200.5,-38.5 200.5,-57.5 310.5,-57.5 310.5,-38.5 200.5,-38.5"/>
<text text-anchor="middle" x="255.5" y="-45.5" font-family="Verdana" font-size="10.00">CElement::addChild</text>
</a>
</g>
</g>
<!-- Node1&#45;&gt;Node15 -->
<g id="edge14" class="edge"><title>Node1&#45;&gt;Node15</title>
<path fill="none" stroke="midnightblue" d="M70.6396,-262.96C78.3069,-223.98 104.347,-119.104 170,-67 176.128,-62.1365 183.256,-58.4651 190.724,-55.7021"/>
<polygon fill="midnightblue" stroke="midnightblue" points="191.837,-59.0209 200.315,-52.6668 189.725,-52.3471 191.837,-59.0209"/>
</g>
<!-- Node16 -->
<g id="node16" class="node"><title>Node16</title>
<g id="a_node16"><a xlink:href="classCXmlElement.html#ac47c56a3cad8ac7d1fe7579e833227c5" target="_top" xlink:title="CXmlElement::getPath">
<polygon fill="white" stroke="black" points="193.5,-328.5 193.5,-347.5 317.5,-347.5 317.5,-328.5 193.5,-328.5"/>
<text text-anchor="middle" x="255.5" y="-335.5" font-family="Verdana" font-size="10.00">CXmlElement::getPath</text>
</a>
</g>
</g>
<!-- Node1&#45;&gt;Node16 -->
<g id="edge15" class="edge"><title>Node1&#45;&gt;Node16</title>
<path fill="none" stroke="midnightblue" d="M101.506,-293.056C121.174,-301.491 146.674,-311.741 170,-319 178.345,-321.597 187.257,-323.994 196.048,-326.148"/>
<polygon fill="midnightblue" stroke="midnightblue" points="195.348,-329.579 205.885,-328.475 196.959,-322.767 195.348,-329.579"/>
</g>
<!-- Node21 -->
<g id="node21" class="node"><title>Node21</title>
<g id="a_node21"><a xlink:href="classCXmlDocSink.html#ad795635a506e9fbe16c1d54052281d91" target="_top" xlink:title="Method to be called to use an xmlDocSource. ">
<polygon fill="white" stroke="black" points="193.5,-460.5 193.5,-479.5 317.5,-479.5 317.5,-460.5 193.5,-460.5"/>
<text text-anchor="middle" x="255.5" y="-467.5" font-family="Verdana" font-size="10.00">CXmlDocSink::process</text>
</a>
</g>
</g>
<!-- Node1&#45;&gt;Node21 -->
<g id="edge23" class="edge"><title>Node1&#45;&gt;Node21</title>
<path fill="none" stroke="midnightblue" d="M72.8846,-293.158C84.3107,-326.162 115.983,-404.856 170,-446 175.755,-450.384 182.279,-453.967 189.089,-456.895"/>
<polygon fill="midnightblue" stroke="midnightblue" points="187.916,-460.194 198.507,-460.497 190.417,-453.656 187.916,-460.194"/>
</g>
<!-- Node25 -->
<g id="node25" class="node"><title>Node25</title>
<g id="a_node25"><a xlink:href="classCElement.html#a4aec98bde47367325cf332a5dc471eb9" target="_top" xlink:title="CElement::removeChild">
<polygon fill="white" stroke="black" points="191,-0.5 191,-19.5 320,-19.5 320,-0.5 191,-0.5"/>
<text text-anchor="middle" x="255.5" y="-7.5" font-family="Verdana" font-size="10.00">CElement::removeChild</text>
</a>
</g>
</g>
<!-- Node1&#45;&gt;Node25 -->
<g id="edge30" class="edge"><title>Node1&#45;&gt;Node25</title>
<path fill="none" stroke="midnightblue" d="M69.4383,-262.904C74.4341,-219.31 95.0675,-92.3188 170,-29 173.519,-26.0263 177.406,-23.4923 181.523,-21.3353"/>
<polygon fill="midnightblue" stroke="midnightblue" points="183.132,-24.4506 190.848,-17.1911 180.289,-18.0538 183.132,-24.4506"/>
</g>
<!-- Node6 -->
<g id="node6" class="node"><title>Node6</title>
<g id="a_node6"><a xlink:href="classCXmlSerializingContext.html#a9e5ad5515d4c68fba4313df538382da7" target="_top" xlink:title="CXmlSerializingContext\l::appendLineToError">
<polygon fill="white" stroke="black" points="628,-385 628,-415 756,-415 756,-385 628,-385"/>
<text text-anchor="start" x="636" y="-403" font-family="Verdana" font-size="10.00">CXmlSerializingContext</text>
<text text-anchor="middle" x="692" y="-392" font-family="Verdana" font-size="10.00">::appendLineToError</text>
</a>
</g>
</g>
<!-- Node5&#45;&gt;Node6 -->
<g id="edge5" class="edge"><title>Node5&#45;&gt;Node6</title>
<path fill="none" stroke="midnightblue" d="M532.898,-422.486C559.664,-418.679 590.576,-414.283 617.928,-410.393"/>
<polygon fill="midnightblue" stroke="midnightblue" points="618.422,-413.858 627.829,-408.984 617.436,-406.927 618.422,-413.858"/>
</g>
<!-- Node7 -->
<g id="node7" class="node"><title>Node7</title>
<g id="a_node7"><a xlink:href="classutility_1_1ErrorContext.html#aafe9cd30a03303cf376926d9c4e9dd02" target="_top" xlink:title="utility::ErrorContext\l::appendToError">
<polygon fill="white" stroke="black" points="849.5,-385 849.5,-415 957.5,-415 957.5,-385 849.5,-385"/>
<text text-anchor="start" x="857.5" y="-403" font-family="Verdana" font-size="10.00">utility::ErrorContext</text>
<text text-anchor="middle" x="903.5" y="-392" font-family="Verdana" font-size="10.00">::appendToError</text>
</a>
</g>
</g>
<!-- Node6&#45;&gt;Node7 -->
<g id="edge6" class="edge"><title>Node6&#45;&gt;Node7</title>
<path fill="none" stroke="midnightblue" d="M756.141,-400C782.412,-400 812.853,-400 839.147,-400"/>
<polygon fill="midnightblue" stroke="midnightblue" points="839.379,-403.5 849.379,-400 839.379,-396.5 839.379,-403.5"/>
</g>
<!-- Node11 -->
<g id="node11" class="node"><title>Node11</title>
<g id="a_node11"><a xlink:href="classCXmlElement.html#a3b230e1c8e92537da6a1a365dc1e71b2" target="_top" xlink:title="CXmlElement::setXmlElement">
<polygon fill="white" stroke="black" points="612,-346.5 612,-365.5 772,-365.5 772,-346.5 612,-346.5"/>
<text text-anchor="middle" x="692" y="-353.5" font-family="Verdana" font-size="10.00">CXmlElement::setXmlElement</text>
</a>
</g>
</g>
<!-- Node10&#45;&gt;Node11 -->
<g id="edge10" class="edge"><title>Node10&#45;&gt;Node11</title>
<path fill="none" stroke="midnightblue" d="M522.487,-384.46C553.379,-379.243 591.837,-372.747 624.21,-367.28"/>
<polygon fill="midnightblue" stroke="midnightblue" points="625.213,-370.66 634.49,-365.544 624.047,-363.758 625.213,-370.66"/>
</g>
<!-- Node16&#45;&gt;Node16 -->
<g id="edge22" class="edge"><title>Node16&#45;&gt;Node16</title>
<path fill="none" stroke="midnightblue" d="M226.524,-347.757C212.427,-356.565 222.086,-366 255.5,-366 278.472,-366 290.216,-361.541 290.732,-355.891"/>
<polygon fill="midnightblue" stroke="midnightblue" points="293.347,-353.55 284.476,-347.757 287.798,-357.818 293.347,-353.55"/>
</g>
<!-- Node17 -->
<g id="node17" class="node"><title>Node17</title>
<g id="a_node17"><a xlink:href="classCXmlElement.html#ab2e750aaad2b93b4d875d04b624de1c4" target="_top" xlink:title="CXmlElement::getType">
<polygon fill="white" stroke="black" points="403,-270.5 403,-289.5 527,-289.5 527,-270.5 403,-270.5"/>
<text text-anchor="middle" x="465" y="-277.5" font-family="Verdana" font-size="10.00">CXmlElement::getType</text>
</a>
</g>
</g>
<!-- Node16&#45;&gt;Node17 -->
<g id="edge16" class="edge"><title>Node16&#45;&gt;Node17</title>
<path fill="none" stroke="midnightblue" d="M309.925,-328.421C320.39,-325.868 331.165,-322.749 341,-319 358.103,-312.481 359.877,-305.466 377,-299 383.939,-296.38 391.333,-294.074 398.767,-292.058"/>
<polygon fill="midnightblue" stroke="midnightblue" points="399.703,-295.431 408.529,-289.571 397.974,-288.648 399.703,-295.431"/>
</g>
<!-- Node18 -->
<g id="node18" class="node"><title>Node18</title>
<g id="a_node18"><a xlink:href="classCXmlElement.html#aacd4d202e3de66715641cc3bb89bd4b5" target="_top" xlink:title="CXmlElement::hasAttribute">
<polygon fill="white" stroke="black" points="392,-232.5 392,-251.5 538,-251.5 538,-232.5 392,-232.5"/>
<text text-anchor="middle" x="465" y="-239.5" font-family="Verdana" font-size="10.00">CXmlElement::hasAttribute</text>
</a>
</g>
</g>
<!-- Node16&#45;&gt;Node18 -->
<g id="edge17" class="edge"><title>Node16&#45;&gt;Node18</title>
<path fill="none" stroke="midnightblue" d="M317.637,-330.412C325.952,-327.665 334.016,-323.968 341,-319 365.724,-301.415 352.222,-278.509 377,-261 379.715,-259.082 382.587,-257.352 385.571,-255.792"/>
<polygon fill="midnightblue" stroke="midnightblue" points="387.15,-258.919 394.815,-251.604 384.261,-252.543 387.15,-258.919"/>
</g>
<!-- Node19 -->
<g id="node19" class="node"><title>Node19</title>
<g id="a_node19"><a xlink:href="classCXmlElement.html#a21b9cfd66e7cd6f33a889e099102ef89" target="_top" xlink:title="CXmlElement::getNameAttribute">
<polygon fill="white" stroke="black" points="378,-308.5 378,-327.5 552,-327.5 552,-308.5 378,-308.5"/>
<text text-anchor="middle" x="465" y="-315.5" font-family="Verdana" font-size="10.00">CXmlElement::getNameAttribute</text>
</a>
</g>
</g>
<!-- Node16&#45;&gt;Node19 -->
<g id="edge18" class="edge"><title>Node16&#45;&gt;Node19</title>
<path fill="none" stroke="midnightblue" d="M317.635,-332.108C333.424,-330.586 350.807,-328.91 367.911,-327.262"/>
<polygon fill="midnightblue" stroke="midnightblue" points="368.317,-330.739 377.935,-326.295 367.646,-323.771 368.317,-330.739"/>
</g>
<!-- Node20 -->
<g id="node20" class="node"><title>Node20</title>
<g id="a_node20"><a xlink:href="classCXmlElement.html#a28a62e123c5042524a20eda9cc425d5f" target="_top" xlink:title="CXmlElement::getParentElement">
<polygon fill="white" stroke="black" points="378.5,-346.5 378.5,-365.5 551.5,-365.5 551.5,-346.5 378.5,-346.5"/>
<text text-anchor="middle" x="465" y="-353.5" font-family="Verdana" font-size="10.00">CXmlElement::getParentElement</text>
</a>
</g>
</g>
<!-- Node16&#45;&gt;Node20 -->
<g id="edge20" class="edge"><title>Node16&#45;&gt;Node20</title>
<path fill="none" stroke="midnightblue" d="M317.635,-343.303C333.524,-344.682 351.027,-346.2 368.236,-347.693"/>
<polygon fill="midnightblue" stroke="midnightblue" points="368.054,-351.19 378.32,-348.567 368.659,-344.216 368.054,-351.19"/>
</g>
<!-- Node19&#45;&gt;Node2 -->
<g id="edge19" class="edge"><title>Node19&#45;&gt;Node2</title>
<path fill="none" stroke="midnightblue" d="M502.946,-308.484C568.521,-293.91 706.649,-273.914 795,-337 829.39,-361.556 800.172,-396.098 831,-425 835.345,-429.073 840.403,-432.457 845.783,-435.267"/>
<polygon fill="midnightblue" stroke="midnightblue" points="844.521,-438.538 855.074,-439.476 847.41,-432.161 844.521,-438.538"/>
</g>
<!-- Node20&#45;&gt;Node11 -->
<g id="edge21" class="edge"><title>Node20&#45;&gt;Node11</title>
<path fill="none" stroke="midnightblue" d="M551.705,-356C568.057,-356 585.211,-356 601.673,-356"/>
<polygon fill="midnightblue" stroke="midnightblue" points="601.821,-359.5 611.821,-356 601.82,-352.5 601.821,-359.5"/>
</g>
<!-- Node22 -->
<g id="node22" class="node"><title>Node22</title>
<g id="a_node22"><a xlink:href="classCXmlDocSource.html#a60c2e8020389b6896e61fe058f611565" target="_top" xlink:title="Method called by the CXmlDocSink::process method. ">
<polygon fill="white" stroke="black" points="394,-460.5 394,-479.5 536,-479.5 536,-460.5 394,-460.5"/>
<text text-anchor="middle" x="465" y="-467.5" font-family="Verdana" font-size="10.00">CXmlDocSource::populate</text>
</a>
</g>
</g>
<!-- Node21&#45;&gt;Node22 -->
<g id="edge24" class="edge"><title>Node21&#45;&gt;Node22</title>
<path fill="none" stroke="midnightblue" d="M317.635,-470C338.275,-470 361.639,-470 383.542,-470"/>
<polygon fill="midnightblue" stroke="midnightblue" points="383.822,-473.5 393.822,-470 383.822,-466.5 383.822,-473.5"/>
</g>
<!-- Node22&#45;&gt;Node6 -->
<g id="edge27" class="edge"><title>Node22&#45;&gt;Node6</title>
<path fill="none" stroke="midnightblue" d="M525.548,-460.42C534.943,-457.94 544.39,-454.848 553,-451 571.019,-442.948 571.084,-433.28 589,-425 598.218,-420.74 608.254,-417.15 618.315,-414.14"/>
<polygon fill="midnightblue" stroke="midnightblue" points="619.265,-417.509 627.943,-411.429 617.368,-410.771 619.265,-417.509"/>
</g>
<!-- Node22&#45;&gt;Node9 -->
<g id="edge25" class="edge"><title>Node22&#45;&gt;Node9</title>
<path fill="none" stroke="midnightblue" d="M506.811,-479.505C521.567,-483.399 538.225,-488.33 553,-494 569.701,-500.409 572.208,-505.832 589,-512 601.411,-516.558 614.975,-520.54 628.043,-523.907"/>
<polygon fill="midnightblue" stroke="midnightblue" points="627.363,-527.344 637.912,-526.36 629.052,-520.551 627.363,-527.344"/>
</g>
<!-- Node23 -->
<g id="node23" class="node"><title>Node23</title>
<g id="a_node23"><a xlink:href="classCXmlDocSource.html#a87f5d62acf578217f003779459d50d81" target="_top" xlink:title="Getter method. ">
<polygon fill="white" stroke="black" points="589,-483.5 589,-502.5 795,-502.5 795,-483.5 589,-483.5"/>
<text text-anchor="middle" x="692" y="-490.5" font-family="Verdana" font-size="10.00">CXmlDocSource::getRootElementName</text>
</a>
</g>
</g>
<!-- Node22&#45;&gt;Node23 -->
<g id="edge26" class="edge"><title>Node22&#45;&gt;Node23</title>
<path fill="none" stroke="midnightblue" d="M536.266,-477.183C552.542,-478.846 570.197,-480.651 587.563,-482.426"/>
<polygon fill="midnightblue" stroke="midnightblue" points="587.437,-485.932 597.741,-483.467 588.149,-478.968 587.437,-485.932"/>
</g>
<!-- Node24 -->
<g id="node24" class="node"><title>Node24</title>
<g id="a_node24"><a xlink:href="classCXmlDocSource.html#a07f17719f201049c80c47c7e6d4c4933" target="_top" xlink:title="Getter method. ">
<polygon fill="white" stroke="black" points="604,-434 604,-464 780,-464 780,-434 604,-434"/>
<text text-anchor="start" x="612" y="-452" font-family="Verdana" font-size="10.00">CXmlDocSource::getRootElement</text>
<text text-anchor="middle" x="692" y="-441" font-family="Verdana" font-size="10.00">AttributeString</text>
</a>
</g>
</g>
<!-- Node22&#45;&gt;Node24 -->
<g id="edge28" class="edge"><title>Node22&#45;&gt;Node24</title>
<path fill="none" stroke="midnightblue" d="M536.266,-463.442C554.493,-461.741 574.45,-459.878 593.793,-458.073"/>
<polygon fill="midnightblue" stroke="midnightblue" points="594.208,-461.549 603.839,-457.135 593.557,-454.58 594.208,-461.549"/>
</g>
<!-- Node24&#45;&gt;Node2 -->
<g id="edge29" class="edge"><title>Node24&#45;&gt;Node2</title>
<path fill="none" stroke="midnightblue" d="M780.027,-449C793.465,-449 807.303,-449 820.623,-449"/>
<polygon fill="midnightblue" stroke="midnightblue" points="820.693,-452.5 830.693,-449 820.693,-445.5 820.693,-452.5"/>
</g>
</g>
</svg>
