<?xml version="1.0" encoding="UTF-8" standalone="no"?>
<!DOCTYPE svg PUBLIC "-//W3C//DTD SVG 1.1//EN"
 "http://www.w3.org/Graphics/SVG/1.1/DTD/svg11.dtd">
<!-- Generated by graphviz version 2.38.0 (20140413.2041)
 -->
<!-- Title: CXmlFileIncluderElement::fromXml Pages: 1 -->
<svg width="994pt" height="841pt"
 viewBox="0.00 0.00 994.00 840.56" xmlns="http://www.w3.org/2000/svg" xmlns:xlink="http://www.w3.org/1999/xlink">
<g id="graph0" class="graph" transform="scale(1 1) rotate(0) translate(4 836.561)">
<title>CXmlFileIncluderElement::fromXml</title>
<polygon fill="white" stroke="none" points="-4,4 -4,-836.561 990,-836.561 990,4 -4,4"/>
<!-- Node1 -->
<g id="node1" class="node"><title>Node1</title>
<polygon fill="#bfbfbf" stroke="black" points="0,-329 0,-359 134,-359 134,-329 0,-329"/>
<text text-anchor="start" x="8" y="-347" font-family="Verdana" font-size="10.00">CXmlFileIncluderElement</text>
<text text-anchor="middle" x="67" y="-336" font-family="Verdana" font-size="10.00">::fromXml</text>
</g>
<!-- Node2 -->
<g id="node2" class="node"><title>Node2</title>
<g id="a_node2"><a xlink:href="classCXmlElement.html#a6198359168c744489018bc2b8d732dc3" target="_top" xlink:title="Get attribute. ">
<polygon fill="white" stroke="black" points="837.5,-750.5 837.5,-769.5 982.5,-769.5 982.5,-750.5 837.5,-750.5"/>
<text text-anchor="middle" x="910" y="-757.5" font-family="Verdana" font-size="10.00">CXmlElement::getAttribute</text>
</a>
</g>
</g>
<!-- Node1&#45;&gt;Node2 -->
<g id="edge1" class="edge"><title>Node1&#45;&gt;Node2</title>
<path fill="none" stroke="midnightblue" d="M69.9611,-359.022C78.5729,-422.681 115.072,-669.299 170,-721 369.763,-909.024 750.411,-810.523 871.22,-772.663"/>
<polygon fill="midnightblue" stroke="midnightblue" points="872.642,-775.883 881.11,-769.515 870.519,-769.213 872.642,-775.883"/>
</g>
<!-- Node3 -->
<g id="node3" class="node"><title>Node3</title>
<g id="a_node3"><a xlink:href="classCXmlDocSource.html#a5b4b82f588740b673d3c1127b77326d0" target="_top" xlink:title="Helper method to build final URI from base and relative uri/path. ">
<polygon fill="white" stroke="black" points="194.5,-484.5 194.5,-503.5 322.5,-503.5 322.5,-484.5 194.5,-484.5"/>
<text text-anchor="middle" x="258.5" y="-491.5" font-family="Verdana" font-size="10.00">CXmlDocSource::mkUri</text>
</a>
</g>
</g>
<!-- Node1&#45;&gt;Node3 -->
<g id="edge3" class="edge"><title>Node1&#45;&gt;Node3</title>
<path fill="none" stroke="midnightblue" d="M75.3753,-359.378C89.5569,-387.192 123.4,-445.685 170,-475 174.605,-477.897 179.587,-480.357 184.756,-482.445"/>
<polygon fill="midnightblue" stroke="midnightblue" points="183.627,-485.759 194.221,-485.817 185.976,-479.165 183.627,-485.759"/>
</g>
<!-- Node4 -->
<g id="node4" class="node"><title>Node4</title>
<g id="a_node4"><a xlink:href="classCXmlElementSerializingContext.html#a257b1df29ae5417c3a0dab5a0b3feb5e" target="_top" xlink:title="CXmlElementSerializingContext\l::getXmlUri">
<polygon fill="white" stroke="black" points="175,-435 175,-465 342,-465 342,-435 175,-435"/>
<text text-anchor="start" x="183" y="-453" font-family="Verdana" font-size="10.00">CXmlElementSerializingContext</text>
<text text-anchor="middle" x="258.5" y="-442" font-family="Verdana" font-size="10.00">::getXmlUri</text>
</a>
</g>
</g>
<!-- Node1&#45;&gt;Node4 -->
<g id="edge4" class="edge"><title>Node1&#45;&gt;Node4</title>
<path fill="none" stroke="midnightblue" d="M82.8929,-359.014C101.651,-377.122 135.608,-407.325 170,-425 174.538,-427.332 179.324,-429.474 184.223,-431.436"/>
<polygon fill="midnightblue" stroke="midnightblue" points="183.155,-434.773 193.747,-434.991 185.602,-428.215 183.155,-434.773"/>
</g>
<!-- Node5 -->
<g id="node5" class="node"><title>Node5</title>
<g id="a_node5"><a xlink:href="classCXmlDocSource.html#a5a1330e2c0bd340ad542050053f31803" target="_top" xlink:title="Helper method for creating an xml document from either a file or a string. ">
<polygon fill="white" stroke="black" points="393.5,-522.5 393.5,-541.5 545.5,-541.5 545.5,-522.5 393.5,-522.5"/>
<text text-anchor="middle" x="469.5" y="-529.5" font-family="Verdana" font-size="10.00">CXmlDocSource::mkXmlDoc</text>
</a>
</g>
</g>
<!-- Node1&#45;&gt;Node5 -->
<g id="edge5" class="edge"><title>Node1&#45;&gt;Node5</title>
<path fill="none" stroke="midnightblue" d="M71.948,-359.1C81.8202,-393.455 111.12,-477.251 170,-513 243.896,-557.867 347.92,-552.413 411.635,-543.113"/>
<polygon fill="midnightblue" stroke="midnightblue" points="412.539,-546.515 421.889,-541.533 411.473,-539.597 412.539,-546.515"/>
</g>
<!-- Node8 -->
<g id="node8" class="node"><title>Node8</title>
<g id="a_node8"><a xlink:href="classCXmlDocSource.html#a0bf03b39716173f05aaa458c8cf79262" target="_top" xlink:title="Constructor. ">
<polygon fill="white" stroke="black" points="170,-378.5 170,-397.5 347,-397.5 347,-378.5 170,-378.5"/>
<text text-anchor="middle" x="258.5" y="-385.5" font-family="Verdana" font-size="10.00">CXmlDocSource::CXmlDocSource</text>
</a>
</g>
</g>
<!-- Node1&#45;&gt;Node8 -->
<g id="edge8" class="edge"><title>Node1&#45;&gt;Node8</title>
<path fill="none" stroke="midnightblue" d="M128.075,-359.005C141.834,-362.364 156.41,-365.86 170,-369 180.552,-371.438 191.842,-373.957 202.686,-376.331"/>
<polygon fill="midnightblue" stroke="midnightblue" points="201.97,-379.757 212.486,-378.465 203.459,-372.917 201.97,-379.757"/>
</g>
<!-- Node9 -->
<g id="node9" class="node"><title>Node9</title>
<g id="a_node9"><a xlink:href="classCXmlDocSource.html#a389769446c7a9ed90e6c4e9ab9bb2225" target="_top" xlink:title="Set the Schema&#39;s base (folder) URI. ">
<polygon fill="white" stroke="black" points="181,-329 181,-359 336,-359 336,-329 181,-329"/>
<text text-anchor="start" x="189" y="-347" font-family="Verdana" font-size="10.00">CXmlDocSource::setSchema</text>
<text text-anchor="middle" x="258.5" y="-336" font-family="Verdana" font-size="10.00">BaseUri</text>
</a>
</g>
</g>
<!-- Node1&#45;&gt;Node9 -->
<g id="edge10" class="edge"><title>Node1&#45;&gt;Node9</title>
<path fill="none" stroke="midnightblue" d="M134.012,-344C145.778,-344 158.198,-344 170.445,-344"/>
<polygon fill="midnightblue" stroke="midnightblue" points="170.673,-347.5 180.673,-344 170.673,-340.5 170.673,-347.5"/>
</g>
<!-- Node10 -->
<g id="node10" class="node"><title>Node10</title>
<g id="a_node10"><a xlink:href="classCXmlDocSource.html#a1e04673df5c2f8da52daac761a39daf5" target="_top" xlink:title="Method that checks that the xml document has been correctly parsed. ">
<polygon fill="white" stroke="black" points="184.5,-290.5 184.5,-309.5 332.5,-309.5 332.5,-290.5 184.5,-290.5"/>
<text text-anchor="middle" x="258.5" y="-297.5" font-family="Verdana" font-size="10.00">CXmlDocSource::isParsable</text>
</a>
</g>
</g>
<!-- Node1&#45;&gt;Node10 -->
<g id="edge11" class="edge"><title>Node1&#45;&gt;Node10</title>
<path fill="none" stroke="midnightblue" d="M131.646,-328.958C144.348,-325.975 157.595,-322.877 170,-320 181.506,-317.331 193.869,-314.49 205.573,-311.812"/>
<polygon fill="midnightblue" stroke="midnightblue" points="206.682,-315.148 215.651,-309.508 205.122,-308.324 206.682,-315.148"/>
</g>
<!-- Node11 -->
<g id="node11" class="node"><title>Node11</title>
<g id="a_node11"><a xlink:href="classutility_1_1ErrorContext.html#afc2e1af8c4a81e36e5013bf31127c15f" target="_top" xlink:title="utility::ErrorContext\l::setError">
<polygon fill="white" stroke="black" points="641,-566 641,-596 749,-596 749,-566 641,-566"/>
<text text-anchor="start" x="649" y="-584" font-family="Verdana" font-size="10.00">utility::ErrorContext</text>
<text text-anchor="middle" x="695" y="-573" font-family="Verdana" font-size="10.00">::setError</text>
</a>
</g>
</g>
<!-- Node1&#45;&gt;Node11 -->
<g id="edge12" class="edge"><title>Node1&#45;&gt;Node11</title>
<path fill="none" stroke="midnightblue" d="M70.5143,-359.196C77.8203,-397.962 102.952,-500.601 170,-545 243.95,-593.969 508.085,-589.303 630.666,-584.24"/>
<polygon fill="midnightblue" stroke="midnightblue" points="630.82,-587.737 640.662,-583.813 630.521,-580.743 630.82,-587.737"/>
</g>
<!-- Node12 -->
<g id="node12" class="node"><title>Node12</title>
<g id="a_node12"><a xlink:href="classCXmlDocSource.html#a2a7e3d4b2568b41e56b6f553eba7b93c" target="_top" xlink:title="Method that returns the root element of the Xml tree. ">
<polygon fill="white" stroke="black" points="170.5,-252.5 170.5,-271.5 346.5,-271.5 346.5,-252.5 170.5,-252.5"/>
<text text-anchor="middle" x="258.5" y="-259.5" font-family="Verdana" font-size="10.00">CXmlDocSource::getRootElement</text>
</a>
</g>
</g>
<!-- Node1&#45;&gt;Node12 -->
<g id="edge13" class="edge"><title>Node1&#45;&gt;Node12</title>
<path fill="none" stroke="midnightblue" d="M87.9914,-328.782C107.797,-314.42 139.504,-293.307 170,-281 176.392,-278.42 183.196,-276.164 190.075,-274.197"/>
<polygon fill="midnightblue" stroke="midnightblue" points="191.404,-277.466 200.171,-271.518 189.608,-270.7 191.404,-277.466"/>
</g>
<!-- Node14 -->
<g id="node14" class="node"><title>Node14</title>
<g id="a_node14"><a xlink:href="classCXmlElementSerializingContext.html#a6c36b7e23b9968c6ea898612d2a55ee9" target="_top" xlink:title="CXmlElementSerializingContext\l::getElementLibrary">
<polygon fill="white" stroke="black" points="175,-203 175,-233 342,-233 342,-203 175,-203"/>
<text text-anchor="start" x="183" y="-221" font-family="Verdana" font-size="10.00">CXmlElementSerializingContext</text>
<text text-anchor="middle" x="258.5" y="-210" font-family="Verdana" font-size="10.00">::getElementLibrary</text>
</a>
</g>
</g>
<!-- Node1&#45;&gt;Node14 -->
<g id="edge15" class="edge"><title>Node1&#45;&gt;Node14</title>
<path fill="none" stroke="midnightblue" d="M79.1097,-328.938C96.1989,-306.836 131.068,-265.779 170,-243 173.682,-240.846 177.56,-238.868 181.553,-237.053"/>
<polygon fill="midnightblue" stroke="midnightblue" points="183.149,-240.18 191.038,-233.108 180.461,-233.717 183.149,-240.18"/>
</g>
<!-- Node15 -->
<g id="node15" class="node"><title>Node15</title>
<g id="a_node15"><a xlink:href="classCElementLibrary.html#a5ad95964216e50fc59f0c803370fb4de" target="_top" xlink:title="CElementLibrary::createElement">
<polygon fill="white" stroke="black" points="173,-164.5 173,-183.5 344,-183.5 344,-164.5 173,-164.5"/>
<text text-anchor="middle" x="258.5" y="-171.5" font-family="Verdana" font-size="10.00">CElementLibrary::createElement</text>
</a>
</g>
</g>
<!-- Node1&#45;&gt;Node15 -->
<g id="edge16" class="edge"><title>Node1&#45;&gt;Node15</title>
<path fill="none" stroke="midnightblue" d="M73.7826,-328.88C86.3161,-298.244 119.027,-228.81 170,-194 173.547,-191.578 177.344,-189.445 181.297,-187.568"/>
<polygon fill="midnightblue" stroke="midnightblue" points="182.867,-190.706 190.758,-183.636 180.18,-184.242 182.867,-190.706"/>
</g>
<!-- Node17 -->
<g id="node17" class="node"><title>Node17</title>
<g id="a_node17"><a xlink:href="classCElement.html#a13abc3b20f79fef64b2374e38162db0d" target="_top" xlink:title="CElement::getParent">
<polygon fill="white" stroke="black" points="200.5,-126.5 200.5,-145.5 316.5,-145.5 316.5,-126.5 200.5,-126.5"/>
<text text-anchor="middle" x="258.5" y="-133.5" font-family="Verdana" font-size="10.00">CElement::getParent</text>
</a>
</g>
</g>
<!-- Node1&#45;&gt;Node17 -->
<g id="edge18" class="edge"><title>Node1&#45;&gt;Node17</title>
<path fill="none" stroke="midnightblue" d="M71.5273,-328.902C80.8157,-292.682 109.51,-200.497 170,-155 176.202,-150.335 183.312,-146.767 190.741,-144.046"/>
<polygon fill="midnightblue" stroke="midnightblue" points="191.797,-147.383 200.277,-141.032 189.687,-140.708 191.797,-147.383"/>
</g>
<!-- Node18 -->
<g id="node18" class="node"><title>Node18</title>
<g id="a_node18"><a xlink:href="classCElement.html#ac2ad66ee438a4a0c1390b7388874fe72" target="_top" xlink:title="CElement::addChild">
<polygon fill="white" stroke="black" points="203.5,-88.5 203.5,-107.5 313.5,-107.5 313.5,-88.5 203.5,-88.5"/>
<text text-anchor="middle" x="258.5" y="-95.5" font-family="Verdana" font-size="10.00">CElement::addChild</text>
</a>
</g>
</g>
<!-- Node1&#45;&gt;Node18 -->
<g id="edge19" class="edge"><title>Node1&#45;&gt;Node18</title>
<path fill="none" stroke="midnightblue" d="M70.0967,-328.723C76.5984,-287.526 100.355,-173.453 170,-117 176.844,-111.453 184.945,-107.43 193.413,-104.529"/>
<polygon fill="midnightblue" stroke="midnightblue" points="194.461,-107.87 203.081,-101.71 192.501,-101.15 194.461,-107.87"/>
</g>
<!-- Node19 -->
<g id="node19" class="node"><title>Node19</title>
<g id="a_node19"><a xlink:href="classCXmlElement.html#ac47c56a3cad8ac7d1fe7579e833227c5" target="_top" xlink:title="CXmlElement::getPath">
<polygon fill="white" stroke="black" points="196.5,-674.5 196.5,-693.5 320.5,-693.5 320.5,-674.5 196.5,-674.5"/>
<text text-anchor="middle" x="258.5" y="-681.5" font-family="Verdana" font-size="10.00">CXmlElement::getPath</text>
</a>
</g>
</g>
<!-- Node1&#45;&gt;Node19 -->
<g id="edge20" class="edge"><title>Node1&#45;&gt;Node19</title>
<path fill="none" stroke="midnightblue" d="M70.0064,-359.15C76.66,-404.374 101.598,-540.603 170,-627 184.826,-645.726 207.565,-660.274 226.147,-669.985"/>
<polygon fill="midnightblue" stroke="midnightblue" points="224.641,-673.145 235.151,-674.489 227.773,-666.885 224.641,-673.145"/>
</g>
<!-- Node24 -->
<g id="node24" class="node"><title>Node24</title>
<g id="a_node24"><a xlink:href="classCXmlMemoryDocSink.html#a61b24a359e12fe303346f8a4cddbe9c8" target="_top" xlink:title="Constructor. ">
<polygon fill="white" stroke="black" points="196,-39 196,-69 321,-69 321,-39 196,-39"/>
<text text-anchor="start" x="204" y="-57" font-family="Verdana" font-size="10.00">CXmlMemoryDocSink::</text>
<text text-anchor="middle" x="258.5" y="-46" font-family="Verdana" font-size="10.00">CXmlMemoryDocSink</text>
</a>
</g>
</g>
<!-- Node1&#45;&gt;Node24 -->
<g id="edge27" class="edge"><title>Node1&#45;&gt;Node24</title>
<path fill="none" stroke="midnightblue" d="M69.2321,-328.821C73.7235,-283.704 93.2451,-149.202 170,-79 174.82,-74.5916 180.365,-70.9551 186.276,-67.9561"/>
<polygon fill="midnightblue" stroke="midnightblue" points="188.076,-70.9873 195.813,-63.7489 185.251,-64.5829 188.076,-70.9873"/>
</g>
<!-- Node25 -->
<g id="node25" class="node"><title>Node25</title>
<g id="a_node25"><a xlink:href="classCXmlDocSink.html#ad795635a506e9fbe16c1d54052281d91" target="_top" xlink:title="Method to be called to use an xmlDocSource. ">
<polygon fill="white" stroke="black" points="196.5,-598.5 196.5,-617.5 320.5,-617.5 320.5,-598.5 196.5,-598.5"/>
<text text-anchor="middle" x="258.5" y="-605.5" font-family="Verdana" font-size="10.00">CXmlDocSink::process</text>
</a>
</g>
</g>
<!-- Node1&#45;&gt;Node25 -->
<g id="edge28" class="edge"><title>Node1&#45;&gt;Node25</title>
<path fill="none" stroke="midnightblue" d="M69.8478,-359.001C75.8558,-401.17 98.7577,-521.728 170,-584 175.1,-588.458 180.955,-592.095 187.168,-595.062"/>
<polygon fill="midnightblue" stroke="midnightblue" points="185.904,-598.327 196.481,-598.946 188.599,-591.866 185.904,-598.327"/>
</g>
<!-- Node30 -->
<g id="node30" class="node"><title>Node30</title>
<g id="a_node30"><a xlink:href="classCElement.html#a4aec98bde47367325cf332a5dc471eb9" target="_top" xlink:title="CElement::removeChild">
<polygon fill="white" stroke="black" points="194,-0.5 194,-19.5 323,-19.5 323,-0.5 194,-0.5"/>
<text text-anchor="middle" x="258.5" y="-7.5" font-family="Verdana" font-size="10.00">CElement::removeChild</text>
</a>
</g>
</g>
<!-- Node1&#45;&gt;Node30 -->
<g id="edge36" class="edge"><title>Node1&#45;&gt;Node30</title>
<path fill="none" stroke="midnightblue" d="M68.0126,-328.817C68.9247,-278.113 79.0548,-113.16 170,-30 174.347,-26.0255 179.317,-22.7886 184.633,-20.1583"/>
<polygon fill="midnightblue" stroke="midnightblue" points="185.993,-23.3833 193.854,-16.2809 183.279,-16.9304 185.993,-23.3833"/>
</g>
<!-- Node2&#45;&gt;Node2 -->
<g id="edge2" class="edge"><title>Node2&#45;&gt;Node2</title>
<path fill="none" stroke="midnightblue" d="M877.283,-769.612C860.85,-778.461 871.756,-788 910,-788 938.086,-788 951.427,-782.856 950.025,-776.618"/>
<polygon fill="midnightblue" stroke="midnightblue" points="952.358,-774.006 942.717,-769.612 947.513,-779.059 952.358,-774.006"/>
</g>
<!-- Node6 -->
<g id="node6" class="node"><title>Node6</title>
<g id="a_node6"><a xlink:href="classCXmlSerializingContext.html#a9e5ad5515d4c68fba4313df538382da7" target="_top" xlink:title="CXmlSerializingContext\l::appendLineToError">
<polygon fill="white" stroke="black" points="631,-517 631,-547 759,-547 759,-517 631,-517"/>
<text text-anchor="start" x="639" y="-535" font-family="Verdana" font-size="10.00">CXmlSerializingContext</text>
<text text-anchor="middle" x="695" y="-524" font-family="Verdana" font-size="10.00">::appendLineToError</text>
</a>
</g>
</g>
<!-- Node5&#45;&gt;Node6 -->
<g id="edge6" class="edge"><title>Node5&#45;&gt;Node6</title>
<path fill="none" stroke="midnightblue" d="M545.544,-532C569.734,-532 596.505,-532 620.577,-532"/>
<polygon fill="midnightblue" stroke="midnightblue" points="620.713,-535.5 630.713,-532 620.713,-528.5 620.713,-535.5"/>
</g>
<!-- Node7 -->
<g id="node7" class="node"><title>Node7</title>
<g id="a_node7"><a xlink:href="classutility_1_1ErrorContext.html#aafe9cd30a03303cf376926d9c4e9dd02" target="_top" xlink:title="utility::ErrorContext\l::appendToError">
<polygon fill="white" stroke="black" points="856,-517 856,-547 964,-547 964,-517 856,-517"/>
<text text-anchor="start" x="864" y="-535" font-family="Verdana" font-size="10.00">utility::ErrorContext</text>
<text text-anchor="middle" x="910" y="-524" font-family="Verdana" font-size="10.00">::appendToError</text>
</a>
</g>
</g>
<!-- Node6&#45;&gt;Node7 -->
<g id="edge7" class="edge"><title>Node6&#45;&gt;Node7</title>
<path fill="none" stroke="midnightblue" d="M759.042,-532C786.345,-532 818.248,-532 845.591,-532"/>
<polygon fill="midnightblue" stroke="midnightblue" points="845.829,-535.5 855.829,-532 845.829,-528.5 845.829,-535.5"/>
</g>
<!-- Node8&#45;&gt;Node8 -->
<g id="edge9" class="edge"><title>Node8&#45;&gt;Node8</title>
<path fill="none" stroke="midnightblue" d="M229.215,-397.757C214.969,-406.565 224.73,-416 258.5,-416 282.244,-416 294.119,-411.336 294.125,-405.504"/>
<polygon fill="midnightblue" stroke="midnightblue" points="296.827,-403.279 287.785,-397.757 291.409,-407.712 296.827,-403.279"/>
</g>
<!-- Node13 -->
<g id="node13" class="node"><title>Node13</title>
<g id="a_node13"><a xlink:href="classCXmlElement.html#a3b230e1c8e92537da6a1a365dc1e71b2" target="_top" xlink:title="CXmlElement::setXmlElement">
<polygon fill="white" stroke="black" points="389.5,-252.5 389.5,-271.5 549.5,-271.5 549.5,-252.5 389.5,-252.5"/>
<text text-anchor="middle" x="469.5" y="-259.5" font-family="Verdana" font-size="10.00">CXmlElement::setXmlElement</text>
</a>
</g>
</g>
<!-- Node12&#45;&gt;Node13 -->
<g id="edge14" class="edge"><title>Node12&#45;&gt;Node13</title>
<path fill="none" stroke="midnightblue" d="M346.621,-262C357.316,-262 368.261,-262 378.99,-262"/>
<polygon fill="midnightblue" stroke="midnightblue" points="379.196,-265.5 389.196,-262 379.196,-258.5 379.196,-265.5"/>
</g>
<!-- Node16 -->
<g id="node16" class="node"><title>Node16</title>
<g id="a_node16"><a xlink:href="classCElementBuilder.html#a238e661579bbcc3a7c45501acd048bbb" target="_top" xlink:title="CElementBuilder::createElement">
<polygon fill="white" stroke="black" points="383,-164.5 383,-183.5 556,-183.5 556,-164.5 383,-164.5"/>
<text text-anchor="middle" x="469.5" y="-171.5" font-family="Verdana" font-size="10.00">CElementBuilder::createElement</text>
</a>
</g>
</g>
<!-- Node15&#45;&gt;Node16 -->
<g id="edge17" class="edge"><title>Node15&#45;&gt;Node16</title>
<path fill="none" stroke="midnightblue" d="M344.207,-174C353.597,-174 363.208,-174 372.722,-174"/>
<polygon fill="midnightblue" stroke="midnightblue" points="372.993,-177.5 382.993,-174 372.993,-170.5 372.993,-177.5"/>
</g>
<!-- Node19&#45;&gt;Node19 -->
<g id="edge26" class="edge"><title>Node19&#45;&gt;Node19</title>
<path fill="none" stroke="midnightblue" d="M229.215,-693.757C214.969,-702.565 224.73,-712 258.5,-712 282.244,-712 294.119,-707.336 294.125,-701.504"/>
<polygon fill="midnightblue" stroke="midnightblue" points="296.827,-699.279 287.785,-693.757 291.409,-703.712 296.827,-699.279"/>
</g>
<!-- Node20 -->
<g id="node20" class="node"><title>Node20</title>
<g id="a_node20"><a xlink:href="classCXmlElement.html#ab2e750aaad2b93b4d875d04b624de1c4" target="_top" xlink:title="CXmlElement::getType">
<polygon fill="white" stroke="black" points="407.5,-674.5 407.5,-693.5 531.5,-693.5 531.5,-674.5 407.5,-674.5"/>
<text text-anchor="middle" x="469.5" y="-681.5" font-family="Verdana" font-size="10.00">CXmlElement::getType</text>
</a>
</g>
</g>
<!-- Node19&#45;&gt;Node20 -->
<g id="edge21" class="edge"><title>Node19&#45;&gt;Node20</title>
<path fill="none" stroke="midnightblue" d="M320.513,-684C344.552,-684 372.327,-684 397.276,-684"/>
<polygon fill="midnightblue" stroke="midnightblue" points="397.411,-687.5 407.411,-684 397.411,-680.5 397.411,-687.5"/>
</g>
<!-- Node21 -->
<g id="node21" class="node"><title>Node21</title>
<g id="a_node21"><a xlink:href="classCXmlElement.html#aacd4d202e3de66715641cc3bb89bd4b5" target="_top" xlink:title="CXmlElement::hasAttribute">
<polygon fill="white" stroke="black" points="396.5,-636.5 396.5,-655.5 542.5,-655.5 542.5,-636.5 396.5,-636.5"/>
<text text-anchor="middle" x="469.5" y="-643.5" font-family="Verdana" font-size="10.00">CXmlElement::hasAttribute</text>
</a>
</g>
</g>
<!-- Node19&#45;&gt;Node21 -->
<g id="edge22" class="edge"><title>Node19&#45;&gt;Node21</title>
<path fill="none" stroke="midnightblue" d="M311.97,-674.46C340.541,-669.265 376.08,-662.804 406.069,-657.351"/>
<polygon fill="midnightblue" stroke="midnightblue" points="406.796,-660.776 416.009,-655.544 405.544,-653.889 406.796,-660.776"/>
</g>
<!-- Node22 -->
<g id="node22" class="node"><title>Node22</title>
<g id="a_node22"><a xlink:href="classCXmlElement.html#a21b9cfd66e7cd6f33a889e099102ef89" target="_top" xlink:title="CXmlElement::getNameAttribute">
<polygon fill="white" stroke="black" points="608,-750.5 608,-769.5 782,-769.5 782,-750.5 608,-750.5"/>
<text text-anchor="middle" x="695" y="-757.5" font-family="Verdana" font-size="10.00">CXmlElement::getNameAttribute</text>
</a>
</g>
</g>
<!-- Node19&#45;&gt;Node22 -->
<g id="edge23" class="edge"><title>Node19&#45;&gt;Node22</title>
<path fill="none" stroke="midnightblue" d="M275.173,-693.566C297.962,-706.922 342.01,-730.677 383,-741 453.435,-758.739 535.542,-763.096 597.699,-763.23"/>
<polygon fill="midnightblue" stroke="midnightblue" points="597.894,-766.729 607.889,-763.214 597.884,-759.729 597.894,-766.729"/>
</g>
<!-- Node23 -->
<g id="node23" class="node"><title>Node23</title>
<g id="a_node23"><a xlink:href="classCXmlElement.html#a28a62e123c5042524a20eda9cc425d5f" target="_top" xlink:title="CXmlElement::getParentElement">
<polygon fill="white" stroke="black" points="383,-712.5 383,-731.5 556,-731.5 556,-712.5 383,-712.5"/>
<text text-anchor="middle" x="469.5" y="-719.5" font-family="Verdana" font-size="10.00">CXmlElement::getParentElement</text>
</a>
</g>
</g>
<!-- Node19&#45;&gt;Node23 -->
<g id="edge25" class="edge"><title>Node19&#45;&gt;Node23</title>
<path fill="none" stroke="midnightblue" d="M311.97,-693.54C340.541,-698.735 376.08,-705.196 406.069,-710.649"/>
<polygon fill="midnightblue" stroke="midnightblue" points="405.544,-714.111 416.009,-712.456 406.796,-707.224 405.544,-714.111"/>
</g>
<!-- Node22&#45;&gt;Node2 -->
<g id="edge24" class="edge"><title>Node22&#45;&gt;Node2</title>
<path fill="none" stroke="midnightblue" d="M782.021,-760C796.937,-760 812.41,-760 827.209,-760"/>
<polygon fill="midnightblue" stroke="midnightblue" points="827.332,-763.5 837.332,-760 827.332,-756.5 827.332,-763.5"/>
</g>
<!-- Node26 -->
<g id="node26" class="node"><title>Node26</title>
<g id="a_node26"><a xlink:href="classCXmlDocSource.html#a60c2e8020389b6896e61fe058f611565" target="_top" xlink:title="Method called by the CXmlDocSink::process method. ">
<polygon fill="white" stroke="black" points="398.5,-598.5 398.5,-617.5 540.5,-617.5 540.5,-598.5 398.5,-598.5"/>
<text text-anchor="middle" x="469.5" y="-605.5" font-family="Verdana" font-size="10.00">CXmlDocSource::populate</text>
</a>
</g>
</g>
<!-- Node25&#45;&gt;Node26 -->
<g id="edge29" class="edge"><title>Node25&#45;&gt;Node26</title>
<path fill="none" stroke="midnightblue" d="M320.513,-608C341.619,-608 365.606,-608 388.031,-608"/>
<polygon fill="midnightblue" stroke="midnightblue" points="388.209,-611.5 398.209,-608 388.209,-604.5 388.209,-611.5"/>
</g>
<!-- Node26&#45;&gt;Node6 -->
<g id="edge32" class="edge"><title>Node26&#45;&gt;Node6</title>
<path fill="none" stroke="midnightblue" d="M490.763,-598.335C514.584,-587.248 555.505,-569.049 592,-557 601.349,-553.913 611.293,-551.016 621.164,-548.367"/>
<polygon fill="midnightblue" stroke="midnightblue" points="622.195,-551.715 630.986,-545.801 620.426,-544.942 622.195,-551.715"/>
</g>
<!-- Node26&#45;&gt;Node11 -->
<g id="edge30" class="edge"><title>Node26&#45;&gt;Node11</title>
<path fill="none" stroke="midnightblue" d="M540.604,-599.531C569.45,-596.046 602.616,-592.04 630.713,-588.645"/>
<polygon fill="midnightblue" stroke="midnightblue" points="631.31,-592.099 640.818,-587.425 630.47,-585.149 631.31,-592.099"/>
</g>
<!-- Node27 -->
<g id="node27" class="node"><title>Node27</title>
<g id="a_node27"><a xlink:href="classCXmlDocSource.html#a87f5d62acf578217f003779459d50d81" target="_top" xlink:title="Getter method. ">
<polygon fill="white" stroke="black" points="592,-664.5 592,-683.5 798,-683.5 798,-664.5 592,-664.5"/>
<text text-anchor="middle" x="695" y="-671.5" font-family="Verdana" font-size="10.00">CXmlDocSource::getRootElementName</text>
</a>
</g>
</g>
<!-- Node26&#45;&gt;Node27 -->
<g id="edge31" class="edge"><title>Node26&#45;&gt;Node27</title>
<path fill="none" stroke="midnightblue" d="M529.595,-617.526C538.663,-620.008 547.745,-623.115 556,-627 574.34,-635.631 573.513,-646.687 592,-655 597.714,-657.57 603.758,-659.792 609.937,-661.713"/>
<polygon fill="midnightblue" stroke="midnightblue" points="609.155,-665.129 619.73,-664.492 611.066,-658.395 609.155,-665.129"/>
</g>
<!-- Node28 -->
<g id="node28" class="node"><title>Node28</title>
<g id="a_node28"><a xlink:href="classCXmlDocSource.html#a07f17719f201049c80c47c7e6d4c4933" target="_top" xlink:title="Getter method. ">
<polygon fill="white" stroke="black" points="607,-615 607,-645 783,-645 783,-615 607,-615"/>
<text text-anchor="start" x="615" y="-633" font-family="Verdana" font-size="10.00">CXmlDocSource::getRootElement</text>
<text text-anchor="middle" x="695" y="-622" font-family="Verdana" font-size="10.00">AttributeString</text>
</a>
</g>
</g>
<!-- Node26&#45;&gt;Node28 -->
<g id="edge33" class="edge"><title>Node26&#45;&gt;Node28</title>
<path fill="none" stroke="midnightblue" d="M540.604,-614.901C558.4,-616.652 577.841,-618.566 596.721,-620.424"/>
<polygon fill="midnightblue" stroke="midnightblue" points="596.539,-623.923 606.834,-621.42 597.225,-616.957 596.539,-623.923"/>
</g>
<!-- Node28&#45;&gt;Node2 -->
<g id="edge35" class="edge"><title>Node28&#45;&gt;Node2</title>
<path fill="none" stroke="midnightblue" d="M775.237,-645.046C783.146,-647.829 790.876,-651.117 798,-655 839.101,-677.4 876.279,-718.807 895.414,-742.376"/>
<polygon fill="midnightblue" stroke="midnightblue" points="892.875,-744.806 901.836,-750.459 898.356,-740.452 892.875,-744.806"/>
</g>
<!-- Node29 -->
<g id="node29" class="node"><title>Node29</title>
<g id="a_node29"><a xlink:href="classCXmlElement.html#a2998f66224ccd31aee6ccdeca4635f38" target="_top" xlink:title="CXmlElement::CXmlElement">
<polygon fill="white" stroke="black" points="834,-620.5 834,-639.5 986,-639.5 986,-620.5 834,-620.5"/>
<text text-anchor="middle" x="910" y="-627.5" font-family="Verdana" font-size="10.00">CXmlElement::CXmlElement</text>
</a>
</g>
</g>
<!-- Node28&#45;&gt;Node29 -->
<g id="edge34" class="edge"><title>Node28&#45;&gt;Node29</title>
<path fill="none" stroke="midnightblue" d="M783.25,-630C796.616,-630 810.401,-630 823.725,-630"/>
<polygon fill="midnightblue" stroke="midnightblue" points="823.808,-633.5 833.808,-630 823.808,-626.5 823.808,-633.5"/>
</g>
</g>
</svg>
