<?xml version="1.0" encoding="UTF-8" standalone="no"?>
<!DOCTYPE svg PUBLIC "-//W3C//DTD SVG 1.1//EN"
 "http://www.w3.org/Graphics/SVG/1.1/DTD/svg11.dtd">
<!-- Generated by graphviz version 2.38.0 (20140413.2041)
 -->
<!-- Title: CConfigurableDomain::getSequenceAwareness Pages: 1 -->
<svg width="515pt" height="88pt"
 viewBox="0.00 0.00 515.00 88.00" xmlns="http://www.w3.org/2000/svg" xmlns:xlink="http://www.w3.org/1999/xlink">
<g id="graph0" class="graph" transform="scale(1 1) rotate(0) translate(4 84)">
<title>CConfigurableDomain::getSequenceAwareness</title>
<polygon fill="white" stroke="none" points="-4,4 -4,-84 511,-84 511,4 -4,4"/>
<!-- Node1 -->
<g id="node1" class="node"><title>Node1</title>
<polygon fill="#bfbfbf" stroke="black" points="0,-24.5 0,-54.5 137,-54.5 137,-24.5 0,-24.5"/>
<text text-anchor="start" x="8" y="-42.5" font-family="Verdana" font-size="10.00">CConfigurableDomain</text>
<text text-anchor="middle" x="68.5" y="-31.5" font-family="Verdana" font-size="10.00">::getSequenceAwareness</text>
</g>
<!-- Node2 -->
<g id="node2" class="node"><title>Node2</title>
<g id="a_node2"><a xlink:href="classCConfigurableDomains.html#a7079463f456c5dc7a58e0809b8c39fa4" target="_top" xlink:title="CConfigurableDomains\l::getSequenceAwareness">
<polygon fill="white" stroke="black" points="173,-49.5 173,-79.5 310,-79.5 310,-49.5 173,-49.5"/>
<text text-anchor="start" x="181" y="-67.5" font-family="Verdana" font-size="10.00">CConfigurableDomains</text>
<text text-anchor="middle" x="241.5" y="-56.5" font-family="Verdana" font-size="10.00">::getSequenceAwareness</text>
</a>
</g>
</g>
<!-- Node1&#45;&gt;Node2 -->
<g id="edge1" class="edge"><title>Node1&#45;&gt;Node2</title>
<path fill="none" stroke="midnightblue" d="M147.1,-50.845C155.692,-52.1012 164.391,-53.373 172.847,-54.6092"/>
<polygon fill="midnightblue" stroke="midnightblue" points="147.485,-47.3642 137.084,-49.3807 146.472,-54.2905 147.485,-47.3642"/>
</g>
<!-- Node4 -->
<g id="node4" class="node"><title>Node4</title>
<g id="a_node4"><a xlink:href="classCConfigurableDomains.html#a066886372cfbdda37f4b74f144585e3d" target="_top" xlink:title="CConfigurableDomains\l::listDomains">
<polygon fill="white" stroke="black" points="178.5,-0.5 178.5,-30.5 304.5,-30.5 304.5,-0.5 178.5,-0.5"/>
<text text-anchor="start" x="186.5" y="-18.5" font-family="Verdana" font-size="10.00">CConfigurableDomains</text>
<text text-anchor="middle" x="241.5" y="-7.5" font-family="Verdana" font-size="10.00">::listDomains</text>
</a>
</g>
</g>
<!-- Node1&#45;&gt;Node4 -->
<g id="edge3" class="edge"><title>Node1&#45;&gt;Node4</title>
<path fill="none" stroke="midnightblue" d="M147.078,-28.6119C157.574,-27.1387 168.232,-25.6429 178.41,-24.2144"/>
<polygon fill="midnightblue" stroke="midnightblue" points="146.5,-25.1586 137.084,-30.0146 147.473,-32.0906 146.5,-25.1586"/>
</g>
<!-- Node3 -->
<g id="node3" class="node"><title>Node3</title>
<g id="a_node3"><a xlink:href="classCParameterMgr.html#ae43b3dc52cf33a344ca0c70aae2e1306" target="_top" xlink:title="CParameterMgr::getSequence\lAwareness">
<polygon fill="white" stroke="black" points="346,-49.5 346,-79.5 507,-79.5 507,-49.5 346,-49.5"/>
<text text-anchor="start" x="354" y="-67.5" font-family="Verdana" font-size="10.00">CParameterMgr::getSequence</text>
<text text-anchor="middle" x="426.5" y="-56.5" font-family="Verdana" font-size="10.00">Awareness</text>
</a>
</g>
</g>
<!-- Node2&#45;&gt;Node3 -->
<g id="edge2" class="edge"><title>Node2&#45;&gt;Node3</title>
<path fill="none" stroke="midnightblue" d="M320.306,-64.5C328.736,-64.5 337.324,-64.5 345.776,-64.5"/>
<polygon fill="midnightblue" stroke="midnightblue" points="320.123,-61.0001 310.123,-64.5 320.122,-68.0001 320.123,-61.0001"/>
</g>
</g>
</svg>
