<?xml version="1.0" encoding="UTF-8" standalone="no"?>
<!DOCTYPE svg PUBLIC "-//W3C//DTD SVG 1.1//EN"
 "http://www.w3.org/Graphics/SVG/1.1/DTD/svg11.dtd">
<!-- Generated by graphviz version 2.38.0 (20140413.2041)
 -->
<!-- Title: CParameterMgr::applyConfigurations Pages: 1 -->
<svg width="737pt" height="39pt"
 viewBox="0.00 0.00 737.00 39.00" xmlns="http://www.w3.org/2000/svg" xmlns:xlink="http://www.w3.org/1999/xlink">
<g id="graph0" class="graph" transform="scale(1 1) rotate(0) translate(4 35)">
<title>CParameterMgr::applyConfigurations</title>
<polygon fill="white" stroke="none" points="-4,4 -4,-35 733,-35 733,4 -4,4"/>
<!-- Node1 -->
<g id="node1" class="node"><title>Node1</title>
<polygon fill="#bfbfbf" stroke="black" points="0,-6 0,-25 192,-25 192,-6 0,-6"/>
<text text-anchor="middle" x="96" y="-13" font-family="Verdana" font-size="10.00">CParameterMgr::applyConfigurations</text>
</g>
<!-- Node2 -->
<g id="node2" class="node"><title>Node2</title>
<g id="a_node2"><a xlink:href="classCParameterMgrPlatformConnector.html#a03ff6b6e71e733bce73a2557b585d05c" target="_top" xlink:title="CParameterMgrPlatformConnector\l::applyConfigurations">
<polygon fill="white" stroke="black" points="228,-0.5 228,-30.5 410,-30.5 410,-0.5 228,-0.5"/>
<text text-anchor="start" x="236" y="-18.5" font-family="Verdana" font-size="10.00">CParameterMgrPlatformConnector</text>
<text text-anchor="middle" x="319" y="-7.5" font-family="Verdana" font-size="10.00">::applyConfigurations</text>
</a>
</g>
</g>
<!-- Node1&#45;&gt;Node2 -->
<g id="edge1" class="edge"><title>Node1&#45;&gt;Node2</title>
<path fill="none" stroke="midnightblue" d="M202.121,-15.5C210.764,-15.5 219.452,-15.5 227.971,-15.5"/>
<polygon fill="midnightblue" stroke="midnightblue" points="202.006,-12.0001 192.006,-15.5 202.006,-19.0001 202.006,-12.0001"/>
</g>
<!-- Node3 -->
<g id="node3" class="node"><title>Node3</title>
<g id="a_node3"><a xlink:href="ParameterFramework_8h.html#a78db487e58935caf376608255d652caa" target="_top" xlink:title="Commit criteria change and change parameters according to the configurations. ">
<polygon fill="white" stroke="black" points="446,-6 446,-25 574,-25 574,-6 446,-6"/>
<text text-anchor="middle" x="510" y="-13" font-family="Verdana" font-size="10.00">pfwApplyConfigurations</text>
</a>
</g>
</g>
<!-- Node2&#45;&gt;Node3 -->
<g id="edge2" class="edge"><title>Node2&#45;&gt;Node3</title>
<path fill="none" stroke="midnightblue" d="M420.265,-15.5C428.938,-15.5 437.546,-15.5 445.795,-15.5"/>
<polygon fill="midnightblue" stroke="midnightblue" points="420.072,-12.0001 410.072,-15.5 420.072,-19.0001 420.072,-12.0001"/>
</g>
<!-- Node4 -->
<g id="node4" class="node"><title>Node4</title>
<g id="a_node4"><a xlink:href="Test_8cpp.html#ae78f4780e83e5f2b9721a2d66c70fec9" target="_top" xlink:title="TEST_CASE_METHOD">
<polygon fill="white" stroke="black" points="610,-6 610,-25 729,-25 729,-6 610,-6"/>
<text text-anchor="middle" x="669.5" y="-13" font-family="Verdana" font-size="10.00">TEST_CASE_METHOD</text>
</a>
</g>
</g>
<!-- Node3&#45;&gt;Node4 -->
<g id="edge3" class="edge"><title>Node3&#45;&gt;Node4</title>
<path fill="none" stroke="midnightblue" d="M584.209,-15.5C592.831,-15.5 601.542,-15.5 609.926,-15.5"/>
<polygon fill="midnightblue" stroke="midnightblue" points="584.154,-12.0001 574.154,-15.5 584.154,-19.0001 584.154,-12.0001"/>
</g>
</g>
</svg>
