<?xml version="1.0" encoding="UTF-8" standalone="no"?>
<!DOCTYPE svg PUBLIC "-//W3C//DTD SVG 1.1//EN"
 "http://www.w3.org/Graphics/SVG/1.1/DTD/svg11.dtd">
<!-- Generated by graphviz version 2.38.0 (20140413.2041)
 -->
<!-- Title: CSubsystemObject::CSubsystemObject Pages: 1 -->
<svg width="383pt" height="57pt"
 viewBox="0.00 0.00 383.00 57.00" xmlns="http://www.w3.org/2000/svg" xmlns:xlink="http://www.w3.org/1999/xlink">
<g id="graph0" class="graph" transform="scale(1 1) rotate(0) translate(4 53)">
<title>CSubsystemObject::CSubsystemObject</title>
<polygon fill="white" stroke="none" points="-4,4 -4,-53 379,-53 379,4 -4,4"/>
<!-- Node1 -->
<g id="node1" class="node"><title>Node1</title>
<polygon fill="#bfbfbf" stroke="black" points="0,-0.5 0,-30.5 175,-30.5 175,-0.5 0,-0.5"/>
<text text-anchor="start" x="8" y="-18.5" font-family="Verdana" font-size="10.00">CSubsystemObject::CSubsystem</text>
<text text-anchor="middle" x="87.5" y="-7.5" font-family="Verdana" font-size="10.00">Object</text>
</g>
<!-- Node1&#45;&gt;Node1 -->
<g id="edge2" class="edge"><title>Node1&#45;&gt;Node1</title>
<path fill="none" stroke="midnightblue" d="M51.2517,-40.9579C55.7506,-45.679 67.8334,-49 87.5,-49 119.773,-49 131.624,-40.0566 123.051,-30.659"/>
<polygon fill="midnightblue" stroke="midnightblue" points="54.7654,-40.8726 51.9488,-30.659 47.7813,-40.3998 54.7654,-40.8726"/>
</g>
<!-- Node2 -->
<g id="node2" class="node"><title>Node2</title>
<g id="a_node2"><a xlink:href="classCFormattedSubsystemObject.html#aee3dcf053d429fd037d94024a475e24e" target="_top" xlink:title="Builds a new CFormattedSubsystemObject instance, without any mapping information. ...">
<polygon fill="white" stroke="black" points="211,-0.5 211,-30.5 375,-30.5 375,-0.5 211,-0.5"/>
<text text-anchor="start" x="219" y="-18.5" font-family="Verdana" font-size="10.00">CFormattedSubsystemObject</text>
<text text-anchor="middle" x="293" y="-7.5" font-family="Verdana" font-size="10.00">::CFormattedSubsystemObject</text>
</a>
</g>
</g>
<!-- Node1&#45;&gt;Node2 -->
<g id="edge1" class="edge"><title>Node1&#45;&gt;Node2</title>
<path fill="none" stroke="midnightblue" d="M185.19,-15.5C193.819,-15.5 202.497,-15.5 210.974,-15.5"/>
<polygon fill="midnightblue" stroke="midnightblue" points="185.097,-12.0001 175.097,-15.5 185.097,-19.0001 185.097,-12.0001"/>
</g>
</g>
</svg>
