<?xml version="1.0" encoding="UTF-8" standalone="no"?>
<!DOCTYPE svg PUBLIC "-//W3C//DTD SVG 1.1//EN"
 "http://www.w3.org/Graphics/SVG/1.1/DTD/svg11.dtd">
<!-- Generated by graphviz version 2.36.0 (20140111.2315)
 -->
<!-- Title: CParameterAccessContext::getParameterBlackboard Pages: 1 -->
<svg width="774pt" height="301pt"
 viewBox="0.00 0.00 774.00 301.00" xmlns="http://www.w3.org/2000/svg" xmlns:xlink="http://www.w3.org/1999/xlink">
<g id="graph0" class="graph" transform="scale(1 1) rotate(0) translate(4 297)">
<title>CParameterAccessContext::getParameterBlackboard</title>
<polygon fill="white" stroke="none" points="-4,4 -4,-297 770,-297 770,4 -4,4"/>
<!-- Node1 -->
<g id="node1" class="node"><title>Node1</title>
<polygon fill="#bfbfbf" stroke="black" points="0.5,-121 0.5,-151 145.5,-151 145.5,-121 0.5,-121"/>
<text text-anchor="start" x="8.5" y="-139" font-family="Verdana" font-size="10.00">CParameterAccessContext</text>
<text text-anchor="middle" x="73" y="-128" font-family="Verdana" font-size="10.00">::getParameterBlackboard</text>
</g>
<!-- Node2 -->
<g id="node2" class="node"><title>Node2</title>
<g id="a_node2"><a xlink:href="classCArrayParameter.html#a92c36813ec9f475880d47409c01e52db" target="_top" xlink:title="CArrayParameter::setDefault\lValues">
<polygon fill="white" stroke="black" points="186.5,-263 186.5,-293 341.5,-293 341.5,-263 186.5,-263"/>
<text text-anchor="start" x="194.5" y="-281" font-family="Verdana" font-size="10.00">CArrayParameter::setDefault</text>
<text text-anchor="middle" x="264" y="-270" font-family="Verdana" font-size="10.00">Values</text>
</a>
</g>
</g>
<!-- Node1&#45;&gt;Node2 -->
<g id="edge1" class="edge"><title>Node1&#45;&gt;Node2</title>
<path fill="none" stroke="midnightblue" d="M89.8857,-159.614C108.84,-186.04 142.92,-228.369 182,-253 188.101,-256.845 194.834,-260.134 201.733,-262.939"/>
<polygon fill="midnightblue" stroke="midnightblue" points="92.6645,-157.481 84.052,-151.31 86.9367,-161.505 92.6645,-157.481"/>
</g>
<!-- Node3 -->
<g id="node3" class="node"><title>Node3</title>
<g id="a_node3"><a xlink:href="classCBitParameterBlock.html#a74485c7734eb44648b1182cf8e884d40" target="_top" xlink:title="CBitParameterBlock\l::setDefaultValues">
<polygon fill="white" stroke="black" points="208,-214 208,-244 320,-244 320,-214 208,-214"/>
<text text-anchor="start" x="216" y="-232" font-family="Verdana" font-size="10.00">CBitParameterBlock</text>
<text text-anchor="middle" x="264" y="-221" font-family="Verdana" font-size="10.00">::setDefaultValues</text>
</a>
</g>
</g>
<!-- Node1&#45;&gt;Node3 -->
<g id="edge2" class="edge"><title>Node1&#45;&gt;Node3</title>
<path fill="none" stroke="midnightblue" d="M102.784,-157.06C123.89,-171.757 153.687,-190.993 182,-204 190.158,-207.748 199.027,-211.129 207.805,-214.105"/>
<polygon fill="midnightblue" stroke="midnightblue" points="104.77,-154.178 94.5814,-151.272 100.734,-159.897 104.77,-154.178"/>
</g>
<!-- Node4 -->
<g id="node4" class="node"><title>Node4</title>
<g id="a_node4"><a xlink:href="classCInstanceConfigurableElement.html#a2e6e7782de8e4d7e844a869917f2f037" target="_top" xlink:title="Performs the sync if the AutoSync is enabled. ">
<polygon fill="white" stroke="black" points="182,-165 182,-195 346,-195 346,-165 182,-165"/>
<text text-anchor="start" x="190" y="-183" font-family="Verdana" font-size="10.00">CInstanceConfigurableElement</text>
<text text-anchor="middle" x="264" y="-172" font-family="Verdana" font-size="10.00">::sync</text>
</a>
</g>
</g>
<!-- Node1&#45;&gt;Node4 -->
<g id="edge3" class="edge"><title>Node1&#45;&gt;Node4</title>
<path fill="none" stroke="midnightblue" d="M148.642,-153.377C165.112,-157.211 182.425,-161.242 198.456,-164.974"/>
<polygon fill="midnightblue" stroke="midnightblue" points="149.048,-149.878 138.514,-151.019 147.46,-156.696 149.048,-149.878"/>
</g>
<!-- Node10 -->
<g id="node10" class="node"><title>Node10</title>
<g id="a_node10"><a xlink:href="classCParameter.html#a26fa5e3c97be1577ad15d04295ada708" target="_top" xlink:title="CParameter::setDefaultValues">
<polygon fill="white" stroke="black" points="183.5,-126.5 183.5,-145.5 344.5,-145.5 344.5,-126.5 183.5,-126.5"/>
<text text-anchor="middle" x="264" y="-133.5" font-family="Verdana" font-size="10.00">CParameter::setDefaultValues</text>
</a>
</g>
</g>
<!-- Node1&#45;&gt;Node10 -->
<g id="edge9" class="edge"><title>Node1&#45;&gt;Node10</title>
<path fill="none" stroke="midnightblue" d="M155.935,-136C165.057,-136 174.338,-136 183.43,-136"/>
<polygon fill="midnightblue" stroke="midnightblue" points="155.722,-132.5 145.722,-136 155.722,-139.5 155.722,-132.5"/>
</g>
<!-- Node11 -->
<g id="node11" class="node"><title>Node11</title>
<g id="a_node11"><a xlink:href="classCStringParameter.html#a76f587f59ddcfd51704f55fd2fa88485" target="_top" xlink:title="CStringParameter::setDefault\lValues">
<polygon fill="white" stroke="black" points="185,-77 185,-107 343,-107 343,-77 185,-77"/>
<text text-anchor="start" x="193" y="-95" font-family="Verdana" font-size="10.00">CStringParameter::setDefault</text>
<text text-anchor="middle" x="264" y="-84" font-family="Verdana" font-size="10.00">Values</text>
</a>
</g>
</g>
<!-- Node1&#45;&gt;Node11 -->
<g id="edge10" class="edge"><title>Node1&#45;&gt;Node11</title>
<path fill="none" stroke="midnightblue" d="M148.642,-118.623C165.112,-114.789 182.425,-110.758 198.456,-107.026"/>
<polygon fill="midnightblue" stroke="midnightblue" points="147.46,-115.304 138.514,-120.981 149.048,-122.122 147.46,-115.304"/>
</g>
<!-- Node12 -->
<g id="node12" class="node"><title>Node12</title>
<g id="a_node12"><a xlink:href="classCStringParameter.html#a6a9db60ee5c1b4c620441d6e0d82bd08" target="_top" xlink:title="CStringParameter::doSetValue">
<polygon fill="white" stroke="black" points="182.5,-38.5 182.5,-57.5 345.5,-57.5 345.5,-38.5 182.5,-38.5"/>
<text text-anchor="middle" x="264" y="-45.5" font-family="Verdana" font-size="10.00">CStringParameter::doSetValue</text>
</a>
</g>
</g>
<!-- Node1&#45;&gt;Node12 -->
<g id="edge11" class="edge"><title>Node1&#45;&gt;Node12</title>
<path fill="none" stroke="midnightblue" d="M101.781,-115C122.821,-99.9914 152.967,-80.3433 182,-68 191.864,-63.8062 202.794,-60.3658 213.349,-57.5937"/>
<polygon fill="midnightblue" stroke="midnightblue" points="99.6719,-112.206 93.6292,-120.909 103.78,-117.874 99.6719,-112.206"/>
</g>
<!-- Node13 -->
<g id="node13" class="node"><title>Node13</title>
<g id="a_node13"><a xlink:href="classCStringParameter.html#a4e52ebcdfe2da9b4e9089545d539e9fb" target="_top" xlink:title="CStringParameter::doGetValue">
<polygon fill="white" stroke="black" points="182,-0.5 182,-19.5 346,-19.5 346,-0.5 182,-0.5"/>
<text text-anchor="middle" x="264" y="-7.5" font-family="Verdana" font-size="10.00">CStringParameter::doGetValue</text>
</a>
</g>
</g>
<!-- Node1&#45;&gt;Node13 -->
<g id="edge12" class="edge"><title>Node1&#45;&gt;Node13</title>
<path fill="none" stroke="midnightblue" d="M90.9371,-112.865C110.213,-88.2562 143.992,-50.0399 182,-29 188.95,-25.1525 196.653,-22.0812 204.464,-19.6302"/>
<polygon fill="midnightblue" stroke="midnightblue" points="88.045,-110.884 84.7406,-120.951 93.6012,-115.142 88.045,-110.884"/>
</g>
<!-- Node5 -->
<g id="node5" class="node"><title>Node5</title>
<g id="a_node5"><a xlink:href="classCArrayParameter.html#a07b3af958a03b2295be159f69b22d42d" target="_top" xlink:title="CArrayParameter::accessValue">
<polygon fill="white" stroke="black" points="386,-214.5 386,-233.5 550,-233.5 550,-214.5 386,-214.5"/>
<text text-anchor="middle" x="468" y="-221.5" font-family="Verdana" font-size="10.00">CArrayParameter::accessValue</text>
</a>
</g>
</g>
<!-- Node4&#45;&gt;Node5 -->
<g id="edge4" class="edge"><title>Node4&#45;&gt;Node5</title>
<path fill="none" stroke="midnightblue" d="M343.797,-197.164C370.834,-203.053 400.105,-209.429 423.329,-214.488"/>
<polygon fill="midnightblue" stroke="midnightblue" points="344.468,-193.728 333.952,-195.019 342.978,-200.567 344.468,-193.728"/>
</g>
<!-- Node6 -->
<g id="node6" class="node"><title>Node6</title>
<g id="a_node6"><a xlink:href="classCBaseParameter.html#a2b425561e193a3d54e7225d896a3d39b" target="_top" xlink:title="CBaseParameter::accessAs\lString">
<polygon fill="white" stroke="black" points="393.5,-165 393.5,-195 542.5,-195 542.5,-165 393.5,-165"/>
<text text-anchor="start" x="401.5" y="-183" font-family="Verdana" font-size="10.00">CBaseParameter::accessAs</text>
<text text-anchor="middle" x="468" y="-172" font-family="Verdana" font-size="10.00">String</text>
</a>
</g>
</g>
<!-- Node4&#45;&gt;Node6 -->
<g id="edge5" class="edge"><title>Node4&#45;&gt;Node6</title>
<path fill="none" stroke="midnightblue" d="M356.581,-180C368.907,-180 381.422,-180 393.382,-180"/>
<polygon fill="midnightblue" stroke="midnightblue" points="356.288,-176.5 346.288,-180 356.288,-183.5 356.288,-176.5"/>
</g>
<!-- Node8 -->
<g id="node8" class="node"><title>Node8</title>
<g id="a_node8"><a xlink:href="classCBitParameter.html#ad348903f16d702fac8adcfa1c725a92b" target="_top" xlink:title="CBitParameter::accessAsInteger">
<polygon fill="white" stroke="black" points="382.5,-126.5 382.5,-145.5 553.5,-145.5 553.5,-126.5 382.5,-126.5"/>
<text text-anchor="middle" x="468" y="-133.5" font-family="Verdana" font-size="10.00">CBitParameter::accessAsInteger</text>
</a>
</g>
</g>
<!-- Node4&#45;&gt;Node8 -->
<g id="edge7" class="edge"><title>Node4&#45;&gt;Node8</title>
<path fill="none" stroke="midnightblue" d="M343.797,-162.836C370.834,-156.947 400.105,-150.571 423.329,-145.512"/>
<polygon fill="midnightblue" stroke="midnightblue" points="342.978,-159.433 333.952,-164.981 344.468,-166.272 342.978,-159.433"/>
</g>
<!-- Node7 -->
<g id="node7" class="node"><title>Node7</title>
<g id="a_node7"><a xlink:href="classCBaseParameter.html#a4a9b3e3a2d1ea65a8dc7048559db8dc2" target="_top" xlink:title="CBaseParameter::accessValue">
<polygon fill="white" stroke="black" points="596.5,-170.5 596.5,-189.5 759.5,-189.5 759.5,-170.5 596.5,-170.5"/>
<text text-anchor="middle" x="678" y="-177.5" font-family="Verdana" font-size="10.00">CBaseParameter::accessValue</text>
</a>
</g>
</g>
<!-- Node6&#45;&gt;Node7 -->
<g id="edge6" class="edge"><title>Node6&#45;&gt;Node7</title>
<path fill="none" stroke="midnightblue" d="M552.955,-180C567.291,-180 582.155,-180 596.401,-180"/>
<polygon fill="midnightblue" stroke="midnightblue" points="552.626,-176.5 542.626,-180 552.626,-183.5 552.626,-176.5"/>
</g>
<!-- Node9 -->
<g id="node9" class="node"><title>Node9</title>
<g id="a_node9"><a xlink:href="classCBitParameter.html#a2e0ed93baec3479a9b92314818433a31" target="_top" xlink:title="Value access. ">
<polygon fill="white" stroke="black" points="590,-126.5 590,-145.5 766,-145.5 766,-126.5 590,-126.5"/>
<text text-anchor="middle" x="678" y="-133.5" font-family="Verdana" font-size="10.00">CBitParameter::accessAsBoolean</text>
</a>
</g>
</g>
<!-- Node8&#45;&gt;Node9 -->
<g id="edge8" class="edge"><title>Node8&#45;&gt;Node9</title>
<path fill="none" stroke="midnightblue" d="M563.73,-136C572.404,-136 581.165,-136 589.769,-136"/>
<polygon fill="midnightblue" stroke="midnightblue" points="563.602,-132.5 553.602,-136 563.602,-139.5 563.602,-132.5"/>
</g>
</g>
</svg>
