<?xml version="1.0" encoding="UTF-8" standalone="no"?>
<!DOCTYPE svg PUBLIC "-//W3C//DTD SVG 1.1//EN"
 "http://www.w3.org/Graphics/SVG/1.1/DTD/svg11.dtd">
<!-- Generated by graphviz version 2.38.0 (20140413.2041)
 -->
<!-- Title: CXmlDocSink Pages: 1 -->
<svg width="262pt" height="140pt"
 viewBox="0.00 0.00 261.50 140.00" xmlns="http://www.w3.org/2000/svg" xmlns:xlink="http://www.w3.org/1999/xlink">
<g id="graph0" class="graph" transform="scale(1 1) rotate(0) translate(4 136)">
<title>CXmlDocSink</title>
<polygon fill="white" stroke="none" points="-4,4 -4,-136 257.5,-136 257.5,4 -4,4"/>
<!-- Node1 -->
<g id="node1" class="node"><title>Node1</title>
<polygon fill="#bfbfbf" stroke="black" points="87.5,-56.5 87.5,-75.5 167.5,-75.5 167.5,-56.5 87.5,-56.5"/>
<text text-anchor="middle" x="127.5" y="-63.5" font-family="Verdana" font-size="10.00">CXmlDocSink</text>
</g>
<!-- Node3 -->
<g id="node3" class="node"><title>Node3</title>
<g id="a_node3"><a xlink:href="classCXmlMemoryDocSink.html" target="_top" xlink:title="Sink class used to parse an xml document and instanciate parameter&#45;framework structures. ">
<polygon fill="white" stroke="black" points="0,-0.5 0,-19.5 119,-19.5 119,-0.5 0,-0.5"/>
<text text-anchor="middle" x="59.5" y="-7.5" font-family="Verdana" font-size="10.00">CXmlMemoryDocSink</text>
</a>
</g>
</g>
<!-- Node1&#45;&gt;Node3 -->
<g id="edge2" class="edge"><title>Node1&#45;&gt;Node3</title>
<path fill="none" stroke="midnightblue" d="M108.738,-50.1008C96.5001,-40.3824 80.9413,-28.0269 70.6242,-19.8339"/>
<polygon fill="midnightblue" stroke="midnightblue" points="106.567,-52.846 116.575,-56.324 110.92,-47.3642 106.567,-52.846"/>
</g>
<!-- Node4 -->
<g id="node4" class="node"><title>Node4</title>
<g id="a_node4"><a xlink:href="classCXmlStreamDocSink.html" target="_top" xlink:title="Sink class that writes the content of any CXmlDocSource into a std::string. ">
<polygon fill="white" stroke="black" points="137.5,-0.5 137.5,-19.5 253.5,-19.5 253.5,-0.5 137.5,-0.5"/>
<text text-anchor="middle" x="195.5" y="-7.5" font-family="Verdana" font-size="10.00">CXmlStreamDocSink</text>
</a>
</g>
</g>
<!-- Node1&#45;&gt;Node4 -->
<g id="edge3" class="edge"><title>Node1&#45;&gt;Node4</title>
<path fill="none" stroke="midnightblue" d="M146.262,-50.1008C158.5,-40.3824 174.059,-28.0269 184.376,-19.8339"/>
<polygon fill="midnightblue" stroke="midnightblue" points="144.08,-47.3642 138.425,-56.324 148.433,-52.846 144.08,-47.3642"/>
</g>
<!-- Node2 -->
<g id="node2" class="node"><title>Node2</title>
<g id="a_node2"><a xlink:href="classutility_1_1NonCopyable.html" target="_top" xlink:title="Base class for private inheritance to make the derived class non copyable. ">
<polygon fill="white" stroke="black" points="72,-112.5 72,-131.5 183,-131.5 183,-112.5 72,-112.5"/>
<text text-anchor="middle" x="127.5" y="-119.5" font-family="Verdana" font-size="10.00">utility::NonCopyable</text>
</a>
</g>
</g>
<!-- Node2&#45;&gt;Node1 -->
<g id="edge1" class="edge"><title>Node2&#45;&gt;Node1</title>
<path fill="none" stroke="#8b1a1a" d="M127.5,-101.805C127.5,-92.9102 127.5,-82.7798 127.5,-75.7511"/>
<polygon fill="#8b1a1a" stroke="#8b1a1a" points="124,-102.083 127.5,-112.083 131,-102.083 124,-102.083"/>
</g>
</g>
</svg>
