<?xml version="1.0" encoding="UTF-8" standalone="no"?>
<!DOCTYPE svg PUBLIC "-//W3C//DTD SVG 1.1//EN"
 "http://www.w3.org/Graphics/SVG/1.1/DTD/svg11.dtd">
<!-- Generated by graphviz version 2.36.0 (20140111.2315)
 -->
<!-- Title: CDomainConfiguration::split Pages: 1 -->
<svg width="490pt" height="164pt"
 viewBox="0.00 0.00 490.00 164.00" xmlns="http://www.w3.org/2000/svg" xmlns:xlink="http://www.w3.org/1999/xlink">
<g id="graph0" class="graph" transform="scale(1 1) rotate(0) translate(4 160)">
<title>CDomainConfiguration::split</title>
<polygon fill="white" stroke="none" points="-4,4 -4,-160 486,-160 486,4 -4,4"/>
<!-- Node1 -->
<g id="node1" class="node"><title>Node1</title>
<polygon fill="#bfbfbf" stroke="black" points="0.5,-93 0.5,-123 125.5,-123 125.5,-93 0.5,-93"/>
<text text-anchor="start" x="8.5" y="-111" font-family="Verdana" font-size="10.00">CDomainConfiguration</text>
<text text-anchor="middle" x="63" y="-100" font-family="Verdana" font-size="10.00">::split</text>
</g>
<!-- Node2 -->
<g id="node2" class="node"><title>Node2</title>
<g id="a_node2"><a xlink:href="classCElement.html#a58b6cdb5715497442fde6afa1e65f8e5" target="_top" xlink:title="CElement::getNbChildren">
<polygon fill="white" stroke="black" points="162.5,-136.5 162.5,-155.5 299.5,-155.5 299.5,-136.5 162.5,-136.5"/>
<text text-anchor="middle" x="231" y="-143.5" font-family="Verdana" font-size="10.00">CElement::getNbChildren</text>
</a>
</g>
</g>
<!-- Node1&#45;&gt;Node2 -->
<g id="edge1" class="edge"><title>Node1&#45;&gt;Node2</title>
<path fill="none" stroke="midnightblue" d="M125.812,-122.15C143.064,-126.099 161.625,-130.348 178.233,-134.15"/>
<polygon fill="midnightblue" stroke="midnightblue" points="177.763,-137.633 188.292,-136.452 179.325,-130.809 177.763,-137.633"/>
</g>
<!-- Node3 -->
<g id="node3" class="node"><title>Node3</title>
<g id="a_node3"><a xlink:href="classCElement.html#a9bba10d2dc72821589a898e16ace9ae5" target="_top" xlink:title="Get a child element (const) ">
<polygon fill="white" stroke="black" points="177,-98.5 177,-117.5 285,-117.5 285,-98.5 177,-98.5"/>
<text text-anchor="middle" x="231" y="-105.5" font-family="Verdana" font-size="10.00">CElement::getChild</text>
</a>
</g>
</g>
<!-- Node1&#45;&gt;Node3 -->
<g id="edge2" class="edge"><title>Node1&#45;&gt;Node3</title>
<path fill="none" stroke="midnightblue" d="M125.812,-108C139.181,-108 153.336,-108 166.759,-108"/>
<polygon fill="midnightblue" stroke="midnightblue" points="166.856,-111.5 176.856,-108 166.856,-104.5 166.856,-111.5"/>
</g>
<!-- Node4 -->
<g id="node4" class="node"><title>Node4</title>
<g id="a_node4"><a xlink:href="classCAreaConfiguration.html#aa66ebde5e339fbea35c7a5f46403c770" target="_top" xlink:title="CAreaConfiguration\l::copyFromOuter">
<polygon fill="white" stroke="black" points="176,-49 176,-79 286,-79 286,-49 176,-49"/>
<text text-anchor="start" x="184" y="-67" font-family="Verdana" font-size="10.00">CAreaConfiguration</text>
<text text-anchor="middle" x="231" y="-56" font-family="Verdana" font-size="10.00">::copyFromOuter</text>
</a>
</g>
</g>
<!-- Node1&#45;&gt;Node4 -->
<g id="edge3" class="edge"><title>Node1&#45;&gt;Node4</title>
<path fill="none" stroke="midnightblue" d="M120.663,-92.9808C135.302,-89.1006 151.161,-84.8972 166.139,-80.9269"/>
<polygon fill="midnightblue" stroke="midnightblue" points="167.064,-84.3027 175.834,-78.3573 165.271,-77.5363 167.064,-84.3027"/>
</g>
<!-- Node5 -->
<g id="node5" class="node"><title>Node5</title>
<g id="a_node5"><a xlink:href="classCElement.html#a7653fbad5491138533ac0fa889ffecd9" target="_top" xlink:title="CElement::isDescendantOf">
<polygon fill="white" stroke="black" points="336.5,-98.5 336.5,-117.5 481.5,-117.5 481.5,-98.5 336.5,-98.5"/>
<text text-anchor="middle" x="409" y="-105.5" font-family="Verdana" font-size="10.00">CElement::isDescendantOf</text>
</a>
</g>
</g>
<!-- Node4&#45;&gt;Node5 -->
<g id="edge4" class="edge"><title>Node4&#45;&gt;Node5</title>
<path fill="none" stroke="midnightblue" d="M286.242,-77.5605C309.821,-83.4553 337.212,-90.3029 360.036,-96.0089"/>
<polygon fill="midnightblue" stroke="midnightblue" points="359.291,-99.4303 369.841,-98.4603 360.989,-92.6393 359.291,-99.4303"/>
</g>
<!-- Node6 -->
<g id="node6" class="node"><title>Node6</title>
<g id="a_node6"><a xlink:href="classCAreaConfiguration.html#a1f85dedf12591c3f43830a00e5c352df" target="_top" xlink:title="CAreaConfiguration\l::getConfigurableElement">
<polygon fill="white" stroke="black" points="340,-49 340,-79 478,-79 478,-49 340,-49"/>
<text text-anchor="start" x="348" y="-67" font-family="Verdana" font-size="10.00">CAreaConfiguration</text>
<text text-anchor="middle" x="409" y="-56" font-family="Verdana" font-size="10.00">::getConfigurableElement</text>
</a>
</g>
</g>
<!-- Node4&#45;&gt;Node6 -->
<g id="edge6" class="edge"><title>Node4&#45;&gt;Node6</title>
<path fill="none" stroke="midnightblue" d="M286.242,-64C300.029,-64 315.118,-64 329.836,-64"/>
<polygon fill="midnightblue" stroke="midnightblue" points="329.946,-67.5001 339.946,-64 329.946,-60.5001 329.946,-67.5001"/>
</g>
<!-- Node7 -->
<g id="node7" class="node"><title>Node7</title>
<g id="a_node7"><a xlink:href="classCConfigurableElement.html#a29d61e6d09ff508ebb87aea802f2704e" target="_top" xlink:title="CConfigurableElement\l::getOffset">
<polygon fill="white" stroke="black" points="347.5,-0 347.5,-30 470.5,-30 470.5,-0 347.5,-0"/>
<text text-anchor="start" x="355.5" y="-18" font-family="Verdana" font-size="10.00">CConfigurableElement</text>
<text text-anchor="middle" x="409" y="-7" font-family="Verdana" font-size="10.00">::getOffset</text>
</a>
</g>
</g>
<!-- Node4&#45;&gt;Node7 -->
<g id="edge7" class="edge"><title>Node4&#45;&gt;Node7</title>
<path fill="none" stroke="midnightblue" d="M286.242,-48.8986C304.562,-43.7981 325.183,-38.0571 344.175,-32.7695"/>
<polygon fill="midnightblue" stroke="midnightblue" points="345.242,-36.1055 353.937,-30.0516 343.365,-29.362 345.242,-36.1055"/>
</g>
<!-- Node5&#45;&gt;Node5 -->
<g id="edge5" class="edge"><title>Node5&#45;&gt;Node5</title>
<path fill="none" stroke="midnightblue" d="M381.565,-117.757C368.218,-126.565 377.363,-136 409,-136 430.75,-136 441.87,-131.541 442.358,-125.891"/>
<polygon fill="midnightblue" stroke="midnightblue" points="445.151,-123.781 436.435,-117.757 439.492,-127.901 445.151,-123.781"/>
</g>
</g>
</svg>
