<?xml version="1.0" encoding="UTF-8" standalone="no"?>
<!DOCTYPE svg PUBLIC "-//W3C//DTD SVG 1.1//EN"
 "http://www.w3.org/Graphics/SVG/1.1/DTD/svg11.dtd">
<!-- Generated by graphviz version 2.38.0 (20140413.2041)
 -->
<!-- Title: CParameterType::getSize Pages: 1 -->
<svg width="550pt" height="410pt"
 viewBox="0.00 0.00 550.00 409.50" xmlns="http://www.w3.org/2000/svg" xmlns:xlink="http://www.w3.org/1999/xlink">
<g id="graph0" class="graph" transform="scale(1 1) rotate(0) translate(4 405.5)">
<title>CParameterType::getSize</title>
<polygon fill="white" stroke="none" points="-4,4 -4,-405.5 546,-405.5 546,4 -4,4"/>
<!-- Node1 -->
<g id="node1" class="node"><title>Node1</title>
<polygon fill="#bfbfbf" stroke="black" points="0,-180.5 0,-199.5 137,-199.5 137,-180.5 0,-180.5"/>
<text text-anchor="middle" x="68.5" y="-187.5" font-family="Verdana" font-size="10.00">CParameterType::getSize</text>
</g>
<!-- Node2 -->
<g id="node2" class="node"><title>Node2</title>
<g id="a_node2"><a xlink:href="classCEnumParameterType.html#a657fc941f16df1059a7f1377aa85b258" target="_top" xlink:title="CEnumParameterType\l::toXml">
<polygon fill="white" stroke="black" points="200.5,-371 200.5,-401 322.5,-401 322.5,-371 200.5,-371"/>
<text text-anchor="start" x="208.5" y="-389" font-family="Verdana" font-size="10.00">CEnumParameterType</text>
<text text-anchor="middle" x="261.5" y="-378" font-family="Verdana" font-size="10.00">::toXml</text>
</a>
</g>
</g>
<!-- Node1&#45;&gt;Node2 -->
<g id="edge1" class="edge"><title>Node1&#45;&gt;Node2</title>
<path fill="none" stroke="midnightblue" d="M75.6476,-209.228C88.0736,-244.946 119.632,-321.564 173,-362 181.035,-368.088 190.522,-372.632 200.231,-376.024"/>
<polygon fill="midnightblue" stroke="midnightblue" points="78.898,-207.912 72.4026,-199.542 72.2606,-210.136 78.898,-207.912"/>
</g>
<!-- Node3 -->
<g id="node3" class="node"><title>Node3</title>
<g id="a_node3"><a xlink:href="classCFixedPointParameterType.html#a915d48511911653dc8ddf03cf39dc0ec" target="_top" xlink:title="CFixedPointParameterType\l::fromBlackboard">
<polygon fill="white" stroke="black" points="190,-322 190,-352 333,-352 333,-322 190,-322"/>
<text text-anchor="start" x="198" y="-340" font-family="Verdana" font-size="10.00">CFixedPointParameterType</text>
<text text-anchor="middle" x="261.5" y="-329" font-family="Verdana" font-size="10.00">::fromBlackboard</text>
</a>
</g>
</g>
<!-- Node1&#45;&gt;Node3 -->
<g id="edge2" class="edge"><title>Node1&#45;&gt;Node3</title>
<path fill="none" stroke="midnightblue" d="M80.0462,-208.564C96.4108,-235.666 130.506,-285.793 173,-313 178.306,-316.397 184.091,-319.319 190.074,-321.831"/>
<polygon fill="midnightblue" stroke="midnightblue" points="82.9229,-206.551 74.8366,-199.705 76.889,-210.099 82.9229,-206.551"/>
</g>
<!-- Node4 -->
<g id="node4" class="node"><title>Node4</title>
<g id="a_node4"><a xlink:href="classCFixedPointParameterType.html#ac9e0de762e60d0cfce00122bdbef137e" target="_top" xlink:title="CFixedPointParameterType\l::toXml">
<polygon fill="white" stroke="black" points="190,-273 190,-303 333,-303 333,-273 190,-273"/>
<text text-anchor="start" x="198" y="-291" font-family="Verdana" font-size="10.00">CFixedPointParameterType</text>
<text text-anchor="middle" x="261.5" y="-280" font-family="Verdana" font-size="10.00">::toXml</text>
</a>
</g>
</g>
<!-- Node1&#45;&gt;Node4 -->
<g id="edge3" class="edge"><title>Node1&#45;&gt;Node4</title>
<path fill="none" stroke="midnightblue" d="M87.7726,-206.153C107.52,-222.837 140.539,-248.551 173,-264 180.112,-267.385 187.783,-270.363 195.525,-272.964"/>
<polygon fill="midnightblue" stroke="midnightblue" points="90.0274,-203.476 80.1622,-199.612 85.4647,-208.785 90.0274,-203.476"/>
</g>
<!-- Node5 -->
<g id="node5" class="node"><title>Node5</title>
<g id="a_node5"><a xlink:href="classCFloatingPointParameterType.html#a8547b2d6ef0c74ad34985ffc96a289a3" target="_top" xlink:title="CFloatingPointParameterType\l::fromBlackboard">
<polygon fill="white" stroke="black" points="183.5,-224 183.5,-254 339.5,-254 339.5,-224 183.5,-224"/>
<text text-anchor="start" x="191.5" y="-242" font-family="Verdana" font-size="10.00">CFloatingPointParameterType</text>
<text text-anchor="middle" x="261.5" y="-231" font-family="Verdana" font-size="10.00">::fromBlackboard</text>
</a>
</g>
</g>
<!-- Node1&#45;&gt;Node5 -->
<g id="edge4" class="edge"><title>Node1&#45;&gt;Node5</title>
<path fill="none" stroke="midnightblue" d="M116.672,-202.102C142.423,-208.708 174.539,-216.947 201.887,-223.963"/>
<polygon fill="midnightblue" stroke="midnightblue" points="117.336,-198.659 106.78,-199.564 115.597,-205.439 117.336,-198.659"/>
</g>
<!-- Node6 -->
<g id="node6" class="node"><title>Node6</title>
<g id="a_node6"><a xlink:href="classCFloatingPointParameterType.html#ab6a0070b3b32a68d8dd1cb3868019817" target="_top" xlink:title="CFloatingPointParameterType\l::toXml">
<polygon fill="white" stroke="black" points="183.5,-175 183.5,-205 339.5,-205 339.5,-175 183.5,-175"/>
<text text-anchor="start" x="191.5" y="-193" font-family="Verdana" font-size="10.00">CFloatingPointParameterType</text>
<text text-anchor="middle" x="261.5" y="-182" font-family="Verdana" font-size="10.00">::toXml</text>
</a>
</g>
</g>
<!-- Node1&#45;&gt;Node6 -->
<g id="edge5" class="edge"><title>Node1&#45;&gt;Node6</title>
<path fill="none" stroke="midnightblue" d="M147.381,-190C159.202,-190 171.396,-190 183.204,-190"/>
<polygon fill="midnightblue" stroke="midnightblue" points="147.108,-186.5 137.108,-190 147.108,-193.5 147.108,-186.5"/>
</g>
<!-- Node7 -->
<g id="node7" class="node"><title>Node7</title>
<g id="a_node7"><a xlink:href="classCIntegerParameterType.html#a20f5eb6c8e4cea3d1f0ccdb92e1d008c" target="_top" xlink:title="CIntegerParameterType\l::fromBlackboard">
<polygon fill="white" stroke="black" points="197.5,-126 197.5,-156 325.5,-156 325.5,-126 197.5,-126"/>
<text text-anchor="start" x="205.5" y="-144" font-family="Verdana" font-size="10.00">CIntegerParameterType</text>
<text text-anchor="middle" x="261.5" y="-133" font-family="Verdana" font-size="10.00">::fromBlackboard</text>
</a>
</g>
</g>
<!-- Node1&#45;&gt;Node7 -->
<g id="edge6" class="edge"><title>Node1&#45;&gt;Node7</title>
<path fill="none" stroke="midnightblue" d="M116.672,-177.898C142.423,-171.292 174.539,-163.053 201.887,-156.037"/>
<polygon fill="midnightblue" stroke="midnightblue" points="115.597,-174.561 106.78,-180.436 117.336,-181.341 115.597,-174.561"/>
</g>
<!-- Node8 -->
<g id="node8" class="node"><title>Node8</title>
<g id="a_node8"><a xlink:href="classCIntegerParameterType.html#a26c10292fad5a8e6603dc0673f813d69" target="_top" xlink:title="CIntegerParameterType\l::toXml">
<polygon fill="white" stroke="black" points="197.5,-77 197.5,-107 325.5,-107 325.5,-77 197.5,-77"/>
<text text-anchor="start" x="205.5" y="-95" font-family="Verdana" font-size="10.00">CIntegerParameterType</text>
<text text-anchor="middle" x="261.5" y="-84" font-family="Verdana" font-size="10.00">::toXml</text>
</a>
</g>
</g>
<!-- Node1&#45;&gt;Node8 -->
<g id="edge7" class="edge"><title>Node1&#45;&gt;Node8</title>
<path fill="none" stroke="midnightblue" d="M88.1648,-173.882C108.007,-157.485 140.892,-132.363 173,-117 180.838,-113.249 189.347,-109.957 197.877,-107.098"/>
<polygon fill="midnightblue" stroke="midnightblue" points="85.9055,-171.209 80.5,-180.321 90.4081,-176.568 85.9055,-171.209"/>
</g>
<!-- Node9 -->
<g id="node9" class="node"><title>Node9</title>
<g id="a_node9"><a xlink:href="classCParameterType.html#aa7af90f44722bc279f98bcc94f7f69c0" target="_top" xlink:title="CParameterType::showProperties">
<polygon fill="white" stroke="black" points="175,-38.5 175,-57.5 348,-57.5 348,-38.5 175,-38.5"/>
<text text-anchor="middle" x="261.5" y="-45.5" font-family="Verdana" font-size="10.00">CParameterType::showProperties</text>
</a>
</g>
</g>
<!-- Node1&#45;&gt;Node9 -->
<g id="edge8" class="edge"><title>Node1&#45;&gt;Node9</title>
<path fill="none" stroke="midnightblue" d="M79.9367,-171.352C96.1624,-144.17 130.083,-94.0759 173,-68 180.191,-63.6306 188.242,-60.2147 196.47,-57.5443"/>
<polygon fill="midnightblue" stroke="midnightblue" points="76.7692,-169.837 74.7755,-180.242 82.8231,-173.351 76.7692,-169.837"/>
</g>
<!-- Node11 -->
<g id="node11" class="node"><title>Node11</title>
<g id="a_node11"><a xlink:href="classCParameterType.html#a5fe8903d0958345169b3ad4c0534ecf4" target="_top" xlink:title="CParameterType::makeEncodable">
<polygon fill="white" stroke="black" points="173,-0.5 173,-19.5 350,-19.5 350,-0.5 173,-0.5"/>
<text text-anchor="middle" x="261.5" y="-7.5" font-family="Verdana" font-size="10.00">CParameterType::makeEncodable</text>
</a>
</g>
</g>
<!-- Node1&#45;&gt;Node11 -->
<g id="edge10" class="edge"><title>Node1&#45;&gt;Node11</title>
<path fill="none" stroke="midnightblue" d="M76.3526,-170.315C89.4132,-135.864 121.269,-64.8977 173,-29 178.492,-25.1892 184.607,-22.1225 190.982,-19.6575"/>
<polygon fill="midnightblue" stroke="midnightblue" points="72.9124,-169.533 72.7713,-180.127 79.488,-171.933 72.9124,-169.533"/>
</g>
<!-- Node10 -->
<g id="node10" class="node"><title>Node10</title>
<g id="a_node10"><a xlink:href="classCFloatingPointParameterType.html#a73e859ba1b414c497bc3562b15168087" target="_top" xlink:title="CFloatingPointParameterType\l::showProperties">
<polygon fill="white" stroke="black" points="386,-33 386,-63 542,-63 542,-33 386,-33"/>
<text text-anchor="start" x="394" y="-51" font-family="Verdana" font-size="10.00">CFloatingPointParameterType</text>
<text text-anchor="middle" x="464" y="-40" font-family="Verdana" font-size="10.00">::showProperties</text>
</a>
</g>
</g>
<!-- Node9&#45;&gt;Node10 -->
<g id="edge9" class="edge"><title>Node9&#45;&gt;Node10</title>
<path fill="none" stroke="midnightblue" d="M358.171,-48C367.475,-48 376.831,-48 385.918,-48"/>
<polygon fill="midnightblue" stroke="midnightblue" points="358.112,-44.5001 348.112,-48 358.112,-51.5001 358.112,-44.5001"/>
</g>
</g>
</svg>
