<?xml version="1.0" encoding="UTF-8" standalone="no"?>
<!DOCTYPE svg PUBLIC "-//W3C//DTD SVG 1.1//EN"
 "http://www.w3.org/Graphics/SVG/1.1/DTD/svg11.dtd">
<!-- Generated by graphviz version 2.38.0 (20140413.2041)
 -->
<!-- Title: CIntegerParameterType::showProperties Pages: 1 -->
<svg width="448pt" height="39pt"
 viewBox="0.00 0.00 448.00 39.00" xmlns="http://www.w3.org/2000/svg" xmlns:xlink="http://www.w3.org/1999/xlink">
<g id="graph0" class="graph" transform="scale(1 1) rotate(0) translate(4 35)">
<title>CIntegerParameterType::showProperties</title>
<polygon fill="white" stroke="none" points="-4,4 -4,-35 444,-35 444,4 -4,4"/>
<!-- Node1 -->
<g id="node1" class="node"><title>Node1</title>
<polygon fill="#bfbfbf" stroke="black" points="0,-0.5 0,-30.5 128,-30.5 128,-0.5 0,-0.5"/>
<text text-anchor="start" x="8" y="-18.5" font-family="Verdana" font-size="10.00">CIntegerParameterType</text>
<text text-anchor="middle" x="64" y="-7.5" font-family="Verdana" font-size="10.00">::showProperties</text>
</g>
<!-- Node2 -->
<g id="node2" class="node"><title>Node2</title>
<g id="a_node2"><a xlink:href="classCParameterAdaptation.html#a834e99e4cda9f48eb02c506e21a49f40" target="_top" xlink:title="CParameterAdaptation\l::showProperties">
<polygon fill="white" stroke="black" points="164,-0.5 164,-30.5 290,-30.5 290,-0.5 164,-0.5"/>
<text text-anchor="start" x="172" y="-18.5" font-family="Verdana" font-size="10.00">CParameterAdaptation</text>
<text text-anchor="middle" x="227" y="-7.5" font-family="Verdana" font-size="10.00">::showProperties</text>
</a>
</g>
</g>
<!-- Node1&#45;&gt;Node2 -->
<g id="edge1" class="edge"><title>Node1&#45;&gt;Node2</title>
<path fill="none" stroke="midnightblue" d="M128.169,-15.5C136.499,-15.5 145.089,-15.5 153.559,-15.5"/>
<polygon fill="midnightblue" stroke="midnightblue" points="153.805,-19.0001 163.804,-15.5 153.804,-12.0001 153.805,-19.0001"/>
</g>
<!-- Node3 -->
<g id="node3" class="node"><title>Node3</title>
<g id="a_node3"><a xlink:href="classCElement.html#a49581fb6412e29e932962acd82d52d6a" target="_top" xlink:title="CElement::getName">
<polygon fill="white" stroke="black" points="326,-6 326,-25 440,-25 440,-6 326,-6"/>
<text text-anchor="middle" x="383" y="-13" font-family="Verdana" font-size="10.00">CElement::getName</text>
</a>
</g>
</g>
<!-- Node2&#45;&gt;Node3 -->
<g id="edge2" class="edge"><title>Node2&#45;&gt;Node3</title>
<path fill="none" stroke="midnightblue" d="M290.194,-15.5C298.502,-15.5 307.05,-15.5 315.43,-15.5"/>
<polygon fill="midnightblue" stroke="midnightblue" points="315.541,-19.0001 325.541,-15.5 315.541,-12.0001 315.541,-19.0001"/>
</g>
</g>
</svg>
