<?xml version="1.0" encoding="UTF-8" standalone="no"?>
<!DOCTYPE svg PUBLIC "-//W3C//DTD SVG 1.1//EN"
 "http://www.w3.org/Graphics/SVG/1.1/DTD/svg11.dtd">
<!-- Generated by graphviz version 2.38.0 (20140413.2041)
 -->
<!-- Title: CParameterMgrPlatformConnector::createParameterHandle Pages: 1 -->
<svg width="1000pt" height="134pt"
 viewBox="0.00 0.00 1000.00 133.50" xmlns="http://www.w3.org/2000/svg" xmlns:xlink="http://www.w3.org/1999/xlink">
<g id="graph0" class="graph" transform="scale(1 1) rotate(0) translate(4 129.5)">
<title>CParameterMgrPlatformConnector::createParameterHandle</title>
<polygon fill="white" stroke="none" points="-4,4 -4,-129.5 996,-129.5 996,4 -4,4"/>
<!-- Node1 -->
<g id="node1" class="node"><title>Node1</title>
<polygon fill="#bfbfbf" stroke="black" points="0,-26 0,-56 182,-56 182,-26 0,-26"/>
<text text-anchor="start" x="8" y="-44" font-family="Verdana" font-size="10.00">CParameterMgrPlatformConnector</text>
<text text-anchor="middle" x="91" y="-33" font-family="Verdana" font-size="10.00">::createParameterHandle</text>
</g>
<!-- Node2 -->
<g id="node2" class="node"><title>Node2</title>
<g id="a_node2"><a xlink:href="classCParameterMgr.html#ada6dd503a49385c74029b7c0e8e1ba0e" target="_top" xlink:title="CParameterMgr::createParameter\lHandle">
<polygon fill="white" stroke="black" points="218,-26 218,-56 397,-56 397,-26 218,-26"/>
<text text-anchor="start" x="226" y="-44" font-family="Verdana" font-size="10.00">CParameterMgr::createParameter</text>
<text text-anchor="middle" x="307.5" y="-33" font-family="Verdana" font-size="10.00">Handle</text>
</a>
</g>
</g>
<!-- Node1&#45;&gt;Node2 -->
<g id="edge1" class="edge"><title>Node1&#45;&gt;Node2</title>
<path fill="none" stroke="midnightblue" d="M182.035,-41C190.523,-41 199.158,-41 207.721,-41"/>
<polygon fill="midnightblue" stroke="midnightblue" points="207.726,-44.5001 217.726,-41 207.726,-37.5001 207.726,-44.5001"/>
</g>
<!-- Node3 -->
<g id="node3" class="node"><title>Node3</title>
<g id="a_node3"><a xlink:href="classCParameterMgr.html#ad3ee51d6a9f2e0d0ea143a238120b5af" target="_top" xlink:title="const version of getConfigurableElement ">
<polygon fill="white" stroke="black" points="433,-51 433,-81 606,-81 606,-51 433,-51"/>
<text text-anchor="start" x="441" y="-69" font-family="Verdana" font-size="10.00">CParameterMgr::getConfigurable</text>
<text text-anchor="middle" x="519.5" y="-58" font-family="Verdana" font-size="10.00">Element</text>
</a>
</g>
</g>
<!-- Node2&#45;&gt;Node3 -->
<g id="edge2" class="edge"><title>Node2&#45;&gt;Node3</title>
<path fill="none" stroke="midnightblue" d="M397.255,-51.566C405.703,-52.5717 414.294,-53.5946 422.804,-54.6076"/>
<polygon fill="midnightblue" stroke="midnightblue" points="422.399,-58.084 432.742,-55.7908 423.226,-51.1331 422.399,-58.084"/>
</g>
<!-- Node10 -->
<g id="node10" class="node"><title>Node10</title>
<g id="a_node10"><a xlink:href="classCConfigurableElement.html#a1376855eba031b3cbb715389e23b20fe" target="_top" xlink:title="CConfigurableElement\l::isParameter">
<polygon fill="white" stroke="black" points="458,-2 458,-32 581,-32 581,-2 458,-2"/>
<text text-anchor="start" x="466" y="-20" font-family="Verdana" font-size="10.00">CConfigurableElement</text>
<text text-anchor="middle" x="519.5" y="-9" font-family="Verdana" font-size="10.00">::isParameter</text>
</a>
</g>
</g>
<!-- Node2&#45;&gt;Node10 -->
<g id="edge11" class="edge"><title>Node2&#45;&gt;Node10</title>
<path fill="none" stroke="midnightblue" d="M397.255,-30.8566C413.967,-28.9466 431.242,-26.9723 447.331,-25.1336"/>
<polygon fill="midnightblue" stroke="midnightblue" points="448.176,-28.5599 457.714,-23.947 447.381,-21.6051 448.176,-28.5599"/>
</g>
<!-- Node4 -->
<g id="node4" class="node"><title>Node4</title>
<g id="a_node4"><a xlink:href="classCPathNavigator.html#ad588f1802ca5e196e96972273f36a80d" target="_top" xlink:title="CPathNavigator::navigate\lThrough">
<polygon fill="white" stroke="black" points="645,-95 645,-125 783,-125 783,-95 645,-95"/>
<text text-anchor="start" x="653" y="-113" font-family="Verdana" font-size="10.00">CPathNavigator::navigate</text>
<text text-anchor="middle" x="714" y="-102" font-family="Verdana" font-size="10.00">Through</text>
</a>
</g>
</g>
<!-- Node3&#45;&gt;Node4 -->
<g id="edge3" class="edge"><title>Node3&#45;&gt;Node4</title>
<path fill="none" stroke="midnightblue" d="M586.209,-81.0192C602.689,-84.786 620.501,-88.8574 637.419,-92.7244"/>
<polygon fill="midnightblue" stroke="midnightblue" points="636.732,-96.1575 647.26,-94.9738 638.292,-89.3335 636.732,-96.1575"/>
</g>
<!-- Node7 -->
<g id="node7" class="node"><title>Node7</title>
<g id="a_node7"><a xlink:href="classCElement.html#a49581fb6412e29e932962acd82d52d6a" target="_top" xlink:title="CElement::getName">
<polygon fill="white" stroke="black" points="657,-56.5 657,-75.5 771,-75.5 771,-56.5 657,-56.5"/>
<text text-anchor="middle" x="714" y="-63.5" font-family="Verdana" font-size="10.00">CElement::getName</text>
</a>
</g>
</g>
<!-- Node3&#45;&gt;Node7 -->
<g id="edge6" class="edge"><title>Node3&#45;&gt;Node7</title>
<path fill="none" stroke="midnightblue" d="M606.054,-66C619.603,-66 633.438,-66 646.468,-66"/>
<polygon fill="midnightblue" stroke="midnightblue" points="646.724,-69.5001 656.724,-66 646.724,-62.5001 646.724,-69.5001"/>
</g>
<!-- Node8 -->
<g id="node8" class="node"><title>Node8</title>
<g id="a_node8"><a xlink:href="classCElement.html#a182dcfb7ab154cc97cff047c5f5539f5" target="_top" xlink:title="CElement::findDescendant">
<polygon fill="white" stroke="black" points="642,-0.5 642,-19.5 786,-19.5 786,-0.5 642,-0.5"/>
<text text-anchor="middle" x="714" y="-7.5" font-family="Verdana" font-size="10.00">CElement::findDescendant</text>
</a>
</g>
</g>
<!-- Node3&#45;&gt;Node8 -->
<g id="edge7" class="edge"><title>Node3&#45;&gt;Node8</title>
<path fill="none" stroke="midnightblue" d="M572.086,-50.993C602.87,-42.0378 641.485,-30.8043 670.504,-22.3624"/>
<polygon fill="midnightblue" stroke="midnightblue" points="671.716,-25.6552 680.34,-19.5011 669.76,-18.9338 671.716,-25.6552"/>
</g>
<!-- Node5 -->
<g id="node5" class="node"><title>Node5</title>
<g id="a_node5"><a xlink:href="classCPathNavigator.html#a0fbd92beb48fdfb2041788cf77d44cf1" target="_top" xlink:title="CPathNavigator::getCurrentPath">
<polygon fill="white" stroke="black" points="822,-100.5 822,-119.5 992,-119.5 992,-100.5 822,-100.5"/>
<text text-anchor="middle" x="907" y="-107.5" font-family="Verdana" font-size="10.00">CPathNavigator::getCurrentPath</text>
</a>
</g>
</g>
<!-- Node4&#45;&gt;Node5 -->
<g id="edge4" class="edge"><title>Node4&#45;&gt;Node5</title>
<path fill="none" stroke="midnightblue" d="M783.146,-110C792.45,-110 802.131,-110 811.794,-110"/>
<polygon fill="midnightblue" stroke="midnightblue" points="811.842,-113.5 821.842,-110 811.842,-106.5 811.842,-113.5"/>
</g>
<!-- Node6 -->
<g id="node6" class="node"><title>Node6</title>
<g id="a_node6"><a xlink:href="classCPathNavigator.html#a06f35d45c0bf392e11de0bf1197cc589" target="_top" xlink:title="CPathNavigator::next">
<polygon fill="white" stroke="black" points="848,-50.5 848,-69.5 966,-69.5 966,-50.5 848,-50.5"/>
<text text-anchor="middle" x="907" y="-57.5" font-family="Verdana" font-size="10.00">CPathNavigator::next</text>
</a>
</g>
</g>
<!-- Node4&#45;&gt;Node6 -->
<g id="edge5" class="edge"><title>Node4&#45;&gt;Node6</title>
<path fill="none" stroke="midnightblue" d="M772.306,-94.9984C800.27,-87.6779 833.465,-78.9881 859.782,-72.0988"/>
<polygon fill="midnightblue" stroke="midnightblue" points="860.719,-75.4716 869.507,-69.5532 858.946,-68.6998 860.719,-75.4716"/>
</g>
<!-- Node8&#45;&gt;Node6 -->
<g id="edge8" class="edge"><title>Node8&#45;&gt;Node6</title>
<path fill="none" stroke="midnightblue" d="M751.375,-19.5223C782.077,-27.5594 826.22,-39.1151 859.487,-47.8239"/>
<polygon fill="midnightblue" stroke="midnightblue" points="858.875,-51.2815 869.435,-50.4281 860.648,-44.5097 858.875,-51.2815"/>
</g>
<!-- Node8&#45;&gt;Node8 -->
<g id="edge10" class="edge"><title>Node8&#45;&gt;Node8</title>
<path fill="none" stroke="midnightblue" d="M684.407,-19.7571C670.011,-28.5653 679.875,-38 714,-38 737.994,-38 749.994,-33.3356 750,-27.5043"/>
<polygon fill="midnightblue" stroke="midnightblue" points="752.663,-25.2325 743.593,-19.7571 747.269,-29.6937 752.663,-25.2325"/>
</g>
<!-- Node9 -->
<g id="node9" class="node"><title>Node9</title>
<g id="a_node9"><a xlink:href="classCElement.html#a8595814a3159f32f874269907e70b260" target="_top" xlink:title="CElement::findChild">
<polygon fill="white" stroke="black" points="852,-0.5 852,-19.5 962,-19.5 962,-0.5 852,-0.5"/>
<text text-anchor="middle" x="907" y="-7.5" font-family="Verdana" font-size="10.00">CElement::findChild</text>
</a>
</g>
</g>
<!-- Node8&#45;&gt;Node9 -->
<g id="edge9" class="edge"><title>Node8&#45;&gt;Node9</title>
<path fill="none" stroke="midnightblue" d="M786.121,-10C804.382,-10 823.917,-10 841.804,-10"/>
<polygon fill="midnightblue" stroke="midnightblue" points="841.838,-13.5001 851.838,-10 841.838,-6.5001 841.838,-13.5001"/>
</g>
</g>
</svg>
