<?xml version="1.0" encoding="UTF-8" standalone="no"?>
<!DOCTYPE svg PUBLIC "-//W3C//DTD SVG 1.1//EN"
 "http://www.w3.org/Graphics/SVG/1.1/DTD/svg11.dtd">
<!-- Generated by graphviz version 2.38.0 (20140413.2041)
 -->
<!-- Title: Status::failure Pages: 1 -->
<svg width="428pt" height="218pt"
 viewBox="0.00 0.00 428.00 218.00" xmlns="http://www.w3.org/2000/svg" xmlns:xlink="http://www.w3.org/1999/xlink">
<g id="graph0" class="graph" transform="scale(1 1) rotate(0) translate(4 214)">
<title>Status::failure</title>
<polygon fill="white" stroke="none" points="-4,4 -4,-214 424,-214 424,4 -4,4"/>
<!-- Node1 -->
<g id="node1" class="node"><title>Node1</title>
<polygon fill="#bfbfbf" stroke="black" points="0,-95.5 0,-114.5 83,-114.5 83,-95.5 0,-95.5"/>
<text text-anchor="middle" x="41.5" y="-102.5" font-family="Verdana" font-size="10.00">Status::failure</text>
</g>
<!-- Node2 -->
<g id="node2" class="node"><title>Node2</title>
<g id="a_node2"><a xlink:href="structPfwHandler__.html#affe94703ab48bd3ee5c78ac4fffc0b45" target="_top" xlink:title="PfwHandler_::createCriteria">
<polygon fill="white" stroke="black" points="119,-190.5 119,-209.5 265,-209.5 265,-190.5 119,-190.5"/>
<text text-anchor="middle" x="192" y="-197.5" font-family="Verdana" font-size="10.00">PfwHandler_::createCriteria</text>
</a>
</g>
</g>
<!-- Node1&#45;&gt;Node2 -->
<g id="edge1" class="edge"><title>Node1&#45;&gt;Node2</title>
<path fill="none" stroke="midnightblue" d="M55.7146,-122.737C69.5945,-140.118 92.9911,-166.106 119,-181 125.731,-184.855 133.262,-187.946 140.848,-190.42"/>
<polygon fill="midnightblue" stroke="midnightblue" points="58.252,-120.297 49.3603,-114.536 52.7187,-124.585 58.252,-120.297"/>
</g>
<!-- Node3 -->
<g id="node3" class="node"><title>Node3</title>
<g id="a_node3"><a xlink:href="ParameterFramework_8cpp.html#a44326e09ebb9719ecb017d1d67832b6f" target="_top" xlink:title="pfwStart">
<polygon fill="white" stroke="black" points="164,-152.5 164,-171.5 220,-171.5 220,-152.5 164,-152.5"/>
<text text-anchor="middle" x="192" y="-159.5" font-family="Verdana" font-size="10.00">pfwStart</text>
</a>
</g>
</g>
<!-- Node1&#45;&gt;Node3 -->
<g id="edge2" class="edge"><title>Node1&#45;&gt;Node3</title>
<path fill="none" stroke="midnightblue" d="M68.2865,-119.451C82.851,-127.191 101.578,-136.452 119,-143 133.522,-148.458 150.25,-152.974 163.925,-156.232"/>
<polygon fill="midnightblue" stroke="midnightblue" points="69.8329,-116.308 59.3721,-114.628 66.5019,-122.465 69.8329,-116.308"/>
</g>
<!-- Node4 -->
<g id="node4" class="node"><title>Node4</title>
<g id="a_node4"><a xlink:href="ParameterFramework_8h.html#a7e2da0cb4b2dad4fe639259c4a087feb" target="_top" xlink:title="Set a criterion value given its name and value. ">
<polygon fill="white" stroke="black" points="147.5,-114.5 147.5,-133.5 236.5,-133.5 236.5,-114.5 147.5,-114.5"/>
<text text-anchor="middle" x="192" y="-121.5" font-family="Verdana" font-size="10.00">pfwSetCriterion</text>
</a>
</g>
</g>
<!-- Node1&#45;&gt;Node4 -->
<g id="edge3" class="edge"><title>Node1&#45;&gt;Node4</title>
<path fill="none" stroke="midnightblue" d="M93.181,-111.484C110.785,-113.737 130.362,-116.242 147.348,-118.415"/>
<polygon fill="midnightblue" stroke="midnightblue" points="93.4416,-107.989 83.0783,-110.192 92.5532,-114.933 93.4416,-107.989"/>
</g>
<!-- Node6 -->
<g id="node6" class="node"><title>Node6</title>
<g id="a_node6"><a xlink:href="ParameterFramework_8h.html#afe708ce766409bc0d82638cca172330a" target="_top" xlink:title="Get a criterion value given its name. ">
<polygon fill="white" stroke="black" points="147,-76.5 147,-95.5 237,-95.5 237,-76.5 147,-76.5"/>
<text text-anchor="middle" x="192" y="-83.5" font-family="Verdana" font-size="10.00">pfwGetCriterion</text>
</a>
</g>
</g>
<!-- Node1&#45;&gt;Node6 -->
<g id="edge5" class="edge"><title>Node1&#45;&gt;Node6</title>
<path fill="none" stroke="midnightblue" d="M93.0917,-98.527C110.538,-96.2949 129.929,-93.8138 146.822,-91.6524"/>
<polygon fill="midnightblue" stroke="midnightblue" points="92.5532,-95.0673 83.0783,-99.8082 93.4416,-102.011 92.5532,-95.0673"/>
</g>
<!-- Node7 -->
<g id="node7" class="node"><title>Node7</title>
<g id="a_node7"><a xlink:href="ParameterFramework_8h.html#a78db487e58935caf376608255d652caa" target="_top" xlink:title="Commit criteria change and change parameters according to the configurations. ">
<polygon fill="white" stroke="black" points="128,-38.5 128,-57.5 256,-57.5 256,-38.5 128,-38.5"/>
<text text-anchor="middle" x="192" y="-45.5" font-family="Verdana" font-size="10.00">pfwApplyConfigurations</text>
</a>
</g>
</g>
<!-- Node1&#45;&gt;Node7 -->
<g id="edge7" class="edge"><title>Node1&#45;&gt;Node7</title>
<path fill="none" stroke="midnightblue" d="M68.2865,-90.5494C82.851,-82.8094 101.578,-73.5482 119,-67 128.56,-63.4068 139.076,-60.2219 149.048,-57.5355"/>
<polygon fill="midnightblue" stroke="midnightblue" points="66.5019,-87.5355 59.3721,-95.3723 69.8329,-93.6922 66.5019,-87.5355"/>
</g>
<!-- Node8 -->
<g id="node8" class="node"><title>Node8</title>
<g id="a_node8"><a xlink:href="ParameterFramework_8h.html#a1c73add8fee0c519bfa18677d533ebd4" target="_top" xlink:title="Construct the handle to a parameter given its path. ">
<polygon fill="white" stroke="black" points="140,-0.5 140,-19.5 244,-19.5 244,-0.5 140,-0.5"/>
<text text-anchor="middle" x="192" y="-7.5" font-family="Verdana" font-size="10.00">pfwBindParameter</text>
</a>
</g>
</g>
<!-- Node1&#45;&gt;Node8 -->
<g id="edge9" class="edge"><title>Node1&#45;&gt;Node8</title>
<path fill="none" stroke="midnightblue" d="M55.7146,-87.2634C69.5945,-69.8818 92.9911,-43.8939 119,-29 125.731,-25.1454 133.262,-22.0539 140.848,-19.5796"/>
<polygon fill="midnightblue" stroke="midnightblue" points="52.7187,-85.4154 49.3603,-95.4639 58.252,-89.703 52.7187,-85.4154"/>
</g>
<!-- Node5 -->
<g id="node5" class="node"><title>Node5</title>
<g id="a_node5"><a xlink:href="Test_8cpp.html#ae78f4780e83e5f2b9721a2d66c70fec9" target="_top" xlink:title="TEST_CASE_METHOD">
<polygon fill="white" stroke="black" points="301,-57.5 301,-76.5 420,-76.5 420,-57.5 301,-57.5"/>
<text text-anchor="middle" x="360.5" y="-64.5" font-family="Verdana" font-size="10.00">TEST_CASE_METHOD</text>
</a>
</g>
</g>
<!-- Node4&#45;&gt;Node5 -->
<g id="edge4" class="edge"><title>Node4&#45;&gt;Node5</title>
<path fill="none" stroke="midnightblue" d="M242.658,-111.763C250.189,-109.657 257.833,-107.376 265,-105 290.512,-96.5407 319.044,-84.7304 338.015,-76.5305"/>
<polygon fill="midnightblue" stroke="midnightblue" points="241.604,-108.422 232.872,-114.423 243.44,-115.177 241.604,-108.422"/>
</g>
<!-- Node6&#45;&gt;Node5 -->
<g id="edge6" class="edge"><title>Node6&#45;&gt;Node5</title>
<path fill="none" stroke="midnightblue" d="M247.565,-79.7734C264.672,-77.8212 283.621,-75.6589 300.989,-73.6769"/>
<polygon fill="midnightblue" stroke="midnightblue" points="246.72,-76.3469 237.182,-80.9582 247.514,-83.3018 246.72,-76.3469"/>
</g>
<!-- Node7&#45;&gt;Node5 -->
<g id="edge8" class="edge"><title>Node7&#45;&gt;Node5</title>
<path fill="none" stroke="midnightblue" d="M266.464,-56.3833C277.991,-57.6987 289.773,-59.0431 300.907,-60.3137"/>
<polygon fill="midnightblue" stroke="midnightblue" points="266.754,-52.8937 256.421,-55.2373 265.96,-59.8486 266.754,-52.8937"/>
</g>
<!-- Node8&#45;&gt;Node5 -->
<g id="edge10" class="edge"><title>Node8&#45;&gt;Node5</title>
<path fill="none" stroke="midnightblue" d="M242.658,-22.237C250.189,-24.3425 257.833,-26.6236 265,-29 290.512,-37.4593 319.044,-49.2696 338.015,-57.4695"/>
<polygon fill="midnightblue" stroke="midnightblue" points="243.44,-18.8229 232.872,-19.577 241.604,-25.5777 243.44,-18.8229"/>
</g>
</g>
</svg>
