<?xml version="1.0" encoding="UTF-8" standalone="no"?>
<!DOCTYPE svg PUBLIC "-//W3C//DTD SVG 1.1//EN"
 "http://www.w3.org/Graphics/SVG/1.1/DTD/svg11.dtd">
<!-- Generated by graphviz version 2.36.0 (20140111.2315)
 -->
<!-- Title: CConfigurableElement::listRogueElements Pages: 1 -->
<svg width="346pt" height="144pt"
 viewBox="0.00 0.00 346.00 144.00" xmlns="http://www.w3.org/2000/svg" xmlns:xlink="http://www.w3.org/1999/xlink">
<g id="graph0" class="graph" transform="scale(1 1) rotate(0) translate(4 140)">
<title>CConfigurableElement::listRogueElements</title>
<polygon fill="white" stroke="none" points="-4,4 -4,-140 342,-140 342,4 -4,4"/>
<!-- Node1 -->
<g id="node1" class="node"><title>Node1</title>
<polygon fill="#bfbfbf" stroke="black" points="0.5,-57 0.5,-87 123.5,-87 123.5,-57 0.5,-57"/>
<text text-anchor="start" x="8.5" y="-75" font-family="Verdana" font-size="10.00">CConfigurableElement</text>
<text text-anchor="middle" x="62" y="-64" font-family="Verdana" font-size="10.00">::listRogueElements</text>
</g>
<!-- Node2 -->
<g id="node2" class="node"><title>Node2</title>
<g id="a_node2"><a xlink:href="classCConfigurableElement.html#a08cbc876b52d1e58ade956a8191b1ee3" target="_top" xlink:title="CConfigurableElement\l::hasNoDomainAssociated">
<polygon fill="white" stroke="black" points="177.5,-106 177.5,-136 320.5,-136 320.5,-106 177.5,-106"/>
<text text-anchor="start" x="185.5" y="-124" font-family="Verdana" font-size="10.00">CConfigurableElement</text>
<text text-anchor="middle" x="249" y="-113" font-family="Verdana" font-size="10.00">::hasNoDomainAssociated</text>
</a>
</g>
</g>
<!-- Node1&#45;&gt;Node2 -->
<g id="edge1" class="edge"><title>Node1&#45;&gt;Node2</title>
<path fill="none" stroke="midnightblue" d="M119.763,-87.0346C139.297,-92.2083 161.343,-98.0475 181.576,-103.407"/>
<polygon fill="midnightblue" stroke="midnightblue" points="180.781,-106.817 191.344,-105.994 182.573,-100.05 180.781,-106.817"/>
</g>
<!-- Node3 -->
<g id="node3" class="node"><title>Node3</title>
<g id="a_node3"><a xlink:href="classCConfigurableElementAggregator.html#a2cc804d11a5ec48d098ecb34be7c9c36" target="_top" xlink:title="CConfigurableElementAggregator\l::aggegate">
<polygon fill="white" stroke="black" points="160.5,-57 160.5,-87 337.5,-87 337.5,-57 160.5,-57"/>
<text text-anchor="start" x="168.5" y="-75" font-family="Verdana" font-size="10.00">CConfigurableElementAggregator</text>
<text text-anchor="middle" x="249" y="-64" font-family="Verdana" font-size="10.00">::aggegate</text>
</a>
</g>
</g>
<!-- Node1&#45;&gt;Node3 -->
<g id="edge2" class="edge"><title>Node1&#45;&gt;Node3</title>
<path fill="none" stroke="midnightblue" d="M123.576,-72C132.151,-72 141.143,-72 150.204,-72"/>
<polygon fill="midnightblue" stroke="midnightblue" points="150.444,-75.5001 160.444,-72 150.444,-68.5001 150.444,-75.5001"/>
</g>
<!-- Node4 -->
<g id="node4" class="node"><title>Node4</title>
<g id="a_node4"><a xlink:href="classCElement.html#a7022c0fc8063f0aae9d97b06e74d4ac1" target="_top" xlink:title="CElement::getPath">
<polygon fill="white" stroke="black" points="196,-0.5 196,-19.5 302,-19.5 302,-0.5 196,-0.5"/>
<text text-anchor="middle" x="249" y="-7.5" font-family="Verdana" font-size="10.00">CElement::getPath</text>
</a>
</g>
</g>
<!-- Node1&#45;&gt;Node4 -->
<g id="edge3" class="edge"><title>Node1&#45;&gt;Node4</title>
<path fill="none" stroke="midnightblue" d="M107.783,-56.9915C139.008,-46.5271 180.222,-32.7149 209.876,-22.7768"/>
<polygon fill="midnightblue" stroke="midnightblue" points="211.089,-26.0617 219.458,-19.5654 208.864,-19.4245 211.089,-26.0617"/>
</g>
<!-- Node4&#45;&gt;Node4 -->
<g id="edge4" class="edge"><title>Node4&#45;&gt;Node4</title>
<path fill="none" stroke="midnightblue" d="M220.332,-19.7571C206.385,-28.5653 215.941,-38 249,-38 271.728,-38 283.347,-33.5406 283.857,-27.8913"/>
<polygon fill="midnightblue" stroke="midnightblue" points="286.509,-25.5958 277.668,-19.7571 280.938,-29.8346 286.509,-25.5958"/>
</g>
</g>
</svg>
