<?xml version="1.0" encoding="UTF-8" standalone="no"?>
<!DOCTYPE svg PUBLIC "-//W3C//DTD SVG 1.1//EN"
 "http://www.w3.org/Graphics/SVG/1.1/DTD/svg11.dtd">
<!-- Generated by graphviz version 2.38.0 (20140413.2041)
 -->
<!-- Title: CBooleanParameterType::toBlackboard Pages: 1 -->
<svg width="312pt" height="176pt"
 viewBox="0.00 0.00 312.00 176.00" xmlns="http://www.w3.org/2000/svg" xmlns:xlink="http://www.w3.org/1999/xlink">
<g id="graph0" class="graph" transform="scale(1 1) rotate(0) translate(4 172)">
<title>CBooleanParameterType::toBlackboard</title>
<polygon fill="white" stroke="none" points="-4,4 -4,-172 308,-172 308,4 -4,4"/>
<!-- Node1 -->
<g id="node1" class="node"><title>Node1</title>
<polygon fill="#bfbfbf" stroke="black" points="0,-71.5 0,-101.5 134,-101.5 134,-71.5 0,-71.5"/>
<text text-anchor="start" x="8" y="-89.5" font-family="Verdana" font-size="10.00">CBooleanParameterType</text>
<text text-anchor="middle" x="67" y="-78.5" font-family="Verdana" font-size="10.00">::toBlackboard</text>
</g>
<!-- Node2 -->
<g id="node2" class="node"><title>Node2</title>
<g id="a_node2"><a xlink:href="classutility_1_1ErrorContext.html#afc2e1af8c4a81e36e5013bf31127c15f" target="_top" xlink:title="utility::ErrorContext\l::setError">
<polygon fill="white" stroke="black" points="183,-137.5 183,-167.5 291,-167.5 291,-137.5 183,-137.5"/>
<text text-anchor="start" x="191" y="-155.5" font-family="Verdana" font-size="10.00">utility::ErrorContext</text>
<text text-anchor="middle" x="237" y="-144.5" font-family="Verdana" font-size="10.00">::setError</text>
</a>
</g>
</g>
<!-- Node1&#45;&gt;Node2 -->
<g id="edge1" class="edge"><title>Node1&#45;&gt;Node2</title>
<path fill="none" stroke="midnightblue" d="M105.232,-101.675C124.524,-109.484 148.487,-119.103 170,-127.5 175.208,-129.533 180.656,-131.635 186.092,-133.717"/>
<polygon fill="midnightblue" stroke="midnightblue" points="185.222,-137.131 195.813,-137.425 187.717,-130.591 185.222,-137.131"/>
</g>
<!-- Node3 -->
<g id="node3" class="node"><title>Node3</title>
<g id="a_node3"><a xlink:href="namespaceutility.html#af26524fd398a870267af79c918862662" target="_top" xlink:title="Checks if a string has the written representation of an hexadecimal number (Which is the prefix &quot;0x&quot; ...">
<polygon fill="white" stroke="black" points="178.5,-99 178.5,-118 295.5,-118 295.5,-99 178.5,-99"/>
<text text-anchor="middle" x="237" y="-106" font-family="Verdana" font-size="10.00">utility::isHexadecimal</text>
</a>
</g>
</g>
<!-- Node1&#45;&gt;Node3 -->
<g id="edge2" class="edge"><title>Node1&#45;&gt;Node3</title>
<path fill="none" stroke="midnightblue" d="M134.398,-95.195C145.493,-96.6479 157.017,-98.1569 168.147,-99.6145"/>
<polygon fill="midnightblue" stroke="midnightblue" points="167.866,-103.107 178.235,-100.936 168.775,-96.1667 167.866,-103.107"/>
</g>
<!-- Node4 -->
<g id="node4" class="node"><title>Node4</title>
<g id="a_node4"><a xlink:href="classutility_1_1ErrorContext.html#aafe9cd30a03303cf376926d9c4e9dd02" target="_top" xlink:title="utility::ErrorContext\l::appendToError">
<polygon fill="white" stroke="black" points="183,-49.5 183,-79.5 291,-79.5 291,-49.5 183,-49.5"/>
<text text-anchor="start" x="191" y="-67.5" font-family="Verdana" font-size="10.00">utility::ErrorContext</text>
<text text-anchor="middle" x="237" y="-56.5" font-family="Verdana" font-size="10.00">::appendToError</text>
</a>
</g>
</g>
<!-- Node1&#45;&gt;Node4 -->
<g id="edge3" class="edge"><title>Node1&#45;&gt;Node4</title>
<path fill="none" stroke="midnightblue" d="M134.398,-77.805C146.937,-76.163 160.025,-74.4491 172.473,-72.819"/>
<polygon fill="midnightblue" stroke="midnightblue" points="173.293,-76.2416 182.754,-71.4727 172.384,-69.3009 173.293,-76.2416"/>
</g>
<!-- Node5 -->
<g id="node5" class="node"><title>Node5</title>
<g id="a_node5"><a xlink:href="classCBooleanParameterType.html#a0e8c0863335cdca9486f53a12fd98f47" target="_top" xlink:title="CBooleanParameterType\l::getKind">
<polygon fill="white" stroke="black" points="170,-0.5 170,-30.5 304,-30.5 304,-0.5 170,-0.5"/>
<text text-anchor="start" x="178" y="-18.5" font-family="Verdana" font-size="10.00">CBooleanParameterType</text>
<text text-anchor="middle" x="237" y="-7.5" font-family="Verdana" font-size="10.00">::getKind</text>
</a>
</g>
</g>
<!-- Node1&#45;&gt;Node5 -->
<g id="edge4" class="edge"><title>Node1&#45;&gt;Node5</title>
<path fill="none" stroke="midnightblue" d="M99.9369,-71.4876C119.933,-62.2402 146.312,-50.317 170,-40.5 175.023,-38.4184 180.288,-36.3072 185.559,-34.2394"/>
<polygon fill="midnightblue" stroke="midnightblue" points="186.945,-37.4561 195.005,-30.5797 184.416,-30.9288 186.945,-37.4561"/>
</g>
</g>
</svg>
