<?xml version="1.0" encoding="UTF-8" standalone="no"?>
<!DOCTYPE svg PUBLIC "-//W3C//DTD SVG 1.1//EN"
 "http://www.w3.org/Graphics/SVG/1.1/DTD/svg11.dtd">
<!-- Generated by graphviz version 2.38.0 (20140413.2041)
 -->
<!-- Title: CDomainConfiguration::split Pages: 1 -->
<svg width="487pt" height="165pt"
 viewBox="0.00 0.00 487.00 164.50" xmlns="http://www.w3.org/2000/svg" xmlns:xlink="http://www.w3.org/1999/xlink">
<g id="graph0" class="graph" transform="scale(1 1) rotate(0) translate(4 160.5)">
<title>CDomainConfiguration::split</title>
<polygon fill="white" stroke="none" points="-4,4 -4,-160.5 483,-160.5 483,4 -4,4"/>
<!-- Node1 -->
<g id="node1" class="node"><title>Node1</title>
<polygon fill="#bfbfbf" stroke="black" points="0,-93.5 0,-123.5 125,-123.5 125,-93.5 0,-93.5"/>
<text text-anchor="start" x="8" y="-111.5" font-family="Verdana" font-size="10.00">CDomainConfiguration</text>
<text text-anchor="middle" x="62.5" y="-100.5" font-family="Verdana" font-size="10.00">::split</text>
</g>
<!-- Node2 -->
<g id="node2" class="node"><title>Node2</title>
<g id="a_node2"><a xlink:href="classCElement.html#a58b6cdb5715497442fde6afa1e65f8e5" target="_top" xlink:title="CElement::getNbChildren">
<polygon fill="white" stroke="black" points="161,-137 161,-156 298,-156 298,-137 161,-137"/>
<text text-anchor="middle" x="229.5" y="-144" font-family="Verdana" font-size="10.00">CElement::getNbChildren</text>
</a>
</g>
</g>
<!-- Node1&#45;&gt;Node2 -->
<g id="edge1" class="edge"><title>Node1&#45;&gt;Node2</title>
<path fill="none" stroke="midnightblue" d="M125.409,-122.758C142.372,-126.665 160.576,-130.857 176.894,-134.615"/>
<polygon fill="midnightblue" stroke="midnightblue" points="176.253,-138.059 186.784,-136.893 177.824,-131.238 176.253,-138.059"/>
</g>
<!-- Node3 -->
<g id="node3" class="node"><title>Node3</title>
<g id="a_node3"><a xlink:href="classCElement.html#a9bba10d2dc72821589a898e16ace9ae5" target="_top" xlink:title="Get a child element (const) ">
<polygon fill="white" stroke="black" points="175.5,-99 175.5,-118 283.5,-118 283.5,-99 175.5,-99"/>
<text text-anchor="middle" x="229.5" y="-106" font-family="Verdana" font-size="10.00">CElement::getChild</text>
</a>
</g>
</g>
<!-- Node1&#45;&gt;Node3 -->
<g id="edge2" class="edge"><title>Node1&#45;&gt;Node3</title>
<path fill="none" stroke="midnightblue" d="M125.409,-108.5C138.397,-108.5 152.113,-108.5 165.152,-108.5"/>
<polygon fill="midnightblue" stroke="midnightblue" points="165.438,-112 175.438,-108.5 165.438,-105 165.438,-112"/>
</g>
<!-- Node4 -->
<g id="node4" class="node"><title>Node4</title>
<g id="a_node4"><a xlink:href="classCAreaConfiguration.html#aa66ebde5e339fbea35c7a5f46403c770" target="_top" xlink:title="CAreaConfiguration\l::copyFromOuter">
<polygon fill="white" stroke="black" points="174.5,-49.5 174.5,-79.5 284.5,-79.5 284.5,-49.5 174.5,-49.5"/>
<text text-anchor="start" x="182.5" y="-67.5" font-family="Verdana" font-size="10.00">CAreaConfiguration</text>
<text text-anchor="middle" x="229.5" y="-56.5" font-family="Verdana" font-size="10.00">::copyFromOuter</text>
</a>
</g>
</g>
<!-- Node1&#45;&gt;Node4 -->
<g id="edge3" class="edge"><title>Node1&#45;&gt;Node4</title>
<path fill="none" stroke="midnightblue" d="M119.822,-93.4808C134.158,-89.6578 149.671,-85.521 164.365,-81.6026"/>
<polygon fill="midnightblue" stroke="midnightblue" points="165.622,-84.8898 174.383,-78.9313 163.818,-78.1262 165.622,-84.8898"/>
</g>
<!-- Node5 -->
<g id="node5" class="node"><title>Node5</title>
<g id="a_node5"><a xlink:href="classCElement.html#a7653fbad5491138533ac0fa889ffecd9" target="_top" xlink:title="CElement::isDescendantOf">
<polygon fill="white" stroke="black" points="334,-99 334,-118 479,-118 479,-99 334,-99"/>
<text text-anchor="middle" x="406.5" y="-106" font-family="Verdana" font-size="10.00">CElement::isDescendantOf</text>
</a>
</g>
</g>
<!-- Node4&#45;&gt;Node5 -->
<g id="edge4" class="edge"><title>Node4&#45;&gt;Node5</title>
<path fill="none" stroke="midnightblue" d="M284.912,-78.1807C308.143,-84.0218 335.024,-90.7804 357.503,-96.4322"/>
<polygon fill="midnightblue" stroke="midnightblue" points="356.941,-99.8996 367.492,-98.9438 358.648,-93.1109 356.941,-99.8996"/>
</g>
<!-- Node6 -->
<g id="node6" class="node"><title>Node6</title>
<g id="a_node6"><a xlink:href="classCAreaConfiguration.html#a1f85dedf12591c3f43830a00e5c352df" target="_top" xlink:title="CAreaConfiguration\l::getConfigurableElement">
<polygon fill="white" stroke="black" points="337.5,-49.5 337.5,-79.5 475.5,-79.5 475.5,-49.5 337.5,-49.5"/>
<text text-anchor="start" x="345.5" y="-67.5" font-family="Verdana" font-size="10.00">CAreaConfiguration</text>
<text text-anchor="middle" x="406.5" y="-56.5" font-family="Verdana" font-size="10.00">::getConfigurableElement</text>
</a>
</g>
</g>
<!-- Node4&#45;&gt;Node6 -->
<g id="edge6" class="edge"><title>Node4&#45;&gt;Node6</title>
<path fill="none" stroke="midnightblue" d="M284.912,-64.5C298.234,-64.5 312.756,-64.5 326.959,-64.5"/>
<polygon fill="midnightblue" stroke="midnightblue" points="327.224,-68.0001 337.224,-64.5 327.224,-61.0001 327.224,-68.0001"/>
</g>
<!-- Node7 -->
<g id="node7" class="node"><title>Node7</title>
<g id="a_node7"><a xlink:href="classCConfigurableElement.html#a29d61e6d09ff508ebb87aea802f2704e" target="_top" xlink:title="CConfigurableElement\l::getOffset">
<polygon fill="white" stroke="black" points="345,-0.5 345,-30.5 468,-30.5 468,-0.5 345,-0.5"/>
<text text-anchor="start" x="353" y="-18.5" font-family="Verdana" font-size="10.00">CConfigurableElement</text>
<text text-anchor="middle" x="406.5" y="-7.5" font-family="Verdana" font-size="10.00">::getOffset</text>
</a>
</g>
</g>
<!-- Node4&#45;&gt;Node7 -->
<g id="edge7" class="edge"><title>Node4&#45;&gt;Node7</title>
<path fill="none" stroke="midnightblue" d="M284.434,-49.3986C302.65,-44.2981 323.153,-38.5571 342.037,-33.2695"/>
<polygon fill="midnightblue" stroke="midnightblue" points="343.058,-36.6183 351.744,-30.5516 341.171,-29.8776 343.058,-36.6183"/>
</g>
<!-- Node5&#45;&gt;Node5 -->
<g id="edge5" class="edge"><title>Node5&#45;&gt;Node5</title>
<path fill="none" stroke="midnightblue" d="M379.373,-118.257C366.177,-127.065 375.219,-136.5 406.5,-136.5 428.006,-136.5 439,-132.041 439.483,-126.391"/>
<polygon fill="midnightblue" stroke="midnightblue" points="442.31,-124.327 433.627,-118.257 436.629,-128.417 442.31,-124.327"/>
</g>
</g>
</svg>
