<?xml version="1.0" encoding="UTF-8" standalone="no"?>
<!DOCTYPE svg PUBLIC "-//W3C//DTD SVG 1.1//EN"
 "http://www.w3.org/Graphics/SVG/1.1/DTD/svg11.dtd">
<!-- Generated by graphviz version 2.36.0 (20140111.2315)
 -->
<!-- Title: CConfigurableDomain::split Pages: 1 -->
<svg width="446pt" height="38pt"
 viewBox="0.00 0.00 446.00 38.00" xmlns="http://www.w3.org/2000/svg" xmlns:xlink="http://www.w3.org/1999/xlink">
<g id="graph0" class="graph" transform="scale(1 1) rotate(0) translate(4 34)">
<title>CConfigurableDomain::split</title>
<polygon fill="white" stroke="none" points="-4,4 -4,-34 442,-34 442,4 -4,4"/>
<!-- Node1 -->
<g id="node1" class="node"><title>Node1</title>
<polygon fill="#bfbfbf" stroke="black" points="0.5,-0 0.5,-30 121.5,-30 121.5,-0 0.5,-0"/>
<text text-anchor="start" x="8.5" y="-18" font-family="Verdana" font-size="10.00">CConfigurableDomain</text>
<text text-anchor="middle" x="61" y="-7" font-family="Verdana" font-size="10.00">::split</text>
</g>
<!-- Node2 -->
<g id="node2" class="node"><title>Node2</title>
<g id="a_node2"><a xlink:href="classCConfigurableDomains.html#ae01182802f0ce424d239ea19f9365330" target="_top" xlink:title="CConfigurableDomains\l::split">
<polygon fill="white" stroke="black" points="158,-0 158,-30 284,-30 284,-0 158,-0"/>
<text text-anchor="start" x="166" y="-18" font-family="Verdana" font-size="10.00">CConfigurableDomains</text>
<text text-anchor="middle" x="221" y="-7" font-family="Verdana" font-size="10.00">::split</text>
</a>
</g>
</g>
<!-- Node1&#45;&gt;Node2 -->
<g id="edge1" class="edge"><title>Node1&#45;&gt;Node2</title>
<path fill="none" stroke="midnightblue" d="M131.807,-15C140.468,-15 149.279,-15 157.815,-15"/>
<polygon fill="midnightblue" stroke="midnightblue" points="131.733,-11.5001 121.733,-15 131.733,-18.5001 131.733,-11.5001"/>
</g>
<!-- Node3 -->
<g id="node3" class="node"><title>Node3</title>
<g id="a_node3"><a xlink:href="classCParameterMgr.html#a042735242f31241743085d2d9d7edcc5" target="_top" xlink:title="CParameterMgr::split">
<polygon fill="white" stroke="black" points="320.5,-5.5 320.5,-24.5 437.5,-24.5 437.5,-5.5 320.5,-5.5"/>
<text text-anchor="middle" x="379" y="-12.5" font-family="Verdana" font-size="10.00">CParameterMgr::split</text>
</a>
</g>
</g>
<!-- Node2&#45;&gt;Node3 -->
<g id="edge2" class="edge"><title>Node2&#45;&gt;Node3</title>
<path fill="none" stroke="midnightblue" d="M294.309,-15C303.064,-15 311.914,-15 320.416,-15"/>
<polygon fill="midnightblue" stroke="midnightblue" points="294.104,-11.5001 284.104,-15 294.104,-18.5001 294.104,-11.5001"/>
</g>
</g>
</svg>
