<?xml version="1.0" encoding="UTF-8" standalone="no"?>
<!DOCTYPE svg PUBLIC "-//W3C//DTD SVG 1.1//EN"
 "http://www.w3.org/Graphics/SVG/1.1/DTD/svg11.dtd">
<!-- Generated by graphviz version 2.38.0 (20140413.2041)
 -->
<!-- Title: CAreaConfiguration::save Pages: 1 -->
<svg width="602pt" height="88pt"
 viewBox="0.00 0.00 602.00 88.00" xmlns="http://www.w3.org/2000/svg" xmlns:xlink="http://www.w3.org/1999/xlink">
<g id="graph0" class="graph" transform="scale(1 1) rotate(0) translate(4 84)">
<title>CAreaConfiguration::save</title>
<polygon fill="white" stroke="none" points="-4,4 -4,-84 598,-84 598,4 -4,4"/>
<!-- Node1 -->
<g id="node1" class="node"><title>Node1</title>
<polygon fill="#bfbfbf" stroke="black" points="0,-24.5 0,-54.5 110,-54.5 110,-24.5 0,-24.5"/>
<text text-anchor="start" x="8" y="-42.5" font-family="Verdana" font-size="10.00">CAreaConfiguration</text>
<text text-anchor="middle" x="55" y="-31.5" font-family="Verdana" font-size="10.00">::save</text>
</g>
<!-- Node2 -->
<g id="node2" class="node"><title>Node2</title>
<g id="a_node2"><a xlink:href="classCAreaConfiguration.html#a9c0ddade93f42f2ed315dd3a0719933c" target="_top" xlink:title="CAreaConfiguration\l::validate">
<polygon fill="white" stroke="black" points="153.5,-49.5 153.5,-79.5 263.5,-79.5 263.5,-49.5 153.5,-49.5"/>
<text text-anchor="start" x="161.5" y="-67.5" font-family="Verdana" font-size="10.00">CAreaConfiguration</text>
<text text-anchor="middle" x="208.5" y="-56.5" font-family="Verdana" font-size="10.00">::validate</text>
</a>
</g>
</g>
<!-- Node1&#45;&gt;Node2 -->
<g id="edge1" class="edge"><title>Node1&#45;&gt;Node2</title>
<path fill="none" stroke="midnightblue" d="M120.266,-50.1049C131.285,-51.9233 142.636,-53.7964 153.357,-55.5656"/>
<polygon fill="midnightblue" stroke="midnightblue" points="120.704,-46.6299 110.267,-48.455 119.564,-53.5365 120.704,-46.6299"/>
</g>
<!-- Node4 -->
<g id="node4" class="node"><title>Node4</title>
<g id="a_node4"><a xlink:href="classCDomainConfiguration.html#aff0adeb0eb6645ef3ae8a4b75c4a7892" target="_top" xlink:title="CDomainConfiguration\l::save">
<polygon fill="white" stroke="black" points="146,-0.5 146,-30.5 271,-30.5 271,-0.5 146,-0.5"/>
<text text-anchor="start" x="154" y="-18.5" font-family="Verdana" font-size="10.00">CDomainConfiguration</text>
<text text-anchor="middle" x="208.5" y="-7.5" font-family="Verdana" font-size="10.00">::save</text>
</a>
</g>
</g>
<!-- Node1&#45;&gt;Node4 -->
<g id="edge3" class="edge"><title>Node1&#45;&gt;Node4</title>
<path fill="none" stroke="midnightblue" d="M120.155,-29.3368C128.68,-27.9863 137.406,-26.6041 145.886,-25.2606"/>
<polygon fill="midnightblue" stroke="midnightblue" points="119.596,-25.8816 110.267,-30.9032 120.692,-32.7954 119.596,-25.8816"/>
</g>
<!-- Node3 -->
<g id="node3" class="node"><title>Node3</title>
<g id="a_node3"><a xlink:href="classCDomainConfiguration.html#a442810a2eceb0eb11da8fefef93406d5" target="_top" xlink:title="CDomainConfiguration\l::validate">
<polygon fill="white" stroke="black" points="307,-49.5 307,-79.5 432,-79.5 432,-49.5 307,-49.5"/>
<text text-anchor="start" x="315" y="-67.5" font-family="Verdana" font-size="10.00">CDomainConfiguration</text>
<text text-anchor="middle" x="369.5" y="-56.5" font-family="Verdana" font-size="10.00">::validate</text>
</a>
</g>
</g>
<!-- Node2&#45;&gt;Node3 -->
<g id="edge2" class="edge"><title>Node2&#45;&gt;Node3</title>
<path fill="none" stroke="midnightblue" d="M274.013,-64.5C284.845,-64.5 296.061,-64.5 306.818,-64.5"/>
<polygon fill="midnightblue" stroke="midnightblue" points="273.774,-61.0001 263.774,-64.5 273.774,-68.0001 273.774,-61.0001"/>
</g>
<!-- Node5 -->
<g id="node5" class="node"><title>Node5</title>
<g id="a_node5"><a xlink:href="classCConfigurableDomain.html#a7656ea4134ae47e8a19e1565c16323f0" target="_top" xlink:title="CConfigurableDomain\l::saveConfiguration">
<polygon fill="white" stroke="black" points="309,-0.5 309,-30.5 430,-30.5 430,-0.5 309,-0.5"/>
<text text-anchor="start" x="317" y="-18.5" font-family="Verdana" font-size="10.00">CConfigurableDomain</text>
<text text-anchor="middle" x="369.5" y="-7.5" font-family="Verdana" font-size="10.00">::saveConfiguration</text>
</a>
</g>
</g>
<!-- Node4&#45;&gt;Node5 -->
<g id="edge4" class="edge"><title>Node4&#45;&gt;Node5</title>
<path fill="none" stroke="midnightblue" d="M281.621,-15.5C290.72,-15.5 299.949,-15.5 308.826,-15.5"/>
<polygon fill="midnightblue" stroke="midnightblue" points="281.429,-12.0001 271.429,-15.5 281.429,-19.0001 281.429,-12.0001"/>
</g>
<!-- Node6 -->
<g id="node6" class="node"><title>Node6</title>
<g id="a_node6"><a xlink:href="classCConfigurableDomains.html#a1be81268a7220733d7aed82e75e8253c" target="_top" xlink:title="CConfigurableDomains\l::saveConfiguration">
<polygon fill="white" stroke="black" points="468,-0.5 468,-30.5 594,-30.5 594,-0.5 468,-0.5"/>
<text text-anchor="start" x="476" y="-18.5" font-family="Verdana" font-size="10.00">CConfigurableDomains</text>
<text text-anchor="middle" x="531" y="-7.5" font-family="Verdana" font-size="10.00">::saveConfiguration</text>
</a>
</g>
</g>
<!-- Node5&#45;&gt;Node6 -->
<g id="edge5" class="edge"><title>Node5&#45;&gt;Node6</title>
<path fill="none" stroke="midnightblue" d="M440.55,-15.5C449.676,-15.5 458.974,-15.5 467.956,-15.5"/>
<polygon fill="midnightblue" stroke="midnightblue" points="440.346,-12.0001 430.346,-15.5 440.346,-19.0001 440.346,-12.0001"/>
</g>
</g>
</svg>
