<?xml version="1.0" encoding="UTF-8" standalone="no"?>
<!DOCTYPE svg PUBLIC "-//W3C//DTD SVG 1.1//EN"
 "http://www.w3.org/Graphics/SVG/1.1/DTD/svg11.dtd">
<!-- Generated by graphviz version 2.36.0 (20140111.2315)
 -->
<!-- Title: CSystemClass::checkForSubsystemsToResync Pages: 1 -->
<svg width="752pt" height="296pt"
 viewBox="0.00 0.00 752.00 296.00" xmlns="http://www.w3.org/2000/svg" xmlns:xlink="http://www.w3.org/1999/xlink">
<g id="graph0" class="graph" transform="scale(1 1) rotate(0) translate(4 292)">
<title>CSystemClass::checkForSubsystemsToResync</title>
<polygon fill="white" stroke="none" points="-4,4 -4,-292 748,-292 748,4 -4,4"/>
<!-- Node1 -->
<g id="node1" class="node"><title>Node1</title>
<polygon fill="#bfbfbf" stroke="black" points="0,-90 0,-120 194,-120 194,-90 0,-90"/>
<text text-anchor="start" x="8" y="-108" font-family="Verdana" font-size="10.00">CSystemClass::checkForSubsystems</text>
<text text-anchor="middle" x="97" y="-97" font-family="Verdana" font-size="10.00">ToResync</text>
</g>
<!-- Node2 -->
<g id="node2" class="node"><title>Node2</title>
<g id="a_node2"><a xlink:href="classCElement.html#a58b6cdb5715497442fde6afa1e65f8e5" target="_top" xlink:title="CElement::getNbChildren">
<polygon fill="white" stroke="black" points="606.5,-174.5 606.5,-193.5 743.5,-193.5 743.5,-174.5 606.5,-174.5"/>
<text text-anchor="middle" x="675" y="-181.5" font-family="Verdana" font-size="10.00">CElement::getNbChildren</text>
</a>
</g>
</g>
<!-- Node1&#45;&gt;Node2 -->
<g id="edge1" class="edge"><title>Node1&#45;&gt;Node2</title>
<path fill="none" stroke="midnightblue" d="M190.266,-120.014C203.589,-122.085 217.139,-124.137 230,-126 358.159,-144.562 507.527,-163.525 596.239,-174.508"/>
<polygon fill="midnightblue" stroke="midnightblue" points="595.866,-177.989 606.22,-175.742 596.725,-171.042 595.866,-177.989"/>
</g>
<!-- Node3 -->
<g id="node3" class="node"><title>Node3</title>
<g id="a_node3"><a xlink:href="classCElement.html#a9bba10d2dc72821589a898e16ace9ae5" target="_top" xlink:title="Get a child element (const) ">
<polygon fill="white" stroke="black" points="621,-114.5 621,-133.5 729,-133.5 729,-114.5 621,-114.5"/>
<text text-anchor="middle" x="675" y="-121.5" font-family="Verdana" font-size="10.00">CElement::getChild</text>
</a>
</g>
</g>
<!-- Node1&#45;&gt;Node3 -->
<g id="edge2" class="edge"><title>Node1&#45;&gt;Node3</title>
<path fill="none" stroke="midnightblue" d="M194.085,-108.169C312.451,-112.074 510.189,-118.597 610.897,-121.918"/>
<polygon fill="midnightblue" stroke="midnightblue" points="610.812,-125.417 620.922,-122.249 611.043,-118.421 610.812,-125.417"/>
</g>
<!-- Node4 -->
<g id="node4" class="node"><title>Node4</title>
<g id="a_node4"><a xlink:href="classCSubsystem.html#a4cb6e87e55f40b52408e42285e504be4" target="_top" xlink:title="CSubsystem::needResync">
<polygon fill="white" stroke="black" points="230,-76.5 230,-95.5 370,-95.5 370,-76.5 230,-76.5"/>
<text text-anchor="middle" x="300" y="-83.5" font-family="Verdana" font-size="10.00">CSubsystem::needResync</text>
</a>
</g>
</g>
<!-- Node1&#45;&gt;Node4 -->
<g id="edge3" class="edge"><title>Node1&#45;&gt;Node4</title>
<path fill="none" stroke="midnightblue" d="M194.085,-95.9174C202.696,-95.1034 211.35,-94.2853 219.794,-93.4872"/>
<polygon fill="midnightblue" stroke="midnightblue" points="220.346,-96.9506 229.972,-92.525 219.687,-89.9817 220.346,-96.9506"/>
</g>
<!-- Node5 -->
<g id="node5" class="node"><title>Node5</title>
<g id="a_node5"><a xlink:href="classCElement.html#a1dee87366d307b43bf8851dd2614c160" target="_top" xlink:title="CElement::log_info">
<polygon fill="white" stroke="black" points="247,-38.5 247,-57.5 353,-57.5 353,-38.5 247,-38.5"/>
<text text-anchor="middle" x="300" y="-45.5" font-family="Verdana" font-size="10.00">CElement::log_info</text>
</a>
</g>
</g>
<!-- Node1&#45;&gt;Node5 -->
<g id="edge4" class="edge"><title>Node1&#45;&gt;Node5</title>
<path fill="none" stroke="midnightblue" d="M149.68,-89.9724C174.029,-82.9304 203.488,-74.4662 230,-67 237.822,-64.7971 246.152,-62.4796 254.219,-60.2499"/>
<polygon fill="midnightblue" stroke="midnightblue" points="255.166,-63.6193 263.876,-57.5872 253.305,-56.8711 255.166,-63.6193"/>
</g>
<!-- Node6 -->
<g id="node6" class="node"><title>Node6</title>
<g id="a_node6"><a xlink:href="classCElement.html#a49581fb6412e29e932962acd82d52d6a" target="_top" xlink:title="CElement::getName">
<polygon fill="white" stroke="black" points="243,-0.5 243,-19.5 357,-19.5 357,-0.5 243,-0.5"/>
<text text-anchor="middle" x="300" y="-7.5" font-family="Verdana" font-size="10.00">CElement::getName</text>
</a>
</g>
</g>
<!-- Node1&#45;&gt;Node6 -->
<g id="edge5" class="edge"><title>Node1&#45;&gt;Node6</title>
<path fill="none" stroke="midnightblue" d="M119.993,-89.9997C145.492,-73.1734 189.249,-46.016 230,-29 235.718,-26.6122 241.828,-24.4336 247.958,-22.4734"/>
<polygon fill="midnightblue" stroke="midnightblue" points="248.996,-25.8161 257.557,-19.574 246.972,-19.1152 248.996,-25.8161"/>
</g>
<!-- Node7 -->
<g id="node7" class="node"><title>Node7</title>
<g id="a_node7"><a xlink:href="classCConfigurableElement.html#a0b3d6d2477e5ea7c23905604fabdb7bf" target="_top" xlink:title="CConfigurableElement\l::fillSyncerSet">
<polygon fill="white" stroke="black" points="238.5,-191 238.5,-221 361.5,-221 361.5,-191 238.5,-191"/>
<text text-anchor="start" x="246.5" y="-209" font-family="Verdana" font-size="10.00">CConfigurableElement</text>
<text text-anchor="middle" x="300" y="-198" font-family="Verdana" font-size="10.00">::fillSyncerSet</text>
</a>
</g>
</g>
<!-- Node1&#45;&gt;Node7 -->
<g id="edge6" class="edge"><title>Node1&#45;&gt;Node7</title>
<path fill="none" stroke="midnightblue" d="M124.46,-120.075C150.872,-134.922 192.777,-157.936 230,-176 237.602,-179.689 245.768,-183.429 253.727,-186.959"/>
<polygon fill="midnightblue" stroke="midnightblue" points="252.365,-190.184 262.929,-190.991 255.174,-183.772 252.365,-190.184"/>
</g>
<!-- Node8 -->
<g id="node8" class="node"><title>Node8</title>
<g id="a_node8"><a xlink:href="classCConfigurableElement.html#ace18ab1044203825e43ce44126c9322d" target="_top" xlink:title="CConfigurableElement\l::getSyncer">
<polygon fill="white" stroke="black" points="426.5,-258 426.5,-288 549.5,-288 549.5,-258 426.5,-258"/>
<text text-anchor="start" x="434.5" y="-276" font-family="Verdana" font-size="10.00">CConfigurableElement</text>
<text text-anchor="middle" x="488" y="-265" font-family="Verdana" font-size="10.00">::getSyncer</text>
</a>
</g>
</g>
<!-- Node7&#45;&gt;Node8 -->
<g id="edge7" class="edge"><title>Node7&#45;&gt;Node8</title>
<path fill="none" stroke="midnightblue" d="M336.688,-221.111C356.877,-229.448 382.678,-239.752 406,-248 412.432,-250.275 419.191,-252.546 425.948,-254.739"/>
<polygon fill="midnightblue" stroke="midnightblue" points="425.215,-258.18 435.806,-257.889 427.346,-251.512 425.215,-258.18"/>
</g>
<!-- Node10 -->
<g id="node10" class="node"><title>Node10</title>
<g id="a_node10"><a xlink:href="classCConfigurableElement.html#a9f29ba1f8a319c22896deda2cf826e78" target="_top" xlink:title="CConfigurableElement\l::fillSyncerSetFromDescendant">
<polygon fill="white" stroke="black" points="406,-191 406,-221 570,-221 570,-191 406,-191"/>
<text text-anchor="start" x="414" y="-209" font-family="Verdana" font-size="10.00">CConfigurableElement</text>
<text text-anchor="middle" x="488" y="-198" font-family="Verdana" font-size="10.00">::fillSyncerSetFromDescendant</text>
</a>
</g>
</g>
<!-- Node7&#45;&gt;Node10 -->
<g id="edge9" class="edge"><title>Node7&#45;&gt;Node10</title>
<path fill="none" stroke="midnightblue" d="M361.646,-206C372.551,-206 384.134,-206 395.683,-206"/>
<polygon fill="midnightblue" stroke="midnightblue" points="395.805,-209.5 405.805,-206 395.805,-202.5 395.805,-209.5"/>
</g>
<!-- Node9 -->
<g id="node9" class="node"><title>Node9</title>
<g id="a_node9"><a xlink:href="classCElement.html#a7987056bec3cbc71bed07cc88b060cf0" target="_top" xlink:title="CElement::getParent">
<polygon fill="white" stroke="black" points="617,-263.5 617,-282.5 733,-282.5 733,-263.5 617,-263.5"/>
<text text-anchor="middle" x="675" y="-270.5" font-family="Verdana" font-size="10.00">CElement::getParent</text>
</a>
</g>
</g>
<!-- Node8&#45;&gt;Node9 -->
<g id="edge8" class="edge"><title>Node8&#45;&gt;Node9</title>
<path fill="none" stroke="midnightblue" d="M549.576,-273C567.803,-273 587.915,-273 606.559,-273"/>
<polygon fill="midnightblue" stroke="midnightblue" points="606.744,-276.5 616.744,-273 606.744,-269.5 606.744,-276.5"/>
</g>
<!-- Node10&#45;&gt;Node2 -->
<g id="edge10" class="edge"><title>Node10&#45;&gt;Node2</title>
<path fill="none" stroke="midnightblue" d="M570.144,-196.35C578.866,-195.313 587.725,-194.26 596.405,-193.228"/>
<polygon fill="midnightblue" stroke="midnightblue" points="596.975,-196.684 606.492,-192.028 596.149,-189.733 596.975,-196.684"/>
</g>
<!-- Node10&#45;&gt;Node3 -->
<g id="edge11" class="edge"><title>Node10&#45;&gt;Node3</title>
<path fill="none" stroke="midnightblue" d="M522.932,-190.96C557.3,-175.726 609.994,-152.37 643.196,-137.654"/>
<polygon fill="midnightblue" stroke="midnightblue" points="644.698,-140.816 652.422,-133.564 641.861,-134.417 644.698,-140.816"/>
</g>
<!-- Node10&#45;&gt;Node10 -->
<g id="edge12" class="edge"><title>Node10&#45;&gt;Node10</title>
<path fill="none" stroke="midnightblue" d="M455.305,-221.275C448.039,-230.406 458.938,-239 488,-239 505.256,-239 516.108,-235.97 520.557,-231.598"/>
<polygon fill="midnightblue" stroke="midnightblue" points="524.061,-231.321 520.695,-221.275 517.062,-231.228 524.061,-231.321"/>
</g>
</g>
</svg>
