<?xml version="1.0" encoding="UTF-8" standalone="no"?>
<!DOCTYPE svg PUBLIC "-//W3C//DTD SVG 1.1//EN"
 "http://www.w3.org/Graphics/SVG/1.1/DTD/svg11.dtd">
<!-- Generated by graphviz version 2.38.0 (20140413.2041)
 -->
<!-- Title: CParameterMgr::sync Pages: 1 -->
<svg width="513pt" height="83pt"
 viewBox="0.00 0.00 513.00 83.00" xmlns="http://www.w3.org/2000/svg" xmlns:xlink="http://www.w3.org/1999/xlink">
<g id="graph0" class="graph" transform="scale(1 1) rotate(0) translate(4 79)">
<title>CParameterMgr::sync</title>
<polygon fill="white" stroke="none" points="-4,4 -4,-79 509,-79 509,4 -4,4"/>
<!-- Node1 -->
<g id="node1" class="node"><title>Node1</title>
<polygon fill="#bfbfbf" stroke="black" points="0,-28 0,-47 119,-47 119,-28 0,-28"/>
<text text-anchor="middle" x="59.5" y="-35" font-family="Verdana" font-size="10.00">CParameterMgr::sync</text>
</g>
<!-- Node2 -->
<g id="node2" class="node"><title>Node2</title>
<g id="a_node2"><a xlink:href="classCParameterMgr.html#acdcc1016dc61898195e8855979803572" target="_top" xlink:title="Sync. ">
<polygon fill="white" stroke="black" points="155,-50 155,-69 313,-69 313,-50 155,-50"/>
<text text-anchor="middle" x="234" y="-57" font-family="Verdana" font-size="10.00">CParameterMgr::setAutoSync</text>
</a>
</g>
</g>
<!-- Node1&#45;&gt;Node2 -->
<g id="edge1" class="edge"><title>Node1&#45;&gt;Node2</title>
<path fill="none" stroke="midnightblue" d="M129.496,-46.2995C138.941,-47.5041 148.674,-48.7454 158.217,-49.9624"/>
<polygon fill="midnightblue" stroke="midnightblue" points="129.745,-42.8029 119.382,-45.0096 128.859,-49.7467 129.745,-42.8029"/>
</g>
<!-- Node4 -->
<g id="node4" class="node"><title>Node4</title>
<g id="a_node4"><a xlink:href="classCParameterMgrFullConnector.html#a68cb9c635d0120600c68a4a3360b3e47" target="_top" xlink:title="CParameterMgrFullConnector\l::sync">
<polygon fill="white" stroke="black" points="156,-0.5 156,-30.5 312,-30.5 312,-0.5 156,-0.5"/>
<text text-anchor="start" x="164" y="-18.5" font-family="Verdana" font-size="10.00">CParameterMgrFullConnector</text>
<text text-anchor="middle" x="234" y="-7.5" font-family="Verdana" font-size="10.00">::sync</text>
</a>
</g>
</g>
<!-- Node1&#45;&gt;Node4 -->
<g id="edge3" class="edge"><title>Node1&#45;&gt;Node4</title>
<path fill="none" stroke="midnightblue" d="M129.42,-28.7101C138.086,-27.605 146.994,-26.4688 155.777,-25.3488"/>
<polygon fill="midnightblue" stroke="midnightblue" points="128.859,-25.2533 119.382,-29.9904 129.745,-32.1971 128.859,-25.2533"/>
</g>
<!-- Node3 -->
<g id="node3" class="node"><title>Node3</title>
<g id="a_node3"><a xlink:href="classCParameterMgrFullConnector.html#acda4d82dc8f94b84470477c6ad847f60" target="_top" xlink:title="CParameterMgrFullConnector\l::setAutoSync">
<polygon fill="white" stroke="black" points="349,-44.5 349,-74.5 505,-74.5 505,-44.5 349,-44.5"/>
<text text-anchor="start" x="357" y="-62.5" font-family="Verdana" font-size="10.00">CParameterMgrFullConnector</text>
<text text-anchor="middle" x="427" y="-51.5" font-family="Verdana" font-size="10.00">::setAutoSync</text>
</a>
</g>
</g>
<!-- Node2&#45;&gt;Node3 -->
<g id="edge2" class="edge"><title>Node2&#45;&gt;Node3</title>
<path fill="none" stroke="midnightblue" d="M323.495,-59.5C331.949,-59.5 340.476,-59.5 348.81,-59.5"/>
<polygon fill="midnightblue" stroke="midnightblue" points="323.238,-56.0001 313.238,-59.5 323.238,-63.0001 323.238,-56.0001"/>
</g>
</g>
</svg>
