<?xml version="1.0" encoding="UTF-8" standalone="no"?>
<!DOCTYPE svg PUBLIC "-//W3C//DTD SVG 1.1//EN"
 "http://www.w3.org/Graphics/SVG/1.1/DTD/svg11.dtd">
<!-- Generated by graphviz version 2.38.0 (20140413.2041)
 -->
<!-- Title: CSelectionCriteriaDefinition::createSelectionCriterion Pages: 1 -->
<svg width="538pt" height="39pt"
 viewBox="0.00 0.00 538.00 39.00" xmlns="http://www.w3.org/2000/svg" xmlns:xlink="http://www.w3.org/1999/xlink">
<g id="graph0" class="graph" transform="scale(1 1) rotate(0) translate(4 35)">
<title>CSelectionCriteriaDefinition::createSelectionCriterion</title>
<polygon fill="white" stroke="none" points="-4,4 -4,-35 534,-35 534,4 -4,4"/>
<!-- Node1 -->
<g id="node1" class="node"><title>Node1</title>
<polygon fill="#bfbfbf" stroke="black" points="0,-0.5 0,-30.5 147,-30.5 147,-0.5 0,-0.5"/>
<text text-anchor="start" x="8" y="-18.5" font-family="Verdana" font-size="10.00">CSelectionCriteriaDefinition</text>
<text text-anchor="middle" x="73.5" y="-7.5" font-family="Verdana" font-size="10.00">::createSelectionCriterion</text>
</g>
<!-- Node2 -->
<g id="node2" class="node"><title>Node2</title>
<g id="a_node2"><a xlink:href="classCSelectionCriteria.html#af0f5289db594b0d2633c59cf8570fa50" target="_top" xlink:title="CSelectionCriteria\l::createSelectionCriterion">
<polygon fill="white" stroke="black" points="183,-0.5 183,-30.5 321,-30.5 321,-0.5 183,-0.5"/>
<text text-anchor="start" x="191" y="-18.5" font-family="Verdana" font-size="10.00">CSelectionCriteria</text>
<text text-anchor="middle" x="252" y="-7.5" font-family="Verdana" font-size="10.00">::createSelectionCriterion</text>
</a>
</g>
</g>
<!-- Node1&#45;&gt;Node2 -->
<g id="edge1" class="edge"><title>Node1&#45;&gt;Node2</title>
<path fill="none" stroke="midnightblue" d="M157.154,-15.5C165.804,-15.5 174.526,-15.5 182.986,-15.5"/>
<polygon fill="midnightblue" stroke="midnightblue" points="157.053,-12.0001 147.053,-15.5 157.053,-19.0001 157.053,-12.0001"/>
</g>
<!-- Node3 -->
<g id="node3" class="node"><title>Node3</title>
<g id="a_node3"><a xlink:href="classCParameterMgr.html#a3b6a3500b78f43bfb894263689b809a7" target="_top" xlink:title="CParameterMgr::createSelection\lCriterion">
<polygon fill="white" stroke="black" points="357,-0.5 357,-30.5 530,-30.5 530,-0.5 357,-0.5"/>
<text text-anchor="start" x="365" y="-18.5" font-family="Verdana" font-size="10.00">CParameterMgr::createSelection</text>
<text text-anchor="middle" x="443.5" y="-7.5" font-family="Verdana" font-size="10.00">Criterion</text>
</a>
</g>
</g>
<!-- Node2&#45;&gt;Node3 -->
<g id="edge2" class="edge"><title>Node2&#45;&gt;Node3</title>
<path fill="none" stroke="midnightblue" d="M331.302,-15.5C339.715,-15.5 348.307,-15.5 356.801,-15.5"/>
<polygon fill="midnightblue" stroke="midnightblue" points="331.146,-12.0001 321.146,-15.5 331.146,-19.0001 331.146,-12.0001"/>
</g>
</g>
</svg>
