<?xml version="1.0" encoding="UTF-8" standalone="no"?>
<!DOCTYPE svg PUBLIC "-//W3C//DTD SVG 1.1//EN"
 "http://www.w3.org/Graphics/SVG/1.1/DTD/svg11.dtd">
<!-- Generated by graphviz version 2.38.0 (20140413.2041)
 -->
<!-- Title: ElementHandle::getMappingData Pages: 1 -->
<svg width="548pt" height="39pt"
 viewBox="0.00 0.00 548.00 39.00" xmlns="http://www.w3.org/2000/svg" xmlns:xlink="http://www.w3.org/1999/xlink">
<g id="graph0" class="graph" transform="scale(1 1) rotate(0) translate(4 35)">
<title>ElementHandle::getMappingData</title>
<polygon fill="white" stroke="none" points="-4,4 -4,-35 544,-35 544,4 -4,4"/>
<!-- Node1 -->
<g id="node1" class="node"><title>Node1</title>
<polygon fill="#bfbfbf" stroke="black" points="-5.68434e-14,-6 -5.68434e-14,-25 176,-25 176,-6 -5.68434e-14,-6"/>
<text text-anchor="middle" x="88" y="-13" font-family="Verdana" font-size="10.00">ElementHandle::getMappingData</text>
</g>
<!-- Node2 -->
<g id="node2" class="node"><title>Node2</title>
<g id="a_node2"><a xlink:href="classCConfigurableElement.html#a878b74bc497da4f959a31cde0cb59165" target="_top" xlink:title="CConfigurableElement\l::getConfigurableElementContext">
<polygon fill="white" stroke="black" points="212,-0.5 212,-30.5 388,-30.5 388,-0.5 212,-0.5"/>
<text text-anchor="start" x="220" y="-18.5" font-family="Verdana" font-size="10.00">CConfigurableElement</text>
<text text-anchor="middle" x="300" y="-7.5" font-family="Verdana" font-size="10.00">::getConfigurableElementContext</text>
</a>
</g>
</g>
<!-- Node1&#45;&gt;Node2 -->
<g id="edge1" class="edge"><title>Node1&#45;&gt;Node2</title>
<path fill="none" stroke="midnightblue" d="M176.235,-15.5C184.567,-15.5 193.052,-15.5 201.474,-15.5"/>
<polygon fill="midnightblue" stroke="midnightblue" points="201.699,-19.0001 211.699,-15.5 201.699,-12.0001 201.699,-19.0001"/>
</g>
<!-- Node3 -->
<g id="node3" class="node"><title>Node3</title>
<g id="a_node3"><a xlink:href="classCElement.html#a7987056bec3cbc71bed07cc88b060cf0" target="_top" xlink:title="CElement::getParent">
<polygon fill="white" stroke="black" points="424,-6 424,-25 540,-25 540,-6 424,-6"/>
<text text-anchor="middle" x="482" y="-13" font-family="Verdana" font-size="10.00">CElement::getParent</text>
</a>
</g>
</g>
<!-- Node2&#45;&gt;Node3 -->
<g id="edge2" class="edge"><title>Node2&#45;&gt;Node3</title>
<path fill="none" stroke="midnightblue" d="M388.1,-15.5C396.713,-15.5 405.361,-15.5 413.729,-15.5"/>
<polygon fill="midnightblue" stroke="midnightblue" points="413.775,-19.0001 423.775,-15.5 413.775,-12.0001 413.775,-19.0001"/>
</g>
</g>
</svg>
