<?xml version="1.0" encoding="UTF-8" standalone="no"?>
<!DOCTYPE svg PUBLIC "-//W3C//DTD SVG 1.1//EN"
 "http://www.w3.org/Graphics/SVG/1.1/DTD/svg11.dtd">
<!-- Generated by graphviz version 2.38.0 (20140413.2041)
 -->
<!-- Title: CSubsystem::needResync Pages: 1 -->
<svg width="842pt" height="88pt"
 viewBox="0.00 0.00 842.00 88.00" xmlns="http://www.w3.org/2000/svg" xmlns:xlink="http://www.w3.org/1999/xlink">
<g id="graph0" class="graph" transform="scale(1 1) rotate(0) translate(4 84)">
<title>CSubsystem::needResync</title>
<polygon fill="white" stroke="none" points="-4,4 -4,-84 838,-84 838,4 -4,4"/>
<!-- Node1 -->
<g id="node1" class="node"><title>Node1</title>
<polygon fill="#bfbfbf" stroke="black" points="0,-30 0,-49 140,-49 140,-30 0,-30"/>
<text text-anchor="middle" x="70" y="-37" font-family="Verdana" font-size="10.00">CSubsystem::needResync</text>
</g>
<!-- Node2 -->
<g id="node2" class="node"><title>Node2</title>
<g id="a_node2"><a xlink:href="classCSystemClass.html#abefbe05f7e9ce5b93ccdd15b3694184e" target="_top" xlink:title="Look for subsystems that need to be resynchronized. ">
<polygon fill="white" stroke="black" points="176,-49.5 176,-79.5 370,-79.5 370,-49.5 176,-49.5"/>
<text text-anchor="start" x="184" y="-67.5" font-family="Verdana" font-size="10.00">CSystemClass::checkForSubsystems</text>
<text text-anchor="middle" x="273" y="-56.5" font-family="Verdana" font-size="10.00">ToResync</text>
</a>
</g>
</g>
<!-- Node1&#45;&gt;Node2 -->
<g id="edge1" class="edge"><title>Node1&#45;&gt;Node2</title>
<path fill="none" stroke="midnightblue" d="M150.254,-49.3575C158.616,-50.3975 167.184,-51.4631 175.711,-52.5237"/>
<polygon fill="midnightblue" stroke="midnightblue" points="150.528,-45.8647 140.173,-48.1036 149.664,-52.8112 150.528,-45.8647"/>
</g>
<!-- Node3 -->
<g id="node3" class="node"><title>Node3</title>
<g id="a_node3"><a xlink:href="classCSystemClass.html#ae6f4699f2c40ce3a72bde018aa4453ad" target="_top" xlink:title="Reset subsystems need to resync flag. ">
<polygon fill="white" stroke="black" points="185,-0.5 185,-30.5 361,-30.5 361,-0.5 185,-0.5"/>
<text text-anchor="start" x="193" y="-18.5" font-family="Verdana" font-size="10.00">CSystemClass::cleanSubsystems</text>
<text text-anchor="middle" x="273" y="-7.5" font-family="Verdana" font-size="10.00">NeedToResync</text>
</a>
</g>
</g>
<!-- Node1&#45;&gt;Node3 -->
<g id="edge2" class="edge"><title>Node1&#45;&gt;Node3</title>
<path fill="none" stroke="midnightblue" d="M150.107,-30.0544C161.542,-28.689 173.365,-27.2773 184.946,-25.8945"/>
<polygon fill="midnightblue" stroke="midnightblue" points="149.687,-26.5796 140.173,-31.2406 150.517,-33.5302 149.687,-26.5796"/>
</g>
<!-- Node4 -->
<g id="node4" class="node"><title>Node4</title>
<g id="a_node4"><a xlink:href="classCParameterMgr.html#aad4830a40d67cfae091cbf1a15ff29d0" target="_top" xlink:title="Load plugins, structures and settings from the config file given. ">
<polygon fill="white" stroke="black" points="406,-6 406,-25 524,-25 524,-6 406,-6"/>
<text text-anchor="middle" x="465" y="-13" font-family="Verdana" font-size="10.00">CParameterMgr::load</text>
</a>
</g>
</g>
<!-- Node3&#45;&gt;Node4 -->
<g id="edge3" class="edge"><title>Node3&#45;&gt;Node4</title>
<path fill="none" stroke="midnightblue" d="M371.515,-15.5C383.242,-15.5 394.917,-15.5 405.826,-15.5"/>
<polygon fill="midnightblue" stroke="midnightblue" points="371.215,-12.0001 361.215,-15.5 371.215,-19.0001 371.215,-12.0001"/>
</g>
<!-- Node5 -->
<g id="node5" class="node"><title>Node5</title>
<g id="a_node5"><a xlink:href="classCParameterMgrPlatformConnector.html#a04060080b3be8780e4a7d0211fd95da7" target="_top" xlink:title="CParameterMgrPlatformConnector\l::start">
<polygon fill="white" stroke="black" points="560,-0.5 560,-30.5 742,-30.5 742,-0.5 560,-0.5"/>
<text text-anchor="start" x="568" y="-18.5" font-family="Verdana" font-size="10.00">CParameterMgrPlatformConnector</text>
<text text-anchor="middle" x="651" y="-7.5" font-family="Verdana" font-size="10.00">::start</text>
</a>
</g>
</g>
<!-- Node4&#45;&gt;Node5 -->
<g id="edge4" class="edge"><title>Node4&#45;&gt;Node5</title>
<path fill="none" stroke="midnightblue" d="M534.259,-15.5C542.622,-15.5 551.265,-15.5 559.887,-15.5"/>
<polygon fill="midnightblue" stroke="midnightblue" points="534.219,-12.0001 524.219,-15.5 534.219,-19.0001 534.219,-12.0001"/>
</g>
<!-- Node6 -->
<g id="node6" class="node"><title>Node6</title>
<g id="a_node6"><a xlink:href="ParameterFramework_8cpp.html#a44326e09ebb9719ecb017d1d67832b6f" target="_top" xlink:title="pfwStart">
<polygon fill="white" stroke="black" points="778,-6 778,-25 834,-25 834,-6 778,-6"/>
<text text-anchor="middle" x="806" y="-13" font-family="Verdana" font-size="10.00">pfwStart</text>
</a>
</g>
</g>
<!-- Node5&#45;&gt;Node6 -->
<g id="edge5" class="edge"><title>Node5&#45;&gt;Node6</title>
<path fill="none" stroke="midnightblue" d="M752.494,-15.5C761.703,-15.5 770.397,-15.5 777.96,-15.5"/>
<polygon fill="midnightblue" stroke="midnightblue" points="752.328,-12.0001 742.328,-15.5 752.328,-19.0001 752.328,-12.0001"/>
</g>
</g>
</svg>
