<?xml version="1.0" encoding="UTF-8" standalone="no"?>
<!DOCTYPE svg PUBLIC "-//W3C//DTD SVG 1.1//EN"
 "http://www.w3.org/Graphics/SVG/1.1/DTD/svg11.dtd">
<!-- Generated by graphviz version 2.36.0 (20140111.2315)
 -->
<!-- Title: CPathNavigator::navigateThrough Pages: 1 -->
<svg width="572pt" height="87pt"
 viewBox="0.00 0.00 572.00 87.00" xmlns="http://www.w3.org/2000/svg" xmlns:xlink="http://www.w3.org/1999/xlink">
<g id="graph0" class="graph" transform="scale(1 1) rotate(0) translate(4 83)">
<title>CPathNavigator::navigateThrough</title>
<polygon fill="white" stroke="none" points="-4,4 -4,-83 568,-83 568,4 -4,4"/>
<!-- Node1 -->
<g id="node1" class="node"><title>Node1</title>
<polygon fill="#bfbfbf" stroke="black" points="0,-22 0,-52 138,-52 138,-22 0,-22"/>
<text text-anchor="start" x="8" y="-40" font-family="Verdana" font-size="10.00">CPathNavigator::navigate</text>
<text text-anchor="middle" x="69" y="-29" font-family="Verdana" font-size="10.00">Through</text>
</g>
<!-- Node2 -->
<g id="node2" class="node"><title>Node2</title>
<g id="a_node2"><a xlink:href="classCParameterMgr.html#ad3ee51d6a9f2e0d0ea143a238120b5af" target="_top" xlink:title="Returns the CConfigurableElement corresponding to the path given in argument. ">
<polygon fill="white" stroke="black" points="174.5,-44 174.5,-74 347.5,-74 347.5,-44 174.5,-44"/>
<text text-anchor="start" x="182.5" y="-62" font-family="Verdana" font-size="10.00">CParameterMgr::getConfigurable</text>
<text text-anchor="middle" x="261" y="-51" font-family="Verdana" font-size="10.00">Element</text>
</a>
</g>
</g>
<!-- Node1&#45;&gt;Node2 -->
<g id="edge1" class="edge"><title>Node1&#45;&gt;Node2</title>
<path fill="none" stroke="midnightblue" d="M148.064,-46.039C156.678,-47.0364 165.485,-48.0561 174.187,-49.0638"/>
<polygon fill="midnightblue" stroke="midnightblue" points="148.394,-42.5539 138.058,-44.8804 147.589,-49.5074 148.394,-42.5539"/>
</g>
<!-- Node4 -->
<g id="node4" class="node"><title>Node4</title>
<g id="a_node4"><a xlink:href="classCParameterMgr.html#a00467972dcf35bd3036a536f5c328436" target="_top" xlink:title="Returns the element mapping corresponding to the path given in parameter. ">
<polygon fill="white" stroke="black" points="392,-0 392,-30 556,-30 556,-0 392,-0"/>
<text text-anchor="start" x="400" y="-18" font-family="Verdana" font-size="10.00">CParameterMgr::getParameter</text>
<text text-anchor="middle" x="474" y="-7" font-family="Verdana" font-size="10.00">Mapping</text>
</a>
</g>
</g>
<!-- Node1&#45;&gt;Node4 -->
<g id="edge4" class="edge"><title>Node1&#45;&gt;Node4</title>
<path fill="none" stroke="midnightblue" d="M148.465,-32.7166C218.565,-28.8898 320.853,-23.3058 391.78,-19.4338"/>
<polygon fill="midnightblue" stroke="midnightblue" points="148.158,-29.228 138.363,-33.268 148.539,-36.2176 148.158,-29.228"/>
</g>
<!-- Node3 -->
<g id="node3" class="node"><title>Node3</title>
<g id="a_node3"><a xlink:href="classCParameterMgr.html#ada6dd503a49385c74029b7c0e8e1ba0e" target="_top" xlink:title="CParameterMgr::createParameter\lHandle">
<polygon fill="white" stroke="black" points="384.5,-49 384.5,-79 563.5,-79 563.5,-49 384.5,-49"/>
<text text-anchor="start" x="392.5" y="-67" font-family="Verdana" font-size="10.00">CParameterMgr::createParameter</text>
<text text-anchor="middle" x="474" y="-56" font-family="Verdana" font-size="10.00">Handle</text>
</a>
</g>
</g>
<!-- Node2&#45;&gt;Node3 -->
<g id="edge2" class="edge"><title>Node2&#45;&gt;Node3</title>
<path fill="none" stroke="midnightblue" d="M357.519,-61.2635C366.425,-61.4745 375.427,-61.6879 384.268,-61.8974"/>
<polygon fill="midnightblue" stroke="midnightblue" points="357.598,-57.7645 347.518,-61.0265 357.432,-64.7625 357.598,-57.7645"/>
</g>
<!-- Node2&#45;&gt;Node4 -->
<g id="edge3" class="edge"><title>Node2&#45;&gt;Node4</title>
<path fill="none" stroke="midnightblue" d="M344.031,-41.8941C362.805,-37.979 382.624,-33.8462 400.943,-30.0262"/>
<polygon fill="midnightblue" stroke="midnightblue" points="343.099,-38.513 334.024,-43.9808 344.528,-45.3656 343.099,-38.513"/>
</g>
</g>
</svg>
