<?xml version="1.0" encoding="UTF-8" standalone="no"?>
<!DOCTYPE svg PUBLIC "-//W3C//DTD SVG 1.1//EN"
 "http://www.w3.org/Graphics/SVG/1.1/DTD/svg11.dtd">
<!-- Generated by graphviz version 2.38.0 (20140413.2041)
 -->
<!-- Title: CConfigurableDomain::apply Pages: 1 -->
<svg width="711pt" height="132pt"
 viewBox="0.00 0.00 711.00 132.00" xmlns="http://www.w3.org/2000/svg" xmlns:xlink="http://www.w3.org/1999/xlink">
<g id="graph0" class="graph" transform="scale(1 1) rotate(0) translate(4 128)">
<title>CConfigurableDomain::apply</title>
<polygon fill="white" stroke="none" points="-4,4 -4,-128 707,-128 707,4 -4,4"/>
<!-- Node1 -->
<g id="node1" class="node"><title>Node1</title>
<polygon fill="#bfbfbf" stroke="black" points="0,-61 0,-91 121,-91 121,-61 0,-61"/>
<text text-anchor="start" x="8" y="-79" font-family="Verdana" font-size="10.00">CConfigurableDomain</text>
<text text-anchor="middle" x="60.5" y="-68" font-family="Verdana" font-size="10.00">::apply</text>
</g>
<!-- Node2 -->
<g id="node2" class="node"><title>Node2</title>
<g id="a_node2"><a xlink:href="classCElement.html#aaa4df1b13a53263f8cc2b668172873d9" target="_top" xlink:title="CElement::log_info">
<polygon fill="white" stroke="black" points="166.5,-104.5 166.5,-123.5 272.5,-123.5 272.5,-104.5 166.5,-104.5"/>
<text text-anchor="middle" x="219.5" y="-111.5" font-family="Verdana" font-size="10.00">CElement::log_info</text>
</a>
</g>
</g>
<!-- Node1&#45;&gt;Node2 -->
<g id="edge1" class="edge"><title>Node1&#45;&gt;Node2</title>
<path fill="none" stroke="midnightblue" d="M121.303,-90.4746C136.934,-94.2578 153.614,-98.2952 168.665,-101.938"/>
<polygon fill="midnightblue" stroke="midnightblue" points="168.249,-105.438 178.792,-104.389 169.896,-98.6348 168.249,-105.438"/>
</g>
<!-- Node3 -->
<g id="node3" class="node"><title>Node3</title>
<g id="a_node3"><a xlink:href="classCElement.html#a49581fb6412e29e932962acd82d52d6a" target="_top" xlink:title="CElement::getName">
<polygon fill="white" stroke="black" points="162.5,-66.5 162.5,-85.5 276.5,-85.5 276.5,-66.5 162.5,-66.5"/>
<text text-anchor="middle" x="219.5" y="-73.5" font-family="Verdana" font-size="10.00">CElement::getName</text>
</a>
</g>
</g>
<!-- Node1&#45;&gt;Node3 -->
<g id="edge2" class="edge"><title>Node1&#45;&gt;Node3</title>
<path fill="none" stroke="midnightblue" d="M121.303,-76C131.442,-76 142.022,-76 152.313,-76"/>
<polygon fill="midnightblue" stroke="midnightblue" points="152.481,-79.5001 162.481,-76 152.481,-72.5001 152.481,-79.5001"/>
</g>
<!-- Node4 -->
<g id="node4" class="node"><title>Node4</title>
<g id="a_node4"><a xlink:href="classCDomainConfiguration.html#a1e837621d00a5ed2282c525c25a484e7" target="_top" xlink:title="CDomainConfiguration\l::restore">
<polygon fill="white" stroke="black" points="157,-17 157,-47 282,-47 282,-17 157,-17"/>
<text text-anchor="start" x="165" y="-35" font-family="Verdana" font-size="10.00">CDomainConfiguration</text>
<text text-anchor="middle" x="219.5" y="-24" font-family="Verdana" font-size="10.00">::restore</text>
</a>
</g>
</g>
<!-- Node1&#45;&gt;Node4 -->
<g id="edge3" class="edge"><title>Node1&#45;&gt;Node4</title>
<path fill="none" stroke="midnightblue" d="M115.091,-60.9808C127.904,-57.39 141.704,-53.5224 154.919,-49.819"/>
<polygon fill="midnightblue" stroke="midnightblue" points="156.199,-53.095 164.884,-47.0262 154.31,-46.3547 156.199,-53.095"/>
</g>
<!-- Node5 -->
<g id="node5" class="node"><title>Node5</title>
<g id="a_node5"><a xlink:href="classCAreaConfiguration.html#a5f72a0349e2309a77459650ba10918a1" target="_top" xlink:title="CAreaConfiguration\l::restore">
<polygon fill="white" stroke="black" points="318,-17 318,-47 428,-47 428,-17 318,-17"/>
<text text-anchor="start" x="326" y="-35" font-family="Verdana" font-size="10.00">CAreaConfiguration</text>
<text text-anchor="middle" x="373" y="-24" font-family="Verdana" font-size="10.00">::restore</text>
</a>
</g>
</g>
<!-- Node4&#45;&gt;Node5 -->
<g id="edge4" class="edge"><title>Node4&#45;&gt;Node5</title>
<path fill="none" stroke="midnightblue" d="M282.121,-32C290.508,-32 299.134,-32 307.568,-32"/>
<polygon fill="midnightblue" stroke="midnightblue" points="307.733,-35.5001 317.733,-32 307.733,-28.5001 307.733,-35.5001"/>
</g>
<!-- Node6 -->
<g id="node6" class="node"><title>Node6</title>
<g id="a_node6"><a xlink:href="classCConfigurableElement.html#a29d61e6d09ff508ebb87aea802f2704e" target="_top" xlink:title="CConfigurableElement\l::getOffset">
<polygon fill="white" stroke="black" points="464,-39 464,-69 587,-69 587,-39 464,-39"/>
<text text-anchor="start" x="472" y="-57" font-family="Verdana" font-size="10.00">CConfigurableElement</text>
<text text-anchor="middle" x="525.5" y="-46" font-family="Verdana" font-size="10.00">::getOffset</text>
</a>
</g>
</g>
<!-- Node5&#45;&gt;Node6 -->
<g id="edge5" class="edge"><title>Node5&#45;&gt;Node6</title>
<path fill="none" stroke="midnightblue" d="M428.334,-39.9425C436.625,-41.1544 445.283,-42.4202 453.862,-43.6742"/>
<polygon fill="midnightblue" stroke="midnightblue" points="453.468,-47.1536 463.869,-45.137 454.48,-40.2273 453.468,-47.1536"/>
</g>
<!-- Node7 -->
<g id="node7" class="node"><title>Node7</title>
<g id="a_node7"><a xlink:href="classCSyncerSet.html#a6ee2b3a5edcccc64b8694df736312e4b" target="_top" xlink:title="CSyncerSet::sync">
<polygon fill="white" stroke="black" points="475,-0.5 475,-19.5 576,-19.5 576,-0.5 475,-0.5"/>
<text text-anchor="middle" x="525.5" y="-7.5" font-family="Verdana" font-size="10.00">CSyncerSet::sync</text>
</a>
</g>
</g>
<!-- Node5&#45;&gt;Node7 -->
<g id="edge6" class="edge"><title>Node5&#45;&gt;Node7</title>
<path fill="none" stroke="midnightblue" d="M428.334,-24.0575C440.174,-22.3267 452.765,-20.4862 464.801,-18.7268"/>
<polygon fill="midnightblue" stroke="midnightblue" points="465.363,-22.1819 474.751,-17.2722 464.35,-15.2555 465.363,-22.1819"/>
</g>
<!-- Node8 -->
<g id="node8" class="node"><title>Node8</title>
<g id="a_node8"><a xlink:href="classISyncer.html#a16844aac52fb0caf4aed4f68d4b038d9" target="_top" xlink:title="ISyncer::sync">
<polygon fill="white" stroke="black" points="623,-0.5 623,-19.5 703,-19.5 703,-0.5 623,-0.5"/>
<text text-anchor="middle" x="663" y="-7.5" font-family="Verdana" font-size="10.00">ISyncer::sync</text>
</a>
</g>
</g>
<!-- Node7&#45;&gt;Node8 -->
<g id="edge7" class="edge"><title>Node7&#45;&gt;Node8</title>
<path fill="none" stroke="midnightblue" d="M576.186,-10C588.103,-10 600.825,-10 612.724,-10"/>
<polygon fill="midnightblue" stroke="midnightblue" points="612.927,-13.5001 622.927,-10 612.927,-6.5001 612.927,-13.5001"/>
</g>
</g>
</svg>
