<?xml version="1.0" encoding="UTF-8" standalone="no"?>
<!DOCTYPE svg PUBLIC "-//W3C//DTD SVG 1.1//EN"
 "http://www.w3.org/Graphics/SVG/1.1/DTD/svg11.dtd">
<!-- Generated by graphviz version 2.38.0 (20140413.2041)
 -->
<!-- Title: CMappingData::getValue Pages: 1 -->
<svg width="754pt" height="106pt"
 viewBox="0.00 0.00 754.00 106.00" xmlns="http://www.w3.org/2000/svg" xmlns:xlink="http://www.w3.org/1999/xlink">
<g id="graph0" class="graph" transform="scale(1 1) rotate(0) translate(4 102)">
<title>CMappingData::getValue</title>
<polygon fill="white" stroke="none" points="-4,4 -4,-102 750,-102 750,4 -4,4"/>
<!-- Node1 -->
<g id="node1" class="node"><title>Node1</title>
<polygon fill="#bfbfbf" stroke="black" points="0,-50.5 0,-69.5 135,-69.5 135,-50.5 0,-50.5"/>
<text text-anchor="middle" x="67.5" y="-57.5" font-family="Verdana" font-size="10.00">CMappingData::getValue</text>
</g>
<!-- Node2 -->
<g id="node2" class="node"><title>Node2</title>
<g id="a_node2"><a xlink:href="classCSubsystem.html#aa9874e52216edf6895c286551035ab1d" target="_top" xlink:title="Get the value associated to a mapping key in the object&#39;s mapping. ">
<polygon fill="white" stroke="black" points="174.5,-78.5 174.5,-97.5 337.5,-97.5 337.5,-78.5 174.5,-78.5"/>
<text text-anchor="middle" x="256" y="-85.5" font-family="Verdana" font-size="10.00">CSubsystem::getMappingData</text>
</a>
</g>
</g>
<!-- Node1&#45;&gt;Node2 -->
<g id="edge1" class="edge"><title>Node1&#45;&gt;Node2</title>
<path fill="none" stroke="midnightblue" d="M141.959,-71.0287C158.321,-73.4851 175.535,-76.0695 191.458,-78.4602"/>
<polygon fill="midnightblue" stroke="midnightblue" points="142.309,-67.5422 131.901,-69.5186 141.27,-74.4646 142.309,-67.5422"/>
</g>
<!-- Node3 -->
<g id="node3" class="node"><title>Node3</title>
<g id="a_node3"><a xlink:href="classCTypeElement.html#aa8d910c6cf51c03d03f183a6a81a8372" target="_top" xlink:title="CTypeElement::getMappingData">
<polygon fill="white" stroke="black" points="171,-22.5 171,-41.5 341,-41.5 341,-22.5 171,-22.5"/>
<text text-anchor="middle" x="256" y="-29.5" font-family="Verdana" font-size="10.00">CTypeElement::getMappingData</text>
</a>
</g>
</g>
<!-- Node1&#45;&gt;Node3 -->
<g id="edge2" class="edge"><title>Node1&#45;&gt;Node3</title>
<path fill="none" stroke="midnightblue" d="M141.959,-48.9713C158.321,-46.5149 175.535,-43.9305 191.458,-41.5398"/>
<polygon fill="midnightblue" stroke="midnightblue" points="141.27,-45.5354 131.901,-50.4814 142.309,-52.4578 141.27,-45.5354"/>
</g>
<!-- Node3&#45;&gt;Node3 -->
<g id="edge4" class="edge"><title>Node3&#45;&gt;Node3</title>
<path fill="none" stroke="midnightblue" d="M220.768,-49.8913C221.284,-55.5406 233.028,-60 256,-60 289.414,-60 299.073,-50.5653 284.976,-41.7571"/>
<polygon fill="midnightblue" stroke="midnightblue" points="223.702,-51.8176 227.024,-41.7571 218.153,-47.5501 223.702,-51.8176"/>
</g>
<!-- Node4 -->
<g id="node4" class="node"><title>Node4</title>
<g id="a_node4"><a xlink:href="classCInstanceConfigurableElement.html#a73aace151a51fbd2a2c02bfd83b24f59" target="_top" xlink:title="Get the value associated to a mapping key in the object&#39;s mapping. ">
<polygon fill="white" stroke="black" points="377,-39 377,-69 541,-69 541,-39 377,-39"/>
<text text-anchor="start" x="385" y="-57" font-family="Verdana" font-size="10.00">CInstanceConfigurableElement</text>
<text text-anchor="middle" x="459" y="-46" font-family="Verdana" font-size="10.00">::getMappingData</text>
</a>
</g>
</g>
<!-- Node3&#45;&gt;Node4 -->
<g id="edge3" class="edge"><title>Node3&#45;&gt;Node4</title>
<path fill="none" stroke="midnightblue" d="M351.121,-42.3018C359.714,-43.2423 368.369,-44.1896 376.834,-45.1162"/>
<polygon fill="midnightblue" stroke="midnightblue" points="351.399,-38.8114 341.077,-41.2025 350.637,-45.7698 351.399,-38.8114"/>
</g>
<!-- Node5 -->
<g id="node5" class="node"><title>Node5</title>
<g id="a_node5"><a xlink:href="classCTypeElement.html#a8f3a08cd11a7db4fde3bd69dde5c8b66" target="_top" xlink:title="CTypeElement::fromXml">
<polygon fill="white" stroke="black" points="393.5,-0.5 393.5,-19.5 524.5,-19.5 524.5,-0.5 393.5,-0.5"/>
<text text-anchor="middle" x="459" y="-7.5" font-family="Verdana" font-size="10.00">CTypeElement::fromXml</text>
</a>
</g>
</g>
<!-- Node3&#45;&gt;Node5 -->
<g id="edge5" class="edge"><title>Node3&#45;&gt;Node5</title>
<path fill="none" stroke="midnightblue" d="M351.35,-21.6731C365.52,-20.1222 379.853,-18.5534 393.218,-17.0906"/>
<polygon fill="midnightblue" stroke="midnightblue" points="350.637,-18.2302 341.077,-22.7975 351.399,-25.1886 350.637,-18.2302"/>
</g>
<!-- Node6 -->
<g id="node6" class="node"><title>Node6</title>
<g id="a_node6"><a xlink:href="classCSubsystem.html#a82e0dd2dd8f504c57e3b997f13dc7654" target="_top" xlink:title="Deserialize the structure from xml. ">
<polygon fill="white" stroke="black" points="577,-0.5 577,-19.5 746,-19.5 746,-0.5 577,-0.5"/>
<text text-anchor="middle" x="661.5" y="-7.5" font-family="Verdana" font-size="10.00">CSubsystem::structureFromXml</text>
</a>
</g>
</g>
<!-- Node5&#45;&gt;Node6 -->
<g id="edge6" class="edge"><title>Node5&#45;&gt;Node6</title>
<path fill="none" stroke="midnightblue" d="M534.826,-10C548.468,-10 562.783,-10 576.666,-10"/>
<polygon fill="midnightblue" stroke="midnightblue" points="534.543,-6.5001 524.543,-10 534.543,-13.5001 534.543,-6.5001"/>
</g>
</g>
</svg>
