<?xml version="1.0" encoding="UTF-8" standalone="no"?>
<!DOCTYPE svg PUBLIC "-//W3C//DTD SVG 1.1//EN"
 "http://www.w3.org/Graphics/SVG/1.1/DTD/svg11.dtd">
<!-- Generated by graphviz version 2.38.0 (20140413.2041)
 -->
<!-- Title: CDomainConfiguration::setApplicationRule Pages: 1 -->
<svg width="827pt" height="337pt"
 viewBox="0.00 0.00 827.00 336.50" xmlns="http://www.w3.org/2000/svg" xmlns:xlink="http://www.w3.org/1999/xlink">
<g id="graph0" class="graph" transform="scale(1 1) rotate(0) translate(4 332.5)">
<title>CDomainConfiguration::setApplicationRule</title>
<polygon fill="white" stroke="none" points="-4,4 -4,-332.5 823,-332.5 823,4 -4,4"/>
<!-- Node1 -->
<g id="node1" class="node"><title>Node1</title>
<polygon fill="#bfbfbf" stroke="black" points="0,-246.5 0,-276.5 125,-276.5 125,-246.5 0,-246.5"/>
<text text-anchor="start" x="8" y="-264.5" font-family="Verdana" font-size="10.00">CDomainConfiguration</text>
<text text-anchor="middle" x="62.5" y="-253.5" font-family="Verdana" font-size="10.00">::setApplicationRule</text>
</g>
<!-- Node2 -->
<g id="node2" class="node"><title>Node2</title>
<g id="a_node2"><a xlink:href="classCRuleParser.html#a04260c30f05a16437df6fa9e5f4865ba" target="_top" xlink:title="CRuleParser::CRuleParser">
<polygon fill="white" stroke="black" points="164,-308 164,-327 299,-327 299,-308 164,-308"/>
<text text-anchor="middle" x="231.5" y="-315" font-family="Verdana" font-size="10.00">CRuleParser::CRuleParser</text>
</a>
</g>
</g>
<!-- Node1&#45;&gt;Node2 -->
<g id="edge1" class="edge"><title>Node1&#45;&gt;Node2</title>
<path fill="none" stroke="midnightblue" d="M100.704,-276.578C118.762,-283.65 140.858,-291.942 161,-298.5 168.195,-300.843 175.87,-303.139 183.397,-305.28"/>
<polygon fill="midnightblue" stroke="midnightblue" points="182.581,-308.686 193.154,-307.997 184.459,-301.943 182.581,-308.686"/>
</g>
<!-- Node3 -->
<g id="node3" class="node"><title>Node3</title>
<g id="a_node3"><a xlink:href="classCRuleParser.html#acbce516a22f0dca0af620e751d298f7a" target="_top" xlink:title="CRuleParser::parse">
<polygon fill="white" stroke="black" points="178.5,-252 178.5,-271 284.5,-271 284.5,-252 178.5,-252"/>
<text text-anchor="middle" x="231.5" y="-259" font-family="Verdana" font-size="10.00">CRuleParser::parse</text>
</a>
</g>
</g>
<!-- Node1&#45;&gt;Node3 -->
<g id="edge2" class="edge"><title>Node1&#45;&gt;Node3</title>
<path fill="none" stroke="midnightblue" d="M125.21,-261.5C139.266,-261.5 154.208,-261.5 168.285,-261.5"/>
<polygon fill="midnightblue" stroke="midnightblue" points="168.358,-265 178.358,-261.5 168.358,-258 168.358,-265"/>
</g>
<!-- Node17 -->
<g id="node17" class="node"><title>Node17</title>
<g id="a_node17"><a xlink:href="classCRuleParser.html#a89407cd2535589d81d1d5beba1e51544" target="_top" xlink:title="CRuleParser::grabRootRule">
<polygon fill="white" stroke="black" points="161,-214 161,-233 302,-233 302,-214 161,-214"/>
<text text-anchor="middle" x="231.5" y="-221" font-family="Verdana" font-size="10.00">CRuleParser::grabRootRule</text>
</a>
</g>
</g>
<!-- Node1&#45;&gt;Node17 -->
<g id="edge18" class="edge"><title>Node1&#45;&gt;Node17</title>
<path fill="none" stroke="midnightblue" d="M125.21,-247.458C142.677,-243.484 161.511,-239.198 178.354,-235.366"/>
<polygon fill="midnightblue" stroke="midnightblue" points="179.579,-238.676 188.553,-233.045 178.026,-231.851 179.579,-238.676"/>
</g>
<!-- Node3&#45;&gt;Node3 -->
<g id="edge7" class="edge"><title>Node3&#45;&gt;Node3</title>
<path fill="none" stroke="midnightblue" d="M205.606,-271.257C193.009,-280.065 201.641,-289.5 231.5,-289.5 251.562,-289.5 262.041,-285.241 262.937,-279.775"/>
<polygon fill="midnightblue" stroke="midnightblue" points="265.782,-277.729 257.394,-271.257 259.915,-281.548 265.782,-277.729"/>
</g>
<!-- Node4 -->
<g id="node4" class="node"><title>Node4</title>
<g id="a_node4"><a xlink:href="classCRuleParser.html#ac7faca228556fb47a33ccb95e15ce6d6" target="_top" xlink:title="CRuleParser::iterate">
<polygon fill="white" stroke="black" points="347,-309 347,-328 457,-328 457,-309 347,-309"/>
<text text-anchor="middle" x="402" y="-316" font-family="Verdana" font-size="10.00">CRuleParser::iterate</text>
</a>
</g>
</g>
<!-- Node3&#45;&gt;Node4 -->
<g id="edge3" class="edge"><title>Node3&#45;&gt;Node4</title>
<path fill="none" stroke="midnightblue" d="M257.951,-271.094C279.238,-279.015 310.459,-290.394 338,-299.5 344.559,-301.669 351.534,-303.873 358.363,-305.975"/>
<polygon fill="midnightblue" stroke="midnightblue" points="357.613,-309.405 368.199,-308.965 359.649,-302.707 357.613,-309.405"/>
</g>
<!-- Node5 -->
<g id="node5" class="node"><title>Node5</title>
<g id="a_node5"><a xlink:href="classCCompoundRule.html#ab66d3bbb9bd8b229e1644a5eb87f7fa7" target="_top" xlink:title="CCompoundRule::parse">
<polygon fill="white" stroke="black" points="338,-271 338,-290 466,-290 466,-271 338,-271"/>
<text text-anchor="middle" x="402" y="-278" font-family="Verdana" font-size="10.00">CCompoundRule::parse</text>
</a>
</g>
</g>
<!-- Node3&#45;&gt;Node5 -->
<g id="edge4" class="edge"><title>Node3&#45;&gt;Node5</title>
<path fill="none" stroke="midnightblue" d="M284.891,-267.408C298.549,-268.948 313.517,-270.635 328.03,-272.272"/>
<polygon fill="midnightblue" stroke="midnightblue" points="327.654,-275.752 337.983,-273.394 328.439,-268.796 327.654,-275.752"/>
</g>
<!-- Node7 -->
<g id="node7" class="node"><title>Node7</title>
<g id="a_node7"><a xlink:href="classCElement.html#ac2ad66ee438a4a0c1390b7388874fe72" target="_top" xlink:title="CElement::addChild">
<polygon fill="white" stroke="black" points="347,-233 347,-252 457,-252 457,-233 347,-233"/>
<text text-anchor="middle" x="402" y="-240" font-family="Verdana" font-size="10.00">CElement::addChild</text>
</a>
</g>
</g>
<!-- Node3&#45;&gt;Node7 -->
<g id="edge6" class="edge"><title>Node3&#45;&gt;Node7</title>
<path fill="none" stroke="midnightblue" d="M284.891,-255.592C301.366,-253.735 319.746,-251.662 336.936,-249.724"/>
<polygon fill="midnightblue" stroke="midnightblue" points="337.351,-253.199 346.896,-248.601 336.567,-246.243 337.351,-253.199"/>
</g>
<!-- Node8 -->
<g id="node8" class="node"><title>Node8</title>
<g id="a_node8"><a xlink:href="classCSelectionCriterionRule.html#a9fa6c6fcf97c803ffb535843ca0e0637" target="_top" xlink:title="CSelectionCriterionRule\l::parse">
<polygon fill="white" stroke="black" points="338,-156.5 338,-186.5 466,-186.5 466,-156.5 338,-156.5"/>
<text text-anchor="start" x="346" y="-174.5" font-family="Verdana" font-size="10.00">CSelectionCriterionRule</text>
<text text-anchor="middle" x="402" y="-163.5" font-family="Verdana" font-size="10.00">::parse</text>
</a>
</g>
</g>
<!-- Node3&#45;&gt;Node8 -->
<g id="edge8" class="edge"><title>Node3&#45;&gt;Node8</title>
<path fill="none" stroke="midnightblue" d="M276.733,-251.948C285.316,-249.392 294.095,-246.265 302,-242.5 329.279,-229.507 356.942,-208.905 376.066,-193.232"/>
<polygon fill="midnightblue" stroke="midnightblue" points="378.531,-195.734 383.966,-186.639 374.046,-190.36 378.531,-195.734"/>
</g>
<!-- Node6 -->
<g id="node6" class="node"><title>Node6</title>
<g id="a_node6"><a xlink:href="classCRuleParser.html#ae574ae0109f76cc624590bd4899e0a91" target="_top" xlink:title="CRuleParser::getType">
<polygon fill="white" stroke="black" points="527.5,-285 527.5,-304 643.5,-304 643.5,-285 527.5,-285"/>
<text text-anchor="middle" x="585.5" y="-292" font-family="Verdana" font-size="10.00">CRuleParser::getType</text>
</a>
</g>
</g>
<!-- Node5&#45;&gt;Node6 -->
<g id="edge5" class="edge"><title>Node5&#45;&gt;Node6</title>
<path fill="none" stroke="midnightblue" d="M466.225,-285.377C482.661,-286.645 500.428,-288.015 517.072,-289.299"/>
<polygon fill="midnightblue" stroke="midnightblue" points="517.028,-292.806 527.268,-290.085 517.567,-285.827 517.028,-292.806"/>
</g>
<!-- Node8&#45;&gt;Node6 -->
<g id="edge12" class="edge"><title>Node8&#45;&gt;Node6</title>
<path fill="none" stroke="midnightblue" d="M424.109,-186.579C436.98,-196.321 453.334,-209.716 466,-223.5 485.019,-244.198 478.734,-259.726 502,-275.5 506.832,-278.776 512.15,-281.493 517.688,-283.745"/>
<polygon fill="midnightblue" stroke="midnightblue" points="516.573,-287.063 527.168,-287.114 518.917,-280.467 516.573,-287.063"/>
</g>
<!-- Node9 -->
<g id="node9" class="node"><title>Node9</title>
<g id="a_node9"><a xlink:href="classCRuleParser.html#af179ac22a54025386da02a5bdb33b253" target="_top" xlink:title="CRuleParser::getSelection\lCriteriaDefinition">
<polygon fill="white" stroke="black" points="516,-235.5 516,-265.5 655,-265.5 655,-235.5 516,-235.5"/>
<text text-anchor="start" x="524" y="-253.5" font-family="Verdana" font-size="10.00">CRuleParser::getSelection</text>
<text text-anchor="middle" x="585.5" y="-242.5" font-family="Verdana" font-size="10.00">CriteriaDefinition</text>
</a>
</g>
</g>
<!-- Node8&#45;&gt;Node9 -->
<g id="edge9" class="edge"><title>Node8&#45;&gt;Node9</title>
<path fill="none" stroke="midnightblue" d="M426.653,-186.627C446.25,-198.667 475.142,-215.3 502,-226.5 506.782,-228.494 511.785,-230.389 516.861,-232.175"/>
<polygon fill="midnightblue" stroke="midnightblue" points="516.08,-235.605 526.674,-235.472 518.31,-228.969 516.08,-235.605"/>
</g>
<!-- Node10 -->
<g id="node10" class="node"><title>Node10</title>
<g id="a_node10"><a xlink:href="classCSelectionCriteriaDefinition.html#ade9c9f7fe7806988d3d922bf615e5994" target="_top" xlink:title="CSelectionCriteriaDefinition\l::getSelectionCriterion">
<polygon fill="white" stroke="black" points="512,-186.5 512,-216.5 659,-216.5 659,-186.5 512,-186.5"/>
<text text-anchor="start" x="520" y="-204.5" font-family="Verdana" font-size="10.00">CSelectionCriteriaDefinition</text>
<text text-anchor="middle" x="585.5" y="-193.5" font-family="Verdana" font-size="10.00">::getSelectionCriterion</text>
</a>
</g>
</g>
<!-- Node8&#45;&gt;Node10 -->
<g id="edge10" class="edge"><title>Node8&#45;&gt;Node10</title>
<path fill="none" stroke="midnightblue" d="M466.225,-181.95C477.735,-183.853 489.896,-185.863 501.868,-187.842"/>
<polygon fill="midnightblue" stroke="midnightblue" points="501.425,-191.316 511.862,-189.494 502.566,-184.41 501.425,-191.316"/>
</g>
<!-- Node12 -->
<g id="node12" class="node"><title>Node12</title>
<g id="a_node12"><a xlink:href="classCRuleParser.html#a7f6198bd3656599e15aee6860c1bf4d7" target="_top" xlink:title="CRuleParser::next">
<polygon fill="white" stroke="black" points="535.5,-148 535.5,-167 635.5,-167 635.5,-148 535.5,-148"/>
<text text-anchor="middle" x="585.5" y="-155" font-family="Verdana" font-size="10.00">CRuleParser::next</text>
</a>
</g>
</g>
<!-- Node8&#45;&gt;Node12 -->
<g id="edge13" class="edge"><title>Node8&#45;&gt;Node12</title>
<path fill="none" stroke="midnightblue" d="M466.225,-166.623C485.302,-165.152 506.171,-163.542 524.997,-162.09"/>
<polygon fill="midnightblue" stroke="midnightblue" points="525.52,-165.56 535.221,-161.301 524.982,-158.581 525.52,-165.56"/>
</g>
<!-- Node13 -->
<g id="node13" class="node"><title>Node13</title>
<g id="a_node13"><a xlink:href="classCSelectionCriterion.html#a68f922bffc18811306eb3da52c340289" target="_top" xlink:title="CSelectionCriterion\l::getCriterionType">
<polygon fill="white" stroke="black" points="531.5,-98.5 531.5,-128.5 639.5,-128.5 639.5,-98.5 531.5,-98.5"/>
<text text-anchor="start" x="539.5" y="-116.5" font-family="Verdana" font-size="10.00">CSelectionCriterion</text>
<text text-anchor="middle" x="585.5" y="-105.5" font-family="Verdana" font-size="10.00">::getCriterionType</text>
</a>
</g>
</g>
<!-- Node8&#45;&gt;Node13 -->
<g id="edge14" class="edge"><title>Node8&#45;&gt;Node13</title>
<path fill="none" stroke="midnightblue" d="M447.269,-156.455C464.339,-150.729 484.045,-144.212 502,-138.5 509.14,-136.229 516.642,-133.89 524.092,-131.596"/>
<polygon fill="midnightblue" stroke="midnightblue" points="525.284,-134.892 533.821,-128.617 523.234,-128.199 525.284,-134.892"/>
</g>
<!-- Node14 -->
<g id="node14" class="node"><title>Node14</title>
<g id="a_node14"><a xlink:href="classISelectionCriterionTypeInterface.html#aa28678ff4fb9acb1e216f1edaccdf85f" target="_top" xlink:title="ISelectionCriterionTypeInterface\l::getNumericalValue">
<polygon fill="white" stroke="black" points="502,-49.5 502,-79.5 669,-79.5 669,-49.5 502,-49.5"/>
<text text-anchor="start" x="510" y="-67.5" font-family="Verdana" font-size="10.00">ISelectionCriterionTypeInterface</text>
<text text-anchor="middle" x="585.5" y="-56.5" font-family="Verdana" font-size="10.00">::getNumericalValue</text>
</a>
</g>
</g>
<!-- Node8&#45;&gt;Node14 -->
<g id="edge15" class="edge"><title>Node8&#45;&gt;Node14</title>
<path fill="none" stroke="midnightblue" d="M417.376,-156.356C435.503,-138.081 468.381,-107.561 502,-89.5 506.149,-87.2711 510.524,-85.2124 515.008,-83.3158"/>
<polygon fill="midnightblue" stroke="midnightblue" points="516.303,-86.5676 524.325,-79.6476 513.738,-80.0542 516.303,-86.5676"/>
</g>
<!-- Node15 -->
<g id="node15" class="node"><title>Node15</title>
<g id="a_node15"><a xlink:href="classCSelectionCriterion.html#aa7d73b79a9ee5ce47153dd52f9bbcc71" target="_top" xlink:title="CSelectionCriterion\l::getCriterionName">
<polygon fill="white" stroke="black" points="531.5,-0.5 531.5,-30.5 639.5,-30.5 639.5,-0.5 531.5,-0.5"/>
<text text-anchor="start" x="539.5" y="-18.5" font-family="Verdana" font-size="10.00">CSelectionCriterion</text>
<text text-anchor="middle" x="585.5" y="-7.5" font-family="Verdana" font-size="10.00">::getCriterionName</text>
</a>
</g>
</g>
<!-- Node8&#45;&gt;Node15 -->
<g id="edge16" class="edge"><title>Node8&#45;&gt;Node15</title>
<path fill="none" stroke="midnightblue" d="M410.204,-156.312C424.042,-128.786 457.004,-70.6278 502,-39.5 507.988,-35.3576 514.692,-31.9223 521.621,-29.0751"/>
<polygon fill="midnightblue" stroke="midnightblue" points="522.998,-32.2975 531.163,-25.5459 520.57,-25.7321 522.998,-32.2975"/>
</g>
<!-- Node11 -->
<g id="node11" class="node"><title>Node11</title>
<g id="a_node11"><a xlink:href="classCElement.html#a8595814a3159f32f874269907e70b260" target="_top" xlink:title="CElement::findChild">
<polygon fill="white" stroke="black" points="707,-192 707,-211 817,-211 817,-192 707,-192"/>
<text text-anchor="middle" x="762" y="-199" font-family="Verdana" font-size="10.00">CElement::findChild</text>
</a>
</g>
</g>
<!-- Node10&#45;&gt;Node11 -->
<g id="edge11" class="edge"><title>Node10&#45;&gt;Node11</title>
<path fill="none" stroke="midnightblue" d="M659.24,-201.5C671.733,-201.5 684.635,-201.5 696.882,-201.5"/>
<polygon fill="midnightblue" stroke="midnightblue" points="696.991,-205 706.991,-201.5 696.991,-198 696.991,-205"/>
</g>
<!-- Node16 -->
<g id="node16" class="node"><title>Node16</title>
<g id="a_node16"><a xlink:href="classCElement.html#a49581fb6412e29e932962acd82d52d6a" target="_top" xlink:title="CElement::getName">
<polygon fill="white" stroke="black" points="705,-6 705,-25 819,-25 819,-6 705,-6"/>
<text text-anchor="middle" x="762" y="-13" font-family="Verdana" font-size="10.00">CElement::getName</text>
</a>
</g>
</g>
<!-- Node15&#45;&gt;Node16 -->
<g id="edge17" class="edge"><title>Node15&#45;&gt;Node16</title>
<path fill="none" stroke="midnightblue" d="M639.804,-15.5C657.144,-15.5 676.604,-15.5 694.771,-15.5"/>
<polygon fill="midnightblue" stroke="midnightblue" points="694.999,-19.0001 704.999,-15.5 694.999,-12.0001 694.999,-19.0001"/>
</g>
</g>
</svg>
