<?xml version="1.0" encoding="UTF-8" standalone="no"?>
<!DOCTYPE svg PUBLIC "-//W3C//DTD SVG 1.1//EN"
 "http://www.w3.org/Graphics/SVG/1.1/DTD/svg11.dtd">
<!-- Generated by graphviz version 2.38.0 (20140413.2041)
 -->
<!-- Title: CParameterBlackboard::writeInteger Pages: 1 -->
<svg width="535pt" height="176pt"
 viewBox="0.00 0.00 535.00 176.00" xmlns="http://www.w3.org/2000/svg" xmlns:xlink="http://www.w3.org/1999/xlink">
<g id="graph0" class="graph" transform="scale(1 1) rotate(0) translate(4 172)">
<title>CParameterBlackboard::writeInteger</title>
<polygon fill="white" stroke="none" points="-4,4 -4,-172 531,-172 531,4 -4,4"/>
<!-- Node1 -->
<g id="node1" class="node"><title>Node1</title>
<polygon fill="#bfbfbf" stroke="black" points="0,-66.5 0,-96.5 127,-96.5 127,-66.5 0,-66.5"/>
<text text-anchor="start" x="8" y="-84.5" font-family="Verdana" font-size="10.00">CParameterBlackboard</text>
<text text-anchor="middle" x="63.5" y="-73.5" font-family="Verdana" font-size="10.00">::writeInteger</text>
</g>
<!-- Node2 -->
<g id="node2" class="node"><title>Node2</title>
<g id="a_node2"><a xlink:href="classCArrayParameter.html#a92c36813ec9f475880d47409c01e52db" target="_top" xlink:title="CArrayParameter::setDefault\lValues">
<polygon fill="white" stroke="black" points="166,-137.5 166,-167.5 321,-167.5 321,-137.5 166,-137.5"/>
<text text-anchor="start" x="174" y="-155.5" font-family="Verdana" font-size="10.00">CArrayParameter::setDefault</text>
<text text-anchor="middle" x="243.5" y="-144.5" font-family="Verdana" font-size="10.00">Values</text>
</a>
</g>
</g>
<!-- Node1&#45;&gt;Node2 -->
<g id="edge1" class="edge"><title>Node1&#45;&gt;Node2</title>
<path fill="none" stroke="midnightblue" d="M102.352,-101.222C120.427,-110.208 142.535,-120.581 163,-128.5 171.202,-131.674 180.009,-134.698 188.667,-137.463"/>
<polygon fill="midnightblue" stroke="midnightblue" points="103.804,-98.0348 93.2971,-96.67 100.659,-104.289 103.804,-98.0348"/>
</g>
<!-- Node3 -->
<g id="node3" class="node"><title>Node3</title>
<g id="a_node3"><a xlink:href="classCBitParameterBlock.html#a74485c7734eb44648b1182cf8e884d40" target="_top" xlink:title="CBitParameterBlock\l::setDefaultValues">
<polygon fill="white" stroke="black" points="187.5,-88.5 187.5,-118.5 299.5,-118.5 299.5,-88.5 187.5,-88.5"/>
<text text-anchor="start" x="195.5" y="-106.5" font-family="Verdana" font-size="10.00">CBitParameterBlock</text>
<text text-anchor="middle" x="243.5" y="-95.5" font-family="Verdana" font-size="10.00">::setDefaultValues</text>
</a>
</g>
</g>
<!-- Node1&#45;&gt;Node3 -->
<g id="edge2" class="edge"><title>Node1&#45;&gt;Node3</title>
<path fill="none" stroke="midnightblue" d="M137.275,-90.4947C153.968,-92.5578 171.448,-94.7183 187.26,-96.6726"/>
<polygon fill="midnightblue" stroke="midnightblue" points="137.36,-86.9786 127.006,-89.2254 136.501,-93.9257 137.36,-86.9786"/>
</g>
<!-- Node4 -->
<g id="node4" class="node"><title>Node4</title>
<g id="a_node4"><a xlink:href="classCParameter.html#a26fa5e3c97be1577ad15d04295ada708" target="_top" xlink:title="CParameter::setDefaultValues">
<polygon fill="white" stroke="black" points="163,-50 163,-69 324,-69 324,-50 163,-50"/>
<text text-anchor="middle" x="243.5" y="-57" font-family="Verdana" font-size="10.00">CParameter::setDefaultValues</text>
</a>
</g>
</g>
<!-- Node1&#45;&gt;Node4 -->
<g id="edge3" class="edge"><title>Node1&#45;&gt;Node4</title>
<path fill="none" stroke="midnightblue" d="M137.044,-72.5339C146.405,-71.3769 156.017,-70.1889 165.448,-69.0233"/>
<polygon fill="midnightblue" stroke="midnightblue" points="136.501,-69.0743 127.006,-73.7746 137.36,-76.0214 136.501,-69.0743"/>
</g>
<!-- Node5 -->
<g id="node5" class="node"><title>Node5</title>
<g id="a_node5"><a xlink:href="classCParameterBlackboard.html#ae31d40f0fb954f3fc14e445cdef0fbd1" target="_top" xlink:title="CParameterBlackboard\l::writeBuffer">
<polygon fill="white" stroke="black" points="180,-0.5 180,-30.5 307,-30.5 307,-0.5 180,-0.5"/>
<text text-anchor="start" x="188" y="-18.5" font-family="Verdana" font-size="10.00">CParameterBlackboard</text>
<text text-anchor="middle" x="243.5" y="-7.5" font-family="Verdana" font-size="10.00">::writeBuffer</text>
</a>
</g>
</g>
<!-- Node1&#45;&gt;Node5 -->
<g id="edge4" class="edge"><title>Node1&#45;&gt;Node5</title>
<path fill="none" stroke="midnightblue" d="M108.466,-62.2083C125.381,-55.0482 144.961,-47.0756 163,-40.5 172.379,-37.081 182.478,-33.6888 192.227,-30.5575"/>
<polygon fill="midnightblue" stroke="midnightblue" points="106.67,-59.1693 98.8459,-66.3135 109.417,-65.6076 106.67,-59.1693"/>
</g>
<!-- Node6 -->
<g id="node6" class="node"><title>Node6</title>
<g id="a_node6"><a xlink:href="classCSubsystemObject.html#aabd14ac83b01d74f22fb00f1a8c306da" target="_top" xlink:title="CSubsystemObject::blackboard\lWrite">
<polygon fill="white" stroke="black" points="360,-0.5 360,-30.5 527,-30.5 527,-0.5 360,-0.5"/>
<text text-anchor="start" x="368" y="-18.5" font-family="Verdana" font-size="10.00">CSubsystemObject::blackboard</text>
<text text-anchor="middle" x="443.5" y="-7.5" font-family="Verdana" font-size="10.00">Write</text>
</a>
</g>
</g>
<!-- Node5&#45;&gt;Node6 -->
<g id="edge5" class="edge"><title>Node5&#45;&gt;Node6</title>
<path fill="none" stroke="midnightblue" d="M317.547,-15.5C331.355,-15.5 345.888,-15.5 359.964,-15.5"/>
<polygon fill="midnightblue" stroke="midnightblue" points="317.148,-12.0001 307.148,-15.5 317.148,-19.0001 317.148,-12.0001"/>
</g>
</g>
</svg>
