<?xml version="1.0" encoding="UTF-8" standalone="no"?>
<!DOCTYPE svg PUBLIC "-//W3C//DTD SVG 1.1//EN"
 "http://www.w3.org/Graphics/SVG/1.1/DTD/svg11.dtd">
<!-- Generated by graphviz version 2.38.0 (20140413.2041)
 -->
<!-- Title: CInstanceConfigurableElement::getSyncer Pages: 1 -->
<svg width="791pt" height="116pt"
 viewBox="0.00 0.00 791.00 116.00" xmlns="http://www.w3.org/2000/svg" xmlns:xlink="http://www.w3.org/1999/xlink">
<g id="graph0" class="graph" transform="scale(1 1) rotate(0) translate(4 112)">
<title>CInstanceConfigurableElement::getSyncer</title>
<polygon fill="white" stroke="none" points="-4,4 -4,-112 787,-112 787,4 -4,4"/>
<!-- Node1 -->
<g id="node1" class="node"><title>Node1</title>
<polygon fill="#bfbfbf" stroke="black" points="0,-39 0,-69 164,-69 164,-39 0,-39"/>
<text text-anchor="start" x="8" y="-57" font-family="Verdana" font-size="10.00">CInstanceConfigurableElement</text>
<text text-anchor="middle" x="82" y="-46" font-family="Verdana" font-size="10.00">::getSyncer</text>
</g>
<!-- Node2 -->
<g id="node2" class="node"><title>Node2</title>
<g id="a_node2"><a xlink:href="classCInstanceConfigurableElement.html#a2e6e7782de8e4d7e844a869917f2f037" target="_top" xlink:title="Performs the sync if the AutoSync is enabled. ">
<polygon fill="white" stroke="black" points="200,-39 200,-69 364,-69 364,-39 200,-39"/>
<text text-anchor="start" x="208" y="-57" font-family="Verdana" font-size="10.00">CInstanceConfigurableElement</text>
<text text-anchor="middle" x="282" y="-46" font-family="Verdana" font-size="10.00">::sync</text>
</a>
</g>
</g>
<!-- Node1&#45;&gt;Node2 -->
<g id="edge1" class="edge"><title>Node1&#45;&gt;Node2</title>
<path fill="none" stroke="midnightblue" d="M174.363,-54C182.817,-54 191.346,-54 199.7,-54"/>
<polygon fill="midnightblue" stroke="midnightblue" points="174.106,-50.5001 164.105,-54 174.105,-57.5001 174.106,-50.5001"/>
</g>
<!-- Node3 -->
<g id="node3" class="node"><title>Node3</title>
<g id="a_node3"><a xlink:href="classCArrayParameter.html#a07b3af958a03b2295be159f69b22d42d" target="_top" xlink:title="CArrayParameter::accessValue">
<polygon fill="white" stroke="black" points="403.5,-88.5 403.5,-107.5 567.5,-107.5 567.5,-88.5 403.5,-88.5"/>
<text text-anchor="middle" x="485.5" y="-95.5" font-family="Verdana" font-size="10.00">CArrayParameter::accessValue</text>
</a>
</g>
</g>
<!-- Node2&#45;&gt;Node3 -->
<g id="edge2" class="edge"><title>Node2&#45;&gt;Node3</title>
<path fill="none" stroke="midnightblue" d="M361.602,-71.1637C388.572,-77.053 417.771,-83.4288 440.937,-88.4876"/>
<polygon fill="midnightblue" stroke="midnightblue" points="362.298,-67.7332 351.781,-69.0192 360.804,-74.5721 362.298,-67.7332"/>
</g>
<!-- Node4 -->
<g id="node4" class="node"><title>Node4</title>
<g id="a_node4"><a xlink:href="classCBaseParameter.html#a2b425561e193a3d54e7225d896a3d39b" target="_top" xlink:title="CBaseParameter::accessAs\lString">
<polygon fill="white" stroke="black" points="411,-39 411,-69 560,-69 560,-39 411,-39"/>
<text text-anchor="start" x="419" y="-57" font-family="Verdana" font-size="10.00">CBaseParameter::accessAs</text>
<text text-anchor="middle" x="485.5" y="-46" font-family="Verdana" font-size="10.00">String</text>
</a>
</g>
</g>
<!-- Node2&#45;&gt;Node4 -->
<g id="edge3" class="edge"><title>Node2&#45;&gt;Node4</title>
<path fill="none" stroke="midnightblue" d="M374.282,-54C386.49,-54 398.885,-54 410.742,-54"/>
<polygon fill="midnightblue" stroke="midnightblue" points="374.087,-50.5001 364.087,-54 374.087,-57.5001 374.087,-50.5001"/>
</g>
<!-- Node6 -->
<g id="node6" class="node"><title>Node6</title>
<g id="a_node6"><a xlink:href="classCBitParameter.html#a6f4d06e327fb0b816c08e383177a82fc" target="_top" xlink:title="CBitParameter::accessAsInteger">
<polygon fill="white" stroke="black" points="400,-0.5 400,-19.5 571,-19.5 571,-0.5 400,-0.5"/>
<text text-anchor="middle" x="485.5" y="-7.5" font-family="Verdana" font-size="10.00">CBitParameter::accessAsInteger</text>
</a>
</g>
</g>
<!-- Node2&#45;&gt;Node6 -->
<g id="edge5" class="edge"><title>Node2&#45;&gt;Node6</title>
<path fill="none" stroke="midnightblue" d="M361.602,-36.8363C388.572,-30.947 417.771,-24.5712 440.937,-19.5124"/>
<polygon fill="midnightblue" stroke="midnightblue" points="360.804,-33.4279 351.781,-38.9808 362.298,-40.2668 360.804,-33.4279"/>
</g>
<!-- Node5 -->
<g id="node5" class="node"><title>Node5</title>
<g id="a_node5"><a xlink:href="classCBaseParameter.html#a4a9b3e3a2d1ea65a8dc7048559db8dc2" target="_top" xlink:title="CBaseParameter::accessValue">
<polygon fill="white" stroke="black" points="613.5,-44.5 613.5,-63.5 776.5,-63.5 776.5,-44.5 613.5,-44.5"/>
<text text-anchor="middle" x="695" y="-51.5" font-family="Verdana" font-size="10.00">CBaseParameter::accessValue</text>
</a>
</g>
</g>
<!-- Node4&#45;&gt;Node5 -->
<g id="edge4" class="edge"><title>Node4&#45;&gt;Node5</title>
<path fill="none" stroke="midnightblue" d="M570.465,-54C584.653,-54 599.353,-54 613.45,-54"/>
<polygon fill="midnightblue" stroke="midnightblue" points="570.241,-50.5001 560.241,-54 570.241,-57.5001 570.241,-50.5001"/>
</g>
<!-- Node7 -->
<g id="node7" class="node"><title>Node7</title>
<g id="a_node7"><a xlink:href="classCBitParameter.html#a2e0ed93baec3479a9b92314818433a31" target="_top" xlink:title="Value access. ">
<polygon fill="white" stroke="black" points="607,-0.5 607,-19.5 783,-19.5 783,-0.5 607,-0.5"/>
<text text-anchor="middle" x="695" y="-7.5" font-family="Verdana" font-size="10.00">CBitParameter::accessAsBoolean</text>
</a>
</g>
</g>
<!-- Node6&#45;&gt;Node7 -->
<g id="edge6" class="edge"><title>Node6&#45;&gt;Node7</title>
<path fill="none" stroke="midnightblue" d="M581.471,-10C589.938,-10 598.483,-10 606.879,-10"/>
<polygon fill="midnightblue" stroke="midnightblue" points="581.198,-6.5001 571.197,-10 581.197,-13.5001 581.198,-6.5001"/>
</g>
</g>
</svg>
