<?xml version="1.0" encoding="UTF-8" standalone="no"?>
<!DOCTYPE svg PUBLIC "-//W3C//DTD SVG 1.1//EN"
 "http://www.w3.org/Graphics/SVG/1.1/DTD/svg11.dtd">
<!-- Generated by graphviz version 2.38.0 (20140413.2041)
 -->
<!-- Title: CParameterMgr::removeConfigurableElementFromDomain Pages: 1 -->
<svg width="746pt" height="267pt"
 viewBox="0.00 0.00 746.00 266.52" xmlns="http://www.w3.org/2000/svg" xmlns:xlink="http://www.w3.org/1999/xlink">
<g id="graph0" class="graph" transform="scale(1 1) rotate(0) translate(4 262.52)">
<title>CParameterMgr::removeConfigurableElementFromDomain</title>
<polygon fill="white" stroke="none" points="-4,4 -4,-262.52 742,-262.52 742,4 -4,4"/>
<!-- Node1 -->
<g id="node1" class="node"><title>Node1</title>
<polygon fill="#bfbfbf" stroke="black" points="0,-113 0,-143 194,-143 194,-113 0,-113"/>
<text text-anchor="start" x="8" y="-131" font-family="Verdana" font-size="10.00">CParameterMgr::removeConfigurable</text>
<text text-anchor="middle" x="97" y="-120" font-family="Verdana" font-size="10.00">ElementFromDomain</text>
</g>
<!-- Node2 -->
<g id="node2" class="node"><title>Node2</title>
<g id="a_node2"><a xlink:href="classCElementLocator.html#a94ddc34b50d96cd1cc78f43e3014ce36" target="_top" xlink:title="CElementLocator::locate">
<polygon fill="white" stroke="black" points="242.5,-159.5 242.5,-178.5 376.5,-178.5 376.5,-159.5 242.5,-159.5"/>
<text text-anchor="middle" x="309.5" y="-166.5" font-family="Verdana" font-size="10.00">CElementLocator::locate</text>
</a>
</g>
</g>
<!-- Node1&#45;&gt;Node2 -->
<g id="edge1" class="edge"><title>Node1&#45;&gt;Node2</title>
<path fill="none" stroke="midnightblue" d="M175.187,-143.034C199.718,-147.812 226.443,-153.017 249.48,-157.504"/>
<polygon fill="midnightblue" stroke="midnightblue" points="248.961,-160.969 259.446,-159.446 250.3,-154.098 248.961,-160.969"/>
</g>
<!-- Node8 -->
<g id="node8" class="node"><title>Node8</title>
<g id="a_node8"><a xlink:href="classCConfigurableDomains.html#ac5e3f505c51b2b016614aa460597fd59" target="_top" xlink:title="CConfigurableDomains\l::removeConfigurableElement\lFromDomain">
<polygon fill="white" stroke="black" points="230,-66.5 230,-107.5 389,-107.5 389,-66.5 230,-66.5"/>
<text text-anchor="start" x="238" y="-95.5" font-family="Verdana" font-size="10.00">CConfigurableDomains</text>
<text text-anchor="start" x="238" y="-84.5" font-family="Verdana" font-size="10.00">::removeConfigurableElement</text>
<text text-anchor="middle" x="309.5" y="-73.5" font-family="Verdana" font-size="10.00">FromDomain</text>
</a>
</g>
</g>
<!-- Node1&#45;&gt;Node8 -->
<g id="edge9" class="edge"><title>Node1&#45;&gt;Node8</title>
<path fill="none" stroke="midnightblue" d="M175.187,-112.966C189.678,-110.143 204.935,-107.172 219.745,-104.287"/>
<polygon fill="midnightblue" stroke="midnightblue" points="220.765,-107.654 229.912,-102.307 219.427,-100.783 220.765,-107.654"/>
</g>
<!-- Node3 -->
<g id="node3" class="node"><title>Node3</title>
<g id="a_node3"><a xlink:href="classCPathNavigator.html#ac63504ec6203e15a9ca4a15e9775bfe8" target="_top" xlink:title="CPathNavigator::isPathValid">
<polygon fill="white" stroke="black" points="430.5,-159.5 430.5,-178.5 578.5,-178.5 578.5,-159.5 430.5,-159.5"/>
<text text-anchor="middle" x="504.5" y="-166.5" font-family="Verdana" font-size="10.00">CPathNavigator::isPathValid</text>
</a>
</g>
</g>
<!-- Node2&#45;&gt;Node3 -->
<g id="edge2" class="edge"><title>Node2&#45;&gt;Node3</title>
<path fill="none" stroke="midnightblue" d="M376.65,-169C390.747,-169 405.806,-169 420.444,-169"/>
<polygon fill="midnightblue" stroke="midnightblue" points="420.494,-172.5 430.494,-169 420.494,-165.5 420.494,-172.5"/>
</g>
<!-- Node4 -->
<g id="node4" class="node"><title>Node4</title>
<g id="a_node4"><a xlink:href="classCPathNavigator.html#a06f35d45c0bf392e11de0bf1197cc589" target="_top" xlink:title="CPathNavigator::next">
<polygon fill="white" stroke="black" points="620,-234.5 620,-253.5 738,-253.5 738,-234.5 620,-234.5"/>
<text text-anchor="middle" x="679" y="-241.5" font-family="Verdana" font-size="10.00">CPathNavigator::next</text>
</a>
</g>
</g>
<!-- Node2&#45;&gt;Node4 -->
<g id="edge3" class="edge"><title>Node2&#45;&gt;Node4</title>
<path fill="none" stroke="midnightblue" d="M320.485,-178.54C339.176,-195.661 381.507,-231.023 425,-244 485.57,-262.072 557.99,-259.826 609.797,-254.394"/>
<polygon fill="midnightblue" stroke="midnightblue" points="610.324,-257.858 619.874,-253.271 609.548,-250.901 610.324,-257.858"/>
</g>
<!-- Node5 -->
<g id="node5" class="node"><title>Node5</title>
<g id="a_node5"><a xlink:href="classCElement.html#a49581fb6412e29e932962acd82d52d6a" target="_top" xlink:title="CElement::getName">
<polygon fill="white" stroke="black" points="622,-121.5 622,-140.5 736,-140.5 736,-121.5 622,-121.5"/>
<text text-anchor="middle" x="679" y="-128.5" font-family="Verdana" font-size="10.00">CElement::getName</text>
</a>
</g>
</g>
<!-- Node2&#45;&gt;Node5 -->
<g id="edge4" class="edge"><title>Node2&#45;&gt;Node5</title>
<path fill="none" stroke="midnightblue" d="M361.943,-159.457C381.615,-156.073 404.294,-152.49 425,-150 488.007,-142.422 560.228,-137.356 611.335,-134.374"/>
<polygon fill="midnightblue" stroke="midnightblue" points="611.804,-137.853 621.588,-133.788 611.404,-130.865 611.804,-137.853"/>
</g>
<!-- Node6 -->
<g id="node6" class="node"><title>Node6</title>
<g id="a_node6"><a xlink:href="classCElement.html#a182dcfb7ab154cc97cff047c5f5539f5" target="_top" xlink:title="CElement::findDescendant">
<polygon fill="white" stroke="black" points="432.5,-197.5 432.5,-216.5 576.5,-216.5 576.5,-197.5 432.5,-197.5"/>
<text text-anchor="middle" x="504.5" y="-204.5" font-family="Verdana" font-size="10.00">CElement::findDescendant</text>
</a>
</g>
</g>
<!-- Node2&#45;&gt;Node6 -->
<g id="edge5" class="edge"><title>Node2&#45;&gt;Node6</title>
<path fill="none" stroke="midnightblue" d="M359.202,-178.589C385.359,-183.739 417.784,-190.123 445.267,-195.534"/>
<polygon fill="midnightblue" stroke="midnightblue" points="444.66,-198.982 455.148,-197.48 446.013,-192.114 444.66,-198.982"/>
</g>
<!-- Node6&#45;&gt;Node4 -->
<g id="edge6" class="edge"><title>Node6&#45;&gt;Node4</title>
<path fill="none" stroke="midnightblue" d="M549.923,-216.528C572.371,-221.343 599.807,-227.228 623.519,-232.314"/>
<polygon fill="midnightblue" stroke="midnightblue" points="622.916,-235.764 633.428,-234.44 624.384,-228.92 622.916,-235.764"/>
</g>
<!-- Node6&#45;&gt;Node6 -->
<g id="edge8" class="edge"><title>Node6&#45;&gt;Node6</title>
<path fill="none" stroke="midnightblue" d="M477.682,-216.757C464.635,-225.565 473.574,-235 504.5,-235 525.278,-235 536.132,-230.741 537.06,-225.275"/>
<polygon fill="midnightblue" stroke="midnightblue" points="539.81,-223.093 531.318,-216.757 534.006,-227.005 539.81,-223.093"/>
</g>
<!-- Node7 -->
<g id="node7" class="node"><title>Node7</title>
<g id="a_node7"><a xlink:href="classCElement.html#a8595814a3159f32f874269907e70b260" target="_top" xlink:title="CElement::findChild">
<polygon fill="white" stroke="black" points="624,-178.5 624,-197.5 734,-197.5 734,-178.5 624,-178.5"/>
<text text-anchor="middle" x="679" y="-185.5" font-family="Verdana" font-size="10.00">CElement::findChild</text>
</a>
</g>
</g>
<!-- Node6&#45;&gt;Node7 -->
<g id="edge7" class="edge"><title>Node6&#45;&gt;Node7</title>
<path fill="none" stroke="midnightblue" d="M576.658,-199.162C588.984,-197.805 601.734,-196.4 613.86,-195.065"/>
<polygon fill="midnightblue" stroke="midnightblue" points="614.318,-198.535 623.875,-193.962 613.552,-191.578 614.318,-198.535"/>
</g>
<!-- Node9 -->
<g id="node9" class="node"><title>Node9</title>
<g id="a_node9"><a xlink:href="classCConfigurableDomains.html#a4dce38a1560b6e33871d3fa2d85cc449" target="_top" xlink:title="CConfigurableDomains\l::findConfigurableDomain">
<polygon fill="white" stroke="black" points="436,-72 436,-102 573,-102 573,-72 436,-72"/>
<text text-anchor="start" x="444" y="-90" font-family="Verdana" font-size="10.00">CConfigurableDomains</text>
<text text-anchor="middle" x="504.5" y="-79" font-family="Verdana" font-size="10.00">::findConfigurableDomain</text>
</a>
</g>
</g>
<!-- Node8&#45;&gt;Node9 -->
<g id="edge10" class="edge"><title>Node8&#45;&gt;Node9</title>
<path fill="none" stroke="midnightblue" d="M389,-87C401.149,-87 413.692,-87 425.822,-87"/>
<polygon fill="midnightblue" stroke="midnightblue" points="425.896,-90.5001 435.896,-87 425.896,-83.5001 425.896,-90.5001"/>
</g>
<!-- Node10 -->
<g id="node10" class="node"><title>Node10</title>
<g id="a_node10"><a xlink:href="classCConfigurableDomain.html#acf2423f10f9c85b255fb9bade2664801" target="_top" xlink:title="CConfigurableDomain\l::removeConfigurableElement">
<polygon fill="white" stroke="black" points="425,-23 425,-53 584,-53 584,-23 425,-23"/>
<text text-anchor="start" x="433" y="-41" font-family="Verdana" font-size="10.00">CConfigurableDomain</text>
<text text-anchor="middle" x="504.5" y="-30" font-family="Verdana" font-size="10.00">::removeConfigurableElement</text>
</a>
</g>
</g>
<!-- Node8&#45;&gt;Node10 -->
<g id="edge12" class="edge"><title>Node8&#45;&gt;Node10</title>
<path fill="none" stroke="midnightblue" d="M389,-67.0698C404.009,-63.2594 419.62,-59.296 434.31,-55.5663"/>
<polygon fill="midnightblue" stroke="midnightblue" points="435.484,-58.8795 444.315,-53.0263 433.761,-52.0948 435.484,-58.8795"/>
</g>
<!-- Node9&#45;&gt;Node7 -->
<g id="edge11" class="edge"><title>Node9&#45;&gt;Node7</title>
<path fill="none" stroke="midnightblue" d="M531.325,-102.121C564.003,-121.254 619.936,-154.003 652.472,-173.053"/>
<polygon fill="midnightblue" stroke="midnightblue" points="650.98,-176.235 661.378,-178.268 654.517,-170.195 650.98,-176.235"/>
</g>
<!-- Node10&#45;&gt;Node5 -->
<g id="edge15" class="edge"><title>Node10&#45;&gt;Node5</title>
<path fill="none" stroke="midnightblue" d="M562.98,-53.1015C570.204,-55.714 577.376,-58.6772 584,-62 599.243,-69.6465 635.135,-97.1131 657.896,-115"/>
<polygon fill="midnightblue" stroke="midnightblue" points="655.888,-117.875 665.906,-121.326 660.227,-112.381 655.888,-117.875"/>
</g>
<!-- Node11 -->
<g id="node11" class="node"><title>Node11</title>
<g id="a_node11"><a xlink:href="classCElement.html#a7022c0fc8063f0aae9d97b06e74d4ac1" target="_top" xlink:title="CElement::getPath">
<polygon fill="white" stroke="black" points="626,-0.5 626,-19.5 732,-19.5 732,-0.5 626,-0.5"/>
<text text-anchor="middle" x="679" y="-7.5" font-family="Verdana" font-size="10.00">CElement::getPath</text>
</a>
</g>
</g>
<!-- Node10&#45;&gt;Node11 -->
<g id="edge13" class="edge"><title>Node10&#45;&gt;Node11</title>
<path fill="none" stroke="midnightblue" d="M584.178,-25.2291C594.708,-23.5199 605.389,-21.7861 615.588,-20.1307"/>
<polygon fill="midnightblue" stroke="midnightblue" points="616.292,-23.5622 625.602,-18.5052 615.171,-16.6527 616.292,-23.5622"/>
</g>
<!-- Node12 -->
<g id="node12" class="node"><title>Node12</title>
<g id="a_node12"><a xlink:href="classCElement.html#a1dee87366d307b43bf8851dd2614c160" target="_top" xlink:title="CElement::log_info">
<polygon fill="white" stroke="black" points="626,-56.5 626,-75.5 732,-75.5 732,-56.5 626,-56.5"/>
<text text-anchor="middle" x="679" y="-63.5" font-family="Verdana" font-size="10.00">CElement::log_info</text>
</a>
</g>
</g>
<!-- Node10&#45;&gt;Node12 -->
<g id="edge16" class="edge"><title>Node10&#45;&gt;Node12</title>
<path fill="none" stroke="midnightblue" d="M584.178,-50.7709C594.708,-52.4801 605.389,-54.2139 615.588,-55.8693"/>
<polygon fill="midnightblue" stroke="midnightblue" points="615.171,-59.3473 625.602,-57.4948 616.292,-52.4378 615.171,-59.3473"/>
</g>
<!-- Node11&#45;&gt;Node11 -->
<g id="edge14" class="edge"><title>Node11&#45;&gt;Node11</title>
<path fill="none" stroke="midnightblue" d="M652.182,-19.7571C639.135,-28.5653 648.074,-38 679,-38 699.778,-38 710.632,-33.741 711.56,-28.2746"/>
<polygon fill="midnightblue" stroke="midnightblue" points="714.31,-26.0928 705.818,-19.7571 708.506,-30.0054 714.31,-26.0928"/>
</g>
</g>
</svg>
