<?xml version="1.0" encoding="UTF-8" standalone="no"?>
<!DOCTYPE svg PUBLIC "-//W3C//DTD SVG 1.1//EN"
 "http://www.w3.org/Graphics/SVG/1.1/DTD/svg11.dtd">
<!-- Generated by graphviz version 2.38.0 (20140413.2041)
 -->
<!-- Title: CEnumValuePair::toXml Pages: 1 -->
<svg width="337pt" height="116pt"
 viewBox="0.00 0.00 337.00 115.50" xmlns="http://www.w3.org/2000/svg" xmlns:xlink="http://www.w3.org/1999/xlink">
<g id="graph0" class="graph" transform="scale(1 1) rotate(0) translate(4 111.5)">
<title>CEnumValuePair::toXml</title>
<polygon fill="white" stroke="none" points="-4,4 -4,-111.5 333,-111.5 333,4 -4,4"/>
<!-- Node1 -->
<g id="node1" class="node"><title>Node1</title>
<polygon fill="#bfbfbf" stroke="black" points="0,-50 0,-69 128,-69 128,-50 0,-50"/>
<text text-anchor="middle" x="64" y="-57" font-family="Verdana" font-size="10.00">CEnumValuePair::toXml</text>
</g>
<!-- Node2 -->
<g id="node2" class="node"><title>Node2</title>
<g id="a_node2"><a xlink:href="classCXmlElement.html#ac5f4a8f3f29497167af496dccb7fa846" target="_top" xlink:title="Set attribute. ">
<polygon fill="white" stroke="black" points="174.5,-88 174.5,-107 318.5,-107 318.5,-88 174.5,-88"/>
<text text-anchor="middle" x="246.5" y="-95" font-family="Verdana" font-size="10.00">CXmlElement::setAttribute</text>
</a>
</g>
</g>
<!-- Node1&#45;&gt;Node2 -->
<g id="edge1" class="edge"><title>Node1&#45;&gt;Node2</title>
<path fill="none" stroke="midnightblue" d="M110.548,-69.089C134.796,-74.1939 164.804,-80.5113 190.361,-85.8918"/>
<polygon fill="midnightblue" stroke="midnightblue" points="189.773,-89.3447 200.28,-87.9799 191.215,-82.4948 189.773,-89.3447"/>
</g>
<!-- Node3 -->
<g id="node3" class="node"><title>Node3</title>
<g id="a_node3"><a xlink:href="classCElement.html#a49581fb6412e29e932962acd82d52d6a" target="_top" xlink:title="CElement::getName">
<polygon fill="white" stroke="black" points="189.5,-50 189.5,-69 303.5,-69 303.5,-50 189.5,-50"/>
<text text-anchor="middle" x="246.5" y="-57" font-family="Verdana" font-size="10.00">CElement::getName</text>
</a>
</g>
</g>
<!-- Node1&#45;&gt;Node3 -->
<g id="edge2" class="edge"><title>Node1&#45;&gt;Node3</title>
<path fill="none" stroke="midnightblue" d="M128.13,-59.5C144.631,-59.5 162.466,-59.5 179.13,-59.5"/>
<polygon fill="midnightblue" stroke="midnightblue" points="179.332,-63.0001 189.332,-59.5 179.332,-56.0001 179.332,-63.0001"/>
</g>
<!-- Node4 -->
<g id="node4" class="node"><title>Node4</title>
<g id="a_node4"><a xlink:href="classCEnumValuePair.html#a8936c702786702895a231eac2137f518" target="_top" xlink:title="CEnumValuePair::getNumerical\lAsString">
<polygon fill="white" stroke="black" points="164,-0.5 164,-30.5 329,-30.5 329,-0.5 164,-0.5"/>
<text text-anchor="start" x="172" y="-18.5" font-family="Verdana" font-size="10.00">CEnumValuePair::getNumerical</text>
<text text-anchor="middle" x="246.5" y="-7.5" font-family="Verdana" font-size="10.00">AsString</text>
</a>
</g>
</g>
<!-- Node1&#45;&gt;Node4 -->
<g id="edge3" class="edge"><title>Node1&#45;&gt;Node4</title>
<path fill="none" stroke="midnightblue" d="M104.166,-49.9527C124.488,-44.9988 149.963,-38.7888 173.667,-33.0105"/>
<polygon fill="midnightblue" stroke="midnightblue" points="174.811,-36.3342 183.698,-30.5654 173.153,-29.5333 174.811,-36.3342"/>
</g>
</g>
</svg>
