<?xml version="1.0" encoding="UTF-8" standalone="no"?>
<!DOCTYPE svg PUBLIC "-//W3C//DTD SVG 1.1//EN"
 "http://www.w3.org/Graphics/SVG/1.1/DTD/svg11.dtd">
<!-- Generated by graphviz version 2.38.0 (20140413.2041)
 -->
<!-- Title: CElement::addChild Pages: 1 -->
<svg width="1362pt" height="489pt"
 viewBox="0.00 0.00 1362.00 489.00" xmlns="http://www.w3.org/2000/svg" xmlns:xlink="http://www.w3.org/1999/xlink">
<g id="graph0" class="graph" transform="scale(1 1) rotate(0) translate(4 485)">
<title>CElement::addChild</title>
<polygon fill="white" stroke="none" points="-4,4 -4,-485 1358,-485 1358,4 -4,4"/>
<!-- Node1 -->
<g id="node1" class="node"><title>Node1</title>
<polygon fill="#bfbfbf" stroke="black" points="0,-238 0,-257 110,-257 110,-238 0,-238"/>
<text text-anchor="middle" x="55" y="-245" font-family="Verdana" font-size="10.00">CElement::addChild</text>
</g>
<!-- Node2 -->
<g id="node2" class="node"><title>Node2</title>
<g id="a_node2"><a xlink:href="classCConfigurableDomain.html#a82e376a127b18da449923829825bcbed" target="_top" xlink:title="CConfigurableDomain\l::createConfiguration">
<polygon fill="white" stroke="black" points="172,-450.5 172,-480.5 293,-480.5 293,-450.5 172,-450.5"/>
<text text-anchor="start" x="180" y="-468.5" font-family="Verdana" font-size="10.00">CConfigurableDomain</text>
<text text-anchor="middle" x="232.5" y="-457.5" font-family="Verdana" font-size="10.00">::createConfiguration</text>
</a>
</g>
</g>
<!-- Node1&#45;&gt;Node2 -->
<g id="edge1" class="edge"><title>Node1&#45;&gt;Node2</title>
<path fill="none" stroke="midnightblue" d="M59.4793,-267.188C67.4576,-306.405 90.8069,-394.534 146,-441.5 153.397,-447.795 162.332,-452.445 171.599,-455.878"/>
<polygon fill="midnightblue" stroke="midnightblue" points="62.9032,-266.458 57.5863,-257.294 56.0279,-267.774 62.9032,-266.458"/>
</g>
<!-- Node4 -->
<g id="node4" class="node"><title>Node4</title>
<g id="a_node4"><a xlink:href="classCConfigurableDomains.html#a879368ed109dc1a906205f8324d05d81" target="_top" xlink:title="Domains. ">
<polygon fill="white" stroke="black" points="169.5,-401.5 169.5,-431.5 295.5,-431.5 295.5,-401.5 169.5,-401.5"/>
<text text-anchor="start" x="177.5" y="-419.5" font-family="Verdana" font-size="10.00">CConfigurableDomains</text>
<text text-anchor="middle" x="232.5" y="-408.5" font-family="Verdana" font-size="10.00">::createDomain</text>
</a>
</g>
</g>
<!-- Node1&#45;&gt;Node4 -->
<g id="edge3" class="edge"><title>Node1&#45;&gt;Node4</title>
<path fill="none" stroke="midnightblue" d="M62.7846,-267.089C74.6439,-298.399 102.142,-359.539 146,-392.5 152.902,-397.687 160.876,-401.753 169.122,-404.941"/>
<polygon fill="midnightblue" stroke="midnightblue" points="65.9502,-265.553 59.2409,-257.353 59.3725,-267.947 65.9502,-265.553"/>
</g>
<!-- Node5 -->
<g id="node5" class="node"><title>Node5</title>
<g id="a_node5"><a xlink:href="classCConfigurableDomains.html#a35d3b509ee35cb374fc7a2d1b678c203" target="_top" xlink:title="CConfigurableDomains\l::addDomain">
<polygon fill="white" stroke="black" points="169.5,-352.5 169.5,-382.5 295.5,-382.5 295.5,-352.5 169.5,-352.5"/>
<text text-anchor="start" x="177.5" y="-370.5" font-family="Verdana" font-size="10.00">CConfigurableDomains</text>
<text text-anchor="middle" x="232.5" y="-359.5" font-family="Verdana" font-size="10.00">::addDomain</text>
</a>
</g>
</g>
<!-- Node1&#45;&gt;Node5 -->
<g id="edge4" class="edge"><title>Node1&#45;&gt;Node5</title>
<path fill="none" stroke="midnightblue" d="M68.3157,-265.407C83.9559,-286.818 112.921,-322.29 146,-342.5 153.126,-346.854 161.051,-350.484 169.119,-353.5"/>
<polygon fill="midnightblue" stroke="midnightblue" points="71.1069,-263.293 62.4554,-257.177 65.4047,-267.353 71.1069,-263.293"/>
</g>
<!-- Node6 -->
<g id="node6" class="node"><title>Node6</title>
<g id="a_node6"><a xlink:href="classCElement.html#a0b4cdc10e6df8fd3740255c5faf3b596" target="_top" xlink:title="Creates a child CElement from a child XML Element. ">
<polygon fill="white" stroke="black" points="171,-314 171,-333 294,-333 294,-314 171,-314"/>
<text text-anchor="middle" x="232.5" y="-321" font-family="Verdana" font-size="10.00">CElement::createChild</text>
</a>
</g>
</g>
<!-- Node1&#45;&gt;Node6 -->
<g id="edge5" class="edge"><title>Node1&#45;&gt;Node6</title>
<path fill="none" stroke="midnightblue" d="M76.3676,-263.311C93.9101,-276.191 120.379,-293.92 146,-304.5 155.276,-308.331 165.452,-311.449 175.448,-313.968"/>
<polygon fill="midnightblue" stroke="midnightblue" points="78.1597,-260.28 68.0595,-257.08 73.96,-265.88 78.1597,-260.28"/>
</g>
<!-- Node10 -->
<g id="node10" class="node"><title>Node10</title>
<g id="a_node10"><a xlink:href="classCParameterMgr.html#ae7738edec2c505ffa54a9f0f42975586" target="_top" xlink:title="CParameterMgr::CParameterMgr">
<polygon fill="white" stroke="black" points="146,-238 146,-257 319,-257 319,-238 146,-238"/>
<text text-anchor="middle" x="232.5" y="-245" font-family="Verdana" font-size="10.00">CParameterMgr::CParameterMgr</text>
</a>
</g>
</g>
<!-- Node1&#45;&gt;Node10 -->
<g id="edge11" class="edge"><title>Node1&#45;&gt;Node10</title>
<path fill="none" stroke="midnightblue" d="M120.157,-247.5C128.558,-247.5 137.27,-247.5 145.954,-247.5"/>
<polygon fill="midnightblue" stroke="midnightblue" points="120.088,-244 110.088,-247.5 120.088,-251 120.088,-244"/>
</g>
<!-- Node11 -->
<g id="node11" class="node"><title>Node11</title>
<g id="a_node11"><a xlink:href="classCRuleParser.html#acbce516a22f0dca0af620e751d298f7a" target="_top" xlink:title="CRuleParser::parse">
<polygon fill="white" stroke="black" points="179.5,-200 179.5,-219 285.5,-219 285.5,-200 179.5,-200"/>
<text text-anchor="middle" x="232.5" y="-207" font-family="Verdana" font-size="10.00">CRuleParser::parse</text>
</a>
</g>
</g>
<!-- Node1&#45;&gt;Node11 -->
<g id="edge12" class="edge"><title>Node1&#45;&gt;Node11</title>
<path fill="none" stroke="midnightblue" d="M110.278,-235.747C135.094,-230.374 164.111,-224.091 187.532,-219.02"/>
<polygon fill="midnightblue" stroke="midnightblue" points="109.319,-232.374 100.286,-237.911 110.8,-239.215 109.319,-232.374"/>
</g>
<!-- Node17 -->
<g id="node17" class="node"><title>Node17</title>
<g id="a_node17"><a xlink:href="classCSelectionCriteria.html#a5c8850871021dbb3f23354130304ae0e" target="_top" xlink:title="CSelectionCriteria\l::CSelectionCriteria">
<polygon fill="white" stroke="black" points="178.5,-150.5 178.5,-180.5 286.5,-180.5 286.5,-150.5 178.5,-150.5"/>
<text text-anchor="start" x="186.5" y="-168.5" font-family="Verdana" font-size="10.00">CSelectionCriteria</text>
<text text-anchor="middle" x="232.5" y="-157.5" font-family="Verdana" font-size="10.00">::CSelectionCriteria</text>
</a>
</g>
</g>
<!-- Node1&#45;&gt;Node17 -->
<g id="edge18" class="edge"><title>Node1&#45;&gt;Node17</title>
<path fill="none" stroke="midnightblue" d="M76.856,-231.905C94.5116,-219.303 120.884,-201.852 146,-190.5 156.147,-185.914 167.349,-181.93 178.211,-178.572"/>
<polygon fill="midnightblue" stroke="midnightblue" points="74.505,-229.287 68.4707,-237.996 78.6186,-234.951 74.505,-229.287"/>
</g>
<!-- Node18 -->
<g id="node18" class="node"><title>Node18</title>
<g id="a_node18"><a xlink:href="classCSelectionCriteriaDefinition.html#a721af071a21972611a6b410be8a8a240" target="_top" xlink:title="CSelectionCriteriaDefinition\l::createSelectionCriterion">
<polygon fill="white" stroke="black" points="159,-101.5 159,-131.5 306,-131.5 306,-101.5 159,-101.5"/>
<text text-anchor="start" x="167" y="-119.5" font-family="Verdana" font-size="10.00">CSelectionCriteriaDefinition</text>
<text text-anchor="middle" x="232.5" y="-108.5" font-family="Verdana" font-size="10.00">::createSelectionCriterion</text>
</a>
</g>
</g>
<!-- Node1&#45;&gt;Node18 -->
<g id="edge19" class="edge"><title>Node1&#45;&gt;Node18</title>
<path fill="none" stroke="midnightblue" d="M66.63,-229.015C81.3811,-205.019 110.316,-163.502 146,-140.5 151.313,-137.075 157.117,-134.132 163.119,-131.604"/>
<polygon fill="midnightblue" stroke="midnightblue" points="63.4816,-227.461 61.3601,-237.841 69.4917,-231.049 63.4816,-227.461"/>
</g>
<!-- Node23 -->
<g id="node23" class="node"><title>Node23</title>
<g id="a_node23"><a xlink:href="classCSelectionCriterionLibrary.html#a84be6fc12a809170fb6d114285997b1c" target="_top" xlink:title="CSelectionCriterionLibrary\l::createSelectionCriterionType">
<polygon fill="white" stroke="black" points="153,-52.5 153,-82.5 312,-82.5 312,-52.5 153,-52.5"/>
<text text-anchor="start" x="161" y="-70.5" font-family="Verdana" font-size="10.00">CSelectionCriterionLibrary</text>
<text text-anchor="middle" x="232.5" y="-59.5" font-family="Verdana" font-size="10.00">::createSelectionCriterionType</text>
</a>
</g>
</g>
<!-- Node1&#45;&gt;Node23 -->
<g id="edge24" class="edge"><title>Node1&#45;&gt;Node23</title>
<path fill="none" stroke="midnightblue" d="M61.8915,-227.841C72.8682,-194.631 99.6393,-127.524 146,-91.5 150.383,-88.0944 155.224,-85.1721 160.307,-82.6644"/>
<polygon fill="midnightblue" stroke="midnightblue" points="58.4485,-227.121 58.769,-237.711 65.1225,-229.232 58.4485,-227.121"/>
</g>
<!-- Node28 -->
<g id="node28" class="node"><title>Node28</title>
<g id="a_node28"><a xlink:href="classCTypeElement.html#a7cdfd91a35b67d17fb2c92f8a2883854" target="_top" xlink:title="CTypeElement::populate">
<polygon fill="white" stroke="black" points="166.5,-276 166.5,-295 298.5,-295 298.5,-276 166.5,-276"/>
<text text-anchor="middle" x="232.5" y="-283" font-family="Verdana" font-size="10.00">CTypeElement::populate</text>
</a>
</g>
</g>
<!-- Node1&#45;&gt;Node28 -->
<g id="edge29" class="edge"><title>Node1&#45;&gt;Node28</title>
<path fill="none" stroke="midnightblue" d="M110.278,-259.253C135.094,-264.626 164.111,-270.909 187.532,-275.98"/>
<polygon fill="midnightblue" stroke="midnightblue" points="110.8,-255.785 100.286,-257.089 109.319,-262.626 110.8,-255.785"/>
</g>
<!-- Node31 -->
<g id="node31" class="node"><title>Node31</title>
<g id="a_node31"><a xlink:href="classCXmlFileIncluderElement.html#a754298eb75aacfe300ed3942d51611aa" target="_top" xlink:title="CXmlFileIncluderElement\l::fromXml">
<polygon fill="white" stroke="black" points="165.5,-3.5 165.5,-33.5 299.5,-33.5 299.5,-3.5 165.5,-3.5"/>
<text text-anchor="start" x="173.5" y="-21.5" font-family="Verdana" font-size="10.00">CXmlFileIncluderElement</text>
<text text-anchor="middle" x="232.5" y="-10.5" font-family="Verdana" font-size="10.00">::fromXml</text>
</a>
</g>
</g>
<!-- Node1&#45;&gt;Node31 -->
<g id="edge34" class="edge"><title>Node1&#45;&gt;Node31</title>
<path fill="none" stroke="midnightblue" d="M58.9796,-227.559C66.1691,-186.591 88.3399,-92.6027 146,-42.5 151.702,-37.5449 158.354,-33.6074 165.383,-30.4795"/>
<polygon fill="midnightblue" stroke="midnightblue" points="55.4929,-227.193 57.332,-237.627 62.401,-228.324 55.4929,-227.193"/>
</g>
<!-- Node3 -->
<g id="node3" class="node"><title>Node3</title>
<g id="a_node3"><a xlink:href="classCConfigurableDomains.html#aa96eec13d9bdbb307e1dcfe6f057a685" target="_top" xlink:title="CConfigurableDomains\l::createConfiguration">
<polygon fill="white" stroke="black" points="371.5,-450.5 371.5,-480.5 497.5,-480.5 497.5,-450.5 371.5,-450.5"/>
<text text-anchor="start" x="379.5" y="-468.5" font-family="Verdana" font-size="10.00">CConfigurableDomains</text>
<text text-anchor="middle" x="434.5" y="-457.5" font-family="Verdana" font-size="10.00">::createConfiguration</text>
</a>
</g>
</g>
<!-- Node2&#45;&gt;Node3 -->
<g id="edge2" class="edge"><title>Node2&#45;&gt;Node3</title>
<path fill="none" stroke="midnightblue" d="M303.239,-465.5C325.386,-465.5 349.718,-465.5 371.297,-465.5"/>
<polygon fill="midnightblue" stroke="midnightblue" points="303.236,-462 293.236,-465.5 303.236,-469 303.236,-462"/>
</g>
<!-- Node7 -->
<g id="node7" class="node"><title>Node7</title>
<g id="a_node7"><a xlink:href="classCComponentLibrary.html#ad4cc928cda43371fb31f20394e8e04e5" target="_top" xlink:title="CComponentLibrary::\lfromXml">
<polygon fill="white" stroke="black" points="578,-325.5 578,-355.5 695,-355.5 695,-325.5 578,-325.5"/>
<text text-anchor="start" x="586" y="-343.5" font-family="Verdana" font-size="10.00">CComponentLibrary::</text>
<text text-anchor="middle" x="636.5" y="-332.5" font-family="Verdana" font-size="10.00">fromXml</text>
</a>
</g>
</g>
<!-- Node6&#45;&gt;Node7 -->
<g id="edge6" class="edge"><title>Node6&#45;&gt;Node7</title>
<path fill="none" stroke="midnightblue" d="M296.562,-335.672C304.247,-337.905 311.889,-340.501 319,-343.5 336.494,-350.879 336.775,-361.175 355,-366.5 434.218,-389.645 530.88,-370.979 587.568,-355.567"/>
<polygon fill="midnightblue" stroke="midnightblue" points="297.409,-332.275 286.841,-333.033 295.575,-339.031 297.409,-332.275"/>
</g>
<!-- Node9 -->
<g id="node9" class="node"><title>Node9</title>
<g id="a_node9"><a xlink:href="classCElement.html#a1978d50e2db432e7b8f0928f33d3f01a" target="_top" xlink:title="CElement::fromXml">
<polygon fill="white" stroke="black" points="379.5,-320 379.5,-339 489.5,-339 489.5,-320 379.5,-320"/>
<text text-anchor="middle" x="434.5" y="-327" font-family="Verdana" font-size="10.00">CElement::fromXml</text>
</a>
</g>
</g>
<!-- Node6&#45;&gt;Node9 -->
<g id="edge8" class="edge"><title>Node6&#45;&gt;Node9</title>
<path fill="none" stroke="midnightblue" d="M304.092,-325.618C328.792,-326.359 356.121,-327.179 379.274,-327.873"/>
<polygon fill="midnightblue" stroke="midnightblue" points="304.15,-322.118 294.049,-325.316 303.94,-329.115 304.15,-322.118"/>
</g>
<!-- Node8 -->
<g id="node8" class="node"><title>Node8</title>
<g id="a_node8"><a xlink:href="classCSubsystem.html#aa114a31f4aa4b0f47b3c616b721854d4" target="_top" xlink:title="CSubsystem::fromXml">
<polygon fill="white" stroke="black" points="788,-306 788,-325 912,-325 912,-306 788,-306"/>
<text text-anchor="middle" x="850" y="-313" font-family="Verdana" font-size="10.00">CSubsystem::fromXml</text>
</a>
</g>
</g>
<!-- Node7&#45;&gt;Node8 -->
<g id="edge7" class="edge"><title>Node7&#45;&gt;Node8</title>
<path fill="none" stroke="midnightblue" d="M704.999,-332.521C731.572,-329.38 761.87,-325.799 787.796,-322.735"/>
<polygon fill="midnightblue" stroke="midnightblue" points="704.534,-329.052 695.014,-333.702 705.356,-336.004 704.534,-329.052"/>
</g>
<!-- Node9&#45;&gt;Node7 -->
<g id="edge9" class="edge"><title>Node9&#45;&gt;Node7</title>
<path fill="none" stroke="midnightblue" d="M499.777,-333.035C524.869,-334.415 553.415,-335.985 577.832,-337.328"/>
<polygon fill="midnightblue" stroke="midnightblue" points="499.8,-329.531 489.623,-332.477 499.416,-336.521 499.8,-329.531"/>
</g>
<!-- Node9&#45;&gt;Node9 -->
<g id="edge10" class="edge"><title>Node9&#45;&gt;Node9</title>
<path fill="none" stroke="midnightblue" d="M396.625,-347.004C396.631,-352.836 409.256,-357.5 434.5,-357.5 470.402,-357.5 480.78,-348.065 465.634,-339.257"/>
<polygon fill="midnightblue" stroke="midnightblue" points="399.442,-349.099 403.366,-339.257 394.161,-344.504 399.442,-349.099"/>
</g>
<!-- Node12 -->
<g id="node12" class="node"><title>Node12</title>
<g id="a_node12"><a xlink:href="classCDomainConfiguration.html#a3b12c8d561b1e468bd03214326bdf450" target="_top" xlink:title="CDomainConfiguration\l::setApplicationRule">
<polygon fill="white" stroke="black" points="372,-194.5 372,-224.5 497,-224.5 497,-194.5 372,-194.5"/>
<text text-anchor="start" x="380" y="-212.5" font-family="Verdana" font-size="10.00">CDomainConfiguration</text>
<text text-anchor="middle" x="434.5" y="-201.5" font-family="Verdana" font-size="10.00">::setApplicationRule</text>
</a>
</g>
</g>
<!-- Node11&#45;&gt;Node12 -->
<g id="edge13" class="edge"><title>Node11&#45;&gt;Node12</title>
<path fill="none" stroke="midnightblue" d="M295.675,-209.5C319.9,-209.5 347.599,-209.5 371.78,-209.5"/>
<polygon fill="midnightblue" stroke="midnightblue" points="295.526,-206 285.526,-209.5 295.526,-213 295.526,-206"/>
</g>
<!-- Node13 -->
<g id="node13" class="node"><title>Node13</title>
<g id="a_node13"><a xlink:href="classCConfigurableDomain.html#ab28e6a66ae7197d4fa131193f32891f4" target="_top" xlink:title="CConfigurableDomain\l::setApplicationRule">
<polygon fill="white" stroke="black" points="576,-195.5 576,-225.5 697,-225.5 697,-195.5 576,-195.5"/>
<text text-anchor="start" x="584" y="-213.5" font-family="Verdana" font-size="10.00">CConfigurableDomain</text>
<text text-anchor="middle" x="636.5" y="-202.5" font-family="Verdana" font-size="10.00">::setApplicationRule</text>
</a>
</g>
</g>
<!-- Node12&#45;&gt;Node13 -->
<g id="edge14" class="edge"><title>Node12&#45;&gt;Node13</title>
<path fill="none" stroke="midnightblue" d="M507.289,-209.859C529.739,-209.971 554.254,-210.094 575.779,-210.201"/>
<polygon fill="midnightblue" stroke="midnightblue" points="507.156,-206.358 497.139,-209.808 507.121,-213.358 507.156,-206.358"/>
</g>
<!-- Node14 -->
<g id="node14" class="node"><title>Node14</title>
<g id="a_node14"><a xlink:href="classCConfigurableDomains.html#ac2b2354eecc80c7ca4a71fe2f40606ed" target="_top" xlink:title="CConfigurableDomains\l::setApplicationRule">
<polygon fill="white" stroke="black" points="787,-196.5 787,-226.5 913,-226.5 913,-196.5 787,-196.5"/>
<text text-anchor="start" x="795" y="-214.5" font-family="Verdana" font-size="10.00">CConfigurableDomains</text>
<text text-anchor="middle" x="850" y="-203.5" font-family="Verdana" font-size="10.00">::setApplicationRule</text>
</a>
</g>
</g>
<!-- Node13&#45;&gt;Node14 -->
<g id="edge15" class="edge"><title>Node13&#45;&gt;Node14</title>
<path fill="none" stroke="midnightblue" d="M707.297,-210.83C732.97,-210.951 761.851,-211.088 786.81,-211.206"/>
<polygon fill="midnightblue" stroke="midnightblue" points="707.276,-207.33 697.259,-210.783 707.243,-214.33 707.276,-207.33"/>
</g>
<!-- Node15 -->
<g id="node15" class="node"><title>Node15</title>
<g id="a_node15"><a xlink:href="classCParameterMgr.html#af63f9ad7f792b2bf226afd791c1db70e" target="_top" xlink:title="CParameterMgr::setApplicationRule">
<polygon fill="white" stroke="black" points="977,-202 977,-221 1162,-221 1162,-202 977,-202"/>
<text text-anchor="middle" x="1069.5" y="-209" font-family="Verdana" font-size="10.00">CParameterMgr::setApplicationRule</text>
</a>
</g>
</g>
<!-- Node14&#45;&gt;Node15 -->
<g id="edge16" class="edge"><title>Node14&#45;&gt;Node15</title>
<path fill="none" stroke="midnightblue" d="M923.474,-211.5C940.547,-211.5 958.967,-211.5 976.764,-211.5"/>
<polygon fill="midnightblue" stroke="midnightblue" points="923.036,-208 913.036,-211.5 923.036,-215 923.036,-208"/>
</g>
<!-- Node16 -->
<g id="node16" class="node"><title>Node16</title>
<g id="a_node16"><a xlink:href="classCParameterMgrFullConnector.html#a7a0323667af932143f43399070f7fe62" target="_top" xlink:title="CParameterMgrFullConnector\l::setApplicationRule">
<polygon fill="white" stroke="black" points="1198,-196.5 1198,-226.5 1354,-226.5 1354,-196.5 1198,-196.5"/>
<text text-anchor="start" x="1206" y="-214.5" font-family="Verdana" font-size="10.00">CParameterMgrFullConnector</text>
<text text-anchor="middle" x="1276" y="-203.5" font-family="Verdana" font-size="10.00">::setApplicationRule</text>
</a>
</g>
</g>
<!-- Node15&#45;&gt;Node16 -->
<g id="edge17" class="edge"><title>Node15&#45;&gt;Node16</title>
<path fill="none" stroke="midnightblue" d="M1172.35,-211.5C1180.93,-211.5 1189.53,-211.5 1197.88,-211.5"/>
<polygon fill="midnightblue" stroke="midnightblue" points="1172.28,-208 1162.28,-211.5 1172.28,-215 1172.28,-208"/>
</g>
<!-- Node19 -->
<g id="node19" class="node"><title>Node19</title>
<g id="a_node19"><a xlink:href="classCSelectionCriteria.html#a8ae57add042140f555532ed8c6b35221" target="_top" xlink:title="CSelectionCriteria\l::createSelectionCriterion">
<polygon fill="white" stroke="black" points="365.5,-101.5 365.5,-131.5 503.5,-131.5 503.5,-101.5 365.5,-101.5"/>
<text text-anchor="start" x="373.5" y="-119.5" font-family="Verdana" font-size="10.00">CSelectionCriteria</text>
<text text-anchor="middle" x="434.5" y="-108.5" font-family="Verdana" font-size="10.00">::createSelectionCriterion</text>
</a>
</g>
</g>
<!-- Node18&#45;&gt;Node19 -->
<g id="edge20" class="edge"><title>Node18&#45;&gt;Node19</title>
<path fill="none" stroke="midnightblue" d="M316.347,-116.5C332.688,-116.5 349.659,-116.5 365.444,-116.5"/>
<polygon fill="midnightblue" stroke="midnightblue" points="316.27,-113 306.27,-116.5 316.27,-120 316.27,-113"/>
</g>
<!-- Node20 -->
<g id="node20" class="node"><title>Node20</title>
<g id="a_node20"><a xlink:href="classCParameterMgr.html#a3b6a3500b78f43bfb894263689b809a7" target="_top" xlink:title="CParameterMgr::createSelection\lCriterion">
<polygon fill="white" stroke="black" points="550,-101.5 550,-131.5 723,-131.5 723,-101.5 550,-101.5"/>
<text text-anchor="start" x="558" y="-119.5" font-family="Verdana" font-size="10.00">CParameterMgr::createSelection</text>
<text text-anchor="middle" x="636.5" y="-108.5" font-family="Verdana" font-size="10.00">Criterion</text>
</a>
</g>
</g>
<!-- Node19&#45;&gt;Node20 -->
<g id="edge21" class="edge"><title>Node19&#45;&gt;Node20</title>
<path fill="none" stroke="midnightblue" d="M513.987,-116.5C525.757,-116.5 537.944,-116.5 549.854,-116.5"/>
<polygon fill="midnightblue" stroke="midnightblue" points="513.769,-113 503.769,-116.5 513.769,-120 513.769,-113"/>
</g>
<!-- Node21 -->
<g id="node21" class="node"><title>Node21</title>
<g id="a_node21"><a xlink:href="classCParameterMgrFullConnector.html#a32239564e838c5eeac07c11c14bb14b1" target="_top" xlink:title="CParameterMgrFullConnector\l::createSelectionCriterion">
<polygon fill="white" stroke="black" points="772,-147.5 772,-177.5 928,-177.5 928,-147.5 772,-147.5"/>
<text text-anchor="start" x="780" y="-165.5" font-family="Verdana" font-size="10.00">CParameterMgrFullConnector</text>
<text text-anchor="middle" x="850" y="-154.5" font-family="Verdana" font-size="10.00">::createSelectionCriterion</text>
</a>
</g>
</g>
<!-- Node20&#45;&gt;Node21 -->
<g id="edge22" class="edge"><title>Node20&#45;&gt;Node21</title>
<path fill="none" stroke="midnightblue" d="M716.528,-133.688C737.366,-138.22 759.686,-143.075 779.953,-147.483"/>
<polygon fill="midnightblue" stroke="midnightblue" points="717.268,-130.267 706.753,-131.562 715.781,-137.107 717.268,-130.267"/>
</g>
<!-- Node22 -->
<g id="node22" class="node"><title>Node22</title>
<g id="a_node22"><a xlink:href="classCParameterMgrPlatformConnector.html#ab96bc20c11b804b95a0b44a5d39009c2" target="_top" xlink:title="CParameterMgrPlatformConnector\l::createSelectionCriterion">
<polygon fill="white" stroke="black" points="759,-98.5 759,-128.5 941,-128.5 941,-98.5 759,-98.5"/>
<text text-anchor="start" x="767" y="-116.5" font-family="Verdana" font-size="10.00">CParameterMgrPlatformConnector</text>
<text text-anchor="middle" x="850" y="-105.5" font-family="Verdana" font-size="10.00">::createSelectionCriterion</text>
</a>
</g>
</g>
<!-- Node20&#45;&gt;Node22 -->
<g id="edge23" class="edge"><title>Node20&#45;&gt;Node22</title>
<path fill="none" stroke="midnightblue" d="M733.419,-115.139C741.826,-115.02 750.317,-114.9 758.676,-114.781"/>
<polygon fill="midnightblue" stroke="midnightblue" points="733.17,-111.643 723.22,-115.284 733.269,-118.642 733.17,-111.643"/>
</g>
<!-- Node24 -->
<g id="node24" class="node"><title>Node24</title>
<g id="a_node24"><a xlink:href="classCSelectionCriteria.html#a450f1208de1f19ad99740510b896a3af" target="_top" xlink:title="CSelectionCriteria\l::createSelectionCriterionType">
<polygon fill="white" stroke="black" points="355,-50.5 355,-80.5 514,-80.5 514,-50.5 355,-50.5"/>
<text text-anchor="start" x="363" y="-68.5" font-family="Verdana" font-size="10.00">CSelectionCriteria</text>
<text text-anchor="middle" x="434.5" y="-57.5" font-family="Verdana" font-size="10.00">::createSelectionCriterionType</text>
</a>
</g>
</g>
<!-- Node23&#45;&gt;Node24 -->
<g id="edge25" class="edge"><title>Node23&#45;&gt;Node24</title>
<path fill="none" stroke="midnightblue" d="M322.51,-66.6099C333.275,-66.5023 344.212,-66.3929 354.814,-66.2869"/>
<polygon fill="midnightblue" stroke="midnightblue" points="322.223,-63.1125 312.258,-66.7124 322.293,-70.1122 322.223,-63.1125"/>
</g>
<!-- Node25 -->
<g id="node25" class="node"><title>Node25</title>
<g id="a_node25"><a xlink:href="classCParameterMgr.html#a4d2a54a91f937ac71a1f7bbea2ffa1c2" target="_top" xlink:title="CParameterMgr::createSelection\lCriterionType">
<polygon fill="white" stroke="black" points="550,-49.5 550,-79.5 723,-79.5 723,-49.5 550,-49.5"/>
<text text-anchor="start" x="558" y="-67.5" font-family="Verdana" font-size="10.00">CParameterMgr::createSelection</text>
<text text-anchor="middle" x="636.5" y="-56.5" font-family="Verdana" font-size="10.00">CriterionType</text>
</a>
</g>
</g>
<!-- Node24&#45;&gt;Node25 -->
<g id="edge26" class="edge"><title>Node24&#45;&gt;Node25</title>
<path fill="none" stroke="midnightblue" d="M524.487,-65.0551C532.929,-65.0129 541.477,-64.9701 549.886,-64.9281"/>
<polygon fill="midnightblue" stroke="midnightblue" points="524.241,-61.5562 514.258,-65.1062 524.276,-68.5561 524.241,-61.5562"/>
</g>
<!-- Node26 -->
<g id="node26" class="node"><title>Node26</title>
<g id="a_node26"><a xlink:href="classCParameterMgrFullConnector.html#a664df3b9fa02b02d7fb72df7101d6e78" target="_top" xlink:title="CParameterMgrFullConnector\l::createSelectionCriterionType">
<polygon fill="white" stroke="black" points="770.5,-49.5 770.5,-79.5 929.5,-79.5 929.5,-49.5 770.5,-49.5"/>
<text text-anchor="start" x="778.5" y="-67.5" font-family="Verdana" font-size="10.00">CParameterMgrFullConnector</text>
<text text-anchor="middle" x="850" y="-56.5" font-family="Verdana" font-size="10.00">::createSelectionCriterionType</text>
</a>
</g>
</g>
<!-- Node25&#45;&gt;Node26 -->
<g id="edge27" class="edge"><title>Node25&#45;&gt;Node26</title>
<path fill="none" stroke="midnightblue" d="M733.511,-64.5C745.83,-64.5 758.327,-64.5 770.325,-64.5"/>
<polygon fill="midnightblue" stroke="midnightblue" points="733.22,-61.0001 723.22,-64.5 733.22,-68.0001 733.22,-61.0001"/>
</g>
<!-- Node27 -->
<g id="node27" class="node"><title>Node27</title>
<g id="a_node27"><a xlink:href="classCParameterMgrPlatformConnector.html#a025538f1532d26442e0acb7c3ed7497b" target="_top" xlink:title="CParameterMgrPlatformConnector\l::createSelectionCriterionType">
<polygon fill="white" stroke="black" points="759,-0.5 759,-30.5 941,-30.5 941,-0.5 759,-0.5"/>
<text text-anchor="start" x="767" y="-18.5" font-family="Verdana" font-size="10.00">CParameterMgrPlatformConnector</text>
<text text-anchor="middle" x="850" y="-7.5" font-family="Verdana" font-size="10.00">::createSelectionCriterionType</text>
</a>
</g>
</g>
<!-- Node25&#45;&gt;Node27 -->
<g id="edge28" class="edge"><title>Node25&#45;&gt;Node27</title>
<path fill="none" stroke="midnightblue" d="M712.306,-47.1691C735.788,-41.7288 761.502,-35.7715 784.228,-30.5062"/>
<polygon fill="midnightblue" stroke="midnightblue" points="711.346,-43.7986 702.394,-49.4654 712.926,-50.618 711.346,-43.7986"/>
</g>
<!-- Node29 -->
<g id="node29" class="node"><title>Node29</title>
<g id="a_node29"><a xlink:href="classCInstanceDefinition.html#aa29d3b10a23894522cfaa937cf385d10" target="_top" xlink:title="CInstanceDefinition\l::createInstances">
<polygon fill="white" stroke="black" points="582,-276.5 582,-306.5 691,-306.5 691,-276.5 582,-276.5"/>
<text text-anchor="start" x="590" y="-294.5" font-family="Verdana" font-size="10.00">CInstanceDefinition</text>
<text text-anchor="middle" x="636.5" y="-283.5" font-family="Verdana" font-size="10.00">::createInstances</text>
</a>
</g>
</g>
<!-- Node28&#45;&gt;Node29 -->
<g id="edge30" class="edge"><title>Node28&#45;&gt;Node29</title>
<path fill="none" stroke="midnightblue" d="M308.971,-286.626C388.481,-287.813 511.688,-289.652 581.822,-290.699"/>
<polygon fill="midnightblue" stroke="midnightblue" points="308.586,-283.12 298.535,-286.471 308.482,-290.12 308.586,-283.12"/>
</g>
<!-- Node30 -->
<g id="node30" class="node"><title>Node30</title>
<g id="a_node30"><a xlink:href="classCTypeElement.html#a0fd0b5dfb3e3515ff5b54eda3d7e0a45" target="_top" xlink:title="CTypeElement::instantiate">
<polygon fill="white" stroke="black" points="364,-244 364,-263 505,-263 505,-244 364,-244"/>
<text text-anchor="middle" x="434.5" y="-251" font-family="Verdana" font-size="10.00">CTypeElement::instantiate</text>
</a>
</g>
</g>
<!-- Node28&#45;&gt;Node30 -->
<g id="edge32" class="edge"><title>Node28&#45;&gt;Node30</title>
<path fill="none" stroke="midnightblue" d="M272.406,-273.8C298.331,-268.402 333.139,-262.502 363.765,-258.19"/>
<polygon fill="midnightblue" stroke="midnightblue" points="271.619,-270.389 262.582,-275.919 273.095,-277.232 271.619,-270.389"/>
</g>
<!-- Node29&#45;&gt;Node8 -->
<g id="edge31" class="edge"><title>Node29&#45;&gt;Node8</title>
<path fill="none" stroke="midnightblue" d="M701.425,-298.754C728.875,-301.869 760.806,-305.492 787.931,-308.57"/>
<polygon fill="midnightblue" stroke="midnightblue" points="701.475,-295.237 691.144,-297.587 700.685,-302.193 701.475,-295.237"/>
</g>
<!-- Node30&#45;&gt;Node28 -->
<g id="edge33" class="edge"><title>Node30&#45;&gt;Node28</title>
<path fill="none" stroke="midnightblue" d="M394.756,-265.166C367.53,-270.841 330.449,-277.076 298.711,-281.439"/>
<polygon fill="midnightblue" stroke="midnightblue" points="395.64,-268.556 404.676,-263.023 394.162,-261.713 395.64,-268.556"/>
</g>
</g>
</svg>
