<?xml version="1.0" encoding="UTF-8" standalone="no"?>
<!DOCTYPE svg PUBLIC "-//W3C//DTD SVG 1.1//EN"
 "http://www.w3.org/Graphics/SVG/1.1/DTD/svg11.dtd">
<!-- Generated by graphviz version 2.38.0 (20140413.2041)
 -->
<!-- Title: CConfigurableElement::getOffset Pages: 1 -->
<svg width="1354pt" height="797pt"
 viewBox="0.00 0.00 1354.00 796.50" xmlns="http://www.w3.org/2000/svg" xmlns:xlink="http://www.w3.org/1999/xlink">
<g id="graph0" class="graph" transform="scale(1 1) rotate(0) translate(4 792.5)">
<title>CConfigurableElement::getOffset</title>
<polygon fill="white" stroke="none" points="-4,4 -4,-792.5 1350,-792.5 1350,4 -4,4"/>
<!-- Node1 -->
<g id="node1" class="node"><title>Node1</title>
<polygon fill="#bfbfbf" stroke="black" points="0,-340.5 0,-370.5 123,-370.5 123,-340.5 0,-340.5"/>
<text text-anchor="start" x="8" y="-358.5" font-family="Verdana" font-size="10.00">CConfigurableElement</text>
<text text-anchor="middle" x="61.5" y="-347.5" font-family="Verdana" font-size="10.00">::getOffset</text>
</g>
<!-- Node2 -->
<g id="node2" class="node"><title>Node2</title>
<g id="a_node2"><a xlink:href="classCAreaConfiguration.html#a0ab61255d58c402f059aceb6668b943d" target="_top" xlink:title="CAreaConfiguration\l::save">
<polygon fill="white" stroke="black" points="201,-695.5 201,-725.5 311,-725.5 311,-695.5 201,-695.5"/>
<text text-anchor="start" x="209" y="-713.5" font-family="Verdana" font-size="10.00">CAreaConfiguration</text>
<text text-anchor="middle" x="256" y="-702.5" font-family="Verdana" font-size="10.00">::save</text>
</a>
</g>
</g>
<!-- Node1&#45;&gt;Node2 -->
<g id="edge1" class="edge"><title>Node1&#45;&gt;Node2</title>
<path fill="none" stroke="midnightblue" d="M61.9349,-380.656C61.9928,-442.287 71.1021,-601.94 159,-686.5 170.266,-697.339 185.653,-703.504 200.808,-706.949"/>
<polygon fill="midnightblue" stroke="midnightblue" points="65.4347,-380.678 62.0073,-370.653 58.4349,-380.627 65.4347,-380.678"/>
</g>
<!-- Node13 -->
<g id="node13" class="node"><title>Node13</title>
<g id="a_node13"><a xlink:href="classCAreaConfiguration.html#a5f72a0349e2309a77459650ba10918a1" target="_top" xlink:title="CAreaConfiguration\l::restore">
<polygon fill="white" stroke="black" points="201,-646.5 201,-676.5 311,-676.5 311,-646.5 201,-646.5"/>
<text text-anchor="start" x="209" y="-664.5" font-family="Verdana" font-size="10.00">CAreaConfiguration</text>
<text text-anchor="middle" x="256" y="-653.5" font-family="Verdana" font-size="10.00">::restore</text>
</a>
</g>
</g>
<!-- Node1&#45;&gt;Node13 -->
<g id="edge12" class="edge"><title>Node1&#45;&gt;Node13</title>
<path fill="none" stroke="midnightblue" d="M63.4539,-381.018C66.9519,-436.335 83.243,-567.905 159,-637.5 170.386,-647.96 185.632,-654.032 200.616,-657.508"/>
<polygon fill="midnightblue" stroke="midnightblue" points="66.9318,-380.513 62.8978,-370.716 59.9419,-380.89 66.9318,-380.513"/>
</g>
<!-- Node20 -->
<g id="node20" class="node"><title>Node20</title>
<g id="a_node20"><a xlink:href="classCAreaConfiguration.html#a6b8c95a79343ee9823b026d74184e798" target="_top" xlink:title="CAreaConfiguration\l::serializeXmlSettings">
<polygon fill="white" stroke="black" points="196.5,-597.5 196.5,-627.5 315.5,-627.5 315.5,-597.5 196.5,-597.5"/>
<text text-anchor="start" x="204.5" y="-615.5" font-family="Verdana" font-size="10.00">CAreaConfiguration</text>
<text text-anchor="middle" x="256" y="-604.5" font-family="Verdana" font-size="10.00">::serializeXmlSettings</text>
</a>
</g>
</g>
<!-- Node1&#45;&gt;Node20 -->
<g id="edge19" class="edge"><title>Node1&#45;&gt;Node20</title>
<path fill="none" stroke="midnightblue" d="M65.5323,-380.885C72.6605,-428.943 95.0131,-533.328 159,-588.5 169.474,-597.531 182.853,-603.255 196.275,-606.86"/>
<polygon fill="midnightblue" stroke="midnightblue" points="68.9652,-380.158 64.1312,-370.73 62.0309,-381.115 68.9652,-380.158"/>
</g>
<!-- Node21 -->
<g id="node21" class="node"><title>Node21</title>
<g id="a_node21"><a xlink:href="classCAreaConfiguration.html#ae84c6459b7b261fb81026c9ebe9140f8" target="_top" xlink:title="CAreaConfiguration\l::copyToOuter">
<polygon fill="white" stroke="black" points="201,-548.5 201,-578.5 311,-578.5 311,-548.5 201,-548.5"/>
<text text-anchor="start" x="209" y="-566.5" font-family="Verdana" font-size="10.00">CAreaConfiguration</text>
<text text-anchor="middle" x="256" y="-555.5" font-family="Verdana" font-size="10.00">::copyToOuter</text>
</a>
</g>
</g>
<!-- Node1&#45;&gt;Node21 -->
<g id="edge20" class="edge"><title>Node1&#45;&gt;Node21</title>
<path fill="none" stroke="midnightblue" d="M68.4702,-380.313C79.3828,-420.167 106.423,-498.155 159,-539.5 170.884,-548.845 185.941,-554.601 200.586,-558.132"/>
<polygon fill="midnightblue" stroke="midnightblue" points="71.8445,-379.382 65.9244,-370.595 65.073,-381.156 71.8445,-379.382"/>
</g>
<!-- Node23 -->
<g id="node23" class="node"><title>Node23</title>
<g id="a_node23"><a xlink:href="classCAreaConfiguration.html#aa66ebde5e339fbea35c7a5f46403c770" target="_top" xlink:title="CAreaConfiguration\l::copyFromOuter">
<polygon fill="white" stroke="black" points="201,-499.5 201,-529.5 311,-529.5 311,-499.5 201,-499.5"/>
<text text-anchor="start" x="209" y="-517.5" font-family="Verdana" font-size="10.00">CAreaConfiguration</text>
<text text-anchor="middle" x="256" y="-506.5" font-family="Verdana" font-size="10.00">::copyFromOuter</text>
</a>
</g>
</g>
<!-- Node1&#45;&gt;Node23 -->
<g id="edge22" class="edge"><title>Node1&#45;&gt;Node23</title>
<path fill="none" stroke="midnightblue" d="M73.3869,-379.652C88.3145,-409.978 118.027,-461.426 159,-489.5 171.36,-497.969 186.407,-503.569 200.887,-507.272"/>
<polygon fill="midnightblue" stroke="midnightblue" points="76.5333,-378.118 69.0643,-370.604 70.2171,-381.136 76.5333,-378.118"/>
</g>
<!-- Node28 -->
<g id="node28" class="node"><title>Node28</title>
<g id="a_node28"><a xlink:href="classCArrayParameter.html#a07b3af958a03b2295be159f69b22d42d" target="_top" xlink:title="CArrayParameter::accessValue">
<polygon fill="white" stroke="black" points="174,-461 174,-480 338,-480 338,-461 174,-461"/>
<text text-anchor="middle" x="256" y="-468" font-family="Verdana" font-size="10.00">CArrayParameter::accessValue</text>
</a>
</g>
</g>
<!-- Node1&#45;&gt;Node28 -->
<g id="edge27" class="edge"><title>Node1&#45;&gt;Node28</title>
<path fill="none" stroke="midnightblue" d="M79.0791,-378.544C96.4148,-400.838 125.704,-433.779 159,-451.5 166.349,-455.411 174.402,-458.521 182.62,-460.994"/>
<polygon fill="midnightblue" stroke="midnightblue" points="81.8676,-376.429 73.0368,-370.575 76.2897,-380.658 81.8676,-376.429"/>
</g>
<!-- Node29 -->
<g id="node29" class="node"><title>Node29</title>
<g id="a_node29"><a xlink:href="classCArrayParameter.html#a92c36813ec9f475880d47409c01e52db" target="_top" xlink:title="CArrayParameter::setDefault\lValues">
<polygon fill="white" stroke="black" points="178.5,-411.5 178.5,-441.5 333.5,-441.5 333.5,-411.5 178.5,-411.5"/>
<text text-anchor="start" x="186.5" y="-429.5" font-family="Verdana" font-size="10.00">CArrayParameter::setDefault</text>
<text text-anchor="middle" x="256" y="-418.5" font-family="Verdana" font-size="10.00">Values</text>
</a>
</g>
</g>
<!-- Node1&#45;&gt;Node29 -->
<g id="edge28" class="edge"><title>Node1&#45;&gt;Node29</title>
<path fill="none" stroke="midnightblue" d="M98.5996,-375.305C116.402,-384.492 138.422,-395.009 159,-402.5 168.04,-405.791 177.719,-408.79 187.325,-411.468"/>
<polygon fill="midnightblue" stroke="midnightblue" points="100.187,-372.185 89.7047,-370.645 96.9386,-378.386 100.187,-372.185"/>
</g>
<!-- Node30 -->
<g id="node30" class="node"><title>Node30</title>
<g id="a_node30"><a xlink:href="classCBaseParameter.html#a97e096908df72fa729a62c3f5c362ddd" target="_top" xlink:title="CBaseParameter::serialize\lXmlSettings">
<polygon fill="white" stroke="black" points="184.5,-362.5 184.5,-392.5 327.5,-392.5 327.5,-362.5 184.5,-362.5"/>
<text text-anchor="start" x="192.5" y="-380.5" font-family="Verdana" font-size="10.00">CBaseParameter::serialize</text>
<text text-anchor="middle" x="256" y="-369.5" font-family="Verdana" font-size="10.00">XmlSettings</text>
</a>
</g>
</g>
<!-- Node1&#45;&gt;Node30 -->
<g id="edge29" class="edge"><title>Node1&#45;&gt;Node30</title>
<path fill="none" stroke="midnightblue" d="M133.325,-363.594C149.933,-365.492 167.629,-367.515 184.234,-369.412"/>
<polygon fill="midnightblue" stroke="midnightblue" points="133.477,-360.089 123.144,-362.431 132.682,-367.044 133.477,-360.089"/>
</g>
<!-- Node31 -->
<g id="node31" class="node"><title>Node31</title>
<g id="a_node31"><a xlink:href="classCBaseParameter.html#ae5d6b8ea62a7007c41c14d22dbabcf31" target="_top" xlink:title="CBaseParameter::logValue">
<polygon fill="white" stroke="black" points="184,-324 184,-343 328,-343 328,-324 184,-324"/>
<text text-anchor="middle" x="256" y="-331" font-family="Verdana" font-size="10.00">CBaseParameter::logValue</text>
</a>
</g>
</g>
<!-- Node1&#45;&gt;Node31 -->
<g id="edge30" class="edge"><title>Node1&#45;&gt;Node31</title>
<path fill="none" stroke="midnightblue" d="M133.266,-347.412C149.777,-345.525 167.366,-343.515 183.892,-341.627"/>
<polygon fill="midnightblue" stroke="midnightblue" points="132.682,-343.956 123.144,-348.569 133.477,-350.911 132.682,-343.956"/>
</g>
<!-- Node32 -->
<g id="node32" class="node"><title>Node32</title>
<g id="a_node32"><a xlink:href="classCBaseParameter.html#a2b425561e193a3d54e7225d896a3d39b" target="_top" xlink:title="CBaseParameter::accessAs\lString">
<polygon fill="white" stroke="black" points="181.5,-274.5 181.5,-304.5 330.5,-304.5 330.5,-274.5 181.5,-274.5"/>
<text text-anchor="start" x="189.5" y="-292.5" font-family="Verdana" font-size="10.00">CBaseParameter::accessAs</text>
<text text-anchor="middle" x="256" y="-281.5" font-family="Verdana" font-size="10.00">String</text>
</a>
</g>
</g>
<!-- Node1&#45;&gt;Node32 -->
<g id="edge31" class="edge"><title>Node1&#45;&gt;Node32</title>
<path fill="none" stroke="midnightblue" d="M104.177,-336.208C120.99,-328.844 140.707,-320.73 159,-314.5 169.515,-310.919 180.826,-307.555 191.864,-304.527"/>
<polygon fill="midnightblue" stroke="midnightblue" points="102.367,-333.182 94.6455,-340.437 105.206,-339.581 102.367,-333.182"/>
</g>
<!-- Node34 -->
<g id="node34" class="node"><title>Node34</title>
<g id="a_node34"><a xlink:href="classCBitParameter.html#a6f4d06e327fb0b816c08e383177a82fc" target="_top" xlink:title="CBitParameter::accessAsInteger">
<polygon fill="white" stroke="black" points="170.5,-236 170.5,-255 341.5,-255 341.5,-236 170.5,-236"/>
<text text-anchor="middle" x="256" y="-243" font-family="Verdana" font-size="10.00">CBitParameter::accessAsInteger</text>
</a>
</g>
</g>
<!-- Node1&#45;&gt;Node34 -->
<g id="edge33" class="edge"><title>Node1&#45;&gt;Node34</title>
<path fill="none" stroke="midnightblue" d="M80.5566,-332.658C98.2792,-311.862 127.215,-281.966 159,-265.5 167.465,-261.115 176.821,-257.691 186.272,-255.018"/>
<polygon fill="midnightblue" stroke="midnightblue" points="77.8158,-330.48 74.1112,-340.406 83.1972,-334.957 77.8158,-330.48"/>
</g>
<!-- Node36 -->
<g id="node36" class="node"><title>Node36</title>
<g id="a_node36"><a xlink:href="classCBitParameterBlock.html#a74485c7734eb44648b1182cf8e884d40" target="_top" xlink:title="CBitParameterBlock\l::setDefaultValues">
<polygon fill="white" stroke="black" points="200,-186.5 200,-216.5 312,-216.5 312,-186.5 200,-186.5"/>
<text text-anchor="start" x="208" y="-204.5" font-family="Verdana" font-size="10.00">CBitParameterBlock</text>
<text text-anchor="middle" x="256" y="-193.5" font-family="Verdana" font-size="10.00">::setDefaultValues</text>
</a>
</g>
</g>
<!-- Node1&#45;&gt;Node36 -->
<g id="edge35" class="edge"><title>Node1&#45;&gt;Node36</title>
<path fill="none" stroke="midnightblue" d="M74.3021,-330.948C89.6852,-301.602 119.372,-253.128 159,-226.5 171.151,-218.335 185.816,-212.836 199.987,-209.133"/>
<polygon fill="midnightblue" stroke="midnightblue" points="71.0568,-329.609 69.6398,-340.108 77.2952,-332.784 71.0568,-329.609"/>
</g>
<!-- Node37 -->
<g id="node37" class="node"><title>Node37</title>
<g id="a_node37"><a xlink:href="classCConfigurableDomain.html#a0fec7c3bd4cf280eb64db3803d226836" target="_top" xlink:title="Blackboard Configuration and Base Offset retrieval. ">
<polygon fill="white" stroke="black" points="177.5,-137.5 177.5,-167.5 334.5,-167.5 334.5,-137.5 177.5,-137.5"/>
<text text-anchor="start" x="185.5" y="-155.5" font-family="Verdana" font-size="10.00">CConfigurableDomain</text>
<text text-anchor="middle" x="256" y="-144.5" font-family="Verdana" font-size="10.00">::findConfigurationBlackboard</text>
</a>
</g>
</g>
<!-- Node1&#45;&gt;Node37 -->
<g id="edge36" class="edge"><title>Node1&#45;&gt;Node37</title>
<path fill="none" stroke="midnightblue" d="M69.0734,-330.47C80.5863,-291.666 108.154,-217.321 159,-177.5 164.559,-173.146 170.8,-169.546 177.362,-166.569"/>
<polygon fill="midnightblue" stroke="midnightblue" points="65.6144,-329.839 66.2459,-340.415 72.3475,-331.753 65.6144,-329.839"/>
</g>
<!-- Node38 -->
<g id="node38" class="node"><title>Node38</title>
<g id="a_node38"><a xlink:href="classCParameter.html#a26fa5e3c97be1577ad15d04295ada708" target="_top" xlink:title="CParameter::setDefaultValues">
<polygon fill="white" stroke="black" points="175.5,-99 175.5,-118 336.5,-118 336.5,-99 175.5,-99"/>
<text text-anchor="middle" x="256" y="-106" font-family="Verdana" font-size="10.00">CParameter::setDefaultValues</text>
</a>
</g>
</g>
<!-- Node1&#45;&gt;Node38 -->
<g id="edge37" class="edge"><title>Node1&#45;&gt;Node38</title>
<path fill="none" stroke="midnightblue" d="M65.603,-330.184C72.8194,-282.799 95.2702,-180.79 159,-128.5 164.133,-124.288 169.93,-120.896 176.07,-118.171"/>
<polygon fill="midnightblue" stroke="midnightblue" points="62.1195,-329.821 64.1817,-340.213 69.0503,-330.803 62.1195,-329.821"/>
</g>
<!-- Node39 -->
<g id="node39" class="node"><title>Node39</title>
<g id="a_node39"><a xlink:href="classCParameterMgr.html#a25055f536c2d537e86852c87a4e1a061" target="_top" xlink:title="CParameterMgr::accessConfiguration\lValue">
<polygon fill="white" stroke="black" points="159,-49.5 159,-79.5 353,-79.5 353,-49.5 159,-49.5"/>
<text text-anchor="start" x="167" y="-67.5" font-family="Verdana" font-size="10.00">CParameterMgr::accessConfiguration</text>
<text text-anchor="middle" x="256" y="-56.5" font-family="Verdana" font-size="10.00">Value</text>
</a>
</g>
</g>
<!-- Node1&#45;&gt;Node39 -->
<g id="edge38" class="edge"><title>Node1&#45;&gt;Node39</title>
<path fill="none" stroke="midnightblue" d="M64.1144,-330.001C68.8782,-277.043 87.4569,-154.664 159,-89.5 163.202,-85.6729 167.915,-82.417 172.939,-79.6488"/>
<polygon fill="midnightblue" stroke="midnightblue" points="60.607,-329.954 63.2934,-340.202 67.5844,-330.515 60.607,-329.954"/>
</g>
<!-- Node40 -->
<g id="node40" class="node"><title>Node40</title>
<g id="a_node40"><a xlink:href="classCStringParameter.html#a76f587f59ddcfd51704f55fd2fa88485" target="_top" xlink:title="CStringParameter::setDefault\lValues">
<polygon fill="white" stroke="black" points="177,-0.5 177,-30.5 335,-30.5 335,-0.5 177,-0.5"/>
<text text-anchor="start" x="185" y="-18.5" font-family="Verdana" font-size="10.00">CStringParameter::setDefault</text>
<text text-anchor="middle" x="256" y="-7.5" font-family="Verdana" font-size="10.00">Values</text>
</a>
</g>
</g>
<!-- Node1&#45;&gt;Node40 -->
<g id="edge39" class="edge"><title>Node1&#45;&gt;Node40</title>
<path fill="none" stroke="midnightblue" d="M62.4277,-330.392C63.6798,-270.948 75.4194,-120.601 159,-40.5 164.222,-35.495 170.315,-31.4594 176.852,-28.2098"/>
<polygon fill="midnightblue" stroke="midnightblue" points="58.928,-330.353 62.301,-340.396 65.9275,-330.441 58.928,-330.353"/>
</g>
<!-- Node3 -->
<g id="node3" class="node"><title>Node3</title>
<g id="a_node3"><a xlink:href="classCAreaConfiguration.html#a9c0ddade93f42f2ed315dd3a0719933c" target="_top" xlink:title="CAreaConfiguration\l::validate">
<polygon fill="white" stroke="black" points="422,-744.5 422,-774.5 532,-774.5 532,-744.5 422,-744.5"/>
<text text-anchor="start" x="430" y="-762.5" font-family="Verdana" font-size="10.00">CAreaConfiguration</text>
<text text-anchor="middle" x="477" y="-751.5" font-family="Verdana" font-size="10.00">::validate</text>
</a>
</g>
</g>
<!-- Node2&#45;&gt;Node3 -->
<g id="edge2" class="edge"><title>Node2&#45;&gt;Node3</title>
<path fill="none" stroke="midnightblue" d="M321.26,-724.878C353.172,-732.018 391.303,-740.55 421.729,-747.357"/>
<polygon fill="midnightblue" stroke="midnightblue" points="321.658,-721.38 311.135,-722.612 320.129,-728.211 321.658,-721.38"/>
</g>
<!-- Node9 -->
<g id="node9" class="node"><title>Node9</title>
<g id="a_node9"><a xlink:href="classCDomainConfiguration.html#aff0adeb0eb6645ef3ae8a4b75c4a7892" target="_top" xlink:title="CDomainConfiguration\l::save">
<polygon fill="white" stroke="black" points="414.5,-695.5 414.5,-725.5 539.5,-725.5 539.5,-695.5 414.5,-695.5"/>
<text text-anchor="start" x="422.5" y="-713.5" font-family="Verdana" font-size="10.00">CDomainConfiguration</text>
<text text-anchor="middle" x="477" y="-702.5" font-family="Verdana" font-size="10.00">::save</text>
</a>
</g>
</g>
<!-- Node2&#45;&gt;Node9 -->
<g id="edge8" class="edge"><title>Node2&#45;&gt;Node9</title>
<path fill="none" stroke="midnightblue" d="M321.289,-710.5C350.669,-710.5 385.315,-710.5 414.366,-710.5"/>
<polygon fill="midnightblue" stroke="midnightblue" points="321.135,-707 311.135,-710.5 321.135,-714 321.135,-707"/>
</g>
<!-- Node4 -->
<g id="node4" class="node"><title>Node4</title>
<g id="a_node4"><a xlink:href="classCDomainConfiguration.html#a10c3a1e0899400ecd23a90fb7dc4e4e6" target="_top" xlink:title="CDomainConfiguration\l::validate">
<polygon fill="white" stroke="black" points="601,-744.5 601,-774.5 726,-774.5 726,-744.5 601,-744.5"/>
<text text-anchor="start" x="609" y="-762.5" font-family="Verdana" font-size="10.00">CDomainConfiguration</text>
<text text-anchor="middle" x="663.5" y="-751.5" font-family="Verdana" font-size="10.00">::validate</text>
</a>
</g>
</g>
<!-- Node3&#45;&gt;Node4 -->
<g id="edge3" class="edge"><title>Node3&#45;&gt;Node4</title>
<path fill="none" stroke="midnightblue" d="M542.381,-759.5C561.32,-759.5 581.99,-759.5 600.76,-759.5"/>
<polygon fill="midnightblue" stroke="midnightblue" points="542.358,-756 532.358,-759.5 542.358,-763 542.358,-756"/>
</g>
<!-- Node5 -->
<g id="node5" class="node"><title>Node5</title>
<g id="a_node5"><a xlink:href="classCConfigurableDomain.html#a2df6f85b21fa2ccbecc4a1c6d01ae2ed" target="_top" xlink:title="CConfigurableDomain\l::validate">
<polygon fill="white" stroke="black" points="764.5,-744.5 764.5,-774.5 885.5,-774.5 885.5,-744.5 764.5,-744.5"/>
<text text-anchor="start" x="772.5" y="-762.5" font-family="Verdana" font-size="10.00">CConfigurableDomain</text>
<text text-anchor="middle" x="825" y="-751.5" font-family="Verdana" font-size="10.00">::validate</text>
</a>
</g>
</g>
<!-- Node4&#45;&gt;Node5 -->
<g id="edge4" class="edge"><title>Node4&#45;&gt;Node5</title>
<path fill="none" stroke="midnightblue" d="M736.265,-759.5C745.647,-759.5 755.179,-759.5 764.333,-759.5"/>
<polygon fill="midnightblue" stroke="midnightblue" points="736.167,-756 726.167,-759.5 736.167,-763 736.167,-756"/>
</g>
<!-- Node6 -->
<g id="node6" class="node"><title>Node6</title>
<g id="a_node6"><a xlink:href="classCConfigurableDomains.html#a6fd812eea1fd18c0d4fa14ec33b57fd5" target="_top" xlink:title="CConfigurableDomains\l::validate">
<polygon fill="white" stroke="black" points="959,-744.5 959,-774.5 1085,-774.5 1085,-744.5 959,-744.5"/>
<text text-anchor="start" x="967" y="-762.5" font-family="Verdana" font-size="10.00">CConfigurableDomains</text>
<text text-anchor="middle" x="1022" y="-751.5" font-family="Verdana" font-size="10.00">::validate</text>
</a>
</g>
</g>
<!-- Node5&#45;&gt;Node6 -->
<g id="edge5" class="edge"><title>Node5&#45;&gt;Node6</title>
<path fill="none" stroke="midnightblue" d="M895.812,-759.5C916.367,-759.5 938.713,-759.5 958.76,-759.5"/>
<polygon fill="midnightblue" stroke="midnightblue" points="895.566,-756 885.566,-759.5 895.566,-763 895.566,-756"/>
</g>
<!-- Node7 -->
<g id="node7" class="node"><title>Node7</title>
<g id="a_node7"><a xlink:href="classCParameterMgr.html#aad4830a40d67cfae091cbf1a15ff29d0" target="_top" xlink:title="Load plugins, structures and settings from the config file given. ">
<polygon fill="white" stroke="black" points="1192,-769 1192,-788 1310,-788 1310,-769 1192,-769"/>
<text text-anchor="middle" x="1251" y="-776" font-family="Verdana" font-size="10.00">CParameterMgr::load</text>
</a>
</g>
</g>
<!-- Node6&#45;&gt;Node7 -->
<g id="edge6" class="edge"><title>Node6&#45;&gt;Node7</title>
<path fill="none" stroke="midnightblue" d="M1095,-765.526C1126.27,-768.144 1162.43,-771.17 1191.95,-773.641"/>
<polygon fill="midnightblue" stroke="midnightblue" points="1095.29,-762.038 1085.03,-764.692 1094.7,-769.014 1095.29,-762.038"/>
</g>
<!-- Node8 -->
<g id="node8" class="node"><title>Node8</title>
<g id="a_node8"><a xlink:href="classCParameterMgr.html#ac2a3211a14a825e94e0090a9ad0e4c57" target="_top" xlink:title="Method that imports Configurable Domains from an Xml source. ">
<polygon fill="white" stroke="black" points="1156,-731 1156,-750 1346,-750 1346,-731 1156,-731"/>
<text text-anchor="middle" x="1251" y="-738" font-family="Verdana" font-size="10.00">CParameterMgr::importDomainsXml</text>
</a>
</g>
</g>
<!-- Node6&#45;&gt;Node8 -->
<g id="edge7" class="edge"><title>Node6&#45;&gt;Node8</title>
<path fill="none" stroke="midnightblue" d="M1095.2,-753.457C1114.41,-751.849 1135.45,-750.088 1155.66,-748.396"/>
<polygon fill="midnightblue" stroke="midnightblue" points="1094.7,-749.986 1085.03,-754.308 1095.29,-756.962 1094.7,-749.986"/>
</g>
<!-- Node10 -->
<g id="node10" class="node"><title>Node10</title>
<g id="a_node10"><a xlink:href="classCConfigurableDomain.html#a7656ea4134ae47e8a19e1565c16323f0" target="_top" xlink:title="CConfigurableDomain\l::saveConfiguration">
<polygon fill="white" stroke="black" points="603,-695.5 603,-725.5 724,-725.5 724,-695.5 603,-695.5"/>
<text text-anchor="start" x="611" y="-713.5" font-family="Verdana" font-size="10.00">CConfigurableDomain</text>
<text text-anchor="middle" x="663.5" y="-702.5" font-family="Verdana" font-size="10.00">::saveConfiguration</text>
</a>
</g>
</g>
<!-- Node9&#45;&gt;Node10 -->
<g id="edge9" class="edge"><title>Node9&#45;&gt;Node10</title>
<path fill="none" stroke="midnightblue" d="M549.855,-710.5C567.351,-710.5 585.879,-710.5 602.744,-710.5"/>
<polygon fill="midnightblue" stroke="midnightblue" points="549.692,-707 539.692,-710.5 549.692,-714 549.692,-707"/>
</g>
<!-- Node11 -->
<g id="node11" class="node"><title>Node11</title>
<g id="a_node11"><a xlink:href="classCConfigurableDomains.html#a1be81268a7220733d7aed82e75e8253c" target="_top" xlink:title="CConfigurableDomains\l::saveConfiguration">
<polygon fill="white" stroke="black" points="762,-695.5 762,-725.5 888,-725.5 888,-695.5 762,-695.5"/>
<text text-anchor="start" x="770" y="-713.5" font-family="Verdana" font-size="10.00">CConfigurableDomains</text>
<text text-anchor="middle" x="825" y="-702.5" font-family="Verdana" font-size="10.00">::saveConfiguration</text>
</a>
</g>
</g>
<!-- Node10&#45;&gt;Node11 -->
<g id="edge10" class="edge"><title>Node10&#45;&gt;Node11</title>
<path fill="none" stroke="midnightblue" d="M734.55,-710.5C743.676,-710.5 752.974,-710.5 761.956,-710.5"/>
<polygon fill="midnightblue" stroke="midnightblue" points="734.346,-707 724.346,-710.5 734.346,-714 734.346,-707"/>
</g>
<!-- Node12 -->
<g id="node12" class="node"><title>Node12</title>
<g id="a_node12"><a xlink:href="classCParameterMgr.html#aabb760bc56ad6e76f32bf732005730cb" target="_top" xlink:title="CParameterMgr::saveConfiguration">
<polygon fill="white" stroke="black" points="930,-701 930,-720 1114,-720 1114,-701 930,-701"/>
<text text-anchor="middle" x="1022" y="-708" font-family="Verdana" font-size="10.00">CParameterMgr::saveConfiguration</text>
</a>
</g>
</g>
<!-- Node11&#45;&gt;Node12 -->
<g id="edge11" class="edge"><title>Node11&#45;&gt;Node12</title>
<path fill="none" stroke="midnightblue" d="M898.353,-710.5C908.623,-710.5 919.292,-710.5 929.862,-710.5"/>
<polygon fill="midnightblue" stroke="midnightblue" points="898.235,-707 888.235,-710.5 898.235,-714 898.235,-707"/>
</g>
<!-- Node14 -->
<g id="node14" class="node"><title>Node14</title>
<g id="a_node14"><a xlink:href="classCDomainConfiguration.html#a1e837621d00a5ed2282c525c25a484e7" target="_top" xlink:title="CDomainConfiguration\l::restore">
<polygon fill="white" stroke="black" points="414.5,-646.5 414.5,-676.5 539.5,-676.5 539.5,-646.5 414.5,-646.5"/>
<text text-anchor="start" x="422.5" y="-664.5" font-family="Verdana" font-size="10.00">CDomainConfiguration</text>
<text text-anchor="middle" x="477" y="-653.5" font-family="Verdana" font-size="10.00">::restore</text>
</a>
</g>
</g>
<!-- Node13&#45;&gt;Node14 -->
<g id="edge13" class="edge"><title>Node13&#45;&gt;Node14</title>
<path fill="none" stroke="midnightblue" d="M321.289,-661.5C350.669,-661.5 385.315,-661.5 414.366,-661.5"/>
<polygon fill="midnightblue" stroke="midnightblue" points="321.135,-658 311.135,-661.5 321.135,-665 321.135,-658"/>
</g>
<!-- Node15 -->
<g id="node15" class="node"><title>Node15</title>
<g id="a_node15"><a xlink:href="classCConfigurableDomain.html#a928805e163719f902c207c061ab3b1c2" target="_top" xlink:title="CConfigurableDomain\l::apply">
<polygon fill="white" stroke="black" points="603,-646.5 603,-676.5 724,-676.5 724,-646.5 603,-646.5"/>
<text text-anchor="start" x="611" y="-664.5" font-family="Verdana" font-size="10.00">CConfigurableDomain</text>
<text text-anchor="middle" x="663.5" y="-653.5" font-family="Verdana" font-size="10.00">::apply</text>
</a>
</g>
</g>
<!-- Node14&#45;&gt;Node15 -->
<g id="edge14" class="edge"><title>Node14&#45;&gt;Node15</title>
<path fill="none" stroke="midnightblue" d="M549.855,-661.5C567.351,-661.5 585.879,-661.5 602.744,-661.5"/>
<polygon fill="midnightblue" stroke="midnightblue" points="549.692,-658 539.692,-661.5 549.692,-665 549.692,-658"/>
</g>
<!-- Node17 -->
<g id="node17" class="node"><title>Node17</title>
<g id="a_node17"><a xlink:href="classCConfigurableDomain.html#aa9e776e80956f8cc956b77213aae96ec" target="_top" xlink:title="CConfigurableDomain\l::restoreConfiguration">
<polygon fill="white" stroke="black" points="603,-597.5 603,-627.5 724,-627.5 724,-597.5 603,-597.5"/>
<text text-anchor="start" x="611" y="-615.5" font-family="Verdana" font-size="10.00">CConfigurableDomain</text>
<text text-anchor="middle" x="663.5" y="-604.5" font-family="Verdana" font-size="10.00">::restoreConfiguration</text>
</a>
</g>
</g>
<!-- Node14&#45;&gt;Node17 -->
<g id="edge16" class="edge"><title>Node14&#45;&gt;Node17</title>
<path fill="none" stroke="midnightblue" d="M544.356,-643.877C564.541,-638.516 586.526,-632.677 605.997,-627.506"/>
<polygon fill="midnightblue" stroke="midnightblue" points="543.376,-640.516 534.61,-646.465 545.173,-647.281 543.376,-640.516"/>
</g>
<!-- Node16 -->
<g id="node16" class="node"><title>Node16</title>
<g id="a_node16"><a xlink:href="classCConfigurableDomains.html#ab8f2aa74fe0ed3e98fa052587d6c417d" target="_top" xlink:title="CConfigurableDomains\l::apply">
<polygon fill="white" stroke="black" points="762,-646.5 762,-676.5 888,-676.5 888,-646.5 762,-646.5"/>
<text text-anchor="start" x="770" y="-664.5" font-family="Verdana" font-size="10.00">CConfigurableDomains</text>
<text text-anchor="middle" x="825" y="-653.5" font-family="Verdana" font-size="10.00">::apply</text>
</a>
</g>
</g>
<!-- Node15&#45;&gt;Node16 -->
<g id="edge15" class="edge"><title>Node15&#45;&gt;Node16</title>
<path fill="none" stroke="midnightblue" d="M734.55,-661.5C743.676,-661.5 752.974,-661.5 761.956,-661.5"/>
<polygon fill="midnightblue" stroke="midnightblue" points="734.346,-658 724.346,-661.5 734.346,-665 734.346,-658"/>
</g>
<!-- Node18 -->
<g id="node18" class="node"><title>Node18</title>
<g id="a_node18"><a xlink:href="classCConfigurableDomains.html#a9fa62075b2521f79af18240367662cc7" target="_top" xlink:title="CConfigurableDomains\l::restoreConfiguration">
<polygon fill="white" stroke="black" points="762,-597.5 762,-627.5 888,-627.5 888,-597.5 762,-597.5"/>
<text text-anchor="start" x="770" y="-615.5" font-family="Verdana" font-size="10.00">CConfigurableDomains</text>
<text text-anchor="middle" x="825" y="-604.5" font-family="Verdana" font-size="10.00">::restoreConfiguration</text>
</a>
</g>
</g>
<!-- Node17&#45;&gt;Node18 -->
<g id="edge17" class="edge"><title>Node17&#45;&gt;Node18</title>
<path fill="none" stroke="midnightblue" d="M734.55,-612.5C743.676,-612.5 752.974,-612.5 761.956,-612.5"/>
<polygon fill="midnightblue" stroke="midnightblue" points="734.346,-609 724.346,-612.5 734.346,-616 734.346,-609"/>
</g>
<!-- Node19 -->
<g id="node19" class="node"><title>Node19</title>
<g id="a_node19"><a xlink:href="classCParameterMgr.html#a04786772b59275eef5f1af23dc9a639d" target="_top" xlink:title="CParameterMgr::restoreConfiguration">
<polygon fill="white" stroke="black" points="924,-603 924,-622 1120,-622 1120,-603 924,-603"/>
<text text-anchor="middle" x="1022" y="-610" font-family="Verdana" font-size="10.00">CParameterMgr::restoreConfiguration</text>
</a>
</g>
</g>
<!-- Node18&#45;&gt;Node19 -->
<g id="edge18" class="edge"><title>Node18&#45;&gt;Node19</title>
<path fill="none" stroke="midnightblue" d="M898.262,-612.5C906.604,-612.5 915.211,-612.5 923.815,-612.5"/>
<polygon fill="midnightblue" stroke="midnightblue" points="898.235,-609 888.235,-612.5 898.235,-616 898.235,-609"/>
</g>
<!-- Node22 -->
<g id="node22" class="node"><title>Node22</title>
<g id="a_node22"><a xlink:href="classCDomainConfiguration.html#ade8c66e62cc6a64ad6e1066f4a57eaa2" target="_top" xlink:title="CDomainConfiguration\l::merge">
<polygon fill="white" stroke="black" points="414.5,-548.5 414.5,-578.5 539.5,-578.5 539.5,-548.5 414.5,-548.5"/>
<text text-anchor="start" x="422.5" y="-566.5" font-family="Verdana" font-size="10.00">CDomainConfiguration</text>
<text text-anchor="middle" x="477" y="-555.5" font-family="Verdana" font-size="10.00">::merge</text>
</a>
</g>
</g>
<!-- Node21&#45;&gt;Node22 -->
<g id="edge21" class="edge"><title>Node21&#45;&gt;Node22</title>
<path fill="none" stroke="midnightblue" d="M321.289,-563.5C350.669,-563.5 385.315,-563.5 414.366,-563.5"/>
<polygon fill="midnightblue" stroke="midnightblue" points="321.135,-560 311.135,-563.5 321.135,-567 321.135,-560"/>
</g>
<!-- Node24 -->
<g id="node24" class="node"><title>Node24</title>
<g id="a_node24"><a xlink:href="classCDomainConfiguration.html#acd4e91173fa488a4b4d31be157067eae" target="_top" xlink:title="CDomainConfiguration\l::split">
<polygon fill="white" stroke="black" points="414.5,-499.5 414.5,-529.5 539.5,-529.5 539.5,-499.5 414.5,-499.5"/>
<text text-anchor="start" x="422.5" y="-517.5" font-family="Verdana" font-size="10.00">CDomainConfiguration</text>
<text text-anchor="middle" x="477" y="-506.5" font-family="Verdana" font-size="10.00">::split</text>
</a>
</g>
</g>
<!-- Node23&#45;&gt;Node24 -->
<g id="edge23" class="edge"><title>Node23&#45;&gt;Node24</title>
<path fill="none" stroke="midnightblue" d="M321.289,-514.5C350.669,-514.5 385.315,-514.5 414.366,-514.5"/>
<polygon fill="midnightblue" stroke="midnightblue" points="321.135,-511 311.135,-514.5 321.135,-518 321.135,-511"/>
</g>
<!-- Node25 -->
<g id="node25" class="node"><title>Node25</title>
<g id="a_node25"><a xlink:href="classCConfigurableDomain.html#aea88fe7f6e3f02217f5d9f0e2e820da2" target="_top" xlink:title="CConfigurableDomain\l::split">
<polygon fill="white" stroke="black" points="603,-499.5 603,-529.5 724,-529.5 724,-499.5 603,-499.5"/>
<text text-anchor="start" x="611" y="-517.5" font-family="Verdana" font-size="10.00">CConfigurableDomain</text>
<text text-anchor="middle" x="663.5" y="-506.5" font-family="Verdana" font-size="10.00">::split</text>
</a>
</g>
</g>
<!-- Node24&#45;&gt;Node25 -->
<g id="edge24" class="edge"><title>Node24&#45;&gt;Node25</title>
<path fill="none" stroke="midnightblue" d="M549.855,-514.5C567.351,-514.5 585.879,-514.5 602.744,-514.5"/>
<polygon fill="midnightblue" stroke="midnightblue" points="549.692,-511 539.692,-514.5 549.692,-518 549.692,-511"/>
</g>
<!-- Node26 -->
<g id="node26" class="node"><title>Node26</title>
<g id="a_node26"><a xlink:href="classCConfigurableDomains.html#ae01182802f0ce424d239ea19f9365330" target="_top" xlink:title="CConfigurableDomains\l::split">
<polygon fill="white" stroke="black" points="762,-499.5 762,-529.5 888,-529.5 888,-499.5 762,-499.5"/>
<text text-anchor="start" x="770" y="-517.5" font-family="Verdana" font-size="10.00">CConfigurableDomains</text>
<text text-anchor="middle" x="825" y="-506.5" font-family="Verdana" font-size="10.00">::split</text>
</a>
</g>
</g>
<!-- Node25&#45;&gt;Node26 -->
<g id="edge25" class="edge"><title>Node25&#45;&gt;Node26</title>
<path fill="none" stroke="midnightblue" d="M734.55,-514.5C743.676,-514.5 752.974,-514.5 761.956,-514.5"/>
<polygon fill="midnightblue" stroke="midnightblue" points="734.346,-511 724.346,-514.5 734.346,-518 734.346,-511"/>
</g>
<!-- Node27 -->
<g id="node27" class="node"><title>Node27</title>
<g id="a_node27"><a xlink:href="classCParameterMgr.html#a042735242f31241743085d2d9d7edcc5" target="_top" xlink:title="CParameterMgr::split">
<polygon fill="white" stroke="black" points="963.5,-505 963.5,-524 1080.5,-524 1080.5,-505 963.5,-505"/>
<text text-anchor="middle" x="1022" y="-512" font-family="Verdana" font-size="10.00">CParameterMgr::split</text>
</a>
</g>
</g>
<!-- Node26&#45;&gt;Node27 -->
<g id="edge26" class="edge"><title>Node26&#45;&gt;Node27</title>
<path fill="none" stroke="midnightblue" d="M898.278,-514.5C919.73,-514.5 942.932,-514.5 963.326,-514.5"/>
<polygon fill="midnightblue" stroke="midnightblue" points="898.235,-511 888.235,-514.5 898.235,-518 898.235,-511"/>
</g>
<!-- Node33 -->
<g id="node33" class="node"><title>Node33</title>
<g id="a_node33"><a xlink:href="classCBaseParameter.html#a4a9b3e3a2d1ea65a8dc7048559db8dc2" target="_top" xlink:title="CBaseParameter::accessValue">
<polygon fill="white" stroke="black" points="395.5,-280 395.5,-299 558.5,-299 558.5,-280 395.5,-280"/>
<text text-anchor="middle" x="477" y="-287" font-family="Verdana" font-size="10.00">CBaseParameter::accessValue</text>
</a>
</g>
</g>
<!-- Node32&#45;&gt;Node33 -->
<g id="edge32" class="edge"><title>Node32&#45;&gt;Node33</title>
<path fill="none" stroke="midnightblue" d="M340.888,-289.5C358.689,-289.5 377.446,-289.5 395.132,-289.5"/>
<polygon fill="midnightblue" stroke="midnightblue" points="340.533,-286 330.533,-289.5 340.533,-293 340.533,-286"/>
</g>
<!-- Node35 -->
<g id="node35" class="node"><title>Node35</title>
<g id="a_node35"><a xlink:href="classCBitParameter.html#a2e0ed93baec3479a9b92314818433a31" target="_top" xlink:title="Value access. ">
<polygon fill="white" stroke="black" points="389,-236 389,-255 565,-255 565,-236 389,-236"/>
<text text-anchor="middle" x="477" y="-243" font-family="Verdana" font-size="10.00">CBitParameter::accessAsBoolean</text>
</a>
</g>
</g>
<!-- Node34&#45;&gt;Node35 -->
<g id="edge34" class="edge"><title>Node34&#45;&gt;Node35</title>
<path fill="none" stroke="midnightblue" d="M351.867,-245.5C364.092,-245.5 376.563,-245.5 388.659,-245.5"/>
<polygon fill="midnightblue" stroke="midnightblue" points="351.671,-242 341.671,-245.5 351.671,-249 351.671,-242"/>
</g>
</g>
</svg>
