<?xml version="1.0" encoding="UTF-8" standalone="no"?>
<!DOCTYPE svg PUBLIC "-//W3C//DTD SVG 1.1//EN"
 "http://www.w3.org/Graphics/SVG/1.1/DTD/svg11.dtd">
<!-- Generated by graphviz version 2.38.0 (20140413.2041)
 -->
<!-- Title: CElement::dumpContent Pages: 1 -->
<svg width="293pt" height="104pt"
 viewBox="0.00 0.00 293.00 104.00" xmlns="http://www.w3.org/2000/svg" xmlns:xlink="http://www.w3.org/1999/xlink">
<g id="graph0" class="graph" transform="scale(1 1) rotate(0) translate(4 100)">
<title>CElement::dumpContent</title>
<polygon fill="white" stroke="none" points="-4,4 -4,-100 289,-100 289,4 -4,4"/>
<!-- Node1 -->
<g id="node1" class="node"><title>Node1</title>
<polygon fill="#bfbfbf" stroke="black" points="0,-38.5 0,-57.5 135,-57.5 135,-38.5 0,-38.5"/>
<text text-anchor="middle" x="67.5" y="-45.5" font-family="Verdana" font-size="10.00">CElement::dumpContent</text>
</g>
<!-- Node2 -->
<g id="node2" class="node"><title>Node2</title>
<g id="a_node2"><a xlink:href="classCElement.html#aed2ca7f2a56dbf2edcd82167859535ee" target="_top" xlink:title="CElement::getKind">
<polygon fill="white" stroke="black" points="175.5,-76.5 175.5,-95.5 280.5,-95.5 280.5,-76.5 175.5,-76.5"/>
<text text-anchor="middle" x="228" y="-83.5" font-family="Verdana" font-size="10.00">CElement::getKind</text>
</a>
</g>
</g>
<!-- Node1&#45;&gt;Node2 -->
<g id="edge1" class="edge"><title>Node1&#45;&gt;Node2</title>
<path fill="none" stroke="midnightblue" d="M108.496,-57.589C129.412,-62.6035 155.208,-68.7881 177.386,-74.1053"/>
<polygon fill="midnightblue" stroke="midnightblue" points="176.751,-77.552 187.291,-76.4799 178.383,-70.7449 176.751,-77.552"/>
</g>
<!-- Node3 -->
<g id="node3" class="node"><title>Node3</title>
<g id="a_node3"><a xlink:href="classCElement.html#a49581fb6412e29e932962acd82d52d6a" target="_top" xlink:title="CElement::getName">
<polygon fill="white" stroke="black" points="171,-38.5 171,-57.5 285,-57.5 285,-38.5 171,-38.5"/>
<text text-anchor="middle" x="228" y="-45.5" font-family="Verdana" font-size="10.00">CElement::getName</text>
</a>
</g>
</g>
<!-- Node1&#45;&gt;Node3 -->
<g id="edge2" class="edge"><title>Node1&#45;&gt;Node3</title>
<path fill="none" stroke="midnightblue" d="M135.259,-48C143.68,-48 152.293,-48 160.707,-48"/>
<polygon fill="midnightblue" stroke="midnightblue" points="160.844,-51.5001 170.843,-48 160.843,-44.5001 160.844,-51.5001"/>
</g>
<!-- Node4 -->
<g id="node4" class="node"><title>Node4</title>
<g id="a_node4"><a xlink:href="classCElement.html#a466ec9e85ea941fa10864afb8f15678b" target="_top" xlink:title="CElement::logValue">
<polygon fill="white" stroke="black" points="173,-0.5 173,-19.5 283,-19.5 283,-0.5 173,-0.5"/>
<text text-anchor="middle" x="228" y="-7.5" font-family="Verdana" font-size="10.00">CElement::logValue</text>
</a>
</g>
</g>
<!-- Node1&#45;&gt;Node4 -->
<g id="edge3" class="edge"><title>Node1&#45;&gt;Node4</title>
<path fill="none" stroke="midnightblue" d="M108.496,-38.411C129.412,-33.3965 155.208,-27.2119 177.386,-21.8947"/>
<polygon fill="midnightblue" stroke="midnightblue" points="178.383,-25.2551 187.291,-19.5201 176.751,-18.448 178.383,-25.2551"/>
</g>
</g>
</svg>
