<?xml version="1.0" encoding="UTF-8" standalone="no"?>
<!DOCTYPE svg PUBLIC "-//W3C//DTD SVG 1.1//EN"
 "http://www.w3.org/Graphics/SVG/1.1/DTD/svg11.dtd">
<!-- Generated by graphviz version 2.38.0 (20140413.2041)
 -->
<!-- Title: CMappingData::init Pages: 1 -->
<svg width="320pt" height="66pt"
 viewBox="0.00 0.00 320.00 66.00" xmlns="http://www.w3.org/2000/svg" xmlns:xlink="http://www.w3.org/1999/xlink">
<g id="graph0" class="graph" transform="scale(1 1) rotate(0) translate(4 62)">
<title>CMappingData::init</title>
<polygon fill="white" stroke="none" points="-4,4 -4,-62 316,-62 316,4 -4,4"/>
<!-- Node1 -->
<g id="node1" class="node"><title>Node1</title>
<polygon fill="#bfbfbf" stroke="black" points="0,-19.5 0,-38.5 107,-38.5 107,-19.5 0,-19.5"/>
<text text-anchor="middle" x="53.5" y="-26.5" font-family="Verdana" font-size="10.00">CMappingData::init</text>
</g>
<!-- Node2 -->
<g id="node2" class="node"><title>Node2</title>
<g id="a_node2"><a xlink:href="classCSubsystem.html#ab9e7934e8526dcaaf0b037e72b4e6b7e" target="_top" xlink:title="Deserialize the structure from xml. ">
<polygon fill="white" stroke="black" points="143,-38.5 143,-57.5 312,-57.5 312,-38.5 143,-38.5"/>
<text text-anchor="middle" x="227.5" y="-45.5" font-family="Verdana" font-size="10.00">CSubsystem::structureFromXml</text>
</a>
</g>
</g>
<!-- Node1&#45;&gt;Node2 -->
<g id="edge1" class="edge"><title>Node1&#45;&gt;Node2</title>
<path fill="none" stroke="midnightblue" d="M117.1,-35.9151C125.498,-36.8428 134.218,-37.806 142.905,-38.7657"/>
<polygon fill="midnightblue" stroke="midnightblue" points="117.364,-32.4231 107.04,-34.8039 116.595,-39.3808 117.364,-32.4231"/>
</g>
<!-- Node3 -->
<g id="node3" class="node"><title>Node3</title>
<g id="a_node3"><a xlink:href="classCTypeElement.html#a2d660b223be2b8d54db52d166b5ca04b" target="_top" xlink:title="CTypeElement::fromXml">
<polygon fill="white" stroke="black" points="162,-0.5 162,-19.5 293,-19.5 293,-0.5 162,-0.5"/>
<text text-anchor="middle" x="227.5" y="-7.5" font-family="Verdana" font-size="10.00">CTypeElement::fromXml</text>
</a>
</g>
</g>
<!-- Node1&#45;&gt;Node3 -->
<g id="edge2" class="edge"><title>Node1&#45;&gt;Node3</title>
<path fill="none" stroke="midnightblue" d="M117.389,-22.053C131.866,-20.4537 147.287,-18.7503 161.838,-17.1429"/>
<polygon fill="midnightblue" stroke="midnightblue" points="116.595,-18.6192 107.04,-23.1961 117.364,-25.5769 116.595,-18.6192"/>
</g>
</g>
</svg>
