<?xml version="1.0" encoding="UTF-8" standalone="no"?>
<!DOCTYPE svg PUBLIC "-//W3C//DTD SVG 1.1//EN"
 "http://www.w3.org/Graphics/SVG/1.1/DTD/svg11.dtd">
<!-- Generated by graphviz version 2.38.0 (20140413.2041)
 -->
<!-- Title: CConfigurableDomain::validate Pages: 1 -->
<svg width="302pt" height="116pt"
 viewBox="0.00 0.00 302.00 115.50" xmlns="http://www.w3.org/2000/svg" xmlns:xlink="http://www.w3.org/1999/xlink">
<g id="graph0" class="graph" transform="scale(1 1) rotate(0) translate(4 111.5)">
<title>CConfigurableDomain::validate</title>
<polygon fill="white" stroke="none" points="-4,4 -4,-111.5 298,-111.5 298,4 -4,4"/>
<!-- Node1 -->
<g id="node1" class="node"><title>Node1</title>
<polygon fill="#bfbfbf" stroke="black" points="0,-44.5 0,-74.5 121,-74.5 121,-44.5 0,-44.5"/>
<text text-anchor="start" x="8" y="-62.5" font-family="Verdana" font-size="10.00">CConfigurableDomain</text>
<text text-anchor="middle" x="60.5" y="-51.5" font-family="Verdana" font-size="10.00">::validate</text>
</g>
<!-- Node2 -->
<g id="node2" class="node"><title>Node2</title>
<g id="a_node2"><a xlink:href="classCElement.html#a58b6cdb5715497442fde6afa1e65f8e5" target="_top" xlink:title="CElement::getNbChildren">
<polygon fill="white" stroke="black" points="157,-88 157,-107 294,-107 294,-88 157,-88"/>
<text text-anchor="middle" x="225.5" y="-95" font-family="Verdana" font-size="10.00">CElement::getNbChildren</text>
</a>
</g>
</g>
<!-- Node1&#45;&gt;Node2 -->
<g id="edge1" class="edge"><title>Node1&#45;&gt;Node2</title>
<path fill="none" stroke="midnightblue" d="M121.27,-73.434C138.425,-77.4334 156.966,-81.7559 173.538,-85.6193"/>
<polygon fill="midnightblue" stroke="midnightblue" points="173.039,-89.0966 183.572,-87.9585 174.628,-82.2794 173.039,-89.0966"/>
</g>
<!-- Node3 -->
<g id="node3" class="node"><title>Node3</title>
<g id="a_node3"><a xlink:href="classCElement.html#aee0d626525e9cd24d7639b6365afdc16" target="_top" xlink:title="Get a child element (const) ">
<polygon fill="white" stroke="black" points="171.5,-50 171.5,-69 279.5,-69 279.5,-50 171.5,-50"/>
<text text-anchor="middle" x="225.5" y="-57" font-family="Verdana" font-size="10.00">CElement::getChild</text>
</a>
</g>
</g>
<!-- Node1&#45;&gt;Node3 -->
<g id="edge2" class="edge"><title>Node1&#45;&gt;Node3</title>
<path fill="none" stroke="midnightblue" d="M121.27,-59.5C134.246,-59.5 148.016,-59.5 161.126,-59.5"/>
<polygon fill="midnightblue" stroke="midnightblue" points="161.471,-63.0001 171.471,-59.5 161.471,-56.0001 161.471,-63.0001"/>
</g>
<!-- Node4 -->
<g id="node4" class="node"><title>Node4</title>
<g id="a_node4"><a xlink:href="classCDomainConfiguration.html#a10c3a1e0899400ecd23a90fb7dc4e4e6" target="_top" xlink:title="CDomainConfiguration\l::validate">
<polygon fill="white" stroke="black" points="163,-0.5 163,-30.5 288,-30.5 288,-0.5 163,-0.5"/>
<text text-anchor="start" x="171" y="-18.5" font-family="Verdana" font-size="10.00">CDomainConfiguration</text>
<text text-anchor="middle" x="225.5" y="-7.5" font-family="Verdana" font-size="10.00">::validate</text>
</a>
</g>
</g>
<!-- Node1&#45;&gt;Node4 -->
<g id="edge3" class="edge"><title>Node1&#45;&gt;Node4</title>
<path fill="none" stroke="midnightblue" d="M117.139,-44.4808C130.572,-40.8548 145.05,-36.9466 158.892,-33.2101"/>
<polygon fill="midnightblue" stroke="midnightblue" points="160.092,-36.5114 168.835,-30.5262 158.268,-29.7533 160.092,-36.5114"/>
</g>
</g>
</svg>
