<?xml version="1.0" encoding="UTF-8" standalone="no"?>
<!DOCTYPE svg PUBLIC "-//W3C//DTD SVG 1.1//EN"
 "http://www.w3.org/Graphics/SVG/1.1/DTD/svg11.dtd">
<!-- Generated by graphviz version 2.38.0 (20140413.2041)
 -->
<!-- Title: CFixedPointParameterType::fromBlackboard Pages: 1 -->
<svg width="332pt" height="88pt"
 viewBox="0.00 0.00 332.00 88.00" xmlns="http://www.w3.org/2000/svg" xmlns:xlink="http://www.w3.org/1999/xlink">
<g id="graph0" class="graph" transform="scale(1 1) rotate(0) translate(4 84)">
<title>CFixedPointParameterType::fromBlackboard</title>
<polygon fill="white" stroke="none" points="-4,4 -4,-84 328,-84 328,4 -4,4"/>
<!-- Node1 -->
<g id="node1" class="node"><title>Node1</title>
<polygon fill="#bfbfbf" stroke="black" points="0,-24.5 0,-54.5 143,-54.5 143,-24.5 0,-24.5"/>
<text text-anchor="start" x="8" y="-42.5" font-family="Verdana" font-size="10.00">CFixedPointParameterType</text>
<text text-anchor="middle" x="71.5" y="-31.5" font-family="Verdana" font-size="10.00">::fromBlackboard</text>
</g>
<!-- Node2 -->
<g id="node2" class="node"><title>Node2</title>
<g id="a_node2"><a xlink:href="classCParameterAccessContext.html#aa36964a7a0cc063c1a5589adb29ed5a7" target="_top" xlink:title="CParameterAccessContext\l::valueSpaceIsRaw">
<polygon fill="white" stroke="black" points="179,-49.5 179,-79.5 324,-79.5 324,-49.5 179,-49.5"/>
<text text-anchor="start" x="187" y="-67.5" font-family="Verdana" font-size="10.00">CParameterAccessContext</text>
<text text-anchor="middle" x="251.5" y="-56.5" font-family="Verdana" font-size="10.00">::valueSpaceIsRaw</text>
</a>
</g>
</g>
<!-- Node1&#45;&gt;Node2 -->
<g id="edge1" class="edge"><title>Node1&#45;&gt;Node2</title>
<path fill="none" stroke="midnightblue" d="M143.106,-49.4166C151.547,-50.6022 160.22,-51.8202 168.801,-53.0254"/>
<polygon fill="midnightblue" stroke="midnightblue" points="168.424,-56.5067 178.813,-54.4317 169.397,-49.5748 168.424,-56.5067"/>
</g>
<!-- Node3 -->
<g id="node3" class="node"><title>Node3</title>
<g id="a_node3"><a xlink:href="classCParameterAccessContext.html#adc2c2dabdfb9af278c0f5237ddcd3643" target="_top" xlink:title="Returns Output Raw Format for user get value interpretation. ">
<polygon fill="white" stroke="black" points="179,-0.5 179,-30.5 324,-30.5 324,-0.5 179,-0.5"/>
<text text-anchor="start" x="187" y="-18.5" font-family="Verdana" font-size="10.00">CParameterAccessContext</text>
<text text-anchor="middle" x="251.5" y="-7.5" font-family="Verdana" font-size="10.00">::outputRawFormatIsHex</text>
</a>
</g>
</g>
<!-- Node1&#45;&gt;Node3 -->
<g id="edge2" class="edge"><title>Node1&#45;&gt;Node3</title>
<path fill="none" stroke="midnightblue" d="M143.106,-29.9801C151.547,-28.8419 160.22,-27.6726 168.801,-26.5156"/>
<polygon fill="midnightblue" stroke="midnightblue" points="169.371,-29.9705 178.813,-25.1656 168.435,-23.0333 169.371,-29.9705"/>
</g>
</g>
</svg>
