<?xml version="1.0" encoding="UTF-8" standalone="no"?>
<!DOCTYPE svg PUBLIC "-//W3C//DTD SVG 1.1//EN"
 "http://www.w3.org/Graphics/SVG/1.1/DTD/svg11.dtd">
<!-- Generated by graphviz version 2.36.0 (20140111.2315)
 -->
<!-- Title: CParameterType::isEncodable Pages: 1 -->
<svg width="346pt" height="234pt"
 viewBox="0.00 0.00 346.00 234.00" xmlns="http://www.w3.org/2000/svg" xmlns:xlink="http://www.w3.org/1999/xlink">
<g id="graph0" class="graph" transform="scale(1 1) rotate(0) translate(4 230)">
<title>CParameterType::isEncodable</title>
<polygon fill="white" stroke="none" points="-4,4 -4,-230 342,-230 342,4 -4,4"/>
<!-- Node1 -->
<g id="node1" class="node"><title>Node1</title>
<polygon fill="#bfbfbf" stroke="black" points="0,-103.5 0,-122.5 158,-122.5 158,-103.5 0,-103.5"/>
<text text-anchor="middle" x="79" y="-110.5" font-family="Verdana" font-size="10.00">CParameterType::isEncodable</text>
</g>
<!-- Node2 -->
<g id="node2" class="node"><title>Node2</title>
<g id="a_node2"><a xlink:href="classCEnumParameterType.html#a843bba6b2e2b5b516b7939f8bc4641ab" target="_top" xlink:title="Conversion. ">
<polygon fill="white" stroke="black" points="205,-196 205,-226 327,-226 327,-196 205,-196"/>
<text text-anchor="start" x="213" y="-214" font-family="Verdana" font-size="10.00">CEnumParameterType</text>
<text text-anchor="middle" x="266" y="-203" font-family="Verdana" font-size="10.00">::toBlackboard</text>
</a>
</g>
</g>
<!-- Node1&#45;&gt;Node2 -->
<g id="edge1" class="edge"><title>Node1&#45;&gt;Node2</title>
<path fill="none" stroke="midnightblue" d="M101.1,-128.628C123.349,-144.59 159.844,-169.33 194,-186 201.399,-189.611 209.456,-192.959 217.399,-195.954"/>
<polygon fill="midnightblue" stroke="midnightblue" points="102.907,-125.615 92.7583,-122.574 98.796,-131.28 102.907,-125.615"/>
</g>
<!-- Node3 -->
<g id="node3" class="node"><title>Node3</title>
<g id="a_node3"><a xlink:href="classCFixedPointParameterType.html#a915d48511911653dc8ddf03cf39dc0ec" target="_top" xlink:title="CFixedPointParameterType\l::fromBlackboard">
<polygon fill="white" stroke="black" points="194.5,-147 194.5,-177 337.5,-177 337.5,-147 194.5,-147"/>
<text text-anchor="start" x="202.5" y="-165" font-family="Verdana" font-size="10.00">CFixedPointParameterType</text>
<text text-anchor="middle" x="266" y="-154" font-family="Verdana" font-size="10.00">::fromBlackboard</text>
</a>
</g>
</g>
<!-- Node1&#45;&gt;Node3 -->
<g id="edge2" class="edge"><title>Node1&#45;&gt;Node3</title>
<path fill="none" stroke="midnightblue" d="M126.022,-125.19C150.907,-131.781 181.856,-139.978 208.228,-146.963"/>
<polygon fill="midnightblue" stroke="midnightblue" points="126.672,-121.741 116.109,-122.564 124.88,-128.508 126.672,-121.741"/>
</g>
<!-- Node4 -->
<g id="node4" class="node"><title>Node4</title>
<g id="a_node4"><a xlink:href="classCFixedPointParameterType.html#aadca613bcd3e811718bbe3f0f63bd59f" target="_top" xlink:title="CFixedPointParameterType\l::toBlackboard">
<polygon fill="white" stroke="black" points="194.5,-98 194.5,-128 337.5,-128 337.5,-98 194.5,-98"/>
<text text-anchor="start" x="202.5" y="-116" font-family="Verdana" font-size="10.00">CFixedPointParameterType</text>
<text text-anchor="middle" x="266" y="-105" font-family="Verdana" font-size="10.00">::toBlackboard</text>
</a>
</g>
</g>
<!-- Node1&#45;&gt;Node4 -->
<g id="edge3" class="edge"><title>Node1&#45;&gt;Node4</title>
<path fill="none" stroke="midnightblue" d="M168.4,-113C177.133,-113 185.915,-113 194.434,-113"/>
<polygon fill="midnightblue" stroke="midnightblue" points="168.189,-109.5 158.189,-113 168.188,-116.5 168.189,-109.5"/>
</g>
<!-- Node5 -->
<g id="node5" class="node"><title>Node5</title>
<g id="a_node5"><a xlink:href="classCIntegerParameterType.html#aac12d359362c7ab46915cadb574bca76" target="_top" xlink:title="Conversion. ">
<polygon fill="white" stroke="black" points="202,-49 202,-79 330,-79 330,-49 202,-49"/>
<text text-anchor="start" x="210" y="-67" font-family="Verdana" font-size="10.00">CIntegerParameterType</text>
<text text-anchor="middle" x="266" y="-56" font-family="Verdana" font-size="10.00">::toBlackboard</text>
</a>
</g>
</g>
<!-- Node1&#45;&gt;Node5 -->
<g id="edge4" class="edge"><title>Node1&#45;&gt;Node5</title>
<path fill="none" stroke="midnightblue" d="M126.022,-100.81C150.907,-94.2192 181.856,-86.0218 208.228,-79.037"/>
<polygon fill="midnightblue" stroke="midnightblue" points="124.88,-97.4922 116.109,-103.436 126.672,-104.259 124.88,-97.4922"/>
</g>
<!-- Node6 -->
<g id="node6" class="node"><title>Node6</title>
<g id="a_node6"><a xlink:href="classCIntegerParameterType.html#a20f5eb6c8e4cea3d1f0ccdb92e1d008c" target="_top" xlink:title="CIntegerParameterType\l::fromBlackboard">
<polygon fill="white" stroke="black" points="202,-0 202,-30 330,-30 330,-0 202,-0"/>
<text text-anchor="start" x="210" y="-18" font-family="Verdana" font-size="10.00">CIntegerParameterType</text>
<text text-anchor="middle" x="266" y="-7" font-family="Verdana" font-size="10.00">::fromBlackboard</text>
</a>
</g>
</g>
<!-- Node1&#45;&gt;Node6 -->
<g id="edge5" class="edge"><title>Node1&#45;&gt;Node6</title>
<path fill="none" stroke="midnightblue" d="M101.1,-97.3723C123.349,-81.4105 159.844,-56.6704 194,-40 201.399,-36.3889 209.456,-33.0411 217.399,-30.0456"/>
<polygon fill="midnightblue" stroke="midnightblue" points="98.796,-94.7197 92.7583,-103.426 102.907,-100.385 98.796,-94.7197"/>
</g>
</g>
</svg>
