<?xml version="1.0" encoding="UTF-8" standalone="no"?>
<!DOCTYPE svg PUBLIC "-//W3C//DTD SVG 1.1//EN"
 "http://www.w3.org/Graphics/SVG/1.1/DTD/svg11.dtd">
<!-- Generated by graphviz version 2.38.0 (20140413.2041)
 -->
<!-- Title: CConfigurableDomains::deleteDomain Pages: 1 -->
<svg width="527pt" height="39pt"
 viewBox="0.00 0.00 527.00 39.00" xmlns="http://www.w3.org/2000/svg" xmlns:xlink="http://www.w3.org/1999/xlink">
<g id="graph0" class="graph" transform="scale(1 1) rotate(0) translate(4 35)">
<title>CConfigurableDomains::deleteDomain</title>
<polygon fill="white" stroke="none" points="-4,4 -4,-35 523,-35 523,4 -4,4"/>
<!-- Node1 -->
<g id="node1" class="node"><title>Node1</title>
<polygon fill="#bfbfbf" stroke="black" points="0,-0.5 0,-30.5 126,-30.5 126,-0.5 0,-0.5"/>
<text text-anchor="start" x="8" y="-18.5" font-family="Verdana" font-size="10.00">CConfigurableDomains</text>
<text text-anchor="middle" x="63" y="-7.5" font-family="Verdana" font-size="10.00">::deleteDomain</text>
</g>
<!-- Node2 -->
<g id="node2" class="node"><title>Node2</title>
<g id="a_node2"><a xlink:href="classCParameterMgr.html#a9981826546c533325941986134d8bbfa" target="_top" xlink:title="CParameterMgr::deleteDomain">
<polygon fill="white" stroke="black" points="162,-6 162,-25 327,-25 327,-6 162,-6"/>
<text text-anchor="middle" x="244.5" y="-13" font-family="Verdana" font-size="10.00">CParameterMgr::deleteDomain</text>
</a>
</g>
</g>
<!-- Node1&#45;&gt;Node2 -->
<g id="edge1" class="edge"><title>Node1&#45;&gt;Node2</title>
<path fill="none" stroke="midnightblue" d="M136.192,-15.5C144.632,-15.5 153.288,-15.5 161.845,-15.5"/>
<polygon fill="midnightblue" stroke="midnightblue" points="136.025,-12.0001 126.025,-15.5 136.025,-19.0001 136.025,-12.0001"/>
</g>
<!-- Node3 -->
<g id="node3" class="node"><title>Node3</title>
<g id="a_node3"><a xlink:href="classCParameterMgrFullConnector.html#afa596fa04ce0da764cebdc6a4e2aec12" target="_top" xlink:title="CParameterMgrFullConnector\l::deleteDomain">
<polygon fill="white" stroke="black" points="363,-0.5 363,-30.5 519,-30.5 519,-0.5 363,-0.5"/>
<text text-anchor="start" x="371" y="-18.5" font-family="Verdana" font-size="10.00">CParameterMgrFullConnector</text>
<text text-anchor="middle" x="441" y="-7.5" font-family="Verdana" font-size="10.00">::deleteDomain</text>
</a>
</g>
</g>
<!-- Node2&#45;&gt;Node3 -->
<g id="edge2" class="edge"><title>Node2&#45;&gt;Node3</title>
<path fill="none" stroke="midnightblue" d="M337.199,-15.5C345.804,-15.5 354.467,-15.5 362.918,-15.5"/>
<polygon fill="midnightblue" stroke="midnightblue" points="337.14,-12.0001 327.14,-15.5 337.14,-19.0001 337.14,-12.0001"/>
</g>
</g>
</svg>
