<?xml version="1.0" encoding="UTF-8" standalone="no"?>
<!DOCTYPE svg PUBLIC "-//W3C//DTD SVG 1.1//EN"
 "http://www.w3.org/Graphics/SVG/1.1/DTD/svg11.dtd">
<!-- Generated by graphviz version 2.38.0 (20140413.2041)
 -->
<!-- Title: CElement::setXmlDescriptionAttribute Pages: 1 -->
<svg width="344pt" height="66pt"
 viewBox="0.00 0.00 344.00 66.00" xmlns="http://www.w3.org/2000/svg" xmlns:xlink="http://www.w3.org/1999/xlink">
<g id="graph0" class="graph" transform="scale(1 1) rotate(0) translate(4 62)">
<title>CElement::setXmlDescriptionAttribute</title>
<polygon fill="white" stroke="none" points="-4,4 -4,-62 340,-62 340,4 -4,4"/>
<!-- Node1 -->
<g id="node1" class="node"><title>Node1</title>
<polygon fill="#bfbfbf" stroke="black" points="0,-14 0,-44 156,-44 156,-14 0,-14"/>
<text text-anchor="start" x="8" y="-32" font-family="Verdana" font-size="10.00">CElement::setXmlDescription</text>
<text text-anchor="middle" x="78" y="-21" font-family="Verdana" font-size="10.00">Attribute</text>
</g>
<!-- Node2 -->
<g id="node2" class="node"><title>Node2</title>
<g id="a_node2"><a xlink:href="classCElement.html#a83c3c6e07b015c44706edf4bb8fc41c2" target="_top" xlink:title="CElement::getDescription">
<polygon fill="white" stroke="black" points="194.5,-38.5 194.5,-57.5 333.5,-57.5 333.5,-38.5 194.5,-38.5"/>
<text text-anchor="middle" x="264" y="-45.5" font-family="Verdana" font-size="10.00">CElement::getDescription</text>
</a>
</g>
</g>
<!-- Node1&#45;&gt;Node2 -->
<g id="edge1" class="edge"><title>Node1&#45;&gt;Node2</title>
<path fill="none" stroke="midnightblue" d="M156.233,-36.9751C165.55,-37.9372 175.074,-38.9207 184.41,-39.8847"/>
<polygon fill="midnightblue" stroke="midnightblue" points="184.141,-43.3755 194.448,-40.9213 184.86,-36.4125 184.141,-43.3755"/>
</g>
<!-- Node3 -->
<g id="node3" class="node"><title>Node3</title>
<g id="a_node3"><a xlink:href="classCXmlElement.html#ac5f4a8f3f29497167af496dccb7fa846" target="_top" xlink:title="Set attribute. ">
<polygon fill="white" stroke="black" points="192,-0.5 192,-19.5 336,-19.5 336,-0.5 192,-0.5"/>
<text text-anchor="middle" x="264" y="-7.5" font-family="Verdana" font-size="10.00">CXmlElement::setAttribute</text>
</a>
</g>
</g>
<!-- Node1&#45;&gt;Node3 -->
<g id="edge2" class="edge"><title>Node1&#45;&gt;Node3</title>
<path fill="none" stroke="midnightblue" d="M156.233,-21.0249C164.623,-20.1585 173.181,-19.2747 181.619,-18.4035"/>
<polygon fill="midnightblue" stroke="midnightblue" points="182.244,-21.8576 191.832,-17.3489 181.525,-14.8946 182.244,-21.8576"/>
</g>
</g>
</svg>
