<?xml version="1.0" encoding="UTF-8" standalone="no"?>
<!DOCTYPE svg PUBLIC "-//W3C//DTD SVG 1.1//EN"
 "http://www.w3.org/Graphics/SVG/1.1/DTD/svg11.dtd">
<!-- Generated by graphviz version 2.38.0 (20140413.2041)
 -->
<!-- Title: CParameterMgrFullConnector::importSingleDomainXml Pages: 1 -->
<svg width="1193pt" height="154pt"
 viewBox="0.00 0.00 1193.00 154.00" xmlns="http://www.w3.org/2000/svg" xmlns:xlink="http://www.w3.org/1999/xlink">
<g id="graph0" class="graph" transform="scale(1 1) rotate(0) translate(4 150)">
<title>CParameterMgrFullConnector::importSingleDomainXml</title>
<polygon fill="white" stroke="none" points="-4,4 -4,-150 1189,-150 1189,4 -4,4"/>
<!-- Node1 -->
<g id="node1" class="node"><title>Node1</title>
<polygon fill="#bfbfbf" stroke="black" points="0,-61 0,-91 156,-91 156,-61 0,-61"/>
<text text-anchor="start" x="8" y="-79" font-family="Verdana" font-size="10.00">CParameterMgrFullConnector</text>
<text text-anchor="middle" x="78" y="-68" font-family="Verdana" font-size="10.00">::importSingleDomainXml</text>
</g>
<!-- Node2 -->
<g id="node2" class="node"><title>Node2</title>
<g id="a_node2"><a xlink:href="classCParameterMgrFullConnector.html#aabb2c632ebbc334427a78b51225082c4" target="_top" xlink:title="Method that imports a single Configurable Domain from an Xml source. ">
<polygon fill="white" stroke="black" points="192,-61 192,-91 348,-91 348,-61 192,-61"/>
<text text-anchor="start" x="200" y="-79" font-family="Verdana" font-size="10.00">CParameterMgrFullConnector</text>
<text text-anchor="middle" x="270" y="-68" font-family="Verdana" font-size="10.00">::importSingleDomainXml</text>
</a>
</g>
</g>
<!-- Node1&#45;&gt;Node2 -->
<g id="edge1" class="edge"><title>Node1&#45;&gt;Node2</title>
<path fill="none" stroke="midnightblue" d="M156.006,-76C164.509,-76 173.211,-76 181.827,-76"/>
<polygon fill="midnightblue" stroke="midnightblue" points="181.884,-79.5001 191.884,-76 181.884,-72.5001 181.884,-79.5001"/>
</g>
<!-- Node3 -->
<g id="node3" class="node"><title>Node3</title>
<g id="a_node3"><a xlink:href="classCParameterMgr.html#a3b70c39ad6c10dfb6635f60e49f1c797" target="_top" xlink:title="Method that imports a single Configurable Domain from an Xml source. ">
<polygon fill="white" stroke="black" points="384,-61 384,-91 542,-91 542,-61 384,-61"/>
<text text-anchor="start" x="392" y="-79" font-family="Verdana" font-size="10.00">CParameterMgr::importSingle</text>
<text text-anchor="middle" x="463" y="-68" font-family="Verdana" font-size="10.00">DomainXml</text>
</a>
</g>
</g>
<!-- Node2&#45;&gt;Node3 -->
<g id="edge2" class="edge"><title>Node2&#45;&gt;Node3</title>
<path fill="none" stroke="midnightblue" d="M348.136,-76C356.62,-76 365.304,-76 373.908,-76"/>
<polygon fill="midnightblue" stroke="midnightblue" points="373.954,-79.5001 383.954,-76 373.954,-72.5001 373.954,-79.5001"/>
</g>
<!-- Node4 -->
<g id="node4" class="node"><title>Node4</title>
<g id="a_node4"><a xlink:href="classCConfigurableDomains.html#a35d3b509ee35cb374fc7a2d1b678c203" target="_top" xlink:title="CConfigurableDomains\l::addDomain">
<polygon fill="white" stroke="black" points="578,-61 578,-91 704,-91 704,-61 578,-61"/>
<text text-anchor="start" x="586" y="-79" font-family="Verdana" font-size="10.00">CConfigurableDomains</text>
<text text-anchor="middle" x="641" y="-68" font-family="Verdana" font-size="10.00">::addDomain</text>
</a>
</g>
</g>
<!-- Node3&#45;&gt;Node4 -->
<g id="edge3" class="edge"><title>Node3&#45;&gt;Node4</title>
<path fill="none" stroke="midnightblue" d="M542.221,-76C550.706,-76 559.314,-76 567.724,-76"/>
<polygon fill="midnightblue" stroke="midnightblue" points="567.862,-79.5001 577.862,-76 567.862,-72.5001 567.862,-79.5001"/>
</g>
<!-- Node5 -->
<g id="node5" class="node"><title>Node5</title>
<g id="a_node5"><a xlink:href="classCElement.html#a49581fb6412e29e932962acd82d52d6a" target="_top" xlink:title="CElement::getName">
<polygon fill="white" stroke="black" points="746,-126.5 746,-145.5 860,-145.5 860,-126.5 746,-126.5"/>
<text text-anchor="middle" x="803" y="-133.5" font-family="Verdana" font-size="10.00">CElement::getName</text>
</a>
</g>
</g>
<!-- Node4&#45;&gt;Node5 -->
<g id="edge4" class="edge"><title>Node4&#45;&gt;Node5</title>
<path fill="none" stroke="midnightblue" d="M682.375,-91.1405C708.527,-100.948 742.238,-113.589 767.205,-122.952"/>
<polygon fill="midnightblue" stroke="midnightblue" points="766.055,-126.259 776.648,-126.493 768.513,-119.704 766.055,-126.259"/>
</g>
<!-- Node6 -->
<g id="node6" class="node"><title>Node6</title>
<g id="a_node6"><a xlink:href="classCConfigurableDomains.html#a4dce38a1560b6e33871d3fa2d85cc449" target="_top" xlink:title="CConfigurableDomains\l::findConfigurableDomain">
<polygon fill="white" stroke="black" points="902,-61 902,-91 1039,-91 1039,-61 902,-61"/>
<text text-anchor="start" x="910" y="-79" font-family="Verdana" font-size="10.00">CConfigurableDomains</text>
<text text-anchor="middle" x="970.5" y="-68" font-family="Verdana" font-size="10.00">::findConfigurableDomain</text>
</a>
</g>
</g>
<!-- Node4&#45;&gt;Node6 -->
<g id="edge5" class="edge"><title>Node4&#45;&gt;Node6</title>
<path fill="none" stroke="midnightblue" d="M704.205,-78.1909C716.087,-78.5282 728.426,-78.8229 740,-79 795.993,-79.8568 810.006,-79.8113 866,-79 874.333,-78.8793 883.042,-78.7039 891.718,-78.4976"/>
<polygon fill="midnightblue" stroke="midnightblue" points="891.953,-81.9929 901.862,-78.2426 891.777,-74.9951 891.953,-81.9929"/>
</g>
<!-- Node8 -->
<g id="node8" class="node"><title>Node8</title>
<g id="a_node8"><a xlink:href="classCConfigurableDomains.html#a26ae82c8fd65751062ea4fcffa69944f" target="_top" xlink:title="Delete a domain by name. ">
<polygon fill="white" stroke="black" points="740,-39 740,-69 866,-69 866,-39 740,-39"/>
<text text-anchor="start" x="748" y="-57" font-family="Verdana" font-size="10.00">CConfigurableDomains</text>
<text text-anchor="middle" x="803" y="-46" font-family="Verdana" font-size="10.00">::deleteDomain</text>
</a>
</g>
</g>
<!-- Node4&#45;&gt;Node8 -->
<g id="edge7" class="edge"><title>Node4&#45;&gt;Node8</title>
<path fill="none" stroke="midnightblue" d="M704.318,-67.4312C712.706,-66.2779 721.367,-65.087 729.907,-63.9129"/>
<polygon fill="midnightblue" stroke="midnightblue" points="730.422,-67.375 739.852,-62.5454 729.468,-60.4403 730.422,-67.375"/>
</g>
<!-- Node9 -->
<g id="node9" class="node"><title>Node9</title>
<g id="a_node9"><a xlink:href="classCElement.html#ac2ad66ee438a4a0c1390b7388874fe72" target="_top" xlink:title="CElement::addChild">
<polygon fill="white" stroke="black" points="748,-0.5 748,-19.5 858,-19.5 858,-0.5 748,-0.5"/>
<text text-anchor="middle" x="803" y="-7.5" font-family="Verdana" font-size="10.00">CElement::addChild</text>
</a>
</g>
</g>
<!-- Node4&#45;&gt;Node9 -->
<g id="edge9" class="edge"><title>Node4&#45;&gt;Node9</title>
<path fill="none" stroke="midnightblue" d="M671.593,-60.9083C690.817,-51.4057 716.569,-39.2352 740,-30 746.433,-27.4643 753.33,-24.999 760.102,-22.7151"/>
<polygon fill="midnightblue" stroke="midnightblue" points="761.456,-25.9547 769.866,-19.5117 759.273,-19.3036 761.456,-25.9547"/>
</g>
<!-- Node7 -->
<g id="node7" class="node"><title>Node7</title>
<g id="a_node7"><a xlink:href="classCElement.html#a8595814a3159f32f874269907e70b260" target="_top" xlink:title="CElement::findChild">
<polygon fill="white" stroke="black" points="1075,-66.5 1075,-85.5 1185,-85.5 1185,-66.5 1075,-66.5"/>
<text text-anchor="middle" x="1130" y="-73.5" font-family="Verdana" font-size="10.00">CElement::findChild</text>
</a>
</g>
</g>
<!-- Node6&#45;&gt;Node7 -->
<g id="edge6" class="edge"><title>Node6&#45;&gt;Node7</title>
<path fill="none" stroke="midnightblue" d="M1039.21,-76C1047.63,-76 1056.21,-76 1064.58,-76"/>
<polygon fill="midnightblue" stroke="midnightblue" points="1064.65,-79.5001 1074.65,-76 1064.65,-72.5001 1064.65,-79.5001"/>
</g>
<!-- Node8&#45;&gt;Node6 -->
<g id="edge8" class="edge"><title>Node8&#45;&gt;Node6</title>
<path fill="none" stroke="midnightblue" d="M866.097,-62.2546C874.469,-63.3675 883.143,-64.5205 891.745,-65.6639"/>
<polygon fill="midnightblue" stroke="midnightblue" points="891.413,-69.1505 901.787,-66.9988 892.335,-62.2115 891.413,-69.1505"/>
</g>
</g>
</svg>
