<?xml version="1.0" encoding="UTF-8" standalone="no"?>
<!DOCTYPE svg PUBLIC "-//W3C//DTD SVG 1.1//EN"
 "http://www.w3.org/Graphics/SVG/1.1/DTD/svg11.dtd">
<!-- Generated by graphviz version 2.38.0 (20140413.2041)
 -->
<!-- Title: CConfigurableDomains::clearApplicationRule Pages: 1 -->
<svg width="555pt" height="39pt"
 viewBox="0.00 0.00 555.00 39.00" xmlns="http://www.w3.org/2000/svg" xmlns:xlink="http://www.w3.org/1999/xlink">
<g id="graph0" class="graph" transform="scale(1 1) rotate(0) translate(4 35)">
<title>CConfigurableDomains::clearApplicationRule</title>
<polygon fill="white" stroke="none" points="-4,4 -4,-35 551,-35 551,4 -4,4"/>
<!-- Node1 -->
<g id="node1" class="node"><title>Node1</title>
<polygon fill="#bfbfbf" stroke="black" points="0,-0.5 0,-30.5 126,-30.5 126,-0.5 0,-0.5"/>
<text text-anchor="start" x="8" y="-18.5" font-family="Verdana" font-size="10.00">CConfigurableDomains</text>
<text text-anchor="middle" x="63" y="-7.5" font-family="Verdana" font-size="10.00">::clearApplicationRule</text>
</g>
<!-- Node2 -->
<g id="node2" class="node"><title>Node2</title>
<g id="a_node2"><a xlink:href="classCParameterMgr.html#a5773905f5b49566fca22f6f30d0d9d54" target="_top" xlink:title="CParameterMgr::clearApplicationRule">
<polygon fill="white" stroke="black" points="162,-6 162,-25 355,-25 355,-6 162,-6"/>
<text text-anchor="middle" x="258.5" y="-13" font-family="Verdana" font-size="10.00">CParameterMgr::clearApplicationRule</text>
</a>
</g>
</g>
<!-- Node1&#45;&gt;Node2 -->
<g id="edge1" class="edge"><title>Node1&#45;&gt;Node2</title>
<path fill="none" stroke="midnightblue" d="M136.163,-15.5C144.6,-15.5 153.304,-15.5 161.994,-15.5"/>
<polygon fill="midnightblue" stroke="midnightblue" points="136.023,-12.0001 126.023,-15.5 136.023,-19.0001 136.023,-12.0001"/>
</g>
<!-- Node3 -->
<g id="node3" class="node"><title>Node3</title>
<g id="a_node3"><a xlink:href="classCParameterMgrFullConnector.html#a3d00f6662f3e9bcc9fc66c703585e7dd" target="_top" xlink:title="CParameterMgrFullConnector\l::clearApplicationRule">
<polygon fill="white" stroke="black" points="391,-0.5 391,-30.5 547,-30.5 547,-0.5 391,-0.5"/>
<text text-anchor="start" x="399" y="-18.5" font-family="Verdana" font-size="10.00">CParameterMgrFullConnector</text>
<text text-anchor="middle" x="469" y="-7.5" font-family="Verdana" font-size="10.00">::clearApplicationRule</text>
</a>
</g>
</g>
<!-- Node2&#45;&gt;Node3 -->
<g id="edge2" class="edge"><title>Node2&#45;&gt;Node3</title>
<path fill="none" stroke="midnightblue" d="M365.345,-15.5C373.988,-15.5 382.616,-15.5 390.992,-15.5"/>
<polygon fill="midnightblue" stroke="midnightblue" points="365.207,-12.0001 355.207,-15.5 365.207,-19.0001 365.207,-12.0001"/>
</g>
</g>
</svg>
