<?xml version="1.0" encoding="UTF-8" standalone="no"?>
<!DOCTYPE svg PUBLIC "-//W3C//DTD SVG 1.1//EN"
 "http://www.w3.org/Graphics/SVG/1.1/DTD/svg11.dtd">
<!-- Generated by graphviz version 2.36.0 (20140111.2315)
 -->
<!-- Title: CFixedPointParameterType::handleValueSpaceAttribute Pages: 1 -->
<svg width="356pt" height="136pt"
 viewBox="0.00 0.00 356.00 136.00" xmlns="http://www.w3.org/2000/svg" xmlns:xlink="http://www.w3.org/1999/xlink">
<g id="graph0" class="graph" transform="scale(1 1) rotate(0) translate(4 132)">
<title>CFixedPointParameterType::handleValueSpaceAttribute</title>
<polygon fill="white" stroke="none" points="-4,4 -4,-132 352,-132 352,4 -4,4"/>
<!-- Node1 -->
<g id="node1" class="node"><title>Node1</title>
<polygon fill="#bfbfbf" stroke="black" points="0.5,-49 0.5,-79 153.5,-79 153.5,-49 0.5,-49"/>
<text text-anchor="start" x="8.5" y="-67" font-family="Verdana" font-size="10.00">CFixedPointParameterType</text>
<text text-anchor="middle" x="77" y="-56" font-family="Verdana" font-size="10.00">::handleValueSpaceAttribute</text>
</g>
<!-- Node2 -->
<g id="node2" class="node"><title>Node2</title>
<g id="a_node2"><a xlink:href="classCConfigurationAccessContext.html#ac0a975afc840488e5e82345441de56cc" target="_top" xlink:title="CConfigurationAccessContext\l::serializeOut">
<polygon fill="white" stroke="black" points="190,-98 190,-128 348,-128 348,-98 190,-98"/>
<text text-anchor="start" x="198" y="-116" font-family="Verdana" font-size="10.00">CConfigurationAccessContext</text>
<text text-anchor="middle" x="269" y="-105" font-family="Verdana" font-size="10.00">::serializeOut</text>
</a>
</g>
</g>
<!-- Node1&#45;&gt;Node2 -->
<g id="edge1" class="edge"><title>Node1&#45;&gt;Node2</title>
<path fill="none" stroke="midnightblue" d="M136.297,-79.0346C156.45,-84.2318 179.206,-90.1006 200.064,-95.4796"/>
<polygon fill="midnightblue" stroke="midnightblue" points="199.256,-98.8856 209.813,-97.9938 201.004,-92.1074 199.256,-98.8856"/>
</g>
<!-- Node3 -->
<g id="node3" class="node"><title>Node3</title>
<g id="a_node3"><a xlink:href="classCParameterAccessContext.html#a506d83c2a6d876c61a3a21880f3302da" target="_top" xlink:title="CParameterAccessContext\l::setValueSpaceRaw">
<polygon fill="white" stroke="black" points="196.5,-49 196.5,-79 341.5,-79 341.5,-49 196.5,-49"/>
<text text-anchor="start" x="204.5" y="-67" font-family="Verdana" font-size="10.00">CParameterAccessContext</text>
<text text-anchor="middle" x="269" y="-56" font-family="Verdana" font-size="10.00">::setValueSpaceRaw</text>
</a>
</g>
</g>
<!-- Node1&#45;&gt;Node3 -->
<g id="edge2" class="edge"><title>Node1&#45;&gt;Node3</title>
<path fill="none" stroke="midnightblue" d="M153.639,-64C164.305,-64 175.31,-64 186.087,-64"/>
<polygon fill="midnightblue" stroke="midnightblue" points="186.33,-67.5001 196.33,-64 186.33,-60.5001 186.33,-67.5001"/>
</g>
<!-- Node4 -->
<g id="node4" class="node"><title>Node4</title>
<g id="a_node4"><a xlink:href="classCParameterAccessContext.html#aa36964a7a0cc063c1a5589adb29ed5a7" target="_top" xlink:title="CParameterAccessContext\l::valueSpaceIsRaw">
<polygon fill="white" stroke="black" points="196.5,-0 196.5,-30 341.5,-30 341.5,-0 196.5,-0"/>
<text text-anchor="start" x="204.5" y="-18" font-family="Verdana" font-size="10.00">CParameterAccessContext</text>
<text text-anchor="middle" x="269" y="-7" font-family="Verdana" font-size="10.00">::valueSpaceIsRaw</text>
</a>
</g>
</g>
<!-- Node1&#45;&gt;Node4 -->
<g id="edge3" class="edge"><title>Node1&#45;&gt;Node4</title>
<path fill="none" stroke="midnightblue" d="M136.297,-48.9654C156.45,-43.7682 179.206,-37.8994 200.064,-32.5204"/>
<polygon fill="midnightblue" stroke="midnightblue" points="201.004,-35.8926 209.813,-30.0062 199.256,-29.1144 201.004,-35.8926"/>
</g>
</g>
</svg>
