<?xml version="1.0" encoding="UTF-8" standalone="no"?>
<!DOCTYPE svg PUBLIC "-//W3C//DTD SVG 1.1//EN"
 "http://www.w3.org/Graphics/SVG/1.1/DTD/svg11.dtd">
<!-- Generated by graphviz version 2.38.0 (20140413.2041)
 -->
<!-- Title: CMappingData::asString Pages: 1 -->
<svg width="533pt" height="112pt"
 viewBox="0.00 0.00 533.00 112.00" xmlns="http://www.w3.org/2000/svg" xmlns:xlink="http://www.w3.org/1999/xlink">
<g id="graph0" class="graph" transform="scale(1 1) rotate(0) translate(4 108)">
<title>CMappingData::asString</title>
<polygon fill="white" stroke="none" points="-4,4 -4,-108 529,-108 529,4 -4,4"/>
<!-- Node1 -->
<g id="node1" class="node"><title>Node1</title>
<polygon fill="#bfbfbf" stroke="black" points="0,-54 0,-73 133,-73 133,-54 0,-54"/>
<text text-anchor="middle" x="66.5" y="-61" font-family="Verdana" font-size="10.00">CMappingData::asString</text>
</g>
<!-- Node2 -->
<g id="node2" class="node"><title>Node2</title>
<g id="a_node2"><a xlink:href="classCSubsystem.html#aaa99a1a9086fa9a7dc62b72afb5e784a" target="_top" xlink:title="Get the string representation of the mapping. ">
<polygon fill="white" stroke="black" points="172.5,-73.5 172.5,-103.5 321.5,-103.5 321.5,-73.5 172.5,-73.5"/>
<text text-anchor="start" x="180.5" y="-91.5" font-family="Verdana" font-size="10.00">CSubsystem::getFormatted</text>
<text text-anchor="middle" x="247" y="-80.5" font-family="Verdana" font-size="10.00">Mapping</text>
</a>
</g>
</g>
<!-- Node1&#45;&gt;Node2 -->
<g id="edge1" class="edge"><title>Node1&#45;&gt;Node2</title>
<path fill="none" stroke="midnightblue" d="M143.165,-74.0974C152.816,-75.449 162.683,-76.831 172.302,-78.1782"/>
<polygon fill="midnightblue" stroke="midnightblue" points="143.595,-70.6235 133.206,-72.7026 142.624,-77.5558 143.595,-70.6235"/>
</g>
<!-- Node3 -->
<g id="node3" class="node"><title>Node3</title>
<g id="a_node3"><a xlink:href="classCTypeElement.html#a2d4fd9d4443f521e563ef1b6188aeeba" target="_top" xlink:title="Returns the mapping associated to the current TypeElement instance. ">
<polygon fill="white" stroke="black" points="169,-24.5 169,-54.5 325,-54.5 325,-24.5 169,-24.5"/>
<text text-anchor="start" x="177" y="-42.5" font-family="Verdana" font-size="10.00">CTypeElement::getFormatted</text>
<text text-anchor="middle" x="247" y="-31.5" font-family="Verdana" font-size="10.00">Mapping</text>
</a>
</g>
</g>
<!-- Node1&#45;&gt;Node3 -->
<g id="edge2" class="edge"><title>Node1&#45;&gt;Node3</title>
<path fill="none" stroke="midnightblue" d="M143.137,-53.3304C151.679,-52.1818 160.392,-51.0104 168.952,-49.8594"/>
<polygon fill="midnightblue" stroke="midnightblue" points="142.651,-49.8641 133.206,-54.6655 143.584,-56.8017 142.651,-49.8641"/>
</g>
<!-- Node4 -->
<g id="node4" class="node"><title>Node4</title>
<g id="a_node4"><a xlink:href="classCInstanceConfigurableElement.html#a67d39595d62a9490423bc4e88d8d8e65" target="_top" xlink:title="Returns the mapping data associated to the type element of the current InstanceConfigurableElement, as a formatted std::string. ">
<polygon fill="white" stroke="black" points="361,-49.5 361,-79.5 525,-79.5 525,-49.5 361,-49.5"/>
<text text-anchor="start" x="369" y="-67.5" font-family="Verdana" font-size="10.00">CInstanceConfigurableElement</text>
<text text-anchor="middle" x="443" y="-56.5" font-family="Verdana" font-size="10.00">::getFormattedMapping</text>
</a>
</g>
</g>
<!-- Node3&#45;&gt;Node4 -->
<g id="edge3" class="edge"><title>Node3&#45;&gt;Node4</title>
<path fill="none" stroke="midnightblue" d="M335.207,-50.738C343.759,-51.84 352.413,-52.9552 360.9,-54.049"/>
<polygon fill="midnightblue" stroke="midnightblue" points="335.597,-47.2594 325.231,-49.4525 334.702,-54.202 335.597,-47.2594"/>
</g>
<!-- Node5 -->
<g id="node5" class="node"><title>Node5</title>
<g id="a_node5"><a xlink:href="classCTypeElement.html#a6493eec6c6403417a232f9abd81b992b" target="_top" xlink:title="the mapping associated to the current type and its predecessor ">
<polygon fill="white" stroke="black" points="365,-0.5 365,-30.5 521,-30.5 521,-0.5 365,-0.5"/>
<text text-anchor="start" x="373" y="-18.5" font-family="Verdana" font-size="10.00">CTypeElement::getFormatted</text>
<text text-anchor="middle" x="443" y="-7.5" font-family="Verdana" font-size="10.00">Mapping</text>
</a>
</g>
</g>
<!-- Node3&#45;&gt;Node5 -->
<g id="edge4" class="edge"><title>Node3&#45;&gt;Node5</title>
<path fill="none" stroke="midnightblue" d="M335.365,-28.6919C345.152,-27.4812 355.07,-26.2542 364.717,-25.0607"/>
<polygon fill="midnightblue" stroke="midnightblue" points="334.726,-25.2442 325.231,-29.9456 335.585,-32.1913 334.726,-25.2442"/>
</g>
</g>
</svg>
