<?xml version="1.0" encoding="UTF-8" standalone="no"?>
<!DOCTYPE svg PUBLIC "-//W3C//DTD SVG 1.1//EN"
 "http://www.w3.org/Graphics/SVG/1.1/DTD/svg11.dtd">
<!-- Generated by graphviz version 2.36.0 (20140111.2315)
 -->
<!-- Title: CConfigurableDomains::listDomains Pages: 1 -->
<svg width="308pt" height="153pt"
 viewBox="0.00 0.00 308.00 153.00" xmlns="http://www.w3.org/2000/svg" xmlns:xlink="http://www.w3.org/1999/xlink">
<g id="graph0" class="graph" transform="scale(1 1) rotate(0) translate(4 149)">
<title>CConfigurableDomains::listDomains</title>
<polygon fill="white" stroke="none" points="-4,4 -4,-149 304,-149 304,4 -4,4"/>
<!-- Node1 -->
<g id="node1" class="node"><title>Node1</title>
<polygon fill="#bfbfbf" stroke="black" points="0,-63 0,-93 126,-93 126,-63 0,-63"/>
<text text-anchor="start" x="8" y="-81" font-family="Verdana" font-size="10.00">CConfigurableDomains</text>
<text text-anchor="middle" x="63" y="-70" font-family="Verdana" font-size="10.00">::listDomains</text>
</g>
<!-- Node2 -->
<g id="node2" class="node"><title>Node2</title>
<g id="a_node2"><a xlink:href="classCElement.html#a58b6cdb5715497442fde6afa1e65f8e5" target="_top" xlink:title="CElement::getNbChildren">
<polygon fill="white" stroke="black" points="162.5,-125.5 162.5,-144.5 299.5,-144.5 299.5,-125.5 162.5,-125.5"/>
<text text-anchor="middle" x="231" y="-132.5" font-family="Verdana" font-size="10.00">CElement::getNbChildren</text>
</a>
</g>
</g>
<!-- Node1&#45;&gt;Node2 -->
<g id="edge1" class="edge"><title>Node1&#45;&gt;Node2</title>
<path fill="none" stroke="midnightblue" d="M100.456,-93.1107C118.771,-100.452 141.395,-109.145 162,-116 168.957,-118.315 176.375,-120.585 183.659,-122.705"/>
<polygon fill="midnightblue" stroke="midnightblue" points="182.876,-126.121 193.452,-125.493 184.793,-119.389 182.876,-126.121"/>
</g>
<!-- Node3 -->
<g id="node3" class="node"><title>Node3</title>
<g id="a_node3"><a xlink:href="classCElement.html#a9bba10d2dc72821589a898e16ace9ae5" target="_top" xlink:title="Get a child element (const) ">
<polygon fill="white" stroke="black" points="177,-87.5 177,-106.5 285,-106.5 285,-87.5 177,-87.5"/>
<text text-anchor="middle" x="231" y="-94.5" font-family="Verdana" font-size="10.00">CElement::getChild</text>
</a>
</g>
</g>
<!-- Node1&#45;&gt;Node3 -->
<g id="edge2" class="edge"><title>Node1&#45;&gt;Node3</title>
<path fill="none" stroke="midnightblue" d="M126.285,-85.129C139.554,-86.6477 153.578,-88.2529 166.878,-89.7752"/>
<polygon fill="midnightblue" stroke="midnightblue" points="166.55,-93.2605 176.884,-90.9204 167.346,-86.3059 166.55,-93.2605"/>
</g>
<!-- Node4 -->
<g id="node4" class="node"><title>Node4</title>
<g id="a_node4"><a xlink:href="classCElement.html#a49581fb6412e29e932962acd82d52d6a" target="_top" xlink:title="CElement::getName">
<polygon fill="white" stroke="black" points="174,-49.5 174,-68.5 288,-68.5 288,-49.5 174,-49.5"/>
<text text-anchor="middle" x="231" y="-56.5" font-family="Verdana" font-size="10.00">CElement::getName</text>
</a>
</g>
</g>
<!-- Node1&#45;&gt;Node4 -->
<g id="edge3" class="edge"><title>Node1&#45;&gt;Node4</title>
<path fill="none" stroke="midnightblue" d="M126.285,-70.871C138.503,-69.4725 151.361,-68.0008 163.706,-66.5879"/>
<polygon fill="midnightblue" stroke="midnightblue" points="164.391,-70.0324 173.928,-65.4178 163.595,-63.0778 164.391,-70.0324"/>
</g>
<!-- Node5 -->
<g id="node5" class="node"><title>Node5</title>
<g id="a_node5"><a xlink:href="classCConfigurableDomain.html#a641075b0516177e468168bcf732b0f73" target="_top" xlink:title="CConfigurableDomain\l::getSequenceAwareness">
<polygon fill="white" stroke="black" points="162.5,-0 162.5,-30 299.5,-30 299.5,-0 162.5,-0"/>
<text text-anchor="start" x="170.5" y="-18" font-family="Verdana" font-size="10.00">CConfigurableDomain</text>
<text text-anchor="middle" x="231" y="-7" font-family="Verdana" font-size="10.00">::getSequenceAwareness</text>
</a>
</g>
</g>
<!-- Node1&#45;&gt;Node5 -->
<g id="edge4" class="edge"><title>Node1&#45;&gt;Node5</title>
<path fill="none" stroke="midnightblue" d="M102.573,-62.8631C120.598,-55.8357 142.368,-47.4144 162,-40 167.503,-37.9217 173.264,-35.7685 179.007,-33.637"/>
<polygon fill="midnightblue" stroke="midnightblue" points="180.438,-36.8394 188.603,-30.0876 178.01,-30.2741 180.438,-36.8394"/>
</g>
</g>
</svg>
