<?xml version="1.0" encoding="UTF-8" standalone="no"?>
<!DOCTYPE svg PUBLIC "-//W3C//DTD SVG 1.1//EN"
 "http://www.w3.org/Graphics/SVG/1.1/DTD/svg11.dtd">
<!-- Generated by graphviz version 2.38.0 (20140413.2041)
 -->
<!-- Title: CParameterMgrFullConnector::importDomainsXml Pages: 1 -->
<svg width="1162pt" height="39pt"
 viewBox="0.00 0.00 1162.00 39.00" xmlns="http://www.w3.org/2000/svg" xmlns:xlink="http://www.w3.org/1999/xlink">
<g id="graph0" class="graph" transform="scale(1 1) rotate(0) translate(4 35)">
<title>CParameterMgrFullConnector::importDomainsXml</title>
<polygon fill="white" stroke="none" points="-4,4 -4,-35 1158,-35 1158,4 -4,4"/>
<!-- Node1 -->
<g id="node1" class="node"><title>Node1</title>
<polygon fill="#bfbfbf" stroke="black" points="0,-0.5 0,-30.5 156,-30.5 156,-0.5 0,-0.5"/>
<text text-anchor="start" x="8" y="-18.5" font-family="Verdana" font-size="10.00">CParameterMgrFullConnector</text>
<text text-anchor="middle" x="78" y="-7.5" font-family="Verdana" font-size="10.00">::importDomainsXml</text>
</g>
<!-- Node2 -->
<g id="node2" class="node"><title>Node2</title>
<g id="a_node2"><a xlink:href="classCParameterMgr.html#ac2a3211a14a825e94e0090a9ad0e4c57" target="_top" xlink:title="Method that imports Configurable Domains from an Xml source. ">
<polygon fill="white" stroke="black" points="192,-6 192,-25 382,-25 382,-6 192,-6"/>
<text text-anchor="middle" x="287" y="-13" font-family="Verdana" font-size="10.00">CParameterMgr::importDomainsXml</text>
</a>
</g>
</g>
<!-- Node1&#45;&gt;Node2 -->
<g id="edge1" class="edge"><title>Node1&#45;&gt;Node2</title>
<path fill="none" stroke="midnightblue" d="M156.079,-15.5C164.424,-15.5 173.014,-15.5 181.612,-15.5"/>
<polygon fill="midnightblue" stroke="midnightblue" points="181.695,-19.0001 191.695,-15.5 181.695,-12.0001 181.695,-19.0001"/>
</g>
<!-- Node3 -->
<g id="node3" class="node"><title>Node3</title>
<g id="a_node3"><a xlink:href="classCConfigurableDomains.html#a6fd812eea1fd18c0d4fa14ec33b57fd5" target="_top" xlink:title="CConfigurableDomains\l::validate">
<polygon fill="white" stroke="black" points="418,-0.5 418,-30.5 544,-30.5 544,-0.5 418,-0.5"/>
<text text-anchor="start" x="426" y="-18.5" font-family="Verdana" font-size="10.00">CConfigurableDomains</text>
<text text-anchor="middle" x="481" y="-7.5" font-family="Verdana" font-size="10.00">::validate</text>
</a>
</g>
</g>
<!-- Node2&#45;&gt;Node3 -->
<g id="edge2" class="edge"><title>Node2&#45;&gt;Node3</title>
<path fill="none" stroke="midnightblue" d="M382.031,-15.5C390.678,-15.5 399.345,-15.5 407.753,-15.5"/>
<polygon fill="midnightblue" stroke="midnightblue" points="407.862,-19.0001 417.862,-15.5 407.862,-12.0001 407.862,-19.0001"/>
</g>
<!-- Node4 -->
<g id="node4" class="node"><title>Node4</title>
<g id="a_node4"><a xlink:href="classCConfigurableDomain.html#a2df6f85b21fa2ccbecc4a1c6d01ae2ed" target="_top" xlink:title="CConfigurableDomain\l::validate">
<polygon fill="white" stroke="black" points="580,-0.5 580,-30.5 701,-30.5 701,-0.5 580,-0.5"/>
<text text-anchor="start" x="588" y="-18.5" font-family="Verdana" font-size="10.00">CConfigurableDomain</text>
<text text-anchor="middle" x="640.5" y="-7.5" font-family="Verdana" font-size="10.00">::validate</text>
</a>
</g>
</g>
<!-- Node3&#45;&gt;Node4 -->
<g id="edge3" class="edge"><title>Node3&#45;&gt;Node4</title>
<path fill="none" stroke="midnightblue" d="M544.248,-15.5C552.562,-15.5 561.132,-15.5 569.566,-15.5"/>
<polygon fill="midnightblue" stroke="midnightblue" points="569.76,-19.0001 579.76,-15.5 569.759,-12.0001 569.76,-19.0001"/>
</g>
<!-- Node5 -->
<g id="node5" class="node"><title>Node5</title>
<g id="a_node5"><a xlink:href="classCDomainConfiguration.html#a442810a2eceb0eb11da8fefef93406d5" target="_top" xlink:title="CDomainConfiguration\l::validate">
<polygon fill="white" stroke="black" points="737,-0.5 737,-30.5 862,-30.5 862,-0.5 737,-0.5"/>
<text text-anchor="start" x="745" y="-18.5" font-family="Verdana" font-size="10.00">CDomainConfiguration</text>
<text text-anchor="middle" x="799.5" y="-7.5" font-family="Verdana" font-size="10.00">::validate</text>
</a>
</g>
</g>
<!-- Node4&#45;&gt;Node5 -->
<g id="edge4" class="edge"><title>Node4&#45;&gt;Node5</title>
<path fill="none" stroke="midnightblue" d="M701.303,-15.5C709.558,-15.5 718.107,-15.5 726.553,-15.5"/>
<polygon fill="midnightblue" stroke="midnightblue" points="726.779,-19.0001 736.779,-15.5 726.779,-12.0001 726.779,-19.0001"/>
</g>
<!-- Node6 -->
<g id="node6" class="node"><title>Node6</title>
<g id="a_node6"><a xlink:href="classCAreaConfiguration.html#a9c0ddade93f42f2ed315dd3a0719933c" target="_top" xlink:title="CAreaConfiguration\l::validate">
<polygon fill="white" stroke="black" points="898,-0.5 898,-30.5 1008,-30.5 1008,-0.5 898,-0.5"/>
<text text-anchor="start" x="906" y="-18.5" font-family="Verdana" font-size="10.00">CAreaConfiguration</text>
<text text-anchor="middle" x="953" y="-7.5" font-family="Verdana" font-size="10.00">::validate</text>
</a>
</g>
</g>
<!-- Node5&#45;&gt;Node6 -->
<g id="edge5" class="edge"><title>Node5&#45;&gt;Node6</title>
<path fill="none" stroke="midnightblue" d="M862.121,-15.5C870.508,-15.5 879.134,-15.5 887.568,-15.5"/>
<polygon fill="midnightblue" stroke="midnightblue" points="887.733,-19.0001 897.733,-15.5 887.733,-12.0001 887.733,-19.0001"/>
</g>
<!-- Node7 -->
<g id="node7" class="node"><title>Node7</title>
<g id="a_node7"><a xlink:href="classCAreaConfiguration.html#a0ab61255d58c402f059aceb6668b943d" target="_top" xlink:title="CAreaConfiguration\l::save">
<polygon fill="white" stroke="black" points="1044,-0.5 1044,-30.5 1154,-30.5 1154,-0.5 1044,-0.5"/>
<text text-anchor="start" x="1052" y="-18.5" font-family="Verdana" font-size="10.00">CAreaConfiguration</text>
<text text-anchor="middle" x="1099" y="-7.5" font-family="Verdana" font-size="10.00">::save</text>
</a>
</g>
</g>
<!-- Node6&#45;&gt;Node7 -->
<g id="edge6" class="edge"><title>Node6&#45;&gt;Node7</title>
<path fill="none" stroke="midnightblue" d="M1008.03,-15.5C1016.31,-15.5 1024.94,-15.5 1033.42,-15.5"/>
<polygon fill="midnightblue" stroke="midnightblue" points="1033.67,-19.0001 1043.67,-15.5 1033.67,-12.0001 1033.67,-19.0001"/>
</g>
</g>
</svg>
