<?xml version="1.0" encoding="UTF-8" standalone="no"?>
<!DOCTYPE svg PUBLIC "-//W3C//DTD SVG 1.1//EN"
 "http://www.w3.org/Graphics/SVG/1.1/DTD/svg11.dtd">
<!-- Generated by graphviz version 2.38.0 (20140413.2041)
 -->
<!-- Title: CSubsystem::structureFromXml Pages: 1 -->
<svg width="1380pt" height="668pt"
 viewBox="0.00 0.00 1380.00 667.63" xmlns="http://www.w3.org/2000/svg" xmlns:xlink="http://www.w3.org/1999/xlink">
<g id="graph0" class="graph" transform="scale(1 1) rotate(0) translate(4 663.634)">
<title>CSubsystem::structureFromXml</title>
<polygon fill="white" stroke="none" points="-4,4 -4,-663.634 1376,-663.634 1376,4 -4,4"/>
<!-- Node1 -->
<g id="node1" class="node"><title>Node1</title>
<polygon fill="#bfbfbf" stroke="black" points="0,-256.5 0,-275.5 169,-275.5 169,-256.5 0,-256.5"/>
<text text-anchor="middle" x="84.5" y="-263.5" font-family="Verdana" font-size="10.00">CSubsystem::structureFromXml</text>
</g>
<!-- Node2 -->
<g id="node2" class="node"><title>Node2</title>
<g id="a_node2"><a xlink:href="classCXmlElement.html#a6198359168c744489018bc2b8d732dc3" target="_top" xlink:title="Get attribute. ">
<polygon fill="white" stroke="black" points="1219.5,-487.5 1219.5,-506.5 1364.5,-506.5 1364.5,-487.5 1219.5,-487.5"/>
<text text-anchor="middle" x="1292" y="-494.5" font-family="Verdana" font-size="10.00">CXmlElement::getAttribute</text>
</a>
</g>
</g>
<!-- Node1&#45;&gt;Node2 -->
<g id="edge1" class="edge"><title>Node1&#45;&gt;Node2</title>
<path fill="none" stroke="midnightblue" d="M85.4666,-275.679C85.8785,-321.79 94.2073,-520.688 205,-611 302.98,-690.868 360.592,-648 487,-648 487,-648 487,-648 881.5,-648 1013.42,-648 1057.39,-668.737 1176,-611 1221.67,-588.767 1260.17,-541.124 1278.86,-515.018"/>
<polygon fill="midnightblue" stroke="midnightblue" points="1281.77,-516.963 1284.62,-506.76 1276.03,-512.956 1281.77,-516.963"/>
</g>
<!-- Node3 -->
<g id="node3" class="node"><title>Node3</title>
<g id="a_node3"><a xlink:href="classCElement.html#ac5fa8c7e838a44733f3887f1bec20d7b" target="_top" xlink:title="CElement::setDescription">
<polygon fill="white" stroke="black" points="218,-146.5 218,-165.5 356,-165.5 356,-146.5 218,-146.5"/>
<text text-anchor="middle" x="287" y="-153.5" font-family="Verdana" font-size="10.00">CElement::setDescription</text>
</a>
</g>
</g>
<!-- Node1&#45;&gt;Node3 -->
<g id="edge2" class="edge"><title>Node1&#45;&gt;Node3</title>
<path fill="none" stroke="midnightblue" d="M95.0809,-256.369C114.21,-237.71 159.242,-196.576 205,-175 210.063,-172.613 215.448,-170.513 220.944,-168.668"/>
<polygon fill="midnightblue" stroke="midnightblue" points="222.371,-171.892 230.907,-165.616 220.32,-165.199 222.371,-171.892"/>
</g>
<!-- Node4 -->
<g id="node4" class="node"><title>Node4</title>
<g id="a_node4"><a xlink:href="classCXmlParameterSerializingContext.html#a6aa9745f2951dc85c1a5d44f5e5e785c" target="_top" xlink:title="CXmlParameterSerializing\lContext::setComponentLibrary">
<polygon fill="white" stroke="black" points="205,-97 205,-127 369,-127 369,-97 205,-97"/>
<text text-anchor="start" x="213" y="-115" font-family="Verdana" font-size="10.00">CXmlParameterSerializing</text>
<text text-anchor="middle" x="287" y="-104" font-family="Verdana" font-size="10.00">Context::setComponentLibrary</text>
</a>
</g>
</g>
<!-- Node1&#45;&gt;Node4 -->
<g id="edge3" class="edge"><title>Node1&#45;&gt;Node4</title>
<path fill="none" stroke="midnightblue" d="M91.7634,-256.299C107.7,-232.387 152.284,-170.16 205,-137 208.338,-134.9 211.865,-132.966 215.505,-131.186"/>
<polygon fill="midnightblue" stroke="midnightblue" points="217.03,-134.338 224.74,-127.072 214.181,-127.944 217.03,-134.338"/>
</g>
<!-- Node5 -->
<g id="node5" class="node"><title>Node5</title>
<g id="a_node5"><a xlink:href="classCMappingData.html#ae5e7e90a449524a2a623fdc4a0a670f8" target="_top" xlink:title="Initialize mapping data through a raw value. ">
<polygon fill="white" stroke="black" points="233.5,-48.5 233.5,-67.5 340.5,-67.5 340.5,-48.5 233.5,-48.5"/>
<text text-anchor="middle" x="287" y="-55.5" font-family="Verdana" font-size="10.00">CMappingData::init</text>
</a>
</g>
</g>
<!-- Node1&#45;&gt;Node5 -->
<g id="edge4" class="edge"><title>Node1&#45;&gt;Node5</title>
<path fill="none" stroke="midnightblue" d="M89.3439,-256.275C101.586,-226.516 142.566,-135.754 205,-87 213.475,-80.3818 223.59,-75.1924 233.751,-71.1517"/>
<polygon fill="midnightblue" stroke="midnightblue" points="235.255,-74.329 243.455,-67.6205 232.861,-67.7509 235.255,-74.329"/>
</g>
<!-- Node7 -->
<g id="node7" class="node"><title>Node7</title>
<g id="a_node7"><a xlink:href="classutility_1_1ErrorContext.html#afc2e1af8c4a81e36e5013bf31127c15f" target="_top" xlink:title="utility::ErrorContext\l::setError">
<polygon fill="white" stroke="black" points="826.5,-495 826.5,-525 934.5,-525 934.5,-495 826.5,-495"/>
<text text-anchor="start" x="834.5" y="-513" font-family="Verdana" font-size="10.00">utility::ErrorContext</text>
<text text-anchor="middle" x="880.5" y="-502" font-family="Verdana" font-size="10.00">::setError</text>
</a>
</g>
</g>
<!-- Node1&#45;&gt;Node7 -->
<g id="edge6" class="edge"><title>Node1&#45;&gt;Node7</title>
<path fill="none" stroke="midnightblue" d="M95.5393,-275.67C115.109,-294.053 160.361,-334.316 205,-358 371.241,-446.203 422.36,-454.616 607,-491 677.851,-504.961 760.827,-509.036 816.437,-510.046"/>
<polygon fill="midnightblue" stroke="midnightblue" points="816.44,-513.547 826.493,-510.201 816.548,-506.547 816.44,-513.547"/>
</g>
<!-- Node8 -->
<g id="node8" class="node"><title>Node8</title>
<g id="a_node8"><a xlink:href="classCXmlElement.html#ac47c56a3cad8ac7d1fe7579e833227c5" target="_top" xlink:title="CXmlElement::getPath">
<polygon fill="white" stroke="black" points="818.5,-360.5 818.5,-379.5 942.5,-379.5 942.5,-360.5 818.5,-360.5"/>
<text text-anchor="middle" x="880.5" y="-367.5" font-family="Verdana" font-size="10.00">CXmlElement::getPath</text>
</a>
</g>
</g>
<!-- Node1&#45;&gt;Node8 -->
<g id="edge7" class="edge"><title>Node1&#45;&gt;Node8</title>
<path fill="none" stroke="midnightblue" d="M106.757,-275.593C176.558,-306.372 405.79,-401.754 607,-421 674.249,-427.432 692.794,-434.434 759,-421 793.242,-414.052 829.836,-397.043 853.595,-384.571"/>
<polygon fill="midnightblue" stroke="midnightblue" points="855.49,-387.526 862.644,-379.712 852.178,-381.359 855.49,-387.526"/>
</g>
<!-- Node14 -->
<g id="node14" class="node"><title>Node14</title>
<g id="a_node14"><a xlink:href="classCXmlElement.html#abffb4b3c9d2ac6c552b3222a92bf0d8a" target="_top" xlink:title="CXmlElement::getChildElement">
<polygon fill="white" stroke="black" points="405,-164.5 405,-183.5 571,-183.5 571,-164.5 405,-164.5"/>
<text text-anchor="middle" x="488" y="-171.5" font-family="Verdana" font-size="10.00">CXmlElement::getChildElement</text>
</a>
</g>
</g>
<!-- Node1&#45;&gt;Node14 -->
<g id="edge15" class="edge"><title>Node1&#45;&gt;Node14</title>
<path fill="none" stroke="midnightblue" d="M169.228,-261.517C226.675,-256.542 303.977,-246.061 369,-224 386.333,-218.119 388.355,-211.612 405,-204 418.645,-197.76 433.996,-191.861 447.695,-186.972"/>
<polygon fill="midnightblue" stroke="midnightblue" points="449.047,-190.207 457.329,-183.599 446.734,-183.6 449.047,-190.207"/>
</g>
<!-- Node16 -->
<g id="node16" class="node"><title>Node16</title>
<g id="a_node16"><a xlink:href="classCComponentLibrary.html#ad4cc928cda43371fb31f20394e8e04e5" target="_top" xlink:title="CComponentLibrary::\lfromXml">
<polygon fill="white" stroke="black" points="228.5,-273 228.5,-303 345.5,-303 345.5,-273 228.5,-273"/>
<text text-anchor="start" x="236.5" y="-291" font-family="Verdana" font-size="10.00">CComponentLibrary::</text>
<text text-anchor="middle" x="287" y="-280" font-family="Verdana" font-size="10.00">fromXml</text>
</a>
</g>
</g>
<!-- Node1&#45;&gt;Node16 -->
<g id="edge19" class="edge"><title>Node1&#45;&gt;Node16</title>
<path fill="none" stroke="midnightblue" d="M169.078,-275.171C185.473,-276.97 202.48,-278.836 218.278,-280.569"/>
<polygon fill="midnightblue" stroke="midnightblue" points="218.144,-284.075 228.466,-281.687 218.908,-277.117 218.144,-284.075"/>
</g>
<!-- Node23 -->
<g id="node23" class="node"><title>Node23</title>
<g id="a_node23"><a xlink:href="classCTypeElement.html#a8f3a08cd11a7db4fde3bd69dde5c8b66" target="_top" xlink:title="CTypeElement::fromXml">
<polygon fill="white" stroke="black" points="617.5,-582.5 617.5,-601.5 748.5,-601.5 748.5,-582.5 617.5,-582.5"/>
<text text-anchor="middle" x="683" y="-589.5" font-family="Verdana" font-size="10.00">CTypeElement::fromXml</text>
</a>
</g>
</g>
<!-- Node1&#45;&gt;Node23 -->
<g id="edge37" class="edge"><title>Node1&#45;&gt;Node23</title>
<path fill="none" stroke="midnightblue" d="M85.8235,-275.526C87.848,-318.379 102.361,-494.393 205,-568 337.519,-663.035 547.949,-626.215 638.368,-604.044"/>
<polygon fill="midnightblue" stroke="midnightblue" points="639.431,-607.385 648.276,-601.554 637.725,-600.597 639.431,-607.385"/>
</g>
<!-- Node26 -->
<g id="node26" class="node"><title>Node26</title>
<g id="a_node26"><a xlink:href="classCInstanceDefinition.html#aa29d3b10a23894522cfaa937cf385d10" target="_top" xlink:title="CInstanceDefinition\l::createInstances">
<polygon fill="white" stroke="black" points="232.5,-185 232.5,-215 341.5,-215 341.5,-185 232.5,-185"/>
<text text-anchor="start" x="240.5" y="-203" font-family="Verdana" font-size="10.00">CInstanceDefinition</text>
<text text-anchor="middle" x="287" y="-192" font-family="Verdana" font-size="10.00">::createInstances</text>
</a>
</g>
</g>
<!-- Node1&#45;&gt;Node26 -->
<g id="edge44" class="edge"><title>Node1&#45;&gt;Node26</title>
<path fill="none" stroke="midnightblue" d="M114.654,-256.403C144.864,-246.459 192.818,-230.673 230.322,-218.328"/>
<polygon fill="midnightblue" stroke="midnightblue" points="231.702,-221.558 240.106,-215.107 229.513,-214.909 231.702,-221.558"/>
</g>
<!-- Node6 -->
<g id="node6" class="node"><title>Node6</title>
<g id="a_node6"><a xlink:href="classTokenizer.html#ac0873693f9de717d9dbdeb8d6b5429ec" target="_top" xlink:title="Return a vector of all tokens. ">
<polygon fill="white" stroke="black" points="445,-38.5 445,-57.5 531,-57.5 531,-38.5 445,-38.5"/>
<text text-anchor="middle" x="488" y="-45.5" font-family="Verdana" font-size="10.00">Tokenizer::split</text>
</a>
</g>
</g>
<!-- Node5&#45;&gt;Node6 -->
<g id="edge5" class="edge"><title>Node5&#45;&gt;Node6</title>
<path fill="none" stroke="midnightblue" d="M340.545,-55.3595C369.569,-53.9011 405.509,-52.095 434.522,-50.6371"/>
<polygon fill="midnightblue" stroke="midnightblue" points="435.06,-54.1146 444.872,-50.117 434.709,-47.1234 435.06,-54.1146"/>
</g>
<!-- Node8&#45;&gt;Node8 -->
<g id="edge14" class="edge"><title>Node8&#45;&gt;Node8</title>
<path fill="none" stroke="midnightblue" d="M850.291,-379.757C835.594,-388.565 845.664,-398 880.5,-398 904.994,-398 917.244,-393.336 917.25,-387.504"/>
<polygon fill="midnightblue" stroke="midnightblue" points="919.835,-385.14 910.709,-379.757 914.486,-389.656 919.835,-385.14"/>
</g>
<!-- Node9 -->
<g id="node9" class="node"><title>Node9</title>
<g id="a_node9"><a xlink:href="classCXmlElement.html#ab2e750aaad2b93b4d875d04b624de1c4" target="_top" xlink:title="CXmlElement::getType">
<polygon fill="white" stroke="black" points="1027,-237.5 1027,-256.5 1151,-256.5 1151,-237.5 1027,-237.5"/>
<text text-anchor="middle" x="1089" y="-244.5" font-family="Verdana" font-size="10.00">CXmlElement::getType</text>
</a>
</g>
</g>
<!-- Node8&#45;&gt;Node9 -->
<g id="edge8" class="edge"><title>Node8&#45;&gt;Node9</title>
<path fill="none" stroke="midnightblue" d="M937.482,-360.482C947.622,-357.045 957.622,-352.367 966,-346 990.457,-327.414 979.092,-307.465 1002,-287 1014.91,-275.462 1031.73,-266.653 1047.07,-260.278"/>
<polygon fill="midnightblue" stroke="midnightblue" points="1048.35,-263.536 1056.38,-256.621 1045.79,-257.021 1048.35,-263.536"/>
</g>
<!-- Node10 -->
<g id="node10" class="node"><title>Node10</title>
<g id="a_node10"><a xlink:href="classCXmlElement.html#aacd4d202e3de66715641cc3bb89bd4b5" target="_top" xlink:title="CXmlElement::hasAttribute">
<polygon fill="white" stroke="black" points="1016,-392.5 1016,-411.5 1162,-411.5 1162,-392.5 1016,-392.5"/>
<text text-anchor="middle" x="1089" y="-399.5" font-family="Verdana" font-size="10.00">CXmlElement::hasAttribute</text>
</a>
</g>
</g>
<!-- Node8&#45;&gt;Node10 -->
<g id="edge9" class="edge"><title>Node8&#45;&gt;Node10</title>
<path fill="none" stroke="midnightblue" d="M942.619,-379.471C965.825,-383.067 992.458,-387.194 1016.54,-390.926"/>
<polygon fill="midnightblue" stroke="midnightblue" points="1016.26,-394.425 1026.68,-392.498 1017.34,-387.508 1016.26,-394.425"/>
</g>
<!-- Node11 -->
<g id="node11" class="node"><title>Node11</title>
<g id="a_node11"><a xlink:href="classCXmlElement.html#a21b9cfd66e7cd6f33a889e099102ef89" target="_top" xlink:title="CXmlElement::getNameAttribute">
<polygon fill="white" stroke="black" points="1002,-354.5 1002,-373.5 1176,-373.5 1176,-354.5 1002,-354.5"/>
<text text-anchor="middle" x="1089" y="-361.5" font-family="Verdana" font-size="10.00">CXmlElement::getNameAttribute</text>
</a>
</g>
</g>
<!-- Node8&#45;&gt;Node11 -->
<g id="edge10" class="edge"><title>Node8&#45;&gt;Node11</title>
<path fill="none" stroke="midnightblue" d="M942.619,-368.224C957.983,-367.778 974.849,-367.288 991.482,-366.804"/>
<polygon fill="midnightblue" stroke="midnightblue" points="991.898,-370.294 1001.79,-366.505 991.695,-363.297 991.898,-370.294"/>
</g>
<!-- Node12 -->
<g id="node12" class="node"><title>Node12</title>
<g id="a_node12"><a xlink:href="classCXmlElement.html#a28a62e123c5042524a20eda9cc425d5f" target="_top" xlink:title="CXmlElement::getParentElement">
<polygon fill="white" stroke="black" points="1002.5,-296.5 1002.5,-315.5 1175.5,-315.5 1175.5,-296.5 1002.5,-296.5"/>
<text text-anchor="middle" x="1089" y="-303.5" font-family="Verdana" font-size="10.00">CXmlElement::getParentElement</text>
</a>
</g>
</g>
<!-- Node8&#45;&gt;Node12 -->
<g id="edge12" class="edge"><title>Node8&#45;&gt;Node12</title>
<path fill="none" stroke="midnightblue" d="M916.538,-360.388C931.776,-356.12 949.812,-350.95 966,-346 994.35,-337.33 1026.17,-326.873 1050.21,-318.825"/>
<polygon fill="midnightblue" stroke="midnightblue" points="1051.63,-322.038 1060,-315.535 1049.4,-315.402 1051.63,-322.038"/>
</g>
<!-- Node11&#45;&gt;Node2 -->
<g id="edge11" class="edge"><title>Node11&#45;&gt;Node2</title>
<path fill="none" stroke="midnightblue" d="M1153.05,-373.575C1161.03,-376.032 1168.89,-379.12 1176,-383 1220.38,-407.199 1259.15,-453.641 1278.29,-479.144"/>
<polygon fill="midnightblue" stroke="midnightblue" points="1275.49,-481.233 1284.23,-487.221 1281.13,-477.089 1275.49,-481.233"/>
</g>
<!-- Node13 -->
<g id="node13" class="node"><title>Node13</title>
<g id="a_node13"><a xlink:href="classCXmlElement.html#a3b230e1c8e92537da6a1a365dc1e71b2" target="_top" xlink:title="CXmlElement::setXmlElement">
<polygon fill="white" stroke="black" points="1212,-208.5 1212,-227.5 1372,-227.5 1372,-208.5 1212,-208.5"/>
<text text-anchor="middle" x="1292" y="-215.5" font-family="Verdana" font-size="10.00">CXmlElement::setXmlElement</text>
</a>
</g>
</g>
<!-- Node12&#45;&gt;Node13 -->
<g id="edge13" class="edge"><title>Node12&#45;&gt;Node13</title>
<path fill="none" stroke="midnightblue" d="M1111.89,-296.415C1147.69,-280.744 1218.85,-249.587 1259.88,-231.624"/>
<polygon fill="midnightblue" stroke="midnightblue" points="1261.38,-234.79 1269.13,-227.573 1258.57,-228.378 1261.38,-234.79"/>
</g>
<!-- Node14&#45;&gt;Node9 -->
<g id="edge18" class="edge"><title>Node14&#45;&gt;Node9</title>
<path fill="none" stroke="midnightblue" d="M571.383,-167.268C667.562,-161.653 830.711,-159.134 966,-192 1001.28,-200.57 1038.94,-219.169 1062.94,-232.361"/>
<polygon fill="midnightblue" stroke="midnightblue" points="1061.3,-235.455 1071.73,-237.293 1064.72,-229.349 1061.3,-235.455"/>
</g>
<!-- Node15 -->
<g id="node15" class="node"><title>Node15</title>
<g id="a_node15"><a xlink:href="classCXmlElement_1_1CChildIterator.html#a65a1c3514c3fac2cfab99224991f2bdc" target="_top" xlink:title="CXmlElement::CChildIterator\l::next">
<polygon fill="white" stroke="black" points="607,-191 607,-221 759,-221 759,-191 607,-191"/>
<text text-anchor="start" x="615" y="-209" font-family="Verdana" font-size="10.00">CXmlElement::CChildIterator</text>
<text text-anchor="middle" x="683" y="-198" font-family="Verdana" font-size="10.00">::next</text>
</a>
</g>
</g>
<!-- Node14&#45;&gt;Node15 -->
<g id="edge16" class="edge"><title>Node14&#45;&gt;Node15</title>
<path fill="none" stroke="midnightblue" d="M546.384,-183.514C562.267,-186.148 579.853,-189.064 596.951,-191.899"/>
<polygon fill="midnightblue" stroke="midnightblue" points="596.508,-195.373 606.946,-193.556 597.653,-188.467 596.508,-195.373"/>
</g>
<!-- Node15&#45;&gt;Node13 -->
<g id="edge17" class="edge"><title>Node15&#45;&gt;Node13</title>
<path fill="none" stroke="midnightblue" d="M759.112,-195.231C771.092,-193.888 783.369,-192.731 795,-192 938.316,-182.998 1105.06,-196.71 1204.11,-207.394"/>
<polygon fill="midnightblue" stroke="midnightblue" points="1203.75,-210.875 1214.07,-208.483 1204.51,-203.917 1203.75,-210.875"/>
</g>
<!-- Node16&#45;&gt;Node9 -->
<g id="edge21" class="edge"><title>Node16&#45;&gt;Node9</title>
<path fill="none" stroke="midnightblue" d="M345.679,-281.189C434.506,-270.634 610.119,-249.505 759,-230 775.017,-227.902 778.885,-226.114 795,-225 870.819,-219.76 890.302,-218.229 966,-225 989.132,-227.069 1014.44,-231.303 1035.98,-235.509"/>
<polygon fill="midnightblue" stroke="midnightblue" points="1035.41,-238.965 1045.91,-237.496 1036.79,-232.101 1035.41,-238.965"/>
</g>
<!-- Node16&#45;&gt;Node15 -->
<g id="edge20" class="edge"><title>Node16&#45;&gt;Node15</title>
<path fill="none" stroke="midnightblue" d="M333.635,-272.858C345.35,-268.495 357.801,-263.432 369,-258 385.871,-249.816 387.25,-242.045 405,-236 466.965,-214.899 540.823,-207.723 596.685,-205.647"/>
<polygon fill="midnightblue" stroke="midnightblue" points="597.018,-209.139 606.899,-205.317 596.791,-202.142 597.018,-209.139"/>
</g>
<!-- Node17 -->
<g id="node17" class="node"><title>Node17</title>
<g id="a_node17"><a xlink:href="classCElement.html#a0b4cdc10e6df8fd3740255c5faf3b596" target="_top" xlink:title="Creates a child CElement from a child XML Element. ">
<polygon fill="white" stroke="black" points="621.5,-278.5 621.5,-297.5 744.5,-297.5 744.5,-278.5 621.5,-278.5"/>
<text text-anchor="middle" x="683" y="-285.5" font-family="Verdana" font-size="10.00">CElement::createChild</text>
</a>
</g>
</g>
<!-- Node16&#45;&gt;Node17 -->
<g id="edge22" class="edge"><title>Node16&#45;&gt;Node17</title>
<path fill="none" stroke="midnightblue" d="M345.713,-288C416.04,-288 534.855,-288 610.796,-288"/>
<polygon fill="midnightblue" stroke="midnightblue" points="611.217,-291.5 621.217,-288 611.217,-284.5 611.217,-291.5"/>
</g>
<!-- Node21 -->
<g id="node21" class="node"><title>Node21</title>
<g id="a_node21"><a xlink:href="classCElement.html#a1978d50e2db432e7b8f0928f33d3f01a" target="_top" xlink:title="CElement::fromXml">
<polygon fill="white" stroke="black" points="433,-335.5 433,-354.5 543,-354.5 543,-335.5 433,-335.5"/>
<text text-anchor="middle" x="488" y="-342.5" font-family="Verdana" font-size="10.00">CElement::fromXml</text>
</a>
</g>
</g>
<!-- Node16&#45;&gt;Node21 -->
<g id="edge28" class="edge"><title>Node16&#45;&gt;Node21</title>
<path fill="none" stroke="midnightblue" d="M340.545,-303.051C372.72,-312.267 413.395,-323.917 443.71,-332.6"/>
<polygon fill="midnightblue" stroke="midnightblue" points="442.989,-336.034 453.566,-335.423 444.916,-329.305 442.989,-336.034"/>
</g>
<!-- Node17&#45;&gt;Node7 -->
<g id="edge25" class="edge"><title>Node17&#45;&gt;Node7</title>
<path fill="none" stroke="midnightblue" d="M692.4,-297.539C721.349,-330.411 817.48,-439.574 859.524,-487.316"/>
<polygon fill="midnightblue" stroke="midnightblue" points="857.019,-489.767 866.254,-494.959 862.272,-485.141 857.019,-489.767"/>
</g>
<!-- Node17&#45;&gt;Node8 -->
<g id="edge26" class="edge"><title>Node17&#45;&gt;Node8</title>
<path fill="none" stroke="midnightblue" d="M706.809,-297.567C741.537,-312.133 807.803,-339.928 847.384,-356.529"/>
<polygon fill="midnightblue" stroke="midnightblue" points="846.261,-359.854 856.836,-360.494 848.968,-353.398 846.261,-359.854"/>
</g>
<!-- Node18 -->
<g id="node18" class="node"><title>Node18</title>
<g id="a_node18"><a xlink:href="classCXmlElementSerializingContext.html#a6c36b7e23b9968c6ea898612d2a55ee9" target="_top" xlink:title="CXmlElementSerializingContext\l::getElementLibrary">
<polygon fill="white" stroke="black" points="797,-273 797,-303 964,-303 964,-273 797,-273"/>
<text text-anchor="start" x="805" y="-291" font-family="Verdana" font-size="10.00">CXmlElementSerializingContext</text>
<text text-anchor="middle" x="880.5" y="-280" font-family="Verdana" font-size="10.00">::getElementLibrary</text>
</a>
</g>
</g>
<!-- Node17&#45;&gt;Node18 -->
<g id="edge23" class="edge"><title>Node17&#45;&gt;Node18</title>
<path fill="none" stroke="midnightblue" d="M744.519,-288C757.874,-288 772.319,-288 786.625,-288"/>
<polygon fill="midnightblue" stroke="midnightblue" points="787,-291.5 797,-288 787,-284.5 787,-291.5"/>
</g>
<!-- Node19 -->
<g id="node19" class="node"><title>Node19</title>
<g id="a_node19"><a xlink:href="classCElementLibrary.html#a5ad95964216e50fc59f0c803370fb4de" target="_top" xlink:title="CElementLibrary::createElement">
<polygon fill="white" stroke="black" points="795,-234.5 795,-253.5 966,-253.5 966,-234.5 795,-234.5"/>
<text text-anchor="middle" x="880.5" y="-241.5" font-family="Verdana" font-size="10.00">CElementLibrary::createElement</text>
</a>
</g>
</g>
<!-- Node17&#45;&gt;Node19 -->
<g id="edge24" class="edge"><title>Node17&#45;&gt;Node19</title>
<path fill="none" stroke="midnightblue" d="M726.166,-278.499C746.899,-273.829 772.26,-268.117 795,-263 805.339,-260.673 816.389,-258.188 826.976,-255.807"/>
<polygon fill="midnightblue" stroke="midnightblue" points="827.957,-259.174 836.945,-253.565 826.421,-252.345 827.957,-259.174"/>
</g>
<!-- Node20 -->
<g id="node20" class="node"><title>Node20</title>
<g id="a_node20"><a xlink:href="classCElement.html#ac2ad66ee438a4a0c1390b7388874fe72" target="_top" xlink:title="CElement::addChild">
<polygon fill="white" stroke="black" points="825.5,-82.5 825.5,-101.5 935.5,-101.5 935.5,-82.5 825.5,-82.5"/>
<text text-anchor="middle" x="880.5" y="-89.5" font-family="Verdana" font-size="10.00">CElement::addChild</text>
</a>
</g>
</g>
<!-- Node17&#45;&gt;Node20 -->
<g id="edge27" class="edge"><title>Node17&#45;&gt;Node20</title>
<path fill="none" stroke="midnightblue" d="M697.917,-278.482C713.481,-267.562 739.113,-248.737 759,-230 801.222,-190.22 844.444,-137.078 865.811,-109.804"/>
<polygon fill="midnightblue" stroke="midnightblue" points="868.813,-111.646 872.187,-101.602 863.286,-107.349 868.813,-111.646"/>
</g>
<!-- Node21&#45;&gt;Node2 -->
<g id="edge29" class="edge"><title>Node21&#45;&gt;Node2</title>
<path fill="none" stroke="midnightblue" d="M500.1,-354.724C519.968,-371.504 563.604,-405.58 607,-421 716.201,-459.804 1052.67,-483.439 1209.27,-492.613"/>
<polygon fill="midnightblue" stroke="midnightblue" points="1209.13,-496.111 1219.32,-493.196 1209.54,-489.123 1209.13,-496.111"/>
</g>
<!-- Node21&#45;&gt;Node7 -->
<g id="edge33" class="edge"><title>Node21&#45;&gt;Node7</title>
<path fill="none" stroke="midnightblue" d="M496.346,-354.709C513.269,-376.328 557.378,-428.529 607,-454 673.375,-488.07 758.867,-501.413 816.237,-506.638"/>
<polygon fill="midnightblue" stroke="midnightblue" points="815.995,-510.13 826.256,-507.495 816.591,-503.156 815.995,-510.13"/>
</g>
<!-- Node21&#45;&gt;Node8 -->
<g id="edge34" class="edge"><title>Node21&#45;&gt;Node8</title>
<path fill="none" stroke="midnightblue" d="M543.297,-348.476C612.391,-352.9 731.91,-360.551 808.262,-365.439"/>
<polygon fill="midnightblue" stroke="midnightblue" points="808.073,-368.934 818.276,-366.08 808.521,-361.949 808.073,-368.934"/>
</g>
<!-- Node21&#45;&gt;Node9 -->
<g id="edge32" class="edge"><title>Node21&#45;&gt;Node9</title>
<path fill="none" stroke="midnightblue" d="M543.09,-344.854C651.025,-343.977 889.351,-338.944 966,-312 984.377,-305.54 985.107,-296.699 1002,-287 1018.91,-277.291 1038.58,-268.005 1054.84,-260.828"/>
<polygon fill="midnightblue" stroke="midnightblue" points="1056.68,-263.842 1064.46,-256.648 1053.89,-257.421 1056.68,-263.842"/>
</g>
<!-- Node21&#45;&gt;Node15 -->
<g id="edge30" class="edge"><title>Node21&#45;&gt;Node15</title>
<path fill="none" stroke="midnightblue" d="M502.266,-335.446C533.1,-313.239 610.202,-257.709 652.717,-227.09"/>
<polygon fill="midnightblue" stroke="midnightblue" points="654.916,-229.819 660.985,-221.135 650.825,-224.139 654.916,-229.819"/>
</g>
<!-- Node21&#45;&gt;Node17 -->
<g id="edge35" class="edge"><title>Node21&#45;&gt;Node17</title>
<path fill="none" stroke="midnightblue" d="M521.304,-335.459C553.869,-325.842 604.284,-310.952 639.95,-300.419"/>
<polygon fill="midnightblue" stroke="midnightblue" points="640.992,-303.761 649.591,-297.572 639.009,-297.047 640.992,-303.761"/>
</g>
<!-- Node21&#45;&gt;Node21 -->
<g id="edge36" class="edge"><title>Node21&#45;&gt;Node21</title>
<path fill="none" stroke="midnightblue" d="M458.099,-354.757C443.553,-363.565 453.52,-373 488,-373 512.244,-373 524.369,-368.336 524.375,-362.504"/>
<polygon fill="midnightblue" stroke="midnightblue" points="526.999,-360.186 517.901,-354.757 521.628,-364.675 526.999,-360.186"/>
</g>
<!-- Node22 -->
<g id="node22" class="node"><title>Node22</title>
<g id="a_node22"><a xlink:href="classCElement.html#acee1af3e8516a211731a59b85727c6b9" target="_top" xlink:title="CElement::findChildOfKind">
<polygon fill="white" stroke="black" points="613,-392.5 613,-411.5 753,-411.5 753,-392.5 613,-392.5"/>
<text text-anchor="middle" x="683" y="-399.5" font-family="Verdana" font-size="10.00">CElement::findChildOfKind</text>
</a>
</g>
</g>
<!-- Node21&#45;&gt;Node22 -->
<g id="edge31" class="edge"><title>Node21&#45;&gt;Node22</title>
<path fill="none" stroke="midnightblue" d="M521.304,-354.541C553.869,-364.158 604.284,-379.048 639.95,-389.581"/>
<polygon fill="midnightblue" stroke="midnightblue" points="639.009,-392.953 649.591,-392.428 640.992,-386.239 639.009,-392.953"/>
</g>
<!-- Node23&#45;&gt;Node2 -->
<g id="edge38" class="edge"><title>Node23&#45;&gt;Node2</title>
<path fill="none" stroke="midnightblue" d="M738.45,-582.484C756.443,-579.392 776.57,-575.989 795,-573 944.288,-548.788 1119.2,-522.463 1216.33,-508.026"/>
<polygon fill="midnightblue" stroke="midnightblue" points="1216.97,-511.47 1226.34,-506.539 1215.94,-504.546 1216.97,-511.47"/>
</g>
<!-- Node23&#45;&gt;Node7 -->
<g id="edge42" class="edge"><title>Node23&#45;&gt;Node7</title>
<path fill="none" stroke="midnightblue" d="M722.82,-582.415C734.781,-578.721 747.754,-573.932 759,-568 776.929,-558.543 777.222,-549.737 795,-540 802.638,-535.816 810.974,-532.028 819.337,-528.663"/>
<polygon fill="midnightblue" stroke="midnightblue" points="820.676,-531.898 828.755,-525.045 818.165,-525.364 820.676,-531.898"/>
</g>
<!-- Node23&#45;&gt;Node8 -->
<g id="edge43" class="edge"><title>Node23&#45;&gt;Node8</title>
<path fill="none" stroke="midnightblue" d="M692.4,-582.461C722.542,-548.233 825.523,-431.293 864.441,-387.1"/>
<polygon fill="midnightblue" stroke="midnightblue" points="867.149,-389.321 871.131,-379.504 861.895,-384.695 867.149,-389.321"/>
</g>
<!-- Node24 -->
<g id="node24" class="node"><title>Node24</title>
<g id="a_node24"><a xlink:href="classCTypeElement.html#aa8d910c6cf51c03d03f183a6a81a8372" target="_top" xlink:title="CTypeElement::getMappingData">
<polygon fill="white" stroke="black" points="795.5,-582.5 795.5,-601.5 965.5,-601.5 965.5,-582.5 795.5,-582.5"/>
<text text-anchor="middle" x="880.5" y="-589.5" font-family="Verdana" font-size="10.00">CTypeElement::getMappingData</text>
</a>
</g>
</g>
<!-- Node23&#45;&gt;Node24 -->
<g id="edge39" class="edge"><title>Node23&#45;&gt;Node24</title>
<path fill="none" stroke="midnightblue" d="M748.556,-592C760.286,-592 772.74,-592 785.122,-592"/>
<polygon fill="midnightblue" stroke="midnightblue" points="785.488,-595.5 795.488,-592 785.488,-588.5 785.488,-595.5"/>
</g>
<!-- Node24&#45;&gt;Node24 -->
<g id="edge40" class="edge"><title>Node24&#45;&gt;Node24</title>
<path fill="none" stroke="midnightblue" d="M850.291,-601.757C835.594,-610.565 845.664,-620 880.5,-620 904.994,-620 917.244,-615.336 917.25,-609.504"/>
<polygon fill="midnightblue" stroke="midnightblue" points="919.835,-607.14 910.709,-601.757 914.486,-611.656 919.835,-607.14"/>
</g>
<!-- Node25 -->
<g id="node25" class="node"><title>Node25</title>
<g id="a_node25"><a xlink:href="classCMappingData.html#a7a2d5172201c72ab434175fadc1f3053" target="_top" xlink:title="CMappingData::getValue">
<polygon fill="white" stroke="black" points="1021.5,-582.5 1021.5,-601.5 1156.5,-601.5 1156.5,-582.5 1021.5,-582.5"/>
<text text-anchor="middle" x="1089" y="-589.5" font-family="Verdana" font-size="10.00">CMappingData::getValue</text>
</a>
</g>
</g>
<!-- Node24&#45;&gt;Node25 -->
<g id="edge41" class="edge"><title>Node24&#45;&gt;Node25</title>
<path fill="none" stroke="midnightblue" d="M965.789,-592C980.831,-592 996.428,-592 1011.25,-592"/>
<polygon fill="midnightblue" stroke="midnightblue" points="1011.36,-595.5 1021.36,-592 1011.36,-588.5 1011.36,-595.5"/>
</g>
<!-- Node27 -->
<g id="node27" class="node"><title>Node27</title>
<g id="a_node27"><a xlink:href="classCTypeElement.html#a7cdfd91a35b67d17fb2c92f8a2883854" target="_top" xlink:title="CTypeElement::populate">
<polygon fill="white" stroke="black" points="422,-76.5 422,-95.5 554,-95.5 554,-76.5 422,-76.5"/>
<text text-anchor="middle" x="488" y="-83.5" font-family="Verdana" font-size="10.00">CTypeElement::populate</text>
</a>
</g>
</g>
<!-- Node26&#45;&gt;Node27 -->
<g id="edge45" class="edge"><title>Node26&#45;&gt;Node27</title>
<path fill="none" stroke="midnightblue" d="M341.763,-186.291C351.07,-183.112 360.483,-179.356 369,-175 407.894,-155.107 447.244,-122.31 469.242,-102.571"/>
<polygon fill="midnightblue" stroke="midnightblue" points="471.751,-105.021 476.787,-95.6998 467.037,-99.8461 471.751,-105.021"/>
</g>
<!-- Node27&#45;&gt;Node20 -->
<g id="edge50" class="edge"><title>Node27&#45;&gt;Node20</title>
<path fill="none" stroke="midnightblue" d="M537.015,-95.513C558.352,-99.2785 583.834,-103.147 607,-105 674.34,-110.387 691.542,-108.628 759,-105 777.264,-104.018 797.017,-102.204 815.143,-100.236"/>
<polygon fill="midnightblue" stroke="midnightblue" points="815.765,-103.688 825.314,-99.0982 814.987,-96.7317 815.765,-103.688"/>
</g>
<!-- Node28 -->
<g id="node28" class="node"><title>Node28</title>
<g id="a_node28"><a xlink:href="classCElement.html#a58b6cdb5715497442fde6afa1e65f8e5" target="_top" xlink:title="CElement::getNbChildren">
<polygon fill="white" stroke="black" points="614.5,-0.5 614.5,-19.5 751.5,-19.5 751.5,-0.5 614.5,-0.5"/>
<text text-anchor="middle" x="683" y="-7.5" font-family="Verdana" font-size="10.00">CElement::getNbChildren</text>
</a>
</g>
</g>
<!-- Node27&#45;&gt;Node28 -->
<g id="edge46" class="edge"><title>Node27&#45;&gt;Node28</title>
<path fill="none" stroke="midnightblue" d="M549.233,-76.3661C556.826,-73.9182 564.279,-70.8487 571,-67 591.189,-55.4393 586.93,-40.7663 607,-29 610.715,-26.8218 614.676,-24.8912 618.763,-23.1804"/>
<polygon fill="midnightblue" stroke="midnightblue" points="620.317,-26.3371 628.472,-19.574 617.879,-19.7752 620.317,-26.3371"/>
</g>
<!-- Node29 -->
<g id="node29" class="node"><title>Node29</title>
<g id="a_node29"><a xlink:href="classCElement.html#aee0d626525e9cd24d7639b6365afdc16" target="_top" xlink:title="Get a child element (const) ">
<polygon fill="white" stroke="black" points="629,-76.5 629,-95.5 737,-95.5 737,-76.5 629,-76.5"/>
<text text-anchor="middle" x="683" y="-83.5" font-family="Verdana" font-size="10.00">CElement::getChild</text>
</a>
</g>
</g>
<!-- Node27&#45;&gt;Node29 -->
<g id="edge47" class="edge"><title>Node27&#45;&gt;Node29</title>
<path fill="none" stroke="midnightblue" d="M554.072,-86C574.855,-86 597.821,-86 618.491,-86"/>
<polygon fill="midnightblue" stroke="midnightblue" points="618.75,-89.5001 628.75,-86 618.75,-82.5001 618.75,-89.5001"/>
</g>
<!-- Node30 -->
<g id="node30" class="node"><title>Node30</title>
<g id="a_node30"><a xlink:href="classCTypeElement.html#a0fd0b5dfb3e3515ff5b54eda3d7e0a45" target="_top" xlink:title="CTypeElement::instantiate">
<polygon fill="white" stroke="black" points="612.5,-38.5 612.5,-57.5 753.5,-57.5 753.5,-38.5 612.5,-38.5"/>
<text text-anchor="middle" x="683" y="-45.5" font-family="Verdana" font-size="10.00">CTypeElement::instantiate</text>
</a>
</g>
</g>
<!-- Node27&#45;&gt;Node30 -->
<g id="edge48" class="edge"><title>Node27&#45;&gt;Node30</title>
<path fill="none" stroke="midnightblue" d="M513.836,-76.4076C536.252,-70.3414 570.486,-62.9488 602.229,-57.0472"/>
<polygon fill="midnightblue" stroke="midnightblue" points="603.219,-60.4244 612.429,-55.1871 601.963,-53.538 603.219,-60.4244"/>
</g>
<!-- Node30&#45;&gt;Node27 -->
<g id="edge49" class="edge"><title>Node30&#45;&gt;Node27</title>
<path fill="none" stroke="midnightblue" d="M657.264,-57.5653C633.77,-63.9293 597.228,-71.7595 564.193,-77.7967"/>
<polygon fill="midnightblue" stroke="midnightblue" points="563.298,-74.4012 554.072,-79.6091 564.532,-81.2916 563.298,-74.4012"/>
</g>
</g>
</svg>
