<?xml version="1.0" encoding="UTF-8" standalone="no"?>
<!DOCTYPE svg PUBLIC "-//W3C//DTD SVG 1.1//EN"
 "http://www.w3.org/Graphics/SVG/1.1/DTD/svg11.dtd">
<!-- Generated by graphviz version 2.36.0 (20140111.2315)
 -->
<!-- Title: CBaseParameter::logValue Pages: 1 -->
<svg width="348pt" height="77pt"
 viewBox="0.00 0.00 348.00 77.00" xmlns="http://www.w3.org/2000/svg" xmlns:xlink="http://www.w3.org/1999/xlink">
<g id="graph0" class="graph" transform="scale(1 1) rotate(0) translate(4 73)">
<title>CBaseParameter::logValue</title>
<polygon fill="white" stroke="none" points="-4,4 -4,-73 344,-73 344,4 -4,4"/>
<!-- Node1 -->
<g id="node1" class="node"><title>Node1</title>
<polygon fill="#bfbfbf" stroke="black" points="0,-27.5 0,-46.5 144,-46.5 144,-27.5 0,-27.5"/>
<text text-anchor="middle" x="72" y="-34.5" font-family="Verdana" font-size="10.00">CBaseParameter::logValue</text>
</g>
<!-- Node2 -->
<g id="node2" class="node"><title>Node2</title>
<g id="a_node2"><a xlink:href="classCBaseParameter.html#aea4a2e14dbd4588fbe837bbe5cae5076" target="_top" xlink:title="CBaseParameter::doGetValue">
<polygon fill="white" stroke="black" points="180.5,-49.5 180.5,-68.5 339.5,-68.5 339.5,-49.5 180.5,-49.5"/>
<text text-anchor="middle" x="260" y="-56.5" font-family="Verdana" font-size="10.00">CBaseParameter::doGetValue</text>
</a>
</g>
</g>
<!-- Node1&#45;&gt;Node2 -->
<g id="edge1" class="edge"><title>Node1&#45;&gt;Node2</title>
<path fill="none" stroke="midnightblue" d="M144.115,-45.4114C152.758,-46.4338 161.669,-47.4878 170.525,-48.5353"/>
<polygon fill="midnightblue" stroke="midnightblue" points="170.142,-52.0142 180.484,-49.7131 170.964,-45.0626 170.142,-52.0142"/>
</g>
<!-- Node3 -->
<g id="node3" class="node"><title>Node3</title>
<g id="a_node3"><a xlink:href="classCConfigurableElement.html#a29d61e6d09ff508ebb87aea802f2704e" target="_top" xlink:title="CConfigurableElement\l::getOffset">
<polygon fill="white" stroke="black" points="198.5,-0 198.5,-30 321.5,-30 321.5,-0 198.5,-0"/>
<text text-anchor="start" x="206.5" y="-18" font-family="Verdana" font-size="10.00">CConfigurableElement</text>
<text text-anchor="middle" x="260" y="-7" font-family="Verdana" font-size="10.00">::getOffset</text>
</a>
</g>
</g>
<!-- Node1&#45;&gt;Node3 -->
<g id="edge2" class="edge"><title>Node1&#45;&gt;Node3</title>
<path fill="none" stroke="midnightblue" d="M144.115,-28.5886C158.474,-26.8902 173.572,-25.1044 187.929,-23.4062"/>
<polygon fill="midnightblue" stroke="midnightblue" points="188.713,-26.838 198.232,-22.1876 187.89,-19.8865 188.713,-26.838"/>
</g>
</g>
</svg>
