<?xml version="1.0" encoding="UTF-8" standalone="no"?>
<!DOCTYPE svg PUBLIC "-//W3C//DTD SVG 1.1//EN"
 "http://www.w3.org/Graphics/SVG/1.1/DTD/svg11.dtd">
<!-- Generated by graphviz version 2.36.0 (20140111.2315)
 -->
<!-- Title: CConfigurableDomains::renameDomain Pages: 1 -->
<svg width="482pt" height="188pt"
 viewBox="0.00 0.00 482.00 188.00" xmlns="http://www.w3.org/2000/svg" xmlns:xlink="http://www.w3.org/1999/xlink">
<g id="graph0" class="graph" transform="scale(1 1) rotate(0) translate(4 184)">
<title>CConfigurableDomains::renameDomain</title>
<polygon fill="white" stroke="none" points="-4,4 -4,-184 478,-184 478,4 -4,4"/>
<!-- Node1 -->
<g id="node1" class="node"><title>Node1</title>
<polygon fill="#bfbfbf" stroke="black" points="0,-106 0,-136 126,-136 126,-106 0,-106"/>
<text text-anchor="start" x="8" y="-124" font-family="Verdana" font-size="10.00">CConfigurableDomains</text>
<text text-anchor="middle" x="63" y="-113" font-family="Verdana" font-size="10.00">::renameDomain</text>
</g>
<!-- Node2 -->
<g id="node2" class="node"><title>Node2</title>
<g id="a_node2"><a xlink:href="classCConfigurableDomains.html#a4dce38a1560b6e33871d3fa2d85cc449" target="_top" xlink:title="CConfigurableDomains\l::findConfigurableDomain">
<polygon fill="white" stroke="black" points="162.5,-150 162.5,-180 299.5,-180 299.5,-150 162.5,-150"/>
<text text-anchor="start" x="170.5" y="-168" font-family="Verdana" font-size="10.00">CConfigurableDomains</text>
<text text-anchor="middle" x="231" y="-157" font-family="Verdana" font-size="10.00">::findConfigurableDomain</text>
</a>
</g>
</g>
<!-- Node1&#45;&gt;Node2 -->
<g id="edge1" class="edge"><title>Node1&#45;&gt;Node2</title>
<path fill="none" stroke="midnightblue" d="M120.663,-136.019C134.476,-139.68 149.374,-143.629 163.595,-147.399"/>
<polygon fill="midnightblue" stroke="midnightblue" points="162.747,-150.795 173.31,-149.974 164.541,-144.028 162.747,-150.795"/>
</g>
<!-- Node4 -->
<g id="node4" class="node"><title>Node4</title>
<g id="a_node4"><a xlink:href="classCElement.html#a1dee87366d307b43bf8851dd2614c160" target="_top" xlink:title="CElement::log_info">
<polygon fill="white" stroke="black" points="178,-111.5 178,-130.5 284,-130.5 284,-111.5 178,-111.5"/>
<text text-anchor="middle" x="231" y="-118.5" font-family="Verdana" font-size="10.00">CElement::log_info</text>
</a>
</g>
</g>
<!-- Node1&#45;&gt;Node4 -->
<g id="edge3" class="edge"><title>Node1&#45;&gt;Node4</title>
<path fill="none" stroke="midnightblue" d="M126.285,-121C139.847,-121 154.198,-121 167.759,-121"/>
<polygon fill="midnightblue" stroke="midnightblue" points="167.949,-124.5 177.949,-121 167.949,-117.5 167.949,-124.5"/>
</g>
<!-- Node5 -->
<g id="node5" class="node"><title>Node5</title>
<g id="a_node5"><a xlink:href="classCElement.html#aa09118f89e5b3208ee92d0ec51151ccf" target="_top" xlink:title="CElement::rename">
<polygon fill="white" stroke="black" points="177.5,-73.5 177.5,-92.5 284.5,-92.5 284.5,-73.5 177.5,-73.5"/>
<text text-anchor="middle" x="231" y="-80.5" font-family="Verdana" font-size="10.00">CElement::rename</text>
</a>
</g>
</g>
<!-- Node1&#45;&gt;Node5 -->
<g id="edge4" class="edge"><title>Node1&#45;&gt;Node5</title>
<path fill="none" stroke="midnightblue" d="M126.285,-106.742C143.35,-102.835 161.664,-98.6431 178.082,-94.8849"/>
<polygon fill="midnightblue" stroke="midnightblue" points="179.064,-98.2507 188.031,-92.6074 177.502,-91.4272 179.064,-98.2507"/>
</g>
<!-- Node3 -->
<g id="node3" class="node"><title>Node3</title>
<g id="a_node3"><a xlink:href="classCElement.html#a8595814a3159f32f874269907e70b260" target="_top" xlink:title="CElement::findChild">
<polygon fill="white" stroke="black" points="350,-155.5 350,-174.5 460,-174.5 460,-155.5 350,-155.5"/>
<text text-anchor="middle" x="405" y="-162.5" font-family="Verdana" font-size="10.00">CElement::findChild</text>
</a>
</g>
</g>
<!-- Node2&#45;&gt;Node3 -->
<g id="edge2" class="edge"><title>Node2&#45;&gt;Node3</title>
<path fill="none" stroke="midnightblue" d="M299.979,-165C313.019,-165 326.639,-165 339.563,-165"/>
<polygon fill="midnightblue" stroke="midnightblue" points="339.755,-168.5 349.755,-165 339.755,-161.5 339.755,-168.5"/>
</g>
<!-- Node6 -->
<g id="node6" class="node"><title>Node6</title>
<g id="a_node6"><a xlink:href="classCElement.html#a58b6cdb5715497442fde6afa1e65f8e5" target="_top" xlink:title="CElement::getNbChildren">
<polygon fill="white" stroke="black" points="336.5,-114.5 336.5,-133.5 473.5,-133.5 473.5,-114.5 336.5,-114.5"/>
<text text-anchor="middle" x="405" y="-121.5" font-family="Verdana" font-size="10.00">CElement::getNbChildren</text>
</a>
</g>
</g>
<!-- Node5&#45;&gt;Node6 -->
<g id="edge5" class="edge"><title>Node5&#45;&gt;Node6</title>
<path fill="none" stroke="midnightblue" d="M271.893,-92.5093C296.444,-98.3616 328.113,-105.911 354.289,-112.15"/>
<polygon fill="midnightblue" stroke="midnightblue" points="353.487,-115.557 364.026,-114.471 355.11,-108.748 353.487,-115.557"/>
</g>
<!-- Node7 -->
<g id="node7" class="node"><title>Node7</title>
<g id="a_node7"><a xlink:href="classCElement.html#a9bba10d2dc72821589a898e16ace9ae5" target="_top" xlink:title="Get a child element (const) ">
<polygon fill="white" stroke="black" points="351,-76.5 351,-95.5 459,-95.5 459,-76.5 351,-76.5"/>
<text text-anchor="middle" x="405" y="-83.5" font-family="Verdana" font-size="10.00">CElement::getChild</text>
</a>
</g>
</g>
<!-- Node5&#45;&gt;Node7 -->
<g id="edge6" class="edge"><title>Node5&#45;&gt;Node7</title>
<path fill="none" stroke="midnightblue" d="M284.54,-83.9164C302.295,-84.2261 322.304,-84.5751 340.798,-84.8976"/>
<polygon fill="midnightblue" stroke="midnightblue" points="340.832,-88.3987 350.892,-85.0737 340.954,-81.3997 340.832,-88.3987"/>
</g>
<!-- Node8 -->
<g id="node8" class="node"><title>Node8</title>
<g id="a_node8"><a xlink:href="classCElement.html#a49581fb6412e29e932962acd82d52d6a" target="_top" xlink:title="CElement::getName">
<polygon fill="white" stroke="black" points="348,-38.5 348,-57.5 462,-57.5 462,-38.5 348,-38.5"/>
<text text-anchor="middle" x="405" y="-45.5" font-family="Verdana" font-size="10.00">CElement::getName</text>
</a>
</g>
</g>
<!-- Node5&#45;&gt;Node8 -->
<g id="edge7" class="edge"><title>Node5&#45;&gt;Node8</title>
<path fill="none" stroke="midnightblue" d="M279,-73.4361C300.046,-69.1534 325.046,-64.0663 347.137,-59.5711"/>
<polygon fill="midnightblue" stroke="midnightblue" points="347.956,-62.9762 357.057,-57.5523 346.56,-56.1167 347.956,-62.9762"/>
</g>
<!-- Node9 -->
<g id="node9" class="node"><title>Node9</title>
<g id="a_node9"><a xlink:href="classCElement.html#a9018d33125b066d6cd791659af95c6fe" target="_top" xlink:title="CElement::setName">
<polygon fill="white" stroke="black" points="348.5,-0.5 348.5,-19.5 461.5,-19.5 461.5,-0.5 348.5,-0.5"/>
<text text-anchor="middle" x="405" y="-7.5" font-family="Verdana" font-size="10.00">CElement::setName</text>
</a>
</g>
</g>
<!-- Node5&#45;&gt;Node9 -->
<g id="edge8" class="edge"><title>Node5&#45;&gt;Node9</title>
<path fill="none" stroke="midnightblue" d="M248.079,-73.3153C268.106,-61.5703 303.637,-41.7645 336,-29 341.912,-26.6683 348.218,-24.5018 354.516,-22.5292"/>
<polygon fill="midnightblue" stroke="midnightblue" points="355.769,-25.8079 364.349,-19.5931 353.766,-19.1006 355.769,-25.8079"/>
</g>
</g>
</svg>
