<?xml version="1.0" encoding="UTF-8" standalone="no"?>
<!DOCTYPE svg PUBLIC "-//W3C//DTD SVG 1.1//EN"
 "http://www.w3.org/Graphics/SVG/1.1/DTD/svg11.dtd">
<!-- Generated by graphviz version 2.38.0 (20140413.2041)
 -->
<!-- Title: CFloatingPointParameterType Pages: 1 -->
<svg width="164pt" height="252pt"
 viewBox="0.00 0.00 164.00 252.00" xmlns="http://www.w3.org/2000/svg" xmlns:xlink="http://www.w3.org/1999/xlink">
<g id="graph0" class="graph" transform="scale(1 1) rotate(0) translate(4 248)">
<title>CFloatingPointParameterType</title>
<polygon fill="white" stroke="none" points="-4,4 -4,-248 160,-248 160,4 -4,4"/>
<!-- Node1 -->
<g id="node1" class="node"><title>Node1</title>
<polygon fill="#bfbfbf" stroke="black" points="0,-0.5 0,-19.5 156,-19.5 156,-0.5 0,-0.5"/>
<text text-anchor="middle" x="78" y="-7.5" font-family="Verdana" font-size="10.00">CFloatingPointParameterType</text>
</g>
<!-- Node2 -->
<g id="node2" class="node"><title>Node2</title>
<g id="a_node2"><a xlink:href="classCParameterType.html" target="_top" xlink:title="CParameterType">
<polygon fill="white" stroke="black" points="30.5,-56.5 30.5,-75.5 125.5,-75.5 125.5,-56.5 30.5,-56.5"/>
<text text-anchor="middle" x="78" y="-63.5" font-family="Verdana" font-size="10.00">CParameterType</text>
</a>
</g>
</g>
<!-- Node2&#45;&gt;Node1 -->
<g id="edge1" class="edge"><title>Node2&#45;&gt;Node1</title>
<path fill="none" stroke="midnightblue" d="M78,-45.8045C78,-36.9102 78,-26.7798 78,-19.7511"/>
<polygon fill="midnightblue" stroke="midnightblue" points="74.5001,-46.083 78,-56.083 81.5001,-46.083 74.5001,-46.083"/>
</g>
<!-- Node3 -->
<g id="node3" class="node"><title>Node3</title>
<g id="a_node3"><a xlink:href="classCTypeElement.html" target="_top" xlink:title="CTypeElement">
<polygon fill="white" stroke="black" points="36,-112.5 36,-131.5 120,-131.5 120,-112.5 36,-112.5"/>
<text text-anchor="middle" x="78" y="-119.5" font-family="Verdana" font-size="10.00">CTypeElement</text>
</a>
</g>
</g>
<!-- Node3&#45;&gt;Node2 -->
<g id="edge2" class="edge"><title>Node3&#45;&gt;Node2</title>
<path fill="none" stroke="midnightblue" d="M78,-101.805C78,-92.9102 78,-82.7798 78,-75.7511"/>
<polygon fill="midnightblue" stroke="midnightblue" points="74.5001,-102.083 78,-112.083 81.5001,-102.083 74.5001,-102.083"/>
</g>
<!-- Node4 -->
<g id="node4" class="node"><title>Node4</title>
<g id="a_node4"><a xlink:href="classCElement.html" target="_top" xlink:title="CElement">
<polygon fill="white" stroke="black" points="46.5,-168.5 46.5,-187.5 109.5,-187.5 109.5,-168.5 46.5,-168.5"/>
<text text-anchor="middle" x="78" y="-175.5" font-family="Verdana" font-size="10.00">CElement</text>
</a>
</g>
</g>
<!-- Node4&#45;&gt;Node3 -->
<g id="edge3" class="edge"><title>Node4&#45;&gt;Node3</title>
<path fill="none" stroke="midnightblue" d="M78,-157.805C78,-148.91 78,-138.78 78,-131.751"/>
<polygon fill="midnightblue" stroke="midnightblue" points="74.5001,-158.083 78,-168.083 81.5001,-158.083 74.5001,-158.083"/>
</g>
<!-- Node5 -->
<g id="node5" class="node"><title>Node5</title>
<g id="a_node5"><a xlink:href="classIXmlSink.html" target="_top" xlink:title="IXmlSink">
<polygon fill="white" stroke="black" points="8.5,-224.5 8.5,-243.5 65.5,-243.5 65.5,-224.5 8.5,-224.5"/>
<text text-anchor="middle" x="37" y="-231.5" font-family="Verdana" font-size="10.00">IXmlSink</text>
</a>
</g>
</g>
<!-- Node5&#45;&gt;Node4 -->
<g id="edge4" class="edge"><title>Node5&#45;&gt;Node4</title>
<path fill="none" stroke="midnightblue" d="M50.0172,-215.855C57.1167,-206.505 65.604,-195.327 71.3557,-187.751"/>
<polygon fill="midnightblue" stroke="midnightblue" points="47.0299,-214.002 43.7703,-224.083 52.605,-218.235 47.0299,-214.002"/>
</g>
<!-- Node6 -->
<g id="node6" class="node"><title>Node6</title>
<g id="a_node6"><a xlink:href="classIXmlSource.html" target="_top" xlink:title="IXmlSource">
<polygon fill="white" stroke="black" points="83.5,-224.5 83.5,-243.5 154.5,-243.5 154.5,-224.5 83.5,-224.5"/>
<text text-anchor="middle" x="119" y="-231.5" font-family="Verdana" font-size="10.00">IXmlSource</text>
</a>
</g>
</g>
<!-- Node6&#45;&gt;Node4 -->
<g id="edge5" class="edge"><title>Node6&#45;&gt;Node4</title>
<path fill="none" stroke="midnightblue" d="M105.983,-215.855C98.8833,-206.505 90.396,-195.327 84.6443,-187.751"/>
<polygon fill="midnightblue" stroke="midnightblue" points="103.395,-218.235 112.23,-224.083 108.97,-214.002 103.395,-218.235"/>
</g>
</g>
</svg>
