<?xml version="1.0" encoding="UTF-8" standalone="no"?>
<!DOCTYPE svg PUBLIC "-//W3C//DTD SVG 1.1//EN"
 "http://www.w3.org/Graphics/SVG/1.1/DTD/svg11.dtd">
<!-- Generated by graphviz version 2.38.0 (20140413.2041)
 -->
<!-- Title: CParameterAccessContext::getBaseOffset Pages: 1 -->
<svg width="552pt" height="264pt"
 viewBox="0.00 0.00 552.00 263.50" xmlns="http://www.w3.org/2000/svg" xmlns:xlink="http://www.w3.org/1999/xlink">
<g id="graph0" class="graph" transform="scale(1 1) rotate(0) translate(4 259.5)">
<title>CParameterAccessContext::getBaseOffset</title>
<polygon fill="white" stroke="none" points="-4,4 -4,-259.5 548,-259.5 548,4 -4,4"/>
<!-- Node1 -->
<g id="node1" class="node"><title>Node1</title>
<polygon fill="#bfbfbf" stroke="black" points="0,-112 0,-142 145,-142 145,-112 0,-112"/>
<text text-anchor="start" x="8" y="-130" font-family="Verdana" font-size="10.00">CParameterAccessContext</text>
<text text-anchor="middle" x="72.5" y="-119" font-family="Verdana" font-size="10.00">::getBaseOffset</text>
</g>
<!-- Node2 -->
<g id="node2" class="node"><title>Node2</title>
<g id="a_node2"><a xlink:href="classCArrayParameter.html#a192ed81d047795b1823cab20337ad283" target="_top" xlink:title="CArrayParameter::serialize\lXmlSettings">
<polygon fill="white" stroke="black" points="191,-225 191,-255 335,-255 335,-225 191,-225"/>
<text text-anchor="start" x="199" y="-243" font-family="Verdana" font-size="10.00">CArrayParameter::serialize</text>
<text text-anchor="middle" x="263" y="-232" font-family="Verdana" font-size="10.00">XmlSettings</text>
</a>
</g>
</g>
<!-- Node1&#45;&gt;Node2 -->
<g id="edge1" class="edge"><title>Node1&#45;&gt;Node2</title>
<path fill="none" stroke="midnightblue" d="M95.397,-149.3C115.899,-169.049 148.213,-197.399 181,-215 188.002,-218.759 195.654,-222.044 203.371,-224.889"/>
<polygon fill="midnightblue" stroke="midnightblue" points="97.7344,-146.69 88.1415,-142.193 92.8359,-151.691 97.7344,-146.69"/>
</g>
<!-- Node3 -->
<g id="node3" class="node"><title>Node3</title>
<g id="a_node3"><a xlink:href="classCArrayParameter.html#a07b3af958a03b2295be159f69b22d42d" target="_top" xlink:title="CArrayParameter::accessValue">
<polygon fill="white" stroke="black" points="181,-186.5 181,-205.5 345,-205.5 345,-186.5 181,-186.5"/>
<text text-anchor="middle" x="263" y="-193.5" font-family="Verdana" font-size="10.00">CArrayParameter::accessValue</text>
</a>
</g>
</g>
<!-- Node1&#45;&gt;Node3 -->
<g id="edge2" class="edge"><title>Node1&#45;&gt;Node3</title>
<path fill="none" stroke="midnightblue" d="M110.525,-146.517C130.899,-156.667 156.876,-168.659 181,-177 191.511,-180.634 203.028,-183.801 213.993,-186.453"/>
<polygon fill="midnightblue" stroke="midnightblue" points="112.089,-143.386 101.585,-142.004 108.934,-149.635 112.089,-143.386"/>
</g>
<!-- Node4 -->
<g id="node4" class="node"><title>Node4</title>
<g id="a_node4"><a xlink:href="classCBaseParameter.html#a97e096908df72fa729a62c3f5c362ddd" target="_top" xlink:title="CBaseParameter::serialize\lXmlSettings">
<polygon fill="white" stroke="black" points="191.5,-137 191.5,-167 334.5,-167 334.5,-137 191.5,-137"/>
<text text-anchor="start" x="199.5" y="-155" font-family="Verdana" font-size="10.00">CBaseParameter::serialize</text>
<text text-anchor="middle" x="263" y="-144" font-family="Verdana" font-size="10.00">XmlSettings</text>
</a>
</g>
</g>
<!-- Node1&#45;&gt;Node4 -->
<g id="edge3" class="edge"><title>Node1&#45;&gt;Node4</title>
<path fill="none" stroke="midnightblue" d="M155.114,-137.824C167.216,-139.429 179.602,-141.072 191.452,-142.644"/>
<polygon fill="midnightblue" stroke="midnightblue" points="155.406,-134.332 145.033,-136.487 154.486,-141.272 155.406,-134.332"/>
</g>
<!-- Node5 -->
<g id="node5" class="node"><title>Node5</title>
<g id="a_node5"><a xlink:href="classCBaseParameter.html#a2b425561e193a3d54e7225d896a3d39b" target="_top" xlink:title="CBaseParameter::accessAs\lString">
<polygon fill="white" stroke="black" points="188.5,-88 188.5,-118 337.5,-118 337.5,-88 188.5,-88"/>
<text text-anchor="start" x="196.5" y="-106" font-family="Verdana" font-size="10.00">CBaseParameter::accessAs</text>
<text text-anchor="middle" x="263" y="-95" font-family="Verdana" font-size="10.00">String</text>
</a>
</g>
</g>
<!-- Node1&#45;&gt;Node5 -->
<g id="edge4" class="edge"><title>Node1&#45;&gt;Node5</title>
<path fill="none" stroke="midnightblue" d="M155.094,-116.611C166.142,-115.205 177.426,-113.768 188.324,-112.381"/>
<polygon fill="midnightblue" stroke="midnightblue" points="154.51,-113.157 145.033,-117.892 155.395,-120.101 154.51,-113.157"/>
</g>
<!-- Node7 -->
<g id="node7" class="node"><title>Node7</title>
<g id="a_node7"><a xlink:href="classCBitParameterBlock.html#a74485c7734eb44648b1182cf8e884d40" target="_top" xlink:title="CBitParameterBlock\l::setDefaultValues">
<polygon fill="white" stroke="black" points="207,-39 207,-69 319,-69 319,-39 207,-39"/>
<text text-anchor="start" x="215" y="-57" font-family="Verdana" font-size="10.00">CBitParameterBlock</text>
<text text-anchor="middle" x="263" y="-46" font-family="Verdana" font-size="10.00">::setDefaultValues</text>
</a>
</g>
</g>
<!-- Node1&#45;&gt;Node7 -->
<g id="edge6" class="edge"><title>Node1&#45;&gt;Node7</title>
<path fill="none" stroke="midnightblue" d="M113.719,-107.657C133.709,-98.3995 158.373,-87.5079 181,-79 190.23,-75.5296 200.176,-72.1633 209.832,-69.0843"/>
<polygon fill="midnightblue" stroke="midnightblue" points="112.179,-104.513 104.6,-111.916 115.142,-110.855 112.179,-104.513"/>
</g>
<!-- Node8 -->
<g id="node8" class="node"><title>Node8</title>
<g id="a_node8"><a xlink:href="classCParameter.html#a26fa5e3c97be1577ad15d04295ada708" target="_top" xlink:title="CParameter::setDefaultValues">
<polygon fill="white" stroke="black" points="182.5,-0.5 182.5,-19.5 343.5,-19.5 343.5,-0.5 182.5,-0.5"/>
<text text-anchor="middle" x="263" y="-7.5" font-family="Verdana" font-size="10.00">CParameter::setDefaultValues</text>
</a>
</g>
</g>
<!-- Node1&#45;&gt;Node8 -->
<g id="edge7" class="edge"><title>Node1&#45;&gt;Node8</title>
<path fill="none" stroke="midnightblue" d="M92.7425,-104.024C112.604,-81.7967 145.604,-48.7927 181,-30 189.188,-25.6528 198.344,-22.2292 207.473,-19.5392"/>
<polygon fill="midnightblue" stroke="midnightblue" points="89.994,-101.85 86.0395,-111.679 95.2604,-106.462 89.994,-101.85"/>
</g>
<!-- Node6 -->
<g id="node6" class="node"><title>Node6</title>
<g id="a_node6"><a xlink:href="classCBaseParameter.html#a4a9b3e3a2d1ea65a8dc7048559db8dc2" target="_top" xlink:title="CBaseParameter::accessValue">
<polygon fill="white" stroke="black" points="381,-93.5 381,-112.5 544,-112.5 544,-93.5 381,-93.5"/>
<text text-anchor="middle" x="462.5" y="-100.5" font-family="Verdana" font-size="10.00">CBaseParameter::accessValue</text>
</a>
</g>
</g>
<!-- Node5&#45;&gt;Node6 -->
<g id="edge5" class="edge"><title>Node5&#45;&gt;Node6</title>
<path fill="none" stroke="midnightblue" d="M347.595,-103C358.639,-103 369.942,-103 380.933,-103"/>
<polygon fill="midnightblue" stroke="midnightblue" points="347.542,-99.5001 337.542,-103 347.542,-106.5 347.542,-99.5001"/>
</g>
</g>
</svg>
