<?xml version="1.0" encoding="UTF-8" standalone="no"?>
<!DOCTYPE svg PUBLIC "-//W3C//DTD SVG 1.1//EN"
 "http://www.w3.org/Graphics/SVG/1.1/DTD/svg11.dtd">
<!-- Generated by graphviz version 2.38.0 (20140413.2041)
 -->
<!-- Title: CConnectionSocket::connect Pages: 1 -->
<svg width="291pt" height="66pt"
 viewBox="0.00 0.00 291.00 66.00" xmlns="http://www.w3.org/2000/svg" xmlns:xlink="http://www.w3.org/1999/xlink">
<g id="graph0" class="graph" transform="scale(1 1) rotate(0) translate(4 62)">
<title>CConnectionSocket::connect</title>
<polygon fill="white" stroke="none" points="-4,4 -4,-62 287,-62 287,4 -4,4"/>
<!-- Node1 -->
<g id="node1" class="node"><title>Node1</title>
<polygon fill="#bfbfbf" stroke="black" points="0,-14 0,-44 116,-44 116,-14 0,-14"/>
<text text-anchor="start" x="8" y="-32" font-family="Verdana" font-size="10.00">CConnectionSocket::</text>
<text text-anchor="middle" x="58" y="-21" font-family="Verdana" font-size="10.00">connect</text>
</g>
<!-- Node2 -->
<g id="node2" class="node"><title>Node2</title>
<g id="a_node2"><a xlink:href="classCSocket.html#a489715f4b7fc3e5b5efd832766208acd" target="_top" xlink:title="CSocket::initSockAddrIn">
<polygon fill="white" stroke="black" points="152,-38.5 152,-57.5 283,-57.5 283,-38.5 152,-38.5"/>
<text text-anchor="middle" x="217.5" y="-45.5" font-family="Verdana" font-size="10.00">CSocket::initSockAddrIn</text>
</a>
</g>
</g>
<!-- Node1&#45;&gt;Node2 -->
<g id="edge1" class="edge"><title>Node1&#45;&gt;Node2</title>
<path fill="none" stroke="midnightblue" d="M116.307,-35.9132C124.588,-36.9122 133.212,-37.9526 141.773,-38.9853"/>
<polygon fill="midnightblue" stroke="midnightblue" points="141.421,-42.4682 151.768,-40.1911 142.26,-35.5186 141.421,-42.4682"/>
</g>
<!-- Node3 -->
<g id="node3" class="node"><title>Node3</title>
<g id="a_node3"><a xlink:href="classCSocket.html#aa925e6f828f6084610bb19c80709ff0a" target="_top" xlink:title="CSocket::getFd">
<polygon fill="white" stroke="black" points="173,-0.5 173,-19.5 262,-19.5 262,-0.5 173,-0.5"/>
<text text-anchor="middle" x="217.5" y="-7.5" font-family="Verdana" font-size="10.00">CSocket::getFd</text>
</a>
</g>
</g>
<!-- Node1&#45;&gt;Node3 -->
<g id="edge2" class="edge"><title>Node1&#45;&gt;Node3</title>
<path fill="none" stroke="midnightblue" d="M116.307,-22.0868C131.457,-20.2592 147.753,-18.2932 162.71,-16.4889"/>
<polygon fill="midnightblue" stroke="midnightblue" points="163.311,-19.9419 172.82,-15.2693 162.473,-12.9922 163.311,-19.9419"/>
</g>
</g>
</svg>
