<?xml version="1.0" encoding="UTF-8" standalone="no"?>
<!DOCTYPE svg PUBLIC "-//W3C//DTD SVG 1.1//EN"
 "http://www.w3.org/Graphics/SVG/1.1/DTD/svg11.dtd">
<!-- Generated by graphviz version 2.36.0 (20140111.2315)
 -->
<!-- Title: CBitParameterType::fromBlackboard Pages: 1 -->
<svg width="304pt" height="87pt"
 viewBox="0.00 0.00 304.00 87.00" xmlns="http://www.w3.org/2000/svg" xmlns:xlink="http://www.w3.org/1999/xlink">
<g id="graph0" class="graph" transform="scale(1 1) rotate(0) translate(4 83)">
<title>CBitParameterType::fromBlackboard</title>
<polygon fill="white" stroke="none" points="-4,4 -4,-83 300,-83 300,4 -4,4"/>
<!-- Node1 -->
<g id="node1" class="node"><title>Node1</title>
<polygon fill="#bfbfbf" stroke="black" points="0.5,-24 0.5,-54 113.5,-54 113.5,-24 0.5,-24"/>
<text text-anchor="start" x="8.5" y="-42" font-family="Verdana" font-size="10.00">CBitParameterType::</text>
<text text-anchor="middle" x="57" y="-31" font-family="Verdana" font-size="10.00">fromBlackboard</text>
</g>
<!-- Node2 -->
<g id="node2" class="node"><title>Node2</title>
<g id="a_node2"><a xlink:href="classCParameterAccessContext.html#aa36964a7a0cc063c1a5589adb29ed5a7" target="_top" xlink:title="CParameterAccessContext\l::valueSpaceIsRaw">
<polygon fill="white" stroke="black" points="150.5,-49 150.5,-79 295.5,-79 295.5,-49 150.5,-49"/>
<text text-anchor="start" x="158.5" y="-67" font-family="Verdana" font-size="10.00">CParameterAccessContext</text>
<text text-anchor="middle" x="223" y="-56" font-family="Verdana" font-size="10.00">::valueSpaceIsRaw</text>
</a>
</g>
</g>
<!-- Node1&#45;&gt;Node2 -->
<g id="edge1" class="edge"><title>Node1&#45;&gt;Node2</title>
<path fill="none" stroke="midnightblue" d="M113.523,-47.4639C122.097,-48.771 131.105,-50.144 140.11,-51.5168"/>
<polygon fill="midnightblue" stroke="midnightblue" points="139.84,-55.016 150.254,-53.0631 140.895,-48.096 139.84,-55.016"/>
</g>
<!-- Node3 -->
<g id="node3" class="node"><title>Node3</title>
<g id="a_node3"><a xlink:href="classCParameterAccessContext.html#adc2c2dabdfb9af278c0f5237ddcd3643" target="_top" xlink:title="Returns Output Raw Format for user get value interpretation. ">
<polygon fill="white" stroke="black" points="150.5,-0 150.5,-30 295.5,-30 295.5,-0 150.5,-0"/>
<text text-anchor="start" x="158.5" y="-18" font-family="Verdana" font-size="10.00">CParameterAccessContext</text>
<text text-anchor="middle" x="223" y="-7" font-family="Verdana" font-size="10.00">::outputRawFormatIsHex</text>
</a>
</g>
</g>
<!-- Node1&#45;&gt;Node3 -->
<g id="edge2" class="edge"><title>Node1&#45;&gt;Node3</title>
<path fill="none" stroke="midnightblue" d="M113.523,-30.8747C122.097,-29.6199 131.105,-28.3018 140.11,-26.9839"/>
<polygon fill="midnightblue" stroke="midnightblue" points="140.866,-30.4107 150.254,-25.4995 139.852,-23.4844 140.866,-30.4107"/>
</g>
</g>
</svg>
