<?xml version="1.0" encoding="UTF-8" standalone="no"?>
<!DOCTYPE svg PUBLIC "-//W3C//DTD SVG 1.1//EN"
 "http://www.w3.org/Graphics/SVG/1.1/DTD/svg11.dtd">
<!-- Generated by graphviz version 2.38.0 (20140413.2041)
 -->
<!-- Title: CTypeElement::getArrayLength Pages: 1 -->
<svg width="743pt" height="83pt"
 viewBox="0.00 0.00 743.00 83.00" xmlns="http://www.w3.org/2000/svg" xmlns:xlink="http://www.w3.org/1999/xlink">
<g id="graph0" class="graph" transform="scale(1 1) rotate(0) translate(4 79)">
<title>CTypeElement::getArrayLength</title>
<polygon fill="white" stroke="none" points="-4,4 -4,-79 739,-79 739,4 -4,4"/>
<!-- Node1 -->
<g id="node1" class="node"><title>Node1</title>
<polygon fill="#bfbfbf" stroke="black" points="0,-28 0,-47 164,-47 164,-28 0,-28"/>
<text text-anchor="middle" x="82" y="-35" font-family="Verdana" font-size="10.00">CTypeElement::getArrayLength</text>
</g>
<!-- Node2 -->
<g id="node2" class="node"><title>Node2</title>
<g id="a_node2"><a xlink:href="classCInstanceConfigurableElement.html#a590967d30772d8ada0ac367f4273d248" target="_top" xlink:title="CInstanceConfigurableElement\l::getArrayLength">
<polygon fill="white" stroke="black" points="200,-44.5 200,-74.5 364,-74.5 364,-44.5 200,-44.5"/>
<text text-anchor="start" x="208" y="-62.5" font-family="Verdana" font-size="10.00">CInstanceConfigurableElement</text>
<text text-anchor="middle" x="282" y="-51.5" font-family="Verdana" font-size="10.00">::getArrayLength</text>
</a>
</g>
</g>
<!-- Node1&#45;&gt;Node2 -->
<g id="edge1" class="edge"><title>Node1&#45;&gt;Node2</title>
<path fill="none" stroke="midnightblue" d="M174.085,-47.6205C182.63,-48.57 191.254,-49.5282 199.7,-50.4667"/>
<polygon fill="midnightblue" stroke="midnightblue" points="174.431,-44.1375 164.105,-46.5117 173.658,-51.0947 174.431,-44.1375"/>
</g>
<!-- Node5 -->
<g id="node5" class="node"><title>Node5</title>
<g id="a_node5"><a xlink:href="classCTypeElement.html#ac4118594de3638c76ab40ccc4ecbb2a8" target="_top" xlink:title="CTypeElement::toXml">
<polygon fill="white" stroke="black" points="223,-6 223,-25 341,-25 341,-6 223,-6"/>
<text text-anchor="middle" x="282" y="-13" font-family="Verdana" font-size="10.00">CTypeElement::toXml</text>
</a>
</g>
</g>
<!-- Node1&#45;&gt;Node5 -->
<g id="edge4" class="edge"><title>Node1&#45;&gt;Node5</title>
<path fill="none" stroke="midnightblue" d="M174.308,-27.3547C190.779,-25.5246 207.536,-23.6627 222.739,-21.9734"/>
<polygon fill="midnightblue" stroke="midnightblue" points="173.658,-23.9053 164.105,-28.4883 174.431,-30.8625 173.658,-23.9053"/>
</g>
<!-- Node3 -->
<g id="node3" class="node"><title>Node3</title>
<g id="a_node3"><a xlink:href="classElementHandle.html#a338edfe012745ce3dd8ecfe7180385aa" target="_top" xlink:title="ElementHandle::getArrayLength">
<polygon fill="white" stroke="black" points="400,-50 400,-69 570,-69 570,-50 400,-50"/>
<text text-anchor="middle" x="485" y="-57" font-family="Verdana" font-size="10.00">ElementHandle::getArrayLength</text>
</a>
</g>
</g>
<!-- Node2&#45;&gt;Node3 -->
<g id="edge2" class="edge"><title>Node2&#45;&gt;Node3</title>
<path fill="none" stroke="midnightblue" d="M374.176,-59.5C382.743,-59.5 391.402,-59.5 399.9,-59.5"/>
<polygon fill="midnightblue" stroke="midnightblue" points="374.175,-56.0001 364.175,-59.5 374.175,-63.0001 374.175,-56.0001"/>
</g>
<!-- Node4 -->
<g id="node4" class="node"><title>Node4</title>
<g id="a_node4"><a xlink:href="classElementHandle.html#a7dbe78e90ccb7a01d1a00011ae6b009e" target="_top" xlink:title="ElementHandle::isArray">
<polygon fill="white" stroke="black" points="606,-50 606,-69 735,-69 735,-50 606,-50"/>
<text text-anchor="middle" x="670.5" y="-57" font-family="Verdana" font-size="10.00">ElementHandle::isArray</text>
</a>
</g>
</g>
<!-- Node3&#45;&gt;Node4 -->
<g id="edge3" class="edge"><title>Node3&#45;&gt;Node4</title>
<path fill="none" stroke="midnightblue" d="M580.35,-59.5C588.973,-59.5 597.565,-59.5 605.822,-59.5"/>
<polygon fill="midnightblue" stroke="midnightblue" points="580.231,-56.0001 570.231,-59.5 580.231,-63.0001 580.231,-56.0001"/>
</g>
<!-- Node6 -->
<g id="node6" class="node"><title>Node6</title>
<g id="a_node6"><a xlink:href="classCBaseParameter.html#a42621ccce8ce4235e124789c7f2a9b8a" target="_top" xlink:title="Serialize the structure to xml. ">
<polygon fill="white" stroke="black" points="411.5,-0.5 411.5,-30.5 558.5,-30.5 558.5,-0.5 411.5,-0.5"/>
<text text-anchor="start" x="419.5" y="-18.5" font-family="Verdana" font-size="10.00">CBaseParameter::structure</text>
<text text-anchor="middle" x="485" y="-7.5" font-family="Verdana" font-size="10.00">ToXml</text>
</a>
</g>
</g>
<!-- Node5&#45;&gt;Node6 -->
<g id="edge5" class="edge"><title>Node5&#45;&gt;Node6</title>
<path fill="none" stroke="midnightblue" d="M351.362,-15.5C370.68,-15.5 391.769,-15.5 411.33,-15.5"/>
<polygon fill="midnightblue" stroke="midnightblue" points="351.138,-12.0001 341.138,-15.5 351.137,-19.0001 351.138,-12.0001"/>
</g>
</g>
</svg>
