<?xml version="1.0" encoding="UTF-8" standalone="no"?>
<!DOCTYPE svg PUBLIC "-//W3C//DTD SVG 1.1//EN"
 "http://www.w3.org/Graphics/SVG/1.1/DTD/svg11.dtd">
<!-- Generated by graphviz version 2.36.0 (20140111.2315)
 -->
<!-- Title: CSelectionCriterionRule::logValue Pages: 1 -->
<svg width="450pt" height="77pt"
 viewBox="0.00 0.00 450.00 77.00" xmlns="http://www.w3.org/2000/svg" xmlns:xlink="http://www.w3.org/1999/xlink">
<g id="graph0" class="graph" transform="scale(1 1) rotate(0) translate(4 73)">
<title>CSelectionCriterionRule::logValue</title>
<polygon fill="white" stroke="none" points="-4,4 -4,-73 446,-73 446,4 -4,4"/>
<!-- Node1 -->
<g id="node1" class="node"><title>Node1</title>
<polygon fill="#bfbfbf" stroke="black" points="0,-22 0,-52 128,-52 128,-22 0,-22"/>
<text text-anchor="start" x="8" y="-40" font-family="Verdana" font-size="10.00">CSelectionCriterionRule</text>
<text text-anchor="middle" x="64" y="-29" font-family="Verdana" font-size="10.00">::logValue</text>
</g>
<!-- Node2 -->
<g id="node2" class="node"><title>Node2</title>
<g id="a_node2"><a xlink:href="classCSelectionCriterionRule.html#a0c1b3650a362380978983d23b6e9ec17" target="_top" xlink:title="CSelectionCriterionRule\l::dump">
<polygon fill="white" stroke="black" points="164,-22 164,-52 292,-52 292,-22 164,-22"/>
<text text-anchor="start" x="172" y="-40" font-family="Verdana" font-size="10.00">CSelectionCriterionRule</text>
<text text-anchor="middle" x="228" y="-29" font-family="Verdana" font-size="10.00">::dump</text>
</a>
</g>
</g>
<!-- Node1&#45;&gt;Node2 -->
<g id="edge1" class="edge"><title>Node1&#45;&gt;Node2</title>
<path fill="none" stroke="midnightblue" d="M128.097,-37C136.435,-37 145.038,-37 153.53,-37"/>
<polygon fill="midnightblue" stroke="midnightblue" points="153.808,-40.5001 163.808,-37 153.808,-33.5001 153.808,-40.5001"/>
</g>
<!-- Node3 -->
<g id="node3" class="node"><title>Node3</title>
<g id="a_node3"><a xlink:href="classCElement.html#a49581fb6412e29e932962acd82d52d6a" target="_top" xlink:title="CElement::getName">
<polygon fill="white" stroke="black" points="328,-49.5 328,-68.5 442,-68.5 442,-49.5 328,-49.5"/>
<text text-anchor="middle" x="385" y="-56.5" font-family="Verdana" font-size="10.00">CElement::getName</text>
</a>
</g>
</g>
<!-- Node2&#45;&gt;Node3 -->
<g id="edge2" class="edge"><title>Node2&#45;&gt;Node3</title>
<path fill="none" stroke="midnightblue" d="M292.044,-45.9482C300.599,-47.1624 309.396,-48.4111 318.001,-49.6324"/>
<polygon fill="midnightblue" stroke="midnightblue" points="317.594,-53.1096 327.987,-51.0497 318.578,-46.1791 317.594,-53.1096"/>
</g>
<!-- Node4 -->
<g id="node4" class="node"><title>Node4</title>
<g id="a_node4"><a xlink:href="classCSelectionCriterion.html#a3551b612a002f7cc311f21be1685f794" target="_top" xlink:title="CSelectionCriterion\l::getCriterionType">
<polygon fill="white" stroke="black" points="331,-0 331,-30 439,-30 439,-0 331,-0"/>
<text text-anchor="start" x="339" y="-18" font-family="Verdana" font-size="10.00">CSelectionCriterion</text>
<text text-anchor="middle" x="385" y="-7" font-family="Verdana" font-size="10.00">::getCriterionType</text>
</a>
</g>
</g>
<!-- Node2&#45;&gt;Node4 -->
<g id="edge3" class="edge"><title>Node2&#45;&gt;Node4</title>
<path fill="none" stroke="midnightblue" d="M292.044,-28.0518C301.523,-26.7064 311.301,-25.3185 320.784,-23.9727"/>
<polygon fill="midnightblue" stroke="midnightblue" points="321.52,-27.4033 330.929,-22.5327 320.536,-20.4728 321.52,-27.4033"/>
</g>
</g>
</svg>
