<?xml version="1.0" encoding="UTF-8" standalone="no"?>
<!DOCTYPE svg PUBLIC "-//W3C//DTD SVG 1.1//EN"
 "http://www.w3.org/Graphics/SVG/1.1/DTD/svg11.dtd">
<!-- Generated by graphviz version 2.38.0 (20140413.2041)
 -->
<!-- Title: CElementLocator::locate Pages: 1 -->
<svg width="596pt" height="196pt"
 viewBox="0.00 0.00 596.00 196.00" xmlns="http://www.w3.org/2000/svg" xmlns:xlink="http://www.w3.org/1999/xlink">
<g id="graph0" class="graph" transform="scale(1 1) rotate(0) translate(4 192)">
<title>CElementLocator::locate</title>
<polygon fill="white" stroke="none" points="-4,4 -4,-192 592,-192 592,4 -4,4"/>
<!-- Node1 -->
<g id="node1" class="node"><title>Node1</title>
<polygon fill="#bfbfbf" stroke="black" points="0,-86 0,-105 134,-105 134,-86 0,-86"/>
<text text-anchor="middle" x="67" y="-93" font-family="Verdana" font-size="10.00">CElementLocator::locate</text>
</g>
<!-- Node2 -->
<g id="node2" class="node"><title>Node2</title>
<g id="a_node2"><a xlink:href="classCParameterMgr.html#a25055f536c2d537e86852c87a4e1a061" target="_top" xlink:title="CParameterMgr::accessConfiguration\lValue">
<polygon fill="white" stroke="black" points="170,-156.5 170,-186.5 364,-186.5 364,-156.5 170,-156.5"/>
<text text-anchor="start" x="178" y="-174.5" font-family="Verdana" font-size="10.00">CParameterMgr::accessConfiguration</text>
<text text-anchor="middle" x="267" y="-163.5" font-family="Verdana" font-size="10.00">Value</text>
</a>
</g>
</g>
<!-- Node1&#45;&gt;Node2 -->
<g id="edge1" class="edge"><title>Node1&#45;&gt;Node2</title>
<path fill="none" stroke="midnightblue" d="M93.7926,-109.858C114.057,-120.714 143.232,-135.421 170,-145.5 180.665,-149.516 192.212,-153.189 203.477,-156.43"/>
<polygon fill="midnightblue" stroke="midnightblue" points="95.3392,-106.715 84.8803,-105.024 92.0016,-112.868 95.3392,-106.715"/>
</g>
<!-- Node4 -->
<g id="node4" class="node"><title>Node4</title>
<g id="a_node4"><a xlink:href="classCParameterMgr.html#ae9941471fb32f02b3620cf46cd13ebbb" target="_top" xlink:title="CParameterMgr::addConfigurable\lElementToDomain">
<polygon fill="white" stroke="black" points="179,-106.5 179,-136.5 355,-136.5 355,-106.5 179,-106.5"/>
<text text-anchor="start" x="187" y="-124.5" font-family="Verdana" font-size="10.00">CParameterMgr::addConfigurable</text>
<text text-anchor="middle" x="267" y="-113.5" font-family="Verdana" font-size="10.00">ElementToDomain</text>
</a>
</g>
</g>
<!-- Node1&#45;&gt;Node4 -->
<g id="edge3" class="edge"><title>Node1&#45;&gt;Node4</title>
<path fill="none" stroke="midnightblue" d="M144.397,-105.532C155.638,-107.008 167.289,-108.538 178.729,-110.04"/>
<polygon fill="midnightblue" stroke="midnightblue" points="144.577,-102.026 134.206,-104.194 143.666,-108.966 144.577,-102.026"/>
</g>
<!-- Node6 -->
<g id="node6" class="node"><title>Node6</title>
<g id="a_node6"><a xlink:href="classCParameterMgr.html#a4f307490c67f2dde0b08e638500dd5d4" target="_top" xlink:title="CParameterMgr::removeConfigurable\lElementFromDomain">
<polygon fill="white" stroke="black" points="170,-55.5 170,-85.5 364,-85.5 364,-55.5 170,-55.5"/>
<text text-anchor="start" x="178" y="-73.5" font-family="Verdana" font-size="10.00">CParameterMgr::removeConfigurable</text>
<text text-anchor="middle" x="267" y="-62.5" font-family="Verdana" font-size="10.00">ElementFromDomain</text>
</a>
</g>
</g>
<!-- Node1&#45;&gt;Node6 -->
<g id="edge5" class="edge"><title>Node1&#45;&gt;Node6</title>
<path fill="none" stroke="midnightblue" d="M144.299,-85.8663C152.681,-84.808 161.292,-83.7207 169.874,-82.6371"/>
<polygon fill="midnightblue" stroke="midnightblue" points="143.689,-82.4154 134.206,-87.1406 144.566,-89.3603 143.689,-82.4154"/>
</g>
<!-- Node8 -->
<g id="node8" class="node"><title>Node8</title>
<g id="a_node8"><a xlink:href="classCParameterMgr.html#a042735242f31241743085d2d9d7edcc5" target="_top" xlink:title="CParameterMgr::split">
<polygon fill="white" stroke="black" points="208.5,-12 208.5,-31 325.5,-31 325.5,-12 208.5,-12"/>
<text text-anchor="middle" x="267" y="-19" font-family="Verdana" font-size="10.00">CParameterMgr::split</text>
</a>
</g>
</g>
<!-- Node1&#45;&gt;Node8 -->
<g id="edge7" class="edge"><title>Node1&#45;&gt;Node8</title>
<path fill="none" stroke="midnightblue" d="M93.7379,-80.9944C113.973,-70.0592 143.135,-55.3178 170,-45.5 185.813,-39.721 203.588,-34.8495 219.505,-31.0375"/>
<polygon fill="midnightblue" stroke="midnightblue" points="91.929,-77.9945 84.8405,-85.8688 95.2923,-84.1336 91.929,-77.9945"/>
</g>
<!-- Node3 -->
<g id="node3" class="node"><title>Node3</title>
<g id="a_node3"><a xlink:href="classCParameterMgrFullConnector.html#a64a98bccd79559d5466ff3fd8e93b890" target="_top" xlink:title="CParameterMgrFullConnector\l::accessConfigurationValue">
<polygon fill="white" stroke="black" points="416,-157.5 416,-187.5 572,-187.5 572,-157.5 416,-157.5"/>
<text text-anchor="start" x="424" y="-175.5" font-family="Verdana" font-size="10.00">CParameterMgrFullConnector</text>
<text text-anchor="middle" x="494" y="-164.5" font-family="Verdana" font-size="10.00">::accessConfigurationValue</text>
</a>
</g>
</g>
<!-- Node2&#45;&gt;Node3 -->
<g id="edge2" class="edge"><title>Node2&#45;&gt;Node3</title>
<path fill="none" stroke="midnightblue" d="M374.269,-171.972C388.32,-172.035 402.502,-172.098 415.933,-172.157"/>
<polygon fill="midnightblue" stroke="midnightblue" points="374.088,-168.472 364.073,-171.927 374.057,-175.471 374.088,-168.472"/>
</g>
<!-- Node5 -->
<g id="node5" class="node"><title>Node5</title>
<g id="a_node5"><a xlink:href="classCParameterMgrFullConnector.html#a9b8231307d300d1fbc9b01b7d1047650" target="_top" xlink:title="CParameterMgrFullConnector\l::addConfigurableElementToDomain">
<polygon fill="white" stroke="black" points="400,-108.5 400,-138.5 588,-138.5 588,-108.5 400,-108.5"/>
<text text-anchor="start" x="408" y="-126.5" font-family="Verdana" font-size="10.00">CParameterMgrFullConnector</text>
<text text-anchor="middle" x="494" y="-115.5" font-family="Verdana" font-size="10.00">::addConfigurableElementToDomain</text>
</a>
</g>
</g>
<!-- Node4&#45;&gt;Node5 -->
<g id="edge4" class="edge"><title>Node4&#45;&gt;Node5</title>
<path fill="none" stroke="midnightblue" d="M365.646,-122.368C376.976,-122.469 388.509,-122.571 399.777,-122.671"/>
<polygon fill="midnightblue" stroke="midnightblue" points="365.344,-118.865 355.313,-122.276 365.281,-125.865 365.344,-118.865"/>
</g>
<!-- Node7 -->
<g id="node7" class="node"><title>Node7</title>
<g id="a_node7"><a xlink:href="classCParameterMgrFullConnector.html#aeb023e264ddb06255bea04ddb2c65708" target="_top" xlink:title="CParameterMgrFullConnector\l::removeConfigurableElementFrom\lDomain">
<polygon fill="white" stroke="black" points="402.5,-49 402.5,-90 585.5,-90 585.5,-49 402.5,-49"/>
<text text-anchor="start" x="410.5" y="-78" font-family="Verdana" font-size="10.00">CParameterMgrFullConnector</text>
<text text-anchor="start" x="410.5" y="-67" font-family="Verdana" font-size="10.00">::removeConfigurableElementFrom</text>
<text text-anchor="middle" x="494" y="-56" font-family="Verdana" font-size="10.00">Domain</text>
</a>
</g>
</g>
<!-- Node6&#45;&gt;Node7 -->
<g id="edge6" class="edge"><title>Node6&#45;&gt;Node7</title>
<path fill="none" stroke="midnightblue" d="M374.21,-70.028C383.584,-69.9863 393.017,-69.9444 402.246,-69.9033"/>
<polygon fill="midnightblue" stroke="midnightblue" points="374.057,-66.5285 364.073,-70.073 374.088,-73.5284 374.057,-66.5285"/>
</g>
<!-- Node9 -->
<g id="node9" class="node"><title>Node9</title>
<g id="a_node9"><a xlink:href="classCParameterMgrFullConnector.html#a760e854b7cf96957927c1c64869909f4" target="_top" xlink:title="CParameterMgrFullConnector\l::split">
<polygon fill="white" stroke="black" points="416,-0.5 416,-30.5 572,-30.5 572,-0.5 416,-0.5"/>
<text text-anchor="start" x="424" y="-18.5" font-family="Verdana" font-size="10.00">CParameterMgrFullConnector</text>
<text text-anchor="middle" x="494" y="-7.5" font-family="Verdana" font-size="10.00">::split</text>
</a>
</g>
</g>
<!-- Node8&#45;&gt;Node9 -->
<g id="edge8" class="edge"><title>Node8&#45;&gt;Node9</title>
<path fill="none" stroke="midnightblue" d="M335.869,-19.6902C361.123,-19.0167 389.959,-18.2478 415.975,-17.554"/>
<polygon fill="midnightblue" stroke="midnightblue" points="335.554,-16.1972 325.651,-19.9626 335.741,-23.1947 335.554,-16.1972"/>
</g>
</g>
</svg>
