<?xml version="1.0" encoding="UTF-8" standalone="no"?>
<!DOCTYPE svg PUBLIC "-//W3C//DTD SVG 1.1//EN"
 "http://www.w3.org/Graphics/SVG/1.1/DTD/svg11.dtd">
<!-- Generated by graphviz version 2.38.0 (20140413.2041)
 -->
<!-- Title: CSelectionCriterionType Pages: 1 -->
<svg width="294pt" height="140pt"
 viewBox="0.00 0.00 294.00 140.00" xmlns="http://www.w3.org/2000/svg" xmlns:xlink="http://www.w3.org/1999/xlink">
<g id="graph0" class="graph" transform="scale(1 1) rotate(0) translate(4 136)">
<title>CSelectionCriterionType</title>
<polygon fill="white" stroke="none" points="-4,4 -4,-136 290,-136 290,4 -4,4"/>
<!-- Node1 -->
<g id="node1" class="node"><title>Node1</title>
<polygon fill="#bfbfbf" stroke="black" points="71,-0.5 71,-19.5 200,-19.5 200,-0.5 71,-0.5"/>
<text text-anchor="middle" x="135.5" y="-7.5" font-family="Verdana" font-size="10.00">CSelectionCriterionType</text>
</g>
<!-- Node2 -->
<g id="node2" class="node"><title>Node2</title>
<g id="a_node2"><a xlink:href="classCElement.html" target="_top" xlink:title="CElement">
<polygon fill="white" stroke="black" points="38,-56.5 38,-75.5 101,-75.5 101,-56.5 38,-56.5"/>
<text text-anchor="middle" x="69.5" y="-63.5" font-family="Verdana" font-size="10.00">CElement</text>
</a>
</g>
</g>
<!-- Node2&#45;&gt;Node1 -->
<g id="edge1" class="edge"><title>Node2&#45;&gt;Node1</title>
<path fill="none" stroke="midnightblue" d="M88.0537,-49.8197C99.8781,-40.1452 114.786,-27.9481 124.703,-19.8339"/>
<polygon fill="midnightblue" stroke="midnightblue" points="85.6273,-47.2827 80.104,-56.324 90.06,-52.7004 85.6273,-47.2827"/>
</g>
<!-- Node3 -->
<g id="node3" class="node"><title>Node3</title>
<polygon fill="white" stroke="#bfbfbf" points="0,-112.5 0,-131.5 57,-131.5 57,-112.5 0,-112.5"/>
<text text-anchor="middle" x="28.5" y="-119.5" font-family="Verdana" font-size="10.00">IXmlSink</text>
</g>
<!-- Node3&#45;&gt;Node2 -->
<g id="edge2" class="edge"><title>Node3&#45;&gt;Node2</title>
<path fill="none" stroke="midnightblue" d="M41.5172,-103.855C48.6167,-94.5048 57.104,-83.3265 62.8557,-75.7511"/>
<polygon fill="midnightblue" stroke="midnightblue" points="38.5299,-102.002 35.2703,-112.083 44.105,-106.235 38.5299,-102.002"/>
</g>
<!-- Node4 -->
<g id="node4" class="node"><title>Node4</title>
<polygon fill="white" stroke="#bfbfbf" points="75,-112.5 75,-131.5 146,-131.5 146,-112.5 75,-112.5"/>
<text text-anchor="middle" x="110.5" y="-119.5" font-family="Verdana" font-size="10.00">IXmlSource</text>
</g>
<!-- Node4&#45;&gt;Node2 -->
<g id="edge3" class="edge"><title>Node4&#45;&gt;Node2</title>
<path fill="none" stroke="midnightblue" d="M97.4828,-103.855C90.3833,-94.5048 81.896,-83.3265 76.1443,-75.7511"/>
<polygon fill="midnightblue" stroke="midnightblue" points="94.895,-106.235 103.73,-112.083 100.47,-102.002 94.895,-106.235"/>
</g>
<!-- Node5 -->
<g id="node5" class="node"><title>Node5</title>
<polygon fill="white" stroke="#bfbfbf" points="119,-56.5 119,-75.5 286,-75.5 286,-56.5 119,-56.5"/>
<text text-anchor="middle" x="202.5" y="-63.5" font-family="Verdana" font-size="10.00">ISelectionCriterionTypeInterface</text>
</g>
<!-- Node5&#45;&gt;Node1 -->
<g id="edge4" class="edge"><title>Node5&#45;&gt;Node1</title>
<path fill="none" stroke="midnightblue" d="M183.665,-49.8197C171.662,-40.1452 156.528,-27.9481 146.461,-19.8339"/>
<polygon fill="midnightblue" stroke="midnightblue" points="181.753,-52.7738 191.735,-56.324 186.146,-47.3236 181.753,-52.7738"/>
</g>
</g>
</svg>
