<?xml version="1.0" encoding="UTF-8" standalone="no"?>
<!DOCTYPE svg PUBLIC "-//W3C//DTD SVG 1.1//EN"
 "http://www.w3.org/Graphics/SVG/1.1/DTD/svg11.dtd">
<!-- Generated by graphviz version 2.38.0 (20140413.2041)
 -->
<!-- Title: CConfigurableDomain::fromXml Pages: 1 -->
<svg width="313pt" height="78pt"
 viewBox="0.00 0.00 313.00 77.50" xmlns="http://www.w3.org/2000/svg" xmlns:xlink="http://www.w3.org/1999/xlink">
<g id="graph0" class="graph" transform="scale(1 1) rotate(0) translate(4 73.5)">
<title>CConfigurableDomain::fromXml</title>
<polygon fill="white" stroke="none" points="-4,4 -4,-73.5 309,-73.5 309,4 -4,4"/>
<!-- Node1 -->
<g id="node1" class="node"><title>Node1</title>
<polygon fill="#bfbfbf" stroke="black" points="0,-22.5 0,-52.5 121,-52.5 121,-22.5 0,-22.5"/>
<text text-anchor="start" x="8" y="-40.5" font-family="Verdana" font-size="10.00">CConfigurableDomain</text>
<text text-anchor="middle" x="60.5" y="-29.5" font-family="Verdana" font-size="10.00">::fromXml</text>
</g>
<!-- Node2 -->
<g id="node2" class="node"><title>Node2</title>
<g id="a_node2"><a xlink:href="classCElement.html#a9018d33125b066d6cd791659af95c6fe" target="_top" xlink:title="CElement::setName">
<polygon fill="white" stroke="black" points="174.5,-50 174.5,-69 287.5,-69 287.5,-50 174.5,-50"/>
<text text-anchor="middle" x="231" y="-57" font-family="Verdana" font-size="10.00">CElement::setName</text>
</a>
</g>
</g>
<!-- Node1&#45;&gt;Node2 -->
<g id="edge1" class="edge"><title>Node1&#45;&gt;Node2</title>
<path fill="none" stroke="midnightblue" d="M121.381,-45.3183C135.235,-47.1271 150.05,-49.0614 164.143,-50.9015"/>
<polygon fill="midnightblue" stroke="midnightblue" points="163.885,-54.3974 174.254,-52.2216 164.791,-47.4563 163.885,-54.3974"/>
</g>
<!-- Node3 -->
<g id="node3" class="node"><title>Node3</title>
<g id="a_node3"><a xlink:href="classCXmlDomainImportContext.html#a6131d7195b5c80cabcd9a0f0be5776bd" target="_top" xlink:title="CXmlDomainImportContext\l::autoValidationRequired">
<polygon fill="white" stroke="black" points="157,-0.5 157,-30.5 305,-30.5 305,-0.5 157,-0.5"/>
<text text-anchor="start" x="165" y="-18.5" font-family="Verdana" font-size="10.00">CXmlDomainImportContext</text>
<text text-anchor="middle" x="231" y="-7.5" font-family="Verdana" font-size="10.00">::autoValidationRequired</text>
</a>
</g>
</g>
<!-- Node1&#45;&gt;Node3 -->
<g id="edge2" class="edge"><title>Node1&#45;&gt;Node3</title>
<path fill="none" stroke="midnightblue" d="M121.381,-29.6817C129.608,-28.6076 138.174,-27.4892 146.726,-26.3726"/>
<polygon fill="midnightblue" stroke="midnightblue" points="147.276,-29.8306 156.739,-25.0653 146.37,-22.8895 147.276,-29.8306"/>
</g>
</g>
</svg>
