<?xml version="1.0" encoding="UTF-8" standalone="no"?>
<!DOCTYPE svg PUBLIC "-//W3C//DTD SVG 1.1//EN"
 "http://www.w3.org/Graphics/SVG/1.1/DTD/svg11.dtd">
<!-- Generated by graphviz version 2.38.0 (20140413.2041)
 -->
<!-- Title: CXmlDocSource::getRootElementAttributeString Pages: 1 -->
<svg width="372pt" height="84pt"
 viewBox="0.00 0.00 372.00 84.00" xmlns="http://www.w3.org/2000/svg" xmlns:xlink="http://www.w3.org/1999/xlink">
<g id="graph0" class="graph" transform="scale(1 1) rotate(0) translate(4 80)">
<title>CXmlDocSource::getRootElementAttributeString</title>
<polygon fill="white" stroke="none" points="-4,4 -4,-80 368,-80 368,4 -4,4"/>
<!-- Node1 -->
<g id="node1" class="node"><title>Node1</title>
<polygon fill="#bfbfbf" stroke="black" points="0,-23 0,-53 176,-53 176,-23 0,-23"/>
<text text-anchor="start" x="8" y="-41" font-family="Verdana" font-size="10.00">CXmlDocSource::getRootElement</text>
<text text-anchor="middle" x="88" y="-30" font-family="Verdana" font-size="10.00">AttributeString</text>
</g>
<!-- Node2 -->
<g id="node2" class="node"><title>Node2</title>
<g id="a_node2"><a xlink:href="classCXmlElement.html#a2998f66224ccd31aee6ccdeca4635f38" target="_top" xlink:title="CXmlElement::CXmlElement">
<polygon fill="white" stroke="black" points="212,-56.5 212,-75.5 364,-75.5 364,-56.5 212,-56.5"/>
<text text-anchor="middle" x="288" y="-63.5" font-family="Verdana" font-size="10.00">CXmlElement::CXmlElement</text>
</a>
</g>
</g>
<!-- Node1&#45;&gt;Node2 -->
<g id="edge1" class="edge"><title>Node1&#45;&gt;Node2</title>
<path fill="none" stroke="midnightblue" d="M176.134,-50.322C187.334,-51.9058 198.74,-53.5188 209.767,-55.0782"/>
<polygon fill="midnightblue" stroke="midnightblue" points="209.379,-58.558 219.77,-56.4928 210.359,-51.627 209.379,-58.558"/>
</g>
<!-- Node3 -->
<g id="node3" class="node"><title>Node3</title>
<g id="a_node3"><a xlink:href="classCXmlElement.html#a6198359168c744489018bc2b8d732dc3" target="_top" xlink:title="Get attribute. ">
<polygon fill="white" stroke="black" points="215.5,-0.5 215.5,-19.5 360.5,-19.5 360.5,-0.5 215.5,-0.5"/>
<text text-anchor="middle" x="288" y="-7.5" font-family="Verdana" font-size="10.00">CXmlElement::getAttribute</text>
</a>
</g>
</g>
<!-- Node1&#45;&gt;Node3 -->
<g id="edge2" class="edge"><title>Node1&#45;&gt;Node3</title>
<path fill="none" stroke="midnightblue" d="M176.134,-25.678C187.334,-24.0942 198.74,-22.4812 209.767,-20.9218"/>
<polygon fill="midnightblue" stroke="midnightblue" points="210.359,-24.373 219.77,-19.5072 209.379,-17.442 210.359,-24.373"/>
</g>
<!-- Node3&#45;&gt;Node3 -->
<g id="edge3" class="edge"><title>Node3&#45;&gt;Node3</title>
<path fill="none" stroke="midnightblue" d="M257.174,-19.7571C242.178,-28.5653 252.453,-38 288,-38 312.994,-38 325.494,-33.3356 325.5,-27.5043"/>
<polygon fill="midnightblue" stroke="midnightblue" points="328.004,-25.0489 318.826,-19.7571 322.701,-29.6178 328.004,-25.0489"/>
</g>
</g>
</svg>
