<?xml version="1.0" encoding="UTF-8" standalone="no"?>
<!DOCTYPE svg PUBLIC "-//W3C//DTD SVG 1.1//EN"
 "http://www.w3.org/Graphics/SVG/1.1/DTD/svg11.dtd">
<!-- Generated by graphviz version 2.38.0 (20140413.2041)
 -->
<!-- Title: CEnumParameterType::showProperties Pages: 1 -->
<svg width="331pt" height="78pt"
 viewBox="0.00 0.00 331.00 77.50" xmlns="http://www.w3.org/2000/svg" xmlns:xlink="http://www.w3.org/1999/xlink">
<g id="graph0" class="graph" transform="scale(1 1) rotate(0) translate(4 73.5)">
<title>CEnumParameterType::showProperties</title>
<polygon fill="white" stroke="none" points="-4,4 -4,-73.5 327,-73.5 327,4 -4,4"/>
<!-- Node1 -->
<g id="node1" class="node"><title>Node1</title>
<polygon fill="#bfbfbf" stroke="black" points="0,-22.5 0,-52.5 122,-52.5 122,-22.5 0,-22.5"/>
<text text-anchor="start" x="8" y="-40.5" font-family="Verdana" font-size="10.00">CEnumParameterType</text>
<text text-anchor="middle" x="61" y="-29.5" font-family="Verdana" font-size="10.00">::showProperties</text>
</g>
<!-- Node2 -->
<g id="node2" class="node"><title>Node2</title>
<g id="a_node2"><a xlink:href="classCElement.html#a49581fb6412e29e932962acd82d52d6a" target="_top" xlink:title="CElement::getName">
<polygon fill="white" stroke="black" points="183.5,-50 183.5,-69 297.5,-69 297.5,-50 183.5,-50"/>
<text text-anchor="middle" x="240.5" y="-57" font-family="Verdana" font-size="10.00">CElement::getName</text>
</a>
</g>
</g>
<!-- Node1&#45;&gt;Node2 -->
<g id="edge1" class="edge"><title>Node1&#45;&gt;Node2</title>
<path fill="none" stroke="midnightblue" d="M122.093,-44.9482C138.501,-46.9818 156.373,-49.1969 173.11,-51.2713"/>
<polygon fill="midnightblue" stroke="midnightblue" points="173.006,-54.7852 183.361,-52.5419 173.867,-47.8384 173.006,-54.7852"/>
</g>
<!-- Node3 -->
<g id="node3" class="node"><title>Node3</title>
<g id="a_node3"><a xlink:href="classCEnumValuePair.html#a8936c702786702895a231eac2137f518" target="_top" xlink:title="CEnumValuePair::getNumerical\lAsString">
<polygon fill="white" stroke="black" points="158,-0.5 158,-30.5 323,-30.5 323,-0.5 158,-0.5"/>
<text text-anchor="start" x="166" y="-18.5" font-family="Verdana" font-size="10.00">CEnumValuePair::getNumerical</text>
<text text-anchor="middle" x="240.5" y="-7.5" font-family="Verdana" font-size="10.00">AsString</text>
</a>
</g>
</g>
<!-- Node1&#45;&gt;Node3 -->
<g id="edge2" class="edge"><title>Node1&#45;&gt;Node3</title>
<path fill="none" stroke="midnightblue" d="M122.093,-30.0518C130.334,-29.0304 138.944,-27.9632 147.594,-26.8911"/>
<polygon fill="midnightblue" stroke="midnightblue" points="148.254,-30.3362 157.748,-25.6327 147.393,-23.3894 148.254,-30.3362"/>
</g>
</g>
</svg>
