<?xml version="1.0" encoding="UTF-8" standalone="no"?>
<!DOCTYPE svg PUBLIC "-//W3C//DTD SVG 1.1//EN"
 "http://www.w3.org/Graphics/SVG/1.1/DTD/svg11.dtd">
<!-- Generated by graphviz version 2.36.0 (20140111.2315)
 -->
<!-- Title: CErrorContext::setError Pages: 1 -->
<svg width="768pt" height="1002pt"
 viewBox="0.00 0.00 768.00 1002.00" xmlns="http://www.w3.org/2000/svg" xmlns:xlink="http://www.w3.org/1999/xlink">
<g id="graph0" class="graph" transform="scale(1 1) rotate(0) translate(4 998)">
<title>CErrorContext::setError</title>
<polygon fill="white" stroke="none" points="-4,4 -4,-998 764,-998 764,4 -4,4"/>
<!-- Node1 -->
<g id="node1" class="node"><title>Node1</title>
<polygon fill="#bfbfbf" stroke="black" points="0,-489.5 0,-508.5 128,-508.5 128,-489.5 0,-489.5"/>
<text text-anchor="middle" x="64" y="-496.5" font-family="Verdana" font-size="10.00">CErrorContext::setError</text>
</g>
<!-- Node2 -->
<g id="node2" class="node"><title>Node2</title>
<g id="a_node2"><a xlink:href="classCBaseParameter.html#ad6c3b121c92cabe717272fba5ccb6956" target="_top" xlink:title="Value access. ">
<polygon fill="white" stroke="black" points="177.5,-964 177.5,-994 326.5,-994 326.5,-964 177.5,-964"/>
<text text-anchor="start" x="185.5" y="-982" font-family="Verdana" font-size="10.00">CBaseParameter::accessAs</text>
<text text-anchor="middle" x="252" y="-971" font-family="Verdana" font-size="10.00">Boolean</text>
</a>
</g>
</g>
<!-- Node1&#45;&gt;Node2 -->
<g id="edge1" class="edge"><title>Node1&#45;&gt;Node2</title>
<path fill="none" stroke="midnightblue" d="M66.6546,-518.909C73.6171,-598.008 103.036,-888.901 164,-954 167.867,-958.129 172.367,-961.592 177.246,-964.493"/>
<polygon fill="midnightblue" stroke="midnightblue" points="70.1317,-518.492 65.7892,-508.828 63.1574,-519.091 70.1317,-518.492"/>
</g>
<!-- Node3 -->
<g id="node3" class="node"><title>Node3</title>
<g id="a_node3"><a xlink:href="classCBaseParameter.html#abdb59be3eb6674e99c37360f2bde79dd" target="_top" xlink:title="CBaseParameter::accessAs\lBooleanArray">
<polygon fill="white" stroke="black" points="177.5,-915 177.5,-945 326.5,-945 326.5,-915 177.5,-915"/>
<text text-anchor="start" x="185.5" y="-933" font-family="Verdana" font-size="10.00">CBaseParameter::accessAs</text>
<text text-anchor="middle" x="252" y="-922" font-family="Verdana" font-size="10.00">BooleanArray</text>
</a>
</g>
</g>
<!-- Node1&#45;&gt;Node3 -->
<g id="edge2" class="edge"><title>Node1&#45;&gt;Node3</title>
<path fill="none" stroke="midnightblue" d="M67.2379,-519.085C75.8514,-592.903 109.149,-847.873 164,-905 167.918,-909.081 172.455,-912.509 177.359,-915.386"/>
<polygon fill="midnightblue" stroke="midnightblue" points="70.6812,-518.388 66.0679,-508.851 63.7265,-519.183 70.6812,-518.388"/>
</g>
<!-- Node4 -->
<g id="node4" class="node"><title>Node4</title>
<g id="a_node4"><a xlink:href="classCBaseParameter.html#a8386194eb61f9dcdf1fee382f4517dd2" target="_top" xlink:title="CBaseParameter::accessAs\lInteger">
<polygon fill="white" stroke="black" points="177.5,-866 177.5,-896 326.5,-896 326.5,-866 177.5,-866"/>
<text text-anchor="start" x="185.5" y="-884" font-family="Verdana" font-size="10.00">CBaseParameter::accessAs</text>
<text text-anchor="middle" x="252" y="-873" font-family="Verdana" font-size="10.00">Integer</text>
</a>
</g>
</g>
<!-- Node1&#45;&gt;Node4 -->
<g id="edge3" class="edge"><title>Node1&#45;&gt;Node4</title>
<path fill="none" stroke="midnightblue" d="M64.2539,-518.931C63.1461,-578.89 68.3011,-759.407 164,-856 167.982,-860.019 172.564,-863.402 177.5,-866.249"/>
<polygon fill="midnightblue" stroke="midnightblue" points="67.7614,-518.699 64.534,-508.607 60.764,-518.509 67.7614,-518.699"/>
</g>
<!-- Node5 -->
<g id="node5" class="node"><title>Node5</title>
<g id="a_node5"><a xlink:href="classCBaseParameter.html#af569644b1f1e795de4e98bef7a4c484a" target="_top" xlink:title="CBaseParameter::accessAs\lIntegerArray">
<polygon fill="white" stroke="black" points="177.5,-817 177.5,-847 326.5,-847 326.5,-817 177.5,-817"/>
<text text-anchor="start" x="185.5" y="-835" font-family="Verdana" font-size="10.00">CBaseParameter::accessAs</text>
<text text-anchor="middle" x="252" y="-824" font-family="Verdana" font-size="10.00">IntegerArray</text>
</a>
</g>
</g>
<!-- Node1&#45;&gt;Node5 -->
<g id="edge4" class="edge"><title>Node1&#45;&gt;Node5</title>
<path fill="none" stroke="midnightblue" d="M65.2836,-518.698C67.1633,-572.9 80.0361,-725.614 164,-807 167.95,-810.828 172.445,-814.077 177.264,-816.833"/>
<polygon fill="midnightblue" stroke="midnightblue" points="68.7822,-518.596 65.0277,-508.689 61.7845,-518.775 68.7822,-518.596"/>
</g>
<!-- Node6 -->
<g id="node6" class="node"><title>Node6</title>
<g id="a_node6"><a xlink:href="classCBaseParameter.html#a231e9def106391b96fb0671f4214f105" target="_top" xlink:title="CBaseParameter::accessAs\lSignedInteger">
<polygon fill="white" stroke="black" points="177.5,-768 177.5,-798 326.5,-798 326.5,-768 177.5,-768"/>
<text text-anchor="start" x="185.5" y="-786" font-family="Verdana" font-size="10.00">CBaseParameter::accessAs</text>
<text text-anchor="middle" x="252" y="-775" font-family="Verdana" font-size="10.00">SignedInteger</text>
</a>
</g>
</g>
<!-- Node1&#45;&gt;Node6 -->
<g id="edge5" class="edge"><title>Node1&#45;&gt;Node6</title>
<path fill="none" stroke="midnightblue" d="M66.6658,-518.729C71.8116,-566.953 91.78,-691.691 164,-758 168.167,-761.826 172.883,-765.071 177.911,-767.822"/>
<polygon fill="midnightblue" stroke="midnightblue" points="70.14,-518.293 65.6947,-508.676 63.1724,-518.966 70.14,-518.293"/>
</g>
<!-- Node7 -->
<g id="node7" class="node"><title>Node7</title>
<g id="a_node7"><a xlink:href="classCBaseParameter.html#a4fb0984d60996ba29e646b9080aee070" target="_top" xlink:title="CBaseParameter::accessAs\lSignedIntegerArray">
<polygon fill="white" stroke="black" points="177.5,-719 177.5,-749 326.5,-749 326.5,-719 177.5,-719"/>
<text text-anchor="start" x="185.5" y="-737" font-family="Verdana" font-size="10.00">CBaseParameter::accessAs</text>
<text text-anchor="middle" x="252" y="-726" font-family="Verdana" font-size="10.00">SignedIntegerArray</text>
</a>
</g>
</g>
<!-- Node1&#45;&gt;Node7 -->
<g id="edge6" class="edge"><title>Node1&#45;&gt;Node7</title>
<path fill="none" stroke="midnightblue" d="M68.6014,-518.578C77.2737,-560.079 103.263,-657.317 164,-709 168.548,-712.87 173.663,-716.142 179.076,-718.908"/>
<polygon fill="midnightblue" stroke="midnightblue" points="72.0112,-517.778 66.6393,-508.646 65.1439,-519.135 72.0112,-517.778"/>
</g>
<!-- Node8 -->
<g id="node8" class="node"><title>Node8</title>
<g id="a_node8"><a xlink:href="classCBaseParameter.html#a6082bac12d32dbf326cb7799ad7596d6" target="_top" xlink:title="CBaseParameter::accessAs\lDouble">
<polygon fill="white" stroke="black" points="177.5,-670 177.5,-700 326.5,-700 326.5,-670 177.5,-670"/>
<text text-anchor="start" x="185.5" y="-688" font-family="Verdana" font-size="10.00">CBaseParameter::accessAs</text>
<text text-anchor="middle" x="252" y="-677" font-family="Verdana" font-size="10.00">Double</text>
</a>
</g>
</g>
<!-- Node1&#45;&gt;Node8 -->
<g id="edge7" class="edge"><title>Node1&#45;&gt;Node8</title>
<path fill="none" stroke="midnightblue" d="M71.5486,-518.338C84.0317,-552.245 114.488,-622.388 164,-660 169.131,-663.898 174.85,-667.188 180.837,-669.966"/>
<polygon fill="midnightblue" stroke="midnightblue" points="74.7678,-516.944 68.1258,-508.689 68.1706,-519.284 74.7678,-516.944"/>
</g>
<!-- Node9 -->
<g id="node9" class="node"><title>Node9</title>
<g id="a_node9"><a xlink:href="classCBaseParameter.html#a3cadd88844f27bfeb36c1c410e5a3c4c" target="_top" xlink:title="CBaseParameter::accessAs\lDoubleArray">
<polygon fill="white" stroke="black" points="177.5,-621 177.5,-651 326.5,-651 326.5,-621 177.5,-621"/>
<text text-anchor="start" x="185.5" y="-639" font-family="Verdana" font-size="10.00">CBaseParameter::accessAs</text>
<text text-anchor="middle" x="252" y="-628" font-family="Verdana" font-size="10.00">DoubleArray</text>
</a>
</g>
</g>
<!-- Node1&#45;&gt;Node9 -->
<g id="edge8" class="edge"><title>Node1&#45;&gt;Node9</title>
<path fill="none" stroke="midnightblue" d="M77.3808,-517.171C94.3413,-540.779 126.952,-581.826 164,-606 173.099,-611.937 183.502,-616.837 193.875,-620.831"/>
<polygon fill="midnightblue" stroke="midnightblue" points="80.0925,-514.942 71.4801,-508.772 74.3647,-518.966 80.0925,-514.942"/>
</g>
<!-- Node10 -->
<g id="node10" class="node"><title>Node10</title>
<g id="a_node10"><a xlink:href="classCBitParameter.html#a2e0ed93baec3479a9b92314818433a31" target="_top" xlink:title="Value access. ">
<polygon fill="white" stroke="black" points="584,-417.5 584,-436.5 760,-436.5 760,-417.5 584,-417.5"/>
<text text-anchor="middle" x="672" y="-424.5" font-family="Verdana" font-size="10.00">CBitParameter::accessAsBoolean</text>
</a>
</g>
</g>
<!-- Node1&#45;&gt;Node10 -->
<g id="edge9" class="edge"><title>Node1&#45;&gt;Node10</title>
<path fill="none" stroke="midnightblue" d="M81.0237,-516.019C99.1659,-533.926 130.575,-561.009 164,-572 238.308,-596.434 263.439,-588.034 340,-572 469.258,-544.93 609.743,-464.34 655.598,-436.548"/>
<polygon fill="midnightblue" stroke="midnightblue" points="83.1675,-513.207 73.6621,-508.527 78.1747,-518.113 83.1675,-513.207"/>
</g>
<!-- Node11 -->
<g id="node11" class="node"><title>Node11</title>
<g id="a_node11"><a xlink:href="classCBitParameterType.html#a0398ded8b86ec6471305ac9cafa1b378" target="_top" xlink:title="Conversion. ">
<polygon fill="white" stroke="black" points="195.5,-533 195.5,-563 308.5,-563 308.5,-533 195.5,-533"/>
<text text-anchor="start" x="203.5" y="-551" font-family="Verdana" font-size="10.00">CBitParameterType::</text>
<text text-anchor="middle" x="252" y="-540" font-family="Verdana" font-size="10.00">toBlackboard</text>
</a>
</g>
</g>
<!-- Node1&#45;&gt;Node11 -->
<g id="edge10" class="edge"><title>Node1&#45;&gt;Node11</title>
<path fill="none" stroke="midnightblue" d="M111.098,-511.144C136.604,-517.863 168.486,-526.262 195.37,-533.345"/>
<polygon fill="midnightblue" stroke="midnightblue" points="111.866,-507.727 101.304,-508.564 110.083,-514.496 111.866,-507.727"/>
</g>
<!-- Node12 -->
<g id="node12" class="node"><title>Node12</title>
<g id="a_node12"><a xlink:href="classCBooleanParameterType.html#a3984c73c19bf9ba8511152983b60f834" target="_top" xlink:title="Conversion. ">
<polygon fill="white" stroke="black" points="185,-484 185,-514 319,-514 319,-484 185,-484"/>
<text text-anchor="start" x="193" y="-502" font-family="Verdana" font-size="10.00">CBooleanParameterType</text>
<text text-anchor="middle" x="252" y="-491" font-family="Verdana" font-size="10.00">::toBlackboard</text>
</a>
</g>
</g>
<!-- Node1&#45;&gt;Node12 -->
<g id="edge11" class="edge"><title>Node1&#45;&gt;Node12</title>
<path fill="none" stroke="midnightblue" d="M138.638,-499C153.868,-499 169.823,-499 184.77,-499"/>
<polygon fill="midnightblue" stroke="midnightblue" points="138.231,-495.5 128.231,-499 138.231,-502.5 138.231,-495.5"/>
</g>
<!-- Node13 -->
<g id="node13" class="node"><title>Node13</title>
<g id="a_node13"><a xlink:href="classCConfigurableElement.html#a0e3feb8a7b18a3291ec960c9726b4eaf" target="_top" xlink:title="CConfigurableElement\l::serializeXmlSettings">
<polygon fill="white" stroke="black" points="190.5,-417 190.5,-447 313.5,-447 313.5,-417 190.5,-417"/>
<text text-anchor="start" x="198.5" y="-435" font-family="Verdana" font-size="10.00">CConfigurableElement</text>
<text text-anchor="middle" x="252" y="-424" font-family="Verdana" font-size="10.00">::serializeXmlSettings</text>
</a>
</g>
</g>
<!-- Node1&#45;&gt;Node13 -->
<g id="edge12" class="edge"><title>Node1&#45;&gt;Node13</title>
<path fill="none" stroke="midnightblue" d="M101.199,-485.961C132.189,-474.797 176.818,-458.722 209.298,-447.022"/>
<polygon fill="midnightblue" stroke="midnightblue" points="99.8713,-482.719 91.6493,-489.401 102.244,-489.304 99.8713,-482.719"/>
</g>
<!-- Node15 -->
<g id="node15" class="node"><title>Node15</title>
<g id="a_node15"><a xlink:href="classCConfigurableElement.html#a1dae2debee4a443ce572f15e75247808" target="_top" xlink:title="CConfigurableElement\l::accessValue">
<polygon fill="white" stroke="black" points="190.5,-350 190.5,-380 313.5,-380 313.5,-350 190.5,-350"/>
<text text-anchor="start" x="198.5" y="-368" font-family="Verdana" font-size="10.00">CConfigurableElement</text>
<text text-anchor="middle" x="252" y="-357" font-family="Verdana" font-size="10.00">::accessValue</text>
</a>
</g>
</g>
<!-- Node1&#45;&gt;Node15 -->
<g id="edge15" class="edge"><title>Node1&#45;&gt;Node15</title>
<path fill="none" stroke="midnightblue" d="M80.6293,-481.953C99.1779,-462.392 131.681,-430.167 164,-408 179.701,-397.231 198.492,-387.591 214.586,-380.182"/>
<polygon fill="midnightblue" stroke="midnightblue" points="78.0713,-479.564 73.7942,-489.257 83.1825,-484.347 78.0713,-479.564"/>
</g>
<!-- Node16 -->
<g id="node16" class="node"><title>Node16</title>
<g id="a_node16"><a xlink:href="classCEnumParameterType.html#a843bba6b2e2b5b516b7939f8bc4641ab" target="_top" xlink:title="Conversion. ">
<polygon fill="white" stroke="black" points="191,-301 191,-331 313,-331 313,-301 191,-301"/>
<text text-anchor="start" x="199" y="-319" font-family="Verdana" font-size="10.00">CEnumParameterType</text>
<text text-anchor="middle" x="252" y="-308" font-family="Verdana" font-size="10.00">::toBlackboard</text>
</a>
</g>
</g>
<!-- Node1&#45;&gt;Node16 -->
<g id="edge17" class="edge"><title>Node1&#45;&gt;Node16</title>
<path fill="none" stroke="midnightblue" d="M71.6522,-480.02C84.2976,-446.741 115,-377.899 164,-341 171.909,-335.044 181.194,-330.506 190.699,-327.048"/>
<polygon fill="midnightblue" stroke="midnightblue" points="68.3365,-478.896 68.1807,-489.49 74.9088,-481.306 68.3365,-478.896"/>
</g>
<!-- Node17 -->
<g id="node17" class="node"><title>Node17</title>
<g id="a_node17"><a xlink:href="classCFixedPointParameterType.html#a8082571fa9099a8eb25820ce259b2d1d" target="_top" xlink:title="Conversion. ">
<polygon fill="white" stroke="black" points="180.5,-252 180.5,-282 323.5,-282 323.5,-252 180.5,-252"/>
<text text-anchor="start" x="188.5" y="-270" font-family="Verdana" font-size="10.00">CFixedPointParameterType</text>
<text text-anchor="middle" x="252" y="-259" font-family="Verdana" font-size="10.00">::toBlackboard</text>
</a>
</g>
</g>
<!-- Node1&#45;&gt;Node17 -->
<g id="edge18" class="edge"><title>Node1&#45;&gt;Node17</title>
<path fill="none" stroke="midnightblue" d="M68.7459,-479.434C77.6435,-438.37 103.958,-342.804 164,-292 168.919,-287.838 174.494,-284.368 180.388,-281.475"/>
<polygon fill="midnightblue" stroke="midnightblue" points="65.2643,-478.99 66.6846,-489.489 72.1217,-480.396 65.2643,-478.99"/>
</g>
<!-- Node18 -->
<g id="node18" class="node"><title>Node18</title>
<g id="a_node18"><a xlink:href="classCInstanceConfigurableElement.html#a2e6e7782de8e4d7e844a869917f2f037" target="_top" xlink:title="Performs the sync if the AutoSync is enabled. ">
<polygon fill="white" stroke="black" points="170,-203 170,-233 334,-233 334,-203 170,-203"/>
<text text-anchor="start" x="178" y="-221" font-family="Verdana" font-size="10.00">CInstanceConfigurableElement</text>
<text text-anchor="middle" x="252" y="-210" font-family="Verdana" font-size="10.00">::sync</text>
</a>
</g>
</g>
<!-- Node1&#45;&gt;Node18 -->
<g id="edge19" class="edge"><title>Node1&#45;&gt;Node18</title>
<path fill="none" stroke="midnightblue" d="M66.775,-479.192C72.1435,-431.297 92.5325,-308.362 164,-243 168.175,-239.182 172.896,-235.943 177.927,-233.196"/>
<polygon fill="midnightblue" stroke="midnightblue" points="63.2632,-479.131 65.7332,-489.434 70.2272,-479.839 63.2632,-479.131"/>
</g>
<!-- Node23 -->
<g id="node23" class="node"><title>Node23</title>
<g id="a_node23"><a xlink:href="classCInstanceConfigurableElement.html#a4355916fa36efbe5fb62894d0a5dc95f" target="_top" xlink:title="CInstanceConfigurableElement\l::checkPathExhausted">
<polygon fill="white" stroke="black" points="380,-154 380,-184 544,-184 544,-154 380,-154"/>
<text text-anchor="start" x="388" y="-172" font-family="Verdana" font-size="10.00">CInstanceConfigurableElement</text>
<text text-anchor="middle" x="462" y="-161" font-family="Verdana" font-size="10.00">::checkPathExhausted</text>
</a>
</g>
</g>
<!-- Node1&#45;&gt;Node23 -->
<g id="edge25" class="edge"><title>Node1&#45;&gt;Node23</title>
<path fill="none" stroke="midnightblue" d="M64.5668,-478.971C64.5667,-423.319 72.9825,-266.177 164,-194 196.334,-168.359 303.668,-164.965 379.994,-166.049"/>
<polygon fill="midnightblue" stroke="midnightblue" points="61.0695,-479.274 64.6678,-489.239 68.0691,-479.205 61.0695,-479.274"/>
</g>
<!-- Node24 -->
<g id="node24" class="node"><title>Node24</title>
<g id="a_node24"><a xlink:href="classCIntegerParameterType.html#a82c7004851a017781f8bec9a1f175e73" target="_top" xlink:title="CIntegerParameterType\l::toBlackboard">
<polygon fill="white" stroke="black" points="188,-115 188,-145 316,-145 316,-115 188,-115"/>
<text text-anchor="start" x="196" y="-133" font-family="Verdana" font-size="10.00">CIntegerParameterType</text>
<text text-anchor="middle" x="252" y="-122" font-family="Verdana" font-size="10.00">::toBlackboard</text>
</a>
</g>
</g>
<!-- Node1&#45;&gt;Node24 -->
<g id="edge27" class="edge"><title>Node1&#45;&gt;Node24</title>
<path fill="none" stroke="midnightblue" d="M64.8354,-479.15C65.4531,-421.66 75.1504,-253.213 164,-160 170.614,-153.061 178.907,-147.727 187.728,-143.626"/>
<polygon fill="midnightblue" stroke="midnightblue" points="61.335,-479.383 64.8141,-489.391 68.335,-479.398 61.335,-479.383"/>
</g>
<!-- Node25 -->
<g id="node25" class="node"><title>Node25</title>
<g id="a_node25"><a xlink:href="classCParameterType.html#a04a0fd09f23eba9e4295109b080be04f" target="_top" xlink:title="CParameterType::toBlackboard">
<polygon fill="white" stroke="black" points="170,-76.5 170,-95.5 334,-95.5 334,-76.5 170,-76.5"/>
<text text-anchor="middle" x="252" y="-83.5" font-family="Verdana" font-size="10.00">CParameterType::toBlackboard</text>
</a>
</g>
</g>
<!-- Node1&#45;&gt;Node25 -->
<g id="edge28" class="edge"><title>Node1&#45;&gt;Node25</title>
<path fill="none" stroke="midnightblue" d="M67.21,-479.389C75.7248,-407.327 108.719,-158.585 164,-105 167.885,-101.234 172.334,-98.1424 177.121,-95.6115"/>
<polygon fill="midnightblue" stroke="midnightblue" points="63.7266,-479.044 66.0539,-489.38 70.6802,-479.849 63.7266,-479.044"/>
</g>
<!-- Node26 -->
<g id="node26" class="node"><title>Node26</title>
<g id="a_node26"><a xlink:href="classCParameterType.html#a149691bdd9d67a12d736e0c756b1ee56" target="_top" xlink:title="CParameterType::fromBlackboard">
<polygon fill="white" stroke="black" points="164,-38.5 164,-57.5 340,-57.5 340,-38.5 164,-38.5"/>
<text text-anchor="middle" x="252" y="-45.5" font-family="Verdana" font-size="10.00">CParameterType::fromBlackboard</text>
</a>
</g>
</g>
<!-- Node1&#45;&gt;Node26 -->
<g id="edge29" class="edge"><title>Node1&#45;&gt;Node26</title>
<path fill="none" stroke="midnightblue" d="M66.7815,-479.014C74.0433,-402.088 103.922,-126.465 164,-67 167.846,-63.1935 172.266,-60.0727 177.032,-57.5212"/>
<polygon fill="midnightblue" stroke="midnightblue" points="63.2722,-478.955 65.8409,-489.234 70.2427,-479.597 63.2722,-478.955"/>
</g>
<!-- Node27 -->
<g id="node27" class="node"><title>Node27</title>
<g id="a_node27"><a xlink:href="classCStringParameter.html#a6a9db60ee5c1b4c620441d6e0d82bd08" target="_top" xlink:title="CStringParameter::doSetValue">
<polygon fill="white" stroke="black" points="170.5,-0.5 170.5,-19.5 333.5,-19.5 333.5,-0.5 170.5,-0.5"/>
<text text-anchor="middle" x="252" y="-7.5" font-family="Verdana" font-size="10.00">CStringParameter::doSetValue</text>
</a>
</g>
</g>
<!-- Node1&#45;&gt;Node27 -->
<g id="edge30" class="edge"><title>Node1&#45;&gt;Node27</title>
<path fill="none" stroke="midnightblue" d="M66.3952,-478.852C72.44,-397.494 99.0499,-94.4333 164,-29 167.703,-25.2694 171.957,-22.1946 176.55,-19.6671"/>
<polygon fill="midnightblue" stroke="midnightblue" points="62.8779,-478.966 65.6504,-489.192 69.8599,-479.469 62.8779,-478.966"/>
</g>
<!-- Node13&#45;&gt;Node13 -->
<g id="edge14" class="edge"><title>Node13&#45;&gt;Node13</title>
<path fill="none" stroke="midnightblue" d="M219.093,-457.598C223.59,-461.97 234.559,-465 252,-465 281.375,-465 292.391,-456.406 285.047,-447.275"/>
<polygon fill="midnightblue" stroke="midnightblue" points="222.588,-457.227 218.953,-447.275 215.589,-457.322 222.588,-457.227"/>
</g>
<!-- Node14 -->
<g id="node14" class="node"><title>Node14</title>
<g id="a_node14"><a xlink:href="classCAreaConfiguration.html#a6b8c95a79343ee9823b026d74184e798" target="_top" xlink:title="CAreaConfiguration\l::serializeXmlSettings">
<polygon fill="white" stroke="black" points="402.5,-417 402.5,-447 521.5,-447 521.5,-417 402.5,-417"/>
<text text-anchor="start" x="410.5" y="-435" font-family="Verdana" font-size="10.00">CAreaConfiguration</text>
<text text-anchor="middle" x="462" y="-424" font-family="Verdana" font-size="10.00">::serializeXmlSettings</text>
</a>
</g>
</g>
<!-- Node13&#45;&gt;Node14 -->
<g id="edge13" class="edge"><title>Node13&#45;&gt;Node14</title>
<path fill="none" stroke="midnightblue" d="M323.736,-432C349.324,-432 377.915,-432 402.352,-432"/>
<polygon fill="midnightblue" stroke="midnightblue" points="323.721,-428.5 313.721,-432 323.721,-435.5 323.721,-428.5"/>
</g>
<!-- Node15&#45;&gt;Node15 -->
<g id="edge16" class="edge"><title>Node15&#45;&gt;Node15</title>
<path fill="none" stroke="midnightblue" d="M219.093,-390.598C223.59,-394.97 234.559,-398 252,-398 281.375,-398 292.391,-389.406 285.047,-380.275"/>
<polygon fill="midnightblue" stroke="midnightblue" points="222.588,-390.227 218.953,-380.275 215.589,-390.322 222.588,-390.227"/>
</g>
<!-- Node19 -->
<g id="node19" class="node"><title>Node19</title>
<g id="a_node19"><a xlink:href="classCArrayParameter.html#a07b3af958a03b2295be159f69b22d42d" target="_top" xlink:title="CArrayParameter::accessValue">
<polygon fill="white" stroke="black" points="380,-290.5 380,-309.5 544,-309.5 544,-290.5 380,-290.5"/>
<text text-anchor="middle" x="462" y="-297.5" font-family="Verdana" font-size="10.00">CArrayParameter::accessValue</text>
</a>
</g>
</g>
<!-- Node18&#45;&gt;Node19 -->
<g id="edge20" class="edge"><title>Node18&#45;&gt;Node19</title>
<path fill="none" stroke="midnightblue" d="M329.165,-237.201C332.912,-238.973 336.548,-240.902 340,-243 359.881,-255.083 355.766,-269.518 376,-281 382.839,-284.881 390.406,-287.969 398.124,-290.426"/>
<polygon fill="midnightblue" stroke="midnightblue" points="330.227,-233.848 319.658,-233.111 327.461,-240.278 330.227,-233.848"/>
</g>
<!-- Node20 -->
<g id="node20" class="node"><title>Node20</title>
<g id="a_node20"><a xlink:href="classCBaseParameter.html#a2b425561e193a3d54e7225d896a3d39b" target="_top" xlink:title="CBaseParameter::accessAs\lString">
<polygon fill="white" stroke="black" points="387.5,-203 387.5,-233 536.5,-233 536.5,-203 387.5,-203"/>
<text text-anchor="start" x="395.5" y="-221" font-family="Verdana" font-size="10.00">CBaseParameter::accessAs</text>
<text text-anchor="middle" x="462" y="-210" font-family="Verdana" font-size="10.00">String</text>
</a>
</g>
</g>
<!-- Node18&#45;&gt;Node20 -->
<g id="edge21" class="edge"><title>Node18&#45;&gt;Node20</title>
<path fill="none" stroke="midnightblue" d="M344.396,-218C358.755,-218 373.44,-218 387.333,-218"/>
<polygon fill="midnightblue" stroke="midnightblue" points="344.014,-214.5 334.014,-218 344.014,-221.5 344.014,-214.5"/>
</g>
<!-- Node22 -->
<g id="node22" class="node"><title>Node22</title>
<g id="a_node22"><a xlink:href="classCBitParameter.html#ad348903f16d702fac8adcfa1c725a92b" target="_top" xlink:title="CBitParameter::accessAsInteger">
<polygon fill="white" stroke="black" points="376.5,-252.5 376.5,-271.5 547.5,-271.5 547.5,-252.5 376.5,-252.5"/>
<text text-anchor="middle" x="462" y="-259.5" font-family="Verdana" font-size="10.00">CBitParameter::accessAsInteger</text>
</a>
</g>
</g>
<!-- Node18&#45;&gt;Node22 -->
<g id="edge23" class="edge"><title>Node18&#45;&gt;Node22</title>
<path fill="none" stroke="midnightblue" d="M334.137,-235.164C361.978,-241.053 392.118,-247.429 416.032,-252.488"/>
<polygon fill="midnightblue" stroke="midnightblue" points="334.508,-231.665 324,-233.019 333.059,-238.513 334.508,-231.665"/>
</g>
<!-- Node21 -->
<g id="node21" class="node"><title>Node21</title>
<g id="a_node21"><a xlink:href="classCBaseParameter.html#a4a9b3e3a2d1ea65a8dc7048559db8dc2" target="_top" xlink:title="CBaseParameter::accessValue">
<polygon fill="white" stroke="black" points="590.5,-184.5 590.5,-203.5 753.5,-203.5 753.5,-184.5 590.5,-184.5"/>
<text text-anchor="middle" x="672" y="-191.5" font-family="Verdana" font-size="10.00">CBaseParameter::accessValue</text>
</a>
</g>
</g>
<!-- Node20&#45;&gt;Node21 -->
<g id="edge22" class="edge"><title>Node20&#45;&gt;Node21</title>
<path fill="none" stroke="midnightblue" d="M546.955,-208.313C561.291,-206.659 576.155,-204.944 590.401,-203.3"/>
<polygon fill="midnightblue" stroke="midnightblue" points="546.159,-204.881 536.626,-209.505 546.961,-211.835 546.159,-204.881"/>
</g>
<!-- Node22&#45;&gt;Node10 -->
<g id="edge24" class="edge"><title>Node22&#45;&gt;Node10</title>
<path fill="none" stroke="midnightblue" d="M537.07,-275.365C540.865,-277.028 544.536,-278.898 548,-281 606.94,-316.757 651.302,-390.792 665.865,-417.298"/>
<polygon fill="midnightblue" stroke="midnightblue" points="538.014,-271.978 527.424,-271.64 535.492,-278.508 538.014,-271.978"/>
</g>
<!-- Node23&#45;&gt;Node21 -->
<g id="edge26" class="edge"><title>Node23&#45;&gt;Node21</title>
<path fill="none" stroke="midnightblue" d="M554.059,-179.945C566.672,-181.461 579.543,-183.008 591.915,-184.495"/>
<polygon fill="midnightblue" stroke="midnightblue" points="554.36,-176.456 544.014,-178.737 553.525,-183.406 554.36,-176.456"/>
</g>
</g>
</svg>
