<?xml version="1.0" encoding="UTF-8" standalone="no"?>
<!DOCTYPE svg PUBLIC "-//W3C//DTD SVG 1.1//EN"
 "http://www.w3.org/Graphics/SVG/1.1/DTD/svg11.dtd">
<!-- Generated by graphviz version 2.38.0 (20140413.2041)
 -->
<!-- Title: CParameterMgr::getApplicationRule Pages: 1 -->
<svg width="1027pt" height="121pt"
 viewBox="0.00 0.00 1027.00 120.50" xmlns="http://www.w3.org/2000/svg" xmlns:xlink="http://www.w3.org/1999/xlink">
<g id="graph0" class="graph" transform="scale(1 1) rotate(0) translate(4 116.5)">
<title>CParameterMgr::getApplicationRule</title>
<polygon fill="white" stroke="none" points="-4,4 -4,-116.5 1023,-116.5 1023,4 -4,4"/>
<!-- Node1 -->
<g id="node1" class="node"><title>Node1</title>
<polygon fill="#bfbfbf" stroke="black" points="0,-62.5 0,-81.5 185,-81.5 185,-62.5 0,-62.5"/>
<text text-anchor="middle" x="92.5" y="-69.5" font-family="Verdana" font-size="10.00">CParameterMgr::getApplicationRule</text>
</g>
<!-- Node2 -->
<g id="node2" class="node"><title>Node2</title>
<g id="a_node2"><a xlink:href="classCConfigurableDomains.html#a2c09cdf7f3d0ce257831c2df930cb60b" target="_top" xlink:title="CConfigurableDomains\l::getApplicationRule">
<polygon fill="white" stroke="black" points="221,-57 221,-87 347,-87 347,-57 221,-57"/>
<text text-anchor="start" x="229" y="-75" font-family="Verdana" font-size="10.00">CConfigurableDomains</text>
<text text-anchor="middle" x="284" y="-64" font-family="Verdana" font-size="10.00">::getApplicationRule</text>
</a>
</g>
</g>
<!-- Node1&#45;&gt;Node2 -->
<g id="edge1" class="edge"><title>Node1&#45;&gt;Node2</title>
<path fill="none" stroke="midnightblue" d="M185.197,-72C193.794,-72 202.425,-72 210.805,-72"/>
<polygon fill="midnightblue" stroke="midnightblue" points="210.885,-75.5001 220.885,-72 210.885,-68.5001 210.885,-75.5001"/>
</g>
<!-- Node3 -->
<g id="node3" class="node"><title>Node3</title>
<g id="a_node3"><a xlink:href="classCConfigurableDomains.html#a4dce38a1560b6e33871d3fa2d85cc449" target="_top" xlink:title="CConfigurableDomains\l::findConfigurableDomain">
<polygon fill="white" stroke="black" points="383,-82 383,-112 520,-112 520,-82 383,-82"/>
<text text-anchor="start" x="391" y="-100" font-family="Verdana" font-size="10.00">CConfigurableDomains</text>
<text text-anchor="middle" x="451.5" y="-89" font-family="Verdana" font-size="10.00">::findConfigurableDomain</text>
</a>
</g>
</g>
<!-- Node2&#45;&gt;Node3 -->
<g id="edge2" class="edge"><title>Node2&#45;&gt;Node3</title>
<path fill="none" stroke="midnightblue" d="M347.097,-81.3802C355.469,-82.6449 364.143,-83.9552 372.745,-85.2545"/>
<polygon fill="midnightblue" stroke="midnightblue" points="372.376,-88.7384 382.787,-86.7714 373.422,-81.8169 372.376,-88.7384"/>
</g>
<!-- Node5 -->
<g id="node5" class="node"><title>Node5</title>
<g id="a_node5"><a xlink:href="classCConfigurableDomain.html#a172bcb617227f40d21b29e91b2424ee0" target="_top" xlink:title="CConfigurableDomain\l::getApplicationRule">
<polygon fill="white" stroke="black" points="391,-33 391,-63 512,-63 512,-33 391,-33"/>
<text text-anchor="start" x="399" y="-51" font-family="Verdana" font-size="10.00">CConfigurableDomain</text>
<text text-anchor="middle" x="451.5" y="-40" font-family="Verdana" font-size="10.00">::getApplicationRule</text>
</a>
</g>
</g>
<!-- Node2&#45;&gt;Node5 -->
<g id="edge4" class="edge"><title>Node2&#45;&gt;Node5</title>
<path fill="none" stroke="midnightblue" d="M347.097,-62.995C358.052,-61.4064 369.523,-59.7429 380.673,-58.126"/>
<polygon fill="midnightblue" stroke="midnightblue" points="381.404,-61.5567 390.798,-56.6577 380.399,-54.6291 381.404,-61.5567"/>
</g>
<!-- Node4 -->
<g id="node4" class="node"><title>Node4</title>
<g id="a_node4"><a xlink:href="classCElement.html#a8595814a3159f32f874269907e70b260" target="_top" xlink:title="CElement::findChild">
<polygon fill="white" stroke="black" points="563.5,-87.5 563.5,-106.5 673.5,-106.5 673.5,-87.5 563.5,-87.5"/>
<text text-anchor="middle" x="618.5" y="-94.5" font-family="Verdana" font-size="10.00">CElement::findChild</text>
</a>
</g>
</g>
<!-- Node3&#45;&gt;Node4 -->
<g id="edge3" class="edge"><title>Node3&#45;&gt;Node4</title>
<path fill="none" stroke="midnightblue" d="M520.088,-97C531.014,-97 542.301,-97 553.147,-97"/>
<polygon fill="midnightblue" stroke="midnightblue" points="553.385,-100.5 563.385,-97 553.385,-93.5001 553.385,-100.5"/>
</g>
<!-- Node6 -->
<g id="node6" class="node"><title>Node6</title>
<g id="a_node6"><a xlink:href="classCDomainConfiguration.html#a357cbc3957a3d994df871e4def96a7f5" target="_top" xlink:title="CDomainConfiguration\l::getApplicationRule">
<polygon fill="white" stroke="black" points="556,-33 556,-63 681,-63 681,-33 556,-33"/>
<text text-anchor="start" x="564" y="-51" font-family="Verdana" font-size="10.00">CDomainConfiguration</text>
<text text-anchor="middle" x="618.5" y="-40" font-family="Verdana" font-size="10.00">::getApplicationRule</text>
</a>
</g>
</g>
<!-- Node5&#45;&gt;Node6 -->
<g id="edge5" class="edge"><title>Node5&#45;&gt;Node6</title>
<path fill="none" stroke="midnightblue" d="M512.069,-48C522.953,-48 534.415,-48 545.612,-48"/>
<polygon fill="midnightblue" stroke="midnightblue" points="545.796,-51.5001 555.796,-48 545.796,-44.5001 545.796,-51.5001"/>
</g>
<!-- Node7 -->
<g id="node7" class="node"><title>Node7</title>
<g id="a_node7"><a xlink:href="classCCompoundRule.html#aa96236e3d92d64f6d525082be7f3c115" target="_top" xlink:title="CCompoundRule::dump">
<polygon fill="white" stroke="black" points="717,-38.5 717,-57.5 846,-57.5 846,-38.5 717,-38.5"/>
<text text-anchor="middle" x="781.5" y="-45.5" font-family="Verdana" font-size="10.00">CCompoundRule::dump</text>
</a>
</g>
</g>
<!-- Node6&#45;&gt;Node7 -->
<g id="edge6" class="edge"><title>Node6&#45;&gt;Node7</title>
<path fill="none" stroke="midnightblue" d="M681.286,-48C689.545,-48 698.082,-48 706.523,-48"/>
<polygon fill="midnightblue" stroke="midnightblue" points="706.746,-51.5001 716.746,-48 706.746,-44.5001 706.746,-51.5001"/>
</g>
<!-- Node8 -->
<g id="node8" class="node"><title>Node8</title>
<g id="a_node8"><a xlink:href="classCElement.html#a58b6cdb5715497442fde6afa1e65f8e5" target="_top" xlink:title="CElement::getNbChildren">
<polygon fill="white" stroke="black" points="882,-76.5 882,-95.5 1019,-95.5 1019,-76.5 882,-76.5"/>
<text text-anchor="middle" x="950.5" y="-83.5" font-family="Verdana" font-size="10.00">CElement::getNbChildren</text>
</a>
</g>
</g>
<!-- Node7&#45;&gt;Node8 -->
<g id="edge7" class="edge"><title>Node7&#45;&gt;Node8</title>
<path fill="none" stroke="midnightblue" d="M824.641,-57.589C846.877,-62.6487 874.348,-68.8996 897.856,-74.2488"/>
<polygon fill="midnightblue" stroke="midnightblue" points="897.135,-77.6739 907.662,-76.4799 898.688,-70.8484 897.135,-77.6739"/>
</g>
<!-- Node9 -->
<g id="node9" class="node"><title>Node9</title>
<g id="a_node9"><a xlink:href="classCElement.html#aee0d626525e9cd24d7639b6365afdc16" target="_top" xlink:title="Get a child element (const) ">
<polygon fill="white" stroke="black" points="896.5,-38.5 896.5,-57.5 1004.5,-57.5 1004.5,-38.5 896.5,-38.5"/>
<text text-anchor="middle" x="950.5" y="-45.5" font-family="Verdana" font-size="10.00">CElement::getChild</text>
</a>
</g>
</g>
<!-- Node7&#45;&gt;Node9 -->
<g id="edge8" class="edge"><title>Node7&#45;&gt;Node9</title>
<path fill="none" stroke="midnightblue" d="M846.112,-48C859.204,-48 872.988,-48 886.074,-48"/>
<polygon fill="midnightblue" stroke="midnightblue" points="886.391,-51.5001 896.391,-48 886.391,-44.5001 886.391,-51.5001"/>
</g>
<!-- Node10 -->
<g id="node10" class="node"><title>Node10</title>
<g id="a_node10"><a xlink:href="classCRule.html#a1f1682adc8db3c266f6c79bde39b12cd" target="_top" xlink:title="CRule::dump">
<polygon fill="white" stroke="black" points="912,-0.5 912,-19.5 989,-19.5 989,-0.5 912,-0.5"/>
<text text-anchor="middle" x="950.5" y="-7.5" font-family="Verdana" font-size="10.00">CRule::dump</text>
</a>
</g>
</g>
<!-- Node7&#45;&gt;Node10 -->
<g id="edge9" class="edge"><title>Node7&#45;&gt;Node10</title>
<path fill="none" stroke="midnightblue" d="M824.641,-38.411C848.25,-33.0389 877.761,-26.3238 902.164,-20.7711"/>
<polygon fill="midnightblue" stroke="midnightblue" points="902.957,-24.1802 911.931,-18.5487 901.404,-17.3547 902.957,-24.1802"/>
</g>
</g>
</svg>
