<?xml version="1.0" encoding="UTF-8" standalone="no"?>
<!DOCTYPE svg PUBLIC "-//W3C//DTD SVG 1.1//EN"
 "http://www.w3.org/Graphics/SVG/1.1/DTD/svg11.dtd">
<!-- Generated by graphviz version 2.38.0 (20140413.2041)
 -->
<!-- Title: CBaseParameter::doSetValue Pages: 1 -->
<svg width="345pt" height="78pt"
 viewBox="0.00 0.00 345.00 77.50" xmlns="http://www.w3.org/2000/svg" xmlns:xlink="http://www.w3.org/1999/xlink">
<g id="graph0" class="graph" transform="scale(1 1) rotate(0) translate(4 73.5)">
<title>CBaseParameter::doSetValue</title>
<polygon fill="white" stroke="none" points="-4,4 -4,-73.5 341,-73.5 341,4 -4,4"/>
<!-- Node1 -->
<g id="node1" class="node"><title>Node1</title>
<polygon fill="#bfbfbf" stroke="black" points="0,-22.5 0,-41.5 158,-41.5 158,-22.5 0,-22.5"/>
<text text-anchor="middle" x="79" y="-29.5" font-family="Verdana" font-size="10.00">CBaseParameter::doSetValue</text>
</g>
<!-- Node2 -->
<g id="node2" class="node"><title>Node2</title>
<g id="a_node2"><a xlink:href="classCBaseParameter.html#a97e096908df72fa729a62c3f5c362ddd" target="_top" xlink:title="CBaseParameter::serialize\lXmlSettings">
<polygon fill="white" stroke="black" points="194,-39 194,-69 337,-69 337,-39 194,-39"/>
<text text-anchor="start" x="202" y="-57" font-family="Verdana" font-size="10.00">CBaseParameter::serialize</text>
<text text-anchor="middle" x="265.5" y="-46" font-family="Verdana" font-size="10.00">XmlSettings</text>
</a>
</g>
</g>
<!-- Node1&#45;&gt;Node2 -->
<g id="edge1" class="edge"><title>Node1&#45;&gt;Node2</title>
<path fill="none" stroke="midnightblue" d="M168.245,-42.5225C176.797,-43.5422 185.395,-44.5675 193.745,-45.563"/>
<polygon fill="midnightblue" stroke="midnightblue" points="168.589,-39.0387 158.245,-41.33 167.76,-45.9895 168.589,-39.0387"/>
</g>
<!-- Node3 -->
<g id="node3" class="node"><title>Node3</title>
<g id="a_node3"><a xlink:href="classCBaseParameter.html#aa0367b428dcd868c67f34989bb101020" target="_top" xlink:title="CBaseParameter::access">
<polygon fill="white" stroke="black" points="197,-0.5 197,-19.5 334,-19.5 334,-0.5 197,-0.5"/>
<text text-anchor="middle" x="265.5" y="-7.5" font-family="Verdana" font-size="10.00">CBaseParameter::access</text>
</a>
</g>
</g>
<!-- Node1&#45;&gt;Node3 -->
<g id="edge2" class="edge"><title>Node1&#45;&gt;Node3</title>
<path fill="none" stroke="midnightblue" d="M168.252,-21.4767C177.893,-20.3272 187.591,-19.1707 196.926,-18.0576"/>
<polygon fill="midnightblue" stroke="midnightblue" points="167.76,-18.0105 158.245,-22.67 168.589,-24.9613 167.76,-18.0105"/>
</g>
</g>
</svg>
