<?xml version="1.0" encoding="UTF-8" standalone="no"?>
<!DOCTYPE svg PUBLIC "-//W3C//DTD SVG 1.1//EN"
 "http://www.w3.org/Graphics/SVG/1.1/DTD/svg11.dtd">
<!-- Generated by graphviz version 2.38.0 (20140413.2041)
 -->
<!-- Title: CInstanceConfigurableElement::getFormattedMapping Pages: 1 -->
<svg width="664pt" height="88pt"
 viewBox="0.00 0.00 664.00 88.00" xmlns="http://www.w3.org/2000/svg" xmlns:xlink="http://www.w3.org/1999/xlink">
<g id="graph0" class="graph" transform="scale(1 1) rotate(0) translate(4 84)">
<title>CInstanceConfigurableElement::getFormattedMapping</title>
<polygon fill="white" stroke="none" points="-4,4 -4,-84 660,-84 660,4 -4,4"/>
<!-- Node1 -->
<g id="node1" class="node"><title>Node1</title>
<polygon fill="#bfbfbf" stroke="black" points="0,-24.5 0,-54.5 164,-54.5 164,-24.5 0,-24.5"/>
<text text-anchor="start" x="8" y="-42.5" font-family="Verdana" font-size="10.00">CInstanceConfigurableElement</text>
<text text-anchor="middle" x="82" y="-31.5" font-family="Verdana" font-size="10.00">::getFormattedMapping</text>
</g>
<!-- Node2 -->
<g id="node2" class="node"><title>Node2</title>
<g id="a_node2"><a xlink:href="classCInstanceConfigurableElement.html#ae2d941df411f8ec4c025cbd04d3ba421" target="_top" xlink:title="CInstanceConfigurableElement\l::getTypeElement">
<polygon fill="white" stroke="black" points="200,-49.5 200,-79.5 364,-79.5 364,-49.5 200,-49.5"/>
<text text-anchor="start" x="208" y="-67.5" font-family="Verdana" font-size="10.00">CInstanceConfigurableElement</text>
<text text-anchor="middle" x="282" y="-56.5" font-family="Verdana" font-size="10.00">::getTypeElement</text>
</a>
</g>
</g>
<!-- Node1&#45;&gt;Node2 -->
<g id="edge1" class="edge"><title>Node1&#45;&gt;Node2</title>
<path fill="none" stroke="midnightblue" d="M164.105,-49.7406C172.549,-50.8067 181.172,-51.8955 189.719,-52.9746"/>
<polygon fill="midnightblue" stroke="midnightblue" points="189.341,-56.4545 199.7,-54.2349 190.217,-49.5097 189.341,-56.4545"/>
</g>
<!-- Node3 -->
<g id="node3" class="node"><title>Node3</title>
<g id="a_node3"><a xlink:href="classCTypeElement.html#a2d4fd9d4443f521e563ef1b6188aeeba" target="_top" xlink:title="Returns the mapping associated to the current TypeElement instance. ">
<polygon fill="white" stroke="black" points="204,-0.5 204,-30.5 360,-30.5 360,-0.5 204,-0.5"/>
<text text-anchor="start" x="212" y="-18.5" font-family="Verdana" font-size="10.00">CTypeElement::getFormatted</text>
<text text-anchor="middle" x="282" y="-7.5" font-family="Verdana" font-size="10.00">Mapping</text>
</a>
</g>
</g>
<!-- Node1&#45;&gt;Node3 -->
<g id="edge2" class="edge"><title>Node1&#45;&gt;Node3</title>
<path fill="none" stroke="midnightblue" d="M164.105,-29.669C173.855,-28.4873 183.844,-27.2765 193.677,-26.0846"/>
<polygon fill="midnightblue" stroke="midnightblue" points="194.345,-29.5293 203.851,-24.8514 193.503,-22.5802 194.345,-29.5293"/>
</g>
<!-- Node4 -->
<g id="node4" class="node"><title>Node4</title>
<g id="a_node4"><a xlink:href="classCMappingData.html#a47f8683f2a0ec019a5e461254f54d411" target="_top" xlink:title="Formats the mapping as a list of comma&#45;space separated key:value pairs. ">
<polygon fill="white" stroke="black" points="400,-6 400,-25 533,-25 533,-6 400,-6"/>
<text text-anchor="middle" x="466.5" y="-13" font-family="Verdana" font-size="10.00">CMappingData::asString</text>
</a>
</g>
</g>
<!-- Node3&#45;&gt;Node4 -->
<g id="edge3" class="edge"><title>Node3&#45;&gt;Node4</title>
<path fill="none" stroke="midnightblue" d="M360.132,-15.5C369.951,-15.5 379.994,-15.5 389.791,-15.5"/>
<polygon fill="midnightblue" stroke="midnightblue" points="389.891,-19.0001 399.891,-15.5 389.891,-12.0001 389.891,-19.0001"/>
</g>
<!-- Node5 -->
<g id="node5" class="node"><title>Node5</title>
<g id="a_node5"><a xlink:href="namespaceutility.html#a3fb85a4dbd0307733f0dda49811db6d1" target="_top" xlink:title="Format the items of a map into a string as a list of key&#45;value pairs. ">
<polygon fill="white" stroke="black" points="569,-6 569,-25 656,-25 656,-6 569,-6"/>
<text text-anchor="middle" x="612.5" y="-13" font-family="Verdana" font-size="10.00">utility::asString</text>
</a>
</g>
</g>
<!-- Node4&#45;&gt;Node5 -->
<g id="edge4" class="edge"><title>Node4&#45;&gt;Node5</title>
<path fill="none" stroke="midnightblue" d="M533.179,-15.5C541.828,-15.5 550.599,-15.5 558.988,-15.5"/>
<polygon fill="midnightblue" stroke="midnightblue" points="558.998,-19.0001 568.998,-15.5 558.998,-12.0001 558.998,-19.0001"/>
</g>
</g>
</svg>
