<?xml version="1.0" encoding="UTF-8" standalone="no"?>
<!DOCTYPE svg PUBLIC "-//W3C//DTD SVG 1.1//EN"
 "http://www.w3.org/Graphics/SVG/1.1/DTD/svg11.dtd">
<!-- Generated by graphviz version 2.38.0 (20140413.2041)
 -->
<!-- Title: CXmlElement::setXmlElement Pages: 1 -->
<svg width="1390pt" height="944pt"
 viewBox="0.00 0.00 1390.00 944.00" xmlns="http://www.w3.org/2000/svg" xmlns:xlink="http://www.w3.org/1999/xlink">
<g id="graph0" class="graph" transform="scale(1 1) rotate(0) translate(4 940)">
<title>CXmlElement::setXmlElement</title>
<polygon fill="white" stroke="none" points="-4,4 -4,-940 1386,-940 1386,4 -4,4"/>
<!-- Node1 -->
<g id="node1" class="node"><title>Node1</title>
<polygon fill="#bfbfbf" stroke="black" points="0,-463 0,-482 160,-482 160,-463 0,-463"/>
<text text-anchor="middle" x="80" y="-470" font-family="Verdana" font-size="10.00">CXmlElement::setXmlElement</text>
</g>
<!-- Node2 -->
<g id="node2" class="node"><title>Node2</title>
<g id="a_node2"><a xlink:href="classCXmlDocSource.html#a2a7e3d4b2568b41e56b6f553eba7b93c" target="_top" xlink:title="Method that returns the root element of the Xml tree. ">
<polygon fill="white" stroke="black" points="405,-797 405,-816 581,-816 581,-797 405,-797"/>
<text text-anchor="middle" x="493" y="-804" font-family="Verdana" font-size="10.00">CXmlDocSource::getRootElement</text>
</a>
</g>
</g>
<!-- Node1&#45;&gt;Node2 -->
<g id="edge1" class="edge"><title>Node1&#45;&gt;Node2</title>
<path fill="none" stroke="midnightblue" d="M100.786,-488.579C173.202,-547.428 422.568,-750.076 480.095,-796.825"/>
<polygon fill="midnightblue" stroke="midnightblue" points="102.825,-485.726 92.8572,-482.136 98.4104,-491.159 102.825,-485.726"/>
</g>
<!-- Node4 -->
<g id="node4" class="node"><title>Node4</title>
<g id="a_node4"><a xlink:href="classCXmlElement.html#a28a62e123c5042524a20eda9cc425d5f" target="_top" xlink:title="CXmlElement::getParentElement">
<polygon fill="white" stroke="black" points="196,-520 196,-539 369,-539 369,-520 196,-520"/>
<text text-anchor="middle" x="282.5" y="-527" font-family="Verdana" font-size="10.00">CXmlElement::getParentElement</text>
</a>
</g>
</g>
<!-- Node1&#45;&gt;Node4 -->
<g id="edge3" class="edge"><title>Node1&#45;&gt;Node4</title>
<path fill="none" stroke="midnightblue" d="M124.565,-484.885C161.583,-495.409 213.961,-510.299 247.831,-519.928"/>
<polygon fill="midnightblue" stroke="midnightblue" points="125.135,-481.409 114.559,-482.041 123.221,-488.142 125.135,-481.409"/>
</g>
<!-- Node18 -->
<g id="node18" class="node"><title>Node18</title>
<g id="a_node18"><a xlink:href="classCXmlElement.html#ab496b728efa782727a27b294858e8fc6" target="_top" xlink:title="CXmlElement::createChild">
<polygon fill="white" stroke="black" points="637.5,-99 637.5,-118 778.5,-118 778.5,-99 637.5,-99"/>
<text text-anchor="middle" x="708" y="-106" font-family="Verdana" font-size="10.00">CXmlElement::createChild</text>
</a>
</g>
</g>
<!-- Node1&#45;&gt;Node18 -->
<g id="edge24" class="edge"><title>Node1&#45;&gt;Node18</title>
<path fill="none" stroke="midnightblue" d="M104.184,-457.323C127.265,-442.322 163.8,-418.873 196,-399.5 387.142,-284.498 624.256,-153.818 689.622,-118"/>
<polygon fill="midnightblue" stroke="midnightblue" points="102.213,-454.43 95.7447,-462.821 106.034,-460.295 102.213,-454.43"/>
</g>
<!-- Node26 -->
<g id="node26" class="node"><title>Node26</title>
<g id="a_node26"><a xlink:href="classCXmlElement_1_1CChildIterator.html#a65a1c3514c3fac2cfab99224991f2bdc" target="_top" xlink:title="CXmlElement::CChildIterator\l::next">
<polygon fill="white" stroke="black" points="632,-306.5 632,-336.5 784,-336.5 784,-306.5 632,-306.5"/>
<text text-anchor="start" x="640" y="-324.5" font-family="Verdana" font-size="10.00">CXmlElement::CChildIterator</text>
<text text-anchor="middle" x="708" y="-313.5" font-family="Verdana" font-size="10.00">::next</text>
</a>
</g>
</g>
<!-- Node1&#45;&gt;Node26 -->
<g id="edge34" class="edge"><title>Node1&#45;&gt;Node26</title>
<path fill="none" stroke="midnightblue" d="M130.407,-460.582C243.389,-433.329 520.431,-366.503 644.794,-336.505"/>
<polygon fill="midnightblue" stroke="midnightblue" points="129.534,-457.192 120.634,-462.94 131.176,-463.997 129.534,-457.192"/>
</g>
<!-- Node3 -->
<g id="node3" class="node"><title>Node3</title>
<g id="a_node3"><a xlink:href="classCXmlFileIncluderElement.html#a754298eb75aacfe300ed3942d51611aa" target="_top" xlink:title="CXmlFileIncluderElement\l::fromXml">
<polygon fill="white" stroke="black" points="641,-905.5 641,-935.5 775,-935.5 775,-905.5 641,-905.5"/>
<text text-anchor="start" x="649" y="-923.5" font-family="Verdana" font-size="10.00">CXmlFileIncluderElement</text>
<text text-anchor="middle" x="708" y="-912.5" font-family="Verdana" font-size="10.00">::fromXml</text>
</a>
</g>
</g>
<!-- Node2&#45;&gt;Node3 -->
<g id="edge2" class="edge"><title>Node2&#45;&gt;Node3</title>
<path fill="none" stroke="midnightblue" d="M513.615,-822.453C537.041,-840.881 577.972,-871.141 617,-890.5 628.509,-896.209 641.359,-901.224 653.666,-905.438"/>
<polygon fill="midnightblue" stroke="midnightblue" points="515.537,-819.51 505.534,-816.017 511.176,-824.985 515.537,-819.51"/>
</g>
<!-- Node5 -->
<g id="node5" class="node"><title>Node5</title>
<g id="a_node5"><a xlink:href="classCXmlElement.html#ac47c56a3cad8ac7d1fe7579e833227c5" target="_top" xlink:title="CXmlElement::getPath">
<polygon fill="white" stroke="black" points="431,-627 431,-646 555,-646 555,-627 431,-627"/>
<text text-anchor="middle" x="493" y="-634" font-family="Verdana" font-size="10.00">CXmlElement::getPath</text>
</a>
</g>
</g>
<!-- Node4&#45;&gt;Node5 -->
<g id="edge4" class="edge"><title>Node4&#45;&gt;Node5</title>
<path fill="none" stroke="midnightblue" d="M311.48,-543.859C354.708,-566.043 436.575,-608.056 473.322,-626.915"/>
<polygon fill="midnightblue" stroke="midnightblue" points="312.866,-540.636 302.371,-539.184 309.67,-546.864 312.866,-540.636"/>
</g>
<!-- Node5&#45;&gt;Node3 -->
<g id="edge22" class="edge"><title>Node5&#45;&gt;Node3</title>
<path fill="none" stroke="midnightblue" d="M505.98,-654.695C523.926,-682.485 558.123,-737.549 581,-787.5 601.192,-831.589 582.462,-856.459 617,-890.5 623.804,-897.206 632.144,-902.413 640.976,-906.456"/>
<polygon fill="midnightblue" stroke="midnightblue" points="508.744,-652.527 500.354,-646.056 502.878,-656.346 508.744,-652.527"/>
</g>
<!-- Node5&#45;&gt;Node5 -->
<g id="edge23" class="edge"><title>Node5&#45;&gt;Node5</title>
<path fill="none" stroke="midnightblue" d="M453.723,-653.118C452.347,-659.356 465.439,-664.5 493,-664.5 530.529,-664.5 541.231,-654.961 525.105,-646.112"/>
<polygon fill="midnightblue" stroke="midnightblue" points="456.187,-655.604 460.895,-646.112 451.296,-650.596 456.187,-655.604"/>
</g>
<!-- Node6 -->
<g id="node6" class="node"><title>Node6</title>
<g id="a_node6"><a xlink:href="classCComponentInstance.html#a1943a2510a8a326f0fedd9cc8f07b193" target="_top" xlink:title="CComponentInstance\l::fromXml">
<polygon fill="white" stroke="black" points="648,-572.5 648,-602.5 768,-602.5 768,-572.5 648,-572.5"/>
<text text-anchor="start" x="656" y="-590.5" font-family="Verdana" font-size="10.00">CComponentInstance</text>
<text text-anchor="middle" x="708" y="-579.5" font-family="Verdana" font-size="10.00">::fromXml</text>
</a>
</g>
</g>
<!-- Node5&#45;&gt;Node6 -->
<g id="edge5" class="edge"><title>Node5&#45;&gt;Node6</title>
<path fill="none" stroke="midnightblue" d="M545.423,-624.67C576.237,-617.582 615.537,-608.541 647.663,-601.15"/>
<polygon fill="midnightblue" stroke="midnightblue" points="544.282,-621.341 535.321,-626.994 545.851,-628.163 544.282,-621.341"/>
</g>
<!-- Node7 -->
<g id="node7" class="node"><title>Node7</title>
<g id="a_node7"><a xlink:href="classCComponentType.html#a962c2716cd757893d0a1dafc84d538da" target="_top" xlink:title="CComponentType::fromXml">
<polygon fill="white" stroke="black" points="634.5,-534 634.5,-553 781.5,-553 781.5,-534 634.5,-534"/>
<text text-anchor="middle" x="708" y="-541" font-family="Verdana" font-size="10.00">CComponentType::fromXml</text>
</a>
</g>
</g>
<!-- Node5&#45;&gt;Node7 -->
<g id="edge6" class="edge"><title>Node5&#45;&gt;Node7</title>
<path fill="none" stroke="midnightblue" d="M514.722,-621.053C538.303,-604.205 578.546,-577.629 617,-562.5 626.659,-558.7 637.216,-555.604 647.591,-553.101"/>
<polygon fill="midnightblue" stroke="midnightblue" points="512.578,-618.284 506.539,-626.989 516.688,-623.95 512.578,-618.284"/>
</g>
<!-- Node8 -->
<g id="node8" class="node"><title>Node8</title>
<g id="a_node8"><a xlink:href="classCElement.html#a1978d50e2db432e7b8f0928f33d3f01a" target="_top" xlink:title="CElement::fromXml">
<polygon fill="white" stroke="black" points="872.5,-407 872.5,-426 982.5,-426 982.5,-407 872.5,-407"/>
<text text-anchor="middle" x="927.5" y="-414" font-family="Verdana" font-size="10.00">CElement::fromXml</text>
</a>
</g>
</g>
<!-- Node5&#45;&gt;Node8 -->
<g id="edge7" class="edge"><title>Node5&#45;&gt;Node8</title>
<path fill="none" stroke="midnightblue" d="M500.233,-617.23C514.098,-577.824 551.542,-488.384 617,-448.5 695.653,-400.577 806.825,-402.294 872.311,-408.787"/>
<polygon fill="midnightblue" stroke="midnightblue" points="496.839,-616.341 496.944,-626.936 503.468,-618.588 496.839,-616.341"/>
</g>
<!-- Node10 -->
<g id="node10" class="node"><title>Node10</title>
<g id="a_node10"><a xlink:href="classCSubsystem.html#aa114a31f4aa4b0f47b3c616b721854d4" target="_top" xlink:title="CSubsystem::fromXml">
<polygon fill="white" stroke="black" points="1258,-466 1258,-485 1382,-485 1382,-466 1258,-466"/>
<text text-anchor="middle" x="1320" y="-473" font-family="Verdana" font-size="10.00">CSubsystem::fromXml</text>
</a>
</g>
</g>
<!-- Node5&#45;&gt;Node10 -->
<g id="edge19" class="edge"><title>Node5&#45;&gt;Node10</title>
<path fill="none" stroke="midnightblue" d="M507.212,-618.455C527.492,-592.373 569.019,-545.022 617,-524.5 731.505,-475.526 1108.86,-473.479 1257.78,-474.676"/>
<polygon fill="midnightblue" stroke="midnightblue" points="504.203,-616.631 500.95,-626.714 509.781,-620.861 504.203,-616.631"/>
</g>
<!-- Node11 -->
<g id="node11" class="node"><title>Node11</title>
<g id="a_node11"><a xlink:href="classCElement.html#a0b4cdc10e6df8fd3740255c5faf3b596" target="_top" xlink:title="Creates a child CElement from a child XML Element. ">
<polygon fill="white" stroke="black" points="646.5,-458 646.5,-477 769.5,-477 769.5,-458 646.5,-458"/>
<text text-anchor="middle" x="708" y="-465" font-family="Verdana" font-size="10.00">CElement::createChild</text>
</a>
</g>
</g>
<!-- Node5&#45;&gt;Node11 -->
<g id="edge11" class="edge"><title>Node5&#45;&gt;Node11</title>
<path fill="none" stroke="midnightblue" d="M504.415,-618.11C522.94,-587.115 564.637,-524.618 617,-491.5 626.977,-485.19 638.582,-480.527 650.076,-477.085"/>
<polygon fill="midnightblue" stroke="midnightblue" points="501.25,-616.589 499.231,-626.99 507.295,-620.119 501.25,-616.589"/>
</g>
<!-- Node12 -->
<g id="node12" class="node"><title>Node12</title>
<g id="a_node12"><a xlink:href="classCFixedPointParameterType.html#a58d031a099f032135417110023dad31e" target="_top" xlink:title="CFixedPointParameterType\l::fromXml">
<polygon fill="white" stroke="black" points="636.5,-817.5 636.5,-847.5 779.5,-847.5 779.5,-817.5 636.5,-817.5"/>
<text text-anchor="start" x="644.5" y="-835.5" font-family="Verdana" font-size="10.00">CFixedPointParameterType</text>
<text text-anchor="middle" x="708" y="-824.5" font-family="Verdana" font-size="10.00">::fromXml</text>
</a>
</g>
</g>
<!-- Node5&#45;&gt;Node12 -->
<g id="edge14" class="edge"><title>Node5&#45;&gt;Node12</title>
<path fill="none" stroke="midnightblue" d="M502.41,-655.663C519.001,-691.193 559.4,-767.32 617,-807.5 622.852,-811.582 629.351,-815 636.102,-817.86"/>
<polygon fill="midnightblue" stroke="midnightblue" points="505.524,-654.056 498.199,-646.401 499.152,-656.953 505.524,-654.056"/>
</g>
<!-- Node13 -->
<g id="node13" class="node"><title>Node13</title>
<g id="a_node13"><a xlink:href="classCFrameworkConfigurationLocation.html#a2e9a4fed347353201cd0272de4952841" target="_top" xlink:title="CFrameworkConfigurationLocation\l::fromXml">
<polygon fill="white" stroke="black" points="618.5,-768.5 618.5,-798.5 797.5,-798.5 797.5,-768.5 618.5,-768.5"/>
<text text-anchor="start" x="626.5" y="-786.5" font-family="Verdana" font-size="10.00">CFrameworkConfigurationLocation</text>
<text text-anchor="middle" x="708" y="-775.5" font-family="Verdana" font-size="10.00">::fromXml</text>
</a>
</g>
</g>
<!-- Node5&#45;&gt;Node13 -->
<g id="edge15" class="edge"><title>Node5&#45;&gt;Node13</title>
<path fill="none" stroke="midnightblue" d="M506.896,-654.13C527.288,-680.734 569.564,-730.952 617,-758.5 623.591,-762.328 630.795,-765.592 638.166,-768.372"/>
<polygon fill="midnightblue" stroke="midnightblue" points="509.651,-651.969 500.844,-646.08 504.056,-656.176 509.651,-651.969"/>
</g>
<!-- Node14 -->
<g id="node14" class="node"><title>Node14</title>
<g id="a_node14"><a xlink:href="classCLinearParameterAdaptation.html#a3dfe0a5f0d6ddc9ca72f159bc066354e" target="_top" xlink:title="CLinearParameterAdaptation\l::fromXml">
<polygon fill="white" stroke="black" points="630.5,-719.5 630.5,-749.5 785.5,-749.5 785.5,-719.5 630.5,-719.5"/>
<text text-anchor="start" x="638.5" y="-737.5" font-family="Verdana" font-size="10.00">CLinearParameterAdaptation</text>
<text text-anchor="middle" x="708" y="-726.5" font-family="Verdana" font-size="10.00">::fromXml</text>
</a>
</g>
</g>
<!-- Node5&#45;&gt;Node14 -->
<g id="edge16" class="edge"><title>Node5&#45;&gt;Node14</title>
<path fill="none" stroke="midnightblue" d="M515.707,-651.803C539.577,-668.04 579.533,-693.514 617,-709.5 625.651,-713.191 635.002,-716.493 644.291,-719.393"/>
<polygon fill="midnightblue" stroke="midnightblue" points="517.606,-648.861 507.385,-646.071 513.635,-654.625 517.606,-648.861"/>
</g>
<!-- Node15 -->
<g id="node15" class="node"><title>Node15</title>
<g id="a_node15"><a xlink:href="classCLogarithmicParameterAdaptation.html#ac0b21330479721a562cbc9ff572b5e8e" target="_top" xlink:title="CLogarithmicParameterAdaptation\l::fromXml">
<polygon fill="white" stroke="black" points="617,-670.5 617,-700.5 799,-700.5 799,-670.5 617,-670.5"/>
<text text-anchor="start" x="625" y="-688.5" font-family="Verdana" font-size="10.00">CLogarithmicParameterAdaptation</text>
<text text-anchor="middle" x="708" y="-677.5" font-family="Verdana" font-size="10.00">::fromXml</text>
</a>
</g>
</g>
<!-- Node5&#45;&gt;Node15 -->
<g id="edge17" class="edge"><title>Node5&#45;&gt;Node15</title>
<path fill="none" stroke="midnightblue" d="M545.208,-648.28C574.108,-654.929 610.524,-663.306 641.486,-670.429"/>
<polygon fill="midnightblue" stroke="midnightblue" points="545.851,-644.837 535.321,-646.006 544.282,-651.659 545.851,-644.837"/>
</g>
<!-- Node16 -->
<g id="node16" class="node"><title>Node16</title>
<g id="a_node16"><a xlink:href="classCSelectionCriterionRule.html#aa3536258af1e5f9cc1db535e7629d42c" target="_top" xlink:title="CSelectionCriterionRule\l::fromXml">
<polygon fill="white" stroke="black" points="644,-621.5 644,-651.5 772,-651.5 772,-621.5 644,-621.5"/>
<text text-anchor="start" x="652" y="-639.5" font-family="Verdana" font-size="10.00">CSelectionCriterionRule</text>
<text text-anchor="middle" x="708" y="-628.5" font-family="Verdana" font-size="10.00">::fromXml</text>
</a>
</g>
</g>
<!-- Node5&#45;&gt;Node16 -->
<g id="edge18" class="edge"><title>Node5&#45;&gt;Node16</title>
<path fill="none" stroke="midnightblue" d="M565.336,-636.5C590.708,-636.5 619.08,-636.5 643.73,-636.5"/>
<polygon fill="midnightblue" stroke="midnightblue" points="565.037,-633 555.037,-636.5 565.037,-640 565.037,-633"/>
</g>
<!-- Node17 -->
<g id="node17" class="node"><title>Node17</title>
<g id="a_node17"><a xlink:href="classCTypeElement.html#a8f3a08cd11a7db4fde3bd69dde5c8b66" target="_top" xlink:title="CTypeElement::fromXml">
<polygon fill="white" stroke="black" points="1073.5,-703 1073.5,-722 1204.5,-722 1204.5,-703 1073.5,-703"/>
<text text-anchor="middle" x="1139" y="-710" font-family="Verdana" font-size="10.00">CTypeElement::fromXml</text>
</a>
</g>
</g>
<!-- Node5&#45;&gt;Node17 -->
<g id="edge20" class="edge"><title>Node5&#45;&gt;Node17</title>
<path fill="none" stroke="midnightblue" d="M505.08,-655.148C521.863,-683.522 554.574,-739.333 581,-787.5 597.638,-817.825 587.421,-838.569 617,-856.5 798.766,-966.683 1066.74,-769.169 1126.08,-722.185"/>
<polygon fill="midnightblue" stroke="midnightblue" points="507.953,-653.131 499.844,-646.313 501.931,-656.7 507.953,-653.131"/>
</g>
<!-- Node8&#45;&gt;Node8 -->
<g id="edge10" class="edge"><title>Node8&#45;&gt;Node8</title>
<path fill="none" stroke="midnightblue" d="M888.223,-433.118C886.847,-439.356 899.939,-444.5 927.5,-444.5 965.029,-444.5 975.731,-434.961 959.605,-426.112"/>
<polygon fill="midnightblue" stroke="midnightblue" points="890.687,-435.604 895.395,-426.112 885.796,-430.596 890.687,-435.604"/>
</g>
<!-- Node9 -->
<g id="node9" class="node"><title>Node9</title>
<g id="a_node9"><a xlink:href="classCComponentLibrary.html#ad4cc928cda43371fb31f20394e8e04e5" target="_top" xlink:title="CComponentLibrary::\lfromXml">
<polygon fill="white" stroke="black" points="1080.5,-426.5 1080.5,-456.5 1197.5,-456.5 1197.5,-426.5 1080.5,-426.5"/>
<text text-anchor="start" x="1088.5" y="-444.5" font-family="Verdana" font-size="10.00">CComponentLibrary::</text>
<text text-anchor="middle" x="1139" y="-433.5" font-family="Verdana" font-size="10.00">fromXml</text>
</a>
</g>
</g>
<!-- Node8&#45;&gt;Node9 -->
<g id="edge8" class="edge"><title>Node8&#45;&gt;Node9</title>
<path fill="none" stroke="midnightblue" d="M992.792,-424.172C1020.72,-427.505 1053.19,-431.38 1080.34,-434.619"/>
<polygon fill="midnightblue" stroke="midnightblue" points="993.068,-420.68 982.724,-422.971 992.239,-427.631 993.068,-420.68"/>
</g>
<!-- Node9&#45;&gt;Node10 -->
<g id="edge9" class="edge"><title>Node9&#45;&gt;Node10</title>
<path fill="none" stroke="midnightblue" d="M1207.45,-454.312C1227.78,-458.172 1249.72,-462.34 1268.72,-465.95"/>
<polygon fill="midnightblue" stroke="midnightblue" points="1208.1,-450.873 1197.62,-452.445 1206.79,-457.75 1208.1,-450.873"/>
</g>
<!-- Node11&#45;&gt;Node8 -->
<g id="edge13" class="edge"><title>Node11&#45;&gt;Node8</title>
<path fill="none" stroke="midnightblue" d="M759.587,-455.638C797.936,-446.646 849.958,-434.448 885.676,-426.073"/>
<polygon fill="midnightblue" stroke="midnightblue" points="758.592,-452.277 749.655,-457.967 760.19,-459.092 758.592,-452.277"/>
</g>
<!-- Node11&#45;&gt;Node9 -->
<g id="edge12" class="edge"><title>Node11&#45;&gt;Node9</title>
<path fill="none" stroke="midnightblue" d="M779.785,-465.45C842.864,-463.352 937.665,-459.535 1020,-453.5 1039.72,-452.055 1061.24,-450.006 1080.44,-448.01"/>
<polygon fill="midnightblue" stroke="midnightblue" points="779.433,-461.959 769.552,-465.784 779.661,-468.956 779.433,-461.959"/>
</g>
<!-- Node17&#45;&gt;Node10 -->
<g id="edge21" class="edge"><title>Node17&#45;&gt;Node10</title>
<path fill="none" stroke="midnightblue" d="M1153.3,-694.893C1188.71,-648.013 1284.42,-521.282 1311.67,-485.203"/>
<polygon fill="midnightblue" stroke="midnightblue" points="1150.47,-692.827 1147.24,-702.916 1156.06,-697.045 1150.47,-692.827"/>
</g>
<!-- Node19 -->
<g id="node19" class="node"><title>Node19</title>
<g id="a_node19"><a xlink:href="classCConfigurableElement.html#a0e3feb8a7b18a3291ec960c9726b4eaf" target="_top" xlink:title="CConfigurableElement\l::serializeXmlSettings">
<polygon fill="white" stroke="black" points="866,-137.5 866,-167.5 989,-167.5 989,-137.5 866,-137.5"/>
<text text-anchor="start" x="874" y="-155.5" font-family="Verdana" font-size="10.00">CConfigurableElement</text>
<text text-anchor="middle" x="927.5" y="-144.5" font-family="Verdana" font-size="10.00">::serializeXmlSettings</text>
</a>
</g>
</g>
<!-- Node18&#45;&gt;Node19 -->
<g id="edge25" class="edge"><title>Node18&#45;&gt;Node19</title>
<path fill="none" stroke="midnightblue" d="M766.288,-120.089C796.91,-126.284 834.607,-133.91 865.74,-140.208"/>
<polygon fill="midnightblue" stroke="midnightblue" points="766.69,-116.6 756.194,-118.047 765.302,-123.461 766.69,-116.6"/>
</g>
<!-- Node21 -->
<g id="node21" class="node"><title>Node21</title>
<g id="a_node21"><a xlink:href="classCDomainConfiguration.html#a97554abea0968d2e55151302b0260b63" target="_top" xlink:title="CDomainConfiguration\l::composeSettings">
<polygon fill="white" stroke="black" points="865,-0.5 865,-30.5 990,-30.5 990,-0.5 865,-0.5"/>
<text text-anchor="start" x="873" y="-18.5" font-family="Verdana" font-size="10.00">CDomainConfiguration</text>
<text text-anchor="middle" x="927.5" y="-7.5" font-family="Verdana" font-size="10.00">::composeSettings</text>
</a>
</g>
</g>
<!-- Node18&#45;&gt;Node21 -->
<g id="edge28" class="edge"><title>Node18&#45;&gt;Node21</title>
<path fill="none" stroke="midnightblue" d="M732.182,-93.5424C756.84,-78.1815 797.398,-54.4649 835,-39.5 844.46,-35.7349 854.705,-32.3858 864.8,-29.4721"/>
<polygon fill="midnightblue" stroke="midnightblue" points="730.142,-90.691 723.549,-98.9848 733.875,-96.6125 730.142,-90.691"/>
</g>
<!-- Node22 -->
<g id="node22" class="node"><title>Node22</title>
<g id="a_node22"><a xlink:href="classCElement.html#aee22d6b038603b6481a8f029bf59ff3d" target="_top" xlink:title="Serialize the children to XML. ">
<polygon fill="white" stroke="black" points="860.5,-99 860.5,-118 994.5,-118 994.5,-99 860.5,-99"/>
<text text-anchor="middle" x="927.5" y="-106" font-family="Verdana" font-size="10.00">CElement::childrenToXml</text>
</a>
</g>
</g>
<!-- Node18&#45;&gt;Node22 -->
<g id="edge29" class="edge"><title>Node18&#45;&gt;Node22</title>
<path fill="none" stroke="midnightblue" d="M788.963,-108.5C812.365,-108.5 837.683,-108.5 860.141,-108.5"/>
<polygon fill="midnightblue" stroke="midnightblue" points="788.716,-105 778.716,-108.5 788.716,-112 788.716,-105"/>
</g>
<!-- Node24 -->
<g id="node24" class="node"><title>Node24</title>
<g id="a_node24"><a xlink:href="classCSelectionCriterionType.html#a95813f4b14f06857afaf8a50d0d62600" target="_top" xlink:title="Export to XML. ">
<polygon fill="white" stroke="black" points="863,-49.5 863,-79.5 992,-79.5 992,-49.5 863,-49.5"/>
<text text-anchor="start" x="871" y="-67.5" font-family="Verdana" font-size="10.00">CSelectionCriterionType</text>
<text text-anchor="middle" x="927.5" y="-56.5" font-family="Verdana" font-size="10.00">::toXml</text>
</a>
</g>
</g>
<!-- Node18&#45;&gt;Node24 -->
<g id="edge32" class="edge"><title>Node18&#45;&gt;Node24</title>
<path fill="none" stroke="midnightblue" d="M766.006,-96.9679C795.751,-90.9504 832.231,-83.5705 862.891,-77.368"/>
<polygon fill="midnightblue" stroke="midnightblue" points="765.302,-93.5392 756.194,-98.9527 766.69,-100.4 765.302,-93.5392"/>
</g>
<!-- Node19&#45;&gt;Node19 -->
<g id="edge27" class="edge"><title>Node19&#45;&gt;Node19</title>
<path fill="none" stroke="midnightblue" d="M890.186,-177.958C894.817,-182.679 907.255,-186 927.5,-186 960.723,-186 972.922,-177.057 964.097,-167.659"/>
<polygon fill="midnightblue" stroke="midnightblue" points="893.699,-177.878 890.903,-167.659 886.716,-177.391 893.699,-177.878"/>
</g>
<!-- Node20 -->
<g id="node20" class="node"><title>Node20</title>
<g id="a_node20"><a xlink:href="classCAreaConfiguration.html#a6b8c95a79343ee9823b026d74184e798" target="_top" xlink:title="CAreaConfiguration\l::serializeXmlSettings">
<polygon fill="white" stroke="black" points="1079.5,-137.5 1079.5,-167.5 1198.5,-167.5 1198.5,-137.5 1079.5,-137.5"/>
<text text-anchor="start" x="1087.5" y="-155.5" font-family="Verdana" font-size="10.00">CAreaConfiguration</text>
<text text-anchor="middle" x="1139" y="-144.5" font-family="Verdana" font-size="10.00">::serializeXmlSettings</text>
</a>
</g>
</g>
<!-- Node19&#45;&gt;Node20 -->
<g id="edge26" class="edge"><title>Node19&#45;&gt;Node20</title>
<path fill="none" stroke="midnightblue" d="M999.281,-152.5C1025.32,-152.5 1054.49,-152.5 1079.34,-152.5"/>
<polygon fill="midnightblue" stroke="midnightblue" points="999.096,-149 989.096,-152.5 999.096,-156 999.096,-149"/>
</g>
<!-- Node23 -->
<g id="node23" class="node"><title>Node23</title>
<g id="a_node23"><a xlink:href="classCElement.html#a7ce1bde0fda5cf412b652000cab473e4" target="_top" xlink:title="CElement::toXml">
<polygon fill="white" stroke="black" points="1090.5,-99 1090.5,-118 1187.5,-118 1187.5,-99 1090.5,-99"/>
<text text-anchor="middle" x="1139" y="-106" font-family="Verdana" font-size="10.00">CElement::toXml</text>
</a>
</g>
</g>
<!-- Node22&#45;&gt;Node23 -->
<g id="edge30" class="edge"><title>Node22&#45;&gt;Node23</title>
<path fill="none" stroke="midnightblue" d="M1005.15,-101.971C1033.68,-101.512 1065.21,-101.768 1090.4,-102.737"/>
<polygon fill="midnightblue" stroke="midnightblue" points="1004.72,-98.4783 994.787,-102.172 1004.85,-105.477 1004.72,-98.4783"/>
</g>
<!-- Node23&#45;&gt;Node22 -->
<g id="edge31" class="edge"><title>Node23&#45;&gt;Node22</title>
<path fill="none" stroke="midnightblue" d="M1080.15,-114.609C1053.69,-115.383 1022.2,-115.456 994.787,-114.828"/>
<polygon fill="midnightblue" stroke="midnightblue" points="1080.52,-118.098 1090.4,-114.263 1080.28,-111.102 1080.52,-118.098"/>
</g>
<!-- Node25 -->
<g id="node25" class="node"><title>Node25</title>
<g id="a_node25"><a xlink:href="classCSelectionCriterion.html#a3942150fa9e5980d89268672fff31032" target="_top" xlink:title="Export to XML. ">
<polygon fill="white" stroke="black" points="1085,-49.5 1085,-79.5 1193,-79.5 1193,-49.5 1085,-49.5"/>
<text text-anchor="start" x="1093" y="-67.5" font-family="Verdana" font-size="10.00">CSelectionCriterion</text>
<text text-anchor="middle" x="1139" y="-56.5" font-family="Verdana" font-size="10.00">::toXml</text>
</a>
</g>
</g>
<!-- Node24&#45;&gt;Node25 -->
<g id="edge33" class="edge"><title>Node24&#45;&gt;Node25</title>
<path fill="none" stroke="midnightblue" d="M1002.46,-64.5C1029.63,-64.5 1059.83,-64.5 1084.82,-64.5"/>
<polygon fill="midnightblue" stroke="midnightblue" points="1002.21,-61.0001 992.21,-64.5 1002.21,-68.0001 1002.21,-61.0001"/>
</g>
<!-- Node26&#45;&gt;Node8 -->
<g id="edge38" class="edge"><title>Node26&#45;&gt;Node8</title>
<path fill="none" stroke="midnightblue" d="M740.402,-342.205C765.229,-357.82 801.215,-378.816 835,-392.5 849.461,-398.357 865.789,-403.172 880.608,-406.912"/>
<polygon fill="midnightblue" stroke="midnightblue" points="742.101,-339.137 731.785,-336.719 738.341,-345.042 742.101,-339.137"/>
</g>
<!-- Node26&#45;&gt;Node9 -->
<g id="edge35" class="edge"><title>Node26&#45;&gt;Node9</title>
<path fill="none" stroke="midnightblue" d="M765.108,-339.606C786.819,-346.3 811.95,-353.669 835,-359.5 916.376,-380.084 939.324,-374.323 1020,-397.5 1048.05,-405.559 1078.94,-417.179 1102.07,-426.453"/>
<polygon fill="midnightblue" stroke="midnightblue" points="765.982,-336.213 755.393,-336.586 763.903,-342.897 765.982,-336.213"/>
</g>
<!-- Node26&#45;&gt;Node19 -->
<g id="edge36" class="edge"><title>Node26&#45;&gt;Node19</title>
<path fill="none" stroke="midnightblue" d="M727.751,-298.373C750.782,-271.088 792.099,-225.635 835,-195.5 850.799,-184.402 869.915,-174.902 886.579,-167.676"/>
<polygon fill="midnightblue" stroke="midnightblue" points="724.924,-296.298 721.209,-306.221 730.301,-300.781 724.924,-296.298"/>
</g>
<!-- Node27 -->
<g id="node27" class="node"><title>Node27</title>
<g id="a_node27"><a xlink:href="classCDomainConfiguration.html#afbcd309cfae933c862f24368b5c9eab5" target="_top" xlink:title="CDomainConfiguration\l::parseSettings">
<polygon fill="white" stroke="black" points="865,-243.5 865,-273.5 990,-273.5 990,-243.5 865,-243.5"/>
<text text-anchor="start" x="873" y="-261.5" font-family="Verdana" font-size="10.00">CDomainConfiguration</text>
<text text-anchor="middle" x="927.5" y="-250.5" font-family="Verdana" font-size="10.00">::parseSettings</text>
</a>
</g>
</g>
<!-- Node26&#45;&gt;Node27 -->
<g id="edge37" class="edge"><title>Node26&#45;&gt;Node27</title>
<path fill="none" stroke="midnightblue" d="M770.765,-303.609C803.598,-294.099 843.504,-282.54 874.7,-273.504"/>
<polygon fill="midnightblue" stroke="midnightblue" points="769.452,-300.346 760.82,-306.49 771.399,-307.07 769.452,-300.346"/>
</g>
<!-- Node28 -->
<g id="node28" class="node"><title>Node28</title>
<g id="a_node28"><a xlink:href="classCPluginLocation.html#a078d8017417c36f89f9d05b5e4d1b33b" target="_top" xlink:title="CPluginLocation::fromXml">
<polygon fill="white" stroke="black" points="858,-205 858,-224 997,-224 997,-205 858,-205"/>
<text text-anchor="middle" x="927.5" y="-212" font-family="Verdana" font-size="10.00">CPluginLocation::fromXml</text>
</a>
</g>
</g>
<!-- Node26&#45;&gt;Node28 -->
<g id="edge39" class="edge"><title>Node26&#45;&gt;Node28</title>
<path fill="none" stroke="midnightblue" d="M733.91,-299.464C758.084,-279.259 796.647,-250.042 835,-233.5 843.939,-229.645 853.713,-226.553 863.442,-224.078"/>
<polygon fill="midnightblue" stroke="midnightblue" points="731.337,-297.057 725.983,-306.199 735.87,-302.391 731.337,-297.057"/>
</g>
<!-- Node29 -->
<g id="node29" class="node"><title>Node29</title>
<g id="a_node29"><a xlink:href="classCXmlElement.html#abffb4b3c9d2ac6c552b3222a92bf0d8a" target="_top" xlink:title="CXmlElement::getChildElement">
<polygon fill="white" stroke="black" points="1056,-353 1056,-372 1222,-372 1222,-353 1056,-353"/>
<text text-anchor="middle" x="1139" y="-360" font-family="Verdana" font-size="10.00">CXmlElement::getChildElement</text>
</a>
</g>
</g>
<!-- Node26&#45;&gt;Node29 -->
<g id="edge40" class="edge"><title>Node26&#45;&gt;Node29</title>
<path fill="none" stroke="midnightblue" d="M794.31,-313.897C857.161,-310.133 944.477,-308.753 1020,-321.5 1055.29,-327.455 1094.11,-342.766 1117.25,-352.899"/>
<polygon fill="midnightblue" stroke="midnightblue" points="793.806,-310.422 784.046,-314.546 794.247,-317.408 793.806,-310.422"/>
</g>
<!-- Node30 -->
<g id="node30" class="node"><title>Node30</title>
<g id="a_node30"><a xlink:href="classCXmlElement.html#adf23655abe898403789f9d7c35ff3225" target="_top" xlink:title="CXmlElement::getNbChildElements">
<polygon fill="white" stroke="black" points="835,-331 835,-350 1020,-350 1020,-331 835,-331"/>
<text text-anchor="middle" x="927.5" y="-338" font-family="Verdana" font-size="10.00">CXmlElement::getNbChildElements</text>
</a>
</g>
</g>
<!-- Node26&#45;&gt;Node30 -->
<g id="edge42" class="edge"><title>Node26&#45;&gt;Node30</title>
<path fill="none" stroke="midnightblue" d="M794.232,-328.946C807.553,-330.109 821.368,-331.316 834.826,-332.492"/>
<polygon fill="midnightblue" stroke="midnightblue" points="794.422,-325.449 784.156,-328.065 793.813,-332.422 794.422,-325.449"/>
</g>
<!-- Node29&#45;&gt;Node10 -->
<g id="edge41" class="edge"><title>Node29&#45;&gt;Node10</title>
<path fill="none" stroke="midnightblue" d="M1164.01,-377.654C1201.43,-401.283 1272.63,-446.23 1303.78,-465.89"/>
<polygon fill="midnightblue" stroke="midnightblue" points="1165.59,-374.513 1155.26,-372.134 1161.85,-380.432 1165.59,-374.513"/>
</g>
</g>
</svg>
