<?xml version="1.0" encoding="UTF-8" standalone="no"?>
<!DOCTYPE svg PUBLIC "-//W3C//DTD SVG 1.1//EN"
 "http://www.w3.org/Graphics/SVG/1.1/DTD/svg11.dtd">
<!-- Generated by graphviz version 2.38.0 (20140413.2041)
 -->
<!-- Title: CParameterMgr::setApplicationRule Pages: 1 -->
<svg width="1403pt" height="337pt"
 viewBox="0.00 0.00 1403.00 336.50" xmlns="http://www.w3.org/2000/svg" xmlns:xlink="http://www.w3.org/1999/xlink">
<g id="graph0" class="graph" transform="scale(1 1) rotate(0) translate(4 332.5)">
<title>CParameterMgr::setApplicationRule</title>
<polygon fill="white" stroke="none" points="-4,4 -4,-332.5 1399,-332.5 1399,4 -4,4"/>
<!-- Node1 -->
<g id="node1" class="node"><title>Node1</title>
<polygon fill="#bfbfbf" stroke="black" points="0,-227 0,-246 185,-246 185,-227 0,-227"/>
<text text-anchor="middle" x="92.5" y="-234" font-family="Verdana" font-size="10.00">CParameterMgr::setApplicationRule</text>
</g>
<!-- Node2 -->
<g id="node2" class="node"><title>Node2</title>
<g id="a_node2"><a xlink:href="classCConfigurableDomains.html#ac2b2354eecc80c7ca4a71fe2f40606ed" target="_top" xlink:title="CConfigurableDomains\l::setApplicationRule">
<polygon fill="white" stroke="black" points="239,-246.5 239,-276.5 365,-276.5 365,-246.5 239,-246.5"/>
<text text-anchor="start" x="247" y="-264.5" font-family="Verdana" font-size="10.00">CConfigurableDomains</text>
<text text-anchor="middle" x="302" y="-253.5" font-family="Verdana" font-size="10.00">::setApplicationRule</text>
</a>
</g>
</g>
<!-- Node1&#45;&gt;Node2 -->
<g id="edge1" class="edge"><title>Node1&#45;&gt;Node2</title>
<path fill="none" stroke="midnightblue" d="M172.539,-246.023C191.093,-248.258 210.766,-250.628 228.993,-252.824"/>
<polygon fill="midnightblue" stroke="midnightblue" points="228.607,-256.303 238.954,-254.025 229.444,-249.353 228.607,-256.303"/>
</g>
<!-- Node21 -->
<g id="node21" class="node"><title>Node21</title>
<g id="a_node21"><a xlink:href="classCSelectionCriteria.html#aa87e3488047e305e72d84d5aa0ed3e08" target="_top" xlink:title="CSelectionCriteria\l::getSelectionCriteriaDefinition">
<polygon fill="white" stroke="black" points="221,-197.5 221,-227.5 383,-227.5 383,-197.5 221,-197.5"/>
<text text-anchor="start" x="229" y="-215.5" font-family="Verdana" font-size="10.00">CSelectionCriteria</text>
<text text-anchor="middle" x="302" y="-204.5" font-family="Verdana" font-size="10.00">::getSelectionCriteriaDefinition</text>
</a>
</g>
</g>
<!-- Node1&#45;&gt;Node21 -->
<g id="edge22" class="edge"><title>Node1&#45;&gt;Node21</title>
<path fill="none" stroke="midnightblue" d="M175.808,-226.98C187.272,-225.654 199.102,-224.286 210.703,-222.944"/>
<polygon fill="midnightblue" stroke="midnightblue" points="211.293,-226.399 220.824,-221.773 210.488,-219.446 211.293,-226.399"/>
</g>
<!-- Node3 -->
<g id="node3" class="node"><title>Node3</title>
<g id="a_node3"><a xlink:href="classCConfigurableDomain.html#ab28e6a66ae7197d4fa131193f32891f4" target="_top" xlink:title="CConfigurableDomain\l::setApplicationRule">
<polygon fill="white" stroke="black" points="419,-246.5 419,-276.5 540,-276.5 540,-246.5 419,-246.5"/>
<text text-anchor="start" x="427" y="-264.5" font-family="Verdana" font-size="10.00">CConfigurableDomain</text>
<text text-anchor="middle" x="479.5" y="-253.5" font-family="Verdana" font-size="10.00">::setApplicationRule</text>
</a>
</g>
</g>
<!-- Node2&#45;&gt;Node3 -->
<g id="edge2" class="edge"><title>Node2&#45;&gt;Node3</title>
<path fill="none" stroke="midnightblue" d="M365.369,-261.5C379.401,-261.5 394.382,-261.5 408.696,-261.5"/>
<polygon fill="midnightblue" stroke="midnightblue" points="408.979,-265 418.979,-261.5 408.978,-258 408.979,-265"/>
</g>
<!-- Node4 -->
<g id="node4" class="node"><title>Node4</title>
<g id="a_node4"><a xlink:href="classCDomainConfiguration.html#a3b12c8d561b1e468bd03214326bdf450" target="_top" xlink:title="CDomainConfiguration\l::setApplicationRule">
<polygon fill="white" stroke="black" points="576,-246.5 576,-276.5 701,-276.5 701,-246.5 576,-246.5"/>
<text text-anchor="start" x="584" y="-264.5" font-family="Verdana" font-size="10.00">CDomainConfiguration</text>
<text text-anchor="middle" x="638.5" y="-253.5" font-family="Verdana" font-size="10.00">::setApplicationRule</text>
</a>
</g>
</g>
<!-- Node3&#45;&gt;Node4 -->
<g id="edge3" class="edge"><title>Node3&#45;&gt;Node4</title>
<path fill="none" stroke="midnightblue" d="M540.303,-261.5C548.558,-261.5 557.107,-261.5 565.553,-261.5"/>
<polygon fill="midnightblue" stroke="midnightblue" points="565.779,-265 575.779,-261.5 565.779,-258 565.779,-265"/>
</g>
<!-- Node5 -->
<g id="node5" class="node"><title>Node5</title>
<g id="a_node5"><a xlink:href="classCRuleParser.html#a04260c30f05a16437df6fa9e5f4865ba" target="_top" xlink:title="CRuleParser::CRuleParser">
<polygon fill="white" stroke="black" points="740,-308 740,-327 875,-327 875,-308 740,-308"/>
<text text-anchor="middle" x="807.5" y="-315" font-family="Verdana" font-size="10.00">CRuleParser::CRuleParser</text>
</a>
</g>
</g>
<!-- Node4&#45;&gt;Node5 -->
<g id="edge4" class="edge"><title>Node4&#45;&gt;Node5</title>
<path fill="none" stroke="midnightblue" d="M676.704,-276.578C694.762,-283.65 716.858,-291.942 737,-298.5 744.195,-300.843 751.87,-303.139 759.397,-305.28"/>
<polygon fill="midnightblue" stroke="midnightblue" points="758.581,-308.686 769.154,-307.997 760.459,-301.943 758.581,-308.686"/>
</g>
<!-- Node6 -->
<g id="node6" class="node"><title>Node6</title>
<g id="a_node6"><a xlink:href="classCRuleParser.html#acbce516a22f0dca0af620e751d298f7a" target="_top" xlink:title="CRuleParser::parse">
<polygon fill="white" stroke="black" points="754.5,-252 754.5,-271 860.5,-271 860.5,-252 754.5,-252"/>
<text text-anchor="middle" x="807.5" y="-259" font-family="Verdana" font-size="10.00">CRuleParser::parse</text>
</a>
</g>
</g>
<!-- Node4&#45;&gt;Node6 -->
<g id="edge5" class="edge"><title>Node4&#45;&gt;Node6</title>
<path fill="none" stroke="midnightblue" d="M701.21,-261.5C715.266,-261.5 730.208,-261.5 744.285,-261.5"/>
<polygon fill="midnightblue" stroke="midnightblue" points="744.358,-265 754.358,-261.5 744.358,-258 744.358,-265"/>
</g>
<!-- Node20 -->
<g id="node20" class="node"><title>Node20</title>
<g id="a_node20"><a xlink:href="classCRuleParser.html#a89407cd2535589d81d1d5beba1e51544" target="_top" xlink:title="CRuleParser::grabRootRule">
<polygon fill="white" stroke="black" points="737,-214 737,-233 878,-233 878,-214 737,-214"/>
<text text-anchor="middle" x="807.5" y="-221" font-family="Verdana" font-size="10.00">CRuleParser::grabRootRule</text>
</a>
</g>
</g>
<!-- Node4&#45;&gt;Node20 -->
<g id="edge21" class="edge"><title>Node4&#45;&gt;Node20</title>
<path fill="none" stroke="midnightblue" d="M701.21,-247.458C718.677,-243.484 737.511,-239.198 754.354,-235.366"/>
<polygon fill="midnightblue" stroke="midnightblue" points="755.579,-238.676 764.553,-233.045 754.026,-231.851 755.579,-238.676"/>
</g>
<!-- Node6&#45;&gt;Node6 -->
<g id="edge10" class="edge"><title>Node6&#45;&gt;Node6</title>
<path fill="none" stroke="midnightblue" d="M781.606,-271.257C769.009,-280.065 777.641,-289.5 807.5,-289.5 827.562,-289.5 838.041,-285.241 838.937,-279.775"/>
<polygon fill="midnightblue" stroke="midnightblue" points="841.782,-277.729 833.394,-271.257 835.915,-281.548 841.782,-277.729"/>
</g>
<!-- Node7 -->
<g id="node7" class="node"><title>Node7</title>
<g id="a_node7"><a xlink:href="classCRuleParser.html#ac7faca228556fb47a33ccb95e15ce6d6" target="_top" xlink:title="CRuleParser::iterate">
<polygon fill="white" stroke="black" points="923,-309 923,-328 1033,-328 1033,-309 923,-309"/>
<text text-anchor="middle" x="978" y="-316" font-family="Verdana" font-size="10.00">CRuleParser::iterate</text>
</a>
</g>
</g>
<!-- Node6&#45;&gt;Node7 -->
<g id="edge6" class="edge"><title>Node6&#45;&gt;Node7</title>
<path fill="none" stroke="midnightblue" d="M833.951,-271.094C855.238,-279.015 886.459,-290.394 914,-299.5 920.559,-301.669 927.534,-303.873 934.363,-305.975"/>
<polygon fill="midnightblue" stroke="midnightblue" points="933.613,-309.405 944.199,-308.965 935.649,-302.707 933.613,-309.405"/>
</g>
<!-- Node8 -->
<g id="node8" class="node"><title>Node8</title>
<g id="a_node8"><a xlink:href="classCCompoundRule.html#ab66d3bbb9bd8b229e1644a5eb87f7fa7" target="_top" xlink:title="CCompoundRule::parse">
<polygon fill="white" stroke="black" points="914,-271 914,-290 1042,-290 1042,-271 914,-271"/>
<text text-anchor="middle" x="978" y="-278" font-family="Verdana" font-size="10.00">CCompoundRule::parse</text>
</a>
</g>
</g>
<!-- Node6&#45;&gt;Node8 -->
<g id="edge7" class="edge"><title>Node6&#45;&gt;Node8</title>
<path fill="none" stroke="midnightblue" d="M860.891,-267.408C874.549,-268.948 889.517,-270.635 904.03,-272.272"/>
<polygon fill="midnightblue" stroke="midnightblue" points="903.654,-275.752 913.983,-273.394 904.439,-268.796 903.654,-275.752"/>
</g>
<!-- Node10 -->
<g id="node10" class="node"><title>Node10</title>
<g id="a_node10"><a xlink:href="classCElement.html#ac2ad66ee438a4a0c1390b7388874fe72" target="_top" xlink:title="CElement::addChild">
<polygon fill="white" stroke="black" points="923,-233 923,-252 1033,-252 1033,-233 923,-233"/>
<text text-anchor="middle" x="978" y="-240" font-family="Verdana" font-size="10.00">CElement::addChild</text>
</a>
</g>
</g>
<!-- Node6&#45;&gt;Node10 -->
<g id="edge9" class="edge"><title>Node6&#45;&gt;Node10</title>
<path fill="none" stroke="midnightblue" d="M860.891,-255.592C877.366,-253.735 895.746,-251.662 912.936,-249.724"/>
<polygon fill="midnightblue" stroke="midnightblue" points="913.351,-253.199 922.896,-248.601 912.567,-246.243 913.351,-253.199"/>
</g>
<!-- Node11 -->
<g id="node11" class="node"><title>Node11</title>
<g id="a_node11"><a xlink:href="classCSelectionCriterionRule.html#a9fa6c6fcf97c803ffb535843ca0e0637" target="_top" xlink:title="CSelectionCriterionRule\l::parse">
<polygon fill="white" stroke="black" points="914,-156.5 914,-186.5 1042,-186.5 1042,-156.5 914,-156.5"/>
<text text-anchor="start" x="922" y="-174.5" font-family="Verdana" font-size="10.00">CSelectionCriterionRule</text>
<text text-anchor="middle" x="978" y="-163.5" font-family="Verdana" font-size="10.00">::parse</text>
</a>
</g>
</g>
<!-- Node6&#45;&gt;Node11 -->
<g id="edge11" class="edge"><title>Node6&#45;&gt;Node11</title>
<path fill="none" stroke="midnightblue" d="M852.733,-251.948C861.316,-249.392 870.095,-246.265 878,-242.5 905.279,-229.507 932.942,-208.905 952.066,-193.232"/>
<polygon fill="midnightblue" stroke="midnightblue" points="954.531,-195.734 959.966,-186.639 950.046,-190.36 954.531,-195.734"/>
</g>
<!-- Node9 -->
<g id="node9" class="node"><title>Node9</title>
<g id="a_node9"><a xlink:href="classCRuleParser.html#ae574ae0109f76cc624590bd4899e0a91" target="_top" xlink:title="CRuleParser::getType">
<polygon fill="white" stroke="black" points="1103.5,-285 1103.5,-304 1219.5,-304 1219.5,-285 1103.5,-285"/>
<text text-anchor="middle" x="1161.5" y="-292" font-family="Verdana" font-size="10.00">CRuleParser::getType</text>
</a>
</g>
</g>
<!-- Node8&#45;&gt;Node9 -->
<g id="edge8" class="edge"><title>Node8&#45;&gt;Node9</title>
<path fill="none" stroke="midnightblue" d="M1042.23,-285.377C1058.66,-286.645 1076.43,-288.015 1093.07,-289.299"/>
<polygon fill="midnightblue" stroke="midnightblue" points="1093.03,-292.806 1103.27,-290.085 1093.57,-285.827 1093.03,-292.806"/>
</g>
<!-- Node11&#45;&gt;Node9 -->
<g id="edge15" class="edge"><title>Node11&#45;&gt;Node9</title>
<path fill="none" stroke="midnightblue" d="M1000.11,-186.579C1012.98,-196.321 1029.33,-209.716 1042,-223.5 1061.02,-244.198 1054.73,-259.726 1078,-275.5 1082.83,-278.776 1088.15,-281.493 1093.69,-283.745"/>
<polygon fill="midnightblue" stroke="midnightblue" points="1092.57,-287.063 1103.17,-287.114 1094.92,-280.467 1092.57,-287.063"/>
</g>
<!-- Node12 -->
<g id="node12" class="node"><title>Node12</title>
<g id="a_node12"><a xlink:href="classCRuleParser.html#af179ac22a54025386da02a5bdb33b253" target="_top" xlink:title="CRuleParser::getSelection\lCriteriaDefinition">
<polygon fill="white" stroke="black" points="1092,-235.5 1092,-265.5 1231,-265.5 1231,-235.5 1092,-235.5"/>
<text text-anchor="start" x="1100" y="-253.5" font-family="Verdana" font-size="10.00">CRuleParser::getSelection</text>
<text text-anchor="middle" x="1161.5" y="-242.5" font-family="Verdana" font-size="10.00">CriteriaDefinition</text>
</a>
</g>
</g>
<!-- Node11&#45;&gt;Node12 -->
<g id="edge12" class="edge"><title>Node11&#45;&gt;Node12</title>
<path fill="none" stroke="midnightblue" d="M1002.65,-186.627C1022.25,-198.667 1051.14,-215.3 1078,-226.5 1082.78,-228.494 1087.79,-230.389 1092.86,-232.175"/>
<polygon fill="midnightblue" stroke="midnightblue" points="1092.08,-235.605 1102.67,-235.472 1094.31,-228.969 1092.08,-235.605"/>
</g>
<!-- Node13 -->
<g id="node13" class="node"><title>Node13</title>
<g id="a_node13"><a xlink:href="classCSelectionCriteriaDefinition.html#ade9c9f7fe7806988d3d922bf615e5994" target="_top" xlink:title="CSelectionCriteriaDefinition\l::getSelectionCriterion">
<polygon fill="white" stroke="black" points="1088,-186.5 1088,-216.5 1235,-216.5 1235,-186.5 1088,-186.5"/>
<text text-anchor="start" x="1096" y="-204.5" font-family="Verdana" font-size="10.00">CSelectionCriteriaDefinition</text>
<text text-anchor="middle" x="1161.5" y="-193.5" font-family="Verdana" font-size="10.00">::getSelectionCriterion</text>
</a>
</g>
</g>
<!-- Node11&#45;&gt;Node13 -->
<g id="edge13" class="edge"><title>Node11&#45;&gt;Node13</title>
<path fill="none" stroke="midnightblue" d="M1042.23,-181.95C1053.73,-183.853 1065.9,-185.863 1077.87,-187.842"/>
<polygon fill="midnightblue" stroke="midnightblue" points="1077.42,-191.316 1087.86,-189.494 1078.57,-184.41 1077.42,-191.316"/>
</g>
<!-- Node15 -->
<g id="node15" class="node"><title>Node15</title>
<g id="a_node15"><a xlink:href="classCRuleParser.html#a7f6198bd3656599e15aee6860c1bf4d7" target="_top" xlink:title="CRuleParser::next">
<polygon fill="white" stroke="black" points="1111.5,-148 1111.5,-167 1211.5,-167 1211.5,-148 1111.5,-148"/>
<text text-anchor="middle" x="1161.5" y="-155" font-family="Verdana" font-size="10.00">CRuleParser::next</text>
</a>
</g>
</g>
<!-- Node11&#45;&gt;Node15 -->
<g id="edge16" class="edge"><title>Node11&#45;&gt;Node15</title>
<path fill="none" stroke="midnightblue" d="M1042.23,-166.623C1061.3,-165.152 1082.17,-163.542 1101,-162.09"/>
<polygon fill="midnightblue" stroke="midnightblue" points="1101.52,-165.56 1111.22,-161.301 1100.98,-158.581 1101.52,-165.56"/>
</g>
<!-- Node16 -->
<g id="node16" class="node"><title>Node16</title>
<g id="a_node16"><a xlink:href="classCSelectionCriterion.html#a68f922bffc18811306eb3da52c340289" target="_top" xlink:title="CSelectionCriterion\l::getCriterionType">
<polygon fill="white" stroke="black" points="1107.5,-98.5 1107.5,-128.5 1215.5,-128.5 1215.5,-98.5 1107.5,-98.5"/>
<text text-anchor="start" x="1115.5" y="-116.5" font-family="Verdana" font-size="10.00">CSelectionCriterion</text>
<text text-anchor="middle" x="1161.5" y="-105.5" font-family="Verdana" font-size="10.00">::getCriterionType</text>
</a>
</g>
</g>
<!-- Node11&#45;&gt;Node16 -->
<g id="edge17" class="edge"><title>Node11&#45;&gt;Node16</title>
<path fill="none" stroke="midnightblue" d="M1023.27,-156.455C1040.34,-150.729 1060.04,-144.212 1078,-138.5 1085.14,-136.229 1092.64,-133.89 1100.09,-131.596"/>
<polygon fill="midnightblue" stroke="midnightblue" points="1101.28,-134.892 1109.82,-128.617 1099.23,-128.199 1101.28,-134.892"/>
</g>
<!-- Node17 -->
<g id="node17" class="node"><title>Node17</title>
<g id="a_node17"><a xlink:href="classISelectionCriterionTypeInterface.html#aa28678ff4fb9acb1e216f1edaccdf85f" target="_top" xlink:title="ISelectionCriterionTypeInterface\l::getNumericalValue">
<polygon fill="white" stroke="black" points="1078,-49.5 1078,-79.5 1245,-79.5 1245,-49.5 1078,-49.5"/>
<text text-anchor="start" x="1086" y="-67.5" font-family="Verdana" font-size="10.00">ISelectionCriterionTypeInterface</text>
<text text-anchor="middle" x="1161.5" y="-56.5" font-family="Verdana" font-size="10.00">::getNumericalValue</text>
</a>
</g>
</g>
<!-- Node11&#45;&gt;Node17 -->
<g id="edge18" class="edge"><title>Node11&#45;&gt;Node17</title>
<path fill="none" stroke="midnightblue" d="M993.376,-156.356C1011.5,-138.081 1044.38,-107.561 1078,-89.5 1082.15,-87.2711 1086.52,-85.2124 1091.01,-83.3158"/>
<polygon fill="midnightblue" stroke="midnightblue" points="1092.3,-86.5676 1100.33,-79.6476 1089.74,-80.0542 1092.3,-86.5676"/>
</g>
<!-- Node18 -->
<g id="node18" class="node"><title>Node18</title>
<g id="a_node18"><a xlink:href="classCSelectionCriterion.html#aa7d73b79a9ee5ce47153dd52f9bbcc71" target="_top" xlink:title="CSelectionCriterion\l::getCriterionName">
<polygon fill="white" stroke="black" points="1107.5,-0.5 1107.5,-30.5 1215.5,-30.5 1215.5,-0.5 1107.5,-0.5"/>
<text text-anchor="start" x="1115.5" y="-18.5" font-family="Verdana" font-size="10.00">CSelectionCriterion</text>
<text text-anchor="middle" x="1161.5" y="-7.5" font-family="Verdana" font-size="10.00">::getCriterionName</text>
</a>
</g>
</g>
<!-- Node11&#45;&gt;Node18 -->
<g id="edge19" class="edge"><title>Node11&#45;&gt;Node18</title>
<path fill="none" stroke="midnightblue" d="M986.268,-156.476C1000.21,-129.237 1033.34,-71.6444 1078,-40.5 1083.99,-36.3214 1090.7,-32.8274 1097.63,-29.9088"/>
<polygon fill="midnightblue" stroke="midnightblue" points="1099.07,-33.1044 1107.17,-26.2753 1096.58,-26.5625 1099.07,-33.1044"/>
</g>
<!-- Node14 -->
<g id="node14" class="node"><title>Node14</title>
<g id="a_node14"><a xlink:href="classCElement.html#a8595814a3159f32f874269907e70b260" target="_top" xlink:title="CElement::findChild">
<polygon fill="white" stroke="black" points="1283,-192 1283,-211 1393,-211 1393,-192 1283,-192"/>
<text text-anchor="middle" x="1338" y="-199" font-family="Verdana" font-size="10.00">CElement::findChild</text>
</a>
</g>
</g>
<!-- Node13&#45;&gt;Node14 -->
<g id="edge14" class="edge"><title>Node13&#45;&gt;Node14</title>
<path fill="none" stroke="midnightblue" d="M1235.24,-201.5C1247.73,-201.5 1260.64,-201.5 1272.88,-201.5"/>
<polygon fill="midnightblue" stroke="midnightblue" points="1272.99,-205 1282.99,-201.5 1272.99,-198 1272.99,-205"/>
</g>
<!-- Node19 -->
<g id="node19" class="node"><title>Node19</title>
<g id="a_node19"><a xlink:href="classCElement.html#a49581fb6412e29e932962acd82d52d6a" target="_top" xlink:title="CElement::getName">
<polygon fill="white" stroke="black" points="1281,-6 1281,-25 1395,-25 1395,-6 1281,-6"/>
<text text-anchor="middle" x="1338" y="-13" font-family="Verdana" font-size="10.00">CElement::getName</text>
</a>
</g>
</g>
<!-- Node18&#45;&gt;Node19 -->
<g id="edge20" class="edge"><title>Node18&#45;&gt;Node19</title>
<path fill="none" stroke="midnightblue" d="M1215.8,-15.5C1233.14,-15.5 1252.6,-15.5 1270.77,-15.5"/>
<polygon fill="midnightblue" stroke="midnightblue" points="1271,-19.0001 1281,-15.5 1271,-12.0001 1271,-19.0001"/>
</g>
</g>
</svg>
