<?xml version="1.0" encoding="UTF-8" standalone="no"?>
<!DOCTYPE svg PUBLIC "-//W3C//DTD SVG 1.1//EN"
 "http://www.w3.org/Graphics/SVG/1.1/DTD/svg11.dtd">
<!-- Generated by graphviz version 2.38.0 (20140413.2041)
 -->
<!-- Title: CParameterHandle::getAsBoolean Pages: 1 -->
<svg width="537pt" height="39pt"
 viewBox="0.00 0.00 537.00 39.00" xmlns="http://www.w3.org/2000/svg" xmlns:xlink="http://www.w3.org/1999/xlink">
<g id="graph0" class="graph" transform="scale(1 1) rotate(0) translate(4 35)">
<title>CParameterHandle::getAsBoolean</title>
<polygon fill="white" stroke="none" points="-4,4 -4,-35 533,-35 533,4 -4,4"/>
<!-- Node1 -->
<g id="node1" class="node"><title>Node1</title>
<polygon fill="#bfbfbf" stroke="black" points="0,-6 0,-25 180,-25 180,-6 0,-6"/>
<text text-anchor="middle" x="90" y="-13" font-family="Verdana" font-size="10.00">CParameterHandle::getAsBoolean</text>
</g>
<!-- Node2 -->
<g id="node2" class="node"><title>Node2</title>
<g id="a_node2"><a xlink:href="classCBaseParameter.html#ad6c3b121c92cabe717272fba5ccb6956" target="_top" xlink:title="Value access. ">
<polygon fill="white" stroke="black" points="216,-0.5 216,-30.5 365,-30.5 365,-0.5 216,-0.5"/>
<text text-anchor="start" x="224" y="-18.5" font-family="Verdana" font-size="10.00">CBaseParameter::accessAs</text>
<text text-anchor="middle" x="290.5" y="-7.5" font-family="Verdana" font-size="10.00">Boolean</text>
</a>
</g>
</g>
<!-- Node1&#45;&gt;Node2 -->
<g id="edge1" class="edge"><title>Node1&#45;&gt;Node2</title>
<path fill="none" stroke="midnightblue" d="M180.089,-15.5C188.589,-15.5 197.189,-15.5 205.636,-15.5"/>
<polygon fill="midnightblue" stroke="midnightblue" points="205.848,-19.0001 215.848,-15.5 205.848,-12.0001 205.848,-19.0001"/>
</g>
<!-- Node3 -->
<g id="node3" class="node"><title>Node3</title>
<g id="a_node3"><a xlink:href="classCErrorContext.html#a9d58b281c0d0fc9a6d3b83714cf812ef" target="_top" xlink:title="CErrorContext::setError">
<polygon fill="white" stroke="black" points="401,-6 401,-25 529,-25 529,-6 401,-6"/>
<text text-anchor="middle" x="465" y="-13" font-family="Verdana" font-size="10.00">CErrorContext::setError</text>
</a>
</g>
</g>
<!-- Node2&#45;&gt;Node3 -->
<g id="edge2" class="edge"><title>Node2&#45;&gt;Node3</title>
<path fill="none" stroke="midnightblue" d="M365.156,-15.5C373.619,-15.5 382.248,-15.5 390.706,-15.5"/>
<polygon fill="midnightblue" stroke="midnightblue" points="390.917,-19.0001 400.917,-15.5 390.917,-12.0001 390.917,-19.0001"/>
</g>
</g>
</svg>
