<?xml version="1.0" encoding="UTF-8" standalone="no"?>
<!DOCTYPE svg PUBLIC "-//W3C//DTD SVG 1.1//EN"
 "http://www.w3.org/Graphics/SVG/1.1/DTD/svg11.dtd">
<!-- Generated by graphviz version 2.36.0 (20140111.2315)
 -->
<!-- Title: CConfigurableDomain::setSequenceAwareness Pages: 1 -->
<svg width="296pt" height="66pt"
 viewBox="0.00 0.00 296.00 66.00" xmlns="http://www.w3.org/2000/svg" xmlns:xlink="http://www.w3.org/1999/xlink">
<g id="graph0" class="graph" transform="scale(1 1) rotate(0) translate(4 62)">
<title>CConfigurableDomain::setSequenceAwareness</title>
<polygon fill="white" stroke="none" points="-4,4 -4,-62 292,-62 292,4 -4,4"/>
<!-- Node1 -->
<g id="node1" class="node"><title>Node1</title>
<polygon fill="#bfbfbf" stroke="black" points="0.5,-14 0.5,-44 137.5,-44 137.5,-14 0.5,-14"/>
<text text-anchor="start" x="8.5" y="-32" font-family="Verdana" font-size="10.00">CConfigurableDomain</text>
<text text-anchor="middle" x="69" y="-21" font-family="Verdana" font-size="10.00">::setSequenceAwareness</text>
</g>
<!-- Node2 -->
<g id="node2" class="node"><title>Node2</title>
<g id="a_node2"><a xlink:href="classCElement.html#a1dee87366d307b43bf8851dd2614c160" target="_top" xlink:title="CElement::log_info">
<polygon fill="white" stroke="black" points="178,-38.5 178,-57.5 284,-57.5 284,-38.5 178,-38.5"/>
<text text-anchor="middle" x="231" y="-45.5" font-family="Verdana" font-size="10.00">CElement::log_info</text>
</a>
</g>
</g>
<!-- Node1&#45;&gt;Node2 -->
<g id="edge1" class="edge"><title>Node1&#45;&gt;Node2</title>
<path fill="none" stroke="midnightblue" d="M137.854,-37.0577C147.716,-38.2287 157.829,-39.4297 167.576,-40.5872"/>
<polygon fill="midnightblue" stroke="midnightblue" points="167.232,-44.0709 177.575,-41.7746 168.058,-37.1197 167.232,-44.0709"/>
</g>
<!-- Node3 -->
<g id="node3" class="node"><title>Node3</title>
<g id="a_node3"><a xlink:href="classCElement.html#a49581fb6412e29e932962acd82d52d6a" target="_top" xlink:title="CElement::getName">
<polygon fill="white" stroke="black" points="174,-0.5 174,-19.5 288,-19.5 288,-0.5 174,-0.5"/>
<text text-anchor="middle" x="231" y="-7.5" font-family="Verdana" font-size="10.00">CElement::getName</text>
</a>
</g>
</g>
<!-- Node1&#45;&gt;Node3 -->
<g id="edge2" class="edge"><title>Node1&#45;&gt;Node3</title>
<path fill="none" stroke="midnightblue" d="M137.854,-20.9423C146.332,-19.9356 154.995,-18.9068 163.452,-17.9025"/>
<polygon fill="midnightblue" stroke="midnightblue" points="164.122,-21.3477 173.639,-16.6928 163.296,-14.3966 164.122,-21.3477"/>
</g>
</g>
</svg>
