<?xml version="1.0" encoding="UTF-8" standalone="no"?>
<!DOCTYPE svg PUBLIC "-//W3C//DTD SVG 1.1//EN"
 "http://www.w3.org/Graphics/SVG/1.1/DTD/svg11.dtd">
<!-- Generated by graphviz version 2.38.0 (20140413.2041)
 -->
<!-- Title: CXmlDomainSerializingContext::CXmlDomainSerializingContext Pages: 1 -->
<svg width="702pt" height="57pt"
 viewBox="0.00 0.00 702.00 57.00" xmlns="http://www.w3.org/2000/svg" xmlns:xlink="http://www.w3.org/1999/xlink">
<g id="graph0" class="graph" transform="scale(1 1) rotate(0) translate(4 53)">
<title>CXmlDomainSerializingContext::CXmlDomainSerializingContext</title>
<polygon fill="white" stroke="none" points="-4,4 -4,-53 698,-53 698,4 -4,4"/>
<!-- Node1 -->
<g id="node1" class="node"><title>Node1</title>
<polygon fill="#bfbfbf" stroke="black" points="0,-0.5 0,-30.5 171,-30.5 171,-0.5 0,-0.5"/>
<text text-anchor="start" x="8" y="-18.5" font-family="Verdana" font-size="10.00">CXmlDomainSerializingContext</text>
<text text-anchor="middle" x="85.5" y="-7.5" font-family="Verdana" font-size="10.00">::CXmlDomainSerializingContext</text>
</g>
<!-- Node2 -->
<g id="node2" class="node"><title>Node2</title>
<g id="a_node2"><a xlink:href="classCXmlElementSerializingContext.html#a8d5b056f2307ffc803875f27c5496e73" target="_top" xlink:title="CXmlElementSerializingContext\l::CXmlElementSerializingContext">
<polygon fill="white" stroke="black" points="207,-0.5 207,-30.5 380,-30.5 380,-0.5 207,-0.5"/>
<text text-anchor="start" x="215" y="-18.5" font-family="Verdana" font-size="10.00">CXmlElementSerializingContext</text>
<text text-anchor="middle" x="293.5" y="-7.5" font-family="Verdana" font-size="10.00">::CXmlElementSerializingContext</text>
</a>
</g>
</g>
<!-- Node1&#45;&gt;Node2 -->
<g id="edge1" class="edge"><title>Node1&#45;&gt;Node2</title>
<path fill="none" stroke="midnightblue" d="M171.18,-15.5C179.635,-15.5 188.259,-15.5 196.817,-15.5"/>
<polygon fill="midnightblue" stroke="midnightblue" points="196.817,-19.0001 206.817,-15.5 196.817,-12.0001 196.817,-19.0001"/>
</g>
<!-- Node3 -->
<g id="node3" class="node"><title>Node3</title>
<g id="a_node3"><a xlink:href="classCXmlSerializingContext.html#a5e31cd8b7cde411207f55616dbc8c26b" target="_top" xlink:title="CXmlSerializingContext\l::CXmlSerializingContext">
<polygon fill="white" stroke="black" points="416,-0.5 416,-30.5 550,-30.5 550,-0.5 416,-0.5"/>
<text text-anchor="start" x="424" y="-18.5" font-family="Verdana" font-size="10.00">CXmlSerializingContext</text>
<text text-anchor="middle" x="483" y="-7.5" font-family="Verdana" font-size="10.00">::CXmlSerializingContext</text>
</a>
</g>
</g>
<!-- Node2&#45;&gt;Node3 -->
<g id="edge2" class="edge"><title>Node2&#45;&gt;Node3</title>
<path fill="none" stroke="midnightblue" d="M380.02,-15.5C388.603,-15.5 397.279,-15.5 405.757,-15.5"/>
<polygon fill="midnightblue" stroke="midnightblue" points="405.98,-19.0001 415.98,-15.5 405.98,-12.0001 405.98,-19.0001"/>
</g>
<!-- Node3&#45;&gt;Node3 -->
<g id="edge3" class="edge"><title>Node3&#45;&gt;Node3</title>
<path fill="none" stroke="midnightblue" d="M455.814,-30.659C449.258,-40.0566 458.32,-49 483,-49 498.039,-49 507.279,-45.679 510.719,-40.9579"/>
<polygon fill="midnightblue" stroke="midnightblue" points="514.199,-40.4647 510.186,-30.659 507.208,-40.8266 514.199,-40.4647"/>
</g>
<!-- Node4 -->
<g id="node4" class="node"><title>Node4</title>
<g id="a_node4"><a xlink:href="classutility_1_1ErrorContext.html#aa7f62b70e85e2a02a21124454d0b928d" target="_top" xlink:title="utility::ErrorContext\l::ErrorContext">
<polygon fill="white" stroke="black" points="586,-0.5 586,-30.5 694,-30.5 694,-0.5 586,-0.5"/>
<text text-anchor="start" x="594" y="-18.5" font-family="Verdana" font-size="10.00">utility::ErrorContext</text>
<text text-anchor="middle" x="640" y="-7.5" font-family="Verdana" font-size="10.00">::ErrorContext</text>
</a>
</g>
</g>
<!-- Node3&#45;&gt;Node4 -->
<g id="edge4" class="edge"><title>Node3&#45;&gt;Node4</title>
<path fill="none" stroke="midnightblue" d="M550.184,-15.5C558.607,-15.5 567.213,-15.5 575.592,-15.5"/>
<polygon fill="midnightblue" stroke="midnightblue" points="575.671,-19.0001 585.671,-15.5 575.671,-12.0001 575.671,-19.0001"/>
</g>
</g>
</svg>
