<?xml version="1.0" encoding="UTF-8" standalone="no"?>
<!DOCTYPE svg PUBLIC "-//W3C//DTD SVG 1.1//EN"
 "http://www.w3.org/Graphics/SVG/1.1/DTD/svg11.dtd">
<!-- Generated by graphviz version 2.38.0 (20140413.2041)
 -->
<!-- Title: CTypeElement::getFormattedMapping Pages: 1 -->
<svg width="771pt" height="61pt"
 viewBox="0.00 0.00 771.00 61.00" xmlns="http://www.w3.org/2000/svg" xmlns:xlink="http://www.w3.org/1999/xlink">
<g id="graph0" class="graph" transform="scale(1 1) rotate(0) translate(4 57)">
<title>CTypeElement::getFormattedMapping</title>
<polygon fill="white" stroke="none" points="-4,4 -4,-57 767,-57 767,4 -4,4"/>
<!-- Node1 -->
<g id="node1" class="node"><title>Node1</title>
<polygon fill="#bfbfbf" stroke="black" points="0,-0.5 0,-30.5 156,-30.5 156,-0.5 0,-0.5"/>
<text text-anchor="start" x="8" y="-18.5" font-family="Verdana" font-size="10.00">CTypeElement::getFormatted</text>
<text text-anchor="middle" x="78" y="-7.5" font-family="Verdana" font-size="10.00">Mapping</text>
</g>
<!-- Node2 -->
<g id="node2" class="node"><title>Node2</title>
<g id="a_node2"><a xlink:href="classCTypeElement.html#a2d4fd9d4443f521e563ef1b6188aeeba" target="_top" xlink:title="Returns the mapping associated to the current TypeElement instance. ">
<polygon fill="white" stroke="black" points="192,-22.5 192,-52.5 348,-52.5 348,-22.5 192,-22.5"/>
<text text-anchor="start" x="200" y="-40.5" font-family="Verdana" font-size="10.00">CTypeElement::getFormatted</text>
<text text-anchor="middle" x="270" y="-29.5" font-family="Verdana" font-size="10.00">Mapping</text>
</a>
</g>
</g>
<!-- Node1&#45;&gt;Node2 -->
<g id="edge1" class="edge"><title>Node1&#45;&gt;Node2</title>
<path fill="none" stroke="midnightblue" d="M156.006,-24.4165C164.509,-25.401 173.211,-26.4086 181.827,-27.4063"/>
<polygon fill="midnightblue" stroke="midnightblue" points="181.548,-30.8973 191.884,-28.5708 182.353,-23.9437 181.548,-30.8973"/>
</g>
<!-- Node5 -->
<g id="node5" class="node"><title>Node5</title>
<g id="a_node5"><a xlink:href="namespaceutility.html#ad1a5fc9a6a732edf346e956f8fef957d" target="_top" xlink:title="Format the items of a sequence container of strings into a string. ">
<polygon fill="white" stroke="black" points="676,-3 676,-22 763,-22 763,-3 676,-3"/>
<text text-anchor="middle" x="719.5" y="-10" font-family="Verdana" font-size="10.00">utility::asString</text>
</a>
</g>
</g>
<!-- Node1&#45;&gt;Node5 -->
<g id="edge5" class="edge"><title>Node1&#45;&gt;Node5</title>
<path fill="none" stroke="midnightblue" d="M156.192,-13.1776C168.179,-12.8958 180.422,-12.6537 192,-12.5 365.328,-10.1996 570.782,-11.3074 665.649,-12.0363"/>
<polygon fill="midnightblue" stroke="midnightblue" points="665.817,-15.5376 675.844,-12.1165 665.872,-8.53784 665.817,-15.5376"/>
</g>
<!-- Node3 -->
<g id="node3" class="node"><title>Node3</title>
<g id="a_node3"><a xlink:href="classCMappingData.html#a47f8683f2a0ec019a5e461254f54d411" target="_top" xlink:title="Formats the mapping as a list of comma&#45;space separated key:value pairs. ">
<polygon fill="white" stroke="black" points="384,-26 384,-45 517,-45 517,-26 384,-26"/>
<text text-anchor="middle" x="450.5" y="-33" font-family="Verdana" font-size="10.00">CMappingData::asString</text>
</a>
</g>
</g>
<!-- Node2&#45;&gt;Node3 -->
<g id="edge2" class="edge"><title>Node2&#45;&gt;Node3</title>
<path fill="none" stroke="midnightblue" d="M348.255,-36.6344C356.695,-36.5398 365.281,-36.4436 373.703,-36.3493"/>
<polygon fill="midnightblue" stroke="midnightblue" points="373.915,-39.8472 383.875,-36.2353 373.836,-32.8477 373.915,-39.8472"/>
</g>
<!-- Node4 -->
<g id="node4" class="node"><title>Node4</title>
<g id="a_node4"><a xlink:href="namespaceutility.html#a0c420c08a1eb41e2b27ed6d28ac5a096" target="_top" xlink:title="Format the items of a map into a string as a list of key&#45;value pairs. ">
<polygon fill="white" stroke="black" points="553,-23 553,-42 640,-42 640,-23 553,-23"/>
<text text-anchor="middle" x="596.5" y="-30" font-family="Verdana" font-size="10.00">utility::asString</text>
</a>
</g>
</g>
<!-- Node3&#45;&gt;Node4 -->
<g id="edge3" class="edge"><title>Node3&#45;&gt;Node4</title>
<path fill="none" stroke="midnightblue" d="M517.179,-34.1317C525.828,-33.9515 534.599,-33.7688 542.988,-33.594"/>
<polygon fill="midnightblue" stroke="midnightblue" points="543.073,-37.0931 552.998,-33.3855 542.927,-30.0946 543.073,-37.0931"/>
</g>
<!-- Node4&#45;&gt;Node5 -->
<g id="edge4" class="edge"><title>Node4&#45;&gt;Node5</title>
<path fill="none" stroke="midnightblue" d="M640.16,-25.4487C648.474,-24.0746 657.281,-22.6188 665.873,-21.1987"/>
<polygon fill="midnightblue" stroke="midnightblue" points="666.522,-24.639 675.817,-19.555 665.38,-17.7327 666.522,-24.639"/>
</g>
</g>
</svg>
