<?xml version="1.0" encoding="UTF-8" standalone="no"?>
<!DOCTYPE svg PUBLIC "-//W3C//DTD SVG 1.1//EN"
 "http://www.w3.org/Graphics/SVG/1.1/DTD/svg11.dtd">
<!-- Generated by graphviz version 2.38.0 (20140413.2041)
 -->
<!-- Title: CSelectionCriteria::createSelectionCriterion Pages: 1 -->
<svg width="355pt" height="39pt"
 viewBox="0.00 0.00 355.00 39.00" xmlns="http://www.w3.org/2000/svg" xmlns:xlink="http://www.w3.org/1999/xlink">
<g id="graph0" class="graph" transform="scale(1 1) rotate(0) translate(4 35)">
<title>CSelectionCriteria::createSelectionCriterion</title>
<polygon fill="white" stroke="none" points="-4,4 -4,-35 351,-35 351,4 -4,4"/>
<!-- Node1 -->
<g id="node1" class="node"><title>Node1</title>
<polygon fill="#bfbfbf" stroke="black" points="0,-0.5 0,-30.5 138,-30.5 138,-0.5 0,-0.5"/>
<text text-anchor="start" x="8" y="-18.5" font-family="Verdana" font-size="10.00">CSelectionCriteria</text>
<text text-anchor="middle" x="69" y="-7.5" font-family="Verdana" font-size="10.00">::createSelectionCriterion</text>
</g>
<!-- Node2 -->
<g id="node2" class="node"><title>Node2</title>
<g id="a_node2"><a xlink:href="classCParameterMgr.html#a3b6a3500b78f43bfb894263689b809a7" target="_top" xlink:title="CParameterMgr::createSelection\lCriterion">
<polygon fill="white" stroke="black" points="174,-0.5 174,-30.5 347,-30.5 347,-0.5 174,-0.5"/>
<text text-anchor="start" x="182" y="-18.5" font-family="Verdana" font-size="10.00">CParameterMgr::createSelection</text>
<text text-anchor="middle" x="260.5" y="-7.5" font-family="Verdana" font-size="10.00">Criterion</text>
</a>
</g>
</g>
<!-- Node1&#45;&gt;Node2 -->
<g id="edge1" class="edge"><title>Node1&#45;&gt;Node2</title>
<path fill="none" stroke="midnightblue" d="M148.302,-15.5C156.715,-15.5 165.307,-15.5 173.801,-15.5"/>
<polygon fill="midnightblue" stroke="midnightblue" points="148.146,-12.0001 138.146,-15.5 148.146,-19.0001 148.146,-12.0001"/>
</g>
</g>
</svg>
