<?xml version="1.0" encoding="UTF-8" standalone="no"?>
<!DOCTYPE svg PUBLIC "-//W3C//DTD SVG 1.1//EN"
 "http://www.w3.org/Graphics/SVG/1.1/DTD/svg11.dtd">
<!-- Generated by graphviz version 2.38.0 (20140413.2041)
 -->
<!-- Title: CXmlElement::CChildIterator::next Pages: 1 -->
<svg width="1029pt" height="402pt"
 viewBox="0.00 0.00 1029.00 402.31" xmlns="http://www.w3.org/2000/svg" xmlns:xlink="http://www.w3.org/1999/xlink">
<g id="graph0" class="graph" transform="scale(1 1) rotate(0) translate(4 398.315)">
<title>CXmlElement::CChildIterator::next</title>
<polygon fill="white" stroke="none" points="-4,4 -4,-398.315 1025,-398.315 1025,4 -4,4"/>
<!-- Node1 -->
<g id="node1" class="node"><title>Node1</title>
<polygon fill="#bfbfbf" stroke="black" points="0,-126 0,-156 152,-156 152,-126 0,-126"/>
<text text-anchor="start" x="8" y="-144" font-family="Verdana" font-size="10.00">CXmlElement::CChildIterator</text>
<text text-anchor="middle" x="76" y="-133" font-family="Verdana" font-size="10.00">::next</text>
</g>
<!-- Node2 -->
<g id="node2" class="node"><title>Node2</title>
<g id="a_node2"><a xlink:href="classCComponentLibrary.html#a655b53ad8035a9cc519dc260b18b9c27" target="_top" xlink:title="CComponentLibrary::\lfromXml">
<polygon fill="white" stroke="black" points="445,-332 445,-362 562,-362 562,-332 445,-332"/>
<text text-anchor="start" x="453" y="-350" font-family="Verdana" font-size="10.00">CComponentLibrary::</text>
<text text-anchor="middle" x="503.5" y="-339" font-family="Verdana" font-size="10.00">fromXml</text>
</a>
</g>
</g>
<!-- Node1&#45;&gt;Node2 -->
<g id="edge1" class="edge"><title>Node1&#45;&gt;Node2</title>
<path fill="none" stroke="midnightblue" d="M90.1523,-164.753C108.17,-194.986 143.433,-246.572 188,-274 268.197,-323.356 378.579,-339.371 444.991,-344.549"/>
<polygon fill="midnightblue" stroke="midnightblue" points="93.1763,-162.991 85.123,-156.106 87.1254,-166.51 93.1763,-162.991"/>
</g>
<!-- Node4 -->
<g id="node4" class="node"><title>Node4</title>
<g id="a_node4"><a xlink:href="classCConfigurableElement.html#a0e3feb8a7b18a3291ec960c9726b4eaf" target="_top" xlink:title="CConfigurableElement\l::serializeXmlSettings">
<polygon fill="white" stroke="black" points="219,-126 219,-156 342,-156 342,-126 219,-126"/>
<text text-anchor="start" x="227" y="-144" font-family="Verdana" font-size="10.00">CConfigurableElement</text>
<text text-anchor="middle" x="280.5" y="-133" font-family="Verdana" font-size="10.00">::serializeXmlSettings</text>
</a>
</g>
</g>
<!-- Node1&#45;&gt;Node4 -->
<g id="edge4" class="edge"><title>Node1&#45;&gt;Node4</title>
<path fill="none" stroke="midnightblue" d="M162.253,-141C181.224,-141 200.963,-141 218.715,-141"/>
<polygon fill="midnightblue" stroke="midnightblue" points="162.116,-137.5 152.116,-141 162.116,-144.5 162.116,-137.5"/>
</g>
<!-- Node8 -->
<g id="node8" class="node"><title>Node8</title>
<g id="a_node8"><a xlink:href="classCDomainConfiguration.html#a07ba71bfd498ff4291eb765975360339" target="_top" xlink:title="CDomainConfiguration\l::parseSettings">
<polygon fill="white" stroke="black" points="218,-77 218,-107 343,-107 343,-77 218,-77"/>
<text text-anchor="start" x="226" y="-95" font-family="Verdana" font-size="10.00">CDomainConfiguration</text>
<text text-anchor="middle" x="280.5" y="-84" font-family="Verdana" font-size="10.00">::parseSettings</text>
</a>
</g>
</g>
<!-- Node1&#45;&gt;Node8 -->
<g id="edge9" class="edge"><title>Node1&#45;&gt;Node8</title>
<path fill="none" stroke="midnightblue" d="M148.971,-123.585C171.479,-118.138 196.1,-112.181 217.833,-106.922"/>
<polygon fill="midnightblue" stroke="midnightblue" points="148.029,-120.212 139.133,-125.965 149.676,-127.015 148.029,-120.212"/>
</g>
<!-- Node9 -->
<g id="node9" class="node"><title>Node9</title>
<g id="a_node9"><a xlink:href="classCElement.html#a9cc62393370848bda4c0591e6698ebe8" target="_top" xlink:title="CElement::fromXml">
<polygon fill="white" stroke="black" points="225.5,-227.5 225.5,-246.5 335.5,-246.5 335.5,-227.5 225.5,-227.5"/>
<text text-anchor="middle" x="280.5" y="-234.5" font-family="Verdana" font-size="10.00">CElement::fromXml</text>
</a>
</g>
</g>
<!-- Node1&#45;&gt;Node9 -->
<g id="edge10" class="edge"><title>Node1&#45;&gt;Node9</title>
<path fill="none" stroke="midnightblue" d="M118.14,-160.503C161.019,-180.831 226.445,-211.848 259.254,-227.402"/>
<polygon fill="midnightblue" stroke="midnightblue" points="119.622,-157.333 109.087,-156.211 116.623,-163.658 119.622,-157.333"/>
</g>
<!-- Node16 -->
<g id="node16" class="node"><title>Node16</title>
<g id="a_node16"><a xlink:href="classCPluginLocation.html#a0d486934884a60830434dbade94fe625" target="_top" xlink:title="CPluginLocation::fromXml">
<polygon fill="white" stroke="black" points="211,-38.5 211,-57.5 350,-57.5 350,-38.5 211,-38.5"/>
<text text-anchor="middle" x="280.5" y="-45.5" font-family="Verdana" font-size="10.00">CPluginLocation::fromXml</text>
</a>
</g>
</g>
<!-- Node1&#45;&gt;Node16 -->
<g id="edge19" class="edge"><title>Node1&#45;&gt;Node16</title>
<path fill="none" stroke="midnightblue" d="M102.964,-119.473C124.469,-102.724 156.502,-80.1828 188,-67 197.279,-63.1165 207.431,-59.9996 217.488,-57.5058"/>
<polygon fill="midnightblue" stroke="midnightblue" points="100.644,-116.846 94.9825,-125.801 104.993,-122.331 100.644,-116.846"/>
</g>
<!-- Node17 -->
<g id="node17" class="node"><title>Node17</title>
<g id="a_node17"><a xlink:href="classCXmlElement.html#abffb4b3c9d2ac6c552b3222a92bf0d8a" target="_top" xlink:title="CXmlElement::getChildElement">
<polygon fill="white" stroke="black" points="197.5,-360.5 197.5,-379.5 363.5,-379.5 363.5,-360.5 197.5,-360.5"/>
<text text-anchor="middle" x="280.5" y="-367.5" font-family="Verdana" font-size="10.00">CXmlElement::getChildElement</text>
</a>
</g>
</g>
<!-- Node1&#45;&gt;Node17 -->
<g id="edge20" class="edge"><title>Node1&#45;&gt;Node17</title>
<path fill="none" stroke="midnightblue" d="M86.3866,-165.43C102.189,-203.794 137.41,-278.572 188,-325 205.868,-341.398 230.817,-353.133 250.15,-360.499"/>
<polygon fill="midnightblue" stroke="midnightblue" points="89.598,-164.034 82.6185,-156.063 83.1038,-166.647 89.598,-164.034"/>
</g>
<!-- Node18 -->
<g id="node18" class="node"><title>Node18</title>
<g id="a_node18"><a xlink:href="classCXmlElement.html#adf23655abe898403789f9d7c35ff3225" target="_top" xlink:title="CXmlElement::getNbChildElements">
<polygon fill="white" stroke="black" points="188,-0.5 188,-19.5 373,-19.5 373,-0.5 188,-0.5"/>
<text text-anchor="middle" x="280.5" y="-7.5" font-family="Verdana" font-size="10.00">CXmlElement::getNbChildElements</text>
</a>
</g>
</g>
<!-- Node1&#45;&gt;Node18 -->
<g id="edge22" class="edge"><title>Node1&#45;&gt;Node18</title>
<path fill="none" stroke="midnightblue" d="M93.3123,-117.761C112.78,-91.8807 147.793,-50.8248 188,-29 195.13,-25.13 202.964,-22.0469 210.957,-19.591"/>
<polygon fill="midnightblue" stroke="midnightblue" points="90.4269,-115.777 87.3211,-125.906 96.0658,-119.924 90.4269,-115.777"/>
</g>
<!-- Node2&#45;&gt;Node2 -->
<g id="edge2" class="edge"><title>Node2&#45;&gt;Node2</title>
<path fill="none" stroke="midnightblue" d="M465.475,-372.458C470.194,-377.179 482.869,-380.5 503.5,-380.5 537.355,-380.5 549.787,-371.557 540.794,-362.159"/>
<polygon fill="midnightblue" stroke="midnightblue" points="468.989,-372.382 466.206,-362.159 462.006,-371.886 468.989,-372.382"/>
</g>
<!-- Node3 -->
<g id="node3" class="node"><title>Node3</title>
<g id="a_node3"><a xlink:href="classCSubsystem.html#ab9e7934e8526dcaaf0b037e72b4e6b7e" target="_top" xlink:title="Deserialize the structure from xml. ">
<polygon fill="white" stroke="black" points="634,-368.5 634,-387.5 803,-387.5 803,-368.5 634,-368.5"/>
<text text-anchor="middle" x="718.5" y="-375.5" font-family="Verdana" font-size="10.00">CSubsystem::structureFromXml</text>
</a>
</g>
</g>
<!-- Node2&#45;&gt;Node3 -->
<g id="edge3" class="edge"><title>Node2&#45;&gt;Node3</title>
<path fill="none" stroke="midnightblue" d="M572.102,-356.839C597.616,-360.552 626.584,-364.768 651.911,-368.454"/>
<polygon fill="midnightblue" stroke="midnightblue" points="572.541,-353.366 562.141,-355.389 571.533,-360.293 572.541,-353.366"/>
</g>
<!-- Node4&#45;&gt;Node4 -->
<g id="edge8" class="edge"><title>Node4&#45;&gt;Node4</title>
<path fill="none" stroke="midnightblue" d="M244.252,-166.458C248.751,-171.179 260.833,-174.5 280.5,-174.5 312.773,-174.5 324.624,-165.557 316.051,-156.159"/>
<polygon fill="midnightblue" stroke="midnightblue" points="247.765,-166.373 244.949,-156.159 240.781,-165.9 247.765,-166.373"/>
</g>
<!-- Node5 -->
<g id="node5" class="node"><title>Node5</title>
<g id="a_node5"><a xlink:href="classCAreaConfiguration.html#a6b8c95a79343ee9823b026d74184e798" target="_top" xlink:title="CAreaConfiguration\l::serializeXmlSettings">
<polygon fill="white" stroke="black" points="444,-108 444,-138 563,-138 563,-108 444,-108"/>
<text text-anchor="start" x="452" y="-126" font-family="Verdana" font-size="10.00">CAreaConfiguration</text>
<text text-anchor="middle" x="503.5" y="-115" font-family="Verdana" font-size="10.00">::serializeXmlSettings</text>
</a>
</g>
</g>
<!-- Node4&#45;&gt;Node5 -->
<g id="edge5" class="edge"><title>Node4&#45;&gt;Node5</title>
<path fill="none" stroke="midnightblue" d="M352.423,-135.223C381.934,-132.82 415.786,-130.063 443.861,-127.776"/>
<polygon fill="midnightblue" stroke="midnightblue" points="351.864,-131.757 342.182,-136.058 352.433,-138.734 351.864,-131.757"/>
</g>
<!-- Node6 -->
<g id="node6" class="node"><title>Node6</title>
<g id="a_node6"><a xlink:href="classCConfigurableElement.html#a471ef22f0f314e7813d2f7eca78fdb2d" target="_top" xlink:title="CConfigurableElement\l::fromXml">
<polygon fill="white" stroke="black" points="442,-59 442,-89 565,-89 565,-59 442,-59"/>
<text text-anchor="start" x="450" y="-77" font-family="Verdana" font-size="10.00">CConfigurableElement</text>
<text text-anchor="middle" x="503.5" y="-66" font-family="Verdana" font-size="10.00">::fromXml</text>
</a>
</g>
</g>
<!-- Node4&#45;&gt;Node6 -->
<g id="edge6" class="edge"><title>Node4&#45;&gt;Node6</title>
<path fill="none" stroke="midnightblue" d="M351.896,-123.285C359.088,-121.024 366.232,-118.588 373,-116 389.709,-109.612 392.242,-104.259 409,-98 419.362,-94.1299 430.595,-90.6601 441.563,-87.6415"/>
<polygon fill="midnightblue" stroke="midnightblue" points="350.645,-120.007 342.091,-126.258 352.676,-126.706 350.645,-120.007"/>
</g>
<!-- Node7 -->
<g id="node7" class="node"><title>Node7</title>
<g id="a_node7"><a xlink:href="classCConfigurableElement.html#ad4597087c2be2840b9ebe2463bf68a24" target="_top" xlink:title="CConfigurableElement\l::toXml">
<polygon fill="white" stroke="black" points="442,-10 442,-40 565,-40 565,-10 442,-10"/>
<text text-anchor="start" x="450" y="-28" font-family="Verdana" font-size="10.00">CConfigurableElement</text>
<text text-anchor="middle" x="503.5" y="-17" font-family="Verdana" font-size="10.00">::toXml</text>
</a>
</g>
</g>
<!-- Node4&#45;&gt;Node7 -->
<g id="edge7" class="edge"><title>Node4&#45;&gt;Node7</title>
<path fill="none" stroke="midnightblue" d="M351.817,-128.264C359.421,-125.051 366.679,-121.031 373,-116 399.449,-94.9491 382.389,-69.8459 409,-49 418.499,-41.559 430.051,-36.4052 441.749,-32.8405"/>
<polygon fill="midnightblue" stroke="midnightblue" points="350.542,-125.004 342.41,-131.796 353.002,-131.558 350.542,-125.004"/>
</g>
<!-- Node9&#45;&gt;Node2 -->
<g id="edge11" class="edge"><title>Node9&#45;&gt;Node2</title>
<path fill="none" stroke="midnightblue" d="M304.974,-251.979C323.573,-263.947 350.141,-281.263 373,-297 389.256,-308.192 391.13,-314.623 409,-323 420.229,-328.264 432.779,-332.49 444.947,-335.839"/>
<polygon fill="midnightblue" stroke="midnightblue" points="306.842,-249.019 296.535,-246.564 303.061,-254.911 306.842,-249.019"/>
</g>
<!-- Node9&#45;&gt;Node9 -->
<g id="edge13" class="edge"><title>Node9&#45;&gt;Node9</title>
<path fill="none" stroke="midnightblue" d="M242.268,-254.114C241.696,-260.126 254.44,-265 280.5,-265 316.758,-265 327.239,-255.565 311.942,-246.757"/>
<polygon fill="midnightblue" stroke="midnightblue" points="244.848,-256.48 249.058,-246.757 239.704,-251.732 244.848,-256.48"/>
</g>
<!-- Node10 -->
<g id="node10" class="node"><title>Node10</title>
<g id="a_node10"><a xlink:href="classCCompoundRule.html#a30af6bf1e12febe2e2c7c8d45507f4c9" target="_top" xlink:title="CCompoundRule::fromXml">
<polygon fill="white" stroke="black" points="432.5,-244.5 432.5,-263.5 574.5,-263.5 574.5,-244.5 432.5,-244.5"/>
<text text-anchor="middle" x="503.5" y="-251.5" font-family="Verdana" font-size="10.00">CCompoundRule::fromXml</text>
</a>
</g>
</g>
<!-- Node9&#45;&gt;Node10 -->
<g id="edge12" class="edge"><title>Node9&#45;&gt;Node10</title>
<path fill="none" stroke="midnightblue" d="M345.722,-241.94C372.856,-244.027 404.534,-246.464 432.285,-248.599"/>
<polygon fill="midnightblue" stroke="midnightblue" points="345.802,-238.436 335.563,-241.159 345.265,-245.415 345.802,-238.436"/>
</g>
<!-- Node11 -->
<g id="node11" class="node"><title>Node11</title>
<g id="a_node11"><a xlink:href="classCEnumValuePair.html#a48536bec778cf0baa85c30d4d08936d7" target="_top" xlink:title="CEnumValuePair::fromXml">
<polygon fill="white" stroke="black" points="433,-206.5 433,-225.5 574,-225.5 574,-206.5 433,-206.5"/>
<text text-anchor="middle" x="503.5" y="-213.5" font-family="Verdana" font-size="10.00">CEnumValuePair::fromXml</text>
</a>
</g>
</g>
<!-- Node9&#45;&gt;Node11 -->
<g id="edge14" class="edge"><title>Node9&#45;&gt;Node11</title>
<path fill="none" stroke="midnightblue" d="M345.768,-230.893C373.026,-228.303 404.863,-225.278 432.696,-222.633"/>
<polygon fill="midnightblue" stroke="midnightblue" points="345.187,-227.432 335.563,-231.863 345.849,-234.401 345.187,-227.432"/>
</g>
<!-- Node12 -->
<g id="node12" class="node"><title>Node12</title>
<g id="a_node12"><a xlink:href="classCParameterAdaptation.html#af48a8064e3a8c3bafccf9d431269a569" target="_top" xlink:title="CParameterAdaptation\l::fromXml">
<polygon fill="white" stroke="black" points="440.5,-157 440.5,-187 566.5,-187 566.5,-157 440.5,-157"/>
<text text-anchor="start" x="448.5" y="-175" font-family="Verdana" font-size="10.00">CParameterAdaptation</text>
<text text-anchor="middle" x="503.5" y="-164" font-family="Verdana" font-size="10.00">::fromXml</text>
</a>
</g>
</g>
<!-- Node9&#45;&gt;Node12 -->
<g id="edge15" class="edge"><title>Node9&#45;&gt;Node12</title>
<path fill="none" stroke="midnightblue" d="M320.325,-224.346C345.519,-216.252 379.105,-205.682 409,-197 420.457,-193.673 432.75,-190.268 444.536,-187.085"/>
<polygon fill="midnightblue" stroke="midnightblue" points="319.208,-221.029 310.764,-227.428 321.356,-227.691 319.208,-221.029"/>
</g>
<!-- Node15 -->
<g id="node15" class="node"><title>Node15</title>
<g id="a_node15"><a xlink:href="classCParameterFrameworkConfiguration.html#a911f494edd7e2e929bec95e6a294241f" target="_top" xlink:title="CParameterFrameworkConfiguration\l::fromXml">
<polygon fill="white" stroke="black" points="409,-283 409,-313 598,-313 598,-283 409,-283"/>
<text text-anchor="start" x="417" y="-301" font-family="Verdana" font-size="10.00">CParameterFrameworkConfiguration</text>
<text text-anchor="middle" x="503.5" y="-290" font-family="Verdana" font-size="10.00">::fromXml</text>
</a>
</g>
</g>
<!-- Node9&#45;&gt;Node15 -->
<g id="edge18" class="edge"><title>Node9&#45;&gt;Node15</title>
<path fill="none" stroke="midnightblue" d="M324.54,-249.313C349.234,-256.338 380.833,-265.258 409,-273 420.827,-276.251 433.512,-279.68 445.604,-282.923"/>
<polygon fill="midnightblue" stroke="midnightblue" points="325.329,-245.899 314.753,-246.526 323.412,-252.631 325.329,-245.899"/>
</g>
<!-- Node13 -->
<g id="node13" class="node"><title>Node13</title>
<g id="a_node13"><a xlink:href="classCLinearParameterAdaptation.html#a48805c5ccc995e73c5b387724845e6f7" target="_top" xlink:title="CLinearParameterAdaptation\l::fromXml">
<polygon fill="white" stroke="black" points="641,-157 641,-187 796,-187 796,-157 641,-157"/>
<text text-anchor="start" x="649" y="-175" font-family="Verdana" font-size="10.00">CLinearParameterAdaptation</text>
<text text-anchor="middle" x="718.5" y="-164" font-family="Verdana" font-size="10.00">::fromXml</text>
</a>
</g>
</g>
<!-- Node12&#45;&gt;Node13 -->
<g id="edge16" class="edge"><title>Node12&#45;&gt;Node13</title>
<path fill="none" stroke="midnightblue" d="M576.941,-172C597.538,-172 620.034,-172 640.871,-172"/>
<polygon fill="midnightblue" stroke="midnightblue" points="576.681,-168.5 566.681,-172 576.681,-175.5 576.681,-168.5"/>
</g>
<!-- Node14 -->
<g id="node14" class="node"><title>Node14</title>
<g id="a_node14"><a xlink:href="classCLogarithmicParameterAdaptation.html#ad493648bd491eb49dd10ff611e4cab10" target="_top" xlink:title="CLogarithmicParameterAdaptation\l::fromXml">
<polygon fill="white" stroke="black" points="839,-157 839,-187 1021,-187 1021,-157 839,-157"/>
<text text-anchor="start" x="847" y="-175" font-family="Verdana" font-size="10.00">CLogarithmicParameterAdaptation</text>
<text text-anchor="middle" x="930" y="-164" font-family="Verdana" font-size="10.00">::fromXml</text>
</a>
</g>
</g>
<!-- Node13&#45;&gt;Node14 -->
<g id="edge17" class="edge"><title>Node13&#45;&gt;Node14</title>
<path fill="none" stroke="midnightblue" d="M806.241,-172C816.997,-172 828.014,-172 838.82,-172"/>
<polygon fill="midnightblue" stroke="midnightblue" points="806.024,-168.5 796.024,-172 806.024,-175.5 806.024,-168.5"/>
</g>
<!-- Node17&#45;&gt;Node3 -->
<g id="edge21" class="edge"><title>Node17&#45;&gt;Node3</title>
<path fill="none" stroke="midnightblue" d="M340.583,-381.228C362.042,-384.787 386.534,-388.249 409,-390 492.746,-396.528 514.105,-394.202 598,-390 609.558,-389.421 621.721,-388.529 633.683,-387.487"/>
<polygon fill="midnightblue" stroke="midnightblue" points="341.081,-377.763 330.635,-379.537 339.907,-384.664 341.081,-377.763"/>
</g>
</g>
</svg>
