<?xml version="1.0" encoding="UTF-8" standalone="no"?>
<!DOCTYPE svg PUBLIC "-//W3C//DTD SVG 1.1//EN"
 "http://www.w3.org/Graphics/SVG/1.1/DTD/svg11.dtd">
<!-- Generated by graphviz version 2.38.0 (20140413.2041)
 -->
<!-- Title: CConfigurableDomains::getApplicationRule Pages: 1 -->
<svg width="746pt" height="88pt"
 viewBox="0.00 0.00 746.00 88.00" xmlns="http://www.w3.org/2000/svg" xmlns:xlink="http://www.w3.org/1999/xlink">
<g id="graph0" class="graph" transform="scale(1 1) rotate(0) translate(4 84)">
<title>CConfigurableDomains::getApplicationRule</title>
<polygon fill="white" stroke="none" points="-4,4 -4,-84 742,-84 742,4 -4,4"/>
<!-- Node1 -->
<g id="node1" class="node"><title>Node1</title>
<polygon fill="#bfbfbf" stroke="black" points="0,-24.5 0,-54.5 126,-54.5 126,-24.5 0,-24.5"/>
<text text-anchor="start" x="8" y="-42.5" font-family="Verdana" font-size="10.00">CConfigurableDomains</text>
<text text-anchor="middle" x="63" y="-31.5" font-family="Verdana" font-size="10.00">::getApplicationRule</text>
</g>
<!-- Node2 -->
<g id="node2" class="node"><title>Node2</title>
<g id="a_node2"><a xlink:href="classCConfigurableDomains.html#a4dce38a1560b6e33871d3fa2d85cc449" target="_top" xlink:title="CConfigurableDomains\l::findConfigurableDomain">
<polygon fill="white" stroke="black" points="162,-49.5 162,-79.5 299,-79.5 299,-49.5 162,-49.5"/>
<text text-anchor="start" x="170" y="-67.5" font-family="Verdana" font-size="10.00">CConfigurableDomains</text>
<text text-anchor="middle" x="230.5" y="-56.5" font-family="Verdana" font-size="10.00">::findConfigurableDomain</text>
</a>
</g>
</g>
<!-- Node1&#45;&gt;Node2 -->
<g id="edge1" class="edge"><title>Node1&#45;&gt;Node2</title>
<path fill="none" stroke="midnightblue" d="M126.097,-48.8802C134.469,-50.1449 143.143,-51.4552 151.745,-52.7545"/>
<polygon fill="midnightblue" stroke="midnightblue" points="151.376,-56.2384 161.787,-54.2714 152.422,-49.3169 151.376,-56.2384"/>
</g>
<!-- Node4 -->
<g id="node4" class="node"><title>Node4</title>
<g id="a_node4"><a xlink:href="classCConfigurableDomain.html#a172bcb617227f40d21b29e91b2424ee0" target="_top" xlink:title="CConfigurableDomain\l::getApplicationRule">
<polygon fill="white" stroke="black" points="170,-0.5 170,-30.5 291,-30.5 291,-0.5 170,-0.5"/>
<text text-anchor="start" x="178" y="-18.5" font-family="Verdana" font-size="10.00">CConfigurableDomain</text>
<text text-anchor="middle" x="230.5" y="-7.5" font-family="Verdana" font-size="10.00">::getApplicationRule</text>
</a>
</g>
</g>
<!-- Node1&#45;&gt;Node4 -->
<g id="edge3" class="edge"><title>Node1&#45;&gt;Node4</title>
<path fill="none" stroke="midnightblue" d="M126.097,-30.495C137.052,-28.9064 148.523,-27.2429 159.673,-25.626"/>
<polygon fill="midnightblue" stroke="midnightblue" points="160.404,-29.0567 169.798,-24.1577 159.399,-22.1291 160.404,-29.0567"/>
</g>
<!-- Node3 -->
<g id="node3" class="node"><title>Node3</title>
<g id="a_node3"><a xlink:href="classCElement.html#a8595814a3159f32f874269907e70b260" target="_top" xlink:title="CElement::findChild">
<polygon fill="white" stroke="black" points="342.5,-55 342.5,-74 452.5,-74 452.5,-55 342.5,-55"/>
<text text-anchor="middle" x="397.5" y="-62" font-family="Verdana" font-size="10.00">CElement::findChild</text>
</a>
</g>
</g>
<!-- Node2&#45;&gt;Node3 -->
<g id="edge2" class="edge"><title>Node2&#45;&gt;Node3</title>
<path fill="none" stroke="midnightblue" d="M299.088,-64.5C310.014,-64.5 321.301,-64.5 332.147,-64.5"/>
<polygon fill="midnightblue" stroke="midnightblue" points="332.385,-68.0001 342.385,-64.5 332.385,-61.0001 332.385,-68.0001"/>
</g>
<!-- Node5 -->
<g id="node5" class="node"><title>Node5</title>
<g id="a_node5"><a xlink:href="classCDomainConfiguration.html#a357cbc3957a3d994df871e4def96a7f5" target="_top" xlink:title="CDomainConfiguration\l::getApplicationRule">
<polygon fill="white" stroke="black" points="335,-0.5 335,-30.5 460,-30.5 460,-0.5 335,-0.5"/>
<text text-anchor="start" x="343" y="-18.5" font-family="Verdana" font-size="10.00">CDomainConfiguration</text>
<text text-anchor="middle" x="397.5" y="-7.5" font-family="Verdana" font-size="10.00">::getApplicationRule</text>
</a>
</g>
</g>
<!-- Node4&#45;&gt;Node5 -->
<g id="edge4" class="edge"><title>Node4&#45;&gt;Node5</title>
<path fill="none" stroke="midnightblue" d="M291.069,-15.5C301.953,-15.5 313.415,-15.5 324.612,-15.5"/>
<polygon fill="midnightblue" stroke="midnightblue" points="324.796,-19.0001 334.796,-15.5 324.796,-12.0001 324.796,-19.0001"/>
</g>
<!-- Node6 -->
<g id="node6" class="node"><title>Node6</title>
<g id="a_node6"><a xlink:href="classCCompoundRule.html#aa96236e3d92d64f6d525082be7f3c115" target="_top" xlink:title="CCompoundRule::dump">
<polygon fill="white" stroke="black" points="496,-6 496,-25 625,-25 625,-6 496,-6"/>
<text text-anchor="middle" x="560.5" y="-13" font-family="Verdana" font-size="10.00">CCompoundRule::dump</text>
</a>
</g>
</g>
<!-- Node5&#45;&gt;Node6 -->
<g id="edge5" class="edge"><title>Node5&#45;&gt;Node6</title>
<path fill="none" stroke="midnightblue" d="M460.286,-15.5C468.545,-15.5 477.082,-15.5 485.523,-15.5"/>
<polygon fill="midnightblue" stroke="midnightblue" points="485.746,-19.0001 495.746,-15.5 485.746,-12.0001 485.746,-19.0001"/>
</g>
<!-- Node7 -->
<g id="node7" class="node"><title>Node7</title>
<g id="a_node7"><a xlink:href="classCRule.html#a1f1682adc8db3c266f6c79bde39b12cd" target="_top" xlink:title="CRule::dump">
<polygon fill="white" stroke="black" points="661,-6 661,-25 738,-25 738,-6 661,-6"/>
<text text-anchor="middle" x="699.5" y="-13" font-family="Verdana" font-size="10.00">CRule::dump</text>
</a>
</g>
</g>
<!-- Node6&#45;&gt;Node7 -->
<g id="edge6" class="edge"><title>Node6&#45;&gt;Node7</title>
<path fill="none" stroke="midnightblue" d="M625.187,-15.5C633.736,-15.5 642.385,-15.5 650.599,-15.5"/>
<polygon fill="midnightblue" stroke="midnightblue" points="650.73,-19.0001 660.73,-15.5 650.73,-12.0001 650.73,-19.0001"/>
</g>
</g>
</svg>
