<?xml version="1.0" encoding="UTF-8" standalone="no"?>
<!DOCTYPE svg PUBLIC "-//W3C//DTD SVG 1.1//EN"
 "http://www.w3.org/Graphics/SVG/1.1/DTD/svg11.dtd">
<!-- Generated by graphviz version 2.36.0 (20140111.2315)
 -->
<!-- Title: CConfigurableElement::containsConfigurableDomain Pages: 1 -->
<svg width="966pt" height="87pt"
 viewBox="0.00 0.00 966.00 87.00" xmlns="http://www.w3.org/2000/svg" xmlns:xlink="http://www.w3.org/1999/xlink">
<g id="graph0" class="graph" transform="scale(1 1) rotate(0) translate(4 83)">
<title>CConfigurableElement::containsConfigurableDomain</title>
<polygon fill="white" stroke="none" points="-4,4 -4,-83 962,-83 962,4 -4,4"/>
<!-- Node1 -->
<g id="node1" class="node"><title>Node1</title>
<polygon fill="#bfbfbf" stroke="black" points="0.5,-24 0.5,-54 161.5,-54 161.5,-24 0.5,-24"/>
<text text-anchor="start" x="8.5" y="-42" font-family="Verdana" font-size="10.00">CConfigurableElement</text>
<text text-anchor="middle" x="81" y="-31" font-family="Verdana" font-size="10.00">::containsConfigurableDomain</text>
</g>
<!-- Node2 -->
<g id="node2" class="node"><title>Node2</title>
<g id="a_node2"><a xlink:href="classCConfigurableElement.html#ac5508cd538517568bebc5448179d9d76" target="_top" xlink:title="CConfigurableElement\l::belongsTo">
<polygon fill="white" stroke="black" points="198.5,-24 198.5,-54 321.5,-54 321.5,-24 198.5,-24"/>
<text text-anchor="start" x="206.5" y="-42" font-family="Verdana" font-size="10.00">CConfigurableElement</text>
<text text-anchor="middle" x="260" y="-31" font-family="Verdana" font-size="10.00">::belongsTo</text>
</a>
</g>
</g>
<!-- Node1&#45;&gt;Node2 -->
<g id="edge1" class="edge"><title>Node1&#45;&gt;Node2</title>
<path fill="none" stroke="midnightblue" d="M171.815,-39C180.788,-39 189.742,-39 198.309,-39"/>
<polygon fill="midnightblue" stroke="midnightblue" points="171.698,-35.5001 161.698,-39 171.697,-42.5001 171.698,-35.5001"/>
</g>
<!-- Node3 -->
<g id="node3" class="node"><title>Node3</title>
<g id="a_node3"><a xlink:href="classCConfigurableDomain.html#ac200b397f14de19463146c5f75d57020" target="_top" xlink:title="CConfigurableDomain\l::addConfigurableElement">
<polygon fill="white" stroke="black" points="367,-49 367,-79 507,-79 507,-49 367,-49"/>
<text text-anchor="start" x="375" y="-67" font-family="Verdana" font-size="10.00">CConfigurableDomain</text>
<text text-anchor="middle" x="437" y="-56" font-family="Verdana" font-size="10.00">::addConfigurableElement</text>
</a>
</g>
</g>
<!-- Node2&#45;&gt;Node3 -->
<g id="edge2" class="edge"><title>Node2&#45;&gt;Node3</title>
<path fill="none" stroke="midnightblue" d="M331.794,-49.1134C343.407,-50.7724 355.428,-52.4897 366.996,-54.1423"/>
<polygon fill="midnightblue" stroke="midnightblue" points="332.11,-45.6231 321.715,-47.6736 331.12,-52.5527 332.11,-45.6231"/>
</g>
<!-- Node6 -->
<g id="node6" class="node"><title>Node6</title>
<g id="a_node6"><a xlink:href="classCConfigurableDomains.html#a181ae71432b21ee3fedb82abb05872e3" target="_top" xlink:title="CConfigurableDomains\l::findConfigurationBlackboard">
<polygon fill="white" stroke="black" points="358.5,-0 358.5,-30 515.5,-30 515.5,-0 358.5,-0"/>
<text text-anchor="start" x="366.5" y="-18" font-family="Verdana" font-size="10.00">CConfigurableDomains</text>
<text text-anchor="middle" x="437" y="-7" font-family="Verdana" font-size="10.00">::findConfigurationBlackboard</text>
</a>
</g>
</g>
<!-- Node2&#45;&gt;Node6 -->
<g id="edge5" class="edge"><title>Node2&#45;&gt;Node6</title>
<path fill="none" stroke="midnightblue" d="M331.861,-29.282C340.612,-28.0818 349.594,-26.85 358.438,-25.637"/>
<polygon fill="midnightblue" stroke="midnightblue" points="331.147,-25.847 321.715,-30.6733 332.098,-32.7821 331.147,-25.847"/>
</g>
<!-- Node4 -->
<g id="node4" class="node"><title>Node4</title>
<g id="a_node4"><a xlink:href="classCConfigurableDomains.html#a5ef1a732092a341b147eca23da2f9476" target="_top" xlink:title="CConfigurableDomains\l::addConfigurableElementToDomain">
<polygon fill="white" stroke="black" points="555,-49 555,-79 743,-79 743,-49 555,-49"/>
<text text-anchor="start" x="563" y="-67" font-family="Verdana" font-size="10.00">CConfigurableDomains</text>
<text text-anchor="middle" x="649" y="-56" font-family="Verdana" font-size="10.00">::addConfigurableElementToDomain</text>
</a>
</g>
</g>
<!-- Node3&#45;&gt;Node4 -->
<g id="edge3" class="edge"><title>Node3&#45;&gt;Node4</title>
<path fill="none" stroke="midnightblue" d="M517.245,-64C529.538,-64 542.333,-64 554.897,-64"/>
<polygon fill="midnightblue" stroke="midnightblue" points="517.053,-60.5001 507.053,-64 517.053,-67.5001 517.053,-60.5001"/>
</g>
<!-- Node5 -->
<g id="node5" class="node"><title>Node5</title>
<g id="a_node5"><a xlink:href="classCParameterMgr.html#ae9941471fb32f02b3620cf46cd13ebbb" target="_top" xlink:title="CParameterMgr::addConfigurable\lElementToDomain">
<polygon fill="white" stroke="black" points="782,-49 782,-79 958,-79 958,-49 782,-49"/>
<text text-anchor="start" x="790" y="-67" font-family="Verdana" font-size="10.00">CParameterMgr::addConfigurable</text>
<text text-anchor="middle" x="870" y="-56" font-family="Verdana" font-size="10.00">ElementToDomain</text>
</a>
</g>
</g>
<!-- Node4&#45;&gt;Node5 -->
<g id="edge4" class="edge"><title>Node4&#45;&gt;Node5</title>
<path fill="none" stroke="midnightblue" d="M753.449,-64C762.935,-64 772.481,-64 781.803,-64"/>
<polygon fill="midnightblue" stroke="midnightblue" points="753.193,-60.5001 743.193,-64 753.193,-67.5001 753.193,-60.5001"/>
</g>
<!-- Node7 -->
<g id="node7" class="node"><title>Node7</title>
<g id="a_node7"><a xlink:href="classCParameterMgr.html#a25055f536c2d537e86852c87a4e1a061" target="_top" xlink:title="CParameterMgr::accessConfiguration\lValue">
<polygon fill="white" stroke="black" points="552,-0 552,-30 746,-30 746,-0 552,-0"/>
<text text-anchor="start" x="560" y="-18" font-family="Verdana" font-size="10.00">CParameterMgr::accessConfiguration</text>
<text text-anchor="middle" x="649" y="-7" font-family="Verdana" font-size="10.00">Value</text>
</a>
</g>
</g>
<!-- Node6&#45;&gt;Node7 -->
<g id="edge6" class="edge"><title>Node6&#45;&gt;Node7</title>
<path fill="none" stroke="midnightblue" d="M525.66,-15C534.305,-15 543.111,-15 551.836,-15"/>
<polygon fill="midnightblue" stroke="midnightblue" points="525.6,-11.5001 515.6,-15 525.6,-18.5001 525.6,-11.5001"/>
</g>
</g>
</svg>
