<?xml version="1.0" encoding="UTF-8" standalone="no"?>
<!DOCTYPE svg PUBLIC "-//W3C//DTD SVG 1.1//EN"
 "http://www.w3.org/Graphics/SVG/1.1/DTD/svg11.dtd">
<!-- Generated by graphviz version 2.38.0 (20140413.2041)
 -->
<!-- Title: CParameterAdaptation::toUserValue Pages: 1 -->
<svg width="543pt" height="88pt"
 viewBox="0.00 0.00 543.00 88.00" xmlns="http://www.w3.org/2000/svg" xmlns:xlink="http://www.w3.org/1999/xlink">
<g id="graph0" class="graph" transform="scale(1 1) rotate(0) translate(4 84)">
<title>CParameterAdaptation::toUserValue</title>
<polygon fill="white" stroke="none" points="-4,4 -4,-84 539,-84 539,4 -4,4"/>
<!-- Node1 -->
<g id="node1" class="node"><title>Node1</title>
<polygon fill="#bfbfbf" stroke="black" points="0,-24.5 0,-54.5 126,-54.5 126,-24.5 0,-24.5"/>
<text text-anchor="start" x="8" y="-42.5" font-family="Verdana" font-size="10.00">CParameterAdaptation</text>
<text text-anchor="middle" x="63" y="-31.5" font-family="Verdana" font-size="10.00">::toUserValue</text>
</g>
<!-- Node2 -->
<g id="node2" class="node"><title>Node2</title>
<g id="a_node2"><a xlink:href="classCIntegerParameterType.html#a59911966c6ddb3808550206df98462fb" target="_top" xlink:title="CIntegerParameterType\l::fromBlackboard">
<polygon fill="white" stroke="black" points="175.5,-49.5 175.5,-79.5 303.5,-79.5 303.5,-49.5 175.5,-49.5"/>
<text text-anchor="start" x="183.5" y="-67.5" font-family="Verdana" font-size="10.00">CIntegerParameterType</text>
<text text-anchor="middle" x="239.5" y="-56.5" font-family="Verdana" font-size="10.00">::fromBlackboard</text>
</a>
</g>
</g>
<!-- Node1&#45;&gt;Node2 -->
<g id="edge1" class="edge"><title>Node1&#45;&gt;Node2</title>
<path fill="none" stroke="midnightblue" d="M136.26,-49.8525C149.186,-51.7043 162.564,-53.621 175.214,-55.4333"/>
<polygon fill="midnightblue" stroke="midnightblue" points="136.409,-46.3381 126.014,-48.3845 135.416,-53.2673 136.409,-46.3381"/>
</g>
<!-- Node3 -->
<g id="node3" class="node"><title>Node3</title>
<g id="a_node3"><a xlink:href="classCLinearParameterAdaptation.html#af8906d64e91b6f15990b546761dabccd" target="_top" xlink:title="CLinearParameterAdaptation\l::toUserValue">
<polygon fill="white" stroke="black" points="162,-0.5 162,-30.5 317,-30.5 317,-0.5 162,-0.5"/>
<text text-anchor="start" x="170" y="-18.5" font-family="Verdana" font-size="10.00">CLinearParameterAdaptation</text>
<text text-anchor="middle" x="239.5" y="-7.5" font-family="Verdana" font-size="10.00">::toUserValue</text>
</a>
</g>
</g>
<!-- Node1&#45;&gt;Node3 -->
<g id="edge2" class="edge"><title>Node1&#45;&gt;Node3</title>
<path fill="none" stroke="midnightblue" d="M136.178,-29.573C144.607,-28.4136 153.231,-27.2276 161.72,-26.06"/>
<polygon fill="midnightblue" stroke="midnightblue" points="135.443,-26.1409 126.014,-30.9709 136.397,-33.0757 135.443,-26.1409"/>
</g>
<!-- Node4 -->
<g id="node4" class="node"><title>Node4</title>
<g id="a_node4"><a xlink:href="classCLogarithmicParameterAdaptation.html#a6e3b11c477ea3dc6fda5bc030528c09b" target="_top" xlink:title="CLogarithmicParameterAdaptation\l::toUserValue">
<polygon fill="white" stroke="black" points="353,-0.5 353,-30.5 535,-30.5 535,-0.5 353,-0.5"/>
<text text-anchor="start" x="361" y="-18.5" font-family="Verdana" font-size="10.00">CLogarithmicParameterAdaptation</text>
<text text-anchor="middle" x="444" y="-7.5" font-family="Verdana" font-size="10.00">::toUserValue</text>
</a>
</g>
</g>
<!-- Node3&#45;&gt;Node4 -->
<g id="edge3" class="edge"><title>Node3&#45;&gt;Node4</title>
<path fill="none" stroke="midnightblue" d="M327.258,-15.5C335.69,-15.5 344.259,-15.5 352.725,-15.5"/>
<polygon fill="midnightblue" stroke="midnightblue" points="327.057,-12.0001 317.057,-15.5 327.057,-19.0001 327.057,-12.0001"/>
</g>
</g>
</svg>
