<?xml version="1.0" encoding="UTF-8" standalone="no"?>
<!DOCTYPE svg PUBLIC "-//W3C//DTD SVG 1.1//EN"
 "http://www.w3.org/Graphics/SVG/1.1/DTD/svg11.dtd">
<!-- Generated by graphviz version 2.38.0 (20140413.2041)
 -->
<!-- Title: CParameterBlackboard::getLocation Pages: 1 -->
<svg width="354pt" height="39pt"
 viewBox="0.00 0.00 354.00 39.00" xmlns="http://www.w3.org/2000/svg" xmlns:xlink="http://www.w3.org/1999/xlink">
<g id="graph0" class="graph" transform="scale(1 1) rotate(0) translate(4 35)">
<title>CParameterBlackboard::getLocation</title>
<polygon fill="white" stroke="none" points="-4,4 -4,-35 350,-35 350,4 -4,4"/>
<!-- Node1 -->
<g id="node1" class="node"><title>Node1</title>
<polygon fill="#bfbfbf" stroke="black" points="0,-0.5 0,-30.5 127,-30.5 127,-0.5 0,-0.5"/>
<text text-anchor="start" x="8" y="-18.5" font-family="Verdana" font-size="10.00">CParameterBlackboard</text>
<text text-anchor="middle" x="63.5" y="-7.5" font-family="Verdana" font-size="10.00">::getLocation</text>
</g>
<!-- Node2 -->
<g id="node2" class="node"><title>Node2</title>
<g id="a_node2"><a xlink:href="classCSubsystemObject.html#a35b8554e5c3cc58ce88feb1c759415f6" target="_top" xlink:title="FIXME: plugins should not have direct access to blackboard memory. ">
<polygon fill="white" stroke="black" points="163,-0.5 163,-30.5 346,-30.5 346,-0.5 163,-0.5"/>
<text text-anchor="start" x="171" y="-18.5" font-family="Verdana" font-size="10.00">CSubsystemObject::getBlackboard</text>
<text text-anchor="middle" x="254.5" y="-7.5" font-family="Verdana" font-size="10.00">Location</text>
</a>
</g>
</g>
<!-- Node1&#45;&gt;Node2 -->
<g id="edge1" class="edge"><title>Node1&#45;&gt;Node2</title>
<path fill="none" stroke="midnightblue" d="M137.301,-15.5C145.72,-15.5 154.382,-15.5 163,-15.5"/>
<polygon fill="midnightblue" stroke="midnightblue" points="137.172,-12.0001 127.172,-15.5 137.172,-19.0001 137.172,-12.0001"/>
</g>
</g>
</svg>
