<?xml version="1.0" encoding="UTF-8" standalone="no"?>
<!DOCTYPE svg PUBLIC "-//W3C//DTD SVG 1.1//EN"
 "http://www.w3.org/Graphics/SVG/1.1/DTD/svg11.dtd">
<!-- Generated by graphviz version 2.36.0 (20140111.2315)
 -->
<!-- Title: CElement::computeStructureChecksum Pages: 1 -->
<svg width="308pt" height="56pt"
 viewBox="0.00 0.00 308.00 56.00" xmlns="http://www.w3.org/2000/svg" xmlns:xlink="http://www.w3.org/1999/xlink">
<g id="graph0" class="graph" transform="scale(1 1) rotate(0) translate(4 52)">
<title>CElement::computeStructureChecksum</title>
<polygon fill="white" stroke="none" points="-4,4 -4,-52 304,-52 304,4 -4,4"/>
<!-- Node1 -->
<g id="node1" class="node"><title>Node1</title>
<polygon fill="#bfbfbf" stroke="black" points="0.5,-0 0.5,-30 157.5,-30 157.5,-0 0.5,-0"/>
<text text-anchor="start" x="8.5" y="-18" font-family="Verdana" font-size="10.00">CElement::computeStructure</text>
<text text-anchor="middle" x="79" y="-7" font-family="Verdana" font-size="10.00">Checksum</text>
</g>
<!-- Node1&#45;&gt;Node1 -->
<g id="edge2" class="edge"><title>Node1&#45;&gt;Node1</title>
<path fill="none" stroke="midnightblue" d="M49.4688,-30.2754C42.9062,-39.4062 52.75,-48 79,-48 94.5859,-48 104.388,-44.9704 108.406,-40.5975"/>
<polygon fill="midnightblue" stroke="midnightblue" points="111.91,-40.3171 108.531,-30.2754 104.91,-40.2323 111.91,-40.3171"/>
</g>
<!-- Node2 -->
<g id="node2" class="node"><title>Node2</title>
<g id="a_node2"><a xlink:href="classCElement.html#aed2ca7f2a56dbf2edcd82167859535ee" target="_top" xlink:title="CElement::getKind">
<polygon fill="white" stroke="black" points="194.5,-5.5 194.5,-24.5 299.5,-24.5 299.5,-5.5 194.5,-5.5"/>
<text text-anchor="middle" x="247" y="-12.5" font-family="Verdana" font-size="10.00">CElement::getKind</text>
</a>
</g>
</g>
<!-- Node1&#45;&gt;Node2 -->
<g id="edge1" class="edge"><title>Node1&#45;&gt;Node2</title>
<path fill="none" stroke="midnightblue" d="M157.654,-15C166.63,-15 175.69,-15 184.411,-15"/>
<polygon fill="midnightblue" stroke="midnightblue" points="184.468,-18.5001 194.468,-15 184.468,-11.5001 184.468,-18.5001"/>
</g>
</g>
</svg>
