<?xml version="1.0" encoding="UTF-8" standalone="no"?>
<!DOCTYPE svg PUBLIC "-//W3C//DTD SVG 1.1//EN"
 "http://www.w3.org/Graphics/SVG/1.1/DTD/svg11.dtd">
<!-- Generated by graphviz version 2.38.0 (20140413.2041)
 -->
<!-- Title: CConfigurationAccessContext::CConfigurationAccessContext Pages: 1 -->
<svg width="503pt" height="39pt"
 viewBox="0.00 0.00 503.00 39.00" xmlns="http://www.w3.org/2000/svg" xmlns:xlink="http://www.w3.org/1999/xlink">
<g id="graph0" class="graph" transform="scale(1 1) rotate(0) translate(4 35)">
<title>CConfigurationAccessContext::CConfigurationAccessContext</title>
<polygon fill="white" stroke="none" points="-4,4 -4,-35 499,-35 499,4 -4,4"/>
<!-- Node1 -->
<g id="node1" class="node"><title>Node1</title>
<polygon fill="#bfbfbf" stroke="black" points="0,-0.5 0,-30.5 164,-30.5 164,-0.5 0,-0.5"/>
<text text-anchor="start" x="8" y="-18.5" font-family="Verdana" font-size="10.00">CConfigurationAccessContext</text>
<text text-anchor="middle" x="82" y="-7.5" font-family="Verdana" font-size="10.00">::CConfigurationAccessContext</text>
</g>
<!-- Node2 -->
<g id="node2" class="node"><title>Node2</title>
<g id="a_node2"><a xlink:href="classCParameterAccessContext.html#a63edfc4e3e4be246343523fad557d156" target="_top" xlink:title="CParameterAccessContext\l::CParameterAccessContext">
<polygon fill="white" stroke="black" points="200,-0.5 200,-30.5 351,-30.5 351,-0.5 200,-0.5"/>
<text text-anchor="start" x="208" y="-18.5" font-family="Verdana" font-size="10.00">CParameterAccessContext</text>
<text text-anchor="middle" x="275.5" y="-7.5" font-family="Verdana" font-size="10.00">::CParameterAccessContext</text>
</a>
</g>
</g>
<!-- Node1&#45;&gt;Node2 -->
<g id="edge1" class="edge"><title>Node1&#45;&gt;Node2</title>
<path fill="none" stroke="midnightblue" d="M164.213,-15.5C172.62,-15.5 181.18,-15.5 189.626,-15.5"/>
<polygon fill="midnightblue" stroke="midnightblue" points="189.853,-19.0001 199.853,-15.5 189.853,-12.0001 189.853,-19.0001"/>
</g>
<!-- Node3 -->
<g id="node3" class="node"><title>Node3</title>
<g id="a_node3"><a xlink:href="classutility_1_1ErrorContext.html#aa7f62b70e85e2a02a21124454d0b928d" target="_top" xlink:title="utility::ErrorContext\l::ErrorContext">
<polygon fill="white" stroke="black" points="387,-0.5 387,-30.5 495,-30.5 495,-0.5 387,-0.5"/>
<text text-anchor="start" x="395" y="-18.5" font-family="Verdana" font-size="10.00">utility::ErrorContext</text>
<text text-anchor="middle" x="441" y="-7.5" font-family="Verdana" font-size="10.00">::ErrorContext</text>
</a>
</g>
</g>
<!-- Node2&#45;&gt;Node3 -->
<g id="edge2" class="edge"><title>Node2&#45;&gt;Node3</title>
<path fill="none" stroke="midnightblue" d="M351.073,-15.5C359.576,-15.5 368.182,-15.5 376.522,-15.5"/>
<polygon fill="midnightblue" stroke="midnightblue" points="376.537,-19.0001 386.536,-15.5 376.536,-12.0001 376.537,-19.0001"/>
</g>
</g>
</svg>
