<?xml version="1.0" encoding="UTF-8" standalone="no"?>
<!DOCTYPE svg PUBLIC "-//W3C//DTD SVG 1.1//EN"
 "http://www.w3.org/Graphics/SVG/1.1/DTD/svg11.dtd">
<!-- Generated by graphviz version 2.38.0 (20140413.2041)
 -->
<!-- Title: CParameterType::signExtend Pages: 1 -->
<svg width="340pt" height="284pt"
 viewBox="0.00 0.00 340.00 284.00" xmlns="http://www.w3.org/2000/svg" xmlns:xlink="http://www.w3.org/1999/xlink">
<g id="graph0" class="graph" transform="scale(1 1) rotate(0) translate(4 280)">
<title>CParameterType::signExtend</title>
<polygon fill="white" stroke="none" points="-4,4 -4,-280 336,-280 336,4 -4,4"/>
<!-- Node1 -->
<g id="node1" class="node"><title>Node1</title>
<polygon fill="#bfbfbf" stroke="black" points="0,-128 0,-147 153,-147 153,-128 0,-128"/>
<text text-anchor="middle" x="76.5" y="-135" font-family="Verdana" font-size="10.00">CParameterType::signExtend</text>
</g>
<!-- Node2 -->
<g id="node2" class="node"><title>Node2</title>
<g id="a_node2"><a xlink:href="classCEnumParameterType.html#a0bd3061022ff86f0a244575b89ab8a48" target="_top" xlink:title="CEnumParameterType\l::fromBlackboard">
<polygon fill="white" stroke="black" points="199.5,-245.5 199.5,-275.5 321.5,-275.5 321.5,-245.5 199.5,-245.5"/>
<text text-anchor="start" x="207.5" y="-263.5" font-family="Verdana" font-size="10.00">CEnumParameterType</text>
<text text-anchor="middle" x="260.5" y="-252.5" font-family="Verdana" font-size="10.00">::fromBlackboard</text>
</a>
</g>
</g>
<!-- Node1&#45;&gt;Node2 -->
<g id="edge1" class="edge"><title>Node1&#45;&gt;Node2</title>
<path fill="none" stroke="midnightblue" d="M92.5788,-154.567C112.638,-176.337 150.116,-213.868 189,-236.5 194.699,-239.817 200.925,-242.765 207.243,-245.359"/>
<polygon fill="midnightblue" stroke="midnightblue" points="95.085,-152.121 85.7771,-147.059 89.8973,-156.82 95.085,-152.121"/>
</g>
<!-- Node3 -->
<g id="node3" class="node"><title>Node3</title>
<g id="a_node3"><a xlink:href="classCFixedPointParameterType.html#a915d48511911653dc8ddf03cf39dc0ec" target="_top" xlink:title="CFixedPointParameterType\l::fromBlackboard">
<polygon fill="white" stroke="black" points="189,-196.5 189,-226.5 332,-226.5 332,-196.5 189,-196.5"/>
<text text-anchor="start" x="197" y="-214.5" font-family="Verdana" font-size="10.00">CFixedPointParameterType</text>
<text text-anchor="middle" x="260.5" y="-203.5" font-family="Verdana" font-size="10.00">::fromBlackboard</text>
</a>
</g>
</g>
<!-- Node1&#45;&gt;Node3 -->
<g id="edge2" class="edge"><title>Node1&#45;&gt;Node3</title>
<path fill="none" stroke="midnightblue" d="M106.653,-151.473C128.965,-161.947 160.625,-176.336 189,-187.5 196.821,-190.577 205.215,-193.639 213.387,-196.494"/>
<polygon fill="midnightblue" stroke="midnightblue" points="107.939,-148.21 97.4024,-147.104 104.95,-154.54 107.939,-148.21"/>
</g>
<!-- Node4 -->
<g id="node4" class="node"><title>Node4</title>
<g id="a_node4"><a xlink:href="classCIntegerParameterType.html#a8d8e329f5f61b6e50108e7fe1a7f7446" target="_top" xlink:title="CIntegerParameterType\l::fromXml">
<polygon fill="white" stroke="black" points="196.5,-147.5 196.5,-177.5 324.5,-177.5 324.5,-147.5 196.5,-147.5"/>
<text text-anchor="start" x="204.5" y="-165.5" font-family="Verdana" font-size="10.00">CIntegerParameterType</text>
<text text-anchor="middle" x="260.5" y="-154.5" font-family="Verdana" font-size="10.00">::fromXml</text>
</a>
</g>
</g>
<!-- Node1&#45;&gt;Node4 -->
<g id="edge3" class="edge"><title>Node1&#45;&gt;Node4</title>
<path fill="none" stroke="midnightblue" d="M156.845,-148.399C170.057,-150.214 183.602,-152.075 196.342,-153.824"/>
<polygon fill="midnightblue" stroke="midnightblue" points="157.209,-144.916 146.826,-147.023 156.256,-151.851 157.209,-144.916"/>
</g>
<!-- Node5 -->
<g id="node5" class="node"><title>Node5</title>
<g id="a_node5"><a xlink:href="classCIntegerParameterType.html#aac12d359362c7ab46915cadb574bca76" target="_top" xlink:title="Conversion. ">
<polygon fill="white" stroke="black" points="196.5,-98.5 196.5,-128.5 324.5,-128.5 324.5,-98.5 196.5,-98.5"/>
<text text-anchor="start" x="204.5" y="-116.5" font-family="Verdana" font-size="10.00">CIntegerParameterType</text>
<text text-anchor="middle" x="260.5" y="-105.5" font-family="Verdana" font-size="10.00">::toBlackboard</text>
</a>
</g>
</g>
<!-- Node1&#45;&gt;Node5 -->
<g id="edge4" class="edge"><title>Node1&#45;&gt;Node5</title>
<path fill="none" stroke="midnightblue" d="M159.876,-126.637C172.08,-125.028 184.494,-123.391 196.227,-121.844"/>
<polygon fill="midnightblue" stroke="midnightblue" points="159.149,-123.203 149.693,-127.98 160.064,-130.143 159.149,-123.203"/>
</g>
<!-- Node6 -->
<g id="node6" class="node"><title>Node6</title>
<g id="a_node6"><a xlink:href="classCIntegerParameterType.html#a20f5eb6c8e4cea3d1f0ccdb92e1d008c" target="_top" xlink:title="CIntegerParameterType\l::fromBlackboard">
<polygon fill="white" stroke="black" points="196.5,-49.5 196.5,-79.5 324.5,-79.5 324.5,-49.5 196.5,-49.5"/>
<text text-anchor="start" x="204.5" y="-67.5" font-family="Verdana" font-size="10.00">CIntegerParameterType</text>
<text text-anchor="middle" x="260.5" y="-56.5" font-family="Verdana" font-size="10.00">::fromBlackboard</text>
</a>
</g>
</g>
<!-- Node1&#45;&gt;Node6 -->
<g id="edge5" class="edge"><title>Node1&#45;&gt;Node6</title>
<path fill="none" stroke="midnightblue" d="M107.982,-123.735C130.268,-113.829 161.311,-100.356 189,-89.5 197.584,-86.1345 206.83,-82.7128 215.709,-79.5249"/>
<polygon fill="midnightblue" stroke="midnightblue" points="106.407,-120.605 98.7027,-127.878 109.261,-126.997 106.407,-120.605"/>
</g>
<!-- Node7 -->
<g id="node7" class="node"><title>Node7</title>
<g id="a_node7"><a xlink:href="classCIntegerParameterType.html#ae884925dcc3a114c6a2e4531e2c9e9b1" target="_top" xlink:title="Converts size optimized integer input data (int8, int16, int32) to plain int. ">
<polygon fill="white" stroke="black" points="196.5,-0.5 196.5,-30.5 324.5,-30.5 324.5,-0.5 196.5,-0.5"/>
<text text-anchor="start" x="204.5" y="-18.5" font-family="Verdana" font-size="10.00">CIntegerParameterType</text>
<text text-anchor="middle" x="260.5" y="-7.5" font-family="Verdana" font-size="10.00">::toPlainInteger</text>
</a>
</g>
</g>
<!-- Node1&#45;&gt;Node7 -->
<g id="edge6" class="edge"><title>Node1&#45;&gt;Node7</title>
<path fill="none" stroke="midnightblue" d="M93.0045,-120.546C113.262,-99.2703 150.685,-62.8654 189,-40.5 195.393,-36.7683 202.434,-33.459 209.518,-30.569"/>
<polygon fill="midnightblue" stroke="midnightblue" points="90.3986,-118.208 86.1152,-127.899 95.5067,-122.994 90.3986,-118.208"/>
</g>
</g>
</svg>
