<?xml version="1.0" encoding="UTF-8" standalone="no"?>
<!DOCTYPE svg PUBLIC "-//W3C//DTD SVG 1.1//EN"
 "http://www.w3.org/Graphics/SVG/1.1/DTD/svg11.dtd">
<!-- Generated by graphviz version 2.36.0 (20140111.2315)
 -->
<!-- Title: CConfigurableElement::getListOfElementsWithMapping Pages: 1 -->
<svg width="332pt" height="56pt"
 viewBox="0.00 0.00 332.00 56.00" xmlns="http://www.w3.org/2000/svg" xmlns:xlink="http://www.w3.org/1999/xlink">
<g id="graph0" class="graph" transform="scale(1 1) rotate(0) translate(4 52)">
<title>CConfigurableElement::getListOfElementsWithMapping</title>
<polygon fill="white" stroke="none" points="-4,4 -4,-52 328,-52 328,4 -4,4"/>
<!-- Node1 -->
<g id="node1" class="node"><title>Node1</title>
<polygon fill="#bfbfbf" stroke="black" points="0.5,-0 0.5,-30 171.5,-30 171.5,-0 0.5,-0"/>
<text text-anchor="start" x="8.5" y="-18" font-family="Verdana" font-size="10.00">CConfigurableElement</text>
<text text-anchor="middle" x="86" y="-7" font-family="Verdana" font-size="10.00">::getListOfElementsWithMapping</text>
</g>
<!-- Node1&#45;&gt;Node1 -->
<g id="edge2" class="edge"><title>Node1&#45;&gt;Node1</title>
<path fill="none" stroke="midnightblue" d="M54.3594,-30.2754C47.3281,-39.4062 57.875,-48 86,-48 102.699,-48 113.201,-44.9704 117.507,-40.5975"/>
<polygon fill="midnightblue" stroke="midnightblue" points="121.011,-40.32 117.641,-30.2754 114.011,-40.2291 121.011,-40.32"/>
</g>
<!-- Node2 -->
<g id="node2" class="node"><title>Node2</title>
<g id="a_node2"><a xlink:href="classCElement.html#a7987056bec3cbc71bed07cc88b060cf0" target="_top" xlink:title="CElement::getParent">
<polygon fill="white" stroke="black" points="208,-5.5 208,-24.5 324,-24.5 324,-5.5 208,-5.5"/>
<text text-anchor="middle" x="266" y="-12.5" font-family="Verdana" font-size="10.00">CElement::getParent</text>
</a>
</g>
</g>
<!-- Node1&#45;&gt;Node2 -->
<g id="edge1" class="edge"><title>Node1&#45;&gt;Node2</title>
<path fill="none" stroke="midnightblue" d="M171.569,-15C180.306,-15 189.1,-15 197.613,-15"/>
<polygon fill="midnightblue" stroke="midnightblue" points="197.835,-18.5001 207.835,-15 197.835,-11.5001 197.835,-18.5001"/>
</g>
</g>
</svg>
