<?xml version="1.0" encoding="UTF-8" standalone="no"?>
<!DOCTYPE svg PUBLIC "-//W3C//DTD SVG 1.1//EN"
 "http://www.w3.org/Graphics/SVG/1.1/DTD/svg11.dtd">
<!-- Generated by graphviz version 2.36.0 (20140111.2315)
 -->
<!-- Title: CDomainConfiguration::save Pages: 1 -->
<svg width="674pt" height="38pt"
 viewBox="0.00 0.00 674.00 38.00" xmlns="http://www.w3.org/2000/svg" xmlns:xlink="http://www.w3.org/1999/xlink">
<g id="graph0" class="graph" transform="scale(1 1) rotate(0) translate(4 34)">
<title>CDomainConfiguration::save</title>
<polygon fill="white" stroke="none" points="-4,4 -4,-34 670,-34 670,4 -4,4"/>
<!-- Node1 -->
<g id="node1" class="node"><title>Node1</title>
<polygon fill="#bfbfbf" stroke="black" points="0.5,-0 0.5,-30 125.5,-30 125.5,-0 0.5,-0"/>
<text text-anchor="start" x="8.5" y="-18" font-family="Verdana" font-size="10.00">CDomainConfiguration</text>
<text text-anchor="middle" x="63" y="-7" font-family="Verdana" font-size="10.00">::save</text>
</g>
<!-- Node2 -->
<g id="node2" class="node"><title>Node2</title>
<g id="a_node2"><a xlink:href="classCConfigurableDomain.html#a7656ea4134ae47e8a19e1565c16323f0" target="_top" xlink:title="CConfigurableDomain\l::saveConfiguration">
<polygon fill="white" stroke="black" points="162.5,-0 162.5,-30 283.5,-30 283.5,-0 162.5,-0"/>
<text text-anchor="start" x="170.5" y="-18" font-family="Verdana" font-size="10.00">CConfigurableDomain</text>
<text text-anchor="middle" x="223" y="-7" font-family="Verdana" font-size="10.00">::saveConfiguration</text>
</a>
</g>
</g>
<!-- Node1&#45;&gt;Node2 -->
<g id="edge1" class="edge"><title>Node1&#45;&gt;Node2</title>
<path fill="none" stroke="midnightblue" d="M135.595,-15C144.572,-15 153.678,-15 162.443,-15"/>
<polygon fill="midnightblue" stroke="midnightblue" points="135.539,-11.5001 125.539,-15 135.539,-18.5001 135.539,-11.5001"/>
</g>
<!-- Node3 -->
<g id="node3" class="node"><title>Node3</title>
<g id="a_node3"><a xlink:href="classCConfigurableDomains.html#a1be81268a7220733d7aed82e75e8253c" target="_top" xlink:title="CConfigurableDomains\l::saveConfiguration">
<polygon fill="white" stroke="black" points="320,-0 320,-30 446,-30 446,-0 320,-0"/>
<text text-anchor="start" x="328" y="-18" font-family="Verdana" font-size="10.00">CConfigurableDomains</text>
<text text-anchor="middle" x="383" y="-7" font-family="Verdana" font-size="10.00">::saveConfiguration</text>
</a>
</g>
</g>
<!-- Node2&#45;&gt;Node3 -->
<g id="edge2" class="edge"><title>Node2&#45;&gt;Node3</title>
<path fill="none" stroke="midnightblue" d="M293.807,-15C302.468,-15 311.279,-15 319.815,-15"/>
<polygon fill="midnightblue" stroke="midnightblue" points="293.733,-11.5001 283.733,-15 293.733,-18.5001 293.733,-11.5001"/>
</g>
<!-- Node4 -->
<g id="node4" class="node"><title>Node4</title>
<g id="a_node4"><a xlink:href="classCParameterMgr.html#aabb760bc56ad6e76f32bf732005730cb" target="_top" xlink:title="CParameterMgr::saveConfiguration">
<polygon fill="white" stroke="black" points="482,-5.5 482,-24.5 666,-24.5 666,-5.5 482,-5.5"/>
<text text-anchor="middle" x="574" y="-12.5" font-family="Verdana" font-size="10.00">CParameterMgr::saveConfiguration</text>
</a>
</g>
</g>
<!-- Node3&#45;&gt;Node4 -->
<g id="edge3" class="edge"><title>Node3&#45;&gt;Node4</title>
<path fill="none" stroke="midnightblue" d="M456.198,-15C464.553,-15 473.155,-15 481.721,-15"/>
<polygon fill="midnightblue" stroke="midnightblue" points="456.147,-11.5001 446.147,-15 456.147,-18.5001 456.147,-11.5001"/>
</g>
</g>
</svg>
