<?xml version="1.0" encoding="UTF-8" standalone="no"?>
<!DOCTYPE svg PUBLIC "-//W3C//DTD SVG 1.1//EN"
 "http://www.w3.org/Graphics/SVG/1.1/DTD/svg11.dtd">
<!-- Generated by graphviz version 2.38.0 (20140413.2041)
 -->
<!-- Title: CEnumParameterType::fromXml Pages: 1 -->
<svg width="311pt" height="66pt"
 viewBox="0.00 0.00 311.00 66.00" xmlns="http://www.w3.org/2000/svg" xmlns:xlink="http://www.w3.org/1999/xlink">
<g id="graph0" class="graph" transform="scale(1 1) rotate(0) translate(4 62)">
<title>CEnumParameterType::fromXml</title>
<polygon fill="white" stroke="none" points="-4,4 -4,-62 307,-62 307,4 -4,4"/>
<!-- Node1 -->
<g id="node1" class="node"><title>Node1</title>
<polygon fill="#bfbfbf" stroke="black" points="0,-14 0,-44 122,-44 122,-14 0,-14"/>
<text text-anchor="start" x="8" y="-32" font-family="Verdana" font-size="10.00">CEnumParameterType</text>
<text text-anchor="middle" x="61" y="-21" font-family="Verdana" font-size="10.00">::fromXml</text>
</g>
<!-- Node2 -->
<g id="node2" class="node"><title>Node2</title>
<g id="a_node2"><a xlink:href="classCXmlElement.html#a6198359168c744489018bc2b8d732dc3" target="_top" xlink:title="Get attribute. ">
<polygon fill="white" stroke="black" points="158,-38.5 158,-57.5 303,-57.5 303,-38.5 158,-38.5"/>
<text text-anchor="middle" x="230.5" y="-45.5" font-family="Verdana" font-size="10.00">CXmlElement::getAttribute</text>
</a>
</g>
</g>
<!-- Node1&#45;&gt;Node2 -->
<g id="edge1" class="edge"><title>Node1&#45;&gt;Node2</title>
<path fill="none" stroke="midnightblue" d="M122.471,-35.8594C130.756,-36.7992 139.37,-37.7763 147.954,-38.75"/>
<polygon fill="midnightblue" stroke="midnightblue" points="147.663,-42.2394 157.994,-39.8889 148.452,-35.284 147.663,-42.2394"/>
</g>
<!-- Node3 -->
<g id="node3" class="node"><title>Node3</title>
<g id="a_node3"><a xlink:href="classCParameterType.html#ae76c751b669d949c8f1819f547f04c90" target="_top" xlink:title="CParameterType::setSize">
<polygon fill="white" stroke="black" points="162.5,-0.5 162.5,-19.5 298.5,-19.5 298.5,-0.5 162.5,-0.5"/>
<text text-anchor="middle" x="230.5" y="-7.5" font-family="Verdana" font-size="10.00">CParameterType::setSize</text>
</a>
</g>
</g>
<!-- Node1&#45;&gt;Node3 -->
<g id="edge2" class="edge"><title>Node1&#45;&gt;Node3</title>
<path fill="none" stroke="midnightblue" d="M122.471,-22.1406C132.17,-21.0404 142.321,-19.8889 152.346,-18.7518"/>
<polygon fill="midnightblue" stroke="midnightblue" points="152.765,-22.2269 162.306,-17.622 151.976,-15.2715 152.765,-22.2269"/>
</g>
</g>
</svg>
