<?xml version="1.0" encoding="UTF-8" standalone="no"?>
<!DOCTYPE svg PUBLIC "-//W3C//DTD SVG 1.1//EN"
 "http://www.w3.org/Graphics/SVG/1.1/DTD/svg11.dtd">
<!-- Generated by graphviz version 2.38.0 (20140413.2041)
 -->
<!-- Title: IRemoteProcessorServerInterface Pages: 1 -->
<svg width="324pt" height="95pt"
 viewBox="0.00 0.00 323.50 95.00" xmlns="http://www.w3.org/2000/svg" xmlns:xlink="http://www.w3.org/1999/xlink">
<g id="graph0" class="graph" transform="scale(1 1) rotate(0) translate(4 91)">
<title>IRemoteProcessorServerInterface</title>
<polygon fill="white" stroke="none" points="-4,4 -4,-91 319.5,-91 319.5,4 -4,4"/>
<!-- Node1 -->
<g id="node1" class="node"><title>Node1</title>
<polygon fill="#bfbfbf" stroke="black" points="74,-67.5 74,-86.5 250,-86.5 250,-67.5 74,-67.5"/>
<text text-anchor="middle" x="162" y="-74.5" font-family="Verdana" font-size="10.00">IRemoteProcessorServerInterface</text>
</g>
<!-- Node2 -->
<g id="node2" class="node"><title>Node2</title>
<g id="a_node2"><a xlink:href="classBackgroundRemoteProcessorServer.html" target="_top" xlink:title="BackgroundRemoteProcessor\lServer">
<polygon fill="white" stroke="black" points="0,-0.5 0,-30.5 158,-30.5 158,-0.5 0,-0.5"/>
<text text-anchor="start" x="8" y="-18.5" font-family="Verdana" font-size="10.00">BackgroundRemoteProcessor</text>
<text text-anchor="middle" x="79" y="-7.5" font-family="Verdana" font-size="10.00">Server</text>
</a>
</g>
</g>
<!-- Node1&#45;&gt;Node2 -->
<g id="edge1" class="edge"><title>Node1&#45;&gt;Node2</title>
<path fill="none" stroke="midnightblue" d="M141.728,-61.468C128.587,-52.0474 111.559,-39.8408 98.5615,-30.523"/>
<polygon fill="midnightblue" stroke="midnightblue" points="139.941,-64.4934 150.108,-67.4751 144.02,-58.8042 139.941,-64.4934"/>
</g>
<!-- Node3 -->
<g id="node3" class="node"><title>Node3</title>
<g id="a_node3"><a xlink:href="classCRemoteProcessorServer.html" target="_top" xlink:title="CRemoteProcessorServer">
<polygon fill="white" stroke="black" points="176.5,-6 176.5,-25 315.5,-25 315.5,-6 176.5,-6"/>
<text text-anchor="middle" x="246" y="-13" font-family="Verdana" font-size="10.00">CRemoteProcessorServer</text>
</a>
</g>
</g>
<!-- Node1&#45;&gt;Node3 -->
<g id="edge2" class="edge"><title>Node1&#45;&gt;Node3</title>
<path fill="none" stroke="midnightblue" d="M182.311,-61.6127C198.467,-50.1691 220.523,-34.546 233.987,-25.0091"/>
<polygon fill="midnightblue" stroke="midnightblue" points="180.172,-58.8388 174.035,-67.4751 184.218,-64.551 180.172,-58.8388"/>
</g>
</g>
</svg>
