<?xml version="1.0" encoding="UTF-8" standalone="no"?>
<!DOCTYPE svg PUBLIC "-//W3C//DTD SVG 1.1//EN"
 "http://www.w3.org/Graphics/SVG/1.1/DTD/svg11.dtd">
<!-- Generated by graphviz version 2.38.0 (20140413.2041)
 -->
<!-- Title: ElementHandle::getPath Pages: 1 -->
<svg width="283pt" height="46pt"
 viewBox="0.00 0.00 283.00 46.00" xmlns="http://www.w3.org/2000/svg" xmlns:xlink="http://www.w3.org/1999/xlink">
<g id="graph0" class="graph" transform="scale(1 1) rotate(0) translate(4 42)">
<title>ElementHandle::getPath</title>
<polygon fill="white" stroke="none" points="-4,4 -4,-42 279,-42 279,4 -4,4"/>
<!-- Node1 -->
<g id="node1" class="node"><title>Node1</title>
<polygon fill="#bfbfbf" stroke="black" points="0,-0.5 0,-19.5 133,-19.5 133,-0.5 0,-0.5"/>
<text text-anchor="middle" x="66.5" y="-7.5" font-family="Verdana" font-size="10.00">ElementHandle::getPath</text>
</g>
<!-- Node2 -->
<g id="node2" class="node"><title>Node2</title>
<g id="a_node2"><a xlink:href="classCElement.html#a7022c0fc8063f0aae9d97b06e74d4ac1" target="_top" xlink:title="CElement::getPath">
<polygon fill="white" stroke="black" points="169,-0.5 169,-19.5 275,-19.5 275,-0.5 169,-0.5"/>
<text text-anchor="middle" x="222" y="-7.5" font-family="Verdana" font-size="10.00">CElement::getPath</text>
</a>
</g>
</g>
<!-- Node1&#45;&gt;Node2 -->
<g id="edge1" class="edge"><title>Node1&#45;&gt;Node2</title>
<path fill="none" stroke="midnightblue" d="M133.043,-10C141.501,-10 150.145,-10 158.551,-10"/>
<polygon fill="midnightblue" stroke="midnightblue" points="158.659,-13.5001 168.659,-10 158.659,-6.5001 158.659,-13.5001"/>
</g>
<!-- Node2&#45;&gt;Node2 -->
<g id="edge2" class="edge"><title>Node2&#45;&gt;Node2</title>
<path fill="none" stroke="midnightblue" d="M198.264,-19.7571C186.717,-28.5653 194.629,-38 222,-38 239.962,-38 249.544,-33.9368 250.746,-28.6539"/>
<polygon fill="midnightblue" stroke="midnightblue" points="253.692,-26.7532 245.736,-19.7571 247.593,-30.1879 253.692,-26.7532"/>
</g>
</g>
</svg>
