<?xml version="1.0" encoding="UTF-8" standalone="no"?>
<!DOCTYPE svg PUBLIC "-//W3C//DTD SVG 1.1//EN"
 "http://www.w3.org/Graphics/SVG/1.1/DTD/svg11.dtd">
<!-- Generated by graphviz version 2.38.0 (20140413.2041)
 -->
<!-- Title: CElement::log_info Pages: 1 -->
<svg width="809pt" height="900pt"
 viewBox="0.00 0.00 809.00 900.00" xmlns="http://www.w3.org/2000/svg" xmlns:xlink="http://www.w3.org/1999/xlink">
<g id="graph0" class="graph" transform="scale(1 1) rotate(0) translate(4 896)">
<title>CElement::log_info</title>
<polygon fill="white" stroke="none" points="-4,4 -4,-896 805,-896 805,4 -4,4"/>
<!-- Node1 -->
<g id="node1" class="node"><title>Node1</title>
<polygon fill="#bfbfbf" stroke="black" points="0,-416 0,-435 106,-435 106,-416 0,-416"/>
<text text-anchor="middle" x="53" y="-423" font-family="Verdana" font-size="10.00">CElement::log_info</text>
</g>
<!-- Node2 -->
<g id="node2" class="node"><title>Node2</title>
<g id="a_node2"><a xlink:href="classCConfigurableDomain.html#a3a77775be8a0df31842b5857a238789e" target="_top" xlink:title="CConfigurableDomain\l::setSequenceAwareness">
<polygon fill="white" stroke="black" points="170.5,-859.5 170.5,-889.5 307.5,-889.5 307.5,-859.5 170.5,-859.5"/>
<text text-anchor="start" x="178.5" y="-877.5" font-family="Verdana" font-size="10.00">CConfigurableDomain</text>
<text text-anchor="middle" x="239" y="-866.5" font-family="Verdana" font-size="10.00">::setSequenceAwareness</text>
</a>
</g>
</g>
<!-- Node1&#45;&gt;Node2 -->
<g id="edge1" class="edge"><title>Node1&#45;&gt;Node2</title>
<path fill="none" stroke="midnightblue" d="M55.5082,-445.264C61.608,-520.158 86.8122,-785.299 142,-845.5 149.647,-853.842 159.6,-859.817 170.195,-864.09"/>
<polygon fill="midnightblue" stroke="midnightblue" points="58.9968,-444.98 54.7184,-435.288 52.0186,-445.533 58.9968,-444.98"/>
</g>
<!-- Node5 -->
<g id="node5" class="node"><title>Node5</title>
<g id="a_node5"><a xlink:href="classCConfigurableDomain.html#acf2423f10f9c85b255fb9bade2664801" target="_top" xlink:title="CConfigurableDomain\l::removeConfigurableElement">
<polygon fill="white" stroke="black" points="159.5,-805.5 159.5,-835.5 318.5,-835.5 318.5,-805.5 159.5,-805.5"/>
<text text-anchor="start" x="167.5" y="-823.5" font-family="Verdana" font-size="10.00">CConfigurableDomain</text>
<text text-anchor="middle" x="239" y="-812.5" font-family="Verdana" font-size="10.00">::removeConfigurableElement</text>
</a>
</g>
</g>
<!-- Node1&#45;&gt;Node5 -->
<g id="edge4" class="edge"><title>Node1&#45;&gt;Node5</title>
<path fill="none" stroke="midnightblue" d="M56.1214,-445.441C63.8597,-514.531 92.7246,-742.242 142,-793.5 147.039,-798.742 153.009,-802.991 159.469,-806.431"/>
<polygon fill="midnightblue" stroke="midnightblue" points="59.5578,-444.667 54.9907,-435.108 52.5993,-445.429 59.5578,-444.667"/>
</g>
<!-- Node8 -->
<g id="node8" class="node"><title>Node8</title>
<g id="a_node8"><a xlink:href="classCConfigurableDomain.html#aea88fe7f6e3f02217f5d9f0e2e820da2" target="_top" xlink:title="CConfigurableDomain\l::split">
<polygon fill="white" stroke="black" points="178.5,-753.5 178.5,-783.5 299.5,-783.5 299.5,-753.5 178.5,-753.5"/>
<text text-anchor="start" x="186.5" y="-771.5" font-family="Verdana" font-size="10.00">CConfigurableDomain</text>
<text text-anchor="middle" x="239" y="-760.5" font-family="Verdana" font-size="10.00">::split</text>
</a>
</g>
</g>
<!-- Node1&#45;&gt;Node8 -->
<g id="edge7" class="edge"><title>Node1&#45;&gt;Node8</title>
<path fill="none" stroke="midnightblue" d="M56.8159,-445.239C66.162,-508.042 98.0719,-701.622 142,-744.5 151.835,-754.1 164.898,-760.044 178.211,-763.679"/>
<polygon fill="midnightblue" stroke="midnightblue" points="60.2437,-444.489 55.3356,-435.1 53.3171,-445.501 60.2437,-444.489"/>
</g>
<!-- Node11 -->
<g id="node11" class="node"><title>Node11</title>
<g id="a_node11"><a xlink:href="classCConfigurableDomain.html#a928805e163719f902c207c061ab3b1c2" target="_top" xlink:title="CConfigurableDomain\l::apply">
<polygon fill="white" stroke="black" points="178.5,-704.5 178.5,-734.5 299.5,-734.5 299.5,-704.5 178.5,-704.5"/>
<text text-anchor="start" x="186.5" y="-722.5" font-family="Verdana" font-size="10.00">CConfigurableDomain</text>
<text text-anchor="middle" x="239" y="-711.5" font-family="Verdana" font-size="10.00">::apply</text>
</a>
</g>
</g>
<!-- Node1&#45;&gt;Node11 -->
<g id="edge10" class="edge"><title>Node1&#45;&gt;Node11</title>
<path fill="none" stroke="midnightblue" d="M54.2833,-445.151C56.1114,-494.865 68.0628,-626.572 142,-695.5 151.927,-704.755 164.869,-710.583 178.021,-714.218"/>
<polygon fill="midnightblue" stroke="midnightblue" points="57.7805,-444.998 54.0158,-435.094 50.783,-445.184 57.7805,-444.998"/>
</g>
<!-- Node13 -->
<g id="node13" class="node"><title>Node13</title>
<g id="a_node13"><a xlink:href="classCConfigurableDomain.html#a82e376a127b18da449923829825bcbed" target="_top" xlink:title="CConfigurableDomain\l::createConfiguration">
<polygon fill="white" stroke="black" points="178.5,-655.5 178.5,-685.5 299.5,-685.5 299.5,-655.5 178.5,-655.5"/>
<text text-anchor="start" x="186.5" y="-673.5" font-family="Verdana" font-size="10.00">CConfigurableDomain</text>
<text text-anchor="middle" x="239" y="-662.5" font-family="Verdana" font-size="10.00">::createConfiguration</text>
</a>
</g>
</g>
<!-- Node1&#45;&gt;Node13 -->
<g id="edge12" class="edge"><title>Node1&#45;&gt;Node13</title>
<path fill="none" stroke="midnightblue" d="M55.9273,-445.315C61.235,-488.663 80.0667,-592.354 142,-646.5 152.218,-655.433 165.271,-661.138 178.437,-664.757"/>
<polygon fill="midnightblue" stroke="midnightblue" points="59.3886,-444.771 54.8073,-435.218 52.4312,-445.543 59.3886,-444.771"/>
</g>
<!-- Node16 -->
<g id="node16" class="node"><title>Node16</title>
<g id="a_node16"><a xlink:href="classCConfigurableDomain.html#a5029ae23af30ac7b4f5ba526ac50508f" target="_top" xlink:title="CConfigurableDomain\l::deleteConfiguration">
<polygon fill="white" stroke="black" points="178.5,-606.5 178.5,-636.5 299.5,-636.5 299.5,-606.5 178.5,-606.5"/>
<text text-anchor="start" x="186.5" y="-624.5" font-family="Verdana" font-size="10.00">CConfigurableDomain</text>
<text text-anchor="middle" x="239" y="-613.5" font-family="Verdana" font-size="10.00">::deleteConfiguration</text>
</a>
</g>
</g>
<!-- Node1&#45;&gt;Node16 -->
<g id="edge15" class="edge"><title>Node1&#45;&gt;Node16</title>
<path fill="none" stroke="midnightblue" d="M58.3953,-445.258C67.4673,-481.279 91.7628,-557.582 142,-597.5 152.424,-605.783 165.335,-611.25 178.272,-614.848"/>
<polygon fill="midnightblue" stroke="midnightblue" points="61.6921,-443.994 55.9712,-435.076 54.8824,-445.615 61.6921,-443.994"/>
</g>
<!-- Node19 -->
<g id="node19" class="node"><title>Node19</title>
<g id="a_node19"><a xlink:href="classCConfigurableDomain.html#a647386b073c9dd776f9cd9dcb24088a7" target="_top" xlink:title="CConfigurableDomain\l::renameConfiguration">
<polygon fill="white" stroke="black" points="177,-557.5 177,-587.5 301,-587.5 301,-557.5 177,-557.5"/>
<text text-anchor="start" x="185" y="-575.5" font-family="Verdana" font-size="10.00">CConfigurableDomain</text>
<text text-anchor="middle" x="239" y="-564.5" font-family="Verdana" font-size="10.00">::renameConfiguration</text>
</a>
</g>
</g>
<!-- Node1&#45;&gt;Node19 -->
<g id="edge18" class="edge"><title>Node1&#45;&gt;Node19</title>
<path fill="none" stroke="midnightblue" d="M62.3296,-444.554C75.2911,-471.904 102.922,-521.916 142,-548.5 152.369,-555.554 164.631,-560.537 176.862,-564.056"/>
<polygon fill="midnightblue" stroke="midnightblue" points="65.4291,-442.916 58.087,-435.278 59.0633,-445.828 65.4291,-442.916"/>
</g>
<!-- Node22 -->
<g id="node22" class="node"><title>Node22</title>
<g id="a_node22"><a xlink:href="classCConfigurableDomain.html#aa9e776e80956f8cc956b77213aae96ec" target="_top" xlink:title="CConfigurableDomain\l::restoreConfiguration">
<polygon fill="white" stroke="black" points="178.5,-508.5 178.5,-538.5 299.5,-538.5 299.5,-508.5 178.5,-508.5"/>
<text text-anchor="start" x="186.5" y="-526.5" font-family="Verdana" font-size="10.00">CConfigurableDomain</text>
<text text-anchor="middle" x="239" y="-515.5" font-family="Verdana" font-size="10.00">::restoreConfiguration</text>
</a>
</g>
</g>
<!-- Node1&#45;&gt;Node22 -->
<g id="edge21" class="edge"><title>Node1&#45;&gt;Node22</title>
<path fill="none" stroke="midnightblue" d="M69.6273,-442.564C86.0516,-459.479 113.43,-484.912 142,-499.5 153.246,-505.242 165.948,-509.665 178.342,-513.054"/>
<polygon fill="midnightblue" stroke="midnightblue" points="71.9063,-439.881 62.4871,-435.03 66.8255,-444.696 71.9063,-439.881"/>
</g>
<!-- Node25 -->
<g id="node25" class="node"><title>Node25</title>
<g id="a_node25"><a xlink:href="classCConfigurableDomain.html#a7656ea4134ae47e8a19e1565c16323f0" target="_top" xlink:title="CConfigurableDomain\l::saveConfiguration">
<polygon fill="white" stroke="black" points="178.5,-459.5 178.5,-489.5 299.5,-489.5 299.5,-459.5 178.5,-459.5"/>
<text text-anchor="start" x="186.5" y="-477.5" font-family="Verdana" font-size="10.00">CConfigurableDomain</text>
<text text-anchor="middle" x="239" y="-466.5" font-family="Verdana" font-size="10.00">::saveConfiguration</text>
</a>
</g>
</g>
<!-- Node1&#45;&gt;Node25 -->
<g id="edge24" class="edge"><title>Node1&#45;&gt;Node25</title>
<path fill="none" stroke="midnightblue" d="M96.2234,-437.79C110.709,-441.928 127.039,-446.506 142,-450.5 153.702,-453.624 166.239,-456.848 178.264,-459.879"/>
<polygon fill="midnightblue" stroke="midnightblue" points="97.1065,-434.402 86.529,-435.008 95.1757,-441.131 97.1065,-434.402"/>
</g>
<!-- Node28 -->
<g id="node28" class="node"><title>Node28</title>
<g id="a_node28"><a xlink:href="classCConfigurableDomains.html#a879368ed109dc1a906205f8324d05d81" target="_top" xlink:title="Domains. ">
<polygon fill="white" stroke="black" points="176,-410.5 176,-440.5 302,-440.5 302,-410.5 176,-410.5"/>
<text text-anchor="start" x="184" y="-428.5" font-family="Verdana" font-size="10.00">CConfigurableDomains</text>
<text text-anchor="middle" x="239" y="-417.5" font-family="Verdana" font-size="10.00">::createDomain</text>
</a>
</g>
</g>
<!-- Node1&#45;&gt;Node28 -->
<g id="edge27" class="edge"><title>Node1&#45;&gt;Node28</title>
<path fill="none" stroke="midnightblue" d="M116.372,-425.5C135.561,-425.5 156.676,-425.5 175.85,-425.5"/>
<polygon fill="midnightblue" stroke="midnightblue" points="116.235,-422 106.235,-425.5 116.235,-429 116.235,-422"/>
</g>
<!-- Node30 -->
<g id="node30" class="node"><title>Node30</title>
<g id="a_node30"><a xlink:href="classCConfigurableDomains.html#a35d3b509ee35cb374fc7a2d1b678c203" target="_top" xlink:title="CConfigurableDomains\l::addDomain">
<polygon fill="white" stroke="black" points="176,-361.5 176,-391.5 302,-391.5 302,-361.5 176,-361.5"/>
<text text-anchor="start" x="184" y="-379.5" font-family="Verdana" font-size="10.00">CConfigurableDomains</text>
<text text-anchor="middle" x="239" y="-368.5" font-family="Verdana" font-size="10.00">::addDomain</text>
</a>
</g>
</g>
<!-- Node1&#45;&gt;Node30 -->
<g id="edge29" class="edge"><title>Node1&#45;&gt;Node30</title>
<path fill="none" stroke="midnightblue" d="M98.4976,-413.258C112.419,-409.456 127.84,-405.274 142,-401.5 154.231,-398.24 167.353,-394.791 179.845,-391.53"/>
<polygon fill="midnightblue" stroke="midnightblue" points="97.3878,-409.932 88.6657,-415.947 99.2348,-416.684 97.3878,-409.932"/>
</g>
<!-- Node31 -->
<g id="node31" class="node"><title>Node31</title>
<g id="a_node31"><a xlink:href="classCConfigurableDomains.html#a4fc3d6b09acd45d1d94f9191b01bf4c0" target="_top" xlink:title="CConfigurableDomains\l::deleteAllDomains">
<polygon fill="white" stroke="black" points="176,-312.5 176,-342.5 302,-342.5 302,-312.5 176,-312.5"/>
<text text-anchor="start" x="184" y="-330.5" font-family="Verdana" font-size="10.00">CConfigurableDomains</text>
<text text-anchor="middle" x="239" y="-319.5" font-family="Verdana" font-size="10.00">::deleteAllDomains</text>
</a>
</g>
</g>
<!-- Node1&#45;&gt;Node31 -->
<g id="edge30" class="edge"><title>Node1&#45;&gt;Node31</title>
<path fill="none" stroke="midnightblue" d="M69.9682,-408.465C86.4802,-391.832 113.763,-366.972 142,-352.5 152.499,-347.119 164.252,-342.828 175.838,-339.428"/>
<polygon fill="midnightblue" stroke="midnightblue" points="67.2191,-406.272 62.7706,-415.888 72.2446,-411.145 67.2191,-406.272"/>
</g>
<!-- Node33 -->
<g id="node33" class="node"><title>Node33</title>
<g id="a_node33"><a xlink:href="classCConfigurableDomains.html#a5191495863bf95f1fc3beb545b410269" target="_top" xlink:title="CConfigurableDomains\l::renameDomain">
<polygon fill="white" stroke="black" points="176,-263.5 176,-293.5 302,-293.5 302,-263.5 176,-263.5"/>
<text text-anchor="start" x="184" y="-281.5" font-family="Verdana" font-size="10.00">CConfigurableDomains</text>
<text text-anchor="middle" x="239" y="-270.5" font-family="Verdana" font-size="10.00">::renameDomain</text>
</a>
</g>
</g>
<!-- Node1&#45;&gt;Node33 -->
<g id="edge32" class="edge"><title>Node1&#45;&gt;Node33</title>
<path fill="none" stroke="midnightblue" d="M62.4058,-406.65C75.4622,-379.585 103.211,-330.056 142,-303.5 152.09,-296.592 163.967,-291.593 175.865,-287.975"/>
<polygon fill="midnightblue" stroke="midnightblue" points="59.1801,-405.286 58.1288,-415.829 65.5251,-408.243 59.1801,-405.286"/>
</g>
<!-- Node35 -->
<g id="node35" class="node"><title>Node35</title>
<g id="a_node35"><a xlink:href="classCConfigurableDomains.html#a181ae71432b21ee3fedb82abb05872e3" target="_top" xlink:title="CConfigurableDomains\l::findConfigurationBlackboard">
<polygon fill="white" stroke="black" points="160.5,-214.5 160.5,-244.5 317.5,-244.5 317.5,-214.5 160.5,-214.5"/>
<text text-anchor="start" x="168.5" y="-232.5" font-family="Verdana" font-size="10.00">CConfigurableDomains</text>
<text text-anchor="middle" x="239" y="-221.5" font-family="Verdana" font-size="10.00">::findConfigurationBlackboard</text>
</a>
</g>
</g>
<!-- Node1&#45;&gt;Node35 -->
<g id="edge34" class="edge"><title>Node1&#45;&gt;Node35</title>
<path fill="none" stroke="midnightblue" d="M58.4792,-405.857C67.6788,-370.101 92.162,-294.403 142,-254.5 147.512,-250.087 153.721,-246.446 160.262,-243.443"/>
<polygon fill="midnightblue" stroke="midnightblue" points="55.0753,-405.043 56.1037,-415.588 61.8756,-406.703 55.0753,-405.043"/>
</g>
<!-- Node36 -->
<g id="node36" class="node"><title>Node36</title>
<g id="a_node36"><a xlink:href="classCParameterMgr.html#a25055f536c2d537e86852c87a4e1a061" target="_top" xlink:title="CParameterMgr::accessConfiguration\lValue">
<polygon fill="white" stroke="black" points="372,-192.5 372,-222.5 566,-222.5 566,-192.5 372,-192.5"/>
<text text-anchor="start" x="380" y="-210.5" font-family="Verdana" font-size="10.00">CParameterMgr::accessConfiguration</text>
<text text-anchor="middle" x="469" y="-199.5" font-family="Verdana" font-size="10.00">Value</text>
</a>
</g>
</g>
<!-- Node1&#45;&gt;Node36 -->
<g id="edge36" class="edge"><title>Node1&#45;&gt;Node36</title>
<path fill="none" stroke="midnightblue" d="M54.9824,-405.512C58.4,-360.546 73.6872,-251.75 142,-205.5 227.064,-147.909 355.377,-172.986 422.855,-192.458"/>
<polygon fill="midnightblue" stroke="midnightblue" points="51.475,-405.518 54.3326,-415.72 58.4609,-405.963 51.475,-405.518"/>
</g>
<!-- Node37 -->
<g id="node37" class="node"><title>Node37</title>
<g id="a_node37"><a xlink:href="classCSelectionCriterion.html#a83e33a27a1094e00154018756c0be2dc" target="_top" xlink:title="From ISelectionCriterionInterface. ">
<polygon fill="white" stroke="black" points="185,-126.5 185,-156.5 293,-156.5 293,-126.5 185,-126.5"/>
<text text-anchor="start" x="193" y="-144.5" font-family="Verdana" font-size="10.00">CSelectionCriterion</text>
<text text-anchor="middle" x="239" y="-133.5" font-family="Verdana" font-size="10.00">::setCriterionState</text>
</a>
</g>
</g>
<!-- Node1&#45;&gt;Node37 -->
<g id="edge37" class="edge"><title>Node1&#45;&gt;Node37</title>
<path fill="none" stroke="midnightblue" d="M55.0203,-405.674C58.5398,-358.263 74.0659,-237.384 142,-171.5 153.657,-160.194 169.514,-153.144 184.981,-148.749"/>
<polygon fill="midnightblue" stroke="midnightblue" points="51.5162,-405.629 54.372,-415.831 58.502,-406.075 51.5162,-405.629"/>
</g>
<!-- Node38 -->
<g id="node38" class="node"><title>Node38</title>
<g id="a_node38"><a xlink:href="classCSubsystemObject.html#afafd3523cccf6d37248116fb71ec0904" target="_top" xlink:title="CSubsystemObject::log_info">
<polygon fill="white" stroke="black" points="163.5,-88 163.5,-107 314.5,-107 314.5,-88 163.5,-88"/>
<text text-anchor="middle" x="239" y="-95" font-family="Verdana" font-size="10.00">CSubsystemObject::log_info</text>
</a>
</g>
</g>
<!-- Node1&#45;&gt;Node38 -->
<g id="edge38" class="edge"><title>Node1&#45;&gt;Node38</title>
<path fill="none" stroke="midnightblue" d="M53.196,-405.902C52.1046,-351.338 57.0123,-196.507 142,-117.5 148.11,-111.82 155.398,-107.582 163.189,-104.442"/>
<polygon fill="midnightblue" stroke="midnightblue" points="49.6992,-406.068 53.4932,-415.96 56.6962,-405.861 49.6992,-406.068"/>
</g>
<!-- Node39 -->
<g id="node39" class="node"><title>Node39</title>
<g id="a_node39"><a xlink:href="classCSystemClass.html#a3264a476e689e33f8c30c6596e3f0d16" target="_top" xlink:title="Load subsystem plugin and fill the corresponding libraries. ">
<polygon fill="white" stroke="black" points="153.5,-50 153.5,-69 324.5,-69 324.5,-50 153.5,-50"/>
<text text-anchor="middle" x="239" y="-57" font-family="Verdana" font-size="10.00">CSystemClass::loadSubsystems</text>
</a>
</g>
</g>
<!-- Node1&#45;&gt;Node39 -->
<g id="edge39" class="edge"><title>Node1&#45;&gt;Node39</title>
<path fill="none" stroke="midnightblue" d="M56.2587,-405.683C64.2586,-339.035 93.4028,-124.589 142,-78.5 145.945,-74.7588 150.403,-71.656 155.186,-69.0905"/>
<polygon fill="midnightblue" stroke="midnightblue" points="52.7721,-405.365 55.0829,-415.704 59.7244,-406.18 52.7721,-405.365"/>
</g>
<!-- Node40 -->
<g id="node40" class="node"><title>Node40</title>
<g id="a_node40"><a xlink:href="classCSystemClass.html#ab71ea33fad4ce8978ad2577314146fec" target="_top" xlink:title="Look for subsystems that need to be resynchronized. ">
<polygon fill="white" stroke="black" points="142,-0.5 142,-30.5 336,-30.5 336,-0.5 142,-0.5"/>
<text text-anchor="start" x="150" y="-18.5" font-family="Verdana" font-size="10.00">CSystemClass::checkForSubsystems</text>
<text text-anchor="middle" x="239" y="-7.5" font-family="Verdana" font-size="10.00">ToResync</text>
</a>
</g>
</g>
<!-- Node1&#45;&gt;Node40 -->
<g id="edge40" class="edge"><title>Node1&#45;&gt;Node40</title>
<path fill="none" stroke="midnightblue" d="M55.859,-405.526C62.8856,-334.275 90.0982,-93.9852 142,-40.5 145.718,-36.6685 149.943,-33.3983 154.499,-30.6097"/>
<polygon fill="midnightblue" stroke="midnightblue" points="52.3451,-405.504 54.8723,-415.793 59.313,-406.173 52.3451,-405.504"/>
</g>
<!-- Node3 -->
<g id="node3" class="node"><title>Node3</title>
<g id="a_node3"><a xlink:href="classCConfigurableDomains.html#aa41f38a45f556c4b6c3c80609d8ad2b1" target="_top" xlink:title="CConfigurableDomains\l::setSequenceAwareness">
<polygon fill="white" stroke="black" points="400.5,-861.5 400.5,-891.5 537.5,-891.5 537.5,-861.5 400.5,-861.5"/>
<text text-anchor="start" x="408.5" y="-879.5" font-family="Verdana" font-size="10.00">CConfigurableDomains</text>
<text text-anchor="middle" x="469" y="-868.5" font-family="Verdana" font-size="10.00">::setSequenceAwareness</text>
</a>
</g>
</g>
<!-- Node2&#45;&gt;Node3 -->
<g id="edge2" class="edge"><title>Node2&#45;&gt;Node3</title>
<path fill="none" stroke="midnightblue" d="M317.912,-875.183C344.74,-875.419 374.541,-875.68 400.471,-875.908"/>
<polygon fill="midnightblue" stroke="midnightblue" points="317.821,-871.683 307.79,-875.095 317.759,-878.682 317.821,-871.683"/>
</g>
<!-- Node4 -->
<g id="node4" class="node"><title>Node4</title>
<g id="a_node4"><a xlink:href="classCParameterMgr.html#a8392607ed686806362c9a8882a471553" target="_top" xlink:title="CParameterMgr::setSequence\lAwareness">
<polygon fill="white" stroke="black" points="621,-861.5 621,-891.5 782,-891.5 782,-861.5 621,-861.5"/>
<text text-anchor="start" x="629" y="-879.5" font-family="Verdana" font-size="10.00">CParameterMgr::setSequence</text>
<text text-anchor="middle" x="701.5" y="-868.5" font-family="Verdana" font-size="10.00">Awareness</text>
</a>
</g>
</g>
<!-- Node3&#45;&gt;Node4 -->
<g id="edge3" class="edge"><title>Node3&#45;&gt;Node4</title>
<path fill="none" stroke="midnightblue" d="M547.851,-876.5C571.316,-876.5 597.102,-876.5 620.693,-876.5"/>
<polygon fill="midnightblue" stroke="midnightblue" points="547.6,-873 537.6,-876.5 547.6,-880 547.6,-873"/>
</g>
<!-- Node6 -->
<g id="node6" class="node"><title>Node6</title>
<g id="a_node6"><a xlink:href="classCConfigurableDomains.html#ac5e3f505c51b2b016614aa460597fd59" target="_top" xlink:title="CConfigurableDomains\l::removeConfigurableElement\lFromDomain">
<polygon fill="white" stroke="black" points="389.5,-802 389.5,-843 548.5,-843 548.5,-802 389.5,-802"/>
<text text-anchor="start" x="397.5" y="-831" font-family="Verdana" font-size="10.00">CConfigurableDomains</text>
<text text-anchor="start" x="397.5" y="-820" font-family="Verdana" font-size="10.00">::removeConfigurableElement</text>
<text text-anchor="middle" x="469" y="-809" font-family="Verdana" font-size="10.00">FromDomain</text>
</a>
</g>
</g>
<!-- Node5&#45;&gt;Node6 -->
<g id="edge5" class="edge"><title>Node5&#45;&gt;Node6</title>
<path fill="none" stroke="midnightblue" d="M329.053,-821.281C348.902,-821.455 369.812,-821.639 389.213,-821.809"/>
<polygon fill="midnightblue" stroke="midnightblue" points="328.814,-817.779 318.784,-821.191 328.753,-824.779 328.814,-817.779"/>
</g>
<!-- Node7 -->
<g id="node7" class="node"><title>Node7</title>
<g id="a_node7"><a xlink:href="classCParameterMgr.html#a4f307490c67f2dde0b08e638500dd5d4" target="_top" xlink:title="CParameterMgr::removeConfigurable\lElementFromDomain">
<polygon fill="white" stroke="black" points="604.5,-807.5 604.5,-837.5 798.5,-837.5 798.5,-807.5 604.5,-807.5"/>
<text text-anchor="start" x="612.5" y="-825.5" font-family="Verdana" font-size="10.00">CParameterMgr::removeConfigurable</text>
<text text-anchor="middle" x="701.5" y="-814.5" font-family="Verdana" font-size="10.00">ElementFromDomain</text>
</a>
</g>
</g>
<!-- Node6&#45;&gt;Node7 -->
<g id="edge6" class="edge"><title>Node6&#45;&gt;Node7</title>
<path fill="none" stroke="midnightblue" d="M558.856,-822.5C573.715,-822.5 589.193,-822.5 604.227,-822.5"/>
<polygon fill="midnightblue" stroke="midnightblue" points="558.68,-819 548.68,-822.5 558.68,-826 558.68,-819"/>
</g>
<!-- Node9 -->
<g id="node9" class="node"><title>Node9</title>
<g id="a_node9"><a xlink:href="classCConfigurableDomains.html#ae01182802f0ce424d239ea19f9365330" target="_top" xlink:title="CConfigurableDomains\l::split">
<polygon fill="white" stroke="black" points="406,-753.5 406,-783.5 532,-783.5 532,-753.5 406,-753.5"/>
<text text-anchor="start" x="414" y="-771.5" font-family="Verdana" font-size="10.00">CConfigurableDomains</text>
<text text-anchor="middle" x="469" y="-760.5" font-family="Verdana" font-size="10.00">::split</text>
</a>
</g>
</g>
<!-- Node8&#45;&gt;Node9 -->
<g id="edge8" class="edge"><title>Node8&#45;&gt;Node9</title>
<path fill="none" stroke="midnightblue" d="M309.802,-768.5C340.484,-768.5 376.221,-768.5 405.957,-768.5"/>
<polygon fill="midnightblue" stroke="midnightblue" points="309.607,-765 299.607,-768.5 309.606,-772 309.607,-765"/>
</g>
<!-- Node10 -->
<g id="node10" class="node"><title>Node10</title>
<g id="a_node10"><a xlink:href="classCParameterMgr.html#a042735242f31241743085d2d9d7edcc5" target="_top" xlink:title="CParameterMgr::split">
<polygon fill="white" stroke="black" points="643,-759 643,-778 760,-778 760,-759 643,-759"/>
<text text-anchor="middle" x="701.5" y="-766" font-family="Verdana" font-size="10.00">CParameterMgr::split</text>
</a>
</g>
</g>
<!-- Node9&#45;&gt;Node10 -->
<g id="edge9" class="edge"><title>Node9&#45;&gt;Node10</title>
<path fill="none" stroke="midnightblue" d="M542.368,-768.5C574.692,-768.5 612.264,-768.5 642.673,-768.5"/>
<polygon fill="midnightblue" stroke="midnightblue" points="542.073,-765 532.073,-768.5 542.073,-772 542.073,-765"/>
</g>
<!-- Node12 -->
<g id="node12" class="node"><title>Node12</title>
<g id="a_node12"><a xlink:href="classCConfigurableDomains.html#ab8f2aa74fe0ed3e98fa052587d6c417d" target="_top" xlink:title="CConfigurableDomains\l::apply">
<polygon fill="white" stroke="black" points="406,-704.5 406,-734.5 532,-734.5 532,-704.5 406,-704.5"/>
<text text-anchor="start" x="414" y="-722.5" font-family="Verdana" font-size="10.00">CConfigurableDomains</text>
<text text-anchor="middle" x="469" y="-711.5" font-family="Verdana" font-size="10.00">::apply</text>
</a>
</g>
</g>
<!-- Node11&#45;&gt;Node12 -->
<g id="edge11" class="edge"><title>Node11&#45;&gt;Node12</title>
<path fill="none" stroke="midnightblue" d="M309.802,-719.5C340.484,-719.5 376.221,-719.5 405.957,-719.5"/>
<polygon fill="midnightblue" stroke="midnightblue" points="309.607,-716 299.607,-719.5 309.606,-723 309.607,-716"/>
</g>
<!-- Node14 -->
<g id="node14" class="node"><title>Node14</title>
<g id="a_node14"><a xlink:href="classCConfigurableDomains.html#aa96eec13d9bdbb307e1dcfe6f057a685" target="_top" xlink:title="CConfigurableDomains\l::createConfiguration">
<polygon fill="white" stroke="black" points="406,-655.5 406,-685.5 532,-685.5 532,-655.5 406,-655.5"/>
<text text-anchor="start" x="414" y="-673.5" font-family="Verdana" font-size="10.00">CConfigurableDomains</text>
<text text-anchor="middle" x="469" y="-662.5" font-family="Verdana" font-size="10.00">::createConfiguration</text>
</a>
</g>
</g>
<!-- Node13&#45;&gt;Node14 -->
<g id="edge13" class="edge"><title>Node13&#45;&gt;Node14</title>
<path fill="none" stroke="midnightblue" d="M309.802,-670.5C340.484,-670.5 376.221,-670.5 405.957,-670.5"/>
<polygon fill="midnightblue" stroke="midnightblue" points="309.607,-667 299.607,-670.5 309.606,-674 309.607,-667"/>
</g>
<!-- Node15 -->
<g id="node15" class="node"><title>Node15</title>
<g id="a_node15"><a xlink:href="classCParameterMgr.html#ad60e8abcd5881a2833d24c3a531e16f0" target="_top" xlink:title="CParameterMgr::createConfiguration">
<polygon fill="white" stroke="black" points="605.5,-661 605.5,-680 797.5,-680 797.5,-661 605.5,-661"/>
<text text-anchor="middle" x="701.5" y="-668" font-family="Verdana" font-size="10.00">CParameterMgr::createConfiguration</text>
</a>
</g>
</g>
<!-- Node14&#45;&gt;Node15 -->
<g id="edge14" class="edge"><title>Node14&#45;&gt;Node15</title>
<path fill="none" stroke="midnightblue" d="M542.322,-670.5C562.301,-670.5 584.288,-670.5 605.35,-670.5"/>
<polygon fill="midnightblue" stroke="midnightblue" points="542.073,-667 532.073,-670.5 542.073,-674 542.073,-667"/>
</g>
<!-- Node17 -->
<g id="node17" class="node"><title>Node17</title>
<g id="a_node17"><a xlink:href="classCConfigurableDomains.html#a911e0a0a3af2b8cfb630edb899038bbe" target="_top" xlink:title="CConfigurableDomains\l::deleteConfiguration">
<polygon fill="white" stroke="black" points="406,-606.5 406,-636.5 532,-636.5 532,-606.5 406,-606.5"/>
<text text-anchor="start" x="414" y="-624.5" font-family="Verdana" font-size="10.00">CConfigurableDomains</text>
<text text-anchor="middle" x="469" y="-613.5" font-family="Verdana" font-size="10.00">::deleteConfiguration</text>
</a>
</g>
</g>
<!-- Node16&#45;&gt;Node17 -->
<g id="edge16" class="edge"><title>Node16&#45;&gt;Node17</title>
<path fill="none" stroke="midnightblue" d="M309.802,-621.5C340.484,-621.5 376.221,-621.5 405.957,-621.5"/>
<polygon fill="midnightblue" stroke="midnightblue" points="309.607,-618 299.607,-621.5 309.606,-625 309.607,-618"/>
</g>
<!-- Node18 -->
<g id="node18" class="node"><title>Node18</title>
<g id="a_node18"><a xlink:href="classCParameterMgr.html#a1bb4638a89187ef50cf3a1aaea566244" target="_top" xlink:title="CParameterMgr::deleteConfiguration">
<polygon fill="white" stroke="black" points="606,-612 606,-631 797,-631 797,-612 606,-612"/>
<text text-anchor="middle" x="701.5" y="-619" font-family="Verdana" font-size="10.00">CParameterMgr::deleteConfiguration</text>
</a>
</g>
</g>
<!-- Node17&#45;&gt;Node18 -->
<g id="edge17" class="edge"><title>Node17&#45;&gt;Node18</title>
<path fill="none" stroke="midnightblue" d="M542.107,-621.5C562.282,-621.5 584.518,-621.5 605.789,-621.5"/>
<polygon fill="midnightblue" stroke="midnightblue" points="542.073,-618 532.073,-621.5 542.073,-625 542.073,-618"/>
</g>
<!-- Node20 -->
<g id="node20" class="node"><title>Node20</title>
<g id="a_node20"><a xlink:href="classCConfigurableDomains.html#a052bfda8fb27ff5a1eeb0a53444031e8" target="_top" xlink:title="CConfigurableDomains\l::renameConfiguration">
<polygon fill="white" stroke="black" points="406,-557.5 406,-587.5 532,-587.5 532,-557.5 406,-557.5"/>
<text text-anchor="start" x="414" y="-575.5" font-family="Verdana" font-size="10.00">CConfigurableDomains</text>
<text text-anchor="middle" x="469" y="-564.5" font-family="Verdana" font-size="10.00">::renameConfiguration</text>
</a>
</g>
</g>
<!-- Node19&#45;&gt;Node20 -->
<g id="edge19" class="edge"><title>Node19&#45;&gt;Node20</title>
<path fill="none" stroke="midnightblue" d="M311.199,-572.5C341.558,-572.5 376.656,-572.5 405.938,-572.5"/>
<polygon fill="midnightblue" stroke="midnightblue" points="311.1,-569 301.1,-572.5 311.1,-576 311.1,-569"/>
</g>
<!-- Node21 -->
<g id="node21" class="node"><title>Node21</title>
<g id="a_node21"><a xlink:href="classCParameterMgr.html#af73dc2735e178eb3571400b76172b03e" target="_top" xlink:title="CParameterMgr::renameConfiguration">
<polygon fill="white" stroke="black" points="602,-563 602,-582 801,-582 801,-563 602,-563"/>
<text text-anchor="middle" x="701.5" y="-570" font-family="Verdana" font-size="10.00">CParameterMgr::renameConfiguration</text>
</a>
</g>
</g>
<!-- Node20&#45;&gt;Node21 -->
<g id="edge20" class="edge"><title>Node20&#45;&gt;Node21</title>
<path fill="none" stroke="midnightblue" d="M542.09,-572.5C561.02,-572.5 581.767,-572.5 601.83,-572.5"/>
<polygon fill="midnightblue" stroke="midnightblue" points="542.073,-569 532.073,-572.5 542.073,-576 542.073,-569"/>
</g>
<!-- Node23 -->
<g id="node23" class="node"><title>Node23</title>
<g id="a_node23"><a xlink:href="classCConfigurableDomains.html#a9fa62075b2521f79af18240367662cc7" target="_top" xlink:title="CConfigurableDomains\l::restoreConfiguration">
<polygon fill="white" stroke="black" points="406,-508.5 406,-538.5 532,-538.5 532,-508.5 406,-508.5"/>
<text text-anchor="start" x="414" y="-526.5" font-family="Verdana" font-size="10.00">CConfigurableDomains</text>
<text text-anchor="middle" x="469" y="-515.5" font-family="Verdana" font-size="10.00">::restoreConfiguration</text>
</a>
</g>
</g>
<!-- Node22&#45;&gt;Node23 -->
<g id="edge22" class="edge"><title>Node22&#45;&gt;Node23</title>
<path fill="none" stroke="midnightblue" d="M309.802,-523.5C340.484,-523.5 376.221,-523.5 405.957,-523.5"/>
<polygon fill="midnightblue" stroke="midnightblue" points="309.607,-520 299.607,-523.5 309.606,-527 309.607,-520"/>
</g>
<!-- Node24 -->
<g id="node24" class="node"><title>Node24</title>
<g id="a_node24"><a xlink:href="classCParameterMgr.html#a04786772b59275eef5f1af23dc9a639d" target="_top" xlink:title="CParameterMgr::restoreConfiguration">
<polygon fill="white" stroke="black" points="603.5,-514 603.5,-533 799.5,-533 799.5,-514 603.5,-514"/>
<text text-anchor="middle" x="701.5" y="-521" font-family="Verdana" font-size="10.00">CParameterMgr::restoreConfiguration</text>
</a>
</g>
</g>
<!-- Node23&#45;&gt;Node24 -->
<g id="edge23" class="edge"><title>Node23&#45;&gt;Node24</title>
<path fill="none" stroke="midnightblue" d="M542.28,-523.5C561.576,-523.5 582.747,-523.5 603.152,-523.5"/>
<polygon fill="midnightblue" stroke="midnightblue" points="542.073,-520 532.073,-523.5 542.073,-527 542.073,-520"/>
</g>
<!-- Node26 -->
<g id="node26" class="node"><title>Node26</title>
<g id="a_node26"><a xlink:href="classCConfigurableDomains.html#a1be81268a7220733d7aed82e75e8253c" target="_top" xlink:title="CConfigurableDomains\l::saveConfiguration">
<polygon fill="white" stroke="black" points="406,-459.5 406,-489.5 532,-489.5 532,-459.5 406,-459.5"/>
<text text-anchor="start" x="414" y="-477.5" font-family="Verdana" font-size="10.00">CConfigurableDomains</text>
<text text-anchor="middle" x="469" y="-466.5" font-family="Verdana" font-size="10.00">::saveConfiguration</text>
</a>
</g>
</g>
<!-- Node25&#45;&gt;Node26 -->
<g id="edge25" class="edge"><title>Node25&#45;&gt;Node26</title>
<path fill="none" stroke="midnightblue" d="M309.802,-474.5C340.484,-474.5 376.221,-474.5 405.957,-474.5"/>
<polygon fill="midnightblue" stroke="midnightblue" points="309.607,-471 299.607,-474.5 309.606,-478 309.607,-471"/>
</g>
<!-- Node27 -->
<g id="node27" class="node"><title>Node27</title>
<g id="a_node27"><a xlink:href="classCParameterMgr.html#aabb760bc56ad6e76f32bf732005730cb" target="_top" xlink:title="CParameterMgr::saveConfiguration">
<polygon fill="white" stroke="black" points="609.5,-465 609.5,-484 793.5,-484 793.5,-465 609.5,-465"/>
<text text-anchor="middle" x="701.5" y="-472" font-family="Verdana" font-size="10.00">CParameterMgr::saveConfiguration</text>
</a>
</g>
</g>
<!-- Node26&#45;&gt;Node27 -->
<g id="edge26" class="edge"><title>Node26&#45;&gt;Node27</title>
<path fill="none" stroke="midnightblue" d="M542.299,-474.5C563.533,-474.5 587.038,-474.5 609.29,-474.5"/>
<polygon fill="midnightblue" stroke="midnightblue" points="542.073,-471 532.073,-474.5 542.073,-478 542.073,-471"/>
</g>
<!-- Node29 -->
<g id="node29" class="node"><title>Node29</title>
<g id="a_node29"><a xlink:href="classCParameterMgr.html#af7d24a3ef2e52fb2aee19e303092d696" target="_top" xlink:title="CParameterMgr::createDomain">
<polygon fill="white" stroke="black" points="386,-416 386,-435 552,-435 552,-416 386,-416"/>
<text text-anchor="middle" x="469" y="-423" font-family="Verdana" font-size="10.00">CParameterMgr::createDomain</text>
</a>
</g>
</g>
<!-- Node28&#45;&gt;Node29 -->
<g id="edge28" class="edge"><title>Node28&#45;&gt;Node29</title>
<path fill="none" stroke="midnightblue" d="M312.207,-425.5C335.635,-425.5 361.796,-425.5 385.891,-425.5"/>
<polygon fill="midnightblue" stroke="midnightblue" points="312.001,-422 302.001,-425.5 312.001,-429 312.001,-422"/>
</g>
<!-- Node32 -->
<g id="node32" class="node"><title>Node32</title>
<g id="a_node32"><a xlink:href="classCParameterMgr.html#a927c41273e23d3303f456d3c01907391" target="_top" xlink:title="CParameterMgr::deleteAll\lDomains">
<polygon fill="white" stroke="black" points="399.5,-312.5 399.5,-342.5 538.5,-342.5 538.5,-312.5 399.5,-312.5"/>
<text text-anchor="start" x="407.5" y="-330.5" font-family="Verdana" font-size="10.00">CParameterMgr::deleteAll</text>
<text text-anchor="middle" x="469" y="-319.5" font-family="Verdana" font-size="10.00">Domains</text>
</a>
</g>
</g>
<!-- Node31&#45;&gt;Node32 -->
<g id="edge31" class="edge"><title>Node31&#45;&gt;Node32</title>
<path fill="none" stroke="midnightblue" d="M312.071,-327.5C339.923,-327.5 371.654,-327.5 399.189,-327.5"/>
<polygon fill="midnightblue" stroke="midnightblue" points="312.001,-324 302.001,-327.5 312.001,-331 312.001,-324"/>
</g>
<!-- Node34 -->
<g id="node34" class="node"><title>Node34</title>
<g id="a_node34"><a xlink:href="classCParameterMgr.html#a7d8898361dc42076dccb72489e3e7a43" target="_top" xlink:title="CParameterMgr::renameDomain">
<polygon fill="white" stroke="black" points="382.5,-269 382.5,-288 555.5,-288 555.5,-269 382.5,-269"/>
<text text-anchor="middle" x="469" y="-276" font-family="Verdana" font-size="10.00">CParameterMgr::renameDomain</text>
</a>
</g>
</g>
<!-- Node33&#45;&gt;Node34 -->
<g id="edge33" class="edge"><title>Node33&#45;&gt;Node34</title>
<path fill="none" stroke="midnightblue" d="M312.084,-278.5C334.446,-278.5 359.308,-278.5 382.491,-278.5"/>
<polygon fill="midnightblue" stroke="midnightblue" points="312.001,-275 302.001,-278.5 312.001,-282 312.001,-275"/>
</g>
<!-- Node35&#45;&gt;Node36 -->
<g id="edge35" class="edge"><title>Node35&#45;&gt;Node36</title>
<path fill="none" stroke="midnightblue" d="M327.852,-221.023C342.218,-219.637 357.17,-218.194 371.726,-216.79"/>
<polygon fill="midnightblue" stroke="midnightblue" points="327.126,-217.577 317.509,-222.021 327.799,-224.544 327.126,-217.577"/>
</g>
</g>
</svg>
