<?xml version="1.0" encoding="UTF-8" standalone="no"?>
<!DOCTYPE svg PUBLIC "-//W3C//DTD SVG 1.1//EN"
 "http://www.w3.org/Graphics/SVG/1.1/DTD/svg11.dtd">
<!-- Generated by graphviz version 2.38.0 (20140413.2041)
 -->
<!-- Title: CXmlMemoryDocSource::populate Pages: 1 -->
<svg width="321pt" height="116pt"
 viewBox="0.00 0.00 321.00 115.50" xmlns="http://www.w3.org/2000/svg" xmlns:xlink="http://www.w3.org/1999/xlink">
<g id="graph0" class="graph" transform="scale(1 1) rotate(0) translate(4 111.5)">
<title>CXmlMemoryDocSource::populate</title>
<polygon fill="white" stroke="none" points="-4,4 -4,-111.5 317,-111.5 317,4 -4,4"/>
<!-- Node1 -->
<g id="node1" class="node"><title>Node1</title>
<polygon fill="#bfbfbf" stroke="black" points="0,-33 0,-63 133,-63 133,-33 0,-33"/>
<text text-anchor="start" x="8" y="-51" font-family="Verdana" font-size="10.00">CXmlMemoryDocSource</text>
<text text-anchor="middle" x="66.5" y="-40" font-family="Verdana" font-size="10.00">::populate</text>
</g>
<!-- Node2 -->
<g id="node2" class="node"><title>Node2</title>
<g id="a_node2"><a xlink:href="classutility_1_1ErrorContext.html#afc2e1af8c4a81e36e5013bf31127c15f" target="_top" xlink:title="utility::ErrorContext\l::setError">
<polygon fill="white" stroke="black" points="187,-77 187,-107 295,-107 295,-77 187,-77"/>
<text text-anchor="start" x="195" y="-95" font-family="Verdana" font-size="10.00">utility::ErrorContext</text>
<text text-anchor="middle" x="241" y="-84" font-family="Verdana" font-size="10.00">::setError</text>
</a>
</g>
</g>
<!-- Node1&#45;&gt;Node2 -->
<g id="edge1" class="edge"><title>Node1&#45;&gt;Node2</title>
<path fill="none" stroke="midnightblue" d="M126.382,-63.0192C142.628,-67.1632 160.32,-71.6757 176.799,-75.8792"/>
<polygon fill="midnightblue" stroke="midnightblue" points="176.325,-79.3703 186.88,-78.4505 178.055,-72.5875 176.325,-79.3703"/>
</g>
<!-- Node3 -->
<g id="node3" class="node"><title>Node3</title>
<g id="a_node3"><a xlink:href="classCXmlElement.html#ac5f4a8f3f29497167af496dccb7fa846" target="_top" xlink:title="Set attribute. ">
<polygon fill="white" stroke="black" points="169,-38.5 169,-57.5 313,-57.5 313,-38.5 169,-38.5"/>
<text text-anchor="middle" x="241" y="-45.5" font-family="Verdana" font-size="10.00">CXmlElement::setAttribute</text>
</a>
</g>
</g>
<!-- Node1&#45;&gt;Node3 -->
<g id="edge2" class="edge"><title>Node1&#45;&gt;Node3</title>
<path fill="none" stroke="midnightblue" d="M133.207,-48C141.465,-48 149.99,-48 158.454,-48"/>
<polygon fill="midnightblue" stroke="midnightblue" points="158.727,-51.5001 168.727,-48 158.727,-44.5001 158.727,-51.5001"/>
</g>
<!-- Node4 -->
<g id="node4" class="node"><title>Node4</title>
<g id="a_node4"><a xlink:href="classIXmlSource.html#a8155e8851c2da0171da235020a720f8a" target="_top" xlink:title="IXmlSource::toXml">
<polygon fill="white" stroke="black" points="189,-0.5 189,-19.5 293,-19.5 293,-0.5 189,-0.5"/>
<text text-anchor="middle" x="241" y="-7.5" font-family="Verdana" font-size="10.00">IXmlSource::toXml</text>
</a>
</g>
</g>
<!-- Node1&#45;&gt;Node4 -->
<g id="edge3" class="edge"><title>Node1&#45;&gt;Node4</title>
<path fill="none" stroke="midnightblue" d="M133.207,-33.5254C150.79,-29.6521 169.582,-25.5123 186.424,-21.8022"/>
<polygon fill="midnightblue" stroke="midnightblue" points="187.617,-25.1234 196.63,-19.5539 186.111,-18.2873 187.617,-25.1234"/>
</g>
</g>
</svg>
