<?xml version="1.0" encoding="UTF-8" standalone="no"?>
<!DOCTYPE svg PUBLIC "-//W3C//DTD SVG 1.1//EN"
 "http://www.w3.org/Graphics/SVG/1.1/DTD/svg11.dtd">
<!-- Generated by graphviz version 2.38.0 (20140413.2041)
 -->
<!-- Title: CXmlElement::getParentElement Pages: 1 -->
<svg width="1090pt" height="574pt"
 viewBox="0.00 0.00 1090.00 574.00" xmlns="http://www.w3.org/2000/svg" xmlns:xlink="http://www.w3.org/1999/xlink">
<g id="graph0" class="graph" transform="scale(1 1) rotate(0) translate(4 570)">
<title>CXmlElement::getParentElement</title>
<polygon fill="white" stroke="none" points="-4,4 -4,-570 1086,-570 1086,4 -4,4"/>
<!-- Node1 -->
<g id="node1" class="node"><title>Node1</title>
<polygon fill="#bfbfbf" stroke="black" points="0,-290 0,-309 173,-309 173,-290 0,-290"/>
<text text-anchor="middle" x="86.5" y="-297" font-family="Verdana" font-size="10.00">CXmlElement::getParentElement</text>
</g>
<!-- Node2 -->
<g id="node2" class="node"><title>Node2</title>
<g id="a_node2"><a xlink:href="classCXmlElement.html#ac47c56a3cad8ac7d1fe7579e833227c5" target="_top" xlink:title="CXmlElement::getPath">
<polygon fill="white" stroke="black" points="209,-290 209,-309 333,-309 333,-290 209,-290"/>
<text text-anchor="middle" x="271" y="-297" font-family="Verdana" font-size="10.00">CXmlElement::getPath</text>
</a>
</g>
</g>
<!-- Node1&#45;&gt;Node2 -->
<g id="edge1" class="edge"><title>Node1&#45;&gt;Node2</title>
<path fill="none" stroke="midnightblue" d="M183.31,-299.5C191.968,-299.5 200.571,-299.5 208.807,-299.5"/>
<polygon fill="midnightblue" stroke="midnightblue" points="183.139,-296 173.139,-299.5 183.139,-303 183.139,-296"/>
</g>
<!-- Node2&#45;&gt;Node2 -->
<g id="edge23" class="edge"><title>Node2&#45;&gt;Node2</title>
<path fill="none" stroke="midnightblue" d="M236.517,-317.391C237.022,-323.041 248.517,-327.5 271,-327.5 303.703,-327.5 313.156,-318.065 299.36,-309.257"/>
<polygon fill="midnightblue" stroke="midnightblue" points="239.423,-319.351 242.64,-309.257 233.83,-315.142 239.423,-319.351"/>
</g>
<!-- Node3 -->
<g id="node3" class="node"><title>Node3</title>
<g id="a_node3"><a xlink:href="classCComponentInstance.html#a1943a2510a8a326f0fedd9cc8f07b193" target="_top" xlink:title="CComponentInstance\l::fromXml">
<polygon fill="white" stroke="black" points="400,-535.5 400,-565.5 520,-565.5 520,-535.5 400,-535.5"/>
<text text-anchor="start" x="408" y="-553.5" font-family="Verdana" font-size="10.00">CComponentInstance</text>
<text text-anchor="middle" x="460" y="-542.5" font-family="Verdana" font-size="10.00">::fromXml</text>
</a>
</g>
</g>
<!-- Node2&#45;&gt;Node3 -->
<g id="edge2" class="edge"><title>Node2&#45;&gt;Node3</title>
<path fill="none" stroke="midnightblue" d="M274.703,-319.394C281.75,-363.378 304.817,-469.416 369,-525.5 377.792,-533.183 388.758,-538.522 399.979,-542.227"/>
<polygon fill="midnightblue" stroke="midnightblue" points="278.148,-318.766 273.21,-309.393 271.225,-319.8 278.148,-318.766"/>
</g>
<!-- Node4 -->
<g id="node4" class="node"><title>Node4</title>
<g id="a_node4"><a xlink:href="classCComponentType.html#a962c2716cd757893d0a1dafc84d538da" target="_top" xlink:title="CComponentType::fromXml">
<polygon fill="white" stroke="black" points="386.5,-497 386.5,-516 533.5,-516 533.5,-497 386.5,-497"/>
<text text-anchor="middle" x="460" y="-504" font-family="Verdana" font-size="10.00">CComponentType::fromXml</text>
</a>
</g>
</g>
<!-- Node2&#45;&gt;Node4 -->
<g id="edge3" class="edge"><title>Node2&#45;&gt;Node4</title>
<path fill="none" stroke="midnightblue" d="M276.728,-318.94C286.891,-356.488 314.447,-439.102 369,-482.5 376.973,-488.842 386.472,-493.517 396.264,-496.96"/>
<polygon fill="midnightblue" stroke="midnightblue" points="280.107,-318.026 274.218,-309.219 273.329,-319.776 280.107,-318.026"/>
</g>
<!-- Node5 -->
<g id="node5" class="node"><title>Node5</title>
<g id="a_node5"><a xlink:href="classCElement.html#a1978d50e2db432e7b8f0928f33d3f01a" target="_top" xlink:title="CElement::fromXml">
<polygon fill="white" stroke="black" points="597.5,-459 597.5,-478 707.5,-478 707.5,-459 597.5,-459"/>
<text text-anchor="middle" x="652.5" y="-466" font-family="Verdana" font-size="10.00">CElement::fromXml</text>
</a>
</g>
</g>
<!-- Node2&#45;&gt;Node5 -->
<g id="edge4" class="edge"><title>Node2&#45;&gt;Node5</title>
<path fill="none" stroke="midnightblue" d="M278.135,-319.01C289.789,-352.414 318.574,-419.822 369,-449.5 440.594,-491.637 540.777,-486.42 600.601,-478.008"/>
<polygon fill="midnightblue" stroke="midnightblue" points="281.312,-317.472 274.834,-309.089 274.67,-319.683 281.312,-317.472"/>
</g>
<!-- Node7 -->
<g id="node7" class="node"><title>Node7</title>
<g id="a_node7"><a xlink:href="classCSubsystem.html#a82e0dd2dd8f504c57e3b997f13dc7654" target="_top" xlink:title="Deserialize the structure from xml. ">
<polygon fill="white" stroke="black" points="913,-377 913,-396 1082,-396 1082,-377 913,-377"/>
<text text-anchor="middle" x="997.5" y="-384" font-family="Verdana" font-size="10.00">CSubsystem::structureFromXml</text>
</a>
</g>
</g>
<!-- Node2&#45;&gt;Node7 -->
<g id="edge19" class="edge"><title>Node2&#45;&gt;Node7</title>
<path fill="none" stroke="midnightblue" d="M273.746,-279.637C278.91,-234.496 298.498,-124.549 369,-78.5 436.723,-34.2657 473.783,-54.4064 551,-78.5 752.961,-141.517 944.051,-331.685 987.369,-376.817"/>
<polygon fill="midnightblue" stroke="midnightblue" points="270.259,-279.335 272.722,-289.639 277.223,-280.048 270.259,-279.335"/>
</g>
<!-- Node10 -->
<g id="node10" class="node"><title>Node10</title>
<g id="a_node10"><a xlink:href="classCElement.html#a0b4cdc10e6df8fd3740255c5faf3b596" target="_top" xlink:title="Creates a child CElement from a child XML Element. ">
<polygon fill="white" stroke="black" points="398.5,-421 398.5,-440 521.5,-440 521.5,-421 398.5,-421"/>
<text text-anchor="middle" x="460" y="-428" font-family="Verdana" font-size="10.00">CElement::createChild</text>
</a>
</g>
</g>
<!-- Node2&#45;&gt;Node10 -->
<g id="edge10" class="edge"><title>Node2&#45;&gt;Node10</title>
<path fill="none" stroke="midnightblue" d="M283.547,-317.718C299.718,-341.721 331.39,-383.57 369,-406.5 379.356,-412.813 391.368,-417.487 403.178,-420.941"/>
<polygon fill="midnightblue" stroke="midnightblue" points="286.362,-315.628 277.949,-309.189 280.51,-319.469 286.362,-315.628"/>
</g>
<!-- Node11 -->
<g id="node11" class="node"><title>Node11</title>
<g id="a_node11"><a xlink:href="classCFixedPointParameterType.html#a58d031a099f032135417110023dad31e" target="_top" xlink:title="CFixedPointParameterType\l::fromXml">
<polygon fill="white" stroke="black" points="388.5,-333.5 388.5,-363.5 531.5,-363.5 531.5,-333.5 388.5,-333.5"/>
<text text-anchor="start" x="396.5" y="-351.5" font-family="Verdana" font-size="10.00">CFixedPointParameterType</text>
<text text-anchor="middle" x="460" y="-340.5" font-family="Verdana" font-size="10.00">::fromXml</text>
</a>
</g>
</g>
<!-- Node2&#45;&gt;Node11 -->
<g id="edge13" class="edge"><title>Node2&#45;&gt;Node11</title>
<path fill="none" stroke="midnightblue" d="M318.184,-311.602C343.396,-318.208 374.839,-326.447 401.614,-333.463"/>
<polygon fill="midnightblue" stroke="midnightblue" points="319.06,-308.213 308.499,-309.064 317.286,-314.985 319.06,-308.213"/>
</g>
<!-- Node12 -->
<g id="node12" class="node"><title>Node12</title>
<g id="a_node12"><a xlink:href="classCFloatingPointParameterType.html#afc9886b6b3b300f27057c7361f690f54" target="_top" xlink:title="CFloatingPointParameterType\l::fromXml">
<polygon fill="white" stroke="black" points="382,-284.5 382,-314.5 538,-314.5 538,-284.5 382,-284.5"/>
<text text-anchor="start" x="390" y="-302.5" font-family="Verdana" font-size="10.00">CFloatingPointParameterType</text>
<text text-anchor="middle" x="460" y="-291.5" font-family="Verdana" font-size="10.00">::fromXml</text>
</a>
</g>
</g>
<!-- Node2&#45;&gt;Node12 -->
<g id="edge14" class="edge"><title>Node2&#45;&gt;Node12</title>
<path fill="none" stroke="midnightblue" d="M343.234,-299.5C355.886,-299.5 369.115,-299.5 381.919,-299.5"/>
<polygon fill="midnightblue" stroke="midnightblue" points="343.231,-296 333.231,-299.5 343.231,-303 343.231,-296"/>
</g>
<!-- Node13 -->
<g id="node13" class="node"><title>Node13</title>
<g id="a_node13"><a xlink:href="classCFrameworkConfigurationLocation.html#a2e9a4fed347353201cd0272de4952841" target="_top" xlink:title="CFrameworkConfigurationLocation\l::fromXml">
<polygon fill="white" stroke="black" points="370.5,-235.5 370.5,-265.5 549.5,-265.5 549.5,-235.5 370.5,-235.5"/>
<text text-anchor="start" x="378.5" y="-253.5" font-family="Verdana" font-size="10.00">CFrameworkConfigurationLocation</text>
<text text-anchor="middle" x="460" y="-242.5" font-family="Verdana" font-size="10.00">::fromXml</text>
</a>
</g>
</g>
<!-- Node2&#45;&gt;Node13 -->
<g id="edge15" class="edge"><title>Node2&#45;&gt;Node13</title>
<path fill="none" stroke="midnightblue" d="M318.184,-287.398C343.396,-280.792 374.839,-272.553 401.614,-265.537"/>
<polygon fill="midnightblue" stroke="midnightblue" points="317.286,-284.015 308.499,-289.936 319.06,-290.787 317.286,-284.015"/>
</g>
<!-- Node14 -->
<g id="node14" class="node"><title>Node14</title>
<g id="a_node14"><a xlink:href="classCLinearParameterAdaptation.html#a3dfe0a5f0d6ddc9ca72f159bc066354e" target="_top" xlink:title="CLinearParameterAdaptation\l::fromXml">
<polygon fill="white" stroke="black" points="382.5,-186.5 382.5,-216.5 537.5,-216.5 537.5,-186.5 382.5,-186.5"/>
<text text-anchor="start" x="390.5" y="-204.5" font-family="Verdana" font-size="10.00">CLinearParameterAdaptation</text>
<text text-anchor="middle" x="460" y="-193.5" font-family="Verdana" font-size="10.00">::fromXml</text>
</a>
</g>
</g>
<!-- Node2&#45;&gt;Node14 -->
<g id="edge16" class="edge"><title>Node2&#45;&gt;Node14</title>
<path fill="none" stroke="midnightblue" d="M289.41,-282.79C307.8,-266.011 338.328,-240.549 369,-225.5 375.968,-222.081 383.488,-219.1 391.106,-216.514"/>
<polygon fill="midnightblue" stroke="midnightblue" points="286.793,-280.445 281.858,-289.82 291.562,-285.568 286.793,-280.445"/>
</g>
<!-- Node15 -->
<g id="node15" class="node"><title>Node15</title>
<g id="a_node15"><a xlink:href="classCLogarithmicParameterAdaptation.html#ac0b21330479721a562cbc9ff572b5e8e" target="_top" xlink:title="CLogarithmicParameterAdaptation\l::fromXml">
<polygon fill="white" stroke="black" points="369,-137.5 369,-167.5 551,-167.5 551,-137.5 369,-137.5"/>
<text text-anchor="start" x="377" y="-155.5" font-family="Verdana" font-size="10.00">CLogarithmicParameterAdaptation</text>
<text text-anchor="middle" x="460" y="-144.5" font-family="Verdana" font-size="10.00">::fromXml</text>
</a>
</g>
</g>
<!-- Node2&#45;&gt;Node15 -->
<g id="edge17" class="edge"><title>Node2&#45;&gt;Node15</title>
<path fill="none" stroke="midnightblue" d="M281.559,-280.888C296.484,-253.724 327.921,-203.52 369,-176.5 374.269,-173.034 380.021,-170.067 385.988,-167.528"/>
<polygon fill="midnightblue" stroke="midnightblue" points="278.441,-279.298 276.821,-289.768 284.617,-282.594 278.441,-279.298"/>
</g>
<!-- Node16 -->
<g id="node16" class="node"><title>Node16</title>
<g id="a_node16"><a xlink:href="classCSelectionCriterionRule.html#aa3536258af1e5f9cc1db535e7629d42c" target="_top" xlink:title="CSelectionCriterionRule\l::fromXml">
<polygon fill="white" stroke="black" points="396,-88.5 396,-118.5 524,-118.5 524,-88.5 396,-88.5"/>
<text text-anchor="start" x="404" y="-106.5" font-family="Verdana" font-size="10.00">CSelectionCriterionRule</text>
<text text-anchor="middle" x="460" y="-95.5" font-family="Verdana" font-size="10.00">::fromXml</text>
</a>
</g>
</g>
<!-- Node2&#45;&gt;Node16 -->
<g id="edge18" class="edge"><title>Node2&#45;&gt;Node16</title>
<path fill="none" stroke="midnightblue" d="M277.377,-280.251C288.38,-244.501 316.925,-167.828 369,-127.5 376.927,-121.361 386.293,-116.788 395.937,-113.382"/>
<polygon fill="midnightblue" stroke="midnightblue" points="273.989,-279.366 274.519,-289.947 280.704,-281.345 273.989,-279.366"/>
</g>
<!-- Node17 -->
<g id="node17" class="node"><title>Node17</title>
<g id="a_node17"><a xlink:href="classCTypeElement.html#a8f3a08cd11a7db4fde3bd69dde5c8b66" target="_top" xlink:title="CTypeElement::fromXml">
<polygon fill="white" stroke="black" points="587,-380 587,-399 718,-399 718,-380 587,-380"/>
<text text-anchor="middle" x="652.5" y="-387" font-family="Verdana" font-size="10.00">CTypeElement::fromXml</text>
</a>
</g>
</g>
<!-- Node2&#45;&gt;Node17 -->
<g id="edge20" class="edge"><title>Node2&#45;&gt;Node17</title>
<path fill="none" stroke="midnightblue" d="M288.043,-316.415C305.914,-333.994 336.582,-360.57 369,-372.5 440.126,-398.675 528.102,-399.479 586.8,-395.983"/>
<polygon fill="midnightblue" stroke="midnightblue" points="290.291,-313.71 280.773,-309.056 285.312,-318.63 290.291,-313.71"/>
</g>
<!-- Node18 -->
<g id="node18" class="node"><title>Node18</title>
<g id="a_node18"><a xlink:href="classCXmlFileIncluderElement.html#a754298eb75aacfe300ed3942d51611aa" target="_top" xlink:title="CXmlFileIncluderElement\l::fromXml">
<polygon fill="white" stroke="black" points="393,-0.5 393,-30.5 527,-30.5 527,-0.5 393,-0.5"/>
<text text-anchor="start" x="401" y="-18.5" font-family="Verdana" font-size="10.00">CXmlFileIncluderElement</text>
<text text-anchor="middle" x="460" y="-7.5" font-family="Verdana" font-size="10.00">::fromXml</text>
</a>
</g>
</g>
<!-- Node2&#45;&gt;Node18 -->
<g id="edge22" class="edge"><title>Node2&#45;&gt;Node18</title>
<path fill="none" stroke="midnightblue" d="M273.871,-279.717C279.398,-232.399 299.875,-111.711 369,-45.5 375.78,-39.0061 384.002,-33.9167 392.689,-29.9284"/>
<polygon fill="midnightblue" stroke="midnightblue" points="270.37,-279.538 272.79,-289.853 277.331,-280.281 270.37,-279.538"/>
</g>
<!-- Node5&#45;&gt;Node5 -->
<g id="edge9" class="edge"><title>Node5&#45;&gt;Node5</title>
<path fill="none" stroke="midnightblue" d="M622.186,-486.775C623.05,-492.241 633.155,-496.5 652.5,-496.5 681.293,-496.5 689.616,-487.065 677.469,-478.257"/>
<polygon fill="midnightblue" stroke="midnightblue" points="625.18,-488.588 627.531,-478.257 619.251,-484.867 625.18,-488.588"/>
</g>
<!-- Node6 -->
<g id="node6" class="node"><title>Node6</title>
<g id="a_node6"><a xlink:href="classCComponentLibrary.html#ad4cc928cda43371fb31f20394e8e04e5" target="_top" xlink:title="CComponentLibrary::\lfromXml">
<polygon fill="white" stroke="black" points="757,-415.5 757,-445.5 874,-445.5 874,-415.5 757,-415.5"/>
<text text-anchor="start" x="765" y="-433.5" font-family="Verdana" font-size="10.00">CComponentLibrary::</text>
<text text-anchor="middle" x="815.5" y="-422.5" font-family="Verdana" font-size="10.00">fromXml</text>
</a>
</g>
</g>
<!-- Node5&#45;&gt;Node6 -->
<g id="edge5" class="edge"><title>Node5&#45;&gt;Node6</title>
<path fill="none" stroke="midnightblue" d="M704.246,-456.523C720.961,-452.578 739.668,-448.162 756.858,-444.105"/>
<polygon fill="midnightblue" stroke="midnightblue" points="703.056,-453.207 694.127,-458.911 704.664,-460.02 703.056,-453.207"/>
</g>
<!-- Node8 -->
<g id="node8" class="node"><title>Node8</title>
<g id="a_node8"><a xlink:href="classCConfigurableElement.html#a58dabad79b39f912250eed36e43d718a" target="_top" xlink:title="Deserialize the structure from xml. ">
<polygon fill="white" stroke="black" points="754,-464.5 754,-494.5 877,-494.5 877,-464.5 754,-464.5"/>
<text text-anchor="start" x="762" y="-482.5" font-family="Verdana" font-size="10.00">CConfigurableElement</text>
<text text-anchor="middle" x="815.5" y="-471.5" font-family="Verdana" font-size="10.00">::structureFromXml</text>
</a>
</g>
</g>
<!-- Node5&#45;&gt;Node8 -->
<g id="edge7" class="edge"><title>Node5&#45;&gt;Node8</title>
<path fill="none" stroke="midnightblue" d="M717.861,-472.897C729.759,-473.71 742.148,-474.557 753.929,-475.362"/>
<polygon fill="midnightblue" stroke="midnightblue" points="717.774,-469.383 707.559,-472.193 717.297,-476.367 717.774,-469.383"/>
</g>
<!-- Node6&#45;&gt;Node7 -->
<g id="edge6" class="edge"><title>Node6&#45;&gt;Node7</title>
<path fill="none" stroke="midnightblue" d="M884.476,-413.884C909.122,-407.859 936.116,-401.261 957.429,-396.051"/>
<polygon fill="midnightblue" stroke="midnightblue" points="883.327,-410.561 874.444,-416.336 884.989,-417.361 883.327,-410.561"/>
</g>
<!-- Node9 -->
<g id="node9" class="node"><title>Node9</title>
<g id="a_node9"><a xlink:href="classCConfigurableElement.html#ac5bbe709d02fa6af3469a91a72edcd06" target="_top" xlink:title="CConfigurableElement\l::fromXml">
<polygon fill="white" stroke="black" points="936,-464.5 936,-494.5 1059,-494.5 1059,-464.5 936,-464.5"/>
<text text-anchor="start" x="944" y="-482.5" font-family="Verdana" font-size="10.00">CConfigurableElement</text>
<text text-anchor="middle" x="997.5" y="-471.5" font-family="Verdana" font-size="10.00">::fromXml</text>
</a>
</g>
</g>
<!-- Node8&#45;&gt;Node9 -->
<g id="edge8" class="edge"><title>Node8&#45;&gt;Node9</title>
<path fill="none" stroke="midnightblue" d="M887.532,-479.5C903.488,-479.5 920.277,-479.5 935.769,-479.5"/>
<polygon fill="midnightblue" stroke="midnightblue" points="887.189,-476 877.189,-479.5 887.189,-483 887.189,-476"/>
</g>
<!-- Node10&#45;&gt;Node5 -->
<g id="edge12" class="edge"><title>Node10&#45;&gt;Node5</title>
<path fill="none" stroke="midnightblue" d="M519.2,-442.11C546.294,-447.514 578.125,-453.864 603.774,-458.98"/>
<polygon fill="midnightblue" stroke="midnightblue" points="519.563,-438.613 509.071,-440.089 518.193,-445.478 519.563,-438.613"/>
</g>
<!-- Node10&#45;&gt;Node6 -->
<g id="edge11" class="edge"><title>Node10&#45;&gt;Node6</title>
<path fill="none" stroke="midnightblue" d="M532.101,-430.5C598.211,-430.5 695.47,-430.5 756.865,-430.5"/>
<polygon fill="midnightblue" stroke="midnightblue" points="531.769,-427 521.769,-430.5 531.769,-434 531.769,-427"/>
</g>
<!-- Node17&#45;&gt;Node7 -->
<g id="edge21" class="edge"><title>Node17&#45;&gt;Node7</title>
<path fill="none" stroke="midnightblue" d="M728.287,-388.846C782.703,-388.37 856.418,-387.725 912.798,-387.232"/>
<polygon fill="midnightblue" stroke="midnightblue" points="727.985,-385.348 718.016,-388.936 728.046,-392.348 727.985,-385.348"/>
</g>
</g>
</svg>
