<?xml version="1.0" encoding="UTF-8" standalone="no"?>
<!DOCTYPE svg PUBLIC "-//W3C//DTD SVG 1.1//EN"
 "http://www.w3.org/Graphics/SVG/1.1/DTD/svg11.dtd">
<!-- Generated by graphviz version 2.38.0 (20140413.2041)
 -->
<!-- Title: CConfigurableDomains::addConfigurableElementToDomain Pages: 1 -->
<svg width="728pt" height="39pt"
 viewBox="0.00 0.00 728.00 39.00" xmlns="http://www.w3.org/2000/svg" xmlns:xlink="http://www.w3.org/1999/xlink">
<g id="graph0" class="graph" transform="scale(1 1) rotate(0) translate(4 35)">
<title>CConfigurableDomains::addConfigurableElementToDomain</title>
<polygon fill="white" stroke="none" points="-4,4 -4,-35 724,-35 724,4 -4,4"/>
<!-- Node1 -->
<g id="node1" class="node"><title>Node1</title>
<polygon fill="#bfbfbf" stroke="black" points="0,-0.5 0,-30.5 188,-30.5 188,-0.5 0,-0.5"/>
<text text-anchor="start" x="8" y="-18.5" font-family="Verdana" font-size="10.00">CConfigurableDomains</text>
<text text-anchor="middle" x="94" y="-7.5" font-family="Verdana" font-size="10.00">::addConfigurableElementToDomain</text>
</g>
<!-- Node2 -->
<g id="node2" class="node"><title>Node2</title>
<g id="a_node2"><a xlink:href="classCConfigurableDomain.html#ab671c7341528cf914119ba8fb3662090" target="_top" xlink:title="Add a configurable element to the domain. ">
<polygon fill="white" stroke="black" points="224,-0.5 224,-30.5 364,-30.5 364,-0.5 224,-0.5"/>
<text text-anchor="start" x="232" y="-18.5" font-family="Verdana" font-size="10.00">CConfigurableDomain</text>
<text text-anchor="middle" x="294" y="-7.5" font-family="Verdana" font-size="10.00">::addConfigurableElement</text>
</a>
</g>
</g>
<!-- Node1&#45;&gt;Node2 -->
<g id="edge1" class="edge"><title>Node1&#45;&gt;Node2</title>
<path fill="none" stroke="midnightblue" d="M188.202,-15.5C196.759,-15.5 205.374,-15.5 213.79,-15.5"/>
<polygon fill="midnightblue" stroke="midnightblue" points="213.94,-19.0001 223.94,-15.5 213.94,-12.0001 213.94,-19.0001"/>
</g>
<!-- Node3 -->
<g id="node3" class="node"><title>Node3</title>
<g id="a_node3"><a xlink:href="classCConfigurableElement.html#ac5508cd538517568bebc5448179d9d76" target="_top" xlink:title="CConfigurableElement\l::belongsTo">
<polygon fill="white" stroke="black" points="400,-0.5 400,-30.5 523,-30.5 523,-0.5 400,-0.5"/>
<text text-anchor="start" x="408" y="-18.5" font-family="Verdana" font-size="10.00">CConfigurableElement</text>
<text text-anchor="middle" x="461.5" y="-7.5" font-family="Verdana" font-size="10.00">::belongsTo</text>
</a>
</g>
</g>
<!-- Node2&#45;&gt;Node3 -->
<g id="edge2" class="edge"><title>Node2&#45;&gt;Node3</title>
<path fill="none" stroke="midnightblue" d="M364.228,-15.5C372.666,-15.5 381.297,-15.5 389.757,-15.5"/>
<polygon fill="midnightblue" stroke="midnightblue" points="389.968,-19.0001 399.968,-15.5 389.968,-12.0001 389.968,-19.0001"/>
</g>
<!-- Node4 -->
<g id="node4" class="node"><title>Node4</title>
<g id="a_node4"><a xlink:href="classCConfigurableElement.html#a4ff038351f85bcb55768f3fef206866c" target="_top" xlink:title="CConfigurableElement\l::containsConfigurableDomain">
<polygon fill="white" stroke="black" points="559,-0.5 559,-30.5 720,-30.5 720,-0.5 559,-0.5"/>
<text text-anchor="start" x="567" y="-18.5" font-family="Verdana" font-size="10.00">CConfigurableElement</text>
<text text-anchor="middle" x="639.5" y="-7.5" font-family="Verdana" font-size="10.00">::containsConfigurableDomain</text>
</a>
</g>
</g>
<!-- Node3&#45;&gt;Node4 -->
<g id="edge3" class="edge"><title>Node3&#45;&gt;Node4</title>
<path fill="none" stroke="midnightblue" d="M523.069,-15.5C531.36,-15.5 540.011,-15.5 548.686,-15.5"/>
<polygon fill="midnightblue" stroke="midnightblue" points="548.86,-19.0001 558.86,-15.5 548.86,-12.0001 548.86,-19.0001"/>
</g>
</g>
</svg>
