<?xml version="1.0" encoding="UTF-8" standalone="no"?>
<!DOCTYPE svg PUBLIC "-//W3C//DTD SVG 1.1//EN"
 "http://www.w3.org/Graphics/SVG/1.1/DTD/svg11.dtd">
<!-- Generated by graphviz version 2.38.0 (20140413.2041)
 -->
<!-- Title: CConfigurableElement::setDefaultValues Pages: 1 -->
<svg width="304pt" height="71pt"
 viewBox="0.00 0.00 304.00 70.50" xmlns="http://www.w3.org/2000/svg" xmlns:xlink="http://www.w3.org/1999/xlink">
<g id="graph0" class="graph" transform="scale(1 1) rotate(0) translate(4 66.5)">
<title>CConfigurableElement::setDefaultValues</title>
<polygon fill="white" stroke="none" points="-4,4 -4,-66.5 300,-66.5 300,4 -4,4"/>
<!-- Node1 -->
<g id="node1" class="node"><title>Node1</title>
<polygon fill="#bfbfbf" stroke="black" points="0,-14 0,-44 123,-44 123,-14 0,-14"/>
<text text-anchor="start" x="8" y="-32" font-family="Verdana" font-size="10.00">CConfigurableElement</text>
<text text-anchor="middle" x="61.5" y="-21" font-family="Verdana" font-size="10.00">::setDefaultValues</text>
</g>
<!-- Node1&#45;&gt;Node1 -->
<g id="edge3" class="edge"><title>Node1&#45;&gt;Node1</title>
<path fill="none" stroke="midnightblue" d="M32.5711,-44.159C25.5953,-53.5566 35.2383,-62.5 61.5,-62.5 77.5032,-62.5 87.3353,-59.179 90.9962,-54.4579"/>
<polygon fill="midnightblue" stroke="midnightblue" points="94.4737,-53.9513 90.4289,-44.159 87.4843,-54.3364 94.4737,-53.9513"/>
</g>
<!-- Node2 -->
<g id="node2" class="node"><title>Node2</title>
<g id="a_node2"><a xlink:href="classCElement.html#a58b6cdb5715497442fde6afa1e65f8e5" target="_top" xlink:title="CElement::getNbChildren">
<polygon fill="white" stroke="black" points="159,-38.5 159,-57.5 296,-57.5 296,-38.5 159,-38.5"/>
<text text-anchor="middle" x="227.5" y="-45.5" font-family="Verdana" font-size="10.00">CElement::getNbChildren</text>
</a>
</g>
</g>
<!-- Node1&#45;&gt;Node2 -->
<g id="edge1" class="edge"><title>Node1&#45;&gt;Node2</title>
<path fill="none" stroke="midnightblue" d="M123.102,-36.0209C131.496,-36.9935 140.212,-38.0033 148.864,-39.0055"/>
<polygon fill="midnightblue" stroke="midnightblue" points="148.63,-42.5018 158.967,-40.176 149.436,-35.5483 148.63,-42.5018"/>
</g>
<!-- Node3 -->
<g id="node3" class="node"><title>Node3</title>
<g id="a_node3"><a xlink:href="classCElement.html#aee0d626525e9cd24d7639b6365afdc16" target="_top" xlink:title="Get a child element (const) ">
<polygon fill="white" stroke="black" points="173.5,-0.5 173.5,-19.5 281.5,-19.5 281.5,-0.5 173.5,-0.5"/>
<text text-anchor="middle" x="227.5" y="-7.5" font-family="Verdana" font-size="10.00">CElement::getChild</text>
</a>
</g>
</g>
<!-- Node1&#45;&gt;Node3 -->
<g id="edge2" class="edge"><title>Node1&#45;&gt;Node3</title>
<path fill="none" stroke="midnightblue" d="M123.102,-21.9791C136.262,-20.4544 150.214,-18.8381 163.466,-17.3027"/>
<polygon fill="midnightblue" stroke="midnightblue" points="163.908,-20.775 173.439,-16.1473 163.102,-13.8215 163.908,-20.775"/>
</g>
</g>
</svg>
