<?xml version="1.0" encoding="UTF-8" standalone="no"?>
<!DOCTYPE svg PUBLIC "-//W3C//DTD SVG 1.1//EN"
 "http://www.w3.org/Graphics/SVG/1.1/DTD/svg11.dtd">
<!-- Generated by graphviz version 2.38.0 (20140413.2041)
 -->
<!-- Title: CSelectionCriteriaDefinition::listSelectionCriteria Pages: 1 -->
<svg width="925pt" height="88pt"
 viewBox="0.00 0.00 925.00 88.00" xmlns="http://www.w3.org/2000/svg" xmlns:xlink="http://www.w3.org/1999/xlink">
<g id="graph0" class="graph" transform="scale(1 1) rotate(0) translate(4 84)">
<title>CSelectionCriteriaDefinition::listSelectionCriteria</title>
<polygon fill="white" stroke="none" points="-4,4 -4,-84 921,-84 921,4 -4,4"/>
<!-- Node1 -->
<g id="node1" class="node"><title>Node1</title>
<polygon fill="#bfbfbf" stroke="black" points="0,-24.5 0,-54.5 147,-54.5 147,-24.5 0,-24.5"/>
<text text-anchor="start" x="8" y="-42.5" font-family="Verdana" font-size="10.00">CSelectionCriteriaDefinition</text>
<text text-anchor="middle" x="73.5" y="-31.5" font-family="Verdana" font-size="10.00">::listSelectionCriteria</text>
</g>
<!-- Node2 -->
<g id="node2" class="node"><title>Node2</title>
<g id="a_node2"><a xlink:href="classCSelectionCriteria.html#a25ca6671e46d02c906f512f6b33a44e4" target="_top" xlink:title="CSelectionCriteria\l::listSelectionCriteria">
<polygon fill="white" stroke="black" points="183,-24.5 183,-54.5 298,-54.5 298,-24.5 183,-24.5"/>
<text text-anchor="start" x="191" y="-42.5" font-family="Verdana" font-size="10.00">CSelectionCriteria</text>
<text text-anchor="middle" x="240.5" y="-31.5" font-family="Verdana" font-size="10.00">::listSelectionCriteria</text>
</a>
</g>
</g>
<!-- Node1&#45;&gt;Node2 -->
<g id="edge1" class="edge"><title>Node1&#45;&gt;Node2</title>
<path fill="none" stroke="midnightblue" d="M157.446,-39.5C166.061,-39.5 174.67,-39.5 182.897,-39.5"/>
<polygon fill="midnightblue" stroke="midnightblue" points="157.352,-36.0001 147.352,-39.5 157.352,-43.0001 157.352,-36.0001"/>
</g>
<!-- Node3 -->
<g id="node3" class="node"><title>Node3</title>
<g id="a_node3"><a xlink:href="classCParameterMgr.html#aad4830a40d67cfae091cbf1a15ff29d0" target="_top" xlink:title="Load plugins, structures and settings from the config file given. ">
<polygon fill="white" stroke="black" points="334,-30 334,-49 452,-49 452,-30 334,-30"/>
<text text-anchor="middle" x="393" y="-37" font-family="Verdana" font-size="10.00">CParameterMgr::load</text>
</a>
</g>
</g>
<!-- Node2&#45;&gt;Node3 -->
<g id="edge2" class="edge"><title>Node2&#45;&gt;Node3</title>
<path fill="none" stroke="midnightblue" d="M308.557,-39.5C316.966,-39.5 325.513,-39.5 333.771,-39.5"/>
<polygon fill="midnightblue" stroke="midnightblue" points="308.398,-36.0001 298.398,-39.5 308.398,-43.0001 308.398,-36.0001"/>
</g>
<!-- Node4 -->
<g id="node4" class="node"><title>Node4</title>
<g id="a_node4"><a xlink:href="classCParameterMgrFullConnector.html#a60cb4e00e70c6a7b700e464d0de084ff" target="_top" xlink:title="CParameterMgrFullConnector\l::start">
<polygon fill="white" stroke="black" points="501,-49.5 501,-79.5 657,-79.5 657,-49.5 501,-49.5"/>
<text text-anchor="start" x="509" y="-67.5" font-family="Verdana" font-size="10.00">CParameterMgrFullConnector</text>
<text text-anchor="middle" x="579" y="-56.5" font-family="Verdana" font-size="10.00">::start</text>
</a>
</g>
</g>
<!-- Node3&#45;&gt;Node4 -->
<g id="edge3" class="edge"><title>Node3&#45;&gt;Node4</title>
<path fill="none" stroke="midnightblue" d="M462.191,-48.765C474.821,-50.4812 488.095,-52.2846 500.967,-54.0336"/>
<polygon fill="midnightblue" stroke="midnightblue" points="462.599,-45.2884 452.219,-47.4102 461.656,-52.2247 462.599,-45.2884"/>
</g>
<!-- Node5 -->
<g id="node5" class="node"><title>Node5</title>
<g id="a_node5"><a xlink:href="classCParameterMgrPlatformConnector.html#a04060080b3be8780e4a7d0211fd95da7" target="_top" xlink:title="CParameterMgrPlatformConnector\l::start">
<polygon fill="white" stroke="black" points="488,-0.5 488,-30.5 670,-30.5 670,-0.5 488,-0.5"/>
<text text-anchor="start" x="496" y="-18.5" font-family="Verdana" font-size="10.00">CParameterMgrPlatformConnector</text>
<text text-anchor="middle" x="579" y="-7.5" font-family="Verdana" font-size="10.00">::start</text>
</a>
</g>
</g>
<!-- Node3&#45;&gt;Node5 -->
<g id="edge4" class="edge"><title>Node3&#45;&gt;Node5</title>
<path fill="none" stroke="midnightblue" d="M462.259,-30.5966C470.622,-29.5058 479.265,-28.3784 487.887,-27.2539"/>
<polygon fill="midnightblue" stroke="midnightblue" points="461.682,-27.1422 452.219,-31.9062 462.587,-34.0834 461.682,-27.1422"/>
</g>
<!-- Node6 -->
<g id="node6" class="node"><title>Node6</title>
<g id="a_node6"><a xlink:href="ParameterFramework_8cpp.html#a44326e09ebb9719ecb017d1d67832b6f" target="_top" xlink:title="pfwStart">
<polygon fill="white" stroke="black" points="706,-6 706,-25 762,-25 762,-6 706,-6"/>
<text text-anchor="middle" x="734" y="-13" font-family="Verdana" font-size="10.00">pfwStart</text>
</a>
</g>
</g>
<!-- Node5&#45;&gt;Node6 -->
<g id="edge5" class="edge"><title>Node5&#45;&gt;Node6</title>
<path fill="none" stroke="midnightblue" d="M680.494,-15.5C689.703,-15.5 698.397,-15.5 705.96,-15.5"/>
<polygon fill="midnightblue" stroke="midnightblue" points="680.328,-12.0001 670.328,-15.5 680.328,-19.0001 680.328,-12.0001"/>
</g>
<!-- Node7 -->
<g id="node7" class="node"><title>Node7</title>
<g id="a_node7"><a xlink:href="Test_8cpp.html#ae78f4780e83e5f2b9721a2d66c70fec9" target="_top" xlink:title="TEST_CASE_METHOD">
<polygon fill="white" stroke="black" points="798,-6 798,-25 917,-25 917,-6 798,-6"/>
<text text-anchor="middle" x="857.5" y="-13" font-family="Verdana" font-size="10.00">TEST_CASE_METHOD</text>
</a>
</g>
</g>
<!-- Node6&#45;&gt;Node7 -->
<g id="edge6" class="edge"><title>Node6&#45;&gt;Node7</title>
<path fill="none" stroke="midnightblue" d="M772.342,-15.5C780.329,-15.5 788.954,-15.5 797.531,-15.5"/>
<polygon fill="midnightblue" stroke="midnightblue" points="772.267,-12.0001 762.267,-15.5 772.267,-19.0001 772.267,-12.0001"/>
</g>
</g>
</svg>
