<?xml version="1.0" encoding="UTF-8" standalone="no"?>
<!DOCTYPE svg PUBLIC "-//W3C//DTD SVG 1.1//EN"
 "http://www.w3.org/Graphics/SVG/1.1/DTD/svg11.dtd">
<!-- Generated by graphviz version 2.38.0 (20140413.2041)
 -->
<!-- Title: CEnumParameterType::showProperties Pages: 1 -->
<svg width="331pt" height="154pt"
 viewBox="0.00 0.00 331.00 153.50" xmlns="http://www.w3.org/2000/svg" xmlns:xlink="http://www.w3.org/1999/xlink">
<g id="graph0" class="graph" transform="scale(1 1) rotate(0) translate(4 149.5)">
<title>CEnumParameterType::showProperties</title>
<polygon fill="white" stroke="none" points="-4,4 -4,-149.5 327,-149.5 327,4 -4,4"/>
<!-- Node1 -->
<g id="node1" class="node"><title>Node1</title>
<polygon fill="#bfbfbf" stroke="black" points="0,-63.5 0,-93.5 122,-93.5 122,-63.5 0,-63.5"/>
<text text-anchor="start" x="8" y="-81.5" font-family="Verdana" font-size="10.00">CEnumParameterType</text>
<text text-anchor="middle" x="61" y="-70.5" font-family="Verdana" font-size="10.00">::showProperties</text>
</g>
<!-- Node2 -->
<g id="node2" class="node"><title>Node2</title>
<g id="a_node2"><a xlink:href="classCElement.html#a58b6cdb5715497442fde6afa1e65f8e5" target="_top" xlink:title="CElement::getNbChildren">
<polygon fill="white" stroke="black" points="172,-126 172,-145 309,-145 309,-126 172,-126"/>
<text text-anchor="middle" x="240.5" y="-133" font-family="Verdana" font-size="10.00">CElement::getNbChildren</text>
</a>
</g>
</g>
<!-- Node1&#45;&gt;Node2 -->
<g id="edge1" class="edge"><title>Node1&#45;&gt;Node2</title>
<path fill="none" stroke="midnightblue" d="M96.6631,-93.6583C114.72,-101.186 137.299,-110.029 158,-116.5 166.073,-119.024 174.689,-121.382 183.184,-123.52"/>
<polygon fill="midnightblue" stroke="midnightblue" points="182.517,-126.96 193.061,-125.925 184.173,-120.158 182.517,-126.96"/>
</g>
<!-- Node3 -->
<g id="node3" class="node"><title>Node3</title>
<g id="a_node3"><a xlink:href="classCElement.html#aee0d626525e9cd24d7639b6365afdc16" target="_top" xlink:title="Get a child element (const) ">
<polygon fill="white" stroke="black" points="186.5,-88 186.5,-107 294.5,-107 294.5,-88 186.5,-88"/>
<text text-anchor="middle" x="240.5" y="-95" font-family="Verdana" font-size="10.00">CElement::getChild</text>
</a>
</g>
</g>
<!-- Node1&#45;&gt;Node3 -->
<g id="edge2" class="edge"><title>Node1&#45;&gt;Node3</title>
<path fill="none" stroke="midnightblue" d="M122.093,-84.9325C139.497,-86.7954 158.547,-88.8346 176.143,-90.7181"/>
<polygon fill="midnightblue" stroke="midnightblue" points="175.996,-94.2223 186.312,-91.8066 176.741,-87.2621 175.996,-94.2223"/>
</g>
<!-- Node4 -->
<g id="node4" class="node"><title>Node4</title>
<g id="a_node4"><a xlink:href="classCElement.html#a49581fb6412e29e932962acd82d52d6a" target="_top" xlink:title="CElement::getName">
<polygon fill="white" stroke="black" points="183.5,-50 183.5,-69 297.5,-69 297.5,-50 183.5,-50"/>
<text text-anchor="middle" x="240.5" y="-57" font-family="Verdana" font-size="10.00">CElement::getName</text>
</a>
</g>
</g>
<!-- Node1&#45;&gt;Node4 -->
<g id="edge3" class="edge"><title>Node1&#45;&gt;Node4</title>
<path fill="none" stroke="midnightblue" d="M122.093,-72.0675C138.501,-70.3111 156.373,-68.3981 173.11,-66.6066"/>
<polygon fill="midnightblue" stroke="midnightblue" points="173.79,-70.0538 183.361,-65.5093 173.045,-63.0936 173.79,-70.0538"/>
</g>
<!-- Node5 -->
<g id="node5" class="node"><title>Node5</title>
<g id="a_node5"><a xlink:href="classCEnumValuePair.html#a8936c702786702895a231eac2137f518" target="_top" xlink:title="CEnumValuePair::getNumerical\lAsString">
<polygon fill="white" stroke="black" points="158,-0.5 158,-30.5 323,-30.5 323,-0.5 158,-0.5"/>
<text text-anchor="start" x="166" y="-18.5" font-family="Verdana" font-size="10.00">CEnumValuePair::getNumerical</text>
<text text-anchor="middle" x="240.5" y="-7.5" font-family="Verdana" font-size="10.00">AsString</text>
</a>
</g>
</g>
<!-- Node1&#45;&gt;Node5 -->
<g id="edge4" class="edge"><title>Node1&#45;&gt;Node5</title>
<path fill="none" stroke="midnightblue" d="M98.2134,-63.3797C116.084,-56.1197 138.04,-47.4993 158,-40.5 164.475,-38.2295 171.277,-35.9615 178.076,-33.7696"/>
<polygon fill="midnightblue" stroke="midnightblue" points="179.524,-36.9822 187.997,-30.6211 177.406,-30.3102 179.524,-36.9822"/>
</g>
</g>
</svg>
