<?xml version="1.0" encoding="UTF-8" standalone="no"?>
<!DOCTYPE svg PUBLIC "-//W3C//DTD SVG 1.1//EN"
 "http://www.w3.org/Graphics/SVG/1.1/DTD/svg11.dtd">
<!-- Generated by graphviz version 2.38.0 (20140413.2041)
 -->
<!-- Title: CParameterType::getSize Pages: 1 -->
<svg width="516pt" height="387pt"
 viewBox="0.00 0.00 516.00 387.41" xmlns="http://www.w3.org/2000/svg" xmlns:xlink="http://www.w3.org/1999/xlink">
<g id="graph0" class="graph" transform="scale(1 1) rotate(0) translate(4 383.411)">
<title>CParameterType::getSize</title>
<polygon fill="white" stroke="none" points="-4,4 -4,-383.411 512,-383.411 512,4 -4,4"/>
<!-- Node1 -->
<g id="node1" class="node"><title>Node1</title>
<polygon fill="#bfbfbf" stroke="black" points="0,-169.5 0,-188.5 137,-188.5 137,-169.5 0,-169.5"/>
<text text-anchor="middle" x="68.5" y="-176.5" font-family="Verdana" font-size="10.00">CParameterType::getSize</text>
</g>
<!-- Node2 -->
<g id="node2" class="node"><title>Node2</title>
<g id="a_node2"><a xlink:href="classCEnumParameterType.html#a0bd3061022ff86f0a244575b89ab8a48" target="_top" xlink:title="CEnumParameterType\l::fromBlackboard">
<polygon fill="white" stroke="black" points="386,-194 386,-224 508,-224 508,-194 386,-194"/>
<text text-anchor="start" x="394" y="-212" font-family="Verdana" font-size="10.00">CEnumParameterType</text>
<text text-anchor="middle" x="447" y="-201" font-family="Verdana" font-size="10.00">::fromBlackboard</text>
</a>
</g>
</g>
<!-- Node1&#45;&gt;Node2 -->
<g id="edge1" class="edge"><title>Node1&#45;&gt;Node2</title>
<path fill="none" stroke="midnightblue" d="M74.4378,-198.604C85.0949,-236.222 114.186,-317.75 173,-351 241.481,-389.715 280.522,-387.895 350,-351 401.513,-323.645 430.42,-254.94 441.141,-224.237"/>
<polygon fill="midnightblue" stroke="midnightblue" points="77.7878,-197.583 71.8099,-188.836 71.0281,-199.402 77.7878,-197.583"/>
</g>
<!-- Node3 -->
<g id="node3" class="node"><title>Node3</title>
<g id="a_node3"><a xlink:href="classCEnumParameterType.html#a657fc941f16df1059a7f1377aa85b258" target="_top" xlink:title="CEnumParameterType\l::toXml">
<polygon fill="white" stroke="black" points="200.5,-311 200.5,-341 322.5,-341 322.5,-311 200.5,-311"/>
<text text-anchor="start" x="208.5" y="-329" font-family="Verdana" font-size="10.00">CEnumParameterType</text>
<text text-anchor="middle" x="261.5" y="-318" font-family="Verdana" font-size="10.00">::toXml</text>
</a>
</g>
</g>
<!-- Node1&#45;&gt;Node3 -->
<g id="edge2" class="edge"><title>Node1&#45;&gt;Node3</title>
<path fill="none" stroke="midnightblue" d="M80.0462,-197.564C96.4108,-224.666 130.506,-274.793 173,-302 181.225,-307.266 190.598,-311.389 200.081,-314.614"/>
<polygon fill="midnightblue" stroke="midnightblue" points="82.9229,-195.551 74.8366,-188.705 76.889,-199.099 82.9229,-195.551"/>
</g>
<!-- Node4 -->
<g id="node4" class="node"><title>Node4</title>
<g id="a_node4"><a xlink:href="classCFixedPointParameterType.html#a915d48511911653dc8ddf03cf39dc0ec" target="_top" xlink:title="CFixedPointParameterType\l::fromBlackboard">
<polygon fill="white" stroke="black" points="190,-262 190,-292 333,-292 333,-262 190,-262"/>
<text text-anchor="start" x="198" y="-280" font-family="Verdana" font-size="10.00">CFixedPointParameterType</text>
<text text-anchor="middle" x="261.5" y="-269" font-family="Verdana" font-size="10.00">::fromBlackboard</text>
</a>
</g>
</g>
<!-- Node1&#45;&gt;Node4 -->
<g id="edge3" class="edge"><title>Node1&#45;&gt;Node4</title>
<path fill="none" stroke="midnightblue" d="M87.7726,-195.153C107.52,-211.837 140.539,-237.551 173,-253 180.112,-256.385 187.783,-259.363 195.525,-261.964"/>
<polygon fill="midnightblue" stroke="midnightblue" points="90.0274,-192.476 80.1622,-188.612 85.4647,-197.785 90.0274,-192.476"/>
</g>
<!-- Node5 -->
<g id="node5" class="node"><title>Node5</title>
<g id="a_node5"><a xlink:href="classCFixedPointParameterType.html#ac9e0de762e60d0cfce00122bdbef137e" target="_top" xlink:title="CFixedPointParameterType\l::toXml">
<polygon fill="white" stroke="black" points="190,-213 190,-243 333,-243 333,-213 190,-213"/>
<text text-anchor="start" x="198" y="-231" font-family="Verdana" font-size="10.00">CFixedPointParameterType</text>
<text text-anchor="middle" x="261.5" y="-220" font-family="Verdana" font-size="10.00">::toXml</text>
</a>
</g>
</g>
<!-- Node1&#45;&gt;Node5 -->
<g id="edge4" class="edge"><title>Node1&#45;&gt;Node5</title>
<path fill="none" stroke="midnightblue" d="M116.672,-191.102C142.423,-197.708 174.539,-205.947 201.887,-212.963"/>
<polygon fill="midnightblue" stroke="midnightblue" points="117.336,-187.659 106.78,-188.564 115.597,-194.439 117.336,-187.659"/>
</g>
<!-- Node6 -->
<g id="node6" class="node"><title>Node6</title>
<g id="a_node6"><a xlink:href="classCIntegerParameterType.html#a20f5eb6c8e4cea3d1f0ccdb92e1d008c" target="_top" xlink:title="CIntegerParameterType\l::fromBlackboard">
<polygon fill="white" stroke="black" points="197.5,-164 197.5,-194 325.5,-194 325.5,-164 197.5,-164"/>
<text text-anchor="start" x="205.5" y="-182" font-family="Verdana" font-size="10.00">CIntegerParameterType</text>
<text text-anchor="middle" x="261.5" y="-171" font-family="Verdana" font-size="10.00">::fromBlackboard</text>
</a>
</g>
</g>
<!-- Node1&#45;&gt;Node6 -->
<g id="edge5" class="edge"><title>Node1&#45;&gt;Node6</title>
<path fill="none" stroke="midnightblue" d="M147.368,-179C164.031,-179 181.435,-179 197.457,-179"/>
<polygon fill="midnightblue" stroke="midnightblue" points="147.108,-175.5 137.108,-179 147.108,-182.5 147.108,-175.5"/>
</g>
<!-- Node7 -->
<g id="node7" class="node"><title>Node7</title>
<g id="a_node7"><a xlink:href="classCIntegerParameterType.html#a26c10292fad5a8e6603dc0673f813d69" target="_top" xlink:title="CIntegerParameterType\l::toXml">
<polygon fill="white" stroke="black" points="197.5,-115 197.5,-145 325.5,-145 325.5,-115 197.5,-115"/>
<text text-anchor="start" x="205.5" y="-133" font-family="Verdana" font-size="10.00">CIntegerParameterType</text>
<text text-anchor="middle" x="261.5" y="-122" font-family="Verdana" font-size="10.00">::toXml</text>
</a>
</g>
</g>
<!-- Node1&#45;&gt;Node7 -->
<g id="edge6" class="edge"><title>Node1&#45;&gt;Node7</title>
<path fill="none" stroke="midnightblue" d="M116.672,-166.898C142.423,-160.292 174.539,-152.053 201.887,-145.037"/>
<polygon fill="midnightblue" stroke="midnightblue" points="115.597,-163.561 106.78,-169.436 117.336,-170.341 115.597,-163.561"/>
</g>
<!-- Node8 -->
<g id="node8" class="node"><title>Node8</title>
<g id="a_node8"><a xlink:href="classCParameterType.html#aa7af90f44722bc279f98bcc94f7f69c0" target="_top" xlink:title="CParameterType::showProperties">
<polygon fill="white" stroke="black" points="175,-76.5 175,-95.5 348,-95.5 348,-76.5 175,-76.5"/>
<text text-anchor="middle" x="261.5" y="-83.5" font-family="Verdana" font-size="10.00">CParameterType::showProperties</text>
</a>
</g>
</g>
<!-- Node1&#45;&gt;Node8 -->
<g id="edge7" class="edge"><title>Node1&#45;&gt;Node8</title>
<path fill="none" stroke="midnightblue" d="M87.6841,-162.801C107.358,-146.123 140.317,-120.576 173,-106 182.678,-101.684 193.388,-98.2499 203.899,-95.5335"/>
<polygon fill="midnightblue" stroke="midnightblue" points="85.3849,-160.162 80.1052,-169.347 89.9607,-165.459 85.3849,-160.162"/>
</g>
<!-- Node9 -->
<g id="node9" class="node"><title>Node9</title>
<g id="a_node9"><a xlink:href="classCParameterType.html#a5fe8903d0958345169b3ad4c0534ecf4" target="_top" xlink:title="CParameterType::makeEncodable">
<polygon fill="white" stroke="black" points="173,-38.5 173,-57.5 350,-57.5 350,-38.5 173,-38.5"/>
<text text-anchor="middle" x="261.5" y="-45.5" font-family="Verdana" font-size="10.00">CParameterType::makeEncodable</text>
</a>
</g>
</g>
<!-- Node1&#45;&gt;Node9 -->
<g id="edge8" class="edge"><title>Node1&#45;&gt;Node9</title>
<path fill="none" stroke="midnightblue" d="M81.0097,-160.755C97.9422,-135.516 132.034,-90.4189 173,-67 179.748,-63.1426 187.197,-60.0672 194.818,-57.6154"/>
<polygon fill="midnightblue" stroke="midnightblue" points="77.9213,-159.083 75.3818,-169.37 83.7814,-162.912 77.9213,-159.083"/>
</g>
<!-- Node10 -->
<g id="node10" class="node"><title>Node10</title>
<g id="a_node10"><a xlink:href="classCParameterType.html#ae849a293ebb5b314db89e5f93fec3693" target="_top" xlink:title="Compute max value according to the parameter type. ">
<polygon fill="white" stroke="black" points="180.5,-0.5 180.5,-19.5 342.5,-19.5 342.5,-0.5 180.5,-0.5"/>
<text text-anchor="middle" x="261.5" y="-7.5" font-family="Verdana" font-size="10.00">CParameterType::getMaxValue</text>
</a>
</g>
</g>
<!-- Node1&#45;&gt;Node10 -->
<g id="edge10" class="edge"><title>Node1&#45;&gt;Node10</title>
<path fill="none" stroke="midnightblue" d="M77.1188,-159.763C91.0086,-127.328 123.644,-62.0692 173,-29 178.811,-25.1063 185.283,-21.9943 192.004,-19.5097"/>
<polygon fill="midnightblue" stroke="midnightblue" points="73.7164,-158.832 73.1299,-169.41 80.1853,-161.507 73.7164,-158.832"/>
</g>
<!-- Node9&#45;&gt;Node2 -->
<g id="edge9" class="edge"><title>Node9&#45;&gt;Node2</title>
<path fill="none" stroke="midnightblue" d="M340.783,-61.6524C343.989,-63.2472 347.079,-65.023 350,-67 397.807,-99.3619 428.287,-164.223 440.247,-193.742"/>
<polygon fill="midnightblue" stroke="midnightblue" points="342.048,-58.3863 331.481,-57.6208 339.264,-64.809 342.048,-58.3863"/>
</g>
</g>
</svg>
