<?xml version="1.0" encoding="UTF-8" standalone="no"?>
<!DOCTYPE svg PUBLIC "-//W3C//DTD SVG 1.1//EN"
 "http://www.w3.org/Graphics/SVG/1.1/DTD/svg11.dtd">
<!-- Generated by graphviz version 2.38.0 (20140413.2041)
 -->
<!-- Title: CAreaConfiguration::getConfigurableElement Pages: 1 -->
<svg width="307pt" height="137pt"
 viewBox="0.00 0.00 307.00 137.00" xmlns="http://www.w3.org/2000/svg" xmlns:xlink="http://www.w3.org/1999/xlink">
<g id="graph0" class="graph" transform="scale(1 1) rotate(0) translate(4 133)">
<title>CAreaConfiguration::getConfigurableElement</title>
<polygon fill="white" stroke="none" points="-4,4 -4,-133 303,-133 303,4 -4,4"/>
<!-- Node1 -->
<g id="node1" class="node"><title>Node1</title>
<polygon fill="#bfbfbf" stroke="black" points="0,-49.5 0,-79.5 138,-79.5 138,-49.5 0,-49.5"/>
<text text-anchor="start" x="8" y="-67.5" font-family="Verdana" font-size="10.00">CAreaConfiguration</text>
<text text-anchor="middle" x="69" y="-56.5" font-family="Verdana" font-size="10.00">::getConfigurableElement</text>
</g>
<!-- Node2 -->
<g id="node2" class="node"><title>Node2</title>
<g id="a_node2"><a xlink:href="classCDomainConfiguration.html#a39c907e9023554f7a86836ac9f8da32f" target="_top" xlink:title="CDomainConfiguration\l::composeSettings">
<polygon fill="white" stroke="black" points="174,-98.5 174,-128.5 299,-128.5 299,-98.5 174,-98.5"/>
<text text-anchor="start" x="182" y="-116.5" font-family="Verdana" font-size="10.00">CDomainConfiguration</text>
<text text-anchor="middle" x="236.5" y="-105.5" font-family="Verdana" font-size="10.00">::composeSettings</text>
</a>
</g>
</g>
<!-- Node1&#45;&gt;Node2 -->
<g id="edge1" class="edge"><title>Node1&#45;&gt;Node2</title>
<path fill="none" stroke="midnightblue" d="M130.684,-82.467C148.417,-87.717 167.608,-93.3989 184.663,-98.4484"/>
<polygon fill="midnightblue" stroke="midnightblue" points="131.588,-79.0844 121.006,-79.6014 129.601,-85.7964 131.588,-79.0844"/>
</g>
<!-- Node3 -->
<g id="node3" class="node"><title>Node3</title>
<g id="a_node3"><a xlink:href="classCDomainConfiguration.html#af62bcfe2b30d19e292a8aa4ddba3cd89" target="_top" xlink:title="Get the Configuration Blackboard. ">
<polygon fill="white" stroke="black" points="174,-49.5 174,-79.5 299,-79.5 299,-49.5 174,-49.5"/>
<text text-anchor="start" x="182" y="-67.5" font-family="Verdana" font-size="10.00">CDomainConfiguration</text>
<text text-anchor="middle" x="236.5" y="-56.5" font-family="Verdana" font-size="10.00">::getBlackboard</text>
</a>
</g>
</g>
<!-- Node1&#45;&gt;Node3 -->
<g id="edge2" class="edge"><title>Node1&#45;&gt;Node3</title>
<path fill="none" stroke="midnightblue" d="M148.54,-64.5C157.003,-64.5 165.524,-64.5 173.749,-64.5"/>
<polygon fill="midnightblue" stroke="midnightblue" points="148.271,-61.0001 138.271,-64.5 148.271,-68.0001 148.271,-61.0001"/>
</g>
<!-- Node4 -->
<g id="node4" class="node"><title>Node4</title>
<g id="a_node4"><a xlink:href="classCDomainConfiguration.html#a30e09c1bbf837e1f1536c0747a2fadee" target="_top" xlink:title="CDomainConfiguration\l::validateAgainst">
<polygon fill="white" stroke="black" points="174,-0.5 174,-30.5 299,-30.5 299,-0.5 174,-0.5"/>
<text text-anchor="start" x="182" y="-18.5" font-family="Verdana" font-size="10.00">CDomainConfiguration</text>
<text text-anchor="middle" x="236.5" y="-7.5" font-family="Verdana" font-size="10.00">::validateAgainst</text>
</a>
</g>
</g>
<!-- Node1&#45;&gt;Node4 -->
<g id="edge3" class="edge"><title>Node1&#45;&gt;Node4</title>
<path fill="none" stroke="midnightblue" d="M130.684,-46.533C148.417,-41.283 167.608,-35.6011 184.663,-30.5516"/>
<polygon fill="midnightblue" stroke="midnightblue" points="129.601,-43.2036 121.006,-49.3986 131.588,-49.9156 129.601,-43.2036"/>
</g>
</g>
</svg>
