<?xml version="1.0" encoding="UTF-8" standalone="no"?>
<!DOCTYPE svg PUBLIC "-//W3C//DTD SVG 1.1//EN"
 "http://www.w3.org/Graphics/SVG/1.1/DTD/svg11.dtd">
<!-- Generated by graphviz version 2.38.0 (20140413.2041)
 -->
<!-- Title: CParameterType::showProperties Pages: 1 -->
<svg width="354pt" height="66pt"
 viewBox="0.00 0.00 354.00 66.00" xmlns="http://www.w3.org/2000/svg" xmlns:xlink="http://www.w3.org/1999/xlink">
<g id="graph0" class="graph" transform="scale(1 1) rotate(0) translate(4 62)">
<title>CParameterType::showProperties</title>
<polygon fill="white" stroke="none" points="-4,4 -4,-62 350,-62 350,4 -4,4"/>
<!-- Node1 -->
<g id="node1" class="node"><title>Node1</title>
<polygon fill="#bfbfbf" stroke="black" points="0,-19.5 0,-38.5 173,-38.5 173,-19.5 0,-19.5"/>
<text text-anchor="middle" x="86.5" y="-26.5" font-family="Verdana" font-size="10.00">CParameterType::showProperties</text>
</g>
<!-- Node2 -->
<g id="node2" class="node"><title>Node2</title>
<g id="a_node2"><a xlink:href="classCParameterType.html#ab5c3d517960caa37da09645f53d2d88e" target="_top" xlink:title="CParameterType::getUnit">
<polygon fill="white" stroke="black" points="209.5,-38.5 209.5,-57.5 345.5,-57.5 345.5,-38.5 209.5,-38.5"/>
<text text-anchor="middle" x="277.5" y="-45.5" font-family="Verdana" font-size="10.00">CParameterType::getUnit</text>
</a>
</g>
</g>
<!-- Node1&#45;&gt;Node2 -->
<g id="edge1" class="edge"><title>Node1&#45;&gt;Node2</title>
<path fill="none" stroke="midnightblue" d="M173.152,-37.6105C181.857,-38.4856 190.663,-39.3709 199.271,-40.2362"/>
<polygon fill="midnightblue" stroke="midnightblue" points="198.967,-43.7232 209.267,-41.2411 199.667,-36.7583 198.967,-43.7232"/>
</g>
<!-- Node3 -->
<g id="node3" class="node"><title>Node3</title>
<g id="a_node3"><a xlink:href="classCParameterType.html#ab57d8e9afd220f02c7671a67932cfaa9" target="_top" xlink:title="CParameterType::getSize">
<polygon fill="white" stroke="black" points="209,-0.5 209,-19.5 346,-19.5 346,-0.5 209,-0.5"/>
<text text-anchor="middle" x="277.5" y="-7.5" font-family="Verdana" font-size="10.00">CParameterType::getSize</text>
</a>
</g>
</g>
<!-- Node1&#45;&gt;Node3 -->
<g id="edge2" class="edge"><title>Node1&#45;&gt;Node3</title>
<path fill="none" stroke="midnightblue" d="M173.152,-20.3895C181.693,-19.5309 190.331,-18.6625 198.784,-17.8127"/>
<polygon fill="midnightblue" stroke="midnightblue" points="199.384,-21.2701 208.984,-16.7873 198.684,-14.3052 199.384,-21.2701"/>
</g>
</g>
</svg>
