<?xml version="1.0" encoding="UTF-8" standalone="no"?>
<!DOCTYPE svg PUBLIC "-//W3C//DTD SVG 1.1//EN"
 "http://www.w3.org/Graphics/SVG/1.1/DTD/svg11.dtd">
<!-- Generated by graphviz version 2.38.0 (20140413.2041)
 -->
<!-- Title: CInstanceDefinition::createInstances Pages: 1 -->
<svg width="462pt" height="142pt"
 viewBox="0.00 0.00 462.00 142.00" xmlns="http://www.w3.org/2000/svg" xmlns:xlink="http://www.w3.org/1999/xlink">
<g id="graph0" class="graph" transform="scale(1 1) rotate(0) translate(4 138)">
<title>CInstanceDefinition::createInstances</title>
<polygon fill="white" stroke="none" points="-4,4 -4,-138 458,-138 458,4 -4,4"/>
<!-- Node1 -->
<g id="node1" class="node"><title>Node1</title>
<polygon fill="#bfbfbf" stroke="black" points="0,-33 0,-63 109,-63 109,-33 0,-33"/>
<text text-anchor="start" x="8" y="-51" font-family="Verdana" font-size="10.00">CInstanceDefinition</text>
<text text-anchor="middle" x="54.5" y="-40" font-family="Verdana" font-size="10.00">::createInstances</text>
</g>
<!-- Node2 -->
<g id="node2" class="node"><title>Node2</title>
<g id="a_node2"><a xlink:href="classCTypeElement.html#a7cdfd91a35b67d17fb2c92f8a2883854" target="_top" xlink:title="CTypeElement::populate">
<polygon fill="white" stroke="black" points="145,-38.5 145,-57.5 277,-57.5 277,-38.5 145,-38.5"/>
<text text-anchor="middle" x="211" y="-45.5" font-family="Verdana" font-size="10.00">CTypeElement::populate</text>
</a>
</g>
</g>
<!-- Node1&#45;&gt;Node2 -->
<g id="edge1" class="edge"><title>Node1&#45;&gt;Node2</title>
<path fill="none" stroke="midnightblue" d="M109.103,-48C117.372,-48 126.041,-48 134.677,-48"/>
<polygon fill="midnightblue" stroke="midnightblue" points="134.776,-51.5001 144.775,-48 134.775,-44.5001 134.776,-51.5001"/>
</g>
<!-- Node3 -->
<g id="node3" class="node"><title>Node3</title>
<g id="a_node3"><a xlink:href="classCElement.html#a58b6cdb5715497442fde6afa1e65f8e5" target="_top" xlink:title="CElement::getNbChildren">
<polygon fill="white" stroke="black" points="315,-114.5 315,-133.5 452,-133.5 452,-114.5 315,-114.5"/>
<text text-anchor="middle" x="383.5" y="-121.5" font-family="Verdana" font-size="10.00">CElement::getNbChildren</text>
</a>
</g>
</g>
<!-- Node2&#45;&gt;Node3 -->
<g id="edge2" class="edge"><title>Node2&#45;&gt;Node3</title>
<path fill="none" stroke="midnightblue" d="M226.477,-57.6951C245.585,-70.1278 280.601,-91.6699 313,-105 318.845,-107.405 325.091,-109.601 331.351,-111.576"/>
<polygon fill="midnightblue" stroke="midnightblue" points="330.562,-114.993 341.145,-114.498 332.563,-108.285 330.562,-114.993"/>
</g>
<!-- Node4 -->
<g id="node4" class="node"><title>Node4</title>
<g id="a_node4"><a xlink:href="classCElement.html#aee0d626525e9cd24d7639b6365afdc16" target="_top" xlink:title="Get a child element (const) ">
<polygon fill="white" stroke="black" points="329.5,-76.5 329.5,-95.5 437.5,-95.5 437.5,-76.5 329.5,-76.5"/>
<text text-anchor="middle" x="383.5" y="-83.5" font-family="Verdana" font-size="10.00">CElement::getChild</text>
</a>
</g>
</g>
<!-- Node2&#45;&gt;Node4 -->
<g id="edge3" class="edge"><title>Node2&#45;&gt;Node4</title>
<path fill="none" stroke="midnightblue" d="M255.024,-57.589C277.726,-62.6487 305.773,-68.8996 329.774,-74.2488"/>
<polygon fill="midnightblue" stroke="midnightblue" points="329.263,-77.7207 339.785,-76.4799 330.786,-70.8883 329.263,-77.7207"/>
</g>
<!-- Node5 -->
<g id="node5" class="node"><title>Node5</title>
<g id="a_node5"><a xlink:href="classCTypeElement.html#a0fd0b5dfb3e3515ff5b54eda3d7e0a45" target="_top" xlink:title="CTypeElement::instantiate">
<polygon fill="white" stroke="black" points="313,-38.5 313,-57.5 454,-57.5 454,-38.5 313,-38.5"/>
<text text-anchor="middle" x="383.5" y="-45.5" font-family="Verdana" font-size="10.00">CTypeElement::instantiate</text>
</a>
</g>
</g>
<!-- Node2&#45;&gt;Node5 -->
<g id="edge4" class="edge"><title>Node2&#45;&gt;Node5</title>
<path fill="none" stroke="midnightblue" d="M277.432,-41.4148C285.711,-41.2748 294.254,-41.224 302.724,-41.2624"/>
<polygon fill="midnightblue" stroke="midnightblue" points="302.967,-44.7646 312.997,-41.3534 303.029,-37.7649 302.967,-44.7646"/>
</g>
<!-- Node6 -->
<g id="node6" class="node"><title>Node6</title>
<g id="a_node6"><a xlink:href="classCElement.html#ac2ad66ee438a4a0c1390b7388874fe72" target="_top" xlink:title="CElement::addChild">
<polygon fill="white" stroke="black" points="328.5,-0.5 328.5,-19.5 438.5,-19.5 438.5,-0.5 328.5,-0.5"/>
<text text-anchor="middle" x="383.5" y="-7.5" font-family="Verdana" font-size="10.00">CElement::addChild</text>
</a>
</g>
</g>
<!-- Node2&#45;&gt;Node6 -->
<g id="edge6" class="edge"><title>Node2&#45;&gt;Node6</title>
<path fill="none" stroke="midnightblue" d="M255.024,-38.411C277.726,-33.3513 305.773,-27.1004 329.774,-21.7512"/>
<polygon fill="midnightblue" stroke="midnightblue" points="330.786,-25.1117 339.785,-19.5201 329.263,-18.2793 330.786,-25.1117"/>
</g>
<!-- Node5&#45;&gt;Node2 -->
<g id="edge5" class="edge"><title>Node5&#45;&gt;Node2</title>
<path fill="none" stroke="midnightblue" d="M312.997,-54.6466C304.642,-54.7575 296.077,-54.7792 287.639,-54.7117"/>
<polygon fill="midnightblue" stroke="midnightblue" points="287.475,-51.2095 277.432,-54.5852 287.388,-58.209 287.475,-51.2095"/>
</g>
</g>
</svg>
