<?xml version="1.0" encoding="UTF-8" standalone="no"?>
<!DOCTYPE svg PUBLIC "-//W3C//DTD SVG 1.1//EN"
 "http://www.w3.org/Graphics/SVG/1.1/DTD/svg11.dtd">
<!-- Generated by graphviz version 2.36.0 (20140111.2315)
 -->
<!-- Title: CElement::getDescription Pages: 1 -->
<svg width="740pt" height="160pt"
 viewBox="0.00 0.00 740.00 160.00" xmlns="http://www.w3.org/2000/svg" xmlns:xlink="http://www.w3.org/1999/xlink">
<g id="graph0" class="graph" transform="scale(1 1) rotate(0) translate(4 156)">
<title>CElement::getDescription</title>
<polygon fill="white" stroke="none" points="-4,4 -4,-156 736,-156 736,4 -4,4"/>
<!-- Node1 -->
<g id="node1" class="node"><title>Node1</title>
<polygon fill="#bfbfbf" stroke="black" points="0.5,-71.5 0.5,-90.5 139.5,-90.5 139.5,-71.5 0.5,-71.5"/>
<text text-anchor="middle" x="70" y="-78.5" font-family="Verdana" font-size="10.00">CElement::getDescription</text>
</g>
<!-- Node2 -->
<g id="node2" class="node"><title>Node2</title>
<g id="a_node2"><a xlink:href="classCElement.html#afce045b488b7c243f52a30269dae8f62" target="_top" xlink:title="Appends if found human readable description property. ">
<polygon fill="white" stroke="black" points="180.5,-91 180.5,-121 327.5,-121 327.5,-91 180.5,-91"/>
<text text-anchor="start" x="188.5" y="-109" font-family="Verdana" font-size="10.00">CElement::showDescription</text>
<text text-anchor="middle" x="254" y="-98" font-family="Verdana" font-size="10.00">Property</text>
</a>
</g>
</g>
<!-- Node1&#45;&gt;Node2 -->
<g id="edge1" class="edge"><title>Node1&#45;&gt;Node2</title>
<path fill="none" stroke="midnightblue" d="M149.631,-91.801C159.805,-93.1985 170.189,-94.6249 180.262,-96.0085"/>
<polygon fill="midnightblue" stroke="midnightblue" points="149.93,-88.3093 139.547,-90.4158 148.978,-95.2442 149.93,-88.3093"/>
</g>
<!-- Node6 -->
<g id="node6" class="node"><title>Node6</title>
<g id="a_node6"><a xlink:href="classCElement.html#a581660a35394ecc99fe7128f9548c3d0" target="_top" xlink:title="Fill the Description field of the Xml Element during XML composing. ">
<polygon fill="white" stroke="black" points="176,-42 176,-72 332,-72 332,-42 176,-42"/>
<text text-anchor="start" x="184" y="-60" font-family="Verdana" font-size="10.00">CElement::setXmlDescription</text>
<text text-anchor="middle" x="254" y="-49" font-family="Verdana" font-size="10.00">Attribute</text>
</a>
</g>
</g>
<!-- Node1&#45;&gt;Node6 -->
<g id="edge5" class="edge"><title>Node1&#45;&gt;Node6</title>
<path fill="none" stroke="midnightblue" d="M149.689,-70.6234C158.406,-69.474 167.276,-68.3043 175.971,-67.1576"/>
<polygon fill="midnightblue" stroke="midnightblue" points="149.004,-67.1834 139.547,-71.9608 149.919,-74.1233 149.004,-67.1834"/>
</g>
<!-- Node3 -->
<g id="node3" class="node"><title>Node3</title>
<g id="a_node3"><a xlink:href="classCElement.html#a8c87fea54766f49f45346713d9d09880" target="_top" xlink:title="CElement::showProperties">
<polygon fill="white" stroke="black" points="379,-132.5 379,-151.5 521,-151.5 521,-132.5 379,-132.5"/>
<text text-anchor="middle" x="450" y="-139.5" font-family="Verdana" font-size="10.00">CElement::showProperties</text>
</a>
</g>
</g>
<!-- Node2&#45;&gt;Node3 -->
<g id="edge2" class="edge"><title>Node2&#45;&gt;Node3</title>
<path fill="none" stroke="midnightblue" d="M337.471,-121.304C357.93,-125.1 379.271,-129.061 397.743,-132.488"/>
<polygon fill="midnightblue" stroke="midnightblue" points="337.985,-117.84 327.514,-119.456 336.708,-124.722 337.985,-117.84"/>
</g>
<!-- Node4 -->
<g id="node4" class="node"><title>Node4</title>
<g id="a_node4"><a xlink:href="classCTypeElement.html#a71898c707fb687b3a90c06fe25c3e171" target="_top" xlink:title="CTypeElement::showProperties">
<polygon fill="white" stroke="black" points="368.5,-94.5 368.5,-113.5 531.5,-113.5 531.5,-94.5 368.5,-94.5"/>
<text text-anchor="middle" x="450" y="-101.5" font-family="Verdana" font-size="10.00">CTypeElement::showProperties</text>
</a>
</g>
</g>
<!-- Node2&#45;&gt;Node4 -->
<g id="edge3" class="edge"><title>Node2&#45;&gt;Node4</title>
<path fill="none" stroke="midnightblue" d="M337.63,-105.148C347.835,-105.043 358.258,-104.935 368.432,-104.831"/>
<polygon fill="midnightblue" stroke="midnightblue" points="337.478,-101.649 327.514,-105.252 337.55,-108.649 337.478,-101.649"/>
</g>
<!-- Node5 -->
<g id="node5" class="node"><title>Node5</title>
<g id="a_node5"><a xlink:href="classCInstanceConfigurableElement.html#a47a5949cc354fc3bb11cefef76f87ea7" target="_top" xlink:title="CInstanceConfigurableElement\l::showProperties">
<polygon fill="white" stroke="black" points="568,-89 568,-119 732,-119 732,-89 568,-89"/>
<text text-anchor="start" x="576" y="-107" font-family="Verdana" font-size="10.00">CInstanceConfigurableElement</text>
<text text-anchor="middle" x="650" y="-96" font-family="Verdana" font-size="10.00">::showProperties</text>
</a>
</g>
</g>
<!-- Node4&#45;&gt;Node5 -->
<g id="edge4" class="edge"><title>Node4&#45;&gt;Node5</title>
<path fill="none" stroke="midnightblue" d="M541.724,-104C550.453,-104 559.267,-104 567.895,-104"/>
<polygon fill="midnightblue" stroke="midnightblue" points="541.534,-100.5 531.534,-104 541.534,-107.5 541.534,-100.5"/>
</g>
<!-- Node7 -->
<g id="node7" class="node"><title>Node7</title>
<g id="a_node7"><a xlink:href="classCElement.html#a7ce1bde0fda5cf412b652000cab473e4" target="_top" xlink:title="CElement::toXml">
<polygon fill="white" stroke="black" points="401.5,-49.5 401.5,-68.5 498.5,-68.5 498.5,-49.5 401.5,-49.5"/>
<text text-anchor="middle" x="450" y="-56.5" font-family="Verdana" font-size="10.00">CElement::toXml</text>
</a>
</g>
</g>
<!-- Node6&#45;&gt;Node7 -->
<g id="edge6" class="edge"><title>Node6&#45;&gt;Node7</title>
<path fill="none" stroke="midnightblue" d="M342.439,-57.9014C362.709,-58.1104 383.54,-58.3252 401.347,-58.5087"/>
<polygon fill="midnightblue" stroke="midnightblue" points="342.267,-54.3996 332.231,-57.7962 342.195,-61.3992 342.267,-54.3996"/>
</g>
<!-- Node9 -->
<g id="node9" class="node"><title>Node9</title>
<g id="a_node9"><a xlink:href="classCInstanceConfigurableElement.html#a466b63cf9c344e256680c409c29ef9b6" target="_top" xlink:title="CInstanceConfigurableElement\l::toXml">
<polygon fill="white" stroke="black" points="368,-0 368,-30 532,-30 532,-0 368,-0"/>
<text text-anchor="start" x="376" y="-18" font-family="Verdana" font-size="10.00">CInstanceConfigurableElement</text>
<text text-anchor="middle" x="450" y="-7" font-family="Verdana" font-size="10.00">::toXml</text>
</a>
</g>
</g>
<!-- Node6&#45;&gt;Node9 -->
<g id="edge9" class="edge"><title>Node6&#45;&gt;Node9</title>
<path fill="none" stroke="midnightblue" d="M334.278,-39.8368C349.324,-36.5793 364.96,-33.1943 379.669,-30.0098"/>
<polygon fill="midnightblue" stroke="midnightblue" points="333.523,-36.4189 324.49,-41.9557 335.005,-43.2604 333.523,-36.4189"/>
</g>
<!-- Node8 -->
<g id="node8" class="node"><title>Node8</title>
<g id="a_node8"><a xlink:href="classCElement.html#aee22d6b038603b6481a8f029bf59ff3d" target="_top" xlink:title="Serialize the children to XML. ">
<polygon fill="white" stroke="black" points="583,-49.5 583,-68.5 717,-68.5 717,-49.5 583,-49.5"/>
<text text-anchor="middle" x="650" y="-56.5" font-family="Verdana" font-size="10.00">CElement::childrenToXml</text>
</a>
</g>
</g>
<!-- Node7&#45;&gt;Node8 -->
<g id="edge7" class="edge"><title>Node7&#45;&gt;Node8</title>
<path fill="none" stroke="midnightblue" d="M508.697,-52.8018C531.858,-52.1462 558.693,-52.0748 582.654,-52.5875"/>
<polygon fill="midnightblue" stroke="midnightblue" points="508.557,-49.3044 498.678,-53.1313 508.788,-56.3007 508.557,-49.3044"/>
</g>
<!-- Node8&#45;&gt;Node7 -->
<g id="edge8" class="edge"><title>Node8&#45;&gt;Node7</title>
<path fill="none" stroke="midnightblue" d="M572.512,-65.5924C547.657,-65.9459 520.804,-65.7047 498.678,-64.8687"/>
<polygon fill="midnightblue" stroke="midnightblue" points="572.717,-69.0894 582.654,-65.4125 572.593,-62.0905 572.717,-69.0894"/>
</g>
</g>
</svg>
