<?xml version="1.0" encoding="UTF-8" standalone="no"?>
<!DOCTYPE svg PUBLIC "-//W3C//DTD SVG 1.1//EN"
 "http://www.w3.org/Graphics/SVG/1.1/DTD/svg11.dtd">
<!-- Generated by graphviz version 2.38.0 (20140413.2041)
 -->
<!-- Title: core::log::Logger::info Pages: 1 -->
<svg width="272pt" height="137pt"
 viewBox="0.00 0.00 272.00 137.00" xmlns="http://www.w3.org/2000/svg" xmlns:xlink="http://www.w3.org/1999/xlink">
<g id="graph0" class="graph" transform="scale(1 1) rotate(0) translate(4 133)">
<title>core::log::Logger::info</title>
<polygon fill="white" stroke="none" points="-4,4 -4,-133 268,-133 268,4 -4,4"/>
<!-- Node1 -->
<g id="node1" class="node"><title>Node1</title>
<polygon fill="#bfbfbf" stroke="black" points="0,-55 0,-74 120,-74 120,-55 0,-55"/>
<text text-anchor="middle" x="60" y="-62" font-family="Verdana" font-size="10.00">core::log::Logger::info</text>
</g>
<!-- Node2 -->
<g id="node2" class="node"><title>Node2</title>
<g id="a_node2"><a xlink:href="classcore_1_1log_1_1Context.html#a09319c971f1c9db5b8603eb0911d7941" target="_top" xlink:title="Class Constructor. ">
<polygon fill="white" stroke="black" points="159.5,-98.5 159.5,-128.5 260.5,-128.5 260.5,-98.5 159.5,-98.5"/>
<text text-anchor="start" x="167.5" y="-116.5" font-family="Verdana" font-size="10.00">core::log::Context</text>
<text text-anchor="middle" x="210" y="-105.5" font-family="Verdana" font-size="10.00">::Context</text>
</a>
</g>
</g>
<!-- Node1&#45;&gt;Node2 -->
<g id="edge1" class="edge"><title>Node1&#45;&gt;Node2</title>
<path fill="none" stroke="midnightblue" d="M99.4203,-77.2202C119.044,-83.7172 143.048,-91.6645 163.582,-98.463"/>
<polygon fill="midnightblue" stroke="midnightblue" points="100.481,-73.8845 89.8872,-74.064 98.2804,-80.5297 100.481,-73.8845"/>
</g>
<!-- Node3 -->
<g id="node3" class="node"><title>Node3</title>
<g id="a_node3"><a xlink:href="classcore_1_1log_1_1Context.html#a0dfe4165afd796f76822f618505ccfe3" target="_top" xlink:title="Class Destructor. ">
<polygon fill="white" stroke="black" points="159.5,-49.5 159.5,-79.5 260.5,-79.5 260.5,-49.5 159.5,-49.5"/>
<text text-anchor="start" x="167.5" y="-67.5" font-family="Verdana" font-size="10.00">core::log::Context</text>
<text text-anchor="middle" x="210" y="-56.5" font-family="Verdana" font-size="10.00">::~Context</text>
</a>
</g>
</g>
<!-- Node1&#45;&gt;Node3 -->
<g id="edge2" class="edge"><title>Node1&#45;&gt;Node3</title>
<path fill="none" stroke="midnightblue" d="M130.391,-64.5C140.096,-64.5 149.906,-64.5 159.152,-64.5"/>
<polygon fill="midnightblue" stroke="midnightblue" points="130.345,-61.0001 120.344,-64.5 130.344,-68.0001 130.345,-61.0001"/>
</g>
<!-- Node4 -->
<g id="node4" class="node"><title>Node4</title>
<g id="a_node4"><a xlink:href="classCSelectionCriterion.html#a83e33a27a1094e00154018756c0be2dc" target="_top" xlink:title="From ISelectionCriterionInterface. ">
<polygon fill="white" stroke="black" points="156,-0.5 156,-30.5 264,-30.5 264,-0.5 156,-0.5"/>
<text text-anchor="start" x="164" y="-18.5" font-family="Verdana" font-size="10.00">CSelectionCriterion</text>
<text text-anchor="middle" x="210" y="-7.5" font-family="Verdana" font-size="10.00">::setCriterionState</text>
</a>
</g>
</g>
<!-- Node1&#45;&gt;Node4 -->
<g id="edge3" class="edge"><title>Node1&#45;&gt;Node4</title>
<path fill="none" stroke="midnightblue" d="M99.4203,-51.7798C119.044,-45.2828 143.048,-37.3355 163.582,-30.537"/>
<polygon fill="midnightblue" stroke="midnightblue" points="98.2804,-48.4703 89.8872,-54.936 100.481,-55.1155 98.2804,-48.4703"/>
</g>
</g>
</svg>
