<?xml version="1.0" encoding="UTF-8" standalone="no"?>
<!DOCTYPE svg PUBLIC "-//W3C//DTD SVG 1.1//EN"
 "http://www.w3.org/Graphics/SVG/1.1/DTD/svg11.dtd">
<!-- Generated by graphviz version 2.38.0 (20140413.2041)
 -->
<!-- Title: CParameterMgr::setElementSequence Pages: 1 -->
<svg width="644pt" height="39pt"
 viewBox="0.00 0.00 644.00 39.00" xmlns="http://www.w3.org/2000/svg" xmlns:xlink="http://www.w3.org/1999/xlink">
<g id="graph0" class="graph" transform="scale(1 1) rotate(0) translate(4 35)">
<title>CParameterMgr::setElementSequence</title>
<polygon fill="white" stroke="none" points="-4,4 -4,-35 640,-35 640,4 -4,4"/>
<!-- Node1 -->
<g id="node1" class="node"><title>Node1</title>
<polygon fill="#bfbfbf" stroke="black" points="0,-0.5 0,-30.5 152,-30.5 152,-0.5 0,-0.5"/>
<text text-anchor="start" x="8" y="-18.5" font-family="Verdana" font-size="10.00">CParameterMgr::setElement</text>
<text text-anchor="middle" x="76" y="-7.5" font-family="Verdana" font-size="10.00">Sequence</text>
</g>
<!-- Node2 -->
<g id="node2" class="node"><title>Node2</title>
<g id="a_node2"><a xlink:href="classCConfigurableDomains.html#abad5c37e114fa09153d08c3fe2589235" target="_top" xlink:title="CConfigurableDomains\l::setElementSequence">
<polygon fill="white" stroke="black" points="188,-0.5 188,-30.5 314,-30.5 314,-0.5 188,-0.5"/>
<text text-anchor="start" x="196" y="-18.5" font-family="Verdana" font-size="10.00">CConfigurableDomains</text>
<text text-anchor="middle" x="251" y="-7.5" font-family="Verdana" font-size="10.00">::setElementSequence</text>
</a>
</g>
</g>
<!-- Node1&#45;&gt;Node2 -->
<g id="edge1" class="edge"><title>Node1&#45;&gt;Node2</title>
<path fill="none" stroke="midnightblue" d="M152.126,-15.5C160.618,-15.5 169.259,-15.5 177.715,-15.5"/>
<polygon fill="midnightblue" stroke="midnightblue" points="177.913,-19.0001 187.913,-15.5 177.913,-12.0001 177.913,-19.0001"/>
</g>
<!-- Node3 -->
<g id="node3" class="node"><title>Node3</title>
<g id="a_node3"><a xlink:href="classCConfigurableDomain.html#a1778bfe42d19352dac62ae88f907b6d2" target="_top" xlink:title="CConfigurableDomain\l::setElementSequence">
<polygon fill="white" stroke="black" points="350,-0.5 350,-30.5 475,-30.5 475,-0.5 350,-0.5"/>
<text text-anchor="start" x="358" y="-18.5" font-family="Verdana" font-size="10.00">CConfigurableDomain</text>
<text text-anchor="middle" x="412.5" y="-7.5" font-family="Verdana" font-size="10.00">::setElementSequence</text>
</a>
</g>
</g>
<!-- Node2&#45;&gt;Node3 -->
<g id="edge2" class="edge"><title>Node2&#45;&gt;Node3</title>
<path fill="none" stroke="midnightblue" d="M314.124,-15.5C322.457,-15.5 331.06,-15.5 339.544,-15.5"/>
<polygon fill="midnightblue" stroke="midnightblue" points="339.808,-19.0001 349.808,-15.5 339.808,-12.0001 339.808,-19.0001"/>
</g>
<!-- Node4 -->
<g id="node4" class="node"><title>Node4</title>
<g id="a_node4"><a xlink:href="classCDomainConfiguration.html#aa00f0e58eeaa408381003630301f83fd" target="_top" xlink:title="Sequence management: Prepend provided elements into internal list in the same order than they appear ...">
<polygon fill="white" stroke="black" points="511,-0.5 511,-30.5 636,-30.5 636,-0.5 511,-0.5"/>
<text text-anchor="start" x="519" y="-18.5" font-family="Verdana" font-size="10.00">CDomainConfiguration</text>
<text text-anchor="middle" x="573.5" y="-7.5" font-family="Verdana" font-size="10.00">::setElementSequence</text>
</a>
</g>
</g>
<!-- Node3&#45;&gt;Node4 -->
<g id="edge3" class="edge"><title>Node3&#45;&gt;Node4</title>
<path fill="none" stroke="midnightblue" d="M475.429,-15.5C483.674,-15.5 492.184,-15.5 500.58,-15.5"/>
<polygon fill="midnightblue" stroke="midnightblue" points="500.74,-19.0001 510.74,-15.5 500.74,-12.0001 500.74,-19.0001"/>
</g>
</g>
</svg>
