<?xml version="1.0" encoding="UTF-8" standalone="no"?>
<!DOCTYPE svg PUBLIC "-//W3C//DTD SVG 1.1//EN"
 "http://www.w3.org/Graphics/SVG/1.1/DTD/svg11.dtd">
<!-- Generated by graphviz version 2.38.0 (20140413.2041)
 -->
<!-- Title: CBitParameterType::getKind Pages: 1 -->
<svg width="270pt" height="88pt"
 viewBox="0.00 0.00 270.00 88.00" xmlns="http://www.w3.org/2000/svg" xmlns:xlink="http://www.w3.org/1999/xlink">
<g id="graph0" class="graph" transform="scale(1 1) rotate(0) translate(4 84)">
<title>CBitParameterType::getKind</title>
<polygon fill="white" stroke="none" points="-4,4 -4,-84 266,-84 266,4 -4,4"/>
<!-- Node1 -->
<g id="node1" class="node"><title>Node1</title>
<polygon fill="#bfbfbf" stroke="black" points="0,-24.5 0,-54.5 113,-54.5 113,-24.5 0,-24.5"/>
<text text-anchor="start" x="8" y="-42.5" font-family="Verdana" font-size="10.00">CBitParameterType::</text>
<text text-anchor="middle" x="56.5" y="-31.5" font-family="Verdana" font-size="10.00">getKind</text>
</g>
<!-- Node2 -->
<g id="node2" class="node"><title>Node2</title>
<g id="a_node2"><a xlink:href="classCBitParameterType.html#a76b208c42677a4a7a90494f348924403" target="_top" xlink:title="CBitParameterType::\lfromXml">
<polygon fill="white" stroke="black" points="149,-49.5 149,-79.5 262,-79.5 262,-49.5 149,-49.5"/>
<text text-anchor="start" x="157" y="-67.5" font-family="Verdana" font-size="10.00">CBitParameterType::</text>
<text text-anchor="middle" x="205.5" y="-56.5" font-family="Verdana" font-size="10.00">fromXml</text>
</a>
</g>
</g>
<!-- Node1&#45;&gt;Node2 -->
<g id="edge1" class="edge"><title>Node1&#45;&gt;Node2</title>
<path fill="none" stroke="midnightblue" d="M123.078,-50.6526C131.681,-52.1157 140.43,-53.6037 148.847,-55.0352"/>
<polygon fill="midnightblue" stroke="midnightblue" points="123.52,-47.1777 113.074,-48.9514 122.346,-54.0786 123.52,-47.1777"/>
</g>
<!-- Node3 -->
<g id="node3" class="node"><title>Node3</title>
<g id="a_node3"><a xlink:href="classCBitParameterType.html#a0398ded8b86ec6471305ac9cafa1b378" target="_top" xlink:title="Conversion. ">
<polygon fill="white" stroke="black" points="149,-0.5 149,-30.5 262,-30.5 262,-0.5 149,-0.5"/>
<text text-anchor="start" x="157" y="-18.5" font-family="Verdana" font-size="10.00">CBitParameterType::</text>
<text text-anchor="middle" x="205.5" y="-7.5" font-family="Verdana" font-size="10.00">toBlackboard</text>
</a>
</g>
</g>
<!-- Node1&#45;&gt;Node3 -->
<g id="edge2" class="edge"><title>Node1&#45;&gt;Node3</title>
<path fill="none" stroke="midnightblue" d="M123.078,-28.7935C131.681,-27.3889 140.43,-25.9604 148.847,-24.5862"/>
<polygon fill="midnightblue" stroke="midnightblue" points="122.38,-25.361 113.074,-30.4266 123.508,-32.2695 122.38,-25.361"/>
</g>
</g>
</svg>
