<?xml version="1.0" encoding="UTF-8" standalone="no"?>
<!DOCTYPE svg PUBLIC "-//W3C//DTD SVG 1.1//EN"
 "http://www.w3.org/Graphics/SVG/1.1/DTD/svg11.dtd">
<!-- Generated by graphviz version 2.38.0 (20140413.2041)
 -->
<!-- Title: CFileIncluderElementBuilder::createElement Pages: 1 -->
<svg width="711pt" height="119pt"
 viewBox="0.00 0.00 711.00 118.50" xmlns="http://www.w3.org/2000/svg" xmlns:xlink="http://www.w3.org/1999/xlink">
<g id="graph0" class="graph" transform="scale(1 1) rotate(0) translate(4 114.5)">
<title>CFileIncluderElementBuilder::createElement</title>
<polygon fill="white" stroke="none" points="-4,4 -4,-114.5 707,-114.5 707,4 -4,4"/>
<!-- Node1 -->
<g id="node1" class="node"><title>Node1</title>
<polygon fill="#bfbfbf" stroke="black" points="0,-33 0,-63 149,-63 149,-33 0,-33"/>
<text text-anchor="start" x="8" y="-51" font-family="Verdana" font-size="10.00">CFileIncluderElementBuilder</text>
<text text-anchor="middle" x="74.5" y="-40" font-family="Verdana" font-size="10.00">::createElement</text>
</g>
<!-- Node2 -->
<g id="node2" class="node"><title>Node2</title>
<g id="a_node2"><a xlink:href="classCXmlFileIncluderElement.html#a3f0cb06fcaf0203240f6a862d06c66d6" target="_top" xlink:title="CXmlFileIncluderElement\l::CXmlFileIncluderElement">
<polygon fill="white" stroke="black" points="202,-80 202,-110 342,-110 342,-80 202,-80"/>
<text text-anchor="start" x="210" y="-98" font-family="Verdana" font-size="10.00">CXmlFileIncluderElement</text>
<text text-anchor="middle" x="272" y="-87" font-family="Verdana" font-size="10.00">::CXmlFileIncluderElement</text>
</a>
</g>
</g>
<!-- Node1&#45;&gt;Node2 -->
<g id="edge1" class="edge"><title>Node1&#45;&gt;Node2</title>
<path fill="none" stroke="midnightblue" d="M137.895,-63.0003C157.205,-67.6427 178.643,-72.7966 198.573,-77.5878"/>
<polygon fill="midnightblue" stroke="midnightblue" points="197.986,-81.0465 208.527,-79.981 199.622,-74.2404 197.986,-81.0465"/>
</g>
<!-- Node5 -->
<g id="node5" class="node"><title>Node5</title>
<g id="a_node5"><a xlink:href="classCXmlElement.html#a21b9cfd66e7cd6f33a889e099102ef89" target="_top" xlink:title="CXmlElement::getNameAttribute">
<polygon fill="white" stroke="black" points="185,-38.5 185,-57.5 359,-57.5 359,-38.5 185,-38.5"/>
<text text-anchor="middle" x="272" y="-45.5" font-family="Verdana" font-size="10.00">CXmlElement::getNameAttribute</text>
</a>
</g>
</g>
<!-- Node1&#45;&gt;Node5 -->
<g id="edge4" class="edge"><title>Node1&#45;&gt;Node5</title>
<path fill="none" stroke="midnightblue" d="M149.132,-48C157.534,-48 166.189,-48 174.828,-48"/>
<polygon fill="midnightblue" stroke="midnightblue" points="174.946,-51.5001 184.946,-48 174.946,-44.5001 174.946,-51.5001"/>
</g>
<!-- Node7 -->
<g id="node7" class="node"><title>Node7</title>
<g id="a_node7"><a xlink:href="classCXmlElement.html#ab2e750aaad2b93b4d875d04b624de1c4" target="_top" xlink:title="CXmlElement::getType">
<polygon fill="white" stroke="black" points="210,-0.5 210,-19.5 334,-19.5 334,-0.5 210,-0.5"/>
<text text-anchor="middle" x="272" y="-7.5" font-family="Verdana" font-size="10.00">CXmlElement::getType</text>
</a>
</g>
</g>
<!-- Node1&#45;&gt;Node7 -->
<g id="edge7" class="edge"><title>Node1&#45;&gt;Node7</title>
<path fill="none" stroke="midnightblue" d="M149.132,-33.688C169.87,-29.6569 192.154,-25.3256 211.922,-21.4832"/>
<polygon fill="midnightblue" stroke="midnightblue" points="212.86,-24.8664 222.009,-19.5226 211.524,-17.995 212.86,-24.8664"/>
</g>
<!-- Node3 -->
<g id="node3" class="node"><title>Node3</title>
<g id="a_node3"><a xlink:href="classCKindElement.html#aa9414aba7b15223c978873cbe6d8d945" target="_top" xlink:title="CKindElement::CKindElement">
<polygon fill="white" stroke="black" points="395,-88.5 395,-107.5 551,-107.5 551,-88.5 395,-88.5"/>
<text text-anchor="middle" x="473" y="-95.5" font-family="Verdana" font-size="10.00">CKindElement::CKindElement</text>
</a>
</g>
</g>
<!-- Node2&#45;&gt;Node3 -->
<g id="edge2" class="edge"><title>Node2&#45;&gt;Node3</title>
<path fill="none" stroke="midnightblue" d="M342.042,-96.0408C355.773,-96.2478 370.359,-96.4677 384.61,-96.6826"/>
<polygon fill="midnightblue" stroke="midnightblue" points="384.858,-100.187 394.91,-96.8378 384.964,-93.1874 384.858,-100.187"/>
</g>
<!-- Node4 -->
<g id="node4" class="node"><title>Node4</title>
<g id="a_node4"><a xlink:href="classCElement.html#adda0945fbca000ff1e605a9b93f74c64" target="_top" xlink:title="CElement::CElement">
<polygon fill="white" stroke="black" points="587,-88.5 587,-107.5 703,-107.5 703,-88.5 587,-88.5"/>
<text text-anchor="middle" x="645" y="-95.5" font-family="Verdana" font-size="10.00">CElement::CElement</text>
</a>
</g>
</g>
<!-- Node3&#45;&gt;Node4 -->
<g id="edge3" class="edge"><title>Node3&#45;&gt;Node4</title>
<path fill="none" stroke="midnightblue" d="M551.042,-98C559.598,-98 568.263,-98 576.686,-98"/>
<polygon fill="midnightblue" stroke="midnightblue" points="576.816,-101.5 586.816,-98 576.816,-94.5001 576.816,-101.5"/>
</g>
<!-- Node6 -->
<g id="node6" class="node"><title>Node6</title>
<g id="a_node6"><a xlink:href="classCXmlElement.html#a6198359168c744489018bc2b8d732dc3" target="_top" xlink:title="Get attribute. ">
<polygon fill="white" stroke="black" points="400.5,-32.5 400.5,-51.5 545.5,-51.5 545.5,-32.5 400.5,-32.5"/>
<text text-anchor="middle" x="473" y="-39.5" font-family="Verdana" font-size="10.00">CXmlElement::getAttribute</text>
</a>
</g>
</g>
<!-- Node5&#45;&gt;Node6 -->
<g id="edge5" class="edge"><title>Node5&#45;&gt;Node6</title>
<path fill="none" stroke="midnightblue" d="M359.127,-45.4032C369.447,-45.092 379.963,-44.775 390.22,-44.4657"/>
<polygon fill="midnightblue" stroke="midnightblue" points="390.483,-47.9595 400.373,-44.1596 390.272,-40.9627 390.483,-47.9595"/>
</g>
<!-- Node6&#45;&gt;Node6 -->
<g id="edge6" class="edge"><title>Node6&#45;&gt;Node6</title>
<path fill="none" stroke="midnightblue" d="M446.49,-51.7571C433.593,-60.5653 442.43,-70 473,-70 493.539,-70 504.268,-65.741 505.186,-60.2746"/>
<polygon fill="midnightblue" stroke="midnightblue" points="507.968,-58.1381 499.51,-51.7571 502.143,-62.0197 507.968,-58.1381"/>
</g>
</g>
</svg>
