<?xml version="1.0" encoding="UTF-8" standalone="no"?>
<!DOCTYPE svg PUBLIC "-//W3C//DTD SVG 1.1//EN"
 "http://www.w3.org/Graphics/SVG/1.1/DTD/svg11.dtd">
<!-- Generated by graphviz version 2.36.0 (20140111.2315)
 -->
<!-- Title: CSubsystem::needResync Pages: 1 -->
<svg width="532pt" height="87pt"
 viewBox="0.00 0.00 532.00 87.00" xmlns="http://www.w3.org/2000/svg" xmlns:xlink="http://www.w3.org/1999/xlink">
<g id="graph0" class="graph" transform="scale(1 1) rotate(0) translate(4 83)">
<title>CSubsystem::needResync</title>
<polygon fill="white" stroke="none" points="-4,4 -4,-83 528,-83 528,4 -4,4"/>
<!-- Node1 -->
<g id="node1" class="node"><title>Node1</title>
<polygon fill="#bfbfbf" stroke="black" points="0,-29.5 0,-48.5 140,-48.5 140,-29.5 0,-29.5"/>
<text text-anchor="middle" x="70" y="-36.5" font-family="Verdana" font-size="10.00">CSubsystem::needResync</text>
</g>
<!-- Node2 -->
<g id="node2" class="node"><title>Node2</title>
<g id="a_node2"><a xlink:href="classCSystemClass.html#ab71ea33fad4ce8978ad2577314146fec" target="_top" xlink:title="Look for subsystems that need to be resynchronized. ">
<polygon fill="white" stroke="black" points="176,-49 176,-79 370,-79 370,-49 176,-49"/>
<text text-anchor="start" x="184" y="-67" font-family="Verdana" font-size="10.00">CSystemClass::checkForSubsystems</text>
<text text-anchor="middle" x="273" y="-56" font-family="Verdana" font-size="10.00">ToResync</text>
</a>
</g>
</g>
<!-- Node1&#45;&gt;Node2 -->
<g id="edge1" class="edge"><title>Node1&#45;&gt;Node2</title>
<path fill="none" stroke="midnightblue" d="M150.254,-48.8575C158.616,-49.8975 167.184,-50.9631 175.711,-52.0237"/>
<polygon fill="midnightblue" stroke="midnightblue" points="150.528,-45.3647 140.173,-47.6036 149.664,-52.3112 150.528,-45.3647"/>
</g>
<!-- Node3 -->
<g id="node3" class="node"><title>Node3</title>
<g id="a_node3"><a xlink:href="classCSystemClass.html#ae6f4699f2c40ce3a72bde018aa4453ad" target="_top" xlink:title="Reset subsystems need to resync flag. ">
<polygon fill="white" stroke="black" points="185,-0 185,-30 361,-30 361,-0 185,-0"/>
<text text-anchor="start" x="193" y="-18" font-family="Verdana" font-size="10.00">CSystemClass::cleanSubsystems</text>
<text text-anchor="middle" x="273" y="-7" font-family="Verdana" font-size="10.00">NeedToResync</text>
</a>
</g>
</g>
<!-- Node1&#45;&gt;Node3 -->
<g id="edge2" class="edge"><title>Node1&#45;&gt;Node3</title>
<path fill="none" stroke="midnightblue" d="M150.107,-29.5544C161.542,-28.189 173.365,-26.7773 184.946,-25.3945"/>
<polygon fill="midnightblue" stroke="midnightblue" points="149.687,-26.0796 140.173,-30.7406 150.517,-33.0302 149.687,-26.0796"/>
</g>
<!-- Node4 -->
<g id="node4" class="node"><title>Node4</title>
<g id="a_node4"><a xlink:href="classCParameterMgr.html#aad4830a40d67cfae091cbf1a15ff29d0" target="_top" xlink:title="Load plugins, structures and settings from the config file given. ">
<polygon fill="white" stroke="black" points="406,-5.5 406,-24.5 524,-24.5 524,-5.5 406,-5.5"/>
<text text-anchor="middle" x="465" y="-12.5" font-family="Verdana" font-size="10.00">CParameterMgr::load</text>
</a>
</g>
</g>
<!-- Node3&#45;&gt;Node4 -->
<g id="edge3" class="edge"><title>Node3&#45;&gt;Node4</title>
<path fill="none" stroke="midnightblue" d="M371.515,-15C383.242,-15 394.917,-15 405.826,-15"/>
<polygon fill="midnightblue" stroke="midnightblue" points="371.215,-11.5001 361.215,-15 371.215,-18.5001 371.215,-11.5001"/>
</g>
</g>
</svg>
