<?xml version="1.0" encoding="UTF-8" standalone="no"?>
<!DOCTYPE svg PUBLIC "-//W3C//DTD SVG 1.1//EN"
 "http://www.w3.org/Graphics/SVG/1.1/DTD/svg11.dtd">
<!-- Generated by graphviz version 2.38.0 (20140413.2041)
 -->
<!-- Title: CConfigurableDomains::listConflictingElements Pages: 1 -->
<svg width="327pt" height="145pt"
 viewBox="0.00 0.00 327.00 144.50" xmlns="http://www.w3.org/2000/svg" xmlns:xlink="http://www.w3.org/1999/xlink">
<g id="graph0" class="graph" transform="scale(1 1) rotate(0) translate(4 140.5)">
<title>CConfigurableDomains::listConflictingElements</title>
<polygon fill="white" stroke="none" points="-4,4 -4,-140.5 323,-140.5 323,4 -4,4"/>
<!-- Node1 -->
<g id="node1" class="node"><title>Node1</title>
<polygon fill="#bfbfbf" stroke="black" points="0,-57 0,-87 131,-87 131,-57 0,-57"/>
<text text-anchor="start" x="8" y="-75" font-family="Verdana" font-size="10.00">CConfigurableDomains</text>
<text text-anchor="middle" x="65.5" y="-64" font-family="Verdana" font-size="10.00">::listConflictingElements</text>
</g>
<!-- Node2 -->
<g id="node2" class="node"><title>Node2</title>
<g id="a_node2"><a xlink:href="classCConfigurableElement.html#aef6b3524cacbbfdf7829b9126c8a8307" target="_top" xlink:title="CConfigurableElement\l::getBelongingDomainCount">
<polygon fill="white" stroke="black" points="167,-106 167,-136 319,-136 319,-106 167,-106"/>
<text text-anchor="start" x="175" y="-124" font-family="Verdana" font-size="10.00">CConfigurableElement</text>
<text text-anchor="middle" x="243" y="-113" font-family="Verdana" font-size="10.00">::getBelongingDomainCount</text>
</a>
</g>
</g>
<!-- Node1&#45;&gt;Node2 -->
<g id="edge1" class="edge"><title>Node1&#45;&gt;Node2</title>
<path fill="none" stroke="midnightblue" d="M120.588,-87.1014C138.856,-92.2019 159.418,-97.9429 178.356,-103.23"/>
<polygon fill="midnightblue" stroke="midnightblue" points="177.518,-106.63 188.091,-105.948 179.4,-99.8881 177.518,-106.63"/>
</g>
<!-- Node3 -->
<g id="node3" class="node"><title>Node3</title>
<g id="a_node3"><a xlink:href="classCConfigurableElement.html#ab1ec12abccb016ba545cba408d20fef9" target="_top" xlink:title="CConfigurableElement\l::listBelongingDomains">
<polygon fill="white" stroke="black" points="180,-57 180,-87 306,-87 306,-57 180,-57"/>
<text text-anchor="start" x="188" y="-75" font-family="Verdana" font-size="10.00">CConfigurableElement</text>
<text text-anchor="middle" x="243" y="-64" font-family="Verdana" font-size="10.00">::listBelongingDomains</text>
</a>
</g>
</g>
<!-- Node1&#45;&gt;Node3 -->
<g id="edge2" class="edge"><title>Node1&#45;&gt;Node3</title>
<path fill="none" stroke="midnightblue" d="M131.351,-72C143.833,-72 156.979,-72 169.68,-72"/>
<polygon fill="midnightblue" stroke="midnightblue" points="169.749,-75.5001 179.749,-72 169.749,-68.5001 169.749,-75.5001"/>
</g>
<!-- Node4 -->
<g id="node4" class="node"><title>Node4</title>
<g id="a_node4"><a xlink:href="classCElement.html#a7022c0fc8063f0aae9d97b06e74d4ac1" target="_top" xlink:title="CElement::getPath">
<polygon fill="white" stroke="black" points="190,-0.5 190,-19.5 296,-19.5 296,-0.5 190,-0.5"/>
<text text-anchor="middle" x="243" y="-7.5" font-family="Verdana" font-size="10.00">CElement::getPath</text>
</a>
</g>
</g>
<!-- Node1&#45;&gt;Node4 -->
<g id="edge3" class="edge"><title>Node1&#45;&gt;Node4</title>
<path fill="none" stroke="midnightblue" d="M108.984,-56.9915C138.476,-46.5726 177.362,-32.8349 205.466,-22.9066"/>
<polygon fill="midnightblue" stroke="midnightblue" points="206.661,-26.1966 214.924,-19.5654 204.329,-19.5963 206.661,-26.1966"/>
</g>
<!-- Node4&#45;&gt;Node4 -->
<g id="edge4" class="edge"><title>Node4&#45;&gt;Node4</title>
<path fill="none" stroke="midnightblue" d="M215.873,-19.7571C202.677,-28.5653 211.719,-38 243,-38 264.506,-38 275.5,-33.5406 275.983,-27.8913"/>
<polygon fill="midnightblue" stroke="midnightblue" points="278.81,-25.8273 270.127,-19.7571 273.129,-29.9175 278.81,-25.8273"/>
</g>
</g>
</svg>
