<?xml version="1.0" encoding="UTF-8" standalone="no"?>
<!DOCTYPE svg PUBLIC "-//W3C//DTD SVG 1.1//EN"
 "http://www.w3.org/Graphics/SVG/1.1/DTD/svg11.dtd">
<!-- Generated by graphviz version 2.38.0 (20140413.2041)
 -->
<!-- Title: CParameterMgrFullConnector::setApplicationRule Pages: 1 -->
<svg width="1595pt" height="337pt"
 viewBox="0.00 0.00 1595.00 336.50" xmlns="http://www.w3.org/2000/svg" xmlns:xlink="http://www.w3.org/1999/xlink">
<g id="graph0" class="graph" transform="scale(1 1) rotate(0) translate(4 332.5)">
<title>CParameterMgrFullConnector::setApplicationRule</title>
<polygon fill="white" stroke="none" points="-4,4 -4,-332.5 1591,-332.5 1591,4 -4,4"/>
<!-- Node1 -->
<g id="node1" class="node"><title>Node1</title>
<polygon fill="#bfbfbf" stroke="black" points="0,-221.5 0,-251.5 156,-251.5 156,-221.5 0,-221.5"/>
<text text-anchor="start" x="8" y="-239.5" font-family="Verdana" font-size="10.00">CParameterMgrFullConnector</text>
<text text-anchor="middle" x="78" y="-228.5" font-family="Verdana" font-size="10.00">::setApplicationRule</text>
</g>
<!-- Node2 -->
<g id="node2" class="node"><title>Node2</title>
<g id="a_node2"><a xlink:href="classCParameterMgr.html#af63f9ad7f792b2bf226afd791c1db70e" target="_top" xlink:title="CParameterMgr::setApplicationRule">
<polygon fill="white" stroke="black" points="192,-227 192,-246 377,-246 377,-227 192,-227"/>
<text text-anchor="middle" x="284.5" y="-234" font-family="Verdana" font-size="10.00">CParameterMgr::setApplicationRule</text>
</a>
</g>
</g>
<!-- Node1&#45;&gt;Node2 -->
<g id="edge1" class="edge"><title>Node1&#45;&gt;Node2</title>
<path fill="none" stroke="midnightblue" d="M156.021,-236.5C164.403,-236.5 173.026,-236.5 181.646,-236.5"/>
<polygon fill="midnightblue" stroke="midnightblue" points="181.748,-240 191.748,-236.5 181.748,-233 181.748,-240"/>
</g>
<!-- Node3 -->
<g id="node3" class="node"><title>Node3</title>
<g id="a_node3"><a xlink:href="classCConfigurableDomains.html#ac2b2354eecc80c7ca4a71fe2f40606ed" target="_top" xlink:title="CConfigurableDomains\l::setApplicationRule">
<polygon fill="white" stroke="black" points="431,-246.5 431,-276.5 557,-276.5 557,-246.5 431,-246.5"/>
<text text-anchor="start" x="439" y="-264.5" font-family="Verdana" font-size="10.00">CConfigurableDomains</text>
<text text-anchor="middle" x="494" y="-253.5" font-family="Verdana" font-size="10.00">::setApplicationRule</text>
</a>
</g>
</g>
<!-- Node2&#45;&gt;Node3 -->
<g id="edge2" class="edge"><title>Node2&#45;&gt;Node3</title>
<path fill="none" stroke="midnightblue" d="M364.539,-246.023C383.093,-248.258 402.766,-250.628 420.993,-252.824"/>
<polygon fill="midnightblue" stroke="midnightblue" points="420.607,-256.303 430.954,-254.025 421.444,-249.353 420.607,-256.303"/>
</g>
<!-- Node22 -->
<g id="node22" class="node"><title>Node22</title>
<g id="a_node22"><a xlink:href="classCSelectionCriteria.html#aa87e3488047e305e72d84d5aa0ed3e08" target="_top" xlink:title="CSelectionCriteria\l::getSelectionCriteriaDefinition">
<polygon fill="white" stroke="black" points="413,-197.5 413,-227.5 575,-227.5 575,-197.5 413,-197.5"/>
<text text-anchor="start" x="421" y="-215.5" font-family="Verdana" font-size="10.00">CSelectionCriteria</text>
<text text-anchor="middle" x="494" y="-204.5" font-family="Verdana" font-size="10.00">::getSelectionCriteriaDefinition</text>
</a>
</g>
</g>
<!-- Node2&#45;&gt;Node22 -->
<g id="edge23" class="edge"><title>Node2&#45;&gt;Node22</title>
<path fill="none" stroke="midnightblue" d="M367.808,-226.98C379.272,-225.654 391.102,-224.286 402.703,-222.944"/>
<polygon fill="midnightblue" stroke="midnightblue" points="403.293,-226.399 412.824,-221.773 402.488,-219.446 403.293,-226.399"/>
</g>
<!-- Node4 -->
<g id="node4" class="node"><title>Node4</title>
<g id="a_node4"><a xlink:href="classCConfigurableDomain.html#ab28e6a66ae7197d4fa131193f32891f4" target="_top" xlink:title="CConfigurableDomain\l::setApplicationRule">
<polygon fill="white" stroke="black" points="611,-246.5 611,-276.5 732,-276.5 732,-246.5 611,-246.5"/>
<text text-anchor="start" x="619" y="-264.5" font-family="Verdana" font-size="10.00">CConfigurableDomain</text>
<text text-anchor="middle" x="671.5" y="-253.5" font-family="Verdana" font-size="10.00">::setApplicationRule</text>
</a>
</g>
</g>
<!-- Node3&#45;&gt;Node4 -->
<g id="edge3" class="edge"><title>Node3&#45;&gt;Node4</title>
<path fill="none" stroke="midnightblue" d="M557.369,-261.5C571.401,-261.5 586.382,-261.5 600.696,-261.5"/>
<polygon fill="midnightblue" stroke="midnightblue" points="600.979,-265 610.979,-261.5 600.978,-258 600.979,-265"/>
</g>
<!-- Node5 -->
<g id="node5" class="node"><title>Node5</title>
<g id="a_node5"><a xlink:href="classCDomainConfiguration.html#a3b12c8d561b1e468bd03214326bdf450" target="_top" xlink:title="CDomainConfiguration\l::setApplicationRule">
<polygon fill="white" stroke="black" points="768,-246.5 768,-276.5 893,-276.5 893,-246.5 768,-246.5"/>
<text text-anchor="start" x="776" y="-264.5" font-family="Verdana" font-size="10.00">CDomainConfiguration</text>
<text text-anchor="middle" x="830.5" y="-253.5" font-family="Verdana" font-size="10.00">::setApplicationRule</text>
</a>
</g>
</g>
<!-- Node4&#45;&gt;Node5 -->
<g id="edge4" class="edge"><title>Node4&#45;&gt;Node5</title>
<path fill="none" stroke="midnightblue" d="M732.303,-261.5C740.558,-261.5 749.107,-261.5 757.553,-261.5"/>
<polygon fill="midnightblue" stroke="midnightblue" points="757.779,-265 767.779,-261.5 757.779,-258 757.779,-265"/>
</g>
<!-- Node6 -->
<g id="node6" class="node"><title>Node6</title>
<g id="a_node6"><a xlink:href="classCRuleParser.html#a04260c30f05a16437df6fa9e5f4865ba" target="_top" xlink:title="CRuleParser::CRuleParser">
<polygon fill="white" stroke="black" points="932,-308 932,-327 1067,-327 1067,-308 932,-308"/>
<text text-anchor="middle" x="999.5" y="-315" font-family="Verdana" font-size="10.00">CRuleParser::CRuleParser</text>
</a>
</g>
</g>
<!-- Node5&#45;&gt;Node6 -->
<g id="edge5" class="edge"><title>Node5&#45;&gt;Node6</title>
<path fill="none" stroke="midnightblue" d="M868.704,-276.578C886.762,-283.65 908.858,-291.942 929,-298.5 936.195,-300.843 943.87,-303.139 951.397,-305.28"/>
<polygon fill="midnightblue" stroke="midnightblue" points="950.581,-308.686 961.154,-307.997 952.459,-301.943 950.581,-308.686"/>
</g>
<!-- Node7 -->
<g id="node7" class="node"><title>Node7</title>
<g id="a_node7"><a xlink:href="classCRuleParser.html#acbce516a22f0dca0af620e751d298f7a" target="_top" xlink:title="CRuleParser::parse">
<polygon fill="white" stroke="black" points="946.5,-252 946.5,-271 1052.5,-271 1052.5,-252 946.5,-252"/>
<text text-anchor="middle" x="999.5" y="-259" font-family="Verdana" font-size="10.00">CRuleParser::parse</text>
</a>
</g>
</g>
<!-- Node5&#45;&gt;Node7 -->
<g id="edge6" class="edge"><title>Node5&#45;&gt;Node7</title>
<path fill="none" stroke="midnightblue" d="M893.21,-261.5C907.266,-261.5 922.208,-261.5 936.285,-261.5"/>
<polygon fill="midnightblue" stroke="midnightblue" points="936.358,-265 946.358,-261.5 936.358,-258 936.358,-265"/>
</g>
<!-- Node21 -->
<g id="node21" class="node"><title>Node21</title>
<g id="a_node21"><a xlink:href="classCRuleParser.html#a89407cd2535589d81d1d5beba1e51544" target="_top" xlink:title="CRuleParser::grabRootRule">
<polygon fill="white" stroke="black" points="929,-214 929,-233 1070,-233 1070,-214 929,-214"/>
<text text-anchor="middle" x="999.5" y="-221" font-family="Verdana" font-size="10.00">CRuleParser::grabRootRule</text>
</a>
</g>
</g>
<!-- Node5&#45;&gt;Node21 -->
<g id="edge22" class="edge"><title>Node5&#45;&gt;Node21</title>
<path fill="none" stroke="midnightblue" d="M893.21,-247.458C910.677,-243.484 929.511,-239.198 946.354,-235.366"/>
<polygon fill="midnightblue" stroke="midnightblue" points="947.579,-238.676 956.553,-233.045 946.026,-231.851 947.579,-238.676"/>
</g>
<!-- Node7&#45;&gt;Node7 -->
<g id="edge11" class="edge"><title>Node7&#45;&gt;Node7</title>
<path fill="none" stroke="midnightblue" d="M973.606,-271.257C961.009,-280.065 969.641,-289.5 999.5,-289.5 1019.56,-289.5 1030.04,-285.241 1030.94,-279.775"/>
<polygon fill="midnightblue" stroke="midnightblue" points="1033.78,-277.729 1025.39,-271.257 1027.92,-281.548 1033.78,-277.729"/>
</g>
<!-- Node8 -->
<g id="node8" class="node"><title>Node8</title>
<g id="a_node8"><a xlink:href="classCRuleParser.html#ac7faca228556fb47a33ccb95e15ce6d6" target="_top" xlink:title="CRuleParser::iterate">
<polygon fill="white" stroke="black" points="1115,-309 1115,-328 1225,-328 1225,-309 1115,-309"/>
<text text-anchor="middle" x="1170" y="-316" font-family="Verdana" font-size="10.00">CRuleParser::iterate</text>
</a>
</g>
</g>
<!-- Node7&#45;&gt;Node8 -->
<g id="edge7" class="edge"><title>Node7&#45;&gt;Node8</title>
<path fill="none" stroke="midnightblue" d="M1025.95,-271.094C1047.24,-279.015 1078.46,-290.394 1106,-299.5 1112.56,-301.669 1119.53,-303.873 1126.36,-305.975"/>
<polygon fill="midnightblue" stroke="midnightblue" points="1125.61,-309.405 1136.2,-308.965 1127.65,-302.707 1125.61,-309.405"/>
</g>
<!-- Node9 -->
<g id="node9" class="node"><title>Node9</title>
<g id="a_node9"><a xlink:href="classCCompoundRule.html#ab66d3bbb9bd8b229e1644a5eb87f7fa7" target="_top" xlink:title="CCompoundRule::parse">
<polygon fill="white" stroke="black" points="1106,-271 1106,-290 1234,-290 1234,-271 1106,-271"/>
<text text-anchor="middle" x="1170" y="-278" font-family="Verdana" font-size="10.00">CCompoundRule::parse</text>
</a>
</g>
</g>
<!-- Node7&#45;&gt;Node9 -->
<g id="edge8" class="edge"><title>Node7&#45;&gt;Node9</title>
<path fill="none" stroke="midnightblue" d="M1052.89,-267.408C1066.55,-268.948 1081.52,-270.635 1096.03,-272.272"/>
<polygon fill="midnightblue" stroke="midnightblue" points="1095.65,-275.752 1105.98,-273.394 1096.44,-268.796 1095.65,-275.752"/>
</g>
<!-- Node11 -->
<g id="node11" class="node"><title>Node11</title>
<g id="a_node11"><a xlink:href="classCElement.html#ac2ad66ee438a4a0c1390b7388874fe72" target="_top" xlink:title="CElement::addChild">
<polygon fill="white" stroke="black" points="1115,-233 1115,-252 1225,-252 1225,-233 1115,-233"/>
<text text-anchor="middle" x="1170" y="-240" font-family="Verdana" font-size="10.00">CElement::addChild</text>
</a>
</g>
</g>
<!-- Node7&#45;&gt;Node11 -->
<g id="edge10" class="edge"><title>Node7&#45;&gt;Node11</title>
<path fill="none" stroke="midnightblue" d="M1052.89,-255.592C1069.37,-253.735 1087.75,-251.662 1104.94,-249.724"/>
<polygon fill="midnightblue" stroke="midnightblue" points="1105.35,-253.199 1114.9,-248.601 1104.57,-246.243 1105.35,-253.199"/>
</g>
<!-- Node12 -->
<g id="node12" class="node"><title>Node12</title>
<g id="a_node12"><a xlink:href="classCSelectionCriterionRule.html#a9fa6c6fcf97c803ffb535843ca0e0637" target="_top" xlink:title="CSelectionCriterionRule\l::parse">
<polygon fill="white" stroke="black" points="1106,-156.5 1106,-186.5 1234,-186.5 1234,-156.5 1106,-156.5"/>
<text text-anchor="start" x="1114" y="-174.5" font-family="Verdana" font-size="10.00">CSelectionCriterionRule</text>
<text text-anchor="middle" x="1170" y="-163.5" font-family="Verdana" font-size="10.00">::parse</text>
</a>
</g>
</g>
<!-- Node7&#45;&gt;Node12 -->
<g id="edge12" class="edge"><title>Node7&#45;&gt;Node12</title>
<path fill="none" stroke="midnightblue" d="M1044.73,-251.948C1053.32,-249.392 1062.09,-246.265 1070,-242.5 1097.28,-229.507 1124.94,-208.905 1144.07,-193.232"/>
<polygon fill="midnightblue" stroke="midnightblue" points="1146.53,-195.734 1151.97,-186.639 1142.05,-190.36 1146.53,-195.734"/>
</g>
<!-- Node10 -->
<g id="node10" class="node"><title>Node10</title>
<g id="a_node10"><a xlink:href="classCRuleParser.html#ae574ae0109f76cc624590bd4899e0a91" target="_top" xlink:title="CRuleParser::getType">
<polygon fill="white" stroke="black" points="1295.5,-285 1295.5,-304 1411.5,-304 1411.5,-285 1295.5,-285"/>
<text text-anchor="middle" x="1353.5" y="-292" font-family="Verdana" font-size="10.00">CRuleParser::getType</text>
</a>
</g>
</g>
<!-- Node9&#45;&gt;Node10 -->
<g id="edge9" class="edge"><title>Node9&#45;&gt;Node10</title>
<path fill="none" stroke="midnightblue" d="M1234.23,-285.377C1250.66,-286.645 1268.43,-288.015 1285.07,-289.299"/>
<polygon fill="midnightblue" stroke="midnightblue" points="1285.03,-292.806 1295.27,-290.085 1285.57,-285.827 1285.03,-292.806"/>
</g>
<!-- Node12&#45;&gt;Node10 -->
<g id="edge16" class="edge"><title>Node12&#45;&gt;Node10</title>
<path fill="none" stroke="midnightblue" d="M1192.11,-186.579C1204.98,-196.321 1221.33,-209.716 1234,-223.5 1253.02,-244.198 1246.73,-259.726 1270,-275.5 1274.83,-278.776 1280.15,-281.493 1285.69,-283.745"/>
<polygon fill="midnightblue" stroke="midnightblue" points="1284.57,-287.063 1295.17,-287.114 1286.92,-280.467 1284.57,-287.063"/>
</g>
<!-- Node13 -->
<g id="node13" class="node"><title>Node13</title>
<g id="a_node13"><a xlink:href="classCRuleParser.html#af179ac22a54025386da02a5bdb33b253" target="_top" xlink:title="CRuleParser::getSelection\lCriteriaDefinition">
<polygon fill="white" stroke="black" points="1284,-235.5 1284,-265.5 1423,-265.5 1423,-235.5 1284,-235.5"/>
<text text-anchor="start" x="1292" y="-253.5" font-family="Verdana" font-size="10.00">CRuleParser::getSelection</text>
<text text-anchor="middle" x="1353.5" y="-242.5" font-family="Verdana" font-size="10.00">CriteriaDefinition</text>
</a>
</g>
</g>
<!-- Node12&#45;&gt;Node13 -->
<g id="edge13" class="edge"><title>Node12&#45;&gt;Node13</title>
<path fill="none" stroke="midnightblue" d="M1194.65,-186.627C1214.25,-198.667 1243.14,-215.3 1270,-226.5 1274.78,-228.494 1279.79,-230.389 1284.86,-232.175"/>
<polygon fill="midnightblue" stroke="midnightblue" points="1284.08,-235.605 1294.67,-235.472 1286.31,-228.969 1284.08,-235.605"/>
</g>
<!-- Node14 -->
<g id="node14" class="node"><title>Node14</title>
<g id="a_node14"><a xlink:href="classCSelectionCriteriaDefinition.html#ade9c9f7fe7806988d3d922bf615e5994" target="_top" xlink:title="CSelectionCriteriaDefinition\l::getSelectionCriterion">
<polygon fill="white" stroke="black" points="1280,-186.5 1280,-216.5 1427,-216.5 1427,-186.5 1280,-186.5"/>
<text text-anchor="start" x="1288" y="-204.5" font-family="Verdana" font-size="10.00">CSelectionCriteriaDefinition</text>
<text text-anchor="middle" x="1353.5" y="-193.5" font-family="Verdana" font-size="10.00">::getSelectionCriterion</text>
</a>
</g>
</g>
<!-- Node12&#45;&gt;Node14 -->
<g id="edge14" class="edge"><title>Node12&#45;&gt;Node14</title>
<path fill="none" stroke="midnightblue" d="M1234.23,-181.95C1245.73,-183.853 1257.9,-185.863 1269.87,-187.842"/>
<polygon fill="midnightblue" stroke="midnightblue" points="1269.42,-191.316 1279.86,-189.494 1270.57,-184.41 1269.42,-191.316"/>
</g>
<!-- Node16 -->
<g id="node16" class="node"><title>Node16</title>
<g id="a_node16"><a xlink:href="classCRuleParser.html#a7f6198bd3656599e15aee6860c1bf4d7" target="_top" xlink:title="CRuleParser::next">
<polygon fill="white" stroke="black" points="1303.5,-148 1303.5,-167 1403.5,-167 1403.5,-148 1303.5,-148"/>
<text text-anchor="middle" x="1353.5" y="-155" font-family="Verdana" font-size="10.00">CRuleParser::next</text>
</a>
</g>
</g>
<!-- Node12&#45;&gt;Node16 -->
<g id="edge17" class="edge"><title>Node12&#45;&gt;Node16</title>
<path fill="none" stroke="midnightblue" d="M1234.23,-166.623C1253.3,-165.152 1274.17,-163.542 1293,-162.09"/>
<polygon fill="midnightblue" stroke="midnightblue" points="1293.52,-165.56 1303.22,-161.301 1292.98,-158.581 1293.52,-165.56"/>
</g>
<!-- Node17 -->
<g id="node17" class="node"><title>Node17</title>
<g id="a_node17"><a xlink:href="classCSelectionCriterion.html#a68f922bffc18811306eb3da52c340289" target="_top" xlink:title="CSelectionCriterion\l::getCriterionType">
<polygon fill="white" stroke="black" points="1299.5,-98.5 1299.5,-128.5 1407.5,-128.5 1407.5,-98.5 1299.5,-98.5"/>
<text text-anchor="start" x="1307.5" y="-116.5" font-family="Verdana" font-size="10.00">CSelectionCriterion</text>
<text text-anchor="middle" x="1353.5" y="-105.5" font-family="Verdana" font-size="10.00">::getCriterionType</text>
</a>
</g>
</g>
<!-- Node12&#45;&gt;Node17 -->
<g id="edge18" class="edge"><title>Node12&#45;&gt;Node17</title>
<path fill="none" stroke="midnightblue" d="M1215.27,-156.455C1232.34,-150.729 1252.04,-144.212 1270,-138.5 1277.14,-136.229 1284.64,-133.89 1292.09,-131.596"/>
<polygon fill="midnightblue" stroke="midnightblue" points="1293.28,-134.892 1301.82,-128.617 1291.23,-128.199 1293.28,-134.892"/>
</g>
<!-- Node18 -->
<g id="node18" class="node"><title>Node18</title>
<g id="a_node18"><a xlink:href="classISelectionCriterionTypeInterface.html#aa28678ff4fb9acb1e216f1edaccdf85f" target="_top" xlink:title="ISelectionCriterionTypeInterface\l::getNumericalValue">
<polygon fill="white" stroke="black" points="1270,-49.5 1270,-79.5 1437,-79.5 1437,-49.5 1270,-49.5"/>
<text text-anchor="start" x="1278" y="-67.5" font-family="Verdana" font-size="10.00">ISelectionCriterionTypeInterface</text>
<text text-anchor="middle" x="1353.5" y="-56.5" font-family="Verdana" font-size="10.00">::getNumericalValue</text>
</a>
</g>
</g>
<!-- Node12&#45;&gt;Node18 -->
<g id="edge19" class="edge"><title>Node12&#45;&gt;Node18</title>
<path fill="none" stroke="midnightblue" d="M1185.38,-156.356C1203.5,-138.081 1236.38,-107.561 1270,-89.5 1274.15,-87.2711 1278.52,-85.2124 1283.01,-83.3158"/>
<polygon fill="midnightblue" stroke="midnightblue" points="1284.3,-86.5676 1292.33,-79.6476 1281.74,-80.0542 1284.3,-86.5676"/>
</g>
<!-- Node19 -->
<g id="node19" class="node"><title>Node19</title>
<g id="a_node19"><a xlink:href="classCSelectionCriterion.html#aa7d73b79a9ee5ce47153dd52f9bbcc71" target="_top" xlink:title="CSelectionCriterion\l::getCriterionName">
<polygon fill="white" stroke="black" points="1299.5,-0.5 1299.5,-30.5 1407.5,-30.5 1407.5,-0.5 1299.5,-0.5"/>
<text text-anchor="start" x="1307.5" y="-18.5" font-family="Verdana" font-size="10.00">CSelectionCriterion</text>
<text text-anchor="middle" x="1353.5" y="-7.5" font-family="Verdana" font-size="10.00">::getCriterionName</text>
</a>
</g>
</g>
<!-- Node12&#45;&gt;Node19 -->
<g id="edge20" class="edge"><title>Node12&#45;&gt;Node19</title>
<path fill="none" stroke="midnightblue" d="M1178.27,-156.476C1192.21,-129.237 1225.34,-71.6444 1270,-40.5 1275.99,-36.3214 1282.7,-32.8274 1289.63,-29.9088"/>
<polygon fill="midnightblue" stroke="midnightblue" points="1291.07,-33.1044 1299.17,-26.2753 1288.58,-26.5625 1291.07,-33.1044"/>
</g>
<!-- Node15 -->
<g id="node15" class="node"><title>Node15</title>
<g id="a_node15"><a xlink:href="classCElement.html#a8595814a3159f32f874269907e70b260" target="_top" xlink:title="CElement::findChild">
<polygon fill="white" stroke="black" points="1475,-192 1475,-211 1585,-211 1585,-192 1475,-192"/>
<text text-anchor="middle" x="1530" y="-199" font-family="Verdana" font-size="10.00">CElement::findChild</text>
</a>
</g>
</g>
<!-- Node14&#45;&gt;Node15 -->
<g id="edge15" class="edge"><title>Node14&#45;&gt;Node15</title>
<path fill="none" stroke="midnightblue" d="M1427.24,-201.5C1439.73,-201.5 1452.64,-201.5 1464.88,-201.5"/>
<polygon fill="midnightblue" stroke="midnightblue" points="1464.99,-205 1474.99,-201.5 1464.99,-198 1464.99,-205"/>
</g>
<!-- Node20 -->
<g id="node20" class="node"><title>Node20</title>
<g id="a_node20"><a xlink:href="classCElement.html#a49581fb6412e29e932962acd82d52d6a" target="_top" xlink:title="CElement::getName">
<polygon fill="white" stroke="black" points="1473,-6 1473,-25 1587,-25 1587,-6 1473,-6"/>
<text text-anchor="middle" x="1530" y="-13" font-family="Verdana" font-size="10.00">CElement::getName</text>
</a>
</g>
</g>
<!-- Node19&#45;&gt;Node20 -->
<g id="edge21" class="edge"><title>Node19&#45;&gt;Node20</title>
<path fill="none" stroke="midnightblue" d="M1407.8,-15.5C1425.14,-15.5 1444.6,-15.5 1462.77,-15.5"/>
<polygon fill="midnightblue" stroke="midnightblue" points="1463,-19.0001 1473,-15.5 1463,-12.0001 1463,-19.0001"/>
</g>
</g>
</svg>
