<?xml version="1.0" encoding="UTF-8" standalone="no"?>
<!DOCTYPE svg PUBLIC "-//W3C//DTD SVG 1.1//EN"
 "http://www.w3.org/Graphics/SVG/1.1/DTD/svg11.dtd">
<!-- Generated by graphviz version 2.38.0 (20140413.2041)
 -->
<!-- Title: core::log::Logger::info Pages: 1 -->
<svg width="295pt" height="176pt"
 viewBox="0.00 0.00 295.00 176.00" xmlns="http://www.w3.org/2000/svg" xmlns:xlink="http://www.w3.org/1999/xlink">
<g id="graph0" class="graph" transform="scale(1 1) rotate(0) translate(4 172)">
<title>core::log::Logger::info</title>
<polygon fill="white" stroke="none" points="-4,4 -4,-172 291,-172 291,4 -4,4"/>
<!-- Node1 -->
<g id="node1" class="node"><title>Node1</title>
<polygon fill="#bfbfbf" stroke="black" points="0,-72 0,-91 120,-91 120,-72 0,-72"/>
<text text-anchor="middle" x="60" y="-79" font-family="Verdana" font-size="10.00">core::log::Logger::info</text>
</g>
<!-- Node2 -->
<g id="node2" class="node"><title>Node2</title>
<g id="a_node2"><a xlink:href="classcore_1_1log_1_1Context.html#a09319c971f1c9db5b8603eb0911d7941" target="_top" xlink:title="Class Constructor. ">
<polygon fill="white" stroke="black" points="171,-137.5 171,-167.5 272,-167.5 272,-137.5 171,-137.5"/>
<text text-anchor="start" x="179" y="-155.5" font-family="Verdana" font-size="10.00">core::log::Context</text>
<text text-anchor="middle" x="221.5" y="-144.5" font-family="Verdana" font-size="10.00">::Context</text>
</a>
</g>
</g>
<!-- Node1&#45;&gt;Node2 -->
<g id="edge1" class="edge"><title>Node1&#45;&gt;Node2</title>
<path fill="none" stroke="midnightblue" d="M87.8474,-95.7086C106.685,-105.448 132.59,-118.386 156,-128.5 163.129,-131.58 170.796,-134.643 178.269,-137.5"/>
<polygon fill="midnightblue" stroke="midnightblue" points="89.4367,-92.5901 78.9507,-91.0748 86.203,-98.7984 89.4367,-92.5901"/>
</g>
<!-- Node3 -->
<g id="node3" class="node"><title>Node3</title>
<g id="a_node3"><a xlink:href="classcore_1_1log_1_1Context.html#a0dfe4165afd796f76822f618505ccfe3" target="_top" xlink:title="Class Destructor. ">
<polygon fill="white" stroke="black" points="171,-88.5 171,-118.5 272,-118.5 272,-88.5 171,-88.5"/>
<text text-anchor="start" x="179" y="-106.5" font-family="Verdana" font-size="10.00">core::log::Context</text>
<text text-anchor="middle" x="221.5" y="-95.5" font-family="Verdana" font-size="10.00">::~Context</text>
</a>
</g>
</g>
<!-- Node1&#45;&gt;Node3 -->
<g id="edge2" class="edge"><title>Node1&#45;&gt;Node3</title>
<path fill="none" stroke="midnightblue" d="M130.669,-91.1095C144.245,-92.982 158.216,-94.9091 170.976,-96.6691"/>
<polygon fill="midnightblue" stroke="midnightblue" points="130.776,-87.5913 120.392,-89.692 129.82,-94.5256 130.776,-87.5913"/>
</g>
<!-- Node4 -->
<g id="node4" class="node"><title>Node4</title>
<g id="a_node4"><a xlink:href="classCSubsystemObject.html#adb6a150b1e47d9815c71c413c8e4dd99" target="_top" xlink:title="Logging methods. ">
<polygon fill="white" stroke="black" points="156,-50 156,-69 287,-69 287,-50 156,-50"/>
<text text-anchor="middle" x="221.5" y="-57" font-family="Verdana" font-size="10.00">CSubsystemObject::info</text>
</a>
</g>
</g>
<!-- Node1&#45;&gt;Node4 -->
<g id="edge3" class="edge"><title>Node1&#45;&gt;Node4</title>
<path fill="none" stroke="midnightblue" d="M130.304,-71.9408C138.831,-70.7646 147.521,-69.5661 155.974,-68.4002"/>
<polygon fill="midnightblue" stroke="midnightblue" points="129.82,-68.4744 120.392,-73.308 130.776,-75.4087 129.82,-68.4744"/>
</g>
<!-- Node5 -->
<g id="node5" class="node"><title>Node5</title>
<g id="a_node5"><a xlink:href="classCSelectionCriterion.html#a9de488f252ad2b33b2cfe843496d47ba" target="_top" xlink:title="From ISelectionCriterionInterface. ">
<polygon fill="white" stroke="black" points="167.5,-0.5 167.5,-30.5 275.5,-30.5 275.5,-0.5 167.5,-0.5"/>
<text text-anchor="start" x="175.5" y="-18.5" font-family="Verdana" font-size="10.00">CSelectionCriterion</text>
<text text-anchor="middle" x="221.5" y="-7.5" font-family="Verdana" font-size="10.00">::setCriterionState</text>
</a>
</g>
</g>
<!-- Node1&#45;&gt;Node5 -->
<g id="edge4" class="edge"><title>Node1&#45;&gt;Node5</title>
<path fill="none" stroke="midnightblue" d="M91.813,-67.8528C110.343,-59.7331 134.44,-49.3271 156,-40.5 164.002,-37.2237 172.605,-33.8128 180.838,-30.6022"/>
<polygon fill="midnightblue" stroke="midnightblue" points="90.1548,-64.7584 82.4087,-71.9867 92.9717,-71.1667 90.1548,-64.7584"/>
</g>
</g>
</svg>
