<?xml version="1.0" encoding="UTF-8" standalone="no"?>
<!DOCTYPE svg PUBLIC "-//W3C//DTD SVG 1.1//EN"
 "http://www.w3.org/Graphics/SVG/1.1/DTD/svg11.dtd">
<!-- Generated by graphviz version 2.36.0 (20140111.2315)
 -->
<!-- Title: CRuleParser::getSelectionCriteriaDefinition Pages: 1 -->
<svg width="1158pt" height="38pt"
 viewBox="0.00 0.00 1158.00 38.00" xmlns="http://www.w3.org/2000/svg" xmlns:xlink="http://www.w3.org/1999/xlink">
<g id="graph0" class="graph" transform="scale(1 1) rotate(0) translate(4 34)">
<title>CRuleParser::getSelectionCriteriaDefinition</title>
<polygon fill="white" stroke="none" points="-4,4 -4,-34 1154,-34 1154,4 -4,4"/>
<!-- Node1 -->
<g id="node1" class="node"><title>Node1</title>
<polygon fill="#bfbfbf" stroke="black" points="0.5,-0 0.5,-30 139.5,-30 139.5,-0 0.5,-0"/>
<text text-anchor="start" x="8.5" y="-18" font-family="Verdana" font-size="10.00">CRuleParser::getSelection</text>
<text text-anchor="middle" x="70" y="-7" font-family="Verdana" font-size="10.00">CriteriaDefinition</text>
</g>
<!-- Node2 -->
<g id="node2" class="node"><title>Node2</title>
<g id="a_node2"><a xlink:href="classCSelectionCriterionRule.html#a4ee8e0274ac8c7bf5a2452002aa7ae0e" target="_top" xlink:title="CSelectionCriterionRule\l::parse">
<polygon fill="white" stroke="black" points="176,-0 176,-30 304,-30 304,-0 176,-0"/>
<text text-anchor="start" x="184" y="-18" font-family="Verdana" font-size="10.00">CSelectionCriterionRule</text>
<text text-anchor="middle" x="240" y="-7" font-family="Verdana" font-size="10.00">::parse</text>
</a>
</g>
</g>
<!-- Node1&#45;&gt;Node2 -->
<g id="edge1" class="edge"><title>Node1&#45;&gt;Node2</title>
<path fill="none" stroke="midnightblue" d="M149.987,-15C158.699,-15 167.482,-15 175.961,-15"/>
<polygon fill="midnightblue" stroke="midnightblue" points="149.817,-11.5001 139.817,-15 149.817,-18.5001 149.817,-11.5001"/>
</g>
<!-- Node3 -->
<g id="node3" class="node"><title>Node3</title>
<g id="a_node3"><a xlink:href="classCRuleParser.html#acbce516a22f0dca0af620e751d298f7a" target="_top" xlink:title="CRuleParser::parse">
<polygon fill="white" stroke="black" points="340,-5.5 340,-24.5 446,-24.5 446,-5.5 340,-5.5"/>
<text text-anchor="middle" x="393" y="-12.5" font-family="Verdana" font-size="10.00">CRuleParser::parse</text>
</a>
</g>
</g>
<!-- Node2&#45;&gt;Node3 -->
<g id="edge2" class="edge"><title>Node2&#45;&gt;Node3</title>
<path fill="none" stroke="midnightblue" d="M314.19,-15C322.769,-15 331.389,-15 339.605,-15"/>
<polygon fill="midnightblue" stroke="midnightblue" points="314.163,-11.5001 304.163,-15 314.163,-18.5001 314.163,-11.5001"/>
</g>
<!-- Node4 -->
<g id="node4" class="node"><title>Node4</title>
<g id="a_node4"><a xlink:href="classCDomainConfiguration.html#a3b12c8d561b1e468bd03214326bdf450" target="_top" xlink:title="CDomainConfiguration\l::setApplicationRule">
<polygon fill="white" stroke="black" points="482.5,-0 482.5,-30 607.5,-30 607.5,-0 482.5,-0"/>
<text text-anchor="start" x="490.5" y="-18" font-family="Verdana" font-size="10.00">CDomainConfiguration</text>
<text text-anchor="middle" x="545" y="-7" font-family="Verdana" font-size="10.00">::setApplicationRule</text>
</a>
</g>
</g>
<!-- Node3&#45;&gt;Node4 -->
<g id="edge3" class="edge"><title>Node3&#45;&gt;Node4</title>
<path fill="none" stroke="midnightblue" d="M456.061,-15C464.712,-15 473.601,-15 482.247,-15"/>
<polygon fill="midnightblue" stroke="midnightblue" points="456.042,-11.5001 446.042,-15 456.042,-18.5001 456.042,-11.5001"/>
</g>
<!-- Node5 -->
<g id="node5" class="node"><title>Node5</title>
<g id="a_node5"><a xlink:href="classCConfigurableDomain.html#ab28e6a66ae7197d4fa131193f32891f4" target="_top" xlink:title="CConfigurableDomain\l::setApplicationRule">
<polygon fill="white" stroke="black" points="644.5,-0 644.5,-30 765.5,-30 765.5,-0 644.5,-0"/>
<text text-anchor="start" x="652.5" y="-18" font-family="Verdana" font-size="10.00">CConfigurableDomain</text>
<text text-anchor="middle" x="705" y="-7" font-family="Verdana" font-size="10.00">::setApplicationRule</text>
</a>
</g>
</g>
<!-- Node4&#45;&gt;Node5 -->
<g id="edge4" class="edge"><title>Node4&#45;&gt;Node5</title>
<path fill="none" stroke="midnightblue" d="M617.595,-15C626.572,-15 635.678,-15 644.443,-15"/>
<polygon fill="midnightblue" stroke="midnightblue" points="617.539,-11.5001 607.539,-15 617.539,-18.5001 617.539,-11.5001"/>
</g>
<!-- Node6 -->
<g id="node6" class="node"><title>Node6</title>
<g id="a_node6"><a xlink:href="classCConfigurableDomains.html#ac2b2354eecc80c7ca4a71fe2f40606ed" target="_top" xlink:title="CConfigurableDomains\l::setApplicationRule">
<polygon fill="white" stroke="black" points="802,-0 802,-30 928,-30 928,-0 802,-0"/>
<text text-anchor="start" x="810" y="-18" font-family="Verdana" font-size="10.00">CConfigurableDomains</text>
<text text-anchor="middle" x="865" y="-7" font-family="Verdana" font-size="10.00">::setApplicationRule</text>
</a>
</g>
</g>
<!-- Node5&#45;&gt;Node6 -->
<g id="edge5" class="edge"><title>Node5&#45;&gt;Node6</title>
<path fill="none" stroke="midnightblue" d="M775.807,-15C784.468,-15 793.279,-15 801.815,-15"/>
<polygon fill="midnightblue" stroke="midnightblue" points="775.733,-11.5001 765.733,-15 775.733,-18.5001 775.733,-11.5001"/>
</g>
<!-- Node7 -->
<g id="node7" class="node"><title>Node7</title>
<g id="a_node7"><a xlink:href="classCParameterMgr.html#af63f9ad7f792b2bf226afd791c1db70e" target="_top" xlink:title="CParameterMgr::setApplicationRule">
<polygon fill="white" stroke="black" points="964.5,-5.5 964.5,-24.5 1149.5,-24.5 1149.5,-5.5 964.5,-5.5"/>
<text text-anchor="middle" x="1057" y="-12.5" font-family="Verdana" font-size="10.00">CParameterMgr::setApplicationRule</text>
</a>
</g>
</g>
<!-- Node6&#45;&gt;Node7 -->
<g id="edge6" class="edge"><title>Node6&#45;&gt;Node7</title>
<path fill="none" stroke="midnightblue" d="M938.421,-15C946.91,-15 955.654,-15 964.361,-15"/>
<polygon fill="midnightblue" stroke="midnightblue" points="938.213,-11.5001 928.213,-15 938.213,-18.5001 938.213,-11.5001"/>
</g>
</g>
</svg>
