<?xml version="1.0" encoding="UTF-8" standalone="no"?>
<!DOCTYPE svg PUBLIC "-//W3C//DTD SVG 1.1//EN"
 "http://www.w3.org/Graphics/SVG/1.1/DTD/svg11.dtd">
<!-- Generated by graphviz version 2.36.0 (20140111.2315)
 -->
<!-- Title: CComponentType::getFormattedMapping Pages: 1 -->
<svg width="348pt" height="56pt"
 viewBox="0.00 0.00 348.00 56.00" xmlns="http://www.w3.org/2000/svg" xmlns:xlink="http://www.w3.org/1999/xlink">
<g id="graph0" class="graph" transform="scale(1 1) rotate(0) translate(4 52)">
<title>CComponentType::getFormattedMapping</title>
<polygon fill="white" stroke="none" points="-4,4 -4,-52 344,-52 344,4 -4,4"/>
<!-- Node1 -->
<g id="node1" class="node"><title>Node1</title>
<polygon fill="#bfbfbf" stroke="black" points="0.5,-0 0.5,-30 173.5,-30 173.5,-0 0.5,-0"/>
<text text-anchor="start" x="8.5" y="-18" font-family="Verdana" font-size="10.00">CComponentType::getFormatted</text>
<text text-anchor="middle" x="87" y="-7" font-family="Verdana" font-size="10.00">Mapping</text>
</g>
<!-- Node1&#45;&gt;Node1 -->
<g id="edge2" class="edge"><title>Node1&#45;&gt;Node1</title>
<path fill="none" stroke="midnightblue" d="M54.093,-40.5975C58.5896,-44.9704 69.5586,-48 87,-48 116.375,-48 127.391,-39.4062 120.047,-30.2754"/>
<polygon fill="midnightblue" stroke="midnightblue" points="57.5884,-40.227 53.9531,-30.2754 50.589,-40.3219 57.5884,-40.227"/>
</g>
<!-- Node2 -->
<g id="node2" class="node"><title>Node2</title>
<g id="a_node2"><a xlink:href="classCComponentInstance.html#a2ad06fb96a878b976fc61afaaf0232ec" target="_top" xlink:title="Returns the mapping associated to the current TypeElement instance. ">
<polygon fill="white" stroke="black" points="210.5,-0 210.5,-30 339.5,-30 339.5,-0 210.5,-0"/>
<text text-anchor="start" x="218.5" y="-18" font-family="Verdana" font-size="10.00">CComponentInstance</text>
<text text-anchor="middle" x="275" y="-7" font-family="Verdana" font-size="10.00">::getFormattedMapping</text>
</a>
</g>
</g>
<!-- Node1&#45;&gt;Node2 -->
<g id="edge1" class="edge"><title>Node1&#45;&gt;Node2</title>
<path fill="none" stroke="midnightblue" d="M183.839,-15C192.866,-15 201.857,-15 210.472,-15"/>
<polygon fill="midnightblue" stroke="midnightblue" points="183.65,-11.5001 173.65,-15 183.65,-18.5001 183.65,-11.5001"/>
</g>
</g>
</svg>
