<?xml version="1.0" encoding="UTF-8" standalone="no"?>
<!DOCTYPE svg PUBLIC "-//W3C//DTD SVG 1.1//EN"
 "http://www.w3.org/Graphics/SVG/1.1/DTD/svg11.dtd">
<!-- Generated by graphviz version 2.38.0 (20140413.2041)
 -->
<!-- Title: CSelectionCriteria::createSelectionCriterionType Pages: 1 -->
<svg width="776pt" height="39pt"
 viewBox="0.00 0.00 776.00 39.00" xmlns="http://www.w3.org/2000/svg" xmlns:xlink="http://www.w3.org/1999/xlink">
<g id="graph0" class="graph" transform="scale(1 1) rotate(0) translate(4 35)">
<title>CSelectionCriteria::createSelectionCriterionType</title>
<polygon fill="white" stroke="none" points="-4,4 -4,-35 772,-35 772,4 -4,4"/>
<!-- Node1 -->
<g id="node1" class="node"><title>Node1</title>
<polygon fill="#bfbfbf" stroke="black" points="0,-0.5 0,-30.5 159,-30.5 159,-0.5 0,-0.5"/>
<text text-anchor="start" x="8" y="-18.5" font-family="Verdana" font-size="10.00">CSelectionCriteria</text>
<text text-anchor="middle" x="79.5" y="-7.5" font-family="Verdana" font-size="10.00">::createSelectionCriterionType</text>
</g>
<!-- Node2 -->
<g id="node2" class="node"><title>Node2</title>
<g id="a_node2"><a xlink:href="classCParameterMgr.html#a4d2a54a91f937ac71a1f7bbea2ffa1c2" target="_top" xlink:title="CParameterMgr::createSelection\lCriterionType">
<polygon fill="white" stroke="black" points="195,-0.5 195,-30.5 368,-30.5 368,-0.5 195,-0.5"/>
<text text-anchor="start" x="203" y="-18.5" font-family="Verdana" font-size="10.00">CParameterMgr::createSelection</text>
<text text-anchor="middle" x="281.5" y="-7.5" font-family="Verdana" font-size="10.00">CriterionType</text>
</a>
</g>
</g>
<!-- Node1&#45;&gt;Node2 -->
<g id="edge1" class="edge"><title>Node1&#45;&gt;Node2</title>
<path fill="none" stroke="midnightblue" d="M169.487,-15.5C177.929,-15.5 186.477,-15.5 194.886,-15.5"/>
<polygon fill="midnightblue" stroke="midnightblue" points="169.258,-12.0001 159.258,-15.5 169.258,-19.0001 169.258,-12.0001"/>
</g>
<!-- Node3 -->
<g id="node3" class="node"><title>Node3</title>
<g id="a_node3"><a xlink:href="classCParameterMgrPlatformConnector.html#a025538f1532d26442e0acb7c3ed7497b" target="_top" xlink:title="CParameterMgrPlatformConnector\l::createSelectionCriterionType">
<polygon fill="white" stroke="black" points="404,-0.5 404,-30.5 586,-30.5 586,-0.5 404,-0.5"/>
<text text-anchor="start" x="412" y="-18.5" font-family="Verdana" font-size="10.00">CParameterMgrPlatformConnector</text>
<text text-anchor="middle" x="495" y="-7.5" font-family="Verdana" font-size="10.00">::createSelectionCriterionType</text>
</a>
</g>
</g>
<!-- Node2&#45;&gt;Node3 -->
<g id="edge2" class="edge"><title>Node2&#45;&gt;Node3</title>
<path fill="none" stroke="midnightblue" d="M378.419,-15.5C386.826,-15.5 395.317,-15.5 403.676,-15.5"/>
<polygon fill="midnightblue" stroke="midnightblue" points="378.22,-12.0001 368.22,-15.5 378.22,-19.0001 378.22,-12.0001"/>
</g>
<!-- Node4 -->
<g id="node4" class="node"><title>Node4</title>
<g id="a_node4"><a xlink:href="structPfwHandler__.html#affe94703ab48bd3ee5c78ac4fffc0b45" target="_top" xlink:title="PfwHandler_::createCriteria">
<polygon fill="white" stroke="black" points="622,-6 622,-25 768,-25 768,-6 622,-6"/>
<text text-anchor="middle" x="695" y="-13" font-family="Verdana" font-size="10.00">PfwHandler_::createCriteria</text>
</a>
</g>
</g>
<!-- Node3&#45;&gt;Node4 -->
<g id="edge3" class="edge"><title>Node3&#45;&gt;Node4</title>
<path fill="none" stroke="midnightblue" d="M596.217,-15.5C604.913,-15.5 613.596,-15.5 621.998,-15.5"/>
<polygon fill="midnightblue" stroke="midnightblue" points="596.02,-12.0001 586.02,-15.5 596.02,-19.0001 596.02,-12.0001"/>
</g>
</g>
</svg>
