<?xml version="1.0" encoding="UTF-8" standalone="no"?>
<!DOCTYPE svg PUBLIC "-//W3C//DTD SVG 1.1//EN"
 "http://www.w3.org/Graphics/SVG/1.1/DTD/svg11.dtd">
<!-- Generated by graphviz version 2.38.0 (20140413.2041)
 -->
<!-- Title: ElementHandle::isArray Pages: 1 -->
<svg width="743pt" height="39pt"
 viewBox="0.00 0.00 743.00 39.00" xmlns="http://www.w3.org/2000/svg" xmlns:xlink="http://www.w3.org/1999/xlink">
<g id="graph0" class="graph" transform="scale(1 1) rotate(0) translate(4 35)">
<title>ElementHandle::isArray</title>
<polygon fill="white" stroke="none" points="-4,4 -4,-35 739,-35 739,4 -4,4"/>
<!-- Node1 -->
<g id="node1" class="node"><title>Node1</title>
<polygon fill="#bfbfbf" stroke="black" points="0,-6 0,-25 129,-25 129,-6 0,-6"/>
<text text-anchor="middle" x="64.5" y="-13" font-family="Verdana" font-size="10.00">ElementHandle::isArray</text>
</g>
<!-- Node2 -->
<g id="node2" class="node"><title>Node2</title>
<g id="a_node2"><a xlink:href="classElementHandle.html#a338edfe012745ce3dd8ecfe7180385aa" target="_top" xlink:title="ElementHandle::getArrayLength">
<polygon fill="white" stroke="black" points="165,-6 165,-25 335,-25 335,-6 165,-6"/>
<text text-anchor="middle" x="250" y="-13" font-family="Verdana" font-size="10.00">ElementHandle::getArrayLength</text>
</a>
</g>
</g>
<!-- Node1&#45;&gt;Node2 -->
<g id="edge1" class="edge"><title>Node1&#45;&gt;Node2</title>
<path fill="none" stroke="midnightblue" d="M129.164,-15.5C137.423,-15.5 146.017,-15.5 154.643,-15.5"/>
<polygon fill="midnightblue" stroke="midnightblue" points="154.764,-19.0001 164.764,-15.5 154.764,-12.0001 154.764,-19.0001"/>
</g>
<!-- Node3 -->
<g id="node3" class="node"><title>Node3</title>
<g id="a_node3"><a xlink:href="classCInstanceConfigurableElement.html#a590967d30772d8ada0ac367f4273d248" target="_top" xlink:title="CInstanceConfigurableElement\l::getArrayLength">
<polygon fill="white" stroke="black" points="371,-0.5 371,-30.5 535,-30.5 535,-0.5 371,-0.5"/>
<text text-anchor="start" x="379" y="-18.5" font-family="Verdana" font-size="10.00">CInstanceConfigurableElement</text>
<text text-anchor="middle" x="453" y="-7.5" font-family="Verdana" font-size="10.00">::getArrayLength</text>
</a>
</g>
</g>
<!-- Node2&#45;&gt;Node3 -->
<g id="edge2" class="edge"><title>Node2&#45;&gt;Node3</title>
<path fill="none" stroke="midnightblue" d="M335.077,-15.5C343.583,-15.5 352.249,-15.5 360.825,-15.5"/>
<polygon fill="midnightblue" stroke="midnightblue" points="360.834,-19.0001 370.834,-15.5 360.834,-12.0001 360.834,-19.0001"/>
</g>
<!-- Node4 -->
<g id="node4" class="node"><title>Node4</title>
<g id="a_node4"><a xlink:href="classCTypeElement.html#a6f0d426a1a1be3334bcd9f6a7db2c281" target="_top" xlink:title="CTypeElement::getArrayLength">
<polygon fill="white" stroke="black" points="571,-6 571,-25 735,-25 735,-6 571,-6"/>
<text text-anchor="middle" x="653" y="-13" font-family="Verdana" font-size="10.00">CTypeElement::getArrayLength</text>
</a>
</g>
</g>
<!-- Node3&#45;&gt;Node4 -->
<g id="edge3" class="edge"><title>Node3&#45;&gt;Node4</title>
<path fill="none" stroke="midnightblue" d="M535.105,-15.5C543.457,-15.5 551.985,-15.5 560.44,-15.5"/>
<polygon fill="midnightblue" stroke="midnightblue" points="560.7,-19.0001 570.7,-15.5 560.7,-12.0001 560.7,-19.0001"/>
</g>
</g>
</svg>
