<?xml version="1.0" encoding="UTF-8" standalone="no"?>
<!DOCTYPE svg PUBLIC "-//W3C//DTD SVG 1.1//EN"
 "http://www.w3.org/Graphics/SVG/1.1/DTD/svg11.dtd">
<!-- Generated by graphviz version 2.38.0 (20140413.2041)
 -->
<!-- Title: CMessage::serialize Pages: 1 -->
<svg width="375pt" height="28pt"
 viewBox="0.00 0.00 375.00 28.00" xmlns="http://www.w3.org/2000/svg" xmlns:xlink="http://www.w3.org/1999/xlink">
<g id="graph0" class="graph" transform="scale(1 1) rotate(0) translate(4 24)">
<title>CMessage::serialize</title>
<polygon fill="white" stroke="none" points="-4,4 -4,-24 371,-24 371,4 -4,4"/>
<!-- Node1 -->
<g id="node1" class="node"><title>Node1</title>
<polygon fill="#bfbfbf" stroke="black" points="0,-0.5 0,-19.5 111,-19.5 111,-0.5 0,-0.5"/>
<text text-anchor="middle" x="55.5" y="-7.5" font-family="Verdana" font-size="10.00">CMessage::serialize</text>
</g>
<!-- Node2 -->
<g id="node2" class="node"><title>Node2</title>
<g id="a_node2"><a xlink:href="remote-process_2main_8cpp.html#a6d6ad099f54d8866cc57dff6eea8931b" target="_top" xlink:title="sendAndDisplayCommand">
<polygon fill="white" stroke="black" points="147,-0.5 147,-19.5 290,-19.5 290,-0.5 147,-0.5"/>
<text text-anchor="middle" x="218.5" y="-7.5" font-family="Verdana" font-size="10.00">sendAndDisplayCommand</text>
</a>
</g>
</g>
<!-- Node1&#45;&gt;Node2 -->
<g id="edge1" class="edge"><title>Node1&#45;&gt;Node2</title>
<path fill="none" stroke="midnightblue" d="M121.147,-10C129.58,-10 138.255,-10 146.781,-10"/>
<polygon fill="midnightblue" stroke="midnightblue" points="121.007,-6.5001 111.007,-10 121.007,-13.5001 121.007,-6.5001"/>
</g>
<!-- Node3 -->
<g id="node3" class="node"><title>Node3</title>
<g id="a_node3"><a xlink:href="remote-process_2main_8cpp.html#a0ddf1224851353fc92bfbff6f499fa97" target="_top" xlink:title="main">
<polygon fill="white" stroke="black" points="326,-0.5 326,-19.5 367,-19.5 367,-0.5 326,-0.5"/>
<text text-anchor="middle" x="346.5" y="-7.5" font-family="Verdana" font-size="10.00">main</text>
</a>
</g>
</g>
<!-- Node2&#45;&gt;Node3 -->
<g id="edge2" class="edge"><title>Node2&#45;&gt;Node3</title>
<path fill="none" stroke="midnightblue" d="M300.257,-10C309.71,-10 318.583,-10 325.924,-10"/>
<polygon fill="midnightblue" stroke="midnightblue" points="300.235,-6.5001 290.235,-10 300.235,-13.5001 300.235,-6.5001"/>
</g>
</g>
</svg>
