<?xml version="1.0" encoding="UTF-8" standalone="no"?>
<!DOCTYPE svg PUBLIC "-//W3C//DTD SVG 1.1//EN"
 "http://www.w3.org/Graphics/SVG/1.1/DTD/svg11.dtd">
<!-- Generated by graphviz version 2.38.0 (20140413.2041)
 -->
<!-- Title: CElement::createChild Pages: 1 -->
<svg width="926pt" height="250pt"
 viewBox="0.00 0.00 926.00 249.50" xmlns="http://www.w3.org/2000/svg" xmlns:xlink="http://www.w3.org/1999/xlink">
<g id="graph0" class="graph" transform="scale(1 1) rotate(0) translate(4 245.5)">
<title>CElement::createChild</title>
<polygon fill="white" stroke="none" points="-4,4 -4,-245.5 922,-245.5 922,4 -4,4"/>
<!-- Node1 -->
<g id="node1" class="node"><title>Node1</title>
<polygon fill="#bfbfbf" stroke="black" points="0,-128.5 0,-147.5 123,-147.5 123,-128.5 0,-128.5"/>
<text text-anchor="middle" x="61.5" y="-135.5" font-family="Verdana" font-size="10.00">CElement::createChild</text>
</g>
<!-- Node2 -->
<g id="node2" class="node"><title>Node2</title>
<g id="a_node2"><a xlink:href="classCXmlElementSerializingContext.html#a6c36b7e23b9968c6ea898612d2a55ee9" target="_top" xlink:title="CXmlElementSerializingContext\l::getElementLibrary">
<polygon fill="white" stroke="black" points="161,-211 161,-241 328,-241 328,-211 161,-211"/>
<text text-anchor="start" x="169" y="-229" font-family="Verdana" font-size="10.00">CXmlElementSerializingContext</text>
<text text-anchor="middle" x="244.5" y="-218" font-family="Verdana" font-size="10.00">::getElementLibrary</text>
</a>
</g>
</g>
<!-- Node1&#45;&gt;Node2 -->
<g id="edge1" class="edge"><title>Node1&#45;&gt;Node2</title>
<path fill="none" stroke="midnightblue" d="M74.616,-147.591C92.2647,-161.159 126.492,-185.972 159,-201 164.034,-203.327 169.337,-205.496 174.731,-207.506"/>
<polygon fill="midnightblue" stroke="midnightblue" points="173.906,-210.926 184.501,-210.95 176.234,-204.325 173.906,-210.926"/>
</g>
<!-- Node3 -->
<g id="node3" class="node"><title>Node3</title>
<g id="a_node3"><a xlink:href="classCElementLibrary.html#a5ad95964216e50fc59f0c803370fb4de" target="_top" xlink:title="CElementLibrary::createElement">
<polygon fill="white" stroke="black" points="159,-172.5 159,-191.5 330,-191.5 330,-172.5 159,-172.5"/>
<text text-anchor="middle" x="244.5" y="-179.5" font-family="Verdana" font-size="10.00">CElementLibrary::createElement</text>
</a>
</g>
</g>
<!-- Node1&#45;&gt;Node3 -->
<g id="edge2" class="edge"><title>Node1&#45;&gt;Node3</title>
<path fill="none" stroke="midnightblue" d="M98.1767,-147.536C116.349,-152.319 138.814,-158.117 159,-163 168.865,-165.386 179.403,-167.835 189.572,-170.148"/>
<polygon fill="midnightblue" stroke="midnightblue" points="189.055,-173.619 199.58,-172.407 190.597,-166.791 189.055,-173.619"/>
</g>
<!-- Node4 -->
<g id="node4" class="node"><title>Node4</title>
<g id="a_node4"><a xlink:href="classCXmlSerializingContext.html#a32535de3d5fb180f216d837ee7d5326d" target="_top" xlink:title="CXmlSerializingContext\l::setError">
<polygon fill="white" stroke="black" points="180.5,-123 180.5,-153 308.5,-153 308.5,-123 180.5,-123"/>
<text text-anchor="start" x="188.5" y="-141" font-family="Verdana" font-size="10.00">CXmlSerializingContext</text>
<text text-anchor="middle" x="244.5" y="-130" font-family="Verdana" font-size="10.00">::setError</text>
</a>
</g>
</g>
<!-- Node1&#45;&gt;Node4 -->
<g id="edge3" class="edge"><title>Node1&#45;&gt;Node4</title>
<path fill="none" stroke="midnightblue" d="M123.022,-138C138.112,-138 154.456,-138 170.093,-138"/>
<polygon fill="midnightblue" stroke="midnightblue" points="170.247,-141.5 180.247,-138 170.247,-134.5 170.247,-141.5"/>
</g>
<!-- Node5 -->
<g id="node5" class="node"><title>Node5</title>
<g id="a_node5"><a xlink:href="classCXmlElement.html#ac47c56a3cad8ac7d1fe7579e833227c5" target="_top" xlink:title="CXmlElement::getPath">
<polygon fill="white" stroke="black" points="182.5,-66.5 182.5,-85.5 306.5,-85.5 306.5,-66.5 182.5,-66.5"/>
<text text-anchor="middle" x="244.5" y="-73.5" font-family="Verdana" font-size="10.00">CXmlElement::getPath</text>
</a>
</g>
</g>
<!-- Node1&#45;&gt;Node5 -->
<g id="edge4" class="edge"><title>Node1&#45;&gt;Node5</title>
<path fill="none" stroke="midnightblue" d="M90.3846,-128.448C121.342,-117.844 171.472,-100.672 205.886,-88.8845"/>
<polygon fill="midnightblue" stroke="midnightblue" points="207.258,-92.1142 215.584,-85.5625 204.989,-85.492 207.258,-92.1142"/>
</g>
<!-- Node12 -->
<g id="node12" class="node"><title>Node12</title>
<g id="a_node12"><a xlink:href="classCElement.html#ac2ad66ee438a4a0c1390b7388874fe72" target="_top" xlink:title="CElement::addChild">
<polygon fill="white" stroke="black" points="189.5,-28.5 189.5,-47.5 299.5,-47.5 299.5,-28.5 189.5,-28.5"/>
<text text-anchor="middle" x="244.5" y="-35.5" font-family="Verdana" font-size="10.00">CElement::addChild</text>
</a>
</g>
</g>
<!-- Node1&#45;&gt;Node12 -->
<g id="edge13" class="edge"><title>Node1&#45;&gt;Node12</title>
<path fill="none" stroke="midnightblue" d="M71.0085,-128.301C86.6399,-111.126 121.756,-75.4401 159,-57 165.485,-53.7892 172.518,-51.1141 179.664,-48.8868"/>
<polygon fill="midnightblue" stroke="midnightblue" points="180.769,-52.2115 189.437,-46.1189 178.862,-45.4764 180.769,-52.2115"/>
</g>
<!-- Node5&#45;&gt;Node5 -->
<g id="edge12" class="edge"><title>Node5&#45;&gt;Node5</title>
<path fill="none" stroke="midnightblue" d="M216.449,-85.7571C202.802,-94.5653 212.152,-104 244.5,-104 266.739,-104 278.108,-99.5406 278.608,-93.8913"/>
<polygon fill="midnightblue" stroke="midnightblue" points="281.331,-91.6878 272.551,-85.7571 275.716,-95.8682 281.331,-91.6878"/>
</g>
<!-- Node6 -->
<g id="node6" class="node"><title>Node6</title>
<g id="a_node6"><a xlink:href="classCXmlElement.html#ab2e750aaad2b93b4d875d04b624de1c4" target="_top" xlink:title="CXmlElement::getType">
<polygon fill="white" stroke="black" points="391,-126.5 391,-145.5 515,-145.5 515,-126.5 391,-126.5"/>
<text text-anchor="middle" x="453" y="-133.5" font-family="Verdana" font-size="10.00">CXmlElement::getType</text>
</a>
</g>
</g>
<!-- Node5&#45;&gt;Node6 -->
<g id="edge5" class="edge"><title>Node5&#45;&gt;Node6</title>
<path fill="none" stroke="midnightblue" d="M276.915,-85.5556C301.205,-92.9026 335.69,-103.244 366,-112 379.41,-115.874 394.026,-119.992 407.341,-123.703"/>
<polygon fill="midnightblue" stroke="midnightblue" points="406.656,-127.145 417.228,-126.451 408.531,-120.401 406.656,-127.145"/>
</g>
<!-- Node7 -->
<g id="node7" class="node"><title>Node7</title>
<g id="a_node7"><a xlink:href="classCXmlElement.html#aacd4d202e3de66715641cc3bb89bd4b5" target="_top" xlink:title="CXmlElement::hasAttribute">
<polygon fill="white" stroke="black" points="772,-66.5 772,-85.5 918,-85.5 918,-66.5 772,-66.5"/>
<text text-anchor="middle" x="845" y="-73.5" font-family="Verdana" font-size="10.00">CXmlElement::hasAttribute</text>
</a>
</g>
</g>
<!-- Node5&#45;&gt;Node7 -->
<g id="edge6" class="edge"><title>Node5&#45;&gt;Node7</title>
<path fill="none" stroke="midnightblue" d="M306.676,-76.7731C399.491,-77.8275 581.447,-79.4309 736,-78 744.357,-77.9226 753.076,-77.8116 761.78,-77.681"/>
<polygon fill="midnightblue" stroke="midnightblue" points="762.023,-81.1776 771.966,-77.5194 761.912,-74.1785 762.023,-81.1776"/>
</g>
<!-- Node8 -->
<g id="node8" class="node"><title>Node8</title>
<g id="a_node8"><a xlink:href="classCXmlElement.html#a21b9cfd66e7cd6f33a889e099102ef89" target="_top" xlink:title="CXmlElement::getNameAttribute">
<polygon fill="white" stroke="black" points="366,-47.5 366,-66.5 540,-66.5 540,-47.5 366,-47.5"/>
<text text-anchor="middle" x="453" y="-54.5" font-family="Verdana" font-size="10.00">CXmlElement::getNameAttribute</text>
</a>
</g>
</g>
<!-- Node5&#45;&gt;Node8 -->
<g id="edge7" class="edge"><title>Node5&#45;&gt;Node8</title>
<path fill="none" stroke="midnightblue" d="M306.619,-70.3765C321.983,-68.9628 338.849,-67.411 355.482,-65.8806"/>
<polygon fill="midnightblue" stroke="midnightblue" points="356.155,-69.3335 365.792,-64.9319 355.514,-62.363 356.155,-69.3335"/>
</g>
<!-- Node10 -->
<g id="node10" class="node"><title>Node10</title>
<g id="a_node10"><a xlink:href="classCXmlElement.html#a28a62e123c5042524a20eda9cc425d5f" target="_top" xlink:title="CXmlElement::getParentElement">
<polygon fill="white" stroke="black" points="366.5,-6.5 366.5,-25.5 539.5,-25.5 539.5,-6.5 366.5,-6.5"/>
<text text-anchor="middle" x="453" y="-13.5" font-family="Verdana" font-size="10.00">CXmlElement::getParentElement</text>
</a>
</g>
</g>
<!-- Node5&#45;&gt;Node10 -->
<g id="edge10" class="edge"><title>Node5&#45;&gt;Node10</title>
<path fill="none" stroke="midnightblue" d="M297.966,-66.4702C308.715,-63.889 319.843,-60.7468 330,-57 346.974,-50.7387 349.12,-44.509 366,-38 375.698,-34.2604 386.256,-30.9642 396.546,-28.1373"/>
<polygon fill="midnightblue" stroke="midnightblue" points="397.514,-31.5018 406.294,-25.5717 395.732,-24.7324 397.514,-31.5018"/>
</g>
<!-- Node9 -->
<g id="node9" class="node"><title>Node9</title>
<g id="a_node9"><a xlink:href="classCXmlElement.html#a4aacb946f656aab1e585e1aa8f63d4e2" target="_top" xlink:title="CXmlElement::getAttribute\lString">
<polygon fill="white" stroke="black" points="583.5,-39 583.5,-69 728.5,-69 728.5,-39 583.5,-39"/>
<text text-anchor="start" x="591.5" y="-57" font-family="Verdana" font-size="10.00">CXmlElement::getAttribute</text>
<text text-anchor="middle" x="656" y="-46" font-family="Verdana" font-size="10.00">String</text>
</a>
</g>
</g>
<!-- Node8&#45;&gt;Node9 -->
<g id="edge8" class="edge"><title>Node8&#45;&gt;Node9</title>
<path fill="none" stroke="midnightblue" d="M540.117,-55.7147C551.018,-55.552 562.149,-55.3858 572.983,-55.2241"/>
<polygon fill="midnightblue" stroke="midnightblue" points="573.316,-58.7196 583.263,-55.0707 573.212,-51.7204 573.316,-58.7196"/>
</g>
<!-- Node9&#45;&gt;Node7 -->
<g id="edge9" class="edge"><title>Node9&#45;&gt;Node7</title>
<path fill="none" stroke="midnightblue" d="M728.764,-62.4429C739.568,-63.7139 750.781,-65.0331 761.783,-66.3274"/>
<polygon fill="midnightblue" stroke="midnightblue" points="761.469,-69.8145 771.81,-67.507 762.287,-62.8625 761.469,-69.8145"/>
</g>
<!-- Node11 -->
<g id="node11" class="node"><title>Node11</title>
<g id="a_node11"><a xlink:href="classCXmlElement.html#a3b230e1c8e92537da6a1a365dc1e71b2" target="_top" xlink:title="CXmlElement::setXmlElement">
<polygon fill="white" stroke="black" points="576,-0.5 576,-19.5 736,-19.5 736,-0.5 576,-0.5"/>
<text text-anchor="middle" x="656" y="-7.5" font-family="Verdana" font-size="10.00">CXmlElement::setXmlElement</text>
</a>
</g>
</g>
<!-- Node10&#45;&gt;Node11 -->
<g id="edge11" class="edge"><title>Node10&#45;&gt;Node11</title>
<path fill="none" stroke="midnightblue" d="M539.534,-13.4468C548.212,-13.1877 557.042,-12.9241 565.758,-12.6639"/>
<polygon fill="midnightblue" stroke="midnightblue" points="566.031,-16.1575 575.922,-12.3605 565.822,-9.16057 566.031,-16.1575"/>
</g>
</g>
</svg>
