<?xml version="1.0" encoding="UTF-8" standalone="no"?>
<!DOCTYPE svg PUBLIC "-//W3C//DTD SVG 1.1//EN"
 "http://www.w3.org/Graphics/SVG/1.1/DTD/svg11.dtd">
<!-- Generated by graphviz version 2.36.0 (20140111.2315)
 -->
<!-- Title: CConfigurableDomain::getApplicationRule Pages: 1 -->
<svg width="514pt" height="38pt"
 viewBox="0.00 0.00 514.00 38.00" xmlns="http://www.w3.org/2000/svg" xmlns:xlink="http://www.w3.org/1999/xlink">
<g id="graph0" class="graph" transform="scale(1 1) rotate(0) translate(4 34)">
<title>CConfigurableDomain::getApplicationRule</title>
<polygon fill="white" stroke="none" points="-4,4 -4,-34 510,-34 510,4 -4,4"/>
<!-- Node1 -->
<g id="node1" class="node"><title>Node1</title>
<polygon fill="#bfbfbf" stroke="black" points="0.5,-0 0.5,-30 121.5,-30 121.5,-0 0.5,-0"/>
<text text-anchor="start" x="8.5" y="-18" font-family="Verdana" font-size="10.00">CConfigurableDomain</text>
<text text-anchor="middle" x="61" y="-7" font-family="Verdana" font-size="10.00">::getApplicationRule</text>
</g>
<!-- Node2 -->
<g id="node2" class="node"><title>Node2</title>
<g id="a_node2"><a xlink:href="classCConfigurableDomains.html#a2c09cdf7f3d0ce257831c2df930cb60b" target="_top" xlink:title="CConfigurableDomains\l::getApplicationRule">
<polygon fill="white" stroke="black" points="158,-0 158,-30 284,-30 284,-0 158,-0"/>
<text text-anchor="start" x="166" y="-18" font-family="Verdana" font-size="10.00">CConfigurableDomains</text>
<text text-anchor="middle" x="221" y="-7" font-family="Verdana" font-size="10.00">::getApplicationRule</text>
</a>
</g>
</g>
<!-- Node1&#45;&gt;Node2 -->
<g id="edge1" class="edge"><title>Node1&#45;&gt;Node2</title>
<path fill="none" stroke="midnightblue" d="M131.807,-15C140.468,-15 149.279,-15 157.815,-15"/>
<polygon fill="midnightblue" stroke="midnightblue" points="131.733,-11.5001 121.733,-15 131.733,-18.5001 131.733,-11.5001"/>
</g>
<!-- Node3 -->
<g id="node3" class="node"><title>Node3</title>
<g id="a_node3"><a xlink:href="classCParameterMgr.html#a001de36ae98f163d21ec23f2d8a626d3" target="_top" xlink:title="CParameterMgr::getApplicationRule">
<polygon fill="white" stroke="black" points="320.5,-5.5 320.5,-24.5 505.5,-24.5 505.5,-5.5 320.5,-5.5"/>
<text text-anchor="middle" x="413" y="-12.5" font-family="Verdana" font-size="10.00">CParameterMgr::getApplicationRule</text>
</a>
</g>
</g>
<!-- Node2&#45;&gt;Node3 -->
<g id="edge2" class="edge"><title>Node2&#45;&gt;Node3</title>
<path fill="none" stroke="midnightblue" d="M294.421,-15C302.91,-15 311.654,-15 320.361,-15"/>
<polygon fill="midnightblue" stroke="midnightblue" points="294.213,-11.5001 284.213,-15 294.213,-18.5001 294.213,-11.5001"/>
</g>
</g>
</svg>
