<?xml version="1.0" encoding="UTF-8" standalone="no"?>
<!DOCTYPE svg PUBLIC "-//W3C//DTD SVG 1.1//EN"
 "http://www.w3.org/Graphics/SVG/1.1/DTD/svg11.dtd">
<!-- Generated by graphviz version 2.38.0 (20140413.2041)
 -->
<!-- Title: CXmlSerializingContext::appendLineToError Pages: 1 -->
<svg width="706pt" height="88pt"
 viewBox="0.00 0.00 706.00 88.00" xmlns="http://www.w3.org/2000/svg" xmlns:xlink="http://www.w3.org/1999/xlink">
<g id="graph0" class="graph" transform="scale(1 1) rotate(0) translate(4 84)">
<title>CXmlSerializingContext::appendLineToError</title>
<polygon fill="white" stroke="none" points="-4,4 -4,-84 702,-84 702,4 -4,4"/>
<!-- Node1 -->
<g id="node1" class="node"><title>Node1</title>
<polygon fill="#bfbfbf" stroke="black" points="0,-19.5 0,-49.5 128,-49.5 128,-19.5 0,-19.5"/>
<text text-anchor="start" x="8" y="-37.5" font-family="Verdana" font-size="10.00">CXmlSerializingContext</text>
<text text-anchor="middle" x="64" y="-26.5" font-family="Verdana" font-size="10.00">::appendLineToError</text>
</g>
<!-- Node2 -->
<g id="node2" class="node"><title>Node2</title>
<g id="a_node2"><a xlink:href="classCXmlDocSource.html#a60c2e8020389b6896e61fe058f611565" target="_top" xlink:title="Method called by the CXmlDocSink::process method. ">
<polygon fill="white" stroke="black" points="164,-44 164,-63 306,-63 306,-44 164,-44"/>
<text text-anchor="middle" x="235" y="-51" font-family="Verdana" font-size="10.00">CXmlDocSource::populate</text>
</a>
</g>
</g>
<!-- Node1&#45;&gt;Node2 -->
<g id="edge1" class="edge"><title>Node1&#45;&gt;Node2</title>
<path fill="none" stroke="midnightblue" d="M138.601,-42.7747C147.034,-43.7228 155.615,-44.6875 163.999,-45.6301"/>
<polygon fill="midnightblue" stroke="midnightblue" points="138.739,-39.2682 128.41,-41.629 137.957,-46.2244 138.739,-39.2682"/>
</g>
<!-- Node6 -->
<g id="node6" class="node"><title>Node6</title>
<g id="a_node6"><a xlink:href="classCXmlDocSource.html#a5a1330e2c0bd340ad542050053f31803" target="_top" xlink:title="Helper method for creating an xml document from either a file or a string. ">
<polygon fill="white" stroke="black" points="342,-6 342,-25 494,-25 494,-6 342,-6"/>
<text text-anchor="middle" x="418" y="-13" font-family="Verdana" font-size="10.00">CXmlDocSource::mkXmlDoc</text>
</a>
</g>
</g>
<!-- Node1&#45;&gt;Node6 -->
<g id="edge5" class="edge"><title>Node1&#45;&gt;Node6</title>
<path fill="none" stroke="midnightblue" d="M138.438,-30.536C198.085,-27.3164 281.873,-22.7938 341.95,-19.551"/>
<polygon fill="midnightblue" stroke="midnightblue" points="138.134,-27.0472 128.337,-31.0812 138.511,-34.0371 138.134,-27.0472"/>
</g>
<!-- Node3 -->
<g id="node3" class="node"><title>Node3</title>
<g id="a_node3"><a xlink:href="classCXmlDocSink.html#ad795635a506e9fbe16c1d54052281d91" target="_top" xlink:title="Method to be called to use an xmlDocSource. ">
<polygon fill="white" stroke="black" points="356,-44 356,-63 480,-63 480,-44 356,-44"/>
<text text-anchor="middle" x="418" y="-51" font-family="Verdana" font-size="10.00">CXmlDocSink::process</text>
</a>
</g>
</g>
<!-- Node2&#45;&gt;Node3 -->
<g id="edge2" class="edge"><title>Node2&#45;&gt;Node3</title>
<path fill="none" stroke="midnightblue" d="M316.326,-53.5C329.619,-53.5 343.208,-53.5 355.927,-53.5"/>
<polygon fill="midnightblue" stroke="midnightblue" points="316.238,-50.0001 306.238,-53.5 316.238,-57.0001 316.238,-50.0001"/>
</g>
<!-- Node4 -->
<g id="node4" class="node"><title>Node4</title>
<g id="a_node4"><a xlink:href="classCParameterMgr.html#a83f14b09892d2edf83546d50fe375095" target="_top" xlink:title="Method that exports an Xml description of the passed element into a string. ">
<polygon fill="white" stroke="black" points="530,-49.5 530,-79.5 698,-79.5 698,-49.5 530,-49.5"/>
<text text-anchor="start" x="538" y="-67.5" font-family="Verdana" font-size="10.00">CParameterMgr::exportElement</text>
<text text-anchor="middle" x="614" y="-56.5" font-family="Verdana" font-size="10.00">ToXMLString</text>
</a>
</g>
</g>
<!-- Node3&#45;&gt;Node4 -->
<g id="edge3" class="edge"><title>Node3&#45;&gt;Node4</title>
<path fill="none" stroke="midnightblue" d="M490.274,-57.5413C503.138,-58.2707 516.652,-59.037 529.82,-59.7836"/>
<polygon fill="midnightblue" stroke="midnightblue" points="490.299,-54.0372 480.117,-56.9654 489.902,-61.026 490.299,-54.0372"/>
</g>
<!-- Node5 -->
<g id="node5" class="node"><title>Node5</title>
<g id="a_node5"><a xlink:href="classCXmlFileIncluderElement.html#ae08f8539bdbdd6d31e09444fdc7bca2e" target="_top" xlink:title="CXmlFileIncluderElement\l::fromXml">
<polygon fill="white" stroke="black" points="547,-0.5 547,-30.5 681,-30.5 681,-0.5 547,-0.5"/>
<text text-anchor="start" x="555" y="-18.5" font-family="Verdana" font-size="10.00">CXmlFileIncluderElement</text>
<text text-anchor="middle" x="614" y="-7.5" font-family="Verdana" font-size="10.00">::fromXml</text>
</a>
</g>
</g>
<!-- Node3&#45;&gt;Node5 -->
<g id="edge4" class="edge"><title>Node3&#45;&gt;Node5</title>
<path fill="none" stroke="midnightblue" d="M478.031,-41.9372C499.764,-37.6802 524.517,-32.8317 546.838,-28.4595"/>
<polygon fill="midnightblue" stroke="midnightblue" points="477.095,-38.554 467.954,-43.911 478.441,-45.4234 477.095,-38.554"/>
</g>
<!-- Node6&#45;&gt;Node5 -->
<g id="edge6" class="edge"><title>Node6&#45;&gt;Node5</title>
<path fill="none" stroke="midnightblue" d="M504.285,-15.5C518.509,-15.5 533.075,-15.5 546.733,-15.5"/>
<polygon fill="midnightblue" stroke="midnightblue" points="504.005,-12.0001 494.005,-15.5 504.005,-19.0001 504.005,-12.0001"/>
</g>
</g>
</svg>
