<?xml version="1.0" encoding="UTF-8" standalone="no"?>
<!DOCTYPE svg PUBLIC "-//W3C//DTD SVG 1.1//EN"
 "http://www.w3.org/Graphics/SVG/1.1/DTD/svg11.dtd">
<!-- Generated by graphviz version 2.36.0 (20140111.2315)
 -->
<!-- Title: CRemoteProcessorServer::stop Pages: 1 -->
<svg width="338pt" height="38pt"
 viewBox="0.00 0.00 338.00 38.00" xmlns="http://www.w3.org/2000/svg" xmlns:xlink="http://www.w3.org/1999/xlink">
<g id="graph0" class="graph" transform="scale(1 1) rotate(0) translate(4 34)">
<title>CRemoteProcessorServer::stop</title>
<polygon fill="white" stroke="none" points="-4,4 -4,-34 334,-34 334,4 -4,4"/>
<!-- Node1 -->
<g id="node1" class="node"><title>Node1</title>
<polygon fill="#bfbfbf" stroke="black" points="0.5,-0 0.5,-30 139.5,-30 139.5,-0 0.5,-0"/>
<text text-anchor="start" x="8.5" y="-18" font-family="Verdana" font-size="10.00">CRemoteProcessorServer</text>
<text text-anchor="middle" x="70" y="-7" font-family="Verdana" font-size="10.00">::stop</text>
</g>
<!-- Node2 -->
<g id="node2" class="node"><title>Node2</title>
<g id="a_node2"><a xlink:href="classCRemoteProcessorServer.html#a36dfb20db5e7228937a04bf2ba41a0c8" target="_top" xlink:title="CRemoteProcessorServer\l::~CRemoteProcessorServer">
<polygon fill="white" stroke="black" points="176.5,-0 176.5,-30 329.5,-30 329.5,-0 176.5,-0"/>
<text text-anchor="start" x="184.5" y="-18" font-family="Verdana" font-size="10.00">CRemoteProcessorServer</text>
<text text-anchor="middle" x="253" y="-7" font-family="Verdana" font-size="10.00">::~CRemoteProcessorServer</text>
</a>
</g>
</g>
<!-- Node1&#45;&gt;Node2 -->
<g id="edge1" class="edge"><title>Node1&#45;&gt;Node2</title>
<path fill="none" stroke="midnightblue" d="M149.921,-15C158.715,-15 167.656,-15 176.407,-15"/>
<polygon fill="midnightblue" stroke="midnightblue" points="149.686,-11.5001 139.686,-15 149.686,-18.5001 149.686,-11.5001"/>
</g>
</g>
</svg>
