<?xml version="1.0" encoding="UTF-8" standalone="no"?>
<!DOCTYPE svg PUBLIC "-//W3C//DTD SVG 1.1//EN"
 "http://www.w3.org/Graphics/SVG/1.1/DTD/svg11.dtd">
<!-- Generated by graphviz version 2.38.0 (20140413.2041)
 -->
<!-- Title: CAreaConfiguration::serializeXmlSettings Pages: 1 -->
<svg width="709pt" height="433pt"
 viewBox="0.00 0.00 709.00 432.50" xmlns="http://www.w3.org/2000/svg" xmlns:xlink="http://www.w3.org/1999/xlink">
<g id="graph0" class="graph" transform="scale(1 1) rotate(0) translate(4 428.5)">
<title>CAreaConfiguration::serializeXmlSettings</title>
<polygon fill="white" stroke="none" points="-4,4 -4,-428.5 705,-428.5 705,4 -4,4"/>
<!-- Node1 -->
<g id="node1" class="node"><title>Node1</title>
<polygon fill="#bfbfbf" stroke="black" points="0,-296 0,-326 119,-326 119,-296 0,-296"/>
<text text-anchor="start" x="8" y="-314" font-family="Verdana" font-size="10.00">CAreaConfiguration</text>
<text text-anchor="middle" x="59.5" y="-303" font-family="Verdana" font-size="10.00">::serializeXmlSettings</text>
</g>
<!-- Node2 -->
<g id="node2" class="node"><title>Node2</title>
<g id="a_node2"><a xlink:href="classCParameterAccessContext.html#a5c8a052ad42c4e93476715cd85f1d6e3" target="_top" xlink:title="CParameterAccessContext\l::setParameterBlackboard">
<polygon fill="white" stroke="black" points="155,-394 155,-424 300,-424 300,-394 155,-394"/>
<text text-anchor="start" x="163" y="-412" font-family="Verdana" font-size="10.00">CParameterAccessContext</text>
<text text-anchor="middle" x="227.5" y="-401" font-family="Verdana" font-size="10.00">::setParameterBlackboard</text>
</a>
</g>
</g>
<!-- Node1&#45;&gt;Node2 -->
<g id="edge1" class="edge"><title>Node1&#45;&gt;Node2</title>
<path fill="none" stroke="midnightblue" d="M76.3586,-326.223C94.2224,-342.667 124.73,-368.695 155,-385 158.246,-386.748 161.643,-388.402 165.118,-389.962"/>
<polygon fill="midnightblue" stroke="midnightblue" points="163.874,-393.236 174.45,-393.868 166.577,-386.778 163.874,-393.236"/>
</g>
<!-- Node3 -->
<g id="node3" class="node"><title>Node3</title>
<g id="a_node3"><a xlink:href="classCParameterAccessContext.html#a17213d6a90130c62faf41761549e64a6" target="_top" xlink:title="CParameterAccessContext\l::setBaseOffset">
<polygon fill="white" stroke="black" points="155,-345 155,-375 300,-375 300,-345 155,-345"/>
<text text-anchor="start" x="163" y="-363" font-family="Verdana" font-size="10.00">CParameterAccessContext</text>
<text text-anchor="middle" x="227.5" y="-352" font-family="Verdana" font-size="10.00">::setBaseOffset</text>
</a>
</g>
</g>
<!-- Node1&#45;&gt;Node3 -->
<g id="edge2" class="edge"><title>Node1&#45;&gt;Node3</title>
<path fill="none" stroke="midnightblue" d="M111.66,-326.101C128.781,-331.155 148.032,-336.838 165.808,-342.085"/>
<polygon fill="midnightblue" stroke="midnightblue" points="164.927,-345.474 175.509,-344.948 166.909,-338.76 164.927,-345.474"/>
</g>
<!-- Node4 -->
<g id="node4" class="node"><title>Node4</title>
<g id="a_node4"><a xlink:href="classCConfigurableElement.html#a29d61e6d09ff508ebb87aea802f2704e" target="_top" xlink:title="CConfigurableElement\l::getOffset">
<polygon fill="white" stroke="black" points="166,-296 166,-326 289,-326 289,-296 166,-296"/>
<text text-anchor="start" x="174" y="-314" font-family="Verdana" font-size="10.00">CConfigurableElement</text>
<text text-anchor="middle" x="227.5" y="-303" font-family="Verdana" font-size="10.00">::getOffset</text>
</a>
</g>
</g>
<!-- Node1&#45;&gt;Node4 -->
<g id="edge3" class="edge"><title>Node1&#45;&gt;Node4</title>
<path fill="none" stroke="midnightblue" d="M119.025,-311C130.912,-311 143.535,-311 155.791,-311"/>
<polygon fill="midnightblue" stroke="midnightblue" points="155.977,-314.5 165.977,-311 155.977,-307.5 155.977,-314.5"/>
</g>
<!-- Node5 -->
<g id="node5" class="node"><title>Node5</title>
<g id="a_node5"><a xlink:href="classCConfigurableElement.html#a0e3feb8a7b18a3291ec960c9726b4eaf" target="_top" xlink:title="CConfigurableElement\l::serializeXmlSettings">
<polygon fill="white" stroke="black" points="166,-161 166,-191 289,-191 289,-161 166,-161"/>
<text text-anchor="start" x="174" y="-179" font-family="Verdana" font-size="10.00">CConfigurableElement</text>
<text text-anchor="middle" x="227.5" y="-168" font-family="Verdana" font-size="10.00">::serializeXmlSettings</text>
</a>
</g>
</g>
<!-- Node1&#45;&gt;Node5 -->
<g id="edge4" class="edge"><title>Node1&#45;&gt;Node5</title>
<path fill="none" stroke="midnightblue" d="M79.2196,-295.776C108.689,-271.81 166.013,-225.191 199.798,-197.716"/>
<polygon fill="midnightblue" stroke="midnightblue" points="202.299,-200.193 207.849,-191.168 197.882,-194.762 202.299,-200.193"/>
</g>
<!-- Node7 -->
<g id="node7" class="node"><title>Node7</title>
<g id="a_node7"><a xlink:href="classCConfigurationAccessContext.html#ac0a975afc840488e5e82345441de56cc" target="_top" xlink:title="CConfigurationAccessContext\l::serializeOut">
<polygon fill="white" stroke="black" points="336,-267 336,-297 494,-297 494,-267 336,-267"/>
<text text-anchor="start" x="344" y="-285" font-family="Verdana" font-size="10.00">CConfigurationAccessContext</text>
<text text-anchor="middle" x="415" y="-274" font-family="Verdana" font-size="10.00">::serializeOut</text>
</a>
</g>
</g>
<!-- Node1&#45;&gt;Node7 -->
<g id="edge16" class="edge"><title>Node1&#45;&gt;Node7</title>
<path fill="none" stroke="midnightblue" d="M111.086,-295.879C125.175,-292.292 140.573,-288.945 155,-287 211.396,-279.397 275.317,-278.088 325.546,-278.709"/>
<polygon fill="midnightblue" stroke="midnightblue" points="325.673,-282.211 335.725,-278.864 325.78,-275.212 325.673,-282.211"/>
</g>
<!-- Node5&#45;&gt;Node5 -->
<g id="edge11" class="edge"><title>Node5&#45;&gt;Node5</title>
<path fill="none" stroke="midnightblue" d="M198.223,-191.159C191.163,-200.557 200.922,-209.5 227.5,-209.5 243.696,-209.5 253.647,-206.179 257.352,-201.458"/>
<polygon fill="midnightblue" stroke="midnightblue" points="260.829,-200.949 256.777,-191.159 253.84,-201.338 260.829,-200.949"/>
</g>
<!-- Node6 -->
<g id="node6" class="node"><title>Node6</title>
<g id="a_node6"><a xlink:href="classCElement.html#a58b6cdb5715497442fde6afa1e65f8e5" target="_top" xlink:title="CElement::getNbChildren">
<polygon fill="white" stroke="black" points="346.5,-228.5 346.5,-247.5 483.5,-247.5 483.5,-228.5 346.5,-228.5"/>
<text text-anchor="middle" x="415" y="-235.5" font-family="Verdana" font-size="10.00">CElement::getNbChildren</text>
</a>
</g>
</g>
<!-- Node5&#45;&gt;Node6 -->
<g id="edge5" class="edge"><title>Node5&#45;&gt;Node6</title>
<path fill="none" stroke="midnightblue" d="M262.423,-191.004C283.359,-199.902 310.921,-210.974 336,-219 343.739,-221.477 351.998,-223.81 360.139,-225.938"/>
<polygon fill="midnightblue" stroke="midnightblue" points="359.414,-229.365 369.967,-228.427 361.133,-222.579 359.414,-229.365"/>
</g>
<!-- Node5&#45;&gt;Node7 -->
<g id="edge6" class="edge"><title>Node5&#45;&gt;Node7</title>
<path fill="none" stroke="midnightblue" d="M244.802,-191.096C264.895,-209.004 300.726,-238.728 336,-257 340.273,-259.214 344.78,-261.279 349.384,-263.196"/>
<polygon fill="midnightblue" stroke="midnightblue" points="348.338,-266.545 358.926,-266.925 350.885,-260.025 348.338,-266.545"/>
</g>
<!-- Node8 -->
<g id="node8" class="node"><title>Node8</title>
<g id="a_node8"><a xlink:href="classCElement.html#a9bba10d2dc72821589a898e16ace9ae5" target="_top" xlink:title="Get a child element (const) ">
<polygon fill="white" stroke="black" points="361,-190.5 361,-209.5 469,-209.5 469,-190.5 361,-190.5"/>
<text text-anchor="middle" x="415" y="-197.5" font-family="Verdana" font-size="10.00">CElement::getChild</text>
</a>
</g>
</g>
<!-- Node5&#45;&gt;Node8 -->
<g id="edge7" class="edge"><title>Node5&#45;&gt;Node8</title>
<path fill="none" stroke="midnightblue" d="M289.24,-183.858C309.035,-186.42 331.049,-189.268 351.006,-191.85"/>
<polygon fill="midnightblue" stroke="midnightblue" points="350.558,-195.321 360.925,-193.133 351.456,-188.379 350.558,-195.321"/>
</g>
<!-- Node9 -->
<g id="node9" class="node"><title>Node9</title>
<g id="a_node9"><a xlink:href="classCErrorContext.html#a9d58b281c0d0fc9a6d3b83714cf812ef" target="_top" xlink:title="CErrorContext::setError">
<polygon fill="white" stroke="black" points="351,-152.5 351,-171.5 479,-171.5 479,-152.5 351,-152.5"/>
<text text-anchor="middle" x="415" y="-159.5" font-family="Verdana" font-size="10.00">CErrorContext::setError</text>
</a>
</g>
</g>
<!-- Node5&#45;&gt;Node9 -->
<g id="edge8" class="edge"><title>Node5&#45;&gt;Node9</title>
<path fill="none" stroke="midnightblue" d="M289.24,-171.416C305.603,-170.181 323.481,-168.832 340.46,-167.55"/>
<polygon fill="midnightblue" stroke="midnightblue" points="341.187,-171.005 350.895,-166.763 340.66,-164.025 341.187,-171.005"/>
</g>
<!-- Node10 -->
<g id="node10" class="node"><title>Node10</title>
<g id="a_node10"><a xlink:href="classCElement.html#a49581fb6412e29e932962acd82d52d6a" target="_top" xlink:title="CElement::getName">
<polygon fill="white" stroke="black" points="358,-114.5 358,-133.5 472,-133.5 472,-114.5 358,-114.5"/>
<text text-anchor="middle" x="415" y="-121.5" font-family="Verdana" font-size="10.00">CElement::getName</text>
</a>
</g>
</g>
<!-- Node5&#45;&gt;Node10 -->
<g id="edge9" class="edge"><title>Node5&#45;&gt;Node10</title>
<path fill="none" stroke="midnightblue" d="M275.42,-160.94C294.187,-155.089 316.047,-148.488 336,-143 344.783,-140.584 354.166,-138.164 363.27,-135.898"/>
<polygon fill="midnightblue" stroke="midnightblue" points="364.121,-139.293 372.997,-133.508 362.45,-132.495 364.121,-139.293"/>
</g>
<!-- Node11 -->
<g id="node11" class="node"><title>Node11</title>
<g id="a_node11"><a xlink:href="classCElement.html#aed2ca7f2a56dbf2edcd82167859535ee" target="_top" xlink:title="CElement::getKind">
<polygon fill="white" stroke="black" points="362.5,-76.5 362.5,-95.5 467.5,-95.5 467.5,-76.5 362.5,-76.5"/>
<text text-anchor="middle" x="415" y="-83.5" font-family="Verdana" font-size="10.00">CElement::getKind</text>
</a>
</g>
</g>
<!-- Node5&#45;&gt;Node11 -->
<g id="edge10" class="edge"><title>Node5&#45;&gt;Node11</title>
<path fill="none" stroke="midnightblue" d="M247.145,-160.764C267.717,-144.679 302.379,-119.666 336,-105 341.701,-102.513 347.784,-100.316 353.944,-98.3833"/>
<polygon fill="midnightblue" stroke="midnightblue" points="355.019,-101.716 363.642,-95.5597 353.062,-94.9948 355.019,-101.716"/>
</g>
<!-- Node12 -->
<g id="node12" class="node"><title>Node12</title>
<g id="a_node12"><a xlink:href="classCElement.html#a0b4cdc10e6df8fd3740255c5faf3b596" target="_top" xlink:title="Creates a child CElement from a child XML Element. ">
<polygon fill="white" stroke="black" points="353.5,-38.5 353.5,-57.5 476.5,-57.5 476.5,-38.5 353.5,-38.5"/>
<text text-anchor="middle" x="415" y="-45.5" font-family="Verdana" font-size="10.00">CElement::createChild</text>
</a>
</g>
</g>
<!-- Node5&#45;&gt;Node12 -->
<g id="edge12" class="edge"><title>Node5&#45;&gt;Node12</title>
<path fill="none" stroke="midnightblue" d="M239.131,-160.706C256.533,-136.874 293.454,-91.114 336,-67 339.926,-64.7751 344.106,-62.809 348.413,-61.0719"/>
<polygon fill="midnightblue" stroke="midnightblue" points="349.773,-64.3024 357.998,-57.6233 347.403,-57.7158 349.773,-64.3024"/>
</g>
<!-- Node13 -->
<g id="node13" class="node"><title>Node13</title>
<g id="a_node13"><a xlink:href="classCXmlElementSerializingContext.html#a6c36b7e23b9968c6ea898612d2a55ee9" target="_top" xlink:title="CXmlElementSerializingContext\l::getElementLibrary">
<polygon fill="white" stroke="black" points="532,-77 532,-107 699,-107 699,-77 532,-77"/>
<text text-anchor="start" x="540" y="-95" font-family="Verdana" font-size="10.00">CXmlElementSerializingContext</text>
<text text-anchor="middle" x="615.5" y="-84" font-family="Verdana" font-size="10.00">::getElementLibrary</text>
</a>
</g>
</g>
<!-- Node12&#45;&gt;Node13 -->
<g id="edge13" class="edge"><title>Node12&#45;&gt;Node13</title>
<path fill="none" stroke="midnightblue" d="M459.072,-57.5473C481.72,-62.5676 510.187,-68.8777 536.55,-74.7215"/>
<polygon fill="midnightblue" stroke="midnightblue" points="536.014,-78.1875 546.535,-76.9346 537.529,-71.3534 536.014,-78.1875"/>
</g>
<!-- Node14 -->
<g id="node14" class="node"><title>Node14</title>
<g id="a_node14"><a xlink:href="classCElementLibrary.html#a5ad95964216e50fc59f0c803370fb4de" target="_top" xlink:title="CElementLibrary::createElement">
<polygon fill="white" stroke="black" points="530,-38.5 530,-57.5 701,-57.5 701,-38.5 530,-38.5"/>
<text text-anchor="middle" x="615.5" y="-45.5" font-family="Verdana" font-size="10.00">CElementLibrary::createElement</text>
</a>
</g>
</g>
<!-- Node12&#45;&gt;Node14 -->
<g id="edge14" class="edge"><title>Node12&#45;&gt;Node14</title>
<path fill="none" stroke="midnightblue" d="M476.635,-48C490.253,-48 505.019,-48 519.658,-48"/>
<polygon fill="midnightblue" stroke="midnightblue" points="519.756,-51.5001 529.756,-48 519.756,-44.5001 519.756,-51.5001"/>
</g>
<!-- Node15 -->
<g id="node15" class="node"><title>Node15</title>
<g id="a_node15"><a xlink:href="classCElement.html#ac2ad66ee438a4a0c1390b7388874fe72" target="_top" xlink:title="CElement::addChild">
<polygon fill="white" stroke="black" points="560.5,-0.5 560.5,-19.5 670.5,-19.5 670.5,-0.5 560.5,-0.5"/>
<text text-anchor="middle" x="615.5" y="-7.5" font-family="Verdana" font-size="10.00">CElement::addChild</text>
</a>
</g>
</g>
<!-- Node12&#45;&gt;Node15 -->
<g id="edge15" class="edge"><title>Node12&#45;&gt;Node15</title>
<path fill="none" stroke="midnightblue" d="M465.834,-38.46C492.734,-33.3104 526.136,-26.916 554.461,-21.4935"/>
<polygon fill="midnightblue" stroke="midnightblue" points="555.482,-24.8618 564.646,-19.5439 554.166,-17.9866 555.482,-24.8618"/>
</g>
</g>
</svg>
