<?xml version="1.0" encoding="UTF-8" standalone="no"?>
<!DOCTYPE svg PUBLIC "-//W3C//DTD SVG 1.1//EN"
 "http://www.w3.org/Graphics/SVG/1.1/DTD/svg11.dtd">
<!-- Generated by graphviz version 2.38.0 (20140413.2041)
 -->
<!-- Title: CFixedPointParameterType::fromBlackboard Pages: 1 -->
<svg width="345pt" height="66pt"
 viewBox="0.00 0.00 345.00 66.00" xmlns="http://www.w3.org/2000/svg" xmlns:xlink="http://www.w3.org/1999/xlink">
<g id="graph0" class="graph" transform="scale(1 1) rotate(0) translate(4 62)">
<title>CFixedPointParameterType::fromBlackboard</title>
<polygon fill="white" stroke="none" points="-4,4 -4,-62 341,-62 341,4 -4,4"/>
<!-- Node1 -->
<g id="node1" class="node"><title>Node1</title>
<polygon fill="#bfbfbf" stroke="black" points="0,-14 0,-44 143,-44 143,-14 0,-14"/>
<text text-anchor="start" x="8" y="-32" font-family="Verdana" font-size="10.00">CFixedPointParameterType</text>
<text text-anchor="middle" x="71.5" y="-21" font-family="Verdana" font-size="10.00">::fromBlackboard</text>
</g>
<!-- Node2 -->
<g id="node2" class="node"><title>Node2</title>
<g id="a_node2"><a xlink:href="classCParameterType.html#af5e79e641e4cd7929b60395d9ffd761a" target="_top" xlink:title="CParameterType::isEncodable">
<polygon fill="white" stroke="black" points="179,-38.5 179,-57.5 337,-57.5 337,-38.5 179,-38.5"/>
<text text-anchor="middle" x="258" y="-45.5" font-family="Verdana" font-size="10.00">CParameterType::isEncodable</text>
</a>
</g>
</g>
<!-- Node1&#45;&gt;Node2 -->
<g id="edge1" class="edge"><title>Node1&#45;&gt;Node2</title>
<path fill="none" stroke="midnightblue" d="M143.041,-36.2644C151.45,-37.1303 160.113,-38.0225 168.731,-38.9099"/>
<polygon fill="midnightblue" stroke="midnightblue" points="168.501,-42.4047 178.807,-39.9476 169.218,-35.4415 168.501,-42.4047"/>
</g>
<!-- Node3 -->
<g id="node3" class="node"><title>Node3</title>
<g id="a_node3"><a xlink:href="classCParameterType.html#ac32b37965ef213b6a8df9656b37596df" target="_top" xlink:title="Sign extension (32 bits) ">
<polygon fill="white" stroke="black" points="181.5,-0.5 181.5,-19.5 334.5,-19.5 334.5,-0.5 181.5,-0.5"/>
<text text-anchor="middle" x="258" y="-7.5" font-family="Verdana" font-size="10.00">CParameterType::signExtend</text>
</a>
</g>
</g>
<!-- Node1&#45;&gt;Node3 -->
<g id="edge2" class="edge"><title>Node1&#45;&gt;Node3</title>
<path fill="none" stroke="midnightblue" d="M143.041,-21.7356C152.23,-20.7893 161.724,-19.8116 171.129,-18.8431"/>
<polygon fill="midnightblue" stroke="midnightblue" points="171.692,-22.3038 181.28,-17.7977 170.974,-15.3406 171.692,-22.3038"/>
</g>
</g>
</svg>
