<?xml version="1.0" encoding="UTF-8" standalone="no"?>
<!DOCTYPE svg PUBLIC "-//W3C//DTD SVG 1.1//EN"
 "http://www.w3.org/Graphics/SVG/1.1/DTD/svg11.dtd">
<!-- Generated by graphviz version 2.38.0 (20140413.2041)
 -->
<!-- Title: CBooleanParameterType::CBooleanParameterType Pages: 1 -->
<svg width="709pt" height="39pt"
 viewBox="0.00 0.00 709.00 39.00" xmlns="http://www.w3.org/2000/svg" xmlns:xlink="http://www.w3.org/1999/xlink">
<g id="graph0" class="graph" transform="scale(1 1) rotate(0) translate(4 35)">
<title>CBooleanParameterType::CBooleanParameterType</title>
<polygon fill="white" stroke="none" points="-4,4 -4,-35 705,-35 705,4 -4,4"/>
<!-- Node1 -->
<g id="node1" class="node"><title>Node1</title>
<polygon fill="#bfbfbf" stroke="black" points="0,-0.5 0,-30.5 140,-30.5 140,-0.5 0,-0.5"/>
<text text-anchor="start" x="8" y="-18.5" font-family="Verdana" font-size="10.00">CBooleanParameterType</text>
<text text-anchor="middle" x="70" y="-7.5" font-family="Verdana" font-size="10.00">::CBooleanParameterType</text>
</g>
<!-- Node2 -->
<g id="node2" class="node"><title>Node2</title>
<g id="a_node2"><a xlink:href="classCParameterType.html#ae4e0ef0fd082c6c3c711594671697035" target="_top" xlink:title="CParameterType::CParameterType">
<polygon fill="white" stroke="black" points="176,-6 176,-25 355,-25 355,-6 176,-6"/>
<text text-anchor="middle" x="265.5" y="-13" font-family="Verdana" font-size="10.00">CParameterType::CParameterType</text>
</a>
</g>
</g>
<!-- Node1&#45;&gt;Node2 -->
<g id="edge1" class="edge"><title>Node1&#45;&gt;Node2</title>
<path fill="none" stroke="midnightblue" d="M140.038,-15.5C148.386,-15.5 157.033,-15.5 165.703,-15.5"/>
<polygon fill="midnightblue" stroke="midnightblue" points="165.873,-19.0001 175.873,-15.5 165.873,-12.0001 165.873,-19.0001"/>
</g>
<!-- Node3 -->
<g id="node3" class="node"><title>Node3</title>
<g id="a_node3"><a xlink:href="classCTypeElement.html#aaf598b31938a8ba37fa306ee8847ed0d" target="_top" xlink:title="CTypeElement::CTypeElement">
<polygon fill="white" stroke="black" points="391,-6 391,-25 549,-25 549,-6 391,-6"/>
<text text-anchor="middle" x="470" y="-13" font-family="Verdana" font-size="10.00">CTypeElement::CTypeElement</text>
</a>
</g>
</g>
<!-- Node2&#45;&gt;Node3 -->
<g id="edge2" class="edge"><title>Node2&#45;&gt;Node3</title>
<path fill="none" stroke="midnightblue" d="M355.025,-15.5C363.499,-15.5 372.094,-15.5 380.567,-15.5"/>
<polygon fill="midnightblue" stroke="midnightblue" points="380.826,-19.0001 390.826,-15.5 380.826,-12.0001 380.826,-19.0001"/>
</g>
<!-- Node4 -->
<g id="node4" class="node"><title>Node4</title>
<g id="a_node4"><a xlink:href="classCElement.html#adda0945fbca000ff1e605a9b93f74c64" target="_top" xlink:title="CElement::CElement">
<polygon fill="white" stroke="black" points="585,-6 585,-25 701,-25 701,-6 585,-6"/>
<text text-anchor="middle" x="643" y="-13" font-family="Verdana" font-size="10.00">CElement::CElement</text>
</a>
</g>
</g>
<!-- Node3&#45;&gt;Node4 -->
<g id="edge3" class="edge"><title>Node3&#45;&gt;Node4</title>
<path fill="none" stroke="midnightblue" d="M549.493,-15.5C557.982,-15.5 566.564,-15.5 574.901,-15.5"/>
<polygon fill="midnightblue" stroke="midnightblue" points="574.926,-19.0001 584.926,-15.5 574.926,-12.0001 574.926,-19.0001"/>
</g>
</g>
</svg>
