<?xml version="1.0" encoding="UTF-8" standalone="no"?>
<!DOCTYPE svg PUBLIC "-//W3C//DTD SVG 1.1//EN"
 "http://www.w3.org/Graphics/SVG/1.1/DTD/svg11.dtd">
<!-- Generated by graphviz version 2.38.0 (20140413.2041)
 -->
<!-- Title: CTypeElement::showProperties Pages: 1 -->
<svg width="529pt" height="39pt"
 viewBox="0.00 0.00 529.00 39.00" xmlns="http://www.w3.org/2000/svg" xmlns:xlink="http://www.w3.org/1999/xlink">
<g id="graph0" class="graph" transform="scale(1 1) rotate(0) translate(4 35)">
<title>CTypeElement::showProperties</title>
<polygon fill="white" stroke="none" points="-4,4 -4,-35 525,-35 525,4 -4,4"/>
<!-- Node1 -->
<g id="node1" class="node"><title>Node1</title>
<polygon fill="#bfbfbf" stroke="black" points="0,-6 0,-25 163,-25 163,-6 0,-6"/>
<text text-anchor="middle" x="81.5" y="-13" font-family="Verdana" font-size="10.00">CTypeElement::showProperties</text>
</g>
<!-- Node2 -->
<g id="node2" class="node"><title>Node2</title>
<g id="a_node2"><a xlink:href="classCElement.html#afce045b488b7c243f52a30269dae8f62" target="_top" xlink:title="Appends if found human readable description property. ">
<polygon fill="white" stroke="black" points="199,-0.5 199,-30.5 346,-30.5 346,-0.5 199,-0.5"/>
<text text-anchor="start" x="207" y="-18.5" font-family="Verdana" font-size="10.00">CElement::showDescription</text>
<text text-anchor="middle" x="272.5" y="-7.5" font-family="Verdana" font-size="10.00">Property</text>
</a>
</g>
</g>
<!-- Node1&#45;&gt;Node2 -->
<g id="edge1" class="edge"><title>Node1&#45;&gt;Node2</title>
<path fill="none" stroke="midnightblue" d="M163.201,-15.5C171.618,-15.5 180.184,-15.5 188.625,-15.5"/>
<polygon fill="midnightblue" stroke="midnightblue" points="188.839,-19.0001 198.839,-15.5 188.839,-12.0001 188.839,-19.0001"/>
</g>
<!-- Node3 -->
<g id="node3" class="node"><title>Node3</title>
<g id="a_node3"><a xlink:href="classCElement.html#a83c3c6e07b015c44706edf4bb8fc41c2" target="_top" xlink:title="CElement::getDescription">
<polygon fill="white" stroke="black" points="382,-6 382,-25 521,-25 521,-6 382,-6"/>
<text text-anchor="middle" x="451.5" y="-13" font-family="Verdana" font-size="10.00">CElement::getDescription</text>
</a>
</g>
</g>
<!-- Node2&#45;&gt;Node3 -->
<g id="edge2" class="edge"><title>Node2&#45;&gt;Node3</title>
<path fill="none" stroke="midnightblue" d="M346.003,-15.5C354.512,-15.5 363.225,-15.5 371.813,-15.5"/>
<polygon fill="midnightblue" stroke="midnightblue" points="371.818,-19.0001 381.818,-15.5 371.818,-12.0001 371.818,-19.0001"/>
</g>
</g>
</svg>
