<?xml version="1.0" encoding="UTF-8" standalone="no"?>
<!DOCTYPE svg PUBLIC "-//W3C//DTD SVG 1.1//EN"
 "http://www.w3.org/Graphics/SVG/1.1/DTD/svg11.dtd">
<!-- Generated by graphviz version 2.36.0 (20140111.2315)
 -->
<!-- Title: CSubsystemObject::~CSubsystemObject Pages: 1 -->
<svg width="324pt" height="38pt"
 viewBox="0.00 0.00 324.00 38.00" xmlns="http://www.w3.org/2000/svg" xmlns:xlink="http://www.w3.org/1999/xlink">
<g id="graph0" class="graph" transform="scale(1 1) rotate(0) translate(4 34)">
<title>CSubsystemObject::~CSubsystemObject</title>
<polygon fill="white" stroke="none" points="-4,4 -4,-34 320,-34 320,4 -4,4"/>
<!-- Node1 -->
<g id="node1" class="node"><title>Node1</title>
<polygon fill="#bfbfbf" stroke="black" points="0,-0 0,-30 116,-30 116,-0 0,-0"/>
<text text-anchor="start" x="8" y="-18" font-family="Verdana" font-size="10.00">CSubsystemObject::</text>
<text text-anchor="middle" x="58" y="-7" font-family="Verdana" font-size="10.00">~CSubsystemObject</text>
</g>
<!-- Node2 -->
<g id="node2" class="node"><title>Node2</title>
<g id="a_node2"><a xlink:href="classCInstanceConfigurableElement.html#aa9ecf181a3917f82a82439e432849f61" target="_top" xlink:title="CInstanceConfigurableElement\l::unsetSyncer">
<polygon fill="white" stroke="black" points="152,-0 152,-30 316,-30 316,-0 152,-0"/>
<text text-anchor="start" x="160" y="-18" font-family="Verdana" font-size="10.00">CInstanceConfigurableElement</text>
<text text-anchor="middle" x="234" y="-7" font-family="Verdana" font-size="10.00">::unsetSyncer</text>
</a>
</g>
</g>
<!-- Node1&#45;&gt;Node2 -->
<g id="edge1" class="edge"><title>Node1&#45;&gt;Node2</title>
<path fill="none" stroke="midnightblue" d="M116.456,-15C124.638,-15 133.216,-15 141.848,-15"/>
<polygon fill="midnightblue" stroke="midnightblue" points="141.987,-18.5001 151.987,-15 141.986,-11.5001 141.987,-18.5001"/>
</g>
</g>
</svg>
