<?xml version="1.0" encoding="UTF-8" standalone="no"?>
<!DOCTYPE svg PUBLIC "-//W3C//DTD SVG 1.1//EN"
 "http://www.w3.org/Graphics/SVG/1.1/DTD/svg11.dtd">
<!-- Generated by graphviz version 2.38.0 (20140413.2041)
 -->
<!-- Title: CParameterMgr::ILogger Pages: 1 -->
<svg width="761pt" height="97pt"
 viewBox="0.00 0.00 761.00 97.00" xmlns="http://www.w3.org/2000/svg" xmlns:xlink="http://www.w3.org/1999/xlink">
<g id="graph0" class="graph" transform="scale(1 1) rotate(0) translate(4 93)">
<title>CParameterMgr::ILogger</title>
<polygon fill="white" stroke="none" points="-4,4 -4,-93 757,-93 757,4 -4,4"/>
<!-- Node1 -->
<g id="node1" class="node"><title>Node1</title>
<polygon fill="#bfbfbf" stroke="black" points="0,-31 0,-50 133,-50 133,-31 0,-31"/>
<text text-anchor="middle" x="66.5" y="-38" font-family="Verdana" font-size="10.00">CParameterMgr::ILogger</text>
</g>
<!-- Node2 -->
<g id="node2" class="node"><title>Node2</title>
<g id="a_node2"><a xlink:href="singletonCParameterMgrLogger.html" target="_top" xlink:title="CParameterMgrLogger\&lt; T \&gt;">
<polygon fill="white" stroke="black" points="170,-31 170,-50 322,-50 322,-31 170,-31"/>
<text text-anchor="middle" x="246" y="-38" font-family="Verdana" font-size="10.00">CParameterMgrLogger&lt; T &gt;</text>
</a>
</g>
</g>
<!-- Node1&#45;&gt;Node2 -->
<g id="edge1" class="edge"><title>Node1&#45;&gt;Node2</title>
<path fill="none" stroke="midnightblue" d="M143.294,-40.5C152.072,-40.5 161.023,-40.5 169.793,-40.5"/>
<polygon fill="midnightblue" stroke="midnightblue" points="143.09,-37.0001 133.09,-40.5 143.09,-44.0001 143.09,-37.0001"/>
</g>
<!-- Node3 -->
<g id="node3" class="node"><title>Node3</title>
<g id="a_node3"><a xlink:href="singletonCParameterMgrLogger.html" target="_top" xlink:title="CParameterMgrLogger\l\&lt; CParameterMgrPlatformConnector \&gt;">
<polygon fill="white" stroke="black" points="549,-58.5 549,-88.5 753,-88.5 753,-58.5 549,-58.5"/>
<text text-anchor="start" x="557" y="-76.5" font-family="Verdana" font-size="10.00">CParameterMgrLogger</text>
<text text-anchor="middle" x="651" y="-65.5" font-family="Verdana" font-size="10.00">&lt; CParameterMgrPlatformConnector &gt;</text>
</a>
</g>
</g>
<!-- Node1&#45;&gt;Node3 -->
<g id="edge5" class="edge"><title>Node1&#45;&gt;Node3</title>
<path fill="none" stroke="midnightblue" d="M123.46,-51.9315C138.522,-54.7183 154.841,-57.4762 170,-59.5 299.944,-76.8491 451.36,-78.1669 548.84,-76.6021"/>
<polygon fill="midnightblue" stroke="midnightblue" points="123.739,-48.4224 113.264,-50.0062 122.441,-55.3008 123.739,-48.4224"/>
</g>
<!-- Node4 -->
<g id="node4" class="node"><title>Node4</title>
<g id="a_node4"><a xlink:href="singletonCParameterMgrLogger.html" target="_top" xlink:title="CParameterMgrLogger\l\&lt; CParameterMgrFullConnector \&gt;">
<polygon fill="white" stroke="black" points="561.5,-0.5 561.5,-30.5 740.5,-30.5 740.5,-0.5 561.5,-0.5"/>
<text text-anchor="start" x="569.5" y="-18.5" font-family="Verdana" font-size="10.00">CParameterMgrLogger</text>
<text text-anchor="middle" x="651" y="-7.5" font-family="Verdana" font-size="10.00">&lt; CParameterMgrFullConnector &gt;</text>
</a>
</g>
</g>
<!-- Node1&#45;&gt;Node4 -->
<g id="edge4" class="edge"><title>Node1&#45;&gt;Node4</title>
<path fill="none" stroke="midnightblue" d="M121.453,-29.0743C137.052,-26.1587 154.146,-23.3338 170,-21.5 329.421,-3.06033 370.522,-12.1515 531,-13.5 540.814,-13.5825 551.084,-13.7032 561.301,-13.8451"/>
<polygon fill="midnightblue" stroke="midnightblue" points="120.608,-25.6725 111.447,-30.9939 121.927,-32.5472 120.608,-25.6725"/>
</g>
<!-- Node2&#45;&gt;Node3 -->
<g id="edge2" class="edge"><title>Node2&#45;&gt;Node3</title>
<path fill="none" stroke="orange" stroke-dasharray="5,2" d="M332.37,-46.7806C388.772,-51.012 464.316,-56.8355 531,-62.5 536.789,-62.9917 542.734,-63.5075 548.734,-64.0361"/>
<polygon fill="orange" stroke="orange" points="332.301,-43.2657 322.067,-46.0094 331.778,-50.2462 332.301,-43.2657"/>
<text text-anchor="middle" x="435.5" y="-65.5" font-family="Verdana" font-size="10.00"> &lt; CParameterMgrPlatformConnector &gt;</text>
</g>
<!-- Node2&#45;&gt;Node4 -->
<g id="edge3" class="edge"><title>Node2&#45;&gt;Node4</title>
<path fill="none" stroke="orange" stroke-dasharray="5,2" d="M325.547,-29.8788C330.433,-29.3688 335.281,-28.9027 340,-28.5 414.47,-22.146 499.279,-18.8608 561.345,-17.1844"/>
<polygon fill="orange" stroke="orange" points="325.052,-26.412 315.493,-30.9808 325.815,-33.3703 325.052,-26.412"/>
<text text-anchor="middle" x="435.5" y="-31.5" font-family="Verdana" font-size="10.00"> &lt; CParameterMgrFullConnector &gt;</text>
</g>
</g>
</svg>
