<?xml version="1.0" encoding="UTF-8" standalone="no"?>
<!DOCTYPE svg PUBLIC "-//W3C//DTD SVG 1.1//EN"
 "http://www.w3.org/Graphics/SVG/1.1/DTD/svg11.dtd">
<!-- Generated by graphviz version 2.38.0 (20140413.2041)
 -->
<!-- Title: CConfigurationAccessContext::serializeOut Pages: 1 -->
<svg width="517pt" height="232pt"
 viewBox="0.00 0.00 517.00 232.00" xmlns="http://www.w3.org/2000/svg" xmlns:xlink="http://www.w3.org/1999/xlink">
<g id="graph0" class="graph" transform="scale(1 1) rotate(0) translate(4 228)">
<title>CConfigurationAccessContext::serializeOut</title>
<polygon fill="white" stroke="none" points="-4,4 -4,-228 513,-228 513,4 -4,4"/>
<!-- Node1 -->
<g id="node1" class="node"><title>Node1</title>
<polygon fill="#bfbfbf" stroke="black" points="0,-98.5 0,-128.5 158,-128.5 158,-98.5 0,-98.5"/>
<text text-anchor="start" x="8" y="-116.5" font-family="Verdana" font-size="10.00">CConfigurationAccessContext</text>
<text text-anchor="middle" x="79" y="-105.5" font-family="Verdana" font-size="10.00">::serializeOut</text>
</g>
<!-- Node2 -->
<g id="node2" class="node"><title>Node2</title>
<g id="a_node2"><a xlink:href="classCAreaConfiguration.html#a6b8c95a79343ee9823b026d74184e798" target="_top" xlink:title="CAreaConfiguration\l::serializeXmlSettings">
<polygon fill="white" stroke="black" points="388,-193.5 388,-223.5 507,-223.5 507,-193.5 388,-193.5"/>
<text text-anchor="start" x="396" y="-211.5" font-family="Verdana" font-size="10.00">CAreaConfiguration</text>
<text text-anchor="middle" x="447.5" y="-200.5" font-family="Verdana" font-size="10.00">::serializeXmlSettings</text>
</a>
</g>
</g>
<!-- Node1&#45;&gt;Node2 -->
<g id="edge1" class="edge"><title>Node1&#45;&gt;Node2</title>
<path fill="none" stroke="midnightblue" d="M99.1772,-135.997C119.918,-158.45 155.254,-191.557 194,-205.5 257.319,-228.287 335.486,-224.826 387.93,-218.401"/>
<polygon fill="midnightblue" stroke="midnightblue" points="101.761,-133.636 92.4679,-128.549 96.5602,-138.321 101.761,-133.636"/>
</g>
<!-- Node3 -->
<g id="node3" class="node"><title>Node3</title>
<g id="a_node3"><a xlink:href="classCBaseParameter.html#a97e096908df72fa729a62c3f5c362ddd" target="_top" xlink:title="CBaseParameter::serialize\lXmlSettings">
<polygon fill="white" stroke="black" points="200.5,-165.5 200.5,-195.5 343.5,-195.5 343.5,-165.5 200.5,-165.5"/>
<text text-anchor="start" x="208.5" y="-183.5" font-family="Verdana" font-size="10.00">CBaseParameter::serialize</text>
<text text-anchor="middle" x="272" y="-172.5" font-family="Verdana" font-size="10.00">XmlSettings</text>
</a>
</g>
</g>
<!-- Node1&#45;&gt;Node3 -->
<g id="edge2" class="edge"><title>Node1&#45;&gt;Node3</title>
<path fill="none" stroke="midnightblue" d="M127.677,-132.195C148.016,-139.985 172.071,-148.954 194,-156.5 202.739,-159.507 212.089,-162.559 221.156,-165.432"/>
<polygon fill="midnightblue" stroke="midnightblue" points="128.907,-128.918 118.318,-128.593 126.393,-135.451 128.907,-128.918"/>
</g>
<!-- Node4 -->
<g id="node4" class="node"><title>Node4</title>
<g id="a_node4"><a xlink:href="classCConfigurableElement.html#a0e3feb8a7b18a3291ec960c9726b4eaf" target="_top" xlink:title="CConfigurableElement\l::serializeXmlSettings">
<polygon fill="white" stroke="black" points="210.5,-98.5 210.5,-128.5 333.5,-128.5 333.5,-98.5 210.5,-98.5"/>
<text text-anchor="start" x="218.5" y="-116.5" font-family="Verdana" font-size="10.00">CConfigurableElement</text>
<text text-anchor="middle" x="272" y="-105.5" font-family="Verdana" font-size="10.00">::serializeXmlSettings</text>
</a>
</g>
</g>
<!-- Node1&#45;&gt;Node4 -->
<g id="edge3" class="edge"><title>Node1&#45;&gt;Node4</title>
<path fill="none" stroke="midnightblue" d="M168.512,-113.5C182.697,-113.5 197.089,-113.5 210.426,-113.5"/>
<polygon fill="midnightblue" stroke="midnightblue" points="168.238,-110 158.238,-113.5 168.238,-117 168.238,-110"/>
</g>
<!-- Node7 -->
<g id="node7" class="node"><title>Node7</title>
<g id="a_node7"><a xlink:href="classCFixedPointParameterType.html#ac5dd869d9846a4e999fe9715b397c17d" target="_top" xlink:title="Value space handling for settings import/export from/to XML. ">
<polygon fill="white" stroke="black" points="195.5,-49.5 195.5,-79.5 348.5,-79.5 348.5,-49.5 195.5,-49.5"/>
<text text-anchor="start" x="203.5" y="-67.5" font-family="Verdana" font-size="10.00">CFixedPointParameterType</text>
<text text-anchor="middle" x="272" y="-56.5" font-family="Verdana" font-size="10.00">::handleValueSpaceAttribute</text>
</a>
</g>
</g>
<!-- Node1&#45;&gt;Node7 -->
<g id="edge8" class="edge"><title>Node1&#45;&gt;Node7</title>
<path fill="none" stroke="midnightblue" d="M148.408,-95.9502C169.383,-90.5694 192.257,-84.701 212.506,-79.5062"/>
<polygon fill="midnightblue" stroke="midnightblue" points="147.421,-92.5901 138.604,-98.4654 149.16,-99.3706 147.421,-92.5901"/>
</g>
<!-- Node8 -->
<g id="node8" class="node"><title>Node8</title>
<g id="a_node8"><a xlink:href="classCFloatingPointParameterType.html#a5fcda53d3c5e9e2cdab424158c808f19" target="_top" xlink:title="Value space handling for settings import/export from/to XML. ">
<polygon fill="white" stroke="black" points="194,-0.5 194,-30.5 350,-30.5 350,-0.5 194,-0.5"/>
<text text-anchor="start" x="202" y="-18.5" font-family="Verdana" font-size="10.00">CFloatingPointParameterType</text>
<text text-anchor="middle" x="272" y="-7.5" font-family="Verdana" font-size="10.00">::handleValueSpaceAttribute</text>
</a>
</g>
</g>
<!-- Node1&#45;&gt;Node8 -->
<g id="edge9" class="edge"><title>Node1&#45;&gt;Node8</title>
<path fill="none" stroke="midnightblue" d="M107.938,-92.2507C130.273,-76.0497 162.888,-54.1072 194,-39.5 200.971,-36.227 208.501,-33.2526 216.028,-30.5996"/>
<polygon fill="midnightblue" stroke="midnightblue" points="105.599,-89.6258 99.6142,-98.3684 109.745,-95.2662 105.599,-89.6258"/>
</g>
<!-- Node4&#45;&gt;Node2 -->
<g id="edge4" class="edge"><title>Node4&#45;&gt;Node2</title>
<path fill="none" stroke="midnightblue" d="M309.284,-133.367C341.924,-151.24 389.179,-177.114 418.85,-193.36"/>
<polygon fill="midnightblue" stroke="midnightblue" points="310.944,-130.286 300.492,-128.553 307.582,-136.426 310.944,-130.286"/>
</g>
<!-- Node4&#45;&gt;Node4 -->
<g id="edge7" class="edge"><title>Node4&#45;&gt;Node4</title>
<path fill="none" stroke="midnightblue" d="M241.082,-138.958C244.92,-143.679 255.226,-147 272,-147 299.527,-147 309.635,-138.057 302.323,-128.659"/>
<polygon fill="midnightblue" stroke="midnightblue" points="244.595,-138.844 241.677,-128.659 237.606,-138.441 244.595,-138.844"/>
</g>
<!-- Node5 -->
<g id="node5" class="node"><title>Node5</title>
<g id="a_node5"><a xlink:href="classCConfigurableElement.html#ac5bbe709d02fa6af3469a91a72edcd06" target="_top" xlink:title="CConfigurableElement\l::fromXml">
<polygon fill="white" stroke="black" points="386,-113.5 386,-143.5 509,-143.5 509,-113.5 386,-113.5"/>
<text text-anchor="start" x="394" y="-131.5" font-family="Verdana" font-size="10.00">CConfigurableElement</text>
<text text-anchor="middle" x="447.5" y="-120.5" font-family="Verdana" font-size="10.00">::fromXml</text>
</a>
</g>
</g>
<!-- Node4&#45;&gt;Node5 -->
<g id="edge5" class="edge"><title>Node4&#45;&gt;Node5</title>
<path fill="none" stroke="midnightblue" d="M343.732,-119.615C357.704,-120.823 372.25,-122.081 385.852,-123.257"/>
<polygon fill="midnightblue" stroke="midnightblue" points="343.946,-116.121 333.682,-118.746 343.343,-123.095 343.946,-116.121"/>
</g>
<!-- Node6 -->
<g id="node6" class="node"><title>Node6</title>
<g id="a_node6"><a xlink:href="classCConfigurableElement.html#a2331dbc00f60d4d19a5686bbb519c473" target="_top" xlink:title="CConfigurableElement\l::toXml">
<polygon fill="white" stroke="black" points="386,-64.5 386,-94.5 509,-94.5 509,-64.5 386,-64.5"/>
<text text-anchor="start" x="394" y="-82.5" font-family="Verdana" font-size="10.00">CConfigurableElement</text>
<text text-anchor="middle" x="447.5" y="-71.5" font-family="Verdana" font-size="10.00">::toXml</text>
</a>
</g>
</g>
<!-- Node4&#45;&gt;Node6 -->
<g id="edge6" class="edge"><title>Node4&#45;&gt;Node6</title>
<path fill="none" stroke="midnightblue" d="M343.732,-99.6389C357.704,-96.9009 372.25,-94.0504 385.852,-91.3848"/>
<polygon fill="midnightblue" stroke="midnightblue" points="342.822,-96.2506 333.682,-101.608 344.168,-103.12 342.822,-96.2506"/>
</g>
</g>
</svg>
