<?xml version="1.0" encoding="UTF-8" standalone="no"?>
<!DOCTYPE svg PUBLIC "-//W3C//DTD SVG 1.1//EN"
 "http://www.w3.org/Graphics/SVG/1.1/DTD/svg11.dtd">
<!-- Generated by graphviz version 2.38.0 (20140413.2041)
 -->
<!-- Title: CParameterHandle::setAsStringArray Pages: 1 -->
<svg width="380pt" height="78pt"
 viewBox="0.00 0.00 380.00 77.50" xmlns="http://www.w3.org/2000/svg" xmlns:xlink="http://www.w3.org/1999/xlink">
<g id="graph0" class="graph" transform="scale(1 1) rotate(0) translate(4 73.5)">
<title>CParameterHandle::setAsStringArray</title>
<polygon fill="white" stroke="none" points="-4,4 -4,-73.5 376,-73.5 376,4 -4,4"/>
<!-- Node1 -->
<g id="node1" class="node"><title>Node1</title>
<polygon fill="#bfbfbf" stroke="black" points="0,-22.5 0,-52.5 169,-52.5 169,-22.5 0,-22.5"/>
<text text-anchor="start" x="8" y="-40.5" font-family="Verdana" font-size="10.00">CParameterHandle::setAsString</text>
<text text-anchor="middle" x="84.5" y="-29.5" font-family="Verdana" font-size="10.00">Array</text>
</g>
<!-- Node2 -->
<g id="node2" class="node"><title>Node2</title>
<g id="a_node2"><a xlink:href="classCParameterMgr.html#a25606ff4b96a3539dd76723fb4346d67" target="_top" xlink:title="CParameterMgr::tuningModeOn">
<polygon fill="white" stroke="black" points="205,-50 205,-69 372,-69 372,-50 205,-50"/>
<text text-anchor="middle" x="288.5" y="-57" font-family="Verdana" font-size="10.00">CParameterMgr::tuningModeOn</text>
</a>
</g>
</g>
<!-- Node1&#45;&gt;Node2 -->
<g id="edge1" class="edge"><title>Node1&#45;&gt;Node2</title>
<path fill="none" stroke="midnightblue" d="M169.119,-46.607C177.623,-47.5331 186.295,-48.4777 194.887,-49.4134"/>
<polygon fill="midnightblue" stroke="midnightblue" points="194.599,-52.9027 204.919,-50.5061 195.357,-45.9439 194.599,-52.9027"/>
</g>
<!-- Node3 -->
<g id="node3" class="node"><title>Node3</title>
<g id="a_node3"><a xlink:href="classCBaseParameter.html#a92227f427d1f58905437176152356ed9" target="_top" xlink:title="CBaseParameter::accessAs\lStringArray">
<polygon fill="white" stroke="black" points="214,-0.5 214,-30.5 363,-30.5 363,-0.5 214,-0.5"/>
<text text-anchor="start" x="222" y="-18.5" font-family="Verdana" font-size="10.00">CBaseParameter::accessAs</text>
<text text-anchor="middle" x="288.5" y="-7.5" font-family="Verdana" font-size="10.00">StringArray</text>
</a>
</g>
</g>
<!-- Node1&#45;&gt;Node3 -->
<g id="edge2" class="edge"><title>Node1&#45;&gt;Node3</title>
<path fill="none" stroke="midnightblue" d="M169.119,-28.393C180.62,-27.1404 192.431,-25.8541 203.931,-24.6016"/>
<polygon fill="midnightblue" stroke="midnightblue" points="204.379,-28.0736 213.941,-23.5114 203.621,-21.1147 204.379,-28.0736"/>
</g>
</g>
</svg>
