<?xml version="1.0" encoding="UTF-8" standalone="no"?>
<!DOCTYPE svg PUBLIC "-//W3C//DTD SVG 1.1//EN"
 "http://www.w3.org/Graphics/SVG/1.1/DTD/svg11.dtd">
<!-- Generated by graphviz version 2.38.0 (20140413.2041)
 -->
<!-- Title: CArrayParameter::CArrayParameter Pages: 1 -->
<svg width="1113pt" height="39pt"
 viewBox="0.00 0.00 1113.00 39.00" xmlns="http://www.w3.org/2000/svg" xmlns:xlink="http://www.w3.org/1999/xlink">
<g id="graph0" class="graph" transform="scale(1 1) rotate(0) translate(4 35)">
<title>CArrayParameter::CArrayParameter</title>
<polygon fill="white" stroke="none" points="-4,4 -4,-35 1109,-35 1109,4 -4,4"/>
<!-- Node1 -->
<g id="node1" class="node"><title>Node1</title>
<polygon fill="#bfbfbf" stroke="black" points="0,-6 0,-25 188,-25 188,-6 0,-6"/>
<text text-anchor="middle" x="94" y="-13" font-family="Verdana" font-size="10.00">CArrayParameter::CArrayParameter</text>
</g>
<!-- Node2 -->
<g id="node2" class="node"><title>Node2</title>
<g id="a_node2"><a xlink:href="classCParameter.html#a8f631f0c26c9c329a839afac8528da05" target="_top" xlink:title="CParameter::CParameter">
<polygon fill="white" stroke="black" points="224,-6 224,-25 361,-25 361,-6 224,-6"/>
<text text-anchor="middle" x="292.5" y="-13" font-family="Verdana" font-size="10.00">CParameter::CParameter</text>
</a>
</g>
</g>
<!-- Node1&#45;&gt;Node2 -->
<g id="edge1" class="edge"><title>Node1&#45;&gt;Node2</title>
<path fill="none" stroke="midnightblue" d="M188.071,-15.5C196.675,-15.5 205.332,-15.5 213.777,-15.5"/>
<polygon fill="midnightblue" stroke="midnightblue" points="213.955,-19.0001 223.955,-15.5 213.955,-12.0001 213.955,-19.0001"/>
</g>
<!-- Node3 -->
<g id="node3" class="node"><title>Node3</title>
<g id="a_node3"><a xlink:href="classCBaseParameter.html#a1fc2da9917f7fc5ab39bef1f7a45653f" target="_top" xlink:title="CBaseParameter::CBaseParameter">
<polygon fill="white" stroke="black" points="397,-6 397,-25 582,-25 582,-6 397,-6"/>
<text text-anchor="middle" x="489.5" y="-13" font-family="Verdana" font-size="10.00">CBaseParameter::CBaseParameter</text>
</a>
</g>
</g>
<!-- Node2&#45;&gt;Node3 -->
<g id="edge2" class="edge"><title>Node2&#45;&gt;Node3</title>
<path fill="none" stroke="midnightblue" d="M361.154,-15.5C369.456,-15.5 378.077,-15.5 386.743,-15.5"/>
<polygon fill="midnightblue" stroke="midnightblue" points="386.921,-19.0001 396.921,-15.5 386.921,-12.0001 386.921,-19.0001"/>
</g>
<!-- Node4 -->
<g id="node4" class="node"><title>Node4</title>
<g id="a_node4"><a xlink:href="classCInstanceConfigurableElement.html#a06c2f5c077a21c715caa1d1d86ce3432" target="_top" xlink:title="CInstanceConfigurableElement\l::CInstanceConfigurableElement">
<polygon fill="white" stroke="black" points="618,-0.5 618,-30.5 788,-30.5 788,-0.5 618,-0.5"/>
<text text-anchor="start" x="626" y="-18.5" font-family="Verdana" font-size="10.00">CInstanceConfigurableElement</text>
<text text-anchor="middle" x="703" y="-7.5" font-family="Verdana" font-size="10.00">::CInstanceConfigurableElement</text>
</a>
</g>
</g>
<!-- Node3&#45;&gt;Node4 -->
<g id="edge3" class="edge"><title>Node3&#45;&gt;Node4</title>
<path fill="none" stroke="midnightblue" d="M582.037,-15.5C590.623,-15.5 599.336,-15.5 607.945,-15.5"/>
<polygon fill="midnightblue" stroke="midnightblue" points="607.988,-19.0001 617.988,-15.5 607.988,-12.0001 607.988,-19.0001"/>
</g>
<!-- Node5 -->
<g id="node5" class="node"><title>Node5</title>
<g id="a_node5"><a xlink:href="classCConfigurableElement.html#a227e3ad5b43843c0171bdd80ab9ec048" target="_top" xlink:title="CConfigurableElement\l::CConfigurableElement">
<polygon fill="white" stroke="black" points="824,-0.5 824,-30.5 953,-30.5 953,-0.5 824,-0.5"/>
<text text-anchor="start" x="832" y="-18.5" font-family="Verdana" font-size="10.00">CConfigurableElement</text>
<text text-anchor="middle" x="888.5" y="-7.5" font-family="Verdana" font-size="10.00">::CConfigurableElement</text>
</a>
</g>
</g>
<!-- Node4&#45;&gt;Node5 -->
<g id="edge4" class="edge"><title>Node4&#45;&gt;Node5</title>
<path fill="none" stroke="midnightblue" d="M788.231,-15.5C796.738,-15.5 805.331,-15.5 813.717,-15.5"/>
<polygon fill="midnightblue" stroke="midnightblue" points="813.822,-19.0001 823.822,-15.5 813.821,-12.0001 813.822,-19.0001"/>
</g>
<!-- Node6 -->
<g id="node6" class="node"><title>Node6</title>
<g id="a_node6"><a xlink:href="classCElement.html#adda0945fbca000ff1e605a9b93f74c64" target="_top" xlink:title="CElement::CElement">
<polygon fill="white" stroke="black" points="989,-6 989,-25 1105,-25 1105,-6 989,-6"/>
<text text-anchor="middle" x="1047" y="-13" font-family="Verdana" font-size="10.00">CElement::CElement</text>
</a>
</g>
</g>
<!-- Node5&#45;&gt;Node6 -->
<g id="edge5" class="edge"><title>Node5&#45;&gt;Node6</title>
<path fill="none" stroke="midnightblue" d="M953.155,-15.5C961.577,-15.5 970.234,-15.5 978.715,-15.5"/>
<polygon fill="midnightblue" stroke="midnightblue" points="978.946,-19.0001 988.946,-15.5 978.946,-12.0001 978.946,-19.0001"/>
</g>
</g>
</svg>
