<?xml version="1.0" encoding="UTF-8" standalone="no"?>
<!DOCTYPE svg PUBLIC "-//W3C//DTD SVG 1.1//EN"
 "http://www.w3.org/Graphics/SVG/1.1/DTD/svg11.dtd">
<!-- Generated by graphviz version 2.38.0 (20140413.2041)
 -->
<!-- Title: CAreaConfiguration::CAreaConfiguration Pages: 1 -->
<svg width="460pt" height="120pt"
 viewBox="0.00 0.00 460.00 119.50" xmlns="http://www.w3.org/2000/svg" xmlns:xlink="http://www.w3.org/1999/xlink">
<g id="graph0" class="graph" transform="scale(1 1) rotate(0) translate(4 115.5)">
<title>CAreaConfiguration::CAreaConfiguration</title>
<polygon fill="white" stroke="none" points="-4,4 -4,-115.5 456,-115.5 456,4 -4,4"/>
<!-- Node1 -->
<g id="node1" class="node"><title>Node1</title>
<polygon fill="#bfbfbf" stroke="black" points="0,-47 0,-77 116,-77 116,-47 0,-47"/>
<text text-anchor="start" x="8" y="-65" font-family="Verdana" font-size="10.00">CAreaConfiguration</text>
<text text-anchor="middle" x="58" y="-54" font-family="Verdana" font-size="10.00">::CAreaConfiguration</text>
</g>
<!-- Node2 -->
<g id="node2" class="node"><title>Node2</title>
<g id="a_node2"><a xlink:href="classCParameterBlackboard.html#af7f3c085b727682c9d0e81372bb50c9b" target="_top" xlink:title="CParameterBlackboard\l::setSize">
<polygon fill="white" stroke="black" points="152,-81 152,-111 279,-111 279,-81 152,-81"/>
<text text-anchor="start" x="160" y="-99" font-family="Verdana" font-size="10.00">CParameterBlackboard</text>
<text text-anchor="middle" x="215.5" y="-88" font-family="Verdana" font-size="10.00">::setSize</text>
</a>
</g>
</g>
<!-- Node1&#45;&gt;Node2 -->
<g id="edge1" class="edge"><title>Node1&#45;&gt;Node2</title>
<path fill="none" stroke="midnightblue" d="M116.019,-74.4673C124.521,-76.3262 133.38,-78.2632 142.147,-80.1801"/>
<polygon fill="midnightblue" stroke="midnightblue" points="141.465,-83.6136 151.982,-82.3305 142.961,-76.7752 141.465,-83.6136"/>
</g>
<!-- Node3 -->
<g id="node3" class="node"><title>Node3</title>
<g id="a_node3"><a xlink:href="classCConfigurableElement.html#ab674ec27478a05b77d0138747f560f7b" target="_top" xlink:title="CConfigurableElement\l::getFootPrint">
<polygon fill="white" stroke="black" points="154,-14 154,-44 277,-44 277,-14 154,-14"/>
<text text-anchor="start" x="162" y="-32" font-family="Verdana" font-size="10.00">CConfigurableElement</text>
<text text-anchor="middle" x="215.5" y="-21" font-family="Verdana" font-size="10.00">::getFootPrint</text>
</a>
</g>
</g>
<!-- Node1&#45;&gt;Node3 -->
<g id="edge2" class="edge"><title>Node1&#45;&gt;Node3</title>
<path fill="none" stroke="midnightblue" d="M116.019,-49.8994C125.058,-47.9812 134.501,-45.9773 143.807,-44.0024"/>
<polygon fill="midnightblue" stroke="midnightblue" points="144.771,-47.3758 153.826,-41.8761 143.318,-40.5283 144.771,-47.3758"/>
</g>
<!-- Node3&#45;&gt;Node3 -->
<g id="edge5" class="edge"><title>Node3&#45;&gt;Node3</title>
<path fill="none" stroke="midnightblue" d="M188.314,-44.159C181.758,-53.5566 190.82,-62.5 215.5,-62.5 230.539,-62.5 239.779,-59.179 243.219,-54.4579"/>
<polygon fill="midnightblue" stroke="midnightblue" points="246.699,-53.9647 242.686,-44.159 239.708,-54.3266 246.699,-53.9647"/>
</g>
<!-- Node4 -->
<g id="node4" class="node"><title>Node4</title>
<g id="a_node4"><a xlink:href="classCElement.html#a58b6cdb5715497442fde6afa1e65f8e5" target="_top" xlink:title="CElement::getNbChildren">
<polygon fill="white" stroke="black" points="315,-38.5 315,-57.5 452,-57.5 452,-38.5 315,-38.5"/>
<text text-anchor="middle" x="383.5" y="-45.5" font-family="Verdana" font-size="10.00">CElement::getNbChildren</text>
</a>
</g>
</g>
<!-- Node3&#45;&gt;Node4 -->
<g id="edge3" class="edge"><title>Node3&#45;&gt;Node4</title>
<path fill="none" stroke="midnightblue" d="M277.37,-35.967C286.339,-36.9937 295.681,-38.0629 304.933,-39.1218"/>
<polygon fill="midnightblue" stroke="midnightblue" points="304.581,-42.6043 314.914,-40.2643 305.377,-35.6497 304.581,-42.6043"/>
</g>
<!-- Node5 -->
<g id="node5" class="node"><title>Node5</title>
<g id="a_node5"><a xlink:href="classCElement.html#aee0d626525e9cd24d7639b6365afdc16" target="_top" xlink:title="Get a child element (const) ">
<polygon fill="white" stroke="black" points="329.5,-0.5 329.5,-19.5 437.5,-19.5 437.5,-0.5 329.5,-0.5"/>
<text text-anchor="middle" x="383.5" y="-7.5" font-family="Verdana" font-size="10.00">CElement::getChild</text>
</a>
</g>
</g>
<!-- Node3&#45;&gt;Node5 -->
<g id="edge4" class="edge"><title>Node3&#45;&gt;Node5</title>
<path fill="none" stroke="midnightblue" d="M277.37,-22.033C290.937,-20.4801 305.356,-18.8298 319.025,-17.2652"/>
<polygon fill="midnightblue" stroke="midnightblue" points="319.769,-20.703 329.306,-16.0885 318.973,-13.7484 319.769,-20.703"/>
</g>
</g>
</svg>
