<?xml version="1.0" encoding="UTF-8" standalone="no"?>
<!DOCTYPE svg PUBLIC "-//W3C//DTD SVG 1.1//EN"
 "http://www.w3.org/Graphics/SVG/1.1/DTD/svg11.dtd">
<!-- Generated by graphviz version 2.38.0 (20140413.2041)
 -->
<!-- Title: CSelectionCriterionType::getFormattedState Pages: 1 -->
<svg width="1114pt" height="112pt"
 viewBox="0.00 0.00 1114.00 112.00" xmlns="http://www.w3.org/2000/svg" xmlns:xlink="http://www.w3.org/1999/xlink">
<g id="graph0" class="graph" transform="scale(1 1) rotate(0) translate(4 108)">
<title>CSelectionCriterionType::getFormattedState</title>
<polygon fill="white" stroke="none" points="-4,4 -4,-108 1110,-108 1110,4 -4,4"/>
<!-- Node1 -->
<g id="node1" class="node"><title>Node1</title>
<polygon fill="#bfbfbf" stroke="black" points="0,-24.5 0,-54.5 129,-54.5 129,-24.5 0,-24.5"/>
<text text-anchor="start" x="8" y="-42.5" font-family="Verdana" font-size="10.00">CSelectionCriterionType</text>
<text text-anchor="middle" x="64.5" y="-31.5" font-family="Verdana" font-size="10.00">::getFormattedState</text>
</g>
<!-- Node2 -->
<g id="node2" class="node"><title>Node2</title>
<g id="a_node2"><a xlink:href="classCSelectionCriterion.html#a10a460a1ee7b1a38b34ab8eb90ea74f9" target="_top" xlink:title="User request. ">
<polygon fill="white" stroke="black" points="165,-49.5 165,-79.5 308,-79.5 308,-49.5 165,-49.5"/>
<text text-anchor="start" x="173" y="-67.5" font-family="Verdana" font-size="10.00">CSelectionCriterion</text>
<text text-anchor="middle" x="236.5" y="-56.5" font-family="Verdana" font-size="10.00">::getFormattedDescription</text>
</a>
</g>
</g>
<!-- Node1&#45;&gt;Node2 -->
<g id="edge1" class="edge"><title>Node1&#45;&gt;Node2</title>
<path fill="none" stroke="midnightblue" d="M139.453,-50.3754C147.867,-51.6128 156.428,-52.8717 164.798,-54.1027"/>
<polygon fill="midnightblue" stroke="midnightblue" points="139.688,-46.8725 129.285,-48.8802 138.67,-53.798 139.688,-46.8725"/>
</g>
<!-- Node9 -->
<g id="node9" class="node"><title>Node9</title>
<g id="a_node9"><a xlink:href="classCSelectionCriterion.html#a70f0e613ec0b6d6fa03d2db2b6150898" target="_top" xlink:title="Export to XML. ">
<polygon fill="white" stroke="black" points="182.5,-0.5 182.5,-30.5 290.5,-30.5 290.5,-0.5 182.5,-0.5"/>
<text text-anchor="start" x="190.5" y="-18.5" font-family="Verdana" font-size="10.00">CSelectionCriterion</text>
<text text-anchor="middle" x="236.5" y="-7.5" font-family="Verdana" font-size="10.00">::toXml</text>
</a>
</g>
</g>
<!-- Node1&#45;&gt;Node9 -->
<g id="edge8" class="edge"><title>Node1&#45;&gt;Node9</title>
<path fill="none" stroke="midnightblue" d="M139.257,-29.0873C153.794,-27.035 168.778,-24.9196 182.467,-22.9871"/>
<polygon fill="midnightblue" stroke="midnightblue" points="138.698,-25.6314 129.285,-30.495 139.676,-32.5626 138.698,-25.6314"/>
</g>
<!-- Node3 -->
<g id="node3" class="node"><title>Node3</title>
<g id="a_node3"><a xlink:href="classCSelectionCriteriaDefinition.html#a24f1eb22f90ddb42ee971bdfc5f99aa5" target="_top" xlink:title="CSelectionCriteriaDefinition\l::listSelectionCriteria">
<polygon fill="white" stroke="black" points="344,-73.5 344,-103.5 491,-103.5 491,-73.5 344,-73.5"/>
<text text-anchor="start" x="352" y="-91.5" font-family="Verdana" font-size="10.00">CSelectionCriteriaDefinition</text>
<text text-anchor="middle" x="417.5" y="-80.5" font-family="Verdana" font-size="10.00">::listSelectionCriteria</text>
</a>
</g>
</g>
<!-- Node2&#45;&gt;Node3 -->
<g id="edge2" class="edge"><title>Node2&#45;&gt;Node3</title>
<path fill="none" stroke="midnightblue" d="M318.228,-75.3238C326.789,-76.4718 335.459,-77.6342 343.92,-78.7686"/>
<polygon fill="midnightblue" stroke="midnightblue" points="318.622,-71.8455 308.246,-73.9854 317.692,-78.7834 318.622,-71.8455"/>
</g>
<!-- Node8 -->
<g id="node8" class="node"><title>Node8</title>
<g id="a_node8"><a xlink:href="classCSelectionCriterion.html#a9de488f252ad2b33b2cfe843496d47ba" target="_top" xlink:title="From ISelectionCriterionInterface. ">
<polygon fill="white" stroke="black" points="363.5,-24.5 363.5,-54.5 471.5,-54.5 471.5,-24.5 363.5,-24.5"/>
<text text-anchor="start" x="371.5" y="-42.5" font-family="Verdana" font-size="10.00">CSelectionCriterion</text>
<text text-anchor="middle" x="417.5" y="-31.5" font-family="Verdana" font-size="10.00">::setCriterionState</text>
</a>
</g>
</g>
<!-- Node2&#45;&gt;Node8 -->
<g id="edge7" class="edge"><title>Node2&#45;&gt;Node8</title>
<path fill="none" stroke="midnightblue" d="M318.237,-53.2239C333.546,-51.0858 349.2,-48.8995 363.385,-46.9184"/>
<polygon fill="midnightblue" stroke="midnightblue" points="317.665,-49.7697 308.246,-54.6193 318.634,-56.7024 317.665,-49.7697"/>
</g>
<!-- Node4 -->
<g id="node4" class="node"><title>Node4</title>
<g id="a_node4"><a xlink:href="classCSelectionCriteria.html#a25ca6671e46d02c906f512f6b33a44e4" target="_top" xlink:title="CSelectionCriteria\l::listSelectionCriteria">
<polygon fill="white" stroke="black" points="527,-73.5 527,-103.5 642,-103.5 642,-73.5 527,-73.5"/>
<text text-anchor="start" x="535" y="-91.5" font-family="Verdana" font-size="10.00">CSelectionCriteria</text>
<text text-anchor="middle" x="584.5" y="-80.5" font-family="Verdana" font-size="10.00">::listSelectionCriteria</text>
</a>
</g>
</g>
<!-- Node3&#45;&gt;Node4 -->
<g id="edge3" class="edge"><title>Node3&#45;&gt;Node4</title>
<path fill="none" stroke="midnightblue" d="M501.446,-88.5C510.061,-88.5 518.67,-88.5 526.897,-88.5"/>
<polygon fill="midnightblue" stroke="midnightblue" points="501.352,-85.0001 491.352,-88.5 501.352,-92.0001 501.352,-85.0001"/>
</g>
<!-- Node5 -->
<g id="node5" class="node"><title>Node5</title>
<g id="a_node5"><a xlink:href="classCParameterMgr.html#aad4830a40d67cfae091cbf1a15ff29d0" target="_top" xlink:title="Load plugins, structures and settings from the config file given. ">
<polygon fill="white" stroke="black" points="678,-79 678,-98 796,-98 796,-79 678,-79"/>
<text text-anchor="middle" x="737" y="-86" font-family="Verdana" font-size="10.00">CParameterMgr::load</text>
</a>
</g>
</g>
<!-- Node4&#45;&gt;Node5 -->
<g id="edge4" class="edge"><title>Node4&#45;&gt;Node5</title>
<path fill="none" stroke="midnightblue" d="M652.557,-88.5C660.966,-88.5 669.513,-88.5 677.771,-88.5"/>
<polygon fill="midnightblue" stroke="midnightblue" points="652.398,-85.0001 642.398,-88.5 652.398,-92.0001 652.398,-85.0001"/>
</g>
<!-- Node6 -->
<g id="node6" class="node"><title>Node6</title>
<g id="a_node6"><a xlink:href="classCParameterMgrPlatformConnector.html#a04060080b3be8780e4a7d0211fd95da7" target="_top" xlink:title="CParameterMgrPlatformConnector\l::start">
<polygon fill="white" stroke="black" points="832,-73.5 832,-103.5 1014,-103.5 1014,-73.5 832,-73.5"/>
<text text-anchor="start" x="840" y="-91.5" font-family="Verdana" font-size="10.00">CParameterMgrPlatformConnector</text>
<text text-anchor="middle" x="923" y="-80.5" font-family="Verdana" font-size="10.00">::start</text>
</a>
</g>
</g>
<!-- Node5&#45;&gt;Node6 -->
<g id="edge5" class="edge"><title>Node5&#45;&gt;Node6</title>
<path fill="none" stroke="midnightblue" d="M806.259,-88.5C814.622,-88.5 823.265,-88.5 831.887,-88.5"/>
<polygon fill="midnightblue" stroke="midnightblue" points="806.219,-85.0001 796.219,-88.5 806.219,-92.0001 806.219,-85.0001"/>
</g>
<!-- Node7 -->
<g id="node7" class="node"><title>Node7</title>
<g id="a_node7"><a xlink:href="ParameterFramework_8cpp.html#a44326e09ebb9719ecb017d1d67832b6f" target="_top" xlink:title="pfwStart">
<polygon fill="white" stroke="black" points="1050,-79 1050,-98 1106,-98 1106,-79 1050,-79"/>
<text text-anchor="middle" x="1078" y="-86" font-family="Verdana" font-size="10.00">pfwStart</text>
</a>
</g>
</g>
<!-- Node6&#45;&gt;Node7 -->
<g id="edge6" class="edge"><title>Node6&#45;&gt;Node7</title>
<path fill="none" stroke="midnightblue" d="M1024.49,-88.5C1033.7,-88.5 1042.4,-88.5 1049.96,-88.5"/>
<polygon fill="midnightblue" stroke="midnightblue" points="1024.33,-85.0001 1014.33,-88.5 1024.33,-92.0001 1024.33,-85.0001"/>
</g>
</g>
</svg>
