<?xml version="1.0" encoding="UTF-8" standalone="no"?>
<!DOCTYPE svg PUBLIC "-//W3C//DTD SVG 1.1//EN"
 "http://www.w3.org/Graphics/SVG/1.1/DTD/svg11.dtd">
<!-- Generated by graphviz version 2.38.0 (20140413.2041)
 -->
<!-- Title: CElement::listChildrenPaths Pages: 1 -->
<svg width="329pt" height="84pt"
 viewBox="0.00 0.00 329.00 84.00" xmlns="http://www.w3.org/2000/svg" xmlns:xlink="http://www.w3.org/1999/xlink">
<g id="graph0" class="graph" transform="scale(1 1) rotate(0) translate(4 80)">
<title>CElement::listChildrenPaths</title>
<polygon fill="white" stroke="none" points="-4,4 -4,-80 325,-80 325,4 -4,4"/>
<!-- Node1 -->
<g id="node1" class="node"><title>Node1</title>
<polygon fill="#bfbfbf" stroke="black" points="0,-28.5 0,-47.5 148,-47.5 148,-28.5 0,-28.5"/>
<text text-anchor="middle" x="74" y="-35.5" font-family="Verdana" font-size="10.00">CElement::listChildrenPaths</text>
</g>
<!-- Node2 -->
<g id="node2" class="node"><title>Node2</title>
<g id="a_node2"><a xlink:href="classCElement.html#a58b6cdb5715497442fde6afa1e65f8e5" target="_top" xlink:title="CElement::getNbChildren">
<polygon fill="white" stroke="black" points="184,-56.5 184,-75.5 321,-75.5 321,-56.5 184,-56.5"/>
<text text-anchor="middle" x="252.5" y="-63.5" font-family="Verdana" font-size="10.00">CElement::getNbChildren</text>
</a>
</g>
</g>
<!-- Node1&#45;&gt;Node2 -->
<g id="edge1" class="edge"><title>Node1&#45;&gt;Node2</title>
<path fill="none" stroke="midnightblue" d="M135.248,-47.5577C150.157,-49.9229 166.256,-52.4769 181.583,-54.9084"/>
<polygon fill="midnightblue" stroke="midnightblue" points="181.099,-58.3753 191.524,-56.4854 182.196,-51.4617 181.099,-58.3753"/>
</g>
<!-- Node3 -->
<g id="node3" class="node"><title>Node3</title>
<g id="a_node3"><a xlink:href="classCElement.html#a7022c0fc8063f0aae9d97b06e74d4ac1" target="_top" xlink:title="CElement::getPath">
<polygon fill="white" stroke="black" points="199.5,-0.5 199.5,-19.5 305.5,-19.5 305.5,-0.5 199.5,-0.5"/>
<text text-anchor="middle" x="252.5" y="-7.5" font-family="Verdana" font-size="10.00">CElement::getPath</text>
</a>
</g>
</g>
<!-- Node1&#45;&gt;Node3 -->
<g id="edge2" class="edge"><title>Node1&#45;&gt;Node3</title>
<path fill="none" stroke="midnightblue" d="M135.248,-28.4423C152.695,-25.6744 171.772,-22.6481 189.334,-19.862"/>
<polygon fill="midnightblue" stroke="midnightblue" points="190.147,-23.2768 199.476,-18.2532 189.051,-16.3633 190.147,-23.2768"/>
</g>
<!-- Node3&#45;&gt;Node3 -->
<g id="edge3" class="edge"><title>Node3&#45;&gt;Node3</title>
<path fill="none" stroke="midnightblue" d="M225.065,-19.7571C211.718,-28.5653 220.863,-38 252.5,-38 274.25,-38 285.37,-33.5406 285.858,-27.8913"/>
<polygon fill="midnightblue" stroke="midnightblue" points="288.651,-25.7806 279.935,-19.7571 282.992,-29.9012 288.651,-25.7806"/>
</g>
</g>
</svg>
