<?xml version="1.0" encoding="UTF-8" standalone="no"?>
<!DOCTYPE svg PUBLIC "-//W3C//DTD SVG 1.1//EN"
 "http://www.w3.org/Graphics/SVG/1.1/DTD/svg11.dtd">
<!-- Generated by graphviz version 2.38.0 (20140413.2041)
 -->
<!-- Title: CEnumParameterType::toBlackboard Pages: 1 -->
<svg width="288pt" height="78pt"
 viewBox="0.00 0.00 288.00 77.50" xmlns="http://www.w3.org/2000/svg" xmlns:xlink="http://www.w3.org/1999/xlink">
<g id="graph0" class="graph" transform="scale(1 1) rotate(0) translate(4 73.5)">
<title>CEnumParameterType::toBlackboard</title>
<polygon fill="white" stroke="none" points="-4,4 -4,-73.5 284,-73.5 284,4 -4,4"/>
<!-- Node1 -->
<g id="node1" class="node"><title>Node1</title>
<polygon fill="#bfbfbf" stroke="black" points="0,-22.5 0,-52.5 122,-52.5 122,-22.5 0,-22.5"/>
<text text-anchor="start" x="8" y="-40.5" font-family="Verdana" font-size="10.00">CEnumParameterType</text>
<text text-anchor="middle" x="61" y="-29.5" font-family="Verdana" font-size="10.00">::toBlackboard</text>
</g>
<!-- Node2 -->
<g id="node2" class="node"><title>Node2</title>
<g id="a_node2"><a xlink:href="convert_8hpp.html#a964ad4e5bd0e92d61880c18cbc5bd5b3" target="_top" xlink:title="Convert a string to a given type. ">
<polygon fill="white" stroke="black" points="188,-50 188,-69 250,-69 250,-50 188,-50"/>
<text text-anchor="middle" x="219" y="-57" font-family="Verdana" font-size="10.00">convertTo</text>
</a>
</g>
</g>
<!-- Node1&#45;&gt;Node2 -->
<g id="edge1" class="edge"><title>Node1&#45;&gt;Node2</title>
<path fill="none" stroke="midnightblue" d="M122.314,-46.0058C140.916,-48.6292 160.936,-51.4525 177.831,-53.8351"/>
<polygon fill="midnightblue" stroke="midnightblue" points="177.515,-57.3251 187.906,-55.2559 178.493,-50.3937 177.515,-57.3251"/>
</g>
<!-- Node3 -->
<g id="node3" class="node"><title>Node3</title>
<g id="a_node3"><a xlink:href="classCEnumParameterType.html#a3707379d767d2660b45e292181b9f2e0" target="_top" xlink:title="CEnumParameterType\l::toBlackboard">
<polygon fill="white" stroke="black" points="158,-0.5 158,-30.5 280,-30.5 280,-0.5 158,-0.5"/>
<text text-anchor="start" x="166" y="-18.5" font-family="Verdana" font-size="10.00">CEnumParameterType</text>
<text text-anchor="middle" x="219" y="-7.5" font-family="Verdana" font-size="10.00">::toBlackboard</text>
</a>
</g>
</g>
<!-- Node1&#45;&gt;Node3 -->
<g id="edge2" class="edge"><title>Node1&#45;&gt;Node3</title>
<path fill="none" stroke="midnightblue" d="M122.314,-28.9942C130.695,-27.8123 139.363,-26.5898 147.904,-25.3853"/>
<polygon fill="midnightblue" stroke="midnightblue" points="148.433,-28.8454 157.847,-23.9832 147.456,-21.914 148.433,-28.8454"/>
</g>
</g>
</svg>
