<?xml version="1.0" encoding="UTF-8" standalone="no"?>
<!DOCTYPE svg PUBLIC "-//W3C//DTD SVG 1.1//EN"
 "http://www.w3.org/Graphics/SVG/1.1/DTD/svg11.dtd">
<!-- Generated by graphviz version 2.36.0 (20140111.2315)
 -->
<!-- Title: CElement::rename Pages: 1 -->
<svg width="290pt" height="142pt"
 viewBox="0.00 0.00 290.00 142.00" xmlns="http://www.w3.org/2000/svg" xmlns:xlink="http://www.w3.org/1999/xlink">
<g id="graph0" class="graph" transform="scale(1 1) rotate(0) translate(4 138)">
<title>CElement::rename</title>
<polygon fill="white" stroke="none" points="-4,4 -4,-138 286,-138 286,4 -4,4"/>
<!-- Node1 -->
<g id="node1" class="node"><title>Node1</title>
<polygon fill="#bfbfbf" stroke="black" points="0.5,-57.5 0.5,-76.5 107.5,-76.5 107.5,-57.5 0.5,-57.5"/>
<text text-anchor="middle" x="54" y="-64.5" font-family="Verdana" font-size="10.00">CElement::rename</text>
</g>
<!-- Node2 -->
<g id="node2" class="node"><title>Node2</title>
<g id="a_node2"><a xlink:href="classCElement.html#a58b6cdb5715497442fde6afa1e65f8e5" target="_top" xlink:title="CElement::getNbChildren">
<polygon fill="white" stroke="black" points="144.5,-114.5 144.5,-133.5 281.5,-133.5 281.5,-114.5 144.5,-114.5"/>
<text text-anchor="middle" x="213" y="-121.5" font-family="Verdana" font-size="10.00">CElement::getNbChildren</text>
</a>
</g>
</g>
<!-- Node1&#45;&gt;Node2 -->
<g id="edge1" class="edge"><title>Node1&#45;&gt;Node2</title>
<path fill="none" stroke="midnightblue" d="M75.2025,-76.5261C93.0489,-84.7231 119.908,-96.5318 144,-105 150.527,-107.294 157.48,-109.5 164.356,-111.545"/>
<polygon fill="midnightblue" stroke="midnightblue" points="163.736,-115.009 174.314,-114.418 165.676,-108.283 163.736,-115.009"/>
</g>
<!-- Node3 -->
<g id="node3" class="node"><title>Node3</title>
<g id="a_node3"><a xlink:href="classCElement.html#a9bba10d2dc72821589a898e16ace9ae5" target="_top" xlink:title="Get a child element (const) ">
<polygon fill="white" stroke="black" points="159,-76.5 159,-95.5 267,-95.5 267,-76.5 159,-76.5"/>
<text text-anchor="middle" x="213" y="-83.5" font-family="Verdana" font-size="10.00">CElement::getChild</text>
</a>
</g>
</g>
<!-- Node1&#45;&gt;Node3 -->
<g id="edge2" class="edge"><title>Node1&#45;&gt;Node3</title>
<path fill="none" stroke="midnightblue" d="M107.715,-73.3796C120.848,-74.9689 135.064,-76.6893 148.65,-78.3335"/>
<polygon fill="midnightblue" stroke="midnightblue" points="148.541,-81.8457 158.889,-79.5725 149.382,-74.8964 148.541,-81.8457"/>
</g>
<!-- Node4 -->
<g id="node4" class="node"><title>Node4</title>
<g id="a_node4"><a xlink:href="classCElement.html#a49581fb6412e29e932962acd82d52d6a" target="_top" xlink:title="CElement::getName">
<polygon fill="white" stroke="black" points="156,-38.5 156,-57.5 270,-57.5 270,-38.5 156,-38.5"/>
<text text-anchor="middle" x="213" y="-45.5" font-family="Verdana" font-size="10.00">CElement::getName</text>
</a>
</g>
</g>
<!-- Node1&#45;&gt;Node4 -->
<g id="edge3" class="edge"><title>Node1&#45;&gt;Node4</title>
<path fill="none" stroke="midnightblue" d="M107.715,-60.6204C119.946,-59.1403 133.116,-57.5464 145.843,-56.0063"/>
<polygon fill="midnightblue" stroke="midnightblue" points="146.42,-59.462 155.927,-54.7859 145.579,-52.5127 146.42,-59.462"/>
</g>
<!-- Node5 -->
<g id="node5" class="node"><title>Node5</title>
<g id="a_node5"><a xlink:href="classCElement.html#a9018d33125b066d6cd791659af95c6fe" target="_top" xlink:title="CElement::setName">
<polygon fill="white" stroke="black" points="156.5,-0.5 156.5,-19.5 269.5,-19.5 269.5,-0.5 156.5,-0.5"/>
<text text-anchor="middle" x="213" y="-7.5" font-family="Verdana" font-size="10.00">CElement::setName</text>
</a>
</g>
</g>
<!-- Node1&#45;&gt;Node5 -->
<g id="edge4" class="edge"><title>Node1&#45;&gt;Node5</title>
<path fill="none" stroke="midnightblue" d="M75.2025,-57.4739C93.0489,-49.2769 119.908,-37.4682 144,-29 150.527,-26.706 157.48,-24.5 164.356,-22.4548"/>
<polygon fill="midnightblue" stroke="midnightblue" points="165.676,-25.7166 174.314,-19.5817 163.736,-18.9909 165.676,-25.7166"/>
</g>
</g>
</svg>
