<?xml version="1.0" encoding="UTF-8" standalone="no"?>
<!DOCTYPE svg PUBLIC "-//W3C//DTD SVG 1.1//EN"
 "http://www.w3.org/Graphics/SVG/1.1/DTD/svg11.dtd">
<!-- Generated by graphviz version 2.38.0 (20140413.2041)
 -->
<!-- Title: CComponentInstance::fromXml Pages: 1 -->
<svg width="734pt" height="309pt"
 viewBox="0.00 0.00 734.00 308.50" xmlns="http://www.w3.org/2000/svg" xmlns:xlink="http://www.w3.org/1999/xlink">
<g id="graph0" class="graph" transform="scale(1 1) rotate(0) translate(4 304.5)">
<title>CComponentInstance::fromXml</title>
<polygon fill="white" stroke="none" points="-4,4 -4,-304.5 730,-304.5 730,4 -4,4"/>
<!-- Node1 -->
<g id="node1" class="node"><title>Node1</title>
<polygon fill="#bfbfbf" stroke="black" points="0,-133 0,-163 120,-163 120,-133 0,-133"/>
<text text-anchor="start" x="8" y="-151" font-family="Verdana" font-size="10.00">CComponentInstance</text>
<text text-anchor="middle" x="60" y="-140" font-family="Verdana" font-size="10.00">::fromXml</text>
</g>
<!-- Node2 -->
<g id="node2" class="node"><title>Node2</title>
<g id="a_node2"><a xlink:href="classCXmlParameterSerializingContext.html#a1ca5ee65e05cff3a9a453d8b0ff8fd09" target="_top" xlink:title="CXmlParameterSerializing\lContext::getComponentLibrary">
<polygon fill="white" stroke="black" points="156,-270 156,-300 320,-300 320,-270 156,-270"/>
<text text-anchor="start" x="164" y="-288" font-family="Verdana" font-size="10.00">CXmlParameterSerializing</text>
<text text-anchor="middle" x="238" y="-277" font-family="Verdana" font-size="10.00">Context::getComponentLibrary</text>
</a>
</g>
</g>
<!-- Node1&#45;&gt;Node2 -->
<g id="edge1" class="edge"><title>Node1&#45;&gt;Node2</title>
<path fill="none" stroke="midnightblue" d="M70.8691,-163.256C86.4072,-186.166 118.678,-229.482 156,-255 161.957,-259.073 168.538,-262.675 175.296,-265.839"/>
<polygon fill="midnightblue" stroke="midnightblue" points="174.014,-269.099 184.58,-269.885 176.811,-262.682 174.014,-269.099"/>
</g>
<!-- Node3 -->
<g id="node3" class="node"><title>Node3</title>
<g id="a_node3"><a xlink:href="classCXmlElement.html#a6198359168c744489018bc2b8d732dc3" target="_top" xlink:title="Get attribute. ">
<polygon fill="white" stroke="black" points="573.5,-153.5 573.5,-172.5 718.5,-172.5 718.5,-153.5 573.5,-153.5"/>
<text text-anchor="middle" x="646" y="-160.5" font-family="Verdana" font-size="10.00">CXmlElement::getAttribute</text>
</a>
</g>
</g>
<!-- Node1&#45;&gt;Node3 -->
<g id="edge2" class="edge"><title>Node1&#45;&gt;Node3</title>
<path fill="none" stroke="midnightblue" d="M74.2826,-163.216C91.1604,-181.27 122.19,-210.386 156,-222 179.934,-230.222 513.922,-221.808 530,-218 563.541,-210.055 598.837,-191.42 621.337,-178.042"/>
<polygon fill="midnightblue" stroke="midnightblue" points="623.43,-180.866 630.154,-172.678 619.791,-174.886 623.43,-180.866"/>
</g>
<!-- Node4 -->
<g id="node4" class="node"><title>Node4</title>
<g id="a_node4"><a xlink:href="classCComponentLibrary.html#afc3a6329eb7e76f3b585755611a2e7d8" target="_top" xlink:title="CComponentLibrary::\lgetComponentType">
<polygon fill="white" stroke="black" points="179.5,-182 179.5,-212 296.5,-212 296.5,-182 179.5,-182"/>
<text text-anchor="start" x="187.5" y="-200" font-family="Verdana" font-size="10.00">CComponentLibrary::</text>
<text text-anchor="middle" x="238" y="-189" font-family="Verdana" font-size="10.00">getComponentType</text>
</a>
</g>
</g>
<!-- Node1&#45;&gt;Node4 -->
<g id="edge3" class="edge"><title>Node1&#45;&gt;Node4</title>
<path fill="none" stroke="midnightblue" d="M115.242,-163.101C133.562,-168.202 154.183,-173.943 173.175,-179.23"/>
<polygon fill="midnightblue" stroke="midnightblue" points="172.365,-182.638 182.937,-181.948 174.242,-175.895 172.365,-182.638"/>
</g>
<!-- Node6 -->
<g id="node6" class="node"><title>Node6</title>
<g id="a_node6"><a xlink:href="classutility_1_1ErrorContext.html#afc2e1af8c4a81e36e5013bf31127c15f" target="_top" xlink:title="utility::ErrorContext\l::setError">
<polygon fill="white" stroke="black" points="184,-133 184,-163 292,-163 292,-133 184,-133"/>
<text text-anchor="start" x="192" y="-151" font-family="Verdana" font-size="10.00">utility::ErrorContext</text>
<text text-anchor="middle" x="238" y="-140" font-family="Verdana" font-size="10.00">::setError</text>
</a>
</g>
</g>
<!-- Node1&#45;&gt;Node6 -->
<g id="edge5" class="edge"><title>Node1&#45;&gt;Node6</title>
<path fill="none" stroke="midnightblue" d="M120.095,-148C137.375,-148 156.328,-148 173.85,-148"/>
<polygon fill="midnightblue" stroke="midnightblue" points="173.977,-151.5 183.977,-148 173.977,-144.5 173.977,-151.5"/>
</g>
<!-- Node7 -->
<g id="node7" class="node"><title>Node7</title>
<g id="a_node7"><a xlink:href="classCXmlElement.html#ac47c56a3cad8ac7d1fe7579e833227c5" target="_top" xlink:title="CXmlElement::getPath">
<polygon fill="white" stroke="black" points="176,-76.5 176,-95.5 300,-95.5 300,-76.5 176,-76.5"/>
<text text-anchor="middle" x="238" y="-83.5" font-family="Verdana" font-size="10.00">CXmlElement::getPath</text>
</a>
</g>
</g>
<!-- Node1&#45;&gt;Node7 -->
<g id="edge6" class="edge"><title>Node1&#45;&gt;Node7</title>
<path fill="none" stroke="midnightblue" d="M103.605,-132.992C133.181,-122.573 172.178,-108.835 200.362,-98.9066"/>
<polygon fill="midnightblue" stroke="midnightblue" points="201.578,-102.189 209.847,-95.5654 199.252,-95.5869 201.578,-102.189"/>
</g>
<!-- Node13 -->
<g id="node13" class="node"><title>Node13</title>
<g id="a_node13"><a xlink:href="classCElement.html#a7987056bec3cbc71bed07cc88b060cf0" target="_top" xlink:title="CElement::getParent">
<polygon fill="white" stroke="black" points="180,-38.5 180,-57.5 296,-57.5 296,-38.5 180,-38.5"/>
<text text-anchor="middle" x="238" y="-45.5" font-family="Verdana" font-size="10.00">CElement::getParent</text>
</a>
</g>
</g>
<!-- Node1&#45;&gt;Node13 -->
<g id="edge14" class="edge"><title>Node1&#45;&gt;Node13</title>
<path fill="none" stroke="midnightblue" d="M74.2271,-132.994C91.2836,-114.605 122.732,-83.824 156,-67 160.634,-64.6564 165.564,-62.5963 170.616,-60.7863"/>
<polygon fill="midnightblue" stroke="midnightblue" points="172,-64.0171 180.434,-57.6051 169.842,-57.3579 172,-64.0171"/>
</g>
<!-- Node14 -->
<g id="node14" class="node"><title>Node14</title>
<g id="a_node14"><a xlink:href="classCElement.html#a49581fb6412e29e932962acd82d52d6a" target="_top" xlink:title="CElement::getName">
<polygon fill="white" stroke="black" points="181,-0.5 181,-19.5 295,-19.5 295,-0.5 181,-0.5"/>
<text text-anchor="middle" x="238" y="-7.5" font-family="Verdana" font-size="10.00">CElement::getName</text>
</a>
</g>
</g>
<!-- Node1&#45;&gt;Node14 -->
<g id="edge15" class="edge"><title>Node1&#45;&gt;Node14</title>
<path fill="none" stroke="midnightblue" d="M68.6558,-132.893C82.4487,-107.286 113.991,-55.5568 156,-29 160.731,-26.0092 165.886,-23.4884 171.227,-21.364"/>
<polygon fill="midnightblue" stroke="midnightblue" points="172.707,-24.5545 180.993,-17.9521 170.398,-17.9462 172.707,-24.5545"/>
</g>
<!-- Node5 -->
<g id="node5" class="node"><title>Node5</title>
<g id="a_node5"><a xlink:href="classCElement.html#a8595814a3159f32f874269907e70b260" target="_top" xlink:title="CElement::findChild">
<polygon fill="white" stroke="black" points="388,-189.5 388,-208.5 498,-208.5 498,-189.5 388,-189.5"/>
<text text-anchor="middle" x="443" y="-196.5" font-family="Verdana" font-size="10.00">CElement::findChild</text>
</a>
</g>
</g>
<!-- Node4&#45;&gt;Node5 -->
<g id="edge4" class="edge"><title>Node4&#45;&gt;Node5</title>
<path fill="none" stroke="midnightblue" d="M296.629,-197.568C321.878,-197.817 351.613,-198.109 377.59,-198.365"/>
<polygon fill="midnightblue" stroke="midnightblue" points="377.682,-201.866 387.716,-198.465 377.751,-194.867 377.682,-201.866"/>
</g>
<!-- Node7&#45;&gt;Node7 -->
<g id="edge13" class="edge"><title>Node7&#45;&gt;Node7</title>
<path fill="none" stroke="midnightblue" d="M210.565,-95.7571C197.218,-104.565 206.363,-114 238,-114 259.75,-114 270.87,-109.541 271.358,-103.891"/>
<polygon fill="midnightblue" stroke="midnightblue" points="274.151,-101.781 265.435,-95.7571 268.492,-105.901 274.151,-101.781"/>
</g>
<!-- Node8 -->
<g id="node8" class="node"><title>Node8</title>
<g id="a_node8"><a xlink:href="classCXmlElement.html#ab2e750aaad2b93b4d875d04b624de1c4" target="_top" xlink:title="CXmlElement::getType">
<polygon fill="white" stroke="black" points="381,-151.5 381,-170.5 505,-170.5 505,-151.5 381,-151.5"/>
<text text-anchor="middle" x="443" y="-158.5" font-family="Verdana" font-size="10.00">CXmlElement::getType</text>
</a>
</g>
</g>
<!-- Node7&#45;&gt;Node8 -->
<g id="edge7" class="edge"><title>Node7&#45;&gt;Node8</title>
<path fill="none" stroke="midnightblue" d="M259.709,-95.5418C276.115,-103.143 299.591,-114.112 320,-124 336.099,-131.799 339.139,-136.025 356,-142 363.398,-144.621 371.286,-146.955 379.171,-149.012"/>
<polygon fill="midnightblue" stroke="midnightblue" points="378.572,-152.469 389.12,-151.469 380.251,-145.673 378.572,-152.469"/>
</g>
<!-- Node9 -->
<g id="node9" class="node"><title>Node9</title>
<g id="a_node9"><a xlink:href="classCXmlElement.html#aacd4d202e3de66715641cc3bb89bd4b5" target="_top" xlink:title="CXmlElement::hasAttribute">
<polygon fill="white" stroke="black" points="370,-113.5 370,-132.5 516,-132.5 516,-113.5 370,-113.5"/>
<text text-anchor="middle" x="443" y="-120.5" font-family="Verdana" font-size="10.00">CXmlElement::hasAttribute</text>
</a>
</g>
</g>
<!-- Node7&#45;&gt;Node9 -->
<g id="edge8" class="edge"><title>Node7&#45;&gt;Node9</title>
<path fill="none" stroke="midnightblue" d="M291.278,-95.5284C318.167,-100.429 351.137,-106.439 379.377,-111.586"/>
<polygon fill="midnightblue" stroke="midnightblue" points="379.082,-115.09 389.547,-113.44 380.337,-108.203 379.082,-115.09"/>
</g>
<!-- Node10 -->
<g id="node10" class="node"><title>Node10</title>
<g id="a_node10"><a xlink:href="classCXmlElement.html#a21b9cfd66e7cd6f33a889e099102ef89" target="_top" xlink:title="CXmlElement::getNameAttribute">
<polygon fill="white" stroke="black" points="356,-75.5 356,-94.5 530,-94.5 530,-75.5 356,-75.5"/>
<text text-anchor="middle" x="443" y="-82.5" font-family="Verdana" font-size="10.00">CXmlElement::getNameAttribute</text>
</a>
</g>
</g>
<!-- Node7&#45;&gt;Node10 -->
<g id="edge9" class="edge"><title>Node7&#45;&gt;Node10</title>
<path fill="none" stroke="midnightblue" d="M300.182,-85.6986C314.547,-85.6278 330.198,-85.5507 345.688,-85.4744"/>
<polygon fill="midnightblue" stroke="midnightblue" points="345.845,-88.9738 355.828,-85.4245 345.811,-81.9739 345.845,-88.9738"/>
</g>
<!-- Node11 -->
<g id="node11" class="node"><title>Node11</title>
<g id="a_node11"><a xlink:href="classCXmlElement.html#a28a62e123c5042524a20eda9cc425d5f" target="_top" xlink:title="CXmlElement::getParentElement">
<polygon fill="white" stroke="black" points="356.5,-37.5 356.5,-56.5 529.5,-56.5 529.5,-37.5 356.5,-37.5"/>
<text text-anchor="middle" x="443" y="-44.5" font-family="Verdana" font-size="10.00">CXmlElement::getParentElement</text>
</a>
</g>
</g>
<!-- Node7&#45;&gt;Node11 -->
<g id="edge11" class="edge"><title>Node7&#45;&gt;Node11</title>
<path fill="none" stroke="midnightblue" d="M288.659,-76.4595C317.027,-71.0095 352.781,-64.1407 382.626,-58.4068"/>
<polygon fill="midnightblue" stroke="midnightblue" points="383.342,-61.8334 392.502,-56.5095 382.021,-54.9591 383.342,-61.8334"/>
</g>
<!-- Node10&#45;&gt;Node3 -->
<g id="edge10" class="edge"><title>Node10&#45;&gt;Node3</title>
<path fill="none" stroke="midnightblue" d="M497.366,-94.5545C508.308,-97.1339 519.642,-100.269 530,-104 562.843,-115.83 598.236,-135.07 620.953,-148.345"/>
<polygon fill="midnightblue" stroke="midnightblue" points="619.193,-151.37 629.58,-153.457 622.762,-145.348 619.193,-151.37"/>
</g>
<!-- Node12 -->
<g id="node12" class="node"><title>Node12</title>
<g id="a_node12"><a xlink:href="classCXmlElement.html#a3b230e1c8e92537da6a1a365dc1e71b2" target="_top" xlink:title="CXmlElement::setXmlElement">
<polygon fill="white" stroke="black" points="566,-37.5 566,-56.5 726,-56.5 726,-37.5 566,-37.5"/>
<text text-anchor="middle" x="646" y="-44.5" font-family="Verdana" font-size="10.00">CXmlElement::setXmlElement</text>
</a>
</g>
</g>
<!-- Node11&#45;&gt;Node12 -->
<g id="edge12" class="edge"><title>Node11&#45;&gt;Node12</title>
<path fill="none" stroke="midnightblue" d="M529.534,-47C538.212,-47 547.042,-47 555.758,-47"/>
<polygon fill="midnightblue" stroke="midnightblue" points="555.922,-50.5001 565.922,-47 555.922,-43.5001 555.922,-50.5001"/>
</g>
</g>
</svg>
