<?xml version="1.0" encoding="UTF-8" standalone="no"?>
<!DOCTYPE svg PUBLIC "-//W3C//DTD SVG 1.1//EN"
 "http://www.w3.org/Graphics/SVG/1.1/DTD/svg11.dtd">
<!-- Generated by graphviz version 2.38.0 (20140413.2041)
 -->
<!-- Title: CBaseParameter::logValue Pages: 1 -->
<svg width="347pt" height="78pt"
 viewBox="0.00 0.00 347.00 77.50" xmlns="http://www.w3.org/2000/svg" xmlns:xlink="http://www.w3.org/1999/xlink">
<g id="graph0" class="graph" transform="scale(1 1) rotate(0) translate(4 73.5)">
<title>CBaseParameter::logValue</title>
<polygon fill="white" stroke="none" points="-4,4 -4,-73.5 343,-73.5 343,4 -4,4"/>
<!-- Node1 -->
<g id="node1" class="node"><title>Node1</title>
<polygon fill="#bfbfbf" stroke="black" points="0,-28 0,-47 144,-47 144,-28 0,-28"/>
<text text-anchor="middle" x="72" y="-35" font-family="Verdana" font-size="10.00">CBaseParameter::logValue</text>
</g>
<!-- Node2 -->
<g id="node2" class="node"><title>Node2</title>
<g id="a_node2"><a xlink:href="classCBaseParameter.html#aea4a2e14dbd4588fbe837bbe5cae5076" target="_top" xlink:title="CBaseParameter::doGetValue">
<polygon fill="white" stroke="black" points="180,-50 180,-69 339,-69 339,-50 180,-50"/>
<text text-anchor="middle" x="259.5" y="-57" font-family="Verdana" font-size="10.00">CBaseParameter::doGetValue</text>
</a>
</g>
</g>
<!-- Node1&#45;&gt;Node2 -->
<g id="edge1" class="edge"><title>Node1&#45;&gt;Node2</title>
<path fill="none" stroke="midnightblue" d="M144.189,-45.9429C152.56,-46.9357 161.18,-47.958 169.754,-48.9749"/>
<polygon fill="midnightblue" stroke="midnightblue" points="169.438,-52.4619 179.781,-50.164 170.263,-45.5106 169.438,-52.4619"/>
</g>
<!-- Node3 -->
<g id="node3" class="node"><title>Node3</title>
<g id="a_node3"><a xlink:href="classCConfigurableElement.html#a29d61e6d09ff508ebb87aea802f2704e" target="_top" xlink:title="CConfigurableElement\l::getOffset">
<polygon fill="white" stroke="black" points="198,-0.5 198,-30.5 321,-30.5 321,-0.5 198,-0.5"/>
<text text-anchor="start" x="206" y="-18.5" font-family="Verdana" font-size="10.00">CConfigurableElement</text>
<text text-anchor="middle" x="259.5" y="-7.5" font-family="Verdana" font-size="10.00">::getOffset</text>
</a>
</g>
</g>
<!-- Node1&#45;&gt;Node3 -->
<g id="edge2" class="edge"><title>Node1&#45;&gt;Node3</title>
<path fill="none" stroke="midnightblue" d="M144.189,-29.0571C158.412,-27.3703 173.352,-25.5985 187.566,-23.9126"/>
<polygon fill="midnightblue" stroke="midnightblue" points="188.25,-27.3561 197.768,-22.7027 187.426,-20.4048 188.25,-27.3561"/>
</g>
</g>
</svg>
