<?xml version="1.0" encoding="UTF-8" standalone="no"?>
<!DOCTYPE svg PUBLIC "-//W3C//DTD SVG 1.1//EN"
 "http://www.w3.org/Graphics/SVG/1.1/DTD/svg11.dtd">
<!-- Generated by graphviz version 2.38.0 (20140413.2041)
 -->
<!-- Title: CXmlElement::getType Pages: 1 -->
<svg width="1073pt" height="653pt"
 viewBox="0.00 0.00 1073.00 653.32" xmlns="http://www.w3.org/2000/svg" xmlns:xlink="http://www.w3.org/1999/xlink">
<g id="graph0" class="graph" transform="scale(1 1) rotate(0) translate(4 649.322)">
<title>CXmlElement::getType</title>
<polygon fill="white" stroke="none" points="-4,4 -4,-649.322 1069,-649.322 1069,4 -4,4"/>
<!-- Node1 -->
<g id="node1" class="node"><title>Node1</title>
<polygon fill="#bfbfbf" stroke="black" points="0,-342 0,-361 124,-361 124,-342 0,-342"/>
<text text-anchor="middle" x="62" y="-349" font-family="Verdana" font-size="10.00">CXmlElement::getType</text>
</g>
<!-- Node2 -->
<g id="node2" class="node"><title>Node2</title>
<g id="a_node2"><a xlink:href="classCComponentLibrary.html#ad4cc928cda43371fb31f20394e8e04e5" target="_top" xlink:title="CComponentLibrary::\lfromXml">
<polygon fill="white" stroke="black" points="763.5,-414.5 763.5,-444.5 880.5,-444.5 880.5,-414.5 763.5,-414.5"/>
<text text-anchor="start" x="771.5" y="-432.5" font-family="Verdana" font-size="10.00">CComponentLibrary::</text>
<text text-anchor="middle" x="822" y="-421.5" font-family="Verdana" font-size="10.00">fromXml</text>
</a>
</g>
</g>
<!-- Node1&#45;&gt;Node2 -->
<g id="edge1" class="edge"><title>Node1&#45;&gt;Node2</title>
<path fill="none" stroke="midnightblue" d="M69.9003,-370.636C82.7118,-403.622 113.2,-471.404 160,-510.5 230.943,-569.766 263.127,-568.546 354,-585.5 509.183,-614.453 565.536,-597.111 703,-519.5 742.038,-497.459 782.522,-463.802 804.451,-444.502"/>
<polygon fill="midnightblue" stroke="midnightblue" points="73.159,-369.357 66.3636,-361.229 66.6068,-371.821 73.159,-369.357"/>
</g>
<!-- Node4 -->
<g id="node4" class="node"><title>Node4</title>
<g id="a_node4"><a xlink:href="classCConfigurableElement.html#a0e3feb8a7b18a3291ec960c9726b4eaf" target="_top" xlink:title="CConfigurableElement\l::serializeXmlSettings">
<polygon fill="white" stroke="black" points="177.5,-274.5 177.5,-304.5 300.5,-304.5 300.5,-274.5 177.5,-274.5"/>
<text text-anchor="start" x="185.5" y="-292.5" font-family="Verdana" font-size="10.00">CConfigurableElement</text>
<text text-anchor="middle" x="239" y="-281.5" font-family="Verdana" font-size="10.00">::serializeXmlSettings</text>
</a>
</g>
</g>
<!-- Node1&#45;&gt;Node4 -->
<g id="edge3" class="edge"><title>Node1&#45;&gt;Node4</title>
<path fill="none" stroke="midnightblue" d="M99.7274,-338.488C127.631,-328.602 166.067,-314.985 195.334,-304.616"/>
<polygon fill="midnightblue" stroke="midnightblue" points="98.2173,-335.31 89.9602,-341.948 100.555,-341.908 98.2173,-335.31"/>
</g>
<!-- Node6 -->
<g id="node6" class="node"><title>Node6</title>
<g id="a_node6"><a xlink:href="classCElement.html#a1978d50e2db432e7b8f0928f33d3f01a" target="_top" xlink:title="CElement::fromXml">
<polygon fill="white" stroke="black" points="582.5,-473 582.5,-492 692.5,-492 692.5,-473 582.5,-473"/>
<text text-anchor="middle" x="637.5" y="-480" font-family="Verdana" font-size="10.00">CElement::fromXml</text>
</a>
</g>
</g>
<!-- Node1&#45;&gt;Node6 -->
<g id="edge6" class="edge"><title>Node1&#45;&gt;Node6</title>
<path fill="none" stroke="midnightblue" d="M78.6755,-368.711C119.132,-411.685 232.433,-523.064 354,-562.5 430.942,-587.459 459.638,-589.182 536,-562.5 576.632,-548.303 613.12,-510.042 628.618,-492.071"/>
<polygon fill="midnightblue" stroke="midnightblue" points="81.1506,-366.233 71.7783,-361.292 76.0238,-370.999 81.1506,-366.233"/>
</g>
<!-- Node7 -->
<g id="node7" class="node"><title>Node7</title>
<g id="a_node7"><a xlink:href="classCFileIncluderElementBuilder.html#a17d7991d19087f05fc6f0cdc065da3e2" target="_top" xlink:title="CFileIncluderElementBuilder\l::createElement">
<polygon fill="white" stroke="black" points="164.5,-225.5 164.5,-255.5 313.5,-255.5 313.5,-225.5 164.5,-225.5"/>
<text text-anchor="start" x="172.5" y="-243.5" font-family="Verdana" font-size="10.00">CFileIncluderElementBuilder</text>
<text text-anchor="middle" x="239" y="-232.5" font-family="Verdana" font-size="10.00">::createElement</text>
</a>
</g>
</g>
<!-- Node1&#45;&gt;Node7 -->
<g id="edge9" class="edge"><title>Node1&#45;&gt;Node7</title>
<path fill="none" stroke="midnightblue" d="M77.7796,-334.36C95.4842,-314.832 126.922,-283.212 160,-264.5 165.919,-261.152 172.361,-258.215 178.921,-255.654"/>
<polygon fill="midnightblue" stroke="midnightblue" points="75.0923,-332.115 71.068,-341.916 80.3258,-336.764 75.0923,-332.115"/>
</g>
<!-- Node8 -->
<g id="node8" class="node"><title>Node8</title>
<g id="a_node8"><a xlink:href="classTKindElementBuilderTemplate.html#ac3ba2f71d8e05f0c63aa8a32acb5b615" target="_top" xlink:title="TKindElementBuilderTemplate\l::createElement">
<polygon fill="white" stroke="black" points="160,-176.5 160,-206.5 318,-206.5 318,-176.5 160,-176.5"/>
<text text-anchor="start" x="168" y="-194.5" font-family="Verdana" font-size="10.00">TKindElementBuilderTemplate</text>
<text text-anchor="middle" x="239" y="-183.5" font-family="Verdana" font-size="10.00">::createElement</text>
</a>
</g>
</g>
<!-- Node1&#45;&gt;Node8 -->
<g id="edge10" class="edge"><title>Node1&#45;&gt;Node8</title>
<path fill="none" stroke="midnightblue" d="M71.3694,-332.816C85.4525,-303.485 116.657,-246.763 160,-215.5 164.711,-212.102 169.914,-209.176 175.33,-206.66"/>
<polygon fill="midnightblue" stroke="midnightblue" points="68.1592,-331.419 67.1103,-341.962 74.5048,-334.375 68.1592,-331.419"/>
</g>
<!-- Node9 -->
<g id="node9" class="node"><title>Node9</title>
<g id="a_node9"><a xlink:href="classCXmlElement.html#ac47c56a3cad8ac7d1fe7579e833227c5" target="_top" xlink:title="CXmlElement::getPath">
<polygon fill="white" stroke="black" points="177,-342 177,-361 301,-361 301,-342 177,-342"/>
<text text-anchor="middle" x="239" y="-349" font-family="Verdana" font-size="10.00">CXmlElement::getPath</text>
</a>
</g>
</g>
<!-- Node1&#45;&gt;Node9 -->
<g id="edge11" class="edge"><title>Node1&#45;&gt;Node9</title>
<path fill="none" stroke="midnightblue" d="M134.344,-351.5C148.437,-351.5 163.108,-351.5 176.828,-351.5"/>
<polygon fill="midnightblue" stroke="midnightblue" points="134.207,-348 124.207,-351.5 134.206,-355 134.207,-348"/>
</g>
<!-- Node20 -->
<g id="node20" class="node"><title>Node20</title>
<g id="a_node20"><a xlink:href="classCXmlElement.html#abffb4b3c9d2ac6c552b3222a92bf0d8a" target="_top" xlink:title="CXmlElement::getChildElement">
<polygon fill="white" stroke="black" points="739,-562 739,-581 905,-581 905,-562 739,-562"/>
<text text-anchor="middle" x="822" y="-569" font-family="Verdana" font-size="10.00">CXmlElement::getChildElement</text>
</a>
</g>
</g>
<!-- Node1&#45;&gt;Node20 -->
<g id="edge28" class="edge"><title>Node1&#45;&gt;Node20</title>
<path fill="none" stroke="midnightblue" d="M66.3282,-370.992C74.4374,-412.277 99.1951,-508.811 160,-558.5 353.975,-717.014 697.637,-614.698 794.773,-581.076"/>
<polygon fill="midnightblue" stroke="midnightblue" points="69.7609,-370.307 64.5026,-361.109 62.8773,-371.578 69.7609,-370.307"/>
</g>
<!-- Node3 -->
<g id="node3" class="node"><title>Node3</title>
<g id="a_node3"><a xlink:href="classCSubsystem.html#aa114a31f4aa4b0f47b3c616b721854d4" target="_top" xlink:title="CSubsystem::fromXml">
<polygon fill="white" stroke="black" points="941,-371 941,-390 1065,-390 1065,-371 941,-371"/>
<text text-anchor="middle" x="1003" y="-378" font-family="Verdana" font-size="10.00">CSubsystem::fromXml</text>
</a>
</g>
</g>
<!-- Node2&#45;&gt;Node3 -->
<g id="edge2" class="edge"><title>Node2&#45;&gt;Node3</title>
<path fill="none" stroke="midnightblue" d="M887.89,-411.737C914.729,-404.39 944.77,-396.166 967.289,-390.002"/>
<polygon fill="midnightblue" stroke="midnightblue" points="886.888,-408.382 878.166,-414.399 888.736,-415.134 886.888,-408.382"/>
</g>
<!-- Node4&#45;&gt;Node4 -->
<g id="edge5" class="edge"><title>Node4&#45;&gt;Node4</title>
<path fill="none" stroke="midnightblue" d="M207.727,-314.958C211.608,-319.679 222.033,-323 239,-323 266.844,-323 277.068,-314.057 269.672,-304.659"/>
<polygon fill="midnightblue" stroke="midnightblue" points="211.239,-314.846 208.328,-304.659 204.251,-314.438 211.239,-314.846"/>
</g>
<!-- Node5 -->
<g id="node5" class="node"><title>Node5</title>
<g id="a_node5"><a xlink:href="classCAreaConfiguration.html#a6b8c95a79343ee9823b026d74184e798" target="_top" xlink:title="CAreaConfiguration\l::serializeXmlSettings">
<polygon fill="white" stroke="black" points="385.5,-0.5 385.5,-30.5 504.5,-30.5 504.5,-0.5 385.5,-0.5"/>
<text text-anchor="start" x="393.5" y="-18.5" font-family="Verdana" font-size="10.00">CAreaConfiguration</text>
<text text-anchor="middle" x="445" y="-7.5" font-family="Verdana" font-size="10.00">::serializeXmlSettings</text>
</a>
</g>
</g>
<!-- Node4&#45;&gt;Node5 -->
<g id="edge4" class="edge"><title>Node4&#45;&gt;Node5</title>
<path fill="none" stroke="midnightblue" d="M309.543,-272.291C312.637,-270.007 315.49,-267.423 318,-264.5 383.985,-187.676 286.132,-114.666 354,-39.5 362.236,-30.3782 373.514,-24.5572 385.302,-20.8812"/>
<polygon fill="midnightblue" stroke="midnightblue" points="307.519,-269.427 300.856,-277.665 311.202,-275.38 307.519,-269.427"/>
</g>
<!-- Node6&#45;&gt;Node2 -->
<g id="edge7" class="edge"><title>Node6&#45;&gt;Node2</title>
<path fill="none" stroke="midnightblue" d="M681.228,-470.091C707.524,-462.455 741.402,-452.616 769.219,-444.538"/>
<polygon fill="midnightblue" stroke="midnightblue" points="680.176,-466.752 671.549,-472.902 682.129,-473.474 680.176,-466.752"/>
</g>
<!-- Node6&#45;&gt;Node6 -->
<g id="edge8" class="edge"><title>Node6&#45;&gt;Node6</title>
<path fill="none" stroke="midnightblue" d="M603.017,-500.391C603.522,-506.041 615.017,-510.5 637.5,-510.5 670.203,-510.5 679.656,-501.065 665.86,-492.257"/>
<polygon fill="midnightblue" stroke="midnightblue" points="605.923,-502.351 609.14,-492.257 600.33,-498.142 605.923,-502.351"/>
</g>
<!-- Node9&#45;&gt;Node3 -->
<g id="edge23" class="edge"><title>Node9&#45;&gt;Node3</title>
<path fill="none" stroke="midnightblue" d="M311.361,-350.259C371.327,-349.513 459.283,-349.115 536,-351.5 681.431,-356.021 852.023,-368.46 940.992,-375.49"/>
<polygon fill="midnightblue" stroke="midnightblue" points="311.196,-346.76 301.243,-350.391 311.288,-353.76 311.196,-346.76"/>
</g>
<!-- Node9&#45;&gt;Node6 -->
<g id="edge14" class="edge"><title>Node9&#45;&gt;Node6</title>
<path fill="none" stroke="midnightblue" d="M245.085,-371.065C256.642,-410.989 289.057,-501.133 354,-537.5 424.577,-577.021 457.633,-557.541 536,-537.5 570.493,-528.679 605.885,-505.304 624.055,-492.04"/>
<polygon fill="midnightblue" stroke="midnightblue" points="248.403,-369.932 242.368,-361.223 241.655,-371.794 248.403,-369.932"/>
</g>
<!-- Node9&#45;&gt;Node9 -->
<g id="edge27" class="edge"><title>Node9&#45;&gt;Node9</title>
<path fill="none" stroke="midnightblue" d="M206.017,-369.391C206.5,-375.041 217.494,-379.5 239,-379.5 270.281,-379.5 279.323,-370.065 266.127,-361.257"/>
<polygon fill="midnightblue" stroke="midnightblue" points="208.871,-371.417 211.873,-361.257 203.19,-367.327 208.871,-371.417"/>
</g>
<!-- Node10 -->
<g id="node10" class="node"><title>Node10</title>
<g id="a_node10"><a xlink:href="classCComponentInstance.html#a1943a2510a8a326f0fedd9cc8f07b193" target="_top" xlink:title="CComponentInstance\l::fromXml">
<polygon fill="white" stroke="black" points="385,-186.5 385,-216.5 505,-216.5 505,-186.5 385,-186.5"/>
<text text-anchor="start" x="393" y="-204.5" font-family="Verdana" font-size="10.00">CComponentInstance</text>
<text text-anchor="middle" x="445" y="-193.5" font-family="Verdana" font-size="10.00">::fromXml</text>
</a>
</g>
</g>
<!-- Node9&#45;&gt;Node10 -->
<g id="edge12" class="edge"><title>Node9&#45;&gt;Node10</title>
<path fill="none" stroke="midnightblue" d="M310.008,-337.612C312.853,-335.808 315.539,-333.78 318,-331.5 354.499,-297.688 317.663,-259.487 354,-225.5 362.621,-217.436 373.644,-212.02 384.998,-208.396"/>
<polygon fill="midnightblue" stroke="midnightblue" points="308.237,-334.59 301.053,-342.377 311.525,-340.77 308.237,-334.59"/>
</g>
<!-- Node11 -->
<g id="node11" class="node"><title>Node11</title>
<g id="a_node11"><a xlink:href="classCComponentType.html#a962c2716cd757893d0a1dafc84d538da" target="_top" xlink:title="CComponentType::fromXml">
<polygon fill="white" stroke="black" points="371.5,-148 371.5,-167 518.5,-167 518.5,-148 371.5,-148"/>
<text text-anchor="middle" x="445" y="-155" font-family="Verdana" font-size="10.00">CComponentType::fromXml</text>
</a>
</g>
</g>
<!-- Node9&#45;&gt;Node11 -->
<g id="edge13" class="edge"><title>Node9&#45;&gt;Node11</title>
<path fill="none" stroke="midnightblue" d="M310.12,-338.023C312.956,-336.113 315.606,-333.949 318,-331.5 367.435,-280.925 303.49,-226.002 354,-176.5 359.018,-171.582 364.97,-167.793 371.387,-164.891"/>
<polygon fill="midnightblue" stroke="midnightblue" points="308.166,-335.105 301.129,-343.026 311.569,-341.222 308.166,-335.105"/>
</g>
<!-- Node12 -->
<g id="node12" class="node"><title>Node12</title>
<g id="a_node12"><a xlink:href="classCElement.html#a0b4cdc10e6df8fd3740255c5faf3b596" target="_top" xlink:title="Creates a child CElement from a child XML Element. ">
<polygon fill="white" stroke="black" points="383.5,-361 383.5,-380 506.5,-380 506.5,-361 383.5,-361"/>
<text text-anchor="middle" x="445" y="-368" font-family="Verdana" font-size="10.00">CElement::createChild</text>
</a>
</g>
</g>
<!-- Node9&#45;&gt;Node12 -->
<g id="edge15" class="edge"><title>Node9&#45;&gt;Node12</title>
<path fill="none" stroke="midnightblue" d="M311.429,-358.153C334.846,-360.334 360.632,-362.735 383.188,-364.836"/>
<polygon fill="midnightblue" stroke="midnightblue" points="311.488,-354.643 301.207,-357.201 310.839,-361.613 311.488,-354.643"/>
</g>
<!-- Node13 -->
<g id="node13" class="node"><title>Node13</title>
<g id="a_node13"><a xlink:href="classCFixedPointParameterType.html#a58d031a099f032135417110023dad31e" target="_top" xlink:title="CFixedPointParameterType\l::fromXml">
<polygon fill="white" stroke="black" points="373.5,-98.5 373.5,-128.5 516.5,-128.5 516.5,-98.5 373.5,-98.5"/>
<text text-anchor="start" x="381.5" y="-116.5" font-family="Verdana" font-size="10.00">CFixedPointParameterType</text>
<text text-anchor="middle" x="445" y="-105.5" font-family="Verdana" font-size="10.00">::fromXml</text>
</a>
</g>
</g>
<!-- Node9&#45;&gt;Node13 -->
<g id="edge18" class="edge"><title>Node9&#45;&gt;Node13</title>
<path fill="none" stroke="midnightblue" d="M310.253,-338.15C313.054,-336.207 315.66,-334.001 318,-331.5 377.612,-267.78 295.026,-202.811 354,-138.5 359.37,-132.643 365.982,-128.113 373.164,-124.615"/>
<polygon fill="midnightblue" stroke="midnightblue" points="308.297,-335.237 301.342,-343.23 311.763,-341.319 308.297,-335.237"/>
</g>
<!-- Node14 -->
<g id="node14" class="node"><title>Node14</title>
<g id="a_node14"><a xlink:href="classCFrameworkConfigurationLocation.html#a2e9a4fed347353201cd0272de4952841" target="_top" xlink:title="CFrameworkConfigurationLocation\l::fromXml">
<polygon fill="white" stroke="black" points="355.5,-49.5 355.5,-79.5 534.5,-79.5 534.5,-49.5 355.5,-49.5"/>
<text text-anchor="start" x="363.5" y="-67.5" font-family="Verdana" font-size="10.00">CFrameworkConfigurationLocation</text>
<text text-anchor="middle" x="445" y="-56.5" font-family="Verdana" font-size="10.00">::fromXml</text>
</a>
</g>
</g>
<!-- Node9&#45;&gt;Node14 -->
<g id="edge19" class="edge"><title>Node9&#45;&gt;Node14</title>
<path fill="none" stroke="midnightblue" d="M309.932,-338.564C312.869,-336.518 315.587,-334.177 318,-331.5 391.087,-250.393 281.303,-169.956 354,-88.5 357.015,-85.1218 360.447,-82.1955 364.169,-79.6626"/>
<polygon fill="midnightblue" stroke="midnightblue" points="308.097,-335.581 301.146,-343.578 311.566,-341.661 308.097,-335.581"/>
</g>
<!-- Node15 -->
<g id="node15" class="node"><title>Node15</title>
<g id="a_node15"><a xlink:href="classCLinearParameterAdaptation.html#a3dfe0a5f0d6ddc9ca72f159bc066354e" target="_top" xlink:title="CLinearParameterAdaptation\l::fromXml">
<polygon fill="white" stroke="black" points="367.5,-497.5 367.5,-527.5 522.5,-527.5 522.5,-497.5 367.5,-497.5"/>
<text text-anchor="start" x="375.5" y="-515.5" font-family="Verdana" font-size="10.00">CLinearParameterAdaptation</text>
<text text-anchor="middle" x="445" y="-504.5" font-family="Verdana" font-size="10.00">::fromXml</text>
</a>
</g>
</g>
<!-- Node9&#45;&gt;Node15 -->
<g id="edge20" class="edge"><title>Node9&#45;&gt;Node15</title>
<path fill="none" stroke="midnightblue" d="M250.29,-370.117C267.679,-399.806 305.746,-457.66 354,-488.5 359.314,-491.896 365.098,-494.815 371.085,-497.322"/>
<polygon fill="midnightblue" stroke="midnightblue" points="253.2,-368.156 245.201,-361.209 247.122,-371.628 253.2,-368.156"/>
</g>
<!-- Node16 -->
<g id="node16" class="node"><title>Node16</title>
<g id="a_node16"><a xlink:href="classCLogarithmicParameterAdaptation.html#ac0b21330479721a562cbc9ff572b5e8e" target="_top" xlink:title="CLogarithmicParameterAdaptation\l::fromXml">
<polygon fill="white" stroke="black" points="354,-448.5 354,-478.5 536,-478.5 536,-448.5 354,-448.5"/>
<text text-anchor="start" x="362" y="-466.5" font-family="Verdana" font-size="10.00">CLogarithmicParameterAdaptation</text>
<text text-anchor="middle" x="445" y="-455.5" font-family="Verdana" font-size="10.00">::fromXml</text>
</a>
</g>
</g>
<!-- Node9&#45;&gt;Node16 -->
<g id="edge21" class="edge"><title>Node9&#45;&gt;Node16</title>
<path fill="none" stroke="midnightblue" d="M257.238,-368.42C278.349,-388.233 316.007,-420.724 354,-439.5 360.814,-442.867 368.159,-445.807 375.611,-448.363"/>
<polygon fill="midnightblue" stroke="midnightblue" points="259.392,-365.638 249.743,-361.262 254.557,-370.7 259.392,-365.638"/>
</g>
<!-- Node17 -->
<g id="node17" class="node"><title>Node17</title>
<g id="a_node17"><a xlink:href="classCSelectionCriterionRule.html#aa3536258af1e5f9cc1db535e7629d42c" target="_top" xlink:title="CSelectionCriterionRule\l::fromXml">
<polygon fill="white" stroke="black" points="381,-399.5 381,-429.5 509,-429.5 509,-399.5 381,-399.5"/>
<text text-anchor="start" x="389" y="-417.5" font-family="Verdana" font-size="10.00">CSelectionCriterionRule</text>
<text text-anchor="middle" x="445" y="-406.5" font-family="Verdana" font-size="10.00">::fromXml</text>
</a>
</g>
</g>
<!-- Node9&#45;&gt;Node17 -->
<g id="edge22" class="edge"><title>Node9&#45;&gt;Node17</title>
<path fill="none" stroke="midnightblue" d="M277.219,-364.438C299.421,-372.022 328.219,-381.628 354,-389.5 365.012,-392.862 376.838,-396.283 388.181,-399.47"/>
<polygon fill="midnightblue" stroke="midnightblue" points="278.112,-361.044 267.517,-361.109 275.84,-367.665 278.112,-361.044"/>
</g>
<!-- Node18 -->
<g id="node18" class="node"><title>Node18</title>
<g id="a_node18"><a xlink:href="classCTypeElement.html#a8f3a08cd11a7db4fde3bd69dde5c8b66" target="_top" xlink:title="CTypeElement::fromXml">
<polygon fill="white" stroke="black" points="572,-285 572,-304 703,-304 703,-285 572,-285"/>
<text text-anchor="middle" x="637.5" y="-292" font-family="Verdana" font-size="10.00">CTypeElement::fromXml</text>
</a>
</g>
</g>
<!-- Node9&#45;&gt;Node18 -->
<g id="edge24" class="edge"><title>Node9&#45;&gt;Node18</title>
<path fill="none" stroke="midnightblue" d="M290.203,-339.382C299.489,-336.927 309.071,-334.25 318,-331.5 334.258,-326.493 337.383,-322.14 354,-318.5 427.565,-302.385 514.104,-296.96 571.832,-295.203"/>
<polygon fill="midnightblue" stroke="midnightblue" points="289.089,-336.055 280.287,-341.952 290.845,-342.831 289.089,-336.055"/>
</g>
<!-- Node19 -->
<g id="node19" class="node"><title>Node19</title>
<g id="a_node19"><a xlink:href="classCXmlFileIncluderElement.html#a754298eb75aacfe300ed3942d51611aa" target="_top" xlink:title="CXmlFileIncluderElement\l::fromXml">
<polygon fill="white" stroke="black" points="378,-235.5 378,-265.5 512,-265.5 512,-235.5 378,-235.5"/>
<text text-anchor="start" x="386" y="-253.5" font-family="Verdana" font-size="10.00">CXmlFileIncluderElement</text>
<text text-anchor="middle" x="445" y="-242.5" font-family="Verdana" font-size="10.00">::fromXml</text>
</a>
</g>
</g>
<!-- Node9&#45;&gt;Node19 -->
<g id="edge26" class="edge"><title>Node9&#45;&gt;Node19</title>
<path fill="none" stroke="midnightblue" d="M306.601,-337.998C310.6,-336.108 314.439,-333.955 318,-331.5 340.843,-315.752 331.728,-297.046 354,-280.5 362.197,-274.41 371.703,-269.511 381.402,-265.582"/>
<polygon fill="midnightblue" stroke="midnightblue" points="304.947,-334.894 297.039,-341.944 307.618,-341.364 304.947,-334.894"/>
</g>
<!-- Node12&#45;&gt;Node2 -->
<g id="edge16" class="edge"><title>Node12&#45;&gt;Node2</title>
<path fill="none" stroke="midnightblue" d="M516.927,-381.659C588.373,-392.9 697.253,-410.03 763.498,-420.453"/>
<polygon fill="midnightblue" stroke="midnightblue" points="517.089,-378.142 506.667,-380.045 516.001,-385.057 517.089,-378.142"/>
</g>
<!-- Node12&#45;&gt;Node6 -->
<g id="edge17" class="edge"><title>Node12&#45;&gt;Node6</title>
<path fill="none" stroke="midnightblue" d="M516.556,-382.396C523.302,-384.647 529.895,-387.322 536,-390.5 576.915,-411.799 613.81,-454.03 629.07,-472.947"/>
<polygon fill="midnightblue" stroke="midnightblue" points="517.189,-378.931 506.604,-379.393 515.166,-385.633 517.189,-378.931"/>
</g>
<!-- Node18&#45;&gt;Node3 -->
<g id="edge25" class="edge"><title>Node18&#45;&gt;Node3</title>
<path fill="none" stroke="midnightblue" d="M713.548,-291.853C768.057,-292.162 842.847,-297.262 905,-318.5 939.421,-330.262 973.927,-356.637 990.999,-370.902"/>
<polygon fill="midnightblue" stroke="midnightblue" points="713.271,-288.353 703.27,-291.85 713.269,-295.353 713.271,-288.353"/>
</g>
<!-- Node20&#45;&gt;Node3 -->
<g id="edge29" class="edge"><title>Node20&#45;&gt;Node3</title>
<path fill="none" stroke="midnightblue" d="M839.09,-554.331C875.606,-515.368 963.81,-421.25 992.681,-390.444"/>
<polygon fill="midnightblue" stroke="midnightblue" points="836.407,-552.076 832.123,-561.766 841.515,-556.862 836.407,-552.076"/>
</g>
</g>
</svg>
