<?xml version="1.0" encoding="UTF-8" standalone="no"?>
<!DOCTYPE svg PUBLIC "-//W3C//DTD SVG 1.1//EN"
 "http://www.w3.org/Graphics/SVG/1.1/DTD/svg11.dtd">
<!-- Generated by graphviz version 2.38.0 (20140413.2041)
 -->
<!-- Title: CParameterMgr::split Pages: 1 -->
<svg width="813pt" height="315pt"
 viewBox="0.00 0.00 813.00 314.78" xmlns="http://www.w3.org/2000/svg" xmlns:xlink="http://www.w3.org/1999/xlink">
<g id="graph0" class="graph" transform="scale(1 1) rotate(0) translate(4 310.78)">
<title>CParameterMgr::split</title>
<polygon fill="white" stroke="none" points="-4,4 -4,-310.78 809,-310.78 809,4 -4,4"/>
<!-- Node1 -->
<g id="node1" class="node"><title>Node1</title>
<polygon fill="#bfbfbf" stroke="black" points="0,-120.28 0,-139.28 117,-139.28 117,-120.28 0,-120.28"/>
<text text-anchor="middle" x="58.5" y="-127.28" font-family="Verdana" font-size="10.00">CParameterMgr::split</text>
</g>
<!-- Node2 -->
<g id="node2" class="node"><title>Node2</title>
<g id="a_node2"><a xlink:href="classCElementLocator.html#a94ddc34b50d96cd1cc78f43e3014ce36" target="_top" xlink:title="CElementLocator::locate">
<polygon fill="white" stroke="black" points="153,-202.28 153,-221.28 287,-221.28 287,-202.28 153,-202.28"/>
<text text-anchor="middle" x="220" y="-209.28" font-family="Verdana" font-size="10.00">CElementLocator::locate</text>
</a>
</g>
</g>
<!-- Node1&#45;&gt;Node2 -->
<g id="edge1" class="edge"><title>Node1&#45;&gt;Node2</title>
<path fill="none" stroke="midnightblue" d="M78.1088,-139.347C106.082,-153.728 159.135,-181.003 191.556,-197.671"/>
<polygon fill="midnightblue" stroke="midnightblue" points="190.016,-200.814 200.51,-202.274 193.216,-194.589 190.016,-200.814"/>
</g>
<!-- Node8 -->
<g id="node8" class="node"><title>Node8</title>
<g id="a_node8"><a xlink:href="classCConfigurableDomains.html#a52fc8d5da4bfcae5a67017a42a327c2a" target="_top" xlink:title="Split a domain in two. ">
<polygon fill="white" stroke="black" points="157,-114.78 157,-144.78 283,-144.78 283,-114.78 157,-114.78"/>
<text text-anchor="start" x="165" y="-132.78" font-family="Verdana" font-size="10.00">CConfigurableDomains</text>
<text text-anchor="middle" x="220" y="-121.78" font-family="Verdana" font-size="10.00">::split</text>
</a>
</g>
</g>
<!-- Node1&#45;&gt;Node8 -->
<g id="edge9" class="edge"><title>Node1&#45;&gt;Node8</title>
<path fill="none" stroke="midnightblue" d="M117.083,-129.78C126.686,-129.78 136.755,-129.78 146.669,-129.78"/>
<polygon fill="midnightblue" stroke="midnightblue" points="146.919,-133.28 156.919,-129.78 146.919,-126.28 146.919,-133.28"/>
</g>
<!-- Node15 -->
<g id="node15" class="node"><title>Node15</title>
<g id="a_node15"><a xlink:href="namespaceutility.html#a3fb85a4dbd0307733f0dda49811db6d1" target="_top" xlink:title="Format the items of a map into a string as a list of key&#45;value pairs. ">
<polygon fill="white" stroke="black" points="176.5,-76.2799 176.5,-95.2799 263.5,-95.2799 263.5,-76.2799 176.5,-76.2799"/>
<text text-anchor="middle" x="220" y="-83.2799" font-family="Verdana" font-size="10.00">utility::asString</text>
</a>
</g>
</g>
<!-- Node1&#45;&gt;Node15 -->
<g id="edge21" class="edge"><title>Node1&#45;&gt;Node15</title>
<path fill="none" stroke="midnightblue" d="M94.1091,-120.233C117.727,-113.717 149.222,-105.029 174.674,-98.0076"/>
<polygon fill="midnightblue" stroke="midnightblue" points="175.749,-101.342 184.458,-95.3086 173.888,-94.594 175.749,-101.342"/>
</g>
<!-- Node3 -->
<g id="node3" class="node"><title>Node3</title>
<g id="a_node3"><a xlink:href="classCPathNavigator.html#ac63504ec6203e15a9ca4a15e9775bfe8" target="_top" xlink:title="CPathNavigator::isPathValid">
<polygon fill="white" stroke="black" points="323,-202.28 323,-221.28 471,-221.28 471,-202.28 323,-202.28"/>
<text text-anchor="middle" x="397" y="-209.28" font-family="Verdana" font-size="10.00">CPathNavigator::isPathValid</text>
</a>
</g>
</g>
<!-- Node2&#45;&gt;Node3 -->
<g id="edge2" class="edge"><title>Node2&#45;&gt;Node3</title>
<path fill="none" stroke="midnightblue" d="M287.16,-211.78C295.508,-211.78 304.132,-211.78 312.703,-211.78"/>
<polygon fill="midnightblue" stroke="midnightblue" points="312.719,-215.28 322.719,-211.78 312.719,-208.28 312.719,-215.28"/>
</g>
<!-- Node4 -->
<g id="node4" class="node"><title>Node4</title>
<g id="a_node4"><a xlink:href="classCPathNavigator.html#a06f35d45c0bf392e11de0bf1197cc589" target="_top" xlink:title="CPathNavigator::next">
<polygon fill="white" stroke="black" points="510.5,-287.28 510.5,-306.28 628.5,-306.28 628.5,-287.28 510.5,-287.28"/>
<text text-anchor="middle" x="569.5" y="-294.28" font-family="Verdana" font-size="10.00">CPathNavigator::next</text>
</a>
</g>
</g>
<!-- Node2&#45;&gt;Node4 -->
<g id="edge3" class="edge"><title>Node2&#45;&gt;Node4</title>
<path fill="none" stroke="midnightblue" d="M229.985,-221.408C246.494,-238.339 283.592,-272.956 323,-286.78 380.24,-306.858 449.64,-307.716 500.028,-304.511"/>
<polygon fill="midnightblue" stroke="midnightblue" points="500.433,-307.991 510.162,-303.796 499.94,-301.009 500.433,-307.991"/>
</g>
<!-- Node5 -->
<g id="node5" class="node"><title>Node5</title>
<g id="a_node5"><a xlink:href="classCElement.html#a49581fb6412e29e932962acd82d52d6a" target="_top" xlink:title="CElement::getName">
<polygon fill="white" stroke="black" points="512.5,-165.28 512.5,-184.28 626.5,-184.28 626.5,-165.28 512.5,-165.28"/>
<text text-anchor="middle" x="569.5" y="-172.28" font-family="Verdana" font-size="10.00">CElement::getName</text>
</a>
</g>
</g>
<!-- Node2&#45;&gt;Node5 -->
<g id="edge4" class="edge"><title>Node2&#45;&gt;Node5</title>
<path fill="none" stroke="midnightblue" d="M266.273,-202.231C283.909,-198.805 304.332,-195.195 323,-192.78 383.341,-184.972 452.498,-180.282 502.002,-177.656"/>
<polygon fill="midnightblue" stroke="midnightblue" points="502.45,-181.137 512.256,-177.126 502.089,-174.147 502.45,-181.137"/>
</g>
<!-- Node6 -->
<g id="node6" class="node"><title>Node6</title>
<g id="a_node6"><a xlink:href="classCElement.html#a182dcfb7ab154cc97cff047c5f5539f5" target="_top" xlink:title="CElement::findDescendant">
<polygon fill="white" stroke="black" points="325,-240.28 325,-259.28 469,-259.28 469,-240.28 325,-240.28"/>
<text text-anchor="middle" x="397" y="-247.28" font-family="Verdana" font-size="10.00">CElement::findDescendant</text>
</a>
</g>
</g>
<!-- Node2&#45;&gt;Node6 -->
<g id="edge5" class="edge"><title>Node2&#45;&gt;Node6</title>
<path fill="none" stroke="midnightblue" d="M265.16,-221.369C288.565,-226.451 317.505,-232.735 342.212,-238.1"/>
<polygon fill="midnightblue" stroke="midnightblue" points="341.643,-241.558 352.158,-240.26 343.128,-234.717 341.643,-241.558"/>
</g>
<!-- Node6&#45;&gt;Node4 -->
<g id="edge6" class="edge"><title>Node6&#45;&gt;Node4</title>
<path fill="none" stroke="midnightblue" d="M432.503,-259.291C458.877,-266.561 495.44,-276.64 524.012,-284.516"/>
<polygon fill="midnightblue" stroke="midnightblue" points="523.185,-287.919 533.756,-287.202 525.046,-281.171 523.185,-287.919"/>
</g>
<!-- Node6&#45;&gt;Node6 -->
<g id="edge8" class="edge"><title>Node6&#45;&gt;Node6</title>
<path fill="none" stroke="midnightblue" d="M370.49,-259.537C357.593,-268.345 366.43,-277.78 397,-277.78 417.539,-277.78 428.268,-273.521 429.186,-268.054"/>
<polygon fill="midnightblue" stroke="midnightblue" points="431.968,-265.918 423.51,-259.537 426.143,-269.8 431.968,-265.918"/>
</g>
<!-- Node7 -->
<g id="node7" class="node"><title>Node7</title>
<g id="a_node7"><a xlink:href="classCElement.html#a8595814a3159f32f874269907e70b260" target="_top" xlink:title="CElement::findChild">
<polygon fill="white" stroke="black" points="514.5,-222.28 514.5,-241.28 624.5,-241.28 624.5,-222.28 514.5,-222.28"/>
<text text-anchor="middle" x="569.5" y="-229.28" font-family="Verdana" font-size="10.00">CElement::findChild</text>
</a>
</g>
</g>
<!-- Node6&#45;&gt;Node7 -->
<g id="edge7" class="edge"><title>Node6&#45;&gt;Node7</title>
<path fill="none" stroke="midnightblue" d="M469.319,-242.251C480.847,-241.034 492.724,-239.78 504.077,-238.581"/>
<polygon fill="midnightblue" stroke="midnightblue" points="504.752,-242.029 514.329,-237.499 504.017,-235.068 504.752,-242.029"/>
</g>
<!-- Node9 -->
<g id="node9" class="node"><title>Node9</title>
<g id="a_node9"><a xlink:href="classCConfigurableDomains.html#a4dce38a1560b6e33871d3fa2d85cc449" target="_top" xlink:title="CConfigurableDomains\l::findConfigurableDomain">
<polygon fill="white" stroke="black" points="328.5,-114.78 328.5,-144.78 465.5,-144.78 465.5,-114.78 328.5,-114.78"/>
<text text-anchor="start" x="336.5" y="-132.78" font-family="Verdana" font-size="10.00">CConfigurableDomains</text>
<text text-anchor="middle" x="397" y="-121.78" font-family="Verdana" font-size="10.00">::findConfigurableDomain</text>
</a>
</g>
</g>
<!-- Node8&#45;&gt;Node9 -->
<g id="edge10" class="edge"><title>Node8&#45;&gt;Node9</title>
<path fill="none" stroke="midnightblue" d="M283.191,-129.78C294.513,-129.78 306.453,-129.78 318.16,-129.78"/>
<polygon fill="midnightblue" stroke="midnightblue" points="318.366,-133.28 328.366,-129.78 318.366,-126.28 318.366,-133.28"/>
</g>
<!-- Node10 -->
<g id="node10" class="node"><title>Node10</title>
<g id="a_node10"><a xlink:href="classCConfigurableDomain.html#ad08b2c56e7c842f9288625d35cb66736" target="_top" xlink:title="Split the domain in two. ">
<polygon fill="white" stroke="black" points="336.5,-65.7799 336.5,-95.7799 457.5,-95.7799 457.5,-65.7799 336.5,-65.7799"/>
<text text-anchor="start" x="344.5" y="-83.7799" font-family="Verdana" font-size="10.00">CConfigurableDomain</text>
<text text-anchor="middle" x="397" y="-72.7799" font-family="Verdana" font-size="10.00">::split</text>
</a>
</g>
</g>
<!-- Node8&#45;&gt;Node10 -->
<g id="edge12" class="edge"><title>Node8&#45;&gt;Node10</title>
<path fill="none" stroke="midnightblue" d="M274.934,-114.678C293.15,-109.578 313.653,-103.837 332.537,-98.5494"/>
<polygon fill="midnightblue" stroke="midnightblue" points="333.558,-101.898 342.244,-95.8315 331.671,-95.1575 333.558,-101.898"/>
</g>
<!-- Node9&#45;&gt;Node7 -->
<g id="edge11" class="edge"><title>Node9&#45;&gt;Node7</title>
<path fill="none" stroke="midnightblue" d="M423.158,-144.83C455.533,-164.198 511.433,-197.64 543.655,-216.917"/>
<polygon fill="midnightblue" stroke="midnightblue" points="542.081,-220.054 552.46,-222.184 545.675,-214.047 542.081,-220.054"/>
</g>
<!-- Node10&#45;&gt;Node5 -->
<g id="edge15" class="edge"><title>Node10&#45;&gt;Node5</title>
<path fill="none" stroke="midnightblue" d="M455.013,-95.7848C460.645,-98.3513 466.087,-101.33 471,-104.78 492.246,-119.699 486.168,-135.288 507,-150.78 512.5,-154.87 518.785,-158.358 525.19,-161.303"/>
<polygon fill="midnightblue" stroke="midnightblue" points="524.005,-164.601 534.581,-165.236 526.709,-158.145 524.005,-164.601"/>
</g>
<!-- Node11 -->
<g id="node11" class="node"><title>Node11</title>
<g id="a_node11"><a xlink:href="classCElement.html#a7022c0fc8063f0aae9d97b06e74d4ac1" target="_top" xlink:title="CElement::getPath">
<polygon fill="white" stroke="black" points="516.5,-71.2799 516.5,-90.2799 622.5,-90.2799 622.5,-71.2799 516.5,-71.2799"/>
<text text-anchor="middle" x="569.5" y="-78.2799" font-family="Verdana" font-size="10.00">CElement::getPath</text>
</a>
</g>
</g>
<!-- Node10&#45;&gt;Node11 -->
<g id="edge13" class="edge"><title>Node10&#45;&gt;Node11</title>
<path fill="none" stroke="midnightblue" d="M457.633,-80.7799C473.309,-80.7799 490.259,-80.7799 506.077,-80.7799"/>
<polygon fill="midnightblue" stroke="midnightblue" points="506.284,-84.28 516.284,-80.7799 506.284,-77.28 506.284,-84.28"/>
</g>
<!-- Node12 -->
<g id="node12" class="node"><title>Node12</title>
<g id="a_node12"><a xlink:href="classCElement.html#a58b6cdb5715497442fde6afa1e65f8e5" target="_top" xlink:title="CElement::getNbChildren">
<polygon fill="white" stroke="black" points="668,-47.2799 668,-66.2799 805,-66.2799 805,-47.2799 668,-47.2799"/>
<text text-anchor="middle" x="736.5" y="-54.2799" font-family="Verdana" font-size="10.00">CElement::getNbChildren</text>
</a>
</g>
</g>
<!-- Node10&#45;&gt;Node12 -->
<g id="edge16" class="edge"><title>Node10&#45;&gt;Node12</title>
<path fill="none" stroke="midnightblue" d="M444.409,-95.8143C453.253,-98.7426 462.424,-101.822 471,-104.78 487.082,-110.326 490.243,-114.847 507,-117.78 561.724,-127.358 578.402,-132.399 632,-117.78 664.077,-109.031 696.338,-87.5248 716.115,-72.5419"/>
<polygon fill="midnightblue" stroke="midnightblue" points="718.291,-75.2841 724.035,-66.3813 713.993,-69.759 718.291,-75.2841"/>
</g>
<!-- Node13 -->
<g id="node13" class="node"><title>Node13</title>
<g id="a_node13"><a xlink:href="classCElement.html#aee0d626525e9cd24d7639b6365afdc16" target="_top" xlink:title="Get a child element (const) ">
<polygon fill="white" stroke="black" points="682.5,-6.27988 682.5,-25.2799 790.5,-25.2799 790.5,-6.27988 682.5,-6.27988"/>
<text text-anchor="middle" x="736.5" y="-13.2799" font-family="Verdana" font-size="10.00">CElement::getChild</text>
</a>
</g>
</g>
<!-- Node10&#45;&gt;Node13 -->
<g id="edge17" class="edge"><title>Node10&#45;&gt;Node13</title>
<path fill="none" stroke="midnightblue" d="M414.974,-65.6393C435.213,-48.6985 470.862,-22.2567 507,-11.7799 561.673,4.07052 626.835,0.898147 673.556,-4.95325"/>
<polygon fill="midnightblue" stroke="midnightblue" points="673.157,-8.43097 683.531,-6.2781 674.079,-1.4919 673.157,-8.43097"/>
</g>
<!-- Node14 -->
<g id="node14" class="node"><title>Node14</title>
<g id="a_node14"><a xlink:href="classCDomainConfiguration.html#acd4e91173fa488a4b4d31be157067eae" target="_top" xlink:title="CDomainConfiguration\l::split">
<polygon fill="white" stroke="black" points="507,-21.7799 507,-51.7799 632,-51.7799 632,-21.7799 507,-21.7799"/>
<text text-anchor="start" x="515" y="-39.7799" font-family="Verdana" font-size="10.00">CDomainConfiguration</text>
<text text-anchor="middle" x="569.5" y="-28.7799" font-family="Verdana" font-size="10.00">::split</text>
</a>
</g>
</g>
<!-- Node10&#45;&gt;Node14 -->
<g id="edge18" class="edge"><title>Node10&#45;&gt;Node14</title>
<path fill="none" stroke="midnightblue" d="M456.2,-65.7606C470.387,-62.0995 485.689,-58.1505 500.295,-54.3812"/>
<polygon fill="midnightblue" stroke="midnightblue" points="501.465,-57.6939 510.273,-51.8061 499.716,-50.916 501.465,-57.6939"/>
</g>
<!-- Node11&#45;&gt;Node11 -->
<g id="edge14" class="edge"><title>Node11&#45;&gt;Node11</title>
<path fill="none" stroke="midnightblue" d="M543.915,-90.5369C531.468,-99.3451 539.996,-108.78 569.5,-108.78 589.323,-108.78 599.677,-104.521 600.563,-99.0544"/>
<polygon fill="midnightblue" stroke="midnightblue" points="603.438,-97.0547 595.085,-90.5369 597.551,-100.841 603.438,-97.0547"/>
</g>
<!-- Node14&#45;&gt;Node12 -->
<g id="edge19" class="edge"><title>Node14&#45;&gt;Node12</title>
<path fill="none" stroke="midnightblue" d="M632.409,-44.284C640.756,-45.2958 649.404,-46.344 657.98,-47.3835"/>
<polygon fill="midnightblue" stroke="midnightblue" points="657.643,-50.8682 667.991,-48.597 658.485,-43.919 657.643,-50.8682"/>
</g>
<!-- Node14&#45;&gt;Node13 -->
<g id="edge20" class="edge"><title>Node14&#45;&gt;Node13</title>
<path fill="none" stroke="midnightblue" d="M632.409,-28.9005C645.397,-27.2475 659.113,-25.5019 672.152,-23.8423"/>
<polygon fill="midnightblue" stroke="midnightblue" points="672.96,-27.2678 682.438,-22.5332 672.076,-20.3239 672.96,-27.2678"/>
</g>
</g>
</svg>
