<?xml version="1.0" encoding="UTF-8" standalone="no"?>
<!DOCTYPE svg PUBLIC "-//W3C//DTD SVG 1.1//EN"
 "http://www.w3.org/Graphics/SVG/1.1/DTD/svg11.dtd">
<!-- Generated by graphviz version 2.38.0 (20140413.2041)
 -->
<!-- Title: CXmlDocSource::populate Pages: 1 -->
<svg width="573pt" height="176pt"
 viewBox="0.00 0.00 573.00 176.00" xmlns="http://www.w3.org/2000/svg" xmlns:xlink="http://www.w3.org/1999/xlink">
<g id="graph0" class="graph" transform="scale(1 1) rotate(0) translate(4 172)">
<title>CXmlDocSource::populate</title>
<polygon fill="white" stroke="none" points="-4,4 -4,-172 569,-172 569,4 -4,4"/>
<!-- Node1 -->
<g id="node1" class="node"><title>Node1</title>
<polygon fill="#bfbfbf" stroke="black" points="0,-77 0,-96 142,-96 142,-77 0,-77"/>
<text text-anchor="middle" x="71" y="-84" font-family="Verdana" font-size="10.00">CXmlDocSource::populate</text>
</g>
<!-- Node2 -->
<g id="node2" class="node"><title>Node2</title>
<g id="a_node2"><a xlink:href="classutility_1_1ErrorContext.html#afc2e1af8c4a81e36e5013bf31127c15f" target="_top" xlink:title="utility::ErrorContext\l::setError">
<polygon fill="white" stroke="black" points="227,-137.5 227,-167.5 335,-167.5 335,-137.5 227,-137.5"/>
<text text-anchor="start" x="235" y="-155.5" font-family="Verdana" font-size="10.00">utility::ErrorContext</text>
<text text-anchor="middle" x="281" y="-144.5" font-family="Verdana" font-size="10.00">::setError</text>
</a>
</g>
</g>
<!-- Node1&#45;&gt;Node2 -->
<g id="edge1" class="edge"><title>Node1&#45;&gt;Node2</title>
<path fill="none" stroke="midnightblue" d="M94.4454,-96.1533C115.698,-105.06 148.637,-118.265 178,-127.5 190.543,-131.445 204.114,-135.151 217.138,-138.44"/>
<polygon fill="midnightblue" stroke="midnightblue" points="216.417,-141.867 226.965,-140.871 218.098,-135.072 216.417,-141.867"/>
</g>
<!-- Node3 -->
<g id="node3" class="node"><title>Node3</title>
<g id="a_node3"><a xlink:href="classCXmlDocSource.html#a87f5d62acf578217f003779459d50d81" target="_top" xlink:title="Getter method. ">
<polygon fill="white" stroke="black" points="178,-99 178,-118 384,-118 384,-99 178,-99"/>
<text text-anchor="middle" x="281" y="-106" font-family="Verdana" font-size="10.00">CXmlDocSource::getRootElementName</text>
</a>
</g>
</g>
<!-- Node1&#45;&gt;Node3 -->
<g id="edge2" class="edge"><title>Node1&#45;&gt;Node3</title>
<path fill="none" stroke="midnightblue" d="M142.129,-93.9175C154.227,-95.1971 167.012,-96.5493 179.722,-97.8937"/>
<polygon fill="midnightblue" stroke="midnightblue" points="179.572,-101.397 189.885,-98.9686 180.308,-94.4361 179.572,-101.397"/>
</g>
<!-- Node4 -->
<g id="node4" class="node"><title>Node4</title>
<g id="a_node4"><a xlink:href="classCXmlSerializingContext.html#a9e5ad5515d4c68fba4313df538382da7" target="_top" xlink:title="CXmlSerializingContext\l::appendLineToError">
<polygon fill="white" stroke="black" points="217,-49.5 217,-79.5 345,-79.5 345,-49.5 217,-49.5"/>
<text text-anchor="start" x="225" y="-67.5" font-family="Verdana" font-size="10.00">CXmlSerializingContext</text>
<text text-anchor="middle" x="281" y="-56.5" font-family="Verdana" font-size="10.00">::appendLineToError</text>
</a>
</g>
</g>
<!-- Node1&#45;&gt;Node4 -->
<g id="edge3" class="edge"><title>Node1&#45;&gt;Node4</title>
<path fill="none" stroke="midnightblue" d="M142.129,-79.0825C162.907,-76.8849 185.709,-74.4731 206.683,-72.2547"/>
<polygon fill="midnightblue" stroke="midnightblue" points="207.239,-75.7155 216.815,-71.183 206.502,-68.7544 207.239,-75.7155"/>
</g>
<!-- Node6 -->
<g id="node6" class="node"><title>Node6</title>
<g id="a_node6"><a xlink:href="classCXmlDocSource.html#a07f17719f201049c80c47c7e6d4c4933" target="_top" xlink:title="Getter method. ">
<polygon fill="white" stroke="black" points="193,-0.5 193,-30.5 369,-30.5 369,-0.5 193,-0.5"/>
<text text-anchor="start" x="201" y="-18.5" font-family="Verdana" font-size="10.00">CXmlDocSource::getRootElement</text>
<text text-anchor="middle" x="281" y="-7.5" font-family="Verdana" font-size="10.00">AttributeString</text>
</a>
</g>
</g>
<!-- Node1&#45;&gt;Node6 -->
<g id="edge5" class="edge"><title>Node1&#45;&gt;Node6</title>
<path fill="none" stroke="midnightblue" d="M90.7244,-76.9168C111.582,-66.5475 146.515,-50.0815 178,-39.5 184.698,-37.2489 191.712,-35.1283 198.792,-33.1505"/>
<polygon fill="midnightblue" stroke="midnightblue" points="199.719,-36.5257 208.463,-30.5433 197.897,-29.767 199.719,-36.5257"/>
</g>
<!-- Node5 -->
<g id="node5" class="node"><title>Node5</title>
<g id="a_node5"><a xlink:href="classutility_1_1ErrorContext.html#aafe9cd30a03303cf376926d9c4e9dd02" target="_top" xlink:title="utility::ErrorContext\l::appendToError">
<polygon fill="white" stroke="black" points="438.5,-49.5 438.5,-79.5 546.5,-79.5 546.5,-49.5 438.5,-49.5"/>
<text text-anchor="start" x="446.5" y="-67.5" font-family="Verdana" font-size="10.00">utility::ErrorContext</text>
<text text-anchor="middle" x="492.5" y="-56.5" font-family="Verdana" font-size="10.00">::appendToError</text>
</a>
</g>
</g>
<!-- Node4&#45;&gt;Node5 -->
<g id="edge4" class="edge"><title>Node4&#45;&gt;Node5</title>
<path fill="none" stroke="midnightblue" d="M345.141,-64.5C371.412,-64.5 401.853,-64.5 428.147,-64.5"/>
<polygon fill="midnightblue" stroke="midnightblue" points="428.379,-68.0001 438.379,-64.5 428.379,-61.0001 428.379,-68.0001"/>
</g>
<!-- Node7 -->
<g id="node7" class="node"><title>Node7</title>
<g id="a_node7"><a xlink:href="classCXmlElement.html#a6198359168c744489018bc2b8d732dc3" target="_top" xlink:title="Get attribute. ">
<polygon fill="white" stroke="black" points="420,-6 420,-25 565,-25 565,-6 420,-6"/>
<text text-anchor="middle" x="492.5" y="-13" font-family="Verdana" font-size="10.00">CXmlElement::getAttribute</text>
</a>
</g>
</g>
<!-- Node6&#45;&gt;Node7 -->
<g id="edge6" class="edge"><title>Node6&#45;&gt;Node7</title>
<path fill="none" stroke="midnightblue" d="M369.027,-15.5C382.465,-15.5 396.303,-15.5 409.623,-15.5"/>
<polygon fill="midnightblue" stroke="midnightblue" points="409.693,-19.0001 419.693,-15.5 409.693,-12.0001 409.693,-19.0001"/>
</g>
</g>
</svg>
