<?xml version="1.0" encoding="UTF-8" standalone="no"?>
<!DOCTYPE svg PUBLIC "-//W3C//DTD SVG 1.1//EN"
 "http://www.w3.org/Graphics/SVG/1.1/DTD/svg11.dtd">
<!-- Generated by graphviz version 2.38.0 (20140413.2041)
 -->
<!-- Title: CParameterMgrFullConnector::getFailureOnMissingSubsystem Pages: 1 -->
<svg width="360pt" height="39pt"
 viewBox="0.00 0.00 360.00 39.00" xmlns="http://www.w3.org/2000/svg" xmlns:xlink="http://www.w3.org/1999/xlink">
<g id="graph0" class="graph" transform="scale(1 1) rotate(0) translate(4 35)">
<title>CParameterMgrFullConnector::getFailureOnMissingSubsystem</title>
<polygon fill="white" stroke="none" points="-4,4 -4,-35 356,-35 356,4 -4,4"/>
<!-- Node1 -->
<g id="node1" class="node"><title>Node1</title>
<polygon fill="#bfbfbf" stroke="black" points="0,-0.5 0,-30.5 172,-30.5 172,-0.5 0,-0.5"/>
<text text-anchor="start" x="8" y="-18.5" font-family="Verdana" font-size="10.00">CParameterMgrFullConnector</text>
<text text-anchor="middle" x="86" y="-7.5" font-family="Verdana" font-size="10.00">::getFailureOnMissingSubsystem</text>
</g>
<!-- Node2 -->
<g id="node2" class="node"><title>Node2</title>
<g id="a_node2"><a xlink:href="classCParameterMgr.html#a61f8b6dfa06a54f0e34d94d8be7e3306" target="_top" xlink:title="Would start fail in case of missing subsystems. ">
<polygon fill="white" stroke="black" points="208,-0.5 208,-30.5 352,-30.5 352,-0.5 208,-0.5"/>
<text text-anchor="start" x="216" y="-18.5" font-family="Verdana" font-size="10.00">CParameterMgr::getFailure</text>
<text text-anchor="middle" x="280" y="-7.5" font-family="Verdana" font-size="10.00">OnMissingSubsystem</text>
</a>
</g>
</g>
<!-- Node1&#45;&gt;Node2 -->
<g id="edge1" class="edge"><title>Node1&#45;&gt;Node2</title>
<path fill="none" stroke="midnightblue" d="M172.052,-15.5C180.538,-15.5 189.14,-15.5 197.587,-15.5"/>
<polygon fill="midnightblue" stroke="midnightblue" points="197.797,-19.0001 207.797,-15.5 197.797,-12.0001 197.797,-19.0001"/>
</g>
</g>
</svg>
