<?xml version="1.0" encoding="UTF-8" standalone="no"?>
<!DOCTYPE svg PUBLIC "-//W3C//DTD SVG 1.1//EN"
 "http://www.w3.org/Graphics/SVG/1.1/DTD/svg11.dtd">
<!-- Generated by graphviz version 2.36.0 (20140111.2315)
 -->
<!-- Title: CConfigurableDomains::setSequenceAwareness Pages: 1 -->
<svg width="470pt" height="114pt"
 viewBox="0.00 0.00 470.00 114.00" xmlns="http://www.w3.org/2000/svg" xmlns:xlink="http://www.w3.org/1999/xlink">
<g id="graph0" class="graph" transform="scale(1 1) rotate(0) translate(4 110)">
<title>CConfigurableDomains::setSequenceAwareness</title>
<polygon fill="white" stroke="none" points="-4,4 -4,-110 466,-110 466,4 -4,4"/>
<!-- Node1 -->
<g id="node1" class="node"><title>Node1</title>
<polygon fill="#bfbfbf" stroke="black" points="0.5,-51 0.5,-81 137.5,-81 137.5,-51 0.5,-51"/>
<text text-anchor="start" x="8.5" y="-69" font-family="Verdana" font-size="10.00">CConfigurableDomains</text>
<text text-anchor="middle" x="69" y="-58" font-family="Verdana" font-size="10.00">::setSequenceAwareness</text>
</g>
<!-- Node2 -->
<g id="node2" class="node"><title>Node2</title>
<g id="a_node2"><a xlink:href="classCConfigurableDomains.html#a4dce38a1560b6e33871d3fa2d85cc449" target="_top" xlink:title="CConfigurableDomains\l::findConfigurableDomain">
<polygon fill="white" stroke="black" points="174.5,-76 174.5,-106 311.5,-106 311.5,-76 174.5,-76"/>
<text text-anchor="start" x="182.5" y="-94" font-family="Verdana" font-size="10.00">CConfigurableDomains</text>
<text text-anchor="middle" x="243" y="-83" font-family="Verdana" font-size="10.00">::findConfigurableDomain</text>
</a>
</g>
</g>
<!-- Node1&#45;&gt;Node2 -->
<g id="edge1" class="edge"><title>Node1&#45;&gt;Node2</title>
<path fill="none" stroke="midnightblue" d="M137.979,-75.8807C146.55,-77.1265 155.372,-78.4087 164.082,-79.6746"/>
<polygon fill="midnightblue" stroke="midnightblue" points="163.834,-83.1753 174.233,-81.1502 164.841,-76.2481 163.834,-83.1753"/>
</g>
<!-- Node4 -->
<g id="node4" class="node"><title>Node4</title>
<g id="a_node4"><a xlink:href="classCConfigurableDomain.html#a3a77775be8a0df31842b5857a238789e" target="_top" xlink:title="CConfigurableDomain\l::setSequenceAwareness">
<polygon fill="white" stroke="black" points="174.5,-27 174.5,-57 311.5,-57 311.5,-27 174.5,-27"/>
<text text-anchor="start" x="182.5" y="-45" font-family="Verdana" font-size="10.00">CConfigurableDomain</text>
<text text-anchor="middle" x="243" y="-34" font-family="Verdana" font-size="10.00">::setSequenceAwareness</text>
</a>
</g>
</g>
<!-- Node1&#45;&gt;Node4 -->
<g id="edge3" class="edge"><title>Node1&#45;&gt;Node4</title>
<path fill="none" stroke="midnightblue" d="M137.979,-56.5146C146.55,-55.3186 155.372,-54.0877 164.082,-52.8723"/>
<polygon fill="midnightblue" stroke="midnightblue" points="164.813,-56.3043 174.233,-51.4558 163.845,-49.3715 164.813,-56.3043"/>
</g>
<!-- Node3 -->
<g id="node3" class="node"><title>Node3</title>
<g id="a_node3"><a xlink:href="classCElement.html#a8595814a3159f32f874269907e70b260" target="_top" xlink:title="CElement::findChild">
<polygon fill="white" stroke="black" points="350,-81.5 350,-100.5 460,-100.5 460,-81.5 350,-81.5"/>
<text text-anchor="middle" x="405" y="-88.5" font-family="Verdana" font-size="10.00">CElement::findChild</text>
</a>
</g>
</g>
<!-- Node2&#45;&gt;Node3 -->
<g id="edge2" class="edge"><title>Node2&#45;&gt;Node3</title>
<path fill="none" stroke="midnightblue" d="M311.854,-91C321.013,-91 330.389,-91 339.487,-91"/>
<polygon fill="midnightblue" stroke="midnightblue" points="339.615,-94.5001 349.615,-91 339.615,-87.5001 339.615,-94.5001"/>
</g>
<!-- Node5 -->
<g id="node5" class="node"><title>Node5</title>
<g id="a_node5"><a xlink:href="classCElement.html#a1dee87366d307b43bf8851dd2614c160" target="_top" xlink:title="CElement::log_info">
<polygon fill="white" stroke="black" points="352,-38.5 352,-57.5 458,-57.5 458,-38.5 352,-38.5"/>
<text text-anchor="middle" x="405" y="-45.5" font-family="Verdana" font-size="10.00">CElement::log_info</text>
</a>
</g>
</g>
<!-- Node4&#45;&gt;Node5 -->
<g id="edge4" class="edge"><title>Node4&#45;&gt;Node5</title>
<path fill="none" stroke="midnightblue" d="M311.854,-44.5445C321.716,-44.9143 331.829,-45.2936 341.576,-45.6591"/>
<polygon fill="midnightblue" stroke="midnightblue" points="341.451,-49.1568 351.575,-46.0341 341.714,-42.1617 341.451,-49.1568"/>
</g>
<!-- Node6 -->
<g id="node6" class="node"><title>Node6</title>
<g id="a_node6"><a xlink:href="classCElement.html#a49581fb6412e29e932962acd82d52d6a" target="_top" xlink:title="CElement::getName">
<polygon fill="white" stroke="black" points="348,-0.5 348,-19.5 462,-19.5 462,-0.5 348,-0.5"/>
<text text-anchor="middle" x="405" y="-7.5" font-family="Verdana" font-size="10.00">CElement::getName</text>
</a>
</g>
</g>
<!-- Node4&#45;&gt;Node6 -->
<g id="edge5" class="edge"><title>Node4&#45;&gt;Node6</title>
<path fill="none" stroke="midnightblue" d="M311.854,-28.4291C323.331,-26.1337 335.15,-23.7701 346.335,-21.533"/>
<polygon fill="midnightblue" stroke="midnightblue" points="347.282,-24.9131 356.401,-19.5198 345.909,-18.049 347.282,-24.9131"/>
</g>
</g>
</svg>
