<?xml version="1.0" encoding="UTF-8" standalone="no"?>
<!DOCTYPE svg PUBLIC "-//W3C//DTD SVG 1.1//EN"
 "http://www.w3.org/Graphics/SVG/1.1/DTD/svg11.dtd">
<!-- Generated by graphviz version 2.36.0 (20140111.2315)
 -->
<!-- Title: TRemoteCommandHandlerTemplate::TRemoteCommandHandlerTemplate Pages: 1 -->
<svg width="430pt" height="38pt"
 viewBox="0.00 0.00 430.00 38.00" xmlns="http://www.w3.org/2000/svg" xmlns:xlink="http://www.w3.org/1999/xlink">
<g id="graph0" class="graph" transform="scale(1 1) rotate(0) translate(4 34)">
<title>TRemoteCommandHandlerTemplate::TRemoteCommandHandlerTemplate</title>
<polygon fill="white" stroke="none" points="-4,4 -4,-34 426,-34 426,4 -4,4"/>
<!-- Node1 -->
<g id="node1" class="node"><title>Node1</title>
<polygon fill="#bfbfbf" stroke="black" points="0,-0 0,-30 196,-30 196,-0 0,-0"/>
<text text-anchor="start" x="8" y="-18" font-family="Verdana" font-size="10.00">TRemoteCommandHandlerTemplate</text>
<text text-anchor="middle" x="98" y="-7" font-family="Verdana" font-size="10.00">::TRemoteCommandHandlerTemplate</text>
</g>
<!-- Node2 -->
<g id="node2" class="node"><title>Node2</title>
<g id="a_node2"><a xlink:href="classTRemoteCommandHandlerTemplate.html#aac08c7501403c1777d9092bf8d29d478" target="_top" xlink:title="TRemoteCommandHandlerTemplate\l::addCommandParser">
<polygon fill="white" stroke="black" points="232,-0 232,-30 422,-30 422,-0 232,-0"/>
<text text-anchor="start" x="240" y="-18" font-family="Verdana" font-size="10.00">TRemoteCommandHandlerTemplate</text>
<text text-anchor="middle" x="327" y="-7" font-family="Verdana" font-size="10.00">::addCommandParser</text>
</a>
</g>
</g>
<!-- Node1&#45;&gt;Node2 -->
<g id="edge1" class="edge"><title>Node1&#45;&gt;Node2</title>
<path fill="none" stroke="midnightblue" d="M196.256,-15C204.64,-15 213.145,-15 221.582,-15"/>
<polygon fill="midnightblue" stroke="midnightblue" points="221.828,-18.5001 231.828,-15 221.828,-11.5001 221.828,-18.5001"/>
</g>
</g>
</svg>
