<?xml version="1.0" encoding="UTF-8" standalone="no"?>
<!DOCTYPE svg PUBLIC "-//W3C//DTD SVG 1.1//EN"
 "http://www.w3.org/Graphics/SVG/1.1/DTD/svg11.dtd">
<!-- Generated by graphviz version 2.38.0 (20140413.2041)
 -->
<!-- Title: CSelectionCriteria::createSelectionCriterion Pages: 1 -->
<svg width="631pt" height="78pt"
 viewBox="0.00 0.00 631.00 77.50" xmlns="http://www.w3.org/2000/svg" xmlns:xlink="http://www.w3.org/1999/xlink">
<g id="graph0" class="graph" transform="scale(1 1) rotate(0) translate(4 73.5)">
<title>CSelectionCriteria::createSelectionCriterion</title>
<polygon fill="white" stroke="none" points="-4,4 -4,-73.5 627,-73.5 627,4 -4,4"/>
<!-- Node1 -->
<g id="node1" class="node"><title>Node1</title>
<polygon fill="#bfbfbf" stroke="black" points="0,-17 0,-47 138,-47 138,-17 0,-17"/>
<text text-anchor="start" x="8" y="-35" font-family="Verdana" font-size="10.00">CSelectionCriteria</text>
<text text-anchor="middle" x="69" y="-24" font-family="Verdana" font-size="10.00">::createSelectionCriterion</text>
</g>
<!-- Node2 -->
<g id="node2" class="node"><title>Node2</title>
<g id="a_node2"><a xlink:href="classCSelectionCriteriaDefinition.html#a721af071a21972611a6b410be8a8a240" target="_top" xlink:title="CSelectionCriteriaDefinition\l::createSelectionCriterion">
<polygon fill="white" stroke="black" points="174,-17 174,-47 321,-47 321,-17 174,-17"/>
<text text-anchor="start" x="182" y="-35" font-family="Verdana" font-size="10.00">CSelectionCriteriaDefinition</text>
<text text-anchor="middle" x="247.5" y="-24" font-family="Verdana" font-size="10.00">::createSelectionCriterion</text>
</a>
</g>
</g>
<!-- Node1&#45;&gt;Node2 -->
<g id="edge1" class="edge"><title>Node1&#45;&gt;Node2</title>
<path fill="none" stroke="midnightblue" d="M138.24,-32C146.515,-32 155.039,-32 163.498,-32"/>
<polygon fill="midnightblue" stroke="midnightblue" points="163.763,-35.5001 173.763,-32 163.763,-28.5001 163.763,-35.5001"/>
</g>
<!-- Node3 -->
<g id="node3" class="node"><title>Node3</title>
<g id="a_node3"><a xlink:href="classCSelectionCriterion.html#ac0435b98642a148ab2adcf3401fc158e" target="_top" xlink:title="CSelectionCriterion\l::CSelectionCriterion">
<polygon fill="white" stroke="black" points="357,-39 357,-69 471,-69 471,-39 357,-39"/>
<text text-anchor="start" x="365" y="-57" font-family="Verdana" font-size="10.00">CSelectionCriterion</text>
<text text-anchor="middle" x="414" y="-46" font-family="Verdana" font-size="10.00">::CSelectionCriterion</text>
</a>
</g>
</g>
<!-- Node2&#45;&gt;Node3 -->
<g id="edge2" class="edge"><title>Node2&#45;&gt;Node3</title>
<path fill="none" stroke="midnightblue" d="M321.131,-41.7136C329.575,-42.8429 338.156,-43.9905 346.512,-45.108"/>
<polygon fill="midnightblue" stroke="midnightblue" points="346.193,-48.5963 356.568,-46.4529 347.12,-41.6581 346.193,-48.5963"/>
</g>
<!-- Node5 -->
<g id="node5" class="node"><title>Node5</title>
<g id="a_node5"><a xlink:href="classCElement.html#ac2ad66ee438a4a0c1390b7388874fe72" target="_top" xlink:title="CElement::addChild">
<polygon fill="white" stroke="black" points="359,-0.5 359,-19.5 469,-19.5 469,-0.5 359,-0.5"/>
<text text-anchor="middle" x="414" y="-7.5" font-family="Verdana" font-size="10.00">CElement::addChild</text>
</a>
</g>
</g>
<!-- Node2&#45;&gt;Node5 -->
<g id="edge4" class="edge"><title>Node2&#45;&gt;Node5</title>
<path fill="none" stroke="midnightblue" d="M321.131,-22.2864C330.261,-21.0654 339.551,-19.8229 348.544,-18.6203"/>
<polygon fill="midnightblue" stroke="midnightblue" points="349.097,-22.0775 358.545,-17.2827 348.169,-15.1393 349.097,-22.0775"/>
</g>
<!-- Node4 -->
<g id="node4" class="node"><title>Node4</title>
<g id="a_node4"><a xlink:href="classCElement.html#adda0945fbca000ff1e605a9b93f74c64" target="_top" xlink:title="CElement::CElement">
<polygon fill="white" stroke="black" points="507,-44.5 507,-63.5 623,-63.5 623,-44.5 507,-44.5"/>
<text text-anchor="middle" x="565" y="-51.5" font-family="Verdana" font-size="10.00">CElement::CElement</text>
</a>
</g>
</g>
<!-- Node3&#45;&gt;Node4 -->
<g id="edge3" class="edge"><title>Node3&#45;&gt;Node4</title>
<path fill="none" stroke="midnightblue" d="M471.331,-54C479.533,-54 488.048,-54 496.445,-54"/>
<polygon fill="midnightblue" stroke="midnightblue" points="496.599,-57.5001 506.599,-54 496.599,-50.5001 496.599,-57.5001"/>
</g>
</g>
</svg>
