<?xml version="1.0" encoding="UTF-8" standalone="no"?>
<!DOCTYPE svg PUBLIC "-//W3C//DTD SVG 1.1//EN"
 "http://www.w3.org/Graphics/SVG/1.1/DTD/svg11.dtd">
<!-- Generated by graphviz version 2.38.0 (20140413.2041)
 -->
<!-- Title: CParameterType Pages: 1 -->
<svg width="608pt" height="142pt"
 viewBox="0.00 0.00 608.00 142.00" xmlns="http://www.w3.org/2000/svg" xmlns:xlink="http://www.w3.org/1999/xlink">
<g id="graph0" class="graph" transform="scale(1 1) rotate(0) translate(4 138)">
<title>CParameterType</title>
<polygon fill="white" stroke="none" points="-4,4 -4,-138 604,-138 604,4 -4,4"/>
<!-- Node1 -->
<g id="node1" class="node"><title>Node1</title>
<polygon fill="#bfbfbf" stroke="black" points="326,-57.5 326,-76.5 421,-76.5 421,-57.5 326,-57.5"/>
<text text-anchor="middle" x="373.5" y="-64.5" font-family="Verdana" font-size="10.00">CParameterType</text>
</g>
<!-- Node6 -->
<g id="node6" class="node"><title>Node6</title>
<g id="a_node6"><a xlink:href="classCBooleanParameterType.html" target="_top" xlink:title="CBooleanParameterType">
<polygon fill="white" stroke="black" points="461.5,-114.5 461.5,-133.5 595.5,-133.5 595.5,-114.5 461.5,-114.5"/>
<text text-anchor="middle" x="528.5" y="-121.5" font-family="Verdana" font-size="10.00">CBooleanParameterType</text>
</a>
</g>
</g>
<!-- Node1&#45;&gt;Node6 -->
<g id="edge5" class="edge"><title>Node1&#45;&gt;Node6</title>
<path fill="none" stroke="midnightblue" d="M402,-81.0825C417.814,-88.8195 438.214,-98.1969 457,-105 466.654,-108.496 477.257,-111.682 487.242,-114.404"/>
<polygon fill="midnightblue" stroke="midnightblue" points="403.315,-77.8276 392.802,-76.5148 400.202,-84.0972 403.315,-77.8276"/>
</g>
<!-- Node7 -->
<g id="node7" class="node"><title>Node7</title>
<g id="a_node7"><a xlink:href="classCEnumParameterType.html" target="_top" xlink:title="CEnumParameterType">
<polygon fill="white" stroke="black" points="467.5,-76.5 467.5,-95.5 589.5,-95.5 589.5,-76.5 467.5,-76.5"/>
<text text-anchor="middle" x="528.5" y="-83.5" font-family="Verdana" font-size="10.00">CEnumParameterType</text>
</a>
</g>
</g>
<!-- Node1&#45;&gt;Node7 -->
<g id="edge6" class="edge"><title>Node1&#45;&gt;Node7</title>
<path fill="none" stroke="midnightblue" d="M431.384,-74.0641C443.162,-75.5267 455.605,-77.0718 467.49,-78.5478"/>
<polygon fill="midnightblue" stroke="midnightblue" points="431.592,-70.563 421.236,-72.8039 430.729,-77.5096 431.592,-70.563"/>
</g>
<!-- Node8 -->
<g id="node8" class="node"><title>Node8</title>
<g id="a_node8"><a xlink:href="classCFixedPointParameterType.html" target="_top" xlink:title="CFixedPointParameterType">
<polygon fill="white" stroke="black" points="457,-38.5 457,-57.5 600,-57.5 600,-38.5 457,-38.5"/>
<text text-anchor="middle" x="528.5" y="-45.5" font-family="Verdana" font-size="10.00">CFixedPointParameterType</text>
</a>
</g>
</g>
<!-- Node1&#45;&gt;Node8 -->
<g id="edge7" class="edge"><title>Node1&#45;&gt;Node8</title>
<path fill="none" stroke="midnightblue" d="M431.217,-59.9567C439.56,-58.9207 448.24,-57.8427 456.822,-56.777"/>
<polygon fill="midnightblue" stroke="midnightblue" points="430.729,-56.4904 421.236,-61.1961 431.592,-63.437 430.729,-56.4904"/>
</g>
<!-- Node9 -->
<g id="node9" class="node"><title>Node9</title>
<g id="a_node9"><a xlink:href="classCIntegerParameterType.html" target="_top" xlink:title="CIntegerParameterType">
<polygon fill="white" stroke="black" points="464.5,-0.5 464.5,-19.5 592.5,-19.5 592.5,-0.5 464.5,-0.5"/>
<text text-anchor="middle" x="528.5" y="-7.5" font-family="Verdana" font-size="10.00">CIntegerParameterType</text>
</a>
</g>
</g>
<!-- Node1&#45;&gt;Node9 -->
<g id="edge8" class="edge"><title>Node1&#45;&gt;Node9</title>
<path fill="none" stroke="midnightblue" d="M402,-52.9175C417.814,-45.1805 438.214,-35.8031 457,-29 466.654,-25.5039 477.257,-22.318 487.242,-19.596"/>
<polygon fill="midnightblue" stroke="midnightblue" points="400.202,-49.9028 392.802,-57.4852 403.315,-56.1724 400.202,-49.9028"/>
</g>
<!-- Node2 -->
<g id="node2" class="node"><title>Node2</title>
<g id="a_node2"><a xlink:href="classCTypeElement.html" target="_top" xlink:title="CTypeElement">
<polygon fill="white" stroke="black" points="206,-57.5 206,-76.5 290,-76.5 290,-57.5 206,-57.5"/>
<text text-anchor="middle" x="248" y="-64.5" font-family="Verdana" font-size="10.00">CTypeElement</text>
</a>
</g>
</g>
<!-- Node2&#45;&gt;Node1 -->
<g id="edge1" class="edge"><title>Node2&#45;&gt;Node1</title>
<path fill="none" stroke="midnightblue" d="M300.202,-67C308.609,-67 317.285,-67 325.582,-67"/>
<polygon fill="midnightblue" stroke="midnightblue" points="300.124,-63.5001 290.124,-67 300.124,-70.5001 300.124,-63.5001"/>
</g>
<!-- Node3 -->
<g id="node3" class="node"><title>Node3</title>
<g id="a_node3"><a xlink:href="classCElement.html" target="_top" xlink:title="CElement">
<polygon fill="white" stroke="black" points="107,-57.5 107,-76.5 170,-76.5 170,-57.5 107,-57.5"/>
<text text-anchor="middle" x="138.5" y="-64.5" font-family="Verdana" font-size="10.00">CElement</text>
</a>
</g>
</g>
<!-- Node3&#45;&gt;Node2 -->
<g id="edge2" class="edge"><title>Node3&#45;&gt;Node2</title>
<path fill="none" stroke="midnightblue" d="M180.061,-67C188.535,-67 197.475,-67 205.966,-67"/>
<polygon fill="midnightblue" stroke="midnightblue" points="180.018,-63.5001 170.018,-67 180.018,-70.5001 180.018,-63.5001"/>
</g>
<!-- Node4 -->
<g id="node4" class="node"><title>Node4</title>
<polygon fill="white" stroke="#bfbfbf" points="7,-76.5 7,-95.5 64,-95.5 64,-76.5 7,-76.5"/>
<text text-anchor="middle" x="35.5" y="-83.5" font-family="Verdana" font-size="10.00">IXmlSink</text>
</g>
<!-- Node4&#45;&gt;Node3 -->
<g id="edge3" class="edge"><title>Node4&#45;&gt;Node3</title>
<path fill="none" stroke="midnightblue" d="M74.0855,-78.9295C84.8425,-76.9059 96.4375,-74.7246 106.734,-72.7877"/>
<polygon fill="midnightblue" stroke="midnightblue" points="73.2792,-75.5197 64.0987,-80.8082 74.5734,-82.399 73.2792,-75.5197"/>
</g>
<!-- Node5 -->
<g id="node5" class="node"><title>Node5</title>
<polygon fill="white" stroke="#bfbfbf" points="0,-38.5 0,-57.5 71,-57.5 71,-38.5 0,-38.5"/>
<text text-anchor="middle" x="35.5" y="-45.5" font-family="Verdana" font-size="10.00">IXmlSource</text>
</g>
<!-- Node5&#45;&gt;Node3 -->
<g id="edge4" class="edge"><title>Node5&#45;&gt;Node3</title>
<path fill="none" stroke="midnightblue" d="M81.2112,-56.411C89.8308,-58.0325 98.6784,-59.6969 106.732,-61.2119"/>
<polygon fill="midnightblue" stroke="midnightblue" points="81.7332,-52.9479 71.2585,-54.5387 80.439,-59.8272 81.7332,-52.9479"/>
</g>
</g>
</svg>
