<?xml version="1.0" encoding="UTF-8" standalone="no"?>
<!DOCTYPE svg PUBLIC "-//W3C//DTD SVG 1.1//EN"
 "http://www.w3.org/Graphics/SVG/1.1/DTD/svg11.dtd">
<!-- Generated by graphviz version 2.38.0 (20140413.2041)
 -->
<!-- Title: CElement::log_table Pages: 1 -->
<svg width="793pt" height="96pt"
 viewBox="0.00 0.00 793.00 95.50" xmlns="http://www.w3.org/2000/svg" xmlns:xlink="http://www.w3.org/1999/xlink">
<g id="graph0" class="graph" transform="scale(1 1) rotate(0) translate(4 91.5)">
<title>CElement::log_table</title>
<polygon fill="white" stroke="none" points="-4,4 -4,-91.5 789,-91.5 789,4 -4,4"/>
<!-- Node1 -->
<g id="node1" class="node"><title>Node1</title>
<polygon fill="#bfbfbf" stroke="black" points="0,-19.5 0,-38.5 113,-38.5 113,-19.5 0,-19.5"/>
<text text-anchor="middle" x="56.5" y="-26.5" font-family="Verdana" font-size="10.00">CElement::log_table</text>
</g>
<!-- Node2 -->
<g id="node2" class="node"><title>Node2</title>
<g id="a_node2"><a xlink:href="classCParameterMgr.html#aad4830a40d67cfae091cbf1a15ff29d0" target="_top" xlink:title="Load plugins, structures and settings from the config file given. ">
<polygon fill="white" stroke="black" points="175.5,-38.5 175.5,-57.5 293.5,-57.5 293.5,-38.5 175.5,-38.5"/>
<text text-anchor="middle" x="234.5" y="-45.5" font-family="Verdana" font-size="10.00">CParameterMgr::load</text>
</a>
</g>
</g>
<!-- Node1&#45;&gt;Node2 -->
<g id="edge1" class="edge"><title>Node1&#45;&gt;Node2</title>
<path fill="none" stroke="midnightblue" d="M123.136,-36.0857C140.308,-37.9395 158.698,-39.9248 175.444,-41.7326"/>
<polygon fill="midnightblue" stroke="midnightblue" points="123.505,-32.6053 113.188,-35.0117 122.754,-39.5649 123.505,-32.6053"/>
</g>
<!-- Node7 -->
<g id="node7" class="node"><title>Node7</title>
<g id="a_node7"><a xlink:href="classCSystemClass.html#a3264a476e689e33f8c30c6596e3f0d16" target="_top" xlink:title="Load subsystem plugin and fill the corresponding libraries. ">
<polygon fill="white" stroke="black" points="149,-0.5 149,-19.5 320,-19.5 320,-0.5 149,-0.5"/>
<text text-anchor="middle" x="234.5" y="-7.5" font-family="Verdana" font-size="10.00">CSystemClass::loadSubsystems</text>
</a>
</g>
</g>
<!-- Node1&#45;&gt;Node7 -->
<g id="edge6" class="edge"><title>Node1&#45;&gt;Node7</title>
<path fill="none" stroke="midnightblue" d="M123.244,-21.9027C131.623,-20.998 140.291,-20.0623 148.915,-19.1313"/>
<polygon fill="midnightblue" stroke="midnightblue" points="122.754,-18.4351 113.188,-22.9883 123.505,-25.3947 122.754,-18.4351"/>
</g>
<!-- Node3 -->
<g id="node3" class="node"><title>Node3</title>
<g id="a_node3"><a xlink:href="classCParameterMgrFullConnector.html#a60cb4e00e70c6a7b700e464d0de084ff" target="_top" xlink:title="CParameterMgrFullConnector\l::start">
<polygon fill="white" stroke="black" points="369,-57 369,-87 525,-87 525,-57 369,-57"/>
<text text-anchor="start" x="377" y="-75" font-family="Verdana" font-size="10.00">CParameterMgrFullConnector</text>
<text text-anchor="middle" x="447" y="-64" font-family="Verdana" font-size="10.00">::start</text>
</a>
</g>
</g>
<!-- Node2&#45;&gt;Node3 -->
<g id="edge2" class="edge"><title>Node2&#45;&gt;Node3</title>
<path fill="none" stroke="midnightblue" d="M303.596,-55.7639C324.402,-58.1361 347.43,-60.7616 368.795,-63.1976"/>
<polygon fill="midnightblue" stroke="midnightblue" points="303.909,-52.2771 293.577,-54.6216 303.116,-59.232 303.909,-52.2771"/>
</g>
<!-- Node4 -->
<g id="node4" class="node"><title>Node4</title>
<g id="a_node4"><a xlink:href="classCParameterMgrPlatformConnector.html#a04060080b3be8780e4a7d0211fd95da7" target="_top" xlink:title="CParameterMgrPlatformConnector\l::start">
<polygon fill="white" stroke="black" points="356,-8 356,-38 538,-38 538,-8 356,-8"/>
<text text-anchor="start" x="364" y="-26" font-family="Verdana" font-size="10.00">CParameterMgrPlatformConnector</text>
<text text-anchor="middle" x="447" y="-15" font-family="Verdana" font-size="10.00">::start</text>
</a>
</g>
</g>
<!-- Node2&#45;&gt;Node4 -->
<g id="edge3" class="edge"><title>Node2&#45;&gt;Node4</title>
<path fill="none" stroke="midnightblue" d="M303.709,-39.8992C320.3,-37.9287 338.3,-35.791 355.739,-33.7198"/>
<polygon fill="midnightblue" stroke="midnightblue" points="303.095,-36.4474 293.577,-41.1025 303.92,-43.3986 303.095,-36.4474"/>
</g>
<!-- Node5 -->
<g id="node5" class="node"><title>Node5</title>
<g id="a_node5"><a xlink:href="ParameterFramework_8cpp.html#a44326e09ebb9719ecb017d1d67832b6f" target="_top" xlink:title="pfwStart">
<polygon fill="white" stroke="black" points="574,-13.5 574,-32.5 630,-32.5 630,-13.5 574,-13.5"/>
<text text-anchor="middle" x="602" y="-20.5" font-family="Verdana" font-size="10.00">pfwStart</text>
</a>
</g>
</g>
<!-- Node4&#45;&gt;Node5 -->
<g id="edge4" class="edge"><title>Node4&#45;&gt;Node5</title>
<path fill="none" stroke="midnightblue" d="M548.494,-23C557.703,-23 566.397,-23 573.96,-23"/>
<polygon fill="midnightblue" stroke="midnightblue" points="548.328,-19.5001 538.328,-23 548.328,-26.5001 548.328,-19.5001"/>
</g>
<!-- Node6 -->
<g id="node6" class="node"><title>Node6</title>
<g id="a_node6"><a xlink:href="Test_8cpp.html#ae78f4780e83e5f2b9721a2d66c70fec9" target="_top" xlink:title="TEST_CASE_METHOD">
<polygon fill="white" stroke="black" points="666,-13.5 666,-32.5 785,-32.5 785,-13.5 666,-13.5"/>
<text text-anchor="middle" x="725.5" y="-20.5" font-family="Verdana" font-size="10.00">TEST_CASE_METHOD</text>
</a>
</g>
</g>
<!-- Node5&#45;&gt;Node6 -->
<g id="edge5" class="edge"><title>Node5&#45;&gt;Node6</title>
<path fill="none" stroke="midnightblue" d="M640.342,-23C648.329,-23 656.954,-23 665.531,-23"/>
<polygon fill="midnightblue" stroke="midnightblue" points="640.267,-19.5001 630.267,-23 640.267,-26.5001 640.267,-19.5001"/>
</g>
</g>
</svg>
