<?xml version="1.0" encoding="UTF-8" standalone="no"?>
<!DOCTYPE svg PUBLIC "-//W3C//DTD SVG 1.1//EN"
 "http://www.w3.org/Graphics/SVG/1.1/DTD/svg11.dtd">
<!-- Generated by graphviz version 2.36.0 (20140111.2315)
 -->
<!-- Title: CConfigurableDomain::getApplicationRule Pages: 1 -->
<svg width="632pt" height="104pt"
 viewBox="0.00 0.00 632.00 104.00" xmlns="http://www.w3.org/2000/svg" xmlns:xlink="http://www.w3.org/1999/xlink">
<g id="graph0" class="graph" transform="scale(1 1) rotate(0) translate(4 100)">
<title>CConfigurableDomain::getApplicationRule</title>
<polygon fill="white" stroke="none" points="-4,4 -4,-100 628,-100 628,4 -4,4"/>
<!-- Node1 -->
<g id="node1" class="node"><title>Node1</title>
<polygon fill="#bfbfbf" stroke="black" points="0.5,-33 0.5,-63 121.5,-63 121.5,-33 0.5,-33"/>
<text text-anchor="start" x="8.5" y="-51" font-family="Verdana" font-size="10.00">CConfigurableDomain</text>
<text text-anchor="middle" x="61" y="-40" font-family="Verdana" font-size="10.00">::getApplicationRule</text>
</g>
<!-- Node2 -->
<g id="node2" class="node"><title>Node2</title>
<g id="a_node2"><a xlink:href="classCDomainConfiguration.html#a0f9e4ae6ceadd57ec7d5e7a570939d38" target="_top" xlink:title="CDomainConfiguration\l::getApplicationRule">
<polygon fill="white" stroke="black" points="158.5,-33 158.5,-63 283.5,-63 283.5,-33 158.5,-33"/>
<text text-anchor="start" x="166.5" y="-51" font-family="Verdana" font-size="10.00">CDomainConfiguration</text>
<text text-anchor="middle" x="221" y="-40" font-family="Verdana" font-size="10.00">::getApplicationRule</text>
</a>
</g>
</g>
<!-- Node1&#45;&gt;Node2 -->
<g id="edge1" class="edge"><title>Node1&#45;&gt;Node2</title>
<path fill="none" stroke="midnightblue" d="M121.733,-48C130.338,-48 139.268,-48 148.079,-48"/>
<polygon fill="midnightblue" stroke="midnightblue" points="148.342,-51.5001 158.342,-48 148.342,-44.5001 148.342,-51.5001"/>
</g>
<!-- Node3 -->
<g id="node3" class="node"><title>Node3</title>
<g id="a_node3"><a xlink:href="classCCompoundRule.html#a4852b10618c0cf75059018ae60fb6eab" target="_top" xlink:title="CCompoundRule::dump">
<polygon fill="white" stroke="black" points="320.5,-38.5 320.5,-57.5 449.5,-57.5 449.5,-38.5 320.5,-38.5"/>
<text text-anchor="middle" x="385" y="-45.5" font-family="Verdana" font-size="10.00">CCompoundRule::dump</text>
</a>
</g>
</g>
<!-- Node2&#45;&gt;Node3 -->
<g id="edge2" class="edge"><title>Node2&#45;&gt;Node3</title>
<path fill="none" stroke="midnightblue" d="M283.707,-48C292.319,-48 301.24,-48 310.049,-48"/>
<polygon fill="midnightblue" stroke="midnightblue" points="310.313,-51.5001 320.313,-48 310.313,-44.5001 310.313,-51.5001"/>
</g>
<!-- Node4 -->
<g id="node4" class="node"><title>Node4</title>
<g id="a_node4"><a xlink:href="classCElement.html#a58b6cdb5715497442fde6afa1e65f8e5" target="_top" xlink:title="CElement::getNbChildren">
<polygon fill="white" stroke="black" points="486.5,-76.5 486.5,-95.5 623.5,-95.5 623.5,-76.5 486.5,-76.5"/>
<text text-anchor="middle" x="555" y="-83.5" font-family="Verdana" font-size="10.00">CElement::getNbChildren</text>
</a>
</g>
</g>
<!-- Node3&#45;&gt;Node4 -->
<g id="edge3" class="edge"><title>Node3&#45;&gt;Node4</title>
<path fill="none" stroke="midnightblue" d="M428.393,-57.589C450.763,-62.6487 478.398,-68.8996 502.047,-74.2488"/>
<polygon fill="midnightblue" stroke="midnightblue" points="501.386,-77.6875 511.911,-76.4799 502.93,-70.8599 501.386,-77.6875"/>
</g>
<!-- Node5 -->
<g id="node5" class="node"><title>Node5</title>
<g id="a_node5"><a xlink:href="classCElement.html#a9bba10d2dc72821589a898e16ace9ae5" target="_top" xlink:title="Get a child element (const) ">
<polygon fill="white" stroke="black" points="501,-38.5 501,-57.5 609,-57.5 609,-38.5 501,-38.5"/>
<text text-anchor="middle" x="555" y="-45.5" font-family="Verdana" font-size="10.00">CElement::getChild</text>
</a>
</g>
</g>
<!-- Node3&#45;&gt;Node5 -->
<g id="edge4" class="edge"><title>Node3&#45;&gt;Node5</title>
<path fill="none" stroke="midnightblue" d="M449.514,-48C462.99,-48 477.215,-48 490.684,-48"/>
<polygon fill="midnightblue" stroke="midnightblue" points="490.811,-51.5001 500.811,-48 490.811,-44.5001 490.811,-51.5001"/>
</g>
<!-- Node6 -->
<g id="node6" class="node"><title>Node6</title>
<g id="a_node6"><a xlink:href="classCRule.html#aa4a929f43c17c8b7b1992062f019f530" target="_top" xlink:title="CRule::dump">
<polygon fill="white" stroke="black" points="516.5,-0.5 516.5,-19.5 593.5,-19.5 593.5,-0.5 516.5,-0.5"/>
<text text-anchor="middle" x="555" y="-7.5" font-family="Verdana" font-size="10.00">CRule::dump</text>
</a>
</g>
</g>
<!-- Node3&#45;&gt;Node6 -->
<g id="edge5" class="edge"><title>Node3&#45;&gt;Node6</title>
<path fill="none" stroke="midnightblue" d="M428.393,-38.411C452.229,-33.0195 482.045,-26.2755 506.645,-20.7112"/>
<polygon fill="midnightblue" stroke="midnightblue" points="507.506,-24.1051 516.487,-18.4851 505.961,-17.2776 507.506,-24.1051"/>
</g>
</g>
</svg>
