<?xml version="1.0" encoding="UTF-8" standalone="no"?>
<!DOCTYPE svg PUBLIC "-//W3C//DTD SVG 1.1//EN"
 "http://www.w3.org/Graphics/SVG/1.1/DTD/svg11.dtd">
<!-- Generated by graphviz version 2.38.0 (20140413.2041)
 -->
<!-- Title: CTypeElement::populate Pages: 1 -->
<svg width="522pt" height="78pt"
 viewBox="0.00 0.00 522.00 77.50" xmlns="http://www.w3.org/2000/svg" xmlns:xlink="http://www.w3.org/1999/xlink">
<g id="graph0" class="graph" transform="scale(1 1) rotate(0) translate(4 73.5)">
<title>CTypeElement::populate</title>
<polygon fill="white" stroke="none" points="-4,4 -4,-73.5 518,-73.5 518,4 -4,4"/>
<!-- Node1 -->
<g id="node1" class="node"><title>Node1</title>
<polygon fill="#bfbfbf" stroke="black" points="0,-0.5 0,-19.5 132,-19.5 132,-0.5 0,-0.5"/>
<text text-anchor="middle" x="66" y="-7.5" font-family="Verdana" font-size="10.00">CTypeElement::populate</text>
</g>
<!-- Node2 -->
<g id="node2" class="node"><title>Node2</title>
<g id="a_node2"><a xlink:href="classCInstanceDefinition.html#aa29d3b10a23894522cfaa937cf385d10" target="_top" xlink:title="CInstanceDefinition\l::createInstances">
<polygon fill="white" stroke="black" points="184,-39 184,-69 293,-69 293,-39 184,-39"/>
<text text-anchor="start" x="192" y="-57" font-family="Verdana" font-size="10.00">CInstanceDefinition</text>
<text text-anchor="middle" x="238.5" y="-46" font-family="Verdana" font-size="10.00">::createInstances</text>
</a>
</g>
</g>
<!-- Node1&#45;&gt;Node2 -->
<g id="edge1" class="edge"><title>Node1&#45;&gt;Node2</title>
<path fill="none" stroke="midnightblue" d="M113.929,-22.1107C135.557,-27.6922 161.341,-34.346 183.747,-40.1281"/>
<polygon fill="midnightblue" stroke="midnightblue" points="114.553,-18.6572 103.996,-19.5473 112.804,-25.4352 114.553,-18.6572"/>
</g>
<!-- Node4 -->
<g id="node4" class="node"><title>Node4</title>
<g id="a_node4"><a xlink:href="classCTypeElement.html#a0fd0b5dfb3e3515ff5b54eda3d7e0a45" target="_top" xlink:title="CTypeElement::instantiate">
<polygon fill="white" stroke="black" points="168,-0.5 168,-19.5 309,-19.5 309,-0.5 168,-0.5"/>
<text text-anchor="middle" x="238.5" y="-7.5" font-family="Verdana" font-size="10.00">CTypeElement::instantiate</text>
</a>
</g>
</g>
<!-- Node1&#45;&gt;Node4 -->
<g id="edge3" class="edge"><title>Node1&#45;&gt;Node4</title>
<path fill="none" stroke="midnightblue" d="M142.639,-3.28828C151.077,-3.22081 159.642,-3.24253 167.997,-3.35342"/>
<polygon fill="midnightblue" stroke="midnightblue" points="142.388,0.208981 132.432,-3.41479 142.475,-6.79048 142.388,0.208981"/>
</g>
<!-- Node3 -->
<g id="node3" class="node"><title>Node3</title>
<g id="a_node3"><a xlink:href="classCSubsystem.html#a82e0dd2dd8f504c57e3b997f13dc7654" target="_top" xlink:title="Deserialize the structure from xml. ">
<polygon fill="white" stroke="black" points="345,-44.5 345,-63.5 514,-63.5 514,-44.5 345,-44.5"/>
<text text-anchor="middle" x="429.5" y="-51.5" font-family="Verdana" font-size="10.00">CSubsystem::structureFromXml</text>
</a>
</g>
</g>
<!-- Node2&#45;&gt;Node3 -->
<g id="edge2" class="edge"><title>Node2&#45;&gt;Node3</title>
<path fill="none" stroke="midnightblue" d="M303.543,-54C316.763,-54 330.874,-54 344.678,-54"/>
<polygon fill="midnightblue" stroke="midnightblue" points="303.154,-50.5001 293.154,-54 303.154,-57.5001 303.154,-50.5001"/>
</g>
<!-- Node4&#45;&gt;Node1 -->
<g id="edge4" class="edge"><title>Node4&#45;&gt;Node1</title>
<path fill="none" stroke="midnightblue" d="M157.724,-16.7376C149.254,-16.776 140.711,-16.7252 132.432,-16.5852"/>
<polygon fill="midnightblue" stroke="midnightblue" points="158.029,-20.2351 167.997,-16.6466 157.967,-13.2354 158.029,-20.2351"/>
</g>
</g>
</svg>
