<?xml version="1.0" encoding="UTF-8" standalone="no"?>
<!DOCTYPE svg PUBLIC "-//W3C//DTD SVG 1.1//EN"
 "http://www.w3.org/Graphics/SVG/1.1/DTD/svg11.dtd">
<!-- Generated by graphviz version 2.38.0 (20140413.2041)
 -->
<!-- Title: CInstanceConfigurableElement::sync Pages: 1 -->
<svg width="372pt" height="176pt"
 viewBox="0.00 0.00 372.00 176.00" xmlns="http://www.w3.org/2000/svg" xmlns:xlink="http://www.w3.org/1999/xlink">
<g id="graph0" class="graph" transform="scale(1 1) rotate(0) translate(4 172)">
<title>CInstanceConfigurableElement::sync</title>
<polygon fill="white" stroke="none" points="-4,4 -4,-172 368,-172 368,4 -4,4"/>
<!-- Node1 -->
<g id="node1" class="node"><title>Node1</title>
<polygon fill="#bfbfbf" stroke="black" points="0,-66.5 0,-96.5 164,-96.5 164,-66.5 0,-66.5"/>
<text text-anchor="start" x="8" y="-84.5" font-family="Verdana" font-size="10.00">CInstanceConfigurableElement</text>
<text text-anchor="middle" x="82" y="-73.5" font-family="Verdana" font-size="10.00">::sync</text>
</g>
<!-- Node2 -->
<g id="node2" class="node"><title>Node2</title>
<g id="a_node2"><a xlink:href="classCParameterAccessContext.html#ad073ad9ca128b5504f8a4a1d844c4e00" target="_top" xlink:title="CParameterAccessContext\l::getAutoSync">
<polygon fill="white" stroke="black" points="209.5,-137.5 209.5,-167.5 354.5,-167.5 354.5,-137.5 209.5,-137.5"/>
<text text-anchor="start" x="217.5" y="-155.5" font-family="Verdana" font-size="10.00">CParameterAccessContext</text>
<text text-anchor="middle" x="282" y="-144.5" font-family="Verdana" font-size="10.00">::getAutoSync</text>
</a>
</g>
</g>
<!-- Node1&#45;&gt;Node2 -->
<g id="edge1" class="edge"><title>Node1&#45;&gt;Node2</title>
<path fill="none" stroke="midnightblue" d="M118.001,-96.5623C141.081,-106.245 172.091,-118.784 200,-128.5 205.818,-130.525 211.907,-132.532 218.021,-134.472"/>
<polygon fill="midnightblue" stroke="midnightblue" points="217.027,-137.828 227.616,-137.458 219.108,-131.144 217.027,-137.828"/>
</g>
<!-- Node3 -->
<g id="node3" class="node"><title>Node3</title>
<g id="a_node3"><a xlink:href="classCInstanceConfigurableElement.html#accea1d3383fcde90fa9e3f002ed28365" target="_top" xlink:title="CInstanceConfigurableElement\l::getSyncer">
<polygon fill="white" stroke="black" points="200,-88.5 200,-118.5 364,-118.5 364,-88.5 200,-88.5"/>
<text text-anchor="start" x="208" y="-106.5" font-family="Verdana" font-size="10.00">CInstanceConfigurableElement</text>
<text text-anchor="middle" x="282" y="-95.5" font-family="Verdana" font-size="10.00">::getSyncer</text>
</a>
</g>
</g>
<!-- Node1&#45;&gt;Node3 -->
<g id="edge2" class="edge"><title>Node1&#45;&gt;Node3</title>
<path fill="none" stroke="midnightblue" d="M164.105,-90.5117C172.549,-91.4499 181.172,-92.4081 189.719,-93.3576"/>
<polygon fill="midnightblue" stroke="midnightblue" points="189.375,-96.8409 199.7,-94.4667 190.148,-89.8837 189.375,-96.8409"/>
</g>
<!-- Node4 -->
<g id="node4" class="node"><title>Node4</title>
<g id="a_node4"><a xlink:href="classISyncer.html#a16844aac52fb0caf4aed4f68d4b038d9" target="_top" xlink:title="ISyncer::sync">
<polygon fill="white" stroke="black" points="242,-50 242,-69 322,-69 322,-50 242,-50"/>
<text text-anchor="middle" x="282" y="-57" font-family="Verdana" font-size="10.00">ISyncer::sync</text>
</a>
</g>
</g>
<!-- Node1&#45;&gt;Node4 -->
<g id="edge3" class="edge"><title>Node1&#45;&gt;Node4</title>
<path fill="none" stroke="midnightblue" d="M164.105,-72.4883C187.037,-69.9403 211.294,-67.2451 231.732,-64.9743"/>
<polygon fill="midnightblue" stroke="midnightblue" points="232.186,-68.4454 241.738,-63.8624 231.413,-61.4882 232.186,-68.4454"/>
</g>
<!-- Node5 -->
<g id="node5" class="node"><title>Node5</title>
<g id="a_node5"><a xlink:href="classCParameterAccessContext.html#ad354dd5bf2a88f4ed4197be9a59fda20" target="_top" xlink:title="CParameterAccessContext\l::getParameterBlackboard">
<polygon fill="white" stroke="black" points="209.5,-0.5 209.5,-30.5 354.5,-30.5 354.5,-0.5 209.5,-0.5"/>
<text text-anchor="start" x="217.5" y="-18.5" font-family="Verdana" font-size="10.00">CParameterAccessContext</text>
<text text-anchor="middle" x="282" y="-7.5" font-family="Verdana" font-size="10.00">::getParameterBlackboard</text>
</a>
</g>
</g>
<!-- Node1&#45;&gt;Node5 -->
<g id="edge4" class="edge"><title>Node1&#45;&gt;Node5</title>
<path fill="none" stroke="midnightblue" d="M124.837,-66.4095C147.091,-58.4917 174.957,-48.7492 200,-40.5 206.919,-38.2208 214.191,-35.8883 221.42,-33.6083"/>
<polygon fill="midnightblue" stroke="midnightblue" points="222.718,-36.8697 231.215,-30.5418 220.626,-30.1895 222.718,-36.8697"/>
</g>
</g>
</svg>
