<?xml version="1.0" encoding="UTF-8" standalone="no"?>
<!DOCTYPE svg PUBLIC "-//W3C//DTD SVG 1.1//EN"
 "http://www.w3.org/Graphics/SVG/1.1/DTD/svg11.dtd">
<!-- Generated by graphviz version 2.36.0 (20140111.2315)
 -->
<!-- Title: CRequestMessageGenerator::next Pages: 1 -->
<svg width="374pt" height="66pt"
 viewBox="0.00 0.00 374.00 66.00" xmlns="http://www.w3.org/2000/svg" xmlns:xlink="http://www.w3.org/1999/xlink">
<g id="graph0" class="graph" transform="scale(1 1) rotate(0) translate(4 62)">
<title>CRequestMessageGenerator::next</title>
<polygon fill="white" stroke="none" points="-4,4 -4,-62 370,-62 370,4 -4,4"/>
<!-- Node1 -->
<g id="node1" class="node"><title>Node1</title>
<polygon fill="#bfbfbf" stroke="black" points="0.5,-14 0.5,-44 153.5,-44 153.5,-14 0.5,-14"/>
<text text-anchor="start" x="8.5" y="-32" font-family="Verdana" font-size="10.00">CRequestMessageGenerator</text>
<text text-anchor="middle" x="77" y="-21" font-family="Verdana" font-size="10.00">::next</text>
</g>
<!-- Node2 -->
<g id="node2" class="node"><title>Node2</title>
<g id="a_node2"><a xlink:href="classCRequestMessage.html#a399c6f1c96ed942b4632841e20a28555" target="_top" xlink:title="CRequestMessage::setCommand">
<polygon fill="white" stroke="black" points="190,-38.5 190,-57.5 366,-57.5 366,-38.5 190,-38.5"/>
<text text-anchor="middle" x="278" y="-45.5" font-family="Verdana" font-size="10.00">CRequestMessage::setCommand</text>
</a>
</g>
</g>
<!-- Node1&#45;&gt;Node2 -->
<g id="edge1" class="edge"><title>Node1&#45;&gt;Node2</title>
<path fill="none" stroke="midnightblue" d="M153.517,-36.2102C162.145,-37.0339 171.029,-37.8821 179.887,-38.7279"/>
<polygon fill="midnightblue" stroke="midnightblue" points="179.575,-42.214 189.863,-39.6804 180.241,-35.2457 179.575,-42.214"/>
</g>
<!-- Node3 -->
<g id="node3" class="node"><title>Node3</title>
<g id="a_node3"><a xlink:href="classCRequestMessage.html#acabef458b313a1e9a9c1c31239c0cbd3" target="_top" xlink:title="CRequestMessage::addArgument">
<polygon fill="white" stroke="black" points="190,-0.5 190,-19.5 366,-19.5 366,-0.5 190,-0.5"/>
<text text-anchor="middle" x="278" y="-7.5" font-family="Verdana" font-size="10.00">CRequestMessage::addArgument</text>
</a>
</g>
</g>
<!-- Node1&#45;&gt;Node3 -->
<g id="edge2" class="edge"><title>Node1&#45;&gt;Node3</title>
<path fill="none" stroke="midnightblue" d="M153.517,-21.7898C162.145,-20.9661 171.029,-20.1179 179.887,-19.2721"/>
<polygon fill="midnightblue" stroke="midnightblue" points="180.241,-22.7543 189.863,-18.3196 179.575,-15.786 180.241,-22.7543"/>
</g>
</g>
</svg>
