<?xml version="1.0" encoding="UTF-8" standalone="no"?>
<!DOCTYPE svg PUBLIC "-//W3C//DTD SVG 1.1//EN"
 "http://www.w3.org/Graphics/SVG/1.1/DTD/svg11.dtd">
<!-- Generated by graphviz version 2.38.0 (20140413.2041)
 -->
<!-- Title: CAreaConfiguration::validate Pages: 1 -->
<svg width="1289pt" height="137pt"
 viewBox="0.00 0.00 1289.00 137.00" xmlns="http://www.w3.org/2000/svg" xmlns:xlink="http://www.w3.org/1999/xlink">
<g id="graph0" class="graph" transform="scale(1 1) rotate(0) translate(4 133)">
<title>CAreaConfiguration::validate</title>
<polygon fill="white" stroke="none" points="-4,4 -4,-133 1285,-133 1285,4 -4,4"/>
<!-- Node1 -->
<g id="node1" class="node"><title>Node1</title>
<polygon fill="#bfbfbf" stroke="black" points="0,-27.5 0,-57.5 110,-57.5 110,-27.5 0,-27.5"/>
<text text-anchor="start" x="8" y="-45.5" font-family="Verdana" font-size="10.00">CAreaConfiguration</text>
<text text-anchor="middle" x="55" y="-34.5" font-family="Verdana" font-size="10.00">::validate</text>
</g>
<!-- Node2 -->
<g id="node2" class="node"><title>Node2</title>
<g id="a_node2"><a xlink:href="classCDomainConfiguration.html#a10c3a1e0899400ecd23a90fb7dc4e4e6" target="_top" xlink:title="CDomainConfiguration\l::validate">
<polygon fill="white" stroke="black" points="146,-27.5 146,-57.5 271,-57.5 271,-27.5 146,-27.5"/>
<text text-anchor="start" x="154" y="-45.5" font-family="Verdana" font-size="10.00">CDomainConfiguration</text>
<text text-anchor="middle" x="208.5" y="-34.5" font-family="Verdana" font-size="10.00">::validate</text>
</a>
</g>
</g>
<!-- Node1&#45;&gt;Node2 -->
<g id="edge1" class="edge"><title>Node1&#45;&gt;Node2</title>
<path fill="none" stroke="midnightblue" d="M120.434,-42.5C128.87,-42.5 137.498,-42.5 145.886,-42.5"/>
<polygon fill="midnightblue" stroke="midnightblue" points="120.267,-39.0001 110.267,-42.5 120.267,-46.0001 120.267,-39.0001"/>
</g>
<!-- Node3 -->
<g id="node3" class="node"><title>Node3</title>
<g id="a_node3"><a xlink:href="classCConfigurableDomain.html#a2df6f85b21fa2ccbecc4a1c6d01ae2ed" target="_top" xlink:title="CConfigurableDomain\l::validate">
<polygon fill="white" stroke="black" points="307,-27.5 307,-57.5 428,-57.5 428,-27.5 307,-27.5"/>
<text text-anchor="start" x="315" y="-45.5" font-family="Verdana" font-size="10.00">CConfigurableDomain</text>
<text text-anchor="middle" x="367.5" y="-34.5" font-family="Verdana" font-size="10.00">::validate</text>
</a>
</g>
</g>
<!-- Node2&#45;&gt;Node3 -->
<g id="edge2" class="edge"><title>Node2&#45;&gt;Node3</title>
<path fill="none" stroke="midnightblue" d="M281.131,-42.5C289.742,-42.5 298.463,-42.5 306.877,-42.5"/>
<polygon fill="midnightblue" stroke="midnightblue" points="281.1,-39.0001 271.1,-42.5 281.1,-46.0001 281.1,-39.0001"/>
</g>
<!-- Node4 -->
<g id="node4" class="node"><title>Node4</title>
<g id="a_node4"><a xlink:href="classCConfigurableDomains.html#a6fd812eea1fd18c0d4fa14ec33b57fd5" target="_top" xlink:title="CConfigurableDomains\l::validate">
<polygon fill="white" stroke="black" points="464,-27.5 464,-57.5 590,-57.5 590,-27.5 464,-27.5"/>
<text text-anchor="start" x="472" y="-45.5" font-family="Verdana" font-size="10.00">CConfigurableDomains</text>
<text text-anchor="middle" x="527" y="-34.5" font-family="Verdana" font-size="10.00">::validate</text>
</a>
</g>
</g>
<!-- Node3&#45;&gt;Node4 -->
<g id="edge3" class="edge"><title>Node3&#45;&gt;Node4</title>
<path fill="none" stroke="midnightblue" d="M438.29,-42.5C446.769,-42.5 455.389,-42.5 463.748,-42.5"/>
<polygon fill="midnightblue" stroke="midnightblue" points="438.044,-39.0001 428.044,-42.5 438.044,-46.0001 438.044,-39.0001"/>
</g>
<!-- Node5 -->
<g id="node5" class="node"><title>Node5</title>
<g id="a_node5"><a xlink:href="classCParameterMgr.html#aad4830a40d67cfae091cbf1a15ff29d0" target="_top" xlink:title="Load plugins, structures and settings from the config file given. ">
<polygon fill="white" stroke="black" points="662,-55 662,-74 780,-74 780,-55 662,-55"/>
<text text-anchor="middle" x="721" y="-62" font-family="Verdana" font-size="10.00">CParameterMgr::load</text>
</a>
</g>
</g>
<!-- Node4&#45;&gt;Node5 -->
<g id="edge4" class="edge"><title>Node4&#45;&gt;Node5</title>
<path fill="none" stroke="midnightblue" d="M600.216,-50.7747C620.523,-53.1016 642.346,-55.6022 661.729,-57.8231"/>
<polygon fill="midnightblue" stroke="midnightblue" points="600.405,-47.2736 590.072,-49.6124 599.608,-54.2281 600.405,-47.2736"/>
</g>
<!-- Node10 -->
<g id="node10" class="node"><title>Node10</title>
<g id="a_node10"><a xlink:href="classCParameterMgr.html#ac2a3211a14a825e94e0090a9ad0e4c57" target="_top" xlink:title="Method that imports Configurable Domains from an Xml source. ">
<polygon fill="white" stroke="black" points="626,-12 626,-31 816,-31 816,-12 626,-12"/>
<text text-anchor="middle" x="721" y="-19" font-family="Verdana" font-size="10.00">CParameterMgr::importDomainsXml</text>
</a>
</g>
</g>
<!-- Node4&#45;&gt;Node10 -->
<g id="edge9" class="edge"><title>Node4&#45;&gt;Node10</title>
<path fill="none" stroke="midnightblue" d="M600.189,-34.6043C610.897,-33.4332 622.026,-32.216 632.996,-31.016"/>
<polygon fill="midnightblue" stroke="midnightblue" points="599.632,-31.1443 590.072,-35.7109 600.393,-38.1028 599.632,-31.1443"/>
</g>
<!-- Node6 -->
<g id="node6" class="node"><title>Node6</title>
<g id="a_node6"><a xlink:href="classCParameterMgrFullConnector.html#a60cb4e00e70c6a7b700e464d0de084ff" target="_top" xlink:title="CParameterMgrFullConnector\l::start">
<polygon fill="white" stroke="black" points="865,-98.5 865,-128.5 1021,-128.5 1021,-98.5 865,-98.5"/>
<text text-anchor="start" x="873" y="-116.5" font-family="Verdana" font-size="10.00">CParameterMgrFullConnector</text>
<text text-anchor="middle" x="943" y="-105.5" font-family="Verdana" font-size="10.00">::start</text>
</a>
</g>
</g>
<!-- Node5&#45;&gt;Node6 -->
<g id="edge5" class="edge"><title>Node5&#45;&gt;Node6</title>
<path fill="none" stroke="midnightblue" d="M774.501,-76.1934C804.412,-82.8554 842.214,-91.2749 874.333,-98.4287"/>
<polygon fill="midnightblue" stroke="midnightblue" points="775.201,-72.7636 764.679,-74.0058 773.679,-79.5962 775.201,-72.7636"/>
</g>
<!-- Node7 -->
<g id="node7" class="node"><title>Node7</title>
<g id="a_node7"><a xlink:href="classCParameterMgrPlatformConnector.html#a04060080b3be8780e4a7d0211fd95da7" target="_top" xlink:title="CParameterMgrPlatformConnector\l::start">
<polygon fill="white" stroke="black" points="852,-49.5 852,-79.5 1034,-79.5 1034,-49.5 852,-49.5"/>
<text text-anchor="start" x="860" y="-67.5" font-family="Verdana" font-size="10.00">CParameterMgrPlatformConnector</text>
<text text-anchor="middle" x="943" y="-56.5" font-family="Verdana" font-size="10.00">::start</text>
</a>
</g>
</g>
<!-- Node5&#45;&gt;Node7 -->
<g id="edge6" class="edge"><title>Node5&#45;&gt;Node7</title>
<path fill="none" stroke="midnightblue" d="M790.328,-64.5C809.713,-64.5 831.123,-64.5 851.597,-64.5"/>
<polygon fill="midnightblue" stroke="midnightblue" points="790.09,-61.0001 780.09,-64.5 790.09,-68.0001 790.09,-61.0001"/>
</g>
<!-- Node8 -->
<g id="node8" class="node"><title>Node8</title>
<g id="a_node8"><a xlink:href="ParameterFramework_8cpp.html#a44326e09ebb9719ecb017d1d67832b6f" target="_top" xlink:title="pfwStart">
<polygon fill="white" stroke="black" points="1070,-55 1070,-74 1126,-74 1126,-55 1070,-55"/>
<text text-anchor="middle" x="1098" y="-62" font-family="Verdana" font-size="10.00">pfwStart</text>
</a>
</g>
</g>
<!-- Node7&#45;&gt;Node8 -->
<g id="edge7" class="edge"><title>Node7&#45;&gt;Node8</title>
<path fill="none" stroke="midnightblue" d="M1044.49,-64.5C1053.7,-64.5 1062.4,-64.5 1069.96,-64.5"/>
<polygon fill="midnightblue" stroke="midnightblue" points="1044.33,-61.0001 1034.33,-64.5 1044.33,-68.0001 1044.33,-61.0001"/>
</g>
<!-- Node9 -->
<g id="node9" class="node"><title>Node9</title>
<g id="a_node9"><a xlink:href="Test_8cpp.html#ae78f4780e83e5f2b9721a2d66c70fec9" target="_top" xlink:title="TEST_CASE_METHOD">
<polygon fill="white" stroke="black" points="1162,-55 1162,-74 1281,-74 1281,-55 1162,-55"/>
<text text-anchor="middle" x="1221.5" y="-62" font-family="Verdana" font-size="10.00">TEST_CASE_METHOD</text>
</a>
</g>
</g>
<!-- Node8&#45;&gt;Node9 -->
<g id="edge8" class="edge"><title>Node8&#45;&gt;Node9</title>
<path fill="none" stroke="midnightblue" d="M1136.34,-64.5C1144.33,-64.5 1152.95,-64.5 1161.53,-64.5"/>
<polygon fill="midnightblue" stroke="midnightblue" points="1136.27,-61.0001 1126.27,-64.5 1136.27,-68.0001 1136.27,-61.0001"/>
</g>
<!-- Node11 -->
<g id="node11" class="node"><title>Node11</title>
<g id="a_node11"><a xlink:href="classCParameterMgrFullConnector.html#aabfcc64867c0d79840b5fdfd6efaf4fa" target="_top" xlink:title="Method that imports Configurable Domains from an Xml source. ">
<polygon fill="white" stroke="black" points="865,-0.5 865,-30.5 1021,-30.5 1021,-0.5 865,-0.5"/>
<text text-anchor="start" x="873" y="-18.5" font-family="Verdana" font-size="10.00">CParameterMgrFullConnector</text>
<text text-anchor="middle" x="943" y="-7.5" font-family="Verdana" font-size="10.00">::importDomainsXml</text>
</a>
</g>
</g>
<!-- Node10&#45;&gt;Node11 -->
<g id="edge10" class="edge"><title>Node10&#45;&gt;Node11</title>
<path fill="none" stroke="midnightblue" d="M826.564,-18.6482C839.46,-18.2966 852.455,-17.9421 864.839,-17.6044"/>
<polygon fill="midnightblue" stroke="midnightblue" points="826.158,-15.1579 816.257,-18.9293 826.349,-22.1553 826.158,-15.1579"/>
</g>
</g>
</svg>
