<?xml version="1.0" encoding="UTF-8" standalone="no"?>
<!DOCTYPE svg PUBLIC "-//W3C//DTD SVG 1.1//EN"
 "http://www.w3.org/Graphics/SVG/1.1/DTD/svg11.dtd">
<!-- Generated by graphviz version 2.38.0 (20140413.2041)
 -->
<!-- Title: Tokenizer::split Pages: 1 -->
<svg width="464pt" height="97pt"
 viewBox="0.00 0.00 464.00 96.50" xmlns="http://www.w3.org/2000/svg" xmlns:xlink="http://www.w3.org/1999/xlink">
<g id="graph0" class="graph" transform="scale(1 1) rotate(0) translate(4 92.5)">
<title>Tokenizer::split</title>
<polygon fill="white" stroke="none" points="-4,4 -4,-92.5 460,-92.5 460,4 -4,4"/>
<!-- Node1 -->
<g id="node1" class="node"><title>Node1</title>
<polygon fill="#bfbfbf" stroke="black" points="0,-28 0,-47 86,-47 86,-28 0,-28"/>
<text text-anchor="middle" x="43" y="-35" font-family="Verdana" font-size="10.00">Tokenizer::split</text>
</g>
<!-- Node2 -->
<g id="node2" class="node"><title>Node2</title>
<g id="a_node2"><a xlink:href="classCMappingData.html#ae5e7e90a449524a2a623fdc4a0a670f8" target="_top" xlink:title="Initialize mapping data through a raw value. ">
<polygon fill="white" stroke="black" points="133,-50 133,-69 240,-69 240,-50 133,-50"/>
<text text-anchor="middle" x="186.5" y="-57" font-family="Verdana" font-size="10.00">CMappingData::init</text>
</a>
</g>
</g>
<!-- Node1&#45;&gt;Node2 -->
<g id="edge1" class="edge"><title>Node1&#45;&gt;Node2</title>
<path fill="none" stroke="midnightblue" d="M96.3058,-45.6323C108.214,-47.4837 120.871,-49.4516 132.795,-51.3056"/>
<polygon fill="midnightblue" stroke="midnightblue" points="96.4906,-42.1191 86.0716,-44.0412 95.4151,-49.036 96.4906,-42.1191"/>
</g>
<!-- Node5 -->
<g id="node5" class="node"><title>Node5</title>
<g id="a_node5"><a xlink:href="classCSelectionCriterionType.html#a2a6d06e7091b04b993688b329f759345" target="_top" xlink:title="Retrieve the numerical value from the std::string representation of the criterion type...">
<polygon fill="white" stroke="black" points="122,-0.5 122,-30.5 251,-30.5 251,-0.5 122,-0.5"/>
<text text-anchor="start" x="130" y="-18.5" font-family="Verdana" font-size="10.00">CSelectionCriterionType</text>
<text text-anchor="middle" x="186.5" y="-7.5" font-family="Verdana" font-size="10.00">::getNumericalValue</text>
</a>
</g>
</g>
<!-- Node1&#45;&gt;Node5 -->
<g id="edge4" class="edge"><title>Node1&#45;&gt;Node5</title>
<path fill="none" stroke="midnightblue" d="M96.0773,-29.4032C104.462,-28.0995 113.224,-26.7373 121.843,-25.3971"/>
<polygon fill="midnightblue" stroke="midnightblue" points="95.4151,-25.964 86.0716,-30.9588 96.4906,-32.8809 95.4151,-25.964"/>
</g>
<!-- Node3 -->
<g id="node3" class="node"><title>Node3</title>
<g id="a_node3"><a xlink:href="classCSubsystem.html#ab9e7934e8526dcaaf0b037e72b4e6b7e" target="_top" xlink:title="Deserialize the structure from xml. ">
<polygon fill="white" stroke="black" points="287,-69 287,-88 456,-88 456,-69 287,-69"/>
<text text-anchor="middle" x="371.5" y="-76" font-family="Verdana" font-size="10.00">CSubsystem::structureFromXml</text>
</a>
</g>
</g>
<!-- Node2&#45;&gt;Node3 -->
<g id="edge2" class="edge"><title>Node2&#45;&gt;Node3</title>
<path fill="none" stroke="midnightblue" d="M250.481,-66.039C262.143,-67.2498 274.492,-68.532 286.659,-69.7952"/>
<polygon fill="midnightblue" stroke="midnightblue" points="250.739,-62.5471 240.431,-64.9956 250.016,-69.5097 250.739,-62.5471"/>
</g>
<!-- Node4 -->
<g id="node4" class="node"><title>Node4</title>
<g id="a_node4"><a xlink:href="classCTypeElement.html#a2d660b223be2b8d54db52d166b5ca04b" target="_top" xlink:title="CTypeElement::fromXml">
<polygon fill="white" stroke="black" points="306,-31 306,-50 437,-50 437,-31 306,-31"/>
<text text-anchor="middle" x="371.5" y="-38" font-family="Verdana" font-size="10.00">CTypeElement::fromXml</text>
</a>
</g>
</g>
<!-- Node2&#45;&gt;Node4 -->
<g id="edge3" class="edge"><title>Node2&#45;&gt;Node4</title>
<path fill="none" stroke="midnightblue" d="M250.688,-52.9395C268.457,-51.0947 287.806,-49.0857 305.669,-47.2311"/>
<polygon fill="midnightblue" stroke="midnightblue" points="250.016,-49.4903 240.431,-54.0044 250.739,-56.4529 250.016,-49.4903"/>
</g>
</g>
</svg>
