<?xml version="1.0" encoding="UTF-8" standalone="no"?>
<!DOCTYPE svg PUBLIC "-//W3C//DTD SVG 1.1//EN"
 "http://www.w3.org/Graphics/SVG/1.1/DTD/svg11.dtd">
<!-- Generated by graphviz version 2.36.0 (20140111.2315)
 -->
<!-- Title: CConfigurableDomain::apply Pages: 1 -->
<svg width="714pt" height="132pt"
 viewBox="0.00 0.00 714.00 132.00" xmlns="http://www.w3.org/2000/svg" xmlns:xlink="http://www.w3.org/1999/xlink">
<g id="graph0" class="graph" transform="scale(1 1) rotate(0) translate(4 128)">
<title>CConfigurableDomain::apply</title>
<polygon fill="white" stroke="none" points="-4,4 -4,-128 710,-128 710,4 -4,4"/>
<!-- Node1 -->
<g id="node1" class="node"><title>Node1</title>
<polygon fill="#bfbfbf" stroke="black" points="0.5,-61 0.5,-91 121.5,-91 121.5,-61 0.5,-61"/>
<text text-anchor="start" x="8.5" y="-79" font-family="Verdana" font-size="10.00">CConfigurableDomain</text>
<text text-anchor="middle" x="61" y="-68" font-family="Verdana" font-size="10.00">::apply</text>
</g>
<!-- Node2 -->
<g id="node2" class="node"><title>Node2</title>
<g id="a_node2"><a xlink:href="classCElement.html#a1dee87366d307b43bf8851dd2614c160" target="_top" xlink:title="CElement::log_info">
<polygon fill="white" stroke="black" points="168,-104.5 168,-123.5 274,-123.5 274,-104.5 168,-104.5"/>
<text text-anchor="middle" x="221" y="-111.5" font-family="Verdana" font-size="10.00">CElement::log_info</text>
</a>
</g>
</g>
<!-- Node1&#45;&gt;Node2 -->
<g id="edge1" class="edge"><title>Node1&#45;&gt;Node2</title>
<path fill="none" stroke="midnightblue" d="M121.733,-90.3662C137.791,-94.2281 154.979,-98.3621 170.419,-102.075"/>
<polygon fill="midnightblue" stroke="midnightblue" points="169.742,-105.512 180.283,-104.448 171.379,-98.7064 169.742,-105.512"/>
</g>
<!-- Node3 -->
<g id="node3" class="node"><title>Node3</title>
<g id="a_node3"><a xlink:href="classCElement.html#a49581fb6412e29e932962acd82d52d6a" target="_top" xlink:title="CElement::getName">
<polygon fill="white" stroke="black" points="164,-66.5 164,-85.5 278,-85.5 278,-66.5 164,-66.5"/>
<text text-anchor="middle" x="221" y="-73.5" font-family="Verdana" font-size="10.00">CElement::getName</text>
</a>
</g>
</g>
<!-- Node1&#45;&gt;Node3 -->
<g id="edge2" class="edge"><title>Node1&#45;&gt;Node3</title>
<path fill="none" stroke="midnightblue" d="M121.733,-76C132.196,-76 143.14,-76 153.767,-76"/>
<polygon fill="midnightblue" stroke="midnightblue" points="153.833,-79.5001 163.833,-76 153.833,-72.5001 153.833,-79.5001"/>
</g>
<!-- Node4 -->
<g id="node4" class="node"><title>Node4</title>
<g id="a_node4"><a xlink:href="classCDomainConfiguration.html#a1e837621d00a5ed2282c525c25a484e7" target="_top" xlink:title="CDomainConfiguration\l::restore">
<polygon fill="white" stroke="black" points="158.5,-17 158.5,-47 283.5,-47 283.5,-17 158.5,-17"/>
<text text-anchor="start" x="166.5" y="-35" font-family="Verdana" font-size="10.00">CDomainConfiguration</text>
<text text-anchor="middle" x="221" y="-24" font-family="Verdana" font-size="10.00">::restore</text>
</a>
</g>
</g>
<!-- Node1&#45;&gt;Node4 -->
<g id="edge3" class="edge"><title>Node1&#45;&gt;Node4</title>
<path fill="none" stroke="midnightblue" d="M115.933,-60.9808C128.953,-57.3548 142.987,-53.4466 156.405,-49.7101"/>
<polygon fill="midnightblue" stroke="midnightblue" points="157.348,-53.0807 166.042,-47.0262 155.47,-46.3373 157.348,-53.0807"/>
</g>
<!-- Node5 -->
<g id="node5" class="node"><title>Node5</title>
<g id="a_node5"><a xlink:href="classCAreaConfiguration.html#a5f72a0349e2309a77459650ba10918a1" target="_top" xlink:title="CAreaConfiguration\l::restore">
<polygon fill="white" stroke="black" points="320,-17 320,-47 430,-47 430,-17 320,-17"/>
<text text-anchor="start" x="328" y="-35" font-family="Verdana" font-size="10.00">CAreaConfiguration</text>
<text text-anchor="middle" x="375" y="-24" font-family="Verdana" font-size="10.00">::restore</text>
</a>
</g>
</g>
<!-- Node4&#45;&gt;Node5 -->
<g id="edge4" class="edge"><title>Node4&#45;&gt;Node5</title>
<path fill="none" stroke="midnightblue" d="M283.824,-32C292.239,-32 300.893,-32 309.356,-32"/>
<polygon fill="midnightblue" stroke="midnightblue" points="309.554,-35.5001 319.554,-32 309.554,-28.5001 309.554,-35.5001"/>
</g>
<!-- Node6 -->
<g id="node6" class="node"><title>Node6</title>
<g id="a_node6"><a xlink:href="classCConfigurableElement.html#a29d61e6d09ff508ebb87aea802f2704e" target="_top" xlink:title="CConfigurableElement\l::getOffset">
<polygon fill="white" stroke="black" points="466.5,-39 466.5,-69 589.5,-69 589.5,-39 466.5,-39"/>
<text text-anchor="start" x="474.5" y="-57" font-family="Verdana" font-size="10.00">CConfigurableElement</text>
<text text-anchor="middle" x="528" y="-46" font-family="Verdana" font-size="10.00">::getOffset</text>
</a>
</g>
</g>
<!-- Node5&#45;&gt;Node6 -->
<g id="edge5" class="edge"><title>Node5&#45;&gt;Node6</title>
<path fill="none" stroke="midnightblue" d="M430.088,-39.8804C438.634,-41.1255 447.58,-42.4289 456.434,-43.7189"/>
<polygon fill="midnightblue" stroke="midnightblue" points="455.967,-47.1876 466.367,-45.166 456.976,-40.2608 455.967,-47.1876"/>
</g>
<!-- Node7 -->
<g id="node7" class="node"><title>Node7</title>
<g id="a_node7"><a xlink:href="classCSyncerSet.html#a6ee2b3a5edcccc64b8694df736312e4b" target="_top" xlink:title="CSyncerSet::sync">
<polygon fill="white" stroke="black" points="477.5,-0.5 477.5,-19.5 578.5,-19.5 578.5,-0.5 477.5,-0.5"/>
<text text-anchor="middle" x="528" y="-7.5" font-family="Verdana" font-size="10.00">CSyncerSet::sync</text>
</a>
</g>
</g>
<!-- Node5&#45;&gt;Node7 -->
<g id="edge6" class="edge"><title>Node5&#45;&gt;Node7</title>
<path fill="none" stroke="midnightblue" d="M430.088,-24.1196C442.121,-22.3665 454.944,-20.4982 467.191,-18.7138"/>
<polygon fill="midnightblue" stroke="midnightblue" points="467.923,-22.1443 477.313,-17.2391 466.913,-15.2175 467.923,-22.1443"/>
</g>
<!-- Node8 -->
<g id="node8" class="node"><title>Node8</title>
<g id="a_node8"><a xlink:href="classISyncer.html#a16844aac52fb0caf4aed4f68d4b038d9" target="_top" xlink:title="ISyncer::sync">
<polygon fill="white" stroke="black" points="626,-0.5 626,-19.5 706,-19.5 706,-0.5 626,-0.5"/>
<text text-anchor="middle" x="666" y="-7.5" font-family="Verdana" font-size="10.00">ISyncer::sync</text>
</a>
</g>
</g>
<!-- Node7&#45;&gt;Node8 -->
<g id="edge7" class="edge"><title>Node7&#45;&gt;Node8</title>
<path fill="none" stroke="midnightblue" d="M578.869,-10C590.83,-10 603.599,-10 615.542,-10"/>
<polygon fill="midnightblue" stroke="midnightblue" points="615.783,-13.5001 625.783,-10 615.783,-6.5001 615.783,-13.5001"/>
</g>
</g>
</svg>
