<?xml version="1.0" encoding="UTF-8" standalone="no"?>
<!DOCTYPE svg PUBLIC "-//W3C//DTD SVG 1.1//EN"
 "http://www.w3.org/Graphics/SVG/1.1/DTD/svg11.dtd">
<!-- Generated by graphviz version 2.38.0 (20140413.2041)
 -->
<!-- Title: CInstanceConfigurableElement::getTypeElement Pages: 1 -->
<svg width="599pt" height="688pt"
 viewBox="0.00 0.00 599.00 688.00" xmlns="http://www.w3.org/2000/svg" xmlns:xlink="http://www.w3.org/1999/xlink">
<g id="graph0" class="graph" transform="scale(1 1) rotate(0) translate(4 684)">
<title>CInstanceConfigurableElement::getTypeElement</title>
<polygon fill="white" stroke="none" points="-4,4 -4,-684 595,-684 595,4 -4,4"/>
<!-- Node1 -->
<g id="node1" class="node"><title>Node1</title>
<polygon fill="#bfbfbf" stroke="black" points="0,-321.5 0,-351.5 164,-351.5 164,-321.5 0,-321.5"/>
<text text-anchor="start" x="8" y="-339.5" font-family="Verdana" font-size="10.00">CInstanceConfigurableElement</text>
<text text-anchor="middle" x="82" y="-328.5" font-family="Verdana" font-size="10.00">::getTypeElement</text>
</g>
<!-- Node2 -->
<g id="node2" class="node"><title>Node2</title>
<g id="a_node2"><a xlink:href="classCArrayParameter.html#a92c36813ec9f475880d47409c01e52db" target="_top" xlink:title="CArrayParameter::setDefault\lValues">
<polygon fill="white" stroke="black" points="431.5,-252.5 431.5,-282.5 586.5,-282.5 586.5,-252.5 431.5,-252.5"/>
<text text-anchor="start" x="439.5" y="-270.5" font-family="Verdana" font-size="10.00">CArrayParameter::setDefault</text>
<text text-anchor="middle" x="509" y="-259.5" font-family="Verdana" font-size="10.00">Values</text>
</a>
</g>
</g>
<!-- Node1&#45;&gt;Node2 -->
<g id="edge1" class="edge"><title>Node1&#45;&gt;Node2</title>
<path fill="none" stroke="midnightblue" d="M101.095,-313.727C121.948,-289.502 158.697,-252.63 200,-237.5 279.709,-208.302 306.779,-226.874 391,-237.5 414.301,-240.44 439.608,-246.549 460.706,-252.493"/>
<polygon fill="midnightblue" stroke="midnightblue" points="98.3969,-311.498 94.6494,-321.408 103.759,-315.998 98.3969,-311.498"/>
</g>
<!-- Node3 -->
<g id="node3" class="node"><title>Node3</title>
<g id="a_node3"><a xlink:href="classCBaseParameter.html#a42621ccce8ce4235e124789c7f2a9b8a" target="_top" xlink:title="Serialize the structure to xml. ">
<polygon fill="white" stroke="black" points="222,-576.5 222,-606.5 369,-606.5 369,-576.5 222,-576.5"/>
<text text-anchor="start" x="230" y="-594.5" font-family="Verdana" font-size="10.00">CBaseParameter::structure</text>
<text text-anchor="middle" x="295.5" y="-583.5" font-family="Verdana" font-size="10.00">ToXml</text>
</a>
</g>
</g>
<!-- Node1&#45;&gt;Node3 -->
<g id="edge2" class="edge"><title>Node1&#45;&gt;Node3</title>
<path fill="none" stroke="midnightblue" d="M88.4801,-361.285C100.268,-408.633 132.606,-512.065 200,-566.5 206.469,-571.725 213.924,-575.866 221.75,-579.146"/>
<polygon fill="midnightblue" stroke="midnightblue" points="91.882,-360.462 86.1518,-351.55 85.074,-362.09 91.882,-360.462"/>
</g>
<!-- Node4 -->
<g id="node4" class="node"><title>Node4</title>
<g id="a_node4"><a xlink:href="classCBitParameter.html#a830225eeed4e53e72bcd04bb62a2e8fb" target="_top" xlink:title="Value access. ">
<polygon fill="white" stroke="black" points="233,-538 233,-557 358,-557 358,-538 233,-538"/>
<text text-anchor="middle" x="295.5" y="-545" font-family="Verdana" font-size="10.00">CBitParameter::access</text>
</a>
</g>
</g>
<!-- Node1&#45;&gt;Node4 -->
<g id="edge3" class="edge"><title>Node1&#45;&gt;Node4</title>
<path fill="none" stroke="midnightblue" d="M90.7477,-361.298C105.116,-402.944 140.018,-486.491 200,-528.5 209.595,-535.22 221.008,-539.685 232.528,-542.627"/>
<polygon fill="midnightblue" stroke="midnightblue" points="94.0186,-360.042 87.5344,-351.663 87.3782,-362.257 94.0186,-360.042"/>
</g>
<!-- Node5 -->
<g id="node5" class="node"><title>Node5</title>
<g id="a_node5"><a xlink:href="classCBitParameter.html#a0527dce697f0e4bda7daec7055f5f9de" target="_top" xlink:title="CBitParameter::merge">
<polygon fill="white" stroke="black" points="233.5,-500 233.5,-519 357.5,-519 357.5,-500 233.5,-500"/>
<text text-anchor="middle" x="295.5" y="-507" font-family="Verdana" font-size="10.00">CBitParameter::merge</text>
</a>
</g>
</g>
<!-- Node1&#45;&gt;Node5 -->
<g id="edge4" class="edge"><title>Node1&#45;&gt;Node5</title>
<path fill="none" stroke="midnightblue" d="M94.4758,-361.079C112.036,-395.8 148.984,-458.533 200,-490.5 209.926,-496.72 221.49,-500.959 233.053,-503.835"/>
<polygon fill="midnightblue" stroke="midnightblue" points="97.4027,-359.1 89.8474,-351.672 91.1218,-362.19 97.4027,-359.1"/>
</g>
<!-- Node6 -->
<g id="node6" class="node"><title>Node6</title>
<g id="a_node6"><a xlink:href="classCBitParameterBlock.html#a53ab74abef6085b354322affebd7072c" target="_top" xlink:title="CBitParameterBlock\l::getSize">
<polygon fill="white" stroke="black" points="239.5,-625.5 239.5,-655.5 351.5,-655.5 351.5,-625.5 239.5,-625.5"/>
<text text-anchor="start" x="247.5" y="-643.5" font-family="Verdana" font-size="10.00">CBitParameterBlock</text>
<text text-anchor="middle" x="295.5" y="-632.5" font-family="Verdana" font-size="10.00">::getSize</text>
</a>
</g>
</g>
<!-- Node1&#45;&gt;Node6 -->
<g id="edge5" class="edge"><title>Node1&#45;&gt;Node6</title>
<path fill="none" stroke="midnightblue" d="M85.9858,-361.595C93.8931,-416.52 120.531,-547.938 200,-616.5 211.022,-626.009 225.303,-631.838 239.41,-635.386"/>
<polygon fill="midnightblue" stroke="midnightblue" points="89.4525,-361.112 84.644,-351.671 82.5156,-362.05 89.4525,-361.112"/>
</g>
<!-- Node10 -->
<g id="node10" class="node"><title>Node10</title>
<g id="a_node10"><a xlink:href="classCInstanceConfigurableElement.html#a73aace151a51fbd2a2c02bfd83b24f59" target="_top" xlink:title="Get the value associated to a mapping key in the object&#39;s mapping. ">
<polygon fill="white" stroke="black" points="213.5,-401.5 213.5,-431.5 377.5,-431.5 377.5,-401.5 213.5,-401.5"/>
<text text-anchor="start" x="221.5" y="-419.5" font-family="Verdana" font-size="10.00">CInstanceConfigurableElement</text>
<text text-anchor="middle" x="295.5" y="-408.5" font-family="Verdana" font-size="10.00">::getMappingData</text>
</a>
</g>
</g>
<!-- Node1&#45;&gt;Node10 -->
<g id="edge9" class="edge"><title>Node1&#45;&gt;Node10</title>
<path fill="none" stroke="midnightblue" d="M119.627,-356.34C142.296,-368.033 172.273,-382.455 200,-392.5 209.072,-395.786 218.788,-398.799 228.413,-401.497"/>
<polygon fill="midnightblue" stroke="midnightblue" points="121.184,-353.205 110.699,-351.682 117.945,-359.411 121.184,-353.205"/>
</g>
<!-- Node11 -->
<g id="node11" class="node"><title>Node11</title>
<g id="a_node11"><a xlink:href="classCInstanceConfigurableElement.html#ab64a2df11be985c8f1deecbf26681594" target="_top" xlink:title="Returns the mapping data associated to the type element of the current InstanceConfigurableElement, as a formatted std::string. ">
<polygon fill="white" stroke="black" points="213.5,-352.5 213.5,-382.5 377.5,-382.5 377.5,-352.5 213.5,-352.5"/>
<text text-anchor="start" x="221.5" y="-370.5" font-family="Verdana" font-size="10.00">CInstanceConfigurableElement</text>
<text text-anchor="middle" x="295.5" y="-359.5" font-family="Verdana" font-size="10.00">::getFormattedMapping</text>
</a>
</g>
</g>
<!-- Node1&#45;&gt;Node11 -->
<g id="edge10" class="edge"><title>Node1&#45;&gt;Node11</title>
<path fill="none" stroke="midnightblue" d="M174.432,-349.901C187.328,-351.792 200.513,-353.724 213.201,-355.584"/>
<polygon fill="midnightblue" stroke="midnightblue" points="174.568,-346.384 164.167,-348.397 173.553,-353.31 174.568,-346.384"/>
</g>
<!-- Node12 -->
<g id="node12" class="node"><title>Node12</title>
<g id="a_node12"><a xlink:href="classCInstanceConfigurableElement.html#a43d2ce5dbc487aa8de02d39af1b1c2d3" target="_top" xlink:title="CInstanceConfigurableElement::map">
<polygon fill="white" stroke="black" points="200,-296 200,-315 391,-315 391,-296 200,-296"/>
<text text-anchor="middle" x="295.5" y="-303" font-family="Verdana" font-size="10.00">CInstanceConfigurableElement::map</text>
</a>
</g>
</g>
<!-- Node1&#45;&gt;Node12 -->
<g id="edge11" class="edge"><title>Node1&#45;&gt;Node12</title>
<path fill="none" stroke="midnightblue" d="M174.157,-323.139C192.823,-320.403 212.107,-317.576 229.624,-315.009"/>
<polygon fill="midnightblue" stroke="midnightblue" points="173.553,-319.69 164.167,-324.603 174.568,-326.616 173.553,-319.69"/>
</g>
<!-- Node13 -->
<g id="node13" class="node"><title>Node13</title>
<g id="a_node13"><a xlink:href="classCInstanceConfigurableElement.html#a9fc955181503bd0cfd5a148dd5653905" target="_top" xlink:title="Serialize the structure to xml. ">
<polygon fill="white" stroke="black" points="213.5,-450.5 213.5,-480.5 377.5,-480.5 377.5,-450.5 213.5,-450.5"/>
<text text-anchor="start" x="221.5" y="-468.5" font-family="Verdana" font-size="10.00">CInstanceConfigurableElement</text>
<text text-anchor="middle" x="295.5" y="-457.5" font-family="Verdana" font-size="10.00">::structureToXml</text>
</a>
</g>
</g>
<!-- Node1&#45;&gt;Node13 -->
<g id="edge13" class="edge"><title>Node1&#45;&gt;Node13</title>
<path fill="none" stroke="midnightblue" d="M102.008,-359.091C123.412,-383.078 160.408,-420.379 200,-441.5 206.422,-444.926 213.353,-447.878 220.44,-450.419"/>
<polygon fill="midnightblue" stroke="midnightblue" points="104.588,-356.725 95.3655,-351.51 99.3227,-361.338 104.588,-356.725"/>
</g>
<!-- Node14 -->
<g id="node14" class="node"><title>Node14</title>
<g id="a_node14"><a xlink:href="classCParameter.html#a7e66c668b2fabb20c8659c21423f4a29" target="_top" xlink:title="CParameter::handleValueSpace\lAttribute">
<polygon fill="white" stroke="black" points="211.5,-246.5 211.5,-276.5 379.5,-276.5 379.5,-246.5 211.5,-246.5"/>
<text text-anchor="start" x="219.5" y="-264.5" font-family="Verdana" font-size="10.00">CParameter::handleValueSpace</text>
<text text-anchor="middle" x="295.5" y="-253.5" font-family="Verdana" font-size="10.00">Attribute</text>
</a>
</g>
</g>
<!-- Node1&#45;&gt;Node14 -->
<g id="edge15" class="edge"><title>Node1&#45;&gt;Node14</title>
<path fill="none" stroke="midnightblue" d="M123.919,-317.282C146.123,-307.296 174.228,-295.363 200,-286.5 210.351,-282.94 221.485,-279.587 232.35,-276.563"/>
<polygon fill="midnightblue" stroke="midnightblue" points="122.446,-314.107 114.788,-321.428 125.34,-320.48 122.446,-314.107"/>
</g>
<!-- Node16 -->
<g id="node16" class="node"><title>Node16</title>
<g id="a_node16"><a xlink:href="classCParameter.html#a8e739ef864f7e7f11b775305022bc499" target="_top" xlink:title="CParameter::getSize">
<polygon fill="white" stroke="black" points="237.5,-170 237.5,-189 353.5,-189 353.5,-170 237.5,-170"/>
<text text-anchor="middle" x="295.5" y="-177" font-family="Verdana" font-size="10.00">CParameter::getSize</text>
</a>
</g>
</g>
<!-- Node1&#45;&gt;Node16 -->
<g id="edge17" class="edge"><title>Node1&#45;&gt;Node16</title>
<path fill="none" stroke="midnightblue" d="M97.2724,-312.899C116.706,-282.832 154.353,-231.424 200,-203.5 211.263,-196.61 224.435,-191.691 237.308,-188.181"/>
<polygon fill="midnightblue" stroke="midnightblue" points="94.2228,-311.173 91.8371,-321.496 100.139,-314.914 94.2228,-311.173"/>
</g>
<!-- Node20 -->
<g id="node20" class="node"><title>Node20</title>
<g id="a_node20"><a xlink:href="classCParameter.html#a26fa5e3c97be1577ad15d04295ada708" target="_top" xlink:title="CParameter::setDefaultValues">
<polygon fill="white" stroke="black" points="428.5,-88 428.5,-107 589.5,-107 589.5,-88 428.5,-88"/>
<text text-anchor="middle" x="509" y="-95" font-family="Verdana" font-size="10.00">CParameter::setDefaultValues</text>
</a>
</g>
</g>
<!-- Node1&#45;&gt;Node20 -->
<g id="edge23" class="edge"><title>Node1&#45;&gt;Node20</title>
<path fill="none" stroke="midnightblue" d="M92.1413,-311.841C107.865,-273.057 143.857,-198.33 200,-160.5 267.894,-114.752 361.968,-100.985 428.233,-97.4286"/>
<polygon fill="midnightblue" stroke="midnightblue" points="88.8141,-310.739 88.4118,-321.326 95.3285,-313.3 88.8141,-310.739"/>
</g>
<!-- Node21 -->
<g id="node21" class="node"><title>Node21</title>
<g id="a_node21"><a xlink:href="classCStringParameter.html#af4bab1c1d9a9c32f7b0018cdfa1c9881" target="_top" xlink:title="CStringParameter::getSize">
<polygon fill="white" stroke="black" points="223.5,-57 223.5,-76 367.5,-76 367.5,-57 223.5,-57"/>
<text text-anchor="middle" x="295.5" y="-64" font-family="Verdana" font-size="10.00">CStringParameter::getSize</text>
</a>
</g>
</g>
<!-- Node1&#45;&gt;Node21 -->
<g id="edge24" class="edge"><title>Node1&#45;&gt;Node21</title>
<path fill="none" stroke="midnightblue" d="M88.9784,-311.581C101.541,-264.355 135.034,-161.294 200,-102.5 213.928,-89.8949 232.723,-81.5378 249.882,-76.0796"/>
<polygon fill="midnightblue" stroke="midnightblue" points="85.5812,-310.739 86.4826,-321.295 92.361,-312.481 85.5812,-310.739"/>
</g>
<!-- Node24 -->
<g id="node24" class="node"><title>Node24</title>
<g id="a_node24"><a xlink:href="classCSubsystemObject.html#a754574ad36ea1f8ef4bb9f41be6030a6" target="_top" xlink:title="Conversion of int8, int16, int32 to int (taking care of sign extension) ">
<polygon fill="white" stroke="black" points="222.5,-7.5 222.5,-37.5 368.5,-37.5 368.5,-7.5 222.5,-7.5"/>
<text text-anchor="start" x="230.5" y="-25.5" font-family="Verdana" font-size="10.00">CSubsystemObject::toPlain</text>
<text text-anchor="middle" x="295.5" y="-14.5" font-family="Verdana" font-size="10.00">Integer</text>
</a>
</g>
</g>
<!-- Node1&#45;&gt;Node24 -->
<g id="edge27" class="edge"><title>Node1&#45;&gt;Node24</title>
<path fill="none" stroke="midnightblue" d="M85.7217,-311.074C93.1357,-254.781 118.907,-118.965 200,-47.5 206.493,-41.7776 214.15,-37.343 222.249,-33.9102"/>
<polygon fill="midnightblue" stroke="midnightblue" points="82.2196,-310.878 84.4727,-321.23 89.1672,-311.732 82.2196,-310.878"/>
</g>
<!-- Node7 -->
<g id="node7" class="node"><title>Node7</title>
<g id="a_node7"><a xlink:href="classCBitParameterBlock.html#a2150ec48ecd90423aa42a47c49543191" target="_top" xlink:title="CBitParameterBlock\l::getFootPrint">
<polygon fill="white" stroke="black" points="453,-600.5 453,-630.5 565,-630.5 565,-600.5 453,-600.5"/>
<text text-anchor="start" x="461" y="-618.5" font-family="Verdana" font-size="10.00">CBitParameterBlock</text>
<text text-anchor="middle" x="509" y="-607.5" font-family="Verdana" font-size="10.00">::getFootPrint</text>
</a>
</g>
</g>
<!-- Node6&#45;&gt;Node7 -->
<g id="edge6" class="edge"><title>Node6&#45;&gt;Node7</title>
<path fill="none" stroke="midnightblue" d="M361.632,-632.801C390.855,-629.347 424.959,-625.316 452.891,-622.014"/>
<polygon fill="midnightblue" stroke="midnightblue" points="361.037,-629.347 351.517,-633.997 361.859,-636.299 361.037,-629.347"/>
</g>
<!-- Node8 -->
<g id="node8" class="node"><title>Node8</title>
<g id="a_node8"><a xlink:href="classCBitParameterBlock.html#a74485c7734eb44648b1182cf8e884d40" target="_top" xlink:title="CBitParameterBlock\l::setDefaultValues">
<polygon fill="white" stroke="black" points="453,-649.5 453,-679.5 565,-679.5 565,-649.5 453,-649.5"/>
<text text-anchor="start" x="461" y="-667.5" font-family="Verdana" font-size="10.00">CBitParameterBlock</text>
<text text-anchor="middle" x="509" y="-656.5" font-family="Verdana" font-size="10.00">::setDefaultValues</text>
</a>
</g>
</g>
<!-- Node6&#45;&gt;Node8 -->
<g id="edge7" class="edge"><title>Node6&#45;&gt;Node8</title>
<path fill="none" stroke="midnightblue" d="M361.632,-647.891C390.855,-651.207 424.959,-655.077 452.891,-658.247"/>
<polygon fill="midnightblue" stroke="midnightblue" points="361.848,-644.393 351.517,-646.743 361.059,-651.348 361.848,-644.393"/>
</g>
<!-- Node9 -->
<g id="node9" class="node"><title>Node9</title>
<g id="a_node9"><a xlink:href="classCBitParameterBlock.html#ae8f1443ff248a9b5cb783bea475157f3" target="_top" xlink:title="Serialize the structure to xml. ">
<polygon fill="white" stroke="black" points="453,-500.5 453,-530.5 565,-530.5 565,-500.5 453,-500.5"/>
<text text-anchor="start" x="461" y="-518.5" font-family="Verdana" font-size="10.00">CBitParameterBlock</text>
<text text-anchor="middle" x="509" y="-507.5" font-family="Verdana" font-size="10.00">::structureToXml</text>
</a>
</g>
</g>
<!-- Node6&#45;&gt;Node9 -->
<g id="edge8" class="edge"><title>Node6&#45;&gt;Node9</title>
<path fill="none" stroke="midnightblue" d="M361.331,-628.303C371.557,-625.181 381.786,-621.302 391,-616.5 413.369,-604.843 465.982,-555.837 492.355,-530.625"/>
<polygon fill="midnightblue" stroke="midnightblue" points="360.227,-624.978 351.559,-631.071 362.135,-631.713 360.227,-624.978"/>
</g>
<!-- Node12&#45;&gt;Node12 -->
<g id="edge12" class="edge"><title>Node12&#45;&gt;Node12</title>
<path fill="none" stroke="midnightblue" d="M255.849,-322.118C254.46,-328.356 267.677,-333.5 295.5,-333.5 333.387,-333.5 344.19,-323.961 327.911,-315.112"/>
<polygon fill="midnightblue" stroke="midnightblue" points="258.337,-324.581 263.089,-315.112 253.469,-319.551 258.337,-324.581"/>
</g>
<!-- Node13&#45;&gt;Node9 -->
<g id="edge14" class="edge"><title>Node13&#45;&gt;Node9</title>
<path fill="none" stroke="midnightblue" d="M369.833,-482.836C397.071,-489.276 427.486,-496.466 452.83,-502.457"/>
<polygon fill="midnightblue" stroke="midnightblue" points="370.494,-479.396 359.957,-480.502 368.883,-486.208 370.494,-479.396"/>
</g>
<!-- Node15 -->
<g id="node15" class="node"><title>Node15</title>
<g id="a_node15"><a xlink:href="classCParameter.html#a74e2c5c9292fcd85c6a78181ab865cfe" target="_top" xlink:title="CParameter::serializeXml\lSettings">
<polygon fill="white" stroke="black" points="440.5,-301.5 440.5,-331.5 577.5,-331.5 577.5,-301.5 440.5,-301.5"/>
<text text-anchor="start" x="448.5" y="-319.5" font-family="Verdana" font-size="10.00">CParameter::serializeXml</text>
<text text-anchor="middle" x="509" y="-308.5" font-family="Verdana" font-size="10.00">Settings</text>
</a>
</g>
</g>
<!-- Node14&#45;&gt;Node15 -->
<g id="edge16" class="edge"><title>Node14&#45;&gt;Node15</title>
<path fill="none" stroke="midnightblue" d="M364.301,-279.131C392.001,-286.335 423.707,-294.58 450.277,-301.489"/>
<polygon fill="midnightblue" stroke="midnightblue" points="364.852,-275.658 354.293,-276.529 363.091,-282.433 364.852,-275.658"/>
</g>
<!-- Node16&#45;&gt;Node2 -->
<g id="edge20" class="edge"><title>Node16&#45;&gt;Node2</title>
<path fill="none" stroke="midnightblue" d="M363.259,-191.267C372.937,-194.43 382.492,-198.434 391,-203.5 411.268,-215.568 407.044,-229.922 427,-242.5 433.101,-246.345 439.834,-249.634 446.733,-252.439"/>
<polygon fill="midnightblue" stroke="midnightblue" points="364.157,-187.883 353.574,-188.377 362.155,-194.59 364.157,-187.883"/>
</g>
<!-- Node17 -->
<g id="node17" class="node"><title>Node17</title>
<g id="a_node17"><a xlink:href="classCArrayParameter.html#a7b1e06bd0fc4ed9aebdadcc3b3afa7d4" target="_top" xlink:title="CArrayParameter::getFoot\lPrint">
<polygon fill="white" stroke="black" points="438,-126.5 438,-156.5 580,-156.5 580,-126.5 438,-126.5"/>
<text text-anchor="start" x="446" y="-144.5" font-family="Verdana" font-size="10.00">CArrayParameter::getFoot</text>
<text text-anchor="middle" x="509" y="-133.5" font-family="Verdana" font-size="10.00">Print</text>
</a>
</g>
</g>
<!-- Node16&#45;&gt;Node17 -->
<g id="edge18" class="edge"><title>Node16&#45;&gt;Node17</title>
<path fill="none" stroke="midnightblue" d="M359.534,-168.175C384.129,-163.756 412.428,-158.671 437.68,-154.134"/>
<polygon fill="midnightblue" stroke="midnightblue" points="358.821,-164.747 349.597,-169.96 360.059,-171.636 358.821,-164.747"/>
</g>
<!-- Node18 -->
<g id="node18" class="node"><title>Node18</title>
<g id="a_node18"><a xlink:href="classCArrayParameter.html#a07b3af958a03b2295be159f69b22d42d" target="_top" xlink:title="CArrayParameter::accessValue">
<polygon fill="white" stroke="black" points="427,-214 427,-233 591,-233 591,-214 427,-214"/>
<text text-anchor="middle" x="509" y="-221" font-family="Verdana" font-size="10.00">CArrayParameter::accessValue</text>
</a>
</g>
</g>
<!-- Node16&#45;&gt;Node18 -->
<g id="edge19" class="edge"><title>Node16&#45;&gt;Node18</title>
<path fill="none" stroke="midnightblue" d="M352.259,-191.1C386.542,-198.232 429.929,-207.258 462.197,-213.971"/>
<polygon fill="midnightblue" stroke="midnightblue" points="352.896,-187.658 342.392,-189.047 351.47,-194.511 352.896,-187.658"/>
</g>
<!-- Node19 -->
<g id="node19" class="node"><title>Node19</title>
<g id="a_node19"><a xlink:href="classCParameter.html#ab1b32c17998875bab9b1deecfb76e67d" target="_top" xlink:title="CParameter::getFootPrint">
<polygon fill="white" stroke="black" points="440,-176 440,-195 578,-195 578,-176 440,-176"/>
<text text-anchor="middle" x="509" y="-183" font-family="Verdana" font-size="10.00">CParameter::getFootPrint</text>
</a>
</g>
</g>
<!-- Node16&#45;&gt;Node19 -->
<g id="edge21" class="edge"><title>Node16&#45;&gt;Node19</title>
<path fill="none" stroke="midnightblue" d="M363.916,-181.413C388.159,-182.1 415.51,-182.876 439.817,-183.566"/>
<polygon fill="midnightblue" stroke="midnightblue" points="363.83,-177.909 353.735,-181.124 363.632,-184.906 363.83,-177.909"/>
</g>
<!-- Node16&#45;&gt;Node20 -->
<g id="edge22" class="edge"><title>Node16&#45;&gt;Node20</title>
<path fill="none" stroke="midnightblue" d="M322.062,-165.078C347.862,-151.026 389.189,-129.878 427,-116.5 437.349,-112.838 448.692,-109.676 459.527,-107.04"/>
<polygon fill="midnightblue" stroke="midnightblue" points="320.365,-162.017 313.294,-169.907 323.742,-168.149 320.365,-162.017"/>
</g>
<!-- Node22 -->
<g id="node22" class="node"><title>Node22</title>
<g id="a_node22"><a xlink:href="classCStringParameter.html#a11d3f70f1e4c7bd104adbbfde2f0358f" target="_top" xlink:title="CStringParameter::getFoot\lPrint">
<polygon fill="white" stroke="black" points="436.5,-0.5 436.5,-30.5 581.5,-30.5 581.5,-0.5 436.5,-0.5"/>
<text text-anchor="start" x="444.5" y="-18.5" font-family="Verdana" font-size="10.00">CStringParameter::getFoot</text>
<text text-anchor="middle" x="509" y="-7.5" font-family="Verdana" font-size="10.00">Print</text>
</a>
</g>
</g>
<!-- Node21&#45;&gt;Node22 -->
<g id="edge25" class="edge"><title>Node21&#45;&gt;Node22</title>
<path fill="none" stroke="midnightblue" d="M353.854,-54.8459C366.136,-52.2149 379.02,-49.3529 391,-46.5 411.544,-41.6077 433.989,-35.779 453.677,-30.503"/>
<polygon fill="midnightblue" stroke="midnightblue" points="352.768,-51.4984 343.711,-56.9964 354.22,-58.3462 352.768,-51.4984"/>
</g>
<!-- Node23 -->
<g id="node23" class="node"><title>Node23</title>
<g id="a_node23"><a xlink:href="classCStringParameter.html#a67ccec1129a496f5ce7beeb3dd27b096" target="_top" xlink:title="CStringParameter::doSetValue">
<polygon fill="white" stroke="black" points="427.5,-50 427.5,-69 590.5,-69 590.5,-50 427.5,-50"/>
<text text-anchor="middle" x="509" y="-57" font-family="Verdana" font-size="10.00">CStringParameter::doSetValue</text>
</a>
</g>
</g>
<!-- Node21&#45;&gt;Node23 -->
<g id="edge26" class="edge"><title>Node21&#45;&gt;Node23</title>
<path fill="none" stroke="midnightblue" d="M377.553,-63.8174C393.87,-63.2773 411.019,-62.7098 427.324,-62.1701"/>
<polygon fill="midnightblue" stroke="midnightblue" points="377.394,-60.3207 367.515,-64.1496 377.625,-67.3168 377.394,-60.3207"/>
</g>
</g>
</svg>
