<?xml version="1.0" encoding="UTF-8" standalone="no"?>
<!DOCTYPE svg PUBLIC "-//W3C//DTD SVG 1.1//EN"
 "http://www.w3.org/Graphics/SVG/1.1/DTD/svg11.dtd">
<!-- Generated by graphviz version 2.38.0 (20140413.2041)
 -->
<!-- Title: CConfigurableElement::setSettingsAsBytes Pages: 1 -->
<svg width="685pt" height="449pt"
 viewBox="0.00 0.00 685.00 448.50" xmlns="http://www.w3.org/2000/svg" xmlns:xlink="http://www.w3.org/1999/xlink">
<g id="graph0" class="graph" transform="scale(1 1) rotate(0) translate(4 444.5)">
<title>CConfigurableElement::setSettingsAsBytes</title>
<polygon fill="white" stroke="none" points="-4,4 -4,-444.5 681,-444.5 681,4 -4,4"/>
<!-- Node1 -->
<g id="node1" class="node"><title>Node1</title>
<polygon fill="#bfbfbf" stroke="black" points="0,-199 0,-229 123,-229 123,-199 0,-199"/>
<text text-anchor="start" x="8" y="-217" font-family="Verdana" font-size="10.00">CConfigurableElement</text>
<text text-anchor="middle" x="61.5" y="-206" font-family="Verdana" font-size="10.00">::setSettingsAsBytes</text>
</g>
<!-- Node2 -->
<g id="node2" class="node"><title>Node2</title>
<g id="a_node2"><a xlink:href="classCParameterAccessContext.html#ad354dd5bf2a88f4ed4197be9a59fda20" target="_top" xlink:title="CParameterAccessContext\l::getParameterBlackboard">
<polygon fill="white" stroke="black" points="159,-410 159,-440 304,-440 304,-410 159,-410"/>
<text text-anchor="start" x="167" y="-428" font-family="Verdana" font-size="10.00">CParameterAccessContext</text>
<text text-anchor="middle" x="231.5" y="-417" font-family="Verdana" font-size="10.00">::getParameterBlackboard</text>
</a>
</g>
</g>
<!-- Node1&#45;&gt;Node2 -->
<g id="edge1" class="edge"><title>Node1&#45;&gt;Node2</title>
<path fill="none" stroke="midnightblue" d="M66.6997,-229.051C76.9262,-263.118 106.232,-346.902 159,-395 163.104,-398.741 167.742,-402.055 172.635,-404.983"/>
<polygon fill="midnightblue" stroke="midnightblue" points="171.194,-408.182 181.658,-409.844 174.515,-402.02 171.194,-408.182"/>
</g>
<!-- Node3 -->
<g id="node3" class="node"><title>Node3</title>
<g id="a_node3"><a xlink:href="classCConfigurableElement.html#ab674ec27478a05b77d0138747f560f7b" target="_top" xlink:title="CConfigurableElement\l::getFootPrint">
<polygon fill="white" stroke="black" points="360.5,-389 360.5,-419 483.5,-419 483.5,-389 360.5,-389"/>
<text text-anchor="start" x="368.5" y="-407" font-family="Verdana" font-size="10.00">CConfigurableElement</text>
<text text-anchor="middle" x="422" y="-396" font-family="Verdana" font-size="10.00">::getFootPrint</text>
</a>
</g>
</g>
<!-- Node1&#45;&gt;Node3 -->
<g id="edge2" class="edge"><title>Node1&#45;&gt;Node3</title>
<path fill="none" stroke="midnightblue" d="M67.6088,-229.183C78.7987,-259.896 108.579,-329.255 159,-362 189.776,-381.987 283.723,-393.364 350.291,-399.106"/>
<polygon fill="midnightblue" stroke="midnightblue" points="350.057,-402.598 360.315,-399.946 350.642,-395.623 350.057,-402.598"/>
</g>
<!-- Node6 -->
<g id="node6" class="node"><title>Node6</title>
<g id="a_node6"><a xlink:href="classutility_1_1ErrorContext.html#afc2e1af8c4a81e36e5013bf31127c15f" target="_top" xlink:title="utility::ErrorContext\l::setError">
<polygon fill="white" stroke="black" points="177.5,-273 177.5,-303 285.5,-303 285.5,-273 177.5,-273"/>
<text text-anchor="start" x="185.5" y="-291" font-family="Verdana" font-size="10.00">utility::ErrorContext</text>
<text text-anchor="middle" x="231.5" y="-280" font-family="Verdana" font-size="10.00">::setError</text>
</a>
</g>
</g>
<!-- Node1&#45;&gt;Node6 -->
<g id="edge6" class="edge"><title>Node1&#45;&gt;Node6</title>
<path fill="none" stroke="midnightblue" d="M89.0036,-229.144C108.098,-239.703 134.679,-253.69 159,-264 163.366,-265.851 167.928,-267.659 172.543,-269.398"/>
<polygon fill="midnightblue" stroke="midnightblue" points="171.451,-272.725 182.045,-272.865 173.85,-266.149 171.451,-272.725"/>
</g>
<!-- Node7 -->
<g id="node7" class="node"><title>Node7</title>
<g id="a_node7"><a xlink:href="classCParameterBlackboard.html#a9b5d0d94bd93718b2737fdf9c13a5221" target="_top" xlink:title="Raw write the blackboard memory. ">
<polygon fill="white" stroke="black" points="168,-224 168,-254 295,-254 295,-224 168,-224"/>
<text text-anchor="start" x="176" y="-242" font-family="Verdana" font-size="10.00">CParameterBlackboard</text>
<text text-anchor="middle" x="231.5" y="-231" font-family="Verdana" font-size="10.00">::writeBytes</text>
</a>
</g>
</g>
<!-- Node1&#45;&gt;Node7 -->
<g id="edge7" class="edge"><title>Node1&#45;&gt;Node7</title>
<path fill="none" stroke="midnightblue" d="M123.152,-223.026C134.419,-224.702 146.296,-226.47 157.878,-228.193"/>
<polygon fill="midnightblue" stroke="midnightblue" points="157.552,-231.683 167.958,-229.693 158.582,-224.759 157.552,-231.683"/>
</g>
<!-- Node8 -->
<g id="node8" class="node"><title>Node8</title>
<g id="a_node8"><a xlink:href="classCConfigurableElement.html#aad502a1139a10faa1a87fd1e033e4ad4" target="_top" xlink:title="CConfigurableElement\l::getOffset">
<polygon fill="white" stroke="black" points="170,-175 170,-205 293,-205 293,-175 170,-175"/>
<text text-anchor="start" x="178" y="-193" font-family="Verdana" font-size="10.00">CConfigurableElement</text>
<text text-anchor="middle" x="231.5" y="-182" font-family="Verdana" font-size="10.00">::getOffset</text>
</a>
</g>
</g>
<!-- Node1&#45;&gt;Node8 -->
<g id="edge8" class="edge"><title>Node1&#45;&gt;Node8</title>
<path fill="none" stroke="midnightblue" d="M123.152,-205.335C135.047,-203.636 147.621,-201.84 159.811,-200.098"/>
<polygon fill="midnightblue" stroke="midnightblue" points="160.533,-203.531 169.937,-198.652 159.543,-196.601 160.533,-203.531"/>
</g>
<!-- Node9 -->
<g id="node9" class="node"><title>Node9</title>
<g id="a_node9"><a xlink:href="classCParameterAccessContext.html#af89af08aeec798e2e4e3a5c269722343" target="_top" xlink:title="CParameterAccessContext\l::getBaseOffset">
<polygon fill="white" stroke="black" points="159,-126 159,-156 304,-156 304,-126 159,-126"/>
<text text-anchor="start" x="167" y="-144" font-family="Verdana" font-size="10.00">CParameterAccessContext</text>
<text text-anchor="middle" x="231.5" y="-133" font-family="Verdana" font-size="10.00">::getBaseOffset</text>
</a>
</g>
</g>
<!-- Node1&#45;&gt;Node9 -->
<g id="edge9" class="edge"><title>Node1&#45;&gt;Node9</title>
<path fill="none" stroke="midnightblue" d="M89.4514,-198.976C108.533,-188.673 134.912,-175.095 159,-165 163.446,-163.137 168.091,-161.313 172.787,-159.557"/>
<polygon fill="midnightblue" stroke="midnightblue" points="174.242,-162.752 182.449,-156.053 171.855,-156.172 174.242,-162.752"/>
</g>
<!-- Node10 -->
<g id="node10" class="node"><title>Node10</title>
<g id="a_node10"><a xlink:href="classCParameterAccessContext.html#ad073ad9ca128b5504f8a4a1d844c4e00" target="_top" xlink:title="CParameterAccessContext\l::getAutoSync">
<polygon fill="white" stroke="black" points="159,-77 159,-107 304,-107 304,-77 159,-77"/>
<text text-anchor="start" x="167" y="-95" font-family="Verdana" font-size="10.00">CParameterAccessContext</text>
<text text-anchor="middle" x="231.5" y="-84" font-family="Verdana" font-size="10.00">::getAutoSync</text>
</a>
</g>
</g>
<!-- Node1&#45;&gt;Node10 -->
<g id="edge10" class="edge"><title>Node1&#45;&gt;Node10</title>
<path fill="none" stroke="midnightblue" d="M73.6012,-198.882C90.0155,-177.537 122.753,-138.648 159,-116 161.636,-114.353 164.397,-112.805 167.238,-111.353"/>
<polygon fill="midnightblue" stroke="midnightblue" points="168.938,-114.422 176.528,-107.03 165.985,-108.075 168.938,-114.422"/>
</g>
<!-- Node11 -->
<g id="node11" class="node"><title>Node11</title>
<g id="a_node11"><a xlink:href="classCConfigurableElement.html#a0b3d6d2477e5ea7c23905604fabdb7bf" target="_top" xlink:title="CConfigurableElement\l::fillSyncerSet">
<polygon fill="white" stroke="black" points="170,-322 170,-352 293,-352 293,-322 170,-322"/>
<text text-anchor="start" x="178" y="-340" font-family="Verdana" font-size="10.00">CConfigurableElement</text>
<text text-anchor="middle" x="231.5" y="-329" font-family="Verdana" font-size="10.00">::fillSyncerSet</text>
</a>
</g>
</g>
<!-- Node1&#45;&gt;Node11 -->
<g id="edge11" class="edge"><title>Node1&#45;&gt;Node11</title>
<path fill="none" stroke="midnightblue" d="M73.5659,-229.278C89.937,-250.847 122.622,-290.142 159,-313 161.631,-314.653 164.389,-316.207 167.228,-317.664"/>
<polygon fill="midnightblue" stroke="midnightblue" points="165.97,-320.939 176.511,-321.997 168.93,-314.596 165.97,-320.939"/>
</g>
<!-- Node15 -->
<g id="node15" class="node"><title>Node15</title>
<g id="a_node15"><a xlink:href="classCSyncerSet.html#a8f8381b520a758f49ba8013c5cb8c7b5" target="_top" xlink:title="Sync the blackboard. ">
<polygon fill="white" stroke="black" points="181,-38.5 181,-57.5 282,-57.5 282,-38.5 181,-38.5"/>
<text text-anchor="middle" x="231.5" y="-45.5" font-family="Verdana" font-size="10.00">CSyncerSet::sync</text>
</a>
</g>
</g>
<!-- Node1&#45;&gt;Node15 -->
<g id="edge18" class="edge"><title>Node1&#45;&gt;Node15</title>
<path fill="none" stroke="midnightblue" d="M68.1017,-198.87C79.999,-168.887 110.716,-101.822 159,-67 162.734,-64.3071 166.824,-61.9957 171.097,-60.012"/>
<polygon fill="midnightblue" stroke="midnightblue" points="172.698,-63.1411 180.678,-56.1714 170.093,-56.6437 172.698,-63.1411"/>
</g>
<!-- Node17 -->
<g id="node17" class="node"><title>Node17</title>
<g id="a_node17"><a xlink:href="namespaceutility.html#a3fb85a4dbd0307733f0dda49811db6d1" target="_top" xlink:title="Format the items of a map into a string as a list of key&#45;value pairs. ">
<polygon fill="white" stroke="black" points="188,-0.5 188,-19.5 275,-19.5 275,-0.5 188,-0.5"/>
<text text-anchor="middle" x="231.5" y="-7.5" font-family="Verdana" font-size="10.00">utility::asString</text>
</a>
</g>
</g>
<!-- Node1&#45;&gt;Node17 -->
<g id="edge20" class="edge"><title>Node1&#45;&gt;Node17</title>
<path fill="none" stroke="midnightblue" d="M65.9433,-198.881C74.8138,-163.472 101.866,-74.7189 159,-29 164.654,-24.476 171.284,-21.0231 178.188,-18.389"/>
<polygon fill="midnightblue" stroke="midnightblue" points="179.286,-21.7125 187.705,-15.2807 177.113,-15.0583 179.286,-21.7125"/>
</g>
<!-- Node3&#45;&gt;Node3 -->
<g id="edge5" class="edge"><title>Node3&#45;&gt;Node3</title>
<path fill="none" stroke="midnightblue" d="M389.586,-419.159C381.769,-428.557 392.574,-437.5 422,-437.5 439.931,-437.5 450.948,-434.179 455.05,-429.458"/>
<polygon fill="midnightblue" stroke="midnightblue" points="458.524,-428.924 454.414,-419.159 451.537,-429.356 458.524,-428.924"/>
</g>
<!-- Node4 -->
<g id="node4" class="node"><title>Node4</title>
<g id="a_node4"><a xlink:href="classCElement.html#a58b6cdb5715497442fde6afa1e65f8e5" target="_top" xlink:title="CElement::getNbChildren">
<polygon fill="white" stroke="black" points="540,-334.5 540,-353.5 677,-353.5 677,-334.5 540,-334.5"/>
<text text-anchor="middle" x="608.5" y="-341.5" font-family="Verdana" font-size="10.00">CElement::getNbChildren</text>
</a>
</g>
</g>
<!-- Node3&#45;&gt;Node4 -->
<g id="edge3" class="edge"><title>Node3&#45;&gt;Node4</title>
<path fill="none" stroke="midnightblue" d="M474.964,-388.994C484.64,-386.09 494.646,-383.011 504,-380 526.619,-372.72 551.803,-363.974 571.666,-356.926"/>
<polygon fill="midnightblue" stroke="midnightblue" points="572.994,-360.168 581.239,-353.514 570.644,-353.574 572.994,-360.168"/>
</g>
<!-- Node5 -->
<g id="node5" class="node"><title>Node5</title>
<g id="a_node5"><a xlink:href="classCElement.html#aee0d626525e9cd24d7639b6365afdc16" target="_top" xlink:title="Get a child element (const) ">
<polygon fill="white" stroke="black" points="554.5,-386.5 554.5,-405.5 662.5,-405.5 662.5,-386.5 554.5,-386.5"/>
<text text-anchor="middle" x="608.5" y="-393.5" font-family="Verdana" font-size="10.00">CElement::getChild</text>
</a>
</g>
</g>
<!-- Node3&#45;&gt;Node5 -->
<g id="edge4" class="edge"><title>Node3&#45;&gt;Node5</title>
<path fill="none" stroke="midnightblue" d="M483.668,-401.369C503.076,-400.528 524.605,-399.594 544.196,-398.745"/>
<polygon fill="midnightblue" stroke="midnightblue" points="544.404,-402.239 554.243,-398.309 544.101,-395.246 544.404,-402.239"/>
</g>
<!-- Node12 -->
<g id="node12" class="node"><title>Node12</title>
<g id="a_node12"><a xlink:href="classCConfigurableElement.html#ace18ab1044203825e43ce44126c9322d" target="_top" xlink:title="CConfigurableElement\l::getSyncer">
<polygon fill="white" stroke="black" points="360.5,-273 360.5,-303 483.5,-303 483.5,-273 360.5,-273"/>
<text text-anchor="start" x="368.5" y="-291" font-family="Verdana" font-size="10.00">CConfigurableElement</text>
<text text-anchor="middle" x="422" y="-280" font-family="Verdana" font-size="10.00">::getSyncer</text>
</a>
</g>
</g>
<!-- Node11&#45;&gt;Node12 -->
<g id="edge12" class="edge"><title>Node11&#45;&gt;Node12</title>
<path fill="none" stroke="midnightblue" d="M290.337,-321.965C310.24,-316.792 332.703,-310.952 353.319,-305.593"/>
<polygon fill="midnightblue" stroke="midnightblue" points="354.474,-308.91 363.272,-303.006 352.713,-302.135 354.474,-308.91"/>
</g>
<!-- Node14 -->
<g id="node14" class="node"><title>Node14</title>
<g id="a_node14"><a xlink:href="classCConfigurableElement.html#a9f29ba1f8a319c22896deda2cf826e78" target="_top" xlink:title="CConfigurableElement\l::fillSyncerSetFromDescendant">
<polygon fill="white" stroke="black" points="340,-322 340,-352 504,-352 504,-322 340,-322"/>
<text text-anchor="start" x="348" y="-340" font-family="Verdana" font-size="10.00">CConfigurableElement</text>
<text text-anchor="middle" x="422" y="-329" font-family="Verdana" font-size="10.00">::fillSyncerSetFromDescendant</text>
</a>
</g>
</g>
<!-- Node11&#45;&gt;Node14 -->
<g id="edge14" class="edge"><title>Node11&#45;&gt;Node14</title>
<path fill="none" stroke="midnightblue" d="M293.18,-337C304.784,-337 317.168,-337 329.49,-337"/>
<polygon fill="midnightblue" stroke="midnightblue" points="329.807,-340.5 339.807,-337 329.807,-333.5 329.807,-340.5"/>
</g>
<!-- Node13 -->
<g id="node13" class="node"><title>Node13</title>
<g id="a_node13"><a xlink:href="classCElement.html#a7987056bec3cbc71bed07cc88b060cf0" target="_top" xlink:title="CElement::getParent">
<polygon fill="white" stroke="black" points="550.5,-278.5 550.5,-297.5 666.5,-297.5 666.5,-278.5 550.5,-278.5"/>
<text text-anchor="middle" x="608.5" y="-285.5" font-family="Verdana" font-size="10.00">CElement::getParent</text>
</a>
</g>
</g>
<!-- Node12&#45;&gt;Node13 -->
<g id="edge13" class="edge"><title>Node12&#45;&gt;Node13</title>
<path fill="none" stroke="midnightblue" d="M483.668,-288C501.746,-288 521.664,-288 540.142,-288"/>
<polygon fill="midnightblue" stroke="midnightblue" points="540.239,-291.5 550.239,-288 540.239,-284.5 540.239,-291.5"/>
</g>
<!-- Node14&#45;&gt;Node4 -->
<g id="edge15" class="edge"><title>Node14&#45;&gt;Node4</title>
<path fill="none" stroke="midnightblue" d="M504.193,-340.08C512.647,-340.401 521.227,-340.727 529.643,-341.046"/>
<polygon fill="midnightblue" stroke="midnightblue" points="529.682,-344.55 539.807,-341.432 529.947,-337.555 529.682,-344.55"/>
</g>
<!-- Node14&#45;&gt;Node5 -->
<g id="edge16" class="edge"><title>Node14&#45;&gt;Node5</title>
<path fill="none" stroke="midnightblue" d="M470.035,-352.041C500.309,-361.722 539.215,-374.164 567.905,-383.338"/>
<polygon fill="midnightblue" stroke="midnightblue" points="567.006,-386.725 577.596,-386.437 569.138,-380.058 567.006,-386.725"/>
</g>
<!-- Node14&#45;&gt;Node14 -->
<g id="edge17" class="edge"><title>Node14&#45;&gt;Node14</title>
<path fill="none" stroke="midnightblue" d="M389.586,-352.159C381.769,-361.557 392.574,-370.5 422,-370.5 439.931,-370.5 450.948,-367.179 455.05,-362.458"/>
<polygon fill="midnightblue" stroke="midnightblue" points="458.524,-361.924 454.414,-352.159 451.537,-362.356 458.524,-361.924"/>
</g>
<!-- Node16 -->
<g id="node16" class="node"><title>Node16</title>
<g id="a_node16"><a xlink:href="classISyncer.html#a16844aac52fb0caf4aed4f68d4b038d9" target="_top" xlink:title="ISyncer::sync">
<polygon fill="white" stroke="black" points="382,-38.5 382,-57.5 462,-57.5 462,-38.5 382,-38.5"/>
<text text-anchor="middle" x="422" y="-45.5" font-family="Verdana" font-size="10.00">ISyncer::sync</text>
</a>
</g>
</g>
<!-- Node15&#45;&gt;Node16 -->
<g id="edge19" class="edge"><title>Node15&#45;&gt;Node16</title>
<path fill="none" stroke="midnightblue" d="M282.026,-48C309.689,-48 344.044,-48 371.674,-48"/>
<polygon fill="midnightblue" stroke="midnightblue" points="371.907,-51.5001 381.907,-48 371.907,-44.5001 371.907,-51.5001"/>
</g>
</g>
</svg>
