<?xml version="1.0" encoding="UTF-8" standalone="no"?>
<!DOCTYPE svg PUBLIC "-//W3C//DTD SVG 1.1//EN"
 "http://www.w3.org/Graphics/SVG/1.1/DTD/svg11.dtd">
<!-- Generated by graphviz version 2.38.0 (20140413.2041)
 -->
<!-- Title: CParameterAccessContext::CParameterAccessContext Pages: 1 -->
<svg width="303pt" height="57pt"
 viewBox="0.00 0.00 303.00 57.00" xmlns="http://www.w3.org/2000/svg" xmlns:xlink="http://www.w3.org/1999/xlink">
<g id="graph0" class="graph" transform="scale(1 1) rotate(0) translate(4 53)">
<title>CParameterAccessContext::CParameterAccessContext</title>
<polygon fill="white" stroke="none" points="-4,4 -4,-53 299,-53 299,4 -4,4"/>
<!-- Node1 -->
<g id="node1" class="node"><title>Node1</title>
<polygon fill="#bfbfbf" stroke="black" points="0,-0.5 0,-30.5 151,-30.5 151,-0.5 0,-0.5"/>
<text text-anchor="start" x="8" y="-18.5" font-family="Verdana" font-size="10.00">CParameterAccessContext</text>
<text text-anchor="middle" x="75.5" y="-7.5" font-family="Verdana" font-size="10.00">::CParameterAccessContext</text>
</g>
<!-- Node1&#45;&gt;Node1 -->
<g id="edge2" class="edge"><title>Node1&#45;&gt;Node1</title>
<path fill="none" stroke="midnightblue" d="M46.9196,-30.659C40.0279,-40.0566 49.5547,-49 75.5,-49 91.3104,-49 101.024,-45.679 104.641,-40.9579"/>
<polygon fill="midnightblue" stroke="midnightblue" points="108.119,-40.454 104.08,-30.659 101.129,-40.8344 108.119,-40.454"/>
</g>
<!-- Node2 -->
<g id="node2" class="node"><title>Node2</title>
<g id="a_node2"><a xlink:href="classutility_1_1ErrorContext.html#aa7f62b70e85e2a02a21124454d0b928d" target="_top" xlink:title="utility::ErrorContext\l::ErrorContext">
<polygon fill="white" stroke="black" points="187,-0.5 187,-30.5 295,-30.5 295,-0.5 187,-0.5"/>
<text text-anchor="start" x="195" y="-18.5" font-family="Verdana" font-size="10.00">utility::ErrorContext</text>
<text text-anchor="middle" x="241" y="-7.5" font-family="Verdana" font-size="10.00">::ErrorContext</text>
</a>
</g>
</g>
<!-- Node1&#45;&gt;Node2 -->
<g id="edge1" class="edge"><title>Node1&#45;&gt;Node2</title>
<path fill="none" stroke="midnightblue" d="M151.073,-15.5C159.576,-15.5 168.182,-15.5 176.522,-15.5"/>
<polygon fill="midnightblue" stroke="midnightblue" points="176.537,-19.0001 186.536,-15.5 176.536,-12.0001 176.537,-19.0001"/>
</g>
</g>
</svg>
