<?xml version="1.0" encoding="UTF-8" standalone="no"?>
<!DOCTYPE svg PUBLIC "-//W3C//DTD SVG 1.1//EN"
 "http://www.w3.org/Graphics/SVG/1.1/DTD/svg11.dtd">
<!-- Generated by graphviz version 2.36.0 (20140111.2315)
 -->
<!-- Title: CErrorContext::appendToError Pages: 1 -->
<svg width="814pt" height="203pt"
 viewBox="0.00 0.00 814.00 203.00" xmlns="http://www.w3.org/2000/svg" xmlns:xlink="http://www.w3.org/1999/xlink">
<g id="graph0" class="graph" transform="scale(1 1) rotate(0) translate(4 199)">
<title>CErrorContext::appendToError</title>
<polygon fill="white" stroke="none" points="-4,4 -4,-199 810,-199 810,4 -4,4"/>
<!-- Node1 -->
<g id="node1" class="node"><title>Node1</title>
<polygon fill="#bfbfbf" stroke="black" points="0.5,-57.5 0.5,-76.5 159.5,-76.5 159.5,-57.5 0.5,-57.5"/>
<text text-anchor="middle" x="80" y="-64.5" font-family="Verdana" font-size="10.00">CErrorContext::appendToError</text>
</g>
<!-- Node2 -->
<g id="node2" class="node"><title>Node2</title>
<g id="a_node2"><a xlink:href="classCBaseParameter.html#a911cbd2df0c950a79863fdd689731f88" target="_top" xlink:title="Append the parameter path to the error. ">
<polygon fill="white" stroke="black" points="196,-77 196,-107 386,-107 386,-77 196,-77"/>
<text text-anchor="start" x="204" y="-95" font-family="Verdana" font-size="10.00">CBaseParameter::appendParameter</text>
<text text-anchor="middle" x="291" y="-84" font-family="Verdana" font-size="10.00">PathToError</text>
</a>
</g>
</g>
<!-- Node1&#45;&gt;Node2 -->
<g id="edge1" class="edge"><title>Node1&#45;&gt;Node2</title>
<path fill="none" stroke="midnightblue" d="M169.771,-77.6186C178.406,-78.6515 187.188,-79.7019 195.874,-80.7409"/>
<polygon fill="midnightblue" stroke="midnightblue" points="170.061,-74.1284 159.716,-76.4158 169.23,-81.0788 170.061,-74.1284"/>
</g>
<!-- Node9 -->
<g id="node9" class="node"><title>Node9</title>
<g id="a_node9"><a xlink:href="classCBooleanParameterType.html#a3984c73c19bf9ba8511152983b60f834" target="_top" xlink:title="Conversion. ">
<polygon fill="white" stroke="black" points="224,-28 224,-58 358,-58 358,-28 224,-28"/>
<text text-anchor="start" x="232" y="-46" font-family="Verdana" font-size="10.00">CBooleanParameterType</text>
<text text-anchor="middle" x="291" y="-35" font-family="Verdana" font-size="10.00">::toBlackboard</text>
</a>
</g>
</g>
<!-- Node1&#45;&gt;Node9 -->
<g id="edge9" class="edge"><title>Node1&#45;&gt;Node9</title>
<path fill="none" stroke="midnightblue" d="M169.738,-56.81C187.924,-54.7216 206.762,-52.5584 223.98,-50.5812"/>
<polygon fill="midnightblue" stroke="midnightblue" points="169.252,-53.3428 159.716,-57.9608 170.05,-60.2971 169.252,-53.3428"/>
</g>
<!-- Node3 -->
<g id="node3" class="node"><title>Node3</title>
<g id="a_node3"><a xlink:href="classCArrayParameter.html#a07b3af958a03b2295be159f69b22d42d" target="_top" xlink:title="CArrayParameter::accessValue">
<polygon fill="white" stroke="black" points="426,-175.5 426,-194.5 590,-194.5 590,-175.5 426,-175.5"/>
<text text-anchor="middle" x="508" y="-182.5" font-family="Verdana" font-size="10.00">CArrayParameter::accessValue</text>
</a>
</g>
</g>
<!-- Node2&#45;&gt;Node3 -->
<g id="edge2" class="edge"><title>Node2&#45;&gt;Node3</title>
<path fill="none" stroke="midnightblue" d="M323.039,-112.725C348.637,-128.992 386.4,-151.136 422,-165 432.736,-169.181 444.589,-172.642 455.95,-175.443"/>
<polygon fill="midnightblue" stroke="midnightblue" points="324.818,-109.708 314.515,-107.239 321.03,-115.594 324.818,-109.708"/>
</g>
<!-- Node4 -->
<g id="node4" class="node"><title>Node4</title>
<g id="a_node4"><a xlink:href="classCBaseParameter.html#a97e096908df72fa729a62c3f5c362ddd" target="_top" xlink:title="CBaseParameter::serialize\lXmlSettings">
<polygon fill="white" stroke="black" points="436.5,-126 436.5,-156 579.5,-156 579.5,-126 436.5,-126"/>
<text text-anchor="start" x="444.5" y="-144" font-family="Verdana" font-size="10.00">CBaseParameter::serialize</text>
<text text-anchor="middle" x="508" y="-133" font-family="Verdana" font-size="10.00">XmlSettings</text>
</a>
</g>
</g>
<!-- Node2&#45;&gt;Node4 -->
<g id="edge3" class="edge"><title>Node2&#45;&gt;Node4</title>
<path fill="none" stroke="midnightblue" d="M367.724,-109.258C391.681,-114.718 417.951,-120.705 441.157,-125.994"/>
<polygon fill="midnightblue" stroke="midnightblue" points="368.496,-105.844 357.968,-107.035 366.94,-112.669 368.496,-105.844"/>
</g>
<!-- Node5 -->
<g id="node5" class="node"><title>Node5</title>
<g id="a_node5"><a xlink:href="classCBaseParameter.html#a2b425561e193a3d54e7225d896a3d39b" target="_top" xlink:title="CBaseParameter::accessAs\lString">
<polygon fill="white" stroke="black" points="433.5,-77 433.5,-107 582.5,-107 582.5,-77 433.5,-77"/>
<text text-anchor="start" x="441.5" y="-95" font-family="Verdana" font-size="10.00">CBaseParameter::accessAs</text>
<text text-anchor="middle" x="508" y="-84" font-family="Verdana" font-size="10.00">String</text>
</a>
</g>
</g>
<!-- Node2&#45;&gt;Node5 -->
<g id="edge4" class="edge"><title>Node2&#45;&gt;Node5</title>
<path fill="none" stroke="midnightblue" d="M396.336,-92C408.88,-92 421.481,-92 433.456,-92"/>
<polygon fill="midnightblue" stroke="midnightblue" points="396.302,-88.5001 386.302,-92 396.302,-95.5001 396.302,-88.5001"/>
</g>
<!-- Node7 -->
<g id="node7" class="node"><title>Node7</title>
<g id="a_node7"><a xlink:href="classCBitParameter.html#a2e0ed93baec3479a9b92314818433a31" target="_top" xlink:title="Value access. ">
<polygon fill="white" stroke="black" points="630,-19.5 630,-38.5 806,-38.5 806,-19.5 630,-19.5"/>
<text text-anchor="middle" x="718" y="-26.5" font-family="Verdana" font-size="10.00">CBitParameter::accessAsBoolean</text>
</a>
</g>
</g>
<!-- Node2&#45;&gt;Node7 -->
<g id="edge6" class="edge"><title>Node2&#45;&gt;Node7</title>
<path fill="none" stroke="midnightblue" d="M375.758,-75.1029C391.11,-72.2308 407.015,-69.4037 422,-67 492.617,-55.6729 573.17,-45.4795 632.238,-38.5086"/>
<polygon fill="midnightblue" stroke="midnightblue" points="374.94,-71.6955 365.765,-76.9928 376.241,-78.5736 374.94,-71.6955"/>
</g>
<!-- Node8 -->
<g id="node8" class="node"><title>Node8</title>
<g id="a_node8"><a xlink:href="classCBitParameter.html#ad348903f16d702fac8adcfa1c725a92b" target="_top" xlink:title="CBitParameter::accessAsInteger">
<polygon fill="white" stroke="black" points="422.5,-0.5 422.5,-19.5 593.5,-19.5 593.5,-0.5 422.5,-0.5"/>
<text text-anchor="middle" x="508" y="-7.5" font-family="Verdana" font-size="10.00">CBitParameter::accessAsInteger</text>
</a>
</g>
</g>
<!-- Node2&#45;&gt;Node8 -->
<g id="edge7" class="edge"><title>Node2&#45;&gt;Node8</title>
<path fill="none" stroke="midnightblue" d="M373.401,-73.0671C377.746,-71.2211 381.975,-69.2036 386,-67 405.038,-56.5761 403.042,-44.5688 422,-34 433.116,-27.8028 445.96,-23.1013 458.241,-19.577"/>
<polygon fill="midnightblue" stroke="midnightblue" points="371.78,-69.9426 363.738,-76.8402 374.326,-76.4631 371.78,-69.9426"/>
</g>
<!-- Node6 -->
<g id="node6" class="node"><title>Node6</title>
<g id="a_node6"><a xlink:href="classCBaseParameter.html#a4a9b3e3a2d1ea65a8dc7048559db8dc2" target="_top" xlink:title="CBaseParameter::accessValue">
<polygon fill="white" stroke="black" points="636.5,-82.5 636.5,-101.5 799.5,-101.5 799.5,-82.5 636.5,-82.5"/>
<text text-anchor="middle" x="718" y="-89.5" font-family="Verdana" font-size="10.00">CBaseParameter::accessValue</text>
</a>
</g>
</g>
<!-- Node5&#45;&gt;Node6 -->
<g id="edge5" class="edge"><title>Node5&#45;&gt;Node6</title>
<path fill="none" stroke="midnightblue" d="M592.955,-92C607.291,-92 622.155,-92 636.401,-92"/>
<polygon fill="midnightblue" stroke="midnightblue" points="592.626,-88.5001 582.626,-92 592.626,-95.5001 592.626,-88.5001"/>
</g>
<!-- Node8&#45;&gt;Node7 -->
<g id="edge8" class="edge"><title>Node8&#45;&gt;Node7</title>
<path fill="none" stroke="midnightblue" d="M603.73,-18.6532C612.404,-19.4456 621.165,-20.2458 629.769,-21.0318"/>
<polygon fill="midnightblue" stroke="midnightblue" points="603.879,-15.1523 593.602,-17.728 603.242,-22.1233 603.879,-15.1523"/>
</g>
</g>
</svg>
