<?xml version="1.0" encoding="UTF-8" standalone="no"?>
<!DOCTYPE svg PUBLIC "-//W3C//DTD SVG 1.1//EN"
 "http://www.w3.org/Graphics/SVG/1.1/DTD/svg11.dtd">
<!-- Generated by graphviz version 2.36.0 (20140111.2315)
 -->
<!-- Title: CSelectionCriteria::createSelectionCriterion Pages: 1 -->
<svg width="490pt" height="87pt"
 viewBox="0.00 0.00 490.00 87.00" xmlns="http://www.w3.org/2000/svg" xmlns:xlink="http://www.w3.org/1999/xlink">
<g id="graph0" class="graph" transform="scale(1 1) rotate(0) translate(4 83)">
<title>CSelectionCriteria::createSelectionCriterion</title>
<polygon fill="white" stroke="none" points="-4,4 -4,-83 486,-83 486,4 -4,4"/>
<!-- Node1 -->
<g id="node1" class="node"><title>Node1</title>
<polygon fill="#bfbfbf" stroke="black" points="0,-24 0,-54 138,-54 138,-24 0,-24"/>
<text text-anchor="start" x="8" y="-42" font-family="Verdana" font-size="10.00">CSelectionCriteria</text>
<text text-anchor="middle" x="69" y="-31" font-family="Verdana" font-size="10.00">::createSelectionCriterion</text>
</g>
<!-- Node2 -->
<g id="node2" class="node"><title>Node2</title>
<g id="a_node2"><a xlink:href="classCSelectionCriteria.html#aa87e3488047e305e72d84d5aa0ed3e08" target="_top" xlink:title="CSelectionCriteria\l::getSelectionCriteriaDefinition">
<polygon fill="white" stroke="black" points="174,-49 174,-79 336,-79 336,-49 174,-49"/>
<text text-anchor="start" x="182" y="-67" font-family="Verdana" font-size="10.00">CSelectionCriteria</text>
<text text-anchor="middle" x="255" y="-56" font-family="Verdana" font-size="10.00">::getSelectionCriteriaDefinition</text>
</a>
</g>
</g>
<!-- Node1&#45;&gt;Node2 -->
<g id="edge1" class="edge"><title>Node1&#45;&gt;Node2</title>
<path fill="none" stroke="midnightblue" d="M138.253,-48.2736C146.56,-49.4022 155.144,-50.5684 163.708,-51.7321"/>
<polygon fill="midnightblue" stroke="midnightblue" points="163.354,-55.2161 173.735,-53.0944 164.297,-48.2798 163.354,-55.2161"/>
</g>
<!-- Node4 -->
<g id="node4" class="node"><title>Node4</title>
<g id="a_node4"><a xlink:href="classCSelectionCriteriaDefinition.html#ad6447026bd630fa502212eeb6f419146" target="_top" xlink:title="CSelectionCriteriaDefinition\l::createSelectionCriterion">
<polygon fill="white" stroke="black" points="181.5,-0 181.5,-30 328.5,-30 328.5,-0 181.5,-0"/>
<text text-anchor="start" x="189.5" y="-18" font-family="Verdana" font-size="10.00">CSelectionCriteriaDefinition</text>
<text text-anchor="middle" x="255" y="-7" font-family="Verdana" font-size="10.00">::createSelectionCriterion</text>
</a>
</g>
</g>
<!-- Node1&#45;&gt;Node4 -->
<g id="edge3" class="edge"><title>Node1&#45;&gt;Node4</title>
<path fill="none" stroke="midnightblue" d="M138.253,-30.0974C148.981,-28.6981 160.171,-27.2386 171.184,-25.8021"/>
<polygon fill="midnightblue" stroke="midnightblue" points="171.766,-29.2559 181.229,-24.4918 170.861,-22.3147 171.766,-29.2559"/>
</g>
<!-- Node3 -->
<g id="node3" class="node"><title>Node3</title>
<g id="a_node3"><a xlink:href="classCElement.html#a9bba10d2dc72821589a898e16ace9ae5" target="_top" xlink:title="Get a child element (const) ">
<polygon fill="white" stroke="black" points="373,-54.5 373,-73.5 481,-73.5 481,-54.5 373,-54.5"/>
<text text-anchor="middle" x="427" y="-61.5" font-family="Verdana" font-size="10.00">CElement::getChild</text>
</a>
</g>
</g>
<!-- Node2&#45;&gt;Node3 -->
<g id="edge2" class="edge"><title>Node2&#45;&gt;Node3</title>
<path fill="none" stroke="midnightblue" d="M336.022,-64C344.935,-64 353.922,-64 362.588,-64"/>
<polygon fill="midnightblue" stroke="midnightblue" points="362.59,-67.5001 372.59,-64 362.59,-60.5001 362.59,-67.5001"/>
</g>
<!-- Node5 -->
<g id="node5" class="node"><title>Node5</title>
<g id="a_node5"><a xlink:href="classCElement.html#ac2ad66ee438a4a0c1390b7388874fe72" target="_top" xlink:title="CElement::addChild">
<polygon fill="white" stroke="black" points="372,-5.5 372,-24.5 482,-24.5 482,-5.5 372,-5.5"/>
<text text-anchor="middle" x="427" y="-12.5" font-family="Verdana" font-size="10.00">CElement::addChild</text>
</a>
</g>
</g>
<!-- Node4&#45;&gt;Node5 -->
<g id="edge4" class="edge"><title>Node4&#45;&gt;Node5</title>
<path fill="none" stroke="midnightblue" d="M328.588,-15C339.599,-15 350.894,-15 361.712,-15"/>
<polygon fill="midnightblue" stroke="midnightblue" points="361.913,-18.5001 371.913,-15 361.912,-11.5001 361.913,-18.5001"/>
</g>
</g>
</svg>
