<?xml version="1.0" encoding="UTF-8" standalone="no"?>
<!DOCTYPE svg PUBLIC "-//W3C//DTD SVG 1.1//EN"
 "http://www.w3.org/Graphics/SVG/1.1/DTD/svg11.dtd">
<!-- Generated by graphviz version 2.38.0 (20140413.2041)
 -->
<!-- Title: TLoggingElementBuilderTemplate&lt; ElementType &gt; Pages: 1 -->
<svg width="214pt" height="231pt"
 viewBox="0.00 0.00 214.00 231.00" xmlns="http://www.w3.org/2000/svg" xmlns:xlink="http://www.w3.org/1999/xlink">
<g id="graph0" class="graph" transform="scale(1 1) rotate(0) translate(4 227)">
<title>TLoggingElementBuilderTemplate&lt; ElementType &gt;</title>
<polygon fill="white" stroke="none" points="-4,4 -4,-227 210,-227 210,4 -4,4"/>
<!-- Node1 -->
<g id="node1" class="node"><title>Node1</title>
<polygon fill="#bfbfbf" stroke="black" points="-1.42109e-14,-78.5 -1.42109e-14,-108.5 176,-108.5 176,-78.5 -1.42109e-14,-78.5"/>
<text text-anchor="start" x="8" y="-96.5" font-family="Verdana" font-size="10.00">TLoggingElementBuilderTemplate</text>
<text text-anchor="middle" x="88" y="-85.5" font-family="Verdana" font-size="10.00">&lt; ElementType &gt;</text>
</g>
<!-- Node4 -->
<g id="node4" class="node"><title>Node4</title>
<g id="a_node4"><a xlink:href="classTLoggingElementBuilderTemplate.html" target="_top" xlink:title="TLoggingElementBuilderTemplate\l\&lt; CVirtualSubsystem \&gt;">
<polygon fill="white" stroke="black" points="-1.42109e-14,-0.5 -1.42109e-14,-30.5 176,-30.5 176,-0.5 -1.42109e-14,-0.5"/>
<text text-anchor="start" x="8" y="-18.5" font-family="Verdana" font-size="10.00">TLoggingElementBuilderTemplate</text>
<text text-anchor="middle" x="88" y="-7.5" font-family="Verdana" font-size="10.00">&lt; CVirtualSubsystem &gt;</text>
</a>
</g>
</g>
<!-- Node1&#45;&gt;Node4 -->
<g id="edge3" class="edge"><title>Node1&#45;&gt;Node4</title>
<path fill="none" stroke="orange" stroke-dasharray="5,2" d="M88,-68.0898C88,-55.7565 88,-41.2237 88,-30.7309"/>
<polygon fill="orange" stroke="orange" points="84.5001,-68.2049 88,-78.205 91.5001,-68.205 84.5001,-68.2049"/>
<text text-anchor="middle" x="147" y="-52" font-family="Verdana" font-size="10.00"> &lt; CVirtualSubsystem &gt;</text>
</g>
<!-- Node2 -->
<g id="node2" class="node"><title>Node2</title>
<g id="a_node2"><a xlink:href="classCElementBuilder.html" target="_top" xlink:title="CElementBuilder">
<polygon fill="white" stroke="black" points="40,-146.5 40,-165.5 136,-165.5 136,-146.5 40,-146.5"/>
<text text-anchor="middle" x="88" y="-153.5" font-family="Verdana" font-size="10.00">CElementBuilder</text>
</a>
</g>
</g>
<!-- Node2&#45;&gt;Node1 -->
<g id="edge1" class="edge"><title>Node2&#45;&gt;Node1</title>
<path fill="none" stroke="midnightblue" d="M88,-136.215C88,-127.356 88,-116.958 88,-108.759"/>
<polygon fill="midnightblue" stroke="midnightblue" points="84.5001,-136.332 88,-146.332 91.5001,-136.332 84.5001,-136.332"/>
</g>
<!-- Node3 -->
<g id="node3" class="node"><title>Node3</title>
<g id="a_node3"><a xlink:href="classutility_1_1NonCopyable.html" target="_top" xlink:title="Base class for private inheritance to make the derived class non copyable. ">
<polygon fill="white" stroke="black" points="32.5,-203.5 32.5,-222.5 143.5,-222.5 143.5,-203.5 32.5,-203.5"/>
<text text-anchor="middle" x="88" y="-210.5" font-family="Verdana" font-size="10.00">utility::NonCopyable</text>
</a>
</g>
</g>
<!-- Node3&#45;&gt;Node2 -->
<g id="edge2" class="edge"><title>Node3&#45;&gt;Node2</title>
<path fill="none" stroke="#8b1a1a" d="M88,-193.117C88,-183.817 88,-173.056 88,-165.715"/>
<polygon fill="#8b1a1a" stroke="#8b1a1a" points="84.5001,-193.406 88,-203.406 91.5001,-193.406 84.5001,-193.406"/>
</g>
</g>
</svg>
