<?xml version="1.0" encoding="UTF-8" standalone="no"?>
<!DOCTYPE svg PUBLIC "-//W3C//DTD SVG 1.1//EN"
 "http://www.w3.org/Graphics/SVG/1.1/DTD/svg11.dtd">
<!-- Generated by graphviz version 2.38.0 (20140413.2041)
 -->
<!-- Title: CElement::findChildOfKind Pages: 1 -->
<svg width="942pt" height="232pt"
 viewBox="0.00 0.00 942.00 232.00" xmlns="http://www.w3.org/2000/svg" xmlns:xlink="http://www.w3.org/1999/xlink">
<g id="graph0" class="graph" transform="scale(1 1) rotate(0) translate(4 228)">
<title>CElement::findChildOfKind</title>
<polygon fill="white" stroke="none" points="-4,4 -4,-228 938,-228 938,4 -4,4"/>
<!-- Node1 -->
<g id="node1" class="node"><title>Node1</title>
<polygon fill="#bfbfbf" stroke="black" points="0,-99 0,-118 140,-118 140,-99 0,-99"/>
<text text-anchor="middle" x="70" y="-106" font-family="Verdana" font-size="10.00">CElement::findChildOfKind</text>
</g>
<!-- Node2 -->
<g id="node2" class="node"><title>Node2</title>
<g id="a_node2"><a xlink:href="classCElement.html#a9cc62393370848bda4c0591e6698ebe8" target="_top" xlink:title="CElement::fromXml">
<polygon fill="white" stroke="black" points="176,-99 176,-118 286,-118 286,-99 176,-99"/>
<text text-anchor="middle" x="231" y="-106" font-family="Verdana" font-size="10.00">CElement::fromXml</text>
</a>
</g>
</g>
<!-- Node1&#45;&gt;Node2 -->
<g id="edge1" class="edge"><title>Node1&#45;&gt;Node2</title>
<path fill="none" stroke="midnightblue" d="M150.353,-108.5C158.958,-108.5 167.565,-108.5 175.771,-108.5"/>
<polygon fill="midnightblue" stroke="midnightblue" points="150.277,-105 140.277,-108.5 150.277,-112 150.277,-105"/>
</g>
<!-- Node2&#45;&gt;Node2 -->
<g id="edge6" class="edge"><title>Node2&#45;&gt;Node2</title>
<path fill="none" stroke="midnightblue" d="M201.06,-126.775C201.914,-132.241 211.894,-136.5 231,-136.5 259.438,-136.5 267.658,-127.065 255.661,-118.257"/>
<polygon fill="midnightblue" stroke="midnightblue" points="204.046,-128.601 206.339,-118.257 198.096,-124.913 204.046,-128.601"/>
</g>
<!-- Node3 -->
<g id="node3" class="node"><title>Node3</title>
<g id="a_node3"><a xlink:href="classCComponentLibrary.html#a655b53ad8035a9cc519dc260b18b9c27" target="_top" xlink:title="CComponentLibrary::\lfromXml">
<polygon fill="white" stroke="black" points="358,-175.5 358,-205.5 475,-205.5 475,-175.5 358,-175.5"/>
<text text-anchor="start" x="366" y="-193.5" font-family="Verdana" font-size="10.00">CComponentLibrary::</text>
<text text-anchor="middle" x="416.5" y="-182.5" font-family="Verdana" font-size="10.00">fromXml</text>
</a>
</g>
</g>
<!-- Node2&#45;&gt;Node3 -->
<g id="edge2" class="edge"><title>Node2&#45;&gt;Node3</title>
<path fill="none" stroke="midnightblue" d="M252.788,-124.248C270.403,-136.941 296.754,-154.44 322,-165.5 333.235,-170.422 345.666,-174.57 357.696,-177.985"/>
<polygon fill="midnightblue" stroke="midnightblue" points="254.557,-121.204 244.425,-118.107 250.414,-126.847 254.557,-121.204"/>
</g>
<!-- Node5 -->
<g id="node5" class="node"><title>Node5</title>
<g id="a_node5"><a xlink:href="classCCompoundRule.html#a30af6bf1e12febe2e2c7c8d45507f4c9" target="_top" xlink:title="CCompoundRule::fromXml">
<polygon fill="white" stroke="black" points="345.5,-137 345.5,-156 487.5,-156 487.5,-137 345.5,-137"/>
<text text-anchor="middle" x="416.5" y="-144" font-family="Verdana" font-size="10.00">CCompoundRule::fromXml</text>
</a>
</g>
</g>
<!-- Node2&#45;&gt;Node5 -->
<g id="edge5" class="edge"><title>Node2&#45;&gt;Node5</title>
<path fill="none" stroke="midnightblue" d="M286.861,-120.151C298.461,-122.595 310.631,-125.145 322,-127.5 336.922,-130.591 353.195,-133.915 367.92,-136.904"/>
<polygon fill="midnightblue" stroke="midnightblue" points="287.356,-116.678 276.849,-118.038 285.911,-123.528 287.356,-116.678"/>
</g>
<!-- Node6 -->
<g id="node6" class="node"><title>Node6</title>
<g id="a_node6"><a xlink:href="classCEnumValuePair.html#a48536bec778cf0baa85c30d4d08936d7" target="_top" xlink:title="CEnumValuePair::fromXml">
<polygon fill="white" stroke="black" points="346,-99 346,-118 487,-118 487,-99 346,-99"/>
<text text-anchor="middle" x="416.5" y="-106" font-family="Verdana" font-size="10.00">CEnumValuePair::fromXml</text>
</a>
</g>
</g>
<!-- Node2&#45;&gt;Node6 -->
<g id="edge7" class="edge"><title>Node2&#45;&gt;Node6</title>
<path fill="none" stroke="midnightblue" d="M296.373,-108.5C312.363,-108.5 329.575,-108.5 345.808,-108.5"/>
<polygon fill="midnightblue" stroke="midnightblue" points="296.064,-105 286.064,-108.5 296.064,-112 296.064,-105"/>
</g>
<!-- Node7 -->
<g id="node7" class="node"><title>Node7</title>
<g id="a_node7"><a xlink:href="classCParameterAdaptation.html#af48a8064e3a8c3bafccf9d431269a569" target="_top" xlink:title="CParameterAdaptation\l::fromXml">
<polygon fill="white" stroke="black" points="353.5,-49.5 353.5,-79.5 479.5,-79.5 479.5,-49.5 353.5,-49.5"/>
<text text-anchor="start" x="361.5" y="-67.5" font-family="Verdana" font-size="10.00">CParameterAdaptation</text>
<text text-anchor="middle" x="416.5" y="-56.5" font-family="Verdana" font-size="10.00">::fromXml</text>
</a>
</g>
</g>
<!-- Node2&#45;&gt;Node7 -->
<g id="edge8" class="edge"><title>Node2&#45;&gt;Node7</title>
<path fill="none" stroke="midnightblue" d="M281.652,-96.5944C303.749,-91.2958 330.007,-84.9998 353.387,-79.3935"/>
<polygon fill="midnightblue" stroke="midnightblue" points="280.725,-93.2173 271.817,-98.9527 282.357,-100.024 280.725,-93.2173"/>
</g>
<!-- Node10 -->
<g id="node10" class="node"><title>Node10</title>
<g id="a_node10"><a xlink:href="classCParameterFrameworkConfiguration.html#a911f494edd7e2e929bec95e6a294241f" target="_top" xlink:title="CParameterFrameworkConfiguration\l::fromXml">
<polygon fill="white" stroke="black" points="322,-0.5 322,-30.5 511,-30.5 511,-0.5 322,-0.5"/>
<text text-anchor="start" x="330" y="-18.5" font-family="Verdana" font-size="10.00">CParameterFrameworkConfiguration</text>
<text text-anchor="middle" x="416.5" y="-7.5" font-family="Verdana" font-size="10.00">::fromXml</text>
</a>
</g>
</g>
<!-- Node2&#45;&gt;Node10 -->
<g id="edge11" class="edge"><title>Node2&#45;&gt;Node10</title>
<path fill="none" stroke="midnightblue" d="M249.485,-91.9867C266.687,-76.5844 294.324,-54.0113 322,-40.5 329.852,-36.6668 338.372,-33.3594 346.964,-30.5222"/>
<polygon fill="midnightblue" stroke="midnightblue" points="246.943,-89.5693 241.925,-98.9007 251.667,-94.735 246.943,-89.5693"/>
</g>
<!-- Node3&#45;&gt;Node3 -->
<g id="edge3" class="edge"><title>Node3&#45;&gt;Node3</title>
<path fill="none" stroke="midnightblue" d="M383.805,-215.958C387.863,-220.679 398.761,-224 416.5,-224 445.609,-224 456.298,-215.057 448.566,-205.659"/>
<polygon fill="midnightblue" stroke="midnightblue" points="387.318,-215.854 384.434,-205.659 380.331,-215.427 387.318,-215.854"/>
</g>
<!-- Node4 -->
<g id="node4" class="node"><title>Node4</title>
<g id="a_node4"><a xlink:href="classCSubsystem.html#ab9e7934e8526dcaaf0b037e72b4e6b7e" target="_top" xlink:title="Deserialize the structure from xml. ">
<polygon fill="white" stroke="black" points="547,-181 547,-200 716,-200 716,-181 547,-181"/>
<text text-anchor="middle" x="631.5" y="-188" font-family="Verdana" font-size="10.00">CSubsystem::structureFromXml</text>
</a>
</g>
</g>
<!-- Node3&#45;&gt;Node4 -->
<g id="edge4" class="edge"><title>Node3&#45;&gt;Node4</title>
<path fill="none" stroke="midnightblue" d="M485.181,-190.5C504.765,-190.5 526.379,-190.5 546.817,-190.5"/>
<polygon fill="midnightblue" stroke="midnightblue" points="485.141,-187 475.141,-190.5 485.141,-194 485.141,-187"/>
</g>
<!-- Node8 -->
<g id="node8" class="node"><title>Node8</title>
<g id="a_node8"><a xlink:href="classCLinearParameterAdaptation.html#a48805c5ccc995e73c5b387724845e6f7" target="_top" xlink:title="CLinearParameterAdaptation\l::fromXml">
<polygon fill="white" stroke="black" points="554,-49.5 554,-79.5 709,-79.5 709,-49.5 554,-49.5"/>
<text text-anchor="start" x="562" y="-67.5" font-family="Verdana" font-size="10.00">CLinearParameterAdaptation</text>
<text text-anchor="middle" x="631.5" y="-56.5" font-family="Verdana" font-size="10.00">::fromXml</text>
</a>
</g>
</g>
<!-- Node7&#45;&gt;Node8 -->
<g id="edge9" class="edge"><title>Node7&#45;&gt;Node8</title>
<path fill="none" stroke="midnightblue" d="M489.941,-64.5C510.538,-64.5 533.034,-64.5 553.871,-64.5"/>
<polygon fill="midnightblue" stroke="midnightblue" points="489.681,-61.0001 479.681,-64.5 489.681,-68.0001 489.681,-61.0001"/>
</g>
<!-- Node9 -->
<g id="node9" class="node"><title>Node9</title>
<g id="a_node9"><a xlink:href="classCLogarithmicParameterAdaptation.html#ad493648bd491eb49dd10ff611e4cab10" target="_top" xlink:title="CLogarithmicParameterAdaptation\l::fromXml">
<polygon fill="white" stroke="black" points="752,-49.5 752,-79.5 934,-79.5 934,-49.5 752,-49.5"/>
<text text-anchor="start" x="760" y="-67.5" font-family="Verdana" font-size="10.00">CLogarithmicParameterAdaptation</text>
<text text-anchor="middle" x="843" y="-56.5" font-family="Verdana" font-size="10.00">::fromXml</text>
</a>
</g>
</g>
<!-- Node8&#45;&gt;Node9 -->
<g id="edge10" class="edge"><title>Node8&#45;&gt;Node9</title>
<path fill="none" stroke="midnightblue" d="M719.241,-64.5C729.997,-64.5 741.014,-64.5 751.82,-64.5"/>
<polygon fill="midnightblue" stroke="midnightblue" points="719.024,-61.0001 709.024,-64.5 719.024,-68.0001 719.024,-61.0001"/>
</g>
</g>
</svg>
