<?xml version="1.0" encoding="UTF-8" standalone="no"?>
<!DOCTYPE svg PUBLIC "-//W3C//DTD SVG 1.1//EN"
 "http://www.w3.org/Graphics/SVG/1.1/DTD/svg11.dtd">
<!-- Generated by graphviz version 2.38.0 (20140413.2041)
 -->
<!-- Title: CPathNavigator::next Pages: 1 -->
<svg width="765pt" height="302pt"
 viewBox="0.00 0.00 765.00 301.50" xmlns="http://www.w3.org/2000/svg" xmlns:xlink="http://www.w3.org/1999/xlink">
<g id="graph0" class="graph" transform="scale(1 1) rotate(0) translate(4 297.5)">
<title>CPathNavigator::next</title>
<polygon fill="white" stroke="none" points="-4,4 -4,-297.5 761,-297.5 761,4 -4,4"/>
<!-- Node1 -->
<g id="node1" class="node"><title>Node1</title>
<polygon fill="#bfbfbf" stroke="black" points="0,-116.5 0,-135.5 118,-135.5 118,-116.5 0,-116.5"/>
<text text-anchor="middle" x="59" y="-123.5" font-family="Verdana" font-size="10.00">CPathNavigator::next</text>
</g>
<!-- Node2 -->
<g id="node2" class="node"><title>Node2</title>
<g id="a_node2"><a xlink:href="classCConfigurableElement.html#a1dae2debee4a443ce572f15e75247808" target="_top" xlink:title="CConfigurableElement\l::accessValue">
<polygon fill="white" stroke="black" points="174.5,-211 174.5,-241 297.5,-241 297.5,-211 174.5,-211"/>
<text text-anchor="start" x="182.5" y="-229" font-family="Verdana" font-size="10.00">CConfigurableElement</text>
<text text-anchor="middle" x="236" y="-218" font-family="Verdana" font-size="10.00">::accessValue</text>
</a>
</g>
</g>
<!-- Node1&#45;&gt;Node2 -->
<g id="edge1" class="edge"><title>Node1&#45;&gt;Node2</title>
<path fill="none" stroke="midnightblue" d="M78.9122,-142.646C97.1508,-158.056 126.032,-180.815 154,-196 164.411,-201.653 176.111,-206.673 187.311,-210.914"/>
<polygon fill="midnightblue" stroke="midnightblue" points="80.7315,-139.595 70.8642,-135.736 76.1718,-144.906 80.7315,-139.595"/>
</g>
<!-- Node3 -->
<g id="node3" class="node"><title>Node3</title>
<g id="a_node3"><a xlink:href="classCElement.html#a182dcfb7ab154cc97cff047c5f5539f5" target="_top" xlink:title="CElement::findDescendant">
<polygon fill="white" stroke="black" points="164,-116.5 164,-135.5 308,-135.5 308,-116.5 164,-116.5"/>
<text text-anchor="middle" x="236" y="-123.5" font-family="Verdana" font-size="10.00">CElement::findDescendant</text>
</a>
</g>
</g>
<!-- Node1&#45;&gt;Node3 -->
<g id="edge3" class="edge"><title>Node1&#45;&gt;Node3</title>
<path fill="none" stroke="midnightblue" d="M128.374,-126C140.033,-126 152.169,-126 163.898,-126"/>
<polygon fill="midnightblue" stroke="midnightblue" points="128.273,-122.5 118.272,-126 128.272,-129.5 128.273,-122.5"/>
</g>
<!-- Node4 -->
<g id="node4" class="node"><title>Node4</title>
<g id="a_node4"><a xlink:href="classCElementLocator.html#a94ddc34b50d96cd1cc78f43e3014ce36" target="_top" xlink:title="CElementLocator::locate">
<polygon fill="white" stroke="black" points="373.5,-176.5 373.5,-195.5 507.5,-195.5 507.5,-176.5 373.5,-176.5"/>
<text text-anchor="middle" x="440.5" y="-183.5" font-family="Verdana" font-size="10.00">CElementLocator::locate</text>
</a>
</g>
</g>
<!-- Node1&#45;&gt;Node4 -->
<g id="edge13" class="edge"><title>Node1&#45;&gt;Node4</title>
<path fill="none" stroke="midnightblue" d="M88.4763,-139.755C106.762,-147.942 131.262,-157.731 154,-163 227.876,-180.118 315.049,-185.003 373.461,-186.155"/>
<polygon fill="midnightblue" stroke="midnightblue" points="89.8147,-136.518 79.2658,-135.532 86.8971,-142.881 89.8147,-136.518"/>
</g>
<!-- Node12 -->
<g id="node12" class="node"><title>Node12</title>
<g id="a_node12"><a xlink:href="classCInstanceConfigurableElement.html#a4355916fa36efbe5fb62894d0a5dc95f" target="_top" xlink:title="CInstanceConfigurableElement\l::checkPathExhausted">
<polygon fill="white" stroke="black" points="154,-10 154,-40 318,-40 318,-10 154,-10"/>
<text text-anchor="start" x="162" y="-28" font-family="Verdana" font-size="10.00">CInstanceConfigurableElement</text>
<text text-anchor="middle" x="236" y="-17" font-family="Verdana" font-size="10.00">::checkPathExhausted</text>
</a>
</g>
</g>
<!-- Node1&#45;&gt;Node12 -->
<g id="edge14" class="edge"><title>Node1&#45;&gt;Node12</title>
<path fill="none" stroke="midnightblue" d="M79.3302,-109.499C97.6658,-94.4238 126.437,-72.2271 154,-57 165.514,-50.6389 178.557,-44.9056 190.76,-40.108"/>
<polygon fill="midnightblue" stroke="midnightblue" points="76.6554,-107.172 71.2183,-116.266 81.1394,-112.548 76.6554,-107.172"/>
</g>
<!-- Node14 -->
<g id="node14" class="node"><title>Node14</title>
<g id="a_node14"><a xlink:href="classCPathNavigator.html#ad588f1802ca5e196e96972273f36a80d" target="_top" xlink:title="CPathNavigator::navigate\lThrough">
<polygon fill="white" stroke="black" points="167,-67 167,-97 305,-97 305,-67 167,-67"/>
<text text-anchor="start" x="175" y="-85" font-family="Verdana" font-size="10.00">CPathNavigator::navigate</text>
<text text-anchor="middle" x="236" y="-74" font-family="Verdana" font-size="10.00">Through</text>
</a>
</g>
</g>
<!-- Node1&#45;&gt;Node14 -->
<g id="edge16" class="edge"><title>Node1&#45;&gt;Node14</title>
<path fill="none" stroke="midnightblue" d="M107.831,-113.974C128.589,-108.755 153.125,-102.586 175.081,-97.0654"/>
<polygon fill="midnightblue" stroke="midnightblue" points="106.817,-110.62 97.9724,-116.453 108.524,-117.409 106.817,-110.62"/>
</g>
<!-- Node2&#45;&gt;Node2 -->
<g id="edge2" class="edge"><title>Node2&#45;&gt;Node2</title>
<path fill="none" stroke="midnightblue" d="M204.727,-251.458C208.608,-256.179 219.033,-259.5 236,-259.5 263.844,-259.5 274.068,-250.557 266.672,-241.159"/>
<polygon fill="midnightblue" stroke="midnightblue" points="208.239,-251.346 205.328,-241.159 201.251,-250.938 208.239,-251.346"/>
</g>
<!-- Node3&#45;&gt;Node3 -->
<g id="edge4" class="edge"><title>Node3&#45;&gt;Node3</title>
<path fill="none" stroke="midnightblue" d="M203.017,-143.891C203.5,-149.541 214.494,-154 236,-154 267.281,-154 276.323,-144.565 263.127,-135.757"/>
<polygon fill="midnightblue" stroke="midnightblue" points="205.871,-145.917 208.873,-135.757 200.19,-141.827 205.871,-145.917"/>
</g>
<!-- Node3&#45;&gt;Node4 -->
<g id="edge5" class="edge"><title>Node3&#45;&gt;Node4</title>
<path fill="none" stroke="midnightblue" d="M278.861,-138.403C316.973,-149.696 372.451,-166.133 407.229,-176.438"/>
<polygon fill="midnightblue" stroke="midnightblue" points="279.669,-134.992 269.087,-135.507 277.68,-141.704 279.669,-134.992"/>
</g>
<!-- Node9 -->
<g id="node9" class="node"><title>Node9</title>
<g id="a_node9"><a xlink:href="classCParameterMgr.html#ad3ee51d6a9f2e0d0ea143a238120b5af" target="_top" xlink:title="Returns the CConfigurableElement corresponding to the path given in argument. ">
<polygon fill="white" stroke="black" points="354,-77 354,-107 527,-107 527,-77 354,-77"/>
<text text-anchor="start" x="362" y="-95" font-family="Verdana" font-size="10.00">CParameterMgr::getConfigurable</text>
<text text-anchor="middle" x="440.5" y="-84" font-family="Verdana" font-size="10.00">Element</text>
</a>
</g>
</g>
<!-- Node3&#45;&gt;Node9 -->
<g id="edge10" class="edge"><title>Node3&#45;&gt;Node9</title>
<path fill="none" stroke="midnightblue" d="M303.929,-114.763C319.841,-112.091 337.035,-109.204 353.661,-106.412"/>
<polygon fill="midnightblue" stroke="midnightblue" points="302.959,-111.376 293.677,-116.484 304.118,-118.28 302.959,-111.376"/>
</g>
<!-- Node5 -->
<g id="node5" class="node"><title>Node5</title>
<g id="a_node5"><a xlink:href="classCParameterMgr.html#a25055f536c2d537e86852c87a4e1a061" target="_top" xlink:title="CParameterMgr::accessConfiguration\lValue">
<polygon fill="white" stroke="black" points="563,-175 563,-205 757,-205 757,-175 563,-175"/>
<text text-anchor="start" x="571" y="-193" font-family="Verdana" font-size="10.00">CParameterMgr::accessConfiguration</text>
<text text-anchor="middle" x="660" y="-182" font-family="Verdana" font-size="10.00">Value</text>
</a>
</g>
</g>
<!-- Node4&#45;&gt;Node5 -->
<g id="edge6" class="edge"><title>Node4&#45;&gt;Node5</title>
<path fill="none" stroke="midnightblue" d="M518.003,-187.407C532.456,-187.673 547.744,-187.954 562.713,-188.229"/>
<polygon fill="midnightblue" stroke="midnightblue" points="517.706,-183.901 507.643,-187.216 517.577,-190.9 517.706,-183.901"/>
</g>
<!-- Node6 -->
<g id="node6" class="node"><title>Node6</title>
<g id="a_node6"><a xlink:href="classCParameterMgr.html#ae9941471fb32f02b3620cf46cd13ebbb" target="_top" xlink:title="CParameterMgr::addConfigurable\lElementToDomain">
<polygon fill="white" stroke="black" points="572,-126 572,-156 748,-156 748,-126 572,-126"/>
<text text-anchor="start" x="580" y="-144" font-family="Verdana" font-size="10.00">CParameterMgr::addConfigurable</text>
<text text-anchor="middle" x="660" y="-133" font-family="Verdana" font-size="10.00">ElementToDomain</text>
</a>
</g>
</g>
<!-- Node4&#45;&gt;Node6 -->
<g id="edge7" class="edge"><title>Node4&#45;&gt;Node6</title>
<path fill="none" stroke="midnightblue" d="M497.692,-174.374C524.739,-168.778 557.496,-162.001 586.406,-156.02"/>
<polygon fill="midnightblue" stroke="midnightblue" points="496.71,-171.003 487.626,-176.457 498.128,-177.858 496.71,-171.003"/>
</g>
<!-- Node7 -->
<g id="node7" class="node"><title>Node7</title>
<g id="a_node7"><a xlink:href="classCParameterMgr.html#a4f307490c67f2dde0b08e638500dd5d4" target="_top" xlink:title="CParameterMgr::removeConfigurable\lElementFromDomain">
<polygon fill="white" stroke="black" points="563,-263 563,-293 757,-293 757,-263 563,-263"/>
<text text-anchor="start" x="571" y="-281" font-family="Verdana" font-size="10.00">CParameterMgr::removeConfigurable</text>
<text text-anchor="middle" x="660" y="-270" font-family="Verdana" font-size="10.00">ElementFromDomain</text>
</a>
</g>
</g>
<!-- Node4&#45;&gt;Node7 -->
<g id="edge8" class="edge"><title>Node4&#45;&gt;Node7</title>
<path fill="none" stroke="midnightblue" d="M464.934,-201.237C488.79,-216.183 527.246,-238.746 563,-253 572.359,-256.731 582.454,-260.062 592.459,-262.982"/>
<polygon fill="midnightblue" stroke="midnightblue" points="466.565,-198.127 456.246,-195.725 462.815,-204.038 466.565,-198.127"/>
</g>
<!-- Node8 -->
<g id="node8" class="node"><title>Node8</title>
<g id="a_node8"><a xlink:href="classCParameterMgr.html#a042735242f31241743085d2d9d7edcc5" target="_top" xlink:title="CParameterMgr::split">
<polygon fill="white" stroke="black" points="601.5,-224.5 601.5,-243.5 718.5,-243.5 718.5,-224.5 601.5,-224.5"/>
<text text-anchor="middle" x="660" y="-231.5" font-family="Verdana" font-size="10.00">CParameterMgr::split</text>
</a>
</g>
</g>
<!-- Node4&#45;&gt;Node8 -->
<g id="edge9" class="edge"><title>Node4&#45;&gt;Node8</title>
<path fill="none" stroke="midnightblue" d="M489.608,-197.938C511.89,-203.35 538.747,-209.708 563,-215 577.773,-218.224 593.878,-221.502 608.602,-224.408"/>
<polygon fill="midnightblue" stroke="midnightblue" points="490.263,-194.495 479.718,-195.525 488.603,-201.295 490.263,-194.495"/>
</g>
<!-- Node10 -->
<g id="node10" class="node"><title>Node10</title>
<g id="a_node10"><a xlink:href="classCParameterMgr.html#ada6dd503a49385c74029b7c0e8e1ba0e" target="_top" xlink:title="CParameterMgr::createParameter\lHandle">
<polygon fill="white" stroke="black" points="570.5,-77 570.5,-107 749.5,-107 749.5,-77 570.5,-77"/>
<text text-anchor="start" x="578.5" y="-95" font-family="Verdana" font-size="10.00">CParameterMgr::createParameter</text>
<text text-anchor="middle" x="660" y="-84" font-family="Verdana" font-size="10.00">Handle</text>
</a>
</g>
</g>
<!-- Node9&#45;&gt;Node10 -->
<g id="edge11" class="edge"><title>Node9&#45;&gt;Node10</title>
<path fill="none" stroke="midnightblue" d="M537.173,-92C548.157,-92 559.322,-92 570.21,-92"/>
<polygon fill="midnightblue" stroke="midnightblue" points="537.15,-88.5001 527.15,-92 537.15,-95.5001 537.15,-88.5001"/>
</g>
<!-- Node11 -->
<g id="node11" class="node"><title>Node11</title>
<g id="a_node11"><a xlink:href="classCParameterMgr.html#a00467972dcf35bd3036a536f5c328436" target="_top" xlink:title="Returns the element mapping corresponding to the path given in parameter. ">
<polygon fill="white" stroke="black" points="578,-28 578,-58 742,-58 742,-28 578,-28"/>
<text text-anchor="start" x="586" y="-46" font-family="Verdana" font-size="10.00">CParameterMgr::getParameter</text>
<text text-anchor="middle" x="660" y="-35" font-family="Verdana" font-size="10.00">Mapping</text>
</a>
</g>
</g>
<!-- Node9&#45;&gt;Node11 -->
<g id="edge12" class="edge"><title>Node9&#45;&gt;Node11</title>
<path fill="none" stroke="midnightblue" d="M518.105,-74.7419C542.34,-69.282 568.915,-63.295 592.391,-58.0062"/>
<polygon fill="midnightblue" stroke="midnightblue" points="517.222,-71.3531 508.235,-76.9654 518.76,-78.1819 517.222,-71.3531"/>
</g>
<!-- Node13 -->
<g id="node13" class="node"><title>Node13</title>
<g id="a_node13"><a xlink:href="classCBaseParameter.html#a4a9b3e3a2d1ea65a8dc7048559db8dc2" target="_top" xlink:title="CBaseParameter::accessValue">
<polygon fill="white" stroke="black" points="359,-0.5 359,-19.5 522,-19.5 522,-0.5 359,-0.5"/>
<text text-anchor="middle" x="440.5" y="-7.5" font-family="Verdana" font-size="10.00">CBaseParameter::accessValue</text>
</a>
</g>
</g>
<!-- Node12&#45;&gt;Node13 -->
<g id="edge15" class="edge"><title>Node12&#45;&gt;Node13</title>
<path fill="none" stroke="midnightblue" d="M328.342,-18.2339C338.547,-17.478 348.888,-16.712 358.944,-15.9671"/>
<polygon fill="midnightblue" stroke="midnightblue" points="327.912,-14.7561 318.198,-18.9854 328.429,-21.737 327.912,-14.7561"/>
</g>
<!-- Node14&#45;&gt;Node9 -->
<g id="edge17" class="edge"><title>Node14&#45;&gt;Node9</title>
<path fill="none" stroke="midnightblue" d="M315.297,-85.8665C327.949,-86.4913 341.106,-87.141 353.92,-87.7738"/>
<polygon fill="midnightblue" stroke="midnightblue" points="315.435,-82.3692 305.275,-85.3716 315.09,-89.3607 315.435,-82.3692"/>
</g>
<!-- Node14&#45;&gt;Node11 -->
<g id="edge18" class="edge"><title>Node14&#45;&gt;Node11</title>
<path fill="none" stroke="midnightblue" d="M315.512,-71.397C328.361,-69.8163 341.543,-68.2878 354,-67 429.816,-59.1618 516.47,-52.5699 577.989,-48.2899"/>
<polygon fill="midnightblue" stroke="midnightblue" points="314.787,-67.9602 305.298,-72.6723 315.655,-74.9063 314.787,-67.9602"/>
</g>
</g>
</svg>
