<?xml version="1.0" encoding="UTF-8" standalone="no"?>
<!DOCTYPE svg PUBLIC "-//W3C//DTD SVG 1.1//EN"
 "http://www.w3.org/Graphics/SVG/1.1/DTD/svg11.dtd">
<!-- Generated by graphviz version 2.38.0 (20140413.2041)
 -->
<!-- Title: parameter/CommandHandlerWrapper.h Pages: 1 -->
<svg width="338pt" height="106pt"
 viewBox="0.00 0.00 338.00 106.00" xmlns="http://www.w3.org/2000/svg" xmlns:xlink="http://www.w3.org/1999/xlink">
<g id="graph0" class="graph" transform="scale(1 1) rotate(0) translate(4 102)">
<title>parameter/CommandHandlerWrapper.h</title>
<polygon fill="white" stroke="none" points="-4,4 -4,-102 334,-102 334,4 -4,4"/>
<!-- Node1 -->
<g id="node1" class="node"><title>Node1</title>
<polygon fill="#bfbfbf" stroke="black" points="87,-67.5 87,-97.5 245,-97.5 245,-67.5 87,-67.5"/>
<text text-anchor="start" x="95" y="-85.5" font-family="Verdana" font-size="10.00">parameter/CommandHandler</text>
<text text-anchor="middle" x="166" y="-74.5" font-family="Verdana" font-size="10.00">Wrapper.h</text>
</g>
<!-- Node2 -->
<g id="node2" class="node"><title>Node2</title>
<g id="a_node2"><a xlink:href="CommandHandlerWrapper_8cpp.html" target="_top" xlink:title="parameter/CommandHandler\lWrapper.cpp">
<polygon fill="white" stroke="black" points="0,-0.5 0,-30.5 158,-30.5 158,-0.5 0,-0.5"/>
<text text-anchor="start" x="8" y="-18.5" font-family="Verdana" font-size="10.00">parameter/CommandHandler</text>
<text text-anchor="middle" x="79" y="-7.5" font-family="Verdana" font-size="10.00">Wrapper.cpp</text>
</a>
</g>
</g>
<!-- Node1&#45;&gt;Node2 -->
<g id="edge1" class="edge"><title>Node1&#45;&gt;Node2</title>
<path fill="none" stroke="midnightblue" d="M138.786,-61.1677C125.482,-51.2283 109.804,-39.5144 97.8409,-30.5765"/>
<polygon fill="midnightblue" stroke="midnightblue" points="137.016,-64.2145 147.122,-67.396 141.206,-58.6068 137.016,-64.2145"/>
</g>
<!-- Node3 -->
<g id="node3" class="node"><title>Node3</title>
<g id="a_node3"><a xlink:href="ParameterMgrFullConnector_8cpp.html" target="_top" xlink:title="parameter/ParameterMgrFull\lConnector.cpp">
<polygon fill="white" stroke="black" points="176,-0.5 176,-30.5 330,-30.5 330,-0.5 176,-0.5"/>
<text text-anchor="start" x="184" y="-18.5" font-family="Verdana" font-size="10.00">parameter/ParameterMgrFull</text>
<text text-anchor="middle" x="253" y="-7.5" font-family="Verdana" font-size="10.00">Connector.cpp</text>
</a>
</g>
</g>
<!-- Node1&#45;&gt;Node3 -->
<g id="edge2" class="edge"><title>Node1&#45;&gt;Node3</title>
<path fill="none" stroke="midnightblue" d="M193.214,-61.1677C206.518,-51.2283 222.196,-39.5144 234.159,-30.5765"/>
<polygon fill="midnightblue" stroke="midnightblue" points="190.794,-58.6068 184.878,-67.396 194.984,-64.2145 190.794,-58.6068"/>
</g>
</g>
</svg>
