<?xml version="1.0" encoding="UTF-8" standalone="no"?>
<!DOCTYPE svg PUBLIC "-//W3C//DTD SVG 1.1//EN"
 "http://www.w3.org/Graphics/SVG/1.1/DTD/svg11.dtd">
<!-- Generated by graphviz version 2.36.0 (20140111.2315)
 -->
<!-- Title: parameter/CompoundRule.h Pages: 1 -->
<svg width="559pt" height="252pt"
 viewBox="0.00 0.00 559.00 252.00" xmlns="http://www.w3.org/2000/svg" xmlns:xlink="http://www.w3.org/1999/xlink">
<g id="graph0" class="graph" transform="scale(1 1) rotate(0) translate(4 248)">
<title>parameter/CompoundRule.h</title>
<polygon fill="white" stroke="none" points="-4,4 -4,-248 555,-248 555,4 -4,4"/>
<!-- Node1 -->
<g id="node1" class="node"><title>Node1</title>
<polygon fill="#bfbfbf" stroke="black" points="0,-224.5 0,-243.5 152,-243.5 152,-224.5 0,-224.5"/>
<text text-anchor="middle" x="76" y="-231.5" font-family="Verdana" font-size="10.00">parameter/CompoundRule.h</text>
</g>
<!-- Node2 -->
<g id="node2" class="node"><title>Node2</title>
<g id="a_node2"><a xlink:href="Rule_8h.html" target="_top" xlink:title="Rule.h">
<polygon fill="white" stroke="black" points="79.5,-168.5 79.5,-187.5 124.5,-187.5 124.5,-168.5 79.5,-168.5"/>
<text text-anchor="middle" x="102" y="-175.5" font-family="Verdana" font-size="10.00">Rule.h</text>
</a>
</g>
</g>
<!-- Node1&#45;&gt;Node2 -->
<g id="edge1" class="edge"><title>Node1&#45;&gt;Node2</title>
<path fill="none" stroke="midnightblue" d="M80.2934,-224.083C83.8523,-216.691 89.0225,-205.953 93.4243,-196.811"/>
<polygon fill="midnightblue" stroke="midnightblue" points="96.6018,-198.279 97.7865,-187.751 90.2948,-195.243 96.6018,-198.279"/>
</g>
<!-- Node4 -->
<g id="node4" class="node"><title>Node4</title>
<polygon fill="white" stroke="#bfbfbf" points="86,-0.5 86,-19.5 130,-19.5 130,-0.5 86,-0.5"/>
<text text-anchor="middle" x="108" y="-7.5" font-family="Verdana" font-size="10.00">string</text>
</g>
<!-- Node1&#45;&gt;Node4 -->
<g id="edge14" class="edge"><title>Node1&#45;&gt;Node4</title>
<path fill="none" stroke="midnightblue" d="M74.0029,-224.153C71.4446,-211.631 67.6105,-188.03 70,-168 76.0976,-116.887 92.9864,-58.3589 102.057,-29.3249"/>
<polygon fill="midnightblue" stroke="midnightblue" points="105.417,-30.3089 105.112,-19.7184 98.7462,-28.1875 105.417,-30.3089"/>
</g>
<!-- Node3 -->
<g id="node3" class="node"><title>Node3</title>
<g id="a_node3"><a xlink:href="Element_8h.html" target="_top" xlink:title="Element.h">
<polygon fill="white" stroke="black" points="246.5,-112.5 246.5,-131.5 311.5,-131.5 311.5,-112.5 246.5,-112.5"/>
<text text-anchor="middle" x="279" y="-119.5" font-family="Verdana" font-size="10.00">Element.h</text>
</a>
</g>
</g>
<!-- Node2&#45;&gt;Node3 -->
<g id="edge2" class="edge"><title>Node2&#45;&gt;Node3</title>
<path fill="none" stroke="midnightblue" d="M124.777,-170.051C154.18,-161.081 205.757,-145.345 241.108,-134.56"/>
<polygon fill="midnightblue" stroke="midnightblue" points="242.522,-137.788 251.065,-131.522 240.479,-131.093 242.522,-137.788"/>
</g>
<!-- Node2&#45;&gt;Node4 -->
<g id="edge13" class="edge"><title>Node2&#45;&gt;Node4</title>
<path fill="none" stroke="midnightblue" d="M102.323,-168.075C103.267,-141.945 106.041,-65.2106 107.329,-29.577"/>
<polygon fill="midnightblue" stroke="midnightblue" points="110.827,-29.688 107.69,-19.5681 103.831,-29.4351 110.827,-29.688"/>
</g>
<!-- Node3&#45;&gt;Node4 -->
<g id="edge3" class="edge"><title>Node3&#45;&gt;Node4</title>
<path fill="none" stroke="midnightblue" d="M246.34,-116.559C217.314,-111.187 175.095,-99.7213 146,-76 131,-63.7699 120.639,-43.9437 114.57,-29.3991"/>
<polygon fill="midnightblue" stroke="midnightblue" points="117.777,-27.9885 110.903,-19.926 111.249,-30.5152 117.777,-27.9885"/>
</g>
<!-- Node5 -->
<g id="node5" class="node"><title>Node5</title>
<polygon fill="white" stroke="#bfbfbf" points="504.5,-0.5 504.5,-19.5 551.5,-19.5 551.5,-0.5 504.5,-0.5"/>
<text text-anchor="middle" x="528" y="-7.5" font-family="Verdana" font-size="10.00">vector</text>
</g>
<!-- Node3&#45;&gt;Node5 -->
<g id="edge4" class="edge"><title>Node3&#45;&gt;Node5</title>
<path fill="none" stroke="midnightblue" d="M311.703,-117.973C365.731,-112.385 470.499,-98.8806 499,-76 513.282,-64.5341 520.747,-44.5561 524.502,-29.7662"/>
<polygon fill="midnightblue" stroke="midnightblue" points="527.987,-30.2111 526.701,-19.6946 521.148,-28.7177 527.987,-30.2111"/>
</g>
<!-- Node6 -->
<g id="node6" class="node"><title>Node6</title>
<polygon fill="white" stroke="#bfbfbf" points="411.5,-0.5 411.5,-19.5 464.5,-19.5 464.5,-0.5 411.5,-0.5"/>
<text text-anchor="middle" x="438" y="-7.5" font-family="Verdana" font-size="10.00">stdint.h</text>
</g>
<!-- Node3&#45;&gt;Node6 -->
<g id="edge5" class="edge"><title>Node3&#45;&gt;Node6</title>
<path fill="none" stroke="midnightblue" d="M311.52,-118.619C363.346,-114.073 460.986,-102.182 482,-76 495.268,-59.4693 476.168,-39.0299 459.136,-25.5346"/>
<polygon fill="midnightblue" stroke="midnightblue" points="461.196,-22.7042 451.092,-19.515 457.002,-28.3087 461.196,-22.7042"/>
</g>
<!-- Node7 -->
<g id="node7" class="node"><title>Node7</title>
<polygon fill="white" stroke="#bfbfbf" points="155,-56.5 155,-75.5 185,-75.5 185,-56.5 155,-56.5"/>
<text text-anchor="middle" x="170" y="-63.5" font-family="Verdana" font-size="10.00">list</text>
</g>
<!-- Node3&#45;&gt;Node7 -->
<g id="edge6" class="edge"><title>Node3&#45;&gt;Node7</title>
<path fill="none" stroke="midnightblue" d="M261.487,-112.324C243.2,-103.264 214.394,-88.9933 193.996,-78.8881"/>
<polygon fill="midnightblue" stroke="midnightblue" points="195.527,-75.7407 185.013,-74.4376 192.42,-82.0131 195.527,-75.7407"/>
</g>
<!-- Node8 -->
<g id="node8" class="node"><title>Node8</title>
<polygon fill="white" stroke="#bfbfbf" points="203,-56.5 203,-75.5 267,-75.5 267,-56.5 203,-56.5"/>
<text text-anchor="middle" x="235" y="-63.5" font-family="Verdana" font-size="10.00">XmlSink.h</text>
</g>
<!-- Node3&#45;&gt;Node8 -->
<g id="edge7" class="edge"><title>Node3&#45;&gt;Node8</title>
<path fill="none" stroke="midnightblue" d="M271.734,-112.083C265.455,-104.377 256.212,-93.0333 248.569,-83.6531"/>
<polygon fill="midnightblue" stroke="midnightblue" points="251.161,-81.2926 242.131,-75.7511 245.734,-85.7143 251.161,-81.2926"/>
</g>
<!-- Node9 -->
<g id="node9" class="node"><title>Node9</title>
<polygon fill="white" stroke="#bfbfbf" points="285.5,-56.5 285.5,-75.5 362.5,-75.5 362.5,-56.5 285.5,-56.5"/>
<text text-anchor="middle" x="324" y="-63.5" font-family="Verdana" font-size="10.00">XmlSource.h</text>
</g>
<!-- Node3&#45;&gt;Node9 -->
<g id="edge8" class="edge"><title>Node3&#45;&gt;Node9</title>
<path fill="none" stroke="midnightblue" d="M286.431,-112.083C292.853,-104.377 302.306,-93.0333 310.122,-83.6531"/>
<polygon fill="midnightblue" stroke="midnightblue" points="312.994,-85.674 316.707,-75.7511 307.617,-81.1927 312.994,-85.674"/>
</g>
<!-- Node10 -->
<g id="node10" class="node"><title>Node10</title>
<g id="a_node10"><a xlink:href="PathNavigator_8h.html" target="_top" xlink:title="PathNavigator.h">
<polygon fill="white" stroke="black" points="381,-56.5 381,-75.5 473,-75.5 473,-56.5 381,-56.5"/>
<text text-anchor="middle" x="427" y="-63.5" font-family="Verdana" font-size="10.00">PathNavigator.h</text>
</a>
</g>
</g>
<!-- Node3&#45;&gt;Node10 -->
<g id="edge9" class="edge"><title>Node3&#45;&gt;Node10</title>
<path fill="none" stroke="midnightblue" d="M302.451,-112.444C327.133,-103.438 366.185,-89.1891 393.977,-79.049"/>
<polygon fill="midnightblue" stroke="midnightblue" points="395.464,-82.2321 403.659,-75.5164 393.065,-75.6561 395.464,-82.2321"/>
</g>
<!-- Node10&#45;&gt;Node4 -->
<g id="edge11" class="edge"><title>Node10&#45;&gt;Node4</title>
<path fill="none" stroke="midnightblue" d="M380.955,-57.2056C315.469,-46.1202 197.08,-26.0794 140.206,-16.4518"/>
<polygon fill="midnightblue" stroke="midnightblue" points="140.451,-12.9435 130.007,-14.7253 139.282,-19.8453 140.451,-12.9435"/>
</g>
<!-- Node10&#45;&gt;Node5 -->
<g id="edge10" class="edge"><title>Node10&#45;&gt;Node5</title>
<path fill="none" stroke="midnightblue" d="M443.227,-56.324C459.351,-47.7034 484.3,-34.3643 502.964,-24.3855"/>
<polygon fill="midnightblue" stroke="midnightblue" points="504.644,-27.456 511.813,-19.6545 501.344,-21.283 504.644,-27.456"/>
</g>
<!-- Node10&#45;&gt;Node6 -->
<g id="edge12" class="edge"><title>Node10&#45;&gt;Node6</title>
<path fill="none" stroke="midnightblue" d="M428.816,-56.083C430.274,-48.9272 432.371,-38.6353 434.193,-29.6911"/>
<polygon fill="midnightblue" stroke="midnightblue" points="437.651,-30.2485 436.217,-19.7511 430.792,-28.8512 437.651,-30.2485"/>
</g>
</g>
</svg>
