<?xml version="1.0" encoding="UTF-8" standalone="no"?>
<!DOCTYPE svg PUBLIC "-//W3C//DTD SVG 1.1//EN"
 "http://www.w3.org/Graphics/SVG/1.1/DTD/svg11.dtd">
<!-- Generated by graphviz version 2.36.0 (20140111.2315)
 -->
<!-- Title: parameter/ComponentInstance.h Pages: 1 -->
<svg width="372pt" height="84pt"
 viewBox="0.00 0.00 372.00 84.00" xmlns="http://www.w3.org/2000/svg" xmlns:xlink="http://www.w3.org/1999/xlink">
<g id="graph0" class="graph" transform="scale(1 1) rotate(0) translate(4 80)">
<title>parameter/ComponentInstance.h</title>
<polygon fill="white" stroke="none" points="-4,4 -4,-80 368,-80 368,4 -4,4"/>
<!-- Node1 -->
<g id="node1" class="node"><title>Node1</title>
<polygon fill="#bfbfbf" stroke="black" points="101,-56.5 101,-75.5 277,-75.5 277,-56.5 101,-56.5"/>
<text text-anchor="middle" x="189" y="-63.5" font-family="Verdana" font-size="10.00">parameter/ComponentInstance.h</text>
</g>
<!-- Node2 -->
<g id="node2" class="node"><title>Node2</title>
<g id="a_node2"><a xlink:href="ComponentInstance_8cpp.html" target="_top" xlink:title="parameter/ComponentInstance.cpp">
<polygon fill="white" stroke="black" points="0,-0.5 0,-19.5 188,-19.5 188,-0.5 0,-0.5"/>
<text text-anchor="middle" x="94" y="-7.5" font-family="Verdana" font-size="10.00">parameter/ComponentInstance.cpp</text>
</a>
</g>
</g>
<!-- Node1&#45;&gt;Node2 -->
<g id="edge1" class="edge"><title>Node1&#45;&gt;Node2</title>
<path fill="none" stroke="midnightblue" d="M164.682,-51.1774C147.201,-41.2407 124.17,-28.1492 109.226,-19.6545"/>
<polygon fill="midnightblue" stroke="midnightblue" points="163.313,-54.425 173.737,-56.324 166.773,-48.3395 163.313,-54.425"/>
</g>
<!-- Node3 -->
<g id="node3" class="node"><title>Node3</title>
<g id="a_node3"><a xlink:href="ParameterMgr_8cpp.html" target="_top" xlink:title="parameter/ParameterMgr.cpp">
<polygon fill="white" stroke="black" points="206,-0.5 206,-19.5 364,-19.5 364,-0.5 206,-0.5"/>
<text text-anchor="middle" x="285" y="-7.5" font-family="Verdana" font-size="10.00">parameter/ParameterMgr.cpp</text>
</a>
</g>
</g>
<!-- Node1&#45;&gt;Node3 -->
<g id="edge2" class="edge"><title>Node1&#45;&gt;Node3</title>
<path fill="none" stroke="midnightblue" d="M213.574,-51.1774C231.239,-41.2407 254.513,-28.1492 269.614,-19.6545"/>
<polygon fill="midnightblue" stroke="midnightblue" points="211.424,-48.3708 204.424,-56.324 214.856,-54.4718 211.424,-48.3708"/>
</g>
</g>
</svg>
