<?xml version="1.0" encoding="UTF-8" standalone="no"?>
<!DOCTYPE svg PUBLIC "-//W3C//DTD SVG 1.1//EN"
 "http://www.w3.org/Graphics/SVG/1.1/DTD/svg11.dtd">
<!-- Generated by graphviz version 2.38.0 (20140413.2041)
 -->
<!-- Title: parameter/CompoundRule.cpp Pages: 1 -->
<svg width="618pt" height="364pt"
 viewBox="0.00 0.00 618.00 364.00" xmlns="http://www.w3.org/2000/svg" xmlns:xlink="http://www.w3.org/1999/xlink">
<g id="graph0" class="graph" transform="scale(1 1) rotate(0) translate(4 360)">
<title>parameter/CompoundRule.cpp</title>
<polygon fill="white" stroke="none" points="-4,4 -4,-360 614,-360 614,4 -4,4"/>
<!-- Node1 -->
<g id="node1" class="node"><title>Node1</title>
<polygon fill="#bfbfbf" stroke="black" points="158.5,-336.5 158.5,-355.5 321.5,-355.5 321.5,-336.5 158.5,-336.5"/>
<text text-anchor="middle" x="240" y="-343.5" font-family="Verdana" font-size="10.00">parameter/CompoundRule.cpp</text>
</g>
<!-- Node2 -->
<g id="node2" class="node"><title>Node2</title>
<g id="a_node2"><a xlink:href="CompoundRule_8h.html" target="_top" xlink:title="CompoundRule.h">
<polygon fill="white" stroke="black" points="383,-280.5 383,-299.5 481,-299.5 481,-280.5 383,-280.5"/>
<text text-anchor="middle" x="432" y="-287.5" font-family="Verdana" font-size="10.00">CompoundRule.h</text>
</a>
</g>
</g>
<!-- Node1&#45;&gt;Node2 -->
<g id="edge1" class="edge"><title>Node1&#45;&gt;Node2</title>
<path fill="none" stroke="midnightblue" d="M270.423,-336.444C303.285,-327.201 355.785,-312.436 391.974,-302.257"/>
<polygon fill="midnightblue" stroke="midnightblue" points="393.04,-305.593 401.719,-299.516 391.145,-298.855 393.04,-305.593"/>
</g>
<!-- Node14 -->
<g id="node14" class="node"><title>Node14</title>
<g id="a_node14"><a xlink:href="RuleParser_8h.html" target="_top" xlink:title="RuleParser.h">
<polygon fill="white" stroke="black" points="0,-56.5 0,-75.5 74,-75.5 74,-56.5 0,-56.5"/>
<text text-anchor="middle" x="37" y="-63.5" font-family="Verdana" font-size="10.00">RuleParser.h</text>
</a>
</g>
</g>
<!-- Node1&#45;&gt;Node14 -->
<g id="edge23" class="edge"><title>Node1&#45;&gt;Node14</title>
<path fill="none" stroke="midnightblue" d="M181.656,-336.473C125.486,-324.574 49,-296.991 49,-235 49,-235 49,-235 49,-177 49,-144.758 43.8421,-107.512 40.2895,-85.6812"/>
<polygon fill="midnightblue" stroke="midnightblue" points="43.6898,-84.7982 38.5688,-75.5232 36.7882,-85.9673 43.6898,-84.7982"/>
</g>
<!-- Node3 -->
<g id="node3" class="node"><title>Node3</title>
<g id="a_node3"><a xlink:href="Rule_8h.html" target="_top" xlink:title="Rule.h">
<polygon fill="white" stroke="black" points="409.5,-224.5 409.5,-243.5 454.5,-243.5 454.5,-224.5 409.5,-224.5"/>
<text text-anchor="middle" x="432" y="-231.5" font-family="Verdana" font-size="10.00">Rule.h</text>
</a>
</g>
</g>
<!-- Node2&#45;&gt;Node3 -->
<g id="edge2" class="edge"><title>Node2&#45;&gt;Node3</title>
<path fill="none" stroke="midnightblue" d="M432,-280.083C432,-273.006 432,-262.861 432,-253.986"/>
<polygon fill="midnightblue" stroke="midnightblue" points="435.5,-253.751 432,-243.751 428.5,-253.751 435.5,-253.751"/>
</g>
<!-- Node5 -->
<g id="node5" class="node"><title>Node5</title>
<polygon fill="white" stroke="#bfbfbf" points="419,-0.5 419,-19.5 463,-19.5 463,-0.5 419,-0.5"/>
<text text-anchor="middle" x="441" y="-7.5" font-family="Verdana" font-size="10.00">string</text>
</g>
<!-- Node2&#45;&gt;Node5 -->
<g id="edge22" class="edge"><title>Node2&#45;&gt;Node5</title>
<path fill="none" stroke="midnightblue" d="M481.11,-280.467C533.797,-268.163 610,-239.849 610,-179 610,-179 610,-179 610,-121 610,-56.2873 521.884,-27.6762 472.906,-16.7714"/>
<polygon fill="midnightblue" stroke="midnightblue" points="473.6,-13.341 463.094,-14.7065 472.159,-20.191 473.6,-13.341"/>
</g>
<!-- Node4 -->
<g id="node4" class="node"><title>Node4</title>
<g id="a_node4"><a xlink:href="Element_8h.html" target="_top" xlink:title="Element.h">
<polygon fill="white" stroke="black" points="273.5,-168.5 273.5,-187.5 338.5,-187.5 338.5,-168.5 273.5,-168.5"/>
<text text-anchor="middle" x="306" y="-175.5" font-family="Verdana" font-size="10.00">Element.h</text>
</a>
</g>
</g>
<!-- Node3&#45;&gt;Node4 -->
<g id="edge3" class="edge"><title>Node3&#45;&gt;Node4</title>
<path fill="none" stroke="midnightblue" d="M412.035,-224.444C391.391,-215.596 358.937,-201.687 335.368,-191.586"/>
<polygon fill="midnightblue" stroke="midnightblue" points="336.442,-188.239 325.872,-187.516 333.684,-194.673 336.442,-188.239"/>
</g>
<!-- Node3&#45;&gt;Node5 -->
<g id="edge21" class="edge"><title>Node3&#45;&gt;Node5</title>
<path fill="none" stroke="midnightblue" d="M440.882,-224.337C457.394,-207.794 493.038,-169.962 514,-132 526.705,-108.992 528.721,-101.932 533,-76 534.447,-67.2297 537.706,-63.5409 533,-56 519.975,-35.1298 494.156,-23.6742 473.176,-17.5529"/>
<polygon fill="midnightblue" stroke="midnightblue" points="473.906,-14.1256 463.344,-14.9586 472.12,-20.894 473.906,-14.1256"/>
</g>
<!-- Node4&#45;&gt;Node5 -->
<g id="edge4" class="edge"><title>Node4&#45;&gt;Node5</title>
<path fill="none" stroke="midnightblue" d="M338.753,-177.339C378.834,-176.05 446.696,-168.134 490,-132 517.302,-109.218 532.428,-86.9948 515,-56 505.907,-39.8279 488.388,-28.7912 472.678,-21.6965"/>
<polygon fill="midnightblue" stroke="midnightblue" points="473.8,-18.3728 463.221,-17.7778 471.12,-24.8395 473.8,-18.3728"/>
</g>
<!-- Node6 -->
<g id="node6" class="node"><title>Node6</title>
<polygon fill="white" stroke="#bfbfbf" points="132.5,-56.5 132.5,-75.5 179.5,-75.5 179.5,-56.5 132.5,-56.5"/>
<text text-anchor="middle" x="156" y="-63.5" font-family="Verdana" font-size="10.00">vector</text>
</g>
<!-- Node4&#45;&gt;Node6 -->
<g id="edge5" class="edge"><title>Node4&#45;&gt;Node6</title>
<path fill="none" stroke="midnightblue" d="M275.288,-168.368C253.494,-161.163 224.424,-149.265 203,-132 186.79,-118.936 173.484,-98.9631 165.218,-84.6058"/>
<polygon fill="midnightblue" stroke="midnightblue" points="168.215,-82.7912 160.328,-75.7172 162.082,-86.1658 168.215,-82.7912"/>
</g>
<!-- Node7 -->
<g id="node7" class="node"><title>Node7</title>
<polygon fill="white" stroke="#bfbfbf" points="128.5,-0.5 128.5,-19.5 181.5,-19.5 181.5,-0.5 128.5,-0.5"/>
<text text-anchor="middle" x="155" y="-7.5" font-family="Verdana" font-size="10.00">stdint.h</text>
</g>
<!-- Node4&#45;&gt;Node7 -->
<g id="edge6" class="edge"><title>Node4&#45;&gt;Node7</title>
<path fill="none" stroke="midnightblue" d="M273.326,-174.018C224.489,-168.808 136.13,-156.219 117,-132 92.095,-100.469 122.005,-52.4072 141.237,-27.4036"/>
<polygon fill="midnightblue" stroke="midnightblue" points="143.976,-29.5823 147.487,-19.5861 138.509,-25.2111 143.976,-29.5823"/>
</g>
<!-- Node8 -->
<g id="node8" class="node"><title>Node8</title>
<polygon fill="white" stroke="#bfbfbf" points="126,-112.5 126,-131.5 156,-131.5 156,-112.5 126,-112.5"/>
<text text-anchor="middle" x="141" y="-119.5" font-family="Verdana" font-size="10.00">list</text>
</g>
<!-- Node4&#45;&gt;Node8 -->
<g id="edge7" class="edge"><title>Node4&#45;&gt;Node8</title>
<path fill="none" stroke="midnightblue" d="M279.855,-168.444C248.505,-158.183 196.358,-141.117 165.675,-131.075"/>
<polygon fill="midnightblue" stroke="midnightblue" points="166.746,-127.743 156.153,-127.959 164.569,-134.396 166.746,-127.743"/>
</g>
<!-- Node9 -->
<g id="node9" class="node"><title>Node9</title>
<g id="a_node9"><a xlink:href="XmlSink_8h.html" target="_top" xlink:title="XmlSink.h">
<polygon fill="white" stroke="black" points="322,-112.5 322,-131.5 386,-131.5 386,-112.5 322,-112.5"/>
<text text-anchor="middle" x="354" y="-119.5" font-family="Verdana" font-size="10.00">XmlSink.h</text>
</a>
</g>
</g>
<!-- Node4&#45;&gt;Node9 -->
<g id="edge8" class="edge"><title>Node4&#45;&gt;Node9</title>
<path fill="none" stroke="midnightblue" d="M313.926,-168.083C320.846,-160.298 331.065,-148.801 339.452,-139.367"/>
<polygon fill="midnightblue" stroke="midnightblue" points="342.194,-141.55 346.221,-131.751 336.962,-136.9 342.194,-141.55"/>
</g>
<!-- Node12 -->
<g id="node12" class="node"><title>Node12</title>
<g id="a_node12"><a xlink:href="XmlSource_8h.html" target="_top" xlink:title="XmlSource.h">
<polygon fill="white" stroke="black" points="404.5,-112.5 404.5,-131.5 481.5,-131.5 481.5,-112.5 404.5,-112.5"/>
<text text-anchor="middle" x="443" y="-119.5" font-family="Verdana" font-size="10.00">XmlSource.h</text>
</a>
</g>
</g>
<!-- Node4&#45;&gt;Node12 -->
<g id="edge14" class="edge"><title>Node4&#45;&gt;Node12</title>
<path fill="none" stroke="midnightblue" d="M327.708,-168.444C350.355,-159.517 386.072,-145.439 411.752,-135.317"/>
<polygon fill="midnightblue" stroke="midnightblue" points="413.374,-138.44 421.394,-131.516 410.807,-131.927 413.374,-138.44"/>
</g>
<!-- Node13 -->
<g id="node13" class="node"><title>Node13</title>
<g id="a_node13"><a xlink:href="PathNavigator_8h.html" target="_top" xlink:title="PathNavigator.h">
<polygon fill="white" stroke="black" points="212,-112.5 212,-131.5 304,-131.5 304,-112.5 212,-112.5"/>
<text text-anchor="middle" x="258" y="-119.5" font-family="Verdana" font-size="10.00">PathNavigator.h</text>
</a>
</g>
</g>
<!-- Node4&#45;&gt;Node13 -->
<g id="edge17" class="edge"><title>Node4&#45;&gt;Node13</title>
<path fill="none" stroke="midnightblue" d="M298.074,-168.083C291.154,-160.298 280.935,-148.801 272.548,-139.367"/>
<polygon fill="midnightblue" stroke="midnightblue" points="275.038,-136.9 265.779,-131.751 269.806,-141.55 275.038,-136.9"/>
</g>
<!-- Node10 -->
<g id="node10" class="node"><title>Node10</title>
<g id="a_node10"><a xlink:href="XmlElement_8h.html" target="_top" xlink:title="XmlElement.h">
<polygon fill="white" stroke="black" points="274.5,-56.5 274.5,-75.5 357.5,-75.5 357.5,-56.5 274.5,-56.5"/>
<text text-anchor="middle" x="316" y="-63.5" font-family="Verdana" font-size="10.00">XmlElement.h</text>
</a>
</g>
</g>
<!-- Node9&#45;&gt;Node10 -->
<g id="edge9" class="edge"><title>Node9&#45;&gt;Node10</title>
<path fill="none" stroke="midnightblue" d="M347.725,-112.083C342.358,-104.455 334.482,-93.2645 327.921,-83.9408"/>
<polygon fill="midnightblue" stroke="midnightblue" points="330.775,-81.9149 322.158,-75.7511 325.051,-85.9434 330.775,-81.9149"/>
</g>
<!-- Node11 -->
<g id="node11" class="node"><title>Node11</title>
<g id="a_node11"><a xlink:href="XmlSerializingContext_8h.html" target="_top" xlink:title="XmlSerializingContext.h">
<polygon fill="white" stroke="black" points="376,-56.5 376,-75.5 506,-75.5 506,-56.5 376,-56.5"/>
<text text-anchor="middle" x="441" y="-63.5" font-family="Verdana" font-size="10.00">XmlSerializingContext.h</text>
</a>
</g>
</g>
<!-- Node9&#45;&gt;Node11 -->
<g id="edge12" class="edge"><title>Node9&#45;&gt;Node11</title>
<path fill="none" stroke="midnightblue" d="M367.978,-112.324C381.55,-103.9 402.38,-90.9709 418.325,-81.0741"/>
<polygon fill="midnightblue" stroke="midnightblue" points="420.406,-83.9019 427.057,-75.6545 416.714,-77.9544 420.406,-83.9019"/>
</g>
<!-- Node10&#45;&gt;Node5 -->
<g id="edge11" class="edge"><title>Node10&#45;&gt;Node5</title>
<path fill="none" stroke="midnightblue" d="M335.807,-56.4435C356.287,-47.5961 388.483,-33.6875 411.865,-23.5865"/>
<polygon fill="midnightblue" stroke="midnightblue" points="413.494,-26.6953 421.286,-19.5164 410.718,-20.2692 413.494,-26.6953"/>
</g>
<!-- Node10&#45;&gt;Node7 -->
<g id="edge10" class="edge"><title>Node10&#45;&gt;Node7</title>
<path fill="none" stroke="midnightblue" d="M290.489,-56.4435C263.404,-47.3591 220.41,-32.9388 190.131,-22.7831"/>
<polygon fill="midnightblue" stroke="midnightblue" points="190.986,-19.3781 180.392,-19.5164 188.76,-26.0148 190.986,-19.3781"/>
</g>
<!-- Node11&#45;&gt;Node5 -->
<g id="edge13" class="edge"><title>Node11&#45;&gt;Node5</title>
<path fill="none" stroke="midnightblue" d="M441,-56.083C441,-49.0059 441,-38.8611 441,-29.9865"/>
<polygon fill="midnightblue" stroke="midnightblue" points="444.5,-29.751 441,-19.7511 437.5,-29.7511 444.5,-29.751"/>
</g>
<!-- Node12&#45;&gt;Node10 -->
<g id="edge15" class="edge"><title>Node12&#45;&gt;Node10</title>
<path fill="none" stroke="midnightblue" d="M422.876,-112.444C401.976,-103.557 369.065,-89.5632 345.284,-79.4514"/>
<polygon fill="midnightblue" stroke="midnightblue" points="346.602,-76.2085 336.029,-75.5164 343.862,-82.6504 346.602,-76.2085"/>
</g>
<!-- Node12&#45;&gt;Node11 -->
<g id="edge16" class="edge"><title>Node12&#45;&gt;Node11</title>
<path fill="none" stroke="midnightblue" d="M442.67,-112.083C442.408,-105.006 442.032,-94.8611 441.703,-85.9865"/>
<polygon fill="midnightblue" stroke="midnightblue" points="445.192,-85.6147 441.324,-75.7511 438.197,-85.8738 445.192,-85.6147"/>
</g>
<!-- Node13&#45;&gt;Node5 -->
<g id="edge19" class="edge"><title>Node13&#45;&gt;Node5</title>
<path fill="none" stroke="midnightblue" d="M256.105,-112.213C253.692,-98.458 251.326,-71.7847 265,-56 283.631,-34.4931 363.439,-20.9477 408.926,-14.8255"/>
<polygon fill="midnightblue" stroke="midnightblue" points="409.42,-18.2907 418.885,-13.5297 408.517,-11.3492 409.42,-18.2907"/>
</g>
<!-- Node13&#45;&gt;Node6 -->
<g id="edge18" class="edge"><title>Node13&#45;&gt;Node6</title>
<path fill="none" stroke="midnightblue" d="M241.612,-112.324C225.329,-103.703 200.133,-90.3643 181.284,-80.3855"/>
<polygon fill="midnightblue" stroke="midnightblue" points="182.823,-77.2402 172.347,-75.6545 179.548,-83.4267 182.823,-77.2402"/>
</g>
<!-- Node13&#45;&gt;Node7 -->
<g id="edge20" class="edge"><title>Node13&#45;&gt;Node7</title>
<path fill="none" stroke="midnightblue" d="M249.918,-112.368C232.694,-93.9744 192.147,-50.6712 170.03,-27.0519"/>
<polygon fill="midnightblue" stroke="midnightblue" points="172.435,-24.4987 163.045,-19.5914 167.325,-29.2832 172.435,-24.4987"/>
</g>
<!-- Node14&#45;&gt;Node5 -->
<g id="edge24" class="edge"><title>Node14&#45;&gt;Node5</title>
<path fill="none" stroke="midnightblue" d="M74.2832,-60.0166C152.852,-49.5148 334.292,-25.2629 408.488,-15.3457"/>
<polygon fill="midnightblue" stroke="midnightblue" points="409.183,-18.784 418.631,-13.9899 408.256,-11.8457 409.183,-18.784"/>
</g>
<!-- Node14&#45;&gt;Node7 -->
<g id="edge25" class="edge"><title>Node14&#45;&gt;Node7</title>
<path fill="none" stroke="midnightblue" d="M55.6975,-56.4435C74.9445,-47.6356 105.152,-33.8116 127.2,-23.722"/>
<polygon fill="midnightblue" stroke="midnightblue" points="128.753,-26.8603 136.39,-19.5164 125.84,-20.4951 128.753,-26.8603"/>
</g>
</g>
</svg>
