<?xml version="1.0" encoding="UTF-8" standalone="no"?>
<!DOCTYPE svg PUBLIC "-//W3C//DTD SVG 1.1//EN"
 "http://www.w3.org/Graphics/SVG/1.1/DTD/svg11.dtd">
<!-- Generated by graphviz version 2.38.0 (20140413.2041)
 -->
<!-- Title: parameter/ComponentType.cpp Pages: 1 -->
<svg width="980pt" height="588pt"
 viewBox="0.00 0.00 980.28 588.00" xmlns="http://www.w3.org/2000/svg" xmlns:xlink="http://www.w3.org/1999/xlink">
<g id="graph0" class="graph" transform="scale(1 1) rotate(0) translate(4 584)">
<title>parameter/ComponentType.cpp</title>
<polygon fill="white" stroke="none" points="-4,4 -4,-584 976.278,-584 976.278,4 -4,4"/>
<!-- Node1 -->
<g id="node1" class="node"><title>Node1</title>
<polygon fill="#bfbfbf" stroke="black" points="713,-560.5 713,-579.5 881,-579.5 881,-560.5 713,-560.5"/>
<text text-anchor="middle" x="797" y="-567.5" font-family="Verdana" font-size="10.00">parameter/ComponentType.cpp</text>
</g>
<!-- Node2 -->
<g id="node2" class="node"><title>Node2</title>
<g id="a_node2"><a xlink:href="ComponentType_8h.html" target="_top" xlink:title="ComponentType.h">
<polygon fill="white" stroke="black" points="745.5,-336.5 745.5,-355.5 848.5,-355.5 848.5,-336.5 745.5,-336.5"/>
<text text-anchor="middle" x="797" y="-343.5" font-family="Verdana" font-size="10.00">ComponentType.h</text>
</a>
</g>
</g>
<!-- Node1&#45;&gt;Node2 -->
<g id="edge1" class="edge"><title>Node1&#45;&gt;Node2</title>
<path fill="none" stroke="midnightblue" d="M797,-560.297C797,-527.633 797,-411.866 797,-365.957"/>
<polygon fill="midnightblue" stroke="midnightblue" points="800.5,-365.884 797,-355.884 793.5,-365.884 800.5,-365.884"/>
</g>
<!-- Node3 -->
<g id="node3" class="node"><title>Node3</title>
<g id="a_node3"><a xlink:href="TypeElement_8h.html" target="_top" xlink:title="TypeElement.h">
<polygon fill="white" stroke="black" points="610,-280.5 610,-299.5 696,-299.5 696,-280.5 610,-280.5"/>
<text text-anchor="middle" x="653" y="-287.5" font-family="Verdana" font-size="10.00">TypeElement.h</text>
</a>
</g>
</g>
<!-- Node1&#45;&gt;Node3 -->
<g id="edge44" class="edge"><title>Node1&#45;&gt;Node3</title>
<path fill="none" stroke="midnightblue" d="M774.241,-560.43C739.19,-545.579 676,-511.522 676,-459 676,-459 676,-459 676,-401 676,-368.12 666.032,-330.86 659.221,-309.235"/>
<polygon fill="midnightblue" stroke="midnightblue" points="662.54,-308.125 656.102,-299.711 655.888,-310.303 662.54,-308.125"/>
</g>
<!-- Node16 -->
<g id="node16" class="node"><title>Node16</title>
<g id="a_node16"><a xlink:href="ComponentLibrary_8h.html" target="_top" xlink:title="ComponentLibrary.h">
<polygon fill="white" stroke="black" points="57.5,-504.5 57.5,-523.5 170.5,-523.5 170.5,-504.5 57.5,-504.5"/>
<text text-anchor="middle" x="114" y="-511.5" font-family="Verdana" font-size="10.00">ComponentLibrary.h</text>
</a>
</g>
</g>
<!-- Node1&#45;&gt;Node16 -->
<g id="edge27" class="edge"><title>Node1&#45;&gt;Node16</title>
<path fill="none" stroke="midnightblue" d="M712.909,-562.351C575.571,-551.493 305.923,-530.174 180.761,-520.278"/>
<polygon fill="midnightblue" stroke="midnightblue" points="180.798,-516.77 170.553,-519.471 180.246,-523.749 180.798,-516.77"/>
</g>
<!-- Node22 -->
<g id="node22" class="node"><title>Node22</title>
<g id="a_node22"><a xlink:href="XmlParameterSerializingContext_8h.html" target="_top" xlink:title="XmlParameterSerializingContext.h">
<polygon fill="white" stroke="black" points="790,-224.5 790,-243.5 970,-243.5 970,-224.5 790,-224.5"/>
<text text-anchor="middle" x="880" y="-231.5" font-family="Verdana" font-size="10.00">XmlParameterSerializingContext.h</text>
</a>
</g>
</g>
<!-- Node1&#45;&gt;Node22 -->
<g id="edge45" class="edge"><title>Node1&#45;&gt;Node22</title>
<path fill="none" stroke="midnightblue" d="M809.5,-560.313C832,-543.544 877,-504.338 877,-459 877,-459 877,-459 877,-345 877,-312.936 878.289,-275.634 879.178,-253.745"/>
<polygon fill="midnightblue" stroke="midnightblue" points="882.683,-253.694 879.608,-243.556 875.689,-253.399 882.683,-253.694"/>
</g>
<!-- Node24 -->
<g id="node24" class="node"><title>Node24</title>
<polygon fill="white" stroke="#bfbfbf" points="905,-504.5 905,-523.5 961,-523.5 961,-504.5 905,-504.5"/>
<text text-anchor="middle" x="933" y="-511.5" font-family="Verdana" font-size="10.00">assert.h</text>
</g>
<!-- Node1&#45;&gt;Node24 -->
<g id="edge50" class="edge"><title>Node1&#45;&gt;Node24</title>
<path fill="none" stroke="midnightblue" d="M818.55,-560.444C841.031,-551.517 876.488,-537.439 901.98,-527.317"/>
<polygon fill="midnightblue" stroke="midnightblue" points="903.549,-530.46 911.551,-523.516 900.965,-523.954 903.549,-530.46"/>
</g>
<!-- Node2&#45;&gt;Node3 -->
<g id="edge2" class="edge"><title>Node2&#45;&gt;Node3</title>
<path fill="none" stroke="midnightblue" d="M774.183,-336.444C750.168,-327.438 712.171,-313.189 685.131,-303.049"/>
<polygon fill="midnightblue" stroke="midnightblue" points="686.303,-299.751 675.71,-299.516 683.845,-306.305 686.303,-299.751"/>
</g>
<!-- Node6 -->
<g id="node6" class="node"><title>Node6</title>
<polygon fill="white" stroke="#bfbfbf" points="484,-0.5 484,-19.5 528,-19.5 528,-0.5 484,-0.5"/>
<text text-anchor="middle" x="506" y="-7.5" font-family="Verdana" font-size="10.00">string</text>
</g>
<!-- Node2&#45;&gt;Node6 -->
<g id="edge26" class="edge"><title>Node2&#45;&gt;Node6</title>
<path fill="none" stroke="midnightblue" d="M792.28,-336.456C782.726,-318.337 762,-274.48 762,-235 762,-235 762,-235 762,-121 762,-90.2048 761.467,-75.9409 738,-56 708.261,-30.7294 594.604,-18.1667 538.174,-13.3801"/>
<polygon fill="midnightblue" stroke="midnightblue" points="538.266,-9.87603 528.015,-12.5502 537.696,-16.8528 538.266,-9.87603"/>
</g>
<!-- Node4 -->
<g id="node4" class="node"><title>Node4</title>
<polygon fill="white" stroke="#bfbfbf" points="506.5,-168.5 506.5,-187.5 619.5,-187.5 619.5,-168.5 506.5,-168.5"/>
<text text-anchor="middle" x="563" y="-175.5" font-family="Verdana" font-size="10.00">parameter_export.h</text>
</g>
<!-- Node3&#45;&gt;Node4 -->
<g id="edge3" class="edge"><title>Node3&#45;&gt;Node4</title>
<path fill="none" stroke="midnightblue" d="M645.938,-280.368C630.954,-262.055 595.767,-219.049 576.387,-195.362"/>
<polygon fill="midnightblue" stroke="midnightblue" points="579.071,-193.115 570.029,-187.591 573.653,-197.547 579.071,-193.115"/>
</g>
<!-- Node5 -->
<g id="node5" class="node"><title>Node5</title>
<g id="a_node5"><a xlink:href="Element_8h.html" target="_top" xlink:title="Element.h">
<polygon fill="white" stroke="black" points="337.5,-224.5 337.5,-243.5 402.5,-243.5 402.5,-224.5 337.5,-224.5"/>
<text text-anchor="middle" x="370" y="-231.5" font-family="Verdana" font-size="10.00">Element.h</text>
</a>
</g>
</g>
<!-- Node3&#45;&gt;Node5 -->
<g id="edge4" class="edge"><title>Node3&#45;&gt;Node5</title>
<path fill="none" stroke="midnightblue" d="M609.71,-280.74C556.291,-270.547 466.024,-253.323 412.821,-243.171"/>
<polygon fill="midnightblue" stroke="midnightblue" points="413.176,-239.675 402.697,-241.239 411.864,-246.551 413.176,-239.675"/>
</g>
<!-- Node3&#45;&gt;Node6 -->
<g id="edge25" class="edge"><title>Node3&#45;&gt;Node6</title>
<path fill="none" stroke="midnightblue" d="M657.451,-280.424C666.458,-262.244 686,-218.278 686,-179 686,-179 686,-179 686,-121 686,-90.2048 684.554,-76.9679 662,-56 627.95,-24.3445 573.019,-14.7997 538.249,-12.0147"/>
<polygon fill="midnightblue" stroke="midnightblue" points="538.359,-8.51446 528.15,-11.3504 537.899,-15.4994 538.359,-8.51446"/>
</g>
<!-- Node5&#45;&gt;Node4 -->
<g id="edge5" class="edge"><title>Node5&#45;&gt;Node4</title>
<path fill="none" stroke="midnightblue" d="M400.581,-224.444C433.615,-215.201 486.388,-200.436 522.766,-190.257"/>
<polygon fill="midnightblue" stroke="midnightblue" points="523.875,-193.582 532.562,-187.516 521.988,-186.84 523.875,-193.582"/>
</g>
<!-- Node5&#45;&gt;Node6 -->
<g id="edge6" class="edge"><title>Node5&#45;&gt;Node6</title>
<path fill="none" stroke="midnightblue" d="M387.138,-224.485C402.486,-216.371 425.11,-203.167 442,-188 465.55,-166.852 473.241,-160.967 486,-132 500.966,-98.0205 504.823,-54.1883 505.761,-29.6932"/>
<polygon fill="midnightblue" stroke="midnightblue" points="509.262,-29.7128 506.02,-19.6262 502.264,-29.533 509.262,-29.7128"/>
</g>
<!-- Node7 -->
<g id="node7" class="node"><title>Node7</title>
<polygon fill="white" stroke="#bfbfbf" points="430.5,-112.5 430.5,-131.5 477.5,-131.5 477.5,-112.5 430.5,-112.5"/>
<text text-anchor="middle" x="454" y="-119.5" font-family="Verdana" font-size="10.00">vector</text>
</g>
<!-- Node5&#45;&gt;Node7 -->
<g id="edge7" class="edge"><title>Node5&#45;&gt;Node7</title>
<path fill="none" stroke="midnightblue" d="M382.104,-224.433C393.252,-216.09 409.723,-202.566 421,-188 432.236,-173.486 441.333,-154.555 447.108,-140.871"/>
<polygon fill="midnightblue" stroke="midnightblue" points="450.357,-142.171 450.857,-131.588 443.866,-139.55 450.357,-142.171"/>
</g>
<!-- Node8 -->
<g id="node8" class="node"><title>Node8</title>
<polygon fill="white" stroke="#bfbfbf" points="320.5,-56.5 320.5,-75.5 373.5,-75.5 373.5,-56.5 320.5,-56.5"/>
<text text-anchor="middle" x="347" y="-63.5" font-family="Verdana" font-size="10.00">stdint.h</text>
</g>
<!-- Node5&#45;&gt;Node8 -->
<g id="edge8" class="edge"><title>Node5&#45;&gt;Node8</title>
<path fill="none" stroke="midnightblue" d="M351.016,-224.398C337.114,-216.954 319.286,-204.741 311,-188 293.663,-152.972 317.948,-108.03 334.281,-83.9833"/>
<polygon fill="midnightblue" stroke="midnightblue" points="337.31,-85.763 340.249,-75.5839 331.604,-81.7086 337.31,-85.763"/>
</g>
<!-- Node9 -->
<g id="node9" class="node"><title>Node9</title>
<g id="a_node9"><a xlink:href="XmlSink_8h.html" target="_top" xlink:title="XmlSink.h">
<polygon fill="white" stroke="black" points="104,-168.5 104,-187.5 168,-187.5 168,-168.5 104,-168.5"/>
<text text-anchor="middle" x="136" y="-175.5" font-family="Verdana" font-size="10.00">XmlSink.h</text>
</a>
</g>
</g>
<!-- Node5&#45;&gt;Node9 -->
<g id="edge9" class="edge"><title>Node5&#45;&gt;Node9</title>
<path fill="none" stroke="midnightblue" d="M337.463,-225.492C295.9,-215.9 223.888,-199.282 178.16,-188.729"/>
<polygon fill="midnightblue" stroke="midnightblue" points="178.791,-185.283 168.26,-186.445 177.217,-192.104 178.791,-185.283"/>
</g>
<!-- Node14 -->
<g id="node14" class="node"><title>Node14</title>
<g id="a_node14"><a xlink:href="XmlSource_8h.html" target="_top" xlink:title="XmlSource.h">
<polygon fill="white" stroke="black" points="186.5,-168.5 186.5,-187.5 263.5,-187.5 263.5,-168.5 186.5,-168.5"/>
<text text-anchor="middle" x="225" y="-175.5" font-family="Verdana" font-size="10.00">XmlSource.h</text>
</a>
</g>
</g>
<!-- Node5&#45;&gt;Node14 -->
<g id="edge18" class="edge"><title>Node5&#45;&gt;Node14</title>
<path fill="none" stroke="midnightblue" d="M347.024,-224.444C322.843,-215.438 284.582,-201.189 257.354,-191.049"/>
<polygon fill="midnightblue" stroke="midnightblue" points="258.461,-187.727 247.868,-187.516 256.018,-194.286 258.461,-187.727"/>
</g>
<!-- Node15 -->
<g id="node15" class="node"><title>Node15</title>
<g id="a_node15"><a xlink:href="PathNavigator_8h.html" target="_top" xlink:title="PathNavigator.h">
<polygon fill="white" stroke="black" points="320,-168.5 320,-187.5 412,-187.5 412,-168.5 320,-168.5"/>
<text text-anchor="middle" x="366" y="-175.5" font-family="Verdana" font-size="10.00">PathNavigator.h</text>
</a>
</g>
</g>
<!-- Node5&#45;&gt;Node15 -->
<g id="edge21" class="edge"><title>Node5&#45;&gt;Node15</title>
<path fill="none" stroke="midnightblue" d="M369.339,-224.083C368.815,-217.006 368.064,-206.861 367.406,-197.986"/>
<polygon fill="midnightblue" stroke="midnightblue" points="370.877,-197.465 366.648,-187.751 363.897,-197.982 370.877,-197.465"/>
</g>
<!-- Node10 -->
<g id="node10" class="node"><title>Node10</title>
<g id="a_node10"><a xlink:href="XmlElement_8h.html" target="_top" xlink:title="XmlElement.h">
<polygon fill="white" stroke="black" points="66.5,-112.5 66.5,-131.5 149.5,-131.5 149.5,-112.5 66.5,-112.5"/>
<text text-anchor="middle" x="108" y="-119.5" font-family="Verdana" font-size="10.00">XmlElement.h</text>
</a>
</g>
</g>
<!-- Node9&#45;&gt;Node10 -->
<g id="edge10" class="edge"><title>Node9&#45;&gt;Node10</title>
<path fill="none" stroke="midnightblue" d="M131.376,-168.083C127.544,-160.691 121.976,-149.953 117.235,-140.811"/>
<polygon fill="midnightblue" stroke="midnightblue" points="120.248,-139.018 112.538,-131.751 114.034,-142.24 120.248,-139.018"/>
</g>
<!-- Node11 -->
<g id="node11" class="node"><title>Node11</title>
<g id="a_node11"><a xlink:href="XmlSerializingContext_8h.html" target="_top" xlink:title="XmlSerializingContext.h">
<polygon fill="white" stroke="black" points="168,-112.5 168,-131.5 298,-131.5 298,-112.5 168,-112.5"/>
<text text-anchor="middle" x="233" y="-119.5" font-family="Verdana" font-size="10.00">XmlSerializingContext.h</text>
</a>
</g>
</g>
<!-- Node9&#45;&gt;Node11 -->
<g id="edge13" class="edge"><title>Node9&#45;&gt;Node11</title>
<path fill="none" stroke="midnightblue" d="M151.585,-168.324C166.999,-159.743 190.812,-146.486 208.71,-136.522"/>
<polygon fill="midnightblue" stroke="midnightblue" points="210.419,-139.577 217.454,-131.655 207.014,-133.461 210.419,-139.577"/>
</g>
<!-- Node10&#45;&gt;Node6 -->
<g id="edge12" class="edge"><title>Node10&#45;&gt;Node6</title>
<path fill="none" stroke="midnightblue" d="M111.89,-112.041C118.705,-97.537 134.275,-69.2095 157,-56 210.362,-24.9822 396.915,-14.8943 473.157,-12.0203"/>
<polygon fill="midnightblue" stroke="midnightblue" points="473.708,-15.5029 483.576,-11.647 473.457,-8.50739 473.708,-15.5029"/>
</g>
<!-- Node10&#45;&gt;Node8 -->
<g id="edge11" class="edge"><title>Node10&#45;&gt;Node8</title>
<path fill="none" stroke="midnightblue" d="M145.87,-112.444C191.052,-102.235 266.055,-85.2889 310.585,-75.2278"/>
<polygon fill="midnightblue" stroke="midnightblue" points="311.424,-78.6263 320.407,-73.0084 309.882,-71.7984 311.424,-78.6263"/>
</g>
<!-- Node11&#45;&gt;Node6 -->
<g id="edge17" class="edge"><title>Node11&#45;&gt;Node6</title>
<path fill="none" stroke="midnightblue" d="M240.719,-112.348C253.764,-98.2855 281.633,-70.5782 311,-56 364.422,-29.4812 433.878,-18.2931 473.845,-13.7995"/>
<polygon fill="midnightblue" stroke="midnightblue" points="474.243,-17.2772 483.821,-12.7491 473.51,-10.3156 474.243,-17.2772"/>
</g>
<!-- Node12 -->
<g id="node12" class="node"><title>Node12</title>
<g id="a_node12"><a xlink:href="ErrorContext_8hpp.html" target="_top" xlink:title="ErrorContext.hpp">
<polygon fill="white" stroke="black" points="166,-56.5 166,-75.5 264,-75.5 264,-56.5 166,-56.5"/>
<text text-anchor="middle" x="215" y="-63.5" font-family="Verdana" font-size="10.00">ErrorContext.hpp</text>
</a>
</g>
</g>
<!-- Node11&#45;&gt;Node12 -->
<g id="edge14" class="edge"><title>Node11&#45;&gt;Node12</title>
<path fill="none" stroke="midnightblue" d="M230.028,-112.083C227.616,-104.849 224.136,-94.4087 221.132,-85.3968"/>
<polygon fill="midnightblue" stroke="midnightblue" points="224.4,-84.1311 217.917,-75.7511 217.759,-86.3447 224.4,-84.1311"/>
</g>
<!-- Node12&#45;&gt;Node6 -->
<g id="edge15" class="edge"><title>Node12&#45;&gt;Node6</title>
<path fill="none" stroke="midnightblue" d="M261.11,-56.4435C320.483,-45.4258 422.152,-26.5594 473.821,-16.9714"/>
<polygon fill="midnightblue" stroke="midnightblue" points="474.564,-20.3933 483.758,-15.1274 473.287,-13.5108 474.564,-20.3933"/>
</g>
<!-- Node13 -->
<g id="node13" class="node"><title>Node13</title>
<g id="a_node13"><a xlink:href="NonCopyable_8hpp.html" target="_top" xlink:title="NonCopyable.hpp">
<polygon fill="white" stroke="black" points="164.5,-0.5 164.5,-19.5 265.5,-19.5 265.5,-0.5 164.5,-0.5"/>
<text text-anchor="middle" x="215" y="-7.5" font-family="Verdana" font-size="10.00">NonCopyable.hpp</text>
</a>
</g>
</g>
<!-- Node12&#45;&gt;Node13 -->
<g id="edge16" class="edge"><title>Node12&#45;&gt;Node13</title>
<path fill="none" stroke="midnightblue" d="M215,-56.083C215,-49.0059 215,-38.8611 215,-29.9865"/>
<polygon fill="midnightblue" stroke="midnightblue" points="218.5,-29.751 215,-19.7511 211.5,-29.7511 218.5,-29.751"/>
</g>
<!-- Node14&#45;&gt;Node10 -->
<g id="edge19" class="edge"><title>Node14&#45;&gt;Node10</title>
<path fill="none" stroke="midnightblue" d="M206.461,-168.444C187.377,-159.636 157.425,-145.812 135.564,-135.722"/>
<polygon fill="midnightblue" stroke="midnightblue" points="136.999,-132.529 126.452,-131.516 134.065,-138.885 136.999,-132.529"/>
</g>
<!-- Node14&#45;&gt;Node11 -->
<g id="edge20" class="edge"><title>Node14&#45;&gt;Node11</title>
<path fill="none" stroke="midnightblue" d="M226.321,-168.083C227.381,-160.927 228.906,-150.635 230.231,-141.691"/>
<polygon fill="midnightblue" stroke="midnightblue" points="233.7,-142.156 231.704,-131.751 226.776,-141.13 233.7,-142.156"/>
</g>
<!-- Node15&#45;&gt;Node6 -->
<g id="edge23" class="edge"><title>Node15&#45;&gt;Node6</title>
<path fill="none" stroke="midnightblue" d="M373.527,-168.075C396.041,-141.38 463.102,-61.865 492.235,-27.3218"/>
<polygon fill="midnightblue" stroke="midnightblue" points="495.002,-29.4689 498.774,-19.5681 489.651,-24.956 495.002,-29.4689"/>
</g>
<!-- Node15&#45;&gt;Node7 -->
<g id="edge22" class="edge"><title>Node15&#45;&gt;Node7</title>
<path fill="none" stroke="midnightblue" d="M380.139,-168.324C393.866,-159.9 414.936,-146.971 431.064,-137.074"/>
<polygon fill="midnightblue" stroke="midnightblue" points="433.204,-139.868 439.896,-131.655 429.543,-133.902 433.204,-139.868"/>
</g>
<!-- Node15&#45;&gt;Node8 -->
<g id="edge24" class="edge"><title>Node15&#45;&gt;Node8</title>
<path fill="none" stroke="midnightblue" d="M364.509,-168.368C361.443,-150.617 354.37,-109.666 350.212,-85.5974"/>
<polygon fill="midnightblue" stroke="midnightblue" points="353.635,-84.8498 348.484,-75.5914 346.737,-86.0413 353.635,-84.8498"/>
</g>
<!-- Node16&#45;&gt;Node5 -->
<g id="edge29" class="edge"><title>Node16&#45;&gt;Node5</title>
<path fill="none" stroke="midnightblue" d="M114,-504.442C114,-485.936 114,-440.812 114,-403 114,-403 114,-403 114,-345 114,-253.364 254.176,-237.113 327.075,-234.857"/>
<polygon fill="midnightblue" stroke="midnightblue" points="327.402,-238.351 337.317,-234.619 327.239,-231.352 327.402,-238.351"/>
</g>
<!-- Node16&#45;&gt;Node6 -->
<g id="edge43" class="edge"><title>Node16&#45;&gt;Node6</title>
<path fill="none" stroke="midnightblue" d="M93.3555,-504.421C60.5038,-489.231 0,-454.293 0,-403 0,-403 0,-403 0,-121 0,-23.6666 362.03,-12.2913 473.638,-11.0971"/>
<polygon fill="midnightblue" stroke="midnightblue" points="473.963,-14.5946 483.932,-11.0089 473.903,-7.59484 473.963,-14.5946"/>
</g>
<!-- Node16&#45;&gt;Node10 -->
<g id="edge28" class="edge"><title>Node16&#45;&gt;Node10</title>
<path fill="none" stroke="midnightblue" d="M108.716,-504.231C98.2749,-486.043 76,-442.601 76,-403 76,-403 76,-403 76,-233 76,-199.329 89.9948,-162.085 99.4745,-140.719"/>
<polygon fill="midnightblue" stroke="midnightblue" points="102.674,-142.138 103.684,-131.592 96.3179,-139.207 102.674,-142.138"/>
</g>
<!-- Node17 -->
<g id="node17" class="node"><title>Node17</title>
<g id="a_node17"><a xlink:href="Component_8h.html" target="_top" xlink:title="Component.h">
<polygon fill="white" stroke="black" points="503,-448.5 503,-467.5 585,-467.5 585,-448.5 503,-448.5"/>
<text text-anchor="middle" x="544" y="-455.5" font-family="Verdana" font-size="10.00">Component.h</text>
</a>
</g>
</g>
<!-- Node16&#45;&gt;Node17 -->
<g id="edge30" class="edge"><title>Node16&#45;&gt;Node17</title>
<path fill="none" stroke="midnightblue" d="M170.657,-505.885C254.966,-495.297 412.168,-475.556 493.044,-465.399"/>
<polygon fill="midnightblue" stroke="midnightblue" points="493.505,-468.869 502.991,-464.15 492.633,-461.923 493.505,-468.869"/>
</g>
<!-- Node17&#45;&gt;Node6 -->
<g id="edge42" class="edge"><title>Node17&#45;&gt;Node6</title>
<path fill="none" stroke="midnightblue" d="M570.944,-448.423C590.669,-441.123 617.168,-429.084 636,-412 701.067,-352.971 724,-322.853 724,-235 724,-235 724,-235 724,-121 724,-38.8179 598.987,-18.0235 538.298,-12.7707"/>
<polygon fill="midnightblue" stroke="midnightblue" points="538.343,-9.2638 528.103,-11.9827 537.803,-16.243 538.343,-9.2638"/>
</g>
<!-- Node18 -->
<g id="node18" class="node"><title>Node18</title>
<g id="a_node18"><a xlink:href="InstanceConfigurableElement_8h.html" target="_top" xlink:title="InstanceConfigurableElement.h">
<polygon fill="white" stroke="black" points="461,-392.5 461,-411.5 627,-411.5 627,-392.5 461,-392.5"/>
<text text-anchor="middle" x="544" y="-399.5" font-family="Verdana" font-size="10.00">InstanceConfigurableElement.h</text>
</a>
</g>
</g>
<!-- Node17&#45;&gt;Node18 -->
<g id="edge31" class="edge"><title>Node17&#45;&gt;Node18</title>
<path fill="none" stroke="midnightblue" d="M544,-448.083C544,-441.006 544,-430.861 544,-421.986"/>
<polygon fill="midnightblue" stroke="midnightblue" points="547.5,-421.751 544,-411.751 540.5,-421.751 547.5,-421.751"/>
</g>
<!-- Node18&#45;&gt;Node3 -->
<g id="edge39" class="edge"><title>Node18&#45;&gt;Node3</title>
<path fill="none" stroke="midnightblue" d="M554.736,-392.441C565.524,-383.675 582.449,-369.463 596,-356 611.722,-340.381 628.27,-321.155 639.461,-307.68"/>
<polygon fill="midnightblue" stroke="midnightblue" points="642.333,-309.698 645.979,-299.75 636.925,-305.253 642.333,-309.698"/>
</g>
<!-- Node18&#45;&gt;Node4 -->
<g id="edge32" class="edge"><title>Node18&#45;&gt;Node4</title>
<path fill="none" stroke="midnightblue" d="M544.745,-392.297C547.54,-359.633 557.448,-243.866 561.378,-197.957"/>
<polygon fill="midnightblue" stroke="midnightblue" points="564.874,-198.146 562.24,-187.884 557.9,-197.549 564.874,-198.146"/>
</g>
<!-- Node18&#45;&gt;Node6 -->
<g id="edge41" class="edge"><title>Node18&#45;&gt;Node6</title>
<path fill="none" stroke="midnightblue" d="M547.72,-392.405C551.609,-383.373 557.849,-368.736 563,-356 579.574,-315.021 642.337,-209.815 628,-168 607.213,-107.373 552.403,-52.1019 523.857,-26.3097"/>
<polygon fill="midnightblue" stroke="midnightblue" points="526.037,-23.5648 516.229,-19.5565 521.396,-28.8059 526.037,-23.5648"/>
</g>
<!-- Node19 -->
<g id="node19" class="node"><title>Node19</title>
<g id="a_node19"><a xlink:href="ConfigurableElementWithMapping_8h.html" target="_top" xlink:title="ConfigurableElementWithMapping.h">
<polygon fill="white" stroke="black" points="292,-336.5 292,-355.5 478,-355.5 478,-336.5 292,-336.5"/>
<text text-anchor="middle" x="385" y="-343.5" font-family="Verdana" font-size="10.00">ConfigurableElementWithMapping.h</text>
</a>
</g>
</g>
<!-- Node18&#45;&gt;Node19 -->
<g id="edge33" class="edge"><title>Node18&#45;&gt;Node19</title>
<path fill="none" stroke="midnightblue" d="M518.806,-392.444C492.057,-383.359 449.597,-368.939 419.695,-358.783"/>
<polygon fill="midnightblue" stroke="midnightblue" points="420.671,-355.418 410.076,-355.516 418.419,-362.046 420.671,-355.418"/>
</g>
<!-- Node21 -->
<g id="node21" class="node"><title>Node21</title>
<polygon fill="white" stroke="#bfbfbf" points="478,-224.5 478,-243.5 508,-243.5 508,-224.5 478,-224.5"/>
<text text-anchor="middle" x="493" y="-231.5" font-family="Verdana" font-size="10.00">list</text>
</g>
<!-- Node18&#45;&gt;Node21 -->
<g id="edge40" class="edge"><title>Node18&#45;&gt;Node21</title>
<path fill="none" stroke="midnightblue" d="M541.304,-392.377C538.475,-383.322 533.907,-368.666 530,-356 518.765,-319.576 505.762,-276.938 498.549,-253.245"/>
<polygon fill="midnightblue" stroke="midnightblue" points="501.847,-252.061 495.588,-243.513 495.15,-254.099 501.847,-252.061"/>
</g>
<!-- Node19&#45;&gt;Node6 -->
<g id="edge38" class="edge"><title>Node19&#45;&gt;Node6</title>
<path fill="none" stroke="midnightblue" d="M344.603,-336.442C243.586,-312.943 -7.40896,-240.475 57,-112 75.6439,-74.8116 93.376,-71.4518 132,-56 193.907,-31.2337 394.476,-17.3711 473.536,-12.755"/>
<polygon fill="midnightblue" stroke="midnightblue" points="474.074,-16.2301 483.858,-12.1649 473.675,-9.24148 474.074,-16.2301"/>
</g>
<!-- Node20 -->
<g id="node20" class="node"><title>Node20</title>
<g id="a_node20"><a xlink:href="ConfigurableElement_8h.html" target="_top" xlink:title="ConfigurableElement.h">
<polygon fill="white" stroke="black" points="337.5,-280.5 337.5,-299.5 462.5,-299.5 462.5,-280.5 337.5,-280.5"/>
<text text-anchor="middle" x="400" y="-287.5" font-family="Verdana" font-size="10.00">ConfigurableElement.h</text>
</a>
</g>
</g>
<!-- Node19&#45;&gt;Node20 -->
<g id="edge34" class="edge"><title>Node19&#45;&gt;Node20</title>
<path fill="none" stroke="midnightblue" d="M387.477,-336.083C389.486,-328.849 392.386,-318.409 394.89,-309.397"/>
<polygon fill="midnightblue" stroke="midnightblue" points="398.265,-310.323 397.569,-299.751 391.52,-308.449 398.265,-310.323"/>
</g>
<!-- Node20&#45;&gt;Node4 -->
<g id="edge35" class="edge"><title>Node20&#45;&gt;Node4</title>
<path fill="none" stroke="midnightblue" d="M407.771,-280.092C419.843,-266.645 444.296,-240.938 469,-224 488.315,-210.757 512.129,-199.401 530.955,-191.41"/>
<polygon fill="midnightblue" stroke="midnightblue" points="532.392,-194.604 540.294,-187.546 529.716,-188.135 532.392,-194.604"/>
</g>
<!-- Node20&#45;&gt;Node5 -->
<g id="edge36" class="edge"><title>Node20&#45;&gt;Node5</title>
<path fill="none" stroke="midnightblue" d="M395.046,-280.083C390.896,-272.613 384.847,-261.724 379.733,-252.52"/>
<polygon fill="midnightblue" stroke="midnightblue" points="382.778,-250.793 374.862,-243.751 376.659,-254.192 382.778,-250.793"/>
</g>
<!-- Node20&#45;&gt;Node21 -->
<g id="edge37" class="edge"><title>Node20&#45;&gt;Node21</title>
<path fill="none" stroke="midnightblue" d="M414.942,-280.324C429.585,-271.822 452.134,-258.729 469.238,-248.797"/>
<polygon fill="midnightblue" stroke="midnightblue" points="471.205,-251.703 478.095,-243.655 467.69,-245.649 471.205,-251.703"/>
</g>
<!-- Node22&#45;&gt;Node6 -->
<g id="edge49" class="edge"><title>Node22&#45;&gt;Node6</title>
<path fill="none" stroke="midnightblue" d="M912.484,-224.409C943.527,-214.375 983.601,-195.558 969,-168 927.505,-89.6817 886.534,-88.3076 804,-56 712.226,-20.0753 594.173,-12.6542 538.197,-11.2406"/>
<polygon fill="midnightblue" stroke="midnightblue" points="538.241,-7.74085 528.171,-11.0361 538.098,-14.7394 538.241,-7.74085"/>
</g>
<!-- Node23 -->
<g id="node23" class="node"><title>Node23</title>
<g id="a_node23"><a xlink:href="XmlElementSerializingContext_8h.html" target="_top" xlink:title="XmlElementSerializingContext.h">
<polygon fill="white" stroke="black" points="790,-168.5 790,-187.5 960,-187.5 960,-168.5 790,-168.5"/>
<text text-anchor="middle" x="875" y="-175.5" font-family="Verdana" font-size="10.00">XmlElementSerializingContext.h</text>
</a>
</g>
</g>
<!-- Node22&#45;&gt;Node23 -->
<g id="edge46" class="edge"><title>Node22&#45;&gt;Node23</title>
<path fill="none" stroke="midnightblue" d="M879.174,-224.083C878.519,-217.006 877.58,-206.861 876.758,-197.986"/>
<polygon fill="midnightblue" stroke="midnightblue" points="880.217,-197.386 875.81,-187.751 873.247,-198.031 880.217,-197.386"/>
</g>
<!-- Node23&#45;&gt;Node6 -->
<g id="edge48" class="edge"><title>Node23&#45;&gt;Node6</title>
<path fill="none" stroke="midnightblue" d="M870.851,-168.494C859.339,-145.895 824.615,-84.1656 776,-56 735.964,-32.8043 600.605,-18.8591 538.111,-13.5128"/>
<polygon fill="midnightblue" stroke="midnightblue" points="538.285,-10.0153 528.029,-12.6712 537.703,-16.9911 538.285,-10.0153"/>
</g>
<!-- Node23&#45;&gt;Node11 -->
<g id="edge47" class="edge"><title>Node23&#45;&gt;Node11</title>
<path fill="none" stroke="midnightblue" d="M789.747,-169.829C663.474,-159.208 428.727,-139.463 308.393,-129.341"/>
<polygon fill="midnightblue" stroke="midnightblue" points="308.426,-125.832 298.168,-128.481 307.84,-132.807 308.426,-125.832"/>
</g>
</g>
</svg>
