<?xml version="1.0" encoding="UTF-8" standalone="no"?>
<!DOCTYPE svg PUBLIC "-//W3C//DTD SVG 1.1//EN"
 "http://www.w3.org/Graphics/SVG/1.1/DTD/svg11.dtd">
<!-- Generated by graphviz version 2.38.0 (20140413.2041)
 -->
<!-- Title: parameter/ComponentInstance.cpp Pages: 1 -->
<svg width="1213pt" height="588pt"
 viewBox="0.00 0.00 1212.58 588.00" xmlns="http://www.w3.org/2000/svg" xmlns:xlink="http://www.w3.org/1999/xlink">
<g id="graph0" class="graph" transform="scale(1 1) rotate(0) translate(4 584)">
<title>parameter/ComponentInstance.cpp</title>
<polygon fill="white" stroke="none" points="-4,4 -4,-584 1208.58,-584 1208.58,4 -4,4"/>
<!-- Node1 -->
<g id="node1" class="node"><title>Node1</title>
<polygon fill="#bfbfbf" stroke="black" points="725.084,-560.5 725.084,-579.5 913.084,-579.5 913.084,-560.5 725.084,-560.5"/>
<text text-anchor="middle" x="819.084" y="-567.5" font-family="Verdana" font-size="10.00">parameter/ComponentInstance.cpp</text>
</g>
<!-- Node2 -->
<g id="node2" class="node"><title>Node2</title>
<g id="a_node2"><a xlink:href="ComponentInstance_8h.html" target="_top" xlink:title="ComponentInstance.h">
<polygon fill="white" stroke="black" points="961.084,-336.5 961.084,-355.5 1083.08,-355.5 1083.08,-336.5 961.084,-336.5"/>
<text text-anchor="middle" x="1022.08" y="-343.5" font-family="Verdana" font-size="10.00">ComponentInstance.h</text>
</a>
</g>
</g>
<!-- Node1&#45;&gt;Node2 -->
<g id="edge1" class="edge"><title>Node1&#45;&gt;Node2</title>
<path fill="none" stroke="midnightblue" d="M827.042,-560.297C857.481,-527.01 966.835,-407.421 1007.08,-363.408"/>
<polygon fill="midnightblue" stroke="midnightblue" points="1009.8,-365.625 1013.96,-355.884 1004.63,-360.902 1009.8,-365.625"/>
</g>
<!-- Node16 -->
<g id="node16" class="node"><title>Node16</title>
<g id="a_node16"><a xlink:href="ComponentLibrary_8h.html" target="_top" xlink:title="ComponentLibrary.h">
<polygon fill="white" stroke="black" points="482.584,-504.5 482.584,-523.5 595.584,-523.5 595.584,-504.5 482.584,-504.5"/>
<text text-anchor="middle" x="539.084" y="-511.5" font-family="Verdana" font-size="10.00">ComponentLibrary.h</text>
</a>
</g>
</g>
<!-- Node1&#45;&gt;Node16 -->
<g id="edge27" class="edge"><title>Node1&#45;&gt;Node16</title>
<path fill="none" stroke="midnightblue" d="M774.718,-560.444C725.463,-550.944 645.956,-535.611 593.113,-525.42"/>
<polygon fill="midnightblue" stroke="midnightblue" points="593.726,-521.974 583.244,-523.516 592.4,-528.847 593.726,-521.974"/>
</g>
<!-- Node17 -->
<g id="node17" class="node"><title>Node17</title>
<g id="a_node17"><a xlink:href="Component_8h.html" target="_top" xlink:title="Component.h">
<polygon fill="white" stroke="black" points="778.084,-448.5 778.084,-467.5 860.084,-467.5 860.084,-448.5 778.084,-448.5"/>
<text text-anchor="middle" x="819.084" y="-455.5" font-family="Verdana" font-size="10.00">Component.h</text>
</a>
</g>
</g>
<!-- Node1&#45;&gt;Node17 -->
<g id="edge47" class="edge"><title>Node1&#45;&gt;Node17</title>
<path fill="none" stroke="midnightblue" d="M819.084,-560.368C819.084,-542.617 819.084,-501.666 819.084,-477.597"/>
<polygon fill="midnightblue" stroke="midnightblue" points="822.585,-477.591 819.084,-467.591 815.585,-477.591 822.585,-477.591"/>
</g>
<!-- Node22 -->
<g id="node22" class="node"><title>Node22</title>
<g id="a_node22"><a xlink:href="ComponentType_8h.html" target="_top" xlink:title="ComponentType.h">
<polygon fill="white" stroke="black" points="1101.58,-336.5 1101.58,-355.5 1204.58,-355.5 1204.58,-336.5 1101.58,-336.5"/>
<text text-anchor="middle" x="1153.08" y="-343.5" font-family="Verdana" font-size="10.00">ComponentType.h</text>
</a>
</g>
</g>
<!-- Node1&#45;&gt;Node22 -->
<g id="edge44" class="edge"><title>Node1&#45;&gt;Node22</title>
<path fill="none" stroke="midnightblue" d="M832.178,-560.297C883.103,-526.449 1068.28,-403.367 1131.65,-361.249"/>
<polygon fill="midnightblue" stroke="midnightblue" points="1133.69,-364.093 1140.08,-355.643 1129.82,-358.263 1133.69,-364.093"/>
</g>
<!-- Node23 -->
<g id="node23" class="node"><title>Node23</title>
<g id="a_node23"><a xlink:href="XmlParameterSerializingContext_8h.html" target="_top" xlink:title="XmlParameterSerializingContext.h">
<polygon fill="white" stroke="black" points="29.0845,-224.5 29.0845,-243.5 209.084,-243.5 209.084,-224.5 29.0845,-224.5"/>
<text text-anchor="middle" x="119.084" y="-231.5" font-family="Verdana" font-size="10.00">XmlParameterSerializingContext.h</text>
</a>
</g>
</g>
<!-- Node1&#45;&gt;Node23 -->
<g id="edge48" class="edge"><title>Node1&#45;&gt;Node23</title>
<path fill="none" stroke="midnightblue" d="M724.998,-565.397C517.542,-556.197 39.0845,-527.549 39.0845,-459 39.0845,-459 39.0845,-459 39.0845,-345 39.0845,-304.621 74.7791,-269.106 98.4825,-249.973"/>
<polygon fill="midnightblue" stroke="midnightblue" points="100.829,-252.582 106.584,-243.687 96.5382,-247.052 100.829,-252.582"/>
</g>
<!-- Node3 -->
<g id="node3" class="node"><title>Node3</title>
<g id="a_node3"><a xlink:href="TypeElement_8h.html" target="_top" xlink:title="TypeElement.h">
<polygon fill="white" stroke="black" points="885.084,-280.5 885.084,-299.5 971.084,-299.5 971.084,-280.5 885.084,-280.5"/>
<text text-anchor="middle" x="928.084" y="-287.5" font-family="Verdana" font-size="10.00">TypeElement.h</text>
</a>
</g>
</g>
<!-- Node2&#45;&gt;Node3 -->
<g id="edge2" class="edge"><title>Node2&#45;&gt;Node3</title>
<path fill="none" stroke="midnightblue" d="M1006.98,-336.324C992.181,-327.822 969.39,-314.729 952.102,-304.797"/>
<polygon fill="midnightblue" stroke="midnightblue" points="953.564,-301.601 943.15,-299.655 950.077,-307.671 953.564,-301.601"/>
</g>
<!-- Node6 -->
<g id="node6" class="node"><title>Node6</title>
<polygon fill="white" stroke="#bfbfbf" points="556.084,-0.5 556.084,-19.5 600.084,-19.5 600.084,-0.5 556.084,-0.5"/>
<text text-anchor="middle" x="578.084" y="-7.5" font-family="Verdana" font-size="10.00">string</text>
</g>
<!-- Node2&#45;&gt;Node6 -->
<g id="edge26" class="edge"><title>Node2&#45;&gt;Node6</title>
<path fill="none" stroke="midnightblue" d="M1024.05,-336.496C1028.11,-318.095 1037.08,-273.162 1037.08,-235 1037.08,-235 1037.08,-235 1037.08,-121 1037.08,-90.2048 1037.41,-74.8832 1013.08,-56 981.431,-31.4288 706.154,-16.7804 610.595,-12.399"/>
<polygon fill="midnightblue" stroke="midnightblue" points="610.519,-8.89211 600.372,-11.9382 610.204,-15.885 610.519,-8.89211"/>
</g>
<!-- Node4 -->
<g id="node4" class="node"><title>Node4</title>
<polygon fill="white" stroke="#bfbfbf" points="753.584,-168.5 753.584,-187.5 866.584,-187.5 866.584,-168.5 753.584,-168.5"/>
<text text-anchor="middle" x="810.084" y="-175.5" font-family="Verdana" font-size="10.00">parameter_export.h</text>
</g>
<!-- Node3&#45;&gt;Node4 -->
<g id="edge3" class="edge"><title>Node3&#45;&gt;Node4</title>
<path fill="none" stroke="midnightblue" d="M918.825,-280.368C898.921,-261.814 851.827,-217.913 826.645,-194.438"/>
<polygon fill="midnightblue" stroke="midnightblue" points="829.002,-191.85 819.301,-187.591 824.229,-196.97 829.002,-191.85"/>
</g>
<!-- Node5 -->
<g id="node5" class="node"><title>Node5</title>
<g id="a_node5"><a xlink:href="Element_8h.html" target="_top" xlink:title="Element.h">
<polygon fill="white" stroke="black" points="570.584,-224.5 570.584,-243.5 635.584,-243.5 635.584,-224.5 570.584,-224.5"/>
<text text-anchor="middle" x="603.084" y="-231.5" font-family="Verdana" font-size="10.00">Element.h</text>
</a>
</g>
</g>
<!-- Node3&#45;&gt;Node5 -->
<g id="edge4" class="edge"><title>Node3&#45;&gt;Node5</title>
<path fill="none" stroke="midnightblue" d="M884.927,-281.829C822.575,-271.469 707.977,-252.428 645.846,-242.105"/>
<polygon fill="midnightblue" stroke="midnightblue" points="646.049,-238.591 635.61,-240.404 644.902,-245.496 646.049,-238.591"/>
</g>
<!-- Node3&#45;&gt;Node6 -->
<g id="edge25" class="edge"><title>Node3&#45;&gt;Node6</title>
<path fill="none" stroke="midnightblue" d="M928.738,-280.448C930.093,-261.954 933.084,-216.852 933.084,-179 933.084,-179 933.084,-179 933.084,-121 933.084,-90.2048 933.105,-75.2705 909.084,-56 863.49,-19.4218 684.459,-12.5471 610.411,-11.2772"/>
<polygon fill="midnightblue" stroke="midnightblue" points="610.326,-7.77567 600.276,-11.1276 610.223,-14.7749 610.326,-7.77567"/>
</g>
<!-- Node5&#45;&gt;Node4 -->
<g id="edge5" class="edge"><title>Node5&#45;&gt;Node4</title>
<path fill="none" stroke="midnightblue" d="M635.884,-224.444C671.465,-215.162 728.399,-200.309 767.431,-190.127"/>
<polygon fill="midnightblue" stroke="midnightblue" points="768.646,-193.427 777.438,-187.516 766.878,-186.654 768.646,-193.427"/>
</g>
<!-- Node5&#45;&gt;Node6 -->
<g id="edge6" class="edge"><title>Node5&#45;&gt;Node6</title>
<path fill="none" stroke="midnightblue" d="M635.647,-228.31C659.605,-222.969 690.591,-211.677 706.084,-188 710.952,-180.562 708.562,-176.537 706.084,-168 689.656,-111.399 674.552,-99.7707 635.084,-56 624.692,-44.474 611.115,-33.6281 599.819,-25.4731"/>
<polygon fill="midnightblue" stroke="midnightblue" points="601.553,-22.4146 591.353,-19.5483 597.539,-28.1497 601.553,-22.4146"/>
</g>
<!-- Node7 -->
<g id="node7" class="node"><title>Node7</title>
<polygon fill="white" stroke="#bfbfbf" points="567.584,-112.5 567.584,-131.5 614.584,-131.5 614.584,-112.5 567.584,-112.5"/>
<text text-anchor="middle" x="591.084" y="-119.5" font-family="Verdana" font-size="10.00">vector</text>
</g>
<!-- Node5&#45;&gt;Node7 -->
<g id="edge7" class="edge"><title>Node5&#45;&gt;Node7</title>
<path fill="none" stroke="midnightblue" d="M601.544,-224.4C599.972,-215.364 597.561,-200.723 596.084,-188 594.288,-172.522 592.978,-154.893 592.15,-141.903"/>
<polygon fill="midnightblue" stroke="midnightblue" points="595.64,-141.625 591.547,-131.852 588.653,-142.044 595.64,-141.625"/>
</g>
<!-- Node8 -->
<g id="node8" class="node"><title>Node8</title>
<polygon fill="white" stroke="#bfbfbf" points="512.584,-56.5 512.584,-75.5 565.584,-75.5 565.584,-56.5 512.584,-56.5"/>
<text text-anchor="middle" x="539.084" y="-63.5" font-family="Verdana" font-size="10.00">stdint.h</text>
</g>
<!-- Node5&#45;&gt;Node8 -->
<g id="edge8" class="edge"><title>Node5&#45;&gt;Node8</title>
<path fill="none" stroke="midnightblue" d="M598.702,-224.249C590.142,-206.936 570.916,-166.961 558.084,-132 552.388,-116.479 547.217,-98.3964 543.712,-85.2497"/>
<polygon fill="midnightblue" stroke="midnightblue" points="547.09,-84.3296 541.186,-75.532 540.315,-86.091 547.09,-84.3296"/>
</g>
<!-- Node9 -->
<g id="node9" class="node"><title>Node9</title>
<g id="a_node9"><a xlink:href="XmlSink_8h.html" target="_top" xlink:title="XmlSink.h">
<polygon fill="white" stroke="black" points="409.084,-168.5 409.084,-187.5 473.084,-187.5 473.084,-168.5 409.084,-168.5"/>
<text text-anchor="middle" x="441.084" y="-175.5" font-family="Verdana" font-size="10.00">XmlSink.h</text>
</a>
</g>
</g>
<!-- Node5&#45;&gt;Node9 -->
<g id="edge9" class="edge"><title>Node5&#45;&gt;Node9</title>
<path fill="none" stroke="midnightblue" d="M577.415,-224.444C550.162,-215.359 506.901,-200.939 476.434,-190.783"/>
<polygon fill="midnightblue" stroke="midnightblue" points="477.227,-187.358 466.634,-187.516 475.014,-193.999 477.227,-187.358"/>
</g>
<!-- Node14 -->
<g id="node14" class="node"><title>Node14</title>
<g id="a_node14"><a xlink:href="XmlSource_8h.html" target="_top" xlink:title="XmlSource.h">
<polygon fill="white" stroke="black" points="313.584,-168.5 313.584,-187.5 390.584,-187.5 390.584,-168.5 313.584,-168.5"/>
<text text-anchor="middle" x="352.084" y="-175.5" font-family="Verdana" font-size="10.00">XmlSource.h</text>
</a>
</g>
</g>
<!-- Node5&#45;&gt;Node14 -->
<g id="edge18" class="edge"><title>Node5&#45;&gt;Node14</title>
<path fill="none" stroke="midnightblue" d="M570.528,-225.996C527.343,-216.705 450.753,-200.227 400.702,-189.46"/>
<polygon fill="midnightblue" stroke="midnightblue" points="401.268,-186.001 390.755,-187.32 399.795,-192.845 401.268,-186.001"/>
</g>
<!-- Node15 -->
<g id="node15" class="node"><title>Node15</title>
<g id="a_node15"><a xlink:href="PathNavigator_8h.html" target="_top" xlink:title="PathNavigator.h">
<polygon fill="white" stroke="black" points="605.084,-168.5 605.084,-187.5 697.084,-187.5 697.084,-168.5 605.084,-168.5"/>
<text text-anchor="middle" x="651.084" y="-175.5" font-family="Verdana" font-size="10.00">PathNavigator.h</text>
</a>
</g>
</g>
<!-- Node5&#45;&gt;Node15 -->
<g id="edge21" class="edge"><title>Node5&#45;&gt;Node15</title>
<path fill="none" stroke="midnightblue" d="M611.011,-224.083C617.931,-216.298 628.15,-204.801 636.536,-195.367"/>
<polygon fill="midnightblue" stroke="midnightblue" points="639.278,-197.55 643.306,-187.751 634.046,-192.9 639.278,-197.55"/>
</g>
<!-- Node10 -->
<g id="node10" class="node"><title>Node10</title>
<g id="a_node10"><a xlink:href="XmlElement_8h.html" target="_top" xlink:title="XmlElement.h">
<polygon fill="white" stroke="black" points="427.584,-112.5 427.584,-131.5 510.584,-131.5 510.584,-112.5 427.584,-112.5"/>
<text text-anchor="middle" x="469.084" y="-119.5" font-family="Verdana" font-size="10.00">XmlElement.h</text>
</a>
</g>
</g>
<!-- Node9&#45;&gt;Node10 -->
<g id="edge10" class="edge"><title>Node9&#45;&gt;Node10</title>
<path fill="none" stroke="midnightblue" d="M445.708,-168.083C449.541,-160.691 455.109,-149.953 459.849,-140.811"/>
<polygon fill="midnightblue" stroke="midnightblue" points="463.051,-142.24 464.547,-131.751 456.837,-139.018 463.051,-142.24"/>
</g>
<!-- Node11 -->
<g id="node11" class="node"><title>Node11</title>
<g id="a_node11"><a xlink:href="XmlSerializingContext_8h.html" target="_top" xlink:title="XmlSerializingContext.h">
<polygon fill="white" stroke="black" points="221.084,-112.5 221.084,-131.5 351.084,-131.5 351.084,-112.5 221.084,-112.5"/>
<text text-anchor="middle" x="286.084" y="-119.5" font-family="Verdana" font-size="10.00">XmlSerializingContext.h</text>
</a>
</g>
</g>
<!-- Node9&#45;&gt;Node11 -->
<g id="edge13" class="edge"><title>Node9&#45;&gt;Node11</title>
<path fill="none" stroke="midnightblue" d="M416.524,-168.444C390.562,-159.399 349.416,-145.064 320.287,-134.916"/>
<polygon fill="midnightblue" stroke="midnightblue" points="321.125,-131.501 310.53,-131.516 318.822,-138.112 321.125,-131.501"/>
</g>
<!-- Node10&#45;&gt;Node6 -->
<g id="edge12" class="edge"><title>Node10&#45;&gt;Node6</title>
<path fill="none" stroke="midnightblue" d="M471.978,-112.073C476.706,-98.6012 487.181,-72.8617 503.084,-56 515.733,-42.5888 533.253,-31.7771 548.179,-24.1156"/>
<polygon fill="midnightblue" stroke="midnightblue" points="550.089,-27.0775 557.535,-19.5402 547.014,-20.7891 550.089,-27.0775"/>
</g>
<!-- Node10&#45;&gt;Node8 -->
<g id="edge11" class="edge"><title>Node10&#45;&gt;Node8</title>
<path fill="none" stroke="midnightblue" d="M480.331,-112.324C490.882,-104.185 506.885,-91.8395 519.527,-82.0874"/>
<polygon fill="midnightblue" stroke="midnightblue" points="521.853,-84.7132 527.633,-75.8339 517.577,-79.1707 521.853,-84.7132"/>
</g>
<!-- Node11&#45;&gt;Node6 -->
<g id="edge17" class="edge"><title>Node11&#45;&gt;Node6</title>
<path fill="none" stroke="midnightblue" d="M293.897,-112.29C307.1,-98.1443 335.314,-70.32 365.084,-56 424.743,-27.3036 502.477,-16.8095 545.624,-13.0433"/>
<polygon fill="midnightblue" stroke="midnightblue" points="546.129,-16.5141 555.816,-12.2238 545.568,-9.53664 546.129,-16.5141"/>
</g>
<!-- Node12 -->
<g id="node12" class="node"><title>Node12</title>
<g id="a_node12"><a xlink:href="ErrorContext_8hpp.html" target="_top" xlink:title="ErrorContext.hpp">
<polygon fill="white" stroke="black" points="29.0845,-56.5 29.0845,-75.5 127.084,-75.5 127.084,-56.5 29.0845,-56.5"/>
<text text-anchor="middle" x="78.0845" y="-63.5" font-family="Verdana" font-size="10.00">ErrorContext.hpp</text>
</a>
</g>
</g>
<!-- Node11&#45;&gt;Node12 -->
<g id="edge14" class="edge"><title>Node11&#45;&gt;Node12</title>
<path fill="none" stroke="midnightblue" d="M253.126,-112.444C217.298,-103.142 159.921,-88.246 120.694,-78.062"/>
<polygon fill="midnightblue" stroke="midnightblue" points="121.447,-74.6417 110.889,-75.5164 119.688,-81.4171 121.447,-74.6417"/>
</g>
<!-- Node12&#45;&gt;Node6 -->
<g id="edge15" class="edge"><title>Node12&#45;&gt;Node6</title>
<path fill="none" stroke="midnightblue" d="M127.24,-57.7875C131.917,-57.1588 136.588,-56.5524 141.084,-56 291.932,-37.4657 472.722,-20.5198 545.44,-13.9195"/>
<polygon fill="midnightblue" stroke="midnightblue" points="546.121,-17.3723 555.765,-12.986 545.491,-10.4007 546.121,-17.3723"/>
</g>
<!-- Node13 -->
<g id="node13" class="node"><title>Node13</title>
<g id="a_node13"><a xlink:href="NonCopyable_8hpp.html" target="_top" xlink:title="NonCopyable.hpp">
<polygon fill="white" stroke="black" points="27.5845,-0.5 27.5845,-19.5 128.584,-19.5 128.584,-0.5 27.5845,-0.5"/>
<text text-anchor="middle" x="78.0845" y="-7.5" font-family="Verdana" font-size="10.00">NonCopyable.hpp</text>
</a>
</g>
</g>
<!-- Node12&#45;&gt;Node13 -->
<g id="edge16" class="edge"><title>Node12&#45;&gt;Node13</title>
<path fill="none" stroke="midnightblue" d="M78.0845,-56.083C78.0845,-49.0059 78.0845,-38.8611 78.0845,-29.9865"/>
<polygon fill="midnightblue" stroke="midnightblue" points="81.5846,-29.751 78.0845,-19.7511 74.5846,-29.7511 81.5846,-29.751"/>
</g>
<!-- Node14&#45;&gt;Node10 -->
<g id="edge19" class="edge"><title>Node14&#45;&gt;Node10</title>
<path fill="none" stroke="midnightblue" d="M370.623,-168.444C389.707,-159.636 419.659,-145.812 441.52,-135.722"/>
<polygon fill="midnightblue" stroke="midnightblue" points="443.019,-138.885 450.632,-131.516 440.086,-132.529 443.019,-138.885"/>
</g>
<!-- Node14&#45;&gt;Node11 -->
<g id="edge20" class="edge"><title>Node14&#45;&gt;Node11</title>
<path fill="none" stroke="midnightblue" d="M341.48,-168.324C331.628,-160.263 316.734,-148.077 304.869,-138.369"/>
<polygon fill="midnightblue" stroke="midnightblue" points="306.837,-135.457 296.881,-131.834 302.405,-140.875 306.837,-135.457"/>
</g>
<!-- Node15&#45;&gt;Node6 -->
<g id="edge23" class="edge"><title>Node15&#45;&gt;Node6</title>
<path fill="none" stroke="midnightblue" d="M651.417,-168.302C651.625,-155.559 650.956,-131.24 644.084,-112 632.354,-79.156 607.964,-46.311 592.343,-27.3597"/>
<polygon fill="midnightblue" stroke="midnightblue" points="594.986,-25.0637 585.861,-19.6798 589.637,-29.579 594.986,-25.0637"/>
</g>
<!-- Node15&#45;&gt;Node7 -->
<g id="edge22" class="edge"><title>Node15&#45;&gt;Node7</title>
<path fill="none" stroke="midnightblue" d="M641.444,-168.324C632.575,-160.341 619.21,-148.313 608.477,-138.653"/>
<polygon fill="midnightblue" stroke="midnightblue" points="610.674,-135.922 600.9,-131.834 605.992,-141.125 610.674,-135.922"/>
</g>
<!-- Node15&#45;&gt;Node8 -->
<g id="edge24" class="edge"><title>Node15&#45;&gt;Node8</title>
<path fill="none" stroke="midnightblue" d="M649.315,-168.419C646.151,-154.946 638.377,-128.652 623.084,-112 609.801,-97.5357 590.776,-86.81 574.19,-79.4657"/>
<polygon fill="midnightblue" stroke="midnightblue" points="575.344,-76.1549 564.768,-75.5295 572.646,-82.6139 575.344,-76.1549"/>
</g>
<!-- Node16&#45;&gt;Node5 -->
<g id="edge29" class="edge"><title>Node16&#45;&gt;Node5</title>
<path fill="none" stroke="midnightblue" d="M539.084,-504.442C539.084,-485.936 539.084,-440.812 539.084,-403 539.084,-403 539.084,-403 539.084,-345 539.084,-307.327 567.476,-271.04 586.439,-251.005"/>
<polygon fill="midnightblue" stroke="midnightblue" points="589.12,-253.27 593.641,-243.689 584.132,-248.36 589.12,-253.27"/>
</g>
<!-- Node16&#45;&gt;Node6 -->
<g id="edge43" class="edge"><title>Node16&#45;&gt;Node6</title>
<path fill="none" stroke="midnightblue" d="M493.679,-504.441C363.974,-478.708 1.08449,-397.221 1.08449,-291 1.08449,-291 1.08449,-291 1.08449,-121 1.08449,-90.9022 -3.25346,-75.0057 20.0845,-56 60.9223,-22.743 432.645,-13.5428 545.648,-11.5036"/>
<polygon fill="midnightblue" stroke="midnightblue" points="545.818,-15.0013 555.756,-11.3281 545.697,-8.00234 545.818,-15.0013"/>
</g>
<!-- Node16&#45;&gt;Node10 -->
<g id="edge28" class="edge"><title>Node16&#45;&gt;Node10</title>
<path fill="none" stroke="midnightblue" d="M533.801,-504.231C523.359,-486.043 501.084,-442.601 501.084,-403 501.084,-403 501.084,-403 501.084,-233 501.084,-199.329 487.09,-162.085 477.61,-140.719"/>
<polygon fill="midnightblue" stroke="midnightblue" points="480.767,-139.207 473.4,-131.592 474.41,-142.138 480.767,-139.207"/>
</g>
<!-- Node16&#45;&gt;Node17 -->
<g id="edge30" class="edge"><title>Node16&#45;&gt;Node17</title>
<path fill="none" stroke="midnightblue" d="M583.451,-504.444C633.575,-494.777 715.028,-479.068 767.828,-468.885"/>
<polygon fill="midnightblue" stroke="midnightblue" points="768.507,-472.319 777.664,-466.988 767.182,-465.445 768.507,-472.319"/>
</g>
<!-- Node17&#45;&gt;Node6 -->
<g id="edge42" class="edge"><title>Node17&#45;&gt;Node6</title>
<path fill="none" stroke="midnightblue" d="M847.157,-448.432C866.934,-441.258 893.008,-429.371 911.084,-412 938.758,-385.407 931.12,-368.147 952.084,-336 963.157,-319.022 970.856,-318.047 980.084,-300 993.788,-273.203 999.084,-265.098 999.084,-235 999.084,-235 999.084,-235 999.084,-121 999.084,-79.5116 969.472,-73.9841 932.084,-56 875.546,-28.8041 686.885,-16.4736 610.554,-12.5097"/>
<polygon fill="midnightblue" stroke="midnightblue" points="610.3,-8.99253 600.136,-11.9848 609.947,-15.9837 610.3,-8.99253"/>
</g>
<!-- Node18 -->
<g id="node18" class="node"><title>Node18</title>
<g id="a_node18"><a xlink:href="InstanceConfigurableElement_8h.html" target="_top" xlink:title="InstanceConfigurableElement.h">
<polygon fill="white" stroke="black" points="736.084,-392.5 736.084,-411.5 902.084,-411.5 902.084,-392.5 736.084,-392.5"/>
<text text-anchor="middle" x="819.084" y="-399.5" font-family="Verdana" font-size="10.00">InstanceConfigurableElement.h</text>
</a>
</g>
</g>
<!-- Node17&#45;&gt;Node18 -->
<g id="edge31" class="edge"><title>Node17&#45;&gt;Node18</title>
<path fill="none" stroke="midnightblue" d="M819.084,-448.083C819.084,-441.006 819.084,-430.861 819.084,-421.986"/>
<polygon fill="midnightblue" stroke="midnightblue" points="822.585,-421.751 819.084,-411.751 815.585,-421.751 822.585,-421.751"/>
</g>
<!-- Node18&#45;&gt;Node3 -->
<g id="edge39" class="edge"><title>Node18&#45;&gt;Node3</title>
<path fill="none" stroke="midnightblue" d="M829.821,-392.441C840.608,-383.675 857.533,-369.463 871.084,-356 886.807,-340.381 903.355,-321.155 914.546,-307.68"/>
<polygon fill="midnightblue" stroke="midnightblue" points="917.418,-309.698 921.064,-299.75 912.01,-305.253 917.418,-309.698"/>
</g>
<!-- Node18&#45;&gt;Node4 -->
<g id="edge32" class="edge"><title>Node18&#45;&gt;Node4</title>
<path fill="none" stroke="midnightblue" d="M818.732,-392.297C817.407,-359.633 812.714,-243.866 810.853,-197.957"/>
<polygon fill="midnightblue" stroke="midnightblue" points="814.347,-197.734 810.445,-187.884 807.353,-198.017 814.347,-197.734"/>
</g>
<!-- Node18&#45;&gt;Node6 -->
<g id="edge41" class="edge"><title>Node18&#45;&gt;Node6</title>
<path fill="none" stroke="midnightblue" d="M822.83,-392.364C838.763,-355.045 899.024,-207.733 875.084,-168 816.208,-70.2794 673.902,-30.231 610.04,-16.7743"/>
<polygon fill="midnightblue" stroke="midnightblue" points="610.627,-13.3223 600.131,-14.7688 609.238,-20.1832 610.627,-13.3223"/>
</g>
<!-- Node19 -->
<g id="node19" class="node"><title>Node19</title>
<g id="a_node19"><a xlink:href="ConfigurableElementWithMapping_8h.html" target="_top" xlink:title="ConfigurableElementWithMapping.h">
<polygon fill="white" stroke="black" points="567.084,-336.5 567.084,-355.5 753.084,-355.5 753.084,-336.5 567.084,-336.5"/>
<text text-anchor="middle" x="660.084" y="-343.5" font-family="Verdana" font-size="10.00">ConfigurableElementWithMapping.h</text>
</a>
</g>
</g>
<!-- Node18&#45;&gt;Node19 -->
<g id="edge33" class="edge"><title>Node18&#45;&gt;Node19</title>
<path fill="none" stroke="midnightblue" d="M793.89,-392.444C767.142,-383.359 724.682,-368.939 694.779,-358.783"/>
<polygon fill="midnightblue" stroke="midnightblue" points="695.755,-355.418 685.161,-355.516 693.504,-362.046 695.755,-355.418"/>
</g>
<!-- Node21 -->
<g id="node21" class="node"><title>Node21</title>
<polygon fill="white" stroke="#bfbfbf" points="747.084,-224.5 747.084,-243.5 777.084,-243.5 777.084,-224.5 747.084,-224.5"/>
<text text-anchor="middle" x="762.084" y="-231.5" font-family="Verdana" font-size="10.00">list</text>
</g>
<!-- Node18&#45;&gt;Node21 -->
<g id="edge40" class="edge"><title>Node18&#45;&gt;Node21</title>
<path fill="none" stroke="midnightblue" d="M816.02,-392.075C807.009,-365.832 780.471,-288.545 768.305,-253.117"/>
<polygon fill="midnightblue" stroke="midnightblue" points="771.585,-251.889 765.027,-243.568 764.964,-254.163 771.585,-251.889"/>
</g>
<!-- Node19&#45;&gt;Node6 -->
<g id="edge38" class="edge"><title>Node19&#45;&gt;Node6</title>
<path fill="none" stroke="midnightblue" d="M588.527,-336.446C504.011,-322.087 366.981,-284.48 304.084,-188 299.23,-180.554 299.758,-175.765 304.084,-168 305.523,-165.418 482.494,-57.4235 485.084,-56 506.37,-44.3058 531.155,-32.3937 549.783,-23.7654"/>
<polygon fill="midnightblue" stroke="midnightblue" points="551.287,-26.9264 558.912,-19.5712 548.364,-20.5656 551.287,-26.9264"/>
</g>
<!-- Node20 -->
<g id="node20" class="node"><title>Node20</title>
<g id="a_node20"><a xlink:href="ConfigurableElement_8h.html" target="_top" xlink:title="ConfigurableElement.h">
<polygon fill="white" stroke="black" points="612.584,-280.5 612.584,-299.5 737.584,-299.5 737.584,-280.5 612.584,-280.5"/>
<text text-anchor="middle" x="675.084" y="-287.5" font-family="Verdana" font-size="10.00">ConfigurableElement.h</text>
</a>
</g>
</g>
<!-- Node19&#45;&gt;Node20 -->
<g id="edge34" class="edge"><title>Node19&#45;&gt;Node20</title>
<path fill="none" stroke="midnightblue" d="M662.561,-336.083C664.571,-328.849 667.471,-318.409 669.974,-309.397"/>
<polygon fill="midnightblue" stroke="midnightblue" points="673.349,-310.323 672.654,-299.751 666.605,-308.449 673.349,-310.323"/>
</g>
<!-- Node20&#45;&gt;Node4 -->
<g id="edge35" class="edge"><title>Node20&#45;&gt;Node4</title>
<path fill="none" stroke="midnightblue" d="M682.258,-280.353C693.383,-267.248 715.841,-241.981 738.084,-224 752.754,-212.142 770.749,-200.894 785.079,-192.61"/>
<polygon fill="midnightblue" stroke="midnightblue" points="786.918,-195.591 793.895,-187.618 783.469,-189.5 786.918,-195.591"/>
</g>
<!-- Node20&#45;&gt;Node5 -->
<g id="edge36" class="edge"><title>Node20&#45;&gt;Node5</title>
<path fill="none" stroke="midnightblue" d="M663.516,-280.324C652.664,-272.185 636.204,-259.839 623.201,-250.087"/>
<polygon fill="midnightblue" stroke="midnightblue" points="624.963,-247.034 614.863,-243.834 620.763,-252.634 624.963,-247.034"/>
</g>
<!-- Node20&#45;&gt;Node21 -->
<g id="edge37" class="edge"><title>Node20&#45;&gt;Node21</title>
<path fill="none" stroke="midnightblue" d="M689.063,-280.324C702.634,-271.9 723.465,-258.971 739.409,-249.074"/>
<polygon fill="midnightblue" stroke="midnightblue" points="741.49,-251.902 748.141,-243.655 737.799,-245.954 741.49,-251.902"/>
</g>
<!-- Node22&#45;&gt;Node3 -->
<g id="edge45" class="edge"><title>Node22&#45;&gt;Node3</title>
<path fill="none" stroke="midnightblue" d="M1117.43,-336.444C1078.43,-327.083 1015.82,-312.056 973.368,-301.868"/>
<polygon fill="midnightblue" stroke="midnightblue" points="974.11,-298.447 963.57,-299.516 972.477,-305.254 974.11,-298.447"/>
</g>
<!-- Node22&#45;&gt;Node6 -->
<g id="edge46" class="edge"><title>Node22&#45;&gt;Node6</title>
<path fill="none" stroke="midnightblue" d="M1147.66,-336.25C1136.95,-318.096 1114.08,-274.713 1114.08,-235 1114.08,-235 1114.08,-235 1114.08,-121 1114.08,-17.5854 726.374,-10.5104 610.444,-10.7064"/>
<polygon fill="midnightblue" stroke="midnightblue" points="610.082,-7.20764 600.096,-10.7451 610.109,-14.2076 610.082,-7.20764"/>
</g>
<!-- Node23&#45;&gt;Node6 -->
<g id="edge52" class="edge"><title>Node23&#45;&gt;Node6</title>
<path fill="none" stroke="midnightblue" d="M106.745,-224.34C90.8161,-212.041 66.4493,-188.703 78.0845,-168 124.988,-84.5405 171.961,-88.2985 262.084,-56 361.285,-20.4484 487.475,-12.8836 545.818,-11.3439"/>
<polygon fill="midnightblue" stroke="midnightblue" points="545.981,-14.8413 555.901,-11.1211 545.826,-7.84297 545.981,-14.8413"/>
</g>
<!-- Node24 -->
<g id="node24" class="node"><title>Node24</title>
<g id="a_node24"><a xlink:href="XmlElementSerializingContext_8h.html" target="_top" xlink:title="XmlElementSerializingContext.h">
<polygon fill="white" stroke="black" points="87.0845,-168.5 87.0845,-187.5 257.084,-187.5 257.084,-168.5 87.0845,-168.5"/>
<text text-anchor="middle" x="172.084" y="-175.5" font-family="Verdana" font-size="10.00">XmlElementSerializingContext.h</text>
</a>
</g>
</g>
<!-- Node23&#45;&gt;Node24 -->
<g id="edge49" class="edge"><title>Node23&#45;&gt;Node24</title>
<path fill="none" stroke="midnightblue" d="M127.836,-224.083C135.554,-216.22 146.989,-204.569 156.301,-195.081"/>
<polygon fill="midnightblue" stroke="midnightblue" points="158.989,-197.34 163.495,-187.751 153.993,-192.436 158.989,-197.34"/>
</g>
<!-- Node24&#45;&gt;Node6 -->
<g id="edge51" class="edge"><title>Node24&#45;&gt;Node6</title>
<path fill="none" stroke="midnightblue" d="M175.484,-168.323C181.196,-154.719 193.908,-128.249 212.084,-112 309.575,-24.843 475.765,-12.1153 545.63,-10.8009"/>
<polygon fill="midnightblue" stroke="midnightblue" points="546.032,-14.2965 555.99,-10.6783 545.949,-7.29694 546.032,-14.2965"/>
</g>
<!-- Node24&#45;&gt;Node11 -->
<g id="edge50" class="edge"><title>Node24&#45;&gt;Node11</title>
<path fill="none" stroke="midnightblue" d="M190.148,-168.444C208.659,-159.675 237.665,-145.935 258.94,-135.858"/>
<polygon fill="midnightblue" stroke="midnightblue" points="260.566,-138.96 268.105,-131.516 257.57,-132.634 260.566,-138.96"/>
</g>
</g>
</svg>
