<?xml version="1.0" encoding="UTF-8" standalone="no"?>
<!DOCTYPE svg PUBLIC "-//W3C//DTD SVG 1.1//EN"
 "http://www.w3.org/Graphics/SVG/1.1/DTD/svg11.dtd">
<!-- Generated by graphviz version 2.38.0 (20140413.2041)
 -->
<!-- Title: parameter/ComponentInstance.h Pages: 1 -->
<svg width="631pt" height="308pt"
 viewBox="0.00 0.00 631.00 308.00" xmlns="http://www.w3.org/2000/svg" xmlns:xlink="http://www.w3.org/1999/xlink">
<g id="graph0" class="graph" transform="scale(1 1) rotate(0) translate(4 304)">
<title>parameter/ComponentInstance.h</title>
<polygon fill="white" stroke="none" points="-4,4 -4,-304 627,-304 627,4 -4,4"/>
<!-- Node1 -->
<g id="node1" class="node"><title>Node1</title>
<polygon fill="#bfbfbf" stroke="black" points="0,-280.5 0,-299.5 176,-299.5 176,-280.5 0,-280.5"/>
<text text-anchor="middle" x="88" y="-287.5" font-family="Verdana" font-size="10.00">parameter/ComponentInstance.h</text>
</g>
<!-- Node2 -->
<g id="node2" class="node"><title>Node2</title>
<g id="a_node2"><a xlink:href="TypeElement_8h.html" target="_top" xlink:title="TypeElement.h">
<polygon fill="white" stroke="black" points="81,-224.5 81,-243.5 167,-243.5 167,-224.5 81,-224.5"/>
<text text-anchor="middle" x="124" y="-231.5" font-family="Verdana" font-size="10.00">TypeElement.h</text>
</a>
</g>
</g>
<!-- Node1&#45;&gt;Node2 -->
<g id="edge1" class="edge"><title>Node1&#45;&gt;Node2</title>
<path fill="none" stroke="midnightblue" d="M93.9447,-280.083C98.9773,-272.534 106.337,-261.495 112.513,-252.23"/>
<polygon fill="midnightblue" stroke="midnightblue" points="115.531,-254.013 118.166,-243.751 109.707,-250.13 115.531,-254.013"/>
</g>
<!-- Node4 -->
<g id="node4" class="node"><title>Node4</title>
<polygon fill="white" stroke="#bfbfbf" points="153,-0.5 153,-19.5 197,-19.5 197,-0.5 153,-0.5"/>
<text text-anchor="middle" x="175" y="-7.5" font-family="Verdana" font-size="10.00">string</text>
</g>
<!-- Node1&#45;&gt;Node4 -->
<g id="edge21" class="edge"><title>Node1&#45;&gt;Node4</title>
<path fill="none" stroke="midnightblue" d="M83.2797,-280.456C73.7262,-262.337 53,-218.48 53,-179 53,-179 53,-179 53,-121 53,-72.1755 107.562,-39.4586 143.709,-23.1412"/>
<polygon fill="midnightblue" stroke="midnightblue" points="145.12,-26.3445 152.907,-19.1598 142.339,-19.9205 145.12,-26.3445"/>
</g>
<!-- Node3 -->
<g id="node3" class="node"><title>Node3</title>
<g id="a_node3"><a xlink:href="Element_8h.html" target="_top" xlink:title="Element.h">
<polygon fill="white" stroke="black" points="349.5,-168.5 349.5,-187.5 414.5,-187.5 414.5,-168.5 349.5,-168.5"/>
<text text-anchor="middle" x="382" y="-175.5" font-family="Verdana" font-size="10.00">Element.h</text>
</a>
</g>
</g>
<!-- Node2&#45;&gt;Node3 -->
<g id="edge2" class="edge"><title>Node2&#45;&gt;Node3</title>
<path fill="none" stroke="midnightblue" d="M164.881,-224.444C212.636,-214.448 291.252,-197.994 339.636,-187.867"/>
<polygon fill="midnightblue" stroke="midnightblue" points="340.408,-191.281 349.479,-185.807 338.974,-184.43 340.408,-191.281"/>
</g>
<!-- Node2&#45;&gt;Node4 -->
<g id="edge20" class="edge"><title>Node2&#45;&gt;Node4</title>
<path fill="none" stroke="midnightblue" d="M123.305,-224.154C121.55,-197.629 118.612,-116.832 142,-56 145.983,-45.6404 153.01,-35.5409 159.559,-27.5434"/>
<polygon fill="midnightblue" stroke="midnightblue" points="162.391,-29.6205 166.31,-19.7774 157.108,-25.0277 162.391,-29.6205"/>
</g>
<!-- Node3&#45;&gt;Node4 -->
<g id="edge3" class="edge"><title>Node3&#45;&gt;Node4</title>
<path fill="none" stroke="midnightblue" d="M349.457,-172.094C315.306,-166.043 260.748,-153.783 218,-132 182.501,-113.911 165.259,-111.909 148,-76 140.184,-59.7378 150.367,-40.6111 160.385,-27.3343"/>
<polygon fill="midnightblue" stroke="midnightblue" points="163.135,-29.5006 166.755,-19.5432 157.716,-25.07 163.135,-29.5006"/>
</g>
<!-- Node5 -->
<g id="node5" class="node"><title>Node5</title>
<polygon fill="white" stroke="#bfbfbf" points="532.5,-56.5 532.5,-75.5 579.5,-75.5 579.5,-56.5 532.5,-56.5"/>
<text text-anchor="middle" x="556" y="-63.5" font-family="Verdana" font-size="10.00">vector</text>
</g>
<!-- Node3&#45;&gt;Node5 -->
<g id="edge4" class="edge"><title>Node3&#45;&gt;Node5</title>
<path fill="none" stroke="midnightblue" d="M414.782,-177.84C452.326,-176.887 512.905,-169.144 546,-132 557.028,-119.623 558.763,-100.378 558.2,-86.0363"/>
<polygon fill="midnightblue" stroke="midnightblue" points="561.668,-85.5023 557.388,-75.8105 554.69,-86.056 561.668,-85.5023"/>
</g>
<!-- Node6 -->
<g id="node6" class="node"><title>Node6</title>
<polygon fill="white" stroke="#bfbfbf" points="428.5,-0.5 428.5,-19.5 481.5,-19.5 481.5,-0.5 428.5,-0.5"/>
<text text-anchor="middle" x="455" y="-7.5" font-family="Verdana" font-size="10.00">stdint.h</text>
</g>
<!-- Node3&#45;&gt;Node6 -->
<g id="edge5" class="edge"><title>Node3&#45;&gt;Node6</title>
<path fill="none" stroke="midnightblue" d="M385.925,-168.075C397.465,-141.832 431.453,-64.5453 447.033,-29.1165"/>
<polygon fill="midnightblue" stroke="midnightblue" points="450.41,-30.131 451.232,-19.5681 444.003,-27.3131 450.41,-30.131"/>
</g>
<!-- Node7 -->
<g id="node7" class="node"><title>Node7</title>
<polygon fill="white" stroke="#bfbfbf" points="593,-112.5 593,-131.5 623,-131.5 623,-112.5 593,-112.5"/>
<text text-anchor="middle" x="608" y="-119.5" font-family="Verdana" font-size="10.00">list</text>
</g>
<!-- Node3&#45;&gt;Node7 -->
<g id="edge6" class="edge"><title>Node3&#45;&gt;Node7</title>
<path fill="none" stroke="midnightblue" d="M414.607,-170.349C453.832,-162.165 521.576,-147.445 579,-132 580.26,-131.661 581.547,-131.304 582.845,-130.934"/>
<polygon fill="midnightblue" stroke="midnightblue" points="584.134,-134.202 592.712,-127.984 582.129,-127.495 584.134,-134.202"/>
</g>
<!-- Node8 -->
<g id="node8" class="node"><title>Node8</title>
<g id="a_node8"><a xlink:href="XmlSink_8h.html" target="_top" xlink:title="XmlSink.h">
<polygon fill="white" stroke="black" points="227,-112.5 227,-131.5 291,-131.5 291,-112.5 227,-112.5"/>
<text text-anchor="middle" x="259" y="-119.5" font-family="Verdana" font-size="10.00">XmlSink.h</text>
</a>
</g>
</g>
<!-- Node3&#45;&gt;Node8 -->
<g id="edge7" class="edge"><title>Node3&#45;&gt;Node8</title>
<path fill="none" stroke="midnightblue" d="M362.51,-168.444C342.358,-159.596 310.677,-145.687 287.669,-135.586"/>
<polygon fill="midnightblue" stroke="midnightblue" points="288.962,-132.332 278.399,-131.516 286.148,-138.741 288.962,-132.332"/>
</g>
<!-- Node11 -->
<g id="node11" class="node"><title>Node11</title>
<g id="a_node11"><a xlink:href="XmlSource_8h.html" target="_top" xlink:title="XmlSource.h">
<polygon fill="white" stroke="black" points="309.5,-112.5 309.5,-131.5 386.5,-131.5 386.5,-112.5 309.5,-112.5"/>
<text text-anchor="middle" x="348" y="-119.5" font-family="Verdana" font-size="10.00">XmlSource.h</text>
</a>
</g>
</g>
<!-- Node3&#45;&gt;Node11 -->
<g id="edge13" class="edge"><title>Node3&#45;&gt;Node11</title>
<path fill="none" stroke="midnightblue" d="M376.386,-168.083C371.633,-160.534 364.682,-149.495 358.848,-140.23"/>
<polygon fill="midnightblue" stroke="midnightblue" points="361.8,-138.349 353.51,-131.751 355.876,-142.078 361.8,-138.349"/>
</g>
<!-- Node12 -->
<g id="node12" class="node"><title>Node12</title>
<g id="a_node12"><a xlink:href="PathNavigator_8h.html" target="_top" xlink:title="PathNavigator.h">
<polygon fill="white" stroke="black" points="445,-112.5 445,-131.5 537,-131.5 537,-112.5 445,-112.5"/>
<text text-anchor="middle" x="491" y="-119.5" font-family="Verdana" font-size="10.00">PathNavigator.h</text>
</a>
</g>
</g>
<!-- Node3&#45;&gt;Node12 -->
<g id="edge16" class="edge"><title>Node3&#45;&gt;Node12</title>
<path fill="none" stroke="midnightblue" d="M399.513,-168.324C417.072,-159.625 444.331,-146.12 464.531,-136.113"/>
<polygon fill="midnightblue" stroke="midnightblue" points="466.124,-139.23 473.531,-131.655 463.016,-132.958 466.124,-139.23"/>
</g>
<!-- Node9 -->
<g id="node9" class="node"><title>Node9</title>
<g id="a_node9"><a xlink:href="XmlElement_8h.html" target="_top" xlink:title="XmlElement.h">
<polygon fill="white" stroke="black" points="305.5,-56.5 305.5,-75.5 388.5,-75.5 388.5,-56.5 305.5,-56.5"/>
<text text-anchor="middle" x="347" y="-63.5" font-family="Verdana" font-size="10.00">XmlElement.h</text>
</a>
</g>
</g>
<!-- Node8&#45;&gt;Node9 -->
<g id="edge8" class="edge"><title>Node8&#45;&gt;Node9</title>
<path fill="none" stroke="midnightblue" d="M273.139,-112.324C286.866,-103.9 307.936,-90.9709 324.064,-81.0741"/>
<polygon fill="midnightblue" stroke="midnightblue" points="326.204,-83.8678 332.896,-75.6545 322.543,-77.9016 326.204,-83.8678"/>
</g>
<!-- Node10 -->
<g id="node10" class="node"><title>Node10</title>
<g id="a_node10"><a xlink:href="XmlSerializingContext_8h.html" target="_top" xlink:title="XmlSerializingContext.h">
<polygon fill="white" stroke="black" points="157,-56.5 157,-75.5 287,-75.5 287,-56.5 157,-56.5"/>
<text text-anchor="middle" x="222" y="-63.5" font-family="Verdana" font-size="10.00">XmlSerializingContext.h</text>
</a>
</g>
</g>
<!-- Node8&#45;&gt;Node10 -->
<g id="edge11" class="edge"><title>Node8&#45;&gt;Node10</title>
<path fill="none" stroke="midnightblue" d="M252.89,-112.083C247.718,-104.534 240.154,-93.4948 233.806,-84.2298"/>
<polygon fill="midnightblue" stroke="midnightblue" points="236.536,-82.0221 227.996,-75.7511 230.761,-85.9787 236.536,-82.0221"/>
</g>
<!-- Node9&#45;&gt;Node4 -->
<g id="edge10" class="edge"><title>Node9&#45;&gt;Node4</title>
<path fill="none" stroke="midnightblue" d="M319.746,-56.4435C289.146,-46.8366 239.539,-31.2622 207.09,-21.0749"/>
<polygon fill="midnightblue" stroke="midnightblue" points="207.793,-17.6271 197.204,-17.971 205.696,-24.3057 207.793,-17.6271"/>
</g>
<!-- Node9&#45;&gt;Node6 -->
<g id="edge9" class="edge"><title>Node9&#45;&gt;Node6</title>
<path fill="none" stroke="midnightblue" d="M364.352,-56.324C381.672,-47.6641 408.515,-34.2424 428.502,-24.249"/>
<polygon fill="midnightblue" stroke="midnightblue" points="430.312,-27.2572 437.691,-19.6545 427.181,-20.9962 430.312,-27.2572"/>
</g>
<!-- Node10&#45;&gt;Node4 -->
<g id="edge12" class="edge"><title>Node10&#45;&gt;Node4</title>
<path fill="none" stroke="midnightblue" d="M214.239,-56.083C207.463,-48.2982 197.457,-36.8015 189.245,-27.3665"/>
<polygon fill="midnightblue" stroke="midnightblue" points="191.822,-24.9963 182.617,-19.7511 186.542,-29.592 191.822,-24.9963"/>
</g>
<!-- Node11&#45;&gt;Node9 -->
<g id="edge14" class="edge"><title>Node11&#45;&gt;Node9</title>
<path fill="none" stroke="midnightblue" d="M347.835,-112.083C347.704,-105.006 347.516,-94.8611 347.352,-85.9865"/>
<polygon fill="midnightblue" stroke="midnightblue" points="350.847,-85.6845 347.162,-75.7511 343.848,-85.8142 350.847,-85.6845"/>
</g>
<!-- Node11&#45;&gt;Node10 -->
<g id="edge15" class="edge"><title>Node11&#45;&gt;Node10</title>
<path fill="none" stroke="midnightblue" d="M328.035,-112.444C307.391,-103.596 274.937,-89.6875 251.368,-79.5865"/>
<polygon fill="midnightblue" stroke="midnightblue" points="252.442,-76.2387 241.872,-75.5164 249.684,-82.6727 252.442,-76.2387"/>
</g>
<!-- Node12&#45;&gt;Node4 -->
<g id="edge18" class="edge"><title>Node12&#45;&gt;Node4</title>
<path fill="none" stroke="midnightblue" d="M481.375,-112.321C465.191,-98.2186 430.955,-70.4559 397,-56 333.155,-28.8189 251.853,-17.7289 207.491,-13.4613"/>
<polygon fill="midnightblue" stroke="midnightblue" points="207.577,-9.95481 197.302,-12.5396 206.946,-16.9264 207.577,-9.95481"/>
</g>
<!-- Node12&#45;&gt;Node5 -->
<g id="edge17" class="edge"><title>Node12&#45;&gt;Node5</title>
<path fill="none" stroke="midnightblue" d="M501.443,-112.324C511.146,-104.263 525.815,-92.0765 537.5,-82.3695"/>
<polygon fill="midnightblue" stroke="midnightblue" points="539.911,-84.9163 545.367,-75.8339 535.438,-79.532 539.911,-84.9163"/>
</g>
<!-- Node12&#45;&gt;Node6 -->
<g id="edge19" class="edge"><title>Node12&#45;&gt;Node6</title>
<path fill="none" stroke="midnightblue" d="M488.175,-112.368C482.339,-94.5366 468.842,-53.2953 460.98,-29.2717"/>
<polygon fill="midnightblue" stroke="midnightblue" points="464.249,-28.0067 457.812,-19.5914 457.596,-30.1841 464.249,-28.0067"/>
</g>
</g>
</svg>
