<?xml version="1.0" encoding="UTF-8" standalone="no"?>
<!DOCTYPE svg PUBLIC "-//W3C//DTD SVG 1.1//EN"
 "http://www.w3.org/Graphics/SVG/1.1/DTD/svg11.dtd">
<!-- Generated by graphviz version 2.36.0 (20140111.2315)
 -->
<!-- Title: parameter/ComponentType.h Pages: 1 -->
<svg width="551pt" height="252pt"
 viewBox="0.00 0.00 551.00 252.00" xmlns="http://www.w3.org/2000/svg" xmlns:xlink="http://www.w3.org/1999/xlink">
<g id="graph0" class="graph" transform="scale(1 1) rotate(0) translate(4 248)">
<title>parameter/ComponentType.h</title>
<polygon fill="white" stroke="none" points="-4,4 -4,-248 547,-248 547,4 -4,4"/>
<!-- Node1 -->
<g id="node1" class="node"><title>Node1</title>
<polygon fill="#bfbfbf" stroke="black" points="-0.5,-224.5 -0.5,-243.5 156.5,-243.5 156.5,-224.5 -0.5,-224.5"/>
<text text-anchor="middle" x="78" y="-231.5" font-family="Verdana" font-size="10.00">parameter/ComponentType.h</text>
</g>
<!-- Node2 -->
<g id="node2" class="node"><title>Node2</title>
<g id="a_node2"><a xlink:href="TypeElement_8h.html" target="_top" xlink:title="TypeElement.h">
<polygon fill="white" stroke="black" points="71,-168.5 71,-187.5 157,-187.5 157,-168.5 71,-168.5"/>
<text text-anchor="middle" x="114" y="-175.5" font-family="Verdana" font-size="10.00">TypeElement.h</text>
</a>
</g>
</g>
<!-- Node1&#45;&gt;Node2 -->
<g id="edge1" class="edge"><title>Node1&#45;&gt;Node2</title>
<path fill="none" stroke="midnightblue" d="M83.9447,-224.083C88.9773,-216.534 96.3368,-205.495 102.513,-196.23"/>
<polygon fill="midnightblue" stroke="midnightblue" points="105.531,-198.013 108.166,-187.751 99.7067,-194.13 105.531,-198.013"/>
</g>
<!-- Node4 -->
<g id="node4" class="node"><title>Node4</title>
<polygon fill="white" stroke="#bfbfbf" points="78,-0.5 78,-19.5 122,-19.5 122,-0.5 78,-0.5"/>
<text text-anchor="middle" x="100" y="-7.5" font-family="Verdana" font-size="10.00">string</text>
</g>
<!-- Node1&#45;&gt;Node4 -->
<g id="edge14" class="edge"><title>Node1&#45;&gt;Node4</title>
<path fill="none" stroke="midnightblue" d="M73.8888,-224.277C69.9413,-215.383 64.255,-201.074 62,-188 60.4891,-179.24 60.9471,-176.826 62,-168 68.0976,-116.887 84.9864,-58.3589 94.0573,-29.3249"/>
<polygon fill="midnightblue" stroke="midnightblue" points="97.417,-30.3089 97.1122,-19.7184 90.7462,-28.1875 97.417,-30.3089"/>
</g>
<!-- Node3 -->
<g id="node3" class="node"><title>Node3</title>
<g id="a_node3"><a xlink:href="Element_8h.html" target="_top" xlink:title="Element.h">
<polygon fill="white" stroke="black" points="238.5,-112.5 238.5,-131.5 303.5,-131.5 303.5,-112.5 238.5,-112.5"/>
<text text-anchor="middle" x="271" y="-119.5" font-family="Verdana" font-size="10.00">Element.h</text>
</a>
</g>
</g>
<!-- Node2&#45;&gt;Node3 -->
<g id="edge2" class="edge"><title>Node2&#45;&gt;Node3</title>
<path fill="none" stroke="midnightblue" d="M138.877,-168.444C165.289,-159.359 207.215,-144.939 236.742,-134.783"/>
<polygon fill="midnightblue" stroke="midnightblue" points="237.921,-138.079 246.239,-131.516 235.645,-131.459 237.921,-138.079"/>
</g>
<!-- Node2&#45;&gt;Node4 -->
<g id="edge13" class="edge"><title>Node2&#45;&gt;Node4</title>
<path fill="none" stroke="midnightblue" d="M113.247,-168.075C111.044,-141.945 104.572,-65.2106 101.567,-29.577"/>
<polygon fill="midnightblue" stroke="midnightblue" points="105.051,-29.2386 100.723,-19.5681 98.0755,-29.8269 105.051,-29.2386"/>
</g>
<!-- Node3&#45;&gt;Node4 -->
<g id="edge3" class="edge"><title>Node3&#45;&gt;Node4</title>
<path fill="none" stroke="midnightblue" d="M238.34,-116.559C209.314,-111.187 167.095,-99.7213 138,-76 123,-63.7699 112.639,-43.9437 106.57,-29.3991"/>
<polygon fill="midnightblue" stroke="midnightblue" points="109.777,-27.9885 102.903,-19.926 103.249,-30.5152 109.777,-27.9885"/>
</g>
<!-- Node5 -->
<g id="node5" class="node"><title>Node5</title>
<polygon fill="white" stroke="#bfbfbf" points="496.5,-0.5 496.5,-19.5 543.5,-19.5 543.5,-0.5 496.5,-0.5"/>
<text text-anchor="middle" x="520" y="-7.5" font-family="Verdana" font-size="10.00">vector</text>
</g>
<!-- Node3&#45;&gt;Node5 -->
<g id="edge4" class="edge"><title>Node3&#45;&gt;Node5</title>
<path fill="none" stroke="midnightblue" d="M303.703,-117.973C357.731,-112.385 462.499,-98.8806 491,-76 505.282,-64.5341 512.747,-44.5561 516.502,-29.7662"/>
<polygon fill="midnightblue" stroke="midnightblue" points="519.987,-30.2111 518.701,-19.6946 513.148,-28.7177 519.987,-30.2111"/>
</g>
<!-- Node6 -->
<g id="node6" class="node"><title>Node6</title>
<polygon fill="white" stroke="#bfbfbf" points="403.5,-0.5 403.5,-19.5 456.5,-19.5 456.5,-0.5 403.5,-0.5"/>
<text text-anchor="middle" x="430" y="-7.5" font-family="Verdana" font-size="10.00">stdint.h</text>
</g>
<!-- Node3&#45;&gt;Node6 -->
<g id="edge5" class="edge"><title>Node3&#45;&gt;Node6</title>
<path fill="none" stroke="midnightblue" d="M303.52,-118.619C355.346,-114.073 452.986,-102.182 474,-76 487.268,-59.4693 468.168,-39.0299 451.136,-25.5346"/>
<polygon fill="midnightblue" stroke="midnightblue" points="453.196,-22.7042 443.092,-19.515 449.002,-28.3087 453.196,-22.7042"/>
</g>
<!-- Node7 -->
<g id="node7" class="node"><title>Node7</title>
<polygon fill="white" stroke="#bfbfbf" points="147,-56.5 147,-75.5 177,-75.5 177,-56.5 147,-56.5"/>
<text text-anchor="middle" x="162" y="-63.5" font-family="Verdana" font-size="10.00">list</text>
</g>
<!-- Node3&#45;&gt;Node7 -->
<g id="edge6" class="edge"><title>Node3&#45;&gt;Node7</title>
<path fill="none" stroke="midnightblue" d="M253.487,-112.324C235.2,-103.264 206.394,-88.9933 185.996,-78.8881"/>
<polygon fill="midnightblue" stroke="midnightblue" points="187.527,-75.7407 177.013,-74.4376 184.42,-82.0131 187.527,-75.7407"/>
</g>
<!-- Node8 -->
<g id="node8" class="node"><title>Node8</title>
<polygon fill="white" stroke="#bfbfbf" points="195,-56.5 195,-75.5 259,-75.5 259,-56.5 195,-56.5"/>
<text text-anchor="middle" x="227" y="-63.5" font-family="Verdana" font-size="10.00">XmlSink.h</text>
</g>
<!-- Node3&#45;&gt;Node8 -->
<g id="edge7" class="edge"><title>Node3&#45;&gt;Node8</title>
<path fill="none" stroke="midnightblue" d="M263.734,-112.083C257.455,-104.377 248.212,-93.0333 240.569,-83.6531"/>
<polygon fill="midnightblue" stroke="midnightblue" points="243.161,-81.2926 234.131,-75.7511 237.734,-85.7143 243.161,-81.2926"/>
</g>
<!-- Node9 -->
<g id="node9" class="node"><title>Node9</title>
<polygon fill="white" stroke="#bfbfbf" points="277.5,-56.5 277.5,-75.5 354.5,-75.5 354.5,-56.5 277.5,-56.5"/>
<text text-anchor="middle" x="316" y="-63.5" font-family="Verdana" font-size="10.00">XmlSource.h</text>
</g>
<!-- Node3&#45;&gt;Node9 -->
<g id="edge8" class="edge"><title>Node3&#45;&gt;Node9</title>
<path fill="none" stroke="midnightblue" d="M278.431,-112.083C284.853,-104.377 294.306,-93.0333 302.122,-83.6531"/>
<polygon fill="midnightblue" stroke="midnightblue" points="304.994,-85.674 308.707,-75.7511 299.617,-81.1927 304.994,-85.674"/>
</g>
<!-- Node10 -->
<g id="node10" class="node"><title>Node10</title>
<g id="a_node10"><a xlink:href="PathNavigator_8h.html" target="_top" xlink:title="PathNavigator.h">
<polygon fill="white" stroke="black" points="373,-56.5 373,-75.5 465,-75.5 465,-56.5 373,-56.5"/>
<text text-anchor="middle" x="419" y="-63.5" font-family="Verdana" font-size="10.00">PathNavigator.h</text>
</a>
</g>
</g>
<!-- Node3&#45;&gt;Node10 -->
<g id="edge9" class="edge"><title>Node3&#45;&gt;Node10</title>
<path fill="none" stroke="midnightblue" d="M294.451,-112.444C319.133,-103.438 358.185,-89.1891 385.977,-79.049"/>
<polygon fill="midnightblue" stroke="midnightblue" points="387.464,-82.2321 395.659,-75.5164 385.065,-75.6561 387.464,-82.2321"/>
</g>
<!-- Node10&#45;&gt;Node4 -->
<g id="edge11" class="edge"><title>Node10&#45;&gt;Node4</title>
<path fill="none" stroke="midnightblue" d="M372.955,-57.2056C307.469,-46.1202 189.08,-26.0794 132.206,-16.4518"/>
<polygon fill="midnightblue" stroke="midnightblue" points="132.451,-12.9435 122.007,-14.7253 131.282,-19.8453 132.451,-12.9435"/>
</g>
<!-- Node10&#45;&gt;Node5 -->
<g id="edge10" class="edge"><title>Node10&#45;&gt;Node5</title>
<path fill="none" stroke="midnightblue" d="M435.227,-56.324C451.351,-47.7034 476.3,-34.3643 494.964,-24.3855"/>
<polygon fill="midnightblue" stroke="midnightblue" points="496.644,-27.456 503.813,-19.6545 493.344,-21.283 496.644,-27.456"/>
</g>
<!-- Node10&#45;&gt;Node6 -->
<g id="edge12" class="edge"><title>Node10&#45;&gt;Node6</title>
<path fill="none" stroke="midnightblue" d="M420.816,-56.083C422.274,-48.9272 424.371,-38.6353 426.193,-29.6911"/>
<polygon fill="midnightblue" stroke="midnightblue" points="429.651,-30.2485 428.217,-19.7511 422.792,-28.8512 429.651,-30.2485"/>
</g>
</g>
</svg>
