<?xml version="1.0" encoding="UTF-8" standalone="no"?>
<!DOCTYPE svg PUBLIC "-//W3C//DTD SVG 1.1//EN"
 "http://www.w3.org/Graphics/SVG/1.1/DTD/svg11.dtd">
<!-- Generated by graphviz version 2.38.0 (20140413.2041)
 -->
<!-- Title: /home/dawagner/dev/parameter&#45;framework/parameter/ConfigurableElement.cpp Pages: 1 -->
<svg width="1986pt" height="498pt"
 viewBox="0.00 0.00 1985.71 498.00" xmlns="http://www.w3.org/2000/svg" xmlns:xlink="http://www.w3.org/1999/xlink">
<g id="graph0" class="graph" transform="scale(1 1) rotate(0) translate(4 494)">
<title>/home/dawagner/dev/parameter&#45;framework/parameter/ConfigurableElement.cpp</title>
<polygon fill="white" stroke="none" points="-4,4 -4,-494 1981.71,-494 1981.71,4 -4,4"/>
<!-- Node1 -->
<g id="node1" class="node"><title>Node1</title>
<polygon fill="#bfbfbf" stroke="black" points="446.207,-448.5 446.207,-489.5 640.207,-489.5 640.207,-448.5 446.207,-448.5"/>
<text text-anchor="start" x="454.207" y="-477.5" font-family="Verdana" font-size="10.00">/home/dawagner/dev</text>
<text text-anchor="start" x="454.207" y="-466.5" font-family="Verdana" font-size="10.00">/parameter&#45;framework</text>
<text text-anchor="middle" x="543.207" y="-455.5" font-family="Verdana" font-size="10.00">/parameter/ConfigurableElement.cpp</text>
</g>
<!-- Node2 -->
<g id="node2" class="node"><title>Node2</title>
<g id="a_node2"><a xlink:href="ConfigurableElement_8h.html" target="_top" xlink:title="ConfigurableElement.h">
<polygon fill="white" stroke="black" points="368.707,-168.5 368.707,-187.5 493.707,-187.5 493.707,-168.5 368.707,-168.5"/>
<text text-anchor="middle" x="431.207" y="-175.5" font-family="Verdana" font-size="10.00">ConfigurableElement.h</text>
</a>
</g>
</g>
<!-- Node1&#45;&gt;Node2 -->
<g id="edge1" class="edge"><title>Node1&#45;&gt;Node2</title>
<path fill="none" stroke="midnightblue" d="M539.589,-448.135C530.055,-397.091 503.387,-262.644 480.207,-224 473.222,-212.356 462.319,-201.916 452.569,-194.03"/>
<polygon fill="midnightblue" stroke="midnightblue" points="454.493,-191.095 444.426,-187.792 450.236,-196.652 454.493,-191.095"/>
</g>
<!-- Node11 -->
<g id="node11" class="node"><title>Node11</title>
<g id="a_node11"><a xlink:href="MappingData_8h.html" target="_top" xlink:title="MappingData.h">
<polygon fill="white" stroke="black" points="1670.71,-168.5 1670.71,-187.5 1759.71,-187.5 1759.71,-168.5 1670.71,-168.5"/>
<text text-anchor="middle" x="1715.21" y="-175.5" font-family="Verdana" font-size="10.00">MappingData.h</text>
</a>
</g>
</g>
<!-- Node1&#45;&gt;Node11 -->
<g id="edge14" class="edge"><title>Node1&#45;&gt;Node11</title>
<path fill="none" stroke="midnightblue" d="M640.338,-468.217C818.867,-466.154 1209.53,-450.125 1522.21,-356 1574.74,-340.187 1590.97,-336.183 1632.21,-300 1666.54,-269.875 1693.49,-222.594 1706.56,-196.965"/>
<polygon fill="midnightblue" stroke="midnightblue" points="1709.85,-198.22 1711.16,-187.707 1703.58,-195.108 1709.85,-198.22"/>
</g>
<!-- Node13 -->
<g id="node13" class="node"><title>Node13</title>
<g id="a_node13"><a xlink:href="SyncerSet_8h.html" target="_top" xlink:title="SyncerSet.h">
<polygon fill="white" stroke="black" points="160.707,-112.5 160.707,-131.5 235.707,-131.5 235.707,-112.5 160.707,-112.5"/>
<text text-anchor="middle" x="198.207" y="-119.5" font-family="Verdana" font-size="10.00">SyncerSet.h</text>
</a>
</g>
</g>
<!-- Node1&#45;&gt;Node13 -->
<g id="edge18" class="edge"><title>Node1&#45;&gt;Node13</title>
<path fill="none" stroke="midnightblue" d="M446.202,-454.325C341.093,-436.713 188.207,-401.695 188.207,-347 188.207,-347 188.207,-347 188.207,-233 188.207,-200.816 192.505,-163.552 195.466,-141.702"/>
<polygon fill="midnightblue" stroke="midnightblue" points="198.969,-141.925 196.899,-131.534 192.037,-140.947 198.969,-141.925"/>
</g>
<!-- Node15 -->
<g id="node15" class="node"><title>Node15</title>
<g id="a_node15"><a xlink:href="ConfigurableDomain_8h.html" target="_top" xlink:title="ConfigurableDomain.h">
<polygon fill="white" stroke="black" points="563.707,-392.5 563.707,-411.5 686.707,-411.5 686.707,-392.5 563.707,-392.5"/>
<text text-anchor="middle" x="625.207" y="-399.5" font-family="Verdana" font-size="10.00">ConfigurableDomain.h</text>
</a>
</g>
</g>
<!-- Node1&#45;&gt;Node15 -->
<g id="edge22" class="edge"><title>Node1&#45;&gt;Node15</title>
<path fill="none" stroke="midnightblue" d="M567.81,-448.498C580.14,-438.724 594.839,-427.072 606.275,-418.007"/>
<polygon fill="midnightblue" stroke="midnightblue" points="608.629,-420.607 614.291,-411.652 604.281,-415.122 608.629,-420.607"/>
</g>
<!-- Node31 -->
<g id="node31" class="node"><title>Node31</title>
<g id="a_node31"><a xlink:href="ConfigurationAccessContext_8h.html" target="_top" xlink:title="ConfigurationAccessContext.h">
<polygon fill="white" stroke="black" points="1816.71,-168.5 1816.71,-187.5 1977.71,-187.5 1977.71,-168.5 1816.71,-168.5"/>
<text text-anchor="middle" x="1897.21" y="-175.5" font-family="Verdana" font-size="10.00">ConfigurationAccessContext.h</text>
</a>
</g>
</g>
<!-- Node1&#45;&gt;Node31 -->
<g id="edge63" class="edge"><title>Node1&#45;&gt;Node31</title>
<path fill="none" stroke="midnightblue" d="M640.43,-463.912C939.58,-450.699 1826.21,-406.516 1826.21,-347 1826.21,-347 1826.21,-347 1826.21,-289 1826.21,-250.101 1857.94,-214.052 1878.97,-194.426"/>
<polygon fill="midnightblue" stroke="midnightblue" points="1881.32,-197.021 1886.42,-187.736 1876.64,-191.813 1881.32,-197.021"/>
</g>
<!-- Node34 -->
<g id="node34" class="node"><title>Node34</title>
<g id="a_node34"><a xlink:href="ConfigurableElementAggregator_8h.html" target="_top" xlink:title="ConfigurableElementAggregator.h">
<polygon fill="white" stroke="black" points="292.707,-224.5 292.707,-243.5 471.707,-243.5 471.707,-224.5 292.707,-224.5"/>
<text text-anchor="middle" x="382.207" y="-231.5" font-family="Verdana" font-size="10.00">ConfigurableElementAggregator.h</text>
</a>
</g>
</g>
<!-- Node1&#45;&gt;Node34 -->
<g id="edge70" class="edge"><title>Node1&#45;&gt;Node34</title>
<path fill="none" stroke="midnightblue" d="M496.03,-448.357C479.073,-439.364 460.996,-427.26 448.207,-412 407.894,-363.898 390.97,-288.804 384.995,-253.952"/>
<polygon fill="midnightblue" stroke="midnightblue" points="388.402,-253.095 383.37,-243.772 381.49,-254.199 388.402,-253.095"/>
</g>
<!-- Node35 -->
<g id="node35" class="node"><title>Node35</title>
<g id="a_node35"><a xlink:href="AreaConfiguration_8h.html" target="_top" xlink:title="AreaConfiguration.h">
<polygon fill="white" stroke="black" points="35.2068,-168.5 35.2068,-187.5 147.207,-187.5 147.207,-168.5 35.2068,-168.5"/>
<text text-anchor="middle" x="91.2068" y="-175.5" font-family="Verdana" font-size="10.00">AreaConfiguration.h</text>
</a>
</g>
</g>
<!-- Node1&#45;&gt;Node35 -->
<g id="edge74" class="edge"><title>Node1&#45;&gt;Node35</title>
<path fill="none" stroke="midnightblue" d="M446.205,-460.574C353.102,-452.152 220.065,-436.342 174.207,-412 139.481,-393.567 114.207,-386.315 114.207,-347 114.207,-347 114.207,-347 114.207,-289 114.207,-256.12 104.239,-218.86 97.4276,-197.235"/>
<polygon fill="midnightblue" stroke="midnightblue" points="100.747,-196.125 94.3087,-187.711 94.0945,-198.303 100.747,-196.125"/>
</g>
<!-- Node37 -->
<g id="node37" class="node"><title>Node37</title>
<polygon fill="white" stroke="#bfbfbf" points="1854.21,-392.5 1854.21,-411.5 1910.21,-411.5 1910.21,-392.5 1854.21,-392.5"/>
<text text-anchor="middle" x="1882.21" y="-399.5" font-family="Verdana" font-size="10.00">assert.h</text>
</g>
<!-- Node1&#45;&gt;Node37 -->
<g id="edge81" class="edge"><title>Node1&#45;&gt;Node37</title>
<path fill="none" stroke="midnightblue" d="M640.25,-465.924C900.209,-460.024 1608.26,-441.646 1840.21,-412 1841.46,-411.84 1842.72,-411.663 1844,-411.47"/>
<polygon fill="midnightblue" stroke="midnightblue" points="1844.6,-414.918 1853.85,-409.751 1843.4,-408.022 1844.6,-414.918"/>
</g>
<!-- Node3 -->
<g id="node3" class="node"><title>Node3</title>
<g id="a_node3"><a xlink:href="Element_8h.html" target="_top" xlink:title="Element.h">
<polygon fill="white" stroke="black" points="733.707,-112.5 733.707,-131.5 798.707,-131.5 798.707,-112.5 733.707,-112.5"/>
<text text-anchor="middle" x="766.207" y="-119.5" font-family="Verdana" font-size="10.00">Element.h</text>
</a>
</g>
</g>
<!-- Node2&#45;&gt;Node3 -->
<g id="edge2" class="edge"><title>Node2&#45;&gt;Node3</title>
<path fill="none" stroke="midnightblue" d="M484.289,-168.444C550.562,-157.761 662.613,-139.699 723.583,-129.871"/>
<polygon fill="midnightblue" stroke="midnightblue" points="724.318,-133.298 733.633,-128.251 723.204,-126.387 724.318,-133.298"/>
</g>
<!-- Node7 -->
<g id="node7" class="node"><title>Node7</title>
<polygon fill="white" stroke="#bfbfbf" points="450.207,-56.5 450.207,-75.5 480.207,-75.5 480.207,-56.5 450.207,-56.5"/>
<text text-anchor="middle" x="465.207" y="-63.5" font-family="Verdana" font-size="10.00">list</text>
</g>
<!-- Node2&#45;&gt;Node7 -->
<g id="edge13" class="edge"><title>Node2&#45;&gt;Node7</title>
<path fill="none" stroke="midnightblue" d="M433.875,-168.368C439.386,-150.537 452.134,-109.295 459.559,-85.2717"/>
<polygon fill="midnightblue" stroke="midnightblue" points="462.942,-86.179 462.551,-75.5914 456.254,-84.1119 462.942,-86.179"/>
</g>
<!-- Node4 -->
<g id="node4" class="node"><title>Node4</title>
<polygon fill="white" stroke="#bfbfbf" points="1241.21,-0.5 1241.21,-19.5 1285.21,-19.5 1285.21,-0.5 1241.21,-0.5"/>
<text text-anchor="middle" x="1263.21" y="-7.5" font-family="Verdana" font-size="10.00">string</text>
</g>
<!-- Node3&#45;&gt;Node4 -->
<g id="edge3" class="edge"><title>Node3&#45;&gt;Node4</title>
<path fill="none" stroke="midnightblue" d="M798.816,-113.783C889.075,-93.8058 1141.43,-37.9529 1231.09,-18.1079"/>
<polygon fill="midnightblue" stroke="midnightblue" points="1231.95,-21.5028 1240.96,-15.9244 1230.44,-14.6682 1231.95,-21.5028"/>
</g>
<!-- Node5 -->
<g id="node5" class="node"><title>Node5</title>
<polygon fill="white" stroke="#bfbfbf" points="606.707,-0.5 606.707,-19.5 653.707,-19.5 653.707,-0.5 606.707,-0.5"/>
<text text-anchor="middle" x="630.207" y="-7.5" font-family="Verdana" font-size="10.00">vector</text>
</g>
<!-- Node3&#45;&gt;Node5 -->
<g id="edge4" class="edge"><title>Node3&#45;&gt;Node5</title>
<path fill="none" stroke="midnightblue" d="M755.535,-112.368C732.495,-93.7334 677.847,-49.5324 648.918,-26.1338"/>
<polygon fill="midnightblue" stroke="midnightblue" points="650.805,-23.1589 640.829,-19.5914 646.403,-28.6014 650.805,-23.1589"/>
</g>
<!-- Node6 -->
<g id="node6" class="node"><title>Node6</title>
<polygon fill="white" stroke="#bfbfbf" points="492.707,-0.5 492.707,-19.5 545.707,-19.5 545.707,-0.5 492.707,-0.5"/>
<text text-anchor="middle" x="519.207" y="-7.5" font-family="Verdana" font-size="10.00">stdint.h</text>
</g>
<!-- Node3&#45;&gt;Node6 -->
<g id="edge5" class="edge"><title>Node3&#45;&gt;Node6</title>
<path fill="none" stroke="midnightblue" d="M733.312,-118.653C677.21,-113.994 566.347,-101.727 538.207,-76 525.346,-64.2417 521.008,-44.3099 519.635,-29.6108"/>
<polygon fill="midnightblue" stroke="midnightblue" points="523.129,-29.3993 519.072,-19.6123 516.14,-29.7935 523.129,-29.3993"/>
</g>
<!-- Node3&#45;&gt;Node7 -->
<g id="edge6" class="edge"><title>Node3&#45;&gt;Node7</title>
<path fill="none" stroke="midnightblue" d="M733.557,-115.915C684.044,-108.08 587.064,-92.2548 505.207,-76 500.315,-75.0287 495.105,-73.9149 490.117,-72.8094"/>
<polygon fill="midnightblue" stroke="midnightblue" points="490.89,-69.3959 480.364,-70.6001 489.343,-76.2229 490.89,-69.3959"/>
</g>
<!-- Node8 -->
<g id="node8" class="node"><title>Node8</title>
<polygon fill="white" stroke="#bfbfbf" points="1152.21,-56.5 1152.21,-75.5 1216.21,-75.5 1216.21,-56.5 1152.21,-56.5"/>
<text text-anchor="middle" x="1184.21" y="-63.5" font-family="Verdana" font-size="10.00">XmlSink.h</text>
</g>
<!-- Node3&#45;&gt;Node8 -->
<g id="edge7" class="edge"><title>Node3&#45;&gt;Node8</title>
<path fill="none" stroke="midnightblue" d="M799.007,-116.763C874.125,-107.058 1058.57,-83.2311 1142,-72.4527"/>
<polygon fill="midnightblue" stroke="midnightblue" points="1142.66,-75.8959 1152.13,-71.1434 1141.77,-68.9536 1142.66,-75.8959"/>
</g>
<!-- Node9 -->
<g id="node9" class="node"><title>Node9</title>
<polygon fill="white" stroke="#bfbfbf" points="733.707,-56.5 733.707,-75.5 810.707,-75.5 810.707,-56.5 733.707,-56.5"/>
<text text-anchor="middle" x="772.207" y="-63.5" font-family="Verdana" font-size="10.00">XmlSource.h</text>
</g>
<!-- Node3&#45;&gt;Node9 -->
<g id="edge8" class="edge"><title>Node3&#45;&gt;Node9</title>
<path fill="none" stroke="midnightblue" d="M767.198,-112.083C767.993,-104.927 769.136,-94.6353 770.13,-85.6911"/>
<polygon fill="midnightblue" stroke="midnightblue" points="773.609,-86.0765 771.234,-75.7511 766.651,-85.3034 773.609,-86.0765"/>
</g>
<!-- Node10 -->
<g id="node10" class="node"><title>Node10</title>
<g id="a_node10"><a xlink:href="PathNavigator_8h.html" target="_top" xlink:title="PathNavigator.h">
<polygon fill="white" stroke="black" points="547.207,-56.5 547.207,-75.5 639.207,-75.5 639.207,-56.5 547.207,-56.5"/>
<text text-anchor="middle" x="593.207" y="-63.5" font-family="Verdana" font-size="10.00">PathNavigator.h</text>
</a>
</g>
</g>
<!-- Node3&#45;&gt;Node10 -->
<g id="edge9" class="edge"><title>Node3&#45;&gt;Node10</title>
<path fill="none" stroke="midnightblue" d="M738.794,-112.444C709.438,-103.28 662.687,-88.6876 630.111,-78.5192"/>
<polygon fill="midnightblue" stroke="midnightblue" points="631.08,-75.1551 620.491,-75.5164 628.994,-81.8371 631.08,-75.1551"/>
</g>
<!-- Node10&#45;&gt;Node4 -->
<g id="edge11" class="edge"><title>Node10&#45;&gt;Node4</title>
<path fill="none" stroke="midnightblue" d="M639.558,-60.618C655.879,-59.1082 674.353,-57.4368 691.207,-56 896.77,-38.4757 1144.11,-19.8529 1231.08,-13.3793"/>
<polygon fill="midnightblue" stroke="midnightblue" points="1231.4,-16.8654 1241.11,-12.6336 1230.88,-9.88464 1231.4,-16.8654"/>
</g>
<!-- Node10&#45;&gt;Node5 -->
<g id="edge10" class="edge"><title>Node10&#45;&gt;Node5</title>
<path fill="none" stroke="midnightblue" d="M599.317,-56.083C604.489,-48.5341 612.053,-37.4948 618.401,-28.2298"/>
<polygon fill="midnightblue" stroke="midnightblue" points="621.446,-29.9787 624.211,-19.7511 615.671,-26.0221 621.446,-29.9787"/>
</g>
<!-- Node10&#45;&gt;Node6 -->
<g id="edge12" class="edge"><title>Node10&#45;&gt;Node6</title>
<path fill="none" stroke="midnightblue" d="M581.317,-56.324C570.057,-48.1066 552.92,-35.6017 539.498,-25.8069"/>
<polygon fill="midnightblue" stroke="midnightblue" points="541.454,-22.9014 531.313,-19.8339 537.327,-28.5559 541.454,-22.9014"/>
</g>
<!-- Node11&#45;&gt;Node4 -->
<g id="edge16" class="edge"><title>Node11&#45;&gt;Node4</title>
<path fill="none" stroke="midnightblue" d="M1709.83,-168.066C1700.98,-154.109 1682.04,-127.165 1659.21,-112 1541.44,-33.7689 1367.07,-16.1314 1295.58,-12.1561"/>
<polygon fill="midnightblue" stroke="midnightblue" points="1295.56,-8.65118 1285.4,-11.6456 1295.21,-15.6424 1295.56,-8.65118"/>
</g>
<!-- Node11&#45;&gt;Node8 -->
<g id="edge15" class="edge"><title>Node11&#45;&gt;Node8</title>
<path fill="none" stroke="midnightblue" d="M1707.04,-168.4C1692.67,-153.888 1661.24,-124.862 1628.21,-112 1555.57,-83.7167 1322.84,-72.0944 1226.54,-68.415"/>
<polygon fill="midnightblue" stroke="midnightblue" points="1226.42,-64.9083 1216.3,-68.0342 1226.16,-71.9035 1226.42,-64.9083"/>
</g>
<!-- Node12 -->
<g id="node12" class="node"><title>Node12</title>
<polygon fill="white" stroke="#bfbfbf" points="1581.21,-112.5 1581.21,-131.5 1619.21,-131.5 1619.21,-112.5 1581.21,-112.5"/>
<text text-anchor="middle" x="1600.21" y="-119.5" font-family="Verdana" font-size="10.00">map</text>
</g>
<!-- Node11&#45;&gt;Node12 -->
<g id="edge17" class="edge"><title>Node11&#45;&gt;Node12</title>
<path fill="none" stroke="midnightblue" d="M1696.98,-168.444C1678.31,-159.675 1649.05,-145.935 1627.59,-135.858"/>
<polygon fill="midnightblue" stroke="midnightblue" points="1628.88,-132.599 1618.34,-131.516 1625.91,-138.935 1628.88,-132.599"/>
</g>
<!-- Node13&#45;&gt;Node4 -->
<g id="edge20" class="edge"><title>Node13&#45;&gt;Node4</title>
<path fill="none" stroke="midnightblue" d="M200.372,-112.365C204.534,-97.7982 215.164,-68.6932 236.207,-56 279.781,-29.7156 1061.1,-14.5441 1230.84,-11.5501"/>
<polygon fill="midnightblue" stroke="midnightblue" points="1230.97,-15.0485 1240.9,-11.3743 1230.85,-8.0496 1230.97,-15.0485"/>
</g>
<!-- Node13&#45;&gt;Node7 -->
<g id="edge21" class="edge"><title>Node13&#45;&gt;Node7</title>
<path fill="none" stroke="midnightblue" d="M235.895,-113.378C291.239,-102.184 393.016,-81.6004 440.098,-72.0781"/>
<polygon fill="midnightblue" stroke="midnightblue" points="440.95,-75.4769 450.057,-70.064 439.562,-68.6158 440.95,-75.4769"/>
</g>
<!-- Node14 -->
<g id="node14" class="node"><title>Node14</title>
<polygon fill="white" stroke="#bfbfbf" points="245.207,-56.5 245.207,-75.5 277.207,-75.5 277.207,-56.5 245.207,-56.5"/>
<text text-anchor="middle" x="261.207" y="-63.5" font-family="Verdana" font-size="10.00">set</text>
</g>
<!-- Node13&#45;&gt;Node14 -->
<g id="edge19" class="edge"><title>Node13&#45;&gt;Node14</title>
<path fill="none" stroke="midnightblue" d="M208.329,-112.324C217.733,-104.263 231.951,-92.0765 243.276,-82.3695"/>
<polygon fill="midnightblue" stroke="midnightblue" points="245.586,-84.9993 250.901,-75.8339 241.03,-79.6844 245.586,-84.9993"/>
</g>
<!-- Node15&#45;&gt;Node4 -->
<g id="edge62" class="edge"><title>Node15&#45;&gt;Node4</title>
<path fill="none" stroke="midnightblue" d="M686.989,-401.249C862.947,-401.428 1364.2,-398.12 1522.21,-356 1650.14,-321.898 1711.7,-307.733 1768.21,-188 1793.73,-133.921 1694.94,-117.909 1685.21,-112 1640.67,-84.9531 1631.68,-72.3445 1582.21,-56 1481.22,-22.6375 1354.24,-14.0095 1295.61,-11.7782"/>
<polygon fill="midnightblue" stroke="midnightblue" points="1295.59,-8.27573 1285.48,-11.4315 1295.35,-15.2716 1295.59,-8.27573"/>
</g>
<!-- Node15&#45;&gt;Node7 -->
<g id="edge59" class="edge"><title>Node15&#45;&gt;Node7</title>
<path fill="none" stroke="midnightblue" d="M621.091,-392.408C599.914,-348.201 503.086,-146.072 473.692,-84.7129"/>
<polygon fill="midnightblue" stroke="midnightblue" points="476.772,-83.0415 469.295,-75.5351 470.459,-86.0658 476.772,-83.0415"/>
</g>
<!-- Node15&#45;&gt;Node12 -->
<g id="edge61" class="edge"><title>Node15&#45;&gt;Node12</title>
<path fill="none" stroke="midnightblue" d="M686.997,-400.236C854.737,-397.756 1315.94,-388.131 1464.21,-356 1554.09,-336.521 1615.2,-333.046 1638.21,-244 1647.89,-206.526 1626.36,-163.465 1611.91,-140.158"/>
<polygon fill="midnightblue" stroke="midnightblue" points="1614.82,-138.208 1606.45,-131.716 1608.94,-142.013 1614.82,-138.208"/>
</g>
<!-- Node15&#45;&gt;Node13 -->
<g id="edge58" class="edge"><title>Node15&#45;&gt;Node13</title>
<path fill="none" stroke="midnightblue" d="M571.992,-392.481C491.687,-376.943 339.455,-336.633 250.207,-244 222.016,-214.74 207.906,-167.798 201.913,-141.821"/>
<polygon fill="midnightblue" stroke="midnightblue" points="205.282,-140.837 199.766,-131.791 198.437,-142.302 205.282,-140.837"/>
</g>
<!-- Node15&#45;&gt;Node14 -->
<g id="edge60" class="edge"><title>Node15&#45;&gt;Node14</title>
<path fill="none" stroke="midnightblue" d="M598.409,-392.466C524.999,-368.536 323.445,-298.952 283.207,-244 248.197,-196.189 253.235,-120.951 258.011,-86.0074"/>
<polygon fill="midnightblue" stroke="midnightblue" points="261.52,-86.212 259.562,-75.7996 254.599,-85.1602 261.52,-86.212"/>
</g>
<!-- Node16 -->
<g id="node16" class="node"><title>Node16</title>
<g id="a_node16"><a xlink:href="BinarySerializableElement_8h.html" target="_top" xlink:title="BinarySerializableElement.h">
<polygon fill="white" stroke="black" points="550.207,-168.5 550.207,-187.5 700.207,-187.5 700.207,-168.5 550.207,-168.5"/>
<text text-anchor="middle" x="625.207" y="-175.5" font-family="Verdana" font-size="10.00">BinarySerializableElement.h</text>
</a>
</g>
</g>
<!-- Node15&#45;&gt;Node16 -->
<g id="edge23" class="edge"><title>Node15&#45;&gt;Node16</title>
<path fill="none" stroke="midnightblue" d="M625.207,-392.297C625.207,-359.633 625.207,-243.866 625.207,-197.957"/>
<polygon fill="midnightblue" stroke="midnightblue" points="628.707,-197.884 625.207,-187.884 621.707,-197.884 628.707,-197.884"/>
</g>
<!-- Node19 -->
<g id="node19" class="node"><title>Node19</title>
<polygon fill="white" stroke="#bfbfbf" points="1484.21,-168.5 1484.21,-187.5 1614.21,-187.5 1614.21,-168.5 1484.21,-168.5"/>
<text text-anchor="middle" x="1549.21" y="-175.5" font-family="Verdana" font-size="10.00">XmlSerializingContext.h</text>
</g>
<!-- Node15&#45;&gt;Node19 -->
<g id="edge30" class="edge"><title>Node15&#45;&gt;Node19</title>
<path fill="none" stroke="midnightblue" d="M686.801,-401.373C873.514,-401.451 1429.54,-393.632 1579.21,-300 1611.92,-279.532 1639.92,-257.755 1621.21,-224 1613.12,-209.405 1598.1,-198.918 1583.87,-191.761"/>
<polygon fill="midnightblue" stroke="midnightblue" points="1585.26,-188.546 1574.71,-187.528 1582.32,-194.9 1585.26,-188.546"/>
</g>
<!-- Node20 -->
<g id="node20" class="node"><title>Node20</title>
<g id="a_node20"><a xlink:href="XmlDomainImportContext_8h.html" target="_top" xlink:title="XmlDomainImportContext.h">
<polygon fill="white" stroke="black" points="1130.21,-336.5 1130.21,-355.5 1280.21,-355.5 1280.21,-336.5 1130.21,-336.5"/>
<text text-anchor="middle" x="1205.21" y="-343.5" font-family="Verdana" font-size="10.00">XmlDomainImportContext.h</text>
</a>
</g>
</g>
<!-- Node15&#45;&gt;Node20 -->
<g id="edge31" class="edge"><title>Node15&#45;&gt;Node20</title>
<path fill="none" stroke="midnightblue" d="M686.728,-395.272C790.694,-385.593 1001.35,-365.979 1119.65,-354.966"/>
<polygon fill="midnightblue" stroke="midnightblue" points="1120.12,-358.437 1129.75,-354.025 1119.47,-351.467 1120.12,-358.437"/>
</g>
<!-- Node16&#45;&gt;Node3 -->
<g id="edge24" class="edge"><title>Node16&#45;&gt;Node3</title>
<path fill="none" stroke="midnightblue" d="M647.549,-168.444C670.96,-159.478 707.942,-145.314 734.396,-135.183"/>
<polygon fill="midnightblue" stroke="midnightblue" points="735.883,-138.361 743.969,-131.516 733.379,-131.824 735.883,-138.361"/>
</g>
<!-- Node16&#45;&gt;Node4 -->
<g id="edge29" class="edge"><title>Node16&#45;&gt;Node4</title>
<path fill="none" stroke="midnightblue" d="M629.234,-168.272C640.442,-145.124 674.48,-82.1529 724.207,-56 813.003,-9.29875 1129.11,-9.20831 1231.18,-10.4542"/>
<polygon fill="midnightblue" stroke="midnightblue" points="1231.14,-13.954 1241.19,-10.5895 1231.24,-6.95461 1231.14,-13.954"/>
</g>
<!-- Node17 -->
<g id="node17" class="node"><title>Node17</title>
<g id="a_node17"><a xlink:href="BinaryStream_8h.html" target="_top" xlink:title="BinaryStream.h">
<polygon fill="white" stroke="black" points="59.2068,-56.5 59.2068,-75.5 151.207,-75.5 151.207,-56.5 59.2068,-56.5"/>
<text text-anchor="middle" x="105.207" y="-63.5" font-family="Verdana" font-size="10.00">BinaryStream.h</text>
</a>
</g>
</g>
<!-- Node16&#45;&gt;Node17 -->
<g id="edge25" class="edge"><title>Node16&#45;&gt;Node17</title>
<path fill="none" stroke="midnightblue" d="M584.836,-168.46C490.961,-148.602 258.184,-99.3605 155.38,-77.6135"/>
<polygon fill="midnightblue" stroke="midnightblue" points="156.06,-74.18 145.552,-75.5345 154.611,-81.0284 156.06,-74.18"/>
</g>
<!-- Node17&#45;&gt;Node4 -->
<g id="edge27" class="edge"><title>Node17&#45;&gt;Node4</title>
<path fill="none" stroke="midnightblue" d="M151.333,-57.568C156.011,-56.9683 160.698,-56.4293 165.207,-56 585.012,-16.0297 1098.44,-11.5345 1230.85,-11.0522"/>
<polygon fill="midnightblue" stroke="midnightblue" points="1231.11,-14.5515 1241.1,-11.0203 1231.09,-7.5515 1231.11,-14.5515"/>
</g>
<!-- Node17&#45;&gt;Node6 -->
<g id="edge26" class="edge"><title>Node17&#45;&gt;Node6</title>
<path fill="none" stroke="midnightblue" d="M151.38,-57.9673C156.048,-57.2882 160.72,-56.6216 165.207,-56 280.887,-39.9735 418.148,-23.1497 482.484,-15.3925"/>
<polygon fill="midnightblue" stroke="midnightblue" points="483.025,-18.8528 492.535,-14.183 482.188,-11.903 483.025,-18.8528"/>
</g>
<!-- Node18 -->
<g id="node18" class="node"><title>Node18</title>
<polygon fill="white" stroke="#bfbfbf" points="78.2068,-0.5 78.2068,-19.5 132.207,-19.5 132.207,-0.5 78.2068,-0.5"/>
<text text-anchor="middle" x="105.207" y="-7.5" font-family="Verdana" font-size="10.00">fstream</text>
</g>
<!-- Node17&#45;&gt;Node18 -->
<g id="edge28" class="edge"><title>Node17&#45;&gt;Node18</title>
<path fill="none" stroke="midnightblue" d="M105.207,-56.083C105.207,-49.0059 105.207,-38.8611 105.207,-29.9865"/>
<polygon fill="midnightblue" stroke="midnightblue" points="108.707,-29.751 105.207,-19.7511 101.707,-29.7511 108.707,-29.751"/>
</g>
<!-- Node20&#45;&gt;Node4 -->
<g id="edge57" class="edge"><title>Node20&#45;&gt;Node4</title>
<path fill="none" stroke="midnightblue" d="M1221.31,-336.334C1248.1,-321.119 1301.9,-287.088 1332.21,-244 1347.33,-222.503 1346.93,-213.932 1351.21,-188 1361.09,-128.116 1352.25,-104.832 1316.21,-56 1307.58,-44.3158 1295.36,-33.6749 1284.82,-25.6772"/>
<polygon fill="midnightblue" stroke="midnightblue" points="1286.63,-22.6658 1276.49,-19.616 1282.52,-28.3276 1286.63,-22.6658"/>
</g>
<!-- Node21 -->
<g id="node21" class="node"><title>Node21</title>
<g id="a_node21"><a xlink:href="XmlDomainSerializingContext_8h.html" target="_top" xlink:title="XmlDomainSerializingContext.h">
<polygon fill="white" stroke="black" points="1403.71,-280.5 1403.71,-299.5 1570.71,-299.5 1570.71,-280.5 1403.71,-280.5"/>
<text text-anchor="middle" x="1487.21" y="-287.5" font-family="Verdana" font-size="10.00">XmlDomainSerializingContext.h</text>
</a>
</g>
</g>
<!-- Node20&#45;&gt;Node21 -->
<g id="edge32" class="edge"><title>Node20&#45;&gt;Node21</title>
<path fill="none" stroke="midnightblue" d="M1249.89,-336.444C1299.5,-326.944 1379.57,-311.611 1432.79,-301.42"/>
<polygon fill="midnightblue" stroke="midnightblue" points="1433.57,-304.835 1442.73,-299.516 1432.25,-297.96 1433.57,-304.835"/>
</g>
<!-- Node23 -->
<g id="node23" class="node"><title>Node23</title>
<g id="a_node23"><a xlink:href="SelectionCriteriaDefinition_8h.html" target="_top" xlink:title="SelectionCriteriaDefinition.h">
<polygon fill="white" stroke="black" points="875.707,-280.5 875.707,-299.5 1024.71,-299.5 1024.71,-280.5 875.707,-280.5"/>
<text text-anchor="middle" x="950.207" y="-287.5" font-family="Verdana" font-size="10.00">SelectionCriteriaDefinition.h</text>
</a>
</g>
</g>
<!-- Node20&#45;&gt;Node23 -->
<g id="edge37" class="edge"><title>Node20&#45;&gt;Node23</title>
<path fill="none" stroke="midnightblue" d="M1164.8,-336.444C1120.22,-327.004 1048.44,-311.802 1000.31,-301.611"/>
<polygon fill="midnightblue" stroke="midnightblue" points="1000.93,-298.164 990.423,-299.516 999.481,-305.012 1000.93,-298.164"/>
</g>
<!-- Node28 -->
<g id="node28" class="node"><title>Node28</title>
<g id="a_node28"><a xlink:href="SystemClass_8h.html" target="_top" xlink:title="SystemClass.h">
<polygon fill="white" stroke="black" points="1161.21,-280.5 1161.21,-299.5 1249.21,-299.5 1249.21,-280.5 1161.21,-280.5"/>
<text text-anchor="middle" x="1205.21" y="-287.5" font-family="Verdana" font-size="10.00">SystemClass.h</text>
</a>
</g>
</g>
<!-- Node20&#45;&gt;Node28 -->
<g id="edge48" class="edge"><title>Node20&#45;&gt;Node28</title>
<path fill="none" stroke="midnightblue" d="M1205.21,-336.083C1205.21,-329.006 1205.21,-318.861 1205.21,-309.986"/>
<polygon fill="midnightblue" stroke="midnightblue" points="1208.71,-309.751 1205.21,-299.751 1201.71,-309.751 1208.71,-309.751"/>
</g>
<!-- Node21&#45;&gt;Node4 -->
<g id="edge36" class="edge"><title>Node21&#45;&gt;Node4</title>
<path fill="none" stroke="midnightblue" d="M1472.84,-280.375C1460.65,-272.37 1443.56,-259.392 1433.21,-244 1384.18,-171.108 1432.29,-120.083 1372.21,-56 1351.87,-34.3065 1319.52,-22.7435 1295.34,-16.7989"/>
<polygon fill="midnightblue" stroke="midnightblue" points="1296.06,-13.3735 1285.53,-14.582 1294.51,-20.2012 1296.06,-13.3735"/>
</g>
<!-- Node22 -->
<g id="node22" class="node"><title>Node22</title>
<g id="a_node22"><a xlink:href="XmlElementSerializingContext_8h.html" target="_top" xlink:title="XmlElementSerializingContext.h">
<polygon fill="white" stroke="black" points="1442.21,-224.5 1442.21,-243.5 1612.21,-243.5 1612.21,-224.5 1442.21,-224.5"/>
<text text-anchor="middle" x="1527.21" y="-231.5" font-family="Verdana" font-size="10.00">XmlElementSerializingContext.h</text>
</a>
</g>
</g>
<!-- Node21&#45;&gt;Node22 -->
<g id="edge33" class="edge"><title>Node21&#45;&gt;Node22</title>
<path fill="none" stroke="midnightblue" d="M1493.81,-280.083C1499.46,-272.455 1507.75,-261.264 1514.66,-251.941"/>
<polygon fill="midnightblue" stroke="midnightblue" points="1517.58,-253.87 1520.72,-243.751 1511.96,-249.703 1517.58,-253.87"/>
</g>
<!-- Node22&#45;&gt;Node4 -->
<g id="edge35" class="edge"><title>Node22&#45;&gt;Node4</title>
<path fill="none" stroke="midnightblue" d="M1512.5,-224.193C1500.55,-216.248 1484.25,-203.455 1475.21,-188 1444.96,-136.322 1489.76,-99.1154 1448.21,-56 1427.31,-34.3162 1342.43,-20.702 1295.24,-14.6556"/>
<polygon fill="midnightblue" stroke="midnightblue" points="1295.58,-11.1709 1285.23,-13.4134 1294.72,-18.1177 1295.58,-11.1709"/>
</g>
<!-- Node22&#45;&gt;Node19 -->
<g id="edge34" class="edge"><title>Node22&#45;&gt;Node19</title>
<path fill="none" stroke="midnightblue" d="M1530.84,-224.083C1533.82,-216.77 1538.13,-206.181 1541.83,-197.103"/>
<polygon fill="midnightblue" stroke="midnightblue" points="1545.11,-198.333 1545.64,-187.751 1538.63,-195.691 1545.11,-198.333"/>
</g>
<!-- Node23&#45;&gt;Node3 -->
<g id="edge38" class="edge"><title>Node23&#45;&gt;Node3</title>
<path fill="none" stroke="midnightblue" d="M914.676,-280.407C871.871,-267.976 801.673,-240.484 769.207,-188 760.757,-174.34 760.768,-155.802 762.448,-142.019"/>
<polygon fill="midnightblue" stroke="midnightblue" points="765.964,-142.201 764.103,-131.771 759.053,-141.085 765.964,-142.201"/>
</g>
<!-- Node24 -->
<g id="node24" class="node"><title>Node24</title>
<g id="a_node24"><a xlink:href="SelectionCriterion_8h.html" target="_top" xlink:title="SelectionCriterion.h">
<polygon fill="white" stroke="black" points="895.207,-224.5 895.207,-243.5 1005.21,-243.5 1005.21,-224.5 895.207,-224.5"/>
<text text-anchor="middle" x="950.207" y="-231.5" font-family="Verdana" font-size="10.00">SelectionCriterion.h</text>
</a>
</g>
</g>
<!-- Node23&#45;&gt;Node24 -->
<g id="edge39" class="edge"><title>Node23&#45;&gt;Node24</title>
<path fill="none" stroke="midnightblue" d="M950.207,-280.083C950.207,-273.006 950.207,-262.861 950.207,-253.986"/>
<polygon fill="midnightblue" stroke="midnightblue" points="953.707,-253.751 950.207,-243.751 946.707,-253.751 953.707,-253.751"/>
</g>
<!-- Node24&#45;&gt;Node3 -->
<g id="edge40" class="edge"><title>Node24&#45;&gt;Node3</title>
<path fill="none" stroke="midnightblue" d="M897.776,-224.426C855.733,-216.541 801.201,-203.707 785.207,-188 773.028,-176.04 768.552,-156.739 766.959,-142.27"/>
<polygon fill="midnightblue" stroke="midnightblue" points="770.424,-141.656 766.207,-131.936 763.442,-142.163 770.424,-141.656"/>
</g>
<!-- Node24&#45;&gt;Node4 -->
<g id="edge47" class="edge"><title>Node24&#45;&gt;Node4</title>
<path fill="none" stroke="midnightblue" d="M1005.27,-229.826C1038.04,-225.113 1078.17,-213.96 1104.21,-188 1147.53,-144.808 1101.52,-100.775 1143.21,-56 1166.09,-31.4155 1203.72,-20.1774 1230.74,-15.0941"/>
<polygon fill="midnightblue" stroke="midnightblue" points="1231.6,-18.4976 1240.88,-13.3784 1230.43,-11.5957 1231.6,-18.4976"/>
</g>
<!-- Node25 -->
<g id="node25" class="node"><title>Node25</title>
<g id="a_node25"><a xlink:href="SelectionCriterionType_8h.html" target="_top" xlink:title="SelectionCriterionType.h">
<polygon fill="white" stroke="black" points="964.707,-168.5 964.707,-187.5 1095.71,-187.5 1095.71,-168.5 964.707,-168.5"/>
<text text-anchor="middle" x="1030.21" y="-175.5" font-family="Verdana" font-size="10.00">SelectionCriterionType.h</text>
</a>
</g>
</g>
<!-- Node24&#45;&gt;Node25 -->
<g id="edge41" class="edge"><title>Node24&#45;&gt;Node25</title>
<path fill="none" stroke="midnightblue" d="M963.06,-224.324C975.423,-215.979 994.337,-203.212 1008.94,-193.352"/>
<polygon fill="midnightblue" stroke="midnightblue" points="1011.05,-196.15 1017.39,-187.655 1007.14,-190.348 1011.05,-196.15"/>
</g>
<!-- Node27 -->
<g id="node27" class="node"><title>Node27</title>
<polygon fill="white" stroke="#bfbfbf" points="794.207,-168.5 794.207,-187.5 946.207,-187.5 946.207,-168.5 794.207,-168.5"/>
<text text-anchor="middle" x="870.207" y="-175.5" font-family="Verdana" font-size="10.00">SelectionCriterionInterface.h</text>
</g>
<!-- Node24&#45;&gt;Node27 -->
<g id="edge46" class="edge"><title>Node24&#45;&gt;Node27</title>
<path fill="none" stroke="midnightblue" d="M937.353,-224.324C924.99,-215.979 906.077,-203.212 891.47,-193.352"/>
<polygon fill="midnightblue" stroke="midnightblue" points="893.275,-190.348 883.028,-187.655 889.359,-196.15 893.275,-190.348"/>
</g>
<!-- Node25&#45;&gt;Node3 -->
<g id="edge42" class="edge"><title>Node25&#45;&gt;Node3</title>
<path fill="none" stroke="midnightblue" d="M988.375,-168.444C939.374,-158.421 858.618,-141.902 809.144,-131.783"/>
<polygon fill="midnightblue" stroke="midnightblue" points="809.583,-128.3 799.085,-129.725 808.181,-135.158 809.583,-128.3"/>
</g>
<!-- Node25&#45;&gt;Node4 -->
<g id="edge44" class="edge"><title>Node25&#45;&gt;Node4</title>
<path fill="none" stroke="midnightblue" d="M1037.79,-168.336C1045.37,-159.489 1057.17,-145.214 1066.21,-132 1088.24,-99.7819 1079.52,-80.1155 1110.21,-56 1145.57,-28.2141 1197.65,-17.572 1231,-13.5045"/>
<polygon fill="midnightblue" stroke="midnightblue" points="1231.56,-16.964 1241.12,-12.4015 1230.8,-10.0052 1231.56,-16.964"/>
</g>
<!-- Node25&#45;&gt;Node12 -->
<g id="edge43" class="edge"><title>Node25&#45;&gt;Node12</title>
<path fill="none" stroke="midnightblue" d="M1095.87,-170.779C1219.66,-159.052 1482.99,-134.105 1570.93,-125.774"/>
<polygon fill="midnightblue" stroke="midnightblue" points="1571.37,-129.248 1580.99,-124.82 1570.71,-122.279 1571.37,-129.248"/>
</g>
<!-- Node26 -->
<g id="node26" class="node"><title>Node26</title>
<polygon fill="white" stroke="#bfbfbf" points="884.707,-112.5 884.707,-131.5 1057.71,-131.5 1057.71,-112.5 884.707,-112.5"/>
<text text-anchor="middle" x="971.207" y="-119.5" font-family="Verdana" font-size="10.00">SelectionCriterionTypeInterface.h</text>
</g>
<!-- Node25&#45;&gt;Node26 -->
<g id="edge45" class="edge"><title>Node25&#45;&gt;Node26</title>
<path fill="none" stroke="midnightblue" d="M1020.73,-168.324C1012.01,-160.341 998.863,-148.313 988.309,-138.653"/>
<polygon fill="midnightblue" stroke="midnightblue" points="990.598,-136.004 980.859,-131.834 985.872,-141.167 990.598,-136.004"/>
</g>
<!-- Node28&#45;&gt;Node2 -->
<g id="edge49" class="edge"><title>Node28&#45;&gt;Node2</title>
<path fill="none" stroke="midnightblue" d="M1161.08,-282.801C1099.52,-274.145 984.359,-257.934 886.207,-244 749.659,-224.615 590.09,-201.777 500.827,-188.985"/>
<polygon fill="midnightblue" stroke="midnightblue" points="501.221,-185.505 490.826,-187.551 500.228,-192.434 501.221,-185.505"/>
</g>
<!-- Node28&#45;&gt;Node4 -->
<g id="edge56" class="edge"><title>Node28&#45;&gt;Node4</title>
<path fill="none" stroke="midnightblue" d="M1249.36,-282.264C1272.22,-276.293 1298.21,-265.067 1312.21,-244 1358.59,-174.18 1330.76,-132.811 1297.21,-56 1292.61,-45.4779 1285.09,-35.1533 1278.29,-27.0531"/>
<polygon fill="midnightblue" stroke="midnightblue" points="1280.86,-24.6773 1271.62,-19.5019 1275.62,-29.3128 1280.86,-24.6773"/>
</g>
<!-- Node28&#45;&gt;Node7 -->
<g id="edge55" class="edge"><title>Node28&#45;&gt;Node7</title>
<path fill="none" stroke="midnightblue" d="M1199.71,-280.23C1178.86,-247.316 1104.03,-132.006 1066.21,-112 962.251,-57.0073 655.278,-87.1994 538.207,-76 522.202,-74.469 504.283,-72.2669 490.203,-70.4242"/>
<polygon fill="midnightblue" stroke="midnightblue" points="490.655,-66.9536 480.28,-69.1023 489.73,-73.8923 490.655,-66.9536"/>
</g>
<!-- Node29 -->
<g id="node29" class="node"><title>Node29</title>
<g id="a_node29"><a xlink:href="SubsystemPlugins_8h.html" target="_top" xlink:title="SubsystemPlugins.h">
<polygon fill="white" stroke="black" points="1190.71,-224.5 1190.71,-243.5 1303.71,-243.5 1303.71,-224.5 1190.71,-224.5"/>
<text text-anchor="middle" x="1247.21" y="-231.5" font-family="Verdana" font-size="10.00">SubsystemPlugins.h</text>
</a>
</g>
</g>
<!-- Node28&#45;&gt;Node29 -->
<g id="edge50" class="edge"><title>Node28&#45;&gt;Node29</title>
<path fill="none" stroke="midnightblue" d="M1212.14,-280.083C1218.14,-272.377 1226.96,-261.033 1234.25,-251.653"/>
<polygon fill="midnightblue" stroke="midnightblue" points="1237.02,-253.793 1240.4,-243.751 1231.5,-249.496 1237.02,-253.793"/>
</g>
<!-- Node29&#45;&gt;Node4 -->
<g id="edge54" class="edge"><title>Node29&#45;&gt;Node4</title>
<path fill="none" stroke="midnightblue" d="M1257.92,-224.305C1267.15,-216.069 1279.8,-202.789 1285.21,-188 1305.37,-132.87 1283.61,-62.3299 1270.96,-29.4331"/>
<polygon fill="midnightblue" stroke="midnightblue" points="1274.06,-27.7733 1267.09,-19.7966 1267.56,-30.3807 1274.06,-27.7733"/>
</g>
<!-- Node30 -->
<g id="node30" class="node"><title>Node30</title>
<g id="a_node30"><a xlink:href="KindElement_8h.html" target="_top" xlink:title="KindElement.h">
<polygon fill="white" stroke="black" points="1190.21,-168.5 1190.21,-187.5 1276.21,-187.5 1276.21,-168.5 1190.21,-168.5"/>
<text text-anchor="middle" x="1233.21" y="-175.5" font-family="Verdana" font-size="10.00">KindElement.h</text>
</a>
</g>
</g>
<!-- Node29&#45;&gt;Node30 -->
<g id="edge51" class="edge"><title>Node29&#45;&gt;Node30</title>
<path fill="none" stroke="midnightblue" d="M1244.89,-224.083C1243.04,-216.927 1240.37,-206.635 1238.05,-197.691"/>
<polygon fill="midnightblue" stroke="midnightblue" points="1241.37,-196.553 1235.48,-187.751 1234.6,-198.309 1241.37,-196.553"/>
</g>
<!-- Node30&#45;&gt;Node3 -->
<g id="edge52" class="edge"><title>Node30&#45;&gt;Node3</title>
<path fill="none" stroke="midnightblue" d="M1190.11,-172.017C1101.06,-161.719 897.679,-138.202 808.94,-127.941"/>
<polygon fill="midnightblue" stroke="midnightblue" points="809.288,-124.458 798.952,-126.786 808.484,-131.412 809.288,-124.458"/>
</g>
<!-- Node30&#45;&gt;Node4 -->
<g id="edge53" class="edge"><title>Node30&#45;&gt;Node4</title>
<path fill="none" stroke="midnightblue" d="M1234.82,-168.075C1239.54,-141.945 1253.41,-65.2106 1259.85,-29.577"/>
<polygon fill="midnightblue" stroke="midnightblue" points="1263.32,-30.0312 1261.66,-19.5681 1256.44,-28.7862 1263.32,-30.0312"/>
</g>
<!-- Node31&#45;&gt;Node4 -->
<g id="edge69" class="edge"><title>Node31&#45;&gt;Node4</title>
<path fill="none" stroke="midnightblue" d="M1899.69,-168.467C1902.16,-159.485 1905.79,-144.888 1907.21,-132 1911.06,-96.92 1912.79,-76.6975 1884.21,-56 1836.29,-21.3074 1416.29,-13.0426 1295.55,-11.3756"/>
<polygon fill="midnightblue" stroke="midnightblue" points="1295.49,-7.8747 1285.45,-11.2421 1295.4,-14.8741 1295.49,-7.8747"/>
</g>
<!-- Node32 -->
<g id="node32" class="node"><title>Node32</title>
<g id="a_node32"><a xlink:href="ParameterAccessContext_8h.html" target="_top" xlink:title="ParameterAccessContext.h">
<polygon fill="white" stroke="black" points="1751.71,-112.5 1751.71,-131.5 1898.71,-131.5 1898.71,-112.5 1751.71,-112.5"/>
<text text-anchor="middle" x="1825.21" y="-119.5" font-family="Verdana" font-size="10.00">ParameterAccessContext.h</text>
</a>
</g>
</g>
<!-- Node31&#45;&gt;Node32 -->
<g id="edge64" class="edge"><title>Node31&#45;&gt;Node32</title>
<path fill="none" stroke="midnightblue" d="M1885.64,-168.324C1874.79,-160.185 1858.33,-147.839 1845.32,-138.087"/>
<polygon fill="midnightblue" stroke="midnightblue" points="1847.09,-135.034 1836.99,-131.834 1842.89,-140.634 1847.09,-135.034"/>
</g>
<!-- Node32&#45;&gt;Node4 -->
<g id="edge68" class="edge"><title>Node32&#45;&gt;Node4</title>
<path fill="none" stroke="midnightblue" d="M1816.94,-112.379C1802.38,-97.8337 1770.56,-68.7599 1737.21,-56 1656.07,-24.9582 1388.66,-14.5551 1295.53,-11.8255"/>
<polygon fill="midnightblue" stroke="midnightblue" points="1295.41,-8.32063 1285.31,-11.5365 1295.21,-15.3178 1295.41,-8.32063"/>
</g>
<!-- Node32&#45;&gt;Node6 -->
<g id="edge65" class="edge"><title>Node32&#45;&gt;Node6</title>
<path fill="none" stroke="midnightblue" d="M1756.93,-112.464C1645.7,-98.8146 1418.38,-71.9902 1225.21,-56 946.59,-32.9374 875.741,-44.0327 597.207,-20 583.704,-18.835 568.925,-17.2174 555.897,-15.6745"/>
<polygon fill="midnightblue" stroke="midnightblue" points="556.23,-12.1894 545.883,-14.4632 555.39,-19.1387 556.23,-12.1894"/>
</g>
<!-- Node33 -->
<g id="node33" class="node"><title>Node33</title>
<g id="a_node33"><a xlink:href="ErrorContext_8h.html" target="_top" xlink:title="ErrorContext.h">
<polygon fill="white" stroke="black" points="1789.21,-56.5 1789.21,-75.5 1875.21,-75.5 1875.21,-56.5 1789.21,-56.5"/>
<text text-anchor="middle" x="1832.21" y="-63.5" font-family="Verdana" font-size="10.00">ErrorContext.h</text>
</a>
</g>
</g>
<!-- Node32&#45;&gt;Node33 -->
<g id="edge66" class="edge"><title>Node32&#45;&gt;Node33</title>
<path fill="none" stroke="midnightblue" d="M1826.36,-112.083C1827.29,-104.927 1828.62,-94.6353 1829.78,-85.6911"/>
<polygon fill="midnightblue" stroke="midnightblue" points="1833.26,-86.1181 1831.07,-75.7511 1826.32,-85.2181 1833.26,-86.1181"/>
</g>
<!-- Node33&#45;&gt;Node4 -->
<g id="edge67" class="edge"><title>Node33&#45;&gt;Node4</title>
<path fill="none" stroke="midnightblue" d="M1788.99,-57.8559C1784.34,-57.1835 1779.68,-56.5492 1775.21,-56 1594.24,-33.7875 1375.99,-18.3659 1295.25,-13.0452"/>
<polygon fill="midnightblue" stroke="midnightblue" points="1295.43,-9.54954 1285.22,-12.3899 1294.97,-16.5346 1295.43,-9.54954"/>
</g>
<!-- Node34&#45;&gt;Node2 -->
<g id="edge71" class="edge"><title>Node34&#45;&gt;Node2</title>
<path fill="none" stroke="midnightblue" d="M390.298,-224.083C397.362,-216.298 407.794,-204.801 416.356,-195.367"/>
<polygon fill="midnightblue" stroke="midnightblue" points="419.138,-197.509 423.266,-187.751 413.954,-192.805 419.138,-197.509"/>
</g>
<!-- Node34&#45;&gt;Node4 -->
<g id="edge73" class="edge"><title>Node34&#45;&gt;Node4</title>
<path fill="none" stroke="midnightblue" d="M374.534,-224.459C367.428,-215.927 357.353,-202.088 353.207,-188 350.697,-179.473 351.227,-176.666 353.207,-168 367.308,-106.286 382.867,-80.5756 441.207,-56 514.858,-24.9744 1087.31,-13.8117 1230.72,-11.4873"/>
<polygon fill="midnightblue" stroke="midnightblue" points="1231.09,-14.9819 1241.04,-11.3234 1230.98,-7.98275 1231.09,-14.9819"/>
</g>
<!-- Node34&#45;&gt;Node7 -->
<g id="edge72" class="edge"><title>Node34&#45;&gt;Node7</title>
<path fill="none" stroke="midnightblue" d="M375.086,-224.452C365.54,-211.895 350.722,-187.805 359.207,-168 375.952,-128.916 416.072,-97.7852 441.87,-80.9018"/>
<polygon fill="midnightblue" stroke="midnightblue" points="443.764,-83.8449 450.336,-75.5344 440.016,-77.933 443.764,-83.8449"/>
</g>
<!-- Node35&#45;&gt;Node13 -->
<g id="edge80" class="edge"><title>Node35&#45;&gt;Node13</title>
<path fill="none" stroke="midnightblue" d="M108.398,-168.324C125.558,-159.664 152.153,-146.242 171.954,-136.249"/>
<polygon fill="midnightblue" stroke="midnightblue" points="173.707,-139.285 181.058,-131.655 170.554,-133.035 173.707,-139.285"/>
</g>
<!-- Node35&#45;&gt;Node17 -->
<g id="edge79" class="edge"><title>Node35&#45;&gt;Node17</title>
<path fill="none" stroke="midnightblue" d="M60.7557,-168.47C29.3085,-158.023 -12.9385,-138.409 4.20681,-112 14.6141,-95.9696 32.203,-85.6017 49.8134,-78.9164"/>
<polygon fill="midnightblue" stroke="midnightblue" points="51.2343,-82.1291 59.5537,-75.5687 48.959,-75.5092 51.2343,-82.1291"/>
</g>
<!-- Node36 -->
<g id="node36" class="node"><title>Node36</title>
<g id="a_node36"><a xlink:href="ParameterBlackboard_8h.html" target="_top" xlink:title="ParameterBlackboard.h">
<polygon fill="white" stroke="black" points="13.7068,-112.5 13.7068,-131.5 142.707,-131.5 142.707,-112.5 13.7068,-112.5"/>
<text text-anchor="middle" x="78.2068" y="-119.5" font-family="Verdana" font-size="10.00">ParameterBlackboard.h</text>
</a>
</g>
</g>
<!-- Node35&#45;&gt;Node36 -->
<g id="edge75" class="edge"><title>Node35&#45;&gt;Node36</title>
<path fill="none" stroke="midnightblue" d="M89.0601,-168.083C87.3374,-160.927 84.8598,-150.635 82.7065,-141.691"/>
<polygon fill="midnightblue" stroke="midnightblue" points="86.057,-140.654 80.3136,-131.751 79.2514,-142.293 86.057,-140.654"/>
</g>
<!-- Node36&#45;&gt;Node4 -->
<g id="edge78" class="edge"><title>Node36&#45;&gt;Node4</title>
<path fill="none" stroke="midnightblue" d="M93.82,-112.489C123.824,-96.3019 188.733,-62.1393 213.207,-56 313.864,-30.7503 1064.88,-14.8392 1230.82,-11.61"/>
<polygon fill="midnightblue" stroke="midnightblue" points="1230.96,-15.108 1240.89,-11.4157 1230.82,-8.10932 1230.96,-15.108"/>
</g>
<!-- Node36&#45;&gt;Node6 -->
<g id="edge76" class="edge"><title>Node36&#45;&gt;Node6</title>
<path fill="none" stroke="midnightblue" d="M69.2002,-112.438C56.1194,-98.9912 35.0028,-72.7326 50.2068,-56 79.1244,-24.175 376.969,-14.2707 482.437,-11.748"/>
<polygon fill="midnightblue" stroke="midnightblue" points="482.688,-15.2433 492.604,-11.5137 482.526,-8.24516 482.688,-15.2433"/>
</g>
<!-- Node36&#45;&gt;Node17 -->
<g id="edge77" class="edge"><title>Node36&#45;&gt;Node17</title>
<path fill="none" stroke="midnightblue" d="M82.6653,-112.083C86.3611,-104.691 91.7302,-93.9533 96.3013,-84.8111"/>
<polygon fill="midnightblue" stroke="midnightblue" points="99.4896,-86.2606 100.831,-75.7511 93.2286,-83.1301 99.4896,-86.2606"/>
</g>
</g>
</svg>
