<?xml version="1.0" encoding="UTF-8" standalone="no"?>
<!DOCTYPE svg PUBLIC "-//W3C//DTD SVG 1.1//EN"
 "http://www.w3.org/Graphics/SVG/1.1/DTD/svg11.dtd">
<!-- Generated by graphviz version 2.38.0 (20140413.2041)
 -->
<!-- Title: parameter/ConfigurableDomain.h Pages: 1 -->
<svg width="1969pt" height="532pt"
 viewBox="0.00 0.00 1969.01 532.00" xmlns="http://www.w3.org/2000/svg" xmlns:xlink="http://www.w3.org/1999/xlink">
<g id="graph0" class="graph" transform="scale(1 1) rotate(0) translate(4 528)">
<title>parameter/ConfigurableDomain.h</title>
<polygon fill="white" stroke="none" points="-4,4 -4,-528 1965.01,-528 1965.01,4 -4,4"/>
<!-- Node1 -->
<g id="node1" class="node"><title>Node1</title>
<polygon fill="#bfbfbf" stroke="black" points="1612.51,-504.5 1612.51,-523.5 1789.51,-523.5 1789.51,-504.5 1612.51,-504.5"/>
<text text-anchor="middle" x="1701.01" y="-511.5" font-family="Verdana" font-size="10.00">parameter/ConfigurableDomain.h</text>
</g>
<!-- Node2 -->
<g id="node2" class="node"><title>Node2</title>
<g id="a_node2"><a xlink:href="XmlSerializingContext_8h.html" target="_top" xlink:title="XmlSerializingContext.h">
<polygon fill="white" stroke="black" points="965.011,-112.5 965.011,-131.5 1095.01,-131.5 1095.01,-112.5 965.011,-112.5"/>
<text text-anchor="middle" x="1030.01" y="-119.5" font-family="Verdana" font-size="10.00">XmlSerializingContext.h</text>
</a>
</g>
</g>
<!-- Node1&#45;&gt;Node2 -->
<g id="edge1" class="edge"><title>Node1&#45;&gt;Node2</title>
<path fill="none" stroke="midnightblue" d="M1612.44,-505.203C1450.25,-489.723 1122.01,-452.305 1122.01,-403 1122.01,-403 1122.01,-403 1122.01,-345 1122.01,-314.902 1124.82,-305.374 1141.01,-280 1177.71,-222.476 1289.06,-220.939 1246.01,-168 1228.32,-146.247 1160.23,-134.657 1105.17,-128.721"/>
<polygon fill="midnightblue" stroke="midnightblue" points="1105.36,-125.222 1095.05,-127.677 1104.64,-132.185 1105.36,-125.222"/>
</g>
<!-- Node4 -->
<g id="node4" class="node"><title>Node4</title>
<polygon fill="white" stroke="#bfbfbf" points="1101.01,-0.5 1101.01,-19.5 1145.01,-19.5 1145.01,-0.5 1101.01,-0.5"/>
<text text-anchor="middle" x="1123.01" y="-7.5" font-family="Verdana" font-size="10.00">string</text>
</g>
<!-- Node1&#45;&gt;Node4 -->
<g id="edge88" class="edge"><title>Node1&#45;&gt;Node4</title>
<path fill="none" stroke="midnightblue" d="M1789.76,-510.69C1865.08,-503.426 1961.01,-479.214 1961.01,-403 1961.01,-403 1961.01,-403 1961.01,-121 1961.01,-61.5141 1901.1,-72.7087 1844.01,-56 1712.13,-17.4016 1277.72,-11.9106 1155.35,-11.1295"/>
<polygon fill="midnightblue" stroke="midnightblue" points="1155.16,-7.62844 1145.14,-11.0709 1155.12,-14.6283 1155.16,-7.62844"/>
</g>
<!-- Node6 -->
<g id="node6" class="node"><title>Node6</title>
<g id="a_node6"><a xlink:href="XmlDomainImportContext_8h.html" target="_top" xlink:title="XmlDomainImportContext.h">
<polygon fill="white" stroke="black" points="1324.01,-448.5 1324.01,-467.5 1474.01,-467.5 1474.01,-448.5 1324.01,-448.5"/>
<text text-anchor="middle" x="1399.01" y="-455.5" font-family="Verdana" font-size="10.00">XmlDomainImportContext.h</text>
</a>
</g>
</g>
<!-- Node1&#45;&gt;Node6 -->
<g id="edge6" class="edge"><title>Node1&#45;&gt;Node6</title>
<path fill="none" stroke="midnightblue" d="M1653.16,-504.444C1599.81,-494.905 1513.57,-479.483 1456.58,-469.293"/>
<polygon fill="midnightblue" stroke="midnightblue" points="1457.1,-465.831 1446.64,-467.516 1455.87,-472.722 1457.1,-465.831"/>
</g>
<!-- Node20 -->
<g id="node20" class="node"><title>Node20</title>
<polygon fill="white" stroke="#bfbfbf" points="278.011,-112.5 278.011,-131.5 316.011,-131.5 316.011,-112.5 278.011,-112.5"/>
<text text-anchor="middle" x="297.011" y="-119.5" font-family="Verdana" font-size="10.00">map</text>
</g>
<!-- Node1&#45;&gt;Node20 -->
<g id="edge87" class="edge"><title>Node1&#45;&gt;Node20</title>
<path fill="none" stroke="midnightblue" d="M1612.42,-510.67C1305.46,-502.02 306.011,-468.802 306.011,-403 306.011,-403 306.011,-403 306.011,-289 306.011,-235.512 301.294,-172.472 298.69,-141.741"/>
<polygon fill="midnightblue" stroke="midnightblue" points="302.164,-141.29 297.81,-131.632 295.191,-141.898 302.164,-141.29"/>
</g>
<!-- Node27 -->
<g id="node27" class="node"><title>Node27</title>
<polygon fill="white" stroke="#bfbfbf" points="1686.01,-112.5 1686.01,-131.5 1716.01,-131.5 1716.01,-112.5 1686.01,-112.5"/>
<text text-anchor="middle" x="1701.01" y="-119.5" font-family="Verdana" font-size="10.00">list</text>
</g>
<!-- Node1&#45;&gt;Node27 -->
<g id="edge85" class="edge"><title>Node1&#45;&gt;Node27</title>
<path fill="none" stroke="midnightblue" d="M1695.43,-504.358C1672.65,-467.921 1590.44,-324.098 1644.01,-224 1657.62,-198.569 1683.82,-213.111 1698.01,-188 1705.91,-174.017 1705.96,-155.515 1704.45,-141.827"/>
<polygon fill="midnightblue" stroke="midnightblue" points="1707.87,-141.046 1702.94,-131.667 1700.94,-142.072 1707.87,-141.046"/>
</g>
<!-- Node35 -->
<g id="node35" class="node"><title>Node35</title>
<g id="a_node35"><a xlink:href="Results_8h.html" target="_top" xlink:title="Results.h">
<polygon fill="white" stroke="black" points="1813.51,-336.5 1813.51,-355.5 1872.51,-355.5 1872.51,-336.5 1813.51,-336.5"/>
<text text-anchor="middle" x="1843.01" y="-343.5" font-family="Verdana" font-size="10.00">Results.h</text>
</a>
</g>
</g>
<!-- Node1&#45;&gt;Node35 -->
<g id="edge84" class="edge"><title>Node1&#45;&gt;Node35</title>
<path fill="none" stroke="midnightblue" d="M1703.79,-504.384C1711.01,-483.059 1732.24,-427.01 1766.01,-392 1779.1,-378.435 1797.15,-367.595 1812.49,-359.956"/>
<polygon fill="midnightblue" stroke="midnightblue" points="1814.08,-363.071 1821.61,-355.618 1811.08,-356.749 1814.08,-363.071"/>
</g>
<!-- Node37 -->
<g id="node37" class="node"><title>Node37</title>
<g id="a_node37"><a xlink:href="XmlDomainExportContext_8h.html" target="_top" xlink:title="XmlDomainExportContext.h">
<polygon fill="white" stroke="black" points="1690.51,-280.5 1690.51,-299.5 1839.51,-299.5 1839.51,-280.5 1690.51,-280.5"/>
<text text-anchor="middle" x="1765.01" y="-287.5" font-family="Verdana" font-size="10.00">XmlDomainExportContext.h</text>
</a>
</g>
</g>
<!-- Node1&#45;&gt;Node37 -->
<g id="edge78" class="edge"><title>Node1&#45;&gt;Node37</title>
<path fill="none" stroke="midnightblue" d="M1702.65,-504.104C1705.02,-491.524 1709.72,-467.856 1715.01,-448 1728.52,-397.262 1748.36,-338.571 1758.51,-309.415"/>
<polygon fill="midnightblue" stroke="midnightblue" points="1761.89,-310.36 1761.89,-299.765 1755.28,-308.045 1761.89,-310.36"/>
</g>
<!-- Node38 -->
<g id="node38" class="node"><title>Node38</title>
<g id="a_node38"><a xlink:href="SyncerSet_8h.html" target="_top" xlink:title="SyncerSet.h">
<polygon fill="white" stroke="black" points="1805.51,-448.5 1805.51,-467.5 1880.51,-467.5 1880.51,-448.5 1805.51,-448.5"/>
<text text-anchor="middle" x="1843.01" y="-455.5" font-family="Verdana" font-size="10.00">SyncerSet.h</text>
</a>
</g>
</g>
<!-- Node1&#45;&gt;Node38 -->
<g id="edge81" class="edge"><title>Node1&#45;&gt;Node38</title>
<path fill="none" stroke="midnightblue" d="M1723.51,-504.444C1747.09,-495.478 1784.33,-481.314 1810.97,-471.183"/>
<polygon fill="midnightblue" stroke="midnightblue" points="1812.51,-474.342 1820.62,-467.516 1810.02,-467.8 1812.51,-474.342"/>
</g>
<!-- Node39 -->
<g id="node39" class="node"><title>Node39</title>
<polygon fill="white" stroke="#bfbfbf" points="1775.01,-392.5 1775.01,-411.5 1807.01,-411.5 1807.01,-392.5 1775.01,-392.5"/>
<text text-anchor="middle" x="1791.01" y="-399.5" font-family="Verdana" font-size="10.00">set</text>
</g>
<!-- Node1&#45;&gt;Node39 -->
<g id="edge86" class="edge"><title>Node1&#45;&gt;Node39</title>
<path fill="none" stroke="midnightblue" d="M1713.17,-504.323C1724.4,-495.902 1741.11,-482.326 1753.01,-468 1765.13,-453.418 1775.71,-434.496 1782.61,-420.832"/>
<polygon fill="midnightblue" stroke="midnightblue" points="1785.89,-422.089 1787.13,-411.567 1779.6,-419.018 1785.89,-422.089"/>
</g>
<!-- Node3 -->
<g id="node3" class="node"><title>Node3</title>
<g id="a_node3"><a xlink:href="ErrorContext_8hpp.html" target="_top" xlink:title="ErrorContext.hpp">
<polygon fill="white" stroke="black" points="921.011,-56.5 921.011,-75.5 1019.01,-75.5 1019.01,-56.5 921.011,-56.5"/>
<text text-anchor="middle" x="970.011" y="-63.5" font-family="Verdana" font-size="10.00">ErrorContext.hpp</text>
</a>
</g>
</g>
<!-- Node2&#45;&gt;Node3 -->
<g id="edge2" class="edge"><title>Node2&#45;&gt;Node3</title>
<path fill="none" stroke="midnightblue" d="M1020.37,-112.324C1011.5,-104.341 998.136,-92.3128 987.403,-82.6529"/>
<polygon fill="midnightblue" stroke="midnightblue" points="989.601,-79.922 979.826,-75.8339 984.918,-85.1251 989.601,-79.922"/>
</g>
<!-- Node2&#45;&gt;Node4 -->
<g id="edge5" class="edge"><title>Node2&#45;&gt;Node4</title>
<path fill="none" stroke="midnightblue" d="M1037.31,-112.368C1052.79,-94.0547 1089.15,-51.0489 1109.18,-27.3624"/>
<polygon fill="midnightblue" stroke="midnightblue" points="1111.96,-29.4877 1115.75,-19.5914 1106.62,-24.9682 1111.96,-29.4877"/>
</g>
<!-- Node3&#45;&gt;Node4 -->
<g id="edge3" class="edge"><title>Node3&#45;&gt;Node4</title>
<path fill="none" stroke="midnightblue" d="M994.254,-56.4435C1020.48,-47.1858 1062.42,-32.3866 1091.26,-22.2066"/>
<polygon fill="midnightblue" stroke="midnightblue" points="1092.6,-25.4438 1100.87,-18.8151 1090.27,-18.8429 1092.6,-25.4438"/>
</g>
<!-- Node5 -->
<g id="node5" class="node"><title>Node5</title>
<g id="a_node5"><a xlink:href="NonCopyable_8hpp.html" target="_top" xlink:title="NonCopyable.hpp">
<polygon fill="white" stroke="black" points="103.511,-0.5 103.511,-19.5 204.511,-19.5 204.511,-0.5 103.511,-0.5"/>
<text text-anchor="middle" x="154.011" y="-7.5" font-family="Verdana" font-size="10.00">NonCopyable.hpp</text>
</a>
</g>
</g>
<!-- Node3&#45;&gt;Node5 -->
<g id="edge4" class="edge"><title>Node3&#45;&gt;Node5</title>
<path fill="none" stroke="midnightblue" d="M920.746,-61.6454C895.676,-59.9436 864.721,-57.8504 837.011,-56 607.164,-40.6514 333.782,-22.7449 214.59,-14.9551"/>
<polygon fill="midnightblue" stroke="midnightblue" points="214.773,-11.4596 204.566,-14.3 214.316,-18.4447 214.773,-11.4596"/>
</g>
<!-- Node6&#45;&gt;Node4 -->
<g id="edge77" class="edge"><title>Node6&#45;&gt;Node4</title>
<path fill="none" stroke="midnightblue" d="M1384.62,-448.499C1372.49,-440.574 1355.6,-427.642 1346.01,-412 1303.76,-343.069 1304.01,-315.851 1304.01,-235 1304.01,-235 1304.01,-235 1304.01,-121 1304.01,-52.197 1207.32,-25.2067 1155.28,-15.6628"/>
<polygon fill="midnightblue" stroke="midnightblue" points="1155.65,-12.1759 1145.21,-13.9307 1154.47,-19.0747 1155.65,-12.1759"/>
</g>
<!-- Node7 -->
<g id="node7" class="node"><title>Node7</title>
<g id="a_node7"><a xlink:href="XmlDomainSerializingContext_8h.html" target="_top" xlink:title="XmlDomainSerializingContext.h">
<polygon fill="white" stroke="black" points="1652.51,-224.5 1652.51,-243.5 1819.51,-243.5 1819.51,-224.5 1652.51,-224.5"/>
<text text-anchor="middle" x="1736.01" y="-231.5" font-family="Verdana" font-size="10.00">XmlDomainSerializingContext.h</text>
</a>
</g>
</g>
<!-- Node6&#45;&gt;Node7 -->
<g id="edge7" class="edge"><title>Node6&#45;&gt;Node7</title>
<path fill="none" stroke="midnightblue" d="M1421.09,-448.451C1459.51,-433.043 1540.37,-398.255 1601.01,-356 1641.51,-327.777 1645.03,-312.704 1682.01,-280 1693.44,-269.894 1706.58,-258.928 1717.04,-250.352"/>
<polygon fill="midnightblue" stroke="midnightblue" points="1719.56,-252.814 1725.1,-243.781 1715.13,-247.389 1719.56,-252.814"/>
</g>
<!-- Node9 -->
<g id="node9" class="node"><title>Node9</title>
<g id="a_node9"><a xlink:href="SelectionCriteriaDefinition_8h.html" target="_top" xlink:title="SelectionCriteriaDefinition.h">
<polygon fill="white" stroke="black" points="642.511,-392.5 642.511,-411.5 791.511,-411.5 791.511,-392.5 642.511,-392.5"/>
<text text-anchor="middle" x="717.011" y="-399.5" font-family="Verdana" font-size="10.00">SelectionCriteriaDefinition.h</text>
</a>
</g>
</g>
<!-- Node6&#45;&gt;Node9 -->
<g id="edge12" class="edge"><title>Node6&#45;&gt;Node9</title>
<path fill="none" stroke="midnightblue" d="M1323.75,-451.041C1195.7,-440.902 936.325,-420.365 801.969,-409.727"/>
<polygon fill="midnightblue" stroke="midnightblue" points="801.973,-406.216 791.727,-408.916 801.42,-413.194 801.973,-406.216"/>
</g>
<!-- Node31 -->
<g id="node31" class="node"><title>Node31</title>
<g id="a_node31"><a xlink:href="SystemClass_8h.html" target="_top" xlink:title="SystemClass.h">
<polygon fill="white" stroke="black" points="1355.01,-392.5 1355.01,-411.5 1443.01,-411.5 1443.01,-392.5 1355.01,-392.5"/>
<text text-anchor="middle" x="1399.01" y="-399.5" font-family="Verdana" font-size="10.00">SystemClass.h</text>
</a>
</g>
</g>
<!-- Node6&#45;&gt;Node31 -->
<g id="edge60" class="edge"><title>Node6&#45;&gt;Node31</title>
<path fill="none" stroke="midnightblue" d="M1399.01,-448.083C1399.01,-441.006 1399.01,-430.861 1399.01,-421.986"/>
<polygon fill="midnightblue" stroke="midnightblue" points="1402.51,-421.751 1399.01,-411.751 1395.51,-421.751 1402.51,-421.751"/>
</g>
<!-- Node7&#45;&gt;Node4 -->
<g id="edge11" class="edge"><title>Node7&#45;&gt;Node4</title>
<path fill="none" stroke="midnightblue" d="M1746.64,-224.175C1759.85,-212.057 1779.78,-189.334 1772.01,-168 1760.9,-137.467 1752.87,-128.717 1725.01,-112 1626.84,-53.1008 1265.58,-21.6793 1155.24,-13.3076"/>
<polygon fill="midnightblue" stroke="midnightblue" points="1155.3,-9.8027 1145.07,-12.5478 1154.78,-16.7832 1155.3,-9.8027"/>
</g>
<!-- Node8 -->
<g id="node8" class="node"><title>Node8</title>
<g id="a_node8"><a xlink:href="XmlElementSerializingContext_8h.html" target="_top" xlink:title="XmlElementSerializingContext.h">
<polygon fill="white" stroke="black" points="1446.01,-168.5 1446.01,-187.5 1616.01,-187.5 1616.01,-168.5 1446.01,-168.5"/>
<text text-anchor="middle" x="1531.01" y="-175.5" font-family="Verdana" font-size="10.00">XmlElementSerializingContext.h</text>
</a>
</g>
</g>
<!-- Node7&#45;&gt;Node8 -->
<g id="edge8" class="edge"><title>Node7&#45;&gt;Node8</title>
<path fill="none" stroke="midnightblue" d="M1703.53,-224.444C1668.29,-215.162 1611.91,-200.309 1573.25,-190.127"/>
<polygon fill="midnightblue" stroke="midnightblue" points="1573.9,-186.679 1563.34,-187.516 1572.12,-193.448 1573.9,-186.679"/>
</g>
<!-- Node8&#45;&gt;Node2 -->
<g id="edge9" class="edge"><title>Node8&#45;&gt;Node2</title>
<path fill="none" stroke="midnightblue" d="M1451.9,-168.473C1356.89,-158.232 1198.67,-141.179 1105.36,-131.121"/>
<polygon fill="midnightblue" stroke="midnightblue" points="1105.46,-127.613 1095.15,-130.021 1104.71,-134.572 1105.46,-127.613"/>
</g>
<!-- Node8&#45;&gt;Node4 -->
<g id="edge10" class="edge"><title>Node8&#45;&gt;Node4</title>
<path fill="none" stroke="midnightblue" d="M1526.89,-168.439C1515.46,-145.703 1480.91,-83.665 1432.01,-56 1385.21,-29.5217 1225.38,-17.0575 1155.81,-12.7884"/>
<polygon fill="midnightblue" stroke="midnightblue" points="1155.64,-9.27226 1145.45,-12.1727 1155.22,-16.2599 1155.64,-9.27226"/>
</g>
<!-- Node10 -->
<g id="node10" class="node"><title>Node10</title>
<g id="a_node10"><a xlink:href="Element_8h.html" target="_top" xlink:title="Element.h">
<polygon fill="white" stroke="black" points="863.511,-224.5 863.511,-243.5 928.511,-243.5 928.511,-224.5 863.511,-224.5"/>
<text text-anchor="middle" x="896.011" y="-231.5" font-family="Verdana" font-size="10.00">Element.h</text>
</a>
</g>
</g>
<!-- Node9&#45;&gt;Node10 -->
<g id="edge13" class="edge"><title>Node9&#45;&gt;Node10</title>
<path fill="none" stroke="midnightblue" d="M726.635,-392.075C755.665,-365.153 842.62,-284.514 879.347,-250.453"/>
<polygon fill="midnightblue" stroke="midnightblue" points="881.819,-252.934 886.772,-243.568 877.06,-247.802 881.819,-252.934"/>
</g>
<!-- Node18 -->
<g id="node18" class="node"><title>Node18</title>
<g id="a_node18"><a xlink:href="SelectionCriterion_8h.html" target="_top" xlink:title="SelectionCriterion.h">
<polygon fill="white" stroke="black" points="345.011,-336.5 345.011,-355.5 455.011,-355.5 455.011,-336.5 345.011,-336.5"/>
<text text-anchor="middle" x="400.011" y="-343.5" font-family="Verdana" font-size="10.00">SelectionCriterion.h</text>
</a>
</g>
</g>
<!-- Node9&#45;&gt;Node18 -->
<g id="edge30" class="edge"><title>Node9&#45;&gt;Node18</title>
<path fill="none" stroke="midnightblue" d="M666.781,-392.444C610.67,-382.885 519.881,-367.419 460.063,-357.23"/>
<polygon fill="midnightblue" stroke="midnightblue" points="460.451,-353.745 450.005,-355.516 459.276,-360.646 460.451,-353.745"/>
</g>
<!-- Node23 -->
<g id="node23" class="node"><title>Node23</title>
<g id="a_node23"><a xlink:href="Logger_8h.html" target="_top" xlink:title="log/Logger.h">
<polygon fill="white" stroke="black" points="507.511,-280.5 507.511,-299.5 582.511,-299.5 582.511,-280.5 507.511,-280.5"/>
<text text-anchor="middle" x="545.011" y="-287.5" font-family="Verdana" font-size="10.00">log/Logger.h</text>
</a>
</g>
</g>
<!-- Node9&#45;&gt;Node23 -->
<g id="edge59" class="edge"><title>Node9&#45;&gt;Node23</title>
<path fill="none" stroke="midnightblue" d="M703.514,-392.368C673.999,-373.492 603.467,-328.385 567.272,-305.237"/>
<polygon fill="midnightblue" stroke="midnightblue" points="568.755,-302.031 558.445,-299.591 564.984,-307.928 568.755,-302.031"/>
</g>
<!-- Node10&#45;&gt;Node4 -->
<g id="edge15" class="edge"><title>Node10&#45;&gt;Node4</title>
<path fill="none" stroke="midnightblue" d="M928.772,-230.949C966.958,-227.248 1030.73,-216.895 1077.01,-188 1125.27,-157.869 1131.59,-132.409 1139.01,-76 1140.17,-67.1871 1140.52,-64.7595 1139.01,-56 1137.44,-46.9098 1134.22,-37.2219 1131.07,-29.1726"/>
<polygon fill="midnightblue" stroke="midnightblue" points="1134.21,-27.6018 1127.12,-19.7229 1127.75,-30.2993 1134.21,-27.6018"/>
</g>
<!-- Node11 -->
<g id="node11" class="node"><title>Node11</title>
<polygon fill="white" stroke="#bfbfbf" points="1124.51,-168.5 1124.51,-187.5 1237.51,-187.5 1237.51,-168.5 1124.51,-168.5"/>
<text text-anchor="middle" x="1181.01" y="-175.5" font-family="Verdana" font-size="10.00">parameter_export.h</text>
</g>
<!-- Node10&#45;&gt;Node11 -->
<g id="edge14" class="edge"><title>Node10&#45;&gt;Node11</title>
<path fill="none" stroke="midnightblue" d="M928.704,-226.806C976.842,-217.685 1067.4,-200.527 1125.91,-189.439"/>
<polygon fill="midnightblue" stroke="midnightblue" points="1126.92,-192.811 1136.09,-187.511 1125.62,-185.934 1126.92,-192.811"/>
</g>
<!-- Node12 -->
<g id="node12" class="node"><title>Node12</title>
<polygon fill="white" stroke="#bfbfbf" points="861.511,-112.5 861.511,-131.5 908.511,-131.5 908.511,-112.5 861.511,-112.5"/>
<text text-anchor="middle" x="885.011" y="-119.5" font-family="Verdana" font-size="10.00">vector</text>
</g>
<!-- Node10&#45;&gt;Node12 -->
<g id="edge16" class="edge"><title>Node10&#45;&gt;Node12</title>
<path fill="none" stroke="midnightblue" d="M893.281,-224.486C890.56,-215.52 886.569,-200.935 885.011,-188 883.153,-172.576 883.293,-154.943 883.82,-141.937"/>
<polygon fill="midnightblue" stroke="midnightblue" points="887.319,-142.039 884.342,-131.872 880.329,-141.677 887.319,-142.039"/>
</g>
<!-- Node13 -->
<g id="node13" class="node"><title>Node13</title>
<polygon fill="white" stroke="#bfbfbf" points="775.511,-56.5 775.511,-75.5 828.511,-75.5 828.511,-56.5 775.511,-56.5"/>
<text text-anchor="middle" x="802.011" y="-63.5" font-family="Verdana" font-size="10.00">stdint.h</text>
</g>
<!-- Node10&#45;&gt;Node13 -->
<g id="edge17" class="edge"><title>Node10&#45;&gt;Node13</title>
<path fill="none" stroke="midnightblue" d="M863.224,-233.226C828.947,-231.482 776.65,-222.803 751.011,-188 730.976,-160.805 737.117,-142.788 751.011,-112 756.627,-99.5553 767.574,-89.1723 777.89,-81.5273"/>
<polygon fill="midnightblue" stroke="midnightblue" points="780.017,-84.3123 786.277,-75.7643 776.053,-78.5431 780.017,-84.3123"/>
</g>
<!-- Node14 -->
<g id="node14" class="node"><title>Node14</title>
<g id="a_node14"><a xlink:href="XmlSink_8h.html" target="_top" xlink:title="XmlSink.h">
<polygon fill="white" stroke="black" points="894.011,-168.5 894.011,-187.5 958.011,-187.5 958.011,-168.5 894.011,-168.5"/>
<text text-anchor="middle" x="926.011" y="-175.5" font-family="Verdana" font-size="10.00">XmlSink.h</text>
</a>
</g>
</g>
<!-- Node10&#45;&gt;Node14 -->
<g id="edge18" class="edge"><title>Node10&#45;&gt;Node14</title>
<path fill="none" stroke="midnightblue" d="M900.965,-224.083C905.115,-216.613 911.164,-205.724 916.278,-196.52"/>
<polygon fill="midnightblue" stroke="midnightblue" points="919.352,-198.192 921.149,-187.751 913.233,-194.793 919.352,-198.192"/>
</g>
<!-- Node16 -->
<g id="node16" class="node"><title>Node16</title>
<g id="a_node16"><a xlink:href="XmlSource_8h.html" target="_top" xlink:title="XmlSource.h">
<polygon fill="white" stroke="black" points="760.511,-168.5 760.511,-187.5 837.511,-187.5 837.511,-168.5 760.511,-168.5"/>
<text text-anchor="middle" x="799.011" y="-175.5" font-family="Verdana" font-size="10.00">XmlSource.h</text>
</a>
</g>
</g>
<!-- Node10&#45;&gt;Node16 -->
<g id="edge23" class="edge"><title>Node10&#45;&gt;Node16</title>
<path fill="none" stroke="midnightblue" d="M880.426,-224.324C865.012,-215.743 841.199,-202.486 823.301,-192.522"/>
<polygon fill="midnightblue" stroke="midnightblue" points="824.997,-189.461 814.557,-187.655 821.592,-195.577 824.997,-189.461"/>
</g>
<!-- Node17 -->
<g id="node17" class="node"><title>Node17</title>
<g id="a_node17"><a xlink:href="PathNavigator_8h.html" target="_top" xlink:title="PathNavigator.h">
<polygon fill="white" stroke="black" points="976.011,-168.5 976.011,-187.5 1068.01,-187.5 1068.01,-168.5 976.011,-168.5"/>
<text text-anchor="middle" x="1022.01" y="-175.5" font-family="Verdana" font-size="10.00">PathNavigator.h</text>
</a>
</g>
</g>
<!-- Node10&#45;&gt;Node17 -->
<g id="edge26" class="edge"><title>Node10&#45;&gt;Node17</title>
<path fill="none" stroke="midnightblue" d="M915.976,-224.444C936.62,-215.596 969.073,-201.687 992.642,-191.586"/>
<polygon fill="midnightblue" stroke="midnightblue" points="994.326,-194.673 1002.14,-187.516 991.569,-188.239 994.326,-194.673"/>
</g>
<!-- Node14&#45;&gt;Node2 -->
<g id="edge22" class="edge"><title>Node14&#45;&gt;Node2</title>
<path fill="none" stroke="midnightblue" d="M942.72,-168.324C959.323,-159.703 985.013,-146.364 1004.23,-136.386"/>
<polygon fill="midnightblue" stroke="midnightblue" points="1006.08,-139.369 1013.34,-131.655 1002.86,-133.156 1006.08,-139.369"/>
</g>
<!-- Node15 -->
<g id="node15" class="node"><title>Node15</title>
<g id="a_node15"><a xlink:href="XmlElement_8h.html" target="_top" xlink:title="XmlElement.h">
<polygon fill="white" stroke="black" points="760.511,-112.5 760.511,-131.5 843.511,-131.5 843.511,-112.5 760.511,-112.5"/>
<text text-anchor="middle" x="802.011" y="-119.5" font-family="Verdana" font-size="10.00">XmlElement.h</text>
</a>
</g>
</g>
<!-- Node14&#45;&gt;Node15 -->
<g id="edge19" class="edge"><title>Node14&#45;&gt;Node15</title>
<path fill="none" stroke="midnightblue" d="M906.363,-168.444C886.046,-159.596 854.108,-145.687 830.913,-135.586"/>
<polygon fill="midnightblue" stroke="midnightblue" points="832.133,-132.3 821.567,-131.516 829.338,-138.718 832.133,-132.3"/>
</g>
<!-- Node15&#45;&gt;Node4 -->
<g id="edge21" class="edge"><title>Node15&#45;&gt;Node4</title>
<path fill="none" stroke="midnightblue" d="M843.573,-113.17C906.488,-101.255 1019.53,-79.5688 1028.01,-76 1043.7,-69.397 1080.59,-42.7905 1103.51,-25.7323"/>
<polygon fill="midnightblue" stroke="midnightblue" points="1105.91,-28.3086 1111.81,-19.5132 1101.71,-22.7053 1105.91,-28.3086"/>
</g>
<!-- Node15&#45;&gt;Node13 -->
<g id="edge20" class="edge"><title>Node15&#45;&gt;Node13</title>
<path fill="none" stroke="midnightblue" d="M802.011,-112.083C802.011,-105.006 802.011,-94.8611 802.011,-85.9865"/>
<polygon fill="midnightblue" stroke="midnightblue" points="805.511,-85.751 802.011,-75.7511 798.511,-85.7511 805.511,-85.751"/>
</g>
<!-- Node16&#45;&gt;Node2 -->
<g id="edge25" class="edge"><title>Node16&#45;&gt;Node2</title>
<path fill="none" stroke="midnightblue" d="M835.614,-168.444C875.742,-159.063 940.209,-143.993 983.796,-133.804"/>
<polygon fill="midnightblue" stroke="midnightblue" points="984.639,-137.201 993.579,-131.516 983.045,-130.385 984.639,-137.201"/>
</g>
<!-- Node16&#45;&gt;Node15 -->
<g id="edge24" class="edge"><title>Node16&#45;&gt;Node15</title>
<path fill="none" stroke="midnightblue" d="M799.506,-168.083C799.899,-161.006 800.463,-150.861 800.956,-141.986"/>
<polygon fill="midnightblue" stroke="midnightblue" points="804.465,-141.93 801.525,-131.751 797.475,-141.542 804.465,-141.93"/>
</g>
<!-- Node17&#45;&gt;Node4 -->
<g id="edge28" class="edge"><title>Node17&#45;&gt;Node4</title>
<path fill="none" stroke="midnightblue" d="M1051.21,-168.367C1069.3,-161.473 1091.41,-149.94 1104.01,-132 1125.63,-101.217 1126.44,-55.1964 1124.88,-29.6981"/>
<polygon fill="midnightblue" stroke="midnightblue" points="1128.36,-29.2412 1124.06,-19.5552 1121.38,-29.8044 1128.36,-29.2412"/>
</g>
<!-- Node17&#45;&gt;Node12 -->
<g id="edge27" class="edge"><title>Node17&#45;&gt;Node12</title>
<path fill="none" stroke="midnightblue" d="M1000.3,-168.444C977.656,-159.517 941.939,-145.439 916.259,-135.317"/>
<polygon fill="midnightblue" stroke="midnightblue" points="917.204,-131.927 906.617,-131.516 914.637,-138.44 917.204,-131.927"/>
</g>
<!-- Node17&#45;&gt;Node13 -->
<g id="edge29" class="edge"><title>Node17&#45;&gt;Node13</title>
<path fill="none" stroke="midnightblue" d="M1009.83,-168.438C990.679,-155.222 952.103,-129.546 917.011,-112 891.12,-99.0543 860.55,-87.2466 837.439,-78.9775"/>
<polygon fill="midnightblue" stroke="midnightblue" points="838.303,-75.571 827.708,-75.5467 835.975,-82.1727 838.303,-75.571"/>
</g>
<!-- Node18&#45;&gt;Node4 -->
<g id="edge58" class="edge"><title>Node18&#45;&gt;Node4</title>
<path fill="none" stroke="midnightblue" d="M344.701,-340.526C271.508,-333.927 146.954,-320.151 106.011,-300 68.4995,-281.538 38.0109,-276.808 38.0109,-235 38.0109,-235 38.0109,-235 38.0109,-121 38.0109,-12.3412 910.468,-10.1037 1090.68,-10.8006"/>
<polygon fill="midnightblue" stroke="midnightblue" points="1090.83,-14.3012 1100.85,-10.8461 1090.86,-7.30123 1090.83,-14.3012"/>
</g>
<!-- Node18&#45;&gt;Node5 -->
<g id="edge57" class="edge"><title>Node18&#45;&gt;Node5</title>
<path fill="none" stroke="midnightblue" d="M344.785,-345.265C252.562,-344.607 72.523,-338.284 24.0109,-300 -0.163295,-280.922 0.0108863,-265.795 0.0108863,-235 0.0108863,-235 0.0108863,-235 0.0108863,-121 0.0108863,-90.2048 2.01377,-77.5516 24.0109,-56 42.7535,-37.637 69.3517,-26.7473 93.611,-20.2985"/>
<polygon fill="midnightblue" stroke="midnightblue" points="94.6002,-23.6597 103.478,-17.8779 92.9324,-16.8612 94.6002,-23.6597"/>
</g>
<!-- Node18&#45;&gt;Node10 -->
<g id="edge31" class="edge"><title>Node18&#45;&gt;Node10</title>
<path fill="none" stroke="midnightblue" d="M438.518,-336.46C529.766,-316.224 758.6,-265.474 853.62,-244.401"/>
<polygon fill="midnightblue" stroke="midnightblue" points="854.456,-247.801 863.461,-242.219 852.94,-240.967 854.456,-247.801"/>
</g>
<!-- Node19 -->
<g id="node19" class="node"><title>Node19</title>
<g id="a_node19"><a xlink:href="SelectionCriterionType_8h.html" target="_top" xlink:title="SelectionCriterionType.h">
<polygon fill="white" stroke="black" points="334.511,-280.5 334.511,-299.5 465.511,-299.5 465.511,-280.5 334.511,-280.5"/>
<text text-anchor="middle" x="400.011" y="-287.5" font-family="Verdana" font-size="10.00">SelectionCriterionType.h</text>
</a>
</g>
</g>
<!-- Node18&#45;&gt;Node19 -->
<g id="edge32" class="edge"><title>Node18&#45;&gt;Node19</title>
<path fill="none" stroke="midnightblue" d="M400.011,-336.083C400.011,-329.006 400.011,-318.861 400.011,-309.986"/>
<polygon fill="midnightblue" stroke="midnightblue" points="403.511,-309.751 400.011,-299.751 396.511,-309.751 403.511,-309.751"/>
</g>
<!-- Node22 -->
<g id="node22" class="node"><title>Node22</title>
<g id="a_node22"><a xlink:href="SelectionCriterionInterface_8h.html" target="_top" xlink:title="SelectionCriterionInterface.h">
<polygon fill="white" stroke="black" points="115.011,-280.5 115.011,-299.5 267.011,-299.5 267.011,-280.5 115.011,-280.5"/>
<text text-anchor="middle" x="191.011" y="-287.5" font-family="Verdana" font-size="10.00">SelectionCriterionInterface.h</text>
</a>
</g>
</g>
<!-- Node18&#45;&gt;Node22 -->
<g id="edge38" class="edge"><title>Node18&#45;&gt;Node22</title>
<path fill="none" stroke="midnightblue" d="M366.894,-336.444C330.893,-327.142 273.241,-312.246 233.825,-302.062"/>
<polygon fill="midnightblue" stroke="midnightblue" points="234.53,-298.629 223.973,-299.516 232.779,-305.407 234.53,-298.629"/>
</g>
<!-- Node18&#45;&gt;Node23 -->
<g id="edge41" class="edge"><title>Node18&#45;&gt;Node23</title>
<path fill="none" stroke="midnightblue" d="M422.987,-336.444C447.168,-327.438 485.429,-313.189 512.657,-303.049"/>
<polygon fill="midnightblue" stroke="midnightblue" points="513.993,-306.286 522.143,-299.516 511.55,-299.727 513.993,-306.286"/>
</g>
<!-- Node19&#45;&gt;Node4 -->
<g id="edge35" class="edge"><title>Node19&#45;&gt;Node4</title>
<path fill="none" stroke="midnightblue" d="M397.583,-280.24C392.67,-261.711 382.011,-217.122 382.011,-179 382.011,-179 382.011,-179 382.011,-121 382.011,-71.6587 425.615,-72.7915 472.011,-56 587.723,-14.122 975.85,-10.9139 1090.72,-10.9024"/>
<polygon fill="midnightblue" stroke="midnightblue" points="1090.96,-14.4024 1100.97,-10.91 1090.97,-7.40244 1090.96,-14.4024"/>
</g>
<!-- Node19&#45;&gt;Node10 -->
<g id="edge33" class="edge"><title>Node19&#45;&gt;Node10</title>
<path fill="none" stroke="midnightblue" d="M465.62,-281.857C568.846,-270.619 766.349,-249.116 853.217,-239.659"/>
<polygon fill="midnightblue" stroke="midnightblue" points="853.686,-243.129 863.248,-238.567 852.928,-236.17 853.686,-243.129"/>
</g>
<!-- Node19&#45;&gt;Node20 -->
<g id="edge34" class="edge"><title>Node19&#45;&gt;Node20</title>
<path fill="none" stroke="midnightblue" d="M393.82,-280.413C387.332,-271.387 376.871,-256.754 368.011,-244 350.85,-219.298 345.294,-213.906 330.011,-188 320.878,-172.518 311.721,-154.207 305.378,-140.972"/>
<polygon fill="midnightblue" stroke="midnightblue" points="308.385,-139.144 300.949,-131.597 302.056,-142.134 308.385,-139.144"/>
</g>
<!-- Node21 -->
<g id="node21" class="node"><title>Node21</title>
<g id="a_node21"><a xlink:href="SelectionCriterionTypeInterface_8h.html" target="_top" xlink:title="SelectionCriterionTypeInterface.h">
<polygon fill="white" stroke="black" points="104.511,-224.5 104.511,-243.5 277.511,-243.5 277.511,-224.5 104.511,-224.5"/>
<text text-anchor="middle" x="191.011" y="-231.5" font-family="Verdana" font-size="10.00">SelectionCriterionTypeInterface.h</text>
</a>
</g>
</g>
<!-- Node19&#45;&gt;Node21 -->
<g id="edge36" class="edge"><title>Node19&#45;&gt;Node21</title>
<path fill="none" stroke="midnightblue" d="M366.894,-280.444C330.893,-271.142 273.241,-256.246 233.825,-246.062"/>
<polygon fill="midnightblue" stroke="midnightblue" points="234.53,-242.629 223.973,-243.516 232.779,-249.407 234.53,-242.629"/>
</g>
<!-- Node21&#45;&gt;Node4 -->
<g id="edge37" class="edge"><title>Node21&#45;&gt;Node4</title>
<path fill="none" stroke="midnightblue" d="M194.769,-224.383C204.416,-203.053 231.931,-146.996 269.011,-112 305.774,-77.3026 319.529,-70.3176 368.011,-56 506.59,-15.0747 964.914,-11.2576 1090.78,-10.9921"/>
<polygon fill="midnightblue" stroke="midnightblue" points="1090.93,-14.492 1100.93,-10.9771 1090.92,-7.49198 1090.93,-14.492"/>
</g>
<!-- Node22&#45;&gt;Node4 -->
<g id="edge39" class="edge"><title>Node22&#45;&gt;Node4</title>
<path fill="none" stroke="midnightblue" d="M154.038,-280.451C121.364,-270.848 80.9182,-252.733 95.0109,-224 148.721,-114.493 197.736,-98.6377 312.011,-56 385.809,-28.4649 948.551,-14.7157 1090.55,-11.6628"/>
<polygon fill="midnightblue" stroke="midnightblue" points="1090.85,-15.1573 1100.78,-11.4459 1090.7,-8.15883 1090.85,-15.1573"/>
</g>
<!-- Node22&#45;&gt;Node21 -->
<g id="edge40" class="edge"><title>Node22&#45;&gt;Node21</title>
<path fill="none" stroke="midnightblue" d="M191.011,-280.083C191.011,-273.006 191.011,-262.861 191.011,-253.986"/>
<polygon fill="midnightblue" stroke="midnightblue" points="194.511,-253.751 191.011,-243.751 187.511,-253.751 194.511,-253.751"/>
</g>
<!-- Node23&#45;&gt;Node5 -->
<g id="edge56" class="edge"><title>Node23&#45;&gt;Node5</title>
<path fill="none" stroke="midnightblue" d="M530.929,-280.288C504.46,-263.665 445.909,-225.704 401.011,-188 364.43,-157.28 362.764,-141.267 325.011,-112 277.561,-75.2154 215.546,-41.7433 180.734,-24.0961"/>
<polygon fill="midnightblue" stroke="midnightblue" points="182.178,-20.9052 171.671,-19.5488 179.039,-27.1618 182.178,-20.9052"/>
</g>
<!-- Node24 -->
<g id="node24" class="node"><title>Node24</title>
<g id="a_node24"><a xlink:href="ILogger_8h.html" target="_top" xlink:title="log/ILogger.h">
<polygon fill="white" stroke="black" points="410.511,-168.5 410.511,-187.5 487.511,-187.5 487.511,-168.5 410.511,-168.5"/>
<text text-anchor="middle" x="449.011" y="-175.5" font-family="Verdana" font-size="10.00">log/ILogger.h</text>
</a>
</g>
</g>
<!-- Node23&#45;&gt;Node24 -->
<g id="edge42" class="edge"><title>Node23&#45;&gt;Node24</title>
<path fill="none" stroke="midnightblue" d="M537.478,-280.368C521.495,-262.055 483.963,-219.049 463.291,-195.362"/>
<polygon fill="midnightblue" stroke="midnightblue" points="465.721,-192.824 456.509,-187.591 460.447,-197.427 465.721,-192.824"/>
</g>
<!-- Node25 -->
<g id="node25" class="node"><title>Node25</title>
<g id="a_node25"><a xlink:href="LogWrapper_8h.html" target="_top" xlink:title="log/LogWrapper.h">
<polygon fill="white" stroke="black" points="521.011,-224.5 521.011,-243.5 619.011,-243.5 619.011,-224.5 521.011,-224.5"/>
<text text-anchor="middle" x="570.011" y="-231.5" font-family="Verdana" font-size="10.00">log/LogWrapper.h</text>
</a>
</g>
</g>
<!-- Node23&#45;&gt;Node25 -->
<g id="edge44" class="edge"><title>Node23&#45;&gt;Node25</title>
<path fill="none" stroke="midnightblue" d="M549.139,-280.083C552.525,-272.77 557.427,-262.181 561.63,-253.103"/>
<polygon fill="midnightblue" stroke="midnightblue" points="564.934,-254.296 565.959,-243.751 558.582,-251.355 564.934,-254.296"/>
</g>
<!-- Node24&#45;&gt;Node4 -->
<g id="edge43" class="edge"><title>Node24&#45;&gt;Node4</title>
<path fill="none" stroke="midnightblue" d="M449.245,-168.456C450.376,-145.763 456.884,-83.821 494.011,-56 542.008,-20.0334 968.726,-12.6685 1090.62,-11.2932"/>
<polygon fill="midnightblue" stroke="midnightblue" points="1090.85,-14.7911 1100.81,-11.1844 1090.77,-7.79152 1090.85,-14.7911"/>
</g>
<!-- Node25&#45;&gt;Node4 -->
<g id="edge52" class="edge"><title>Node25&#45;&gt;Node4</title>
<path fill="none" stroke="midnightblue" d="M561.818,-224.292C543.014,-203.23 500.359,-148.576 527.011,-112 594.144,-19.8696 976.534,-11.3706 1090.78,-10.9089"/>
<polygon fill="midnightblue" stroke="midnightblue" points="1090.99,-14.4086 1100.98,-10.8868 1090.97,-7.40859 1090.99,-14.4086"/>
</g>
<!-- Node25&#45;&gt;Node24 -->
<g id="edge45" class="edge"><title>Node25&#45;&gt;Node24</title>
<path fill="none" stroke="midnightblue" d="M550.838,-224.444C531.102,-215.636 500.126,-201.812 477.518,-191.722"/>
<polygon fill="midnightblue" stroke="midnightblue" points="478.652,-188.396 468.094,-187.516 475.799,-194.788 478.652,-188.396"/>
</g>
<!-- Node26 -->
<g id="node26" class="node"><title>Node26</title>
<g id="a_node26"><a xlink:href="Utility_8h.html" target="_top" xlink:title="Utility.h">
<polygon fill="white" stroke="black" points="544.511,-168.5 544.511,-187.5 595.511,-187.5 595.511,-168.5 544.511,-168.5"/>
<text text-anchor="middle" x="570.011" y="-175.5" font-family="Verdana" font-size="10.00">Utility.h</text>
</a>
</g>
</g>
<!-- Node25&#45;&gt;Node26 -->
<g id="edge46" class="edge"><title>Node25&#45;&gt;Node26</title>
<path fill="none" stroke="midnightblue" d="M570.011,-224.083C570.011,-217.006 570.011,-206.861 570.011,-197.986"/>
<polygon fill="midnightblue" stroke="midnightblue" points="573.511,-197.751 570.011,-187.751 566.511,-197.751 573.511,-197.751"/>
</g>
<!-- Node25&#45;&gt;Node27 -->
<g id="edge55" class="edge"><title>Node25&#45;&gt;Node27</title>
<path fill="none" stroke="midnightblue" d="M619.296,-231.334C824.475,-224.346 1601.33,-197.324 1625.01,-188 1650.64,-177.911 1673.68,-155.368 1687.51,-139.679"/>
<polygon fill="midnightblue" stroke="midnightblue" points="1690.4,-141.681 1694.2,-131.791 1685.06,-137.154 1690.4,-141.681"/>
</g>
<!-- Node28 -->
<g id="node28" class="node"><title>Node28</title>
<polygon fill="white" stroke="#bfbfbf" points="648.011,-112.5 648.011,-131.5 704.011,-131.5 704.011,-112.5 648.011,-112.5"/>
<text text-anchor="middle" x="676.011" y="-119.5" font-family="Verdana" font-size="10.00">sstream</text>
</g>
<!-- Node25&#45;&gt;Node28 -->
<g id="edge53" class="edge"><title>Node25&#45;&gt;Node28</title>
<path fill="none" stroke="midnightblue" d="M618.377,-224.49C639.439,-218.139 662.199,-207.108 675.011,-188 684.037,-174.538 683.251,-155.725 680.821,-141.8"/>
<polygon fill="midnightblue" stroke="midnightblue" points="684.21,-140.912 678.676,-131.877 677.368,-142.391 684.21,-140.912"/>
</g>
<!-- Node30 -->
<g id="node30" class="node"><title>Node30</title>
<polygon fill="white" stroke="#bfbfbf" points="614.011,-168.5 614.011,-187.5 666.011,-187.5 666.011,-168.5 614.011,-168.5"/>
<text text-anchor="middle" x="640.011" y="-175.5" font-family="Verdana" font-size="10.00">iterator</text>
</g>
<!-- Node25&#45;&gt;Node30 -->
<g id="edge54" class="edge"><title>Node25&#45;&gt;Node30</title>
<path fill="none" stroke="midnightblue" d="M581.258,-224.324C591.808,-216.185 607.812,-203.839 620.453,-194.087"/>
<polygon fill="midnightblue" stroke="midnightblue" points="622.78,-196.713 628.56,-187.834 618.504,-191.171 622.78,-196.713"/>
</g>
<!-- Node26&#45;&gt;Node4 -->
<g id="edge47" class="edge"><title>Node26&#45;&gt;Node4</title>
<path fill="none" stroke="midnightblue" d="M577.325,-168.438C589.168,-154.991 613.772,-128.732 639.011,-112 690.427,-77.9139 706.563,-72.4746 766.011,-56 882.673,-23.6696 1027.28,-14.5003 1090.68,-11.953"/>
<polygon fill="midnightblue" stroke="midnightblue" points="1090.98,-15.4442 1100.84,-11.5742 1090.72,-8.44909 1090.98,-15.4442"/>
</g>
<!-- Node26&#45;&gt;Node20 -->
<g id="edge49" class="edge"><title>Node26&#45;&gt;Node20</title>
<path fill="none" stroke="midnightblue" d="M544.328,-171.92C493.308,-161.828 379.505,-139.318 325.94,-128.722"/>
<polygon fill="midnightblue" stroke="midnightblue" points="326.556,-125.276 316.067,-126.769 325.198,-132.143 326.556,-125.276"/>
</g>
<!-- Node26&#45;&gt;Node27 -->
<g id="edge48" class="edge"><title>Node26&#45;&gt;Node27</title>
<path fill="none" stroke="midnightblue" d="M595.88,-169.7C598.939,-169.03 602.032,-168.439 605.011,-168 821.451,-136.093 1532.24,-125.211 1675.66,-123.316"/>
<polygon fill="midnightblue" stroke="midnightblue" points="1675.74,-126.815 1685.69,-123.186 1675.65,-119.816 1675.74,-126.815"/>
</g>
<!-- Node26&#45;&gt;Node28 -->
<g id="edge50" class="edge"><title>Node26&#45;&gt;Node28</title>
<path fill="none" stroke="midnightblue" d="M587.042,-168.324C604.041,-159.664 630.387,-146.242 650.004,-136.249"/>
<polygon fill="midnightblue" stroke="midnightblue" points="651.701,-139.312 659.022,-131.655 648.523,-133.075 651.701,-139.312"/>
</g>
<!-- Node29 -->
<g id="node29" class="node"><title>Node29</title>
<polygon fill="white" stroke="#bfbfbf" points="536.011,-112.5 536.011,-131.5 592.011,-131.5 592.011,-112.5 536.011,-112.5"/>
<text text-anchor="middle" x="564.011" y="-119.5" font-family="Verdana" font-size="10.00">numeric</text>
</g>
<!-- Node26&#45;&gt;Node29 -->
<g id="edge51" class="edge"><title>Node26&#45;&gt;Node29</title>
<path fill="none" stroke="midnightblue" d="M569.02,-168.083C568.225,-160.927 567.081,-150.635 566.088,-141.691"/>
<polygon fill="midnightblue" stroke="midnightblue" points="569.566,-141.303 564.983,-131.751 562.609,-142.076 569.566,-141.303"/>
</g>
<!-- Node31&#45;&gt;Node4 -->
<g id="edge75" class="edge"><title>Node31&#45;&gt;Node4</title>
<path fill="none" stroke="midnightblue" d="M1389.6,-392.198C1381.02,-383.689 1368.56,-370.053 1361.01,-356 1346.77,-329.484 1342.01,-321.098 1342.01,-291 1342.01,-291 1342.01,-291 1342.01,-121 1342.01,-90.2048 1341.12,-76.3509 1318.01,-56 1294.08,-34.93 1204.24,-20.942 1155.29,-14.7111"/>
<polygon fill="midnightblue" stroke="midnightblue" points="1155.57,-11.2194 1145.22,-13.4651 1154.71,-18.1665 1155.57,-11.2194"/>
</g>
<!-- Node31&#45;&gt;Node23 -->
<g id="edge73" class="edge"><title>Node31&#45;&gt;Node23</title>
<path fill="none" stroke="midnightblue" d="M1354.89,-395.318C1209.3,-376.564 744.765,-316.729 593.281,-297.217"/>
<polygon fill="midnightblue" stroke="midnightblue" points="593.289,-293.69 582.924,-295.883 592.394,-300.632 593.289,-293.69"/>
</g>
<!-- Node31&#45;&gt;Node27 -->
<g id="edge74" class="edge"><title>Node31&#45;&gt;Node27</title>
<path fill="none" stroke="midnightblue" d="M1443.06,-400.491C1480.85,-397.709 1534.39,-387.834 1568.01,-356 1612.82,-313.58 1571.29,-271.215 1611.01,-224 1633.03,-197.832 1656.85,-214.041 1679.01,-188 1690.22,-174.828 1695.79,-155.69 1698.51,-141.589"/>
<polygon fill="midnightblue" stroke="midnightblue" points="1701.99,-142.003 1700.14,-131.571 1695.08,-140.881 1701.99,-142.003"/>
</g>
<!-- Node32 -->
<g id="node32" class="node"><title>Node32</title>
<g id="a_node32"><a xlink:href="ConfigurableElement_8h.html" target="_top" xlink:title="ConfigurableElement.h">
<polygon fill="white" stroke="black" points="1150.51,-280.5 1150.51,-299.5 1275.51,-299.5 1275.51,-280.5 1150.51,-280.5"/>
<text text-anchor="middle" x="1213.01" y="-287.5" font-family="Verdana" font-size="10.00">ConfigurableElement.h</text>
</a>
</g>
</g>
<!-- Node31&#45;&gt;Node32 -->
<g id="edge61" class="edge"><title>Node31&#45;&gt;Node32</title>
<path fill="none" stroke="midnightblue" d="M1384.42,-392.368C1352.36,-373.412 1275.58,-328.001 1236.59,-304.942"/>
<polygon fill="midnightblue" stroke="midnightblue" points="1237.93,-301.669 1227.54,-299.591 1234.36,-307.694 1237.93,-301.669"/>
</g>
<!-- Node33 -->
<g id="node33" class="node"><title>Node33</title>
<g id="a_node33"><a xlink:href="SubsystemPlugins_8h.html" target="_top" xlink:title="SubsystemPlugins.h">
<polygon fill="white" stroke="black" points="1445.51,-336.5 1445.51,-355.5 1558.51,-355.5 1558.51,-336.5 1445.51,-336.5"/>
<text text-anchor="middle" x="1502.01" y="-343.5" font-family="Verdana" font-size="10.00">SubsystemPlugins.h</text>
</a>
</g>
</g>
<!-- Node31&#45;&gt;Node33 -->
<g id="edge65" class="edge"><title>Node31&#45;&gt;Node33</title>
<path fill="none" stroke="midnightblue" d="M1415.56,-392.324C1432,-383.703 1457.45,-370.364 1476.48,-360.386"/>
<polygon fill="midnightblue" stroke="midnightblue" points="1478.27,-363.398 1485.5,-355.655 1475.02,-357.198 1478.27,-363.398"/>
</g>
<!-- Node31&#45;&gt;Node35 -->
<g id="edge70" class="edge"><title>Node31&#45;&gt;Node35</title>
<path fill="none" stroke="midnightblue" d="M1443.21,-395.625C1529.76,-385.097 1720.4,-361.912 1803.26,-351.835"/>
<polygon fill="midnightblue" stroke="midnightblue" points="1803.77,-355.298 1813.28,-350.616 1802.93,-348.349 1803.77,-355.298"/>
</g>
<!-- Node36 -->
<g id="node36" class="node"><title>Node36</title>
<polygon fill="white" stroke="#bfbfbf" points="1370.51,-336.5 1370.51,-355.5 1427.51,-355.5 1427.51,-336.5 1370.51,-336.5"/>
<text text-anchor="middle" x="1399.01" y="-343.5" font-family="Verdana" font-size="10.00">memory</text>
</g>
<!-- Node31&#45;&gt;Node36 -->
<g id="edge76" class="edge"><title>Node31&#45;&gt;Node36</title>
<path fill="none" stroke="midnightblue" d="M1399.01,-392.083C1399.01,-385.006 1399.01,-374.861 1399.01,-365.986"/>
<polygon fill="midnightblue" stroke="midnightblue" points="1402.51,-365.751 1399.01,-355.751 1395.51,-365.751 1402.51,-365.751"/>
</g>
<!-- Node32&#45;&gt;Node10 -->
<g id="edge63" class="edge"><title>Node32&#45;&gt;Node10</title>
<path fill="none" stroke="midnightblue" d="M1162.78,-280.444C1100.86,-269.895 996.698,-252.152 938.543,-242.245"/>
<polygon fill="midnightblue" stroke="midnightblue" points="939.03,-238.778 928.584,-240.549 937.854,-245.678 939.03,-238.778"/>
</g>
<!-- Node32&#45;&gt;Node11 -->
<g id="edge62" class="edge"><title>Node32&#45;&gt;Node11</title>
<path fill="none" stroke="midnightblue" d="M1210.5,-280.368C1205.31,-262.537 1193.31,-221.295 1186.33,-197.272"/>
<polygon fill="midnightblue" stroke="midnightblue" points="1189.66,-196.216 1183.51,-187.591 1182.94,-198.171 1189.66,-196.216"/>
</g>
<!-- Node32&#45;&gt;Node27 -->
<g id="edge64" class="edge"><title>Node32&#45;&gt;Node27</title>
<path fill="none" stroke="midnightblue" d="M1274.44,-280.492C1380.62,-264.893 1593.03,-229.481 1655.01,-188 1672.37,-176.38 1685.27,-155.827 1692.92,-140.938"/>
<polygon fill="midnightblue" stroke="midnightblue" points="1696.17,-142.242 1697.37,-131.714 1689.87,-139.2 1696.17,-142.242"/>
</g>
<!-- Node33&#45;&gt;Node4 -->
<g id="edge69" class="edge"><title>Node33&#45;&gt;Node4</title>
<path fill="none" stroke="midnightblue" d="M1498.34,-336.196C1478.33,-288.277 1383.15,-60.8522 1377.01,-56 1343.12,-29.21 1216.07,-17.2421 1155.51,-12.9706"/>
<polygon fill="midnightblue" stroke="midnightblue" points="1155.57,-9.46664 1145.35,-12.2829 1155.09,-16.4506 1155.57,-9.46664"/>
</g>
<!-- Node34 -->
<g id="node34" class="node"><title>Node34</title>
<g id="a_node34"><a xlink:href="KindElement_8h.html" target="_top" xlink:title="KindElement.h">
<polygon fill="white" stroke="black" points="1370.01,-280.5 1370.01,-299.5 1456.01,-299.5 1456.01,-280.5 1370.01,-280.5"/>
<text text-anchor="middle" x="1413.01" y="-287.5" font-family="Verdana" font-size="10.00">KindElement.h</text>
</a>
</g>
</g>
<!-- Node33&#45;&gt;Node34 -->
<g id="edge66" class="edge"><title>Node33&#45;&gt;Node34</title>
<path fill="none" stroke="midnightblue" d="M1487.71,-336.324C1473.83,-327.9 1452.52,-314.971 1436.21,-305.074"/>
<polygon fill="midnightblue" stroke="midnightblue" points="1437.64,-301.85 1427.27,-299.655 1434.01,-307.834 1437.64,-301.85"/>
</g>
<!-- Node34&#45;&gt;Node4 -->
<g id="edge68" class="edge"><title>Node34&#45;&gt;Node4</title>
<path fill="none" stroke="midnightblue" d="M1412.15,-280.496C1408.1,-242.431 1389.79,-88.1604 1356.01,-56 1327.63,-28.9788 1212.76,-17.2674 1155.62,-13.0335"/>
<polygon fill="midnightblue" stroke="midnightblue" points="1155.55,-9.52006 1145.33,-12.306 1155.06,-16.5026 1155.55,-9.52006"/>
</g>
<!-- Node34&#45;&gt;Node10 -->
<g id="edge67" class="edge"><title>Node34&#45;&gt;Node10</title>
<path fill="none" stroke="midnightblue" d="M1369.82,-284.489C1272.3,-274.302 1035.98,-249.619 938.818,-239.471"/>
<polygon fill="midnightblue" stroke="midnightblue" points="939.074,-235.979 928.765,-238.421 938.347,-242.941 939.074,-235.979"/>
</g>
<!-- Node35&#45;&gt;Node4 -->
<g id="edge72" class="edge"><title>Node35&#45;&gt;Node4</title>
<path fill="none" stroke="midnightblue" d="M1855.51,-336.313C1878.01,-319.544 1923.01,-280.338 1923.01,-235 1923.01,-235 1923.01,-235 1923.01,-121 1923.01,-42.5949 1835.46,-73.4157 1759.01,-56 1642.17,-29.3821 1268.03,-15.5999 1155.39,-11.9816"/>
<polygon fill="midnightblue" stroke="midnightblue" points="1155.43,-8.48123 1145.33,-11.6631 1155.21,-15.4777 1155.43,-8.48123"/>
</g>
<!-- Node35&#45;&gt;Node27 -->
<g id="edge71" class="edge"><title>Node35&#45;&gt;Node27</title>
<path fill="none" stroke="midnightblue" d="M1844.5,-336.407C1845.99,-327.376 1848.17,-312.74 1849.01,-300 1851.32,-265.149 1847.82,-253.431 1829.01,-224 1802.99,-183.283 1754.76,-151.959 1725.51,-135.605"/>
<polygon fill="midnightblue" stroke="midnightblue" points="1726.83,-132.341 1716.37,-130.641 1723.49,-138.492 1726.83,-132.341"/>
</g>
<!-- Node37&#45;&gt;Node4 -->
<g id="edge80" class="edge"><title>Node37&#45;&gt;Node4</title>
<path fill="none" stroke="midnightblue" d="M1787.3,-280.496C1822,-265.632 1885.01,-231.426 1885.01,-179 1885.01,-179 1885.01,-179 1885.01,-121 1885.01,-46.1017 1300.87,-18.0331 1155.48,-12.2069"/>
<polygon fill="midnightblue" stroke="midnightblue" points="1155.53,-8.70644 1145.4,-11.8109 1155.26,-15.701 1155.53,-8.70644"/>
</g>
<!-- Node37&#45;&gt;Node7 -->
<g id="edge79" class="edge"><title>Node37&#45;&gt;Node7</title>
<path fill="none" stroke="midnightblue" d="M1760.22,-280.083C1756.25,-272.691 1750.49,-261.953 1745.58,-252.811"/>
<polygon fill="midnightblue" stroke="midnightblue" points="1748.53,-250.905 1740.71,-243.751 1742.36,-254.217 1748.53,-250.905"/>
</g>
<!-- Node38&#45;&gt;Node35 -->
<g id="edge82" class="edge"><title>Node38&#45;&gt;Node35</title>
<path fill="none" stroke="midnightblue" d="M1843.01,-448.368C1843.01,-430.617 1843.01,-389.666 1843.01,-365.597"/>
<polygon fill="midnightblue" stroke="midnightblue" points="1846.51,-365.591 1843.01,-355.591 1839.51,-365.591 1846.51,-365.591"/>
</g>
<!-- Node38&#45;&gt;Node39 -->
<g id="edge83" class="edge"><title>Node38&#45;&gt;Node39</title>
<path fill="none" stroke="midnightblue" d="M1834.42,-448.083C1826.85,-440.22 1815.63,-428.569 1806.5,-419.081"/>
<polygon fill="midnightblue" stroke="midnightblue" points="1808.9,-416.527 1799.44,-411.751 1803.85,-421.382 1808.9,-416.527"/>
</g>
</g>
</svg>
