<?xml version="1.0" encoding="UTF-8" standalone="no"?>
<!DOCTYPE svg PUBLIC "-//W3C//DTD SVG 1.1//EN"
 "http://www.w3.org/Graphics/SVG/1.1/DTD/svg11.dtd">
<!-- Generated by graphviz version 2.38.0 (20140413.2041)
 -->
<!-- Title: parameter/ConfigurableDomains.cpp Pages: 1 -->
<svg width="1573pt" height="532pt"
 viewBox="0.00 0.00 1572.50 532.00" xmlns="http://www.w3.org/2000/svg" xmlns:xlink="http://www.w3.org/1999/xlink">
<g id="graph0" class="graph" transform="scale(1 1) rotate(0) translate(4 528)">
<title>parameter/ConfigurableDomains.cpp</title>
<polygon fill="white" stroke="none" points="-4,4 -4,-528 1568.5,-528 1568.5,4 -4,4"/>
<!-- Node1 -->
<g id="node1" class="node"><title>Node1</title>
<polygon fill="#bfbfbf" stroke="black" points="268,-504.5 268,-523.5 462,-523.5 462,-504.5 268,-504.5"/>
<text text-anchor="middle" x="365" y="-511.5" font-family="Verdana" font-size="10.00">parameter/ConfigurableDomains.cpp</text>
</g>
<!-- Node2 -->
<g id="node2" class="node"><title>Node2</title>
<polygon fill="white" stroke="#bfbfbf" points="0,-448.5 0,-467.5 52,-467.5 52,-448.5 0,-448.5"/>
<text text-anchor="middle" x="26" y="-455.5" font-family="Verdana" font-size="10.00">cassert</text>
</g>
<!-- Node1&#45;&gt;Node2 -->
<g id="edge1" class="edge"><title>Node1&#45;&gt;Node2</title>
<path fill="none" stroke="midnightblue" d="M299.151,-504.476C238.415,-496.285 145.844,-482.971 66,-468 64.7407,-467.764 63.4607,-467.516 62.1692,-467.261"/>
<polygon fill="midnightblue" stroke="midnightblue" points="62.6986,-463.796 52.1942,-465.177 61.2673,-470.648 62.6986,-463.796"/>
</g>
<!-- Node3 -->
<g id="node3" class="node"><title>Node3</title>
<g id="a_node3"><a xlink:href="ConfigurableDomains_8h.html" target="_top" xlink:title="ConfigurableDomains.h">
<polygon fill="white" stroke="black" points="195,-280.5 195,-299.5 323,-299.5 323,-280.5 195,-280.5"/>
<text text-anchor="middle" x="259" y="-287.5" font-family="Verdana" font-size="10.00">ConfigurableDomains.h</text>
</a>
</g>
</g>
<!-- Node1&#45;&gt;Node3 -->
<g id="edge2" class="edge"><title>Node1&#45;&gt;Node3</title>
<path fill="none" stroke="midnightblue" d="M360.845,-504.297C345.149,-471.425 289.268,-354.391 267.638,-309.09"/>
<polygon fill="midnightblue" stroke="midnightblue" points="270.709,-307.4 263.242,-299.884 264.392,-310.416 270.709,-307.4"/>
</g>
<!-- Node15 -->
<g id="node15" class="node"><title>Node15</title>
<g id="a_node15"><a xlink:href="BinaryStream_8h.html" target="_top" xlink:title="BinaryStream.h">
<polygon fill="white" stroke="black" points="137,-168.5 137,-187.5 229,-187.5 229,-168.5 137,-168.5"/>
<text text-anchor="middle" x="183" y="-175.5" font-family="Verdana" font-size="10.00">BinaryStream.h</text>
</a>
</g>
</g>
<!-- Node1&#45;&gt;Node15 -->
<g id="edge74" class="edge"><title>Node1&#45;&gt;Node15</title>
<path fill="none" stroke="midnightblue" d="M315.682,-504.454C234.111,-488.905 80,-452.921 80,-403 80,-403 80,-403 80,-289 80,-258.902 80.0353,-247.371 99,-224 111.026,-209.18 129.27,-198.579 145.687,-191.404"/>
<polygon fill="midnightblue" stroke="midnightblue" points="147.146,-194.589 155.081,-187.569 144.5,-188.108 147.146,-194.589"/>
</g>
<!-- Node18 -->
<g id="node18" class="node"><title>Node18</title>
<g id="a_node18"><a xlink:href="ConfigurableDomain_8h.html" target="_top" xlink:title="ConfigurableDomain.h">
<polygon fill="white" stroke="black" points="473.5,-448.5 473.5,-467.5 596.5,-467.5 596.5,-448.5 473.5,-448.5"/>
<text text-anchor="middle" x="535" y="-455.5" font-family="Verdana" font-size="10.00">ConfigurableDomain.h</text>
</a>
</g>
</g>
<!-- Node1&#45;&gt;Node18 -->
<g id="edge30" class="edge"><title>Node1&#45;&gt;Node18</title>
<path fill="none" stroke="midnightblue" d="M391.937,-504.444C420.66,-495.32 466.329,-480.813 498.321,-470.651"/>
<polygon fill="midnightblue" stroke="midnightblue" points="499.718,-473.88 508.189,-467.516 497.599,-467.208 499.718,-473.88"/>
</g>
<!-- Node29 -->
<g id="node29" class="node"><title>Node29</title>
<g id="a_node29"><a xlink:href="ConfigurableElement_8h.html" target="_top" xlink:title="ConfigurableElement.h">
<polygon fill="white" stroke="black" points="511.5,-280.5 511.5,-299.5 636.5,-299.5 636.5,-280.5 511.5,-280.5"/>
<text text-anchor="middle" x="574" y="-287.5" font-family="Verdana" font-size="10.00">ConfigurableElement.h</text>
</a>
</g>
</g>
<!-- Node1&#45;&gt;Node29 -->
<g id="edge73" class="edge"><title>Node1&#45;&gt;Node29</title>
<path fill="none" stroke="midnightblue" d="M373.193,-504.297C404.531,-471.01 517.117,-351.421 558.552,-307.408"/>
<polygon fill="midnightblue" stroke="midnightblue" points="561.33,-309.564 565.636,-299.884 556.233,-304.766 561.33,-309.564"/>
</g>
<!-- Node33 -->
<g id="node33" class="node"><title>Node33</title>
<g id="a_node33"><a xlink:href="AutoLog_8h.html" target="_top" xlink:title="AutoLog.h">
<polygon fill="white" stroke="black" points="1499.5,-224.5 1499.5,-243.5 1564.5,-243.5 1564.5,-224.5 1499.5,-224.5"/>
<text text-anchor="middle" x="1532" y="-231.5" font-family="Verdana" font-size="10.00">AutoLog.h</text>
</a>
</g>
</g>
<!-- Node1&#45;&gt;Node33 -->
<g id="edge75" class="edge"><title>Node1&#45;&gt;Node33</title>
<path fill="none" stroke="midnightblue" d="M462.479,-513.861C740.934,-515.039 1520,-508.876 1520,-403 1520,-403 1520,-403 1520,-345 1520,-312.758 1525.16,-275.512 1528.71,-253.681"/>
<polygon fill="midnightblue" stroke="midnightblue" points="1532.21,-253.967 1530.43,-243.523 1525.31,-252.798 1532.21,-253.967"/>
</g>
<!-- Node4 -->
<g id="node4" class="node"><title>Node4</title>
<g id="a_node4"><a xlink:href="BinarySerializableElement_8h.html" target="_top" xlink:title="BinarySerializableElement.h">
<polygon fill="white" stroke="black" points="108,-224.5 108,-243.5 258,-243.5 258,-224.5 108,-224.5"/>
<text text-anchor="middle" x="183" y="-231.5" font-family="Verdana" font-size="10.00">BinarySerializableElement.h</text>
</a>
</g>
</g>
<!-- Node3&#45;&gt;Node4 -->
<g id="edge3" class="edge"><title>Node3&#45;&gt;Node4</title>
<path fill="none" stroke="midnightblue" d="M246.789,-280.324C235.224,-272.107 217.625,-259.602 203.839,-249.807"/>
<polygon fill="midnightblue" stroke="midnightblue" points="205.612,-246.773 195.433,-243.834 201.557,-252.479 205.612,-246.773"/>
</g>
<!-- Node6 -->
<g id="node6" class="node"><title>Node6</title>
<polygon fill="white" stroke="#bfbfbf" points="975,-0.5 975,-19.5 1019,-19.5 1019,-0.5 975,-0.5"/>
<text text-anchor="middle" x="997" y="-7.5" font-family="Verdana" font-size="10.00">string</text>
</g>
<!-- Node3&#45;&gt;Node6 -->
<g id="edge29" class="edge"><title>Node3&#45;&gt;Node6</title>
<path fill="none" stroke="midnightblue" d="M261.551,-280.097C272.386,-244.135 318.347,-108.995 411,-56 459.206,-28.4277 849.211,-15.2072 964.818,-11.8687"/>
<polygon fill="midnightblue" stroke="midnightblue" points="964.928,-15.3671 974.824,-11.5848 964.729,-8.36995 964.928,-15.3671"/>
</g>
<!-- Node9 -->
<g id="node9" class="node"><title>Node9</title>
<polygon fill="white" stroke="#bfbfbf" points="389,-112.5 389,-131.5 419,-131.5 419,-112.5 389,-112.5"/>
<text text-anchor="middle" x="404" y="-119.5" font-family="Verdana" font-size="10.00">list</text>
</g>
<!-- Node3&#45;&gt;Node9 -->
<g id="edge28" class="edge"><title>Node3&#45;&gt;Node9</title>
<path fill="none" stroke="midnightblue" d="M266.935,-280.44C275.249,-271.436 288.653,-256.822 300,-244 332.719,-207.029 370.289,-162.887 390.096,-139.48"/>
<polygon fill="midnightblue" stroke="midnightblue" points="392.989,-141.479 396.771,-131.582 387.643,-136.96 392.989,-141.479"/>
</g>
<!-- Node17 -->
<g id="node17" class="node"><title>Node17</title>
<polygon fill="white" stroke="#bfbfbf" points="352,-224.5 352,-243.5 384,-243.5 384,-224.5 352,-224.5"/>
<text text-anchor="middle" x="368" y="-231.5" font-family="Verdana" font-size="10.00">set</text>
</g>
<!-- Node3&#45;&gt;Node17 -->
<g id="edge27" class="edge"><title>Node3&#45;&gt;Node17</title>
<path fill="none" stroke="midnightblue" d="M276.513,-280.324C294.488,-271.419 322.627,-257.478 342.953,-247.408"/>
<polygon fill="midnightblue" stroke="midnightblue" points="344.545,-250.526 351.951,-242.951 341.437,-244.254 344.545,-250.526"/>
</g>
<!-- Node5 -->
<g id="node5" class="node"><title>Node5</title>
<g id="a_node5"><a xlink:href="Element_8h.html" target="_top" xlink:title="Element.h">
<polygon fill="white" stroke="black" points="835.5,-168.5 835.5,-187.5 900.5,-187.5 900.5,-168.5 835.5,-168.5"/>
<text text-anchor="middle" x="868" y="-175.5" font-family="Verdana" font-size="10.00">Element.h</text>
</a>
</g>
</g>
<!-- Node4&#45;&gt;Node5 -->
<g id="edge4" class="edge"><title>Node4&#45;&gt;Node5</title>
<path fill="none" stroke="midnightblue" d="M258.018,-228.349C408.68,-218.924 740.222,-197.738 824.981,-187.813"/>
<polygon fill="midnightblue" stroke="midnightblue" points="825.591,-191.263 835.064,-186.517 824.699,-184.32 825.591,-191.263"/>
</g>
<!-- Node4&#45;&gt;Node6 -->
<g id="edge26" class="edge"><title>Node4&#45;&gt;Node6</title>
<path fill="none" stroke="midnightblue" d="M196.565,-224.312C208.608,-216.082 226.092,-202.805 238,-188 279.235,-136.734 250.077,-92.2213 305,-56 360.538,-19.3732 836.055,-12.4478 964.909,-11.2393"/>
<polygon fill="midnightblue" stroke="midnightblue" points="964.969,-14.739 974.938,-11.1504 964.907,-7.73926 964.969,-14.739"/>
</g>
<!-- Node4&#45;&gt;Node15 -->
<g id="edge22" class="edge"><title>Node4&#45;&gt;Node15</title>
<path fill="none" stroke="midnightblue" d="M183,-224.083C183,-217.006 183,-206.861 183,-197.986"/>
<polygon fill="midnightblue" stroke="midnightblue" points="186.5,-197.751 183,-187.751 179.5,-197.751 186.5,-197.751"/>
</g>
<!-- Node5&#45;&gt;Node6 -->
<g id="edge5" class="edge"><title>Node5&#45;&gt;Node6</title>
<path fill="none" stroke="midnightblue" d="M875.969,-168.202C883.996,-159.249 896.64,-144.895 907,-132 936.096,-95.7836 968.097,-51.6391 984.997,-27.9574"/>
<polygon fill="midnightblue" stroke="midnightblue" points="987.944,-29.8527 990.886,-19.6747 982.239,-25.7962 987.944,-29.8527"/>
</g>
<!-- Node7 -->
<g id="node7" class="node"><title>Node7</title>
<polygon fill="white" stroke="#bfbfbf" points="1062.5,-56.5 1062.5,-75.5 1109.5,-75.5 1109.5,-56.5 1062.5,-56.5"/>
<text text-anchor="middle" x="1086" y="-63.5" font-family="Verdana" font-size="10.00">vector</text>
</g>
<!-- Node5&#45;&gt;Node7 -->
<g id="edge6" class="edge"><title>Node5&#45;&gt;Node7</title>
<path fill="none" stroke="midnightblue" d="M900.563,-172.815C960.153,-164.828 1081.79,-146.884 1094,-132 1104.68,-118.986 1100.33,-99.2823 1094.76,-84.9808"/>
<polygon fill="midnightblue" stroke="midnightblue" points="1097.91,-83.4482 1090.69,-75.6947 1091.5,-86.2586 1097.91,-83.4482"/>
</g>
<!-- Node8 -->
<g id="node8" class="node"><title>Node8</title>
<polygon fill="white" stroke="#bfbfbf" points="434.5,-0.5 434.5,-19.5 487.5,-19.5 487.5,-0.5 434.5,-0.5"/>
<text text-anchor="middle" x="461" y="-7.5" font-family="Verdana" font-size="10.00">stdint.h</text>
</g>
<!-- Node5&#45;&gt;Node8 -->
<g id="edge7" class="edge"><title>Node5&#45;&gt;Node8</title>
<path fill="none" stroke="midnightblue" d="M835.493,-169.749C832.293,-169.121 829.088,-168.526 826,-168 700.572,-146.651 650.236,-198.881 542,-132 502.701,-107.717 478.234,-56.4449 467.448,-29.0893"/>
<polygon fill="midnightblue" stroke="midnightblue" points="470.668,-27.7081 463.874,-19.5787 464.116,-30.1708 470.668,-27.7081"/>
</g>
<!-- Node5&#45;&gt;Node9 -->
<g id="edge8" class="edge"><title>Node5&#45;&gt;Node9</title>
<path fill="none" stroke="midnightblue" d="M835.054,-169.55C832.002,-168.978 828.949,-168.449 826,-168 652.604,-141.577 605.035,-166.181 433,-132 431.72,-131.746 430.417,-131.457 429.107,-131.141"/>
<polygon fill="midnightblue" stroke="midnightblue" points="429.77,-127.693 419.197,-128.373 427.886,-134.435 429.77,-127.693"/>
</g>
<!-- Node10 -->
<g id="node10" class="node"><title>Node10</title>
<g id="a_node10"><a xlink:href="XmlSink_8h.html" target="_top" xlink:title="XmlSink.h">
<polygon fill="white" stroke="black" points="739,-112.5 739,-131.5 803,-131.5 803,-112.5 739,-112.5"/>
<text text-anchor="middle" x="771" y="-119.5" font-family="Verdana" font-size="10.00">XmlSink.h</text>
</a>
</g>
</g>
<!-- Node5&#45;&gt;Node10 -->
<g id="edge9" class="edge"><title>Node5&#45;&gt;Node10</title>
<path fill="none" stroke="midnightblue" d="M852.415,-168.324C837.001,-159.743 813.188,-146.486 795.29,-136.522"/>
<polygon fill="midnightblue" stroke="midnightblue" points="796.986,-133.461 786.546,-131.655 793.581,-139.577 796.986,-133.461"/>
</g>
<!-- Node13 -->
<g id="node13" class="node"><title>Node13</title>
<g id="a_node13"><a xlink:href="XmlSource_8h.html" target="_top" xlink:title="XmlSource.h">
<polygon fill="white" stroke="black" points="821.5,-112.5 821.5,-131.5 898.5,-131.5 898.5,-112.5 821.5,-112.5"/>
<text text-anchor="middle" x="860" y="-119.5" font-family="Verdana" font-size="10.00">XmlSource.h</text>
</a>
</g>
</g>
<!-- Node5&#45;&gt;Node13 -->
<g id="edge15" class="edge"><title>Node5&#45;&gt;Node13</title>
<path fill="none" stroke="midnightblue" d="M866.679,-168.083C865.619,-160.927 864.094,-150.635 862.769,-141.691"/>
<polygon fill="midnightblue" stroke="midnightblue" points="866.224,-141.13 861.296,-131.751 859.3,-142.156 866.224,-141.13"/>
</g>
<!-- Node14 -->
<g id="node14" class="node"><title>Node14</title>
<g id="a_node14"><a xlink:href="PathNavigator_8h.html" target="_top" xlink:title="PathNavigator.h">
<polygon fill="white" stroke="black" points="993,-112.5 993,-131.5 1085,-131.5 1085,-112.5 993,-112.5"/>
<text text-anchor="middle" x="1039" y="-119.5" font-family="Verdana" font-size="10.00">PathNavigator.h</text>
</a>
</g>
</g>
<!-- Node5&#45;&gt;Node14 -->
<g id="edge18" class="edge"><title>Node5&#45;&gt;Node14</title>
<path fill="none" stroke="midnightblue" d="M895.095,-168.444C923.988,-159.32 969.925,-144.813 1002.11,-134.651"/>
<polygon fill="midnightblue" stroke="midnightblue" points="1003.55,-137.865 1012.03,-131.516 1001.44,-131.19 1003.55,-137.865"/>
</g>
<!-- Node11 -->
<g id="node11" class="node"><title>Node11</title>
<g id="a_node11"><a xlink:href="XmlElement_8h.html" target="_top" xlink:title="XmlElement.h">
<polygon fill="white" stroke="black" points="676.5,-56.5 676.5,-75.5 759.5,-75.5 759.5,-56.5 676.5,-56.5"/>
<text text-anchor="middle" x="718" y="-63.5" font-family="Verdana" font-size="10.00">XmlElement.h</text>
</a>
</g>
</g>
<!-- Node10&#45;&gt;Node11 -->
<g id="edge10" class="edge"><title>Node10&#45;&gt;Node11</title>
<path fill="none" stroke="midnightblue" d="M762.248,-112.083C754.53,-104.22 743.095,-92.5688 733.783,-83.0813"/>
<polygon fill="midnightblue" stroke="midnightblue" points="736.092,-80.4363 726.589,-75.7511 731.096,-85.3396 736.092,-80.4363"/>
</g>
<!-- Node12 -->
<g id="node12" class="node"><title>Node12</title>
<g id="a_node12"><a xlink:href="XmlSerializingContext_8h.html" target="_top" xlink:title="XmlSerializingContext.h">
<polygon fill="white" stroke="black" points="778,-56.5 778,-75.5 908,-75.5 908,-56.5 778,-56.5"/>
<text text-anchor="middle" x="843" y="-63.5" font-family="Verdana" font-size="10.00">XmlSerializingContext.h</text>
</a>
</g>
</g>
<!-- Node10&#45;&gt;Node12 -->
<g id="edge13" class="edge"><title>Node10&#45;&gt;Node12</title>
<path fill="none" stroke="midnightblue" d="M782.568,-112.324C793.42,-104.185 809.881,-91.8395 822.883,-82.0874"/>
<polygon fill="midnightblue" stroke="midnightblue" points="825.321,-84.6339 831.221,-75.8339 821.121,-79.0339 825.321,-84.6339"/>
</g>
<!-- Node11&#45;&gt;Node6 -->
<g id="edge12" class="edge"><title>Node11&#45;&gt;Node6</title>
<path fill="none" stroke="midnightblue" d="M759.769,-56.9157C815.828,-46.0656 914.2,-27.0257 964.852,-17.2221"/>
<polygon fill="midnightblue" stroke="midnightblue" points="965.752,-20.6131 974.904,-15.2766 964.421,-13.7407 965.752,-20.6131"/>
</g>
<!-- Node11&#45;&gt;Node8 -->
<g id="edge11" class="edge"><title>Node11&#45;&gt;Node8</title>
<path fill="none" stroke="midnightblue" d="M677.278,-56.4435C627.829,-46.0537 545.163,-28.6841 497.635,-18.6977"/>
<polygon fill="midnightblue" stroke="midnightblue" points="498.274,-15.2555 487.768,-16.6243 496.834,-22.1059 498.274,-15.2555"/>
</g>
<!-- Node12&#45;&gt;Node6 -->
<g id="edge14" class="edge"><title>Node12&#45;&gt;Node6</title>
<path fill="none" stroke="midnightblue" d="M867.402,-56.4435C893.804,-47.1858 936.009,-32.3866 965.04,-22.2066"/>
<polygon fill="midnightblue" stroke="midnightblue" points="966.434,-25.427 974.712,-18.8151 964.118,-18.8213 966.434,-25.427"/>
</g>
<!-- Node13&#45;&gt;Node11 -->
<g id="edge16" class="edge"><title>Node13&#45;&gt;Node11</title>
<path fill="none" stroke="midnightblue" d="M837.5,-112.444C813.923,-103.478 776.678,-89.314 750.036,-79.1827"/>
<polygon fill="midnightblue" stroke="midnightblue" points="750.986,-75.7995 740.395,-75.5164 748.498,-82.3424 750.986,-75.7995"/>
</g>
<!-- Node13&#45;&gt;Node12 -->
<g id="edge17" class="edge"><title>Node13&#45;&gt;Node12</title>
<path fill="none" stroke="midnightblue" d="M857.193,-112.083C854.915,-104.849 851.629,-94.4087 848.792,-85.3968"/>
<polygon fill="midnightblue" stroke="midnightblue" points="852.096,-84.2385 845.755,-75.7511 845.419,-86.3406 852.096,-84.2385"/>
</g>
<!-- Node14&#45;&gt;Node6 -->
<g id="edge20" class="edge"><title>Node14&#45;&gt;Node6</title>
<path fill="none" stroke="midnightblue" d="M1035.7,-112.368C1028.87,-94.4563 1013.01,-52.9233 1003.85,-28.9482"/>
<polygon fill="midnightblue" stroke="midnightblue" points="1007.12,-27.6851 1000.28,-19.5914 1000.58,-30.1821 1007.12,-27.6851"/>
</g>
<!-- Node14&#45;&gt;Node7 -->
<g id="edge19" class="edge"><title>Node14&#45;&gt;Node7</title>
<path fill="none" stroke="midnightblue" d="M1046.76,-112.083C1053.54,-104.298 1063.54,-92.8015 1071.76,-83.3665"/>
<polygon fill="midnightblue" stroke="midnightblue" points="1074.46,-85.592 1078.38,-75.7511 1069.18,-80.9963 1074.46,-85.592"/>
</g>
<!-- Node14&#45;&gt;Node8 -->
<g id="edge21" class="edge"><title>Node14&#45;&gt;Node8</title>
<path fill="none" stroke="midnightblue" d="M1026.89,-112.445C1005.74,-97.9996 960.183,-69.0723 917,-56 838.646,-32.2808 591.533,-17.614 497.664,-12.7753"/>
<polygon fill="midnightblue" stroke="midnightblue" points="497.677,-9.2715 487.512,-12.2597 497.322,-16.2625 497.677,-9.2715"/>
</g>
<!-- Node15&#45;&gt;Node6 -->
<g id="edge24" class="edge"><title>Node15&#45;&gt;Node6</title>
<path fill="none" stroke="midnightblue" d="M192.118,-168.211C200.882,-159.495 214.204,-145.524 224,-132 246.767,-100.57 234.093,-76.5736 267,-56 326.692,-18.681 830.777,-12.2496 964.53,-11.1968"/>
<polygon fill="midnightblue" stroke="midnightblue" points="964.94,-14.694 974.914,-11.1202 964.889,-7.6942 964.94,-14.694"/>
</g>
<!-- Node15&#45;&gt;Node8 -->
<g id="edge23" class="edge"><title>Node15&#45;&gt;Node8</title>
<path fill="none" stroke="midnightblue" d="M174.517,-168.234C166.946,-159.75 156.396,-146.131 152,-132 140.722,-95.7483 158.911,-76.2892 191,-56 229.143,-31.8831 359.302,-18.7821 423.949,-13.626"/>
<polygon fill="midnightblue" stroke="midnightblue" points="424.41,-17.1008 434.109,-12.8382 423.869,-10.1218 424.41,-17.1008"/>
</g>
<!-- Node16 -->
<g id="node16" class="node"><title>Node16</title>
<polygon fill="white" stroke="#bfbfbf" points="161,-112.5 161,-131.5 215,-131.5 215,-112.5 161,-112.5"/>
<text text-anchor="middle" x="188" y="-119.5" font-family="Verdana" font-size="10.00">fstream</text>
</g>
<!-- Node15&#45;&gt;Node16 -->
<g id="edge25" class="edge"><title>Node15&#45;&gt;Node16</title>
<path fill="none" stroke="midnightblue" d="M183.826,-168.083C184.481,-161.006 185.42,-150.861 186.242,-141.986"/>
<polygon fill="midnightblue" stroke="midnightblue" points="189.753,-142.031 187.19,-131.751 182.783,-141.386 189.753,-142.031"/>
</g>
<!-- Node18&#45;&gt;Node4 -->
<g id="edge31" class="edge"><title>Node18&#45;&gt;Node4</title>
<path fill="none" stroke="midnightblue" d="M473.466,-449.11C392.026,-435.036 251.163,-397.292 186,-300 176.972,-286.521 177.129,-267.71 179.007,-253.79"/>
<polygon fill="midnightblue" stroke="midnightblue" points="182.466,-254.325 180.739,-243.872 175.571,-253.12 182.466,-254.325"/>
</g>
<!-- Node18&#45;&gt;Node6 -->
<g id="edge72" class="edge"><title>Node18&#45;&gt;Node6</title>
<path fill="none" stroke="midnightblue" d="M596.776,-456.248C805.419,-452.901 1471,-435.303 1471,-347 1471,-347 1471,-347 1471,-289 1471,-176.134 1472.9,-102.368 1370,-56 1309.37,-28.6799 1108.68,-16.3318 1029.52,-12.4378"/>
<polygon fill="midnightblue" stroke="midnightblue" points="1029.33,-8.92528 1019.18,-11.9438 1029,-15.9173 1029.33,-8.92528"/>
</g>
<!-- Node18&#45;&gt;Node9 -->
<g id="edge69" class="edge"><title>Node18&#45;&gt;Node9</title>
<path fill="none" stroke="midnightblue" d="M532.873,-448.143C524.004,-412.01 487.948,-272.708 435,-168 429.97,-158.052 423.026,-147.756 416.986,-139.527"/>
<polygon fill="midnightblue" stroke="midnightblue" points="419.749,-137.379 410.919,-131.524 414.171,-141.607 419.749,-137.379"/>
</g>
<!-- Node18&#45;&gt;Node12 -->
<g id="edge32" class="edge"><title>Node18&#45;&gt;Node12</title>
<path fill="none" stroke="midnightblue" d="M596.828,-455.127C722.719,-449.628 997,-428.317 997,-347 997,-347 997,-347 997,-233 997,-159.203 914.189,-104.373 870.018,-80.3765"/>
<polygon fill="midnightblue" stroke="midnightblue" points="871.444,-77.1716 860.967,-75.5969 868.176,-83.3615 871.444,-77.1716"/>
</g>
<!-- Node18&#45;&gt;Node17 -->
<g id="edge70" class="edge"><title>Node18&#45;&gt;Node17</title>
<path fill="none" stroke="midnightblue" d="M513.263,-448.407C495.495,-440.673 470.397,-428.064 452,-412 405.53,-371.422 390.071,-358.337 370,-300 364.886,-285.137 364.743,-267.217 365.676,-253.959"/>
<polygon fill="midnightblue" stroke="midnightblue" points="369.189,-253.996 366.676,-243.704 362.222,-253.317 369.189,-253.996"/>
</g>
<!-- Node19 -->
<g id="node19" class="node"><title>Node19</title>
<g id="a_node19"><a xlink:href="XmlDomainImportContext_8h.html" target="_top" xlink:title="XmlDomainImportContext.h">
<polygon fill="white" stroke="black" points="666,-392.5 666,-411.5 816,-411.5 816,-392.5 666,-392.5"/>
<text text-anchor="middle" x="741" y="-399.5" font-family="Verdana" font-size="10.00">XmlDomainImportContext.h</text>
</a>
</g>
</g>
<!-- Node18&#45;&gt;Node19 -->
<g id="edge33" class="edge"><title>Node18&#45;&gt;Node19</title>
<path fill="none" stroke="midnightblue" d="M567.641,-448.444C603.05,-439.162 659.709,-424.309 698.553,-414.127"/>
<polygon fill="midnightblue" stroke="midnightblue" points="699.726,-417.438 708.511,-411.516 697.951,-410.667 699.726,-417.438"/>
</g>
<!-- Node25 -->
<g id="node25" class="node"><title>Node25</title>
<polygon fill="white" stroke="#bfbfbf" points="1369,-168.5 1369,-187.5 1407,-187.5 1407,-168.5 1369,-168.5"/>
<text text-anchor="middle" x="1388" y="-175.5" font-family="Verdana" font-size="10.00">map</text>
</g>
<!-- Node18&#45;&gt;Node25 -->
<g id="edge71" class="edge"><title>Node18&#45;&gt;Node25</title>
<path fill="none" stroke="midnightblue" d="M596.705,-455.577C793.437,-450.23 1393,-427.345 1393,-347 1393,-347 1393,-347 1393,-289 1393,-256.915 1390.85,-219.62 1389.37,-197.737"/>
<polygon fill="midnightblue" stroke="midnightblue" points="1392.85,-197.281 1388.65,-187.552 1385.86,-197.773 1392.85,-197.281"/>
</g>
<!-- Node32 -->
<g id="node32" class="node"><title>Node32</title>
<g id="a_node32"><a xlink:href="SyncerSet_8h.html" target="_top" xlink:title="SyncerSet.h">
<polygon fill="white" stroke="black" points="379.5,-280.5 379.5,-299.5 454.5,-299.5 454.5,-280.5 379.5,-280.5"/>
<text text-anchor="middle" x="417" y="-287.5" font-family="Verdana" font-size="10.00">SyncerSet.h</text>
</a>
</g>
</g>
<!-- Node18&#45;&gt;Node32 -->
<g id="edge65" class="edge"><title>Node18&#45;&gt;Node32</title>
<path fill="none" stroke="midnightblue" d="M516.935,-448.346C502.342,-440.576 482.139,-427.948 469,-412 443.291,-380.795 428.288,-334.966 421.467,-309.605"/>
<polygon fill="midnightblue" stroke="midnightblue" points="424.831,-308.63 418.969,-299.805 418.048,-310.36 424.831,-308.63"/>
</g>
<!-- Node19&#45;&gt;Node6 -->
<g id="edge64" class="edge"><title>Node19&#45;&gt;Node6</title>
<path fill="none" stroke="midnightblue" d="M805.604,-392.475C964.199,-369.876 1363.64,-302.22 1416,-188 1487.18,-32.7321 1138.96,-13.4835 1029.24,-11.2476"/>
<polygon fill="midnightblue" stroke="midnightblue" points="1029.16,-7.74577 1019.1,-11.0765 1029.04,-14.7448 1029.16,-7.74577"/>
</g>
<!-- Node20 -->
<g id="node20" class="node"><title>Node20</title>
<g id="a_node20"><a xlink:href="XmlDomainSerializingContext_8h.html" target="_top" xlink:title="XmlDomainSerializingContext.h">
<polygon fill="white" stroke="black" points="650.5,-168.5 650.5,-187.5 817.5,-187.5 817.5,-168.5 650.5,-168.5"/>
<text text-anchor="middle" x="734" y="-175.5" font-family="Verdana" font-size="10.00">XmlDomainSerializingContext.h</text>
</a>
</g>
</g>
<!-- Node19&#45;&gt;Node20 -->
<g id="edge34" class="edge"><title>Node19&#45;&gt;Node20</title>
<path fill="none" stroke="midnightblue" d="M740.726,-392.297C739.696,-359.633 736.045,-243.866 734.598,-197.957"/>
<polygon fill="midnightblue" stroke="midnightblue" points="738.094,-197.768 734.28,-187.884 731.097,-197.989 738.094,-197.768"/>
</g>
<!-- Node22 -->
<g id="node22" class="node"><title>Node22</title>
<g id="a_node22"><a xlink:href="SelectionCriteriaDefinition_8h.html" target="_top" xlink:title="SelectionCriteriaDefinition.h">
<polygon fill="white" stroke="black" points="768.5,-336.5 768.5,-355.5 917.5,-355.5 917.5,-336.5 768.5,-336.5"/>
<text text-anchor="middle" x="843" y="-343.5" font-family="Verdana" font-size="10.00">SelectionCriteriaDefinition.h</text>
</a>
</g>
</g>
<!-- Node19&#45;&gt;Node22 -->
<g id="edge39" class="edge"><title>Node19&#45;&gt;Node22</title>
<path fill="none" stroke="midnightblue" d="M757.388,-392.324C773.671,-383.703 798.867,-370.364 817.716,-360.386"/>
<polygon fill="midnightblue" stroke="midnightblue" points="819.452,-363.427 826.653,-355.655 816.177,-357.24 819.452,-363.427"/>
</g>
<!-- Node28 -->
<g id="node28" class="node"><title>Node28</title>
<g id="a_node28"><a xlink:href="SystemClass_8h.html" target="_top" xlink:title="SystemClass.h">
<polygon fill="white" stroke="black" points="625,-336.5 625,-355.5 713,-355.5 713,-336.5 625,-336.5"/>
<text text-anchor="middle" x="669" y="-343.5" font-family="Verdana" font-size="10.00">SystemClass.h</text>
</a>
</g>
</g>
<!-- Node19&#45;&gt;Node28 -->
<g id="edge53" class="edge"><title>Node19&#45;&gt;Node28</title>
<path fill="none" stroke="midnightblue" d="M729.432,-392.324C718.58,-384.185 702.119,-371.839 689.117,-362.087"/>
<polygon fill="midnightblue" stroke="midnightblue" points="690.879,-359.034 680.779,-355.834 686.679,-364.634 690.879,-359.034"/>
</g>
<!-- Node20&#45;&gt;Node6 -->
<g id="edge38" class="edge"><title>Node20&#45;&gt;Node6</title>
<path fill="none" stroke="midnightblue" d="M655.489,-168.481C608.964,-161.633 556.356,-150.11 542,-132 536.478,-125.034 537.427,-119.622 542,-112 586.089,-38.5182 868.696,-17.4908 964.949,-12.4209"/>
<polygon fill="midnightblue" stroke="midnightblue" points="965.154,-15.9151 974.966,-11.9161 964.802,-8.92394 965.154,-15.9151"/>
</g>
<!-- Node21 -->
<g id="node21" class="node"><title>Node21</title>
<g id="a_node21"><a xlink:href="XmlElementSerializingContext_8h.html" target="_top" xlink:title="XmlElementSerializingContext.h">
<polygon fill="white" stroke="black" points="551,-112.5 551,-131.5 721,-131.5 721,-112.5 551,-112.5"/>
<text text-anchor="middle" x="636" y="-119.5" font-family="Verdana" font-size="10.00">XmlElementSerializingContext.h</text>
</a>
</g>
</g>
<!-- Node20&#45;&gt;Node21 -->
<g id="edge35" class="edge"><title>Node20&#45;&gt;Node21</title>
<path fill="none" stroke="midnightblue" d="M718.255,-168.324C702.681,-159.743 678.623,-146.486 660.541,-136.522"/>
<polygon fill="midnightblue" stroke="midnightblue" points="662.154,-133.415 651.706,-131.655 658.776,-139.546 662.154,-133.415"/>
</g>
<!-- Node21&#45;&gt;Node6 -->
<g id="edge37" class="edge"><title>Node21&#45;&gt;Node6</title>
<path fill="none" stroke="midnightblue" d="M637.473,-112.154C640.364,-97.8121 648.219,-69.7125 667,-56 713.958,-21.7149 890.794,-13.526 964.468,-11.5906"/>
<polygon fill="midnightblue" stroke="midnightblue" points="964.649,-15.0874 974.562,-11.3481 964.48,-8.08943 964.649,-15.0874"/>
</g>
<!-- Node21&#45;&gt;Node12 -->
<g id="edge36" class="edge"><title>Node21&#45;&gt;Node12</title>
<path fill="none" stroke="midnightblue" d="M668.8,-112.444C704.38,-103.162 761.314,-88.3093 800.347,-78.127"/>
<polygon fill="midnightblue" stroke="midnightblue" points="801.561,-81.4274 810.354,-75.5164 799.794,-74.6541 801.561,-81.4274"/>
</g>
<!-- Node22&#45;&gt;Node5 -->
<g id="edge40" class="edge"><title>Node22&#45;&gt;Node5</title>
<path fill="none" stroke="midnightblue" d="M837.616,-336.443C832.444,-327.678 824.988,-313.467 822,-300 817.682,-280.534 824.786,-231.262 828,-224 832.886,-212.96 841.506,-202.722 849.495,-194.809"/>
<polygon fill="midnightblue" stroke="midnightblue" points="852.171,-197.1 857.113,-187.728 847.405,-191.973 852.171,-197.1"/>
</g>
<!-- Node23 -->
<g id="node23" class="node"><title>Node23</title>
<g id="a_node23"><a xlink:href="SelectionCriterion_8h.html" target="_top" xlink:title="SelectionCriterion.h">
<polygon fill="white" stroke="black" points="1046,-280.5 1046,-299.5 1156,-299.5 1156,-280.5 1046,-280.5"/>
<text text-anchor="middle" x="1101" y="-287.5" font-family="Verdana" font-size="10.00">SelectionCriterion.h</text>
</a>
</g>
</g>
<!-- Node22&#45;&gt;Node23 -->
<g id="edge41" class="edge"><title>Node22&#45;&gt;Node23</title>
<path fill="none" stroke="midnightblue" d="M883.881,-336.444C928.983,-327.004 1001.61,-311.802 1050.3,-301.611"/>
<polygon fill="midnightblue" stroke="midnightblue" points="1051.24,-304.991 1060.31,-299.516 1049.81,-298.139 1051.24,-304.991"/>
</g>
<!-- Node23&#45;&gt;Node5 -->
<g id="edge42" class="edge"><title>Node23&#45;&gt;Node5</title>
<path fill="none" stroke="midnightblue" d="M1045.92,-283.432C972.281,-275.424 849.398,-259.866 836,-244 823.653,-229.38 837.284,-209.18 850.376,-195.196"/>
<polygon fill="midnightblue" stroke="midnightblue" points="853.213,-197.309 857.822,-187.77 848.27,-192.353 853.213,-197.309"/>
</g>
<!-- Node23&#45;&gt;Node6 -->
<g id="edge52" class="edge"><title>Node23&#45;&gt;Node6</title>
<path fill="none" stroke="midnightblue" d="M1156.23,-286.314C1218.38,-281.999 1313.64,-271.054 1336,-244 1341.66,-237.149 1337.31,-232.793 1336,-224 1324.48,-146.421 1342.38,-106.055 1282,-56 1244.01,-24.5046 1095.67,-14.8338 1029.35,-12.0497"/>
<polygon fill="midnightblue" stroke="midnightblue" points="1029.2,-8.54113 1019.07,-11.6461 1028.93,-15.5357 1029.2,-8.54113"/>
</g>
<!-- Node24 -->
<g id="node24" class="node"><title>Node24</title>
<g id="a_node24"><a xlink:href="SelectionCriterionType_8h.html" target="_top" xlink:title="SelectionCriterionType.h">
<polygon fill="white" stroke="black" points="1195.5,-224.5 1195.5,-243.5 1326.5,-243.5 1326.5,-224.5 1195.5,-224.5"/>
<text text-anchor="middle" x="1261" y="-231.5" font-family="Verdana" font-size="10.00">SelectionCriterionType.h</text>
</a>
</g>
</g>
<!-- Node23&#45;&gt;Node24 -->
<g id="edge43" class="edge"><title>Node23&#45;&gt;Node24</title>
<path fill="none" stroke="midnightblue" d="M1126.35,-280.444C1153.27,-271.359 1196,-256.939 1226.09,-246.783"/>
<polygon fill="midnightblue" stroke="midnightblue" points="1227.41,-250.031 1235.77,-243.516 1225.17,-243.398 1227.41,-250.031"/>
</g>
<!-- Node27 -->
<g id="node27" class="node"><title>Node27</title>
<g id="a_node27"><a xlink:href="SelectionCriterionInterface_8h.html" target="_top" xlink:title="SelectionCriterionInterface.h">
<polygon fill="white" stroke="black" points="1025,-224.5 1025,-243.5 1177,-243.5 1177,-224.5 1025,-224.5"/>
<text text-anchor="middle" x="1101" y="-231.5" font-family="Verdana" font-size="10.00">SelectionCriterionInterface.h</text>
</a>
</g>
</g>
<!-- Node23&#45;&gt;Node27 -->
<g id="edge49" class="edge"><title>Node23&#45;&gt;Node27</title>
<path fill="none" stroke="midnightblue" d="M1101,-280.083C1101,-273.006 1101,-262.861 1101,-253.986"/>
<polygon fill="midnightblue" stroke="midnightblue" points="1104.5,-253.751 1101,-243.751 1097.5,-253.751 1104.5,-253.751"/>
</g>
<!-- Node24&#45;&gt;Node5 -->
<g id="edge44" class="edge"><title>Node24&#45;&gt;Node5</title>
<path fill="none" stroke="midnightblue" d="M1198.73,-224.444C1118.23,-213.383 980.176,-194.413 910.652,-184.861"/>
<polygon fill="midnightblue" stroke="midnightblue" points="910.888,-181.36 900.504,-183.466 909.935,-188.295 910.888,-181.36"/>
</g>
<!-- Node24&#45;&gt;Node6 -->
<g id="edge46" class="edge"><title>Node24&#45;&gt;Node6</title>
<path fill="none" stroke="midnightblue" d="M1267.1,-224.191C1272.75,-215.46 1280.76,-201.478 1284,-188 1294.8,-143.119 1290.31,-84.3429 1261,-56 1228.45,-24.5331 1092.66,-14.9002 1029.53,-12.0917"/>
<polygon fill="midnightblue" stroke="midnightblue" points="1029.47,-8.58642 1019.34,-11.6699 1029.19,-15.5804 1029.47,-8.58642"/>
</g>
<!-- Node24&#45;&gt;Node25 -->
<g id="edge45" class="edge"><title>Node24&#45;&gt;Node25</title>
<path fill="none" stroke="midnightblue" d="M1281.12,-224.444C1302.27,-215.452 1335.71,-201.233 1359.55,-191.096"/>
<polygon fill="midnightblue" stroke="midnightblue" points="1360.97,-194.297 1368.8,-187.163 1358.23,-187.855 1360.97,-194.297"/>
</g>
<!-- Node26 -->
<g id="node26" class="node"><title>Node26</title>
<g id="a_node26"><a xlink:href="SelectionCriterionTypeInterface_8h.html" target="_top" xlink:title="SelectionCriterionTypeInterface.h">
<polygon fill="white" stroke="black" points="1101.5,-168.5 1101.5,-187.5 1274.5,-187.5 1274.5,-168.5 1101.5,-168.5"/>
<text text-anchor="middle" x="1188" y="-175.5" font-family="Verdana" font-size="10.00">SelectionCriterionTypeInterface.h</text>
</a>
</g>
</g>
<!-- Node24&#45;&gt;Node26 -->
<g id="edge47" class="edge"><title>Node24&#45;&gt;Node26</title>
<path fill="none" stroke="midnightblue" d="M1249.27,-224.324C1238.16,-216.107 1221.26,-203.602 1208.02,-193.807"/>
<polygon fill="midnightblue" stroke="midnightblue" points="1210.06,-190.967 1199.94,-187.834 1205.9,-196.595 1210.06,-190.967"/>
</g>
<!-- Node26&#45;&gt;Node6 -->
<g id="edge48" class="edge"><title>Node26&#45;&gt;Node6</title>
<path fill="none" stroke="midnightblue" d="M1204.33,-168.387C1216.96,-160.72 1233.5,-148.213 1241,-132 1255.19,-101.346 1262.61,-81.9602 1241,-56 1214.42,-24.0664 1089.33,-14.7071 1029.3,-12.0336"/>
<polygon fill="midnightblue" stroke="midnightblue" points="1029.36,-8.53322 1019.23,-11.6209 1029.08,-15.5274 1029.36,-8.53322"/>
</g>
<!-- Node27&#45;&gt;Node6 -->
<g id="edge50" class="edge"><title>Node27&#45;&gt;Node6</title>
<path fill="none" stroke="midnightblue" d="M1096.34,-224.491C1089.72,-211.116 1079.67,-184.955 1092,-168 1122.5,-126.05 1172.5,-173.95 1203,-132 1222.86,-104.679 1224.18,-82.31 1203,-56 1181.58,-29.3906 1081.89,-17.662 1029.45,-13.26"/>
<polygon fill="midnightblue" stroke="midnightblue" points="1029.57,-9.75864 1019.33,-12.452 1029.02,-16.7365 1029.57,-9.75864"/>
</g>
<!-- Node27&#45;&gt;Node26 -->
<g id="edge51" class="edge"><title>Node27&#45;&gt;Node26</title>
<path fill="none" stroke="midnightblue" d="M1114.98,-224.324C1128.55,-215.9 1149.38,-202.971 1165.32,-193.074"/>
<polygon fill="midnightblue" stroke="midnightblue" points="1167.41,-195.902 1174.06,-187.655 1163.71,-189.954 1167.41,-195.902"/>
</g>
<!-- Node28&#45;&gt;Node6 -->
<g id="edge63" class="edge"><title>Node28&#45;&gt;Node6</title>
<path fill="none" stroke="midnightblue" d="M669.95,-336.286C671.017,-323.523 671.803,-299.18 665,-280 635.733,-197.487 568.059,-213.068 535,-132 531.644,-123.769 531.751,-120.274 535,-112 547.415,-80.3858 556.655,-71.2568 587,-56 653.184,-22.7239 880.199,-13.8418 964.844,-11.6588"/>
<polygon fill="midnightblue" stroke="midnightblue" points="964.988,-15.1565 974.899,-11.4141 964.817,-8.15853 964.988,-15.1565"/>
</g>
<!-- Node28&#45;&gt;Node9 -->
<g id="edge62" class="edge"><title>Node28&#45;&gt;Node9</title>
<path fill="none" stroke="midnightblue" d="M667.172,-336.423C664.116,-323.408 657.084,-298.257 645,-280 604.912,-219.436 587.757,-206.225 526,-168 494.957,-148.786 454.449,-135.889 428.822,-128.997"/>
<polygon fill="midnightblue" stroke="midnightblue" points="429.699,-125.608 419.141,-126.489 427.944,-132.385 429.699,-125.608"/>
</g>
<!-- Node28&#45;&gt;Node29 -->
<g id="edge54" class="edge"><title>Node28&#45;&gt;Node29</title>
<path fill="none" stroke="midnightblue" d="M653.737,-336.324C638.779,-327.822 615.745,-314.729 598.273,-304.797"/>
<polygon fill="midnightblue" stroke="midnightblue" points="599.649,-301.553 589.226,-299.655 596.19,-307.639 599.649,-301.553"/>
</g>
<!-- Node30 -->
<g id="node30" class="node"><title>Node30</title>
<g id="a_node30"><a xlink:href="SubsystemPlugins_8h.html" target="_top" xlink:title="SubsystemPlugins.h">
<polygon fill="white" stroke="black" points="831.5,-280.5 831.5,-299.5 944.5,-299.5 944.5,-280.5 831.5,-280.5"/>
<text text-anchor="middle" x="888" y="-287.5" font-family="Verdana" font-size="10.00">SubsystemPlugins.h</text>
</a>
</g>
</g>
<!-- Node28&#45;&gt;Node30 -->
<g id="edge57" class="edge"><title>Node28&#45;&gt;Node30</title>
<path fill="none" stroke="midnightblue" d="M703.701,-336.444C741.585,-327.102 802.349,-312.119 843.662,-301.933"/>
<polygon fill="midnightblue" stroke="midnightblue" points="844.59,-305.309 853.461,-299.516 842.914,-298.512 844.59,-305.309"/>
</g>
<!-- Node29&#45;&gt;Node5 -->
<g id="edge55" class="edge"><title>Node29&#45;&gt;Node5</title>
<path fill="none" stroke="midnightblue" d="M597.07,-280.368C649.023,-260.93 775.325,-213.674 835.318,-191.228"/>
<polygon fill="midnightblue" stroke="midnightblue" points="836.898,-194.374 845.037,-187.591 834.445,-187.818 836.898,-194.374"/>
</g>
<!-- Node29&#45;&gt;Node9 -->
<g id="edge56" class="edge"><title>Node29&#45;&gt;Node9</title>
<path fill="none" stroke="midnightblue" d="M571.003,-280.495C563.018,-258.94 539.267,-201.502 502,-168 490.62,-157.769 453.811,-142.255 428.691,-132.376"/>
<polygon fill="midnightblue" stroke="midnightblue" points="429.659,-128.998 419.07,-128.643 427.127,-135.524 429.659,-128.998"/>
</g>
<!-- Node30&#45;&gt;Node6 -->
<g id="edge61" class="edge"><title>Node30&#45;&gt;Node6</title>
<path fill="none" stroke="midnightblue" d="M902.127,-280.431C953.249,-249.363 1125.97,-143.835 1133,-132 1150.28,-102.921 1156.92,-83.3332 1137,-56 1112.51,-22.3982 1062.51,-13.3378 1029.38,-11.1925"/>
<polygon fill="midnightblue" stroke="midnightblue" points="1029.42,-7.69069 1019.27,-10.7166 1029.09,-14.683 1029.42,-7.69069"/>
</g>
<!-- Node31 -->
<g id="node31" class="node"><title>Node31</title>
<g id="a_node31"><a xlink:href="KindElement_8h.html" target="_top" xlink:title="KindElement.h">
<polygon fill="white" stroke="black" points="845,-224.5 845,-243.5 931,-243.5 931,-224.5 845,-224.5"/>
<text text-anchor="middle" x="888" y="-231.5" font-family="Verdana" font-size="10.00">KindElement.h</text>
</a>
</g>
</g>
<!-- Node30&#45;&gt;Node31 -->
<g id="edge58" class="edge"><title>Node30&#45;&gt;Node31</title>
<path fill="none" stroke="midnightblue" d="M888,-280.083C888,-273.006 888,-262.861 888,-253.986"/>
<polygon fill="midnightblue" stroke="midnightblue" points="891.5,-253.751 888,-243.751 884.5,-253.751 891.5,-253.751"/>
</g>
<!-- Node31&#45;&gt;Node5 -->
<g id="edge59" class="edge"><title>Node31&#45;&gt;Node5</title>
<path fill="none" stroke="midnightblue" d="M884.697,-224.083C882.018,-216.849 878.151,-206.409 874.814,-197.397"/>
<polygon fill="midnightblue" stroke="midnightblue" points="877.996,-195.913 871.241,-187.751 871.432,-198.344 877.996,-195.913"/>
</g>
<!-- Node31&#45;&gt;Node6 -->
<g id="edge60" class="edge"><title>Node31&#45;&gt;Node6</title>
<path fill="none" stroke="midnightblue" d="M904.6,-224.368C929.579,-211.499 978.443,-186.783 1021,-168 1060.79,-150.438 1085.66,-166.614 1112,-132 1132.52,-105.035 1137.34,-83.8229 1118,-56 1098.18,-27.4793 1058.01,-16.9984 1029.4,-13.1679"/>
<polygon fill="midnightblue" stroke="midnightblue" points="1029.77,-9.68762 1019.44,-12.0365 1028.98,-16.6429 1029.77,-9.68762"/>
</g>
<!-- Node32&#45;&gt;Node6 -->
<g id="edge67" class="edge"><title>Node32&#45;&gt;Node6</title>
<path fill="none" stroke="midnightblue" d="M413.693,-280.432C401.875,-249.221 363.308,-141.871 380,-112 403.165,-70.5442 425.899,-70.8708 471,-56 563.592,-25.4703 865.563,-14.6051 964.959,-11.8051"/>
<polygon fill="midnightblue" stroke="midnightblue" points="965.096,-15.3028 974.997,-11.5306 964.905,-8.30537 965.096,-15.3028"/>
</g>
<!-- Node32&#45;&gt;Node9 -->
<g id="edge68" class="edge"><title>Node32&#45;&gt;Node9</title>
<path fill="none" stroke="midnightblue" d="M419.235,-280.449C421.462,-271.453 424.728,-256.844 426,-244 429.633,-207.315 418.358,-165.075 410.632,-141.459"/>
<polygon fill="midnightblue" stroke="midnightblue" points="413.854,-140.063 407.302,-131.737 407.231,-142.331 413.854,-140.063"/>
</g>
<!-- Node32&#45;&gt;Node17 -->
<g id="edge66" class="edge"><title>Node32&#45;&gt;Node17</title>
<path fill="none" stroke="midnightblue" d="M408.909,-280.083C401.845,-272.298 391.412,-260.801 382.851,-251.367"/>
<polygon fill="midnightblue" stroke="midnightblue" points="385.253,-248.805 375.941,-243.751 380.069,-253.509 385.253,-248.805"/>
</g>
<!-- Node33&#45;&gt;Node5 -->
<g id="edge76" class="edge"><title>Node33&#45;&gt;Node5</title>
<path fill="none" stroke="midnightblue" d="M1499.07,-230.322C1389.1,-221.379 1034.49,-192.54 910.937,-182.492"/>
<polygon fill="midnightblue" stroke="midnightblue" points="910.985,-178.984 900.734,-181.662 910.417,-185.961 910.985,-178.984"/>
</g>
<!-- Node33&#45;&gt;Node6 -->
<g id="edge77" class="edge"><title>Node33&#45;&gt;Node6</title>
<path fill="none" stroke="midnightblue" d="M1532.9,-224.24C1535.35,-195.023 1538.84,-100.265 1487,-56 1452.21,-26.2994 1132.68,-14.7983 1029.19,-11.8328"/>
<polygon fill="midnightblue" stroke="midnightblue" points="1029.13,-8.32985 1019.03,-11.5496 1028.93,-15.3271 1029.13,-8.32985"/>
</g>
</g>
</svg>
