<?xml version="1.0" encoding="UTF-8" standalone="no"?>
<!DOCTYPE svg PUBLIC "-//W3C//DTD SVG 1.1//EN"
 "http://www.w3.org/Graphics/SVG/1.1/DTD/svg11.dtd">
<!-- Generated by graphviz version 2.38.0 (20140413.2041)
 -->
<!-- Title: parameter/ConfigurableDomain.cpp Pages: 1 -->
<svg width="1690pt" height="532pt"
 viewBox="0.00 0.00 1689.87 532.00" xmlns="http://www.w3.org/2000/svg" xmlns:xlink="http://www.w3.org/1999/xlink">
<g id="graph0" class="graph" transform="scale(1 1) rotate(0) translate(4 528)">
<title>parameter/ConfigurableDomain.cpp</title>
<polygon fill="white" stroke="none" points="-4,4 -4,-528 1685.87,-528 1685.87,4 -4,4"/>
<!-- Node1 -->
<g id="node1" class="node"><title>Node1</title>
<polygon fill="#bfbfbf" stroke="black" points="1193.87,-504.5 1193.87,-523.5 1381.87,-523.5 1381.87,-504.5 1193.87,-504.5"/>
<text text-anchor="middle" x="1287.87" y="-511.5" font-family="Verdana" font-size="10.00">parameter/ConfigurableDomain.cpp</text>
</g>
<!-- Node2 -->
<g id="node2" class="node"><title>Node2</title>
<g id="a_node2"><a xlink:href="ConfigurableDomain_8h.html" target="_top" xlink:title="ConfigurableDomain.h">
<polygon fill="white" stroke="black" points="607.372,-448.5 607.372,-467.5 730.372,-467.5 730.372,-448.5 607.372,-448.5"/>
<text text-anchor="middle" x="668.872" y="-455.5" font-family="Verdana" font-size="10.00">ConfigurableDomain.h</text>
</a>
</g>
</g>
<!-- Node1&#45;&gt;Node2 -->
<g id="edge1" class="edge"><title>Node1&#45;&gt;Node2</title>
<path fill="none" stroke="midnightblue" d="M1193.86,-504.799C1069.56,-493.955 853.198,-475.08 740.993,-465.292"/>
<polygon fill="midnightblue" stroke="midnightblue" points="741.061,-461.784 730.795,-464.402 740.453,-468.758 741.061,-461.784"/>
</g>
<!-- Node16 -->
<g id="node16" class="node"><title>Node16</title>
<g id="a_node16"><a xlink:href="XmlDomainImportContext_8h.html" target="_top" xlink:title="XmlDomainImportContext.h">
<polygon fill="white" stroke="black" points="1056.87,-392.5 1056.87,-411.5 1206.87,-411.5 1206.87,-392.5 1056.87,-392.5"/>
<text text-anchor="middle" x="1131.87" y="-399.5" font-family="Verdana" font-size="10.00">XmlDomainImportContext.h</text>
</a>
</g>
</g>
<!-- Node1&#45;&gt;Node16 -->
<g id="edge80" class="edge"><title>Node1&#45;&gt;Node16</title>
<path fill="none" stroke="midnightblue" d="M1275.63,-504.368C1248.98,-485.573 1185.43,-440.768 1152.48,-417.533"/>
<polygon fill="midnightblue" stroke="midnightblue" points="1154.25,-414.494 1144.06,-411.591 1150.21,-420.215 1154.25,-414.494"/>
</g>
<!-- Node17 -->
<g id="node17" class="node"><title>Node17</title>
<g id="a_node17"><a xlink:href="XmlDomainSerializingContext_8h.html" target="_top" xlink:title="XmlDomainSerializingContext.h">
<polygon fill="white" stroke="black" points="1298.37,-336.5 1298.37,-355.5 1465.37,-355.5 1465.37,-336.5 1298.37,-336.5"/>
<text text-anchor="middle" x="1381.87" y="-343.5" font-family="Verdana" font-size="10.00">XmlDomainSerializingContext.h</text>
</a>
</g>
</g>
<!-- Node1&#45;&gt;Node17 -->
<g id="edge79" class="edge"><title>Node1&#45;&gt;Node17</title>
<path fill="none" stroke="midnightblue" d="M1292.93,-504.075C1307.85,-477.719 1351.93,-399.878 1371.87,-364.661"/>
<polygon fill="midnightblue" stroke="midnightblue" points="1375.14,-365.994 1377.02,-355.568 1369.05,-362.545 1375.14,-365.994"/>
</g>
<!-- Node26 -->
<g id="node26" class="node"><title>Node26</title>
<g id="a_node26"><a xlink:href="ConfigurableElement_8h.html" target="_top" xlink:title="ConfigurableElement.h">
<polygon fill="white" stroke="black" points="773.372,-280.5 773.372,-299.5 898.372,-299.5 898.372,-280.5 773.372,-280.5"/>
<text text-anchor="middle" x="835.872" y="-287.5" font-family="Verdana" font-size="10.00">ConfigurableElement.h</text>
</a>
</g>
</g>
<!-- Node1&#45;&gt;Node26 -->
<g id="edge71" class="edge"><title>Node1&#45;&gt;Node26</title>
<path fill="none" stroke="midnightblue" d="M1225.93,-504.426C1187.38,-497.66 1137.4,-486.247 1095.87,-468 995.734,-424.004 893.126,-340.496 853.218,-306.242"/>
<polygon fill="midnightblue" stroke="midnightblue" points="855.322,-303.434 845.472,-299.532 850.739,-308.725 855.322,-303.434"/>
</g>
<!-- Node31 -->
<g id="node31" class="node"><title>Node31</title>
<g id="a_node31"><a xlink:href="DomainConfiguration_8h.html" target="_top" xlink:title="DomainConfiguration.h">
<polygon fill="white" stroke="black" points="916.372,-280.5 916.372,-299.5 1043.37,-299.5 1043.37,-280.5 916.372,-280.5"/>
<text text-anchor="middle" x="979.872" y="-287.5" font-family="Verdana" font-size="10.00">DomainConfiguration.h</text>
</a>
</g>
</g>
<!-- Node1&#45;&gt;Node31 -->
<g id="edge67" class="edge"><title>Node1&#45;&gt;Node31</title>
<path fill="none" stroke="midnightblue" d="M1246.95,-504.454C1195.31,-491.889 1106.22,-464.07 1047.87,-412 1015.62,-383.221 995.181,-335.366 985.833,-309.297"/>
<polygon fill="midnightblue" stroke="midnightblue" points="989.056,-307.904 982.505,-299.577 982.434,-310.172 989.056,-307.904"/>
</g>
<!-- Node32 -->
<g id="node32" class="node"><title>Node32</title>
<g id="a_node32"><a xlink:href="ConfigurationAccessContext_8h.html" target="_top" xlink:title="ConfigurationAccessContext.h">
<polygon fill="white" stroke="black" points="1468.37,-168.5 1468.37,-187.5 1629.37,-187.5 1629.37,-168.5 1468.37,-168.5"/>
<text text-anchor="middle" x="1548.87" y="-175.5" font-family="Verdana" font-size="10.00">ConfigurationAccessContext.h</text>
</a>
</g>
</g>
<!-- Node1&#45;&gt;Node32 -->
<g id="edge72" class="edge"><title>Node1&#45;&gt;Node32</title>
<path fill="none" stroke="midnightblue" d="M1357.85,-504.491C1417.23,-492.899 1492.87,-465.807 1492.87,-403 1492.87,-403 1492.87,-403 1492.87,-289 1492.87,-252.436 1517.75,-215.747 1534.34,-195.342"/>
<polygon fill="midnightblue" stroke="midnightblue" points="1537.07,-197.539 1540.85,-187.642 1531.72,-193.021 1537.07,-197.539"/>
</g>
<!-- Node35 -->
<g id="node35" class="node"><title>Node35</title>
<g id="a_node35"><a xlink:href="XmlDomainExportContext_8h.html" target="_top" xlink:title="XmlDomainExportContext.h">
<polygon fill="white" stroke="black" points="1520.37,-392.5 1520.37,-411.5 1669.37,-411.5 1669.37,-392.5 1520.37,-392.5"/>
<text text-anchor="middle" x="1594.87" y="-399.5" font-family="Verdana" font-size="10.00">XmlDomainExportContext.h</text>
</a>
</g>
</g>
<!-- Node1&#45;&gt;Node35 -->
<g id="edge81" class="edge"><title>Node1&#45;&gt;Node35</title>
<path fill="none" stroke="midnightblue" d="M1371.34,-504.493C1413.34,-498.088 1464.24,-487.008 1506.87,-468 1534.35,-455.749 1561.51,-433.775 1578.23,-418.8"/>
<polygon fill="midnightblue" stroke="midnightblue" points="1580.97,-421.037 1585.97,-411.695 1576.24,-415.88 1580.97,-421.037"/>
</g>
<!-- Node36 -->
<g id="node36" class="node"><title>Node36</title>
<polygon fill="white" stroke="#bfbfbf" points="1558.87,-448.5 1558.87,-467.5 1614.87,-467.5 1614.87,-448.5 1558.87,-448.5"/>
<text text-anchor="middle" x="1586.87" y="-455.5" font-family="Verdana" font-size="10.00">assert.h</text>
</g>
<!-- Node1&#45;&gt;Node36 -->
<g id="edge84" class="edge"><title>Node1&#45;&gt;Node36</title>
<path fill="none" stroke="midnightblue" d="M1340.15,-504.44C1392.16,-495.786 1474.18,-481.759 1544.87,-468 1546.11,-467.76 1547.36,-467.512 1548.63,-467.259"/>
<polygon fill="midnightblue" stroke="midnightblue" points="1549.34,-470.685 1558.44,-465.245 1547.94,-463.828 1549.34,-470.685"/>
</g>
<!-- Node3 -->
<g id="node3" class="node"><title>Node3</title>
<g id="a_node3"><a xlink:href="BinarySerializableElement_8h.html" target="_top" xlink:title="BinarySerializableElement.h">
<polygon fill="white" stroke="black" points="696.872,-224.5 696.872,-243.5 846.872,-243.5 846.872,-224.5 696.872,-224.5"/>
<text text-anchor="middle" x="771.872" y="-231.5" font-family="Verdana" font-size="10.00">BinarySerializableElement.h</text>
</a>
</g>
</g>
<!-- Node2&#45;&gt;Node3 -->
<g id="edge2" class="edge"><title>Node2&#45;&gt;Node3</title>
<path fill="none" stroke="midnightblue" d="M667.547,-448.33C663.84,-420.923 655.91,-334.742 692.872,-280 702.893,-265.159 719.548,-254.634 734.989,-247.514"/>
<polygon fill="midnightblue" stroke="midnightblue" points="736.549,-250.654 744.375,-243.513 733.804,-244.215 736.549,-250.654"/>
</g>
<!-- Node5 -->
<g id="node5" class="node"><title>Node5</title>
<polygon fill="white" stroke="#bfbfbf" points="944.872,-0.5 944.872,-19.5 988.872,-19.5 988.872,-0.5 944.872,-0.5"/>
<text text-anchor="middle" x="966.872" y="-7.5" font-family="Verdana" font-size="10.00">string</text>
</g>
<!-- Node2&#45;&gt;Node5 -->
<g id="edge66" class="edge"><title>Node2&#45;&gt;Node5</title>
<path fill="none" stroke="midnightblue" d="M607.267,-451.861C456.814,-438.486 82.8721,-399.921 82.8721,-347 82.8721,-347 82.8721,-347 82.8721,-233 82.8721,-157.33 252.927,-83.0878 340.872,-56 453.491,-21.3123 822.69,-13.1163 934.498,-11.4084"/>
<polygon fill="midnightblue" stroke="midnightblue" points="934.844,-14.9038 944.792,-11.2586 934.743,-7.90455 934.844,-14.9038"/>
</g>
<!-- Node8 -->
<g id="node8" class="node"><title>Node8</title>
<polygon fill="white" stroke="#bfbfbf" points="939.872,-112.5 939.872,-131.5 969.872,-131.5 969.872,-112.5 939.872,-112.5"/>
<text text-anchor="middle" x="954.872" y="-119.5" font-family="Verdana" font-size="10.00">list</text>
</g>
<!-- Node2&#45;&gt;Node8 -->
<g id="edge63" class="edge"><title>Node2&#45;&gt;Node8</title>
<path fill="none" stroke="midnightblue" d="M682.675,-448.239C694.384,-440.147 710.833,-427.118 720.872,-412 755.004,-360.599 719.497,-322.87 763.872,-280 805.452,-239.831 843.77,-280.17 888.872,-244 922.52,-217.016 941.505,-168.044 949.794,-141.425"/>
<polygon fill="midnightblue" stroke="midnightblue" points="953.245,-142.096 952.703,-131.515 946.528,-140.124 953.245,-142.096"/>
</g>
<!-- Node11 -->
<g id="node11" class="node"><title>Node11</title>
<g id="a_node11"><a xlink:href="XmlSerializingContext_8h.html" target="_top" xlink:title="XmlSerializingContext.h">
<polygon fill="white" stroke="black" points="901.872,-56.5 901.872,-75.5 1031.87,-75.5 1031.87,-56.5 901.872,-56.5"/>
<text text-anchor="middle" x="966.872" y="-63.5" font-family="Verdana" font-size="10.00">XmlSerializingContext.h</text>
</a>
</g>
</g>
<!-- Node2&#45;&gt;Node11 -->
<g id="edge26" class="edge"><title>Node2&#45;&gt;Node11</title>
<path fill="none" stroke="midnightblue" d="M671.618,-448.082C681.764,-415.645 717.939,-304.564 744.872,-280 783.192,-245.052 815.671,-276.767 855.872,-244 908.175,-201.37 893.012,-167.852 930.872,-112 937.538,-102.166 945.766,-91.7723 952.673,-83.4545"/>
<polygon fill="midnightblue" stroke="midnightblue" points="955.489,-85.545 959.271,-75.6483 950.142,-81.0263 955.489,-85.545"/>
</g>
<!-- Node2&#45;&gt;Node16 -->
<g id="edge27" class="edge"><title>Node2&#45;&gt;Node16</title>
<path fill="none" stroke="midnightblue" d="M730.834,-449.773C812.775,-440.217 957.445,-423.343 1048.8,-412.689"/>
<polygon fill="midnightblue" stroke="midnightblue" points="1049.31,-416.153 1058.84,-411.518 1048.5,-409.2 1049.31,-416.153"/>
</g>
<!-- Node22 -->
<g id="node22" class="node"><title>Node22</title>
<polygon fill="white" stroke="#bfbfbf" points="378.872,-168.5 378.872,-187.5 416.872,-187.5 416.872,-168.5 378.872,-168.5"/>
<text text-anchor="middle" x="397.872" y="-175.5" font-family="Verdana" font-size="10.00">map</text>
</g>
<!-- Node2&#45;&gt;Node22 -->
<g id="edge65" class="edge"><title>Node2&#45;&gt;Node22</title>
<path fill="none" stroke="midnightblue" d="M607.301,-449.872C509.322,-436.793 328.872,-404.852 328.872,-347 328.872,-347 328.872,-347 328.872,-289 328.872,-258.902 331.854,-249.482 347.872,-224 355.179,-212.376 366.319,-201.938 376.231,-194.048"/>
<polygon fill="midnightblue" stroke="midnightblue" points="378.628,-196.625 384.498,-187.805 374.409,-191.039 378.628,-196.625"/>
</g>
<!-- Node29 -->
<g id="node29" class="node"><title>Node29</title>
<g id="a_node29"><a xlink:href="SyncerSet_8h.html" target="_top" xlink:title="SyncerSet.h">
<polygon fill="white" stroke="black" points="483.372,-392.5 483.372,-411.5 558.372,-411.5 558.372,-392.5 483.372,-392.5"/>
<text text-anchor="middle" x="520.872" y="-399.5" font-family="Verdana" font-size="10.00">SyncerSet.h</text>
</a>
</g>
</g>
<!-- Node2&#45;&gt;Node29 -->
<g id="edge59" class="edge"><title>Node2&#45;&gt;Node29</title>
<path fill="none" stroke="midnightblue" d="M645.421,-448.444C620.739,-439.438 581.687,-425.189 553.895,-415.049"/>
<polygon fill="midnightblue" stroke="midnightblue" points="554.807,-411.656 544.213,-411.516 552.408,-418.232 554.807,-411.656"/>
</g>
<!-- Node30 -->
<g id="node30" class="node"><title>Node30</title>
<polygon fill="white" stroke="#bfbfbf" points="356.872,-336.5 356.872,-355.5 388.872,-355.5 388.872,-336.5 356.872,-336.5"/>
<text text-anchor="middle" x="372.872" y="-343.5" font-family="Verdana" font-size="10.00">set</text>
</g>
<!-- Node2&#45;&gt;Node30 -->
<g id="edge64" class="edge"><title>Node2&#45;&gt;Node30</title>
<path fill="none" stroke="midnightblue" d="M607.887,-448.49C568.567,-441.667 516.926,-430.168 473.872,-412 442.884,-398.923 410.85,-376.521 391.389,-361.736"/>
<polygon fill="midnightblue" stroke="midnightblue" points="393.432,-358.891 383.382,-355.54 389.149,-364.428 393.432,-358.891"/>
</g>
<!-- Node4 -->
<g id="node4" class="node"><title>Node4</title>
<g id="a_node4"><a xlink:href="Element_8h.html" target="_top" xlink:title="Element.h">
<polygon fill="white" stroke="black" points="581.372,-168.5 581.372,-187.5 646.372,-187.5 646.372,-168.5 581.372,-168.5"/>
<text text-anchor="middle" x="613.872" y="-175.5" font-family="Verdana" font-size="10.00">Element.h</text>
</a>
</g>
</g>
<!-- Node3&#45;&gt;Node4 -->
<g id="edge3" class="edge"><title>Node3&#45;&gt;Node4</title>
<path fill="none" stroke="midnightblue" d="M746.836,-224.444C720.256,-215.359 678.063,-200.939 648.349,-190.783"/>
<polygon fill="midnightblue" stroke="midnightblue" points="649.385,-187.439 638.79,-187.516 647.121,-194.062 649.385,-187.439"/>
</g>
<!-- Node3&#45;&gt;Node5 -->
<g id="edge25" class="edge"><title>Node3&#45;&gt;Node5</title>
<path fill="none" stroke="midnightblue" d="M777.62,-224.376C800.656,-189.845 885.41,-63.0749 892.872,-56 906.388,-43.1857 924.149,-32.2367 938.883,-24.348"/>
<polygon fill="midnightblue" stroke="midnightblue" points="940.771,-27.3125 948.053,-19.617 937.561,-21.0916 940.771,-27.3125"/>
</g>
<!-- Node14 -->
<g id="node14" class="node"><title>Node14</title>
<g id="a_node14"><a xlink:href="BinaryStream_8h.html" target="_top" xlink:title="BinaryStream.h">
<polygon fill="white" stroke="black" points="161.872,-56.5 161.872,-75.5 253.872,-75.5 253.872,-56.5 161.872,-56.5"/>
<text text-anchor="middle" x="207.872" y="-63.5" font-family="Verdana" font-size="10.00">BinaryStream.h</text>
</a>
</g>
</g>
<!-- Node3&#45;&gt;Node14 -->
<g id="edge21" class="edge"><title>Node3&#45;&gt;Node14</title>
<path fill="none" stroke="midnightblue" d="M728.256,-224.492C687.53,-216.24 625.193,-202.821 571.872,-188 447.933,-153.549 303.787,-102.197 240.494,-79.0638"/>
<polygon fill="midnightblue" stroke="midnightblue" points="241.639,-75.7559 231.045,-75.6002 239.23,-82.3282 241.639,-75.7559"/>
</g>
<!-- Node4&#45;&gt;Node5 -->
<g id="edge4" class="edge"><title>Node4&#45;&gt;Node5</title>
<path fill="none" stroke="midnightblue" d="M646.732,-170.398C702.187,-159.155 809.026,-137.019 815.872,-132 847.35,-108.924 830.582,-81.7961 859.872,-56 881.345,-37.0883 911.915,-25.3118 934.884,-18.5733"/>
<polygon fill="midnightblue" stroke="midnightblue" points="935.823,-21.9451 944.528,-15.9059 933.957,-15.1984 935.823,-21.9451"/>
</g>
<!-- Node6 -->
<g id="node6" class="node"><title>Node6</title>
<polygon fill="white" stroke="#bfbfbf" points="590.372,-56.5 590.372,-75.5 637.372,-75.5 637.372,-56.5 590.372,-56.5"/>
<text text-anchor="middle" x="613.872" y="-63.5" font-family="Verdana" font-size="10.00">vector</text>
</g>
<!-- Node4&#45;&gt;Node6 -->
<g id="edge5" class="edge"><title>Node4&#45;&gt;Node6</title>
<path fill="none" stroke="midnightblue" d="M613.872,-168.368C613.872,-150.617 613.872,-109.666 613.872,-85.5974"/>
<polygon fill="midnightblue" stroke="midnightblue" points="617.372,-85.5914 613.872,-75.5914 610.372,-85.5915 617.372,-85.5914"/>
</g>
<!-- Node7 -->
<g id="node7" class="node"><title>Node7</title>
<polygon fill="white" stroke="#bfbfbf" points="37.3721,-0.5 37.3721,-19.5 90.3721,-19.5 90.3721,-0.5 37.3721,-0.5"/>
<text text-anchor="middle" x="63.8721" y="-7.5" font-family="Verdana" font-size="10.00">stdint.h</text>
</g>
<!-- Node4&#45;&gt;Node7 -->
<g id="edge6" class="edge"><title>Node4&#45;&gt;Node7</title>
<path fill="none" stroke="midnightblue" d="M581.35,-174.047C460.568,-162.756 42.7742,-120.706 4.87205,-76 -10.5465,-57.8137 14.9141,-37.5803 37.0485,-24.5936"/>
<polygon fill="midnightblue" stroke="midnightblue" points="38.8625,-27.5895 45.8923,-19.6628 35.4537,-21.4756 38.8625,-27.5895"/>
</g>
<!-- Node4&#45;&gt;Node8 -->
<g id="edge7" class="edge"><title>Node4&#45;&gt;Node8</title>
<path fill="none" stroke="midnightblue" d="M646.459,-170.597C651.286,-169.696 656.205,-168.804 660.872,-168 760.193,-150.896 878.962,-133.715 929.791,-126.517"/>
<polygon fill="midnightblue" stroke="midnightblue" points="930.435,-129.961 939.848,-125.098 929.457,-123.029 930.435,-129.961"/>
</g>
<!-- Node9 -->
<g id="node9" class="node"><title>Node9</title>
<g id="a_node9"><a xlink:href="XmlSink_8h.html" target="_top" xlink:title="XmlSink.h">
<polygon fill="white" stroke="black" points="647.872,-112.5 647.872,-131.5 711.872,-131.5 711.872,-112.5 647.872,-112.5"/>
<text text-anchor="middle" x="679.872" y="-119.5" font-family="Verdana" font-size="10.00">XmlSink.h</text>
</a>
</g>
</g>
<!-- Node4&#45;&gt;Node9 -->
<g id="edge8" class="edge"><title>Node4&#45;&gt;Node9</title>
<path fill="none" stroke="midnightblue" d="M624.476,-168.324C634.328,-160.263 649.223,-148.077 661.087,-138.369"/>
<polygon fill="midnightblue" stroke="midnightblue" points="663.552,-140.875 669.075,-131.834 659.119,-135.457 663.552,-140.875"/>
</g>
<!-- Node12 -->
<g id="node12" class="node"><title>Node12</title>
<g id="a_node12"><a xlink:href="XmlSource_8h.html" target="_top" xlink:title="XmlSource.h">
<polygon fill="white" stroke="black" points="730.372,-112.5 730.372,-131.5 807.372,-131.5 807.372,-112.5 730.372,-112.5"/>
<text text-anchor="middle" x="768.872" y="-119.5" font-family="Verdana" font-size="10.00">XmlSource.h</text>
</a>
</g>
</g>
<!-- Node4&#45;&gt;Node12 -->
<g id="edge14" class="edge"><title>Node4&#45;&gt;Node12</title>
<path fill="none" stroke="midnightblue" d="M638.432,-168.444C664.395,-159.399 705.54,-145.064 734.669,-134.916"/>
<polygon fill="midnightblue" stroke="midnightblue" points="736.135,-138.112 744.427,-131.516 733.832,-131.501 736.135,-138.112"/>
</g>
<!-- Node13 -->
<g id="node13" class="node"><title>Node13</title>
<g id="a_node13"><a xlink:href="PathNavigator_8h.html" target="_top" xlink:title="PathNavigator.h">
<polygon fill="white" stroke="black" points="499.872,-112.5 499.872,-131.5 591.872,-131.5 591.872,-112.5 499.872,-112.5"/>
<text text-anchor="middle" x="545.872" y="-119.5" font-family="Verdana" font-size="10.00">PathNavigator.h</text>
</a>
</g>
</g>
<!-- Node4&#45;&gt;Node13 -->
<g id="edge17" class="edge"><title>Node4&#45;&gt;Node13</title>
<path fill="none" stroke="midnightblue" d="M602.947,-168.324C592.697,-160.185 577.151,-147.839 564.871,-138.087"/>
<polygon fill="midnightblue" stroke="midnightblue" points="567.004,-135.312 556.996,-131.834 562.651,-140.794 567.004,-135.312"/>
</g>
<!-- Node10 -->
<g id="node10" class="node"><title>Node10</title>
<g id="a_node10"><a xlink:href="XmlElement_8h.html" target="_top" xlink:title="XmlElement.h">
<polygon fill="white" stroke="black" points="22.3721,-56.5 22.3721,-75.5 105.372,-75.5 105.372,-56.5 22.3721,-56.5"/>
<text text-anchor="middle" x="63.8721" y="-63.5" font-family="Verdana" font-size="10.00">XmlElement.h</text>
</a>
</g>
</g>
<!-- Node9&#45;&gt;Node10 -->
<g id="edge9" class="edge"><title>Node9&#45;&gt;Node10</title>
<path fill="none" stroke="midnightblue" d="M647.615,-117.039C633.309,-115.356 616.264,-113.452 600.872,-112 387.444,-91.8634 332.781,-101.031 119.872,-76 118.405,-75.8275 116.918,-75.6444 115.418,-75.4524"/>
<polygon fill="midnightblue" stroke="midnightblue" points="115.791,-71.9709 105.407,-74.0765 114.838,-78.9057 115.791,-71.9709"/>
</g>
<!-- Node9&#45;&gt;Node11 -->
<g id="edge12" class="edge"><title>Node9&#45;&gt;Node11</title>
<path fill="none" stroke="midnightblue" d="M712.078,-113.818C715.049,-113.19 718.014,-112.575 720.872,-112 784.387,-99.2238 857.438,-86.0526 907.329,-77.2877"/>
<polygon fill="midnightblue" stroke="midnightblue" points="908.054,-80.7141 917.3,-75.5405 906.846,-73.8191 908.054,-80.7141"/>
</g>
<!-- Node10&#45;&gt;Node5 -->
<g id="edge11" class="edge"><title>Node10&#45;&gt;Node5</title>
<path fill="none" stroke="midnightblue" d="M105.492,-60.3952C120.422,-58.8482 137.389,-57.2102 152.872,-56 456.713,-32.2511 825.32,-16.6165 934.772,-12.2482"/>
<polygon fill="midnightblue" stroke="midnightblue" points="934.978,-15.7429 944.832,-11.8494 934.701,-8.74837 934.978,-15.7429"/>
</g>
<!-- Node10&#45;&gt;Node7 -->
<g id="edge10" class="edge"><title>Node10&#45;&gt;Node7</title>
<path fill="none" stroke="midnightblue" d="M63.8721,-56.083C63.8721,-49.0059 63.8721,-38.8611 63.8721,-29.9865"/>
<polygon fill="midnightblue" stroke="midnightblue" points="67.3722,-29.751 63.8721,-19.7511 60.3722,-29.7511 67.3722,-29.751"/>
</g>
<!-- Node11&#45;&gt;Node5 -->
<g id="edge13" class="edge"><title>Node11&#45;&gt;Node5</title>
<path fill="none" stroke="midnightblue" d="M966.872,-56.083C966.872,-49.0059 966.872,-38.8611 966.872,-29.9865"/>
<polygon fill="midnightblue" stroke="midnightblue" points="970.372,-29.751 966.872,-19.7511 963.372,-29.7511 970.372,-29.751"/>
</g>
<!-- Node12&#45;&gt;Node10 -->
<g id="edge15" class="edge"><title>Node12&#45;&gt;Node10</title>
<path fill="none" stroke="midnightblue" d="M730.165,-113.311C727.028,-112.819 723.901,-112.373 720.872,-112 455.29,-79.2787 385.857,-105.267 119.872,-76 118.404,-75.8385 116.915,-75.6649 115.414,-75.4814"/>
<polygon fill="midnightblue" stroke="midnightblue" points="115.774,-71.9985 105.399,-74.1456 114.849,-78.9371 115.774,-71.9985"/>
</g>
<!-- Node12&#45;&gt;Node11 -->
<g id="edge16" class="edge"><title>Node12&#45;&gt;Node11</title>
<path fill="none" stroke="midnightblue" d="M800.246,-112.444C834.135,-103.201 888.275,-88.4356 925.596,-78.2572"/>
<polygon fill="midnightblue" stroke="midnightblue" points="926.918,-81.5243 935.645,-75.5164 925.077,-74.771 926.918,-81.5243"/>
</g>
<!-- Node13&#45;&gt;Node5 -->
<g id="edge19" class="edge"><title>Node13&#45;&gt;Node5</title>
<path fill="none" stroke="midnightblue" d="M547.868,-112.082C551.61,-97.6361 561.149,-69.3907 580.872,-56 638.232,-17.056 852.278,-11.6387 934.459,-11.0164"/>
<polygon fill="midnightblue" stroke="midnightblue" points="934.724,-14.5151 944.704,-10.959 934.685,-7.51518 934.724,-14.5151"/>
</g>
<!-- Node13&#45;&gt;Node6 -->
<g id="edge18" class="edge"><title>Node13&#45;&gt;Node6</title>
<path fill="none" stroke="midnightblue" d="M556.797,-112.324C567.047,-104.185 582.593,-91.8395 594.873,-82.0874"/>
<polygon fill="midnightblue" stroke="midnightblue" points="597.093,-84.7937 602.748,-75.8339 592.74,-79.3119 597.093,-84.7937"/>
</g>
<!-- Node13&#45;&gt;Node7 -->
<g id="edge20" class="edge"><title>Node13&#45;&gt;Node7</title>
<path fill="none" stroke="midnightblue" d="M499.686,-120.591C376.193,-119.021 45.5106,-111.51 12.8721,-76 -2.432,-59.3494 20.4606,-38.5528 40.305,-25.0331"/>
<polygon fill="midnightblue" stroke="midnightblue" points="42.2884,-27.9186 48.781,-19.5462 38.4844,-22.0424 42.2884,-27.9186"/>
</g>
<!-- Node14&#45;&gt;Node5 -->
<g id="edge23" class="edge"><title>Node14&#45;&gt;Node5</title>
<path fill="none" stroke="midnightblue" d="M254.009,-57.6772C258.685,-57.0558 263.368,-56.4819 267.872,-56 524.242,-28.5697 835.429,-15.7084 934.775,-12.0992"/>
<polygon fill="midnightblue" stroke="midnightblue" points="934.909,-15.5967 944.778,-11.7412 934.659,-8.60115 934.909,-15.5967"/>
</g>
<!-- Node14&#45;&gt;Node7 -->
<g id="edge22" class="edge"><title>Node14&#45;&gt;Node7</title>
<path fill="none" stroke="midnightblue" d="M185.055,-56.4435C161.04,-47.4381 123.043,-33.1891 96.0028,-23.049"/>
<polygon fill="midnightblue" stroke="midnightblue" points="97.1748,-19.7506 86.5825,-19.5164 94.7169,-26.3049 97.1748,-19.7506"/>
</g>
<!-- Node15 -->
<g id="node15" class="node"><title>Node15</title>
<polygon fill="white" stroke="#bfbfbf" points="180.872,-0.5 180.872,-19.5 234.872,-19.5 234.872,-0.5 180.872,-0.5"/>
<text text-anchor="middle" x="207.872" y="-7.5" font-family="Verdana" font-size="10.00">fstream</text>
</g>
<!-- Node14&#45;&gt;Node15 -->
<g id="edge24" class="edge"><title>Node14&#45;&gt;Node15</title>
<path fill="none" stroke="midnightblue" d="M207.872,-56.083C207.872,-49.0059 207.872,-38.8611 207.872,-29.9865"/>
<polygon fill="midnightblue" stroke="midnightblue" points="211.372,-29.751 207.872,-19.7511 204.372,-29.7511 211.372,-29.751"/>
</g>
<!-- Node16&#45;&gt;Node5 -->
<g id="edge58" class="edge"><title>Node16&#45;&gt;Node5</title>
<path fill="none" stroke="midnightblue" d="M1155.39,-392.464C1196.36,-375.987 1275.12,-336.383 1259.87,-280 1244.64,-223.672 1170.31,-89.9818 1122.87,-56 1085.65,-29.3369 1032.87,-18.3929 999.248,-13.9546"/>
<polygon fill="midnightblue" stroke="midnightblue" points="999.396,-10.4474 989.05,-12.7305 998.562,-17.3975 999.396,-10.4474"/>
</g>
<!-- Node16&#45;&gt;Node17 -->
<g id="edge28" class="edge"><title>Node16&#45;&gt;Node17</title>
<path fill="none" stroke="midnightblue" d="M1171.49,-392.444C1215.1,-383.023 1285.27,-367.866 1332.45,-357.675"/>
<polygon fill="midnightblue" stroke="midnightblue" points="1333.41,-361.049 1342.44,-355.516 1331.93,-354.207 1333.41,-361.049"/>
</g>
<!-- Node19 -->
<g id="node19" class="node"><title>Node19</title>
<g id="a_node19"><a xlink:href="SelectionCriteriaDefinition_8h.html" target="_top" xlink:title="SelectionCriteriaDefinition.h">
<polygon fill="white" stroke="black" points="454.372,-336.5 454.372,-355.5 603.372,-355.5 603.372,-336.5 454.372,-336.5"/>
<text text-anchor="middle" x="528.872" y="-343.5" font-family="Verdana" font-size="10.00">SelectionCriteriaDefinition.h</text>
</a>
</g>
</g>
<!-- Node16&#45;&gt;Node19 -->
<g id="edge33" class="edge"><title>Node16&#45;&gt;Node19</title>
<path fill="none" stroke="midnightblue" d="M1056.72,-394.27C943.982,-384.174 731.74,-365.167 613.63,-354.59"/>
<polygon fill="midnightblue" stroke="midnightblue" points="613.82,-351.093 603.548,-353.687 613.196,-358.065 613.82,-351.093"/>
</g>
<!-- Node25 -->
<g id="node25" class="node"><title>Node25</title>
<g id="a_node25"><a xlink:href="SystemClass_8h.html" target="_top" xlink:title="SystemClass.h">
<polygon fill="white" stroke="black" points="1065.87,-336.5 1065.87,-355.5 1153.87,-355.5 1153.87,-336.5 1065.87,-336.5"/>
<text text-anchor="middle" x="1109.87" y="-343.5" font-family="Verdana" font-size="10.00">SystemClass.h</text>
</a>
</g>
</g>
<!-- Node16&#45;&gt;Node25 -->
<g id="edge47" class="edge"><title>Node16&#45;&gt;Node25</title>
<path fill="none" stroke="midnightblue" d="M1128.24,-392.083C1125.26,-384.77 1120.95,-374.181 1117.25,-365.103"/>
<polygon fill="midnightblue" stroke="midnightblue" points="1120.45,-363.691 1113.44,-355.751 1113.97,-366.333 1120.45,-363.691"/>
</g>
<!-- Node17&#45;&gt;Node5 -->
<g id="edge32" class="edge"><title>Node17&#45;&gt;Node5</title>
<path fill="none" stroke="midnightblue" d="M1390.18,-336.411C1406.22,-318.887 1439.87,-277.099 1439.87,-235 1439.87,-235 1439.87,-235 1439.87,-121 1439.87,-30.32 1105.9,-14.3654 999.216,-11.5822"/>
<polygon fill="midnightblue" stroke="midnightblue" points="999.132,-8.07928 989.051,-11.3395 998.965,-15.0773 999.132,-8.07928"/>
</g>
<!-- Node18 -->
<g id="node18" class="node"><title>Node18</title>
<g id="a_node18"><a xlink:href="XmlElementSerializingContext_8h.html" target="_top" xlink:title="XmlElementSerializingContext.h">
<polygon fill="white" stroke="black" points="1203.87,-112.5 1203.87,-131.5 1373.87,-131.5 1373.87,-112.5 1203.87,-112.5"/>
<text text-anchor="middle" x="1288.87" y="-119.5" font-family="Verdana" font-size="10.00">XmlElementSerializingContext.h</text>
</a>
</g>
</g>
<!-- Node17&#45;&gt;Node18 -->
<g id="edge29" class="edge"><title>Node17&#45;&gt;Node18</title>
<path fill="none" stroke="midnightblue" d="M1378.23,-336.297C1364.48,-303.494 1315.63,-186.884 1296.57,-141.377"/>
<polygon fill="midnightblue" stroke="midnightblue" points="1299.69,-139.755 1292.59,-131.884 1293.23,-142.459 1299.69,-139.755"/>
</g>
<!-- Node18&#45;&gt;Node5 -->
<g id="edge31" class="edge"><title>Node18&#45;&gt;Node5</title>
<path fill="none" stroke="midnightblue" d="M1278.65,-112.34C1261.48,-98.2654 1225.24,-70.5414 1189.87,-56 1125.25,-29.432 1043.44,-18.0937 999.068,-13.6238"/>
<polygon fill="midnightblue" stroke="midnightblue" points="999.172,-10.118 988.885,-12.6536 998.508,-17.0864 999.172,-10.118"/>
</g>
<!-- Node18&#45;&gt;Node11 -->
<g id="edge30" class="edge"><title>Node18&#45;&gt;Node11</title>
<path fill="none" stroke="midnightblue" d="M1237.85,-112.444C1180.85,-102.885 1088.63,-87.4195 1027.87,-77.2298"/>
<polygon fill="midnightblue" stroke="midnightblue" points="1028.1,-73.7186 1017.66,-75.5164 1026.94,-80.6222 1028.1,-73.7186"/>
</g>
<!-- Node19&#45;&gt;Node4 -->
<g id="edge34" class="edge"><title>Node19&#45;&gt;Node4</title>
<path fill="none" stroke="midnightblue" d="M539.967,-336.482C550.097,-328.173 564.829,-314.673 573.872,-300 594.207,-267.006 605.442,-222.511 610.509,-197.703"/>
<polygon fill="midnightblue" stroke="midnightblue" points="613.961,-198.283 612.414,-187.802 607.087,-196.96 613.961,-198.283"/>
</g>
<!-- Node20 -->
<g id="node20" class="node"><title>Node20</title>
<g id="a_node20"><a xlink:href="SelectionCriterion_8h.html" target="_top" xlink:title="SelectionCriterion.h">
<polygon fill="white" stroke="black" points="454.872,-280.5 454.872,-299.5 564.872,-299.5 564.872,-280.5 454.872,-280.5"/>
<text text-anchor="middle" x="509.872" y="-287.5" font-family="Verdana" font-size="10.00">SelectionCriterion.h</text>
</a>
</g>
</g>
<!-- Node19&#45;&gt;Node20 -->
<g id="edge35" class="edge"><title>Node19&#45;&gt;Node20</title>
<path fill="none" stroke="midnightblue" d="M525.735,-336.083C523.189,-328.849 519.516,-318.409 516.345,-309.397"/>
<polygon fill="midnightblue" stroke="midnightblue" points="519.572,-308.023 512.951,-299.751 512.969,-310.346 519.572,-308.023"/>
</g>
<!-- Node20&#45;&gt;Node4 -->
<g id="edge36" class="edge"><title>Node20&#45;&gt;Node4</title>
<path fill="none" stroke="midnightblue" d="M518.033,-280.368C535.424,-261.974 576.365,-218.671 598.696,-195.052"/>
<polygon fill="midnightblue" stroke="midnightblue" points="601.422,-197.262 605.749,-187.591 596.336,-192.453 601.422,-197.262"/>
</g>
<!-- Node20&#45;&gt;Node5 -->
<g id="edge46" class="edge"><title>Node20&#45;&gt;Node5</title>
<path fill="none" stroke="midnightblue" d="M508.417,-280.394C502.848,-247.035 483.563,-127.346 490.872,-112 507.856,-76.3426 523.432,-71.2326 559.872,-56 627.578,-27.6976 850.777,-15.7779 934.642,-12.224"/>
<polygon fill="midnightblue" stroke="midnightblue" points="934.995,-15.7126 944.842,-11.8042 934.707,-8.71848 934.995,-15.7126"/>
</g>
<!-- Node21 -->
<g id="node21" class="node"><title>Node21</title>
<g id="a_node21"><a xlink:href="SelectionCriterionType_8h.html" target="_top" xlink:title="SelectionCriterionType.h">
<polygon fill="white" stroke="black" points="357.372,-224.5 357.372,-243.5 488.372,-243.5 488.372,-224.5 357.372,-224.5"/>
<text text-anchor="middle" x="422.872" y="-231.5" font-family="Verdana" font-size="10.00">SelectionCriterionType.h</text>
</a>
</g>
</g>
<!-- Node20&#45;&gt;Node21 -->
<g id="edge37" class="edge"><title>Node20&#45;&gt;Node21</title>
<path fill="none" stroke="midnightblue" d="M495.894,-280.324C482.322,-271.9 461.492,-258.971 445.547,-249.074"/>
<polygon fill="midnightblue" stroke="midnightblue" points="447.158,-245.954 436.815,-243.655 443.466,-251.902 447.158,-245.954"/>
</g>
<!-- Node24 -->
<g id="node24" class="node"><title>Node24</title>
<g id="a_node24"><a xlink:href="SelectionCriterionInterface_8h.html" target="_top" xlink:title="SelectionCriterionInterface.h">
<polygon fill="white" stroke="black" points="148.872,-224.5 148.872,-243.5 300.872,-243.5 300.872,-224.5 148.872,-224.5"/>
<text text-anchor="middle" x="224.872" y="-231.5" font-family="Verdana" font-size="10.00">SelectionCriterionInterface.h</text>
</a>
</g>
</g>
<!-- Node20&#45;&gt;Node24 -->
<g id="edge43" class="edge"><title>Node20&#45;&gt;Node24</title>
<path fill="none" stroke="midnightblue" d="M464.713,-280.444C414.579,-270.944 333.652,-255.611 279.866,-245.42"/>
<polygon fill="midnightblue" stroke="midnightblue" points="280.297,-241.939 269.82,-243.516 278.993,-248.817 280.297,-241.939"/>
</g>
<!-- Node21&#45;&gt;Node4 -->
<g id="edge38" class="edge"><title>Node21&#45;&gt;Node4</title>
<path fill="none" stroke="midnightblue" d="M453.137,-224.444C485.827,-215.201 538.054,-200.436 574.055,-190.257"/>
<polygon fill="midnightblue" stroke="midnightblue" points="575.079,-193.605 583.749,-187.516 573.174,-186.869 575.079,-193.605"/>
</g>
<!-- Node21&#45;&gt;Node5 -->
<g id="edge40" class="edge"><title>Node21&#45;&gt;Node5</title>
<path fill="none" stroke="midnightblue" d="M423.993,-224.167C428.419,-189.957 445.056,-67.5131 457.872,-56 493.323,-24.1541 827.848,-14.0652 934.424,-11.6454"/>
<polygon fill="midnightblue" stroke="midnightblue" points="934.656,-15.1412 944.576,-11.4226 934.502,-8.14292 934.656,-15.1412"/>
</g>
<!-- Node21&#45;&gt;Node22 -->
<g id="edge39" class="edge"><title>Node21&#45;&gt;Node22</title>
<path fill="none" stroke="midnightblue" d="M418.744,-224.083C415.358,-216.77 410.456,-206.181 406.253,-197.103"/>
<polygon fill="midnightblue" stroke="midnightblue" points="409.301,-195.355 401.923,-187.751 402.949,-198.296 409.301,-195.355"/>
</g>
<!-- Node23 -->
<g id="node23" class="node"><title>Node23</title>
<g id="a_node23"><a xlink:href="SelectionCriterionTypeInterface_8h.html" target="_top" xlink:title="SelectionCriterionTypeInterface.h">
<polygon fill="white" stroke="black" points="187.372,-168.5 187.372,-187.5 360.372,-187.5 360.372,-168.5 187.372,-168.5"/>
<text text-anchor="middle" x="273.872" y="-175.5" font-family="Verdana" font-size="10.00">SelectionCriterionTypeInterface.h</text>
</a>
</g>
</g>
<!-- Node21&#45;&gt;Node23 -->
<g id="edge41" class="edge"><title>Node21&#45;&gt;Node23</title>
<path fill="none" stroke="midnightblue" d="M399.263,-224.444C374.414,-215.438 335.098,-201.189 307.118,-191.049"/>
<polygon fill="midnightblue" stroke="midnightblue" points="307.965,-187.633 297.371,-187.516 305.58,-194.214 307.965,-187.633"/>
</g>
<!-- Node23&#45;&gt;Node5 -->
<g id="edge42" class="edge"><title>Node23&#45;&gt;Node5</title>
<path fill="none" stroke="midnightblue" d="M303.407,-168.441C324.296,-161.271 352.008,-149.386 371.872,-132 401.934,-105.688 385.705,-76.7036 419.872,-56 463.939,-29.298 824.03,-15.5933 934.663,-11.9846"/>
<polygon fill="midnightblue" stroke="midnightblue" points="934.981,-15.4763 944.864,-11.6576 934.757,-8.47988 934.981,-15.4763"/>
</g>
<!-- Node24&#45;&gt;Node5 -->
<g id="edge44" class="edge"><title>Node24&#45;&gt;Node5</title>
<path fill="none" stroke="midnightblue" d="M210.779,-224.402C191.843,-211.782 162.267,-187.616 177.872,-168 222.17,-112.315 273.312,-169.357 333.872,-132 371.213,-108.966 357.93,-76.2102 396.872,-56 444.67,-31.1936 820.993,-16.1083 934.544,-12.0878"/>
<polygon fill="midnightblue" stroke="midnightblue" points="934.821,-15.5803 944.693,-11.7333 934.577,-8.5846 934.821,-15.5803"/>
</g>
<!-- Node24&#45;&gt;Node23 -->
<g id="edge45" class="edge"><title>Node24&#45;&gt;Node23</title>
<path fill="none" stroke="midnightblue" d="M232.963,-224.083C240.027,-216.298 250.46,-204.801 259.021,-195.367"/>
<polygon fill="midnightblue" stroke="midnightblue" points="261.803,-197.509 265.931,-187.751 256.619,-192.805 261.803,-197.509"/>
</g>
<!-- Node25&#45;&gt;Node5 -->
<g id="edge57" class="edge"><title>Node25&#45;&gt;Node5</title>
<path fill="none" stroke="midnightblue" d="M1107.57,-336.373C1102.93,-318.952 1092.21,-278.309 1083.87,-244 1063.63,-160.711 1091,-125.528 1040.87,-56 1030.34,-41.3923 1013.47,-30.6035 998.49,-23.2575"/>
<polygon fill="midnightblue" stroke="midnightblue" points="999.558,-19.8971 989.008,-18.9217 996.647,-26.2632 999.558,-19.8971"/>
</g>
<!-- Node25&#45;&gt;Node8 -->
<g id="edge56" class="edge"><title>Node25&#45;&gt;Node8</title>
<path fill="none" stroke="midnightblue" d="M1103.8,-336.297C1080.7,-303.217 998.097,-184.909 966.909,-140.241"/>
<polygon fill="midnightblue" stroke="midnightblue" points="969.669,-138.079 961.075,-131.884 963.93,-142.087 969.669,-138.079"/>
</g>
<!-- Node25&#45;&gt;Node26 -->
<g id="edge48" class="edge"><title>Node25&#45;&gt;Node26</title>
<path fill="none" stroke="midnightblue" d="M1066.46,-336.444C1018.36,-326.964 940.777,-311.675 889.066,-301.483"/>
<polygon fill="midnightblue" stroke="midnightblue" points="889.573,-298.016 879.085,-299.516 888.22,-304.884 889.573,-298.016"/>
</g>
<!-- Node27 -->
<g id="node27" class="node"><title>Node27</title>
<g id="a_node27"><a xlink:href="SubsystemPlugins_8h.html" target="_top" xlink:title="SubsystemPlugins.h">
<polygon fill="white" stroke="black" points="1138.37,-280.5 1138.37,-299.5 1251.37,-299.5 1251.37,-280.5 1138.37,-280.5"/>
<text text-anchor="middle" x="1194.87" y="-287.5" font-family="Verdana" font-size="10.00">SubsystemPlugins.h</text>
</a>
</g>
</g>
<!-- Node25&#45;&gt;Node27 -->
<g id="edge51" class="edge"><title>Node25&#45;&gt;Node27</title>
<path fill="none" stroke="midnightblue" d="M1123.53,-336.324C1136.79,-327.9 1157.14,-314.971 1172.72,-305.074"/>
<polygon fill="midnightblue" stroke="midnightblue" points="1174.69,-307.971 1181.25,-299.655 1170.93,-302.063 1174.69,-307.971"/>
</g>
<!-- Node26&#45;&gt;Node4 -->
<g id="edge49" class="edge"><title>Node26&#45;&gt;Node4</title>
<path fill="none" stroke="midnightblue" d="M790.503,-280.47C760.145,-273.525 720.019,-261.896 687.872,-244 664.677,-231.088 642.399,-209.931 628.457,-195.279"/>
<polygon fill="midnightblue" stroke="midnightblue" points="630.982,-192.854 621.616,-187.901 625.849,-197.614 630.982,-192.854"/>
</g>
<!-- Node26&#45;&gt;Node8 -->
<g id="edge50" class="edge"><title>Node26&#45;&gt;Node8</title>
<path fill="none" stroke="midnightblue" d="M869.078,-280.395C888.692,-273.637 912.435,-262.243 926.872,-244 950.544,-214.089 954.87,-167.736 955.284,-141.948"/>
<polygon fill="midnightblue" stroke="midnightblue" points="958.783,-141.67 955.254,-131.68 951.783,-141.69 958.783,-141.67"/>
</g>
<!-- Node27&#45;&gt;Node5 -->
<g id="edge55" class="edge"><title>Node27&#45;&gt;Node5</title>
<path fill="none" stroke="midnightblue" d="M1194.98,-280.376C1194.91,-267.725 1193.9,-243.52 1187.87,-224 1162.88,-143.066 1162.39,-110.888 1097.87,-56 1069.65,-31.9909 1027.95,-20.5814 999.212,-15.3021"/>
<polygon fill="midnightblue" stroke="midnightblue" points="999.705,-11.8358 989.262,-13.6224 998.54,-18.7381 999.705,-11.8358"/>
</g>
<!-- Node28 -->
<g id="node28" class="node"><title>Node28</title>
<g id="a_node28"><a xlink:href="KindElement_8h.html" target="_top" xlink:title="KindElement.h">
<polygon fill="white" stroke="black" points="1092.87,-224.5 1092.87,-243.5 1178.87,-243.5 1178.87,-224.5 1092.87,-224.5"/>
<text text-anchor="middle" x="1135.87" y="-231.5" font-family="Verdana" font-size="10.00">KindElement.h</text>
</a>
</g>
</g>
<!-- Node27&#45;&gt;Node28 -->
<g id="edge52" class="edge"><title>Node27&#45;&gt;Node28</title>
<path fill="none" stroke="midnightblue" d="M1185.39,-280.324C1176.67,-272.341 1163.53,-260.313 1152.97,-250.653"/>
<polygon fill="midnightblue" stroke="midnightblue" points="1155.26,-248.004 1145.52,-243.834 1150.54,-253.167 1155.26,-248.004"/>
</g>
<!-- Node28&#45;&gt;Node4 -->
<g id="edge53" class="edge"><title>Node28&#45;&gt;Node4</title>
<path fill="none" stroke="midnightblue" d="M1092.71,-228.535C994.432,-218.368 754.923,-193.591 656.835,-183.444"/>
<polygon fill="midnightblue" stroke="midnightblue" points="656.997,-179.943 646.69,-182.395 656.277,-186.905 656.997,-179.943"/>
</g>
<!-- Node28&#45;&gt;Node5 -->
<g id="edge54" class="edge"><title>Node28&#45;&gt;Node5</title>
<path fill="none" stroke="midnightblue" d="M1135.39,-224.361C1133.38,-196.309 1123.36,-106.661 1075.87,-56 1055.54,-34.3037 1023.19,-22.7411 999.004,-16.7973"/>
<polygon fill="midnightblue" stroke="midnightblue" points="999.724,-13.3719 989.198,-14.5809 998.18,-20.1996 999.724,-13.3719"/>
</g>
<!-- Node29&#45;&gt;Node5 -->
<g id="edge61" class="edge"><title>Node29&#45;&gt;Node5</title>
<path fill="none" stroke="midnightblue" d="M506.441,-392.499C483.8,-379.363 438.331,-353.794 397.872,-336 286.435,-286.989 210.024,-343.494 139.872,-244 121.825,-218.404 156.743,-178.588 169.872,-168 215.208,-131.44 245.774,-161.702 295.872,-132 336.693,-107.799 327.81,-75.942 370.872,-56 472.363,-8.99989 825.547,-9.24598 934.568,-10.4959"/>
<polygon fill="midnightblue" stroke="midnightblue" points="934.585,-13.9963 944.628,-10.6224 934.673,-6.99683 934.585,-13.9963"/>
</g>
<!-- Node29&#45;&gt;Node8 -->
<g id="edge62" class="edge"><title>Node29&#45;&gt;Node8</title>
<path fill="none" stroke="midnightblue" d="M548.082,-392.367C567.622,-385.101 593.625,-373.129 611.872,-356 661.228,-309.667 636.315,-267.87 687.872,-224 761.718,-161.165 878.636,-135.382 929.661,-126.717"/>
<polygon fill="midnightblue" stroke="midnightblue" points="930.473,-130.131 939.786,-125.078 929.355,-123.221 930.473,-130.131"/>
</g>
<!-- Node29&#45;&gt;Node30 -->
<g id="edge60" class="edge"><title>Node29&#45;&gt;Node30</title>
<path fill="none" stroke="midnightblue" d="M497.421,-392.444C470.416,-382.591 426.208,-366.461 398.369,-356.303"/>
<polygon fill="midnightblue" stroke="midnightblue" points="399.509,-352.993 388.915,-352.854 397.11,-359.569 399.509,-352.993"/>
</g>
<!-- Node31&#45;&gt;Node3 -->
<g id="edge68" class="edge"><title>Node31&#45;&gt;Node3</title>
<path fill="none" stroke="midnightblue" d="M946.914,-280.444C911.085,-271.142 853.709,-256.246 814.481,-246.062"/>
<polygon fill="midnightblue" stroke="midnightblue" points="815.235,-242.642 804.676,-243.516 813.476,-249.417 815.235,-242.642"/>
</g>
<!-- Node31&#45;&gt;Node5 -->
<g id="edge70" class="edge"><title>Node31&#45;&gt;Node5</title>
<path fill="none" stroke="midnightblue" d="M1043.51,-285.599C1161.4,-277.547 1401.87,-252.157 1401.87,-179 1401.87,-179 1401.87,-179 1401.87,-121 1401.87,-37.9489 1100.08,-16.9343 999.24,-12.2307"/>
<polygon fill="midnightblue" stroke="midnightblue" points="999.187,-8.72498 989.042,-11.7793 998.877,-15.7181 999.187,-8.72498"/>
</g>
<!-- Node31&#45;&gt;Node8 -->
<g id="edge69" class="edge"><title>Node31&#45;&gt;Node8</title>
<path fill="none" stroke="midnightblue" d="M979.095,-280.45C977.23,-260.608 972.112,-209.927 964.872,-168 963.355,-159.217 961.265,-149.558 959.388,-141.449"/>
<polygon fill="midnightblue" stroke="midnightblue" points="962.759,-140.494 957.034,-131.578 955.95,-142.118 962.759,-140.494"/>
</g>
<!-- Node32&#45;&gt;Node5 -->
<g id="edge78" class="edge"><title>Node32&#45;&gt;Node5</title>
<path fill="none" stroke="midnightblue" d="M1536.67,-168.361C1525.4,-159.968 1508.67,-146.41 1496.87,-132 1472.28,-101.974 1486.46,-77.0742 1453.87,-56 1415.78,-31.3688 1101.96,-16.5039 999.265,-12.2629"/>
<polygon fill="midnightblue" stroke="midnightblue" points="999.31,-8.762 989.176,-11.8527 999.026,-15.7562 999.31,-8.762"/>
</g>
<!-- Node33 -->
<g id="node33" class="node"><title>Node33</title>
<g id="a_node33"><a xlink:href="ParameterAccessContext_8h.html" target="_top" xlink:title="ParameterAccessContext.h">
<polygon fill="white" stroke="black" points="1506.37,-112.5 1506.37,-131.5 1653.37,-131.5 1653.37,-112.5 1506.37,-112.5"/>
<text text-anchor="middle" x="1579.87" y="-119.5" font-family="Verdana" font-size="10.00">ParameterAccessContext.h</text>
</a>
</g>
</g>
<!-- Node32&#45;&gt;Node33 -->
<g id="edge73" class="edge"><title>Node32&#45;&gt;Node33</title>
<path fill="none" stroke="midnightblue" d="M1553.99,-168.083C1558.28,-160.613 1564.53,-149.724 1569.81,-140.52"/>
<polygon fill="midnightblue" stroke="midnightblue" points="1572.9,-142.166 1574.85,-131.751 1566.83,-138.681 1572.9,-142.166"/>
</g>
<!-- Node33&#45;&gt;Node5 -->
<g id="edge77" class="edge"><title>Node33&#45;&gt;Node5</title>
<path fill="none" stroke="midnightblue" d="M1571.62,-112.346C1557.08,-97.7525 1525.28,-68.6073 1491.87,-56 1400.83,-21.6427 1098.52,-13.3117 998.97,-11.4773"/>
<polygon fill="midnightblue" stroke="midnightblue" points="998.975,-7.97699 988.915,-11.3018 998.853,-14.9759 998.975,-7.97699"/>
</g>
<!-- Node33&#45;&gt;Node7 -->
<g id="edge74" class="edge"><title>Node33&#45;&gt;Node7</title>
<path fill="none" stroke="midnightblue" d="M1505.98,-117.337C1469.02,-115.578 1423.59,-113.526 1382.87,-112 1246.24,-106.88 282.219,-120.309 152.872,-76 123.628,-65.9822 95.8479,-42.72 79.3318,-26.9205"/>
<polygon fill="midnightblue" stroke="midnightblue" points="81.7478,-24.3875 72.1716,-19.8547 76.831,-29.37 81.7478,-24.3875"/>
</g>
<!-- Node34 -->
<g id="node34" class="node"><title>Node34</title>
<g id="a_node34"><a xlink:href="ErrorContext_8h.html" target="_top" xlink:title="ErrorContext.h">
<polygon fill="white" stroke="black" points="1543.87,-56.5 1543.87,-75.5 1629.87,-75.5 1629.87,-56.5 1543.87,-56.5"/>
<text text-anchor="middle" x="1586.87" y="-63.5" font-family="Verdana" font-size="10.00">ErrorContext.h</text>
</a>
</g>
</g>
<!-- Node33&#45;&gt;Node34 -->
<g id="edge75" class="edge"><title>Node33&#45;&gt;Node34</title>
<path fill="none" stroke="midnightblue" d="M1581.03,-112.083C1581.96,-104.927 1583.29,-94.6353 1584.45,-85.6911"/>
<polygon fill="midnightblue" stroke="midnightblue" points="1587.92,-86.1181 1585.74,-75.7511 1580.98,-85.2181 1587.92,-86.1181"/>
</g>
<!-- Node34&#45;&gt;Node5 -->
<g id="edge76" class="edge"><title>Node34&#45;&gt;Node5</title>
<path fill="none" stroke="midnightblue" d="M1543.66,-57.8198C1539.01,-57.1543 1534.35,-56.5316 1529.87,-56 1328.64,-32.1075 1085.41,-17.4646 999.125,-12.7078"/>
<polygon fill="midnightblue" stroke="midnightblue" points="999.107,-9.20169 988.931,-12.1518 998.725,-16.1913 999.107,-9.20169"/>
</g>
<!-- Node35&#45;&gt;Node5 -->
<g id="edge83" class="edge"><title>Node35&#45;&gt;Node5</title>
<path fill="none" stroke="midnightblue" d="M1608.85,-392.321C1633.44,-375.848 1681.87,-337.505 1681.87,-291 1681.87,-291 1681.87,-291 1681.87,-121 1681.87,-86.3618 1668.82,-73.4093 1638.87,-56 1583.19,-23.6291 1125.58,-13.6458 999.136,-11.4921"/>
<polygon fill="midnightblue" stroke="midnightblue" points="998.998,-7.98947 988.942,-11.3234 998.882,-14.9885 998.998,-7.98947"/>
</g>
<!-- Node35&#45;&gt;Node17 -->
<g id="edge82" class="edge"><title>Node35&#45;&gt;Node17</title>
<path fill="none" stroke="midnightblue" d="M1561.12,-392.444C1524.35,-383.122 1465.43,-368.183 1425.25,-357.997"/>
<polygon fill="midnightblue" stroke="midnightblue" points="1426.02,-354.581 1415.46,-355.516 1424.3,-361.367 1426.02,-354.581"/>
</g>
</g>
</svg>
