<?xml version="1.0" encoding="UTF-8" standalone="no"?>
<!DOCTYPE svg PUBLIC "-//W3C//DTD SVG 1.1//EN"
 "http://www.w3.org/Graphics/SVG/1.1/DTD/svg11.dtd">
<!-- Generated by graphviz version 2.38.0 (20140413.2041)
 -->
<!-- Title: parameter/ConfigurationAccessContext.h Pages: 1 -->
<svg width="2607pt" height="106pt"
 viewBox="0.00 0.00 2607.00 106.00" xmlns="http://www.w3.org/2000/svg" xmlns:xlink="http://www.w3.org/1999/xlink">
<g id="graph0" class="graph" transform="scale(1 1) rotate(0) translate(4 102)">
<title>parameter/ConfigurationAccessContext.h</title>
<polygon fill="white" stroke="none" points="-4,4 -4,-102 2603,-102 2603,4 -4,4"/>
<!-- Node1 -->
<g id="node1" class="node"><title>Node1</title>
<polygon fill="#bfbfbf" stroke="black" points="1248.5,-67.5 1248.5,-97.5 1416.5,-97.5 1416.5,-67.5 1248.5,-67.5"/>
<text text-anchor="start" x="1256.5" y="-85.5" font-family="Verdana" font-size="10.00">parameter/ConfigurationAccess</text>
<text text-anchor="middle" x="1332.5" y="-74.5" font-family="Verdana" font-size="10.00">Context.h</text>
</g>
<!-- Node2 -->
<g id="node2" class="node"><title>Node2</title>
<g id="a_node2"><a xlink:href="AreaConfiguration_8cpp.html" target="_top" xlink:title="parameter/AreaConfiguration.cpp">
<polygon fill="white" stroke="black" points="0,-6 0,-25 177,-25 177,-6 0,-6"/>
<text text-anchor="middle" x="88.5" y="-13" font-family="Verdana" font-size="10.00">parameter/AreaConfiguration.cpp</text>
</a>
</g>
</g>
<!-- Node1&#45;&gt;Node2 -->
<g id="edge1" class="edge"><title>Node1&#45;&gt;Node2</title>
<path fill="none" stroke="midnightblue" d="M1237.9,-80.6191C1041.54,-78.067 575.533,-68.2525 186.5,-31 171.091,-29.5245 154.404,-27.2943 139.243,-25.0225"/>
<polygon fill="midnightblue" stroke="midnightblue" points="1238.14,-84.1223 1248.18,-80.7492 1238.23,-77.1228 1238.14,-84.1223"/>
</g>
<!-- Node3 -->
<g id="node3" class="node"><title>Node3</title>
<g id="a_node3"><a xlink:href="ArrayParameter_8cpp.html" target="_top" xlink:title="parameter/ArrayParameter.cpp">
<polygon fill="white" stroke="black" points="195.5,-6 195.5,-25 361.5,-25 361.5,-6 195.5,-6"/>
<text text-anchor="middle" x="278.5" y="-13" font-family="Verdana" font-size="10.00">parameter/ArrayParameter.cpp</text>
</a>
</g>
</g>
<!-- Node1&#45;&gt;Node3 -->
<g id="edge2" class="edge"><title>Node1&#45;&gt;Node3</title>
<path fill="none" stroke="midnightblue" d="M1238.24,-79.7982C1065.66,-75.9611 687.496,-64.2103 370.5,-31 356.188,-29.5006 340.707,-27.2911 326.601,-25.0467"/>
<polygon fill="midnightblue" stroke="midnightblue" points="1238.23,-83.2988 1248.31,-80.0182 1238.39,-76.3004 1238.23,-83.2988"/>
</g>
<!-- Node4 -->
<g id="node4" class="node"><title>Node4</title>
<g id="a_node4"><a xlink:href="BaseParameter_8cpp.html" target="_top" xlink:title="parameter/BaseParameter.cpp">
<polygon fill="white" stroke="black" points="379.5,-6 379.5,-25 543.5,-25 543.5,-6 379.5,-6"/>
<text text-anchor="middle" x="461.5" y="-13" font-family="Verdana" font-size="10.00">parameter/BaseParameter.cpp</text>
</a>
</g>
</g>
<!-- Node1&#45;&gt;Node4 -->
<g id="edge3" class="edge"><title>Node1&#45;&gt;Node4</title>
<path fill="none" stroke="midnightblue" d="M1237.97,-78.2288C1091,-72.5009 798.942,-58.551 552.5,-31 538.509,-29.4359 523.384,-27.2337 509.558,-25.017"/>
<polygon fill="midnightblue" stroke="midnightblue" points="1238.17,-81.7391 1248.3,-78.6271 1238.44,-74.7443 1238.17,-81.7391"/>
</g>
<!-- Node5 -->
<g id="node5" class="node"><title>Node5</title>
<g id="a_node5"><a xlink:href="BitParameter_8cpp.html" target="_top" xlink:title="parameter/BitParameter.cpp">
<polygon fill="white" stroke="black" points="562,-6 562,-25 715,-25 715,-6 562,-6"/>
<text text-anchor="middle" x="638.5" y="-13" font-family="Verdana" font-size="10.00">parameter/BitParameter.cpp</text>
</a>
</g>
</g>
<!-- Node1&#45;&gt;Node5 -->
<g id="edge4" class="edge"><title>Node1&#45;&gt;Node5</title>
<path fill="none" stroke="midnightblue" d="M1237.94,-76.1199C1118.15,-68.7365 905.502,-53.7349 724.5,-31 711.58,-29.3772 697.635,-27.2083 684.812,-25.0434"/>
<polygon fill="midnightblue" stroke="midnightblue" points="1237.98,-79.6287 1248.18,-76.7461 1238.41,-72.6418 1237.98,-79.6287"/>
</g>
<!-- Node6 -->
<g id="node6" class="node"><title>Node6</title>
<g id="a_node6"><a xlink:href="ConfigurableDomain_8cpp.html" target="_top" xlink:title="parameter/ConfigurableDomain.cpp">
<polygon fill="white" stroke="black" points="733.5,-6 733.5,-25 921.5,-25 921.5,-6 733.5,-6"/>
<text text-anchor="middle" x="827.5" y="-13" font-family="Verdana" font-size="10.00">parameter/ConfigurableDomain.cpp</text>
</a>
</g>
</g>
<!-- Node1&#45;&gt;Node6 -->
<g id="edge5" class="edge"><title>Node1&#45;&gt;Node6</title>
<path fill="none" stroke="midnightblue" d="M1237.9,-70.0199C1156.41,-60.0331 1035.64,-45.0044 930.5,-31 916.359,-29.1165 901.137,-27.0147 886.847,-25.0086"/>
<polygon fill="midnightblue" stroke="midnightblue" points="1237.79,-73.532 1248.14,-71.2732 1238.64,-66.5839 1237.79,-73.532"/>
</g>
<!-- Node7 -->
<g id="node7" class="node"><title>Node7</title>
<g id="a_node7"><a xlink:href="ConfigurableElement_8cpp.html" target="_top" xlink:title="parameter/ConfigurableElement.cpp">
<polygon fill="white" stroke="black" points="940,-6 940,-25 1131,-25 1131,-6 940,-6"/>
<text text-anchor="middle" x="1035.5" y="-13" font-family="Verdana" font-size="10.00">parameter/ConfigurableElement.cpp</text>
</a>
</g>
</g>
<!-- Node1&#45;&gt;Node7 -->
<g id="edge6" class="edge"><title>Node1&#45;&gt;Node7</title>
<path fill="none" stroke="midnightblue" d="M1258.51,-65.3074C1200.16,-52.5371 1121.09,-35.2327 1074.47,-25.0287"/>
<polygon fill="midnightblue" stroke="midnightblue" points="1257.9,-68.757 1268.42,-67.476 1259.4,-61.9189 1257.9,-68.757"/>
</g>
<!-- Node8 -->
<g id="node8" class="node"><title>Node8</title>
<g id="a_node8"><a xlink:href="ConfigurationAccessContext_8cpp.html" target="_top" xlink:title="parameter/ConfigurationAccess\lContext.cpp">
<polygon fill="white" stroke="black" points="1149.5,-0.5 1149.5,-30.5 1317.5,-30.5 1317.5,-0.5 1149.5,-0.5"/>
<text text-anchor="start" x="1157.5" y="-18.5" font-family="Verdana" font-size="10.00">parameter/ConfigurationAccess</text>
<text text-anchor="middle" x="1233.5" y="-7.5" font-family="Verdana" font-size="10.00">Context.cpp</text>
</a>
</g>
</g>
<!-- Node1&#45;&gt;Node8 -->
<g id="edge7" class="edge"><title>Node1&#45;&gt;Node8</title>
<path fill="none" stroke="midnightblue" d="M1302.39,-61.7337C1287.08,-51.6755 1268.81,-39.6847 1254.94,-30.5765"/>
<polygon fill="midnightblue" stroke="midnightblue" points="1300.74,-64.8333 1311.02,-67.396 1304.58,-58.9818 1300.74,-64.8333"/>
</g>
<!-- Node9 -->
<g id="node9" class="node"><title>Node9</title>
<g id="a_node9"><a xlink:href="DomainConfiguration_8cpp.html" target="_top" xlink:title="parameter/DomainConfiguration.cpp">
<polygon fill="white" stroke="black" points="1335.5,-6 1335.5,-25 1527.5,-25 1527.5,-6 1335.5,-6"/>
<text text-anchor="middle" x="1431.5" y="-13" font-family="Verdana" font-size="10.00">parameter/DomainConfiguration.cpp</text>
</a>
</g>
</g>
<!-- Node1&#45;&gt;Node9 -->
<g id="edge8" class="edge"><title>Node1&#45;&gt;Node9</title>
<path fill="none" stroke="midnightblue" d="M1362.49,-61.808C1381.22,-49.5117 1404.38,-34.3034 1418.54,-25.007"/>
<polygon fill="midnightblue" stroke="midnightblue" points="1360.42,-58.9818 1353.98,-67.396 1364.26,-64.8333 1360.42,-58.9818"/>
</g>
<!-- Node10 -->
<g id="node10" class="node"><title>Node10</title>
<g id="a_node10"><a xlink:href="FixedPointParameterType_8cpp.html" target="_top" xlink:title="parameter/FixedPointParameter\lType.cpp">
<polygon fill="white" stroke="black" points="1546,-0.5 1546,-30.5 1715,-30.5 1715,-0.5 1546,-0.5"/>
<text text-anchor="start" x="1554" y="-18.5" font-family="Verdana" font-size="10.00">parameter/FixedPointParameter</text>
<text text-anchor="middle" x="1630.5" y="-7.5" font-family="Verdana" font-size="10.00">Type.cpp</text>
</a>
</g>
</g>
<!-- Node1&#45;&gt;Node10 -->
<g id="edge9" class="edge"><title>Node1&#45;&gt;Node10</title>
<path fill="none" stroke="midnightblue" d="M1406.7,-65.3156C1455.68,-54.633 1519.21,-40.7749 1566.06,-30.5549"/>
<polygon fill="midnightblue" stroke="midnightblue" points="1405.82,-61.9252 1396.79,-67.476 1407.31,-68.7644 1405.82,-61.9252"/>
</g>
<!-- Node11 -->
<g id="node11" class="node"><title>Node11</title>
<g id="a_node11"><a xlink:href="FloatingPointParameterType_8cpp.html" target="_top" xlink:title="parameter/FloatingPointParameter\lType.cpp">
<polygon fill="white" stroke="black" points="1733.5,-0.5 1733.5,-30.5 1915.5,-30.5 1915.5,-0.5 1733.5,-0.5"/>
<text text-anchor="start" x="1741.5" y="-18.5" font-family="Verdana" font-size="10.00">parameter/FloatingPointParameter</text>
<text text-anchor="middle" x="1824.5" y="-7.5" font-family="Verdana" font-size="10.00">Type.cpp</text>
</a>
</g>
</g>
<!-- Node1&#45;&gt;Node11 -->
<g id="edge10" class="edge"><title>Node1&#45;&gt;Node11</title>
<path fill="none" stroke="midnightblue" d="M1426.65,-69.7968C1506.09,-59.8198 1622.8,-44.9239 1724.5,-31 1727.45,-30.5955 1730.46,-30.1808 1733.49,-29.759"/>
<polygon fill="midnightblue" stroke="midnightblue" points="1426.15,-66.3317 1416.67,-71.0494 1427.02,-73.2773 1426.15,-66.3317"/>
</g>
<!-- Node12 -->
<g id="node12" class="node"><title>Node12</title>
<g id="a_node12"><a xlink:href="Parameter_8cpp.html" target="_top" xlink:title="parameter/Parameter.cpp">
<polygon fill="white" stroke="black" points="1933.5,-6 1933.5,-25 2073.5,-25 2073.5,-6 1933.5,-6"/>
<text text-anchor="middle" x="2003.5" y="-13" font-family="Verdana" font-size="10.00">parameter/Parameter.cpp</text>
</a>
</g>
</g>
<!-- Node1&#45;&gt;Node12 -->
<g id="edge11" class="edge"><title>Node1&#45;&gt;Node12</title>
<path fill="none" stroke="midnightblue" d="M1426.6,-76.2814C1543.65,-69.1454 1749.41,-54.4804 1924.5,-31 1936.52,-29.3875 1949.5,-27.1963 1961.39,-25.0061"/>
<polygon fill="midnightblue" stroke="midnightblue" points="1426.37,-72.7891 1416.6,-76.8862 1426.79,-79.7763 1426.37,-72.7891"/>
</g>
<!-- Node13 -->
<g id="node13" class="node"><title>Node13</title>
<g id="a_node13"><a xlink:href="ParameterMgr_8cpp.html" target="_top" xlink:title="parameter/ParameterMgr.cpp">
<polygon fill="white" stroke="black" points="2091.5,-6 2091.5,-25 2249.5,-25 2249.5,-6 2091.5,-6"/>
<text text-anchor="middle" x="2170.5" y="-13" font-family="Verdana" font-size="10.00">parameter/ParameterMgr.cpp</text>
</a>
</g>
</g>
<!-- Node1&#45;&gt;Node13 -->
<g id="edge12" class="edge"><title>Node1&#45;&gt;Node13</title>
<path fill="none" stroke="midnightblue" d="M1426.55,-78.0702C1568.88,-72.2243 1847.34,-58.2269 2082.5,-31 2096.04,-29.4329 2110.66,-27.2297 2124.03,-25.0131"/>
<polygon fill="midnightblue" stroke="midnightblue" points="1426.39,-74.5738 1416.54,-78.4771 1426.67,-81.568 1426.39,-74.5738"/>
</g>
<!-- Node14 -->
<g id="node14" class="node"><title>Node14</title>
<g id="a_node14"><a xlink:href="StringParameter_8cpp.html" target="_top" xlink:title="parameter/StringParameter.cpp">
<polygon fill="white" stroke="black" points="2267,-6 2267,-25 2436,-25 2436,-6 2267,-6"/>
<text text-anchor="middle" x="2351.5" y="-13" font-family="Verdana" font-size="10.00">parameter/StringParameter.cpp</text>
</a>
</g>
</g>
<!-- Node1&#45;&gt;Node14 -->
<g id="edge13" class="edge"><title>Node1&#45;&gt;Node14</title>
<path fill="none" stroke="midnightblue" d="M1426.71,-79.4782C1594.38,-75.1857 1955.45,-62.8072 2258.5,-31 2272.96,-29.4819 2288.61,-27.2668 2302.87,-25.0228"/>
<polygon fill="midnightblue" stroke="midnightblue" points="1426.58,-75.98 1416.67,-79.7312 1426.76,-82.9778 1426.58,-75.98"/>
</g>
<!-- Node15 -->
<g id="node15" class="node"><title>Node15</title>
<g id="a_node15"><a xlink:href="Subsystem_8cpp.html" target="_top" xlink:title="parameter/Subsystem.cpp">
<polygon fill="white" stroke="black" points="2454,-6 2454,-25 2599,-25 2599,-6 2454,-6"/>
<text text-anchor="middle" x="2526.5" y="-13" font-family="Verdana" font-size="10.00">parameter/Subsystem.cpp</text>
</a>
</g>
</g>
<!-- Node1&#45;&gt;Node15 -->
<g id="edge14" class="edge"><title>Node1&#45;&gt;Node15</title>
<path fill="none" stroke="midnightblue" d="M1426.63,-81.4053C1618.76,-80.2929 2069.68,-72.9789 2445.5,-31 2458.42,-29.5568 2472.39,-27.3075 2485.03,-25.0074"/>
<polygon fill="midnightblue" stroke="midnightblue" points="1426.55,-77.9056 1416.57,-81.4593 1426.59,-84.9055 1426.55,-77.9056"/>
</g>
</g>
</svg>
