<?xml version="1.0" encoding="UTF-8" standalone="no"?>
<!DOCTYPE svg PUBLIC "-//W3C//DTD SVG 1.1//EN"
 "http://www.w3.org/Graphics/SVG/1.1/DTD/svg11.dtd">
<!-- Generated by graphviz version 2.38.0 (20140413.2041)
 -->
<!-- Title: parameter/ConfigurableElementWithMapping.h Pages: 1 -->
<svg width="2775pt" height="363pt"
 viewBox="0.00 0.00 2774.50 363.00" xmlns="http://www.w3.org/2000/svg" xmlns:xlink="http://www.w3.org/1999/xlink">
<g id="graph0" class="graph" transform="scale(1 1) rotate(0) translate(4 359)">
<title>parameter/ConfigurableElementWithMapping.h</title>
<polygon fill="white" stroke="none" points="-4,4 -4,-359 2770.5,-359 2770.5,4 -4,4"/>
<!-- Node1 -->
<g id="node1" class="node"><title>Node1</title>
<polygon fill="#bfbfbf" stroke="black" points="1196.5,-324.5 1196.5,-354.5 1366.5,-354.5 1366.5,-324.5 1196.5,-324.5"/>
<text text-anchor="start" x="1204.5" y="-342.5" font-family="Verdana" font-size="10.00">parameter/ConfigurableElement</text>
<text text-anchor="middle" x="1281.5" y="-331.5" font-family="Verdana" font-size="10.00">WithMapping.h</text>
</g>
<!-- Node2 -->
<g id="node2" class="node"><title>Node2</title>
<g id="a_node2"><a xlink:href="InstanceConfigurableElement_8h.html" target="_top" xlink:title="parameter/InstanceConfigurable\lElement.h">
<polygon fill="white" stroke="black" points="1880,-257.5 1880,-287.5 2051,-287.5 2051,-257.5 1880,-257.5"/>
<text text-anchor="start" x="1888" y="-275.5" font-family="Verdana" font-size="10.00">parameter/InstanceConfigurable</text>
<text text-anchor="middle" x="1965.5" y="-264.5" font-family="Verdana" font-size="10.00">Element.h</text>
</a>
</g>
</g>
<!-- Node1&#45;&gt;Node2 -->
<g id="edge1" class="edge"><title>Node1&#45;&gt;Node2</title>
<path fill="none" stroke="midnightblue" d="M1376.98,-329.427C1510.73,-316.717 1751.83,-293.805 1879.99,-281.626"/>
<polygon fill="midnightblue" stroke="midnightblue" points="1376.37,-325.969 1366.75,-330.399 1377.03,-332.937 1376.37,-325.969"/>
</g>
<!-- Node35 -->
<g id="node35" class="node"><title>Node35</title>
<g id="a_node35"><a xlink:href="Subsystem_8h.html" target="_top" xlink:title="parameter/Subsystem.h">
<polygon fill="white" stroke="black" points="512.5,-263 512.5,-282 646.5,-282 646.5,-263 512.5,-263"/>
<text text-anchor="middle" x="579.5" y="-270" font-family="Verdana" font-size="10.00">parameter/Subsystem.h</text>
</a>
</g>
</g>
<!-- Node1&#45;&gt;Node35 -->
<g id="edge37" class="edge"><title>Node1&#45;&gt;Node35</title>
<path fill="none" stroke="midnightblue" d="M1186.31,-329.687C1042.15,-316.338 771.994,-291.323 646.606,-279.714"/>
<polygon fill="midnightblue" stroke="midnightblue" points="1186.19,-333.19 1196.47,-330.627 1186.84,-326.22 1186.19,-333.19"/>
</g>
<!-- Node3 -->
<g id="node3" class="node"><title>Node3</title>
<g id="a_node3"><a xlink:href="BaseParameter_8h.html" target="_top" xlink:title="parameter/BaseParameter.h">
<polygon fill="white" stroke="black" points="1425,-196 1425,-215 1578,-215 1578,-196 1425,-196"/>
<text text-anchor="middle" x="1501.5" y="-203" font-family="Verdana" font-size="10.00">parameter/BaseParameter.h</text>
</a>
</g>
</g>
<!-- Node2&#45;&gt;Node3 -->
<g id="edge2" class="edge"><title>Node2&#45;&gt;Node3</title>
<path fill="none" stroke="midnightblue" d="M1869.94,-258.114C1777.62,-245.18 1640.56,-225.981 1562.25,-215.01"/>
<polygon fill="midnightblue" stroke="midnightblue" points="1869.47,-261.581 1879.85,-259.502 1870.44,-254.649 1869.47,-261.581"/>
</g>
<!-- Node20 -->
<g id="node20" class="node"><title>Node20</title>
<g id="a_node20"><a xlink:href="BitParameterBlock_8h.html" target="_top" xlink:title="parameter/BitParameterBlock.h">
<polygon fill="white" stroke="black" points="820.5,-196 820.5,-215 988.5,-215 988.5,-196 820.5,-196"/>
<text text-anchor="middle" x="904.5" y="-203" font-family="Verdana" font-size="10.00">parameter/BitParameterBlock.h</text>
</a>
</g>
</g>
<!-- Node2&#45;&gt;Node20 -->
<g id="edge20" class="edge"><title>Node2&#45;&gt;Node20</title>
<path fill="none" stroke="midnightblue" d="M1869.39,-265.612C1663.6,-253.004 1183.28,-223.579 988.646,-211.655"/>
<polygon fill="midnightblue" stroke="midnightblue" points="1869.38,-269.118 1879.57,-266.236 1869.81,-262.131 1869.38,-269.118"/>
</g>
<!-- Node23 -->
<g id="node23" class="node"><title>Node23</title>
<g id="a_node23"><a xlink:href="Component_8h.html" target="_top" xlink:title="parameter/Component.h">
<polygon fill="white" stroke="black" points="1897.5,-196 1897.5,-215 2033.5,-215 2033.5,-196 1897.5,-196"/>
<text text-anchor="middle" x="1965.5" y="-203" font-family="Verdana" font-size="10.00">parameter/Component.h</text>
</a>
</g>
</g>
<!-- Node2&#45;&gt;Node23 -->
<g id="edge24" class="edge"><title>Node2&#45;&gt;Node23</title>
<path fill="none" stroke="midnightblue" d="M1965.5,-247.25C1965.5,-236.017 1965.5,-223.377 1965.5,-215.195"/>
<polygon fill="midnightblue" stroke="midnightblue" points="1962,-247.396 1965.5,-257.396 1969,-247.396 1962,-247.396"/>
</g>
<!-- Node29 -->
<g id="node29" class="node"><title>Node29</title>
<g id="a_node29"><a xlink:href="FormattedSubsystemObject_8cpp.html" target="_top" xlink:title="parameter/FormattedSubsystem\lObject.cpp">
<polygon fill="white" stroke="black" points="2052,-190.5 2052,-220.5 2227,-220.5 2227,-190.5 2052,-190.5"/>
<text text-anchor="start" x="2060" y="-208.5" font-family="Verdana" font-size="10.00">parameter/FormattedSubsystem</text>
<text text-anchor="middle" x="2139.5" y="-197.5" font-family="Verdana" font-size="10.00">Object.cpp</text>
</a>
</g>
</g>
<!-- Node2&#45;&gt;Node29 -->
<g id="edge31" class="edge"><title>Node2&#45;&gt;Node29</title>
<path fill="none" stroke="midnightblue" d="M2012.83,-253.819C2040.8,-243.371 2075.73,-230.323 2101.82,-220.577"/>
<polygon fill="midnightblue" stroke="midnightblue" points="2011.4,-250.618 2003.26,-257.396 2013.85,-257.175 2011.4,-250.618"/>
</g>
<!-- Node30 -->
<g id="node30" class="node"><title>Node30</title>
<g id="a_node30"><a xlink:href="InstanceConfigurableElement_8cpp.html" target="_top" xlink:title="parameter/InstanceConfigurable\lElement.cpp">
<polygon fill="white" stroke="black" points="2245,-190.5 2245,-220.5 2416,-220.5 2416,-190.5 2245,-190.5"/>
<text text-anchor="start" x="2253" y="-208.5" font-family="Verdana" font-size="10.00">parameter/InstanceConfigurable</text>
<text text-anchor="middle" x="2330.5" y="-197.5" font-family="Verdana" font-size="10.00">Element.cpp</text>
</a>
</g>
</g>
<!-- Node2&#45;&gt;Node30 -->
<g id="edge32" class="edge"><title>Node2&#45;&gt;Node30</title>
<path fill="none" stroke="midnightblue" d="M2054.14,-255.715C2114.42,-244.981 2193.47,-230.903 2251.58,-220.555"/>
<polygon fill="midnightblue" stroke="midnightblue" points="2053.48,-252.277 2044.25,-257.476 2054.71,-259.168 2053.48,-252.277"/>
</g>
<!-- Node31 -->
<g id="node31" class="node"><title>Node31</title>
<g id="a_node31"><a xlink:href="ParameterBlock_8h.html" target="_top" xlink:title="parameter/ParameterBlock.h">
<polygon fill="white" stroke="black" points="2434,-196 2434,-215 2589,-215 2589,-196 2434,-196"/>
<text text-anchor="middle" x="2511.5" y="-203" font-family="Verdana" font-size="10.00">parameter/ParameterBlock.h</text>
</a>
</g>
</g>
<!-- Node2&#45;&gt;Node31 -->
<g id="edge33" class="edge"><title>Node2&#45;&gt;Node31</title>
<path fill="none" stroke="midnightblue" d="M2061.35,-262.519C2154.34,-253.438 2299.35,-238.3 2424.5,-221 2437.09,-219.26 2450.66,-217.124 2463.25,-215.031"/>
<polygon fill="midnightblue" stroke="midnightblue" points="2060.73,-259.063 2051.12,-263.515 2061.41,-266.03 2060.73,-259.063"/>
</g>
<!-- Node33 -->
<g id="node33" class="node"><title>Node33</title>
<g id="a_node33"><a xlink:href="SubsystemObject_8cpp.html" target="_top" xlink:title="parameter/SubsystemObject.cpp">
<polygon fill="white" stroke="black" points="626.5,-196 626.5,-215 802.5,-215 802.5,-196 626.5,-196"/>
<text text-anchor="middle" x="714.5" y="-203" font-family="Verdana" font-size="10.00">parameter/SubsystemObject.cpp</text>
</a>
</g>
</g>
<!-- Node2&#45;&gt;Node33 -->
<g id="edge35" class="edge"><title>Node2&#45;&gt;Node33</title>
<path fill="none" stroke="midnightblue" d="M1869.79,-270.694C1671.78,-268.282 1202.93,-258.716 811.5,-221 796.246,-219.53 779.729,-217.302 764.722,-215.03"/>
<polygon fill="midnightblue" stroke="midnightblue" points="1869.83,-274.195 1879.87,-270.814 1869.91,-267.195 1869.83,-274.195"/>
</g>
<!-- Node34 -->
<g id="node34" class="node"><title>Node34</title>
<g id="a_node34"><a xlink:href="TypeElement_8cpp.html" target="_top" xlink:title="parameter/TypeElement.cpp">
<polygon fill="white" stroke="black" points="2607.5,-196 2607.5,-215 2759.5,-215 2759.5,-196 2607.5,-196"/>
<text text-anchor="middle" x="2683.5" y="-203" font-family="Verdana" font-size="10.00">parameter/TypeElement.cpp</text>
</a>
</g>
</g>
<!-- Node2&#45;&gt;Node34 -->
<g id="edge36" class="edge"><title>Node2&#45;&gt;Node34</title>
<path fill="none" stroke="midnightblue" d="M2061.32,-266.454C2185.37,-259.323 2408.11,-244.487 2597.5,-221 2610.42,-219.397 2624.37,-217.235 2637.19,-215.07"/>
<polygon fill="midnightblue" stroke="midnightblue" points="2060.88,-262.973 2051.1,-267.037 2061.28,-269.962 2060.88,-262.973"/>
</g>
<!-- Node4 -->
<g id="node4" class="node"><title>Node4</title>
<g id="a_node4"><a xlink:href="Parameter_8h.html" target="_top" xlink:title="parameter/Parameter.h">
<polygon fill="white" stroke="black" points="1354,-129 1354,-148 1483,-148 1483,-129 1354,-129"/>
<text text-anchor="middle" x="1418.5" y="-136" font-family="Verdana" font-size="10.00">parameter/Parameter.h</text>
</a>
</g>
</g>
<!-- Node3&#45;&gt;Node4 -->
<g id="edge3" class="edge"><title>Node3&#45;&gt;Node4</title>
<path fill="none" stroke="midnightblue" d="M1482.43,-189.568C1466.05,-176.738 1443,-158.685 1429.52,-148.127"/>
<polygon fill="midnightblue" stroke="midnightblue" points="1480.28,-192.324 1490.31,-195.734 1484.59,-186.813 1480.28,-192.324"/>
</g>
<!-- Node11 -->
<g id="node11" class="node"><title>Node11</title>
<g id="a_node11"><a xlink:href="BaseParameter_8cpp.html" target="_top" xlink:title="parameter/BaseParameter.cpp">
<polygon fill="white" stroke="black" points="1501.5,-129 1501.5,-148 1665.5,-148 1665.5,-129 1501.5,-129"/>
<text text-anchor="middle" x="1583.5" y="-136" font-family="Verdana" font-size="10.00">parameter/BaseParameter.cpp</text>
</a>
</g>
</g>
<!-- Node3&#45;&gt;Node11 -->
<g id="edge11" class="edge"><title>Node3&#45;&gt;Node11</title>
<path fill="none" stroke="midnightblue" d="M1520.78,-189.213C1536.94,-176.407 1559.42,-158.588 1572.62,-148.127"/>
<polygon fill="midnightblue" stroke="midnightblue" points="1518.22,-186.779 1512.56,-195.734 1522.57,-192.265 1518.22,-186.779"/>
</g>
<!-- Node12 -->
<g id="node12" class="node"><title>Node12</title>
<g id="a_node12"><a xlink:href="BitParameter_8h.html" target="_top" xlink:title="parameter/BitParameter.h">
<polygon fill="white" stroke="black" points="1193.5,-129 1193.5,-148 1335.5,-148 1335.5,-129 1193.5,-129"/>
<text text-anchor="middle" x="1264.5" y="-136" font-family="Verdana" font-size="10.00">parameter/BitParameter.h</text>
</a>
</g>
</g>
<!-- Node3&#45;&gt;Node12 -->
<g id="edge12" class="edge"><title>Node3&#45;&gt;Node12</title>
<path fill="none" stroke="midnightblue" d="M1460.2,-193.172C1413.33,-180.319 1337.94,-159.643 1295.72,-148.064"/>
<polygon fill="midnightblue" stroke="midnightblue" points="1459.46,-196.599 1470.03,-195.869 1461.31,-189.848 1459.46,-196.599"/>
</g>
<!-- Node16 -->
<g id="node16" class="node"><title>Node16</title>
<g id="a_node16"><a xlink:href="ParameterHandle_8cpp.html" target="_top" xlink:title="parameter/ParameterHandle.cpp">
<polygon fill="white" stroke="black" points="1000,-129 1000,-148 1175,-148 1175,-129 1000,-129"/>
<text text-anchor="middle" x="1087.5" y="-136" font-family="Verdana" font-size="10.00">parameter/ParameterHandle.cpp</text>
</a>
</g>
</g>
<!-- Node3&#45;&gt;Node16 -->
<g id="edge16" class="edge"><title>Node3&#45;&gt;Node16</title>
<path fill="none" stroke="midnightblue" d="M1436.85,-194.35C1355.67,-181.605 1217.85,-159.965 1141.84,-148.032"/>
<polygon fill="midnightblue" stroke="midnightblue" points="1436.53,-197.842 1446.95,-195.936 1437.61,-190.927 1436.53,-197.842"/>
</g>
<!-- Node17 -->
<g id="node17" class="node"><title>Node17</title>
<g id="a_node17"><a xlink:href="StringParameter_8h.html" target="_top" xlink:title="parameter/StringParameter.h">
<polygon fill="white" stroke="black" points="1683.5,-129 1683.5,-148 1841.5,-148 1841.5,-129 1683.5,-129"/>
<text text-anchor="middle" x="1762.5" y="-136" font-family="Verdana" font-size="10.00">parameter/StringParameter.h</text>
</a>
</g>
</g>
<!-- Node3&#45;&gt;Node17 -->
<g id="edge17" class="edge"><title>Node3&#45;&gt;Node17</title>
<path fill="none" stroke="midnightblue" d="M1545.73,-193.484C1597.22,-180.663 1681.15,-159.76 1728.03,-148.083"/>
<polygon fill="midnightblue" stroke="midnightblue" points="1544.75,-190.123 1535.89,-195.936 1546.44,-196.915 1544.75,-190.123"/>
</g>
<!-- Node5 -->
<g id="node5" class="node"><title>Node5</title>
<g id="a_node5"><a xlink:href="ArrayParameter_8h.html" target="_top" xlink:title="parameter/ArrayParameter.h">
<polygon fill="white" stroke="black" points="1506,-62 1506,-81 1661,-81 1661,-62 1506,-62"/>
<text text-anchor="middle" x="1583.5" y="-69" font-family="Verdana" font-size="10.00">parameter/ArrayParameter.h</text>
</a>
</g>
</g>
<!-- Node4&#45;&gt;Node5 -->
<g id="edge4" class="edge"><title>Node4&#45;&gt;Node5</title>
<path fill="none" stroke="midnightblue" d="M1449.97,-125.104C1482.73,-112.198 1533.17,-92.3272 1561.76,-81.0637"/>
<polygon fill="midnightblue" stroke="midnightblue" points="1448.43,-121.947 1440.41,-128.869 1451,-128.46 1448.43,-121.947"/>
</g>
<!-- Node7 -->
<g id="node7" class="node"><title>Node7</title>
<g id="a_node7"><a xlink:href="ParameterType_8cpp.html" target="_top" xlink:title="parameter/ParameterType.cpp">
<polygon fill="white" stroke="black" points="1186.5,-0.5 1186.5,-19.5 1348.5,-19.5 1348.5,-0.5 1186.5,-0.5"/>
<text text-anchor="middle" x="1267.5" y="-7.5" font-family="Verdana" font-size="10.00">parameter/ParameterType.cpp</text>
</a>
</g>
</g>
<!-- Node4&#45;&gt;Node7 -->
<g id="edge10" class="edge"><title>Node4&#45;&gt;Node7</title>
<path fill="none" stroke="midnightblue" d="M1365.32,-127.013C1358.32,-125.652 1351.24,-124.286 1344.5,-123 1301.43,-114.784 1178.53,-120.715 1150.5,-87 1141.69,-76.4061 1142.7,-67.3572 1150.5,-56 1163.62,-36.8943 1186.07,-25.8971 1207.82,-19.5684"/>
<polygon fill="midnightblue" stroke="midnightblue" points="1364.99,-130.514 1375.47,-128.993 1366.33,-123.643 1364.99,-130.514"/>
</g>
<!-- Node8 -->
<g id="node8" class="node"><title>Node8</title>
<g id="a_node8"><a xlink:href="FixedPointParameterType_8cpp.html" target="_top" xlink:title="parameter/FixedPointParameter\lType.cpp">
<polygon fill="white" stroke="black" points="1160,-56.5 1160,-86.5 1329,-86.5 1329,-56.5 1160,-56.5"/>
<text text-anchor="start" x="1168" y="-74.5" font-family="Verdana" font-size="10.00">parameter/FixedPointParameter</text>
<text text-anchor="middle" x="1244.5" y="-63.5" font-family="Verdana" font-size="10.00">Type.cpp</text>
</a>
</g>
</g>
<!-- Node4&#45;&gt;Node8 -->
<g id="edge7" class="edge"><title>Node4&#45;&gt;Node8</title>
<path fill="none" stroke="midnightblue" d="M1385.97,-125.346C1356.47,-114.329 1313.01,-98.0927 1282.05,-86.5281"/>
<polygon fill="midnightblue" stroke="midnightblue" points="1384.8,-128.648 1395.39,-128.869 1387.25,-122.09 1384.8,-128.648"/>
</g>
<!-- Node9 -->
<g id="node9" class="node"><title>Node9</title>
<g id="a_node9"><a xlink:href="Parameter_8cpp.html" target="_top" xlink:title="parameter/Parameter.cpp">
<polygon fill="white" stroke="black" points="1347.5,-62 1347.5,-81 1487.5,-81 1487.5,-62 1347.5,-62"/>
<text text-anchor="middle" x="1417.5" y="-69" font-family="Verdana" font-size="10.00">parameter/Parameter.cpp</text>
</a>
</g>
</g>
<!-- Node4&#45;&gt;Node9 -->
<g id="edge8" class="edge"><title>Node4&#45;&gt;Node9</title>
<path fill="none" stroke="midnightblue" d="M1418.21,-118.537C1418.02,-106.17 1417.78,-90.6198 1417.63,-81.1273"/>
<polygon fill="midnightblue" stroke="midnightblue" points="1414.71,-118.789 1418.37,-128.734 1421.71,-118.681 1414.71,-118.789"/>
</g>
<!-- Node10 -->
<g id="node10" class="node"><title>Node10</title>
<g id="a_node10"><a xlink:href="ParameterMgr_8cpp.html" target="_top" xlink:title="parameter/ParameterMgr.cpp">
<polygon fill="white" stroke="black" points="353.5,-62 353.5,-81 511.5,-81 511.5,-62 353.5,-62"/>
<text text-anchor="middle" x="432.5" y="-69" font-family="Verdana" font-size="10.00">parameter/ParameterMgr.cpp</text>
</a>
</g>
</g>
<!-- Node4&#45;&gt;Node10 -->
<g id="edge9" class="edge"><title>Node4&#45;&gt;Node10</title>
<path fill="none" stroke="midnightblue" d="M1370.66,-127.04C1361.99,-125.455 1353,-124.013 1344.5,-123 980.503,-79.6345 885.111,-124.866 520.5,-87 506.639,-85.5605 491.648,-83.341 478.034,-81.0678"/>
<polygon fill="midnightblue" stroke="midnightblue" points="1370.17,-130.509 1380.65,-128.95 1371.48,-123.634 1370.17,-130.509"/>
</g>
<!-- Node6 -->
<g id="node6" class="node"><title>Node6</title>
<g id="a_node6"><a xlink:href="ArrayParameter_8cpp.html" target="_top" xlink:title="parameter/ArrayParameter.cpp">
<polygon fill="white" stroke="black" points="1500.5,-0.5 1500.5,-19.5 1666.5,-19.5 1666.5,-0.5 1500.5,-0.5"/>
<text text-anchor="middle" x="1583.5" y="-7.5" font-family="Verdana" font-size="10.00">parameter/ArrayParameter.cpp</text>
</a>
</g>
</g>
<!-- Node5&#45;&gt;Node6 -->
<g id="edge5" class="edge"><title>Node5&#45;&gt;Node6</title>
<path fill="none" stroke="midnightblue" d="M1583.5,-51.8165C1583.5,-40.9962 1583.5,-27.898 1583.5,-19.5091"/>
<polygon fill="midnightblue" stroke="midnightblue" points="1580,-51.9751 1583.5,-61.9751 1587,-51.9751 1580,-51.9751"/>
</g>
<!-- Node5&#45;&gt;Node7 -->
<g id="edge6" class="edge"><title>Node5&#45;&gt;Node7</title>
<path fill="none" stroke="midnightblue" d="M1528.36,-60.1169C1467.16,-48.5942 1369.55,-30.216 1312.69,-19.5091"/>
<polygon fill="midnightblue" stroke="midnightblue" points="1527.75,-63.5642 1538.22,-61.9751 1529.05,-56.6851 1527.75,-63.5642"/>
</g>
<!-- Node13 -->
<g id="node13" class="node"><title>Node13</title>
<g id="a_node13"><a xlink:href="BitParameter_8cpp.html" target="_top" xlink:title="parameter/BitParameter.cpp">
<polygon fill="white" stroke="black" points="758,-62 758,-81 911,-81 911,-62 758,-62"/>
<text text-anchor="middle" x="834.5" y="-69" font-family="Verdana" font-size="10.00">parameter/BitParameter.cpp</text>
</a>
</g>
</g>
<!-- Node12&#45;&gt;Node13 -->
<g id="edge13" class="edge"><title>Node12&#45;&gt;Node13</title>
<path fill="none" stroke="midnightblue" d="M1208.6,-127.179C1200.2,-125.719 1191.63,-124.281 1183.5,-123 1066.52,-104.563 1036.55,-104.959 919.5,-87 907.662,-85.1837 894.923,-83.0866 883,-81.0616"/>
<polygon fill="midnightblue" stroke="midnightblue" points="1208.26,-130.675 1218.72,-128.962 1209.48,-123.781 1208.26,-130.675"/>
</g>
<!-- Node14 -->
<g id="node14" class="node"><title>Node14</title>
<g id="a_node14"><a xlink:href="BitParameterType_8cpp.html" target="_top" xlink:title="parameter/BitParameterType.cpp">
<polygon fill="white" stroke="black" points="929,-62 929,-81 1104,-81 1104,-62 929,-62"/>
<text text-anchor="middle" x="1016.5" y="-69" font-family="Verdana" font-size="10.00">parameter/BitParameterType.cpp</text>
</a>
</g>
</g>
<!-- Node12&#45;&gt;Node14 -->
<g id="edge14" class="edge"><title>Node12&#45;&gt;Node14</title>
<path fill="none" stroke="midnightblue" d="M1221.86,-126.323C1172.89,-113.489 1093.62,-92.7118 1049.25,-81.0834"/>
<polygon fill="midnightblue" stroke="midnightblue" points="1221.26,-129.786 1231.82,-128.936 1223.04,-123.014 1221.26,-129.786"/>
</g>
<!-- Node15 -->
<g id="node15" class="node"><title>Node15</title>
<g id="a_node15"><a xlink:href="BitwiseAreaConfiguration_8cpp.html" target="_top" xlink:title="parameter/BitwiseAreaConfiguration.cpp">
<polygon fill="white" stroke="black" points="529.5,-62 529.5,-81 739.5,-81 739.5,-62 529.5,-62"/>
<text text-anchor="middle" x="634.5" y="-69" font-family="Verdana" font-size="10.00">parameter/BitwiseAreaConfiguration.cpp</text>
</a>
</g>
</g>
<!-- Node12&#45;&gt;Node15 -->
<g id="edge15" class="edge"><title>Node12&#45;&gt;Node15</title>
<path fill="none" stroke="midnightblue" d="M1211.41,-127.255C1202.13,-125.677 1192.55,-124.182 1183.5,-123 991.139,-97.8799 941.435,-107.244 748.5,-87 731.932,-85.2616 714.043,-83.1146 697.459,-81.0105"/>
<polygon fill="midnightblue" stroke="midnightblue" points="1210.87,-130.714 1221.32,-128.99 1212.07,-123.818 1210.87,-130.714"/>
</g>
<!-- Node18 -->
<g id="node18" class="node"><title>Node18</title>
<g id="a_node18"><a xlink:href="StringParameter_8cpp.html" target="_top" xlink:title="parameter/StringParameter.cpp">
<polygon fill="white" stroke="black" points="1679,-62 1679,-81 1848,-81 1848,-62 1679,-62"/>
<text text-anchor="middle" x="1763.5" y="-69" font-family="Verdana" font-size="10.00">parameter/StringParameter.cpp</text>
</a>
</g>
</g>
<!-- Node17&#45;&gt;Node18 -->
<g id="edge18" class="edge"><title>Node17&#45;&gt;Node18</title>
<path fill="none" stroke="midnightblue" d="M1762.79,-118.537C1762.98,-106.17 1763.22,-90.6198 1763.37,-81.1273"/>
<polygon fill="midnightblue" stroke="midnightblue" points="1759.29,-118.681 1762.63,-128.734 1766.29,-118.789 1759.29,-118.681"/>
</g>
<!-- Node19 -->
<g id="node19" class="node"><title>Node19</title>
<g id="a_node19"><a xlink:href="StringParameterType_8cpp.html" target="_top" xlink:title="parameter/StringParameter\lType.cpp">
<polygon fill="white" stroke="black" points="1866,-56.5 1866,-86.5 2015,-86.5 2015,-56.5 1866,-56.5"/>
<text text-anchor="start" x="1874" y="-74.5" font-family="Verdana" font-size="10.00">parameter/StringParameter</text>
<text text-anchor="middle" x="1940.5" y="-63.5" font-family="Verdana" font-size="10.00">Type.cpp</text>
</a>
</g>
</g>
<!-- Node17&#45;&gt;Node19 -->
<g id="edge19" class="edge"><title>Node17&#45;&gt;Node19</title>
<path fill="none" stroke="midnightblue" d="M1795.78,-125.346C1825.95,-114.329 1870.42,-98.0927 1902.08,-86.5281"/>
<polygon fill="midnightblue" stroke="midnightblue" points="1794.33,-122.151 1786.14,-128.869 1796.73,-128.726 1794.33,-122.151"/>
</g>
<!-- Node20&#45;&gt;Node13 -->
<g id="edge21" class="edge"><title>Node20&#45;&gt;Node13</title>
<path fill="none" stroke="midnightblue" d="M840.936,-194.391C757.228,-180.931 620.123,-158.313 616.5,-154 607.639,-143.45 607.927,-133.786 616.5,-123 626.894,-109.922 721.73,-91.6214 782.847,-81.0193"/>
<polygon fill="midnightblue" stroke="midnightblue" points="840.439,-197.856 850.867,-195.985 841.548,-190.944 840.439,-197.856"/>
</g>
<!-- Node21 -->
<g id="node21" class="node"><title>Node21</title>
<g id="a_node21"><a xlink:href="BitParameterBlock_8cpp.html" target="_top" xlink:title="parameter/BitParameterBlock.cpp">
<polygon fill="white" stroke="black" points="803,-129 803,-148 982,-148 982,-129 803,-129"/>
<text text-anchor="middle" x="892.5" y="-136" font-family="Verdana" font-size="10.00">parameter/BitParameterBlock.cpp</text>
</a>
</g>
</g>
<!-- Node20&#45;&gt;Node21 -->
<g id="edge22" class="edge"><title>Node20&#45;&gt;Node21</title>
<path fill="none" stroke="midnightblue" d="M900.999,-185.537C898.716,-173.17 895.845,-157.62 894.093,-148.127"/>
<polygon fill="midnightblue" stroke="midnightblue" points="897.624,-186.535 902.882,-195.734 904.508,-185.265 897.624,-186.535"/>
</g>
<!-- Node22 -->
<g id="node22" class="node"><title>Node22</title>
<g id="a_node22"><a xlink:href="BitParameterBlockType_8cpp.html" target="_top" xlink:title="parameter/BitParameterBlock\lType.cpp">
<polygon fill="white" stroke="black" points="626,-123.5 626,-153.5 785,-153.5 785,-123.5 626,-123.5"/>
<text text-anchor="start" x="634" y="-141.5" font-family="Verdana" font-size="10.00">parameter/BitParameterBlock</text>
<text text-anchor="middle" x="705.5" y="-130.5" font-family="Verdana" font-size="10.00">Type.cpp</text>
</a>
</g>
</g>
<!-- Node20&#45;&gt;Node22 -->
<g id="edge23" class="edge"><title>Node20&#45;&gt;Node22</title>
<path fill="none" stroke="midnightblue" d="M868.168,-192.633C834.426,-181.612 784.161,-165.193 748.447,-153.528"/>
<polygon fill="midnightblue" stroke="midnightblue" points="867.482,-196.091 878.074,-195.869 869.655,-189.437 867.482,-196.091"/>
</g>
<!-- Node24 -->
<g id="node24" class="node"><title>Node24</title>
<g id="a_node24"><a xlink:href="ComponentLibrary_8h.html" target="_top" xlink:title="parameter/ComponentLibrary.h">
<polygon fill="white" stroke="black" points="2202,-129 2202,-148 2369,-148 2369,-129 2202,-129"/>
<text text-anchor="middle" x="2285.5" y="-136" font-family="Verdana" font-size="10.00">parameter/ComponentLibrary.h</text>
</a>
</g>
</g>
<!-- Node23&#45;&gt;Node24 -->
<g id="edge25" class="edge"><title>Node23&#45;&gt;Node24</title>
<path fill="none" stroke="midnightblue" d="M2017.79,-193.879C2080.81,-181.077 2185.47,-159.819 2243.5,-148.032"/>
<polygon fill="midnightblue" stroke="midnightblue" points="2016.77,-190.515 2007.66,-195.936 2018.16,-197.375 2016.77,-190.515"/>
</g>
<!-- Node25 -->
<g id="node25" class="node"><title>Node25</title>
<g id="a_node25"><a xlink:href="ComponentInstance_8cpp.html" target="_top" xlink:title="parameter/ComponentInstance.cpp">
<polygon fill="white" stroke="black" points="2578.5,-62 2578.5,-81 2766.5,-81 2766.5,-62 2578.5,-62"/>
<text text-anchor="middle" x="2672.5" y="-69" font-family="Verdana" font-size="10.00">parameter/ComponentInstance.cpp</text>
</a>
</g>
</g>
<!-- Node23&#45;&gt;Node25 -->
<g id="edge30" class="edge"><title>Node23&#45;&gt;Node25</title>
<path fill="none" stroke="midnightblue" d="M2017.42,-194.145C2025.78,-192.643 2034.37,-191.201 2042.5,-190 2190.64,-168.127 2235.47,-201.435 2377.5,-154 2403.02,-145.477 2404.43,-132.761 2429.5,-123 2463.88,-109.615 2561,-91.5398 2621.54,-81.0387"/>
<polygon fill="midnightblue" stroke="midnightblue" points="2016.56,-190.743 2007.36,-195.995 2017.83,-197.628 2016.56,-190.743"/>
</g>
<!-- Node24&#45;&gt;Node25 -->
<g id="edge26" class="edge"><title>Node24&#45;&gt;Node25</title>
<path fill="none" stroke="midnightblue" d="M2346.39,-127.272C2422.34,-114.517 2550.8,-92.9407 2621.7,-81.0317"/>
<polygon fill="midnightblue" stroke="midnightblue" points="2345.77,-123.827 2336.49,-128.936 2346.93,-130.731 2345.77,-123.827"/>
</g>
<!-- Node26 -->
<g id="node26" class="node"><title>Node26</title>
<g id="a_node26"><a xlink:href="ComponentLibrary_8cpp.html" target="_top" xlink:title="parameter/ComponentLibrary.cpp">
<polygon fill="white" stroke="black" points="2196.5,-62 2196.5,-81 2374.5,-81 2374.5,-62 2196.5,-62"/>
<text text-anchor="middle" x="2285.5" y="-69" font-family="Verdana" font-size="10.00">parameter/ComponentLibrary.cpp</text>
</a>
</g>
</g>
<!-- Node24&#45;&gt;Node26 -->
<g id="edge27" class="edge"><title>Node24&#45;&gt;Node26</title>
<path fill="none" stroke="midnightblue" d="M2285.5,-118.537C2285.5,-106.17 2285.5,-90.6198 2285.5,-81.1273"/>
<polygon fill="midnightblue" stroke="midnightblue" points="2282,-118.734 2285.5,-128.734 2289,-118.734 2282,-118.734"/>
</g>
<!-- Node27 -->
<g id="node27" class="node"><title>Node27</title>
<g id="a_node27"><a xlink:href="ComponentType_8cpp.html" target="_top" xlink:title="parameter/ComponentType.cpp">
<polygon fill="white" stroke="black" points="2392.5,-62 2392.5,-81 2560.5,-81 2560.5,-62 2392.5,-62"/>
<text text-anchor="middle" x="2476.5" y="-69" font-family="Verdana" font-size="10.00">parameter/ComponentType.cpp</text>
</a>
</g>
</g>
<!-- Node24&#45;&gt;Node27 -->
<g id="edge28" class="edge"><title>Node24&#45;&gt;Node27</title>
<path fill="none" stroke="midnightblue" d="M2320.46,-125.601C2358.33,-112.714 2417.81,-92.4728 2451.34,-81.0637"/>
<polygon fill="midnightblue" stroke="midnightblue" points="2319.2,-122.333 2310.86,-128.869 2321.46,-128.96 2319.2,-122.333"/>
</g>
<!-- Node28 -->
<g id="node28" class="node"><title>Node28</title>
<g id="a_node28"><a xlink:href="Subsystem_8cpp.html" target="_top" xlink:title="parameter/Subsystem.cpp">
<polygon fill="white" stroke="black" points="2033,-62 2033,-81 2178,-81 2178,-62 2033,-62"/>
<text text-anchor="middle" x="2105.5" y="-69" font-family="Verdana" font-size="10.00">parameter/Subsystem.cpp</text>
</a>
</g>
</g>
<!-- Node24&#45;&gt;Node28 -->
<g id="edge29" class="edge"><title>Node24&#45;&gt;Node28</title>
<path fill="none" stroke="midnightblue" d="M2252.09,-125.436C2216.38,-112.542 2160.67,-92.4243 2129.21,-81.0637"/>
<polygon fill="midnightblue" stroke="midnightblue" points="2251,-128.764 2261.6,-128.869 2253.38,-122.18 2251,-128.764"/>
</g>
<!-- Node32 -->
<g id="node32" class="node"><title>Node32</title>
<g id="a_node32"><a xlink:href="ParameterBlockType_8cpp.html" target="_top" xlink:title="parameter/ParameterBlock\lType.cpp">
<polygon fill="white" stroke="black" points="2438.5,-123.5 2438.5,-153.5 2584.5,-153.5 2584.5,-123.5 2438.5,-123.5"/>
<text text-anchor="start" x="2446.5" y="-141.5" font-family="Verdana" font-size="10.00">parameter/ParameterBlock</text>
<text text-anchor="middle" x="2511.5" y="-130.5" font-family="Verdana" font-size="10.00">Type.cpp</text>
</a>
</g>
</g>
<!-- Node31&#45;&gt;Node32 -->
<g id="edge34" class="edge"><title>Node31&#45;&gt;Node32</title>
<path fill="none" stroke="midnightblue" d="M2511.5,-185.411C2511.5,-175.222 2511.5,-162.901 2511.5,-153.589"/>
<polygon fill="midnightblue" stroke="midnightblue" points="2508,-185.734 2511.5,-195.734 2515,-185.734 2508,-185.734"/>
</g>
<!-- Node35&#45;&gt;Node10 -->
<g id="edge48" class="edge"><title>Node35&#45;&gt;Node10</title>
<path fill="none" stroke="midnightblue" d="M570.511,-253.66C555.474,-224.685 523.32,-166.283 487.5,-123 473.946,-106.622 455.186,-90.503 443.453,-81.0328"/>
<polygon fill="midnightblue" stroke="midnightblue" points="567.58,-255.614 575.252,-262.921 573.811,-252.425 567.58,-255.614"/>
</g>
<!-- Node35&#45;&gt;Node15 -->
<g id="edge38" class="edge"><title>Node35&#45;&gt;Node15</title>
<path fill="none" stroke="midnightblue" d="M580.64,-252.562C582.879,-223.718 589.245,-167.442 606.5,-123 612.523,-107.487 622.508,-90.8586 628.784,-81.0841"/>
<polygon fill="midnightblue" stroke="midnightblue" points="577.129,-252.601 579.931,-262.819 584.112,-253.084 577.129,-252.601"/>
</g>
<!-- Node35&#45;&gt;Node16 -->
<g id="edge40" class="edge"><title>Node35&#45;&gt;Node16</title>
<path fill="none" stroke="midnightblue" d="M582.674,-252.866C586.996,-233.717 596.72,-204.69 617.5,-190 685.499,-141.93 907.848,-164.159 990.5,-154 1004.61,-152.265 1019.84,-150.12 1033.95,-148.016"/>
<polygon fill="midnightblue" stroke="midnightblue" points="579.212,-252.328 580.71,-262.816 586.08,-253.683 579.212,-252.328"/>
</g>
<!-- Node35&#45;&gt;Node28 -->
<g id="edge49" class="edge"><title>Node35&#45;&gt;Node28</title>
<path fill="none" stroke="midnightblue" d="M656.711,-269.611C860.138,-264.317 1407.45,-247.938 1586.5,-221 1706.21,-202.991 1734.13,-187.331 1850.5,-154 1935.39,-129.686 2034.74,-96.5693 2080.32,-81.1098"/>
<polygon fill="midnightblue" stroke="midnightblue" points="656.612,-266.113 646.706,-269.87 656.793,-273.11 656.612,-266.113"/>
</g>
<!-- Node35&#45;&gt;Node33 -->
<g id="edge50" class="edge"><title>Node35&#45;&gt;Node33</title>
<path fill="none" stroke="midnightblue" d="M606.617,-258.444C633.356,-245.569 673.466,-226.257 696.499,-215.167"/>
<polygon fill="midnightblue" stroke="midnightblue" points="604.919,-255.377 597.427,-262.869 607.955,-261.684 604.919,-255.377"/>
</g>
<!-- Node36 -->
<g id="node36" class="node"><title>Node36</title>
<g id="a_node36"><a xlink:href="DomainConfiguration_8cpp.html" target="_top" xlink:title="parameter/DomainConfiguration.cpp">
<polygon fill="white" stroke="black" points="302.5,-196 302.5,-215 494.5,-215 494.5,-196 302.5,-196"/>
<text text-anchor="middle" x="398.5" y="-203" font-family="Verdana" font-size="10.00">parameter/DomainConfiguration.cpp</text>
</a>
</g>
</g>
<!-- Node35&#45;&gt;Node36 -->
<g id="edge39" class="edge"><title>Node35&#45;&gt;Node36</title>
<path fill="none" stroke="midnightblue" d="M545.907,-259.436C510.001,-246.542 453.981,-226.424 422.347,-215.064"/>
<polygon fill="midnightblue" stroke="midnightblue" points="544.87,-262.783 555.465,-262.869 547.236,-256.195 544.87,-262.783"/>
</g>
<!-- Node37 -->
<g id="node37" class="node"><title>Node37</title>
<g id="a_node37"><a xlink:href="VirtualSubsystem_8h.html" target="_top" xlink:title="parameter/VirtualSubsystem.h">
<polygon fill="white" stroke="black" points="120.5,-196 120.5,-215 284.5,-215 284.5,-196 120.5,-196"/>
<text text-anchor="middle" x="202.5" y="-203" font-family="Verdana" font-size="10.00">parameter/VirtualSubsystem.h</text>
</a>
</g>
</g>
<!-- Node35&#45;&gt;Node37 -->
<g id="edge41" class="edge"><title>Node35&#45;&gt;Node37</title>
<path fill="none" stroke="midnightblue" d="M519.726,-261.194C445.685,-248.429 320.915,-226.916 251.984,-215.032"/>
<polygon fill="midnightblue" stroke="midnightblue" points="519.377,-264.686 529.826,-262.936 520.566,-257.787 519.377,-264.686"/>
</g>
<!-- Node38 -->
<g id="node38" class="node"><title>Node38</title>
<g id="a_node38"><a xlink:href="SubsystemLibrary_8h.html" target="_top" xlink:title="parameter/SubsystemLibrary.h">
<polygon fill="white" stroke="black" points="120.5,-129 120.5,-148 284.5,-148 284.5,-129 120.5,-129"/>
<text text-anchor="middle" x="202.5" y="-136" font-family="Verdana" font-size="10.00">parameter/SubsystemLibrary.h</text>
</a>
</g>
</g>
<!-- Node37&#45;&gt;Node38 -->
<g id="edge42" class="edge"><title>Node37&#45;&gt;Node38</title>
<path fill="none" stroke="midnightblue" d="M202.5,-185.537C202.5,-173.17 202.5,-157.62 202.5,-148.127"/>
<polygon fill="midnightblue" stroke="midnightblue" points="199,-185.734 202.5,-195.734 206,-185.734 199,-185.734"/>
</g>
<!-- Node40 -->
<g id="node40" class="node"><title>Node40</title>
<g id="a_node40"><a xlink:href="SystemClass_8cpp.html" target="_top" xlink:title="parameter/SystemClass.cpp">
<polygon fill="white" stroke="black" points="0,-62 0,-81 153,-81 153,-62 0,-62"/>
<text text-anchor="middle" x="76.5" y="-69" font-family="Verdana" font-size="10.00">parameter/SystemClass.cpp</text>
</a>
</g>
</g>
<!-- Node37&#45;&gt;Node40 -->
<g id="edge46" class="edge"><title>Node37&#45;&gt;Node40</title>
<path fill="none" stroke="midnightblue" d="M168.135,-191.899C149.361,-183.562 126.872,-171.008 111.5,-154 91.6758,-132.065 81.9004,-97.1888 78.2517,-81.1216"/>
<polygon fill="midnightblue" stroke="midnightblue" points="166.983,-195.212 177.557,-195.876 169.705,-188.763 166.983,-195.212"/>
</g>
<!-- Node41 -->
<g id="node41" class="node"><title>Node41</title>
<g id="a_node41"><a xlink:href="VirtualSubsystem_8cpp.html" target="_top" xlink:title="parameter/VirtualSubsystem.cpp">
<polygon fill="white" stroke="black" points="302.5,-129 302.5,-148 478.5,-148 478.5,-129 302.5,-129"/>
<text text-anchor="middle" x="390.5" y="-136" font-family="Verdana" font-size="10.00">parameter/VirtualSubsystem.cpp</text>
</a>
</g>
</g>
<!-- Node37&#45;&gt;Node41 -->
<g id="edge47" class="edge"><title>Node37&#45;&gt;Node41</title>
<path fill="none" stroke="midnightblue" d="M237.392,-192.436C274.687,-179.542 332.873,-159.424 365.731,-148.064"/>
<polygon fill="midnightblue" stroke="midnightblue" points="235.772,-189.293 227.465,-195.869 238.06,-195.909 235.772,-189.293"/>
</g>
<!-- Node38&#45;&gt;Node10 -->
<g id="edge43" class="edge"><title>Node38&#45;&gt;Node10</title>
<path fill="none" stroke="midnightblue" d="M242.87,-126.091C288.371,-113.232 361.312,-92.6185 402.198,-81.0637"/>
<polygon fill="midnightblue" stroke="midnightblue" points="241.713,-122.781 233.042,-128.869 243.617,-129.517 241.713,-122.781"/>
</g>
<!-- Node39 -->
<g id="node39" class="node"><title>Node39</title>
<g id="a_node39"><a xlink:href="SubsystemElementBuilder_8cpp.html" target="_top" xlink:title="parameter/SubsystemElement\lBuilder.cpp">
<polygon fill="white" stroke="black" points="171.5,-56.5 171.5,-86.5 335.5,-86.5 335.5,-56.5 171.5,-56.5"/>
<text text-anchor="start" x="179.5" y="-74.5" font-family="Verdana" font-size="10.00">parameter/SubsystemElement</text>
<text text-anchor="middle" x="253.5" y="-63.5" font-family="Verdana" font-size="10.00">Builder.cpp</text>
</a>
</g>
</g>
<!-- Node38&#45;&gt;Node39 -->
<g id="edge44" class="edge"><title>Node38&#45;&gt;Node39</title>
<path fill="none" stroke="midnightblue" d="M215.703,-120.673C224.003,-110.094 234.589,-96.6019 242.446,-86.589"/>
<polygon fill="midnightblue" stroke="midnightblue" points="212.797,-118.706 209.378,-128.734 218.305,-123.027 212.797,-118.706"/>
</g>
<!-- Node38&#45;&gt;Node40 -->
<g id="edge45" class="edge"><title>Node38&#45;&gt;Node40</title>
<path fill="none" stroke="midnightblue" d="M176.862,-124.274C151.906,-111.4 114.704,-92.2086 93.301,-81.1672"/>
<polygon fill="midnightblue" stroke="midnightblue" points="175.276,-127.394 185.768,-128.869 178.486,-121.173 175.276,-127.394"/>
</g>
</g>
</svg>
