<?xml version="1.0" encoding="UTF-8" standalone="no"?>
<!DOCTYPE svg PUBLIC "-//W3C//DTD SVG 1.1//EN"
 "http://www.w3.org/Graphics/SVG/1.1/DTD/svg11.dtd">
<!-- Generated by graphviz version 2.36.0 (20140111.2315)
 -->
<!-- Title: remote&#45;processor/ConnectionSocket.cpp Pages: 1 -->
<svg width="564pt" height="208pt"
 viewBox="0.00 0.00 564.00 208.00" xmlns="http://www.w3.org/2000/svg" xmlns:xlink="http://www.w3.org/1999/xlink">
<g id="graph0" class="graph" transform="scale(1 1) rotate(0) translate(4 204)">
<title>remote&#45;processor/ConnectionSocket.cpp</title>
<polygon fill="white" stroke="none" points="-4,4 -4,-204 560,-204 560,4 -4,4"/>
<!-- Node1 -->
<g id="node1" class="node"><title>Node1</title>
<polygon fill="#bfbfbf" stroke="black" points="230,-169 230,-199 390,-199 390,-169 230,-169"/>
<text text-anchor="start" x="238" y="-187" font-family="Verdana" font-size="10.00">remote&#45;processor/Connection</text>
<text text-anchor="middle" x="310" y="-176" font-family="Verdana" font-size="10.00">Socket.cpp</text>
</g>
<!-- Node2 -->
<g id="node2" class="node"><title>Node2</title>
<g id="a_node2"><a xlink:href="ConnectionSocket_8h.html" target="_top" xlink:title="ConnectionSocket.h">
<polygon fill="white" stroke="black" points="-0.5,-112.5 -0.5,-131.5 112.5,-131.5 112.5,-112.5 -0.5,-112.5"/>
<text text-anchor="middle" x="56" y="-119.5" font-family="Verdana" font-size="10.00">ConnectionSocket.h</text>
</a>
</g>
</g>
<!-- Node1&#45;&gt;Node2 -->
<g id="edge1" class="edge"><title>Node1&#45;&gt;Node2</title>
<path fill="none" stroke="midnightblue" d="M250.448,-168.933C205.069,-158.213 143.504,-143.67 101.901,-133.843"/>
<polygon fill="midnightblue" stroke="midnightblue" points="102.574,-130.405 92.0371,-131.513 100.965,-137.218 102.574,-130.405"/>
</g>
<!-- Node6 -->
<g id="node6" class="node"><title>Node6</title>
<polygon fill="white" stroke="#bfbfbf" points="130.5,-112.5 130.5,-131.5 185.5,-131.5 185.5,-112.5 130.5,-112.5"/>
<text text-anchor="middle" x="158" y="-119.5" font-family="Verdana" font-size="10.00">unistd.h</text>
</g>
<!-- Node1&#45;&gt;Node6 -->
<g id="edge6" class="edge"><title>Node1&#45;&gt;Node6</title>
<path fill="none" stroke="midnightblue" d="M274.363,-168.933C248.604,-158.765 214.131,-145.157 189.404,-135.396"/>
<polygon fill="midnightblue" stroke="midnightblue" points="190.373,-132.016 179.787,-131.6 187.803,-138.527 190.373,-132.016"/>
</g>
<!-- Node7 -->
<g id="node7" class="node"><title>Node7</title>
<polygon fill="white" stroke="#bfbfbf" points="203.5,-112.5 203.5,-131.5 256.5,-131.5 256.5,-112.5 203.5,-112.5"/>
<text text-anchor="middle" x="230" y="-119.5" font-family="Verdana" font-size="10.00">netdb.h</text>
</g>
<!-- Node1&#45;&gt;Node7 -->
<g id="edge7" class="edge"><title>Node1&#45;&gt;Node7</title>
<path fill="none" stroke="midnightblue" d="M291.041,-168.781C278.577,-159.433 262.303,-147.227 249.693,-137.77"/>
<polygon fill="midnightblue" stroke="midnightblue" points="251.741,-134.931 241.641,-131.731 247.541,-140.531 251.741,-134.931"/>
</g>
<!-- Node8 -->
<g id="node8" class="node"><title>Node8</title>
<polygon fill="white" stroke="#bfbfbf" points="274.5,-112.5 274.5,-131.5 345.5,-131.5 345.5,-112.5 274.5,-112.5"/>
<text text-anchor="middle" x="310" y="-119.5" font-family="Verdana" font-size="10.00">netinet/in.h</text>
</g>
<!-- Node1&#45;&gt;Node8 -->
<g id="edge8" class="edge"><title>Node1&#45;&gt;Node8</title>
<path fill="none" stroke="midnightblue" d="M310,-168.781C310,-160.781 310,-150.689 310,-142.017"/>
<polygon fill="midnightblue" stroke="midnightblue" points="313.5,-141.73 310,-131.731 306.5,-141.731 313.5,-141.73"/>
</g>
<!-- Node9 -->
<g id="node9" class="node"><title>Node9</title>
<polygon fill="white" stroke="#bfbfbf" points="363.5,-112.5 363.5,-131.5 412.5,-131.5 412.5,-112.5 363.5,-112.5"/>
<text text-anchor="middle" x="388" y="-119.5" font-family="Verdana" font-size="10.00">stdio.h</text>
</g>
<!-- Node1&#45;&gt;Node9 -->
<g id="edge9" class="edge"><title>Node1&#45;&gt;Node9</title>
<path fill="none" stroke="midnightblue" d="M328.485,-168.781C340.52,-159.523 356.2,-147.462 368.443,-138.044"/>
<polygon fill="midnightblue" stroke="midnightblue" points="370.858,-140.602 376.65,-131.731 366.59,-135.053 370.858,-140.602"/>
</g>
<!-- Node10 -->
<g id="node10" class="node"><title>Node10</title>
<polygon fill="white" stroke="#bfbfbf" points="430.5,-112.5 430.5,-131.5 481.5,-131.5 481.5,-112.5 430.5,-112.5"/>
<text text-anchor="middle" x="456" y="-119.5" font-family="Verdana" font-size="10.00">errno.h</text>
</g>
<!-- Node1&#45;&gt;Node10 -->
<g id="edge10" class="edge"><title>Node1&#45;&gt;Node10</title>
<path fill="none" stroke="midnightblue" d="M344.231,-168.933C368.862,-158.81 401.79,-145.278 425.518,-135.527"/>
<polygon fill="midnightblue" stroke="midnightblue" points="427.154,-138.639 435.073,-131.6 424.493,-132.164 427.154,-138.639"/>
</g>
<!-- Node11 -->
<g id="node11" class="node"><title>Node11</title>
<polygon fill="white" stroke="#bfbfbf" points="500,-112.5 500,-131.5 556,-131.5 556,-112.5 500,-112.5"/>
<text text-anchor="middle" x="528" y="-119.5" font-family="Verdana" font-size="10.00">sstream</text>
</g>
<!-- Node1&#45;&gt;Node11 -->
<g id="edge11" class="edge"><title>Node1&#45;&gt;Node11</title>
<path fill="none" stroke="midnightblue" d="M361.111,-168.933C400.514,-158.088 454.133,-143.33 489.848,-133.501"/>
<polygon fill="midnightblue" stroke="midnightblue" points="491.157,-136.77 499.87,-130.742 489.3,-130.021 491.157,-136.77"/>
</g>
<!-- Node3 -->
<g id="node3" class="node"><title>Node3</title>
<g id="a_node3"><a xlink:href="Socket_8h.html" target="_top" xlink:title="Socket.h">
<polygon fill="white" stroke="black" points="55.5,-56.5 55.5,-75.5 114.5,-75.5 114.5,-56.5 55.5,-56.5"/>
<text text-anchor="middle" x="85" y="-63.5" font-family="Verdana" font-size="10.00">Socket.h</text>
</a>
</g>
</g>
<!-- Node2&#45;&gt;Node3 -->
<g id="edge2" class="edge"><title>Node2&#45;&gt;Node3</title>
<path fill="none" stroke="midnightblue" d="M60.7888,-112.083C64.7584,-104.691 70.5251,-93.9533 75.4348,-84.8111"/>
<polygon fill="midnightblue" stroke="midnightblue" points="78.6525,-86.217 80.3003,-75.7511 72.4855,-82.9051 78.6525,-86.217"/>
</g>
<!-- Node4 -->
<g id="node4" class="node"><title>Node4</title>
<polygon fill="white" stroke="#bfbfbf" points="5,-0.5 5,-19.5 49,-19.5 49,-0.5 5,-0.5"/>
<text text-anchor="middle" x="27" y="-7.5" font-family="Verdana" font-size="10.00">string</text>
</g>
<!-- Node2&#45;&gt;Node4 -->
<g id="edge5" class="edge"><title>Node2&#45;&gt;Node4</title>
<path fill="none" stroke="midnightblue" d="M53.7244,-112.368C49.0233,-94.5366 38.1506,-53.2953 31.8171,-29.2717"/>
<polygon fill="midnightblue" stroke="midnightblue" points="35.1987,-28.3688 29.265,-19.5914 28.43,-30.1533 35.1987,-28.3688"/>
</g>
<!-- Node3&#45;&gt;Node4 -->
<g id="edge3" class="edge"><title>Node3&#45;&gt;Node4</title>
<path fill="none" stroke="midnightblue" d="M75.6813,-56.324C67.1074,-48.3414 54.1878,-36.3128 43.8124,-26.6529"/>
<polygon fill="midnightblue" stroke="midnightblue" points="46.1922,-24.0865 36.4883,-19.8339 41.4223,-29.2098 46.1922,-24.0865"/>
</g>
<!-- Node5 -->
<g id="node5" class="node"><title>Node5</title>
<polygon fill="white" stroke="#bfbfbf" points="67.5,-0.5 67.5,-19.5 120.5,-19.5 120.5,-0.5 67.5,-0.5"/>
<text text-anchor="middle" x="94" y="-7.5" font-family="Verdana" font-size="10.00">stdint.h</text>
</g>
<!-- Node3&#45;&gt;Node5 -->
<g id="edge4" class="edge"><title>Node3&#45;&gt;Node5</title>
<path fill="none" stroke="midnightblue" d="M86.4862,-56.083C87.6788,-48.9272 89.3941,-38.6353 90.8848,-29.6911"/>
<polygon fill="midnightblue" stroke="midnightblue" points="94.3498,-30.1904 92.5415,-19.7511 87.445,-29.0396 94.3498,-30.1904"/>
</g>
</g>
</svg>
