<?xml version="1.0" encoding="UTF-8" standalone="no"?>
<!DOCTYPE svg PUBLIC "-//W3C//DTD SVG 1.1//EN"
 "http://www.w3.org/Graphics/SVG/1.1/DTD/svg11.dtd">
<!-- Generated by graphviz version 2.38.0 (20140413.2041)
 -->
<!-- Title: /home/dawagner/dev/parameter&#45;framework/remote&#45;processor/ConnectionSocket.cpp Pages: 1 -->
<svg width="565pt" height="229pt"
 viewBox="0.00 0.00 564.50 229.00" xmlns="http://www.w3.org/2000/svg" xmlns:xlink="http://www.w3.org/1999/xlink">
<g id="graph0" class="graph" transform="scale(1 1) rotate(0) translate(4 225)">
<title>/home/dawagner/dev/parameter&#45;framework/remote&#45;processor/ConnectionSocket.cpp</title>
<polygon fill="white" stroke="none" points="-4,4 -4,-225 560.5,-225 560.5,4 -4,4"/>
<!-- Node1 -->
<g id="node1" class="node"><title>Node1</title>
<polygon fill="#bfbfbf" stroke="black" points="229,-168.5 229,-220.5 392,-220.5 392,-168.5 229,-168.5"/>
<text text-anchor="start" x="237" y="-208.5" font-family="Verdana" font-size="10.00">/home/dawagner/dev</text>
<text text-anchor="start" x="237" y="-197.5" font-family="Verdana" font-size="10.00">/parameter&#45;framework</text>
<text text-anchor="start" x="237" y="-186.5" font-family="Verdana" font-size="10.00">/remote&#45;processor/Connection</text>
<text text-anchor="middle" x="310.5" y="-175.5" font-family="Verdana" font-size="10.00">Socket.cpp</text>
</g>
<!-- Node2 -->
<g id="node2" class="node"><title>Node2</title>
<g id="a_node2"><a xlink:href="ConnectionSocket_8h.html" target="_top" xlink:title="ConnectionSocket.h">
<polygon fill="white" stroke="black" points="0,-112.5 0,-131.5 113,-131.5 113,-112.5 0,-112.5"/>
<text text-anchor="middle" x="56.5" y="-119.5" font-family="Verdana" font-size="10.00">ConnectionSocket.h</text>
</a>
</g>
</g>
<!-- Node1&#45;&gt;Node2 -->
<g id="edge1" class="edge"><title>Node1&#45;&gt;Node2</title>
<path fill="none" stroke="midnightblue" d="M228.735,-170.805C184.781,-158.605 132.511,-144.098 97.1729,-134.289"/>
<polygon fill="midnightblue" stroke="midnightblue" points="97.799,-130.831 87.2272,-131.529 95.9269,-137.576 97.799,-130.831"/>
</g>
<!-- Node6 -->
<g id="node6" class="node"><title>Node6</title>
<polygon fill="white" stroke="#bfbfbf" points="131,-112.5 131,-131.5 186,-131.5 186,-112.5 131,-112.5"/>
<text text-anchor="middle" x="158.5" y="-119.5" font-family="Verdana" font-size="10.00">unistd.h</text>
</g>
<!-- Node1&#45;&gt;Node6 -->
<g id="edge6" class="edge"><title>Node1&#45;&gt;Node6</title>
<path fill="none" stroke="midnightblue" d="M256.483,-168.446C232.685,-157.408 205.742,-144.912 186.14,-135.82"/>
<polygon fill="midnightblue" stroke="midnightblue" points="187.429,-132.56 176.884,-131.527 184.483,-138.91 187.429,-132.56"/>
</g>
<!-- Node7 -->
<g id="node7" class="node"><title>Node7</title>
<polygon fill="white" stroke="#bfbfbf" points="204,-112.5 204,-131.5 257,-131.5 257,-112.5 204,-112.5"/>
<text text-anchor="middle" x="230.5" y="-119.5" font-family="Verdana" font-size="10.00">netdb.h</text>
</g>
<!-- Node1&#45;&gt;Node7 -->
<g id="edge7" class="edge"><title>Node1&#45;&gt;Node7</title>
<path fill="none" stroke="midnightblue" d="M282.07,-168.446C270.702,-158.428 257.97,-147.208 248.001,-138.422"/>
<polygon fill="midnightblue" stroke="midnightblue" points="250.184,-135.681 240.367,-131.695 245.556,-140.933 250.184,-135.681"/>
</g>
<!-- Node8 -->
<g id="node8" class="node"><title>Node8</title>
<polygon fill="white" stroke="#bfbfbf" points="275,-112.5 275,-131.5 346,-131.5 346,-112.5 275,-112.5"/>
<text text-anchor="middle" x="310.5" y="-119.5" font-family="Verdana" font-size="10.00">netinet/in.h</text>
</g>
<!-- Node1&#45;&gt;Node8 -->
<g id="edge8" class="edge"><title>Node1&#45;&gt;Node8</title>
<path fill="none" stroke="midnightblue" d="M310.5,-168.446C310.5,-159.73 310.5,-150.104 310.5,-141.964"/>
<polygon fill="midnightblue" stroke="midnightblue" points="314,-141.695 310.5,-131.695 307,-141.696 314,-141.695"/>
</g>
<!-- Node9 -->
<g id="node9" class="node"><title>Node9</title>
<polygon fill="white" stroke="#bfbfbf" points="364,-112.5 364,-131.5 413,-131.5 413,-112.5 364,-112.5"/>
<text text-anchor="middle" x="388.5" y="-119.5" font-family="Verdana" font-size="10.00">stdio.h</text>
</g>
<!-- Node1&#45;&gt;Node9 -->
<g id="edge9" class="edge"><title>Node1&#45;&gt;Node9</title>
<path fill="none" stroke="midnightblue" d="M338.22,-168.446C349.303,-158.428 361.717,-147.208 371.437,-138.422"/>
<polygon fill="midnightblue" stroke="midnightblue" points="373.808,-140.997 378.879,-131.695 369.114,-135.804 373.808,-140.997"/>
</g>
<!-- Node10 -->
<g id="node10" class="node"><title>Node10</title>
<polygon fill="white" stroke="#bfbfbf" points="431,-112.5 431,-131.5 482,-131.5 482,-112.5 431,-112.5"/>
<text text-anchor="middle" x="456.5" y="-119.5" font-family="Verdana" font-size="10.00">errno.h</text>
</g>
<!-- Node1&#45;&gt;Node10 -->
<g id="edge10" class="edge"><title>Node1&#45;&gt;Node10</title>
<path fill="none" stroke="midnightblue" d="M362.385,-168.446C385.139,-157.459 410.887,-145.026 429.692,-135.945"/>
<polygon fill="midnightblue" stroke="midnightblue" points="431.358,-139.027 438.841,-131.527 428.314,-132.724 431.358,-139.027"/>
</g>
<!-- Node11 -->
<g id="node11" class="node"><title>Node11</title>
<polygon fill="white" stroke="#bfbfbf" points="500.5,-112.5 500.5,-131.5 556.5,-131.5 556.5,-112.5 500.5,-112.5"/>
<text text-anchor="middle" x="528.5" y="-119.5" font-family="Verdana" font-size="10.00">sstream</text>
</g>
<!-- Node1&#45;&gt;Node11 -->
<g id="edge11" class="edge"><title>Node1&#45;&gt;Node11</title>
<path fill="none" stroke="midnightblue" d="M387.972,-168.446C423.505,-156.955 463.929,-143.882 492.27,-134.717"/>
<polygon fill="midnightblue" stroke="midnightblue" points="493.695,-137.934 502.133,-131.527 491.541,-131.274 493.695,-137.934"/>
</g>
<!-- Node3 -->
<g id="node3" class="node"><title>Node3</title>
<g id="a_node3"><a xlink:href="Socket_8h.html" target="_top" xlink:title="Socket.h">
<polygon fill="white" stroke="black" points="56,-56.5 56,-75.5 115,-75.5 115,-56.5 56,-56.5"/>
<text text-anchor="middle" x="85.5" y="-63.5" font-family="Verdana" font-size="10.00">Socket.h</text>
</a>
</g>
</g>
<!-- Node2&#45;&gt;Node3 -->
<g id="edge2" class="edge"><title>Node2&#45;&gt;Node3</title>
<path fill="none" stroke="midnightblue" d="M61.2888,-112.083C65.2584,-104.691 71.0251,-93.9533 75.9348,-84.8111"/>
<polygon fill="midnightblue" stroke="midnightblue" points="79.1525,-86.217 80.8003,-75.7511 72.9855,-82.9051 79.1525,-86.217"/>
</g>
<!-- Node4 -->
<g id="node4" class="node"><title>Node4</title>
<polygon fill="white" stroke="#bfbfbf" points="5.5,-0.5 5.5,-19.5 49.5,-19.5 49.5,-0.5 5.5,-0.5"/>
<text text-anchor="middle" x="27.5" y="-7.5" font-family="Verdana" font-size="10.00">string</text>
</g>
<!-- Node2&#45;&gt;Node4 -->
<g id="edge5" class="edge"><title>Node2&#45;&gt;Node4</title>
<path fill="none" stroke="midnightblue" d="M54.2244,-112.368C49.5233,-94.5366 38.6506,-53.2953 32.3171,-29.2717"/>
<polygon fill="midnightblue" stroke="midnightblue" points="35.6987,-28.3688 29.765,-19.5914 28.93,-30.1533 35.6987,-28.3688"/>
</g>
<!-- Node3&#45;&gt;Node4 -->
<g id="edge3" class="edge"><title>Node3&#45;&gt;Node4</title>
<path fill="none" stroke="midnightblue" d="M76.1813,-56.324C67.6074,-48.3414 54.6878,-36.3128 44.3124,-26.6529"/>
<polygon fill="midnightblue" stroke="midnightblue" points="46.6922,-24.0865 36.9883,-19.8339 41.9223,-29.2098 46.6922,-24.0865"/>
</g>
<!-- Node5 -->
<g id="node5" class="node"><title>Node5</title>
<polygon fill="white" stroke="#bfbfbf" points="68,-0.5 68,-19.5 121,-19.5 121,-0.5 68,-0.5"/>
<text text-anchor="middle" x="94.5" y="-7.5" font-family="Verdana" font-size="10.00">stdint.h</text>
</g>
<!-- Node3&#45;&gt;Node5 -->
<g id="edge4" class="edge"><title>Node3&#45;&gt;Node5</title>
<path fill="none" stroke="midnightblue" d="M86.9862,-56.083C88.1788,-48.9272 89.8941,-38.6353 91.3848,-29.6911"/>
<polygon fill="midnightblue" stroke="midnightblue" points="94.8498,-30.1904 93.0415,-19.7511 87.945,-29.0396 94.8498,-30.1904"/>
</g>
</g>
</svg>
