<?xml version="1.0" encoding="UTF-8" standalone="no"?>
<!DOCTYPE svg PUBLIC "-//W3C//DTD SVG 1.1//EN"
 "http://www.w3.org/Graphics/SVG/1.1/DTD/svg11.dtd">
<!-- Generated by graphviz version 2.38.0 (20140413.2041)
 -->
<!-- Title: parameter/DefaultElementLibrary.h Pages: 1 -->
<svg width="559pt" height="319pt"
 viewBox="0.00 0.00 558.55 319.00" xmlns="http://www.w3.org/2000/svg" xmlns:xlink="http://www.w3.org/1999/xlink">
<g id="graph0" class="graph" transform="scale(1 1) rotate(0) translate(4 315)">
<title>parameter/DefaultElementLibrary.h</title>
<polygon fill="white" stroke="none" points="-4,4 -4,-315 554.549,-315 554.549,4 -4,4"/>
<!-- Node1 -->
<g id="node1" class="node"><title>Node1</title>
<polygon fill="#bfbfbf" stroke="black" points="7.5,-280.5 7.5,-310.5 152.5,-310.5 152.5,-280.5 7.5,-280.5"/>
<text text-anchor="start" x="15.5" y="-298.5" font-family="Verdana" font-size="10.00">parameter/DefaultElement</text>
<text text-anchor="middle" x="80" y="-287.5" font-family="Verdana" font-size="10.00">Library.h</text>
</g>
<!-- Node2 -->
<g id="node2" class="node"><title>Node2</title>
<g id="a_node2"><a xlink:href="ElementLibrary_8h.html" target="_top" xlink:title="ElementLibrary.h">
<polygon fill="white" stroke="black" points="70,-224.5 70,-243.5 166,-243.5 166,-224.5 70,-224.5"/>
<text text-anchor="middle" x="118" y="-231.5" font-family="Verdana" font-size="10.00">ElementLibrary.h</text>
</a>
</g>
</g>
<!-- Node1&#45;&gt;Node2 -->
<g id="edge1" class="edge"><title>Node1&#45;&gt;Node2</title>
<path fill="none" stroke="midnightblue" d="M89.0055,-280.399C94.4135,-271.932 101.332,-261.099 107.054,-252.139"/>
<polygon fill="midnightblue" stroke="midnightblue" points="110.038,-253.97 112.471,-243.658 104.138,-250.202 110.038,-253.97"/>
</g>
<!-- Node3 -->
<g id="node3" class="node"><title>Node3</title>
<polygon fill="white" stroke="#bfbfbf" points="28,-168.5 28,-187.5 66,-187.5 66,-168.5 28,-168.5"/>
<text text-anchor="middle" x="47" y="-175.5" font-family="Verdana" font-size="10.00">map</text>
</g>
<!-- Node1&#45;&gt;Node3 -->
<g id="edge24" class="edge"><title>Node1&#45;&gt;Node3</title>
<path fill="none" stroke="midnightblue" d="M73.9355,-280.108C69.8832,-270.108 64.6469,-256.402 61,-244 56.4662,-228.582 52.7231,-210.71 50.2516,-197.613"/>
<polygon fill="midnightblue" stroke="midnightblue" points="53.6484,-196.729 48.4191,-187.514 46.7609,-197.978 53.6484,-196.729"/>
</g>
<!-- Node4 -->
<g id="node4" class="node"><title>Node4</title>
<polygon fill="white" stroke="#bfbfbf" points="156,-0.5 156,-19.5 200,-19.5 200,-0.5 156,-0.5"/>
<text text-anchor="middle" x="178" y="-7.5" font-family="Verdana" font-size="10.00">string</text>
</g>
<!-- Node1&#45;&gt;Node4 -->
<g id="edge25" class="edge"><title>Node1&#45;&gt;Node4</title>
<path fill="none" stroke="midnightblue" d="M61.4453,-280.289C37.8125,-260.423 0,-221.931 0,-179 0,-179 0,-179 0,-121 0,-53.1978 94.6143,-25.791 145.882,-15.9172"/>
<polygon fill="midnightblue" stroke="midnightblue" points="146.6,-19.3443 155.816,-14.1187 145.352,-12.4563 146.6,-19.3443"/>
</g>
<!-- Node14 -->
<g id="node14" class="node"><title>Node14</title>
<g id="a_node14"><a xlink:href="ElementBuilder_8h.html" target="_top" xlink:title="ElementBuilder.h">
<polygon fill="white" stroke="black" points="213,-224.5 213,-243.5 311,-243.5 311,-224.5 213,-224.5"/>
<text text-anchor="middle" x="262" y="-231.5" font-family="Verdana" font-size="10.00">ElementBuilder.h</text>
</a>
</g>
</g>
<!-- Node1&#45;&gt;Node14 -->
<g id="edge22" class="edge"><title>Node1&#45;&gt;Node14</title>
<path fill="none" stroke="midnightblue" d="M123.131,-280.399C154.58,-270.118 196.692,-256.351 226.267,-246.682"/>
<polygon fill="midnightblue" stroke="midnightblue" points="227.366,-250.005 235.783,-243.571 225.19,-243.352 227.366,-250.005"/>
</g>
<!-- Node2&#45;&gt;Node3 -->
<g id="edge2" class="edge"><title>Node2&#45;&gt;Node3</title>
<path fill="none" stroke="midnightblue" d="M106.593,-224.324C95.8912,-216.185 79.6593,-203.839 66.8372,-194.087"/>
<polygon fill="midnightblue" stroke="midnightblue" points="68.6932,-191.102 58.6149,-187.834 64.4556,-196.673 68.6932,-191.102"/>
</g>
<!-- Node2&#45;&gt;Node4 -->
<g id="edge3" class="edge"><title>Node2&#45;&gt;Node4</title>
<path fill="none" stroke="midnightblue" d="M117.687,-224.48C117.034,-198.21 117.338,-116.581 143,-56 147.47,-45.4483 155.055,-35.2364 162.025,-27.2152"/>
<polygon fill="midnightblue" stroke="midnightblue" points="164.717,-29.4579 168.907,-19.7269 159.563,-24.7209 164.717,-29.4579"/>
</g>
<!-- Node5 -->
<g id="node5" class="node"><title>Node5</title>
<g id="a_node5"><a xlink:href="Element_8h.html" target="_top" xlink:title="Element.h">
<polygon fill="white" stroke="black" points="259.5,-168.5 259.5,-187.5 324.5,-187.5 324.5,-168.5 259.5,-168.5"/>
<text text-anchor="middle" x="292" y="-175.5" font-family="Verdana" font-size="10.00">Element.h</text>
</a>
</g>
</g>
<!-- Node2&#45;&gt;Node5 -->
<g id="edge4" class="edge"><title>Node2&#45;&gt;Node5</title>
<path fill="none" stroke="midnightblue" d="M145.571,-224.444C175.097,-215.28 222.118,-200.688 254.883,-190.519"/>
<polygon fill="midnightblue" stroke="midnightblue" points="256.045,-193.823 264.558,-187.516 253.97,-187.138 256.045,-193.823"/>
</g>
<!-- Node5&#45;&gt;Node4 -->
<g id="edge5" class="edge"><title>Node5&#45;&gt;Node4</title>
<path fill="none" stroke="midnightblue" d="M259.466,-174.673C229.649,-170.742 186.527,-160.205 162,-132 139.604,-106.246 141.89,-88.8913 151,-56 153.792,-45.9205 159.509,-35.832 164.967,-27.7694"/>
<polygon fill="midnightblue" stroke="midnightblue" points="167.825,-29.7899 170.849,-19.6357 162.153,-25.6881 167.825,-29.7899"/>
</g>
<!-- Node6 -->
<g id="node6" class="node"><title>Node6</title>
<polygon fill="white" stroke="#bfbfbf" points="486.5,-56.5 486.5,-75.5 533.5,-75.5 533.5,-56.5 486.5,-56.5"/>
<text text-anchor="middle" x="510" y="-63.5" font-family="Verdana" font-size="10.00">vector</text>
</g>
<!-- Node5&#45;&gt;Node6 -->
<g id="edge6" class="edge"><title>Node5&#45;&gt;Node6</title>
<path fill="none" stroke="midnightblue" d="M324.891,-174.192C376.831,-169.064 474.385,-156.396 498,-132 509.588,-120.029 511.892,-100.729 511.715,-86.2644"/>
<polygon fill="midnightblue" stroke="midnightblue" points="515.192,-85.7347 511.171,-75.9325 508.202,-86.1026 515.192,-85.7347"/>
</g>
<!-- Node7 -->
<g id="node7" class="node"><title>Node7</title>
<polygon fill="white" stroke="#bfbfbf" points="431.5,-0.5 431.5,-19.5 484.5,-19.5 484.5,-0.5 431.5,-0.5"/>
<text text-anchor="middle" x="458" y="-7.5" font-family="Verdana" font-size="10.00">stdint.h</text>
</g>
<!-- Node5&#45;&gt;Node7 -->
<g id="edge7" class="edge"><title>Node5&#45;&gt;Node7</title>
<path fill="none" stroke="midnightblue" d="M324.742,-174.217C380.022,-168.92 488.71,-155.745 518,-132 545.516,-109.693 560.196,-86.391 542,-56 531.602,-38.6341 511.958,-27.589 494.279,-20.7895"/>
<polygon fill="midnightblue" stroke="midnightblue" points="495.326,-17.4476 484.732,-17.4356 493.006,-24.052 495.326,-17.4476"/>
</g>
<!-- Node8 -->
<g id="node8" class="node"><title>Node8</title>
<polygon fill="white" stroke="#bfbfbf" points="349,-112.5 349,-131.5 379,-131.5 379,-112.5 349,-112.5"/>
<text text-anchor="middle" x="364" y="-119.5" font-family="Verdana" font-size="10.00">list</text>
</g>
<!-- Node5&#45;&gt;Node8 -->
<g id="edge8" class="edge"><title>Node5&#45;&gt;Node8</title>
<path fill="none" stroke="midnightblue" d="M303.568,-168.324C314.42,-160.185 330.881,-147.839 343.883,-138.087"/>
<polygon fill="midnightblue" stroke="midnightblue" points="346.321,-140.634 352.221,-131.834 342.121,-135.034 346.321,-140.634"/>
</g>
<!-- Node9 -->
<g id="node9" class="node"><title>Node9</title>
<g id="a_node9"><a xlink:href="XmlSink_8h.html" target="_top" xlink:title="XmlSink.h">
<polygon fill="white" stroke="black" points="171,-112.5 171,-131.5 235,-131.5 235,-112.5 171,-112.5"/>
<text text-anchor="middle" x="203" y="-119.5" font-family="Verdana" font-size="10.00">XmlSink.h</text>
</a>
</g>
</g>
<!-- Node5&#45;&gt;Node9 -->
<g id="edge9" class="edge"><title>Node5&#45;&gt;Node9</title>
<path fill="none" stroke="midnightblue" d="M277.701,-168.324C263.817,-159.9 242.508,-146.971 226.196,-137.074"/>
<polygon fill="midnightblue" stroke="midnightblue" points="227.629,-133.85 217.264,-131.655 223.998,-139.834 227.629,-133.85"/>
</g>
<!-- Node12 -->
<g id="node12" class="node"><title>Node12</title>
<g id="a_node12"><a xlink:href="XmlSource_8h.html" target="_top" xlink:title="XmlSource.h">
<polygon fill="white" stroke="black" points="253.5,-112.5 253.5,-131.5 330.5,-131.5 330.5,-112.5 253.5,-112.5"/>
<text text-anchor="middle" x="292" y="-119.5" font-family="Verdana" font-size="10.00">XmlSource.h</text>
</a>
</g>
</g>
<!-- Node5&#45;&gt;Node12 -->
<g id="edge15" class="edge"><title>Node5&#45;&gt;Node12</title>
<path fill="none" stroke="midnightblue" d="M292,-168.083C292,-161.006 292,-150.861 292,-141.986"/>
<polygon fill="midnightblue" stroke="midnightblue" points="295.5,-141.751 292,-131.751 288.5,-141.751 295.5,-141.751"/>
</g>
<!-- Node13 -->
<g id="node13" class="node"><title>Node13</title>
<g id="a_node13"><a xlink:href="PathNavigator_8h.html" target="_top" xlink:title="PathNavigator.h">
<polygon fill="white" stroke="black" points="397,-112.5 397,-131.5 489,-131.5 489,-112.5 397,-112.5"/>
<text text-anchor="middle" x="443" y="-119.5" font-family="Verdana" font-size="10.00">PathNavigator.h</text>
</a>
</g>
</g>
<!-- Node5&#45;&gt;Node13 -->
<g id="edge18" class="edge"><title>Node5&#45;&gt;Node13</title>
<path fill="none" stroke="midnightblue" d="M315.926,-168.444C341.219,-159.399 381.302,-145.064 409.68,-134.916"/>
<polygon fill="midnightblue" stroke="midnightblue" points="410.948,-138.179 419.186,-131.516 408.591,-131.588 410.948,-138.179"/>
</g>
<!-- Node10 -->
<g id="node10" class="node"><title>Node10</title>
<g id="a_node10"><a xlink:href="XmlElement_8h.html" target="_top" xlink:title="XmlElement.h">
<polygon fill="white" stroke="black" points="308.5,-56.5 308.5,-75.5 391.5,-75.5 391.5,-56.5 308.5,-56.5"/>
<text text-anchor="middle" x="350" y="-63.5" font-family="Verdana" font-size="10.00">XmlElement.h</text>
</a>
</g>
</g>
<!-- Node9&#45;&gt;Node10 -->
<g id="edge10" class="edge"><title>Node9&#45;&gt;Node10</title>
<path fill="none" stroke="midnightblue" d="M226.293,-112.444C250.807,-103.438 289.596,-89.1891 317.2,-79.049"/>
<polygon fill="midnightblue" stroke="midnightblue" points="318.637,-82.25 326.816,-75.5164 316.223,-75.6793 318.637,-82.25"/>
</g>
<!-- Node11 -->
<g id="node11" class="node"><title>Node11</title>
<g id="a_node11"><a xlink:href="XmlSerializingContext_8h.html" target="_top" xlink:title="XmlSerializingContext.h">
<polygon fill="white" stroke="black" points="160,-56.5 160,-75.5 290,-75.5 290,-56.5 160,-56.5"/>
<text text-anchor="middle" x="225" y="-63.5" font-family="Verdana" font-size="10.00">XmlSerializingContext.h</text>
</a>
</g>
</g>
<!-- Node9&#45;&gt;Node11 -->
<g id="edge13" class="edge"><title>Node9&#45;&gt;Node11</title>
<path fill="none" stroke="midnightblue" d="M206.633,-112.083C209.612,-104.77 213.926,-94.1814 217.625,-85.1034"/>
<polygon fill="midnightblue" stroke="midnightblue" points="220.903,-86.3326 221.435,-75.7511 214.42,-83.6914 220.903,-86.3326"/>
</g>
<!-- Node10&#45;&gt;Node4 -->
<g id="edge12" class="edge"><title>Node10&#45;&gt;Node4</title>
<path fill="none" stroke="midnightblue" d="M322.746,-56.4435C292.146,-46.8366 242.539,-31.2622 210.09,-21.0749"/>
<polygon fill="midnightblue" stroke="midnightblue" points="210.793,-17.6271 200.204,-17.971 208.696,-24.3057 210.793,-17.6271"/>
</g>
<!-- Node10&#45;&gt;Node7 -->
<g id="edge11" class="edge"><title>Node10&#45;&gt;Node7</title>
<path fill="none" stroke="midnightblue" d="M367.352,-56.324C384.672,-47.6641 411.515,-34.2424 431.502,-24.249"/>
<polygon fill="midnightblue" stroke="midnightblue" points="433.312,-27.2572 440.691,-19.6545 430.181,-20.9962 433.312,-27.2572"/>
</g>
<!-- Node11&#45;&gt;Node4 -->
<g id="edge14" class="edge"><title>Node11&#45;&gt;Node4</title>
<path fill="none" stroke="midnightblue" d="M217.239,-56.083C210.463,-48.2982 200.457,-36.8015 192.245,-27.3665"/>
<polygon fill="midnightblue" stroke="midnightblue" points="194.822,-24.9963 185.617,-19.7511 189.542,-29.592 194.822,-24.9963"/>
</g>
<!-- Node12&#45;&gt;Node10 -->
<g id="edge16" class="edge"><title>Node12&#45;&gt;Node10</title>
<path fill="none" stroke="midnightblue" d="M301.319,-112.324C309.893,-104.341 322.812,-92.3128 333.188,-82.6529"/>
<polygon fill="midnightblue" stroke="midnightblue" points="335.578,-85.2098 340.512,-75.8339 330.808,-80.0865 335.578,-85.2098"/>
</g>
<!-- Node12&#45;&gt;Node11 -->
<g id="edge17" class="edge"><title>Node12&#45;&gt;Node11</title>
<path fill="none" stroke="midnightblue" d="M281.235,-112.324C271.234,-104.263 256.113,-92.0765 244.07,-82.3695"/>
<polygon fill="midnightblue" stroke="midnightblue" points="245.943,-79.3841 235.961,-75.8339 241.55,-84.8343 245.943,-79.3841"/>
</g>
<!-- Node13&#45;&gt;Node4 -->
<g id="edge20" class="edge"><title>Node13&#45;&gt;Node4</title>
<path fill="none" stroke="midnightblue" d="M439.794,-112.234C434.111,-98.0065 420.868,-70.0681 400,-56 341.615,-16.6393 256.301,-10.3245 210.289,-10.0845"/>
<polygon fill="midnightblue" stroke="midnightblue" points="210.268,-6.5844 200.283,-10.1262 210.298,-13.5843 210.268,-6.5844"/>
</g>
<!-- Node13&#45;&gt;Node6 -->
<g id="edge19" class="edge"><title>Node13&#45;&gt;Node6</title>
<path fill="none" stroke="midnightblue" d="M453.765,-112.324C463.766,-104.263 478.887,-92.0765 490.93,-82.3695"/>
<polygon fill="midnightblue" stroke="midnightblue" points="493.45,-84.8343 499.039,-75.8339 489.057,-79.3841 493.45,-84.8343"/>
</g>
<!-- Node13&#45;&gt;Node7 -->
<g id="edge21" class="edge"><title>Node13&#45;&gt;Node7</title>
<path fill="none" stroke="midnightblue" d="M444.177,-112.368C446.598,-94.617 452.182,-53.6664 455.464,-29.5974"/>
<polygon fill="midnightblue" stroke="midnightblue" points="458.945,-29.9726 456.828,-19.5914 452.009,-29.0268 458.945,-29.9726"/>
</g>
<!-- Node14&#45;&gt;Node5 -->
<g id="edge23" class="edge"><title>Node14&#45;&gt;Node5</title>
<path fill="none" stroke="midnightblue" d="M266.954,-224.083C271.104,-216.613 277.153,-205.724 282.267,-196.52"/>
<polygon fill="midnightblue" stroke="midnightblue" points="285.341,-198.192 287.138,-187.751 279.222,-194.793 285.341,-198.192"/>
</g>
</g>
</svg>
