<?xml version="1.0" encoding="UTF-8" standalone="no"?>
<!DOCTYPE svg PUBLIC "-//W3C//DTD SVG 1.1//EN"
 "http://www.w3.org/Graphics/SVG/1.1/DTD/svg11.dtd">
<!-- Generated by graphviz version 2.38.0 (20140413.2041)
 -->
<!-- Title: remote&#45;process Pages: 1 -->
<svg width="146pt" height="188pt"
 viewBox="0.00 0.00 146.00 188.00" xmlns="http://www.w3.org/2000/svg" xmlns:xlink="http://www.w3.org/1999/xlink">
<g id="graph0" class="graph" transform="scale(1 1) rotate(0) translate(4 184)">
<title>remote&#45;process</title>
<polygon fill="white" stroke="none" points="-4,4 -4,-184 142,-184 142,4 -4,4"/>
<!-- dir_15118cf1aa050a973860aeb6a6dd944e -->
<g id="node1" class="node"><title>dir_15118cf1aa050a973860aeb6a6dd944e</title>
<g id="a_node1"><a xlink:href="dir_15118cf1aa050a973860aeb6a6dd944e.html" target="_top" xlink:title="remote&#45;process">
<polygon fill="#eeeeff" stroke="black" points="138,-180 45,-180 45,-144 138,-144 138,-180"/>
<text text-anchor="middle" x="91.5" y="-159.5" font-family="Verdana" font-size="10.00">remote&#45;process</text>
</a>
</g>
</g>
<!-- dir_a95bacb21791cc2565712fcafbd51a16 -->
<g id="node2" class="node"><title>dir_a95bacb21791cc2565712fcafbd51a16</title>
<g id="a_node2"><a xlink:href="dir_a95bacb21791cc2565712fcafbd51a16.html" target="_top" xlink:title="remote&#45;processor">
<polygon fill="none" stroke="black" points="103,-108 0,-108 0,-72 103,-72 103,-108"/>
<text text-anchor="middle" x="51.5" y="-87.5" font-family="Verdana" font-size="10.00">remote&#45;processor</text>
</a>
</g>
</g>
<!-- dir_15118cf1aa050a973860aeb6a6dd944e&#45;&gt;dir_a95bacb21791cc2565712fcafbd51a16 -->
<g id="edge2" class="edge"><title>dir_15118cf1aa050a973860aeb6a6dd944e&#45;&gt;dir_a95bacb21791cc2565712fcafbd51a16</title>
<path fill="none" stroke="black" d="M81.6124,-143.697C77.0107,-135.644 71.4397,-125.894 66.3471,-116.982"/>
<polygon fill="black" stroke="black" points="69.2742,-115.05 61.2739,-108.104 63.1965,-118.523 69.2742,-115.05"/>
<g id="a_edge2&#45;headlabel"><a xlink:href="dir_000004_000007.html" target="_top" xlink:title="3">
<text text-anchor="middle" x="73.5228" y="-114.263" font-family="Verdana" font-size="10.00">3</text>
</a>
</g>
</g>
<!-- dir_64e73385a8b7738563c26ce10415b58d -->
<g id="node3" class="node"><title>dir_64e73385a8b7738563c26ce10415b58d</title>
<g id="a_node3"><a xlink:href="dir_64e73385a8b7738563c26ce10415b58d.html" target="_top" xlink:title="utility">
<polygon fill="none" stroke="black" points="118.5,-36 64.5,-36 64.5,-0 118.5,-0 118.5,-36"/>
<text text-anchor="middle" x="91.5" y="-15.5" font-family="Verdana" font-size="10.00">utility</text>
</a>
</g>
</g>
<!-- dir_15118cf1aa050a973860aeb6a6dd944e&#45;&gt;dir_64e73385a8b7738563c26ce10415b58d -->
<g id="edge3" class="edge"><title>dir_15118cf1aa050a973860aeb6a6dd944e&#45;&gt;dir_64e73385a8b7738563c26ce10415b58d</title>
<path fill="none" stroke="black" d="M100.218,-143.833C104.875,-133.694 110.125,-120.444 112.5,-108 115.5,-92.2838 115.5,-87.7162 112.5,-72 110.793,-63.0559 107.6,-53.6954 104.211,-45.373"/>
<polygon fill="black" stroke="black" points="107.408,-43.9489 100.218,-36.1671 100.986,-46.7341 107.408,-43.9489"/>
<g id="a_edge3&#45;headlabel"><a xlink:href="dir_000004_000008.html" target="_top" xlink:title="1">
<text text-anchor="middle" x="111.443" y="-43.6171" font-family="Verdana" font-size="10.00">1</text>
</a>
</g>
</g>
<!-- dir_a95bacb21791cc2565712fcafbd51a16&#45;&gt;dir_64e73385a8b7738563c26ce10415b58d -->
<g id="edge1" class="edge"><title>dir_a95bacb21791cc2565712fcafbd51a16&#45;&gt;dir_64e73385a8b7738563c26ce10415b58d</title>
<path fill="none" stroke="black" d="M61.3876,-71.6966C65.9893,-63.6436 71.5603,-53.8945 76.6529,-44.9824"/>
<polygon fill="black" stroke="black" points="79.8035,-46.5233 81.7261,-36.1043 73.7258,-43.0503 79.8035,-46.5233"/>
<g id="a_edge1&#45;headlabel"><a xlink:href="dir_000007_000008.html" target="_top" xlink:title="1">
<text text-anchor="middle" x="80.4853" y="-48.5529" font-family="Verdana" font-size="10.00">1</text>
</a>
</g>
</g>
</g>
</svg>
