<?xml version="1.0" encoding="UTF-8" standalone="no"?>
<!DOCTYPE svg PUBLIC "-//W3C//DTD SVG 1.1//EN"
 "http://www.w3.org/Graphics/SVG/1.1/DTD/svg11.dtd">
<!-- Generated by graphviz version 2.38.0 (20140413.2041)
 -->
<!-- Title: utility/DynamicLibrary.hpp Pages: 1 -->
<svg width="173pt" height="84pt"
 viewBox="0.00 0.00 173.00 84.00" xmlns="http://www.w3.org/2000/svg" xmlns:xlink="http://www.w3.org/1999/xlink">
<g id="graph0" class="graph" transform="scale(1 1) rotate(0) translate(4 80)">
<title>utility/DynamicLibrary.hpp</title>
<polygon fill="white" stroke="none" points="-4,4 -4,-80 169,-80 169,4 -4,4"/>
<!-- Node1 -->
<g id="node1" class="node"><title>Node1</title>
<polygon fill="#bfbfbf" stroke="black" points="26,-56.5 26,-75.5 165,-75.5 165,-56.5 26,-56.5"/>
<text text-anchor="middle" x="95.5" y="-63.5" font-family="Verdana" font-size="10.00">utility/DynamicLibrary.hpp</text>
</g>
<!-- Node2 -->
<g id="node2" class="node"><title>Node2</title>
<g id="a_node2"><a xlink:href="NonCopyable_8hpp.html" target="_top" xlink:title="NonCopyable.hpp">
<polygon fill="white" stroke="black" points="0,-0.5 0,-19.5 101,-19.5 101,-0.5 0,-0.5"/>
<text text-anchor="middle" x="50.5" y="-7.5" font-family="Verdana" font-size="10.00">NonCopyable.hpp</text>
</a>
</g>
</g>
<!-- Node1&#45;&gt;Node2 -->
<g id="edge1" class="edge"><title>Node1&#45;&gt;Node2</title>
<path fill="none" stroke="midnightblue" d="M88.0692,-56.083C81.6473,-48.3768 72.1944,-37.0333 64.3775,-27.6531"/>
<polygon fill="midnightblue" stroke="midnightblue" points="66.8832,-25.1927 57.7926,-19.7511 61.5057,-29.674 66.8832,-25.1927"/>
</g>
<!-- Node3 -->
<g id="node3" class="node"><title>Node3</title>
<polygon fill="white" stroke="#bfbfbf" points="119.5,-0.5 119.5,-19.5 163.5,-19.5 163.5,-0.5 119.5,-0.5"/>
<text text-anchor="middle" x="141.5" y="-7.5" font-family="Verdana" font-size="10.00">string</text>
</g>
<!-- Node1&#45;&gt;Node3 -->
<g id="edge2" class="edge"><title>Node1&#45;&gt;Node3</title>
<path fill="none" stroke="midnightblue" d="M103.096,-56.083C109.727,-48.2982 119.521,-36.8015 127.558,-27.3665"/>
<polygon fill="midnightblue" stroke="midnightblue" points="130.225,-29.6332 134.045,-19.7511 124.896,-25.0939 130.225,-29.6332"/>
</g>
</g>
</svg>
