<?xml version="1.0" encoding="UTF-8" standalone="no"?>
<!DOCTYPE svg PUBLIC "-//W3C//DTD SVG 1.1//EN"
 "http://www.w3.org/Graphics/SVG/1.1/DTD/svg11.dtd">
<!-- Generated by graphviz version 2.38.0 (20140413.2041)
 -->
<!-- Title: parameter/ElementBuilder.h Pages: 1 -->
<svg width="529pt" height="308pt"
 viewBox="0.00 0.00 528.58 308.00" xmlns="http://www.w3.org/2000/svg" xmlns:xlink="http://www.w3.org/1999/xlink">
<g id="graph0" class="graph" transform="scale(1 1) rotate(0) translate(4 304)">
<title>parameter/ElementBuilder.h</title>
<polygon fill="white" stroke="none" points="-4,4 -4,-304 524.584,-304 524.584,4 -4,4"/>
<!-- Node1 -->
<g id="node1" class="node"><title>Node1</title>
<polygon fill="#bfbfbf" stroke="black" points="312.584,-280.5 312.584,-299.5 464.584,-299.5 464.584,-280.5 312.584,-280.5"/>
<text text-anchor="middle" x="388.584" y="-287.5" font-family="Verdana" font-size="10.00">parameter/ElementBuilder.h</text>
</g>
<!-- Node2 -->
<g id="node2" class="node"><title>Node2</title>
<g id="a_node2"><a xlink:href="Element_8h.html" target="_top" xlink:title="Element.h">
<polygon fill="white" stroke="black" points="182.084,-224.5 182.084,-243.5 247.084,-243.5 247.084,-224.5 182.084,-224.5"/>
<text text-anchor="middle" x="214.584" y="-231.5" font-family="Verdana" font-size="10.00">Element.h</text>
</a>
</g>
</g>
<!-- Node1&#45;&gt;Node2 -->
<g id="edge1" class="edge"><title>Node1&#45;&gt;Node2</title>
<path fill="none" stroke="midnightblue" d="M361.013,-280.444C331.486,-271.28 284.466,-256.688 251.701,-246.519"/>
<polygon fill="midnightblue" stroke="midnightblue" points="252.614,-243.138 242.026,-243.516 250.539,-249.823 252.614,-243.138"/>
</g>
<!-- Node11 -->
<g id="node11" class="node"><title>Node11</title>
<g id="a_node11"><a xlink:href="NonCopyable_8hpp.html" target="_top" xlink:title="NonCopyable.hpp">
<polygon fill="white" stroke="black" points="408.084,-0.5 408.084,-19.5 509.084,-19.5 509.084,-0.5 408.084,-0.5"/>
<text text-anchor="middle" x="458.584" y="-7.5" font-family="Verdana" font-size="10.00">NonCopyable.hpp</text>
</a>
</g>
</g>
<!-- Node1&#45;&gt;Node11 -->
<g id="edge22" class="edge"><title>Node1&#45;&gt;Node11</title>
<path fill="none" stroke="midnightblue" d="M414.979,-280.467C453.5,-266.165 520.584,-233.441 520.584,-179 520.584,-179 520.584,-179 520.584,-121 520.584,-83.6216 493.079,-47.2368 474.709,-27.1037"/>
<polygon fill="midnightblue" stroke="midnightblue" points="477.153,-24.5945 467.732,-19.7474 472.074,-29.4116 477.153,-24.5945"/>
</g>
<!-- Node3 -->
<g id="node3" class="node"><title>Node3</title>
<polygon fill="white" stroke="#bfbfbf" points="201.084,-168.5 201.084,-187.5 314.084,-187.5 314.084,-168.5 201.084,-168.5"/>
<text text-anchor="middle" x="257.584" y="-175.5" font-family="Verdana" font-size="10.00">parameter_export.h</text>
</g>
<!-- Node2&#45;&gt;Node3 -->
<g id="edge2" class="edge"><title>Node2&#45;&gt;Node3</title>
<path fill="none" stroke="midnightblue" d="M221.684,-224.083C227.821,-216.377 236.853,-205.033 244.323,-195.653"/>
<polygon fill="midnightblue" stroke="midnightblue" points="247.124,-197.754 250.615,-187.751 241.648,-193.394 247.124,-197.754"/>
</g>
<!-- Node4 -->
<g id="node4" class="node"><title>Node4</title>
<polygon fill="white" stroke="#bfbfbf" points="250.584,-0.5 250.584,-19.5 294.584,-19.5 294.584,-0.5 250.584,-0.5"/>
<text text-anchor="middle" x="272.584" y="-7.5" font-family="Verdana" font-size="10.00">string</text>
</g>
<!-- Node2&#45;&gt;Node4 -->
<g id="edge3" class="edge"><title>Node2&#45;&gt;Node4</title>
<path fill="none" stroke="midnightblue" d="M181.744,-233.329C141.959,-232.006 75.0044,-224.032 32.5837,-188 5.58637,-165.068 -9.92944,-142.199 8.5837,-112 57.7188,-31.8499 181.159,-15.0976 240.176,-11.7419"/>
<polygon fill="midnightblue" stroke="midnightblue" points="240.59,-15.2264 250.414,-11.259 240.26,-8.23418 240.59,-15.2264"/>
</g>
<!-- Node5 -->
<g id="node5" class="node"><title>Node5</title>
<polygon fill="white" stroke="#bfbfbf" points="18.0837,-112.5 18.0837,-131.5 65.0837,-131.5 65.0837,-112.5 18.0837,-112.5"/>
<text text-anchor="middle" x="41.5837" y="-119.5" font-family="Verdana" font-size="10.00">vector</text>
</g>
<!-- Node2&#45;&gt;Node5 -->
<g id="edge4" class="edge"><title>Node2&#45;&gt;Node5</title>
<path fill="none" stroke="midnightblue" d="M181.747,-229.019C137.049,-222.859 60.643,-209.439 43.5837,-188 33.3775,-175.173 34.1047,-155.989 36.6465,-141.783"/>
<polygon fill="midnightblue" stroke="midnightblue" points="40.1401,-142.197 38.8999,-131.675 33.3078,-140.674 40.1401,-142.197"/>
</g>
<!-- Node6 -->
<g id="node6" class="node"><title>Node6</title>
<polygon fill="white" stroke="#bfbfbf" points="146.084,-56.5 146.084,-75.5 199.084,-75.5 199.084,-56.5 146.084,-56.5"/>
<text text-anchor="middle" x="172.584" y="-63.5" font-family="Verdana" font-size="10.00">stdint.h</text>
</g>
<!-- Node2&#45;&gt;Node6 -->
<g id="edge5" class="edge"><title>Node2&#45;&gt;Node6</title>
<path fill="none" stroke="midnightblue" d="M209.136,-224.394C203.821,-215.591 195.921,-201.351 191.584,-188 180.234,-153.067 175.551,-110.187 173.704,-85.9883"/>
<polygon fill="midnightblue" stroke="midnightblue" points="177.177,-85.4671 173.009,-75.7265 170.193,-85.9402 177.177,-85.4671"/>
</g>
<!-- Node7 -->
<g id="node7" class="node"><title>Node7</title>
<g id="a_node7"><a xlink:href="XmlSink_8h.html" target="_top" xlink:title="XmlSink.h">
<polygon fill="white" stroke="black" points="332.584,-168.5 332.584,-187.5 396.584,-187.5 396.584,-168.5 332.584,-168.5"/>
<text text-anchor="middle" x="364.584" y="-175.5" font-family="Verdana" font-size="10.00">XmlSink.h</text>
</a>
</g>
</g>
<!-- Node2&#45;&gt;Node7 -->
<g id="edge6" class="edge"><title>Node2&#45;&gt;Node7</title>
<path fill="none" stroke="midnightblue" d="M238.352,-224.444C263.476,-215.399 303.295,-201.064 331.484,-190.916"/>
<polygon fill="midnightblue" stroke="midnightblue" points="332.704,-194.197 340.927,-187.516 330.333,-187.611 332.704,-194.197"/>
</g>
<!-- Node12 -->
<g id="node12" class="node"><title>Node12</title>
<g id="a_node12"><a xlink:href="XmlSource_8h.html" target="_top" xlink:title="XmlSource.h">
<polygon fill="white" stroke="black" points="415.084,-168.5 415.084,-187.5 492.084,-187.5 492.084,-168.5 415.084,-168.5"/>
<text text-anchor="middle" x="453.584" y="-175.5" font-family="Verdana" font-size="10.00">XmlSource.h</text>
</a>
</g>
</g>
<!-- Node2&#45;&gt;Node12 -->
<g id="edge15" class="edge"><title>Node2&#45;&gt;Node12</title>
<path fill="none" stroke="midnightblue" d="M247.315,-225.605C288.286,-216.347 358.784,-200.419 405.791,-189.798"/>
<polygon fill="midnightblue" stroke="midnightblue" points="406.755,-193.169 415.738,-187.551 405.213,-186.341 406.755,-193.169"/>
</g>
<!-- Node13 -->
<g id="node13" class="node"><title>Node13</title>
<g id="a_node13"><a xlink:href="PathNavigator_8h.html" target="_top" xlink:title="PathNavigator.h">
<polygon fill="white" stroke="black" points="52.5837,-168.5 52.5837,-187.5 144.584,-187.5 144.584,-168.5 52.5837,-168.5"/>
<text text-anchor="middle" x="98.5837" y="-175.5" font-family="Verdana" font-size="10.00">PathNavigator.h</text>
</a>
</g>
</g>
<!-- Node2&#45;&gt;Node13 -->
<g id="edge18" class="edge"><title>Node2&#45;&gt;Node13</title>
<path fill="none" stroke="midnightblue" d="M196.203,-224.444C177.367,-215.675 147.852,-201.935 126.204,-191.858"/>
<polygon fill="midnightblue" stroke="midnightblue" points="127.421,-188.564 116.878,-187.516 124.467,-194.91 127.421,-188.564"/>
</g>
<!-- Node8 -->
<g id="node8" class="node"><title>Node8</title>
<g id="a_node8"><a xlink:href="XmlElement_8h.html" target="_top" xlink:title="XmlElement.h">
<polygon fill="white" stroke="black" points="231.084,-112.5 231.084,-131.5 314.084,-131.5 314.084,-112.5 231.084,-112.5"/>
<text text-anchor="middle" x="272.584" y="-119.5" font-family="Verdana" font-size="10.00">XmlElement.h</text>
</a>
</g>
</g>
<!-- Node7&#45;&gt;Node8 -->
<g id="edge7" class="edge"><title>Node7&#45;&gt;Node8</title>
<path fill="none" stroke="midnightblue" d="M349.802,-168.324C335.317,-159.822 313.011,-146.729 296.091,-136.797"/>
<polygon fill="midnightblue" stroke="midnightblue" points="297.724,-133.698 287.328,-131.655 294.181,-139.735 297.724,-133.698"/>
</g>
<!-- Node9 -->
<g id="node9" class="node"><title>Node9</title>
<g id="a_node9"><a xlink:href="XmlSerializingContext_8h.html" target="_top" xlink:title="XmlSerializingContext.h">
<polygon fill="white" stroke="black" points="332.584,-112.5 332.584,-131.5 462.584,-131.5 462.584,-112.5 332.584,-112.5"/>
<text text-anchor="middle" x="397.584" y="-119.5" font-family="Verdana" font-size="10.00">XmlSerializingContext.h</text>
</a>
</g>
</g>
<!-- Node7&#45;&gt;Node9 -->
<g id="edge10" class="edge"><title>Node7&#45;&gt;Node9</title>
<path fill="none" stroke="midnightblue" d="M370.033,-168.083C374.598,-160.613 381.252,-149.724 386.877,-140.52"/>
<polygon fill="midnightblue" stroke="midnightblue" points="390.008,-142.109 392.236,-131.751 384.035,-138.459 390.008,-142.109"/>
</g>
<!-- Node8&#45;&gt;Node4 -->
<g id="edge9" class="edge"><title>Node8&#45;&gt;Node4</title>
<path fill="none" stroke="midnightblue" d="M272.584,-112.368C272.584,-94.617 272.584,-53.6664 272.584,-29.5974"/>
<polygon fill="midnightblue" stroke="midnightblue" points="276.084,-29.5914 272.584,-19.5914 269.084,-29.5915 276.084,-29.5914"/>
</g>
<!-- Node8&#45;&gt;Node6 -->
<g id="edge8" class="edge"><title>Node8&#45;&gt;Node6</title>
<path fill="none" stroke="midnightblue" d="M256.517,-112.324C240.626,-103.743 216.076,-90.486 197.625,-80.5224"/>
<polygon fill="midnightblue" stroke="midnightblue" points="199.073,-77.3264 188.611,-75.6545 195.747,-83.4857 199.073,-77.3264"/>
</g>
<!-- Node9&#45;&gt;Node4 -->
<g id="edge14" class="edge"><title>Node9&#45;&gt;Node4</title>
<path fill="none" stroke="midnightblue" d="M385.728,-112.402C373.788,-103.606 354.981,-89.3698 339.584,-76 321.171,-60.0115 301.257,-40.3624 287.967,-26.8795"/>
<polygon fill="midnightblue" stroke="midnightblue" points="290.464,-24.4274 280.969,-19.7277 285.461,-29.3231 290.464,-24.4274"/>
</g>
<!-- Node10 -->
<g id="node10" class="node"><title>Node10</title>
<g id="a_node10"><a xlink:href="ErrorContext_8hpp.html" target="_top" xlink:title="ErrorContext.hpp">
<polygon fill="white" stroke="black" points="348.584,-56.5 348.584,-75.5 446.584,-75.5 446.584,-56.5 348.584,-56.5"/>
<text text-anchor="middle" x="397.584" y="-63.5" font-family="Verdana" font-size="10.00">ErrorContext.hpp</text>
</a>
</g>
</g>
<!-- Node9&#45;&gt;Node10 -->
<g id="edge11" class="edge"><title>Node9&#45;&gt;Node10</title>
<path fill="none" stroke="midnightblue" d="M397.584,-112.083C397.584,-105.006 397.584,-94.8611 397.584,-85.9865"/>
<polygon fill="midnightblue" stroke="midnightblue" points="401.084,-85.751 397.584,-75.7511 394.084,-85.7511 401.084,-85.751"/>
</g>
<!-- Node10&#45;&gt;Node4 -->
<g id="edge12" class="edge"><title>Node10&#45;&gt;Node4</title>
<path fill="none" stroke="midnightblue" d="M377.777,-56.4435C357.297,-47.5961 325.101,-33.6875 301.719,-23.5865"/>
<polygon fill="midnightblue" stroke="midnightblue" points="302.866,-20.2692 292.298,-19.5164 300.09,-26.6953 302.866,-20.2692"/>
</g>
<!-- Node10&#45;&gt;Node11 -->
<g id="edge13" class="edge"><title>Node10&#45;&gt;Node11</title>
<path fill="none" stroke="midnightblue" d="M407.384,-56.324C416.402,-48.3414 429.99,-36.3128 440.902,-26.6529"/>
<polygon fill="midnightblue" stroke="midnightblue" points="443.437,-29.083 448.605,-19.8339 438.797,-23.8416 443.437,-29.083"/>
</g>
<!-- Node12&#45;&gt;Node8 -->
<g id="edge16" class="edge"><title>Node12&#45;&gt;Node8</title>
<path fill="none" stroke="midnightblue" d="M424.904,-168.444C394.057,-159.241 344.855,-144.562 310.754,-134.388"/>
<polygon fill="midnightblue" stroke="midnightblue" points="311.713,-131.021 301.13,-131.516 309.711,-137.729 311.713,-131.021"/>
</g>
<!-- Node12&#45;&gt;Node9 -->
<g id="edge17" class="edge"><title>Node12&#45;&gt;Node9</title>
<path fill="none" stroke="midnightblue" d="M444.586,-168.324C436.389,-160.42 424.078,-148.548 414.112,-138.938"/>
<polygon fill="midnightblue" stroke="midnightblue" points="416.373,-136.256 406.745,-131.834 411.514,-141.295 416.373,-136.256"/>
</g>
<!-- Node13&#45;&gt;Node4 -->
<g id="edge20" class="edge"><title>Node13&#45;&gt;Node4</title>
<path fill="none" stroke="midnightblue" d="M98.7361,-168.336C99.5964,-146.405 104.911,-88.1597 136.584,-56 164.215,-27.9446 209.69,-17.3793 240.367,-13.4013"/>
<polygon fill="midnightblue" stroke="midnightblue" points="241.004,-16.8517 250.548,-12.251 240.218,-9.89597 241.004,-16.8517"/>
</g>
<!-- Node13&#45;&gt;Node5 -->
<g id="edge19" class="edge"><title>Node13&#45;&gt;Node5</title>
<path fill="none" stroke="midnightblue" d="M89.4257,-168.324C81.0822,-160.42 68.5513,-148.548 58.4068,-138.938"/>
<polygon fill="midnightblue" stroke="midnightblue" points="60.575,-136.171 50.9084,-131.834 55.7608,-141.252 60.575,-136.171"/>
</g>
<!-- Node13&#45;&gt;Node6 -->
<g id="edge21" class="edge"><title>Node13&#45;&gt;Node6</title>
<path fill="none" stroke="midnightblue" d="M104.39,-168.368C116.602,-150.215 145.135,-107.802 161.154,-83.9902"/>
<polygon fill="midnightblue" stroke="midnightblue" points="164.126,-85.8423 166.804,-75.5914 158.318,-81.935 164.126,-85.8423"/>
</g>
</g>
</svg>
