<?xml version="1.0" encoding="UTF-8" standalone="no"?>
<!DOCTYPE svg PUBLIC "-//W3C//DTD SVG 1.1//EN"
 "http://www.w3.org/Graphics/SVG/1.1/DTD/svg11.dtd">
<!-- Generated by graphviz version 2.36.0 (20140111.2315)
 -->
<!-- Title: parameter/ElementLibrarySet.h Pages: 1 -->
<svg width="465pt" height="264pt"
 viewBox="0.00 0.00 465.00 264.00" xmlns="http://www.w3.org/2000/svg" xmlns:xlink="http://www.w3.org/1999/xlink">
<g id="graph0" class="graph" transform="scale(1 1) rotate(0) translate(4 260)">
<title>parameter/ElementLibrarySet.h</title>
<polygon fill="white" stroke="none" points="-4,4 -4,-260 461,-260 461,4 -4,4"/>
<!-- Node1 -->
<g id="node1" class="node"><title>Node1</title>
<polygon fill="#bfbfbf" stroke="black" points="270.5,-225 270.5,-255 413.5,-255 413.5,-225 270.5,-225"/>
<text text-anchor="start" x="278.5" y="-243" font-family="Verdana" font-size="10.00">parameter/ElementLibrary</text>
<text text-anchor="middle" x="342" y="-232" font-family="Verdana" font-size="10.00">Set.h</text>
</g>
<!-- Node2 -->
<g id="node2" class="node"><title>Node2</title>
<g id="a_node2"><a xlink:href="ElementLibrary_8h.html" target="_top" xlink:title="ElementLibrary.h">
<polygon fill="white" stroke="black" points="130,-168.5 130,-187.5 226,-187.5 226,-168.5 130,-168.5"/>
<text text-anchor="middle" x="178" y="-175.5" font-family="Verdana" font-size="10.00">ElementLibrary.h</text>
</a>
</g>
</g>
<!-- Node1&#45;&gt;Node2 -->
<g id="edge1" class="edge"><title>Node1&#45;&gt;Node2</title>
<path fill="none" stroke="midnightblue" d="M303.549,-224.933C275.51,-214.674 237.9,-200.915 211.174,-191.137"/>
<polygon fill="midnightblue" stroke="midnightblue" points="212.101,-187.749 201.507,-187.6 209.695,-194.323 212.101,-187.749"/>
</g>
<!-- Node6 -->
<g id="node6" class="node"><title>Node6</title>
<polygon fill="white" stroke="#bfbfbf" points="410.5,-0.5 410.5,-19.5 457.5,-19.5 457.5,-0.5 410.5,-0.5"/>
<text text-anchor="middle" x="434" y="-7.5" font-family="Verdana" font-size="10.00">vector</text>
</g>
<!-- Node1&#45;&gt;Node6 -->
<g id="edge15" class="edge"><title>Node1&#45;&gt;Node6</title>
<path fill="none" stroke="midnightblue" d="M353.402,-224.845C374.323,-197.859 418.146,-136.342 434,-76 437.992,-60.8052 437.642,-42.9136 436.492,-29.7522"/>
<polygon fill="midnightblue" stroke="midnightblue" points="439.946,-29.1434 435.365,-19.5904 432.989,-29.9154 439.946,-29.1434"/>
</g>
<!-- Node3 -->
<g id="node3" class="node"><title>Node3</title>
<polygon fill="white" stroke="#bfbfbf" points="124,-112.5 124,-131.5 162,-131.5 162,-112.5 124,-112.5"/>
<text text-anchor="middle" x="143" y="-119.5" font-family="Verdana" font-size="10.00">map</text>
</g>
<!-- Node2&#45;&gt;Node3 -->
<g id="edge2" class="edge"><title>Node2&#45;&gt;Node3</title>
<path fill="none" stroke="midnightblue" d="M172.22,-168.083C167.328,-160.534 160.173,-149.495 154.167,-140.23"/>
<polygon fill="midnightblue" stroke="midnightblue" points="157.048,-138.239 148.672,-131.751 151.174,-142.046 157.048,-138.239"/>
</g>
<!-- Node4 -->
<g id="node4" class="node"><title>Node4</title>
<polygon fill="white" stroke="#bfbfbf" points="0,-0.5 0,-19.5 44,-19.5 44,-0.5 0,-0.5"/>
<text text-anchor="middle" x="22" y="-7.5" font-family="Verdana" font-size="10.00">string</text>
</g>
<!-- Node2&#45;&gt;Node4 -->
<g id="edge3" class="edge"><title>Node2&#45;&gt;Node4</title>
<path fill="none" stroke="midnightblue" d="M161.423,-168.438C133.826,-153.377 78.4003,-119.566 47,-76 36.8475,-61.9142 30.2183,-43.177 26.3543,-29.4396"/>
<polygon fill="midnightblue" stroke="midnightblue" points="29.723,-28.4862 23.8339,-19.6789 22.9453,-30.2364 29.723,-28.4862"/>
</g>
<!-- Node5 -->
<g id="node5" class="node"><title>Node5</title>
<g id="a_node5"><a xlink:href="Element_8h.html" target="_top" xlink:title="Element.h">
<polygon fill="white" stroke="black" points="180.5,-112.5 180.5,-131.5 245.5,-131.5 245.5,-112.5 180.5,-112.5"/>
<text text-anchor="middle" x="213" y="-119.5" font-family="Verdana" font-size="10.00">Element.h</text>
</a>
</g>
</g>
<!-- Node2&#45;&gt;Node5 -->
<g id="edge4" class="edge"><title>Node2&#45;&gt;Node5</title>
<path fill="none" stroke="midnightblue" d="M183.78,-168.083C188.672,-160.534 195.827,-149.495 201.833,-140.23"/>
<polygon fill="midnightblue" stroke="midnightblue" points="204.826,-142.046 207.328,-131.751 198.952,-138.239 204.826,-142.046"/>
</g>
<!-- Node5&#45;&gt;Node4 -->
<g id="edge5" class="edge"><title>Node5&#45;&gt;Node4</title>
<path fill="none" stroke="midnightblue" d="M180.484,-113.152C144.345,-104.007 88.7322,-88.5488 71,-76 53.5668,-63.6629 39.6403,-43.2398 31.1555,-28.5769"/>
<polygon fill="midnightblue" stroke="midnightblue" points="34.0591,-26.5933 26.1746,-19.5161 27.9249,-29.9654 34.0591,-26.5933"/>
</g>
<!-- Node5&#45;&gt;Node6 -->
<g id="edge6" class="edge"><title>Node5&#45;&gt;Node6</title>
<path fill="none" stroke="midnightblue" d="M245.612,-117.671C296.068,-111.884 389.779,-98.396 414,-76 426.723,-64.2356 431.431,-44.5964 433.133,-29.9783"/>
<polygon fill="midnightblue" stroke="midnightblue" points="436.656,-29.8209 433.948,-19.5778 429.677,-29.2735 436.656,-29.8209"/>
</g>
<!-- Node7 -->
<g id="node7" class="node"><title>Node7</title>
<polygon fill="white" stroke="#bfbfbf" points="84.5,-0.5 84.5,-19.5 137.5,-19.5 137.5,-0.5 84.5,-0.5"/>
<text text-anchor="middle" x="111" y="-7.5" font-family="Verdana" font-size="10.00">stdint.h</text>
</g>
<!-- Node5&#45;&gt;Node7 -->
<g id="edge7" class="edge"><title>Node5&#45;&gt;Node7</title>
<path fill="none" stroke="midnightblue" d="M181.176,-112.412C143.533,-101.936 85.1606,-84.5675 79,-76 67.9509,-60.6339 80.9455,-40.8756 93.5367,-27.1968"/>
<polygon fill="midnightblue" stroke="midnightblue" points="96.1822,-29.499 100.719,-19.9246 91.2017,-24.5802 96.1822,-29.499"/>
</g>
<!-- Node8 -->
<g id="node8" class="node"><title>Node8</title>
<polygon fill="white" stroke="#bfbfbf" points="198,-56.5 198,-75.5 228,-75.5 228,-56.5 198,-56.5"/>
<text text-anchor="middle" x="213" y="-63.5" font-family="Verdana" font-size="10.00">list</text>
</g>
<!-- Node5&#45;&gt;Node8 -->
<g id="edge8" class="edge"><title>Node5&#45;&gt;Node8</title>
<path fill="none" stroke="midnightblue" d="M213,-112.083C213,-105.006 213,-94.8611 213,-85.9865"/>
<polygon fill="midnightblue" stroke="midnightblue" points="216.5,-85.751 213,-75.7511 209.5,-85.7511 216.5,-85.751"/>
</g>
<!-- Node9 -->
<g id="node9" class="node"><title>Node9</title>
<polygon fill="white" stroke="#bfbfbf" points="246,-56.5 246,-75.5 310,-75.5 310,-56.5 246,-56.5"/>
<text text-anchor="middle" x="278" y="-63.5" font-family="Verdana" font-size="10.00">XmlSink.h</text>
</g>
<!-- Node5&#45;&gt;Node9 -->
<g id="edge9" class="edge"><title>Node5&#45;&gt;Node9</title>
<path fill="none" stroke="midnightblue" d="M223.443,-112.324C233.146,-104.263 247.815,-92.0765 259.5,-82.3695"/>
<polygon fill="midnightblue" stroke="midnightblue" points="261.911,-84.9163 267.367,-75.8339 257.438,-79.532 261.911,-84.9163"/>
</g>
<!-- Node10 -->
<g id="node10" class="node"><title>Node10</title>
<polygon fill="white" stroke="#bfbfbf" points="328.5,-56.5 328.5,-75.5 405.5,-75.5 405.5,-56.5 328.5,-56.5"/>
<text text-anchor="middle" x="367" y="-63.5" font-family="Verdana" font-size="10.00">XmlSource.h</text>
</g>
<!-- Node5&#45;&gt;Node10 -->
<g id="edge10" class="edge"><title>Node5&#45;&gt;Node10</title>
<path fill="none" stroke="midnightblue" d="M237.402,-112.444C263.197,-103.399 304.077,-89.064 333.018,-78.9158"/>
<polygon fill="midnightblue" stroke="midnightblue" points="334.434,-82.1283 342.712,-75.5164 332.118,-75.5226 334.434,-82.1283"/>
</g>
<!-- Node11 -->
<g id="node11" class="node"><title>Node11</title>
<g id="a_node11"><a xlink:href="PathNavigator_8h.html" target="_top" xlink:title="PathNavigator.h">
<polygon fill="white" stroke="black" points="88,-56.5 88,-75.5 180,-75.5 180,-56.5 88,-56.5"/>
<text text-anchor="middle" x="134" y="-63.5" font-family="Verdana" font-size="10.00">PathNavigator.h</text>
</a>
</g>
</g>
<!-- Node5&#45;&gt;Node11 -->
<g id="edge11" class="edge"><title>Node5&#45;&gt;Node11</title>
<path fill="none" stroke="midnightblue" d="M200.307,-112.324C188.099,-103.979 169.422,-91.2122 154.997,-81.3524"/>
<polygon fill="midnightblue" stroke="midnightblue" points="156.892,-78.4082 146.661,-75.6545 152.942,-84.1871 156.892,-78.4082"/>
</g>
<!-- Node11&#45;&gt;Node4 -->
<g id="edge13" class="edge"><title>Node11&#45;&gt;Node4</title>
<path fill="none" stroke="midnightblue" d="M116.005,-56.324C97.9623,-47.6247 69.9531,-34.1202 49.1973,-24.113"/>
<polygon fill="midnightblue" stroke="midnightblue" points="50.4778,-20.8449 39.9501,-19.6545 47.4377,-27.1502 50.4778,-20.8449"/>
</g>
<!-- Node11&#45;&gt;Node6 -->
<g id="edge12" class="edge"><title>Node11&#45;&gt;Node6</title>
<path fill="none" stroke="midnightblue" d="M180.218,-56.6808C241.082,-45.7252 346.661,-26.7209 400.435,-17.0417"/>
<polygon fill="midnightblue" stroke="midnightblue" points="401.248,-20.4516 410.47,-15.2354 400.008,-13.5623 401.248,-20.4516"/>
</g>
<!-- Node11&#45;&gt;Node7 -->
<g id="edge14" class="edge"><title>Node11&#45;&gt;Node7</title>
<path fill="none" stroke="midnightblue" d="M130.202,-56.083C127.087,-48.77 122.577,-38.1814 118.711,-29.1034"/>
<polygon fill="midnightblue" stroke="midnightblue" points="121.866,-27.5798 114.727,-19.7511 115.426,-30.3229 121.866,-27.5798"/>
</g>
</g>
</svg>
