<?xml version="1.0" encoding="UTF-8" standalone="no"?>
<!DOCTYPE svg PUBLIC "-//W3C//DTD SVG 1.1//EN"
 "http://www.w3.org/Graphics/SVG/1.1/DTD/svg11.dtd">
<!-- Generated by graphviz version 2.36.0 (20140111.2315)
 -->
<!-- Title: parameter/Element.cpp Pages: 1 -->
<svg width="969pt" height="252pt"
 viewBox="0.00 0.00 969.00 252.00" xmlns="http://www.w3.org/2000/svg" xmlns:xlink="http://www.w3.org/1999/xlink">
<g id="graph0" class="graph" transform="scale(1 1) rotate(0) translate(4 248)">
<title>parameter/Element.cpp</title>
<polygon fill="white" stroke="none" points="-4,4 -4,-248 965,-248 965,4 -4,4"/>
<!-- Node1 -->
<g id="node1" class="node"><title>Node1</title>
<polygon fill="#bfbfbf" stroke="black" points="628.5,-224.5 628.5,-243.5 759.5,-243.5 759.5,-224.5 628.5,-224.5"/>
<text text-anchor="middle" x="694" y="-231.5" font-family="Verdana" font-size="10.00">parameter/Element.cpp</text>
</g>
<!-- Node2 -->
<g id="node2" class="node"><title>Node2</title>
<g id="a_node2"><a xlink:href="Element_8h.html" target="_top" xlink:title="Element.h">
<polygon fill="white" stroke="black" points="263.5,-112.5 263.5,-131.5 328.5,-131.5 328.5,-112.5 263.5,-112.5"/>
<text text-anchor="middle" x="296" y="-119.5" font-family="Verdana" font-size="10.00">Element.h</text>
</a>
</g>
</g>
<!-- Node1&#45;&gt;Node2 -->
<g id="edge1" class="edge"><title>Node1&#45;&gt;Node2</title>
<path fill="none" stroke="midnightblue" d="M628.161,-230.551C540.686,-226.281 391.743,-215.171 345,-188 326.358,-177.164 312.532,-156.155 304.403,-140.949"/>
<polygon fill="midnightblue" stroke="midnightblue" points="307.504,-139.326 299.89,-131.959 301.248,-142.466 307.504,-139.326"/>
</g>
<!-- Node10 -->
<g id="node10" class="node"><title>Node10</title>
<g id="a_node10"><a xlink:href="XmlElementSerializingContext_8h.html" target="_top" xlink:title="XmlElementSerializingContext.h">
<polygon fill="white" stroke="black" points="468,-168.5 468,-187.5 638,-187.5 638,-168.5 468,-168.5"/>
<text text-anchor="middle" x="553" y="-175.5" font-family="Verdana" font-size="10.00">XmlElementSerializingContext.h</text>
</a>
</g>
</g>
<!-- Node1&#45;&gt;Node10 -->
<g id="edge12" class="edge"><title>Node1&#45;&gt;Node10</title>
<path fill="none" stroke="midnightblue" d="M671.658,-224.444C648.247,-215.478 611.264,-201.314 584.81,-191.183"/>
<polygon fill="midnightblue" stroke="midnightblue" points="585.828,-187.824 575.237,-187.516 583.324,-194.361 585.828,-187.824"/>
</g>
<!-- Node12 -->
<g id="node12" class="node"><title>Node12</title>
<g id="a_node12"><a xlink:href="ElementLibrary_8h.html" target="_top" xlink:title="ElementLibrary.h">
<polygon fill="white" stroke="black" points="354,-168.5 354,-187.5 450,-187.5 450,-168.5 354,-168.5"/>
<text text-anchor="middle" x="402" y="-175.5" font-family="Verdana" font-size="10.00">ElementLibrary.h</text>
</a>
</g>
</g>
<!-- Node1&#45;&gt;Node12 -->
<g id="edge15" class="edge"><title>Node1&#45;&gt;Node12</title>
<path fill="none" stroke="midnightblue" d="M647.732,-224.444C596.259,-214.925 513.107,-199.547 458.001,-189.356"/>
<polygon fill="midnightblue" stroke="midnightblue" points="458.522,-185.893 448.052,-187.516 457.249,-192.777 458.522,-185.893"/>
</g>
<!-- Node14 -->
<g id="node14" class="node"><title>Node14</title>
<g id="a_node14"><a xlink:href="ErrorContext_8h.html" target="_top" xlink:title="ErrorContext.h">
<polygon fill="white" stroke="black" points="673,-112.5 673,-131.5 759,-131.5 759,-112.5 673,-112.5"/>
<text text-anchor="middle" x="716" y="-119.5" font-family="Verdana" font-size="10.00">ErrorContext.h</text>
</a>
</g>
</g>
<!-- Node1&#45;&gt;Node14 -->
<g id="edge19" class="edge"><title>Node1&#45;&gt;Node14</title>
<path fill="none" stroke="midnightblue" d="M690.481,-224.392C685.833,-211.761 678.908,-187.581 685,-168 688.229,-157.622 694.776,-147.521 701.025,-139.527"/>
<polygon fill="midnightblue" stroke="midnightblue" points="703.785,-141.682 707.517,-131.766 698.416,-137.19 703.785,-141.682"/>
</g>
<!-- Node15 -->
<g id="node15" class="node"><title>Node15</title>
<polygon fill="white" stroke="#bfbfbf" points="694,-168.5 694,-187.5 750,-187.5 750,-168.5 694,-168.5"/>
<text text-anchor="middle" x="722" y="-175.5" font-family="Verdana" font-size="10.00">assert.h</text>
</g>
<!-- Node1&#45;&gt;Node15 -->
<g id="edge21" class="edge"><title>Node1&#45;&gt;Node15</title>
<path fill="none" stroke="midnightblue" d="M698.624,-224.083C702.456,-216.691 708.024,-205.953 712.765,-196.811"/>
<polygon fill="midnightblue" stroke="midnightblue" points="715.966,-198.24 717.462,-187.751 709.752,-195.018 715.966,-198.24"/>
</g>
<!-- Node16 -->
<g id="node16" class="node"><title>Node16</title>
<polygon fill="white" stroke="#bfbfbf" points="768.5,-168.5 768.5,-187.5 817.5,-187.5 817.5,-168.5 768.5,-168.5"/>
<text text-anchor="middle" x="793" y="-175.5" font-family="Verdana" font-size="10.00">stdio.h</text>
</g>
<!-- Node1&#45;&gt;Node16 -->
<g id="edge22" class="edge"><title>Node1&#45;&gt;Node16</title>
<path fill="none" stroke="midnightblue" d="M709.906,-224.324C725.638,-215.743 749.942,-202.486 768.209,-192.522"/>
<polygon fill="midnightblue" stroke="midnightblue" points="770.03,-195.516 777.133,-187.655 766.678,-189.37 770.03,-195.516"/>
</g>
<!-- Node17 -->
<g id="node17" class="node"><title>Node17</title>
<polygon fill="white" stroke="#bfbfbf" points="836,-168.5 836,-187.5 892,-187.5 892,-168.5 836,-168.5"/>
<text text-anchor="middle" x="864" y="-175.5" font-family="Verdana" font-size="10.00">stdarg.h</text>
</g>
<!-- Node1&#45;&gt;Node17 -->
<g id="edge23" class="edge"><title>Node1&#45;&gt;Node17</title>
<path fill="none" stroke="midnightblue" d="M720.937,-224.444C749.66,-215.32 795.329,-200.813 827.321,-190.651"/>
<polygon fill="midnightblue" stroke="midnightblue" points="828.718,-193.88 837.189,-187.516 826.599,-187.208 828.718,-193.88"/>
</g>
<!-- Node18 -->
<g id="node18" class="node"><title>Node18</title>
<polygon fill="white" stroke="#bfbfbf" points="910.5,-168.5 910.5,-187.5 961.5,-187.5 961.5,-168.5 910.5,-168.5"/>
<text text-anchor="middle" x="936" y="-175.5" font-family="Verdana" font-size="10.00">stdlib.h</text>
</g>
<!-- Node1&#45;&gt;Node18 -->
<g id="edge24" class="edge"><title>Node1&#45;&gt;Node18</title>
<path fill="none" stroke="midnightblue" d="M734.731,-224.478C776.346,-215.683 842.793,-201.396 900,-188 900.212,-187.95 900.424,-187.901 900.637,-187.851"/>
<polygon fill="midnightblue" stroke="midnightblue" points="901.554,-191.23 910.457,-185.486 899.915,-184.424 901.554,-191.23"/>
</g>
<!-- Node3 -->
<g id="node3" class="node"><title>Node3</title>
<polygon fill="white" stroke="#bfbfbf" points="437,-0.5 437,-19.5 481,-19.5 481,-0.5 437,-0.5"/>
<text text-anchor="middle" x="459" y="-7.5" font-family="Verdana" font-size="10.00">string</text>
</g>
<!-- Node2&#45;&gt;Node3 -->
<g id="edge2" class="edge"><title>Node2&#45;&gt;Node3</title>
<path fill="none" stroke="midnightblue" d="M325.719,-112.385C348.05,-105.001 378.673,-92.8718 402,-76 420.356,-62.7234 436.882,-42.5068 447.354,-28.1491"/>
<polygon fill="midnightblue" stroke="midnightblue" points="450.415,-29.8809 453.32,-19.6919 444.696,-25.8457 450.415,-29.8809"/>
</g>
<!-- Node4 -->
<g id="node4" class="node"><title>Node4</title>
<polygon fill="white" stroke="#bfbfbf" points="190.5,-0.5 190.5,-19.5 237.5,-19.5 237.5,-0.5 190.5,-0.5"/>
<text text-anchor="middle" x="214" y="-7.5" font-family="Verdana" font-size="10.00">vector</text>
</g>
<!-- Node2&#45;&gt;Node4 -->
<g id="edge3" class="edge"><title>Node2&#45;&gt;Node4</title>
<path fill="none" stroke="midnightblue" d="M289.566,-112.368C275.973,-94.135 244.136,-51.4257 226.431,-27.6752"/>
<polygon fill="midnightblue" stroke="midnightblue" points="229.187,-25.5171 220.405,-19.5914 223.575,-29.7007 229.187,-25.5171"/>
</g>
<!-- Node5 -->
<g id="node5" class="node"><title>Node5</title>
<polygon fill="white" stroke="#bfbfbf" points="116.5,-0.5 116.5,-19.5 169.5,-19.5 169.5,-0.5 116.5,-0.5"/>
<text text-anchor="middle" x="143" y="-7.5" font-family="Verdana" font-size="10.00">stdint.h</text>
</g>
<!-- Node2&#45;&gt;Node5 -->
<g id="edge4" class="edge"><title>Node2&#45;&gt;Node5</title>
<path fill="none" stroke="midnightblue" d="M263.26,-117.17C218.247,-111.155 140.882,-97.8668 124,-76 113.273,-62.1061 121.52,-42.3105 130.259,-28.2224"/>
<polygon fill="midnightblue" stroke="midnightblue" points="133.178,-30.1532 135.877,-19.908 127.378,-26.2338 133.178,-30.1532"/>
</g>
<!-- Node6 -->
<g id="node6" class="node"><title>Node6</title>
<polygon fill="white" stroke="#bfbfbf" points="281,-56.5 281,-75.5 311,-75.5 311,-56.5 281,-56.5"/>
<text text-anchor="middle" x="296" y="-63.5" font-family="Verdana" font-size="10.00">list</text>
</g>
<!-- Node2&#45;&gt;Node6 -->
<g id="edge5" class="edge"><title>Node2&#45;&gt;Node6</title>
<path fill="none" stroke="midnightblue" d="M296,-112.083C296,-105.006 296,-94.8611 296,-85.9865"/>
<polygon fill="midnightblue" stroke="midnightblue" points="299.5,-85.751 296,-75.7511 292.5,-85.7511 299.5,-85.751"/>
</g>
<!-- Node7 -->
<g id="node7" class="node"><title>Node7</title>
<polygon fill="white" stroke="#bfbfbf" points="329,-56.5 329,-75.5 393,-75.5 393,-56.5 329,-56.5"/>
<text text-anchor="middle" x="361" y="-63.5" font-family="Verdana" font-size="10.00">XmlSink.h</text>
</g>
<!-- Node2&#45;&gt;Node7 -->
<g id="edge6" class="edge"><title>Node2&#45;&gt;Node7</title>
<path fill="none" stroke="midnightblue" d="M306.443,-112.324C316.146,-104.263 330.815,-92.0765 342.5,-82.3695"/>
<polygon fill="midnightblue" stroke="midnightblue" points="344.911,-84.9163 350.367,-75.8339 340.438,-79.532 344.911,-84.9163"/>
</g>
<!-- Node8 -->
<g id="node8" class="node"><title>Node8</title>
<polygon fill="white" stroke="#bfbfbf" points="-0.5,-56.5 -0.5,-75.5 76.5,-75.5 76.5,-56.5 -0.5,-56.5"/>
<text text-anchor="middle" x="38" y="-63.5" font-family="Verdana" font-size="10.00">XmlSource.h</text>
</g>
<!-- Node2&#45;&gt;Node8 -->
<g id="edge7" class="edge"><title>Node2&#45;&gt;Node8</title>
<path fill="none" stroke="midnightblue" d="M263.324,-114.161C218.705,-104.822 138.366,-88.0069 86.6523,-77.183"/>
<polygon fill="midnightblue" stroke="midnightblue" points="87.2152,-73.7251 76.7102,-75.1021 85.7811,-80.5766 87.2152,-73.7251"/>
</g>
<!-- Node9 -->
<g id="node9" class="node"><title>Node9</title>
<g id="a_node9"><a xlink:href="PathNavigator_8h.html" target="_top" xlink:title="PathNavigator.h">
<polygon fill="white" stroke="black" points="133,-56.5 133,-75.5 225,-75.5 225,-56.5 133,-56.5"/>
<text text-anchor="middle" x="179" y="-63.5" font-family="Verdana" font-size="10.00">PathNavigator.h</text>
</a>
</g>
</g>
<!-- Node2&#45;&gt;Node9 -->
<g id="edge8" class="edge"><title>Node2&#45;&gt;Node9</title>
<path fill="none" stroke="midnightblue" d="M277.461,-112.444C258.377,-103.636 228.425,-89.8116 206.564,-79.722"/>
<polygon fill="midnightblue" stroke="midnightblue" points="207.999,-76.5292 197.452,-75.5164 205.065,-82.8849 207.999,-76.5292"/>
</g>
<!-- Node9&#45;&gt;Node3 -->
<g id="edge10" class="edge"><title>Node9&#45;&gt;Node3</title>
<path fill="none" stroke="midnightblue" d="M223.367,-56.4435C280.089,-45.5043 376.929,-26.828 426.967,-17.1778"/>
<polygon fill="midnightblue" stroke="midnightblue" points="427.747,-20.592 436.903,-15.2616 426.421,-13.7187 427.747,-20.592"/>
</g>
<!-- Node9&#45;&gt;Node4 -->
<g id="edge9" class="edge"><title>Node9&#45;&gt;Node4</title>
<path fill="none" stroke="midnightblue" d="M184.78,-56.083C189.672,-48.5341 196.827,-37.4948 202.833,-28.2298"/>
<polygon fill="midnightblue" stroke="midnightblue" points="205.826,-30.0463 208.328,-19.7511 199.952,-26.239 205.826,-30.0463"/>
</g>
<!-- Node9&#45;&gt;Node5 -->
<g id="edge11" class="edge"><title>Node9&#45;&gt;Node5</title>
<path fill="none" stroke="midnightblue" d="M173.055,-56.083C168.023,-48.5341 160.663,-37.4948 154.487,-28.2298"/>
<polygon fill="midnightblue" stroke="midnightblue" points="157.293,-26.1301 148.834,-19.7511 151.469,-30.0131 157.293,-26.1301"/>
</g>
<!-- Node10&#45;&gt;Node3 -->
<g id="edge14" class="edge"><title>Node10&#45;&gt;Node3</title>
<path fill="none" stroke="midnightblue" d="M544.642,-168.202C536.637,-159.48 524.545,-145.504 516,-132 494.151,-97.4724 475.408,-53.2437 465.824,-28.9624"/>
<polygon fill="midnightblue" stroke="midnightblue" points="469.068,-27.6482 462.191,-19.5893 462.542,-30.1784 469.068,-27.6482"/>
</g>
<!-- Node11 -->
<g id="node11" class="node"><title>Node11</title>
<polygon fill="white" stroke="#bfbfbf" points="525,-112.5 525,-131.5 655,-131.5 655,-112.5 525,-112.5"/>
<text text-anchor="middle" x="590" y="-119.5" font-family="Verdana" font-size="10.00">XmlSerializingContext.h</text>
</g>
<!-- Node10&#45;&gt;Node11 -->
<g id="edge13" class="edge"><title>Node10&#45;&gt;Node11</title>
<path fill="none" stroke="midnightblue" d="M559.11,-168.083C564.282,-160.534 571.846,-149.495 578.194,-140.23"/>
<polygon fill="midnightblue" stroke="midnightblue" points="581.239,-141.979 584.004,-131.751 575.464,-138.022 581.239,-141.979"/>
</g>
<!-- Node12&#45;&gt;Node2 -->
<g id="edge18" class="edge"><title>Node12&#45;&gt;Node2</title>
<path fill="none" stroke="midnightblue" d="M384.969,-168.324C367.97,-159.664 341.624,-146.242 322.007,-136.249"/>
<polygon fill="midnightblue" stroke="midnightblue" points="323.488,-133.075 312.988,-131.655 320.31,-139.312 323.488,-133.075"/>
</g>
<!-- Node12&#45;&gt;Node3 -->
<g id="edge17" class="edge"><title>Node12&#45;&gt;Node3</title>
<path fill="none" stroke="midnightblue" d="M408.464,-168.492C414.804,-159.766 424.322,-145.583 430,-132 444.528,-97.2441 452.72,-53.6932 456.466,-29.4564"/>
<polygon fill="midnightblue" stroke="midnightblue" points="459.938,-29.907 457.92,-19.5061 453.011,-28.8953 459.938,-29.907"/>
</g>
<!-- Node13 -->
<g id="node13" class="node"><title>Node13</title>
<polygon fill="white" stroke="#bfbfbf" points="383,-112.5 383,-131.5 421,-131.5 421,-112.5 383,-112.5"/>
<text text-anchor="middle" x="402" y="-119.5" font-family="Verdana" font-size="10.00">map</text>
</g>
<!-- Node12&#45;&gt;Node13 -->
<g id="edge16" class="edge"><title>Node12&#45;&gt;Node13</title>
<path fill="none" stroke="midnightblue" d="M402,-168.083C402,-161.006 402,-150.861 402,-141.986"/>
<polygon fill="midnightblue" stroke="midnightblue" points="405.5,-141.751 402,-131.751 398.5,-141.751 405.5,-141.751"/>
</g>
<!-- Node14&#45;&gt;Node3 -->
<g id="edge20" class="edge"><title>Node14&#45;&gt;Node3</title>
<path fill="none" stroke="midnightblue" d="M695.834,-112.368C650.7,-93.0507 541.378,-46.2592 488.55,-23.6481"/>
<polygon fill="midnightblue" stroke="midnightblue" points="489.643,-20.3087 479.073,-19.5914 486.889,-26.744 489.643,-20.3087"/>
</g>
</g>
</svg>
