<?xml version="1.0" encoding="UTF-8" standalone="no"?>
<!DOCTYPE svg PUBLIC "-//W3C//DTD SVG 1.1//EN"
 "http://www.w3.org/Graphics/SVG/1.1/DTD/svg11.dtd">
<!-- Generated by graphviz version 2.38.0 (20140413.2041)
 -->
<!-- Title: parameter/ElementLibrary.h Pages: 1 -->
<svg width="868pt" height="229pt"
 viewBox="0.00 0.00 867.50 229.00" xmlns="http://www.w3.org/2000/svg" xmlns:xlink="http://www.w3.org/1999/xlink">
<g id="graph0" class="graph" transform="scale(1 1) rotate(0) translate(4 225)">
<title>parameter/ElementLibrary.h</title>
<polygon fill="white" stroke="none" points="-4,4 -4,-225 863.5,-225 863.5,4 -4,4"/>
<!-- Node1 -->
<g id="node1" class="node"><title>Node1</title>
<polygon fill="#bfbfbf" stroke="black" points="384,-201.5 384,-220.5 534,-220.5 534,-201.5 384,-201.5"/>
<text text-anchor="middle" x="459" y="-208.5" font-family="Verdana" font-size="10.00">parameter/ElementLibrary.h</text>
</g>
<!-- Node2 -->
<g id="node2" class="node"><title>Node2</title>
<g id="a_node2"><a xlink:href="DefaultElementLibrary_8h.html" target="_top" xlink:title="parameter/DefaultElement\lLibrary.h">
<polygon fill="white" stroke="black" points="66.5,-134.5 66.5,-164.5 211.5,-164.5 211.5,-134.5 66.5,-134.5"/>
<text text-anchor="start" x="74.5" y="-152.5" font-family="Verdana" font-size="10.00">parameter/DefaultElement</text>
<text text-anchor="middle" x="139" y="-141.5" font-family="Verdana" font-size="10.00">Library.h</text>
</a>
</g>
</g>
<!-- Node1&#45;&gt;Node2 -->
<g id="edge1" class="edge"><title>Node1&#45;&gt;Node2</title>
<path fill="none" stroke="midnightblue" d="M403.228,-199.63C350.086,-189.749 269.785,-174.818 211.658,-164.01"/>
<polygon fill="midnightblue" stroke="midnightblue" points="402.68,-203.088 413.152,-201.475 403.96,-196.206 402.68,-203.088"/>
</g>
<!-- Node8 -->
<g id="node8" class="node"><title>Node8</title>
<g id="a_node8"><a xlink:href="Element_8cpp.html" target="_top" xlink:title="parameter/Element.cpp">
<polygon fill="white" stroke="black" points="229.5,-140 229.5,-159 360.5,-159 360.5,-140 229.5,-140"/>
<text text-anchor="middle" x="295" y="-147" font-family="Verdana" font-size="10.00">parameter/Element.cpp</text>
</a>
</g>
</g>
<!-- Node1&#45;&gt;Node8 -->
<g id="edge7" class="edge"><title>Node1&#45;&gt;Node8</title>
<path fill="none" stroke="midnightblue" d="M425.739,-197.933C393.864,-186.368 346.566,-169.208 318.454,-159.009"/>
<polygon fill="midnightblue" stroke="midnightblue" points="424.909,-201.355 435.503,-201.475 427.296,-194.774 424.909,-201.355"/>
</g>
<!-- Node9 -->
<g id="node9" class="node"><title>Node9</title>
<g id="a_node9"><a xlink:href="ElementLibrary_8cpp.html" target="_top" xlink:title="parameter/ElementLibrary.cpp">
<polygon fill="white" stroke="black" points="378.5,-140 378.5,-159 539.5,-159 539.5,-140 378.5,-140"/>
<text text-anchor="middle" x="459" y="-147" font-family="Verdana" font-size="10.00">parameter/ElementLibrary.cpp</text>
</a>
</g>
</g>
<!-- Node1&#45;&gt;Node9 -->
<g id="edge8" class="edge"><title>Node1&#45;&gt;Node9</title>
<path fill="none" stroke="midnightblue" d="M459,-191.317C459,-180.496 459,-167.398 459,-159.009"/>
<polygon fill="midnightblue" stroke="midnightblue" points="455.5,-191.475 459,-201.475 462.5,-191.475 455.5,-191.475"/>
</g>
<!-- Node10 -->
<g id="node10" class="node"><title>Node10</title>
<g id="a_node10"><a xlink:href="ElementLibrarySet_8h.html" target="_top" xlink:title="parameter/ElementLibrary\lSet.h">
<polygon fill="white" stroke="black" points="557.5,-134.5 557.5,-164.5 700.5,-164.5 700.5,-134.5 557.5,-134.5"/>
<text text-anchor="start" x="565.5" y="-152.5" font-family="Verdana" font-size="10.00">parameter/ElementLibrary</text>
<text text-anchor="middle" x="629" y="-141.5" font-family="Verdana" font-size="10.00">Set.h</text>
</a>
</g>
</g>
<!-- Node1&#45;&gt;Node10 -->
<g id="edge9" class="edge"><title>Node1&#45;&gt;Node10</title>
<path fill="none" stroke="midnightblue" d="M492.991,-198.103C520.653,-188.422 559.752,-174.737 588.934,-164.523"/>
<polygon fill="midnightblue" stroke="midnightblue" points="491.639,-194.868 483.357,-201.475 493.952,-201.475 491.639,-194.868"/>
</g>
<!-- Node12 -->
<g id="node12" class="node"><title>Node12</title>
<g id="a_node12"><a xlink:href="XmlFileIncluderElement_8cpp.html" target="_top" xlink:title="parameter/XmlFileIncluder\lElement.cpp">
<polygon fill="white" stroke="black" points="718.5,-134.5 718.5,-164.5 859.5,-164.5 859.5,-134.5 718.5,-134.5"/>
<text text-anchor="start" x="726.5" y="-152.5" font-family="Verdana" font-size="10.00">parameter/XmlFileIncluder</text>
<text text-anchor="middle" x="789" y="-141.5" font-family="Verdana" font-size="10.00">Element.cpp</text>
</a>
</g>
</g>
<!-- Node1&#45;&gt;Node12 -->
<g id="edge12" class="edge"><title>Node1&#45;&gt;Node12</title>
<path fill="none" stroke="midnightblue" d="M517.278,-199.622C568.158,-190.545 643.981,-176.977 710,-165 712.744,-164.502 715.542,-163.994 718.367,-163.479"/>
<polygon fill="midnightblue" stroke="midnightblue" points="516.359,-196.231 507.129,-201.432 517.588,-203.122 516.359,-196.231"/>
</g>
<!-- Node3 -->
<g id="node3" class="node"><title>Node3</title>
<g id="a_node3"><a xlink:href="SubsystemLibrary_8h.html" target="_top" xlink:title="parameter/SubsystemLibrary.h">
<polygon fill="white" stroke="black" points="126,-73 126,-92 290,-92 290,-73 126,-73"/>
<text text-anchor="middle" x="208" y="-80" font-family="Verdana" font-size="10.00">parameter/SubsystemLibrary.h</text>
</a>
</g>
</g>
<!-- Node2&#45;&gt;Node3 -->
<g id="edge2" class="edge"><title>Node2&#45;&gt;Node3</title>
<path fill="none" stroke="midnightblue" d="M161.467,-127.335C174.136,-115.401 189.279,-101.136 198.77,-92.1945"/>
<polygon fill="midnightblue" stroke="midnightblue" points="158.851,-124.991 153.972,-134.396 163.651,-130.087 158.851,-124.991"/>
</g>
<!-- Node4 -->
<g id="node4" class="node"><title>Node4</title>
<g id="a_node4"><a xlink:href="ParameterMgr_8cpp.html" target="_top" xlink:title="parameter/ParameterMgr.cpp">
<polygon fill="white" stroke="black" points="515,-6 515,-25 673,-25 673,-6 515,-6"/>
<text text-anchor="middle" x="594" y="-13" font-family="Verdana" font-size="10.00">parameter/ParameterMgr.cpp</text>
</a>
</g>
</g>
<!-- Node3&#45;&gt;Node4 -->
<g id="edge3" class="edge"><title>Node3&#45;&gt;Node4</title>
<path fill="none" stroke="midnightblue" d="M268.736,-71.2724C344.486,-58.5165 472.614,-36.9407 543.335,-25.0317"/>
<polygon fill="midnightblue" stroke="midnightblue" points="268.14,-67.8235 258.86,-72.9355 269.302,-74.7263 268.14,-67.8235"/>
</g>
<!-- Node5 -->
<g id="node5" class="node"><title>Node5</title>
<g id="a_node5"><a xlink:href="Plugin_8h.html" target="_top" xlink:title="This file is intended to be used by the plugins. ">
<polygon fill="white" stroke="black" points="0,-6 0,-25 108,-25 108,-6 0,-6"/>
<text text-anchor="middle" x="54" y="-13" font-family="Verdana" font-size="10.00">parameter/Plugin.h</text>
</a>
</g>
</g>
<!-- Node3&#45;&gt;Node5 -->
<g id="edge4" class="edge"><title>Node3&#45;&gt;Node5</title>
<path fill="none" stroke="midnightblue" d="M178.263,-68.9485C147.771,-56.0787 101.155,-36.4032 74.5346,-25.1672"/>
<polygon fill="midnightblue" stroke="midnightblue" points="176.976,-72.2044 187.55,-72.8685 179.698,-65.7553 176.976,-72.2044"/>
</g>
<!-- Node6 -->
<g id="node6" class="node"><title>Node6</title>
<g id="a_node6"><a xlink:href="SubsystemElementBuilder_8cpp.html" target="_top" xlink:title="parameter/SubsystemElement\lBuilder.cpp">
<polygon fill="white" stroke="black" points="126,-0.5 126,-30.5 290,-30.5 290,-0.5 126,-0.5"/>
<text text-anchor="start" x="134" y="-18.5" font-family="Verdana" font-size="10.00">parameter/SubsystemElement</text>
<text text-anchor="middle" x="208" y="-7.5" font-family="Verdana" font-size="10.00">Builder.cpp</text>
</a>
</g>
</g>
<!-- Node3&#45;&gt;Node6 -->
<g id="edge5" class="edge"><title>Node3&#45;&gt;Node6</title>
<path fill="none" stroke="midnightblue" d="M208,-62.4107C208,-52.222 208,-39.901 208,-30.589"/>
<polygon fill="midnightblue" stroke="midnightblue" points="204.5,-62.7338 208,-72.7338 211.5,-62.7338 204.5,-62.7338"/>
</g>
<!-- Node7 -->
<g id="node7" class="node"><title>Node7</title>
<g id="a_node7"><a xlink:href="SystemClass_8cpp.html" target="_top" xlink:title="parameter/SystemClass.cpp">
<polygon fill="white" stroke="black" points="308.5,-6 308.5,-25 461.5,-25 461.5,-6 308.5,-6"/>
<text text-anchor="middle" x="385" y="-13" font-family="Verdana" font-size="10.00">parameter/SystemClass.cpp</text>
</a>
</g>
</g>
<!-- Node3&#45;&gt;Node7 -->
<g id="edge6" class="edge"><title>Node3&#45;&gt;Node7</title>
<path fill="none" stroke="midnightblue" d="M241.301,-69.2706C276.431,-56.3699 330.877,-36.3757 361.68,-25.0637"/>
<polygon fill="midnightblue" stroke="midnightblue" points="239.685,-66.1357 231.504,-72.8685 242.098,-72.7067 239.685,-66.1357"/>
</g>
<!-- Node10&#45;&gt;Node4 -->
<g id="edge11" class="edge"><title>Node10&#45;&gt;Node4</title>
<path fill="none" stroke="midnightblue" d="M623.437,-124.526C619.582,-108.249 614.221,-86.2635 609,-67 604.98,-52.1699 599.777,-35.0558 596.674,-25.0422"/>
<polygon fill="midnightblue" stroke="midnightblue" points="620.042,-125.378 625.737,-134.313 626.856,-123.777 620.042,-125.378"/>
</g>
<!-- Node11 -->
<g id="node11" class="node"><title>Node11</title>
<g id="a_node11"><a xlink:href="ElementLibrarySet_8cpp.html" target="_top" xlink:title="parameter/ElementLibrary\lSet.cpp">
<polygon fill="white" stroke="black" points="457.5,-67.5 457.5,-97.5 600.5,-97.5 600.5,-67.5 457.5,-67.5"/>
<text text-anchor="start" x="465.5" y="-85.5" font-family="Verdana" font-size="10.00">parameter/ElementLibrary</text>
<text text-anchor="middle" x="529" y="-74.5" font-family="Verdana" font-size="10.00">Set.cpp</text>
</a>
</g>
</g>
<!-- Node10&#45;&gt;Node11 -->
<g id="edge10" class="edge"><title>Node10&#45;&gt;Node11</title>
<path fill="none" stroke="midnightblue" d="M598.59,-128.734C583.116,-118.676 564.669,-106.685 550.656,-97.5765"/>
<polygon fill="midnightblue" stroke="midnightblue" points="597.01,-131.881 607.301,-134.396 600.825,-126.011 597.01,-131.881"/>
</g>
</g>
</svg>
