<?xml version="1.0" encoding="UTF-8" standalone="no"?>
<!DOCTYPE svg PUBLIC "-//W3C//DTD SVG 1.1//EN"
 "http://www.w3.org/Graphics/SVG/1.1/DTD/svg11.dtd">
<!-- Generated by graphviz version 2.38.0 (20140413.2041)
 -->
<!-- Title: /home/dawagner/dev/parameter&#45;framework/parameter/ElementLocator.h Pages: 1 -->
<svg width="356pt" height="128pt"
 viewBox="0.00 0.00 356.00 128.00" xmlns="http://www.w3.org/2000/svg" xmlns:xlink="http://www.w3.org/1999/xlink">
<g id="graph0" class="graph" transform="scale(1 1) rotate(0) translate(4 124)">
<title>/home/dawagner/dev/parameter&#45;framework/parameter/ElementLocator.h</title>
<polygon fill="white" stroke="none" points="-4,4 -4,-124 352,-124 352,4 -4,4"/>
<!-- Node1 -->
<g id="node1" class="node"><title>Node1</title>
<polygon fill="#bfbfbf" stroke="black" points="96.5,-78.5 96.5,-119.5 254.5,-119.5 254.5,-78.5 96.5,-78.5"/>
<text text-anchor="start" x="104.5" y="-107.5" font-family="Verdana" font-size="10.00">/home/dawagner/dev</text>
<text text-anchor="start" x="104.5" y="-96.5" font-family="Verdana" font-size="10.00">/parameter&#45;framework</text>
<text text-anchor="middle" x="175.5" y="-85.5" font-family="Verdana" font-size="10.00">/parameter/ElementLocator.h</text>
</g>
<!-- Node2 -->
<g id="node2" class="node"><title>Node2</title>
<g id="a_node2"><a xlink:href="ElementLocator_8cpp.html" target="_top" xlink:title="/home/dawagner/dev\l/parameter&#45;framework\l/parameter/ElementLocator.cpp">
<polygon fill="white" stroke="black" points="0,-0.5 0,-41.5 169,-41.5 169,-0.5 0,-0.5"/>
<text text-anchor="start" x="8" y="-29.5" font-family="Verdana" font-size="10.00">/home/dawagner/dev</text>
<text text-anchor="start" x="8" y="-18.5" font-family="Verdana" font-size="10.00">/parameter&#45;framework</text>
<text text-anchor="middle" x="84.5" y="-7.5" font-family="Verdana" font-size="10.00">/parameter/ElementLocator.cpp</text>
</a>
</g>
</g>
<!-- Node1&#45;&gt;Node2 -->
<g id="edge1" class="edge"><title>Node1&#45;&gt;Node2</title>
<path fill="none" stroke="midnightblue" d="M144.103,-71.7785C132.207,-61.8432 118.884,-50.7159 107.855,-41.5056"/>
<polygon fill="midnightblue" stroke="midnightblue" points="142.146,-74.7043 152.065,-78.4281 146.633,-69.3316 142.146,-74.7043"/>
</g>
<!-- Node3 -->
<g id="node3" class="node"><title>Node3</title>
<g id="a_node3"><a xlink:href="ParameterMgr_8cpp.html" target="_top" xlink:title="/home/dawagner/dev\l/parameter&#45;framework\l/parameter/ParameterMgr.cpp">
<polygon fill="white" stroke="black" points="187,-0.5 187,-41.5 348,-41.5 348,-0.5 187,-0.5"/>
<text text-anchor="start" x="195" y="-29.5" font-family="Verdana" font-size="10.00">/home/dawagner/dev</text>
<text text-anchor="start" x="195" y="-18.5" font-family="Verdana" font-size="10.00">/parameter&#45;framework</text>
<text text-anchor="middle" x="267.5" y="-7.5" font-family="Verdana" font-size="10.00">/parameter/ParameterMgr.cpp</text>
</a>
</g>
</g>
<!-- Node1&#45;&gt;Node3 -->
<g id="edge2" class="edge"><title>Node1&#45;&gt;Node3</title>
<path fill="none" stroke="midnightblue" d="M207.242,-71.7785C219.269,-61.8432 232.739,-50.7159 243.888,-41.5056"/>
<polygon fill="midnightblue" stroke="midnightblue" points="204.673,-69.3609 199.192,-78.4281 209.131,-74.7576 204.673,-69.3609"/>
</g>
</g>
</svg>
