<?xml version="1.0" encoding="UTF-8" standalone="no"?>
<!DOCTYPE svg PUBLIC "-//W3C//DTD SVG 1.1//EN"
 "http://www.w3.org/Graphics/SVG/1.1/DTD/svg11.dtd">
<!-- Generated by graphviz version 2.38.0 (20140413.2041)
 -->
<!-- Title: parameter/ElementLocator.h Pages: 1 -->
<svg width="350pt" height="84pt"
 viewBox="0.00 0.00 350.00 84.00" xmlns="http://www.w3.org/2000/svg" xmlns:xlink="http://www.w3.org/1999/xlink">
<g id="graph0" class="graph" transform="scale(1 1) rotate(0) translate(4 80)">
<title>parameter/ElementLocator.h</title>
<polygon fill="white" stroke="none" points="-4,4 -4,-80 346,-80 346,4 -4,4"/>
<!-- Node1 -->
<g id="node1" class="node"><title>Node1</title>
<polygon fill="#bfbfbf" stroke="black" points="95.5,-56.5 95.5,-75.5 250.5,-75.5 250.5,-56.5 95.5,-56.5"/>
<text text-anchor="middle" x="173" y="-63.5" font-family="Verdana" font-size="10.00">parameter/ElementLocator.h</text>
</g>
<!-- Node2 -->
<g id="node2" class="node"><title>Node2</title>
<g id="a_node2"><a xlink:href="ElementLocator_8cpp.html" target="_top" xlink:title="parameter/ElementLocator.cpp">
<polygon fill="white" stroke="black" points="0,-0.5 0,-19.5 166,-19.5 166,-0.5 0,-0.5"/>
<text text-anchor="middle" x="83" y="-7.5" font-family="Verdana" font-size="10.00">parameter/ElementLocator.cpp</text>
</a>
</g>
</g>
<!-- Node1&#45;&gt;Node2 -->
<g id="edge1" class="edge"><title>Node1&#45;&gt;Node2</title>
<path fill="none" stroke="midnightblue" d="M149.962,-51.1774C133.401,-41.2407 111.582,-28.1492 97.4242,-19.6545"/>
<polygon fill="midnightblue" stroke="midnightblue" points="148.164,-54.1802 158.54,-56.324 151.766,-48.1777 148.164,-54.1802"/>
</g>
<!-- Node3 -->
<g id="node3" class="node"><title>Node3</title>
<g id="a_node3"><a xlink:href="ParameterMgr_8cpp.html" target="_top" xlink:title="parameter/ParameterMgr.cpp">
<polygon fill="white" stroke="black" points="184,-0.5 184,-19.5 342,-19.5 342,-0.5 184,-0.5"/>
<text text-anchor="middle" x="263" y="-7.5" font-family="Verdana" font-size="10.00">parameter/ParameterMgr.cpp</text>
</a>
</g>
</g>
<!-- Node1&#45;&gt;Node3 -->
<g id="edge2" class="edge"><title>Node1&#45;&gt;Node3</title>
<path fill="none" stroke="midnightblue" d="M196.038,-51.1774C212.599,-41.2407 234.418,-28.1492 248.576,-19.6545"/>
<polygon fill="midnightblue" stroke="midnightblue" points="194.234,-48.1777 187.46,-56.324 197.836,-54.1802 194.234,-48.1777"/>
</g>
</g>
</svg>
