<?xml version="1.0" encoding="UTF-8" standalone="no"?>
<!DOCTYPE svg PUBLIC "-//W3C//DTD SVG 1.1//EN"
 "http://www.w3.org/Graphics/SVG/1.1/DTD/svg11.dtd">
<!-- Generated by graphviz version 2.36.0 (20140111.2315)
 -->
<!-- Title: parameter/ElementLibrary.cpp Pages: 1 -->
<svg width="457pt" height="252pt"
 viewBox="0.00 0.00 457.00 252.00" xmlns="http://www.w3.org/2000/svg" xmlns:xlink="http://www.w3.org/1999/xlink">
<g id="graph0" class="graph" transform="scale(1 1) rotate(0) translate(4 248)">
<title>parameter/ElementLibrary.cpp</title>
<polygon fill="white" stroke="none" points="-4,4 -4,-248 453,-248 453,4 -4,4"/>
<!-- Node1 -->
<g id="node1" class="node"><title>Node1</title>
<polygon fill="#bfbfbf" stroke="black" points="43.5,-224.5 43.5,-243.5 204.5,-243.5 204.5,-224.5 43.5,-224.5"/>
<text text-anchor="middle" x="124" y="-231.5" font-family="Verdana" font-size="10.00">parameter/ElementLibrary.cpp</text>
</g>
<!-- Node2 -->
<g id="node2" class="node"><title>Node2</title>
<g id="a_node2"><a xlink:href="ElementLibrary_8h.html" target="_top" xlink:title="ElementLibrary.h">
<polygon fill="white" stroke="black" points="19,-168.5 19,-187.5 115,-187.5 115,-168.5 19,-168.5"/>
<text text-anchor="middle" x="67" y="-175.5" font-family="Verdana" font-size="10.00">ElementLibrary.h</text>
</a>
</g>
</g>
<!-- Node1&#45;&gt;Node2 -->
<g id="edge1" class="edge"><title>Node1&#45;&gt;Node2</title>
<path fill="none" stroke="midnightblue" d="M114.842,-224.324C106.499,-216.42 93.9676,-204.548 83.8231,-194.938"/>
<polygon fill="midnightblue" stroke="midnightblue" points="85.9913,-192.171 76.3247,-187.834 81.1771,-197.252 85.9913,-192.171"/>
</g>
<!-- Node12 -->
<g id="node12" class="node"><title>Node12</title>
<g id="a_node12"><a xlink:href="ElementBuilder_8h.html" target="_top" xlink:title="ElementBuilder.h">
<polygon fill="white" stroke="black" points="133,-168.5 133,-187.5 231,-187.5 231,-168.5 133,-168.5"/>
<text text-anchor="middle" x="182" y="-175.5" font-family="Verdana" font-size="10.00">ElementBuilder.h</text>
</a>
</g>
</g>
<!-- Node1&#45;&gt;Node12 -->
<g id="edge15" class="edge"><title>Node1&#45;&gt;Node12</title>
<path fill="none" stroke="midnightblue" d="M133.319,-224.324C141.893,-216.341 154.812,-204.313 165.188,-194.653"/>
<polygon fill="midnightblue" stroke="midnightblue" points="167.578,-197.21 172.512,-187.834 162.808,-192.086 167.578,-197.21"/>
</g>
<!-- Node3 -->
<g id="node3" class="node"><title>Node3</title>
<polygon fill="white" stroke="#bfbfbf" points="48,-112.5 48,-131.5 86,-131.5 86,-112.5 48,-112.5"/>
<text text-anchor="middle" x="67" y="-119.5" font-family="Verdana" font-size="10.00">map</text>
</g>
<!-- Node2&#45;&gt;Node3 -->
<g id="edge2" class="edge"><title>Node2&#45;&gt;Node3</title>
<path fill="none" stroke="midnightblue" d="M67,-168.083C67,-161.006 67,-150.861 67,-141.986"/>
<polygon fill="midnightblue" stroke="midnightblue" points="70.5001,-141.751 67,-131.751 63.5001,-141.751 70.5001,-141.751"/>
</g>
<!-- Node4 -->
<g id="node4" class="node"><title>Node4</title>
<polygon fill="white" stroke="#bfbfbf" points="0,-0.5 0,-19.5 44,-19.5 44,-0.5 0,-0.5"/>
<text text-anchor="middle" x="22" y="-7.5" font-family="Verdana" font-size="10.00">string</text>
</g>
<!-- Node2&#45;&gt;Node4 -->
<g id="edge3" class="edge"><title>Node2&#45;&gt;Node4</title>
<path fill="none" stroke="midnightblue" d="M60.2756,-168.171C53.9218,-159.426 44.5589,-145.433 39,-132 24.8556,-97.8187 22.0929,-54.0596 21.769,-29.6316"/>
<polygon fill="midnightblue" stroke="midnightblue" points="25.269,-29.5929 21.763,-19.595 18.269,-29.5971 25.269,-29.5929"/>
</g>
<!-- Node5 -->
<g id="node5" class="node"><title>Node5</title>
<g id="a_node5"><a xlink:href="Element_8h.html" target="_top" xlink:title="Element.h">
<polygon fill="white" stroke="black" points="149.5,-112.5 149.5,-131.5 214.5,-131.5 214.5,-112.5 149.5,-112.5"/>
<text text-anchor="middle" x="182" y="-119.5" font-family="Verdana" font-size="10.00">Element.h</text>
</a>
</g>
</g>
<!-- Node2&#45;&gt;Node5 -->
<g id="edge4" class="edge"><title>Node2&#45;&gt;Node5</title>
<path fill="none" stroke="midnightblue" d="M85.2221,-168.444C103.896,-159.675 133.156,-145.935 154.617,-135.858"/>
<polygon fill="midnightblue" stroke="midnightblue" points="156.299,-138.935 163.863,-131.516 153.324,-132.599 156.299,-138.935"/>
</g>
<!-- Node5&#45;&gt;Node4 -->
<g id="edge5" class="edge"><title>Node5&#45;&gt;Node4</title>
<path fill="none" stroke="midnightblue" d="M149.5,-119.176C117.612,-115.648 69.7123,-105.426 41,-76 29.079,-63.7827 24.5684,-44.5162 22.8972,-30.1259"/>
<polygon fill="midnightblue" stroke="midnightblue" points="26.3623,-29.5484 22.0782,-19.8584 19.3845,-30.1051 26.3623,-29.5484"/>
</g>
<!-- Node6 -->
<g id="node6" class="node"><title>Node6</title>
<polygon fill="white" stroke="#bfbfbf" points="309.5,-0.5 309.5,-19.5 356.5,-19.5 356.5,-0.5 309.5,-0.5"/>
<text text-anchor="middle" x="333" y="-7.5" font-family="Verdana" font-size="10.00">vector</text>
</g>
<!-- Node5&#45;&gt;Node6 -->
<g id="edge6" class="edge"><title>Node5&#45;&gt;Node6</title>
<path fill="none" stroke="midnightblue" d="M214.876,-118.26C265.069,-113.318 357.101,-101.015 377,-76 390.123,-59.5037 371.322,-39.2106 354.385,-25.7322"/>
<polygon fill="midnightblue" stroke="midnightblue" points="356.466,-22.9178 346.369,-19.7094 352.262,-28.5144 356.466,-22.9178"/>
</g>
<!-- Node7 -->
<g id="node7" class="node"><title>Node7</title>
<polygon fill="white" stroke="#bfbfbf" points="396.5,-0.5 396.5,-19.5 449.5,-19.5 449.5,-0.5 396.5,-0.5"/>
<text text-anchor="middle" x="423" y="-7.5" font-family="Verdana" font-size="10.00">stdint.h</text>
</g>
<!-- Node5&#45;&gt;Node7 -->
<g id="edge7" class="edge"><title>Node5&#45;&gt;Node7</title>
<path fill="none" stroke="midnightblue" d="M214.597,-117.624C266.733,-111.648 365.789,-97.7473 393,-76 407.39,-64.4991 415.174,-44.5266 419.177,-29.7477"/>
<polygon fill="midnightblue" stroke="midnightblue" points="422.661,-30.2209 421.548,-19.6847 415.848,-28.6154 422.661,-30.2209"/>
</g>
<!-- Node8 -->
<g id="node8" class="node"><title>Node8</title>
<polygon fill="white" stroke="#bfbfbf" points="50,-56.5 50,-75.5 80,-75.5 80,-56.5 50,-56.5"/>
<text text-anchor="middle" x="65" y="-63.5" font-family="Verdana" font-size="10.00">list</text>
</g>
<!-- Node5&#45;&gt;Node8 -->
<g id="edge8" class="edge"><title>Node5&#45;&gt;Node8</title>
<path fill="none" stroke="midnightblue" d="M163.461,-112.444C143.457,-103.211 111.511,-88.4667 89.4605,-78.2895"/>
<polygon fill="midnightblue" stroke="midnightblue" points="90.6501,-74.9838 80.1038,-73.971 87.7167,-81.3395 90.6501,-74.9838"/>
</g>
<!-- Node9 -->
<g id="node9" class="node"><title>Node9</title>
<polygon fill="white" stroke="#bfbfbf" points="98,-56.5 98,-75.5 162,-75.5 162,-56.5 98,-56.5"/>
<text text-anchor="middle" x="130" y="-63.5" font-family="Verdana" font-size="10.00">XmlSink.h</text>
</g>
<!-- Node5&#45;&gt;Node9 -->
<g id="edge9" class="edge"><title>Node5&#45;&gt;Node9</title>
<path fill="none" stroke="midnightblue" d="M173.413,-112.083C165.841,-104.22 154.622,-92.5688 145.486,-83.0813"/>
<polygon fill="midnightblue" stroke="midnightblue" points="147.885,-80.5266 138.427,-75.7511 142.842,-85.3821 147.885,-80.5266"/>
</g>
<!-- Node10 -->
<g id="node10" class="node"><title>Node10</title>
<polygon fill="white" stroke="#bfbfbf" points="180.5,-56.5 180.5,-75.5 257.5,-75.5 257.5,-56.5 180.5,-56.5"/>
<text text-anchor="middle" x="219" y="-63.5" font-family="Verdana" font-size="10.00">XmlSource.h</text>
</g>
<!-- Node5&#45;&gt;Node10 -->
<g id="edge10" class="edge"><title>Node5&#45;&gt;Node10</title>
<path fill="none" stroke="midnightblue" d="M188.11,-112.083C193.282,-104.534 200.846,-93.4948 207.194,-84.2298"/>
<polygon fill="midnightblue" stroke="midnightblue" points="210.239,-85.9787 213.004,-75.7511 204.464,-82.0221 210.239,-85.9787"/>
</g>
<!-- Node11 -->
<g id="node11" class="node"><title>Node11</title>
<g id="a_node11"><a xlink:href="PathNavigator_8h.html" target="_top" xlink:title="PathNavigator.h">
<polygon fill="white" stroke="black" points="276,-56.5 276,-75.5 368,-75.5 368,-56.5 276,-56.5"/>
<text text-anchor="middle" x="322" y="-63.5" font-family="Verdana" font-size="10.00">PathNavigator.h</text>
</a>
</g>
</g>
<!-- Node5&#45;&gt;Node11 -->
<g id="edge11" class="edge"><title>Node5&#45;&gt;Node11</title>
<path fill="none" stroke="midnightblue" d="M204.183,-112.444C227.428,-103.478 264.149,-89.314 290.415,-79.1827"/>
<polygon fill="midnightblue" stroke="midnightblue" points="291.85,-82.3807 299.92,-75.5164 289.331,-75.8497 291.85,-82.3807"/>
</g>
<!-- Node11&#45;&gt;Node4 -->
<g id="edge13" class="edge"><title>Node11&#45;&gt;Node4</title>
<path fill="none" stroke="midnightblue" d="M275.782,-56.6808C214.301,-45.6143 107.196,-26.3352 53.9475,-16.7506"/>
<polygon fill="midnightblue" stroke="midnightblue" points="54.5074,-13.2952 44.0455,-14.9682 53.2672,-20.1844 54.5074,-13.2952"/>
</g>
<!-- Node11&#45;&gt;Node6 -->
<g id="edge12" class="edge"><title>Node11&#45;&gt;Node6</title>
<path fill="none" stroke="midnightblue" d="M323.816,-56.083C325.274,-48.9272 327.371,-38.6353 329.193,-29.6911"/>
<polygon fill="midnightblue" stroke="midnightblue" points="332.651,-30.2485 331.217,-19.7511 325.792,-28.8512 332.651,-30.2485"/>
</g>
<!-- Node11&#45;&gt;Node7 -->
<g id="edge14" class="edge"><title>Node11&#45;&gt;Node7</title>
<path fill="none" stroke="midnightblue" d="M338.227,-56.324C354.351,-47.7034 379.3,-34.3643 397.964,-24.3855"/>
<polygon fill="midnightblue" stroke="midnightblue" points="399.644,-27.456 406.813,-19.6545 396.344,-21.283 399.644,-27.456"/>
</g>
<!-- Node12&#45;&gt;Node5 -->
<g id="edge16" class="edge"><title>Node12&#45;&gt;Node5</title>
<path fill="none" stroke="midnightblue" d="M182,-168.083C182,-161.006 182,-150.861 182,-141.986"/>
<polygon fill="midnightblue" stroke="midnightblue" points="185.5,-141.751 182,-131.751 178.5,-141.751 185.5,-141.751"/>
</g>
</g>
</svg>
