<?xml version="1.0" encoding="UTF-8" standalone="no"?>
<!DOCTYPE svg PUBLIC "-//W3C//DTD SVG 1.1//EN"
 "http://www.w3.org/Graphics/SVG/1.1/DTD/svg11.dtd">
<!-- Generated by graphviz version 2.38.0 (20140413.2041)
 -->
<!-- Title: parameter/ElementBuilderTemplate.h Pages: 1 -->
<svg width="166pt" height="95pt"
 viewBox="0.00 0.00 166.00 95.00" xmlns="http://www.w3.org/2000/svg" xmlns:xlink="http://www.w3.org/1999/xlink">
<g id="graph0" class="graph" transform="scale(1 1) rotate(0) translate(4 91)">
<title>parameter/ElementBuilderTemplate.h</title>
<polygon fill="white" stroke="none" points="-4,4 -4,-91 162,-91 162,4 -4,4"/>
<!-- Node1 -->
<g id="node1" class="node"><title>Node1</title>
<polygon fill="#bfbfbf" stroke="black" points="7.5,-56.5 7.5,-86.5 150.5,-86.5 150.5,-56.5 7.5,-56.5"/>
<text text-anchor="start" x="15.5" y="-74.5" font-family="Verdana" font-size="10.00">parameter/ElementBuilder</text>
<text text-anchor="middle" x="79" y="-63.5" font-family="Verdana" font-size="10.00">Template.h</text>
</g>
<!-- Node2 -->
<g id="node2" class="node"><title>Node2</title>
<g id="a_node2"><a xlink:href="ParameterMgr_8cpp.html" target="_top" xlink:title="parameter/ParameterMgr.cpp">
<polygon fill="white" stroke="black" points="-1.42109e-14,-0.5 -1.42109e-14,-19.5 158,-19.5 158,-0.5 -1.42109e-14,-0.5"/>
<text text-anchor="middle" x="79" y="-7.5" font-family="Verdana" font-size="10.00">parameter/ParameterMgr.cpp</text>
</a>
</g>
</g>
<!-- Node1&#45;&gt;Node2 -->
<g id="edge1" class="edge"><title>Node1&#45;&gt;Node2</title>
<path fill="none" stroke="midnightblue" d="M79,-46.2892C79,-36.857 79,-26.6548 79,-19.6578"/>
<polygon fill="midnightblue" stroke="midnightblue" points="75.5001,-46.3993 79,-56.3993 82.5001,-46.3994 75.5001,-46.3993"/>
</g>
</g>
</svg>
