<?xml version="1.0" encoding="UTF-8" standalone="no"?>
<!DOCTYPE svg PUBLIC "-//W3C//DTD SVG 1.1//EN"
 "http://www.w3.org/Graphics/SVG/1.1/DTD/svg11.dtd">
<!-- Generated by graphviz version 2.38.0 (20140413.2041)
 -->
<!-- Title: parameter/ElementLocator.cpp Pages: 1 -->
<svg width="439pt" height="308pt"
 viewBox="0.00 0.00 438.73 308.00" xmlns="http://www.w3.org/2000/svg" xmlns:xlink="http://www.w3.org/1999/xlink">
<g id="graph0" class="graph" transform="scale(1 1) rotate(0) translate(4 304)">
<title>parameter/ElementLocator.cpp</title>
<polygon fill="white" stroke="none" points="-4,4 -4,-304 434.725,-304 434.725,4 -4,4"/>
<!-- Node1 -->
<g id="node1" class="node"><title>Node1</title>
<polygon fill="#bfbfbf" stroke="black" points="55.7373,-280.5 55.7373,-299.5 221.737,-299.5 221.737,-280.5 55.7373,-280.5"/>
<text text-anchor="middle" x="138.737" y="-287.5" font-family="Verdana" font-size="10.00">parameter/ElementLocator.cpp</text>
</g>
<!-- Node2 -->
<g id="node2" class="node"><title>Node2</title>
<g id="a_node2"><a xlink:href="ElementLocator_8h.html" target="_top" xlink:title="ElementLocator.h">
<polygon fill="white" stroke="black" points="138.237,-224.5 138.237,-243.5 239.237,-243.5 239.237,-224.5 138.237,-224.5"/>
<text text-anchor="middle" x="188.737" y="-231.5" font-family="Verdana" font-size="10.00">ElementLocator.h</text>
</a>
</g>
</g>
<!-- Node1&#45;&gt;Node2 -->
<g id="edge1" class="edge"><title>Node1&#45;&gt;Node2</title>
<path fill="none" stroke="midnightblue" d="M146.994,-280.083C154.202,-272.298 164.847,-260.801 173.583,-251.367"/>
<polygon fill="midnightblue" stroke="midnightblue" points="176.409,-253.467 180.634,-243.751 171.272,-248.711 176.409,-253.467"/>
</g>
<!-- Node12 -->
<g id="node12" class="node"><title>Node12</title>
<g id="a_node12"><a xlink:href="PathNavigator_8h.html" target="_top" xlink:title="PathNavigator.h">
<polygon fill="white" stroke="black" points="20.7373,-112.5 20.7373,-131.5 112.737,-131.5 112.737,-112.5 20.7373,-112.5"/>
<text text-anchor="middle" x="66.7373" y="-119.5" font-family="Verdana" font-size="10.00">PathNavigator.h</text>
</a>
</g>
</g>
<!-- Node1&#45;&gt;Node12 -->
<g id="edge21" class="edge"><title>Node1&#45;&gt;Node12</title>
<path fill="none" stroke="midnightblue" d="M134.866,-280.075C123.484,-253.832 89.9618,-176.545 74.5951,-141.117"/>
<polygon fill="midnightblue" stroke="midnightblue" points="77.6438,-139.35 70.4536,-131.568 71.2219,-142.135 77.6438,-139.35"/>
</g>
<!-- Node3 -->
<g id="node3" class="node"><title>Node3</title>
<g id="a_node3"><a xlink:href="Element_8h.html" target="_top" xlink:title="Element.h">
<polygon fill="white" stroke="black" points="156.237,-168.5 156.237,-187.5 221.237,-187.5 221.237,-168.5 156.237,-168.5"/>
<text text-anchor="middle" x="188.737" y="-175.5" font-family="Verdana" font-size="10.00">Element.h</text>
</a>
</g>
</g>
<!-- Node2&#45;&gt;Node3 -->
<g id="edge2" class="edge"><title>Node2&#45;&gt;Node3</title>
<path fill="none" stroke="midnightblue" d="M188.737,-224.083C188.737,-217.006 188.737,-206.861 188.737,-197.986"/>
<polygon fill="midnightblue" stroke="midnightblue" points="192.237,-197.751 188.737,-187.751 185.237,-197.751 192.237,-197.751"/>
</g>
<!-- Node4 -->
<g id="node4" class="node"><title>Node4</title>
<polygon fill="white" stroke="#bfbfbf" points="306.737,-0.5 306.737,-19.5 350.737,-19.5 350.737,-0.5 306.737,-0.5"/>
<text text-anchor="middle" x="328.737" y="-7.5" font-family="Verdana" font-size="10.00">string</text>
</g>
<!-- Node2&#45;&gt;Node4 -->
<g id="edge20" class="edge"><title>Node2&#45;&gt;Node4</title>
<path fill="none" stroke="midnightblue" d="M234.183,-224.419C284.32,-212.522 363.719,-186.058 407.737,-132 429.375,-105.427 438.88,-85.0715 420.737,-56 407.713,-35.1298 381.893,-23.6742 360.914,-17.5529"/>
<polygon fill="midnightblue" stroke="midnightblue" points="361.643,-14.1256 351.081,-14.9586 359.857,-20.894 361.643,-14.1256"/>
</g>
<!-- Node3&#45;&gt;Node4 -->
<g id="edge3" class="edge"><title>Node3&#45;&gt;Node4</title>
<path fill="none" stroke="midnightblue" d="M221.316,-173.429C270.668,-167.392 361.141,-153.664 384.737,-132 410.307,-108.524 419.75,-86.2572 402.737,-56 393.644,-39.8279 376.125,-28.7912 360.415,-21.6965"/>
<polygon fill="midnightblue" stroke="midnightblue" points="361.537,-18.3728 350.959,-17.7778 358.857,-24.8395 361.537,-18.3728"/>
</g>
<!-- Node5 -->
<g id="node5" class="node"><title>Node5</title>
<polygon fill="white" stroke="#bfbfbf" points="97.2373,-56.5 97.2373,-75.5 144.237,-75.5 144.237,-56.5 97.2373,-56.5"/>
<text text-anchor="middle" x="120.737" y="-63.5" font-family="Verdana" font-size="10.00">vector</text>
</g>
<!-- Node3&#45;&gt;Node5 -->
<g id="edge4" class="edge"><title>Node3&#45;&gt;Node5</title>
<path fill="none" stroke="midnightblue" d="M187.724,-168.402C185.871,-155.359 181.034,-130.173 169.737,-112 162.475,-100.316 151.363,-89.7631 141.556,-81.818"/>
<polygon fill="midnightblue" stroke="midnightblue" points="143.463,-78.869 133.403,-75.5443 139.194,-84.4167 143.463,-78.869"/>
</g>
<!-- Node6 -->
<g id="node6" class="node"><title>Node6</title>
<polygon fill="white" stroke="#bfbfbf" points="4.23732,-0.5 4.23732,-19.5 57.2373,-19.5 57.2373,-0.5 4.23732,-0.5"/>
<text text-anchor="middle" x="30.7373" y="-7.5" font-family="Verdana" font-size="10.00">stdint.h</text>
</g>
<!-- Node3&#45;&gt;Node6 -->
<g id="edge5" class="edge"><title>Node3&#45;&gt;Node6</title>
<path fill="none" stroke="midnightblue" d="M156.216,-173.461C110.091,-167.696 29.3026,-154.59 11.7373,-132 -11.7702,-101.768 7.20006,-54.1891 20.5165,-28.6318"/>
<polygon fill="midnightblue" stroke="midnightblue" points="23.6693,-30.1615 25.408,-19.7103 17.5313,-26.7961 23.6693,-30.1615"/>
</g>
<!-- Node7 -->
<g id="node7" class="node"><title>Node7</title>
<polygon fill="white" stroke="#bfbfbf" points="130.737,-112.5 130.737,-131.5 160.737,-131.5 160.737,-112.5 130.737,-112.5"/>
<text text-anchor="middle" x="145.737" y="-119.5" font-family="Verdana" font-size="10.00">list</text>
</g>
<!-- Node3&#45;&gt;Node7 -->
<g id="edge6" class="edge"><title>Node3&#45;&gt;Node7</title>
<path fill="none" stroke="midnightblue" d="M181.637,-168.083C175.5,-160.377 166.468,-149.033 158.998,-139.653"/>
<polygon fill="midnightblue" stroke="midnightblue" points="161.673,-137.394 152.706,-131.751 156.197,-141.754 161.673,-137.394"/>
</g>
<!-- Node8 -->
<g id="node8" class="node"><title>Node8</title>
<g id="a_node8"><a xlink:href="XmlSink_8h.html" target="_top" xlink:title="XmlSink.h">
<polygon fill="white" stroke="black" points="216.737,-112.5 216.737,-131.5 280.737,-131.5 280.737,-112.5 216.737,-112.5"/>
<text text-anchor="middle" x="248.737" y="-119.5" font-family="Verdana" font-size="10.00">XmlSink.h</text>
</a>
</g>
</g>
<!-- Node3&#45;&gt;Node8 -->
<g id="edge7" class="edge"><title>Node3&#45;&gt;Node8</title>
<path fill="none" stroke="midnightblue" d="M198.377,-168.324C207.247,-160.341 220.612,-148.313 231.345,-138.653"/>
<polygon fill="midnightblue" stroke="midnightblue" points="233.83,-141.125 238.922,-131.834 229.148,-135.922 233.83,-141.125"/>
</g>
<!-- Node11 -->
<g id="node11" class="node"><title>Node11</title>
<g id="a_node11"><a xlink:href="XmlSource_8h.html" target="_top" xlink:title="XmlSource.h">
<polygon fill="white" stroke="black" points="299.237,-112.5 299.237,-131.5 376.237,-131.5 376.237,-112.5 299.237,-112.5"/>
<text text-anchor="middle" x="337.737" y="-119.5" font-family="Verdana" font-size="10.00">XmlSource.h</text>
</a>
</g>
</g>
<!-- Node3&#45;&gt;Node11 -->
<g id="edge13" class="edge"><title>Node3&#45;&gt;Node11</title>
<path fill="none" stroke="midnightblue" d="M212.347,-168.444C237.195,-159.438 276.512,-145.189 304.491,-135.049"/>
<polygon fill="midnightblue" stroke="midnightblue" points="306.029,-138.214 314.238,-131.516 303.644,-131.633 306.029,-138.214"/>
</g>
<!-- Node3&#45;&gt;Node12 -->
<g id="edge16" class="edge"><title>Node3&#45;&gt;Node12</title>
<path fill="none" stroke="midnightblue" d="M169.406,-168.444C149.417,-159.596 117.994,-145.687 95.1734,-135.586"/>
<polygon fill="midnightblue" stroke="midnightblue" points="96.5391,-132.363 85.9781,-131.516 93.7058,-138.764 96.5391,-132.363"/>
</g>
<!-- Node9 -->
<g id="node9" class="node"><title>Node9</title>
<g id="a_node9"><a xlink:href="XmlElement_8h.html" target="_top" xlink:title="XmlElement.h">
<polygon fill="white" stroke="black" points="162.237,-56.5 162.237,-75.5 245.237,-75.5 245.237,-56.5 162.237,-56.5"/>
<text text-anchor="middle" x="203.737" y="-63.5" font-family="Verdana" font-size="10.00">XmlElement.h</text>
</a>
</g>
</g>
<!-- Node8&#45;&gt;Node9 -->
<g id="edge8" class="edge"><title>Node8&#45;&gt;Node9</title>
<path fill="none" stroke="midnightblue" d="M241.306,-112.083C234.885,-104.377 225.432,-93.0333 217.615,-83.6531"/>
<polygon fill="midnightblue" stroke="midnightblue" points="220.121,-81.1927 211.03,-75.7511 214.743,-85.674 220.121,-81.1927"/>
</g>
<!-- Node10 -->
<g id="node10" class="node"><title>Node10</title>
<g id="a_node10"><a xlink:href="XmlSerializingContext_8h.html" target="_top" xlink:title="XmlSerializingContext.h">
<polygon fill="white" stroke="black" points="263.737,-56.5 263.737,-75.5 393.737,-75.5 393.737,-56.5 263.737,-56.5"/>
<text text-anchor="middle" x="328.737" y="-63.5" font-family="Verdana" font-size="10.00">XmlSerializingContext.h</text>
</a>
</g>
</g>
<!-- Node8&#45;&gt;Node10 -->
<g id="edge11" class="edge"><title>Node8&#45;&gt;Node10</title>
<path fill="none" stroke="midnightblue" d="M261.591,-112.324C273.954,-103.979 292.867,-91.2122 307.474,-81.3524"/>
<polygon fill="midnightblue" stroke="midnightblue" points="309.586,-84.1503 315.916,-75.6545 305.669,-78.3483 309.586,-84.1503"/>
</g>
<!-- Node9&#45;&gt;Node4 -->
<g id="edge10" class="edge"><title>Node9&#45;&gt;Node4</title>
<path fill="none" stroke="midnightblue" d="M223.544,-56.4435C244.024,-47.5961 276.22,-33.6875 299.602,-23.5865"/>
<polygon fill="midnightblue" stroke="midnightblue" points="301.231,-26.6953 309.023,-19.5164 298.455,-20.2692 301.231,-26.6953"/>
</g>
<!-- Node9&#45;&gt;Node6 -->
<g id="edge9" class="edge"><title>Node9&#45;&gt;Node6</title>
<path fill="none" stroke="midnightblue" d="M176.325,-56.4435C146.795,-47.2262 99.6672,-32.5157 67.068,-22.3402"/>
<polygon fill="midnightblue" stroke="midnightblue" points="68.0417,-18.9776 57.453,-19.339 65.9559,-25.6597 68.0417,-18.9776"/>
</g>
<!-- Node10&#45;&gt;Node4 -->
<g id="edge12" class="edge"><title>Node10&#45;&gt;Node4</title>
<path fill="none" stroke="midnightblue" d="M328.737,-56.083C328.737,-49.0059 328.737,-38.8611 328.737,-29.9865"/>
<polygon fill="midnightblue" stroke="midnightblue" points="332.237,-29.751 328.737,-19.7511 325.237,-29.7511 332.237,-29.751"/>
</g>
<!-- Node11&#45;&gt;Node9 -->
<g id="edge14" class="edge"><title>Node11&#45;&gt;Node9</title>
<path fill="none" stroke="midnightblue" d="M316.505,-112.444C294.354,-103.517 259.419,-89.4387 234.301,-79.3168"/>
<polygon fill="midnightblue" stroke="midnightblue" points="235.454,-76.0079 224.871,-75.5164 232.838,-82.5006 235.454,-76.0079"/>
</g>
<!-- Node11&#45;&gt;Node10 -->
<g id="edge15" class="edge"><title>Node11&#45;&gt;Node10</title>
<path fill="none" stroke="midnightblue" d="M336.251,-112.083C335.059,-104.927 333.343,-94.6353 331.853,-85.6911"/>
<polygon fill="midnightblue" stroke="midnightblue" points="335.292,-85.0396 330.196,-75.7511 328.388,-86.1904 335.292,-85.0396"/>
</g>
<!-- Node12&#45;&gt;Node4 -->
<g id="edge18" class="edge"><title>Node12&#45;&gt;Node4</title>
<path fill="none" stroke="midnightblue" d="M66.8741,-112.346C67.5942,-98.2803 71.1752,-70.5686 87.7373,-56 118.35,-29.072 238.11,-17.246 296.447,-12.9992"/>
<polygon fill="midnightblue" stroke="midnightblue" points="296.858,-16.4791 306.59,-12.2925 296.371,-9.49608 296.858,-16.4791"/>
</g>
<!-- Node12&#45;&gt;Node5 -->
<g id="edge17" class="edge"><title>Node12&#45;&gt;Node5</title>
<path fill="none" stroke="midnightblue" d="M75.6543,-112.083C83.5178,-104.22 95.1685,-92.5688 104.656,-83.0813"/>
<polygon fill="midnightblue" stroke="midnightblue" points="107.39,-85.2971 111.986,-75.7511 102.44,-80.3473 107.39,-85.2971"/>
</g>
<!-- Node12&#45;&gt;Node6 -->
<g id="edge19" class="edge"><title>Node12&#45;&gt;Node6</title>
<path fill="none" stroke="midnightblue" d="M63.9125,-112.368C58.0766,-94.5366 44.5794,-53.2953 36.7172,-29.2717"/>
<polygon fill="midnightblue" stroke="midnightblue" points="39.9859,-28.0067 33.5491,-19.5914 33.3331,-30.1841 39.9859,-28.0067"/>
</g>
</g>
</svg>
