<?xml version="1.0" encoding="UTF-8" standalone="no"?>
<!DOCTYPE svg PUBLIC "-//W3C//DTD SVG 1.1//EN"
 "http://www.w3.org/Graphics/SVG/1.1/DTD/svg11.dtd">
<!-- Generated by graphviz version 2.36.0 (20140111.2315)
 -->
<!-- Title: parameter/FileIncluderElementBuilder.h Pages: 1 -->
<svg width="501pt" height="320pt"
 viewBox="0.00 0.00 501.00 320.00" xmlns="http://www.w3.org/2000/svg" xmlns:xlink="http://www.w3.org/1999/xlink">
<g id="graph0" class="graph" transform="scale(1 1) rotate(0) translate(4 316)">
<title>parameter/FileIncluderElementBuilder.h</title>
<polygon fill="white" stroke="none" points="-4,4 -4,-316 497,-316 497,4 -4,4"/>
<!-- Node1 -->
<g id="node1" class="node"><title>Node1</title>
<polygon fill="#bfbfbf" stroke="black" points="291.5,-281 291.5,-311 454.5,-311 454.5,-281 291.5,-281"/>
<text text-anchor="start" x="299.5" y="-299" font-family="Verdana" font-size="10.00">parameter/FileIncluderElement</text>
<text text-anchor="middle" x="373" y="-288" font-family="Verdana" font-size="10.00">Builder.h</text>
</g>
<!-- Node2 -->
<g id="node2" class="node"><title>Node2</title>
<g id="a_node2"><a xlink:href="ElementBuilder_8h.html" target="_top" xlink:title="ElementBuilder.h">
<polygon fill="white" stroke="black" points="263,-168.5 263,-187.5 361,-187.5 361,-168.5 263,-168.5"/>
<text text-anchor="middle" x="312" y="-175.5" font-family="Verdana" font-size="10.00">ElementBuilder.h</text>
</a>
</g>
</g>
<!-- Node1&#45;&gt;Node2 -->
<g id="edge1" class="edge"><title>Node1&#45;&gt;Node2</title>
<path fill="none" stroke="midnightblue" d="M365.52,-280.776C354.38,-259.591 333.442,-219.776 321.321,-196.724"/>
<polygon fill="midnightblue" stroke="midnightblue" points="324.331,-194.929 316.579,-187.707 318.135,-198.187 324.331,-194.929"/>
</g>
<!-- Node11 -->
<g id="node11" class="node"><title>Node11</title>
<g id="a_node11"><a xlink:href="XmlFileIncluderElement_8h.html" target="_top" xlink:title="XmlFileIncluderElement.h">
<polygon fill="white" stroke="black" points="357,-224.5 357,-243.5 493,-243.5 493,-224.5 357,-224.5"/>
<text text-anchor="middle" x="425" y="-231.5" font-family="Verdana" font-size="10.00">XmlFileIncluderElement.h</text>
</a>
</g>
</g>
<!-- Node1&#45;&gt;Node11 -->
<g id="edge13" class="edge"><title>Node1&#45;&gt;Node11</title>
<path fill="none" stroke="midnightblue" d="M385.323,-280.781C392.957,-271.972 402.791,-260.626 410.758,-251.433"/>
<polygon fill="midnightblue" stroke="midnightblue" points="413.529,-253.58 417.434,-243.731 408.239,-248.995 413.529,-253.58"/>
</g>
<!-- Node3 -->
<g id="node3" class="node"><title>Node3</title>
<g id="a_node3"><a xlink:href="Element_8h.html" target="_top" xlink:title="Element.h">
<polygon fill="white" stroke="black" points="277.5,-112.5 277.5,-131.5 342.5,-131.5 342.5,-112.5 277.5,-112.5"/>
<text text-anchor="middle" x="310" y="-119.5" font-family="Verdana" font-size="10.00">Element.h</text>
</a>
</g>
</g>
<!-- Node2&#45;&gt;Node3 -->
<g id="edge2" class="edge"><title>Node2&#45;&gt;Node3</title>
<path fill="none" stroke="midnightblue" d="M311.67,-168.083C311.408,-161.006 311.032,-150.861 310.703,-141.986"/>
<polygon fill="midnightblue" stroke="midnightblue" points="314.192,-141.615 310.324,-131.751 307.197,-141.874 314.192,-141.615"/>
</g>
<!-- Node4 -->
<g id="node4" class="node"><title>Node4</title>
<polygon fill="white" stroke="#bfbfbf" points="419,-0.5 419,-19.5 463,-19.5 463,-0.5 419,-0.5"/>
<text text-anchor="middle" x="441" y="-7.5" font-family="Verdana" font-size="10.00">string</text>
</g>
<!-- Node3&#45;&gt;Node4 -->
<g id="edge3" class="edge"><title>Node3&#45;&gt;Node4</title>
<path fill="none" stroke="midnightblue" d="M326.034,-112.44C340.976,-104.102 363.516,-90.5815 381,-76 398.608,-61.3146 416.085,-41.6507 427.595,-27.8099"/>
<polygon fill="midnightblue" stroke="midnightblue" points="430.63,-29.6273 434.239,-19.6662 425.205,-25.2024 430.63,-29.6273"/>
</g>
<!-- Node5 -->
<g id="node5" class="node"><title>Node5</title>
<polygon fill="white" stroke="#bfbfbf" points="310.5,-0.5 310.5,-19.5 357.5,-19.5 357.5,-0.5 310.5,-0.5"/>
<text text-anchor="middle" x="334" y="-7.5" font-family="Verdana" font-size="10.00">vector</text>
</g>
<!-- Node3&#45;&gt;Node5 -->
<g id="edge4" class="edge"><title>Node3&#45;&gt;Node5</title>
<path fill="none" stroke="midnightblue" d="M327.198,-112.386C340.251,-104.794 357.234,-92.3889 365,-76 372.818,-59.5031 361.632,-40.6788 350.578,-27.5489"/>
<polygon fill="midnightblue" stroke="midnightblue" points="352.858,-24.8552 343.534,-19.8248 347.686,-29.5721 352.858,-24.8552"/>
</g>
<!-- Node6 -->
<g id="node6" class="node"><title>Node6</title>
<polygon fill="white" stroke="#bfbfbf" points="212.5,-0.5 212.5,-19.5 265.5,-19.5 265.5,-0.5 212.5,-0.5"/>
<text text-anchor="middle" x="239" y="-7.5" font-family="Verdana" font-size="10.00">stdint.h</text>
</g>
<!-- Node3&#45;&gt;Node6 -->
<g id="edge5" class="edge"><title>Node3&#45;&gt;Node6</title>
<path fill="none" stroke="midnightblue" d="M294.852,-112.449C282.294,-104.578 264.946,-91.752 255,-76 246.178,-62.0279 242.22,-43.5246 240.444,-29.8338"/>
<polygon fill="midnightblue" stroke="midnightblue" points="243.904,-29.2637 239.407,-19.6706 236.94,-29.9743 243.904,-29.2637"/>
</g>
<!-- Node7 -->
<g id="node7" class="node"><title>Node7</title>
<polygon fill="white" stroke="#bfbfbf" points="0,-56.5 0,-75.5 30,-75.5 30,-56.5 0,-56.5"/>
<text text-anchor="middle" x="15" y="-63.5" font-family="Verdana" font-size="10.00">list</text>
</g>
<!-- Node3&#45;&gt;Node7 -->
<g id="edge6" class="edge"><title>Node3&#45;&gt;Node7</title>
<path fill="none" stroke="midnightblue" d="M277.446,-117.664C227.926,-112.145 130.687,-99.5653 39.9773,-75.8076"/>
<polygon fill="midnightblue" stroke="midnightblue" points="40.6549,-72.3659 30.0903,-73.1658 38.8479,-79.1287 40.6549,-72.3659"/>
</g>
<!-- Node8 -->
<g id="node8" class="node"><title>Node8</title>
<polygon fill="white" stroke="#bfbfbf" points="48,-56.5 48,-75.5 112,-75.5 112,-56.5 48,-56.5"/>
<text text-anchor="middle" x="80" y="-63.5" font-family="Verdana" font-size="10.00">XmlSink.h</text>
</g>
<!-- Node3&#45;&gt;Node8 -->
<g id="edge7" class="edge"><title>Node3&#45;&gt;Node8</title>
<path fill="none" stroke="midnightblue" d="M277.047,-113.263C236.253,-103.685 166.718,-87.36 122.099,-76.8841"/>
<polygon fill="midnightblue" stroke="midnightblue" points="122.686,-73.4268 112.151,-74.5484 121.086,-80.2415 122.686,-73.4268"/>
</g>
<!-- Node9 -->
<g id="node9" class="node"><title>Node9</title>
<polygon fill="white" stroke="#bfbfbf" points="130.5,-56.5 130.5,-75.5 207.5,-75.5 207.5,-56.5 130.5,-56.5"/>
<text text-anchor="middle" x="169" y="-63.5" font-family="Verdana" font-size="10.00">XmlSource.h</text>
</g>
<!-- Node3&#45;&gt;Node9 -->
<g id="edge8" class="edge"><title>Node3&#45;&gt;Node9</title>
<path fill="none" stroke="midnightblue" d="M287.658,-112.444C264.247,-103.478 227.264,-89.314 200.81,-79.1827"/>
<polygon fill="midnightblue" stroke="midnightblue" points="201.828,-75.8245 191.237,-75.5164 199.324,-82.3615 201.828,-75.8245"/>
</g>
<!-- Node10 -->
<g id="node10" class="node"><title>Node10</title>
<g id="a_node10"><a xlink:href="PathNavigator_8h.html" target="_top" xlink:title="PathNavigator.h">
<polygon fill="white" stroke="black" points="264,-56.5 264,-75.5 356,-75.5 356,-56.5 264,-56.5"/>
<text text-anchor="middle" x="310" y="-63.5" font-family="Verdana" font-size="10.00">PathNavigator.h</text>
</a>
</g>
</g>
<!-- Node3&#45;&gt;Node10 -->
<g id="edge9" class="edge"><title>Node3&#45;&gt;Node10</title>
<path fill="none" stroke="midnightblue" d="M310,-112.083C310,-105.006 310,-94.8611 310,-85.9865"/>
<polygon fill="midnightblue" stroke="midnightblue" points="313.5,-85.751 310,-75.7511 306.5,-85.7511 313.5,-85.751"/>
</g>
<!-- Node10&#45;&gt;Node4 -->
<g id="edge11" class="edge"><title>Node10&#45;&gt;Node4</title>
<path fill="none" stroke="midnightblue" d="M330.757,-56.4435C352.316,-47.5566 386.263,-33.5632 410.794,-23.4514"/>
<polygon fill="midnightblue" stroke="midnightblue" points="412.428,-26.5634 420.34,-19.5164 409.761,-20.0917 412.428,-26.5634"/>
</g>
<!-- Node10&#45;&gt;Node5 -->
<g id="edge10" class="edge"><title>Node10&#45;&gt;Node5</title>
<path fill="none" stroke="midnightblue" d="M313.963,-56.083C317.213,-48.77 321.919,-38.1814 325.954,-29.1034"/>
<polygon fill="midnightblue" stroke="midnightblue" points="329.248,-30.3107 330.111,-19.7511 322.851,-27.4677 329.248,-30.3107"/>
</g>
<!-- Node10&#45;&gt;Node6 -->
<g id="edge12" class="edge"><title>Node10&#45;&gt;Node6</title>
<path fill="none" stroke="midnightblue" d="M298.593,-56.324C287.891,-48.1849 271.659,-35.8395 258.837,-26.0874"/>
<polygon fill="midnightblue" stroke="midnightblue" points="260.693,-23.1018 250.615,-19.8339 256.456,-28.6734 260.693,-23.1018"/>
</g>
<!-- Node11&#45;&gt;Node4 -->
<g id="edge17" class="edge"><title>Node11&#45;&gt;Node4</title>
<path fill="none" stroke="midnightblue" d="M440.783,-224.467C453.203,-216.769 469.605,-204.179 477,-188 502.045,-133.205 469.222,-60.964 451.283,-28.3252"/>
<polygon fill="midnightblue" stroke="midnightblue" points="454.264,-26.4879 446.274,-19.5305 448.182,-29.9522 454.264,-26.4879"/>
</g>
<!-- Node12 -->
<g id="node12" class="node"><title>Node12</title>
<g id="a_node12"><a xlink:href="KindElement_8h.html" target="_top" xlink:title="KindElement.h">
<polygon fill="white" stroke="black" points="382,-168.5 382,-187.5 468,-187.5 468,-168.5 382,-168.5"/>
<text text-anchor="middle" x="425" y="-175.5" font-family="Verdana" font-size="10.00">KindElement.h</text>
</a>
</g>
</g>
<!-- Node11&#45;&gt;Node12 -->
<g id="edge14" class="edge"><title>Node11&#45;&gt;Node12</title>
<path fill="none" stroke="midnightblue" d="M425,-224.083C425,-217.006 425,-206.861 425,-197.986"/>
<polygon fill="midnightblue" stroke="midnightblue" points="428.5,-197.751 425,-187.751 421.5,-197.751 428.5,-197.751"/>
</g>
<!-- Node12&#45;&gt;Node3 -->
<g id="edge15" class="edge"><title>Node12&#45;&gt;Node3</title>
<path fill="none" stroke="midnightblue" d="M406.778,-168.444C388.104,-159.675 358.844,-145.935 337.383,-135.858"/>
<polygon fill="midnightblue" stroke="midnightblue" points="338.676,-132.599 328.137,-131.516 335.701,-138.935 338.676,-132.599"/>
</g>
<!-- Node12&#45;&gt;Node4 -->
<g id="edge16" class="edge"><title>Node12&#45;&gt;Node4</title>
<path fill="none" stroke="midnightblue" d="M425.86,-168.075C428.379,-141.945 435.775,-65.2106 439.209,-29.577"/>
<polygon fill="midnightblue" stroke="midnightblue" points="442.699,-29.8578 440.174,-19.5681 435.731,-29.1862 442.699,-29.8578"/>
</g>
</g>
</svg>
