<?xml version="1.0" encoding="UTF-8" standalone="no"?>
<!DOCTYPE svg PUBLIC "-//W3C//DTD SVG 1.1//EN"
 "http://www.w3.org/Graphics/SVG/1.1/DTD/svg11.dtd">
<!-- Generated by graphviz version 2.38.0 (20140413.2041)
 -->
<!-- Title: parameter/FileIncluderElementBuilder.h Pages: 1 -->
<svg width="511pt" height="375pt"
 viewBox="0.00 0.00 511.26 375.00" xmlns="http://www.w3.org/2000/svg" xmlns:xlink="http://www.w3.org/1999/xlink">
<g id="graph0" class="graph" transform="scale(1 1) rotate(0) translate(4 371)">
<title>parameter/FileIncluderElementBuilder.h</title>
<polygon fill="white" stroke="none" points="-4,4 -4,-371 507.257,-371 507.257,4 -4,4"/>
<!-- Node1 -->
<g id="node1" class="node"><title>Node1</title>
<polygon fill="#bfbfbf" stroke="black" points="81.5,-336.5 81.5,-366.5 244.5,-366.5 244.5,-336.5 81.5,-336.5"/>
<text text-anchor="start" x="89.5" y="-354.5" font-family="Verdana" font-size="10.00">parameter/FileIncluderElement</text>
<text text-anchor="middle" x="163" y="-343.5" font-family="Verdana" font-size="10.00">Builder.h</text>
</g>
<!-- Node2 -->
<g id="node2" class="node"><title>Node2</title>
<g id="a_node2"><a xlink:href="ElementBuilder_8h.html" target="_top" xlink:title="ElementBuilder.h">
<polygon fill="white" stroke="black" points="186,-224.5 186,-243.5 284,-243.5 284,-224.5 186,-224.5"/>
<text text-anchor="middle" x="235" y="-231.5" font-family="Verdana" font-size="10.00">ElementBuilder.h</text>
</a>
</g>
</g>
<!-- Node1&#45;&gt;Node2 -->
<g id="edge1" class="edge"><title>Node1&#45;&gt;Node2</title>
<path fill="none" stroke="midnightblue" d="M171.829,-336.337C185.037,-315.149 209.913,-275.244 224.19,-252.34"/>
<polygon fill="midnightblue" stroke="midnightblue" points="227.276,-254.007 229.596,-243.669 221.335,-250.304 227.276,-254.007"/>
</g>
<!-- Node13 -->
<g id="node13" class="node"><title>Node13</title>
<g id="a_node13"><a xlink:href="XmlFileIncluderElement_8h.html" target="_top" xlink:title="XmlFileIncluderElement.h">
<polygon fill="white" stroke="black" points="39,-280.5 39,-299.5 175,-299.5 175,-280.5 39,-280.5"/>
<text text-anchor="middle" x="107" y="-287.5" font-family="Verdana" font-size="10.00">XmlFileIncluderElement.h</text>
</a>
</g>
</g>
<!-- Node1&#45;&gt;Node13 -->
<g id="edge20" class="edge"><title>Node1&#45;&gt;Node13</title>
<path fill="none" stroke="midnightblue" d="M149.729,-336.399C141.424,-327.575 130.701,-316.183 122.076,-307.018"/>
<polygon fill="midnightblue" stroke="midnightblue" points="124.551,-304.541 115.148,-299.658 119.453,-309.339 124.551,-304.541"/>
</g>
<!-- Node3 -->
<g id="node3" class="node"><title>Node3</title>
<g id="a_node3"><a xlink:href="Element_8h.html" target="_top" xlink:title="Element.h">
<polygon fill="white" stroke="black" points="221.5,-168.5 221.5,-187.5 286.5,-187.5 286.5,-168.5 221.5,-168.5"/>
<text text-anchor="middle" x="254" y="-175.5" font-family="Verdana" font-size="10.00">Element.h</text>
</a>
</g>
</g>
<!-- Node2&#45;&gt;Node3 -->
<g id="edge2" class="edge"><title>Node2&#45;&gt;Node3</title>
<path fill="none" stroke="midnightblue" d="M238.137,-224.083C240.683,-216.849 244.356,-206.409 247.527,-197.397"/>
<polygon fill="midnightblue" stroke="midnightblue" points="250.903,-198.346 250.921,-187.751 244.3,-196.023 250.903,-198.346"/>
</g>
<!-- Node4 -->
<g id="node4" class="node"><title>Node4</title>
<polygon fill="white" stroke="#bfbfbf" points="100,-0.5 100,-19.5 144,-19.5 144,-0.5 100,-0.5"/>
<text text-anchor="middle" x="122" y="-7.5" font-family="Verdana" font-size="10.00">string</text>
</g>
<!-- Node3&#45;&gt;Node4 -->
<g id="edge3" class="edge"><title>Node3&#45;&gt;Node4</title>
<path fill="none" stroke="midnightblue" d="M221.223,-172.617C192.675,-167.31 151.638,-155.905 124,-132 96.656,-108.349 85.3495,-90.8415 95,-56 97.7919,-45.9205 103.509,-35.832 108.967,-27.7694"/>
<polygon fill="midnightblue" stroke="midnightblue" points="111.825,-29.7899 114.849,-19.6357 106.153,-25.6881 111.825,-29.7899"/>
</g>
<!-- Node5 -->
<g id="node5" class="node"><title>Node5</title>
<polygon fill="white" stroke="#bfbfbf" points="437.5,-56.5 437.5,-75.5 484.5,-75.5 484.5,-56.5 437.5,-56.5"/>
<text text-anchor="middle" x="461" y="-63.5" font-family="Verdana" font-size="10.00">vector</text>
</g>
<!-- Node3&#45;&gt;Node5 -->
<g id="edge4" class="edge"><title>Node3&#45;&gt;Node5</title>
<path fill="none" stroke="midnightblue" d="M286.526,-174.693C338.934,-170.23 438.388,-158.424 460,-132 470.477,-119.191 469.28,-99.7314 466.346,-85.4419"/>
<polygon fill="midnightblue" stroke="midnightblue" points="469.737,-84.5776 463.927,-75.7181 462.944,-86.2672 469.737,-84.5776"/>
</g>
<!-- Node6 -->
<g id="node6" class="node"><title>Node6</title>
<polygon fill="white" stroke="#bfbfbf" points="375.5,-0.5 375.5,-19.5 428.5,-19.5 428.5,-0.5 375.5,-0.5"/>
<text text-anchor="middle" x="402" y="-7.5" font-family="Verdana" font-size="10.00">stdint.h</text>
</g>
<!-- Node3&#45;&gt;Node6 -->
<g id="edge5" class="edge"><title>Node3&#45;&gt;Node6</title>
<path fill="none" stroke="midnightblue" d="M286.821,-174.6C342.176,-169.889 450.739,-157.583 478,-132 503.105,-108.439 511.165,-85.2474 493,-56 481.068,-36.7878 458.234,-25.5295 438.425,-19.0784"/>
<polygon fill="midnightblue" stroke="midnightblue" points="439.293,-15.6854 428.711,-16.2052 437.307,-22.3979 439.293,-15.6854"/>
</g>
<!-- Node7 -->
<g id="node7" class="node"><title>Node7</title>
<polygon fill="white" stroke="#bfbfbf" points="421,-112.5 421,-131.5 451,-131.5 451,-112.5 421,-112.5"/>
<text text-anchor="middle" x="436" y="-119.5" font-family="Verdana" font-size="10.00">list</text>
</g>
<!-- Node3&#45;&gt;Node7 -->
<g id="edge6" class="edge"><title>Node3&#45;&gt;Node7</title>
<path fill="none" stroke="midnightblue" d="M286.613,-168.543C316.719,-160.553 362.841,-147.854 411.145,-132.093"/>
<polygon fill="midnightblue" stroke="midnightblue" points="412.429,-135.355 420.831,-128.901 410.238,-128.707 412.429,-135.355"/>
</g>
<!-- Node8 -->
<g id="node8" class="node"><title>Node8</title>
<g id="a_node8"><a xlink:href="XmlSink_8h.html" target="_top" xlink:title="XmlSink.h">
<polygon fill="white" stroke="black" points="133,-112.5 133,-131.5 197,-131.5 197,-112.5 133,-112.5"/>
<text text-anchor="middle" x="165" y="-119.5" font-family="Verdana" font-size="10.00">XmlSink.h</text>
</a>
</g>
</g>
<!-- Node3&#45;&gt;Node8 -->
<g id="edge7" class="edge"><title>Node3&#45;&gt;Node8</title>
<path fill="none" stroke="midnightblue" d="M239.701,-168.324C225.817,-159.9 204.508,-146.971 188.196,-137.074"/>
<polygon fill="midnightblue" stroke="midnightblue" points="189.629,-133.85 179.264,-131.655 185.998,-139.834 189.629,-133.85"/>
</g>
<!-- Node11 -->
<g id="node11" class="node"><title>Node11</title>
<g id="a_node11"><a xlink:href="XmlSource_8h.html" target="_top" xlink:title="XmlSource.h">
<polygon fill="white" stroke="black" points="215.5,-112.5 215.5,-131.5 292.5,-131.5 292.5,-112.5 215.5,-112.5"/>
<text text-anchor="middle" x="254" y="-119.5" font-family="Verdana" font-size="10.00">XmlSource.h</text>
</a>
</g>
</g>
<!-- Node3&#45;&gt;Node11 -->
<g id="edge13" class="edge"><title>Node3&#45;&gt;Node11</title>
<path fill="none" stroke="midnightblue" d="M254,-168.083C254,-161.006 254,-150.861 254,-141.986"/>
<polygon fill="midnightblue" stroke="midnightblue" points="257.5,-141.751 254,-131.751 250.5,-141.751 257.5,-141.751"/>
</g>
<!-- Node12 -->
<g id="node12" class="node"><title>Node12</title>
<g id="a_node12"><a xlink:href="PathNavigator_8h.html" target="_top" xlink:title="PathNavigator.h">
<polygon fill="white" stroke="black" points="311,-112.5 311,-131.5 403,-131.5 403,-112.5 311,-112.5"/>
<text text-anchor="middle" x="357" y="-119.5" font-family="Verdana" font-size="10.00">PathNavigator.h</text>
</a>
</g>
</g>
<!-- Node3&#45;&gt;Node12 -->
<g id="edge16" class="edge"><title>Node3&#45;&gt;Node12</title>
<path fill="none" stroke="midnightblue" d="M270.549,-168.324C286.992,-159.703 312.435,-146.364 331.468,-136.386"/>
<polygon fill="midnightblue" stroke="midnightblue" points="333.261,-139.398 340.492,-131.655 330.011,-133.198 333.261,-139.398"/>
</g>
<!-- Node9 -->
<g id="node9" class="node"><title>Node9</title>
<g id="a_node9"><a xlink:href="XmlElement_8h.html" target="_top" xlink:title="XmlElement.h">
<polygon fill="white" stroke="black" points="252.5,-56.5 252.5,-75.5 335.5,-75.5 335.5,-56.5 252.5,-56.5"/>
<text text-anchor="middle" x="294" y="-63.5" font-family="Verdana" font-size="10.00">XmlElement.h</text>
</a>
</g>
</g>
<!-- Node8&#45;&gt;Node9 -->
<g id="edge8" class="edge"><title>Node8&#45;&gt;Node9</title>
<path fill="none" stroke="midnightblue" d="M185.44,-112.444C206.67,-103.557 240.099,-89.5632 264.255,-79.4514"/>
<polygon fill="midnightblue" stroke="midnightblue" points="265.782,-82.6064 273.655,-75.5164 263.079,-76.1493 265.782,-82.6064"/>
</g>
<!-- Node10 -->
<g id="node10" class="node"><title>Node10</title>
<g id="a_node10"><a xlink:href="XmlSerializingContext_8h.html" target="_top" xlink:title="XmlSerializingContext.h">
<polygon fill="white" stroke="black" points="104,-56.5 104,-75.5 234,-75.5 234,-56.5 104,-56.5"/>
<text text-anchor="middle" x="169" y="-63.5" font-family="Verdana" font-size="10.00">XmlSerializingContext.h</text>
</a>
</g>
</g>
<!-- Node8&#45;&gt;Node10 -->
<g id="edge11" class="edge"><title>Node8&#45;&gt;Node10</title>
<path fill="none" stroke="midnightblue" d="M165.661,-112.083C166.185,-105.006 166.936,-94.8611 167.594,-85.9865"/>
<polygon fill="midnightblue" stroke="midnightblue" points="171.103,-85.9823 168.352,-75.7511 164.123,-85.4652 171.103,-85.9823"/>
</g>
<!-- Node9&#45;&gt;Node4 -->
<g id="edge10" class="edge"><title>Node9&#45;&gt;Node4</title>
<path fill="none" stroke="midnightblue" d="M266.746,-56.4435C236.146,-46.8366 186.539,-31.2622 154.09,-21.0749"/>
<polygon fill="midnightblue" stroke="midnightblue" points="154.793,-17.6271 144.204,-17.971 152.696,-24.3057 154.793,-17.6271"/>
</g>
<!-- Node9&#45;&gt;Node6 -->
<g id="edge9" class="edge"><title>Node9&#45;&gt;Node6</title>
<path fill="none" stroke="midnightblue" d="M311.352,-56.324C328.672,-47.6641 355.515,-34.2424 375.502,-24.249"/>
<polygon fill="midnightblue" stroke="midnightblue" points="377.312,-27.2572 384.691,-19.6545 374.181,-20.9962 377.312,-27.2572"/>
</g>
<!-- Node10&#45;&gt;Node4 -->
<g id="edge12" class="edge"><title>Node10&#45;&gt;Node4</title>
<path fill="none" stroke="midnightblue" d="M161.239,-56.083C154.463,-48.2982 144.457,-36.8015 136.245,-27.3665"/>
<polygon fill="midnightblue" stroke="midnightblue" points="138.822,-24.9963 129.617,-19.7511 133.542,-29.592 138.822,-24.9963"/>
</g>
<!-- Node11&#45;&gt;Node9 -->
<g id="edge14" class="edge"><title>Node11&#45;&gt;Node9</title>
<path fill="none" stroke="midnightblue" d="M260.605,-112.083C266.255,-104.455 274.545,-93.2645 281.451,-83.9408"/>
<polygon fill="midnightblue" stroke="midnightblue" points="284.378,-85.87 287.518,-75.7511 278.753,-81.7034 284.378,-85.87"/>
</g>
<!-- Node11&#45;&gt;Node10 -->
<g id="edge15" class="edge"><title>Node11&#45;&gt;Node10</title>
<path fill="none" stroke="midnightblue" d="M240.343,-112.324C227.084,-103.9 206.732,-90.9709 191.154,-81.0741"/>
<polygon fill="midnightblue" stroke="midnightblue" points="192.94,-78.0626 182.623,-75.6545 189.187,-83.9711 192.94,-78.0626"/>
</g>
<!-- Node12&#45;&gt;Node4 -->
<g id="edge18" class="edge"><title>Node12&#45;&gt;Node4</title>
<path fill="none" stroke="midnightblue" d="M358.006,-112.477C359.129,-98.6012 359.116,-71.1554 344,-56 317.769,-29.701 209.367,-17.7115 154.348,-13.2334"/>
<polygon fill="midnightblue" stroke="midnightblue" points="154.338,-9.72213 144.096,-12.436 153.795,-16.701 154.338,-9.72213"/>
</g>
<!-- Node12&#45;&gt;Node5 -->
<g id="edge17" class="edge"><title>Node12&#45;&gt;Node5</title>
<path fill="none" stroke="midnightblue" d="M373.709,-112.324C390.312,-103.703 416.002,-90.3643 435.22,-80.3855"/>
<polygon fill="midnightblue" stroke="midnightblue" points="437.07,-83.3689 444.332,-75.6545 433.844,-77.1565 437.07,-83.3689"/>
</g>
<!-- Node12&#45;&gt;Node6 -->
<g id="edge19" class="edge"><title>Node12&#45;&gt;Node6</title>
<path fill="none" stroke="midnightblue" d="M361.24,-112.468C365.642,-103.487 372.623,-88.8902 378,-76 384.512,-60.3874 391.112,-42.3136 395.738,-29.1937"/>
<polygon fill="midnightblue" stroke="midnightblue" points="399.13,-30.0958 399.114,-19.5009 392.519,-27.793 399.13,-30.0958"/>
</g>
<!-- Node13&#45;&gt;Node4 -->
<g id="edge24" class="edge"><title>Node13&#45;&gt;Node4</title>
<path fill="none" stroke="midnightblue" d="M88.362,-280.441C57.7058,-264.932 0,-229.087 0,-179 0,-179 0,-179 0,-121 0,-72.1755 54.5624,-39.4586 90.7095,-23.1412"/>
<polygon fill="midnightblue" stroke="midnightblue" points="92.1201,-26.3445 99.9067,-19.1598 89.3392,-19.9205 92.1201,-26.3445"/>
</g>
<!-- Node14 -->
<g id="node14" class="node"><title>Node14</title>
<g id="a_node14"><a xlink:href="KindElement_8h.html" target="_top" xlink:title="KindElement.h">
<polygon fill="white" stroke="black" points="64,-224.5 64,-243.5 150,-243.5 150,-224.5 64,-224.5"/>
<text text-anchor="middle" x="107" y="-231.5" font-family="Verdana" font-size="10.00">KindElement.h</text>
</a>
</g>
</g>
<!-- Node13&#45;&gt;Node14 -->
<g id="edge21" class="edge"><title>Node13&#45;&gt;Node14</title>
<path fill="none" stroke="midnightblue" d="M107,-280.083C107,-273.006 107,-262.861 107,-253.986"/>
<polygon fill="midnightblue" stroke="midnightblue" points="110.5,-253.751 107,-243.751 103.5,-253.751 110.5,-253.751"/>
</g>
<!-- Node14&#45;&gt;Node3 -->
<g id="edge22" class="edge"><title>Node14&#45;&gt;Node3</title>
<path fill="none" stroke="midnightblue" d="M130.293,-224.444C154.807,-215.438 193.596,-201.189 221.2,-191.049"/>
<polygon fill="midnightblue" stroke="midnightblue" points="222.637,-194.25 230.816,-187.516 220.223,-187.679 222.637,-194.25"/>
</g>
<!-- Node14&#45;&gt;Node4 -->
<g id="edge23" class="edge"><title>Node14&#45;&gt;Node4</title>
<path fill="none" stroke="midnightblue" d="M103.523,-224.247C93.6191,-197.979 67.2688,-117.828 88,-56 91.6041,-45.2512 98.9028,-35.0204 105.817,-27.0378"/>
<polygon fill="midnightblue" stroke="midnightblue" points="108.477,-29.3168 112.712,-19.6053 103.345,-24.5561 108.477,-29.3168"/>
</g>
</g>
</svg>
