<?xml version="1.0" encoding="UTF-8" standalone="no"?>
<!DOCTYPE svg PUBLIC "-//W3C//DTD SVG 1.1//EN"
 "http://www.w3.org/Graphics/SVG/1.1/DTD/svg11.dtd">
<!-- Generated by graphviz version 2.38.0 (20140413.2041)
 -->
<!-- Title: parameter/FloatingPointParameterType.cpp Pages: 1 -->
<svg width="1666pt" height="487pt"
 viewBox="0.00 0.00 1665.50 487.00" xmlns="http://www.w3.org/2000/svg" xmlns:xlink="http://www.w3.org/1999/xlink">
<g id="graph0" class="graph" transform="scale(1 1) rotate(0) translate(4 483)">
<title>parameter/FloatingPointParameterType.cpp</title>
<polygon fill="white" stroke="none" points="-4,4 -4,-483 1661.5,-483 1661.5,4 -4,4"/>
<!-- Node1 -->
<g id="node1" class="node"><title>Node1</title>
<polygon fill="#bfbfbf" stroke="black" points="963.5,-448.5 963.5,-478.5 1145.5,-478.5 1145.5,-448.5 963.5,-448.5"/>
<text text-anchor="start" x="971.5" y="-466.5" font-family="Verdana" font-size="10.00">parameter/FloatingPointParameter</text>
<text text-anchor="middle" x="1054.5" y="-455.5" font-family="Verdana" font-size="10.00">Type.cpp</text>
</g>
<!-- Node2 -->
<g id="node2" class="node"><title>Node2</title>
<g id="a_node2"><a xlink:href="FloatingPointParameterType_8h.html" target="_top" xlink:title="FloatingPointParameterType.h">
<polygon fill="white" stroke="black" points="635.5,-392.5 635.5,-411.5 793.5,-411.5 793.5,-392.5 635.5,-392.5"/>
<text text-anchor="middle" x="714.5" y="-399.5" font-family="Verdana" font-size="10.00">FloatingPointParameterType.h</text>
</a>
</g>
</g>
<!-- Node1&#45;&gt;Node2 -->
<g id="edge1" class="edge"><title>Node1&#45;&gt;Node2</title>
<path fill="none" stroke="midnightblue" d="M974.355,-448.475C912.625,-437.672 828.711,-422.987 773.142,-413.262"/>
<polygon fill="midnightblue" stroke="midnightblue" points="773.561,-409.783 763.108,-411.506 772.355,-416.678 773.561,-409.783"/>
</g>
<!-- Node6 -->
<g id="node6" class="node"><title>Node6</title>
<polygon fill="white" stroke="#bfbfbf" points="819.5,-280.5 819.5,-299.5 861.5,-299.5 861.5,-280.5 819.5,-280.5"/>
<text text-anchor="middle" x="840.5" y="-287.5" font-family="Verdana" font-size="10.00">limits</text>
</g>
<!-- Node1&#45;&gt;Node6 -->
<g id="edge41" class="edge"><title>Node1&#45;&gt;Node6</title>
<path fill="none" stroke="midnightblue" d="M1024.26,-448.439C988.088,-430.59 927.1,-397.117 884.5,-356 870.14,-342.14 857.81,-322.865 849.887,-308.907"/>
<polygon fill="midnightblue" stroke="midnightblue" points="852.797,-306.933 844.931,-299.836 846.655,-310.29 852.797,-306.933"/>
</g>
<!-- Node18 -->
<g id="node18" class="node"><title>Node18</title>
<polygon fill="white" stroke="#bfbfbf" points="1059.5,-336.5 1059.5,-355.5 1115.5,-355.5 1115.5,-336.5 1059.5,-336.5"/>
<text text-anchor="middle" x="1087.5" y="-343.5" font-family="Verdana" font-size="10.00">sstream</text>
</g>
<!-- Node1&#45;&gt;Node18 -->
<g id="edge32" class="edge"><title>Node1&#45;&gt;Node18</title>
<path fill="none" stroke="midnightblue" d="M1058.55,-448.337C1064.49,-427.527 1075.6,-388.663 1082.19,-365.583"/>
<polygon fill="midnightblue" stroke="midnightblue" points="1085.64,-366.246 1085.02,-355.669 1078.91,-364.323 1085.64,-366.246"/>
</g>
<!-- Node19 -->
<g id="node19" class="node"><title>Node19</title>
<polygon fill="white" stroke="#bfbfbf" points="1341,-392.5 1341,-411.5 1396,-411.5 1396,-392.5 1341,-392.5"/>
<text text-anchor="middle" x="1368.5" y="-399.5" font-family="Verdana" font-size="10.00">iomanip</text>
</g>
<!-- Node1&#45;&gt;Node19 -->
<g id="edge33" class="edge"><title>Node1&#45;&gt;Node19</title>
<path fill="none" stroke="midnightblue" d="M1138.69,-448.463C1191.25,-439.393 1260.52,-426.882 1330.75,-412.062"/>
<polygon fill="midnightblue" stroke="midnightblue" points="1331.61,-415.458 1340.66,-409.956 1330.15,-408.611 1331.61,-415.458"/>
</g>
<!-- Node20 -->
<g id="node20" class="node"><title>Node20</title>
<g id="a_node20"><a xlink:href="ParameterAccessContext_8h.html" target="_top" xlink:title="ParameterAccessContext.h">
<polygon fill="white" stroke="black" points="52,-112.5 52,-131.5 199,-131.5 199,-112.5 52,-112.5"/>
<text text-anchor="middle" x="125.5" y="-119.5" font-family="Verdana" font-size="10.00">ParameterAccessContext.h</text>
</a>
</g>
</g>
<!-- Node1&#45;&gt;Node20 -->
<g id="edge34" class="edge"><title>Node1&#45;&gt;Node20</title>
<path fill="none" stroke="midnightblue" d="M963.157,-459.747C740.805,-451.835 189.5,-424.41 189.5,-347 189.5,-347 189.5,-347 189.5,-233 189.5,-202.775 184.945,-193.982 169.5,-168 162.831,-156.782 152.808,-146.236 144.011,-138.178"/>
<polygon fill="midnightblue" stroke="midnightblue" points="146.24,-135.477 136.409,-131.528 141.632,-140.746 146.24,-135.477"/>
</g>
<!-- Node21 -->
<g id="node21" class="node"><title>Node21</title>
<g id="a_node21"><a xlink:href="ConfigurationAccessContext_8h.html" target="_top" xlink:title="ConfigurationAccessContext.h">
<polygon fill="white" stroke="black" points="0,-168.5 0,-187.5 161,-187.5 161,-168.5 0,-168.5"/>
<text text-anchor="middle" x="80.5" y="-175.5" font-family="Verdana" font-size="10.00">ConfigurationAccessContext.h</text>
</a>
</g>
</g>
<!-- Node1&#45;&gt;Node21 -->
<g id="edge38" class="edge"><title>Node1&#45;&gt;Node21</title>
<path fill="none" stroke="midnightblue" d="M963.375,-461.116C752.855,-457.369 245.337,-444.996 175.5,-412 139.953,-395.205 115.5,-386.315 115.5,-347 115.5,-347 115.5,-347 115.5,-289 115.5,-255.072 100.193,-217.911 89.8248,-196.631"/>
<polygon fill="midnightblue" stroke="midnightblue" points="92.8624,-194.882 85.2203,-187.544 86.6182,-198.046 92.8624,-194.882"/>
</g>
<!-- Node22 -->
<g id="node22" class="node"><title>Node22</title>
<polygon fill="white" stroke="#bfbfbf" points="1414,-392.5 1414,-411.5 1461,-411.5 1461,-392.5 1414,-392.5"/>
<text text-anchor="middle" x="1437.5" y="-399.5" font-family="Verdana" font-size="10.00">climits</text>
</g>
<!-- Node1&#45;&gt;Node22 -->
<g id="edge42" class="edge"><title>Node1&#45;&gt;Node22</title>
<path fill="none" stroke="midnightblue" d="M1145.68,-452.46C1214.21,-444.192 1310.49,-431.039 1403.89,-411.896"/>
<polygon fill="midnightblue" stroke="midnightblue" points="1404.71,-415.299 1413.79,-409.841 1403.29,-408.445 1404.71,-415.299"/>
</g>
<!-- Node23 -->
<g id="node23" class="node"><title>Node23</title>
<g id="a_node23"><a xlink:href="convert_8hpp.html" target="_top" xlink:title="convert.hpp">
<polygon fill="white" stroke="black" points="985.5,-392.5 985.5,-411.5 1059.5,-411.5 1059.5,-392.5 985.5,-392.5"/>
<text text-anchor="middle" x="1022.5" y="-399.5" font-family="Verdana" font-size="10.00">convert.hpp</text>
</a>
</g>
</g>
<!-- Node1&#45;&gt;Node23 -->
<g id="edge43" class="edge"><title>Node1&#45;&gt;Node23</title>
<path fill="none" stroke="midnightblue" d="M1046.92,-448.399C1042.46,-440.11 1036.78,-429.554 1032.02,-420.708"/>
<polygon fill="midnightblue" stroke="midnightblue" points="1034.98,-418.807 1027.16,-411.658 1028.81,-422.123 1034.98,-418.807"/>
</g>
<!-- Node26 -->
<g id="node26" class="node"><title>Node26</title>
<g id="a_node26"><a xlink:href="Utility_8h.html" target="_top" xlink:title="Utility.h">
<polygon fill="white" stroke="black" points="1272,-392.5 1272,-411.5 1323,-411.5 1323,-392.5 1272,-392.5"/>
<text text-anchor="middle" x="1297.5" y="-399.5" font-family="Verdana" font-size="10.00">Utility.h</text>
</a>
</g>
</g>
<!-- Node1&#45;&gt;Node26 -->
<g id="edge50" class="edge"><title>Node1&#45;&gt;Node26</title>
<path fill="none" stroke="midnightblue" d="M1113.28,-448.454C1152.68,-438.984 1205.99,-426.076 1262.13,-412.068"/>
<polygon fill="midnightblue" stroke="midnightblue" points="1263.04,-415.447 1271.9,-409.626 1261.35,-408.656 1263.04,-415.447"/>
</g>
<!-- Node30 -->
<g id="node30" class="node"><title>Node30</title>
<g id="a_node30"><a xlink:href="BinaryCopy_8hpp.html" target="_top" xlink:title="BinaryCopy.hpp">
<polygon fill="white" stroke="black" points="1163.5,-392.5 1163.5,-411.5 1253.5,-411.5 1253.5,-392.5 1163.5,-392.5"/>
<text text-anchor="middle" x="1208.5" y="-399.5" font-family="Verdana" font-size="10.00">BinaryCopy.hpp</text>
</a>
</g>
</g>
<!-- Node1&#45;&gt;Node30 -->
<g id="edge57" class="edge"><title>Node1&#45;&gt;Node30</title>
<path fill="none" stroke="midnightblue" d="M1091,-448.399C1117.07,-438.327 1151.79,-424.909 1176.72,-415.277"/>
<polygon fill="midnightblue" stroke="midnightblue" points="1178.03,-418.527 1186.09,-411.658 1175.5,-411.997 1178.03,-418.527"/>
</g>
<!-- Node3 -->
<g id="node3" class="node"><title>Node3</title>
<g id="a_node3"><a xlink:href="ParameterType_8h.html" target="_top" xlink:title="ParameterType.h">
<polygon fill="white" stroke="black" points="673,-336.5 673,-355.5 770,-355.5 770,-336.5 673,-336.5"/>
<text text-anchor="middle" x="721.5" y="-343.5" font-family="Verdana" font-size="10.00">ParameterType.h</text>
</a>
</g>
</g>
<!-- Node2&#45;&gt;Node3 -->
<g id="edge2" class="edge"><title>Node2&#45;&gt;Node3</title>
<path fill="none" stroke="midnightblue" d="M715.656,-392.083C716.584,-384.927 717.918,-374.635 719.077,-365.691"/>
<polygon fill="midnightblue" stroke="midnightblue" points="722.551,-366.118 720.366,-355.751 715.609,-365.218 722.551,-366.118"/>
</g>
<!-- Node9 -->
<g id="node9" class="node"><title>Node9</title>
<polygon fill="white" stroke="#bfbfbf" points="388.5,-0.5 388.5,-19.5 432.5,-19.5 432.5,-0.5 388.5,-0.5"/>
<text text-anchor="middle" x="410.5" y="-7.5" font-family="Verdana" font-size="10.00">string</text>
</g>
<!-- Node2&#45;&gt;Node9 -->
<g id="edge31" class="edge"><title>Node2&#45;&gt;Node9</title>
<path fill="none" stroke="midnightblue" d="M739.663,-392.439C775.281,-378.895 839.507,-348.923 870.5,-300 902.097,-250.122 906.544,-223.167 885.5,-168 873.608,-136.825 862.677,-131.357 835.5,-112 710.975,-23.3076 519.033,-11.6689 443.063,-10.7283"/>
<polygon fill="midnightblue" stroke="midnightblue" points="442.741,-7.22618 432.718,-10.6593 442.694,-14.226 442.741,-7.22618"/>
</g>
<!-- Node4 -->
<g id="node4" class="node"><title>Node4</title>
<polygon fill="white" stroke="#bfbfbf" points="748,-168.5 748,-187.5 861,-187.5 861,-168.5 748,-168.5"/>
<text text-anchor="middle" x="804.5" y="-175.5" font-family="Verdana" font-size="10.00">parameter_export.h</text>
</g>
<!-- Node3&#45;&gt;Node4 -->
<g id="edge3" class="edge"><title>Node3&#45;&gt;Node4</title>
<path fill="none" stroke="midnightblue" d="M725.962,-336.075C739.14,-309.719 778.061,-231.878 795.67,-196.661"/>
<polygon fill="midnightblue" stroke="midnightblue" points="798.874,-198.078 800.216,-187.568 792.613,-194.947 798.874,-198.078"/>
</g>
<!-- Node5 -->
<g id="node5" class="node"><title>Node5</title>
<polygon fill="white" stroke="#bfbfbf" points="617,-56.5 617,-75.5 670,-75.5 670,-56.5 617,-56.5"/>
<text text-anchor="middle" x="643.5" y="-63.5" font-family="Verdana" font-size="10.00">stdint.h</text>
</g>
<!-- Node3&#45;&gt;Node5 -->
<g id="edge4" class="edge"><title>Node3&#45;&gt;Node5</title>
<path fill="none" stroke="midnightblue" d="M732.404,-336.467C770.363,-306.289 893.145,-204.466 869.5,-168 827.392,-103.06 732.683,-79.5047 680.22,-71.2452"/>
<polygon fill="midnightblue" stroke="midnightblue" points="680.412,-67.736 670.009,-69.7474 679.395,-74.6618 680.412,-67.736"/>
</g>
<!-- Node3&#45;&gt;Node6 -->
<g id="edge5" class="edge"><title>Node3&#45;&gt;Node6</title>
<path fill="none" stroke="midnightblue" d="M740.356,-336.444C759.766,-327.636 790.23,-313.812 812.465,-303.722"/>
<polygon fill="midnightblue" stroke="midnightblue" points="814.072,-306.836 821.732,-299.516 811.18,-300.462 814.072,-306.836"/>
</g>
<!-- Node7 -->
<g id="node7" class="node"><title>Node7</title>
<g id="a_node7"><a xlink:href="TypeElement_8h.html" target="_top" xlink:title="TypeElement.h">
<polygon fill="white" stroke="black" points="618.5,-280.5 618.5,-299.5 704.5,-299.5 704.5,-280.5 618.5,-280.5"/>
<text text-anchor="middle" x="661.5" y="-287.5" font-family="Verdana" font-size="10.00">TypeElement.h</text>
</a>
</g>
</g>
<!-- Node3&#45;&gt;Node7 -->
<g id="edge6" class="edge"><title>Node3&#45;&gt;Node7</title>
<path fill="none" stroke="midnightblue" d="M711.86,-336.324C702.99,-328.341 689.625,-316.313 678.892,-306.653"/>
<polygon fill="midnightblue" stroke="midnightblue" points="681.09,-303.922 671.315,-299.834 676.407,-309.125 681.09,-303.922"/>
</g>
<!-- Node3&#45;&gt;Node9 -->
<g id="edge30" class="edge"><title>Node3&#45;&gt;Node9</title>
<path fill="none" stroke="midnightblue" d="M672.781,-344.418C548.153,-341.618 227.5,-325.61 227.5,-235 227.5,-235 227.5,-235 227.5,-121 227.5,-51.4676 325.75,-24.774 378.269,-15.4721"/>
<polygon fill="midnightblue" stroke="midnightblue" points="379.133,-18.8768 388.426,-13.7889 377.988,-11.971 379.133,-18.8768"/>
</g>
<!-- Node7&#45;&gt;Node4 -->
<g id="edge7" class="edge"><title>Node7&#45;&gt;Node4</title>
<path fill="none" stroke="midnightblue" d="M670.549,-280.099C683.966,-267.102 710.173,-242.471 734.5,-224 749.365,-212.713 767.053,-201.358 780.93,-192.878"/>
<polygon fill="midnightblue" stroke="midnightblue" points="783.089,-195.663 789.846,-187.503 779.475,-189.669 783.089,-195.663"/>
</g>
<!-- Node8 -->
<g id="node8" class="node"><title>Node8</title>
<g id="a_node8"><a xlink:href="Element_8h.html" target="_top" xlink:title="Element.h">
<polygon fill="white" stroke="black" points="613,-224.5 613,-243.5 678,-243.5 678,-224.5 613,-224.5"/>
<text text-anchor="middle" x="645.5" y="-231.5" font-family="Verdana" font-size="10.00">Element.h</text>
</a>
</g>
</g>
<!-- Node7&#45;&gt;Node8 -->
<g id="edge8" class="edge"><title>Node7&#45;&gt;Node8</title>
<path fill="none" stroke="midnightblue" d="M658.858,-280.083C656.714,-272.849 653.621,-262.409 650.951,-253.397"/>
<polygon fill="midnightblue" stroke="midnightblue" points="654.29,-252.345 648.093,-243.751 647.578,-254.333 654.29,-252.345"/>
</g>
<!-- Node7&#45;&gt;Node9 -->
<g id="edge29" class="edge"><title>Node7&#45;&gt;Node9</title>
<path fill="none" stroke="midnightblue" d="M618.367,-286.179C515.733,-278.287 265.5,-251.602 265.5,-179 265.5,-179 265.5,-179 265.5,-121 265.5,-64.5426 336.135,-33.3092 378.805,-19.5921"/>
<polygon fill="midnightblue" stroke="midnightblue" points="379.943,-22.9042 388.478,-16.6267 377.891,-16.2116 379.943,-22.9042"/>
</g>
<!-- Node8&#45;&gt;Node4 -->
<g id="edge9" class="edge"><title>Node8&#45;&gt;Node4</title>
<path fill="none" stroke="midnightblue" d="M670.694,-224.444C697.443,-215.359 739.903,-200.939 769.805,-190.783"/>
<polygon fill="midnightblue" stroke="midnightblue" points="771.081,-194.046 779.424,-187.516 768.829,-187.418 771.081,-194.046"/>
</g>
<!-- Node8&#45;&gt;Node5 -->
<g id="edge12" class="edge"><title>Node8&#45;&gt;Node5</title>
<path fill="none" stroke="midnightblue" d="M650.892,-224.383C662.692,-204.4 688.732,-153.441 675.5,-112 672.159,-101.538 665.4,-91.4277 658.951,-83.4496"/>
<polygon fill="midnightblue" stroke="midnightblue" points="661.444,-80.9815 652.251,-75.7136 656.152,-85.5641 661.444,-80.9815"/>
</g>
<!-- Node8&#45;&gt;Node9 -->
<g id="edge10" class="edge"><title>Node8&#45;&gt;Node9</title>
<path fill="none" stroke="midnightblue" d="M656.722,-224.358C666.446,-216.159 679.953,-202.901 686.5,-188 710.143,-134.191 721.323,-96.2571 678.5,-56 644.949,-24.4594 506.737,-14.8548 442.986,-12.0718"/>
<polygon fill="midnightblue" stroke="midnightblue" points="442.838,-8.56298 432.704,-11.6544 442.554,-15.5572 442.838,-8.56298"/>
</g>
<!-- Node10 -->
<g id="node10" class="node"><title>Node10</title>
<polygon fill="white" stroke="#bfbfbf" points="620,-112.5 620,-131.5 667,-131.5 667,-112.5 620,-112.5"/>
<text text-anchor="middle" x="643.5" y="-119.5" font-family="Verdana" font-size="10.00">vector</text>
</g>
<!-- Node8&#45;&gt;Node10 -->
<g id="edge11" class="edge"><title>Node8&#45;&gt;Node10</title>
<path fill="none" stroke="midnightblue" d="M645.343,-224.368C645.02,-206.617 644.276,-165.666 643.838,-141.597"/>
<polygon fill="midnightblue" stroke="midnightblue" points="647.338,-141.526 643.656,-131.591 640.339,-141.653 647.338,-141.526"/>
</g>
<!-- Node11 -->
<g id="node11" class="node"><title>Node11</title>
<g id="a_node11"><a xlink:href="XmlSink_8h.html" target="_top" xlink:title="XmlSink.h">
<polygon fill="white" stroke="black" points="345.5,-168.5 345.5,-187.5 409.5,-187.5 409.5,-168.5 345.5,-168.5"/>
<text text-anchor="middle" x="377.5" y="-175.5" font-family="Verdana" font-size="10.00">XmlSink.h</text>
</a>
</g>
</g>
<!-- Node8&#45;&gt;Node11 -->
<g id="edge13" class="edge"><title>Node8&#45;&gt;Node11</title>
<path fill="none" stroke="midnightblue" d="M612.753,-226.726C570.489,-218.58 494.42,-203.759 419.76,-188.232"/>
<polygon fill="midnightblue" stroke="midnightblue" points="420.22,-184.752 409.716,-186.137 418.79,-191.605 420.22,-184.752"/>
</g>
<!-- Node16 -->
<g id="node16" class="node"><title>Node16</title>
<g id="a_node16"><a xlink:href="XmlSource_8h.html" target="_top" xlink:title="XmlSource.h">
<polygon fill="white" stroke="black" points="428,-168.5 428,-187.5 505,-187.5 505,-168.5 428,-168.5"/>
<text text-anchor="middle" x="466.5" y="-175.5" font-family="Verdana" font-size="10.00">XmlSource.h</text>
</a>
</g>
</g>
<!-- Node8&#45;&gt;Node16 -->
<g id="edge22" class="edge"><title>Node8&#45;&gt;Node16</title>
<path fill="none" stroke="midnightblue" d="M617.137,-224.444C586.762,-215.28 538.39,-200.688 504.684,-190.519"/>
<polygon fill="midnightblue" stroke="midnightblue" points="505.315,-187.054 494.73,-187.516 503.293,-193.756 505.315,-187.054"/>
</g>
<!-- Node17 -->
<g id="node17" class="node"><title>Node17</title>
<g id="a_node17"><a xlink:href="PathNavigator_8h.html" target="_top" xlink:title="PathNavigator.h">
<polygon fill="white" stroke="black" points="523.5,-168.5 523.5,-187.5 615.5,-187.5 615.5,-168.5 523.5,-168.5"/>
<text text-anchor="middle" x="569.5" y="-175.5" font-family="Verdana" font-size="10.00">PathNavigator.h</text>
</a>
</g>
</g>
<!-- Node8&#45;&gt;Node17 -->
<g id="edge25" class="edge"><title>Node8&#45;&gt;Node17</title>
<path fill="none" stroke="midnightblue" d="M633.289,-224.324C621.724,-216.107 604.125,-203.602 590.339,-193.807"/>
<polygon fill="midnightblue" stroke="midnightblue" points="592.112,-190.773 581.933,-187.834 588.057,-196.479 592.112,-190.773"/>
</g>
<!-- Node12 -->
<g id="node12" class="node"><title>Node12</title>
<g id="a_node12"><a xlink:href="XmlElement_8h.html" target="_top" xlink:title="XmlElement.h">
<polygon fill="white" stroke="black" points="442,-112.5 442,-131.5 525,-131.5 525,-112.5 442,-112.5"/>
<text text-anchor="middle" x="483.5" y="-119.5" font-family="Verdana" font-size="10.00">XmlElement.h</text>
</a>
</g>
</g>
<!-- Node11&#45;&gt;Node12 -->
<g id="edge14" class="edge"><title>Node11&#45;&gt;Node12</title>
<path fill="none" stroke="midnightblue" d="M394.531,-168.324C411.53,-159.664 437.876,-146.242 457.493,-136.249"/>
<polygon fill="midnightblue" stroke="midnightblue" points="459.19,-139.312 466.512,-131.655 456.012,-133.075 459.19,-139.312"/>
</g>
<!-- Node13 -->
<g id="node13" class="node"><title>Node13</title>
<g id="a_node13"><a xlink:href="XmlSerializingContext_8h.html" target="_top" xlink:title="XmlSerializingContext.h">
<polygon fill="white" stroke="black" points="293.5,-112.5 293.5,-131.5 423.5,-131.5 423.5,-112.5 293.5,-112.5"/>
<text text-anchor="middle" x="358.5" y="-119.5" font-family="Verdana" font-size="10.00">XmlSerializingContext.h</text>
</a>
</g>
</g>
<!-- Node11&#45;&gt;Node13 -->
<g id="edge17" class="edge"><title>Node11&#45;&gt;Node13</title>
<path fill="none" stroke="midnightblue" d="M374.363,-168.083C371.817,-160.849 368.144,-150.409 364.973,-141.397"/>
<polygon fill="midnightblue" stroke="midnightblue" points="368.2,-140.023 361.579,-131.751 361.597,-142.346 368.2,-140.023"/>
</g>
<!-- Node12&#45;&gt;Node5 -->
<g id="edge15" class="edge"><title>Node12&#45;&gt;Node5</title>
<path fill="none" stroke="midnightblue" d="M508.852,-112.444C535.769,-103.359 578.496,-88.9388 608.587,-78.7831"/>
<polygon fill="midnightblue" stroke="midnightblue" points="609.91,-82.0305 618.266,-75.5164 607.672,-75.3981 609.91,-82.0305"/>
</g>
<!-- Node12&#45;&gt;Node9 -->
<g id="edge16" class="edge"><title>Node12&#45;&gt;Node9</title>
<path fill="none" stroke="midnightblue" d="M477.772,-112.368C465.725,-94.2153 437.577,-51.8015 421.775,-27.9902"/>
<polygon fill="midnightblue" stroke="midnightblue" points="424.647,-25.9882 416.202,-19.5914 418.815,-29.8589 424.647,-25.9882"/>
</g>
<!-- Node13&#45;&gt;Node9 -->
<g id="edge21" class="edge"><title>Node13&#45;&gt;Node9</title>
<path fill="none" stroke="midnightblue" d="M362.58,-112.368C371.048,-94.4563 390.682,-52.9233 402.015,-28.9482"/>
<polygon fill="midnightblue" stroke="midnightblue" points="405.329,-30.128 406.439,-19.5914 399,-27.1363 405.329,-30.128"/>
</g>
<!-- Node14 -->
<g id="node14" class="node"><title>Node14</title>
<g id="a_node14"><a xlink:href="ErrorContext_8hpp.html" target="_top" xlink:title="ErrorContext.hpp">
<polygon fill="white" stroke="black" points="63.5,-56.5 63.5,-75.5 161.5,-75.5 161.5,-56.5 63.5,-56.5"/>
<text text-anchor="middle" x="112.5" y="-63.5" font-family="Verdana" font-size="10.00">ErrorContext.hpp</text>
</a>
</g>
</g>
<!-- Node13&#45;&gt;Node14 -->
<g id="edge18" class="edge"><title>Node13&#45;&gt;Node14</title>
<path fill="none" stroke="midnightblue" d="M319.521,-112.444C276.606,-103.023 207.554,-87.8656 161.131,-77.6752"/>
<polygon fill="midnightblue" stroke="midnightblue" points="161.815,-74.242 151.297,-75.5164 160.314,-81.0792 161.815,-74.242"/>
</g>
<!-- Node14&#45;&gt;Node9 -->
<g id="edge19" class="edge"><title>Node14&#45;&gt;Node9</title>
<path fill="none" stroke="midnightblue" d="M159.719,-56.4435C220.828,-45.3702 325.688,-26.3686 378.345,-16.8268"/>
<polygon fill="midnightblue" stroke="midnightblue" points="379.237,-20.2221 388.453,-14.9951 377.989,-13.3343 379.237,-20.2221"/>
</g>
<!-- Node15 -->
<g id="node15" class="node"><title>Node15</title>
<g id="a_node15"><a xlink:href="NonCopyable_8hpp.html" target="_top" xlink:title="NonCopyable.hpp">
<polygon fill="white" stroke="black" points="62,-0.5 62,-19.5 163,-19.5 163,-0.5 62,-0.5"/>
<text text-anchor="middle" x="112.5" y="-7.5" font-family="Verdana" font-size="10.00">NonCopyable.hpp</text>
</a>
</g>
</g>
<!-- Node14&#45;&gt;Node15 -->
<g id="edge20" class="edge"><title>Node14&#45;&gt;Node15</title>
<path fill="none" stroke="midnightblue" d="M112.5,-56.083C112.5,-49.0059 112.5,-38.8611 112.5,-29.9865"/>
<polygon fill="midnightblue" stroke="midnightblue" points="116,-29.751 112.5,-19.7511 109,-29.7511 116,-29.751"/>
</g>
<!-- Node16&#45;&gt;Node12 -->
<g id="edge23" class="edge"><title>Node16&#45;&gt;Node12</title>
<path fill="none" stroke="midnightblue" d="M469.307,-168.083C471.585,-160.849 474.871,-150.409 477.708,-141.397"/>
<polygon fill="midnightblue" stroke="midnightblue" points="481.081,-142.341 480.745,-131.751 474.404,-140.239 481.081,-142.341"/>
</g>
<!-- Node16&#45;&gt;Node13 -->
<g id="edge24" class="edge"><title>Node16&#45;&gt;Node13</title>
<path fill="none" stroke="midnightblue" d="M449.148,-168.324C431.828,-159.664 404.985,-146.242 384.998,-136.249"/>
<polygon fill="midnightblue" stroke="midnightblue" points="386.319,-132.996 375.809,-131.655 383.188,-139.257 386.319,-132.996"/>
</g>
<!-- Node17&#45;&gt;Node5 -->
<g id="edge28" class="edge"><title>Node17&#45;&gt;Node5</title>
<path fill="none" stroke="midnightblue" d="M574.621,-168.464C582.205,-155.922 596.984,-131.852 610.5,-112 616.906,-102.59 624.384,-92.3384 630.6,-83.9998"/>
<polygon fill="midnightblue" stroke="midnightblue" points="633.528,-85.9293 636.739,-75.8327 627.932,-81.7232 633.528,-85.9293"/>
</g>
<!-- Node17&#45;&gt;Node9 -->
<g id="edge27" class="edge"><title>Node17&#45;&gt;Node9</title>
<path fill="none" stroke="midnightblue" d="M565.982,-168.368C560.383,-155.282 548.527,-130.039 533.5,-112 503.443,-75.9172 459.081,-43.2274 432.656,-25.3298"/>
<polygon fill="midnightblue" stroke="midnightblue" points="434.373,-22.2679 424.111,-19.6348 430.491,-28.093 434.373,-22.2679"/>
</g>
<!-- Node17&#45;&gt;Node10 -->
<g id="edge26" class="edge"><title>Node17&#45;&gt;Node10</title>
<path fill="none" stroke="midnightblue" d="M581.389,-168.324C592.65,-160.107 609.787,-147.602 623.209,-137.807"/>
<polygon fill="midnightblue" stroke="midnightblue" points="625.38,-140.556 631.394,-131.834 621.253,-134.901 625.38,-140.556"/>
</g>
<!-- Node20&#45;&gt;Node5 -->
<g id="edge35" class="edge"><title>Node20&#45;&gt;Node5</title>
<path fill="none" stroke="midnightblue" d="M199.167,-113.32C311.668,-101.592 522.141,-79.6514 606.822,-70.8236"/>
<polygon fill="midnightblue" stroke="midnightblue" points="607.397,-74.2827 616.98,-69.7647 606.671,-67.3205 607.397,-74.2827"/>
</g>
<!-- Node20&#45;&gt;Node9 -->
<g id="edge37" class="edge"><title>Node20&#45;&gt;Node9</title>
<path fill="none" stroke="midnightblue" d="M134.439,-112.384C149.487,-98.3737 181.394,-70.7395 213.5,-56 268.231,-30.8742 338.14,-19.211 378.263,-14.2531"/>
<polygon fill="midnightblue" stroke="midnightblue" points="378.75,-17.7202 388.274,-13.0798 377.935,-10.7678 378.75,-17.7202"/>
</g>
<!-- Node20&#45;&gt;Node14 -->
<g id="edge36" class="edge"><title>Node20&#45;&gt;Node14</title>
<path fill="none" stroke="midnightblue" d="M123.353,-112.083C121.631,-104.927 119.153,-94.6353 117,-85.6911"/>
<polygon fill="midnightblue" stroke="midnightblue" points="120.35,-84.6541 114.607,-75.7511 113.545,-86.2925 120.35,-84.6541"/>
</g>
<!-- Node21&#45;&gt;Node9 -->
<g id="edge40" class="edge"><title>Node21&#45;&gt;Node9</title>
<path fill="none" stroke="midnightblue" d="M69.7855,-168.305C60.5616,-160.069 47.909,-146.789 42.5,-132 34.6316,-110.486 49.8307,-60.2868 54.5,-56 101.287,-13.0452 299.403,-9.96911 378.091,-10.4958"/>
<polygon fill="midnightblue" stroke="midnightblue" points="378.341,-13.9981 388.373,-10.5902 378.406,-6.99844 378.341,-13.9981"/>
</g>
<!-- Node21&#45;&gt;Node20 -->
<g id="edge39" class="edge"><title>Node21&#45;&gt;Node20</title>
<path fill="none" stroke="midnightblue" d="M87.9308,-168.083C94.3527,-160.377 103.806,-149.033 111.622,-139.653"/>
<polygon fill="midnightblue" stroke="midnightblue" points="114.494,-141.674 118.207,-131.751 109.117,-137.193 114.494,-141.674"/>
</g>
<!-- Node23&#45;&gt;Node5 -->
<g id="edge47" class="edge"><title>Node23&#45;&gt;Node5</title>
<path fill="none" stroke="midnightblue" d="M998.655,-392.408C981.778,-385.162 959.855,-373.197 946.5,-356 928.04,-332.228 927.5,-321.098 927.5,-291 927.5,-291 927.5,-291 927.5,-177 927.5,-124.607 757.303,-87.411 680.42,-73.2814"/>
<polygon fill="midnightblue" stroke="midnightblue" points="680.68,-69.7721 670.218,-71.4416 679.438,-76.6609 680.68,-69.7721"/>
</g>
<!-- Node23&#45;&gt;Node6 -->
<g id="edge44" class="edge"><title>Node23&#45;&gt;Node6</title>
<path fill="none" stroke="midnightblue" d="M994.841,-392.473C972.036,-384.779 939.353,-372.191 913.5,-356 891.379,-342.146 869.487,-321.475 855.535,-307.18"/>
<polygon fill="midnightblue" stroke="midnightblue" points="857.733,-304.414 848.295,-299.6 852.671,-309.249 857.733,-304.414"/>
</g>
<!-- Node23&#45;&gt;Node9 -->
<g id="edge46" class="edge"><title>Node23&#45;&gt;Node9</title>
<path fill="none" stroke="midnightblue" d="M1023.68,-392.462C1026.12,-373.994 1031.5,-328.939 1031.5,-291 1031.5,-291 1031.5,-291 1031.5,-121 1031.5,-60.6237 570.491,-22.6284 442.889,-13.2682"/>
<polygon fill="midnightblue" stroke="midnightblue" points="442.829,-9.75465 432.602,-12.5228 442.323,-16.7364 442.829,-9.75465"/>
</g>
<!-- Node23&#45;&gt;Node18 -->
<g id="edge45" class="edge"><title>Node23&#45;&gt;Node18</title>
<path fill="none" stroke="midnightblue" d="M1032.94,-392.324C1042.65,-384.263 1057.32,-372.077 1069,-362.369"/>
<polygon fill="midnightblue" stroke="midnightblue" points="1071.41,-364.916 1076.87,-355.834 1066.94,-359.532 1071.41,-364.916"/>
</g>
<!-- Node24 -->
<g id="node24" class="node"><title>Node24</title>
<polygon fill="white" stroke="#bfbfbf" points="956,-336.5 956,-355.5 1003,-355.5 1003,-336.5 956,-336.5"/>
<text text-anchor="middle" x="979.5" y="-343.5" font-family="Verdana" font-size="10.00">cmath</text>
</g>
<!-- Node23&#45;&gt;Node24 -->
<g id="edge48" class="edge"><title>Node23&#45;&gt;Node24</title>
<path fill="none" stroke="midnightblue" d="M1015.4,-392.083C1009.26,-384.377 1000.23,-373.033 992.761,-363.653"/>
<polygon fill="midnightblue" stroke="midnightblue" points="995.436,-361.394 986.468,-355.751 989.96,-365.754 995.436,-361.394"/>
</g>
<!-- Node25 -->
<g id="node25" class="node"><title>Node25</title>
<polygon fill="white" stroke="#bfbfbf" points="1133.5,-336.5 1133.5,-355.5 1201.5,-355.5 1201.5,-336.5 1133.5,-336.5"/>
<text text-anchor="middle" x="1167.5" y="-343.5" font-family="Verdana" font-size="10.00">type_traits</text>
</g>
<!-- Node23&#45;&gt;Node25 -->
<g id="edge49" class="edge"><title>Node23&#45;&gt;Node25</title>
<path fill="none" stroke="midnightblue" d="M1045.48,-392.444C1069.66,-383.438 1107.92,-369.189 1135.15,-359.049"/>
<polygon fill="midnightblue" stroke="midnightblue" points="1136.48,-362.286 1144.63,-355.516 1134.04,-355.727 1136.48,-362.286"/>
</g>
<!-- Node26&#45;&gt;Node9 -->
<g id="edge51" class="edge"><title>Node26&#45;&gt;Node9</title>
<path fill="none" stroke="midnightblue" d="M1323.18,-394.136C1365.54,-382.715 1445.9,-360.605 1450.5,-356 1471.76,-334.7 1469.5,-321.098 1469.5,-291 1469.5,-291 1469.5,-291 1469.5,-121 1469.5,-15.0314 619.767,-10.6453 442.62,-10.8822"/>
<polygon fill="midnightblue" stroke="midnightblue" points="442.612,-7.38215 432.619,-10.9017 442.626,-14.3821 442.612,-7.38215"/>
</g>
<!-- Node26&#45;&gt;Node18 -->
<g id="edge54" class="edge"><title>Node26&#45;&gt;Node18</title>
<path fill="none" stroke="midnightblue" d="M1271.75,-394.379C1235.22,-384.986 1168.11,-367.728 1125.75,-356.836"/>
<polygon fill="midnightblue" stroke="midnightblue" points="1126.36,-353.38 1115.81,-354.279 1124.62,-360.159 1126.36,-353.38"/>
</g>
<!-- Node26&#45;&gt;Node25 -->
<g id="edge56" class="edge"><title>Node26&#45;&gt;Node25</title>
<path fill="none" stroke="midnightblue" d="M1276.9,-392.444C1255.51,-383.557 1221.82,-369.563 1197.48,-359.451"/>
<polygon fill="midnightblue" stroke="midnightblue" points="1198.58,-356.12 1188,-355.516 1195.89,-362.585 1198.58,-356.12"/>
</g>
<!-- Node27 -->
<g id="node27" class="node"><title>Node27</title>
<polygon fill="white" stroke="#bfbfbf" points="1627.5,-336.5 1627.5,-355.5 1657.5,-355.5 1657.5,-336.5 1627.5,-336.5"/>
<text text-anchor="middle" x="1642.5" y="-343.5" font-family="Verdana" font-size="10.00">list</text>
</g>
<!-- Node26&#45;&gt;Node27 -->
<g id="edge52" class="edge"><title>Node26&#45;&gt;Node27</title>
<path fill="none" stroke="midnightblue" d="M1323.03,-393.848C1325.88,-393.169 1328.74,-392.535 1331.5,-392 1454.49,-368.119 1491.8,-385.829 1617.43,-355.713"/>
<polygon fill="midnightblue" stroke="midnightblue" points="1618.56,-359.041 1627.43,-353.26 1616.89,-352.243 1618.56,-359.041"/>
</g>
<!-- Node28 -->
<g id="node28" class="node"><title>Node28</title>
<polygon fill="white" stroke="#bfbfbf" points="1497.5,-336.5 1497.5,-355.5 1535.5,-355.5 1535.5,-336.5 1497.5,-336.5"/>
<text text-anchor="middle" x="1516.5" y="-343.5" font-family="Verdana" font-size="10.00">map</text>
</g>
<!-- Node26&#45;&gt;Node28 -->
<g id="edge53" class="edge"><title>Node26&#45;&gt;Node28</title>
<path fill="none" stroke="midnightblue" d="M1323.1,-394.146C1325.93,-393.411 1328.78,-392.683 1331.5,-392 1398.84,-375.116 1416.22,-373.136 1483.5,-356 1484.76,-355.678 1486.05,-355.346 1487.35,-355.007"/>
<polygon fill="midnightblue" stroke="midnightblue" points="1488.57,-358.303 1497.33,-352.344 1486.77,-351.54 1488.57,-358.303"/>
</g>
<!-- Node29 -->
<g id="node29" class="node"><title>Node29</title>
<polygon fill="white" stroke="#bfbfbf" points="1553.5,-336.5 1553.5,-355.5 1609.5,-355.5 1609.5,-336.5 1553.5,-336.5"/>
<text text-anchor="middle" x="1581.5" y="-343.5" font-family="Verdana" font-size="10.00">numeric</text>
</g>
<!-- Node26&#45;&gt;Node29 -->
<g id="edge55" class="edge"><title>Node26&#45;&gt;Node29</title>
<path fill="none" stroke="midnightblue" d="M1323.06,-393.967C1325.9,-393.265 1328.75,-392.594 1331.5,-392 1422.22,-372.369 1448.72,-375.141 1543.28,-356.125"/>
<polygon fill="midnightblue" stroke="midnightblue" points="1544.17,-359.516 1553.26,-354.087 1542.77,-352.657 1544.17,-359.516"/>
</g>
<!-- Node30&#45;&gt;Node25 -->
<g id="edge59" class="edge"><title>Node30&#45;&gt;Node25</title>
<path fill="none" stroke="midnightblue" d="M1201.73,-392.083C1195.94,-384.455 1187.44,-373.264 1180.36,-363.941"/>
<polygon fill="midnightblue" stroke="midnightblue" points="1182.98,-361.599 1174.14,-355.751 1177.4,-365.832 1182.98,-361.599"/>
</g>
<!-- Node31 -->
<g id="node31" class="node"><title>Node31</title>
<polygon fill="white" stroke="#bfbfbf" points="1219.5,-336.5 1219.5,-355.5 1281.5,-355.5 1281.5,-336.5 1219.5,-336.5"/>
<text text-anchor="middle" x="1250.5" y="-343.5" font-family="Verdana" font-size="10.00">algorithm</text>
</g>
<!-- Node30&#45;&gt;Node31 -->
<g id="edge58" class="edge"><title>Node30&#45;&gt;Node31</title>
<path fill="none" stroke="midnightblue" d="M1215.44,-392.083C1221.43,-384.377 1230.25,-373.033 1237.55,-363.653"/>
<polygon fill="midnightblue" stroke="midnightblue" points="1240.32,-365.793 1243.69,-355.751 1234.79,-361.496 1240.32,-365.793"/>
</g>
<!-- Node32 -->
<g id="node32" class="node"><title>Node32</title>
<g id="a_node32"><a xlink:href="Iterator_8hpp.html" target="_top" xlink:title="Iterator.hpp">
<polygon fill="white" stroke="black" points="1299.5,-336.5 1299.5,-355.5 1371.5,-355.5 1371.5,-336.5 1299.5,-336.5"/>
<text text-anchor="middle" x="1335.5" y="-343.5" font-family="Verdana" font-size="10.00">Iterator.hpp</text>
</a>
</g>
</g>
<!-- Node30&#45;&gt;Node32 -->
<g id="edge60" class="edge"><title>Node30&#45;&gt;Node32</title>
<path fill="none" stroke="midnightblue" d="M1228.62,-392.444C1249.52,-383.557 1282.43,-369.563 1306.22,-359.451"/>
<polygon fill="midnightblue" stroke="midnightblue" points="1307.64,-362.65 1315.47,-355.516 1304.9,-356.208 1307.64,-362.65"/>
</g>
<!-- Node34 -->
<g id="node34" class="node"><title>Node34</title>
<polygon fill="white" stroke="#bfbfbf" points="1389.5,-336.5 1389.5,-355.5 1441.5,-355.5 1441.5,-336.5 1389.5,-336.5"/>
<text text-anchor="middle" x="1415.5" y="-343.5" font-family="Verdana" font-size="10.00">cassert</text>
</g>
<!-- Node30&#45;&gt;Node34 -->
<g id="edge62" class="edge"><title>Node30&#45;&gt;Node34</title>
<path fill="none" stroke="midnightblue" d="M1241.3,-392.444C1278.97,-382.616 1340.59,-366.543 1379.54,-356.381"/>
<polygon fill="midnightblue" stroke="midnightblue" points="1380.62,-359.718 1389.41,-353.807 1378.85,-352.944 1380.62,-359.718"/>
</g>
<!-- Node33 -->
<g id="node33" class="node"><title>Node33</title>
<polygon fill="white" stroke="#bfbfbf" points="1309.5,-280.5 1309.5,-299.5 1361.5,-299.5 1361.5,-280.5 1309.5,-280.5"/>
<text text-anchor="middle" x="1335.5" y="-287.5" font-family="Verdana" font-size="10.00">iterator</text>
</g>
<!-- Node32&#45;&gt;Node33 -->
<g id="edge61" class="edge"><title>Node32&#45;&gt;Node33</title>
<path fill="none" stroke="midnightblue" d="M1335.5,-336.083C1335.5,-329.006 1335.5,-318.861 1335.5,-309.986"/>
<polygon fill="midnightblue" stroke="midnightblue" points="1339,-309.751 1335.5,-299.751 1332,-309.751 1339,-309.751"/>
</g>
</g>
</svg>
