<?xml version="1.0" encoding="UTF-8" standalone="no"?>
<!DOCTYPE svg PUBLIC "-//W3C//DTD SVG 1.1//EN"
 "http://www.w3.org/Graphics/SVG/1.1/DTD/svg11.dtd">
<!-- Generated by graphviz version 2.38.0 (20140413.2041)
 -->
<!-- Title: parameter/FormattedSubsystemObject.cpp Pages: 1 -->
<svg width="830pt" height="431pt"
 viewBox="0.00 0.00 830.35 431.00" xmlns="http://www.w3.org/2000/svg" xmlns:xlink="http://www.w3.org/1999/xlink">
<g id="graph0" class="graph" transform="scale(1 1) rotate(0) translate(4 427)">
<title>parameter/FormattedSubsystemObject.cpp</title>
<polygon fill="white" stroke="none" points="-4,4 -4,-427 826.353,-427 826.353,4 -4,4"/>
<!-- Node1 -->
<g id="node1" class="node"><title>Node1</title>
<polygon fill="#bfbfbf" stroke="black" points="204.853,-392.5 204.853,-422.5 379.853,-422.5 379.853,-392.5 204.853,-392.5"/>
<text text-anchor="start" x="212.853" y="-410.5" font-family="Verdana" font-size="10.00">parameter/FormattedSubsystem</text>
<text text-anchor="middle" x="292.353" y="-399.5" font-family="Verdana" font-size="10.00">Object.cpp</text>
</g>
<!-- Node2 -->
<g id="node2" class="node"><title>Node2</title>
<g id="a_node2"><a xlink:href="FormattedSubsystemObject_8h.html" target="_top" xlink:title="FormattedSubsystemObject.h">
<polygon fill="white" stroke="black" points="96.8532,-280.5 96.8532,-299.5 257.853,-299.5 257.853,-280.5 96.8532,-280.5"/>
<text text-anchor="middle" x="177.353" y="-287.5" font-family="Verdana" font-size="10.00">FormattedSubsystemObject.h</text>
</a>
</g>
</g>
<!-- Node1&#45;&gt;Node2 -->
<g id="edge1" class="edge"><title>Node1&#45;&gt;Node2</title>
<path fill="none" stroke="midnightblue" d="M278.252,-392.337C256.684,-370.676 215.64,-329.453 193.117,-306.832"/>
<polygon fill="midnightblue" stroke="midnightblue" points="195.521,-304.286 185.985,-299.669 190.561,-309.225 195.521,-304.286"/>
</g>
<!-- Node7 -->
<g id="node7" class="node"><title>Node7</title>
<g id="a_node7"><a xlink:href="InstanceConfigurableElement_8h.html" target="_top" xlink:title="InstanceConfigurableElement.h">
<polygon fill="white" stroke="black" points="294.353,-336.5 294.353,-355.5 460.353,-355.5 460.353,-336.5 294.353,-336.5"/>
<text text-anchor="middle" x="377.353" y="-343.5" font-family="Verdana" font-size="10.00">InstanceConfigurableElement.h</text>
</a>
</g>
</g>
<!-- Node1&#45;&gt;Node7 -->
<g id="edge7" class="edge"><title>Node1&#45;&gt;Node7</title>
<path fill="none" stroke="midnightblue" d="M312.497,-392.399C325.74,-383.129 343.031,-371.025 356.429,-361.647"/>
<polygon fill="midnightblue" stroke="midnightblue" points="358.8,-364.26 364.985,-355.658 354.786,-358.525 358.8,-364.26"/>
</g>
<!-- Node19 -->
<g id="node19" class="node"><title>Node19</title>
<g id="a_node19"><a xlink:href="MappingContext_8h.html" target="_top" xlink:title="MappingContext.h">
<polygon fill="white" stroke="black" points="16.3532,-56.5 16.3532,-75.5 120.353,-75.5 120.353,-56.5 16.3532,-56.5"/>
<text text-anchor="middle" x="68.3532" y="-63.5" font-family="Verdana" font-size="10.00">MappingContext.h</text>
</a>
</g>
</g>
<!-- Node1&#45;&gt;Node19 -->
<g id="edge35" class="edge"><title>Node1&#45;&gt;Node19</title>
<path fill="none" stroke="midnightblue" d="M204.787,-396.43C141.961,-383.758 68.3532,-355.209 68.3532,-291 68.3532,-291 68.3532,-291 68.3532,-177 68.3532,-144.948 68.3532,-107.643 68.3532,-85.7489"/>
<polygon fill="midnightblue" stroke="midnightblue" points="71.8533,-85.5577 68.3532,-75.5578 64.8533,-85.5578 71.8533,-85.5577"/>
</g>
<!-- Node20 -->
<g id="node20" class="node"><title>Node20</title>
<polygon fill="white" stroke="#bfbfbf" points="478.353,-336.5 478.353,-355.5 534.353,-355.5 534.353,-336.5 478.353,-336.5"/>
<text text-anchor="middle" x="506.353" y="-343.5" font-family="Verdana" font-size="10.00">assert.h</text>
</g>
<!-- Node1&#45;&gt;Node20 -->
<g id="edge38" class="edge"><title>Node1&#45;&gt;Node20</title>
<path fill="none" stroke="midnightblue" d="M342.797,-392.475C381.261,-381.78 433.408,-367.281 468.385,-357.557"/>
<polygon fill="midnightblue" stroke="midnightblue" points="469.514,-360.876 478.211,-354.825 467.638,-354.131 469.514,-360.876"/>
</g>
<!-- Node3 -->
<g id="node3" class="node"><title>Node3</title>
<g id="a_node3"><a xlink:href="SubsystemObject_8h.html" target="_top" xlink:title="SubsystemObject.h">
<polygon fill="white" stroke="black" points="101.353,-112.5 101.353,-131.5 211.353,-131.5 211.353,-112.5 101.353,-112.5"/>
<text text-anchor="middle" x="156.353" y="-119.5" font-family="Verdana" font-size="10.00">SubsystemObject.h</text>
</a>
</g>
</g>
<!-- Node2&#45;&gt;Node3 -->
<g id="edge2" class="edge"><title>Node2&#45;&gt;Node3</title>
<path fill="none" stroke="midnightblue" d="M176.224,-280.075C172.919,-253.945 163.211,-177.211 158.703,-141.577"/>
<polygon fill="midnightblue" stroke="midnightblue" points="162.165,-141.05 157.437,-131.568 155.22,-141.928 162.165,-141.05"/>
</g>
<!-- Node4 -->
<g id="node4" class="node"><title>Node4</title>
<g id="a_node4"><a xlink:href="Syncer_8h.html" target="_top" xlink:title="Syncer.h">
<polygon fill="white" stroke="black" points="138.353,-56.5 138.353,-75.5 196.353,-75.5 196.353,-56.5 138.353,-56.5"/>
<text text-anchor="middle" x="167.353" y="-63.5" font-family="Verdana" font-size="10.00">Syncer.h</text>
</a>
</g>
</g>
<!-- Node3&#45;&gt;Node4 -->
<g id="edge3" class="edge"><title>Node3&#45;&gt;Node4</title>
<path fill="none" stroke="midnightblue" d="M158.17,-112.083C159.627,-104.927 161.724,-94.6353 163.546,-85.6911"/>
<polygon fill="midnightblue" stroke="midnightblue" points="167.004,-86.2485 165.571,-75.7511 160.145,-84.8512 167.004,-86.2485"/>
</g>
<!-- Node5 -->
<g id="node5" class="node"><title>Node5</title>
<polygon fill="white" stroke="#bfbfbf" points="514.353,-0.5 514.353,-19.5 558.353,-19.5 558.353,-0.5 514.353,-0.5"/>
<text text-anchor="middle" x="536.353" y="-7.5" font-family="Verdana" font-size="10.00">string</text>
</g>
<!-- Node3&#45;&gt;Node5 -->
<g id="edge6" class="edge"><title>Node3&#45;&gt;Node5</title>
<path fill="none" stroke="midnightblue" d="M169.616,-112.357C191.805,-98.307 238.27,-70.6175 281.353,-56 358.891,-29.6928 455.175,-18.0407 504.282,-13.5067"/>
<polygon fill="midnightblue" stroke="midnightblue" points="504.651,-16.9879 514.304,-12.6207 504.034,-10.0151 504.651,-16.9879"/>
</g>
<!-- Node6 -->
<g id="node6" class="node"><title>Node6</title>
<polygon fill="white" stroke="#bfbfbf" points="197.853,-0.5 197.853,-19.5 250.853,-19.5 250.853,-0.5 197.853,-0.5"/>
<text text-anchor="middle" x="224.353" y="-7.5" font-family="Verdana" font-size="10.00">stdint.h</text>
</g>
<!-- Node3&#45;&gt;Node6 -->
<g id="edge5" class="edge"><title>Node3&#45;&gt;Node6</title>
<path fill="none" stroke="midnightblue" d="M101.134,-115.758C47.5031,-108.477 -21.8639,-91.8975 7.35322,-56 29.6567,-28.5969 131.65,-17.3516 187.509,-13.1845"/>
<polygon fill="midnightblue" stroke="midnightblue" points="187.972,-16.6606 197.701,-12.4646 187.479,-9.678 187.972,-16.6606"/>
</g>
<!-- Node4&#45;&gt;Node5 -->
<g id="edge4" class="edge"><title>Node4&#45;&gt;Node5</title>
<path fill="none" stroke="midnightblue" d="M196.616,-60.7176C264.715,-50.752 433.377,-26.0697 504.213,-15.7034"/>
<polygon fill="midnightblue" stroke="midnightblue" points="504.934,-19.1352 514.322,-14.224 503.921,-12.209 504.934,-19.1352"/>
</g>
<!-- Node7&#45;&gt;Node5 -->
<g id="edge34" class="edge"><title>Node7&#45;&gt;Node5</title>
<path fill="none" stroke="midnightblue" d="M436.906,-336.48C558.165,-318.317 822.353,-274.244 822.353,-235 822.353,-235 822.353,-235 822.353,-121 822.353,-82.5768 798.651,-75.1736 765.353,-56 702.321,-19.7044 615.083,-12.1844 568.582,-10.9308"/>
<polygon fill="midnightblue" stroke="midnightblue" points="568.552,-7.42968 558.488,-10.7412 568.42,-14.4284 568.552,-7.42968"/>
</g>
<!-- Node8 -->
<g id="node8" class="node"><title>Node8</title>
<g id="a_node8"><a xlink:href="ConfigurableElementWithMapping_8h.html" target="_top" xlink:title="ConfigurableElementWithMapping.h">
<polygon fill="white" stroke="black" points="314.353,-280.5 314.353,-299.5 500.353,-299.5 500.353,-280.5 314.353,-280.5"/>
<text text-anchor="middle" x="407.353" y="-287.5" font-family="Verdana" font-size="10.00">ConfigurableElementWithMapping.h</text>
</a>
</g>
</g>
<!-- Node7&#45;&gt;Node8 -->
<g id="edge8" class="edge"><title>Node7&#45;&gt;Node8</title>
<path fill="none" stroke="midnightblue" d="M382.307,-336.083C386.457,-328.613 392.506,-317.724 397.62,-308.52"/>
<polygon fill="midnightblue" stroke="midnightblue" points="400.695,-310.192 402.492,-299.751 394.575,-306.793 400.695,-310.192"/>
</g>
<!-- Node12 -->
<g id="node12" class="node"><title>Node12</title>
<polygon fill="white" stroke="#bfbfbf" points="229.353,-112.5 229.353,-131.5 259.353,-131.5 259.353,-112.5 229.353,-112.5"/>
<text text-anchor="middle" x="244.353" y="-119.5" font-family="Verdana" font-size="10.00">list</text>
</g>
<!-- Node7&#45;&gt;Node12 -->
<g id="edge33" class="edge"><title>Node7&#45;&gt;Node12</title>
<path fill="none" stroke="midnightblue" d="M355.988,-336.39C339.992,-328.941 318.66,-316.726 305.353,-300 266.629,-251.325 251.713,-176.515 246.649,-141.842"/>
<polygon fill="midnightblue" stroke="midnightblue" points="250.09,-141.163 245.29,-131.718 243.152,-142.095 250.09,-141.163"/>
</g>
<!-- Node18 -->
<g id="node18" class="node"><title>Node18</title>
<g id="a_node18"><a xlink:href="TypeElement_8h.html" target="_top" xlink:title="TypeElement.h">
<polygon fill="white" stroke="black" points="708.353,-224.5 708.353,-243.5 794.353,-243.5 794.353,-224.5 708.353,-224.5"/>
<text text-anchor="middle" x="751.353" y="-231.5" font-family="Verdana" font-size="10.00">TypeElement.h</text>
</a>
</g>
</g>
<!-- Node7&#45;&gt;Node18 -->
<g id="edge30" class="edge"><title>Node7&#45;&gt;Node18</title>
<path fill="none" stroke="midnightblue" d="M406.389,-336.46C473.021,-316.862 636.952,-268.647 712.31,-246.483"/>
<polygon fill="midnightblue" stroke="midnightblue" points="713.73,-249.714 722.336,-243.535 711.755,-242.998 713.73,-249.714"/>
</g>
<!-- Node8&#45;&gt;Node5 -->
<g id="edge29" class="edge"><title>Node8&#45;&gt;Node5</title>
<path fill="none" stroke="midnightblue" d="M436.055,-280.416C501.477,-258.903 658.326,-195.64 688.353,-76 690.517,-67.3785 693.672,-63.1219 688.353,-56 660.893,-19.2314 604.715,-11.27 568.883,-10.1877"/>
<polygon fill="midnightblue" stroke="midnightblue" points="568.516,-6.68262 558.47,-10.0485 568.422,-13.682 568.516,-6.68262"/>
</g>
<!-- Node9 -->
<g id="node9" class="node"><title>Node9</title>
<g id="a_node9"><a xlink:href="ConfigurableElement_8h.html" target="_top" xlink:title="ConfigurableElement.h">
<polygon fill="white" stroke="black" points="337.853,-224.5 337.853,-243.5 462.853,-243.5 462.853,-224.5 337.853,-224.5"/>
<text text-anchor="middle" x="400.353" y="-231.5" font-family="Verdana" font-size="10.00">ConfigurableElement.h</text>
</a>
</g>
</g>
<!-- Node8&#45;&gt;Node9 -->
<g id="edge9" class="edge"><title>Node8&#45;&gt;Node9</title>
<path fill="none" stroke="midnightblue" d="M406.197,-280.083C405.27,-272.927 403.936,-262.635 402.776,-253.691"/>
<polygon fill="midnightblue" stroke="midnightblue" points="406.244,-253.218 401.488,-243.751 399.302,-254.118 406.244,-253.218"/>
</g>
<!-- Node10 -->
<g id="node10" class="node"><title>Node10</title>
<g id="a_node10"><a xlink:href="Element_8h.html" target="_top" xlink:title="Element.h">
<polygon fill="white" stroke="black" points="367.853,-168.5 367.853,-187.5 432.853,-187.5 432.853,-168.5 367.853,-168.5"/>
<text text-anchor="middle" x="400.353" y="-175.5" font-family="Verdana" font-size="10.00">Element.h</text>
</a>
</g>
</g>
<!-- Node9&#45;&gt;Node10 -->
<g id="edge10" class="edge"><title>Node9&#45;&gt;Node10</title>
<path fill="none" stroke="midnightblue" d="M400.353,-224.083C400.353,-217.006 400.353,-206.861 400.353,-197.986"/>
<polygon fill="midnightblue" stroke="midnightblue" points="403.853,-197.751 400.353,-187.751 396.853,-197.751 403.853,-197.751"/>
</g>
<!-- Node9&#45;&gt;Node12 -->
<g id="edge28" class="edge"><title>Node9&#45;&gt;Node12</title>
<path fill="none" stroke="midnightblue" d="M388.112,-224.368C361.456,-205.573 297.916,-160.768 264.964,-137.533"/>
<polygon fill="midnightblue" stroke="midnightblue" points="266.727,-134.494 256.537,-131.591 262.693,-140.215 266.727,-134.494"/>
</g>
<!-- Node10&#45;&gt;Node5 -->
<g id="edge11" class="edge"><title>Node10&#45;&gt;Node5</title>
<path fill="none" stroke="midnightblue" d="M432.866,-177.783C480.15,-177.437 569.036,-171.056 631.353,-132 657.715,-115.478 663.515,-105.515 673.353,-76 688.421,-30.7976 613.705,-17.0212 568.627,-12.8288"/>
<polygon fill="midnightblue" stroke="midnightblue" points="568.67,-9.3208 558.418,-11.9941 568.1,-16.2975 568.67,-9.3208"/>
</g>
<!-- Node10&#45;&gt;Node6 -->
<g id="edge13" class="edge"><title>Node10&#45;&gt;Node6</title>
<path fill="none" stroke="midnightblue" d="M383.668,-168.466C368.423,-160.244 345.685,-146.888 328.353,-132 290.531,-99.5099 254.479,-52.8869 236.408,-28.069"/>
<polygon fill="midnightblue" stroke="midnightblue" points="239.073,-25.7797 230.396,-19.6999 233.387,-29.8637 239.073,-25.7797"/>
</g>
<!-- Node11 -->
<g id="node11" class="node"><title>Node11</title>
<polygon fill="white" stroke="#bfbfbf" points="290.853,-56.5 290.853,-75.5 337.853,-75.5 337.853,-56.5 290.853,-56.5"/>
<text text-anchor="middle" x="314.353" y="-63.5" font-family="Verdana" font-size="10.00">vector</text>
</g>
<!-- Node10&#45;&gt;Node11 -->
<g id="edge12" class="edge"><title>Node10&#45;&gt;Node11</title>
<path fill="none" stroke="midnightblue" d="M386.398,-168.47C374.041,-160.346 356.177,-147.136 344.353,-132 333.366,-117.934 325.265,-99.1945 320.27,-85.4512"/>
<polygon fill="midnightblue" stroke="midnightblue" points="323.478,-84.0169 316.934,-75.6852 316.854,-86.2798 323.478,-84.0169"/>
</g>
<!-- Node10&#45;&gt;Node12 -->
<g id="edge14" class="edge"><title>Node10&#45;&gt;Node12</title>
<path fill="none" stroke="midnightblue" d="M375.635,-168.444C346.431,-158.334 298.139,-141.618 268.976,-131.523"/>
<polygon fill="midnightblue" stroke="midnightblue" points="270.117,-128.214 259.522,-128.251 267.827,-134.829 270.117,-128.214"/>
</g>
<!-- Node13 -->
<g id="node13" class="node"><title>Node13</title>
<g id="a_node13"><a xlink:href="XmlSink_8h.html" target="_top" xlink:title="XmlSink.h">
<polygon fill="white" stroke="black" points="463.353,-112.5 463.353,-131.5 527.353,-131.5 527.353,-112.5 463.353,-112.5"/>
<text text-anchor="middle" x="495.353" y="-119.5" font-family="Verdana" font-size="10.00">XmlSink.h</text>
</a>
</g>
</g>
<!-- Node10&#45;&gt;Node13 -->
<g id="edge15" class="edge"><title>Node10&#45;&gt;Node13</title>
<path fill="none" stroke="midnightblue" d="M415.617,-168.324C430.575,-159.822 453.608,-146.729 471.08,-136.797"/>
<polygon fill="midnightblue" stroke="midnightblue" points="473.164,-139.639 480.128,-131.655 469.704,-133.553 473.164,-139.639"/>
</g>
<!-- Node16 -->
<g id="node16" class="node"><title>Node16</title>
<g id="a_node16"><a xlink:href="XmlSource_8h.html" target="_top" xlink:title="XmlSource.h">
<polygon fill="white" stroke="black" points="545.853,-112.5 545.853,-131.5 622.853,-131.5 622.853,-112.5 545.853,-112.5"/>
<text text-anchor="middle" x="584.353" y="-119.5" font-family="Verdana" font-size="10.00">XmlSource.h</text>
</a>
</g>
</g>
<!-- Node10&#45;&gt;Node16 -->
<g id="edge21" class="edge"><title>Node10&#45;&gt;Node16</title>
<path fill="none" stroke="midnightblue" d="M429.509,-168.444C460.867,-159.241 510.884,-144.562 545.55,-134.388"/>
<polygon fill="midnightblue" stroke="midnightblue" points="546.725,-137.691 555.334,-131.516 544.753,-130.974 546.725,-137.691"/>
</g>
<!-- Node17 -->
<g id="node17" class="node"><title>Node17</title>
<g id="a_node17"><a xlink:href="PathNavigator_8h.html" target="_top" xlink:title="PathNavigator.h">
<polygon fill="white" stroke="black" points="353.353,-112.5 353.353,-131.5 445.353,-131.5 445.353,-112.5 353.353,-112.5"/>
<text text-anchor="middle" x="399.353" y="-119.5" font-family="Verdana" font-size="10.00">PathNavigator.h</text>
</a>
</g>
</g>
<!-- Node10&#45;&gt;Node17 -->
<g id="edge24" class="edge"><title>Node10&#45;&gt;Node17</title>
<path fill="none" stroke="midnightblue" d="M400.188,-168.083C400.057,-161.006 399.869,-150.861 399.705,-141.986"/>
<polygon fill="midnightblue" stroke="midnightblue" points="403.2,-141.685 399.515,-131.751 396.201,-141.814 403.2,-141.685"/>
</g>
<!-- Node14 -->
<g id="node14" class="node"><title>Node14</title>
<g id="a_node14"><a xlink:href="XmlElement_8h.html" target="_top" xlink:title="XmlElement.h">
<polygon fill="white" stroke="black" points="432.853,-56.5 432.853,-75.5 515.853,-75.5 515.853,-56.5 432.853,-56.5"/>
<text text-anchor="middle" x="474.353" y="-63.5" font-family="Verdana" font-size="10.00">XmlElement.h</text>
</a>
</g>
</g>
<!-- Node13&#45;&gt;Node14 -->
<g id="edge16" class="edge"><title>Node13&#45;&gt;Node14</title>
<path fill="none" stroke="midnightblue" d="M491.885,-112.083C489.042,-104.77 484.924,-94.1814 481.393,-85.1034"/>
<polygon fill="midnightblue" stroke="midnightblue" points="484.643,-83.8025 477.756,-75.7511 478.119,-86.3397 484.643,-83.8025"/>
</g>
<!-- Node15 -->
<g id="node15" class="node"><title>Node15</title>
<g id="a_node15"><a xlink:href="XmlSerializingContext_8h.html" target="_top" xlink:title="XmlSerializingContext.h">
<polygon fill="white" stroke="black" points="534.353,-56.5 534.353,-75.5 664.353,-75.5 664.353,-56.5 534.353,-56.5"/>
<text text-anchor="middle" x="599.353" y="-63.5" font-family="Verdana" font-size="10.00">XmlSerializingContext.h</text>
</a>
</g>
</g>
<!-- Node13&#45;&gt;Node15 -->
<g id="edge19" class="edge"><title>Node13&#45;&gt;Node15</title>
<path fill="none" stroke="midnightblue" d="M512.063,-112.324C528.665,-103.703 554.355,-90.3643 573.574,-80.3855"/>
<polygon fill="midnightblue" stroke="midnightblue" points="575.423,-83.3689 582.685,-75.6545 572.197,-77.1565 575.423,-83.3689"/>
</g>
<!-- Node14&#45;&gt;Node5 -->
<g id="edge18" class="edge"><title>Node14&#45;&gt;Node5</title>
<path fill="none" stroke="midnightblue" d="M484.315,-56.324C493.48,-48.3414 507.29,-36.3128 518.381,-26.6529"/>
<polygon fill="midnightblue" stroke="midnightblue" points="520.969,-29.041 526.211,-19.8339 516.371,-23.7624 520.969,-29.041"/>
</g>
<!-- Node14&#45;&gt;Node6 -->
<g id="edge17" class="edge"><title>Node14&#45;&gt;Node6</title>
<path fill="none" stroke="midnightblue" d="M434.74,-56.4435C386.995,-46.1307 307.415,-28.9414 261.025,-18.9212"/>
<polygon fill="midnightblue" stroke="midnightblue" points="261.611,-15.467 251.097,-16.7767 260.133,-22.3092 261.611,-15.467"/>
</g>
<!-- Node15&#45;&gt;Node5 -->
<g id="edge20" class="edge"><title>Node15&#45;&gt;Node5</title>
<path fill="none" stroke="midnightblue" d="M589.231,-56.324C579.827,-48.2631 565.609,-36.0765 554.284,-26.3695"/>
<polygon fill="midnightblue" stroke="midnightblue" points="556.53,-23.6844 546.659,-19.8339 551.974,-28.9993 556.53,-23.6844"/>
</g>
<!-- Node16&#45;&gt;Node14 -->
<g id="edge22" class="edge"><title>Node16&#45;&gt;Node14</title>
<path fill="none" stroke="midnightblue" d="M566.68,-112.324C548.959,-103.625 521.45,-90.1202 501.065,-80.113"/>
<polygon fill="midnightblue" stroke="midnightblue" points="502.502,-76.9195 491.983,-75.6545 499.417,-83.2031 502.502,-76.9195"/>
</g>
<!-- Node16&#45;&gt;Node15 -->
<g id="edge23" class="edge"><title>Node16&#45;&gt;Node15</title>
<path fill="none" stroke="midnightblue" d="M586.83,-112.083C588.84,-104.849 591.74,-94.4087 594.243,-85.3968"/>
<polygon fill="midnightblue" stroke="midnightblue" points="597.618,-86.323 596.922,-75.7511 590.874,-84.4495 597.618,-86.323"/>
</g>
<!-- Node17&#45;&gt;Node5 -->
<g id="edge26" class="edge"><title>Node17&#45;&gt;Node5</title>
<path fill="none" stroke="midnightblue" d="M400.314,-112.228C402.263,-98.4934 407.901,-71.8477 423.353,-56 445.12,-33.6757 479.37,-22.1335 504.462,-16.3622"/>
<polygon fill="midnightblue" stroke="midnightblue" points="505.195,-19.7847 514.255,-14.2923 503.747,-12.936 505.195,-19.7847"/>
</g>
<!-- Node17&#45;&gt;Node6 -->
<g id="edge27" class="edge"><title>Node17&#45;&gt;Node6</title>
<path fill="none" stroke="midnightblue" d="M394.309,-112.162C385.998,-98.3361 368.157,-71.568 346.353,-56 320.564,-37.5864 286.377,-25.8365 260.755,-18.9788"/>
<polygon fill="midnightblue" stroke="midnightblue" points="261.599,-15.582 251.044,-16.5023 259.869,-22.3649 261.599,-15.582"/>
</g>
<!-- Node17&#45;&gt;Node11 -->
<g id="edge25" class="edge"><title>Node17&#45;&gt;Node11</title>
<path fill="none" stroke="midnightblue" d="M385.697,-112.324C372.437,-103.9 352.085,-90.9709 336.507,-81.0741"/>
<polygon fill="midnightblue" stroke="midnightblue" points="338.294,-78.0626 327.976,-75.6545 334.54,-83.9711 338.294,-78.0626"/>
</g>
<!-- Node18&#45;&gt;Node5 -->
<g id="edge32" class="edge"><title>Node18&#45;&gt;Node5</title>
<path fill="none" stroke="midnightblue" d="M754.268,-224.34C763.134,-196.222 786.681,-106.394 744.353,-56 722.122,-29.5326 621.273,-17.7156 568.605,-13.2723"/>
<polygon fill="midnightblue" stroke="midnightblue" points="568.695,-9.76839 558.447,-12.4566 568.135,-16.7459 568.695,-9.76839"/>
</g>
<!-- Node18&#45;&gt;Node10 -->
<g id="edge31" class="edge"><title>Node18&#45;&gt;Node10</title>
<path fill="none" stroke="midnightblue" d="M708.314,-226.379C640.893,-216.006 511.118,-196.041 443.581,-185.65"/>
<polygon fill="midnightblue" stroke="midnightblue" points="443.711,-182.129 433.296,-184.068 442.647,-189.048 443.711,-182.129"/>
</g>
<!-- Node19&#45;&gt;Node5 -->
<g id="edge37" class="edge"><title>Node19&#45;&gt;Node5</title>
<path fill="none" stroke="midnightblue" d="M120.579,-57.167C123.546,-56.7617 126.487,-56.3698 129.353,-56 268.558,-38.0412 435.131,-21.017 504.056,-14.1679"/>
<polygon fill="midnightblue" stroke="midnightblue" points="504.654,-17.6258 514.26,-13.1574 503.964,-10.6599 504.654,-17.6258"/>
</g>
<!-- Node19&#45;&gt;Node6 -->
<g id="edge36" class="edge"><title>Node19&#45;&gt;Node6</title>
<path fill="none" stroke="midnightblue" d="M93.0719,-56.4435C119.202,-47.3986 160.613,-33.064 189.93,-22.9158"/>
<polygon fill="midnightblue" stroke="midnightblue" points="191.445,-26.0951 199.75,-19.5164 189.155,-19.4801 191.445,-26.0951"/>
</g>
</g>
</svg>
