<?xml version="1.0" encoding="UTF-8" standalone="no"?>
<!DOCTYPE svg PUBLIC "-//W3C//DTD SVG 1.1//EN"
 "http://www.w3.org/Graphics/SVG/1.1/DTD/svg11.dtd">
<!-- Generated by graphviz version 2.38.0 (20140413.2041)
 -->
<!-- Title: parameter/FormattedSubsystemObject.cpp Pages: 1 -->
<svg width="1356pt" height="431pt"
 viewBox="0.00 0.00 1356.00 431.00" xmlns="http://www.w3.org/2000/svg" xmlns:xlink="http://www.w3.org/1999/xlink">
<g id="graph0" class="graph" transform="scale(1 1) rotate(0) translate(4 427)">
<title>parameter/FormattedSubsystemObject.cpp</title>
<polygon fill="white" stroke="none" points="-4,4 -4,-427 1352,-427 1352,4 -4,4"/>
<!-- Node1 -->
<g id="node1" class="node"><title>Node1</title>
<polygon fill="#bfbfbf" stroke="black" points="604.5,-392.5 604.5,-422.5 779.5,-422.5 779.5,-392.5 604.5,-392.5"/>
<text text-anchor="start" x="612.5" y="-410.5" font-family="Verdana" font-size="10.00">parameter/FormattedSubsystem</text>
<text text-anchor="middle" x="692" y="-399.5" font-family="Verdana" font-size="10.00">Object.cpp</text>
</g>
<!-- Node2 -->
<g id="node2" class="node"><title>Node2</title>
<g id="a_node2"><a xlink:href="FormattedSubsystemObject_8h.html" target="_top" xlink:title="FormattedSubsystemObject.h">
<polygon fill="white" stroke="black" points="780.5,-280.5 780.5,-299.5 941.5,-299.5 941.5,-280.5 780.5,-280.5"/>
<text text-anchor="middle" x="861" y="-287.5" font-family="Verdana" font-size="10.00">FormattedSubsystemObject.h</text>
</a>
</g>
</g>
<!-- Node1&#45;&gt;Node2 -->
<g id="edge1" class="edge"><title>Node1&#45;&gt;Node2</title>
<path fill="none" stroke="midnightblue" d="M696.165,-392.309C701.519,-376.448 712.295,-351.024 730,-336 749.493,-319.459 775.388,-308.896 799.006,-302.198"/>
<polygon fill="midnightblue" stroke="midnightblue" points="800.194,-305.504 808.964,-299.558 798.4,-298.737 800.194,-305.504"/>
</g>
<!-- Node18 -->
<g id="node18" class="node"><title>Node18</title>
<g id="a_node18"><a xlink:href="InstanceConfigurableElement_8h.html" target="_top" xlink:title="InstanceConfigurableElement.h">
<polygon fill="white" stroke="black" points="479,-336.5 479,-355.5 645,-355.5 645,-336.5 479,-336.5"/>
<text text-anchor="middle" x="562" y="-343.5" font-family="Verdana" font-size="10.00">InstanceConfigurableElement.h</text>
</a>
</g>
</g>
<!-- Node1&#45;&gt;Node18 -->
<g id="edge25" class="edge"><title>Node1&#45;&gt;Node18</title>
<path fill="none" stroke="midnightblue" d="M661.192,-392.399C639.672,-382.55 611.163,-369.501 590.232,-359.922"/>
<polygon fill="midnightblue" stroke="midnightblue" points="591.466,-356.637 580.916,-355.658 588.552,-363.002 591.466,-356.637"/>
</g>
<!-- Node29 -->
<g id="node29" class="node"><title>Node29</title>
<g id="a_node29"><a xlink:href="MappingContext_8h.html" target="_top" xlink:title="MappingContext.h">
<polygon fill="white" stroke="black" points="595,-224.5 595,-243.5 699,-243.5 699,-224.5 595,-224.5"/>
<text text-anchor="middle" x="647" y="-231.5" font-family="Verdana" font-size="10.00">MappingContext.h</text>
</a>
</g>
</g>
<!-- Node1&#45;&gt;Node29 -->
<g id="edge58" class="edge"><title>Node1&#45;&gt;Node29</title>
<path fill="none" stroke="midnightblue" d="M688.317,-392.465C680.211,-361.57 660.825,-287.69 651.789,-253.251"/>
<polygon fill="midnightblue" stroke="midnightblue" points="655.169,-252.344 649.246,-243.56 648.399,-254.121 655.169,-252.344"/>
</g>
<!-- Node30 -->
<g id="node30" class="node"><title>Node30</title>
<polygon fill="white" stroke="#bfbfbf" points="739,-336.5 739,-355.5 795,-355.5 795,-336.5 739,-336.5"/>
<text text-anchor="middle" x="767" y="-343.5" font-family="Verdana" font-size="10.00">assert.h</text>
</g>
<!-- Node1&#45;&gt;Node30 -->
<g id="edge63" class="edge"><title>Node1&#45;&gt;Node30</title>
<path fill="none" stroke="midnightblue" d="M709.774,-392.399C721.346,-383.218 736.423,-371.258 748.196,-361.918"/>
<polygon fill="midnightblue" stroke="midnightblue" points="750.428,-364.615 756.087,-355.658 746.077,-359.131 750.428,-364.615"/>
</g>
<!-- Node3 -->
<g id="node3" class="node"><title>Node3</title>
<polygon fill="white" stroke="#bfbfbf" points="471.5,-168.5 471.5,-187.5 584.5,-187.5 584.5,-168.5 471.5,-168.5"/>
<text text-anchor="middle" x="528" y="-175.5" font-family="Verdana" font-size="10.00">parameter_export.h</text>
</g>
<!-- Node2&#45;&gt;Node3 -->
<g id="edge2" class="edge"><title>Node2&#45;&gt;Node3</title>
<path fill="none" stroke="midnightblue" d="M780.369,-281.801C711.535,-274.574 618.651,-261.932 586,-244 565.581,-232.786 548.736,-211.535 538.557,-196.385"/>
<polygon fill="midnightblue" stroke="midnightblue" points="541.451,-194.414 533.107,-187.885 535.558,-198.192 541.451,-194.414"/>
</g>
<!-- Node4 -->
<g id="node4" class="node"><title>Node4</title>
<g id="a_node4"><a xlink:href="SubsystemObject_8h.html" target="_top" xlink:title="SubsystemObject.h">
<polygon fill="white" stroke="black" points="800,-224.5 800,-243.5 910,-243.5 910,-224.5 800,-224.5"/>
<text text-anchor="middle" x="855" y="-231.5" font-family="Verdana" font-size="10.00">SubsystemObject.h</text>
</a>
</g>
</g>
<!-- Node2&#45;&gt;Node4 -->
<g id="edge3" class="edge"><title>Node2&#45;&gt;Node4</title>
<path fill="none" stroke="midnightblue" d="M860.009,-280.083C859.214,-272.927 858.071,-262.635 857.077,-253.691"/>
<polygon fill="midnightblue" stroke="midnightblue" points="860.555,-253.303 855.972,-243.751 853.598,-254.076 860.555,-253.303"/>
</g>
<!-- Node4&#45;&gt;Node3 -->
<g id="edge4" class="edge"><title>Node4&#45;&gt;Node3</title>
<path fill="none" stroke="midnightblue" d="M803.186,-224.444C745.185,-214.865 651.264,-199.356 589.565,-189.167"/>
<polygon fill="midnightblue" stroke="midnightblue" points="590.008,-185.693 579.572,-187.516 588.868,-192.599 590.008,-185.693"/>
</g>
<!-- Node5 -->
<g id="node5" class="node"><title>Node5</title>
<g id="a_node5"><a xlink:href="Syncer_8h.html" target="_top" xlink:title="Syncer.h">
<polygon fill="white" stroke="black" points="869,-112.5 869,-131.5 927,-131.5 927,-112.5 869,-112.5"/>
<text text-anchor="middle" x="898" y="-119.5" font-family="Verdana" font-size="10.00">Syncer.h</text>
</a>
</g>
</g>
<!-- Node4&#45;&gt;Node5 -->
<g id="edge5" class="edge"><title>Node4&#45;&gt;Node5</title>
<path fill="none" stroke="midnightblue" d="M858.374,-224.368C865.376,-206.456 881.612,-164.923 890.984,-140.948"/>
<polygon fill="midnightblue" stroke="midnightblue" points="894.26,-142.179 894.642,-131.591 887.741,-139.631 894.26,-142.179"/>
</g>
<!-- Node6 -->
<g id="node6" class="node"><title>Node6</title>
<polygon fill="white" stroke="#bfbfbf" points="692,-0.5 692,-19.5 736,-19.5 736,-0.5 692,-0.5"/>
<text text-anchor="middle" x="714" y="-7.5" font-family="Verdana" font-size="10.00">string</text>
</g>
<!-- Node4&#45;&gt;Node6 -->
<g id="edge24" class="edge"><title>Node4&#45;&gt;Node6</title>
<path fill="none" stroke="midnightblue" d="M854.854,-224.129C853.939,-196.125 847.56,-108.367 804,-56 789.064,-38.0443 765.182,-26.5699 745.771,-19.7043"/>
<polygon fill="midnightblue" stroke="midnightblue" points="746.693,-16.3229 736.1,-16.5242 744.506,-22.9727 746.693,-16.3229"/>
</g>
<!-- Node7 -->
<g id="node7" class="node"><title>Node7</title>
<g id="a_node7"><a xlink:href="Logger_8h.html" target="_top" xlink:title="log/Logger.h">
<polygon fill="white" stroke="black" points="914.5,-168.5 914.5,-187.5 989.5,-187.5 989.5,-168.5 914.5,-168.5"/>
<text text-anchor="middle" x="952" y="-175.5" font-family="Verdana" font-size="10.00">log/Logger.h</text>
</a>
</g>
</g>
<!-- Node4&#45;&gt;Node7 -->
<g id="edge7" class="edge"><title>Node4&#45;&gt;Node7</title>
<path fill="none" stroke="midnightblue" d="M870.585,-224.324C885.999,-215.743 909.812,-202.486 927.71,-192.522"/>
<polygon fill="midnightblue" stroke="midnightblue" points="929.419,-195.577 936.454,-187.655 926.014,-189.461 929.419,-195.577"/>
</g>
<!-- Node17 -->
<g id="node17" class="node"><title>Node17</title>
<polygon fill="white" stroke="#bfbfbf" points="378.5,-56.5 378.5,-75.5 431.5,-75.5 431.5,-56.5 378.5,-56.5"/>
<text text-anchor="middle" x="405" y="-63.5" font-family="Verdana" font-size="10.00">stdint.h</text>
</g>
<!-- Node4&#45;&gt;Node17 -->
<g id="edge23" class="edge"><title>Node4&#45;&gt;Node17</title>
<path fill="none" stroke="midnightblue" d="M837.393,-224.484C793.308,-203.386 674.299,-147.815 571,-112 527.152,-96.7974 475.36,-83.4678 441.431,-75.3404"/>
<polygon fill="midnightblue" stroke="midnightblue" points="442.041,-71.8881 431.504,-72.9888 440.428,-78.6996 442.041,-71.8881"/>
</g>
<!-- Node5&#45;&gt;Node6 -->
<g id="edge6" class="edge"><title>Node5&#45;&gt;Node6</title>
<path fill="none" stroke="midnightblue" d="M892.575,-112.134C883.663,-98.2693 864.638,-71.4493 842,-56 812.671,-35.9842 773.501,-23.9377 746.248,-17.4153"/>
<polygon fill="midnightblue" stroke="midnightblue" points="746.96,-13.9878 736.432,-15.1809 745.406,-20.8132 746.96,-13.9878"/>
</g>
<!-- Node8 -->
<g id="node8" class="node"><title>Node8</title>
<g id="a_node8"><a xlink:href="ILogger_8h.html" target="_top" xlink:title="log/ILogger.h">
<polygon fill="white" stroke="black" points="894.5,-56.5 894.5,-75.5 971.5,-75.5 971.5,-56.5 894.5,-56.5"/>
<text text-anchor="middle" x="933" y="-63.5" font-family="Verdana" font-size="10.00">log/ILogger.h</text>
</a>
</g>
</g>
<!-- Node7&#45;&gt;Node8 -->
<g id="edge8" class="edge"><title>Node7&#45;&gt;Node8</title>
<path fill="none" stroke="midnightblue" d="M950.509,-168.368C947.443,-150.617 940.37,-109.666 936.212,-85.5974"/>
<polygon fill="midnightblue" stroke="midnightblue" points="939.635,-84.8498 934.484,-75.5914 932.737,-86.0413 939.635,-84.8498"/>
</g>
<!-- Node9 -->
<g id="node9" class="node"><title>Node9</title>
<g id="a_node9"><a xlink:href="LogWrapper_8h.html" target="_top" xlink:title="log/LogWrapper.h">
<polygon fill="white" stroke="black" points="1058,-112.5 1058,-131.5 1156,-131.5 1156,-112.5 1058,-112.5"/>
<text text-anchor="middle" x="1107" y="-119.5" font-family="Verdana" font-size="10.00">log/LogWrapper.h</text>
</a>
</g>
</g>
<!-- Node7&#45;&gt;Node9 -->
<g id="edge10" class="edge"><title>Node7&#45;&gt;Node9</title>
<path fill="none" stroke="midnightblue" d="M976.56,-168.444C1002.52,-159.399 1043.67,-145.064 1072.8,-134.916"/>
<polygon fill="midnightblue" stroke="midnightblue" points="1074.26,-138.112 1082.55,-131.516 1071.96,-131.501 1074.26,-138.112"/>
</g>
<!-- Node16 -->
<g id="node16" class="node"><title>Node16</title>
<g id="a_node16"><a xlink:href="NonCopyable_8hpp.html" target="_top" xlink:title="NonCopyable.hpp">
<polygon fill="white" stroke="black" points="233.5,-0.5 233.5,-19.5 334.5,-19.5 334.5,-0.5 233.5,-0.5"/>
<text text-anchor="middle" x="284" y="-7.5" font-family="Verdana" font-size="10.00">NonCopyable.hpp</text>
</a>
</g>
</g>
<!-- Node7&#45;&gt;Node16 -->
<g id="edge22" class="edge"><title>Node7&#45;&gt;Node16</title>
<path fill="none" stroke="midnightblue" d="M917.492,-168.425C805.623,-140.625 453.026,-53.0034 328.272,-22.0018"/>
<polygon fill="midnightblue" stroke="midnightblue" points="328.851,-18.5391 318.302,-19.5241 327.162,-25.3325 328.851,-18.5391"/>
</g>
<!-- Node8&#45;&gt;Node6 -->
<g id="edge9" class="edge"><title>Node8&#45;&gt;Node6</title>
<path fill="none" stroke="midnightblue" d="M898.299,-56.4435C856.47,-46.1296 786.748,-28.9378 746.112,-18.9179"/>
<polygon fill="midnightblue" stroke="midnightblue" points="746.746,-15.4695 736.199,-16.4736 745.07,-22.266 746.746,-15.4695"/>
</g>
<!-- Node9&#45;&gt;Node6 -->
<g id="edge18" class="edge"><title>Node9&#45;&gt;Node6</title>
<path fill="none" stroke="midnightblue" d="M1093.51,-112.332C1070.96,-98.246 1023.73,-70.5059 980,-56 898.448,-28.9456 797.18,-17.5573 746.332,-13.2754"/>
<polygon fill="midnightblue" stroke="midnightblue" points="746.52,-9.77931 736.272,-12.4664 745.959,-16.7568 746.52,-9.77931"/>
</g>
<!-- Node9&#45;&gt;Node8 -->
<g id="edge11" class="edge"><title>Node9&#45;&gt;Node8</title>
<path fill="none" stroke="midnightblue" d="M1079.43,-112.444C1049.9,-103.28 1002.88,-88.6876 970.117,-78.5192"/>
<polygon fill="midnightblue" stroke="midnightblue" points="971.03,-75.1378 960.442,-75.5164 968.955,-81.8232 971.03,-75.1378"/>
</g>
<!-- Node10 -->
<g id="node10" class="node"><title>Node10</title>
<g id="a_node10"><a xlink:href="Utility_8h.html" target="_top" xlink:title="Utility.h">
<polygon fill="white" stroke="black" points="1212.5,-56.5 1212.5,-75.5 1263.5,-75.5 1263.5,-56.5 1212.5,-56.5"/>
<text text-anchor="middle" x="1238" y="-63.5" font-family="Verdana" font-size="10.00">Utility.h</text>
</a>
</g>
</g>
<!-- Node9&#45;&gt;Node10 -->
<g id="edge12" class="edge"><title>Node9&#45;&gt;Node10</title>
<path fill="none" stroke="midnightblue" d="M1127.76,-112.444C1149.32,-103.557 1183.26,-89.5632 1207.79,-79.4514"/>
<polygon fill="midnightblue" stroke="midnightblue" points="1209.43,-82.5634 1217.34,-75.5164 1206.76,-76.0917 1209.43,-82.5634"/>
</g>
<!-- Node11 -->
<g id="node11" class="node"><title>Node11</title>
<polygon fill="white" stroke="#bfbfbf" points="1114,-0.5 1114,-19.5 1144,-19.5 1144,-0.5 1114,-0.5"/>
<text text-anchor="middle" x="1129" y="-7.5" font-family="Verdana" font-size="10.00">list</text>
</g>
<!-- Node9&#45;&gt;Node11 -->
<g id="edge21" class="edge"><title>Node9&#45;&gt;Node11</title>
<path fill="none" stroke="midnightblue" d="M1112.04,-112.388C1116.9,-103.58 1123.95,-89.3357 1127,-76 1130.5,-60.6765 1130.78,-42.7962 1130.32,-29.6719"/>
<polygon fill="midnightblue" stroke="midnightblue" points="1133.8,-29.3444 1129.77,-19.5464 1126.81,-29.7197 1133.8,-29.3444"/>
</g>
<!-- Node13 -->
<g id="node13" class="node"><title>Node13</title>
<polygon fill="white" stroke="#bfbfbf" points="1292,-0.5 1292,-19.5 1348,-19.5 1348,-0.5 1292,-0.5"/>
<text text-anchor="middle" x="1320" y="-7.5" font-family="Verdana" font-size="10.00">sstream</text>
</g>
<!-- Node9&#45;&gt;Node13 -->
<g id="edge19" class="edge"><title>Node9&#45;&gt;Node13</title>
<path fill="none" stroke="midnightblue" d="M1156.06,-116.237C1190.91,-110.905 1237.46,-99.656 1272,-76 1289.49,-64.021 1303.06,-43.5332 1311.24,-28.7572"/>
<polygon fill="midnightblue" stroke="midnightblue" points="1314.49,-30.0979 1316.02,-19.615 1308.29,-26.8517 1314.49,-30.0979"/>
</g>
<!-- Node15 -->
<g id="node15" class="node"><title>Node15</title>
<polygon fill="white" stroke="#bfbfbf" points="1066,-56.5 1066,-75.5 1118,-75.5 1118,-56.5 1066,-56.5"/>
<text text-anchor="middle" x="1092" y="-63.5" font-family="Verdana" font-size="10.00">iterator</text>
</g>
<!-- Node9&#45;&gt;Node15 -->
<g id="edge20" class="edge"><title>Node9&#45;&gt;Node15</title>
<path fill="none" stroke="midnightblue" d="M1104.52,-112.083C1102.51,-104.849 1099.61,-94.4087 1097.11,-85.3968"/>
<polygon fill="midnightblue" stroke="midnightblue" points="1100.48,-84.4495 1094.43,-75.7511 1093.74,-86.323 1100.48,-84.4495"/>
</g>
<!-- Node10&#45;&gt;Node6 -->
<g id="edge13" class="edge"><title>Node10&#45;&gt;Node6</title>
<path fill="none" stroke="midnightblue" d="M1212.37,-62.3589C1125.43,-53.399 841.802,-24.1704 745.969,-14.2945"/>
<polygon fill="midnightblue" stroke="midnightblue" points="746.31,-10.8112 736.003,-13.2675 745.592,-17.7743 746.31,-10.8112"/>
</g>
<!-- Node10&#45;&gt;Node11 -->
<g id="edge14" class="edge"><title>Node10&#45;&gt;Node11</title>
<path fill="none" stroke="midnightblue" d="M1220.49,-56.324C1202.2,-47.2644 1173.39,-32.9933 1153,-22.8881"/>
<polygon fill="midnightblue" stroke="midnightblue" points="1154.53,-19.7407 1144.01,-18.4376 1151.42,-26.0131 1154.53,-19.7407"/>
</g>
<!-- Node12 -->
<g id="node12" class="node"><title>Node12</title>
<polygon fill="white" stroke="#bfbfbf" points="1236,-0.5 1236,-19.5 1274,-19.5 1274,-0.5 1236,-0.5"/>
<text text-anchor="middle" x="1255" y="-7.5" font-family="Verdana" font-size="10.00">map</text>
</g>
<!-- Node10&#45;&gt;Node12 -->
<g id="edge15" class="edge"><title>Node10&#45;&gt;Node12</title>
<path fill="none" stroke="midnightblue" d="M1240.81,-56.083C1243.08,-48.8486 1246.37,-38.4087 1249.21,-29.3968"/>
<polygon fill="midnightblue" stroke="midnightblue" points="1252.58,-30.3406 1252.25,-19.7511 1245.9,-28.2385 1252.58,-30.3406"/>
</g>
<!-- Node10&#45;&gt;Node13 -->
<g id="edge16" class="edge"><title>Node10&#45;&gt;Node13</title>
<path fill="none" stroke="midnightblue" d="M1251.17,-56.324C1263.85,-47.979 1283.23,-35.2122 1298.21,-25.3524"/>
<polygon fill="midnightblue" stroke="midnightblue" points="1300.43,-28.0776 1306.86,-19.6545 1296.58,-22.2313 1300.43,-28.0776"/>
</g>
<!-- Node14 -->
<g id="node14" class="node"><title>Node14</title>
<polygon fill="white" stroke="#bfbfbf" points="1162,-0.5 1162,-19.5 1218,-19.5 1218,-0.5 1162,-0.5"/>
<text text-anchor="middle" x="1190" y="-7.5" font-family="Verdana" font-size="10.00">numeric</text>
</g>
<!-- Node10&#45;&gt;Node14 -->
<g id="edge17" class="edge"><title>Node10&#45;&gt;Node14</title>
<path fill="none" stroke="midnightblue" d="M1230.07,-56.083C1223.15,-48.2982 1212.93,-36.8015 1204.55,-27.3665"/>
<polygon fill="midnightblue" stroke="midnightblue" points="1207.04,-24.8999 1197.78,-19.7511 1201.81,-29.5505 1207.04,-24.8999"/>
</g>
<!-- Node18&#45;&gt;Node3 -->
<g id="edge26" class="edge"><title>Node18&#45;&gt;Node3</title>
<path fill="none" stroke="midnightblue" d="M560.172,-336.075C554.82,-309.945 539.103,-233.211 531.805,-197.577"/>
<polygon fill="midnightblue" stroke="midnightblue" points="535.19,-196.662 529.755,-187.568 528.333,-198.067 535.19,-196.662"/>
</g>
<!-- Node18&#45;&gt;Node6 -->
<g id="edge57" class="edge"><title>Node18&#45;&gt;Node6</title>
<path fill="none" stroke="midnightblue" d="M591.609,-336.407C630.113,-323.453 695.774,-294.859 724,-244 763.318,-173.154 735.055,-70.6912 720.842,-29.3334"/>
<polygon fill="midnightblue" stroke="midnightblue" points="724.088,-28.015 717.427,-19.776 717.496,-30.3706 724.088,-28.015"/>
</g>
<!-- Node18&#45;&gt;Node11 -->
<g id="edge56" class="edge"><title>Node18&#45;&gt;Node11</title>
<path fill="none" stroke="midnightblue" d="M645.24,-338.823C814.73,-325.126 1184,-289.077 1184,-235 1184,-235 1184,-235 1184,-121 1184,-84.5693 1159.57,-47.836 1143.27,-27.387"/>
<polygon fill="midnightblue" stroke="midnightblue" points="1145.95,-25.1386 1136.88,-19.6684 1140.56,-29.603 1145.95,-25.1386"/>
</g>
<!-- Node19 -->
<g id="node19" class="node"><title>Node19</title>
<g id="a_node19"><a xlink:href="ConfigurableElement_8h.html" target="_top" xlink:title="ConfigurableElement.h">
<polygon fill="white" stroke="black" points="304.5,-280.5 304.5,-299.5 429.5,-299.5 429.5,-280.5 304.5,-280.5"/>
<text text-anchor="middle" x="367" y="-287.5" font-family="Verdana" font-size="10.00">ConfigurableElement.h</text>
</a>
</g>
</g>
<!-- Node18&#45;&gt;Node19 -->
<g id="edge27" class="edge"><title>Node18&#45;&gt;Node19</title>
<path fill="none" stroke="midnightblue" d="M531.102,-336.444C497.726,-327.201 444.406,-312.436 407.651,-302.257"/>
<polygon fill="midnightblue" stroke="midnightblue" points="408.325,-298.812 397.754,-299.516 406.457,-305.558 408.325,-298.812"/>
</g>
<!-- Node28 -->
<g id="node28" class="node"><title>Node28</title>
<g id="a_node28"><a xlink:href="TypeElement_8h.html" target="_top" xlink:title="TypeElement.h">
<polygon fill="white" stroke="black" points="448,-280.5 448,-299.5 534,-299.5 534,-280.5 448,-280.5"/>
<text text-anchor="middle" x="491" y="-287.5" font-family="Verdana" font-size="10.00">TypeElement.h</text>
</a>
</g>
</g>
<!-- Node18&#45;&gt;Node28 -->
<g id="edge52" class="edge"><title>Node18&#45;&gt;Node28</title>
<path fill="none" stroke="midnightblue" d="M550.593,-336.324C539.891,-328.185 523.659,-315.839 510.837,-306.087"/>
<polygon fill="midnightblue" stroke="midnightblue" points="512.693,-303.102 502.615,-299.834 508.456,-308.673 512.693,-303.102"/>
</g>
<!-- Node19&#45;&gt;Node3 -->
<g id="edge28" class="edge"><title>Node19&#45;&gt;Node3</title>
<path fill="none" stroke="midnightblue" d="M379.633,-280.368C407.261,-261.492 473.282,-216.385 507.163,-193.237"/>
<polygon fill="midnightblue" stroke="midnightblue" points="509.143,-196.123 515.425,-187.591 505.194,-190.343 509.143,-196.123"/>
</g>
<!-- Node19&#45;&gt;Node11 -->
<g id="edge50" class="edge"><title>Node19&#45;&gt;Node11</title>
<path fill="none" stroke="midnightblue" d="M429.808,-280.963C432.915,-280.624 435.992,-280.301 439,-280 545.436,-269.363 818.364,-280.252 919,-244 959.491,-229.414 970.697,-221.268 998,-188 1038.77,-138.327 1014.81,-104.469 1057,-56 1070.02,-41.0424 1089.24,-29.3783 1104.55,-21.6768"/>
<polygon fill="midnightblue" stroke="midnightblue" points="1106.42,-24.6607 1113.94,-17.1933 1103.4,-18.3438 1106.42,-24.6607"/>
</g>
<!-- Node20 -->
<g id="node20" class="node"><title>Node20</title>
<g id="a_node20"><a xlink:href="Element_8h.html" target="_top" xlink:title="Element.h">
<polygon fill="white" stroke="black" points="298.5,-224.5 298.5,-243.5 363.5,-243.5 363.5,-224.5 298.5,-224.5"/>
<text text-anchor="middle" x="331" y="-231.5" font-family="Verdana" font-size="10.00">Element.h</text>
</a>
</g>
</g>
<!-- Node19&#45;&gt;Node20 -->
<g id="edge29" class="edge"><title>Node19&#45;&gt;Node20</title>
<path fill="none" stroke="midnightblue" d="M361.055,-280.083C356.023,-272.534 348.663,-261.495 342.487,-252.23"/>
<polygon fill="midnightblue" stroke="midnightblue" points="345.293,-250.13 336.834,-243.751 339.469,-254.013 345.293,-250.13"/>
</g>
<!-- Node21 -->
<g id="node21" class="node"><title>Node21</title>
<polygon fill="white" stroke="#bfbfbf" points="433.5,-112.5 433.5,-131.5 480.5,-131.5 480.5,-112.5 433.5,-112.5"/>
<text text-anchor="middle" x="457" y="-119.5" font-family="Verdana" font-size="10.00">vector</text>
</g>
<!-- Node19&#45;&gt;Node21 -->
<g id="edge51" class="edge"><title>Node19&#45;&gt;Node21</title>
<path fill="none" stroke="midnightblue" d="M371.839,-280.075C386.128,-253.719 428.331,-175.878 447.425,-140.661"/>
<polygon fill="midnightblue" stroke="midnightblue" points="450.665,-142.027 452.355,-131.568 444.511,-138.691 450.665,-142.027"/>
</g>
<!-- Node20&#45;&gt;Node3 -->
<g id="edge30" class="edge"><title>Node20&#45;&gt;Node3</title>
<path fill="none" stroke="midnightblue" d="M362.215,-224.444C395.933,-215.201 449.8,-200.436 486.932,-190.257"/>
<polygon fill="midnightblue" stroke="midnightblue" points="488.212,-193.536 496.931,-187.516 486.361,-186.785 488.212,-193.536"/>
</g>
<!-- Node20&#45;&gt;Node6 -->
<g id="edge31" class="edge"><title>Node20&#45;&gt;Node6</title>
<path fill="none" stroke="midnightblue" d="M298.299,-232.618C233.022,-231.091 90.2216,-223.654 60,-188 38.1592,-162.233 40.2498,-139.402 60,-112 83.01,-80.0754 189.488,-64.0895 228,-56 396.302,-20.6481 603.206,-13.0663 681.726,-11.442"/>
<polygon fill="midnightblue" stroke="midnightblue" points="682.003,-14.9375 691.935,-11.2501 681.871,-7.93878 682.003,-14.9375"/>
</g>
<!-- Node20&#45;&gt;Node17 -->
<g id="edge33" class="edge"><title>Node20&#45;&gt;Node17</title>
<path fill="none" stroke="midnightblue" d="M314.219,-224.383C294.193,-212.842 264.736,-191.124 276,-168 287.385,-144.626 348.294,-103.13 382.19,-81.3137"/>
<polygon fill="midnightblue" stroke="midnightblue" points="384.421,-84.0419 390.97,-75.7137 380.657,-78.1401 384.421,-84.0419"/>
</g>
<!-- Node20&#45;&gt;Node21 -->
<g id="edge32" class="edge"><title>Node20&#45;&gt;Node21</title>
<path fill="none" stroke="midnightblue" d="M342.106,-224.212C353.322,-215.268 371.075,-200.92 386,-188 405.012,-171.542 426.203,-151.975 440.444,-138.64"/>
<polygon fill="midnightblue" stroke="midnightblue" points="443.067,-140.978 447.956,-131.579 438.272,-135.878 443.067,-140.978"/>
</g>
<!-- Node22 -->
<g id="node22" class="node"><title>Node22</title>
<g id="a_node22"><a xlink:href="XmlSink_8h.html" target="_top" xlink:title="XmlSink.h">
<polygon fill="white" stroke="black" points="165,-168.5 165,-187.5 229,-187.5 229,-168.5 165,-168.5"/>
<text text-anchor="middle" x="197" y="-175.5" font-family="Verdana" font-size="10.00">XmlSink.h</text>
</a>
</g>
</g>
<!-- Node20&#45;&gt;Node22 -->
<g id="edge34" class="edge"><title>Node20&#45;&gt;Node22</title>
<path fill="none" stroke="midnightblue" d="M309.767,-224.444C287.616,-215.517 252.681,-201.439 227.564,-191.317"/>
<polygon fill="midnightblue" stroke="midnightblue" points="228.717,-188.008 218.133,-187.516 226.1,-194.501 228.717,-188.008"/>
</g>
<!-- Node26 -->
<g id="node26" class="node"><title>Node26</title>
<g id="a_node26"><a xlink:href="XmlSource_8h.html" target="_top" xlink:title="XmlSource.h">
<polygon fill="white" stroke="black" points="69.5,-168.5 69.5,-187.5 146.5,-187.5 146.5,-168.5 69.5,-168.5"/>
<text text-anchor="middle" x="108" y="-175.5" font-family="Verdana" font-size="10.00">XmlSource.h</text>
</a>
</g>
</g>
<!-- Node20&#45;&gt;Node26 -->
<g id="edge43" class="edge"><title>Node20&#45;&gt;Node26</title>
<path fill="none" stroke="midnightblue" d="M298.096,-225.032C259.736,-215.743 196.125,-200.34 153.162,-189.936"/>
<polygon fill="midnightblue" stroke="midnightblue" points="153.793,-186.488 143.25,-187.536 152.146,-193.291 153.793,-186.488"/>
</g>
<!-- Node27 -->
<g id="node27" class="node"><title>Node27</title>
<g id="a_node27"><a xlink:href="PathNavigator_8h.html" target="_top" xlink:title="PathNavigator.h">
<polygon fill="white" stroke="black" points="285,-168.5 285,-187.5 377,-187.5 377,-168.5 285,-168.5"/>
<text text-anchor="middle" x="331" y="-175.5" font-family="Verdana" font-size="10.00">PathNavigator.h</text>
</a>
</g>
</g>
<!-- Node20&#45;&gt;Node27 -->
<g id="edge46" class="edge"><title>Node20&#45;&gt;Node27</title>
<path fill="none" stroke="midnightblue" d="M331,-224.083C331,-217.006 331,-206.861 331,-197.986"/>
<polygon fill="midnightblue" stroke="midnightblue" points="334.5,-197.751 331,-187.751 327.5,-197.751 334.5,-197.751"/>
</g>
<!-- Node23 -->
<g id="node23" class="node"><title>Node23</title>
<g id="a_node23"><a xlink:href="XmlElement_8h.html" target="_top" xlink:title="XmlElement.h">
<polygon fill="white" stroke="black" points="217.5,-112.5 217.5,-131.5 300.5,-131.5 300.5,-112.5 217.5,-112.5"/>
<text text-anchor="middle" x="259" y="-119.5" font-family="Verdana" font-size="10.00">XmlElement.h</text>
</a>
</g>
</g>
<!-- Node22&#45;&gt;Node23 -->
<g id="edge35" class="edge"><title>Node22&#45;&gt;Node23</title>
<path fill="none" stroke="midnightblue" d="M206.961,-168.324C216.127,-160.341 229.937,-148.313 241.028,-138.653"/>
<polygon fill="midnightblue" stroke="midnightblue" points="243.615,-141.041 248.857,-131.834 239.018,-135.762 243.615,-141.041"/>
</g>
<!-- Node24 -->
<g id="node24" class="node"><title>Node24</title>
<g id="a_node24"><a xlink:href="XmlSerializingContext_8h.html" target="_top" xlink:title="XmlSerializingContext.h">
<polygon fill="white" stroke="black" points="69,-112.5 69,-131.5 199,-131.5 199,-112.5 69,-112.5"/>
<text text-anchor="middle" x="134" y="-119.5" font-family="Verdana" font-size="10.00">XmlSerializingContext.h</text>
</a>
</g>
</g>
<!-- Node22&#45;&gt;Node24 -->
<g id="edge38" class="edge"><title>Node22&#45;&gt;Node24</title>
<path fill="none" stroke="midnightblue" d="M186.878,-168.324C177.474,-160.263 163.256,-148.077 151.931,-138.369"/>
<polygon fill="midnightblue" stroke="midnightblue" points="154.177,-135.684 144.306,-131.834 149.621,-140.999 154.177,-135.684"/>
</g>
<!-- Node23&#45;&gt;Node6 -->
<g id="edge37" class="edge"><title>Node23&#45;&gt;Node6</title>
<path fill="none" stroke="midnightblue" d="M263.513,-112.446C271.645,-98.0033 290.239,-69.0793 315,-56 378.553,-22.4294 598.612,-13.7436 681.805,-11.6349"/>
<polygon fill="midnightblue" stroke="midnightblue" points="682.018,-15.1309 691.932,-11.3939 681.851,-8.13289 682.018,-15.1309"/>
</g>
<!-- Node23&#45;&gt;Node17 -->
<g id="edge36" class="edge"><title>Node23&#45;&gt;Node17</title>
<path fill="none" stroke="midnightblue" d="M282.134,-112.444C306.482,-103.438 345.007,-89.1891 372.423,-79.049"/>
<polygon fill="midnightblue" stroke="midnightblue" points="373.809,-82.2681 381.974,-75.5164 371.381,-75.7028 373.809,-82.2681"/>
</g>
<!-- Node24&#45;&gt;Node6 -->
<g id="edge42" class="edge"><title>Node24&#45;&gt;Node6</title>
<path fill="none" stroke="midnightblue" d="M150.079,-112.332C177.501,-97.9861 235.451,-69.5479 288,-56 431.505,-19.0027 609.718,-12.337 681.654,-11.1996"/>
<polygon fill="midnightblue" stroke="midnightblue" points="681.921,-14.6965 691.874,-11.0648 681.828,-7.69707 681.921,-14.6965"/>
</g>
<!-- Node25 -->
<g id="node25" class="node"><title>Node25</title>
<g id="a_node25"><a xlink:href="ErrorContext_8hpp.html" target="_top" xlink:title="ErrorContext.hpp">
<polygon fill="white" stroke="black" points="0,-56.5 0,-75.5 98,-75.5 98,-56.5 0,-56.5"/>
<text text-anchor="middle" x="49" y="-63.5" font-family="Verdana" font-size="10.00">ErrorContext.hpp</text>
</a>
</g>
</g>
<!-- Node24&#45;&gt;Node25 -->
<g id="edge39" class="edge"><title>Node24&#45;&gt;Node25</title>
<path fill="none" stroke="midnightblue" d="M120.343,-112.324C107.084,-103.9 86.732,-90.9709 71.1538,-81.0741"/>
<polygon fill="midnightblue" stroke="midnightblue" points="72.9404,-78.0626 62.6228,-75.6545 69.1867,-83.9711 72.9404,-78.0626"/>
</g>
<!-- Node25&#45;&gt;Node6 -->
<g id="edge40" class="edge"><title>Node25&#45;&gt;Node6</title>
<path fill="none" stroke="midnightblue" d="M98.1405,-57.6542C102.82,-57.0529 107.497,-56.4894 112,-56 329.014,-32.415 591.397,-17.4198 681.671,-12.6492"/>
<polygon fill="midnightblue" stroke="midnightblue" points="682.008,-16.1364 691.812,-12.1182 681.642,-9.14599 682.008,-16.1364"/>
</g>
<!-- Node25&#45;&gt;Node16 -->
<g id="edge41" class="edge"><title>Node25&#45;&gt;Node16</title>
<path fill="none" stroke="midnightblue" d="M86.2364,-56.4435C127.06,-47.0629 192.643,-31.9926 236.984,-21.8036"/>
<polygon fill="midnightblue" stroke="midnightblue" points="237.976,-25.1671 246.938,-19.5164 236.408,-18.3449 237.976,-25.1671"/>
</g>
<!-- Node26&#45;&gt;Node23 -->
<g id="edge44" class="edge"><title>Node26&#45;&gt;Node23</title>
<path fill="none" stroke="midnightblue" d="M131.926,-168.444C157.219,-159.399 197.302,-145.064 225.68,-134.916"/>
<polygon fill="midnightblue" stroke="midnightblue" points="226.948,-138.179 235.186,-131.516 224.591,-131.588 226.948,-138.179"/>
</g>
<!-- Node26&#45;&gt;Node24 -->
<g id="edge45" class="edge"><title>Node26&#45;&gt;Node24</title>
<path fill="none" stroke="midnightblue" d="M112.293,-168.083C115.852,-160.691 121.022,-149.953 125.424,-140.811"/>
<polygon fill="midnightblue" stroke="midnightblue" points="128.602,-142.279 129.787,-131.751 122.295,-139.243 128.602,-142.279"/>
</g>
<!-- Node27&#45;&gt;Node6 -->
<g id="edge48" class="edge"><title>Node27&#45;&gt;Node6</title>
<path fill="none" stroke="midnightblue" d="M330.806,-168.292C330.821,-145.739 334.253,-85.1546 369,-56 415.956,-16.6015 605.297,-11.3893 681.748,-10.9208"/>
<polygon fill="midnightblue" stroke="midnightblue" points="681.773,-14.4208 691.76,-10.8831 681.747,-7.42089 681.773,-14.4208"/>
</g>
<!-- Node27&#45;&gt;Node17 -->
<g id="edge49" class="edge"><title>Node27&#45;&gt;Node17</title>
<path fill="none" stroke="midnightblue" d="M343.681,-168.351C354.863,-160.146 370.907,-146.886 381,-132 390.695,-117.702 397.065,-98.9903 400.79,-85.3167"/>
<polygon fill="midnightblue" stroke="midnightblue" points="404.186,-86.1623 403.223,-75.6114 397.397,-84.4601 404.186,-86.1623"/>
</g>
<!-- Node27&#45;&gt;Node21 -->
<g id="edge47" class="edge"><title>Node27&#45;&gt;Node21</title>
<path fill="none" stroke="midnightblue" d="M350.965,-168.444C371.609,-159.596 404.063,-145.687 427.632,-135.586"/>
<polygon fill="midnightblue" stroke="midnightblue" points="429.316,-138.673 437.128,-131.516 426.558,-132.239 429.316,-138.673"/>
</g>
<!-- Node28&#45;&gt;Node3 -->
<g id="edge53" class="edge"><title>Node28&#45;&gt;Node3</title>
<path fill="none" stroke="midnightblue" d="M493.903,-280.368C499.901,-262.537 513.773,-221.295 521.854,-197.272"/>
<polygon fill="midnightblue" stroke="midnightblue" points="525.239,-198.185 525.11,-187.591 518.605,-195.954 525.239,-198.185"/>
</g>
<!-- Node28&#45;&gt;Node6 -->
<g id="edge55" class="edge"><title>Node28&#45;&gt;Node6</title>
<path fill="none" stroke="midnightblue" d="M534.1,-286.334C590.999,-281.811 686.506,-270.409 708,-244 713.611,-237.106 708.508,-232.874 708,-224 704.216,-157.898 694.784,-142.102 691,-76 690.492,-67.1256 688.919,-64.642 691,-56 693.307,-46.4183 698.017,-36.5813 702.578,-28.5579"/>
<polygon fill="midnightblue" stroke="midnightblue" points="705.692,-30.1727 707.895,-19.8095 699.711,-26.537 705.692,-30.1727"/>
</g>
<!-- Node28&#45;&gt;Node20 -->
<g id="edge54" class="edge"><title>Node28&#45;&gt;Node20</title>
<path fill="none" stroke="midnightblue" d="M465.648,-280.444C438.731,-271.359 396.004,-256.939 365.913,-246.783"/>
<polygon fill="midnightblue" stroke="midnightblue" points="366.828,-243.398 356.234,-243.516 364.59,-250.031 366.828,-243.398"/>
</g>
<!-- Node29&#45;&gt;Node3 -->
<g id="edge59" class="edge"><title>Node29&#45;&gt;Node3</title>
<path fill="none" stroke="midnightblue" d="M628.144,-224.444C608.734,-215.636 578.27,-201.812 556.035,-191.722"/>
<polygon fill="midnightblue" stroke="midnightblue" points="557.32,-188.462 546.768,-187.516 554.428,-194.836 557.32,-188.462"/>
</g>
<!-- Node29&#45;&gt;Node6 -->
<g id="edge61" class="edge"><title>Node29&#45;&gt;Node6</title>
<path fill="none" stroke="midnightblue" d="M649.626,-224.297C659.506,-191.563 694.571,-75.3752 708.366,-29.6664"/>
<polygon fill="midnightblue" stroke="midnightblue" points="711.78,-30.4685 711.319,-19.8837 705.079,-28.446 711.78,-30.4685"/>
</g>
<!-- Node29&#45;&gt;Node17 -->
<g id="edge60" class="edge"><title>Node29&#45;&gt;Node17</title>
<path fill="none" stroke="midnightblue" d="M645.33,-224.325C642.302,-210.724 634.711,-184.258 619,-168 569.263,-116.532 488.113,-88.3395 441.339,-75.5793"/>
<polygon fill="midnightblue" stroke="midnightblue" points="442.186,-72.1831 431.624,-73.0166 440.4,-78.9516 442.186,-72.1831"/>
</g>
<!-- Node29&#45;&gt;Node21 -->
<g id="edge62" class="edge"><title>Node29&#45;&gt;Node21</title>
<path fill="none" stroke="midnightblue" d="M641.88,-224.077C633.441,-210.135 615.301,-183.21 593,-168 561.8,-146.721 519.762,-134.853 490.721,-128.718"/>
<polygon fill="midnightblue" stroke="midnightblue" points="491.146,-125.234 480.655,-126.711 489.777,-132.099 491.146,-125.234"/>
</g>
</g>
</svg>
