<?xml version="1.0" encoding="UTF-8" standalone="no"?>
<!DOCTYPE svg PUBLIC "-//W3C//DTD SVG 1.1//EN"
 "http://www.w3.org/Graphics/SVG/1.1/DTD/svg11.dtd">
<!-- Generated by graphviz version 2.38.0 (20140413.2041)
 -->
<!-- Title: parameter/FormattedSubsystemObject.h Pages: 1 -->
<svg width="548pt" height="319pt"
 viewBox="0.00 0.00 548.00 319.00" xmlns="http://www.w3.org/2000/svg" xmlns:xlink="http://www.w3.org/1999/xlink">
<g id="graph0" class="graph" transform="scale(1 1) rotate(0) translate(4 315)">
<title>parameter/FormattedSubsystemObject.h</title>
<polygon fill="white" stroke="none" points="-4,4 -4,-315 544,-315 544,4 -4,4"/>
<!-- Node1 -->
<g id="node1" class="node"><title>Node1</title>
<polygon fill="#bfbfbf" stroke="black" points="221.5,-280.5 221.5,-310.5 396.5,-310.5 396.5,-280.5 221.5,-280.5"/>
<text text-anchor="start" x="229.5" y="-298.5" font-family="Verdana" font-size="10.00">parameter/FormattedSubsystem</text>
<text text-anchor="middle" x="309" y="-287.5" font-family="Verdana" font-size="10.00">Object.h</text>
</g>
<!-- Node2 -->
<g id="node2" class="node"><title>Node2</title>
<polygon fill="white" stroke="#bfbfbf" points="148.5,-168.5 148.5,-187.5 261.5,-187.5 261.5,-168.5 148.5,-168.5"/>
<text text-anchor="middle" x="205" y="-175.5" font-family="Verdana" font-size="10.00">parameter_export.h</text>
</g>
<!-- Node1&#45;&gt;Node2 -->
<g id="edge1" class="edge"><title>Node1&#45;&gt;Node2</title>
<path fill="none" stroke="midnightblue" d="M296.248,-280.337C276.828,-258.77 239.948,-217.813 219.524,-195.13"/>
<polygon fill="midnightblue" stroke="midnightblue" points="222.099,-192.759 212.806,-187.669 216.897,-197.443 222.099,-192.759"/>
</g>
<!-- Node3 -->
<g id="node3" class="node"><title>Node3</title>
<g id="a_node3"><a xlink:href="SubsystemObject_8h.html" target="_top" xlink:title="SubsystemObject.h">
<polygon fill="white" stroke="black" points="303,-224.5 303,-243.5 413,-243.5 413,-224.5 303,-224.5"/>
<text text-anchor="middle" x="358" y="-231.5" font-family="Verdana" font-size="10.00">SubsystemObject.h</text>
</a>
</g>
</g>
<!-- Node1&#45;&gt;Node3 -->
<g id="edge2" class="edge"><title>Node1&#45;&gt;Node3</title>
<path fill="none" stroke="midnightblue" d="M320.612,-280.399C327.733,-271.753 336.883,-260.642 344.349,-251.576"/>
<polygon fill="midnightblue" stroke="midnightblue" points="347.215,-253.602 350.87,-243.658 341.811,-249.152 347.215,-253.602"/>
</g>
<!-- Node3&#45;&gt;Node2 -->
<g id="edge3" class="edge"><title>Node3&#45;&gt;Node2</title>
<path fill="none" stroke="midnightblue" d="M333.757,-224.444C308.129,-215.399 267.515,-201.064 238.762,-190.916"/>
<polygon fill="midnightblue" stroke="midnightblue" points="239.725,-187.544 229.13,-187.516 237.395,-194.145 239.725,-187.544"/>
</g>
<!-- Node4 -->
<g id="node4" class="node"><title>Node4</title>
<g id="a_node4"><a xlink:href="Syncer_8h.html" target="_top" xlink:title="Syncer.h">
<polygon fill="white" stroke="black" points="482,-112.5 482,-131.5 540,-131.5 540,-112.5 482,-112.5"/>
<text text-anchor="middle" x="511" y="-119.5" font-family="Verdana" font-size="10.00">Syncer.h</text>
</a>
</g>
</g>
<!-- Node3&#45;&gt;Node4 -->
<g id="edge4" class="edge"><title>Node3&#45;&gt;Node4</title>
<path fill="none" stroke="midnightblue" d="M393.045,-224.496C416.184,-217.562 446.151,-205.935 468,-188 483.485,-175.289 495.442,-155.538 502.772,-141.143"/>
<polygon fill="midnightblue" stroke="midnightblue" points="506.093,-142.313 507.276,-131.784 499.785,-139.277 506.093,-142.313"/>
</g>
<!-- Node5 -->
<g id="node5" class="node"><title>Node5</title>
<polygon fill="white" stroke="#bfbfbf" points="365,-0.5 365,-19.5 409,-19.5 409,-0.5 365,-0.5"/>
<text text-anchor="middle" x="387" y="-7.5" font-family="Verdana" font-size="10.00">string</text>
</g>
<!-- Node3&#45;&gt;Node5 -->
<g id="edge24" class="edge"><title>Node3&#45;&gt;Node5</title>
<path fill="none" stroke="midnightblue" d="M386.372,-224.495C403.752,-217.653 424.596,-206.13 435,-188 464.199,-137.116 458.322,-109.832 435,-56 429.732,-43.8399 419.38,-33.4594 409.635,-25.7429"/>
<polygon fill="midnightblue" stroke="midnightblue" points="411.501,-22.7707 401.37,-19.6698 407.356,-28.4116 411.501,-22.7707"/>
</g>
<!-- Node6 -->
<g id="node6" class="node"><title>Node6</title>
<g id="a_node6"><a xlink:href="Logger_8h.html" target="_top" xlink:title="log/Logger.h">
<polygon fill="white" stroke="black" points="279.5,-168.5 279.5,-187.5 354.5,-187.5 354.5,-168.5 279.5,-168.5"/>
<text text-anchor="middle" x="317" y="-175.5" font-family="Verdana" font-size="10.00">log/Logger.h</text>
</a>
</g>
</g>
<!-- Node3&#45;&gt;Node6 -->
<g id="edge6" class="edge"><title>Node3&#45;&gt;Node6</title>
<path fill="none" stroke="midnightblue" d="M351.23,-224.083C345.438,-216.455 336.942,-205.264 329.862,-195.941"/>
<polygon fill="midnightblue" stroke="midnightblue" points="332.479,-193.599 323.644,-187.751 326.904,-197.832 332.479,-193.599"/>
</g>
<!-- Node17 -->
<g id="node17" class="node"><title>Node17</title>
<polygon fill="white" stroke="#bfbfbf" points="372.5,-168.5 372.5,-187.5 425.5,-187.5 425.5,-168.5 372.5,-168.5"/>
<text text-anchor="middle" x="399" y="-175.5" font-family="Verdana" font-size="10.00">stdint.h</text>
</g>
<!-- Node3&#45;&gt;Node17 -->
<g id="edge23" class="edge"><title>Node3&#45;&gt;Node17</title>
<path fill="none" stroke="midnightblue" d="M364.77,-224.083C370.562,-216.455 379.058,-205.264 386.138,-195.941"/>
<polygon fill="midnightblue" stroke="midnightblue" points="389.096,-197.832 392.356,-187.751 383.521,-193.599 389.096,-197.832"/>
</g>
<!-- Node4&#45;&gt;Node5 -->
<g id="edge5" class="edge"><title>Node4&#45;&gt;Node5</title>
<path fill="none" stroke="midnightblue" d="M507.045,-112.48C500.492,-99.0912 486.272,-72.9105 468,-56 453.53,-42.6078 434.349,-31.7244 418.285,-24.0172"/>
<polygon fill="midnightblue" stroke="midnightblue" points="419.303,-20.6331 408.755,-19.6348 416.378,-26.9929 419.303,-20.6331"/>
</g>
<!-- Node7 -->
<g id="node7" class="node"><title>Node7</title>
<g id="a_node7"><a xlink:href="ILogger_8h.html" target="_top" xlink:title="log/ILogger.h">
<polygon fill="white" stroke="black" points="348.5,-56.5 348.5,-75.5 425.5,-75.5 425.5,-56.5 348.5,-56.5"/>
<text text-anchor="middle" x="387" y="-63.5" font-family="Verdana" font-size="10.00">log/ILogger.h</text>
</a>
</g>
</g>
<!-- Node6&#45;&gt;Node7 -->
<g id="edge7" class="edge"><title>Node6&#45;&gt;Node7</title>
<path fill="none" stroke="midnightblue" d="M322.845,-168.434C328.96,-159.426 338.794,-144.807 347,-132 357.14,-116.175 368.323,-97.9314 376.281,-84.8078"/>
<polygon fill="midnightblue" stroke="midnightblue" points="379.49,-86.2638 381.666,-75.8948 373.499,-82.6435 379.49,-86.2638"/>
</g>
<!-- Node8 -->
<g id="node8" class="node"><title>Node8</title>
<g id="a_node8"><a xlink:href="LogWrapper_8h.html" target="_top" xlink:title="log/LogWrapper.h">
<polygon fill="white" stroke="black" points="240,-112.5 240,-131.5 338,-131.5 338,-112.5 240,-112.5"/>
<text text-anchor="middle" x="289" y="-119.5" font-family="Verdana" font-size="10.00">log/LogWrapper.h</text>
</a>
</g>
</g>
<!-- Node6&#45;&gt;Node8 -->
<g id="edge9" class="edge"><title>Node6&#45;&gt;Node8</title>
<path fill="none" stroke="midnightblue" d="M312.376,-168.083C308.544,-160.691 302.976,-149.953 298.235,-140.811"/>
<polygon fill="midnightblue" stroke="midnightblue" points="301.248,-139.018 293.538,-131.751 295.034,-142.24 301.248,-139.018"/>
</g>
<!-- Node16 -->
<g id="node16" class="node"><title>Node16</title>
<g id="a_node16"><a xlink:href="NonCopyable_8hpp.html" target="_top" xlink:title="NonCopyable.hpp">
<polygon fill="white" stroke="black" points="120.5,-112.5 120.5,-131.5 221.5,-131.5 221.5,-112.5 120.5,-112.5"/>
<text text-anchor="middle" x="171" y="-119.5" font-family="Verdana" font-size="10.00">NonCopyable.hpp</text>
</a>
</g>
</g>
<!-- Node6&#45;&gt;Node16 -->
<g id="edge22" class="edge"><title>Node6&#45;&gt;Node16</title>
<path fill="none" stroke="midnightblue" d="M293.866,-168.444C269.518,-159.438 230.993,-145.189 203.577,-135.049"/>
<polygon fill="midnightblue" stroke="midnightblue" points="204.619,-131.703 194.026,-131.516 202.191,-138.268 204.619,-131.703"/>
</g>
<!-- Node7&#45;&gt;Node5 -->
<g id="edge8" class="edge"><title>Node7&#45;&gt;Node5</title>
<path fill="none" stroke="midnightblue" d="M387,-56.083C387,-49.0059 387,-38.8611 387,-29.9865"/>
<polygon fill="midnightblue" stroke="midnightblue" points="390.5,-29.751 387,-19.7511 383.5,-29.7511 390.5,-29.751"/>
</g>
<!-- Node8&#45;&gt;Node5 -->
<g id="edge18" class="edge"><title>Node8&#45;&gt;Node5</title>
<path fill="none" stroke="midnightblue" d="M295.052,-112.234C304.058,-99.4056 321.783,-74.9821 339,-56 348.497,-45.5296 360.028,-34.6666 369.408,-26.2372"/>
<polygon fill="midnightblue" stroke="midnightblue" points="371.822,-28.7748 376.993,-19.5271 367.184,-23.5322 371.822,-28.7748"/>
</g>
<!-- Node8&#45;&gt;Node7 -->
<g id="edge10" class="edge"><title>Node8&#45;&gt;Node7</title>
<path fill="none" stroke="midnightblue" d="M304.745,-112.324C320.319,-103.743 344.377,-90.486 362.459,-80.5224"/>
<polygon fill="midnightblue" stroke="midnightblue" points="364.224,-83.546 371.294,-75.6545 360.846,-77.4152 364.224,-83.546"/>
</g>
<!-- Node9 -->
<g id="node9" class="node"><title>Node9</title>
<g id="a_node9"><a xlink:href="Utility_8h.html" target="_top" xlink:title="Utility.h">
<polygon fill="white" stroke="black" points="132.5,-56.5 132.5,-75.5 183.5,-75.5 183.5,-56.5 132.5,-56.5"/>
<text text-anchor="middle" x="158" y="-63.5" font-family="Verdana" font-size="10.00">Utility.h</text>
</a>
</g>
</g>
<!-- Node8&#45;&gt;Node9 -->
<g id="edge11" class="edge"><title>Node8&#45;&gt;Node9</title>
<path fill="none" stroke="midnightblue" d="M268.243,-112.444C246.684,-103.557 212.737,-89.5632 188.206,-79.4514"/>
<polygon fill="midnightblue" stroke="midnightblue" points="189.239,-76.0917 178.66,-75.5164 186.572,-82.5634 189.239,-76.0917"/>
</g>
<!-- Node10 -->
<g id="node10" class="node"><title>Node10</title>
<polygon fill="white" stroke="#bfbfbf" points="290,-0.5 290,-19.5 320,-19.5 320,-0.5 290,-0.5"/>
<text text-anchor="middle" x="305" y="-7.5" font-family="Verdana" font-size="10.00">list</text>
</g>
<!-- Node8&#45;&gt;Node10 -->
<g id="edge21" class="edge"><title>Node8&#45;&gt;Node10</title>
<path fill="none" stroke="midnightblue" d="M290.255,-112.368C292.838,-94.617 298.794,-53.6664 302.295,-29.5974"/>
<polygon fill="midnightblue" stroke="midnightblue" points="305.774,-29.9911 303.75,-19.5914 298.847,-28.9835 305.774,-29.9911"/>
</g>
<!-- Node12 -->
<g id="node12" class="node"><title>Node12</title>
<polygon fill="white" stroke="#bfbfbf" points="0,-0.5 0,-19.5 56,-19.5 56,-0.5 0,-0.5"/>
<text text-anchor="middle" x="28" y="-7.5" font-family="Verdana" font-size="10.00">sstream</text>
</g>
<!-- Node8&#45;&gt;Node12 -->
<g id="edge19" class="edge"><title>Node8&#45;&gt;Node12</title>
<path fill="none" stroke="midnightblue" d="M241.017,-112.445C207.044,-105.333 160.956,-93.5173 123,-76 94.1523,-62.6864 64.4956,-40.8399 46.1607,-26.1937"/>
<polygon fill="midnightblue" stroke="midnightblue" points="48.0877,-23.2493 38.1226,-19.6511 43.6688,-28.6783 48.0877,-23.2493"/>
</g>
<!-- Node15 -->
<g id="node15" class="node"><title>Node15</title>
<polygon fill="white" stroke="#bfbfbf" points="202,-56.5 202,-75.5 254,-75.5 254,-56.5 202,-56.5"/>
<text text-anchor="middle" x="228" y="-63.5" font-family="Verdana" font-size="10.00">iterator</text>
</g>
<!-- Node8&#45;&gt;Node15 -->
<g id="edge20" class="edge"><title>Node8&#45;&gt;Node15</title>
<path fill="none" stroke="midnightblue" d="M279.199,-112.324C270.182,-104.341 256.594,-92.3128 245.682,-82.6529"/>
<polygon fill="midnightblue" stroke="midnightblue" points="247.787,-79.8416 237.979,-75.8339 243.147,-85.083 247.787,-79.8416"/>
</g>
<!-- Node9&#45;&gt;Node5 -->
<g id="edge12" class="edge"><title>Node9&#45;&gt;Node5</title>
<path fill="none" stroke="midnightblue" d="M183.597,-58.3433C186.761,-57.5425 189.953,-56.7451 193,-56 249.793,-42.1132 316.205,-26.9375 354.747,-18.2349"/>
<polygon fill="midnightblue" stroke="midnightblue" points="355.862,-21.5714 364.848,-15.9584 354.323,-14.7427 355.862,-21.5714"/>
</g>
<!-- Node9&#45;&gt;Node10 -->
<g id="edge13" class="edge"><title>Node9&#45;&gt;Node10</title>
<path fill="none" stroke="midnightblue" d="M181.601,-56.4294C204.538,-48.0857 240.592,-34.9348 280.186,-20.2828"/>
<polygon fill="midnightblue" stroke="midnightblue" points="281.61,-23.4877 289.771,-16.7317 279.178,-16.9236 281.61,-23.4877"/>
</g>
<!-- Node11 -->
<g id="node11" class="node"><title>Node11</title>
<polygon fill="white" stroke="#bfbfbf" points="74,-0.5 74,-19.5 112,-19.5 112,-0.5 74,-0.5"/>
<text text-anchor="middle" x="93" y="-7.5" font-family="Verdana" font-size="10.00">map</text>
</g>
<!-- Node9&#45;&gt;Node11 -->
<g id="edge14" class="edge"><title>Node9&#45;&gt;Node11</title>
<path fill="none" stroke="midnightblue" d="M147.557,-56.324C137.854,-48.2631 123.185,-36.0765 111.5,-26.3695"/>
<polygon fill="midnightblue" stroke="midnightblue" points="113.562,-23.532 103.633,-19.8339 109.089,-28.9163 113.562,-23.532"/>
</g>
<!-- Node9&#45;&gt;Node12 -->
<g id="edge15" class="edge"><title>Node9&#45;&gt;Node12</title>
<path fill="none" stroke="midnightblue" d="M137.401,-56.4435C116.007,-47.5566 82.3188,-33.5632 57.9756,-23.4514"/>
<polygon fill="midnightblue" stroke="midnightblue" points="59.0801,-20.1203 48.5025,-19.5164 56.3948,-26.5848 59.0801,-20.1203"/>
</g>
<!-- Node13 -->
<g id="node13" class="node"><title>Node13</title>
<polygon fill="white" stroke="#bfbfbf" points="130,-0.5 130,-19.5 186,-19.5 186,-0.5 130,-0.5"/>
<text text-anchor="middle" x="158" y="-7.5" font-family="Verdana" font-size="10.00">numeric</text>
</g>
<!-- Node9&#45;&gt;Node13 -->
<g id="edge16" class="edge"><title>Node9&#45;&gt;Node13</title>
<path fill="none" stroke="midnightblue" d="M158,-56.083C158,-49.0059 158,-38.8611 158,-29.9865"/>
<polygon fill="midnightblue" stroke="midnightblue" points="161.5,-29.751 158,-19.7511 154.5,-29.7511 161.5,-29.751"/>
</g>
<!-- Node14 -->
<g id="node14" class="node"><title>Node14</title>
<polygon fill="white" stroke="#bfbfbf" points="204,-0.5 204,-19.5 272,-19.5 272,-0.5 204,-0.5"/>
<text text-anchor="middle" x="238" y="-7.5" font-family="Verdana" font-size="10.00">type_traits</text>
</g>
<!-- Node9&#45;&gt;Node14 -->
<g id="edge17" class="edge"><title>Node9&#45;&gt;Node14</title>
<path fill="none" stroke="midnightblue" d="M170.853,-56.324C183.216,-47.979 202.13,-35.2122 216.737,-25.3524"/>
<polygon fill="midnightblue" stroke="midnightblue" points="218.848,-28.1503 225.179,-19.6545 214.932,-22.3483 218.848,-28.1503"/>
</g>
</g>
</svg>
