<?xml version="1.0" encoding="UTF-8" standalone="no"?>
<!DOCTYPE svg PUBLIC "-//W3C//DTD SVG 1.1//EN"
 "http://www.w3.org/Graphics/SVG/1.1/DTD/svg11.dtd">
<!-- Generated by graphviz version 2.36.0 (20140111.2315)
 -->
<!-- Title: parameter/FormattedSubsystemObject.h Pages: 1 -->
<svg width="182pt" height="108pt"
 viewBox="0.00 0.00 182.00 108.00" xmlns="http://www.w3.org/2000/svg" xmlns:xlink="http://www.w3.org/1999/xlink">
<g id="graph0" class="graph" transform="scale(1 1) rotate(0) translate(4 104)">
<title>parameter/FormattedSubsystemObject.h</title>
<polygon fill="white" stroke="none" points="-4,4 -4,-104 178,-104 178,4 -4,4"/>
<!-- Node1 -->
<g id="node1" class="node"><title>Node1</title>
<polygon fill="#bfbfbf" stroke="black" points="-0.5,-69 -0.5,-99 174.5,-99 174.5,-69 -0.5,-69"/>
<text text-anchor="start" x="7.5" y="-87" font-family="Verdana" font-size="10.00">parameter/FormattedSubsystem</text>
<text text-anchor="middle" x="87" y="-76" font-family="Verdana" font-size="10.00">Object.h</text>
</g>
<!-- Node2 -->
<g id="node2" class="node"><title>Node2</title>
<g id="a_node2"><a xlink:href="FormattedSubsystemObject_8cpp.html" target="_top" xlink:title="parameter/FormattedSubsystem\lObject.cpp">
<polygon fill="white" stroke="black" points="-0.5,-1 -0.5,-31 174.5,-31 174.5,-1 -0.5,-1"/>
<text text-anchor="start" x="7.5" y="-19" font-family="Verdana" font-size="10.00">parameter/FormattedSubsystem</text>
<text text-anchor="middle" x="87" y="-8" font-family="Verdana" font-size="10.00">Object.cpp</text>
</a>
</g>
</g>
<!-- Node1&#45;&gt;Node2 -->
<g id="edge1" class="edge"><title>Node1&#45;&gt;Node2</title>
<path fill="none" stroke="midnightblue" d="M87,-58.5322C87,-49.3606 87,-39.2449 87,-31.2931"/>
<polygon fill="midnightblue" stroke="midnightblue" points="83.5001,-58.6789 87,-68.679 90.5001,-58.679 83.5001,-58.6789"/>
</g>
</g>
</svg>
