<?xml version="1.0" encoding="UTF-8" standalone="no"?>
<!DOCTYPE svg PUBLIC "-//W3C//DTD SVG 1.1//EN"
 "http://www.w3.org/Graphics/SVG/1.1/DTD/svg11.dtd">
<!-- Generated by graphviz version 2.38.0 (20140413.2041)
 -->
<!-- Title: parameter/FormattedSubsystemObject.cpp Pages: 1 -->
<svg width="1376pt" height="431pt"
 viewBox="0.00 0.00 1376.00 431.00" xmlns="http://www.w3.org/2000/svg" xmlns:xlink="http://www.w3.org/1999/xlink">
<g id="graph0" class="graph" transform="scale(1 1) rotate(0) translate(4 427)">
<title>parameter/FormattedSubsystemObject.cpp</title>
<polygon fill="white" stroke="none" points="-4,4 -4,-427 1372,-427 1372,4 -4,4"/>
<!-- Node1 -->
<g id="node1" class="node"><title>Node1</title>
<polygon fill="#bfbfbf" stroke="black" points="803.5,-392.5 803.5,-422.5 978.5,-422.5 978.5,-392.5 803.5,-392.5"/>
<text text-anchor="start" x="811.5" y="-410.5" font-family="Verdana" font-size="10.00">parameter/FormattedSubsystem</text>
<text text-anchor="middle" x="891" y="-399.5" font-family="Verdana" font-size="10.00">Object.cpp</text>
</g>
<!-- Node2 -->
<g id="node2" class="node"><title>Node2</title>
<g id="a_node2"><a xlink:href="FormattedSubsystemObject_8h.html" target="_top" xlink:title="FormattedSubsystemObject.h">
<polygon fill="white" stroke="black" points="394.5,-280.5 394.5,-299.5 555.5,-299.5 555.5,-280.5 394.5,-280.5"/>
<text text-anchor="middle" x="475" y="-287.5" font-family="Verdana" font-size="10.00">FormattedSubsystemObject.h</text>
</a>
</g>
</g>
<!-- Node1&#45;&gt;Node2 -->
<g id="edge1" class="edge"><title>Node1&#45;&gt;Node2</title>
<path fill="none" stroke="midnightblue" d="M840.406,-392.453C756.893,-369.266 591.852,-323.443 515.499,-302.244"/>
<polygon fill="midnightblue" stroke="midnightblue" points="516.339,-298.845 505.767,-299.542 514.466,-305.59 516.339,-298.845"/>
</g>
<!-- Node19 -->
<g id="node19" class="node"><title>Node19</title>
<g id="a_node19"><a xlink:href="InstanceConfigurableElement_8h.html" target="_top" xlink:title="InstanceConfigurableElement.h">
<polygon fill="white" stroke="black" points="723,-336.5 723,-355.5 889,-355.5 889,-336.5 723,-336.5"/>
<text text-anchor="middle" x="806" y="-343.5" font-family="Verdana" font-size="10.00">InstanceConfigurableElement.h</text>
</a>
</g>
</g>
<!-- Node1&#45;&gt;Node19 -->
<g id="edge26" class="edge"><title>Node1&#45;&gt;Node19</title>
<path fill="none" stroke="midnightblue" d="M870.856,-392.399C857.613,-383.129 840.322,-371.025 826.924,-361.647"/>
<polygon fill="midnightblue" stroke="midnightblue" points="828.568,-358.525 818.368,-355.658 824.553,-364.26 828.568,-358.525"/>
</g>
<!-- Node30 -->
<g id="node30" class="node"><title>Node30</title>
<g id="a_node30"><a xlink:href="MappingContext_8h.html" target="_top" xlink:title="MappingContext.h">
<polygon fill="white" stroke="black" points="1160,-224.5 1160,-243.5 1264,-243.5 1264,-224.5 1160,-224.5"/>
<text text-anchor="middle" x="1212" y="-231.5" font-family="Verdana" font-size="10.00">MappingContext.h</text>
</a>
</g>
</g>
<!-- Node1&#45;&gt;Node30 -->
<g id="edge59" class="edge"><title>Node1&#45;&gt;Node30</title>
<path fill="none" stroke="midnightblue" d="M910.167,-392.319C930.793,-377.374 964.841,-353.607 996,-336 1059.9,-299.894 1138.88,-265.358 1181.42,-247.533"/>
<polygon fill="midnightblue" stroke="midnightblue" points="1183.03,-250.652 1190.92,-243.576 1180.34,-244.191 1183.03,-250.652"/>
</g>
<!-- Node31 -->
<g id="node31" class="node"><title>Node31</title>
<polygon fill="white" stroke="#bfbfbf" points="1005,-336.5 1005,-355.5 1061,-355.5 1061,-336.5 1005,-336.5"/>
<text text-anchor="middle" x="1033" y="-343.5" font-family="Verdana" font-size="10.00">assert.h</text>
</g>
<!-- Node1&#45;&gt;Node31 -->
<g id="edge64" class="edge"><title>Node1&#45;&gt;Node31</title>
<path fill="none" stroke="midnightblue" d="M924.652,-392.399C948.477,-382.416 980.146,-369.147 1003.09,-359.534"/>
<polygon fill="midnightblue" stroke="midnightblue" points="1004.47,-362.751 1012.34,-355.658 1001.76,-356.294 1004.47,-362.751"/>
</g>
<!-- Node3 -->
<g id="node3" class="node"><title>Node3</title>
<polygon fill="white" stroke="#bfbfbf" points="596.5,-168.5 596.5,-187.5 709.5,-187.5 709.5,-168.5 596.5,-168.5"/>
<text text-anchor="middle" x="653" y="-175.5" font-family="Verdana" font-size="10.00">parameter_export.h</text>
</g>
<!-- Node2&#45;&gt;Node3 -->
<g id="edge2" class="edge"><title>Node2&#45;&gt;Node3</title>
<path fill="none" stroke="midnightblue" d="M488.967,-280.368C519.642,-261.412 593.126,-216.001 630.439,-192.942"/>
<polygon fill="midnightblue" stroke="midnightblue" points="632.431,-195.826 639.098,-187.591 628.751,-189.871 632.431,-195.826"/>
</g>
<!-- Node4 -->
<g id="node4" class="node"><title>Node4</title>
<g id="a_node4"><a xlink:href="SubsystemObject_8h.html" target="_top" xlink:title="SubsystemObject.h">
<polygon fill="white" stroke="black" points="426,-224.5 426,-243.5 536,-243.5 536,-224.5 426,-224.5"/>
<text text-anchor="middle" x="481" y="-231.5" font-family="Verdana" font-size="10.00">SubsystemObject.h</text>
</a>
</g>
</g>
<!-- Node2&#45;&gt;Node4 -->
<g id="edge3" class="edge"><title>Node2&#45;&gt;Node4</title>
<path fill="none" stroke="midnightblue" d="M475.991,-280.083C476.786,-272.927 477.929,-262.635 478.923,-253.691"/>
<polygon fill="midnightblue" stroke="midnightblue" points="482.402,-254.076 480.028,-243.751 475.445,-253.303 482.402,-254.076"/>
</g>
<!-- Node4&#45;&gt;Node3 -->
<g id="edge4" class="edge"><title>Node4&#45;&gt;Node3</title>
<path fill="none" stroke="midnightblue" d="M508.254,-224.444C537.441,-215.28 583.921,-200.688 616.309,-190.519"/>
<polygon fill="midnightblue" stroke="midnightblue" points="617.381,-193.851 625.874,-187.516 615.284,-187.173 617.381,-193.851"/>
</g>
<!-- Node5 -->
<g id="node5" class="node"><title>Node5</title>
<g id="a_node5"><a xlink:href="Syncer_8h.html" target="_top" xlink:title="Syncer.h">
<polygon fill="white" stroke="black" points="436,-112.5 436,-131.5 494,-131.5 494,-112.5 436,-112.5"/>
<text text-anchor="middle" x="465" y="-119.5" font-family="Verdana" font-size="10.00">Syncer.h</text>
</a>
</g>
</g>
<!-- Node4&#45;&gt;Node5 -->
<g id="edge5" class="edge"><title>Node4&#45;&gt;Node5</title>
<path fill="none" stroke="midnightblue" d="M479.745,-224.368C477.162,-206.617 471.206,-165.666 467.705,-141.597"/>
<polygon fill="midnightblue" stroke="midnightblue" points="471.153,-140.983 466.25,-131.591 464.226,-141.991 471.153,-140.983"/>
</g>
<!-- Node6 -->
<g id="node6" class="node"><title>Node6</title>
<polygon fill="white" stroke="#bfbfbf" points="568,-0.5 568,-19.5 612,-19.5 612,-0.5 568,-0.5"/>
<text text-anchor="middle" x="590" y="-7.5" font-family="Verdana" font-size="10.00">string</text>
</g>
<!-- Node4&#45;&gt;Node6 -->
<g id="edge25" class="edge"><title>Node4&#45;&gt;Node6</title>
<path fill="none" stroke="midnightblue" d="M485.273,-224.297C501.413,-191.425 558.876,-74.3911 581.118,-29.0904"/>
<polygon fill="midnightblue" stroke="midnightblue" points="584.373,-30.4027 585.638,-19.8837 578.089,-27.3176 584.373,-30.4027"/>
</g>
<!-- Node7 -->
<g id="node7" class="node"><title>Node7</title>
<g id="a_node7"><a xlink:href="Logger_8h.html" target="_top" xlink:title="log/Logger.h">
<polygon fill="white" stroke="black" points="255.5,-168.5 255.5,-187.5 330.5,-187.5 330.5,-168.5 255.5,-168.5"/>
<text text-anchor="middle" x="293" y="-175.5" font-family="Verdana" font-size="10.00">log/Logger.h</text>
</a>
</g>
</g>
<!-- Node4&#45;&gt;Node7 -->
<g id="edge7" class="edge"><title>Node4&#45;&gt;Node7</title>
<path fill="none" stroke="midnightblue" d="M451.211,-224.444C419.171,-215.241 368.067,-200.562 332.647,-190.388"/>
<polygon fill="midnightblue" stroke="midnightblue" points="333.227,-186.913 322.65,-187.516 331.295,-193.641 333.227,-186.913"/>
</g>
<!-- Node18 -->
<g id="node18" class="node"><title>Node18</title>
<polygon fill="white" stroke="#bfbfbf" points="1020.5,-56.5 1020.5,-75.5 1073.5,-75.5 1073.5,-56.5 1020.5,-56.5"/>
<text text-anchor="middle" x="1047" y="-63.5" font-family="Verdana" font-size="10.00">stdint.h</text>
</g>
<!-- Node4&#45;&gt;Node18 -->
<g id="edge24" class="edge"><title>Node4&#45;&gt;Node18</title>
<path fill="none" stroke="midnightblue" d="M491.672,-224.358C520.661,-201.421 604.126,-138.927 685,-112 799.123,-74.0022 943.161,-67.6168 1009.91,-66.852"/>
<polygon fill="midnightblue" stroke="midnightblue" points="1010.35,-70.3488 1020.32,-66.772 1010.3,-63.349 1010.35,-70.3488"/>
</g>
<!-- Node5&#45;&gt;Node6 -->
<g id="edge6" class="edge"><title>Node5&#45;&gt;Node6</title>
<path fill="none" stroke="midnightblue" d="M474.879,-112.124C488.874,-99.5678 515.3,-75.9269 538,-56 549.356,-46.0318 562.193,-34.9211 572.271,-26.234"/>
<polygon fill="midnightblue" stroke="midnightblue" points="574.7,-28.7617 579.995,-19.5851 570.133,-23.4566 574.7,-28.7617"/>
</g>
<!-- Node8 -->
<g id="node8" class="node"><title>Node8</title>
<g id="a_node8"><a xlink:href="ILogger_8h.html" target="_top" xlink:title="log/ILogger.h">
<polygon fill="white" stroke="black" points="292.5,-56.5 292.5,-75.5 369.5,-75.5 369.5,-56.5 292.5,-56.5"/>
<text text-anchor="middle" x="331" y="-63.5" font-family="Verdana" font-size="10.00">log/ILogger.h</text>
</a>
</g>
</g>
<!-- Node7&#45;&gt;Node8 -->
<g id="edge8" class="edge"><title>Node7&#45;&gt;Node8</title>
<path fill="none" stroke="midnightblue" d="M296.941,-168.489C301.008,-159.525 307.393,-144.943 312,-132 317.544,-116.424 322.73,-98.3467 326.279,-85.2161"/>
<polygon fill="midnightblue" stroke="midnightblue" points="329.672,-86.076 328.847,-75.5133 322.905,-84.2851 329.672,-86.076"/>
</g>
<!-- Node9 -->
<g id="node9" class="node"><title>Node9</title>
<g id="a_node9"><a xlink:href="LogWrapper_8h.html" target="_top" xlink:title="log/LogWrapper.h">
<polygon fill="white" stroke="black" points="205,-112.5 205,-131.5 303,-131.5 303,-112.5 205,-112.5"/>
<text text-anchor="middle" x="254" y="-119.5" font-family="Verdana" font-size="10.00">log/LogWrapper.h</text>
</a>
</g>
</g>
<!-- Node7&#45;&gt;Node9 -->
<g id="edge10" class="edge"><title>Node7&#45;&gt;Node9</title>
<path fill="none" stroke="midnightblue" d="M286.56,-168.083C281.051,-160.455 272.969,-149.264 266.235,-139.941"/>
<polygon fill="midnightblue" stroke="midnightblue" points="269.013,-137.809 260.32,-131.751 263.338,-141.907 269.013,-137.809"/>
</g>
<!-- Node17 -->
<g id="node17" class="node"><title>Node17</title>
<g id="a_node17"><a xlink:href="NonCopyable_8hpp.html" target="_top" xlink:title="NonCopyable.hpp">
<polygon fill="white" stroke="black" points="338.5,-0.5 338.5,-19.5 439.5,-19.5 439.5,-0.5 338.5,-0.5"/>
<text text-anchor="middle" x="389" y="-7.5" font-family="Verdana" font-size="10.00">NonCopyable.hpp</text>
</a>
</g>
</g>
<!-- Node7&#45;&gt;Node17 -->
<g id="edge23" class="edge"><title>Node7&#45;&gt;Node17</title>
<path fill="none" stroke="midnightblue" d="M258.966,-168.357C238.312,-161.545 212.787,-150.106 196,-132 172.175,-106.302 152.917,-83.2099 175,-56 194.003,-32.5849 271.831,-20.9015 328.157,-15.4064"/>
<polygon fill="midnightblue" stroke="midnightblue" points="328.773,-18.8642 338.405,-14.4509 328.123,-11.8944 328.773,-18.8642"/>
</g>
<!-- Node8&#45;&gt;Node6 -->
<g id="edge9" class="edge"><title>Node8&#45;&gt;Node6</title>
<path fill="none" stroke="midnightblue" d="M369.775,-56.9157C420.941,-46.2478 510.081,-27.6627 557.751,-17.7236"/>
<polygon fill="midnightblue" stroke="midnightblue" points="558.747,-21.0915 567.822,-15.6241 557.318,-14.2389 558.747,-21.0915"/>
</g>
<!-- Node9&#45;&gt;Node6 -->
<g id="edge19" class="edge"><title>Node9&#45;&gt;Node6</title>
<path fill="none" stroke="midnightblue" d="M255.21,-112.191C257.672,-97.9032 264.68,-69.8792 283,-56 304.69,-39.5677 483.402,-21.0404 557.747,-13.9627"/>
<polygon fill="midnightblue" stroke="midnightblue" points="558.3,-17.4262 567.927,-13.0032 557.643,-10.4571 558.3,-17.4262"/>
</g>
<!-- Node9&#45;&gt;Node8 -->
<g id="edge11" class="edge"><title>Node9&#45;&gt;Node8</title>
<path fill="none" stroke="midnightblue" d="M266.371,-112.324C278.158,-104.058 296.132,-91.4527 310.136,-81.6322"/>
<polygon fill="midnightblue" stroke="midnightblue" points="312.482,-84.2619 318.659,-75.6545 308.462,-78.5307 312.482,-84.2619"/>
</g>
<!-- Node10 -->
<g id="node10" class="node"><title>Node10</title>
<g id="a_node10"><a xlink:href="Utility_8h.html" target="_top" xlink:title="Utility.h">
<polygon fill="white" stroke="black" points="76.5,-56.5 76.5,-75.5 127.5,-75.5 127.5,-56.5 76.5,-56.5"/>
<text text-anchor="middle" x="102" y="-63.5" font-family="Verdana" font-size="10.00">Utility.h</text>
</a>
</g>
</g>
<!-- Node9&#45;&gt;Node10 -->
<g id="edge12" class="edge"><title>Node9&#45;&gt;Node10</title>
<path fill="none" stroke="midnightblue" d="M229.915,-112.444C204.455,-103.399 164.106,-89.064 135.541,-78.9158"/>
<polygon fill="midnightblue" stroke="midnightblue" points="136.567,-75.5661 125.972,-75.5164 134.223,-82.1622 136.567,-75.5661"/>
</g>
<!-- Node11 -->
<g id="node11" class="node"><title>Node11</title>
<polygon fill="white" stroke="#bfbfbf" points="977,-0.5 977,-19.5 1007,-19.5 1007,-0.5 977,-0.5"/>
<text text-anchor="middle" x="992" y="-7.5" font-family="Verdana" font-size="10.00">list</text>
</g>
<!-- Node9&#45;&gt;Node11 -->
<g id="edge22" class="edge"><title>Node9&#45;&gt;Node11</title>
<path fill="none" stroke="midnightblue" d="M303.281,-113.655C446.586,-92.2948 859.765,-30.7099 966.561,-14.7918"/>
<polygon fill="midnightblue" stroke="midnightblue" points="967.347,-18.2132 976.722,-13.2772 966.315,-11.2897 967.347,-18.2132"/>
</g>
<!-- Node13 -->
<g id="node13" class="node"><title>Node13</title>
<polygon fill="white" stroke="#bfbfbf" points="0,-0.5 0,-19.5 56,-19.5 56,-0.5 0,-0.5"/>
<text text-anchor="middle" x="28" y="-7.5" font-family="Verdana" font-size="10.00">sstream</text>
</g>
<!-- Node9&#45;&gt;Node13 -->
<g id="edge20" class="edge"><title>Node9&#45;&gt;Node13</title>
<path fill="none" stroke="midnightblue" d="M204.73,-119.454C164.256,-115.927 107.241,-105.542 67,-76 51.1222,-64.3437 40.4794,-44.0988 34.3777,-29.2924"/>
<polygon fill="midnightblue" stroke="midnightblue" points="37.5476,-27.7805 30.7273,-19.6728 31.0029,-30.2641 37.5476,-27.7805"/>
</g>
<!-- Node16 -->
<g id="node16" class="node"><title>Node16</title>
<polygon fill="white" stroke="#bfbfbf" points="184,-56.5 184,-75.5 236,-75.5 236,-56.5 184,-56.5"/>
<text text-anchor="middle" x="210" y="-63.5" font-family="Verdana" font-size="10.00">iterator</text>
</g>
<!-- Node9&#45;&gt;Node16 -->
<g id="edge21" class="edge"><title>Node9&#45;&gt;Node16</title>
<path fill="none" stroke="midnightblue" d="M246.734,-112.083C240.455,-104.377 231.212,-93.0333 223.569,-83.6531"/>
<polygon fill="midnightblue" stroke="midnightblue" points="226.161,-81.2926 217.131,-75.7511 220.734,-85.7143 226.161,-81.2926"/>
</g>
<!-- Node10&#45;&gt;Node6 -->
<g id="edge13" class="edge"><title>Node10&#45;&gt;Node6</title>
<path fill="none" stroke="midnightblue" d="M127.665,-61.7426C141.652,-59.9908 159.271,-57.8223 175,-56 317.476,-39.4936 487.692,-21.6138 557.603,-14.3497"/>
<polygon fill="midnightblue" stroke="midnightblue" points="558.357,-17.7903 567.942,-13.2768 557.634,-10.8277 558.357,-17.7903"/>
</g>
<!-- Node10&#45;&gt;Node11 -->
<g id="edge14" class="edge"><title>Node10&#45;&gt;Node11</title>
<path fill="none" stroke="midnightblue" d="M127.631,-61.4097C141.608,-59.5604 159.228,-57.405 175,-56 486.634,-28.2394 866.766,-14.9379 966.875,-11.7637"/>
<polygon fill="midnightblue" stroke="midnightblue" points="967.049,-15.2601 976.935,-11.4492 966.83,-8.26351 967.049,-15.2601"/>
</g>
<!-- Node12 -->
<g id="node12" class="node"><title>Node12</title>
<polygon fill="white" stroke="#bfbfbf" points="234,-0.5 234,-19.5 272,-19.5 272,-0.5 234,-0.5"/>
<text text-anchor="middle" x="253" y="-7.5" font-family="Verdana" font-size="10.00">map</text>
</g>
<!-- Node10&#45;&gt;Node12 -->
<g id="edge15" class="edge"><title>Node10&#45;&gt;Node12</title>
<path fill="none" stroke="midnightblue" d="M125.926,-56.4435C152.59,-46.9084 195.691,-31.4946 224.187,-21.3042"/>
<polygon fill="midnightblue" stroke="midnightblue" points="225.729,-24.4696 233.967,-17.8067 223.372,-17.8784 225.729,-24.4696"/>
</g>
<!-- Node10&#45;&gt;Node13 -->
<g id="edge16" class="edge"><title>Node10&#45;&gt;Node13</title>
<path fill="none" stroke="midnightblue" d="M90.1106,-56.324C78.8498,-48.1066 61.7134,-35.6017 48.2909,-25.8069"/>
<polygon fill="midnightblue" stroke="midnightblue" points="50.2468,-22.9014 40.1057,-19.8339 46.1205,-28.5559 50.2468,-22.9014"/>
</g>
<!-- Node14 -->
<g id="node14" class="node"><title>Node14</title>
<polygon fill="white" stroke="#bfbfbf" points="74,-0.5 74,-19.5 130,-19.5 130,-0.5 74,-0.5"/>
<text text-anchor="middle" x="102" y="-7.5" font-family="Verdana" font-size="10.00">numeric</text>
</g>
<!-- Node10&#45;&gt;Node14 -->
<g id="edge17" class="edge"><title>Node10&#45;&gt;Node14</title>
<path fill="none" stroke="midnightblue" d="M102,-56.083C102,-49.0059 102,-38.8611 102,-29.9865"/>
<polygon fill="midnightblue" stroke="midnightblue" points="105.5,-29.751 102,-19.7511 98.5001,-29.7511 105.5,-29.751"/>
</g>
<!-- Node15 -->
<g id="node15" class="node"><title>Node15</title>
<polygon fill="white" stroke="#bfbfbf" points="148,-0.5 148,-19.5 216,-19.5 216,-0.5 148,-0.5"/>
<text text-anchor="middle" x="182" y="-7.5" font-family="Verdana" font-size="10.00">type_traits</text>
</g>
<!-- Node10&#45;&gt;Node15 -->
<g id="edge18" class="edge"><title>Node10&#45;&gt;Node15</title>
<path fill="none" stroke="midnightblue" d="M114.853,-56.324C127.216,-47.979 146.13,-35.2122 160.737,-25.3524"/>
<polygon fill="midnightblue" stroke="midnightblue" points="162.848,-28.1503 169.179,-19.6545 158.932,-22.3483 162.848,-28.1503"/>
</g>
<!-- Node19&#45;&gt;Node3 -->
<g id="edge27" class="edge"><title>Node19&#45;&gt;Node3</title>
<path fill="none" stroke="midnightblue" d="M761.342,-336.422C738.478,-329.933 711.786,-318.799 694,-300 666.779,-271.229 657.584,-223.72 654.513,-197.614"/>
<polygon fill="midnightblue" stroke="midnightblue" points="657.985,-197.165 653.513,-187.561 651.02,-197.858 657.985,-197.165"/>
</g>
<!-- Node19&#45;&gt;Node6 -->
<g id="edge58" class="edge"><title>Node19&#45;&gt;Node6</title>
<path fill="none" stroke="midnightblue" d="M762.456,-336.457C735.741,-329.703 701.824,-318.291 676,-300 624.116,-263.25 607.947,-248.031 587,-188 567.888,-133.23 578.589,-63.0064 585.531,-29.8893"/>
<polygon fill="midnightblue" stroke="midnightblue" points="589.018,-30.3306 587.774,-19.8091 582.185,-28.8098 589.018,-30.3306"/>
</g>
<!-- Node19&#45;&gt;Node11 -->
<g id="edge57" class="edge"><title>Node19&#45;&gt;Node11</title>
<path fill="none" stroke="midnightblue" d="M889.227,-337.224C1045.67,-321.478 1368,-283.188 1368,-235 1368,-235 1368,-235 1368,-121 1368,-47.6974 1101.43,-19.8504 1017.19,-12.8806"/>
<polygon fill="midnightblue" stroke="midnightblue" points="1017.45,-9.39023 1007.21,-12.0824 1016.89,-16.368 1017.45,-9.39023"/>
</g>
<!-- Node20 -->
<g id="node20" class="node"><title>Node20</title>
<g id="a_node20"><a xlink:href="ConfigurableElement_8h.html" target="_top" xlink:title="ConfigurableElement.h">
<polygon fill="white" stroke="black" points="823.5,-280.5 823.5,-299.5 948.5,-299.5 948.5,-280.5 823.5,-280.5"/>
<text text-anchor="middle" x="886" y="-287.5" font-family="Verdana" font-size="10.00">ConfigurableElement.h</text>
</a>
</g>
</g>
<!-- Node19&#45;&gt;Node20 -->
<g id="edge28" class="edge"><title>Node19&#45;&gt;Node20</title>
<path fill="none" stroke="midnightblue" d="M818.853,-336.324C831.216,-327.979 850.13,-315.212 864.737,-305.352"/>
<polygon fill="midnightblue" stroke="midnightblue" points="866.848,-308.15 873.179,-299.655 862.932,-302.348 866.848,-308.15"/>
</g>
<!-- Node29 -->
<g id="node29" class="node"><title>Node29</title>
<g id="a_node29"><a xlink:href="TypeElement_8h.html" target="_top" xlink:title="TypeElement.h">
<polygon fill="white" stroke="black" points="703,-280.5 703,-299.5 789,-299.5 789,-280.5 703,-280.5"/>
<text text-anchor="middle" x="746" y="-287.5" font-family="Verdana" font-size="10.00">TypeElement.h</text>
</a>
</g>
</g>
<!-- Node19&#45;&gt;Node29 -->
<g id="edge53" class="edge"><title>Node19&#45;&gt;Node29</title>
<path fill="none" stroke="midnightblue" d="M796.36,-336.324C787.49,-328.341 774.125,-316.313 763.392,-306.653"/>
<polygon fill="midnightblue" stroke="midnightblue" points="765.59,-303.922 755.815,-299.834 760.907,-309.125 765.59,-303.922"/>
</g>
<!-- Node20&#45;&gt;Node3 -->
<g id="edge29" class="edge"><title>Node20&#45;&gt;Node3</title>
<path fill="none" stroke="midnightblue" d="M867.717,-280.368C826.968,-261.131 728.509,-214.648 680.391,-191.931"/>
<polygon fill="midnightblue" stroke="midnightblue" points="681.735,-188.696 671.198,-187.591 678.747,-195.026 681.735,-188.696"/>
</g>
<!-- Node20&#45;&gt;Node11 -->
<g id="edge51" class="edge"><title>Node20&#45;&gt;Node11</title>
<path fill="none" stroke="midnightblue" d="M948.544,-289.849C1045.35,-289.857 1225.32,-284.25 1273,-244 1296,-224.586 1292,-209.098 1292,-179 1292,-179 1292,-179 1292,-121 1292,-62.6942 1089.72,-25.9738 1017.36,-14.7028"/>
<polygon fill="midnightblue" stroke="midnightblue" points="1017.7,-11.2144 1007.29,-13.1687 1016.65,-18.1346 1017.7,-11.2144"/>
</g>
<!-- Node21 -->
<g id="node21" class="node"><title>Node21</title>
<g id="a_node21"><a xlink:href="Element_8h.html" target="_top" xlink:title="Element.h">
<polygon fill="white" stroke="black" points="861.5,-224.5 861.5,-243.5 926.5,-243.5 926.5,-224.5 861.5,-224.5"/>
<text text-anchor="middle" x="894" y="-231.5" font-family="Verdana" font-size="10.00">Element.h</text>
</a>
</g>
</g>
<!-- Node20&#45;&gt;Node21 -->
<g id="edge30" class="edge"><title>Node20&#45;&gt;Node21</title>
<path fill="none" stroke="midnightblue" d="M887.321,-280.083C888.381,-272.927 889.906,-262.635 891.231,-253.691"/>
<polygon fill="midnightblue" stroke="midnightblue" points="894.7,-254.156 892.704,-243.751 887.776,-253.13 894.7,-254.156"/>
</g>
<!-- Node22 -->
<g id="node22" class="node"><title>Node22</title>
<polygon fill="white" stroke="#bfbfbf" points="1142.5,-112.5 1142.5,-131.5 1189.5,-131.5 1189.5,-112.5 1142.5,-112.5"/>
<text text-anchor="middle" x="1166" y="-119.5" font-family="Verdana" font-size="10.00">vector</text>
</g>
<!-- Node20&#45;&gt;Node22 -->
<g id="edge52" class="edge"><title>Node20&#45;&gt;Node22</title>
<path fill="none" stroke="midnightblue" d="M939.75,-280.49C996.434,-268.885 1085,-242.892 1140,-188 1152.49,-175.535 1159.18,-156.302 1162.62,-141.987"/>
<polygon fill="midnightblue" stroke="midnightblue" points="1166.14,-142.287 1164.74,-131.784 1159.28,-140.863 1166.14,-142.287"/>
</g>
<!-- Node21&#45;&gt;Node3 -->
<g id="edge31" class="edge"><title>Node21&#45;&gt;Node3</title>
<path fill="none" stroke="midnightblue" d="M861.498,-225.717C820.235,-216.472 748.703,-200.444 701.11,-189.78"/>
<polygon fill="midnightblue" stroke="midnightblue" points="701.86,-186.361 691.337,-187.59 700.33,-193.192 701.86,-186.361"/>
</g>
<!-- Node21&#45;&gt;Node6 -->
<g id="edge32" class="edge"><title>Node21&#45;&gt;Node6</title>
<path fill="none" stroke="midnightblue" d="M905.541,-224.49C915.479,-216.379 929.122,-203.178 935,-188 940.738,-173.183 948.576,-131.341 934,-112 895.895,-61.4403 701.123,-27.4565 622.738,-15.6316"/>
<polygon fill="midnightblue" stroke="midnightblue" points="622.884,-12.1151 612.479,-14.1107 621.858,-19.0394 622.884,-12.1151"/>
</g>
<!-- Node21&#45;&gt;Node18 -->
<g id="edge34" class="edge"><title>Node21&#45;&gt;Node18</title>
<path fill="none" stroke="midnightblue" d="M926.674,-230.018C975.511,-224.808 1063.87,-212.219 1083,-188 1107.68,-156.751 1079.2,-108.911 1060.58,-83.7691"/>
<polygon fill="midnightblue" stroke="midnightblue" points="1063.16,-81.387 1054.28,-75.6062 1057.62,-85.6622 1063.16,-81.387"/>
</g>
<!-- Node21&#45;&gt;Node22 -->
<g id="edge33" class="edge"><title>Node21&#45;&gt;Node22</title>
<path fill="none" stroke="midnightblue" d="M926.726,-233.328C972.476,-232.325 1056.6,-225.037 1116,-188 1134.43,-176.506 1148.65,-155.624 1157.14,-140.627"/>
<polygon fill="midnightblue" stroke="midnightblue" points="1160.24,-142.248 1161.87,-131.779 1154.07,-138.946 1160.24,-142.248"/>
</g>
<!-- Node23 -->
<g id="node23" class="node"><title>Node23</title>
<g id="a_node23"><a xlink:href="XmlSink_8h.html" target="_top" xlink:title="XmlSink.h">
<polygon fill="white" stroke="black" points="862,-168.5 862,-187.5 926,-187.5 926,-168.5 862,-168.5"/>
<text text-anchor="middle" x="894" y="-175.5" font-family="Verdana" font-size="10.00">XmlSink.h</text>
</a>
</g>
</g>
<!-- Node21&#45;&gt;Node23 -->
<g id="edge35" class="edge"><title>Node21&#45;&gt;Node23</title>
<path fill="none" stroke="midnightblue" d="M894,-224.083C894,-217.006 894,-206.861 894,-197.986"/>
<polygon fill="midnightblue" stroke="midnightblue" points="897.5,-197.751 894,-187.751 890.5,-197.751 897.5,-197.751"/>
</g>
<!-- Node27 -->
<g id="node27" class="node"><title>Node27</title>
<g id="a_node27"><a xlink:href="XmlSource_8h.html" target="_top" xlink:title="XmlSource.h">
<polygon fill="white" stroke="black" points="766.5,-168.5 766.5,-187.5 843.5,-187.5 843.5,-168.5 766.5,-168.5"/>
<text text-anchor="middle" x="805" y="-175.5" font-family="Verdana" font-size="10.00">XmlSource.h</text>
</a>
</g>
</g>
<!-- Node21&#45;&gt;Node27 -->
<g id="edge44" class="edge"><title>Node21&#45;&gt;Node27</title>
<path fill="none" stroke="midnightblue" d="M879.701,-224.324C865.817,-215.9 844.508,-202.971 828.196,-193.074"/>
<polygon fill="midnightblue" stroke="midnightblue" points="829.629,-189.85 819.264,-187.655 825.998,-195.834 829.629,-189.85"/>
</g>
<!-- Node28 -->
<g id="node28" class="node"><title>Node28</title>
<g id="a_node28"><a xlink:href="PathNavigator_8h.html" target="_top" xlink:title="PathNavigator.h">
<polygon fill="white" stroke="black" points="982,-168.5 982,-187.5 1074,-187.5 1074,-168.5 982,-168.5"/>
<text text-anchor="middle" x="1028" y="-175.5" font-family="Verdana" font-size="10.00">PathNavigator.h</text>
</a>
</g>
</g>
<!-- Node21&#45;&gt;Node28 -->
<g id="edge47" class="edge"><title>Node21&#45;&gt;Node28</title>
<path fill="none" stroke="midnightblue" d="M915.233,-224.444C937.384,-215.517 972.319,-201.439 997.436,-191.317"/>
<polygon fill="midnightblue" stroke="midnightblue" points="998.9,-194.501 1006.87,-187.516 996.283,-188.008 998.9,-194.501"/>
</g>
<!-- Node24 -->
<g id="node24" class="node"><title>Node24</title>
<g id="a_node24"><a xlink:href="XmlElement_8h.html" target="_top" xlink:title="XmlElement.h">
<polygon fill="white" stroke="black" points="842.5,-112.5 842.5,-131.5 925.5,-131.5 925.5,-112.5 842.5,-112.5"/>
<text text-anchor="middle" x="884" y="-119.5" font-family="Verdana" font-size="10.00">XmlElement.h</text>
</a>
</g>
</g>
<!-- Node23&#45;&gt;Node24 -->
<g id="edge36" class="edge"><title>Node23&#45;&gt;Node24</title>
<path fill="none" stroke="midnightblue" d="M892.349,-168.083C891.024,-160.927 889.118,-150.635 887.461,-141.691"/>
<polygon fill="midnightblue" stroke="midnightblue" points="890.883,-140.947 885.621,-131.751 884,-142.221 890.883,-140.947"/>
</g>
<!-- Node25 -->
<g id="node25" class="node"><title>Node25</title>
<g id="a_node25"><a xlink:href="XmlSerializingContext_8h.html" target="_top" xlink:title="XmlSerializingContext.h">
<polygon fill="white" stroke="black" points="694,-112.5 694,-131.5 824,-131.5 824,-112.5 694,-112.5"/>
<text text-anchor="middle" x="759" y="-119.5" font-family="Verdana" font-size="10.00">XmlSerializingContext.h</text>
</a>
</g>
</g>
<!-- Node23&#45;&gt;Node25 -->
<g id="edge39" class="edge"><title>Node23&#45;&gt;Node25</title>
<path fill="none" stroke="midnightblue" d="M872.609,-168.444C850.293,-159.517 815.097,-145.439 789.792,-135.317"/>
<polygon fill="midnightblue" stroke="midnightblue" points="790.876,-131.981 780.291,-131.516 788.276,-138.48 790.876,-131.981"/>
</g>
<!-- Node24&#45;&gt;Node6 -->
<g id="edge38" class="edge"><title>Node24&#45;&gt;Node6</title>
<path fill="none" stroke="midnightblue" d="M860.93,-112.368C808.721,-92.8344 681.429,-45.2082 621.8,-22.8979"/>
<polygon fill="midnightblue" stroke="midnightblue" points="622.75,-19.5167 612.158,-19.2904 620.297,-26.0728 622.75,-19.5167"/>
</g>
<!-- Node24&#45;&gt;Node18 -->
<g id="edge37" class="edge"><title>Node24&#45;&gt;Node18</title>
<path fill="none" stroke="midnightblue" d="M909.828,-112.444C937.249,-103.359 980.777,-88.9388 1011.43,-78.7831"/>
<polygon fill="midnightblue" stroke="midnightblue" points="1012.9,-81.9837 1021.29,-75.5164 1010.7,-75.3389 1012.9,-81.9837"/>
</g>
<!-- Node25&#45;&gt;Node6 -->
<g id="edge43" class="edge"><title>Node25&#45;&gt;Node6</title>
<path fill="none" stroke="midnightblue" d="M745.739,-112.368C716.738,-93.4924 647.437,-48.385 611.873,-25.2367"/>
<polygon fill="midnightblue" stroke="midnightblue" points="613.49,-22.1132 603.2,-19.5914 609.671,-27.9799 613.49,-22.1132"/>
</g>
<!-- Node26 -->
<g id="node26" class="node"><title>Node26</title>
<g id="a_node26"><a xlink:href="ErrorContext_8hpp.html" target="_top" xlink:title="ErrorContext.hpp">
<polygon fill="white" stroke="black" points="388,-56.5 388,-75.5 486,-75.5 486,-56.5 388,-56.5"/>
<text text-anchor="middle" x="437" y="-63.5" font-family="Verdana" font-size="10.00">ErrorContext.hpp</text>
</a>
</g>
</g>
<!-- Node25&#45;&gt;Node26 -->
<g id="edge40" class="edge"><title>Node25&#45;&gt;Node26</title>
<path fill="none" stroke="midnightblue" d="M707.978,-112.444C650.479,-102.801 557.131,-87.1461 496.399,-76.9613"/>
<polygon fill="midnightblue" stroke="midnightblue" points="496.64,-73.453 486.199,-75.2508 495.483,-80.3566 496.64,-73.453"/>
</g>
<!-- Node26&#45;&gt;Node6 -->
<g id="edge41" class="edge"><title>Node26&#45;&gt;Node6</title>
<path fill="none" stroke="midnightblue" d="M461.243,-56.4435C487.474,-47.1858 529.405,-32.3866 558.248,-22.2066"/>
<polygon fill="midnightblue" stroke="midnightblue" points="559.592,-25.4438 567.857,-18.8151 557.262,-18.8429 559.592,-25.4438"/>
</g>
<!-- Node26&#45;&gt;Node17 -->
<g id="edge42" class="edge"><title>Node26&#45;&gt;Node17</title>
<path fill="none" stroke="midnightblue" d="M429.074,-56.083C422.154,-48.2982 411.935,-36.8015 403.548,-27.3665"/>
<polygon fill="midnightblue" stroke="midnightblue" points="406.038,-24.8999 396.779,-19.7511 400.806,-29.5505 406.038,-24.8999"/>
</g>
<!-- Node27&#45;&gt;Node24 -->
<g id="edge45" class="edge"><title>Node27&#45;&gt;Node24</title>
<path fill="none" stroke="midnightblue" d="M817.693,-168.324C829.901,-159.979 848.578,-147.212 863.003,-137.352"/>
<polygon fill="midnightblue" stroke="midnightblue" points="865.058,-140.187 871.339,-131.655 861.108,-134.408 865.058,-140.187"/>
</g>
<!-- Node27&#45;&gt;Node25 -->
<g id="edge46" class="edge"><title>Node27&#45;&gt;Node25</title>
<path fill="none" stroke="midnightblue" d="M797.404,-168.083C790.773,-160.298 780.979,-148.801 772.942,-139.367"/>
<polygon fill="midnightblue" stroke="midnightblue" points="775.604,-137.094 766.455,-131.751 770.275,-141.633 775.604,-137.094"/>
</g>
<!-- Node28&#45;&gt;Node6 -->
<g id="edge49" class="edge"><title>Node28&#45;&gt;Node6</title>
<path fill="none" stroke="midnightblue" d="M1026.61,-168.474C1022.41,-145.825 1007.66,-83.983 968,-56 912.574,-16.8916 702.976,-11.5682 622.103,-10.9939"/>
<polygon fill="midnightblue" stroke="midnightblue" points="622.032,-7.49359 612.014,-10.9426 621.996,-14.4935 622.032,-7.49359"/>
</g>
<!-- Node28&#45;&gt;Node18 -->
<g id="edge50" class="edge"><title>Node28&#45;&gt;Node18</title>
<path fill="none" stroke="midnightblue" d="M1029.49,-168.368C1032.56,-150.617 1039.63,-109.666 1043.79,-85.5974"/>
<polygon fill="midnightblue" stroke="midnightblue" points="1047.26,-86.0413 1045.52,-75.5914 1040.36,-84.8498 1047.26,-86.0413"/>
</g>
<!-- Node28&#45;&gt;Node22 -->
<g id="edge48" class="edge"><title>Node28&#45;&gt;Node22</title>
<path fill="none" stroke="midnightblue" d="M1049.87,-168.444C1072.78,-159.478 1108.98,-145.314 1134.87,-135.183"/>
<polygon fill="midnightblue" stroke="midnightblue" points="1136.2,-138.42 1144.24,-131.516 1133.65,-131.901 1136.2,-138.42"/>
</g>
<!-- Node29&#45;&gt;Node3 -->
<g id="edge54" class="edge"><title>Node29&#45;&gt;Node3</title>
<path fill="none" stroke="midnightblue" d="M738.702,-280.368C723.219,-262.055 686.86,-219.049 666.834,-195.362"/>
<polygon fill="midnightblue" stroke="midnightblue" points="669.393,-192.968 660.264,-187.591 664.047,-197.488 669.393,-192.968"/>
</g>
<!-- Node29&#45;&gt;Node6 -->
<g id="edge56" class="edge"><title>Node29&#45;&gt;Node6</title>
<path fill="none" stroke="midnightblue" d="M745.497,-280.264C743.995,-259.596 738.293,-206.539 718,-168 707.887,-148.795 699.045,-148.548 685,-132 654.333,-95.8682 620.536,-51.691 602.683,-27.9813"/>
<polygon fill="midnightblue" stroke="midnightblue" points="605.262,-25.5863 596.46,-19.688 599.662,-29.7874 605.262,-25.5863"/>
</g>
<!-- Node29&#45;&gt;Node21 -->
<g id="edge55" class="edge"><title>Node29&#45;&gt;Node21</title>
<path fill="none" stroke="midnightblue" d="M769.451,-280.444C794.133,-271.438 833.185,-257.189 860.977,-247.049"/>
<polygon fill="midnightblue" stroke="midnightblue" points="862.464,-250.232 870.659,-243.516 860.065,-243.656 862.464,-250.232"/>
</g>
<!-- Node30&#45;&gt;Node3 -->
<g id="edge60" class="edge"><title>Node30&#45;&gt;Node3</title>
<path fill="none" stroke="midnightblue" d="M1159.91,-227.968C1058.06,-218.13 832.668,-196.356 719.934,-185.466"/>
<polygon fill="midnightblue" stroke="midnightblue" points="720.002,-181.956 709.712,-184.478 719.329,-188.924 720.002,-181.956"/>
</g>
<!-- Node30&#45;&gt;Node6 -->
<g id="edge62" class="edge"><title>Node30&#45;&gt;Node6</title>
<path fill="none" stroke="midnightblue" d="M1217.38,-224.443C1222.56,-215.678 1230.01,-201.467 1233,-188 1240.44,-154.469 1241.49,-137.96 1219,-112 1175.93,-62.2818 1145.9,-71.6118 1082,-56 912.894,-14.6846 702.689,-10.5948 622.837,-10.6739"/>
<polygon fill="midnightblue" stroke="midnightblue" points="622.44,-7.17513 612.452,-10.7093 622.464,-14.1751 622.44,-7.17513"/>
</g>
<!-- Node30&#45;&gt;Node18 -->
<g id="edge61" class="edge"><title>Node30&#45;&gt;Node18</title>
<path fill="none" stroke="midnightblue" d="M1214.1,-224.35C1218.84,-202.453 1227.88,-144.28 1199,-112 1169.98,-79.5638 1118.81,-70.0297 1083.93,-67.4804"/>
<polygon fill="midnightblue" stroke="midnightblue" points="1083.85,-63.9705 1073.67,-66.8959 1083.46,-70.9591 1083.85,-63.9705"/>
</g>
<!-- Node30&#45;&gt;Node22 -->
<g id="edge63" class="edge"><title>Node30&#45;&gt;Node22</title>
<path fill="none" stroke="midnightblue" d="M1210,-224.366C1206.93,-211.702 1200.49,-187.481 1192,-168 1187.85,-158.489 1182.18,-148.442 1177.2,-140.26"/>
<polygon fill="midnightblue" stroke="midnightblue" points="1180.08,-138.26 1171.79,-131.656 1174.15,-141.985 1180.08,-138.26"/>
</g>
</g>
</svg>
