<?xml version="1.0" encoding="UTF-8" standalone="no"?>
<!DOCTYPE svg PUBLIC "-//W3C//DTD SVG 1.1//EN"
 "http://www.w3.org/Graphics/SVG/1.1/DTD/svg11.dtd">
<!-- Generated by graphviz version 2.38.0 (20140413.2041)
 -->
<!-- Title: /home/dawagner/dev/parameter&#45;framework/parameter/FrameworkConfigurationLocation.cpp Pages: 1 -->
<svg width="565pt" height="341pt"
 viewBox="0.00 0.00 564.50 341.00" xmlns="http://www.w3.org/2000/svg" xmlns:xlink="http://www.w3.org/1999/xlink">
<g id="graph0" class="graph" transform="scale(1 1) rotate(0) translate(4 337)">
<title>/home/dawagner/dev/parameter&#45;framework/parameter/FrameworkConfigurationLocation.cpp</title>
<polygon fill="white" stroke="none" points="-4,4 -4,-337 560.5,-337 560.5,4 -4,4"/>
<!-- Node1 -->
<g id="node1" class="node"><title>Node1</title>
<polygon fill="#bfbfbf" stroke="black" points="64.5,-280.5 64.5,-332.5 253.5,-332.5 253.5,-280.5 64.5,-280.5"/>
<text text-anchor="start" x="72.5" y="-320.5" font-family="Verdana" font-size="10.00">/home/dawagner/dev</text>
<text text-anchor="start" x="72.5" y="-309.5" font-family="Verdana" font-size="10.00">/parameter&#45;framework</text>
<text text-anchor="start" x="72.5" y="-298.5" font-family="Verdana" font-size="10.00">/parameter/FrameworkConfiguration</text>
<text text-anchor="middle" x="159" y="-287.5" font-family="Verdana" font-size="10.00">Location.cpp</text>
</g>
<!-- Node2 -->
<g id="node2" class="node"><title>Node2</title>
<g id="a_node2"><a xlink:href="FrameworkConfigurationLocation_8h.html" target="_top" xlink:title="FrameworkConfigurationLocation.h">
<polygon fill="white" stroke="black" points="0,-224.5 0,-243.5 182,-243.5 182,-224.5 0,-224.5"/>
<text text-anchor="middle" x="91" y="-231.5" font-family="Verdana" font-size="10.00">FrameworkConfigurationLocation.h</text>
</a>
</g>
</g>
<!-- Node1&#45;&gt;Node2 -->
<g id="edge1" class="edge"><title>Node1&#45;&gt;Node2</title>
<path fill="none" stroke="midnightblue" d="M134.834,-280.446C125.365,-270.628 114.782,-259.656 106.387,-250.952"/>
<polygon fill="midnightblue" stroke="midnightblue" points="108.849,-248.463 99.3871,-243.695 103.81,-253.323 108.849,-248.463"/>
</g>
<!-- Node12 -->
<g id="node12" class="node"><title>Node12</title>
<polygon fill="white" stroke="#bfbfbf" points="200,-224.5 200,-243.5 256,-243.5 256,-224.5 200,-224.5"/>
<text text-anchor="middle" x="228" y="-231.5" font-family="Verdana" font-size="10.00">assert.h</text>
</g>
<!-- Node1&#45;&gt;Node12 -->
<g id="edge16" class="edge"><title>Node1&#45;&gt;Node12</title>
<path fill="none" stroke="midnightblue" d="M183.521,-280.446C193.13,-270.628 203.869,-259.656 212.387,-250.952"/>
<polygon fill="midnightblue" stroke="midnightblue" points="214.996,-253.29 219.49,-243.695 209.994,-248.394 214.996,-253.29"/>
</g>
<!-- Node3 -->
<g id="node3" class="node"><title>Node3</title>
<g id="a_node3"><a xlink:href="KindElement_8h.html" target="_top" xlink:title="KindElement.h">
<polygon fill="white" stroke="black" points="84,-168.5 84,-187.5 170,-187.5 170,-168.5 84,-168.5"/>
<text text-anchor="middle" x="127" y="-175.5" font-family="Verdana" font-size="10.00">KindElement.h</text>
</a>
</g>
</g>
<!-- Node2&#45;&gt;Node3 -->
<g id="edge2" class="edge"><title>Node2&#45;&gt;Node3</title>
<path fill="none" stroke="midnightblue" d="M96.9447,-224.083C101.977,-216.534 109.337,-205.495 115.513,-196.23"/>
<polygon fill="midnightblue" stroke="midnightblue" points="118.531,-198.013 121.166,-187.751 112.707,-194.13 118.531,-198.013"/>
</g>
<!-- Node5 -->
<g id="node5" class="node"><title>Node5</title>
<polygon fill="white" stroke="#bfbfbf" points="91,-0.5 91,-19.5 135,-19.5 135,-0.5 91,-0.5"/>
<text text-anchor="middle" x="113" y="-7.5" font-family="Verdana" font-size="10.00">string</text>
</g>
<!-- Node2&#45;&gt;Node5 -->
<g id="edge15" class="edge"><title>Node2&#45;&gt;Node5</title>
<path fill="none" stroke="midnightblue" d="M86.8888,-224.277C82.9413,-215.383 77.255,-201.074 75,-188 73.4891,-179.24 73.9471,-176.826 75,-168 81.0976,-116.887 97.9864,-58.3589 107.057,-29.3249"/>
<polygon fill="midnightblue" stroke="midnightblue" points="110.417,-30.3089 110.112,-19.7184 103.746,-28.1875 110.417,-30.3089"/>
</g>
<!-- Node4 -->
<g id="node4" class="node"><title>Node4</title>
<g id="a_node4"><a xlink:href="Element_8h.html" target="_top" xlink:title="Element.h">
<polygon fill="white" stroke="black" points="251.5,-112.5 251.5,-131.5 316.5,-131.5 316.5,-112.5 251.5,-112.5"/>
<text text-anchor="middle" x="284" y="-119.5" font-family="Verdana" font-size="10.00">Element.h</text>
</a>
</g>
</g>
<!-- Node3&#45;&gt;Node4 -->
<g id="edge3" class="edge"><title>Node3&#45;&gt;Node4</title>
<path fill="none" stroke="midnightblue" d="M151.877,-168.444C178.289,-159.359 220.215,-144.939 249.742,-134.783"/>
<polygon fill="midnightblue" stroke="midnightblue" points="250.921,-138.079 259.239,-131.516 248.645,-131.459 250.921,-138.079"/>
</g>
<!-- Node3&#45;&gt;Node5 -->
<g id="edge14" class="edge"><title>Node3&#45;&gt;Node5</title>
<path fill="none" stroke="midnightblue" d="M126.247,-168.075C124.044,-141.945 117.572,-65.2106 114.567,-29.577"/>
<polygon fill="midnightblue" stroke="midnightblue" points="118.051,-29.2386 113.723,-19.5681 111.075,-29.8269 118.051,-29.2386"/>
</g>
<!-- Node4&#45;&gt;Node5 -->
<g id="edge4" class="edge"><title>Node4&#45;&gt;Node5</title>
<path fill="none" stroke="midnightblue" d="M251.34,-116.559C222.314,-111.187 180.095,-99.7213 151,-76 136,-63.7699 125.639,-43.9437 119.57,-29.3991"/>
<polygon fill="midnightblue" stroke="midnightblue" points="122.777,-27.9885 115.903,-19.926 116.249,-30.5152 122.777,-27.9885"/>
</g>
<!-- Node6 -->
<g id="node6" class="node"><title>Node6</title>
<polygon fill="white" stroke="#bfbfbf" points="509.5,-0.5 509.5,-19.5 556.5,-19.5 556.5,-0.5 509.5,-0.5"/>
<text text-anchor="middle" x="533" y="-7.5" font-family="Verdana" font-size="10.00">vector</text>
</g>
<!-- Node4&#45;&gt;Node6 -->
<g id="edge5" class="edge"><title>Node4&#45;&gt;Node6</title>
<path fill="none" stroke="midnightblue" d="M316.703,-117.973C370.731,-112.385 475.499,-98.8806 504,-76 518.282,-64.5341 525.747,-44.5561 529.502,-29.7662"/>
<polygon fill="midnightblue" stroke="midnightblue" points="532.987,-30.2111 531.701,-19.6946 526.148,-28.7177 532.987,-30.2111"/>
</g>
<!-- Node7 -->
<g id="node7" class="node"><title>Node7</title>
<polygon fill="white" stroke="#bfbfbf" points="416.5,-0.5 416.5,-19.5 469.5,-19.5 469.5,-0.5 416.5,-0.5"/>
<text text-anchor="middle" x="443" y="-7.5" font-family="Verdana" font-size="10.00">stdint.h</text>
</g>
<!-- Node4&#45;&gt;Node7 -->
<g id="edge6" class="edge"><title>Node4&#45;&gt;Node7</title>
<path fill="none" stroke="midnightblue" d="M316.52,-118.619C368.346,-114.073 465.986,-102.182 487,-76 500.268,-59.4693 481.168,-39.0299 464.136,-25.5346"/>
<polygon fill="midnightblue" stroke="midnightblue" points="466.196,-22.7042 456.092,-19.515 462.002,-28.3087 466.196,-22.7042"/>
</g>
<!-- Node8 -->
<g id="node8" class="node"><title>Node8</title>
<polygon fill="white" stroke="#bfbfbf" points="160,-56.5 160,-75.5 190,-75.5 190,-56.5 160,-56.5"/>
<text text-anchor="middle" x="175" y="-63.5" font-family="Verdana" font-size="10.00">list</text>
</g>
<!-- Node4&#45;&gt;Node8 -->
<g id="edge7" class="edge"><title>Node4&#45;&gt;Node8</title>
<path fill="none" stroke="midnightblue" d="M266.487,-112.324C248.2,-103.264 219.394,-88.9933 198.996,-78.8881"/>
<polygon fill="midnightblue" stroke="midnightblue" points="200.527,-75.7407 190.013,-74.4376 197.42,-82.0131 200.527,-75.7407"/>
</g>
<!-- Node9 -->
<g id="node9" class="node"><title>Node9</title>
<polygon fill="white" stroke="#bfbfbf" points="208,-56.5 208,-75.5 272,-75.5 272,-56.5 208,-56.5"/>
<text text-anchor="middle" x="240" y="-63.5" font-family="Verdana" font-size="10.00">XmlSink.h</text>
</g>
<!-- Node4&#45;&gt;Node9 -->
<g id="edge8" class="edge"><title>Node4&#45;&gt;Node9</title>
<path fill="none" stroke="midnightblue" d="M276.734,-112.083C270.455,-104.377 261.212,-93.0333 253.569,-83.6531"/>
<polygon fill="midnightblue" stroke="midnightblue" points="256.161,-81.2926 247.131,-75.7511 250.734,-85.7143 256.161,-81.2926"/>
</g>
<!-- Node10 -->
<g id="node10" class="node"><title>Node10</title>
<polygon fill="white" stroke="#bfbfbf" points="290.5,-56.5 290.5,-75.5 367.5,-75.5 367.5,-56.5 290.5,-56.5"/>
<text text-anchor="middle" x="329" y="-63.5" font-family="Verdana" font-size="10.00">XmlSource.h</text>
</g>
<!-- Node4&#45;&gt;Node10 -->
<g id="edge9" class="edge"><title>Node4&#45;&gt;Node10</title>
<path fill="none" stroke="midnightblue" d="M291.431,-112.083C297.853,-104.377 307.306,-93.0333 315.122,-83.6531"/>
<polygon fill="midnightblue" stroke="midnightblue" points="317.994,-85.674 321.707,-75.7511 312.617,-81.1927 317.994,-85.674"/>
</g>
<!-- Node11 -->
<g id="node11" class="node"><title>Node11</title>
<g id="a_node11"><a xlink:href="PathNavigator_8h.html" target="_top" xlink:title="PathNavigator.h">
<polygon fill="white" stroke="black" points="386,-56.5 386,-75.5 478,-75.5 478,-56.5 386,-56.5"/>
<text text-anchor="middle" x="432" y="-63.5" font-family="Verdana" font-size="10.00">PathNavigator.h</text>
</a>
</g>
</g>
<!-- Node4&#45;&gt;Node11 -->
<g id="edge10" class="edge"><title>Node4&#45;&gt;Node11</title>
<path fill="none" stroke="midnightblue" d="M307.451,-112.444C332.133,-103.438 371.185,-89.1891 398.977,-79.049"/>
<polygon fill="midnightblue" stroke="midnightblue" points="400.464,-82.2321 408.659,-75.5164 398.065,-75.6561 400.464,-82.2321"/>
</g>
<!-- Node11&#45;&gt;Node5 -->
<g id="edge12" class="edge"><title>Node11&#45;&gt;Node5</title>
<path fill="none" stroke="midnightblue" d="M385.955,-57.2056C320.469,-46.1202 202.08,-26.0794 145.206,-16.4518"/>
<polygon fill="midnightblue" stroke="midnightblue" points="145.451,-12.9435 135.007,-14.7253 144.282,-19.8453 145.451,-12.9435"/>
</g>
<!-- Node11&#45;&gt;Node6 -->
<g id="edge11" class="edge"><title>Node11&#45;&gt;Node6</title>
<path fill="none" stroke="midnightblue" d="M448.227,-56.324C464.351,-47.7034 489.3,-34.3643 507.964,-24.3855"/>
<polygon fill="midnightblue" stroke="midnightblue" points="509.644,-27.456 516.813,-19.6545 506.344,-21.283 509.644,-27.456"/>
</g>
<!-- Node11&#45;&gt;Node7 -->
<g id="edge13" class="edge"><title>Node11&#45;&gt;Node7</title>
<path fill="none" stroke="midnightblue" d="M433.816,-56.083C435.274,-48.9272 437.371,-38.6353 439.193,-29.6911"/>
<polygon fill="midnightblue" stroke="midnightblue" points="442.651,-30.2485 441.217,-19.7511 435.792,-28.8512 442.651,-30.2485"/>
</g>
</g>
</svg>
