<?xml version="1.0" encoding="UTF-8" standalone="no"?>
<!DOCTYPE svg PUBLIC "-//W3C//DTD SVG 1.1//EN"
 "http://www.w3.org/Graphics/SVG/1.1/DTD/svg11.dtd">
<!-- Generated by graphviz version 2.36.0 (20140111.2315)
 -->
<!-- Title: parameter/FrameworkConfigurationLocation.h Pages: 1 -->
<svg width="370pt" height="108pt"
 viewBox="0.00 0.00 370.00 108.00" xmlns="http://www.w3.org/2000/svg" xmlns:xlink="http://www.w3.org/1999/xlink">
<g id="graph0" class="graph" transform="scale(1 1) rotate(0) translate(4 104)">
<title>parameter/FrameworkConfigurationLocation.h</title>
<polygon fill="white" stroke="none" points="-4,4 -4,-104 366,-104 366,4 -4,4"/>
<!-- Node1 -->
<g id="node1" class="node"><title>Node1</title>
<polygon fill="#bfbfbf" stroke="black" points="95,-69 95,-99 281,-99 281,-69 95,-69"/>
<text text-anchor="start" x="103" y="-87" font-family="Verdana" font-size="10.00">parameter/FrameworkConfiguration</text>
<text text-anchor="middle" x="188" y="-76" font-family="Verdana" font-size="10.00">Location.h</text>
</g>
<!-- Node2 -->
<g id="node2" class="node"><title>Node2</title>
<g id="a_node2"><a xlink:href="FrameworkConfigurationLocation_8cpp.html" target="_top" xlink:title="parameter/FrameworkConfiguration\lLocation.cpp">
<polygon fill="white" stroke="black" points="0,-1 0,-31 186,-31 186,-1 0,-1"/>
<text text-anchor="start" x="8" y="-19" font-family="Verdana" font-size="10.00">parameter/FrameworkConfiguration</text>
<text text-anchor="middle" x="93" y="-8" font-family="Verdana" font-size="10.00">Location.cpp</text>
</a>
</g>
</g>
<!-- Node1&#45;&gt;Node2 -->
<g id="edge1" class="edge"><title>Node1&#45;&gt;Node2</title>
<path fill="none" stroke="midnightblue" d="M159.051,-62.8884C144.243,-52.6003 126.58,-40.3293 113.247,-31.0663"/>
<polygon fill="midnightblue" stroke="midnightblue" points="157.177,-65.8478 167.386,-68.679 161.171,-60.099 157.177,-65.8478"/>
</g>
<!-- Node3 -->
<g id="node3" class="node"><title>Node3</title>
<g id="a_node3"><a xlink:href="ParameterMgr_8cpp.html" target="_top" xlink:title="parameter/ParameterMgr.cpp">
<polygon fill="white" stroke="black" points="204,-6.5 204,-25.5 362,-25.5 362,-6.5 204,-6.5"/>
<text text-anchor="middle" x="283" y="-13.5" font-family="Verdana" font-size="10.00">parameter/ParameterMgr.cpp</text>
</a>
</g>
</g>
<!-- Node1&#45;&gt;Node3 -->
<g id="edge2" class="edge"><title>Node1&#45;&gt;Node3</title>
<path fill="none" stroke="midnightblue" d="M217.025,-62.8354C234.953,-50.3799 257.041,-35.0346 270.567,-25.6379"/>
<polygon fill="midnightblue" stroke="midnightblue" points="214.829,-60.099 208.614,-68.679 218.823,-65.8478 214.829,-60.099"/>
</g>
</g>
</svg>
