<?xml version="1.0" encoding="UTF-8" standalone="no"?>
<!DOCTYPE svg PUBLIC "-//W3C//DTD SVG 1.1//EN"
 "http://www.w3.org/Graphics/SVG/1.1/DTD/svg11.dtd">
<!-- Generated by graphviz version 2.38.0 (20140413.2041)
 -->
<!-- Title: parameter/FrameworkConfigurationLocation.cpp Pages: 1 -->
<svg width="634pt" height="375pt"
 viewBox="0.00 0.00 634.00 375.00" xmlns="http://www.w3.org/2000/svg" xmlns:xlink="http://www.w3.org/1999/xlink">
<g id="graph0" class="graph" transform="scale(1 1) rotate(0) translate(4 371)">
<title>parameter/FrameworkConfigurationLocation.cpp</title>
<polygon fill="white" stroke="none" points="-4,4 -4,-371 630,-371 630,4 -4,4"/>
<!-- Node1 -->
<g id="node1" class="node"><title>Node1</title>
<polygon fill="#bfbfbf" stroke="black" points="66,-336.5 66,-366.5 252,-366.5 252,-336.5 66,-336.5"/>
<text text-anchor="start" x="74" y="-354.5" font-family="Verdana" font-size="10.00">parameter/FrameworkConfiguration</text>
<text text-anchor="middle" x="159" y="-343.5" font-family="Verdana" font-size="10.00">Location.cpp</text>
</g>
<!-- Node2 -->
<g id="node2" class="node"><title>Node2</title>
<g id="a_node2"><a xlink:href="FrameworkConfigurationLocation_8h.html" target="_top" xlink:title="FrameworkConfigurationLocation.h">
<polygon fill="white" stroke="black" points="0,-280.5 0,-299.5 182,-299.5 182,-280.5 0,-280.5"/>
<text text-anchor="middle" x="91" y="-287.5" font-family="Verdana" font-size="10.00">FrameworkConfigurationLocation.h</text>
</a>
</g>
</g>
<!-- Node1&#45;&gt;Node2 -->
<g id="edge1" class="edge"><title>Node1&#45;&gt;Node2</title>
<path fill="none" stroke="midnightblue" d="M142.885,-336.399C132.596,-327.397 119.253,-315.721 108.674,-306.465"/>
<polygon fill="midnightblue" stroke="midnightblue" points="110.725,-303.609 100.895,-299.658 106.116,-308.877 110.725,-303.609"/>
</g>
<!-- Node14 -->
<g id="node14" class="node"><title>Node14</title>
<polygon fill="white" stroke="#bfbfbf" points="200,-280.5 200,-299.5 256,-299.5 256,-280.5 200,-280.5"/>
<text text-anchor="middle" x="228" y="-287.5" font-family="Verdana" font-size="10.00">assert.h</text>
</g>
<!-- Node1&#45;&gt;Node14 -->
<g id="edge23" class="edge"><title>Node1&#45;&gt;Node14</title>
<path fill="none" stroke="midnightblue" d="M175.352,-336.399C185.895,-327.308 199.6,-315.49 210.384,-306.191"/>
<polygon fill="midnightblue" stroke="midnightblue" points="212.672,-308.839 217.96,-299.658 208.101,-303.538 212.672,-308.839"/>
</g>
<!-- Node3 -->
<g id="node3" class="node"><title>Node3</title>
<g id="a_node3"><a xlink:href="KindElement_8h.html" target="_top" xlink:title="KindElement.h">
<polygon fill="white" stroke="black" points="84,-224.5 84,-243.5 170,-243.5 170,-224.5 84,-224.5"/>
<text text-anchor="middle" x="127" y="-231.5" font-family="Verdana" font-size="10.00">KindElement.h</text>
</a>
</g>
</g>
<!-- Node2&#45;&gt;Node3 -->
<g id="edge2" class="edge"><title>Node2&#45;&gt;Node3</title>
<path fill="none" stroke="midnightblue" d="M96.9447,-280.083C101.977,-272.534 109.337,-261.495 115.513,-252.23"/>
<polygon fill="midnightblue" stroke="midnightblue" points="118.531,-254.013 121.166,-243.751 112.707,-250.13 118.531,-254.013"/>
</g>
<!-- Node5 -->
<g id="node5" class="node"><title>Node5</title>
<polygon fill="white" stroke="#bfbfbf" points="156,-0.5 156,-19.5 200,-19.5 200,-0.5 156,-0.5"/>
<text text-anchor="middle" x="178" y="-7.5" font-family="Verdana" font-size="10.00">string</text>
</g>
<!-- Node2&#45;&gt;Node5 -->
<g id="edge22" class="edge"><title>Node2&#45;&gt;Node5</title>
<path fill="none" stroke="midnightblue" d="M86.2797,-280.456C76.7262,-262.337 56,-218.48 56,-179 56,-179 56,-179 56,-121 56,-72.1755 110.562,-39.4586 146.709,-23.1412"/>
<polygon fill="midnightblue" stroke="midnightblue" points="148.12,-26.3445 155.907,-19.1598 145.339,-19.9205 148.12,-26.3445"/>
</g>
<!-- Node4 -->
<g id="node4" class="node"><title>Node4</title>
<g id="a_node4"><a xlink:href="Element_8h.html" target="_top" xlink:title="Element.h">
<polygon fill="white" stroke="black" points="352.5,-168.5 352.5,-187.5 417.5,-187.5 417.5,-168.5 352.5,-168.5"/>
<text text-anchor="middle" x="385" y="-175.5" font-family="Verdana" font-size="10.00">Element.h</text>
</a>
</g>
</g>
<!-- Node3&#45;&gt;Node4 -->
<g id="edge3" class="edge"><title>Node3&#45;&gt;Node4</title>
<path fill="none" stroke="midnightblue" d="M167.881,-224.444C215.636,-214.448 294.252,-197.994 342.636,-187.867"/>
<polygon fill="midnightblue" stroke="midnightblue" points="343.408,-191.281 352.479,-185.807 341.974,-184.43 343.408,-191.281"/>
</g>
<!-- Node3&#45;&gt;Node5 -->
<g id="edge21" class="edge"><title>Node3&#45;&gt;Node5</title>
<path fill="none" stroke="midnightblue" d="M126.305,-224.154C124.55,-197.629 121.612,-116.832 145,-56 148.983,-45.6404 156.01,-35.5409 162.559,-27.5434"/>
<polygon fill="midnightblue" stroke="midnightblue" points="165.391,-29.6205 169.31,-19.7774 160.108,-25.0277 165.391,-29.6205"/>
</g>
<!-- Node4&#45;&gt;Node5 -->
<g id="edge4" class="edge"><title>Node4&#45;&gt;Node5</title>
<path fill="none" stroke="midnightblue" d="M352.457,-172.094C318.306,-166.043 263.748,-153.783 221,-132 185.501,-113.911 168.259,-111.909 151,-76 143.184,-59.7378 153.367,-40.6111 163.385,-27.3343"/>
<polygon fill="midnightblue" stroke="midnightblue" points="166.135,-29.5006 169.755,-19.5432 160.716,-25.07 166.135,-29.5006"/>
</g>
<!-- Node6 -->
<g id="node6" class="node"><title>Node6</title>
<polygon fill="white" stroke="#bfbfbf" points="535.5,-56.5 535.5,-75.5 582.5,-75.5 582.5,-56.5 535.5,-56.5"/>
<text text-anchor="middle" x="559" y="-63.5" font-family="Verdana" font-size="10.00">vector</text>
</g>
<!-- Node4&#45;&gt;Node6 -->
<g id="edge5" class="edge"><title>Node4&#45;&gt;Node6</title>
<path fill="none" stroke="midnightblue" d="M417.782,-177.84C455.326,-176.887 515.905,-169.144 549,-132 560.028,-119.623 561.763,-100.378 561.2,-86.0363"/>
<polygon fill="midnightblue" stroke="midnightblue" points="564.668,-85.5023 560.388,-75.8105 557.69,-86.056 564.668,-85.5023"/>
</g>
<!-- Node7 -->
<g id="node7" class="node"><title>Node7</title>
<polygon fill="white" stroke="#bfbfbf" points="431.5,-0.5 431.5,-19.5 484.5,-19.5 484.5,-0.5 431.5,-0.5"/>
<text text-anchor="middle" x="458" y="-7.5" font-family="Verdana" font-size="10.00">stdint.h</text>
</g>
<!-- Node4&#45;&gt;Node7 -->
<g id="edge6" class="edge"><title>Node4&#45;&gt;Node7</title>
<path fill="none" stroke="midnightblue" d="M388.925,-168.075C400.465,-141.832 434.453,-64.5453 450.033,-29.1165"/>
<polygon fill="midnightblue" stroke="midnightblue" points="453.41,-30.131 454.232,-19.5681 447.003,-27.3131 453.41,-30.131"/>
</g>
<!-- Node8 -->
<g id="node8" class="node"><title>Node8</title>
<polygon fill="white" stroke="#bfbfbf" points="596,-112.5 596,-131.5 626,-131.5 626,-112.5 596,-112.5"/>
<text text-anchor="middle" x="611" y="-119.5" font-family="Verdana" font-size="10.00">list</text>
</g>
<!-- Node4&#45;&gt;Node8 -->
<g id="edge7" class="edge"><title>Node4&#45;&gt;Node8</title>
<path fill="none" stroke="midnightblue" d="M417.607,-170.349C456.832,-162.165 524.576,-147.445 582,-132 583.26,-131.661 584.547,-131.304 585.845,-130.934"/>
<polygon fill="midnightblue" stroke="midnightblue" points="587.134,-134.202 595.712,-127.984 585.129,-127.495 587.134,-134.202"/>
</g>
<!-- Node9 -->
<g id="node9" class="node"><title>Node9</title>
<g id="a_node9"><a xlink:href="XmlSink_8h.html" target="_top" xlink:title="XmlSink.h">
<polygon fill="white" stroke="black" points="230,-112.5 230,-131.5 294,-131.5 294,-112.5 230,-112.5"/>
<text text-anchor="middle" x="262" y="-119.5" font-family="Verdana" font-size="10.00">XmlSink.h</text>
</a>
</g>
</g>
<!-- Node4&#45;&gt;Node9 -->
<g id="edge8" class="edge"><title>Node4&#45;&gt;Node9</title>
<path fill="none" stroke="midnightblue" d="M365.51,-168.444C345.358,-159.596 313.677,-145.687 290.669,-135.586"/>
<polygon fill="midnightblue" stroke="midnightblue" points="291.962,-132.332 281.399,-131.516 289.148,-138.741 291.962,-132.332"/>
</g>
<!-- Node12 -->
<g id="node12" class="node"><title>Node12</title>
<g id="a_node12"><a xlink:href="XmlSource_8h.html" target="_top" xlink:title="XmlSource.h">
<polygon fill="white" stroke="black" points="312.5,-112.5 312.5,-131.5 389.5,-131.5 389.5,-112.5 312.5,-112.5"/>
<text text-anchor="middle" x="351" y="-119.5" font-family="Verdana" font-size="10.00">XmlSource.h</text>
</a>
</g>
</g>
<!-- Node4&#45;&gt;Node12 -->
<g id="edge14" class="edge"><title>Node4&#45;&gt;Node12</title>
<path fill="none" stroke="midnightblue" d="M379.386,-168.083C374.633,-160.534 367.682,-149.495 361.848,-140.23"/>
<polygon fill="midnightblue" stroke="midnightblue" points="364.8,-138.349 356.51,-131.751 358.876,-142.078 364.8,-138.349"/>
</g>
<!-- Node13 -->
<g id="node13" class="node"><title>Node13</title>
<g id="a_node13"><a xlink:href="PathNavigator_8h.html" target="_top" xlink:title="PathNavigator.h">
<polygon fill="white" stroke="black" points="448,-112.5 448,-131.5 540,-131.5 540,-112.5 448,-112.5"/>
<text text-anchor="middle" x="494" y="-119.5" font-family="Verdana" font-size="10.00">PathNavigator.h</text>
</a>
</g>
</g>
<!-- Node4&#45;&gt;Node13 -->
<g id="edge17" class="edge"><title>Node4&#45;&gt;Node13</title>
<path fill="none" stroke="midnightblue" d="M402.513,-168.324C420.072,-159.625 447.331,-146.12 467.531,-136.113"/>
<polygon fill="midnightblue" stroke="midnightblue" points="469.124,-139.23 476.531,-131.655 466.016,-132.958 469.124,-139.23"/>
</g>
<!-- Node10 -->
<g id="node10" class="node"><title>Node10</title>
<g id="a_node10"><a xlink:href="XmlElement_8h.html" target="_top" xlink:title="XmlElement.h">
<polygon fill="white" stroke="black" points="308.5,-56.5 308.5,-75.5 391.5,-75.5 391.5,-56.5 308.5,-56.5"/>
<text text-anchor="middle" x="350" y="-63.5" font-family="Verdana" font-size="10.00">XmlElement.h</text>
</a>
</g>
</g>
<!-- Node9&#45;&gt;Node10 -->
<g id="edge9" class="edge"><title>Node9&#45;&gt;Node10</title>
<path fill="none" stroke="midnightblue" d="M276.139,-112.324C289.866,-103.9 310.936,-90.9709 327.064,-81.0741"/>
<polygon fill="midnightblue" stroke="midnightblue" points="329.204,-83.8678 335.896,-75.6545 325.543,-77.9016 329.204,-83.8678"/>
</g>
<!-- Node11 -->
<g id="node11" class="node"><title>Node11</title>
<g id="a_node11"><a xlink:href="XmlSerializingContext_8h.html" target="_top" xlink:title="XmlSerializingContext.h">
<polygon fill="white" stroke="black" points="160,-56.5 160,-75.5 290,-75.5 290,-56.5 160,-56.5"/>
<text text-anchor="middle" x="225" y="-63.5" font-family="Verdana" font-size="10.00">XmlSerializingContext.h</text>
</a>
</g>
</g>
<!-- Node9&#45;&gt;Node11 -->
<g id="edge12" class="edge"><title>Node9&#45;&gt;Node11</title>
<path fill="none" stroke="midnightblue" d="M255.89,-112.083C250.718,-104.534 243.154,-93.4948 236.806,-84.2298"/>
<polygon fill="midnightblue" stroke="midnightblue" points="239.536,-82.0221 230.996,-75.7511 233.761,-85.9787 239.536,-82.0221"/>
</g>
<!-- Node10&#45;&gt;Node5 -->
<g id="edge11" class="edge"><title>Node10&#45;&gt;Node5</title>
<path fill="none" stroke="midnightblue" d="M322.746,-56.4435C292.146,-46.8366 242.539,-31.2622 210.09,-21.0749"/>
<polygon fill="midnightblue" stroke="midnightblue" points="210.793,-17.6271 200.204,-17.971 208.696,-24.3057 210.793,-17.6271"/>
</g>
<!-- Node10&#45;&gt;Node7 -->
<g id="edge10" class="edge"><title>Node10&#45;&gt;Node7</title>
<path fill="none" stroke="midnightblue" d="M367.352,-56.324C384.672,-47.6641 411.515,-34.2424 431.502,-24.249"/>
<polygon fill="midnightblue" stroke="midnightblue" points="433.312,-27.2572 440.691,-19.6545 430.181,-20.9962 433.312,-27.2572"/>
</g>
<!-- Node11&#45;&gt;Node5 -->
<g id="edge13" class="edge"><title>Node11&#45;&gt;Node5</title>
<path fill="none" stroke="midnightblue" d="M217.239,-56.083C210.463,-48.2982 200.457,-36.8015 192.245,-27.3665"/>
<polygon fill="midnightblue" stroke="midnightblue" points="194.822,-24.9963 185.617,-19.7511 189.542,-29.592 194.822,-24.9963"/>
</g>
<!-- Node12&#45;&gt;Node10 -->
<g id="edge15" class="edge"><title>Node12&#45;&gt;Node10</title>
<path fill="none" stroke="midnightblue" d="M350.835,-112.083C350.704,-105.006 350.516,-94.8611 350.352,-85.9865"/>
<polygon fill="midnightblue" stroke="midnightblue" points="353.847,-85.6845 350.162,-75.7511 346.848,-85.8142 353.847,-85.6845"/>
</g>
<!-- Node12&#45;&gt;Node11 -->
<g id="edge16" class="edge"><title>Node12&#45;&gt;Node11</title>
<path fill="none" stroke="midnightblue" d="M331.035,-112.444C310.391,-103.596 277.937,-89.6875 254.368,-79.5865"/>
<polygon fill="midnightblue" stroke="midnightblue" points="255.442,-76.2387 244.872,-75.5164 252.684,-82.6727 255.442,-76.2387"/>
</g>
<!-- Node13&#45;&gt;Node5 -->
<g id="edge19" class="edge"><title>Node13&#45;&gt;Node5</title>
<path fill="none" stroke="midnightblue" d="M484.375,-112.321C468.191,-98.2186 433.955,-70.4559 400,-56 336.155,-28.8189 254.853,-17.7289 210.491,-13.4613"/>
<polygon fill="midnightblue" stroke="midnightblue" points="210.577,-9.95481 200.302,-12.5396 209.946,-16.9264 210.577,-9.95481"/>
</g>
<!-- Node13&#45;&gt;Node6 -->
<g id="edge18" class="edge"><title>Node13&#45;&gt;Node6</title>
<path fill="none" stroke="midnightblue" d="M504.443,-112.324C514.146,-104.263 528.815,-92.0765 540.5,-82.3695"/>
<polygon fill="midnightblue" stroke="midnightblue" points="542.911,-84.9163 548.367,-75.8339 538.438,-79.532 542.911,-84.9163"/>
</g>
<!-- Node13&#45;&gt;Node7 -->
<g id="edge20" class="edge"><title>Node13&#45;&gt;Node7</title>
<path fill="none" stroke="midnightblue" d="M491.175,-112.368C485.339,-94.5366 471.842,-53.2953 463.98,-29.2717"/>
<polygon fill="midnightblue" stroke="midnightblue" points="467.249,-28.0067 460.812,-19.5914 460.596,-30.1841 467.249,-28.0067"/>
</g>
</g>
</svg>
