<?xml version="1.0" encoding="UTF-8" standalone="no"?>
<!DOCTYPE svg PUBLIC "-//W3C//DTD SVG 1.1//EN"
 "http://www.w3.org/Graphics/SVG/1.1/DTD/svg11.dtd">
<!-- Generated by graphviz version 2.38.0 (20140413.2041)
 -->
<!-- Title: Graphical Class Hierarchy Pages: 1 -->
<svg width="467pt" height="28pt"
 viewBox="0.00 0.00 467.00 28.00" xmlns="http://www.w3.org/2000/svg" xmlns:xlink="http://www.w3.org/1999/xlink">
<g id="graph0" class="graph" transform="scale(1 1) rotate(0) translate(4 24)">
<title>Graphical Class Hierarchy</title>
<polygon fill="white" stroke="none" points="-4,4 -4,-24 463,-24 463,4 -4,4"/>
<!-- Node1 -->
<g id="node1" class="node"><title>Node1</title>
<g id="a_node1"><a xlink:href="classCErrorContext.html" target="_top" xlink:title="CErrorContext">
<polygon fill="white" stroke="black" points="0,-0.5 0,-19.5 84,-19.5 84,-0.5 0,-0.5"/>
<text text-anchor="middle" x="42" y="-7.5" font-family="Verdana" font-size="10.00">CErrorContext</text>
</a>
</g>
</g>
<!-- Node2 -->
<g id="node2" class="node"><title>Node2</title>
<g id="a_node2"><a xlink:href="classCParameterAccessContext.html" target="_top" xlink:title="CParameterAccessContext">
<polygon fill="white" stroke="black" points="120,-0.5 120,-19.5 265,-19.5 265,-0.5 120,-0.5"/>
<text text-anchor="middle" x="192.5" y="-7.5" font-family="Verdana" font-size="10.00">CParameterAccessContext</text>
</a>
</g>
</g>
<!-- Node1&#45;&gt;Node2 -->
<g id="edge1" class="edge"><title>Node1&#45;&gt;Node2</title>
<path fill="none" stroke="midnightblue" d="M94.5141,-10C102.727,-10 111.35,-10 119.926,-10"/>
<polygon fill="midnightblue" stroke="midnightblue" points="94.3656,-6.5001 84.3655,-10 94.3655,-13.5001 94.3656,-6.5001"/>
</g>
<!-- Node3 -->
<g id="node3" class="node"><title>Node3</title>
<g id="a_node3"><a xlink:href="classCConfigurationAccessContext.html" target="_top" xlink:title="CConfigurationAccessContext">
<polygon fill="white" stroke="black" points="301,-0.5 301,-19.5 459,-19.5 459,-0.5 301,-0.5"/>
<text text-anchor="middle" x="380" y="-7.5" font-family="Verdana" font-size="10.00">CConfigurationAccessContext</text>
</a>
</g>
</g>
<!-- Node2&#45;&gt;Node3 -->
<g id="edge2" class="edge"><title>Node2&#45;&gt;Node3</title>
<path fill="none" stroke="midnightblue" d="M275.396,-10C283.803,-10 292.332,-10 300.699,-10"/>
<polygon fill="midnightblue" stroke="midnightblue" points="275.219,-6.5001 265.219,-10 275.219,-13.5001 275.219,-6.5001"/>
</g>
</g>
</svg>
