<?xml version="1.0" encoding="UTF-8" standalone="no"?>
<!DOCTYPE svg PUBLIC "-//W3C//DTD SVG 1.1//EN"
 "http://www.w3.org/Graphics/SVG/1.1/DTD/svg11.dtd">
<!-- Generated by graphviz version 2.36.0 (20140111.2315)
 -->
<!-- Title: Graphical Class Hierarchy Pages: 1 -->
<svg width="1366pt" height="895pt"
 viewBox="0.00 0.00 1366.00 895.00" xmlns="http://www.w3.org/2000/svg" xmlns:xlink="http://www.w3.org/1999/xlink">
<g id="graph0" class="graph" transform="scale(1 1) rotate(0) translate(4 891)">
<title>Graphical Class Hierarchy</title>
<polygon fill="white" stroke="none" points="-4,4 -4,-891 1362,-891 1362,4 -4,4"/>
<!-- Node1 -->
<g id="node1" class="node"><title>Node1</title>
<g id="a_node1"><a xlink:href="classIMapper.html" target="_top" xlink:title="IMapper">
<polygon fill="white" stroke="black" points="600.5,-696.5 600.5,-715.5 655.5,-715.5 655.5,-696.5 600.5,-696.5"/>
<text text-anchor="middle" x="628" y="-703.5" font-family="Verdana" font-size="10.00">IMapper</text>
</a>
</g>
</g>
<!-- Node2 -->
<g id="node2" class="node"><title>Node2</title>
<g id="a_node2"><a xlink:href="classCSubsystem.html" target="_top" xlink:title="CSubsystem">
<polygon fill="white" stroke="black" points="806.5,-626.5 806.5,-645.5 883.5,-645.5 883.5,-626.5 806.5,-626.5"/>
<text text-anchor="middle" x="845" y="-633.5" font-family="Verdana" font-size="10.00">CSubsystem</text>
</a>
</g>
</g>
<!-- Node1&#45;&gt;Node2 -->
<g id="edge1" class="edge"><title>Node1&#45;&gt;Node2</title>
<path fill="none" stroke="#8b1a1a" d="M665.931,-699.614C682.081,-696.438 701.148,-692.166 718,-687 756.131,-675.311 798.829,-656.829 823.446,-645.617"/>
<polygon fill="#8b1a1a" stroke="#8b1a1a" points="664.962,-696.235 655.792,-701.541 666.269,-703.112 664.962,-696.235"/>
</g>
<!-- Node3 -->
<g id="node3" class="node"><title>Node3</title>
<g id="a_node3"><a xlink:href="classCVirtualSubsystem.html" target="_top" xlink:title="CVirtualSubsystem">
<polygon fill="white" stroke="black" points="974,-626.5 974,-645.5 1082,-645.5 1082,-626.5 974,-626.5"/>
<text text-anchor="middle" x="1028" y="-633.5" font-family="Verdana" font-size="10.00">CVirtualSubsystem</text>
</a>
</g>
</g>
<!-- Node2&#45;&gt;Node3 -->
<g id="edge2" class="edge"><title>Node2&#45;&gt;Node3</title>
<path fill="none" stroke="midnightblue" d="M893.684,-636C918.293,-636 948.39,-636 973.757,-636"/>
<polygon fill="midnightblue" stroke="midnightblue" points="893.503,-632.5 883.503,-636 893.503,-639.5 893.503,-632.5"/>
</g>
<!-- Node4 -->
<g id="node4" class="node"><title>Node4</title>
<polygon fill="white" stroke="#bfbfbf" points="119,-715.5 119,-734.5 265,-734.5 265,-715.5 119,-715.5"/>
<text text-anchor="middle" x="192" y="-722.5" font-family="Verdana" font-size="10.00">ISelectionCriterionInterface</text>
</g>
<!-- Node5 -->
<g id="node5" class="node"><title>Node5</title>
<g id="a_node5"><a xlink:href="classCSelectionCriterion.html" target="_top" xlink:title="CSelectionCriterion">
<polygon fill="white" stroke="black" points="353,-715.5 353,-734.5 461,-734.5 461,-715.5 353,-715.5"/>
<text text-anchor="middle" x="407" y="-722.5" font-family="Verdana" font-size="10.00">CSelectionCriterion</text>
</a>
</g>
</g>
<!-- Node4&#45;&gt;Node5 -->
<g id="edge3" class="edge"><title>Node4&#45;&gt;Node5</title>
<path fill="none" stroke="midnightblue" d="M275.349,-725C301.363,-725 329.407,-725 352.818,-725"/>
<polygon fill="midnightblue" stroke="midnightblue" points="275.112,-721.5 265.112,-725 275.112,-728.5 275.112,-721.5"/>
</g>
<!-- Node6 -->
<g id="node6" class="node"><title>Node6</title>
<polygon fill="white" stroke="#bfbfbf" points="108.5,-677.5 108.5,-696.5 275.5,-696.5 275.5,-677.5 108.5,-677.5"/>
<text text-anchor="middle" x="192" y="-684.5" font-family="Verdana" font-size="10.00">ISelectionCriterionTypeInterface</text>
</g>
<!-- Node7 -->
<g id="node7" class="node"><title>Node7</title>
<g id="a_node7"><a xlink:href="classCSelectionCriterionType.html" target="_top" xlink:title="CSelectionCriterionType">
<polygon fill="white" stroke="black" points="342.5,-677.5 342.5,-696.5 471.5,-696.5 471.5,-677.5 342.5,-677.5"/>
<text text-anchor="middle" x="407" y="-684.5" font-family="Verdana" font-size="10.00">CSelectionCriterionType</text>
</a>
</g>
</g>
<!-- Node6&#45;&gt;Node7 -->
<g id="edge4" class="edge"><title>Node6&#45;&gt;Node7</title>
<path fill="none" stroke="midnightblue" d="M285.843,-687C304.871,-687 324.489,-687 342.215,-687"/>
<polygon fill="midnightblue" stroke="midnightblue" points="285.656,-683.5 275.656,-687 285.656,-690.5 285.656,-683.5"/>
</g>
<!-- Node8 -->
<g id="node8" class="node"><title>Node8</title>
<polygon fill="white" stroke="#bfbfbf" points="7.5,-342.5 7.5,-361.5 64.5,-361.5 64.5,-342.5 7.5,-342.5"/>
<text text-anchor="middle" x="36" y="-349.5" font-family="Verdana" font-size="10.00">IXmlSink</text>
</g>
<!-- Node9 -->
<g id="node9" class="node"><title>Node9</title>
<g id="a_node9"><a xlink:href="classCElement.html" target="_top" xlink:title="CElement">
<polygon fill="white" stroke="black" points="160.5,-380.5 160.5,-399.5 223.5,-399.5 223.5,-380.5 160.5,-380.5"/>
<text text-anchor="middle" x="192" y="-387.5" font-family="Verdana" font-size="10.00">CElement</text>
</a>
</g>
</g>
<!-- Node8&#45;&gt;Node9 -->
<g id="edge5" class="edge"><title>Node8&#45;&gt;Node9</title>
<path fill="none" stroke="midnightblue" d="M74.5529,-362.323C85.3315,-365.212 97.1133,-368.298 108,-371 125.217,-375.273 144.53,-379.715 160.191,-383.228"/>
<polygon fill="midnightblue" stroke="midnightblue" points="75.1548,-358.86 64.5882,-359.633 73.3305,-365.618 75.1548,-358.86"/>
</g>
<!-- Node58 -->
<g id="node58" class="node"><title>Node58</title>
<g id="a_node58"><a xlink:href="classCMappingData.html" target="_top" xlink:title="CMappingData">
<polygon fill="white" stroke="black" points="148.5,-342.5 148.5,-361.5 235.5,-361.5 235.5,-342.5 148.5,-342.5"/>
<text text-anchor="middle" x="192" y="-349.5" font-family="Verdana" font-size="10.00">CMappingData</text>
</a>
</g>
</g>
<!-- Node8&#45;&gt;Node58 -->
<g id="edge57" class="edge"><title>Node8&#45;&gt;Node58</title>
<path fill="none" stroke="midnightblue" d="M74.6193,-352C96.8972,-352 125.193,-352 148.305,-352"/>
<polygon fill="midnightblue" stroke="midnightblue" points="74.5321,-348.5 64.5321,-352 74.5321,-355.5 74.5321,-348.5"/>
</g>
<!-- Node9&#45;&gt;Node5 -->
<g id="edge41" class="edge"><title>Node9&#45;&gt;Node5</title>
<path fill="none" stroke="midnightblue" d="M194.117,-409.913C198.398,-466.033 218.634,-626.551 312,-706 323.285,-715.603 338.085,-720.825 352.592,-723.552"/>
<polygon fill="midnightblue" stroke="midnightblue" points="197.586,-409.333 193.425,-399.589 190.602,-409.801 197.586,-409.333"/>
</g>
<!-- Node9&#45;&gt;Node7 -->
<g id="edge43" class="edge"><title>Node9&#45;&gt;Node7</title>
<path fill="none" stroke="midnightblue" d="M195.205,-409.57C202.074,-460.805 227.944,-599.624 312,-668 320.654,-675.039 331.216,-679.695 342.096,-682.734"/>
<polygon fill="midnightblue" stroke="midnightblue" points="198.662,-409.008 193.955,-399.517 191.715,-409.872 198.662,-409.008"/>
</g>
<!-- Node10 -->
<g id="node10" class="node"><title>Node10</title>
<g id="a_node10"><a xlink:href="classCBinarySerializableElement.html" target="_top" xlink:title="CBinarySerializableElement">
<polygon fill="white" stroke="black" points="333,-380.5 333,-399.5 481,-399.5 481,-380.5 333,-380.5"/>
<text text-anchor="middle" x="407" y="-387.5" font-family="Verdana" font-size="10.00">CBinarySerializableElement</text>
</a>
</g>
</g>
<!-- Node9&#45;&gt;Node10 -->
<g id="edge6" class="edge"><title>Node9&#45;&gt;Node10</title>
<path fill="none" stroke="midnightblue" d="M233.723,-390C261.701,-390 299.634,-390 332.784,-390"/>
<polygon fill="midnightblue" stroke="midnightblue" points="233.518,-386.5 223.518,-390 233.518,-393.5 233.518,-386.5"/>
</g>
<!-- Node14 -->
<g id="node14" class="node"><title>Node14</title>
<g id="a_node14"><a xlink:href="classCComponentLibrary.html" target="_top" xlink:title="CComponentLibrary">
<polygon fill="white" stroke="black" points="351,-342.5 351,-361.5 463,-361.5 463,-342.5 351,-342.5"/>
<text text-anchor="middle" x="407" y="-349.5" font-family="Verdana" font-size="10.00">CComponentLibrary</text>
</a>
</g>
</g>
<!-- Node9&#45;&gt;Node14 -->
<g id="edge10" class="edge"><title>Node9&#45;&gt;Node14</title>
<path fill="none" stroke="midnightblue" d="M233.491,-382.776C267.228,-376.757 315.557,-368.135 352.483,-361.548"/>
<polygon fill="midnightblue" stroke="midnightblue" points="232.748,-379.354 223.518,-384.556 233.977,-386.245 232.748,-379.354"/>
</g>
<!-- Node15 -->
<g id="node15" class="node"><title>Node15</title>
<g id="a_node15"><a xlink:href="classCConfigurableElement.html" target="_top" xlink:title="CConfigurableElement">
<polygon fill="white" stroke="black" points="345.5,-418.5 345.5,-437.5 468.5,-437.5 468.5,-418.5 345.5,-418.5"/>
<text text-anchor="middle" x="407" y="-425.5" font-family="Verdana" font-size="10.00">CConfigurableElement</text>
</a>
</g>
</g>
<!-- Node9&#45;&gt;Node15 -->
<g id="edge11" class="edge"><title>Node9&#45;&gt;Node15</title>
<path fill="none" stroke="midnightblue" d="M233.491,-397.224C267.228,-403.243 315.557,-411.865 352.483,-418.452"/>
<polygon fill="midnightblue" stroke="midnightblue" points="233.977,-393.755 223.518,-395.444 232.748,-400.646 233.977,-393.755"/>
</g>
<!-- Node27 -->
<g id="node27" class="node"><title>Node27</title>
<g id="a_node27"><a xlink:href="classCEnumValuePair.html" target="_top" xlink:title="CEnumValuePair">
<polygon fill="white" stroke="black" points="359.5,-304.5 359.5,-323.5 454.5,-323.5 454.5,-304.5 359.5,-304.5"/>
<text text-anchor="middle" x="407" y="-311.5" font-family="Verdana" font-size="10.00">CEnumValuePair</text>
</a>
</g>
</g>
<!-- Node9&#45;&gt;Node27 -->
<g id="edge24" class="edge"><title>Node9&#45;&gt;Node27</title>
<path fill="none" stroke="midnightblue" d="M233.691,-385.579C247.757,-382.811 263.19,-378.313 276,-371 296.204,-359.466 291.65,-344.274 312,-333 326.272,-325.093 343.393,-320.455 359.089,-317.743"/>
<polygon fill="midnightblue" stroke="midnightblue" points="233.002,-382.146 223.748,-387.303 234.199,-389.043 233.002,-382.146"/>
</g>
<!-- Node28 -->
<g id="node28" class="node"><title>Node28</title>
<g id="a_node28"><a xlink:href="classCKindElement.html" target="_top" xlink:title="CKindElement">
<polygon fill="white" stroke="black" points="365.5,-247.5 365.5,-266.5 448.5,-266.5 448.5,-247.5 365.5,-247.5"/>
<text text-anchor="middle" x="407" y="-254.5" font-family="Verdana" font-size="10.00">CKindElement</text>
</a>
</g>
</g>
<!-- Node9&#45;&gt;Node28 -->
<g id="edge25" class="edge"><title>Node9&#45;&gt;Node28</title>
<path fill="none" stroke="midnightblue" d="M234.126,-387.911C248.621,-385.396 264.222,-380.461 276,-371 305.139,-347.594 284.814,-320.648 312,-295 326.724,-281.109 347.189,-272.03 365.265,-266.242"/>
<polygon fill="midnightblue" stroke="midnightblue" points="233.258,-384.498 223.837,-389.345 234.224,-391.431 233.258,-384.498"/>
</g>
<!-- Node34 -->
<g id="node34" class="node"><title>Node34</title>
<g id="a_node34"><a xlink:href="classCParameterAdaptation.html" target="_top" xlink:title="CParameterAdaptation">
<polygon fill="white" stroke="black" points="344,-209.5 344,-228.5 470,-228.5 470,-209.5 344,-209.5"/>
<text text-anchor="middle" x="407" y="-216.5" font-family="Verdana" font-size="10.00">CParameterAdaptation</text>
</a>
</g>
</g>
<!-- Node9&#45;&gt;Node34 -->
<g id="edge31" class="edge"><title>Node9&#45;&gt;Node34</title>
<path fill="none" stroke="midnightblue" d="M233.967,-389.183C248.895,-386.869 264.831,-381.738 276,-371 320.145,-328.557 267.316,-279.874 312,-238 320.747,-229.803 332.009,-224.714 343.68,-221.633"/>
<polygon fill="midnightblue" stroke="midnightblue" points="233.388,-385.727 223.864,-390.369 234.204,-392.679 233.388,-385.727"/>
</g>
<!-- Node37 -->
<g id="node37" class="node"><title>Node37</title>
<g id="a_node37"><a xlink:href="classCParameterFrameworkConfiguration.html" target="_top" xlink:title="CParameterFrameworkConfiguration">
<polygon fill="white" stroke="black" points="312.5,-171.5 312.5,-190.5 501.5,-190.5 501.5,-171.5 312.5,-171.5"/>
<text text-anchor="middle" x="407" y="-178.5" font-family="Verdana" font-size="10.00">CParameterFrameworkConfiguration</text>
</a>
</g>
</g>
<!-- Node9&#45;&gt;Node37 -->
<g id="edge34" class="edge"><title>Node9&#45;&gt;Node37</title>
<path fill="none" stroke="midnightblue" d="M233.943,-389.563C249.014,-387.318 265.057,-382.137 276,-371 330.434,-315.602 256.861,-254.696 312,-200 315.782,-196.248 320.088,-193.137 324.727,-190.565"/>
<polygon fill="midnightblue" stroke="midnightblue" points="233.297,-386.113 223.739,-390.684 234.062,-393.071 233.297,-386.113"/>
</g>
<!-- Node38 -->
<g id="node38" class="node"><title>Node38</title>
<g id="a_node38"><a xlink:href="classCParameterMgr.html" target="_top" xlink:title="CParameterMgr">
<polygon fill="white" stroke="black" points="361,-133.5 361,-152.5 453,-152.5 453,-133.5 361,-133.5"/>
<text text-anchor="middle" x="407" y="-140.5" font-family="Verdana" font-size="10.00">CParameterMgr</text>
</a>
</g>
</g>
<!-- Node9&#45;&gt;Node38 -->
<g id="edge35" class="edge"><title>Node9&#45;&gt;Node38</title>
<path fill="none" stroke="#8b1a1a" d="M233.809,-389.821C249.011,-387.633 265.181,-382.424 276,-371 340.81,-302.56 246.319,-229.605 312,-162 324.53,-149.103 343.218,-143.706 360.638,-141.777"/>
<polygon fill="#8b1a1a" stroke="#8b1a1a" points="233.102,-386.375 223.517,-390.891 233.826,-393.338 233.102,-386.375"/>
</g>
<!-- Node39 -->
<g id="node39" class="node"><title>Node39</title>
<g id="a_node39"><a xlink:href="classCRule.html" target="_top" xlink:title="CRule">
<polygon fill="white" stroke="black" points="385.5,-38.5 385.5,-57.5 428.5,-57.5 428.5,-38.5 385.5,-38.5"/>
<text text-anchor="middle" x="407" y="-45.5" font-family="Verdana" font-size="10.00">CRule</text>
</a>
</g>
</g>
<!-- Node9&#45;&gt;Node39 -->
<g id="edge36" class="edge"><title>Node9&#45;&gt;Node39</title>
<path fill="none" stroke="midnightblue" d="M233.961,-389.963C249.185,-387.796 265.33,-382.563 276,-371 351.232,-289.469 257.088,-220.394 312,-124 329.555,-93.1829 364.898,-69.9327 386.892,-57.6891"/>
<polygon fill="midnightblue" stroke="midnightblue" points="233.242,-386.518 223.648,-391.013 233.952,-393.482 233.242,-386.518"/>
</g>
<!-- Node42 -->
<g id="node42" class="node"><title>Node42</title>
<g id="a_node42"><a xlink:href="classCSelectionCriteria.html" target="_top" xlink:title="CSelectionCriteria">
<polygon fill="white" stroke="black" points="356,-639.5 356,-658.5 458,-658.5 458,-639.5 356,-639.5"/>
<text text-anchor="middle" x="407" y="-646.5" font-family="Verdana" font-size="10.00">CSelectionCriteria</text>
</a>
</g>
</g>
<!-- Node9&#45;&gt;Node42 -->
<g id="edge39" class="edge"><title>Node9&#45;&gt;Node42</title>
<path fill="none" stroke="midnightblue" d="M196.66,-409.673C206.379,-456.063 237.378,-572.685 312,-630 324.412,-639.533 340.383,-644.627 355.625,-647.257"/>
<polygon fill="midnightblue" stroke="midnightblue" points="200.06,-408.828 194.677,-399.703 193.195,-410.194 200.06,-408.828"/>
</g>
<!-- Node43 -->
<g id="node43" class="node"><title>Node43</title>
<g id="a_node43"><a xlink:href="classCSelectionCriteriaDefinition.html" target="_top" xlink:title="CSelectionCriteriaDefinition">
<polygon fill="white" stroke="black" points="333.5,-601.5 333.5,-620.5 480.5,-620.5 480.5,-601.5 333.5,-601.5"/>
<text text-anchor="middle" x="407" y="-608.5" font-family="Verdana" font-size="10.00">CSelectionCriteriaDefinition</text>
</a>
</g>
</g>
<!-- Node9&#45;&gt;Node43 -->
<g id="edge40" class="edge"><title>Node9&#45;&gt;Node43</title>
<path fill="none" stroke="midnightblue" d="M198.476,-409.295C211.12,-450.111 246.405,-545.277 312,-592 318.374,-596.54 325.575,-600.053 333.086,-602.764"/>
<polygon fill="midnightblue" stroke="midnightblue" points="201.773,-408.102 195.563,-399.518 195.064,-410.101 201.773,-408.102"/>
</g>
<!-- Node44 -->
<g id="node44" class="node"><title>Node44</title>
<g id="a_node44"><a xlink:href="classCSelectionCriterionLibrary.html" target="_top" xlink:title="CSelectionCriterionLibrary">
<polygon fill="white" stroke="black" points="337,-563.5 337,-582.5 477,-582.5 477,-563.5 337,-563.5"/>
<text text-anchor="middle" x="407" y="-570.5" font-family="Verdana" font-size="10.00">CSelectionCriterionLibrary</text>
</a>
</g>
</g>
<!-- Node9&#45;&gt;Node44 -->
<g id="edge42" class="edge"><title>Node9&#45;&gt;Node44</title>
<path fill="none" stroke="midnightblue" d="M201.133,-409.203C216.968,-444.092 255.414,-517.629 312,-554 319.563,-558.861 328.118,-562.517 336.91,-565.26"/>
<polygon fill="midnightblue" stroke="midnightblue" points="204.183,-407.443 196.95,-399.701 197.776,-410.263 204.183,-407.443"/>
</g>
<!-- Node45 -->
<g id="node45" class="node"><title>Node45</title>
<g id="a_node45"><a xlink:href="classCTypeElement.html" target="_top" xlink:title="CTypeElement">
<polygon fill="white" stroke="black" points="365,-525.5 365,-544.5 449,-544.5 449,-525.5 365,-525.5"/>
<text text-anchor="middle" x="407" y="-532.5" font-family="Verdana" font-size="10.00">CTypeElement</text>
</a>
</g>
</g>
<!-- Node9&#45;&gt;Node45 -->
<g id="edge44" class="edge"><title>Node9&#45;&gt;Node45</title>
<path fill="none" stroke="midnightblue" d="M215.263,-405.156C259.172,-435.047 355.809,-500.832 391.973,-525.451"/>
<polygon fill="midnightblue" stroke="midnightblue" points="217.212,-402.248 206.976,-399.514 213.272,-408.034 217.212,-402.248"/>
</g>
<!-- Node11 -->
<g id="node11" class="node"><title>Node11</title>
<g id="a_node11"><a xlink:href="classCConfigurableDomain.html" target="_top" xlink:title="CConfigurableDomain">
<polygon fill="white" stroke="black" points="567.5,-380.5 567.5,-399.5 688.5,-399.5 688.5,-380.5 567.5,-380.5"/>
<text text-anchor="middle" x="628" y="-387.5" font-family="Verdana" font-size="10.00">CConfigurableDomain</text>
</a>
</g>
</g>
<!-- Node10&#45;&gt;Node11 -->
<g id="edge7" class="edge"><title>Node10&#45;&gt;Node11</title>
<path fill="none" stroke="midnightblue" d="M491.534,-390C516.772,-390 543.962,-390 567.313,-390"/>
<polygon fill="midnightblue" stroke="midnightblue" points="491.228,-386.5 481.228,-390 491.228,-393.5 491.228,-386.5"/>
</g>
<!-- Node12 -->
<g id="node12" class="node"><title>Node12</title>
<g id="a_node12"><a xlink:href="classCConfigurableDomains.html" target="_top" xlink:title="CConfigurableDomains">
<polygon fill="white" stroke="black" points="565,-342.5 565,-361.5 691,-361.5 691,-342.5 565,-342.5"/>
<text text-anchor="middle" x="628" y="-349.5" font-family="Verdana" font-size="10.00">CConfigurableDomains</text>
</a>
</g>
</g>
<!-- Node10&#45;&gt;Node12 -->
<g id="edge8" class="edge"><title>Node10&#45;&gt;Node12</title>
<path fill="none" stroke="midnightblue" d="M472.985,-378.724C504.492,-373.257 541.925,-366.762 571.997,-361.544"/>
<polygon fill="midnightblue" stroke="midnightblue" points="472.235,-375.302 462.98,-380.46 473.431,-382.199 472.235,-375.302"/>
</g>
<!-- Node13 -->
<g id="node13" class="node"><title>Node13</title>
<g id="a_node13"><a xlink:href="classCDomainConfiguration.html" target="_top" xlink:title="CDomainConfiguration">
<polygon fill="white" stroke="black" points="565.5,-304.5 565.5,-323.5 690.5,-323.5 690.5,-304.5 565.5,-304.5"/>
<text text-anchor="middle" x="628" y="-311.5" font-family="Verdana" font-size="10.00">CDomainConfiguration</text>
</a>
</g>
</g>
<!-- Node10&#45;&gt;Node13 -->
<g id="edge9" class="edge"><title>Node10&#45;&gt;Node13</title>
<path fill="none" stroke="midnightblue" d="M488.931,-377.102C493.458,-375.323 497.849,-373.3 502,-371 522.35,-359.726 517.712,-344.385 538,-333 546.405,-328.284 555.857,-324.736 565.381,-322.068"/>
<polygon fill="midnightblue" stroke="midnightblue" points="487.754,-373.806 479.481,-380.424 490.075,-380.41 487.754,-373.806"/>
</g>
<!-- Node16 -->
<g id="node16" class="node"><title>Node16</title>
<g id="a_node16"><a xlink:href="classCConfigurableElementWithMapping.html" target="_top" xlink:title="Base class for all Configurable Elements that can have a Mapping attribute. ">
<polygon fill="white" stroke="black" points="556.5,-457 556.5,-487 699.5,-487 699.5,-457 556.5,-457"/>
<text text-anchor="start" x="564.5" y="-475" font-family="Verdana" font-size="10.00">CConfigurableElementWith</text>
<text text-anchor="middle" x="628" y="-464" font-family="Verdana" font-size="10.00">Mapping</text>
</a>
</g>
</g>
<!-- Node15&#45;&gt;Node16 -->
<g id="edge12" class="edge"><title>Node15&#45;&gt;Node16</title>
<path fill="none" stroke="midnightblue" d="M465.48,-439.548C493.281,-445.134 526.911,-451.891 556.27,-457.789"/>
<polygon fill="midnightblue" stroke="midnightblue" points="466.013,-436.086 455.52,-437.547 464.634,-442.949 466.013,-436.086"/>
</g>
<!-- Node26 -->
<g id="node26" class="node"><title>Node26</title>
<g id="a_node26"><a xlink:href="classCSystemClass.html" target="_top" xlink:title="CSystemClass">
<polygon fill="white" stroke="black" points="585,-418.5 585,-437.5 671,-437.5 671,-418.5 585,-418.5"/>
<text text-anchor="middle" x="628" y="-425.5" font-family="Verdana" font-size="10.00">CSystemClass</text>
</a>
</g>
</g>
<!-- Node15&#45;&gt;Node26 -->
<g id="edge23" class="edge"><title>Node15&#45;&gt;Node26</title>
<path fill="none" stroke="midnightblue" d="M478.885,-428C513.885,-428 554.922,-428 584.914,-428"/>
<polygon fill="midnightblue" stroke="midnightblue" points="478.713,-424.5 468.713,-428 478.713,-431.5 478.713,-424.5"/>
</g>
<!-- Node16&#45;&gt;Node2 -->
<g id="edge22" class="edge"><title>Node16&#45;&gt;Node2</title>
<path fill="none" stroke="midnightblue" d="M707.216,-491.141C710.949,-492.927 714.567,-494.875 718,-497 775.056,-532.306 821.875,-600.797 837.988,-626.204"/>
<polygon fill="midnightblue" stroke="midnightblue" points="708.305,-487.798 697.738,-487.026 705.517,-494.219 708.305,-487.798"/>
</g>
<!-- Node17 -->
<g id="node17" class="node"><title>Node17</title>
<g id="a_node17"><a xlink:href="classCInstanceConfigurableElement.html" target="_top" xlink:title="CInstanceConfigurableElement">
<polygon fill="white" stroke="black" points="763,-462.5 763,-481.5 927,-481.5 927,-462.5 763,-462.5"/>
<text text-anchor="middle" x="845" y="-469.5" font-family="Verdana" font-size="10.00">CInstanceConfigurableElement</text>
</a>
</g>
</g>
<!-- Node16&#45;&gt;Node17 -->
<g id="edge13" class="edge"><title>Node16&#45;&gt;Node17</title>
<path fill="none" stroke="midnightblue" d="M709.781,-472C727.127,-472 745.464,-472 762.825,-472"/>
<polygon fill="midnightblue" stroke="midnightblue" points="709.697,-468.5 699.697,-472 709.697,-475.5 709.697,-468.5"/>
</g>
<!-- Node18 -->
<g id="node18" class="node"><title>Node18</title>
<g id="a_node18"><a xlink:href="classCBaseParameter.html" target="_top" xlink:title="CBaseParameter">
<polygon fill="white" stroke="black" points="979,-443.5 979,-462.5 1077,-462.5 1077,-443.5 979,-443.5"/>
<text text-anchor="middle" x="1028" y="-450.5" font-family="Verdana" font-size="10.00">CBaseParameter</text>
</a>
</g>
</g>
<!-- Node17&#45;&gt;Node18 -->
<g id="edge14" class="edge"><title>Node17&#45;&gt;Node18</title>
<path fill="none" stroke="midnightblue" d="M937.205,-462.426C951.628,-460.912 966.026,-459.401 978.935,-458.045"/>
<polygon fill="midnightblue" stroke="midnightblue" points="936.815,-458.948 927.235,-463.473 937.545,-465.909 936.815,-458.948"/>
</g>
<!-- Node23 -->
<g id="node23" class="node"><title>Node23</title>
<g id="a_node23"><a xlink:href="classCBitParameterBlock.html" target="_top" xlink:title="CBitParameterBlock">
<polygon fill="white" stroke="black" points="972,-405.5 972,-424.5 1084,-424.5 1084,-405.5 972,-405.5"/>
<text text-anchor="middle" x="1028" y="-412.5" font-family="Verdana" font-size="10.00">CBitParameterBlock</text>
</a>
</g>
</g>
<!-- Node17&#45;&gt;Node23 -->
<g id="edge19" class="edge"><title>Node17&#45;&gt;Node23</title>
<path fill="none" stroke="midnightblue" d="M886.188,-459.344C919.553,-448.837 966.291,-434.118 996.606,-424.572"/>
<polygon fill="midnightblue" stroke="midnightblue" points="884.782,-456.117 876.295,-462.459 886.885,-462.794 884.782,-456.117"/>
</g>
<!-- Node24 -->
<g id="node24" class="node"><title>Node24</title>
<g id="a_node24"><a xlink:href="classCComponent.html" target="_top" xlink:title="CComponent">
<polygon fill="white" stroke="black" points="988,-519.5 988,-538.5 1068,-538.5 1068,-519.5 988,-519.5"/>
<text text-anchor="middle" x="1028" y="-526.5" font-family="Verdana" font-size="10.00">CComponent</text>
</a>
</g>
</g>
<!-- Node17&#45;&gt;Node24 -->
<g id="edge20" class="edge"><title>Node17&#45;&gt;Node24</title>
<path fill="none" stroke="midnightblue" d="M886.188,-484.656C919.553,-495.163 966.291,-509.882 996.606,-519.428"/>
<polygon fill="midnightblue" stroke="midnightblue" points="886.885,-481.206 876.295,-481.541 884.782,-487.883 886.885,-481.206"/>
</g>
<!-- Node25 -->
<g id="node25" class="node"><title>Node25</title>
<g id="a_node25"><a xlink:href="classCParameterBlock.html" target="_top" xlink:title="CParameterBlock">
<polygon fill="white" stroke="black" points="978.5,-481.5 978.5,-500.5 1077.5,-500.5 1077.5,-481.5 978.5,-481.5"/>
<text text-anchor="middle" x="1028" y="-488.5" font-family="Verdana" font-size="10.00">CParameterBlock</text>
</a>
</g>
</g>
<!-- Node17&#45;&gt;Node25 -->
<g id="edge21" class="edge"><title>Node17&#45;&gt;Node25</title>
<path fill="none" stroke="midnightblue" d="M937.511,-481.606C951.642,-483.089 965.74,-484.569 978.427,-485.901"/>
<polygon fill="midnightblue" stroke="midnightblue" points="937.545,-478.091 927.235,-480.527 936.815,-485.052 937.545,-478.091"/>
</g>
<!-- Node19 -->
<g id="node19" class="node"><title>Node19</title>
<g id="a_node19"><a xlink:href="classCBitParameter.html" target="_top" xlink:title="CBitParameter">
<polygon fill="white" stroke="black" points="1128,-481.5 1128,-500.5 1214,-500.5 1214,-481.5 1128,-481.5"/>
<text text-anchor="middle" x="1171" y="-488.5" font-family="Verdana" font-size="10.00">CBitParameter</text>
</a>
</g>
</g>
<!-- Node18&#45;&gt;Node19 -->
<g id="edge15" class="edge"><title>Node18&#45;&gt;Node19</title>
<path fill="none" stroke="midnightblue" d="M1074.44,-465.246C1093.87,-470.484 1116.23,-476.509 1134.43,-481.414"/>
<polygon fill="midnightblue" stroke="midnightblue" points="1075.15,-461.812 1064.58,-462.589 1073.32,-468.571 1075.15,-461.812"/>
</g>
<!-- Node20 -->
<g id="node20" class="node"><title>Node20</title>
<g id="a_node20"><a xlink:href="classCParameter.html" target="_top" xlink:title="CParameter">
<polygon fill="white" stroke="black" points="1134,-443.5 1134,-462.5 1208,-462.5 1208,-443.5 1134,-443.5"/>
<text text-anchor="middle" x="1171" y="-450.5" font-family="Verdana" font-size="10.00">CParameter</text>
</a>
</g>
</g>
<!-- Node18&#45;&gt;Node20 -->
<g id="edge16" class="edge"><title>Node18&#45;&gt;Node20</title>
<path fill="none" stroke="midnightblue" d="M1087.3,-453C1103,-453 1119.54,-453 1133.66,-453"/>
<polygon fill="midnightblue" stroke="midnightblue" points="1087.13,-449.5 1077.13,-453 1087.13,-456.5 1087.13,-449.5"/>
</g>
<!-- Node22 -->
<g id="node22" class="node"><title>Node22</title>
<g id="a_node22"><a xlink:href="classCStringParameter.html" target="_top" xlink:title="CStringParameter">
<polygon fill="white" stroke="black" points="1120,-405.5 1120,-424.5 1222,-424.5 1222,-405.5 1120,-405.5"/>
<text text-anchor="middle" x="1171" y="-412.5" font-family="Verdana" font-size="10.00">CStringParameter</text>
</a>
</g>
</g>
<!-- Node18&#45;&gt;Node22 -->
<g id="edge18" class="edge"><title>Node18&#45;&gt;Node22</title>
<path fill="none" stroke="midnightblue" d="M1074.44,-440.754C1093.87,-435.516 1116.23,-429.491 1134.43,-424.586"/>
<polygon fill="midnightblue" stroke="midnightblue" points="1073.32,-437.429 1064.58,-443.411 1075.15,-444.188 1073.32,-437.429"/>
</g>
<!-- Node21 -->
<g id="node21" class="node"><title>Node21</title>
<g id="a_node21"><a xlink:href="classCArrayParameter.html" target="_top" xlink:title="CArrayParameter">
<polygon fill="white" stroke="black" points="1258.5,-443.5 1258.5,-462.5 1357.5,-462.5 1357.5,-443.5 1258.5,-443.5"/>
<text text-anchor="middle" x="1308" y="-450.5" font-family="Verdana" font-size="10.00">CArrayParameter</text>
</a>
</g>
</g>
<!-- Node20&#45;&gt;Node21 -->
<g id="edge17" class="edge"><title>Node20&#45;&gt;Node21</title>
<path fill="none" stroke="midnightblue" d="M1218.25,-453C1231.16,-453 1245.23,-453 1258.28,-453"/>
<polygon fill="midnightblue" stroke="midnightblue" points="1218.18,-449.5 1208.18,-453 1218.18,-456.5 1218.18,-449.5"/>
</g>
<!-- Node29 -->
<g id="node29" class="node"><title>Node29</title>
<g id="a_node29"><a xlink:href="classCFrameworkConfigurationGroup.html" target="_top" xlink:title="CFrameworkConfigurationGroup">
<polygon fill="white" stroke="black" points="544,-228.5 544,-247.5 712,-247.5 712,-228.5 544,-228.5"/>
<text text-anchor="middle" x="628" y="-235.5" font-family="Verdana" font-size="10.00">CFrameworkConfigurationGroup</text>
</a>
</g>
</g>
<!-- Node28&#45;&gt;Node29 -->
<g id="edge26" class="edge"><title>Node28&#45;&gt;Node29</title>
<path fill="none" stroke="midnightblue" d="M458.768,-252.596C484.046,-250.402 515.257,-247.695 543.903,-245.209"/>
<polygon fill="midnightblue" stroke="midnightblue" points="458.339,-249.119 448.679,-253.471 458.944,-256.093 458.339,-249.119"/>
</g>
<!-- Node30 -->
<g id="node30" class="node"><title>Node30</title>
<g id="a_node30"><a xlink:href="classCFrameworkConfigurationLocation.html" target="_top" xlink:title="CFrameworkConfigurationLocation">
<polygon fill="white" stroke="black" points="538.5,-190.5 538.5,-209.5 717.5,-209.5 717.5,-190.5 538.5,-190.5"/>
<text text-anchor="middle" x="628" y="-197.5" font-family="Verdana" font-size="10.00">CFrameworkConfigurationLocation</text>
</a>
</g>
</g>
<!-- Node28&#45;&gt;Node30 -->
<g id="edge27" class="edge"><title>Node28&#45;&gt;Node30</title>
<path fill="none" stroke="midnightblue" d="M459.018,-249.443C473.163,-246.61 488.371,-242.86 502,-238 519.041,-231.924 520.993,-225.169 538,-219 548.397,-215.229 559.762,-212.099 570.789,-209.543"/>
<polygon fill="midnightblue" stroke="midnightblue" points="458.12,-246.051 448.944,-251.347 459.42,-252.929 458.12,-246.051"/>
</g>
<!-- Node31 -->
<g id="node31" class="node"><title>Node31</title>
<g id="a_node31"><a xlink:href="classCPluginLocation.html" target="_top" xlink:title="CPluginLocation">
<polygon fill="white" stroke="black" points="582,-152.5 582,-171.5 674,-171.5 674,-152.5 582,-152.5"/>
<text text-anchor="middle" x="628" y="-159.5" font-family="Verdana" font-size="10.00">CPluginLocation</text>
</a>
</g>
</g>
<!-- Node28&#45;&gt;Node31 -->
<g id="edge28" class="edge"><title>Node28&#45;&gt;Node31</title>
<path fill="none" stroke="midnightblue" d="M458.869,-254.284C473.765,-251.571 489.414,-246.675 502,-238 526.671,-220.996 513.422,-198.138 538,-181 550.701,-172.144 566.72,-167.284 581.656,-164.658"/>
<polygon fill="midnightblue" stroke="midnightblue" points="458.081,-250.863 448.723,-255.832 459.137,-257.783 458.081,-250.863"/>
</g>
<!-- Node32 -->
<g id="node32" class="node"><title>Node32</title>
<g id="a_node32"><a xlink:href="classCSubsystemPlugins.html" target="_top" xlink:title="CSubsystemPlugins">
<polygon fill="white" stroke="black" points="572.5,-114.5 572.5,-133.5 683.5,-133.5 683.5,-114.5 572.5,-114.5"/>
<text text-anchor="middle" x="628" y="-121.5" font-family="Verdana" font-size="10.00">CSubsystemPlugins</text>
</a>
</g>
</g>
<!-- Node28&#45;&gt;Node32 -->
<g id="edge29" class="edge"><title>Node28&#45;&gt;Node32</title>
<path fill="none" stroke="midnightblue" d="M458.791,-256.002C474.114,-253.42 490.028,-248.166 502,-238 536.417,-208.774 503.742,-172.413 538,-143 547.59,-134.766 559.878,-129.823 572.24,-126.918"/>
<polygon fill="midnightblue" stroke="midnightblue" points="458.298,-252.536 448.853,-257.337 459.23,-259.474 458.298,-252.536"/>
</g>
<!-- Node33 -->
<g id="node33" class="node"><title>Node33</title>
<g id="a_node33"><a xlink:href="classCXmlFileIncluderElement.html" target="_top" xlink:title="CXmlFileIncluderElement">
<polygon fill="white" stroke="black" points="561,-266.5 561,-285.5 695,-285.5 695,-266.5 561,-266.5"/>
<text text-anchor="middle" x="628" y="-273.5" font-family="Verdana" font-size="10.00">CXmlFileIncluderElement</text>
</a>
</g>
</g>
<!-- Node28&#45;&gt;Node33 -->
<g id="edge30" class="edge"><title>Node28&#45;&gt;Node33</title>
<path fill="none" stroke="midnightblue" d="M459.021,-261.426C489.322,-264.055 528.079,-267.418 560.729,-270.25"/>
<polygon fill="midnightblue" stroke="midnightblue" points="458.944,-257.907 448.679,-260.529 458.339,-264.881 458.944,-257.907"/>
</g>
<!-- Node35 -->
<g id="node35" class="node"><title>Node35</title>
<g id="a_node35"><a xlink:href="classCLinearParameterAdaptation.html" target="_top" xlink:title="CLinearParameterAdaptation">
<polygon fill="white" stroke="black" points="550.5,-76.5 550.5,-95.5 705.5,-95.5 705.5,-76.5 550.5,-76.5"/>
<text text-anchor="middle" x="628" y="-83.5" font-family="Verdana" font-size="10.00">CLinearParameterAdaptation</text>
</a>
</g>
</g>
<!-- Node34&#45;&gt;Node35 -->
<g id="edge32" class="edge"><title>Node34&#45;&gt;Node35</title>
<path fill="none" stroke="midnightblue" d="M479.828,-212.541C487.894,-209.562 495.524,-205.5 502,-200 536.417,-170.774 503.742,-134.413 538,-105 542.435,-101.192 547.448,-98.0877 552.778,-95.5635"/>
<polygon fill="midnightblue" stroke="midnightblue" points="478.695,-209.228 470.202,-215.561 480.791,-215.906 478.695,-209.228"/>
</g>
<!-- Node36 -->
<g id="node36" class="node"><title>Node36</title>
<g id="a_node36"><a xlink:href="classCLogarithmicParameterAdaptation.html" target="_top" xlink:title="This class is used to perform a logarithmic adapation of type: (slopeNumerator / slopeDenominator) * ...">
<polygon fill="white" stroke="black" points="754,-76.5 754,-95.5 936,-95.5 936,-76.5 754,-76.5"/>
<text text-anchor="middle" x="845" y="-83.5" font-family="Verdana" font-size="10.00">CLogarithmicParameterAdaptation</text>
</a>
</g>
</g>
<!-- Node35&#45;&gt;Node36 -->
<g id="edge33" class="edge"><title>Node35&#45;&gt;Node36</title>
<path fill="none" stroke="midnightblue" d="M716.038,-86C728.458,-86 741.257,-86 753.738,-86"/>
<polygon fill="midnightblue" stroke="midnightblue" points="715.709,-82.5001 705.709,-86 715.709,-89.5001 715.709,-82.5001"/>
</g>
<!-- Node40 -->
<g id="node40" class="node"><title>Node40</title>
<g id="a_node40"><a xlink:href="classCCompoundRule.html" target="_top" xlink:title="CCompoundRule">
<polygon fill="white" stroke="black" points="580.5,-38.5 580.5,-57.5 675.5,-57.5 675.5,-38.5 580.5,-38.5"/>
<text text-anchor="middle" x="628" y="-45.5" font-family="Verdana" font-size="10.00">CCompoundRule</text>
</a>
</g>
</g>
<!-- Node39&#45;&gt;Node40 -->
<g id="edge37" class="edge"><title>Node39&#45;&gt;Node40</title>
<path fill="none" stroke="midnightblue" d="M438.725,-48C475.543,-48 537.606,-48 580.351,-48"/>
<polygon fill="midnightblue" stroke="midnightblue" points="438.603,-44.5001 428.603,-48 438.603,-51.5001 438.603,-44.5001"/>
</g>
<!-- Node41 -->
<g id="node41" class="node"><title>Node41</title>
<g id="a_node41"><a xlink:href="classCSelectionCriterionRule.html" target="_top" xlink:title="CSelectionCriterionRule">
<polygon fill="white" stroke="black" points="564,-0.5 564,-19.5 692,-19.5 692,-0.5 564,-0.5"/>
<text text-anchor="middle" x="628" y="-7.5" font-family="Verdana" font-size="10.00">CSelectionCriterionRule</text>
</a>
</g>
</g>
<!-- Node39&#45;&gt;Node41 -->
<g id="edge38" class="edge"><title>Node39&#45;&gt;Node41</title>
<path fill="none" stroke="midnightblue" d="M438.532,-42.7021C472.959,-36.7285 529.635,-26.8945 571.86,-19.5677"/>
<polygon fill="midnightblue" stroke="midnightblue" points="437.857,-39.2669 428.603,-44.4251 439.054,-46.1638 437.857,-39.2669"/>
</g>
<!-- Node46 -->
<g id="node46" class="node"><title>Node46</title>
<g id="a_node46"><a xlink:href="classCBitParameterBlockType.html" target="_top" xlink:title="CBitParameterBlockType">
<polygon fill="white" stroke="black" points="561.5,-620.5 561.5,-639.5 694.5,-639.5 694.5,-620.5 561.5,-620.5"/>
<text text-anchor="middle" x="628" y="-627.5" font-family="Verdana" font-size="10.00">CBitParameterBlockType</text>
</a>
</g>
</g>
<!-- Node45&#45;&gt;Node46 -->
<g id="edge45" class="edge"><title>Node45&#45;&gt;Node46</title>
<path fill="none" stroke="midnightblue" d="M459.264,-537.789C474.041,-540.516 489.525,-545.402 502,-554 526.671,-571.004 513.422,-593.862 538,-611 544.998,-615.88 553.004,-619.546 561.281,-622.294"/>
<polygon fill="midnightblue" stroke="midnightblue" points="459.611,-534.301 449.192,-536.227 458.538,-541.218 459.611,-534.301"/>
</g>
<!-- Node47 -->
<g id="node47" class="node"><title>Node47</title>
<g id="a_node47"><a xlink:href="classCBitParameterType.html" target="_top" xlink:title="CBitParameterType">
<polygon fill="white" stroke="black" points="574.5,-582.5 574.5,-601.5 681.5,-601.5 681.5,-582.5 574.5,-582.5"/>
<text text-anchor="middle" x="628" y="-589.5" font-family="Verdana" font-size="10.00">CBitParameterType</text>
</a>
</g>
</g>
<!-- Node45&#45;&gt;Node47 -->
<g id="edge46" class="edge"><title>Node45&#45;&gt;Node47</title>
<path fill="none" stroke="midnightblue" d="M459.411,-542.636C473.444,-545.46 488.497,-549.185 502,-554 519.041,-560.076 520.993,-566.831 538,-573 549.437,-577.148 562.045,-580.52 574.086,-583.207"/>
<polygon fill="midnightblue" stroke="midnightblue" points="459.887,-539.164 449.409,-540.736 458.581,-546.041 459.887,-539.164"/>
</g>
<!-- Node48 -->
<g id="node48" class="node"><title>Node48</title>
<g id="a_node48"><a xlink:href="classCComponentInstance.html" target="_top" xlink:title="CComponentInstance">
<polygon fill="white" stroke="black" points="568,-544.5 568,-563.5 688,-563.5 688,-544.5 568,-544.5"/>
<text text-anchor="middle" x="628" y="-551.5" font-family="Verdana" font-size="10.00">CComponentInstance</text>
</a>
</g>
</g>
<!-- Node45&#45;&gt;Node48 -->
<g id="edge47" class="edge"><title>Node45&#45;&gt;Node48</title>
<path fill="none" stroke="midnightblue" d="M459.376,-539.457C491.851,-542.275 533.93,-545.925 567.803,-548.864"/>
<polygon fill="midnightblue" stroke="midnightblue" points="459.457,-535.951 449.192,-538.574 458.852,-542.925 459.457,-535.951"/>
</g>
<!-- Node49 -->
<g id="node49" class="node"><title>Node49</title>
<g id="a_node49"><a xlink:href="classCComponentType.html" target="_top" xlink:title="CComponentType">
<polygon fill="white" stroke="black" points="577.5,-506.5 577.5,-525.5 678.5,-525.5 678.5,-506.5 577.5,-506.5"/>
<text text-anchor="middle" x="628" y="-513.5" font-family="Verdana" font-size="10.00">CComponentType</text>
</a>
</g>
</g>
<!-- Node45&#45;&gt;Node49 -->
<g id="edge48" class="edge"><title>Node45&#45;&gt;Node49</title>
<path fill="none" stroke="midnightblue" d="M459.359,-530.544C494.901,-527.461 541.954,-523.378 577.162,-520.324"/>
<polygon fill="midnightblue" stroke="midnightblue" points="458.852,-527.075 449.192,-531.426 459.457,-534.049 458.852,-527.075"/>
</g>
<!-- Node50 -->
<g id="node50" class="node"><title>Node50</title>
<g id="a_node50"><a xlink:href="classCInstanceDefinition.html" target="_top" xlink:title="CInstanceDefinition">
<polygon fill="white" stroke="black" points="573.5,-772.5 573.5,-791.5 682.5,-791.5 682.5,-772.5 573.5,-772.5"/>
<text text-anchor="middle" x="628" y="-779.5" font-family="Verdana" font-size="10.00">CInstanceDefinition</text>
</a>
</g>
</g>
<!-- Node45&#45;&gt;Node50 -->
<g id="edge49" class="edge"><title>Node45&#45;&gt;Node50</title>
<path fill="none" stroke="midnightblue" d="M459.217,-534.556C474.867,-537.001 490.865,-542.539 502,-554 567.681,-621.605 472.688,-695.039 538,-763 547.306,-772.683 560.243,-778.031 573.376,-780.854"/>
<polygon fill="midnightblue" stroke="midnightblue" points="459.377,-531.051 449.038,-533.364 458.563,-538.003 459.377,-531.051"/>
</g>
<!-- Node51 -->
<g id="node51" class="node"><title>Node51</title>
<g id="a_node51"><a xlink:href="classCParameterBlockType.html" target="_top" xlink:title="CParameterBlockType">
<polygon fill="white" stroke="black" points="568,-734.5 568,-753.5 688,-753.5 688,-734.5 568,-734.5"/>
<text text-anchor="middle" x="628" y="-741.5" font-family="Verdana" font-size="10.00">CParameterBlockType</text>
</a>
</g>
</g>
<!-- Node45&#45;&gt;Node51 -->
<g id="edge50" class="edge"><title>Node45&#45;&gt;Node51</title>
<path fill="none" stroke="midnightblue" d="M459.372,-534.863C474.879,-537.354 490.752,-542.843 502,-554 557.139,-608.696 483.16,-670.004 538,-725 546.032,-733.055 556.587,-738.082 567.609,-741.147"/>
<polygon fill="midnightblue" stroke="midnightblue" points="459.639,-531.369 449.288,-533.629 458.789,-538.317 459.639,-531.369"/>
</g>
<!-- Node52 -->
<g id="node52" class="node"><title>Node52</title>
<g id="a_node52"><a xlink:href="classCParameterType.html" target="_top" xlink:title="CParameterType">
<polygon fill="white" stroke="black" points="580.5,-810.5 580.5,-829.5 675.5,-829.5 675.5,-810.5 580.5,-810.5"/>
<text text-anchor="middle" x="628" y="-817.5" font-family="Verdana" font-size="10.00">CParameterType</text>
</a>
</g>
</g>
<!-- Node45&#45;&gt;Node52 -->
<g id="edge51" class="edge"><title>Node45&#45;&gt;Node52</title>
<path fill="none" stroke="midnightblue" d="M459.392,-534.388C475.053,-536.822 491.014,-542.396 502,-554 578.27,-634.561 462.17,-720.025 538,-801 548.8,-812.532 564.742,-817.954 580.162,-820.28"/>
<polygon fill="midnightblue" stroke="midnightblue" points="459.534,-530.881 449.199,-533.21 458.731,-537.835 459.534,-530.881"/>
</g>
<!-- Node57 -->
<g id="node57" class="node"><title>Node57</title>
<g id="a_node57"><a xlink:href="classCStringParameterType.html" target="_top" xlink:title="CStringParameterType">
<polygon fill="white" stroke="black" points="566.5,-658.5 566.5,-677.5 689.5,-677.5 689.5,-658.5 566.5,-658.5"/>
<text text-anchor="middle" x="628" y="-665.5" font-family="Verdana" font-size="10.00">CStringParameterType</text>
</a>
</g>
</g>
<!-- Node45&#45;&gt;Node57 -->
<g id="edge56" class="edge"><title>Node45&#45;&gt;Node57</title>
<path fill="none" stroke="midnightblue" d="M459.625,-536.142C474.69,-538.772 490.245,-544.018 502,-554 536.417,-583.226 503.742,-619.587 538,-649 546.032,-655.896 555.955,-660.483 566.231,-663.499"/>
<polygon fill="midnightblue" stroke="midnightblue" points="459.712,-532.62 449.326,-534.712 458.75,-539.554 459.712,-532.62"/>
</g>
<!-- Node53 -->
<g id="node53" class="node"><title>Node53</title>
<g id="a_node53"><a xlink:href="classCBooleanParameterType.html" target="_top" xlink:title="CBooleanParameterType">
<polygon fill="white" stroke="black" points="778,-791.5 778,-810.5 912,-810.5 912,-791.5 778,-791.5"/>
<text text-anchor="middle" x="845" y="-798.5" font-family="Verdana" font-size="10.00">CBooleanParameterType</text>
</a>
</g>
</g>
<!-- Node52&#45;&gt;Node53 -->
<g id="edge52" class="edge"><title>Node52&#45;&gt;Node53</title>
<path fill="none" stroke="midnightblue" d="M685.774,-814.983C714.05,-812.484 748.401,-809.448 777.862,-806.845"/>
<polygon fill="midnightblue" stroke="midnightblue" points="685.305,-811.51 675.652,-815.877 685.921,-818.483 685.305,-811.51"/>
</g>
<!-- Node54 -->
<g id="node54" class="node"><title>Node54</title>
<g id="a_node54"><a xlink:href="classCEnumParameterType.html" target="_top" xlink:title="CEnumParameterType">
<polygon fill="white" stroke="black" points="784,-753.5 784,-772.5 906,-772.5 906,-753.5 784,-753.5"/>
<text text-anchor="middle" x="845" y="-760.5" font-family="Verdana" font-size="10.00">CEnumParameterType</text>
</a>
</g>
</g>
<!-- Node52&#45;&gt;Node54 -->
<g id="edge53" class="edge"><title>Node52&#45;&gt;Node54</title>
<path fill="none" stroke="midnightblue" d="M685.728,-810.337C696.593,-807.803 707.766,-804.712 718,-801 735.007,-794.831 736.986,-788.15 754,-782 764.363,-778.254 775.678,-775.148 786.678,-772.607"/>
<polygon fill="midnightblue" stroke="midnightblue" points="684.884,-806.939 675.872,-812.51 686.392,-813.775 684.884,-806.939"/>
</g>
<!-- Node55 -->
<g id="node55" class="node"><title>Node55</title>
<g id="a_node55"><a xlink:href="classCFixedPointParameterType.html" target="_top" xlink:title="CFixedPointParameterType">
<polygon fill="white" stroke="black" points="773.5,-867.5 773.5,-886.5 916.5,-886.5 916.5,-867.5 773.5,-867.5"/>
<text text-anchor="middle" x="845" y="-874.5" font-family="Verdana" font-size="10.00">CFixedPointParameterType</text>
</a>
</g>
</g>
<!-- Node52&#45;&gt;Node55 -->
<g id="edge54" class="edge"><title>Node52&#45;&gt;Node55</title>
<path fill="none" stroke="midnightblue" d="M667.52,-832.659C692.109,-840.504 724.749,-850.481 754,-858 767.147,-861.379 781.485,-864.609 794.775,-867.416"/>
<polygon fill="midnightblue" stroke="midnightblue" points="668.436,-829.277 657.844,-829.55 666.294,-835.942 668.436,-829.277"/>
</g>
<!-- Node56 -->
<g id="node56" class="node"><title>Node56</title>
<g id="a_node56"><a xlink:href="classCIntegerParameterType.html" target="_top" xlink:title="CIntegerParameterType">
<polygon fill="white" stroke="black" points="781,-829.5 781,-848.5 909,-848.5 909,-829.5 781,-829.5"/>
<text text-anchor="middle" x="845" y="-836.5" font-family="Verdana" font-size="10.00">CIntegerParameterType</text>
</a>
</g>
</g>
<!-- Node52&#45;&gt;Node56 -->
<g id="edge55" class="edge"><title>Node52&#45;&gt;Node56</title>
<path fill="none" stroke="midnightblue" d="M685.693,-825.01C714.902,-827.591 750.611,-830.747 780.717,-833.408"/>
<polygon fill="midnightblue" stroke="midnightblue" points="685.921,-821.517 675.652,-824.123 685.305,-828.49 685.921,-821.517"/>
</g>
<!-- Node59 -->
<g id="node59" class="node"><title>Node59</title>
<polygon fill="white" stroke="#bfbfbf" points="0.5,-380.5 0.5,-399.5 71.5,-399.5 71.5,-380.5 0.5,-380.5"/>
<text text-anchor="middle" x="36" y="-387.5" font-family="Verdana" font-size="10.00">IXmlSource</text>
</g>
<!-- Node59&#45;&gt;Node9 -->
<g id="edge58" class="edge"><title>Node59&#45;&gt;Node9</title>
<path fill="none" stroke="midnightblue" d="M81.6559,-390C106.954,-390 137.944,-390 160.465,-390"/>
<polygon fill="midnightblue" stroke="midnightblue" points="81.5606,-386.5 71.5606,-390 81.5606,-393.5 81.5606,-386.5"/>
</g>
</g>
</svg>
