<?xml version="1.0" encoding="UTF-8" standalone="no"?>
<!DOCTYPE svg PUBLIC "-//W3C//DTD SVG 1.1//EN"
 "http://www.w3.org/Graphics/SVG/1.1/DTD/svg11.dtd">
<!-- Generated by graphviz version 2.38.0 (20140413.2041)
 -->
<!-- Title: Graphical Class Hierarchy Pages: 1 -->
<svg width="243pt" height="66pt"
 viewBox="0.00 0.00 243.00 66.00" xmlns="http://www.w3.org/2000/svg" xmlns:xlink="http://www.w3.org/1999/xlink">
<g id="graph0" class="graph" transform="scale(1 1) rotate(0) translate(4 62)">
<title>Graphical Class Hierarchy</title>
<polygon fill="white" stroke="none" points="-4,4 -4,-62 239,-62 239,4 -4,4"/>
<!-- Node1 -->
<g id="node1" class="node"><title>Node1</title>
<g id="a_node1"><a xlink:href="classCXmlDocSink.html" target="_top" xlink:title="The CXmlDocSink class defines how to use a CXmlDocSource. ">
<polygon fill="white" stroke="black" points="0,-19.5 0,-38.5 80,-38.5 80,-19.5 0,-19.5"/>
<text text-anchor="middle" x="40" y="-26.5" font-family="Verdana" font-size="10.00">CXmlDocSink</text>
</a>
</g>
</g>
<!-- Node2 -->
<g id="node2" class="node"><title>Node2</title>
<g id="a_node2"><a xlink:href="classCXmlMemoryDocSink.html" target="_top" xlink:title="Sink class used to parse an xml document and instanciate parameter&#45;framework structures. ">
<polygon fill="white" stroke="black" points="116,-38.5 116,-57.5 235,-57.5 235,-38.5 116,-38.5"/>
<text text-anchor="middle" x="175.5" y="-45.5" font-family="Verdana" font-size="10.00">CXmlMemoryDocSink</text>
</a>
</g>
</g>
<!-- Node1&#45;&gt;Node2 -->
<g id="edge1" class="edge"><title>Node1&#45;&gt;Node2</title>
<path fill="none" stroke="midnightblue" d="M90.4778,-36.0418C98.6773,-37.2088 107.25,-38.4289 115.654,-39.6248"/>
<polygon fill="midnightblue" stroke="midnightblue" points="90.7258,-32.5419 80.3323,-34.5979 89.7394,-39.4721 90.7258,-32.5419"/>
</g>
<!-- Node3 -->
<g id="node3" class="node"><title>Node3</title>
<g id="a_node3"><a xlink:href="classCXmlStreamDocSink.html" target="_top" xlink:title="Sink class that writes the content of any CXmlDocSource into a std::string. ">
<polygon fill="white" stroke="black" points="117.5,-0.5 117.5,-19.5 233.5,-19.5 233.5,-0.5 117.5,-0.5"/>
<text text-anchor="middle" x="175.5" y="-7.5" font-family="Verdana" font-size="10.00">CXmlStreamDocSink</text>
</a>
</g>
</g>
<!-- Node1&#45;&gt;Node3 -->
<g id="edge2" class="edge"><title>Node1&#45;&gt;Node3</title>
<path fill="none" stroke="midnightblue" d="M90.3412,-21.9777C99.0677,-20.7357 108.221,-19.433 117.146,-18.1628"/>
<polygon fill="midnightblue" stroke="midnightblue" points="89.7394,-18.5279 80.3323,-23.4021 90.7258,-25.4581 89.7394,-18.5279"/>
</g>
</g>
</svg>
