<?xml version="1.0" encoding="UTF-8" standalone="no"?>
<!DOCTYPE svg PUBLIC "-//W3C//DTD SVG 1.1//EN"
 "http://www.w3.org/Graphics/SVG/1.1/DTD/svg11.dtd">
<!-- Generated by graphviz version 2.36.0 (20140111.2315)
 -->
<!-- Title: Graphical Class Hierarchy Pages: 1 -->
<svg width="312pt" height="66pt"
 viewBox="0.00 0.00 312.00 66.00" xmlns="http://www.w3.org/2000/svg" xmlns:xlink="http://www.w3.org/1999/xlink">
<g id="graph0" class="graph" transform="scale(1 1) rotate(0) translate(4 62)">
<title>Graphical Class Hierarchy</title>
<polygon fill="white" stroke="none" points="-4,4 -4,-62 308,-62 308,4 -4,4"/>
<!-- Node1 -->
<g id="node1" class="node"><title>Node1</title>
<g id="a_node1"><a xlink:href="classCBackSynchronizer.html" target="_top" xlink:title="CBackSynchronizer">
<polygon fill="white" stroke="black" points="0.5,-19.5 0.5,-38.5 109.5,-38.5 109.5,-19.5 0.5,-19.5"/>
<text text-anchor="middle" x="55" y="-26.5" font-family="Verdana" font-size="10.00">CBackSynchronizer</text>
</a>
</g>
</g>
<!-- Node2 -->
<g id="node2" class="node"><title>Node2</title>
<g id="a_node2"><a xlink:href="classCHardwareBackSynchronizer.html" target="_top" xlink:title="CHardwareBackSynchronizer">
<polygon fill="white" stroke="black" points="147.5,-38.5 147.5,-57.5 302.5,-57.5 302.5,-38.5 147.5,-38.5"/>
<text text-anchor="middle" x="225" y="-45.5" font-family="Verdana" font-size="10.00">CHardwareBackSynchronizer</text>
</a>
</g>
</g>
<!-- Node1&#45;&gt;Node2 -->
<g id="edge1" class="edge"><title>Node1&#45;&gt;Node2</title>
<path fill="none" stroke="midnightblue" d="M119.655,-36.1991C128.692,-37.2212 138.064,-38.281 147.316,-39.3274"/>
<polygon fill="midnightblue" stroke="midnightblue" points="119.948,-32.71 109.618,-35.064 119.161,-39.6657 119.948,-32.71"/>
</g>
<!-- Node3 -->
<g id="node3" class="node"><title>Node3</title>
<g id="a_node3"><a xlink:href="classCSimulatedBackSynchronizer.html" target="_top" xlink:title="CSimulatedBackSynchronizer">
<polygon fill="white" stroke="black" points="146,-0.5 146,-19.5 304,-19.5 304,-0.5 146,-0.5"/>
<text text-anchor="middle" x="225" y="-7.5" font-family="Verdana" font-size="10.00">CSimulatedBackSynchronizer</text>
</a>
</g>
</g>
<!-- Node1&#45;&gt;Node3 -->
<g id="edge2" class="edge"><title>Node1&#45;&gt;Node3</title>
<path fill="none" stroke="midnightblue" d="M119.807,-21.7838C128.299,-20.8233 137.085,-19.8297 145.787,-18.8455"/>
<polygon fill="midnightblue" stroke="midnightblue" points="119.161,-18.3343 109.618,-22.936 119.948,-25.29 119.161,-18.3343"/>
</g>
</g>
</svg>
