<?xml version="1.0" encoding="UTF-8" standalone="no"?>
<!DOCTYPE svg PUBLIC "-//W3C//DTD SVG 1.1//EN"
 "http://www.w3.org/Graphics/SVG/1.1/DTD/svg11.dtd">
<!-- Generated by graphviz version 2.36.0 (20140111.2315)
 -->
<!-- Title: parameter/InstanceDefinition.cpp Pages: 1 -->
<svg width="528pt" height="308pt"
 viewBox="0.00 0.00 528.00 308.00" xmlns="http://www.w3.org/2000/svg" xmlns:xlink="http://www.w3.org/1999/xlink">
<g id="graph0" class="graph" transform="scale(1 1) rotate(0) translate(4 304)">
<title>parameter/InstanceDefinition.cpp</title>
<polygon fill="white" stroke="none" points="-4,4 -4,-304 524,-304 524,4 -4,4"/>
<!-- Node1 -->
<g id="node1" class="node"><title>Node1</title>
<polygon fill="#bfbfbf" stroke="black" points="17,-280.5 17,-299.5 193,-299.5 193,-280.5 17,-280.5"/>
<text text-anchor="middle" x="105" y="-287.5" font-family="Verdana" font-size="10.00">parameter/InstanceDefinition.cpp</text>
</g>
<!-- Node2 -->
<g id="node2" class="node"><title>Node2</title>
<g id="a_node2"><a xlink:href="InstanceDefinition_8h.html" target="_top" xlink:title="InstanceDefinition.h">
<polygon fill="white" stroke="black" points="-0.5,-224.5 -0.5,-243.5 110.5,-243.5 110.5,-224.5 -0.5,-224.5"/>
<text text-anchor="middle" x="55" y="-231.5" font-family="Verdana" font-size="10.00">InstanceDefinition.h</text>
</a>
</g>
</g>
<!-- Node1&#45;&gt;Node2 -->
<g id="edge1" class="edge"><title>Node1&#45;&gt;Node2</title>
<path fill="none" stroke="midnightblue" d="M96.7435,-280.083C89.5353,-272.298 78.8902,-260.801 70.1542,-251.367"/>
<polygon fill="midnightblue" stroke="midnightblue" points="72.4651,-248.711 63.1028,-243.751 67.3288,-253.467 72.4651,-248.711"/>
</g>
<!-- Node12 -->
<g id="node12" class="node"><title>Node12</title>
<polygon fill="white" stroke="#bfbfbf" points="128,-224.5 128,-243.5 184,-243.5 184,-224.5 128,-224.5"/>
<text text-anchor="middle" x="156" y="-231.5" font-family="Verdana" font-size="10.00">assert.h</text>
</g>
<!-- Node1&#45;&gt;Node12 -->
<g id="edge16" class="edge"><title>Node1&#45;&gt;Node12</title>
<path fill="none" stroke="midnightblue" d="M113.422,-280.083C120.848,-272.22 131.852,-260.569 140.812,-251.081"/>
<polygon fill="midnightblue" stroke="midnightblue" points="143.413,-253.424 147.735,-243.751 138.324,-248.618 143.413,-253.424"/>
</g>
<!-- Node3 -->
<g id="node3" class="node"><title>Node3</title>
<g id="a_node3"><a xlink:href="TypeElement_8h.html" target="_top" xlink:title="TypeElement.h">
<polygon fill="white" stroke="black" points="48,-168.5 48,-187.5 134,-187.5 134,-168.5 48,-168.5"/>
<text text-anchor="middle" x="91" y="-175.5" font-family="Verdana" font-size="10.00">TypeElement.h</text>
</a>
</g>
</g>
<!-- Node2&#45;&gt;Node3 -->
<g id="edge2" class="edge"><title>Node2&#45;&gt;Node3</title>
<path fill="none" stroke="midnightblue" d="M60.9447,-224.083C65.9773,-216.534 73.3368,-205.495 79.5135,-196.23"/>
<polygon fill="midnightblue" stroke="midnightblue" points="82.5311,-198.013 85.1659,-187.751 76.7067,-194.13 82.5311,-198.013"/>
</g>
<!-- Node5 -->
<g id="node5" class="node"><title>Node5</title>
<polygon fill="white" stroke="#bfbfbf" points="55,-0.5 55,-19.5 99,-19.5 99,-0.5 55,-0.5"/>
<text text-anchor="middle" x="77" y="-7.5" font-family="Verdana" font-size="10.00">string</text>
</g>
<!-- Node2&#45;&gt;Node5 -->
<g id="edge15" class="edge"><title>Node2&#45;&gt;Node5</title>
<path fill="none" stroke="midnightblue" d="M50.8888,-224.277C46.9413,-215.383 41.255,-201.074 39,-188 37.4891,-179.24 37.9471,-176.826 39,-168 45.0976,-116.887 61.9864,-58.3589 71.0573,-29.3249"/>
<polygon fill="midnightblue" stroke="midnightblue" points="74.417,-30.3089 74.1122,-19.7184 67.7462,-28.1875 74.417,-30.3089"/>
</g>
<!-- Node4 -->
<g id="node4" class="node"><title>Node4</title>
<g id="a_node4"><a xlink:href="Element_8h.html" target="_top" xlink:title="Element.h">
<polygon fill="white" stroke="black" points="215.5,-112.5 215.5,-131.5 280.5,-131.5 280.5,-112.5 215.5,-112.5"/>
<text text-anchor="middle" x="248" y="-119.5" font-family="Verdana" font-size="10.00">Element.h</text>
</a>
</g>
</g>
<!-- Node3&#45;&gt;Node4 -->
<g id="edge3" class="edge"><title>Node3&#45;&gt;Node4</title>
<path fill="none" stroke="midnightblue" d="M115.877,-168.444C142.289,-159.359 184.215,-144.939 213.742,-134.783"/>
<polygon fill="midnightblue" stroke="midnightblue" points="214.921,-138.079 223.239,-131.516 212.645,-131.459 214.921,-138.079"/>
</g>
<!-- Node3&#45;&gt;Node5 -->
<g id="edge14" class="edge"><title>Node3&#45;&gt;Node5</title>
<path fill="none" stroke="midnightblue" d="M90.2473,-168.075C88.0436,-141.945 81.572,-65.2106 78.5667,-29.577"/>
<polygon fill="midnightblue" stroke="midnightblue" points="82.0507,-29.2386 77.7226,-19.5681 75.0755,-29.8269 82.0507,-29.2386"/>
</g>
<!-- Node4&#45;&gt;Node5 -->
<g id="edge4" class="edge"><title>Node4&#45;&gt;Node5</title>
<path fill="none" stroke="midnightblue" d="M215.34,-116.559C186.314,-111.187 144.095,-99.7213 115,-76 99.9996,-63.7699 89.6393,-43.9437 83.5696,-29.3991"/>
<polygon fill="midnightblue" stroke="midnightblue" points="86.7767,-27.9885 79.9031,-19.926 80.2486,-30.5152 86.7767,-27.9885"/>
</g>
<!-- Node6 -->
<g id="node6" class="node"><title>Node6</title>
<polygon fill="white" stroke="#bfbfbf" points="473.5,-0.5 473.5,-19.5 520.5,-19.5 520.5,-0.5 473.5,-0.5"/>
<text text-anchor="middle" x="497" y="-7.5" font-family="Verdana" font-size="10.00">vector</text>
</g>
<!-- Node4&#45;&gt;Node6 -->
<g id="edge5" class="edge"><title>Node4&#45;&gt;Node6</title>
<path fill="none" stroke="midnightblue" d="M280.703,-117.973C334.731,-112.385 439.499,-98.8806 468,-76 482.282,-64.5341 489.747,-44.5561 493.502,-29.7662"/>
<polygon fill="midnightblue" stroke="midnightblue" points="496.987,-30.2111 495.701,-19.6946 490.148,-28.7177 496.987,-30.2111"/>
</g>
<!-- Node7 -->
<g id="node7" class="node"><title>Node7</title>
<polygon fill="white" stroke="#bfbfbf" points="380.5,-0.5 380.5,-19.5 433.5,-19.5 433.5,-0.5 380.5,-0.5"/>
<text text-anchor="middle" x="407" y="-7.5" font-family="Verdana" font-size="10.00">stdint.h</text>
</g>
<!-- Node4&#45;&gt;Node7 -->
<g id="edge6" class="edge"><title>Node4&#45;&gt;Node7</title>
<path fill="none" stroke="midnightblue" d="M280.52,-118.619C332.346,-114.073 429.986,-102.182 451,-76 464.268,-59.4693 445.168,-39.0299 428.136,-25.5346"/>
<polygon fill="midnightblue" stroke="midnightblue" points="430.196,-22.7042 420.092,-19.515 426.002,-28.3087 430.196,-22.7042"/>
</g>
<!-- Node8 -->
<g id="node8" class="node"><title>Node8</title>
<polygon fill="white" stroke="#bfbfbf" points="124,-56.5 124,-75.5 154,-75.5 154,-56.5 124,-56.5"/>
<text text-anchor="middle" x="139" y="-63.5" font-family="Verdana" font-size="10.00">list</text>
</g>
<!-- Node4&#45;&gt;Node8 -->
<g id="edge7" class="edge"><title>Node4&#45;&gt;Node8</title>
<path fill="none" stroke="midnightblue" d="M230.487,-112.324C212.2,-103.264 183.394,-88.9933 162.996,-78.8881"/>
<polygon fill="midnightblue" stroke="midnightblue" points="164.527,-75.7407 154.013,-74.4376 161.42,-82.0131 164.527,-75.7407"/>
</g>
<!-- Node9 -->
<g id="node9" class="node"><title>Node9</title>
<polygon fill="white" stroke="#bfbfbf" points="172,-56.5 172,-75.5 236,-75.5 236,-56.5 172,-56.5"/>
<text text-anchor="middle" x="204" y="-63.5" font-family="Verdana" font-size="10.00">XmlSink.h</text>
</g>
<!-- Node4&#45;&gt;Node9 -->
<g id="edge8" class="edge"><title>Node4&#45;&gt;Node9</title>
<path fill="none" stroke="midnightblue" d="M240.734,-112.083C234.455,-104.377 225.212,-93.0333 217.569,-83.6531"/>
<polygon fill="midnightblue" stroke="midnightblue" points="220.161,-81.2926 211.131,-75.7511 214.734,-85.7143 220.161,-81.2926"/>
</g>
<!-- Node10 -->
<g id="node10" class="node"><title>Node10</title>
<polygon fill="white" stroke="#bfbfbf" points="254.5,-56.5 254.5,-75.5 331.5,-75.5 331.5,-56.5 254.5,-56.5"/>
<text text-anchor="middle" x="293" y="-63.5" font-family="Verdana" font-size="10.00">XmlSource.h</text>
</g>
<!-- Node4&#45;&gt;Node10 -->
<g id="edge9" class="edge"><title>Node4&#45;&gt;Node10</title>
<path fill="none" stroke="midnightblue" d="M255.431,-112.083C261.853,-104.377 271.306,-93.0333 279.122,-83.6531"/>
<polygon fill="midnightblue" stroke="midnightblue" points="281.994,-85.674 285.707,-75.7511 276.617,-81.1927 281.994,-85.674"/>
</g>
<!-- Node11 -->
<g id="node11" class="node"><title>Node11</title>
<g id="a_node11"><a xlink:href="PathNavigator_8h.html" target="_top" xlink:title="PathNavigator.h">
<polygon fill="white" stroke="black" points="350,-56.5 350,-75.5 442,-75.5 442,-56.5 350,-56.5"/>
<text text-anchor="middle" x="396" y="-63.5" font-family="Verdana" font-size="10.00">PathNavigator.h</text>
</a>
</g>
</g>
<!-- Node4&#45;&gt;Node11 -->
<g id="edge10" class="edge"><title>Node4&#45;&gt;Node11</title>
<path fill="none" stroke="midnightblue" d="M271.451,-112.444C296.133,-103.438 335.185,-89.1891 362.977,-79.049"/>
<polygon fill="midnightblue" stroke="midnightblue" points="364.464,-82.2321 372.659,-75.5164 362.065,-75.6561 364.464,-82.2321"/>
</g>
<!-- Node11&#45;&gt;Node5 -->
<g id="edge12" class="edge"><title>Node11&#45;&gt;Node5</title>
<path fill="none" stroke="midnightblue" d="M349.955,-57.2056C284.469,-46.1202 166.08,-26.0794 109.206,-16.4518"/>
<polygon fill="midnightblue" stroke="midnightblue" points="109.451,-12.9435 99.0068,-14.7253 108.282,-19.8453 109.451,-12.9435"/>
</g>
<!-- Node11&#45;&gt;Node6 -->
<g id="edge11" class="edge"><title>Node11&#45;&gt;Node6</title>
<path fill="none" stroke="midnightblue" d="M412.227,-56.324C428.351,-47.7034 453.3,-34.3643 471.964,-24.3855"/>
<polygon fill="midnightblue" stroke="midnightblue" points="473.644,-27.456 480.813,-19.6545 470.344,-21.283 473.644,-27.456"/>
</g>
<!-- Node11&#45;&gt;Node7 -->
<g id="edge13" class="edge"><title>Node11&#45;&gt;Node7</title>
<path fill="none" stroke="midnightblue" d="M397.816,-56.083C399.274,-48.9272 401.371,-38.6353 403.193,-29.6911"/>
<polygon fill="midnightblue" stroke="midnightblue" points="406.651,-30.2485 405.217,-19.7511 399.792,-28.8512 406.651,-30.2485"/>
</g>
</g>
</svg>
