<?xml version="1.0" encoding="UTF-8" standalone="no"?>
<!DOCTYPE svg PUBLIC "-//W3C//DTD SVG 1.1//EN"
 "http://www.w3.org/Graphics/SVG/1.1/DTD/svg11.dtd">
<!-- Generated by graphviz version 2.38.0 (20140413.2041)
 -->
<!-- Title: /home/dawagner/dev/parameter&#45;framework/parameter/InstanceConfigurableElement.h Pages: 1 -->
<svg width="544pt" height="341pt"
 viewBox="0.00 0.00 544.36 341.00" xmlns="http://www.w3.org/2000/svg" xmlns:xlink="http://www.w3.org/1999/xlink">
<g id="graph0" class="graph" transform="scale(1 1) rotate(0) translate(4 337)">
<title>/home/dawagner/dev/parameter&#45;framework/parameter/InstanceConfigurableElement.h</title>
<polygon fill="white" stroke="none" points="-4,4 -4,-337 540.358,-337 540.358,4 -4,4"/>
<!-- Node1 -->
<g id="node1" class="node"><title>Node1</title>
<polygon fill="#bfbfbf" stroke="black" points="94.3579,-280.5 94.3579,-332.5 268.358,-332.5 268.358,-280.5 94.3579,-280.5"/>
<text text-anchor="start" x="102.358" y="-320.5" font-family="Verdana" font-size="10.00">/home/dawagner/dev</text>
<text text-anchor="start" x="102.358" y="-309.5" font-family="Verdana" font-size="10.00">/parameter&#45;framework</text>
<text text-anchor="start" x="102.358" y="-298.5" font-family="Verdana" font-size="10.00">/parameter/InstanceConfigurable</text>
<text text-anchor="middle" x="181.358" y="-287.5" font-family="Verdana" font-size="10.00">Element.h</text>
</g>
<!-- Node2 -->
<g id="node2" class="node"><title>Node2</title>
<g id="a_node2"><a xlink:href="ConfigurableElementWithMapping_8h.html" target="_top" xlink:title="ConfigurableElementWithMapping.h">
<polygon fill="white" stroke="black" points="28.3579,-224.5 28.3579,-243.5 214.358,-243.5 214.358,-224.5 28.3579,-224.5"/>
<text text-anchor="middle" x="121.358" y="-231.5" font-family="Verdana" font-size="10.00">ConfigurableElementWithMapping.h</text>
</a>
</g>
</g>
<!-- Node1&#45;&gt;Node2 -->
<g id="edge1" class="edge"><title>Node1&#45;&gt;Node2</title>
<path fill="none" stroke="midnightblue" d="M160.035,-280.446C151.85,-270.828 142.722,-260.103 135.39,-251.488"/>
<polygon fill="midnightblue" stroke="midnightblue" points="137.905,-249.042 128.758,-243.695 132.574,-253.579 137.905,-249.042"/>
</g>
<!-- Node5 -->
<g id="node5" class="node"><title>Node5</title>
<polygon fill="white" stroke="#bfbfbf" points="54.3579,-0.5 54.3579,-19.5 98.3579,-19.5 98.3579,-0.5 54.3579,-0.5"/>
<text text-anchor="middle" x="76.3579" y="-7.5" font-family="Verdana" font-size="10.00">string</text>
</g>
<!-- Node1&#45;&gt;Node5 -->
<g id="edge20" class="edge"><title>Node1&#45;&gt;Node5</title>
<path fill="none" stroke="midnightblue" d="M94.0112,-288.453C66.9339,-279.301 39.0649,-265.317 19.3579,-244 -1.07364,-221.9 0.357879,-209.098 0.357879,-179 0.357879,-179 0.357879,-179 0.357879,-121 0.357879,-81.2757 34.322,-45.5045 56.84,-26.1536"/>
<polygon fill="midnightblue" stroke="midnightblue" points="59.3334,-28.6337 64.8151,-19.5672 54.8759,-23.2364 59.3334,-28.6337"/>
</g>
<!-- Node8 -->
<g id="node8" class="node"><title>Node8</title>
<polygon fill="white" stroke="#bfbfbf" points="506.358,-56.5 506.358,-75.5 536.358,-75.5 536.358,-56.5 506.358,-56.5"/>
<text text-anchor="middle" x="521.358" y="-63.5" font-family="Verdana" font-size="10.00">list</text>
</g>
<!-- Node1&#45;&gt;Node8 -->
<g id="edge19" class="edge"><title>Node1&#45;&gt;Node8</title>
<path fill="none" stroke="midnightblue" d="M236.799,-280.337C281.724,-258.765 345.662,-225.326 396.358,-188 440.524,-155.482 484.928,-108.214 507.009,-83.4836"/>
<polygon fill="midnightblue" stroke="midnightblue" points="509.855,-85.549 513.852,-75.7371 504.608,-80.9148 509.855,-85.549"/>
</g>
<!-- Node12 -->
<g id="node12" class="node"><title>Node12</title>
<g id="a_node12"><a xlink:href="TypeElement_8h.html" target="_top" xlink:title="TypeElement.h">
<polygon fill="white" stroke="black" points="158.358,-168.5 158.358,-187.5 244.358,-187.5 244.358,-168.5 158.358,-168.5"/>
<text text-anchor="middle" x="201.358" y="-175.5" font-family="Verdana" font-size="10.00">TypeElement.h</text>
</a>
</g>
</g>
<!-- Node1&#45;&gt;Node12 -->
<g id="edge16" class="edge"><title>Node1&#45;&gt;Node12</title>
<path fill="none" stroke="midnightblue" d="M203.553,-280.387C211.417,-269.889 219.313,-257.095 223.358,-244 228.394,-227.696 220.908,-209.288 213.335,-196.235"/>
<polygon fill="midnightblue" stroke="midnightblue" points="216.29,-194.359 207.983,-187.783 210.376,-198.104 216.29,-194.359"/>
</g>
<!-- Node3 -->
<g id="node3" class="node"><title>Node3</title>
<g id="a_node3"><a xlink:href="ConfigurableElement_8h.html" target="_top" xlink:title="ConfigurableElement.h">
<polygon fill="white" stroke="black" points="262.858,-168.5 262.858,-187.5 387.858,-187.5 387.858,-168.5 262.858,-168.5"/>
<text text-anchor="middle" x="325.358" y="-175.5" font-family="Verdana" font-size="10.00">ConfigurableElement.h</text>
</a>
</g>
</g>
<!-- Node2&#45;&gt;Node3 -->
<g id="edge2" class="edge"><title>Node2&#45;&gt;Node3</title>
<path fill="none" stroke="midnightblue" d="M153.682,-224.444C188.747,-215.162 244.856,-200.309 283.323,-190.127"/>
<polygon fill="midnightblue" stroke="midnightblue" points="284.413,-193.459 293.185,-187.516 282.622,-186.692 284.413,-193.459"/>
</g>
<!-- Node2&#45;&gt;Node5 -->
<g id="edge15" class="edge"><title>Node2&#45;&gt;Node5</title>
<path fill="none" stroke="midnightblue" d="M119.594,-224.297C112.973,-191.633 89.5064,-75.8661 80.2006,-29.9573"/>
<polygon fill="midnightblue" stroke="midnightblue" points="83.5756,-28.9891 78.1586,-19.8837 76.7151,-30.3798 83.5756,-28.9891"/>
</g>
<!-- Node4 -->
<g id="node4" class="node"><title>Node4</title>
<g id="a_node4"><a xlink:href="Element_8h.html" target="_top" xlink:title="Element.h">
<polygon fill="white" stroke="black" points="267.858,-112.5 267.858,-131.5 332.858,-131.5 332.858,-112.5 267.858,-112.5"/>
<text text-anchor="middle" x="300.358" y="-119.5" font-family="Verdana" font-size="10.00">Element.h</text>
</a>
</g>
</g>
<!-- Node3&#45;&gt;Node4 -->
<g id="edge3" class="edge"><title>Node3&#45;&gt;Node4</title>
<path fill="none" stroke="midnightblue" d="M321.23,-168.083C317.844,-160.77 312.942,-150.181 308.739,-141.103"/>
<polygon fill="midnightblue" stroke="midnightblue" points="311.787,-139.355 304.409,-131.751 305.434,-142.296 311.787,-139.355"/>
</g>
<!-- Node3&#45;&gt;Node8 -->
<g id="edge14" class="edge"><title>Node3&#45;&gt;Node8</title>
<path fill="none" stroke="midnightblue" d="M337.624,-168.497C356.488,-155.58 393.947,-130.554 427.358,-112 450.391,-99.209 477.635,-86.4096 496.847,-77.7499"/>
<polygon fill="midnightblue" stroke="midnightblue" points="498.392,-80.8932 506.096,-73.6208 495.538,-74.5012 498.392,-80.8932"/>
</g>
<!-- Node4&#45;&gt;Node5 -->
<g id="edge4" class="edge"><title>Node4&#45;&gt;Node5</title>
<path fill="none" stroke="midnightblue" d="M267.674,-117.871C232.285,-113.248 175.285,-102.114 133.358,-76 113.919,-63.8929 97.404,-43.128 87.2324,-28.3263"/>
<polygon fill="midnightblue" stroke="midnightblue" points="89.9184,-26.0409 81.4973,-19.6115 84.0709,-29.889 89.9184,-26.0409"/>
</g>
<!-- Node6 -->
<g id="node6" class="node"><title>Node6</title>
<polygon fill="white" stroke="#bfbfbf" points="175.858,-0.5 175.858,-19.5 222.858,-19.5 222.858,-0.5 175.858,-0.5"/>
<text text-anchor="middle" x="199.358" y="-7.5" font-family="Verdana" font-size="10.00">vector</text>
</g>
<!-- Node4&#45;&gt;Node6 -->
<g id="edge5" class="edge"><title>Node4&#45;&gt;Node6</title>
<path fill="none" stroke="midnightblue" d="M293.123,-112.456C282.437,-99.9043 261.715,-75.822 243.358,-56 234.263,-46.1794 223.797,-35.4535 215.355,-26.9373"/>
<polygon fill="midnightblue" stroke="midnightblue" points="217.807,-24.439 208.268,-19.827 212.849,-29.3805 217.807,-24.439"/>
</g>
<!-- Node7 -->
<g id="node7" class="node"><title>Node7</title>
<polygon fill="white" stroke="#bfbfbf" points="262.858,-0.5 262.858,-19.5 315.858,-19.5 315.858,-0.5 262.858,-0.5"/>
<text text-anchor="middle" x="289.358" y="-7.5" font-family="Verdana" font-size="10.00">stdint.h</text>
</g>
<!-- Node4&#45;&gt;Node7 -->
<g id="edge6" class="edge"><title>Node4&#45;&gt;Node7</title>
<path fill="none" stroke="midnightblue" d="M299.495,-112.368C297.72,-94.617 293.625,-53.6664 291.218,-29.5974"/>
<polygon fill="midnightblue" stroke="midnightblue" points="294.695,-29.1935 290.217,-19.5914 287.73,-29.8901 294.695,-29.1935"/>
</g>
<!-- Node4&#45;&gt;Node8 -->
<g id="edge7" class="edge"><title>Node4&#45;&gt;Node8</title>
<path fill="none" stroke="midnightblue" d="M333.126,-114.916C370.585,-107.656 433.842,-94.4688 496.574,-75.9229"/>
<polygon fill="midnightblue" stroke="midnightblue" points="497.656,-79.2524 506.227,-73.0245 495.643,-72.5481 497.656,-79.2524"/>
</g>
<!-- Node9 -->
<g id="node9" class="node"><title>Node9</title>
<polygon fill="white" stroke="#bfbfbf" points="328.358,-56.5 328.358,-75.5 392.358,-75.5 392.358,-56.5 328.358,-56.5"/>
<text text-anchor="middle" x="360.358" y="-63.5" font-family="Verdana" font-size="10.00">XmlSink.h</text>
</g>
<!-- Node4&#45;&gt;Node9 -->
<g id="edge8" class="edge"><title>Node4&#45;&gt;Node9</title>
<path fill="none" stroke="midnightblue" d="M309.998,-112.324C318.867,-104.341 332.233,-92.3128 342.966,-82.6529"/>
<polygon fill="midnightblue" stroke="midnightblue" points="345.451,-85.1251 350.542,-75.8339 340.768,-79.922 345.451,-85.1251"/>
</g>
<!-- Node10 -->
<g id="node10" class="node"><title>Node10</title>
<polygon fill="white" stroke="#bfbfbf" points="410.858,-56.5 410.858,-75.5 487.858,-75.5 487.858,-56.5 410.858,-56.5"/>
<text text-anchor="middle" x="449.358" y="-63.5" font-family="Verdana" font-size="10.00">XmlSource.h</text>
</g>
<!-- Node4&#45;&gt;Node10 -->
<g id="edge9" class="edge"><title>Node4&#45;&gt;Node10</title>
<path fill="none" stroke="midnightblue" d="M323.967,-112.444C348.816,-103.438 388.132,-89.1891 416.111,-79.049"/>
<polygon fill="midnightblue" stroke="midnightblue" points="417.65,-82.2144 425.859,-75.5164 415.265,-75.6332 417.65,-82.2144"/>
</g>
<!-- Node11 -->
<g id="node11" class="node"><title>Node11</title>
<g id="a_node11"><a xlink:href="PathNavigator_8h.html" target="_top" xlink:title="PathNavigator.h">
<polygon fill="white" stroke="black" points="142.358,-56.5 142.358,-75.5 234.358,-75.5 234.358,-56.5 142.358,-56.5"/>
<text text-anchor="middle" x="188.358" y="-63.5" font-family="Verdana" font-size="10.00">PathNavigator.h</text>
</a>
</g>
</g>
<!-- Node4&#45;&gt;Node11 -->
<g id="edge10" class="edge"><title>Node4&#45;&gt;Node11</title>
<path fill="none" stroke="midnightblue" d="M282.363,-112.324C264.32,-103.625 236.311,-90.1202 215.555,-80.113"/>
<polygon fill="midnightblue" stroke="midnightblue" points="216.836,-76.8449 206.308,-75.6545 213.796,-83.1502 216.836,-76.8449"/>
</g>
<!-- Node11&#45;&gt;Node5 -->
<g id="edge12" class="edge"><title>Node11&#45;&gt;Node5</title>
<path fill="none" stroke="midnightblue" d="M170.363,-56.324C152.32,-47.6247 124.311,-34.1202 103.555,-24.113"/>
<polygon fill="midnightblue" stroke="midnightblue" points="104.836,-20.8449 94.308,-19.6545 101.796,-27.1502 104.836,-20.8449"/>
</g>
<!-- Node11&#45;&gt;Node6 -->
<g id="edge11" class="edge"><title>Node11&#45;&gt;Node6</title>
<path fill="none" stroke="midnightblue" d="M190.174,-56.083C191.632,-48.9272 193.728,-38.6353 195.55,-29.6911"/>
<polygon fill="midnightblue" stroke="midnightblue" points="199.009,-30.2485 197.575,-19.7511 192.15,-28.8512 199.009,-30.2485"/>
</g>
<!-- Node11&#45;&gt;Node7 -->
<g id="edge13" class="edge"><title>Node11&#45;&gt;Node7</title>
<path fill="none" stroke="midnightblue" d="M204.585,-56.324C220.709,-47.7034 245.658,-34.3643 264.322,-24.3855"/>
<polygon fill="midnightblue" stroke="midnightblue" points="266.002,-27.456 273.171,-19.6545 262.702,-21.283 266.002,-27.456"/>
</g>
<!-- Node12&#45;&gt;Node4 -->
<g id="edge17" class="edge"><title>Node12&#45;&gt;Node4</title>
<path fill="none" stroke="midnightblue" d="M217.264,-168.324C232.996,-159.743 257.3,-146.486 275.567,-136.522"/>
<polygon fill="midnightblue" stroke="midnightblue" points="277.388,-139.516 284.491,-131.655 274.036,-133.37 277.388,-139.516"/>
</g>
<!-- Node12&#45;&gt;Node5 -->
<g id="edge18" class="edge"><title>Node12&#45;&gt;Node5</title>
<path fill="none" stroke="midnightblue" d="M191.362,-168.402C172.722,-151.969 132.211,-114.313 106.358,-76 96.4839,-61.3672 88.3319,-42.9634 83.0304,-29.4771"/>
<polygon fill="midnightblue" stroke="midnightblue" points="86.2152,-28.0031 79.4115,-19.8816 79.6656,-30.4734 86.2152,-28.0031"/>
</g>
</g>
</svg>
