<?xml version="1.0" encoding="UTF-8" standalone="no"?>
<!DOCTYPE svg PUBLIC "-//W3C//DTD SVG 1.1//EN"
 "http://www.w3.org/Graphics/SVG/1.1/DTD/svg11.dtd">
<!-- Generated by graphviz version 2.38.0 (20140413.2041)
 -->
<!-- Title: parameter/InstanceDefinition.h Pages: 1 -->
<svg width="626pt" height="308pt"
 viewBox="0.00 0.00 625.50 308.00" xmlns="http://www.w3.org/2000/svg" xmlns:xlink="http://www.w3.org/1999/xlink">
<g id="graph0" class="graph" transform="scale(1 1) rotate(0) translate(4 304)">
<title>parameter/InstanceDefinition.h</title>
<polygon fill="white" stroke="none" points="-4,4 -4,-304 621.5,-304 621.5,4 -4,4"/>
<!-- Node1 -->
<g id="node1" class="node"><title>Node1</title>
<polygon fill="#bfbfbf" stroke="black" points="0,-280.5 0,-299.5 165,-299.5 165,-280.5 0,-280.5"/>
<text text-anchor="middle" x="82.5" y="-287.5" font-family="Verdana" font-size="10.00">parameter/InstanceDefinition.h</text>
</g>
<!-- Node2 -->
<g id="node2" class="node"><title>Node2</title>
<g id="a_node2"><a xlink:href="TypeElement_8h.html" target="_top" xlink:title="TypeElement.h">
<polygon fill="white" stroke="black" points="75.5,-224.5 75.5,-243.5 161.5,-243.5 161.5,-224.5 75.5,-224.5"/>
<text text-anchor="middle" x="118.5" y="-231.5" font-family="Verdana" font-size="10.00">TypeElement.h</text>
</a>
</g>
</g>
<!-- Node1&#45;&gt;Node2 -->
<g id="edge1" class="edge"><title>Node1&#45;&gt;Node2</title>
<path fill="none" stroke="midnightblue" d="M88.4447,-280.083C93.4773,-272.534 100.837,-261.495 107.013,-252.23"/>
<polygon fill="midnightblue" stroke="midnightblue" points="110.031,-254.013 112.666,-243.751 104.207,-250.13 110.031,-254.013"/>
</g>
<!-- Node4 -->
<g id="node4" class="node"><title>Node4</title>
<polygon fill="white" stroke="#bfbfbf" points="147.5,-0.5 147.5,-19.5 191.5,-19.5 191.5,-0.5 147.5,-0.5"/>
<text text-anchor="middle" x="169.5" y="-7.5" font-family="Verdana" font-size="10.00">string</text>
</g>
<!-- Node1&#45;&gt;Node4 -->
<g id="edge21" class="edge"><title>Node1&#45;&gt;Node4</title>
<path fill="none" stroke="midnightblue" d="M77.7797,-280.456C68.2262,-262.337 47.5,-218.48 47.5,-179 47.5,-179 47.5,-179 47.5,-121 47.5,-72.1755 102.062,-39.4586 138.209,-23.1412"/>
<polygon fill="midnightblue" stroke="midnightblue" points="139.62,-26.3445 147.407,-19.1598 136.839,-19.9205 139.62,-26.3445"/>
</g>
<!-- Node3 -->
<g id="node3" class="node"><title>Node3</title>
<g id="a_node3"><a xlink:href="Element_8h.html" target="_top" xlink:title="Element.h">
<polygon fill="white" stroke="black" points="344,-168.5 344,-187.5 409,-187.5 409,-168.5 344,-168.5"/>
<text text-anchor="middle" x="376.5" y="-175.5" font-family="Verdana" font-size="10.00">Element.h</text>
</a>
</g>
</g>
<!-- Node2&#45;&gt;Node3 -->
<g id="edge2" class="edge"><title>Node2&#45;&gt;Node3</title>
<path fill="none" stroke="midnightblue" d="M159.381,-224.444C207.136,-214.448 285.752,-197.994 334.136,-187.867"/>
<polygon fill="midnightblue" stroke="midnightblue" points="334.908,-191.281 343.979,-185.807 333.474,-184.43 334.908,-191.281"/>
</g>
<!-- Node2&#45;&gt;Node4 -->
<g id="edge20" class="edge"><title>Node2&#45;&gt;Node4</title>
<path fill="none" stroke="midnightblue" d="M117.805,-224.154C116.05,-197.629 113.112,-116.832 136.5,-56 140.483,-45.6404 147.51,-35.5409 154.059,-27.5434"/>
<polygon fill="midnightblue" stroke="midnightblue" points="156.891,-29.6205 160.81,-19.7774 151.608,-25.0277 156.891,-29.6205"/>
</g>
<!-- Node3&#45;&gt;Node4 -->
<g id="edge3" class="edge"><title>Node3&#45;&gt;Node4</title>
<path fill="none" stroke="midnightblue" d="M343.957,-172.094C309.806,-166.043 255.248,-153.783 212.5,-132 177.001,-113.911 159.759,-111.909 142.5,-76 134.684,-59.7378 144.867,-40.6111 154.885,-27.3343"/>
<polygon fill="midnightblue" stroke="midnightblue" points="157.635,-29.5006 161.255,-19.5432 152.216,-25.07 157.635,-29.5006"/>
</g>
<!-- Node5 -->
<g id="node5" class="node"><title>Node5</title>
<polygon fill="white" stroke="#bfbfbf" points="527,-56.5 527,-75.5 574,-75.5 574,-56.5 527,-56.5"/>
<text text-anchor="middle" x="550.5" y="-63.5" font-family="Verdana" font-size="10.00">vector</text>
</g>
<!-- Node3&#45;&gt;Node5 -->
<g id="edge4" class="edge"><title>Node3&#45;&gt;Node5</title>
<path fill="none" stroke="midnightblue" d="M409.282,-177.84C446.826,-176.887 507.405,-169.144 540.5,-132 551.528,-119.623 553.263,-100.378 552.7,-86.0363"/>
<polygon fill="midnightblue" stroke="midnightblue" points="556.168,-85.5023 551.888,-75.8105 549.19,-86.056 556.168,-85.5023"/>
</g>
<!-- Node6 -->
<g id="node6" class="node"><title>Node6</title>
<polygon fill="white" stroke="#bfbfbf" points="423,-0.5 423,-19.5 476,-19.5 476,-0.5 423,-0.5"/>
<text text-anchor="middle" x="449.5" y="-7.5" font-family="Verdana" font-size="10.00">stdint.h</text>
</g>
<!-- Node3&#45;&gt;Node6 -->
<g id="edge5" class="edge"><title>Node3&#45;&gt;Node6</title>
<path fill="none" stroke="midnightblue" d="M380.425,-168.075C391.965,-141.832 425.953,-64.5453 441.533,-29.1165"/>
<polygon fill="midnightblue" stroke="midnightblue" points="444.91,-30.131 445.732,-19.5681 438.503,-27.3131 444.91,-30.131"/>
</g>
<!-- Node7 -->
<g id="node7" class="node"><title>Node7</title>
<polygon fill="white" stroke="#bfbfbf" points="587.5,-112.5 587.5,-131.5 617.5,-131.5 617.5,-112.5 587.5,-112.5"/>
<text text-anchor="middle" x="602.5" y="-119.5" font-family="Verdana" font-size="10.00">list</text>
</g>
<!-- Node3&#45;&gt;Node7 -->
<g id="edge6" class="edge"><title>Node3&#45;&gt;Node7</title>
<path fill="none" stroke="midnightblue" d="M409.107,-170.349C448.332,-162.165 516.076,-147.445 573.5,-132 574.76,-131.661 576.047,-131.304 577.345,-130.934"/>
<polygon fill="midnightblue" stroke="midnightblue" points="578.634,-134.202 587.212,-127.984 576.629,-127.495 578.634,-134.202"/>
</g>
<!-- Node8 -->
<g id="node8" class="node"><title>Node8</title>
<g id="a_node8"><a xlink:href="XmlSink_8h.html" target="_top" xlink:title="XmlSink.h">
<polygon fill="white" stroke="black" points="221.5,-112.5 221.5,-131.5 285.5,-131.5 285.5,-112.5 221.5,-112.5"/>
<text text-anchor="middle" x="253.5" y="-119.5" font-family="Verdana" font-size="10.00">XmlSink.h</text>
</a>
</g>
</g>
<!-- Node3&#45;&gt;Node8 -->
<g id="edge7" class="edge"><title>Node3&#45;&gt;Node8</title>
<path fill="none" stroke="midnightblue" d="M357.01,-168.444C336.858,-159.596 305.177,-145.687 282.169,-135.586"/>
<polygon fill="midnightblue" stroke="midnightblue" points="283.462,-132.332 272.899,-131.516 280.648,-138.741 283.462,-132.332"/>
</g>
<!-- Node11 -->
<g id="node11" class="node"><title>Node11</title>
<g id="a_node11"><a xlink:href="XmlSource_8h.html" target="_top" xlink:title="XmlSource.h">
<polygon fill="white" stroke="black" points="304,-112.5 304,-131.5 381,-131.5 381,-112.5 304,-112.5"/>
<text text-anchor="middle" x="342.5" y="-119.5" font-family="Verdana" font-size="10.00">XmlSource.h</text>
</a>
</g>
</g>
<!-- Node3&#45;&gt;Node11 -->
<g id="edge13" class="edge"><title>Node3&#45;&gt;Node11</title>
<path fill="none" stroke="midnightblue" d="M370.886,-168.083C366.133,-160.534 359.182,-149.495 353.348,-140.23"/>
<polygon fill="midnightblue" stroke="midnightblue" points="356.3,-138.349 348.01,-131.751 350.376,-142.078 356.3,-138.349"/>
</g>
<!-- Node12 -->
<g id="node12" class="node"><title>Node12</title>
<g id="a_node12"><a xlink:href="PathNavigator_8h.html" target="_top" xlink:title="PathNavigator.h">
<polygon fill="white" stroke="black" points="439.5,-112.5 439.5,-131.5 531.5,-131.5 531.5,-112.5 439.5,-112.5"/>
<text text-anchor="middle" x="485.5" y="-119.5" font-family="Verdana" font-size="10.00">PathNavigator.h</text>
</a>
</g>
</g>
<!-- Node3&#45;&gt;Node12 -->
<g id="edge16" class="edge"><title>Node3&#45;&gt;Node12</title>
<path fill="none" stroke="midnightblue" d="M394.013,-168.324C411.572,-159.625 438.831,-146.12 459.031,-136.113"/>
<polygon fill="midnightblue" stroke="midnightblue" points="460.624,-139.23 468.031,-131.655 457.516,-132.958 460.624,-139.23"/>
</g>
<!-- Node9 -->
<g id="node9" class="node"><title>Node9</title>
<g id="a_node9"><a xlink:href="XmlElement_8h.html" target="_top" xlink:title="XmlElement.h">
<polygon fill="white" stroke="black" points="300,-56.5 300,-75.5 383,-75.5 383,-56.5 300,-56.5"/>
<text text-anchor="middle" x="341.5" y="-63.5" font-family="Verdana" font-size="10.00">XmlElement.h</text>
</a>
</g>
</g>
<!-- Node8&#45;&gt;Node9 -->
<g id="edge8" class="edge"><title>Node8&#45;&gt;Node9</title>
<path fill="none" stroke="midnightblue" d="M267.639,-112.324C281.366,-103.9 302.436,-90.9709 318.564,-81.0741"/>
<polygon fill="midnightblue" stroke="midnightblue" points="320.704,-83.8678 327.396,-75.6545 317.043,-77.9016 320.704,-83.8678"/>
</g>
<!-- Node10 -->
<g id="node10" class="node"><title>Node10</title>
<g id="a_node10"><a xlink:href="XmlSerializingContext_8h.html" target="_top" xlink:title="XmlSerializingContext.h">
<polygon fill="white" stroke="black" points="151.5,-56.5 151.5,-75.5 281.5,-75.5 281.5,-56.5 151.5,-56.5"/>
<text text-anchor="middle" x="216.5" y="-63.5" font-family="Verdana" font-size="10.00">XmlSerializingContext.h</text>
</a>
</g>
</g>
<!-- Node8&#45;&gt;Node10 -->
<g id="edge11" class="edge"><title>Node8&#45;&gt;Node10</title>
<path fill="none" stroke="midnightblue" d="M247.39,-112.083C242.218,-104.534 234.654,-93.4948 228.306,-84.2298"/>
<polygon fill="midnightblue" stroke="midnightblue" points="231.036,-82.0221 222.496,-75.7511 225.261,-85.9787 231.036,-82.0221"/>
</g>
<!-- Node9&#45;&gt;Node4 -->
<g id="edge10" class="edge"><title>Node9&#45;&gt;Node4</title>
<path fill="none" stroke="midnightblue" d="M314.246,-56.4435C283.646,-46.8366 234.039,-31.2622 201.59,-21.0749"/>
<polygon fill="midnightblue" stroke="midnightblue" points="202.293,-17.6271 191.704,-17.971 200.196,-24.3057 202.293,-17.6271"/>
</g>
<!-- Node9&#45;&gt;Node6 -->
<g id="edge9" class="edge"><title>Node9&#45;&gt;Node6</title>
<path fill="none" stroke="midnightblue" d="M358.852,-56.324C376.172,-47.6641 403.015,-34.2424 423.002,-24.249"/>
<polygon fill="midnightblue" stroke="midnightblue" points="424.812,-27.2572 432.191,-19.6545 421.681,-20.9962 424.812,-27.2572"/>
</g>
<!-- Node10&#45;&gt;Node4 -->
<g id="edge12" class="edge"><title>Node10&#45;&gt;Node4</title>
<path fill="none" stroke="midnightblue" d="M208.739,-56.083C201.963,-48.2982 191.957,-36.8015 183.745,-27.3665"/>
<polygon fill="midnightblue" stroke="midnightblue" points="186.322,-24.9963 177.117,-19.7511 181.042,-29.592 186.322,-24.9963"/>
</g>
<!-- Node11&#45;&gt;Node9 -->
<g id="edge14" class="edge"><title>Node11&#45;&gt;Node9</title>
<path fill="none" stroke="midnightblue" d="M342.335,-112.083C342.204,-105.006 342.016,-94.8611 341.852,-85.9865"/>
<polygon fill="midnightblue" stroke="midnightblue" points="345.347,-85.6845 341.662,-75.7511 338.348,-85.8142 345.347,-85.6845"/>
</g>
<!-- Node11&#45;&gt;Node10 -->
<g id="edge15" class="edge"><title>Node11&#45;&gt;Node10</title>
<path fill="none" stroke="midnightblue" d="M322.535,-112.444C301.891,-103.596 269.437,-89.6875 245.868,-79.5865"/>
<polygon fill="midnightblue" stroke="midnightblue" points="246.942,-76.2387 236.372,-75.5164 244.184,-82.6727 246.942,-76.2387"/>
</g>
<!-- Node12&#45;&gt;Node4 -->
<g id="edge18" class="edge"><title>Node12&#45;&gt;Node4</title>
<path fill="none" stroke="midnightblue" d="M475.875,-112.321C459.691,-98.2186 425.455,-70.4559 391.5,-56 327.655,-28.8189 246.353,-17.7289 201.991,-13.4613"/>
<polygon fill="midnightblue" stroke="midnightblue" points="202.077,-9.95481 191.802,-12.5396 201.446,-16.9264 202.077,-9.95481"/>
</g>
<!-- Node12&#45;&gt;Node5 -->
<g id="edge17" class="edge"><title>Node12&#45;&gt;Node5</title>
<path fill="none" stroke="midnightblue" d="M495.943,-112.324C505.646,-104.263 520.315,-92.0765 532,-82.3695"/>
<polygon fill="midnightblue" stroke="midnightblue" points="534.411,-84.9163 539.867,-75.8339 529.938,-79.532 534.411,-84.9163"/>
</g>
<!-- Node12&#45;&gt;Node6 -->
<g id="edge19" class="edge"><title>Node12&#45;&gt;Node6</title>
<path fill="none" stroke="midnightblue" d="M482.675,-112.368C476.839,-94.5366 463.342,-53.2953 455.48,-29.2717"/>
<polygon fill="midnightblue" stroke="midnightblue" points="458.749,-28.0067 452.312,-19.5914 452.096,-30.1841 458.749,-28.0067"/>
</g>
</g>
</svg>
