<?xml version="1.0" encoding="UTF-8" standalone="no"?>
<!DOCTYPE svg PUBLIC "-//W3C//DTD SVG 1.1//EN"
 "http://www.w3.org/Graphics/SVG/1.1/DTD/svg11.dtd">
<!-- Generated by graphviz version 2.36.0 (20140111.2315)
 -->
<!-- Title: parameter/InstanceConfigurableElement.h Pages: 1 -->
<svg width="2866pt" height="300pt"
 viewBox="0.00 0.00 2866.00 300.00" xmlns="http://www.w3.org/2000/svg" xmlns:xlink="http://www.w3.org/1999/xlink">
<g id="graph0" class="graph" transform="scale(1 1) rotate(0) translate(4 296)">
<title>parameter/InstanceConfigurableElement.h</title>
<polygon fill="white" stroke="none" points="-4,4 -4,-296 2862,-296 2862,4 -4,4"/>
<!-- Node1 -->
<g id="node1" class="node"><title>Node1</title>
<polygon fill="#bfbfbf" stroke="black" points="2053.5,-261 2053.5,-291 2224.5,-291 2224.5,-261 2053.5,-261"/>
<text text-anchor="start" x="2061.5" y="-279" font-family="Verdana" font-size="10.00">parameter/InstanceConfigurable</text>
<text text-anchor="middle" x="2139" y="-268" font-family="Verdana" font-size="10.00">Element.h</text>
</g>
<!-- Node2 -->
<g id="node2" class="node"><title>Node2</title>
<g id="a_node2"><a xlink:href="BaseParameter_8h.html" target="_top" xlink:title="parameter/BaseParameter.h">
<polygon fill="white" stroke="black" points="1032.5,-198.5 1032.5,-217.5 1185.5,-217.5 1185.5,-198.5 1032.5,-198.5"/>
<text text-anchor="middle" x="1109" y="-205.5" font-family="Verdana" font-size="10.00">parameter/BaseParameter.h</text>
</a>
</g>
</g>
<!-- Node1&#45;&gt;Node2 -->
<g id="edge1" class="edge"><title>Node1&#45;&gt;Node2</title>
<path fill="none" stroke="midnightblue" d="M2043.35,-268.871C1840.49,-255.872 1370.56,-225.76 1185.69,-213.914"/>
<polygon fill="midnightblue" stroke="midnightblue" points="2043.19,-272.368 2053.39,-269.515 2043.64,-265.382 2043.19,-272.368"/>
</g>
<!-- Node19 -->
<g id="node19" class="node"><title>Node19</title>
<g id="a_node19"><a xlink:href="BitParameterBlock_8h.html" target="_top" xlink:title="parameter/BitParameterBlock.h">
<polygon fill="white" stroke="black" points="1554,-198.5 1554,-217.5 1722,-217.5 1722,-198.5 1554,-198.5"/>
<text text-anchor="middle" x="1638" y="-205.5" font-family="Verdana" font-size="10.00">parameter/BitParameterBlock.h</text>
</a>
</g>
</g>
<!-- Node1&#45;&gt;Node19 -->
<g id="edge19" class="edge"><title>Node1&#45;&gt;Node19</title>
<path fill="none" stroke="midnightblue" d="M2043.35,-262.399C1943.43,-249.237 1789.45,-228.951 1702.87,-217.546"/>
<polygon fill="midnightblue" stroke="midnightblue" points="2043.07,-265.893 2053.44,-263.729 2043.99,-258.953 2043.07,-265.893"/>
</g>
<!-- Node22 -->
<g id="node22" class="node"><title>Node22</title>
<g id="a_node22"><a xlink:href="Component_8h.html" target="_top" xlink:title="parameter/Component.h">
<polygon fill="white" stroke="black" points="1802,-198.5 1802,-217.5 1938,-217.5 1938,-198.5 1802,-198.5"/>
<text text-anchor="middle" x="1870" y="-205.5" font-family="Verdana" font-size="10.00">parameter/Component.h</text>
</a>
</g>
</g>
<!-- Node1&#45;&gt;Node22 -->
<g id="edge23" class="edge"><title>Node1&#45;&gt;Node22</title>
<path fill="none" stroke="midnightblue" d="M2071.61,-258.466C2018.55,-245.447 1946.75,-227.831 1904.7,-217.514"/>
<polygon fill="midnightblue" stroke="midnightblue" points="2071.08,-261.939 2081.62,-260.922 2072.74,-255.14 2071.08,-261.939"/>
</g>
<!-- Node28 -->
<g id="node28" class="node"><title>Node28</title>
<g id="a_node28"><a xlink:href="FormattedSubsystemObject_8cpp.html" target="_top" xlink:title="parameter/FormattedSubsystem\lObject.cpp">
<polygon fill="white" stroke="black" points="1956.5,-193 1956.5,-223 2131.5,-223 2131.5,-193 1956.5,-193"/>
<text text-anchor="start" x="1964.5" y="-211" font-family="Verdana" font-size="10.00">parameter/FormattedSubsystem</text>
<text text-anchor="middle" x="2044" y="-200" font-family="Verdana" font-size="10.00">Object.cpp</text>
</a>
</g>
</g>
<!-- Node1&#45;&gt;Node28 -->
<g id="edge30" class="edge"><title>Node1&#45;&gt;Node28</title>
<path fill="none" stroke="midnightblue" d="M2110.05,-254.888C2095.24,-244.6 2077.58,-232.329 2064.25,-223.066"/>
<polygon fill="midnightblue" stroke="midnightblue" points="2108.18,-257.848 2118.39,-260.679 2112.17,-252.099 2108.18,-257.848"/>
</g>
<!-- Node29 -->
<g id="node29" class="node"><title>Node29</title>
<g id="a_node29"><a xlink:href="InstanceConfigurableElement_8cpp.html" target="_top" xlink:title="parameter/InstanceConfigurable\lElement.cpp">
<polygon fill="white" stroke="black" points="2149.5,-193 2149.5,-223 2320.5,-223 2320.5,-193 2149.5,-193"/>
<text text-anchor="start" x="2157.5" y="-211" font-family="Verdana" font-size="10.00">parameter/InstanceConfigurable</text>
<text text-anchor="middle" x="2235" y="-200" font-family="Verdana" font-size="10.00">Element.cpp</text>
</a>
</g>
</g>
<!-- Node1&#45;&gt;Node29 -->
<g id="edge31" class="edge"><title>Node1&#45;&gt;Node29</title>
<path fill="none" stroke="midnightblue" d="M2168.25,-254.888C2183.22,-244.6 2201.07,-232.329 2214.54,-223.066"/>
<polygon fill="midnightblue" stroke="midnightblue" points="2166.09,-252.129 2159.83,-260.679 2170.05,-257.898 2166.09,-252.129"/>
</g>
<!-- Node30 -->
<g id="node30" class="node"><title>Node30</title>
<g id="a_node30"><a xlink:href="ParameterBlock_8h.html" target="_top" xlink:title="parameter/ParameterBlock.h">
<polygon fill="white" stroke="black" points="2338.5,-198.5 2338.5,-217.5 2493.5,-217.5 2493.5,-198.5 2338.5,-198.5"/>
<text text-anchor="middle" x="2416" y="-205.5" font-family="Verdana" font-size="10.00">parameter/ParameterBlock.h</text>
</a>
</g>
</g>
<!-- Node1&#45;&gt;Node30 -->
<g id="edge32" class="edge"><title>Node1&#45;&gt;Node30</title>
<path fill="none" stroke="midnightblue" d="M2208.05,-258.547C2262.73,-245.52 2336.88,-227.852 2380.27,-217.514"/>
<polygon fill="midnightblue" stroke="midnightblue" points="2207,-255.2 2198.08,-260.922 2208.62,-262.009 2207,-255.2"/>
</g>
<!-- Node32 -->
<g id="node32" class="node"><title>Node32</title>
<g id="a_node32"><a xlink:href="SubsystemObject_8cpp.html" target="_top" xlink:title="parameter/SubsystemObject.cpp">
<polygon fill="white" stroke="black" points="2512,-198.5 2512,-217.5 2688,-217.5 2688,-198.5 2512,-198.5"/>
<text text-anchor="middle" x="2600" y="-205.5" font-family="Verdana" font-size="10.00">parameter/SubsystemObject.cpp</text>
</a>
</g>
</g>
<!-- Node1&#45;&gt;Node32 -->
<g id="edge34" class="edge"><title>Node1&#45;&gt;Node32</title>
<path fill="none" stroke="midnightblue" d="M2234.98,-261.843C2308.18,-251.729 2411.49,-237.284 2502,-224 2515.96,-221.95 2531.04,-219.675 2545.08,-217.528"/>
<polygon fill="midnightblue" stroke="midnightblue" points="2234.28,-258.406 2224.85,-263.241 2235.24,-265.34 2234.28,-258.406"/>
</g>
<!-- Node33 -->
<g id="node33" class="node"><title>Node33</title>
<g id="a_node33"><a xlink:href="TypeElement_8cpp.html" target="_top" xlink:title="parameter/TypeElement.cpp">
<polygon fill="white" stroke="black" points="2706,-198.5 2706,-217.5 2858,-217.5 2858,-198.5 2706,-198.5"/>
<text text-anchor="middle" x="2782" y="-205.5" font-family="Verdana" font-size="10.00">parameter/TypeElement.cpp</text>
</a>
</g>
</g>
<!-- Node1&#45;&gt;Node33 -->
<g id="edge35" class="edge"><title>Node1&#45;&gt;Node33</title>
<path fill="none" stroke="midnightblue" d="M2234.83,-268.607C2346.02,-260.638 2534.74,-245.41 2696,-224 2709.37,-222.225 2723.84,-219.871 2737.03,-217.555"/>
<polygon fill="midnightblue" stroke="midnightblue" points="2234.37,-265.131 2224.64,-269.332 2234.87,-272.113 2234.37,-265.131"/>
</g>
<!-- Node3 -->
<g id="node3" class="node"><title>Node3</title>
<g id="a_node3"><a xlink:href="Parameter_8h.html" target="_top" xlink:title="parameter/Parameter.h">
<polygon fill="white" stroke="black" points="400.5,-130.5 400.5,-149.5 529.5,-149.5 529.5,-130.5 400.5,-130.5"/>
<text text-anchor="middle" x="465" y="-137.5" font-family="Verdana" font-size="10.00">parameter/Parameter.h</text>
</a>
</g>
</g>
<!-- Node2&#45;&gt;Node3 -->
<g id="edge2" class="edge"><title>Node2&#45;&gt;Node3</title>
<path fill="none" stroke="midnightblue" d="M1022.28,-198.113C891.34,-184.693 646.113,-159.561 529.623,-147.623"/>
<polygon fill="midnightblue" stroke="midnightblue" points="1021.97,-201.599 1032.28,-199.137 1022.69,-194.636 1021.97,-201.599"/>
</g>
<!-- Node10 -->
<g id="node10" class="node"><title>Node10</title>
<g id="a_node10"><a xlink:href="BaseParameter_8cpp.html" target="_top" xlink:title="parameter/BaseParameter.cpp">
<polygon fill="white" stroke="black" points="1121,-130.5 1121,-149.5 1285,-149.5 1285,-130.5 1121,-130.5"/>
<text text-anchor="middle" x="1203" y="-137.5" font-family="Verdana" font-size="10.00">parameter/BaseParameter.cpp</text>
</a>
</g>
</g>
<!-- Node2&#45;&gt;Node10 -->
<g id="edge10" class="edge"><title>Node2&#45;&gt;Node10</title>
<path fill="none" stroke="midnightblue" d="M1129.72,-192.455C1148.39,-179.343 1175.22,-160.502 1190.71,-149.63"/>
<polygon fill="midnightblue" stroke="midnightblue" points="1127.46,-189.761 1121.29,-198.372 1131.48,-195.49 1127.46,-189.761"/>
</g>
<!-- Node11 -->
<g id="node11" class="node"><title>Node11</title>
<g id="a_node11"><a xlink:href="BitParameter_8h.html" target="_top" xlink:title="parameter/BitParameter.h">
<polygon fill="white" stroke="black" points="767,-130.5 767,-149.5 909,-149.5 909,-130.5 767,-130.5"/>
<text text-anchor="middle" x="838" y="-137.5" font-family="Verdana" font-size="10.00">parameter/BitParameter.h</text>
</a>
</g>
</g>
<!-- Node2&#45;&gt;Node11 -->
<g id="edge11" class="edge"><title>Node2&#45;&gt;Node11</title>
<path fill="none" stroke="midnightblue" d="M1063.93,-196.024C1010.3,-182.963 921.894,-161.432 873.088,-149.546"/>
<polygon fill="midnightblue" stroke="midnightblue" points="1063.31,-199.474 1073.85,-198.439 1064.96,-192.672 1063.31,-199.474"/>
</g>
<!-- Node15 -->
<g id="node15" class="node"><title>Node15</title>
<g id="a_node15"><a xlink:href="ParameterHandle_8cpp.html" target="_top" xlink:title="parameter/ParameterHandle.cpp">
<polygon fill="white" stroke="black" points="927.5,-130.5 927.5,-149.5 1102.5,-149.5 1102.5,-130.5 927.5,-130.5"/>
<text text-anchor="middle" x="1015" y="-137.5" font-family="Verdana" font-size="10.00">parameter/ParameterHandle.cpp</text>
</a>
</g>
</g>
<!-- Node2&#45;&gt;Node15 -->
<g id="edge15" class="edge"><title>Node2&#45;&gt;Node15</title>
<path fill="none" stroke="midnightblue" d="M1088.28,-192.455C1069.61,-179.343 1042.78,-160.502 1027.29,-149.63"/>
<polygon fill="midnightblue" stroke="midnightblue" points="1086.52,-195.49 1096.71,-198.372 1090.54,-189.761 1086.52,-195.49"/>
</g>
<!-- Node16 -->
<g id="node16" class="node"><title>Node16</title>
<g id="a_node16"><a xlink:href="StringParameter_8h.html" target="_top" xlink:title="parameter/StringParameter.h">
<polygon fill="white" stroke="black" points="1341,-130.5 1341,-149.5 1499,-149.5 1499,-130.5 1341,-130.5"/>
<text text-anchor="middle" x="1420" y="-137.5" font-family="Verdana" font-size="10.00">parameter/StringParameter.h</text>
</a>
</g>
</g>
<!-- Node2&#45;&gt;Node16 -->
<g id="edge16" class="edge"><title>Node2&#45;&gt;Node16</title>
<path fill="none" stroke="midnightblue" d="M1159.19,-196.348C1220.58,-183.322 1323.26,-161.531 1379.73,-149.546"/>
<polygon fill="midnightblue" stroke="midnightblue" points="1158.39,-192.94 1149.34,-198.439 1159.85,-199.787 1158.39,-192.94"/>
</g>
<!-- Node4 -->
<g id="node4" class="node"><title>Node4</title>
<g id="a_node4"><a xlink:href="ArrayParameter_8h.html" target="_top" xlink:title="parameter/ArrayParameter.h">
<polygon fill="white" stroke="black" points="334.5,-62.5 334.5,-81.5 489.5,-81.5 489.5,-62.5 334.5,-62.5"/>
<text text-anchor="middle" x="412" y="-69.5" font-family="Verdana" font-size="10.00">parameter/ArrayParameter.h</text>
</a>
</g>
</g>
<!-- Node3&#45;&gt;Node4 -->
<g id="edge3" class="edge"><title>Node3&#45;&gt;Node4</title>
<path fill="none" stroke="midnightblue" d="M451.598,-122.31C441.265,-109.444 427.385,-92.1583 419.1,-81.8411"/>
<polygon fill="midnightblue" stroke="midnightblue" points="449.081,-124.766 458.071,-130.372 454.539,-120.383 449.081,-124.766"/>
</g>
<!-- Node6 -->
<g id="node6" class="node"><title>Node6</title>
<g id="a_node6"><a xlink:href="ParameterType_8cpp.html" target="_top" xlink:title="parameter/ParameterType.cpp">
<polygon fill="white" stroke="black" points="437,-0.5 437,-19.5 599,-19.5 599,-0.5 437,-0.5"/>
<text text-anchor="middle" x="518" y="-7.5" font-family="Verdana" font-size="10.00">parameter/ParameterType.cpp</text>
</a>
</g>
</g>
<!-- Node3&#45;&gt;Node6 -->
<g id="edge9" class="edge"><title>Node3&#45;&gt;Node6</title>
<path fill="none" stroke="midnightblue" d="M477.782,-122.266C484.6,-112.669 492.661,-100.145 498,-88 508.339,-64.4829 514.212,-34.4913 516.651,-19.848"/>
<polygon fill="midnightblue" stroke="midnightblue" points="474.859,-120.334 471.756,-130.464 480.499,-124.48 474.859,-120.334"/>
</g>
<!-- Node7 -->
<g id="node7" class="node"><title>Node7</title>
<g id="a_node7"><a xlink:href="FixedPointParameterType_8cpp.html" target="_top" xlink:title="parameter/FixedPointParameter\lType.cpp">
<polygon fill="white" stroke="black" points="545.5,-57 545.5,-87 714.5,-87 714.5,-57 545.5,-57"/>
<text text-anchor="start" x="553.5" y="-75" font-family="Verdana" font-size="10.00">parameter/FixedPointParameter</text>
<text text-anchor="middle" x="630" y="-64" font-family="Verdana" font-size="10.00">Type.cpp</text>
</a>
</g>
</g>
<!-- Node3&#45;&gt;Node7 -->
<g id="edge6" class="edge"><title>Node3&#45;&gt;Node7</title>
<path fill="none" stroke="midnightblue" d="M495.917,-126.633C524.033,-115.387 565.497,-98.801 594.859,-87.0562"/>
<polygon fill="midnightblue" stroke="midnightblue" points="494.556,-123.408 486.571,-130.372 497.156,-129.907 494.556,-123.408"/>
</g>
<!-- Node8 -->
<g id="node8" class="node"><title>Node8</title>
<g id="a_node8"><a xlink:href="Parameter_8cpp.html" target="_top" xlink:title="parameter/Parameter.cpp">
<polygon fill="white" stroke="black" points="0,-62.5 0,-81.5 140,-81.5 140,-62.5 0,-62.5"/>
<text text-anchor="middle" x="70" y="-69.5" font-family="Verdana" font-size="10.00">parameter/Parameter.cpp</text>
</a>
</g>
</g>
<!-- Node3&#45;&gt;Node8 -->
<g id="edge7" class="edge"><title>Node3&#45;&gt;Node8</title>
<path fill="none" stroke="midnightblue" d="M399.315,-128.941C335.338,-119.015 235.374,-103.167 149,-88 137.588,-85.996 125.271,-83.7147 113.836,-81.5466"/>
<polygon fill="midnightblue" stroke="midnightblue" points="398.849,-132.41 409.267,-130.482 399.92,-125.492 398.849,-132.41"/>
</g>
<!-- Node9 -->
<g id="node9" class="node"><title>Node9</title>
<g id="a_node9"><a xlink:href="ParameterMgr_8cpp.html" target="_top" xlink:title="parameter/ParameterMgr.cpp">
<polygon fill="white" stroke="black" points="158,-62.5 158,-81.5 316,-81.5 316,-62.5 158,-62.5"/>
<text text-anchor="middle" x="237" y="-69.5" font-family="Verdana" font-size="10.00">parameter/ParameterMgr.cpp</text>
</a>
</g>
</g>
<!-- Node3&#45;&gt;Node9 -->
<g id="edge8" class="edge"><title>Node3&#45;&gt;Node9</title>
<path fill="none" stroke="midnightblue" d="M425.42,-127.543C380.128,-114.432 307,-93.2632 266.453,-81.5259"/>
<polygon fill="midnightblue" stroke="midnightblue" points="424.614,-130.953 435.193,-130.372 426.561,-124.229 424.614,-130.953"/>
</g>
<!-- Node5 -->
<g id="node5" class="node"><title>Node5</title>
<g id="a_node5"><a xlink:href="ArrayParameter_8cpp.html" target="_top" xlink:title="parameter/ArrayParameter.cpp">
<polygon fill="white" stroke="black" points="253,-0.5 253,-19.5 419,-19.5 419,-0.5 253,-0.5"/>
<text text-anchor="middle" x="336" y="-7.5" font-family="Verdana" font-size="10.00">parameter/ArrayParameter.cpp</text>
</a>
</g>
</g>
<!-- Node4&#45;&gt;Node5 -->
<g id="edge4" class="edge"><title>Node4&#45;&gt;Node5</title>
<path fill="none" stroke="midnightblue" d="M393.216,-56.1702C378.637,-44.6608 358.938,-29.1086 346.869,-19.5806"/>
<polygon fill="midnightblue" stroke="midnightblue" points="391.093,-58.9541 401.111,-62.4035 395.431,-53.4599 391.093,-58.9541"/>
</g>
<!-- Node4&#45;&gt;Node6 -->
<g id="edge5" class="edge"><title>Node4&#45;&gt;Node6</title>
<path fill="none" stroke="midnightblue" d="M435.95,-57.4435C456.463,-45.832 485.379,-29.4648 502.841,-19.5806"/>
<polygon fill="midnightblue" stroke="midnightblue" points="434.166,-54.4315 427.187,-62.4035 437.614,-60.5233 434.166,-54.4315"/>
</g>
<!-- Node12 -->
<g id="node12" class="node"><title>Node12</title>
<g id="a_node12"><a xlink:href="BitParameter_8cpp.html" target="_top" xlink:title="parameter/BitParameter.cpp">
<polygon fill="white" stroke="black" points="1164.5,-62.5 1164.5,-81.5 1317.5,-81.5 1317.5,-62.5 1164.5,-62.5"/>
<text text-anchor="middle" x="1241" y="-69.5" font-family="Verdana" font-size="10.00">parameter/BitParameter.cpp</text>
</a>
</g>
</g>
<!-- Node11&#45;&gt;Node12 -->
<g id="edge12" class="edge"><title>Node11&#45;&gt;Node12</title>
<path fill="none" stroke="midnightblue" d="M892.332,-128.595C900.913,-127.015 909.693,-125.434 918,-124 943.909,-119.527 1101.46,-94.8215 1186.56,-81.5079"/>
<polygon fill="midnightblue" stroke="midnightblue" points="891.583,-125.174 882.39,-130.442 892.861,-132.057 891.583,-125.174"/>
</g>
<!-- Node13 -->
<g id="node13" class="node"><title>Node13</title>
<g id="a_node13"><a xlink:href="BitParameterType_8cpp.html" target="_top" xlink:title="parameter/BitParameterType.cpp">
<polygon fill="white" stroke="black" points="961.5,-62.5 961.5,-81.5 1136.5,-81.5 1136.5,-62.5 961.5,-62.5"/>
<text text-anchor="middle" x="1049" y="-69.5" font-family="Verdana" font-size="10.00">parameter/BitParameterType.cpp</text>
</a>
</g>
</g>
<!-- Node11&#45;&gt;Node13 -->
<g id="edge13" class="edge"><title>Node11&#45;&gt;Node13</title>
<path fill="none" stroke="midnightblue" d="M875.158,-127.377C917.112,-114.254 984.377,-93.2139 1021.74,-81.5259"/>
<polygon fill="midnightblue" stroke="midnightblue" points="874.084,-124.046 865.585,-130.372 876.173,-130.727 874.084,-124.046"/>
</g>
<!-- Node14 -->
<g id="node14" class="node"><title>Node14</title>
<g id="a_node14"><a xlink:href="BitwiseAreaConfiguration_8cpp.html" target="_top" xlink:title="parameter/BitwiseAreaConfiguration.cpp">
<polygon fill="white" stroke="black" points="733,-62.5 733,-81.5 943,-81.5 943,-62.5 733,-62.5"/>
<text text-anchor="middle" x="838" y="-69.5" font-family="Verdana" font-size="10.00">parameter/BitwiseAreaConfiguration.cpp</text>
</a>
</g>
</g>
<!-- Node11&#45;&gt;Node14 -->
<g id="edge14" class="edge"><title>Node11&#45;&gt;Node14</title>
<path fill="none" stroke="midnightblue" d="M838,-120.041C838,-107.472 838,-91.5631 838,-81.8411"/>
<polygon fill="midnightblue" stroke="midnightblue" points="834.5,-120.372 838,-130.372 841.5,-120.372 834.5,-120.372"/>
</g>
<!-- Node17 -->
<g id="node17" class="node"><title>Node17</title>
<g id="a_node17"><a xlink:href="StringParameter_8cpp.html" target="_top" xlink:title="parameter/StringParameter.cpp">
<polygon fill="white" stroke="black" points="1507.5,-62.5 1507.5,-81.5 1676.5,-81.5 1676.5,-62.5 1507.5,-62.5"/>
<text text-anchor="middle" x="1592" y="-69.5" font-family="Verdana" font-size="10.00">parameter/StringParameter.cpp</text>
</a>
</g>
</g>
<!-- Node16&#45;&gt;Node17 -->
<g id="edge17" class="edge"><title>Node16&#45;&gt;Node17</title>
<path fill="none" stroke="midnightblue" d="M1452.04,-126.706C1486.33,-113.547 1539.84,-93.0166 1569.78,-81.5259"/>
<polygon fill="midnightblue" stroke="midnightblue" points="1450.57,-123.521 1442.49,-130.372 1453.08,-130.057 1450.57,-123.521"/>
</g>
<!-- Node18 -->
<g id="node18" class="node"><title>Node18</title>
<g id="a_node18"><a xlink:href="StringParameterType_8cpp.html" target="_top" xlink:title="parameter/StringParameter\lType.cpp">
<polygon fill="white" stroke="black" points="1340.5,-57 1340.5,-87 1489.5,-87 1489.5,-57 1340.5,-57"/>
<text text-anchor="start" x="1348.5" y="-75" font-family="Verdana" font-size="10.00">parameter/StringParameter</text>
<text text-anchor="middle" x="1415" y="-64" font-family="Verdana" font-size="10.00">Type.cpp</text>
</a>
</g>
</g>
<!-- Node16&#45;&gt;Node18 -->
<g id="edge18" class="edge"><title>Node16&#45;&gt;Node18</title>
<path fill="none" stroke="midnightblue" d="M1418.57,-120.174C1417.78,-109.678 1416.8,-96.8209 1416.07,-87.1815"/>
<polygon fill="midnightblue" stroke="midnightblue" points="1415.1,-120.665 1419.35,-130.372 1422.08,-120.136 1415.1,-120.665"/>
</g>
<!-- Node19&#45;&gt;Node12 -->
<g id="edge20" class="edge"><title>Node19&#45;&gt;Node12</title>
<path fill="none" stroke="midnightblue" d="M1543.64,-205.053C1480.9,-200.521 1398.19,-188.163 1332,-156 1322.24,-151.257 1270.74,-101.846 1249.83,-81.5897"/>
<polygon fill="midnightblue" stroke="midnightblue" points="1543.71,-208.566 1553.93,-205.74 1544.18,-201.582 1543.71,-208.566"/>
</g>
<!-- Node20 -->
<g id="node20" class="node"><title>Node20</title>
<g id="a_node20"><a xlink:href="BitParameterBlock_8cpp.html" target="_top" xlink:title="parameter/BitParameterBlock.cpp">
<polygon fill="white" stroke="black" points="1517.5,-130.5 1517.5,-149.5 1696.5,-149.5 1696.5,-130.5 1517.5,-130.5"/>
<text text-anchor="middle" x="1607" y="-137.5" font-family="Verdana" font-size="10.00">parameter/BitParameterBlock.cpp</text>
</a>
</g>
</g>
<!-- Node19&#45;&gt;Node20 -->
<g id="edge21" class="edge"><title>Node19&#45;&gt;Node20</title>
<path fill="none" stroke="midnightblue" d="M1629.63,-189.186C1623.65,-176.452 1615.86,-159.861 1611.15,-149.841"/>
<polygon fill="midnightblue" stroke="midnightblue" points="1626.53,-190.808 1633.95,-198.372 1632.86,-187.832 1626.53,-190.808"/>
</g>
<!-- Node21 -->
<g id="node21" class="node"><title>Node21</title>
<g id="a_node21"><a xlink:href="BitParameterBlockType_8cpp.html" target="_top" xlink:title="parameter/BitParameterBlock\lType.cpp">
<polygon fill="white" stroke="black" points="1714.5,-125 1714.5,-155 1873.5,-155 1873.5,-125 1714.5,-125"/>
<text text-anchor="start" x="1722.5" y="-143" font-family="Verdana" font-size="10.00">parameter/BitParameterBlock</text>
<text text-anchor="middle" x="1794" y="-132" font-family="Verdana" font-size="10.00">Type.cpp</text>
</a>
</g>
</g>
<!-- Node19&#45;&gt;Node21 -->
<g id="edge22" class="edge"><title>Node19&#45;&gt;Node21</title>
<path fill="none" stroke="midnightblue" d="M1667.93,-194.337C1694.5,-183.097 1733.26,-166.698 1760.78,-155.056"/>
<polygon fill="midnightblue" stroke="midnightblue" points="1666.24,-191.252 1658.39,-198.372 1668.97,-197.699 1666.24,-191.252"/>
</g>
<!-- Node23 -->
<g id="node23" class="node"><title>Node23</title>
<g id="a_node23"><a xlink:href="ComponentLibrary_8h.html" target="_top" xlink:title="parameter/ComponentLibrary.h">
<polygon fill="white" stroke="black" points="1973.5,-130.5 1973.5,-149.5 2140.5,-149.5 2140.5,-130.5 1973.5,-130.5"/>
<text text-anchor="middle" x="2057" y="-137.5" font-family="Verdana" font-size="10.00">parameter/ComponentLibrary.h</text>
</a>
</g>
</g>
<!-- Node22&#45;&gt;Node23 -->
<g id="edge24" class="edge"><title>Node22&#45;&gt;Node23</title>
<path fill="none" stroke="midnightblue" d="M1903.88,-195.043C1941.12,-181.9 2000.01,-161.115 2032.84,-149.526"/>
<polygon fill="midnightblue" stroke="midnightblue" points="1902.71,-191.743 1894.45,-198.372 1905.04,-198.344 1902.71,-191.743"/>
</g>
<!-- Node24 -->
<g id="node24" class="node"><title>Node24</title>
<g id="a_node24"><a xlink:href="ComponentInstance_8cpp.html" target="_top" xlink:title="parameter/ComponentInstance.cpp">
<polygon fill="white" stroke="black" points="1762,-62.5 1762,-81.5 1950,-81.5 1950,-62.5 1762,-62.5"/>
<text text-anchor="middle" x="1856" y="-69.5" font-family="Verdana" font-size="10.00">parameter/ComponentInstance.cpp</text>
</a>
</g>
</g>
<!-- Node22&#45;&gt;Node24 -->
<g id="edge29" class="edge"><title>Node22&#45;&gt;Node24</title>
<path fill="none" stroke="midnightblue" d="M1876.67,-188.426C1881.82,-171.482 1887.24,-145.833 1882,-124 1878.15,-107.959 1868.36,-91.2768 1861.95,-81.5301"/>
<polygon fill="midnightblue" stroke="midnightblue" points="1873.26,-187.583 1873.44,-198.176 1879.91,-189.782 1873.26,-187.583"/>
</g>
<!-- Node23&#45;&gt;Node24 -->
<g id="edge25" class="edge"><title>Node23&#45;&gt;Node24</title>
<path fill="none" stroke="midnightblue" d="M2021.1,-127.211C1981.1,-114.077 1917.41,-93.1646 1881.97,-81.5259"/>
<polygon fill="midnightblue" stroke="midnightblue" points="2020.13,-130.577 2030.72,-130.372 2022.31,-123.927 2020.13,-130.577"/>
</g>
<!-- Node25 -->
<g id="node25" class="node"><title>Node25</title>
<g id="a_node25"><a xlink:href="ComponentLibrary_8cpp.html" target="_top" xlink:title="parameter/ComponentLibrary.cpp">
<polygon fill="white" stroke="black" points="1968,-62.5 1968,-81.5 2146,-81.5 2146,-62.5 1968,-62.5"/>
<text text-anchor="middle" x="2057" y="-69.5" font-family="Verdana" font-size="10.00">parameter/ComponentLibrary.cpp</text>
</a>
</g>
</g>
<!-- Node23&#45;&gt;Node25 -->
<g id="edge26" class="edge"><title>Node23&#45;&gt;Node25</title>
<path fill="none" stroke="midnightblue" d="M2057,-120.041C2057,-107.472 2057,-91.5631 2057,-81.8411"/>
<polygon fill="midnightblue" stroke="midnightblue" points="2053.5,-120.372 2057,-130.372 2060.5,-120.372 2053.5,-120.372"/>
</g>
<!-- Node26 -->
<g id="node26" class="node"><title>Node26</title>
<g id="a_node26"><a xlink:href="ComponentType_8cpp.html" target="_top" xlink:title="parameter/ComponentType.cpp">
<polygon fill="white" stroke="black" points="2164,-62.5 2164,-81.5 2332,-81.5 2332,-62.5 2164,-62.5"/>
<text text-anchor="middle" x="2248" y="-69.5" font-family="Verdana" font-size="10.00">parameter/ComponentType.cpp</text>
</a>
</g>
</g>
<!-- Node23&#45;&gt;Node26 -->
<g id="edge27" class="edge"><title>Node23&#45;&gt;Node26</title>
<path fill="none" stroke="midnightblue" d="M2091.6,-127.043C2129.64,-113.9 2189.79,-93.1153 2223.33,-81.5259"/>
<polygon fill="midnightblue" stroke="midnightblue" points="2090.28,-123.798 2081.97,-130.372 2092.56,-130.414 2090.28,-123.798"/>
</g>
<!-- Node27 -->
<g id="node27" class="node"><title>Node27</title>
<g id="a_node27"><a xlink:href="Subsystem_8cpp.html" target="_top" xlink:title="parameter/Subsystem.cpp">
<polygon fill="white" stroke="black" points="2350.5,-62.5 2350.5,-81.5 2495.5,-81.5 2495.5,-62.5 2350.5,-62.5"/>
<text text-anchor="middle" x="2423" y="-69.5" font-family="Verdana" font-size="10.00">parameter/Subsystem.cpp</text>
</a>
</g>
</g>
<!-- Node23&#45;&gt;Node27 -->
<g id="edge28" class="edge"><title>Node23&#45;&gt;Node27</title>
<path fill="none" stroke="midnightblue" d="M2114.5,-128.646C2171.68,-118.348 2261.91,-102.094 2340,-88 2351.53,-85.9195 2363.96,-83.6745 2375.6,-81.5709"/>
<polygon fill="midnightblue" stroke="midnightblue" points="2113.79,-125.218 2104.57,-130.435 2115.03,-132.107 2113.79,-125.218"/>
</g>
<!-- Node31 -->
<g id="node31" class="node"><title>Node31</title>
<g id="a_node31"><a xlink:href="ParameterBlockType_8cpp.html" target="_top" xlink:title="parameter/ParameterBlock\lType.cpp">
<polygon fill="white" stroke="black" points="2343,-125 2343,-155 2489,-155 2489,-125 2343,-125"/>
<text text-anchor="start" x="2351" y="-143" font-family="Verdana" font-size="10.00">parameter/ParameterBlock</text>
<text text-anchor="middle" x="2416" y="-132" font-family="Verdana" font-size="10.00">Type.cpp</text>
</a>
</g>
</g>
<!-- Node30&#45;&gt;Node31 -->
<g id="edge33" class="edge"><title>Node30&#45;&gt;Node31</title>
<path fill="none" stroke="midnightblue" d="M2416,-188.174C2416,-177.678 2416,-164.821 2416,-155.181"/>
<polygon fill="midnightblue" stroke="midnightblue" points="2412.5,-188.372 2416,-198.372 2419.5,-188.372 2412.5,-188.372"/>
</g>
</g>
</svg>
