<?xml version="1.0" encoding="UTF-8" standalone="no"?>
<!DOCTYPE svg PUBLIC "-//W3C//DTD SVG 1.1//EN"
 "http://www.w3.org/Graphics/SVG/1.1/DTD/svg11.dtd">
<!-- Generated by graphviz version 2.38.0 (20140413.2041)
 -->
<!-- Title: parameter/InstanceDefinition.cpp Pages: 1 -->
<svg width="599pt" height="364pt"
 viewBox="0.00 0.00 598.50 364.00" xmlns="http://www.w3.org/2000/svg" xmlns:xlink="http://www.w3.org/1999/xlink">
<g id="graph0" class="graph" transform="scale(1 1) rotate(0) translate(4 360)">
<title>parameter/InstanceDefinition.cpp</title>
<polygon fill="white" stroke="none" points="-4,4 -4,-360 594.5,-360 594.5,4 -4,4"/>
<!-- Node1 -->
<g id="node1" class="node"><title>Node1</title>
<polygon fill="#bfbfbf" stroke="black" points="17.5,-336.5 17.5,-355.5 193.5,-355.5 193.5,-336.5 17.5,-336.5"/>
<text text-anchor="middle" x="105.5" y="-343.5" font-family="Verdana" font-size="10.00">parameter/InstanceDefinition.cpp</text>
</g>
<!-- Node2 -->
<g id="node2" class="node"><title>Node2</title>
<g id="a_node2"><a xlink:href="InstanceDefinition_8h.html" target="_top" xlink:title="InstanceDefinition.h">
<polygon fill="white" stroke="black" points="0,-280.5 0,-299.5 111,-299.5 111,-280.5 0,-280.5"/>
<text text-anchor="middle" x="55.5" y="-287.5" font-family="Verdana" font-size="10.00">InstanceDefinition.h</text>
</a>
</g>
</g>
<!-- Node1&#45;&gt;Node2 -->
<g id="edge1" class="edge"><title>Node1&#45;&gt;Node2</title>
<path fill="none" stroke="midnightblue" d="M97.2435,-336.083C90.0353,-328.298 79.3902,-316.801 70.6542,-307.367"/>
<polygon fill="midnightblue" stroke="midnightblue" points="72.9651,-304.711 63.6028,-299.751 67.8288,-309.467 72.9651,-304.711"/>
</g>
<!-- Node14 -->
<g id="node14" class="node"><title>Node14</title>
<polygon fill="white" stroke="#bfbfbf" points="128.5,-280.5 128.5,-299.5 184.5,-299.5 184.5,-280.5 128.5,-280.5"/>
<text text-anchor="middle" x="156.5" y="-287.5" font-family="Verdana" font-size="10.00">assert.h</text>
</g>
<!-- Node1&#45;&gt;Node14 -->
<g id="edge23" class="edge"><title>Node1&#45;&gt;Node14</title>
<path fill="none" stroke="midnightblue" d="M113.922,-336.083C121.348,-328.22 132.352,-316.569 141.312,-307.081"/>
<polygon fill="midnightblue" stroke="midnightblue" points="143.913,-309.424 148.235,-299.751 138.824,-304.618 143.913,-309.424"/>
</g>
<!-- Node3 -->
<g id="node3" class="node"><title>Node3</title>
<g id="a_node3"><a xlink:href="TypeElement_8h.html" target="_top" xlink:title="TypeElement.h">
<polygon fill="white" stroke="black" points="48.5,-224.5 48.5,-243.5 134.5,-243.5 134.5,-224.5 48.5,-224.5"/>
<text text-anchor="middle" x="91.5" y="-231.5" font-family="Verdana" font-size="10.00">TypeElement.h</text>
</a>
</g>
</g>
<!-- Node2&#45;&gt;Node3 -->
<g id="edge2" class="edge"><title>Node2&#45;&gt;Node3</title>
<path fill="none" stroke="midnightblue" d="M61.4447,-280.083C66.4773,-272.534 73.8368,-261.495 80.0135,-252.23"/>
<polygon fill="midnightblue" stroke="midnightblue" points="83.0311,-254.013 85.6659,-243.751 77.2067,-250.13 83.0311,-254.013"/>
</g>
<!-- Node5 -->
<g id="node5" class="node"><title>Node5</title>
<polygon fill="white" stroke="#bfbfbf" points="120.5,-0.5 120.5,-19.5 164.5,-19.5 164.5,-0.5 120.5,-0.5"/>
<text text-anchor="middle" x="142.5" y="-7.5" font-family="Verdana" font-size="10.00">string</text>
</g>
<!-- Node2&#45;&gt;Node5 -->
<g id="edge22" class="edge"><title>Node2&#45;&gt;Node5</title>
<path fill="none" stroke="midnightblue" d="M50.7797,-280.456C41.2262,-262.337 20.5,-218.48 20.5,-179 20.5,-179 20.5,-179 20.5,-121 20.5,-72.1755 75.0624,-39.4586 111.209,-23.1412"/>
<polygon fill="midnightblue" stroke="midnightblue" points="112.62,-26.3445 120.407,-19.1598 109.839,-19.9205 112.62,-26.3445"/>
</g>
<!-- Node4 -->
<g id="node4" class="node"><title>Node4</title>
<g id="a_node4"><a xlink:href="Element_8h.html" target="_top" xlink:title="Element.h">
<polygon fill="white" stroke="black" points="317,-168.5 317,-187.5 382,-187.5 382,-168.5 317,-168.5"/>
<text text-anchor="middle" x="349.5" y="-175.5" font-family="Verdana" font-size="10.00">Element.h</text>
</a>
</g>
</g>
<!-- Node3&#45;&gt;Node4 -->
<g id="edge3" class="edge"><title>Node3&#45;&gt;Node4</title>
<path fill="none" stroke="midnightblue" d="M132.381,-224.444C180.136,-214.448 258.752,-197.994 307.136,-187.867"/>
<polygon fill="midnightblue" stroke="midnightblue" points="307.908,-191.281 316.979,-185.807 306.474,-184.43 307.908,-191.281"/>
</g>
<!-- Node3&#45;&gt;Node5 -->
<g id="edge21" class="edge"><title>Node3&#45;&gt;Node5</title>
<path fill="none" stroke="midnightblue" d="M90.805,-224.154C89.0496,-197.629 86.1119,-116.832 109.5,-56 113.483,-45.6404 120.51,-35.5409 127.059,-27.5434"/>
<polygon fill="midnightblue" stroke="midnightblue" points="129.891,-29.6205 133.81,-19.7774 124.608,-25.0277 129.891,-29.6205"/>
</g>
<!-- Node4&#45;&gt;Node5 -->
<g id="edge4" class="edge"><title>Node4&#45;&gt;Node5</title>
<path fill="none" stroke="midnightblue" d="M316.957,-172.094C282.806,-166.043 228.248,-153.783 185.5,-132 150.001,-113.911 132.759,-111.909 115.5,-76 107.684,-59.7378 117.867,-40.6111 127.885,-27.3343"/>
<polygon fill="midnightblue" stroke="midnightblue" points="130.635,-29.5006 134.255,-19.5432 125.216,-25.07 130.635,-29.5006"/>
</g>
<!-- Node6 -->
<g id="node6" class="node"><title>Node6</title>
<polygon fill="white" stroke="#bfbfbf" points="500,-56.5 500,-75.5 547,-75.5 547,-56.5 500,-56.5"/>
<text text-anchor="middle" x="523.5" y="-63.5" font-family="Verdana" font-size="10.00">vector</text>
</g>
<!-- Node4&#45;&gt;Node6 -->
<g id="edge5" class="edge"><title>Node4&#45;&gt;Node6</title>
<path fill="none" stroke="midnightblue" d="M382.282,-177.84C419.826,-176.887 480.405,-169.144 513.5,-132 524.528,-119.623 526.263,-100.378 525.7,-86.0363"/>
<polygon fill="midnightblue" stroke="midnightblue" points="529.168,-85.5023 524.888,-75.8105 522.19,-86.056 529.168,-85.5023"/>
</g>
<!-- Node7 -->
<g id="node7" class="node"><title>Node7</title>
<polygon fill="white" stroke="#bfbfbf" points="396,-0.5 396,-19.5 449,-19.5 449,-0.5 396,-0.5"/>
<text text-anchor="middle" x="422.5" y="-7.5" font-family="Verdana" font-size="10.00">stdint.h</text>
</g>
<!-- Node4&#45;&gt;Node7 -->
<g id="edge6" class="edge"><title>Node4&#45;&gt;Node7</title>
<path fill="none" stroke="midnightblue" d="M353.425,-168.075C364.965,-141.832 398.953,-64.5453 414.533,-29.1165"/>
<polygon fill="midnightblue" stroke="midnightblue" points="417.91,-30.131 418.732,-19.5681 411.503,-27.3131 417.91,-30.131"/>
</g>
<!-- Node8 -->
<g id="node8" class="node"><title>Node8</title>
<polygon fill="white" stroke="#bfbfbf" points="560.5,-112.5 560.5,-131.5 590.5,-131.5 590.5,-112.5 560.5,-112.5"/>
<text text-anchor="middle" x="575.5" y="-119.5" font-family="Verdana" font-size="10.00">list</text>
</g>
<!-- Node4&#45;&gt;Node8 -->
<g id="edge7" class="edge"><title>Node4&#45;&gt;Node8</title>
<path fill="none" stroke="midnightblue" d="M382.107,-170.349C421.332,-162.165 489.076,-147.445 546.5,-132 547.76,-131.661 549.047,-131.304 550.345,-130.934"/>
<polygon fill="midnightblue" stroke="midnightblue" points="551.634,-134.202 560.212,-127.984 549.629,-127.495 551.634,-134.202"/>
</g>
<!-- Node9 -->
<g id="node9" class="node"><title>Node9</title>
<g id="a_node9"><a xlink:href="XmlSink_8h.html" target="_top" xlink:title="XmlSink.h">
<polygon fill="white" stroke="black" points="194.5,-112.5 194.5,-131.5 258.5,-131.5 258.5,-112.5 194.5,-112.5"/>
<text text-anchor="middle" x="226.5" y="-119.5" font-family="Verdana" font-size="10.00">XmlSink.h</text>
</a>
</g>
</g>
<!-- Node4&#45;&gt;Node9 -->
<g id="edge8" class="edge"><title>Node4&#45;&gt;Node9</title>
<path fill="none" stroke="midnightblue" d="M330.01,-168.444C309.858,-159.596 278.177,-145.687 255.169,-135.586"/>
<polygon fill="midnightblue" stroke="midnightblue" points="256.462,-132.332 245.899,-131.516 253.648,-138.741 256.462,-132.332"/>
</g>
<!-- Node12 -->
<g id="node12" class="node"><title>Node12</title>
<g id="a_node12"><a xlink:href="XmlSource_8h.html" target="_top" xlink:title="XmlSource.h">
<polygon fill="white" stroke="black" points="277,-112.5 277,-131.5 354,-131.5 354,-112.5 277,-112.5"/>
<text text-anchor="middle" x="315.5" y="-119.5" font-family="Verdana" font-size="10.00">XmlSource.h</text>
</a>
</g>
</g>
<!-- Node4&#45;&gt;Node12 -->
<g id="edge14" class="edge"><title>Node4&#45;&gt;Node12</title>
<path fill="none" stroke="midnightblue" d="M343.886,-168.083C339.133,-160.534 332.182,-149.495 326.348,-140.23"/>
<polygon fill="midnightblue" stroke="midnightblue" points="329.3,-138.349 321.01,-131.751 323.376,-142.078 329.3,-138.349"/>
</g>
<!-- Node13 -->
<g id="node13" class="node"><title>Node13</title>
<g id="a_node13"><a xlink:href="PathNavigator_8h.html" target="_top" xlink:title="PathNavigator.h">
<polygon fill="white" stroke="black" points="412.5,-112.5 412.5,-131.5 504.5,-131.5 504.5,-112.5 412.5,-112.5"/>
<text text-anchor="middle" x="458.5" y="-119.5" font-family="Verdana" font-size="10.00">PathNavigator.h</text>
</a>
</g>
</g>
<!-- Node4&#45;&gt;Node13 -->
<g id="edge17" class="edge"><title>Node4&#45;&gt;Node13</title>
<path fill="none" stroke="midnightblue" d="M367.013,-168.324C384.572,-159.625 411.831,-146.12 432.031,-136.113"/>
<polygon fill="midnightblue" stroke="midnightblue" points="433.624,-139.23 441.031,-131.655 430.516,-132.958 433.624,-139.23"/>
</g>
<!-- Node10 -->
<g id="node10" class="node"><title>Node10</title>
<g id="a_node10"><a xlink:href="XmlElement_8h.html" target="_top" xlink:title="XmlElement.h">
<polygon fill="white" stroke="black" points="273,-56.5 273,-75.5 356,-75.5 356,-56.5 273,-56.5"/>
<text text-anchor="middle" x="314.5" y="-63.5" font-family="Verdana" font-size="10.00">XmlElement.h</text>
</a>
</g>
</g>
<!-- Node9&#45;&gt;Node10 -->
<g id="edge9" class="edge"><title>Node9&#45;&gt;Node10</title>
<path fill="none" stroke="midnightblue" d="M240.639,-112.324C254.366,-103.9 275.436,-90.9709 291.564,-81.0741"/>
<polygon fill="midnightblue" stroke="midnightblue" points="293.704,-83.8678 300.396,-75.6545 290.043,-77.9016 293.704,-83.8678"/>
</g>
<!-- Node11 -->
<g id="node11" class="node"><title>Node11</title>
<g id="a_node11"><a xlink:href="XmlSerializingContext_8h.html" target="_top" xlink:title="XmlSerializingContext.h">
<polygon fill="white" stroke="black" points="124.5,-56.5 124.5,-75.5 254.5,-75.5 254.5,-56.5 124.5,-56.5"/>
<text text-anchor="middle" x="189.5" y="-63.5" font-family="Verdana" font-size="10.00">XmlSerializingContext.h</text>
</a>
</g>
</g>
<!-- Node9&#45;&gt;Node11 -->
<g id="edge12" class="edge"><title>Node9&#45;&gt;Node11</title>
<path fill="none" stroke="midnightblue" d="M220.39,-112.083C215.218,-104.534 207.654,-93.4948 201.306,-84.2298"/>
<polygon fill="midnightblue" stroke="midnightblue" points="204.036,-82.0221 195.496,-75.7511 198.261,-85.9787 204.036,-82.0221"/>
</g>
<!-- Node10&#45;&gt;Node5 -->
<g id="edge11" class="edge"><title>Node10&#45;&gt;Node5</title>
<path fill="none" stroke="midnightblue" d="M287.246,-56.4435C256.646,-46.8366 207.039,-31.2622 174.59,-21.0749"/>
<polygon fill="midnightblue" stroke="midnightblue" points="175.293,-17.6271 164.704,-17.971 173.196,-24.3057 175.293,-17.6271"/>
</g>
<!-- Node10&#45;&gt;Node7 -->
<g id="edge10" class="edge"><title>Node10&#45;&gt;Node7</title>
<path fill="none" stroke="midnightblue" d="M331.852,-56.324C349.172,-47.6641 376.015,-34.2424 396.002,-24.249"/>
<polygon fill="midnightblue" stroke="midnightblue" points="397.812,-27.2572 405.191,-19.6545 394.681,-20.9962 397.812,-27.2572"/>
</g>
<!-- Node11&#45;&gt;Node5 -->
<g id="edge13" class="edge"><title>Node11&#45;&gt;Node5</title>
<path fill="none" stroke="midnightblue" d="M181.739,-56.083C174.963,-48.2982 164.957,-36.8015 156.745,-27.3665"/>
<polygon fill="midnightblue" stroke="midnightblue" points="159.322,-24.9963 150.117,-19.7511 154.042,-29.592 159.322,-24.9963"/>
</g>
<!-- Node12&#45;&gt;Node10 -->
<g id="edge15" class="edge"><title>Node12&#45;&gt;Node10</title>
<path fill="none" stroke="midnightblue" d="M315.335,-112.083C315.204,-105.006 315.016,-94.8611 314.852,-85.9865"/>
<polygon fill="midnightblue" stroke="midnightblue" points="318.347,-85.6845 314.662,-75.7511 311.348,-85.8142 318.347,-85.6845"/>
</g>
<!-- Node12&#45;&gt;Node11 -->
<g id="edge16" class="edge"><title>Node12&#45;&gt;Node11</title>
<path fill="none" stroke="midnightblue" d="M295.535,-112.444C274.891,-103.596 242.437,-89.6875 218.868,-79.5865"/>
<polygon fill="midnightblue" stroke="midnightblue" points="219.942,-76.2387 209.372,-75.5164 217.184,-82.6727 219.942,-76.2387"/>
</g>
<!-- Node13&#45;&gt;Node5 -->
<g id="edge19" class="edge"><title>Node13&#45;&gt;Node5</title>
<path fill="none" stroke="midnightblue" d="M448.875,-112.321C432.691,-98.2186 398.455,-70.4559 364.5,-56 300.655,-28.8189 219.353,-17.7289 174.991,-13.4613"/>
<polygon fill="midnightblue" stroke="midnightblue" points="175.077,-9.95481 164.802,-12.5396 174.446,-16.9264 175.077,-9.95481"/>
</g>
<!-- Node13&#45;&gt;Node6 -->
<g id="edge18" class="edge"><title>Node13&#45;&gt;Node6</title>
<path fill="none" stroke="midnightblue" d="M468.943,-112.324C478.646,-104.263 493.315,-92.0765 505,-82.3695"/>
<polygon fill="midnightblue" stroke="midnightblue" points="507.411,-84.9163 512.867,-75.8339 502.938,-79.532 507.411,-84.9163"/>
</g>
<!-- Node13&#45;&gt;Node7 -->
<g id="edge20" class="edge"><title>Node13&#45;&gt;Node7</title>
<path fill="none" stroke="midnightblue" d="M455.675,-112.368C449.839,-94.5366 436.342,-53.2953 428.48,-29.2717"/>
<polygon fill="midnightblue" stroke="midnightblue" points="431.749,-28.0067 425.312,-19.5914 425.096,-30.1841 431.749,-28.0067"/>
</g>
</g>
</svg>
