<?xml version="1.0" encoding="UTF-8" standalone="no"?>
<!DOCTYPE svg PUBLIC "-//W3C//DTD SVG 1.1//EN"
 "http://www.w3.org/Graphics/SVG/1.1/DTD/svg11.dtd">
<!-- Generated by graphviz version 2.38.0 (20140413.2041)
 -->
<!-- Title: /home/dawagner/dev/parameter&#45;framework/parameter/IntegerParameterType.cpp Pages: 1 -->
<svg width="1052pt" height="397pt"
 viewBox="0.00 0.00 1052.20 397.00" xmlns="http://www.w3.org/2000/svg" xmlns:xlink="http://www.w3.org/1999/xlink">
<g id="graph0" class="graph" transform="scale(1 1) rotate(0) translate(4 393)">
<title>/home/dawagner/dev/parameter&#45;framework/parameter/IntegerParameterType.cpp</title>
<polygon fill="white" stroke="none" points="-4,4 -4,-393 1048.2,-393 1048.2,4 -4,4"/>
<!-- Node1 -->
<g id="node1" class="node"><title>Node1</title>
<polygon fill="#bfbfbf" stroke="black" points="683.695,-336.5 683.695,-388.5 841.695,-388.5 841.695,-336.5 683.695,-336.5"/>
<text text-anchor="start" x="691.695" y="-376.5" font-family="Verdana" font-size="10.00">/home/dawagner/dev</text>
<text text-anchor="start" x="691.695" y="-365.5" font-family="Verdana" font-size="10.00">/parameter&#45;framework</text>
<text text-anchor="start" x="691.695" y="-354.5" font-family="Verdana" font-size="10.00">/parameter/IntegerParameter</text>
<text text-anchor="middle" x="762.695" y="-343.5" font-family="Verdana" font-size="10.00">Type.cpp</text>
</g>
<!-- Node2 -->
<g id="node2" class="node"><title>Node2</title>
<g id="a_node2"><a xlink:href="IntegerParameterType_8h.html" target="_top" xlink:title="IntegerParameterType.h">
<polygon fill="white" stroke="black" points="513.195,-280.5 513.195,-299.5 644.195,-299.5 644.195,-280.5 513.195,-280.5"/>
<text text-anchor="middle" x="578.695" y="-287.5" font-family="Verdana" font-size="10.00">IntegerParameterType.h</text>
</a>
</g>
</g>
<!-- Node1&#45;&gt;Node2 -->
<g id="edge1" class="edge"><title>Node1&#45;&gt;Node2</title>
<path fill="none" stroke="midnightblue" d="M697.305,-336.446C667.841,-325.156 634.391,-312.34 610.543,-303.203"/>
<polygon fill="midnightblue" stroke="midnightblue" points="611.54,-299.837 600.95,-299.527 609.036,-306.373 611.54,-299.837"/>
</g>
<!-- Node14 -->
<g id="node14" class="node"><title>Node14</title>
<polygon fill="white" stroke="#bfbfbf" points="701.195,-280.5 701.195,-299.5 752.195,-299.5 752.195,-280.5 701.195,-280.5"/>
<text text-anchor="middle" x="726.695" y="-287.5" font-family="Verdana" font-size="10.00">stdlib.h</text>
</g>
<!-- Node1&#45;&gt;Node14 -->
<g id="edge20" class="edge"><title>Node1&#45;&gt;Node14</title>
<path fill="none" stroke="midnightblue" d="M749.901,-336.446C745.246,-327.329 740.083,-317.217 735.81,-308.851"/>
<polygon fill="midnightblue" stroke="midnightblue" points="738.8,-307.01 731.135,-299.695 732.566,-310.193 738.8,-307.01"/>
</g>
<!-- Node15 -->
<g id="node15" class="node"><title>Node15</title>
<polygon fill="white" stroke="#bfbfbf" points="770.695,-280.5 770.695,-299.5 826.695,-299.5 826.695,-280.5 770.695,-280.5"/>
<text text-anchor="middle" x="798.695" y="-287.5" font-family="Verdana" font-size="10.00">sstream</text>
</g>
<!-- Node1&#45;&gt;Node15 -->
<g id="edge21" class="edge"><title>Node1&#45;&gt;Node15</title>
<path fill="none" stroke="midnightblue" d="M775.489,-336.446C780.144,-327.329 785.307,-317.217 789.58,-308.851"/>
<polygon fill="midnightblue" stroke="midnightblue" points="792.824,-310.193 794.255,-299.695 786.59,-307.01 792.824,-310.193"/>
</g>
<!-- Node16 -->
<g id="node16" class="node"><title>Node16</title>
<polygon fill="white" stroke="#bfbfbf" points="845.195,-280.5 845.195,-299.5 900.195,-299.5 900.195,-280.5 845.195,-280.5"/>
<text text-anchor="middle" x="872.695" y="-287.5" font-family="Verdana" font-size="10.00">iomanip</text>
</g>
<!-- Node1&#45;&gt;Node16 -->
<g id="edge22" class="edge"><title>Node1&#45;&gt;Node16</title>
<path fill="none" stroke="midnightblue" d="M801.787,-336.446C818.301,-325.862 836.908,-313.936 850.917,-304.958"/>
<polygon fill="midnightblue" stroke="midnightblue" points="852.86,-307.87 859.391,-299.527 849.083,-301.976 852.86,-307.87"/>
</g>
<!-- Node17 -->
<g id="node17" class="node"><title>Node17</title>
<g id="a_node17"><a xlink:href="ParameterAccessContext_8h.html" target="_top" xlink:title="ParameterAccessContext.h">
<polygon fill="white" stroke="black" points="617.195,-112.5 617.195,-131.5 764.195,-131.5 764.195,-112.5 617.195,-112.5"/>
<text text-anchor="middle" x="690.695" y="-119.5" font-family="Verdana" font-size="10.00">ParameterAccessContext.h</text>
</a>
</g>
</g>
<!-- Node1&#45;&gt;Node17 -->
<g id="edge23" class="edge"><title>Node1&#45;&gt;Node17</title>
<path fill="none" stroke="midnightblue" d="M722.204,-336.427C710.103,-326.679 698.308,-314.37 691.695,-300 667.226,-246.83 678.614,-174.798 686.048,-141.405"/>
<polygon fill="midnightblue" stroke="midnightblue" points="689.461,-142.182 688.36,-131.644 682.649,-140.568 689.461,-142.182"/>
</g>
<!-- Node19 -->
<g id="node19" class="node"><title>Node19</title>
<polygon fill="white" stroke="#bfbfbf" points="918.695,-280.5 918.695,-299.5 974.695,-299.5 974.695,-280.5 918.695,-280.5"/>
<text text-anchor="middle" x="946.695" y="-287.5" font-family="Verdana" font-size="10.00">assert.h</text>
</g>
<!-- Node1&#45;&gt;Node19 -->
<g id="edge28" class="edge"><title>Node1&#45;&gt;Node19</title>
<path fill="none" stroke="midnightblue" d="M828.085,-336.446C857.55,-325.156 890.999,-312.34 914.847,-303.203"/>
<polygon fill="midnightblue" stroke="midnightblue" points="916.355,-306.373 924.44,-299.527 913.85,-299.837 916.355,-306.373"/>
</g>
<!-- Node20 -->
<g id="node20" class="node"><title>Node20</title>
<g id="a_node20"><a xlink:href="ParameterAdaptation_8h.html" target="_top" xlink:title="ParameterAdaptation.h">
<polygon fill="white" stroke="black" points="248.695,-168.5 248.695,-187.5 376.695,-187.5 376.695,-168.5 248.695,-168.5"/>
<text text-anchor="middle" x="312.695" y="-175.5" font-family="Verdana" font-size="10.00">ParameterAdaptation.h</text>
</a>
</g>
</g>
<!-- Node1&#45;&gt;Node20 -->
<g id="edge29" class="edge"><title>Node1&#45;&gt;Node20</title>
<path fill="none" stroke="midnightblue" d="M683.498,-349.722C631.09,-340.244 561.613,-324.413 503.695,-300 435.626,-271.308 364.422,-219.415 331.474,-193.935"/>
<polygon fill="midnightblue" stroke="midnightblue" points="333.622,-191.171 323.587,-187.772 329.312,-196.687 333.622,-191.171"/>
</g>
<!-- Node21 -->
<g id="node21" class="node"><title>Node21</title>
<polygon fill="white" stroke="#bfbfbf" points="993.195,-280.5 993.195,-299.5 1044.2,-299.5 1044.2,-280.5 993.195,-280.5"/>
<text text-anchor="middle" x="1018.7" y="-287.5" font-family="Verdana" font-size="10.00">errno.h</text>
</g>
<!-- Node1&#45;&gt;Node21 -->
<g id="edge32" class="edge"><title>Node1&#45;&gt;Node21</title>
<path fill="none" stroke="midnightblue" d="M841.942,-339.676C889.323,-326.628 947.184,-310.694 983.497,-300.693"/>
<polygon fill="midnightblue" stroke="midnightblue" points="984.43,-304.067 993.142,-298.037 982.571,-297.318 984.43,-304.067"/>
</g>
<!-- Node3 -->
<g id="node3" class="node"><title>Node3</title>
<g id="a_node3"><a xlink:href="ParameterType_8h.html" target="_top" xlink:title="ParameterType.h">
<polygon fill="white" stroke="black" points="460.195,-224.5 460.195,-243.5 557.195,-243.5 557.195,-224.5 460.195,-224.5"/>
<text text-anchor="middle" x="508.695" y="-231.5" font-family="Verdana" font-size="10.00">ParameterType.h</text>
</a>
</g>
</g>
<!-- Node2&#45;&gt;Node3 -->
<g id="edge2" class="edge"><title>Node2&#45;&gt;Node3</title>
<path fill="none" stroke="midnightblue" d="M567.448,-280.324C556.898,-272.185 540.894,-259.839 528.253,-250.087"/>
<polygon fill="midnightblue" stroke="midnightblue" points="530.202,-247.171 520.146,-243.834 525.926,-252.713 530.202,-247.171"/>
</g>
<!-- Node8 -->
<g id="node8" class="node"><title>Node8</title>
<polygon fill="white" stroke="#bfbfbf" points="490.695,-0.5 490.695,-19.5 534.695,-19.5 534.695,-0.5 490.695,-0.5"/>
<text text-anchor="middle" x="512.695" y="-7.5" font-family="Verdana" font-size="10.00">string</text>
</g>
<!-- Node2&#45;&gt;Node8 -->
<g id="edge19" class="edge"><title>Node2&#45;&gt;Node8</title>
<path fill="none" stroke="midnightblue" d="M581.059,-280.363C586.167,-260.336 597.052,-209.294 587.695,-168 575.394,-113.712 541.942,-56.2314 524.162,-28.2829"/>
<polygon fill="midnightblue" stroke="midnightblue" points="526.963,-26.17 518.587,-19.6825 521.089,-29.9775 526.963,-26.17"/>
</g>
<!-- Node4 -->
<g id="node4" class="node"><title>Node4</title>
<polygon fill="white" stroke="#bfbfbf" points="69.1951,-0.5 69.1951,-19.5 122.195,-19.5 122.195,-0.5 69.1951,-0.5"/>
<text text-anchor="middle" x="95.6951" y="-7.5" font-family="Verdana" font-size="10.00">stdint.h</text>
</g>
<!-- Node3&#45;&gt;Node4 -->
<g id="edge3" class="edge"><title>Node3&#45;&gt;Node4</title>
<path fill="none" stroke="midnightblue" d="M460.12,-229.007C405.5,-223.574 314.643,-211.684 239.695,-188 129.755,-153.258 67.1545,-173.553 5.69509,-76 -10.5284,-50.2489 27.5065,-31.5345 59.0354,-20.9739"/>
<polygon fill="midnightblue" stroke="midnightblue" points="60.4874,-24.1856 68.9665,-17.833 58.3765,-17.5115 60.4874,-24.1856"/>
</g>
<!-- Node5 -->
<g id="node5" class="node"><title>Node5</title>
<polygon fill="white" stroke="#bfbfbf" points="536.695,-168.5 536.695,-187.5 578.695,-187.5 578.695,-168.5 536.695,-168.5"/>
<text text-anchor="middle" x="557.695" y="-175.5" font-family="Verdana" font-size="10.00">limits</text>
</g>
<!-- Node3&#45;&gt;Node5 -->
<g id="edge4" class="edge"><title>Node3&#45;&gt;Node5</title>
<path fill="none" stroke="midnightblue" d="M516.786,-224.083C523.85,-216.298 534.283,-204.801 542.844,-195.367"/>
<polygon fill="midnightblue" stroke="midnightblue" points="545.626,-197.509 549.754,-187.751 540.442,-192.805 545.626,-197.509"/>
</g>
<!-- Node6 -->
<g id="node6" class="node"><title>Node6</title>
<g id="a_node6"><a xlink:href="TypeElement_8h.html" target="_top" xlink:title="TypeElement.h">
<polygon fill="white" stroke="black" points="394.695,-168.5 394.695,-187.5 480.695,-187.5 480.695,-168.5 394.695,-168.5"/>
<text text-anchor="middle" x="437.695" y="-175.5" font-family="Verdana" font-size="10.00">TypeElement.h</text>
</a>
</g>
</g>
<!-- Node3&#45;&gt;Node6 -->
<g id="edge5" class="edge"><title>Node3&#45;&gt;Node6</title>
<path fill="none" stroke="midnightblue" d="M497.288,-224.324C486.586,-216.185 470.354,-203.839 457.532,-194.087"/>
<polygon fill="midnightblue" stroke="midnightblue" points="459.388,-191.102 449.31,-187.834 455.151,-196.673 459.388,-191.102"/>
</g>
<!-- Node3&#45;&gt;Node8 -->
<g id="edge18" class="edge"><title>Node3&#45;&gt;Node8</title>
<path fill="none" stroke="midnightblue" d="M508.852,-224.297C509.44,-191.633 511.526,-75.8661 512.354,-29.9573"/>
<polygon fill="midnightblue" stroke="midnightblue" points="515.854,-29.9452 512.535,-19.8837 508.855,-29.819 515.854,-29.9452"/>
</g>
<!-- Node7 -->
<g id="node7" class="node"><title>Node7</title>
<g id="a_node7"><a xlink:href="Element_8h.html" target="_top" xlink:title="Element.h">
<polygon fill="white" stroke="black" points="210.195,-112.5 210.195,-131.5 275.195,-131.5 275.195,-112.5 210.195,-112.5"/>
<text text-anchor="middle" x="242.695" y="-119.5" font-family="Verdana" font-size="10.00">Element.h</text>
</a>
</g>
</g>
<!-- Node6&#45;&gt;Node7 -->
<g id="edge6" class="edge"><title>Node6&#45;&gt;Node7</title>
<path fill="none" stroke="midnightblue" d="M406.797,-168.444C373.421,-159.201 320.101,-144.436 283.346,-134.257"/>
<polygon fill="midnightblue" stroke="midnightblue" points="284.02,-130.812 273.449,-131.516 282.152,-137.558 284.02,-130.812"/>
</g>
<!-- Node6&#45;&gt;Node8 -->
<g id="edge17" class="edge"><title>Node6&#45;&gt;Node8</title>
<path fill="none" stroke="midnightblue" d="M441.727,-168.075C453.584,-141.832 488.503,-64.5453 504.51,-29.1165"/>
<polygon fill="midnightblue" stroke="midnightblue" points="507.896,-30.1222 508.824,-19.5681 501.517,-27.2401 507.896,-30.1222"/>
</g>
<!-- Node7&#45;&gt;Node4 -->
<g id="edge9" class="edge"><title>Node7&#45;&gt;Node4</title>
<path fill="none" stroke="midnightblue" d="M220.147,-112.383C201.305,-104.554 174.289,-91.8245 153.695,-76 135.594,-62.0907 118.675,-41.9874 107.837,-27.8294"/>
<polygon fill="midnightblue" stroke="midnightblue" points="110.421,-25.4393 101.642,-19.5089 104.807,-29.6199 110.421,-25.4393"/>
</g>
<!-- Node7&#45;&gt;Node8 -->
<g id="edge7" class="edge"><title>Node7&#45;&gt;Node8</title>
<path fill="none" stroke="midnightblue" d="M272.282,-112.445C300.108,-104.11 342.746,-90.5919 378.695,-76 399.519,-67.5473 453.852,-40.6013 486.583,-24.1759"/>
<polygon fill="midnightblue" stroke="midnightblue" points="488.228,-27.266 495.591,-19.6472 485.084,-21.0119 488.228,-27.266"/>
</g>
<!-- Node9 -->
<g id="node9" class="node"><title>Node9</title>
<polygon fill="white" stroke="#bfbfbf" points="1.19509,-0.5 1.19509,-19.5 48.1951,-19.5 48.1951,-0.5 1.19509,-0.5"/>
<text text-anchor="middle" x="24.6951" y="-7.5" font-family="Verdana" font-size="10.00">vector</text>
</g>
<!-- Node7&#45;&gt;Node9 -->
<g id="edge8" class="edge"><title>Node7&#45;&gt;Node9</title>
<path fill="none" stroke="midnightblue" d="M210.012,-119.752C151.201,-116.745 31.2697,-106.887 5.69509,-76 -5.62225,-62.3316 3.01073,-42.1852 12.0029,-27.9511"/>
<polygon fill="midnightblue" stroke="midnightblue" points="14.9776,-29.8022 17.7578,-19.5786 9.20889,-25.837 14.9776,-29.8022"/>
</g>
<!-- Node10 -->
<g id="node10" class="node"><title>Node10</title>
<polygon fill="white" stroke="#bfbfbf" points="162.695,-56.5 162.695,-75.5 192.695,-75.5 192.695,-56.5 162.695,-56.5"/>
<text text-anchor="middle" x="177.695" y="-63.5" font-family="Verdana" font-size="10.00">list</text>
</g>
<!-- Node7&#45;&gt;Node10 -->
<g id="edge10" class="edge"><title>Node7&#45;&gt;Node10</title>
<path fill="none" stroke="midnightblue" d="M232.252,-112.324C222.549,-104.263 207.88,-92.0765 196.195,-82.3695"/>
<polygon fill="midnightblue" stroke="midnightblue" points="198.257,-79.532 188.328,-75.8339 193.784,-84.9163 198.257,-79.532"/>
</g>
<!-- Node11 -->
<g id="node11" class="node"><title>Node11</title>
<polygon fill="white" stroke="#bfbfbf" points="210.695,-56.5 210.695,-75.5 274.695,-75.5 274.695,-56.5 210.695,-56.5"/>
<text text-anchor="middle" x="242.695" y="-63.5" font-family="Verdana" font-size="10.00">XmlSink.h</text>
</g>
<!-- Node7&#45;&gt;Node11 -->
<g id="edge11" class="edge"><title>Node7&#45;&gt;Node11</title>
<path fill="none" stroke="midnightblue" d="M242.695,-112.083C242.695,-105.006 242.695,-94.8611 242.695,-85.9865"/>
<polygon fill="midnightblue" stroke="midnightblue" points="246.195,-85.751 242.695,-75.7511 239.195,-85.7511 246.195,-85.751"/>
</g>
<!-- Node12 -->
<g id="node12" class="node"><title>Node12</title>
<polygon fill="white" stroke="#bfbfbf" points="293.195,-56.5 293.195,-75.5 370.195,-75.5 370.195,-56.5 293.195,-56.5"/>
<text text-anchor="middle" x="331.695" y="-63.5" font-family="Verdana" font-size="10.00">XmlSource.h</text>
</g>
<!-- Node7&#45;&gt;Node12 -->
<g id="edge12" class="edge"><title>Node7&#45;&gt;Node12</title>
<path fill="none" stroke="midnightblue" d="M256.994,-112.324C270.878,-103.9 292.187,-90.9709 308.499,-81.0741"/>
<polygon fill="midnightblue" stroke="midnightblue" points="310.697,-83.8341 317.431,-75.6545 307.066,-77.8495 310.697,-83.8341"/>
</g>
<!-- Node13 -->
<g id="node13" class="node"><title>Node13</title>
<g id="a_node13"><a xlink:href="PathNavigator_8h.html" target="_top" xlink:title="PathNavigator.h">
<polygon fill="white" stroke="black" points="14.6951,-56.5 14.6951,-75.5 106.695,-75.5 106.695,-56.5 14.6951,-56.5"/>
<text text-anchor="middle" x="60.6951" y="-63.5" font-family="Verdana" font-size="10.00">PathNavigator.h</text>
</a>
</g>
</g>
<!-- Node7&#45;&gt;Node13 -->
<g id="edge13" class="edge"><title>Node7&#45;&gt;Node13</title>
<path fill="none" stroke="midnightblue" d="M213.857,-112.444C182.839,-103.241 133.366,-88.5617 99.0767,-78.3879"/>
<polygon fill="midnightblue" stroke="midnightblue" points="99.9811,-75.0055 89.3986,-75.5164 97.9899,-81.7164 99.9811,-75.0055"/>
</g>
<!-- Node13&#45;&gt;Node4 -->
<g id="edge16" class="edge"><title>Node13&#45;&gt;Node4</title>
<path fill="none" stroke="midnightblue" d="M66.4746,-56.083C71.3675,-48.5341 78.5225,-37.4948 84.5277,-28.2298"/>
<polygon fill="midnightblue" stroke="midnightblue" points="87.5211,-30.0463 90.0231,-19.7511 81.6471,-26.239 87.5211,-30.0463"/>
</g>
<!-- Node13&#45;&gt;Node8 -->
<g id="edge15" class="edge"><title>Node13&#45;&gt;Node8</title>
<path fill="none" stroke="midnightblue" d="M106.943,-59.4748C198.487,-48.5382 400.762,-24.3725 479.974,-14.9091"/>
<polygon fill="midnightblue" stroke="midnightblue" points="480.796,-18.3359 490.31,-13.6743 479.966,-11.3853 480.796,-18.3359"/>
</g>
<!-- Node13&#45;&gt;Node9 -->
<g id="edge14" class="edge"><title>Node13&#45;&gt;Node9</title>
<path fill="none" stroke="midnightblue" d="M54.7504,-56.083C49.7178,-48.5341 42.3583,-37.4948 36.1816,-28.2298"/>
<polygon fill="midnightblue" stroke="midnightblue" points="38.9884,-26.1301 30.5291,-19.7511 33.164,-30.0131 38.9884,-26.1301"/>
</g>
<!-- Node17&#45;&gt;Node4 -->
<g id="edge24" class="edge"><title>Node17&#45;&gt;Node4</title>
<path fill="none" stroke="midnightblue" d="M652.385,-112.404C593.65,-99.364 477.74,-74.1811 378.695,-56 290.618,-39.8322 186.489,-24.1531 132.424,-16.2685"/>
<polygon fill="midnightblue" stroke="midnightblue" points="132.698,-12.7716 122.298,-14.7977 131.691,-19.6989 132.698,-12.7716"/>
</g>
<!-- Node17&#45;&gt;Node8 -->
<g id="edge27" class="edge"><title>Node17&#45;&gt;Node8</title>
<path fill="none" stroke="midnightblue" d="M680.275,-112.375C664.211,-99.2975 632.167,-74.066 602.695,-56 582.966,-43.9059 559.556,-32.2789 541.557,-23.8739"/>
<polygon fill="midnightblue" stroke="midnightblue" points="542.72,-20.5561 532.173,-19.5535 539.793,-26.9147 542.72,-20.5561"/>
</g>
<!-- Node18 -->
<g id="node18" class="node"><title>Node18</title>
<g id="a_node18"><a xlink:href="ErrorContext_8h.html" target="_top" xlink:title="ErrorContext.h">
<polygon fill="white" stroke="black" points="654.695,-56.5 654.695,-75.5 740.695,-75.5 740.695,-56.5 654.695,-56.5"/>
<text text-anchor="middle" x="697.695" y="-63.5" font-family="Verdana" font-size="10.00">ErrorContext.h</text>
</a>
</g>
</g>
<!-- Node17&#45;&gt;Node18 -->
<g id="edge25" class="edge"><title>Node17&#45;&gt;Node18</title>
<path fill="none" stroke="midnightblue" d="M691.851,-112.083C692.779,-104.927 694.113,-94.6353 695.272,-85.6911"/>
<polygon fill="midnightblue" stroke="midnightblue" points="698.746,-86.1181 696.561,-75.7511 691.804,-85.2181 698.746,-86.1181"/>
</g>
<!-- Node18&#45;&gt;Node8 -->
<g id="edge26" class="edge"><title>Node18&#45;&gt;Node8</title>
<path fill="none" stroke="midnightblue" d="M668.381,-56.4435C634.627,-46.591 579.371,-30.4621 544.571,-20.3044"/>
<polygon fill="midnightblue" stroke="midnightblue" points="545.484,-16.9249 534.904,-17.4826 543.523,-23.6445 545.484,-16.9249"/>
</g>
<!-- Node20&#45;&gt;Node7 -->
<g id="edge30" class="edge"><title>Node20&#45;&gt;Node7</title>
<path fill="none" stroke="midnightblue" d="M301.448,-168.324C290.898,-160.185 274.894,-147.839 262.253,-138.087"/>
<polygon fill="midnightblue" stroke="midnightblue" points="264.202,-135.171 254.146,-131.834 259.926,-140.713 264.202,-135.171"/>
</g>
<!-- Node20&#45;&gt;Node8 -->
<g id="edge31" class="edge"><title>Node20&#45;&gt;Node8</title>
<path fill="none" stroke="midnightblue" d="M323.166,-168.309C355.432,-141.528 453.617,-60.0347 494.514,-26.09"/>
<polygon fill="midnightblue" stroke="midnightblue" points="496.868,-28.685 502.327,-19.6051 492.397,-23.2987 496.868,-28.685"/>
</g>
</g>
</svg>
