<?xml version="1.0" encoding="UTF-8" standalone="no"?>
<!DOCTYPE svg PUBLIC "-//W3C//DTD SVG 1.1//EN"
 "http://www.w3.org/Graphics/SVG/1.1/DTD/svg11.dtd">
<!-- Generated by graphviz version 2.38.0 (20140413.2041)
 -->
<!-- Title: parameter/IntegerParameterType.h Pages: 1 -->
<svg width="782pt" height="431pt"
 viewBox="0.00 0.00 781.50 431.00" xmlns="http://www.w3.org/2000/svg" xmlns:xlink="http://www.w3.org/1999/xlink">
<g id="graph0" class="graph" transform="scale(1 1) rotate(0) translate(4 427)">
<title>parameter/IntegerParameterType.h</title>
<polygon fill="white" stroke="none" points="-4,4 -4,-427 777.5,-427 777.5,4 -4,4"/>
<!-- Node1 -->
<g id="node1" class="node"><title>Node1</title>
<polygon fill="#bfbfbf" stroke="black" points="618.5,-392.5 618.5,-422.5 773.5,-422.5 773.5,-392.5 618.5,-392.5"/>
<text text-anchor="start" x="626.5" y="-410.5" font-family="Verdana" font-size="10.00">parameter/IntegerParameter</text>
<text text-anchor="middle" x="696" y="-399.5" font-family="Verdana" font-size="10.00">Type.h</text>
</g>
<!-- Node2 -->
<g id="node2" class="node"><title>Node2</title>
<g id="a_node2"><a xlink:href="ParameterType_8h.html" target="_top" xlink:title="ParameterType.h">
<polygon fill="white" stroke="black" points="549.5,-336.5 549.5,-355.5 646.5,-355.5 646.5,-336.5 549.5,-336.5"/>
<text text-anchor="middle" x="598" y="-343.5" font-family="Verdana" font-size="10.00">ParameterType.h</text>
</a>
</g>
</g>
<!-- Node1&#45;&gt;Node2 -->
<g id="edge1" class="edge"><title>Node1&#45;&gt;Node2</title>
<path fill="none" stroke="midnightblue" d="M672.775,-392.399C657.214,-382.951 636.803,-370.559 621.238,-361.109"/>
<polygon fill="midnightblue" stroke="midnightblue" points="622.624,-357.856 612.26,-355.658 618.991,-363.839 622.624,-357.856"/>
</g>
<!-- Node5 -->
<g id="node5" class="node"><title>Node5</title>
<polygon fill="white" stroke="#bfbfbf" points="675,-280.5 675,-299.5 717,-299.5 717,-280.5 675,-280.5"/>
<text text-anchor="middle" x="696" y="-287.5" font-family="Verdana" font-size="10.00">limits</text>
</g>
<!-- Node1&#45;&gt;Node5 -->
<g id="edge31" class="edge"><title>Node1&#45;&gt;Node5</title>
<path fill="none" stroke="midnightblue" d="M696,-392.337C696,-371.622 696,-333.016 696,-309.899"/>
<polygon fill="midnightblue" stroke="midnightblue" points="699.5,-309.669 696,-299.669 692.5,-309.669 699.5,-309.669"/>
</g>
<!-- Node8 -->
<g id="node8" class="node"><title>Node8</title>
<polygon fill="white" stroke="#bfbfbf" points="296,-0.5 296,-19.5 340,-19.5 340,-0.5 296,-0.5"/>
<text text-anchor="middle" x="318" y="-7.5" font-family="Verdana" font-size="10.00">string</text>
</g>
<!-- Node1&#45;&gt;Node8 -->
<g id="edge30" class="edge"><title>Node1&#45;&gt;Node8</title>
<path fill="none" stroke="midnightblue" d="M706.392,-392.372C720.775,-371.381 745,-330.208 745,-291 745,-291 745,-291 745,-121 745,-39.476 449.428,-17.4635 350.109,-12.3681"/>
<polygon fill="midnightblue" stroke="midnightblue" points="350.217,-8.86925 340.058,-11.8764 349.875,-15.8609 350.217,-8.86925"/>
</g>
<!-- Node3 -->
<g id="node3" class="node"><title>Node3</title>
<polygon fill="white" stroke="#bfbfbf" points="540.5,-168.5 540.5,-187.5 653.5,-187.5 653.5,-168.5 540.5,-168.5"/>
<text text-anchor="middle" x="597" y="-175.5" font-family="Verdana" font-size="10.00">parameter_export.h</text>
</g>
<!-- Node2&#45;&gt;Node3 -->
<g id="edge2" class="edge"><title>Node2&#45;&gt;Node3</title>
<path fill="none" stroke="midnightblue" d="M605.412,-336.411C612.276,-327.844 622.006,-313.979 626,-300 636.437,-263.47 618.846,-220.023 606.812,-196.404"/>
<polygon fill="midnightblue" stroke="midnightblue" points="609.893,-194.744 602.092,-187.574 603.719,-198.043 609.893,-194.744"/>
</g>
<!-- Node4 -->
<g id="node4" class="node"><title>Node4</title>
<polygon fill="white" stroke="#bfbfbf" points="280.5,-56.5 280.5,-75.5 333.5,-75.5 333.5,-56.5 280.5,-56.5"/>
<text text-anchor="middle" x="307" y="-63.5" font-family="Verdana" font-size="10.00">stdint.h</text>
</g>
<!-- Node2&#45;&gt;Node4 -->
<g id="edge3" class="edge"><title>Node2&#45;&gt;Node4</title>
<path fill="none" stroke="midnightblue" d="M549.221,-338.038C461.921,-324.197 288,-289.752 288,-235 288,-235 288,-235 288,-177 288,-144.489 296.159,-107.35 301.784,-85.6103"/>
<polygon fill="midnightblue" stroke="midnightblue" points="305.218,-86.3175 304.438,-75.7514 298.459,-84.498 305.218,-86.3175"/>
</g>
<!-- Node2&#45;&gt;Node5 -->
<g id="edge4" class="edge"><title>Node2&#45;&gt;Node5</title>
<path fill="none" stroke="midnightblue" d="M613.745,-336.324C629.319,-327.743 653.377,-314.486 671.459,-304.522"/>
<polygon fill="midnightblue" stroke="midnightblue" points="673.224,-307.546 680.294,-299.655 669.846,-301.415 673.224,-307.546"/>
</g>
<!-- Node6 -->
<g id="node6" class="node"><title>Node6</title>
<g id="a_node6"><a xlink:href="TypeElement_8h.html" target="_top" xlink:title="TypeElement.h">
<polygon fill="white" stroke="black" points="531,-280.5 531,-299.5 617,-299.5 617,-280.5 531,-280.5"/>
<text text-anchor="middle" x="574" y="-287.5" font-family="Verdana" font-size="10.00">TypeElement.h</text>
</a>
</g>
</g>
<!-- Node2&#45;&gt;Node6 -->
<g id="edge5" class="edge"><title>Node2&#45;&gt;Node6</title>
<path fill="none" stroke="midnightblue" d="M594.037,-336.083C590.787,-328.77 586.081,-318.181 582.046,-309.103"/>
<polygon fill="midnightblue" stroke="midnightblue" points="585.149,-307.468 577.889,-299.751 578.752,-310.311 585.149,-307.468"/>
</g>
<!-- Node2&#45;&gt;Node8 -->
<g id="edge29" class="edge"><title>Node2&#45;&gt;Node8</title>
<path fill="none" stroke="midnightblue" d="M549.317,-341.181C406.725,-329.349 0,-290.717 0,-235 0,-235 0,-235 0,-121 0,-83.1569 22.1403,-74.7706 55,-56 93.8936,-33.7826 224.11,-19.4524 285.479,-13.7717"/>
<polygon fill="midnightblue" stroke="midnightblue" points="286.11,-17.229 295.754,-12.8422 285.479,-10.2575 286.11,-17.229"/>
</g>
<!-- Node6&#45;&gt;Node3 -->
<g id="edge6" class="edge"><title>Node6&#45;&gt;Node3</title>
<path fill="none" stroke="midnightblue" d="M575.805,-280.368C579.516,-262.617 588.079,-221.666 593.111,-197.597"/>
<polygon fill="midnightblue" stroke="midnightblue" points="596.583,-198.096 595.204,-187.591 589.731,-196.663 596.583,-198.096"/>
</g>
<!-- Node7 -->
<g id="node7" class="node"><title>Node7</title>
<g id="a_node7"><a xlink:href="Element_8h.html" target="_top" xlink:title="Element.h">
<polygon fill="white" stroke="black" points="404.5,-224.5 404.5,-243.5 469.5,-243.5 469.5,-224.5 404.5,-224.5"/>
<text text-anchor="middle" x="437" y="-231.5" font-family="Verdana" font-size="10.00">Element.h</text>
</a>
</g>
</g>
<!-- Node6&#45;&gt;Node7 -->
<g id="edge7" class="edge"><title>Node6&#45;&gt;Node7</title>
<path fill="none" stroke="midnightblue" d="M552.292,-280.444C529.645,-271.517 493.928,-257.439 468.248,-247.317"/>
<polygon fill="midnightblue" stroke="midnightblue" points="469.193,-243.927 458.606,-243.516 466.626,-250.44 469.193,-243.927"/>
</g>
<!-- Node6&#45;&gt;Node8 -->
<g id="edge28" class="edge"><title>Node6&#45;&gt;Node8</title>
<path fill="none" stroke="midnightblue" d="M589.047,-280.299C620.506,-260.95 688.232,-212.539 662,-168 595.295,-54.7421 422.505,-22.6081 350.376,-13.9818"/>
<polygon fill="midnightblue" stroke="midnightblue" points="350.419,-10.4649 340.091,-12.8314 349.64,-17.4215 350.419,-10.4649"/>
</g>
<!-- Node7&#45;&gt;Node3 -->
<g id="edge8" class="edge"><title>Node7&#45;&gt;Node3</title>
<path fill="none" stroke="midnightblue" d="M462.352,-224.444C489.269,-215.359 531.996,-200.939 562.087,-190.783"/>
<polygon fill="midnightblue" stroke="midnightblue" points="563.41,-194.031 571.766,-187.516 561.172,-187.398 563.41,-194.031"/>
</g>
<!-- Node7&#45;&gt;Node4 -->
<g id="edge11" class="edge"><title>Node7&#45;&gt;Node4</title>
<path fill="none" stroke="midnightblue" d="M404.815,-224.391C385.011,-217.55 360.532,-206.067 345,-188 319.493,-158.329 311.087,-111.547 308.331,-85.706"/>
<polygon fill="midnightblue" stroke="midnightblue" points="311.817,-85.3826 307.442,-75.733 304.844,-86.0044 311.817,-85.3826"/>
</g>
<!-- Node7&#45;&gt;Node8 -->
<g id="edge9" class="edge"><title>Node7&#45;&gt;Node8</title>
<path fill="none" stroke="midnightblue" d="M446.021,-224.474C466.283,-204.26 511.895,-152.113 489,-112 459.142,-59.6876 390.404,-31.7384 349.754,-19.2619"/>
<polygon fill="midnightblue" stroke="midnightblue" points="350.646,-15.8761 340.065,-16.4179 348.674,-22.5928 350.646,-15.8761"/>
</g>
<!-- Node9 -->
<g id="node9" class="node"><title>Node9</title>
<polygon fill="white" stroke="#bfbfbf" points="433.5,-112.5 433.5,-131.5 480.5,-131.5 480.5,-112.5 433.5,-112.5"/>
<text text-anchor="middle" x="457" y="-119.5" font-family="Verdana" font-size="10.00">vector</text>
</g>
<!-- Node7&#45;&gt;Node9 -->
<g id="edge10" class="edge"><title>Node7&#45;&gt;Node9</title>
<path fill="none" stroke="midnightblue" d="M441.536,-224.322C445.907,-215.463 452.251,-201.179 455,-188 458.209,-172.613 458.52,-154.739 458.135,-141.632"/>
<polygon fill="midnightblue" stroke="midnightblue" points="461.626,-141.355 457.673,-131.525 454.633,-141.674 461.626,-141.355"/>
</g>
<!-- Node10 -->
<g id="node10" class="node"><title>Node10</title>
<g id="a_node10"><a xlink:href="XmlSink_8h.html" target="_top" xlink:title="XmlSink.h">
<polygon fill="white" stroke="black" points="191,-168.5 191,-187.5 255,-187.5 255,-168.5 191,-168.5"/>
<text text-anchor="middle" x="223" y="-175.5" font-family="Verdana" font-size="10.00">XmlSink.h</text>
</a>
</g>
</g>
<!-- Node7&#45;&gt;Node10 -->
<g id="edge12" class="edge"><title>Node7&#45;&gt;Node10</title>
<path fill="none" stroke="midnightblue" d="M404.498,-224.799C367.202,-215.388 305.935,-199.927 265.038,-189.608"/>
<polygon fill="midnightblue" stroke="midnightblue" points="265.659,-186.155 255.107,-187.102 263.946,-192.942 265.659,-186.155"/>
</g>
<!-- Node15 -->
<g id="node15" class="node"><title>Node15</title>
<g id="a_node15"><a xlink:href="XmlSource_8h.html" target="_top" xlink:title="XmlSource.h">
<polygon fill="white" stroke="black" points="95.5,-168.5 95.5,-187.5 172.5,-187.5 172.5,-168.5 95.5,-168.5"/>
<text text-anchor="middle" x="134" y="-175.5" font-family="Verdana" font-size="10.00">XmlSource.h</text>
</a>
</g>
</g>
<!-- Node7&#45;&gt;Node15 -->
<g id="edge21" class="edge"><title>Node7&#45;&gt;Node15</title>
<path fill="none" stroke="midnightblue" d="M404.375,-227.357C357.659,-219.253 268.748,-203.735 182.467,-188.069"/>
<polygon fill="midnightblue" stroke="midnightblue" points="182.971,-184.603 172.506,-186.257 181.718,-191.49 182.971,-184.603"/>
</g>
<!-- Node16 -->
<g id="node16" class="node"><title>Node16</title>
<g id="a_node16"><a xlink:href="PathNavigator_8h.html" target="_top" xlink:title="PathNavigator.h">
<polygon fill="white" stroke="black" points="354,-168.5 354,-187.5 446,-187.5 446,-168.5 354,-168.5"/>
<text text-anchor="middle" x="400" y="-175.5" font-family="Verdana" font-size="10.00">PathNavigator.h</text>
</a>
</g>
</g>
<!-- Node7&#45;&gt;Node16 -->
<g id="edge24" class="edge"><title>Node7&#45;&gt;Node16</title>
<path fill="none" stroke="midnightblue" d="M430.89,-224.083C425.718,-216.534 418.154,-205.495 411.806,-196.23"/>
<polygon fill="midnightblue" stroke="midnightblue" points="414.536,-194.022 405.996,-187.751 408.761,-197.979 414.536,-194.022"/>
</g>
<!-- Node11 -->
<g id="node11" class="node"><title>Node11</title>
<g id="a_node11"><a xlink:href="XmlElement_8h.html" target="_top" xlink:title="XmlElement.h">
<polygon fill="white" stroke="black" points="176.5,-112.5 176.5,-131.5 259.5,-131.5 259.5,-112.5 176.5,-112.5"/>
<text text-anchor="middle" x="218" y="-119.5" font-family="Verdana" font-size="10.00">XmlElement.h</text>
</a>
</g>
</g>
<!-- Node10&#45;&gt;Node11 -->
<g id="edge13" class="edge"><title>Node10&#45;&gt;Node11</title>
<path fill="none" stroke="midnightblue" d="M222.174,-168.083C221.519,-161.006 220.58,-150.861 219.758,-141.986"/>
<polygon fill="midnightblue" stroke="midnightblue" points="223.217,-141.386 218.81,-131.751 216.247,-142.031 223.217,-141.386"/>
</g>
<!-- Node12 -->
<g id="node12" class="node"><title>Node12</title>
<g id="a_node12"><a xlink:href="XmlSerializingContext_8h.html" target="_top" xlink:title="XmlSerializingContext.h">
<polygon fill="white" stroke="black" points="28,-112.5 28,-131.5 158,-131.5 158,-112.5 28,-112.5"/>
<text text-anchor="middle" x="93" y="-119.5" font-family="Verdana" font-size="10.00">XmlSerializingContext.h</text>
</a>
</g>
</g>
<!-- Node10&#45;&gt;Node12 -->
<g id="edge16" class="edge"><title>Node10&#45;&gt;Node12</title>
<path fill="none" stroke="midnightblue" d="M202.401,-168.444C181.007,-159.557 147.319,-145.563 122.976,-135.451"/>
<polygon fill="midnightblue" stroke="midnightblue" points="124.08,-132.12 113.503,-131.516 121.395,-138.585 124.08,-132.12"/>
</g>
<!-- Node11&#45;&gt;Node4 -->
<g id="edge14" class="edge"><title>Node11&#45;&gt;Node4</title>
<path fill="none" stroke="midnightblue" d="M232.299,-112.324C246.183,-103.9 267.492,-90.9709 283.804,-81.0741"/>
<polygon fill="midnightblue" stroke="midnightblue" points="286.002,-83.8341 292.736,-75.6545 282.371,-77.8495 286.002,-83.8341"/>
</g>
<!-- Node11&#45;&gt;Node8 -->
<g id="edge15" class="edge"><title>Node11&#45;&gt;Node8</title>
<path fill="none" stroke="midnightblue" d="M224.539,-112.306C234.24,-99.5679 253.22,-75.2554 271,-56 280.484,-45.7293 291.782,-34.873 300.923,-26.3972"/>
<polygon fill="midnightblue" stroke="midnightblue" points="303.293,-28.9724 308.302,-19.6361 298.564,-23.8113 303.293,-28.9724"/>
</g>
<!-- Node12&#45;&gt;Node8 -->
<g id="edge20" class="edge"><title>Node12&#45;&gt;Node8</title>
<path fill="none" stroke="midnightblue" d="M110.655,-112.368C149.923,-93.1711 244.687,-46.8418 291.258,-24.074"/>
<polygon fill="midnightblue" stroke="midnightblue" points="292.98,-27.1279 300.427,-19.5914 289.906,-20.8392 292.98,-27.1279"/>
</g>
<!-- Node13 -->
<g id="node13" class="node"><title>Node13</title>
<g id="a_node13"><a xlink:href="ErrorContext_8hpp.html" target="_top" xlink:title="ErrorContext.hpp">
<polygon fill="white" stroke="black" points="64,-56.5 64,-75.5 162,-75.5 162,-56.5 64,-56.5"/>
<text text-anchor="middle" x="113" y="-63.5" font-family="Verdana" font-size="10.00">ErrorContext.hpp</text>
</a>
</g>
</g>
<!-- Node12&#45;&gt;Node13 -->
<g id="edge17" class="edge"><title>Node12&#45;&gt;Node13</title>
<path fill="none" stroke="midnightblue" d="M96.3026,-112.083C98.982,-104.849 102.849,-94.4087 106.186,-85.3968"/>
<polygon fill="midnightblue" stroke="midnightblue" points="109.568,-86.3442 109.759,-75.7511 103.004,-83.9129 109.568,-86.3442"/>
</g>
<!-- Node13&#45;&gt;Node8 -->
<g id="edge18" class="edge"><title>Node13&#45;&gt;Node8</title>
<path fill="none" stroke="midnightblue" d="M145.483,-56.4435C183.872,-46.3312 247.361,-29.6072 285.68,-19.5136"/>
<polygon fill="midnightblue" stroke="midnightblue" points="287,-22.7854 295.778,-16.8536 285.216,-16.0163 287,-22.7854"/>
</g>
<!-- Node14 -->
<g id="node14" class="node"><title>Node14</title>
<g id="a_node14"><a xlink:href="NonCopyable_8hpp.html" target="_top" xlink:title="NonCopyable.hpp">
<polygon fill="white" stroke="black" points="62.5,-0.5 62.5,-19.5 163.5,-19.5 163.5,-0.5 62.5,-0.5"/>
<text text-anchor="middle" x="113" y="-7.5" font-family="Verdana" font-size="10.00">NonCopyable.hpp</text>
</a>
</g>
</g>
<!-- Node13&#45;&gt;Node14 -->
<g id="edge19" class="edge"><title>Node13&#45;&gt;Node14</title>
<path fill="none" stroke="midnightblue" d="M113,-56.083C113,-49.0059 113,-38.8611 113,-29.9865"/>
<polygon fill="midnightblue" stroke="midnightblue" points="116.5,-29.751 113,-19.7511 109.5,-29.7511 116.5,-29.751"/>
</g>
<!-- Node15&#45;&gt;Node11 -->
<g id="edge22" class="edge"><title>Node15&#45;&gt;Node11</title>
<path fill="none" stroke="midnightblue" d="M147.496,-168.324C160.6,-159.9 180.712,-146.971 196.107,-137.074"/>
<polygon fill="midnightblue" stroke="midnightblue" points="198.018,-140.006 204.537,-131.655 194.233,-134.118 198.018,-140.006"/>
</g>
<!-- Node15&#45;&gt;Node12 -->
<g id="edge23" class="edge"><title>Node15&#45;&gt;Node12</title>
<path fill="none" stroke="midnightblue" d="M127.23,-168.083C121.438,-160.455 112.942,-149.264 105.862,-139.941"/>
<polygon fill="midnightblue" stroke="midnightblue" points="108.479,-137.599 99.6443,-131.751 102.904,-141.832 108.479,-137.599"/>
</g>
<!-- Node16&#45;&gt;Node4 -->
<g id="edge27" class="edge"><title>Node16&#45;&gt;Node4</title>
<path fill="none" stroke="midnightblue" d="M392.702,-168.368C377.219,-150.055 340.86,-107.049 320.834,-83.3624"/>
<polygon fill="midnightblue" stroke="midnightblue" points="323.393,-80.9682 314.264,-75.5914 318.047,-85.4877 323.393,-80.9682"/>
</g>
<!-- Node16&#45;&gt;Node8 -->
<g id="edge26" class="edge"><title>Node16&#45;&gt;Node8</title>
<path fill="none" stroke="midnightblue" d="M396.047,-168.43C386.84,-148.545 363.142,-97.7793 342,-56 337.396,-46.9012 332.077,-36.8812 327.618,-28.6106"/>
<polygon fill="midnightblue" stroke="midnightblue" points="330.557,-26.6893 322.712,-19.5693 324.405,-30.028 330.557,-26.6893"/>
</g>
<!-- Node16&#45;&gt;Node9 -->
<g id="edge25" class="edge"><title>Node16&#45;&gt;Node9</title>
<path fill="none" stroke="midnightblue" d="M409.158,-168.324C417.501,-160.42 430.032,-148.548 440.177,-138.938"/>
<polygon fill="midnightblue" stroke="midnightblue" points="442.823,-141.252 447.675,-131.834 438.009,-136.171 442.823,-141.252"/>
</g>
</g>
</svg>
