<?xml version="1.0" encoding="UTF-8" standalone="no"?>
<!DOCTYPE svg PUBLIC "-//W3C//DTD SVG 1.1//EN"
 "http://www.w3.org/Graphics/SVG/1.1/DTD/svg11.dtd">
<!-- Generated by graphviz version 2.38.0 (20140413.2041)
 -->
<!-- Title: utility/Iterator.hpp Pages: 1 -->
<svg width="813pt" height="151pt"
 viewBox="0.00 0.00 813.00 151.00" xmlns="http://www.w3.org/2000/svg" xmlns:xlink="http://www.w3.org/1999/xlink">
<g id="graph0" class="graph" transform="scale(1 1) rotate(0) translate(4 147)">
<title>utility/Iterator.hpp</title>
<polygon fill="white" stroke="none" points="-4,4 -4,-147 809,-147 809,4 -4,4"/>
<!-- Node1 -->
<g id="node1" class="node"><title>Node1</title>
<polygon fill="#bfbfbf" stroke="black" points="355,-123.5 355,-142.5 456,-142.5 456,-123.5 355,-123.5"/>
<text text-anchor="middle" x="405.5" y="-130.5" font-family="Verdana" font-size="10.00">utility/Iterator.hpp</text>
</g>
<!-- Node2 -->
<g id="node2" class="node"><title>Node2</title>
<g id="a_node2"><a xlink:href="ConfigurableElement_8cpp.html" target="_top" xlink:title="parameter/ConfigurableElement.cpp">
<polygon fill="white" stroke="black" points="0,-67.5 0,-86.5 191,-86.5 191,-67.5 0,-67.5"/>
<text text-anchor="middle" x="95.5" y="-74.5" font-family="Verdana" font-size="10.00">parameter/ConfigurableElement.cpp</text>
</a>
</g>
</g>
<!-- Node1&#45;&gt;Node2 -->
<g id="edge1" class="edge"><title>Node1&#45;&gt;Node2</title>
<path fill="none" stroke="midnightblue" d="M346.165,-121.664C287.58,-111.459 199.055,-96.0386 144.391,-86.5164"/>
<polygon fill="midnightblue" stroke="midnightblue" points="345.927,-125.175 356.38,-123.444 347.129,-118.279 345.927,-125.175"/>
</g>
<!-- Node3 -->
<g id="node3" class="node"><title>Node3</title>
<g id="a_node3"><a xlink:href="ParameterBlackboard_8cpp.html" target="_top" xlink:title="parameter/ParameterBlackboard.cpp">
<polygon fill="white" stroke="black" points="209.5,-67.5 209.5,-86.5 403.5,-86.5 403.5,-67.5 209.5,-67.5"/>
<text text-anchor="middle" x="306.5" y="-74.5" font-family="Verdana" font-size="10.00">parameter/ParameterBlackboard.cpp</text>
</a>
</g>
</g>
<!-- Node1&#45;&gt;Node3 -->
<g id="edge2" class="edge"><title>Node1&#45;&gt;Node3</title>
<path fill="none" stroke="midnightblue" d="M380.663,-118.453C362.386,-108.483 338.084,-95.2279 322.367,-86.6545"/>
<polygon fill="midnightblue" stroke="midnightblue" points="379.139,-121.608 389.594,-123.324 382.491,-115.463 379.139,-121.608"/>
</g>
<!-- Node4 -->
<g id="node4" class="node"><title>Node4</title>
<g id="a_node4"><a xlink:href="Message_8cpp.html" target="_top" xlink:title="remote&#45;processor/Message.cpp">
<polygon fill="white" stroke="black" points="421,-67.5 421,-86.5 590,-86.5 590,-67.5 421,-67.5"/>
<text text-anchor="middle" x="505.5" y="-74.5" font-family="Verdana" font-size="10.00">remote&#45;processor/Message.cpp</text>
</a>
</g>
</g>
<!-- Node1&#45;&gt;Node4 -->
<g id="edge3" class="edge"><title>Node1&#45;&gt;Node4</title>
<path fill="none" stroke="midnightblue" d="M430.588,-118.453C449.049,-108.483 473.597,-95.2279 489.473,-86.6545"/>
<polygon fill="midnightblue" stroke="midnightblue" points="428.703,-115.493 421.567,-123.324 432.029,-121.652 428.703,-115.493"/>
</g>
<!-- Node5 -->
<g id="node5" class="node"><title>Node5</title>
<g id="a_node5"><a xlink:href="BinaryCopy_8hpp.html" target="_top" xlink:title="utility/BinaryCopy.hpp">
<polygon fill="white" stroke="black" points="608,-67.5 608,-86.5 727,-86.5 727,-67.5 608,-67.5"/>
<text text-anchor="middle" x="667.5" y="-74.5" font-family="Verdana" font-size="10.00">utility/BinaryCopy.hpp</text>
</a>
</g>
</g>
<!-- Node1&#45;&gt;Node5 -->
<g id="edge4" class="edge"><title>Node1&#45;&gt;Node5</title>
<path fill="none" stroke="midnightblue" d="M456.883,-121.41C506.398,-111.204 580.362,-95.9597 626.18,-86.5164"/>
<polygon fill="midnightblue" stroke="midnightblue" points="456.102,-117.997 447.015,-123.444 457.515,-124.853 456.102,-117.997"/>
</g>
<!-- Node6 -->
<g id="node6" class="node"><title>Node6</title>
<g id="a_node6"><a xlink:href="FloatingPointParameterType_8cpp.html" target="_top" xlink:title="parameter/FloatingPointParameter\lType.cpp">
<polygon fill="white" stroke="black" points="493.5,-0.5 493.5,-30.5 675.5,-30.5 675.5,-0.5 493.5,-0.5"/>
<text text-anchor="start" x="501.5" y="-18.5" font-family="Verdana" font-size="10.00">parameter/FloatingPointParameter</text>
<text text-anchor="middle" x="584.5" y="-7.5" font-family="Verdana" font-size="10.00">Type.cpp</text>
</a>
</g>
</g>
<!-- Node5&#45;&gt;Node6 -->
<g id="edge5" class="edge"><title>Node5&#45;&gt;Node6</title>
<path fill="none" stroke="midnightblue" d="M647.228,-61.468C634.087,-52.0474 617.059,-39.8408 604.061,-30.523"/>
<polygon fill="midnightblue" stroke="midnightblue" points="645.441,-64.4934 655.608,-67.4751 649.52,-58.8042 645.441,-64.4934"/>
</g>
<!-- Node7 -->
<g id="node7" class="node"><title>Node7</title>
<g id="a_node7"><a xlink:href="utility_8cpp.html" target="_top" xlink:title="utility/test/utility.cpp">
<polygon fill="white" stroke="black" points="694,-6 694,-25 805,-25 805,-6 694,-6"/>
<text text-anchor="middle" x="749.5" y="-13" font-family="Verdana" font-size="10.00">utility/test/utility.cpp</text>
</a>
</g>
</g>
<!-- Node5&#45;&gt;Node7 -->
<g id="edge6" class="edge"><title>Node5&#45;&gt;Node7</title>
<path fill="none" stroke="midnightblue" d="M687.767,-61.2938C703.497,-49.8803 724.752,-34.4577 737.773,-25.0091"/>
<polygon fill="midnightblue" stroke="midnightblue" points="685.287,-58.7693 679.249,-67.4751 689.398,-64.435 685.287,-58.7693"/>
</g>
</g>
</svg>
