<?xml version="1.0" encoding="UTF-8" standalone="no"?>
<!DOCTYPE svg PUBLIC "-//W3C//DTD SVG 1.1//EN"
 "http://www.w3.org/Graphics/SVG/1.1/DTD/svg11.dtd">
<!-- Generated by graphviz version 2.38.0 (20140413.2041)
 -->
<!-- Title: /home/dawagner/dev/parameter&#45;framework/parameter/KindElement.h Pages: 1 -->
<svg width="1787pt" height="473pt"
 viewBox="0.00 0.00 1787.00 473.00" xmlns="http://www.w3.org/2000/svg" xmlns:xlink="http://www.w3.org/1999/xlink">
<g id="graph0" class="graph" transform="scale(1 1) rotate(0) translate(4 469)">
<title>/home/dawagner/dev/parameter&#45;framework/parameter/KindElement.h</title>
<polygon fill="white" stroke="none" points="-4,4 -4,-469 1783,-469 1783,4 -4,4"/>
<!-- Node1 -->
<g id="node1" class="node"><title>Node1</title>
<polygon fill="#bfbfbf" stroke="black" points="1228,-423.5 1228,-464.5 1371,-464.5 1371,-423.5 1228,-423.5"/>
<text text-anchor="start" x="1236" y="-452.5" font-family="Verdana" font-size="10.00">/home/dawagner/dev</text>
<text text-anchor="start" x="1236" y="-441.5" font-family="Verdana" font-size="10.00">/parameter&#45;framework</text>
<text text-anchor="middle" x="1299.5" y="-430.5" font-family="Verdana" font-size="10.00">/parameter/KindElement.h</text>
</g>
<!-- Node2 -->
<g id="node2" class="node"><title>Node2</title>
<g id="a_node2"><a xlink:href="SubsystemPlugins_8h.html" target="_top" xlink:title="/home/dawagner/dev\l/parameter&#45;framework\l/parameter/SubsystemPlugins.h">
<polygon fill="white" stroke="black" points="954.5,-340 954.5,-381 1124.5,-381 1124.5,-340 954.5,-340"/>
<text text-anchor="start" x="962.5" y="-369" font-family="Verdana" font-size="10.00">/home/dawagner/dev</text>
<text text-anchor="start" x="962.5" y="-358" font-family="Verdana" font-size="10.00">/parameter&#45;framework</text>
<text text-anchor="middle" x="1039.5" y="-347" font-family="Verdana" font-size="10.00">/parameter/SubsystemPlugins.h</text>
</a>
</g>
</g>
<!-- Node1&#45;&gt;Node2 -->
<g id="edge1" class="edge"><title>Node1&#45;&gt;Node2</title>
<path fill="none" stroke="midnightblue" d="M1227.65,-420.476C1188.13,-408.091 1139.6,-392.876 1101.72,-381.003"/>
<polygon fill="midnightblue" stroke="midnightblue" points="1226.63,-423.827 1237.22,-423.479 1228.73,-417.148 1226.63,-423.827"/>
</g>
<!-- Node13 -->
<g id="node13" class="node"><title>Node13</title>
<g id="a_node13"><a xlink:href="XmlFileIncluderElement_8h.html" target="_top" xlink:title="/home/dawagner/dev\l/parameter&#45;framework\l/parameter/XmlFileIncluderElement.h">
<polygon fill="white" stroke="black" points="1071,-167.5 1071,-208.5 1264,-208.5 1264,-167.5 1071,-167.5"/>
<text text-anchor="start" x="1079" y="-196.5" font-family="Verdana" font-size="10.00">/home/dawagner/dev</text>
<text text-anchor="start" x="1079" y="-185.5" font-family="Verdana" font-size="10.00">/parameter&#45;framework</text>
<text text-anchor="middle" x="1167.5" y="-174.5" font-family="Verdana" font-size="10.00">/parameter/XmlFileIncluderElement.h</text>
</a>
</g>
</g>
<!-- Node1&#45;&gt;Node13 -->
<g id="edge16" class="edge"><title>Node1&#45;&gt;Node13</title>
<path fill="none" stroke="midnightblue" d="M1232.21,-418.668C1218.1,-410.625 1204.72,-400.236 1195.5,-387 1157.09,-331.887 1160.75,-246.967 1164.82,-208.788"/>
<polygon fill="midnightblue" stroke="midnightblue" points="1230.58,-421.767 1241.05,-423.376 1233.87,-415.588 1230.58,-421.767"/>
</g>
<!-- Node16 -->
<g id="node16" class="node"><title>Node16</title>
<g id="a_node16"><a xlink:href="FrameworkConfigurationGroup_8h.html" target="_top" xlink:title="/home/dawagner/dev\l/parameter&#45;framework\l/parameter/FrameworkConfiguration\lGroup.h">
<polygon fill="white" stroke="black" points="1205,-334.5 1205,-386.5 1394,-386.5 1394,-334.5 1205,-334.5"/>
<text text-anchor="start" x="1213" y="-374.5" font-family="Verdana" font-size="10.00">/home/dawagner/dev</text>
<text text-anchor="start" x="1213" y="-363.5" font-family="Verdana" font-size="10.00">/parameter&#45;framework</text>
<text text-anchor="start" x="1213" y="-352.5" font-family="Verdana" font-size="10.00">/parameter/FrameworkConfiguration</text>
<text text-anchor="middle" x="1299.5" y="-341.5" font-family="Verdana" font-size="10.00">Group.h</text>
</a>
</g>
</g>
<!-- Node1&#45;&gt;Node16 -->
<g id="edge21" class="edge"><title>Node1&#45;&gt;Node16</title>
<path fill="none" stroke="midnightblue" d="M1299.5,-413.121C1299.5,-404.413 1299.5,-394.989 1299.5,-386.607"/>
<polygon fill="midnightblue" stroke="midnightblue" points="1296,-413.271 1299.5,-423.271 1303,-413.271 1296,-413.271"/>
</g>
<!-- Node17 -->
<g id="node17" class="node"><title>Node17</title>
<g id="a_node17"><a xlink:href="FrameworkConfigurationLocation_8h.html" target="_top" xlink:title="/home/dawagner/dev\l/parameter&#45;framework\l/parameter/FrameworkConfiguration\lLocation.h">
<polygon fill="white" stroke="black" points="1412,-334.5 1412,-386.5 1601,-386.5 1601,-334.5 1412,-334.5"/>
<text text-anchor="start" x="1420" y="-374.5" font-family="Verdana" font-size="10.00">/home/dawagner/dev</text>
<text text-anchor="start" x="1420" y="-363.5" font-family="Verdana" font-size="10.00">/parameter&#45;framework</text>
<text text-anchor="start" x="1420" y="-352.5" font-family="Verdana" font-size="10.00">/parameter/FrameworkConfiguration</text>
<text text-anchor="middle" x="1506.5" y="-341.5" font-family="Verdana" font-size="10.00">Location.h</text>
</a>
</g>
</g>
<!-- Node1&#45;&gt;Node17 -->
<g id="edge23" class="edge"><title>Node1&#45;&gt;Node17</title>
<path fill="none" stroke="midnightblue" d="M1358.55,-419.75C1384.88,-409.382 1415.96,-397.149 1442.81,-386.576"/>
<polygon fill="midnightblue" stroke="midnightblue" points="1357.1,-416.559 1349.08,-423.479 1359.67,-423.072 1357.1,-416.559"/>
</g>
<!-- Node19 -->
<g id="node19" class="node"><title>Node19</title>
<g id="a_node19"><a xlink:href="PluginLocation_8h.html" target="_top" xlink:title="/home/dawagner/dev\l/parameter&#45;framework\l/parameter/PluginLocation.h">
<polygon fill="white" stroke="black" points="1621.5,-251 1621.5,-292 1773.5,-292 1773.5,-251 1621.5,-251"/>
<text text-anchor="start" x="1629.5" y="-280" font-family="Verdana" font-size="10.00">/home/dawagner/dev</text>
<text text-anchor="start" x="1629.5" y="-269" font-family="Verdana" font-size="10.00">/parameter&#45;framework</text>
<text text-anchor="middle" x="1697.5" y="-258" font-family="Verdana" font-size="10.00">/parameter/PluginLocation.h</text>
</a>
</g>
</g>
<!-- Node1&#45;&gt;Node19 -->
<g id="edge26" class="edge"><title>Node1&#45;&gt;Node19</title>
<path fill="none" stroke="midnightblue" d="M1381.38,-434.934C1459.96,-426.007 1572.06,-409.804 1609.5,-387 1647.18,-364.045 1674.65,-318.534 1688.13,-292.331"/>
<polygon fill="midnightblue" stroke="midnightblue" points="1380.55,-431.504 1371,-436.093 1381.33,-438.461 1380.55,-431.504"/>
</g>
<!-- Node3 -->
<g id="node3" class="node"><title>Node3</title>
<g id="a_node3"><a xlink:href="SystemClass_8h.html" target="_top" xlink:title="/home/dawagner/dev\l/parameter&#45;framework\l/parameter/SystemClass.h">
<polygon fill="white" stroke="black" points="808,-251 808,-292 953,-292 953,-251 808,-251"/>
<text text-anchor="start" x="816" y="-280" font-family="Verdana" font-size="10.00">/home/dawagner/dev</text>
<text text-anchor="start" x="816" y="-269" font-family="Verdana" font-size="10.00">/parameter&#45;framework</text>
<text text-anchor="middle" x="880.5" y="-258" font-family="Verdana" font-size="10.00">/parameter/SystemClass.h</text>
</a>
</g>
</g>
<!-- Node2&#45;&gt;Node3 -->
<g id="edge2" class="edge"><title>Node2&#45;&gt;Node3</title>
<path fill="none" stroke="midnightblue" d="M994.95,-335.124C970.12,-321.537 939.611,-304.844 916.338,-292.11"/>
<polygon fill="midnightblue" stroke="midnightblue" points="993.365,-338.246 1003.82,-339.976 996.725,-332.105 993.365,-338.246"/>
</g>
<!-- Node9 -->
<g id="node9" class="node"><title>Node9</title>
<g id="a_node9"><a xlink:href="ParameterMgr_8cpp.html" target="_top" xlink:title="/home/dawagner/dev\l/parameter&#45;framework\l/parameter/ParameterMgr.cpp">
<polygon fill="white" stroke="black" points="823,-0.5 823,-41.5 984,-41.5 984,-0.5 823,-0.5"/>
<text text-anchor="start" x="831" y="-29.5" font-family="Verdana" font-size="10.00">/home/dawagner/dev</text>
<text text-anchor="start" x="831" y="-18.5" font-family="Verdana" font-size="10.00">/parameter&#45;framework</text>
<text text-anchor="middle" x="903.5" y="-7.5" font-family="Verdana" font-size="10.00">/parameter/ParameterMgr.cpp</text>
</a>
</g>
</g>
<!-- Node2&#45;&gt;Node9 -->
<g id="edge15" class="edge"><title>Node2&#45;&gt;Node9</title>
<path fill="none" stroke="midnightblue" d="M1045.84,-329.93C1052.87,-288.526 1058.7,-213.18 1020.5,-167 984.465,-123.439 932.349,-176.28 898.5,-131 879.218,-105.206 887.75,-65.6033 895.658,-41.9058"/>
<polygon fill="midnightblue" stroke="midnightblue" points="1042.37,-329.462 1044,-339.929 1049.25,-330.726 1042.37,-329.462"/>
</g>
<!-- Node4 -->
<g id="node4" class="node"><title>Node4</title>
<g id="a_node4"><a xlink:href="XmlDomainImportContext_8h.html" target="_top" xlink:title="/home/dawagner/dev\l/parameter&#45;framework\l/parameter/XmlDomainImportContext.h">
<polygon fill="white" stroke="black" points="361,-167.5 361,-208.5 568,-208.5 568,-167.5 361,-167.5"/>
<text text-anchor="start" x="369" y="-196.5" font-family="Verdana" font-size="10.00">/home/dawagner/dev</text>
<text text-anchor="start" x="369" y="-185.5" font-family="Verdana" font-size="10.00">/parameter&#45;framework</text>
<text text-anchor="middle" x="464.5" y="-174.5" font-family="Verdana" font-size="10.00">/parameter/XmlDomainImportContext.h</text>
</a>
</g>
</g>
<!-- Node3&#45;&gt;Node4 -->
<g id="edge3" class="edge"><title>Node3&#45;&gt;Node4</title>
<path fill="none" stroke="midnightblue" d="M797.449,-254.229C730.315,-241.077 635.592,-222.519 564.334,-208.559"/>
<polygon fill="midnightblue" stroke="midnightblue" points="797.076,-257.723 807.562,-256.211 798.422,-250.853 797.076,-257.723"/>
</g>
<!-- Node3&#45;&gt;Node9 -->
<g id="edge13" class="edge"><title>Node3&#45;&gt;Node9</title>
<path fill="none" stroke="midnightblue" d="M860.909,-242.131C855.081,-232.12 849.464,-220.487 846.5,-209 840.161,-184.432 845.76,-91.492 851.5,-78 857.421,-64.0824 868.381,-51.4552 878.717,-41.729"/>
<polygon fill="midnightblue" stroke="midnightblue" points="858.031,-244.132 866.25,-250.818 863.994,-240.466 858.031,-244.132"/>
</g>
<!-- Node12 -->
<g id="node12" class="node"><title>Node12</title>
<g id="a_node12"><a xlink:href="SystemClass_8cpp.html" target="_top" xlink:title="/home/dawagner/dev\l/parameter&#45;framework\l/parameter/SystemClass.cpp">
<polygon fill="white" stroke="black" points="855.5,-167.5 855.5,-208.5 1011.5,-208.5 1011.5,-167.5 855.5,-167.5"/>
<text text-anchor="start" x="863.5" y="-196.5" font-family="Verdana" font-size="10.00">/home/dawagner/dev</text>
<text text-anchor="start" x="863.5" y="-185.5" font-family="Verdana" font-size="10.00">/parameter&#45;framework</text>
<text text-anchor="middle" x="933.5" y="-174.5" font-family="Verdana" font-size="10.00">/parameter/SystemClass.cpp</text>
</a>
</g>
</g>
<!-- Node3&#45;&gt;Node12 -->
<g id="edge14" class="edge"><title>Node3&#45;&gt;Node12</title>
<path fill="none" stroke="midnightblue" d="M898.888,-242.225C906.114,-231.112 914.232,-218.629 920.788,-208.547"/>
<polygon fill="midnightblue" stroke="midnightblue" points="895.847,-240.48 893.33,-250.771 901.716,-244.296 895.847,-240.48"/>
</g>
<!-- Node5 -->
<g id="node5" class="node"><title>Node5</title>
<g id="a_node5"><a xlink:href="ConfigurableDomain_8h.html" target="_top" xlink:title="/home/dawagner/dev\l/parameter&#45;framework\l/parameter/ConfigurableDomain.h">
<polygon fill="white" stroke="black" points="193.5,-84 193.5,-125 373.5,-125 373.5,-84 193.5,-84"/>
<text text-anchor="start" x="201.5" y="-113" font-family="Verdana" font-size="10.00">/home/dawagner/dev</text>
<text text-anchor="start" x="201.5" y="-102" font-family="Verdana" font-size="10.00">/parameter&#45;framework</text>
<text text-anchor="middle" x="283.5" y="-91" font-family="Verdana" font-size="10.00">/parameter/ConfigurableDomain.h</text>
</a>
</g>
</g>
<!-- Node4&#45;&gt;Node5 -->
<g id="edge4" class="edge"><title>Node4&#45;&gt;Node5</title>
<path fill="none" stroke="midnightblue" d="M411.843,-163.29C384.836,-151.129 352.346,-136.5 326.814,-125.003"/>
<polygon fill="midnightblue" stroke="midnightblue" points="410.591,-166.564 421.146,-167.479 413.465,-160.182 410.591,-166.564"/>
</g>
<!-- Node6 -->
<g id="node6" class="node"><title>Node6</title>
<g id="a_node6"><a xlink:href="ConfigurableDomain_8cpp.html" target="_top" xlink:title="/home/dawagner/dev\l/parameter&#45;framework\l/parameter/ConfigurableDomain.cpp">
<polygon fill="white" stroke="black" points="0,-0.5 0,-41.5 191,-41.5 191,-0.5 0,-0.5"/>
<text text-anchor="start" x="8" y="-29.5" font-family="Verdana" font-size="10.00">/home/dawagner/dev</text>
<text text-anchor="start" x="8" y="-18.5" font-family="Verdana" font-size="10.00">/parameter&#45;framework</text>
<text text-anchor="middle" x="95.5" y="-7.5" font-family="Verdana" font-size="10.00">/parameter/ConfigurableDomain.cpp</text>
</a>
</g>
</g>
<!-- Node4&#45;&gt;Node6 -->
<g id="edge9" class="edge"><title>Node4&#45;&gt;Node6</title>
<path fill="none" stroke="midnightblue" d="M350.721,-181.884C297.164,-175.222 234.28,-160.957 184.5,-131 148.078,-109.081 120.051,-66.6032 105.834,-41.6393"/>
<polygon fill="midnightblue" stroke="midnightblue" points="350.616,-185.395 360.954,-183.079 351.428,-178.443 350.616,-185.395"/>
</g>
<!-- Node4&#45;&gt;Node9 -->
<g id="edge11" class="edge"><title>Node4&#45;&gt;Node9</title>
<path fill="none" stroke="midnightblue" d="M438.287,-159.497C418.736,-135.634 398.699,-101.347 419.5,-78 432.75,-63.1285 688.567,-39.8213 822.796,-28.5454"/>
<polygon fill="midnightblue" stroke="midnightblue" points="435.679,-161.834 444.838,-167.159 440.999,-157.284 435.679,-161.834"/>
</g>
<!-- Node10 -->
<g id="node10" class="node"><title>Node10</title>
<g id="a_node10"><a xlink:href="DomainConfiguration_8cpp.html" target="_top" xlink:title="/home/dawagner/dev\l/parameter&#45;framework\l/parameter/DomainConfiguration.cpp">
<polygon fill="white" stroke="black" points="429,-84 429,-125 624,-125 624,-84 429,-84"/>
<text text-anchor="start" x="437" y="-113" font-family="Verdana" font-size="10.00">/home/dawagner/dev</text>
<text text-anchor="start" x="437" y="-102" font-family="Verdana" font-size="10.00">/parameter&#45;framework</text>
<text text-anchor="middle" x="526.5" y="-91" font-family="Verdana" font-size="10.00">/parameter/DomainConfiguration.cpp</text>
</a>
</g>
</g>
<!-- Node4&#45;&gt;Node10 -->
<g id="edge10" class="edge"><title>Node4&#45;&gt;Node10</title>
<path fill="none" stroke="midnightblue" d="M485.759,-159.054C494.276,-147.859 503.884,-135.229 511.63,-125.047"/>
<polygon fill="midnightblue" stroke="midnightblue" points="482.777,-157.193 479.508,-167.271 488.349,-161.431 482.777,-157.193"/>
</g>
<!-- Node11 -->
<g id="node11" class="node"><title>Node11</title>
<g id="a_node11"><a xlink:href="SelectionCriterionRule_8cpp.html" target="_top" xlink:title="/home/dawagner/dev\l/parameter&#45;framework\l/parameter/SelectionCriterion\lRule.cpp">
<polygon fill="white" stroke="black" points="641.5,-78.5 641.5,-130.5 799.5,-130.5 799.5,-78.5 641.5,-78.5"/>
<text text-anchor="start" x="649.5" y="-118.5" font-family="Verdana" font-size="10.00">/home/dawagner/dev</text>
<text text-anchor="start" x="649.5" y="-107.5" font-family="Verdana" font-size="10.00">/parameter&#45;framework</text>
<text text-anchor="start" x="649.5" y="-96.5" font-family="Verdana" font-size="10.00">/parameter/SelectionCriterion</text>
<text text-anchor="middle" x="720.5" y="-85.5" font-family="Verdana" font-size="10.00">Rule.cpp</text>
</a>
</g>
</g>
<!-- Node4&#45;&gt;Node11 -->
<g id="edge12" class="edge"><title>Node4&#45;&gt;Node11</title>
<path fill="none" stroke="midnightblue" d="M535.397,-164.429C568.409,-153.92 607.794,-141.381 641.732,-130.576"/>
<polygon fill="midnightblue" stroke="midnightblue" points="534.285,-161.11 525.818,-167.479 536.409,-167.78 534.285,-161.11"/>
</g>
<!-- Node5&#45;&gt;Node6 -->
<g id="edge5" class="edge"><title>Node5&#45;&gt;Node6</title>
<path fill="none" stroke="midnightblue" d="M229.173,-79.9488C201.05,-67.7572 167.125,-53.0501 140.489,-41.5031"/>
<polygon fill="midnightblue" stroke="midnightblue" points="227.902,-83.2125 238.469,-83.9787 230.686,-76.79 227.902,-83.2125"/>
</g>
<!-- Node7 -->
<g id="node7" class="node"><title>Node7</title>
<g id="a_node7"><a xlink:href="ConfigurableDomains_8cpp.html" target="_top" xlink:title="/home/dawagner/dev\l/parameter&#45;framework\l/parameter/ConfigurableDomains.cpp">
<polygon fill="white" stroke="black" points="209,-0.5 209,-41.5 406,-41.5 406,-0.5 209,-0.5"/>
<text text-anchor="start" x="217" y="-29.5" font-family="Verdana" font-size="10.00">/home/dawagner/dev</text>
<text text-anchor="start" x="217" y="-18.5" font-family="Verdana" font-size="10.00">/parameter&#45;framework</text>
<text text-anchor="middle" x="307.5" y="-7.5" font-family="Verdana" font-size="10.00">/parameter/ConfigurableDomains.cpp</text>
</a>
</g>
</g>
<!-- Node5&#45;&gt;Node7 -->
<g id="edge6" class="edge"><title>Node5&#45;&gt;Node7</title>
<path fill="none" stroke="midnightblue" d="M292.217,-73.8981C295.389,-63.127 298.892,-51.2302 301.744,-41.5472"/>
<polygon fill="midnightblue" stroke="midnightblue" points="288.777,-73.1897 289.31,-83.7711 295.492,-75.1671 288.777,-73.1897"/>
</g>
<!-- Node8 -->
<g id="node8" class="node"><title>Node8</title>
<g id="a_node8"><a xlink:href="ConfigurableElement_8cpp.html" target="_top" xlink:title="/home/dawagner/dev\l/parameter&#45;framework\l/parameter/ConfigurableElement.cpp">
<polygon fill="white" stroke="black" points="424.5,-0.5 424.5,-41.5 618.5,-41.5 618.5,-0.5 424.5,-0.5"/>
<text text-anchor="start" x="432.5" y="-29.5" font-family="Verdana" font-size="10.00">/home/dawagner/dev</text>
<text text-anchor="start" x="432.5" y="-18.5" font-family="Verdana" font-size="10.00">/parameter&#45;framework</text>
<text text-anchor="middle" x="521.5" y="-7.5" font-family="Verdana" font-size="10.00">/parameter/ConfigurableElement.cpp</text>
</a>
</g>
</g>
<!-- Node5&#45;&gt;Node8 -->
<g id="edge7" class="edge"><title>Node5&#45;&gt;Node8</title>
<path fill="none" stroke="midnightblue" d="M350.425,-80.5826C386.381,-68.2697 430.24,-53.251 464.546,-41.5031"/>
<polygon fill="midnightblue" stroke="midnightblue" points="348.834,-77.4277 340.507,-83.9787 351.102,-84.0502 348.834,-77.4277"/>
</g>
<!-- Node5&#45;&gt;Node9 -->
<g id="edge8" class="edge"><title>Node5&#45;&gt;Node9</title>
<path fill="none" stroke="midnightblue" d="M368.183,-81.7566C374.698,-80.3841 381.192,-79.1106 387.5,-78 540.14,-51.1258 720.601,-35.0845 822.594,-27.4508"/>
<polygon fill="midnightblue" stroke="midnightblue" points="366.976,-78.4373 357.951,-83.9856 368.466,-85.2769 366.976,-78.4373"/>
</g>
<!-- Node13&#45;&gt;Node9 -->
<g id="edge19" class="edge"><title>Node13&#45;&gt;Node9</title>
<path fill="none" stroke="midnightblue" d="M1060.52,-168.2C999.256,-156.456 932.565,-141.604 922.5,-131 899.754,-107.037 898.996,-66.0697 900.948,-41.7652"/>
<polygon fill="midnightblue" stroke="midnightblue" points="1060.21,-171.704 1070.69,-170.132 1061.51,-164.827 1060.21,-171.704"/>
</g>
<!-- Node14 -->
<g id="node14" class="node"><title>Node14</title>
<g id="a_node14"><a xlink:href="FileIncluderElementBuilder_8h.html" target="_top" xlink:title="/home/dawagner/dev\l/parameter&#45;framework\l/parameter/FileIncluderElement\lBuilder.h">
<polygon fill="white" stroke="black" points="931.5,-78.5 931.5,-130.5 1097.5,-130.5 1097.5,-78.5 931.5,-78.5"/>
<text text-anchor="start" x="939.5" y="-118.5" font-family="Verdana" font-size="10.00">/home/dawagner/dev</text>
<text text-anchor="start" x="939.5" y="-107.5" font-family="Verdana" font-size="10.00">/parameter&#45;framework</text>
<text text-anchor="start" x="939.5" y="-96.5" font-family="Verdana" font-size="10.00">/parameter/FileIncluderElement</text>
<text text-anchor="middle" x="1014.5" y="-85.5" font-family="Verdana" font-size="10.00">Builder.h</text>
</a>
</g>
</g>
<!-- Node13&#45;&gt;Node14 -->
<g id="edge17" class="edge"><title>Node13&#45;&gt;Node14</title>
<path fill="none" stroke="midnightblue" d="M1121.79,-162.652C1102.78,-152.526 1080.73,-140.778 1061.58,-130.576"/>
<polygon fill="midnightblue" stroke="midnightblue" points="1120.38,-165.866 1130.85,-167.479 1123.67,-159.688 1120.38,-165.866"/>
</g>
<!-- Node15 -->
<g id="node15" class="node"><title>Node15</title>
<g id="a_node15"><a xlink:href="XmlFileIncluderElement_8cpp.html" target="_top" xlink:title="/home/dawagner/dev\l/parameter&#45;framework\l/parameter/XmlFileIncluderElement.cpp">
<polygon fill="white" stroke="black" points="1115.5,-84 1115.5,-125 1319.5,-125 1319.5,-84 1115.5,-84"/>
<text text-anchor="start" x="1123.5" y="-113" font-family="Verdana" font-size="10.00">/home/dawagner/dev</text>
<text text-anchor="start" x="1123.5" y="-102" font-family="Verdana" font-size="10.00">/parameter&#45;framework</text>
<text text-anchor="middle" x="1217.5" y="-91" font-family="Verdana" font-size="10.00">/parameter/XmlFileIncluderElement.cpp</text>
</a>
</g>
</g>
<!-- Node13&#45;&gt;Node15 -->
<g id="edge20" class="edge"><title>Node13&#45;&gt;Node15</title>
<path fill="none" stroke="midnightblue" d="M1184.85,-158.725C1191.66,-147.612 1199.32,-135.129 1205.51,-125.047"/>
<polygon fill="midnightblue" stroke="midnightblue" points="1181.85,-156.917 1179.6,-167.271 1187.82,-160.578 1181.85,-156.917"/>
</g>
<!-- Node14&#45;&gt;Node9 -->
<g id="edge18" class="edge"><title>Node14&#45;&gt;Node9</title>
<path fill="none" stroke="midnightblue" d="M972.193,-72.4368C958.155,-62.1299 942.923,-50.9455 930.377,-41.7338"/>
<polygon fill="midnightblue" stroke="midnightblue" points="970.159,-75.2851 980.291,-78.3823 974.301,-69.6427 970.159,-75.2851"/>
</g>
<!-- Node16&#45;&gt;Node9 -->
<g id="edge22" class="edge"><title>Node16&#45;&gt;Node9</title>
<path fill="none" stroke="midnightblue" d="M1317.43,-325.196C1345.2,-266.749 1389.41,-147.459 1328.5,-78 1306.21,-52.5748 1101.35,-35.0249 984.391,-26.9834"/>
<polygon fill="midnightblue" stroke="midnightblue" points="1314.19,-323.849 1312.96,-334.373 1320.49,-326.911 1314.19,-323.849"/>
</g>
<!-- Node17&#45;&gt;Node9 -->
<g id="edge25" class="edge"><title>Node17&#45;&gt;Node9</title>
<path fill="none" stroke="midnightblue" d="M1438.39,-329.079C1425.54,-320.636 1413.37,-310.323 1404.5,-298 1346,-216.686 1429.65,-145.357 1355.5,-78 1302.68,-30.0153 1099.64,-21.8569 984.471,-21.2185"/>
<polygon fill="midnightblue" stroke="midnightblue" points="1436.56,-332.063 1446.9,-334.359 1440.25,-326.114 1436.56,-332.063"/>
</g>
<!-- Node18 -->
<g id="node18" class="node"><title>Node18</title>
<g id="a_node18"><a xlink:href="FrameworkConfigurationLocation_8cpp.html" target="_top" xlink:title="/home/dawagner/dev\l/parameter&#45;framework\l/parameter/FrameworkConfiguration\lLocation.cpp">
<polygon fill="white" stroke="black" points="1414,-245.5 1414,-297.5 1603,-297.5 1603,-245.5 1414,-245.5"/>
<text text-anchor="start" x="1422" y="-285.5" font-family="Verdana" font-size="10.00">/home/dawagner/dev</text>
<text text-anchor="start" x="1422" y="-274.5" font-family="Verdana" font-size="10.00">/parameter&#45;framework</text>
<text text-anchor="start" x="1422" y="-263.5" font-family="Verdana" font-size="10.00">/parameter/FrameworkConfiguration</text>
<text text-anchor="middle" x="1508.5" y="-252.5" font-family="Verdana" font-size="10.00">Location.cpp</text>
</a>
</g>
</g>
<!-- Node17&#45;&gt;Node18 -->
<g id="edge24" class="edge"><title>Node17&#45;&gt;Node18</title>
<path fill="none" stroke="midnightblue" d="M1507.31,-324.191C1507.52,-315.282 1507.73,-305.899 1507.92,-297.607"/>
<polygon fill="midnightblue" stroke="midnightblue" points="1503.81,-324.258 1507.08,-334.336 1510.81,-324.419 1503.81,-324.258"/>
</g>
<!-- Node19&#45;&gt;Node9 -->
<g id="edge27" class="edge"><title>Node19&#45;&gt;Node9</title>
<path fill="none" stroke="midnightblue" d="M1659.48,-245.282C1582.4,-194.245 1413.78,-83.0983 1399.5,-78 1325.03,-51.407 1104.66,-34.2699 984.265,-26.6215"/>
<polygon fill="midnightblue" stroke="midnightblue" points="1657.7,-248.302 1667.97,-250.906 1661.57,-242.466 1657.7,-248.302"/>
</g>
<!-- Node19&#45;&gt;Node12 -->
<g id="edge29" class="edge"><title>Node19&#45;&gt;Node12</title>
<path fill="none" stroke="midnightblue" d="M1627.88,-248.443C1622.37,-247.132 1616.87,-245.959 1611.5,-245 1370.35,-201.913 1304.98,-235.936 1061.5,-209 1045.29,-207.207 1028,-204.825 1011.53,-202.333"/>
<polygon fill="midnightblue" stroke="midnightblue" points="1627.21,-251.884 1637.76,-250.935 1628.92,-245.097 1627.21,-251.884"/>
</g>
<!-- Node20 -->
<g id="node20" class="node"><title>Node20</title>
<g id="a_node20"><a xlink:href="PluginLocation_8cpp.html" target="_top" xlink:title="/home/dawagner/dev\l/parameter&#45;framework\l/parameter/PluginLocation.cpp">
<polygon fill="white" stroke="black" points="1616,-167.5 1616,-208.5 1779,-208.5 1779,-167.5 1616,-167.5"/>
<text text-anchor="start" x="1624" y="-196.5" font-family="Verdana" font-size="10.00">/home/dawagner/dev</text>
<text text-anchor="start" x="1624" y="-185.5" font-family="Verdana" font-size="10.00">/parameter&#45;framework</text>
<text text-anchor="middle" x="1697.5" y="-174.5" font-family="Verdana" font-size="10.00">/parameter/PluginLocation.cpp</text>
</a>
</g>
</g>
<!-- Node19&#45;&gt;Node20 -->
<g id="edge28" class="edge"><title>Node19&#45;&gt;Node20</title>
<path fill="none" stroke="midnightblue" d="M1697.5,-240.565C1697.5,-229.882 1697.5,-218.13 1697.5,-208.547"/>
<polygon fill="midnightblue" stroke="midnightblue" points="1694,-240.771 1697.5,-250.771 1701,-240.771 1694,-240.771"/>
</g>
</g>
</svg>
