<?xml version="1.0" encoding="UTF-8" standalone="no"?>
<!DOCTYPE svg PUBLIC "-//W3C//DTD SVG 1.1//EN"
 "http://www.w3.org/Graphics/SVG/1.1/DTD/svg11.dtd">
<!-- Generated by graphviz version 2.38.0 (20140413.2041)
 -->
<!-- Title: /home/dawagner/dev/parameter&#45;framework/parameter/LinearParameterAdaptation.h Pages: 1 -->
<svg width="570pt" height="274pt"
 viewBox="0.00 0.00 570.00 274.00" xmlns="http://www.w3.org/2000/svg" xmlns:xlink="http://www.w3.org/1999/xlink">
<g id="graph0" class="graph" transform="scale(1 1) rotate(0) translate(4 270)">
<title>/home/dawagner/dev/parameter&#45;framework/parameter/LinearParameterAdaptation.h</title>
<polygon fill="white" stroke="none" points="-4,4 -4,-270 566,-270 566,4 -4,4"/>
<!-- Node1 -->
<g id="node1" class="node"><title>Node1</title>
<polygon fill="#bfbfbf" stroke="black" points="0,-224.5 0,-265.5 215,-265.5 215,-224.5 0,-224.5"/>
<text text-anchor="start" x="8" y="-253.5" font-family="Verdana" font-size="10.00">/home/dawagner/dev</text>
<text text-anchor="start" x="8" y="-242.5" font-family="Verdana" font-size="10.00">/parameter&#45;framework</text>
<text text-anchor="middle" x="107.5" y="-231.5" font-family="Verdana" font-size="10.00">/parameter/LinearParameterAdaptation.h</text>
</g>
<!-- Node2 -->
<g id="node2" class="node"><title>Node2</title>
<g id="a_node2"><a xlink:href="ParameterAdaptation_8h.html" target="_top" xlink:title="ParameterAdaptation.h">
<polygon fill="white" stroke="black" points="89.5,-168.5 89.5,-187.5 217.5,-187.5 217.5,-168.5 89.5,-168.5"/>
<text text-anchor="middle" x="153.5" y="-175.5" font-family="Verdana" font-size="10.00">ParameterAdaptation.h</text>
</a>
</g>
</g>
<!-- Node1&#45;&gt;Node2 -->
<g id="edge1" class="edge"><title>Node1&#45;&gt;Node2</title>
<path fill="none" stroke="midnightblue" d="M121.302,-224.498C127.744,-215.395 135.339,-204.662 141.534,-195.908"/>
<polygon fill="midnightblue" stroke="midnightblue" points="144.457,-197.837 147.377,-187.652 138.743,-193.793 144.457,-197.837"/>
</g>
<!-- Node4 -->
<g id="node4" class="node"><title>Node4</title>
<polygon fill="white" stroke="#bfbfbf" points="96.5,-0.5 96.5,-19.5 140.5,-19.5 140.5,-0.5 96.5,-0.5"/>
<text text-anchor="middle" x="118.5" y="-7.5" font-family="Verdana" font-size="10.00">string</text>
</g>
<!-- Node1&#45;&gt;Node4 -->
<g id="edge14" class="edge"><title>Node1&#45;&gt;Node4</title>
<path fill="none" stroke="midnightblue" d="M95.3206,-224.327C89.6,-213.939 83.409,-200.732 80.5,-188 67.2341,-129.94 94.4274,-60.8539 109.452,-28.876"/>
<polygon fill="midnightblue" stroke="midnightblue" points="112.612,-30.3823 113.836,-19.8584 106.316,-27.3217 112.612,-30.3823"/>
</g>
<!-- Node3 -->
<g id="node3" class="node"><title>Node3</title>
<g id="a_node3"><a xlink:href="Element_8h.html" target="_top" xlink:title="Element.h">
<polygon fill="white" stroke="black" points="257,-112.5 257,-131.5 322,-131.5 322,-112.5 257,-112.5"/>
<text text-anchor="middle" x="289.5" y="-119.5" font-family="Verdana" font-size="10.00">Element.h</text>
</a>
</g>
</g>
<!-- Node2&#45;&gt;Node3 -->
<g id="edge2" class="edge"><title>Node2&#45;&gt;Node3</title>
<path fill="none" stroke="midnightblue" d="M175.05,-168.444C197.531,-159.517 232.988,-145.439 258.48,-135.317"/>
<polygon fill="midnightblue" stroke="midnightblue" points="260.049,-138.46 268.051,-131.516 257.465,-131.954 260.049,-138.46"/>
</g>
<!-- Node2&#45;&gt;Node4 -->
<g id="edge13" class="edge"><title>Node2&#45;&gt;Node4</title>
<path fill="none" stroke="midnightblue" d="M151.618,-168.075C146.109,-141.945 129.93,-65.2106 122.417,-29.577"/>
<polygon fill="midnightblue" stroke="midnightblue" points="125.794,-28.6309 120.307,-19.5681 118.945,-30.0751 125.794,-28.6309"/>
</g>
<!-- Node3&#45;&gt;Node4 -->
<g id="edge3" class="edge"><title>Node3&#45;&gt;Node4</title>
<path fill="none" stroke="midnightblue" d="M256.84,-116.559C227.814,-111.187 185.595,-99.7213 156.5,-76 141.5,-63.7699 131.139,-43.9437 125.07,-29.3991"/>
<polygon fill="midnightblue" stroke="midnightblue" points="128.277,-27.9885 121.403,-19.926 121.749,-30.5152 128.277,-27.9885"/>
</g>
<!-- Node5 -->
<g id="node5" class="node"><title>Node5</title>
<polygon fill="white" stroke="#bfbfbf" points="515,-0.5 515,-19.5 562,-19.5 562,-0.5 515,-0.5"/>
<text text-anchor="middle" x="538.5" y="-7.5" font-family="Verdana" font-size="10.00">vector</text>
</g>
<!-- Node3&#45;&gt;Node5 -->
<g id="edge4" class="edge"><title>Node3&#45;&gt;Node5</title>
<path fill="none" stroke="midnightblue" d="M322.203,-117.973C376.231,-112.385 480.999,-98.8806 509.5,-76 523.782,-64.5341 531.247,-44.5561 535.002,-29.7662"/>
<polygon fill="midnightblue" stroke="midnightblue" points="538.487,-30.2111 537.201,-19.6946 531.648,-28.7177 538.487,-30.2111"/>
</g>
<!-- Node6 -->
<g id="node6" class="node"><title>Node6</title>
<polygon fill="white" stroke="#bfbfbf" points="422,-0.5 422,-19.5 475,-19.5 475,-0.5 422,-0.5"/>
<text text-anchor="middle" x="448.5" y="-7.5" font-family="Verdana" font-size="10.00">stdint.h</text>
</g>
<!-- Node3&#45;&gt;Node6 -->
<g id="edge5" class="edge"><title>Node3&#45;&gt;Node6</title>
<path fill="none" stroke="midnightblue" d="M322.02,-118.619C373.846,-114.073 471.486,-102.182 492.5,-76 505.768,-59.4693 486.668,-39.0299 469.636,-25.5346"/>
<polygon fill="midnightblue" stroke="midnightblue" points="471.696,-22.7042 461.592,-19.515 467.502,-28.3087 471.696,-22.7042"/>
</g>
<!-- Node7 -->
<g id="node7" class="node"><title>Node7</title>
<polygon fill="white" stroke="#bfbfbf" points="165.5,-56.5 165.5,-75.5 195.5,-75.5 195.5,-56.5 165.5,-56.5"/>
<text text-anchor="middle" x="180.5" y="-63.5" font-family="Verdana" font-size="10.00">list</text>
</g>
<!-- Node3&#45;&gt;Node7 -->
<g id="edge6" class="edge"><title>Node3&#45;&gt;Node7</title>
<path fill="none" stroke="midnightblue" d="M271.987,-112.324C253.7,-103.264 224.894,-88.9933 204.496,-78.8881"/>
<polygon fill="midnightblue" stroke="midnightblue" points="206.027,-75.7407 195.513,-74.4376 202.92,-82.0131 206.027,-75.7407"/>
</g>
<!-- Node8 -->
<g id="node8" class="node"><title>Node8</title>
<polygon fill="white" stroke="#bfbfbf" points="213.5,-56.5 213.5,-75.5 277.5,-75.5 277.5,-56.5 213.5,-56.5"/>
<text text-anchor="middle" x="245.5" y="-63.5" font-family="Verdana" font-size="10.00">XmlSink.h</text>
</g>
<!-- Node3&#45;&gt;Node8 -->
<g id="edge7" class="edge"><title>Node3&#45;&gt;Node8</title>
<path fill="none" stroke="midnightblue" d="M282.234,-112.083C275.955,-104.377 266.712,-93.0333 259.069,-83.6531"/>
<polygon fill="midnightblue" stroke="midnightblue" points="261.661,-81.2926 252.631,-75.7511 256.234,-85.7143 261.661,-81.2926"/>
</g>
<!-- Node9 -->
<g id="node9" class="node"><title>Node9</title>
<polygon fill="white" stroke="#bfbfbf" points="296,-56.5 296,-75.5 373,-75.5 373,-56.5 296,-56.5"/>
<text text-anchor="middle" x="334.5" y="-63.5" font-family="Verdana" font-size="10.00">XmlSource.h</text>
</g>
<!-- Node3&#45;&gt;Node9 -->
<g id="edge8" class="edge"><title>Node3&#45;&gt;Node9</title>
<path fill="none" stroke="midnightblue" d="M296.931,-112.083C303.353,-104.377 312.806,-93.0333 320.622,-83.6531"/>
<polygon fill="midnightblue" stroke="midnightblue" points="323.494,-85.674 327.207,-75.7511 318.117,-81.1927 323.494,-85.674"/>
</g>
<!-- Node10 -->
<g id="node10" class="node"><title>Node10</title>
<g id="a_node10"><a xlink:href="PathNavigator_8h.html" target="_top" xlink:title="PathNavigator.h">
<polygon fill="white" stroke="black" points="391.5,-56.5 391.5,-75.5 483.5,-75.5 483.5,-56.5 391.5,-56.5"/>
<text text-anchor="middle" x="437.5" y="-63.5" font-family="Verdana" font-size="10.00">PathNavigator.h</text>
</a>
</g>
</g>
<!-- Node3&#45;&gt;Node10 -->
<g id="edge9" class="edge"><title>Node3&#45;&gt;Node10</title>
<path fill="none" stroke="midnightblue" d="M312.951,-112.444C337.633,-103.438 376.685,-89.1891 404.477,-79.049"/>
<polygon fill="midnightblue" stroke="midnightblue" points="405.964,-82.2321 414.159,-75.5164 403.565,-75.6561 405.964,-82.2321"/>
</g>
<!-- Node10&#45;&gt;Node4 -->
<g id="edge11" class="edge"><title>Node10&#45;&gt;Node4</title>
<path fill="none" stroke="midnightblue" d="M391.455,-57.2056C325.969,-46.1202 207.58,-26.0794 150.706,-16.4518"/>
<polygon fill="midnightblue" stroke="midnightblue" points="150.951,-12.9435 140.507,-14.7253 149.782,-19.8453 150.951,-12.9435"/>
</g>
<!-- Node10&#45;&gt;Node5 -->
<g id="edge10" class="edge"><title>Node10&#45;&gt;Node5</title>
<path fill="none" stroke="midnightblue" d="M453.727,-56.324C469.851,-47.7034 494.8,-34.3643 513.464,-24.3855"/>
<polygon fill="midnightblue" stroke="midnightblue" points="515.144,-27.456 522.313,-19.6545 511.844,-21.283 515.144,-27.456"/>
</g>
<!-- Node10&#45;&gt;Node6 -->
<g id="edge12" class="edge"><title>Node10&#45;&gt;Node6</title>
<path fill="none" stroke="midnightblue" d="M439.316,-56.083C440.774,-48.9272 442.871,-38.6353 444.693,-29.6911"/>
<polygon fill="midnightblue" stroke="midnightblue" points="448.151,-30.2485 446.717,-19.7511 441.292,-28.8512 448.151,-30.2485"/>
</g>
</g>
</svg>
