<?xml version="1.0" encoding="UTF-8" standalone="no"?>
<!DOCTYPE svg PUBLIC "-//W3C//DTD SVG 1.1//EN"
 "http://www.w3.org/Graphics/SVG/1.1/DTD/svg11.dtd">
<!-- Generated by graphviz version 2.38.0 (20140413.2041)
 -->
<!-- Title: parameter/LinearParameterAdaptation.h Pages: 1 -->
<svg width="459pt" height="173pt"
 viewBox="0.00 0.00 459.00 173.00" xmlns="http://www.w3.org/2000/svg" xmlns:xlink="http://www.w3.org/1999/xlink">
<g id="graph0" class="graph" transform="scale(1 1) rotate(0) translate(4 169)">
<title>parameter/LinearParameterAdaptation.h</title>
<polygon fill="white" stroke="none" points="-4,4 -4,-169 455,-169 455,4 -4,4"/>
<!-- Node1 -->
<g id="node1" class="node"><title>Node1</title>
<polygon fill="#bfbfbf" stroke="black" points="181,-134.5 181,-164.5 331,-164.5 331,-134.5 181,-134.5"/>
<text text-anchor="start" x="189" y="-152.5" font-family="Verdana" font-size="10.00">parameter/LinearParameter</text>
<text text-anchor="middle" x="256" y="-141.5" font-family="Verdana" font-size="10.00">Adaptation.h</text>
</g>
<!-- Node2 -->
<g id="node2" class="node"><title>Node2</title>
<g id="a_node2"><a xlink:href="LinearParameterAdaptation_8cpp.html" target="_top" xlink:title="parameter/LinearParameter\lAdaptation.cpp">
<polygon fill="white" stroke="black" points="0,-67.5 0,-97.5 150,-97.5 150,-67.5 0,-67.5"/>
<text text-anchor="start" x="8" y="-85.5" font-family="Verdana" font-size="10.00">parameter/LinearParameter</text>
<text text-anchor="middle" x="75" y="-74.5" font-family="Verdana" font-size="10.00">Adaptation.cpp</text>
</a>
</g>
</g>
<!-- Node1&#45;&gt;Node2 -->
<g id="edge1" class="edge"><title>Node1&#45;&gt;Node2</title>
<path fill="none" stroke="midnightblue" d="M207.145,-130.955C177.988,-120.485 141.457,-107.366 114.198,-97.5765"/>
<polygon fill="midnightblue" stroke="midnightblue" points="206.131,-134.31 216.726,-134.396 208.497,-127.722 206.131,-134.31"/>
</g>
<!-- Node3 -->
<g id="node3" class="node"><title>Node3</title>
<g id="a_node3"><a xlink:href="LogarithmicParameterAdaptation_8h.html" target="_top" xlink:title="parameter/LogarithmicParameter\lAdaptation.h">
<polygon fill="white" stroke="black" points="167.5,-67.5 167.5,-97.5 344.5,-97.5 344.5,-67.5 167.5,-67.5"/>
<text text-anchor="start" x="175.5" y="-85.5" font-family="Verdana" font-size="10.00">parameter/LogarithmicParameter</text>
<text text-anchor="middle" x="256" y="-74.5" font-family="Verdana" font-size="10.00">Adaptation.h</text>
</a>
</g>
</g>
<!-- Node1&#45;&gt;Node3 -->
<g id="edge2" class="edge"><title>Node1&#45;&gt;Node3</title>
<path fill="none" stroke="midnightblue" d="M256,-124.108C256,-115.154 256,-105.323 256,-97.5765"/>
<polygon fill="midnightblue" stroke="midnightblue" points="252.5,-124.396 256,-134.396 259.5,-124.396 252.5,-124.396"/>
</g>
<!-- Node5 -->
<g id="node5" class="node"><title>Node5</title>
<g id="a_node5"><a xlink:href="ParameterMgr_8cpp.html" target="_top" xlink:title="parameter/ParameterMgr.cpp">
<polygon fill="white" stroke="black" points="293,-6 293,-25 451,-25 451,-6 293,-6"/>
<text text-anchor="middle" x="372" y="-13" font-family="Verdana" font-size="10.00">parameter/ParameterMgr.cpp</text>
</a>
</g>
</g>
<!-- Node1&#45;&gt;Node5 -->
<g id="edge5" class="edge"><title>Node1&#45;&gt;Node5</title>
<path fill="none" stroke="midnightblue" d="M311.497,-130.253C327.31,-122.577 343.165,-112.072 354,-98 370.974,-75.9562 372.612,-41.1344 372.37,-25.1012"/>
<polygon fill="midnightblue" stroke="midnightblue" points="309.894,-127.136 302.229,-134.451 312.783,-133.512 309.894,-127.136"/>
</g>
<!-- Node4 -->
<g id="node4" class="node"><title>Node4</title>
<g id="a_node4"><a xlink:href="LogarithmicParameterAdaptation_8cpp.html" target="_top" xlink:title="parameter/LogarithmicParameter\lAdaptation.cpp">
<polygon fill="white" stroke="black" points="98.5,-0.5 98.5,-30.5 275.5,-30.5 275.5,-0.5 98.5,-0.5"/>
<text text-anchor="start" x="106.5" y="-18.5" font-family="Verdana" font-size="10.00">parameter/LogarithmicParameter</text>
<text text-anchor="middle" x="187" y="-7.5" font-family="Verdana" font-size="10.00">Adaptation.cpp</text>
</a>
</g>
</g>
<!-- Node3&#45;&gt;Node4 -->
<g id="edge3" class="edge"><title>Node3&#45;&gt;Node4</title>
<path fill="none" stroke="midnightblue" d="M233.508,-60.3115C223.157,-50.5612 211.16,-39.259 201.943,-30.5765"/>
<polygon fill="midnightblue" stroke="midnightblue" points="231.349,-63.0866 241.028,-67.396 236.149,-57.9914 231.349,-63.0866"/>
</g>
<!-- Node3&#45;&gt;Node5 -->
<g id="edge4" class="edge"><title>Node3&#45;&gt;Node5</title>
<path fill="none" stroke="midnightblue" d="M289.956,-62.4727C312.101,-50.0641 339.928,-34.4716 356.818,-25.007"/>
<polygon fill="midnightblue" stroke="midnightblue" points="288.183,-59.4543 281.17,-67.396 291.605,-65.5609 288.183,-59.4543"/>
</g>
</g>
</svg>
