<?xml version="1.0" encoding="UTF-8" standalone="no"?>
<!DOCTYPE svg PUBLIC "-//W3C//DTD SVG 1.1//EN"
 "http://www.w3.org/Graphics/SVG/1.1/DTD/svg11.dtd">
<!-- Generated by graphviz version 2.36.0 (20140111.2315)
 -->
<!-- Title: parameter/LinearParameterAdaptation.h Pages: 1 -->
<svg width="537pt" height="264pt"
 viewBox="0.00 0.00 537.00 264.00" xmlns="http://www.w3.org/2000/svg" xmlns:xlink="http://www.w3.org/1999/xlink">
<g id="graph0" class="graph" transform="scale(1 1) rotate(0) translate(4 260)">
<title>parameter/LinearParameterAdaptation.h</title>
<polygon fill="white" stroke="none" points="-4,4 -4,-260 533,-260 533,4 -4,4"/>
<!-- Node1 -->
<g id="node1" class="node"><title>Node1</title>
<polygon fill="#bfbfbf" stroke="black" points="0,-225 0,-255 150,-255 150,-225 0,-225"/>
<text text-anchor="start" x="8" y="-243" font-family="Verdana" font-size="10.00">parameter/LinearParameter</text>
<text text-anchor="middle" x="75" y="-232" font-family="Verdana" font-size="10.00">Adaptation.h</text>
</g>
<!-- Node2 -->
<g id="node2" class="node"><title>Node2</title>
<g id="a_node2"><a xlink:href="ParameterAdaptation_8h.html" target="_top" xlink:title="ParameterAdaptation.h">
<polygon fill="white" stroke="black" points="57,-168.5 57,-187.5 185,-187.5 185,-168.5 57,-168.5"/>
<text text-anchor="middle" x="121" y="-175.5" font-family="Verdana" font-size="10.00">ParameterAdaptation.h</text>
</a>
</g>
</g>
<!-- Node1&#45;&gt;Node2 -->
<g id="edge1" class="edge"><title>Node1&#45;&gt;Node2</title>
<path fill="none" stroke="midnightblue" d="M85.9014,-224.781C92.5857,-216.062 101.176,-204.857 108.185,-195.715"/>
<polygon fill="midnightblue" stroke="midnightblue" points="111,-197.796 114.307,-187.731 105.445,-193.537 111,-197.796"/>
</g>
<!-- Node4 -->
<g id="node4" class="node"><title>Node4</title>
<polygon fill="white" stroke="#bfbfbf" points="64,-0.5 64,-19.5 108,-19.5 108,-0.5 64,-0.5"/>
<text text-anchor="middle" x="86" y="-7.5" font-family="Verdana" font-size="10.00">string</text>
</g>
<!-- Node1&#45;&gt;Node4 -->
<g id="edge14" class="edge"><title>Node1&#45;&gt;Node4</title>
<path fill="none" stroke="midnightblue" d="M64.929,-224.604C58.6992,-214.79 51.2843,-201.223 48,-188 33.5755,-129.925 61.6259,-60.3295 76.9502,-28.4731"/>
<polygon fill="midnightblue" stroke="midnightblue" points="80.0846,-30.0304 81.4085,-19.5186 73.8183,-26.9105 80.0846,-30.0304"/>
</g>
<!-- Node3 -->
<g id="node3" class="node"><title>Node3</title>
<g id="a_node3"><a xlink:href="Element_8h.html" target="_top" xlink:title="Element.h">
<polygon fill="white" stroke="black" points="224.5,-112.5 224.5,-131.5 289.5,-131.5 289.5,-112.5 224.5,-112.5"/>
<text text-anchor="middle" x="257" y="-119.5" font-family="Verdana" font-size="10.00">Element.h</text>
</a>
</g>
</g>
<!-- Node2&#45;&gt;Node3 -->
<g id="edge2" class="edge"><title>Node2&#45;&gt;Node3</title>
<path fill="none" stroke="midnightblue" d="M142.55,-168.444C165.031,-159.517 200.488,-145.439 225.98,-135.317"/>
<polygon fill="midnightblue" stroke="midnightblue" points="227.549,-138.46 235.551,-131.516 224.965,-131.954 227.549,-138.46"/>
</g>
<!-- Node2&#45;&gt;Node4 -->
<g id="edge13" class="edge"><title>Node2&#45;&gt;Node4</title>
<path fill="none" stroke="midnightblue" d="M119.118,-168.075C113.609,-141.945 97.4299,-65.2106 89.9168,-29.577"/>
<polygon fill="midnightblue" stroke="midnightblue" points="93.2944,-28.6309 87.8065,-19.5681 86.445,-30.0751 93.2944,-28.6309"/>
</g>
<!-- Node3&#45;&gt;Node4 -->
<g id="edge3" class="edge"><title>Node3&#45;&gt;Node4</title>
<path fill="none" stroke="midnightblue" d="M224.34,-116.559C195.314,-111.187 153.095,-99.7213 124,-76 109,-63.7699 98.6393,-43.9437 92.5696,-29.3991"/>
<polygon fill="midnightblue" stroke="midnightblue" points="95.7767,-27.9885 88.9031,-19.926 89.2486,-30.5152 95.7767,-27.9885"/>
</g>
<!-- Node5 -->
<g id="node5" class="node"><title>Node5</title>
<polygon fill="white" stroke="#bfbfbf" points="482.5,-0.5 482.5,-19.5 529.5,-19.5 529.5,-0.5 482.5,-0.5"/>
<text text-anchor="middle" x="506" y="-7.5" font-family="Verdana" font-size="10.00">vector</text>
</g>
<!-- Node3&#45;&gt;Node5 -->
<g id="edge4" class="edge"><title>Node3&#45;&gt;Node5</title>
<path fill="none" stroke="midnightblue" d="M289.703,-117.973C343.731,-112.385 448.499,-98.8806 477,-76 491.282,-64.5341 498.747,-44.5561 502.502,-29.7662"/>
<polygon fill="midnightblue" stroke="midnightblue" points="505.987,-30.2111 504.701,-19.6946 499.148,-28.7177 505.987,-30.2111"/>
</g>
<!-- Node6 -->
<g id="node6" class="node"><title>Node6</title>
<polygon fill="white" stroke="#bfbfbf" points="389.5,-0.5 389.5,-19.5 442.5,-19.5 442.5,-0.5 389.5,-0.5"/>
<text text-anchor="middle" x="416" y="-7.5" font-family="Verdana" font-size="10.00">stdint.h</text>
</g>
<!-- Node3&#45;&gt;Node6 -->
<g id="edge5" class="edge"><title>Node3&#45;&gt;Node6</title>
<path fill="none" stroke="midnightblue" d="M289.52,-118.619C341.346,-114.073 438.986,-102.182 460,-76 473.268,-59.4693 454.168,-39.0299 437.136,-25.5346"/>
<polygon fill="midnightblue" stroke="midnightblue" points="439.196,-22.7042 429.092,-19.515 435.002,-28.3087 439.196,-22.7042"/>
</g>
<!-- Node7 -->
<g id="node7" class="node"><title>Node7</title>
<polygon fill="white" stroke="#bfbfbf" points="133,-56.5 133,-75.5 163,-75.5 163,-56.5 133,-56.5"/>
<text text-anchor="middle" x="148" y="-63.5" font-family="Verdana" font-size="10.00">list</text>
</g>
<!-- Node3&#45;&gt;Node7 -->
<g id="edge6" class="edge"><title>Node3&#45;&gt;Node7</title>
<path fill="none" stroke="midnightblue" d="M239.487,-112.324C221.2,-103.264 192.394,-88.9933 171.996,-78.8881"/>
<polygon fill="midnightblue" stroke="midnightblue" points="173.527,-75.7407 163.013,-74.4376 170.42,-82.0131 173.527,-75.7407"/>
</g>
<!-- Node8 -->
<g id="node8" class="node"><title>Node8</title>
<polygon fill="white" stroke="#bfbfbf" points="181,-56.5 181,-75.5 245,-75.5 245,-56.5 181,-56.5"/>
<text text-anchor="middle" x="213" y="-63.5" font-family="Verdana" font-size="10.00">XmlSink.h</text>
</g>
<!-- Node3&#45;&gt;Node8 -->
<g id="edge7" class="edge"><title>Node3&#45;&gt;Node8</title>
<path fill="none" stroke="midnightblue" d="M249.734,-112.083C243.455,-104.377 234.212,-93.0333 226.569,-83.6531"/>
<polygon fill="midnightblue" stroke="midnightblue" points="229.161,-81.2926 220.131,-75.7511 223.734,-85.7143 229.161,-81.2926"/>
</g>
<!-- Node9 -->
<g id="node9" class="node"><title>Node9</title>
<polygon fill="white" stroke="#bfbfbf" points="263.5,-56.5 263.5,-75.5 340.5,-75.5 340.5,-56.5 263.5,-56.5"/>
<text text-anchor="middle" x="302" y="-63.5" font-family="Verdana" font-size="10.00">XmlSource.h</text>
</g>
<!-- Node3&#45;&gt;Node9 -->
<g id="edge8" class="edge"><title>Node3&#45;&gt;Node9</title>
<path fill="none" stroke="midnightblue" d="M264.431,-112.083C270.853,-104.377 280.306,-93.0333 288.122,-83.6531"/>
<polygon fill="midnightblue" stroke="midnightblue" points="290.994,-85.674 294.707,-75.7511 285.617,-81.1927 290.994,-85.674"/>
</g>
<!-- Node10 -->
<g id="node10" class="node"><title>Node10</title>
<g id="a_node10"><a xlink:href="PathNavigator_8h.html" target="_top" xlink:title="PathNavigator.h">
<polygon fill="white" stroke="black" points="359,-56.5 359,-75.5 451,-75.5 451,-56.5 359,-56.5"/>
<text text-anchor="middle" x="405" y="-63.5" font-family="Verdana" font-size="10.00">PathNavigator.h</text>
</a>
</g>
</g>
<!-- Node3&#45;&gt;Node10 -->
<g id="edge9" class="edge"><title>Node3&#45;&gt;Node10</title>
<path fill="none" stroke="midnightblue" d="M280.451,-112.444C305.133,-103.438 344.185,-89.1891 371.977,-79.049"/>
<polygon fill="midnightblue" stroke="midnightblue" points="373.464,-82.2321 381.659,-75.5164 371.065,-75.6561 373.464,-82.2321"/>
</g>
<!-- Node10&#45;&gt;Node4 -->
<g id="edge11" class="edge"><title>Node10&#45;&gt;Node4</title>
<path fill="none" stroke="midnightblue" d="M358.955,-57.2056C293.469,-46.1202 175.08,-26.0794 118.206,-16.4518"/>
<polygon fill="midnightblue" stroke="midnightblue" points="118.451,-12.9435 108.007,-14.7253 117.282,-19.8453 118.451,-12.9435"/>
</g>
<!-- Node10&#45;&gt;Node5 -->
<g id="edge10" class="edge"><title>Node10&#45;&gt;Node5</title>
<path fill="none" stroke="midnightblue" d="M421.227,-56.324C437.351,-47.7034 462.3,-34.3643 480.964,-24.3855"/>
<polygon fill="midnightblue" stroke="midnightblue" points="482.644,-27.456 489.813,-19.6545 479.344,-21.283 482.644,-27.456"/>
</g>
<!-- Node10&#45;&gt;Node6 -->
<g id="edge12" class="edge"><title>Node10&#45;&gt;Node6</title>
<path fill="none" stroke="midnightblue" d="M406.816,-56.083C408.274,-48.9272 410.371,-38.6353 412.193,-29.6911"/>
<polygon fill="midnightblue" stroke="midnightblue" points="415.651,-30.2485 414.217,-19.7511 408.792,-28.8512 415.651,-30.2485"/>
</g>
</g>
</svg>
