<?xml version="1.0" encoding="UTF-8" standalone="no"?>
<!DOCTYPE svg PUBLIC "-//W3C//DTD SVG 1.1//EN"
 "http://www.w3.org/Graphics/SVG/1.1/DTD/svg11.dtd">
<!-- Generated by graphviz version 2.38.0 (20140413.2041)
 -->
<!-- Title: /home/dawagner/dev/parameter&#45;framework/remote&#45;processor/ListeningSocket.h Pages: 1 -->
<svg width="160pt" height="173pt"
 viewBox="0.00 0.00 160.00 173.00" xmlns="http://www.w3.org/2000/svg" xmlns:xlink="http://www.w3.org/1999/xlink">
<g id="graph0" class="graph" transform="scale(1 1) rotate(0) translate(4 169)">
<title>/home/dawagner/dev/parameter&#45;framework/remote&#45;processor/ListeningSocket.h</title>
<polygon fill="white" stroke="none" points="-4,4 -4,-169 156,-169 156,4 -4,4"/>
<!-- Node1 -->
<g id="node1" class="node"><title>Node1</title>
<polygon fill="#bfbfbf" stroke="black" points="0,-112.5 0,-164.5 152,-164.5 152,-112.5 0,-112.5"/>
<text text-anchor="start" x="8" y="-152.5" font-family="Verdana" font-size="10.00">/home/dawagner/dev</text>
<text text-anchor="start" x="8" y="-141.5" font-family="Verdana" font-size="10.00">/parameter&#45;framework</text>
<text text-anchor="start" x="8" y="-130.5" font-family="Verdana" font-size="10.00">/remote&#45;processor/Listening</text>
<text text-anchor="middle" x="76" y="-119.5" font-family="Verdana" font-size="10.00">Socket.h</text>
</g>
<!-- Node2 -->
<g id="node2" class="node"><title>Node2</title>
<g id="a_node2"><a xlink:href="Socket_8h.html" target="_top" xlink:title="Socket.h">
<polygon fill="white" stroke="black" points="46.5,-56.5 46.5,-75.5 105.5,-75.5 105.5,-56.5 46.5,-56.5"/>
<text text-anchor="middle" x="76" y="-63.5" font-family="Verdana" font-size="10.00">Socket.h</text>
</a>
</g>
</g>
<!-- Node1&#45;&gt;Node2 -->
<g id="edge1" class="edge"><title>Node1&#45;&gt;Node2</title>
<path fill="none" stroke="midnightblue" d="M76,-112.446C76,-103.73 76,-94.1045 76,-85.9641"/>
<polygon fill="midnightblue" stroke="midnightblue" points="79.5001,-85.6954 76,-75.6955 72.5001,-85.6955 79.5001,-85.6954"/>
</g>
<!-- Node3 -->
<g id="node3" class="node"><title>Node3</title>
<polygon fill="white" stroke="#bfbfbf" points="21,-0.5 21,-19.5 65,-19.5 65,-0.5 21,-0.5"/>
<text text-anchor="middle" x="43" y="-7.5" font-family="Verdana" font-size="10.00">string</text>
</g>
<!-- Node2&#45;&gt;Node3 -->
<g id="edge2" class="edge"><title>Node2&#45;&gt;Node3</title>
<path fill="none" stroke="midnightblue" d="M70.5507,-56.083C65.9855,-48.6127 59.3316,-37.7244 53.7066,-28.5199"/>
<polygon fill="midnightblue" stroke="midnightblue" points="56.5489,-26.4588 48.3479,-19.7511 50.5759,-30.109 56.5489,-26.4588"/>
</g>
<!-- Node4 -->
<g id="node4" class="node"><title>Node4</title>
<polygon fill="white" stroke="#bfbfbf" points="83.5,-0.5 83.5,-19.5 136.5,-19.5 136.5,-0.5 83.5,-0.5"/>
<text text-anchor="middle" x="110" y="-7.5" font-family="Verdana" font-size="10.00">stdint.h</text>
</g>
<!-- Node2&#45;&gt;Node4 -->
<g id="edge3" class="edge"><title>Node2&#45;&gt;Node4</title>
<path fill="none" stroke="midnightblue" d="M81.6144,-56.083C86.3674,-48.5341 93.3181,-37.4948 99.1516,-28.2298"/>
<polygon fill="midnightblue" stroke="midnightblue" points="102.124,-30.0783 104.49,-19.7511 96.2001,-26.3486 102.124,-30.0783"/>
</g>
</g>
</svg>
