<?xml version="1.0" encoding="UTF-8" standalone="no"?>
<!DOCTYPE svg PUBLIC "-//W3C//DTD SVG 1.1//EN"
 "http://www.w3.org/Graphics/SVG/1.1/DTD/svg11.dtd">
<!-- Generated by graphviz version 2.38.0 (20140413.2041)
 -->
<!-- Title: parameter/LogarithmicParameterAdaptation.cpp Pages: 1 -->
<svg width="739pt" height="431pt"
 viewBox="0.00 0.00 739.00 431.00" xmlns="http://www.w3.org/2000/svg" xmlns:xlink="http://www.w3.org/1999/xlink">
<g id="graph0" class="graph" transform="scale(1 1) rotate(0) translate(4 427)">
<title>parameter/LogarithmicParameterAdaptation.cpp</title>
<polygon fill="white" stroke="none" points="-4,4 -4,-427 735,-427 735,4 -4,4"/>
<!-- Node1 -->
<g id="node1" class="node"><title>Node1</title>
<polygon fill="#bfbfbf" stroke="black" points="495.5,-392.5 495.5,-422.5 672.5,-422.5 672.5,-392.5 495.5,-392.5"/>
<text text-anchor="start" x="503.5" y="-410.5" font-family="Verdana" font-size="10.00">parameter/LogarithmicParameter</text>
<text text-anchor="middle" x="584" y="-399.5" font-family="Verdana" font-size="10.00">Adaptation.cpp</text>
</g>
<!-- Node2 -->
<g id="node2" class="node"><title>Node2</title>
<g id="a_node2"><a xlink:href="LogarithmicParameterAdaptation_8h.html" target="_top" xlink:title="LogarithmicParameterAdaptation.h">
<polygon fill="white" stroke="black" points="316.5,-336.5 316.5,-355.5 501.5,-355.5 501.5,-336.5 316.5,-336.5"/>
<text text-anchor="middle" x="409" y="-343.5" font-family="Verdana" font-size="10.00">LogarithmicParameterAdaptation.h</text>
</a>
</g>
</g>
<!-- Node1&#45;&gt;Node2 -->
<g id="edge1" class="edge"><title>Node1&#45;&gt;Node2</title>
<path fill="none" stroke="midnightblue" d="M542.527,-392.399C512.42,-382.163 472.148,-368.47 443.73,-358.808"/>
<polygon fill="midnightblue" stroke="midnightblue" points="444.803,-355.476 434.209,-355.571 442.55,-362.104 444.803,-355.476"/>
</g>
<!-- Node15 -->
<g id="node15" class="node"><title>Node15</title>
<g id="a_node15"><a xlink:href="Utility_8h.html" target="_top" xlink:title="Utility.h">
<polygon fill="white" stroke="black" points="565.5,-168.5 565.5,-187.5 616.5,-187.5 616.5,-168.5 565.5,-168.5"/>
<text text-anchor="middle" x="591" y="-175.5" font-family="Verdana" font-size="10.00">Utility.h</text>
</a>
</g>
</g>
<!-- Node1&#45;&gt;Node15 -->
<g id="edge24" class="edge"><title>Node1&#45;&gt;Node15</title>
<path fill="none" stroke="midnightblue" d="M584.438,-392.269C585.649,-352.895 589.047,-242.487 590.416,-197.965"/>
<polygon fill="midnightblue" stroke="midnightblue" points="593.916,-198.03 590.725,-187.927 586.919,-197.815 593.916,-198.03"/>
</g>
<!-- Node18 -->
<g id="node18" class="node"><title>Node18</title>
<polygon fill="white" stroke="#bfbfbf" points="612.5,-336.5 612.5,-355.5 663.5,-355.5 663.5,-336.5 612.5,-336.5"/>
<text text-anchor="middle" x="638" y="-343.5" font-family="Verdana" font-size="10.00">math.h</text>
</g>
<!-- Node1&#45;&gt;Node18 -->
<g id="edge29" class="edge"><title>Node1&#45;&gt;Node18</title>
<path fill="none" stroke="midnightblue" d="M596.797,-392.399C604.725,-383.664 614.936,-372.413 623.21,-363.296"/>
<polygon fill="midnightblue" stroke="midnightblue" points="626.014,-365.415 630.143,-355.658 620.83,-360.711 626.014,-365.415"/>
</g>
<!-- Node3 -->
<g id="node3" class="node"><title>Node3</title>
<g id="a_node3"><a xlink:href="LinearParameterAdaptation_8h.html" target="_top" xlink:title="LinearParameterAdaptation.h">
<polygon fill="white" stroke="black" points="219,-280.5 219,-299.5 377,-299.5 377,-280.5 219,-280.5"/>
<text text-anchor="middle" x="298" y="-287.5" font-family="Verdana" font-size="10.00">LinearParameterAdaptation.h</text>
</a>
</g>
</g>
<!-- Node2&#45;&gt;Node3 -->
<g id="edge2" class="edge"><title>Node2&#45;&gt;Node3</title>
<path fill="none" stroke="midnightblue" d="M391.166,-336.324C373.284,-327.625 345.525,-314.12 324.954,-304.113"/>
<polygon fill="midnightblue" stroke="midnightblue" points="326.313,-300.882 315.79,-299.655 323.251,-307.177 326.313,-300.882"/>
</g>
<!-- Node4 -->
<g id="node4" class="node"><title>Node4</title>
<g id="a_node4"><a xlink:href="ParameterAdaptation_8h.html" target="_top" xlink:title="ParameterAdaptation.h">
<polygon fill="white" stroke="black" points="234,-224.5 234,-243.5 362,-243.5 362,-224.5 234,-224.5"/>
<text text-anchor="middle" x="298" y="-231.5" font-family="Verdana" font-size="10.00">ParameterAdaptation.h</text>
</a>
</g>
</g>
<!-- Node3&#45;&gt;Node4 -->
<g id="edge3" class="edge"><title>Node3&#45;&gt;Node4</title>
<path fill="none" stroke="midnightblue" d="M298,-280.083C298,-273.006 298,-262.861 298,-253.986"/>
<polygon fill="midnightblue" stroke="midnightblue" points="301.5,-253.751 298,-243.751 294.5,-253.751 301.5,-253.751"/>
</g>
<!-- Node6 -->
<g id="node6" class="node"><title>Node6</title>
<polygon fill="white" stroke="#bfbfbf" points="352,-0.5 352,-19.5 396,-19.5 396,-0.5 352,-0.5"/>
<text text-anchor="middle" x="374" y="-7.5" font-family="Verdana" font-size="10.00">string</text>
</g>
<!-- Node3&#45;&gt;Node6 -->
<g id="edge23" class="edge"><title>Node3&#45;&gt;Node6</title>
<path fill="none" stroke="midnightblue" d="M244.034,-280.451C158.159,-265.303 0,-230.426 0,-179 0,-179 0,-179 0,-121 0,-50.0377 250.944,-21.523 341.721,-13.5295"/>
<polygon fill="midnightblue" stroke="midnightblue" points="342.059,-17.0135 351.725,-12.6752 341.463,-10.0389 342.059,-17.0135"/>
</g>
<!-- Node5 -->
<g id="node5" class="node"><title>Node5</title>
<g id="a_node5"><a xlink:href="Element_8h.html" target="_top" xlink:title="Element.h">
<polygon fill="white" stroke="black" points="237.5,-168.5 237.5,-187.5 302.5,-187.5 302.5,-168.5 237.5,-168.5"/>
<text text-anchor="middle" x="270" y="-175.5" font-family="Verdana" font-size="10.00">Element.h</text>
</a>
</g>
</g>
<!-- Node4&#45;&gt;Node5 -->
<g id="edge4" class="edge"><title>Node4&#45;&gt;Node5</title>
<path fill="none" stroke="midnightblue" d="M293.376,-224.083C289.544,-216.691 283.976,-205.953 279.235,-196.811"/>
<polygon fill="midnightblue" stroke="midnightblue" points="282.248,-195.018 274.538,-187.751 276.034,-198.24 282.248,-195.018"/>
</g>
<!-- Node4&#45;&gt;Node6 -->
<g id="edge22" class="edge"><title>Node4&#45;&gt;Node6</title>
<path fill="none" stroke="midnightblue" d="M315.292,-224.487C352.928,-204.737 440.757,-151.646 464,-76 466.611,-67.5031 468.673,-63.5613 464,-56 451.429,-35.66 426.573,-24.2062 406.161,-17.9508"/>
<polygon fill="midnightblue" stroke="midnightblue" points="406.849,-14.5094 396.277,-15.2076 404.977,-21.2545 406.849,-14.5094"/>
</g>
<!-- Node5&#45;&gt;Node6 -->
<g id="edge5" class="edge"><title>Node5&#45;&gt;Node6</title>
<path fill="none" stroke="midnightblue" d="M302.763,-170.858C347.196,-160.436 423.797,-134.431 448,-76 451.402,-67.7877 452.357,-63.7481 448,-56 438.907,-39.8279 421.388,-28.7912 405.678,-21.6965"/>
<polygon fill="midnightblue" stroke="midnightblue" points="406.8,-18.3728 396.221,-17.7778 404.12,-24.8395 406.8,-18.3728"/>
</g>
<!-- Node7 -->
<g id="node7" class="node"><title>Node7</title>
<polygon fill="white" stroke="#bfbfbf" points="142.5,-56.5 142.5,-75.5 189.5,-75.5 189.5,-56.5 142.5,-56.5"/>
<text text-anchor="middle" x="166" y="-63.5" font-family="Verdana" font-size="10.00">vector</text>
</g>
<!-- Node5&#45;&gt;Node7 -->
<g id="edge6" class="edge"><title>Node5&#45;&gt;Node7</title>
<path fill="none" stroke="midnightblue" d="M257.929,-168.444C246.292,-159.902 228.507,-146.055 215,-132 200.52,-116.932 186.419,-97.5837 177.09,-83.9274"/>
<polygon fill="midnightblue" stroke="midnightblue" points="179.922,-81.8655 171.448,-75.505 174.106,-85.7612 179.922,-81.8655"/>
</g>
<!-- Node8 -->
<g id="node8" class="node"><title>Node8</title>
<polygon fill="white" stroke="#bfbfbf" points="49.5,-0.5 49.5,-19.5 102.5,-19.5 102.5,-0.5 49.5,-0.5"/>
<text text-anchor="middle" x="76" y="-7.5" font-family="Verdana" font-size="10.00">stdint.h</text>
</g>
<!-- Node5&#45;&gt;Node8 -->
<g id="edge7" class="edge"><title>Node5&#45;&gt;Node8</title>
<path fill="none" stroke="midnightblue" d="M237.272,-174.755C184.547,-170.381 84.5206,-158.702 63,-132 39.2285,-102.505 55.132,-54.9715 66.7961,-29.1349"/>
<polygon fill="midnightblue" stroke="midnightblue" points="70.1055,-30.327 71.2609,-19.7953 63.7901,-27.3078 70.1055,-30.327"/>
</g>
<!-- Node9 -->
<g id="node9" class="node"><title>Node9</title>
<polygon fill="white" stroke="#bfbfbf" points="533,-112.5 533,-131.5 563,-131.5 563,-112.5 533,-112.5"/>
<text text-anchor="middle" x="548" y="-119.5" font-family="Verdana" font-size="10.00">list</text>
</g>
<!-- Node5&#45;&gt;Node9 -->
<g id="edge8" class="edge"><title>Node5&#45;&gt;Node9</title>
<path fill="none" stroke="midnightblue" d="M302.708,-170.647C358.869,-159.738 472.454,-137.674 522.891,-127.877"/>
<polygon fill="midnightblue" stroke="midnightblue" points="523.777,-131.271 532.926,-125.928 522.442,-124.399 523.777,-131.271"/>
</g>
<!-- Node10 -->
<g id="node10" class="node"><title>Node10</title>
<g id="a_node10"><a xlink:href="XmlSink_8h.html" target="_top" xlink:title="XmlSink.h">
<polygon fill="white" stroke="black" points="224,-112.5 224,-131.5 288,-131.5 288,-112.5 224,-112.5"/>
<text text-anchor="middle" x="256" y="-119.5" font-family="Verdana" font-size="10.00">XmlSink.h</text>
</a>
</g>
</g>
<!-- Node5&#45;&gt;Node10 -->
<g id="edge9" class="edge"><title>Node5&#45;&gt;Node10</title>
<path fill="none" stroke="midnightblue" d="M267.688,-168.083C265.833,-160.927 263.165,-150.635 260.846,-141.691"/>
<polygon fill="midnightblue" stroke="midnightblue" points="264.166,-140.553 258.269,-131.751 257.391,-142.309 264.166,-140.553"/>
</g>
<!-- Node13 -->
<g id="node13" class="node"><title>Node13</title>
<g id="a_node13"><a xlink:href="XmlSource_8h.html" target="_top" xlink:title="XmlSource.h">
<polygon fill="white" stroke="black" points="306.5,-112.5 306.5,-131.5 383.5,-131.5 383.5,-112.5 306.5,-112.5"/>
<text text-anchor="middle" x="345" y="-119.5" font-family="Verdana" font-size="10.00">XmlSource.h</text>
</a>
</g>
</g>
<!-- Node5&#45;&gt;Node13 -->
<g id="edge15" class="edge"><title>Node5&#45;&gt;Node13</title>
<path fill="none" stroke="midnightblue" d="M282.05,-168.324C293.463,-160.107 310.831,-147.602 324.435,-137.807"/>
<polygon fill="midnightblue" stroke="midnightblue" points="326.66,-140.517 332.731,-131.834 322.57,-134.837 326.66,-140.517"/>
</g>
<!-- Node14 -->
<g id="node14" class="node"><title>Node14</title>
<g id="a_node14"><a xlink:href="PathNavigator_8h.html" target="_top" xlink:title="PathNavigator.h">
<polygon fill="white" stroke="black" points="72,-112.5 72,-131.5 164,-131.5 164,-112.5 72,-112.5"/>
<text text-anchor="middle" x="118" y="-119.5" font-family="Verdana" font-size="10.00">PathNavigator.h</text>
</a>
</g>
</g>
<!-- Node5&#45;&gt;Node14 -->
<g id="edge18" class="edge"><title>Node5&#45;&gt;Node14</title>
<path fill="none" stroke="midnightblue" d="M245.915,-168.444C220.455,-159.399 180.106,-145.064 151.541,-134.916"/>
<polygon fill="midnightblue" stroke="midnightblue" points="152.567,-131.566 141.972,-131.516 150.223,-138.162 152.567,-131.566"/>
</g>
<!-- Node11 -->
<g id="node11" class="node"><title>Node11</title>
<g id="a_node11"><a xlink:href="XmlElement_8h.html" target="_top" xlink:title="XmlElement.h">
<polygon fill="white" stroke="black" points="207.5,-56.5 207.5,-75.5 290.5,-75.5 290.5,-56.5 207.5,-56.5"/>
<text text-anchor="middle" x="249" y="-63.5" font-family="Verdana" font-size="10.00">XmlElement.h</text>
</a>
</g>
</g>
<!-- Node10&#45;&gt;Node11 -->
<g id="edge10" class="edge"><title>Node10&#45;&gt;Node11</title>
<path fill="none" stroke="midnightblue" d="M254.844,-112.083C253.916,-104.927 252.582,-94.6353 251.423,-85.6911"/>
<polygon fill="midnightblue" stroke="midnightblue" points="254.891,-85.2181 250.134,-75.7511 247.949,-86.1181 254.891,-85.2181"/>
</g>
<!-- Node12 -->
<g id="node12" class="node"><title>Node12</title>
<g id="a_node12"><a xlink:href="XmlSerializingContext_8h.html" target="_top" xlink:title="XmlSerializingContext.h">
<polygon fill="white" stroke="black" points="309,-56.5 309,-75.5 439,-75.5 439,-56.5 309,-56.5"/>
<text text-anchor="middle" x="374" y="-63.5" font-family="Verdana" font-size="10.00">XmlSerializingContext.h</text>
</a>
</g>
</g>
<!-- Node10&#45;&gt;Node12 -->
<g id="edge13" class="edge"><title>Node10&#45;&gt;Node12</title>
<path fill="none" stroke="midnightblue" d="M274.697,-112.444C293.944,-103.636 324.152,-89.8116 346.2,-79.722"/>
<polygon fill="midnightblue" stroke="midnightblue" points="347.753,-82.8603 355.39,-75.5164 344.84,-76.4951 347.753,-82.8603"/>
</g>
<!-- Node11&#45;&gt;Node6 -->
<g id="edge12" class="edge"><title>Node11&#45;&gt;Node6</title>
<path fill="none" stroke="midnightblue" d="M268.807,-56.4435C289.287,-47.5961 321.483,-33.6875 344.865,-23.5865"/>
<polygon fill="midnightblue" stroke="midnightblue" points="346.494,-26.6953 354.286,-19.5164 343.718,-20.2692 346.494,-26.6953"/>
</g>
<!-- Node11&#45;&gt;Node8 -->
<g id="edge11" class="edge"><title>Node11&#45;&gt;Node8</title>
<path fill="none" stroke="midnightblue" d="M221.588,-56.4435C192.058,-47.2262 144.93,-32.5157 112.331,-22.3402"/>
<polygon fill="midnightblue" stroke="midnightblue" points="113.304,-18.9776 102.716,-19.339 111.219,-25.6597 113.304,-18.9776"/>
</g>
<!-- Node12&#45;&gt;Node6 -->
<g id="edge14" class="edge"><title>Node12&#45;&gt;Node6</title>
<path fill="none" stroke="midnightblue" d="M374,-56.083C374,-49.0059 374,-38.8611 374,-29.9865"/>
<polygon fill="midnightblue" stroke="midnightblue" points="377.5,-29.751 374,-19.7511 370.5,-29.7511 377.5,-29.751"/>
</g>
<!-- Node13&#45;&gt;Node11 -->
<g id="edge16" class="edge"><title>Node13&#45;&gt;Node11</title>
<path fill="none" stroke="midnightblue" d="M329.576,-112.324C314.46,-103.822 291.185,-90.7288 273.529,-80.7975"/>
<polygon fill="midnightblue" stroke="midnightblue" points="274.817,-77.5066 264.386,-75.6545 271.386,-83.6077 274.817,-77.5066"/>
</g>
<!-- Node13&#45;&gt;Node12 -->
<g id="edge17" class="edge"><title>Node13&#45;&gt;Node12</title>
<path fill="none" stroke="midnightblue" d="M349.789,-112.083C353.758,-104.691 359.525,-93.9533 364.435,-84.8111"/>
<polygon fill="midnightblue" stroke="midnightblue" points="367.653,-86.217 369.3,-75.7511 361.486,-82.9051 367.653,-86.217"/>
</g>
<!-- Node14&#45;&gt;Node6 -->
<g id="edge20" class="edge"><title>Node14&#45;&gt;Node6</title>
<path fill="none" stroke="midnightblue" d="M117.263,-112.422C116.578,-98.4654 117.45,-70.9072 133,-56 162.431,-27.7855 282.778,-16.5984 341.486,-12.7547"/>
<polygon fill="midnightblue" stroke="midnightblue" points="341.931,-16.2339 351.694,-12.12 341.497,-9.24738 341.931,-16.2339"/>
</g>
<!-- Node14&#45;&gt;Node7 -->
<g id="edge19" class="edge"><title>Node14&#45;&gt;Node7</title>
<path fill="none" stroke="midnightblue" d="M125.926,-112.083C132.846,-104.298 143.065,-92.8015 151.452,-83.3665"/>
<polygon fill="midnightblue" stroke="midnightblue" points="154.194,-85.5505 158.221,-75.7511 148.962,-80.8999 154.194,-85.5505"/>
</g>
<!-- Node14&#45;&gt;Node8 -->
<g id="edge21" class="edge"><title>Node14&#45;&gt;Node8</title>
<path fill="none" stroke="midnightblue" d="M114.48,-112.4C110.801,-103.364 104.892,-88.723 100,-76 93.9959,-60.3862 87.4329,-42.5555 82.6899,-29.5236"/>
<polygon fill="midnightblue" stroke="midnightblue" points="85.885,-28.0677 79.186,-19.8595 79.3042,-30.4537 85.885,-28.0677"/>
</g>
<!-- Node15&#45;&gt;Node6 -->
<g id="edge25" class="edge"><title>Node15&#45;&gt;Node6</title>
<path fill="none" stroke="midnightblue" d="M589.825,-168.498C587.762,-155.581 582.653,-130.557 572,-112 554.939,-82.2806 548.09,-74.1133 519,-56 483.773,-34.0656 437.034,-22.0905 406.265,-16.1208"/>
<polygon fill="midnightblue" stroke="midnightblue" points="406.561,-12.6167 396.093,-14.2533 405.297,-19.5016 406.561,-12.6167"/>
</g>
<!-- Node15&#45;&gt;Node9 -->
<g id="edge26" class="edge"><title>Node15&#45;&gt;Node9</title>
<path fill="none" stroke="midnightblue" d="M583.899,-168.083C577.763,-160.377 568.73,-149.033 561.261,-139.653"/>
<polygon fill="midnightblue" stroke="midnightblue" points="563.936,-137.394 554.968,-131.751 558.46,-141.754 563.936,-137.394"/>
</g>
<!-- Node16 -->
<g id="node16" class="node"><title>Node16</title>
<polygon fill="white" stroke="#bfbfbf" points="619,-112.5 619,-131.5 657,-131.5 657,-112.5 619,-112.5"/>
<text text-anchor="middle" x="638" y="-119.5" font-family="Verdana" font-size="10.00">map</text>
</g>
<!-- Node15&#45;&gt;Node16 -->
<g id="edge27" class="edge"><title>Node15&#45;&gt;Node16</title>
<path fill="none" stroke="midnightblue" d="M598.761,-168.083C605.537,-160.298 615.543,-148.801 623.755,-139.367"/>
<polygon fill="midnightblue" stroke="midnightblue" points="626.458,-141.592 630.383,-131.751 621.178,-136.996 626.458,-141.592"/>
</g>
<!-- Node17 -->
<g id="node17" class="node"><title>Node17</title>
<polygon fill="white" stroke="#bfbfbf" points="675,-112.5 675,-131.5 731,-131.5 731,-112.5 675,-112.5"/>
<text text-anchor="middle" x="703" y="-119.5" font-family="Verdana" font-size="10.00">sstream</text>
</g>
<!-- Node15&#45;&gt;Node17 -->
<g id="edge28" class="edge"><title>Node15&#45;&gt;Node17</title>
<path fill="none" stroke="midnightblue" d="M608.995,-168.324C627.038,-159.625 655.047,-146.12 675.803,-136.113"/>
<polygon fill="midnightblue" stroke="midnightblue" points="677.562,-139.15 685.05,-131.655 674.522,-132.845 677.562,-139.15"/>
</g>
</g>
</svg>
