<?xml version="1.0" encoding="UTF-8" standalone="no"?>
<!DOCTYPE svg PUBLIC "-//W3C//DTD SVG 1.1//EN"
 "http://www.w3.org/Graphics/SVG/1.1/DTD/svg11.dtd">
<!-- Generated by graphviz version 2.38.0 (20140413.2041)
 -->
<!-- Title: parameter/log/include/log/LogWrapper.h Pages: 1 -->
<svg width="3188pt" height="441pt"
 viewBox="0.00 0.00 3188.00 441.00" xmlns="http://www.w3.org/2000/svg" xmlns:xlink="http://www.w3.org/1999/xlink">
<g id="graph0" class="graph" transform="scale(1 1) rotate(0) translate(4 437)">
<title>parameter/log/include/log/LogWrapper.h</title>
<polygon fill="white" stroke="none" points="-4,4 -4,-437 3184,-437 3184,4 -4,4"/>
<!-- Node1 -->
<g id="node1" class="node"><title>Node1</title>
<polygon fill="#bfbfbf" stroke="black" points="929,-402.5 929,-432.5 1051,-432.5 1051,-402.5 929,-402.5"/>
<text text-anchor="start" x="937" y="-420.5" font-family="Verdana" font-size="10.00">parameter/log/include</text>
<text text-anchor="middle" x="990" y="-409.5" font-family="Verdana" font-size="10.00">/log/LogWrapper.h</text>
</g>
<!-- Node2 -->
<g id="node2" class="node"><title>Node2</title>
<g id="a_node2"><a xlink:href="Logger_8h.html" target="_top" xlink:title="parameter/log/include\l/log/Logger.h">
<polygon fill="white" stroke="black" points="885,-335.5 885,-365.5 1007,-365.5 1007,-335.5 885,-335.5"/>
<text text-anchor="start" x="893" y="-353.5" font-family="Verdana" font-size="10.00">parameter/log/include</text>
<text text-anchor="middle" x="946" y="-342.5" font-family="Verdana" font-size="10.00">/log/Logger.h</text>
</a>
</g>
</g>
<!-- Node1&#45;&gt;Node2 -->
<g id="edge1" class="edge"><title>Node1&#45;&gt;Node2</title>
<path fill="none" stroke="midnightblue" d="M974.679,-393.867C968.311,-384.459 961.118,-373.833 955.529,-365.577"/>
<polygon fill="midnightblue" stroke="midnightblue" points="971.949,-396.077 980.453,-402.396 977.745,-392.153 971.949,-396.077"/>
</g>
<!-- Node27 -->
<g id="node27" class="node"><title>Node27</title>
<g id="a_node27"><a xlink:href="ParameterMgr_8h.html" target="_top" xlink:title="parameter/ParameterMgr.h">
<polygon fill="white" stroke="black" points="917.5,-207 917.5,-226 1064.5,-226 1064.5,-207 917.5,-207"/>
<text text-anchor="middle" x="991" y="-214" font-family="Verdana" font-size="10.00">parameter/ParameterMgr.h</text>
</a>
</g>
</g>
<!-- Node1&#45;&gt;Node27 -->
<g id="edge69" class="edge"><title>Node1&#45;&gt;Node27</title>
<path fill="none" stroke="midnightblue" d="M1004.77,-393.474C1009.31,-385.153 1013.71,-375.47 1016,-366 1026.26,-323.669 1025.92,-310.41 1016,-268 1012.34,-252.378 1003.11,-236.046 996.949,-226.326"/>
<polygon fill="midnightblue" stroke="midnightblue" points="1001.7,-391.801 999.701,-402.206 1007.75,-395.318 1001.7,-391.801"/>
</g>
<!-- Node3 -->
<g id="node3" class="node"><title>Node3</title>
<g id="a_node3"><a xlink:href="Subsystem_8h.html" target="_top" xlink:title="parameter/Subsystem.h">
<polygon fill="white" stroke="black" points="2335,-207 2335,-226 2469,-226 2469,-207 2335,-207"/>
<text text-anchor="middle" x="2402" y="-214" font-family="Verdana" font-size="10.00">parameter/Subsystem.h</text>
</a>
</g>
</g>
<!-- Node2&#45;&gt;Node3 -->
<g id="edge2" class="edge"><title>Node2&#45;&gt;Node3</title>
<path fill="none" stroke="midnightblue" d="M1017.23,-349.589C1186.09,-349.028 1623.74,-343.045 1986,-299 2129.01,-281.612 2296.54,-243.163 2367.48,-226.029"/>
<polygon fill="midnightblue" stroke="midnightblue" points="1017.21,-346.089 1007.22,-349.617 1017.23,-353.089 1017.21,-346.089"/>
</g>
<!-- Node16 -->
<g id="node16" class="node"><title>Node16</title>
<g id="a_node16"><a xlink:href="SelectionCriterion_8h.html" target="_top" xlink:title="parameter/SelectionCriterion.h">
<polygon fill="white" stroke="black" points="410,-274 410,-293 574,-293 574,-274 410,-274"/>
<text text-anchor="middle" x="492" y="-281" font-family="Verdana" font-size="10.00">parameter/SelectionCriterion.h</text>
</a>
</g>
</g>
<!-- Node2&#45;&gt;Node16 -->
<g id="edge17" class="edge"><title>Node2&#45;&gt;Node16</title>
<path fill="none" stroke="midnightblue" d="M874.754,-339.3C785.665,-326.545 634.766,-304.94 551.538,-293.024"/>
<polygon fill="midnightblue" stroke="midnightblue" points="874.376,-342.781 884.772,-340.734 875.369,-335.852 874.376,-342.781"/>
</g>
<!-- Node17 -->
<g id="node17" class="node"><title>Node17</title>
<g id="a_node17"><a xlink:href="SelectionCriteriaDefinition_8h.html" target="_top" xlink:title="parameter/SelectionCriteria\lDefinition.h">
<polygon fill="white" stroke="black" points="417.5,-201.5 417.5,-231.5 566.5,-231.5 566.5,-201.5 417.5,-201.5"/>
<text text-anchor="start" x="425.5" y="-219.5" font-family="Verdana" font-size="10.00">parameter/SelectionCriteria</text>
<text text-anchor="middle" x="492" y="-208.5" font-family="Verdana" font-size="10.00">Definition.h</text>
</a>
</g>
</g>
<!-- Node2&#45;&gt;Node17 -->
<g id="edge48" class="edge"><title>Node2&#45;&gt;Node17</title>
<path fill="none" stroke="midnightblue" d="M888.028,-332.645C797.568,-306.344 624.505,-256.026 540.346,-231.556"/>
<polygon fill="midnightblue" stroke="midnightblue" points="887.264,-336.068 897.844,-335.499 889.219,-329.346 887.264,-336.068"/>
</g>
<!-- Node30 -->
<g id="node30" class="node"><title>Node30</title>
<g id="a_node30"><a xlink:href="SelectionCriteria_8h.html" target="_top" xlink:title="parameter/SelectionCriteria.h">
<polygon fill="white" stroke="black" points="682,-207 682,-226 840,-226 840,-207 682,-207"/>
<text text-anchor="middle" x="761" y="-214" font-family="Verdana" font-size="10.00">parameter/SelectionCriteria.h</text>
</a>
</g>
</g>
<!-- Node2&#45;&gt;Node30 -->
<g id="edge67" class="edge"><title>Node2&#45;&gt;Node30</title>
<path fill="none" stroke="midnightblue" d="M917.982,-329.509C876.93,-300.218 802.158,-246.867 773.049,-226.097"/>
<polygon fill="midnightblue" stroke="midnightblue" points="916.029,-332.415 926.202,-335.374 920.094,-326.716 916.029,-332.415"/>
</g>
<!-- Node31 -->
<g id="node31" class="node"><title>Node31</title>
<g id="a_node31"><a xlink:href="SelectionCriterion_8cpp.html" target="_top" xlink:title="parameter/SelectionCriterion.cpp">
<polygon fill="white" stroke="black" points="0,-207 0,-226 176,-226 176,-207 0,-207"/>
<text text-anchor="middle" x="88" y="-214" font-family="Verdana" font-size="10.00">parameter/SelectionCriterion.cpp</text>
</a>
</g>
</g>
<!-- Node2&#45;&gt;Node31 -->
<g id="edge68" class="edge"><title>Node2&#45;&gt;Node31</title>
<path fill="none" stroke="midnightblue" d="M874.553,-346.58C769.943,-341.47 569.251,-328.499 401,-299 293.425,-280.139 168.636,-242.893 114.888,-226.085"/>
<polygon fill="midnightblue" stroke="midnightblue" points="874.523,-350.083 884.679,-347.065 874.857,-343.091 874.523,-350.083"/>
</g>
<!-- Node32 -->
<g id="node32" class="node"><title>Node32</title>
<g id="a_node32"><a xlink:href="SystemClass_8h.html" target="_top" xlink:title="parameter/SystemClass.h">
<polygon fill="white" stroke="black" points="1249,-207 1249,-226 1391,-226 1391,-207 1249,-207"/>
<text text-anchor="middle" x="1320" y="-214" font-family="Verdana" font-size="10.00">parameter/SystemClass.h</text>
</a>
</g>
</g>
<!-- Node2&#45;&gt;Node32 -->
<g id="edge49" class="edge"><title>Node2&#45;&gt;Node32</title>
<path fill="none" stroke="midnightblue" d="M995.156,-332.151C1076.19,-303.551 1234.88,-247.543 1295.58,-226.117"/>
<polygon fill="midnightblue" stroke="midnightblue" points="993.935,-328.87 985.67,-335.499 996.265,-335.471 993.935,-328.87"/>
</g>
<!-- Node33 -->
<g id="node33" class="node"><title>Node33</title>
<g id="a_node33"><a xlink:href="SubsystemObject_8h.html" target="_top" xlink:title="parameter/SubsystemObject.h">
<polygon fill="white" stroke="black" points="1813,-274 1813,-293 1977,-293 1977,-274 1813,-274"/>
<text text-anchor="middle" x="1895" y="-281" font-family="Verdana" font-size="10.00">parameter/SubsystemObject.h</text>
</a>
</g>
</g>
<!-- Node2&#45;&gt;Node33 -->
<g id="edge53" class="edge"><title>Node2&#45;&gt;Node33</title>
<path fill="none" stroke="midnightblue" d="M1017.16,-344.626C1189.68,-332.809 1629.51,-302.684 1812.84,-290.128"/>
<polygon fill="midnightblue" stroke="midnightblue" points="1016.91,-341.135 1007.17,-345.31 1017.39,-348.119 1016.91,-341.135"/>
</g>
<!-- Node39 -->
<g id="node39" class="node"><title>Node39</title>
<g id="a_node39"><a xlink:href="Context_8h.html" target="_top" xlink:title="parameter/log/include\l/log/Context.h">
<polygon fill="white" stroke="black" points="885,-268.5 885,-298.5 1007,-298.5 1007,-268.5 885,-268.5"/>
<text text-anchor="start" x="893" y="-286.5" font-family="Verdana" font-size="10.00">parameter/log/include</text>
<text text-anchor="middle" x="946" y="-275.5" font-family="Verdana" font-size="10.00">/log/Context.h</text>
</a>
</g>
</g>
<!-- Node2&#45;&gt;Node39 -->
<g id="edge61" class="edge"><title>Node2&#45;&gt;Node39</title>
<path fill="none" stroke="midnightblue" d="M946,-325.108C946,-316.154 946,-306.323 946,-298.577"/>
<polygon fill="midnightblue" stroke="midnightblue" points="942.5,-325.396 946,-335.396 949.5,-325.396 942.5,-325.396"/>
</g>
<!-- Node40 -->
<g id="node40" class="node"><title>Node40</title>
<g id="a_node40"><a xlink:href="LoggingElementBuilderTemplate_8h.html" target="_top" xlink:title="parameter/LoggingElement\lBuilderTemplate.h">
<polygon fill="white" stroke="black" points="2936,-134.5 2936,-164.5 3084,-164.5 3084,-134.5 2936,-134.5"/>
<text text-anchor="start" x="2944" y="-152.5" font-family="Verdana" font-size="10.00">parameter/LoggingElement</text>
<text text-anchor="middle" x="3010" y="-141.5" font-family="Verdana" font-size="10.00">BuilderTemplate.h</text>
</a>
</g>
</g>
<!-- Node2&#45;&gt;Node40 -->
<g id="edge63" class="edge"><title>Node2&#45;&gt;Node40</title>
<path fill="none" stroke="midnightblue" d="M1017.21,-349.206C1197.55,-347.844 1686.78,-340.305 2092,-299 2411.42,-266.441 2788.57,-194.849 2940.98,-164.519"/>
<polygon fill="midnightblue" stroke="midnightblue" points="1017.03,-345.707 1007.06,-349.278 1017.08,-352.707 1017.03,-345.707"/>
</g>
<!-- Node4 -->
<g id="node4" class="node"><title>Node4</title>
<g id="a_node4"><a xlink:href="BitwiseAreaConfiguration_8cpp.html" target="_top" xlink:title="parameter/BitwiseAreaConfiguration.cpp">
<polygon fill="white" stroke="black" points="2488,-140 2488,-159 2698,-159 2698,-140 2488,-140"/>
<text text-anchor="middle" x="2593" y="-147" font-family="Verdana" font-size="10.00">parameter/BitwiseAreaConfiguration.cpp</text>
</a>
</g>
</g>
<!-- Node3&#45;&gt;Node4 -->
<g id="edge3" class="edge"><title>Node3&#45;&gt;Node4</title>
<path fill="none" stroke="midnightblue" d="M2436.96,-203.601C2474.83,-190.714 2534.31,-170.473 2567.84,-159.064"/>
<polygon fill="midnightblue" stroke="midnightblue" points="2435.7,-200.333 2427.36,-206.869 2437.96,-206.96 2435.7,-200.333"/>
</g>
<!-- Node5 -->
<g id="node5" class="node"><title>Node5</title>
<g id="a_node5"><a xlink:href="DomainConfiguration_8cpp.html" target="_top" xlink:title="parameter/DomainConfiguration.cpp">
<polygon fill="white" stroke="black" points="911,-6 911,-25 1103,-25 1103,-6 911,-6"/>
<text text-anchor="middle" x="1007" y="-13" font-family="Verdana" font-size="10.00">parameter/DomainConfiguration.cpp</text>
</a>
</g>
</g>
<!-- Node3&#45;&gt;Node5 -->
<g id="edge4" class="edge"><title>Node3&#45;&gt;Node5</title>
<path fill="none" stroke="midnightblue" d="M2479.44,-213.691C2560.01,-209.98 2678.37,-198.76 2707,-165 2715.91,-154.492 2715.4,-144.918 2707,-134 2668.86,-84.4523 2631.02,-115.523 2571,-98 2527.55,-85.3163 2518.59,-74.7404 2474,-67 2209.34,-21.0601 1385.75,-16.5364 1103.25,-16.3708"/>
<polygon fill="midnightblue" stroke="midnightblue" points="2479.16,-210.2 2469.32,-214.127 2479.46,-217.194 2479.16,-210.2"/>
</g>
<!-- Node6 -->
<g id="node6" class="node"><title>Node6</title>
<g id="a_node6"><a xlink:href="ParameterHandle_8cpp.html" target="_top" xlink:title="parameter/ParameterHandle.cpp">
<polygon fill="white" stroke="black" points="1283.5,-140 1283.5,-159 1458.5,-159 1458.5,-140 1283.5,-140"/>
<text text-anchor="middle" x="1371" y="-147" font-family="Verdana" font-size="10.00">parameter/ParameterHandle.cpp</text>
</a>
</g>
</g>
<!-- Node3&#45;&gt;Node6 -->
<g id="edge5" class="edge"><title>Node3&#45;&gt;Node6</title>
<path fill="none" stroke="midnightblue" d="M2324.89,-211.604C2174.58,-203.869 1831.9,-185.534 1544,-165 1516.19,-163.017 1485.89,-160.573 1458.53,-158.262"/>
<polygon fill="midnightblue" stroke="midnightblue" points="2324.77,-215.103 2334.94,-212.121 2325.13,-208.112 2324.77,-215.103"/>
</g>
<!-- Node7 -->
<g id="node7" class="node"><title>Node7</title>
<g id="a_node7"><a xlink:href="VirtualSubsystem_8h.html" target="_top" xlink:title="parameter/VirtualSubsystem.h">
<polygon fill="white" stroke="black" points="2754,-140 2754,-159 2918,-159 2918,-140 2754,-140"/>
<text text-anchor="middle" x="2836" y="-147" font-family="Verdana" font-size="10.00">parameter/VirtualSubsystem.h</text>
</a>
</g>
</g>
<!-- Node3&#45;&gt;Node7 -->
<g id="edge6" class="edge"><title>Node3&#45;&gt;Node7</title>
<path fill="none" stroke="midnightblue" d="M2469.3,-205.478C2537.51,-195.311 2646.1,-179.106 2740,-165 2752.83,-163.072 2766.63,-160.992 2779.66,-159.026"/>
<polygon fill="midnightblue" stroke="midnightblue" points="2468.49,-202.059 2459.12,-206.995 2469.52,-208.982 2468.49,-202.059"/>
</g>
<!-- Node9 -->
<g id="node9" class="node"><title>Node9</title>
<g id="a_node9"><a xlink:href="ParameterMgr_8cpp.html" target="_top" xlink:title="parameter/ParameterMgr.cpp">
<polygon fill="white" stroke="black" points="735,-6 735,-25 893,-25 893,-6 735,-6"/>
<text text-anchor="middle" x="814" y="-13" font-family="Verdana" font-size="10.00">parameter/ParameterMgr.cpp</text>
</a>
</g>
</g>
<!-- Node3&#45;&gt;Node9 -->
<g id="edge14" class="edge"><title>Node3&#45;&gt;Node9</title>
<path fill="none" stroke="midnightblue" d="M2419.51,-199.575C2436.98,-181.812 2458.84,-153.074 2441,-134 2323.93,-8.8334 1072.25,-50.6768 902,-31 888.464,-29.4356 873.836,-27.2333 860.466,-25.0166"/>
<polygon fill="midnightblue" stroke="midnightblue" points="2416.7,-197.42 2411.95,-206.89 2421.57,-202.45 2416.7,-197.42"/>
</g>
<!-- Node14 -->
<g id="node14" class="node"><title>Node14</title>
<g id="a_node14"><a xlink:href="Subsystem_8cpp.html" target="_top" xlink:title="parameter/Subsystem.cpp">
<polygon fill="white" stroke="black" points="2092.5,-140 2092.5,-159 2237.5,-159 2237.5,-140 2092.5,-140"/>
<text text-anchor="middle" x="2165" y="-147" font-family="Verdana" font-size="10.00">parameter/Subsystem.cpp</text>
</a>
</g>
</g>
<!-- Node3&#45;&gt;Node14 -->
<g id="edge15" class="edge"><title>Node3&#45;&gt;Node14</title>
<path fill="none" stroke="midnightblue" d="M2360.7,-204.172C2313.83,-191.319 2238.44,-170.643 2196.22,-159.064"/>
<polygon fill="midnightblue" stroke="midnightblue" points="2359.96,-207.599 2370.53,-206.869 2361.81,-200.848 2359.96,-207.599"/>
</g>
<!-- Node15 -->
<g id="node15" class="node"><title>Node15</title>
<g id="a_node15"><a xlink:href="SubsystemObject_8cpp.html" target="_top" xlink:title="parameter/SubsystemObject.cpp">
<polygon fill="white" stroke="black" points="2256,-140 2256,-159 2432,-159 2432,-140 2256,-140"/>
<text text-anchor="middle" x="2344" y="-147" font-family="Verdana" font-size="10.00">parameter/SubsystemObject.cpp</text>
</a>
</g>
</g>
<!-- Node3&#45;&gt;Node15 -->
<g id="edge16" class="edge"><title>Node3&#45;&gt;Node15</title>
<path fill="none" stroke="midnightblue" d="M2387.4,-199.135C2376.05,-186.423 2360.77,-169.298 2351.7,-159.127"/>
<polygon fill="midnightblue" stroke="midnightblue" points="2384.91,-201.603 2394.18,-206.734 2390.13,-196.942 2384.91,-201.603"/>
</g>
<!-- Node8 -->
<g id="node8" class="node"><title>Node8</title>
<g id="a_node8"><a xlink:href="SubsystemLibrary_8h.html" target="_top" xlink:title="parameter/SubsystemLibrary.h">
<polygon fill="white" stroke="black" points="2812,-73 2812,-92 2976,-92 2976,-73 2812,-73"/>
<text text-anchor="middle" x="2894" y="-80" font-family="Verdana" font-size="10.00">parameter/SubsystemLibrary.h</text>
</a>
</g>
</g>
<!-- Node7&#45;&gt;Node8 -->
<g id="edge7" class="edge"><title>Node7&#45;&gt;Node8</title>
<path fill="none" stroke="midnightblue" d="M2850.6,-132.135C2861.95,-119.423 2877.23,-102.298 2886.3,-92.1273"/>
<polygon fill="midnightblue" stroke="midnightblue" points="2847.87,-129.942 2843.82,-139.734 2853.09,-134.603 2847.87,-129.942"/>
</g>
<!-- Node12 -->
<g id="node12" class="node"><title>Node12</title>
<g id="a_node12"><a xlink:href="SystemClass_8cpp.html" target="_top" xlink:title="parameter/SystemClass.cpp">
<polygon fill="white" stroke="black" points="2687.5,-6 2687.5,-25 2840.5,-25 2840.5,-6 2687.5,-6"/>
<text text-anchor="middle" x="2764" y="-13" font-family="Verdana" font-size="10.00">parameter/SystemClass.cpp</text>
</a>
</g>
</g>
<!-- Node7&#45;&gt;Node12 -->
<g id="edge12" class="edge"><title>Node7&#45;&gt;Node12</title>
<path fill="none" stroke="midnightblue" d="M2824.09,-131.509C2817.54,-121.874 2809.46,-109.482 2803,-98 2788.54,-72.3002 2774.28,-40.3935 2767.73,-25.2564"/>
<polygon fill="midnightblue" stroke="midnightblue" points="2821.23,-133.536 2829.79,-139.782 2827,-129.562 2821.23,-133.536"/>
</g>
<!-- Node13 -->
<g id="node13" class="node"><title>Node13</title>
<g id="a_node13"><a xlink:href="VirtualSubsystem_8cpp.html" target="_top" xlink:title="parameter/VirtualSubsystem.cpp">
<polygon fill="white" stroke="black" points="2580,-73 2580,-92 2756,-92 2756,-73 2580,-73"/>
<text text-anchor="middle" x="2668" y="-80" font-family="Verdana" font-size="10.00">parameter/VirtualSubsystem.cpp</text>
</a>
</g>
</g>
<!-- Node7&#45;&gt;Node13 -->
<g id="edge13" class="edge"><title>Node7&#45;&gt;Node13</title>
<path fill="none" stroke="midnightblue" d="M2803.96,-136.104C2770.61,-123.198 2719.25,-103.327 2690.13,-92.0637"/>
<polygon fill="midnightblue" stroke="midnightblue" points="2803.1,-139.524 2813.69,-139.869 2805.63,-132.996 2803.1,-139.524"/>
</g>
<!-- Node8&#45;&gt;Node9 -->
<g id="edge8" class="edge"><title>Node8&#45;&gt;Node9</title>
<path fill="none" stroke="midnightblue" d="M2818.61,-71.8396C2801.04,-69.9182 2782.39,-68.1428 2765,-67 1938.63,-12.6895 1726.7,-106.516 902,-31 887.66,-29.6869 872.125,-27.4143 858.156,-25.0525"/>
<polygon fill="midnightblue" stroke="midnightblue" points="2818.48,-75.3472 2828.81,-72.9842 2819.26,-68.3908 2818.48,-75.3472"/>
</g>
<!-- Node10 -->
<g id="node10" class="node"><title>Node10</title>
<g id="a_node10"><a xlink:href="Plugin_8h.html" target="_top" xlink:title="This file is intended to be used by the plugins. ">
<polygon fill="white" stroke="black" points="2859,-6 2859,-25 2967,-25 2967,-6 2859,-6"/>
<text text-anchor="middle" x="2913" y="-13" font-family="Verdana" font-size="10.00">parameter/Plugin.h</text>
</a>
</g>
</g>
<!-- Node8&#45;&gt;Node10 -->
<g id="edge9" class="edge"><title>Node8&#45;&gt;Node10</title>
<path fill="none" stroke="midnightblue" d="M2899.43,-62.9145C2903.06,-50.4883 2907.68,-34.7166 2910.48,-25.1273"/>
<polygon fill="midnightblue" stroke="midnightblue" points="2896.01,-62.1535 2896.56,-72.7338 2902.73,-64.1175 2896.01,-62.1535"/>
</g>
<!-- Node11 -->
<g id="node11" class="node"><title>Node11</title>
<g id="a_node11"><a xlink:href="SubsystemElementBuilder_8cpp.html" target="_top" xlink:title="parameter/SubsystemElement\lBuilder.cpp">
<polygon fill="white" stroke="black" points="2985,-0.5 2985,-30.5 3149,-30.5 3149,-0.5 2985,-0.5"/>
<text text-anchor="start" x="2993" y="-18.5" font-family="Verdana" font-size="10.00">parameter/SubsystemElement</text>
<text text-anchor="middle" x="3067" y="-7.5" font-family="Verdana" font-size="10.00">Builder.cpp</text>
</a>
</g>
</g>
<!-- Node8&#45;&gt;Node11 -->
<g id="edge10" class="edge"><title>Node8&#45;&gt;Node11</title>
<path fill="none" stroke="midnightblue" d="M2926.35,-69.3465C2955.67,-58.3289 2998.88,-42.0927 3029.66,-30.5281"/>
<polygon fill="midnightblue" stroke="midnightblue" points="2925.1,-66.0749 2916.97,-72.8685 2927.57,-72.6276 2925.1,-66.0749"/>
</g>
<!-- Node8&#45;&gt;Node12 -->
<g id="edge11" class="edge"><title>Node8&#45;&gt;Node12</title>
<path fill="none" stroke="midnightblue" d="M2867.55,-68.2739C2841.8,-55.3999 2803.42,-36.2086 2781.33,-25.1672"/>
<polygon fill="midnightblue" stroke="midnightblue" points="2866.23,-71.5268 2876.74,-72.8685 2869.36,-65.2658 2866.23,-71.5268"/>
</g>
<!-- Node16&#45;&gt;Node17 -->
<g id="edge18" class="edge"><title>Node16&#45;&gt;Node17</title>
<path fill="none" stroke="midnightblue" d="M492,-263.411C492,-253.222 492,-240.901 492,-231.589"/>
<polygon fill="midnightblue" stroke="midnightblue" points="488.5,-263.734 492,-273.734 495.5,-263.734 488.5,-263.734"/>
</g>
<!-- Node24 -->
<g id="node24" class="node"><title>Node24</title>
<g id="a_node24"><a xlink:href="SelectionCriterionRule_8cpp.html" target="_top" xlink:title="parameter/SelectionCriterion\lRule.cpp">
<polygon fill="white" stroke="black" points="118.5,-67.5 118.5,-97.5 273.5,-97.5 273.5,-67.5 118.5,-67.5"/>
<text text-anchor="start" x="126.5" y="-85.5" font-family="Verdana" font-size="10.00">parameter/SelectionCriterion</text>
<text text-anchor="middle" x="196" y="-74.5" font-family="Verdana" font-size="10.00">Rule.cpp</text>
</a>
</g>
</g>
<!-- Node16&#45;&gt;Node24 -->
<g id="edge47" class="edge"><title>Node16&#45;&gt;Node24</title>
<path fill="none" stroke="midnightblue" d="M431.576,-271.801C370.176,-257.795 276.563,-227.289 222,-165 205.07,-145.673 199.148,-115.248 197.088,-97.5511"/>
<polygon fill="midnightblue" stroke="midnightblue" points="431,-275.258 441.519,-273.989 432.505,-268.421 431,-275.258"/>
</g>
<!-- Node26 -->
<g id="node26" class="node"><title>Node26</title>
<g id="a_node26"><a xlink:href="SelectionCriteriaDefinition_8cpp.html" target="_top" xlink:title="parameter/SelectionCriteria\lDefinition.cpp">
<polygon fill="white" stroke="black" points="231.5,-134.5 231.5,-164.5 380.5,-164.5 380.5,-134.5 231.5,-134.5"/>
<text text-anchor="start" x="239.5" y="-152.5" font-family="Verdana" font-size="10.00">parameter/SelectionCriteria</text>
<text text-anchor="middle" x="306" y="-141.5" font-family="Verdana" font-size="10.00">Definition.cpp</text>
</a>
</g>
</g>
<!-- Node16&#45;&gt;Node26 -->
<g id="edge45" class="edge"><title>Node16&#45;&gt;Node26</title>
<path fill="none" stroke="midnightblue" d="M467.649,-269.006C450.586,-259.276 427.448,-245.526 408,-232 376.552,-210.127 342.173,-181.615 322.438,-164.762"/>
<polygon fill="midnightblue" stroke="midnightblue" points="466.012,-272.101 476.441,-273.97 469.454,-266.006 466.012,-272.101"/>
</g>
<!-- Node16&#45;&gt;Node27 -->
<g id="edge37" class="edge"><title>Node16&#45;&gt;Node27</title>
<path fill="none" stroke="midnightblue" d="M567.571,-272.656C665.063,-259.957 833.064,-238.073 925.427,-226.042"/>
<polygon fill="midnightblue" stroke="midnightblue" points="566.956,-269.207 557.492,-273.969 567.86,-276.148 566.956,-269.207"/>
</g>
<!-- Node16&#45;&gt;Node30 -->
<g id="edge42" class="edge"><title>Node16&#45;&gt;Node30</title>
<path fill="none" stroke="midnightblue" d="M537.258,-271.564C590.289,-258.75 677.052,-237.785 725.478,-226.083"/>
<polygon fill="midnightblue" stroke="midnightblue" points="536.342,-268.185 527.444,-273.936 537.986,-274.989 536.342,-268.185"/>
</g>
<!-- Node16&#45;&gt;Node31 -->
<g id="edge46" class="edge"><title>Node16&#45;&gt;Node31</title>
<path fill="none" stroke="midnightblue" d="M428.432,-272.272C349.149,-259.517 215.047,-237.941 141.028,-226.032"/>
<polygon fill="midnightblue" stroke="midnightblue" points="428.34,-275.803 438.769,-273.936 429.452,-268.891 428.34,-275.803"/>
</g>
<!-- Node17&#45;&gt;Node9 -->
<g id="edge33" class="edge"><title>Node17&#45;&gt;Node9</title>
<path fill="none" stroke="midnightblue" d="M475.243,-192.901C465.016,-176.159 455.564,-153.045 465,-134 486.824,-89.9536 508.134,-87.0859 553,-67 587.963,-51.3475 687.326,-34.7605 752.87,-25.0324"/>
<polygon fill="midnightblue" stroke="midnightblue" points="472.468,-195.051 480.889,-201.48 478.315,-191.203 472.468,-195.051"/>
</g>
<!-- Node18 -->
<g id="node18" class="node"><title>Node18</title>
<g id="a_node18"><a xlink:href="XmlDomainImportContext_8h.html" target="_top" xlink:title="parameter/XmlDomainImport\lContext.h">
<polygon fill="white" stroke="black" points="662,-134.5 662,-164.5 820,-164.5 820,-134.5 662,-134.5"/>
<text text-anchor="start" x="670" y="-152.5" font-family="Verdana" font-size="10.00">parameter/XmlDomainImport</text>
<text text-anchor="middle" x="741" y="-141.5" font-family="Verdana" font-size="10.00">Context.h</text>
</a>
</g>
</g>
<!-- Node17&#45;&gt;Node18 -->
<g id="edge19" class="edge"><title>Node17&#45;&gt;Node18</title>
<path fill="none" stroke="midnightblue" d="M555.525,-198.917C596.159,-188.31 648.3,-174.699 686.944,-164.611"/>
<polygon fill="midnightblue" stroke="midnightblue" points="554.514,-195.564 545.723,-201.476 556.283,-202.337 554.514,-195.564"/>
</g>
<!-- Node17&#45;&gt;Node24 -->
<g id="edge36" class="edge"><title>Node17&#45;&gt;Node24</title>
<path fill="none" stroke="midnightblue" d="M467.08,-194.899C439.439,-172.19 397.59,-138.284 389,-134 353.047,-116.068 310.049,-104.018 273.773,-96.2016"/>
<polygon fill="midnightblue" stroke="midnightblue" points="464.859,-197.604 474.804,-201.257 469.308,-192.199 464.859,-197.604"/>
</g>
<!-- Node25 -->
<g id="node25" class="node"><title>Node25</title>
<g id="a_node25"><a xlink:href="SelectionCriteria_8cpp.html" target="_top" xlink:title="parameter/SelectionCriteria.cpp">
<polygon fill="white" stroke="black" points="474,-140 474,-159 644,-159 644,-140 474,-140"/>
<text text-anchor="middle" x="559" y="-147" font-family="Verdana" font-size="10.00">parameter/SelectionCriteria.cpp</text>
</a>
</g>
</g>
<!-- Node17&#45;&gt;Node25 -->
<g id="edge34" class="edge"><title>Node17&#45;&gt;Node25</title>
<path fill="none" stroke="midnightblue" d="M513.816,-194.335C526.117,-182.401 540.821,-168.136 550.038,-159.195"/>
<polygon fill="midnightblue" stroke="midnightblue" points="511.278,-191.921 506.538,-201.396 516.153,-196.945 511.278,-191.921"/>
</g>
<!-- Node17&#45;&gt;Node26 -->
<g id="edge35" class="edge"><title>Node17&#45;&gt;Node26</title>
<path fill="none" stroke="midnightblue" d="M442.185,-198.092C412.16,-187.599 374.414,-174.408 346.28,-164.577"/>
<polygon fill="midnightblue" stroke="midnightblue" points="441.046,-201.401 451.641,-201.396 443.355,-194.793 441.046,-201.401"/>
</g>
<!-- Node18&#45;&gt;Node5 -->
<g id="edge30" class="edge"><title>Node18&#45;&gt;Node5</title>
<path fill="none" stroke="midnightblue" d="M778.724,-129.78C837.148,-100.787 947.208,-46.171 989.675,-25.0973"/>
<polygon fill="midnightblue" stroke="midnightblue" points="776.869,-126.793 769.467,-134.374 779.98,-133.064 776.869,-126.793"/>
</g>
<!-- Node18&#45;&gt;Node9 -->
<g id="edge31" class="edge"><title>Node18&#45;&gt;Node9</title>
<path fill="none" stroke="midnightblue" d="M753.726,-125.489C770.21,-95.6826 798.144,-45.1716 809.245,-25.0973"/>
<polygon fill="midnightblue" stroke="midnightblue" points="750.589,-123.929 748.812,-134.374 756.715,-127.317 750.589,-123.929"/>
</g>
<!-- Node19 -->
<g id="node19" class="node"><title>Node19</title>
<g id="a_node19"><a xlink:href="ConfigurableDomain_8h.html" target="_top" xlink:title="parameter/ConfigurableDomain.h">
<polygon fill="white" stroke="black" points="291.5,-73 291.5,-92 468.5,-92 468.5,-73 291.5,-73"/>
<text text-anchor="middle" x="380" y="-80" font-family="Verdana" font-size="10.00">parameter/ConfigurableDomain.h</text>
</a>
</g>
</g>
<!-- Node18&#45;&gt;Node19 -->
<g id="edge20" class="edge"><title>Node18&#45;&gt;Node19</title>
<path fill="none" stroke="midnightblue" d="M653.259,-132.702C582.134,-119.895 484.624,-102.338 427.367,-92.0287"/>
<polygon fill="midnightblue" stroke="midnightblue" points="652.651,-136.148 663.113,-134.476 653.891,-129.259 652.651,-136.148"/>
</g>
<!-- Node20 -->
<g id="node20" class="node"><title>Node20</title>
<g id="a_node20"><a xlink:href="ConfigurableDomain_8cpp.html" target="_top" xlink:title="parameter/ConfigurableDomain.cpp">
<polygon fill="white" stroke="black" points="494,-6 494,-25 682,-25 682,-6 494,-6"/>
<text text-anchor="middle" x="588" y="-13" font-family="Verdana" font-size="10.00">parameter/ConfigurableDomain.cpp</text>
</a>
</g>
</g>
<!-- Node18&#45;&gt;Node20 -->
<g id="edge29" class="edge"><title>Node18&#45;&gt;Node20</title>
<path fill="none" stroke="midnightblue" d="M663.245,-132.265C614.717,-121.345 560.131,-107.299 553,-98 535.102,-74.6604 563.394,-40.7804 578.915,-25.0804"/>
<polygon fill="midnightblue" stroke="midnightblue" points="662.65,-135.718 673.171,-134.475 664.171,-128.885 662.65,-135.718"/>
</g>
<!-- Node23 -->
<g id="node23" class="node"><title>Node23</title>
<g id="a_node23"><a xlink:href="DomainConfiguration_8h.html" target="_top" xlink:title="parameter/DomainConfiguration.h">
<polygon fill="white" stroke="black" points="562.5,-73 562.5,-92 743.5,-92 743.5,-73 562.5,-73"/>
<text text-anchor="middle" x="653" y="-80" font-family="Verdana" font-size="10.00">parameter/DomainConfiguration.h</text>
</a>
</g>
</g>
<!-- Node18&#45;&gt;Node23 -->
<g id="edge25" class="edge"><title>Node18&#45;&gt;Node23</title>
<path fill="none" stroke="midnightblue" d="M713.66,-128.306C697.135,-116.1 676.932,-101.177 664.517,-92.007"/>
<polygon fill="midnightblue" stroke="midnightblue" points="711.782,-131.27 721.905,-134.396 715.941,-125.639 711.782,-131.27"/>
</g>
<!-- Node18&#45;&gt;Node24 -->
<g id="edge32" class="edge"><title>Node18&#45;&gt;Node24</title>
<path fill="none" stroke="midnightblue" d="M651.885,-133.913C487.028,-112.794 443.017,-119.359 282,-98 279.298,-97.6416 276.551,-97.2619 273.779,-96.8657"/>
<polygon fill="midnightblue" stroke="midnightblue" points="651.516,-137.394 661.883,-135.208 652.415,-130.452 651.516,-137.394"/>
</g>
<!-- Node19&#45;&gt;Node9 -->
<g id="edge24" class="edge"><title>Node19&#45;&gt;Node9</title>
<path fill="none" stroke="midnightblue" d="M447.249,-71.4282C532.282,-58.6928 677.195,-36.9893 757.034,-25.0317"/>
<polygon fill="midnightblue" stroke="midnightblue" points="446.555,-67.9929 437.184,-72.9355 447.592,-74.9157 446.555,-67.9929"/>
</g>
<!-- Node19&#45;&gt;Node20 -->
<g id="edge21" class="edge"><title>Node19&#45;&gt;Node20</title>
<path fill="none" stroke="midnightblue" d="M417.289,-69.8471C458.488,-56.9725 523.854,-36.5456 560.596,-25.0637"/>
<polygon fill="midnightblue" stroke="midnightblue" points="416.122,-66.545 407.621,-72.8685 418.21,-73.2264 416.122,-66.545"/>
</g>
<!-- Node21 -->
<g id="node21" class="node"><title>Node21</title>
<g id="a_node21"><a xlink:href="ConfigurableDomains_8cpp.html" target="_top" xlink:title="parameter/ConfigurableDomains.cpp">
<polygon fill="white" stroke="black" points="72,-6 72,-25 266,-25 266,-6 72,-6"/>
<text text-anchor="middle" x="169" y="-13" font-family="Verdana" font-size="10.00">parameter/ConfigurableDomains.cpp</text>
</a>
</g>
</g>
<!-- Node19&#45;&gt;Node21 -->
<g id="edge22" class="edge"><title>Node19&#45;&gt;Node21</title>
<path fill="none" stroke="midnightblue" d="M342.173,-69.8471C300.38,-56.9725 234.071,-36.5456 196.799,-25.0637"/>
<polygon fill="midnightblue" stroke="midnightblue" points="341.394,-73.2693 351.981,-72.8685 343.454,-66.5795 341.394,-73.2693"/>
</g>
<!-- Node22 -->
<g id="node22" class="node"><title>Node22</title>
<g id="a_node22"><a xlink:href="ConfigurableElement_8cpp.html" target="_top" xlink:title="parameter/ConfigurableElement.cpp">
<polygon fill="white" stroke="black" points="284.5,-6 284.5,-25 475.5,-25 475.5,-6 284.5,-6"/>
<text text-anchor="middle" x="380" y="-13" font-family="Verdana" font-size="10.00">parameter/ConfigurableElement.cpp</text>
</a>
</g>
</g>
<!-- Node19&#45;&gt;Node22 -->
<g id="edge23" class="edge"><title>Node19&#45;&gt;Node22</title>
<path fill="none" stroke="midnightblue" d="M380,-62.537C380,-50.1703 380,-34.6198 380,-25.1273"/>
<polygon fill="midnightblue" stroke="midnightblue" points="376.5,-62.7338 380,-72.7338 383.5,-62.7338 376.5,-62.7338"/>
</g>
<!-- Node23&#45;&gt;Node5 -->
<g id="edge27" class="edge"><title>Node23&#45;&gt;Node5</title>
<path fill="none" stroke="midnightblue" d="M709.554,-71.1158C779.13,-58.3406 895.942,-36.892 960.535,-25.0317"/>
<polygon fill="midnightblue" stroke="midnightblue" points="708.847,-67.687 699.643,-72.9355 710.111,-74.5719 708.847,-67.687"/>
</g>
<!-- Node23&#45;&gt;Node9 -->
<g id="edge28" class="edge"><title>Node23&#45;&gt;Node9</title>
<path fill="none" stroke="midnightblue" d="M683.704,-69.1041C715.67,-56.1984 764.89,-36.3272 792.788,-25.0637"/>
<polygon fill="midnightblue" stroke="midnightblue" points="682.342,-65.8793 674.38,-72.8685 684.963,-72.3702 682.342,-65.8793"/>
</g>
<!-- Node23&#45;&gt;Node20 -->
<g id="edge26" class="edge"><title>Node23&#45;&gt;Node20</title>
<path fill="none" stroke="midnightblue" d="M636.997,-65.4968C624.25,-52.7496 606.895,-35.3947 596.627,-25.1273"/>
<polygon fill="midnightblue" stroke="midnightblue" points="634.688,-68.1376 644.234,-72.7338 639.638,-63.1878 634.688,-68.1376"/>
</g>
<!-- Node27&#45;&gt;Node6 -->
<g id="edge38" class="edge"><title>Node27&#45;&gt;Node6</title>
<path fill="none" stroke="midnightblue" d="M1051.25,-205.194C1125.88,-192.429 1251.64,-170.916 1321.12,-159.032"/>
<polygon fill="midnightblue" stroke="midnightblue" points="1050.34,-201.8 1041.07,-206.936 1051.52,-208.699 1050.34,-201.8"/>
</g>
<!-- Node27&#45;&gt;Node9 -->
<g id="edge39" class="edge"><title>Node27&#45;&gt;Node9</title>
<path fill="none" stroke="midnightblue" d="M960.435,-202.509C942.67,-193.83 920.752,-181.063 905,-165 870.029,-129.339 876.757,-109.174 850,-67 840.425,-51.9079 828.13,-35.1546 820.669,-25.2402"/>
<polygon fill="midnightblue" stroke="midnightblue" points="959.273,-205.829 969.813,-206.904 962.244,-199.491 959.273,-205.829"/>
</g>
<!-- Node28 -->
<g id="node28" class="node"><title>Node28</title>
<g id="a_node28"><a xlink:href="ParameterMgrFullConnector_8cpp.html" target="_top" xlink:title="parameter/ParameterMgrFull\lConnector.cpp">
<polygon fill="white" stroke="black" points="914,-134.5 914,-164.5 1068,-164.5 1068,-134.5 914,-134.5"/>
<text text-anchor="start" x="922" y="-152.5" font-family="Verdana" font-size="10.00">parameter/ParameterMgrFull</text>
<text text-anchor="middle" x="991" y="-141.5" font-family="Verdana" font-size="10.00">Connector.cpp</text>
</a>
</g>
</g>
<!-- Node27&#45;&gt;Node28 -->
<g id="edge40" class="edge"><title>Node27&#45;&gt;Node28</title>
<path fill="none" stroke="midnightblue" d="M991,-196.411C991,-186.222 991,-173.901 991,-164.589"/>
<polygon fill="midnightblue" stroke="midnightblue" points="987.5,-196.734 991,-206.734 994.5,-196.734 987.5,-196.734"/>
</g>
<!-- Node29 -->
<g id="node29" class="node"><title>Node29</title>
<g id="a_node29"><a xlink:href="ParameterMgrPlatformConnector_8cpp.html" target="_top" xlink:title="parameter/ParameterMgrPlatform\lConnector.cpp">
<polygon fill="white" stroke="black" points="1086.5,-134.5 1086.5,-164.5 1265.5,-164.5 1265.5,-134.5 1086.5,-134.5"/>
<text text-anchor="start" x="1094.5" y="-152.5" font-family="Verdana" font-size="10.00">parameter/ParameterMgrPlatform</text>
<text text-anchor="middle" x="1176" y="-141.5" font-family="Verdana" font-size="10.00">Connector.cpp</text>
</a>
</g>
</g>
<!-- Node27&#45;&gt;Node29 -->
<g id="edge41" class="edge"><title>Node27&#45;&gt;Node29</title>
<path fill="none" stroke="midnightblue" d="M1025.18,-203.49C1056.55,-192.47 1103.02,-176.143 1136.07,-164.528"/>
<polygon fill="midnightblue" stroke="midnightblue" points="1023.84,-200.251 1015.57,-206.869 1026.16,-206.856 1023.84,-200.251"/>
</g>
<!-- Node30&#45;&gt;Node9 -->
<g id="edge43" class="edge"><title>Node30&#45;&gt;Node9</title>
<path fill="none" stroke="midnightblue" d="M790.105,-202.033C804.631,-193.621 820.816,-181.272 829,-165 853.218,-116.849 828.179,-48.9103 817.938,-25.126"/>
<polygon fill="midnightblue" stroke="midnightblue" points="788.042,-199.169 780.899,-206.994 791.363,-205.331 788.042,-199.169"/>
</g>
<!-- Node30&#45;&gt;Node25 -->
<g id="edge44" class="edge"><title>Node30&#45;&gt;Node25</title>
<path fill="none" stroke="midnightblue" d="M724.532,-203.765C684.508,-190.886 621.22,-170.521 585.613,-159.064"/>
<polygon fill="midnightblue" stroke="midnightblue" points="723.585,-207.137 734.176,-206.869 725.729,-200.474 723.585,-207.137"/>
</g>
<!-- Node32&#45;&gt;Node9 -->
<g id="edge51" class="edge"><title>Node32&#45;&gt;Node9</title>
<path fill="none" stroke="midnightblue" d="M1379.44,-204.757C1432.28,-192.616 1496.89,-169.753 1467,-134 1462.09,-128.132 1015.4,-51.0447 863.731,-25.0166"/>
<polygon fill="midnightblue" stroke="midnightblue" points="1378.41,-201.4 1369.4,-206.972 1379.91,-208.236 1378.41,-201.4"/>
</g>
<!-- Node32&#45;&gt;Node12 -->
<g id="edge52" class="edge"><title>Node32&#45;&gt;Node12</title>
<path fill="none" stroke="midnightblue" d="M1364.46,-204.319C1398.12,-195.273 1445.21,-181.376 1485,-165 1512.39,-153.727 1515.61,-142.467 1544,-134 1760.14,-69.5249 2454.96,-31.2562 2687.42,-20.006"/>
<polygon fill="midnightblue" stroke="midnightblue" points="1363.23,-201.022 1354.46,-206.967 1365.03,-207.789 1363.23,-201.022"/>
</g>
<!-- Node32&#45;&gt;Node18 -->
<g id="edge50" class="edge"><title>Node32&#45;&gt;Node18</title>
<path fill="none" stroke="midnightblue" d="M1238.58,-206.36C1127.64,-193.905 930.242,-171.745 820.374,-159.411"/>
<polygon fill="midnightblue" stroke="midnightblue" points="1238.39,-209.86 1248.71,-207.497 1239.17,-202.903 1238.39,-209.86"/>
</g>
<!-- Node33&#45;&gt;Node15 -->
<g id="edge60" class="edge"><title>Node33&#45;&gt;Node15</title>
<path fill="none" stroke="midnightblue" d="M1938.16,-271.434C1976.35,-261.516 2033.54,-246.358 2083,-232 2169.39,-206.92 2270.9,-174.313 2317.8,-159.064"/>
<polygon fill="midnightblue" stroke="midnightblue" points="1937.2,-268.068 1928.39,-273.963 1938.95,-274.844 1937.2,-268.068"/>
</g>
<!-- Node34 -->
<g id="node34" class="node"><title>Node34</title>
<g id="a_node34"><a xlink:href="FormattedSubsystemObject_8h.html" target="_top" xlink:title="parameter/FormattedSubsystem\lObject.h">
<polygon fill="white" stroke="black" points="1899.5,-201.5 1899.5,-231.5 2074.5,-231.5 2074.5,-201.5 1899.5,-201.5"/>
<text text-anchor="start" x="1907.5" y="-219.5" font-family="Verdana" font-size="10.00">parameter/FormattedSubsystem</text>
<text text-anchor="middle" x="1987" y="-208.5" font-family="Verdana" font-size="10.00">Object.h</text>
</a>
</g>
</g>
<!-- Node33&#45;&gt;Node34 -->
<g id="edge54" class="edge"><title>Node33&#45;&gt;Node34</title>
<path fill="none" stroke="midnightblue" d="M1915.74,-267.849C1931.09,-257 1951.89,-242.303 1967.06,-231.589"/>
<polygon fill="midnightblue" stroke="midnightblue" points="1913.56,-265.105 1907.41,-273.734 1917.59,-270.822 1913.56,-265.105"/>
</g>
<!-- Node36 -->
<g id="node36" class="node"><title>Node36</title>
<g id="a_node36"><a xlink:href="SubsystemObjectCreator_8h.html" target="_top" xlink:title="parameter/SubsystemObject\lCreator.h">
<polygon fill="white" stroke="black" points="1726.5,-201.5 1726.5,-231.5 1881.5,-231.5 1881.5,-201.5 1726.5,-201.5"/>
<text text-anchor="start" x="1734.5" y="-219.5" font-family="Verdana" font-size="10.00">parameter/SubsystemObject</text>
<text text-anchor="middle" x="1804" y="-208.5" font-family="Verdana" font-size="10.00">Creator.h</text>
</a>
</g>
</g>
<!-- Node33&#45;&gt;Node36 -->
<g id="edge56" class="edge"><title>Node33&#45;&gt;Node36</title>
<path fill="none" stroke="midnightblue" d="M1874.49,-267.849C1859.3,-257 1838.72,-242.303 1823.72,-231.589"/>
<polygon fill="midnightblue" stroke="midnightblue" points="1872.56,-270.769 1882.73,-273.734 1876.62,-265.073 1872.56,-270.769"/>
</g>
<!-- Node35 -->
<g id="node35" class="node"><title>Node35</title>
<g id="a_node35"><a xlink:href="FormattedSubsystemObject_8cpp.html" target="_top" xlink:title="parameter/FormattedSubsystem\lObject.cpp">
<polygon fill="white" stroke="black" points="1899.5,-134.5 1899.5,-164.5 2074.5,-164.5 2074.5,-134.5 1899.5,-134.5"/>
<text text-anchor="start" x="1907.5" y="-152.5" font-family="Verdana" font-size="10.00">parameter/FormattedSubsystem</text>
<text text-anchor="middle" x="1987" y="-141.5" font-family="Verdana" font-size="10.00">Object.cpp</text>
</a>
</g>
</g>
<!-- Node34&#45;&gt;Node35 -->
<g id="edge55" class="edge"><title>Node34&#45;&gt;Node35</title>
<path fill="none" stroke="midnightblue" d="M1987,-191.108C1987,-182.154 1987,-172.323 1987,-164.577"/>
<polygon fill="midnightblue" stroke="midnightblue" points="1983.5,-191.396 1987,-201.396 1990.5,-191.396 1983.5,-191.396"/>
</g>
<!-- Node36&#45;&gt;Node14 -->
<g id="edge57" class="edge"><title>Node36&#45;&gt;Node14</title>
<path fill="none" stroke="midnightblue" d="M1891.74,-199.702C1962.87,-186.895 2060.38,-169.338 2117.63,-159.029"/>
<polygon fill="midnightblue" stroke="midnightblue" points="1891.11,-196.259 1881.89,-201.476 1892.35,-203.148 1891.11,-196.259"/>
</g>
<!-- Node37 -->
<g id="node37" class="node"><title>Node37</title>
<g id="a_node37"><a xlink:href="SubsystemObjectCreator_8cpp.html" target="_top" xlink:title="parameter/SubsystemObject\lCreator.cpp">
<polygon fill="white" stroke="black" points="1726.5,-134.5 1726.5,-164.5 1881.5,-164.5 1881.5,-134.5 1726.5,-134.5"/>
<text text-anchor="start" x="1734.5" y="-152.5" font-family="Verdana" font-size="10.00">parameter/SubsystemObject</text>
<text text-anchor="middle" x="1804" y="-141.5" font-family="Verdana" font-size="10.00">Creator.cpp</text>
</a>
</g>
</g>
<!-- Node36&#45;&gt;Node37 -->
<g id="edge58" class="edge"><title>Node36&#45;&gt;Node37</title>
<path fill="none" stroke="midnightblue" d="M1804,-191.108C1804,-182.154 1804,-172.323 1804,-164.577"/>
<polygon fill="midnightblue" stroke="midnightblue" points="1800.5,-191.396 1804,-201.396 1807.5,-191.396 1800.5,-191.396"/>
</g>
<!-- Node38 -->
<g id="node38" class="node"><title>Node38</title>
<g id="a_node38"><a xlink:href="SubsystemObjectFactory_8h.html" target="_top" xlink:title="parameter/SubsystemObject\lFactory.h">
<polygon fill="white" stroke="black" points="1553.5,-134.5 1553.5,-164.5 1708.5,-164.5 1708.5,-134.5 1553.5,-134.5"/>
<text text-anchor="start" x="1561.5" y="-152.5" font-family="Verdana" font-size="10.00">parameter/SubsystemObject</text>
<text text-anchor="middle" x="1631" y="-141.5" font-family="Verdana" font-size="10.00">Factory.h</text>
</a>
</g>
</g>
<!-- Node36&#45;&gt;Node38 -->
<g id="edge59" class="edge"><title>Node36&#45;&gt;Node38</title>
<path fill="none" stroke="midnightblue" d="M1756.94,-197.819C1729.13,-187.371 1694.41,-174.323 1668.47,-164.577"/>
<polygon fill="midnightblue" stroke="midnightblue" points="1755.87,-201.155 1766.46,-201.396 1758.33,-194.602 1755.87,-201.155"/>
</g>
<!-- Node39&#45;&gt;Node27 -->
<g id="edge62" class="edge"><title>Node39&#45;&gt;Node27</title>
<path fill="none" stroke="midnightblue" d="M961.595,-259.974C969.655,-248.332 979.024,-234.799 984.981,-226.195"/>
<polygon fill="midnightblue" stroke="midnightblue" points="958.579,-258.182 955.764,-268.396 964.334,-262.166 958.579,-258.182"/>
</g>
<!-- Node40&#45;&gt;Node8 -->
<g id="edge65" class="edge"><title>Node40&#45;&gt;Node8</title>
<path fill="none" stroke="midnightblue" d="M2976.04,-129.473C2953.9,-117.064 2926.07,-101.472 2909.18,-92.007"/>
<polygon fill="midnightblue" stroke="midnightblue" points="2974.4,-132.561 2984.83,-134.396 2977.82,-126.454 2974.4,-132.561"/>
</g>
<!-- Node40&#45;&gt;Node12 -->
<g id="edge66" class="edge"><title>Node40&#45;&gt;Node12</title>
<path fill="none" stroke="midnightblue" d="M3008.87,-124.289C3006.7,-106.019 3000.78,-81.6718 2985,-67 2972.42,-55.3104 2874.31,-36.093 2813.11,-25.0417"/>
<polygon fill="midnightblue" stroke="midnightblue" points="3005.4,-124.83 3009.77,-134.482 3012.37,-124.211 3005.4,-124.83"/>
</g>
<!-- Node41 -->
<g id="node41" class="node"><title>Node41</title>
<g id="a_node41"><a xlink:href="LoggingElementBuilderTemplate_8cpp.html" target="_top" xlink:title="parameter/LoggingElement\lBuilderTemplate.cpp">
<polygon fill="white" stroke="black" points="3032,-67.5 3032,-97.5 3180,-97.5 3180,-67.5 3032,-67.5"/>
<text text-anchor="start" x="3040" y="-85.5" font-family="Verdana" font-size="10.00">parameter/LoggingElement</text>
<text text-anchor="middle" x="3106" y="-74.5" font-family="Verdana" font-size="10.00">BuilderTemplate.cpp</text>
</a>
</g>
</g>
<!-- Node40&#45;&gt;Node41 -->
<g id="edge64" class="edge"><title>Node40&#45;&gt;Node41</title>
<path fill="none" stroke="midnightblue" d="M3039.19,-128.734C3054.05,-118.676 3071.76,-106.685 3085.21,-97.5765"/>
<polygon fill="midnightblue" stroke="midnightblue" points="3037.15,-125.891 3030.83,-134.396 3041.07,-131.688 3037.15,-125.891"/>
</g>
</g>
</svg>
