<?xml version="1.0" encoding="UTF-8" standalone="no"?>
<!DOCTYPE svg PUBLIC "-//W3C//DTD SVG 1.1//EN"
 "http://www.w3.org/Graphics/SVG/1.1/DTD/svg11.dtd">
<!-- Generated by graphviz version 2.38.0 (20140413.2041)
 -->
<!-- Title: parameter/log/include/log/LogWrapper.h Pages: 1 -->
<svg width="3493pt" height="441pt"
 viewBox="0.00 0.00 3493.00 441.00" xmlns="http://www.w3.org/2000/svg" xmlns:xlink="http://www.w3.org/1999/xlink">
<g id="graph0" class="graph" transform="scale(1 1) rotate(0) translate(4 437)">
<title>parameter/log/include/log/LogWrapper.h</title>
<polygon fill="white" stroke="none" points="-4,4 -4,-437 3489,-437 3489,4 -4,4"/>
<!-- Node1 -->
<g id="node1" class="node"><title>Node1</title>
<polygon fill="#bfbfbf" stroke="black" points="1427,-402.5 1427,-432.5 1549,-432.5 1549,-402.5 1427,-402.5"/>
<text text-anchor="start" x="1435" y="-420.5" font-family="Verdana" font-size="10.00">parameter/log/include</text>
<text text-anchor="middle" x="1488" y="-409.5" font-family="Verdana" font-size="10.00">/log/LogWrapper.h</text>
</g>
<!-- Node2 -->
<g id="node2" class="node"><title>Node2</title>
<g id="a_node2"><a xlink:href="ParameterMgr_8h.html" target="_top" xlink:title="parameter/ParameterMgr.h">
<polygon fill="white" stroke="black" points="1370.5,-207 1370.5,-226 1517.5,-226 1517.5,-207 1370.5,-207"/>
<text text-anchor="middle" x="1444" y="-214" font-family="Verdana" font-size="10.00">parameter/ParameterMgr.h</text>
</a>
</g>
</g>
<!-- Node1&#45;&gt;Node2 -->
<g id="edge1" class="edge"><title>Node1&#45;&gt;Node2</title>
<path fill="none" stroke="midnightblue" d="M1474.65,-393.596C1470.29,-385.171 1465.84,-375.389 1463,-366 1447.44,-314.498 1444.62,-249.192 1444.11,-226.078"/>
<polygon fill="midnightblue" stroke="midnightblue" points="1471.6,-395.321 1479.45,-402.44 1477.76,-391.982 1471.6,-395.321"/>
</g>
<!-- Node7 -->
<g id="node7" class="node"><title>Node7</title>
<g id="a_node7"><a xlink:href="Logger_8h.html" target="_top" xlink:title="parameter/log/include\l/log/Logger.h">
<polygon fill="white" stroke="black" points="1472,-335.5 1472,-365.5 1594,-365.5 1594,-335.5 1472,-335.5"/>
<text text-anchor="start" x="1480" y="-353.5" font-family="Verdana" font-size="10.00">parameter/log/include</text>
<text text-anchor="middle" x="1533" y="-342.5" font-family="Verdana" font-size="10.00">/log/Logger.h</text>
</a>
</g>
</g>
<!-- Node1&#45;&gt;Node7 -->
<g id="edge6" class="edge"><title>Node1&#45;&gt;Node7</title>
<path fill="none" stroke="midnightblue" d="M1503.47,-394.157C1510.03,-384.679 1517.48,-373.919 1523.25,-365.577"/>
<polygon fill="midnightblue" stroke="midnightblue" points="1500.58,-392.182 1497.76,-402.396 1506.33,-396.166 1500.58,-392.182"/>
</g>
<!-- Node3 -->
<g id="node3" class="node"><title>Node3</title>
<g id="a_node3"><a xlink:href="ElementHandle_8cpp.html" target="_top" xlink:title="parameter/ElementHandle.cpp">
<polygon fill="white" stroke="black" points="1772,-140 1772,-159 1936,-159 1936,-140 1772,-140"/>
<text text-anchor="middle" x="1854" y="-147" font-family="Verdana" font-size="10.00">parameter/ElementHandle.cpp</text>
</a>
</g>
</g>
<!-- Node2&#45;&gt;Node3 -->
<g id="edge2" class="edge"><title>Node2&#45;&gt;Node3</title>
<path fill="none" stroke="midnightblue" d="M1501.67,-205.274C1510.16,-203.812 1518.8,-202.349 1527,-201 1577.94,-192.617 1718.56,-171.109 1797.81,-159.041"/>
<polygon fill="midnightblue" stroke="midnightblue" points="1501.07,-201.826 1491.81,-206.981 1502.26,-208.723 1501.07,-201.826"/>
</g>
<!-- Node4 -->
<g id="node4" class="node"><title>Node4</title>
<g id="a_node4"><a xlink:href="ParameterMgr_8cpp.html" target="_top" xlink:title="parameter/ParameterMgr.cpp">
<polygon fill="white" stroke="black" points="838,-6 838,-25 996,-25 996,-6 838,-6"/>
<text text-anchor="middle" x="917" y="-13" font-family="Verdana" font-size="10.00">parameter/ParameterMgr.cpp</text>
</a>
</g>
</g>
<!-- Node2&#45;&gt;Node4 -->
<g id="edge3" class="edge"><title>Node2&#45;&gt;Node4</title>
<path fill="none" stroke="midnightblue" d="M1502.18,-205.244C1583.95,-190.794 1723.11,-166.07 1724,-165 1732.84,-154.428 1733.01,-144.421 1724,-134 1630.28,-25.6455 1180.41,-15.1757 996.059,-15.5439"/>
<polygon fill="midnightblue" stroke="midnightblue" points="1501.5,-201.809 1492.26,-206.995 1502.71,-208.703 1501.5,-201.809"/>
</g>
<!-- Node5 -->
<g id="node5" class="node"><title>Node5</title>
<g id="a_node5"><a xlink:href="ParameterMgrFullConnector_8cpp.html" target="_top" xlink:title="parameter/ParameterMgrFull\lConnector.cpp">
<polygon fill="white" stroke="black" points="1364,-134.5 1364,-164.5 1518,-164.5 1518,-134.5 1364,-134.5"/>
<text text-anchor="start" x="1372" y="-152.5" font-family="Verdana" font-size="10.00">parameter/ParameterMgrFull</text>
<text text-anchor="middle" x="1441" y="-141.5" font-family="Verdana" font-size="10.00">Connector.cpp</text>
</a>
</g>
</g>
<!-- Node2&#45;&gt;Node5 -->
<g id="edge4" class="edge"><title>Node2&#45;&gt;Node5</title>
<path fill="none" stroke="midnightblue" d="M1443.13,-196.739C1442.66,-186.487 1442.08,-174.001 1441.65,-164.589"/>
<polygon fill="midnightblue" stroke="midnightblue" points="1439.64,-196.906 1443.6,-206.734 1446.63,-196.583 1439.64,-196.906"/>
</g>
<!-- Node6 -->
<g id="node6" class="node"><title>Node6</title>
<g id="a_node6"><a xlink:href="ParameterMgrPlatformConnector_8cpp.html" target="_top" xlink:title="parameter/ParameterMgrPlatform\lConnector.cpp">
<polygon fill="white" stroke="black" points="1536.5,-134.5 1536.5,-164.5 1715.5,-164.5 1715.5,-134.5 1536.5,-134.5"/>
<text text-anchor="start" x="1544.5" y="-152.5" font-family="Verdana" font-size="10.00">parameter/ParameterMgrPlatform</text>
<text text-anchor="middle" x="1626" y="-141.5" font-family="Verdana" font-size="10.00">Connector.cpp</text>
</a>
</g>
</g>
<!-- Node2&#45;&gt;Node6 -->
<g id="edge5" class="edge"><title>Node2&#45;&gt;Node6</title>
<path fill="none" stroke="midnightblue" d="M1477.63,-203.49C1508.48,-192.47 1554.2,-176.143 1586.72,-164.528"/>
<polygon fill="midnightblue" stroke="midnightblue" points="1476.41,-200.209 1468.17,-206.869 1478.76,-206.801 1476.41,-200.209"/>
</g>
<!-- Node8 -->
<g id="node8" class="node"><title>Node8</title>
<g id="a_node8"><a xlink:href="Subsystem_8h.html" target="_top" xlink:title="parameter/Subsystem.h">
<polygon fill="white" stroke="black" points="1990,-207 1990,-226 2124,-226 2124,-207 1990,-207"/>
<text text-anchor="middle" x="2057" y="-214" font-family="Verdana" font-size="10.00">parameter/Subsystem.h</text>
</a>
</g>
</g>
<!-- Node7&#45;&gt;Node8 -->
<g id="edge7" class="edge"><title>Node7&#45;&gt;Node8</title>
<path fill="none" stroke="midnightblue" d="M1598.46,-333.011C1711.03,-304.654 1937.44,-247.617 2023.11,-226.036"/>
<polygon fill="midnightblue" stroke="midnightblue" points="1597.42,-329.662 1588.58,-335.499 1599.13,-336.45 1597.42,-329.662"/>
</g>
<!-- Node19 -->
<g id="node19" class="node"><title>Node19</title>
<g id="a_node19"><a xlink:href="SelectionCriterion_8h.html" target="_top" xlink:title="parameter/SelectionCriterion.h">
<polygon fill="white" stroke="black" points="1252,-274 1252,-293 1416,-293 1416,-274 1252,-274"/>
<text text-anchor="middle" x="1334" y="-281" font-family="Verdana" font-size="10.00">parameter/SelectionCriterion.h</text>
</a>
</g>
</g>
<!-- Node7&#45;&gt;Node19 -->
<g id="edge22" class="edge"><title>Node7&#45;&gt;Node19</title>
<path fill="none" stroke="midnightblue" d="M1480.25,-332.269C1441.47,-319.603 1390.44,-302.934 1360.04,-293.007"/>
<polygon fill="midnightblue" stroke="midnightblue" points="1479.23,-335.618 1489.82,-335.396 1481.4,-328.964 1479.23,-335.618"/>
</g>
<!-- Node20 -->
<g id="node20" class="node"><title>Node20</title>
<g id="a_node20"><a xlink:href="SelectionCriteriaDefinition_8h.html" target="_top" xlink:title="parameter/SelectionCriteria\lDefinition.h">
<polygon fill="white" stroke="black" points="1077.5,-201.5 1077.5,-231.5 1226.5,-231.5 1226.5,-201.5 1077.5,-201.5"/>
<text text-anchor="start" x="1085.5" y="-219.5" font-family="Verdana" font-size="10.00">parameter/SelectionCriteria</text>
<text text-anchor="middle" x="1152" y="-208.5" font-family="Verdana" font-size="10.00">Definition.h</text>
</a>
</g>
</g>
<!-- Node7&#45;&gt;Node20 -->
<g id="edge49" class="edge"><title>Node7&#45;&gt;Node20</title>
<path fill="none" stroke="midnightblue" d="M1461.72,-347.972C1400.87,-344.186 1312.45,-332.666 1243,-299 1209.41,-282.717 1179,-250.302 1163.27,-231.632"/>
<polygon fill="midnightblue" stroke="midnightblue" points="1461.82,-351.483 1472,-348.555 1462.21,-344.494 1461.82,-351.483"/>
</g>
<!-- Node30 -->
<g id="node30" class="node"><title>Node30</title>
<g id="a_node30"><a xlink:href="SelectionCriteria_8h.html" target="_top" xlink:title="parameter/SelectionCriteria.h">
<polygon fill="white" stroke="black" points="902,-207 902,-226 1060,-226 1060,-207 902,-207"/>
<text text-anchor="middle" x="981" y="-214" font-family="Verdana" font-size="10.00">parameter/SelectionCriteria.h</text>
</a>
</g>
</g>
<!-- Node7&#45;&gt;Node30 -->
<g id="edge68" class="edge"><title>Node7&#45;&gt;Node30</title>
<path fill="none" stroke="midnightblue" d="M1461.65,-343.274C1392.82,-336.225 1286.11,-322.54 1196,-299 1121.07,-279.425 1036.24,-242.715 999.54,-226.081"/>
<polygon fill="midnightblue" stroke="midnightblue" points="1461.65,-346.791 1471.95,-344.307 1462.35,-339.826 1461.65,-346.791"/>
</g>
<!-- Node31 -->
<g id="node31" class="node"><title>Node31</title>
<g id="a_node31"><a xlink:href="SelectionCriterion_8cpp.html" target="_top" xlink:title="parameter/SelectionCriterion.cpp">
<polygon fill="white" stroke="black" points="1536,-207 1536,-226 1712,-226 1712,-207 1536,-207"/>
<text text-anchor="middle" x="1624" y="-214" font-family="Verdana" font-size="10.00">parameter/SelectionCriterion.cpp</text>
</a>
</g>
</g>
<!-- Node7&#45;&gt;Node31 -->
<g id="edge69" class="edge"><title>Node7&#45;&gt;Node31</title>
<path fill="none" stroke="midnightblue" d="M1569.97,-329.831C1582.08,-321.744 1594.57,-311.349 1603,-299 1618.74,-275.951 1622.68,-241.928 1623.67,-226.137"/>
<polygon fill="midnightblue" stroke="midnightblue" points="1567.88,-327.013 1561.28,-335.307 1571.61,-332.934 1567.88,-327.013"/>
</g>
<!-- Node32 -->
<g id="node32" class="node"><title>Node32</title>
<g id="a_node32"><a xlink:href="SystemClass_8h.html" target="_top" xlink:title="parameter/SystemClass.h">
<polygon fill="white" stroke="black" points="732,-207 732,-226 874,-226 874,-207 732,-207"/>
<text text-anchor="middle" x="803" y="-214" font-family="Verdana" font-size="10.00">parameter/SystemClass.h</text>
</a>
</g>
</g>
<!-- Node7&#45;&gt;Node32 -->
<g id="edge50" class="edge"><title>Node7&#45;&gt;Node32</title>
<path fill="none" stroke="midnightblue" d="M1461.73,-344.432C1375.85,-337.571 1227.45,-323.304 1102,-299 999.527,-279.146 880.655,-242.58 829.087,-226.032"/>
<polygon fill="midnightblue" stroke="midnightblue" points="1461.64,-347.936 1471.89,-345.232 1462.19,-340.957 1461.64,-347.936"/>
</g>
<!-- Node33 -->
<g id="node33" class="node"><title>Node33</title>
<g id="a_node33"><a xlink:href="SubsystemObject_8h.html" target="_top" xlink:title="parameter/SubsystemObject.h">
<polygon fill="white" stroke="black" points="2598,-274 2598,-293 2762,-293 2762,-274 2598,-274"/>
<text text-anchor="middle" x="2680" y="-281" font-family="Verdana" font-size="10.00">parameter/SubsystemObject.h</text>
</a>
</g>
</g>
<!-- Node7&#45;&gt;Node33 -->
<g id="edge54" class="edge"><title>Node7&#45;&gt;Node33</title>
<path fill="none" stroke="midnightblue" d="M1604.47,-345.45C1806.83,-333.982 2382.88,-301.338 2597.81,-289.158"/>
<polygon fill="midnightblue" stroke="midnightblue" points="1604.05,-341.968 1594.26,-346.028 1604.44,-348.957 1604.05,-341.968"/>
</g>
<!-- Node39 -->
<g id="node39" class="node"><title>Node39</title>
<g id="a_node39"><a xlink:href="Context_8h.html" target="_top" xlink:title="parameter/log/include\l/log/Context.h">
<polygon fill="white" stroke="black" points="1472,-268.5 1472,-298.5 1594,-298.5 1594,-268.5 1472,-268.5"/>
<text text-anchor="start" x="1480" y="-286.5" font-family="Verdana" font-size="10.00">parameter/log/include</text>
<text text-anchor="middle" x="1533" y="-275.5" font-family="Verdana" font-size="10.00">/log/Context.h</text>
</a>
</g>
</g>
<!-- Node7&#45;&gt;Node39 -->
<g id="edge62" class="edge"><title>Node7&#45;&gt;Node39</title>
<path fill="none" stroke="midnightblue" d="M1533,-325.108C1533,-316.154 1533,-306.323 1533,-298.577"/>
<polygon fill="midnightblue" stroke="midnightblue" points="1529.5,-325.396 1533,-335.396 1536.5,-325.396 1529.5,-325.396"/>
</g>
<!-- Node40 -->
<g id="node40" class="node"><title>Node40</title>
<g id="a_node40"><a xlink:href="LoggingElementBuilderTemplate_8h.html" target="_top" xlink:title="parameter/LoggingElement\lBuilderTemplate.h">
<polygon fill="white" stroke="black" points="3337,-134.5 3337,-164.5 3485,-164.5 3485,-134.5 3337,-134.5"/>
<text text-anchor="start" x="3345" y="-152.5" font-family="Verdana" font-size="10.00">parameter/LoggingElement</text>
<text text-anchor="middle" x="3411" y="-141.5" font-family="Verdana" font-size="10.00">BuilderTemplate.h</text>
</a>
</g>
</g>
<!-- Node7&#45;&gt;Node40 -->
<g id="edge64" class="edge"><title>Node7&#45;&gt;Node40</title>
<path fill="none" stroke="midnightblue" d="M1604.16,-349.298C1794.08,-348.176 2328.65,-341.197 2771,-299 2970.1,-280.007 3023.38,-285.861 3216,-232 3277.84,-214.708 3346.26,-182.973 3383.36,-164.621"/>
<polygon fill="midnightblue" stroke="midnightblue" points="1604.01,-345.799 1594.03,-349.355 1604.04,-352.799 1604.01,-345.799"/>
</g>
<!-- Node8&#45;&gt;Node3 -->
<g id="edge10" class="edge"><title>Node8&#45;&gt;Node3</title>
<path fill="none" stroke="midnightblue" d="M2020.35,-203.765C1980.13,-190.886 1916.53,-170.521 1880.75,-159.064"/>
<polygon fill="midnightblue" stroke="midnightblue" points="2019.45,-207.152 2030.04,-206.869 2021.59,-200.486 2019.45,-207.152"/>
</g>
<!-- Node8&#45;&gt;Node4 -->
<g id="edge19" class="edge"><title>Node8&#45;&gt;Node4</title>
<path fill="none" stroke="midnightblue" d="M2045.6,-198.721C2031.86,-179.872 2006.97,-149.85 1978,-134 1846.71,-62.1655 1796.3,-87.0894 1648,-67 1412.11,-35.0461 1130.5,-22.824 996.042,-18.5604"/>
<polygon fill="midnightblue" stroke="midnightblue" points="2042.8,-200.813 2051.42,-206.965 2048.52,-196.776 2042.8,-200.813"/>
</g>
<!-- Node9 -->
<g id="node9" class="node"><title>Node9</title>
<g id="a_node9"><a xlink:href="BitwiseAreaConfiguration_8cpp.html" target="_top" xlink:title="parameter/BitwiseAreaConfiguration.cpp">
<polygon fill="white" stroke="black" points="2212,-140 2212,-159 2422,-159 2422,-140 2212,-140"/>
<text text-anchor="middle" x="2317" y="-147" font-family="Verdana" font-size="10.00">parameter/BitwiseAreaConfiguration.cpp</text>
</a>
</g>
</g>
<!-- Node8&#45;&gt;Node9 -->
<g id="edge8" class="edge"><title>Node8&#45;&gt;Node9</title>
<path fill="none" stroke="midnightblue" d="M2101.06,-204.484C2152.35,-191.663 2235.96,-170.76 2282.67,-159.083"/>
<polygon fill="midnightblue" stroke="midnightblue" points="2100.11,-201.115 2091.26,-206.936 2101.81,-207.906 2100.11,-201.115"/>
</g>
<!-- Node10 -->
<g id="node10" class="node"><title>Node10</title>
<g id="a_node10"><a xlink:href="DomainConfiguration_8cpp.html" target="_top" xlink:title="parameter/DomainConfiguration.cpp">
<polygon fill="white" stroke="black" points="628,-6 628,-25 820,-25 820,-6 628,-6"/>
<text text-anchor="middle" x="724" y="-13" font-family="Verdana" font-size="10.00">parameter/DomainConfiguration.cpp</text>
</a>
</g>
</g>
<!-- Node8&#45;&gt;Node10 -->
<g id="edge9" class="edge"><title>Node8&#45;&gt;Node10</title>
<path fill="none" stroke="midnightblue" d="M2033.1,-201.809C2017.01,-192.217 1995.61,-178.708 1978,-165 1962.12,-152.639 1963.35,-142.262 1945,-134 1888.23,-108.436 890.855,-38.1217 829,-31 813.826,-29.253 797.455,-27.1146 782.257,-25.0223"/>
<polygon fill="midnightblue" stroke="midnightblue" points="2031.49,-204.924 2041.89,-206.975 2035.04,-198.889 2031.49,-204.924"/>
</g>
<!-- Node11 -->
<g id="node11" class="node"><title>Node11</title>
<g id="a_node11"><a xlink:href="VirtualSubsystem_8h.html" target="_top" xlink:title="parameter/VirtualSubsystem.h">
<polygon fill="white" stroke="black" points="2030,-140 2030,-159 2194,-159 2194,-140 2030,-140"/>
<text text-anchor="middle" x="2112" y="-147" font-family="Verdana" font-size="10.00">parameter/VirtualSubsystem.h</text>
</a>
</g>
</g>
<!-- Node8&#45;&gt;Node11 -->
<g id="edge11" class="edge"><title>Node8&#45;&gt;Node11</title>
<path fill="none" stroke="midnightblue" d="M2071.16,-198.77C2081.88,-186.097 2096.18,-169.201 2104.7,-159.127"/>
<polygon fill="midnightblue" stroke="midnightblue" points="2068.21,-196.839 2064.42,-206.734 2073.55,-201.361 2068.21,-196.839"/>
</g>
<!-- Node17 -->
<g id="node17" class="node"><title>Node17</title>
<g id="a_node17"><a xlink:href="Subsystem_8cpp.html" target="_top" xlink:title="parameter/Subsystem.cpp">
<polygon fill="white" stroke="black" points="2634.5,-140 2634.5,-159 2779.5,-159 2779.5,-140 2634.5,-140"/>
<text text-anchor="middle" x="2707" y="-147" font-family="Verdana" font-size="10.00">parameter/Subsystem.cpp</text>
</a>
</g>
</g>
<!-- Node8&#45;&gt;Node17 -->
<g id="edge20" class="edge"><title>Node8&#45;&gt;Node17</title>
<path fill="none" stroke="midnightblue" d="M2134.39,-210.745C2243.92,-203.533 2450.3,-188.168 2625,-165 2637.33,-163.365 2650.62,-161.193 2662.85,-159.028"/>
<polygon fill="midnightblue" stroke="midnightblue" points="2133.85,-207.273 2124.1,-211.418 2134.3,-214.258 2133.85,-207.273"/>
</g>
<!-- Node18 -->
<g id="node18" class="node"><title>Node18</title>
<g id="a_node18"><a xlink:href="SubsystemObject_8cpp.html" target="_top" xlink:title="parameter/SubsystemObject.cpp">
<polygon fill="white" stroke="black" points="2440,-140 2440,-159 2616,-159 2616,-140 2440,-140"/>
<text text-anchor="middle" x="2528" y="-147" font-family="Verdana" font-size="10.00">parameter/SubsystemObject.cpp</text>
</a>
</g>
</g>
<!-- Node8&#45;&gt;Node18 -->
<g id="edge21" class="edge"><title>Node8&#45;&gt;Node18</title>
<path fill="none" stroke="midnightblue" d="M2132.6,-205.611C2208.18,-195.651 2327.69,-179.695 2431,-165 2444.23,-163.118 2458.47,-161.026 2471.85,-159.031"/>
<polygon fill="midnightblue" stroke="midnightblue" points="2131.69,-202.201 2122.24,-206.976 2132.61,-209.141 2131.69,-202.201"/>
</g>
<!-- Node12 -->
<g id="node12" class="node"><title>Node12</title>
<g id="a_node12"><a xlink:href="SubsystemLibrary_8h.html" target="_top" xlink:title="parameter/SubsystemLibrary.h">
<polygon fill="white" stroke="black" points="2269,-73 2269,-92 2433,-92 2433,-73 2269,-73"/>
<text text-anchor="middle" x="2351" y="-80" font-family="Verdana" font-size="10.00">parameter/SubsystemLibrary.h</text>
</a>
</g>
</g>
<!-- Node11&#45;&gt;Node12 -->
<g id="edge12" class="edge"><title>Node11&#45;&gt;Node12</title>
<path fill="none" stroke="midnightblue" d="M2153.65,-137.172C2200.91,-124.319 2276.94,-103.643 2319.51,-92.0637"/>
<polygon fill="midnightblue" stroke="midnightblue" points="2152.47,-133.867 2143.74,-139.869 2154.31,-140.621 2152.47,-133.867"/>
</g>
<!-- Node15 -->
<g id="node15" class="node"><title>Node15</title>
<g id="a_node15"><a xlink:href="SystemClass_8cpp.html" target="_top" xlink:title="parameter/SystemClass.cpp">
<polygon fill="white" stroke="black" points="2135.5,-6 2135.5,-25 2288.5,-25 2288.5,-6 2135.5,-6"/>
<text text-anchor="middle" x="2212" y="-13" font-family="Verdana" font-size="10.00">parameter/SystemClass.cpp</text>
</a>
</g>
</g>
<!-- Node11&#45;&gt;Node15 -->
<g id="edge17" class="edge"><title>Node11&#45;&gt;Node15</title>
<path fill="none" stroke="midnightblue" d="M2159.29,-136.614C2179.17,-129.027 2200.35,-116.933 2212,-98 2226.16,-74.9827 2219.19,-40.9441 2214.74,-25.1427"/>
<polygon fill="midnightblue" stroke="midnightblue" points="2157.96,-133.371 2149.68,-139.987 2160.28,-139.976 2157.96,-133.371"/>
</g>
<!-- Node16 -->
<g id="node16" class="node"><title>Node16</title>
<g id="a_node16"><a xlink:href="VirtualSubsystem_8cpp.html" target="_top" xlink:title="parameter/VirtualSubsystem.cpp">
<polygon fill="white" stroke="black" points="2027,-73 2027,-92 2203,-92 2203,-73 2027,-73"/>
<text text-anchor="middle" x="2115" y="-80" font-family="Verdana" font-size="10.00">parameter/VirtualSubsystem.cpp</text>
</a>
</g>
</g>
<!-- Node11&#45;&gt;Node16 -->
<g id="edge18" class="edge"><title>Node11&#45;&gt;Node16</title>
<path fill="none" stroke="midnightblue" d="M2112.88,-129.537C2113.45,-117.17 2114.16,-101.62 2114.6,-92.1273"/>
<polygon fill="midnightblue" stroke="midnightblue" points="2109.37,-129.583 2112.4,-139.734 2116.36,-129.906 2109.37,-129.583"/>
</g>
<!-- Node12&#45;&gt;Node4 -->
<g id="edge13" class="edge"><title>Node12&#45;&gt;Node4</title>
<path fill="none" stroke="midnightblue" d="M2267.78,-71.9283C2249.43,-70.0662 2230.07,-68.2936 2212,-67 1752.21,-34.0883 1198.95,-21.5109 996.303,-17.8"/>
<polygon fill="midnightblue" stroke="midnightblue" points="2267.55,-75.4232 2277.86,-72.9696 2268.27,-68.4603 2267.55,-75.4232"/>
</g>
<!-- Node13 -->
<g id="node13" class="node"><title>Node13</title>
<g id="a_node13"><a xlink:href="Plugin_8h.html" target="_top" xlink:title="This file is intended to be used by the plugins. ">
<polygon fill="white" stroke="black" points="2307,-6 2307,-25 2415,-25 2415,-6 2307,-6"/>
<text text-anchor="middle" x="2361" y="-13" font-family="Verdana" font-size="10.00">parameter/Plugin.h</text>
</a>
</g>
</g>
<!-- Node12&#45;&gt;Node13 -->
<g id="edge14" class="edge"><title>Node12&#45;&gt;Node13</title>
<path fill="none" stroke="midnightblue" d="M2353.92,-62.537C2355.82,-50.1703 2358.21,-34.6198 2359.67,-25.1273"/>
<polygon fill="midnightblue" stroke="midnightblue" points="2350.41,-62.3179 2352.35,-72.7338 2357.33,-63.3823 2350.41,-62.3179"/>
</g>
<!-- Node14 -->
<g id="node14" class="node"><title>Node14</title>
<g id="a_node14"><a xlink:href="SubsystemElementBuilder_8cpp.html" target="_top" xlink:title="parameter/SubsystemElement\lBuilder.cpp">
<polygon fill="white" stroke="black" points="2433,-0.5 2433,-30.5 2597,-30.5 2597,-0.5 2433,-0.5"/>
<text text-anchor="start" x="2441" y="-18.5" font-family="Verdana" font-size="10.00">parameter/SubsystemElement</text>
<text text-anchor="middle" x="2515" y="-7.5" font-family="Verdana" font-size="10.00">Builder.cpp</text>
</a>
</g>
</g>
<!-- Node12&#45;&gt;Node14 -->
<g id="edge15" class="edge"><title>Node12&#45;&gt;Node14</title>
<path fill="none" stroke="midnightblue" d="M2382.39,-69.0579C2410.17,-58.0469 2450.68,-41.9921 2479.61,-30.5281"/>
<polygon fill="midnightblue" stroke="midnightblue" points="2380.78,-65.9301 2372.78,-72.8685 2383.36,-72.4376 2380.78,-65.9301"/>
</g>
<!-- Node12&#45;&gt;Node15 -->
<g id="edge16" class="edge"><title>Node12&#45;&gt;Node15</title>
<path fill="none" stroke="midnightblue" d="M2323.44,-68.6127C2295.91,-55.7387 2254.35,-36.3059 2230.53,-25.1672"/>
<polygon fill="midnightblue" stroke="midnightblue" points="2322,-71.8029 2332.54,-72.8685 2324.97,-65.462 2322,-71.8029"/>
</g>
<!-- Node19&#45;&gt;Node2 -->
<g id="edge42" class="edge"><title>Node19&#45;&gt;Node2</title>
<path fill="none" stroke="midnightblue" d="M1357.5,-268.615C1379.29,-255.737 1411.04,-236.976 1429.4,-226.127"/>
<polygon fill="midnightblue" stroke="midnightblue" points="1355.66,-265.633 1348.84,-273.734 1359.22,-271.66 1355.66,-265.633"/>
</g>
<!-- Node19&#45;&gt;Node20 -->
<g id="edge23" class="edge"><title>Node19&#45;&gt;Node20</title>
<path fill="none" stroke="midnightblue" d="M1300.37,-270.49C1269.52,-259.47 1223.8,-243.143 1191.28,-231.528"/>
<polygon fill="midnightblue" stroke="midnightblue" points="1299.24,-273.801 1309.83,-273.869 1301.59,-267.209 1299.24,-273.801"/>
</g>
<!-- Node27 -->
<g id="node27" class="node"><title>Node27</title>
<g id="a_node27"><a xlink:href="SelectionCriterionRule_8cpp.html" target="_top" xlink:title="parameter/SelectionCriterion\lRule.cpp">
<polygon fill="white" stroke="black" points="948.5,-67.5 948.5,-97.5 1103.5,-97.5 1103.5,-67.5 948.5,-67.5"/>
<text text-anchor="start" x="956.5" y="-85.5" font-family="Verdana" font-size="10.00">parameter/SelectionCriterion</text>
<text text-anchor="middle" x="1026" y="-74.5" font-family="Verdana" font-size="10.00">Rule.cpp</text>
</a>
</g>
</g>
<!-- Node19&#45;&gt;Node27 -->
<g id="edge48" class="edge"><title>Node19&#45;&gt;Node27</title>
<path fill="none" stroke="midnightblue" d="M1338.22,-263.658C1344.02,-232.282 1350.31,-169.297 1317,-134 1288.54,-103.841 1179.87,-91.6326 1103.71,-86.7312"/>
<polygon fill="midnightblue" stroke="midnightblue" points="1334.74,-263.18 1336.17,-273.678 1341.6,-264.579 1334.74,-263.18"/>
</g>
<!-- Node29 -->
<g id="node29" class="node"><title>Node29</title>
<g id="a_node29"><a xlink:href="SelectionCriteriaDefinition_8cpp.html" target="_top" xlink:title="parameter/SelectionCriteria\lDefinition.cpp">
<polygon fill="white" stroke="black" points="1159.5,-134.5 1159.5,-164.5 1308.5,-164.5 1308.5,-134.5 1159.5,-134.5"/>
<text text-anchor="start" x="1167.5" y="-152.5" font-family="Verdana" font-size="10.00">parameter/SelectionCriteria</text>
<text text-anchor="middle" x="1234" y="-141.5" font-family="Verdana" font-size="10.00">Definition.cpp</text>
</a>
</g>
</g>
<!-- Node19&#45;&gt;Node29 -->
<g id="edge46" class="edge"><title>Node19&#45;&gt;Node29</title>
<path fill="none" stroke="midnightblue" d="M1321.23,-265.641C1301.36,-239.419 1263.42,-189.334 1244.82,-164.783"/>
<polygon fill="midnightblue" stroke="midnightblue" points="1318.61,-267.982 1327.44,-273.839 1324.19,-263.755 1318.61,-267.982"/>
</g>
<!-- Node19&#45;&gt;Node30 -->
<g id="edge43" class="edge"><title>Node19&#45;&gt;Node30</title>
<path fill="none" stroke="midnightblue" d="M1277.61,-272.116C1208.23,-259.341 1091.74,-237.892 1027.33,-226.032"/>
<polygon fill="midnightblue" stroke="midnightblue" points="1277.02,-275.567 1287.49,-273.936 1278.29,-268.682 1277.02,-275.567"/>
</g>
<!-- Node19&#45;&gt;Node31 -->
<g id="edge47" class="edge"><title>Node19&#45;&gt;Node31</title>
<path fill="none" stroke="midnightblue" d="M1382.08,-271.724C1439.18,-258.924 1533.28,-237.833 1585.7,-226.083"/>
<polygon fill="midnightblue" stroke="midnightblue" points="1381.2,-268.333 1372.21,-273.936 1382.73,-275.164 1381.2,-268.333"/>
</g>
<!-- Node20&#45;&gt;Node4 -->
<g id="edge38" class="edge"><title>Node20&#45;&gt;Node4</title>
<path fill="none" stroke="midnightblue" d="M1148.5,-191.434C1142.59,-154.012 1129.53,-84.3565 1112,-67 1092.8,-47.9904 1025.75,-33.5323 975.602,-25.0558"/>
<polygon fill="midnightblue" stroke="midnightblue" points="1145.07,-192.137 1150.04,-201.493 1151.99,-191.078 1145.07,-192.137"/>
</g>
<!-- Node21 -->
<g id="node21" class="node"><title>Node21</title>
<g id="a_node21"><a xlink:href="XmlDomainImportContext_8h.html" target="_top" xlink:title="parameter/XmlDomainImport\lContext.h">
<polygon fill="white" stroke="black" points="600,-134.5 600,-164.5 758,-164.5 758,-134.5 600,-134.5"/>
<text text-anchor="start" x="608" y="-152.5" font-family="Verdana" font-size="10.00">parameter/XmlDomainImport</text>
<text text-anchor="middle" x="679" y="-141.5" font-family="Verdana" font-size="10.00">Context.h</text>
</a>
</g>
</g>
<!-- Node20&#45;&gt;Node21 -->
<g id="edge24" class="edge"><title>Node20&#45;&gt;Node21</title>
<path fill="none" stroke="midnightblue" d="M1067.18,-200.759C954.425,-183.781 834.913,-168.88 758.321,-159.73"/>
<polygon fill="midnightblue" stroke="midnightblue" points="1066.96,-204.265 1077.37,-202.302 1068.01,-197.344 1066.96,-204.265"/>
</g>
<!-- Node20&#45;&gt;Node27 -->
<g id="edge41" class="edge"><title>Node20&#45;&gt;Node27</title>
<path fill="none" stroke="midnightblue" d="M1131.66,-193.81C1116.18,-177.346 1094.32,-154.178 1075,-134 1063.17,-121.647 1049.63,-107.702 1039.78,-97.6004"/>
<polygon fill="midnightblue" stroke="midnightblue" points="1129.31,-196.42 1138.7,-201.312 1134.41,-191.627 1129.31,-196.42"/>
</g>
<!-- Node28 -->
<g id="node28" class="node"><title>Node28</title>
<g id="a_node28"><a xlink:href="SelectionCriteria_8cpp.html" target="_top" xlink:title="parameter/SelectionCriteria.cpp">
<polygon fill="white" stroke="black" points="896,-140 896,-159 1066,-159 1066,-140 896,-140"/>
<text text-anchor="middle" x="981" y="-147" font-family="Verdana" font-size="10.00">parameter/SelectionCriteria.cpp</text>
</a>
</g>
</g>
<!-- Node20&#45;&gt;Node28 -->
<g id="edge39" class="edge"><title>Node20&#45;&gt;Node28</title>
<path fill="none" stroke="midnightblue" d="M1105.39,-197.784C1072.24,-185.181 1029.16,-168.808 1003.38,-159.007"/>
<polygon fill="midnightblue" stroke="midnightblue" points="1104.3,-201.114 1114.9,-201.396 1106.79,-194.571 1104.3,-201.114"/>
</g>
<!-- Node20&#45;&gt;Node29 -->
<g id="edge40" class="edge"><title>Node20&#45;&gt;Node29</title>
<path fill="none" stroke="midnightblue" d="M1177.65,-195.168C1190.19,-185.228 1204.97,-173.514 1216.24,-164.577"/>
<polygon fill="midnightblue" stroke="midnightblue" points="1175.46,-192.441 1169.79,-201.396 1179.8,-197.927 1175.46,-192.441"/>
</g>
<!-- Node21&#45;&gt;Node4 -->
<g id="edge36" class="edge"><title>Node21&#45;&gt;Node4</title>
<path fill="none" stroke="midnightblue" d="M716.336,-129.5C733.549,-120.418 754.089,-109.12 772,-98 792.323,-85.3821 795.466,-79.2725 816,-67 843.429,-50.6061 876.876,-34.6156 897.557,-25.161"/>
<polygon fill="midnightblue" stroke="midnightblue" points="714.393,-126.566 707.153,-134.302 717.637,-132.769 714.393,-126.566"/>
</g>
<!-- Node21&#45;&gt;Node10 -->
<g id="edge35" class="edge"><title>Node21&#45;&gt;Node10</title>
<path fill="none" stroke="midnightblue" d="M612.133,-130.355C596.699,-122.897 582.142,-112.481 573,-98 565.645,-86.3494 564.95,-78.1811 573,-67 589.071,-44.6794 615.46,-32.0807 641.719,-25.0186"/>
<polygon fill="midnightblue" stroke="midnightblue" points="610.727,-133.56 621.287,-134.413 613.564,-127.161 610.727,-133.56"/>
</g>
<!-- Node22 -->
<g id="node22" class="node"><title>Node22</title>
<g id="a_node22"><a xlink:href="ConfigurableDomain_8h.html" target="_top" xlink:title="parameter/ConfigurableDomain.h">
<polygon fill="white" stroke="black" points="311.5,-73 311.5,-92 488.5,-92 488.5,-73 311.5,-73"/>
<text text-anchor="middle" x="400" y="-80" font-family="Verdana" font-size="10.00">parameter/ConfigurableDomain.h</text>
</a>
</g>
</g>
<!-- Node21&#45;&gt;Node22 -->
<g id="edge25" class="edge"><title>Node21&#45;&gt;Node22</title>
<path fill="none" stroke="midnightblue" d="M608.816,-132.149C554.069,-119.394 480.225,-102.191 436.608,-92.0287"/>
<polygon fill="midnightblue" stroke="midnightblue" points="608.271,-135.616 618.805,-134.476 609.86,-128.798 608.271,-135.616"/>
</g>
<!-- Node23 -->
<g id="node23" class="node"><title>Node23</title>
<g id="a_node23"><a xlink:href="ConfigurableDomain_8cpp.html" target="_top" xlink:title="parameter/ConfigurableDomain.cpp">
<polygon fill="white" stroke="black" points="422,-6 422,-25 610,-25 610,-6 422,-6"/>
<text text-anchor="middle" x="516" y="-13" font-family="Verdana" font-size="10.00">parameter/ConfigurableDomain.cpp</text>
</a>
</g>
</g>
<!-- Node21&#45;&gt;Node23 -->
<g id="edge34" class="edge"><title>Node21&#45;&gt;Node23</title>
<path fill="none" stroke="midnightblue" d="M620.151,-130.846C600.744,-123.003 580.044,-112.247 564,-98 540.425,-77.0652 525.213,-41.6889 519.08,-25.3091"/>
<polygon fill="midnightblue" stroke="midnightblue" points="618.958,-134.137 629.548,-134.465 621.474,-127.605 618.958,-134.137"/>
</g>
<!-- Node26 -->
<g id="node26" class="node"><title>Node26</title>
<g id="a_node26"><a xlink:href="DomainConfiguration_8h.html" target="_top" xlink:title="parameter/DomainConfiguration.h">
<polygon fill="white" stroke="black" points="582.5,-73 582.5,-92 763.5,-92 763.5,-73 582.5,-73"/>
<text text-anchor="middle" x="673" y="-80" font-family="Verdana" font-size="10.00">parameter/DomainConfiguration.h</text>
</a>
</g>
</g>
<!-- Node21&#45;&gt;Node26 -->
<g id="edge30" class="edge"><title>Node21&#45;&gt;Node26</title>
<path fill="none" stroke="midnightblue" d="M676.761,-124.25C675.725,-113.017 674.558,-100.377 673.803,-92.1945"/>
<polygon fill="midnightblue" stroke="midnightblue" points="673.294,-124.76 677.698,-134.396 680.264,-124.117 673.294,-124.76"/>
</g>
<!-- Node21&#45;&gt;Node27 -->
<g id="edge37" class="edge"><title>Node21&#45;&gt;Node27</title>
<path fill="none" stroke="midnightblue" d="M763.975,-132.583C821.192,-121.865 895.954,-107.86 950.969,-97.5549"/>
<polygon fill="midnightblue" stroke="midnightblue" points="763.051,-129.195 753.867,-134.476 764.34,-136.075 763.051,-129.195"/>
</g>
<!-- Node22&#45;&gt;Node4 -->
<g id="edge29" class="edge"><title>Node22&#45;&gt;Node4</title>
<path fill="none" stroke="midnightblue" d="M492.094,-71.9015C579.074,-62.5421 713.106,-47.3604 829,-31 841.572,-29.2252 855.119,-27.0997 867.726,-25.0303"/>
<polygon fill="midnightblue" stroke="midnightblue" points="491.557,-68.4389 481.988,-72.9856 492.304,-75.399 491.557,-68.4389"/>
</g>
<!-- Node22&#45;&gt;Node23 -->
<g id="edge26" class="edge"><title>Node22&#45;&gt;Node23</title>
<path fill="none" stroke="midnightblue" d="M424.472,-67.7872C447.462,-54.9047 481.157,-36.0243 500.604,-25.1273"/>
<polygon fill="midnightblue" stroke="midnightblue" points="422.657,-64.7921 415.644,-72.7338 426.079,-70.8988 422.657,-64.7921"/>
</g>
<!-- Node24 -->
<g id="node24" class="node"><title>Node24</title>
<g id="a_node24"><a xlink:href="ConfigurableDomains_8cpp.html" target="_top" xlink:title="parameter/ConfigurableDomains.cpp">
<polygon fill="white" stroke="black" points="0,-6 0,-25 194,-25 194,-6 0,-6"/>
<text text-anchor="middle" x="97" y="-13" font-family="Verdana" font-size="10.00">parameter/ConfigurableDomains.cpp</text>
</a>
</g>
</g>
<!-- Node22&#45;&gt;Node24 -->
<g id="edge27" class="edge"><title>Node22&#45;&gt;Node24</title>
<path fill="none" stroke="midnightblue" d="M350.135,-70.803C290.509,-58.0117 191.899,-36.8578 137.012,-25.0834"/>
<polygon fill="midnightblue" stroke="midnightblue" points="349.565,-74.2601 360.076,-72.9355 351.033,-67.4158 349.565,-74.2601"/>
</g>
<!-- Node25 -->
<g id="node25" class="node"><title>Node25</title>
<g id="a_node25"><a xlink:href="ConfigurableElement_8cpp.html" target="_top" xlink:title="parameter/ConfigurableElement.cpp">
<polygon fill="white" stroke="black" points="212.5,-6 212.5,-25 403.5,-25 403.5,-6 212.5,-6"/>
<text text-anchor="middle" x="308" y="-13" font-family="Verdana" font-size="10.00">parameter/ConfigurableElement.cpp</text>
</a>
</g>
</g>
<!-- Node22&#45;&gt;Node25 -->
<g id="edge28" class="edge"><title>Node22&#45;&gt;Node25</title>
<path fill="none" stroke="midnightblue" d="M379.363,-66.9196C361.175,-54.0695 335.292,-35.7821 320.211,-25.1273"/>
<polygon fill="midnightblue" stroke="midnightblue" points="377.406,-69.822 387.592,-72.7338 381.445,-64.1049 377.406,-69.822"/>
</g>
<!-- Node26&#45;&gt;Node4 -->
<g id="edge33" class="edge"><title>Node26&#45;&gt;Node4</title>
<path fill="none" stroke="midnightblue" d="M714.955,-70.3234C763.135,-57.4887 841.128,-36.7118 884.779,-25.0834"/>
<polygon fill="midnightblue" stroke="midnightblue" points="713.912,-66.9793 705.15,-72.9355 715.714,-73.7434 713.912,-66.9793"/>
</g>
<!-- Node26&#45;&gt;Node10 -->
<g id="edge32" class="edge"><title>Node26&#45;&gt;Node10</title>
<path fill="none" stroke="midnightblue" d="M686.126,-64.7705C696.07,-52.0972 709.327,-35.201 717.231,-25.1273"/>
<polygon fill="midnightblue" stroke="midnightblue" points="683.297,-62.7059 679.878,-72.7338 688.805,-67.0269 683.297,-62.7059"/>
</g>
<!-- Node26&#45;&gt;Node23 -->
<g id="edge31" class="edge"><title>Node26&#45;&gt;Node23</title>
<path fill="none" stroke="midnightblue" d="M642.683,-68.9485C611.598,-56.0787 564.074,-36.4032 536.935,-25.1672"/>
<polygon fill="midnightblue" stroke="midnightblue" points="641.573,-72.277 652.152,-72.8685 644.251,-65.8094 641.573,-72.277"/>
</g>
<!-- Node30&#45;&gt;Node4 -->
<g id="edge44" class="edge"><title>Node30&#45;&gt;Node4</title>
<path fill="none" stroke="midnightblue" d="M937.473,-203.326C918.483,-195.613 898.061,-183.498 887,-165 858.924,-118.045 896.276,-49.3588 911.27,-25.2521"/>
<polygon fill="midnightblue" stroke="midnightblue" points="936.331,-206.636 946.924,-206.868 938.788,-200.081 936.331,-206.636"/>
</g>
<!-- Node30&#45;&gt;Node28 -->
<g id="edge45" class="edge"><title>Node30&#45;&gt;Node28</title>
<path fill="none" stroke="midnightblue" d="M981,-196.537C981,-184.17 981,-168.62 981,-159.127"/>
<polygon fill="midnightblue" stroke="midnightblue" points="977.5,-196.734 981,-206.734 984.5,-196.734 977.5,-196.734"/>
</g>
<!-- Node32&#45;&gt;Node4 -->
<g id="edge52" class="edge"><title>Node32&#45;&gt;Node4</title>
<path fill="none" stroke="midnightblue" d="M803.121,-196.654C803.886,-179.569 806.697,-154.068 816,-134 838.062,-86.4107 885.116,-43.1454 906.287,-25.2288"/>
<polygon fill="midnightblue" stroke="midnightblue" points="799.614,-196.883 802.864,-206.967 806.612,-197.057 799.614,-196.883"/>
</g>
<!-- Node32&#45;&gt;Node15 -->
<g id="edge53" class="edge"><title>Node32&#45;&gt;Node15</title>
<path fill="none" stroke="midnightblue" d="M812.527,-198.122C831.563,-165.405 877.787,-95.4059 939,-67 1047.15,-16.8116 1876.24,-15.3421 2135.06,-16.127"/>
<polygon fill="midnightblue" stroke="midnightblue" points="809.386,-196.565 807.505,-206.991 815.478,-200.014 809.386,-196.565"/>
</g>
<!-- Node32&#45;&gt;Node21 -->
<g id="edge51" class="edge"><title>Node32&#45;&gt;Node21</title>
<path fill="none" stroke="midnightblue" d="M777.617,-202.194C756.759,-191.261 727.284,-175.81 705.997,-164.652"/>
<polygon fill="midnightblue" stroke="midnightblue" points="776.052,-205.326 786.534,-206.869 779.302,-199.126 776.052,-205.326"/>
</g>
<!-- Node33&#45;&gt;Node18 -->
<g id="edge61" class="edge"><title>Node33&#45;&gt;Node18</title>
<path fill="none" stroke="midnightblue" d="M2662.29,-267.117C2630.09,-239.157 2562.98,-180.875 2537.81,-159.021"/>
<polygon fill="midnightblue" stroke="midnightblue" points="2660.18,-269.925 2670.03,-273.839 2664.77,-264.64 2660.18,-269.925"/>
</g>
<!-- Node34 -->
<g id="node34" class="node"><title>Node34</title>
<g id="a_node34"><a xlink:href="FormattedSubsystemObject_8h.html" target="_top" xlink:title="parameter/FormattedSubsystem\lObject.h">
<polygon fill="white" stroke="black" points="3031.5,-201.5 3031.5,-231.5 3206.5,-231.5 3206.5,-201.5 3031.5,-201.5"/>
<text text-anchor="start" x="3039.5" y="-219.5" font-family="Verdana" font-size="10.00">parameter/FormattedSubsystem</text>
<text text-anchor="middle" x="3119" y="-208.5" font-family="Verdana" font-size="10.00">Object.h</text>
</a>
</g>
</g>
<!-- Node33&#45;&gt;Node34 -->
<g id="edge55" class="edge"><title>Node33&#45;&gt;Node34</title>
<path fill="none" stroke="midnightblue" d="M2747.81,-272.46C2824.03,-261.175 2947.99,-242.821 3031.46,-230.461"/>
<polygon fill="midnightblue" stroke="midnightblue" points="2747.22,-269.009 2737.84,-273.936 2748.25,-275.933 2747.22,-269.009"/>
</g>
<!-- Node36 -->
<g id="node36" class="node"><title>Node36</title>
<g id="a_node36"><a xlink:href="SubsystemObjectCreator_8h.html" target="_top" xlink:title="parameter/SubsystemObject\lCreator.h">
<polygon fill="white" stroke="black" points="2688.5,-201.5 2688.5,-231.5 2843.5,-231.5 2843.5,-201.5 2688.5,-201.5"/>
<text text-anchor="start" x="2696.5" y="-219.5" font-family="Verdana" font-size="10.00">parameter/SubsystemObject</text>
<text text-anchor="middle" x="2766" y="-208.5" font-family="Verdana" font-size="10.00">Creator.h</text>
</a>
</g>
</g>
<!-- Node33&#45;&gt;Node36 -->
<g id="edge57" class="edge"><title>Node33&#45;&gt;Node36</title>
<path fill="none" stroke="midnightblue" d="M2699.79,-267.544C2714.1,-256.725 2733.32,-242.203 2747.36,-231.589"/>
<polygon fill="midnightblue" stroke="midnightblue" points="2697.47,-264.912 2691.6,-273.734 2701.69,-270.496 2697.47,-264.912"/>
</g>
<!-- Node35 -->
<g id="node35" class="node"><title>Node35</title>
<g id="a_node35"><a xlink:href="FormattedSubsystemObject_8cpp.html" target="_top" xlink:title="parameter/FormattedSubsystem\lObject.cpp">
<polygon fill="white" stroke="black" points="3143.5,-134.5 3143.5,-164.5 3318.5,-164.5 3318.5,-134.5 3143.5,-134.5"/>
<text text-anchor="start" x="3151.5" y="-152.5" font-family="Verdana" font-size="10.00">parameter/FormattedSubsystem</text>
<text text-anchor="middle" x="3231" y="-141.5" font-family="Verdana" font-size="10.00">Object.cpp</text>
</a>
</g>
</g>
<!-- Node34&#45;&gt;Node35 -->
<g id="edge56" class="edge"><title>Node34&#45;&gt;Node35</title>
<path fill="none" stroke="midnightblue" d="M3152.09,-196.296C3169.62,-186.125 3190.76,-173.855 3206.75,-164.577"/>
<polygon fill="midnightblue" stroke="midnightblue" points="3150.19,-193.349 3143.3,-201.396 3153.71,-199.404 3150.19,-193.349"/>
</g>
<!-- Node36&#45;&gt;Node17 -->
<g id="edge58" class="edge"><title>Node36&#45;&gt;Node17</title>
<path fill="none" stroke="midnightblue" d="M2746.17,-193.657C2735.47,-181.865 2722.85,-167.967 2714.89,-159.195"/>
<polygon fill="midnightblue" stroke="midnightblue" points="2743.89,-196.344 2753.2,-201.396 2749.07,-191.639 2743.89,-196.344"/>
</g>
<!-- Node37 -->
<g id="node37" class="node"><title>Node37</title>
<g id="a_node37"><a xlink:href="SubsystemObjectCreator_8cpp.html" target="_top" xlink:title="parameter/SubsystemObject\lCreator.cpp">
<polygon fill="white" stroke="black" points="2970.5,-134.5 2970.5,-164.5 3125.5,-164.5 3125.5,-134.5 2970.5,-134.5"/>
<text text-anchor="start" x="2978.5" y="-152.5" font-family="Verdana" font-size="10.00">parameter/SubsystemObject</text>
<text text-anchor="middle" x="3048" y="-141.5" font-family="Verdana" font-size="10.00">Creator.cpp</text>
</a>
</g>
</g>
<!-- Node36&#45;&gt;Node37 -->
<g id="edge59" class="edge"><title>Node36&#45;&gt;Node37</title>
<path fill="none" stroke="midnightblue" d="M2836.78,-199.186C2882.96,-188.54 2942.64,-174.784 2986.78,-164.611"/>
<polygon fill="midnightblue" stroke="midnightblue" points="2835.8,-195.819 2826.84,-201.476 2837.37,-202.64 2835.8,-195.819"/>
</g>
<!-- Node38 -->
<g id="node38" class="node"><title>Node38</title>
<g id="a_node38"><a xlink:href="SubsystemObjectFactory_8h.html" target="_top" xlink:title="parameter/SubsystemObject\lFactory.h">
<polygon fill="white" stroke="black" points="2797.5,-134.5 2797.5,-164.5 2952.5,-164.5 2952.5,-134.5 2797.5,-134.5"/>
<text text-anchor="start" x="2805.5" y="-152.5" font-family="Verdana" font-size="10.00">parameter/SubsystemObject</text>
<text text-anchor="middle" x="2875" y="-141.5" font-family="Verdana" font-size="10.00">Factory.h</text>
</a>
</g>
</g>
<!-- Node36&#45;&gt;Node38 -->
<g id="edge60" class="edge"><title>Node36&#45;&gt;Node38</title>
<path fill="none" stroke="midnightblue" d="M2798.67,-196.015C2815.64,-185.9 2835.98,-173.77 2851.39,-164.577"/>
<polygon fill="midnightblue" stroke="midnightblue" points="2796.45,-193.268 2789.65,-201.396 2800.03,-199.28 2796.45,-193.268"/>
</g>
<!-- Node39&#45;&gt;Node2 -->
<g id="edge63" class="edge"><title>Node39&#45;&gt;Node2</title>
<path fill="none" stroke="midnightblue" d="M1505.35,-262.306C1488.64,-250.1 1468.2,-235.177 1455.65,-226.007"/>
<polygon fill="midnightblue" stroke="midnightblue" points="1503.55,-265.324 1513.69,-268.396 1507.68,-259.672 1503.55,-265.324"/>
</g>
<!-- Node40&#45;&gt;Node12 -->
<g id="edge66" class="edge"><title>Node40&#45;&gt;Node12</title>
<path fill="none" stroke="midnightblue" d="M3326.9,-133.973C2990.12,-96.5753 2600.11,-86.9237 2433.3,-84.3888"/>
<polygon fill="midnightblue" stroke="midnightblue" points="3326.53,-137.452 3336.85,-135.088 3327.3,-130.496 3326.53,-137.452"/>
</g>
<!-- Node40&#45;&gt;Node15 -->
<g id="edge67" class="edge"><title>Node40&#45;&gt;Node15</title>
<path fill="none" stroke="midnightblue" d="M3326.68,-133.877C2870.46,-71.7813 2750.64,-91.72 2298,-31 2285.39,-29.309 2271.8,-27.1665 2259.23,-25.051"/>
<polygon fill="midnightblue" stroke="midnightblue" points="3326.45,-137.379 3336.83,-135.265 3327.4,-130.443 3326.45,-137.379"/>
</g>
<!-- Node41 -->
<g id="node41" class="node"><title>Node41</title>
<g id="a_node41"><a xlink:href="LoggingElementBuilderTemplate_8cpp.html" target="_top" xlink:title="parameter/LoggingElement\lBuilderTemplate.cpp">
<polygon fill="white" stroke="black" points="3337,-67.5 3337,-97.5 3485,-97.5 3485,-67.5 3337,-67.5"/>
<text text-anchor="start" x="3345" y="-85.5" font-family="Verdana" font-size="10.00">parameter/LoggingElement</text>
<text text-anchor="middle" x="3411" y="-74.5" font-family="Verdana" font-size="10.00">BuilderTemplate.cpp</text>
</a>
</g>
</g>
<!-- Node40&#45;&gt;Node41 -->
<g id="edge65" class="edge"><title>Node40&#45;&gt;Node41</title>
<path fill="none" stroke="midnightblue" d="M3411,-124.108C3411,-115.154 3411,-105.323 3411,-97.5765"/>
<polygon fill="midnightblue" stroke="midnightblue" points="3407.5,-124.396 3411,-134.396 3414.5,-124.396 3407.5,-124.396"/>
</g>
</g>
</svg>
