<?xml version="1.0" encoding="UTF-8" standalone="no"?>
<!DOCTYPE svg PUBLIC "-//W3C//DTD SVG 1.1//EN"
 "http://www.w3.org/Graphics/SVG/1.1/DTD/svg11.dtd">
<!-- Generated by graphviz version 2.38.0 (20140413.2041)
 -->
<!-- Title: parameter/MappingContext.cpp Pages: 1 -->
<svg width="466pt" height="140pt"
 viewBox="0.00 0.00 466.00 140.00" xmlns="http://www.w3.org/2000/svg" xmlns:xlink="http://www.w3.org/1999/xlink">
<g id="graph0" class="graph" transform="scale(1 1) rotate(0) translate(4 136)">
<title>parameter/MappingContext.cpp</title>
<polygon fill="white" stroke="none" points="-4,4 -4,-136 462,-136 462,4 -4,4"/>
<!-- Node1 -->
<g id="node1" class="node"><title>Node1</title>
<polygon fill="#bfbfbf" stroke="black" points="239,-112.5 239,-131.5 408,-131.5 408,-112.5 239,-112.5"/>
<text text-anchor="middle" x="323.5" y="-119.5" font-family="Verdana" font-size="10.00">parameter/MappingContext.cpp</text>
</g>
<!-- Node2 -->
<g id="node2" class="node"><title>Node2</title>
<g id="a_node2"><a xlink:href="MappingContext_8h.html" target="_top" xlink:title="MappingContext.h">
<polygon fill="white" stroke="black" points="138.5,-56.5 138.5,-75.5 242.5,-75.5 242.5,-56.5 138.5,-56.5"/>
<text text-anchor="middle" x="190.5" y="-63.5" font-family="Verdana" font-size="10.00">MappingContext.h</text>
</a>
</g>
</g>
<!-- Node1&#45;&gt;Node2 -->
<g id="edge1" class="edge"><title>Node1&#45;&gt;Node2</title>
<path fill="none" stroke="midnightblue" d="M302.426,-112.444C280.44,-103.517 245.766,-89.4387 220.836,-79.3168"/>
<polygon fill="midnightblue" stroke="midnightblue" points="222.058,-76.0355 211.476,-75.5164 219.424,-82.5213 222.058,-76.0355"/>
</g>
<!-- Node7 -->
<g id="node7" class="node"><title>Node7</title>
<polygon fill="white" stroke="#bfbfbf" points="260.5,-56.5 260.5,-75.5 312.5,-75.5 312.5,-56.5 260.5,-56.5"/>
<text text-anchor="middle" x="286.5" y="-63.5" font-family="Verdana" font-size="10.00">cassert</text>
</g>
<!-- Node1&#45;&gt;Node7 -->
<g id="edge6" class="edge"><title>Node1&#45;&gt;Node7</title>
<path fill="none" stroke="midnightblue" d="M317.39,-112.083C312.218,-104.534 304.654,-93.4948 298.306,-84.2298"/>
<polygon fill="midnightblue" stroke="midnightblue" points="301.036,-82.0221 292.496,-75.7511 295.261,-85.9787 301.036,-82.0221"/>
</g>
<!-- Node8 -->
<g id="node8" class="node"><title>Node8</title>
<polygon fill="white" stroke="#bfbfbf" points="330.5,-56.5 330.5,-75.5 392.5,-75.5 392.5,-56.5 330.5,-56.5"/>
<text text-anchor="middle" x="361.5" y="-63.5" font-family="Verdana" font-size="10.00">algorithm</text>
</g>
<!-- Node1&#45;&gt;Node8 -->
<g id="edge7" class="edge"><title>Node1&#45;&gt;Node8</title>
<path fill="none" stroke="midnightblue" d="M329.775,-112.083C335.142,-104.455 343.018,-93.2645 349.579,-83.9408"/>
<polygon fill="midnightblue" stroke="midnightblue" points="352.449,-85.9434 355.342,-75.7511 346.725,-81.9149 352.449,-85.9434"/>
</g>
<!-- Node9 -->
<g id="node9" class="node"><title>Node9</title>
<polygon fill="white" stroke="#bfbfbf" points="411,-56.5 411,-75.5 458,-75.5 458,-56.5 411,-56.5"/>
<text text-anchor="middle" x="434.5" y="-63.5" font-family="Verdana" font-size="10.00">cstdlib</text>
</g>
<!-- Node1&#45;&gt;Node9 -->
<g id="edge8" class="edge"><title>Node1&#45;&gt;Node9</title>
<path fill="none" stroke="midnightblue" d="M341.334,-112.324C359.216,-103.625 386.975,-90.1202 407.546,-80.113"/>
<polygon fill="midnightblue" stroke="midnightblue" points="409.249,-83.1765 416.71,-75.6545 406.187,-76.8819 409.249,-83.1765"/>
</g>
<!-- Node3 -->
<g id="node3" class="node"><title>Node3</title>
<polygon fill="white" stroke="#bfbfbf" points="0,-0.5 0,-19.5 113,-19.5 113,-0.5 0,-0.5"/>
<text text-anchor="middle" x="56.5" y="-7.5" font-family="Verdana" font-size="10.00">parameter_export.h</text>
</g>
<!-- Node2&#45;&gt;Node3 -->
<g id="edge2" class="edge"><title>Node2&#45;&gt;Node3</title>
<path fill="none" stroke="midnightblue" d="M169.267,-56.4435C147.116,-47.5171 112.181,-33.4387 87.064,-23.3168"/>
<polygon fill="midnightblue" stroke="midnightblue" points="88.2168,-20.0079 77.6334,-19.5164 85.6003,-26.5006 88.2168,-20.0079"/>
</g>
<!-- Node4 -->
<g id="node4" class="node"><title>Node4</title>
<polygon fill="white" stroke="#bfbfbf" points="131,-0.5 131,-19.5 184,-19.5 184,-0.5 131,-0.5"/>
<text text-anchor="middle" x="157.5" y="-7.5" font-family="Verdana" font-size="10.00">stdint.h</text>
</g>
<!-- Node2&#45;&gt;Node4 -->
<g id="edge3" class="edge"><title>Node2&#45;&gt;Node4</title>
<path fill="none" stroke="midnightblue" d="M185.051,-56.083C180.486,-48.6127 173.832,-37.7244 168.207,-28.5199"/>
<polygon fill="midnightblue" stroke="midnightblue" points="171.049,-26.4588 162.848,-19.7511 165.076,-30.109 171.049,-26.4588"/>
</g>
<!-- Node5 -->
<g id="node5" class="node"><title>Node5</title>
<polygon fill="white" stroke="#bfbfbf" points="202.5,-0.5 202.5,-19.5 246.5,-19.5 246.5,-0.5 202.5,-0.5"/>
<text text-anchor="middle" x="224.5" y="-7.5" font-family="Verdana" font-size="10.00">string</text>
</g>
<!-- Node2&#45;&gt;Node5 -->
<g id="edge4" class="edge"><title>Node2&#45;&gt;Node5</title>
<path fill="none" stroke="midnightblue" d="M196.114,-56.083C200.867,-48.5341 207.818,-37.4948 213.652,-28.2298"/>
<polygon fill="midnightblue" stroke="midnightblue" points="216.624,-30.0783 218.99,-19.7511 210.7,-26.3486 216.624,-30.0783"/>
</g>
<!-- Node6 -->
<g id="node6" class="node"><title>Node6</title>
<polygon fill="white" stroke="#bfbfbf" points="265,-0.5 265,-19.5 312,-19.5 312,-0.5 265,-0.5"/>
<text text-anchor="middle" x="288.5" y="-7.5" font-family="Verdana" font-size="10.00">vector</text>
</g>
<!-- Node2&#45;&gt;Node6 -->
<g id="edge5" class="edge"><title>Node2&#45;&gt;Node6</title>
<path fill="none" stroke="midnightblue" d="M206.245,-56.324C221.819,-47.7428 245.877,-34.486 263.959,-24.5224"/>
<polygon fill="midnightblue" stroke="midnightblue" points="265.724,-27.546 272.794,-19.6545 262.346,-21.4152 265.724,-27.546"/>
</g>
</g>
</svg>
