<?xml version="1.0" encoding="UTF-8" standalone="no"?>
<!DOCTYPE svg PUBLIC "-//W3C//DTD SVG 1.1//EN"
 "http://www.w3.org/Graphics/SVG/1.1/DTD/svg11.dtd">
<!-- Generated by graphviz version 2.38.0 (20140413.2041)
 -->
<!-- Title: parameter/MappingContext.h Pages: 1 -->
<svg width="1891pt" height="285pt"
 viewBox="0.00 0.00 1891.00 285.00" xmlns="http://www.w3.org/2000/svg" xmlns:xlink="http://www.w3.org/1999/xlink">
<g id="graph0" class="graph" transform="scale(1 1) rotate(0) translate(4 281)">
<title>parameter/MappingContext.h</title>
<polygon fill="white" stroke="none" points="-4,4 -4,-281 1887,-281 1887,4 -4,4"/>
<!-- Node1 -->
<g id="node1" class="node"><title>Node1</title>
<polygon fill="#bfbfbf" stroke="black" points="1183.5,-257.5 1183.5,-276.5 1341.5,-276.5 1341.5,-257.5 1183.5,-257.5"/>
<text text-anchor="middle" x="1262.5" y="-264.5" font-family="Verdana" font-size="10.00">parameter/MappingContext.h</text>
</g>
<!-- Node2 -->
<g id="node2" class="node"><title>Node2</title>
<g id="a_node2"><a xlink:href="Subsystem_8h.html" target="_top" xlink:title="parameter/Subsystem.h">
<polygon fill="white" stroke="black" points="903.5,-196 903.5,-215 1037.5,-215 1037.5,-196 903.5,-196"/>
<text text-anchor="middle" x="970.5" y="-203" font-family="Verdana" font-size="10.00">parameter/Subsystem.h</text>
</a>
</g>
</g>
<!-- Node1&#45;&gt;Node2 -->
<g id="edge1" class="edge"><title>Node1&#45;&gt;Node2</title>
<path fill="none" stroke="midnightblue" d="M1210.84,-255.474C1154.25,-243.943 1064.59,-225.672 1012.26,-215.009"/>
<polygon fill="midnightblue" stroke="midnightblue" points="1210.17,-258.908 1220.66,-257.475 1211.56,-252.049 1210.17,-258.908"/>
</g>
<!-- Node14 -->
<g id="node14" class="node"><title>Node14</title>
<g id="a_node14"><a xlink:href="SubsystemObject_8cpp.html" target="_top" xlink:title="parameter/SubsystemObject.cpp">
<polygon fill="white" stroke="black" points="1197.5,-129 1197.5,-148 1373.5,-148 1373.5,-129 1197.5,-129"/>
<text text-anchor="middle" x="1285.5" y="-136" font-family="Verdana" font-size="10.00">parameter/SubsystemObject.cpp</text>
</a>
</g>
</g>
<!-- Node1&#45;&gt;Node14 -->
<g id="edge22" class="edge"><title>Node1&#45;&gt;Node14</title>
<path fill="none" stroke="midnightblue" d="M1210.54,-254.084C1193.19,-247.365 1175.7,-236.975 1165.5,-221 1158.09,-209.387 1157.88,-201.477 1165.5,-190 1180.44,-167.499 1207.58,-155.001 1232.28,-148.07"/>
<polygon fill="midnightblue" stroke="midnightblue" points="1209.52,-257.435 1220.11,-257.451 1211.84,-250.832 1209.52,-257.435"/>
</g>
<!-- Node15 -->
<g id="node15" class="node"><title>Node15</title>
<g id="a_node15"><a xlink:href="FormattedSubsystemObject_8cpp.html" target="_top" xlink:title="parameter/FormattedSubsystem\lObject.cpp">
<polygon fill="white" stroke="black" points="1175,-190.5 1175,-220.5 1350,-220.5 1350,-190.5 1175,-190.5"/>
<text text-anchor="start" x="1183" y="-208.5" font-family="Verdana" font-size="10.00">parameter/FormattedSubsystem</text>
<text text-anchor="middle" x="1262.5" y="-197.5" font-family="Verdana" font-size="10.00">Object.cpp</text>
</a>
</g>
</g>
<!-- Node1&#45;&gt;Node15 -->
<g id="edge16" class="edge"><title>Node1&#45;&gt;Node15</title>
<path fill="none" stroke="midnightblue" d="M1262.5,-247.235C1262.5,-238.586 1262.5,-228.497 1262.5,-220.523"/>
<polygon fill="midnightblue" stroke="midnightblue" points="1259,-247.475 1262.5,-257.475 1266,-247.475 1259,-247.475"/>
</g>
<!-- Node16 -->
<g id="node16" class="node"><title>Node16</title>
<g id="a_node16"><a xlink:href="MappingContext_8cpp.html" target="_top" xlink:title="parameter/MappingContext.cpp">
<polygon fill="white" stroke="black" points="1368,-196 1368,-215 1537,-215 1537,-196 1368,-196"/>
<text text-anchor="middle" x="1452.5" y="-203" font-family="Verdana" font-size="10.00">parameter/MappingContext.cpp</text>
</a>
</g>
</g>
<!-- Node1&#45;&gt;Node16 -->
<g id="edge17" class="edge"><title>Node1&#45;&gt;Node16</title>
<path fill="none" stroke="midnightblue" d="M1299.6,-254.381C1336.54,-242.815 1392.34,-225.341 1425.33,-215.009"/>
<polygon fill="midnightblue" stroke="midnightblue" points="1298.22,-251.147 1289.72,-257.475 1300.31,-257.827 1298.22,-251.147"/>
</g>
<!-- Node17 -->
<g id="node17" class="node"><title>Node17</title>
<g id="a_node17"><a xlink:href="SubsystemObjectCreator_8h.html" target="_top" xlink:title="parameter/SubsystemObject\lCreator.h">
<polygon fill="white" stroke="black" points="1555,-190.5 1555,-220.5 1710,-220.5 1710,-190.5 1555,-190.5"/>
<text text-anchor="start" x="1563" y="-208.5" font-family="Verdana" font-size="10.00">parameter/SubsystemObject</text>
<text text-anchor="middle" x="1632.5" y="-197.5" font-family="Verdana" font-size="10.00">Creator.h</text>
</a>
</g>
</g>
<!-- Node1&#45;&gt;Node17 -->
<g id="edge18" class="edge"><title>Node1&#45;&gt;Node17</title>
<path fill="none" stroke="midnightblue" d="M1326.79,-255.918C1384.16,-246.886 1470.46,-233.219 1545.5,-221 1548.52,-220.508 1551.6,-220.004 1554.72,-219.493"/>
<polygon fill="midnightblue" stroke="midnightblue" points="1326.11,-252.481 1316.77,-257.493 1327.19,-259.396 1326.11,-252.481"/>
</g>
<!-- Node3 -->
<g id="node3" class="node"><title>Node3</title>
<g id="a_node3"><a xlink:href="BitwiseAreaConfiguration_8cpp.html" target="_top" xlink:title="parameter/BitwiseAreaConfiguration.cpp">
<polygon fill="white" stroke="black" points="565.5,-129 565.5,-148 775.5,-148 775.5,-129 565.5,-129"/>
<text text-anchor="middle" x="670.5" y="-136" font-family="Verdana" font-size="10.00">parameter/BitwiseAreaConfiguration.cpp</text>
</a>
</g>
</g>
<!-- Node2&#45;&gt;Node3 -->
<g id="edge2" class="edge"><title>Node2&#45;&gt;Node3</title>
<path fill="none" stroke="midnightblue" d="M921.129,-193.803C862.093,-181.012 764.459,-159.858 710.116,-148.083"/>
<polygon fill="midnightblue" stroke="midnightblue" points="920.457,-197.239 930.972,-195.936 921.94,-190.397 920.457,-197.239"/>
</g>
<!-- Node4 -->
<g id="node4" class="node"><title>Node4</title>
<g id="a_node4"><a xlink:href="DomainConfiguration_8cpp.html" target="_top" xlink:title="parameter/DomainConfiguration.cpp">
<polygon fill="white" stroke="black" points="793.5,-129 793.5,-148 985.5,-148 985.5,-129 793.5,-129"/>
<text text-anchor="middle" x="889.5" y="-136" font-family="Verdana" font-size="10.00">parameter/DomainConfiguration.cpp</text>
</a>
</g>
</g>
<!-- Node2&#45;&gt;Node4 -->
<g id="edge3" class="edge"><title>Node2&#45;&gt;Node4</title>
<path fill="none" stroke="midnightblue" d="M951.451,-189.213C935.492,-176.407 913.287,-158.588 900.251,-148.127"/>
<polygon fill="midnightblue" stroke="midnightblue" points="949.586,-192.205 959.576,-195.734 953.967,-186.745 949.586,-192.205"/>
</g>
<!-- Node5 -->
<g id="node5" class="node"><title>Node5</title>
<g id="a_node5"><a xlink:href="ParameterHandle_8cpp.html" target="_top" xlink:title="parameter/ParameterHandle.cpp">
<polygon fill="white" stroke="black" points="1004,-129 1004,-148 1179,-148 1179,-129 1004,-129"/>
<text text-anchor="middle" x="1091.5" y="-136" font-family="Verdana" font-size="10.00">parameter/ParameterHandle.cpp</text>
</a>
</g>
</g>
<!-- Node2&#45;&gt;Node5 -->
<g id="edge4" class="edge"><title>Node2&#45;&gt;Node5</title>
<path fill="none" stroke="midnightblue" d="M995.708,-190.959C1019.7,-178.073 1055.06,-159.073 1075.44,-148.127"/>
<polygon fill="midnightblue" stroke="midnightblue" points="993.972,-187.918 986.819,-195.734 997.284,-194.085 993.972,-187.918"/>
</g>
<!-- Node6 -->
<g id="node6" class="node"><title>Node6</title>
<g id="a_node6"><a xlink:href="VirtualSubsystem_8h.html" target="_top" xlink:title="parameter/VirtualSubsystem.h">
<polygon fill="white" stroke="black" points="224.5,-129 224.5,-148 388.5,-148 388.5,-129 224.5,-129"/>
<text text-anchor="middle" x="306.5" y="-136" font-family="Verdana" font-size="10.00">parameter/VirtualSubsystem.h</text>
</a>
</g>
</g>
<!-- Node2&#45;&gt;Node6 -->
<g id="edge5" class="edge"><title>Node2&#45;&gt;Node6</title>
<path fill="none" stroke="midnightblue" d="M893.515,-196.964C767.387,-184.617 517.849,-160.189 388.52,-147.529"/>
<polygon fill="midnightblue" stroke="midnightblue" points="893.192,-200.449 903.486,-197.94 893.874,-193.482 893.192,-200.449"/>
</g>
<!-- Node8 -->
<g id="node8" class="node"><title>Node8</title>
<g id="a_node8"><a xlink:href="ParameterMgr_8cpp.html" target="_top" xlink:title="parameter/ParameterMgr.cpp">
<polygon fill="white" stroke="black" points="479.5,-6 479.5,-25 637.5,-25 637.5,-6 479.5,-6"/>
<text text-anchor="middle" x="558.5" y="-13" font-family="Verdana" font-size="10.00">parameter/ParameterMgr.cpp</text>
</a>
</g>
</g>
<!-- Node2&#45;&gt;Node8 -->
<g id="edge13" class="edge"><title>Node2&#45;&gt;Node8</title>
<path fill="none" stroke="midnightblue" d="M893.117,-200.518C779.458,-193.866 578.399,-178.733 556.5,-154 523.581,-116.821 545.476,-49.2865 554.843,-25.268"/>
<polygon fill="midnightblue" stroke="midnightblue" points="892.977,-204.015 903.162,-201.097 893.38,-197.027 892.977,-204.015"/>
</g>
<!-- Node13 -->
<g id="node13" class="node"><title>Node13</title>
<g id="a_node13"><a xlink:href="Subsystem_8cpp.html" target="_top" xlink:title="parameter/Subsystem.cpp">
<polygon fill="white" stroke="black" points="1392,-129 1392,-148 1537,-148 1537,-129 1392,-129"/>
<text text-anchor="middle" x="1464.5" y="-136" font-family="Verdana" font-size="10.00">parameter/Subsystem.cpp</text>
</a>
</g>
</g>
<!-- Node2&#45;&gt;Node13 -->
<g id="edge14" class="edge"><title>Node2&#45;&gt;Node13</title>
<path fill="none" stroke="midnightblue" d="M1047.82,-196.261C1130.74,-187.137 1266.19,-171.399 1382.5,-154 1394.22,-152.246 1406.85,-150.128 1418.6,-148.059"/>
<polygon fill="midnightblue" stroke="midnightblue" points="1047.29,-192.799 1037.73,-197.368 1048.05,-199.757 1047.29,-192.799"/>
</g>
<!-- Node2&#45;&gt;Node14 -->
<g id="edge15" class="edge"><title>Node2&#45;&gt;Node14</title>
<path fill="none" stroke="midnightblue" d="M1021.97,-193.879C1084.01,-181.077 1187.03,-159.819 1244.15,-148.032"/>
<polygon fill="midnightblue" stroke="midnightblue" points="1021.09,-190.487 1012,-195.936 1022.51,-197.342 1021.09,-190.487"/>
</g>
<!-- Node7 -->
<g id="node7" class="node"><title>Node7</title>
<g id="a_node7"><a xlink:href="SubsystemLibrary_8h.html" target="_top" xlink:title="parameter/SubsystemLibrary.h">
<polygon fill="white" stroke="black" points="318.5,-67.5 318.5,-86.5 482.5,-86.5 482.5,-67.5 318.5,-67.5"/>
<text text-anchor="middle" x="400.5" y="-74.5" font-family="Verdana" font-size="10.00">parameter/SubsystemLibrary.h</text>
</a>
</g>
</g>
<!-- Node6&#45;&gt;Node7 -->
<g id="edge6" class="edge"><title>Node6&#45;&gt;Node7</title>
<path fill="none" stroke="midnightblue" d="M328.729,-123.43C346.851,-111.959 371.851,-96.1343 387.057,-86.5091"/>
<polygon fill="midnightblue" stroke="midnightblue" points="326.546,-120.669 319.968,-128.975 330.289,-126.584 326.546,-120.669"/>
</g>
<!-- Node11 -->
<g id="node11" class="node"><title>Node11</title>
<g id="a_node11"><a xlink:href="SystemClass_8cpp.html" target="_top" xlink:title="parameter/SystemClass.cpp">
<polygon fill="white" stroke="black" points="0,-6 0,-25 153,-25 153,-6 0,-6"/>
<text text-anchor="middle" x="76.5" y="-13" font-family="Verdana" font-size="10.00">parameter/SystemClass.cpp</text>
</a>
</g>
</g>
<!-- Node6&#45;&gt;Node11 -->
<g id="edge11" class="edge"><title>Node6&#45;&gt;Node11</title>
<path fill="none" stroke="midnightblue" d="M214.42,-128.465C180.585,-121.423 143.694,-108.972 115.5,-87 94.7581,-70.8357 83.4479,-40.3916 78.9028,-25.3587"/>
<polygon fill="midnightblue" stroke="midnightblue" points="213.855,-131.921 224.339,-130.396 215.193,-125.05 213.855,-131.921"/>
</g>
<!-- Node12 -->
<g id="node12" class="node"><title>Node12</title>
<g id="a_node12"><a xlink:href="VirtualSubsystem_8cpp.html" target="_top" xlink:title="parameter/VirtualSubsystem.cpp">
<polygon fill="white" stroke="black" points="124.5,-67.5 124.5,-86.5 300.5,-86.5 300.5,-67.5 124.5,-67.5"/>
<text text-anchor="middle" x="212.5" y="-74.5" font-family="Verdana" font-size="10.00">parameter/VirtualSubsystem.cpp</text>
</a>
</g>
</g>
<!-- Node6&#45;&gt;Node12 -->
<g id="edge12" class="edge"><title>Node6&#45;&gt;Node12</title>
<path fill="none" stroke="midnightblue" d="M284.271,-123.43C266.149,-111.959 241.149,-96.1343 225.943,-86.5091"/>
<polygon fill="midnightblue" stroke="midnightblue" points="282.711,-126.584 293.032,-128.975 286.454,-120.669 282.711,-126.584"/>
</g>
<!-- Node7&#45;&gt;Node8 -->
<g id="edge7" class="edge"><title>Node7&#45;&gt;Node8</title>
<path fill="none" stroke="midnightblue" d="M432.544,-63.9329C463.253,-52.3683 508.821,-35.2083 535.904,-25.0091"/>
<polygon fill="midnightblue" stroke="midnightblue" points="431.262,-60.6754 423.138,-67.4751 433.729,-67.2263 431.262,-60.6754"/>
</g>
<!-- Node9 -->
<g id="node9" class="node"><title>Node9</title>
<g id="a_node9"><a xlink:href="Plugin_8h.html" target="_top" xlink:title="This file is intended to be used by the plugins. ">
<polygon fill="white" stroke="black" points="353.5,-6 353.5,-25 461.5,-25 461.5,-6 353.5,-6"/>
<text text-anchor="middle" x="407.5" y="-13" font-family="Verdana" font-size="10.00">parameter/Plugin.h</text>
</a>
</g>
</g>
<!-- Node7&#45;&gt;Node9 -->
<g id="edge8" class="edge"><title>Node7&#45;&gt;Node9</title>
<path fill="none" stroke="midnightblue" d="M402.698,-57.3165C403.971,-46.4962 405.512,-33.398 406.499,-25.0091"/>
<polygon fill="midnightblue" stroke="midnightblue" points="399.195,-57.1346 401.503,-67.4751 406.147,-57.9526 399.195,-57.1346"/>
</g>
<!-- Node10 -->
<g id="node10" class="node"><title>Node10</title>
<g id="a_node10"><a xlink:href="SubsystemElementBuilder_8cpp.html" target="_top" xlink:title="parameter/SubsystemElement\lBuilder.cpp">
<polygon fill="white" stroke="black" points="171.5,-0.5 171.5,-30.5 335.5,-30.5 335.5,-0.5 171.5,-0.5"/>
<text text-anchor="start" x="179.5" y="-18.5" font-family="Verdana" font-size="10.00">parameter/SubsystemElement</text>
<text text-anchor="middle" x="253.5" y="-7.5" font-family="Verdana" font-size="10.00">Builder.cpp</text>
</a>
</g>
</g>
<!-- Node7&#45;&gt;Node10 -->
<g id="edge9" class="edge"><title>Node7&#45;&gt;Node10</title>
<path fill="none" stroke="midnightblue" d="M370.159,-63.7189C346.3,-54.062 313.047,-40.6023 288.145,-30.523"/>
<polygon fill="midnightblue" stroke="midnightblue" points="368.856,-66.9674 379.438,-67.4751 371.482,-60.4788 368.856,-66.9674"/>
</g>
<!-- Node7&#45;&gt;Node11 -->
<g id="edge10" class="edge"><title>Node7&#45;&gt;Node11</title>
<path fill="none" stroke="midnightblue" d="M343.96,-65.6169C281.214,-54.0942 181.138,-35.716 122.835,-25.0091"/>
<polygon fill="midnightblue" stroke="midnightblue" points="343.611,-69.1112 354.079,-67.4751 344.875,-62.2264 343.611,-69.1112"/>
</g>
<!-- Node17&#45;&gt;Node13 -->
<g id="edge19" class="edge"><title>Node17&#45;&gt;Node13</title>
<path fill="none" stroke="midnightblue" d="M1586.71,-186.784C1554.14,-174.181 1511.82,-157.808 1486.49,-148.007"/>
<polygon fill="midnightblue" stroke="midnightblue" points="1585.46,-190.052 1596.05,-190.396 1587.98,-183.523 1585.46,-190.052"/>
</g>
<!-- Node18 -->
<g id="node18" class="node"><title>Node18</title>
<g id="a_node18"><a xlink:href="SubsystemObjectCreator_8cpp.html" target="_top" xlink:title="parameter/SubsystemObject\lCreator.cpp">
<polygon fill="white" stroke="black" points="1555,-123.5 1555,-153.5 1710,-153.5 1710,-123.5 1555,-123.5"/>
<text text-anchor="start" x="1563" y="-141.5" font-family="Verdana" font-size="10.00">parameter/SubsystemObject</text>
<text text-anchor="middle" x="1632.5" y="-130.5" font-family="Verdana" font-size="10.00">Creator.cpp</text>
</a>
</g>
</g>
<!-- Node17&#45;&gt;Node18 -->
<g id="edge20" class="edge"><title>Node17&#45;&gt;Node18</title>
<path fill="none" stroke="midnightblue" d="M1632.5,-180.108C1632.5,-171.154 1632.5,-161.323 1632.5,-153.577"/>
<polygon fill="midnightblue" stroke="midnightblue" points="1629,-180.396 1632.5,-190.396 1636,-180.396 1629,-180.396"/>
</g>
<!-- Node19 -->
<g id="node19" class="node"><title>Node19</title>
<g id="a_node19"><a xlink:href="SubsystemObjectFactory_8h.html" target="_top" xlink:title="parameter/SubsystemObject\lFactory.h">
<polygon fill="white" stroke="black" points="1728,-123.5 1728,-153.5 1883,-153.5 1883,-123.5 1728,-123.5"/>
<text text-anchor="start" x="1736" y="-141.5" font-family="Verdana" font-size="10.00">parameter/SubsystemObject</text>
<text text-anchor="middle" x="1805.5" y="-130.5" font-family="Verdana" font-size="10.00">Factory.h</text>
</a>
</g>
</g>
<!-- Node17&#45;&gt;Node19 -->
<g id="edge21" class="edge"><title>Node17&#45;&gt;Node19</title>
<path fill="none" stroke="midnightblue" d="M1679.56,-186.819C1707.37,-176.371 1742.09,-163.323 1768.03,-153.577"/>
<polygon fill="midnightblue" stroke="midnightblue" points="1678.17,-183.602 1670.04,-190.396 1680.63,-190.155 1678.17,-183.602"/>
</g>
</g>
</svg>
