<?xml version="1.0" encoding="UTF-8" standalone="no"?>
<!DOCTYPE svg PUBLIC "-//W3C//DTD SVG 1.1//EN"
 "http://www.w3.org/Graphics/SVG/1.1/DTD/svg11.dtd">
<!-- Generated by graphviz version 2.38.0 (20140413.2041)
 -->
<!-- Title: parameter/MappingContext.cpp Pages: 1 -->
<svg width="334pt" height="140pt"
 viewBox="0.00 0.00 334.00 140.00" xmlns="http://www.w3.org/2000/svg" xmlns:xlink="http://www.w3.org/1999/xlink">
<g id="graph0" class="graph" transform="scale(1 1) rotate(0) translate(4 136)">
<title>parameter/MappingContext.cpp</title>
<polygon fill="white" stroke="none" points="-4,4 -4,-136 330,-136 330,4 -4,4"/>
<!-- Node1 -->
<g id="node1" class="node"><title>Node1</title>
<polygon fill="#bfbfbf" stroke="black" points="109,-112.5 109,-131.5 278,-131.5 278,-112.5 109,-112.5"/>
<text text-anchor="middle" x="193.5" y="-119.5" font-family="Verdana" font-size="10.00">parameter/MappingContext.cpp</text>
</g>
<!-- Node2 -->
<g id="node2" class="node"><title>Node2</title>
<g id="a_node2"><a xlink:href="MappingContext_8h.html" target="_top" xlink:title="MappingContext.h">
<polygon fill="white" stroke="black" points="7.5,-56.5 7.5,-75.5 111.5,-75.5 111.5,-56.5 7.5,-56.5"/>
<text text-anchor="middle" x="59.5" y="-63.5" font-family="Verdana" font-size="10.00">MappingContext.h</text>
</a>
</g>
</g>
<!-- Node1&#45;&gt;Node2 -->
<g id="edge1" class="edge"><title>Node1&#45;&gt;Node2</title>
<path fill="none" stroke="midnightblue" d="M172.267,-112.444C150.116,-103.517 115.181,-89.4387 90.064,-79.3168"/>
<polygon fill="midnightblue" stroke="midnightblue" points="91.2168,-76.0079 80.6334,-75.5164 88.6003,-82.5006 91.2168,-76.0079"/>
</g>
<!-- Node5 -->
<g id="node5" class="node"><title>Node5</title>
<polygon fill="white" stroke="#bfbfbf" points="129.5,-56.5 129.5,-75.5 185.5,-75.5 185.5,-56.5 129.5,-56.5"/>
<text text-anchor="middle" x="157.5" y="-63.5" font-family="Verdana" font-size="10.00">assert.h</text>
</g>
<!-- Node1&#45;&gt;Node5 -->
<g id="edge4" class="edge"><title>Node1&#45;&gt;Node5</title>
<path fill="none" stroke="midnightblue" d="M187.555,-112.083C182.523,-104.534 175.163,-93.4948 168.987,-84.2298"/>
<polygon fill="midnightblue" stroke="midnightblue" points="171.793,-82.1301 163.334,-75.7511 165.969,-86.0131 171.793,-82.1301"/>
</g>
<!-- Node6 -->
<g id="node6" class="node"><title>Node6</title>
<polygon fill="white" stroke="#bfbfbf" points="204,-56.5 204,-75.5 257,-75.5 257,-56.5 204,-56.5"/>
<text text-anchor="middle" x="230.5" y="-63.5" font-family="Verdana" font-size="10.00">string.h</text>
</g>
<!-- Node1&#45;&gt;Node6 -->
<g id="edge5" class="edge"><title>Node1&#45;&gt;Node6</title>
<path fill="none" stroke="midnightblue" d="M199.61,-112.083C204.782,-104.534 212.346,-93.4948 218.694,-84.2298"/>
<polygon fill="midnightblue" stroke="midnightblue" points="221.739,-85.9787 224.504,-75.7511 215.964,-82.0221 221.739,-85.9787"/>
</g>
<!-- Node7 -->
<g id="node7" class="node"><title>Node7</title>
<polygon fill="white" stroke="#bfbfbf" points="275,-56.5 275,-75.5 326,-75.5 326,-56.5 275,-56.5"/>
<text text-anchor="middle" x="300.5" y="-63.5" font-family="Verdana" font-size="10.00">stdlib.h</text>
</g>
<!-- Node1&#45;&gt;Node7 -->
<g id="edge6" class="edge"><title>Node1&#45;&gt;Node7</title>
<path fill="none" stroke="midnightblue" d="M210.691,-112.324C227.851,-103.664 254.446,-90.2424 274.247,-80.249"/>
<polygon fill="midnightblue" stroke="midnightblue" points="276.001,-83.2847 283.351,-75.6545 272.847,-77.0354 276.001,-83.2847"/>
</g>
<!-- Node3 -->
<g id="node3" class="node"><title>Node3</title>
<polygon fill="white" stroke="#bfbfbf" points="0,-0.5 0,-19.5 53,-19.5 53,-0.5 0,-0.5"/>
<text text-anchor="middle" x="26.5" y="-7.5" font-family="Verdana" font-size="10.00">stdint.h</text>
</g>
<!-- Node2&#45;&gt;Node3 -->
<g id="edge2" class="edge"><title>Node2&#45;&gt;Node3</title>
<path fill="none" stroke="midnightblue" d="M54.0507,-56.083C49.4855,-48.6127 42.8316,-37.7244 37.2066,-28.5199"/>
<polygon fill="midnightblue" stroke="midnightblue" points="40.0489,-26.4588 31.8479,-19.7511 34.0759,-30.109 40.0489,-26.4588"/>
</g>
<!-- Node4 -->
<g id="node4" class="node"><title>Node4</title>
<polygon fill="white" stroke="#bfbfbf" points="71.5,-0.5 71.5,-19.5 115.5,-19.5 115.5,-0.5 71.5,-0.5"/>
<text text-anchor="middle" x="93.5" y="-7.5" font-family="Verdana" font-size="10.00">string</text>
</g>
<!-- Node2&#45;&gt;Node4 -->
<g id="edge3" class="edge"><title>Node2&#45;&gt;Node4</title>
<path fill="none" stroke="midnightblue" d="M65.1144,-56.083C69.8674,-48.5341 76.8181,-37.4948 82.6516,-28.2298"/>
<polygon fill="midnightblue" stroke="midnightblue" points="85.6237,-30.0783 87.9901,-19.7511 79.7001,-26.3486 85.6237,-30.0783"/>
</g>
</g>
</svg>
