<?xml version="1.0" encoding="UTF-8" standalone="no"?>
<!DOCTYPE svg PUBLIC "-//W3C//DTD SVG 1.1//EN"
 "http://www.w3.org/Graphics/SVG/1.1/DTD/svg11.dtd">
<!-- Generated by graphviz version 2.36.0 (20140111.2315)
 -->
<!-- Title: remote&#45;processor/Message.h Pages: 1 -->
<svg width="829pt" height="300pt"
 viewBox="0.00 0.00 829.00 300.00" xmlns="http://www.w3.org/2000/svg" xmlns:xlink="http://www.w3.org/1999/xlink">
<g id="graph0" class="graph" transform="scale(1 1) rotate(0) translate(4 296)">
<title>remote&#45;processor/Message.h</title>
<polygon fill="white" stroke="none" points="-4,4 -4,-296 825,-296 825,4 -4,4"/>
<!-- Node1 -->
<g id="node1" class="node"><title>Node1</title>
<polygon fill="#bfbfbf" stroke="black" points="296,-272.5 296,-291.5 454,-291.5 454,-272.5 296,-272.5"/>
<text text-anchor="middle" x="375" y="-279.5" font-family="Verdana" font-size="10.00">remote&#45;processor/Message.h</text>
</g>
<!-- Node2 -->
<g id="node2" class="node"><title>Node2</title>
<g id="a_node2"><a xlink:href="AnswerMessage_8h.html" target="_top" xlink:title="remote&#45;processor/AnswerMessage.h">
<polygon fill="white" stroke="black" points="80,-210.5 80,-229.5 272,-229.5 272,-210.5 80,-210.5"/>
<text text-anchor="middle" x="176" y="-217.5" font-family="Verdana" font-size="10.00">remote&#45;processor/AnswerMessage.h</text>
</a>
</g>
</g>
<!-- Node1&#45;&gt;Node2 -->
<g id="edge1" class="edge"><title>Node1&#45;&gt;Node2</title>
<path fill="none" stroke="midnightblue" d="M336.633,-269.432C297.958,-257.771 239.161,-240.044 204.459,-229.581"/>
<polygon fill="midnightblue" stroke="midnightblue" points="335.903,-272.868 346.488,-272.403 337.924,-266.166 335.903,-272.868"/>
</g>
<!-- Node6 -->
<g id="node6" class="node"><title>Node6</title>
<g id="a_node6"><a xlink:href="Message_8cpp.html" target="_top" xlink:title="remote&#45;processor/Message.cpp">
<polygon fill="white" stroke="black" points="290.5,-210.5 290.5,-229.5 459.5,-229.5 459.5,-210.5 290.5,-210.5"/>
<text text-anchor="middle" x="375" y="-217.5" font-family="Verdana" font-size="10.00">remote&#45;processor/Message.cpp</text>
</a>
</g>
</g>
<!-- Node1&#45;&gt;Node6 -->
<g id="edge5" class="edge"><title>Node1&#45;&gt;Node6</title>
<path fill="none" stroke="midnightblue" d="M375,-262.16C375,-251.248 375,-238.04 375,-229.581"/>
<polygon fill="midnightblue" stroke="midnightblue" points="371.5,-262.403 375,-272.403 378.5,-262.403 371.5,-262.403"/>
</g>
<!-- Node7 -->
<g id="node7" class="node"><title>Node7</title>
<g id="a_node7"><a xlink:href="RequestMessage_8h.html" target="_top" xlink:title="remote&#45;processor/Request\lMessage.h">
<polygon fill="white" stroke="black" points="478,-205 478,-235 622,-235 622,-205 478,-205"/>
<text text-anchor="start" x="486" y="-223" font-family="Verdana" font-size="10.00">remote&#45;processor/Request</text>
<text text-anchor="middle" x="550" y="-212" font-family="Verdana" font-size="10.00">Message.h</text>
</a>
</g>
</g>
<!-- Node1&#45;&gt;Node7 -->
<g id="edge6" class="edge"><title>Node1&#45;&gt;Node7</title>
<path fill="none" stroke="midnightblue" d="M409.65,-269.12C438.251,-259.314 478.897,-245.378 509.093,-235.025"/>
<polygon fill="midnightblue" stroke="midnightblue" points="408.398,-265.849 400.073,-272.403 410.668,-272.471 408.398,-265.849"/>
</g>
<!-- Node3 -->
<g id="node3" class="node"><title>Node3</title>
<g id="a_node3"><a xlink:href="main_8cpp.html" target="_top" xlink:title="remote&#45;process/main.cpp">
<polygon fill="white" stroke="black" points="259,-142.5 259,-161.5 399,-161.5 399,-142.5 259,-142.5"/>
<text text-anchor="middle" x="329" y="-149.5" font-family="Verdana" font-size="10.00">remote&#45;process/main.cpp</text>
</a>
</g>
</g>
<!-- Node2&#45;&gt;Node3 -->
<g id="edge2" class="edge"><title>Node2&#45;&gt;Node3</title>
<path fill="none" stroke="midnightblue" d="M205.262,-206.377C235.7,-193.247 282.532,-173.045 308.993,-161.63"/>
<polygon fill="midnightblue" stroke="midnightblue" points="203.798,-203.197 196.002,-210.372 206.571,-209.624 203.798,-203.197"/>
</g>
<!-- Node4 -->
<g id="node4" class="node"><title>Node4</title>
<g id="a_node4"><a xlink:href="AnswerMessage_8cpp.html" target="_top" xlink:title="remote&#45;processor/AnswerMessage.cpp">
<polygon fill="white" stroke="black" points="-0.5,-142.5 -0.5,-161.5 202.5,-161.5 202.5,-142.5 -0.5,-142.5"/>
<text text-anchor="middle" x="101" y="-149.5" font-family="Verdana" font-size="10.00">remote&#45;processor/AnswerMessage.cpp</text>
</a>
</g>
</g>
<!-- Node2&#45;&gt;Node4 -->
<g id="edge3" class="edge"><title>Node2&#45;&gt;Node4</title>
<path fill="none" stroke="midnightblue" d="M158.287,-203.412C143.553,-190.447 123.109,-172.456 111.047,-161.841"/>
<polygon fill="midnightblue" stroke="midnightblue" points="156.376,-206.393 166.195,-210.372 161,-201.138 156.376,-206.393"/>
</g>
<!-- Node5 -->
<g id="node5" class="node"><title>Node5</title>
<g id="a_node5"><a xlink:href="RemoteProcessorServer_8cpp.html" target="_top" xlink:title="remote&#45;processor/RemoteProcessor\lServer.cpp">
<polygon fill="white" stroke="black" points="332,-1 332,-31 522,-31 522,-1 332,-1"/>
<text text-anchor="start" x="340" y="-19" font-family="Verdana" font-size="10.00">remote&#45;processor/RemoteProcessor</text>
<text text-anchor="middle" x="427" y="-8" font-family="Verdana" font-size="10.00">Server.cpp</text>
</a>
</g>
</g>
<!-- Node2&#45;&gt;Node5 -->
<g id="edge4" class="edge"><title>Node2&#45;&gt;Node5</title>
<path fill="none" stroke="midnightblue" d="M188.904,-202.173C202.872,-184.557 226.337,-156.64 250,-136 299.809,-92.5527 366.212,-51.8387 401.851,-31.1695"/>
<polygon fill="midnightblue" stroke="midnightblue" points="185.912,-200.317 182.515,-210.352 191.429,-204.626 185.912,-200.317"/>
</g>
<!-- Node7&#45;&gt;Node3 -->
<g id="edge7" class="edge"><title>Node7&#45;&gt;Node3</title>
<path fill="none" stroke="midnightblue" d="M493.27,-202.058C449.817,-189.081 391.695,-171.723 357.508,-161.514"/>
<polygon fill="midnightblue" stroke="midnightblue" points="492.278,-205.414 502.861,-204.922 494.281,-198.707 492.278,-205.414"/>
</g>
<!-- Node7&#45;&gt;Node5 -->
<g id="edge13" class="edge"><title>Node7&#45;&gt;Node5</title>
<path fill="none" stroke="midnightblue" d="M488.261,-200.81C472.148,-193.175 456.403,-182.571 446,-168 415.909,-125.852 420.757,-59.7298 424.683,-31.0502"/>
<polygon fill="midnightblue" stroke="midnightblue" points="487.19,-204.161 497.754,-204.969 489.999,-197.75 487.19,-204.161"/>
</g>
<!-- Node8 -->
<g id="node8" class="node"><title>Node8</title>
<g id="a_node8"><a xlink:href="RemoteProcessorServerInterface_8h.html" target="_top" xlink:title="remote&#45;processor/RemoteProcessor\lServerInterface.h">
<polygon fill="white" stroke="black" points="455,-137 455,-167 645,-167 645,-137 455,-137"/>
<text text-anchor="start" x="463" y="-155" font-family="Verdana" font-size="10.00">remote&#45;processor/RemoteProcessor</text>
<text text-anchor="middle" x="550" y="-144" font-family="Verdana" font-size="10.00">ServerInterface.h</text>
</a>
</g>
</g>
<!-- Node7&#45;&gt;Node8 -->
<g id="edge8" class="edge"><title>Node7&#45;&gt;Node8</title>
<path fill="none" stroke="midnightblue" d="M550,-194.532C550,-185.361 550,-175.245 550,-167.293"/>
<polygon fill="midnightblue" stroke="midnightblue" points="546.5,-194.679 550,-204.679 553.5,-194.679 546.5,-194.679"/>
</g>
<!-- Node12 -->
<g id="node12" class="node"><title>Node12</title>
<g id="a_node12"><a xlink:href="RequestMessage_8cpp.html" target="_top" xlink:title="remote&#45;processor/Request\lMessage.cpp">
<polygon fill="white" stroke="black" points="663,-137 663,-167 807,-167 807,-137 663,-137"/>
<text text-anchor="start" x="671" y="-155" font-family="Verdana" font-size="10.00">remote&#45;processor/Request</text>
<text text-anchor="middle" x="735" y="-144" font-family="Verdana" font-size="10.00">Message.cpp</text>
</a>
</g>
</g>
<!-- Node7&#45;&gt;Node12 -->
<g id="edge14" class="edge"><title>Node7&#45;&gt;Node12</title>
<path fill="none" stroke="midnightblue" d="M599.188,-201.452C629.38,-190.68 667.525,-177.072 695.696,-167.022"/>
<polygon fill="midnightblue" stroke="midnightblue" points="597.93,-198.185 589.687,-204.841 600.282,-204.778 597.93,-198.185"/>
</g>
<!-- Node9 -->
<g id="node9" class="node"><title>Node9</title>
<g id="a_node9"><a xlink:href="ParameterMgr_8cpp.html" target="_top" xlink:title="parameter/ParameterMgr.cpp">
<polygon fill="white" stroke="black" points="455,-74.5 455,-93.5 613,-93.5 613,-74.5 455,-74.5"/>
<text text-anchor="middle" x="534" y="-81.5" font-family="Verdana" font-size="10.00">parameter/ParameterMgr.cpp</text>
</a>
</g>
</g>
<!-- Node8&#45;&gt;Node9 -->
<g id="edge9" class="edge"><title>Node8&#45;&gt;Node9</title>
<path fill="none" stroke="midnightblue" d="M544.116,-126.729C541.33,-115.236 538.175,-102.222 536.14,-93.8283"/>
<polygon fill="midnightblue" stroke="midnightblue" points="540.771,-127.785 546.528,-136.679 547.574,-126.136 540.771,-127.785"/>
</g>
<!-- Node10 -->
<g id="node10" class="node"><title>Node10</title>
<g id="a_node10"><a xlink:href="RemoteProcessorServer_8h.html" target="_top" xlink:title="remote&#45;processor/RemoteProcessor\lServer.h">
<polygon fill="white" stroke="black" points="631,-69 631,-99 821,-99 821,-69 631,-69"/>
<text text-anchor="start" x="639" y="-87" font-family="Verdana" font-size="10.00">remote&#45;processor/RemoteProcessor</text>
<text text-anchor="middle" x="726" y="-76" font-family="Verdana" font-size="10.00">Server.h</text>
</a>
</g>
</g>
<!-- Node8&#45;&gt;Node10 -->
<g id="edge10" class="edge"><title>Node8&#45;&gt;Node10</title>
<path fill="none" stroke="midnightblue" d="M597.168,-133.312C625.833,-122.563 661.923,-109.029 688.608,-99.0218"/>
<polygon fill="midnightblue" stroke="midnightblue" points="595.891,-130.053 587.756,-136.841 598.349,-136.607 595.891,-130.053"/>
</g>
<!-- Node10&#45;&gt;Node5 -->
<g id="edge11" class="edge"><title>Node10&#45;&gt;Node5</title>
<path fill="none" stroke="midnightblue" d="M652.205,-66.7107C602.638,-55.7696 537.989,-41.4992 490.678,-31.0561"/>
<polygon fill="midnightblue" stroke="midnightblue" points="651.704,-70.1845 662.224,-68.9223 653.213,-63.349 651.704,-70.1845"/>
</g>
<!-- Node11 -->
<g id="node11" class="node"><title>Node11</title>
<g id="a_node11"><a xlink:href="RemoteProcessorServerBuilder_8cpp.html" target="_top" xlink:title="remote&#45;processor/RemoteProcessor\lServerBuilder.cpp">
<polygon fill="white" stroke="black" points="631,-1 631,-31 821,-31 821,-1 631,-1"/>
<text text-anchor="start" x="639" y="-19" font-family="Verdana" font-size="10.00">remote&#45;processor/RemoteProcessor</text>
<text text-anchor="middle" x="726" y="-8" font-family="Verdana" font-size="10.00">ServerBuilder.cpp</text>
</a>
</g>
</g>
<!-- Node10&#45;&gt;Node11 -->
<g id="edge12" class="edge"><title>Node10&#45;&gt;Node11</title>
<path fill="none" stroke="midnightblue" d="M726,-58.5322C726,-49.3606 726,-39.2449 726,-31.2931"/>
<polygon fill="midnightblue" stroke="midnightblue" points="722.5,-58.6789 726,-68.679 729.5,-58.679 722.5,-58.6789"/>
</g>
</g>
</svg>
