<?xml version="1.0" encoding="UTF-8" standalone="no"?>
<!DOCTYPE svg PUBLIC "-//W3C//DTD SVG 1.1//EN"
 "http://www.w3.org/Graphics/SVG/1.1/DTD/svg11.dtd">
<!-- Generated by graphviz version 2.38.0 (20140413.2041)
 -->
<!-- Title: remote&#45;processor/Message.h Pages: 1 -->
<svg width="879pt" height="363pt"
 viewBox="0.00 0.00 879.00 363.00" xmlns="http://www.w3.org/2000/svg" xmlns:xlink="http://www.w3.org/1999/xlink">
<g id="graph0" class="graph" transform="scale(1 1) rotate(0) translate(4 359)">
<title>remote&#45;processor/Message.h</title>
<polygon fill="white" stroke="none" points="-4,4 -4,-359 875,-359 875,4 -4,4"/>
<!-- Node1 -->
<g id="node1" class="node"><title>Node1</title>
<polygon fill="#bfbfbf" stroke="black" points="348.5,-335.5 348.5,-354.5 506.5,-354.5 506.5,-335.5 348.5,-335.5"/>
<text text-anchor="middle" x="427.5" y="-342.5" font-family="Verdana" font-size="10.00">remote&#45;processor/Message.h</text>
</g>
<!-- Node2 -->
<g id="node2" class="node"><title>Node2</title>
<g id="a_node2"><a xlink:href="AnswerMessage_8h.html" target="_top" xlink:title="remote&#45;processor/AnswerMessage.h">
<polygon fill="white" stroke="black" points="140.5,-274 140.5,-293 332.5,-293 332.5,-274 140.5,-274"/>
<text text-anchor="middle" x="236.5" y="-281" font-family="Verdana" font-size="10.00">remote&#45;processor/AnswerMessage.h</text>
</a>
</g>
</g>
<!-- Node1&#45;&gt;Node2 -->
<g id="edge1" class="edge"><title>Node1&#45;&gt;Node2</title>
<path fill="none" stroke="midnightblue" d="M390.201,-332.381C353.075,-320.815 296.98,-303.341 263.815,-293.009"/>
<polygon fill="midnightblue" stroke="midnightblue" points="389.546,-335.842 400.134,-335.475 391.628,-329.159 389.546,-335.842"/>
</g>
<!-- Node6 -->
<g id="node6" class="node"><title>Node6</title>
<g id="a_node6"><a xlink:href="RequestMessage_8h.html" target="_top" xlink:title="remote&#45;processor/Request\lMessage.h">
<polygon fill="white" stroke="black" points="355.5,-268.5 355.5,-298.5 499.5,-298.5 499.5,-268.5 355.5,-268.5"/>
<text text-anchor="start" x="363.5" y="-286.5" font-family="Verdana" font-size="10.00">remote&#45;processor/Request</text>
<text text-anchor="middle" x="427.5" y="-275.5" font-family="Verdana" font-size="10.00">Message.h</text>
</a>
</g>
</g>
<!-- Node1&#45;&gt;Node6 -->
<g id="edge5" class="edge"><title>Node1&#45;&gt;Node6</title>
<path fill="none" stroke="midnightblue" d="M427.5,-325.235C427.5,-316.586 427.5,-306.497 427.5,-298.523"/>
<polygon fill="midnightblue" stroke="midnightblue" points="424,-325.475 427.5,-335.475 431,-325.475 424,-325.475"/>
</g>
<!-- Node15 -->
<g id="node15" class="node"><title>Node15</title>
<g id="a_node15"><a xlink:href="Message_8cpp.html" target="_top" xlink:title="remote&#45;processor/Message.cpp">
<polygon fill="white" stroke="black" points="518,-274 518,-293 687,-293 687,-274 518,-274"/>
<text text-anchor="middle" x="602.5" y="-281" font-family="Verdana" font-size="10.00">remote&#45;processor/Message.cpp</text>
</a>
</g>
</g>
<!-- Node1&#45;&gt;Node15 -->
<g id="edge17" class="edge"><title>Node1&#45;&gt;Node15</title>
<path fill="none" stroke="midnightblue" d="M462.112,-332.232C496.129,-320.666 547.216,-303.297 577.473,-293.009"/>
<polygon fill="midnightblue" stroke="midnightblue" points="460.914,-328.942 452.573,-335.475 463.168,-335.57 460.914,-328.942"/>
</g>
<!-- Node3 -->
<g id="node3" class="node"><title>Node3</title>
<g id="a_node3"><a xlink:href="remote-process_2main_8cpp.html" target="_top" xlink:title="remote&#45;process/main.cpp">
<polygon fill="white" stroke="black" points="259.5,-207 259.5,-226 399.5,-226 399.5,-207 259.5,-207"/>
<text text-anchor="middle" x="329.5" y="-214" font-family="Verdana" font-size="10.00">remote&#45;process/main.cpp</text>
</a>
</g>
</g>
<!-- Node2&#45;&gt;Node3 -->
<g id="edge2" class="edge"><title>Node2&#45;&gt;Node3</title>
<path fill="none" stroke="midnightblue" d="M257.361,-267.92C275.747,-255.069 301.912,-236.782 317.156,-226.127"/>
<polygon fill="midnightblue" stroke="midnightblue" points="255.234,-265.136 249.042,-273.734 259.244,-270.874 255.234,-265.136"/>
</g>
<!-- Node4 -->
<g id="node4" class="node"><title>Node4</title>
<g id="a_node4"><a xlink:href="AnswerMessage_8cpp.html" target="_top" xlink:title="remote&#45;processor/AnswerMessage.cpp">
<polygon fill="white" stroke="black" points="0,-207 0,-226 203,-226 203,-207 0,-207"/>
<text text-anchor="middle" x="101.5" y="-214" font-family="Verdana" font-size="10.00">remote&#45;processor/AnswerMessage.cpp</text>
</a>
</g>
</g>
<!-- Node2&#45;&gt;Node4 -->
<g id="edge3" class="edge"><title>Node2&#45;&gt;Node4</title>
<path fill="none" stroke="midnightblue" d="M209.383,-269.444C182.644,-256.569 142.534,-237.257 119.501,-226.167"/>
<polygon fill="midnightblue" stroke="midnightblue" points="208.045,-272.684 218.573,-273.869 211.081,-266.377 208.045,-272.684"/>
</g>
<!-- Node5 -->
<g id="node5" class="node"><title>Node5</title>
<g id="a_node5"><a xlink:href="RemoteProcessorServer_8cpp.html" target="_top" xlink:title="remote&#45;processor/RemoteProcessor\lServer.cpp">
<polygon fill="white" stroke="black" points="255.5,-67.5 255.5,-97.5 445.5,-97.5 445.5,-67.5 255.5,-67.5"/>
<text text-anchor="start" x="263.5" y="-85.5" font-family="Verdana" font-size="10.00">remote&#45;processor/RemoteProcessor</text>
<text text-anchor="middle" x="350.5" y="-74.5" font-family="Verdana" font-size="10.00">Server.cpp</text>
</a>
</g>
</g>
<!-- Node2&#45;&gt;Node5 -->
<g id="edge4" class="edge"><title>Node2&#45;&gt;Node5</title>
<path fill="none" stroke="midnightblue" d="M236.927,-263.657C237.952,-246.575 241.108,-221.074 250.5,-201 270.706,-157.812 311.159,-117.876 333.934,-97.5492"/>
<polygon fill="midnightblue" stroke="midnightblue" points="233.417,-263.834 236.507,-273.969 240.411,-264.119 233.417,-263.834"/>
</g>
<!-- Node6&#45;&gt;Node3 -->
<g id="edge6" class="edge"><title>Node6&#45;&gt;Node3</title>
<path fill="none" stroke="midnightblue" d="M397.81,-262.808C379.271,-250.512 356.342,-235.303 342.326,-226.007"/>
<polygon fill="midnightblue" stroke="midnightblue" points="395.967,-265.785 406.235,-268.396 399.836,-259.952 395.967,-265.785"/>
</g>
<!-- Node6&#45;&gt;Node5 -->
<g id="edge15" class="edge"><title>Node6&#45;&gt;Node5</title>
<path fill="none" stroke="midnightblue" d="M423.405,-258.48C420.237,-242.024 415.249,-219.851 408.5,-201 394.545,-162.019 371.117,-119.076 358.739,-97.5065"/>
<polygon fill="midnightblue" stroke="midnightblue" points="419.974,-259.174 425.225,-268.376 426.859,-257.908 419.974,-259.174"/>
</g>
<!-- Node7 -->
<g id="node7" class="node"><title>Node7</title>
<g id="a_node7"><a xlink:href="RemoteProcessorServerInterface_8h.html" target="_top" xlink:title="remote&#45;processor/RemoteProcessor\lServerInterface.h">
<polygon fill="white" stroke="black" points="455.5,-201.5 455.5,-231.5 645.5,-231.5 645.5,-201.5 455.5,-201.5"/>
<text text-anchor="start" x="463.5" y="-219.5" font-family="Verdana" font-size="10.00">remote&#45;processor/RemoteProcessor</text>
<text text-anchor="middle" x="550.5" y="-208.5" font-family="Verdana" font-size="10.00">ServerInterface.h</text>
</a>
</g>
</g>
<!-- Node6&#45;&gt;Node7 -->
<g id="edge7" class="edge"><title>Node6&#45;&gt;Node7</title>
<path fill="none" stroke="midnightblue" d="M463.048,-263.714C482.447,-253.463 506.064,-240.983 523.863,-231.577"/>
<polygon fill="midnightblue" stroke="midnightblue" points="461.395,-260.629 454.189,-268.396 464.666,-266.818 461.395,-260.629"/>
</g>
<!-- Node14 -->
<g id="node14" class="node"><title>Node14</title>
<g id="a_node14"><a xlink:href="RequestMessage_8cpp.html" target="_top" xlink:title="remote&#45;processor/Request\lMessage.cpp">
<polygon fill="white" stroke="black" points="663.5,-201.5 663.5,-231.5 807.5,-231.5 807.5,-201.5 663.5,-201.5"/>
<text text-anchor="start" x="671.5" y="-219.5" font-family="Verdana" font-size="10.00">remote&#45;processor/Request</text>
<text text-anchor="middle" x="735.5" y="-208.5" font-family="Verdana" font-size="10.00">Message.cpp</text>
</a>
</g>
</g>
<!-- Node6&#45;&gt;Node14 -->
<g id="edge16" class="edge"><title>Node6&#45;&gt;Node14</title>
<path fill="none" stroke="midnightblue" d="M503.873,-266.382C554.534,-255.691 620.373,-241.796 668.902,-231.555"/>
<polygon fill="midnightblue" stroke="midnightblue" points="503.014,-262.986 493.952,-268.476 504.459,-269.836 503.014,-262.986"/>
</g>
<!-- Node8 -->
<g id="node8" class="node"><title>Node8</title>
<g id="a_node8"><a xlink:href="RemoteProcessorServer_8h.html" target="_top" xlink:title="remote&#45;processor/RemoteProcessor\lServer.h">
<polygon fill="white" stroke="black" points="455.5,-134.5 455.5,-164.5 645.5,-164.5 645.5,-134.5 455.5,-134.5"/>
<text text-anchor="start" x="463.5" y="-152.5" font-family="Verdana" font-size="10.00">remote&#45;processor/RemoteProcessor</text>
<text text-anchor="middle" x="550.5" y="-141.5" font-family="Verdana" font-size="10.00">Server.h</text>
</a>
</g>
</g>
<!-- Node7&#45;&gt;Node8 -->
<g id="edge8" class="edge"><title>Node7&#45;&gt;Node8</title>
<path fill="none" stroke="midnightblue" d="M550.5,-191.108C550.5,-182.154 550.5,-172.323 550.5,-164.577"/>
<polygon fill="midnightblue" stroke="midnightblue" points="547,-191.396 550.5,-201.396 554,-191.396 547,-191.396"/>
</g>
<!-- Node8&#45;&gt;Node5 -->
<g id="edge11" class="edge"><title>Node8&#45;&gt;Node5</title>
<path fill="none" stroke="midnightblue" d="M497.355,-131.228C465.002,-120.713 424.195,-107.451 393.812,-97.5765"/>
<polygon fill="midnightblue" stroke="midnightblue" points="496.511,-134.634 507.103,-134.396 498.674,-127.976 496.511,-134.634"/>
</g>
<!-- Node9 -->
<g id="node9" class="node"><title>Node9</title>
<g id="a_node9"><a xlink:href="BackgroundRemoteProcessorServerBuilder_8h.html" target="_top" xlink:title="remote&#45;processor/Background\lRemoteProcessorServerBuilder.h">
<polygon fill="white" stroke="black" points="464,-67.5 464,-97.5 637,-97.5 637,-67.5 464,-67.5"/>
<text text-anchor="start" x="472" y="-85.5" font-family="Verdana" font-size="10.00">remote&#45;processor/Background</text>
<text text-anchor="middle" x="550.5" y="-74.5" font-family="Verdana" font-size="10.00">RemoteProcessorServerBuilder.h</text>
</a>
</g>
</g>
<!-- Node8&#45;&gt;Node9 -->
<g id="edge9" class="edge"><title>Node8&#45;&gt;Node9</title>
<path fill="none" stroke="midnightblue" d="M550.5,-124.108C550.5,-115.154 550.5,-105.323 550.5,-97.5765"/>
<polygon fill="midnightblue" stroke="midnightblue" points="547,-124.396 550.5,-134.396 554,-124.396 547,-124.396"/>
</g>
<!-- Node11 -->
<g id="node11" class="node"><title>Node11</title>
<g id="a_node11"><a xlink:href="TestPlatform_8h.html" target="_top" xlink:title="test/test&#45;platform\l/TestPlatform.h">
<polygon fill="white" stroke="black" points="655,-67.5 655,-97.5 756,-97.5 756,-67.5 655,-67.5"/>
<text text-anchor="start" x="663" y="-85.5" font-family="Verdana" font-size="10.00">test/test&#45;platform</text>
<text text-anchor="middle" x="705.5" y="-74.5" font-family="Verdana" font-size="10.00">/TestPlatform.h</text>
</a>
</g>
</g>
<!-- Node8&#45;&gt;Node11 -->
<g id="edge12" class="edge"><title>Node8&#45;&gt;Node11</title>
<path fill="none" stroke="midnightblue" d="M593.646,-130.407C618.391,-120.029 648.996,-107.195 671.933,-97.5765"/>
<polygon fill="midnightblue" stroke="midnightblue" points="592.001,-127.301 584.133,-134.396 594.708,-133.756 592.001,-127.301"/>
</g>
<!-- Node10 -->
<g id="node10" class="node"><title>Node10</title>
<g id="a_node10"><a xlink:href="ParameterMgr_8cpp.html" target="_top" xlink:title="parameter/ParameterMgr.cpp">
<polygon fill="white" stroke="black" points="471.5,-6 471.5,-25 629.5,-25 629.5,-6 471.5,-6"/>
<text text-anchor="middle" x="550.5" y="-13" font-family="Verdana" font-size="10.00">parameter/ParameterMgr.cpp</text>
</a>
</g>
</g>
<!-- Node9&#45;&gt;Node10 -->
<g id="edge10" class="edge"><title>Node9&#45;&gt;Node10</title>
<path fill="none" stroke="midnightblue" d="M550.5,-57.2495C550.5,-46.017 550.5,-33.3767 550.5,-25.1945"/>
<polygon fill="midnightblue" stroke="midnightblue" points="547,-57.3959 550.5,-67.396 554,-57.396 547,-57.3959"/>
</g>
<!-- Node12 -->
<g id="node12" class="node"><title>Node12</title>
<g id="a_node12"><a xlink:href="test_2test-platform_2main_8cpp.html" target="_top" xlink:title="test/test&#45;platform\l/main.cpp">
<polygon fill="white" stroke="black" points="651,-0.5 651,-30.5 752,-30.5 752,-0.5 651,-0.5"/>
<text text-anchor="start" x="659" y="-18.5" font-family="Verdana" font-size="10.00">test/test&#45;platform</text>
<text text-anchor="middle" x="701.5" y="-7.5" font-family="Verdana" font-size="10.00">/main.cpp</text>
</a>
</g>
</g>
<!-- Node11&#45;&gt;Node12 -->
<g id="edge13" class="edge"><title>Node11&#45;&gt;Node12</title>
<path fill="none" stroke="midnightblue" d="M704.017,-57.4029C703.461,-48.3703 702.848,-38.4078 702.366,-30.5765"/>
<polygon fill="midnightblue" stroke="midnightblue" points="700.524,-57.6299 704.632,-67.396 707.511,-57.1998 700.524,-57.6299"/>
</g>
<!-- Node13 -->
<g id="node13" class="node"><title>Node13</title>
<g id="a_node13"><a xlink:href="TestPlatform_8cpp.html" target="_top" xlink:title="test/test&#45;platform\l/TestPlatform.cpp">
<polygon fill="white" stroke="black" points="770,-0.5 770,-30.5 871,-30.5 871,-0.5 770,-0.5"/>
<text text-anchor="start" x="778" y="-18.5" font-family="Verdana" font-size="10.00">test/test&#45;platform</text>
<text text-anchor="middle" x="820.5" y="-7.5" font-family="Verdana" font-size="10.00">/TestPlatform.cpp</text>
</a>
</g>
</g>
<!-- Node11&#45;&gt;Node13 -->
<g id="edge14" class="edge"><title>Node11&#45;&gt;Node13</title>
<path fill="none" stroke="midnightblue" d="M739.477,-62.2956C757.471,-52.1248 779.18,-39.8549 795.595,-30.5765"/>
<polygon fill="midnightblue" stroke="midnightblue" points="737.437,-59.4284 730.453,-67.396 740.881,-65.5223 737.437,-59.4284"/>
</g>
</g>
</svg>
