<?xml version="1.0" encoding="UTF-8" standalone="no"?>
<!DOCTYPE svg PUBLIC "-//W3C//DTD SVG 1.1//EN"
 "http://www.w3.org/Graphics/SVG/1.1/DTD/svg11.dtd">
<!-- Generated by graphviz version 2.38.0 (20140413.2041)
 -->
<!-- Title: remote&#45;processor/Message.h Pages: 1 -->
<svg width="1005pt" height="363pt"
 viewBox="0.00 0.00 1005.00 363.00" xmlns="http://www.w3.org/2000/svg" xmlns:xlink="http://www.w3.org/1999/xlink">
<g id="graph0" class="graph" transform="scale(1 1) rotate(0) translate(4 359)">
<title>remote&#45;processor/Message.h</title>
<polygon fill="white" stroke="none" points="-4,4 -4,-359 1001,-359 1001,4 -4,4"/>
<!-- Node1 -->
<g id="node1" class="node"><title>Node1</title>
<polygon fill="#bfbfbf" stroke="black" points="394.5,-335.5 394.5,-354.5 552.5,-354.5 552.5,-335.5 394.5,-335.5"/>
<text text-anchor="middle" x="473.5" y="-342.5" font-family="Verdana" font-size="10.00">remote&#45;processor/Message.h</text>
</g>
<!-- Node2 -->
<g id="node2" class="node"><title>Node2</title>
<g id="a_node2"><a xlink:href="AnswerMessage_8h.html" target="_top" xlink:title="remote&#45;processor/AnswerMessage.h">
<polygon fill="white" stroke="black" points="186.5,-274 186.5,-293 378.5,-293 378.5,-274 186.5,-274"/>
<text text-anchor="middle" x="282.5" y="-281" font-family="Verdana" font-size="10.00">remote&#45;processor/AnswerMessage.h</text>
</a>
</g>
</g>
<!-- Node1&#45;&gt;Node2 -->
<g id="edge1" class="edge"><title>Node1&#45;&gt;Node2</title>
<path fill="none" stroke="midnightblue" d="M436.201,-332.381C399.075,-320.815 342.98,-303.341 309.815,-293.009"/>
<polygon fill="midnightblue" stroke="midnightblue" points="435.546,-335.842 446.134,-335.475 437.628,-329.159 435.546,-335.842"/>
</g>
<!-- Node6 -->
<g id="node6" class="node"><title>Node6</title>
<g id="a_node6"><a xlink:href="RequestMessage_8h.html" target="_top" xlink:title="remote&#45;processor/Request\lMessage.h">
<polygon fill="white" stroke="black" points="401.5,-268.5 401.5,-298.5 545.5,-298.5 545.5,-268.5 401.5,-268.5"/>
<text text-anchor="start" x="409.5" y="-286.5" font-family="Verdana" font-size="10.00">remote&#45;processor/Request</text>
<text text-anchor="middle" x="473.5" y="-275.5" font-family="Verdana" font-size="10.00">Message.h</text>
</a>
</g>
</g>
<!-- Node1&#45;&gt;Node6 -->
<g id="edge5" class="edge"><title>Node1&#45;&gt;Node6</title>
<path fill="none" stroke="midnightblue" d="M473.5,-325.235C473.5,-316.586 473.5,-306.497 473.5,-298.523"/>
<polygon fill="midnightblue" stroke="midnightblue" points="470,-325.475 473.5,-335.475 477,-325.475 470,-325.475"/>
</g>
<!-- Node16 -->
<g id="node16" class="node"><title>Node16</title>
<g id="a_node16"><a xlink:href="Message_8cpp.html" target="_top" xlink:title="remote&#45;processor/Message.cpp">
<polygon fill="white" stroke="black" points="564,-274 564,-293 733,-293 733,-274 564,-274"/>
<text text-anchor="middle" x="648.5" y="-281" font-family="Verdana" font-size="10.00">remote&#45;processor/Message.cpp</text>
</a>
</g>
</g>
<!-- Node1&#45;&gt;Node16 -->
<g id="edge18" class="edge"><title>Node1&#45;&gt;Node16</title>
<path fill="none" stroke="midnightblue" d="M508.112,-332.232C542.129,-320.666 593.216,-303.297 623.473,-293.009"/>
<polygon fill="midnightblue" stroke="midnightblue" points="506.914,-328.942 498.573,-335.475 509.168,-335.57 506.914,-328.942"/>
</g>
<!-- Node3 -->
<g id="node3" class="node"><title>Node3</title>
<g id="a_node3"><a xlink:href="remote-process_2main_8cpp.html" target="_top" xlink:title="remote&#45;process/main.cpp">
<polygon fill="white" stroke="black" points="259.5,-207 259.5,-226 399.5,-226 399.5,-207 259.5,-207"/>
<text text-anchor="middle" x="329.5" y="-214" font-family="Verdana" font-size="10.00">remote&#45;process/main.cpp</text>
</a>
</g>
</g>
<!-- Node2&#45;&gt;Node3 -->
<g id="edge2" class="edge"><title>Node2&#45;&gt;Node3</title>
<path fill="none" stroke="midnightblue" d="M294.862,-265.404C303.995,-252.773 316.048,-236.104 323.262,-226.127"/>
<polygon fill="midnightblue" stroke="midnightblue" points="291.862,-263.579 288.839,-273.734 297.534,-267.681 291.862,-263.579"/>
</g>
<!-- Node4 -->
<g id="node4" class="node"><title>Node4</title>
<g id="a_node4"><a xlink:href="AnswerMessage_8cpp.html" target="_top" xlink:title="remote&#45;processor/AnswerMessage.cpp">
<polygon fill="white" stroke="black" points="0,-207 0,-226 203,-226 203,-207 0,-207"/>
<text text-anchor="middle" x="101.5" y="-214" font-family="Verdana" font-size="10.00">remote&#45;processor/AnswerMessage.cpp</text>
</a>
</g>
</g>
<!-- Node2&#45;&gt;Node4 -->
<g id="edge3" class="edge"><title>Node2&#45;&gt;Node4</title>
<path fill="none" stroke="midnightblue" d="M248.907,-270.436C213.001,-257.542 156.981,-237.424 125.347,-226.064"/>
<polygon fill="midnightblue" stroke="midnightblue" points="247.87,-273.783 258.465,-273.869 250.236,-267.195 247.87,-273.783"/>
</g>
<!-- Node5 -->
<g id="node5" class="node"><title>Node5</title>
<g id="a_node5"><a xlink:href="RemoteProcessorServer_8cpp.html" target="_top" xlink:title="remote&#45;processor/RemoteProcessor\lServer.cpp">
<polygon fill="white" stroke="black" points="332.5,-67.5 332.5,-97.5 522.5,-97.5 522.5,-67.5 332.5,-67.5"/>
<text text-anchor="start" x="340.5" y="-85.5" font-family="Verdana" font-size="10.00">remote&#45;processor/RemoteProcessor</text>
<text text-anchor="middle" x="427.5" y="-74.5" font-family="Verdana" font-size="10.00">Server.cpp</text>
</a>
</g>
</g>
<!-- Node2&#45;&gt;Node5 -->
<g id="edge4" class="edge"><title>Node2&#45;&gt;Node5</title>
<path fill="none" stroke="midnightblue" d="M267.548,-265.784C254.395,-248.941 238.996,-222.445 250.5,-201 279.007,-147.859 343.3,-114.669 386.039,-97.6216"/>
<polygon fill="midnightblue" stroke="midnightblue" points="264.985,-268.177 274.067,-273.634 270.371,-263.705 264.985,-268.177"/>
</g>
<!-- Node6&#45;&gt;Node3 -->
<g id="edge7" class="edge"><title>Node6&#45;&gt;Node3</title>
<path fill="none" stroke="midnightblue" d="M432.807,-264.131C405.09,-251.62 369.687,-235.64 348.346,-226.007"/>
<polygon fill="midnightblue" stroke="midnightblue" points="431.7,-267.472 442.254,-268.396 434.58,-261.092 431.7,-267.472"/>
</g>
<!-- Node6&#45;&gt;Node5 -->
<g id="edge16" class="edge"><title>Node6&#45;&gt;Node5</title>
<path fill="none" stroke="midnightblue" d="M458.843,-259.348C454.193,-251.016 449.489,-241.358 446.5,-232 431.318,-184.462 428.222,-124.7 427.622,-97.7897"/>
<polygon fill="midnightblue" stroke="midnightblue" points="455.899,-261.247 463.975,-268.104 461.938,-257.707 455.899,-261.247"/>
</g>
<!-- Node7 -->
<g id="node7" class="node"><title>Node7</title>
<g id="a_node7"><a xlink:href="CommandHandlerWrapper_8cpp.html" target="_top" xlink:title="parameter/CommandHandler\lWrapper.cpp">
<polygon fill="white" stroke="black" points="455.5,-201.5 455.5,-231.5 613.5,-231.5 613.5,-201.5 455.5,-201.5"/>
<text text-anchor="start" x="463.5" y="-219.5" font-family="Verdana" font-size="10.00">parameter/CommandHandler</text>
<text text-anchor="middle" x="534.5" y="-208.5" font-family="Verdana" font-size="10.00">Wrapper.cpp</text>
</a>
</g>
</g>
<!-- Node6&#45;&gt;Node7 -->
<g id="edge6" class="edge"><title>Node6&#45;&gt;Node7</title>
<path fill="none" stroke="midnightblue" d="M493.654,-261.024C502.743,-251.34 513.221,-240.174 521.29,-231.577"/>
<polygon fill="midnightblue" stroke="midnightblue" points="491.027,-258.709 486.736,-268.396 496.131,-263.499 491.027,-258.709"/>
</g>
<!-- Node8 -->
<g id="node8" class="node"><title>Node8</title>
<g id="a_node8"><a xlink:href="RemoteProcessorServerInterface_8h.html" target="_top" xlink:title="remote&#45;processor/RemoteProcessor\lServerInterface.h">
<polygon fill="white" stroke="black" points="631.5,-201.5 631.5,-231.5 821.5,-231.5 821.5,-201.5 631.5,-201.5"/>
<text text-anchor="start" x="639.5" y="-219.5" font-family="Verdana" font-size="10.00">remote&#45;processor/RemoteProcessor</text>
<text text-anchor="middle" x="726.5" y="-208.5" font-family="Verdana" font-size="10.00">ServerInterface.h</text>
</a>
</g>
</g>
<!-- Node6&#45;&gt;Node8 -->
<g id="edge8" class="edge"><title>Node6&#45;&gt;Node8</title>
<path fill="none" stroke="midnightblue" d="M537.784,-265.984C579.108,-255.367 632.228,-241.72 671.576,-231.611"/>
<polygon fill="midnightblue" stroke="midnightblue" points="536.9,-262.598 528.086,-268.476 538.642,-269.377 536.9,-262.598"/>
</g>
<!-- Node15 -->
<g id="node15" class="node"><title>Node15</title>
<g id="a_node15"><a xlink:href="RequestMessage_8cpp.html" target="_top" xlink:title="remote&#45;processor/Request\lMessage.cpp">
<polygon fill="white" stroke="black" points="839.5,-201.5 839.5,-231.5 983.5,-231.5 983.5,-201.5 839.5,-201.5"/>
<text text-anchor="start" x="847.5" y="-219.5" font-family="Verdana" font-size="10.00">remote&#45;processor/Request</text>
<text text-anchor="middle" x="911.5" y="-208.5" font-family="Verdana" font-size="10.00">Message.cpp</text>
</a>
</g>
</g>
<!-- Node6&#45;&gt;Node15 -->
<g id="edge17" class="edge"><title>Node6&#45;&gt;Node15</title>
<path fill="none" stroke="midnightblue" d="M556.099,-267.958C679.049,-249.334 711.899,-250.368 830.5,-232 833.324,-231.563 836.2,-231.105 839.105,-230.633"/>
<polygon fill="midnightblue" stroke="midnightblue" points="555.264,-264.544 545.908,-269.515 556.322,-271.464 555.264,-264.544"/>
</g>
<!-- Node9 -->
<g id="node9" class="node"><title>Node9</title>
<g id="a_node9"><a xlink:href="RemoteProcessorServer_8h.html" target="_top" xlink:title="remote&#45;processor/RemoteProcessor\lServer.h">
<polygon fill="white" stroke="black" points="606.5,-134.5 606.5,-164.5 796.5,-164.5 796.5,-134.5 606.5,-134.5"/>
<text text-anchor="start" x="614.5" y="-152.5" font-family="Verdana" font-size="10.00">remote&#45;processor/RemoteProcessor</text>
<text text-anchor="middle" x="701.5" y="-141.5" font-family="Verdana" font-size="10.00">Server.h</text>
</a>
</g>
</g>
<!-- Node8&#45;&gt;Node9 -->
<g id="edge9" class="edge"><title>Node8&#45;&gt;Node9</title>
<path fill="none" stroke="midnightblue" d="M717.458,-191.991C713.925,-182.804 709.992,-172.578 706.914,-164.577"/>
<polygon fill="midnightblue" stroke="midnightblue" points="714.219,-193.319 721.075,-201.396 720.752,-190.806 714.219,-193.319"/>
</g>
<!-- Node9&#45;&gt;Node5 -->
<g id="edge12" class="edge"><title>Node9&#45;&gt;Node5</title>
<path fill="none" stroke="midnightblue" d="M632.446,-132.119C587.611,-121.483 529.777,-107.763 486.983,-97.6109"/>
<polygon fill="midnightblue" stroke="midnightblue" points="631.846,-135.573 642.383,-134.476 633.461,-128.762 631.846,-135.573"/>
</g>
<!-- Node10 -->
<g id="node10" class="node"><title>Node10</title>
<g id="a_node10"><a xlink:href="BackgroundRemoteProcessorServerBuilder_8h.html" target="_top" xlink:title="remote&#45;processor/Background\lRemoteProcessorServerBuilder.h">
<polygon fill="white" stroke="black" points="590,-67.5 590,-97.5 763,-97.5 763,-67.5 590,-67.5"/>
<text text-anchor="start" x="598" y="-85.5" font-family="Verdana" font-size="10.00">remote&#45;processor/Background</text>
<text text-anchor="middle" x="676.5" y="-74.5" font-family="Verdana" font-size="10.00">RemoteProcessorServerBuilder.h</text>
</a>
</g>
</g>
<!-- Node9&#45;&gt;Node10 -->
<g id="edge10" class="edge"><title>Node9&#45;&gt;Node10</title>
<path fill="none" stroke="midnightblue" d="M692.458,-124.991C688.925,-115.804 684.992,-105.578 681.914,-97.5765"/>
<polygon fill="midnightblue" stroke="midnightblue" points="689.219,-126.319 696.075,-134.396 695.752,-123.806 689.219,-126.319"/>
</g>
<!-- Node12 -->
<g id="node12" class="node"><title>Node12</title>
<g id="a_node12"><a xlink:href="TestPlatform_8h.html" target="_top" xlink:title="test/test&#45;platform\l/TestPlatform.h">
<polygon fill="white" stroke="black" points="781,-67.5 781,-97.5 882,-97.5 882,-67.5 781,-67.5"/>
<text text-anchor="start" x="789" y="-85.5" font-family="Verdana" font-size="10.00">test/test&#45;platform</text>
<text text-anchor="middle" x="831.5" y="-74.5" font-family="Verdana" font-size="10.00">/TestPlatform.h</text>
</a>
</g>
</g>
<!-- Node9&#45;&gt;Node12 -->
<g id="edge13" class="edge"><title>Node9&#45;&gt;Node12</title>
<path fill="none" stroke="midnightblue" d="M738.793,-129.853C759.348,-119.576 784.45,-107.025 803.347,-97.5765"/>
<polygon fill="midnightblue" stroke="midnightblue" points="737.087,-126.793 729.708,-134.396 740.218,-133.054 737.087,-126.793"/>
</g>
<!-- Node11 -->
<g id="node11" class="node"><title>Node11</title>
<g id="a_node11"><a xlink:href="ParameterMgr_8cpp.html" target="_top" xlink:title="parameter/ParameterMgr.cpp">
<polygon fill="white" stroke="black" points="597.5,-6 597.5,-25 755.5,-25 755.5,-6 597.5,-6"/>
<text text-anchor="middle" x="676.5" y="-13" font-family="Verdana" font-size="10.00">parameter/ParameterMgr.cpp</text>
</a>
</g>
</g>
<!-- Node10&#45;&gt;Node11 -->
<g id="edge11" class="edge"><title>Node10&#45;&gt;Node11</title>
<path fill="none" stroke="midnightblue" d="M676.5,-57.2495C676.5,-46.017 676.5,-33.3767 676.5,-25.1945"/>
<polygon fill="midnightblue" stroke="midnightblue" points="673,-57.3959 676.5,-67.396 680,-57.396 673,-57.3959"/>
</g>
<!-- Node13 -->
<g id="node13" class="node"><title>Node13</title>
<g id="a_node13"><a xlink:href="test_2test-platform_2main_8cpp.html" target="_top" xlink:title="test/test&#45;platform\l/main.cpp">
<polygon fill="white" stroke="black" points="777,-0.5 777,-30.5 878,-30.5 878,-0.5 777,-0.5"/>
<text text-anchor="start" x="785" y="-18.5" font-family="Verdana" font-size="10.00">test/test&#45;platform</text>
<text text-anchor="middle" x="827.5" y="-7.5" font-family="Verdana" font-size="10.00">/main.cpp</text>
</a>
</g>
</g>
<!-- Node12&#45;&gt;Node13 -->
<g id="edge14" class="edge"><title>Node12&#45;&gt;Node13</title>
<path fill="none" stroke="midnightblue" d="M830.017,-57.4029C829.461,-48.3703 828.848,-38.4078 828.366,-30.5765"/>
<polygon fill="midnightblue" stroke="midnightblue" points="826.524,-57.6299 830.632,-67.396 833.511,-57.1998 826.524,-57.6299"/>
</g>
<!-- Node14 -->
<g id="node14" class="node"><title>Node14</title>
<g id="a_node14"><a xlink:href="TestPlatform_8cpp.html" target="_top" xlink:title="test/test&#45;platform\l/TestPlatform.cpp">
<polygon fill="white" stroke="black" points="896,-0.5 896,-30.5 997,-30.5 997,-0.5 896,-0.5"/>
<text text-anchor="start" x="904" y="-18.5" font-family="Verdana" font-size="10.00">test/test&#45;platform</text>
<text text-anchor="middle" x="946.5" y="-7.5" font-family="Verdana" font-size="10.00">/TestPlatform.cpp</text>
</a>
</g>
</g>
<!-- Node12&#45;&gt;Node14 -->
<g id="edge15" class="edge"><title>Node12&#45;&gt;Node14</title>
<path fill="none" stroke="midnightblue" d="M865.477,-62.2956C883.471,-52.1248 905.18,-39.8549 921.595,-30.5765"/>
<polygon fill="midnightblue" stroke="midnightblue" points="863.437,-59.4284 856.453,-67.396 866.881,-65.5223 863.437,-59.4284"/>
</g>
</g>
</svg>
