<?xml version="1.0" encoding="UTF-8" standalone="no"?>
<!DOCTYPE svg PUBLIC "-//W3C//DTD SVG 1.1//EN"
 "http://www.w3.org/Graphics/SVG/1.1/DTD/svg11.dtd">
<!-- Generated by graphviz version 2.36.0 (20140111.2315)
 -->
<!-- Title: parameter/NamedElementBuilderTemplate.h Pages: 1 -->
<svg width="519pt" height="164pt"
 viewBox="0.00 0.00 519.00 164.00" xmlns="http://www.w3.org/2000/svg" xmlns:xlink="http://www.w3.org/1999/xlink">
<g id="graph0" class="graph" transform="scale(1 1) rotate(0) translate(4 160)">
<title>parameter/NamedElementBuilderTemplate.h</title>
<polygon fill="white" stroke="none" points="-4,4 -4,-160 515,-160 515,4 -4,4"/>
<!-- Node1 -->
<g id="node1" class="node"><title>Node1</title>
<polygon fill="#bfbfbf" stroke="black" points="168.5,-125 168.5,-155 347.5,-155 347.5,-125 168.5,-125"/>
<text text-anchor="start" x="176.5" y="-143" font-family="Verdana" font-size="10.00">parameter/NamedElementBuilder</text>
<text text-anchor="middle" x="258" y="-132" font-family="Verdana" font-size="10.00">Template.h</text>
</g>
<!-- Node2 -->
<g id="node2" class="node"><title>Node2</title>
<g id="a_node2"><a xlink:href="SubsystemLibrary_8h.html" target="_top" xlink:title="parameter/SubsystemLibrary.h">
<polygon fill="white" stroke="black" points="176,-68.5 176,-87.5 340,-87.5 340,-68.5 176,-68.5"/>
<text text-anchor="middle" x="258" y="-75.5" font-family="Verdana" font-size="10.00">parameter/SubsystemLibrary.h</text>
</a>
</g>
</g>
<!-- Node1&#45;&gt;Node2 -->
<g id="edge1" class="edge"><title>Node1&#45;&gt;Node2</title>
<path fill="none" stroke="midnightblue" d="M258,-114.586C258,-105.074 258,-94.7864 258,-87.7305"/>
<polygon fill="midnightblue" stroke="midnightblue" points="254.5,-114.781 258,-124.781 261.5,-114.781 254.5,-114.781"/>
</g>
<!-- Node3 -->
<g id="node3" class="node"><title>Node3</title>
<g id="a_node3"><a xlink:href="ParameterMgr_8cpp.html" target="_top" xlink:title="parameter/ParameterMgr.cpp">
<polygon fill="white" stroke="black" points="0,-6.5 0,-25.5 158,-25.5 158,-6.5 0,-6.5"/>
<text text-anchor="middle" x="79" y="-13.5" font-family="Verdana" font-size="10.00">parameter/ParameterMgr.cpp</text>
</a>
</g>
</g>
<!-- Node1&#45;&gt;Node3 -->
<g id="edge5" class="edge"><title>Node1&#45;&gt;Node3</title>
<path fill="none" stroke="midnightblue" d="M221.18,-120.191C204.278,-111.098 184.212,-99.6459 167,-88 137.084,-67.7589 104.712,-39.9357 88.8682,-25.8862"/>
<polygon fill="midnightblue" stroke="midnightblue" points="219.734,-123.386 230.207,-124.986 223.018,-117.204 219.734,-123.386"/>
</g>
<!-- Node5 -->
<g id="node5" class="node"><title>Node5</title>
<g id="a_node5"><a xlink:href="SystemClass_8cpp.html" target="_top" xlink:title="parameter/SystemClass.cpp">
<polygon fill="white" stroke="black" points="358.5,-6.5 358.5,-25.5 511.5,-25.5 511.5,-6.5 358.5,-6.5"/>
<text text-anchor="middle" x="435" y="-13.5" font-family="Verdana" font-size="10.00">parameter/SystemClass.cpp</text>
</a>
</g>
</g>
<!-- Node1&#45;&gt;Node5 -->
<g id="edge6" class="edge"><title>Node1&#45;&gt;Node5</title>
<path fill="none" stroke="midnightblue" d="M295.253,-120.079C312.09,-111.037 331.98,-99.6563 349,-88 378.393,-67.8705 409.961,-39.9984 425.393,-25.9127"/>
<polygon fill="midnightblue" stroke="midnightblue" points="293.449,-117.074 286.252,-124.849 296.727,-123.259 293.449,-117.074"/>
</g>
<!-- Node2&#45;&gt;Node3 -->
<g id="edge2" class="edge"><title>Node2&#45;&gt;Node3</title>
<path fill="none" stroke="midnightblue" d="M222.597,-65.1331C187.802,-53.4699 135.548,-35.9545 104.599,-25.5806"/>
<polygon fill="midnightblue" stroke="midnightblue" points="221.76,-68.5438 232.354,-68.4035 223.985,-61.9067 221.76,-68.5438"/>
</g>
<!-- Node4 -->
<g id="node4" class="node"><title>Node4</title>
<g id="a_node4"><a xlink:href="SubsystemElementBuilder_8cpp.html" target="_top" xlink:title="parameter/SubsystemElement\lBuilder.cpp">
<polygon fill="white" stroke="black" points="176,-1 176,-31 340,-31 340,-1 176,-1"/>
<text text-anchor="start" x="184" y="-19" font-family="Verdana" font-size="10.00">parameter/SubsystemElement</text>
<text text-anchor="middle" x="258" y="-8" font-family="Verdana" font-size="10.00">Builder.cpp</text>
</a>
</g>
</g>
<!-- Node2&#45;&gt;Node4 -->
<g id="edge3" class="edge"><title>Node2&#45;&gt;Node4</title>
<path fill="none" stroke="midnightblue" d="M258,-58.3707C258,-49.5849 258,-39.2721 258,-31.1408"/>
<polygon fill="midnightblue" stroke="midnightblue" points="254.5,-58.4034 258,-68.4035 261.5,-58.4035 254.5,-58.4034"/>
</g>
<!-- Node2&#45;&gt;Node5 -->
<g id="edge4" class="edge"><title>Node2&#45;&gt;Node5</title>
<path fill="none" stroke="midnightblue" d="M293.007,-65.1331C327.414,-53.4699 379.084,-35.9545 409.687,-25.5806"/>
<polygon fill="midnightblue" stroke="midnightblue" points="291.707,-61.8783 283.36,-68.4035 293.954,-68.5077 291.707,-61.8783"/>
</g>
</g>
</svg>
