<?xml version="1.0" encoding="UTF-8" standalone="no"?>
<!DOCTYPE svg PUBLIC "-//W3C//DTD SVG 1.1//EN"
 "http://www.w3.org/Graphics/SVG/1.1/DTD/svg11.dtd">
<!-- Generated by graphviz version 2.38.0 (20140413.2041)
 -->
<!-- Title: utility::fullRead Pages: 1 -->
<svg width="345pt" height="28pt"
 viewBox="0.00 0.00 345.00 28.00" xmlns="http://www.w3.org/2000/svg" xmlns:xlink="http://www.w3.org/1999/xlink">
<g id="graph0" class="graph" transform="scale(1 1) rotate(0) translate(4 24)">
<title>utility::fullRead</title>
<polygon fill="white" stroke="none" points="-4,4 -4,-24 341,-24 341,4 -4,4"/>
<!-- Node1 -->
<g id="node1" class="node"><title>Node1</title>
<polygon fill="#bfbfbf" stroke="black" points="0,-0.5 0,-19.5 84,-19.5 84,-0.5 0,-0.5"/>
<text text-anchor="middle" x="42" y="-7.5" font-family="Verdana" font-size="10.00">utility::fullRead</text>
</g>
<!-- Node2 -->
<g id="node2" class="node"><title>Node2</title>
<g id="a_node2"><a xlink:href="test_2test-platform_2main_8cpp.html#a9fd779abc38b1314eaae2f8f359bbb42" target="_top" xlink:title="startDaemonTestPlatform">
<polygon fill="white" stroke="black" points="120,-0.5 120,-19.5 260,-19.5 260,-0.5 120,-0.5"/>
<text text-anchor="middle" x="190" y="-7.5" font-family="Verdana" font-size="10.00">startDaemonTestPlatform</text>
</a>
</g>
</g>
<!-- Node1&#45;&gt;Node2 -->
<g id="edge1" class="edge"><title>Node1&#45;&gt;Node2</title>
<path fill="none" stroke="midnightblue" d="M94.2636,-10C102.522,-10 111.188,-10 119.785,-10"/>
<polygon fill="midnightblue" stroke="midnightblue" points="94.0577,-6.5001 84.0577,-10 94.0576,-13.5001 94.0577,-6.5001"/>
</g>
<!-- Node3 -->
<g id="node3" class="node"><title>Node3</title>
<g id="a_node3"><a xlink:href="test_2test-platform_2main_8cpp.html#a0ddf1224851353fc92bfbff6f499fa97" target="_top" xlink:title="main">
<polygon fill="white" stroke="black" points="296,-0.5 296,-19.5 337,-19.5 337,-0.5 296,-0.5"/>
<text text-anchor="middle" x="316.5" y="-7.5" font-family="Verdana" font-size="10.00">main</text>
</a>
</g>
</g>
<!-- Node2&#45;&gt;Node3 -->
<g id="edge2" class="edge"><title>Node2&#45;&gt;Node3</title>
<path fill="none" stroke="midnightblue" d="M270.174,-10C279.62,-10 288.503,-10 295.86,-10"/>
<polygon fill="midnightblue" stroke="midnightblue" points="270.167,-6.5001 260.167,-10 270.167,-13.5001 270.167,-6.5001"/>
</g>
</g>
</svg>
