<?xml version="1.0" encoding="UTF-8" standalone="no"?>
<!DOCTYPE svg PUBLIC "-//W3C//DTD SVG 1.1//EN"
 "http://www.w3.org/Graphics/SVG/1.1/DTD/svg11.dtd">
<!-- Generated by graphviz version 2.38.0 (20140413.2041)
 -->
<!-- Title: utility::fullAccess Pages: 1 -->
<svg width="246pt" height="66pt"
 viewBox="0.00 0.00 246.00 66.00" xmlns="http://www.w3.org/2000/svg" xmlns:xlink="http://www.w3.org/1999/xlink">
<g id="graph0" class="graph" transform="scale(1 1) rotate(0) translate(4 62)">
<title>utility::fullAccess</title>
<polygon fill="white" stroke="none" points="-4,4 -4,-62 242,-62 242,4 -4,4"/>
<!-- Node1 -->
<g id="node1" class="node"><title>Node1</title>
<polygon fill="#bfbfbf" stroke="black" points="0,-19.5 0,-38.5 95,-38.5 95,-19.5 0,-19.5"/>
<text text-anchor="middle" x="47.5" y="-26.5" font-family="Verdana" font-size="10.00">utility::fullAccess</text>
</g>
<!-- Node2 -->
<g id="node2" class="node"><title>Node2</title>
<g id="a_node2"><a xlink:href="namespaceutility.html#ad120ab7286308ba4bbd175e38d6d450d" target="_top" xlink:title="Workaround c++ void * arithmetic interdiction. ">
<polygon fill="white" stroke="black" points="152,-38.5 152,-57.5 217,-57.5 217,-38.5 152,-38.5"/>
<text text-anchor="middle" x="184.5" y="-45.5" font-family="Verdana" font-size="10.00">utility::add</text>
</a>
</g>
</g>
<!-- Node1&#45;&gt;Node2 -->
<g id="edge1" class="edge"><title>Node1&#45;&gt;Node2</title>
<path fill="none" stroke="midnightblue" d="M95.3376,-35.592C110.29,-37.6964 126.74,-40.0115 141.339,-42.0663"/>
<polygon fill="midnightblue" stroke="midnightblue" points="141.205,-45.5818 151.595,-43.5097 142.18,-38.6501 141.205,-45.5818"/>
</g>
<!-- Node3 -->
<g id="node3" class="node"><title>Node3</title>
<g id="a_node3"><a xlink:href="namespaceutility.html#a0ee98d4382ba1a27e9f02733f6640aab" target="_top" xlink:title="utility::accessFailed">
<polygon fill="white" stroke="black" points="131,-0.5 131,-19.5 238,-19.5 238,-0.5 131,-0.5"/>
<text text-anchor="middle" x="184.5" y="-7.5" font-family="Verdana" font-size="10.00">utility::accessFailed</text>
</a>
</g>
</g>
<!-- Node1&#45;&gt;Node3 -->
<g id="edge2" class="edge"><title>Node1&#45;&gt;Node3</title>
<path fill="none" stroke="midnightblue" d="M95.3376,-22.408C103.548,-21.2525 112.21,-20.0334 120.769,-18.8288"/>
<polygon fill="midnightblue" stroke="midnightblue" points="121.321,-22.2856 130.736,-17.426 120.346,-15.354 121.321,-22.2856"/>
</g>
</g>
</svg>
