<?xml version="1.0" encoding="UTF-8" standalone="no"?>
<!DOCTYPE svg PUBLIC "-//W3C//DTD SVG 1.1//EN"
 "http://www.w3.org/Graphics/SVG/1.1/DTD/svg11.dtd">
<!-- Generated by graphviz version 2.38.0 (20140413.2041)
 -->
<!-- Title: /home/dawagner/dev/parameter&#45;framework/parameter/NamedElementBuilderTemplate.h Pages: 1 -->
<svg width="529pt" height="228pt"
 viewBox="0.00 0.00 528.50 228.00" xmlns="http://www.w3.org/2000/svg" xmlns:xlink="http://www.w3.org/1999/xlink">
<g id="graph0" class="graph" transform="scale(1 1) rotate(0) translate(4 224)">
<title>/home/dawagner/dev/parameter&#45;framework/parameter/NamedElementBuilderTemplate.h</title>
<polygon fill="white" stroke="none" points="-4,4 -4,-224 524.5,-224 524.5,4 -4,4"/>
<!-- Node1 -->
<g id="node1" class="node"><title>Node1</title>
<polygon fill="#bfbfbf" stroke="black" points="171.5,-167.5 171.5,-219.5 353.5,-219.5 353.5,-167.5 171.5,-167.5"/>
<text text-anchor="start" x="179.5" y="-207.5" font-family="Verdana" font-size="10.00">/home/dawagner/dev</text>
<text text-anchor="start" x="179.5" y="-196.5" font-family="Verdana" font-size="10.00">/parameter&#45;framework</text>
<text text-anchor="start" x="179.5" y="-185.5" font-family="Verdana" font-size="10.00">/parameter/NamedElementBuilder</text>
<text text-anchor="middle" x="262.5" y="-174.5" font-family="Verdana" font-size="10.00">Template.h</text>
</g>
<!-- Node2 -->
<g id="node2" class="node"><title>Node2</title>
<g id="a_node2"><a xlink:href="SubsystemLibrary_8h.html" target="_top" xlink:title="/home/dawagner/dev\l/parameter&#45;framework\l/parameter/SubsystemLibrary.h">
<polygon fill="white" stroke="black" points="179,-89.5 179,-130.5 346,-130.5 346,-89.5 179,-89.5"/>
<text text-anchor="start" x="187" y="-118.5" font-family="Verdana" font-size="10.00">/home/dawagner/dev</text>
<text text-anchor="start" x="187" y="-107.5" font-family="Verdana" font-size="10.00">/parameter&#45;framework</text>
<text text-anchor="middle" x="262.5" y="-96.5" font-family="Verdana" font-size="10.00">/parameter/SubsystemLibrary.h</text>
</a>
</g>
</g>
<!-- Node1&#45;&gt;Node2 -->
<g id="edge1" class="edge"><title>Node1&#45;&gt;Node2</title>
<path fill="none" stroke="midnightblue" d="M262.5,-157.147C262.5,-148.055 262.5,-138.597 262.5,-130.628"/>
<polygon fill="midnightblue" stroke="midnightblue" points="259,-157.16 262.5,-167.16 266,-157.16 259,-157.16"/>
</g>
<!-- Node3 -->
<g id="node3" class="node"><title>Node3</title>
<g id="a_node3"><a xlink:href="ParameterMgr_8cpp.html" target="_top" xlink:title="/home/dawagner/dev\l/parameter&#45;framework\l/parameter/ParameterMgr.cpp">
<polygon fill="white" stroke="black" points="0,-6 0,-47 161,-47 161,-6 0,-6"/>
<text text-anchor="start" x="8" y="-35" font-family="Verdana" font-size="10.00">/home/dawagner/dev</text>
<text text-anchor="start" x="8" y="-24" font-family="Verdana" font-size="10.00">/parameter&#45;framework</text>
<text text-anchor="middle" x="80.5" y="-13" font-family="Verdana" font-size="10.00">/parameter/ParameterMgr.cpp</text>
</a>
</g>
</g>
<!-- Node1&#45;&gt;Node3 -->
<g id="edge5" class="edge"><title>Node1&#45;&gt;Node3</title>
<path fill="none" stroke="midnightblue" d="M210.517,-161.76C196.624,-152.59 182.007,-142.023 169.5,-131 139.987,-104.988 111.327,-69.1918 94.8228,-47.2373"/>
<polygon fill="midnightblue" stroke="midnightblue" points="208.751,-164.786 219.048,-167.281 212.554,-158.909 208.751,-164.786"/>
</g>
<!-- Node5 -->
<g id="node5" class="node"><title>Node5</title>
<g id="a_node5"><a xlink:href="SystemClass_8cpp.html" target="_top" xlink:title="/home/dawagner/dev\l/parameter&#45;framework\l/parameter/SystemClass.cpp">
<polygon fill="white" stroke="black" points="364.5,-6 364.5,-47 520.5,-47 520.5,-6 364.5,-6"/>
<text text-anchor="start" x="372.5" y="-35" font-family="Verdana" font-size="10.00">/home/dawagner/dev</text>
<text text-anchor="start" x="372.5" y="-24" font-family="Verdana" font-size="10.00">/parameter&#45;framework</text>
<text text-anchor="middle" x="442.5" y="-13" font-family="Verdana" font-size="10.00">/parameter/SystemClass.cpp</text>
</a>
</g>
</g>
<!-- Node1&#45;&gt;Node5 -->
<g id="edge6" class="edge"><title>Node1&#45;&gt;Node5</title>
<path fill="none" stroke="midnightblue" d="M313.947,-161.738C327.69,-152.567 342.145,-142.006 354.5,-131 383.735,-104.957 412.057,-69.17 428.358,-47.2258"/>
<polygon fill="midnightblue" stroke="midnightblue" points="311.959,-158.856 305.507,-167.259 315.791,-164.713 311.959,-158.856"/>
</g>
<!-- Node2&#45;&gt;Node3 -->
<g id="edge2" class="edge"><title>Node2&#45;&gt;Node3</title>
<path fill="none" stroke="midnightblue" d="M209.552,-85.2896C182.396,-73.1294 149.727,-58.4999 124.053,-47.0031"/>
<polygon fill="midnightblue" stroke="midnightblue" points="208.349,-88.5861 218.906,-89.4787 211.21,-82.1974 208.349,-88.5861"/>
</g>
<!-- Node4 -->
<g id="node4" class="node"><title>Node4</title>
<g id="a_node4"><a xlink:href="SubsystemElementBuilder_8cpp.html" target="_top" xlink:title="/home/dawagner/dev\l/parameter&#45;framework\l/parameter/SubsystemElement\lBuilder.cpp">
<polygon fill="white" stroke="black" points="179,-0.5 179,-52.5 346,-52.5 346,-0.5 179,-0.5"/>
<text text-anchor="start" x="187" y="-40.5" font-family="Verdana" font-size="10.00">/home/dawagner/dev</text>
<text text-anchor="start" x="187" y="-29.5" font-family="Verdana" font-size="10.00">/parameter&#45;framework</text>
<text text-anchor="start" x="187" y="-18.5" font-family="Verdana" font-size="10.00">/parameter/SubsystemElement</text>
<text text-anchor="middle" x="262.5" y="-7.5" font-family="Verdana" font-size="10.00">Builder.cpp</text>
</a>
</g>
</g>
<!-- Node2&#45;&gt;Node4 -->
<g id="edge3" class="edge"><title>Node2&#45;&gt;Node4</title>
<path fill="none" stroke="midnightblue" d="M262.5,-79.1211C262.5,-70.4126 262.5,-60.9894 262.5,-52.6073"/>
<polygon fill="midnightblue" stroke="midnightblue" points="259,-79.2711 262.5,-89.2711 266,-79.2712 259,-79.2711"/>
</g>
<!-- Node2&#45;&gt;Node5 -->
<g id="edge4" class="edge"><title>Node2&#45;&gt;Node5</title>
<path fill="none" stroke="midnightblue" d="M314.866,-85.2896C341.724,-73.1294 374.034,-58.4999 399.426,-47.0031"/>
<polygon fill="midnightblue" stroke="midnightblue" points="313.281,-82.1656 305.614,-89.4787 316.168,-88.5424 313.281,-82.1656"/>
</g>
</g>
</svg>
