<?xml version="1.0" encoding="UTF-8" standalone="no"?>
<!DOCTYPE svg PUBLIC "-//W3C//DTD SVG 1.1//EN"
 "http://www.w3.org/Graphics/SVG/1.1/DTD/svg11.dtd">
<!-- Generated by graphviz version 2.38.0 (20140413.2041)
 -->
<!-- Title: /home/dawagner/dev/parameter&#45;framework/parameter/ParameterBlockType.cpp Pages: 1 -->
<svg width="722pt" height="442pt"
 viewBox="0.00 0.00 722.00 442.00" xmlns="http://www.w3.org/2000/svg" xmlns:xlink="http://www.w3.org/1999/xlink">
<g id="graph0" class="graph" transform="scale(1 1) rotate(0) translate(4 438)">
<title>/home/dawagner/dev/parameter&#45;framework/parameter/ParameterBlockType.cpp</title>
<polygon fill="white" stroke="none" points="-4,4 -4,-438 718,-438 718,4 -4,4"/>
<!-- Node1 -->
<g id="node1" class="node"><title>Node1</title>
<polygon fill="#bfbfbf" stroke="black" points="32.5,-392.5 32.5,-433.5 223.5,-433.5 223.5,-392.5 32.5,-392.5"/>
<text text-anchor="start" x="40.5" y="-421.5" font-family="Verdana" font-size="10.00">/home/dawagner/dev</text>
<text text-anchor="start" x="40.5" y="-410.5" font-family="Verdana" font-size="10.00">/parameter&#45;framework</text>
<text text-anchor="middle" x="128" y="-399.5" font-family="Verdana" font-size="10.00">/parameter/ParameterBlockType.cpp</text>
</g>
<!-- Node2 -->
<g id="node2" class="node"><title>Node2</title>
<g id="a_node2"><a xlink:href="ParameterBlockType_8h.html" target="_top" xlink:title="ParameterBlockType.h">
<polygon fill="white" stroke="black" points="28,-224.5 28,-243.5 150,-243.5 150,-224.5 28,-224.5"/>
<text text-anchor="middle" x="89" y="-231.5" font-family="Verdana" font-size="10.00">ParameterBlockType.h</text>
</a>
</g>
</g>
<!-- Node1&#45;&gt;Node2 -->
<g id="edge1" class="edge"><title>Node1&#45;&gt;Node2</title>
<path fill="none" stroke="midnightblue" d="M119.952,-392.324C115.873,-381.714 111.134,-368.305 108,-356 98.9344,-320.405 93.4524,-277.757 90.8454,-253.778"/>
<polygon fill="midnightblue" stroke="midnightblue" points="94.3049,-253.206 89.7934,-243.62 87.3422,-253.927 94.3049,-253.206"/>
</g>
<!-- Node12 -->
<g id="node12" class="node"><title>Node12</title>
<g id="a_node12"><a xlink:href="ParameterBlock_8h.html" target="_top" xlink:title="ParameterBlock.h">
<polygon fill="white" stroke="black" points="117.5,-336.5 117.5,-355.5 218.5,-355.5 218.5,-336.5 117.5,-336.5"/>
<text text-anchor="middle" x="168" y="-343.5" font-family="Verdana" font-size="10.00">ParameterBlock.h</text>
</a>
</g>
</g>
<!-- Node1&#45;&gt;Node12 -->
<g id="edge16" class="edge"><title>Node1&#45;&gt;Node12</title>
<path fill="none" stroke="midnightblue" d="M140.001,-392.498C145.544,-383.49 152.069,-372.888 157.424,-364.185"/>
<polygon fill="midnightblue" stroke="midnightblue" points="160.415,-366.003 162.675,-355.652 154.454,-362.335 160.415,-366.003"/>
</g>
<!-- Node3 -->
<g id="node3" class="node"><title>Node3</title>
<g id="a_node3"><a xlink:href="TypeElement_8h.html" target="_top" xlink:title="TypeElement.h">
<polygon fill="white" stroke="black" points="102,-168.5 102,-187.5 188,-187.5 188,-168.5 102,-168.5"/>
<text text-anchor="middle" x="145" y="-175.5" font-family="Verdana" font-size="10.00">TypeElement.h</text>
</a>
</g>
</g>
<!-- Node2&#45;&gt;Node3 -->
<g id="edge2" class="edge"><title>Node2&#45;&gt;Node3</title>
<path fill="none" stroke="midnightblue" d="M97.9974,-224.324C106.194,-216.42 118.506,-204.548 128.472,-194.938"/>
<polygon fill="midnightblue" stroke="midnightblue" points="131.07,-197.295 135.839,-187.834 126.211,-192.256 131.07,-197.295"/>
</g>
<!-- Node5 -->
<g id="node5" class="node"><title>Node5</title>
<polygon fill="white" stroke="#bfbfbf" points="194,-0.5 194,-19.5 238,-19.5 238,-0.5 194,-0.5"/>
<text text-anchor="middle" x="216" y="-7.5" font-family="Verdana" font-size="10.00">string</text>
</g>
<!-- Node2&#45;&gt;Node5 -->
<g id="edge15" class="edge"><title>Node2&#45;&gt;Node5</title>
<path fill="none" stroke="midnightblue" d="M87.9376,-224.245C86.7318,-211.431 85.7736,-187.025 93,-168 115.829,-107.899 170.245,-52.3914 198.42,-26.429"/>
<polygon fill="midnightblue" stroke="midnightblue" points="200.872,-28.9313 205.942,-19.6282 196.177,-23.7391 200.872,-28.9313"/>
</g>
<!-- Node4 -->
<g id="node4" class="node"><title>Node4</title>
<g id="a_node4"><a xlink:href="Element_8h.html" target="_top" xlink:title="Element.h">
<polygon fill="white" stroke="black" points="428.5,-112.5 428.5,-131.5 493.5,-131.5 493.5,-112.5 428.5,-112.5"/>
<text text-anchor="middle" x="461" y="-119.5" font-family="Verdana" font-size="10.00">Element.h</text>
</a>
</g>
</g>
<!-- Node3&#45;&gt;Node4 -->
<g id="edge3" class="edge"><title>Node3&#45;&gt;Node4</title>
<path fill="none" stroke="midnightblue" d="M188.276,-169.605C248.836,-159.256 358.182,-140.57 418.385,-130.282"/>
<polygon fill="midnightblue" stroke="midnightblue" points="419.053,-133.719 428.321,-128.584 417.874,-126.819 419.053,-133.719"/>
</g>
<!-- Node3&#45;&gt;Node5 -->
<g id="edge14" class="edge"><title>Node3&#45;&gt;Node5</title>
<path fill="none" stroke="midnightblue" d="M148.817,-168.075C160.042,-141.832 193.098,-64.5453 208.251,-29.1165"/>
<polygon fill="midnightblue" stroke="midnightblue" points="211.621,-30.1388 212.335,-19.5681 205.185,-27.386 211.621,-30.1388"/>
</g>
<!-- Node4&#45;&gt;Node5 -->
<g id="edge4" class="edge"><title>Node4&#45;&gt;Node5</title>
<path fill="none" stroke="midnightblue" d="M428.332,-114.272C397.206,-107.159 349.515,-94.4034 311,-76 282.333,-62.302 252.632,-40.5485 234.239,-26.0281"/>
<polygon fill="midnightblue" stroke="midnightblue" points="236.159,-23.0816 226.171,-19.5478 231.776,-28.539 236.159,-23.0816"/>
</g>
<!-- Node6 -->
<g id="node6" class="node"><title>Node6</title>
<polygon fill="white" stroke="#bfbfbf" points="505.5,-0.5 505.5,-19.5 552.5,-19.5 552.5,-0.5 505.5,-0.5"/>
<text text-anchor="middle" x="529" y="-7.5" font-family="Verdana" font-size="10.00">vector</text>
</g>
<!-- Node4&#45;&gt;Node6 -->
<g id="edge5" class="edge"><title>Node4&#45;&gt;Node6</title>
<path fill="none" stroke="midnightblue" d="M466.336,-112.368C477.508,-94.2957 503.545,-52.1764 518.301,-28.3074"/>
<polygon fill="midnightblue" stroke="midnightblue" points="521.408,-29.9378 523.689,-19.5914 515.454,-26.257 521.408,-29.9378"/>
</g>
<!-- Node7 -->
<g id="node7" class="node"><title>Node7</title>
<polygon fill="white" stroke="#bfbfbf" points="592.5,-0.5 592.5,-19.5 645.5,-19.5 645.5,-0.5 592.5,-0.5"/>
<text text-anchor="middle" x="619" y="-7.5" font-family="Verdana" font-size="10.00">stdint.h</text>
</g>
<!-- Node4&#45;&gt;Node7 -->
<g id="edge6" class="edge"><title>Node4&#45;&gt;Node7</title>
<path fill="none" stroke="midnightblue" d="M493.722,-117.384C539.652,-111.559 619.592,-98.4195 637,-76 647.62,-62.3236 639.965,-42.759 631.604,-28.672"/>
<polygon fill="midnightblue" stroke="midnightblue" points="634.306,-26.4075 625.919,-19.9343 628.439,-30.2251 634.306,-26.4075"/>
</g>
<!-- Node8 -->
<g id="node8" class="node"><title>Node8</title>
<polygon fill="white" stroke="#bfbfbf" points="684,-56.5 684,-75.5 714,-75.5 714,-56.5 684,-56.5"/>
<text text-anchor="middle" x="699" y="-63.5" font-family="Verdana" font-size="10.00">list</text>
</g>
<!-- Node4&#45;&gt;Node8 -->
<g id="edge7" class="edge"><title>Node4&#45;&gt;Node8</title>
<path fill="none" stroke="midnightblue" d="M493.794,-114.876C535.13,-106.942 608.249,-92.1958 670,-76 671.262,-75.669 672.551,-75.3179 673.85,-74.9536"/>
<polygon fill="midnightblue" stroke="midnightblue" points="675.133,-78.2237 683.722,-72.0202 673.139,-71.5137 675.133,-78.2237"/>
</g>
<!-- Node9 -->
<g id="node9" class="node"><title>Node9</title>
<polygon fill="white" stroke="#bfbfbf" points="320,-56.5 320,-75.5 384,-75.5 384,-56.5 320,-56.5"/>
<text text-anchor="middle" x="352" y="-63.5" font-family="Verdana" font-size="10.00">XmlSink.h</text>
</g>
<!-- Node4&#45;&gt;Node9 -->
<g id="edge8" class="edge"><title>Node4&#45;&gt;Node9</title>
<path fill="none" stroke="midnightblue" d="M443.487,-112.324C425.928,-103.625 398.669,-90.1202 378.469,-80.113"/>
<polygon fill="midnightblue" stroke="midnightblue" points="379.984,-76.9575 369.469,-75.6545 376.876,-83.23 379.984,-76.9575"/>
</g>
<!-- Node10 -->
<g id="node10" class="node"><title>Node10</title>
<polygon fill="white" stroke="#bfbfbf" points="402.5,-56.5 402.5,-75.5 479.5,-75.5 479.5,-56.5 402.5,-56.5"/>
<text text-anchor="middle" x="441" y="-63.5" font-family="Verdana" font-size="10.00">XmlSource.h</text>
</g>
<!-- Node4&#45;&gt;Node10 -->
<g id="edge9" class="edge"><title>Node4&#45;&gt;Node10</title>
<path fill="none" stroke="midnightblue" d="M457.697,-112.083C455.018,-104.849 451.151,-94.4087 447.814,-85.3968"/>
<polygon fill="midnightblue" stroke="midnightblue" points="450.996,-83.9129 444.241,-75.7511 444.432,-86.3442 450.996,-83.9129"/>
</g>
<!-- Node11 -->
<g id="node11" class="node"><title>Node11</title>
<g id="a_node11"><a xlink:href="PathNavigator_8h.html" target="_top" xlink:title="PathNavigator.h">
<polygon fill="white" stroke="black" points="536,-56.5 536,-75.5 628,-75.5 628,-56.5 536,-56.5"/>
<text text-anchor="middle" x="582" y="-63.5" font-family="Verdana" font-size="10.00">PathNavigator.h</text>
</a>
</g>
</g>
<!-- Node4&#45;&gt;Node11 -->
<g id="edge10" class="edge"><title>Node4&#45;&gt;Node11</title>
<path fill="none" stroke="midnightblue" d="M480.173,-112.444C499.909,-103.636 530.885,-89.8116 553.493,-79.722"/>
<polygon fill="midnightblue" stroke="midnightblue" points="555.211,-82.788 562.917,-75.5164 552.359,-76.3957 555.211,-82.788"/>
</g>
<!-- Node11&#45;&gt;Node5 -->
<g id="edge12" class="edge"><title>Node11&#45;&gt;Node5</title>
<path fill="none" stroke="midnightblue" d="M535.646,-58.1609C460.393,-47.058 313.516,-25.3876 248.407,-15.7814"/>
<polygon fill="midnightblue" stroke="midnightblue" points="248.724,-12.2904 238.32,-14.2932 247.702,-19.2154 248.724,-12.2904"/>
</g>
<!-- Node11&#45;&gt;Node6 -->
<g id="edge11" class="edge"><title>Node11&#45;&gt;Node6</title>
<path fill="none" stroke="midnightblue" d="M573.248,-56.083C565.53,-48.2195 554.095,-36.5688 544.783,-27.0813"/>
<polygon fill="midnightblue" stroke="midnightblue" points="547.092,-24.4363 537.589,-19.7511 542.096,-29.3396 547.092,-24.4363"/>
</g>
<!-- Node11&#45;&gt;Node7 -->
<g id="edge13" class="edge"><title>Node11&#45;&gt;Node7</title>
<path fill="none" stroke="midnightblue" d="M588.11,-56.083C593.282,-48.5341 600.846,-37.4948 607.194,-28.2298"/>
<polygon fill="midnightblue" stroke="midnightblue" points="610.239,-29.9787 613.004,-19.7511 604.464,-26.0221 610.239,-29.9787"/>
</g>
<!-- Node12&#45;&gt;Node5 -->
<g id="edge26" class="edge"><title>Node12&#45;&gt;Node5</title>
<path fill="none" stroke="midnightblue" d="M124.736,-336.389C74.9586,-323.668 0,-294.615 0,-235 0,-235 0,-235 0,-121 0,-39.6168 123.264,-18.4181 183.559,-12.9168"/>
<polygon fill="midnightblue" stroke="midnightblue" points="184.017,-16.391 193.698,-12.086 183.445,-9.41441 184.017,-16.391"/>
</g>
<!-- Node13 -->
<g id="node13" class="node"><title>Node13</title>
<g id="a_node13"><a xlink:href="InstanceConfigurableElement_8h.html" target="_top" xlink:title="InstanceConfigurableElement.h">
<polygon fill="white" stroke="black" points="133,-280.5 133,-299.5 299,-299.5 299,-280.5 133,-280.5"/>
<text text-anchor="middle" x="216" y="-287.5" font-family="Verdana" font-size="10.00">InstanceConfigurableElement.h</text>
</a>
</g>
</g>
<!-- Node12&#45;&gt;Node13 -->
<g id="edge17" class="edge"><title>Node12&#45;&gt;Node13</title>
<path fill="none" stroke="midnightblue" d="M175.926,-336.083C182.846,-328.298 193.065,-316.801 201.452,-307.367"/>
<polygon fill="midnightblue" stroke="midnightblue" points="204.194,-309.55 208.221,-299.751 198.962,-304.9 204.194,-309.55"/>
</g>
<!-- Node13&#45;&gt;Node3 -->
<g id="edge23" class="edge"><title>Node13&#45;&gt;Node3</title>
<path fill="none" stroke="midnightblue" d="M210.429,-280.368C198.764,-262.296 171.577,-220.176 156.171,-196.307"/>
<polygon fill="midnightblue" stroke="midnightblue" points="158.909,-194.095 150.545,-187.591 153.028,-197.891 158.909,-194.095"/>
</g>
<!-- Node13&#45;&gt;Node5 -->
<g id="edge25" class="edge"><title>Node13&#45;&gt;Node5</title>
<path fill="none" stroke="midnightblue" d="M216,-280.442C216,-261.936 216,-216.812 216,-179 216,-179 216,-179 216,-121 216,-88.948 216,-51.6426 216,-29.7489"/>
<polygon fill="midnightblue" stroke="midnightblue" points="219.5,-29.5577 216,-19.5578 212.5,-29.5578 219.5,-29.5577"/>
</g>
<!-- Node13&#45;&gt;Node8 -->
<g id="edge24" class="edge"><title>Node13&#45;&gt;Node8</title>
<path fill="none" stroke="midnightblue" d="M290.617,-280.463C334.819,-273.82 391.325,-262.522 439,-244 541.167,-204.307 642.961,-118.044 682.158,-82.6418"/>
<polygon fill="midnightblue" stroke="midnightblue" points="684.524,-85.2212 689.55,-75.8943 679.805,-80.0513 684.524,-85.2212"/>
</g>
<!-- Node14 -->
<g id="node14" class="node"><title>Node14</title>
<g id="a_node14"><a xlink:href="ConfigurableElementWithMapping_8h.html" target="_top" xlink:title="ConfigurableElementWithMapping.h">
<polygon fill="white" stroke="black" points="244,-224.5 244,-243.5 430,-243.5 430,-224.5 244,-224.5"/>
<text text-anchor="middle" x="337" y="-231.5" font-family="Verdana" font-size="10.00">ConfigurableElementWithMapping.h</text>
</a>
</g>
</g>
<!-- Node13&#45;&gt;Node14 -->
<g id="edge18" class="edge"><title>Node13&#45;&gt;Node14</title>
<path fill="none" stroke="midnightblue" d="M235.173,-280.444C254.909,-271.636 285.885,-257.812 308.493,-247.722"/>
<polygon fill="midnightblue" stroke="midnightblue" points="310.211,-250.788 317.917,-243.516 307.359,-244.396 310.211,-250.788"/>
</g>
<!-- Node14&#45;&gt;Node5 -->
<g id="edge22" class="edge"><title>Node14&#45;&gt;Node5</title>
<path fill="none" stroke="midnightblue" d="M332.257,-224.297C314.302,-191.356 250.282,-73.898 225.705,-28.8052"/>
<polygon fill="midnightblue" stroke="midnightblue" points="228.701,-26.9892 220.842,-19.8837 222.555,-30.3393 228.701,-26.9892"/>
</g>
<!-- Node15 -->
<g id="node15" class="node"><title>Node15</title>
<g id="a_node15"><a xlink:href="ConfigurableElement_8h.html" target="_top" xlink:title="ConfigurableElement.h">
<polygon fill="white" stroke="black" points="398.5,-168.5 398.5,-187.5 523.5,-187.5 523.5,-168.5 398.5,-168.5"/>
<text text-anchor="middle" x="461" y="-175.5" font-family="Verdana" font-size="10.00">ConfigurableElement.h</text>
</a>
</g>
</g>
<!-- Node14&#45;&gt;Node15 -->
<g id="edge19" class="edge"><title>Node14&#45;&gt;Node15</title>
<path fill="none" stroke="midnightblue" d="M356.648,-224.444C376.965,-215.596 408.903,-201.687 432.098,-191.586"/>
<polygon fill="midnightblue" stroke="midnightblue" points="433.673,-194.718 441.444,-187.516 430.878,-188.3 433.673,-194.718"/>
</g>
<!-- Node15&#45;&gt;Node4 -->
<g id="edge20" class="edge"><title>Node15&#45;&gt;Node4</title>
<path fill="none" stroke="midnightblue" d="M461,-168.083C461,-161.006 461,-150.861 461,-141.986"/>
<polygon fill="midnightblue" stroke="midnightblue" points="464.5,-141.751 461,-131.751 457.5,-141.751 464.5,-141.751"/>
</g>
<!-- Node15&#45;&gt;Node8 -->
<g id="edge21" class="edge"><title>Node15&#45;&gt;Node8</title>
<path fill="none" stroke="midnightblue" d="M479.675,-168.368C522.337,-148.651 626.926,-100.311 674.602,-78.2763"/>
<polygon fill="midnightblue" stroke="midnightblue" points="676.26,-81.3658 683.869,-73.9932 673.323,-75.0116 676.26,-81.3658"/>
</g>
</g>
</svg>
