<?xml version="1.0" encoding="UTF-8" standalone="no"?>
<!DOCTYPE svg PUBLIC "-//W3C//DTD SVG 1.1//EN"
 "http://www.w3.org/Graphics/SVG/1.1/DTD/svg11.dtd">
<!-- Generated by graphviz version 2.36.0 (20140111.2315)
 -->
<!-- Title: parameter/ParameterMgrFullConnector.cpp Pages: 1 -->
<svg width="1675pt" height="432pt"
 viewBox="0.00 0.00 1675.00 432.00" xmlns="http://www.w3.org/2000/svg" xmlns:xlink="http://www.w3.org/1999/xlink">
<g id="graph0" class="graph" transform="scale(1 1) rotate(0) translate(4 428)">
<title>parameter/ParameterMgrFullConnector.cpp</title>
<polygon fill="white" stroke="none" points="-4,4 -4,-428 1671,-428 1671,4 -4,4"/>
<!-- Node1 -->
<g id="node1" class="node"><title>Node1</title>
<polygon fill="#bfbfbf" stroke="black" points="440,-393 440,-423 594,-423 594,-393 440,-393"/>
<text text-anchor="start" x="448" y="-411" font-family="Verdana" font-size="10.00">parameter/ParameterMgrFull</text>
<text text-anchor="middle" x="517" y="-400" font-family="Verdana" font-size="10.00">Connector.cpp</text>
</g>
<!-- Node2 -->
<g id="node2" class="node"><title>Node2</title>
<polygon fill="white" stroke="#bfbfbf" points="0,-336.5 0,-355.5 158,-355.5 158,-336.5 0,-336.5"/>
<text text-anchor="middle" x="79" y="-343.5" font-family="Verdana" font-size="10.00">ParameterMgrFullConnector.h</text>
</g>
<!-- Node1&#45;&gt;Node2 -->
<g id="edge1" class="edge"><title>Node1&#45;&gt;Node2</title>
<path fill="none" stroke="midnightblue" d="M439.954,-396.446C358.388,-385.272 230.661,-367.775 151.045,-356.869"/>
<polygon fill="midnightblue" stroke="midnightblue" points="151.483,-353.397 141.101,-355.507 150.533,-360.332 151.483,-353.397"/>
</g>
<!-- Node3 -->
<g id="node3" class="node"><title>Node3</title>
<g id="a_node3"><a xlink:href="ParameterMgr_8h.html" target="_top" xlink:title="ParameterMgr.h">
<polygon fill="white" stroke="black" points="802.5,-280.5 802.5,-299.5 895.5,-299.5 895.5,-280.5 802.5,-280.5"/>
<text text-anchor="middle" x="849" y="-287.5" font-family="Verdana" font-size="10.00">ParameterMgr.h</text>
</a>
</g>
</g>
<!-- Node1&#45;&gt;Node3 -->
<g id="edge2" class="edge"><title>Node1&#45;&gt;Node3</title>
<path fill="none" stroke="midnightblue" d="M557.378,-392.892C623.348,-369.842 753.062,-324.52 814.791,-302.953"/>
<polygon fill="midnightblue" stroke="midnightblue" points="816.16,-306.182 824.446,-299.579 813.851,-299.574 816.16,-306.182"/>
</g>
<!-- Node7 -->
<g id="node7" class="node"><title>Node7</title>
<polygon fill="white" stroke="#bfbfbf" points="328,-56.5 328,-75.5 358,-75.5 358,-56.5 328,-56.5"/>
<text text-anchor="middle" x="343" y="-63.5" font-family="Verdana" font-size="10.00">list</text>
</g>
<!-- Node1&#45;&gt;Node7 -->
<g id="edge52" class="edge"><title>Node1&#45;&gt;Node7</title>
<path fill="none" stroke="midnightblue" d="M439.813,-395.724C342.005,-379.22 186,-344.509 186,-291 186,-291 186,-291 186,-233 186,-156.662 274.723,-101.288 318.775,-78.4985"/>
<polygon fill="midnightblue" stroke="midnightblue" points="320.581,-81.5082 327.946,-73.892 317.439,-75.253 320.581,-81.5082"/>
</g>
<!-- Node29 -->
<g id="node29" class="node"><title>Node29</title>
<g id="a_node29"><a xlink:href="ParameterMgrLogger_8h.html" target="_top" xlink:title="ParameterMgrLogger.h">
<polygon fill="white" stroke="black" points="1145,-336.5 1145,-355.5 1271,-355.5 1271,-336.5 1145,-336.5"/>
<text text-anchor="middle" x="1208" y="-343.5" font-family="Verdana" font-size="10.00">ParameterMgrLogger.h</text>
</a>
</g>
</g>
<!-- Node1&#45;&gt;Node29 -->
<g id="edge48" class="edge"><title>Node1&#45;&gt;Node29</title>
<path fill="none" stroke="midnightblue" d="M594.255,-400.292C728.631,-388.624 1003.58,-364.75 1134.96,-353.342"/>
<polygon fill="midnightblue" stroke="midnightblue" points="1135.27,-356.829 1144.93,-352.477 1134.66,-349.855 1135.27,-356.829"/>
</g>
<!-- Node4 -->
<g id="node4" class="node"><title>Node4</title>
<polygon fill="white" stroke="#bfbfbf" points="1068.5,-224.5 1068.5,-243.5 1131.5,-243.5 1131.5,-224.5 1068.5,-224.5"/>
<text text-anchor="middle" x="1100" y="-231.5" font-family="Verdana" font-size="10.00">pthread.h</text>
</g>
<!-- Node3&#45;&gt;Node4 -->
<g id="edge3" class="edge"><title>Node3&#45;&gt;Node4</title>
<path fill="none" stroke="midnightblue" d="M889.271,-280.433C929.49,-271.863 993.35,-258.218 1058.22,-244.16"/>
<polygon fill="midnightblue" stroke="midnightblue" points="1059.19,-247.532 1068.22,-241.993 1057.7,-240.691 1059.19,-247.532"/>
</g>
<!-- Node5 -->
<g id="node5" class="node"><title>Node5</title>
<polygon fill="white" stroke="#bfbfbf" points="1107,-112.5 1107,-131.5 1145,-131.5 1145,-112.5 1107,-112.5"/>
<text text-anchor="middle" x="1126" y="-119.5" font-family="Verdana" font-size="10.00">map</text>
</g>
<!-- Node3&#45;&gt;Node5 -->
<g id="edge4" class="edge"><title>Node3&#45;&gt;Node5</title>
<path fill="none" stroke="midnightblue" d="M895.617,-289.296C973.245,-288.684 1123.78,-282.428 1157,-244 1182.77,-214.194 1156.35,-165.748 1138.83,-140.134"/>
<polygon fill="midnightblue" stroke="midnightblue" points="1141.55,-137.919 1132.9,-131.807 1135.85,-141.981 1141.55,-137.919"/>
</g>
<!-- Node6 -->
<g id="node6" class="node"><title>Node6</title>
<polygon fill="white" stroke="#bfbfbf" points="319.5,-0.5 319.5,-19.5 366.5,-19.5 366.5,-0.5 319.5,-0.5"/>
<text text-anchor="middle" x="343" y="-7.5" font-family="Verdana" font-size="10.00">vector</text>
</g>
<!-- Node3&#45;&gt;Node6 -->
<g id="edge5" class="edge"><title>Node3&#45;&gt;Node6</title>
<path fill="none" stroke="midnightblue" d="M802.492,-287.766C691.795,-284.385 415.403,-273.195 328,-244 276.301,-226.731 224,-233.507 224,-179 224,-179 224,-179 224,-121 224,-73.2962 276.204,-40.5284 311.459,-23.8385"/>
<polygon fill="midnightblue" stroke="midnightblue" points="313.235,-26.8765 320.896,-19.5584 310.343,-20.5015 313.235,-26.8765"/>
</g>
<!-- Node3&#45;&gt;Node7 -->
<g id="edge6" class="edge"><title>Node3&#45;&gt;Node7</title>
<path fill="none" stroke="midnightblue" d="M802.416,-285.901C730.497,-280.45 596.393,-267.441 555,-244 516.822,-222.38 524.483,-197.492 492,-168 451.951,-131.638 397.941,-98.2736 367.159,-80.4768"/>
<polygon fill="midnightblue" stroke="midnightblue" points="368.811,-77.3901 358.392,-75.4673 365.338,-83.4677 368.811,-77.3901"/>
</g>
<!-- Node8 -->
<g id="node8" class="node"><title>Node8</title>
<g id="a_node8"><a xlink:href="RemoteCommandHandlerTemplate_8h.html" target="_top" xlink:title="RemoteCommandHandlerTemplate.h">
<polygon fill="white" stroke="black" points="290,-168.5 290,-187.5 484,-187.5 484,-168.5 290,-168.5"/>
<text text-anchor="middle" x="387" y="-175.5" font-family="Verdana" font-size="10.00">RemoteCommandHandlerTemplate.h</text>
</a>
</g>
</g>
<!-- Node3&#45;&gt;Node8 -->
<g id="edge7" class="edge"><title>Node3&#45;&gt;Node8</title>
<path fill="none" stroke="midnightblue" d="M802.236,-288.894C733.675,-287.439 602.667,-279.691 498,-244 463.415,-232.207 427.694,-208.935 406.419,-193.676"/>
<polygon fill="midnightblue" stroke="midnightblue" points="408.367,-190.764 398.23,-187.683 404.233,-196.413 408.367,-190.764"/>
</g>
<!-- Node12 -->
<g id="node12" class="node"><title>Node12</title>
<polygon fill="white" stroke="#bfbfbf" points="1057,-0.5 1057,-19.5 1101,-19.5 1101,-0.5 1057,-0.5"/>
<text text-anchor="middle" x="1079" y="-7.5" font-family="Verdana" font-size="10.00">string</text>
</g>
<!-- Node3&#45;&gt;Node12 -->
<g id="edge45" class="edge"><title>Node3&#45;&gt;Node12</title>
<path fill="none" stroke="midnightblue" d="M895.589,-287.794C1013.23,-283.614 1316.86,-265.386 1372,-188 1391.63,-160.453 1395.78,-139.44 1376,-112 1346.42,-70.954 1315.57,-93.2419 1268,-76 1245.11,-67.7031 1239.92,-64.222 1217,-56 1180.88,-43.0396 1138.89,-29.5734 1110.81,-20.7902"/>
<polygon fill="midnightblue" stroke="midnightblue" points="1111.71,-17.4067 1101.12,-17.7757 1109.63,-24.0902 1111.71,-17.4067"/>
</g>
<!-- Node13 -->
<g id="node13" class="node"><title>Node13</title>
<g id="a_node13"><a xlink:href="PathNavigator_8h.html" target="_top" xlink:title="PathNavigator.h">
<polygon fill="white" stroke="black" points="414,-56.5 414,-75.5 506,-75.5 506,-56.5 414,-56.5"/>
<text text-anchor="middle" x="460" y="-63.5" font-family="Verdana" font-size="10.00">PathNavigator.h</text>
</a>
</g>
</g>
<!-- Node3&#45;&gt;Node13 -->
<g id="edge14" class="edge"><title>Node3&#45;&gt;Node13</title>
<path fill="none" stroke="midnightblue" d="M802.13,-288.558C677.274,-286.236 341.982,-272.139 281,-188 241.27,-133.183 346.533,-95.5167 412.091,-78.065"/>
<polygon fill="midnightblue" stroke="midnightblue" points="413.046,-81.4333 421.849,-75.5375 411.291,-74.6569 413.046,-81.4333"/>
</g>
<!-- Node14 -->
<g id="node14" class="node"><title>Node14</title>
<g id="a_node14"><a xlink:href="SelectionCriterionType_8h.html" target="_top" xlink:title="SelectionCriterionType.h">
<polygon fill="white" stroke="black" points="956.5,-168.5 956.5,-187.5 1087.5,-187.5 1087.5,-168.5 956.5,-168.5"/>
<text text-anchor="middle" x="1022" y="-175.5" font-family="Verdana" font-size="10.00">SelectionCriterionType.h</text>
</a>
</g>
</g>
<!-- Node3&#45;&gt;Node14 -->
<g id="edge18" class="edge"><title>Node3&#45;&gt;Node14</title>
<path fill="none" stroke="midnightblue" d="M895.732,-288.837C969.836,-287.475 1109.1,-280.047 1140,-244 1162.5,-217.753 1119.68,-200.146 1079.47,-189.952"/>
<polygon fill="midnightblue" stroke="midnightblue" points="1080.15,-186.517 1069.61,-187.58 1078.51,-193.323 1080.15,-186.517"/>
</g>
<!-- Node15 -->
<g id="node15" class="node"><title>Node15</title>
<g id="a_node15"><a xlink:href="Element_8h.html" target="_top" xlink:title="Element.h">
<polygon fill="white" stroke="black" points="539.5,-112.5 539.5,-131.5 604.5,-131.5 604.5,-112.5 539.5,-112.5"/>
<text text-anchor="middle" x="572" y="-119.5" font-family="Verdana" font-size="10.00">Element.h</text>
</a>
</g>
</g>
<!-- Node3&#45;&gt;Node15 -->
<g id="edge35" class="edge"><title>Node3&#45;&gt;Node15</title>
<path fill="none" stroke="midnightblue" d="M802.442,-288.486C730.951,-286.6 599.306,-278.412 570,-244 545.565,-215.308 556.354,-167.418 565.002,-141.32"/>
<polygon fill="midnightblue" stroke="midnightblue" points="568.41,-142.184 568.469,-131.589 561.816,-139.835 568.41,-142.184"/>
</g>
<!-- Node19 -->
<g id="node19" class="node"><title>Node19</title>
<g id="a_node19"><a xlink:href="SelectionCriterion_8h.html" target="_top" xlink:title="SelectionCriterion.h">
<polygon fill="white" stroke="black" points="794,-224.5 794,-243.5 904,-243.5 904,-224.5 794,-224.5"/>
<text text-anchor="middle" x="849" y="-231.5" font-family="Verdana" font-size="10.00">SelectionCriterion.h</text>
</a>
</g>
</g>
<!-- Node3&#45;&gt;Node19 -->
<g id="edge30" class="edge"><title>Node3&#45;&gt;Node19</title>
<path fill="none" stroke="midnightblue" d="M849,-280.083C849,-273.006 849,-262.861 849,-253.986"/>
<polygon fill="midnightblue" stroke="midnightblue" points="852.5,-253.751 849,-243.751 845.5,-253.751 852.5,-253.751"/>
</g>
<!-- Node21 -->
<g id="node21" class="node"><title>Node21</title>
<polygon fill="white" stroke="#bfbfbf" points="578.5,-224.5 578.5,-243.5 661.5,-243.5 661.5,-224.5 578.5,-224.5"/>
<text text-anchor="middle" x="620" y="-231.5" font-family="Verdana" font-size="10.00">XmlDocSink.h</text>
</g>
<!-- Node3&#45;&gt;Node21 -->
<g id="edge36" class="edge"><title>Node3&#45;&gt;Node21</title>
<path fill="none" stroke="midnightblue" d="M812.714,-280.444C773.017,-271.083 709.293,-256.056 666.088,-245.868"/>
<polygon fill="midnightblue" stroke="midnightblue" points="666.652,-242.405 656.116,-243.516 665.046,-249.218 666.652,-242.405"/>
</g>
<!-- Node22 -->
<g id="node22" class="node"><title>Node22</title>
<polygon fill="white" stroke="#bfbfbf" points="680,-224.5 680,-243.5 776,-243.5 776,-224.5 680,-224.5"/>
<text text-anchor="middle" x="728" y="-231.5" font-family="Verdana" font-size="10.00">XmlDocSource.h</text>
</g>
<!-- Node3&#45;&gt;Node22 -->
<g id="edge37" class="edge"><title>Node3&#45;&gt;Node22</title>
<path fill="none" stroke="midnightblue" d="M829.827,-280.444C810.091,-271.636 779.115,-257.812 756.507,-247.722"/>
<polygon fill="midnightblue" stroke="midnightblue" points="757.641,-244.396 747.083,-243.516 754.789,-250.788 757.641,-244.396"/>
</g>
<!-- Node23 -->
<g id="node23" class="node"><title>Node23</title>
<g id="a_node23"><a xlink:href="XmlDomainExportContext_8h.html" target="_top" xlink:title="XmlDomainExportContext.h">
<polygon fill="white" stroke="black" points="1214.5,-168.5 1214.5,-187.5 1363.5,-187.5 1363.5,-168.5 1214.5,-168.5"/>
<text text-anchor="middle" x="1289" y="-175.5" font-family="Verdana" font-size="10.00">XmlDomainExportContext.h</text>
</a>
</g>
</g>
<!-- Node3&#45;&gt;Node23 -->
<g id="edge38" class="edge"><title>Node3&#45;&gt;Node23</title>
<path fill="none" stroke="midnightblue" d="M895.577,-286.529C980.343,-281.49 1156.22,-268.392 1212,-244 1237.43,-232.882 1260.91,-210.586 1275.09,-195.233"/>
<polygon fill="midnightblue" stroke="midnightblue" points="1277.92,-197.323 1281.97,-187.533 1272.69,-192.66 1277.92,-197.323"/>
</g>
<!-- Node27 -->
<g id="node27" class="node"><title>Node27</title>
<polygon fill="white" stroke="#bfbfbf" points="922.5,-224.5 922.5,-243.5 979.5,-243.5 979.5,-224.5 922.5,-224.5"/>
<text text-anchor="middle" x="951" y="-231.5" font-family="Verdana" font-size="10.00">ostream</text>
</g>
<!-- Node3&#45;&gt;Node27 -->
<g id="edge46" class="edge"><title>Node3&#45;&gt;Node27</title>
<path fill="none" stroke="midnightblue" d="M865.388,-280.324C881.671,-271.703 906.867,-258.364 925.716,-248.386"/>
<polygon fill="midnightblue" stroke="midnightblue" points="927.452,-251.427 934.653,-243.655 924.177,-245.24 927.452,-251.427"/>
</g>
<!-- Node28 -->
<g id="node28" class="node"><title>Node28</title>
<polygon fill="white" stroke="#bfbfbf" points="997.5,-224.5 997.5,-243.5 1050.5,-243.5 1050.5,-224.5 997.5,-224.5"/>
<text text-anchor="middle" x="1024" y="-231.5" font-family="Verdana" font-size="10.00">istream</text>
</g>
<!-- Node3&#45;&gt;Node28 -->
<g id="edge47" class="edge"><title>Node3&#45;&gt;Node28</title>
<path fill="none" stroke="midnightblue" d="M876.729,-280.444C906.688,-271.199 954.552,-256.43 987.538,-246.251"/>
<polygon fill="midnightblue" stroke="midnightblue" points="988.738,-249.544 997.261,-243.251 986.674,-242.855 988.738,-249.544"/>
</g>
<!-- Node8&#45;&gt;Node6 -->
<g id="edge8" class="edge"><title>Node8&#45;&gt;Node6</title>
<path fill="none" stroke="midnightblue" d="M378.597,-168.497C363.175,-152.221 330.85,-114.818 319,-76 313.969,-59.5205 322.081,-41.1336 330.204,-28.1326"/>
<polygon fill="midnightblue" stroke="midnightblue" points="333.196,-29.9573 335.933,-19.722 327.41,-26.0167 333.196,-29.9573"/>
</g>
<!-- Node9 -->
<g id="node9" class="node"><title>Node9</title>
<g id="a_node9"><a xlink:href="RemoteCommandHandler_8h.html" target="_top" xlink:title="RemoteCommandHandler.h">
<polygon fill="white" stroke="black" points="672.5,-112.5 672.5,-131.5 821.5,-131.5 821.5,-112.5 672.5,-112.5"/>
<text text-anchor="middle" x="747" y="-119.5" font-family="Verdana" font-size="10.00">RemoteCommandHandler.h</text>
</a>
</g>
</g>
<!-- Node8&#45;&gt;Node9 -->
<g id="edge9" class="edge"><title>Node8&#45;&gt;Node9</title>
<path fill="none" stroke="midnightblue" d="M444.043,-168.444C508.161,-158.826 612.15,-143.228 680.061,-133.041"/>
<polygon fill="midnightblue" stroke="midnightblue" points="680.854,-136.461 690.224,-131.516 679.815,-129.539 680.854,-136.461"/>
</g>
<!-- Node10 -->
<g id="node10" class="node"><title>Node10</title>
<g id="a_node10"><a xlink:href="RemoteCommand_8h.html" target="_top" xlink:title="RemoteCommand.h">
<polygon fill="white" stroke="black" points="778.5,-56.5 778.5,-75.5 891.5,-75.5 891.5,-56.5 778.5,-56.5"/>
<text text-anchor="middle" x="835" y="-63.5" font-family="Verdana" font-size="10.00">RemoteCommand.h</text>
</a>
</g>
</g>
<!-- Node9&#45;&gt;Node10 -->
<g id="edge10" class="edge"><title>Node9&#45;&gt;Node10</title>
<path fill="none" stroke="midnightblue" d="M761.139,-112.324C774.866,-103.9 795.936,-90.9709 812.064,-81.0741"/>
<polygon fill="midnightblue" stroke="midnightblue" points="814.204,-83.8678 820.896,-75.6545 810.543,-77.9016 814.204,-83.8678"/>
</g>
<!-- Node9&#45;&gt;Node12 -->
<g id="edge13" class="edge"><title>Node9&#45;&gt;Node12</title>
<path fill="none" stroke="midnightblue" d="M781.176,-112.425C812.482,-104.224 859.91,-90.9227 900,-76 920.132,-68.5064 924.005,-63.8517 944,-56 978.664,-42.3876 1019.31,-29.2034 1046.88,-20.6629"/>
<polygon fill="midnightblue" stroke="midnightblue" points="1048.23,-23.9085 1056.77,-17.6258 1046.18,-17.2172 1048.23,-23.9085"/>
</g>
<!-- Node11 -->
<g id="node11" class="node"><title>Node11</title>
<polygon fill="white" stroke="#bfbfbf" points="507.5,-0.5 507.5,-19.5 560.5,-19.5 560.5,-0.5 507.5,-0.5"/>
<text text-anchor="middle" x="534" y="-7.5" font-family="Verdana" font-size="10.00">stdint.h</text>
</g>
<!-- Node10&#45;&gt;Node11 -->
<g id="edge11" class="edge"><title>Node10&#45;&gt;Node11</title>
<path fill="none" stroke="midnightblue" d="M787.306,-56.4435C727.193,-45.6592 625.165,-27.3552 570.75,-17.593"/>
<polygon fill="midnightblue" stroke="midnightblue" points="571.307,-14.1372 560.846,-15.8162 570.071,-21.0272 571.307,-14.1372"/>
</g>
<!-- Node10&#45;&gt;Node12 -->
<g id="edge12" class="edge"><title>Node10&#45;&gt;Node12</title>
<path fill="none" stroke="midnightblue" d="M873.663,-56.4435C921.558,-45.8437 1002.28,-27.9792 1046.91,-18.1014"/>
<polygon fill="midnightblue" stroke="midnightblue" points="1047.91,-21.4658 1056.92,-15.8876 1046.4,-14.6312 1047.91,-21.4658"/>
</g>
<!-- Node13&#45;&gt;Node6 -->
<g id="edge15" class="edge"><title>Node13&#45;&gt;Node6</title>
<path fill="none" stroke="midnightblue" d="M441.461,-56.4435C422.377,-47.6356 392.425,-33.8116 370.564,-23.722"/>
<polygon fill="midnightblue" stroke="midnightblue" points="371.999,-20.5292 361.452,-19.5164 369.065,-26.8849 371.999,-20.5292"/>
</g>
<!-- Node13&#45;&gt;Node11 -->
<g id="edge17" class="edge"><title>Node13&#45;&gt;Node11</title>
<path fill="none" stroke="midnightblue" d="M471.889,-56.324C483.15,-48.1066 500.287,-35.6017 513.709,-25.8069"/>
<polygon fill="midnightblue" stroke="midnightblue" points="515.88,-28.5559 521.894,-19.8339 511.753,-22.9014 515.88,-28.5559"/>
</g>
<!-- Node13&#45;&gt;Node12 -->
<g id="edge16" class="edge"><title>Node13&#45;&gt;Node12</title>
<path fill="none" stroke="midnightblue" d="M506.349,-60.4122C521.243,-58.9654 537.815,-57.3843 553,-56 739.935,-38.9591 964.422,-20.3829 1046.73,-13.6347"/>
<polygon fill="midnightblue" stroke="midnightblue" points="1047.26,-17.1031 1056.94,-12.7985 1046.69,-10.1265 1047.26,-17.1031"/>
</g>
<!-- Node14&#45;&gt;Node5 -->
<g id="edge27" class="edge"><title>Node14&#45;&gt;Node5</title>
<path fill="none" stroke="midnightblue" d="M1038.71,-168.324C1055.31,-159.703 1081,-146.364 1100.22,-136.386"/>
<polygon fill="midnightblue" stroke="midnightblue" points="1102.07,-139.369 1109.33,-131.655 1098.84,-133.156 1102.07,-139.369"/>
</g>
<!-- Node14&#45;&gt;Node12 -->
<g id="edge28" class="edge"><title>Node14&#45;&gt;Node12</title>
<path fill="none" stroke="midnightblue" d="M1031.54,-168.342C1040.17,-159.935 1052.48,-146.368 1059,-132 1074.34,-98.1885 1078.06,-54.2954 1078.88,-29.7444"/>
<polygon fill="midnightblue" stroke="midnightblue" points="1082.38,-29.7203 1079.08,-19.6522 1075.38,-29.5801 1082.38,-29.7203"/>
</g>
<!-- Node14&#45;&gt;Node15 -->
<g id="edge19" class="edge"><title>Node14&#45;&gt;Node15</title>
<path fill="none" stroke="midnightblue" d="M956.084,-169.09C862.397,-157.848 693.368,-137.564 614.578,-128.109"/>
<polygon fill="midnightblue" stroke="midnightblue" points="614.872,-124.62 604.526,-126.903 614.038,-131.57 614.872,-124.62"/>
</g>
<!-- Node18 -->
<g id="node18" class="node"><title>Node18</title>
<polygon fill="white" stroke="#bfbfbf" points="877.5,-112.5 877.5,-131.5 1050.5,-131.5 1050.5,-112.5 877.5,-112.5"/>
<text text-anchor="middle" x="964" y="-119.5" font-family="Verdana" font-size="10.00">SelectionCriterionTypeInterface.h</text>
</g>
<!-- Node14&#45;&gt;Node18 -->
<g id="edge29" class="edge"><title>Node14&#45;&gt;Node18</title>
<path fill="none" stroke="midnightblue" d="M1012.68,-168.324C1004.11,-160.341 991.188,-148.313 980.812,-138.653"/>
<polygon fill="midnightblue" stroke="midnightblue" points="983.192,-136.086 973.488,-131.834 978.422,-141.21 983.192,-136.086"/>
</g>
<!-- Node15&#45;&gt;Node6 -->
<g id="edge21" class="edge"><title>Node15&#45;&gt;Node6</title>
<path fill="none" stroke="midnightblue" d="M539.201,-117.488C503.966,-112.547 447.336,-101.154 405,-76 384.349,-63.73 366.103,-42.6937 354.844,-27.8823"/>
<polygon fill="midnightblue" stroke="midnightblue" points="357.51,-25.5987 348.778,-19.5986 351.863,-29.7345 357.51,-25.5987"/>
</g>
<!-- Node15&#45;&gt;Node7 -->
<g id="edge23" class="edge"><title>Node15&#45;&gt;Node7</title>
<path fill="none" stroke="midnightblue" d="M539.242,-114.465C499.469,-106.338 430.453,-91.6196 372,-76 370.74,-75.6632 369.452,-75.3074 368.154,-74.9394"/>
<polygon fill="midnightblue" stroke="midnightblue" points="368.869,-71.5002 358.285,-71.9934 366.866,-78.2077 368.869,-71.5002"/>
</g>
<!-- Node15&#45;&gt;Node11 -->
<g id="edge22" class="edge"><title>Node15&#45;&gt;Node11</title>
<path fill="none" stroke="midnightblue" d="M568.059,-112.489C563.992,-103.525 557.607,-88.9427 553,-76 547.456,-60.424 542.27,-42.3467 538.721,-29.2161"/>
<polygon fill="midnightblue" stroke="midnightblue" points="542.095,-28.2851 536.153,-19.5133 535.328,-30.076 542.095,-28.2851"/>
</g>
<!-- Node15&#45;&gt;Node12 -->
<g id="edge20" class="edge"><title>Node15&#45;&gt;Node12</title>
<path fill="none" stroke="midnightblue" d="M604.655,-113.587C637.017,-105.804 687.729,-92.4224 730,-76 748.527,-68.8022 751.036,-61.9522 770,-56 867.67,-25.3444 989.374,-15.4295 1046.52,-12.3369"/>
<polygon fill="midnightblue" stroke="midnightblue" points="1046.93,-15.8207 1056.74,-11.8202 1046.57,-8.82967 1046.93,-15.8207"/>
</g>
<!-- Node15&#45;&gt;Node13 -->
<g id="edge26" class="edge"><title>Node15&#45;&gt;Node13</title>
<path fill="none" stroke="midnightblue" d="M554.005,-112.324C535.962,-103.625 507.953,-90.1202 487.197,-80.113"/>
<polygon fill="midnightblue" stroke="midnightblue" points="488.478,-76.8449 477.95,-75.6545 485.438,-83.1502 488.478,-76.8449"/>
</g>
<!-- Node16 -->
<g id="node16" class="node"><title>Node16</title>
<polygon fill="white" stroke="#bfbfbf" points="562,-56.5 562,-75.5 626,-75.5 626,-56.5 562,-56.5"/>
<text text-anchor="middle" x="594" y="-63.5" font-family="Verdana" font-size="10.00">XmlSink.h</text>
</g>
<!-- Node15&#45;&gt;Node16 -->
<g id="edge24" class="edge"><title>Node15&#45;&gt;Node16</title>
<path fill="none" stroke="midnightblue" d="M575.633,-112.083C578.612,-104.77 582.926,-94.1814 586.625,-85.1034"/>
<polygon fill="midnightblue" stroke="midnightblue" points="589.903,-86.3326 590.435,-75.7511 583.42,-83.6914 589.903,-86.3326"/>
</g>
<!-- Node17 -->
<g id="node17" class="node"><title>Node17</title>
<polygon fill="white" stroke="#bfbfbf" points="644.5,-56.5 644.5,-75.5 721.5,-75.5 721.5,-56.5 644.5,-56.5"/>
<text text-anchor="middle" x="683" y="-63.5" font-family="Verdana" font-size="10.00">XmlSource.h</text>
</g>
<!-- Node15&#45;&gt;Node17 -->
<g id="edge25" class="edge"><title>Node15&#45;&gt;Node17</title>
<path fill="none" stroke="midnightblue" d="M589.834,-112.324C607.716,-103.625 635.475,-90.1202 656.046,-80.113"/>
<polygon fill="midnightblue" stroke="midnightblue" points="657.749,-83.1765 665.21,-75.6545 654.687,-76.8819 657.749,-83.1765"/>
</g>
<!-- Node19&#45;&gt;Node12 -->
<g id="edge34" class="edge"><title>Node19&#45;&gt;Node12</title>
<path fill="none" stroke="midnightblue" d="M847.916,-224.353C845.717,-202.956 842.951,-146.758 869,-112 874.937,-104.079 994.575,-49.2197 1050.56,-23.8348"/>
<polygon fill="midnightblue" stroke="midnightblue" points="1052.26,-26.9108 1059.92,-19.5977 1049.37,-20.534 1052.26,-26.9108"/>
</g>
<!-- Node19&#45;&gt;Node14 -->
<g id="edge32" class="edge"><title>Node19&#45;&gt;Node14</title>
<path fill="none" stroke="midnightblue" d="M876.412,-224.444C905.769,-215.28 952.519,-200.688 985.096,-190.519"/>
<polygon fill="midnightblue" stroke="midnightblue" points="986.213,-193.837 994.716,-187.516 984.127,-187.155 986.213,-193.837"/>
</g>
<!-- Node19&#45;&gt;Node15 -->
<g id="edge31" class="edge"><title>Node19&#45;&gt;Node15</title>
<path fill="none" stroke="midnightblue" d="M843.96,-224.224C835.291,-209.983 816.139,-182.024 792,-168 762.47,-150.843 670.31,-136.092 615.081,-128.491"/>
<polygon fill="midnightblue" stroke="midnightblue" points="615.269,-124.984 604.89,-127.111 614.33,-131.921 615.269,-124.984"/>
</g>
<!-- Node20 -->
<g id="node20" class="node"><title>Node20</title>
<polygon fill="white" stroke="#bfbfbf" points="631,-168.5 631,-187.5 783,-187.5 783,-168.5 631,-168.5"/>
<text text-anchor="middle" x="707" y="-175.5" font-family="Verdana" font-size="10.00">SelectionCriterionInterface.h</text>
</g>
<!-- Node19&#45;&gt;Node20 -->
<g id="edge33" class="edge"><title>Node19&#45;&gt;Node20</title>
<path fill="none" stroke="midnightblue" d="M826.5,-224.444C802.923,-215.478 765.678,-201.314 739.036,-191.183"/>
<polygon fill="midnightblue" stroke="midnightblue" points="739.986,-187.8 729.395,-187.516 737.498,-194.342 739.986,-187.8"/>
</g>
<!-- Node23&#45;&gt;Node12 -->
<g id="edge44" class="edge"><title>Node23&#45;&gt;Node12</title>
<path fill="none" stroke="midnightblue" d="M1264.07,-168.493C1243.58,-160.81 1214.4,-148.228 1192,-132 1149.71,-101.361 1110.53,-53.2648 1091.35,-27.9233"/>
<polygon fill="midnightblue" stroke="midnightblue" points="1094,-25.6203 1085.22,-19.691 1088.38,-29.8016 1094,-25.6203"/>
</g>
<!-- Node24 -->
<g id="node24" class="node"><title>Node24</title>
<g id="a_node24"><a xlink:href="XmlDomainSerializingContext_8h.html" target="_top" xlink:title="XmlDomainSerializingContext.h">
<polygon fill="white" stroke="black" points="1200.5,-112.5 1200.5,-131.5 1367.5,-131.5 1367.5,-112.5 1200.5,-112.5"/>
<text text-anchor="middle" x="1284" y="-119.5" font-family="Verdana" font-size="10.00">XmlDomainSerializingContext.h</text>
</a>
</g>
</g>
<!-- Node23&#45;&gt;Node24 -->
<g id="edge39" class="edge"><title>Node23&#45;&gt;Node24</title>
<path fill="none" stroke="midnightblue" d="M1288.17,-168.083C1287.52,-161.006 1286.58,-150.861 1285.76,-141.986"/>
<polygon fill="midnightblue" stroke="midnightblue" points="1289.22,-141.386 1284.81,-131.751 1282.25,-142.031 1289.22,-141.386"/>
</g>
<!-- Node24&#45;&gt;Node12 -->
<g id="edge43" class="edge"><title>Node24&#45;&gt;Node12</title>
<path fill="none" stroke="midnightblue" d="M1272.81,-112.438C1255.21,-99.2203 1219.69,-73.5434 1187,-56 1162.17,-42.6718 1132.53,-30.5722 1110.59,-22.2846"/>
<polygon fill="midnightblue" stroke="midnightblue" points="1111.68,-18.9589 1101.09,-18.7543 1109.24,-25.5201 1111.68,-18.9589"/>
</g>
<!-- Node25 -->
<g id="node25" class="node"><title>Node25</title>
<g id="a_node25"><a xlink:href="XmlElementSerializingContext_8h.html" target="_top" xlink:title="XmlElementSerializingContext.h">
<polygon fill="white" stroke="black" points="1277,-56.5 1277,-75.5 1447,-75.5 1447,-56.5 1277,-56.5"/>
<text text-anchor="middle" x="1362" y="-63.5" font-family="Verdana" font-size="10.00">XmlElementSerializingContext.h</text>
</a>
</g>
</g>
<!-- Node24&#45;&gt;Node25 -->
<g id="edge40" class="edge"><title>Node24&#45;&gt;Node25</title>
<path fill="none" stroke="midnightblue" d="M1296.53,-112.324C1308.59,-103.979 1327.03,-91.2122 1341.27,-81.3524"/>
<polygon fill="midnightblue" stroke="midnightblue" points="1343.27,-84.2243 1349.5,-75.6545 1339.28,-78.469 1343.27,-84.2243"/>
</g>
<!-- Node25&#45;&gt;Node12 -->
<g id="edge42" class="edge"><title>Node25&#45;&gt;Node12</title>
<path fill="none" stroke="midnightblue" d="M1317.16,-56.4435C1259.83,-45.5043 1161.95,-26.828 1111.38,-17.1778"/>
<polygon fill="midnightblue" stroke="midnightblue" points="1111.81,-13.698 1101.33,-15.2616 1110.5,-20.574 1111.81,-13.698"/>
</g>
<!-- Node26 -->
<g id="node26" class="node"><title>Node26</title>
<polygon fill="white" stroke="#bfbfbf" points="1297,-0.5 1297,-19.5 1427,-19.5 1427,-0.5 1297,-0.5"/>
<text text-anchor="middle" x="1362" y="-7.5" font-family="Verdana" font-size="10.00">XmlSerializingContext.h</text>
</g>
<!-- Node25&#45;&gt;Node26 -->
<g id="edge41" class="edge"><title>Node25&#45;&gt;Node26</title>
<path fill="none" stroke="midnightblue" d="M1362,-56.083C1362,-49.0059 1362,-38.8611 1362,-29.9865"/>
<polygon fill="midnightblue" stroke="midnightblue" points="1365.5,-29.751 1362,-19.7511 1358.5,-29.7511 1365.5,-29.751"/>
</g>
<!-- Node29&#45;&gt;Node3 -->
<g id="edge50" class="edge"><title>Node29&#45;&gt;Node3</title>
<path fill="none" stroke="midnightblue" d="M1151.12,-336.444C1083.88,-326.331 972.695,-309.606 905.592,-299.513"/>
<polygon fill="midnightblue" stroke="midnightblue" points="906.028,-296.039 895.619,-298.012 904.987,-302.961 906.028,-296.039"/>
</g>
<!-- Node29&#45;&gt;Node12 -->
<g id="edge51" class="edge"><title>Node29&#45;&gt;Node12</title>
<path fill="none" stroke="midnightblue" d="M1271.28,-345.282C1350.23,-341.922 1475,-322.734 1475,-235 1475,-235 1475,-235 1475,-121 1475,-90.9022 1478.97,-75.4495 1456,-56 1429.86,-33.8683 1197.69,-18.0125 1111.24,-12.8293"/>
<polygon fill="midnightblue" stroke="midnightblue" points="1111.4,-9.33266 1101.21,-12.2368 1110.99,-16.3205 1111.4,-9.33266"/>
</g>
<!-- Node30 -->
<g id="node30" class="node"><title>Node30</title>
<polygon fill="white" stroke="#bfbfbf" points="1503,-280.5 1503,-299.5 1667,-299.5 1667,-280.5 1503,-280.5"/>
<text text-anchor="middle" x="1585" y="-287.5" font-family="Verdana" font-size="10.00">ParameterMgrLoggerForward.h</text>
</g>
<!-- Node29&#45;&gt;Node30 -->
<g id="edge49" class="edge"><title>Node29&#45;&gt;Node30</title>
<path fill="none" stroke="midnightblue" d="M1267.74,-336.444C1335.02,-326.806 1444.23,-311.163 1515.34,-300.978"/>
<polygon fill="midnightblue" stroke="midnightblue" points="1516.14,-304.399 1525.54,-299.516 1515.15,-297.47 1516.14,-304.399"/>
</g>
</g>
</svg>
