<?xml version="1.0" encoding="UTF-8" standalone="no"?>
<!DOCTYPE svg PUBLIC "-//W3C//DTD SVG 1.1//EN"
 "http://www.w3.org/Graphics/SVG/1.1/DTD/svg11.dtd">
<!-- Generated by graphviz version 2.36.0 (20140111.2315)
 -->
<!-- Title: parameter/ParameterBlockType.cpp Pages: 1 -->
<svg width="732pt" height="432pt"
 viewBox="0.00 0.00 732.00 432.00" xmlns="http://www.w3.org/2000/svg" xmlns:xlink="http://www.w3.org/1999/xlink">
<g id="graph0" class="graph" transform="scale(1 1) rotate(0) translate(4 428)">
<title>parameter/ParameterBlockType.cpp</title>
<polygon fill="white" stroke="none" points="-4,4 -4,-428 728,-428 728,4 -4,4"/>
<!-- Node1 -->
<g id="node1" class="node"><title>Node1</title>
<polygon fill="#bfbfbf" stroke="black" points="115,-393 115,-423 261,-423 261,-393 115,-393"/>
<text text-anchor="start" x="123" y="-411" font-family="Verdana" font-size="10.00">parameter/ParameterBlock</text>
<text text-anchor="middle" x="188" y="-400" font-family="Verdana" font-size="10.00">Type.cpp</text>
</g>
<!-- Node2 -->
<g id="node2" class="node"><title>Node2</title>
<g id="a_node2"><a xlink:href="ParameterBlockType_8h.html" target="_top" xlink:title="ParameterBlockType.h">
<polygon fill="white" stroke="black" points="0,-224.5 0,-243.5 122,-243.5 122,-224.5 0,-224.5"/>
<text text-anchor="middle" x="61" y="-231.5" font-family="Verdana" font-size="10.00">ParameterBlockType.h</text>
</a>
</g>
</g>
<!-- Node1&#45;&gt;Node2 -->
<g id="edge1" class="edge"><title>Node1&#45;&gt;Node2</title>
<path fill="none" stroke="midnightblue" d="M168.014,-392.95C155.5,-383.484 139.604,-370.175 128,-356 100.982,-322.996 79.2015,-277.539 68.3973,-252.799"/>
<polygon fill="midnightblue" stroke="midnightblue" points="71.5995,-251.386 64.4558,-243.561 65.1611,-254.133 71.5995,-251.386"/>
</g>
<!-- Node12 -->
<g id="node12" class="node"><title>Node12</title>
<g id="a_node12"><a xlink:href="ParameterBlock_8h.html" target="_top" xlink:title="ParameterBlock.h">
<polygon fill="white" stroke="black" points="137.5,-336.5 137.5,-355.5 238.5,-355.5 238.5,-336.5 137.5,-336.5"/>
<text text-anchor="middle" x="188" y="-343.5" font-family="Verdana" font-size="10.00">ParameterBlock.h</text>
</a>
</g>
</g>
<!-- Node1&#45;&gt;Node12 -->
<g id="edge16" class="edge"><title>Node1&#45;&gt;Node12</title>
<path fill="none" stroke="midnightblue" d="M188,-392.781C188,-384.781 188,-374.689 188,-366.017"/>
<polygon fill="midnightblue" stroke="midnightblue" points="191.5,-365.73 188,-355.731 184.5,-365.731 191.5,-365.73"/>
</g>
<!-- Node16 -->
<g id="node16" class="node"><title>Node16</title>
<polygon fill="white" stroke="#bfbfbf" points="256.5,-336.5 256.5,-355.5 307.5,-355.5 307.5,-336.5 256.5,-336.5"/>
<text text-anchor="middle" x="282" y="-343.5" font-family="Verdana" font-size="10.00">Utility.h</text>
</g>
<!-- Node1&#45;&gt;Node16 -->
<g id="edge27" class="edge"><title>Node1&#45;&gt;Node16</title>
<path fill="none" stroke="midnightblue" d="M210.277,-392.781C225.293,-383.196 245.017,-370.606 259.98,-361.056"/>
<polygon fill="midnightblue" stroke="midnightblue" points="262.05,-363.886 268.596,-355.556 258.284,-357.986 262.05,-363.886"/>
</g>
<!-- Node3 -->
<g id="node3" class="node"><title>Node3</title>
<g id="a_node3"><a xlink:href="TypeElement_8h.html" target="_top" xlink:title="TypeElement.h">
<polygon fill="white" stroke="black" points="74,-168.5 74,-187.5 160,-187.5 160,-168.5 74,-168.5"/>
<text text-anchor="middle" x="117" y="-175.5" font-family="Verdana" font-size="10.00">TypeElement.h</text>
</a>
</g>
</g>
<!-- Node2&#45;&gt;Node3 -->
<g id="edge2" class="edge"><title>Node2&#45;&gt;Node3</title>
<path fill="none" stroke="midnightblue" d="M69.9974,-224.324C78.1944,-216.42 90.5055,-204.548 100.472,-194.938"/>
<polygon fill="midnightblue" stroke="midnightblue" points="103.07,-197.295 107.839,-187.834 98.211,-192.256 103.07,-197.295"/>
</g>
<!-- Node5 -->
<g id="node5" class="node"><title>Node5</title>
<polygon fill="white" stroke="#bfbfbf" points="204,-0.5 204,-19.5 248,-19.5 248,-0.5 204,-0.5"/>
<text text-anchor="middle" x="226" y="-7.5" font-family="Verdana" font-size="10.00">string</text>
</g>
<!-- Node2&#45;&gt;Node5 -->
<g id="edge15" class="edge"><title>Node2&#45;&gt;Node5</title>
<path fill="none" stroke="midnightblue" d="M59.8796,-224.223C58.6015,-211.381 57.5542,-186.94 65,-168 88.5687,-108.048 109.019,-98.9833 157,-56 170.415,-43.9821 187.33,-32.8981 201.054,-24.7375"/>
<polygon fill="midnightblue" stroke="midnightblue" points="203.063,-27.6187 209.964,-19.5794 199.556,-21.5607 203.063,-27.6187"/>
</g>
<!-- Node4 -->
<g id="node4" class="node"><title>Node4</title>
<g id="a_node4"><a xlink:href="Element_8h.html" target="_top" xlink:title="Element.h">
<polygon fill="white" stroke="black" points="436.5,-112.5 436.5,-131.5 501.5,-131.5 501.5,-112.5 436.5,-112.5"/>
<text text-anchor="middle" x="469" y="-119.5" font-family="Verdana" font-size="10.00">Element.h</text>
</a>
</g>
</g>
<!-- Node3&#45;&gt;Node4 -->
<g id="edge3" class="edge"><title>Node3&#45;&gt;Node4</title>
<path fill="none" stroke="midnightblue" d="M160.162,-170.379C227.949,-159.979 358.591,-139.938 426.171,-129.57"/>
<polygon fill="midnightblue" stroke="midnightblue" points="427.103,-132.968 436.457,-127.992 426.042,-126.049 427.103,-132.968"/>
</g>
<!-- Node3&#45;&gt;Node5 -->
<g id="edge14" class="edge"><title>Node3&#45;&gt;Node5</title>
<path fill="none" stroke="midnightblue" d="M119.655,-168.418C126.364,-147.637 145.516,-93.5595 174,-56 182.68,-44.555 194.686,-33.9284 204.976,-25.8788"/>
<polygon fill="midnightblue" stroke="midnightblue" points="207.218,-28.5715 213.104,-19.7619 203.009,-22.9782 207.218,-28.5715"/>
</g>
<!-- Node4&#45;&gt;Node5 -->
<g id="edge4" class="edge"><title>Node4&#45;&gt;Node5</title>
<path fill="none" stroke="midnightblue" d="M436.478,-114.135C405.764,-106.958 358.889,-94.1909 321,-76 292.358,-62.2488 262.652,-40.5082 244.25,-26.0051"/>
<polygon fill="midnightblue" stroke="midnightblue" points="246.169,-23.0583 236.178,-19.5335 241.79,-28.5197 246.169,-23.0583"/>
</g>
<!-- Node6 -->
<g id="node6" class="node"><title>Node6</title>
<polygon fill="white" stroke="#bfbfbf" points="363.5,-0.5 363.5,-19.5 410.5,-19.5 410.5,-0.5 363.5,-0.5"/>
<text text-anchor="middle" x="387" y="-7.5" font-family="Verdana" font-size="10.00">vector</text>
</g>
<!-- Node4&#45;&gt;Node6 -->
<g id="edge5" class="edge"><title>Node4&#45;&gt;Node6</title>
<path fill="none" stroke="midnightblue" d="M464.714,-112.162C458.259,-99.2431 445.269,-74.7083 431,-56 422.984,-45.4905 412.719,-34.8652 404.12,-26.5802"/>
<polygon fill="midnightblue" stroke="midnightblue" points="406.487,-24.0011 396.804,-19.6999 401.691,-29.1004 406.487,-24.0011"/>
</g>
<!-- Node7 -->
<g id="node7" class="node"><title>Node7</title>
<polygon fill="white" stroke="#bfbfbf" points="450.5,-0.5 450.5,-19.5 503.5,-19.5 503.5,-0.5 450.5,-0.5"/>
<text text-anchor="middle" x="477" y="-7.5" font-family="Verdana" font-size="10.00">stdint.h</text>
</g>
<!-- Node4&#45;&gt;Node7 -->
<g id="edge6" class="edge"><title>Node4&#45;&gt;Node7</title>
<path fill="none" stroke="midnightblue" d="M469.628,-112.368C470.919,-94.617 473.897,-53.6664 475.647,-29.5974"/>
<polygon fill="midnightblue" stroke="midnightblue" points="479.141,-29.819 476.375,-19.5914 472.159,-29.3112 479.141,-29.819"/>
</g>
<!-- Node8 -->
<g id="node8" class="node"><title>Node8</title>
<polygon fill="white" stroke="#bfbfbf" points="694,-56.5 694,-75.5 724,-75.5 724,-56.5 694,-56.5"/>
<text text-anchor="middle" x="709" y="-63.5" font-family="Verdana" font-size="10.00">list</text>
</g>
<!-- Node4&#45;&gt;Node8 -->
<g id="edge7" class="edge"><title>Node4&#45;&gt;Node8</title>
<path fill="none" stroke="midnightblue" d="M501.76,-115.608C544.213,-108.288 620.338,-94.0266 684,-76 684.1,-75.9717 684.2,-75.9432 684.3,-75.9146"/>
<polygon fill="midnightblue" stroke="midnightblue" points="685.328,-79.2606 693.773,-72.8623 683.181,-72.5979 685.328,-79.2606"/>
</g>
<!-- Node9 -->
<g id="node9" class="node"><title>Node9</title>
<polygon fill="white" stroke="#bfbfbf" points="516,-56.5 516,-75.5 580,-75.5 580,-56.5 516,-56.5"/>
<text text-anchor="middle" x="548" y="-63.5" font-family="Verdana" font-size="10.00">XmlSink.h</text>
</g>
<!-- Node4&#45;&gt;Node9 -->
<g id="edge8" class="edge"><title>Node4&#45;&gt;Node9</title>
<path fill="none" stroke="midnightblue" d="M481.693,-112.324C493.901,-103.979 512.578,-91.2122 527.003,-81.3524"/>
<polygon fill="midnightblue" stroke="midnightblue" points="529.058,-84.1871 535.339,-75.6545 525.108,-78.4082 529.058,-84.1871"/>
</g>
<!-- Node10 -->
<g id="node10" class="node"><title>Node10</title>
<polygon fill="white" stroke="#bfbfbf" points="598.5,-56.5 598.5,-75.5 675.5,-75.5 675.5,-56.5 598.5,-56.5"/>
<text text-anchor="middle" x="637" y="-63.5" font-family="Verdana" font-size="10.00">XmlSource.h</text>
</g>
<!-- Node4&#45;&gt;Node10 -->
<g id="edge9" class="edge"><title>Node4&#45;&gt;Node10</title>
<path fill="none" stroke="midnightblue" d="M495.62,-112.444C524.006,-103.32 569.137,-88.8133 600.753,-78.6509"/>
<polygon fill="midnightblue" stroke="midnightblue" points="602.055,-81.9087 610.504,-75.5164 599.913,-75.2445 602.055,-81.9087"/>
</g>
<!-- Node11 -->
<g id="node11" class="node"><title>Node11</title>
<g id="a_node11"><a xlink:href="PathNavigator_8h.html" target="_top" xlink:title="PathNavigator.h">
<polygon fill="white" stroke="black" points="330,-56.5 330,-75.5 422,-75.5 422,-56.5 330,-56.5"/>
<text text-anchor="middle" x="376" y="-63.5" font-family="Verdana" font-size="10.00">PathNavigator.h</text>
</a>
</g>
</g>
<!-- Node4&#45;&gt;Node11 -->
<g id="edge10" class="edge"><title>Node4&#45;&gt;Node11</title>
<path fill="none" stroke="midnightblue" d="M454.058,-112.324C439.415,-103.822 416.866,-90.7288 399.762,-80.7975"/>
<polygon fill="midnightblue" stroke="midnightblue" points="401.31,-77.6491 390.905,-75.6545 397.795,-83.7027 401.31,-77.6491"/>
</g>
<!-- Node11&#45;&gt;Node5 -->
<g id="edge12" class="edge"><title>Node11&#45;&gt;Node5</title>
<path fill="none" stroke="midnightblue" d="M352.232,-56.4435C326.664,-47.239 285.879,-32.5565 257.618,-22.3826"/>
<polygon fill="midnightblue" stroke="midnightblue" points="258.784,-19.0825 248.19,-18.9883 256.413,-25.6687 258.784,-19.0825"/>
</g>
<!-- Node11&#45;&gt;Node6 -->
<g id="edge11" class="edge"><title>Node11&#45;&gt;Node6</title>
<path fill="none" stroke="midnightblue" d="M377.816,-56.083C379.274,-48.9272 381.371,-38.6353 383.193,-29.6911"/>
<polygon fill="midnightblue" stroke="midnightblue" points="386.651,-30.2485 385.217,-19.7511 379.792,-28.8512 386.651,-30.2485"/>
</g>
<!-- Node11&#45;&gt;Node7 -->
<g id="edge13" class="edge"><title>Node11&#45;&gt;Node7</title>
<path fill="none" stroke="midnightblue" d="M392.227,-56.324C408.351,-47.7034 433.3,-34.3643 451.964,-24.3855"/>
<polygon fill="midnightblue" stroke="midnightblue" points="453.644,-27.456 460.813,-19.6545 450.344,-21.283 453.644,-27.456"/>
</g>
<!-- Node12&#45;&gt;Node5 -->
<g id="edge26" class="edge"><title>Node12&#45;&gt;Node5</title>
<path fill="none" stroke="midnightblue" d="M188,-336.442C188,-317.936 188,-272.812 188,-235 188,-235 188,-235 188,-121 188,-86.8131 204.6,-49.7639 215.857,-28.5707"/>
<polygon fill="midnightblue" stroke="midnightblue" points="218.947,-30.2151 220.716,-19.769 212.819,-26.832 218.947,-30.2151"/>
</g>
<!-- Node13 -->
<g id="node13" class="node"><title>Node13</title>
<g id="a_node13"><a xlink:href="InstanceConfigurableElement_8h.html" target="_top" xlink:title="InstanceConfigurableElement.h">
<polygon fill="white" stroke="black" points="216,-280.5 216,-299.5 382,-299.5 382,-280.5 216,-280.5"/>
<text text-anchor="middle" x="299" y="-287.5" font-family="Verdana" font-size="10.00">InstanceConfigurableElement.h</text>
</a>
</g>
</g>
<!-- Node12&#45;&gt;Node13 -->
<g id="edge17" class="edge"><title>Node12&#45;&gt;Node13</title>
<path fill="none" stroke="midnightblue" d="M205.834,-336.324C223.716,-327.625 251.475,-314.12 272.046,-304.113"/>
<polygon fill="midnightblue" stroke="midnightblue" points="273.749,-307.177 281.21,-299.655 270.687,-300.882 273.749,-307.177"/>
</g>
<!-- Node13&#45;&gt;Node3 -->
<g id="edge23" class="edge"><title>Node13&#45;&gt;Node3</title>
<path fill="none" stroke="midnightblue" d="M280.99,-280.488C263.149,-271.871 235.209,-257.871 212,-244 185.196,-227.98 155.721,-207.301 136.821,-193.618"/>
<polygon fill="midnightblue" stroke="midnightblue" points="138.832,-190.753 128.689,-187.69 134.708,-196.409 138.832,-190.753"/>
</g>
<!-- Node13&#45;&gt;Node5 -->
<g id="edge25" class="edge"><title>Node13&#45;&gt;Node5</title>
<path fill="none" stroke="midnightblue" d="M284.54,-280.435C272.299,-272.469 255.169,-259.514 245,-244 228.5,-218.828 226,-209.098 226,-179 226,-179 226,-179 226,-121 226,-88.948 226,-51.6426 226,-29.7489"/>
<polygon fill="midnightblue" stroke="midnightblue" points="229.5,-29.5577 226,-19.5578 222.5,-29.5578 229.5,-29.5577"/>
</g>
<!-- Node13&#45;&gt;Node8 -->
<g id="edge24" class="edge"><title>Node13&#45;&gt;Node8</title>
<path fill="none" stroke="midnightblue" d="M336.684,-280.439C367.39,-272.801 411.484,-260.309 448,-244 547.875,-199.393 650.826,-116.607 691.221,-82.4016"/>
<polygon fill="midnightblue" stroke="midnightblue" points="693.537,-85.0269 698.868,-75.8712 688.991,-79.7038 693.537,-85.0269"/>
</g>
<!-- Node14 -->
<g id="node14" class="node"><title>Node14</title>
<g id="a_node14"><a xlink:href="ConfigurableElementWithMapping_8h.html" target="_top" xlink:title="ConfigurableElementWithMapping.h">
<polygon fill="white" stroke="black" points="254,-224.5 254,-243.5 440,-243.5 440,-224.5 254,-224.5"/>
<text text-anchor="middle" x="347" y="-231.5" font-family="Verdana" font-size="10.00">ConfigurableElementWithMapping.h</text>
</a>
</g>
</g>
<!-- Node13&#45;&gt;Node14 -->
<g id="edge18" class="edge"><title>Node13&#45;&gt;Node14</title>
<path fill="none" stroke="midnightblue" d="M306.926,-280.083C313.846,-272.298 324.065,-260.801 332.452,-251.367"/>
<polygon fill="midnightblue" stroke="midnightblue" points="335.194,-253.55 339.221,-243.751 329.962,-248.9 335.194,-253.55"/>
</g>
<!-- Node14&#45;&gt;Node5 -->
<g id="edge22" class="edge"><title>Node14&#45;&gt;Node5</title>
<path fill="none" stroke="midnightblue" d="M342.257,-224.297C324.302,-191.356 260.282,-73.898 235.705,-28.8052"/>
<polygon fill="midnightblue" stroke="midnightblue" points="238.701,-26.9892 230.842,-19.8837 232.555,-30.3393 238.701,-26.9892"/>
</g>
<!-- Node15 -->
<g id="node15" class="node"><title>Node15</title>
<g id="a_node15"><a xlink:href="ConfigurableElement_8h.html" target="_top" xlink:title="ConfigurableElement.h">
<polygon fill="white" stroke="black" points="406.5,-168.5 406.5,-187.5 531.5,-187.5 531.5,-168.5 406.5,-168.5"/>
<text text-anchor="middle" x="469" y="-175.5" font-family="Verdana" font-size="10.00">ConfigurableElement.h</text>
</a>
</g>
</g>
<!-- Node14&#45;&gt;Node15 -->
<g id="edge19" class="edge"><title>Node14&#45;&gt;Node15</title>
<path fill="none" stroke="midnightblue" d="M366.331,-224.444C386.32,-215.596 417.743,-201.687 440.564,-191.586"/>
<polygon fill="midnightblue" stroke="midnightblue" points="442.032,-194.764 449.759,-187.516 439.198,-188.363 442.032,-194.764"/>
</g>
<!-- Node15&#45;&gt;Node4 -->
<g id="edge20" class="edge"><title>Node15&#45;&gt;Node4</title>
<path fill="none" stroke="midnightblue" d="M469,-168.083C469,-161.006 469,-150.861 469,-141.986"/>
<polygon fill="midnightblue" stroke="midnightblue" points="472.5,-141.751 469,-131.751 465.5,-141.751 472.5,-141.751"/>
</g>
<!-- Node15&#45;&gt;Node8 -->
<g id="edge21" class="edge"><title>Node15&#45;&gt;Node8</title>
<path fill="none" stroke="midnightblue" d="M487.832,-168.368C530.852,-148.651 636.321,-100.311 684.397,-78.2763"/>
<polygon fill="midnightblue" stroke="midnightblue" points="686.11,-81.3416 693.742,-73.9932 683.193,-74.9781 686.11,-81.3416"/>
</g>
</g>
</svg>
