<?xml version="1.0" encoding="UTF-8" standalone="no"?>
<!DOCTYPE svg PUBLIC "-//W3C//DTD SVG 1.1//EN"
 "http://www.w3.org/Graphics/SVG/1.1/DTD/svg11.dtd">
<!-- Generated by graphviz version 2.36.0 (20140111.2315)
 -->
<!-- Title: parameter/ParameterMgr.h Pages: 1 -->
<svg width="1303pt" height="308pt"
 viewBox="0.00 0.00 1303.00 308.00" xmlns="http://www.w3.org/2000/svg" xmlns:xlink="http://www.w3.org/1999/xlink">
<g id="graph0" class="graph" transform="scale(1 1) rotate(0) translate(4 304)">
<title>parameter/ParameterMgr.h</title>
<polygon fill="white" stroke="none" points="-4,4 -4,-304 1299,-304 1299,4 -4,4"/>
<!-- Node1 -->
<g id="node1" class="node"><title>Node1</title>
<polygon fill="#bfbfbf" stroke="black" points="507.5,-280.5 507.5,-299.5 654.5,-299.5 654.5,-280.5 507.5,-280.5"/>
<text text-anchor="middle" x="581" y="-287.5" font-family="Verdana" font-size="10.00">parameter/ParameterMgr.h</text>
</g>
<!-- Node2 -->
<g id="node2" class="node"><title>Node2</title>
<polygon fill="white" stroke="#bfbfbf" points="-0.5,-224.5 -0.5,-243.5 62.5,-243.5 62.5,-224.5 -0.5,-224.5"/>
<text text-anchor="middle" x="31" y="-231.5" font-family="Verdana" font-size="10.00">pthread.h</text>
</g>
<!-- Node1&#45;&gt;Node2 -->
<g id="edge1" class="edge"><title>Node1&#45;&gt;Node2</title>
<path fill="none" stroke="midnightblue" d="M507.272,-284.83C408.837,-278.713 229.206,-265.625 77,-244 75.5397,-243.793 74.0557,-243.569 72.5585,-243.334"/>
<polygon fill="midnightblue" stroke="midnightblue" points="73.047,-239.866 62.6003,-241.632 71.8679,-246.766 73.047,-239.866"/>
</g>
<!-- Node3 -->
<g id="node3" class="node"><title>Node3</title>
<polygon fill="white" stroke="#bfbfbf" points="535,-112.5 535,-131.5 573,-131.5 573,-112.5 535,-112.5"/>
<text text-anchor="middle" x="554" y="-119.5" font-family="Verdana" font-size="10.00">map</text>
</g>
<!-- Node1&#45;&gt;Node3 -->
<g id="edge2" class="edge"><title>Node1&#45;&gt;Node3</title>
<path fill="none" stroke="midnightblue" d="M579.548,-280.075C575.298,-253.945 562.817,-177.211 557.022,-141.577"/>
<polygon fill="midnightblue" stroke="midnightblue" points="560.454,-140.876 555.394,-131.568 553.544,-142 560.454,-140.876"/>
</g>
<!-- Node4 -->
<g id="node4" class="node"><title>Node4</title>
<polygon fill="white" stroke="#bfbfbf" points="124.5,-0.5 124.5,-19.5 171.5,-19.5 171.5,-0.5 124.5,-0.5"/>
<text text-anchor="middle" x="148" y="-7.5" font-family="Verdana" font-size="10.00">vector</text>
</g>
<!-- Node1&#45;&gt;Node4 -->
<g id="edge3" class="edge"><title>Node1&#45;&gt;Node4</title>
<path fill="none" stroke="midnightblue" d="M507.377,-287.606C370.587,-283.008 91,-263.299 91,-179 91,-179 91,-179 91,-121 91,-84.3005 116.321,-47.6567 133.21,-27.2973"/>
<polygon fill="midnightblue" stroke="midnightblue" points="135.954,-29.475 139.833,-19.6161 130.652,-24.9037 135.954,-29.475"/>
</g>
<!-- Node5 -->
<g id="node5" class="node"><title>Node5</title>
<polygon fill="white" stroke="#bfbfbf" points="305,-56.5 305,-75.5 335,-75.5 335,-56.5 305,-56.5"/>
<text text-anchor="middle" x="320" y="-63.5" font-family="Verdana" font-size="10.00">list</text>
</g>
<!-- Node1&#45;&gt;Node5 -->
<g id="edge4" class="edge"><title>Node1&#45;&gt;Node5</title>
<path fill="none" stroke="midnightblue" d="M507.297,-288.294C433.443,-283.158 323.17,-262.474 269,-188 260.35,-176.108 262.027,-140.981 276,-112 281.595,-100.395 291.37,-89.9346 300.287,-82.0257"/>
<polygon fill="midnightblue" stroke="midnightblue" points="302.651,-84.6117 308.091,-75.5202 298.169,-79.2349 302.651,-84.6117"/>
</g>
<!-- Node6 -->
<g id="node6" class="node"><title>Node6</title>
<g id="a_node6"><a xlink:href="RemoteCommandHandlerTemplate_8h.html" target="_top" xlink:title="RemoteCommandHandlerTemplate.h">
<polygon fill="white" stroke="black" points="278,-168.5 278,-187.5 472,-187.5 472,-168.5 278,-168.5"/>
<text text-anchor="middle" x="375" y="-175.5" font-family="Verdana" font-size="10.00">RemoteCommandHandlerTemplate.h</text>
</a>
</g>
</g>
<!-- Node1&#45;&gt;Node6 -->
<g id="edge5" class="edge"><title>Node1&#45;&gt;Node6</title>
<path fill="none" stroke="midnightblue" d="M561.469,-280.352C542.09,-271.632 511.656,-257.555 486,-244 454.728,-227.478 419.666,-206.521 397.472,-192.94"/>
<polygon fill="midnightblue" stroke="midnightblue" points="399.149,-189.862 388.797,-187.606 395.482,-195.825 399.149,-189.862"/>
</g>
<!-- Node10 -->
<g id="node10" class="node"><title>Node10</title>
<polygon fill="white" stroke="#bfbfbf" points="790,-0.5 790,-19.5 834,-19.5 834,-0.5 790,-0.5"/>
<text text-anchor="middle" x="812" y="-7.5" font-family="Verdana" font-size="10.00">string</text>
</g>
<!-- Node1&#45;&gt;Node10 -->
<g id="edge43" class="edge"><title>Node1&#45;&gt;Node10</title>
<path fill="none" stroke="midnightblue" d="M654.523,-289.67C806.044,-289.065 1139,-276.629 1139,-179 1139,-179 1139,-179 1139,-121 1139,-90.048 1138.15,-75.3604 1114,-56 1093.16,-39.2899 917.878,-20.9932 844.307,-13.9701"/>
<polygon fill="midnightblue" stroke="midnightblue" points="844.506,-10.4734 834.221,-13.0172 843.848,-17.4423 844.506,-10.4734"/>
</g>
<!-- Node11 -->
<g id="node11" class="node"><title>Node11</title>
<g id="a_node11"><a xlink:href="PathNavigator_8h.html" target="_top" xlink:title="PathNavigator.h">
<polygon fill="white" stroke="black" points="195,-56.5 195,-75.5 287,-75.5 287,-56.5 195,-56.5"/>
<text text-anchor="middle" x="241" y="-63.5" font-family="Verdana" font-size="10.00">PathNavigator.h</text>
</a>
</g>
</g>
<!-- Node1&#45;&gt;Node11 -->
<g id="edge12" class="edge"><title>Node1&#45;&gt;Node11</title>
<path fill="none" stroke="midnightblue" d="M507.207,-283.22C436.782,-276.616 336.584,-264.05 303,-244 248.022,-211.177 240.924,-124.332 240.587,-85.8331"/>
<polygon fill="midnightblue" stroke="midnightblue" points="244.089,-85.5731 240.654,-75.5504 237.089,-85.5273 244.089,-85.5731"/>
</g>
<!-- Node12 -->
<g id="node12" class="node"><title>Node12</title>
<g id="a_node12"><a xlink:href="SelectionCriterionType_8h.html" target="_top" xlink:title="SelectionCriterionType.h">
<polygon fill="white" stroke="black" points="604.5,-168.5 604.5,-187.5 735.5,-187.5 735.5,-168.5 604.5,-168.5"/>
<text text-anchor="middle" x="670" y="-175.5" font-family="Verdana" font-size="10.00">SelectionCriterionType.h</text>
</a>
</g>
</g>
<!-- Node1&#45;&gt;Node12 -->
<g id="edge16" class="edge"><title>Node1&#45;&gt;Node12</title>
<path fill="none" stroke="midnightblue" d="M581.633,-280.142C582.99,-266.761 587.188,-241.138 600,-224 610.191,-210.367 625.827,-199.752 639.739,-192.264"/>
<polygon fill="midnightblue" stroke="midnightblue" points="641.659,-195.215 649.006,-187.581 638.502,-188.967 641.659,-195.215"/>
</g>
<!-- Node13 -->
<g id="node13" class="node"><title>Node13</title>
<g id="a_node13"><a xlink:href="Element_8h.html" target="_top" xlink:title="Element.h">
<polygon fill="white" stroke="black" points="285.5,-112.5 285.5,-131.5 350.5,-131.5 350.5,-112.5 285.5,-112.5"/>
<text text-anchor="middle" x="318" y="-119.5" font-family="Verdana" font-size="10.00">Element.h</text>
</a>
</g>
</g>
<!-- Node1&#45;&gt;Node13 -->
<g id="edge33" class="edge"><title>Node1&#45;&gt;Node13</title>
<path fill="none" stroke="midnightblue" d="M576.367,-280.454C563.901,-258.29 527.362,-198.565 480,-168 469.825,-161.433 404.767,-144.471 360.256,-133.349"/>
<polygon fill="midnightblue" stroke="midnightblue" points="361.092,-129.951 350.542,-130.933 359.402,-136.744 361.092,-129.951"/>
</g>
<!-- Node17 -->
<g id="node17" class="node"><title>Node17</title>
<g id="a_node17"><a xlink:href="SelectionCriterion_8h.html" target="_top" xlink:title="SelectionCriterion.h">
<polygon fill="white" stroke="black" points="609,-224.5 609,-243.5 719,-243.5 719,-224.5 609,-224.5"/>
<text text-anchor="middle" x="664" y="-231.5" font-family="Verdana" font-size="10.00">SelectionCriterion.h</text>
</a>
</g>
</g>
<!-- Node1&#45;&gt;Node17 -->
<g id="edge28" class="edge"><title>Node1&#45;&gt;Node17</title>
<path fill="none" stroke="midnightblue" d="M594.335,-280.324C607.162,-271.979 626.785,-259.212 641.94,-249.352"/>
<polygon fill="midnightblue" stroke="midnightblue" points="644.224,-252.042 650.698,-243.655 640.407,-246.174 644.224,-252.042"/>
</g>
<!-- Node19 -->
<g id="node19" class="node"><title>Node19</title>
<polygon fill="white" stroke="#bfbfbf" points="775.5,-224.5 775.5,-243.5 858.5,-243.5 858.5,-224.5 775.5,-224.5"/>
<text text-anchor="middle" x="817" y="-231.5" font-family="Verdana" font-size="10.00">XmlDocSink.h</text>
</g>
<!-- Node1&#45;&gt;Node19 -->
<g id="edge34" class="edge"><title>Node1&#45;&gt;Node19</title>
<path fill="none" stroke="midnightblue" d="M618.395,-280.444C659.392,-271.063 725.254,-255.993 769.784,-245.804"/>
<polygon fill="midnightblue" stroke="midnightblue" points="770.813,-249.159 779.78,-243.516 769.251,-242.335 770.813,-249.159"/>
</g>
<!-- Node20 -->
<g id="node20" class="node"><title>Node20</title>
<polygon fill="white" stroke="#bfbfbf" points="877,-224.5 877,-243.5 973,-243.5 973,-224.5 877,-224.5"/>
<text text-anchor="middle" x="925" y="-231.5" font-family="Verdana" font-size="10.00">XmlDocSource.h</text>
</g>
<!-- Node1&#45;&gt;Node20 -->
<g id="edge35" class="edge"><title>Node1&#45;&gt;Node20</title>
<path fill="none" stroke="midnightblue" d="M635.508,-280.444C698.628,-270.535 802.186,-254.279 866.825,-244.132"/>
<polygon fill="midnightblue" stroke="midnightblue" points="867.517,-247.567 876.853,-242.558 866.431,-240.651 867.517,-247.567"/>
</g>
<!-- Node21 -->
<g id="node21" class="node"><title>Node21</title>
<g id="a_node21"><a xlink:href="XmlDomainExportContext_8h.html" target="_top" xlink:title="XmlDomainExportContext.h">
<polygon fill="white" stroke="black" points="962.5,-168.5 962.5,-187.5 1111.5,-187.5 1111.5,-168.5 962.5,-168.5"/>
<text text-anchor="middle" x="1037" y="-175.5" font-family="Verdana" font-size="10.00">XmlDomainExportContext.h</text>
</a>
</g>
</g>
<!-- Node1&#45;&gt;Node21 -->
<g id="edge36" class="edge"><title>Node1&#45;&gt;Node21</title>
<path fill="none" stroke="midnightblue" d="M614.864,-280.464C645.044,-272.428 690.161,-259.353 728,-244 746.05,-236.676 748.506,-230.118 767,-224 802.189,-212.358 894.745,-198.196 961.689,-188.907"/>
<polygon fill="midnightblue" stroke="midnightblue" points="962.357,-192.348 971.785,-187.516 961.401,-185.414 962.357,-192.348"/>
</g>
<!-- Node25 -->
<g id="node25" class="node"><title>Node25</title>
<polygon fill="white" stroke="#bfbfbf" points="1167.5,-224.5 1167.5,-243.5 1224.5,-243.5 1224.5,-224.5 1167.5,-224.5"/>
<text text-anchor="middle" x="1196" y="-231.5" font-family="Verdana" font-size="10.00">ostream</text>
</g>
<!-- Node1&#45;&gt;Node25 -->
<g id="edge44" class="edge"><title>Node1&#45;&gt;Node25</title>
<path fill="none" stroke="midnightblue" d="M654.923,-286.206C764.244,-281.391 975.266,-269.485 1153,-244 1154.46,-243.79 1155.95,-243.561 1157.45,-243.316"/>
<polygon fill="midnightblue" stroke="midnightblue" points="1158.19,-246.739 1167.41,-241.516 1156.95,-239.85 1158.19,-246.739"/>
</g>
<!-- Node26 -->
<g id="node26" class="node"><title>Node26</title>
<polygon fill="white" stroke="#bfbfbf" points="1242.5,-224.5 1242.5,-243.5 1295.5,-243.5 1295.5,-224.5 1242.5,-224.5"/>
<text text-anchor="middle" x="1269" y="-231.5" font-family="Verdana" font-size="10.00">istream</text>
</g>
<!-- Node1&#45;&gt;Node26 -->
<g id="edge45" class="edge"><title>Node1&#45;&gt;Node26</title>
<path fill="none" stroke="midnightblue" d="M654.809,-288.126C774.324,-285.783 1017.6,-277.164 1232.48,-243.77"/>
<polygon fill="midnightblue" stroke="midnightblue" points="1233.04,-247.226 1242.37,-242.212 1231.95,-240.311 1233.04,-247.226"/>
</g>
<!-- Node6&#45;&gt;Node4 -->
<g id="edge6" class="edge"><title>Node6&#45;&gt;Node4</title>
<path fill="none" stroke="midnightblue" d="M334.038,-168.466C286.188,-156.319 208.101,-129.334 165,-76 154.356,-62.8283 150.317,-43.69 148.815,-29.5894"/>
<polygon fill="midnightblue" stroke="midnightblue" points="152.302,-29.287 148.077,-19.5714 145.321,-29.8016 152.302,-29.287"/>
</g>
<!-- Node7 -->
<g id="node7" class="node"><title>Node7</title>
<g id="a_node7"><a xlink:href="RemoteCommandHandler_8h.html" target="_top" xlink:title="RemoteCommandHandler.h">
<polygon fill="white" stroke="black" points="368.5,-112.5 368.5,-131.5 517.5,-131.5 517.5,-112.5 368.5,-112.5"/>
<text text-anchor="middle" x="443" y="-119.5" font-family="Verdana" font-size="10.00">RemoteCommandHandler.h</text>
</a>
</g>
</g>
<!-- Node6&#45;&gt;Node7 -->
<g id="edge7" class="edge"><title>Node6&#45;&gt;Node7</title>
<path fill="none" stroke="midnightblue" d="M385.925,-168.324C396.175,-160.185 411.721,-147.839 424.001,-138.087"/>
<polygon fill="midnightblue" stroke="midnightblue" points="426.221,-140.794 431.876,-131.834 421.868,-135.312 426.221,-140.794"/>
</g>
<!-- Node8 -->
<g id="node8" class="node"><title>Node8</title>
<g id="a_node8"><a xlink:href="RemoteCommand_8h.html" target="_top" xlink:title="RemoteCommand.h">
<polygon fill="white" stroke="black" points="568.5,-56.5 568.5,-75.5 681.5,-75.5 681.5,-56.5 568.5,-56.5"/>
<text text-anchor="middle" x="625" y="-63.5" font-family="Verdana" font-size="10.00">RemoteCommand.h</text>
</a>
</g>
</g>
<!-- Node7&#45;&gt;Node8 -->
<g id="edge8" class="edge"><title>Node7&#45;&gt;Node8</title>
<path fill="none" stroke="midnightblue" d="M471.838,-112.444C502.856,-103.241 552.329,-88.5617 586.618,-78.3879"/>
<polygon fill="midnightblue" stroke="midnightblue" points="587.705,-81.7164 596.296,-75.5164 585.714,-75.0055 587.705,-81.7164"/>
</g>
<!-- Node7&#45;&gt;Node10 -->
<g id="edge11" class="edge"><title>Node7&#45;&gt;Node10</title>
<path fill="none" stroke="midnightblue" d="M507.853,-112.494C585.66,-102.018 708.167,-84.563 728,-76 754.814,-64.4227 780.603,-42.2891 796.371,-27.0936"/>
<polygon fill="midnightblue" stroke="midnightblue" points="799.018,-29.3983 803.656,-19.8725 794.09,-24.4269 799.018,-29.3983"/>
</g>
<!-- Node9 -->
<g id="node9" class="node"><title>Node9</title>
<polygon fill="white" stroke="#bfbfbf" points="336.5,-0.5 336.5,-19.5 389.5,-19.5 389.5,-0.5 336.5,-0.5"/>
<text text-anchor="middle" x="363" y="-7.5" font-family="Verdana" font-size="10.00">stdint.h</text>
</g>
<!-- Node8&#45;&gt;Node9 -->
<g id="edge9" class="edge"><title>Node8&#45;&gt;Node9</title>
<path fill="none" stroke="midnightblue" d="M583.485,-56.4435C532.806,-45.9982 447.901,-28.4986 399.576,-18.5385"/>
<polygon fill="midnightblue" stroke="midnightblue" points="400.058,-15.0644 389.557,-16.4736 398.645,-21.9203 400.058,-15.0644"/>
</g>
<!-- Node8&#45;&gt;Node10 -->
<g id="edge10" class="edge"><title>Node8&#45;&gt;Node10</title>
<path fill="none" stroke="midnightblue" d="M654.631,-56.4435C688.843,-46.5639 744.911,-30.3734 780.069,-20.2208"/>
<polygon fill="midnightblue" stroke="midnightblue" points="781.192,-23.5396 789.828,-17.4026 779.25,-16.8144 781.192,-23.5396"/>
</g>
<!-- Node11&#45;&gt;Node4 -->
<g id="edge13" class="edge"><title>Node11&#45;&gt;Node4</title>
<path fill="none" stroke="midnightblue" d="M226.058,-56.324C211.415,-47.8215 188.866,-34.7288 171.762,-24.7975"/>
<polygon fill="midnightblue" stroke="midnightblue" points="173.31,-21.6491 162.905,-19.6545 169.795,-27.7027 173.31,-21.6491"/>
</g>
<!-- Node11&#45;&gt;Node9 -->
<g id="edge15" class="edge"><title>Node11&#45;&gt;Node9</title>
<path fill="none" stroke="midnightblue" d="M260.331,-56.4435C280.32,-47.5961 311.743,-33.6875 334.564,-23.5865"/>
<polygon fill="midnightblue" stroke="midnightblue" points="336.032,-26.7645 343.759,-19.5164 333.198,-20.3635 336.032,-26.7645"/>
</g>
<!-- Node11&#45;&gt;Node10 -->
<g id="edge14" class="edge"><title>Node11&#45;&gt;Node10</title>
<path fill="none" stroke="midnightblue" d="M287.177,-57.1852C290.159,-56.7605 293.12,-56.3607 296,-56 478.313,-33.1667 698.314,-18.1152 779.7,-12.9693"/>
<polygon fill="midnightblue" stroke="midnightblue" points="780.047,-16.4545 789.808,-12.3363 779.609,-9.46823 780.047,-16.4545"/>
</g>
<!-- Node12&#45;&gt;Node3 -->
<g id="edge25" class="edge"><title>Node12&#45;&gt;Node3</title>
<path fill="none" stroke="midnightblue" d="M651.619,-168.444C632.784,-159.675 603.269,-145.935 581.621,-135.858"/>
<polygon fill="midnightblue" stroke="midnightblue" points="582.838,-132.564 572.295,-131.516 579.883,-138.91 582.838,-132.564"/>
</g>
<!-- Node12&#45;&gt;Node10 -->
<g id="edge26" class="edge"><title>Node12&#45;&gt;Node10</title>
<path fill="none" stroke="midnightblue" d="M708.68,-168.47C730.292,-161.861 756.178,-150.596 773,-132 799.311,-102.914 807.887,-55.9045 810.671,-29.87"/>
<polygon fill="midnightblue" stroke="midnightblue" points="814.165,-30.0869 811.565,-19.8161 807.193,-29.4666 814.165,-30.0869"/>
</g>
<!-- Node12&#45;&gt;Node13 -->
<g id="edge17" class="edge"><title>Node12&#45;&gt;Node13</title>
<path fill="none" stroke="midnightblue" d="M604.249,-168.891C543.429,-161.071 450.298,-148.29 360.691,-132.208"/>
<polygon fill="midnightblue" stroke="midnightblue" points="361.095,-128.725 350.631,-130.386 359.847,-135.613 361.095,-128.725"/>
</g>
<!-- Node16 -->
<g id="node16" class="node"><title>Node16</title>
<polygon fill="white" stroke="#bfbfbf" points="591.5,-112.5 591.5,-131.5 764.5,-131.5 764.5,-112.5 591.5,-112.5"/>
<text text-anchor="middle" x="678" y="-119.5" font-family="Verdana" font-size="10.00">SelectionCriterionTypeInterface.h</text>
</g>
<!-- Node12&#45;&gt;Node16 -->
<g id="edge27" class="edge"><title>Node12&#45;&gt;Node16</title>
<path fill="none" stroke="midnightblue" d="M671.321,-168.083C672.381,-160.927 673.906,-150.635 675.231,-141.691"/>
<polygon fill="midnightblue" stroke="midnightblue" points="678.7,-142.156 676.704,-131.751 671.776,-141.13 678.7,-142.156"/>
</g>
<!-- Node13&#45;&gt;Node4 -->
<g id="edge19" class="edge"><title>Node13&#45;&gt;Node4</title>
<path fill="none" stroke="midnightblue" d="M285.302,-116.445C256.503,-111.012 214.778,-99.5179 186,-76 171.014,-63.7527 160.651,-43.9291 154.577,-29.3899"/>
<polygon fill="midnightblue" stroke="midnightblue" points="157.785,-27.9803 150.907,-19.9209 151.258,-30.5099 157.785,-27.9803"/>
</g>
<!-- Node13&#45;&gt;Node5 -->
<g id="edge21" class="edge"><title>Node13&#45;&gt;Node5</title>
<path fill="none" stroke="midnightblue" d="M318.33,-112.083C318.592,-105.006 318.968,-94.8611 319.297,-85.9865"/>
<polygon fill="midnightblue" stroke="midnightblue" points="322.803,-85.8738 319.676,-75.7511 315.808,-85.6147 322.803,-85.8738"/>
</g>
<!-- Node13&#45;&gt;Node9 -->
<g id="edge20" class="edge"><title>Node13&#45;&gt;Node9</title>
<path fill="none" stroke="midnightblue" d="M323.545,-112.312C329.03,-103.444 337.395,-89.1551 343,-76 349.508,-60.7255 354.901,-42.6184 358.441,-29.3997"/>
<polygon fill="midnightblue" stroke="midnightblue" points="361.856,-30.1723 360.961,-19.6153 355.077,-28.426 361.856,-30.1723"/>
</g>
<!-- Node13&#45;&gt;Node10 -->
<g id="edge18" class="edge"><title>Node13&#45;&gt;Node10</title>
<path fill="none" stroke="midnightblue" d="M350.613,-113.509C353.442,-112.96 356.267,-112.447 359,-112 505.036,-88.1015 548.584,-119.58 690,-76 691.291,-75.6023 751.128,-43.604 786.51,-24.6575"/>
<polygon fill="midnightblue" stroke="midnightblue" points="788.609,-27.5036 795.772,-19.6969 785.304,-21.3329 788.609,-27.5036"/>
</g>
<!-- Node13&#45;&gt;Node11 -->
<g id="edge24" class="edge"><title>Node13&#45;&gt;Node11</title>
<path fill="none" stroke="midnightblue" d="M305.629,-112.324C293.842,-104.058 275.868,-91.4527 261.864,-81.6322"/>
<polygon fill="midnightblue" stroke="midnightblue" points="263.538,-78.5307 253.341,-75.6545 259.518,-84.2619 263.538,-78.5307"/>
</g>
<!-- Node14 -->
<g id="node14" class="node"><title>Node14</title>
<polygon fill="white" stroke="#bfbfbf" points="391,-56.5 391,-75.5 455,-75.5 455,-56.5 391,-56.5"/>
<text text-anchor="middle" x="423" y="-63.5" font-family="Verdana" font-size="10.00">XmlSink.h</text>
</g>
<!-- Node13&#45;&gt;Node14 -->
<g id="edge22" class="edge"><title>Node13&#45;&gt;Node14</title>
<path fill="none" stroke="midnightblue" d="M334.87,-112.324C351.709,-103.664 377.807,-90.2424 397.238,-80.249"/>
<polygon fill="midnightblue" stroke="midnightblue" points="398.88,-83.3405 406.172,-75.6545 395.678,-77.1155 398.88,-83.3405"/>
</g>
<!-- Node15 -->
<g id="node15" class="node"><title>Node15</title>
<polygon fill="white" stroke="#bfbfbf" points="473.5,-56.5 473.5,-75.5 550.5,-75.5 550.5,-56.5 473.5,-56.5"/>
<text text-anchor="middle" x="512" y="-63.5" font-family="Verdana" font-size="10.00">XmlSource.h</text>
</g>
<!-- Node13&#45;&gt;Node15 -->
<g id="edge23" class="edge"><title>Node13&#45;&gt;Node15</title>
<path fill="none" stroke="midnightblue" d="M348.74,-112.444C381.944,-103.201 434.991,-88.4356 471.557,-78.2572"/>
<polygon fill="midnightblue" stroke="midnightblue" points="472.709,-81.5699 481.404,-75.5164 470.832,-74.8262 472.709,-81.5699"/>
</g>
<!-- Node17&#45;&gt;Node10 -->
<g id="edge32" class="edge"><title>Node17&#45;&gt;Node10</title>
<path fill="none" stroke="midnightblue" d="M683.202,-224.427C700.134,-216.367 724.999,-203.277 744,-188 770.004,-167.093 776.297,-160.282 794,-132 812.724,-102.086 818.952,-91.2367 817,-56 816.521,-47.358 815.529,-37.8252 814.554,-29.7666"/>
<polygon fill="midnightblue" stroke="midnightblue" points="817.994,-29.0728 813.242,-19.6032 811.052,-29.969 817.994,-29.0728"/>
</g>
<!-- Node17&#45;&gt;Node12 -->
<g id="edge30" class="edge"><title>Node17&#45;&gt;Node12</title>
<path fill="none" stroke="midnightblue" d="M664.991,-224.083C665.786,-216.927 666.929,-206.635 667.923,-197.691"/>
<polygon fill="midnightblue" stroke="midnightblue" points="671.402,-198.076 669.028,-187.751 664.445,-197.303 671.402,-198.076"/>
</g>
<!-- Node17&#45;&gt;Node13 -->
<g id="edge29" class="edge"><title>Node17&#45;&gt;Node13</title>
<path fill="none" stroke="midnightblue" d="M646.852,-224.334C619.399,-210.744 563.615,-184.293 514,-168 506.681,-165.597 416.273,-145.114 360.836,-132.626"/>
<polygon fill="midnightblue" stroke="midnightblue" points="361.444,-129.175 350.92,-130.393 359.907,-136.004 361.444,-129.175"/>
</g>
<!-- Node18 -->
<g id="node18" class="node"><title>Node18</title>
<polygon fill="white" stroke="#bfbfbf" points="792,-168.5 792,-187.5 944,-187.5 944,-168.5 792,-168.5"/>
<text text-anchor="middle" x="868" y="-175.5" font-family="Verdana" font-size="10.00">SelectionCriterionInterface.h</text>
</g>
<!-- Node17&#45;&gt;Node18 -->
<g id="edge31" class="edge"><title>Node17&#45;&gt;Node18</title>
<path fill="none" stroke="midnightblue" d="M696.324,-224.444C731.389,-215.162 787.498,-200.309 825.965,-190.127"/>
<polygon fill="midnightblue" stroke="midnightblue" points="827.055,-193.459 835.827,-187.516 825.264,-186.692 827.055,-193.459"/>
</g>
<!-- Node21&#45;&gt;Node10 -->
<g id="edge42" class="edge"><title>Node21&#45;&gt;Node10</title>
<path fill="none" stroke="midnightblue" d="M1007.12,-168.396C984.23,-160.951 952.517,-148.738 928,-132 884.333,-102.189 844.219,-53.7452 824.61,-28.1325"/>
<polygon fill="midnightblue" stroke="midnightblue" points="827.154,-25.6922 818.345,-19.806 821.561,-29.901 827.154,-25.6922"/>
</g>
<!-- Node22 -->
<g id="node22" class="node"><title>Node22</title>
<g id="a_node22"><a xlink:href="XmlDomainSerializingContext_8h.html" target="_top" xlink:title="XmlDomainSerializingContext.h">
<polygon fill="white" stroke="black" points="936.5,-112.5 936.5,-131.5 1103.5,-131.5 1103.5,-112.5 936.5,-112.5"/>
<text text-anchor="middle" x="1020" y="-119.5" font-family="Verdana" font-size="10.00">XmlDomainSerializingContext.h</text>
</a>
</g>
</g>
<!-- Node21&#45;&gt;Node22 -->
<g id="edge37" class="edge"><title>Node21&#45;&gt;Node22</title>
<path fill="none" stroke="midnightblue" d="M1034.19,-168.083C1031.92,-160.849 1028.63,-150.409 1025.79,-141.397"/>
<polygon fill="midnightblue" stroke="midnightblue" points="1029.1,-140.239 1022.75,-131.751 1022.42,-142.341 1029.1,-140.239"/>
</g>
<!-- Node22&#45;&gt;Node10 -->
<g id="edge41" class="edge"><title>Node22&#45;&gt;Node10</title>
<path fill="none" stroke="midnightblue" d="M1001.08,-112.427C981.953,-103.649 951.646,-89.4281 926,-76 893.892,-59.1884 857.667,-38.1706 834.84,-24.6661"/>
<polygon fill="midnightblue" stroke="midnightblue" points="836.599,-21.6401 826.214,-19.5428 833.025,-27.6586 836.599,-21.6401"/>
</g>
<!-- Node23 -->
<g id="node23" class="node"><title>Node23</title>
<g id="a_node23"><a xlink:href="XmlElementSerializingContext_8h.html" target="_top" xlink:title="XmlElementSerializingContext.h">
<polygon fill="white" stroke="black" points="935,-56.5 935,-75.5 1105,-75.5 1105,-56.5 935,-56.5"/>
<text text-anchor="middle" x="1020" y="-63.5" font-family="Verdana" font-size="10.00">XmlElementSerializingContext.h</text>
</a>
</g>
</g>
<!-- Node22&#45;&gt;Node23 -->
<g id="edge38" class="edge"><title>Node22&#45;&gt;Node23</title>
<path fill="none" stroke="midnightblue" d="M1020,-112.083C1020,-105.006 1020,-94.8611 1020,-85.9865"/>
<polygon fill="midnightblue" stroke="midnightblue" points="1023.5,-85.751 1020,-75.7511 1016.5,-85.7511 1023.5,-85.751"/>
</g>
<!-- Node23&#45;&gt;Node10 -->
<g id="edge40" class="edge"><title>Node23&#45;&gt;Node10</title>
<path fill="none" stroke="midnightblue" d="M987.042,-56.4435C947.819,-46.2607 882.773,-29.3737 843.984,-19.3035"/>
<polygon fill="midnightblue" stroke="midnightblue" points="844.81,-15.902 834.251,-16.7767 843.051,-22.6774 844.81,-15.902"/>
</g>
<!-- Node24 -->
<g id="node24" class="node"><title>Node24</title>
<polygon fill="white" stroke="#bfbfbf" points="955,-0.5 955,-19.5 1085,-19.5 1085,-0.5 955,-0.5"/>
<text text-anchor="middle" x="1020" y="-7.5" font-family="Verdana" font-size="10.00">XmlSerializingContext.h</text>
</g>
<!-- Node23&#45;&gt;Node24 -->
<g id="edge39" class="edge"><title>Node23&#45;&gt;Node24</title>
<path fill="none" stroke="midnightblue" d="M1020,-56.083C1020,-49.0059 1020,-38.8611 1020,-29.9865"/>
<polygon fill="midnightblue" stroke="midnightblue" points="1023.5,-29.751 1020,-19.7511 1016.5,-29.7511 1023.5,-29.751"/>
</g>
</g>
</svg>
