<?xml version="1.0" encoding="UTF-8" standalone="no"?>
<!DOCTYPE svg PUBLIC "-//W3C//DTD SVG 1.1//EN"
 "http://www.w3.org/Graphics/SVG/1.1/DTD/svg11.dtd">
<!-- Generated by graphviz version 2.38.0 (20140413.2041)
 -->
<!-- Title: parameter/ParameterBlackboard.cpp Pages: 1 -->
<svg width="578pt" height="140pt"
 viewBox="0.00 0.00 577.50 140.00" xmlns="http://www.w3.org/2000/svg" xmlns:xlink="http://www.w3.org/1999/xlink">
<g id="graph0" class="graph" transform="scale(1 1) rotate(0) translate(4 136)">
<title>parameter/ParameterBlackboard.cpp</title>
<polygon fill="white" stroke="none" points="-4,4 -4,-136 573.5,-136 573.5,4 -4,4"/>
<!-- Node1 -->
<g id="node1" class="node"><title>Node1</title>
<polygon fill="#bfbfbf" stroke="black" points="288.5,-112.5 288.5,-131.5 482.5,-131.5 482.5,-112.5 288.5,-112.5"/>
<text text-anchor="middle" x="385.5" y="-119.5" font-family="Verdana" font-size="10.00">parameter/ParameterBlackboard.cpp</text>
</g>
<!-- Node2 -->
<g id="node2" class="node"><title>Node2</title>
<g id="a_node2"><a xlink:href="ParameterBlackboard_8h.html" target="_top" xlink:title="ParameterBlackboard.h">
<polygon fill="white" stroke="black" points="144,-56.5 144,-75.5 273,-75.5 273,-56.5 144,-56.5"/>
<text text-anchor="middle" x="208.5" y="-63.5" font-family="Verdana" font-size="10.00">ParameterBlackboard.h</text>
</a>
</g>
</g>
<!-- Node1&#45;&gt;Node2 -->
<g id="edge1" class="edge"><title>Node1&#45;&gt;Node2</title>
<path fill="none" stroke="midnightblue" d="M357.454,-112.444C327.418,-103.28 279.587,-88.6876 246.257,-78.5192"/>
<polygon fill="midnightblue" stroke="midnightblue" points="247.001,-75.0869 236.415,-75.5164 244.958,-81.7822 247.001,-75.0869"/>
</g>
<!-- Node7 -->
<g id="node7" class="node"><title>Node7</title>
<g id="a_node7"><a xlink:href="Iterator_8hpp.html" target="_top" xlink:title="Iterator.hpp">
<polygon fill="white" stroke="black" points="297.5,-56.5 297.5,-75.5 369.5,-75.5 369.5,-56.5 297.5,-56.5"/>
<text text-anchor="middle" x="333.5" y="-63.5" font-family="Verdana" font-size="10.00">Iterator.hpp</text>
</a>
</g>
</g>
<!-- Node1&#45;&gt;Node7 -->
<g id="edge6" class="edge"><title>Node1&#45;&gt;Node7</title>
<path fill="none" stroke="midnightblue" d="M376.913,-112.083C369.341,-104.22 358.122,-92.5688 348.986,-83.0813"/>
<polygon fill="midnightblue" stroke="midnightblue" points="351.385,-80.5266 341.927,-75.7511 346.342,-85.3821 351.385,-80.5266"/>
</g>
<!-- Node9 -->
<g id="node9" class="node"><title>Node9</title>
<g id="a_node9"><a xlink:href="AlwaysAssert_8hpp.html" target="_top" xlink:title="AlwaysAssert.hpp">
<polygon fill="white" stroke="black" points="388,-56.5 388,-75.5 489,-75.5 489,-56.5 388,-56.5"/>
<text text-anchor="middle" x="438.5" y="-63.5" font-family="Verdana" font-size="10.00">AlwaysAssert.hpp</text>
</a>
</g>
</g>
<!-- Node1&#45;&gt;Node9 -->
<g id="edge8" class="edge"><title>Node1&#45;&gt;Node9</title>
<path fill="none" stroke="midnightblue" d="M394.252,-112.083C401.97,-104.22 413.405,-92.5688 422.717,-83.0813"/>
<polygon fill="midnightblue" stroke="midnightblue" points="425.404,-85.3396 429.911,-75.7511 420.408,-80.4363 425.404,-85.3396"/>
</g>
<!-- Node12 -->
<g id="node12" class="node"><title>Node12</title>
<polygon fill="white" stroke="#bfbfbf" points="507.5,-56.5 507.5,-75.5 569.5,-75.5 569.5,-56.5 507.5,-56.5"/>
<text text-anchor="middle" x="538.5" y="-63.5" font-family="Verdana" font-size="10.00">algorithm</text>
</g>
<!-- Node1&#45;&gt;Node12 -->
<g id="edge11" class="edge"><title>Node1&#45;&gt;Node12</title>
<path fill="none" stroke="midnightblue" d="M409.743,-112.444C435.371,-103.399 475.985,-89.064 504.738,-78.9158"/>
<polygon fill="midnightblue" stroke="midnightblue" points="506.105,-82.1452 514.37,-75.5164 503.775,-75.5442 506.105,-82.1452"/>
</g>
<!-- Node3 -->
<g id="node3" class="node"><title>Node3</title>
<g id="a_node3"><a xlink:href="NonCopyable_8hpp.html" target="_top" xlink:title="NonCopyable.hpp">
<polygon fill="white" stroke="black" points="0,-0.5 0,-19.5 101,-19.5 101,-0.5 0,-0.5"/>
<text text-anchor="middle" x="50.5" y="-7.5" font-family="Verdana" font-size="10.00">NonCopyable.hpp</text>
</a>
</g>
</g>
<!-- Node2&#45;&gt;Node3 -->
<g id="edge2" class="edge"><title>Node2&#45;&gt;Node3</title>
<path fill="none" stroke="midnightblue" d="M183.464,-56.4435C156.884,-47.3591 114.691,-32.9388 84.9766,-22.7831"/>
<polygon fill="midnightblue" stroke="midnightblue" points="86.013,-19.4386 75.4184,-19.5164 83.7491,-26.0625 86.013,-19.4386"/>
</g>
<!-- Node4 -->
<g id="node4" class="node"><title>Node4</title>
<polygon fill="white" stroke="#bfbfbf" points="119,-0.5 119,-19.5 168,-19.5 168,-0.5 119,-0.5"/>
<text text-anchor="middle" x="143.5" y="-7.5" font-family="Verdana" font-size="10.00">cstdint</text>
</g>
<!-- Node2&#45;&gt;Node4 -->
<g id="edge3" class="edge"><title>Node2&#45;&gt;Node4</title>
<path fill="none" stroke="midnightblue" d="M198.057,-56.324C188.354,-48.2631 173.685,-36.0765 162,-26.3695"/>
<polygon fill="midnightblue" stroke="midnightblue" points="164.062,-23.532 154.133,-19.8339 159.589,-28.9163 164.062,-23.532"/>
</g>
<!-- Node5 -->
<g id="node5" class="node"><title>Node5</title>
<polygon fill="white" stroke="#bfbfbf" points="186.5,-0.5 186.5,-19.5 230.5,-19.5 230.5,-0.5 186.5,-0.5"/>
<text text-anchor="middle" x="208.5" y="-7.5" font-family="Verdana" font-size="10.00">string</text>
</g>
<!-- Node2&#45;&gt;Node5 -->
<g id="edge4" class="edge"><title>Node2&#45;&gt;Node5</title>
<path fill="none" stroke="midnightblue" d="M208.5,-56.083C208.5,-49.0059 208.5,-38.8611 208.5,-29.9865"/>
<polygon fill="midnightblue" stroke="midnightblue" points="212,-29.751 208.5,-19.7511 205,-29.7511 212,-29.751"/>
</g>
<!-- Node6 -->
<g id="node6" class="node"><title>Node6</title>
<polygon fill="white" stroke="#bfbfbf" points="249,-0.5 249,-19.5 296,-19.5 296,-0.5 249,-0.5"/>
<text text-anchor="middle" x="272.5" y="-7.5" font-family="Verdana" font-size="10.00">vector</text>
</g>
<!-- Node2&#45;&gt;Node6 -->
<g id="edge5" class="edge"><title>Node2&#45;&gt;Node6</title>
<path fill="none" stroke="midnightblue" d="M218.783,-56.324C228.336,-48.2631 242.78,-36.0765 254.284,-26.3695"/>
<polygon fill="midnightblue" stroke="midnightblue" points="256.644,-28.9577 262.03,-19.8339 252.13,-23.6076 256.644,-28.9577"/>
</g>
<!-- Node8 -->
<g id="node8" class="node"><title>Node8</title>
<polygon fill="white" stroke="#bfbfbf" points="314.5,-0.5 314.5,-19.5 366.5,-19.5 366.5,-0.5 314.5,-0.5"/>
<text text-anchor="middle" x="340.5" y="-7.5" font-family="Verdana" font-size="10.00">iterator</text>
</g>
<!-- Node7&#45;&gt;Node8 -->
<g id="edge7" class="edge"><title>Node7&#45;&gt;Node8</title>
<path fill="none" stroke="midnightblue" d="M334.656,-56.083C335.584,-48.9272 336.918,-38.6353 338.077,-29.6911"/>
<polygon fill="midnightblue" stroke="midnightblue" points="341.551,-30.1181 339.366,-19.7511 334.609,-29.2181 341.551,-30.1181"/>
</g>
<!-- Node10 -->
<g id="node10" class="node"><title>Node10</title>
<polygon fill="white" stroke="#bfbfbf" points="397,-0.5 397,-19.5 456,-19.5 456,-0.5 397,-0.5"/>
<text text-anchor="middle" x="426.5" y="-7.5" font-family="Verdana" font-size="10.00">iostream</text>
</g>
<!-- Node9&#45;&gt;Node10 -->
<g id="edge9" class="edge"><title>Node9&#45;&gt;Node10</title>
<path fill="none" stroke="midnightblue" d="M436.518,-56.083C434.928,-48.9272 432.641,-38.6353 430.654,-29.6911"/>
<polygon fill="midnightblue" stroke="midnightblue" points="434.031,-28.7537 428.445,-19.7511 427.197,-30.2722 434.031,-28.7537"/>
</g>
<!-- Node11 -->
<g id="node11" class="node"><title>Node11</title>
<polygon fill="white" stroke="#bfbfbf" points="474.5,-0.5 474.5,-19.5 526.5,-19.5 526.5,-0.5 474.5,-0.5"/>
<text text-anchor="middle" x="500.5" y="-7.5" font-family="Verdana" font-size="10.00">cassert</text>
</g>
<!-- Node9&#45;&gt;Node11 -->
<g id="edge10" class="edge"><title>Node9&#45;&gt;Node11</title>
<path fill="none" stroke="midnightblue" d="M448.461,-56.324C457.627,-48.3414 471.437,-36.3128 482.528,-26.6529"/>
<polygon fill="midnightblue" stroke="midnightblue" points="485.115,-29.041 490.357,-19.8339 480.518,-23.7624 485.115,-29.041"/>
</g>
</g>
</svg>
