<?xml version="1.0" encoding="UTF-8" standalone="no"?>
<!DOCTYPE svg PUBLIC "-//W3C//DTD SVG 1.1//EN"
 "http://www.w3.org/Graphics/SVG/1.1/DTD/svg11.dtd">
<!-- Generated by graphviz version 2.38.0 (20140413.2041)
 -->
<!-- Title: /home/dawagner/dev/parameter&#45;framework/parameter/ParameterMgr.h Pages: 1 -->
<svg width="1304pt" height="330pt"
 viewBox="0.00 0.00 1304.00 330.00" xmlns="http://www.w3.org/2000/svg" xmlns:xlink="http://www.w3.org/1999/xlink">
<g id="graph0" class="graph" transform="scale(1 1) rotate(0) translate(4 326)">
<title>/home/dawagner/dev/parameter&#45;framework/parameter/ParameterMgr.h</title>
<polygon fill="white" stroke="none" points="-4,4 -4,-326 1300,-326 1300,4 -4,4"/>
<!-- Node1 -->
<g id="node1" class="node"><title>Node1</title>
<polygon fill="#bfbfbf" stroke="black" points="506.5,-280.5 506.5,-321.5 656.5,-321.5 656.5,-280.5 506.5,-280.5"/>
<text text-anchor="start" x="514.5" y="-309.5" font-family="Verdana" font-size="10.00">/home/dawagner/dev</text>
<text text-anchor="start" x="514.5" y="-298.5" font-family="Verdana" font-size="10.00">/parameter&#45;framework</text>
<text text-anchor="middle" x="581.5" y="-287.5" font-family="Verdana" font-size="10.00">/parameter/ParameterMgr.h</text>
</g>
<!-- Node2 -->
<g id="node2" class="node"><title>Node2</title>
<polygon fill="white" stroke="#bfbfbf" points="0,-224.5 0,-243.5 63,-243.5 63,-224.5 0,-224.5"/>
<text text-anchor="middle" x="31.5" y="-231.5" font-family="Verdana" font-size="10.00">pthread.h</text>
</g>
<!-- Node1&#45;&gt;Node2 -->
<g id="edge1" class="edge"><title>Node1&#45;&gt;Node2</title>
<path fill="none" stroke="midnightblue" d="M506.103,-293.58C407.34,-284.723 228.922,-267.185 77.5,-244 76.0421,-243.777 74.56,-243.54 73.0645,-243.293"/>
<polygon fill="midnightblue" stroke="midnightblue" points="73.569,-239.828 63.1137,-241.541 72.3556,-246.722 73.569,-239.828"/>
</g>
<!-- Node3 -->
<g id="node3" class="node"><title>Node3</title>
<polygon fill="white" stroke="#bfbfbf" points="535.5,-112.5 535.5,-131.5 573.5,-131.5 573.5,-112.5 535.5,-112.5"/>
<text text-anchor="middle" x="554.5" y="-119.5" font-family="Verdana" font-size="10.00">map</text>
</g>
<!-- Node1&#45;&gt;Node3 -->
<g id="edge2" class="edge"><title>Node1&#45;&gt;Node3</title>
<path fill="none" stroke="midnightblue" d="M578.507,-280.382C573.275,-246.082 562.533,-175.658 557.38,-141.883"/>
<polygon fill="midnightblue" stroke="midnightblue" points="560.777,-140.942 555.809,-131.584 553.857,-141.997 560.777,-140.942"/>
</g>
<!-- Node4 -->
<g id="node4" class="node"><title>Node4</title>
<polygon fill="white" stroke="#bfbfbf" points="125,-0.5 125,-19.5 172,-19.5 172,-0.5 125,-0.5"/>
<text text-anchor="middle" x="148.5" y="-7.5" font-family="Verdana" font-size="10.00">vector</text>
</g>
<!-- Node1&#45;&gt;Node4 -->
<g id="edge3" class="edge"><title>Node1&#45;&gt;Node4</title>
<path fill="none" stroke="midnightblue" d="M506.279,-296.941C368.922,-289.291 91.5,-263.394 91.5,-179 91.5,-179 91.5,-179 91.5,-121 91.5,-84.3005 116.821,-47.6567 133.71,-27.2973"/>
<polygon fill="midnightblue" stroke="midnightblue" points="136.454,-29.475 140.333,-19.6161 131.152,-24.9037 136.454,-29.475"/>
</g>
<!-- Node5 -->
<g id="node5" class="node"><title>Node5</title>
<polygon fill="white" stroke="#bfbfbf" points="305.5,-56.5 305.5,-75.5 335.5,-75.5 335.5,-56.5 305.5,-56.5"/>
<text text-anchor="middle" x="320.5" y="-63.5" font-family="Verdana" font-size="10.00">list</text>
</g>
<!-- Node1&#45;&gt;Node5 -->
<g id="edge4" class="edge"><title>Node1&#45;&gt;Node5</title>
<path fill="none" stroke="midnightblue" d="M506.172,-296.448C432.131,-288.466 322.731,-263.665 269.5,-188 260.965,-175.868 262.853,-140.306 276.5,-112 282.095,-100.395 291.87,-89.9346 300.787,-82.0257"/>
<polygon fill="midnightblue" stroke="midnightblue" points="303.151,-84.6117 308.591,-75.5202 298.669,-79.2349 303.151,-84.6117"/>
</g>
<!-- Node6 -->
<g id="node6" class="node"><title>Node6</title>
<g id="a_node6"><a xlink:href="RemoteCommandHandlerTemplate_8h.html" target="_top" xlink:title="RemoteCommandHandlerTemplate.h">
<polygon fill="white" stroke="black" points="278.5,-168.5 278.5,-187.5 472.5,-187.5 472.5,-168.5 278.5,-168.5"/>
<text text-anchor="middle" x="375.5" y="-175.5" font-family="Verdana" font-size="10.00">RemoteCommandHandlerTemplate.h</text>
</a>
</g>
</g>
<!-- Node1&#45;&gt;Node6 -->
<g id="edge5" class="edge"><title>Node1&#45;&gt;Node6</title>
<path fill="none" stroke="midnightblue" d="M547.944,-280.29C506.081,-255.701 435.572,-214.285 399.035,-192.824"/>
<polygon fill="midnightblue" stroke="midnightblue" points="400.494,-189.622 390.098,-187.575 396.948,-195.657 400.494,-189.622"/>
</g>
<!-- Node10 -->
<g id="node10" class="node"><title>Node10</title>
<polygon fill="white" stroke="#bfbfbf" points="790.5,-0.5 790.5,-19.5 834.5,-19.5 834.5,-0.5 790.5,-0.5"/>
<text text-anchor="middle" x="812.5" y="-7.5" font-family="Verdana" font-size="10.00">string</text>
</g>
<!-- Node1&#45;&gt;Node10 -->
<g id="edge43" class="edge"><title>Node1&#45;&gt;Node10</title>
<path fill="none" stroke="midnightblue" d="M656.754,-299.24C809.064,-295.659 1139.5,-276.64 1139.5,-179 1139.5,-179 1139.5,-179 1139.5,-121 1139.5,-90.048 1138.65,-75.3604 1114.5,-56 1093.66,-39.2899 918.378,-20.9932 844.807,-13.9701"/>
<polygon fill="midnightblue" stroke="midnightblue" points="845.006,-10.4734 834.721,-13.0172 844.348,-17.4423 845.006,-10.4734"/>
</g>
<!-- Node11 -->
<g id="node11" class="node"><title>Node11</title>
<g id="a_node11"><a xlink:href="PathNavigator_8h.html" target="_top" xlink:title="PathNavigator.h">
<polygon fill="white" stroke="black" points="195.5,-56.5 195.5,-75.5 287.5,-75.5 287.5,-56.5 195.5,-56.5"/>
<text text-anchor="middle" x="241.5" y="-63.5" font-family="Verdana" font-size="10.00">PathNavigator.h</text>
</a>
</g>
</g>
<!-- Node1&#45;&gt;Node11 -->
<g id="edge12" class="edge"><title>Node1&#45;&gt;Node11</title>
<path fill="none" stroke="midnightblue" d="M506.24,-299.259C446.802,-295.456 363.926,-282.742 302.5,-244 248.685,-210.059 241.503,-124.534 241.104,-86.1574"/>
<polygon fill="midnightblue" stroke="midnightblue" points="244.605,-85.8872 241.153,-75.8704 237.605,-85.8533 244.605,-85.8872"/>
</g>
<!-- Node12 -->
<g id="node12" class="node"><title>Node12</title>
<g id="a_node12"><a xlink:href="SelectionCriterionType_8h.html" target="_top" xlink:title="SelectionCriterionType.h">
<polygon fill="white" stroke="black" points="605,-168.5 605,-187.5 736,-187.5 736,-168.5 605,-168.5"/>
<text text-anchor="middle" x="670.5" y="-175.5" font-family="Verdana" font-size="10.00">SelectionCriterionType.h</text>
</a>
</g>
</g>
<!-- Node1&#45;&gt;Node12 -->
<g id="edge16" class="edge"><title>Node1&#45;&gt;Node12</title>
<path fill="none" stroke="midnightblue" d="M582.459,-280.227C584.13,-263.821 588.61,-240.577 600.5,-224 610.352,-210.265 625.82,-199.685 639.713,-192.245"/>
<polygon fill="midnightblue" stroke="midnightblue" points="641.619,-195.205 648.991,-187.596 638.483,-188.947 641.619,-195.205"/>
</g>
<!-- Node13 -->
<g id="node13" class="node"><title>Node13</title>
<g id="a_node13"><a xlink:href="Element_8h.html" target="_top" xlink:title="Element.h">
<polygon fill="white" stroke="black" points="286,-112.5 286,-131.5 351,-131.5 351,-112.5 286,-112.5"/>
<text text-anchor="middle" x="318.5" y="-119.5" font-family="Verdana" font-size="10.00">Element.h</text>
</a>
</g>
</g>
<!-- Node1&#45;&gt;Node13 -->
<g id="edge33" class="edge"><title>Node1&#45;&gt;Node13</title>
<path fill="none" stroke="midnightblue" d="M571.87,-280.17C556.725,-251.099 524.569,-197.207 481.5,-168 471.42,-161.164 405.913,-144.281 361.076,-133.249"/>
<polygon fill="midnightblue" stroke="midnightblue" points="361.835,-129.832 351.29,-130.854 360.171,-136.631 361.835,-129.832"/>
</g>
<!-- Node17 -->
<g id="node17" class="node"><title>Node17</title>
<g id="a_node17"><a xlink:href="SelectionCriterion_8h.html" target="_top" xlink:title="SelectionCriterion.h">
<polygon fill="white" stroke="black" points="609.5,-224.5 609.5,-243.5 719.5,-243.5 719.5,-224.5 609.5,-224.5"/>
<text text-anchor="middle" x="664.5" y="-231.5" font-family="Verdana" font-size="10.00">SelectionCriterion.h</text>
</a>
</g>
</g>
<!-- Node1&#45;&gt;Node17 -->
<g id="edge28" class="edge"><title>Node1&#45;&gt;Node17</title>
<path fill="none" stroke="midnightblue" d="M606.403,-280.498C618.883,-270.724 633.762,-259.072 645.338,-250.007"/>
<polygon fill="midnightblue" stroke="midnightblue" points="647.736,-252.574 653.451,-243.652 643.42,-247.063 647.736,-252.574"/>
</g>
<!-- Node19 -->
<g id="node19" class="node"><title>Node19</title>
<polygon fill="white" stroke="#bfbfbf" points="776,-224.5 776,-243.5 859,-243.5 859,-224.5 776,-224.5"/>
<text text-anchor="middle" x="817.5" y="-231.5" font-family="Verdana" font-size="10.00">XmlDocSink.h</text>
</g>
<!-- Node1&#45;&gt;Node19 -->
<g id="edge34" class="edge"><title>Node1&#45;&gt;Node19</title>
<path fill="none" stroke="midnightblue" d="M652.308,-280.498C692.964,-269.3 742.568,-255.638 776.747,-246.224"/>
<polygon fill="midnightblue" stroke="midnightblue" points="777.683,-249.597 786.395,-243.567 775.825,-242.848 777.683,-249.597"/>
</g>
<!-- Node20 -->
<g id="node20" class="node"><title>Node20</title>
<polygon fill="white" stroke="#bfbfbf" points="877.5,-224.5 877.5,-243.5 973.5,-243.5 973.5,-224.5 877.5,-224.5"/>
<text text-anchor="middle" x="925.5" y="-231.5" font-family="Verdana" font-size="10.00">XmlDocSource.h</text>
</g>
<!-- Node1&#45;&gt;Node20 -->
<g id="edge35" class="edge"><title>Node1&#45;&gt;Node20</title>
<path fill="none" stroke="midnightblue" d="M656.567,-285.816C720.908,-273.658 812.117,-256.424 870.039,-245.48"/>
<polygon fill="midnightblue" stroke="midnightblue" points="870.923,-248.875 880.099,-243.579 869.623,-241.996 870.923,-248.875"/>
</g>
<!-- Node21 -->
<g id="node21" class="node"><title>Node21</title>
<g id="a_node21"><a xlink:href="XmlDomainExportContext_8h.html" target="_top" xlink:title="XmlDomainExportContext.h">
<polygon fill="white" stroke="black" points="963,-168.5 963,-187.5 1112,-187.5 1112,-168.5 963,-168.5"/>
<text text-anchor="middle" x="1037.5" y="-175.5" font-family="Verdana" font-size="10.00">XmlDomainExportContext.h</text>
</a>
</g>
</g>
<!-- Node1&#45;&gt;Node21 -->
<g id="edge36" class="edge"><title>Node1&#45;&gt;Node21</title>
<path fill="none" stroke="midnightblue" d="M637.231,-280.41C664.96,-270.25 698.811,-257.22 728.5,-244 746.295,-236.076 749.006,-230.118 767.5,-224 802.689,-212.358 895.245,-198.196 962.189,-188.907"/>
<polygon fill="midnightblue" stroke="midnightblue" points="962.857,-192.348 972.285,-187.516 961.901,-185.414 962.857,-192.348"/>
</g>
<!-- Node25 -->
<g id="node25" class="node"><title>Node25</title>
<polygon fill="white" stroke="#bfbfbf" points="1168,-224.5 1168,-243.5 1225,-243.5 1225,-224.5 1168,-224.5"/>
<text text-anchor="middle" x="1196.5" y="-231.5" font-family="Verdana" font-size="10.00">ostream</text>
</g>
<!-- Node1&#45;&gt;Node25 -->
<g id="edge44" class="edge"><title>Node1&#45;&gt;Node25</title>
<path fill="none" stroke="midnightblue" d="M656.78,-295.25C766.471,-287.736 976.458,-271.112 1153.5,-244 1154.96,-243.776 1156.45,-243.535 1157.95,-243.28"/>
<polygon fill="midnightblue" stroke="midnightblue" points="1158.7,-246.699 1167.9,-241.439 1157.43,-239.816 1158.7,-246.699"/>
</g>
<!-- Node26 -->
<g id="node26" class="node"><title>Node26</title>
<polygon fill="white" stroke="#bfbfbf" points="1243,-224.5 1243,-243.5 1296,-243.5 1296,-224.5 1243,-224.5"/>
<text text-anchor="middle" x="1269.5" y="-231.5" font-family="Verdana" font-size="10.00">istream</text>
</g>
<!-- Node1&#45;&gt;Node26 -->
<g id="edge45" class="edge"><title>Node1&#45;&gt;Node26</title>
<path fill="none" stroke="midnightblue" d="M656.933,-297.599C777.14,-292.879 1019.54,-279.699 1232.72,-244.055"/>
<polygon fill="midnightblue" stroke="midnightblue" points="1233.57,-247.461 1242.85,-242.341 1232.4,-240.559 1233.57,-247.461"/>
</g>
<!-- Node6&#45;&gt;Node4 -->
<g id="edge6" class="edge"><title>Node6&#45;&gt;Node4</title>
<path fill="none" stroke="midnightblue" d="M334.538,-168.466C286.688,-156.319 208.601,-129.334 165.5,-76 154.856,-62.8283 150.817,-43.69 149.315,-29.5894"/>
<polygon fill="midnightblue" stroke="midnightblue" points="152.802,-29.287 148.577,-19.5714 145.821,-29.8016 152.802,-29.287"/>
</g>
<!-- Node7 -->
<g id="node7" class="node"><title>Node7</title>
<g id="a_node7"><a xlink:href="RemoteCommandHandler_8h.html" target="_top" xlink:title="RemoteCommandHandler.h">
<polygon fill="white" stroke="black" points="369,-112.5 369,-131.5 518,-131.5 518,-112.5 369,-112.5"/>
<text text-anchor="middle" x="443.5" y="-119.5" font-family="Verdana" font-size="10.00">RemoteCommandHandler.h</text>
</a>
</g>
</g>
<!-- Node6&#45;&gt;Node7 -->
<g id="edge7" class="edge"><title>Node6&#45;&gt;Node7</title>
<path fill="none" stroke="midnightblue" d="M386.425,-168.324C396.675,-160.185 412.221,-147.839 424.501,-138.087"/>
<polygon fill="midnightblue" stroke="midnightblue" points="426.721,-140.794 432.376,-131.834 422.368,-135.312 426.721,-140.794"/>
</g>
<!-- Node8 -->
<g id="node8" class="node"><title>Node8</title>
<g id="a_node8"><a xlink:href="RemoteCommand_8h.html" target="_top" xlink:title="RemoteCommand.h">
<polygon fill="white" stroke="black" points="569,-56.5 569,-75.5 682,-75.5 682,-56.5 569,-56.5"/>
<text text-anchor="middle" x="625.5" y="-63.5" font-family="Verdana" font-size="10.00">RemoteCommand.h</text>
</a>
</g>
</g>
<!-- Node7&#45;&gt;Node8 -->
<g id="edge8" class="edge"><title>Node7&#45;&gt;Node8</title>
<path fill="none" stroke="midnightblue" d="M472.338,-112.444C503.356,-103.241 552.829,-88.5617 587.118,-78.3879"/>
<polygon fill="midnightblue" stroke="midnightblue" points="588.205,-81.7164 596.796,-75.5164 586.214,-75.0055 588.205,-81.7164"/>
</g>
<!-- Node7&#45;&gt;Node10 -->
<g id="edge11" class="edge"><title>Node7&#45;&gt;Node10</title>
<path fill="none" stroke="midnightblue" d="M508.353,-112.494C586.16,-102.018 708.667,-84.563 728.5,-76 755.314,-64.4227 781.103,-42.2891 796.871,-27.0936"/>
<polygon fill="midnightblue" stroke="midnightblue" points="799.518,-29.3983 804.156,-19.8725 794.59,-24.4269 799.518,-29.3983"/>
</g>
<!-- Node9 -->
<g id="node9" class="node"><title>Node9</title>
<polygon fill="white" stroke="#bfbfbf" points="337,-0.5 337,-19.5 390,-19.5 390,-0.5 337,-0.5"/>
<text text-anchor="middle" x="363.5" y="-7.5" font-family="Verdana" font-size="10.00">stdint.h</text>
</g>
<!-- Node8&#45;&gt;Node9 -->
<g id="edge9" class="edge"><title>Node8&#45;&gt;Node9</title>
<path fill="none" stroke="midnightblue" d="M583.985,-56.4435C533.306,-45.9982 448.401,-28.4986 400.076,-18.5385"/>
<polygon fill="midnightblue" stroke="midnightblue" points="400.558,-15.0644 390.057,-16.4736 399.145,-21.9203 400.558,-15.0644"/>
</g>
<!-- Node8&#45;&gt;Node10 -->
<g id="edge10" class="edge"><title>Node8&#45;&gt;Node10</title>
<path fill="none" stroke="midnightblue" d="M655.131,-56.4435C689.343,-46.5639 745.411,-30.3734 780.569,-20.2208"/>
<polygon fill="midnightblue" stroke="midnightblue" points="781.692,-23.5396 790.328,-17.4026 779.75,-16.8144 781.692,-23.5396"/>
</g>
<!-- Node11&#45;&gt;Node4 -->
<g id="edge13" class="edge"><title>Node11&#45;&gt;Node4</title>
<path fill="none" stroke="midnightblue" d="M226.558,-56.324C211.915,-47.8215 189.366,-34.7288 172.262,-24.7975"/>
<polygon fill="midnightblue" stroke="midnightblue" points="173.81,-21.6491 163.405,-19.6545 170.295,-27.7027 173.81,-21.6491"/>
</g>
<!-- Node11&#45;&gt;Node9 -->
<g id="edge15" class="edge"><title>Node11&#45;&gt;Node9</title>
<path fill="none" stroke="midnightblue" d="M260.831,-56.4435C280.82,-47.5961 312.243,-33.6875 335.064,-23.5865"/>
<polygon fill="midnightblue" stroke="midnightblue" points="336.532,-26.7645 344.259,-19.5164 333.698,-20.3635 336.532,-26.7645"/>
</g>
<!-- Node11&#45;&gt;Node10 -->
<g id="edge14" class="edge"><title>Node11&#45;&gt;Node10</title>
<path fill="none" stroke="midnightblue" d="M287.677,-57.1852C290.659,-56.7605 293.62,-56.3607 296.5,-56 478.813,-33.1667 698.814,-18.1152 780.2,-12.9693"/>
<polygon fill="midnightblue" stroke="midnightblue" points="780.547,-16.4545 790.308,-12.3363 780.109,-9.46823 780.547,-16.4545"/>
</g>
<!-- Node12&#45;&gt;Node3 -->
<g id="edge25" class="edge"><title>Node12&#45;&gt;Node3</title>
<path fill="none" stroke="midnightblue" d="M652.119,-168.444C633.284,-159.675 603.769,-145.935 582.121,-135.858"/>
<polygon fill="midnightblue" stroke="midnightblue" points="583.338,-132.564 572.795,-131.516 580.383,-138.91 583.338,-132.564"/>
</g>
<!-- Node12&#45;&gt;Node10 -->
<g id="edge26" class="edge"><title>Node12&#45;&gt;Node10</title>
<path fill="none" stroke="midnightblue" d="M710.114,-168.454C731.847,-161.87 757.71,-150.635 774.5,-132 800.819,-102.789 808.91,-55.4537 811.397,-29.4934"/>
<polygon fill="midnightblue" stroke="midnightblue" points="814.888,-29.7418 812.174,-19.5006 807.909,-29.1993 814.888,-29.7418"/>
</g>
<!-- Node12&#45;&gt;Node13 -->
<g id="edge17" class="edge"><title>Node12&#45;&gt;Node13</title>
<path fill="none" stroke="midnightblue" d="M604.749,-168.891C543.929,-161.071 450.798,-148.29 361.191,-132.208"/>
<polygon fill="midnightblue" stroke="midnightblue" points="361.595,-128.725 351.131,-130.386 360.347,-135.613 361.595,-128.725"/>
</g>
<!-- Node16 -->
<g id="node16" class="node"><title>Node16</title>
<polygon fill="white" stroke="#bfbfbf" points="592,-112.5 592,-131.5 765,-131.5 765,-112.5 592,-112.5"/>
<text text-anchor="middle" x="678.5" y="-119.5" font-family="Verdana" font-size="10.00">SelectionCriterionTypeInterface.h</text>
</g>
<!-- Node12&#45;&gt;Node16 -->
<g id="edge27" class="edge"><title>Node12&#45;&gt;Node16</title>
<path fill="none" stroke="midnightblue" d="M671.821,-168.083C672.881,-160.927 674.406,-150.635 675.731,-141.691"/>
<polygon fill="midnightblue" stroke="midnightblue" points="679.2,-142.156 677.204,-131.751 672.276,-141.13 679.2,-142.156"/>
</g>
<!-- Node13&#45;&gt;Node4 -->
<g id="edge19" class="edge"><title>Node13&#45;&gt;Node4</title>
<path fill="none" stroke="midnightblue" d="M285.802,-116.445C257.003,-111.012 215.278,-99.5179 186.5,-76 171.514,-63.7527 161.151,-43.9291 155.077,-29.3899"/>
<polygon fill="midnightblue" stroke="midnightblue" points="158.285,-27.9803 151.407,-19.9209 151.758,-30.5099 158.285,-27.9803"/>
</g>
<!-- Node13&#45;&gt;Node5 -->
<g id="edge21" class="edge"><title>Node13&#45;&gt;Node5</title>
<path fill="none" stroke="midnightblue" d="M318.83,-112.083C319.092,-105.006 319.468,-94.8611 319.797,-85.9865"/>
<polygon fill="midnightblue" stroke="midnightblue" points="323.303,-85.8738 320.176,-75.7511 316.308,-85.6147 323.303,-85.8738"/>
</g>
<!-- Node13&#45;&gt;Node9 -->
<g id="edge20" class="edge"><title>Node13&#45;&gt;Node9</title>
<path fill="none" stroke="midnightblue" d="M324.332,-112.361C330.086,-103.533 338.823,-89.2734 344.5,-76 351.002,-60.7988 356.093,-42.6845 359.363,-29.4444"/>
<polygon fill="midnightblue" stroke="midnightblue" points="362.786,-30.1762 361.671,-19.6402 355.972,-28.5719 362.786,-30.1762"/>
</g>
<!-- Node13&#45;&gt;Node10 -->
<g id="edge18" class="edge"><title>Node13&#45;&gt;Node10</title>
<path fill="none" stroke="midnightblue" d="M351.113,-113.508C353.942,-112.959 356.767,-112.447 359.5,-112 505.976,-88.0538 549.787,-120.114 691.5,-76 709.348,-70.444 712.039,-64.8581 728.5,-56 748.229,-45.3832 770.591,-33.4064 787.28,-24.4793"/>
<polygon fill="midnightblue" stroke="midnightblue" points="789.219,-27.4111 796.387,-19.6089 785.918,-21.2383 789.219,-27.4111"/>
</g>
<!-- Node13&#45;&gt;Node11 -->
<g id="edge24" class="edge"><title>Node13&#45;&gt;Node11</title>
<path fill="none" stroke="midnightblue" d="M306.129,-112.324C294.342,-104.058 276.368,-91.4527 262.364,-81.6322"/>
<polygon fill="midnightblue" stroke="midnightblue" points="264.038,-78.5307 253.841,-75.6545 260.018,-84.2619 264.038,-78.5307"/>
</g>
<!-- Node14 -->
<g id="node14" class="node"><title>Node14</title>
<polygon fill="white" stroke="#bfbfbf" points="391.5,-56.5 391.5,-75.5 455.5,-75.5 455.5,-56.5 391.5,-56.5"/>
<text text-anchor="middle" x="423.5" y="-63.5" font-family="Verdana" font-size="10.00">XmlSink.h</text>
</g>
<!-- Node13&#45;&gt;Node14 -->
<g id="edge22" class="edge"><title>Node13&#45;&gt;Node14</title>
<path fill="none" stroke="midnightblue" d="M335.37,-112.324C352.209,-103.664 378.307,-90.2424 397.738,-80.249"/>
<polygon fill="midnightblue" stroke="midnightblue" points="399.38,-83.3405 406.672,-75.6545 396.178,-77.1155 399.38,-83.3405"/>
</g>
<!-- Node15 -->
<g id="node15" class="node"><title>Node15</title>
<polygon fill="white" stroke="#bfbfbf" points="474,-56.5 474,-75.5 551,-75.5 551,-56.5 474,-56.5"/>
<text text-anchor="middle" x="512.5" y="-63.5" font-family="Verdana" font-size="10.00">XmlSource.h</text>
</g>
<!-- Node13&#45;&gt;Node15 -->
<g id="edge23" class="edge"><title>Node13&#45;&gt;Node15</title>
<path fill="none" stroke="midnightblue" d="M349.24,-112.444C382.444,-103.201 435.491,-88.4356 472.057,-78.2572"/>
<polygon fill="midnightblue" stroke="midnightblue" points="473.209,-81.5699 481.904,-75.5164 471.332,-74.8262 473.209,-81.5699"/>
</g>
<!-- Node17&#45;&gt;Node10 -->
<g id="edge32" class="edge"><title>Node17&#45;&gt;Node10</title>
<path fill="none" stroke="midnightblue" d="M684.325,-224.362C701.49,-216.349 726.48,-203.366 745.5,-188 771.225,-167.217 777.094,-160.12 794.5,-132 813.074,-101.993 819.452,-91.2367 817.5,-56 817.021,-47.358 816.029,-37.8252 815.054,-29.7666"/>
<polygon fill="midnightblue" stroke="midnightblue" points="818.494,-29.0728 813.742,-19.6032 811.552,-29.969 818.494,-29.0728"/>
</g>
<!-- Node17&#45;&gt;Node12 -->
<g id="edge30" class="edge"><title>Node17&#45;&gt;Node12</title>
<path fill="none" stroke="midnightblue" d="M665.491,-224.083C666.286,-216.927 667.429,-206.635 668.423,-197.691"/>
<polygon fill="midnightblue" stroke="midnightblue" points="671.902,-198.076 669.528,-187.751 664.945,-197.303 671.902,-198.076"/>
</g>
<!-- Node17&#45;&gt;Node13 -->
<g id="edge29" class="edge"><title>Node17&#45;&gt;Node13</title>
<path fill="none" stroke="midnightblue" d="M647.352,-224.334C619.899,-210.744 564.115,-184.293 514.5,-168 507.181,-165.597 416.773,-145.114 361.336,-132.626"/>
<polygon fill="midnightblue" stroke="midnightblue" points="361.944,-129.175 351.42,-130.393 360.407,-136.004 361.944,-129.175"/>
</g>
<!-- Node18 -->
<g id="node18" class="node"><title>Node18</title>
<polygon fill="white" stroke="#bfbfbf" points="792.5,-168.5 792.5,-187.5 944.5,-187.5 944.5,-168.5 792.5,-168.5"/>
<text text-anchor="middle" x="868.5" y="-175.5" font-family="Verdana" font-size="10.00">SelectionCriterionInterface.h</text>
</g>
<!-- Node17&#45;&gt;Node18 -->
<g id="edge31" class="edge"><title>Node17&#45;&gt;Node18</title>
<path fill="none" stroke="midnightblue" d="M696.824,-224.444C731.889,-215.162 787.998,-200.309 826.465,-190.127"/>
<polygon fill="midnightblue" stroke="midnightblue" points="827.555,-193.459 836.327,-187.516 825.764,-186.692 827.555,-193.459"/>
</g>
<!-- Node21&#45;&gt;Node10 -->
<g id="edge42" class="edge"><title>Node21&#45;&gt;Node10</title>
<path fill="none" stroke="midnightblue" d="M1007.62,-168.396C984.73,-160.951 953.017,-148.738 928.5,-132 884.833,-102.189 844.719,-53.7452 825.11,-28.1325"/>
<polygon fill="midnightblue" stroke="midnightblue" points="827.654,-25.6922 818.845,-19.806 822.061,-29.901 827.654,-25.6922"/>
</g>
<!-- Node22 -->
<g id="node22" class="node"><title>Node22</title>
<g id="a_node22"><a xlink:href="XmlDomainSerializingContext_8h.html" target="_top" xlink:title="XmlDomainSerializingContext.h">
<polygon fill="white" stroke="black" points="937,-112.5 937,-131.5 1104,-131.5 1104,-112.5 937,-112.5"/>
<text text-anchor="middle" x="1020.5" y="-119.5" font-family="Verdana" font-size="10.00">XmlDomainSerializingContext.h</text>
</a>
</g>
</g>
<!-- Node21&#45;&gt;Node22 -->
<g id="edge37" class="edge"><title>Node21&#45;&gt;Node22</title>
<path fill="none" stroke="midnightblue" d="M1034.69,-168.083C1032.42,-160.849 1029.13,-150.409 1026.29,-141.397"/>
<polygon fill="midnightblue" stroke="midnightblue" points="1029.6,-140.239 1023.25,-131.751 1022.92,-142.341 1029.6,-140.239"/>
</g>
<!-- Node22&#45;&gt;Node10 -->
<g id="edge41" class="edge"><title>Node22&#45;&gt;Node10</title>
<path fill="none" stroke="midnightblue" d="M1001.58,-112.427C982.453,-103.649 952.146,-89.4281 926.5,-76 894.392,-59.1884 858.167,-38.1706 835.34,-24.6661"/>
<polygon fill="midnightblue" stroke="midnightblue" points="837.099,-21.6401 826.714,-19.5428 833.525,-27.6586 837.099,-21.6401"/>
</g>
<!-- Node23 -->
<g id="node23" class="node"><title>Node23</title>
<g id="a_node23"><a xlink:href="XmlElementSerializingContext_8h.html" target="_top" xlink:title="XmlElementSerializingContext.h">
<polygon fill="white" stroke="black" points="935.5,-56.5 935.5,-75.5 1105.5,-75.5 1105.5,-56.5 935.5,-56.5"/>
<text text-anchor="middle" x="1020.5" y="-63.5" font-family="Verdana" font-size="10.00">XmlElementSerializingContext.h</text>
</a>
</g>
</g>
<!-- Node22&#45;&gt;Node23 -->
<g id="edge38" class="edge"><title>Node22&#45;&gt;Node23</title>
<path fill="none" stroke="midnightblue" d="M1020.5,-112.083C1020.5,-105.006 1020.5,-94.8611 1020.5,-85.9865"/>
<polygon fill="midnightblue" stroke="midnightblue" points="1024,-85.751 1020.5,-75.7511 1017,-85.7511 1024,-85.751"/>
</g>
<!-- Node23&#45;&gt;Node10 -->
<g id="edge40" class="edge"><title>Node23&#45;&gt;Node10</title>
<path fill="none" stroke="midnightblue" d="M987.542,-56.4435C948.319,-46.2607 883.273,-29.3737 844.484,-19.3035"/>
<polygon fill="midnightblue" stroke="midnightblue" points="845.31,-15.902 834.751,-16.7767 843.551,-22.6774 845.31,-15.902"/>
</g>
<!-- Node24 -->
<g id="node24" class="node"><title>Node24</title>
<polygon fill="white" stroke="#bfbfbf" points="955.5,-0.5 955.5,-19.5 1085.5,-19.5 1085.5,-0.5 955.5,-0.5"/>
<text text-anchor="middle" x="1020.5" y="-7.5" font-family="Verdana" font-size="10.00">XmlSerializingContext.h</text>
</g>
<!-- Node23&#45;&gt;Node24 -->
<g id="edge39" class="edge"><title>Node23&#45;&gt;Node24</title>
<path fill="none" stroke="midnightblue" d="M1020.5,-56.083C1020.5,-49.0059 1020.5,-38.8611 1020.5,-29.9865"/>
<polygon fill="midnightblue" stroke="midnightblue" points="1024,-29.751 1020.5,-19.7511 1017,-29.7511 1024,-29.751"/>
</g>
</g>
</svg>
