<?xml version="1.0" encoding="UTF-8" standalone="no"?>
<!DOCTYPE svg PUBLIC "-//W3C//DTD SVG 1.1//EN"
 "http://www.w3.org/Graphics/SVG/1.1/DTD/svg11.dtd">
<!-- Generated by graphviz version 2.38.0 (20140413.2041)
 -->
<!-- Title: /home/dawagner/dev/parameter&#45;framework/parameter/ParameterBlackboard.h Pages: 1 -->
<svg width="201pt" height="162pt"
 viewBox="0.00 0.00 200.50 162.00" xmlns="http://www.w3.org/2000/svg" xmlns:xlink="http://www.w3.org/1999/xlink">
<g id="graph0" class="graph" transform="scale(1 1) rotate(0) translate(4 158)">
<title>/home/dawagner/dev/parameter&#45;framework/parameter/ParameterBlackboard.h</title>
<polygon fill="white" stroke="none" points="-4,4 -4,-158 196.5,-158 196.5,4 -4,4"/>
<!-- Node1 -->
<g id="node1" class="node"><title>Node1</title>
<polygon fill="#bfbfbf" stroke="black" points="6.5,-112.5 6.5,-153.5 192.5,-153.5 192.5,-112.5 6.5,-112.5"/>
<text text-anchor="start" x="14.5" y="-141.5" font-family="Verdana" font-size="10.00">/home/dawagner/dev</text>
<text text-anchor="start" x="14.5" y="-130.5" font-family="Verdana" font-size="10.00">/parameter&#45;framework</text>
<text text-anchor="middle" x="99.5" y="-119.5" font-family="Verdana" font-size="10.00">/parameter/ParameterBlackboard.h</text>
</g>
<!-- Node2 -->
<g id="node2" class="node"><title>Node2</title>
<polygon fill="white" stroke="#bfbfbf" points="0,-0.5 0,-19.5 53,-19.5 53,-0.5 0,-0.5"/>
<text text-anchor="middle" x="26.5" y="-7.5" font-family="Verdana" font-size="10.00">stdint.h</text>
</g>
<!-- Node1&#45;&gt;Node2 -->
<g id="edge1" class="edge"><title>Node1&#45;&gt;Node2</title>
<path fill="none" stroke="midnightblue" d="M75.2315,-112.359C64.4325,-102.474 52.3992,-89.6922 44.5,-76 36.1801,-61.5785 31.5494,-43.1251 29.0764,-29.5674"/>
<polygon fill="midnightblue" stroke="midnightblue" points="32.5062,-28.8494 27.473,-19.5265 25.5938,-29.9533 32.5062,-28.8494"/>
</g>
<!-- Node3 -->
<g id="node3" class="node"><title>Node3</title>
<g id="a_node3"><a xlink:href="BinaryStream_8h.html" target="_top" xlink:title="BinaryStream.h">
<polygon fill="white" stroke="black" points="53.5,-56.5 53.5,-75.5 145.5,-75.5 145.5,-56.5 53.5,-56.5"/>
<text text-anchor="middle" x="99.5" y="-63.5" font-family="Verdana" font-size="10.00">BinaryStream.h</text>
</a>
</g>
</g>
<!-- Node1&#45;&gt;Node3 -->
<g id="edge2" class="edge"><title>Node1&#45;&gt;Node3</title>
<path fill="none" stroke="midnightblue" d="M99.5,-112.498C99.5,-104.065 99.5,-94.2351 99.5,-85.874"/>
<polygon fill="midnightblue" stroke="midnightblue" points="103,-85.6525 99.5,-75.6525 96.0001,-85.6525 103,-85.6525"/>
</g>
<!-- Node4 -->
<g id="node4" class="node"><title>Node4</title>
<polygon fill="white" stroke="#bfbfbf" points="147.5,-0.5 147.5,-19.5 191.5,-19.5 191.5,-0.5 147.5,-0.5"/>
<text text-anchor="middle" x="169.5" y="-7.5" font-family="Verdana" font-size="10.00">string</text>
</g>
<!-- Node1&#45;&gt;Node4 -->
<g id="edge6" class="edge"><title>Node1&#45;&gt;Node4</title>
<path fill="none" stroke="midnightblue" d="M124.318,-112.254C135.101,-102.437 146.965,-89.7407 154.5,-76 162.418,-61.5613 166.168,-43.1098 167.937,-29.5572"/>
<polygon fill="midnightblue" stroke="midnightblue" points="171.427,-29.8352 169.005,-19.5209 164.466,-29.0943 171.427,-29.8352"/>
</g>
<!-- Node3&#45;&gt;Node2 -->
<g id="edge3" class="edge"><title>Node3&#45;&gt;Node2</title>
<path fill="none" stroke="midnightblue" d="M87.7713,-56.324C76.6626,-48.1066 59.7578,-35.6017 46.5167,-25.8069"/>
<polygon fill="midnightblue" stroke="midnightblue" points="48.5631,-22.9671 38.4421,-19.8339 44.4001,-28.5948 48.5631,-22.9671"/>
</g>
<!-- Node3&#45;&gt;Node4 -->
<g id="edge4" class="edge"><title>Node3&#45;&gt;Node4</title>
<path fill="none" stroke="midnightblue" d="M110.747,-56.324C121.297,-48.1849 137.301,-35.8395 149.942,-26.0874"/>
<polygon fill="midnightblue" stroke="midnightblue" points="152.269,-28.7132 158.049,-19.8339 147.993,-23.1707 152.269,-28.7132"/>
</g>
<!-- Node5 -->
<g id="node5" class="node"><title>Node5</title>
<polygon fill="white" stroke="#bfbfbf" points="72.5,-0.5 72.5,-19.5 126.5,-19.5 126.5,-0.5 72.5,-0.5"/>
<text text-anchor="middle" x="99.5" y="-7.5" font-family="Verdana" font-size="10.00">fstream</text>
</g>
<!-- Node3&#45;&gt;Node5 -->
<g id="edge5" class="edge"><title>Node3&#45;&gt;Node5</title>
<path fill="none" stroke="midnightblue" d="M99.5,-56.083C99.5,-49.0059 99.5,-38.8611 99.5,-29.9865"/>
<polygon fill="midnightblue" stroke="midnightblue" points="103,-29.751 99.5,-19.7511 96.0001,-29.7511 103,-29.751"/>
</g>
</g>
</svg>
