<?xml version="1.0" encoding="UTF-8" standalone="no"?>
<!DOCTYPE svg PUBLIC "-//W3C//DTD SVG 1.1//EN"
 "http://www.w3.org/Graphics/SVG/1.1/DTD/svg11.dtd">
<!-- Generated by graphviz version 2.38.0 (20140413.2041)
 -->
<!-- Title: parameter/ParameterBlockType.cpp Pages: 1 -->
<svg width="1069pt" height="487pt"
 viewBox="0.00 0.00 1068.96 487.00" xmlns="http://www.w3.org/2000/svg" xmlns:xlink="http://www.w3.org/1999/xlink">
<g id="graph0" class="graph" transform="scale(1 1) rotate(0) translate(4 483)">
<title>parameter/ParameterBlockType.cpp</title>
<polygon fill="white" stroke="none" points="-4,4 -4,-483 1064.96,-483 1064.96,4 -4,4"/>
<!-- Node1 -->
<g id="node1" class="node"><title>Node1</title>
<polygon fill="#bfbfbf" stroke="black" points="569.96,-448.5 569.96,-478.5 715.96,-478.5 715.96,-448.5 569.96,-448.5"/>
<text text-anchor="start" x="577.96" y="-466.5" font-family="Verdana" font-size="10.00">parameter/ParameterBlock</text>
<text text-anchor="middle" x="642.96" y="-455.5" font-family="Verdana" font-size="10.00">Type.cpp</text>
</g>
<!-- Node2 -->
<g id="node2" class="node"><title>Node2</title>
<g id="a_node2"><a xlink:href="ParameterBlockType_8h.html" target="_top" xlink:title="ParameterBlockType.h">
<polygon fill="white" stroke="black" points="134.96,-336.5 134.96,-355.5 256.96,-355.5 256.96,-336.5 134.96,-336.5"/>
<text text-anchor="middle" x="195.96" y="-343.5" font-family="Verdana" font-size="10.00">ParameterBlockType.h</text>
</a>
</g>
</g>
<!-- Node1&#45;&gt;Node2 -->
<g id="edge1" class="edge"><title>Node1&#45;&gt;Node2</title>
<path fill="none" stroke="midnightblue" d="M588.596,-448.453C498.585,-425.195 320.433,-379.162 238.727,-358.05"/>
<polygon fill="midnightblue" stroke="midnightblue" points="239.578,-354.655 229.02,-355.542 237.826,-361.433 239.578,-354.655"/>
</g>
<!-- Node16 -->
<g id="node16" class="node"><title>Node16</title>
<g id="a_node16"><a xlink:href="ParameterBlock_8h.html" target="_top" xlink:title="ParameterBlock.h">
<polygon fill="white" stroke="black" points="592.46,-392.5 592.46,-411.5 693.46,-411.5 693.46,-392.5 592.46,-392.5"/>
<text text-anchor="middle" x="642.96" y="-399.5" font-family="Verdana" font-size="10.00">ParameterBlock.h</text>
</a>
</g>
</g>
<!-- Node1&#45;&gt;Node16 -->
<g id="edge27" class="edge"><title>Node1&#45;&gt;Node16</title>
<path fill="none" stroke="midnightblue" d="M642.96,-448.399C642.96,-440.466 642.96,-430.458 642.96,-421.858"/>
<polygon fill="midnightblue" stroke="midnightblue" points="646.46,-421.658 642.96,-411.658 639.46,-421.658 646.46,-421.658"/>
</g>
<!-- Node20 -->
<g id="node20" class="node"><title>Node20</title>
<g id="a_node20"><a xlink:href="Utility_8h.html" target="_top" xlink:title="Utility.h">
<polygon fill="white" stroke="black" points="782.46,-280.5 782.46,-299.5 833.46,-299.5 833.46,-280.5 782.46,-280.5"/>
<text text-anchor="middle" x="807.96" y="-287.5" font-family="Verdana" font-size="10.00">Utility.h</text>
</a>
</g>
</g>
<!-- Node1&#45;&gt;Node20 -->
<g id="edge39" class="edge"><title>Node1&#45;&gt;Node20</title>
<path fill="none" stroke="midnightblue" d="M660.839,-448.327C672.851,-438.536 688.824,-424.986 701.96,-412 737.535,-376.832 775.22,-331.641 794.647,-307.669"/>
<polygon fill="midnightblue" stroke="midnightblue" points="797.61,-309.57 801.156,-299.586 792.158,-305.18 797.61,-309.57"/>
</g>
<!-- Node3 -->
<g id="node3" class="node"><title>Node3</title>
<g id="a_node3"><a xlink:href="TypeElement_8h.html" target="_top" xlink:title="TypeElement.h">
<polygon fill="white" stroke="black" points="152.96,-280.5 152.96,-299.5 238.96,-299.5 238.96,-280.5 152.96,-280.5"/>
<text text-anchor="middle" x="195.96" y="-287.5" font-family="Verdana" font-size="10.00">TypeElement.h</text>
</a>
</g>
</g>
<!-- Node2&#45;&gt;Node3 -->
<g id="edge2" class="edge"><title>Node2&#45;&gt;Node3</title>
<path fill="none" stroke="midnightblue" d="M195.96,-336.083C195.96,-329.006 195.96,-318.861 195.96,-309.986"/>
<polygon fill="midnightblue" stroke="midnightblue" points="199.46,-309.751 195.96,-299.751 192.46,-309.751 199.46,-309.751"/>
</g>
<!-- Node6 -->
<g id="node6" class="node"><title>Node6</title>
<polygon fill="white" stroke="#bfbfbf" points="336.96,-0.5 336.96,-19.5 380.96,-19.5 380.96,-0.5 336.96,-0.5"/>
<text text-anchor="middle" x="358.96" y="-7.5" font-family="Verdana" font-size="10.00">string</text>
</g>
<!-- Node2&#45;&gt;Node6 -->
<g id="edge26" class="edge"><title>Node2&#45;&gt;Node6</title>
<path fill="none" stroke="midnightblue" d="M134.796,-336.542C77.6089,-324.783 0.960215,-297.385 0.960215,-235 0.960215,-235 0.960215,-235 0.960215,-121 0.960215,-90.9022 -2.88065,-75.6003 19.9602,-56 65.4804,-16.938 250.34,-11.5046 326.217,-10.949"/>
<polygon fill="midnightblue" stroke="midnightblue" points="326.609,-14.4473 336.592,-10.899 326.575,-7.44736 326.609,-14.4473"/>
</g>
<!-- Node4 -->
<g id="node4" class="node"><title>Node4</title>
<polygon fill="white" stroke="#bfbfbf" points="103.46,-168.5 103.46,-187.5 216.46,-187.5 216.46,-168.5 103.46,-168.5"/>
<text text-anchor="middle" x="159.96" y="-175.5" font-family="Verdana" font-size="10.00">parameter_export.h</text>
</g>
<!-- Node3&#45;&gt;Node4 -->
<g id="edge3" class="edge"><title>Node3&#45;&gt;Node4</title>
<path fill="none" stroke="midnightblue" d="M193.135,-280.368C187.299,-262.537 173.802,-221.295 165.94,-197.272"/>
<polygon fill="midnightblue" stroke="midnightblue" points="169.209,-196.007 162.772,-187.591 162.556,-198.184 169.209,-196.007"/>
</g>
<!-- Node5 -->
<g id="node5" class="node"><title>Node5</title>
<g id="a_node5"><a xlink:href="Element_8h.html" target="_top" xlink:title="Element.h">
<polygon fill="white" stroke="black" points="361.46,-224.5 361.46,-243.5 426.46,-243.5 426.46,-224.5 361.46,-224.5"/>
<text text-anchor="middle" x="393.96" y="-231.5" font-family="Verdana" font-size="10.00">Element.h</text>
</a>
</g>
</g>
<!-- Node3&#45;&gt;Node5 -->
<g id="edge4" class="edge"><title>Node3&#45;&gt;Node5</title>
<path fill="none" stroke="midnightblue" d="M227.334,-280.444C261.223,-271.201 315.363,-256.436 352.684,-246.257"/>
<polygon fill="midnightblue" stroke="midnightblue" points="354.007,-249.524 362.733,-243.516 352.165,-242.771 354.007,-249.524"/>
</g>
<!-- Node3&#45;&gt;Node6 -->
<g id="edge25" class="edge"><title>Node3&#45;&gt;Node6</title>
<path fill="none" stroke="midnightblue" d="M178.361,-280.39C143.642,-262.124 71.5566,-217.121 93.9602,-168 136.858,-73.9449 266.082,-32.4121 326.792,-17.712"/>
<polygon fill="midnightblue" stroke="midnightblue" points="327.666,-21.1023 336.611,-15.4251 326.078,-14.2848 327.666,-21.1023"/>
</g>
<!-- Node5&#45;&gt;Node4 -->
<g id="edge5" class="edge"><title>Node5&#45;&gt;Node4</title>
<path fill="none" stroke="midnightblue" d="M361.424,-225.492C321.262,-216.223 252.668,-200.394 206.832,-189.817"/>
<polygon fill="midnightblue" stroke="midnightblue" points="207.376,-186.35 196.845,-187.512 205.801,-193.171 207.376,-186.35"/>
</g>
<!-- Node5&#45;&gt;Node6 -->
<g id="edge6" class="edge"><title>Node5&#45;&gt;Node6</title>
<path fill="none" stroke="midnightblue" d="M361.268,-227.508C315.609,-217.74 235.67,-192.377 211.96,-132 189.467,-74.7193 277.435,-36.7579 327.097,-20.3108"/>
<polygon fill="midnightblue" stroke="midnightblue" points="328.308,-23.5982 336.767,-17.2186 326.176,-16.9308 328.308,-23.5982"/>
</g>
<!-- Node7 -->
<g id="node7" class="node"><title>Node7</title>
<polygon fill="white" stroke="#bfbfbf" points="547.46,-112.5 547.46,-131.5 594.46,-131.5 594.46,-112.5 547.46,-112.5"/>
<text text-anchor="middle" x="570.96" y="-119.5" font-family="Verdana" font-size="10.00">vector</text>
</g>
<!-- Node5&#45;&gt;Node7 -->
<g id="edge7" class="edge"><title>Node5&#45;&gt;Node7</title>
<path fill="none" stroke="midnightblue" d="M426.68,-232.575C462.245,-230.325 518.467,-221.262 551.96,-188 564.072,-175.972 568.557,-156.68 570.17,-142.232"/>
<polygon fill="midnightblue" stroke="midnightblue" points="573.686,-142.148 570.939,-131.915 566.706,-141.627 573.686,-142.148"/>
</g>
<!-- Node8 -->
<g id="node8" class="node"><title>Node8</title>
<polygon fill="white" stroke="#bfbfbf" points="509.46,-56.5 509.46,-75.5 562.46,-75.5 562.46,-56.5 509.46,-56.5"/>
<text text-anchor="middle" x="535.96" y="-63.5" font-family="Verdana" font-size="10.00">stdint.h</text>
</g>
<!-- Node5&#45;&gt;Node8 -->
<g id="edge8" class="edge"><title>Node5&#45;&gt;Node8</title>
<path fill="none" stroke="midnightblue" d="M426.793,-232.503C465.552,-230.308 530.141,-221.414 572.96,-188 601.589,-165.66 620.04,-144.047 602.96,-112 595.41,-97.8339 581.2,-87.3348 567.802,-80.0576"/>
<polygon fill="midnightblue" stroke="midnightblue" points="569.258,-76.8724 558.749,-75.5289 566.126,-83.1329 569.258,-76.8724"/>
</g>
<!-- Node9 -->
<g id="node9" class="node"><title>Node9</title>
<g id="a_node9"><a xlink:href="XmlSink_8h.html" target="_top" xlink:title="XmlSink.h">
<polygon fill="white" stroke="black" points="272.96,-168.5 272.96,-187.5 336.96,-187.5 336.96,-168.5 272.96,-168.5"/>
<text text-anchor="middle" x="304.96" y="-175.5" font-family="Verdana" font-size="10.00">XmlSink.h</text>
</a>
</g>
</g>
<!-- Node5&#45;&gt;Node9 -->
<g id="edge9" class="edge"><title>Node5&#45;&gt;Node9</title>
<path fill="none" stroke="midnightblue" d="M379.661,-224.324C365.777,-215.9 344.468,-202.971 328.156,-193.074"/>
<polygon fill="midnightblue" stroke="midnightblue" points="329.589,-189.85 319.224,-187.655 325.958,-195.834 329.589,-189.85"/>
</g>
<!-- Node14 -->
<g id="node14" class="node"><title>Node14</title>
<g id="a_node14"><a xlink:href="XmlSource_8h.html" target="_top" xlink:title="XmlSource.h">
<polygon fill="white" stroke="black" points="355.46,-168.5 355.46,-187.5 432.46,-187.5 432.46,-168.5 355.46,-168.5"/>
<text text-anchor="middle" x="393.96" y="-175.5" font-family="Verdana" font-size="10.00">XmlSource.h</text>
</a>
</g>
</g>
<!-- Node5&#45;&gt;Node14 -->
<g id="edge18" class="edge"><title>Node5&#45;&gt;Node14</title>
<path fill="none" stroke="midnightblue" d="M393.96,-224.083C393.96,-217.006 393.96,-206.861 393.96,-197.986"/>
<polygon fill="midnightblue" stroke="midnightblue" points="397.46,-197.751 393.96,-187.751 390.46,-197.751 397.46,-197.751"/>
</g>
<!-- Node15 -->
<g id="node15" class="node"><title>Node15</title>
<g id="a_node15"><a xlink:href="PathNavigator_8h.html" target="_top" xlink:title="PathNavigator.h">
<polygon fill="white" stroke="black" points="450.96,-168.5 450.96,-187.5 542.96,-187.5 542.96,-168.5 450.96,-168.5"/>
<text text-anchor="middle" x="496.96" y="-175.5" font-family="Verdana" font-size="10.00">PathNavigator.h</text>
</a>
</g>
</g>
<!-- Node5&#45;&gt;Node15 -->
<g id="edge21" class="edge"><title>Node5&#45;&gt;Node15</title>
<path fill="none" stroke="midnightblue" d="M410.509,-224.324C426.952,-215.703 452.395,-202.364 471.429,-192.386"/>
<polygon fill="midnightblue" stroke="midnightblue" points="473.221,-195.398 480.453,-187.655 469.971,-189.198 473.221,-195.398"/>
</g>
<!-- Node10 -->
<g id="node10" class="node"><title>Node10</title>
<g id="a_node10"><a xlink:href="XmlElement_8h.html" target="_top" xlink:title="XmlElement.h">
<polygon fill="white" stroke="black" points="369.46,-112.5 369.46,-131.5 452.46,-131.5 452.46,-112.5 369.46,-112.5"/>
<text text-anchor="middle" x="410.96" y="-119.5" font-family="Verdana" font-size="10.00">XmlElement.h</text>
</a>
</g>
</g>
<!-- Node9&#45;&gt;Node10 -->
<g id="edge10" class="edge"><title>Node9&#45;&gt;Node10</title>
<path fill="none" stroke="midnightblue" d="M321.991,-168.324C338.99,-159.664 365.336,-146.242 384.953,-136.249"/>
<polygon fill="midnightblue" stroke="midnightblue" points="386.65,-139.312 393.972,-131.655 383.473,-133.075 386.65,-139.312"/>
</g>
<!-- Node11 -->
<g id="node11" class="node"><title>Node11</title>
<g id="a_node11"><a xlink:href="XmlSerializingContext_8h.html" target="_top" xlink:title="XmlSerializingContext.h">
<polygon fill="white" stroke="black" points="220.96,-112.5 220.96,-131.5 350.96,-131.5 350.96,-112.5 220.96,-112.5"/>
<text text-anchor="middle" x="285.96" y="-119.5" font-family="Verdana" font-size="10.00">XmlSerializingContext.h</text>
</a>
</g>
</g>
<!-- Node9&#45;&gt;Node11 -->
<g id="edge13" class="edge"><title>Node9&#45;&gt;Node11</title>
<path fill="none" stroke="midnightblue" d="M301.823,-168.083C299.277,-160.849 295.604,-150.409 292.433,-141.397"/>
<polygon fill="midnightblue" stroke="midnightblue" points="295.66,-140.023 289.039,-131.751 289.057,-142.346 295.66,-140.023"/>
</g>
<!-- Node10&#45;&gt;Node6 -->
<g id="edge12" class="edge"><title>Node10&#45;&gt;Node6</title>
<path fill="none" stroke="midnightblue" d="M406.88,-112.368C398.412,-94.4563 378.778,-52.9233 367.445,-28.9482"/>
<polygon fill="midnightblue" stroke="midnightblue" points="370.46,-27.1363 363.022,-19.5914 364.131,-30.128 370.46,-27.1363"/>
</g>
<!-- Node10&#45;&gt;Node8 -->
<g id="edge11" class="edge"><title>Node10&#45;&gt;Node8</title>
<path fill="none" stroke="midnightblue" d="M430.767,-112.444C451.247,-103.596 483.443,-89.6875 506.825,-79.5865"/>
<polygon fill="midnightblue" stroke="midnightblue" points="508.454,-82.6953 516.246,-75.5164 505.678,-76.2692 508.454,-82.6953"/>
</g>
<!-- Node11&#45;&gt;Node6 -->
<g id="edge17" class="edge"><title>Node11&#45;&gt;Node6</title>
<path fill="none" stroke="midnightblue" d="M291.688,-112.368C303.735,-94.2153 331.883,-51.8015 347.685,-27.9902"/>
<polygon fill="midnightblue" stroke="midnightblue" points="350.645,-29.8589 353.259,-19.5914 344.813,-25.9882 350.645,-29.8589"/>
</g>
<!-- Node12 -->
<g id="node12" class="node"><title>Node12</title>
<g id="a_node12"><a xlink:href="ErrorContext_8hpp.html" target="_top" xlink:title="ErrorContext.hpp">
<polygon fill="white" stroke="black" points="28.9602,-56.5 28.9602,-75.5 126.96,-75.5 126.96,-56.5 28.9602,-56.5"/>
<text text-anchor="middle" x="77.9602" y="-63.5" font-family="Verdana" font-size="10.00">ErrorContext.hpp</text>
</a>
</g>
</g>
<!-- Node11&#45;&gt;Node12 -->
<g id="edge14" class="edge"><title>Node11&#45;&gt;Node12</title>
<path fill="none" stroke="midnightblue" d="M253.002,-112.444C217.173,-103.142 159.797,-88.246 120.57,-78.062"/>
<polygon fill="midnightblue" stroke="midnightblue" points="121.323,-74.6417 110.764,-75.5164 119.564,-81.4171 121.323,-74.6417"/>
</g>
<!-- Node12&#45;&gt;Node6 -->
<g id="edge15" class="edge"><title>Node12&#45;&gt;Node6</title>
<path fill="none" stroke="midnightblue" d="M122.486,-56.4435C179.41,-45.5043 276.596,-26.828 326.813,-17.1778"/>
<polygon fill="midnightblue" stroke="midnightblue" points="327.624,-20.586 336.784,-15.2616 326.303,-13.7117 327.624,-20.586"/>
</g>
<!-- Node13 -->
<g id="node13" class="node"><title>Node13</title>
<g id="a_node13"><a xlink:href="NonCopyable_8hpp.html" target="_top" xlink:title="NonCopyable.hpp">
<polygon fill="white" stroke="black" points="27.4602,-0.5 27.4602,-19.5 128.46,-19.5 128.46,-0.5 27.4602,-0.5"/>
<text text-anchor="middle" x="77.9602" y="-7.5" font-family="Verdana" font-size="10.00">NonCopyable.hpp</text>
</a>
</g>
</g>
<!-- Node12&#45;&gt;Node13 -->
<g id="edge16" class="edge"><title>Node12&#45;&gt;Node13</title>
<path fill="none" stroke="midnightblue" d="M77.9602,-56.083C77.9602,-49.0059 77.9602,-38.8611 77.9602,-29.9865"/>
<polygon fill="midnightblue" stroke="midnightblue" points="81.4603,-29.751 77.9602,-19.7511 74.4603,-29.7511 81.4603,-29.751"/>
</g>
<!-- Node14&#45;&gt;Node10 -->
<g id="edge19" class="edge"><title>Node14&#45;&gt;Node10</title>
<path fill="none" stroke="midnightblue" d="M396.767,-168.083C399.045,-160.849 402.332,-150.409 405.169,-141.397"/>
<polygon fill="midnightblue" stroke="midnightblue" points="408.541,-142.341 408.205,-131.751 401.864,-140.239 408.541,-142.341"/>
</g>
<!-- Node14&#45;&gt;Node11 -->
<g id="edge20" class="edge"><title>Node14&#45;&gt;Node11</title>
<path fill="none" stroke="midnightblue" d="M376.608,-168.324C359.288,-159.664 332.445,-146.242 312.458,-136.249"/>
<polygon fill="midnightblue" stroke="midnightblue" points="313.779,-132.996 303.269,-131.655 310.648,-139.257 313.779,-132.996"/>
</g>
<!-- Node15&#45;&gt;Node6 -->
<g id="edge23" class="edge"><title>Node15&#45;&gt;Node6</title>
<path fill="none" stroke="midnightblue" d="M493.032,-168.11C487.08,-155.127 474.977,-130.512 460.96,-112 435.462,-78.3231 399.013,-44.9645 377.293,-26.2663"/>
<polygon fill="midnightblue" stroke="midnightblue" points="379.369,-23.4371 369.482,-19.6286 374.836,-28.7713 379.369,-23.4371"/>
</g>
<!-- Node15&#45;&gt;Node7 -->
<g id="edge22" class="edge"><title>Node15&#45;&gt;Node7</title>
<path fill="none" stroke="midnightblue" d="M508.85,-168.324C520.11,-160.107 537.247,-147.602 550.669,-137.807"/>
<polygon fill="midnightblue" stroke="midnightblue" points="552.84,-140.556 558.855,-131.834 548.713,-134.901 552.84,-140.556"/>
</g>
<!-- Node15&#45;&gt;Node8 -->
<g id="edge24" class="edge"><title>Node15&#45;&gt;Node8</title>
<path fill="none" stroke="midnightblue" d="M500.02,-168.368C506.343,-150.537 520.965,-109.295 529.482,-85.2717"/>
<polygon fill="midnightblue" stroke="midnightblue" points="532.871,-86.1862 532.914,-75.5914 526.274,-83.847 532.871,-86.1862"/>
</g>
<!-- Node16&#45;&gt;Node6 -->
<g id="edge38" class="edge"><title>Node16&#45;&gt;Node6</title>
<path fill="none" stroke="midnightblue" d="M655.46,-392.313C677.96,-375.544 722.96,-336.338 722.96,-291 722.96,-291 722.96,-291 722.96,-121 722.96,-52.011 480.338,-22.3503 391.258,-13.7852"/>
<polygon fill="midnightblue" stroke="midnightblue" points="391.464,-10.2894 381.182,-12.8441 390.813,-17.259 391.464,-10.2894"/>
</g>
<!-- Node17 -->
<g id="node17" class="node"><title>Node17</title>
<g id="a_node17"><a xlink:href="InstanceConfigurableElement_8h.html" target="_top" xlink:title="InstanceConfigurableElement.h">
<polygon fill="white" stroke="black" points="498.96,-336.5 498.96,-355.5 664.96,-355.5 664.96,-336.5 498.96,-336.5"/>
<text text-anchor="middle" x="581.96" y="-343.5" font-family="Verdana" font-size="10.00">InstanceConfigurableElement.h</text>
</a>
</g>
</g>
<!-- Node16&#45;&gt;Node17 -->
<g id="edge28" class="edge"><title>Node16&#45;&gt;Node17</title>
<path fill="none" stroke="midnightblue" d="M633.16,-392.324C624.142,-384.341 610.554,-372.313 599.642,-362.653"/>
<polygon fill="midnightblue" stroke="midnightblue" points="601.747,-359.842 591.939,-355.834 597.107,-365.083 601.747,-359.842"/>
</g>
<!-- Node17&#45;&gt;Node3 -->
<g id="edge35" class="edge"><title>Node17&#45;&gt;Node3</title>
<path fill="none" stroke="midnightblue" d="M520.797,-336.444C445.931,-325.97 320.365,-308.404 249.27,-298.458"/>
<polygon fill="midnightblue" stroke="midnightblue" points="249.576,-294.967 239.188,-297.047 248.606,-301.899 249.576,-294.967"/>
</g>
<!-- Node17&#45;&gt;Node4 -->
<g id="edge29" class="edge"><title>Node17&#45;&gt;Node4</title>
<path fill="none" stroke="midnightblue" d="M552.779,-336.375C499.531,-320.322 383.394,-283.854 288.96,-244 251.673,-228.264 210.132,-206.536 184.519,-192.625"/>
<polygon fill="midnightblue" stroke="midnightblue" points="185.977,-189.434 175.524,-187.705 182.618,-195.575 185.977,-189.434"/>
</g>
<!-- Node17&#45;&gt;Node6 -->
<g id="edge37" class="edge"><title>Node17&#45;&gt;Node6</title>
<path fill="none" stroke="midnightblue" d="M599.901,-336.25C629.412,-320.453 684.96,-284.185 684.96,-235 684.96,-235 684.96,-235 684.96,-121 684.96,-59.4126 473.435,-25.6705 391.157,-14.8752"/>
<polygon fill="midnightblue" stroke="midnightblue" points="391.475,-11.3875 381.111,-13.5875 390.585,-18.3307 391.475,-11.3875"/>
</g>
<!-- Node18 -->
<g id="node18" class="node"><title>Node18</title>
<g id="a_node18"><a xlink:href="ConfigurableElement_8h.html" target="_top" xlink:title="ConfigurableElement.h">
<polygon fill="white" stroke="black" points="488.46,-280.5 488.46,-299.5 613.46,-299.5 613.46,-280.5 488.46,-280.5"/>
<text text-anchor="middle" x="550.96" y="-287.5" font-family="Verdana" font-size="10.00">ConfigurableElement.h</text>
</a>
</g>
</g>
<!-- Node17&#45;&gt;Node18 -->
<g id="edge30" class="edge"><title>Node17&#45;&gt;Node18</title>
<path fill="none" stroke="midnightblue" d="M576.841,-336.083C572.553,-328.613 566.302,-317.724 561.018,-308.52"/>
<polygon fill="midnightblue" stroke="midnightblue" points="563.998,-306.681 555.984,-299.751 557.927,-310.166 563.998,-306.681"/>
</g>
<!-- Node19 -->
<g id="node19" class="node"><title>Node19</title>
<polygon fill="white" stroke="#bfbfbf" points="626.96,-224.5 626.96,-243.5 656.96,-243.5 656.96,-224.5 626.96,-224.5"/>
<text text-anchor="middle" x="641.96" y="-231.5" font-family="Verdana" font-size="10.00">list</text>
</g>
<!-- Node17&#45;&gt;Node19 -->
<g id="edge36" class="edge"><title>Node17&#45;&gt;Node19</title>
<path fill="none" stroke="midnightblue" d="M591.842,-336.27C600.859,-327.812 613.963,-314.211 621.96,-300 630.103,-285.53 635.335,-267.344 638.397,-253.89"/>
<polygon fill="midnightblue" stroke="midnightblue" points="641.867,-254.391 640.474,-243.888 635.014,-252.967 641.867,-254.391"/>
</g>
<!-- Node18&#45;&gt;Node4 -->
<g id="edge31" class="edge"><title>Node18&#45;&gt;Node4</title>
<path fill="none" stroke="midnightblue" d="M507.154,-280.461C466.613,-272.236 404.808,-258.877 351.96,-244 321.742,-235.493 240.391,-207.274 193.854,-190.949"/>
<polygon fill="midnightblue" stroke="midnightblue" points="194.801,-187.572 184.206,-187.561 192.481,-194.177 194.801,-187.572"/>
</g>
<!-- Node18&#45;&gt;Node5 -->
<g id="edge32" class="edge"><title>Node18&#45;&gt;Node5</title>
<path fill="none" stroke="midnightblue" d="M526.083,-280.444C499.671,-271.359 457.745,-256.939 428.219,-246.783"/>
<polygon fill="midnightblue" stroke="midnightblue" points="429.316,-243.459 418.721,-243.516 427.039,-250.079 429.316,-243.459"/>
</g>
<!-- Node18&#45;&gt;Node7 -->
<g id="edge34" class="edge"><title>Node18&#45;&gt;Node7</title>
<path fill="none" stroke="midnightblue" d="M553.474,-280.456C558.411,-263.183 569.215,-222.793 572.96,-188 573.912,-179.162 573.158,-176.887 572.96,-168 572.769,-159.391 572.372,-149.863 571.982,-141.799"/>
<polygon fill="midnightblue" stroke="midnightblue" points="575.468,-141.429 571.457,-131.623 568.477,-141.79 575.468,-141.429"/>
</g>
<!-- Node18&#45;&gt;Node19 -->
<g id="edge33" class="edge"><title>Node18&#45;&gt;Node19</title>
<path fill="none" stroke="midnightblue" d="M565.581,-280.324C579.909,-271.822 601.973,-258.729 618.709,-248.797"/>
<polygon fill="midnightblue" stroke="midnightblue" points="620.562,-251.768 627.376,-243.655 616.99,-245.748 620.562,-251.768"/>
</g>
<!-- Node20&#45;&gt;Node6 -->
<g id="edge40" class="edge"><title>Node20&#45;&gt;Node6</title>
<path fill="none" stroke="midnightblue" d="M801.425,-280.413C788.511,-262.56 760.96,-219.704 760.96,-179 760.96,-179 760.96,-179 760.96,-121 760.96,-90.2048 761.14,-75.07 736.96,-56 683.697,-13.9934 472.793,-10.4199 391.318,-10.6527"/>
<polygon fill="midnightblue" stroke="midnightblue" points="391.135,-7.15344 381.153,-10.7039 391.17,-14.1534 391.135,-7.15344"/>
</g>
<!-- Node20&#45;&gt;Node19 -->
<g id="edge41" class="edge"><title>Node20&#45;&gt;Node19</title>
<path fill="none" stroke="midnightblue" d="M782.387,-280.681C751.01,-270.474 698.159,-253.281 667.019,-243.152"/>
<polygon fill="midnightblue" stroke="midnightblue" points="667.946,-239.773 657.354,-240.008 665.78,-246.429 667.946,-239.773"/>
</g>
<!-- Node21 -->
<g id="node21" class="node"><title>Node21</title>
<polygon fill="white" stroke="#bfbfbf" points="788.96,-224.5 788.96,-243.5 826.96,-243.5 826.96,-224.5 788.96,-224.5"/>
<text text-anchor="middle" x="807.96" y="-231.5" font-family="Verdana" font-size="10.00">map</text>
</g>
<!-- Node20&#45;&gt;Node21 -->
<g id="edge42" class="edge"><title>Node20&#45;&gt;Node21</title>
<path fill="none" stroke="midnightblue" d="M807.96,-280.083C807.96,-273.006 807.96,-262.861 807.96,-253.986"/>
<polygon fill="midnightblue" stroke="midnightblue" points="811.46,-253.751 807.96,-243.751 804.46,-253.751 811.46,-253.751"/>
</g>
<!-- Node22 -->
<g id="node22" class="node"><title>Node22</title>
<polygon fill="white" stroke="#bfbfbf" points="844.96,-224.5 844.96,-243.5 900.96,-243.5 900.96,-224.5 844.96,-224.5"/>
<text text-anchor="middle" x="872.96" y="-231.5" font-family="Verdana" font-size="10.00">sstream</text>
</g>
<!-- Node20&#45;&gt;Node22 -->
<g id="edge43" class="edge"><title>Node20&#45;&gt;Node22</title>
<path fill="none" stroke="midnightblue" d="M818.404,-280.324C828.106,-272.263 842.776,-260.077 854.46,-250.369"/>
<polygon fill="midnightblue" stroke="midnightblue" points="856.871,-252.916 862.327,-243.834 852.398,-247.532 856.871,-252.916"/>
</g>
<!-- Node23 -->
<g id="node23" class="node"><title>Node23</title>
<polygon fill="white" stroke="#bfbfbf" points="918.96,-224.5 918.96,-243.5 974.96,-243.5 974.96,-224.5 918.96,-224.5"/>
<text text-anchor="middle" x="946.96" y="-231.5" font-family="Verdana" font-size="10.00">numeric</text>
</g>
<!-- Node20&#45;&gt;Node23 -->
<g id="edge44" class="edge"><title>Node20&#45;&gt;Node23</title>
<path fill="none" stroke="midnightblue" d="M829.985,-280.444C853.064,-271.478 889.522,-257.314 915.601,-247.183"/>
<polygon fill="midnightblue" stroke="midnightblue" points="916.984,-250.4 925.038,-243.516 914.45,-243.875 916.984,-250.4"/>
</g>
<!-- Node24 -->
<g id="node24" class="node"><title>Node24</title>
<polygon fill="white" stroke="#bfbfbf" points="992.96,-224.5 992.96,-243.5 1060.96,-243.5 1060.96,-224.5 992.96,-224.5"/>
<text text-anchor="middle" x="1026.96" y="-231.5" font-family="Verdana" font-size="10.00">type_traits</text>
</g>
<!-- Node20&#45;&gt;Node24 -->
<g id="edge45" class="edge"><title>Node20&#45;&gt;Node24</title>
<path fill="none" stroke="midnightblue" d="M833.511,-282.7C870.12,-273.673 938.018,-256.931 982.846,-245.878"/>
<polygon fill="midnightblue" stroke="midnightblue" points="983.726,-249.265 992.598,-243.473 982.05,-242.469 983.726,-249.265"/>
</g>
</g>
</svg>
