<?xml version="1.0" encoding="UTF-8" standalone="no"?>
<!DOCTYPE svg PUBLIC "-//W3C//DTD SVG 1.1//EN"
 "http://www.w3.org/Graphics/SVG/1.1/DTD/svg11.dtd">
<!-- Generated by graphviz version 2.38.0 (20140413.2041)
 -->
<!-- Title: parameter/Parameter.cpp Pages: 1 -->
<svg width="1235pt" height="588pt"
 viewBox="0.00 0.00 1234.50 588.00" xmlns="http://www.w3.org/2000/svg" xmlns:xlink="http://www.w3.org/1999/xlink">
<g id="graph0" class="graph" transform="scale(1 1) rotate(0) translate(4 584)">
<title>parameter/Parameter.cpp</title>
<polygon fill="white" stroke="none" points="-4,4 -4,-584 1230.5,-584 1230.5,4 -4,4"/>
<!-- Node1 -->
<g id="node1" class="node"><title>Node1</title>
<polygon fill="#bfbfbf" stroke="black" points="820,-560.5 820,-579.5 960,-579.5 960,-560.5 820,-560.5"/>
<text text-anchor="middle" x="890" y="-567.5" font-family="Verdana" font-size="10.00">parameter/Parameter.cpp</text>
</g>
<!-- Node2 -->
<g id="node2" class="node"><title>Node2</title>
<g id="a_node2"><a xlink:href="Parameter_8h.html" target="_top" xlink:title="Parameter.h">
<polygon fill="white" stroke="black" points="562.5,-504.5 562.5,-523.5 637.5,-523.5 637.5,-504.5 562.5,-504.5"/>
<text text-anchor="middle" x="600" y="-511.5" font-family="Verdana" font-size="10.00">Parameter.h</text>
</a>
</g>
</g>
<!-- Node1&#45;&gt;Node2 -->
<g id="edge1" class="edge"><title>Node1&#45;&gt;Node2</title>
<path fill="none" stroke="midnightblue" d="M844.049,-560.444C790.484,-550.469 702.376,-534.063 647.963,-523.931"/>
<polygon fill="midnightblue" stroke="midnightblue" points="648.353,-520.444 637.881,-522.054 647.071,-527.325 648.353,-520.444"/>
</g>
<!-- Node21 -->
<g id="node21" class="node"><title>Node21</title>
<g id="a_node21"><a xlink:href="ParameterType_8h.html" target="_top" xlink:title="ParameterType.h">
<polygon fill="white" stroke="black" points="557.5,-336.5 557.5,-355.5 654.5,-355.5 654.5,-336.5 557.5,-336.5"/>
<text text-anchor="middle" x="606" y="-343.5" font-family="Verdana" font-size="10.00">ParameterType.h</text>
</a>
</g>
</g>
<!-- Node1&#45;&gt;Node21 -->
<g id="edge41" class="edge"><title>Node1&#45;&gt;Node21</title>
<path fill="none" stroke="midnightblue" d="M878.867,-560.297C835.831,-526.657 680.04,-404.877 625.234,-362.035"/>
<polygon fill="midnightblue" stroke="midnightblue" points="627.09,-359.044 617.056,-355.643 622.779,-364.559 627.09,-359.044"/>
</g>
<!-- Node23 -->
<g id="node23" class="node"><title>Node23</title>
<g id="a_node23"><a xlink:href="ParameterAccessContext_8h.html" target="_top" xlink:title="ParameterAccessContext.h">
<polygon fill="white" stroke="black" points="880.5,-112.5 880.5,-131.5 1027.5,-131.5 1027.5,-112.5 880.5,-112.5"/>
<text text-anchor="middle" x="954" y="-119.5" font-family="Verdana" font-size="10.00">ParameterAccessContext.h</text>
</a>
</g>
</g>
<!-- Node1&#45;&gt;Node23 -->
<g id="edge47" class="edge"><title>Node1&#45;&gt;Node23</title>
<path fill="none" stroke="midnightblue" d="M890,-560.442C890,-541.936 890,-496.812 890,-459 890,-459 890,-459 890,-233 890,-202.902 893.658,-193.894 909,-168 915.64,-156.793 925.71,-146.363 934.641,-138.372"/>
<polygon fill="midnightblue" stroke="midnightblue" points="937.051,-140.917 942.392,-131.767 932.51,-135.589 937.051,-140.917"/>
</g>
<!-- Node24 -->
<g id="node24" class="node"><title>Node24</title>
<g id="a_node24"><a xlink:href="ConfigurationAccessContext_8h.html" target="_top" xlink:title="ConfigurationAccessContext.h">
<polygon fill="white" stroke="black" points="918.5,-168.5 918.5,-187.5 1079.5,-187.5 1079.5,-168.5 918.5,-168.5"/>
<text text-anchor="middle" x="999" y="-175.5" font-family="Verdana" font-size="10.00">ConfigurationAccessContext.h</text>
</a>
</g>
</g>
<!-- Node1&#45;&gt;Node24 -->
<g id="edge51" class="edge"><title>Node1&#45;&gt;Node24</title>
<path fill="none" stroke="midnightblue" d="M901.087,-560.33C921.509,-543.293 963,-503.236 963,-459 963,-459 963,-459 963,-289 963,-254.982 978.744,-217.85 989.409,-196.6"/>
<polygon fill="midnightblue" stroke="midnightblue" points="992.62,-198.012 994.145,-187.527 986.415,-194.772 992.62,-198.012"/>
</g>
<!-- Node25 -->
<g id="node25" class="node"><title>Node25</title>
<g id="a_node25"><a xlink:href="ParameterBlackboard_8h.html" target="_top" xlink:title="ParameterBlackboard.h">
<polygon fill="white" stroke="black" points="1097.5,-168.5 1097.5,-187.5 1226.5,-187.5 1226.5,-168.5 1097.5,-168.5"/>
<text text-anchor="middle" x="1162" y="-175.5" font-family="Verdana" font-size="10.00">ParameterBlackboard.h</text>
</a>
</g>
</g>
<!-- Node1&#45;&gt;Node25 -->
<g id="edge54" class="edge"><title>Node1&#45;&gt;Node25</title>
<path fill="none" stroke="midnightblue" d="M960.175,-561.147C1020.89,-549.992 1099,-523.17 1099,-459 1099,-459 1099,-459 1099,-289 1099,-251.475 1126.95,-215.139 1145.61,-195.055"/>
<polygon fill="midnightblue" stroke="midnightblue" points="1148.27,-197.341 1152.7,-187.718 1143.24,-192.477 1148.27,-197.341"/>
</g>
<!-- Node3 -->
<g id="node3" class="node"><title>Node3</title>
<polygon fill="white" stroke="#bfbfbf" points="319.5,-56.5 319.5,-75.5 372.5,-75.5 372.5,-56.5 319.5,-56.5"/>
<text text-anchor="middle" x="346" y="-63.5" font-family="Verdana" font-size="10.00">stdint.h</text>
</g>
<!-- Node2&#45;&gt;Node3 -->
<g id="edge2" class="edge"><title>Node2&#45;&gt;Node3</title>
<path fill="none" stroke="midnightblue" d="M562.253,-513.655C436.246,-514.844 38,-510.126 38,-403 38,-403 38,-403 38,-177 38,-120.011 227.377,-84.7608 309.138,-72.1978"/>
<polygon fill="midnightblue" stroke="midnightblue" points="310.106,-75.5917 319.474,-70.6429 309.064,-68.6696 310.106,-75.5917"/>
</g>
<!-- Node4 -->
<g id="node4" class="node"><title>Node4</title>
<g id="a_node4"><a xlink:href="BaseParameter_8h.html" target="_top" xlink:title="BaseParameter.h">
<polygon fill="white" stroke="black" points="354.5,-448.5 354.5,-467.5 453.5,-467.5 453.5,-448.5 354.5,-448.5"/>
<text text-anchor="middle" x="404" y="-455.5" font-family="Verdana" font-size="10.00">BaseParameter.h</text>
</a>
</g>
</g>
<!-- Node2&#45;&gt;Node4 -->
<g id="edge3" class="edge"><title>Node2&#45;&gt;Node4</title>
<path fill="none" stroke="midnightblue" d="M568.943,-504.444C535.397,-495.201 481.803,-480.436 444.859,-470.257"/>
<polygon fill="midnightblue" stroke="midnightblue" points="445.482,-466.798 434.911,-467.516 443.623,-473.547 445.482,-466.798"/>
</g>
<!-- Node11 -->
<g id="node11" class="node"><title>Node11</title>
<polygon fill="white" stroke="#bfbfbf" points="688,-0.5 688,-19.5 732,-19.5 732,-0.5 688,-0.5"/>
<text text-anchor="middle" x="710" y="-7.5" font-family="Verdana" font-size="10.00">string</text>
</g>
<!-- Node2&#45;&gt;Node11 -->
<g id="edge40" class="edge"><title>Node2&#45;&gt;Node11</title>
<path fill="none" stroke="midnightblue" d="M637.727,-513.049C708.027,-510.948 852,-495.37 852,-403 852,-403 852,-403 852,-121 852,-65.6868 783.83,-34.2157 741.956,-20.1019"/>
<polygon fill="midnightblue" stroke="midnightblue" points="742.779,-16.6901 732.188,-16.9611 740.636,-23.3541 742.779,-16.6901"/>
</g>
<!-- Node4&#45;&gt;Node3 -->
<g id="edge4" class="edge"><title>Node4&#45;&gt;Node3</title>
<path fill="none" stroke="midnightblue" d="M354.298,-456.214C316.677,-452.992 266.158,-442.645 234,-412 158.395,-339.952 178.965,-291.209 163,-188 157.709,-153.794 155.161,-136.105 180,-112 214.618,-78.4055 271.652,-69.2907 309.024,-67.1378"/>
<polygon fill="midnightblue" stroke="midnightblue" points="309.636,-70.6147 319.476,-66.6869 309.334,-63.6212 309.636,-70.6147"/>
</g>
<!-- Node5 -->
<g id="node5" class="node"><title>Node5</title>
<polygon fill="white" stroke="#bfbfbf" points="738.5,-112.5 738.5,-131.5 785.5,-131.5 785.5,-112.5 738.5,-112.5"/>
<text text-anchor="middle" x="762" y="-119.5" font-family="Verdana" font-size="10.00">vector</text>
</g>
<!-- Node4&#45;&gt;Node5 -->
<g id="edge5" class="edge"><title>Node4&#45;&gt;Node5</title>
<path fill="none" stroke="midnightblue" d="M453.778,-452.206C552.147,-441.349 762,-410.72 762,-347 762,-347 762,-347 762,-233 762,-200.948 762,-163.643 762,-141.749"/>
<polygon fill="midnightblue" stroke="midnightblue" points="765.5,-141.558 762,-131.558 758.5,-141.558 765.5,-141.558"/>
</g>
<!-- Node6 -->
<g id="node6" class="node"><title>Node6</title>
<g id="a_node6"><a xlink:href="InstanceConfigurableElement_8h.html" target="_top" xlink:title="InstanceConfigurableElement.h">
<polygon fill="white" stroke="black" points="243,-392.5 243,-411.5 409,-411.5 409,-392.5 243,-392.5"/>
<text text-anchor="middle" x="326" y="-399.5" font-family="Verdana" font-size="10.00">InstanceConfigurableElement.h</text>
</a>
</g>
</g>
<!-- Node4&#45;&gt;Node6 -->
<g id="edge6" class="edge"><title>Node4&#45;&gt;Node6</title>
<path fill="none" stroke="midnightblue" d="M391.468,-448.324C379.414,-439.979 360.973,-427.212 346.731,-417.352"/>
<polygon fill="midnightblue" stroke="midnightblue" points="348.715,-414.469 338.501,-411.655 344.731,-420.224 348.715,-414.469"/>
</g>
<!-- Node7 -->
<g id="node7" class="node"><title>Node7</title>
<polygon fill="white" stroke="#bfbfbf" points="180.5,-168.5 180.5,-187.5 293.5,-187.5 293.5,-168.5 180.5,-168.5"/>
<text text-anchor="middle" x="237" y="-175.5" font-family="Verdana" font-size="10.00">parameter_export.h</text>
</g>
<!-- Node6&#45;&gt;Node7 -->
<g id="edge7" class="edge"><title>Node6&#45;&gt;Node7</title>
<path fill="none" stroke="midnightblue" d="M312.078,-392.423C300.347,-384.449 284.068,-371.489 275,-356 244.887,-304.564 238.535,-232.203 237.266,-198.145"/>
<polygon fill="midnightblue" stroke="midnightblue" points="240.756,-197.699 236.998,-187.793 233.758,-197.88 240.756,-197.699"/>
</g>
<!-- Node8 -->
<g id="node8" class="node"><title>Node8</title>
<g id="a_node8"><a xlink:href="ConfigurableElementWithMapping_8h.html" target="_top" xlink:title="ConfigurableElementWithMapping.h">
<polygon fill="white" stroke="black" points="294,-336.5 294,-355.5 480,-355.5 480,-336.5 294,-336.5"/>
<text text-anchor="middle" x="387" y="-343.5" font-family="Verdana" font-size="10.00">ConfigurableElementWithMapping.h</text>
</a>
</g>
</g>
<!-- Node6&#45;&gt;Node8 -->
<g id="edge8" class="edge"><title>Node6&#45;&gt;Node8</title>
<path fill="none" stroke="midnightblue" d="M335.801,-392.324C344.818,-384.341 358.406,-372.313 369.318,-362.653"/>
<polygon fill="midnightblue" stroke="midnightblue" points="371.853,-365.083 377.021,-355.834 367.213,-359.842 371.853,-365.083"/>
</g>
<!-- Node6&#45;&gt;Node11 -->
<g id="edge39" class="edge"><title>Node6&#45;&gt;Node11</title>
<path fill="none" stroke="midnightblue" d="M281.695,-392.479C192.56,-372.492 0,-313.723 0,-179 0,-179 0,-179 0,-121 0,-42.1816 88.2361,-73.8788 165,-56 355.646,-11.5974 592.723,-9.52833 677.775,-10.4046"/>
<polygon fill="midnightblue" stroke="midnightblue" points="677.795,-13.905 687.838,-10.5301 677.882,-6.90557 677.795,-13.905"/>
</g>
<!-- Node19 -->
<g id="node19" class="node"><title>Node19</title>
<polygon fill="white" stroke="#bfbfbf" points="261,-224.5 261,-243.5 291,-243.5 291,-224.5 261,-224.5"/>
<text text-anchor="middle" x="276" y="-231.5" font-family="Verdana" font-size="10.00">list</text>
</g>
<!-- Node6&#45;&gt;Node19 -->
<g id="edge38" class="edge"><title>Node6&#45;&gt;Node19</title>
<path fill="none" stroke="midnightblue" d="M314.726,-392.381C304.966,-384.197 291.437,-370.949 285,-356 270.473,-322.261 271.561,-278.342 273.731,-253.766"/>
<polygon fill="midnightblue" stroke="midnightblue" points="277.229,-253.973 274.786,-243.663 270.267,-253.246 277.229,-253.973"/>
</g>
<!-- Node20 -->
<g id="node20" class="node"><title>Node20</title>
<g id="a_node20"><a xlink:href="TypeElement_8h.html" target="_top" xlink:title="TypeElement.h">
<polygon fill="white" stroke="black" points="483,-280.5 483,-299.5 569,-299.5 569,-280.5 483,-280.5"/>
<text text-anchor="middle" x="526" y="-287.5" font-family="Verdana" font-size="10.00">TypeElement.h</text>
</a>
</g>
</g>
<!-- Node6&#45;&gt;Node20 -->
<g id="edge34" class="edge"><title>Node6&#45;&gt;Node20</title>
<path fill="none" stroke="midnightblue" d="M403.011,-392.441C432.275,-386.112 464.442,-375.112 489,-356 504.337,-344.064 514.388,-323.866 520.091,-309.148"/>
<polygon fill="midnightblue" stroke="midnightblue" points="523.435,-310.19 523.489,-299.595 516.84,-307.844 523.435,-310.19"/>
</g>
<!-- Node9 -->
<g id="node9" class="node"><title>Node9</title>
<g id="a_node9"><a xlink:href="ConfigurableElement_8h.html" target="_top" xlink:title="ConfigurableElement.h">
<polygon fill="white" stroke="black" points="294.5,-280.5 294.5,-299.5 419.5,-299.5 419.5,-280.5 294.5,-280.5"/>
<text text-anchor="middle" x="357" y="-287.5" font-family="Verdana" font-size="10.00">ConfigurableElement.h</text>
</a>
</g>
</g>
<!-- Node8&#45;&gt;Node9 -->
<g id="edge9" class="edge"><title>Node8&#45;&gt;Node9</title>
<path fill="none" stroke="midnightblue" d="M382.046,-336.083C377.896,-328.613 371.847,-317.724 366.733,-308.52"/>
<polygon fill="midnightblue" stroke="midnightblue" points="369.778,-306.793 361.862,-299.751 363.659,-310.192 369.778,-306.793"/>
</g>
<!-- Node8&#45;&gt;Node11 -->
<g id="edge33" class="edge"><title>Node8&#45;&gt;Node11</title>
<path fill="none" stroke="midnightblue" d="M304.474,-336.483C212.339,-321.878 76,-282.739 76,-179 76,-179 76,-179 76,-121 76,-59.268 548.646,-22.1328 677.752,-13.1406"/>
<polygon fill="midnightblue" stroke="midnightblue" points="678.071,-16.627 687.807,-12.449 677.591,-9.64349 678.071,-16.627"/>
</g>
<!-- Node9&#45;&gt;Node7 -->
<g id="edge10" class="edge"><title>Node9&#45;&gt;Node7</title>
<path fill="none" stroke="midnightblue" d="M350.542,-280.441C340.519,-267.45 320.254,-242.33 300,-224 287.409,-212.606 271.903,-201.498 259.424,-193.169"/>
<polygon fill="midnightblue" stroke="midnightblue" points="261.243,-190.177 250.958,-187.631 257.411,-196.035 261.243,-190.177"/>
</g>
<!-- Node10 -->
<g id="node10" class="node"><title>Node10</title>
<g id="a_node10"><a xlink:href="Element_8h.html" target="_top" xlink:title="Element.h">
<polygon fill="white" stroke="black" points="497.5,-224.5 497.5,-243.5 562.5,-243.5 562.5,-224.5 497.5,-224.5"/>
<text text-anchor="middle" x="530" y="-231.5" font-family="Verdana" font-size="10.00">Element.h</text>
</a>
</g>
</g>
<!-- Node9&#45;&gt;Node10 -->
<g id="edge11" class="edge"><title>Node9&#45;&gt;Node10</title>
<path fill="none" stroke="midnightblue" d="M384.412,-280.444C413.769,-271.28 460.519,-256.688 493.096,-246.519"/>
<polygon fill="midnightblue" stroke="midnightblue" points="494.213,-249.837 502.716,-243.516 492.127,-243.155 494.213,-249.837"/>
</g>
<!-- Node9&#45;&gt;Node19 -->
<g id="edge32" class="edge"><title>Node9&#45;&gt;Node19</title>
<path fill="none" stroke="midnightblue" d="M343.986,-280.324C331.468,-271.979 312.318,-259.212 297.529,-249.352"/>
<polygon fill="midnightblue" stroke="midnightblue" points="299.244,-246.289 288.982,-243.655 295.361,-252.114 299.244,-246.289"/>
</g>
<!-- Node10&#45;&gt;Node3 -->
<g id="edge15" class="edge"><title>Node10&#45;&gt;Node3</title>
<path fill="none" stroke="midnightblue" d="M497.206,-227.08C457.952,-219.357 395.439,-204.828 379,-188 351.829,-160.186 346.507,-112.299 345.774,-85.8769"/>
<polygon fill="midnightblue" stroke="midnightblue" points="349.272,-85.6638 345.693,-75.6917 342.272,-85.7189 349.272,-85.6638"/>
</g>
<!-- Node10&#45;&gt;Node5 -->
<g id="edge14" class="edge"><title>Node10&#45;&gt;Node5</title>
<path fill="none" stroke="midnightblue" d="M562.567,-225.096C590.98,-217.554 632.881,-204.85 667,-188 695.462,-173.944 725.179,-152.306 743.635,-137.907"/>
<polygon fill="midnightblue" stroke="midnightblue" points="745.843,-140.623 751.507,-131.669 741.496,-135.136 745.843,-140.623"/>
</g>
<!-- Node10&#45;&gt;Node7 -->
<g id="edge12" class="edge"><title>Node10&#45;&gt;Node7</title>
<path fill="none" stroke="midnightblue" d="M497.391,-226.719C492.567,-225.801 487.655,-224.871 483,-224 418.321,-211.892 344.004,-198.348 294.13,-189.312"/>
<polygon fill="midnightblue" stroke="midnightblue" points="294.645,-185.849 284.181,-187.511 293.398,-192.737 294.645,-185.849"/>
</g>
<!-- Node10&#45;&gt;Node11 -->
<g id="edge13" class="edge"><title>Node10&#45;&gt;Node11</title>
<path fill="none" stroke="midnightblue" d="M497.148,-227.681C454.042,-220.135 381.462,-205.3 361,-188 312.972,-147.393 268.087,-102.892 310,-56 334.389,-28.7129 586.708,-15.9512 677.596,-12.2145"/>
<polygon fill="midnightblue" stroke="midnightblue" points="678.002,-15.7011 687.854,-11.8032 677.722,-8.70675 678.002,-15.7011"/>
</g>
<!-- Node12 -->
<g id="node12" class="node"><title>Node12</title>
<g id="a_node12"><a xlink:href="XmlSink_8h.html" target="_top" xlink:title="XmlSink.h">
<polygon fill="white" stroke="black" points="594,-168.5 594,-187.5 658,-187.5 658,-168.5 594,-168.5"/>
<text text-anchor="middle" x="626" y="-175.5" font-family="Verdana" font-size="10.00">XmlSink.h</text>
</a>
</g>
</g>
<!-- Node10&#45;&gt;Node12 -->
<g id="edge16" class="edge"><title>Node10&#45;&gt;Node12</title>
<path fill="none" stroke="midnightblue" d="M545.424,-224.324C560.54,-215.822 583.815,-202.729 601.471,-192.797"/>
<polygon fill="midnightblue" stroke="midnightblue" points="603.614,-195.608 610.614,-187.655 600.183,-189.507 603.614,-195.608"/>
</g>
<!-- Node17 -->
<g id="node17" class="node"><title>Node17</title>
<g id="a_node17"><a xlink:href="XmlSource_8h.html" target="_top" xlink:title="XmlSource.h">
<polygon fill="white" stroke="black" points="498.5,-168.5 498.5,-187.5 575.5,-187.5 575.5,-168.5 498.5,-168.5"/>
<text text-anchor="middle" x="537" y="-175.5" font-family="Verdana" font-size="10.00">XmlSource.h</text>
</a>
</g>
</g>
<!-- Node10&#45;&gt;Node17 -->
<g id="edge25" class="edge"><title>Node10&#45;&gt;Node17</title>
<path fill="none" stroke="midnightblue" d="M531.156,-224.083C532.084,-216.927 533.418,-206.635 534.577,-197.691"/>
<polygon fill="midnightblue" stroke="midnightblue" points="538.051,-198.118 535.866,-187.751 531.109,-197.218 538.051,-198.118"/>
</g>
<!-- Node18 -->
<g id="node18" class="node"><title>Node18</title>
<g id="a_node18"><a xlink:href="PathNavigator_8h.html" target="_top" xlink:title="PathNavigator.h">
<polygon fill="white" stroke="black" points="388,-168.5 388,-187.5 480,-187.5 480,-168.5 388,-168.5"/>
<text text-anchor="middle" x="434" y="-175.5" font-family="Verdana" font-size="10.00">PathNavigator.h</text>
</a>
</g>
</g>
<!-- Node10&#45;&gt;Node18 -->
<g id="edge28" class="edge"><title>Node10&#45;&gt;Node18</title>
<path fill="none" stroke="midnightblue" d="M514.576,-224.324C499.46,-215.822 476.185,-202.729 458.529,-192.797"/>
<polygon fill="midnightblue" stroke="midnightblue" points="459.817,-189.507 449.386,-187.655 456.386,-195.608 459.817,-189.507"/>
</g>
<!-- Node13 -->
<g id="node13" class="node"><title>Node13</title>
<g id="a_node13"><a xlink:href="XmlElement_8h.html" target="_top" xlink:title="XmlElement.h">
<polygon fill="white" stroke="black" points="450.5,-112.5 450.5,-131.5 533.5,-131.5 533.5,-112.5 450.5,-112.5"/>
<text text-anchor="middle" x="492" y="-119.5" font-family="Verdana" font-size="10.00">XmlElement.h</text>
</a>
</g>
</g>
<!-- Node12&#45;&gt;Node13 -->
<g id="edge17" class="edge"><title>Node12&#45;&gt;Node13</title>
<path fill="none" stroke="midnightblue" d="M604.767,-168.444C582.616,-159.517 547.681,-145.439 522.564,-135.317"/>
<polygon fill="midnightblue" stroke="midnightblue" points="523.717,-132.008 513.133,-131.516 521.1,-138.501 523.717,-132.008"/>
</g>
<!-- Node14 -->
<g id="node14" class="node"><title>Node14</title>
<g id="a_node14"><a xlink:href="XmlSerializingContext_8h.html" target="_top" xlink:title="XmlSerializingContext.h">
<polygon fill="white" stroke="black" points="552,-112.5 552,-131.5 682,-131.5 682,-112.5 552,-112.5"/>
<text text-anchor="middle" x="617" y="-119.5" font-family="Verdana" font-size="10.00">XmlSerializingContext.h</text>
</a>
</g>
</g>
<!-- Node12&#45;&gt;Node14 -->
<g id="edge20" class="edge"><title>Node12&#45;&gt;Node14</title>
<path fill="none" stroke="midnightblue" d="M624.514,-168.083C623.321,-160.927 621.606,-150.635 620.115,-141.691"/>
<polygon fill="midnightblue" stroke="midnightblue" points="623.555,-141.04 618.459,-131.751 616.65,-142.19 623.555,-141.04"/>
</g>
<!-- Node13&#45;&gt;Node3 -->
<g id="edge18" class="edge"><title>Node13&#45;&gt;Node3</title>
<path fill="none" stroke="midnightblue" d="M468.866,-112.444C444.518,-103.438 405.993,-89.1891 378.577,-79.049"/>
<polygon fill="midnightblue" stroke="midnightblue" points="379.619,-75.7028 369.026,-75.5164 377.191,-82.2681 379.619,-75.7028"/>
</g>
<!-- Node13&#45;&gt;Node11 -->
<g id="edge19" class="edge"><title>Node13&#45;&gt;Node11</title>
<path fill="none" stroke="midnightblue" d="M509.106,-112.368C547.072,-93.2113 638.584,-47.0355 683.806,-24.2172"/>
<polygon fill="midnightblue" stroke="midnightblue" points="685.622,-27.2211 692.973,-19.5914 682.469,-20.9716 685.622,-27.2211"/>
</g>
<!-- Node14&#45;&gt;Node11 -->
<g id="edge24" class="edge"><title>Node14&#45;&gt;Node11</title>
<path fill="none" stroke="midnightblue" d="M624.298,-112.368C639.781,-94.0547 676.14,-51.0489 696.166,-27.3624"/>
<polygon fill="midnightblue" stroke="midnightblue" points="698.953,-29.4877 702.736,-19.5914 693.607,-24.9682 698.953,-29.4877"/>
</g>
<!-- Node15 -->
<g id="node15" class="node"><title>Node15</title>
<g id="a_node15"><a xlink:href="ErrorContext_8hpp.html" target="_top" xlink:title="ErrorContext.hpp">
<polygon fill="white" stroke="black" points="918,-56.5 918,-75.5 1016,-75.5 1016,-56.5 918,-56.5"/>
<text text-anchor="middle" x="967" y="-63.5" font-family="Verdana" font-size="10.00">ErrorContext.hpp</text>
</a>
</g>
</g>
<!-- Node14&#45;&gt;Node15 -->
<g id="edge21" class="edge"><title>Node14&#45;&gt;Node15</title>
<path fill="none" stroke="midnightblue" d="M672.459,-112.444C736.588,-102.549 841.744,-86.3252 907.529,-76.1755"/>
<polygon fill="midnightblue" stroke="midnightblue" points="908.387,-79.5846 917.737,-74.6006 907.32,-72.6664 908.387,-79.5846"/>
</g>
<!-- Node15&#45;&gt;Node11 -->
<g id="edge22" class="edge"><title>Node15&#45;&gt;Node11</title>
<path fill="none" stroke="midnightblue" d="M926.278,-56.4435C875.222,-45.716 788.755,-27.5478 742.115,-17.748"/>
<polygon fill="midnightblue" stroke="midnightblue" points="742.755,-14.3061 732.249,-15.6749 741.316,-21.1565 742.755,-14.3061"/>
</g>
<!-- Node16 -->
<g id="node16" class="node"><title>Node16</title>
<g id="a_node16"><a xlink:href="NonCopyable_8hpp.html" target="_top" xlink:title="NonCopyable.hpp">
<polygon fill="white" stroke="black" points="998.5,-0.5 998.5,-19.5 1099.5,-19.5 1099.5,-0.5 998.5,-0.5"/>
<text text-anchor="middle" x="1049" y="-7.5" font-family="Verdana" font-size="10.00">NonCopyable.hpp</text>
</a>
</g>
</g>
<!-- Node15&#45;&gt;Node16 -->
<g id="edge23" class="edge"><title>Node15&#45;&gt;Node16</title>
<path fill="none" stroke="midnightblue" d="M980.175,-56.324C992.847,-47.979 1012.23,-35.2122 1027.21,-25.3524"/>
<polygon fill="midnightblue" stroke="midnightblue" points="1029.43,-28.0776 1035.86,-19.6545 1025.58,-22.2313 1029.43,-28.0776"/>
</g>
<!-- Node17&#45;&gt;Node13 -->
<g id="edge26" class="edge"><title>Node17&#45;&gt;Node13</title>
<path fill="none" stroke="midnightblue" d="M529.569,-168.083C523.147,-160.377 513.694,-149.033 505.878,-139.653"/>
<polygon fill="midnightblue" stroke="midnightblue" points="508.383,-137.193 499.293,-131.751 503.006,-141.674 508.383,-137.193"/>
</g>
<!-- Node17&#45;&gt;Node14 -->
<g id="edge27" class="edge"><title>Node17&#45;&gt;Node14</title>
<path fill="none" stroke="midnightblue" d="M549.853,-168.324C562.216,-159.979 581.13,-147.212 595.737,-137.352"/>
<polygon fill="midnightblue" stroke="midnightblue" points="597.848,-140.15 604.179,-131.655 593.932,-134.348 597.848,-140.15"/>
</g>
<!-- Node18&#45;&gt;Node3 -->
<g id="edge31" class="edge"><title>Node18&#45;&gt;Node3</title>
<path fill="none" stroke="midnightblue" d="M427.095,-168.368C412.508,-150.135 378.341,-107.426 359.34,-83.6752"/>
<polygon fill="midnightblue" stroke="midnightblue" points="361.853,-81.2137 352.873,-75.5914 356.387,-85.5866 361.853,-81.2137"/>
</g>
<!-- Node18&#45;&gt;Node5 -->
<g id="edge29" class="edge"><title>Node18&#45;&gt;Node5</title>
<path fill="none" stroke="midnightblue" d="M480.299,-169.378C547.267,-158.352 669.575,-138.216 728.505,-128.514"/>
<polygon fill="midnightblue" stroke="midnightblue" points="729.11,-131.962 738.409,-126.884 727.973,-125.055 729.11,-131.962"/>
</g>
<!-- Node18&#45;&gt;Node11 -->
<g id="edge30" class="edge"><title>Node18&#45;&gt;Node11</title>
<path fill="none" stroke="midnightblue" d="M432.37,-168.428C430.321,-154.966 428.444,-128.688 441,-112 498.174,-36.0087 619.365,-17.1864 677.526,-12.5287"/>
<polygon fill="midnightblue" stroke="midnightblue" points="677.895,-16.0115 687.623,-11.8133 677.4,-9.02896 677.895,-16.0115"/>
</g>
<!-- Node20&#45;&gt;Node7 -->
<g id="edge35" class="edge"><title>Node20&#45;&gt;Node7</title>
<path fill="none" stroke="midnightblue" d="M517.934,-280.314C504.316,-266.202 475.276,-238.426 445,-224 419.672,-211.932 351.189,-198.345 299.669,-189.288"/>
<polygon fill="midnightblue" stroke="midnightblue" points="300.061,-185.804 289.609,-187.539 298.862,-192.7 300.061,-185.804"/>
</g>
<!-- Node20&#45;&gt;Node10 -->
<g id="edge36" class="edge"><title>Node20&#45;&gt;Node10</title>
<path fill="none" stroke="midnightblue" d="M526.661,-280.083C527.185,-273.006 527.936,-262.861 528.594,-253.986"/>
<polygon fill="midnightblue" stroke="midnightblue" points="532.103,-253.982 529.352,-243.751 525.123,-253.465 532.103,-253.982"/>
</g>
<!-- Node20&#45;&gt;Node11 -->
<g id="edge37" class="edge"><title>Node20&#45;&gt;Node11</title>
<path fill="none" stroke="midnightblue" d="M543.991,-280.267C573.378,-265.19 631.912,-231.653 667,-188 704.913,-140.832 710.172,-65.2757 710.411,-30.1304"/>
<polygon fill="midnightblue" stroke="midnightblue" points="713.909,-29.8355 710.34,-19.8602 706.91,-29.8843 713.909,-29.8355"/>
</g>
<!-- Node21&#45;&gt;Node3 -->
<g id="edge43" class="edge"><title>Node21&#45;&gt;Node3</title>
<path fill="none" stroke="midnightblue" d="M557.444,-339.89C473.749,-330.831 308.945,-311.801 285,-300 221.29,-268.6 198.471,-253.5 171,-188 144.248,-124.215 250.267,-89.0029 309.134,-74.6911"/>
<polygon fill="midnightblue" stroke="midnightblue" points="310.249,-78.0247 319.188,-72.3376 308.654,-71.209 310.249,-78.0247"/>
</g>
<!-- Node21&#45;&gt;Node7 -->
<g id="edge42" class="edge"><title>Node21&#45;&gt;Node7</title>
<path fill="none" stroke="midnightblue" d="M576.973,-336.423C549.926,-328.123 508.673,-314.672 474,-300 463.244,-295.449 321.569,-222.572 262.541,-192.164"/>
<polygon fill="midnightblue" stroke="midnightblue" points="263.981,-188.969 253.488,-187.5 260.775,-195.192 263.981,-188.969"/>
</g>
<!-- Node21&#45;&gt;Node11 -->
<g id="edge46" class="edge"><title>Node21&#45;&gt;Node11</title>
<path fill="none" stroke="midnightblue" d="M654.504,-340.514C715.967,-331.856 814,-306.794 814,-235 814,-235 814,-235 814,-121 814,-76.2232 767.936,-42.3249 737.121,-24.658"/>
<polygon fill="midnightblue" stroke="midnightblue" points="738.564,-21.457 728.115,-19.7022 735.189,-27.5898 738.564,-21.457"/>
</g>
<!-- Node21&#45;&gt;Node20 -->
<g id="edge45" class="edge"><title>Node21&#45;&gt;Node20</title>
<path fill="none" stroke="midnightblue" d="M593.147,-336.324C580.784,-327.979 561.87,-315.212 547.263,-305.352"/>
<polygon fill="midnightblue" stroke="midnightblue" points="549.068,-302.348 538.821,-299.655 545.152,-308.15 549.068,-302.348"/>
</g>
<!-- Node22 -->
<g id="node22" class="node"><title>Node22</title>
<polygon fill="white" stroke="#bfbfbf" points="587,-280.5 587,-299.5 629,-299.5 629,-280.5 587,-280.5"/>
<text text-anchor="middle" x="608" y="-287.5" font-family="Verdana" font-size="10.00">limits</text>
</g>
<!-- Node21&#45;&gt;Node22 -->
<g id="edge44" class="edge"><title>Node21&#45;&gt;Node22</title>
<path fill="none" stroke="midnightblue" d="M606.33,-336.083C606.592,-329.006 606.968,-318.861 607.297,-309.986"/>
<polygon fill="midnightblue" stroke="midnightblue" points="610.803,-309.874 607.676,-299.751 603.808,-309.615 610.803,-309.874"/>
</g>
<!-- Node23&#45;&gt;Node3 -->
<g id="edge48" class="edge"><title>Node23&#45;&gt;Node3</title>
<path fill="none" stroke="midnightblue" d="M880.358,-114.459C749.343,-102.823 480.357,-78.933 382.567,-70.2477"/>
<polygon fill="midnightblue" stroke="midnightblue" points="382.844,-66.7587 372.574,-69.3602 382.225,-73.7312 382.844,-66.7587"/>
</g>
<!-- Node23&#45;&gt;Node11 -->
<g id="edge50" class="edge"><title>Node23&#45;&gt;Node11</title>
<path fill="none" stroke="midnightblue" d="M944.469,-112.138C929.089,-98.2802 897.338,-71.4686 866,-56 825.402,-35.961 774.339,-23.3533 741.923,-16.7403"/>
<polygon fill="midnightblue" stroke="midnightblue" points="742.579,-13.3023 732.091,-14.802 741.225,-20.1701 742.579,-13.3023"/>
</g>
<!-- Node23&#45;&gt;Node15 -->
<g id="edge49" class="edge"><title>Node23&#45;&gt;Node15</title>
<path fill="none" stroke="midnightblue" d="M956.147,-112.083C957.869,-104.927 960.347,-94.6353 962.5,-85.6911"/>
<polygon fill="midnightblue" stroke="midnightblue" points="965.955,-86.2925 964.893,-75.7511 959.15,-84.6541 965.955,-86.2925"/>
</g>
<!-- Node24&#45;&gt;Node11 -->
<g id="edge53" class="edge"><title>Node24&#45;&gt;Node11</title>
<path fill="none" stroke="midnightblue" d="M1009.44,-168.245C1018.42,-159.969 1030.75,-146.663 1036,-132 1043.56,-110.915 1030.18,-60.9163 1025,-56 984.89,-17.9253 814.834,-11.8815 742.633,-11.0554"/>
<polygon fill="midnightblue" stroke="midnightblue" points="742.349,-7.55286 732.319,-10.9658 742.288,-14.5526 742.349,-7.55286"/>
</g>
<!-- Node24&#45;&gt;Node23 -->
<g id="edge52" class="edge"><title>Node24&#45;&gt;Node23</title>
<path fill="none" stroke="midnightblue" d="M991.569,-168.083C985.147,-160.377 975.694,-149.033 967.878,-139.653"/>
<polygon fill="midnightblue" stroke="midnightblue" points="970.383,-137.193 961.293,-131.751 965.006,-141.674 970.383,-137.193"/>
</g>
<!-- Node25&#45;&gt;Node5 -->
<g id="edge58" class="edge"><title>Node25&#45;&gt;Node5</title>
<path fill="none" stroke="midnightblue" d="M1098.62,-168.444C1012.68,-156.841 862.265,-136.536 795.529,-127.526"/>
<polygon fill="midnightblue" stroke="midnightblue" points="795.938,-124.05 785.56,-126.181 795.001,-130.987 795.938,-124.05"/>
</g>
<!-- Node25&#45;&gt;Node11 -->
<g id="edge57" class="edge"><title>Node25&#45;&gt;Node11</title>
<path fill="none" stroke="midnightblue" d="M1156.58,-168.398C1141.68,-145.562 1097.54,-83.2963 1043,-56 990.649,-29.7997 815.715,-17.0224 742.577,-12.7247"/>
<polygon fill="midnightblue" stroke="midnightblue" points="742.332,-9.20506 732.149,-12.1292 741.933,-16.1937 742.332,-9.20506"/>
</g>
<!-- Node25&#45;&gt;Node16 -->
<g id="edge55" class="edge"><title>Node25&#45;&gt;Node16</title>
<path fill="none" stroke="midnightblue" d="M1159.74,-168.297C1153.95,-147.247 1136.98,-92.6179 1108,-56 1098.32,-43.7644 1084.59,-33.0333 1072.81,-25.1221"/>
<polygon fill="midnightblue" stroke="midnightblue" points="1074.59,-22.1044 1064.28,-19.6438 1070.81,-27.9937 1074.59,-22.1044"/>
</g>
<!-- Node26 -->
<g id="node26" class="node"><title>Node26</title>
<polygon fill="white" stroke="#bfbfbf" points="1160.5,-112.5 1160.5,-131.5 1209.5,-131.5 1209.5,-112.5 1160.5,-112.5"/>
<text text-anchor="middle" x="1185" y="-119.5" font-family="Verdana" font-size="10.00">cstdint</text>
</g>
<!-- Node25&#45;&gt;Node26 -->
<g id="edge56" class="edge"><title>Node25&#45;&gt;Node26</title>
<path fill="none" stroke="midnightblue" d="M1165.8,-168.083C1168.91,-160.77 1173.42,-150.181 1177.29,-141.103"/>
<polygon fill="midnightblue" stroke="midnightblue" points="1180.57,-142.323 1181.27,-131.751 1174.13,-139.58 1180.57,-142.323"/>
</g>
</g>
</svg>
