<?xml version="1.0" encoding="UTF-8" standalone="no"?>
<!DOCTYPE svg PUBLIC "-//W3C//DTD SVG 1.1//EN"
 "http://www.w3.org/Graphics/SVG/1.1/DTD/svg11.dtd">
<!-- Generated by graphviz version 2.38.0 (20140413.2041)
 -->
<!-- Title: pfwSetIntParameter Pages: 1 -->
<svg width="456pt" height="116pt"
 viewBox="0.00 0.00 456.00 116.00" xmlns="http://www.w3.org/2000/svg" xmlns:xlink="http://www.w3.org/1999/xlink">
<g id="graph0" class="graph" transform="scale(1 1) rotate(0) translate(4 112)">
<title>pfwSetIntParameter</title>
<polygon fill="white" stroke="none" points="-4,4 -4,-112 452,-112 452,4 -4,4"/>
<!-- Node1 -->
<g id="node1" class="node"><title>Node1</title>
<polygon fill="#bfbfbf" stroke="black" points="0,-44.5 0,-63.5 111,-63.5 111,-44.5 0,-44.5"/>
<text text-anchor="middle" x="55.5" y="-51.5" font-family="Verdana" font-size="10.00">pfwSetIntParameter</text>
</g>
<!-- Node2 -->
<g id="node2" class="node"><title>Node2</title>
<g id="a_node2"><a xlink:href="classStatus.html#aa1a645f1b88f85f21594b4654aeced14" target="_top" xlink:title="Forward a status operation. ">
<polygon fill="white" stroke="black" points="189,-88.5 189,-107.5 278,-107.5 278,-88.5 189,-88.5"/>
<text text-anchor="middle" x="233.5" y="-95.5" font-family="Verdana" font-size="10.00">Status::forward</text>
</a>
</g>
</g>
<!-- Node1&#45;&gt;Node2 -->
<g id="edge1" class="edge"><title>Node1&#45;&gt;Node2</title>
<path fill="none" stroke="midnightblue" d="M89.4913,-63.5476C106.597,-68.3875 127.861,-74.2333 147,-79 157.287,-81.5621 168.312,-84.1379 178.911,-86.5299"/>
<polygon fill="midnightblue" stroke="midnightblue" points="178.381,-89.9977 188.904,-88.7605 179.906,-83.1659 178.381,-89.9977"/>
</g>
<!-- Node4 -->
<g id="node4" class="node"><title>Node4</title>
<g id="a_node4"><a xlink:href="classCParameterHandle.html#aca2f7f29237c1cef42fe6b9c2edaf0d3" target="_top" xlink:title="CParameterHandle::setAsSigned\lInteger">
<polygon fill="white" stroke="black" points="147,-39 147,-69 320,-69 320,-39 147,-39"/>
<text text-anchor="start" x="155" y="-57" font-family="Verdana" font-size="10.00">CParameterHandle::setAsSigned</text>
<text text-anchor="middle" x="233.5" y="-46" font-family="Verdana" font-size="10.00">Integer</text>
</a>
</g>
</g>
<!-- Node1&#45;&gt;Node4 -->
<g id="edge3" class="edge"><title>Node1&#45;&gt;Node4</title>
<path fill="none" stroke="midnightblue" d="M111.223,-54C119.346,-54 127.913,-54 136.583,-54"/>
<polygon fill="midnightblue" stroke="midnightblue" points="136.788,-57.5001 146.788,-54 136.788,-50.5001 136.788,-57.5001"/>
</g>
<!-- Node5 -->
<g id="node5" class="node"><title>Node5</title>
<g id="a_node5"><a xlink:href="classStatus.html#ace8ccfda8d86810fba5391d8cb84f454" target="_top" xlink:title="Error message accessors. ">
<polygon fill="white" stroke="black" points="196,-0.5 196,-19.5 271,-19.5 271,-0.5 196,-0.5"/>
<text text-anchor="middle" x="233.5" y="-7.5" font-family="Verdana" font-size="10.00">Status::msg</text>
</a>
</g>
</g>
<!-- Node1&#45;&gt;Node5 -->
<g id="edge4" class="edge"><title>Node1&#45;&gt;Node5</title>
<path fill="none" stroke="midnightblue" d="M91.6802,-44.4128C108.408,-39.9202 128.705,-34.5645 147,-30 159.605,-26.8551 173.292,-23.5878 185.945,-20.628"/>
<polygon fill="midnightblue" stroke="midnightblue" points="186.882,-24.0033 195.829,-18.3284 185.296,-17.1854 186.882,-24.0033"/>
</g>
<!-- Node3 -->
<g id="node3" class="node"><title>Node3</title>
<g id="a_node3"><a xlink:href="classStatus.html#a2141902ca2f1157a8e25f66a21c988e5" target="_top" xlink:title="Success (no error message). ">
<polygon fill="white" stroke="black" points="356,-88.5 356,-107.5 448,-107.5 448,-88.5 356,-88.5"/>
<text text-anchor="middle" x="402" y="-95.5" font-family="Verdana" font-size="10.00">Status::success</text>
</a>
</g>
</g>
<!-- Node2&#45;&gt;Node3 -->
<g id="edge2" class="edge"><title>Node2&#45;&gt;Node3</title>
<path fill="none" stroke="midnightblue" d="M278.246,-98C298.874,-98 323.714,-98 345.637,-98"/>
<polygon fill="midnightblue" stroke="midnightblue" points="345.806,-101.5 355.805,-98 345.805,-94.5001 345.806,-101.5"/>
</g>
</g>
</svg>
