<?xml version="1.0" encoding="UTF-8" standalone="no"?>
<!DOCTYPE svg PUBLIC "-//W3C//DTD SVG 1.1//EN"
 "http://www.w3.org/Graphics/SVG/1.1/DTD/svg11.dtd">
<!-- Generated by graphviz version 2.38.0 (20140413.2041)
 -->
<!-- Title: parameter/ParameterMgr.h Pages: 1 -->
<svg width="700pt" height="151pt"
 viewBox="0.00 0.00 700.00 151.00" xmlns="http://www.w3.org/2000/svg" xmlns:xlink="http://www.w3.org/1999/xlink">
<g id="graph0" class="graph" transform="scale(1 1) rotate(0) translate(4 147)">
<title>parameter/ParameterMgr.h</title>
<polygon fill="white" stroke="none" points="-4,4 -4,-147 696,-147 696,4 -4,4"/>
<!-- Node1 -->
<g id="node1" class="node"><title>Node1</title>
<polygon fill="#bfbfbf" stroke="black" points="306,-123.5 306,-142.5 453,-142.5 453,-123.5 306,-123.5"/>
<text text-anchor="middle" x="379.5" y="-130.5" font-family="Verdana" font-size="10.00">parameter/ParameterMgr.h</text>
</g>
<!-- Node2 -->
<g id="node2" class="node"><title>Node2</title>
<g id="a_node2"><a xlink:href="ParameterHandle_8cpp.html" target="_top" xlink:title="parameter/ParameterHandle.cpp">
<polygon fill="white" stroke="black" points="0,-67.5 0,-86.5 175,-86.5 175,-67.5 0,-67.5"/>
<text text-anchor="middle" x="87.5" y="-74.5" font-family="Verdana" font-size="10.00">parameter/ParameterHandle.cpp</text>
</a>
</g>
</g>
<!-- Node1&#45;&gt;Node2 -->
<g id="edge1" class="edge"><title>Node1&#45;&gt;Node2</title>
<path fill="none" stroke="midnightblue" d="M323.267,-121.601C268.082,-111.395 184.935,-96.0189 133.552,-86.5164"/>
<polygon fill="midnightblue" stroke="midnightblue" points="322.762,-125.067 333.232,-123.444 324.035,-118.183 322.762,-125.067"/>
</g>
<!-- Node3 -->
<g id="node3" class="node"><title>Node3</title>
<g id="a_node3"><a xlink:href="ParameterMgr_8cpp.html" target="_top" xlink:title="parameter/ParameterMgr.cpp">
<polygon fill="white" stroke="black" points="193.5,-67.5 193.5,-86.5 351.5,-86.5 351.5,-67.5 193.5,-67.5"/>
<text text-anchor="middle" x="272.5" y="-74.5" font-family="Verdana" font-size="10.00">parameter/ParameterMgr.cpp</text>
</a>
</g>
</g>
<!-- Node1&#45;&gt;Node3 -->
<g id="edge2" class="edge"><title>Node1&#45;&gt;Node3</title>
<path fill="none" stroke="midnightblue" d="M353.198,-118.726C333.385,-108.727 306.793,-95.3065 289.649,-86.6545"/>
<polygon fill="midnightblue" stroke="midnightblue" points="351.804,-121.943 362.309,-123.324 354.958,-115.694 351.804,-121.943"/>
</g>
<!-- Node4 -->
<g id="node4" class="node"><title>Node4</title>
<g id="a_node4"><a xlink:href="ParameterMgrFullConnector_8cpp.html" target="_top" xlink:title="parameter/ParameterMgrFull\lConnector.cpp">
<polygon fill="white" stroke="black" points="315.5,-0.5 315.5,-30.5 469.5,-30.5 469.5,-0.5 315.5,-0.5"/>
<text text-anchor="start" x="323.5" y="-18.5" font-family="Verdana" font-size="10.00">parameter/ParameterMgrFull</text>
<text text-anchor="middle" x="392.5" y="-7.5" font-family="Verdana" font-size="10.00">Connector.cpp</text>
</a>
</g>
</g>
<!-- Node1&#45;&gt;Node4 -->
<g id="edge3" class="edge"><title>Node1&#45;&gt;Node4</title>
<path fill="none" stroke="midnightblue" d="M381.631,-113.068C384.238,-89.9036 388.592,-51.2226 390.919,-30.5453"/>
<polygon fill="midnightblue" stroke="midnightblue" points="378.118,-112.99 380.477,-123.319 385.074,-113.773 378.118,-112.99"/>
</g>
<!-- Node5 -->
<g id="node5" class="node"><title>Node5</title>
<g id="a_node5"><a xlink:href="ParameterMgrLogger_8h.html" target="_top" xlink:title="parameter/ParameterMgrLogger.h">
<polygon fill="white" stroke="black" points="407.5,-67.5 407.5,-86.5 587.5,-86.5 587.5,-67.5 407.5,-67.5"/>
<text text-anchor="middle" x="497.5" y="-74.5" font-family="Verdana" font-size="10.00">parameter/ParameterMgrLogger.h</text>
</a>
</g>
</g>
<!-- Node1&#45;&gt;Node5 -->
<g id="edge4" class="edge"><title>Node1&#45;&gt;Node5</title>
<path fill="none" stroke="midnightblue" d="M407.4,-119.232C429.473,-109.131 459.676,-95.3091 478.89,-86.5164"/>
<polygon fill="midnightblue" stroke="midnightblue" points="405.834,-116.1 398.197,-123.444 408.747,-122.465 405.834,-116.1"/>
</g>
<!-- Node6 -->
<g id="node6" class="node"><title>Node6</title>
<g id="a_node6"><a xlink:href="ParameterMgrPlatformConnector_8cpp.html" target="_top" xlink:title="parameter/ParameterMgrPlatform\lConnector.cpp">
<polygon fill="white" stroke="black" points="513,-0.5 513,-30.5 692,-30.5 692,-0.5 513,-0.5"/>
<text text-anchor="start" x="521" y="-18.5" font-family="Verdana" font-size="10.00">parameter/ParameterMgrPlatform</text>
<text text-anchor="middle" x="602.5" y="-7.5" font-family="Verdana" font-size="10.00">Connector.cpp</text>
</a>
</g>
</g>
<!-- Node1&#45;&gt;Node6 -->
<g id="edge7" class="edge"><title>Node1&#45;&gt;Node6</title>
<path fill="none" stroke="midnightblue" d="M463.425,-124.869C516.692,-118.48 578.81,-106.942 596.5,-87 610.113,-71.6536 608.519,-46.328 605.765,-30.5737"/>
<polygon fill="midnightblue" stroke="midnightblue" points="462.784,-121.42 453.251,-126.041 463.586,-128.374 462.784,-121.42"/>
</g>
<!-- Node5&#45;&gt;Node4 -->
<g id="edge5" class="edge"><title>Node5&#45;&gt;Node4</title>
<path fill="none" stroke="midnightblue" d="M473.751,-62.5423C456.895,-52.9907 434.322,-40.1992 417.246,-30.523"/>
<polygon fill="midnightblue" stroke="midnightblue" points="472.03,-65.59 482.456,-67.4751 475.481,-59.4998 472.03,-65.59"/>
</g>
<!-- Node5&#45;&gt;Node6 -->
<g id="edge6" class="edge"><title>Node5&#45;&gt;Node6</title>
<path fill="none" stroke="midnightblue" d="M521.249,-62.5423C538.105,-52.9907 560.678,-40.1992 577.754,-30.523"/>
<polygon fill="midnightblue" stroke="midnightblue" points="519.519,-59.4998 512.544,-67.4751 522.97,-65.59 519.519,-59.4998"/>
</g>
</g>
</svg>
