<?xml version="1.0" encoding="UTF-8" standalone="no"?>
<!DOCTYPE svg PUBLIC "-//W3C//DTD SVG 1.1//EN"
 "http://www.w3.org/Graphics/SVG/1.1/DTD/svg11.dtd">
<!-- Generated by graphviz version 2.38.0 (20140413.2041)
 -->
<!-- Title: parameter/include/ParameterMgrLoggerForward.h Pages: 1 -->
<svg width="770pt" height="240pt"
 viewBox="0.00 0.00 769.50 240.00" xmlns="http://www.w3.org/2000/svg" xmlns:xlink="http://www.w3.org/1999/xlink">
<g id="graph0" class="graph" transform="scale(1 1) rotate(0) translate(4 236)">
<title>parameter/include/ParameterMgrLoggerForward.h</title>
<polygon fill="white" stroke="none" points="-4,4 -4,-236 765.5,-236 765.5,4 -4,4"/>
<!-- Node1 -->
<g id="node1" class="node"><title>Node1</title>
<polygon fill="#bfbfbf" stroke="black" points="187,-201.5 187,-231.5 345,-231.5 345,-201.5 187,-201.5"/>
<text text-anchor="start" x="195" y="-219.5" font-family="Verdana" font-size="10.00">parameter/include/Parameter</text>
<text text-anchor="middle" x="266" y="-208.5" font-family="Verdana" font-size="10.00">MgrLoggerForward.h</text>
</g>
<!-- Node2 -->
<g id="node2" class="node"><title>Node2</title>
<g id="a_node2"><a xlink:href="ParameterMgrFullConnector_8h.html" target="_top" xlink:title="parameter/include/Parameter\lMgrFullConnector.h">
<polygon fill="white" stroke="black" points="0,-134.5 0,-164.5 158,-164.5 158,-134.5 0,-134.5"/>
<text text-anchor="start" x="8" y="-152.5" font-family="Verdana" font-size="10.00">parameter/include/Parameter</text>
<text text-anchor="middle" x="79" y="-141.5" font-family="Verdana" font-size="10.00">MgrFullConnector.h</text>
</a>
</g>
</g>
<!-- Node1&#45;&gt;Node2 -->
<g id="edge1" class="edge"><title>Node1&#45;&gt;Node2</title>
<path fill="none" stroke="midnightblue" d="M215.918,-198.092C185.73,-187.599 147.782,-174.408 119.497,-164.577"/>
<polygon fill="midnightblue" stroke="midnightblue" points="214.829,-201.419 225.424,-201.396 217.127,-194.807 214.829,-201.419"/>
</g>
<!-- Node4 -->
<g id="node4" class="node"><title>Node4</title>
<g id="a_node4"><a xlink:href="ParameterMgrPlatformConnector_8h.html" target="_top" xlink:title="parameter/include/Parameter\lMgrPlatformConnector.h">
<polygon fill="white" stroke="black" points="389,-134.5 389,-164.5 547,-164.5 547,-134.5 389,-134.5"/>
<text text-anchor="start" x="397" y="-152.5" font-family="Verdana" font-size="10.00">parameter/include/Parameter</text>
<text text-anchor="middle" x="468" y="-141.5" font-family="Verdana" font-size="10.00">MgrPlatformConnector.h</text>
</a>
</g>
</g>
<!-- Node1&#45;&gt;Node4 -->
<g id="edge3" class="edge"><title>Node1&#45;&gt;Node4</title>
<path fill="none" stroke="midnightblue" d="M319.677,-198.228C352.353,-187.713 393.568,-174.451 424.255,-164.577"/>
<polygon fill="midnightblue" stroke="midnightblue" points="318.278,-195.001 309.831,-201.396 320.422,-201.665 318.278,-195.001"/>
</g>
<!-- Node10 -->
<g id="node10" class="node"><title>Node10</title>
<g id="a_node10"><a xlink:href="ParameterMgrLogger_8h.html" target="_top" xlink:title="parameter/ParameterMgrLogger.h">
<polygon fill="white" stroke="black" points="176,-140 176,-159 356,-159 356,-140 176,-140"/>
<text text-anchor="middle" x="266" y="-147" font-family="Verdana" font-size="10.00">parameter/ParameterMgrLogger.h</text>
</a>
</g>
</g>
<!-- Node1&#45;&gt;Node10 -->
<g id="edge10" class="edge"><title>Node1&#45;&gt;Node10</title>
<path fill="none" stroke="midnightblue" d="M266,-191.25C266,-180.017 266,-167.377 266,-159.195"/>
<polygon fill="midnightblue" stroke="midnightblue" points="262.5,-191.396 266,-201.396 269.5,-191.396 262.5,-191.396"/>
</g>
<!-- Node3 -->
<g id="node3" class="node"><title>Node3</title>
<g id="a_node3"><a xlink:href="ParameterMgrFullConnector_8cpp.html" target="_top" xlink:title="parameter/ParameterMgrFull\lConnector.cpp">
<polygon fill="white" stroke="black" points="2,-67.5 2,-97.5 156,-97.5 156,-67.5 2,-67.5"/>
<text text-anchor="start" x="10" y="-85.5" font-family="Verdana" font-size="10.00">parameter/ParameterMgrFull</text>
<text text-anchor="middle" x="79" y="-74.5" font-family="Verdana" font-size="10.00">Connector.cpp</text>
</a>
</g>
</g>
<!-- Node2&#45;&gt;Node3 -->
<g id="edge2" class="edge"><title>Node2&#45;&gt;Node3</title>
<path fill="none" stroke="midnightblue" d="M79,-124.108C79,-115.154 79,-105.323 79,-97.5765"/>
<polygon fill="midnightblue" stroke="midnightblue" points="75.5001,-124.396 79,-134.396 82.5001,-124.396 75.5001,-124.396"/>
</g>
<!-- Node5 -->
<g id="node5" class="node"><title>Node5</title>
<g id="a_node5"><a xlink:href="ParameterFramework_8cpp.html" target="_top" xlink:title="bindings/c/ParameterFramework.cpp">
<polygon fill="white" stroke="black" points="373,-73 373,-92 563,-92 563,-73 373,-73"/>
<text text-anchor="middle" x="468" y="-80" font-family="Verdana" font-size="10.00">bindings/c/ParameterFramework.cpp</text>
</a>
</g>
</g>
<!-- Node4&#45;&gt;Node5 -->
<g id="edge4" class="edge"><title>Node4&#45;&gt;Node5</title>
<path fill="none" stroke="midnightblue" d="M468,-124.25C468,-113.017 468,-100.377 468,-92.1945"/>
<polygon fill="midnightblue" stroke="midnightblue" points="464.5,-124.396 468,-134.396 471.5,-124.396 464.5,-124.396"/>
</g>
<!-- Node6 -->
<g id="node6" class="node"><title>Node6</title>
<g id="a_node6"><a xlink:href="ParameterMgrPlatformConnector_8cpp.html" target="_top" xlink:title="parameter/ParameterMgrPlatform\lConnector.cpp">
<polygon fill="white" stroke="black" points="175.5,-67.5 175.5,-97.5 354.5,-97.5 354.5,-67.5 175.5,-67.5"/>
<text text-anchor="start" x="183.5" y="-85.5" font-family="Verdana" font-size="10.00">parameter/ParameterMgrPlatform</text>
<text text-anchor="middle" x="265" y="-74.5" font-family="Verdana" font-size="10.00">Connector.cpp</text>
</a>
</g>
</g>
<!-- Node4&#45;&gt;Node6 -->
<g id="edge5" class="edge"><title>Node4&#45;&gt;Node6</title>
<path fill="none" stroke="midnightblue" d="M414.058,-131.228C381.219,-120.713 339.8,-107.451 308.962,-97.5765"/>
<polygon fill="midnightblue" stroke="midnightblue" points="413.361,-134.68 423.952,-134.396 415.496,-128.013 413.361,-134.68"/>
</g>
<!-- Node7 -->
<g id="node7" class="node"><title>Node7</title>
<g id="a_node7"><a xlink:href="TestPlatform_8h.html" target="_top" xlink:title="test/test&#45;platform\l/TestPlatform.h">
<polygon fill="white" stroke="black" points="581.5,-67.5 581.5,-97.5 682.5,-97.5 682.5,-67.5 581.5,-67.5"/>
<text text-anchor="start" x="589.5" y="-85.5" font-family="Verdana" font-size="10.00">test/test&#45;platform</text>
<text text-anchor="middle" x="632" y="-74.5" font-family="Verdana" font-size="10.00">/TestPlatform.h</text>
</a>
</g>
</g>
<!-- Node4&#45;&gt;Node7 -->
<g id="edge6" class="edge"><title>Node4&#45;&gt;Node7</title>
<path fill="none" stroke="midnightblue" d="M512.957,-130.682C539.26,-120.257 572,-107.281 596.484,-97.5765"/>
<polygon fill="midnightblue" stroke="midnightblue" points="511.592,-127.458 503.586,-134.396 514.172,-133.965 511.592,-127.458"/>
</g>
<!-- Node9 -->
<g id="node9" class="node"><title>Node9</title>
<g id="a_node9"><a xlink:href="TestPlatform_8cpp.html" target="_top" xlink:title="test/test&#45;platform\l/TestPlatform.cpp">
<polygon fill="white" stroke="black" points="660.5,-0.5 660.5,-30.5 761.5,-30.5 761.5,-0.5 660.5,-0.5"/>
<text text-anchor="start" x="668.5" y="-18.5" font-family="Verdana" font-size="10.00">test/test&#45;platform</text>
<text text-anchor="middle" x="711" y="-7.5" font-family="Verdana" font-size="10.00">/TestPlatform.cpp</text>
</a>
</g>
</g>
<!-- Node4&#45;&gt;Node9 -->
<g id="edge9" class="edge"><title>Node4&#45;&gt;Node9</title>
<path fill="none" stroke="midnightblue" d="M557.073,-138.167C610.93,-130.118 672.79,-117.07 692,-98 709.941,-80.1897 712.271,-48.9393 711.923,-30.7469"/>
<polygon fill="midnightblue" stroke="midnightblue" points="556.515,-134.712 547.122,-139.612 557.521,-141.639 556.515,-134.712"/>
</g>
<!-- Node8 -->
<g id="node8" class="node"><title>Node8</title>
<g id="a_node8"><a xlink:href="test_2test-platform_2main_8cpp.html" target="_top" xlink:title="test/test&#45;platform\l/main.cpp">
<polygon fill="white" stroke="black" points="541.5,-0.5 541.5,-30.5 642.5,-30.5 642.5,-0.5 541.5,-0.5"/>
<text text-anchor="start" x="549.5" y="-18.5" font-family="Verdana" font-size="10.00">test/test&#45;platform</text>
<text text-anchor="middle" x="592" y="-7.5" font-family="Verdana" font-size="10.00">/main.cpp</text>
</a>
</g>
</g>
<!-- Node7&#45;&gt;Node8 -->
<g id="edge7" class="edge"><title>Node7&#45;&gt;Node8</title>
<path fill="none" stroke="midnightblue" d="M618.072,-58.8669C612.283,-49.4594 605.744,-38.8334 600.662,-30.5765"/>
<polygon fill="midnightblue" stroke="midnightblue" points="615.099,-60.7137 623.321,-67.396 621.06,-57.045 615.099,-60.7137"/>
</g>
<!-- Node7&#45;&gt;Node9 -->
<g id="edge8" class="edge"><title>Node7&#45;&gt;Node9</title>
<path fill="none" stroke="midnightblue" d="M657.057,-60.8832C669.063,-51.0054 683.132,-39.4293 693.892,-30.5765"/>
<polygon fill="midnightblue" stroke="midnightblue" points="654.64,-58.3395 649.142,-67.396 659.088,-63.745 654.64,-58.3395"/>
</g>
<!-- Node10&#45;&gt;Node3 -->
<g id="edge11" class="edge"><title>Node10&#45;&gt;Node3</title>
<path fill="none" stroke="midnightblue" d="M231.448,-136.49C199.745,-125.47 152.773,-109.143 119.358,-97.5281"/>
<polygon fill="midnightblue" stroke="midnightblue" points="230.573,-139.891 241.168,-139.869 232.871,-133.279 230.573,-139.891"/>
</g>
<!-- Node10&#45;&gt;Node6 -->
<g id="edge12" class="edge"><title>Node10&#45;&gt;Node6</title>
<path fill="none" stroke="midnightblue" d="M265.706,-129.411C265.55,-119.222 265.36,-106.901 265.217,-97.589"/>
<polygon fill="midnightblue" stroke="midnightblue" points="262.212,-129.789 265.865,-139.734 269.211,-129.681 262.212,-129.789"/>
</g>
</g>
</svg>
