<?xml version="1.0" encoding="UTF-8" standalone="no"?>
<!DOCTYPE svg PUBLIC "-//W3C//DTD SVG 1.1//EN"
 "http://www.w3.org/Graphics/SVG/1.1/DTD/svg11.dtd">
<!-- Generated by graphviz version 2.38.0 (20140413.2041)
 -->
<!-- Title: /home/dawagner/dev/parameter&#45;framework/parameter/ParameterHandle.cpp Pages: 1 -->
<svg width="1950pt" height="442pt"
 viewBox="0.00 0.00 1950.02 442.00" xmlns="http://www.w3.org/2000/svg" xmlns:xlink="http://www.w3.org/1999/xlink">
<g id="graph0" class="graph" transform="scale(1 1) rotate(0) translate(4 438)">
<title>/home/dawagner/dev/parameter&#45;framework/parameter/ParameterHandle.cpp</title>
<polygon fill="white" stroke="none" points="-4,4 -4,-438 1946.02,-438 1946.02,4 -4,4"/>
<!-- Node1 -->
<g id="node1" class="node"><title>Node1</title>
<polygon fill="#bfbfbf" stroke="black" points="528.018,-392.5 528.018,-433.5 706.018,-433.5 706.018,-392.5 528.018,-392.5"/>
<text text-anchor="start" x="536.018" y="-421.5" font-family="Verdana" font-size="10.00">/home/dawagner/dev</text>
<text text-anchor="start" x="536.018" y="-410.5" font-family="Verdana" font-size="10.00">/parameter&#45;framework</text>
<text text-anchor="middle" x="617.018" y="-399.5" font-family="Verdana" font-size="10.00">/parameter/ParameterHandle.cpp</text>
</g>
<!-- Node2 -->
<g id="node2" class="node"><title>Node2</title>
<polygon fill="white" stroke="#bfbfbf" points="241.018,-336.5 241.018,-355.5 351.018,-355.5 351.018,-336.5 241.018,-336.5"/>
<text text-anchor="middle" x="296.018" y="-343.5" font-family="Verdana" font-size="10.00">ParameterHandle.h</text>
</g>
<!-- Node1&#45;&gt;Node2 -->
<g id="edge1" class="edge"><title>Node1&#45;&gt;Node2</title>
<path fill="none" stroke="midnightblue" d="M527.602,-393.894C469.756,-382.181 396.472,-367.341 348.011,-357.528"/>
<polygon fill="midnightblue" stroke="midnightblue" points="348.556,-354.068 338.061,-355.513 347.167,-360.928 348.556,-354.068"/>
</g>
<!-- Node3 -->
<g id="node3" class="node"><title>Node3</title>
<g id="a_node3"><a xlink:href="ParameterAccessContext_8h.html" target="_top" xlink:title="ParameterAccessContext.h">
<polygon fill="white" stroke="black" points="856.518,-112.5 856.518,-131.5 1003.52,-131.5 1003.52,-112.5 856.518,-112.5"/>
<text text-anchor="middle" x="930.018" y="-119.5" font-family="Verdana" font-size="10.00">ParameterAccessContext.h</text>
</a>
</g>
</g>
<!-- Node1&#45;&gt;Node3 -->
<g id="edge2" class="edge"><title>Node1&#45;&gt;Node3</title>
<path fill="none" stroke="midnightblue" d="M706.323,-393.86C794.428,-373.327 916.018,-336.709 916.018,-291 916.018,-291 916.018,-291 916.018,-233 916.018,-200.541 922.091,-163.121 926.238,-141.356"/>
<polygon fill="midnightblue" stroke="midnightblue" points="929.678,-142 928.188,-131.511 922.811,-140.64 929.678,-142"/>
</g>
<!-- Node7 -->
<g id="node7" class="node"><title>Node7</title>
<g id="a_node7"><a xlink:href="BaseParameter_8h.html" target="_top" xlink:title="BaseParameter.h">
<polygon fill="white" stroke="black" points="369.518,-336.5 369.518,-355.5 468.518,-355.5 468.518,-336.5 369.518,-336.5"/>
<text text-anchor="middle" x="419.018" y="-343.5" font-family="Verdana" font-size="10.00">BaseParameter.h</text>
</a>
</g>
</g>
<!-- Node1&#45;&gt;Node7 -->
<g id="edge7" class="edge"><title>Node1&#45;&gt;Node7</title>
<path fill="none" stroke="midnightblue" d="M557.612,-392.498C524.088,-381.493 483.312,-368.106 454.697,-358.713"/>
<polygon fill="midnightblue" stroke="midnightblue" points="455.708,-355.361 445.115,-355.567 453.524,-362.012 455.708,-355.361"/>
</g>
<!-- Node18 -->
<g id="node18" class="node"><title>Node18</title>
<g id="a_node18"><a xlink:href="Subsystem_8h.html" target="_top" xlink:title="Subsystem.h">
<polygon fill="white" stroke="black" points="199.018,-280.5 199.018,-299.5 279.018,-299.5 279.018,-280.5 199.018,-280.5"/>
<text text-anchor="middle" x="239.018" y="-287.5" font-family="Verdana" font-size="10.00">Subsystem.h</text>
</a>
</g>
</g>
<!-- Node1&#45;&gt;Node18 -->
<g id="edge31" class="edge"><title>Node1&#45;&gt;Node18</title>
<path fill="none" stroke="midnightblue" d="M587.429,-392.392C559.929,-375.048 517.271,-350.334 477.018,-336 414.33,-313.676 338.203,-301.757 289.204,-295.908"/>
<polygon fill="midnightblue" stroke="midnightblue" points="289.51,-292.421 279.175,-294.751 288.707,-299.374 289.51,-292.421"/>
</g>
<!-- Node22 -->
<g id="node22" class="node"><title>Node22</title>
<polygon fill="white" stroke="#bfbfbf" points="670.018,-336.5 670.018,-355.5 726.018,-355.5 726.018,-336.5 670.018,-336.5"/>
<text text-anchor="middle" x="698.018" y="-343.5" font-family="Verdana" font-size="10.00">assert.h</text>
</g>
<!-- Node1&#45;&gt;Node22 -->
<g id="edge43" class="edge"><title>Node1&#45;&gt;Node22</title>
<path fill="none" stroke="midnightblue" d="M641.321,-392.498C653.501,-382.724 668.021,-371.072 679.318,-362.007"/>
<polygon fill="midnightblue" stroke="midnightblue" points="681.627,-364.641 687.236,-355.652 677.246,-359.181 681.627,-364.641"/>
</g>
<!-- Node23 -->
<g id="node23" class="node"><title>Node23</title>
<g id="a_node23"><a xlink:href="ParameterMgr_8h.html" target="_top" xlink:title="ParameterMgr.h">
<polygon fill="white" stroke="black" points="1111.52,-280.5 1111.52,-299.5 1204.52,-299.5 1204.52,-280.5 1111.52,-280.5"/>
<text text-anchor="middle" x="1158.02" y="-287.5" font-family="Verdana" font-size="10.00">ParameterMgr.h</text>
</a>
</g>
</g>
<!-- Node1&#45;&gt;Node23 -->
<g id="edge44" class="edge"><title>Node1&#45;&gt;Node23</title>
<path fill="none" stroke="midnightblue" d="M706.21,-398.494C769.099,-388.375 855.126,-373.329 930.018,-356 998.43,-340.171 1076.91,-316.573 1121.67,-302.59"/>
<polygon fill="midnightblue" stroke="midnightblue" points="1122.73,-305.925 1131.22,-299.59 1120.63,-299.246 1122.73,-305.925"/>
</g>
<!-- Node41 -->
<g id="node41" class="node"><title>Node41</title>
<g id="a_node41"><a xlink:href="AutoLock_8h.html" target="_top" xlink:title="AutoLock.h">
<polygon fill="white" stroke="black" points="582.018,-336.5 582.018,-355.5 652.018,-355.5 652.018,-336.5 582.018,-336.5"/>
<text text-anchor="middle" x="617.018" y="-343.5" font-family="Verdana" font-size="10.00">AutoLock.h</text>
</a>
</g>
</g>
<!-- Node1&#45;&gt;Node41 -->
<g id="edge80" class="edge"><title>Node1&#45;&gt;Node41</title>
<path fill="none" stroke="midnightblue" d="M617.018,-392.498C617.018,-384.065 617.018,-374.235 617.018,-365.874"/>
<polygon fill="midnightblue" stroke="midnightblue" points="620.518,-365.652 617.018,-355.652 613.518,-365.653 620.518,-365.652"/>
</g>
<!-- Node4 -->
<g id="node4" class="node"><title>Node4</title>
<polygon fill="white" stroke="#bfbfbf" points="547.518,-0.5 547.518,-19.5 600.518,-19.5 600.518,-0.5 547.518,-0.5"/>
<text text-anchor="middle" x="574.018" y="-7.5" font-family="Verdana" font-size="10.00">stdint.h</text>
</g>
<!-- Node3&#45;&gt;Node4 -->
<g id="edge3" class="edge"><title>Node3&#45;&gt;Node4</title>
<path fill="none" stroke="midnightblue" d="M919.64,-112.491C901.854,-98.3807 863.891,-70.2798 827.018,-56 753.612,-27.5715 661.203,-16.9537 610.861,-13.1"/>
<polygon fill="midnightblue" stroke="midnightblue" points="611.004,-9.60133 600.779,-12.3763 610.503,-16.5834 611.004,-9.60133"/>
</g>
<!-- Node5 -->
<g id="node5" class="node"><title>Node5</title>
<g id="a_node5"><a xlink:href="ErrorContext_8h.html" target="_top" xlink:title="ErrorContext.h">
<polygon fill="white" stroke="black" points="1158.02,-56.5 1158.02,-75.5 1244.02,-75.5 1244.02,-56.5 1158.02,-56.5"/>
<text text-anchor="middle" x="1201.02" y="-63.5" font-family="Verdana" font-size="10.00">ErrorContext.h</text>
</a>
</g>
</g>
<!-- Node3&#45;&gt;Node5 -->
<g id="edge4" class="edge"><title>Node3&#45;&gt;Node5</title>
<path fill="none" stroke="midnightblue" d="M972.959,-112.444C1020.53,-102.964 1097.26,-87.6747 1148.41,-77.4835"/>
<polygon fill="midnightblue" stroke="midnightblue" points="1149.16,-80.9032 1158.28,-75.5164 1147.79,-74.0382 1149.16,-80.9032"/>
</g>
<!-- Node6 -->
<g id="node6" class="node"><title>Node6</title>
<polygon fill="white" stroke="#bfbfbf" points="1144.02,-0.5 1144.02,-19.5 1188.02,-19.5 1188.02,-0.5 1144.02,-0.5"/>
<text text-anchor="middle" x="1166.02" y="-7.5" font-family="Verdana" font-size="10.00">string</text>
</g>
<!-- Node3&#45;&gt;Node6 -->
<g id="edge6" class="edge"><title>Node3&#45;&gt;Node6</title>
<path fill="none" stroke="midnightblue" d="M999.368,-112.484C1093.04,-100.819 1248.87,-80.7713 1253.02,-76 1273.66,-52.2848 1230.5,-31.886 1197.89,-20.5452"/>
<polygon fill="midnightblue" stroke="midnightblue" points="1198.79,-17.1549 1188.2,-17.3227 1196.58,-23.7978 1198.79,-17.1549"/>
</g>
<!-- Node5&#45;&gt;Node6 -->
<g id="edge5" class="edge"><title>Node5&#45;&gt;Node6</title>
<path fill="none" stroke="midnightblue" d="M1195.24,-56.083C1190.35,-48.5341 1183.19,-37.4948 1177.19,-28.2298"/>
<polygon fill="midnightblue" stroke="midnightblue" points="1180.07,-26.239 1171.69,-19.7511 1174.19,-30.0463 1180.07,-26.239"/>
</g>
<!-- Node7&#45;&gt;Node4 -->
<g id="edge8" class="edge"><title>Node7&#45;&gt;Node4</title>
<path fill="none" stroke="midnightblue" d="M369.491,-336.524C312.584,-326.564 222.832,-310.117 190.018,-300 119.806,-278.353 38.0182,-308.473 38.0182,-235 38.0182,-235 38.0182,-235 38.0182,-121 38.0182,-66.8689 89.8653,-73.7073 141.018,-56 214.012,-30.7321 446.497,-17.1257 537.24,-12.6677"/>
<polygon fill="midnightblue" stroke="midnightblue" points="537.514,-16.1586 547.334,-12.181 537.177,-9.16675 537.514,-16.1586"/>
</g>
<!-- Node8 -->
<g id="node8" class="node"><title>Node8</title>
<polygon fill="white" stroke="#bfbfbf" points="344.518,-0.5 344.518,-19.5 391.518,-19.5 391.518,-0.5 344.518,-0.5"/>
<text text-anchor="middle" x="368.018" y="-7.5" font-family="Verdana" font-size="10.00">vector</text>
</g>
<!-- Node7&#45;&gt;Node8 -->
<g id="edge9" class="edge"><title>Node7&#45;&gt;Node8</title>
<path fill="none" stroke="midnightblue" d="M369.466,-337.277C366.271,-336.83 363.101,-336.4 360.018,-336 285.549,-326.336 83.2537,-346.155 24.0182,-300 -0.273558,-281.072 0.0182372,-265.795 0.0182372,-235 0.0182372,-235 0.0182372,-235 0.0182372,-121 0.0182372,-90.2048 -0.0510266,-75.2098 24.0182,-56 71.4524,-18.1426 257.374,-12.0021 334.357,-11.103"/>
<polygon fill="midnightblue" stroke="midnightblue" points="334.504,-14.6019 344.471,-11.0082 334.439,-7.60221 334.504,-14.6019"/>
</g>
<!-- Node9 -->
<g id="node9" class="node"><title>Node9</title>
<g id="a_node9"><a xlink:href="InstanceConfigurableElement_8h.html" target="_top" xlink:title="InstanceConfigurableElement.h">
<polygon fill="white" stroke="black" points="336.018,-280.5 336.018,-299.5 502.018,-299.5 502.018,-280.5 336.018,-280.5"/>
<text text-anchor="middle" x="419.018" y="-287.5" font-family="Verdana" font-size="10.00">InstanceConfigurableElement.h</text>
</a>
</g>
</g>
<!-- Node7&#45;&gt;Node9 -->
<g id="edge10" class="edge"><title>Node7&#45;&gt;Node9</title>
<path fill="none" stroke="midnightblue" d="M419.018,-336.083C419.018,-329.006 419.018,-318.861 419.018,-309.986"/>
<polygon fill="midnightblue" stroke="midnightblue" points="422.518,-309.751 419.018,-299.751 415.518,-309.751 422.518,-309.751"/>
</g>
<!-- Node9&#45;&gt;Node6 -->
<g id="edge30" class="edge"><title>Node9&#45;&gt;Node6</title>
<path fill="none" stroke="midnightblue" d="M451.344,-280.451C537.076,-257.71 764.696,-196.852 779.018,-188 817.827,-164.015 810.65,-138.172 848.018,-112 882.631,-87.7583 897.221,-92.7462 936.018,-76 955.74,-67.4873 959.71,-63.0014 980.018,-56 1032.84,-37.7876 1096.54,-24.0825 1134.02,-16.8232"/>
<polygon fill="midnightblue" stroke="midnightblue" points="1134.7,-20.2572 1143.87,-14.9482 1133.39,-13.3807 1134.7,-20.2572"/>
</g>
<!-- Node10 -->
<g id="node10" class="node"><title>Node10</title>
<g id="a_node10"><a xlink:href="ConfigurableElementWithMapping_8h.html" target="_top" xlink:title="ConfigurableElementWithMapping.h">
<polygon fill="white" stroke="black" points="316.018,-224.5 316.018,-243.5 502.018,-243.5 502.018,-224.5 316.018,-224.5"/>
<text text-anchor="middle" x="409.018" y="-231.5" font-family="Verdana" font-size="10.00">ConfigurableElementWithMapping.h</text>
</a>
</g>
</g>
<!-- Node9&#45;&gt;Node10 -->
<g id="edge11" class="edge"><title>Node9&#45;&gt;Node10</title>
<path fill="none" stroke="midnightblue" d="M417.367,-280.083C416.042,-272.927 414.136,-262.635 412.48,-253.691"/>
<polygon fill="midnightblue" stroke="midnightblue" points="415.901,-252.947 410.639,-243.751 409.018,-254.221 415.901,-252.947"/>
</g>
<!-- Node13 -->
<g id="node13" class="node"><title>Node13</title>
<polygon fill="white" stroke="#bfbfbf" points="272.018,-56.5 272.018,-75.5 302.018,-75.5 302.018,-56.5 272.018,-56.5"/>
<text text-anchor="middle" x="287.018" y="-63.5" font-family="Verdana" font-size="10.00">list</text>
</g>
<!-- Node9&#45;&gt;Node13 -->
<g id="edge29" class="edge"><title>Node9&#45;&gt;Node13</title>
<path fill="none" stroke="midnightblue" d="M384.891,-280.433C344.353,-268.03 279.84,-240.566 261.018,-188 248.279,-152.423 265.316,-108.619 277.228,-84.6845"/>
<polygon fill="midnightblue" stroke="midnightblue" points="280.381,-86.2079 281.918,-75.7251 274.179,-82.9616 280.381,-86.2079"/>
</g>
<!-- Node17 -->
<g id="node17" class="node"><title>Node17</title>
<g id="a_node17"><a xlink:href="TypeElement_8h.html" target="_top" xlink:title="TypeElement.h">
<polygon fill="white" stroke="black" points="566.018,-168.5 566.018,-187.5 652.018,-187.5 652.018,-168.5 566.018,-168.5"/>
<text text-anchor="middle" x="609.018" y="-175.5" font-family="Verdana" font-size="10.00">TypeElement.h</text>
</a>
</g>
</g>
<!-- Node9&#45;&gt;Node17 -->
<g id="edge26" class="edge"><title>Node9&#45;&gt;Node17</title>
<path fill="none" stroke="midnightblue" d="M438.426,-280.405C457.311,-271.834 486.642,-257.966 511.018,-244 538.851,-228.054 569.434,-207.197 588.907,-193.464"/>
<polygon fill="midnightblue" stroke="midnightblue" points="591.144,-196.169 597.268,-187.523 587.089,-190.462 591.144,-196.169"/>
</g>
<!-- Node10&#45;&gt;Node6 -->
<g id="edge25" class="edge"><title>Node10&#45;&gt;Node6</title>
<path fill="none" stroke="midnightblue" d="M408.561,-224.132C407.578,-194.572 408.847,-98.8562 463.018,-56 516.077,-14.024 1002.65,-10.9925 1133.66,-10.9423"/>
<polygon fill="midnightblue" stroke="midnightblue" points="1133.85,-14.4423 1143.85,-10.9444 1133.85,-7.44228 1133.85,-14.4423"/>
</g>
<!-- Node11 -->
<g id="node11" class="node"><title>Node11</title>
<g id="a_node11"><a xlink:href="ConfigurableElement_8h.html" target="_top" xlink:title="ConfigurableElement.h">
<polygon fill="white" stroke="black" points="270.518,-168.5 270.518,-187.5 395.518,-187.5 395.518,-168.5 270.518,-168.5"/>
<text text-anchor="middle" x="333.018" y="-175.5" font-family="Verdana" font-size="10.00">ConfigurableElement.h</text>
</a>
</g>
</g>
<!-- Node10&#45;&gt;Node11 -->
<g id="edge12" class="edge"><title>Node10&#45;&gt;Node11</title>
<path fill="none" stroke="midnightblue" d="M396.808,-224.324C385.242,-216.107 367.643,-203.602 353.858,-193.807"/>
<polygon fill="midnightblue" stroke="midnightblue" points="355.63,-190.773 345.451,-187.834 351.576,-196.479 355.63,-190.773"/>
</g>
<!-- Node12 -->
<g id="node12" class="node"><title>Node12</title>
<g id="a_node12"><a xlink:href="Element_8h.html" target="_top" xlink:title="Element.h">
<polygon fill="white" stroke="black" points="620.518,-112.5 620.518,-131.5 685.518,-131.5 685.518,-112.5 620.518,-112.5"/>
<text text-anchor="middle" x="653.018" y="-119.5" font-family="Verdana" font-size="10.00">Element.h</text>
</a>
</g>
</g>
<!-- Node11&#45;&gt;Node12 -->
<g id="edge13" class="edge"><title>Node11&#45;&gt;Node12</title>
<path fill="none" stroke="midnightblue" d="M383.723,-168.444C446.234,-157.895 551.379,-140.152 610.084,-130.245"/>
<polygon fill="midnightblue" stroke="midnightblue" points="610.858,-133.664 620.137,-128.549 609.694,-126.762 610.858,-133.664"/>
</g>
<!-- Node11&#45;&gt;Node13 -->
<g id="edge24" class="edge"><title>Node11&#45;&gt;Node13</title>
<path fill="none" stroke="midnightblue" d="M329.409,-168.368C321.918,-150.456 304.55,-108.923 294.524,-84.9482"/>
<polygon fill="midnightblue" stroke="midnightblue" points="297.698,-83.4669 290.611,-75.5914 291.24,-86.1676 297.698,-83.4669"/>
</g>
<!-- Node12&#45;&gt;Node4 -->
<g id="edge16" class="edge"><title>Node12&#45;&gt;Node4</title>
<path fill="none" stroke="midnightblue" d="M646.819,-112.368C633.782,-94.2153 603.321,-51.8015 586.22,-27.9902"/>
<polygon fill="midnightblue" stroke="midnightblue" points="588.865,-25.6721 580.188,-19.5914 583.179,-29.7555 588.865,-25.6721"/>
</g>
<!-- Node12&#45;&gt;Node6 -->
<g id="edge14" class="edge"><title>Node12&#45;&gt;Node6</title>
<path fill="none" stroke="midnightblue" d="M685.844,-112.482C749.685,-95.9384 886.241,-60.6676 908.018,-56 988.785,-38.6893 1084.85,-23.2856 1133.82,-15.8"/>
<polygon fill="midnightblue" stroke="midnightblue" points="1134.46,-19.2439 1143.82,-14.2824 1133.41,-12.3232 1134.46,-19.2439"/>
</g>
<!-- Node12&#45;&gt;Node8 -->
<g id="edge15" class="edge"><title>Node12&#45;&gt;Node8</title>
<path fill="none" stroke="midnightblue" d="M620.289,-120.453C574.871,-118.399 491.404,-109.86 430.018,-76 408.985,-64.3979 390.817,-43.2259 379.681,-28.2002"/>
<polygon fill="midnightblue" stroke="midnightblue" points="382.34,-25.9009 373.693,-19.7795 376.636,-29.9575 382.34,-25.9009"/>
</g>
<!-- Node12&#45;&gt;Node13 -->
<g id="edge17" class="edge"><title>Node12&#45;&gt;Node13</title>
<path fill="none" stroke="midnightblue" d="M620.216,-116.16C548.065,-105.515 376.883,-80.2587 312.283,-70.7275"/>
<polygon fill="midnightblue" stroke="midnightblue" points="312.585,-67.2343 302.181,-69.2371 311.563,-74.1593 312.585,-67.2343"/>
</g>
<!-- Node14 -->
<g id="node14" class="node"><title>Node14</title>
<polygon fill="white" stroke="#bfbfbf" points="754.018,-56.5 754.018,-75.5 818.018,-75.5 818.018,-56.5 754.018,-56.5"/>
<text text-anchor="middle" x="786.018" y="-63.5" font-family="Verdana" font-size="10.00">XmlSink.h</text>
</g>
<!-- Node12&#45;&gt;Node14 -->
<g id="edge18" class="edge"><title>Node12&#45;&gt;Node14</title>
<path fill="none" stroke="midnightblue" d="M674.092,-112.444C696.078,-103.517 730.753,-89.4387 755.682,-79.3168"/>
<polygon fill="midnightblue" stroke="midnightblue" points="757.094,-82.5213 765.043,-75.5164 754.46,-76.0355 757.094,-82.5213"/>
</g>
<!-- Node15 -->
<g id="node15" class="node"><title>Node15</title>
<polygon fill="white" stroke="#bfbfbf" points="658.518,-56.5 658.518,-75.5 735.518,-75.5 735.518,-56.5 658.518,-56.5"/>
<text text-anchor="middle" x="697.018" y="-63.5" font-family="Verdana" font-size="10.00">XmlSource.h</text>
</g>
<!-- Node12&#45;&gt;Node15 -->
<g id="edge19" class="edge"><title>Node12&#45;&gt;Node15</title>
<path fill="none" stroke="midnightblue" d="M660.284,-112.083C666.563,-104.377 675.806,-93.0333 683.449,-83.6531"/>
<polygon fill="midnightblue" stroke="midnightblue" points="686.284,-85.7143 689.888,-75.7511 680.858,-81.2926 686.284,-85.7143"/>
</g>
<!-- Node16 -->
<g id="node16" class="node"><title>Node16</title>
<g id="a_node16"><a xlink:href="PathNavigator_8h.html" target="_top" xlink:title="PathNavigator.h">
<polygon fill="white" stroke="black" points="472.018,-56.5 472.018,-75.5 564.018,-75.5 564.018,-56.5 472.018,-56.5"/>
<text text-anchor="middle" x="518.018" y="-63.5" font-family="Verdana" font-size="10.00">PathNavigator.h</text>
</a>
</g>
</g>
<!-- Node12&#45;&gt;Node16 -->
<g id="edge20" class="edge"><title>Node12&#45;&gt;Node16</title>
<path fill="none" stroke="midnightblue" d="M631.627,-112.444C609.311,-103.517 574.115,-89.4387 548.81,-79.3168"/>
<polygon fill="midnightblue" stroke="midnightblue" points="549.894,-75.9807 539.309,-75.5164 547.294,-82.4801 549.894,-75.9807"/>
</g>
<!-- Node16&#45;&gt;Node4 -->
<g id="edge23" class="edge"><title>Node16&#45;&gt;Node4</title>
<path fill="none" stroke="midnightblue" d="M527.016,-56.324C535.213,-48.4196 547.524,-36.5482 557.49,-26.9377"/>
<polygon fill="midnightblue" stroke="midnightblue" points="560.088,-29.2947 564.857,-19.8339 555.229,-24.2558 560.088,-29.2947"/>
</g>
<!-- Node16&#45;&gt;Node6 -->
<g id="edge22" class="edge"><title>Node16&#45;&gt;Node6</title>
<path fill="none" stroke="midnightblue" d="M564.162,-57.7337C568.836,-57.1011 573.518,-56.5091 578.018,-56 789.208,-32.1114 1044.54,-17.3751 1133.55,-12.6561"/>
<polygon fill="midnightblue" stroke="midnightblue" points="1134,-16.1373 1143.8,-12.118 1133.63,-9.14694 1134,-16.1373"/>
</g>
<!-- Node16&#45;&gt;Node8 -->
<g id="edge21" class="edge"><title>Node16&#45;&gt;Node8</title>
<path fill="none" stroke="midnightblue" d="M494.25,-56.4435C469.125,-47.3986 429.307,-33.064 401.118,-22.9158"/>
<polygon fill="midnightblue" stroke="midnightblue" points="402.269,-19.6106 391.675,-19.5164 399.898,-26.1968 402.269,-19.6106"/>
</g>
<!-- Node17&#45;&gt;Node6 -->
<g id="edge28" class="edge"><title>Node17&#45;&gt;Node6</title>
<path fill="none" stroke="midnightblue" d="M607.957,-168.317C606.724,-155.591 605.599,-131.294 612.018,-112 621.513,-83.4598 624.079,-71.2261 650.018,-56 691.677,-31.5473 1026.92,-16.4408 1133.57,-12.2179"/>
<polygon fill="midnightblue" stroke="midnightblue" points="1133.87,-15.7089 1143.72,-11.8214 1133.6,-8.71418 1133.87,-15.7089"/>
</g>
<!-- Node17&#45;&gt;Node12 -->
<g id="edge27" class="edge"><title>Node17&#45;&gt;Node12</title>
<path fill="none" stroke="midnightblue" d="M616.284,-168.083C622.563,-160.377 631.806,-149.033 639.449,-139.653"/>
<polygon fill="midnightblue" stroke="midnightblue" points="642.284,-141.714 645.888,-131.751 636.858,-137.293 642.284,-141.714"/>
</g>
<!-- Node18&#45;&gt;Node6 -->
<g id="edge41" class="edge"><title>Node18&#45;&gt;Node6</title>
<path fill="none" stroke="midnightblue" d="M279.02,-284.276C343.93,-276.293 469.159,-259.489 511.018,-244 527.102,-238.048 528.371,-231.019 544.018,-224 593.658,-201.732 610.619,-208.492 661.018,-188 679.063,-180.663 682.55,-176.621 700.018,-168 752.074,-142.308 880.881,-74.1592 936.018,-56 1004.71,-33.3764 1088.9,-20.4749 1133.94,-14.7017"/>
<polygon fill="midnightblue" stroke="midnightblue" points="1134.5,-18.159 1143.99,-13.4493 1133.64,-11.2127 1134.5,-18.159"/>
</g>
<!-- Node18&#45;&gt;Node8 -->
<g id="edge42" class="edge"><title>Node18&#45;&gt;Node8</title>
<path fill="none" stroke="midnightblue" d="M198.726,-280.434C150.457,-267.533 76.0182,-238.062 76.0182,-179 76.0182,-179 76.0182,-179 76.0182,-121 76.0182,-80.1449 104.981,-75.2473 141.018,-56 203.65,-22.5485 287.993,-13.8373 334.22,-11.6499"/>
<polygon fill="midnightblue" stroke="midnightblue" points="334.447,-15.1437 344.3,-11.2488 334.169,-8.14923 334.447,-15.1437"/>
</g>
<!-- Node18&#45;&gt;Node10 -->
<g id="edge33" class="edge"><title>Node18&#45;&gt;Node10</title>
<path fill="none" stroke="midnightblue" d="M265.955,-280.444C294.679,-271.32 340.347,-256.813 372.339,-246.651"/>
<polygon fill="midnightblue" stroke="midnightblue" points="373.736,-249.88 382.207,-243.516 371.617,-243.208 373.736,-249.88"/>
</g>
<!-- Node18&#45;&gt;Node11 -->
<g id="edge32" class="edge"><title>Node18&#45;&gt;Node11</title>
<path fill="none" stroke="midnightblue" d="M229.693,-280.49C216.675,-267.562 196.035,-242.523 209.018,-224 221.162,-206.675 240.689,-195.994 260.689,-189.418"/>
<polygon fill="midnightblue" stroke="midnightblue" points="261.921,-192.703 270.515,-186.508 259.933,-185.991 261.921,-192.703"/>
</g>
<!-- Node18&#45;&gt;Node13 -->
<g id="edge39" class="edge"><title>Node18&#45;&gt;Node13</title>
<path fill="none" stroke="midnightblue" d="M228.304,-280.305C219.08,-272.069 206.427,-258.789 201.018,-244 197.965,-235.652 199.969,-232.827 201.018,-224 207.06,-173.154 200.048,-154.889 228.018,-112 236.71,-98.672 250.749,-87.7295 262.952,-79.9732"/>
<polygon fill="midnightblue" stroke="midnightblue" points="265.022,-82.8135 271.807,-74.6763 261.429,-76.8063 265.022,-82.8135"/>
</g>
<!-- Node19 -->
<g id="node19" class="node"><title>Node19</title>
<g id="a_node19"><a xlink:href="Mapper_8h.html" target="_top" xlink:title="Mapper.h">
<polygon fill="white" stroke="black" points="708.518,-168.5 708.518,-187.5 769.518,-187.5 769.518,-168.5 708.518,-168.5"/>
<text text-anchor="middle" x="739.018" y="-175.5" font-family="Verdana" font-size="10.00">Mapper.h</text>
</a>
</g>
</g>
<!-- Node18&#45;&gt;Node19 -->
<g id="edge34" class="edge"><title>Node18&#45;&gt;Node19</title>
<path fill="none" stroke="midnightblue" d="M279.24,-283.957C350.129,-274.92 494.492,-255.812 544.018,-244 603.127,-229.903 669.879,-205.801 707.953,-191.241"/>
<polygon fill="midnightblue" stroke="midnightblue" points="709.376,-194.443 717.447,-187.58 706.858,-187.912 709.376,-194.443"/>
</g>
<!-- Node20 -->
<g id="node20" class="node"><title>Node20</title>
<g id="a_node20"><a xlink:href="MappingContext_8h.html" target="_top" xlink:title="MappingContext.h">
<polygon fill="white" stroke="black" points="150.018,-56.5 150.018,-75.5 254.018,-75.5 254.018,-56.5 150.018,-56.5"/>
<text text-anchor="middle" x="202.018" y="-63.5" font-family="Verdana" font-size="10.00">MappingContext.h</text>
</a>
</g>
</g>
<!-- Node18&#45;&gt;Node20 -->
<g id="edge36" class="edge"><title>Node18&#45;&gt;Node20</title>
<path fill="none" stroke="midnightblue" d="M198.81,-282.028C176.846,-275.947 151.45,-264.69 138.018,-244 106.073,-194.794 110.98,-164.064 138.018,-112 145.171,-98.2262 158.689,-87.783 171.465,-80.4413"/>
<polygon fill="midnightblue" stroke="midnightblue" points="173.335,-83.412 180.536,-75.6403 170.06,-77.2252 173.335,-83.412"/>
</g>
<!-- Node21 -->
<g id="node21" class="node"><title>Node21</title>
<polygon fill="white" stroke="#bfbfbf" points="218.018,-224.5 218.018,-243.5 260.018,-243.5 260.018,-224.5 218.018,-224.5"/>
<text text-anchor="middle" x="239.018" y="-231.5" font-family="Verdana" font-size="10.00">stack</text>
</g>
<!-- Node18&#45;&gt;Node21 -->
<g id="edge40" class="edge"><title>Node18&#45;&gt;Node21</title>
<path fill="none" stroke="midnightblue" d="M239.018,-280.083C239.018,-273.006 239.018,-262.861 239.018,-253.986"/>
<polygon fill="midnightblue" stroke="midnightblue" points="242.518,-253.751 239.018,-243.751 235.518,-253.751 242.518,-253.751"/>
</g>
<!-- Node19&#45;&gt;Node6 -->
<g id="edge35" class="edge"><title>Node19&#45;&gt;Node6</title>
<path fill="none" stroke="midnightblue" d="M750.03,-168.347C768.896,-154.024 809.133,-125.619 848.018,-112 959.366,-73.0031 1007.61,-132.799 1111.02,-76 1130.79,-65.1414 1146.53,-44.1367 1156.02,-28.9376"/>
<polygon fill="midnightblue" stroke="midnightblue" points="1159.26,-30.3417 1161.34,-19.9529 1153.23,-26.7777 1159.26,-30.3417"/>
</g>
<!-- Node20&#45;&gt;Node4 -->
<g id="edge37" class="edge"><title>Node20&#45;&gt;Node4</title>
<path fill="none" stroke="midnightblue" d="M254.26,-57.2824C257.223,-56.8477 260.158,-56.4179 263.018,-56 362.115,-41.5202 479.01,-24.6673 537.221,-16.2905"/>
<polygon fill="midnightblue" stroke="midnightblue" points="537.99,-19.716 547.39,-14.8275 536.993,-12.7873 537.99,-19.716"/>
</g>
<!-- Node20&#45;&gt;Node6 -->
<g id="edge38" class="edge"><title>Node20&#45;&gt;Node6</title>
<path fill="none" stroke="midnightblue" d="M254.221,-56.9591C257.194,-56.6068 260.142,-56.2832 263.018,-56 602.715,-22.5553 1016.88,-13.4593 1133.88,-11.4786"/>
<polygon fill="midnightblue" stroke="midnightblue" points="1134.02,-14.9769 1143.96,-11.3134 1133.9,-7.97785 1134.02,-14.9769"/>
</g>
<!-- Node23&#45;&gt;Node6 -->
<g id="edge77" class="edge"><title>Node23&#45;&gt;Node6</title>
<path fill="none" stroke="midnightblue" d="M1204.75,-288.29C1333.25,-285.925 1685.04,-276.516 1725.02,-244 1748.37,-225.009 1744.02,-209.098 1744.02,-179 1744.02,-179 1744.02,-179 1744.02,-121 1744.02,-110.4 1835.96,-117.619 1568.02,-56 1432.89,-24.9237 1267.08,-15.0155 1198.29,-12.1085"/>
<polygon fill="midnightblue" stroke="midnightblue" points="1198.23,-8.60356 1188.1,-11.6999 1197.95,-15.5979 1198.23,-8.60356"/>
</g>
<!-- Node23&#45;&gt;Node8 -->
<g id="edge47" class="edge"><title>Node23&#45;&gt;Node8</title>
<path fill="none" stroke="midnightblue" d="M1111.44,-288.359C1044.46,-286.222 917.809,-277.615 816.018,-244 798.638,-238.26 797.351,-229.881 780.018,-224 676.628,-188.922 636.797,-232.319 537.018,-188 465.457,-156.214 450,-137.091 401.018,-76 389.537,-61.6798 380.473,-42.7231 374.772,-28.9796"/>
<polygon fill="midnightblue" stroke="midnightblue" points="378.015,-27.6624 371.084,-19.649 371.505,-30.2355 378.015,-27.6624"/>
</g>
<!-- Node23&#45;&gt;Node12 -->
<g id="edge67" class="edge"><title>Node23&#45;&gt;Node12</title>
<path fill="none" stroke="midnightblue" d="M1129.57,-280.412C1073.44,-263.387 944.526,-223.89 837.018,-188 808.561,-178.5 731.414,-151.035 686.565,-135.008"/>
<polygon fill="midnightblue" stroke="midnightblue" points="687.574,-131.652 676.979,-131.581 685.217,-138.243 687.574,-131.652"/>
</g>
<!-- Node23&#45;&gt;Node13 -->
<g id="edge48" class="edge"><title>Node23&#45;&gt;Node13</title>
<path fill="none" stroke="midnightblue" d="M1111.24,-287.99C1040.11,-285.417 901.106,-276.297 788.018,-244 767.751,-238.212 765.235,-229.961 745.018,-224 633.545,-191.131 597.136,-222.051 486.018,-188 432.046,-171.46 420.003,-161.733 372.018,-132 347.544,-116.835 321.549,-96.2084 304.846,-82.2913"/>
<polygon fill="midnightblue" stroke="midnightblue" points="306.916,-79.4592 297.015,-75.6897 302.405,-84.8112 306.916,-79.4592"/>
</g>
<!-- Node23&#45;&gt;Node16 -->
<g id="edge56" class="edge"><title>Node23&#45;&gt;Node16</title>
<path fill="none" stroke="midnightblue" d="M1116.81,-280.482C1052.67,-267.379 925.005,-241.92 816.018,-224 758.679,-214.572 601.516,-225.37 557.018,-188 526.553,-162.415 519.655,-112.872 518.239,-85.7928"/>
<polygon fill="midnightblue" stroke="midnightblue" points="521.734,-85.5808 517.916,-75.6981 514.738,-85.8051 521.734,-85.5808"/>
</g>
<!-- Node24 -->
<g id="node24" class="node"><title>Node24</title>
<polygon fill="white" stroke="#bfbfbf" points="672.518,-224.5 672.518,-243.5 735.518,-243.5 735.518,-224.5 672.518,-224.5"/>
<text text-anchor="middle" x="704.018" y="-231.5" font-family="Verdana" font-size="10.00">pthread.h</text>
</g>
<!-- Node23&#45;&gt;Node24 -->
<g id="edge45" class="edge"><title>Node23&#45;&gt;Node24</title>
<path fill="none" stroke="midnightblue" d="M1111.35,-285.128C1035.38,-278.539 880.344,-263.901 750.018,-244 748.56,-243.777 747.078,-243.541 745.583,-243.294"/>
<polygon fill="midnightblue" stroke="midnightblue" points="746.086,-239.829 735.631,-241.545 744.874,-246.724 746.086,-239.829"/>
</g>
<!-- Node25 -->
<g id="node25" class="node"><title>Node25</title>
<polygon fill="white" stroke="#bfbfbf" points="1188.02,-112.5 1188.02,-131.5 1226.02,-131.5 1226.02,-112.5 1188.02,-112.5"/>
<text text-anchor="middle" x="1207.02" y="-119.5" font-family="Verdana" font-size="10.00">map</text>
</g>
<!-- Node23&#45;&gt;Node25 -->
<g id="edge46" class="edge"><title>Node23&#45;&gt;Node25</title>
<path fill="none" stroke="midnightblue" d="M1159.38,-280.318C1162.69,-260.198 1171.89,-208.973 1186.02,-168 1189.21,-158.729 1193.72,-148.812 1197.73,-140.654"/>
<polygon fill="midnightblue" stroke="midnightblue" points="1200.85,-142.237 1202.27,-131.737 1194.62,-139.062 1200.85,-142.237"/>
</g>
<!-- Node26 -->
<g id="node26" class="node"><title>Node26</title>
<g id="a_node26"><a xlink:href="RemoteCommandHandlerTemplate_8h.html" target="_top" xlink:title="RemoteCommandHandlerTemplate.h">
<polygon fill="white" stroke="black" points="944.018,-168.5 944.018,-187.5 1138.02,-187.5 1138.02,-168.5 944.018,-168.5"/>
<text text-anchor="middle" x="1041.02" y="-175.5" font-family="Verdana" font-size="10.00">RemoteCommandHandlerTemplate.h</text>
</a>
</g>
</g>
<!-- Node23&#45;&gt;Node26 -->
<g id="edge49" class="edge"><title>Node23&#45;&gt;Node26</title>
<path fill="none" stroke="midnightblue" d="M1148.84,-280.368C1129.19,-261.894 1082.81,-218.293 1057.76,-194.744"/>
<polygon fill="midnightblue" stroke="midnightblue" points="1059.84,-191.891 1050.16,-187.591 1055.04,-196.991 1059.84,-191.891"/>
</g>
<!-- Node29 -->
<g id="node29" class="node"><title>Node29</title>
<g id="a_node29"><a xlink:href="SelectionCriterionType_8h.html" target="_top" xlink:title="SelectionCriterionType.h">
<polygon fill="white" stroke="black" points="1194.52,-168.5 1194.52,-187.5 1325.52,-187.5 1325.52,-168.5 1194.52,-168.5"/>
<text text-anchor="middle" x="1260.02" y="-175.5" font-family="Verdana" font-size="10.00">SelectionCriterionType.h</text>
</a>
</g>
</g>
<!-- Node23&#45;&gt;Node29 -->
<g id="edge57" class="edge"><title>Node23&#45;&gt;Node29</title>
<path fill="none" stroke="midnightblue" d="M1161.67,-280.236C1167.5,-266.977 1179.92,-241.512 1196.02,-224 1207.34,-211.69 1222.57,-200.813 1235.34,-192.837"/>
<polygon fill="midnightblue" stroke="midnightblue" points="1237.34,-195.717 1244.11,-187.563 1233.73,-189.718 1237.34,-195.717"/>
</g>
<!-- Node31 -->
<g id="node31" class="node"><title>Node31</title>
<g id="a_node31"><a xlink:href="SelectionCriterion_8h.html" target="_top" xlink:title="SelectionCriterion.h">
<polygon fill="white" stroke="black" points="1205.02,-224.5 1205.02,-243.5 1315.02,-243.5 1315.02,-224.5 1205.02,-224.5"/>
<text text-anchor="middle" x="1260.02" y="-231.5" font-family="Verdana" font-size="10.00">SelectionCriterion.h</text>
</a>
</g>
</g>
<!-- Node23&#45;&gt;Node31 -->
<g id="edge62" class="edge"><title>Node23&#45;&gt;Node31</title>
<path fill="none" stroke="midnightblue" d="M1174.41,-280.324C1190.69,-271.703 1215.89,-258.364 1234.73,-248.386"/>
<polygon fill="midnightblue" stroke="midnightblue" points="1236.47,-251.427 1243.67,-243.655 1233.2,-245.24 1236.47,-251.427"/>
</g>
<!-- Node33 -->
<g id="node33" class="node"><title>Node33</title>
<polygon fill="white" stroke="#bfbfbf" points="1333.52,-224.5 1333.52,-243.5 1416.52,-243.5 1416.52,-224.5 1333.52,-224.5"/>
<text text-anchor="middle" x="1375.02" y="-231.5" font-family="Verdana" font-size="10.00">XmlDocSink.h</text>
</g>
<!-- Node23&#45;&gt;Node33 -->
<g id="edge68" class="edge"><title>Node23&#45;&gt;Node33</title>
<path fill="none" stroke="midnightblue" d="M1192.4,-280.444C1229.94,-271.102 1290.15,-256.119 1331.09,-245.933"/>
<polygon fill="midnightblue" stroke="midnightblue" points="1331.94,-249.328 1340.79,-243.516 1330.25,-242.535 1331.94,-249.328"/>
</g>
<!-- Node34 -->
<g id="node34" class="node"><title>Node34</title>
<polygon fill="white" stroke="#bfbfbf" points="1435.02,-224.5 1435.02,-243.5 1531.02,-243.5 1531.02,-224.5 1435.02,-224.5"/>
<text text-anchor="middle" x="1483.02" y="-231.5" font-family="Verdana" font-size="10.00">XmlDocSource.h</text>
</g>
<!-- Node23&#45;&gt;Node34 -->
<g id="edge69" class="edge"><title>Node23&#45;&gt;Node34</title>
<path fill="none" stroke="midnightblue" d="M1204.58,-281.263C1262.61,-271.622 1361.79,-255.143 1424.78,-244.676"/>
<polygon fill="midnightblue" stroke="midnightblue" points="1425.66,-248.078 1434.95,-242.986 1424.51,-241.173 1425.66,-248.078"/>
</g>
<!-- Node35 -->
<g id="node35" class="node"><title>Node35</title>
<g id="a_node35"><a xlink:href="XmlDomainExportContext_8h.html" target="_top" xlink:title="XmlDomainExportContext.h">
<polygon fill="white" stroke="black" points="1558.52,-168.5 1558.52,-187.5 1707.52,-187.5 1707.52,-168.5 1558.52,-168.5"/>
<text text-anchor="middle" x="1633.02" y="-175.5" font-family="Verdana" font-size="10.00">XmlDomainExportContext.h</text>
</a>
</g>
</g>
<!-- Node23&#45;&gt;Node35 -->
<g id="edge70" class="edge"><title>Node23&#45;&gt;Node35</title>
<path fill="none" stroke="midnightblue" d="M1204.75,-286.351C1292.77,-280.894 1479.71,-266.949 1540.02,-244 1569.76,-232.681 1599,-209.76 1616.53,-194.389"/>
<polygon fill="midnightblue" stroke="midnightblue" points="1619.06,-196.826 1624.15,-187.534 1614.37,-191.624 1619.06,-196.826"/>
</g>
<!-- Node39 -->
<g id="node39" class="node"><title>Node39</title>
<polygon fill="white" stroke="#bfbfbf" points="1587.52,-224.5 1587.52,-243.5 1644.52,-243.5 1644.52,-224.5 1587.52,-224.5"/>
<text text-anchor="middle" x="1616.02" y="-231.5" font-family="Verdana" font-size="10.00">ostream</text>
</g>
<!-- Node23&#45;&gt;Node39 -->
<g id="edge78" class="edge"><title>Node23&#45;&gt;Node39</title>
<path fill="none" stroke="midnightblue" d="M1204.58,-285.454C1281.56,-279.255 1440.06,-265.07 1573.02,-244 1574.48,-243.769 1575.96,-243.521 1577.46,-243.26"/>
<polygon fill="midnightblue" stroke="midnightblue" points="1578.22,-246.678 1587.41,-241.397 1576.94,-239.798 1578.22,-246.678"/>
</g>
<!-- Node40 -->
<g id="node40" class="node"><title>Node40</title>
<polygon fill="white" stroke="#bfbfbf" points="1662.52,-224.5 1662.52,-243.5 1715.52,-243.5 1715.52,-224.5 1662.52,-224.5"/>
<text text-anchor="middle" x="1689.02" y="-231.5" font-family="Verdana" font-size="10.00">istream</text>
</g>
<!-- Node23&#45;&gt;Node40 -->
<g id="edge79" class="edge"><title>Node23&#45;&gt;Node40</title>
<path fill="none" stroke="midnightblue" d="M1204.85,-287.268C1291.5,-283.519 1482.77,-272.698 1652.26,-244.06"/>
<polygon fill="midnightblue" stroke="midnightblue" points="1653.1,-247.467 1662.36,-242.327 1651.91,-240.568 1653.1,-247.467"/>
</g>
<!-- Node26&#45;&gt;Node8 -->
<g id="edge50" class="edge"><title>Node26&#45;&gt;Node8</title>
<path fill="none" stroke="midnightblue" d="M997.944,-168.453C932.576,-155.585 804.356,-130.748 695.018,-112 592.174,-94.3651 560.036,-114.413 463.018,-76 454.915,-72.7918 413.748,-43.7774 388.337,-25.614"/>
<polygon fill="midnightblue" stroke="midnightblue" points="390.254,-22.6814 380.087,-19.702 386.177,-28.3715 390.254,-22.6814"/>
</g>
<!-- Node27 -->
<g id="node27" class="node"><title>Node27</title>
<g id="a_node27"><a xlink:href="RemoteCommandHandler_8h.html" target="_top" xlink:title="RemoteCommandHandler.h">
<polygon fill="white" stroke="black" points="1021.52,-112.5 1021.52,-131.5 1170.52,-131.5 1170.52,-112.5 1021.52,-112.5"/>
<text text-anchor="middle" x="1096.02" y="-119.5" font-family="Verdana" font-size="10.00">RemoteCommandHandler.h</text>
</a>
</g>
</g>
<!-- Node26&#45;&gt;Node27 -->
<g id="edge51" class="edge"><title>Node26&#45;&gt;Node27</title>
<path fill="none" stroke="midnightblue" d="M1050.1,-168.083C1058.19,-160.141 1070.21,-148.335 1079.93,-138.797"/>
<polygon fill="midnightblue" stroke="midnightblue" points="1082.42,-141.254 1087.11,-131.751 1077.52,-136.26 1082.42,-141.254"/>
</g>
<!-- Node27&#45;&gt;Node6 -->
<g id="edge55" class="edge"><title>Node27&#45;&gt;Node6</title>
<path fill="none" stroke="midnightblue" d="M1170.66,-112.825C1217.43,-105.99 1271.51,-94.3464 1286.02,-76 1312.55,-42.4503 1241.99,-23.8945 1198.08,-15.8695"/>
<polygon fill="midnightblue" stroke="midnightblue" points="1198.54,-12.3984 1188.09,-14.1401 1197.35,-19.2956 1198.54,-12.3984"/>
</g>
<!-- Node28 -->
<g id="node28" class="node"><title>Node28</title>
<g id="a_node28"><a xlink:href="RemoteCommand_8h.html" target="_top" xlink:title="RemoteCommand.h">
<polygon fill="white" stroke="black" points="988.518,-56.5 988.518,-75.5 1101.52,-75.5 1101.52,-56.5 988.518,-56.5"/>
<text text-anchor="middle" x="1045.02" y="-63.5" font-family="Verdana" font-size="10.00">RemoteCommand.h</text>
</a>
</g>
</g>
<!-- Node27&#45;&gt;Node28 -->
<g id="edge52" class="edge"><title>Node27&#45;&gt;Node28</title>
<path fill="none" stroke="midnightblue" d="M1087.6,-112.083C1080.17,-104.22 1069.17,-92.5688 1060.21,-83.0813"/>
<polygon fill="midnightblue" stroke="midnightblue" points="1062.69,-80.618 1053.28,-75.7511 1057.6,-85.4244 1062.69,-80.618"/>
</g>
<!-- Node28&#45;&gt;Node4 -->
<g id="edge53" class="edge"><title>Node28&#45;&gt;Node4</title>
<path fill="none" stroke="midnightblue" d="M988.205,-58.4863C890.344,-47.2666 692.619,-24.5976 610.776,-15.2142"/>
<polygon fill="midnightblue" stroke="midnightblue" points="611.033,-11.7209 600.699,-14.059 610.236,-18.6753 611.033,-11.7209"/>
</g>
<!-- Node28&#45;&gt;Node6 -->
<g id="edge54" class="edge"><title>Node28&#45;&gt;Node6</title>
<path fill="none" stroke="midnightblue" d="M1064.19,-56.4435C1083.93,-47.6356 1114.9,-33.8116 1137.51,-23.722"/>
<polygon fill="midnightblue" stroke="midnightblue" points="1139.23,-26.788 1146.94,-19.5164 1136.38,-20.3957 1139.23,-26.788"/>
</g>
<!-- Node29&#45;&gt;Node6 -->
<g id="edge60" class="edge"><title>Node29&#45;&gt;Node6</title>
<path fill="none" stroke="midnightblue" d="M1320.83,-168.475C1363.03,-161.17 1413.91,-149.102 1427.02,-132 1432.42,-124.944 1431.85,-119.46 1427.02,-112 1376.54,-34.0692 1255.98,-16.2056 1198.1,-12.1568"/>
<polygon fill="midnightblue" stroke="midnightblue" points="1198.24,-8.65931 1188.05,-11.5502 1197.82,-15.6466 1198.24,-8.65931"/>
</g>
<!-- Node29&#45;&gt;Node12 -->
<g id="edge58" class="edge"><title>Node29&#45;&gt;Node12</title>
<path fill="none" stroke="midnightblue" d="M1194.48,-171.17C1069.56,-160.056 800.49,-136.119 695.863,-126.812"/>
<polygon fill="midnightblue" stroke="midnightblue" points="695.949,-123.305 685.678,-125.905 695.328,-130.278 695.949,-123.305"/>
</g>
<!-- Node29&#45;&gt;Node25 -->
<g id="edge59" class="edge"><title>Node29&#45;&gt;Node25</title>
<path fill="none" stroke="midnightblue" d="M1251.27,-168.083C1243.55,-160.22 1232.11,-148.569 1222.8,-139.081"/>
<polygon fill="midnightblue" stroke="midnightblue" points="1225.11,-136.436 1215.61,-131.751 1220.11,-141.34 1225.11,-136.436"/>
</g>
<!-- Node30 -->
<g id="node30" class="node"><title>Node30</title>
<polygon fill="white" stroke="#bfbfbf" points="1244.52,-112.5 1244.52,-131.5 1417.52,-131.5 1417.52,-112.5 1244.52,-112.5"/>
<text text-anchor="middle" x="1331.02" y="-119.5" font-family="Verdana" font-size="10.00">SelectionCriterionTypeInterface.h</text>
</g>
<!-- Node29&#45;&gt;Node30 -->
<g id="edge61" class="edge"><title>Node29&#45;&gt;Node30</title>
<path fill="none" stroke="midnightblue" d="M1271.43,-168.324C1282.13,-160.185 1298.36,-147.839 1311.18,-138.087"/>
<polygon fill="midnightblue" stroke="midnightblue" points="1313.56,-140.673 1319.4,-131.834 1309.33,-135.102 1313.56,-140.673"/>
</g>
<!-- Node31&#45;&gt;Node6 -->
<g id="edge66" class="edge"><title>Node31&#45;&gt;Node6</title>
<path fill="none" stroke="midnightblue" d="M1275.73,-224.415C1319.69,-200.382 1440.82,-134.039 1442.02,-132 1446.53,-124.34 1445.1,-120.337 1442.02,-112 1430.65,-81.2556 1422.33,-72.5297 1394.02,-56 1331.47,-19.4772 1244.53,-12.0487 1198.16,-10.8699"/>
<polygon fill="midnightblue" stroke="midnightblue" points="1198.16,-7.3694 1188.1,-10.6975 1198.04,-14.3684 1198.16,-7.3694"/>
</g>
<!-- Node31&#45;&gt;Node12 -->
<g id="edge63" class="edge"><title>Node31&#45;&gt;Node12</title>
<path fill="none" stroke="midnightblue" d="M1204.86,-226.879C1140.02,-219.334 1029.27,-205.352 935.018,-188 849.428,-172.243 750.555,-148.05 695.56,-134.051"/>
<polygon fill="midnightblue" stroke="midnightblue" points="696.371,-130.646 685.816,-131.561 694.637,-137.428 696.371,-130.646"/>
</g>
<!-- Node31&#45;&gt;Node29 -->
<g id="edge64" class="edge"><title>Node31&#45;&gt;Node29</title>
<path fill="none" stroke="midnightblue" d="M1260.02,-224.083C1260.02,-217.006 1260.02,-206.861 1260.02,-197.986"/>
<polygon fill="midnightblue" stroke="midnightblue" points="1263.52,-197.751 1260.02,-187.751 1256.52,-197.751 1263.52,-197.751"/>
</g>
<!-- Node32 -->
<g id="node32" class="node"><title>Node32</title>
<polygon fill="white" stroke="#bfbfbf" points="1388.02,-168.5 1388.02,-187.5 1540.02,-187.5 1540.02,-168.5 1388.02,-168.5"/>
<text text-anchor="middle" x="1464.02" y="-175.5" font-family="Verdana" font-size="10.00">SelectionCriterionInterface.h</text>
</g>
<!-- Node31&#45;&gt;Node32 -->
<g id="edge65" class="edge"><title>Node31&#45;&gt;Node32</title>
<path fill="none" stroke="midnightblue" d="M1292.34,-224.444C1327.41,-215.162 1383.52,-200.309 1421.98,-190.127"/>
<polygon fill="midnightblue" stroke="midnightblue" points="1423.07,-193.459 1431.85,-187.516 1421.28,-186.692 1423.07,-193.459"/>
</g>
<!-- Node35&#45;&gt;Node6 -->
<g id="edge76" class="edge"><title>Node35&#45;&gt;Node6</title>
<path fill="none" stroke="midnightblue" d="M1605.47,-168.475C1585.69,-161.262 1559.4,-149.31 1541.02,-132 1512.77,-105.393 1530.15,-77.7632 1498.02,-56 1449.59,-23.2013 1272.36,-14.1635 1198.58,-11.7957"/>
<polygon fill="midnightblue" stroke="midnightblue" points="1198.58,-8.29399 1188.48,-11.4927 1198.37,-15.2908 1198.58,-8.29399"/>
</g>
<!-- Node36 -->
<g id="node36" class="node"><title>Node36</title>
<g id="a_node36"><a xlink:href="XmlDomainSerializingContext_8h.html" target="_top" xlink:title="XmlDomainSerializingContext.h">
<polygon fill="white" stroke="black" points="1549.52,-112.5 1549.52,-131.5 1716.52,-131.5 1716.52,-112.5 1549.52,-112.5"/>
<text text-anchor="middle" x="1633.02" y="-119.5" font-family="Verdana" font-size="10.00">XmlDomainSerializingContext.h</text>
</a>
</g>
</g>
<!-- Node35&#45;&gt;Node36 -->
<g id="edge71" class="edge"><title>Node35&#45;&gt;Node36</title>
<path fill="none" stroke="midnightblue" d="M1633.02,-168.083C1633.02,-161.006 1633.02,-150.861 1633.02,-141.986"/>
<polygon fill="midnightblue" stroke="midnightblue" points="1636.52,-141.751 1633.02,-131.751 1629.52,-141.751 1636.52,-141.751"/>
</g>
<!-- Node36&#45;&gt;Node6 -->
<g id="edge75" class="edge"><title>Node36&#45;&gt;Node6</title>
<path fill="none" stroke="midnightblue" d="M1623.68,-112.487C1607.31,-98.1057 1571.74,-69.272 1536.02,-56 1474.32,-33.0783 1277.03,-18.1699 1198.61,-13.0136"/>
<polygon fill="midnightblue" stroke="midnightblue" points="1198.57,-9.50348 1188.36,-12.351 1198.11,-16.4889 1198.57,-9.50348"/>
</g>
<!-- Node37 -->
<g id="node37" class="node"><title>Node37</title>
<g id="a_node37"><a xlink:href="XmlElementSerializingContext_8h.html" target="_top" xlink:title="XmlElementSerializingContext.h">
<polygon fill="white" stroke="black" points="1772.02,-56.5 1772.02,-75.5 1942.02,-75.5 1942.02,-56.5 1772.02,-56.5"/>
<text text-anchor="middle" x="1857.02" y="-63.5" font-family="Verdana" font-size="10.00">XmlElementSerializingContext.h</text>
</a>
</g>
</g>
<!-- Node36&#45;&gt;Node37 -->
<g id="edge72" class="edge"><title>Node36&#45;&gt;Node37</title>
<path fill="none" stroke="midnightblue" d="M1668.51,-112.444C1707.34,-103.083 1769.67,-88.0561 1811.94,-77.868"/>
<polygon fill="midnightblue" stroke="midnightblue" points="1812.79,-81.2626 1821.69,-75.5164 1811.15,-74.4576 1812.79,-81.2626"/>
</g>
<!-- Node37&#45;&gt;Node6 -->
<g id="edge74" class="edge"><title>Node37&#45;&gt;Node6</title>
<path fill="none" stroke="midnightblue" d="M1771.97,-57.1864C1767.25,-56.7784 1762.58,-56.3804 1758.02,-56 1544.32,-38.1656 1286.98,-19.5988 1198.06,-13.2683"/>
<polygon fill="midnightblue" stroke="midnightblue" points="1198.29,-9.77584 1188.07,-12.5579 1197.79,-16.7582 1198.29,-9.77584"/>
</g>
<!-- Node38 -->
<g id="node38" class="node"><title>Node38</title>
<polygon fill="white" stroke="#bfbfbf" points="1792.02,-0.5 1792.02,-19.5 1922.02,-19.5 1922.02,-0.5 1792.02,-0.5"/>
<text text-anchor="middle" x="1857.02" y="-7.5" font-family="Verdana" font-size="10.00">XmlSerializingContext.h</text>
</g>
<!-- Node37&#45;&gt;Node38 -->
<g id="edge73" class="edge"><title>Node37&#45;&gt;Node38</title>
<path fill="none" stroke="midnightblue" d="M1857.02,-56.083C1857.02,-49.0059 1857.02,-38.8611 1857.02,-29.9865"/>
<polygon fill="midnightblue" stroke="midnightblue" points="1860.52,-29.751 1857.02,-19.7511 1853.52,-29.7511 1860.52,-29.751"/>
</g>
<!-- Node41&#45;&gt;Node24 -->
<g id="edge81" class="edge"><title>Node41&#45;&gt;Node24</title>
<path fill="none" stroke="midnightblue" d="M623.845,-336.368C638.266,-318.135 672.045,-275.426 690.83,-251.675"/>
<polygon fill="midnightblue" stroke="midnightblue" points="693.765,-253.606 697.223,-243.591 688.275,-249.264 693.765,-253.606"/>
</g>
</g>
</svg>
