<?xml version="1.0" encoding="UTF-8" standalone="no"?>
<!DOCTYPE svg PUBLIC "-//W3C//DTD SVG 1.1//EN"
 "http://www.w3.org/Graphics/SVG/1.1/DTD/svg11.dtd">
<!-- Generated by graphviz version 2.36.0 (20140111.2315)
 -->
<!-- Title: parameter/ParameterBlockType.h Pages: 1 -->
<svg width="330pt" height="108pt"
 viewBox="0.00 0.00 330.00 108.00" xmlns="http://www.w3.org/2000/svg" xmlns:xlink="http://www.w3.org/1999/xlink">
<g id="graph0" class="graph" transform="scale(1 1) rotate(0) translate(4 104)">
<title>parameter/ParameterBlockType.h</title>
<polygon fill="white" stroke="none" points="-4,4 -4,-104 326,-104 326,4 -4,4"/>
<!-- Node1 -->
<g id="node1" class="node"><title>Node1</title>
<polygon fill="#bfbfbf" stroke="black" points="85,-69 85,-99 231,-99 231,-69 85,-69"/>
<text text-anchor="start" x="93" y="-87" font-family="Verdana" font-size="10.00">parameter/ParameterBlock</text>
<text text-anchor="middle" x="158" y="-76" font-family="Verdana" font-size="10.00">Type.h</text>
</g>
<!-- Node2 -->
<g id="node2" class="node"><title>Node2</title>
<g id="a_node2"><a xlink:href="ParameterBlockType_8cpp.html" target="_top" xlink:title="parameter/ParameterBlock\lType.cpp">
<polygon fill="white" stroke="black" points="0,-1 0,-31 146,-31 146,-1 0,-1"/>
<text text-anchor="start" x="8" y="-19" font-family="Verdana" font-size="10.00">parameter/ParameterBlock</text>
<text text-anchor="middle" x="73" y="-8" font-family="Verdana" font-size="10.00">Type.cpp</text>
</a>
</g>
</g>
<!-- Node1&#45;&gt;Node2 -->
<g id="edge1" class="edge"><title>Node1&#45;&gt;Node2</title>
<path fill="none" stroke="midnightblue" d="M131.353,-62.3094C118.259,-52.1426 102.822,-40.1562 91.1157,-31.0663"/>
<polygon fill="midnightblue" stroke="midnightblue" points="129.511,-65.3105 139.556,-68.679 133.804,-59.7815 129.511,-65.3105"/>
</g>
<!-- Node3 -->
<g id="node3" class="node"><title>Node3</title>
<g id="a_node3"><a xlink:href="ParameterMgr_8cpp.html" target="_top" xlink:title="parameter/ParameterMgr.cpp">
<polygon fill="white" stroke="black" points="164,-6.5 164,-25.5 322,-25.5 322,-6.5 164,-6.5"/>
<text text-anchor="middle" x="243" y="-13.5" font-family="Verdana" font-size="10.00">parameter/ParameterMgr.cpp</text>
</a>
</g>
</g>
<!-- Node1&#45;&gt;Node3 -->
<g id="edge2" class="edge"><title>Node1&#45;&gt;Node3</title>
<path fill="none" stroke="midnightblue" d="M184.36,-62.5324C200.222,-50.216 219.607,-35.1642 231.63,-25.8283"/>
<polygon fill="midnightblue" stroke="midnightblue" points="182.196,-59.7815 176.444,-68.679 186.489,-65.3105 182.196,-59.7815"/>
</g>
</g>
</svg>
