<?xml version="1.0" encoding="UTF-8" standalone="no"?>
<!DOCTYPE svg PUBLIC "-//W3C//DTD SVG 1.1//EN"
 "http://www.w3.org/Graphics/SVG/1.1/DTD/svg11.dtd">
<!-- Generated by graphviz version 2.38.0 (20140413.2041)
 -->
<!-- Title: parameter/include/ParameterMgrFullConnector.h Pages: 1 -->
<svg width="708pt" height="207pt"
 viewBox="0.00 0.00 707.50 207.00" xmlns="http://www.w3.org/2000/svg" xmlns:xlink="http://www.w3.org/1999/xlink">
<g id="graph0" class="graph" transform="scale(1 1) rotate(0) translate(4 203)">
<title>parameter/include/ParameterMgrFullConnector.h</title>
<polygon fill="white" stroke="none" points="-4,4 -4,-203 703.5,-203 703.5,4 -4,4"/>
<!-- Node1 -->
<g id="node1" class="node"><title>Node1</title>
<polygon fill="#bfbfbf" stroke="black" points="263,-168.5 263,-198.5 421,-198.5 421,-168.5 263,-168.5"/>
<text text-anchor="start" x="271" y="-186.5" font-family="Verdana" font-size="10.00">parameter/include/Parameter</text>
<text text-anchor="middle" x="342" y="-175.5" font-family="Verdana" font-size="10.00">MgrFullConnector.h</text>
</g>
<!-- Node2 -->
<g id="node2" class="node"><title>Node2</title>
<g id="a_node2"><a xlink:href="SelectionCriterionTypeInterface_8h.html" target="_top" xlink:title="SelectionCriterionTypeInterface.h">
<polygon fill="white" stroke="black" points="16.5,-56.5 16.5,-75.5 189.5,-75.5 189.5,-56.5 16.5,-56.5"/>
<text text-anchor="middle" x="103" y="-63.5" font-family="Verdana" font-size="10.00">SelectionCriterionTypeInterface.h</text>
</a>
</g>
</g>
<!-- Node1&#45;&gt;Node2 -->
<g id="edge1" class="edge"><title>Node1&#45;&gt;Node2</title>
<path fill="none" stroke="midnightblue" d="M295.884,-168.467C268.551,-159.457 233.585,-146.706 204,-132 174.368,-117.27 142.662,-95.8241 122.84,-81.6492"/>
<polygon fill="midnightblue" stroke="midnightblue" points="124.772,-78.7269 114.619,-75.6983 120.667,-84.3972 124.772,-78.7269"/>
</g>
<!-- Node3 -->
<g id="node3" class="node"><title>Node3</title>
<polygon fill="white" stroke="#bfbfbf" points="138,-0.5 138,-19.5 182,-19.5 182,-0.5 138,-0.5"/>
<text text-anchor="middle" x="160" y="-7.5" font-family="Verdana" font-size="10.00">string</text>
</g>
<!-- Node1&#45;&gt;Node3 -->
<g id="edge11" class="edge"><title>Node1&#45;&gt;Node3</title>
<path fill="none" stroke="midnightblue" d="M297.216,-168.403C276.939,-160.28 253.805,-148.376 237,-132 209.81,-105.503 219.05,-87.5958 198,-56 191.282,-45.9159 182.641,-35.5254 175.297,-27.2729"/>
<polygon fill="midnightblue" stroke="midnightblue" points="177.829,-24.8547 168.505,-19.8236 172.656,-29.5711 177.829,-24.8547"/>
</g>
<!-- Node4 -->
<g id="node4" class="node"><title>Node4</title>
<g id="a_node4"><a xlink:href="SelectionCriterionInterface_8h.html" target="_top" xlink:title="SelectionCriterionInterface.h">
<polygon fill="white" stroke="black" points="0,-112.5 0,-131.5 152,-131.5 152,-112.5 0,-112.5"/>
<text text-anchor="middle" x="76" y="-119.5" font-family="Verdana" font-size="10.00">SelectionCriterionInterface.h</text>
</a>
</g>
</g>
<!-- Node1&#45;&gt;Node4 -->
<g id="edge3" class="edge"><title>Node1&#45;&gt;Node4</title>
<path fill="none" stroke="midnightblue" d="M279.299,-168.475C231.805,-157.851 167.528,-143.473 124.062,-133.751"/>
<polygon fill="midnightblue" stroke="midnightblue" points="124.551,-130.274 114.028,-131.506 123.023,-137.105 124.551,-130.274"/>
</g>
<!-- Node5 -->
<g id="node5" class="node"><title>Node5</title>
<g id="a_node5"><a xlink:href="ParameterHandle_8h.html" target="_top" xlink:title="ParameterHandle.h">
<polygon fill="white" stroke="black" points="246,-112.5 246,-131.5 356,-131.5 356,-112.5 246,-112.5"/>
<text text-anchor="middle" x="301" y="-119.5" font-family="Verdana" font-size="10.00">ParameterHandle.h</text>
</a>
</g>
</g>
<!-- Node1&#45;&gt;Node5 -->
<g id="edge6" class="edge"><title>Node1&#45;&gt;Node5</title>
<path fill="none" stroke="midnightblue" d="M332.284,-168.399C326.449,-159.932 318.984,-149.099 312.81,-140.139"/>
<polygon fill="midnightblue" stroke="midnightblue" points="315.522,-137.906 306.966,-131.658 309.758,-141.878 315.522,-137.906"/>
</g>
<!-- Node6 -->
<g id="node6" class="node"><title>Node6</title>
<polygon fill="white" stroke="#bfbfbf" points="353.5,-56.5 353.5,-75.5 406.5,-75.5 406.5,-56.5 353.5,-56.5"/>
<text text-anchor="middle" x="380" y="-63.5" font-family="Verdana" font-size="10.00">stdint.h</text>
</g>
<!-- Node1&#45;&gt;Node6 -->
<g id="edge14" class="edge"><title>Node1&#45;&gt;Node6</title>
<path fill="none" stroke="midnightblue" d="M349.433,-168.228C354.379,-158.281 360.729,-144.59 365,-132 370.18,-116.731 374.162,-98.8464 376.717,-85.7062"/>
<polygon fill="midnightblue" stroke="midnightblue" points="380.216,-86.0345 378.59,-75.5652 373.332,-84.7635 380.216,-86.0345"/>
</g>
<!-- Node8 -->
<g id="node8" class="node"><title>Node8</title>
<g id="a_node8"><a xlink:href="ParameterMgrLoggerForward_8h.html" target="_top" xlink:title="ParameterMgrLoggerForward.h">
<polygon fill="white" stroke="black" points="412,-112.5 412,-131.5 576,-131.5 576,-112.5 412,-112.5"/>
<text text-anchor="middle" x="494" y="-119.5" font-family="Verdana" font-size="10.00">ParameterMgrLoggerForward.h</text>
</a>
</g>
</g>
<!-- Node1&#45;&gt;Node8 -->
<g id="edge10" class="edge"><title>Node1&#45;&gt;Node8</title>
<path fill="none" stroke="midnightblue" d="M378.022,-168.399C403.639,-158.372 437.727,-145.028 462.31,-135.405"/>
<polygon fill="midnightblue" stroke="midnightblue" points="463.846,-138.562 471.883,-131.658 461.295,-132.044 463.846,-138.562"/>
</g>
<!-- Node9 -->
<g id="node9" class="node"><title>Node9</title>
<polygon fill="white" stroke="#bfbfbf" points="594,-112.5 594,-131.5 624,-131.5 624,-112.5 594,-112.5"/>
<text text-anchor="middle" x="609" y="-119.5" font-family="Verdana" font-size="10.00">list</text>
</g>
<!-- Node1&#45;&gt;Node9 -->
<g id="edge12" class="edge"><title>Node1&#45;&gt;Node9</title>
<path fill="none" stroke="midnightblue" d="M421.274,-169.215C466.61,-160.872 524.596,-148.948 583.958,-131.956"/>
<polygon fill="midnightblue" stroke="midnightblue" points="585.258,-135.223 593.883,-129.071 583.304,-128.501 585.258,-135.223"/>
</g>
<!-- Node10 -->
<g id="node10" class="node"><title>Node10</title>
<polygon fill="white" stroke="#bfbfbf" points="642.5,-112.5 642.5,-131.5 699.5,-131.5 699.5,-112.5 642.5,-112.5"/>
<text text-anchor="middle" x="671" y="-119.5" font-family="Verdana" font-size="10.00">memory</text>
</g>
<!-- Node1&#45;&gt;Node10 -->
<g id="edge13" class="edge"><title>Node1&#45;&gt;Node10</title>
<path fill="none" stroke="midnightblue" d="M421.29,-170.075C477.533,-160.951 555.006,-147.758 632.47,-132.004"/>
<polygon fill="midnightblue" stroke="midnightblue" points="633.313,-135.404 642.407,-129.968 631.908,-128.546 633.313,-135.404"/>
</g>
<!-- Node2&#45;&gt;Node3 -->
<g id="edge2" class="edge"><title>Node2&#45;&gt;Node3</title>
<path fill="none" stroke="midnightblue" d="M112.158,-56.324C120.501,-48.4196 133.032,-36.5482 143.177,-26.9377"/>
<polygon fill="midnightblue" stroke="midnightblue" points="145.823,-29.2522 150.675,-19.8339 141.009,-24.1705 145.823,-29.2522"/>
</g>
<!-- Node4&#45;&gt;Node2 -->
<g id="edge5" class="edge"><title>Node4&#45;&gt;Node2</title>
<path fill="none" stroke="midnightblue" d="M80.4585,-112.083C84.1543,-104.691 89.5234,-93.9533 94.0945,-84.8111"/>
<polygon fill="midnightblue" stroke="midnightblue" points="97.2828,-86.2606 98.6245,-75.7511 91.0218,-83.1301 97.2828,-86.2606"/>
</g>
<!-- Node4&#45;&gt;Node3 -->
<g id="edge4" class="edge"><title>Node4&#45;&gt;Node3</title>
<path fill="none" stroke="midnightblue" d="M54.0165,-112.323C27.886,-100.717 -10.1556,-78.9281 7,-56 21.4963,-36.6261 87.5193,-22.7305 127.951,-15.8638"/>
<polygon fill="midnightblue" stroke="midnightblue" points="128.578,-19.3078 137.877,-14.2314 127.442,-12.4006 128.578,-19.3078"/>
</g>
<!-- Node5&#45;&gt;Node3 -->
<g id="edge8" class="edge"><title>Node5&#45;&gt;Node3</title>
<path fill="none" stroke="midnightblue" d="M292.982,-112.432C280.585,-99.43 255.716,-74.2951 232,-56 216.969,-44.4043 198.839,-33.0866 184.532,-24.7021"/>
<polygon fill="midnightblue" stroke="midnightblue" points="186.166,-21.6038 175.754,-19.6423 182.67,-27.6685 186.166,-21.6038"/>
</g>
<!-- Node5&#45;&gt;Node6 -->
<g id="edge7" class="edge"><title>Node5&#45;&gt;Node6</title>
<path fill="none" stroke="midnightblue" d="M313.693,-112.324C325.901,-103.979 344.578,-91.2122 359.003,-81.3524"/>
<polygon fill="midnightblue" stroke="midnightblue" points="361.058,-84.1871 367.339,-75.6545 357.108,-78.4082 361.058,-84.1871"/>
</g>
<!-- Node7 -->
<g id="node7" class="node"><title>Node7</title>
<polygon fill="white" stroke="#bfbfbf" points="284.5,-56.5 284.5,-75.5 331.5,-75.5 331.5,-56.5 284.5,-56.5"/>
<text text-anchor="middle" x="308" y="-63.5" font-family="Verdana" font-size="10.00">vector</text>
</g>
<!-- Node5&#45;&gt;Node7 -->
<g id="edge9" class="edge"><title>Node5&#45;&gt;Node7</title>
<path fill="none" stroke="midnightblue" d="M302.156,-112.083C303.084,-104.927 304.418,-94.6353 305.577,-85.6911"/>
<polygon fill="midnightblue" stroke="midnightblue" points="309.051,-86.1181 306.866,-75.7511 302.109,-85.2181 309.051,-86.1181"/>
</g>
</g>
</svg>
