<?xml version="1.0" encoding="UTF-8" standalone="no"?>
<!DOCTYPE svg PUBLIC "-//W3C//DTD SVG 1.1//EN"
 "http://www.w3.org/Graphics/SVG/1.1/DTD/svg11.dtd">
<!-- Generated by graphviz version 2.38.0 (20140413.2041)
 -->
<!-- Title: pfwSetIntParameter Pages: 1 -->
<svg width="695pt" height="157pt"
 viewBox="0.00 0.00 695.00 156.50" xmlns="http://www.w3.org/2000/svg" xmlns:xlink="http://www.w3.org/1999/xlink">
<g id="graph0" class="graph" transform="scale(1 1) rotate(0) translate(4 152.5)">
<title>pfwSetIntParameter</title>
<polygon fill="white" stroke="none" points="-4,4 -4,-152.5 691,-152.5 691,4 -4,4"/>
<!-- Node1 -->
<g id="node1" class="node"><title>Node1</title>
<polygon fill="#bfbfbf" stroke="black" points="0,-69 0,-88 111,-88 111,-69 0,-69"/>
<text text-anchor="middle" x="55.5" y="-76" font-family="Verdana" font-size="10.00">pfwSetIntParameter</text>
</g>
<!-- Node2 -->
<g id="node2" class="node"><title>Node2</title>
<g id="a_node2"><a xlink:href="classStatus.html#a02f271ac768f84947beb80573366de26" target="_top" xlink:title="Fail without an instance of status. ">
<polygon fill="white" stroke="black" points="192,-129 192,-148 275,-148 275,-129 192,-129"/>
<text text-anchor="middle" x="233.5" y="-136" font-family="Verdana" font-size="10.00">Status::failure</text>
</a>
</g>
</g>
<!-- Node1&#45;&gt;Node2 -->
<g id="edge1" class="edge"><title>Node1&#45;&gt;Node2</title>
<path fill="none" stroke="midnightblue" d="M74.7674,-88.1329C92.7334,-97.2785 121.148,-110.875 147,-119.5 158.045,-123.185 170.131,-126.365 181.649,-129.013"/>
<polygon fill="midnightblue" stroke="midnightblue" points="181.064,-132.468 191.583,-131.203 182.571,-125.632 181.064,-132.468"/>
</g>
<!-- Node3 -->
<g id="node3" class="node"><title>Node3</title>
<g id="a_node3"><a xlink:href="classStatus.html#aa1a645f1b88f85f21594b4654aeced14" target="_top" xlink:title="Forward a status operation. ">
<polygon fill="white" stroke="black" points="189,-91 189,-110 278,-110 278,-91 189,-91"/>
<text text-anchor="middle" x="233.5" y="-98" font-family="Verdana" font-size="10.00">Status::forward</text>
</a>
</g>
</g>
<!-- Node1&#45;&gt;Node3 -->
<g id="edge2" class="edge"><title>Node1&#45;&gt;Node3</title>
<path fill="none" stroke="midnightblue" d="M111.223,-85.3403C132.827,-88.0408 157.569,-91.1336 179.047,-93.8183"/>
<polygon fill="midnightblue" stroke="midnightblue" points="178.623,-97.2926 188.98,-95.06 179.492,-90.3466 178.623,-97.2926"/>
</g>
<!-- Node5 -->
<g id="node5" class="node"><title>Node5</title>
<g id="a_node5"><a xlink:href="classCParameterHandle.html#aca2f7f29237c1cef42fe6b9c2edaf0d3" target="_top" xlink:title="CParameterHandle::setAsSigned\lInteger">
<polygon fill="white" stroke="black" points="147,-41.5 147,-71.5 320,-71.5 320,-41.5 147,-41.5"/>
<text text-anchor="start" x="155" y="-59.5" font-family="Verdana" font-size="10.00">CParameterHandle::setAsSigned</text>
<text text-anchor="middle" x="233.5" y="-48.5" font-family="Verdana" font-size="10.00">Integer</text>
</a>
</g>
</g>
<!-- Node1&#45;&gt;Node5 -->
<g id="edge4" class="edge"><title>Node1&#45;&gt;Node5</title>
<path fill="none" stroke="midnightblue" d="M111.223,-71.6597C119.346,-70.6443 127.913,-69.5734 136.583,-68.4896"/>
<polygon fill="midnightblue" stroke="midnightblue" points="137.299,-71.9274 146.788,-67.214 136.431,-64.9815 137.299,-71.9274"/>
</g>
<!-- Node9 -->
<g id="node9" class="node"><title>Node9</title>
<g id="a_node9"><a xlink:href="classStatus.html#ace8ccfda8d86810fba5391d8cb84f454" target="_top" xlink:title="Error message accessors. ">
<polygon fill="white" stroke="black" points="196,-3 196,-22 271,-22 271,-3 196,-3"/>
<text text-anchor="middle" x="233.5" y="-10" font-family="Verdana" font-size="10.00">Status::msg</text>
</a>
</g>
</g>
<!-- Node1&#45;&gt;Node9 -->
<g id="edge8" class="edge"><title>Node1&#45;&gt;Node9</title>
<path fill="none" stroke="midnightblue" d="M71.9508,-68.8821C89.5277,-58.3252 119.381,-41.5452 147,-31.5 159.291,-27.0298 172.973,-23.4187 185.726,-20.594"/>
<polygon fill="midnightblue" stroke="midnightblue" points="186.643,-23.9778 195.709,-18.4958 185.203,-17.1275 186.643,-23.9778"/>
</g>
<!-- Node4 -->
<g id="node4" class="node"><title>Node4</title>
<g id="a_node4"><a xlink:href="classStatus.html#a2141902ca2f1157a8e25f66a21c988e5" target="_top" xlink:title="Success (no error message). ">
<polygon fill="white" stroke="black" points="393.5,-91 393.5,-110 485.5,-110 485.5,-91 393.5,-91"/>
<text text-anchor="middle" x="439.5" y="-98" font-family="Verdana" font-size="10.00">Status::success</text>
</a>
</g>
</g>
<!-- Node3&#45;&gt;Node4 -->
<g id="edge3" class="edge"><title>Node3&#45;&gt;Node4</title>
<path fill="none" stroke="midnightblue" d="M278.013,-100.5C308.634,-100.5 349.876,-100.5 382.884,-100.5"/>
<polygon fill="midnightblue" stroke="midnightblue" points="383.288,-104 393.288,-100.5 383.288,-97.0001 383.288,-104"/>
</g>
<!-- Node6 -->
<g id="node6" class="node"><title>Node6</title>
<g id="a_node6"><a xlink:href="classCParameterMgr.html#a25606ff4b96a3539dd76723fb4346d67" target="_top" xlink:title="CParameterMgr::tuningModeOn">
<polygon fill="white" stroke="black" points="356,-50 356,-69 523,-69 523,-50 356,-50"/>
<text text-anchor="middle" x="439.5" y="-57" font-family="Verdana" font-size="10.00">CParameterMgr::tuningModeOn</text>
</a>
</g>
</g>
<!-- Node5&#45;&gt;Node6 -->
<g id="edge5" class="edge"><title>Node5&#45;&gt;Node6</title>
<path fill="none" stroke="midnightblue" d="M320.128,-57.7592C328.5,-57.8823 337.023,-58.0077 345.463,-58.1318"/>
<polygon fill="midnightblue" stroke="midnightblue" points="345.652,-61.6349 355.702,-58.2824 345.755,-54.6356 345.652,-61.6349"/>
</g>
<!-- Node7 -->
<g id="node7" class="node"><title>Node7</title>
<g id="a_node7"><a xlink:href="classCBaseParameter.html#a231e9def106391b96fb0671f4214f105" target="_top" xlink:title="CBaseParameter::accessAs\lSignedInteger">
<polygon fill="white" stroke="black" points="365,-0.5 365,-30.5 514,-30.5 514,-0.5 365,-0.5"/>
<text text-anchor="start" x="373" y="-18.5" font-family="Verdana" font-size="10.00">CBaseParameter::accessAs</text>
<text text-anchor="middle" x="439.5" y="-7.5" font-family="Verdana" font-size="10.00">SignedInteger</text>
</a>
</g>
</g>
<!-- Node5&#45;&gt;Node7 -->
<g id="edge6" class="edge"><title>Node5&#45;&gt;Node7</title>
<path fill="none" stroke="midnightblue" d="M309.304,-41.4659C324.135,-38.485 339.795,-35.3378 354.897,-32.3025"/>
<polygon fill="midnightblue" stroke="midnightblue" points="355.613,-35.7287 364.727,-30.3268 354.234,-28.8659 355.613,-35.7287"/>
</g>
<!-- Node8 -->
<g id="node8" class="node"><title>Node8</title>
<g id="a_node8"><a xlink:href="classCErrorContext.html#a9d58b281c0d0fc9a6d3b83714cf812ef" target="_top" xlink:title="CErrorContext::setError">
<polygon fill="white" stroke="black" points="559,-6 559,-25 687,-25 687,-6 559,-6"/>
<text text-anchor="middle" x="623" y="-13" font-family="Verdana" font-size="10.00">CErrorContext::setError</text>
</a>
</g>
</g>
<!-- Node7&#45;&gt;Node8 -->
<g id="edge7" class="edge"><title>Node7&#45;&gt;Node8</title>
<path fill="none" stroke="midnightblue" d="M514.061,-15.5C525.422,-15.5 537.155,-15.5 548.514,-15.5"/>
<polygon fill="midnightblue" stroke="midnightblue" points="548.818,-19.0001 558.818,-15.5 548.818,-12.0001 548.818,-19.0001"/>
</g>
</g>
</svg>
