<?xml version="1.0" encoding="UTF-8" standalone="no"?>
<!DOCTYPE svg PUBLIC "-//W3C//DTD SVG 1.1//EN"
 "http://www.w3.org/Graphics/SVG/1.1/DTD/svg11.dtd">
<!-- Generated by graphviz version 2.38.0 (20140413.2041)
 -->
<!-- Title: parameter/include/ParameterMgrPlatformConnector.h Pages: 1 -->
<svg width="594pt" height="173pt"
 viewBox="0.00 0.00 593.50 173.00" xmlns="http://www.w3.org/2000/svg" xmlns:xlink="http://www.w3.org/1999/xlink">
<g id="graph0" class="graph" transform="scale(1 1) rotate(0) translate(4 169)">
<title>parameter/include/ParameterMgrPlatformConnector.h</title>
<polygon fill="white" stroke="none" points="-4,4 -4,-169 589.5,-169 589.5,4 -4,4"/>
<!-- Node1 -->
<g id="node1" class="node"><title>Node1</title>
<polygon fill="#bfbfbf" stroke="black" points="298,-134.5 298,-164.5 456,-164.5 456,-134.5 298,-134.5"/>
<text text-anchor="start" x="306" y="-152.5" font-family="Verdana" font-size="10.00">parameter/include/Parameter</text>
<text text-anchor="middle" x="377" y="-141.5" font-family="Verdana" font-size="10.00">MgrPlatformConnector.h</text>
</g>
<!-- Node2 -->
<g id="node2" class="node"><title>Node2</title>
<g id="a_node2"><a xlink:href="ParameterFramework_8cpp.html" target="_top" xlink:title="bindings/c/ParameterFramework.cpp">
<polygon fill="white" stroke="black" points="0,-73 0,-92 190,-92 190,-73 0,-73"/>
<text text-anchor="middle" x="95" y="-80" font-family="Verdana" font-size="10.00">bindings/c/ParameterFramework.cpp</text>
</a>
</g>
</g>
<!-- Node1&#45;&gt;Node2 -->
<g id="edge1" class="edge"><title>Node1&#45;&gt;Node2</title>
<path fill="none" stroke="midnightblue" d="M306.405,-132.228C251.035,-119.466 176.18,-102.212 132.001,-92.0287"/>
<polygon fill="midnightblue" stroke="midnightblue" points="305.627,-135.64 316.157,-134.476 307.199,-128.819 305.627,-135.64"/>
</g>
<!-- Node3 -->
<g id="node3" class="node"><title>Node3</title>
<g id="a_node3"><a xlink:href="ParameterMgrPlatformConnector_8cpp.html" target="_top" xlink:title="parameter/ParameterMgrPlatform\lConnector.cpp">
<polygon fill="white" stroke="black" points="208.5,-67.5 208.5,-97.5 387.5,-97.5 387.5,-67.5 208.5,-67.5"/>
<text text-anchor="start" x="216.5" y="-85.5" font-family="Verdana" font-size="10.00">parameter/ParameterMgrPlatform</text>
<text text-anchor="middle" x="298" y="-74.5" font-family="Verdana" font-size="10.00">Connector.cpp</text>
</a>
</g>
</g>
<!-- Node1&#45;&gt;Node3 -->
<g id="edge2" class="edge"><title>Node1&#45;&gt;Node3</title>
<path fill="none" stroke="midnightblue" d="M351.943,-127.883C339.937,-118.005 325.868,-106.429 315.108,-97.5765"/>
<polygon fill="midnightblue" stroke="midnightblue" points="349.912,-130.745 359.858,-134.396 354.36,-125.34 349.912,-130.745"/>
</g>
<!-- Node4 -->
<g id="node4" class="node"><title>Node4</title>
<g id="a_node4"><a xlink:href="TestPlatform_8h.html" target="_top" xlink:title="test/test&#45;platform\l/TestPlatform.h">
<polygon fill="white" stroke="black" points="405.5,-67.5 405.5,-97.5 506.5,-97.5 506.5,-67.5 405.5,-67.5"/>
<text text-anchor="start" x="413.5" y="-85.5" font-family="Verdana" font-size="10.00">test/test&#45;platform</text>
<text text-anchor="middle" x="456" y="-74.5" font-family="Verdana" font-size="10.00">/TestPlatform.h</text>
</a>
</g>
</g>
<!-- Node1&#45;&gt;Node4 -->
<g id="edge3" class="edge"><title>Node1&#45;&gt;Node4</title>
<path fill="none" stroke="midnightblue" d="M402.057,-127.883C414.063,-118.005 428.132,-106.429 438.892,-97.5765"/>
<polygon fill="midnightblue" stroke="midnightblue" points="399.64,-125.34 394.142,-134.396 404.088,-130.745 399.64,-125.34"/>
</g>
<!-- Node6 -->
<g id="node6" class="node"><title>Node6</title>
<g id="a_node6"><a xlink:href="TestPlatform_8cpp.html" target="_top" xlink:title="test/test&#45;platform\l/TestPlatform.cpp">
<polygon fill="white" stroke="black" points="484.5,-0.5 484.5,-30.5 585.5,-30.5 585.5,-0.5 484.5,-0.5"/>
<text text-anchor="start" x="492.5" y="-18.5" font-family="Verdana" font-size="10.00">test/test&#45;platform</text>
<text text-anchor="middle" x="535" y="-7.5" font-family="Verdana" font-size="10.00">/TestPlatform.cpp</text>
</a>
</g>
</g>
<!-- Node1&#45;&gt;Node6 -->
<g id="edge6" class="edge"><title>Node1&#45;&gt;Node6</title>
<path fill="none" stroke="midnightblue" d="M465.677,-131.014C484.486,-123.595 502.663,-113.034 516,-98 532.68,-79.198 535.493,-48.5886 535.564,-30.7168"/>
<polygon fill="midnightblue" stroke="midnightblue" points="464.3,-127.791 456.109,-134.512 466.703,-134.365 464.3,-127.791"/>
</g>
<!-- Node5 -->
<g id="node5" class="node"><title>Node5</title>
<g id="a_node5"><a xlink:href="test_2test-platform_2main_8cpp.html" target="_top" xlink:title="test/test&#45;platform\l/main.cpp">
<polygon fill="white" stroke="black" points="365.5,-0.5 365.5,-30.5 466.5,-30.5 466.5,-0.5 365.5,-0.5"/>
<text text-anchor="start" x="373.5" y="-18.5" font-family="Verdana" font-size="10.00">test/test&#45;platform</text>
<text text-anchor="middle" x="416" y="-7.5" font-family="Verdana" font-size="10.00">/main.cpp</text>
</a>
</g>
</g>
<!-- Node4&#45;&gt;Node5 -->
<g id="edge4" class="edge"><title>Node4&#45;&gt;Node5</title>
<path fill="none" stroke="midnightblue" d="M442.072,-58.8669C436.283,-49.4594 429.744,-38.8334 424.662,-30.5765"/>
<polygon fill="midnightblue" stroke="midnightblue" points="439.099,-60.7137 447.321,-67.396 445.06,-57.045 439.099,-60.7137"/>
</g>
<!-- Node4&#45;&gt;Node6 -->
<g id="edge5" class="edge"><title>Node4&#45;&gt;Node6</title>
<path fill="none" stroke="midnightblue" d="M481.057,-60.8832C493.063,-51.0054 507.132,-39.4293 517.892,-30.5765"/>
<polygon fill="midnightblue" stroke="midnightblue" points="478.64,-58.3395 473.142,-67.396 483.088,-63.745 478.64,-58.3395"/>
</g>
</g>
</svg>
