<?xml version="1.0" encoding="UTF-8" standalone="no"?>
<!DOCTYPE svg PUBLIC "-//W3C//DTD SVG 1.1//EN"
 "http://www.w3.org/Graphics/SVG/1.1/DTD/svg11.dtd">
<!-- Generated by graphviz version 2.38.0 (20140413.2041)
 -->
<!-- Title: parameter/ParameterBlock.h Pages: 1 -->
<svg width="655pt" height="420pt"
 viewBox="0.00 0.00 655.00 420.00" xmlns="http://www.w3.org/2000/svg" xmlns:xlink="http://www.w3.org/1999/xlink">
<g id="graph0" class="graph" transform="scale(1 1) rotate(0) translate(4 416)">
<title>parameter/ParameterBlock.h</title>
<polygon fill="white" stroke="none" points="-4,4 -4,-416 651,-416 651,4 -4,4"/>
<!-- Node1 -->
<g id="node1" class="node"><title>Node1</title>
<polygon fill="#bfbfbf" stroke="black" points="439.5,-392.5 439.5,-411.5 594.5,-411.5 594.5,-392.5 439.5,-392.5"/>
<text text-anchor="middle" x="517" y="-399.5" font-family="Verdana" font-size="10.00">parameter/ParameterBlock.h</text>
</g>
<!-- Node2 -->
<g id="node2" class="node"><title>Node2</title>
<g id="a_node2"><a xlink:href="InstanceConfigurableElement_8h.html" target="_top" xlink:title="InstanceConfigurableElement.h">
<polygon fill="white" stroke="black" points="272,-336.5 272,-355.5 438,-355.5 438,-336.5 272,-336.5"/>
<text text-anchor="middle" x="355" y="-343.5" font-family="Verdana" font-size="10.00">InstanceConfigurableElement.h</text>
</a>
</g>
</g>
<!-- Node1&#45;&gt;Node2 -->
<g id="edge1" class="edge"><title>Node1&#45;&gt;Node2</title>
<path fill="none" stroke="midnightblue" d="M491.331,-392.444C464.077,-383.359 420.816,-368.939 390.349,-358.783"/>
<polygon fill="midnightblue" stroke="midnightblue" points="391.143,-355.358 380.549,-355.516 388.929,-361.999 391.143,-355.358"/>
</g>
<!-- Node6 -->
<g id="node6" class="node"><title>Node6</title>
<polygon fill="white" stroke="#bfbfbf" points="326,-0.5 326,-19.5 370,-19.5 370,-0.5 326,-0.5"/>
<text text-anchor="middle" x="348" y="-7.5" font-family="Verdana" font-size="10.00">string</text>
</g>
<!-- Node1&#45;&gt;Node6 -->
<g id="edge34" class="edge"><title>Node1&#45;&gt;Node6</title>
<path fill="none" stroke="midnightblue" d="M542.684,-392.466C580.57,-378.066 647,-345.104 647,-291 647,-291 647,-291 647,-121 647,-72.3765 603.335,-75.9667 559,-56 550.842,-52.3258 437.28,-29.06 380.229,-17.5007"/>
<polygon fill="midnightblue" stroke="midnightblue" points="380.768,-14.0388 370.273,-15.4859 379.38,-20.8998 380.768,-14.0388"/>
</g>
<!-- Node3 -->
<g id="node3" class="node"><title>Node3</title>
<polygon fill="white" stroke="#bfbfbf" points="467.5,-168.5 467.5,-187.5 580.5,-187.5 580.5,-168.5 467.5,-168.5"/>
<text text-anchor="middle" x="524" y="-175.5" font-family="Verdana" font-size="10.00">parameter_export.h</text>
</g>
<!-- Node2&#45;&gt;Node3 -->
<g id="edge2" class="edge"><title>Node2&#45;&gt;Node3</title>
<path fill="none" stroke="midnightblue" d="M433.529,-336.478C457.936,-330.067 482.896,-319.004 500,-300 525.584,-271.574 527.154,-223.929 525.763,-197.709"/>
<polygon fill="midnightblue" stroke="midnightblue" points="529.244,-197.324 525.019,-187.608 522.263,-197.838 529.244,-197.324"/>
</g>
<!-- Node4 -->
<g id="node4" class="node"><title>Node4</title>
<g id="a_node4"><a xlink:href="ConfigurableElement_8h.html" target="_top" xlink:title="ConfigurableElement.h">
<polygon fill="white" stroke="black" points="229.5,-280.5 229.5,-299.5 354.5,-299.5 354.5,-280.5 229.5,-280.5"/>
<text text-anchor="middle" x="292" y="-287.5" font-family="Verdana" font-size="10.00">ConfigurableElement.h</text>
</a>
</g>
</g>
<!-- Node2&#45;&gt;Node4 -->
<g id="edge3" class="edge"><title>Node2&#45;&gt;Node4</title>
<path fill="none" stroke="midnightblue" d="M344.878,-336.324C335.474,-328.263 321.256,-316.077 309.931,-306.369"/>
<polygon fill="midnightblue" stroke="midnightblue" points="312.177,-303.684 302.306,-299.834 307.621,-308.999 312.177,-303.684"/>
</g>
<!-- Node2&#45;&gt;Node6 -->
<g id="edge33" class="edge"><title>Node2&#45;&gt;Node6</title>
<path fill="none" stroke="midnightblue" d="M275.331,-336.467C170.665,-323.001 0,-292.264 0,-235 0,-235 0,-235 0,-121 0,-55.0798 229.892,-23.6496 315.974,-14.1915"/>
<polygon fill="midnightblue" stroke="midnightblue" points="316.396,-17.6663 325.967,-13.1218 315.651,-10.7061 316.396,-17.6663"/>
</g>
<!-- Node16 -->
<g id="node16" class="node"><title>Node16</title>
<polygon fill="white" stroke="#bfbfbf" points="28,-224.5 28,-243.5 58,-243.5 58,-224.5 28,-224.5"/>
<text text-anchor="middle" x="43" y="-231.5" font-family="Verdana" font-size="10.00">list</text>
</g>
<!-- Node2&#45;&gt;Node16 -->
<g id="edge32" class="edge"><title>Node2&#45;&gt;Node16</title>
<path fill="none" stroke="midnightblue" d="M328.534,-336.44C301.257,-327.556 257.54,-313.146 220,-300 165.401,-280.88 101.837,-257.183 67.7035,-244.34"/>
<polygon fill="midnightblue" stroke="midnightblue" points="68.6895,-240.971 58.0976,-240.719 66.2207,-247.521 68.6895,-240.971"/>
</g>
<!-- Node17 -->
<g id="node17" class="node"><title>Node17</title>
<g id="a_node17"><a xlink:href="TypeElement_8h.html" target="_top" xlink:title="TypeElement.h">
<polygon fill="white" stroke="black" points="405,-280.5 405,-299.5 491,-299.5 491,-280.5 405,-280.5"/>
<text text-anchor="middle" x="448" y="-287.5" font-family="Verdana" font-size="10.00">TypeElement.h</text>
</a>
</g>
</g>
<!-- Node2&#45;&gt;Node17 -->
<g id="edge28" class="edge"><title>Node2&#45;&gt;Node17</title>
<path fill="none" stroke="midnightblue" d="M369.942,-336.324C384.585,-327.822 407.134,-314.729 424.238,-304.797"/>
<polygon fill="midnightblue" stroke="midnightblue" points="426.205,-307.703 433.095,-299.655 422.69,-301.649 426.205,-307.703"/>
</g>
<!-- Node4&#45;&gt;Node3 -->
<g id="edge4" class="edge"><title>Node4&#45;&gt;Node3</title>
<path fill="none" stroke="midnightblue" d="M310.205,-280.368C350.778,-261.131 448.815,-214.648 496.727,-191.931"/>
<polygon fill="midnightblue" stroke="midnightblue" points="498.344,-195.038 505.88,-187.591 495.345,-188.713 498.344,-195.038"/>
</g>
<!-- Node5 -->
<g id="node5" class="node"><title>Node5</title>
<g id="a_node5"><a xlink:href="Element_8h.html" target="_top" xlink:title="Element.h">
<polygon fill="white" stroke="black" points="259.5,-224.5 259.5,-243.5 324.5,-243.5 324.5,-224.5 259.5,-224.5"/>
<text text-anchor="middle" x="292" y="-231.5" font-family="Verdana" font-size="10.00">Element.h</text>
</a>
</g>
</g>
<!-- Node4&#45;&gt;Node5 -->
<g id="edge5" class="edge"><title>Node4&#45;&gt;Node5</title>
<path fill="none" stroke="midnightblue" d="M292,-280.083C292,-273.006 292,-262.861 292,-253.986"/>
<polygon fill="midnightblue" stroke="midnightblue" points="295.5,-253.751 292,-243.751 288.5,-253.751 295.5,-253.751"/>
</g>
<!-- Node7 -->
<g id="node7" class="node"><title>Node7</title>
<polygon fill="white" stroke="#bfbfbf" points="90.5,-112.5 90.5,-131.5 137.5,-131.5 137.5,-112.5 90.5,-112.5"/>
<text text-anchor="middle" x="114" y="-119.5" font-family="Verdana" font-size="10.00">vector</text>
</g>
<!-- Node4&#45;&gt;Node7 -->
<g id="edge27" class="edge"><title>Node4&#45;&gt;Node7</title>
<path fill="none" stroke="midnightblue" d="M259.049,-280.491C217.776,-267.901 148.642,-239.99 117,-188 108.649,-174.279 108.649,-155.748 110.3,-141.983"/>
<polygon fill="midnightblue" stroke="midnightblue" points="113.813,-142.177 111.928,-131.751 106.9,-141.077 113.813,-142.177"/>
</g>
<!-- Node4&#45;&gt;Node16 -->
<g id="edge26" class="edge"><title>Node4&#45;&gt;Node16</title>
<path fill="none" stroke="midnightblue" d="M243.185,-280.452C198.392,-272.269 130.34,-258.98 72,-244 70.7363,-243.676 69.4458,-243.33 68.1457,-242.97"/>
<polygon fill="midnightblue" stroke="midnightblue" points="68.8524,-239.529 58.2704,-240.05 66.8678,-246.242 68.8524,-239.529"/>
</g>
<!-- Node5&#45;&gt;Node3 -->
<g id="edge6" class="edge"><title>Node5&#45;&gt;Node3</title>
<path fill="none" stroke="midnightblue" d="M324.748,-225.378C364.578,-216.107 432.084,-200.394 477.343,-189.86"/>
<polygon fill="midnightblue" stroke="midnightblue" points="478.262,-193.24 487.208,-187.564 476.675,-186.422 478.262,-193.24"/>
</g>
<!-- Node5&#45;&gt;Node6 -->
<g id="edge7" class="edge"><title>Node5&#45;&gt;Node6</title>
<path fill="none" stroke="midnightblue" d="M259.325,-231.643C221.737,-228.596 159.722,-218.86 117,-188 86.7023,-166.114 60.5877,-143.309 81,-112 132.853,-32.4653 256.623,-15.4073 315.635,-11.8589"/>
<polygon fill="midnightblue" stroke="midnightblue" points="316.057,-15.3421 325.868,-11.3415 315.704,-8.35098 316.057,-15.3421"/>
</g>
<!-- Node5&#45;&gt;Node7 -->
<g id="edge8" class="edge"><title>Node5&#45;&gt;Node7</title>
<path fill="none" stroke="midnightblue" d="M259.402,-232.658C223.634,-230.497 166.819,-221.53 133,-188 120.878,-175.982 116.395,-156.689 114.784,-142.238"/>
<polygon fill="midnightblue" stroke="midnightblue" points="118.249,-141.632 114.018,-131.918 111.268,-142.15 118.249,-141.632"/>
</g>
<!-- Node8 -->
<g id="node8" class="node"><title>Node8</title>
<polygon fill="white" stroke="#bfbfbf" points="235.5,-56.5 235.5,-75.5 288.5,-75.5 288.5,-56.5 235.5,-56.5"/>
<text text-anchor="middle" x="262" y="-63.5" font-family="Verdana" font-size="10.00">stdint.h</text>
</g>
<!-- Node5&#45;&gt;Node8 -->
<g id="edge9" class="edge"><title>Node5&#45;&gt;Node8</title>
<path fill="none" stroke="midnightblue" d="M289.675,-224.421C287.285,-215.402 283.56,-200.775 281,-188 273.784,-151.985 267.655,-109.483 264.432,-85.645"/>
<polygon fill="midnightblue" stroke="midnightblue" points="267.878,-85.0042 263.091,-75.5522 260.939,-85.9261 267.878,-85.0042"/>
</g>
<!-- Node9 -->
<g id="node9" class="node"><title>Node9</title>
<g id="a_node9"><a xlink:href="XmlSink_8h.html" target="_top" xlink:title="XmlSink.h">
<polygon fill="white" stroke="black" points="290,-168.5 290,-187.5 354,-187.5 354,-168.5 290,-168.5"/>
<text text-anchor="middle" x="322" y="-175.5" font-family="Verdana" font-size="10.00">XmlSink.h</text>
</a>
</g>
</g>
<!-- Node5&#45;&gt;Node9 -->
<g id="edge10" class="edge"><title>Node5&#45;&gt;Node9</title>
<path fill="none" stroke="midnightblue" d="M296.954,-224.083C301.104,-216.613 307.153,-205.724 312.267,-196.52"/>
<polygon fill="midnightblue" stroke="midnightblue" points="315.341,-198.192 317.138,-187.751 309.222,-194.793 315.341,-198.192"/>
</g>
<!-- Node14 -->
<g id="node14" class="node"><title>Node14</title>
<g id="a_node14"><a xlink:href="XmlSource_8h.html" target="_top" xlink:title="XmlSource.h">
<polygon fill="white" stroke="black" points="372.5,-168.5 372.5,-187.5 449.5,-187.5 449.5,-168.5 372.5,-168.5"/>
<text text-anchor="middle" x="411" y="-175.5" font-family="Verdana" font-size="10.00">XmlSource.h</text>
</a>
</g>
</g>
<!-- Node5&#45;&gt;Node14 -->
<g id="edge19" class="edge"><title>Node5&#45;&gt;Node14</title>
<path fill="none" stroke="midnightblue" d="M310.856,-224.444C330.266,-215.636 360.73,-201.812 382.965,-191.722"/>
<polygon fill="midnightblue" stroke="midnightblue" points="384.572,-194.836 392.232,-187.516 381.68,-188.462 384.572,-194.836"/>
</g>
<!-- Node15 -->
<g id="node15" class="node"><title>Node15</title>
<g id="a_node15"><a xlink:href="PathNavigator_8h.html" target="_top" xlink:title="PathNavigator.h">
<polygon fill="white" stroke="black" points="142,-168.5 142,-187.5 234,-187.5 234,-168.5 142,-168.5"/>
<text text-anchor="middle" x="188" y="-175.5" font-family="Verdana" font-size="10.00">PathNavigator.h</text>
</a>
</g>
</g>
<!-- Node5&#45;&gt;Node15 -->
<g id="edge22" class="edge"><title>Node5&#45;&gt;Node15</title>
<path fill="none" stroke="midnightblue" d="M275.291,-224.324C258.688,-215.703 232.998,-202.364 213.78,-192.386"/>
<polygon fill="midnightblue" stroke="midnightblue" points="215.156,-189.156 204.668,-187.655 211.93,-195.369 215.156,-189.156"/>
</g>
<!-- Node10 -->
<g id="node10" class="node"><title>Node10</title>
<g id="a_node10"><a xlink:href="XmlElement_8h.html" target="_top" xlink:title="XmlElement.h">
<polygon fill="white" stroke="black" points="290.5,-112.5 290.5,-131.5 373.5,-131.5 373.5,-112.5 290.5,-112.5"/>
<text text-anchor="middle" x="332" y="-119.5" font-family="Verdana" font-size="10.00">XmlElement.h</text>
</a>
</g>
</g>
<!-- Node9&#45;&gt;Node10 -->
<g id="edge11" class="edge"><title>Node9&#45;&gt;Node10</title>
<path fill="none" stroke="midnightblue" d="M323.651,-168.083C324.976,-160.927 326.882,-150.635 328.539,-141.691"/>
<polygon fill="midnightblue" stroke="midnightblue" points="332,-142.221 330.379,-131.751 325.117,-140.947 332,-142.221"/>
</g>
<!-- Node11 -->
<g id="node11" class="node"><title>Node11</title>
<g id="a_node11"><a xlink:href="XmlSerializingContext_8h.html" target="_top" xlink:title="XmlSerializingContext.h">
<polygon fill="white" stroke="black" points="392,-112.5 392,-131.5 522,-131.5 522,-112.5 392,-112.5"/>
<text text-anchor="middle" x="457" y="-119.5" font-family="Verdana" font-size="10.00">XmlSerializingContext.h</text>
</a>
</g>
</g>
<!-- Node9&#45;&gt;Node11 -->
<g id="edge14" class="edge"><title>Node9&#45;&gt;Node11</title>
<path fill="none" stroke="midnightblue" d="M343.391,-168.444C365.707,-159.517 400.903,-145.439 426.208,-135.317"/>
<polygon fill="midnightblue" stroke="midnightblue" points="427.724,-138.48 435.709,-131.516 425.124,-131.981 427.724,-138.48"/>
</g>
<!-- Node10&#45;&gt;Node6 -->
<g id="edge13" class="edge"><title>Node10&#45;&gt;Node6</title>
<path fill="none" stroke="midnightblue" d="M333.255,-112.368C335.838,-94.617 341.794,-53.6664 345.295,-29.5974"/>
<polygon fill="midnightblue" stroke="midnightblue" points="348.774,-29.9911 346.75,-19.5914 341.847,-28.9835 348.774,-29.9911"/>
</g>
<!-- Node10&#45;&gt;Node8 -->
<g id="edge12" class="edge"><title>Node10&#45;&gt;Node8</title>
<path fill="none" stroke="midnightblue" d="M320.753,-112.324C310.203,-104.185 294.199,-91.8395 281.558,-82.0874"/>
<polygon fill="midnightblue" stroke="midnightblue" points="283.507,-79.1707 273.451,-75.8339 279.231,-84.7132 283.507,-79.1707"/>
</g>
<!-- Node11&#45;&gt;Node6 -->
<g id="edge18" class="edge"><title>Node11&#45;&gt;Node6</title>
<path fill="none" stroke="midnightblue" d="M443.27,-112.332C430.515,-103.918 411.381,-90.3455 397,-76 382.205,-61.2413 368.153,-41.8447 358.922,-28.0928"/>
<polygon fill="midnightblue" stroke="midnightblue" points="361.763,-26.0425 353.351,-19.6004 355.909,-29.8818 361.763,-26.0425"/>
</g>
<!-- Node12 -->
<g id="node12" class="node"><title>Node12</title>
<g id="a_node12"><a xlink:href="ErrorContext_8hpp.html" target="_top" xlink:title="ErrorContext.hpp">
<polygon fill="white" stroke="black" points="406,-56.5 406,-75.5 504,-75.5 504,-56.5 406,-56.5"/>
<text text-anchor="middle" x="455" y="-63.5" font-family="Verdana" font-size="10.00">ErrorContext.hpp</text>
</a>
</g>
</g>
<!-- Node11&#45;&gt;Node12 -->
<g id="edge15" class="edge"><title>Node11&#45;&gt;Node12</title>
<path fill="none" stroke="midnightblue" d="M456.67,-112.083C456.408,-105.006 456.032,-94.8611 455.703,-85.9865"/>
<polygon fill="midnightblue" stroke="midnightblue" points="459.192,-85.6147 455.324,-75.7511 452.197,-85.8738 459.192,-85.6147"/>
</g>
<!-- Node12&#45;&gt;Node6 -->
<g id="edge16" class="edge"><title>Node12&#45;&gt;Node6</title>
<path fill="none" stroke="midnightblue" d="M437.809,-56.324C420.649,-47.6641 394.054,-34.2424 374.253,-24.249"/>
<polygon fill="midnightblue" stroke="midnightblue" points="375.653,-21.0354 365.149,-19.6545 372.499,-27.2847 375.653,-21.0354"/>
</g>
<!-- Node13 -->
<g id="node13" class="node"><title>Node13</title>
<g id="a_node13"><a xlink:href="NonCopyable_8hpp.html" target="_top" xlink:title="NonCopyable.hpp">
<polygon fill="white" stroke="black" points="404.5,-0.5 404.5,-19.5 505.5,-19.5 505.5,-0.5 404.5,-0.5"/>
<text text-anchor="middle" x="455" y="-7.5" font-family="Verdana" font-size="10.00">NonCopyable.hpp</text>
</a>
</g>
</g>
<!-- Node12&#45;&gt;Node13 -->
<g id="edge17" class="edge"><title>Node12&#45;&gt;Node13</title>
<path fill="none" stroke="midnightblue" d="M455,-56.083C455,-49.0059 455,-38.8611 455,-29.9865"/>
<polygon fill="midnightblue" stroke="midnightblue" points="458.5,-29.751 455,-19.7511 451.5,-29.7511 458.5,-29.751"/>
</g>
<!-- Node14&#45;&gt;Node10 -->
<g id="edge20" class="edge"><title>Node14&#45;&gt;Node10</title>
<path fill="none" stroke="midnightblue" d="M398.307,-168.324C386.099,-159.979 367.422,-147.212 352.997,-137.352"/>
<polygon fill="midnightblue" stroke="midnightblue" points="354.892,-134.408 344.661,-131.655 350.942,-140.187 354.892,-134.408"/>
</g>
<!-- Node14&#45;&gt;Node11 -->
<g id="edge21" class="edge"><title>Node14&#45;&gt;Node11</title>
<path fill="none" stroke="midnightblue" d="M418.596,-168.083C425.227,-160.298 435.021,-148.801 443.058,-139.367"/>
<polygon fill="midnightblue" stroke="midnightblue" points="445.725,-141.633 449.545,-131.751 440.396,-137.094 445.725,-141.633"/>
</g>
<!-- Node15&#45;&gt;Node6 -->
<g id="edge24" class="edge"><title>Node15&#45;&gt;Node6</title>
<path fill="none" stroke="midnightblue" d="M188.218,-168.399C189.231,-146.617 194.875,-88.6908 226,-56 249.742,-31.0635 288.497,-19.8675 315.949,-14.8906"/>
<polygon fill="midnightblue" stroke="midnightblue" points="316.557,-18.3378 325.862,-13.272 315.429,-11.4293 316.557,-18.3378"/>
</g>
<!-- Node15&#45;&gt;Node7 -->
<g id="edge23" class="edge"><title>Node15&#45;&gt;Node7</title>
<path fill="none" stroke="midnightblue" d="M176.111,-168.324C164.85,-160.107 147.713,-147.602 134.291,-137.807"/>
<polygon fill="midnightblue" stroke="midnightblue" points="136.247,-134.901 126.106,-131.834 132.12,-140.556 136.247,-134.901"/>
</g>
<!-- Node15&#45;&gt;Node8 -->
<g id="edge25" class="edge"><title>Node15&#45;&gt;Node8</title>
<path fill="none" stroke="midnightblue" d="M193.807,-168.368C206.019,-150.215 234.552,-107.802 250.57,-83.9902"/>
<polygon fill="midnightblue" stroke="midnightblue" points="253.543,-85.8423 256.22,-75.5914 247.734,-81.935 253.543,-85.8423"/>
</g>
<!-- Node17&#45;&gt;Node3 -->
<g id="edge29" class="edge"><title>Node17&#45;&gt;Node3</title>
<path fill="none" stroke="midnightblue" d="M453.964,-280.368C466.506,-262.215 495.81,-219.802 512.261,-195.99"/>
<polygon fill="midnightblue" stroke="midnightblue" points="515.259,-197.808 518.064,-187.591 509.5,-193.829 515.259,-197.808"/>
</g>
<!-- Node17&#45;&gt;Node5 -->
<g id="edge30" class="edge"><title>Node17&#45;&gt;Node5</title>
<path fill="none" stroke="midnightblue" d="M423.281,-280.444C397.152,-271.399 355.741,-257.064 326.424,-246.916"/>
<polygon fill="midnightblue" stroke="midnightblue" points="327.198,-243.48 316.603,-243.516 324.908,-250.095 327.198,-243.48"/>
</g>
<!-- Node17&#45;&gt;Node6 -->
<g id="edge31" class="edge"><title>Node17&#45;&gt;Node6</title>
<path fill="none" stroke="midnightblue" d="M487.385,-280.39C535.049,-267.381 609,-237.734 609,-179 609,-179 609,-179 609,-121 609,-71.89 450.102,-32.4487 380.27,-17.4862"/>
<polygon fill="midnightblue" stroke="midnightblue" points="380.759,-14.0126 370.253,-15.3774 379.317,-20.8625 380.759,-14.0126"/>
</g>
</g>
</svg>
