<?xml version="1.0" encoding="UTF-8" standalone="no"?>
<!DOCTYPE svg PUBLIC "-//W3C//DTD SVG 1.1//EN"
 "http://www.w3.org/Graphics/SVG/1.1/DTD/svg11.dtd">
<!-- Generated by graphviz version 2.38.0 (20140413.2041)
 -->
<!-- Title: /home/dawagner/dev/parameter&#45;framework/parameter/PathNavigator.cpp Pages: 1 -->
<svg width="229pt" height="162pt"
 viewBox="0.00 0.00 229.00 162.00" xmlns="http://www.w3.org/2000/svg" xmlns:xlink="http://www.w3.org/1999/xlink">
<g id="graph0" class="graph" transform="scale(1 1) rotate(0) translate(4 158)">
<title>/home/dawagner/dev/parameter&#45;framework/parameter/PathNavigator.cpp</title>
<polygon fill="white" stroke="none" points="-4,4 -4,-158 225,-158 225,4 -4,4"/>
<!-- Node1 -->
<g id="node1" class="node"><title>Node1</title>
<polygon fill="#bfbfbf" stroke="black" points="56,-112.5 56,-153.5 217,-153.5 217,-112.5 56,-112.5"/>
<text text-anchor="start" x="64" y="-141.5" font-family="Verdana" font-size="10.00">/home/dawagner/dev</text>
<text text-anchor="start" x="64" y="-130.5" font-family="Verdana" font-size="10.00">/parameter&#45;framework</text>
<text text-anchor="middle" x="136.5" y="-119.5" font-family="Verdana" font-size="10.00">/parameter/PathNavigator.cpp</text>
</g>
<!-- Node2 -->
<g id="node2" class="node"><title>Node2</title>
<g id="a_node2"><a xlink:href="PathNavigator_8h.html" target="_top" xlink:title="PathNavigator.h">
<polygon fill="white" stroke="black" points="41.5,-56.5 41.5,-75.5 133.5,-75.5 133.5,-56.5 41.5,-56.5"/>
<text text-anchor="middle" x="87.5" y="-63.5" font-family="Verdana" font-size="10.00">PathNavigator.h</text>
</a>
</g>
</g>
<!-- Node1&#45;&gt;Node2 -->
<g id="edge1" class="edge"><title>Node1&#45;&gt;Node2</title>
<path fill="none" stroke="midnightblue" d="M121.798,-112.498C114.936,-103.395 106.845,-92.6623 100.246,-83.9081"/>
<polygon fill="midnightblue" stroke="midnightblue" points="102.837,-81.5309 94.0226,-75.6525 97.2475,-85.7446 102.837,-81.5309"/>
</g>
<!-- Node6 -->
<g id="node6" class="node"><title>Node6</title>
<polygon fill="white" stroke="#bfbfbf" points="152,-56.5 152,-75.5 221,-75.5 221,-56.5 152,-56.5"/>
<text text-anchor="middle" x="186.5" y="-63.5" font-family="Verdana" font-size="10.00">Tokenizer.h</text>
</g>
<!-- Node1&#45;&gt;Node6 -->
<g id="edge5" class="edge"><title>Node1&#45;&gt;Node6</title>
<path fill="none" stroke="midnightblue" d="M151.502,-112.498C158.578,-103.299 166.934,-92.4362 173.706,-83.6323"/>
<polygon fill="midnightblue" stroke="midnightblue" points="176.521,-85.7128 179.844,-75.6525 170.973,-81.4447 176.521,-85.7128"/>
</g>
<!-- Node3 -->
<g id="node3" class="node"><title>Node3</title>
<polygon fill="white" stroke="#bfbfbf" points="0,-0.5 0,-19.5 47,-19.5 47,-0.5 0,-0.5"/>
<text text-anchor="middle" x="23.5" y="-7.5" font-family="Verdana" font-size="10.00">vector</text>
</g>
<!-- Node2&#45;&gt;Node3 -->
<g id="edge2" class="edge"><title>Node2&#45;&gt;Node3</title>
<path fill="none" stroke="midnightblue" d="M77.2173,-56.324C67.6637,-48.2631 53.2203,-36.0765 41.7157,-26.3695"/>
<polygon fill="midnightblue" stroke="midnightblue" points="43.8698,-23.6076 33.9698,-19.8339 39.3557,-28.9577 43.8698,-23.6076"/>
</g>
<!-- Node4 -->
<g id="node4" class="node"><title>Node4</title>
<polygon fill="white" stroke="#bfbfbf" points="65.5,-0.5 65.5,-19.5 109.5,-19.5 109.5,-0.5 65.5,-0.5"/>
<text text-anchor="middle" x="87.5" y="-7.5" font-family="Verdana" font-size="10.00">string</text>
</g>
<!-- Node2&#45;&gt;Node4 -->
<g id="edge3" class="edge"><title>Node2&#45;&gt;Node4</title>
<path fill="none" stroke="midnightblue" d="M87.5,-56.083C87.5,-49.0059 87.5,-38.8611 87.5,-29.9865"/>
<polygon fill="midnightblue" stroke="midnightblue" points="91.0001,-29.751 87.5,-19.7511 84.0001,-29.7511 91.0001,-29.751"/>
</g>
<!-- Node5 -->
<g id="node5" class="node"><title>Node5</title>
<polygon fill="white" stroke="#bfbfbf" points="128,-0.5 128,-19.5 181,-19.5 181,-0.5 128,-0.5"/>
<text text-anchor="middle" x="154.5" y="-7.5" font-family="Verdana" font-size="10.00">stdint.h</text>
</g>
<!-- Node2&#45;&gt;Node5 -->
<g id="edge4" class="edge"><title>Node2&#45;&gt;Node5</title>
<path fill="none" stroke="midnightblue" d="M98.2647,-56.324C108.266,-48.2631 123.387,-36.0765 135.43,-26.3695"/>
<polygon fill="midnightblue" stroke="midnightblue" points="137.95,-28.8343 143.539,-19.8339 133.557,-23.3841 137.95,-28.8343"/>
</g>
</g>
</svg>
