<?xml version="1.0" encoding="UTF-8" standalone="no"?>
<!DOCTYPE svg PUBLIC "-//W3C//DTD SVG 1.1//EN"
 "http://www.w3.org/Graphics/SVG/1.1/DTD/svg11.dtd">
<!-- Generated by graphviz version 2.38.0 (20140413.2041)
 -->
<!-- Title: parameter/PathNavigator.h Pages: 1 -->
<svg width="189pt" height="84pt"
 viewBox="0.00 0.00 189.00 84.00" xmlns="http://www.w3.org/2000/svg" xmlns:xlink="http://www.w3.org/1999/xlink">
<g id="graph0" class="graph" transform="scale(1 1) rotate(0) translate(4 80)">
<title>parameter/PathNavigator.h</title>
<polygon fill="white" stroke="none" points="-4,4 -4,-80 185,-80 185,4 -4,4"/>
<!-- Node1 -->
<g id="node1" class="node"><title>Node1</title>
<polygon fill="#bfbfbf" stroke="black" points="14.5,-56.5 14.5,-75.5 160.5,-75.5 160.5,-56.5 14.5,-56.5"/>
<text text-anchor="middle" x="87.5" y="-63.5" font-family="Verdana" font-size="10.00">parameter/PathNavigator.h</text>
</g>
<!-- Node2 -->
<g id="node2" class="node"><title>Node2</title>
<polygon fill="white" stroke="#bfbfbf" points="0,-0.5 0,-19.5 47,-19.5 47,-0.5 0,-0.5"/>
<text text-anchor="middle" x="23.5" y="-7.5" font-family="Verdana" font-size="10.00">vector</text>
</g>
<!-- Node1&#45;&gt;Node2 -->
<g id="edge1" class="edge"><title>Node1&#45;&gt;Node2</title>
<path fill="none" stroke="midnightblue" d="M77.2173,-56.324C67.6637,-48.2631 53.2203,-36.0765 41.7157,-26.3695"/>
<polygon fill="midnightblue" stroke="midnightblue" points="43.8698,-23.6076 33.9698,-19.8339 39.3557,-28.9577 43.8698,-23.6076"/>
</g>
<!-- Node3 -->
<g id="node3" class="node"><title>Node3</title>
<polygon fill="white" stroke="#bfbfbf" points="65.5,-0.5 65.5,-19.5 109.5,-19.5 109.5,-0.5 65.5,-0.5"/>
<text text-anchor="middle" x="87.5" y="-7.5" font-family="Verdana" font-size="10.00">string</text>
</g>
<!-- Node1&#45;&gt;Node3 -->
<g id="edge2" class="edge"><title>Node1&#45;&gt;Node3</title>
<path fill="none" stroke="midnightblue" d="M87.5,-56.083C87.5,-49.0059 87.5,-38.8611 87.5,-29.9865"/>
<polygon fill="midnightblue" stroke="midnightblue" points="91.0001,-29.751 87.5,-19.7511 84.0001,-29.7511 91.0001,-29.751"/>
</g>
<!-- Node4 -->
<g id="node4" class="node"><title>Node4</title>
<polygon fill="white" stroke="#bfbfbf" points="128,-0.5 128,-19.5 181,-19.5 181,-0.5 128,-0.5"/>
<text text-anchor="middle" x="154.5" y="-7.5" font-family="Verdana" font-size="10.00">stdint.h</text>
</g>
<!-- Node1&#45;&gt;Node4 -->
<g id="edge3" class="edge"><title>Node1&#45;&gt;Node4</title>
<path fill="none" stroke="midnightblue" d="M98.2647,-56.324C108.266,-48.2631 123.387,-36.0765 135.43,-26.3695"/>
<polygon fill="midnightblue" stroke="midnightblue" points="137.95,-28.8343 143.539,-19.8339 133.557,-23.3841 137.95,-28.8343"/>
</g>
</g>
</svg>
