<?xml version="1.0" encoding="UTF-8" standalone="no"?>
<!DOCTYPE svg PUBLIC "-//W3C//DTD SVG 1.1//EN"
 "http://www.w3.org/Graphics/SVG/1.1/DTD/svg11.dtd">
<!-- Generated by graphviz version 2.38.0 (20140413.2041)
 -->
<!-- Title: /home/dawagner/dev/parameter&#45;framework/parameter/PluginLocation.h Pages: 1 -->
<svg width="471pt" height="274pt"
 viewBox="0.00 0.00 471.00 274.00" xmlns="http://www.w3.org/2000/svg" xmlns:xlink="http://www.w3.org/1999/xlink">
<g id="graph0" class="graph" transform="scale(1 1) rotate(0) translate(4 270)">
<title>/home/dawagner/dev/parameter&#45;framework/parameter/PluginLocation.h</title>
<polygon fill="white" stroke="none" points="-4,4 -4,-270 467,-270 467,4 -4,4"/>
<!-- Node1 -->
<g id="node1" class="node"><title>Node1</title>
<polygon fill="#bfbfbf" stroke="black" points="32,-224.5 32,-265.5 184,-265.5 184,-224.5 32,-224.5"/>
<text text-anchor="start" x="40" y="-253.5" font-family="Verdana" font-size="10.00">/home/dawagner/dev</text>
<text text-anchor="start" x="40" y="-242.5" font-family="Verdana" font-size="10.00">/parameter&#45;framework</text>
<text text-anchor="middle" x="108" y="-231.5" font-family="Verdana" font-size="10.00">/parameter/PluginLocation.h</text>
</g>
<!-- Node2 -->
<g id="node2" class="node"><title>Node2</title>
<g id="a_node2"><a xlink:href="KindElement_8h.html" target="_top" xlink:title="KindElement.h">
<polygon fill="white" stroke="black" points="65,-168.5 65,-187.5 151,-187.5 151,-168.5 65,-168.5"/>
<text text-anchor="middle" x="108" y="-175.5" font-family="Verdana" font-size="10.00">KindElement.h</text>
</a>
</g>
</g>
<!-- Node1&#45;&gt;Node2 -->
<g id="edge1" class="edge"><title>Node1&#45;&gt;Node2</title>
<path fill="none" stroke="midnightblue" d="M108,-224.498C108,-216.065 108,-206.235 108,-197.874"/>
<polygon fill="midnightblue" stroke="midnightblue" points="111.5,-197.652 108,-187.652 104.5,-197.653 111.5,-197.652"/>
</g>
<!-- Node4 -->
<g id="node4" class="node"><title>Node4</title>
<polygon fill="white" stroke="#bfbfbf" points="0,-0.5 0,-19.5 44,-19.5 44,-0.5 0,-0.5"/>
<text text-anchor="middle" x="22" y="-7.5" font-family="Verdana" font-size="10.00">string</text>
</g>
<!-- Node1&#45;&gt;Node4 -->
<g id="edge15" class="edge"><title>Node1&#45;&gt;Node4</title>
<path fill="none" stroke="midnightblue" d="M85.1987,-224.47C74.894,-214.517 63.3967,-201.647 56,-188 27.7238,-135.83 22.6829,-63.8226 21.9694,-29.9973"/>
<polygon fill="midnightblue" stroke="midnightblue" points="25.4666,-29.6847 21.8665,-19.7203 18.4669,-29.7548 25.4666,-29.6847"/>
</g>
<!-- Node7 -->
<g id="node7" class="node"><title>Node7</title>
<polygon fill="white" stroke="#bfbfbf" points="433,-56.5 433,-75.5 463,-75.5 463,-56.5 433,-56.5"/>
<text text-anchor="middle" x="448" y="-63.5" font-family="Verdana" font-size="10.00">list</text>
</g>
<!-- Node1&#45;&gt;Node7 -->
<g id="edge14" class="edge"><title>Node1&#45;&gt;Node7</title>
<path fill="none" stroke="midnightblue" d="M145.685,-224.382C215.965,-187.795 365.202,-110.104 423.728,-79.6358"/>
<polygon fill="midnightblue" stroke="midnightblue" points="425.688,-82.5614 432.942,-74.8392 422.455,-76.3524 425.688,-82.5614"/>
</g>
<!-- Node3 -->
<g id="node3" class="node"><title>Node3</title>
<g id="a_node3"><a xlink:href="Element_8h.html" target="_top" xlink:title="Element.h">
<polygon fill="white" stroke="black" points="206.5,-112.5 206.5,-131.5 271.5,-131.5 271.5,-112.5 206.5,-112.5"/>
<text text-anchor="middle" x="239" y="-119.5" font-family="Verdana" font-size="10.00">Element.h</text>
</a>
</g>
</g>
<!-- Node2&#45;&gt;Node3 -->
<g id="edge2" class="edge"><title>Node2&#45;&gt;Node3</title>
<path fill="none" stroke="midnightblue" d="M128.757,-168.444C150.316,-159.557 184.263,-145.563 208.794,-135.451"/>
<polygon fill="midnightblue" stroke="midnightblue" points="210.428,-138.563 218.34,-131.516 207.761,-132.092 210.428,-138.563"/>
</g>
<!-- Node2&#45;&gt;Node4 -->
<g id="edge13" class="edge"><title>Node2&#45;&gt;Node4</title>
<path fill="none" stroke="midnightblue" d="M100.608,-168.436C86.5827,-151.762 55.9952,-113.296 39,-76 32.1983,-61.0738 27.7394,-42.9323 25.1019,-29.612"/>
<polygon fill="midnightblue" stroke="midnightblue" points="28.538,-28.9445 23.3033,-19.7332 21.6512,-30.1985 28.538,-28.9445"/>
</g>
<!-- Node3&#45;&gt;Node4 -->
<g id="edge3" class="edge"><title>Node3&#45;&gt;Node4</title>
<path fill="none" stroke="midnightblue" d="M206.378,-120.229C167.823,-117.765 103.434,-108.611 60,-76 44.3545,-64.253 34.0142,-44.0234 28.1237,-29.2455"/>
<polygon fill="midnightblue" stroke="midnightblue" points="31.3342,-27.834 24.6087,-19.6476 24.7611,-30.2413 31.3342,-27.834"/>
</g>
<!-- Node5 -->
<g id="node5" class="node"><title>Node5</title>
<polygon fill="white" stroke="#bfbfbf" points="280.5,-0.5 280.5,-19.5 327.5,-19.5 327.5,-0.5 280.5,-0.5"/>
<text text-anchor="middle" x="304" y="-7.5" font-family="Verdana" font-size="10.00">vector</text>
</g>
<!-- Node3&#45;&gt;Node5 -->
<g id="edge4" class="edge"><title>Node3&#45;&gt;Node5</title>
<path fill="none" stroke="midnightblue" d="M271.576,-117.226C297.125,-112.364 331.095,-101.269 348,-76 359.55,-58.7357 341.746,-38.9859 325.45,-25.8313"/>
<polygon fill="midnightblue" stroke="midnightblue" points="327.313,-22.8516 317.229,-19.6016 323.085,-28.4308 327.313,-22.8516"/>
</g>
<!-- Node6 -->
<g id="node6" class="node"><title>Node6</title>
<polygon fill="white" stroke="#bfbfbf" points="367.5,-0.5 367.5,-19.5 420.5,-19.5 420.5,-0.5 367.5,-0.5"/>
<text text-anchor="middle" x="394" y="-7.5" font-family="Verdana" font-size="10.00">stdint.h</text>
</g>
<!-- Node3&#45;&gt;Node6 -->
<g id="edge5" class="edge"><title>Node3&#45;&gt;Node6</title>
<path fill="none" stroke="midnightblue" d="M271.605,-116.43C299.193,-111.038 338.242,-99.6126 364,-76 377.433,-63.6856 385.32,-44.1544 389.607,-29.713"/>
<polygon fill="midnightblue" stroke="midnightblue" points="393.038,-30.4284 392.216,-19.8655 386.272,-28.6356 393.038,-30.4284"/>
</g>
<!-- Node3&#45;&gt;Node7 -->
<g id="edge6" class="edge"><title>Node3&#45;&gt;Node7</title>
<path fill="none" stroke="midnightblue" d="M271.662,-113.415C307.837,-104.88 367.818,-90.3276 419,-76 420.428,-75.6003 421.892,-75.1798 423.367,-74.7479"/>
<polygon fill="midnightblue" stroke="midnightblue" points="424.44,-78.0801 432.996,-71.8317 422.411,-71.3806 424.44,-78.0801"/>
</g>
<!-- Node8 -->
<g id="node8" class="node"><title>Node8</title>
<polygon fill="white" stroke="#bfbfbf" points="69,-56.5 69,-75.5 133,-75.5 133,-56.5 69,-56.5"/>
<text text-anchor="middle" x="101" y="-63.5" font-family="Verdana" font-size="10.00">XmlSink.h</text>
</g>
<!-- Node3&#45;&gt;Node8 -->
<g id="edge7" class="edge"><title>Node3&#45;&gt;Node8</title>
<path fill="none" stroke="midnightblue" d="M217.133,-112.444C194.221,-103.478 158.025,-89.314 132.134,-79.1827"/>
<polygon fill="midnightblue" stroke="midnightblue" points="133.352,-75.9011 122.764,-75.5164 130.801,-82.4198 133.352,-75.9011"/>
</g>
<!-- Node9 -->
<g id="node9" class="node"><title>Node9</title>
<polygon fill="white" stroke="#bfbfbf" points="151.5,-56.5 151.5,-75.5 228.5,-75.5 228.5,-56.5 151.5,-56.5"/>
<text text-anchor="middle" x="190" y="-63.5" font-family="Verdana" font-size="10.00">XmlSource.h</text>
</g>
<!-- Node3&#45;&gt;Node9 -->
<g id="edge8" class="edge"><title>Node3&#45;&gt;Node9</title>
<path fill="none" stroke="midnightblue" d="M230.909,-112.083C223.845,-104.298 213.412,-92.8015 204.851,-83.3665"/>
<polygon fill="midnightblue" stroke="midnightblue" points="207.253,-80.8047 197.941,-75.7511 202.069,-85.5087 207.253,-80.8047"/>
</g>
<!-- Node10 -->
<g id="node10" class="node"><title>Node10</title>
<g id="a_node10"><a xlink:href="PathNavigator_8h.html" target="_top" xlink:title="PathNavigator.h">
<polygon fill="white" stroke="black" points="247,-56.5 247,-75.5 339,-75.5 339,-56.5 247,-56.5"/>
<text text-anchor="middle" x="293" y="-63.5" font-family="Verdana" font-size="10.00">PathNavigator.h</text>
</a>
</g>
</g>
<!-- Node3&#45;&gt;Node10 -->
<g id="edge9" class="edge"><title>Node3&#45;&gt;Node10</title>
<path fill="none" stroke="midnightblue" d="M247.917,-112.083C255.78,-104.22 267.431,-92.5688 276.919,-83.0813"/>
<polygon fill="midnightblue" stroke="midnightblue" points="279.653,-85.2971 284.249,-75.7511 274.703,-80.3473 279.653,-85.2971"/>
</g>
<!-- Node10&#45;&gt;Node4 -->
<g id="edge11" class="edge"><title>Node10&#45;&gt;Node4</title>
<path fill="none" stroke="midnightblue" d="M250.059,-56.4435C195.554,-45.5826 102.773,-27.0949 54.0502,-17.3864"/>
<polygon fill="midnightblue" stroke="midnightblue" points="54.5605,-13.9193 44.0693,-15.3976 53.1925,-20.7844 54.5605,-13.9193"/>
</g>
<!-- Node10&#45;&gt;Node5 -->
<g id="edge10" class="edge"><title>Node10&#45;&gt;Node5</title>
<path fill="none" stroke="midnightblue" d="M294.816,-56.083C296.274,-48.9272 298.371,-38.6353 300.193,-29.6911"/>
<polygon fill="midnightblue" stroke="midnightblue" points="303.651,-30.2485 302.217,-19.7511 296.792,-28.8512 303.651,-30.2485"/>
</g>
<!-- Node10&#45;&gt;Node6 -->
<g id="edge12" class="edge"><title>Node10&#45;&gt;Node6</title>
<path fill="none" stroke="midnightblue" d="M309.227,-56.324C325.351,-47.7034 350.3,-34.3643 368.964,-24.3855"/>
<polygon fill="midnightblue" stroke="midnightblue" points="370.644,-27.456 377.813,-19.6545 367.344,-21.283 370.644,-27.456"/>
</g>
</g>
</svg>
