<?xml version="1.0" encoding="UTF-8" standalone="no"?>
<!DOCTYPE svg PUBLIC "-//W3C//DTD SVG 1.1//EN"
 "http://www.w3.org/Graphics/SVG/1.1/DTD/svg11.dtd">
<!-- Generated by graphviz version 2.38.0 (20140413.2041)
 -->
<!-- Title: remote&#45;processor/RemoteProcessorServer.cpp Pages: 1 -->
<svg width="1151pt" height="319pt"
 viewBox="0.00 0.00 1151.00 319.00" xmlns="http://www.w3.org/2000/svg" xmlns:xlink="http://www.w3.org/1999/xlink">
<g id="graph0" class="graph" transform="scale(1 1) rotate(0) translate(4 315)">
<title>remote&#45;processor/RemoteProcessorServer.cpp</title>
<polygon fill="white" stroke="none" points="-4,4 -4,-315 1147,-315 1147,4 -4,4"/>
<!-- Node1 -->
<g id="node1" class="node"><title>Node1</title>
<polygon fill="#bfbfbf" stroke="black" points="595.5,-280.5 595.5,-310.5 785.5,-310.5 785.5,-280.5 595.5,-280.5"/>
<text text-anchor="start" x="603.5" y="-298.5" font-family="Verdana" font-size="10.00">remote&#45;processor/RemoteProcessor</text>
<text text-anchor="middle" x="690.5" y="-287.5" font-family="Verdana" font-size="10.00">Server.cpp</text>
</g>
<!-- Node2 -->
<g id="node2" class="node"><title>Node2</title>
<g id="a_node2"><a xlink:href="RemoteProcessorServer_8h.html" target="_top" xlink:title="RemoteProcessorServer.h">
<polygon fill="white" stroke="black" points="110.5,-224.5 110.5,-243.5 250.5,-243.5 250.5,-224.5 110.5,-224.5"/>
<text text-anchor="middle" x="180.5" y="-231.5" font-family="Verdana" font-size="10.00">RemoteProcessorServer.h</text>
</a>
</g>
</g>
<!-- Node1&#45;&gt;Node2 -->
<g id="edge1" class="edge"><title>Node1&#45;&gt;Node2</title>
<path fill="none" stroke="midnightblue" d="M595.47,-283.413C499.083,-272.168 351.545,-254.955 260.815,-244.37"/>
<polygon fill="midnightblue" stroke="midnightblue" points="261.195,-240.891 250.856,-243.208 260.383,-247.844 261.195,-240.891"/>
</g>
<!-- Node6 -->
<g id="node6" class="node"><title>Node6</title>
<g id="a_node6"><a xlink:href="RequestMessage_8h.html" target="_top" xlink:title="RequestMessage.h">
<polygon fill="white" stroke="black" points="342,-112.5 342,-131.5 449,-131.5 449,-112.5 342,-112.5"/>
<text text-anchor="middle" x="395.5" y="-119.5" font-family="Verdana" font-size="10.00">RequestMessage.h</text>
</a>
</g>
</g>
<!-- Node1&#45;&gt;Node6 -->
<g id="edge28" class="edge"><title>Node1&#45;&gt;Node6</title>
<path fill="none" stroke="midnightblue" d="M603.242,-280.464C508.871,-263.294 367.572,-231.106 335.5,-188 321.239,-168.832 346.467,-148.957 368.456,-136.313"/>
<polygon fill="midnightblue" stroke="midnightblue" points="370.145,-139.379 377.249,-131.519 366.794,-133.233 370.145,-139.379"/>
</g>
<!-- Node11 -->
<g id="node11" class="node"><title>Node11</title>
<g id="a_node11"><a xlink:href="ListeningSocket_8h.html" target="_top" xlink:title="ListeningSocket.h">
<polygon fill="white" stroke="black" points="0,-168.5 0,-187.5 101,-187.5 101,-168.5 0,-168.5"/>
<text text-anchor="middle" x="50.5" y="-175.5" font-family="Verdana" font-size="10.00">ListeningSocket.h</text>
</a>
</g>
</g>
<!-- Node1&#45;&gt;Node11 -->
<g id="edge15" class="edge"><title>Node1&#45;&gt;Node11</title>
<path fill="none" stroke="midnightblue" d="M595.469,-295.416C451.047,-295.307 184.339,-288.774 101.5,-244 82.04,-233.482 67.5178,-212.047 59.0464,-196.666"/>
<polygon fill="midnightblue" stroke="midnightblue" points="62.0646,-194.883 54.3621,-187.608 55.8468,-198.098 62.0646,-194.883"/>
</g>
<!-- Node13 -->
<g id="node13" class="node"><title>Node13</title>
<g id="a_node13"><a xlink:href="FullIo_8hpp.html" target="_top" xlink:title="FullIo.hpp">
<polygon fill="white" stroke="black" points="582,-224.5 582,-243.5 643,-243.5 643,-224.5 582,-224.5"/>
<text text-anchor="middle" x="612.5" y="-231.5" font-family="Verdana" font-size="10.00">FullIo.hpp</text>
</a>
</g>
</g>
<!-- Node1&#45;&gt;Node13 -->
<g id="edge19" class="edge"><title>Node1&#45;&gt;Node13</title>
<path fill="none" stroke="midnightblue" d="M672.015,-280.399C659.98,-271.218 644.3,-259.258 632.057,-249.918"/>
<polygon fill="midnightblue" stroke="midnightblue" points="633.923,-246.94 623.85,-243.658 629.678,-252.506 633.923,-246.94"/>
</g>
<!-- Node15 -->
<g id="node15" class="node"><title>Node15</title>
<polygon fill="white" stroke="#bfbfbf" points="661,-224.5 661,-243.5 720,-243.5 720,-224.5 661,-224.5"/>
<text text-anchor="middle" x="690.5" y="-231.5" font-family="Verdana" font-size="10.00">iostream</text>
</g>
<!-- Node1&#45;&gt;Node15 -->
<g id="edge21" class="edge"><title>Node1&#45;&gt;Node15</title>
<path fill="none" stroke="midnightblue" d="M690.5,-280.399C690.5,-272.466 690.5,-262.458 690.5,-253.858"/>
<polygon fill="midnightblue" stroke="midnightblue" points="694,-253.658 690.5,-243.658 687,-253.658 694,-253.658"/>
</g>
<!-- Node16 -->
<g id="node16" class="node"><title>Node16</title>
<polygon fill="white" stroke="#bfbfbf" points="738,-224.5 738,-243.5 795,-243.5 795,-224.5 738,-224.5"/>
<text text-anchor="middle" x="766.5" y="-231.5" font-family="Verdana" font-size="10.00">memory</text>
</g>
<!-- Node1&#45;&gt;Node16 -->
<g id="edge22" class="edge"><title>Node1&#45;&gt;Node16</title>
<path fill="none" stroke="midnightblue" d="M708.511,-280.399C720.238,-271.218 735.515,-259.258 747.445,-249.918"/>
<polygon fill="midnightblue" stroke="midnightblue" points="749.725,-252.578 755.441,-243.658 745.41,-247.066 749.725,-252.578"/>
</g>
<!-- Node17 -->
<g id="node17" class="node"><title>Node17</title>
<polygon fill="white" stroke="#bfbfbf" points="813.5,-224.5 813.5,-243.5 869.5,-243.5 869.5,-224.5 813.5,-224.5"/>
<text text-anchor="middle" x="841.5" y="-231.5" font-family="Verdana" font-size="10.00">assert.h</text>
</g>
<!-- Node1&#45;&gt;Node17 -->
<g id="edge23" class="edge"><title>Node1&#45;&gt;Node17</title>
<path fill="none" stroke="midnightblue" d="M726.285,-280.399C751.733,-270.372 785.597,-257.028 810.018,-247.405"/>
<polygon fill="midnightblue" stroke="midnightblue" points="811.508,-250.58 819.528,-243.658 808.941,-244.068 811.508,-250.58"/>
</g>
<!-- Node18 -->
<g id="node18" class="node"><title>Node18</title>
<polygon fill="white" stroke="#bfbfbf" points="887.5,-224.5 887.5,-243.5 929.5,-243.5 929.5,-224.5 887.5,-224.5"/>
<text text-anchor="middle" x="908.5" y="-231.5" font-family="Verdana" font-size="10.00">poll.h</text>
</g>
<!-- Node1&#45;&gt;Node18 -->
<g id="edge24" class="edge"><title>Node1&#45;&gt;Node18</title>
<path fill="none" stroke="midnightblue" d="M744.504,-280.438C779.863,-271.129 827.31,-258.447 877.485,-244.234"/>
<polygon fill="midnightblue" stroke="midnightblue" points="878.555,-247.569 887.217,-241.468 876.641,-240.836 878.555,-247.569"/>
</g>
<!-- Node19 -->
<g id="node19" class="node"><title>Node19</title>
<polygon fill="white" stroke="#bfbfbf" points="948,-224.5 948,-243.5 1003,-243.5 1003,-224.5 948,-224.5"/>
<text text-anchor="middle" x="975.5" y="-231.5" font-family="Verdana" font-size="10.00">unistd.h</text>
</g>
<!-- Node1&#45;&gt;Node19 -->
<g id="edge25" class="edge"><title>Node1&#45;&gt;Node19</title>
<path fill="none" stroke="midnightblue" d="M763.089,-280.468C810.194,-271.188 873.139,-258.461 937.694,-244.116"/>
<polygon fill="midnightblue" stroke="midnightblue" points="938.649,-247.489 947.646,-241.894 937.124,-240.657 938.649,-247.489"/>
</g>
<!-- Node20 -->
<g id="node20" class="node"><title>Node20</title>
<polygon fill="white" stroke="#bfbfbf" points="1021,-224.5 1021,-243.5 1074,-243.5 1074,-224.5 1021,-224.5"/>
<text text-anchor="middle" x="1047.5" y="-231.5" font-family="Verdana" font-size="10.00">string.h</text>
</g>
<!-- Node1&#45;&gt;Node20 -->
<g id="edge26" class="edge"><title>Node1&#45;&gt;Node20</title>
<path fill="none" stroke="midnightblue" d="M785.685,-282.022C847.503,-273.342 929.978,-260.684 1010.94,-244.177"/>
<polygon fill="midnightblue" stroke="midnightblue" points="1011.72,-247.591 1020.81,-242.145 1010.31,-240.735 1011.72,-247.591"/>
</g>
<!-- Node21 -->
<g id="node21" class="node"><title>Node21</title>
<polygon fill="white" stroke="#bfbfbf" points="1092,-224.5 1092,-243.5 1143,-243.5 1143,-224.5 1092,-224.5"/>
<text text-anchor="middle" x="1117.5" y="-231.5" font-family="Verdana" font-size="10.00">errno.h</text>
</g>
<!-- Node1&#45;&gt;Node21 -->
<g id="edge27" class="edge"><title>Node1&#45;&gt;Node21</title>
<path fill="none" stroke="midnightblue" d="M785.555,-285.808C863.078,-277.905 975.519,-264.591 1082.01,-244.085"/>
<polygon fill="midnightblue" stroke="midnightblue" points="1082.82,-247.493 1091.96,-242.144 1081.48,-240.623 1082.82,-247.493"/>
</g>
<!-- Node22 -->
<g id="node22" class="node"><title>Node22</title>
<g id="a_node22"><a xlink:href="AnswerMessage_8h.html" target="_top" xlink:title="AnswerMessage.h">
<polygon fill="white" stroke="black" points="219,-112.5 219,-131.5 322,-131.5 322,-112.5 219,-112.5"/>
<text text-anchor="middle" x="270.5" y="-119.5" font-family="Verdana" font-size="10.00">AnswerMessage.h</text>
</a>
</g>
</g>
<!-- Node1&#45;&gt;Node22 -->
<g id="edge29" class="edge"><title>Node1&#45;&gt;Node22</title>
<path fill="none" stroke="midnightblue" d="M595.381,-292.706C533.403,-288.229 452.313,-275.953 387.5,-244 338.969,-220.074 299.432,-167.455 281.268,-140.169"/>
<polygon fill="midnightblue" stroke="midnightblue" points="284.131,-138.15 275.756,-131.662 278.257,-141.958 284.131,-138.15"/>
</g>
<!-- Node23 -->
<g id="node23" class="node"><title>Node23</title>
<g id="a_node23"><a xlink:href="RemoteCommandHandler_8h.html" target="_top" xlink:title="RemoteCommandHandler.h">
<polygon fill="white" stroke="black" points="579,-112.5 579,-131.5 728,-131.5 728,-112.5 579,-112.5"/>
<text text-anchor="middle" x="653.5" y="-119.5" font-family="Verdana" font-size="10.00">RemoteCommandHandler.h</text>
</a>
</g>
</g>
<!-- Node1&#45;&gt;Node23 -->
<g id="edge31" class="edge"><title>Node1&#45;&gt;Node23</title>
<path fill="none" stroke="midnightblue" d="M622.403,-280.43C603.009,-272.937 584.035,-261.484 572.5,-244 564.068,-231.22 561.254,-193.762 577.5,-168 586.692,-153.424 602.46,-142.973 617.259,-135.835"/>
<polygon fill="midnightblue" stroke="midnightblue" points="619.047,-138.87 626.765,-131.612 616.205,-132.473 619.047,-138.87"/>
</g>
<!-- Node3 -->
<g id="node3" class="node"><title>Node3</title>
<polygon fill="white" stroke="#bfbfbf" points="202,-0.5 202,-19.5 255,-19.5 255,-0.5 202,-0.5"/>
<text text-anchor="middle" x="228.5" y="-7.5" font-family="Verdana" font-size="10.00">stdint.h</text>
</g>
<!-- Node2&#45;&gt;Node3 -->
<g id="edge2" class="edge"><title>Node2&#45;&gt;Node3</title>
<path fill="none" stroke="midnightblue" d="M171.749,-224.286C163.937,-215.84 153.049,-202.246 148.5,-188 130.655,-132.113 118.882,-106.642 148.5,-56 158.05,-39.6717 175.943,-28.8106 192.39,-21.8573"/>
<polygon fill="midnightblue" stroke="midnightblue" points="193.77,-25.0764 201.832,-18.203 191.243,-18.5482 193.77,-25.0764"/>
</g>
<!-- Node4 -->
<g id="node4" class="node"><title>Node4</title>
<polygon fill="white" stroke="#bfbfbf" points="158,-168.5 158,-187.5 221,-187.5 221,-168.5 158,-168.5"/>
<text text-anchor="middle" x="189.5" y="-175.5" font-family="Verdana" font-size="10.00">pthread.h</text>
</g>
<!-- Node2&#45;&gt;Node4 -->
<g id="edge3" class="edge"><title>Node2&#45;&gt;Node4</title>
<path fill="none" stroke="midnightblue" d="M181.986,-224.083C183.179,-216.927 184.894,-206.635 186.385,-197.691"/>
<polygon fill="midnightblue" stroke="midnightblue" points="189.85,-198.19 188.041,-187.751 182.945,-197.04 189.85,-198.19"/>
</g>
<!-- Node5 -->
<g id="node5" class="node"><title>Node5</title>
<g id="a_node5"><a xlink:href="RemoteProcessorServerInterface_8h.html" target="_top" xlink:title="RemoteProcessorServerInterface.h">
<polygon fill="white" stroke="black" points="345,-168.5 345,-187.5 528,-187.5 528,-168.5 345,-168.5"/>
<text text-anchor="middle" x="436.5" y="-175.5" font-family="Verdana" font-size="10.00">RemoteProcessorServerInterface.h</text>
</a>
</g>
</g>
<!-- Node2&#45;&gt;Node5 -->
<g id="edge4" class="edge"><title>Node2&#45;&gt;Node5</title>
<path fill="none" stroke="midnightblue" d="M221.064,-224.444C265.816,-215.004 337.883,-199.802 386.195,-189.611"/>
<polygon fill="midnightblue" stroke="midnightblue" points="387.064,-193.005 396.126,-187.516 385.619,-186.156 387.064,-193.005"/>
</g>
<!-- Node5&#45;&gt;Node6 -->
<g id="edge5" class="edge"><title>Node5&#45;&gt;Node6</title>
<path fill="none" stroke="midnightblue" d="M429.73,-168.083C423.938,-160.455 415.442,-149.264 408.362,-139.941"/>
<polygon fill="midnightblue" stroke="midnightblue" points="410.979,-137.599 402.144,-131.751 405.404,-141.832 410.979,-137.599"/>
</g>
<!-- Node8 -->
<g id="node8" class="node"><title>Node8</title>
<polygon fill="white" stroke="#bfbfbf" points="417.5,-0.5 417.5,-19.5 461.5,-19.5 461.5,-0.5 417.5,-0.5"/>
<text text-anchor="middle" x="439.5" y="-7.5" font-family="Verdana" font-size="10.00">string</text>
</g>
<!-- Node5&#45;&gt;Node8 -->
<g id="edge14" class="edge"><title>Node5&#45;&gt;Node8</title>
<path fill="none" stroke="midnightblue" d="M455.833,-168.413C495.286,-149.664 578.81,-102.964 547.5,-56 530.764,-30.896 497.091,-19.7742 471.769,-14.8605"/>
<polygon fill="midnightblue" stroke="midnightblue" points="472.291,-11.3991 461.844,-13.1627 471.111,-18.2989 472.291,-11.3991"/>
</g>
<!-- Node7 -->
<g id="node7" class="node"><title>Node7</title>
<g id="a_node7"><a xlink:href="Message_8h.html" target="_top" xlink:title="Message.h">
<polygon fill="white" stroke="black" points="235.5,-56.5 235.5,-75.5 303.5,-75.5 303.5,-56.5 235.5,-56.5"/>
<text text-anchor="middle" x="269.5" y="-63.5" font-family="Verdana" font-size="10.00">Message.h</text>
</a>
</g>
</g>
<!-- Node6&#45;&gt;Node7 -->
<g id="edge6" class="edge"><title>Node6&#45;&gt;Node7</title>
<path fill="none" stroke="midnightblue" d="M375.535,-112.444C354.891,-103.596 322.437,-89.6875 298.868,-79.5865"/>
<polygon fill="midnightblue" stroke="midnightblue" points="299.942,-76.2387 289.372,-75.5164 297.184,-82.6727 299.942,-76.2387"/>
</g>
<!-- Node6&#45;&gt;Node8 -->
<g id="edge13" class="edge"><title>Node6&#45;&gt;Node8</title>
<path fill="none" stroke="midnightblue" d="M397.795,-112.43C401.27,-99.8456 408.335,-75.7231 416.5,-56 420.317,-46.7787 425.283,-36.8676 429.624,-28.7002"/>
<polygon fill="midnightblue" stroke="midnightblue" points="432.78,-30.2226 434.488,-19.7663 426.632,-26.8751 432.78,-30.2226"/>
</g>
<!-- Node9 -->
<g id="node9" class="node"><title>Node9</title>
<g id="a_node9"><a xlink:href="RemoteCommand_8h.html" target="_top" xlink:title="RemoteCommand.h">
<polygon fill="white" stroke="black" points="426,-56.5 426,-75.5 539,-75.5 539,-56.5 426,-56.5"/>
<text text-anchor="middle" x="482.5" y="-63.5" font-family="Verdana" font-size="10.00">RemoteCommand.h</text>
</a>
</g>
</g>
<!-- Node6&#45;&gt;Node9 -->
<g id="edge9" class="edge"><title>Node6&#45;&gt;Node9</title>
<path fill="none" stroke="midnightblue" d="M409.478,-112.324C423.05,-103.9 443.88,-90.9709 459.825,-81.0741"/>
<polygon fill="midnightblue" stroke="midnightblue" points="461.906,-83.9019 468.557,-75.6545 458.214,-77.9544 461.906,-83.9019"/>
</g>
<!-- Node10 -->
<g id="node10" class="node"><title>Node10</title>
<polygon fill="white" stroke="#bfbfbf" points="322,-56.5 322,-75.5 369,-75.5 369,-56.5 322,-56.5"/>
<text text-anchor="middle" x="345.5" y="-63.5" font-family="Verdana" font-size="10.00">vector</text>
</g>
<!-- Node6&#45;&gt;Node10 -->
<g id="edge12" class="edge"><title>Node6&#45;&gt;Node10</title>
<path fill="none" stroke="midnightblue" d="M387.244,-112.083C380.035,-104.298 369.39,-92.8015 360.654,-83.3665"/>
<polygon fill="midnightblue" stroke="midnightblue" points="362.965,-80.7108 353.603,-75.7511 357.829,-85.4666 362.965,-80.7108"/>
</g>
<!-- Node7&#45;&gt;Node3 -->
<g id="edge7" class="edge"><title>Node7&#45;&gt;Node3</title>
<path fill="none" stroke="midnightblue" d="M262.73,-56.083C256.938,-48.4554 248.442,-37.2645 241.362,-27.9408"/>
<polygon fill="midnightblue" stroke="midnightblue" points="243.979,-25.5991 235.144,-19.7511 238.404,-29.8321 243.979,-25.5991"/>
</g>
<!-- Node7&#45;&gt;Node8 -->
<g id="edge8" class="edge"><title>Node7&#45;&gt;Node8</title>
<path fill="none" stroke="midnightblue" d="M296.437,-56.4435C326.597,-46.8634 375.438,-31.3492 407.514,-21.1604"/>
<polygon fill="midnightblue" stroke="midnightblue" points="408.823,-24.4169 417.294,-18.0537 406.704,-17.7454 408.823,-24.4169"/>
</g>
<!-- Node9&#45;&gt;Node3 -->
<g id="edge10" class="edge"><title>Node9&#45;&gt;Node3</title>
<path fill="none" stroke="midnightblue" d="M442.253,-56.4435C393.614,-46.1031 312.457,-28.8492 265.38,-18.8407"/>
<polygon fill="midnightblue" stroke="midnightblue" points="265.822,-15.3564 255.313,-16.7003 264.366,-22.2034 265.822,-15.3564"/>
</g>
<!-- Node9&#45;&gt;Node8 -->
<g id="edge11" class="edge"><title>Node9&#45;&gt;Node8</title>
<path fill="none" stroke="midnightblue" d="M475.399,-56.083C469.263,-48.3768 460.23,-37.0333 452.761,-27.6531"/>
<polygon fill="midnightblue" stroke="midnightblue" points="455.436,-25.3936 446.468,-19.7511 449.96,-29.7542 455.436,-25.3936"/>
</g>
<!-- Node12 -->
<g id="node12" class="node"><title>Node12</title>
<g id="a_node12"><a xlink:href="Socket_8h.html" target="_top" xlink:title="Socket.h">
<polygon fill="white" stroke="black" points="158,-56.5 158,-75.5 217,-75.5 217,-56.5 158,-56.5"/>
<text text-anchor="middle" x="187.5" y="-63.5" font-family="Verdana" font-size="10.00">Socket.h</text>
</a>
</g>
</g>
<!-- Node11&#45;&gt;Node12 -->
<g id="edge16" class="edge"><title>Node11&#45;&gt;Node12</title>
<path fill="none" stroke="midnightblue" d="M61.2502,-168.368C84.4593,-149.733 139.51,-105.532 168.651,-82.1338"/>
<polygon fill="midnightblue" stroke="midnightblue" points="171.193,-84.5814 176.8,-75.5914 166.811,-79.1231 171.193,-84.5814"/>
</g>
<!-- Node12&#45;&gt;Node3 -->
<g id="edge18" class="edge"><title>Node12&#45;&gt;Node3</title>
<path fill="none" stroke="midnightblue" d="M194.27,-56.083C200.062,-48.4554 208.558,-37.2645 215.638,-27.9408"/>
<polygon fill="midnightblue" stroke="midnightblue" points="218.596,-29.8321 221.856,-19.7511 213.021,-25.5991 218.596,-29.8321"/>
</g>
<!-- Node12&#45;&gt;Node8 -->
<g id="edge17" class="edge"><title>Node12&#45;&gt;Node8</title>
<path fill="none" stroke="midnightblue" d="M217.298,-58.0636C220.403,-57.3586 223.515,-56.6598 226.5,-56 290.631,-41.8272 365.842,-26.1607 407.541,-17.5588"/>
<polygon fill="midnightblue" stroke="midnightblue" points="408.305,-20.9749 417.393,-15.5293 406.893,-14.1189 408.305,-20.9749"/>
</g>
<!-- Node14 -->
<g id="node14" class="node"><title>Node14</title>
<polygon fill="white" stroke="#bfbfbf" points="586.5,-168.5 586.5,-187.5 638.5,-187.5 638.5,-168.5 586.5,-168.5"/>
<text text-anchor="middle" x="612.5" y="-175.5" font-family="Verdana" font-size="10.00">cstddef</text>
</g>
<!-- Node13&#45;&gt;Node14 -->
<g id="edge20" class="edge"><title>Node13&#45;&gt;Node14</title>
<path fill="none" stroke="midnightblue" d="M612.5,-224.083C612.5,-217.006 612.5,-206.861 612.5,-197.986"/>
<polygon fill="midnightblue" stroke="midnightblue" points="616,-197.751 612.5,-187.751 609,-197.751 616,-197.751"/>
</g>
<!-- Node22&#45;&gt;Node7 -->
<g id="edge30" class="edge"><title>Node22&#45;&gt;Node7</title>
<path fill="none" stroke="midnightblue" d="M270.335,-112.083C270.204,-105.006 270.016,-94.8611 269.852,-85.9865"/>
<polygon fill="midnightblue" stroke="midnightblue" points="273.347,-85.6845 269.662,-75.7511 266.348,-85.8142 273.347,-85.6845"/>
</g>
<!-- Node23&#45;&gt;Node8 -->
<g id="edge33" class="edge"><title>Node23&#45;&gt;Node8</title>
<path fill="none" stroke="midnightblue" d="M645.997,-112.125C633.816,-98.2489 608.381,-71.413 581.5,-56 546.581,-35.9778 501.631,-23.6677 471.756,-17.0933"/>
<polygon fill="midnightblue" stroke="midnightblue" points="472.366,-13.645 461.859,-15.0038 470.92,-20.494 472.366,-13.645"/>
</g>
<!-- Node23&#45;&gt;Node9 -->
<g id="edge32" class="edge"><title>Node23&#45;&gt;Node9</title>
<path fill="none" stroke="midnightblue" d="M626.405,-112.444C597.512,-103.32 551.575,-88.8133 519.395,-78.6509"/>
<polygon fill="midnightblue" stroke="midnightblue" points="520.059,-75.1903 509.469,-75.5164 517.951,-81.8654 520.059,-75.1903"/>
</g>
</g>
</svg>
