<?xml version="1.0" encoding="UTF-8" standalone="no"?>
<!DOCTYPE svg PUBLIC "-//W3C//DTD SVG 1.1//EN"
 "http://www.w3.org/Graphics/SVG/1.1/DTD/svg11.dtd">
<!-- Generated by graphviz version 2.38.0 (20140413.2041)
 -->
<!-- Title: remote&#45;processor/RemoteCommandHandlerTemplate.h Pages: 1 -->
<svg width="237pt" height="207pt"
 viewBox="0.00 0.00 237.00 207.00" xmlns="http://www.w3.org/2000/svg" xmlns:xlink="http://www.w3.org/1999/xlink">
<g id="graph0" class="graph" transform="scale(1 1) rotate(0) translate(4 203)">
<title>remote&#45;processor/RemoteCommandHandlerTemplate.h</title>
<polygon fill="white" stroke="none" points="-4,4 -4,-203 233,-203 233,4 -4,4"/>
<!-- Node1 -->
<g id="node1" class="node"><title>Node1</title>
<polygon fill="#bfbfbf" stroke="black" points="0,-168.5 0,-198.5 193,-198.5 193,-168.5 0,-168.5"/>
<text text-anchor="start" x="8" y="-186.5" font-family="Verdana" font-size="10.00">remote&#45;processor/RemoteCommand</text>
<text text-anchor="middle" x="96.5" y="-175.5" font-family="Verdana" font-size="10.00">HandlerTemplate.h</text>
</g>
<!-- Node2 -->
<g id="node2" class="node"><title>Node2</title>
<polygon fill="white" stroke="#bfbfbf" points="15,-112.5 15,-131.5 62,-131.5 62,-112.5 15,-112.5"/>
<text text-anchor="middle" x="38.5" y="-119.5" font-family="Verdana" font-size="10.00">vector</text>
</g>
<!-- Node1&#45;&gt;Node2 -->
<g id="edge1" class="edge"><title>Node1&#45;&gt;Node2</title>
<path fill="none" stroke="midnightblue" d="M82.7548,-168.399C74.1529,-159.575 63.0479,-148.183 54.114,-139.018"/>
<polygon fill="midnightblue" stroke="midnightblue" points="56.426,-136.375 46.9395,-131.658 51.4135,-141.262 56.426,-136.375"/>
</g>
<!-- Node3 -->
<g id="node3" class="node"><title>Node3</title>
<g id="a_node3"><a xlink:href="RemoteCommandHandler_8h.html" target="_top" xlink:title="RemoteCommandHandler.h">
<polygon fill="white" stroke="black" points="80,-112.5 80,-131.5 229,-131.5 229,-112.5 80,-112.5"/>
<text text-anchor="middle" x="154.5" y="-119.5" font-family="Verdana" font-size="10.00">RemoteCommandHandler.h</text>
</a>
</g>
</g>
<!-- Node1&#45;&gt;Node3 -->
<g id="edge2" class="edge"><title>Node1&#45;&gt;Node3</title>
<path fill="none" stroke="midnightblue" d="M110.245,-168.399C118.847,-159.575 129.952,-148.183 138.886,-139.018"/>
<polygon fill="midnightblue" stroke="midnightblue" points="141.586,-141.262 146.06,-131.658 136.574,-136.375 141.586,-141.262"/>
</g>
<!-- Node4 -->
<g id="node4" class="node"><title>Node4</title>
<g id="a_node4"><a xlink:href="RemoteCommand_8h.html" target="_top" xlink:title="RemoteCommand.h">
<polygon fill="white" stroke="black" points="55,-56.5 55,-75.5 168,-75.5 168,-56.5 55,-56.5"/>
<text text-anchor="middle" x="111.5" y="-63.5" font-family="Verdana" font-size="10.00">RemoteCommand.h</text>
</a>
</g>
</g>
<!-- Node3&#45;&gt;Node4 -->
<g id="edge3" class="edge"><title>Node3&#45;&gt;Node4</title>
<path fill="none" stroke="midnightblue" d="M147.399,-112.083C141.263,-104.377 132.23,-93.0333 124.761,-83.6531"/>
<polygon fill="midnightblue" stroke="midnightblue" points="127.436,-81.3936 118.468,-75.7511 121.96,-85.7542 127.436,-81.3936"/>
</g>
<!-- Node6 -->
<g id="node6" class="node"><title>Node6</title>
<polygon fill="white" stroke="#bfbfbf" points="165.5,-0.5 165.5,-19.5 209.5,-19.5 209.5,-0.5 165.5,-0.5"/>
<text text-anchor="middle" x="187.5" y="-7.5" font-family="Verdana" font-size="10.00">string</text>
</g>
<!-- Node3&#45;&gt;Node6 -->
<g id="edge6" class="edge"><title>Node3&#45;&gt;Node6</title>
<path fill="none" stroke="midnightblue" d="M159.956,-112.397C165.278,-103.597 173.183,-89.3579 177.5,-76 182.388,-60.8749 184.917,-42.9772 186.207,-29.7957"/>
<polygon fill="midnightblue" stroke="midnightblue" points="189.713,-29.869 187.05,-19.6142 182.737,-29.2913 189.713,-29.869"/>
</g>
<!-- Node5 -->
<g id="node5" class="node"><title>Node5</title>
<polygon fill="white" stroke="#bfbfbf" points="85,-0.5 85,-19.5 138,-19.5 138,-0.5 85,-0.5"/>
<text text-anchor="middle" x="111.5" y="-7.5" font-family="Verdana" font-size="10.00">stdint.h</text>
</g>
<!-- Node4&#45;&gt;Node5 -->
<g id="edge4" class="edge"><title>Node4&#45;&gt;Node5</title>
<path fill="none" stroke="midnightblue" d="M111.5,-56.083C111.5,-49.0059 111.5,-38.8611 111.5,-29.9865"/>
<polygon fill="midnightblue" stroke="midnightblue" points="115,-29.751 111.5,-19.7511 108,-29.7511 115,-29.751"/>
</g>
<!-- Node4&#45;&gt;Node6 -->
<g id="edge5" class="edge"><title>Node4&#45;&gt;Node6</title>
<path fill="none" stroke="midnightblue" d="M123.711,-56.324C135.276,-48.1066 152.875,-35.6017 166.661,-25.8069"/>
<polygon fill="midnightblue" stroke="midnightblue" points="168.943,-28.4791 175.067,-19.8339 164.888,-22.7729 168.943,-28.4791"/>
</g>
</g>
</svg>
