<?xml version="1.0" encoding="UTF-8" standalone="no"?>
<!DOCTYPE svg PUBLIC "-//W3C//DTD SVG 1.1//EN"
 "http://www.w3.org/Graphics/SVG/1.1/DTD/svg11.dtd">
<!-- Generated by graphviz version 2.38.0 (20140413.2041)
 -->
<!-- Title: remote&#45;processor/RemoteCommand.h Pages: 1 -->
<svg width="1437pt" height="363pt"
 viewBox="0.00 0.00 1437.00 363.00" xmlns="http://www.w3.org/2000/svg" xmlns:xlink="http://www.w3.org/1999/xlink">
<g id="graph0" class="graph" transform="scale(1 1) rotate(0) translate(4 359)">
<title>remote&#45;processor/RemoteCommand.h</title>
<polygon fill="white" stroke="none" points="-4,4 -4,-359 1433,-359 1433,4 -4,4"/>
<!-- Node1 -->
<g id="node1" class="node"><title>Node1</title>
<polygon fill="#bfbfbf" stroke="black" points="1009,-335.5 1009,-354.5 1211,-354.5 1211,-335.5 1009,-335.5"/>
<text text-anchor="middle" x="1110" y="-342.5" font-family="Verdana" font-size="10.00">remote&#45;processor/RemoteCommand.h</text>
</g>
<!-- Node2 -->
<g id="node2" class="node"><title>Node2</title>
<g id="a_node2"><a xlink:href="RemoteCommandHandler_8h.html" target="_top" xlink:title="remote&#45;processor/RemoteCommand\lHandler.h">
<polygon fill="white" stroke="black" points="920.5,-268.5 920.5,-298.5 1113.5,-298.5 1113.5,-268.5 920.5,-268.5"/>
<text text-anchor="start" x="928.5" y="-286.5" font-family="Verdana" font-size="10.00">remote&#45;processor/RemoteCommand</text>
<text text-anchor="middle" x="1017" y="-275.5" font-family="Verdana" font-size="10.00">Handler.h</text>
</a>
</g>
</g>
<!-- Node1&#45;&gt;Node2 -->
<g id="edge1" class="edge"><title>Node1&#45;&gt;Node2</title>
<path fill="none" stroke="midnightblue" d="M1088.13,-330.008C1073.3,-320.518 1053.76,-308.02 1038.92,-298.523"/>
<polygon fill="midnightblue" stroke="midnightblue" points="1086.37,-333.034 1096.68,-335.475 1090.14,-327.138 1086.37,-333.034"/>
</g>
<!-- Node14 -->
<g id="node14" class="node"><title>Node14</title>
<g id="a_node14"><a xlink:href="RequestMessage_8h.html" target="_top" xlink:title="remote&#45;processor/Request\lMessage.h">
<polygon fill="white" stroke="black" points="1132,-268.5 1132,-298.5 1276,-298.5 1276,-268.5 1132,-268.5"/>
<text text-anchor="start" x="1140" y="-286.5" font-family="Verdana" font-size="10.00">remote&#45;processor/Request</text>
<text text-anchor="middle" x="1204" y="-275.5" font-family="Verdana" font-size="10.00">Message.h</text>
</a>
</g>
</g>
<!-- Node1&#45;&gt;Node14 -->
<g id="edge15" class="edge"><title>Node1&#45;&gt;Node14</title>
<path fill="none" stroke="midnightblue" d="M1132.1,-330.008C1147.1,-320.518 1166.84,-308.02 1181.85,-298.523"/>
<polygon fill="midnightblue" stroke="midnightblue" points="1130.05,-327.169 1123.47,-335.475 1133.79,-333.084 1130.05,-327.169"/>
</g>
<!-- Node3 -->
<g id="node3" class="node"><title>Node3</title>
<g id="a_node3"><a xlink:href="RemoteCommandHandlerTemplate_8h.html" target="_top" xlink:title="remote&#45;processor/RemoteCommand\lHandlerTemplate.h">
<polygon fill="white" stroke="black" points="631.5,-201.5 631.5,-231.5 824.5,-231.5 824.5,-201.5 631.5,-201.5"/>
<text text-anchor="start" x="639.5" y="-219.5" font-family="Verdana" font-size="10.00">remote&#45;processor/RemoteCommand</text>
<text text-anchor="middle" x="728" y="-208.5" font-family="Verdana" font-size="10.00">HandlerTemplate.h</text>
</a>
</g>
</g>
<!-- Node2&#45;&gt;Node3 -->
<g id="edge2" class="edge"><title>Node2&#45;&gt;Node3</title>
<path fill="none" stroke="midnightblue" d="M944.761,-266.252C897.39,-255.598 836.066,-241.805 790.739,-231.611"/>
<polygon fill="midnightblue" stroke="midnightblue" points="944.123,-269.696 954.647,-268.476 945.659,-262.867 944.123,-269.696"/>
</g>
<!-- Node13 -->
<g id="node13" class="node"><title>Node13</title>
<g id="a_node13"><a xlink:href="RemoteProcessorServer_8cpp.html" target="_top" xlink:title="remote&#45;processor/RemoteProcessor\lServer.cpp">
<polygon fill="white" stroke="black" points="1145,-67.5 1145,-97.5 1335,-97.5 1335,-67.5 1145,-67.5"/>
<text text-anchor="start" x="1153" y="-85.5" font-family="Verdana" font-size="10.00">remote&#45;processor/RemoteProcessor</text>
<text text-anchor="middle" x="1240" y="-74.5" font-family="Verdana" font-size="10.00">Server.cpp</text>
</a>
</g>
</g>
<!-- Node2&#45;&gt;Node13 -->
<g id="edge14" class="edge"><title>Node2&#45;&gt;Node13</title>
<path fill="none" stroke="midnightblue" d="M1031.85,-259.951C1043.75,-242.774 1061.47,-219.08 1080,-201 1123.91,-158.16 1184.11,-118.088 1216.72,-97.646"/>
<polygon fill="midnightblue" stroke="midnightblue" points="1028.92,-258.039 1026.19,-268.275 1034.71,-261.977 1028.92,-258.039"/>
</g>
<!-- Node4 -->
<g id="node4" class="node"><title>Node4</title>
<g id="a_node4"><a xlink:href="ParameterMgr_8h.html" target="_top" xlink:title="parameter/ParameterMgr.h">
<polygon fill="white" stroke="black" points="284.5,-140 284.5,-159 431.5,-159 431.5,-140 284.5,-140"/>
<text text-anchor="middle" x="358" y="-147" font-family="Verdana" font-size="10.00">parameter/ParameterMgr.h</text>
</a>
</g>
</g>
<!-- Node3&#45;&gt;Node4 -->
<g id="edge3" class="edge"><title>Node3&#45;&gt;Node4</title>
<path fill="none" stroke="midnightblue" d="M638.071,-199.702C565.174,-186.895 465.232,-169.338 406.548,-159.029"/>
<polygon fill="midnightblue" stroke="midnightblue" points="637.716,-203.193 648.171,-201.476 638.927,-196.298 637.716,-203.193"/>
</g>
<!-- Node10 -->
<g id="node10" class="node"><title>Node10</title>
<g id="a_node10"><a xlink:href="TestPlatform_8h.html" target="_top" xlink:title="test/test&#45;platform\l/TestPlatform.h">
<polygon fill="white" stroke="black" points="698.5,-134.5 698.5,-164.5 799.5,-164.5 799.5,-134.5 698.5,-134.5"/>
<text text-anchor="start" x="706.5" y="-152.5" font-family="Verdana" font-size="10.00">test/test&#45;platform</text>
<text text-anchor="middle" x="749" y="-141.5" font-family="Verdana" font-size="10.00">/TestPlatform.h</text>
</a>
</g>
</g>
<!-- Node3&#45;&gt;Node10 -->
<g id="edge11" class="edge"><title>Node3&#45;&gt;Node10</title>
<path fill="none" stroke="midnightblue" d="M735.69,-191.697C738.633,-182.587 741.895,-172.493 744.452,-164.577"/>
<polygon fill="midnightblue" stroke="midnightblue" points="732.301,-190.804 732.557,-201.396 738.962,-192.956 732.301,-190.804"/>
</g>
<!-- Node5 -->
<g id="node5" class="node"><title>Node5</title>
<g id="a_node5"><a xlink:href="ParameterHandle_8cpp.html" target="_top" xlink:title="parameter/ParameterHandle.cpp">
<polygon fill="white" stroke="black" points="328.5,-73 328.5,-92 503.5,-92 503.5,-73 328.5,-73"/>
<text text-anchor="middle" x="416" y="-80" font-family="Verdana" font-size="10.00">parameter/ParameterHandle.cpp</text>
</a>
</g>
</g>
<!-- Node4&#45;&gt;Node5 -->
<g id="edge4" class="edge"><title>Node4&#45;&gt;Node5</title>
<path fill="none" stroke="midnightblue" d="M372.603,-132.135C383.946,-119.423 399.227,-102.298 408.302,-92.1273"/>
<polygon fill="midnightblue" stroke="midnightblue" points="369.869,-129.942 365.822,-139.734 375.092,-134.603 369.869,-129.942"/>
</g>
<!-- Node6 -->
<g id="node6" class="node"><title>Node6</title>
<g id="a_node6"><a xlink:href="ParameterMgr_8cpp.html" target="_top" xlink:title="parameter/ParameterMgr.cpp">
<polygon fill="white" stroke="black" points="522,-73 522,-92 680,-92 680,-73 522,-73"/>
<text text-anchor="middle" x="601" y="-80" font-family="Verdana" font-size="10.00">parameter/ParameterMgr.cpp</text>
</a>
</g>
</g>
<!-- Node4&#45;&gt;Node6 -->
<g id="edge5" class="edge"><title>Node4&#45;&gt;Node6</title>
<path fill="none" stroke="midnightblue" d="M399.783,-137.323C447.765,-124.489 525.439,-103.712 568.911,-92.0834"/>
<polygon fill="midnightblue" stroke="midnightblue" points="398.774,-133.97 390.018,-139.936 400.583,-140.733 398.774,-133.97"/>
</g>
<!-- Node7 -->
<g id="node7" class="node"><title>Node7</title>
<g id="a_node7"><a xlink:href="ParameterMgrFullConnector_8cpp.html" target="_top" xlink:title="parameter/ParameterMgrFull\lConnector.cpp">
<polygon fill="white" stroke="black" points="0,-0.5 0,-30.5 154,-30.5 154,-0.5 0,-0.5"/>
<text text-anchor="start" x="8" y="-18.5" font-family="Verdana" font-size="10.00">parameter/ParameterMgrFull</text>
<text text-anchor="middle" x="77" y="-7.5" font-family="Verdana" font-size="10.00">Connector.cpp</text>
</a>
</g>
</g>
<!-- Node4&#45;&gt;Node7 -->
<g id="edge6" class="edge"><title>Node4&#45;&gt;Node7</title>
<path fill="none" stroke="midnightblue" d="M273.94,-144.105C202.615,-138.471 107.99,-125.849 83,-98 66.5128,-79.6263 69.6661,-48.5784 73.3777,-30.5734"/>
<polygon fill="midnightblue" stroke="midnightblue" points="274.048,-147.623 284.284,-144.887 274.576,-140.643 274.048,-147.623"/>
</g>
<!-- Node8 -->
<g id="node8" class="node"><title>Node8</title>
<g id="a_node8"><a xlink:href="ParameterMgrLogger_8h.html" target="_top" xlink:title="parameter/ParameterMgrLogger.h">
<polygon fill="white" stroke="black" points="92,-73 92,-92 272,-92 272,-73 92,-73"/>
<text text-anchor="middle" x="182" y="-80" font-family="Verdana" font-size="10.00">parameter/ParameterMgrLogger.h</text>
</a>
</g>
</g>
<!-- Node4&#45;&gt;Node8 -->
<g id="edge7" class="edge"><title>Node4&#45;&gt;Node8</title>
<path fill="none" stroke="midnightblue" d="M324.887,-136.271C289.955,-123.37 235.817,-103.376 205.188,-92.0637"/>
<polygon fill="midnightblue" stroke="midnightblue" points="324.035,-139.687 334.629,-139.869 326.46,-133.121 324.035,-139.687"/>
</g>
<!-- Node9 -->
<g id="node9" class="node"><title>Node9</title>
<g id="a_node9"><a xlink:href="ParameterMgrPlatformConnector_8cpp.html" target="_top" xlink:title="parameter/ParameterMgrPlatform\lConnector.cpp">
<polygon fill="white" stroke="black" points="197.5,-0.5 197.5,-30.5 376.5,-30.5 376.5,-0.5 197.5,-0.5"/>
<text text-anchor="start" x="205.5" y="-18.5" font-family="Verdana" font-size="10.00">parameter/ParameterMgrPlatform</text>
<text text-anchor="middle" x="287" y="-7.5" font-family="Verdana" font-size="10.00">Connector.cpp</text>
</a>
</g>
</g>
<!-- Node4&#45;&gt;Node9 -->
<g id="edge10" class="edge"><title>Node4&#45;&gt;Node9</title>
<path fill="none" stroke="midnightblue" d="M343.287,-131.952C335.374,-122.478 325.861,-110.099 319,-98 306.327,-75.6537 296.441,-47.2933 291.185,-30.5979"/>
<polygon fill="midnightblue" stroke="midnightblue" points="340.81,-134.44 349.982,-139.744 346.12,-129.878 340.81,-134.44"/>
</g>
<!-- Node8&#45;&gt;Node7 -->
<g id="edge8" class="edge"><title>Node8&#45;&gt;Node7</title>
<path fill="none" stroke="midnightblue" d="M159.31,-67.4538C141.697,-56.5506 117.389,-41.503 99.7592,-30.589"/>
<polygon fill="midnightblue" stroke="midnightblue" points="157.494,-70.4462 167.839,-72.7338 161.179,-64.4943 157.494,-70.4462"/>
</g>
<!-- Node8&#45;&gt;Node9 -->
<g id="edge9" class="edge"><title>Node8&#45;&gt;Node9</title>
<path fill="none" stroke="midnightblue" d="M204.69,-67.4538C222.303,-56.5506 246.611,-41.503 264.241,-30.589"/>
<polygon fill="midnightblue" stroke="midnightblue" points="202.821,-64.4943 196.161,-72.7338 206.506,-70.4462 202.821,-64.4943"/>
</g>
<!-- Node11 -->
<g id="node11" class="node"><title>Node11</title>
<g id="a_node11"><a xlink:href="test_2test-platform_2main_8cpp.html" target="_top" xlink:title="test/test&#45;platform\l/main.cpp">
<polygon fill="white" stroke="black" points="698.5,-67.5 698.5,-97.5 799.5,-97.5 799.5,-67.5 698.5,-67.5"/>
<text text-anchor="start" x="706.5" y="-85.5" font-family="Verdana" font-size="10.00">test/test&#45;platform</text>
<text text-anchor="middle" x="749" y="-74.5" font-family="Verdana" font-size="10.00">/main.cpp</text>
</a>
</g>
</g>
<!-- Node10&#45;&gt;Node11 -->
<g id="edge12" class="edge"><title>Node10&#45;&gt;Node11</title>
<path fill="none" stroke="midnightblue" d="M749,-124.108C749,-115.154 749,-105.323 749,-97.5765"/>
<polygon fill="midnightblue" stroke="midnightblue" points="745.5,-124.396 749,-134.396 752.5,-124.396 745.5,-124.396"/>
</g>
<!-- Node12 -->
<g id="node12" class="node"><title>Node12</title>
<g id="a_node12"><a xlink:href="TestPlatform_8cpp.html" target="_top" xlink:title="test/test&#45;platform\l/TestPlatform.cpp">
<polygon fill="white" stroke="black" points="817.5,-67.5 817.5,-97.5 918.5,-97.5 918.5,-67.5 817.5,-67.5"/>
<text text-anchor="start" x="825.5" y="-85.5" font-family="Verdana" font-size="10.00">test/test&#45;platform</text>
<text text-anchor="middle" x="868" y="-74.5" font-family="Verdana" font-size="10.00">/TestPlatform.cpp</text>
</a>
</g>
</g>
<!-- Node10&#45;&gt;Node12 -->
<g id="edge13" class="edge"><title>Node10&#45;&gt;Node12</title>
<path fill="none" stroke="midnightblue" d="M783.647,-129.575C802.367,-119.35 825.087,-106.94 842.229,-97.5765"/>
<polygon fill="midnightblue" stroke="midnightblue" points="781.92,-126.531 774.821,-134.396 785.275,-132.674 781.92,-126.531"/>
</g>
<!-- Node14&#45;&gt;Node13 -->
<g id="edge23" class="edge"><title>Node14&#45;&gt;Node13</title>
<path fill="none" stroke="midnightblue" d="M1225.46,-260.44C1232.09,-252.189 1238.56,-242.302 1242,-232 1257.69,-185.048 1248.72,-124.993 1243.25,-97.8997"/>
<polygon fill="midnightblue" stroke="midnightblue" points="1222.74,-258.236 1218.88,-268.102 1228.05,-262.798 1222.74,-258.236"/>
</g>
<!-- Node15 -->
<g id="node15" class="node"><title>Node15</title>
<g id="a_node15"><a xlink:href="remote-process_2main_8cpp.html" target="_top" xlink:title="remote&#45;process/main.cpp">
<polygon fill="white" stroke="black" points="1289,-207 1289,-226 1429,-226 1429,-207 1289,-207"/>
<text text-anchor="middle" x="1359" y="-214" font-family="Verdana" font-size="10.00">remote&#45;process/main.cpp</text>
</a>
</g>
</g>
<!-- Node14&#45;&gt;Node15 -->
<g id="edge16" class="edge"><title>Node14&#45;&gt;Node15</title>
<path fill="none" stroke="midnightblue" d="M1247.02,-264.458C1276.97,-251.9 1315.54,-235.724 1338.71,-226.007"/>
<polygon fill="midnightblue" stroke="midnightblue" points="1245.5,-261.301 1237.63,-268.396 1248.21,-267.756 1245.5,-261.301"/>
</g>
<!-- Node16 -->
<g id="node16" class="node"><title>Node16</title>
<g id="a_node16"><a xlink:href="RemoteProcessorServerInterface_8h.html" target="_top" xlink:title="remote&#45;processor/RemoteProcessor\lServerInterface.h">
<polygon fill="white" stroke="black" points="843,-201.5 843,-231.5 1033,-231.5 1033,-201.5 843,-201.5"/>
<text text-anchor="start" x="851" y="-219.5" font-family="Verdana" font-size="10.00">remote&#45;processor/RemoteProcessor</text>
<text text-anchor="middle" x="938" y="-208.5" font-family="Verdana" font-size="10.00">ServerInterface.h</text>
</a>
</g>
</g>
<!-- Node14&#45;&gt;Node16 -->
<g id="edge17" class="edge"><title>Node14&#45;&gt;Node16</title>
<path fill="none" stroke="midnightblue" d="M1136.69,-266.052C1093.2,-255.425 1037.2,-241.741 995.746,-231.611"/>
<polygon fill="midnightblue" stroke="midnightblue" points="1136.06,-269.502 1146.61,-268.476 1137.73,-262.702 1136.06,-269.502"/>
</g>
<!-- Node19 -->
<g id="node19" class="node"><title>Node19</title>
<g id="a_node19"><a xlink:href="RequestMessage_8cpp.html" target="_top" xlink:title="remote&#45;processor/Request\lMessage.cpp">
<polygon fill="white" stroke="black" points="1089,-201.5 1089,-231.5 1233,-231.5 1233,-201.5 1089,-201.5"/>
<text text-anchor="start" x="1097" y="-219.5" font-family="Verdana" font-size="10.00">remote&#45;processor/Request</text>
<text text-anchor="middle" x="1161" y="-208.5" font-family="Verdana" font-size="10.00">Message.cpp</text>
</a>
</g>
</g>
<!-- Node14&#45;&gt;Node19 -->
<g id="edge24" class="edge"><title>Node14&#45;&gt;Node19</title>
<path fill="none" stroke="midnightblue" d="M1189.03,-259.867C1182.8,-250.459 1175.77,-239.833 1170.31,-231.577"/>
<polygon fill="midnightblue" stroke="midnightblue" points="1186.23,-261.987 1194.67,-268.396 1192.07,-258.125 1186.23,-261.987"/>
</g>
<!-- Node16&#45;&gt;Node6 -->
<g id="edge18" class="edge"><title>Node16&#45;&gt;Node6</title>
<path fill="none" stroke="midnightblue" d="M832.873,-199.837C777.116,-190.402 715.069,-177.771 690,-165 653.597,-146.455 621.012,-108.875 607.551,-92.0182"/>
<polygon fill="midnightblue" stroke="midnightblue" points="832.398,-203.306 842.838,-201.501 833.551,-196.402 832.398,-203.306"/>
</g>
<!-- Node17 -->
<g id="node17" class="node"><title>Node17</title>
<g id="a_node17"><a xlink:href="RemoteProcessorServer_8h.html" target="_top" xlink:title="remote&#45;processor/RemoteProcessor\lServer.h">
<polygon fill="white" stroke="black" points="843,-134.5 843,-164.5 1033,-164.5 1033,-134.5 843,-134.5"/>
<text text-anchor="start" x="851" y="-152.5" font-family="Verdana" font-size="10.00">remote&#45;processor/RemoteProcessor</text>
<text text-anchor="middle" x="938" y="-141.5" font-family="Verdana" font-size="10.00">Server.h</text>
</a>
</g>
</g>
<!-- Node16&#45;&gt;Node17 -->
<g id="edge19" class="edge"><title>Node16&#45;&gt;Node17</title>
<path fill="none" stroke="midnightblue" d="M938,-191.108C938,-182.154 938,-172.323 938,-164.577"/>
<polygon fill="midnightblue" stroke="midnightblue" points="934.5,-191.396 938,-201.396 941.5,-191.396 934.5,-191.396"/>
</g>
<!-- Node17&#45;&gt;Node12 -->
<g id="edge22" class="edge"><title>Node17&#45;&gt;Node12</title>
<path fill="none" stroke="midnightblue" d="M915.182,-127.311C904.681,-117.561 892.51,-106.259 883.159,-97.5765"/>
<polygon fill="midnightblue" stroke="midnightblue" points="913.101,-130.156 922.811,-134.396 917.865,-125.027 913.101,-130.156"/>
</g>
<!-- Node17&#45;&gt;Node13 -->
<g id="edge20" class="edge"><title>Node17&#45;&gt;Node13</title>
<path fill="none" stroke="midnightblue" d="M1013.2,-132.316C1062.83,-121.633 1127.22,-107.775 1174.7,-97.5549"/>
<polygon fill="midnightblue" stroke="midnightblue" points="1012.2,-128.95 1003.16,-134.476 1013.67,-135.793 1012.2,-128.95"/>
</g>
<!-- Node18 -->
<g id="node18" class="node"><title>Node18</title>
<g id="a_node18"><a xlink:href="RemoteProcessorServerBuilder_8cpp.html" target="_top" xlink:title="remote&#45;processor/RemoteProcessor\lServerBuilder.cpp">
<polygon fill="white" stroke="black" points="937,-67.5 937,-97.5 1127,-97.5 1127,-67.5 937,-67.5"/>
<text text-anchor="start" x="945" y="-85.5" font-family="Verdana" font-size="10.00">remote&#45;processor/RemoteProcessor</text>
<text text-anchor="middle" x="1032" y="-74.5" font-family="Verdana" font-size="10.00">ServerBuilder.cpp</text>
</a>
</g>
</g>
<!-- Node17&#45;&gt;Node18 -->
<g id="edge21" class="edge"><title>Node17&#45;&gt;Node18</title>
<path fill="none" stroke="midnightblue" d="M966.994,-128.451C981.455,-118.452 998.595,-106.6 1011.64,-97.5765"/>
<polygon fill="midnightblue" stroke="midnightblue" points="964.631,-125.83 958.397,-134.396 968.612,-131.587 964.631,-125.83"/>
</g>
</g>
</svg>
