<?xml version="1.0" encoding="UTF-8" standalone="no"?>
<!DOCTYPE svg PUBLIC "-//W3C//DTD SVG 1.1//EN"
 "http://www.w3.org/Graphics/SVG/1.1/DTD/svg11.dtd">
<!-- Generated by graphviz version 2.38.0 (20140413.2041)
 -->
<!-- Title: remote&#45;processor/RemoteProcessorServerInterface.h Pages: 1 -->
<svg width="621pt" height="207pt"
 viewBox="0.00 0.00 621.00 207.00" xmlns="http://www.w3.org/2000/svg" xmlns:xlink="http://www.w3.org/1999/xlink">
<g id="graph0" class="graph" transform="scale(1 1) rotate(0) translate(4 203)">
<title>remote&#45;processor/RemoteProcessorServerInterface.h</title>
<polygon fill="white" stroke="none" points="-4,4 -4,-203 617,-203 617,4 -4,4"/>
<!-- Node1 -->
<g id="node1" class="node"><title>Node1</title>
<polygon fill="#bfbfbf" stroke="black" points="329.5,-168.5 329.5,-198.5 519.5,-198.5 519.5,-168.5 329.5,-168.5"/>
<text text-anchor="start" x="337.5" y="-186.5" font-family="Verdana" font-size="10.00">remote&#45;processor/RemoteProcessor</text>
<text text-anchor="middle" x="424.5" y="-175.5" font-family="Verdana" font-size="10.00">ServerInterface.h</text>
</g>
<!-- Node2 -->
<g id="node2" class="node"><title>Node2</title>
<g id="a_node2"><a xlink:href="RequestMessage_8h.html" target="_top" xlink:title="RequestMessage.h">
<polygon fill="white" stroke="black" points="412,-112.5 412,-131.5 519,-131.5 519,-112.5 412,-112.5"/>
<text text-anchor="middle" x="465.5" y="-119.5" font-family="Verdana" font-size="10.00">RequestMessage.h</text>
</a>
</g>
</g>
<!-- Node1&#45;&gt;Node2 -->
<g id="edge1" class="edge"><title>Node1&#45;&gt;Node2</title>
<path fill="none" stroke="midnightblue" d="M434.216,-168.399C440.051,-159.932 447.516,-149.099 453.69,-140.139"/>
<polygon fill="midnightblue" stroke="midnightblue" points="456.742,-141.878 459.534,-131.658 450.978,-137.906 456.742,-141.878"/>
</g>
<!-- Node7 -->
<g id="node7" class="node"><title>Node7</title>
<polygon fill="white" stroke="#bfbfbf" points="428.5,-0.5 428.5,-19.5 472.5,-19.5 472.5,-0.5 428.5,-0.5"/>
<text text-anchor="middle" x="450.5" y="-7.5" font-family="Verdana" font-size="10.00">string</text>
</g>
<!-- Node1&#45;&gt;Node7 -->
<g id="edge15" class="edge"><title>Node1&#45;&gt;Node7</title>
<path fill="none" stroke="midnightblue" d="M415.486,-168.371C407.588,-154.266 398.015,-131.887 402.5,-112 409.552,-80.7315 427.474,-47.7847 439.311,-28.3306"/>
<polygon fill="midnightblue" stroke="midnightblue" points="442.374,-30.0335 444.708,-19.6989 436.438,-26.3224 442.374,-30.0335"/>
</g>
<!-- Node3 -->
<g id="node3" class="node"><title>Node3</title>
<polygon fill="white" stroke="#bfbfbf" points="0,-0.5 0,-19.5 149,-19.5 149,-0.5 0,-0.5"/>
<text text-anchor="middle" x="74.5" y="-7.5" font-family="Verdana" font-size="10.00">remote_processor_export.h</text>
</g>
<!-- Node2&#45;&gt;Node3 -->
<g id="edge2" class="edge"><title>Node2&#45;&gt;Node3</title>
<path fill="none" stroke="midnightblue" d="M424.416,-112.437C385.363,-104.046 325.097,-90.4445 273.5,-76 214.741,-59.5504 147.465,-36.7211 108.114,-22.9544"/>
<polygon fill="midnightblue" stroke="midnightblue" points="109.092,-19.5881 98.4967,-19.5755 106.771,-26.1923 109.092,-19.5881"/>
</g>
<!-- Node4 -->
<g id="node4" class="node"><title>Node4</title>
<g id="a_node4"><a xlink:href="Message_8h.html" target="_top" xlink:title="Message.h">
<polygon fill="white" stroke="black" points="282.5,-56.5 282.5,-75.5 350.5,-75.5 350.5,-56.5 282.5,-56.5"/>
<text text-anchor="middle" x="316.5" y="-63.5" font-family="Verdana" font-size="10.00">Message.h</text>
</a>
</g>
</g>
<!-- Node2&#45;&gt;Node4 -->
<g id="edge3" class="edge"><title>Node2&#45;&gt;Node4</title>
<path fill="none" stroke="midnightblue" d="M441.891,-112.444C417.042,-103.438 377.726,-89.1891 349.746,-79.049"/>
<polygon fill="midnightblue" stroke="midnightblue" points="350.593,-75.6332 339.999,-75.5164 348.208,-82.2144 350.593,-75.6332"/>
</g>
<!-- Node2&#45;&gt;Node7 -->
<g id="edge14" class="edge"><title>Node2&#45;&gt;Node7</title>
<path fill="none" stroke="midnightblue" d="M459.862,-112.481C454.446,-103.745 446.636,-89.5558 443.5,-76 439.902,-60.4499 442.369,-42.37 445.324,-29.2318"/>
<polygon fill="midnightblue" stroke="midnightblue" points="448.72,-30.0767 447.798,-19.5221 441.937,-28.3483 448.72,-30.0767"/>
</g>
<!-- Node9 -->
<g id="node9" class="node"><title>Node9</title>
<g id="a_node9"><a xlink:href="RemoteCommand_8h.html" target="_top" xlink:title="RemoteCommand.h">
<polygon fill="white" stroke="black" points="453,-56.5 453,-75.5 566,-75.5 566,-56.5 453,-56.5"/>
<text text-anchor="middle" x="509.5" y="-63.5" font-family="Verdana" font-size="10.00">RemoteCommand.h</text>
</a>
</g>
</g>
<!-- Node2&#45;&gt;Node9 -->
<g id="edge9" class="edge"><title>Node2&#45;&gt;Node9</title>
<path fill="none" stroke="midnightblue" d="M472.766,-112.083C479.045,-104.377 488.288,-93.0333 495.931,-83.6531"/>
<polygon fill="midnightblue" stroke="midnightblue" points="498.766,-85.7143 502.369,-75.7511 493.339,-81.2926 498.766,-85.7143"/>
</g>
<!-- Node11 -->
<g id="node11" class="node"><title>Node11</title>
<polygon fill="white" stroke="#bfbfbf" points="566,-0.5 566,-19.5 613,-19.5 613,-0.5 566,-0.5"/>
<text text-anchor="middle" x="589.5" y="-7.5" font-family="Verdana" font-size="10.00">vector</text>
</g>
<!-- Node2&#45;&gt;Node11 -->
<g id="edge13" class="edge"><title>Node2&#45;&gt;Node11</title>
<path fill="none" stroke="midnightblue" d="M511.104,-112.423C533.257,-105.985 558.484,-94.8983 574.5,-76 585.371,-63.1724 588.736,-43.9878 589.612,-29.7828"/>
<polygon fill="midnightblue" stroke="midnightblue" points="593.114,-29.7632 589.877,-19.6748 586.116,-29.5797 593.114,-29.7632"/>
</g>
<!-- Node4&#45;&gt;Node3 -->
<g id="edge8" class="edge"><title>Node4&#45;&gt;Node3</title>
<path fill="none" stroke="midnightblue" d="M282.341,-57.3776C240.707,-48.0874 170.081,-32.3281 122.871,-21.7936"/>
<polygon fill="midnightblue" stroke="midnightblue" points="123.4,-18.3256 112.878,-19.5637 121.876,-25.1576 123.4,-18.3256"/>
</g>
<!-- Node5 -->
<g id="node5" class="node"><title>Node5</title>
<g id="a_node5"><a xlink:href="NonCopyable_8hpp.html" target="_top" xlink:title="NonCopyable.hpp">
<polygon fill="white" stroke="black" points="167,-0.5 167,-19.5 268,-19.5 268,-0.5 167,-0.5"/>
<text text-anchor="middle" x="217.5" y="-7.5" font-family="Verdana" font-size="10.00">NonCopyable.hpp</text>
</a>
</g>
</g>
<!-- Node4&#45;&gt;Node5 -->
<g id="edge4" class="edge"><title>Node4&#45;&gt;Node5</title>
<path fill="none" stroke="midnightblue" d="M300.594,-56.324C284.862,-47.7428 260.558,-34.486 242.291,-24.5224"/>
<polygon fill="midnightblue" stroke="midnightblue" points="243.822,-21.3704 233.367,-19.6545 240.47,-27.5157 243.822,-21.3704"/>
</g>
<!-- Node6 -->
<g id="node6" class="node"><title>Node6</title>
<polygon fill="white" stroke="#bfbfbf" points="286,-0.5 286,-19.5 343,-19.5 343,-0.5 286,-0.5"/>
<text text-anchor="middle" x="314.5" y="-7.5" font-family="Verdana" font-size="10.00">asio.hpp</text>
</g>
<!-- Node4&#45;&gt;Node6 -->
<g id="edge5" class="edge"><title>Node4&#45;&gt;Node6</title>
<path fill="none" stroke="midnightblue" d="M316.17,-56.083C315.908,-49.0059 315.532,-38.8611 315.203,-29.9865"/>
<polygon fill="midnightblue" stroke="midnightblue" points="318.692,-29.6147 314.824,-19.7511 311.697,-29.8738 318.692,-29.6147"/>
</g>
<!-- Node4&#45;&gt;Node7 -->
<g id="edge6" class="edge"><title>Node4&#45;&gt;Node7</title>
<path fill="none" stroke="midnightblue" d="M337.733,-56.4435C359.884,-47.5171 394.819,-33.4387 419.936,-23.3168"/>
<polygon fill="midnightblue" stroke="midnightblue" points="421.4,-26.5006 429.367,-19.5164 418.783,-20.0079 421.4,-26.5006"/>
</g>
<!-- Node8 -->
<g id="node8" class="node"><title>Node8</title>
<polygon fill="white" stroke="#bfbfbf" points="361,-0.5 361,-19.5 410,-19.5 410,-0.5 361,-0.5"/>
<text text-anchor="middle" x="385.5" y="-7.5" font-family="Verdana" font-size="10.00">cstdint</text>
</g>
<!-- Node4&#45;&gt;Node8 -->
<g id="edge7" class="edge"><title>Node4&#45;&gt;Node8</title>
<path fill="none" stroke="midnightblue" d="M327.586,-56.324C337.986,-48.1849 353.761,-35.8395 366.222,-26.0874"/>
<polygon fill="midnightblue" stroke="midnightblue" points="368.494,-28.7533 374.212,-19.8339 364.18,-23.2407 368.494,-28.7533"/>
</g>
<!-- Node9&#45;&gt;Node7 -->
<g id="edge12" class="edge"><title>Node9&#45;&gt;Node7</title>
<path fill="none" stroke="midnightblue" d="M500.021,-56.324C491.299,-48.3414 478.157,-36.3128 467.602,-26.6529"/>
<polygon fill="midnightblue" stroke="midnightblue" points="469.892,-24.0036 460.152,-19.8339 465.166,-29.1674 469.892,-24.0036"/>
</g>
<!-- Node10 -->
<g id="node10" class="node"><title>Node10</title>
<polygon fill="white" stroke="#bfbfbf" points="491,-0.5 491,-19.5 544,-19.5 544,-0.5 491,-0.5"/>
<text text-anchor="middle" x="517.5" y="-7.5" font-family="Verdana" font-size="10.00">stdint.h</text>
</g>
<!-- Node9&#45;&gt;Node10 -->
<g id="edge10" class="edge"><title>Node9&#45;&gt;Node10</title>
<path fill="none" stroke="midnightblue" d="M510.821,-56.083C511.881,-48.9272 513.406,-38.6353 514.731,-29.6911"/>
<polygon fill="midnightblue" stroke="midnightblue" points="518.2,-30.1561 516.204,-19.7511 511.276,-29.1302 518.2,-30.1561"/>
</g>
<!-- Node9&#45;&gt;Node11 -->
<g id="edge11" class="edge"><title>Node9&#45;&gt;Node11</title>
<path fill="none" stroke="midnightblue" d="M522.353,-56.324C534.716,-47.979 553.63,-35.2122 568.237,-25.3524"/>
<polygon fill="midnightblue" stroke="midnightblue" points="570.348,-28.1503 576.679,-19.6545 566.432,-22.3483 570.348,-28.1503"/>
</g>
</g>
</svg>
