<?xml version="1.0" encoding="UTF-8" standalone="no"?>
<!DOCTYPE svg PUBLIC "-//W3C//DTD SVG 1.1//EN"
 "http://www.w3.org/Graphics/SVG/1.1/DTD/svg11.dtd">
<!-- Generated by graphviz version 2.38.0 (20140413.2041)
 -->
<!-- Title: remote&#45;processor/RemoteCommandHandlerTemplate.h Pages: 1 -->
<svg width="967pt" height="173pt"
 viewBox="0.00 0.00 967.00 173.00" xmlns="http://www.w3.org/2000/svg" xmlns:xlink="http://www.w3.org/1999/xlink">
<g id="graph0" class="graph" transform="scale(1 1) rotate(0) translate(4 169)">
<title>remote&#45;processor/RemoteCommandHandlerTemplate.h</title>
<polygon fill="white" stroke="none" points="-4,4 -4,-169 963,-169 963,4 -4,4"/>
<!-- Node1 -->
<g id="node1" class="node"><title>Node1</title>
<polygon fill="#bfbfbf" stroke="black" points="521,-134.5 521,-164.5 714,-164.5 714,-134.5 521,-134.5"/>
<text text-anchor="start" x="529" y="-152.5" font-family="Verdana" font-size="10.00">remote&#45;processor/RemoteCommand</text>
<text text-anchor="middle" x="617.5" y="-141.5" font-family="Verdana" font-size="10.00">HandlerTemplate.h</text>
</g>
<!-- Node2 -->
<g id="node2" class="node"><title>Node2</title>
<g id="a_node2"><a xlink:href="ParameterMgr_8h.html" target="_top" xlink:title="parameter/ParameterMgr.h">
<polygon fill="white" stroke="black" points="373,-73 373,-92 520,-92 520,-73 373,-73"/>
<text text-anchor="middle" x="446.5" y="-80" font-family="Verdana" font-size="10.00">parameter/ParameterMgr.h</text>
</a>
</g>
</g>
<!-- Node1&#45;&gt;Node2 -->
<g id="edge1" class="edge"><title>Node1&#45;&gt;Node2</title>
<path fill="none" stroke="midnightblue" d="M570.893,-130.784C537.737,-118.181 494.665,-101.808 468.88,-92.007"/>
<polygon fill="midnightblue" stroke="midnightblue" points="569.804,-134.114 580.396,-134.396 572.292,-127.571 569.804,-134.114"/>
</g>
<!-- Node7 -->
<g id="node7" class="node"><title>Node7</title>
<g id="a_node7"><a xlink:href="TestPlatform_8h.html" target="_top" xlink:title="test/test&#45;platform\l/TestPlatform.h">
<polygon fill="white" stroke="black" points="739,-67.5 739,-97.5 840,-97.5 840,-67.5 739,-67.5"/>
<text text-anchor="start" x="747" y="-85.5" font-family="Verdana" font-size="10.00">test/test&#45;platform</text>
<text text-anchor="middle" x="789.5" y="-74.5" font-family="Verdana" font-size="10.00">/TestPlatform.h</text>
</a>
</g>
</g>
<!-- Node1&#45;&gt;Node7 -->
<g id="edge6" class="edge"><title>Node1&#45;&gt;Node7</title>
<path fill="none" stroke="midnightblue" d="M664.288,-130.819C691.935,-120.371 726.46,-107.323 752.251,-97.5765"/>
<polygon fill="midnightblue" stroke="midnightblue" points="662.938,-127.587 654.821,-134.396 665.413,-134.135 662.938,-127.587"/>
</g>
<!-- Node3 -->
<g id="node3" class="node"><title>Node3</title>
<g id="a_node3"><a xlink:href="ParameterHandle_8cpp.html" target="_top" xlink:title="parameter/ParameterHandle.cpp">
<polygon fill="white" stroke="black" points="0,-6 0,-25 175,-25 175,-6 0,-6"/>
<text text-anchor="middle" x="87.5" y="-13" font-family="Verdana" font-size="10.00">parameter/ParameterHandle.cpp</text>
</a>
</g>
</g>
<!-- Node2&#45;&gt;Node3 -->
<g id="edge2" class="edge"><title>Node2&#45;&gt;Node3</title>
<path fill="none" stroke="midnightblue" d="M389.147,-71.1158C318.589,-58.3406 200.127,-36.892 134.621,-25.0317"/>
<polygon fill="midnightblue" stroke="midnightblue" points="388.734,-74.5979 399.198,-72.9355 389.981,-67.7098 388.734,-74.5979"/>
</g>
<!-- Node4 -->
<g id="node4" class="node"><title>Node4</title>
<g id="a_node4"><a xlink:href="ParameterMgr_8cpp.html" target="_top" xlink:title="parameter/ParameterMgr.cpp">
<polygon fill="white" stroke="black" points="193.5,-6 193.5,-25 351.5,-25 351.5,-6 193.5,-6"/>
<text text-anchor="middle" x="272.5" y="-13" font-family="Verdana" font-size="10.00">parameter/ParameterMgr.cpp</text>
</a>
</g>
</g>
<!-- Node2&#45;&gt;Node4 -->
<g id="edge3" class="edge"><title>Node2&#45;&gt;Node4</title>
<path fill="none" stroke="midnightblue" d="M413.763,-69.2706C379.229,-56.3699 325.706,-36.3757 295.424,-25.0637"/>
<polygon fill="midnightblue" stroke="midnightblue" points="412.802,-72.6477 423.394,-72.8685 415.251,-66.0903 412.802,-72.6477"/>
</g>
<!-- Node5 -->
<g id="node5" class="node"><title>Node5</title>
<g id="a_node5"><a xlink:href="ParameterMgrFullConnector_8cpp.html" target="_top" xlink:title="parameter/ParameterMgrFull\lConnector.cpp">
<polygon fill="white" stroke="black" points="369.5,-0.5 369.5,-30.5 523.5,-30.5 523.5,-0.5 369.5,-0.5"/>
<text text-anchor="start" x="377.5" y="-18.5" font-family="Verdana" font-size="10.00">parameter/ParameterMgrFull</text>
<text text-anchor="middle" x="446.5" y="-7.5" font-family="Verdana" font-size="10.00">Connector.cpp</text>
</a>
</g>
</g>
<!-- Node2&#45;&gt;Node5 -->
<g id="edge4" class="edge"><title>Node2&#45;&gt;Node5</title>
<path fill="none" stroke="midnightblue" d="M446.5,-62.4107C446.5,-52.222 446.5,-39.901 446.5,-30.589"/>
<polygon fill="midnightblue" stroke="midnightblue" points="443,-62.7338 446.5,-72.7338 450,-62.7338 443,-62.7338"/>
</g>
<!-- Node6 -->
<g id="node6" class="node"><title>Node6</title>
<g id="a_node6"><a xlink:href="ParameterMgrPlatformConnector_8cpp.html" target="_top" xlink:title="parameter/ParameterMgrPlatform\lConnector.cpp">
<polygon fill="white" stroke="black" points="542,-0.5 542,-30.5 721,-30.5 721,-0.5 542,-0.5"/>
<text text-anchor="start" x="550" y="-18.5" font-family="Verdana" font-size="10.00">parameter/ParameterMgrPlatform</text>
<text text-anchor="middle" x="631.5" y="-7.5" font-family="Verdana" font-size="10.00">Connector.cpp</text>
</a>
</g>
</g>
<!-- Node2&#45;&gt;Node6 -->
<g id="edge5" class="edge"><title>Node2&#45;&gt;Node6</title>
<path fill="none" stroke="midnightblue" d="M480.683,-69.4899C512.046,-58.4702 558.516,-42.143 591.574,-30.5281"/>
<polygon fill="midnightblue" stroke="midnightblue" points="479.341,-66.2515 471.067,-72.8685 481.661,-72.8557 479.341,-66.2515"/>
</g>
<!-- Node8 -->
<g id="node8" class="node"><title>Node8</title>
<g id="a_node8"><a xlink:href="test_2test-platform_2main_8cpp.html" target="_top" xlink:title="test/test&#45;platform\l/main.cpp">
<polygon fill="white" stroke="black" points="739,-0.5 739,-30.5 840,-30.5 840,-0.5 739,-0.5"/>
<text text-anchor="start" x="747" y="-18.5" font-family="Verdana" font-size="10.00">test/test&#45;platform</text>
<text text-anchor="middle" x="789.5" y="-7.5" font-family="Verdana" font-size="10.00">/main.cpp</text>
</a>
</g>
</g>
<!-- Node7&#45;&gt;Node8 -->
<g id="edge7" class="edge"><title>Node7&#45;&gt;Node8</title>
<path fill="none" stroke="midnightblue" d="M789.5,-57.1081C789.5,-48.1539 789.5,-38.3227 789.5,-30.5765"/>
<polygon fill="midnightblue" stroke="midnightblue" points="786,-57.3959 789.5,-67.396 793,-57.396 786,-57.3959"/>
</g>
<!-- Node9 -->
<g id="node9" class="node"><title>Node9</title>
<g id="a_node9"><a xlink:href="TestPlatform_8cpp.html" target="_top" xlink:title="test/test&#45;platform\l/TestPlatform.cpp">
<polygon fill="white" stroke="black" points="858,-0.5 858,-30.5 959,-30.5 959,-0.5 858,-0.5"/>
<text text-anchor="start" x="866" y="-18.5" font-family="Verdana" font-size="10.00">test/test&#45;platform</text>
<text text-anchor="middle" x="908.5" y="-7.5" font-family="Verdana" font-size="10.00">/TestPlatform.cpp</text>
</a>
</g>
</g>
<!-- Node7&#45;&gt;Node9 -->
<g id="edge8" class="edge"><title>Node7&#45;&gt;Node9</title>
<path fill="none" stroke="midnightblue" d="M824.147,-62.575C842.867,-52.3502 865.587,-39.94 882.729,-30.5765"/>
<polygon fill="midnightblue" stroke="midnightblue" points="822.42,-59.5306 815.321,-67.396 825.775,-65.6739 822.42,-59.5306"/>
</g>
</g>
</svg>
