<?xml version="1.0" encoding="UTF-8" standalone="no"?>
<!DOCTYPE svg PUBLIC "-//W3C//DTD SVG 1.1//EN"
 "http://www.w3.org/Graphics/SVG/1.1/DTD/svg11.dtd">
<!-- Generated by graphviz version 2.38.0 (20140413.2041)
 -->
<!-- Title: /home/dawagner/dev/parameter&#45;framework/remote&#45;processor/RemoteProcessorServer.h Pages: 1 -->
<svg width="412pt" height="150pt"
 viewBox="0.00 0.00 412.00 150.00" xmlns="http://www.w3.org/2000/svg" xmlns:xlink="http://www.w3.org/1999/xlink">
<g id="graph0" class="graph" transform="scale(1 1) rotate(0) translate(4 146)">
<title>/home/dawagner/dev/parameter&#45;framework/remote&#45;processor/RemoteProcessorServer.h</title>
<polygon fill="white" stroke="none" points="-4,4 -4,-146 408,-146 408,4 -4,4"/>
<!-- Node1 -->
<g id="node1" class="node"><title>Node1</title>
<polygon fill="#bfbfbf" stroke="black" points="105,-89.5 105,-141.5 298,-141.5 298,-89.5 105,-89.5"/>
<text text-anchor="start" x="113" y="-129.5" font-family="Verdana" font-size="10.00">/home/dawagner/dev</text>
<text text-anchor="start" x="113" y="-118.5" font-family="Verdana" font-size="10.00">/parameter&#45;framework</text>
<text text-anchor="start" x="113" y="-107.5" font-family="Verdana" font-size="10.00">/remote&#45;processor/RemoteProcessor</text>
<text text-anchor="middle" x="201.5" y="-96.5" font-family="Verdana" font-size="10.00">Server.h</text>
</g>
<!-- Node2 -->
<g id="node2" class="node"><title>Node2</title>
<g id="a_node2"><a xlink:href="RemoteProcessorServer_8cpp.html" target="_top" xlink:title="/home/dawagner/dev\l/parameter&#45;framework\l/remote&#45;processor/RemoteProcessor\lServer.cpp">
<polygon fill="white" stroke="black" points="0,-0.5 0,-52.5 193,-52.5 193,-0.5 0,-0.5"/>
<text text-anchor="start" x="8" y="-40.5" font-family="Verdana" font-size="10.00">/home/dawagner/dev</text>
<text text-anchor="start" x="8" y="-29.5" font-family="Verdana" font-size="10.00">/parameter&#45;framework</text>
<text text-anchor="start" x="8" y="-18.5" font-family="Verdana" font-size="10.00">/remote&#45;processor/RemoteProcessor</text>
<text text-anchor="middle" x="96.5" y="-7.5" font-family="Verdana" font-size="10.00">Server.cpp</text>
</a>
</g>
</g>
<!-- Node1&#45;&gt;Node2 -->
<g id="edge1" class="edge"><title>Node1&#45;&gt;Node2</title>
<path fill="none" stroke="midnightblue" d="M163.403,-82.9342C151.361,-72.9562 138.223,-62.0702 126.802,-52.6075"/>
<polygon fill="midnightblue" stroke="midnightblue" points="161.196,-85.6509 171.13,-89.336 165.662,-80.2607 161.196,-85.6509"/>
</g>
<!-- Node3 -->
<g id="node3" class="node"><title>Node3</title>
<g id="a_node3"><a xlink:href="RemoteProcessorServerBuilder_8cpp.html" target="_top" xlink:title="/home/dawagner/dev\l/parameter&#45;framework\l/remote&#45;processor/RemoteProcessor\lServerBuilder.cpp">
<polygon fill="white" stroke="black" points="211,-0.5 211,-52.5 404,-52.5 404,-0.5 211,-0.5"/>
<text text-anchor="start" x="219" y="-40.5" font-family="Verdana" font-size="10.00">/home/dawagner/dev</text>
<text text-anchor="start" x="219" y="-29.5" font-family="Verdana" font-size="10.00">/parameter&#45;framework</text>
<text text-anchor="start" x="219" y="-18.5" font-family="Verdana" font-size="10.00">/remote&#45;processor/RemoteProcessor</text>
<text text-anchor="middle" x="307.5" y="-7.5" font-family="Verdana" font-size="10.00">ServerBuilder.cpp</text>
</a>
</g>
</g>
<!-- Node1&#45;&gt;Node3 -->
<g id="edge2" class="edge"><title>Node1&#45;&gt;Node3</title>
<path fill="none" stroke="midnightblue" d="M239.959,-82.9342C252.117,-72.9562 265.38,-62.0702 276.909,-52.6075"/>
<polygon fill="midnightblue" stroke="midnightblue" points="237.669,-80.2862 232.16,-89.336 242.11,-85.6971 237.669,-80.2862"/>
</g>
</g>
</svg>
