<?xml version="1.0" encoding="UTF-8" standalone="no"?>
<!DOCTYPE svg PUBLIC "-//W3C//DTD SVG 1.1//EN"
 "http://www.w3.org/Graphics/SVG/1.1/DTD/svg11.dtd">
<!-- Generated by graphviz version 2.36.0 (20140111.2315)
 -->
<!-- Title: remote&#45;processor/RemoteProcessorServerInterface.h Pages: 1 -->
<svg width="477pt" height="176pt"
 viewBox="0.00 0.00 477.00 176.00" xmlns="http://www.w3.org/2000/svg" xmlns:xlink="http://www.w3.org/1999/xlink">
<g id="graph0" class="graph" transform="scale(1 1) rotate(0) translate(4 172)">
<title>remote&#45;processor/RemoteProcessorServerInterface.h</title>
<polygon fill="white" stroke="none" points="-4,4 -4,-172 473,-172 473,4 -4,4"/>
<!-- Node1 -->
<g id="node1" class="node"><title>Node1</title>
<polygon fill="#bfbfbf" stroke="black" points="79,-137 79,-167 269,-167 269,-137 79,-137"/>
<text text-anchor="start" x="87" y="-155" font-family="Verdana" font-size="10.00">remote&#45;processor/RemoteProcessor</text>
<text text-anchor="middle" x="174" y="-144" font-family="Verdana" font-size="10.00">ServerInterface.h</text>
</g>
<!-- Node2 -->
<g id="node2" class="node"><title>Node2</title>
<g id="a_node2"><a xlink:href="ParameterMgr_8cpp.html" target="_top" xlink:title="parameter/ParameterMgr.cpp">
<polygon fill="white" stroke="black" points="-1,-74.5 -1,-93.5 157,-93.5 157,-74.5 -1,-74.5"/>
<text text-anchor="middle" x="78" y="-81.5" font-family="Verdana" font-size="10.00">parameter/ParameterMgr.cpp</text>
</a>
</g>
</g>
<!-- Node1&#45;&gt;Node2 -->
<g id="edge1" class="edge"><title>Node1&#45;&gt;Node2</title>
<path fill="none" stroke="midnightblue" d="M144.67,-130.835C126.553,-118.38 104.232,-103.035 90.5642,-93.6379"/>
<polygon fill="midnightblue" stroke="midnightblue" points="142.946,-133.898 153.169,-136.679 146.912,-128.13 142.946,-133.898"/>
</g>
<!-- Node3 -->
<g id="node3" class="node"><title>Node3</title>
<g id="a_node3"><a xlink:href="RemoteProcessorServer_8h.html" target="_top" xlink:title="remote&#45;processor/RemoteProcessor\lServer.h">
<polygon fill="white" stroke="black" points="175,-69 175,-99 365,-99 365,-69 175,-69"/>
<text text-anchor="start" x="183" y="-87" font-family="Verdana" font-size="10.00">remote&#45;processor/RemoteProcessor</text>
<text text-anchor="middle" x="270" y="-76" font-family="Verdana" font-size="10.00">Server.h</text>
</a>
</g>
</g>
<!-- Node1&#45;&gt;Node3 -->
<g id="edge2" class="edge"><title>Node1&#45;&gt;Node3</title>
<path fill="none" stroke="midnightblue" d="M203.253,-130.888C218.218,-120.6 236.066,-108.329 249.54,-99.0663"/>
<polygon fill="midnightblue" stroke="midnightblue" points="201.088,-128.129 194.831,-136.679 205.054,-133.898 201.088,-128.129"/>
</g>
<!-- Node4 -->
<g id="node4" class="node"><title>Node4</title>
<g id="a_node4"><a xlink:href="RemoteProcessorServer_8cpp.html" target="_top" xlink:title="remote&#45;processor/RemoteProcessor\lServer.cpp">
<polygon fill="white" stroke="black" points="71,-1 71,-31 261,-31 261,-1 71,-1"/>
<text text-anchor="start" x="79" y="-19" font-family="Verdana" font-size="10.00">remote&#45;processor/RemoteProcessor</text>
<text text-anchor="middle" x="166" y="-8" font-family="Verdana" font-size="10.00">Server.cpp</text>
</a>
</g>
</g>
<!-- Node3&#45;&gt;Node4 -->
<g id="edge3" class="edge"><title>Node3&#45;&gt;Node4</title>
<path fill="none" stroke="midnightblue" d="M239.019,-63.339C222.705,-52.9856 203.071,-40.526 188.274,-31.1352"/>
<polygon fill="midnightblue" stroke="midnightblue" points="237.371,-66.4382 247.689,-68.8413 241.121,-60.5279 237.371,-66.4382"/>
</g>
<!-- Node5 -->
<g id="node5" class="node"><title>Node5</title>
<g id="a_node5"><a xlink:href="RemoteProcessorServerBuilder_8cpp.html" target="_top" xlink:title="remote&#45;processor/RemoteProcessor\lServerBuilder.cpp">
<polygon fill="white" stroke="black" points="279,-1 279,-31 469,-31 469,-1 279,-1"/>
<text text-anchor="start" x="287" y="-19" font-family="Verdana" font-size="10.00">remote&#45;processor/RemoteProcessor</text>
<text text-anchor="middle" x="374" y="-8" font-family="Verdana" font-size="10.00">ServerBuilder.cpp</text>
</a>
</g>
</g>
<!-- Node3&#45;&gt;Node5 -->
<g id="edge4" class="edge"><title>Node3&#45;&gt;Node5</title>
<path fill="none" stroke="midnightblue" d="M300.981,-63.339C317.295,-52.9856 336.929,-40.526 351.726,-31.1352"/>
<polygon fill="midnightblue" stroke="midnightblue" points="298.879,-60.5279 292.311,-68.8413 302.629,-66.4382 298.879,-60.5279"/>
</g>
</g>
</svg>
