<?xml version="1.0" encoding="UTF-8" standalone="no"?>
<!DOCTYPE svg PUBLIC "-//W3C//DTD SVG 1.1//EN"
 "http://www.w3.org/Graphics/SVG/1.1/DTD/svg11.dtd">
<!-- Generated by graphviz version 2.38.0 (20140413.2041)
 -->
<!-- Title: remote&#45;processor/RemoteProcessorServer.h Pages: 1 -->
<svg width="568pt" height="173pt"
 viewBox="0.00 0.00 568.00 173.00" xmlns="http://www.w3.org/2000/svg" xmlns:xlink="http://www.w3.org/1999/xlink">
<g id="graph0" class="graph" transform="scale(1 1) rotate(0) translate(4 169)">
<title>remote&#45;processor/RemoteProcessorServer.h</title>
<polygon fill="white" stroke="none" points="-4,4 -4,-169 564,-169 564,4 -4,4"/>
<!-- Node1 -->
<g id="node1" class="node"><title>Node1</title>
<polygon fill="#bfbfbf" stroke="black" points="191.5,-134.5 191.5,-164.5 381.5,-164.5 381.5,-134.5 191.5,-134.5"/>
<text text-anchor="start" x="199.5" y="-152.5" font-family="Verdana" font-size="10.00">remote&#45;processor/RemoteProcessor</text>
<text text-anchor="middle" x="286.5" y="-141.5" font-family="Verdana" font-size="10.00">Server.h</text>
</g>
<!-- Node2 -->
<g id="node2" class="node"><title>Node2</title>
<g id="a_node2"><a xlink:href="BackgroundRemoteProcessorServerBuilder_8h.html" target="_top" xlink:title="remote&#45;processor/Background\lRemoteProcessorServerBuilder.h">
<polygon fill="white" stroke="black" points="0,-67.5 0,-97.5 173,-97.5 173,-67.5 0,-67.5"/>
<text text-anchor="start" x="8" y="-85.5" font-family="Verdana" font-size="10.00">remote&#45;processor/Background</text>
<text text-anchor="middle" x="86.5" y="-74.5" font-family="Verdana" font-size="10.00">RemoteProcessorServerBuilder.h</text>
</a>
</g>
</g>
<!-- Node1&#45;&gt;Node2 -->
<g id="edge1" class="edge"><title>Node1&#45;&gt;Node2</title>
<path fill="none" stroke="midnightblue" d="M233.355,-131.228C201.002,-120.713 160.195,-107.451 129.812,-97.5765"/>
<polygon fill="midnightblue" stroke="midnightblue" points="232.511,-134.634 243.103,-134.396 234.674,-127.976 232.511,-134.634"/>
</g>
<!-- Node4 -->
<g id="node4" class="node"><title>Node4</title>
<g id="a_node4"><a xlink:href="RemoteProcessorServer_8cpp.html" target="_top" xlink:title="remote&#45;processor/RemoteProcessor\lServer.cpp">
<polygon fill="white" stroke="black" points="191.5,-67.5 191.5,-97.5 381.5,-97.5 381.5,-67.5 191.5,-67.5"/>
<text text-anchor="start" x="199.5" y="-85.5" font-family="Verdana" font-size="10.00">remote&#45;processor/RemoteProcessor</text>
<text text-anchor="middle" x="286.5" y="-74.5" font-family="Verdana" font-size="10.00">Server.cpp</text>
</a>
</g>
</g>
<!-- Node1&#45;&gt;Node4 -->
<g id="edge3" class="edge"><title>Node1&#45;&gt;Node4</title>
<path fill="none" stroke="midnightblue" d="M286.5,-124.108C286.5,-115.154 286.5,-105.323 286.5,-97.5765"/>
<polygon fill="midnightblue" stroke="midnightblue" points="283,-124.396 286.5,-134.396 290,-124.396 283,-124.396"/>
</g>
<!-- Node5 -->
<g id="node5" class="node"><title>Node5</title>
<g id="a_node5"><a xlink:href="TestPlatform_8h.html" target="_top" xlink:title="test/test&#45;platform\l/TestPlatform.h">
<polygon fill="white" stroke="black" points="400,-67.5 400,-97.5 501,-97.5 501,-67.5 400,-67.5"/>
<text text-anchor="start" x="408" y="-85.5" font-family="Verdana" font-size="10.00">test/test&#45;platform</text>
<text text-anchor="middle" x="450.5" y="-74.5" font-family="Verdana" font-size="10.00">/TestPlatform.h</text>
</a>
</g>
</g>
<!-- Node1&#45;&gt;Node5 -->
<g id="edge4" class="edge"><title>Node1&#45;&gt;Node5</title>
<path fill="none" stroke="midnightblue" d="M331.457,-130.682C357.76,-120.257 390.5,-107.281 414.984,-97.5765"/>
<polygon fill="midnightblue" stroke="midnightblue" points="330.092,-127.458 322.086,-134.396 332.672,-133.965 330.092,-127.458"/>
</g>
<!-- Node3 -->
<g id="node3" class="node"><title>Node3</title>
<g id="a_node3"><a xlink:href="ParameterMgr_8cpp.html" target="_top" xlink:title="parameter/ParameterMgr.cpp">
<polygon fill="white" stroke="black" points="7.5,-6 7.5,-25 165.5,-25 165.5,-6 7.5,-6"/>
<text text-anchor="middle" x="86.5" y="-13" font-family="Verdana" font-size="10.00">parameter/ParameterMgr.cpp</text>
</a>
</g>
</g>
<!-- Node2&#45;&gt;Node3 -->
<g id="edge2" class="edge"><title>Node2&#45;&gt;Node3</title>
<path fill="none" stroke="midnightblue" d="M86.5,-57.2495C86.5,-46.017 86.5,-33.3767 86.5,-25.1945"/>
<polygon fill="midnightblue" stroke="midnightblue" points="83.0001,-57.3959 86.5,-67.396 90.0001,-57.396 83.0001,-57.3959"/>
</g>
<!-- Node6 -->
<g id="node6" class="node"><title>Node6</title>
<g id="a_node6"><a xlink:href="test_2test-platform_2main_8cpp.html" target="_top" xlink:title="test/test&#45;platform\l/main.cpp">
<polygon fill="white" stroke="black" points="340,-0.5 340,-30.5 441,-30.5 441,-0.5 340,-0.5"/>
<text text-anchor="start" x="348" y="-18.5" font-family="Verdana" font-size="10.00">test/test&#45;platform</text>
<text text-anchor="middle" x="390.5" y="-7.5" font-family="Verdana" font-size="10.00">/main.cpp</text>
</a>
</g>
</g>
<!-- Node5&#45;&gt;Node6 -->
<g id="edge5" class="edge"><title>Node5&#45;&gt;Node6</title>
<path fill="none" stroke="midnightblue" d="M430.676,-60.0243C421.737,-50.3398 411.43,-39.1739 403.494,-30.5765"/>
<polygon fill="midnightblue" stroke="midnightblue" points="428.126,-62.4219 437.481,-67.396 433.27,-57.6739 428.126,-62.4219"/>
</g>
<!-- Node7 -->
<g id="node7" class="node"><title>Node7</title>
<g id="a_node7"><a xlink:href="TestPlatform_8cpp.html" target="_top" xlink:title="test/test&#45;platform\l/TestPlatform.cpp">
<polygon fill="white" stroke="black" points="459,-0.5 459,-30.5 560,-30.5 560,-0.5 459,-0.5"/>
<text text-anchor="start" x="467" y="-18.5" font-family="Verdana" font-size="10.00">test/test&#45;platform</text>
<text text-anchor="middle" x="509.5" y="-7.5" font-family="Verdana" font-size="10.00">/TestPlatform.cpp</text>
</a>
</g>
</g>
<!-- Node5&#45;&gt;Node7 -->
<g id="edge6" class="edge"><title>Node5&#45;&gt;Node7</title>
<path fill="none" stroke="midnightblue" d="M470.255,-59.7362C478.984,-50.119 488.996,-39.0888 496.723,-30.5765"/>
<polygon fill="midnightblue" stroke="midnightblue" points="467.432,-57.639 463.302,-67.396 472.615,-62.3438 467.432,-57.639"/>
</g>
</g>
</svg>
