<?xml version="1.0" encoding="UTF-8" standalone="no"?>
<!DOCTYPE svg PUBLIC "-//W3C//DTD SVG 1.1//EN"
 "http://www.w3.org/Graphics/SVG/1.1/DTD/svg11.dtd">
<!-- Generated by graphviz version 2.38.0 (20140413.2041)
 -->
<!-- Title: remote&#45;processor/RequestMessage.h Pages: 1 -->
<svg width="312pt" height="151pt"
 viewBox="0.00 0.00 311.50 151.00" xmlns="http://www.w3.org/2000/svg" xmlns:xlink="http://www.w3.org/1999/xlink">
<g id="graph0" class="graph" transform="scale(1 1) rotate(0) translate(4 147)">
<title>remote&#45;processor/RequestMessage.h</title>
<polygon fill="white" stroke="none" points="-4,4 -4,-147 307.5,-147 307.5,4 -4,4"/>
<!-- Node1 -->
<g id="node1" class="node"><title>Node1</title>
<polygon fill="#bfbfbf" stroke="black" points="113,-112.5 113,-142.5 257,-142.5 257,-112.5 113,-112.5"/>
<text text-anchor="start" x="121" y="-130.5" font-family="Verdana" font-size="10.00">remote&#45;processor/Request</text>
<text text-anchor="middle" x="185" y="-119.5" font-family="Verdana" font-size="10.00">Message.h</text>
</g>
<!-- Node2 -->
<g id="node2" class="node"><title>Node2</title>
<g id="a_node2"><a xlink:href="Message_8h.html" target="_top" xlink:title="Message.h">
<polygon fill="white" stroke="black" points="0,-56.5 0,-75.5 68,-75.5 68,-56.5 0,-56.5"/>
<text text-anchor="middle" x="34" y="-63.5" font-family="Verdana" font-size="10.00">Message.h</text>
</a>
</g>
</g>
<!-- Node1&#45;&gt;Node2 -->
<g id="edge1" class="edge"><title>Node1&#45;&gt;Node2</title>
<path fill="none" stroke="midnightblue" d="M149.215,-112.399C123.767,-102.372 89.903,-89.028 65.4816,-79.405"/>
<polygon fill="midnightblue" stroke="midnightblue" points="66.5588,-76.0676 55.9718,-75.6578 63.9925,-82.5802 66.5588,-76.0676"/>
</g>
<!-- Node4 -->
<g id="node4" class="node"><title>Node4</title>
<polygon fill="white" stroke="#bfbfbf" points="121,-0.5 121,-19.5 165,-19.5 165,-0.5 121,-0.5"/>
<text text-anchor="middle" x="143" y="-7.5" font-family="Verdana" font-size="10.00">string</text>
</g>
<!-- Node1&#45;&gt;Node4 -->
<g id="edge8" class="edge"><title>Node1&#45;&gt;Node4</title>
<path fill="none" stroke="midnightblue" d="M196.29,-112.455C206.577,-97.8313 218.787,-74.5184 209,-56 201.524,-41.8536 187.381,-31.3181 174.099,-24.0121"/>
<polygon fill="midnightblue" stroke="midnightblue" points="175.635,-20.867 165.133,-19.4654 172.469,-27.1101 175.635,-20.867"/>
</g>
<!-- Node5 -->
<g id="node5" class="node"><title>Node5</title>
<g id="a_node5"><a xlink:href="RemoteCommand_8h.html" target="_top" xlink:title="RemoteCommand.h">
<polygon fill="white" stroke="black" points="86.5,-56.5 86.5,-75.5 199.5,-75.5 199.5,-56.5 86.5,-56.5"/>
<text text-anchor="middle" x="143" y="-63.5" font-family="Verdana" font-size="10.00">RemoteCommand.h</text>
</a>
</g>
</g>
<!-- Node1&#45;&gt;Node5 -->
<g id="edge4" class="edge"><title>Node1&#45;&gt;Node5</title>
<path fill="none" stroke="midnightblue" d="M175.047,-112.399C169.006,-103.842 161.262,-92.8708 154.899,-83.857"/>
<polygon fill="midnightblue" stroke="midnightblue" points="157.738,-81.8091 149.111,-75.6578 152.019,-85.8459 157.738,-81.8091"/>
</g>
<!-- Node6 -->
<g id="node6" class="node"><title>Node6</title>
<polygon fill="white" stroke="#bfbfbf" points="256.5,-56.5 256.5,-75.5 303.5,-75.5 303.5,-56.5 256.5,-56.5"/>
<text text-anchor="middle" x="280" y="-63.5" font-family="Verdana" font-size="10.00">vector</text>
</g>
<!-- Node1&#45;&gt;Node6 -->
<g id="edge7" class="edge"><title>Node1&#45;&gt;Node6</title>
<path fill="none" stroke="midnightblue" d="M207.514,-112.399C222.599,-102.951 242.385,-90.5589 257.473,-81.1089"/>
<polygon fill="midnightblue" stroke="midnightblue" points="259.559,-83.9321 266.177,-75.6578 255.844,-77.9996 259.559,-83.9321"/>
</g>
<!-- Node3 -->
<g id="node3" class="node"><title>Node3</title>
<polygon fill="white" stroke="#bfbfbf" points="28.5,-0.5 28.5,-19.5 81.5,-19.5 81.5,-0.5 28.5,-0.5"/>
<text text-anchor="middle" x="55" y="-7.5" font-family="Verdana" font-size="10.00">stdint.h</text>
</g>
<!-- Node2&#45;&gt;Node3 -->
<g id="edge2" class="edge"><title>Node2&#45;&gt;Node3</title>
<path fill="none" stroke="midnightblue" d="M37.4677,-56.083C40.3117,-48.77 44.4295,-38.1814 47.9598,-29.1034"/>
<polygon fill="midnightblue" stroke="midnightblue" points="51.2343,-30.3397 51.5968,-19.7511 44.7103,-27.8025 51.2343,-30.3397"/>
</g>
<!-- Node2&#45;&gt;Node4 -->
<g id="edge3" class="edge"><title>Node2&#45;&gt;Node4</title>
<path fill="none" stroke="midnightblue" d="M51.5127,-56.324C69.0724,-47.6247 96.3314,-34.1202 116.531,-24.113"/>
<polygon fill="midnightblue" stroke="midnightblue" points="118.124,-27.23 125.531,-19.6545 115.016,-20.9575 118.124,-27.23"/>
</g>
<!-- Node5&#45;&gt;Node3 -->
<g id="edge5" class="edge"><title>Node5&#45;&gt;Node3</title>
<path fill="none" stroke="midnightblue" d="M128.861,-56.324C115.134,-47.9002 94.0637,-34.9709 77.9357,-25.0741"/>
<polygon fill="midnightblue" stroke="midnightblue" points="79.4574,-21.9016 69.1036,-19.6545 75.7963,-27.8678 79.4574,-21.9016"/>
</g>
<!-- Node5&#45;&gt;Node4 -->
<g id="edge6" class="edge"><title>Node5&#45;&gt;Node4</title>
<path fill="none" stroke="midnightblue" d="M143,-56.083C143,-49.0059 143,-38.8611 143,-29.9865"/>
<polygon fill="midnightblue" stroke="midnightblue" points="146.5,-29.751 143,-19.7511 139.5,-29.7511 146.5,-29.751"/>
</g>
</g>
</svg>
