<?xml version="1.0" encoding="UTF-8" standalone="no"?>
<!DOCTYPE svg PUBLIC "-//W3C//DTD SVG 1.1//EN"
 "http://www.w3.org/Graphics/SVG/1.1/DTD/svg11.dtd">
<!-- Generated by graphviz version 2.38.0 (20140413.2041)
 -->
<!-- Title: remote&#45;processor/RequestMessage.h Pages: 1 -->
<svg width="575pt" height="307pt"
 viewBox="0.00 0.00 574.50 307.00" xmlns="http://www.w3.org/2000/svg" xmlns:xlink="http://www.w3.org/1999/xlink">
<g id="graph0" class="graph" transform="scale(1 1) rotate(0) translate(4 303)">
<title>remote&#45;processor/RequestMessage.h</title>
<polygon fill="white" stroke="none" points="-4,4 -4,-303 570.5,-303 570.5,4 -4,4"/>
<!-- Node1 -->
<g id="node1" class="node"><title>Node1</title>
<polygon fill="#bfbfbf" stroke="black" points="260.5,-268.5 260.5,-298.5 404.5,-298.5 404.5,-268.5 260.5,-268.5"/>
<text text-anchor="start" x="268.5" y="-286.5" font-family="Verdana" font-size="10.00">remote&#45;processor/Request</text>
<text text-anchor="middle" x="332.5" y="-275.5" font-family="Verdana" font-size="10.00">Message.h</text>
</g>
<!-- Node2 -->
<g id="node2" class="node"><title>Node2</title>
<g id="a_node2"><a xlink:href="remote-process_2main_8cpp.html" target="_top" xlink:title="remote&#45;process/main.cpp">
<polygon fill="white" stroke="black" points="18.5,-207 18.5,-226 158.5,-226 158.5,-207 18.5,-207"/>
<text text-anchor="middle" x="88.5" y="-214" font-family="Verdana" font-size="10.00">remote&#45;process/main.cpp</text>
</a>
</g>
</g>
<!-- Node1&#45;&gt;Node2 -->
<g id="edge1" class="edge"><title>Node1&#45;&gt;Node2</title>
<path fill="none" stroke="midnightblue" d="M269.925,-265.83C222.171,-253.109 158.345,-236.106 120.515,-226.029"/>
<polygon fill="midnightblue" stroke="midnightblue" points="269.292,-269.284 279.856,-268.476 271.094,-262.52 269.292,-269.284"/>
</g>
<!-- Node3 -->
<g id="node3" class="node"><title>Node3</title>
<g id="a_node3"><a xlink:href="RemoteProcessorServerInterface_8h.html" target="_top" xlink:title="remote&#45;processor/RemoteProcessor\lServerInterface.h">
<polygon fill="white" stroke="black" points="176.5,-201.5 176.5,-231.5 366.5,-231.5 366.5,-201.5 176.5,-201.5"/>
<text text-anchor="start" x="184.5" y="-219.5" font-family="Verdana" font-size="10.00">remote&#45;processor/RemoteProcessor</text>
<text text-anchor="middle" x="271.5" y="-208.5" font-family="Verdana" font-size="10.00">ServerInterface.h</text>
</a>
</g>
</g>
<!-- Node1&#45;&gt;Node3 -->
<g id="edge2" class="edge"><title>Node1&#45;&gt;Node3</title>
<path fill="none" stroke="midnightblue" d="M312.346,-261.024C303.257,-251.34 292.779,-240.174 284.71,-231.577"/>
<polygon fill="midnightblue" stroke="midnightblue" points="309.869,-263.499 319.264,-268.396 314.973,-258.709 309.869,-263.499"/>
</g>
<!-- Node7 -->
<g id="node7" class="node"><title>Node7</title>
<g id="a_node7"><a xlink:href="RemoteProcessorServer_8cpp.html" target="_top" xlink:title="remote&#45;processor/RemoteProcessor\lServer.cpp">
<polygon fill="white" stroke="black" points="310.5,-67.5 310.5,-97.5 500.5,-97.5 500.5,-67.5 310.5,-67.5"/>
<text text-anchor="start" x="318.5" y="-85.5" font-family="Verdana" font-size="10.00">remote&#45;processor/RemoteProcessor</text>
<text text-anchor="middle" x="405.5" y="-74.5" font-family="Verdana" font-size="10.00">Server.cpp</text>
</a>
</g>
</g>
<!-- Node1&#45;&gt;Node7 -->
<g id="edge10" class="edge"><title>Node1&#45;&gt;Node7</title>
<path fill="none" stroke="midnightblue" d="M354.989,-261.019C362.567,-252.637 370.389,-242.517 375.5,-232 397.687,-186.343 403.472,-125.124 404.975,-97.7586"/>
<polygon fill="midnightblue" stroke="midnightblue" points="352.249,-258.821 347.894,-268.48 357.322,-263.645 352.249,-258.821"/>
</g>
<!-- Node11 -->
<g id="node11" class="node"><title>Node11</title>
<g id="a_node11"><a xlink:href="RequestMessage_8cpp.html" target="_top" xlink:title="remote&#45;processor/Request\lMessage.cpp">
<polygon fill="white" stroke="black" points="422.5,-201.5 422.5,-231.5 566.5,-231.5 566.5,-201.5 422.5,-201.5"/>
<text text-anchor="start" x="430.5" y="-219.5" font-family="Verdana" font-size="10.00">remote&#45;processor/Request</text>
<text text-anchor="middle" x="494.5" y="-208.5" font-family="Verdana" font-size="10.00">Message.cpp</text>
</a>
</g>
</g>
<!-- Node1&#45;&gt;Node11 -->
<g id="edge11" class="edge"><title>Node1&#45;&gt;Node11</title>
<path fill="none" stroke="midnightblue" d="M377.251,-264.544C403.174,-254.143 435.338,-241.238 459.417,-231.577"/>
<polygon fill="midnightblue" stroke="midnightblue" points="375.629,-261.424 367.652,-268.396 378.236,-267.92 375.629,-261.424"/>
</g>
<!-- Node4 -->
<g id="node4" class="node"><title>Node4</title>
<g id="a_node4"><a xlink:href="RemoteProcessorServer_8h.html" target="_top" xlink:title="remote&#45;processor/RemoteProcessor\lServer.h">
<polygon fill="white" stroke="black" points="156.5,-134.5 156.5,-164.5 346.5,-164.5 346.5,-134.5 156.5,-134.5"/>
<text text-anchor="start" x="164.5" y="-152.5" font-family="Verdana" font-size="10.00">remote&#45;processor/RemoteProcessor</text>
<text text-anchor="middle" x="251.5" y="-141.5" font-family="Verdana" font-size="10.00">Server.h</text>
</a>
</g>
</g>
<!-- Node3&#45;&gt;Node4 -->
<g id="edge3" class="edge"><title>Node3&#45;&gt;Node4</title>
<path fill="none" stroke="midnightblue" d="M264.176,-191.697C261.373,-182.587 258.267,-172.493 255.831,-164.577"/>
<polygon fill="midnightblue" stroke="midnightblue" points="260.874,-192.867 267.16,-201.396 267.565,-190.809 260.874,-192.867"/>
</g>
<!-- Node5 -->
<g id="node5" class="node"><title>Node5</title>
<g id="a_node5"><a xlink:href="BackgroundRemoteProcessorServerBuilder_8h.html" target="_top" xlink:title="remote&#45;processor/Background\lRemoteProcessorServerBuilder.h">
<polygon fill="white" stroke="black" points="0,-67.5 0,-97.5 173,-97.5 173,-67.5 0,-67.5"/>
<text text-anchor="start" x="8" y="-85.5" font-family="Verdana" font-size="10.00">remote&#45;processor/Background</text>
<text text-anchor="middle" x="86.5" y="-74.5" font-family="Verdana" font-size="10.00">RemoteProcessorServerBuilder.h</text>
</a>
</g>
</g>
<!-- Node4&#45;&gt;Node5 -->
<g id="edge4" class="edge"><title>Node4&#45;&gt;Node5</title>
<path fill="none" stroke="midnightblue" d="M206.268,-130.682C179.806,-120.257 146.866,-107.281 122.233,-97.5765"/>
<polygon fill="midnightblue" stroke="midnightblue" points="205.111,-133.987 215.697,-134.396 207.676,-127.474 205.111,-133.987"/>
</g>
<!-- Node4&#45;&gt;Node7 -->
<g id="edge6" class="edge"><title>Node4&#45;&gt;Node7</title>
<path fill="none" stroke="midnightblue" d="M294.367,-130.407C318.953,-120.029 349.36,-107.195 372.15,-97.5765"/>
<polygon fill="midnightblue" stroke="midnightblue" points="292.768,-127.283 284.916,-134.396 295.49,-133.732 292.768,-127.283"/>
</g>
<!-- Node8 -->
<g id="node8" class="node"><title>Node8</title>
<g id="a_node8"><a xlink:href="TestPlatform_8h.html" target="_top" xlink:title="test/test&#45;platform\l/TestPlatform.h">
<polygon fill="white" stroke="black" points="191,-67.5 191,-97.5 292,-97.5 292,-67.5 191,-67.5"/>
<text text-anchor="start" x="199" y="-85.5" font-family="Verdana" font-size="10.00">test/test&#45;platform</text>
<text text-anchor="middle" x="241.5" y="-74.5" font-family="Verdana" font-size="10.00">/TestPlatform.h</text>
</a>
</g>
</g>
<!-- Node4&#45;&gt;Node8 -->
<g id="edge7" class="edge"><title>Node4&#45;&gt;Node8</title>
<path fill="none" stroke="midnightblue" d="M247.793,-124.403C246.403,-115.37 244.87,-105.408 243.666,-97.5765"/>
<polygon fill="midnightblue" stroke="midnightblue" points="244.35,-125.044 249.33,-134.396 251.269,-123.98 244.35,-125.044"/>
</g>
<!-- Node6 -->
<g id="node6" class="node"><title>Node6</title>
<g id="a_node6"><a xlink:href="ParameterMgr_8cpp.html" target="_top" xlink:title="parameter/ParameterMgr.cpp">
<polygon fill="white" stroke="black" points="7.5,-6 7.5,-25 165.5,-25 165.5,-6 7.5,-6"/>
<text text-anchor="middle" x="86.5" y="-13" font-family="Verdana" font-size="10.00">parameter/ParameterMgr.cpp</text>
</a>
</g>
</g>
<!-- Node5&#45;&gt;Node6 -->
<g id="edge5" class="edge"><title>Node5&#45;&gt;Node6</title>
<path fill="none" stroke="midnightblue" d="M86.5,-57.2495C86.5,-46.017 86.5,-33.3767 86.5,-25.1945"/>
<polygon fill="midnightblue" stroke="midnightblue" points="83.0001,-57.3959 86.5,-67.396 90.0001,-57.396 83.0001,-57.3959"/>
</g>
<!-- Node9 -->
<g id="node9" class="node"><title>Node9</title>
<g id="a_node9"><a xlink:href="test_2test-platform_2main_8cpp.html" target="_top" xlink:title="test/test&#45;platform\l/main.cpp">
<polygon fill="white" stroke="black" points="187,-0.5 187,-30.5 288,-30.5 288,-0.5 187,-0.5"/>
<text text-anchor="start" x="195" y="-18.5" font-family="Verdana" font-size="10.00">test/test&#45;platform</text>
<text text-anchor="middle" x="237.5" y="-7.5" font-family="Verdana" font-size="10.00">/main.cpp</text>
</a>
</g>
</g>
<!-- Node8&#45;&gt;Node9 -->
<g id="edge8" class="edge"><title>Node8&#45;&gt;Node9</title>
<path fill="none" stroke="midnightblue" d="M240.017,-57.4029C239.461,-48.3703 238.848,-38.4078 238.366,-30.5765"/>
<polygon fill="midnightblue" stroke="midnightblue" points="236.524,-57.6299 240.632,-67.396 243.511,-57.1998 236.524,-57.6299"/>
</g>
<!-- Node10 -->
<g id="node10" class="node"><title>Node10</title>
<g id="a_node10"><a xlink:href="TestPlatform_8cpp.html" target="_top" xlink:title="test/test&#45;platform\l/TestPlatform.cpp">
<polygon fill="white" stroke="black" points="306,-0.5 306,-30.5 407,-30.5 407,-0.5 306,-0.5"/>
<text text-anchor="start" x="314" y="-18.5" font-family="Verdana" font-size="10.00">test/test&#45;platform</text>
<text text-anchor="middle" x="356.5" y="-7.5" font-family="Verdana" font-size="10.00">/TestPlatform.cpp</text>
</a>
</g>
</g>
<!-- Node8&#45;&gt;Node10 -->
<g id="edge9" class="edge"><title>Node8&#45;&gt;Node10</title>
<path fill="none" stroke="midnightblue" d="M275.477,-62.2956C293.471,-52.1248 315.18,-39.8549 331.595,-30.5765"/>
<polygon fill="midnightblue" stroke="midnightblue" points="273.437,-59.4284 266.453,-67.396 276.881,-65.5223 273.437,-59.4284"/>
</g>
</g>
</svg>
