<?xml version="1.0" encoding="UTF-8" standalone="no"?>
<!DOCTYPE svg PUBLIC "-//W3C//DTD SVG 1.1//EN"
 "http://www.w3.org/Graphics/SVG/1.1/DTD/svg11.dtd">
<!-- Generated by graphviz version 2.38.0 (20140413.2041)
 -->
<!-- Title: remote&#45;processor/RequestMessage.h Pages: 1 -->
<svg width="583pt" height="240pt"
 viewBox="0.00 0.00 583.00 240.00" xmlns="http://www.w3.org/2000/svg" xmlns:xlink="http://www.w3.org/1999/xlink">
<g id="graph0" class="graph" transform="scale(1 1) rotate(0) translate(4 236)">
<title>remote&#45;processor/RequestMessage.h</title>
<polygon fill="white" stroke="none" points="-4,4 -4,-236 579,-236 579,4 -4,4"/>
<!-- Node1 -->
<g id="node1" class="node"><title>Node1</title>
<polygon fill="#bfbfbf" stroke="black" points="269,-201.5 269,-231.5 413,-231.5 413,-201.5 269,-201.5"/>
<text text-anchor="start" x="277" y="-219.5" font-family="Verdana" font-size="10.00">remote&#45;processor/Request</text>
<text text-anchor="middle" x="341" y="-208.5" font-family="Verdana" font-size="10.00">Message.h</text>
</g>
<!-- Node2 -->
<g id="node2" class="node"><title>Node2</title>
<g id="a_node2"><a xlink:href="remote-process_2main_8cpp.html" target="_top" xlink:title="remote&#45;process/main.cpp">
<polygon fill="white" stroke="black" points="27,-140 27,-159 167,-159 167,-140 27,-140"/>
<text text-anchor="middle" x="97" y="-147" font-family="Verdana" font-size="10.00">remote&#45;process/main.cpp</text>
</a>
</g>
</g>
<!-- Node1&#45;&gt;Node2 -->
<g id="edge1" class="edge"><title>Node1&#45;&gt;Node2</title>
<path fill="none" stroke="midnightblue" d="M278.425,-198.83C230.671,-186.109 166.845,-169.106 129.015,-159.029"/>
<polygon fill="midnightblue" stroke="midnightblue" points="277.792,-202.284 288.356,-201.476 279.594,-195.52 277.792,-202.284"/>
</g>
<!-- Node3 -->
<g id="node3" class="node"><title>Node3</title>
<g id="a_node3"><a xlink:href="RemoteProcessorServerInterface_8h.html" target="_top" xlink:title="remote&#45;processor/RemoteProcessor\lServerInterface.h">
<polygon fill="white" stroke="black" points="185,-134.5 185,-164.5 375,-164.5 375,-134.5 185,-134.5"/>
<text text-anchor="start" x="193" y="-152.5" font-family="Verdana" font-size="10.00">remote&#45;processor/RemoteProcessor</text>
<text text-anchor="middle" x="280" y="-141.5" font-family="Verdana" font-size="10.00">ServerInterface.h</text>
</a>
</g>
</g>
<!-- Node1&#45;&gt;Node3 -->
<g id="edge2" class="edge"><title>Node1&#45;&gt;Node3</title>
<path fill="none" stroke="midnightblue" d="M320.846,-194.024C311.757,-184.34 301.279,-173.174 293.21,-164.577"/>
<polygon fill="midnightblue" stroke="midnightblue" points="318.369,-196.499 327.764,-201.396 323.473,-191.709 318.369,-196.499"/>
</g>
<!-- Node6 -->
<g id="node6" class="node"><title>Node6</title>
<g id="a_node6"><a xlink:href="RemoteProcessorServer_8cpp.html" target="_top" xlink:title="remote&#45;processor/RemoteProcessor\lServer.cpp">
<polygon fill="white" stroke="black" points="328,-0.5 328,-30.5 518,-30.5 518,-0.5 328,-0.5"/>
<text text-anchor="start" x="336" y="-18.5" font-family="Verdana" font-size="10.00">remote&#45;processor/RemoteProcessor</text>
<text text-anchor="middle" x="423" y="-7.5" font-family="Verdana" font-size="10.00">Server.cpp</text>
</a>
</g>
</g>
<!-- Node1&#45;&gt;Node6 -->
<g id="edge8" class="edge"><title>Node1&#45;&gt;Node6</title>
<path fill="none" stroke="midnightblue" d="M363.161,-193.854C370.705,-185.454 378.589,-175.366 384,-165 407.806,-119.394 417.884,-58.1498 421.402,-30.768"/>
<polygon fill="midnightblue" stroke="midnightblue" points="360.421,-191.659 356.124,-201.344 365.522,-196.452 360.421,-191.659"/>
</g>
<!-- Node9 -->
<g id="node9" class="node"><title>Node9</title>
<g id="a_node9"><a xlink:href="RequestMessage_8cpp.html" target="_top" xlink:title="remote&#45;processor/Request\lMessage.cpp">
<polygon fill="white" stroke="black" points="431,-134.5 431,-164.5 575,-164.5 575,-134.5 431,-134.5"/>
<text text-anchor="start" x="439" y="-152.5" font-family="Verdana" font-size="10.00">remote&#45;processor/Request</text>
<text text-anchor="middle" x="503" y="-141.5" font-family="Verdana" font-size="10.00">Message.cpp</text>
</a>
</g>
</g>
<!-- Node1&#45;&gt;Node9 -->
<g id="edge9" class="edge"><title>Node1&#45;&gt;Node9</title>
<path fill="none" stroke="midnightblue" d="M385.751,-197.544C411.674,-187.143 443.838,-174.238 467.917,-164.577"/>
<polygon fill="midnightblue" stroke="midnightblue" points="384.129,-194.424 376.152,-201.396 386.736,-200.92 384.129,-194.424"/>
</g>
<!-- Node4 -->
<g id="node4" class="node"><title>Node4</title>
<g id="a_node4"><a xlink:href="ParameterMgr_8cpp.html" target="_top" xlink:title="parameter/ParameterMgr.cpp">
<polygon fill="white" stroke="black" points="9,-73 9,-92 167,-92 167,-73 9,-73"/>
<text text-anchor="middle" x="88" y="-80" font-family="Verdana" font-size="10.00">parameter/ParameterMgr.cpp</text>
</a>
</g>
</g>
<!-- Node3&#45;&gt;Node4 -->
<g id="edge3" class="edge"><title>Node3&#45;&gt;Node4</title>
<path fill="none" stroke="midnightblue" d="M228.625,-131.108C191.273,-118.462 142.328,-101.892 113.128,-92.007"/>
<polygon fill="midnightblue" stroke="midnightblue" points="227.745,-134.504 238.339,-134.396 229.989,-127.874 227.745,-134.504"/>
</g>
<!-- Node5 -->
<g id="node5" class="node"><title>Node5</title>
<g id="a_node5"><a xlink:href="RemoteProcessorServer_8h.html" target="_top" xlink:title="remote&#45;processor/RemoteProcessor\lServer.h">
<polygon fill="white" stroke="black" points="185,-67.5 185,-97.5 375,-97.5 375,-67.5 185,-67.5"/>
<text text-anchor="start" x="193" y="-85.5" font-family="Verdana" font-size="10.00">remote&#45;processor/RemoteProcessor</text>
<text text-anchor="middle" x="280" y="-74.5" font-family="Verdana" font-size="10.00">Server.h</text>
</a>
</g>
</g>
<!-- Node3&#45;&gt;Node5 -->
<g id="edge4" class="edge"><title>Node3&#45;&gt;Node5</title>
<path fill="none" stroke="midnightblue" d="M280,-124.108C280,-115.154 280,-105.323 280,-97.5765"/>
<polygon fill="midnightblue" stroke="midnightblue" points="276.5,-124.396 280,-134.396 283.5,-124.396 276.5,-124.396"/>
</g>
<!-- Node5&#45;&gt;Node6 -->
<g id="edge5" class="edge"><title>Node5&#45;&gt;Node6</title>
<path fill="none" stroke="midnightblue" d="M320.413,-63.1305C343.135,-52.8025 371.057,-40.1103 392.032,-30.5765"/>
<polygon fill="midnightblue" stroke="midnightblue" points="318.684,-60.0716 311.029,-67.396 321.581,-66.4442 318.684,-60.0716"/>
</g>
<!-- Node7 -->
<g id="node7" class="node"><title>Node7</title>
<g id="a_node7"><a xlink:href="RemoteProcessorServerBuilder_8cpp.html" target="_top" xlink:title="remote&#45;processor/RemoteProcessor\lServerBuilder.cpp">
<polygon fill="white" stroke="black" points="0,-0.5 0,-30.5 190,-30.5 190,-0.5 0,-0.5"/>
<text text-anchor="start" x="8" y="-18.5" font-family="Verdana" font-size="10.00">remote&#45;processor/RemoteProcessor</text>
<text text-anchor="middle" x="95" y="-7.5" font-family="Verdana" font-size="10.00">ServerBuilder.cpp</text>
</a>
</g>
</g>
<!-- Node5&#45;&gt;Node7 -->
<g id="edge6" class="edge"><title>Node5&#45;&gt;Node7</title>
<path fill="none" stroke="midnightblue" d="M230.065,-63.9553C200.264,-53.4847 162.925,-40.3656 135.064,-30.5765"/>
<polygon fill="midnightblue" stroke="midnightblue" points="229.263,-67.3832 239.858,-67.396 231.583,-60.7789 229.263,-67.3832"/>
</g>
<!-- Node8 -->
<g id="node8" class="node"><title>Node8</title>
<g id="a_node8"><a xlink:href="TestPlatform_8cpp.html" target="_top" xlink:title="test/test&#45;platform\l/TestPlatform.cpp">
<polygon fill="white" stroke="black" points="208.5,-0.5 208.5,-30.5 309.5,-30.5 309.5,-0.5 208.5,-0.5"/>
<text text-anchor="start" x="216.5" y="-18.5" font-family="Verdana" font-size="10.00">test/test&#45;platform</text>
<text text-anchor="middle" x="259" y="-7.5" font-family="Verdana" font-size="10.00">/TestPlatform.cpp</text>
</a>
</g>
</g>
<!-- Node5&#45;&gt;Node8 -->
<g id="edge7" class="edge"><title>Node5&#45;&gt;Node8</title>
<path fill="none" stroke="midnightblue" d="M272.31,-57.6971C269.367,-48.5871 266.105,-38.4929 263.548,-30.5765"/>
<polygon fill="midnightblue" stroke="midnightblue" points="269.038,-58.9563 275.443,-67.396 275.699,-56.8042 269.038,-58.9563"/>
</g>
</g>
</svg>
