<?xml version="1.0" encoding="UTF-8" standalone="no"?>
<!DOCTYPE svg PUBLIC "-//W3C//DTD SVG 1.1//EN"
 "http://www.w3.org/Graphics/SVG/1.1/DTD/svg11.dtd">
<!-- Generated by graphviz version 2.36.0 (20140111.2315)
 -->
<!-- Title: parameter/SelectionCriteriaDefinition.h Pages: 1 -->
<svg width="1215pt" height="232pt"
 viewBox="0.00 0.00 1215.00 232.00" xmlns="http://www.w3.org/2000/svg" xmlns:xlink="http://www.w3.org/1999/xlink">
<g id="graph0" class="graph" transform="scale(1 1) rotate(0) translate(4 228)">
<title>parameter/SelectionCriteriaDefinition.h</title>
<polygon fill="white" stroke="none" points="-4,4 -4,-228 1211,-228 1211,4 -4,4"/>
<!-- Node1 -->
<g id="node1" class="node"><title>Node1</title>
<polygon fill="#bfbfbf" stroke="black" points="766.5,-193 766.5,-223 915.5,-223 915.5,-193 766.5,-193"/>
<text text-anchor="start" x="774.5" y="-211" font-family="Verdana" font-size="10.00">parameter/SelectionCriteria</text>
<text text-anchor="middle" x="841" y="-200" font-family="Verdana" font-size="10.00">Definition.h</text>
</g>
<!-- Node2 -->
<g id="node2" class="node"><title>Node2</title>
<g id="a_node2"><a xlink:href="XmlDomainImportContext_8h.html" target="_top" xlink:title="parameter/XmlDomainImport\lContext.h">
<polygon fill="white" stroke="black" points="402,-125 402,-155 560,-155 560,-125 402,-125"/>
<text text-anchor="start" x="410" y="-143" font-family="Verdana" font-size="10.00">parameter/XmlDomainImport</text>
<text text-anchor="middle" x="481" y="-132" font-family="Verdana" font-size="10.00">Context.h</text>
</a>
</g>
</g>
<!-- Node1&#45;&gt;Node2 -->
<g id="edge1" class="edge"><title>Node1&#45;&gt;Node2</title>
<path fill="none" stroke="midnightblue" d="M756.546,-191.517C696.336,-180.478 616.041,-165.757 557.669,-155.056"/>
<polygon fill="midnightblue" stroke="midnightblue" points="755.941,-194.964 766.408,-193.325 757.203,-188.079 755.941,-194.964"/>
</g>
<!-- Node7 -->
<g id="node7" class="node"><title>Node7</title>
<g id="a_node7"><a xlink:href="ParameterMgr_8cpp.html" target="_top" xlink:title="parameter/ParameterMgr.cpp">
<polygon fill="white" stroke="black" points="628,-0.5 628,-19.5 786,-19.5 786,-0.5 628,-0.5"/>
<text text-anchor="middle" x="707" y="-7.5" font-family="Verdana" font-size="10.00">parameter/ParameterMgr.cpp</text>
</a>
</g>
</g>
<!-- Node1&#45;&gt;Node7 -->
<g id="edge11" class="edge"><title>Node1&#45;&gt;Node7</title>
<path fill="none" stroke="midnightblue" d="M844.751,-182.774C848.361,-150.354 849.671,-92.694 821,-56 806.065,-36.886 781.825,-25.8717 759.529,-19.5338"/>
<polygon fill="midnightblue" stroke="midnightblue" points="841.274,-182.372 843.478,-192.735 848.217,-183.259 841.274,-182.372"/>
</g>
<!-- Node9 -->
<g id="node9" class="node"><title>Node9</title>
<g id="a_node9"><a xlink:href="SelectionCriterionRule_8cpp.html" target="_top" xlink:title="parameter/SelectionCriterion\lRule.cpp">
<polygon fill="white" stroke="black" points="657.5,-57 657.5,-87 812.5,-87 812.5,-57 657.5,-57"/>
<text text-anchor="start" x="665.5" y="-75" font-family="Verdana" font-size="10.00">parameter/SelectionCriterion</text>
<text text-anchor="middle" x="735" y="-64" font-family="Verdana" font-size="10.00">Rule.cpp</text>
</a>
</g>
</g>
<!-- Node1&#45;&gt;Node9 -->
<g id="edge14" class="edge"><title>Node1&#45;&gt;Node9</title>
<path fill="none" stroke="midnightblue" d="M823.368,-184.711C801.453,-157.007 764.698,-110.542 746.262,-87.2372"/>
<polygon fill="midnightblue" stroke="midnightblue" points="820.707,-186.988 829.656,-192.66 826.197,-182.645 820.707,-186.988"/>
</g>
<!-- Node10 -->
<g id="node10" class="node"><title>Node10</title>
<g id="a_node10"><a xlink:href="SelectionCriteria_8cpp.html" target="_top" xlink:title="parameter/SelectionCriteria.cpp">
<polygon fill="white" stroke="black" points="869,-130.5 869,-149.5 1039,-149.5 1039,-130.5 869,-130.5"/>
<text text-anchor="middle" x="954" y="-137.5" font-family="Verdana" font-size="10.00">parameter/SelectionCriteria.cpp</text>
</a>
</g>
</g>
<!-- Node1&#45;&gt;Node10 -->
<g id="edge12" class="edge"><title>Node1&#45;&gt;Node10</title>
<path fill="none" stroke="midnightblue" d="M874.087,-187.675C895.625,-175.095 922.677,-159.295 939.136,-149.682"/>
<polygon fill="midnightblue" stroke="midnightblue" points="872.111,-184.776 865.241,-192.841 875.642,-190.82 872.111,-184.776"/>
</g>
<!-- Node11 -->
<g id="node11" class="node"><title>Node11</title>
<g id="a_node11"><a xlink:href="SelectionCriteriaDefinition_8cpp.html" target="_top" xlink:title="parameter/SelectionCriteria\lDefinition.cpp">
<polygon fill="white" stroke="black" points="1057.5,-125 1057.5,-155 1206.5,-155 1206.5,-125 1057.5,-125"/>
<text text-anchor="start" x="1065.5" y="-143" font-family="Verdana" font-size="10.00">parameter/SelectionCriteria</text>
<text text-anchor="middle" x="1132" y="-132" font-family="Verdana" font-size="10.00">Definition.cpp</text>
</a>
</g>
</g>
<!-- Node1&#45;&gt;Node11 -->
<g id="edge13" class="edge"><title>Node1&#45;&gt;Node11</title>
<path fill="none" stroke="midnightblue" d="M913.123,-190.642C961.324,-179.71 1024.08,-165.477 1070.03,-155.056"/>
<polygon fill="midnightblue" stroke="midnightblue" points="912.048,-187.297 903.07,-192.922 913.596,-194.124 912.048,-187.297"/>
</g>
<!-- Node3 -->
<g id="node3" class="node"><title>Node3</title>
<g id="a_node3"><a xlink:href="ConfigurableDomain_8h.html" target="_top" xlink:title="parameter/ConfigurableDomain.h">
<polygon fill="white" stroke="black" points="214.5,-62.5 214.5,-81.5 391.5,-81.5 391.5,-62.5 214.5,-62.5"/>
<text text-anchor="middle" x="303" y="-69.5" font-family="Verdana" font-size="10.00">parameter/ConfigurableDomain.h</text>
</a>
</g>
</g>
<!-- Node2&#45;&gt;Node3 -->
<g id="edge2" class="edge"><title>Node2&#45;&gt;Node3</title>
<path fill="none" stroke="midnightblue" d="M433.342,-121.329C398.658,-108.469 353.205,-91.6153 326.158,-81.5868"/>
<polygon fill="midnightblue" stroke="midnightblue" points="432.221,-124.646 442.815,-124.841 434.655,-118.083 432.221,-124.646"/>
</g>
<!-- Node4 -->
<g id="node4" class="node"><title>Node4</title>
<g id="a_node4"><a xlink:href="ConfigurableDomain_8cpp.html" target="_top" xlink:title="parameter/ConfigurableDomain.cpp">
<polygon fill="white" stroke="black" points="0,-0.5 0,-19.5 188,-19.5 188,-0.5 0,-0.5"/>
<text text-anchor="middle" x="94" y="-7.5" font-family="Verdana" font-size="10.00">parameter/ConfigurableDomain.cpp</text>
</a>
</g>
</g>
<!-- Node2&#45;&gt;Node4 -->
<g id="edge7" class="edge"><title>Node2&#45;&gt;Node4</title>
<path fill="none" stroke="midnightblue" d="M391.597,-132.14C336.192,-125.566 264.498,-112.778 205,-88 163.213,-70.5982 121.344,-35.6702 103.266,-19.533"/>
<polygon fill="midnightblue" stroke="midnightblue" points="391.414,-135.641 401.746,-133.296 392.206,-128.686 391.414,-135.641"/>
</g>
<!-- Node2&#45;&gt;Node7 -->
<g id="edge9" class="edge"><title>Node2&#45;&gt;Node7</title>
<path fill="none" stroke="midnightblue" d="M457.07,-117.827C439.854,-100.05 422.218,-74.6409 438,-56 450.276,-41.4994 552.895,-27.4931 627.75,-19.0609"/>
<polygon fill="midnightblue" stroke="midnightblue" points="454.732,-120.437 464.324,-124.937 459.632,-115.437 454.732,-120.437"/>
</g>
<!-- Node8 -->
<g id="node8" class="node"><title>Node8</title>
<g id="a_node8"><a xlink:href="DomainConfiguration_8cpp.html" target="_top" xlink:title="parameter/DomainConfiguration.cpp">
<polygon fill="white" stroke="black" points="447,-62.5 447,-81.5 639,-81.5 639,-62.5 447,-62.5"/>
<text text-anchor="middle" x="543" y="-69.5" font-family="Verdana" font-size="10.00">parameter/DomainConfiguration.cpp</text>
</a>
</g>
</g>
<!-- Node2&#45;&gt;Node8 -->
<g id="edge8" class="edge"><title>Node2&#45;&gt;Node8</title>
<path fill="none" stroke="midnightblue" d="M501.511,-117.166C512.828,-105.119 526.259,-90.8216 534.707,-81.8283"/>
<polygon fill="midnightblue" stroke="midnightblue" points="498.749,-114.994 494.453,-124.679 503.851,-119.787 498.749,-114.994"/>
</g>
<!-- Node2&#45;&gt;Node9 -->
<g id="edge10" class="edge"><title>Node2&#45;&gt;Node9</title>
<path fill="none" stroke="midnightblue" d="M545.012,-122.367C586.941,-111.472 641.135,-97.3902 680.905,-87.0561"/>
<polygon fill="midnightblue" stroke="midnightblue" points="543.976,-119.02 535.178,-124.922 545.737,-125.795 543.976,-119.02"/>
</g>
<!-- Node3&#45;&gt;Node4 -->
<g id="edge3" class="edge"><title>Node3&#45;&gt;Node4</title>
<path fill="none" stroke="midnightblue" d="M263.223,-59.5807C222.612,-47.9221 160.49,-30.0881 123.889,-19.5806"/>
<polygon fill="midnightblue" stroke="midnightblue" points="262.478,-63.0082 273.055,-62.4035 264.409,-56.2799 262.478,-63.0082"/>
</g>
<!-- Node5 -->
<g id="node5" class="node"><title>Node5</title>
<g id="a_node5"><a xlink:href="ConfigurableDomains_8cpp.html" target="_top" xlink:title="parameter/ConfigurableDomains.cpp">
<polygon fill="white" stroke="black" points="206,-0.5 206,-19.5 400,-19.5 400,-0.5 206,-0.5"/>
<text text-anchor="middle" x="303" y="-7.5" font-family="Verdana" font-size="10.00">parameter/ConfigurableDomains.cpp</text>
</a>
</g>
</g>
<!-- Node3&#45;&gt;Node5 -->
<g id="edge4" class="edge"><title>Node3&#45;&gt;Node5</title>
<path fill="none" stroke="midnightblue" d="M303,-52.1595C303,-41.2482 303,-28.04 303,-19.5806"/>
<polygon fill="midnightblue" stroke="midnightblue" points="299.5,-52.4034 303,-62.4035 306.5,-52.4035 299.5,-52.4034"/>
</g>
<!-- Node6 -->
<g id="node6" class="node"><title>Node6</title>
<g id="a_node6"><a xlink:href="ConfigurableElement_8cpp.html" target="_top" xlink:title="parameter/ConfigurableElement.cpp">
<polygon fill="white" stroke="black" points="418.5,-0.5 418.5,-19.5 609.5,-19.5 609.5,-0.5 418.5,-0.5"/>
<text text-anchor="middle" x="514" y="-7.5" font-family="Verdana" font-size="10.00">parameter/ConfigurableElement.cpp</text>
</a>
</g>
</g>
<!-- Node3&#45;&gt;Node6 -->
<g id="edge5" class="edge"><title>Node3&#45;&gt;Node6</title>
<path fill="none" stroke="midnightblue" d="M342.898,-59.6547C383.891,-47.9977 446.795,-30.1103 483.825,-19.5806"/>
<polygon fill="midnightblue" stroke="midnightblue" points="341.892,-56.3017 333.231,-62.4035 343.807,-63.0348 341.892,-56.3017"/>
</g>
<!-- Node3&#45;&gt;Node7 -->
<g id="edge6" class="edge"><title>Node3&#45;&gt;Node7</title>
<path fill="none" stroke="midnightblue" d="M370.683,-60.9481C448.898,-49.332 576.245,-30.419 649.744,-19.5034"/>
<polygon fill="midnightblue" stroke="midnightblue" points="369.832,-57.536 360.454,-62.4672 370.86,-64.4601 369.832,-57.536"/>
</g>
</g>
</svg>
