<?xml version="1.0" encoding="UTF-8" standalone="no"?>
<!DOCTYPE svg PUBLIC "-//W3C//DTD SVG 1.1//EN"
 "http://www.w3.org/Graphics/SVG/1.1/DTD/svg11.dtd">
<!-- Generated by graphviz version 2.38.0 (20140413.2041)
 -->
<!-- Title: parameter/SelectionCriteria.h Pages: 1 -->
<svg width="1253pt" height="420pt"
 viewBox="0.00 0.00 1252.50 420.00" xmlns="http://www.w3.org/2000/svg" xmlns:xlink="http://www.w3.org/1999/xlink">
<g id="graph0" class="graph" transform="scale(1 1) rotate(0) translate(4 416)">
<title>parameter/SelectionCriteria.h</title>
<polygon fill="white" stroke="none" points="-4,4 -4,-416 1248.5,-416 1248.5,4 -4,4"/>
<!-- Node1 -->
<g id="node1" class="node"><title>Node1</title>
<polygon fill="#bfbfbf" stroke="black" points="525,-392.5 525,-411.5 683,-411.5 683,-392.5 525,-392.5"/>
<text text-anchor="middle" x="604" y="-399.5" font-family="Verdana" font-size="10.00">parameter/SelectionCriteria.h</text>
</g>
<!-- Node2 -->
<g id="node2" class="node"><title>Node2</title>
<polygon fill="white" stroke="#bfbfbf" points="1103,-112.5 1103,-131.5 1133,-131.5 1133,-112.5 1103,-112.5"/>
<text text-anchor="middle" x="1118" y="-119.5" font-family="Verdana" font-size="10.00">list</text>
</g>
<!-- Node1&#45;&gt;Node2 -->
<g id="edge1" class="edge"><title>Node1&#45;&gt;Node2</title>
<path fill="none" stroke="midnightblue" d="M683.088,-401.468C835.721,-400.228 1156,-386.275 1156,-291 1156,-291 1156,-291 1156,-233 1156,-198.813 1139.4,-161.764 1128.14,-140.571"/>
<polygon fill="midnightblue" stroke="midnightblue" points="1131.18,-138.832 1123.28,-131.769 1125.05,-142.215 1131.18,-138.832"/>
</g>
<!-- Node3 -->
<g id="node3" class="node"><title>Node3</title>
<g id="a_node3"><a xlink:href="Element_8h.html" target="_top" xlink:title="Element.h">
<polygon fill="white" stroke="black" points="327.5,-224.5 327.5,-243.5 392.5,-243.5 392.5,-224.5 327.5,-224.5"/>
<text text-anchor="middle" x="360" y="-231.5" font-family="Verdana" font-size="10.00">Element.h</text>
</a>
</g>
</g>
<!-- Node1&#45;&gt;Node3 -->
<g id="edge2" class="edge"><title>Node1&#45;&gt;Node3</title>
<path fill="none" stroke="midnightblue" d="M573.615,-392.491C530.052,-379.01 449.341,-349.116 397,-300 383.116,-286.972 372.999,-267.544 366.888,-253.322"/>
<polygon fill="midnightblue" stroke="midnightblue" points="369.978,-251.625 363,-243.653 363.483,-254.237 369.978,-251.625"/>
</g>
<!-- Node5 -->
<g id="node5" class="node"><title>Node5</title>
<polygon fill="white" stroke="#bfbfbf" points="588,-0.5 588,-19.5 632,-19.5 632,-0.5 588,-0.5"/>
<text text-anchor="middle" x="610" y="-7.5" font-family="Verdana" font-size="10.00">string</text>
</g>
<!-- Node1&#45;&gt;Node5 -->
<g id="edge54" class="edge"><title>Node1&#45;&gt;Node5</title>
<path fill="none" stroke="midnightblue" d="M524.727,-394.717C360.86,-380.663 0,-343.727 0,-291 0,-291 0,-291 0,-121 0,-64.2136 55.9505,-73.4169 110,-56 197.665,-27.7507 481.388,-15.4739 577.682,-12.051"/>
<polygon fill="midnightblue" stroke="midnightblue" points="578.085,-15.5392 587.958,-11.6943 577.843,-8.54341 578.085,-15.5392"/>
</g>
<!-- Node15 -->
<g id="node15" class="node"><title>Node15</title>
<g id="a_node15"><a xlink:href="SelectionCriterionType_8h.html" target="_top" xlink:title="SelectionCriterionType.h">
<polygon fill="white" stroke="black" points="436.5,-280.5 436.5,-299.5 567.5,-299.5 567.5,-280.5 436.5,-280.5"/>
<text text-anchor="middle" x="502" y="-287.5" font-family="Verdana" font-size="10.00">SelectionCriterionType.h</text>
</a>
</g>
</g>
<!-- Node1&#45;&gt;Node15 -->
<g id="edge23" class="edge"><title>Node1&#45;&gt;Node15</title>
<path fill="none" stroke="midnightblue" d="M595.996,-392.368C578.94,-373.974 538.786,-330.671 516.884,-307.052"/>
<polygon fill="midnightblue" stroke="midnightblue" points="519.332,-304.544 509.967,-299.591 514.2,-309.304 519.332,-304.544"/>
</g>
<!-- Node18 -->
<g id="node18" class="node"><title>Node18</title>
<g id="a_node18"><a xlink:href="SelectionCriterion_8h.html" target="_top" xlink:title="SelectionCriterion.h">
<polygon fill="white" stroke="black" points="608,-336.5 608,-355.5 718,-355.5 718,-336.5 608,-336.5"/>
<text text-anchor="middle" x="663" y="-343.5" font-family="Verdana" font-size="10.00">SelectionCriterion.h</text>
</a>
</g>
</g>
<!-- Node1&#45;&gt;Node18 -->
<g id="edge29" class="edge"><title>Node1&#45;&gt;Node18</title>
<path fill="none" stroke="midnightblue" d="M613.479,-392.324C622.201,-384.341 635.343,-372.313 645.898,-362.653"/>
<polygon fill="midnightblue" stroke="midnightblue" points="648.334,-365.167 653.348,-355.834 643.608,-360.004 648.334,-365.167"/>
</g>
<!-- Node20 -->
<g id="node20" class="node"><title>Node20</title>
<g id="a_node20"><a xlink:href="Logger_8h.html" target="_top" xlink:title="log/Logger.h">
<polygon fill="white" stroke="black" points="797.5,-280.5 797.5,-299.5 872.5,-299.5 872.5,-280.5 797.5,-280.5"/>
<text text-anchor="middle" x="835" y="-287.5" font-family="Verdana" font-size="10.00">log/Logger.h</text>
</a>
</g>
</g>
<!-- Node1&#45;&gt;Node20 -->
<g id="edge53" class="edge"><title>Node1&#45;&gt;Node20</title>
<path fill="none" stroke="midnightblue" d="M631.975,-392.459C657.317,-384.328 695.412,-371.113 727,-356 758.469,-340.944 792.624,-319.435 813.917,-305.347"/>
<polygon fill="midnightblue" stroke="midnightblue" points="816.107,-308.093 822.475,-299.626 812.217,-302.274 816.107,-308.093"/>
</g>
<!-- Node4 -->
<g id="node4" class="node"><title>Node4</title>
<polygon fill="white" stroke="#bfbfbf" points="214.5,-168.5 214.5,-187.5 327.5,-187.5 327.5,-168.5 214.5,-168.5"/>
<text text-anchor="middle" x="271" y="-175.5" font-family="Verdana" font-size="10.00">parameter_export.h</text>
</g>
<!-- Node3&#45;&gt;Node4 -->
<g id="edge3" class="edge"><title>Node3&#45;&gt;Node4</title>
<path fill="none" stroke="midnightblue" d="M345.701,-224.324C331.817,-215.9 310.508,-202.971 294.196,-193.074"/>
<polygon fill="midnightblue" stroke="midnightblue" points="295.629,-189.85 285.264,-187.655 291.998,-195.834 295.629,-189.85"/>
</g>
<!-- Node3&#45;&gt;Node5 -->
<g id="edge4" class="edge"><title>Node3&#45;&gt;Node5</title>
<path fill="none" stroke="midnightblue" d="M357.892,-224.102C354.561,-211.11 347.278,-186.484 336,-168 320.954,-143.339 286.451,-135.679 303,-112 366.024,-21.8196 512.613,-10.532 577.778,-10.1883"/>
<polygon fill="midnightblue" stroke="midnightblue" points="577.865,-13.6885 587.876,-10.2209 577.887,-6.6885 577.865,-13.6885"/>
</g>
<!-- Node6 -->
<g id="node6" class="node"><title>Node6</title>
<polygon fill="white" stroke="#bfbfbf" points="110.5,-112.5 110.5,-131.5 157.5,-131.5 157.5,-112.5 110.5,-112.5"/>
<text text-anchor="middle" x="134" y="-119.5" font-family="Verdana" font-size="10.00">vector</text>
</g>
<!-- Node3&#45;&gt;Node6 -->
<g id="edge5" class="edge"><title>Node3&#45;&gt;Node6</title>
<path fill="none" stroke="midnightblue" d="M327.181,-232.738C286.888,-230.837 218.223,-222.297 172,-188 156.288,-176.342 145.959,-156.097 140.089,-141.292"/>
<polygon fill="midnightblue" stroke="midnightblue" points="143.298,-139.873 136.59,-131.672 136.72,-142.266 143.298,-139.873"/>
</g>
<!-- Node7 -->
<g id="node7" class="node"><title>Node7</title>
<polygon fill="white" stroke="#bfbfbf" points="159.5,-56.5 159.5,-75.5 212.5,-75.5 212.5,-56.5 159.5,-56.5"/>
<text text-anchor="middle" x="186" y="-63.5" font-family="Verdana" font-size="10.00">stdint.h</text>
</g>
<!-- Node3&#45;&gt;Node7 -->
<g id="edge6" class="edge"><title>Node3&#45;&gt;Node7</title>
<path fill="none" stroke="midnightblue" d="M327.396,-233.169C291.788,-231.466 235.741,-222.909 205,-188 179.904,-159.502 180.575,-111.885 183.276,-85.6892"/>
<polygon fill="midnightblue" stroke="midnightblue" points="186.77,-85.9538 184.532,-75.5982 179.824,-85.0894 186.77,-85.9538"/>
</g>
<!-- Node8 -->
<g id="node8" class="node"><title>Node8</title>
<g id="a_node8"><a xlink:href="XmlSink_8h.html" target="_top" xlink:title="XmlSink.h">
<polygon fill="white" stroke="black" points="384,-168.5 384,-187.5 448,-187.5 448,-168.5 384,-168.5"/>
<text text-anchor="middle" x="416" y="-175.5" font-family="Verdana" font-size="10.00">XmlSink.h</text>
</a>
</g>
</g>
<!-- Node3&#45;&gt;Node8 -->
<g id="edge7" class="edge"><title>Node3&#45;&gt;Node8</title>
<path fill="none" stroke="midnightblue" d="M368.997,-224.324C377.194,-216.42 389.506,-204.548 399.472,-194.938"/>
<polygon fill="midnightblue" stroke="midnightblue" points="402.07,-197.295 406.839,-187.834 397.211,-192.256 402.07,-197.295"/>
</g>
<!-- Node13 -->
<g id="node13" class="node"><title>Node13</title>
<g id="a_node13"><a xlink:href="XmlSource_8h.html" target="_top" xlink:title="XmlSource.h">
<polygon fill="white" stroke="black" points="466.5,-168.5 466.5,-187.5 543.5,-187.5 543.5,-168.5 466.5,-168.5"/>
<text text-anchor="middle" x="505" y="-175.5" font-family="Verdana" font-size="10.00">XmlSource.h</text>
</a>
</g>
</g>
<!-- Node3&#45;&gt;Node13 -->
<g id="edge16" class="edge"><title>Node3&#45;&gt;Node13</title>
<path fill="none" stroke="midnightblue" d="M382.976,-224.444C407.157,-215.438 445.418,-201.189 472.646,-191.049"/>
<polygon fill="midnightblue" stroke="midnightblue" points="473.982,-194.286 482.132,-187.516 471.539,-187.727 473.982,-194.286"/>
</g>
<!-- Node14 -->
<g id="node14" class="node"><title>Node14</title>
<g id="a_node14"><a xlink:href="PathNavigator_8h.html" target="_top" xlink:title="PathNavigator.h">
<polygon fill="white" stroke="black" points="28,-168.5 28,-187.5 120,-187.5 120,-168.5 28,-168.5"/>
<text text-anchor="middle" x="74" y="-175.5" font-family="Verdana" font-size="10.00">PathNavigator.h</text>
</a>
</g>
</g>
<!-- Node3&#45;&gt;Node14 -->
<g id="edge19" class="edge"><title>Node3&#45;&gt;Node14</title>
<path fill="none" stroke="midnightblue" d="M327.471,-226.858C279.169,-217.738 187.873,-200.5 129.045,-189.393"/>
<polygon fill="midnightblue" stroke="midnightblue" points="129.652,-185.946 119.176,-187.53 128.353,-192.824 129.652,-185.946"/>
</g>
<!-- Node9 -->
<g id="node9" class="node"><title>Node9</title>
<g id="a_node9"><a xlink:href="XmlElement_8h.html" target="_top" xlink:title="XmlElement.h">
<polygon fill="white" stroke="black" points="312.5,-112.5 312.5,-131.5 395.5,-131.5 395.5,-112.5 312.5,-112.5"/>
<text text-anchor="middle" x="354" y="-119.5" font-family="Verdana" font-size="10.00">XmlElement.h</text>
</a>
</g>
</g>
<!-- Node8&#45;&gt;Node9 -->
<g id="edge8" class="edge"><title>Node8&#45;&gt;Node9</title>
<path fill="none" stroke="midnightblue" d="M406.039,-168.324C396.873,-160.341 383.063,-148.313 371.972,-138.653"/>
<polygon fill="midnightblue" stroke="midnightblue" points="373.982,-135.762 364.143,-131.834 369.385,-141.041 373.982,-135.762"/>
</g>
<!-- Node10 -->
<g id="node10" class="node"><title>Node10</title>
<g id="a_node10"><a xlink:href="XmlSerializingContext_8h.html" target="_top" xlink:title="XmlSerializingContext.h">
<polygon fill="white" stroke="black" points="414,-112.5 414,-131.5 544,-131.5 544,-112.5 414,-112.5"/>
<text text-anchor="middle" x="479" y="-119.5" font-family="Verdana" font-size="10.00">XmlSerializingContext.h</text>
</a>
</g>
</g>
<!-- Node8&#45;&gt;Node10 -->
<g id="edge11" class="edge"><title>Node8&#45;&gt;Node10</title>
<path fill="none" stroke="midnightblue" d="M426.122,-168.324C435.526,-160.263 449.744,-148.077 461.069,-138.369"/>
<polygon fill="midnightblue" stroke="midnightblue" points="463.379,-140.999 468.694,-131.834 458.823,-135.684 463.379,-140.999"/>
</g>
<!-- Node9&#45;&gt;Node5 -->
<g id="edge10" class="edge"><title>Node9&#45;&gt;Node5</title>
<path fill="none" stroke="midnightblue" d="M374.088,-112.368C419.046,-93.0507 527.942,-46.2592 580.564,-23.6481"/>
<polygon fill="midnightblue" stroke="midnightblue" points="582.199,-26.755 590.005,-19.5914 579.436,-20.3236 582.199,-26.755"/>
</g>
<!-- Node9&#45;&gt;Node7 -->
<g id="edge9" class="edge"><title>Node9&#45;&gt;Node7</title>
<path fill="none" stroke="midnightblue" d="M327.38,-112.444C298.994,-103.32 253.863,-88.8133 222.247,-78.6509"/>
<polygon fill="midnightblue" stroke="midnightblue" points="223.087,-75.2445 212.496,-75.5164 220.945,-81.9087 223.087,-75.2445"/>
</g>
<!-- Node10&#45;&gt;Node5 -->
<g id="edge15" class="edge"><title>Node10&#45;&gt;Node5</title>
<path fill="none" stroke="midnightblue" d="M489.279,-112.368C511.472,-93.7334 564.111,-49.5324 591.977,-26.1338"/>
<polygon fill="midnightblue" stroke="midnightblue" points="594.361,-28.7024 599.768,-19.5914 589.859,-23.3416 594.361,-28.7024"/>
</g>
<!-- Node11 -->
<g id="node11" class="node"><title>Node11</title>
<g id="a_node11"><a xlink:href="ErrorContext_8hpp.html" target="_top" xlink:title="ErrorContext.hpp">
<polygon fill="white" stroke="black" points="676,-56.5 676,-75.5 774,-75.5 774,-56.5 676,-56.5"/>
<text text-anchor="middle" x="725" y="-63.5" font-family="Verdana" font-size="10.00">ErrorContext.hpp</text>
</a>
</g>
</g>
<!-- Node10&#45;&gt;Node11 -->
<g id="edge12" class="edge"><title>Node10&#45;&gt;Node11</title>
<path fill="none" stroke="midnightblue" d="M517.979,-112.444C560.894,-103.023 629.946,-87.8656 676.369,-77.6752"/>
<polygon fill="midnightblue" stroke="midnightblue" points="677.186,-81.0792 686.203,-75.5164 675.685,-74.242 677.186,-81.0792"/>
</g>
<!-- Node11&#45;&gt;Node5 -->
<g id="edge13" class="edge"><title>Node11&#45;&gt;Node5</title>
<path fill="none" stroke="midnightblue" d="M706.778,-56.4435C688.104,-47.6751 658.844,-33.9355 637.383,-23.8579"/>
<polygon fill="midnightblue" stroke="midnightblue" points="638.676,-20.5988 628.137,-19.5164 635.701,-26.935 638.676,-20.5988"/>
</g>
<!-- Node12 -->
<g id="node12" class="node"><title>Node12</title>
<g id="a_node12"><a xlink:href="NonCopyable_8hpp.html" target="_top" xlink:title="NonCopyable.hpp">
<polygon fill="white" stroke="black" points="1143.5,-0.5 1143.5,-19.5 1244.5,-19.5 1244.5,-0.5 1143.5,-0.5"/>
<text text-anchor="middle" x="1194" y="-7.5" font-family="Verdana" font-size="10.00">NonCopyable.hpp</text>
</a>
</g>
</g>
<!-- Node11&#45;&gt;Node12 -->
<g id="edge14" class="edge"><title>Node11&#45;&gt;Node12</title>
<path fill="none" stroke="midnightblue" d="M774.305,-59.3231C860.672,-49.3789 1039.06,-28.8398 1133.03,-18.0201"/>
<polygon fill="midnightblue" stroke="midnightblue" points="1133.7,-21.4663 1143.23,-16.8453 1132.9,-14.5122 1133.7,-21.4663"/>
</g>
<!-- Node13&#45;&gt;Node9 -->
<g id="edge17" class="edge"><title>Node13&#45;&gt;Node9</title>
<path fill="none" stroke="midnightblue" d="M481.074,-168.444C455.781,-159.399 415.698,-145.064 387.32,-134.916"/>
<polygon fill="midnightblue" stroke="midnightblue" points="388.409,-131.588 377.814,-131.516 386.052,-138.179 388.409,-131.588"/>
</g>
<!-- Node13&#45;&gt;Node10 -->
<g id="edge18" class="edge"><title>Node13&#45;&gt;Node10</title>
<path fill="none" stroke="midnightblue" d="M500.707,-168.083C497.148,-160.691 491.978,-149.953 487.576,-140.811"/>
<polygon fill="midnightblue" stroke="midnightblue" points="490.705,-139.243 483.213,-131.751 484.398,-142.279 490.705,-139.243"/>
</g>
<!-- Node14&#45;&gt;Node5 -->
<g id="edge21" class="edge"><title>Node14&#45;&gt;Node5</title>
<path fill="none" stroke="midnightblue" d="M73.6604,-168.394C73.5231,-155.342 74.765,-130.142 85,-112 103.736,-78.7888 114.943,-71.0013 150,-56 227.349,-22.9014 486.628,-13.8331 577.889,-11.6355"/>
<polygon fill="midnightblue" stroke="midnightblue" points="578.001,-15.134 587.918,-11.4057 577.84,-8.13581 578.001,-15.134"/>
</g>
<!-- Node14&#45;&gt;Node6 -->
<g id="edge20" class="edge"><title>Node14&#45;&gt;Node6</title>
<path fill="none" stroke="midnightblue" d="M83.64,-168.324C92.5096,-160.341 105.875,-148.313 116.608,-138.653"/>
<polygon fill="midnightblue" stroke="midnightblue" points="119.093,-141.125 124.185,-131.834 114.41,-135.922 119.093,-141.125"/>
</g>
<!-- Node14&#45;&gt;Node7 -->
<g id="edge22" class="edge"><title>Node14&#45;&gt;Node7</title>
<path fill="none" stroke="midnightblue" d="M75.6129,-168.412C78.5351,-154.929 85.8593,-128.622 101,-112 114.253,-97.4505 133.321,-86.7593 150.04,-79.4579"/>
<polygon fill="midnightblue" stroke="midnightblue" points="151.633,-82.5873 159.55,-75.5472 148.971,-76.1133 151.633,-82.5873"/>
</g>
<!-- Node15&#45;&gt;Node3 -->
<g id="edge24" class="edge"><title>Node15&#45;&gt;Node3</title>
<path fill="none" stroke="midnightblue" d="M479.5,-280.444C455.923,-271.478 418.678,-257.314 392.036,-247.183"/>
<polygon fill="midnightblue" stroke="midnightblue" points="392.986,-243.8 382.395,-243.516 390.498,-250.342 392.986,-243.8"/>
</g>
<!-- Node15&#45;&gt;Node5 -->
<g id="edge26" class="edge"><title>Node15&#45;&gt;Node5</title>
<path fill="none" stroke="midnightblue" d="M500.22,-280.414C497.978,-267.387 495.476,-242.221 505,-224 517.189,-200.681 536.778,-209.462 552,-188 587.8,-137.524 602.487,-63.6054 607.622,-29.4978"/>
<polygon fill="midnightblue" stroke="midnightblue" points="611.094,-29.937 609.013,-19.5485 604.162,-28.9673 611.094,-29.937"/>
</g>
<!-- Node16 -->
<g id="node16" class="node"><title>Node16</title>
<polygon fill="white" stroke="#bfbfbf" points="651,-112.5 651,-131.5 689,-131.5 689,-112.5 651,-112.5"/>
<text text-anchor="middle" x="670" y="-119.5" font-family="Verdana" font-size="10.00">map</text>
</g>
<!-- Node15&#45;&gt;Node16 -->
<g id="edge25" class="edge"><title>Node15&#45;&gt;Node16</title>
<path fill="none" stroke="midnightblue" d="M502.128,-280.47C502.751,-267.066 505.727,-240.865 519,-224 539.906,-197.436 557.647,-206.407 586,-188 609.97,-172.439 635.705,-151.896 652.281,-138.106"/>
<polygon fill="midnightblue" stroke="midnightblue" points="654.652,-140.685 660.057,-131.573 650.15,-135.326 654.652,-140.685"/>
</g>
<!-- Node17 -->
<g id="node17" class="node"><title>Node17</title>
<g id="a_node17"><a xlink:href="SelectionCriterionTypeInterface_8h.html" target="_top" xlink:title="SelectionCriterionTypeInterface.h">
<polygon fill="white" stroke="black" points="528.5,-224.5 528.5,-243.5 701.5,-243.5 701.5,-224.5 528.5,-224.5"/>
<text text-anchor="middle" x="615" y="-231.5" font-family="Verdana" font-size="10.00">SelectionCriterionTypeInterface.h</text>
</a>
</g>
</g>
<!-- Node15&#45;&gt;Node17 -->
<g id="edge27" class="edge"><title>Node15&#45;&gt;Node17</title>
<path fill="none" stroke="midnightblue" d="M519.905,-280.444C538.254,-271.675 567.005,-257.935 588.094,-247.858"/>
<polygon fill="midnightblue" stroke="midnightblue" points="589.665,-250.986 597.179,-243.516 586.647,-244.67 589.665,-250.986"/>
</g>
<!-- Node17&#45;&gt;Node5 -->
<g id="edge28" class="edge"><title>Node17&#45;&gt;Node5</title>
<path fill="none" stroke="midnightblue" d="M614.804,-224.297C614.068,-191.633 611.461,-75.8661 610.427,-29.9573"/>
<polygon fill="midnightblue" stroke="midnightblue" points="613.924,-29.8024 610.2,-19.8837 606.926,-29.9601 613.924,-29.8024"/>
</g>
<!-- Node18&#45;&gt;Node3 -->
<g id="edge30" class="edge"><title>Node18&#45;&gt;Node3</title>
<path fill="none" stroke="midnightblue" d="M607.603,-343.37C557.821,-339.891 483.995,-329.624 427,-300 404.641,-288.379 384.727,-266.896 372.535,-251.818"/>
<polygon fill="midnightblue" stroke="midnightblue" points="375.197,-249.54 366.289,-243.804 369.676,-253.843 375.197,-249.54"/>
</g>
<!-- Node18&#45;&gt;Node5 -->
<g id="edge52" class="edge"><title>Node18&#45;&gt;Node5</title>
<path fill="none" stroke="midnightblue" d="M693.663,-336.493C712.33,-329.693 735.01,-318.217 748,-300 763.901,-277.7 799.753,-77.6676 783,-56 765.954,-33.9524 687.675,-20.6917 642.472,-14.7404"/>
<polygon fill="midnightblue" stroke="midnightblue" points="642.648,-11.2347 632.287,-13.4493 641.767,-18.1792 642.648,-11.2347"/>
</g>
<!-- Node18&#45;&gt;Node12 -->
<g id="edge51" class="edge"><title>Node18&#45;&gt;Node12</title>
<path fill="none" stroke="midnightblue" d="M718.075,-345.901C860.872,-346.766 1232,-339.009 1232,-235 1232,-235 1232,-235 1232,-121 1232,-86.8131 1215.4,-49.7639 1204.14,-28.5707"/>
<polygon fill="midnightblue" stroke="midnightblue" points="1207.18,-26.832 1199.28,-19.769 1201.05,-30.2151 1207.18,-26.832"/>
</g>
<!-- Node18&#45;&gt;Node15 -->
<g id="edge31" class="edge"><title>Node18&#45;&gt;Node15</title>
<path fill="none" stroke="midnightblue" d="M637.489,-336.444C610.404,-327.359 567.41,-312.939 537.131,-302.783"/>
<polygon fill="midnightblue" stroke="midnightblue" points="537.986,-299.378 527.392,-299.516 535.76,-306.015 537.986,-299.378"/>
</g>
<!-- Node19 -->
<g id="node19" class="node"><title>Node19</title>
<g id="a_node19"><a xlink:href="SelectionCriterionInterface_8h.html" target="_top" xlink:title="SelectionCriterionInterface.h">
<polygon fill="white" stroke="black" points="587,-280.5 587,-299.5 739,-299.5 739,-280.5 587,-280.5"/>
<text text-anchor="middle" x="663" y="-287.5" font-family="Verdana" font-size="10.00">SelectionCriterionInterface.h</text>
</a>
</g>
</g>
<!-- Node18&#45;&gt;Node19 -->
<g id="edge32" class="edge"><title>Node18&#45;&gt;Node19</title>
<path fill="none" stroke="midnightblue" d="M663,-336.083C663,-329.006 663,-318.861 663,-309.986"/>
<polygon fill="midnightblue" stroke="midnightblue" points="666.5,-309.751 663,-299.751 659.5,-309.751 666.5,-309.751"/>
</g>
<!-- Node18&#45;&gt;Node20 -->
<g id="edge35" class="edge"><title>Node18&#45;&gt;Node20</title>
<path fill="none" stroke="midnightblue" d="M690.254,-336.444C719.441,-327.28 765.921,-312.688 798.309,-302.519"/>
<polygon fill="midnightblue" stroke="midnightblue" points="799.381,-305.851 807.874,-299.516 797.284,-299.173 799.381,-305.851"/>
</g>
<!-- Node19&#45;&gt;Node5 -->
<g id="edge33" class="edge"><title>Node19&#45;&gt;Node5</title>
<path fill="none" stroke="midnightblue" d="M677.078,-280.259C688.353,-272.355 703.346,-259.584 710,-244 721.99,-215.921 748.581,-227.828 698,-112 697.449,-110.738 649.542,-56.0558 624.655,-27.6917"/>
<polygon fill="midnightblue" stroke="midnightblue" points="626.975,-25.0295 617.748,-19.8223 621.714,-29.6469 626.975,-25.0295"/>
</g>
<!-- Node19&#45;&gt;Node17 -->
<g id="edge34" class="edge"><title>Node19&#45;&gt;Node17</title>
<path fill="none" stroke="midnightblue" d="M655.074,-280.083C648.154,-272.298 637.935,-260.801 629.548,-251.367"/>
<polygon fill="midnightblue" stroke="midnightblue" points="632.038,-248.9 622.779,-243.751 626.806,-253.55 632.038,-248.9"/>
</g>
<!-- Node20&#45;&gt;Node12 -->
<g id="edge50" class="edge"><title>Node20&#45;&gt;Node12</title>
<path fill="none" stroke="midnightblue" d="M872.741,-285.528C964.913,-276.011 1194,-245.653 1194,-179 1194,-179 1194,-179 1194,-121 1194,-88.948 1194,-51.6426 1194,-29.7489"/>
<polygon fill="midnightblue" stroke="midnightblue" points="1197.5,-29.5577 1194,-19.5578 1190.5,-29.5578 1197.5,-29.5577"/>
</g>
<!-- Node21 -->
<g id="node21" class="node"><title>Node21</title>
<g id="a_node21"><a xlink:href="ILogger_8h.html" target="_top" xlink:title="log/ILogger.h">
<polygon fill="white" stroke="black" points="796.5,-168.5 796.5,-187.5 873.5,-187.5 873.5,-168.5 796.5,-168.5"/>
<text text-anchor="middle" x="835" y="-175.5" font-family="Verdana" font-size="10.00">log/ILogger.h</text>
</a>
</g>
</g>
<!-- Node20&#45;&gt;Node21 -->
<g id="edge36" class="edge"><title>Node20&#45;&gt;Node21</title>
<path fill="none" stroke="midnightblue" d="M835,-280.368C835,-262.617 835,-221.666 835,-197.597"/>
<polygon fill="midnightblue" stroke="midnightblue" points="838.5,-197.591 835,-187.591 831.5,-197.591 838.5,-197.591"/>
</g>
<!-- Node22 -->
<g id="node22" class="node"><title>Node22</title>
<g id="a_node22"><a xlink:href="LogWrapper_8h.html" target="_top" xlink:title="log/LogWrapper.h">
<polygon fill="white" stroke="black" points="891,-224.5 891,-243.5 989,-243.5 989,-224.5 891,-224.5"/>
<text text-anchor="middle" x="940" y="-231.5" font-family="Verdana" font-size="10.00">log/LogWrapper.h</text>
</a>
</g>
</g>
<!-- Node20&#45;&gt;Node22 -->
<g id="edge38" class="edge"><title>Node20&#45;&gt;Node22</title>
<path fill="none" stroke="midnightblue" d="M851.87,-280.324C868.709,-271.664 894.807,-258.242 914.238,-248.249"/>
<polygon fill="midnightblue" stroke="midnightblue" points="915.88,-251.341 923.172,-243.655 912.678,-245.116 915.88,-251.341"/>
</g>
<!-- Node21&#45;&gt;Node5 -->
<g id="edge37" class="edge"><title>Node21&#45;&gt;Node5</title>
<path fill="none" stroke="midnightblue" d="M836.598,-168.284C840.096,-146.232 845.897,-87.7246 816,-56 792.571,-31.138 693.807,-18.6089 642.011,-13.6448"/>
<polygon fill="midnightblue" stroke="midnightblue" points="642.293,-10.156 632.014,-12.7249 641.651,-17.1266 642.293,-10.156"/>
</g>
<!-- Node22&#45;&gt;Node2 -->
<g id="edge49" class="edge"><title>Node22&#45;&gt;Node2</title>
<path fill="none" stroke="midnightblue" d="M989.299,-231.24C1024.31,-227.39 1070.07,-216.682 1099,-188 1111.12,-175.982 1115.61,-156.689 1117.22,-142.238"/>
<polygon fill="midnightblue" stroke="midnightblue" points="1120.73,-142.15 1117.98,-131.918 1113.75,-141.632 1120.73,-142.15"/>
</g>
<!-- Node22&#45;&gt;Node5 -->
<g id="edge46" class="edge"><title>Node22&#45;&gt;Node5</title>
<path fill="none" stroke="midnightblue" d="M937.709,-224.251C929.581,-195.066 899.224,-100.398 837,-56 806.109,-33.9589 697.202,-19.9434 642.238,-14.1108"/>
<polygon fill="midnightblue" stroke="midnightblue" points="642.311,-10.5998 632.004,-13.0535 641.591,-17.5627 642.311,-10.5998"/>
</g>
<!-- Node22&#45;&gt;Node21 -->
<g id="edge39" class="edge"><title>Node22&#45;&gt;Node21</title>
<path fill="none" stroke="midnightblue" d="M923.13,-224.324C906.291,-215.664 880.193,-202.242 860.762,-192.249"/>
<polygon fill="midnightblue" stroke="midnightblue" points="862.322,-189.116 851.828,-187.655 859.12,-195.341 862.322,-189.116"/>
</g>
<!-- Node23 -->
<g id="node23" class="node"><title>Node23</title>
<g id="a_node23"><a xlink:href="Utility_8h.html" target="_top" xlink:title="Utility.h">
<polygon fill="white" stroke="black" points="968.5,-168.5 968.5,-187.5 1019.5,-187.5 1019.5,-168.5 968.5,-168.5"/>
<text text-anchor="middle" x="994" y="-175.5" font-family="Verdana" font-size="10.00">Utility.h</text>
</a>
</g>
</g>
<!-- Node22&#45;&gt;Node23 -->
<g id="edge40" class="edge"><title>Node22&#45;&gt;Node23</title>
<path fill="none" stroke="midnightblue" d="M948.917,-224.083C956.78,-216.22 968.431,-204.569 977.919,-195.081"/>
<polygon fill="midnightblue" stroke="midnightblue" points="980.653,-197.297 985.249,-187.751 975.703,-192.347 980.653,-197.297"/>
</g>
<!-- Node24 -->
<g id="node24" class="node"><title>Node24</title>
<polygon fill="white" stroke="#bfbfbf" points="914,-112.5 914,-131.5 970,-131.5 970,-112.5 914,-112.5"/>
<text text-anchor="middle" x="942" y="-119.5" font-family="Verdana" font-size="10.00">sstream</text>
</g>
<!-- Node22&#45;&gt;Node24 -->
<g id="edge47" class="edge"><title>Node22&#45;&gt;Node24</title>
<path fill="none" stroke="midnightblue" d="M940.157,-224.368C940.48,-206.617 941.224,-165.666 941.662,-141.597"/>
<polygon fill="midnightblue" stroke="midnightblue" points="945.161,-141.653 941.844,-131.591 938.162,-141.526 945.161,-141.653"/>
</g>
<!-- Node26 -->
<g id="node26" class="node"><title>Node26</title>
<polygon fill="white" stroke="#bfbfbf" points="1038,-168.5 1038,-187.5 1090,-187.5 1090,-168.5 1038,-168.5"/>
<text text-anchor="middle" x="1064" y="-175.5" font-family="Verdana" font-size="10.00">iterator</text>
</g>
<!-- Node22&#45;&gt;Node26 -->
<g id="edge48" class="edge"><title>Node22&#45;&gt;Node26</title>
<path fill="none" stroke="midnightblue" d="M959.648,-224.444C979.965,-215.596 1011.9,-201.687 1035.1,-191.586"/>
<polygon fill="midnightblue" stroke="midnightblue" points="1036.67,-194.718 1044.44,-187.516 1033.88,-188.3 1036.67,-194.718"/>
</g>
<!-- Node23&#45;&gt;Node2 -->
<g id="edge42" class="edge"><title>Node23&#45;&gt;Node2</title>
<path fill="none" stroke="midnightblue" d="M1013.65,-168.444C1035.28,-159.024 1070.08,-143.866 1093.48,-133.676"/>
<polygon fill="midnightblue" stroke="midnightblue" points="1094.97,-136.846 1102.74,-129.644 1092.18,-130.428 1094.97,-136.846"/>
</g>
<!-- Node23&#45;&gt;Node5 -->
<g id="edge41" class="edge"><title>Node23&#45;&gt;Node5</title>
<path fill="none" stroke="midnightblue" d="M993.906,-168.235C993.366,-154.975 990.735,-129.509 979,-112 955.039,-76.2495 939.883,-72.175 900,-56 811.473,-20.0963 697.056,-12.646 642.164,-11.2296"/>
<polygon fill="midnightblue" stroke="midnightblue" points="642.074,-7.72711 632.004,-11.0201 641.93,-14.7256 642.074,-7.72711"/>
</g>
<!-- Node23&#45;&gt;Node16 -->
<g id="edge43" class="edge"><title>Node23&#45;&gt;Node16</title>
<path fill="none" stroke="midnightblue" d="M968.305,-172.718C908.88,-162.813 762.239,-138.373 699.38,-127.897"/>
<polygon fill="midnightblue" stroke="midnightblue" points="699.784,-124.416 689.344,-126.224 698.633,-131.32 699.784,-124.416"/>
</g>
<!-- Node23&#45;&gt;Node24 -->
<g id="edge44" class="edge"><title>Node23&#45;&gt;Node24</title>
<path fill="none" stroke="midnightblue" d="M985.413,-168.083C977.841,-160.22 966.622,-148.569 957.486,-139.081"/>
<polygon fill="midnightblue" stroke="midnightblue" points="959.885,-136.527 950.427,-131.751 954.842,-141.382 959.885,-136.527"/>
</g>
<!-- Node25 -->
<g id="node25" class="node"><title>Node25</title>
<polygon fill="white" stroke="#bfbfbf" points="1026,-112.5 1026,-131.5 1082,-131.5 1082,-112.5 1026,-112.5"/>
<text text-anchor="middle" x="1054" y="-119.5" font-family="Verdana" font-size="10.00">numeric</text>
</g>
<!-- Node23&#45;&gt;Node25 -->
<g id="edge45" class="edge"><title>Node23&#45;&gt;Node25</title>
<path fill="none" stroke="midnightblue" d="M1003.64,-168.324C1012.51,-160.341 1025.87,-148.313 1036.61,-138.653"/>
<polygon fill="midnightblue" stroke="midnightblue" points="1039.09,-141.125 1044.18,-131.834 1034.41,-135.922 1039.09,-141.125"/>
</g>
</g>
</svg>
