<?xml version="1.0" encoding="UTF-8" standalone="no"?>
<!DOCTYPE svg PUBLIC "-//W3C//DTD SVG 1.1//EN"
 "http://www.w3.org/Graphics/SVG/1.1/DTD/svg11.dtd">
<!-- Generated by graphviz version 2.38.0 (20140413.2041)
 -->
<!-- Title: parameter/SelectionCriterion.h Pages: 1 -->
<svg width="1519pt" height="285pt"
 viewBox="0.00 0.00 1518.75 285.00" xmlns="http://www.w3.org/2000/svg" xmlns:xlink="http://www.w3.org/1999/xlink">
<g id="graph0" class="graph" transform="scale(1 1) rotate(0) translate(4 281)">
<title>parameter/SelectionCriterion.h</title>
<polygon fill="white" stroke="none" points="-4,4 -4,-281 1514.75,-281 1514.75,4 -4,4"/>
<!-- Node1 -->
<g id="node1" class="node"><title>Node1</title>
<polygon fill="#bfbfbf" stroke="black" points="1017.75,-257.5 1017.75,-276.5 1181.75,-276.5 1181.75,-257.5 1017.75,-257.5"/>
<text text-anchor="middle" x="1099.75" y="-264.5" font-family="Verdana" font-size="10.00">parameter/SelectionCriterion.h</text>
</g>
<!-- Node2 -->
<g id="node2" class="node"><title>Node2</title>
<g id="a_node2"><a xlink:href="SelectionCriteriaDefinition_8h.html" target="_top" xlink:title="parameter/SelectionCriteria\lDefinition.h">
<polygon fill="white" stroke="black" points="948.249,-190.5 948.249,-220.5 1097.25,-220.5 1097.25,-190.5 948.249,-190.5"/>
<text text-anchor="start" x="956.249" y="-208.5" font-family="Verdana" font-size="10.00">parameter/SelectionCriteria</text>
<text text-anchor="middle" x="1022.75" y="-197.5" font-family="Verdana" font-size="10.00">Definition.h</text>
</a>
</g>
</g>
<!-- Node1&#45;&gt;Node2 -->
<g id="edge1" class="edge"><title>Node1&#45;&gt;Node2</title>
<path fill="none" stroke="midnightblue" d="M1080.59,-251.195C1068.45,-241.813 1052.84,-229.751 1040.9,-220.523"/>
<polygon fill="midnightblue" stroke="midnightblue" points="1078.66,-254.13 1088.72,-257.475 1082.94,-248.591 1078.66,-254.13"/>
</g>
<!-- Node11 -->
<g id="node11" class="node"><title>Node11</title>
<g id="a_node11"><a xlink:href="SelectionCriterionRule_8cpp.html" target="_top" xlink:title="parameter/SelectionCriterion\lRule.cpp">
<polygon fill="white" stroke="black" points="1302.25,-56.5 1302.25,-86.5 1457.25,-86.5 1457.25,-56.5 1302.25,-56.5"/>
<text text-anchor="start" x="1310.25" y="-74.5" font-family="Verdana" font-size="10.00">parameter/SelectionCriterion</text>
<text text-anchor="middle" x="1379.75" y="-63.5" font-family="Verdana" font-size="10.00">Rule.cpp</text>
</a>
</g>
</g>
<!-- Node1&#45;&gt;Node11 -->
<g id="edge30" class="edge"><title>Node1&#45;&gt;Node11</title>
<path fill="none" stroke="midnightblue" d="M1125.64,-252.59C1162.8,-232.898 1232.84,-194.127 1287.75,-154 1317.04,-132.596 1348,-103.679 1365.49,-86.6666"/>
<polygon fill="midnightblue" stroke="midnightblue" points="1123.72,-249.645 1116.5,-257.399 1126.98,-255.84 1123.72,-249.645"/>
</g>
<!-- Node13 -->
<g id="node13" class="node"><title>Node13</title>
<g id="a_node13"><a xlink:href="SelectionCriteriaDefinition_8cpp.html" target="_top" xlink:title="parameter/SelectionCriteria\lDefinition.cpp">
<polygon fill="white" stroke="black" points="1130.25,-123.5 1130.25,-153.5 1279.25,-153.5 1279.25,-123.5 1130.25,-123.5"/>
<text text-anchor="start" x="1138.25" y="-141.5" font-family="Verdana" font-size="10.00">parameter/SelectionCriteria</text>
<text text-anchor="middle" x="1204.75" y="-130.5" font-family="Verdana" font-size="10.00">Definition.cpp</text>
</a>
</g>
</g>
<!-- Node1&#45;&gt;Node13 -->
<g id="edge28" class="edge"><title>Node1&#45;&gt;Node13</title>
<path fill="none" stroke="midnightblue" d="M1113.48,-249.459C1134.22,-224.477 1173.18,-177.534 1192.81,-153.888"/>
<polygon fill="midnightblue" stroke="midnightblue" points="1110.66,-247.375 1106.97,-257.305 1116.05,-251.846 1110.66,-247.375"/>
</g>
<!-- Node14 -->
<g id="node14" class="node"><title>Node14</title>
<g id="a_node14"><a xlink:href="ParameterMgr_8h.html" target="_top" xlink:title="parameter/ParameterMgr.h">
<polygon fill="white" stroke="black" points="206.249,-196 206.249,-215 353.249,-215 353.249,-196 206.249,-196"/>
<text text-anchor="middle" x="279.749" y="-203" font-family="Verdana" font-size="10.00">parameter/ParameterMgr.h</text>
</a>
</g>
</g>
<!-- Node1&#45;&gt;Node14 -->
<g id="edge20" class="edge"><title>Node1&#45;&gt;Node14</title>
<path fill="none" stroke="midnightblue" d="M1007.67,-259.319C843.512,-247.407 503.473,-222.734 353.522,-211.853"/>
<polygon fill="midnightblue" stroke="midnightblue" points="1007.52,-262.817 1017.75,-260.05 1008.03,-255.835 1007.52,-262.817"/>
</g>
<!-- Node18 -->
<g id="node18" class="node"><title>Node18</title>
<g id="a_node18"><a xlink:href="SelectionCriteria_8h.html" target="_top" xlink:title="parameter/SelectionCriteria.h">
<polygon fill="white" stroke="black" points="616.749,-196 616.749,-215 774.749,-215 774.749,-196 616.749,-196"/>
<text text-anchor="middle" x="695.749" y="-203" font-family="Verdana" font-size="10.00">parameter/SelectionCriteria.h</text>
</a>
</g>
</g>
<!-- Node1&#45;&gt;Node18 -->
<g id="edge25" class="edge"><title>Node1&#45;&gt;Node18</title>
<path fill="none" stroke="midnightblue" d="M1031.65,-255.971C953.589,-244.474 826.974,-225.826 753.525,-215.009"/>
<polygon fill="midnightblue" stroke="midnightblue" points="1031.46,-259.481 1041.87,-257.475 1032.48,-252.555 1031.46,-259.481"/>
</g>
<!-- Node19 -->
<g id="node19" class="node"><title>Node19</title>
<g id="a_node19"><a xlink:href="SelectionCriterion_8cpp.html" target="_top" xlink:title="parameter/SelectionCriterion.cpp">
<polygon fill="white" stroke="black" points="1334.75,-196 1334.75,-215 1510.75,-215 1510.75,-196 1334.75,-196"/>
<text text-anchor="middle" x="1422.75" y="-203" font-family="Verdana" font-size="10.00">parameter/SelectionCriterion.cpp</text>
</a>
</g>
</g>
<!-- Node1&#45;&gt;Node19 -->
<g id="edge29" class="edge"><title>Node1&#45;&gt;Node19</title>
<path fill="none" stroke="midnightblue" d="M1156.11,-255.617C1218.67,-244.094 1318.43,-225.716 1376.56,-215.009"/>
<polygon fill="midnightblue" stroke="midnightblue" points="1155.23,-252.221 1146.03,-257.475 1156.5,-259.105 1155.23,-252.221"/>
</g>
<!-- Node3 -->
<g id="node3" class="node"><title>Node3</title>
<g id="a_node3"><a xlink:href="XmlDomainImportContext_8h.html" target="_top" xlink:title="parameter/XmlDomainImport\lContext.h">
<polygon fill="white" stroke="black" points="916.749,-123.5 916.749,-153.5 1074.75,-153.5 1074.75,-123.5 916.749,-123.5"/>
<text text-anchor="start" x="924.749" y="-141.5" font-family="Verdana" font-size="10.00">parameter/XmlDomainImport</text>
<text text-anchor="middle" x="995.749" y="-130.5" font-family="Verdana" font-size="10.00">Context.h</text>
</a>
</g>
</g>
<!-- Node2&#45;&gt;Node3 -->
<g id="edge2" class="edge"><title>Node2&#45;&gt;Node3</title>
<path fill="none" stroke="midnightblue" d="M1012.98,-180.991C1009.17,-171.804 1004.92,-161.578 1001.6,-153.577"/>
<polygon fill="midnightblue" stroke="midnightblue" points="1009.82,-182.504 1016.89,-190.396 1016.29,-179.818 1009.82,-182.504"/>
</g>
<!-- Node8 -->
<g id="node8" class="node"><title>Node8</title>
<g id="a_node8"><a xlink:href="ParameterMgr_8cpp.html" target="_top" xlink:title="parameter/ParameterMgr.cpp">
<polygon fill="white" stroke="black" points="462.749,-0.5 462.749,-19.5 620.749,-19.5 620.749,-0.5 462.749,-0.5"/>
<text text-anchor="middle" x="541.749" y="-7.5" font-family="Verdana" font-size="10.00">parameter/ParameterMgr.cpp</text>
</a>
</g>
</g>
<!-- Node2&#45;&gt;Node8 -->
<g id="edge16" class="edge"><title>Node2&#45;&gt;Node8</title>
<path fill="none" stroke="midnightblue" d="M978.207,-186.581C877.681,-146.141 636.272,-49.0251 563.117,-19.5961"/>
<polygon fill="midnightblue" stroke="midnightblue" points="977.186,-189.943 987.77,-190.428 979.798,-183.449 977.186,-189.943"/>
</g>
<!-- Node2&#45;&gt;Node11 -->
<g id="edge19" class="edge"><title>Node2&#45;&gt;Node11</title>
<path fill="none" stroke="midnightblue" d="M1047.84,-183.787C1058.87,-174.667 1071.96,-163.816 1083.75,-154 1100.23,-140.271 1101.39,-132.234 1120.75,-123 1137.08,-115.211 1231.91,-97.8 1302.12,-85.6112"/>
<polygon fill="midnightblue" stroke="midnightblue" points="1045.34,-181.309 1039.86,-190.378 1049.8,-186.705 1045.34,-181.309"/>
</g>
<!-- Node12 -->
<g id="node12" class="node"><title>Node12</title>
<g id="a_node12"><a xlink:href="SelectionCriteria_8cpp.html" target="_top" xlink:title="parameter/SelectionCriteria.cpp">
<polygon fill="white" stroke="black" points="610.749,-129 610.749,-148 780.749,-148 780.749,-129 610.749,-129"/>
<text text-anchor="middle" x="695.749" y="-136" font-family="Verdana" font-size="10.00">parameter/SelectionCriteria.cpp</text>
</a>
</g>
</g>
<!-- Node2&#45;&gt;Node12 -->
<g id="edge17" class="edge"><title>Node2&#45;&gt;Node12</title>
<path fill="none" stroke="midnightblue" d="M942.084,-188.466C877.764,-175.68 790.201,-158.275 738.655,-148.029"/>
<polygon fill="midnightblue" stroke="midnightblue" points="941.707,-191.959 952.198,-190.476 943.072,-185.093 941.707,-191.959"/>
</g>
<!-- Node2&#45;&gt;Node13 -->
<g id="edge18" class="edge"><title>Node2&#45;&gt;Node13</title>
<path fill="none" stroke="midnightblue" d="M1071.87,-186.955C1101.19,-176.485 1137.93,-163.366 1165.34,-153.577"/>
<polygon fill="midnightblue" stroke="midnightblue" points="1070.48,-183.736 1062.24,-190.396 1072.84,-190.329 1070.48,-183.736"/>
</g>
<!-- Node4 -->
<g id="node4" class="node"><title>Node4</title>
<g id="a_node4"><a xlink:href="ConfigurableDomain_8h.html" target="_top" xlink:title="parameter/ConfigurableDomain.h">
<polygon fill="white" stroke="black" points="831.249,-62 831.249,-81 1008.25,-81 1008.25,-62 831.249,-62"/>
<text text-anchor="middle" x="919.749" y="-69" font-family="Verdana" font-size="10.00">parameter/ConfigurableDomain.h</text>
</a>
</g>
</g>
<!-- Node3&#45;&gt;Node4 -->
<g id="edge3" class="edge"><title>Node3&#45;&gt;Node4</title>
<path fill="none" stroke="midnightblue" d="M971.397,-116.672C957.364,-104.671 940.469,-90.2203 929.915,-81.1945"/>
<polygon fill="midnightblue" stroke="midnightblue" points="969.384,-119.556 979.259,-123.396 973.934,-114.236 969.384,-119.556"/>
</g>
<!-- Node5 -->
<g id="node5" class="node"><title>Node5</title>
<g id="a_node5"><a xlink:href="ConfigurableDomain_8cpp.html" target="_top" xlink:title="parameter/ConfigurableDomain.cpp">
<polygon fill="white" stroke="black" points="1060.75,-0.5 1060.75,-19.5 1248.75,-19.5 1248.75,-0.5 1060.75,-0.5"/>
<text text-anchor="middle" x="1154.75" y="-7.5" font-family="Verdana" font-size="10.00">parameter/ConfigurableDomain.cpp</text>
</a>
</g>
</g>
<!-- Node3&#45;&gt;Node5 -->
<g id="edge12" class="edge"><title>Node3&#45;&gt;Node5</title>
<path fill="none" stroke="midnightblue" d="M1008.12,-114.199C1018.57,-96.339 1034.98,-72.1024 1054.75,-56 1075.86,-38.8071 1104.59,-26.7807 1125.84,-19.5135"/>
<polygon fill="midnightblue" stroke="midnightblue" points="1004.81,-112.943 1002.94,-123.372 1010.91,-116.384 1004.81,-112.943"/>
</g>
<!-- Node3&#45;&gt;Node8 -->
<g id="edge14" class="edge"><title>Node3&#45;&gt;Node8</title>
<path fill="none" stroke="midnightblue" d="M916.955,-120.927C886.326,-112.885 851.518,-101.718 821.749,-87 800.952,-76.7177 801.015,-65.2768 779.749,-56 748.866,-42.5275 663.388,-28.2888 603.766,-19.5224"/>
<polygon fill="midnightblue" stroke="midnightblue" points="916.185,-124.343 926.74,-123.429 917.919,-117.561 916.185,-124.343"/>
</g>
<!-- Node9 -->
<g id="node9" class="node"><title>Node9</title>
<g id="a_node9"><a xlink:href="DomainConfiguration_8h.html" target="_top" xlink:title="parameter/DomainConfiguration.h">
<polygon fill="white" stroke="black" points="1064.25,-62 1064.25,-81 1245.25,-81 1245.25,-62 1064.25,-62"/>
<text text-anchor="middle" x="1154.75" y="-69" font-family="Verdana" font-size="10.00">parameter/DomainConfiguration.h</text>
</a>
</g>
</g>
<!-- Node3&#45;&gt;Node9 -->
<g id="edge8" class="edge"><title>Node3&#45;&gt;Node9</title>
<path fill="none" stroke="midnightblue" d="M1039.88,-119.458C1070.6,-106.9 1110.17,-90.724 1133.94,-81.007"/>
<polygon fill="midnightblue" stroke="midnightblue" points="1038.18,-116.372 1030.25,-123.396 1040.83,-122.852 1038.18,-116.372"/>
</g>
<!-- Node10 -->
<g id="node10" class="node"><title>Node10</title>
<g id="a_node10"><a xlink:href="DomainConfiguration_8cpp.html" target="_top" xlink:title="parameter/DomainConfiguration.cpp">
<polygon fill="white" stroke="black" points="1266.75,-0.5 1266.75,-19.5 1458.75,-19.5 1458.75,-0.5 1266.75,-0.5"/>
<text text-anchor="middle" x="1362.75" y="-7.5" font-family="Verdana" font-size="10.00">parameter/DomainConfiguration.cpp</text>
</a>
</g>
</g>
<!-- Node3&#45;&gt;Node10 -->
<g id="edge13" class="edge"><title>Node3&#45;&gt;Node10</title>
<path fill="none" stroke="midnightblue" d="M1082.18,-121.593C1154.02,-108.21 1245.77,-90.6823 1253.75,-87 1273.85,-77.7203 1274.75,-68.8918 1292.75,-56 1311.54,-42.5413 1334.19,-28.3278 1348.53,-19.5604"/>
<polygon fill="midnightblue" stroke="midnightblue" points="1081.37,-118.182 1072.18,-123.452 1082.65,-125.064 1081.37,-118.182"/>
</g>
<!-- Node3&#45;&gt;Node11 -->
<g id="edge15" class="edge"><title>Node3&#45;&gt;Node11</title>
<path fill="none" stroke="midnightblue" d="M1084.79,-122.428C1150.54,-111.298 1239.17,-96.2957 1302.07,-85.6496"/>
<polygon fill="midnightblue" stroke="midnightblue" points="1084.12,-118.991 1074.85,-124.111 1085.29,-125.893 1084.12,-118.991"/>
</g>
<!-- Node4&#45;&gt;Node5 -->
<g id="edge4" class="edge"><title>Node4&#45;&gt;Node5</title>
<path fill="none" stroke="midnightblue" d="M963.319,-59.4685C1008.95,-47.9147 1079.64,-30.0173 1121.14,-19.5091"/>
<polygon fill="midnightblue" stroke="midnightblue" points="962.254,-56.1276 953.419,-61.9751 963.972,-62.9135 962.254,-56.1276"/>
</g>
<!-- Node6 -->
<g id="node6" class="node"><title>Node6</title>
<g id="a_node6"><a xlink:href="ConfigurableDomains_8cpp.html" target="_top" xlink:title="parameter/ConfigurableDomains.cpp">
<polygon fill="white" stroke="black" points="638.749,-0.5 638.749,-19.5 832.749,-19.5 832.749,-0.5 638.749,-0.5"/>
<text text-anchor="middle" x="735.749" y="-7.5" font-family="Verdana" font-size="10.00">parameter/ConfigurableDomains.cpp</text>
</a>
</g>
</g>
<!-- Node4&#45;&gt;Node6 -->
<g id="edge5" class="edge"><title>Node4&#45;&gt;Node6</title>
<path fill="none" stroke="midnightblue" d="M883.817,-58.8806C848.052,-47.3152 794.013,-29.8407 762.063,-19.5091"/>
<polygon fill="midnightblue" stroke="midnightblue" points="882.795,-62.2284 893.387,-61.9751 884.949,-55.568 882.795,-62.2284"/>
</g>
<!-- Node7 -->
<g id="node7" class="node"><title>Node7</title>
<g id="a_node7"><a xlink:href="ConfigurableElement_8cpp.html" target="_top" xlink:title="parameter/ConfigurableElement.cpp">
<polygon fill="white" stroke="black" points="851.249,-0.5 851.249,-19.5 1042.25,-19.5 1042.25,-0.5 851.249,-0.5"/>
<text text-anchor="middle" x="946.749" y="-7.5" font-family="Verdana" font-size="10.00">parameter/ConfigurableElement.cpp</text>
</a>
</g>
</g>
<!-- Node4&#45;&gt;Node7 -->
<g id="edge6" class="edge"><title>Node4&#45;&gt;Node7</title>
<path fill="none" stroke="midnightblue" d="M927.766,-52.8346C932.76,-41.8281 938.961,-28.1629 942.888,-19.5091"/>
<polygon fill="midnightblue" stroke="midnightblue" points="924.563,-51.4225 923.618,-61.9751 930.937,-54.3151 924.563,-51.4225"/>
</g>
<!-- Node4&#45;&gt;Node8 -->
<g id="edge7" class="edge"><title>Node4&#45;&gt;Node8</title>
<path fill="none" stroke="midnightblue" d="M855.589,-60.4006C782.512,-48.8978 664.389,-30.3043 595.807,-19.5091"/>
<polygon fill="midnightblue" stroke="midnightblue" points="855.169,-63.8775 865.591,-61.9751 856.257,-56.9627 855.169,-63.8775"/>
</g>
<!-- Node9&#45;&gt;Node5 -->
<g id="edge9" class="edge"><title>Node9&#45;&gt;Node5</title>
<path fill="none" stroke="midnightblue" d="M1154.75,-51.8165C1154.75,-40.9962 1154.75,-27.898 1154.75,-19.5091"/>
<polygon fill="midnightblue" stroke="midnightblue" points="1151.25,-51.9751 1154.75,-61.9751 1158.25,-51.9751 1151.25,-51.9751"/>
</g>
<!-- Node9&#45;&gt;Node8 -->
<g id="edge11" class="edge"><title>Node9&#45;&gt;Node8</title>
<path fill="none" stroke="midnightblue" d="M1065.26,-60.9395C1049.11,-59.2598 1032.43,-57.5534 1016.75,-56 844.848,-38.9741 801.674,-36.7878 629.749,-20 626.845,-19.7164 623.888,-19.4254 620.9,-19.1295"/>
<polygon fill="midnightblue" stroke="midnightblue" points="1064.91,-64.4228 1075.22,-61.9804 1065.64,-57.4607 1064.91,-64.4228"/>
</g>
<!-- Node9&#45;&gt;Node10 -->
<g id="edge10" class="edge"><title>Node9&#45;&gt;Node10</title>
<path fill="none" stroke="midnightblue" d="M1194.34,-59.1759C1234.75,-47.6144 1296.58,-29.929 1333,-19.5091"/>
<polygon fill="midnightblue" stroke="midnightblue" points="1193.2,-55.8597 1184.55,-61.9751 1195.13,-62.5898 1193.2,-55.8597"/>
</g>
<!-- Node14&#45;&gt;Node8 -->
<g id="edge22" class="edge"><title>Node14&#45;&gt;Node8</title>
<path fill="none" stroke="midnightblue" d="M195.78,-204.938C98.8046,-202.497 -41.0516,-188.125 11.7494,-123 67.6091,-54.1024 328.888,-25.93 462.548,-15.8731"/>
<polygon fill="midnightblue" stroke="midnightblue" points="195.832,-208.44 205.905,-205.154 195.982,-201.441 195.832,-208.44"/>
</g>
<!-- Node15 -->
<g id="node15" class="node"><title>Node15</title>
<g id="a_node15"><a xlink:href="ElementHandle_8cpp.html" target="_top" xlink:title="parameter/ElementHandle.cpp">
<polygon fill="white" stroke="black" points="20.7494,-129 20.7494,-148 184.749,-148 184.749,-129 20.7494,-129"/>
<text text-anchor="middle" x="102.749" y="-136" font-family="Verdana" font-size="10.00">parameter/ElementHandle.cpp</text>
</a>
</g>
</g>
<!-- Node14&#45;&gt;Node15 -->
<g id="edge21" class="edge"><title>Node14&#45;&gt;Node15</title>
<path fill="none" stroke="midnightblue" d="M246.448,-192.271C211.318,-179.37 156.872,-159.376 126.069,-148.064"/>
<polygon fill="midnightblue" stroke="midnightblue" points="245.652,-195.707 256.245,-195.869 248.065,-189.136 245.652,-195.707"/>
</g>
<!-- Node16 -->
<g id="node16" class="node"><title>Node16</title>
<g id="a_node16"><a xlink:href="ParameterMgrFullConnector_8cpp.html" target="_top" xlink:title="parameter/ParameterMgrFull\lConnector.cpp">
<polygon fill="white" stroke="black" points="202.749,-123.5 202.749,-153.5 356.749,-153.5 356.749,-123.5 202.749,-123.5"/>
<text text-anchor="start" x="210.749" y="-141.5" font-family="Verdana" font-size="10.00">parameter/ParameterMgrFull</text>
<text text-anchor="middle" x="279.749" y="-130.5" font-family="Verdana" font-size="10.00">Connector.cpp</text>
</a>
</g>
</g>
<!-- Node14&#45;&gt;Node16 -->
<g id="edge23" class="edge"><title>Node14&#45;&gt;Node16</title>
<path fill="none" stroke="midnightblue" d="M279.749,-185.411C279.749,-175.222 279.749,-162.901 279.749,-153.589"/>
<polygon fill="midnightblue" stroke="midnightblue" points="276.25,-185.734 279.749,-195.734 283.25,-185.734 276.25,-185.734"/>
</g>
<!-- Node17 -->
<g id="node17" class="node"><title>Node17</title>
<g id="a_node17"><a xlink:href="ParameterMgrPlatformConnector_8cpp.html" target="_top" xlink:title="parameter/ParameterMgrPlatform\lConnector.cpp">
<polygon fill="white" stroke="black" points="375.249,-123.5 375.249,-153.5 554.249,-153.5 554.249,-123.5 375.249,-123.5"/>
<text text-anchor="start" x="383.249" y="-141.5" font-family="Verdana" font-size="10.00">parameter/ParameterMgrPlatform</text>
<text text-anchor="middle" x="464.749" y="-130.5" font-family="Verdana" font-size="10.00">Connector.cpp</text>
</a>
</g>
</g>
<!-- Node14&#45;&gt;Node17 -->
<g id="edge24" class="edge"><title>Node14&#45;&gt;Node17</title>
<path fill="none" stroke="midnightblue" d="M313.932,-192.49C345.296,-181.47 391.766,-165.143 424.823,-153.528"/>
<polygon fill="midnightblue" stroke="midnightblue" points="312.59,-189.251 304.316,-195.869 314.911,-195.856 312.59,-189.251"/>
</g>
<!-- Node18&#45;&gt;Node8 -->
<g id="edge26" class="edge"><title>Node18&#45;&gt;Node8</title>
<path fill="none" stroke="midnightblue" d="M660.071,-192.143C640.686,-183.9 617.522,-171.36 601.749,-154 564.091,-112.553 548.018,-44.055 543.315,-19.8254"/>
<polygon fill="midnightblue" stroke="midnightblue" points="658.937,-195.459 669.52,-195.955 661.556,-188.967 658.937,-195.459"/>
</g>
<!-- Node18&#45;&gt;Node12 -->
<g id="edge27" class="edge"><title>Node18&#45;&gt;Node12</title>
<path fill="none" stroke="midnightblue" d="M695.749,-185.537C695.749,-173.17 695.749,-157.62 695.749,-148.127"/>
<polygon fill="midnightblue" stroke="midnightblue" points="692.25,-185.734 695.749,-195.734 699.25,-185.734 692.25,-185.734"/>
</g>
</g>
</svg>
