<?xml version="1.0" encoding="UTF-8" standalone="no"?>
<!DOCTYPE svg PUBLIC "-//W3C//DTD SVG 1.1//EN"
 "http://www.w3.org/Graphics/SVG/1.1/DTD/svg11.dtd">
<!-- Generated by graphviz version 2.36.0 (20140111.2315)
 -->
<!-- Title: parameter/SelectionCriterion.h Pages: 1 -->
<svg width="1379pt" height="288pt"
 viewBox="0.00 0.00 1379.00 288.00" xmlns="http://www.w3.org/2000/svg" xmlns:xlink="http://www.w3.org/1999/xlink">
<g id="graph0" class="graph" transform="scale(1 1) rotate(0) translate(4 284)">
<title>parameter/SelectionCriterion.h</title>
<polygon fill="white" stroke="none" points="-4,4 -4,-284 1375,-284 1375,4 -4,4"/>
<!-- Node1 -->
<g id="node1" class="node"><title>Node1</title>
<polygon fill="#bfbfbf" stroke="black" points="878,-260.5 878,-279.5 1042,-279.5 1042,-260.5 878,-260.5"/>
<text text-anchor="middle" x="960" y="-267.5" font-family="Verdana" font-size="10.00">parameter/SelectionCriterion.h</text>
</g>
<!-- Node2 -->
<g id="node2" class="node"><title>Node2</title>
<g id="a_node2"><a xlink:href="SelectionCriteriaDefinition_8h.html" target="_top" xlink:title="parameter/SelectionCriteria\lDefinition.h">
<polygon fill="white" stroke="black" points="808.5,-193 808.5,-223 957.5,-223 957.5,-193 808.5,-193"/>
<text text-anchor="start" x="816.5" y="-211" font-family="Verdana" font-size="10.00">parameter/SelectionCriteria</text>
<text text-anchor="middle" x="883" y="-200" font-family="Verdana" font-size="10.00">Definition.h</text>
</a>
</g>
</g>
<!-- Node1&#45;&gt;Node2 -->
<g id="edge1" class="edge"><title>Node1&#45;&gt;Node2</title>
<path fill="none" stroke="midnightblue" d="M940.841,-254.071C928.699,-244.61 913.09,-232.447 901.147,-223.141"/>
<polygon fill="midnightblue" stroke="midnightblue" points="938.928,-257.018 948.968,-260.403 943.231,-251.496 938.928,-257.018"/>
</g>
<!-- Node10 -->
<g id="node10" class="node"><title>Node10</title>
<g id="a_node10"><a xlink:href="SelectionCriterionRule_8cpp.html" target="_top" xlink:title="parameter/SelectionCriterion\lRule.cpp">
<polygon fill="white" stroke="black" points="1089.5,-57 1089.5,-87 1244.5,-87 1244.5,-57 1089.5,-57"/>
<text text-anchor="start" x="1097.5" y="-75" font-family="Verdana" font-size="10.00">parameter/SelectionCriterion</text>
<text text-anchor="middle" x="1167" y="-64" font-family="Verdana" font-size="10.00">Rule.cpp</text>
</a>
</g>
</g>
<!-- Node1&#45;&gt;Node10 -->
<g id="edge29" class="edge"><title>Node1&#45;&gt;Node10</title>
<path fill="none" stroke="midnightblue" d="M996.7,-256.992C1039.75,-240.959 1110.05,-208.343 1148,-156 1162.92,-135.415 1166.37,-105.024 1167.03,-87.2955"/>
<polygon fill="midnightblue" stroke="midnightblue" points="995.379,-253.748 987.164,-260.438 997.759,-260.331 995.379,-253.748"/>
</g>
<!-- Node12 -->
<g id="node12" class="node"><title>Node12</title>
<g id="a_node12"><a xlink:href="SelectionCriteriaDefinition_8cpp.html" target="_top" xlink:title="parameter/SelectionCriteria\lDefinition.cpp">
<polygon fill="white" stroke="black" points="990.5,-125 990.5,-155 1139.5,-155 1139.5,-125 990.5,-125"/>
<text text-anchor="start" x="998.5" y="-143" font-family="Verdana" font-size="10.00">parameter/SelectionCriteria</text>
<text text-anchor="middle" x="1065" y="-132" font-family="Verdana" font-size="10.00">Definition.cpp</text>
</a>
</g>
</g>
<!-- Node1&#45;&gt;Node12 -->
<g id="edge27" class="edge"><title>Node1&#45;&gt;Node12</title>
<path fill="none" stroke="midnightblue" d="M973.768,-252.216C994.635,-226.779 1033.9,-178.917 1053.4,-155.143"/>
<polygon fill="midnightblue" stroke="midnightblue" points="970.853,-250.251 967.217,-260.202 976.265,-254.69 970.853,-250.251"/>
</g>
<!-- Node13 -->
<g id="node13" class="node"><title>Node13</title>
<g id="a_node13"><a xlink:href="ParameterMgr_8h.html" target="_top" xlink:title="parameter/ParameterMgr.h">
<polygon fill="white" stroke="black" points="306.5,-198.5 306.5,-217.5 453.5,-217.5 453.5,-198.5 306.5,-198.5"/>
<text text-anchor="middle" x="380" y="-205.5" font-family="Verdana" font-size="10.00">parameter/ParameterMgr.h</text>
</a>
</g>
</g>
<!-- Node1&#45;&gt;Node13 -->
<g id="edge16" class="edge"><title>Node1&#45;&gt;Node13</title>
<path fill="none" stroke="midnightblue" d="M867.642,-259.446C752.76,-247.561 558.941,-227.511 453.57,-216.611"/>
<polygon fill="midnightblue" stroke="midnightblue" points="867.516,-262.951 877.823,-260.499 868.237,-255.988 867.516,-262.951"/>
</g>
<!-- Node18 -->
<g id="node18" class="node"><title>Node18</title>
<g id="a_node18"><a xlink:href="SelectionCriteria_8h.html" target="_top" xlink:title="parameter/SelectionCriteria.h">
<polygon fill="white" stroke="black" points="557,-198.5 557,-217.5 715,-217.5 715,-198.5 557,-198.5"/>
<text text-anchor="middle" x="636" y="-205.5" font-family="Verdana" font-size="10.00">parameter/SelectionCriteria.h</text>
</a>
</g>
</g>
<!-- Node1&#45;&gt;Node18 -->
<g id="edge24" class="edge"><title>Node1&#45;&gt;Node18</title>
<path fill="none" stroke="midnightblue" d="M903.787,-258.59C840.913,-246.947 740.261,-228.308 681.918,-217.503"/>
<polygon fill="midnightblue" stroke="midnightblue" points="903.453,-262.088 913.923,-260.467 904.727,-255.205 903.453,-262.088"/>
</g>
<!-- Node19 -->
<g id="node19" class="node"><title>Node19</title>
<g id="a_node19"><a xlink:href="SelectionCriterion_8cpp.html" target="_top" xlink:title="parameter/SelectionCriterion.cpp">
<polygon fill="white" stroke="black" points="1195,-198.5 1195,-217.5 1371,-217.5 1371,-198.5 1195,-198.5"/>
<text text-anchor="middle" x="1283" y="-205.5" font-family="Verdana" font-size="10.00">parameter/SelectionCriterion.cpp</text>
</a>
</g>
</g>
<!-- Node1&#45;&gt;Node19 -->
<g id="edge28" class="edge"><title>Node1&#45;&gt;Node19</title>
<path fill="none" stroke="midnightblue" d="M1016.04,-258.59C1078.72,-246.947 1179.06,-228.308 1237.22,-217.503"/>
<polygon fill="midnightblue" stroke="midnightblue" points="1015.13,-255.2 1005.93,-260.467 1016.41,-262.082 1015.13,-255.2"/>
</g>
<!-- Node3 -->
<g id="node3" class="node"><title>Node3</title>
<g id="a_node3"><a xlink:href="XmlDomainImportContext_8h.html" target="_top" xlink:title="parameter/XmlDomainImport\lContext.h">
<polygon fill="white" stroke="black" points="777,-125 777,-155 935,-155 935,-125 777,-125"/>
<text text-anchor="start" x="785" y="-143" font-family="Verdana" font-size="10.00">parameter/XmlDomainImport</text>
<text text-anchor="middle" x="856" y="-132" font-family="Verdana" font-size="10.00">Context.h</text>
</a>
</g>
</g>
<!-- Node2&#45;&gt;Node3 -->
<g id="edge2" class="edge"><title>Node2&#45;&gt;Node3</title>
<path fill="none" stroke="midnightblue" d="M873.235,-183.129C869.419,-173.801 865.171,-163.418 861.847,-155.293"/>
<polygon fill="midnightblue" stroke="midnightblue" points="870.116,-184.749 877.141,-192.679 876.594,-182.098 870.116,-184.749"/>
</g>
<!-- Node8 -->
<g id="node8" class="node"><title>Node8</title>
<g id="a_node8"><a xlink:href="ParameterMgr_8cpp.html" target="_top" xlink:title="parameter/ParameterMgr.cpp">
<polygon fill="white" stroke="black" points="462,-0.5 462,-19.5 620,-19.5 620,-0.5 462,-0.5"/>
<text text-anchor="middle" x="541" y="-7.5" font-family="Verdana" font-size="10.00">parameter/ParameterMgr.cpp</text>
</a>
</g>
</g>
<!-- Node2&#45;&gt;Node8 -->
<g id="edge12" class="edge"><title>Node2&#45;&gt;Node8</title>
<path fill="none" stroke="midnightblue" d="M834.634,-189.121C813.479,-180.409 788.798,-169 768,-156 749.277,-144.297 749.591,-134.183 730,-124 674.52,-95.1637 645.129,-123.991 594,-88 568.521,-70.0641 551.448,-35.7196 544.504,-19.6683"/>
<polygon fill="midnightblue" stroke="midnightblue" points="833.496,-192.436 844.079,-192.93 836.114,-185.944 833.496,-192.436"/>
</g>
<!-- Node2&#45;&gt;Node10 -->
<g id="edge15" class="edge"><title>Node2&#45;&gt;Node10</title>
<path fill="none" stroke="midnightblue" d="M907.178,-186.469C936.024,-161.981 980.468,-124.281 981,-124 1014.47,-106.355 1054.63,-94.3502 1089.06,-86.4446"/>
<polygon fill="midnightblue" stroke="midnightblue" points="904.863,-183.843 899.505,-192.983 909.393,-189.179 904.863,-183.843"/>
</g>
<!-- Node11 -->
<g id="node11" class="node"><title>Node11</title>
<g id="a_node11"><a xlink:href="SelectionCriteria_8cpp.html" target="_top" xlink:title="parameter/SelectionCriteria.cpp">
<polygon fill="white" stroke="black" points="551,-130.5 551,-149.5 721,-149.5 721,-130.5 551,-130.5"/>
<text text-anchor="middle" x="636" y="-137.5" font-family="Verdana" font-size="10.00">parameter/SelectionCriteria.cpp</text>
</a>
</g>
</g>
<!-- Node2&#45;&gt;Node11 -->
<g id="edge13" class="edge"><title>Node2&#45;&gt;Node11</title>
<path fill="none" stroke="midnightblue" d="M820.513,-190.303C771.851,-177.3 706.311,-159.788 667.862,-149.514"/>
<polygon fill="midnightblue" stroke="midnightblue" points="819.751,-193.722 830.315,-192.922 821.558,-186.959 819.751,-193.722"/>
</g>
<!-- Node2&#45;&gt;Node12 -->
<g id="edge14" class="edge"><title>Node2&#45;&gt;Node12</title>
<path fill="none" stroke="midnightblue" d="M931.776,-189.312C961.418,-178.563 998.739,-165.029 1026.33,-155.022"/>
<polygon fill="midnightblue" stroke="midnightblue" points="930.251,-186.142 922.044,-192.841 932.638,-192.722 930.251,-186.142"/>
</g>
<!-- Node4 -->
<g id="node4" class="node"><title>Node4</title>
<g id="a_node4"><a xlink:href="ConfigurableDomain_8h.html" target="_top" xlink:title="parameter/ConfigurableDomain.h">
<polygon fill="white" stroke="black" points="856.5,-62.5 856.5,-81.5 1033.5,-81.5 1033.5,-62.5 856.5,-62.5"/>
<text text-anchor="middle" x="945" y="-69.5" font-family="Verdana" font-size="10.00">parameter/ConfigurableDomain.h</text>
</a>
</g>
</g>
<!-- Node3&#45;&gt;Node4 -->
<g id="edge3" class="edge"><title>Node3&#45;&gt;Node4</title>
<path fill="none" stroke="midnightblue" d="M883.651,-118.495C900.363,-106.101 920.796,-90.9491 933.352,-81.6379"/>
<polygon fill="midnightblue" stroke="midnightblue" points="881.259,-115.911 875.312,-124.679 885.429,-121.534 881.259,-115.911"/>
</g>
<!-- Node5 -->
<g id="node5" class="node"><title>Node5</title>
<g id="a_node5"><a xlink:href="ConfigurableDomain_8cpp.html" target="_top" xlink:title="parameter/ConfigurableDomain.cpp">
<polygon fill="white" stroke="black" points="1060,-0.5 1060,-19.5 1248,-19.5 1248,-0.5 1060,-0.5"/>
<text text-anchor="middle" x="1154" y="-7.5" font-family="Verdana" font-size="10.00">parameter/ConfigurableDomain.cpp</text>
</a>
</g>
</g>
<!-- Node3&#45;&gt;Node5 -->
<g id="edge8" class="edge"><title>Node3&#45;&gt;Node5</title>
<path fill="none" stroke="midnightblue" d="M928.431,-122.523C971.72,-112.023 1022.06,-98.4748 1042,-88 1061.55,-77.7307 1062.07,-68.8851 1080,-56 1099.29,-42.1359 1122.96,-28.2439 1138.25,-19.6395"/>
<polygon fill="midnightblue" stroke="midnightblue" points="927.367,-119.179 918.461,-124.918 929.002,-125.985 927.367,-119.179"/>
</g>
<!-- Node3&#45;&gt;Node8 -->
<g id="edge10" class="edge"><title>Node3&#45;&gt;Node8</title>
<path fill="none" stroke="midnightblue" d="M769.759,-122.989C719.068,-112.789 660.453,-99.3987 637,-88 627.392,-83.3303 574.203,-38.9599 551.392,-19.7713"/>
<polygon fill="midnightblue" stroke="midnightblue" points="769.288,-126.463 779.779,-124.984 770.656,-119.598 769.288,-126.463"/>
</g>
<!-- Node9 -->
<g id="node9" class="node"><title>Node9</title>
<g id="a_node9"><a xlink:href="DomainConfiguration_8cpp.html" target="_top" xlink:title="parameter/DomainConfiguration.cpp">
<polygon fill="white" stroke="black" points="646,-62.5 646,-81.5 838,-81.5 838,-62.5 646,-62.5"/>
<text text-anchor="middle" x="742" y="-69.5" font-family="Verdana" font-size="10.00">parameter/DomainConfiguration.cpp</text>
</a>
</g>
</g>
<!-- Node3&#45;&gt;Node9 -->
<g id="edge9" class="edge"><title>Node3&#45;&gt;Node9</title>
<path fill="none" stroke="midnightblue" d="M822.62,-119.675C800.892,-107.095 773.601,-91.2951 756.996,-81.6819"/>
<polygon fill="midnightblue" stroke="midnightblue" points="821.136,-122.86 831.544,-124.841 824.644,-116.802 821.136,-122.86"/>
</g>
<!-- Node3&#45;&gt;Node10 -->
<g id="edge11" class="edge"><title>Node3&#45;&gt;Node10</title>
<path fill="none" stroke="midnightblue" d="M932.434,-122.779C984.032,-111.829 1051.45,-97.521 1100.77,-87.0561"/>
<polygon fill="midnightblue" stroke="midnightblue" points="931.391,-119.423 922.336,-124.922 932.845,-126.27 931.391,-119.423"/>
</g>
<!-- Node4&#45;&gt;Node5 -->
<g id="edge4" class="edge"><title>Node4&#45;&gt;Node5</title>
<path fill="none" stroke="midnightblue" d="M984.777,-59.5807C1025.39,-47.9221 1087.51,-30.0881 1124.11,-19.5806"/>
<polygon fill="midnightblue" stroke="midnightblue" points="983.591,-56.2799 974.945,-62.4035 985.522,-63.0082 983.591,-56.2799"/>
</g>
<!-- Node6 -->
<g id="node6" class="node"><title>Node6</title>
<g id="a_node6"><a xlink:href="ConfigurableDomains_8cpp.html" target="_top" xlink:title="parameter/ConfigurableDomains.cpp">
<polygon fill="white" stroke="black" points="848,-0.5 848,-19.5 1042,-19.5 1042,-0.5 848,-0.5"/>
<text text-anchor="middle" x="945" y="-7.5" font-family="Verdana" font-size="10.00">parameter/ConfigurableDomains.cpp</text>
</a>
</g>
</g>
<!-- Node4&#45;&gt;Node6 -->
<g id="edge5" class="edge"><title>Node4&#45;&gt;Node6</title>
<path fill="none" stroke="midnightblue" d="M945,-52.1595C945,-41.2482 945,-28.04 945,-19.5806"/>
<polygon fill="midnightblue" stroke="midnightblue" points="941.5,-52.4034 945,-62.4035 948.5,-52.4035 941.5,-52.4034"/>
</g>
<!-- Node7 -->
<g id="node7" class="node"><title>Node7</title>
<g id="a_node7"><a xlink:href="ConfigurableElement_8cpp.html" target="_top" xlink:title="parameter/ConfigurableElement.cpp">
<polygon fill="white" stroke="black" points="638.5,-0.5 638.5,-19.5 829.5,-19.5 829.5,-0.5 638.5,-0.5"/>
<text text-anchor="middle" x="734" y="-7.5" font-family="Verdana" font-size="10.00">parameter/ConfigurableElement.cpp</text>
</a>
</g>
</g>
<!-- Node4&#45;&gt;Node7 -->
<g id="edge6" class="edge"><title>Node4&#45;&gt;Node7</title>
<path fill="none" stroke="midnightblue" d="M905.102,-59.6547C864.109,-47.9977 801.205,-30.1103 764.175,-19.5806"/>
<polygon fill="midnightblue" stroke="midnightblue" points="904.193,-63.0348 914.769,-62.4035 906.108,-56.3017 904.193,-63.0348"/>
</g>
<!-- Node4&#45;&gt;Node8 -->
<g id="edge7" class="edge"><title>Node4&#45;&gt;Node8</title>
<path fill="none" stroke="midnightblue" d="M879.852,-60.9736C868.887,-59.3018 857.621,-57.5938 847,-56 760.975,-43.0912 661.287,-28.4998 599.677,-19.5246"/>
<polygon fill="midnightblue" stroke="midnightblue" points="879.397,-64.4446 889.81,-62.4945 880.453,-57.5248 879.397,-64.4446"/>
</g>
<!-- Node13&#45;&gt;Node8 -->
<g id="edge18" class="edge"><title>Node13&#45;&gt;Node8</title>
<path fill="none" stroke="midnightblue" d="M398.886,-191.513C410.194,-181.835 424.547,-168.813 436,-156 478.877,-108.033 521.065,-42.833 535.645,-19.6312"/>
<polygon fill="midnightblue" stroke="midnightblue" points="396.331,-189.089 390.93,-198.204 400.836,-194.446 396.331,-189.089"/>
</g>
<!-- Node14 -->
<g id="node14" class="node"><title>Node14</title>
<g id="a_node14"><a xlink:href="ParameterHandle_8cpp.html" target="_top" xlink:title="parameter/ParameterHandle.cpp">
<polygon fill="white" stroke="black" points="-0.5,-130.5 -0.5,-149.5 174.5,-149.5 174.5,-130.5 -0.5,-130.5"/>
<text text-anchor="middle" x="87" y="-137.5" font-family="Verdana" font-size="10.00">parameter/ParameterHandle.cpp</text>
</a>
</g>
</g>
<!-- Node13&#45;&gt;Node14 -->
<g id="edge17" class="edge"><title>Node13&#45;&gt;Node14</title>
<path fill="none" stroke="midnightblue" d="M331.996,-196.187C274.085,-183.142 177.924,-161.481 124.937,-149.546"/>
<polygon fill="midnightblue" stroke="midnightblue" points="331.471,-199.656 341.996,-198.439 333.009,-192.827 331.471,-199.656"/>
</g>
<!-- Node15 -->
<g id="node15" class="node"><title>Node15</title>
<g id="a_node15"><a xlink:href="ParameterMgrFullConnector_8cpp.html" target="_top" xlink:title="parameter/ParameterMgrFull\lConnector.cpp">
<polygon fill="white" stroke="black" points="303,-57 303,-87 457,-87 457,-57 303,-57"/>
<text text-anchor="start" x="311" y="-75" font-family="Verdana" font-size="10.00">parameter/ParameterMgrFull</text>
<text text-anchor="middle" x="380" y="-64" font-family="Verdana" font-size="10.00">Connector.cpp</text>
</a>
</g>
</g>
<!-- Node13&#45;&gt;Node15 -->
<g id="edge19" class="edge"><title>Node13&#45;&gt;Node15</title>
<path fill="none" stroke="midnightblue" d="M397.034,-191.114C405.718,-181.825 415.397,-169.327 420,-156 424.643,-142.557 424.643,-137.443 420,-124 415.151,-109.96 404.668,-96.8397 395.65,-87.4231"/>
<polygon fill="midnightblue" stroke="midnightblue" points="394.372,-188.828 389.812,-198.391 399.34,-193.759 394.372,-188.828"/>
</g>
<!-- Node16 -->
<g id="node16" class="node"><title>Node16</title>
<g id="a_node16"><a xlink:href="ParameterMgrLogger_8h.html" target="_top" xlink:title="parameter/ParameterMgrLogger.h">
<polygon fill="white" stroke="black" points="231,-130.5 231,-149.5 411,-149.5 411,-130.5 231,-130.5"/>
<text text-anchor="middle" x="321" y="-137.5" font-family="Verdana" font-size="10.00">parameter/ParameterMgrLogger.h</text>
</a>
</g>
</g>
<!-- Node13&#45;&gt;Node16 -->
<g id="edge20" class="edge"><title>Node13&#45;&gt;Node16</title>
<path fill="none" stroke="midnightblue" d="M365.411,-190.68C353.876,-177.777 338.215,-160.258 328.903,-149.841"/>
<polygon fill="midnightblue" stroke="midnightblue" points="363.013,-193.249 372.287,-198.372 368.231,-188.584 363.013,-193.249"/>
</g>
<!-- Node17 -->
<g id="node17" class="node"><title>Node17</title>
<g id="a_node17"><a xlink:href="ParameterMgrPlatformConnector_8cpp.html" target="_top" xlink:title="parameter/ParameterMgrPlatform\lConnector.cpp">
<polygon fill="white" stroke="black" points="105.5,-57 105.5,-87 284.5,-87 284.5,-57 105.5,-57"/>
<text text-anchor="start" x="113.5" y="-75" font-family="Verdana" font-size="10.00">parameter/ParameterMgrPlatform</text>
<text text-anchor="middle" x="195" y="-64" font-family="Verdana" font-size="10.00">Connector.cpp</text>
</a>
</g>
</g>
<!-- Node13&#45;&gt;Node17 -->
<g id="edge23" class="edge"><title>Node13&#45;&gt;Node17</title>
<path fill="none" stroke="midnightblue" d="M298.383,-195.989C271.089,-188.642 242.445,-176.398 222,-156 203.228,-137.271 197.504,-105.362 195.761,-87.0446"/>
<polygon fill="midnightblue" stroke="midnightblue" points="297.809,-199.453 308.359,-198.48 299.505,-192.662 297.809,-199.453"/>
</g>
<!-- Node16&#45;&gt;Node15 -->
<g id="edge21" class="edge"><title>Node16&#45;&gt;Node15</title>
<path fill="none" stroke="midnightblue" d="M335.483,-122.799C345.235,-111.89 357.972,-97.6413 367.323,-87.1815"/>
<polygon fill="midnightblue" stroke="midnightblue" points="332.769,-120.584 328.713,-130.372 337.987,-125.249 332.769,-120.584"/>
</g>
<!-- Node16&#45;&gt;Node17 -->
<g id="edge22" class="edge"><title>Node16&#45;&gt;Node17</title>
<path fill="none" stroke="midnightblue" d="M295.425,-125.603C274.101,-114.434 243.804,-98.5642 222.074,-87.1815"/>
<polygon fill="midnightblue" stroke="midnightblue" points="294.045,-128.832 304.528,-130.372 297.293,-122.631 294.045,-128.832"/>
</g>
<!-- Node18&#45;&gt;Node8 -->
<g id="edge25" class="edge"><title>Node18&#45;&gt;Node8</title>
<path fill="none" stroke="midnightblue" d="M593.354,-194.907C574.141,-187.103 553.275,-174.797 542,-156 515.065,-111.096 531.239,-43.4384 538.252,-19.6454"/>
<polygon fill="midnightblue" stroke="midnightblue" points="592.305,-198.252 602.897,-198.487 594.764,-191.698 592.305,-198.252"/>
</g>
<!-- Node18&#45;&gt;Node11 -->
<g id="edge26" class="edge"><title>Node18&#45;&gt;Node11</title>
<path fill="none" stroke="midnightblue" d="M636,-188.041C636,-175.472 636,-159.563 636,-149.841"/>
<polygon fill="midnightblue" stroke="midnightblue" points="632.5,-188.372 636,-198.372 639.5,-188.372 632.5,-188.372"/>
</g>
</g>
</svg>
