<?xml version="1.0" encoding="UTF-8" standalone="no"?>
<!DOCTYPE svg PUBLIC "-//W3C//DTD SVG 1.1//EN"
 "http://www.w3.org/Graphics/SVG/1.1/DTD/svg11.dtd">
<!-- Generated by graphviz version 2.38.0 (20140413.2041)
 -->
<!-- Title: parameter/SelectionCriterionRule.cpp Pages: 1 -->
<svg width="2068pt" height="543pt"
 viewBox="0.00 0.00 2068.00 543.00" xmlns="http://www.w3.org/2000/svg" xmlns:xlink="http://www.w3.org/1999/xlink">
<g id="graph0" class="graph" transform="scale(1 1) rotate(0) translate(4 539)">
<title>parameter/SelectionCriterionRule.cpp</title>
<polygon fill="white" stroke="none" points="-4,4 -4,-539 2064,-539 2064,4 -4,4"/>
<!-- Node1 -->
<g id="node1" class="node"><title>Node1</title>
<polygon fill="#bfbfbf" stroke="black" points="1437.5,-504.5 1437.5,-534.5 1592.5,-534.5 1592.5,-504.5 1437.5,-504.5"/>
<text text-anchor="start" x="1445.5" y="-522.5" font-family="Verdana" font-size="10.00">parameter/SelectionCriterion</text>
<text text-anchor="middle" x="1515" y="-511.5" font-family="Verdana" font-size="10.00">Rule.cpp</text>
</g>
<!-- Node2 -->
<g id="node2" class="node"><title>Node2</title>
<g id="a_node2"><a xlink:href="SelectionCriterionRule_8h.html" target="_top" xlink:title="SelectionCriterionRule.h">
<polygon fill="white" stroke="black" points="1930,-336.5 1930,-355.5 2060,-355.5 2060,-336.5 1930,-336.5"/>
<text text-anchor="middle" x="1995" y="-343.5" font-family="Verdana" font-size="10.00">SelectionCriterionRule.h</text>
</a>
</g>
</g>
<!-- Node1&#45;&gt;Node2 -->
<g id="edge1" class="edge"><title>Node1&#45;&gt;Node2</title>
<path fill="none" stroke="midnightblue" d="M1592.67,-516.379C1693.74,-512.331 1863.65,-500.738 1916,-468 1954.87,-443.693 1978.5,-392.431 1988.84,-365.083"/>
<polygon fill="midnightblue" stroke="midnightblue" points="1992.17,-366.17 1992.26,-355.576 1985.59,-363.801 1992.17,-366.17"/>
</g>
<!-- Node16 -->
<g id="node16" class="node"><title>Node16</title>
<g id="a_node16"><a xlink:href="SelectionCriterion_8h.html" target="_top" xlink:title="SelectionCriterion.h">
<polygon fill="white" stroke="black" points="442,-336.5 442,-355.5 552,-355.5 552,-336.5 442,-336.5"/>
<text text-anchor="middle" x="497" y="-343.5" font-family="Verdana" font-size="10.00">SelectionCriterion.h</text>
</a>
</g>
</g>
<!-- Node1&#45;&gt;Node16 -->
<g id="edge26" class="edge"><title>Node1&#45;&gt;Node16</title>
<path fill="none" stroke="midnightblue" d="M1437.23,-505.398C1241.84,-472.482 733.474,-386.838 557.783,-357.24"/>
<polygon fill="midnightblue" stroke="midnightblue" points="558.127,-353.749 547.684,-355.539 556.964,-360.651 558.127,-353.749"/>
</g>
<!-- Node19 -->
<g id="node19" class="node"><title>Node19</title>
<g id="a_node19"><a xlink:href="SelectionCriterionTypeInterface_8h.html" target="_top" xlink:title="SelectionCriterionTypeInterface.h">
<polygon fill="white" stroke="black" points="66.5,-224.5 66.5,-243.5 239.5,-243.5 239.5,-224.5 66.5,-224.5"/>
<text text-anchor="middle" x="153" y="-231.5" font-family="Verdana" font-size="10.00">SelectionCriterionTypeInterface.h</text>
</a>
</g>
</g>
<!-- Node1&#45;&gt;Node19 -->
<g id="edge87" class="edge"><title>Node1&#45;&gt;Node19</title>
<path fill="none" stroke="midnightblue" d="M1437.26,-516.687C1127.78,-508.965 0,-475.829 0,-403 0,-403 0,-403 0,-345 0,-291.205 63.1245,-261.134 108.281,-246.505"/>
<polygon fill="midnightblue" stroke="midnightblue" points="109.379,-249.829 117.899,-243.53 107.311,-243.141 109.379,-249.829"/>
</g>
<!-- Node30 -->
<g id="node30" class="node"><title>Node30</title>
<g id="a_node30"><a xlink:href="XmlDomainSerializingContext_8h.html" target="_top" xlink:title="XmlDomainSerializingContext.h">
<polygon fill="white" stroke="black" points="1380.5,-392.5 1380.5,-411.5 1547.5,-411.5 1547.5,-392.5 1380.5,-392.5"/>
<text text-anchor="middle" x="1464" y="-399.5" font-family="Verdana" font-size="10.00">XmlDomainSerializingContext.h</text>
</a>
</g>
</g>
<!-- Node1&#45;&gt;Node30 -->
<g id="edge56" class="edge"><title>Node1&#45;&gt;Node30</title>
<path fill="none" stroke="midnightblue" d="M1504.33,-504.093C1497.48,-494.311 1488.82,-480.862 1483,-468 1476.19,-452.935 1471.13,-434.807 1467.95,-421.527"/>
<polygon fill="midnightblue" stroke="midnightblue" points="1471.34,-420.668 1465.72,-411.686 1464.52,-422.212 1471.34,-420.668"/>
</g>
<!-- Node32 -->
<g id="node32" class="node"><title>Node32</title>
<g id="a_node32"><a xlink:href="XmlDomainImportContext_8h.html" target="_top" xlink:title="XmlDomainImportContext.h">
<polygon fill="white" stroke="black" points="1492,-448.5 1492,-467.5 1642,-467.5 1642,-448.5 1492,-448.5"/>
<text text-anchor="middle" x="1567" y="-455.5" font-family="Verdana" font-size="10.00">XmlDomainImportContext.h</text>
</a>
</g>
</g>
<!-- Node1&#45;&gt;Node32 -->
<g id="edge61" class="edge"><title>Node1&#45;&gt;Node32</title>
<path fill="none" stroke="midnightblue" d="M1527.32,-504.399C1534.96,-495.664 1544.79,-484.413 1552.76,-475.296"/>
<polygon fill="midnightblue" stroke="midnightblue" points="1555.49,-477.491 1559.43,-467.658 1550.22,-472.884 1555.49,-477.491"/>
</g>
<!-- Node33 -->
<g id="node33" class="node"><title>Node33</title>
<g id="a_node33"><a xlink:href="SelectionCriteriaDefinition_8h.html" target="_top" xlink:title="SelectionCriteriaDefinition.h">
<polygon fill="white" stroke="black" points="1205.5,-392.5 1205.5,-411.5 1354.5,-411.5 1354.5,-392.5 1205.5,-392.5"/>
<text text-anchor="middle" x="1280" y="-399.5" font-family="Verdana" font-size="10.00">SelectionCriteriaDefinition.h</text>
</a>
</g>
</g>
<!-- Node1&#45;&gt;Node33 -->
<g id="edge86" class="edge"><title>Node1&#45;&gt;Node33</title>
<path fill="none" stroke="midnightblue" d="M1486.18,-504.337C1440.17,-481.721 1350.77,-437.781 1306.35,-415.953"/>
<polygon fill="midnightblue" stroke="midnightblue" points="1307.86,-412.792 1297.34,-411.522 1304.77,-419.074 1307.86,-412.792"/>
</g>
<!-- Node40 -->
<g id="node40" class="node"><title>Node40</title>
<g id="a_node40"><a xlink:href="RuleParser_8h.html" target="_top" xlink:title="RuleParser.h">
<polygon fill="white" stroke="black" points="1824,-112.5 1824,-131.5 1898,-131.5 1898,-112.5 1824,-112.5"/>
<text text-anchor="middle" x="1861" y="-119.5" font-family="Verdana" font-size="10.00">RuleParser.h</text>
</a>
</g>
</g>
<!-- Node1&#45;&gt;Node40 -->
<g id="edge88" class="edge"><title>Node1&#45;&gt;Node40</title>
<path fill="none" stroke="midnightblue" d="M1592.85,-511.174C1705.86,-498.351 1902,-466.893 1902,-403 1902,-403 1902,-403 1902,-289 1902,-234.008 1880.53,-171.679 1868.66,-141.428"/>
<polygon fill="midnightblue" stroke="midnightblue" points="1871.77,-139.772 1864.78,-131.807 1865.28,-142.39 1871.77,-139.772"/>
</g>
<!-- Node41 -->
<g id="node41" class="node"><title>Node41</title>
<polygon fill="white" stroke="#bfbfbf" points="1968,-448.5 1968,-467.5 2024,-467.5 2024,-448.5 1968,-448.5"/>
<text text-anchor="middle" x="1996" y="-455.5" font-family="Verdana" font-size="10.00">assert.h</text>
</g>
<!-- Node1&#45;&gt;Node41 -->
<g id="edge91" class="edge"><title>Node1&#45;&gt;Node41</title>
<path fill="none" stroke="midnightblue" d="M1592.63,-511.854C1680.61,-503.794 1828.14,-488.674 1954,-468 1955.24,-467.796 1956.5,-467.58 1957.77,-467.354"/>
<polygon fill="midnightblue" stroke="midnightblue" points="1958.44,-470.79 1967.6,-465.473 1957.12,-463.915 1958.44,-470.79"/>
</g>
<!-- Node3 -->
<g id="node3" class="node"><title>Node3</title>
<g id="a_node3"><a xlink:href="Rule_8h.html" target="_top" xlink:title="Rule.h">
<polygon fill="white" stroke="black" points="1930.5,-280.5 1930.5,-299.5 1975.5,-299.5 1975.5,-280.5 1930.5,-280.5"/>
<text text-anchor="middle" x="1953" y="-287.5" font-family="Verdana" font-size="10.00">Rule.h</text>
</a>
</g>
</g>
<!-- Node2&#45;&gt;Node3 -->
<g id="edge2" class="edge"><title>Node2&#45;&gt;Node3</title>
<path fill="none" stroke="midnightblue" d="M1988.06,-336.083C1982.07,-328.377 1973.25,-317.033 1965.95,-307.653"/>
<polygon fill="midnightblue" stroke="midnightblue" points="1968.71,-305.496 1959.81,-299.751 1963.18,-309.793 1968.71,-305.496"/>
</g>
<!-- Node6 -->
<g id="node6" class="node"><title>Node6</title>
<polygon fill="white" stroke="#bfbfbf" points="1123,-0.5 1123,-19.5 1167,-19.5 1167,-0.5 1123,-0.5"/>
<text text-anchor="middle" x="1145" y="-7.5" font-family="Verdana" font-size="10.00">string</text>
</g>
<!-- Node2&#45;&gt;Node6 -->
<g id="edge25" class="edge"><title>Node2&#45;&gt;Node6</title>
<path fill="none" stroke="midnightblue" d="M1996.18,-336.462C1998.62,-317.994 2004,-272.939 2004,-235 2004,-235 2004,-235 2004,-121 2004,-86.8442 1992.44,-73.3113 1963,-56 1894.44,-15.6906 1321.23,-11.4671 1177.56,-11.0432"/>
<polygon fill="midnightblue" stroke="midnightblue" points="1177.23,-7.54242 1167.22,-11.0172 1177.21,-14.5424 1177.23,-7.54242"/>
</g>
<!-- Node4 -->
<g id="node4" class="node"><title>Node4</title>
<g id="a_node4"><a xlink:href="Element_8h.html" target="_top" xlink:title="Element.h">
<polygon fill="white" stroke="black" points="1247.5,-224.5 1247.5,-243.5 1312.5,-243.5 1312.5,-224.5 1247.5,-224.5"/>
<text text-anchor="middle" x="1280" y="-231.5" font-family="Verdana" font-size="10.00">Element.h</text>
</a>
</g>
</g>
<!-- Node3&#45;&gt;Node4 -->
<g id="edge3" class="edge"><title>Node3&#45;&gt;Node4</title>
<path fill="none" stroke="midnightblue" d="M1930.22,-287.172C1832.96,-279.368 1451.58,-248.767 1322.77,-238.431"/>
<polygon fill="midnightblue" stroke="midnightblue" points="1322.76,-234.92 1312.51,-237.609 1322.2,-241.897 1322.76,-234.92"/>
</g>
<!-- Node3&#45;&gt;Node6 -->
<g id="edge24" class="edge"><title>Node3&#45;&gt;Node6</title>
<path fill="none" stroke="midnightblue" d="M1954.44,-280.471C1957.42,-262.022 1964,-217.001 1964,-179 1964,-179 1964,-179 1964,-121 1964,-90.2048 1964.76,-74.3121 1940,-56 1877.92,-10.083 1318.63,-10.0382 1177.32,-10.7701"/>
<polygon fill="midnightblue" stroke="midnightblue" points="1177.12,-7.27108 1167.14,-10.8281 1177.16,-14.271 1177.12,-7.27108"/>
</g>
<!-- Node5 -->
<g id="node5" class="node"><title>Node5</title>
<polygon fill="white" stroke="#bfbfbf" points="1388.5,-168.5 1388.5,-187.5 1501.5,-187.5 1501.5,-168.5 1388.5,-168.5"/>
<text text-anchor="middle" x="1445" y="-175.5" font-family="Verdana" font-size="10.00">parameter_export.h</text>
</g>
<!-- Node4&#45;&gt;Node5 -->
<g id="edge4" class="edge"><title>Node4&#45;&gt;Node5</title>
<path fill="none" stroke="midnightblue" d="M1306.14,-224.444C1334.02,-215.32 1378.35,-200.813 1409.4,-190.651"/>
<polygon fill="midnightblue" stroke="midnightblue" points="1410.56,-193.953 1418.98,-187.516 1408.38,-187.3 1410.56,-193.953"/>
</g>
<!-- Node4&#45;&gt;Node6 -->
<g id="edge5" class="edge"><title>Node4&#45;&gt;Node6</title>
<path fill="none" stroke="midnightblue" d="M1247.2,-225.578C1214.04,-217.347 1166.14,-203.21 1155,-188 1152.5,-184.592 1152.23,-116.219 1152,-112 1150.44,-83.257 1148.01,-49.9552 1146.46,-29.6904"/>
<polygon fill="midnightblue" stroke="midnightblue" points="1149.95,-29.3419 1145.69,-19.6413 1142.97,-29.8813 1149.95,-29.3419"/>
</g>
<!-- Node7 -->
<g id="node7" class="node"><title>Node7</title>
<polygon fill="white" stroke="#bfbfbf" points="1276.5,-112.5 1276.5,-131.5 1323.5,-131.5 1323.5,-112.5 1276.5,-112.5"/>
<text text-anchor="middle" x="1300" y="-119.5" font-family="Verdana" font-size="10.00">vector</text>
</g>
<!-- Node4&#45;&gt;Node7 -->
<g id="edge6" class="edge"><title>Node4&#45;&gt;Node7</title>
<path fill="none" stroke="midnightblue" d="M1281.57,-224.368C1284.8,-206.617 1292.24,-165.666 1296.62,-141.597"/>
<polygon fill="midnightblue" stroke="midnightblue" points="1300.09,-142.056 1298.44,-131.591 1293.21,-140.804 1300.09,-142.056"/>
</g>
<!-- Node8 -->
<g id="node8" class="node"><title>Node8</title>
<polygon fill="white" stroke="#bfbfbf" points="1286.5,-56.5 1286.5,-75.5 1339.5,-75.5 1339.5,-56.5 1286.5,-56.5"/>
<text text-anchor="middle" x="1313" y="-63.5" font-family="Verdana" font-size="10.00">stdint.h</text>
</g>
<!-- Node4&#45;&gt;Node8 -->
<g id="edge7" class="edge"><title>Node4&#45;&gt;Node8</title>
<path fill="none" stroke="midnightblue" d="M1286.31,-224.391C1298.14,-207.639 1323.25,-169.046 1332,-132 1335.79,-115.929 1329.71,-97.9266 1323.44,-84.9499"/>
<polygon fill="midnightblue" stroke="midnightblue" points="1326.34,-82.9455 1318.56,-75.7532 1320.15,-86.2271 1326.34,-82.9455"/>
</g>
<!-- Node9 -->
<g id="node9" class="node"><title>Node9</title>
<g id="a_node9"><a xlink:href="XmlSink_8h.html" target="_top" xlink:title="XmlSink.h">
<polygon fill="white" stroke="black" points="1044,-168.5 1044,-187.5 1108,-187.5 1108,-168.5 1044,-168.5"/>
<text text-anchor="middle" x="1076" y="-175.5" font-family="Verdana" font-size="10.00">XmlSink.h</text>
</a>
</g>
</g>
<!-- Node4&#45;&gt;Node9 -->
<g id="edge8" class="edge"><title>Node4&#45;&gt;Node9</title>
<path fill="none" stroke="midnightblue" d="M1247.68,-224.444C1212.61,-215.162 1156.5,-200.309 1118.04,-190.127"/>
<polygon fill="midnightblue" stroke="midnightblue" points="1118.74,-186.692 1108.17,-187.516 1116.94,-193.459 1118.74,-186.692"/>
</g>
<!-- Node14 -->
<g id="node14" class="node"><title>Node14</title>
<g id="a_node14"><a xlink:href="XmlSource_8h.html" target="_top" xlink:title="XmlSource.h">
<polygon fill="white" stroke="black" points="948.5,-168.5 948.5,-187.5 1025.5,-187.5 1025.5,-168.5 948.5,-168.5"/>
<text text-anchor="middle" x="987" y="-175.5" font-family="Verdana" font-size="10.00">XmlSource.h</text>
</a>
</g>
</g>
<!-- Node4&#45;&gt;Node14 -->
<g id="edge17" class="edge"><title>Node4&#45;&gt;Node14</title>
<path fill="none" stroke="midnightblue" d="M1247.5,-227.069C1202.4,-218.833 1118.04,-203.392 1035.56,-188.098"/>
<polygon fill="midnightblue" stroke="midnightblue" points="1035.98,-184.617 1025.51,-186.234 1034.7,-191.499 1035.98,-184.617"/>
</g>
<!-- Node15 -->
<g id="node15" class="node"><title>Node15</title>
<g id="a_node15"><a xlink:href="PathNavigator_8h.html" target="_top" xlink:title="PathNavigator.h">
<polygon fill="white" stroke="black" points="1164,-168.5 1164,-187.5 1256,-187.5 1256,-168.5 1164,-168.5"/>
<text text-anchor="middle" x="1210" y="-175.5" font-family="Verdana" font-size="10.00">PathNavigator.h</text>
</a>
</g>
</g>
<!-- Node4&#45;&gt;Node15 -->
<g id="edge20" class="edge"><title>Node4&#45;&gt;Node15</title>
<path fill="none" stroke="midnightblue" d="M1268.75,-224.324C1258.2,-216.185 1242.2,-203.839 1229.56,-194.087"/>
<polygon fill="midnightblue" stroke="midnightblue" points="1231.51,-191.171 1221.45,-187.834 1227.23,-196.713 1231.51,-191.171"/>
</g>
<!-- Node10 -->
<g id="node10" class="node"><title>Node10</title>
<g id="a_node10"><a xlink:href="XmlElement_8h.html" target="_top" xlink:title="XmlElement.h">
<polygon fill="white" stroke="black" points="1060.5,-112.5 1060.5,-131.5 1143.5,-131.5 1143.5,-112.5 1060.5,-112.5"/>
<text text-anchor="middle" x="1102" y="-119.5" font-family="Verdana" font-size="10.00">XmlElement.h</text>
</a>
</g>
</g>
<!-- Node9&#45;&gt;Node10 -->
<g id="edge9" class="edge"><title>Node9&#45;&gt;Node10</title>
<path fill="none" stroke="midnightblue" d="M1080.29,-168.083C1083.85,-160.691 1089.02,-149.953 1093.42,-140.811"/>
<polygon fill="midnightblue" stroke="midnightblue" points="1096.6,-142.279 1097.79,-131.751 1090.29,-139.243 1096.6,-142.279"/>
</g>
<!-- Node11 -->
<g id="node11" class="node"><title>Node11</title>
<g id="a_node11"><a xlink:href="XmlSerializingContext_8h.html" target="_top" xlink:title="XmlSerializingContext.h">
<polygon fill="white" stroke="black" points="912,-112.5 912,-131.5 1042,-131.5 1042,-112.5 912,-112.5"/>
<text text-anchor="middle" x="977" y="-119.5" font-family="Verdana" font-size="10.00">XmlSerializingContext.h</text>
</a>
</g>
</g>
<!-- Node9&#45;&gt;Node11 -->
<g id="edge12" class="edge"><title>Node9&#45;&gt;Node11</title>
<path fill="none" stroke="midnightblue" d="M1060.09,-168.324C1044.36,-159.743 1020.06,-146.486 1001.79,-136.522"/>
<polygon fill="midnightblue" stroke="midnightblue" points="1003.32,-133.37 992.867,-131.655 999.97,-139.516 1003.32,-133.37"/>
</g>
<!-- Node10&#45;&gt;Node6 -->
<g id="edge11" class="edge"><title>Node10&#45;&gt;Node6</title>
<path fill="none" stroke="midnightblue" d="M1105.37,-112.368C1112.38,-94.4563 1128.61,-52.9233 1137.98,-28.9482"/>
<polygon fill="midnightblue" stroke="midnightblue" points="1141.26,-30.1794 1141.64,-19.5914 1134.74,-27.6308 1141.26,-30.1794"/>
</g>
<!-- Node10&#45;&gt;Node8 -->
<g id="edge10" class="edge"><title>Node10&#45;&gt;Node8</title>
<path fill="none" stroke="midnightblue" d="M1135.43,-112.444C1173.92,-102.595 1236.91,-86.4742 1276.6,-76.3159"/>
<polygon fill="midnightblue" stroke="midnightblue" points="1277.58,-79.6768 1286.4,-73.8067 1275.85,-72.8953 1277.58,-79.6768"/>
</g>
<!-- Node11&#45;&gt;Node6 -->
<g id="edge16" class="edge"><title>Node11&#45;&gt;Node6</title>
<path fill="none" stroke="midnightblue" d="M990.183,-112.368C1019.01,-93.4924 1087.9,-48.385 1123.26,-25.2367"/>
<polygon fill="midnightblue" stroke="midnightblue" points="1125.43,-27.9975 1131.88,-19.5914 1121.6,-22.1412 1125.43,-27.9975"/>
</g>
<!-- Node12 -->
<g id="node12" class="node"><title>Node12</title>
<g id="a_node12"><a xlink:href="ErrorContext_8hpp.html" target="_top" xlink:title="ErrorContext.hpp">
<polygon fill="white" stroke="black" points="646,-56.5 646,-75.5 744,-75.5 744,-56.5 646,-56.5"/>
<text text-anchor="middle" x="695" y="-63.5" font-family="Verdana" font-size="10.00">ErrorContext.hpp</text>
</a>
</g>
</g>
<!-- Node11&#45;&gt;Node12 -->
<g id="edge13" class="edge"><title>Node11&#45;&gt;Node12</title>
<path fill="none" stroke="midnightblue" d="M932.316,-112.444C882.71,-102.944 802.635,-87.611 749.415,-77.4198"/>
<polygon fill="midnightblue" stroke="midnightblue" points="749.955,-73.9597 739.475,-75.5164 748.638,-80.8348 749.955,-73.9597"/>
</g>
<!-- Node12&#45;&gt;Node6 -->
<g id="edge14" class="edge"><title>Node12&#45;&gt;Node6</title>
<path fill="none" stroke="midnightblue" d="M744.164,-57.8501C748.838,-57.2084 753.508,-56.582 758,-56 889.215,-39.0017 1045.86,-21.7069 1112.46,-14.4932"/>
<polygon fill="midnightblue" stroke="midnightblue" points="1113.16,-17.9381 1122.73,-13.384 1112.41,-10.9786 1113.16,-17.9381"/>
</g>
<!-- Node13 -->
<g id="node13" class="node"><title>Node13</title>
<g id="a_node13"><a xlink:href="NonCopyable_8hpp.html" target="_top" xlink:title="NonCopyable.hpp">
<polygon fill="white" stroke="black" points="141.5,-0.5 141.5,-19.5 242.5,-19.5 242.5,-0.5 141.5,-0.5"/>
<text text-anchor="middle" x="192" y="-7.5" font-family="Verdana" font-size="10.00">NonCopyable.hpp</text>
</a>
</g>
</g>
<!-- Node12&#45;&gt;Node13 -->
<g id="edge15" class="edge"><title>Node12&#45;&gt;Node13</title>
<path fill="none" stroke="midnightblue" d="M645.854,-59.7239C553.363,-49.7945 353.686,-28.3579 252.869,-17.5346"/>
<polygon fill="midnightblue" stroke="midnightblue" points="253.156,-14.0455 242.84,-16.458 252.409,-21.0055 253.156,-14.0455"/>
</g>
<!-- Node14&#45;&gt;Node10 -->
<g id="edge18" class="edge"><title>Node14&#45;&gt;Node10</title>
<path fill="none" stroke="midnightblue" d="M1005.22,-168.444C1023.9,-159.675 1053.16,-145.935 1074.62,-135.858"/>
<polygon fill="midnightblue" stroke="midnightblue" points="1076.3,-138.935 1083.86,-131.516 1073.32,-132.599 1076.3,-138.935"/>
</g>
<!-- Node14&#45;&gt;Node11 -->
<g id="edge19" class="edge"><title>Node14&#45;&gt;Node11</title>
<path fill="none" stroke="midnightblue" d="M985.349,-168.083C984.024,-160.927 982.118,-150.635 980.461,-141.691"/>
<polygon fill="midnightblue" stroke="midnightblue" points="983.883,-140.947 978.621,-131.751 977,-142.221 983.883,-140.947"/>
</g>
<!-- Node15&#45;&gt;Node6 -->
<g id="edge22" class="edge"><title>Node15&#45;&gt;Node6</title>
<path fill="none" stroke="midnightblue" d="M1209.85,-168.275C1209.17,-147.63 1205.49,-94.6214 1186,-56 1180.44,-44.9885 1171.43,-34.6648 1163.27,-26.6902"/>
<polygon fill="midnightblue" stroke="midnightblue" points="1165.56,-24.0431 1155.85,-19.8185 1160.81,-29.1801 1165.56,-24.0431"/>
</g>
<!-- Node15&#45;&gt;Node7 -->
<g id="edge21" class="edge"><title>Node15&#45;&gt;Node7</title>
<path fill="none" stroke="midnightblue" d="M1224.46,-168.324C1238.5,-159.9 1260.05,-146.971 1276.54,-137.074"/>
<polygon fill="midnightblue" stroke="midnightblue" points="1278.8,-139.801 1285.58,-131.655 1275.2,-133.798 1278.8,-139.801"/>
</g>
<!-- Node15&#45;&gt;Node8 -->
<g id="edge23" class="edge"><title>Node15&#45;&gt;Node8</title>
<path fill="none" stroke="midnightblue" d="M1217.18,-168.402C1227.79,-155.782 1248.42,-131.617 1267,-112 1276.41,-102.063 1287.35,-91.3318 1296.2,-82.8421"/>
<polygon fill="midnightblue" stroke="midnightblue" points="1298.8,-85.1932 1303.63,-75.7626 1293.97,-80.1238 1298.8,-85.1932"/>
</g>
<!-- Node16&#45;&gt;Node4 -->
<g id="edge27" class="edge"><title>Node16&#45;&gt;Node4</title>
<path fill="none" stroke="midnightblue" d="M552.059,-337.265C699.999,-316.482 1103.89,-259.741 1236.89,-241.056"/>
<polygon fill="midnightblue" stroke="midnightblue" points="1237.68,-244.48 1247.09,-239.623 1236.7,-237.548 1237.68,-244.48"/>
</g>
<!-- Node16&#45;&gt;Node6 -->
<g id="edge55" class="edge"><title>Node16&#45;&gt;Node6</title>
<path fill="none" stroke="midnightblue" d="M441.755,-337.118C385.345,-325.584 306,-298.139 306,-235 306,-235 306,-235 306,-121 306,-47.5267 386.542,-73.0901 458,-56 584.82,-25.6694 994.509,-14.3517 1112.77,-11.6701"/>
<polygon fill="midnightblue" stroke="midnightblue" points="1113.05,-15.1647 1122.97,-11.4439 1112.9,-8.16641 1113.05,-15.1647"/>
</g>
<!-- Node16&#45;&gt;Node13 -->
<g id="edge54" class="edge"><title>Node16&#45;&gt;Node13</title>
<path fill="none" stroke="midnightblue" d="M441.88,-342.287C351.033,-337.183 174.211,-324.403 117,-300 75.1775,-282.161 38,-280.468 38,-235 38,-235 38,-235 38,-121 38,-67.1263 101.178,-37.1383 146.602,-22.5396"/>
<polygon fill="midnightblue" stroke="midnightblue" points="147.748,-25.8492 156.282,-19.5713 145.696,-19.1567 147.748,-25.8492"/>
</g>
<!-- Node17 -->
<g id="node17" class="node"><title>Node17</title>
<g id="a_node17"><a xlink:href="SelectionCriterionType_8h.html" target="_top" xlink:title="SelectionCriterionType.h">
<polygon fill="white" stroke="black" points="354.5,-280.5 354.5,-299.5 485.5,-299.5 485.5,-280.5 354.5,-280.5"/>
<text text-anchor="middle" x="420" y="-287.5" font-family="Verdana" font-size="10.00">SelectionCriterionType.h</text>
</a>
</g>
</g>
<!-- Node16&#45;&gt;Node17 -->
<g id="edge28" class="edge"><title>Node16&#45;&gt;Node17</title>
<path fill="none" stroke="midnightblue" d="M484.629,-336.324C472.842,-328.058 454.868,-315.453 440.864,-305.632"/>
<polygon fill="midnightblue" stroke="midnightblue" points="442.538,-302.531 432.341,-299.655 438.518,-308.262 442.538,-302.531"/>
</g>
<!-- Node20 -->
<g id="node20" class="node"><title>Node20</title>
<g id="a_node20"><a xlink:href="SelectionCriterionInterface_8h.html" target="_top" xlink:title="SelectionCriterionInterface.h">
<polygon fill="white" stroke="black" points="126,-280.5 126,-299.5 278,-299.5 278,-280.5 126,-280.5"/>
<text text-anchor="middle" x="202" y="-287.5" font-family="Verdana" font-size="10.00">SelectionCriterionInterface.h</text>
</a>
</g>
</g>
<!-- Node16&#45;&gt;Node20 -->
<g id="edge34" class="edge"><title>Node16&#45;&gt;Node20</title>
<path fill="none" stroke="midnightblue" d="M450.256,-336.444C398.255,-326.925 314.249,-311.547 258.576,-301.356"/>
<polygon fill="midnightblue" stroke="midnightblue" points="258.992,-297.874 248.525,-299.516 257.731,-304.76 258.992,-297.874"/>
</g>
<!-- Node21 -->
<g id="node21" class="node"><title>Node21</title>
<g id="a_node21"><a xlink:href="Logger_8h.html" target="_top" xlink:title="log/Logger.h">
<polygon fill="white" stroke="black" points="536.5,-280.5 536.5,-299.5 611.5,-299.5 611.5,-280.5 536.5,-280.5"/>
<text text-anchor="middle" x="574" y="-287.5" font-family="Verdana" font-size="10.00">log/Logger.h</text>
</a>
</g>
</g>
<!-- Node16&#45;&gt;Node21 -->
<g id="edge37" class="edge"><title>Node16&#45;&gt;Node21</title>
<path fill="none" stroke="midnightblue" d="M509.371,-336.324C521.158,-328.058 539.132,-315.453 553.136,-305.632"/>
<polygon fill="midnightblue" stroke="midnightblue" points="555.482,-308.262 561.659,-299.655 551.462,-302.531 555.482,-308.262"/>
</g>
<!-- Node17&#45;&gt;Node4 -->
<g id="edge29" class="edge"><title>Node17&#45;&gt;Node4</title>
<path fill="none" stroke="midnightblue" d="M485.621,-283.228C499.291,-282.096 513.612,-280.963 527,-280 797.125,-260.571 1122.19,-243.168 1237.18,-237.195"/>
<polygon fill="midnightblue" stroke="midnightblue" points="1237.52,-240.682 1247.32,-236.669 1237.15,-233.692 1237.52,-240.682"/>
</g>
<!-- Node17&#45;&gt;Node6 -->
<g id="edge31" class="edge"><title>Node17&#45;&gt;Node6</title>
<path fill="none" stroke="midnightblue" d="M417.902,-280.175C415.192,-267.678 411.044,-244.108 413,-224 420.9,-142.794 418.019,-99.57 487,-56 540.266,-22.3563 988.273,-13.3007 1112.93,-11.422"/>
<polygon fill="midnightblue" stroke="midnightblue" points="1113.04,-14.9209 1122.98,-11.2756 1112.93,-7.92164 1113.04,-14.9209"/>
</g>
<!-- Node18 -->
<g id="node18" class="node"><title>Node18</title>
<polygon fill="white" stroke="#bfbfbf" points="546,-112.5 546,-131.5 584,-131.5 584,-112.5 546,-112.5"/>
<text text-anchor="middle" x="565" y="-119.5" font-family="Verdana" font-size="10.00">map</text>
</g>
<!-- Node17&#45;&gt;Node18 -->
<g id="edge30" class="edge"><title>Node17&#45;&gt;Node18</title>
<path fill="none" stroke="midnightblue" d="M418.608,-280.186C415.693,-258.408 411.329,-201.407 439,-168 462.886,-139.163 506.652,-128.8 535.789,-125.079"/>
<polygon fill="midnightblue" stroke="midnightblue" points="536.237,-128.551 545.798,-123.987 535.478,-121.592 536.237,-128.551"/>
</g>
<!-- Node17&#45;&gt;Node19 -->
<g id="edge32" class="edge"><title>Node17&#45;&gt;Node19</title>
<path fill="none" stroke="midnightblue" d="M377.693,-280.444C330.92,-270.984 255.54,-255.738 205.15,-245.547"/>
<polygon fill="midnightblue" stroke="midnightblue" points="205.604,-242.068 195.109,-243.516 204.217,-248.929 205.604,-242.068"/>
</g>
<!-- Node19&#45;&gt;Node6 -->
<g id="edge33" class="edge"><title>Node19&#45;&gt;Node6</title>
<path fill="none" stroke="midnightblue" d="M154.859,-224.319C161.754,-194.519 188.904,-96.0328 254,-56 328.325,-10.2918 962.171,-10.185 1112.92,-10.8149"/>
<polygon fill="midnightblue" stroke="midnightblue" points="1112.91,-14.3148 1122.93,-10.861 1112.94,-7.3149 1112.91,-14.3148"/>
</g>
<!-- Node20&#45;&gt;Node6 -->
<g id="edge35" class="edge"><title>Node20&#45;&gt;Node6</title>
<path fill="none" stroke="midnightblue" d="M213.824,-280.258C224.217,-271.991 239.045,-258.691 248,-244 263.733,-218.192 268,-209.225 268,-179 268,-179 268,-179 268,-121 268,-90.2048 267.206,-74.2645 292,-56 359.05,-6.60753 965.182,-9.24769 1112.73,-10.6365"/>
<polygon fill="midnightblue" stroke="midnightblue" points="1112.9,-14.1382 1122.93,-10.7376 1112.97,-7.13855 1112.9,-14.1382"/>
</g>
<!-- Node20&#45;&gt;Node19 -->
<g id="edge36" class="edge"><title>Node20&#45;&gt;Node19</title>
<path fill="none" stroke="midnightblue" d="M193.909,-280.083C186.845,-272.298 176.412,-260.801 167.851,-251.367"/>
<polygon fill="midnightblue" stroke="midnightblue" points="170.253,-248.805 160.941,-243.751 165.069,-253.509 170.253,-248.805"/>
</g>
<!-- Node21&#45;&gt;Node13 -->
<g id="edge53" class="edge"><title>Node21&#45;&gt;Node13</title>
<path fill="none" stroke="midnightblue" d="M562.149,-280.375C507.673,-240.731 281.028,-75.7902 212.024,-25.5727"/>
<polygon fill="midnightblue" stroke="midnightblue" points="213.858,-22.5786 203.713,-19.5243 209.739,-28.2385 213.858,-22.5786"/>
</g>
<!-- Node22 -->
<g id="node22" class="node"><title>Node22</title>
<g id="a_node22"><a xlink:href="ILogger_8h.html" target="_top" xlink:title="log/ILogger.h">
<polygon fill="white" stroke="black" points="448.5,-168.5 448.5,-187.5 525.5,-187.5 525.5,-168.5 448.5,-168.5"/>
<text text-anchor="middle" x="487" y="-175.5" font-family="Verdana" font-size="10.00">log/ILogger.h</text>
</a>
</g>
</g>
<!-- Node21&#45;&gt;Node22 -->
<g id="edge38" class="edge"><title>Node21&#45;&gt;Node22</title>
<path fill="none" stroke="midnightblue" d="M567.173,-280.368C552.752,-262.135 518.973,-219.426 500.189,-195.675"/>
<polygon fill="midnightblue" stroke="midnightblue" points="502.744,-193.264 493.795,-187.591 497.253,-197.606 502.744,-193.264"/>
</g>
<!-- Node23 -->
<g id="node23" class="node"><title>Node23</title>
<g id="a_node23"><a xlink:href="LogWrapper_8h.html" target="_top" xlink:title="log/LogWrapper.h">
<polygon fill="white" stroke="black" points="559,-224.5 559,-243.5 657,-243.5 657,-224.5 559,-224.5"/>
<text text-anchor="middle" x="608" y="-231.5" font-family="Verdana" font-size="10.00">log/LogWrapper.h</text>
</a>
</g>
</g>
<!-- Node21&#45;&gt;Node23 -->
<g id="edge40" class="edge"><title>Node21&#45;&gt;Node23</title>
<path fill="none" stroke="midnightblue" d="M579.614,-280.083C584.367,-272.534 591.318,-261.495 597.152,-252.23"/>
<polygon fill="midnightblue" stroke="midnightblue" points="600.124,-254.078 602.49,-243.751 594.2,-250.349 600.124,-254.078"/>
</g>
<!-- Node22&#45;&gt;Node6 -->
<g id="edge39" class="edge"><title>Node22&#45;&gt;Node6</title>
<path fill="none" stroke="midnightblue" d="M485.035,-168.367C480.51,-145.994 472.045,-85.808 504,-56 548.79,-14.2193 988.497,-11.0062 1112.56,-10.9368"/>
<polygon fill="midnightblue" stroke="midnightblue" points="1112.91,-14.4367 1122.91,-10.9381 1112.91,-7.43672 1112.91,-14.4367"/>
</g>
<!-- Node23&#45;&gt;Node6 -->
<g id="edge49" class="edge"><title>Node23&#45;&gt;Node6</title>
<path fill="none" stroke="midnightblue" d="M596.149,-224.493C570.132,-204.741 512.244,-154.236 537,-112 562.758,-68.0536 588.328,-71.0252 637,-56 726.596,-28.3416 1015.69,-15.6461 1112.82,-12.0873"/>
<polygon fill="midnightblue" stroke="midnightblue" points="1113.05,-15.5815 1122.92,-11.7252 1112.8,-8.586 1113.05,-15.5815"/>
</g>
<!-- Node23&#45;&gt;Node22 -->
<g id="edge41" class="edge"><title>Node23&#45;&gt;Node22</title>
<path fill="none" stroke="midnightblue" d="M588.827,-224.444C569.091,-215.636 538.115,-201.812 515.507,-191.722"/>
<polygon fill="midnightblue" stroke="midnightblue" points="516.641,-188.396 506.083,-187.516 513.789,-194.788 516.641,-188.396"/>
</g>
<!-- Node24 -->
<g id="node24" class="node"><title>Node24</title>
<g id="a_node24"><a xlink:href="Utility_8h.html" target="_top" xlink:title="Utility.h">
<polygon fill="white" stroke="black" points="652.5,-168.5 652.5,-187.5 703.5,-187.5 703.5,-168.5 652.5,-168.5"/>
<text text-anchor="middle" x="678" y="-175.5" font-family="Verdana" font-size="10.00">Utility.h</text>
</a>
</g>
</g>
<!-- Node23&#45;&gt;Node24 -->
<g id="edge42" class="edge"><title>Node23&#45;&gt;Node24</title>
<path fill="none" stroke="midnightblue" d="M619.247,-224.324C629.797,-216.185 645.801,-203.839 658.442,-194.087"/>
<polygon fill="midnightblue" stroke="midnightblue" points="660.769,-196.713 666.549,-187.834 656.493,-191.171 660.769,-196.713"/>
</g>
<!-- Node25 -->
<g id="node25" class="node"><title>Node25</title>
<polygon fill="white" stroke="#bfbfbf" points="1553,-112.5 1553,-131.5 1583,-131.5 1583,-112.5 1553,-112.5"/>
<text text-anchor="middle" x="1568" y="-119.5" font-family="Verdana" font-size="10.00">list</text>
</g>
<!-- Node23&#45;&gt;Node25 -->
<g id="edge52" class="edge"><title>Node23&#45;&gt;Node25</title>
<path fill="none" stroke="midnightblue" d="M657.288,-232.028C766.989,-229.339 1039.42,-219.755 1265,-188 1369.2,-173.332 1491.05,-143.135 1542.75,-129.7"/>
<polygon fill="midnightblue" stroke="midnightblue" points="1543.9,-133.018 1552.69,-127.099 1542.13,-126.246 1543.9,-133.018"/>
</g>
<!-- Node26 -->
<g id="node26" class="node"><title>Node26</title>
<polygon fill="white" stroke="#bfbfbf" points="800,-112.5 800,-131.5 856,-131.5 856,-112.5 800,-112.5"/>
<text text-anchor="middle" x="828" y="-119.5" font-family="Verdana" font-size="10.00">sstream</text>
</g>
<!-- Node23&#45;&gt;Node26 -->
<g id="edge50" class="edge"><title>Node23&#45;&gt;Node26</title>
<path fill="none" stroke="midnightblue" d="M629.404,-224.49C650.636,-215.873 683.965,-201.875 712,-188 744.914,-171.711 781.716,-150.566 804.863,-136.891"/>
<polygon fill="midnightblue" stroke="midnightblue" points="806.798,-139.813 813.607,-131.696 803.223,-133.794 806.798,-139.813"/>
</g>
<!-- Node29 -->
<g id="node29" class="node"><title>Node29</title>
<polygon fill="white" stroke="#bfbfbf" points="582,-168.5 582,-187.5 634,-187.5 634,-168.5 582,-168.5"/>
<text text-anchor="middle" x="608" y="-175.5" font-family="Verdana" font-size="10.00">iterator</text>
</g>
<!-- Node23&#45;&gt;Node29 -->
<g id="edge51" class="edge"><title>Node23&#45;&gt;Node29</title>
<path fill="none" stroke="midnightblue" d="M608,-224.083C608,-217.006 608,-206.861 608,-197.986"/>
<polygon fill="midnightblue" stroke="midnightblue" points="611.5,-197.751 608,-187.751 604.5,-197.751 611.5,-197.751"/>
</g>
<!-- Node24&#45;&gt;Node6 -->
<g id="edge43" class="edge"><title>Node24&#45;&gt;Node6</title>
<path fill="none" stroke="midnightblue" d="M692.339,-168.262C718.077,-152.659 771.266,-120.815 791,-112 904.316,-61.3813 1049.41,-29.4409 1112.87,-16.9679"/>
<polygon fill="midnightblue" stroke="midnightblue" points="1113.54,-20.4037 1122.69,-15.066 1112.21,-13.5314 1113.54,-20.4037"/>
</g>
<!-- Node24&#45;&gt;Node18 -->
<g id="edge45" class="edge"><title>Node24&#45;&gt;Node18</title>
<path fill="none" stroke="midnightblue" d="M660.095,-168.444C641.746,-159.675 612.995,-145.935 591.906,-135.858"/>
<polygon fill="midnightblue" stroke="midnightblue" points="593.353,-132.67 582.821,-131.516 590.335,-138.986 593.353,-132.67"/>
</g>
<!-- Node24&#45;&gt;Node25 -->
<g id="edge44" class="edge"><title>Node24&#45;&gt;Node25</title>
<path fill="none" stroke="midnightblue" d="M703.631,-173.41C717.608,-171.56 735.228,-169.405 751,-168 910.508,-153.791 1422.76,-129.706 1542.7,-124.162"/>
<polygon fill="midnightblue" stroke="midnightblue" points="1542.94,-127.655 1552.77,-123.698 1542.62,-120.662 1542.94,-127.655"/>
</g>
<!-- Node24&#45;&gt;Node26 -->
<g id="edge46" class="edge"><title>Node24&#45;&gt;Node26</title>
<path fill="none" stroke="midnightblue" d="M701.768,-168.444C726.893,-159.399 766.711,-145.064 794.9,-134.916"/>
<polygon fill="midnightblue" stroke="midnightblue" points="796.12,-138.197 804.343,-131.516 793.749,-131.611 796.12,-138.197"/>
</g>
<!-- Node27 -->
<g id="node27" class="node"><title>Node27</title>
<polygon fill="white" stroke="#bfbfbf" points="602,-112.5 602,-131.5 658,-131.5 658,-112.5 602,-112.5"/>
<text text-anchor="middle" x="630" y="-119.5" font-family="Verdana" font-size="10.00">numeric</text>
</g>
<!-- Node24&#45;&gt;Node27 -->
<g id="edge47" class="edge"><title>Node24&#45;&gt;Node27</title>
<path fill="none" stroke="midnightblue" d="M670.074,-168.083C663.154,-160.298 652.935,-148.801 644.548,-139.367"/>
<polygon fill="midnightblue" stroke="midnightblue" points="647.038,-136.9 637.779,-131.751 641.806,-141.55 647.038,-136.9"/>
</g>
<!-- Node28 -->
<g id="node28" class="node"><title>Node28</title>
<polygon fill="white" stroke="#bfbfbf" points="676,-112.5 676,-131.5 744,-131.5 744,-112.5 676,-112.5"/>
<text text-anchor="middle" x="710" y="-119.5" font-family="Verdana" font-size="10.00">type_traits</text>
</g>
<!-- Node24&#45;&gt;Node28 -->
<g id="edge48" class="edge"><title>Node24&#45;&gt;Node28</title>
<path fill="none" stroke="midnightblue" d="M683.284,-168.083C687.711,-160.613 694.163,-149.724 699.618,-140.52"/>
<polygon fill="midnightblue" stroke="midnightblue" points="702.727,-142.138 704.814,-131.751 696.705,-138.57 702.727,-142.138"/>
</g>
<!-- Node30&#45;&gt;Node6 -->
<g id="edge60" class="edge"><title>Node30&#45;&gt;Node6</title>
<path fill="none" stroke="midnightblue" d="M1470.69,-392.09C1480.19,-379.494 1498.19,-355.806 1514,-336 1570.52,-265.196 1644,-269.594 1644,-179 1644,-179 1644,-179 1644,-121 1644,-25.0593 1287.78,-12.7151 1177.28,-11.1938"/>
<polygon fill="midnightblue" stroke="midnightblue" points="1177.13,-7.69184 1167.09,-11.0752 1177.04,-14.6914 1177.13,-7.69184"/>
</g>
<!-- Node31 -->
<g id="node31" class="node"><title>Node31</title>
<g id="a_node31"><a xlink:href="XmlElementSerializingContext_8h.html" target="_top" xlink:title="XmlElementSerializingContext.h">
<polygon fill="white" stroke="black" points="760,-168.5 760,-187.5 930,-187.5 930,-168.5 760,-168.5"/>
<text text-anchor="middle" x="845" y="-175.5" font-family="Verdana" font-size="10.00">XmlElementSerializingContext.h</text>
</a>
</g>
</g>
<!-- Node30&#45;&gt;Node31 -->
<g id="edge57" class="edge"><title>Node30&#45;&gt;Node31</title>
<path fill="none" stroke="midnightblue" d="M1440.11,-392.433C1344.56,-358.163 989.634,-230.872 878.496,-191.013"/>
<polygon fill="midnightblue" stroke="midnightblue" points="879.41,-187.623 868.815,-187.541 877.046,-194.212 879.41,-187.623"/>
</g>
<!-- Node31&#45;&gt;Node6 -->
<g id="edge59" class="edge"><title>Node31&#45;&gt;Node6</title>
<path fill="none" stroke="midnightblue" d="M850.804,-168.298C860.286,-154.659 880.332,-128.142 903,-112 970.544,-63.9011 1064.47,-33.119 1113.05,-19.36"/>
<polygon fill="midnightblue" stroke="midnightblue" points="1114.29,-22.6506 1122.99,-16.6062 1112.42,-15.9051 1114.29,-22.6506"/>
</g>
<!-- Node31&#45;&gt;Node11 -->
<g id="edge58" class="edge"><title>Node31&#45;&gt;Node11</title>
<path fill="none" stroke="midnightblue" d="M865.916,-168.444C887.736,-159.517 922.15,-145.439 946.892,-135.317"/>
<polygon fill="midnightblue" stroke="midnightblue" points="948.252,-138.542 956.182,-131.516 945.601,-132.063 948.252,-138.542"/>
</g>
<!-- Node32&#45;&gt;Node6 -->
<g id="edge85" class="edge"><title>Node32&#45;&gt;Node6</title>
<path fill="none" stroke="midnightblue" d="M1620.44,-448.478C1705.95,-433.315 1864,-398.343 1864,-347 1864,-347 1864,-347 1864,-289 1864,-208.045 1942.57,-184.723 1907,-112 1889.19,-75.5827 1872.9,-70.398 1835,-56 1712.44,-9.43547 1296.69,-9.57164 1177.3,-10.6145"/>
<polygon fill="midnightblue" stroke="midnightblue" points="1176.97,-7.11738 1167,-10.7134 1177.04,-14.1171 1176.97,-7.11738"/>
</g>
<!-- Node32&#45;&gt;Node30 -->
<g id="edge62" class="edge"><title>Node32&#45;&gt;Node30</title>
<path fill="none" stroke="midnightblue" d="M1550.45,-448.324C1534.01,-439.703 1508.57,-426.364 1489.53,-416.386"/>
<polygon fill="midnightblue" stroke="midnightblue" points="1490.99,-413.198 1480.51,-411.655 1487.74,-419.398 1490.99,-413.198"/>
</g>
<!-- Node32&#45;&gt;Node33 -->
<g id="edge63" class="edge"><title>Node32&#45;&gt;Node33</title>
<path fill="none" stroke="midnightblue" d="M1521.52,-448.444C1471.04,-438.944 1389.54,-423.611 1335.38,-413.42"/>
<polygon fill="midnightblue" stroke="midnightblue" points="1335.74,-409.926 1325.26,-411.516 1334.44,-416.805 1335.74,-409.926"/>
</g>
<!-- Node34 -->
<g id="node34" class="node"><title>Node34</title>
<g id="a_node34"><a xlink:href="SystemClass_8h.html" target="_top" xlink:title="SystemClass.h">
<polygon fill="white" stroke="black" points="1565,-392.5 1565,-411.5 1653,-411.5 1653,-392.5 1565,-392.5"/>
<text text-anchor="middle" x="1609" y="-399.5" font-family="Verdana" font-size="10.00">SystemClass.h</text>
</a>
</g>
</g>
<!-- Node32&#45;&gt;Node34 -->
<g id="edge67" class="edge"><title>Node32&#45;&gt;Node34</title>
<path fill="none" stroke="midnightblue" d="M1573.94,-448.083C1579.93,-440.377 1588.75,-429.033 1596.05,-419.653"/>
<polygon fill="midnightblue" stroke="midnightblue" points="1598.82,-421.793 1602.19,-411.751 1593.29,-417.496 1598.82,-421.793"/>
</g>
<!-- Node33&#45;&gt;Node4 -->
<g id="edge64" class="edge"><title>Node33&#45;&gt;Node4</title>
<path fill="none" stroke="midnightblue" d="M1280,-392.075C1280,-365.945 1280,-289.211 1280,-253.577"/>
<polygon fill="midnightblue" stroke="midnightblue" points="1283.5,-253.568 1280,-243.568 1276.5,-253.568 1283.5,-253.568"/>
</g>
<!-- Node33&#45;&gt;Node16 -->
<g id="edge65" class="edge"><title>Node33&#45;&gt;Node16</title>
<path fill="none" stroke="midnightblue" d="M1205.28,-395.847C1052.51,-385.311 706.676,-361.46 562.269,-351.501"/>
<polygon fill="midnightblue" stroke="midnightblue" points="562.442,-348.005 552.225,-350.809 561.961,-354.988 562.442,-348.005"/>
</g>
<!-- Node33&#45;&gt;Node21 -->
<g id="edge66" class="edge"><title>Node33&#45;&gt;Node21</title>
<path fill="none" stroke="midnightblue" d="M1225.19,-392.46C1091.1,-371.569 748.304,-318.158 621.82,-298.451"/>
<polygon fill="midnightblue" stroke="midnightblue" points="622.095,-294.951 611.675,-296.87 621.017,-301.868 622.095,-294.951"/>
</g>
<!-- Node34&#45;&gt;Node6 -->
<g id="edge83" class="edge"><title>Node34&#45;&gt;Node6</title>
<path fill="none" stroke="midnightblue" d="M1653.03,-401.021C1687.97,-398.413 1734.82,-388.501 1759,-356 1764.31,-348.869 1760.2,-344.807 1759,-336 1750.25,-272.004 1730.76,-97.1863 1681,-56 1642.14,-23.8374 1287.09,-13.9105 1177.24,-11.5957"/>
<polygon fill="midnightblue" stroke="midnightblue" points="1177.17,-8.09371 1167.1,-11.3893 1177.03,-15.0923 1177.17,-8.09371"/>
</g>
<!-- Node34&#45;&gt;Node21 -->
<g id="edge81" class="edge"><title>Node34&#45;&gt;Node21</title>
<path fill="none" stroke="midnightblue" d="M1564.79,-393.269C1561.82,-392.818 1558.87,-392.39 1556,-392 1198.15,-343.267 764.048,-306.328 621.699,-294.787"/>
<polygon fill="midnightblue" stroke="midnightblue" points="621.815,-291.285 611.566,-293.968 621.252,-298.262 621.815,-291.285"/>
</g>
<!-- Node34&#45;&gt;Node25 -->
<g id="edge82" class="edge"><title>Node34&#45;&gt;Node25</title>
<path fill="none" stroke="midnightblue" d="M1608.58,-392.444C1606.97,-361.757 1600.29,-254.453 1582,-168 1580.09,-158.983 1577.15,-149.189 1574.46,-141.048"/>
<polygon fill="midnightblue" stroke="midnightblue" points="1577.74,-139.813 1571.17,-131.501 1571.12,-142.096 1577.74,-139.813"/>
</g>
<!-- Node35 -->
<g id="node35" class="node"><title>Node35</title>
<g id="a_node35"><a xlink:href="ConfigurableElement_8h.html" target="_top" xlink:title="ConfigurableElement.h">
<polygon fill="white" stroke="black" points="1394.5,-280.5 1394.5,-299.5 1519.5,-299.5 1519.5,-280.5 1394.5,-280.5"/>
<text text-anchor="middle" x="1457" y="-287.5" font-family="Verdana" font-size="10.00">ConfigurableElement.h</text>
</a>
</g>
</g>
<!-- Node34&#45;&gt;Node35 -->
<g id="edge68" class="edge"><title>Node34&#45;&gt;Node35</title>
<path fill="none" stroke="midnightblue" d="M1584.05,-392.419C1563.94,-384.771 1535.56,-372.273 1514,-356 1495.92,-342.351 1479.34,-322.201 1468.79,-307.961"/>
<polygon fill="midnightblue" stroke="midnightblue" points="1471.44,-305.658 1462.76,-299.584 1465.76,-309.746 1471.44,-305.658"/>
</g>
<!-- Node36 -->
<g id="node36" class="node"><title>Node36</title>
<g id="a_node36"><a xlink:href="SubsystemPlugins_8h.html" target="_top" xlink:title="SubsystemPlugins.h">
<polygon fill="white" stroke="black" points="1637.5,-336.5 1637.5,-355.5 1750.5,-355.5 1750.5,-336.5 1637.5,-336.5"/>
<text text-anchor="middle" x="1694" y="-343.5" font-family="Verdana" font-size="10.00">SubsystemPlugins.h</text>
</a>
</g>
</g>
<!-- Node34&#45;&gt;Node36 -->
<g id="edge73" class="edge"><title>Node34&#45;&gt;Node36</title>
<path fill="none" stroke="midnightblue" d="M1622.66,-392.324C1635.92,-383.9 1656.27,-370.971 1671.85,-361.074"/>
<polygon fill="midnightblue" stroke="midnightblue" points="1673.81,-363.971 1680.38,-355.655 1670.06,-358.063 1673.81,-363.971"/>
</g>
<!-- Node38 -->
<g id="node38" class="node"><title>Node38</title>
<g id="a_node38"><a xlink:href="Results_8h.html" target="_top" xlink:title="Results.h">
<polygon fill="white" stroke="black" points="1748.5,-168.5 1748.5,-187.5 1807.5,-187.5 1807.5,-168.5 1748.5,-168.5"/>
<text text-anchor="middle" x="1778" y="-175.5" font-family="Verdana" font-size="10.00">Results.h</text>
</a>
</g>
</g>
<!-- Node34&#45;&gt;Node38 -->
<g id="edge78" class="edge"><title>Node34&#45;&gt;Node38</title>
<path fill="none" stroke="midnightblue" d="M1653.1,-396.982C1704.21,-391.307 1783.77,-378.974 1802,-356 1838.47,-310.047 1816.23,-280.915 1802,-224 1799.56,-214.245 1794.56,-204.29 1789.76,-196.231"/>
<polygon fill="midnightblue" stroke="midnightblue" points="1792.69,-194.322 1784.37,-187.768 1786.79,-198.083 1792.69,-194.322"/>
</g>
<!-- Node39 -->
<g id="node39" class="node"><title>Node39</title>
<polygon fill="white" stroke="#bfbfbf" points="1523.5,-336.5 1523.5,-355.5 1580.5,-355.5 1580.5,-336.5 1523.5,-336.5"/>
<text text-anchor="middle" x="1552" y="-343.5" font-family="Verdana" font-size="10.00">memory</text>
</g>
<!-- Node34&#45;&gt;Node39 -->
<g id="edge84" class="edge"><title>Node34&#45;&gt;Node39</title>
<path fill="none" stroke="midnightblue" d="M1599.84,-392.324C1591.5,-384.42 1578.97,-372.548 1568.82,-362.938"/>
<polygon fill="midnightblue" stroke="midnightblue" points="1570.99,-360.171 1561.32,-355.834 1566.18,-365.252 1570.99,-360.171"/>
</g>
<!-- Node35&#45;&gt;Node4 -->
<g id="edge70" class="edge"><title>Node35&#45;&gt;Node4</title>
<path fill="none" stroke="midnightblue" d="M1428.95,-280.444C1398.92,-271.28 1351.09,-256.688 1317.76,-246.519"/>
<polygon fill="midnightblue" stroke="midnightblue" points="1318.5,-243.087 1307.91,-243.516 1316.46,-249.782 1318.5,-243.087"/>
</g>
<!-- Node35&#45;&gt;Node5 -->
<g id="edge69" class="edge"><title>Node35&#45;&gt;Node5</title>
<path fill="none" stroke="midnightblue" d="M1456.06,-280.368C1454.12,-262.617 1449.65,-221.666 1447.03,-197.597"/>
<polygon fill="midnightblue" stroke="midnightblue" points="1450.5,-197.153 1445.94,-187.591 1443.54,-197.912 1450.5,-197.153"/>
</g>
<!-- Node35&#45;&gt;Node7 -->
<g id="edge72" class="edge"><title>Node35&#45;&gt;Node7</title>
<path fill="none" stroke="midnightblue" d="M1466.64,-280.244C1488.79,-259.076 1539.27,-204.205 1510,-168 1488.19,-141.02 1387.12,-129.486 1333.55,-125.199"/>
<polygon fill="midnightblue" stroke="midnightblue" points="1333.74,-121.703 1323.5,-124.435 1333.21,-128.683 1333.74,-121.703"/>
</g>
<!-- Node35&#45;&gt;Node25 -->
<g id="edge71" class="edge"><title>Node35&#45;&gt;Node25</title>
<path fill="none" stroke="midnightblue" d="M1488.11,-280.491C1507.11,-273.69 1530.31,-262.214 1544,-244 1566.77,-213.716 1569.53,-167.505 1569.06,-141.841"/>
<polygon fill="midnightblue" stroke="midnightblue" points="1572.55,-141.489 1568.68,-131.627 1565.56,-141.75 1572.55,-141.489"/>
</g>
<!-- Node36&#45;&gt;Node6 -->
<g id="edge77" class="edge"><title>Node36&#45;&gt;Node6</title>
<path fill="none" stroke="midnightblue" d="M1704.35,-336.477C1729.67,-314.868 1794.28,-254.884 1817,-188 1819.86,-179.583 1819.13,-176.629 1817,-168 1803.49,-113.383 1805.07,-86.8149 1758,-56 1709.25,-24.0844 1297.41,-13.8712 1177.58,-11.5609"/>
<polygon fill="midnightblue" stroke="midnightblue" points="1177.3,-8.05508 1167.23,-11.3672 1177.17,-15.0539 1177.3,-8.05508"/>
</g>
<!-- Node37 -->
<g id="node37" class="node"><title>Node37</title>
<g id="a_node37"><a xlink:href="KindElement_8h.html" target="_top" xlink:title="KindElement.h">
<polygon fill="white" stroke="black" points="1636,-280.5 1636,-299.5 1722,-299.5 1722,-280.5 1636,-280.5"/>
<text text-anchor="middle" x="1679" y="-287.5" font-family="Verdana" font-size="10.00">KindElement.h</text>
</a>
</g>
</g>
<!-- Node36&#45;&gt;Node37 -->
<g id="edge74" class="edge"><title>Node36&#45;&gt;Node37</title>
<path fill="none" stroke="midnightblue" d="M1691.52,-336.083C1689.51,-328.849 1686.61,-318.409 1684.11,-309.397"/>
<polygon fill="midnightblue" stroke="midnightblue" points="1687.48,-308.449 1681.43,-299.751 1680.74,-310.323 1687.48,-308.449"/>
</g>
<!-- Node37&#45;&gt;Node4 -->
<g id="edge75" class="edge"><title>Node37&#45;&gt;Node4</title>
<path fill="none" stroke="midnightblue" d="M1635.92,-283.17C1559.13,-272.777 1399.48,-251.17 1322.85,-240.8"/>
<polygon fill="midnightblue" stroke="midnightblue" points="1322.99,-237.286 1312.61,-239.413 1322.05,-244.223 1322.99,-237.286"/>
</g>
<!-- Node37&#45;&gt;Node6 -->
<g id="edge76" class="edge"><title>Node37&#45;&gt;Node6</title>
<path fill="none" stroke="midnightblue" d="M1679.39,-280.444C1680.21,-261.943 1682,-216.827 1682,-179 1682,-179 1682,-179 1682,-121 1682,-90.2048 1682.47,-74.693 1658,-56 1619.79,-26.8149 1283.58,-14.9039 1177.16,-11.8436"/>
<polygon fill="midnightblue" stroke="midnightblue" points="1177.12,-8.34131 1167.02,-11.5593 1176.92,-15.3386 1177.12,-8.34131"/>
</g>
<!-- Node38&#45;&gt;Node6 -->
<g id="edge80" class="edge"><title>Node38&#45;&gt;Node6</title>
<path fill="none" stroke="midnightblue" d="M1777.83,-168.472C1776.88,-145.82 1770.86,-83.9703 1734,-56 1689.49,-22.2213 1293.86,-13.3417 1177.22,-11.4482"/>
<polygon fill="midnightblue" stroke="midnightblue" points="1177.19,-7.94736 1167.14,-11.2908 1177.08,-14.9465 1177.19,-7.94736"/>
</g>
<!-- Node38&#45;&gt;Node25 -->
<g id="edge79" class="edge"><title>Node38&#45;&gt;Node25</title>
<path fill="none" stroke="midnightblue" d="M1748.36,-169.378C1706.81,-158.695 1632,-139.458 1593.08,-129.448"/>
<polygon fill="midnightblue" stroke="midnightblue" points="1593.66,-125.985 1583.1,-126.884 1591.92,-132.764 1593.66,-125.985"/>
</g>
<!-- Node40&#45;&gt;Node6 -->
<g id="edge89" class="edge"><title>Node40&#45;&gt;Node6</title>
<path fill="none" stroke="midnightblue" d="M1857.16,-112.347C1850.17,-97.7532 1833.84,-68.6085 1810,-56 1753.72,-26.2308 1302.71,-14.3878 1177.27,-11.6508"/>
<polygon fill="midnightblue" stroke="midnightblue" points="1177.22,-8.14907 1167.15,-11.4345 1177.07,-15.1475 1177.22,-8.14907"/>
</g>
<!-- Node40&#45;&gt;Node8 -->
<g id="edge90" class="edge"><title>Node40&#45;&gt;Node8</title>
<path fill="none" stroke="midnightblue" d="M1823.76,-117.331C1723.59,-107.459 1449.2,-80.4213 1349.68,-70.614"/>
<polygon fill="midnightblue" stroke="midnightblue" points="1349.81,-67.1099 1339.51,-69.6123 1349.12,-74.0762 1349.81,-67.1099"/>
</g>
</g>
</svg>
