<?xml version="1.0" encoding="UTF-8" standalone="no"?>
<!DOCTYPE svg PUBLIC "-//W3C//DTD SVG 1.1//EN"
 "http://www.w3.org/Graphics/SVG/1.1/DTD/svg11.dtd">
<!-- Generated by graphviz version 2.38.0 (20140413.2041)
 -->
<!-- Title: /home/dawagner/dev/parameter&#45;framework/parameter/SimulatedBackSynchronizer.cpp Pages: 1 -->
<svg width="686pt" height="442pt"
 viewBox="0.00 0.00 686.00 442.00" xmlns="http://www.w3.org/2000/svg" xmlns:xlink="http://www.w3.org/1999/xlink">
<g id="graph0" class="graph" transform="scale(1 1) rotate(0) translate(4 438)">
<title>/home/dawagner/dev/parameter&#45;framework/parameter/SimulatedBackSynchronizer.cpp</title>
<polygon fill="white" stroke="none" points="-4,4 -4,-438 682,-438 682,4 -4,4"/>
<!-- Node1 -->
<g id="node1" class="node"><title>Node1</title>
<polygon fill="#bfbfbf" stroke="black" points="445.5,-392.5 445.5,-433.5 672.5,-433.5 672.5,-392.5 445.5,-392.5"/>
<text text-anchor="start" x="453.5" y="-421.5" font-family="Verdana" font-size="10.00">/home/dawagner/dev</text>
<text text-anchor="start" x="453.5" y="-410.5" font-family="Verdana" font-size="10.00">/parameter&#45;framework</text>
<text text-anchor="middle" x="559" y="-399.5" font-family="Verdana" font-size="10.00">/parameter/SimulatedBackSynchronizer.cpp</text>
</g>
<!-- Node2 -->
<g id="node2" class="node"><title>Node2</title>
<g id="a_node2"><a xlink:href="SimulatedBackSynchronizer_8h.html" target="_top" xlink:title="SimulatedBackSynchronizer.h">
<polygon fill="white" stroke="black" points="196.5,-336.5 196.5,-355.5 355.5,-355.5 355.5,-336.5 196.5,-336.5"/>
<text text-anchor="middle" x="276" y="-343.5" font-family="Verdana" font-size="10.00">SimulatedBackSynchronizer.h</text>
</a>
</g>
</g>
<!-- Node1&#45;&gt;Node2 -->
<g id="edge1" class="edge"><title>Node1&#45;&gt;Node2</title>
<path fill="none" stroke="midnightblue" d="M474.091,-392.498C424.71,-381.156 364.322,-367.286 323.295,-357.863"/>
<polygon fill="midnightblue" stroke="midnightblue" points="323.829,-354.394 313.3,-355.567 322.262,-361.217 323.829,-354.394"/>
</g>
<!-- Node5 -->
<g id="node5" class="node"><title>Node5</title>
<g id="a_node5"><a xlink:href="ConfigurableElement_8h.html" target="_top" xlink:title="ConfigurableElement.h">
<polygon fill="white" stroke="black" points="509.5,-168.5 509.5,-187.5 634.5,-187.5 634.5,-168.5 509.5,-168.5"/>
<text text-anchor="middle" x="572" y="-175.5" font-family="Verdana" font-size="10.00">ConfigurableElement.h</text>
</a>
</g>
</g>
<!-- Node1&#45;&gt;Node5 -->
<g id="edge27" class="edge"><title>Node1&#45;&gt;Node5</title>
<path fill="none" stroke="midnightblue" d="M566.501,-392.131C574.416,-370.02 586.372,-333.045 591,-300 596.092,-263.641 585.673,-221.287 578.349,-197.563"/>
<polygon fill="midnightblue" stroke="midnightblue" points="581.594,-196.221 575.177,-187.791 574.936,-198.383 581.594,-196.221"/>
</g>
<!-- Node3 -->
<g id="node3" class="node"><title>Node3</title>
<g id="a_node3"><a xlink:href="BackSynchronizer_8h.html" target="_top" xlink:title="BackSynchronizer.h">
<polygon fill="white" stroke="black" points="472,-280.5 472,-299.5 582,-299.5 582,-280.5 472,-280.5"/>
<text text-anchor="middle" x="527" y="-287.5" font-family="Verdana" font-size="10.00">BackSynchronizer.h</text>
</a>
</g>
</g>
<!-- Node2&#45;&gt;Node3 -->
<g id="edge2" class="edge"><title>Node2&#45;&gt;Node3</title>
<path fill="none" stroke="midnightblue" d="M315.772,-336.444C359.558,-327.023 430.014,-311.866 477.38,-301.675"/>
<polygon fill="midnightblue" stroke="midnightblue" points="478.374,-305.041 487.414,-299.516 476.902,-298.198 478.374,-305.041"/>
</g>
<!-- Node7 -->
<g id="node7" class="node"><title>Node7</title>
<polygon fill="white" stroke="#bfbfbf" points="122,-0.5 122,-19.5 166,-19.5 166,-0.5 122,-0.5"/>
<text text-anchor="middle" x="144" y="-7.5" font-family="Verdana" font-size="10.00">string</text>
</g>
<!-- Node2&#45;&gt;Node7 -->
<g id="edge26" class="edge"><title>Node2&#45;&gt;Node7</title>
<path fill="none" stroke="midnightblue" d="M229.804,-336.482C151.233,-320.666 0,-283.874 0,-235 0,-235 0,-235 0,-121 0,-64.935 69.7848,-33.6208 112.194,-19.7672"/>
<polygon fill="midnightblue" stroke="midnightblue" points="113.31,-23.0854 121.816,-16.7682 111.227,-16.4025 113.31,-23.0854"/>
</g>
<!-- Node14 -->
<g id="node14" class="node"><title>Node14</title>
<g id="a_node14"><a xlink:href="ParameterAccessContext_8h.html" target="_top" xlink:title="ParameterAccessContext.h">
<polygon fill="white" stroke="black" points="28.5,-112.5 28.5,-131.5 175.5,-131.5 175.5,-112.5 28.5,-112.5"/>
<text text-anchor="middle" x="102" y="-119.5" font-family="Verdana" font-size="10.00">ParameterAccessContext.h</text>
</a>
</g>
</g>
<!-- Node2&#45;&gt;Node14 -->
<g id="edge21" class="edge"><title>Node2&#45;&gt;Node14</title>
<path fill="none" stroke="midnightblue" d="M269.179,-336.297C243.197,-303.148 150.135,-184.414 115.294,-139.961"/>
<polygon fill="midnightblue" stroke="midnightblue" points="117.886,-137.595 108.963,-131.884 112.377,-141.913 117.886,-137.595"/>
</g>
<!-- Node4 -->
<g id="node4" class="node"><title>Node4</title>
<g id="a_node4"><a xlink:href="ConfigurableElementAggregator_8h.html" target="_top" xlink:title="ConfigurableElementAggregator.h">
<polygon fill="white" stroke="black" points="378.5,-224.5 378.5,-243.5 557.5,-243.5 557.5,-224.5 378.5,-224.5"/>
<text text-anchor="middle" x="468" y="-231.5" font-family="Verdana" font-size="10.00">ConfigurableElementAggregator.h</text>
</a>
</g>
</g>
<!-- Node3&#45;&gt;Node4 -->
<g id="edge3" class="edge"><title>Node3&#45;&gt;Node4</title>
<path fill="none" stroke="midnightblue" d="M517.521,-280.324C508.799,-272.341 495.657,-260.313 485.102,-250.653"/>
<polygon fill="midnightblue" stroke="midnightblue" points="487.392,-248.004 477.652,-243.834 482.666,-253.167 487.392,-248.004"/>
</g>
<!-- Node3&#45;&gt;Node5 -->
<g id="edge19" class="edge"><title>Node3&#45;&gt;Node5</title>
<path fill="none" stroke="midnightblue" d="M537.666,-280.236C546.91,-271.955 559.755,-258.645 566,-244 572.189,-229.487 573.421,-211.536 573.257,-198.178"/>
<polygon fill="midnightblue" stroke="midnightblue" points="576.74,-197.676 572.843,-187.824 569.745,-197.955 576.74,-197.676"/>
</g>
<!-- Node10 -->
<g id="node10" class="node"><title>Node10</title>
<polygon fill="white" stroke="#bfbfbf" points="648,-56.5 648,-75.5 678,-75.5 678,-56.5 648,-56.5"/>
<text text-anchor="middle" x="663" y="-63.5" font-family="Verdana" font-size="10.00">list</text>
</g>
<!-- Node3&#45;&gt;Node10 -->
<g id="edge20" class="edge"><title>Node3&#45;&gt;Node10</title>
<path fill="none" stroke="midnightblue" d="M543.015,-280.295C568.937,-265.259 619.545,-231.78 643,-188 660.621,-155.11 663.489,-110.547 663.545,-85.7061"/>
<polygon fill="midnightblue" stroke="midnightblue" points="667.043,-85.4642 663.408,-75.5124 660.043,-85.5587 667.043,-85.4642"/>
</g>
<!-- Node4&#45;&gt;Node5 -->
<g id="edge4" class="edge"><title>Node4&#45;&gt;Node5</title>
<path fill="none" stroke="midnightblue" d="M484.709,-224.324C501.312,-215.703 527.002,-202.364 546.22,-192.386"/>
<polygon fill="midnightblue" stroke="midnightblue" points="548.07,-195.369 555.332,-187.655 544.844,-189.156 548.07,-195.369"/>
</g>
<!-- Node4&#45;&gt;Node7 -->
<g id="edge18" class="edge"><title>Node4&#45;&gt;Node7</title>
<path fill="none" stroke="midnightblue" d="M455.299,-224.297C406,-190.518 227.001,-67.8708 165.175,-25.5088"/>
<polygon fill="midnightblue" stroke="midnightblue" points="166.841,-22.4076 156.613,-19.6425 162.884,-28.1821 166.841,-22.4076"/>
</g>
<!-- Node4&#45;&gt;Node10 -->
<g id="edge17" class="edge"><title>Node4&#45;&gt;Node10</title>
<path fill="none" stroke="midnightblue" d="M470.62,-224.096C474.934,-210.655 484.619,-184.955 500,-168 539.903,-124.015 603.344,-92.2869 638.143,-77.092"/>
<polygon fill="midnightblue" stroke="midnightblue" points="639.732,-80.2192 647.56,-73.0796 636.989,-73.7793 639.732,-80.2192"/>
</g>
<!-- Node6 -->
<g id="node6" class="node"><title>Node6</title>
<g id="a_node6"><a xlink:href="Element_8h.html" target="_top" xlink:title="Element.h">
<polygon fill="white" stroke="black" points="387.5,-112.5 387.5,-131.5 452.5,-131.5 452.5,-112.5 387.5,-112.5"/>
<text text-anchor="middle" x="420" y="-119.5" font-family="Verdana" font-size="10.00">Element.h</text>
</a>
</g>
</g>
<!-- Node5&#45;&gt;Node6 -->
<g id="edge5" class="edge"><title>Node5&#45;&gt;Node6</title>
<path fill="none" stroke="midnightblue" d="M547.915,-168.444C522.455,-159.399 482.106,-145.064 453.541,-134.916"/>
<polygon fill="midnightblue" stroke="midnightblue" points="454.567,-131.566 443.972,-131.516 452.223,-138.162 454.567,-131.566"/>
</g>
<!-- Node5&#45;&gt;Node10 -->
<g id="edge16" class="edge"><title>Node5&#45;&gt;Node10</title>
<path fill="none" stroke="midnightblue" d="M579.141,-168.368C594.291,-150.055 629.869,-107.049 649.464,-83.3624"/>
<polygon fill="midnightblue" stroke="midnightblue" points="652.215,-85.5276 655.893,-75.5914 646.821,-81.0656 652.215,-85.5276"/>
</g>
<!-- Node6&#45;&gt;Node7 -->
<g id="edge6" class="edge"><title>Node6&#45;&gt;Node7</title>
<path fill="none" stroke="midnightblue" d="M395.57,-112.363C370.85,-103.535 331.592,-89.2765 298,-76 254.164,-58.6752 203.962,-37.1691 173.117,-23.7614"/>
<polygon fill="midnightblue" stroke="midnightblue" points="174.38,-20.4943 163.815,-19.7083 171.584,-26.9115 174.38,-20.4943"/>
</g>
<!-- Node8 -->
<g id="node8" class="node"><title>Node8</title>
<polygon fill="white" stroke="#bfbfbf" points="470.5,-0.5 470.5,-19.5 517.5,-19.5 517.5,-0.5 470.5,-0.5"/>
<text text-anchor="middle" x="494" y="-7.5" font-family="Verdana" font-size="10.00">vector</text>
</g>
<!-- Node6&#45;&gt;Node8 -->
<g id="edge7" class="edge"><title>Node6&#45;&gt;Node8</title>
<path fill="none" stroke="midnightblue" d="M452.799,-113.891C503.455,-102.757 595.416,-81.8713 600,-76 622.927,-46.6356 566.77,-27.3226 527.736,-17.8539"/>
<polygon fill="midnightblue" stroke="midnightblue" points="528.281,-14.3878 517.75,-15.5511 526.708,-21.2088 528.281,-14.3878"/>
</g>
<!-- Node9 -->
<g id="node9" class="node"><title>Node9</title>
<polygon fill="white" stroke="#bfbfbf" points="267.5,-0.5 267.5,-19.5 320.5,-19.5 320.5,-0.5 267.5,-0.5"/>
<text text-anchor="middle" x="294" y="-7.5" font-family="Verdana" font-size="10.00">stdint.h</text>
</g>
<!-- Node6&#45;&gt;Node9 -->
<g id="edge8" class="edge"><title>Node6&#45;&gt;Node9</title>
<path fill="none" stroke="midnightblue" d="M387.076,-115.006C363.325,-109.024 332.186,-97.5024 313,-76 301.635,-63.2635 297.05,-44.0667 295.21,-29.8341"/>
<polygon fill="midnightblue" stroke="midnightblue" points="298.677,-29.3256 294.246,-19.7023 291.709,-29.9889 298.677,-29.3256"/>
</g>
<!-- Node6&#45;&gt;Node10 -->
<g id="edge9" class="edge"><title>Node6&#45;&gt;Node10</title>
<path fill="none" stroke="midnightblue" d="M452.823,-114.49C503.91,-104.291 600.102,-84.8036 634,-76 635.263,-75.672 636.553,-75.3234 637.852,-74.9611"/>
<polygon fill="midnightblue" stroke="midnightblue" points="639.133,-78.2321 647.726,-72.0341 637.143,-71.5208 639.133,-78.2321"/>
</g>
<!-- Node11 -->
<g id="node11" class="node"><title>Node11</title>
<polygon fill="white" stroke="#bfbfbf" points="432,-56.5 432,-75.5 496,-75.5 496,-56.5 432,-56.5"/>
<text text-anchor="middle" x="464" y="-63.5" font-family="Verdana" font-size="10.00">XmlSink.h</text>
</g>
<!-- Node6&#45;&gt;Node11 -->
<g id="edge10" class="edge"><title>Node6&#45;&gt;Node11</title>
<path fill="none" stroke="midnightblue" d="M427.266,-112.083C433.545,-104.377 442.788,-93.0333 450.431,-83.6531"/>
<polygon fill="midnightblue" stroke="midnightblue" points="453.266,-85.7143 456.869,-75.7511 447.839,-81.2926 453.266,-85.7143"/>
</g>
<!-- Node12 -->
<g id="node12" class="node"><title>Node12</title>
<polygon fill="white" stroke="#bfbfbf" points="514.5,-56.5 514.5,-75.5 591.5,-75.5 591.5,-56.5 514.5,-56.5"/>
<text text-anchor="middle" x="553" y="-63.5" font-family="Verdana" font-size="10.00">XmlSource.h</text>
</g>
<!-- Node6&#45;&gt;Node12 -->
<g id="edge11" class="edge"><title>Node6&#45;&gt;Node12</title>
<path fill="none" stroke="midnightblue" d="M441.074,-112.444C463.06,-103.517 497.734,-89.4387 522.664,-79.3168"/>
<polygon fill="midnightblue" stroke="midnightblue" points="524.076,-82.5213 532.024,-75.5164 521.442,-76.0355 524.076,-82.5213"/>
</g>
<!-- Node13 -->
<g id="node13" class="node"><title>Node13</title>
<g id="a_node13"><a xlink:href="PathNavigator_8h.html" target="_top" xlink:title="PathNavigator.h">
<polygon fill="white" stroke="black" points="322,-56.5 322,-75.5 414,-75.5 414,-56.5 322,-56.5"/>
<text text-anchor="middle" x="368" y="-63.5" font-family="Verdana" font-size="10.00">PathNavigator.h</text>
</a>
</g>
</g>
<!-- Node6&#45;&gt;Node13 -->
<g id="edge12" class="edge"><title>Node6&#45;&gt;Node13</title>
<path fill="none" stroke="midnightblue" d="M411.413,-112.083C403.841,-104.22 392.622,-92.5688 383.486,-83.0813"/>
<polygon fill="midnightblue" stroke="midnightblue" points="385.885,-80.5266 376.427,-75.7511 380.842,-85.3821 385.885,-80.5266"/>
</g>
<!-- Node13&#45;&gt;Node7 -->
<g id="edge14" class="edge"><title>Node13&#45;&gt;Node7</title>
<path fill="none" stroke="midnightblue" d="M332.507,-56.4435C289.405,-46.0529 217.346,-28.6816 175.922,-18.6955"/>
<polygon fill="midnightblue" stroke="midnightblue" points="176.629,-15.2657 166.087,-16.3245 174.988,-22.0707 176.629,-15.2657"/>
</g>
<!-- Node13&#45;&gt;Node8 -->
<g id="edge13" class="edge"><title>Node13&#45;&gt;Node8</title>
<path fill="none" stroke="midnightblue" d="M387.965,-56.4435C408.609,-47.5961 441.063,-33.6875 464.632,-23.5865"/>
<polygon fill="midnightblue" stroke="midnightblue" points="466.316,-26.6727 474.128,-19.5164 463.558,-20.2387 466.316,-26.6727"/>
</g>
<!-- Node13&#45;&gt;Node9 -->
<g id="edge15" class="edge"><title>Node13&#45;&gt;Node9</title>
<path fill="none" stroke="midnightblue" d="M356.111,-56.324C344.85,-48.1066 327.713,-35.6017 314.291,-25.8069"/>
<polygon fill="midnightblue" stroke="midnightblue" points="316.247,-22.9014 306.106,-19.8339 312.12,-28.5559 316.247,-22.9014"/>
</g>
<!-- Node14&#45;&gt;Node7 -->
<g id="edge25" class="edge"><title>Node14&#45;&gt;Node7</title>
<path fill="none" stroke="midnightblue" d="M88.4757,-112.387C71.0158,-100.142 44.2986,-76.8696 57,-56 68.895,-36.4554 92.3184,-25.0248 111.866,-18.578"/>
<polygon fill="midnightblue" stroke="midnightblue" points="113.08,-21.8682 121.654,-15.6444 111.07,-15.1629 113.08,-21.8682"/>
</g>
<!-- Node14&#45;&gt;Node9 -->
<g id="edge22" class="edge"><title>Node14&#45;&gt;Node9</title>
<path fill="none" stroke="midnightblue" d="M117.066,-112.368C150.294,-93.3318 230.09,-47.6153 270.174,-24.6505"/>
<polygon fill="midnightblue" stroke="midnightblue" points="272.067,-27.5995 279.004,-19.5914 268.587,-21.5257 272.067,-27.5995"/>
</g>
<!-- Node15 -->
<g id="node15" class="node"><title>Node15</title>
<g id="a_node15"><a xlink:href="ErrorContext_8h.html" target="_top" xlink:title="ErrorContext.h">
<polygon fill="white" stroke="black" points="66,-56.5 66,-75.5 152,-75.5 152,-56.5 66,-56.5"/>
<text text-anchor="middle" x="109" y="-63.5" font-family="Verdana" font-size="10.00">ErrorContext.h</text>
</a>
</g>
</g>
<!-- Node14&#45;&gt;Node15 -->
<g id="edge23" class="edge"><title>Node14&#45;&gt;Node15</title>
<path fill="none" stroke="midnightblue" d="M103.156,-112.083C104.084,-104.927 105.418,-94.6353 106.577,-85.6911"/>
<polygon fill="midnightblue" stroke="midnightblue" points="110.051,-86.1181 107.866,-75.7511 103.109,-85.2181 110.051,-86.1181"/>
</g>
<!-- Node15&#45;&gt;Node7 -->
<g id="edge24" class="edge"><title>Node15&#45;&gt;Node7</title>
<path fill="none" stroke="midnightblue" d="M114.78,-56.083C119.672,-48.5341 126.827,-37.4948 132.833,-28.2298"/>
<polygon fill="midnightblue" stroke="midnightblue" points="135.826,-30.0463 138.328,-19.7511 129.952,-26.239 135.826,-30.0463"/>
</g>
</g>
</svg>
