<?xml version="1.0" encoding="UTF-8" standalone="no"?>
<!DOCTYPE svg PUBLIC "-//W3C//DTD SVG 1.1//EN"
 "http://www.w3.org/Graphics/SVG/1.1/DTD/svg11.dtd">
<!-- Generated by graphviz version 2.38.0 (20140413.2041)
 -->
<!-- Title: parameter/StringParameterType.cpp Pages: 1 -->
<svg width="1060pt" height="543pt"
 viewBox="0.00 0.00 1059.91 543.00" xmlns="http://www.w3.org/2000/svg" xmlns:xlink="http://www.w3.org/1999/xlink">
<g id="graph0" class="graph" transform="scale(1 1) rotate(0) translate(4 539)">
<title>parameter/StringParameterType.cpp</title>
<polygon fill="white" stroke="none" points="-4,4 -4,-539 1055.91,-539 1055.91,4 -4,4"/>
<!-- Node1 -->
<g id="node1" class="node"><title>Node1</title>
<polygon fill="#bfbfbf" stroke="black" points="664.414,-504.5 664.414,-534.5 813.414,-534.5 813.414,-504.5 664.414,-504.5"/>
<text text-anchor="start" x="672.414" y="-522.5" font-family="Verdana" font-size="10.00">parameter/StringParameter</text>
<text text-anchor="middle" x="738.914" y="-511.5" font-family="Verdana" font-size="10.00">Type.cpp</text>
</g>
<!-- Node2 -->
<g id="node2" class="node"><title>Node2</title>
<g id="a_node2"><a xlink:href="StringParameterType_8h.html" target="_top" xlink:title="StringParameterType.h">
<polygon fill="white" stroke="black" points="258.414,-336.5 258.414,-355.5 383.414,-355.5 383.414,-336.5 258.414,-336.5"/>
<text text-anchor="middle" x="320.914" y="-343.5" font-family="Verdana" font-size="10.00">StringParameterType.h</text>
</a>
</g>
</g>
<!-- Node1&#45;&gt;Node2 -->
<g id="edge1" class="edge"><title>Node1&#45;&gt;Node2</title>
<path fill="none" stroke="midnightblue" d="M704.707,-504.465C624.841,-471.697 427.124,-390.577 351.239,-359.442"/>
<polygon fill="midnightblue" stroke="midnightblue" points="352.357,-356.118 341.776,-355.56 349.699,-362.594 352.357,-356.118"/>
</g>
<!-- Node16 -->
<g id="node16" class="node"><title>Node16</title>
<g id="a_node16"><a xlink:href="StringParameter_8h.html" target="_top" xlink:title="StringParameter.h">
<polygon fill="white" stroke="black" points="686.914,-448.5 686.914,-467.5 790.914,-467.5 790.914,-448.5 686.914,-448.5"/>
<text text-anchor="middle" x="738.914" y="-455.5" font-family="Verdana" font-size="10.00">StringParameter.h</text>
</a>
</g>
</g>
<!-- Node1&#45;&gt;Node16 -->
<g id="edge28" class="edge"><title>Node1&#45;&gt;Node16</title>
<path fill="none" stroke="midnightblue" d="M738.914,-504.399C738.914,-496.466 738.914,-486.458 738.914,-477.858"/>
<polygon fill="midnightblue" stroke="midnightblue" points="742.414,-477.658 738.914,-467.658 735.414,-477.658 742.414,-477.658"/>
</g>
<!-- Node21 -->
<g id="node21" class="node"><title>Node21</title>
<g id="a_node21"><a xlink:href="Utility_8h.html" target="_top" xlink:title="Utility.h">
<polygon fill="white" stroke="black" points="843.414,-280.5 843.414,-299.5 894.414,-299.5 894.414,-280.5 843.414,-280.5"/>
<text text-anchor="middle" x="868.914" y="-287.5" font-family="Verdana" font-size="10.00">Utility.h</text>
</a>
</g>
</g>
<!-- Node1&#45;&gt;Node21 -->
<g id="edge43" class="edge"><title>Node1&#45;&gt;Node21</title>
<path fill="none" stroke="midnightblue" d="M761.094,-504.372C773.882,-495.285 789.449,-482.489 799.914,-468 836.695,-417.074 856.94,-343.947 864.895,-309.846"/>
<polygon fill="midnightblue" stroke="midnightblue" points="868.36,-310.388 867.127,-299.865 861.529,-308.86 868.36,-310.388"/>
</g>
<!-- Node3 -->
<g id="node3" class="node"><title>Node3</title>
<polygon fill="white" stroke="#bfbfbf" points="575.414,-56.5 575.414,-75.5 628.414,-75.5 628.414,-56.5 575.414,-56.5"/>
<text text-anchor="middle" x="601.914" y="-63.5" font-family="Verdana" font-size="10.00">stdint.h</text>
</g>
<!-- Node2&#45;&gt;Node3 -->
<g id="edge2" class="edge"><title>Node2&#45;&gt;Node3</title>
<path fill="none" stroke="midnightblue" d="M350.487,-336.423C417.434,-315.107 578.737,-252.551 629.914,-132 636.858,-115.643 627.019,-97.0218 617.145,-83.9156"/>
<polygon fill="midnightblue" stroke="midnightblue" points="619.554,-81.3341 610.508,-75.8187 614.14,-85.7715 619.554,-81.3341"/>
</g>
<!-- Node4 -->
<g id="node4" class="node"><title>Node4</title>
<g id="a_node4"><a xlink:href="TypeElement_8h.html" target="_top" xlink:title="TypeElement.h">
<polygon fill="white" stroke="black" points="205.914,-280.5 205.914,-299.5 291.914,-299.5 291.914,-280.5 205.914,-280.5"/>
<text text-anchor="middle" x="248.914" y="-287.5" font-family="Verdana" font-size="10.00">TypeElement.h</text>
</a>
</g>
</g>
<!-- Node2&#45;&gt;Node4 -->
<g id="edge3" class="edge"><title>Node2&#45;&gt;Node4</title>
<path fill="none" stroke="midnightblue" d="M309.346,-336.324C298.493,-328.185 282.033,-315.839 269.03,-306.087"/>
<polygon fill="midnightblue" stroke="midnightblue" points="270.792,-303.034 260.692,-299.834 266.592,-308.634 270.792,-303.034"/>
</g>
<!-- Node7 -->
<g id="node7" class="node"><title>Node7</title>
<polygon fill="white" stroke="#bfbfbf" points="293.914,-0.5 293.914,-19.5 337.914,-19.5 337.914,-0.5 293.914,-0.5"/>
<text text-anchor="middle" x="315.914" y="-7.5" font-family="Verdana" font-size="10.00">string</text>
</g>
<!-- Node2&#45;&gt;Node7 -->
<g id="edge27" class="edge"><title>Node2&#45;&gt;Node7</title>
<path fill="none" stroke="midnightblue" d="M258.455,-336.499C165.329,-322.047 0.913656,-288.9 0.913656,-235 0.913656,-235 0.913656,-235 0.913656,-121 0.913656,-90.9022 -2.74097,-75.8153 19.9137,-56 58.723,-22.0548 215.143,-13.6966 283.583,-11.6539"/>
<polygon fill="midnightblue" stroke="midnightblue" points="283.879,-15.1472 293.78,-11.3773 283.689,-8.14978 283.879,-15.1472"/>
</g>
<!-- Node5 -->
<g id="node5" class="node"><title>Node5</title>
<polygon fill="white" stroke="#bfbfbf" points="67.4137,-168.5 67.4137,-187.5 180.414,-187.5 180.414,-168.5 67.4137,-168.5"/>
<text text-anchor="middle" x="123.914" y="-175.5" font-family="Verdana" font-size="10.00">parameter_export.h</text>
</g>
<!-- Node4&#45;&gt;Node5 -->
<g id="edge4" class="edge"><title>Node4&#45;&gt;Node5</title>
<path fill="none" stroke="midnightblue" d="M239.105,-280.368C218.02,-261.814 168.133,-217.913 141.456,-194.438"/>
<polygon fill="midnightblue" stroke="midnightblue" points="143.496,-191.57 133.677,-187.591 138.872,-196.825 143.496,-191.57"/>
</g>
<!-- Node6 -->
<g id="node6" class="node"><title>Node6</title>
<g id="a_node6"><a xlink:href="Element_8h.html" target="_top" xlink:title="Element.h">
<polygon fill="white" stroke="black" points="386.414,-224.5 386.414,-243.5 451.414,-243.5 451.414,-224.5 386.414,-224.5"/>
<text text-anchor="middle" x="418.914" y="-231.5" font-family="Verdana" font-size="10.00">Element.h</text>
</a>
</g>
</g>
<!-- Node4&#45;&gt;Node6 -->
<g id="edge5" class="edge"><title>Node4&#45;&gt;Node6</title>
<path fill="none" stroke="midnightblue" d="M275.851,-280.444C304.574,-271.32 350.242,-256.813 382.235,-246.651"/>
<polygon fill="midnightblue" stroke="midnightblue" points="383.632,-249.88 392.103,-243.516 381.512,-243.208 383.632,-249.88"/>
</g>
<!-- Node4&#45;&gt;Node7 -->
<g id="edge26" class="edge"><title>Node4&#45;&gt;Node7</title>
<path fill="none" stroke="midnightblue" d="M205.849,-281.528C141.154,-268.02 29.3283,-234.543 57.9137,-168 97.7407,-75.2873 223.488,-33.2436 283.469,-18.0822"/>
<polygon fill="midnightblue" stroke="midnightblue" points="284.639,-21.3998 293.529,-15.6368 282.985,-14.5979 284.639,-21.3998"/>
</g>
<!-- Node6&#45;&gt;Node3 -->
<g id="edge9" class="edge"><title>Node6&#45;&gt;Node3</title>
<path fill="none" stroke="midnightblue" d="M447.315,-224.355C467.778,-217.083 495.153,-205.109 514.914,-188 545.48,-161.534 540.929,-144.55 564.914,-112 572.038,-102.331 580.515,-91.9492 587.556,-83.5968"/>
<polygon fill="midnightblue" stroke="midnightblue" points="590.429,-85.6214 594.256,-75.7421 585.103,-81.0782 590.429,-85.6214"/>
</g>
<!-- Node6&#45;&gt;Node5 -->
<g id="edge6" class="edge"><title>Node6&#45;&gt;Node5</title>
<path fill="none" stroke="midnightblue" d="M386.305,-226.713C381.481,-225.796 376.569,-224.868 371.914,-224 306.919,-211.881 232.257,-198.392 181.979,-189.372"/>
<polygon fill="midnightblue" stroke="midnightblue" points="182.406,-185.893 171.945,-187.573 181.171,-192.783 182.406,-185.893"/>
</g>
<!-- Node6&#45;&gt;Node7 -->
<g id="edge7" class="edge"><title>Node6&#45;&gt;Node7</title>
<path fill="none" stroke="midnightblue" d="M415.323,-224.43C406.956,-204.545 385.392,-153.779 365.914,-112 352.185,-82.5532 335.229,-48.8122 325.009,-28.7376"/>
<polygon fill="midnightblue" stroke="midnightblue" points="327.997,-26.8939 320.331,-19.5807 321.764,-30.0783 327.997,-26.8939"/>
</g>
<!-- Node8 -->
<g id="node8" class="node"><title>Node8</title>
<polygon fill="white" stroke="#bfbfbf" points="574.414,-112.5 574.414,-131.5 621.414,-131.5 621.414,-112.5 574.414,-112.5"/>
<text text-anchor="middle" x="597.914" y="-119.5" font-family="Verdana" font-size="10.00">vector</text>
</g>
<!-- Node6&#45;&gt;Node8 -->
<g id="edge8" class="edge"><title>Node6&#45;&gt;Node8</title>
<path fill="none" stroke="midnightblue" d="M451.561,-227.081C479.212,-220.855 518.876,-208.967 547.914,-188 565.17,-175.54 579.323,-155.466 588.113,-140.919"/>
<polygon fill="midnightblue" stroke="midnightblue" points="591.354,-142.306 593.313,-131.894 585.288,-138.811 591.354,-142.306"/>
</g>
<!-- Node9 -->
<g id="node9" class="node"><title>Node9</title>
<g id="a_node9"><a xlink:href="XmlSink_8h.html" target="_top" xlink:title="XmlSink.h">
<polygon fill="white" stroke="black" points="293.914,-168.5 293.914,-187.5 357.914,-187.5 357.914,-168.5 293.914,-168.5"/>
<text text-anchor="middle" x="325.914" y="-175.5" font-family="Verdana" font-size="10.00">XmlSink.h</text>
</a>
</g>
</g>
<!-- Node6&#45;&gt;Node9 -->
<g id="edge10" class="edge"><title>Node6&#45;&gt;Node9</title>
<path fill="none" stroke="midnightblue" d="M403.972,-224.324C389.328,-215.822 366.78,-202.729 349.676,-192.797"/>
<polygon fill="midnightblue" stroke="midnightblue" points="351.224,-189.649 340.819,-187.655 347.709,-195.703 351.224,-189.649"/>
</g>
<!-- Node14 -->
<g id="node14" class="node"><title>Node14</title>
<g id="a_node14"><a xlink:href="XmlSource_8h.html" target="_top" xlink:title="XmlSource.h">
<polygon fill="white" stroke="black" points="198.414,-168.5 198.414,-187.5 275.414,-187.5 275.414,-168.5 198.414,-168.5"/>
<text text-anchor="middle" x="236.914" y="-175.5" font-family="Verdana" font-size="10.00">XmlSource.h</text>
</a>
</g>
</g>
<!-- Node6&#45;&gt;Node14 -->
<g id="edge19" class="edge"><title>Node6&#45;&gt;Node14</title>
<path fill="none" stroke="midnightblue" d="M390.075,-224.444C359.058,-215.241 309.584,-200.562 275.295,-190.388"/>
<polygon fill="midnightblue" stroke="midnightblue" points="276.2,-187.006 265.617,-187.516 274.209,-193.716 276.2,-187.006"/>
</g>
<!-- Node15 -->
<g id="node15" class="node"><title>Node15</title>
<g id="a_node15"><a xlink:href="PathNavigator_8h.html" target="_top" xlink:title="PathNavigator.h">
<polygon fill="white" stroke="black" points="413.914,-168.5 413.914,-187.5 505.914,-187.5 505.914,-168.5 413.914,-168.5"/>
<text text-anchor="middle" x="459.914" y="-175.5" font-family="Verdana" font-size="10.00">PathNavigator.h</text>
</a>
</g>
</g>
<!-- Node6&#45;&gt;Node15 -->
<g id="edge22" class="edge"><title>Node6&#45;&gt;Node15</title>
<path fill="none" stroke="midnightblue" d="M425.684,-224.083C431.475,-216.455 439.972,-205.264 447.051,-195.941"/>
<polygon fill="midnightblue" stroke="midnightblue" points="450.01,-197.832 453.269,-187.751 444.435,-193.599 450.01,-197.832"/>
</g>
<!-- Node10 -->
<g id="node10" class="node"><title>Node10</title>
<g id="a_node10"><a xlink:href="XmlElement_8h.html" target="_top" xlink:title="XmlElement.h">
<polygon fill="white" stroke="black" points="274.414,-112.5 274.414,-131.5 357.414,-131.5 357.414,-112.5 274.414,-112.5"/>
<text text-anchor="middle" x="315.914" y="-119.5" font-family="Verdana" font-size="10.00">XmlElement.h</text>
</a>
</g>
</g>
<!-- Node9&#45;&gt;Node10 -->
<g id="edge11" class="edge"><title>Node9&#45;&gt;Node10</title>
<path fill="none" stroke="midnightblue" d="M324.262,-168.083C322.937,-160.927 321.031,-150.635 319.375,-141.691"/>
<polygon fill="midnightblue" stroke="midnightblue" points="322.797,-140.947 317.534,-131.751 315.914,-142.221 322.797,-140.947"/>
</g>
<!-- Node11 -->
<g id="node11" class="node"><title>Node11</title>
<g id="a_node11"><a xlink:href="XmlSerializingContext_8h.html" target="_top" xlink:title="XmlSerializingContext.h">
<polygon fill="white" stroke="black" points="125.914,-112.5 125.914,-131.5 255.914,-131.5 255.914,-112.5 125.914,-112.5"/>
<text text-anchor="middle" x="190.914" y="-119.5" font-family="Verdana" font-size="10.00">XmlSerializingContext.h</text>
</a>
</g>
</g>
<!-- Node9&#45;&gt;Node11 -->
<g id="edge14" class="edge"><title>Node9&#45;&gt;Node11</title>
<path fill="none" stroke="midnightblue" d="M304.523,-168.444C282.206,-159.517 247.01,-145.439 221.706,-135.317"/>
<polygon fill="midnightblue" stroke="midnightblue" points="222.789,-131.981 212.205,-131.516 220.19,-138.48 222.789,-131.981"/>
</g>
<!-- Node10&#45;&gt;Node3 -->
<g id="edge12" class="edge"><title>Node10&#45;&gt;Node3</title>
<path fill="none" stroke="midnightblue" d="M357.501,-113.148C413.419,-102.59 511.961,-83.984 565.243,-73.9239"/>
<polygon fill="midnightblue" stroke="midnightblue" points="566.092,-77.3254 575.269,-72.0308 564.794,-70.4469 566.092,-77.3254"/>
</g>
<!-- Node10&#45;&gt;Node7 -->
<g id="edge13" class="edge"><title>Node10&#45;&gt;Node7</title>
<path fill="none" stroke="midnightblue" d="M315.914,-112.368C315.914,-94.617 315.914,-53.6664 315.914,-29.5974"/>
<polygon fill="midnightblue" stroke="midnightblue" points="319.414,-29.5914 315.914,-19.5914 312.414,-29.5915 319.414,-29.5914"/>
</g>
<!-- Node11&#45;&gt;Node7 -->
<g id="edge18" class="edge"><title>Node11&#45;&gt;Node7</title>
<path fill="none" stroke="midnightblue" d="M200.722,-112.368C221.807,-93.8137 271.694,-49.9129 298.371,-26.4376"/>
<polygon fill="midnightblue" stroke="midnightblue" points="300.956,-28.8252 306.151,-19.5914 296.331,-23.5702 300.956,-28.8252"/>
</g>
<!-- Node12 -->
<g id="node12" class="node"><title>Node12</title>
<g id="a_node12"><a xlink:href="ErrorContext_8hpp.html" target="_top" xlink:title="ErrorContext.hpp">
<polygon fill="white" stroke="black" points="28.9137,-56.5 28.9137,-75.5 126.914,-75.5 126.914,-56.5 28.9137,-56.5"/>
<text text-anchor="middle" x="77.9137" y="-63.5" font-family="Verdana" font-size="10.00">ErrorContext.hpp</text>
</a>
</g>
</g>
<!-- Node11&#45;&gt;Node12 -->
<g id="edge15" class="edge"><title>Node11&#45;&gt;Node12</title>
<path fill="none" stroke="midnightblue" d="M173.008,-112.444C154.66,-103.675 125.908,-89.9355 104.82,-79.8579"/>
<polygon fill="midnightblue" stroke="midnightblue" points="106.267,-76.6703 95.7351,-75.5164 103.249,-82.9862 106.267,-76.6703"/>
</g>
<!-- Node12&#45;&gt;Node7 -->
<g id="edge16" class="edge"><title>Node12&#45;&gt;Node7</title>
<path fill="none" stroke="midnightblue" d="M115.625,-56.4435C162.101,-45.8987 240.262,-28.1646 283.934,-18.256"/>
<polygon fill="midnightblue" stroke="midnightblue" points="284.76,-21.6575 293.738,-16.0315 283.211,-14.831 284.76,-21.6575"/>
</g>
<!-- Node13 -->
<g id="node13" class="node"><title>Node13</title>
<g id="a_node13"><a xlink:href="NonCopyable_8hpp.html" target="_top" xlink:title="NonCopyable.hpp">
<polygon fill="white" stroke="black" points="27.4137,-0.5 27.4137,-19.5 128.414,-19.5 128.414,-0.5 27.4137,-0.5"/>
<text text-anchor="middle" x="77.9137" y="-7.5" font-family="Verdana" font-size="10.00">NonCopyable.hpp</text>
</a>
</g>
</g>
<!-- Node12&#45;&gt;Node13 -->
<g id="edge17" class="edge"><title>Node12&#45;&gt;Node13</title>
<path fill="none" stroke="midnightblue" d="M77.9137,-56.083C77.9137,-49.0059 77.9137,-38.8611 77.9137,-29.9865"/>
<polygon fill="midnightblue" stroke="midnightblue" points="81.4138,-29.751 77.9137,-19.7511 74.4138,-29.7511 81.4138,-29.751"/>
</g>
<!-- Node14&#45;&gt;Node10 -->
<g id="edge20" class="edge"><title>Node14&#45;&gt;Node10</title>
<path fill="none" stroke="midnightblue" d="M249.606,-168.324C261.815,-159.979 280.492,-147.212 294.917,-137.352"/>
<polygon fill="midnightblue" stroke="midnightblue" points="296.972,-140.187 303.252,-131.655 293.022,-134.408 296.972,-140.187"/>
</g>
<!-- Node14&#45;&gt;Node11 -->
<g id="edge21" class="edge"><title>Node14&#45;&gt;Node11</title>
<path fill="none" stroke="midnightblue" d="M229.318,-168.083C222.686,-160.298 212.893,-148.801 204.856,-139.367"/>
<polygon fill="midnightblue" stroke="midnightblue" points="207.517,-137.094 198.368,-131.751 202.189,-141.633 207.517,-137.094"/>
</g>
<!-- Node15&#45;&gt;Node3 -->
<g id="edge25" class="edge"><title>Node15&#45;&gt;Node3</title>
<path fill="none" stroke="midnightblue" d="M466.536,-168.162C476.858,-154.807 497.895,-129.217 519.914,-112 536.275,-99.2063 556.755,-87.964 573.155,-79.9163"/>
<polygon fill="midnightblue" stroke="midnightblue" points="574.762,-83.0274 582.278,-75.5595 571.746,-76.7108 574.762,-83.0274"/>
</g>
<!-- Node15&#45;&gt;Node7 -->
<g id="edge24" class="edge"><title>Node15&#45;&gt;Node7</title>
<path fill="none" stroke="midnightblue" d="M457.613,-168.303C451.537,-146.791 433.201,-90.3514 399.914,-56 385.381,-41.0029 364.758,-29.8547 347.583,-22.4059"/>
<polygon fill="midnightblue" stroke="midnightblue" points="348.521,-19.0077 337.941,-18.4465 345.862,-25.483 348.521,-19.0077"/>
</g>
<!-- Node15&#45;&gt;Node8 -->
<g id="edge23" class="edge"><title>Node15&#45;&gt;Node8</title>
<path fill="none" stroke="midnightblue" d="M481.78,-168.444C504.693,-159.478 540.889,-145.314 566.78,-135.183"/>
<polygon fill="midnightblue" stroke="midnightblue" points="568.112,-138.42 576.149,-131.516 565.562,-131.901 568.112,-138.42"/>
</g>
<!-- Node16&#45;&gt;Node3 -->
<g id="edge29" class="edge"><title>Node16&#45;&gt;Node3</title>
<path fill="none" stroke="midnightblue" d="M747.653,-448.493C764.521,-431.117 799.914,-389.582 799.914,-347 799.914,-347 799.914,-347 799.914,-177 799.914,-104.072 696,-79.0782 638.732,-70.8416"/>
<polygon fill="midnightblue" stroke="midnightblue" points="638.992,-67.3454 628.617,-69.4908 638.066,-74.2838 638.992,-67.3454"/>
</g>
<!-- Node17 -->
<g id="node17" class="node"><title>Node17</title>
<g id="a_node17"><a xlink:href="BaseParameter_8h.html" target="_top" xlink:title="BaseParameter.h">
<polygon fill="white" stroke="black" points="654.414,-392.5 654.414,-411.5 753.414,-411.5 753.414,-392.5 654.414,-392.5"/>
<text text-anchor="middle" x="703.914" y="-399.5" font-family="Verdana" font-size="10.00">BaseParameter.h</text>
</a>
</g>
</g>
<!-- Node16&#45;&gt;Node17 -->
<g id="edge30" class="edge"><title>Node16&#45;&gt;Node17</title>
<path fill="none" stroke="midnightblue" d="M733.134,-448.083C728.241,-440.534 721.086,-429.495 715.081,-420.23"/>
<polygon fill="midnightblue" stroke="midnightblue" points="717.962,-418.239 709.586,-411.751 712.088,-422.046 717.962,-418.239"/>
</g>
<!-- Node17&#45;&gt;Node3 -->
<g id="edge31" class="edge"><title>Node17&#45;&gt;Node3</title>
<path fill="none" stroke="midnightblue" d="M712.224,-392.411C728.261,-374.887 761.914,-333.099 761.914,-291 761.914,-291 761.914,-291 761.914,-177 761.914,-117.488 685.819,-87.7435 638.584,-75.0128"/>
<polygon fill="midnightblue" stroke="midnightblue" points="639.25,-71.5704 628.694,-72.4802 637.513,-78.3516 639.25,-71.5704"/>
</g>
<!-- Node17&#45;&gt;Node8 -->
<g id="edge32" class="edge"><title>Node17&#45;&gt;Node8</title>
<path fill="none" stroke="midnightblue" d="M703.292,-392.164C701.176,-365.667 692.874,-284.941 666.914,-224 653.057,-191.471 628.037,-158.531 612.237,-139.475"/>
<polygon fill="midnightblue" stroke="midnightblue" points="614.83,-137.121 605.699,-131.748 609.486,-141.643 614.83,-137.121"/>
</g>
<!-- Node18 -->
<g id="node18" class="node"><title>Node18</title>
<g id="a_node18"><a xlink:href="InstanceConfigurableElement_8h.html" target="_top" xlink:title="InstanceConfigurableElement.h">
<polygon fill="white" stroke="black" points="482.914,-336.5 482.914,-355.5 648.914,-355.5 648.914,-336.5 482.914,-336.5"/>
<text text-anchor="middle" x="565.914" y="-343.5" font-family="Verdana" font-size="10.00">InstanceConfigurableElement.h</text>
</a>
</g>
</g>
<!-- Node17&#45;&gt;Node18 -->
<g id="edge33" class="edge"><title>Node17&#45;&gt;Node18</title>
<path fill="none" stroke="midnightblue" d="M682.047,-392.444C659.134,-383.478 622.938,-369.314 597.047,-359.183"/>
<polygon fill="midnightblue" stroke="midnightblue" points="598.266,-355.901 587.678,-355.516 595.715,-362.42 598.266,-355.901"/>
</g>
<!-- Node18&#45;&gt;Node4 -->
<g id="edge40" class="edge"><title>Node18&#45;&gt;Node4</title>
<path fill="none" stroke="midnightblue" d="M515.684,-336.444C457.427,-326.52 361.79,-310.228 302.244,-300.085"/>
<polygon fill="midnightblue" stroke="midnightblue" points="302.732,-296.617 292.286,-298.388 301.557,-303.518 302.732,-296.617"/>
</g>
<!-- Node18&#45;&gt;Node5 -->
<g id="edge34" class="edge"><title>Node18&#45;&gt;Node5</title>
<path fill="none" stroke="midnightblue" d="M543.081,-336.425C469.877,-308.932 240.888,-222.932 155.997,-191.05"/>
<polygon fill="midnightblue" stroke="midnightblue" points="157.202,-187.763 146.61,-187.524 154.741,-194.317 157.202,-187.763"/>
</g>
<!-- Node18&#45;&gt;Node7 -->
<g id="edge42" class="edge"><title>Node18&#45;&gt;Node7</title>
<path fill="none" stroke="midnightblue" d="M603.357,-336.499C650.08,-323.417 723.914,-293.491 723.914,-235 723.914,-235 723.914,-235 723.914,-121 723.914,-72.7333 681.547,-74.3714 636.914,-56 537.71,-15.1676 408.25,-10.1945 348.607,-10.3169"/>
<polygon fill="midnightblue" stroke="midnightblue" points="348.28,-6.81912 338.306,-10.3916 348.331,-13.8189 348.28,-6.81912"/>
</g>
<!-- Node19 -->
<g id="node19" class="node"><title>Node19</title>
<g id="a_node19"><a xlink:href="ConfigurableElement_8h.html" target="_top" xlink:title="ConfigurableElement.h">
<polygon fill="white" stroke="black" points="494.414,-280.5 494.414,-299.5 619.414,-299.5 619.414,-280.5 494.414,-280.5"/>
<text text-anchor="middle" x="556.914" y="-287.5" font-family="Verdana" font-size="10.00">ConfigurableElement.h</text>
</a>
</g>
</g>
<!-- Node18&#45;&gt;Node19 -->
<g id="edge35" class="edge"><title>Node18&#45;&gt;Node19</title>
<path fill="none" stroke="midnightblue" d="M564.427,-336.083C563.235,-328.927 561.52,-318.635 560.029,-309.691"/>
<polygon fill="midnightblue" stroke="midnightblue" points="563.469,-309.04 558.372,-299.751 556.564,-310.19 563.469,-309.04"/>
</g>
<!-- Node20 -->
<g id="node20" class="node"><title>Node20</title>
<polygon fill="white" stroke="#bfbfbf" points="627.914,-224.5 627.914,-243.5 657.914,-243.5 657.914,-224.5 627.914,-224.5"/>
<text text-anchor="middle" x="642.914" y="-231.5" font-family="Verdana" font-size="10.00">list</text>
</g>
<!-- Node18&#45;&gt;Node20 -->
<g id="edge41" class="edge"><title>Node18&#45;&gt;Node20</title>
<path fill="none" stroke="midnightblue" d="M583.905,-336.494C598.022,-328.888 617.046,-316.412 627.914,-300 637.005,-286.27 640.625,-267.74 642.046,-253.977"/>
<polygon fill="midnightblue" stroke="midnightblue" points="645.556,-253.977 642.795,-243.748 638.574,-253.466 645.556,-253.977"/>
</g>
<!-- Node19&#45;&gt;Node5 -->
<g id="edge36" class="edge"><title>Node19&#45;&gt;Node5</title>
<path fill="none" stroke="midnightblue" d="M512.947,-280.458C476.072,-272.715 422.311,-260.067 376.914,-244 357.044,-236.968 353.899,-230.695 333.914,-224 286.88,-208.245 232.021,-196.713 190.17,-189.269"/>
<polygon fill="midnightblue" stroke="midnightblue" points="190.547,-185.782 180.094,-187.511 189.344,-192.678 190.547,-185.782"/>
</g>
<!-- Node19&#45;&gt;Node6 -->
<g id="edge37" class="edge"><title>Node19&#45;&gt;Node6</title>
<path fill="none" stroke="midnightblue" d="M535.047,-280.444C512.134,-271.478 475.938,-257.314 450.047,-247.183"/>
<polygon fill="midnightblue" stroke="midnightblue" points="451.266,-243.901 440.678,-243.516 448.715,-250.42 451.266,-243.901"/>
</g>
<!-- Node19&#45;&gt;Node8 -->
<g id="edge39" class="edge"><title>Node19&#45;&gt;Node8</title>
<path fill="none" stroke="midnightblue" d="M559.118,-280.075C565.572,-253.945 584.524,-177.211 593.325,-141.577"/>
<polygon fill="midnightblue" stroke="midnightblue" points="596.797,-142.116 595.797,-131.568 590.002,-140.437 596.797,-142.116"/>
</g>
<!-- Node19&#45;&gt;Node20 -->
<g id="edge38" class="edge"><title>Node19&#45;&gt;Node20</title>
<path fill="none" stroke="midnightblue" d="M570.731,-280.324C584.147,-271.9 604.738,-258.971 620.499,-249.074"/>
<polygon fill="midnightblue" stroke="midnightblue" points="622.523,-251.936 629.131,-243.655 618.8,-246.008 622.523,-251.936"/>
</g>
<!-- Node21&#45;&gt;Node7 -->
<g id="edge44" class="edge"><title>Node21&#45;&gt;Node7</title>
<path fill="none" stroke="midnightblue" d="M864.733,-280.393C856.271,-262.156 837.914,-218.087 837.914,-179 837.914,-179 837.914,-179 837.914,-121 837.914,-20.4002 462.008,-11.325 348.185,-10.8829"/>
<polygon fill="midnightblue" stroke="midnightblue" points="348.016,-7.38273 338.01,-10.8643 348.003,-14.3827 348.016,-7.38273"/>
</g>
<!-- Node21&#45;&gt;Node20 -->
<g id="edge45" class="edge"><title>Node21&#45;&gt;Node20</title>
<path fill="none" stroke="midnightblue" d="M842.989,-282.806C799.273,-272.36 711.44,-251.374 668.175,-241.036"/>
<polygon fill="midnightblue" stroke="midnightblue" points="668.729,-237.57 658.19,-238.65 667.102,-244.378 668.729,-237.57"/>
</g>
<!-- Node22 -->
<g id="node22" class="node"><title>Node22</title>
<polygon fill="white" stroke="#bfbfbf" points="865.914,-224.5 865.914,-243.5 903.914,-243.5 903.914,-224.5 865.914,-224.5"/>
<text text-anchor="middle" x="884.914" y="-231.5" font-family="Verdana" font-size="10.00">map</text>
</g>
<!-- Node21&#45;&gt;Node22 -->
<g id="edge46" class="edge"><title>Node21&#45;&gt;Node22</title>
<path fill="none" stroke="midnightblue" d="M871.556,-280.083C873.699,-272.849 876.793,-262.409 879.463,-253.397"/>
<polygon fill="midnightblue" stroke="midnightblue" points="882.836,-254.333 882.321,-243.751 876.124,-252.345 882.836,-254.333"/>
</g>
<!-- Node23 -->
<g id="node23" class="node"><title>Node23</title>
<polygon fill="white" stroke="#bfbfbf" points="921.914,-224.5 921.914,-243.5 977.914,-243.5 977.914,-224.5 921.914,-224.5"/>
<text text-anchor="middle" x="949.914" y="-231.5" font-family="Verdana" font-size="10.00">sstream</text>
</g>
<!-- Node21&#45;&gt;Node23 -->
<g id="edge47" class="edge"><title>Node21&#45;&gt;Node23</title>
<path fill="none" stroke="midnightblue" d="M881.928,-280.324C894.445,-271.979 913.595,-259.212 928.385,-249.352"/>
<polygon fill="midnightblue" stroke="midnightblue" points="930.553,-252.114 936.932,-243.655 926.67,-246.289 930.553,-252.114"/>
</g>
<!-- Node24 -->
<g id="node24" class="node"><title>Node24</title>
<polygon fill="white" stroke="#bfbfbf" points="995.914,-224.5 995.914,-243.5 1051.91,-243.5 1051.91,-224.5 995.914,-224.5"/>
<text text-anchor="middle" x="1023.91" y="-231.5" font-family="Verdana" font-size="10.00">numeric</text>
</g>
<!-- Node21&#45;&gt;Node24 -->
<g id="edge48" class="edge"><title>Node21&#45;&gt;Node24</title>
<path fill="none" stroke="midnightblue" d="M893.474,-280.444C919.436,-271.399 960.582,-257.064 989.711,-246.916"/>
<polygon fill="midnightblue" stroke="midnightblue" points="991.177,-250.112 999.468,-243.516 988.874,-243.501 991.177,-250.112"/>
</g>
</g>
</svg>
