<?xml version="1.0" encoding="UTF-8" standalone="no"?>
<!DOCTYPE svg PUBLIC "-//W3C//DTD SVG 1.1//EN"
 "http://www.w3.org/Graphics/SVG/1.1/DTD/svg11.dtd">
<!-- Generated by graphviz version 2.38.0 (20140413.2041)
 -->
<!-- Title: Test::empty Pages: 1 -->
<svg width="406pt" height="104pt"
 viewBox="0.00 0.00 406.00 104.00" xmlns="http://www.w3.org/2000/svg" xmlns:xlink="http://www.w3.org/1999/xlink">
<g id="graph0" class="graph" transform="scale(1 1) rotate(0) translate(4 100)">
<title>Test::empty</title>
<polygon fill="white" stroke="none" points="-4,4 -4,-100 402,-100 402,4 -4,4"/>
<!-- Node1 -->
<g id="node1" class="node"><title>Node1</title>
<polygon fill="#bfbfbf" stroke="black" points="0,-38.5 0,-57.5 72,-57.5 72,-38.5 0,-38.5"/>
<text text-anchor="middle" x="36" y="-45.5" font-family="Verdana" font-size="10.00">Test::empty</text>
</g>
<!-- Node2 -->
<g id="node2" class="node"><title>Node2</title>
<g id="a_node2"><a xlink:href="structTest.html#aa15ba29a3b6622b0e81ae92e02905c65" target="_top" xlink:title="Test::REQUIRE_FAILURE">
<polygon fill="white" stroke="black" points="113,-76.5 113,-95.5 238,-95.5 238,-76.5 113,-76.5"/>
<text text-anchor="middle" x="175.5" y="-83.5" font-family="Verdana" font-size="10.00">Test::REQUIRE_FAILURE</text>
</a>
</g>
</g>
<!-- Node1&#45;&gt;Node2 -->
<g id="edge1" class="edge"><title>Node1&#45;&gt;Node2</title>
<path fill="none" stroke="midnightblue" d="M81.5729,-60.3183C100.465,-65.5393 122.147,-71.5316 139.814,-76.4141"/>
<polygon fill="midnightblue" stroke="midnightblue" points="82.2681,-56.8793 71.6971,-57.589 80.4034,-63.6264 82.2681,-56.8793"/>
</g>
<!-- Node3 -->
<g id="node3" class="node"><title>Node3</title>
<g id="a_node3"><a xlink:href="Test_8cpp.html#ae78f4780e83e5f2b9721a2d66c70fec9" target="_top" xlink:title="TEST_CASE_METHOD">
<polygon fill="white" stroke="black" points="279,-38.5 279,-57.5 398,-57.5 398,-38.5 279,-38.5"/>
<text text-anchor="middle" x="338.5" y="-45.5" font-family="Verdana" font-size="10.00">TEST_CASE_METHOD</text>
</a>
</g>
</g>
<!-- Node1&#45;&gt;Node3 -->
<g id="edge5" class="edge"><title>Node1&#45;&gt;Node3</title>
<path fill="none" stroke="midnightblue" d="M82.0761,-48C134.543,-48 221.338,-48 278.97,-48"/>
<polygon fill="midnightblue" stroke="midnightblue" points="82.0593,-44.5001 72.0593,-48 82.0592,-51.5001 82.0593,-44.5001"/>
</g>
<!-- Node4 -->
<g id="node4" class="node"><title>Node4</title>
<g id="a_node4"><a xlink:href="structTest.html#aae5ae68c296b19c05ade6a4a18caa52a" target="_top" xlink:title="Test::REQUIRE_SUCCESS">
<polygon fill="white" stroke="black" points="108,-0.5 108,-19.5 243,-19.5 243,-0.5 108,-0.5"/>
<text text-anchor="middle" x="175.5" y="-7.5" font-family="Verdana" font-size="10.00">Test::REQUIRE_SUCCESS</text>
</a>
</g>
</g>
<!-- Node1&#45;&gt;Node4 -->
<g id="edge3" class="edge"><title>Node1&#45;&gt;Node4</title>
<path fill="none" stroke="midnightblue" d="M81.5729,-35.6817C100.465,-30.4607 122.147,-24.4684 139.814,-19.5859"/>
<polygon fill="midnightblue" stroke="midnightblue" points="80.4034,-32.3736 71.6971,-38.411 82.2681,-39.1207 80.4034,-32.3736"/>
</g>
<!-- Node2&#45;&gt;Node3 -->
<g id="edge2" class="edge"><title>Node2&#45;&gt;Node3</title>
<path fill="none" stroke="midnightblue" d="M226.902,-74.1039C249.532,-68.7626 275.87,-62.5463 297.165,-57.5201"/>
<polygon fill="midnightblue" stroke="midnightblue" points="226.056,-70.7074 217.127,-76.411 227.664,-77.5202 226.056,-70.7074"/>
</g>
<!-- Node4&#45;&gt;Node3 -->
<g id="edge4" class="edge"><title>Node4&#45;&gt;Node3</title>
<path fill="none" stroke="midnightblue" d="M226.902,-21.8961C249.532,-27.2374 275.87,-33.4537 297.165,-38.4799"/>
<polygon fill="midnightblue" stroke="midnightblue" points="227.664,-18.4798 217.127,-19.589 226.056,-25.2926 227.664,-18.4798"/>
</g>
</g>
</svg>
