<?xml version="1.0" encoding="UTF-8" standalone="no"?>
<!DOCTYPE svg PUBLIC "-//W3C//DTD SVG 1.1//EN"
 "http://www.w3.org/Graphics/SVG/1.1/DTD/svg11.dtd">
<!-- Generated by graphviz version 2.38.0 (20140413.2041)
 -->
<!-- Title: PfwHandler_::createCriteria Pages: 1 -->
<svg width="401pt" height="28pt"
 viewBox="0.00 0.00 401.00 28.00" xmlns="http://www.w3.org/2000/svg" xmlns:xlink="http://www.w3.org/1999/xlink">
<g id="graph0" class="graph" transform="scale(1 1) rotate(0) translate(4 24)">
<title>PfwHandler_::createCriteria</title>
<polygon fill="white" stroke="none" points="-4,4 -4,-24 397,-24 397,4 -4,4"/>
<!-- Node1 -->
<g id="node1" class="node"><title>Node1</title>
<polygon fill="#bfbfbf" stroke="black" points="0,-0.5 0,-19.5 146,-19.5 146,-0.5 0,-0.5"/>
<text text-anchor="middle" x="73" y="-7.5" font-family="Verdana" font-size="10.00">PfwHandler_::createCriteria</text>
</g>
<!-- Node2 -->
<g id="node2" class="node"><title>Node2</title>
<g id="a_node2"><a xlink:href="ParameterFramework_8cpp.html#a44326e09ebb9719ecb017d1d67832b6f" target="_top" xlink:title="pfwStart">
<polygon fill="white" stroke="black" points="182,-0.5 182,-19.5 238,-19.5 238,-0.5 182,-0.5"/>
<text text-anchor="middle" x="210" y="-7.5" font-family="Verdana" font-size="10.00">pfwStart</text>
</a>
</g>
</g>
<!-- Node1&#45;&gt;Node2 -->
<g id="edge1" class="edge"><title>Node1&#45;&gt;Node2</title>
<path fill="none" stroke="midnightblue" d="M156.253,-10C165.372,-10 174.114,-10 181.767,-10"/>
<polygon fill="midnightblue" stroke="midnightblue" points="156.243,-6.5001 146.243,-10 156.243,-13.5001 156.243,-6.5001"/>
</g>
<!-- Node3 -->
<g id="node3" class="node"><title>Node3</title>
<g id="a_node3"><a xlink:href="Test_8cpp.html#ae78f4780e83e5f2b9721a2d66c70fec9" target="_top" xlink:title="TEST_CASE_METHOD">
<polygon fill="white" stroke="black" points="274,-0.5 274,-19.5 393,-19.5 393,-0.5 274,-0.5"/>
<text text-anchor="middle" x="333.5" y="-7.5" font-family="Verdana" font-size="10.00">TEST_CASE_METHOD</text>
</a>
</g>
</g>
<!-- Node2&#45;&gt;Node3 -->
<g id="edge2" class="edge"><title>Node2&#45;&gt;Node3</title>
<path fill="none" stroke="midnightblue" d="M248.342,-10C256.329,-10 264.954,-10 273.531,-10"/>
<polygon fill="midnightblue" stroke="midnightblue" points="248.267,-6.5001 238.267,-10 248.267,-13.5001 248.267,-6.5001"/>
</g>
</g>
</svg>
