<?xml version="1.0" encoding="UTF-8" standalone="no"?>
<!DOCTYPE svg PUBLIC "-//W3C//DTD SVG 1.1//EN"
 "http://www.w3.org/Graphics/SVG/1.1/DTD/svg11.dtd">
<!-- Generated by graphviz version 2.38.0 (20140413.2041)
 -->
<!-- Title: parameter/SubsystemObject.h Pages: 1 -->
<svg width="608pt" height="252pt"
 viewBox="0.00 0.00 607.50 252.00" xmlns="http://www.w3.org/2000/svg" xmlns:xlink="http://www.w3.org/1999/xlink">
<g id="graph0" class="graph" transform="scale(1 1) rotate(0) translate(4 248)">
<title>parameter/SubsystemObject.h</title>
<polygon fill="white" stroke="none" points="-4,4 -4,-248 603.5,-248 603.5,4 -4,4"/>
<!-- Node1 -->
<g id="node1" class="node"><title>Node1</title>
<polygon fill="#bfbfbf" stroke="black" points="113.5,-224.5 113.5,-243.5 277.5,-243.5 277.5,-224.5 113.5,-224.5"/>
<text text-anchor="middle" x="195.5" y="-231.5" font-family="Verdana" font-size="10.00">parameter/SubsystemObject.h</text>
</g>
<!-- Node2 -->
<g id="node2" class="node"><title>Node2</title>
<polygon fill="white" stroke="#bfbfbf" points="0,-168.5 0,-187.5 113,-187.5 113,-168.5 0,-168.5"/>
<text text-anchor="middle" x="56.5" y="-175.5" font-family="Verdana" font-size="10.00">parameter_export.h</text>
</g>
<!-- Node1&#45;&gt;Node2 -->
<g id="edge1" class="edge"><title>Node1&#45;&gt;Node2</title>
<path fill="none" stroke="midnightblue" d="M173.475,-224.444C150.396,-215.478 113.938,-201.314 87.8591,-191.183"/>
<polygon fill="midnightblue" stroke="midnightblue" points="89.0107,-187.875 78.4219,-187.516 86.4758,-194.4 89.0107,-187.875"/>
</g>
<!-- Node3 -->
<g id="node3" class="node"><title>Node3</title>
<g id="a_node3"><a xlink:href="Syncer_8h.html" target="_top" xlink:title="Syncer.h">
<polygon fill="white" stroke="black" points="169.5,-112.5 169.5,-131.5 227.5,-131.5 227.5,-112.5 169.5,-112.5"/>
<text text-anchor="middle" x="198.5" y="-119.5" font-family="Verdana" font-size="10.00">Syncer.h</text>
</a>
</g>
</g>
<!-- Node1&#45;&gt;Node3 -->
<g id="edge2" class="edge"><title>Node1&#45;&gt;Node3</title>
<path fill="none" stroke="midnightblue" d="M195.735,-224.368C196.22,-206.617 197.336,-165.666 197.993,-141.597"/>
<polygon fill="midnightblue" stroke="midnightblue" points="201.492,-141.683 198.266,-131.591 194.494,-141.492 201.492,-141.683"/>
</g>
<!-- Node4 -->
<g id="node4" class="node"><title>Node4</title>
<polygon fill="white" stroke="#bfbfbf" points="217.5,-0.5 217.5,-19.5 261.5,-19.5 261.5,-0.5 217.5,-0.5"/>
<text text-anchor="middle" x="239.5" y="-7.5" font-family="Verdana" font-size="10.00">string</text>
</g>
<!-- Node1&#45;&gt;Node4 -->
<g id="edge22" class="edge"><title>Node1&#45;&gt;Node4</title>
<path fill="none" stroke="midnightblue" d="M189.68,-224.253C177.204,-204.412 149.853,-154.421 160.5,-112 167.373,-84.614 173.191,-78.308 190.5,-56 199.043,-44.9897 210.418,-34.3618 220.057,-26.2017"/>
<polygon fill="midnightblue" stroke="midnightblue" points="222.452,-28.7646 227.967,-19.7184 218.014,-23.3508 222.452,-28.7646"/>
</g>
<!-- Node5 -->
<g id="node5" class="node"><title>Node5</title>
<g id="a_node5"><a xlink:href="Logger_8h.html" target="_top" xlink:title="log/Logger.h">
<polygon fill="white" stroke="black" points="224,-168.5 224,-187.5 299,-187.5 299,-168.5 224,-168.5"/>
<text text-anchor="middle" x="261.5" y="-175.5" font-family="Verdana" font-size="10.00">log/Logger.h</text>
</a>
</g>
</g>
<!-- Node1&#45;&gt;Node5 -->
<g id="edge4" class="edge"><title>Node1&#45;&gt;Node5</title>
<path fill="none" stroke="midnightblue" d="M206.104,-224.324C215.956,-216.263 230.851,-204.077 242.715,-194.369"/>
<polygon fill="midnightblue" stroke="midnightblue" points="245.18,-196.875 250.703,-187.834 240.747,-191.457 245.18,-196.875"/>
</g>
<!-- Node16 -->
<g id="node16" class="node"><title>Node16</title>
<polygon fill="white" stroke="#bfbfbf" points="317,-168.5 317,-187.5 370,-187.5 370,-168.5 317,-168.5"/>
<text text-anchor="middle" x="343.5" y="-175.5" font-family="Verdana" font-size="10.00">stdint.h</text>
</g>
<!-- Node1&#45;&gt;Node16 -->
<g id="edge21" class="edge"><title>Node1&#45;&gt;Node16</title>
<path fill="none" stroke="midnightblue" d="M218.951,-224.444C243.633,-215.438 282.685,-201.189 310.477,-191.049"/>
<polygon fill="midnightblue" stroke="midnightblue" points="311.964,-194.232 320.159,-187.516 309.565,-187.656 311.964,-194.232"/>
</g>
<!-- Node3&#45;&gt;Node4 -->
<g id="edge3" class="edge"><title>Node3&#45;&gt;Node4</title>
<path fill="none" stroke="midnightblue" d="M196.561,-112.223C194.145,-99.3817 191.165,-74.9419 198.5,-56 202.954,-44.498 211.868,-34.1311 220.249,-26.2546"/>
<polygon fill="midnightblue" stroke="midnightblue" points="222.737,-28.7286 227.959,-19.5103 218.128,-23.4599 222.737,-28.7286"/>
</g>
<!-- Node6 -->
<g id="node6" class="node"><title>Node6</title>
<g id="a_node6"><a xlink:href="ILogger_8h.html" target="_top" xlink:title="log/ILogger.h">
<polygon fill="white" stroke="black" points="208,-56.5 208,-75.5 285,-75.5 285,-56.5 208,-56.5"/>
<text text-anchor="middle" x="246.5" y="-63.5" font-family="Verdana" font-size="10.00">log/ILogger.h</text>
</a>
</g>
</g>
<!-- Node5&#45;&gt;Node6 -->
<g id="edge5" class="edge"><title>Node5&#45;&gt;Node6</title>
<path fill="none" stroke="midnightblue" d="M260.323,-168.368C257.902,-150.617 252.318,-109.666 249.036,-85.5974"/>
<polygon fill="midnightblue" stroke="midnightblue" points="252.491,-85.0268 247.672,-75.5914 245.555,-85.9726 252.491,-85.0268"/>
</g>
<!-- Node7 -->
<g id="node7" class="node"><title>Node7</title>
<g id="a_node7"><a xlink:href="LogWrapper_8h.html" target="_top" xlink:title="log/LogWrapper.h">
<polygon fill="white" stroke="black" points="294.5,-112.5 294.5,-131.5 392.5,-131.5 392.5,-112.5 294.5,-112.5"/>
<text text-anchor="middle" x="343.5" y="-119.5" font-family="Verdana" font-size="10.00">log/LogWrapper.h</text>
</a>
</g>
</g>
<!-- Node5&#45;&gt;Node7 -->
<g id="edge7" class="edge"><title>Node5&#45;&gt;Node7</title>
<path fill="none" stroke="midnightblue" d="M274.675,-168.324C287.347,-159.979 306.733,-147.212 321.706,-137.352"/>
<polygon fill="midnightblue" stroke="midnightblue" points="323.931,-140.078 330.358,-131.655 320.081,-134.231 323.931,-140.078"/>
</g>
<!-- Node15 -->
<g id="node15" class="node"><title>Node15</title>
<g id="a_node15"><a xlink:href="NonCopyable_8hpp.html" target="_top" xlink:title="NonCopyable.hpp">
<polygon fill="white" stroke="black" points="411,-112.5 411,-131.5 512,-131.5 512,-112.5 411,-112.5"/>
<text text-anchor="middle" x="461.5" y="-119.5" font-family="Verdana" font-size="10.00">NonCopyable.hpp</text>
</a>
</g>
</g>
<!-- Node5&#45;&gt;Node15 -->
<g id="edge20" class="edge"><title>Node5&#45;&gt;Node15</title>
<path fill="none" stroke="midnightblue" d="M293.191,-168.444C327.568,-159.162 382.577,-144.309 420.289,-134.127"/>
<polygon fill="midnightblue" stroke="midnightblue" points="421.216,-137.502 429.958,-131.516 419.391,-130.744 421.216,-137.502"/>
</g>
<!-- Node6&#45;&gt;Node4 -->
<g id="edge6" class="edge"><title>Node6&#45;&gt;Node4</title>
<path fill="none" stroke="midnightblue" d="M245.344,-56.083C244.416,-48.9272 243.082,-38.6353 241.923,-29.6911"/>
<polygon fill="midnightblue" stroke="midnightblue" points="245.391,-29.2181 240.634,-19.7511 238.449,-30.1181 245.391,-29.2181"/>
</g>
<!-- Node7&#45;&gt;Node4 -->
<g id="edge16" class="edge"><title>Node7&#45;&gt;Node4</title>
<path fill="none" stroke="midnightblue" d="M338.052,-112.495C329.569,-99.5744 312.322,-74.545 294.5,-56 283.842,-44.9097 270.521,-33.9488 259.658,-25.6214"/>
<polygon fill="midnightblue" stroke="midnightblue" points="261.671,-22.7561 251.571,-19.5556 257.47,-28.3559 261.671,-22.7561"/>
</g>
<!-- Node7&#45;&gt;Node6 -->
<g id="edge8" class="edge"><title>Node7&#45;&gt;Node6</title>
<path fill="none" stroke="midnightblue" d="M327.915,-112.324C312.501,-103.743 288.688,-90.486 270.79,-80.5224"/>
<polygon fill="midnightblue" stroke="midnightblue" points="272.486,-77.4606 262.046,-75.6545 269.081,-83.5767 272.486,-77.4606"/>
</g>
<!-- Node8 -->
<g id="node8" class="node"><title>Node8</title>
<g id="a_node8"><a xlink:href="Utility_8h.html" target="_top" xlink:title="Utility.h">
<polygon fill="white" stroke="black" points="380,-56.5 380,-75.5 431,-75.5 431,-56.5 380,-56.5"/>
<text text-anchor="middle" x="405.5" y="-63.5" font-family="Verdana" font-size="10.00">Utility.h</text>
</a>
</g>
</g>
<!-- Node7&#45;&gt;Node8 -->
<g id="edge9" class="edge"><title>Node7&#45;&gt;Node8</title>
<path fill="none" stroke="midnightblue" d="M353.461,-112.324C362.627,-104.341 376.437,-92.3128 387.528,-82.6529"/>
<polygon fill="midnightblue" stroke="midnightblue" points="390.115,-85.041 395.357,-75.8339 385.518,-79.7624 390.115,-85.041"/>
</g>
<!-- Node9 -->
<g id="node9" class="node"><title>Node9</title>
<polygon fill="white" stroke="#bfbfbf" points="279.5,-0.5 279.5,-19.5 309.5,-19.5 309.5,-0.5 279.5,-0.5"/>
<text text-anchor="middle" x="294.5" y="-7.5" font-family="Verdana" font-size="10.00">list</text>
</g>
<!-- Node7&#45;&gt;Node9 -->
<g id="edge19" class="edge"><title>Node7&#45;&gt;Node9</title>
<path fill="none" stroke="midnightblue" d="M342.448,-112.226C340.667,-99.3881 336.354,-74.9525 327.5,-56 322.742,-45.8155 315.518,-35.6187 309.04,-27.513"/>
<polygon fill="midnightblue" stroke="midnightblue" points="311.556,-25.0652 302.457,-19.6377 306.185,-29.5548 311.556,-25.0652"/>
</g>
<!-- Node11 -->
<g id="node11" class="node"><title>Node11</title>
<polygon fill="white" stroke="#bfbfbf" points="543.5,-0.5 543.5,-19.5 599.5,-19.5 599.5,-0.5 543.5,-0.5"/>
<text text-anchor="middle" x="571.5" y="-7.5" font-family="Verdana" font-size="10.00">sstream</text>
</g>
<!-- Node7&#45;&gt;Node11 -->
<g id="edge17" class="edge"><title>Node7&#45;&gt;Node11</title>
<path fill="none" stroke="midnightblue" d="M362.592,-112.484C382.252,-103.635 413.711,-89.2534 440.5,-76 457.606,-67.537 461.463,-64.6021 478.5,-56 500.452,-44.9162 525.565,-32.7976 544.157,-23.9315"/>
<polygon fill="midnightblue" stroke="midnightblue" points="545.707,-27.0703 553.234,-19.6144 542.7,-20.7489 545.707,-27.0703"/>
</g>
<!-- Node14 -->
<g id="node14" class="node"><title>Node14</title>
<polygon fill="white" stroke="#bfbfbf" points="487.5,-56.5 487.5,-75.5 539.5,-75.5 539.5,-56.5 487.5,-56.5"/>
<text text-anchor="middle" x="513.5" y="-63.5" font-family="Verdana" font-size="10.00">iterator</text>
</g>
<!-- Node7&#45;&gt;Node14 -->
<g id="edge18" class="edge"><title>Node7&#45;&gt;Node14</title>
<path fill="none" stroke="midnightblue" d="M370.437,-112.444C399.329,-103.266 445.366,-88.6424 477.384,-78.472"/>
<polygon fill="midnightblue" stroke="midnightblue" points="478.777,-81.7022 487.248,-75.339 476.657,-75.0307 478.777,-81.7022"/>
</g>
<!-- Node8&#45;&gt;Node4 -->
<g id="edge10" class="edge"><title>Node8&#45;&gt;Node4</title>
<path fill="none" stroke="midnightblue" d="M379.926,-56.6808C350.711,-47.1772 302.878,-31.6169 271.289,-21.3411"/>
<polygon fill="midnightblue" stroke="midnightblue" points="272.24,-17.97 261.648,-18.2048 270.075,-24.6267 272.24,-17.97"/>
</g>
<!-- Node8&#45;&gt;Node9 -->
<g id="edge11" class="edge"><title>Node8&#45;&gt;Node9</title>
<path fill="none" stroke="midnightblue" d="M387.666,-56.324C369.043,-47.2644 339.708,-32.9933 318.937,-22.8881"/>
<polygon fill="midnightblue" stroke="midnightblue" points="320.312,-19.665 309.788,-18.4376 317.25,-25.9597 320.312,-19.665"/>
</g>
<!-- Node10 -->
<g id="node10" class="node"><title>Node10</title>
<polygon fill="white" stroke="#bfbfbf" points="327.5,-0.5 327.5,-19.5 365.5,-19.5 365.5,-0.5 327.5,-0.5"/>
<text text-anchor="middle" x="346.5" y="-7.5" font-family="Verdana" font-size="10.00">map</text>
</g>
<!-- Node8&#45;&gt;Node10 -->
<g id="edge12" class="edge"><title>Node8&#45;&gt;Node10</title>
<path fill="none" stroke="midnightblue" d="M396.021,-56.324C387.299,-48.3414 374.157,-36.3128 363.602,-26.6529"/>
<polygon fill="midnightblue" stroke="midnightblue" points="365.892,-24.0036 356.152,-19.8339 361.166,-29.1674 365.892,-24.0036"/>
</g>
<!-- Node8&#45;&gt;Node11 -->
<g id="edge13" class="edge"><title>Node8&#45;&gt;Node11</title>
<path fill="none" stroke="midnightblue" d="M431.074,-56.6808C459.058,-47.5776 504.124,-32.9174 535.634,-22.6673"/>
<polygon fill="midnightblue" stroke="midnightblue" points="536.922,-25.9287 545.349,-19.5069 534.757,-19.2721 536.922,-25.9287"/>
</g>
<!-- Node12 -->
<g id="node12" class="node"><title>Node12</title>
<polygon fill="white" stroke="#bfbfbf" points="383.5,-0.5 383.5,-19.5 439.5,-19.5 439.5,-0.5 383.5,-0.5"/>
<text text-anchor="middle" x="411.5" y="-7.5" font-family="Verdana" font-size="10.00">numeric</text>
</g>
<!-- Node8&#45;&gt;Node12 -->
<g id="edge14" class="edge"><title>Node8&#45;&gt;Node12</title>
<path fill="none" stroke="midnightblue" d="M406.491,-56.083C407.286,-48.9272 408.429,-38.6353 409.423,-29.6911"/>
<polygon fill="midnightblue" stroke="midnightblue" points="412.902,-30.0765 410.528,-19.7511 405.945,-29.3034 412.902,-30.0765"/>
</g>
<!-- Node13 -->
<g id="node13" class="node"><title>Node13</title>
<polygon fill="white" stroke="#bfbfbf" points="457.5,-0.5 457.5,-19.5 525.5,-19.5 525.5,-0.5 457.5,-0.5"/>
<text text-anchor="middle" x="491.5" y="-7.5" font-family="Verdana" font-size="10.00">type_traits</text>
</g>
<!-- Node8&#45;&gt;Node13 -->
<g id="edge15" class="edge"><title>Node8&#45;&gt;Node13</title>
<path fill="none" stroke="midnightblue" d="M419.317,-56.324C432.733,-47.9002 453.324,-34.9709 469.086,-25.0741"/>
<polygon fill="midnightblue" stroke="midnightblue" points="471.109,-27.9364 477.717,-19.6545 467.387,-22.0081 471.109,-27.9364"/>
</g>
</g>
</svg>
