<?xml version="1.0" encoding="UTF-8" standalone="no"?>
<!DOCTYPE svg PUBLIC "-//W3C//DTD SVG 1.1//EN"
 "http://www.w3.org/Graphics/SVG/1.1/DTD/svg11.dtd">
<!-- Generated by graphviz version 2.38.0 (20140413.2041)
 -->
<!-- Title: parameter/SubsystemElementBuilder.cpp Pages: 1 -->
<svg width="940pt" height="543pt"
 viewBox="0.00 0.00 940.00 543.00" xmlns="http://www.w3.org/2000/svg" xmlns:xlink="http://www.w3.org/1999/xlink">
<g id="graph0" class="graph" transform="scale(1 1) rotate(0) translate(4 539)">
<title>parameter/SubsystemElementBuilder.cpp</title>
<polygon fill="white" stroke="none" points="-4,4 -4,-539 936,-539 936,4 -4,4"/>
<!-- Node1 -->
<g id="node1" class="node"><title>Node1</title>
<polygon fill="#bfbfbf" stroke="black" points="681,-504.5 681,-534.5 845,-534.5 845,-504.5 681,-504.5"/>
<text text-anchor="start" x="689" y="-522.5" font-family="Verdana" font-size="10.00">parameter/SubsystemElement</text>
<text text-anchor="middle" x="763" y="-511.5" font-family="Verdana" font-size="10.00">Builder.cpp</text>
</g>
<!-- Node2 -->
<g id="node2" class="node"><title>Node2</title>
<g id="a_node2"><a xlink:href="SubsystemElementBuilder_8h.html" target="_top" xlink:title="SubsystemElementBuilder.h">
<polygon fill="white" stroke="black" points="630,-392.5 630,-411.5 782,-411.5 782,-392.5 630,-392.5"/>
<text text-anchor="middle" x="706" y="-399.5" font-family="Verdana" font-size="10.00">SubsystemElementBuilder.h</text>
</a>
</g>
</g>
<!-- Node1&#45;&gt;Node2 -->
<g id="edge1" class="edge"><title>Node1&#45;&gt;Node2</title>
<path fill="none" stroke="midnightblue" d="M756.011,-504.337C745.601,-483.243 726.036,-443.6 714.709,-420.648"/>
<polygon fill="midnightblue" stroke="midnightblue" points="717.843,-419.088 710.278,-411.669 711.565,-422.186 717.843,-419.088"/>
</g>
<!-- Node14 -->
<g id="node14" class="node"><title>Node14</title>
<g id="a_node14"><a xlink:href="SubsystemLibrary_8h.html" target="_top" xlink:title="SubsystemLibrary.h">
<polygon fill="white" stroke="black" points="755,-448.5 755,-467.5 865,-467.5 865,-448.5 755,-448.5"/>
<text text-anchor="middle" x="810" y="-455.5" font-family="Verdana" font-size="10.00">SubsystemLibrary.h</text>
</a>
</g>
</g>
<!-- Node1&#45;&gt;Node14 -->
<g id="edge21" class="edge"><title>Node1&#45;&gt;Node14</title>
<path fill="none" stroke="midnightblue" d="M774.138,-504.399C780.968,-495.753 789.745,-484.642 796.906,-475.576"/>
<polygon fill="midnightblue" stroke="midnightblue" points="799.709,-477.674 803.161,-467.658 794.216,-473.335 799.709,-477.674"/>
</g>
<!-- Node3 -->
<g id="node3" class="node"><title>Node3</title>
<g id="a_node3"><a xlink:href="ElementBuilder_8h.html" target="_top" xlink:title="ElementBuilder.h">
<polygon fill="white" stroke="black" points="616,-224.5 616,-243.5 714,-243.5 714,-224.5 616,-224.5"/>
<text text-anchor="middle" x="665" y="-231.5" font-family="Verdana" font-size="10.00">ElementBuilder.h</text>
</a>
</g>
</g>
<!-- Node2&#45;&gt;Node3 -->
<g id="edge2" class="edge"><title>Node2&#45;&gt;Node3</title>
<path fill="none" stroke="midnightblue" d="M693.219,-392.369C682.606,-384.36 668.269,-371.379 662,-356 648.105,-321.914 654.63,-277.821 660.136,-253.376"/>
<polygon fill="midnightblue" stroke="midnightblue" points="663.543,-254.178 662.517,-243.633 656.743,-252.517 663.543,-254.178"/>
</g>
<!-- Node4 -->
<g id="node4" class="node"><title>Node4</title>
<g id="a_node4"><a xlink:href="Element_8h.html" target="_top" xlink:title="Element.h">
<polygon fill="white" stroke="black" points="473.5,-168.5 473.5,-187.5 538.5,-187.5 538.5,-168.5 473.5,-168.5"/>
<text text-anchor="middle" x="506" y="-175.5" font-family="Verdana" font-size="10.00">Element.h</text>
</a>
</g>
</g>
<!-- Node3&#45;&gt;Node4 -->
<g id="edge3" class="edge"><title>Node3&#45;&gt;Node4</title>
<path fill="none" stroke="midnightblue" d="M639.806,-224.444C613.057,-215.359 570.597,-200.939 540.695,-190.783"/>
<polygon fill="midnightblue" stroke="midnightblue" points="541.671,-187.418 531.076,-187.516 539.419,-194.046 541.671,-187.418"/>
</g>
<!-- Node5 -->
<g id="node5" class="node"><title>Node5</title>
<polygon fill="white" stroke="#bfbfbf" points="538,-0.5 538,-19.5 582,-19.5 582,-0.5 538,-0.5"/>
<text text-anchor="middle" x="560" y="-7.5" font-family="Verdana" font-size="10.00">string</text>
</g>
<!-- Node4&#45;&gt;Node5 -->
<g id="edge4" class="edge"><title>Node4&#45;&gt;Node5</title>
<path fill="none" stroke="midnightblue" d="M538.581,-177.095C576.498,-175.454 638.777,-167.08 677,-132 696.471,-114.13 692.489,-102.041 697,-76 698.517,-67.2415 702.213,-63.1996 697,-56 673.255,-23.2079 624.839,-13.8884 592.397,-11.4717"/>
<polygon fill="midnightblue" stroke="midnightblue" points="592.246,-7.95788 582.066,-10.8928 591.855,-14.9469 592.246,-7.95788"/>
</g>
<!-- Node6 -->
<g id="node6" class="node"><title>Node6</title>
<polygon fill="white" stroke="#bfbfbf" points="314.5,-56.5 314.5,-75.5 361.5,-75.5 361.5,-56.5 314.5,-56.5"/>
<text text-anchor="middle" x="338" y="-63.5" font-family="Verdana" font-size="10.00">vector</text>
</g>
<!-- Node4&#45;&gt;Node6 -->
<g id="edge5" class="edge"><title>Node4&#45;&gt;Node6</title>
<path fill="none" stroke="midnightblue" d="M473.4,-169.533C448.545,-162.699 414.38,-150.753 389,-132 371.753,-119.257 357.257,-99.2299 348.181,-84.7722"/>
<polygon fill="midnightblue" stroke="midnightblue" points="350.947,-82.5796 342.796,-75.8108 344.947,-86.1851 350.947,-82.5796"/>
</g>
<!-- Node7 -->
<g id="node7" class="node"><title>Node7</title>
<polygon fill="white" stroke="#bfbfbf" points="311.5,-0.5 311.5,-19.5 364.5,-19.5 364.5,-0.5 311.5,-0.5"/>
<text text-anchor="middle" x="338" y="-7.5" font-family="Verdana" font-size="10.00">stdint.h</text>
</g>
<!-- Node4&#45;&gt;Node7 -->
<g id="edge6" class="edge"><title>Node4&#45;&gt;Node7</title>
<path fill="none" stroke="midnightblue" d="M473.303,-173.007C424.11,-164.926 333.753,-141.429 305,-76 297.494,-58.921 309.574,-39.9595 321.172,-26.946"/>
<polygon fill="midnightblue" stroke="midnightblue" points="323.747,-29.3176 328.152,-19.6819 318.7,-24.4675 323.747,-29.3176"/>
</g>
<!-- Node8 -->
<g id="node8" class="node"><title>Node8</title>
<polygon fill="white" stroke="#bfbfbf" points="236,-112.5 236,-131.5 266,-131.5 266,-112.5 236,-112.5"/>
<text text-anchor="middle" x="251" y="-119.5" font-family="Verdana" font-size="10.00">list</text>
</g>
<!-- Node4&#45;&gt;Node8 -->
<g id="edge7" class="edge"><title>Node4&#45;&gt;Node8</title>
<path fill="none" stroke="midnightblue" d="M473.2,-171.577C429.012,-164.019 348.05,-149.284 280,-132 278.735,-131.679 277.444,-131.336 276.144,-130.978"/>
<polygon fill="midnightblue" stroke="midnightblue" points="276.848,-127.536 266.267,-128.065 274.868,-134.251 276.848,-127.536"/>
</g>
<!-- Node9 -->
<g id="node9" class="node"><title>Node9</title>
<g id="a_node9"><a xlink:href="XmlSink_8h.html" target="_top" xlink:title="XmlSink.h">
<polygon fill="white" stroke="black" points="604,-112.5 604,-131.5 668,-131.5 668,-112.5 604,-112.5"/>
<text text-anchor="middle" x="636" y="-119.5" font-family="Verdana" font-size="10.00">XmlSink.h</text>
</a>
</g>
</g>
<!-- Node4&#45;&gt;Node9 -->
<g id="edge8" class="edge"><title>Node4&#45;&gt;Node9</title>
<path fill="none" stroke="midnightblue" d="M526.599,-168.444C547.993,-159.557 581.681,-145.563 606.024,-135.451"/>
<polygon fill="midnightblue" stroke="midnightblue" points="607.605,-138.585 615.497,-131.516 604.92,-132.12 607.605,-138.585"/>
</g>
<!-- Node12 -->
<g id="node12" class="node"><title>Node12</title>
<g id="a_node12"><a xlink:href="XmlSource_8h.html" target="_top" xlink:title="XmlSource.h">
<polygon fill="white" stroke="black" points="508.5,-112.5 508.5,-131.5 585.5,-131.5 585.5,-112.5 508.5,-112.5"/>
<text text-anchor="middle" x="547" y="-119.5" font-family="Verdana" font-size="10.00">XmlSource.h</text>
</a>
</g>
</g>
<!-- Node4&#45;&gt;Node12 -->
<g id="edge14" class="edge"><title>Node4&#45;&gt;Node12</title>
<path fill="none" stroke="midnightblue" d="M512.77,-168.083C518.562,-160.455 527.058,-149.264 534.138,-139.941"/>
<polygon fill="midnightblue" stroke="midnightblue" points="537.096,-141.832 540.356,-131.751 531.521,-137.599 537.096,-141.832"/>
</g>
<!-- Node13 -->
<g id="node13" class="node"><title>Node13</title>
<g id="a_node13"><a xlink:href="PathNavigator_8h.html" target="_top" xlink:title="PathNavigator.h">
<polygon fill="white" stroke="black" points="398,-112.5 398,-131.5 490,-131.5 490,-112.5 398,-112.5"/>
<text text-anchor="middle" x="444" y="-119.5" font-family="Verdana" font-size="10.00">PathNavigator.h</text>
</a>
</g>
</g>
<!-- Node4&#45;&gt;Node13 -->
<g id="edge17" class="edge"><title>Node4&#45;&gt;Node13</title>
<path fill="none" stroke="midnightblue" d="M496.039,-168.324C486.873,-160.341 473.063,-148.313 461.972,-138.653"/>
<polygon fill="midnightblue" stroke="midnightblue" points="463.982,-135.762 454.143,-131.834 459.385,-141.041 463.982,-135.762"/>
</g>
<!-- Node10 -->
<g id="node10" class="node"><title>Node10</title>
<g id="a_node10"><a xlink:href="XmlElement_8h.html" target="_top" xlink:title="XmlElement.h">
<polygon fill="white" stroke="black" points="456.5,-56.5 456.5,-75.5 539.5,-75.5 539.5,-56.5 456.5,-56.5"/>
<text text-anchor="middle" x="498" y="-63.5" font-family="Verdana" font-size="10.00">XmlElement.h</text>
</a>
</g>
</g>
<!-- Node9&#45;&gt;Node10 -->
<g id="edge9" class="edge"><title>Node9&#45;&gt;Node10</title>
<path fill="none" stroke="midnightblue" d="M614.133,-112.444C591.221,-103.478 555.025,-89.314 529.134,-79.1827"/>
<polygon fill="midnightblue" stroke="midnightblue" points="530.352,-75.9011 519.764,-75.5164 527.801,-82.4198 530.352,-75.9011"/>
</g>
<!-- Node11 -->
<g id="node11" class="node"><title>Node11</title>
<g id="a_node11"><a xlink:href="XmlSerializingContext_8h.html" target="_top" xlink:title="XmlSerializingContext.h">
<polygon fill="white" stroke="black" points="558,-56.5 558,-75.5 688,-75.5 688,-56.5 558,-56.5"/>
<text text-anchor="middle" x="623" y="-63.5" font-family="Verdana" font-size="10.00">XmlSerializingContext.h</text>
</a>
</g>
</g>
<!-- Node9&#45;&gt;Node11 -->
<g id="edge12" class="edge"><title>Node9&#45;&gt;Node11</title>
<path fill="none" stroke="midnightblue" d="M633.853,-112.083C632.131,-104.927 629.653,-94.6353 627.5,-85.6911"/>
<polygon fill="midnightblue" stroke="midnightblue" points="630.85,-84.6541 625.107,-75.7511 624.045,-86.2925 630.85,-84.6541"/>
</g>
<!-- Node10&#45;&gt;Node5 -->
<g id="edge11" class="edge"><title>Node10&#45;&gt;Node5</title>
<path fill="none" stroke="midnightblue" d="M507.961,-56.324C517.127,-48.3414 530.937,-36.3128 542.028,-26.6529"/>
<polygon fill="midnightblue" stroke="midnightblue" points="544.615,-29.041 549.857,-19.8339 540.018,-23.7624 544.615,-29.041"/>
</g>
<!-- Node10&#45;&gt;Node7 -->
<g id="edge10" class="edge"><title>Node10&#45;&gt;Node7</title>
<path fill="none" stroke="midnightblue" d="M472.648,-56.4435C445.731,-47.3591 403.004,-32.9388 372.913,-22.7831"/>
<polygon fill="midnightblue" stroke="midnightblue" points="373.828,-19.3981 363.234,-19.5164 371.59,-26.0305 373.828,-19.3981"/>
</g>
<!-- Node11&#45;&gt;Node5 -->
<g id="edge13" class="edge"><title>Node11&#45;&gt;Node5</title>
<path fill="none" stroke="midnightblue" d="M612.878,-56.324C603.474,-48.2631 589.256,-36.0765 577.931,-26.3695"/>
<polygon fill="midnightblue" stroke="midnightblue" points="580.177,-23.6844 570.306,-19.8339 575.621,-28.9993 580.177,-23.6844"/>
</g>
<!-- Node12&#45;&gt;Node10 -->
<g id="edge15" class="edge"><title>Node12&#45;&gt;Node10</title>
<path fill="none" stroke="midnightblue" d="M538.909,-112.083C531.845,-104.298 521.412,-92.8015 512.851,-83.3665"/>
<polygon fill="midnightblue" stroke="midnightblue" points="515.253,-80.8047 505.941,-75.7511 510.069,-85.5087 515.253,-80.8047"/>
</g>
<!-- Node12&#45;&gt;Node11 -->
<g id="edge16" class="edge"><title>Node12&#45;&gt;Node11</title>
<path fill="none" stroke="midnightblue" d="M559.211,-112.324C570.776,-104.107 588.375,-91.6017 602.161,-81.8069"/>
<polygon fill="midnightblue" stroke="midnightblue" points="604.443,-84.4791 610.567,-75.8339 600.388,-78.7729 604.443,-84.4791"/>
</g>
<!-- Node13&#45;&gt;Node5 -->
<g id="edge19" class="edge"><title>Node13&#45;&gt;Node5</title>
<path fill="none" stroke="midnightblue" d="M441.717,-112.485C438.666,-99.1021 434.94,-72.9297 447,-56 465.495,-30.0365 501.472,-19.0458 527.881,-14.3976"/>
<polygon fill="midnightblue" stroke="midnightblue" points="528.48,-17.8467 537.829,-12.8617 527.412,-10.9287 528.48,-17.8467"/>
</g>
<!-- Node13&#45;&gt;Node6 -->
<g id="edge18" class="edge"><title>Node13&#45;&gt;Node6</title>
<path fill="none" stroke="midnightblue" d="M426.969,-112.324C409.97,-103.664 383.624,-90.2424 364.007,-80.249"/>
<polygon fill="midnightblue" stroke="midnightblue" points="365.488,-77.0752 354.988,-75.6545 362.31,-83.3125 365.488,-77.0752"/>
</g>
<!-- Node13&#45;&gt;Node7 -->
<g id="edge20" class="edge"><title>Node13&#45;&gt;Node7</title>
<path fill="none" stroke="midnightblue" d="M435.682,-112.368C417.957,-93.9744 376.229,-50.6712 353.468,-27.0519"/>
<polygon fill="midnightblue" stroke="midnightblue" points="355.738,-24.3636 346.279,-19.5914 350.698,-29.2209 355.738,-24.3636"/>
</g>
<!-- Node14&#45;&gt;Node5 -->
<g id="edge50" class="edge"><title>Node14&#45;&gt;Node5</title>
<path fill="none" stroke="midnightblue" d="M832.947,-448.485C868.288,-433.711 932,-399.76 932,-347 932,-347 932,-347 932,-121 932,-72.0183 888.224,-74.8144 843,-56 757.307,-20.3494 646.214,-12.7612 592.253,-11.2676"/>
<polygon fill="midnightblue" stroke="midnightblue" points="592.323,-7.76834 582.248,-11.0436 592.167,-14.7666 592.323,-7.76834"/>
</g>
<!-- Node15 -->
<g id="node15" class="node"><title>Node15</title>
<g id="a_node15"><a xlink:href="DefaultElementLibrary_8h.html" target="_top" xlink:title="DefaultElementLibrary.h">
<polygon fill="white" stroke="black" points="772.5,-280.5 772.5,-299.5 903.5,-299.5 903.5,-280.5 772.5,-280.5"/>
<text text-anchor="middle" x="838" y="-287.5" font-family="Verdana" font-size="10.00">DefaultElementLibrary.h</text>
</a>
</g>
</g>
<!-- Node14&#45;&gt;Node15 -->
<g id="edge22" class="edge"><title>Node14&#45;&gt;Node15</title>
<path fill="none" stroke="midnightblue" d="M815.673,-448.282C826.317,-431.344 848.935,-392.445 857,-356 860.568,-339.877 854.501,-321.88 848.298,-308.918"/>
<polygon fill="midnightblue" stroke="midnightblue" points="851.224,-306.961 843.476,-299.735 845.027,-310.216 851.224,-306.961"/>
</g>
<!-- Node18 -->
<g id="node18" class="node"><title>Node18</title>
<g id="a_node18"><a xlink:href="VirtualSubsystem_8h.html" target="_top" xlink:title="VirtualSubsystem.h">
<polygon fill="white" stroke="black" points="502,-392.5 502,-411.5 612,-411.5 612,-392.5 502,-392.5"/>
<text text-anchor="middle" x="557" y="-399.5" font-family="Verdana" font-size="10.00">VirtualSubsystem.h</text>
</a>
</g>
</g>
<!-- Node14&#45;&gt;Node18 -->
<g id="edge30" class="edge"><title>Node14&#45;&gt;Node18</title>
<path fill="none" stroke="midnightblue" d="M769.911,-448.444C725.684,-439.004 654.461,-423.802 606.715,-413.611"/>
<polygon fill="midnightblue" stroke="midnightblue" points="607.411,-410.181 596.901,-411.516 605.95,-417.027 607.411,-410.181"/>
</g>
<!-- Node25 -->
<g id="node25" class="node"><title>Node25</title>
<g id="a_node25"><a xlink:href="NamedElementBuilderTemplate_8h.html" target="_top" xlink:title="NamedElementBuilderTemplate.h">
<polygon fill="white" stroke="black" points="671.5,-336.5 671.5,-355.5 848.5,-355.5 848.5,-336.5 671.5,-336.5"/>
<text text-anchor="middle" x="760" y="-343.5" font-family="Verdana" font-size="10.00">NamedElementBuilderTemplate.h</text>
</a>
</g>
</g>
<!-- Node14&#45;&gt;Node25 -->
<g id="edge48" class="edge"><title>Node14&#45;&gt;Node25</title>
<path fill="none" stroke="midnightblue" d="M808.373,-448.269C805.789,-435.483 800.087,-411.112 791,-392 786.273,-382.059 779.463,-371.885 773.429,-363.731"/>
<polygon fill="midnightblue" stroke="midnightblue" points="776.19,-361.58 767.321,-355.783 770.639,-365.845 776.19,-361.58"/>
</g>
<!-- Node15&#45;&gt;Node3 -->
<g id="edge27" class="edge"><title>Node15&#45;&gt;Node3</title>
<path fill="none" stroke="midnightblue" d="M810.588,-280.444C781.231,-271.28 734.481,-256.688 701.904,-246.519"/>
<polygon fill="midnightblue" stroke="midnightblue" points="702.873,-243.155 692.284,-243.516 700.787,-249.837 702.873,-243.155"/>
</g>
<!-- Node15&#45;&gt;Node5 -->
<g id="edge29" class="edge"><title>Node15&#45;&gt;Node5</title>
<path fill="none" stroke="midnightblue" d="M846.023,-280.358C861.508,-262.738 894,-220.788 894,-179 894,-179 894,-179 894,-121 894,-57.8436 675.832,-24.9223 592.146,-14.6173"/>
<polygon fill="midnightblue" stroke="midnightblue" points="592.52,-11.1371 582.173,-13.4186 591.684,-18.0871 592.52,-11.1371"/>
</g>
<!-- Node16 -->
<g id="node16" class="node"><title>Node16</title>
<g id="a_node16"><a xlink:href="ElementLibrary_8h.html" target="_top" xlink:title="ElementLibrary.h">
<polygon fill="white" stroke="black" points="732,-224.5 732,-243.5 828,-243.5 828,-224.5 732,-224.5"/>
<text text-anchor="middle" x="780" y="-231.5" font-family="Verdana" font-size="10.00">ElementLibrary.h</text>
</a>
</g>
</g>
<!-- Node15&#45;&gt;Node16 -->
<g id="edge23" class="edge"><title>Node15&#45;&gt;Node16</title>
<path fill="none" stroke="midnightblue" d="M828.681,-280.324C820.107,-272.341 807.188,-260.313 796.812,-250.653"/>
<polygon fill="midnightblue" stroke="midnightblue" points="799.192,-248.086 789.488,-243.834 794.422,-253.21 799.192,-248.086"/>
</g>
<!-- Node17 -->
<g id="node17" class="node"><title>Node17</title>
<polygon fill="white" stroke="#bfbfbf" points="825,-168.5 825,-187.5 863,-187.5 863,-168.5 825,-168.5"/>
<text text-anchor="middle" x="844" y="-175.5" font-family="Verdana" font-size="10.00">map</text>
</g>
<!-- Node15&#45;&gt;Node17 -->
<g id="edge28" class="edge"><title>Node15&#45;&gt;Node17</title>
<path fill="none" stroke="midnightblue" d="M838.471,-280.368C839.439,-262.617 841.673,-221.666 842.986,-197.597"/>
<polygon fill="midnightblue" stroke="midnightblue" points="846.481,-197.767 843.531,-187.591 839.492,-197.386 846.481,-197.767"/>
</g>
<!-- Node16&#45;&gt;Node4 -->
<g id="edge26" class="edge"><title>Node16&#45;&gt;Node4</title>
<path fill="none" stroke="midnightblue" d="M736.584,-224.444C685.197,-214.316 600.161,-197.557 548.97,-187.468"/>
<polygon fill="midnightblue" stroke="midnightblue" points="549.381,-183.982 538.893,-185.483 548.028,-190.85 549.381,-183.982"/>
</g>
<!-- Node16&#45;&gt;Node5 -->
<g id="edge25" class="edge"><title>Node16&#45;&gt;Node5</title>
<path fill="none" stroke="midnightblue" d="M782.617,-224.297C790.527,-196.049 811.099,-105.868 768,-56 745.398,-29.8483 644.72,-17.8855 592.171,-13.3409"/>
<polygon fill="midnightblue" stroke="midnightblue" points="592.291,-9.83898 582.037,-12.505 591.715,-16.8153 592.291,-9.83898"/>
</g>
<!-- Node16&#45;&gt;Node17 -->
<g id="edge24" class="edge"><title>Node16&#45;&gt;Node17</title>
<path fill="none" stroke="midnightblue" d="M790.283,-224.324C799.836,-216.263 814.28,-204.077 825.784,-194.369"/>
<polygon fill="midnightblue" stroke="midnightblue" points="828.144,-196.958 833.53,-187.834 823.63,-191.608 828.144,-196.958"/>
</g>
<!-- Node18&#45;&gt;Node5 -->
<g id="edge47" class="edge"><title>Node18&#45;&gt;Node5</title>
<path fill="none" stroke="midnightblue" d="M557.889,-392.286C560.939,-365.459 572.757,-282.396 607,-224 651.659,-147.841 765.892,-126.689 713,-56 698.504,-36.6261 632.481,-22.7305 592.049,-15.8638"/>
<polygon fill="midnightblue" stroke="midnightblue" points="592.558,-12.4006 582.123,-14.2314 591.422,-19.3078 592.558,-12.4006"/>
</g>
<!-- Node19 -->
<g id="node19" class="node"><title>Node19</title>
<g id="a_node19"><a xlink:href="Subsystem_8h.html" target="_top" xlink:title="Subsystem.h">
<polygon fill="white" stroke="black" points="289,-336.5 289,-355.5 369,-355.5 369,-336.5 289,-336.5"/>
<text text-anchor="middle" x="329" y="-343.5" font-family="Verdana" font-size="10.00">Subsystem.h</text>
</a>
</g>
</g>
<!-- Node18&#45;&gt;Node19 -->
<g id="edge31" class="edge"><title>Node18&#45;&gt;Node19</title>
<path fill="none" stroke="midnightblue" d="M520.873,-392.444C481.349,-383.083 417.903,-368.056 374.887,-357.868"/>
<polygon fill="midnightblue" stroke="midnightblue" points="375.496,-354.415 364.958,-355.516 373.882,-361.227 375.496,-354.415"/>
</g>
<!-- Node19&#45;&gt;Node5 -->
<g id="edge45" class="edge"><title>Node19&#45;&gt;Node5</title>
<path fill="none" stroke="midnightblue" d="M290.916,-336.462C243.877,-323.404 170,-293.573 170,-235 170,-235 170,-235 170,-121 170,-75.8741 206.777,-74.359 248,-56 297.59,-33.9145 457.691,-19.0347 527.241,-13.4559"/>
<polygon fill="midnightblue" stroke="midnightblue" points="527.9,-16.9149 537.595,-12.6407 527.351,-9.93645 527.9,-16.9149"/>
</g>
<!-- Node19&#45;&gt;Node6 -->
<g id="edge46" class="edge"><title>Node19&#45;&gt;Node6</title>
<path fill="none" stroke="midnightblue" d="M369.207,-341.772C421.745,-336.623 509.379,-324.526 529,-300 539.799,-286.501 537.215,-249.389 520,-224 508.814,-207.503 379.136,-146.991 366,-132 354.371,-118.728 346.978,-99.8918 342.728,-85.9104"/>
<polygon fill="midnightblue" stroke="midnightblue" points="346.009,-84.6441 339.972,-75.9375 339.262,-86.5086 346.009,-84.6441"/>
</g>
<!-- Node19&#45;&gt;Node8 -->
<g id="edge43" class="edge"><title>Node19&#45;&gt;Node8</title>
<path fill="none" stroke="midnightblue" d="M288.922,-338.277C266.628,-332.267 240.687,-320.998 227,-300 194.313,-249.853 224.565,-174.695 241.425,-140.756"/>
<polygon fill="midnightblue" stroke="midnightblue" points="244.665,-142.111 246.143,-131.62 238.445,-138.899 244.665,-142.111"/>
</g>
<!-- Node20 -->
<g id="node20" class="node"><title>Node20</title>
<g id="a_node20"><a xlink:href="ConfigurableElement_8h.html" target="_top" xlink:title="ConfigurableElement.h">
<polygon fill="white" stroke="black" points="386.5,-224.5 386.5,-243.5 511.5,-243.5 511.5,-224.5 386.5,-224.5"/>
<text text-anchor="middle" x="449" y="-231.5" font-family="Verdana" font-size="10.00">ConfigurableElement.h</text>
</a>
</g>
</g>
<!-- Node19&#45;&gt;Node20 -->
<g id="edge32" class="edge"><title>Node19&#45;&gt;Node20</title>
<path fill="none" stroke="midnightblue" d="M368.101,-336.481C389.499,-329.906 414.863,-318.671 431,-300 442.117,-287.138 446.414,-267.958 448.051,-253.763"/>
<polygon fill="midnightblue" stroke="midnightblue" points="451.55,-253.915 448.873,-243.664 444.573,-253.347 451.55,-253.915"/>
</g>
<!-- Node21 -->
<g id="node21" class="node"><title>Node21</title>
<g id="a_node21"><a xlink:href="ConfigurableElementWithMapping_8h.html" target="_top" xlink:title="ConfigurableElementWithMapping.h">
<polygon fill="white" stroke="black" points="236,-280.5 236,-299.5 422,-299.5 422,-280.5 236,-280.5"/>
<text text-anchor="middle" x="329" y="-287.5" font-family="Verdana" font-size="10.00">ConfigurableElementWithMapping.h</text>
</a>
</g>
</g>
<!-- Node19&#45;&gt;Node21 -->
<g id="edge35" class="edge"><title>Node19&#45;&gt;Node21</title>
<path fill="none" stroke="midnightblue" d="M329,-336.083C329,-329.006 329,-318.861 329,-309.986"/>
<polygon fill="midnightblue" stroke="midnightblue" points="332.5,-309.751 329,-299.751 325.5,-309.751 332.5,-309.751"/>
</g>
<!-- Node22 -->
<g id="node22" class="node"><title>Node22</title>
<g id="a_node22"><a xlink:href="Mapper_8h.html" target="_top" xlink:title="Mapper.h">
<polygon fill="white" stroke="black" points="80.5,-168.5 80.5,-187.5 141.5,-187.5 141.5,-168.5 80.5,-168.5"/>
<text text-anchor="middle" x="111" y="-175.5" font-family="Verdana" font-size="10.00">Mapper.h</text>
</a>
</g>
</g>
<!-- Node19&#45;&gt;Node22 -->
<g id="edge38" class="edge"><title>Node19&#45;&gt;Node22</title>
<path fill="none" stroke="midnightblue" d="M288.717,-344.738C250.122,-342.365 192.503,-332.971 156,-300 126.154,-273.042 116.039,-224.424 112.659,-197.758"/>
<polygon fill="midnightblue" stroke="midnightblue" points="116.105,-197.072 111.558,-187.503 109.145,-197.819 116.105,-197.072"/>
</g>
<!-- Node23 -->
<g id="node23" class="node"><title>Node23</title>
<g id="a_node23"><a xlink:href="MappingContext_8h.html" target="_top" xlink:title="MappingContext.h">
<polygon fill="white" stroke="black" points="0,-56.5 0,-75.5 104,-75.5 104,-56.5 0,-56.5"/>
<text text-anchor="middle" x="52" y="-63.5" font-family="Verdana" font-size="10.00">MappingContext.h</text>
</a>
</g>
</g>
<!-- Node19&#45;&gt;Node23 -->
<g id="edge40" class="edge"><title>Node19&#45;&gt;Node23</title>
<path fill="none" stroke="midnightblue" d="M288.768,-340.585C248.753,-335.061 186.37,-323.335 137,-300 94.0033,-279.677 52,-282.558 52,-235 52,-235 52,-235 52,-177 52,-144.948 52,-107.643 52,-85.7489"/>
<polygon fill="midnightblue" stroke="midnightblue" points="55.5001,-85.5577 52,-75.5578 48.5001,-85.5578 55.5001,-85.5577"/>
</g>
<!-- Node24 -->
<g id="node24" class="node"><title>Node24</title>
<polygon fill="white" stroke="#bfbfbf" points="478,-280.5 478,-299.5 520,-299.5 520,-280.5 478,-280.5"/>
<text text-anchor="middle" x="499" y="-287.5" font-family="Verdana" font-size="10.00">stack</text>
</g>
<!-- Node19&#45;&gt;Node24 -->
<g id="edge44" class="edge"><title>Node19&#45;&gt;Node24</title>
<path fill="none" stroke="midnightblue" d="M355.937,-336.444C386.435,-326.756 436.035,-311.001 468.085,-300.82"/>
<polygon fill="midnightblue" stroke="midnightblue" points="469.357,-304.088 477.828,-297.725 467.238,-297.417 469.357,-304.088"/>
</g>
<!-- Node20&#45;&gt;Node4 -->
<g id="edge33" class="edge"><title>Node20&#45;&gt;Node4</title>
<path fill="none" stroke="midnightblue" d="M458.158,-224.324C466.501,-216.42 479.032,-204.548 489.177,-194.938"/>
<polygon fill="midnightblue" stroke="midnightblue" points="491.823,-197.252 496.675,-187.834 487.009,-192.171 491.823,-197.252"/>
</g>
<!-- Node20&#45;&gt;Node8 -->
<g id="edge34" class="edge"><title>Node20&#45;&gt;Node8</title>
<path fill="none" stroke="midnightblue" d="M433.463,-224.368C399.04,-205.245 316.153,-159.196 275.006,-136.336"/>
<polygon fill="midnightblue" stroke="midnightblue" points="276.634,-133.237 266.193,-131.44 273.234,-139.356 276.634,-133.237"/>
</g>
<!-- Node21&#45;&gt;Node5 -->
<g id="edge37" class="edge"><title>Node21&#45;&gt;Node5</title>
<path fill="none" stroke="midnightblue" d="M306.241,-280.43C271.19,-265.579 208,-231.522 208,-179 208,-179 208,-179 208,-121 208,-54.3137 441.072,-23.3201 527.906,-14.087"/>
<polygon fill="midnightblue" stroke="midnightblue" points="528.394,-17.5553 537.981,-13.0442 527.674,-10.5925 528.394,-17.5553"/>
</g>
<!-- Node21&#45;&gt;Node20 -->
<g id="edge36" class="edge"><title>Node21&#45;&gt;Node20</title>
<path fill="none" stroke="midnightblue" d="M348.014,-280.444C367.588,-271.636 398.308,-257.812 420.729,-247.722"/>
<polygon fill="midnightblue" stroke="midnightblue" points="422.392,-250.812 430.075,-243.516 419.519,-244.428 422.392,-250.812"/>
</g>
<!-- Node22&#45;&gt;Node5 -->
<g id="edge39" class="edge"><title>Node22&#45;&gt;Node5</title>
<path fill="none" stroke="midnightblue" d="M111.314,-168.207C112.645,-145.448 119.606,-84.411 156,-56 185.133,-33.2567 437.111,-17.6024 527.718,-12.6645"/>
<polygon fill="midnightblue" stroke="midnightblue" points="528.144,-16.1468 537.942,-12.1157 527.769,-9.15687 528.144,-16.1468"/>
</g>
<!-- Node23&#45;&gt;Node5 -->
<g id="edge42" class="edge"><title>Node23&#45;&gt;Node5</title>
<path fill="none" stroke="midnightblue" d="M104.218,-57.7123C108.876,-57.1128 113.522,-56.5332 118,-56 270.989,-37.7863 454.327,-20.5993 527.514,-13.9253"/>
<polygon fill="midnightblue" stroke="midnightblue" points="528.253,-17.3727 537.895,-12.9819 527.619,-10.4014 528.253,-17.3727"/>
</g>
<!-- Node23&#45;&gt;Node7 -->
<g id="edge41" class="edge"><title>Node23&#45;&gt;Node7</title>
<path fill="none" stroke="midnightblue" d="M97.3176,-56.4435C153.755,-45.7875 249.077,-27.7897 301.217,-17.945"/>
<polygon fill="midnightblue" stroke="midnightblue" points="302.175,-21.3262 311.352,-16.0315 300.876,-14.4477 302.175,-21.3262"/>
</g>
<!-- Node25&#45;&gt;Node3 -->
<g id="edge49" class="edge"><title>Node25&#45;&gt;Node3</title>
<path fill="none" stroke="midnightblue" d="M752.546,-336.368C736.729,-318.055 699.588,-275.049 679.131,-251.362"/>
<polygon fill="midnightblue" stroke="midnightblue" points="681.605,-248.872 672.42,-243.591 676.307,-253.447 681.605,-248.872"/>
</g>
</g>
</svg>
