<?xml version="1.0" encoding="UTF-8" standalone="no"?>
<!DOCTYPE svg PUBLIC "-//W3C//DTD SVG 1.1//EN"
 "http://www.w3.org/Graphics/SVG/1.1/DTD/svg11.dtd">
<!-- Generated by graphviz version 2.36.0 (20140111.2315)
 -->
<!-- Title: parameter/SubsystemObjectCreator.h Pages: 1 -->
<svg width="265pt" height="208pt"
 viewBox="0.00 0.00 265.00 208.00" xmlns="http://www.w3.org/2000/svg" xmlns:xlink="http://www.w3.org/1999/xlink">
<g id="graph0" class="graph" transform="scale(1 1) rotate(0) translate(4 204)">
<title>parameter/SubsystemObjectCreator.h</title>
<polygon fill="white" stroke="none" points="-4,4 -4,-204 261,-204 261,4 -4,4"/>
<!-- Node1 -->
<g id="node1" class="node"><title>Node1</title>
<polygon fill="#bfbfbf" stroke="black" points="-0.5,-169 -0.5,-199 154.5,-199 154.5,-169 -0.5,-169"/>
<text text-anchor="start" x="7.5" y="-187" font-family="Verdana" font-size="10.00">parameter/SubsystemObject</text>
<text text-anchor="middle" x="77" y="-176" font-family="Verdana" font-size="10.00">Creator.h</text>
</g>
<!-- Node2 -->
<g id="node2" class="node"><title>Node2</title>
<g id="a_node2"><a xlink:href="SubsystemObject_8h.html" target="_top" xlink:title="SubsystemObject.h">
<polygon fill="white" stroke="black" points="147,-112.5 147,-131.5 257,-131.5 257,-112.5 147,-112.5"/>
<text text-anchor="middle" x="202" y="-119.5" font-family="Verdana" font-size="10.00">SubsystemObject.h</text>
</a>
</g>
</g>
<!-- Node1&#45;&gt;Node2 -->
<g id="edge1" class="edge"><title>Node1&#45;&gt;Node2</title>
<path fill="none" stroke="midnightblue" d="M106.307,-168.933C127.019,-158.991 154.583,-145.76 174.807,-136.053"/>
<polygon fill="midnightblue" stroke="midnightblue" points="176.583,-139.083 184.083,-131.6 173.553,-132.772 176.583,-139.083"/>
</g>
<!-- Node4 -->
<g id="node4" class="node"><title>Node4</title>
<polygon fill="white" stroke="#bfbfbf" points="96,-0.5 96,-19.5 140,-19.5 140,-0.5 96,-0.5"/>
<text text-anchor="middle" x="118" y="-7.5" font-family="Verdana" font-size="10.00">string</text>
</g>
<!-- Node1&#45;&gt;Node4 -->
<g id="edge9" class="edge"><title>Node1&#45;&gt;Node4</title>
<path fill="none" stroke="midnightblue" d="M50.6186,-168.794C30.3517,-155.782 7.19604,-135.079 16,-112 30.793,-73.2207 69.5092,-42.1511 94.76,-25.173"/>
<polygon fill="midnightblue" stroke="midnightblue" points="96.9073,-27.9517 103.384,-19.5673 93.0924,-22.0825 96.9073,-27.9517"/>
</g>
<!-- Node6 -->
<g id="node6" class="node"><title>Node6</title>
<g id="a_node6"><a xlink:href="MappingContext_8h.html" target="_top" xlink:title="MappingContext.h">
<polygon fill="white" stroke="black" points="25,-112.5 25,-131.5 129,-131.5 129,-112.5 25,-112.5"/>
<text text-anchor="middle" x="77" y="-119.5" font-family="Verdana" font-size="10.00">MappingContext.h</text>
</a>
</g>
</g>
<!-- Node1&#45;&gt;Node6 -->
<g id="edge6" class="edge"><title>Node1&#45;&gt;Node6</title>
<path fill="none" stroke="midnightblue" d="M77,-168.781C77,-160.781 77,-150.689 77,-142.017"/>
<polygon fill="midnightblue" stroke="midnightblue" points="80.5001,-141.73 77,-131.731 73.5001,-141.731 80.5001,-141.73"/>
</g>
<!-- Node3 -->
<g id="node3" class="node"><title>Node3</title>
<g id="a_node3"><a xlink:href="Syncer_8h.html" target="_top" xlink:title="Syncer.h">
<polygon fill="white" stroke="black" points="154,-56.5 154,-75.5 212,-75.5 212,-56.5 154,-56.5"/>
<text text-anchor="middle" x="183" y="-63.5" font-family="Verdana" font-size="10.00">Syncer.h</text>
</a>
</g>
</g>
<!-- Node2&#45;&gt;Node3 -->
<g id="edge2" class="edge"><title>Node2&#45;&gt;Node3</title>
<path fill="none" stroke="midnightblue" d="M198.863,-112.083C196.317,-104.849 192.644,-94.4087 189.473,-85.3968"/>
<polygon fill="midnightblue" stroke="midnightblue" points="192.7,-84.0225 186.079,-75.7511 186.097,-86.3459 192.7,-84.0225"/>
</g>
<!-- Node2&#45;&gt;Node4 -->
<g id="edge5" class="edge"><title>Node2&#45;&gt;Node4</title>
<path fill="none" stroke="midnightblue" d="M208.56,-112.322C217.63,-99.1746 231.637,-73.8534 220,-56 204.625,-32.4121 173.787,-21.1009 150.024,-15.7308"/>
<polygon fill="midnightblue" stroke="midnightblue" points="150.507,-12.2578 140.013,-13.7165 149.126,-19.1203 150.507,-12.2578"/>
</g>
<!-- Node5 -->
<g id="node5" class="node"><title>Node5</title>
<polygon fill="white" stroke="#bfbfbf" points="82.5,-56.5 82.5,-75.5 135.5,-75.5 135.5,-56.5 82.5,-56.5"/>
<text text-anchor="middle" x="109" y="-63.5" font-family="Verdana" font-size="10.00">stdint.h</text>
</g>
<!-- Node2&#45;&gt;Node5 -->
<g id="edge4" class="edge"><title>Node2&#45;&gt;Node5</title>
<path fill="none" stroke="midnightblue" d="M187.058,-112.324C172.415,-103.822 149.866,-90.7288 132.762,-80.7975"/>
<polygon fill="midnightblue" stroke="midnightblue" points="134.31,-77.6491 123.905,-75.6545 130.795,-83.7027 134.31,-77.6491"/>
</g>
<!-- Node3&#45;&gt;Node4 -->
<g id="edge3" class="edge"><title>Node3&#45;&gt;Node4</title>
<path fill="none" stroke="midnightblue" d="M172.557,-56.324C162.854,-48.2631 148.185,-36.0765 136.5,-26.3695"/>
<polygon fill="midnightblue" stroke="midnightblue" points="138.562,-23.532 128.633,-19.8339 134.089,-28.9163 138.562,-23.532"/>
</g>
<!-- Node6&#45;&gt;Node4 -->
<g id="edge8" class="edge"><title>Node6&#45;&gt;Node4</title>
<path fill="none" stroke="midnightblue" d="M74.0925,-112.186C70.3534,-99.2986 65.212,-74.8018 73,-56 77.9204,-44.121 87.6667,-33.7428 96.8343,-25.9557"/>
<polygon fill="midnightblue" stroke="midnightblue" points="99.2529,-28.5058 104.936,-19.5641 94.9172,-23.0101 99.2529,-28.5058"/>
</g>
<!-- Node6&#45;&gt;Node5 -->
<g id="edge7" class="edge"><title>Node6&#45;&gt;Node5</title>
<path fill="none" stroke="midnightblue" d="M82.2841,-112.083C86.711,-104.613 93.1633,-93.7244 98.6179,-84.5199"/>
<polygon fill="midnightblue" stroke="midnightblue" points="101.727,-86.1383 103.814,-75.7511 95.7051,-82.5697 101.727,-86.1383"/>
</g>
</g>
</svg>
