<?xml version="1.0" encoding="UTF-8" standalone="no"?>
<!DOCTYPE svg PUBLIC "-//W3C//DTD SVG 1.1//EN"
 "http://www.w3.org/Graphics/SVG/1.1/DTD/svg11.dtd">
<!-- Generated by graphviz version 2.38.0 (20140413.2041)
 -->
<!-- Title: /home/dawagner/dev/parameter&#45;framework/parameter/SubsystemElementBuilder.cpp Pages: 1 -->
<svg width="935pt" height="509pt"
 viewBox="0.00 0.00 935.00 509.00" xmlns="http://www.w3.org/2000/svg" xmlns:xlink="http://www.w3.org/1999/xlink">
<g id="graph0" class="graph" transform="scale(1 1) rotate(0) translate(4 505)">
<title>/home/dawagner/dev/parameter&#45;framework/parameter/SubsystemElementBuilder.cpp</title>
<polygon fill="white" stroke="none" points="-4,4 -4,-505 931,-505 931,4 -4,4"/>
<!-- Node1 -->
<g id="node1" class="node"><title>Node1</title>
<polygon fill="#bfbfbf" stroke="black" points="186.5,-448.5 186.5,-500.5 353.5,-500.5 353.5,-448.5 186.5,-448.5"/>
<text text-anchor="start" x="194.5" y="-488.5" font-family="Verdana" font-size="10.00">/home/dawagner/dev</text>
<text text-anchor="start" x="194.5" y="-477.5" font-family="Verdana" font-size="10.00">/parameter&#45;framework</text>
<text text-anchor="start" x="194.5" y="-466.5" font-family="Verdana" font-size="10.00">/parameter/SubsystemElement</text>
<text text-anchor="middle" x="270" y="-455.5" font-family="Verdana" font-size="10.00">Builder.cpp</text>
</g>
<!-- Node2 -->
<g id="node2" class="node"><title>Node2</title>
<g id="a_node2"><a xlink:href="SubsystemElementBuilder_8h.html" target="_top" xlink:title="SubsystemElementBuilder.h">
<polygon fill="white" stroke="black" points="0,-336.5 0,-355.5 152,-355.5 152,-336.5 0,-336.5"/>
<text text-anchor="middle" x="76" y="-343.5" font-family="Verdana" font-size="10.00">SubsystemElementBuilder.h</text>
</a>
</g>
</g>
<!-- Node1&#45;&gt;Node2 -->
<g id="edge1" class="edge"><title>Node1&#45;&gt;Node2</title>
<path fill="none" stroke="midnightblue" d="M231.207,-448.205C191.153,-422.087 130.085,-382.267 97.7874,-361.207"/>
<polygon fill="midnightblue" stroke="midnightblue" points="99.4001,-358.08 89.1118,-355.55 95.5767,-363.944 99.4001,-358.08"/>
</g>
<!-- Node12 -->
<g id="node12" class="node"><title>Node12</title>
<g id="a_node12"><a xlink:href="SubsystemLibrary_8h.html" target="_top" xlink:title="SubsystemLibrary.h">
<polygon fill="white" stroke="black" points="308,-392.5 308,-411.5 418,-411.5 418,-392.5 308,-392.5"/>
<text text-anchor="middle" x="363" y="-399.5" font-family="Verdana" font-size="10.00">SubsystemLibrary.h</text>
</a>
</g>
</g>
<!-- Node1&#45;&gt;Node12 -->
<g id="edge14" class="edge"><title>Node1&#45;&gt;Node12</title>
<path fill="none" stroke="midnightblue" d="M303.05,-448.446C316.53,-438.227 331.659,-426.758 343.347,-417.898"/>
<polygon fill="midnightblue" stroke="midnightblue" points="345.675,-420.526 351.529,-411.695 341.446,-414.947 345.675,-420.526"/>
</g>
<!-- Node3 -->
<g id="node3" class="node"><title>Node3</title>
<g id="a_node3"><a xlink:href="ElementBuilder_8h.html" target="_top" xlink:title="ElementBuilder.h">
<polygon fill="white" stroke="black" points="201,-168.5 201,-187.5 299,-187.5 299,-168.5 201,-168.5"/>
<text text-anchor="middle" x="250" y="-175.5" font-family="Verdana" font-size="10.00">ElementBuilder.h</text>
</a>
</g>
</g>
<!-- Node2&#45;&gt;Node3 -->
<g id="edge2" class="edge"><title>Node2&#45;&gt;Node3</title>
<path fill="none" stroke="midnightblue" d="M85.355,-336.075C113.455,-309.267 197.391,-229.19 233.349,-194.885"/>
<polygon fill="midnightblue" stroke="midnightblue" points="236.199,-197.003 241.019,-187.568 231.368,-191.939 236.199,-197.003"/>
</g>
<!-- Node4 -->
<g id="node4" class="node"><title>Node4</title>
<g id="a_node4"><a xlink:href="Element_8h.html" target="_top" xlink:title="Element.h">
<polygon fill="white" stroke="black" points="374.5,-112.5 374.5,-131.5 439.5,-131.5 439.5,-112.5 374.5,-112.5"/>
<text text-anchor="middle" x="407" y="-119.5" font-family="Verdana" font-size="10.00">Element.h</text>
</a>
</g>
</g>
<!-- Node3&#45;&gt;Node4 -->
<g id="edge3" class="edge"><title>Node3&#45;&gt;Node4</title>
<path fill="none" stroke="midnightblue" d="M274.877,-168.444C301.289,-159.359 343.215,-144.939 372.742,-134.783"/>
<polygon fill="midnightblue" stroke="midnightblue" points="373.921,-138.079 382.239,-131.516 371.645,-131.459 373.921,-138.079"/>
</g>
<!-- Node5 -->
<g id="node5" class="node"><title>Node5</title>
<polygon fill="white" stroke="#bfbfbf" points="668,-0.5 668,-19.5 712,-19.5 712,-0.5 668,-0.5"/>
<text text-anchor="middle" x="690" y="-7.5" font-family="Verdana" font-size="10.00">string</text>
</g>
<!-- Node4&#45;&gt;Node5 -->
<g id="edge4" class="edge"><title>Node4&#45;&gt;Node5</title>
<path fill="none" stroke="midnightblue" d="M439.118,-112.422C468.795,-104.171 513.918,-90.795 552,-76 554.802,-74.9114 623.079,-42.6551 662.523,-24.0004"/>
<polygon fill="midnightblue" stroke="midnightblue" points="664.33,-27.0178 671.873,-19.578 661.337,-20.69 664.33,-27.0178"/>
</g>
<!-- Node6 -->
<g id="node6" class="node"><title>Node6</title>
<polygon fill="white" stroke="#bfbfbf" points="157.5,-0.5 157.5,-19.5 204.5,-19.5 204.5,-0.5 157.5,-0.5"/>
<text text-anchor="middle" x="181" y="-7.5" font-family="Verdana" font-size="10.00">vector</text>
</g>
<!-- Node4&#45;&gt;Node6 -->
<g id="edge5" class="edge"><title>Node4&#45;&gt;Node6</title>
<path fill="none" stroke="midnightblue" d="M374.363,-114.349C316.859,-102.57 203.212,-78.9933 200,-76 187.377,-64.2352 182.983,-44.596 181.531,-29.9781"/>
<polygon fill="midnightblue" stroke="midnightblue" points="184.999,-29.3459 180.897,-19.5777 178.012,-29.7723 184.999,-29.3459"/>
</g>
<!-- Node7 -->
<g id="node7" class="node"><title>Node7</title>
<polygon fill="white" stroke="#bfbfbf" points="384.5,-0.5 384.5,-19.5 437.5,-19.5 437.5,-0.5 384.5,-0.5"/>
<text text-anchor="middle" x="411" y="-7.5" font-family="Verdana" font-size="10.00">stdint.h</text>
</g>
<!-- Node4&#45;&gt;Node7 -->
<g id="edge6" class="edge"><title>Node4&#45;&gt;Node7</title>
<path fill="none" stroke="midnightblue" d="M407.314,-112.368C407.959,-94.617 409.448,-53.6664 410.324,-29.5974"/>
<polygon fill="midnightblue" stroke="midnightblue" points="413.822,-29.712 410.688,-19.5914 406.826,-29.4576 413.822,-29.712"/>
</g>
<!-- Node8 -->
<g id="node8" class="node"><title>Node8</title>
<polygon fill="white" stroke="#bfbfbf" points="675,-56.5 675,-75.5 705,-75.5 705,-56.5 675,-56.5"/>
<text text-anchor="middle" x="690" y="-63.5" font-family="Verdana" font-size="10.00">list</text>
</g>
<!-- Node4&#45;&gt;Node8 -->
<g id="edge7" class="edge"><title>Node4&#45;&gt;Node8</title>
<path fill="none" stroke="midnightblue" d="M439.74,-114.753C496.927,-103.841 613.793,-81.5413 665.011,-71.7683"/>
<polygon fill="midnightblue" stroke="midnightblue" points="665.732,-75.1939 674.898,-69.8816 664.42,-68.318 665.732,-75.1939"/>
</g>
<!-- Node9 -->
<g id="node9" class="node"><title>Node9</title>
<polygon fill="white" stroke="#bfbfbf" points="319,-56.5 319,-75.5 383,-75.5 383,-56.5 319,-56.5"/>
<text text-anchor="middle" x="351" y="-63.5" font-family="Verdana" font-size="10.00">XmlSink.h</text>
</g>
<!-- Node4&#45;&gt;Node9 -->
<g id="edge8" class="edge"><title>Node4&#45;&gt;Node9</title>
<path fill="none" stroke="midnightblue" d="M398.003,-112.324C389.806,-104.42 377.494,-92.5482 367.528,-82.9377"/>
<polygon fill="midnightblue" stroke="midnightblue" points="369.789,-80.2558 360.161,-75.8339 364.93,-85.2947 369.789,-80.2558"/>
</g>
<!-- Node10 -->
<g id="node10" class="node"><title>Node10</title>
<polygon fill="white" stroke="#bfbfbf" points="75.5,-56.5 75.5,-75.5 152.5,-75.5 152.5,-56.5 75.5,-56.5"/>
<text text-anchor="middle" x="114" y="-63.5" font-family="Verdana" font-size="10.00">XmlSource.h</text>
</g>
<!-- Node4&#45;&gt;Node10 -->
<g id="edge9" class="edge"><title>Node4&#45;&gt;Node10</title>
<path fill="none" stroke="midnightblue" d="M374.081,-114.346C370.014,-113.544 365.913,-112.746 362,-112 292.833,-98.8091 212.634,-84.4215 162.599,-75.5533"/>
<polygon fill="midnightblue" stroke="midnightblue" points="163.158,-72.0979 152.701,-73.8012 161.938,-78.9908 163.158,-72.0979"/>
</g>
<!-- Node11 -->
<g id="node11" class="node"><title>Node11</title>
<g id="a_node11"><a xlink:href="PathNavigator_8h.html" target="_top" xlink:title="PathNavigator.h">
<polygon fill="white" stroke="black" points="209,-56.5 209,-75.5 301,-75.5 301,-56.5 209,-56.5"/>
<text text-anchor="middle" x="255" y="-63.5" font-family="Verdana" font-size="10.00">PathNavigator.h</text>
</a>
</g>
</g>
<!-- Node4&#45;&gt;Node11 -->
<g id="edge10" class="edge"><title>Node4&#45;&gt;Node11</title>
<path fill="none" stroke="midnightblue" d="M382.915,-112.444C357.455,-103.399 317.106,-89.064 288.541,-78.9158"/>
<polygon fill="midnightblue" stroke="midnightblue" points="289.567,-75.5661 278.972,-75.5164 287.223,-82.1622 289.567,-75.5661"/>
</g>
<!-- Node11&#45;&gt;Node5 -->
<g id="edge12" class="edge"><title>Node11&#45;&gt;Node5</title>
<path fill="none" stroke="midnightblue" d="M301.191,-57.2891C304.17,-56.8389 307.126,-56.4052 310,-56 438.367,-37.9057 591.829,-21.2499 657.543,-14.353"/>
<polygon fill="midnightblue" stroke="midnightblue" points="658.101,-17.8138 667.683,-13.2933 657.373,-10.8518 658.101,-17.8138"/>
</g>
<!-- Node11&#45;&gt;Node6 -->
<g id="edge11" class="edge"><title>Node11&#45;&gt;Node6</title>
<path fill="none" stroke="midnightblue" d="M243.111,-56.324C231.85,-48.1066 214.713,-35.6017 201.291,-25.8069"/>
<polygon fill="midnightblue" stroke="midnightblue" points="203.247,-22.9014 193.106,-19.8339 199.12,-28.5559 203.247,-22.9014"/>
</g>
<!-- Node11&#45;&gt;Node7 -->
<g id="edge13" class="edge"><title>Node11&#45;&gt;Node7</title>
<path fill="none" stroke="midnightblue" d="M279.719,-56.4435C305.848,-47.3986 347.259,-33.064 376.576,-22.9158"/>
<polygon fill="midnightblue" stroke="midnightblue" points="378.092,-26.0951 386.397,-19.5164 375.802,-19.4801 378.092,-26.0951"/>
</g>
<!-- Node12&#45;&gt;Node5 -->
<g id="edge43" class="edge"><title>Node12&#45;&gt;Node5</title>
<path fill="none" stroke="midnightblue" d="M418.106,-401.806C560.023,-402.407 927,-394.004 927,-291 927,-291 927,-291 927,-121 927,-31.8381 787.283,-14.7464 722.4,-11.6163"/>
<polygon fill="midnightblue" stroke="midnightblue" points="722.428,-8.11474 712.296,-11.2133 722.149,-15.1092 722.428,-8.11474"/>
</g>
<!-- Node13 -->
<g id="node13" class="node"><title>Node13</title>
<g id="a_node13"><a xlink:href="DefaultElementLibrary_8h.html" target="_top" xlink:title="DefaultElementLibrary.h">
<polygon fill="white" stroke="black" points="275.5,-224.5 275.5,-243.5 406.5,-243.5 406.5,-224.5 275.5,-224.5"/>
<text text-anchor="middle" x="341" y="-231.5" font-family="Verdana" font-size="10.00">DefaultElementLibrary.h</text>
</a>
</g>
</g>
<!-- Node12&#45;&gt;Node13 -->
<g id="edge15" class="edge"><title>Node12&#45;&gt;Node13</title>
<path fill="none" stroke="midnightblue" d="M361.817,-392.075C358.354,-365.945 348.185,-289.211 343.462,-253.577"/>
<polygon fill="midnightblue" stroke="midnightblue" points="346.919,-253.022 342.136,-243.568 339.98,-253.941 346.919,-253.022"/>
</g>
<!-- Node16 -->
<g id="node16" class="node"><title>Node16</title>
<g id="a_node16"><a xlink:href="VirtualSubsystem_8h.html" target="_top" xlink:title="VirtualSubsystem.h">
<polygon fill="white" stroke="black" points="533,-336.5 533,-355.5 643,-355.5 643,-336.5 533,-336.5"/>
<text text-anchor="middle" x="588" y="-343.5" font-family="Verdana" font-size="10.00">VirtualSubsystem.h</text>
</a>
</g>
</g>
<!-- Node12&#45;&gt;Node16 -->
<g id="edge23" class="edge"><title>Node12&#45;&gt;Node16</title>
<path fill="none" stroke="midnightblue" d="M398.652,-392.444C437.656,-383.083 500.266,-368.056 542.717,-357.868"/>
<polygon fill="midnightblue" stroke="midnightblue" points="543.608,-361.254 552.515,-355.516 541.974,-354.447 543.608,-361.254"/>
</g>
<!-- Node23 -->
<g id="node23" class="node"><title>Node23</title>
<g id="a_node23"><a xlink:href="NamedElementBuilderTemplate_8h.html" target="_top" xlink:title="NamedElementBuilderTemplate.h">
<polygon fill="white" stroke="black" points="158.5,-280.5 158.5,-299.5 335.5,-299.5 335.5,-280.5 158.5,-280.5"/>
<text text-anchor="middle" x="247" y="-287.5" font-family="Verdana" font-size="10.00">NamedElementBuilderTemplate.h</text>
</a>
</g>
</g>
<!-- Node12&#45;&gt;Node23 -->
<g id="edge41" class="edge"><title>Node12&#45;&gt;Node23</title>
<path fill="none" stroke="midnightblue" d="M353.898,-392.368C334.416,-373.894 288.436,-330.293 263.602,-306.744"/>
<polygon fill="midnightblue" stroke="midnightblue" points="265.725,-303.933 256.06,-299.591 260.908,-309.012 265.725,-303.933"/>
</g>
<!-- Node13&#45;&gt;Node3 -->
<g id="edge20" class="edge"><title>Node13&#45;&gt;Node3</title>
<path fill="none" stroke="midnightblue" d="M326.379,-224.324C312.051,-215.822 289.987,-202.729 273.251,-192.797"/>
<polygon fill="midnightblue" stroke="midnightblue" points="274.97,-189.748 264.584,-187.655 271.398,-195.768 274.97,-189.748"/>
</g>
<!-- Node13&#45;&gt;Node5 -->
<g id="edge22" class="edge"><title>Node13&#45;&gt;Node5</title>
<path fill="none" stroke="midnightblue" d="M371.828,-224.458C397.556,-216.715 434.766,-204.067 465,-188 539.734,-148.285 553.463,-129.547 619,-76 638.473,-60.0897 659.583,-40.4269 673.679,-26.9193"/>
<polygon fill="midnightblue" stroke="midnightblue" points="676.339,-29.2162 681.102,-19.7525 671.477,-24.1803 676.339,-29.2162"/>
</g>
<!-- Node14 -->
<g id="node14" class="node"><title>Node14</title>
<g id="a_node14"><a xlink:href="ElementLibrary_8h.html" target="_top" xlink:title="ElementLibrary.h">
<polygon fill="white" stroke="black" points="360,-168.5 360,-187.5 456,-187.5 456,-168.5 360,-168.5"/>
<text text-anchor="middle" x="408" y="-175.5" font-family="Verdana" font-size="10.00">ElementLibrary.h</text>
</a>
</g>
</g>
<!-- Node13&#45;&gt;Node14 -->
<g id="edge16" class="edge"><title>Node13&#45;&gt;Node14</title>
<path fill="none" stroke="midnightblue" d="M351.765,-224.324C361.766,-216.263 376.887,-204.077 388.93,-194.369"/>
<polygon fill="midnightblue" stroke="midnightblue" points="391.45,-196.834 397.039,-187.834 387.057,-191.384 391.45,-196.834"/>
</g>
<!-- Node15 -->
<g id="node15" class="node"><title>Node15</title>
<polygon fill="white" stroke="#bfbfbf" points="315,-112.5 315,-131.5 353,-131.5 353,-112.5 315,-112.5"/>
<text text-anchor="middle" x="334" y="-119.5" font-family="Verdana" font-size="10.00">map</text>
</g>
<!-- Node13&#45;&gt;Node15 -->
<g id="edge21" class="edge"><title>Node13&#45;&gt;Node15</title>
<path fill="none" stroke="midnightblue" d="M340.451,-224.368C339.321,-206.617 336.715,-165.666 335.183,-141.597"/>
<polygon fill="midnightblue" stroke="midnightblue" points="338.675,-141.349 334.547,-131.591 331.689,-141.794 338.675,-141.349"/>
</g>
<!-- Node14&#45;&gt;Node4 -->
<g id="edge19" class="edge"><title>Node14&#45;&gt;Node4</title>
<path fill="none" stroke="midnightblue" d="M407.835,-168.083C407.704,-161.006 407.516,-150.861 407.352,-141.986"/>
<polygon fill="midnightblue" stroke="midnightblue" points="410.847,-141.685 407.162,-131.751 403.848,-141.814 410.847,-141.685"/>
</g>
<!-- Node14&#45;&gt;Node5 -->
<g id="edge18" class="edge"><title>Node14&#45;&gt;Node5</title>
<path fill="none" stroke="midnightblue" d="M424.064,-168.379C455.737,-151.296 528.352,-111.702 588,-76 616.124,-59.1664 647.873,-38.6951 668.371,-25.2807"/>
<polygon fill="midnightblue" stroke="midnightblue" points="670.505,-28.0665 676.943,-19.6523 666.663,-22.215 670.505,-28.0665"/>
</g>
<!-- Node14&#45;&gt;Node15 -->
<g id="edge17" class="edge"><title>Node14&#45;&gt;Node15</title>
<path fill="none" stroke="midnightblue" d="M396.111,-168.324C384.85,-160.107 367.713,-147.602 354.291,-137.807"/>
<polygon fill="midnightblue" stroke="midnightblue" points="356.247,-134.901 346.106,-131.834 352.12,-140.556 356.247,-134.901"/>
</g>
<!-- Node16&#45;&gt;Node5 -->
<g id="edge40" class="edge"><title>Node16&#45;&gt;Node5</title>
<path fill="none" stroke="midnightblue" d="M642.858,-336.491C729.677,-321.458 889,-286.812 889,-235 889,-235 889,-235 889,-121 889,-45.7168 778.563,-21.5534 722.23,-14.1249"/>
<polygon fill="midnightblue" stroke="midnightblue" points="722.406,-10.6206 712.057,-12.888 721.561,-17.5694 722.406,-10.6206"/>
</g>
<!-- Node17 -->
<g id="node17" class="node"><title>Node17</title>
<g id="a_node17"><a xlink:href="Subsystem_8h.html" target="_top" xlink:title="Subsystem.h">
<polygon fill="white" stroke="black" points="548,-280.5 548,-299.5 628,-299.5 628,-280.5 548,-280.5"/>
<text text-anchor="middle" x="588" y="-287.5" font-family="Verdana" font-size="10.00">Subsystem.h</text>
</a>
</g>
</g>
<!-- Node16&#45;&gt;Node17 -->
<g id="edge24" class="edge"><title>Node16&#45;&gt;Node17</title>
<path fill="none" stroke="midnightblue" d="M588,-336.083C588,-329.006 588,-318.861 588,-309.986"/>
<polygon fill="midnightblue" stroke="midnightblue" points="591.5,-309.751 588,-299.751 584.5,-309.751 591.5,-309.751"/>
</g>
<!-- Node17&#45;&gt;Node5 -->
<g id="edge38" class="edge"><title>Node17&#45;&gt;Node5</title>
<path fill="none" stroke="midnightblue" d="M628.23,-289.644C701.904,-288.499 851,-274.397 851,-179 851,-179 851,-179 851,-121 851,-59.1572 769.013,-29.5615 722.052,-17.6818"/>
<polygon fill="midnightblue" stroke="midnightblue" points="722.589,-14.2115 712.049,-15.2842 720.958,-21.0187 722.589,-14.2115"/>
</g>
<!-- Node17&#45;&gt;Node6 -->
<g id="edge39" class="edge"><title>Node17&#45;&gt;Node6</title>
<path fill="none" stroke="midnightblue" d="M547.779,-285.097C422.401,-272.395 47,-230.098 47,-179 47,-179 47,-179 47,-121 47,-90.9022 45.6811,-78.204 66,-56 87.1169,-32.924 121.517,-21.5346 147.2,-16.0062"/>
<polygon fill="midnightblue" stroke="midnightblue" points="148.119,-19.3929 157.262,-14.0397 146.776,-12.5229 148.119,-19.3929"/>
</g>
<!-- Node17&#45;&gt;Node8 -->
<g id="edge36" class="edge"><title>Node17&#45;&gt;Node8</title>
<path fill="none" stroke="midnightblue" d="M628.035,-283.895C672.63,-277.291 740.513,-264.182 756,-244 795.205,-192.911 735.437,-116.061 705.461,-83.0255"/>
<polygon fill="midnightblue" stroke="midnightblue" points="707.936,-80.5474 698.56,-75.6131 702.813,-85.3172 707.936,-80.5474"/>
</g>
<!-- Node18 -->
<g id="node18" class="node"><title>Node18</title>
<g id="a_node18"><a xlink:href="ConfigurableElement_8h.html" target="_top" xlink:title="ConfigurableElement.h">
<polygon fill="white" stroke="black" points="579.5,-168.5 579.5,-187.5 704.5,-187.5 704.5,-168.5 579.5,-168.5"/>
<text text-anchor="middle" x="642" y="-175.5" font-family="Verdana" font-size="10.00">ConfigurableElement.h</text>
</a>
</g>
</g>
<!-- Node17&#45;&gt;Node18 -->
<g id="edge25" class="edge"><title>Node17&#45;&gt;Node18</title>
<path fill="none" stroke="midnightblue" d="M553.352,-280.487C518.342,-270.179 472.055,-250.806 492,-224 503.015,-209.196 544.52,-197.439 581.085,-189.661"/>
<polygon fill="midnightblue" stroke="midnightblue" points="582.148,-193.016 591.238,-187.573 580.738,-186.159 582.148,-193.016"/>
</g>
<!-- Node19 -->
<g id="node19" class="node"><title>Node19</title>
<g id="a_node19"><a xlink:href="ConfigurableElementWithMapping_8h.html" target="_top" xlink:title="ConfigurableElementWithMapping.h">
<polygon fill="white" stroke="black" points="561,-224.5 561,-243.5 747,-243.5 747,-224.5 561,-224.5"/>
<text text-anchor="middle" x="654" y="-231.5" font-family="Verdana" font-size="10.00">ConfigurableElementWithMapping.h</text>
</a>
</g>
</g>
<!-- Node17&#45;&gt;Node19 -->
<g id="edge28" class="edge"><title>Node17&#45;&gt;Node19</title>
<path fill="none" stroke="midnightblue" d="M598.604,-280.324C608.456,-272.263 623.351,-260.077 635.215,-250.369"/>
<polygon fill="midnightblue" stroke="midnightblue" points="637.68,-252.875 643.203,-243.834 633.247,-247.457 637.68,-252.875"/>
</g>
<!-- Node20 -->
<g id="node20" class="node"><title>Node20</title>
<g id="a_node20"><a xlink:href="Mapper_8h.html" target="_top" xlink:title="Mapper.h">
<polygon fill="white" stroke="black" points="761.5,-112.5 761.5,-131.5 822.5,-131.5 822.5,-112.5 761.5,-112.5"/>
<text text-anchor="middle" x="792" y="-119.5" font-family="Verdana" font-size="10.00">Mapper.h</text>
</a>
</g>
</g>
<!-- Node17&#45;&gt;Node20 -->
<g id="edge31" class="edge"><title>Node17&#45;&gt;Node20</title>
<path fill="none" stroke="midnightblue" d="M628.318,-285.731C681.014,-280.536 768.969,-268.386 789,-244 812.925,-214.874 804.795,-167.158 797.785,-141.204"/>
<polygon fill="midnightblue" stroke="midnightblue" points="801.12,-140.14 794.946,-131.53 794.404,-142.111 801.12,-140.14"/>
</g>
<!-- Node21 -->
<g id="node21" class="node"><title>Node21</title>
<g id="a_node21"><a xlink:href="MappingContext_8h.html" target="_top" xlink:title="MappingContext.h">
<polygon fill="white" stroke="black" points="439,-56.5 439,-75.5 543,-75.5 543,-56.5 439,-56.5"/>
<text text-anchor="middle" x="491" y="-63.5" font-family="Verdana" font-size="10.00">MappingContext.h</text>
</a>
</g>
</g>
<!-- Node17&#45;&gt;Node21 -->
<g id="edge33" class="edge"><title>Node17&#45;&gt;Node21</title>
<path fill="none" stroke="midnightblue" d="M547.949,-282.698C525.051,-276.819 498.15,-265.54 484,-244 451.548,-194.598 471.77,-119.607 483.865,-85.2962"/>
<polygon fill="midnightblue" stroke="midnightblue" points="487.24,-86.263 487.43,-75.6698 480.675,-83.8323 487.24,-86.263"/>
</g>
<!-- Node22 -->
<g id="node22" class="node"><title>Node22</title>
<polygon fill="white" stroke="#bfbfbf" points="501,-224.5 501,-243.5 543,-243.5 543,-224.5 501,-224.5"/>
<text text-anchor="middle" x="522" y="-231.5" font-family="Verdana" font-size="10.00">stack</text>
</g>
<!-- Node17&#45;&gt;Node22 -->
<g id="edge37" class="edge"><title>Node17&#45;&gt;Node22</title>
<path fill="none" stroke="midnightblue" d="M577.396,-280.324C567.544,-272.263 552.649,-260.077 540.785,-250.369"/>
<polygon fill="midnightblue" stroke="midnightblue" points="542.753,-247.457 532.797,-243.834 538.32,-252.875 542.753,-247.457"/>
</g>
<!-- Node18&#45;&gt;Node4 -->
<g id="edge26" class="edge"><title>Node18&#45;&gt;Node4</title>
<path fill="none" stroke="midnightblue" d="M604.764,-168.444C562.499,-158.732 493.697,-142.922 449.402,-132.743"/>
<polygon fill="midnightblue" stroke="midnightblue" points="450.051,-129.301 439.521,-130.473 448.484,-136.124 450.051,-129.301"/>
</g>
<!-- Node18&#45;&gt;Node8 -->
<g id="edge27" class="edge"><title>Node18&#45;&gt;Node8</title>
<path fill="none" stroke="midnightblue" d="M645.766,-168.368C653.583,-150.456 671.706,-108.923 682.168,-84.9482"/>
<polygon fill="midnightblue" stroke="midnightblue" points="685.459,-86.1566 686.251,-75.5914 679.044,-83.357 685.459,-86.1566"/>
</g>
<!-- Node19&#45;&gt;Node5 -->
<g id="edge30" class="edge"><title>Node19&#45;&gt;Node5</title>
<path fill="none" stroke="midnightblue" d="M672.942,-224.377C686.822,-216.922 704.639,-204.704 713,-188 739.259,-135.536 728.229,-112.917 714,-56 711.561,-46.2452 706.563,-36.2896 701.757,-28.231"/>
<polygon fill="midnightblue" stroke="midnightblue" points="704.691,-26.3225 696.367,-19.768 698.787,-30.0828 704.691,-26.3225"/>
</g>
<!-- Node19&#45;&gt;Node18 -->
<g id="edge29" class="edge"><title>Node19&#45;&gt;Node18</title>
<path fill="none" stroke="midnightblue" d="M652.018,-224.083C650.428,-216.927 648.141,-206.635 646.154,-197.691"/>
<polygon fill="midnightblue" stroke="midnightblue" points="649.531,-196.754 643.945,-187.751 642.697,-198.272 649.531,-196.754"/>
</g>
<!-- Node20&#45;&gt;Node5 -->
<g id="edge32" class="edge"><title>Node20&#45;&gt;Node5</title>
<path fill="none" stroke="midnightblue" d="M787.18,-112.411C779.631,-99.38 764.101,-74.2087 747,-56 736.376,-44.6871 722.79,-33.8494 711.547,-25.6454"/>
<polygon fill="midnightblue" stroke="midnightblue" points="713.314,-22.6076 703.134,-19.6719 709.261,-28.3152 713.314,-22.6076"/>
</g>
<!-- Node21&#45;&gt;Node5 -->
<g id="edge35" class="edge"><title>Node21&#45;&gt;Node5</title>
<path fill="none" stroke="midnightblue" d="M522.532,-56.4435C559.597,-46.3856 620.767,-29.7869 658.024,-19.677"/>
<polygon fill="midnightblue" stroke="midnightblue" points="659.124,-23.0052 667.858,-17.0084 657.29,-16.2495 659.124,-23.0052"/>
</g>
<!-- Node21&#45;&gt;Node7 -->
<g id="edge34" class="edge"><title>Node21&#45;&gt;Node7</title>
<path fill="none" stroke="midnightblue" d="M478.147,-56.324C465.784,-47.979 446.87,-35.2122 432.263,-25.3524"/>
<polygon fill="midnightblue" stroke="midnightblue" points="434.068,-22.3483 423.821,-19.6545 430.152,-28.1503 434.068,-22.3483"/>
</g>
<!-- Node23&#45;&gt;Node3 -->
<g id="edge42" class="edge"><title>Node23&#45;&gt;Node3</title>
<path fill="none" stroke="midnightblue" d="M247.235,-280.368C247.72,-262.617 248.836,-221.666 249.493,-197.597"/>
<polygon fill="midnightblue" stroke="midnightblue" points="252.992,-197.683 249.766,-187.591 245.994,-197.492 252.992,-197.683"/>
</g>
</g>
</svg>
