<?xml version="1.0" encoding="UTF-8" standalone="no"?>
<!DOCTYPE svg PUBLIC "-//W3C//DTD SVG 1.1//EN"
 "http://www.w3.org/Graphics/SVG/1.1/DTD/svg11.dtd">
<!-- Generated by graphviz version 2.38.0 (20140413.2041)
 -->
<!-- Title: parameter/SubsystemPlugins.h Pages: 1 -->
<svg width="1066pt" height="274pt"
 viewBox="0.00 0.00 1065.50 274.00" xmlns="http://www.w3.org/2000/svg" xmlns:xlink="http://www.w3.org/1999/xlink">
<g id="graph0" class="graph" transform="scale(1 1) rotate(0) translate(4 270)">
<title>parameter/SubsystemPlugins.h</title>
<polygon fill="white" stroke="none" points="-4,4 -4,-270 1061.5,-270 1061.5,4 -4,4"/>
<!-- Node1 -->
<g id="node1" class="node"><title>Node1</title>
<polygon fill="#bfbfbf" stroke="black" points="890.5,-246.5 890.5,-265.5 1057.5,-265.5 1057.5,-246.5 890.5,-246.5"/>
<text text-anchor="middle" x="974" y="-253.5" font-family="Verdana" font-size="10.00">parameter/SubsystemPlugins.h</text>
</g>
<!-- Node2 -->
<g id="node2" class="node"><title>Node2</title>
<g id="a_node2"><a xlink:href="SystemClass_8h.html" target="_top" xlink:title="parameter/SystemClass.h">
<polygon fill="white" stroke="black" points="798,-190.5 798,-209.5 940,-209.5 940,-190.5 798,-190.5"/>
<text text-anchor="middle" x="869" y="-197.5" font-family="Verdana" font-size="10.00">parameter/SystemClass.h</text>
</a>
</g>
</g>
<!-- Node1&#45;&gt;Node2 -->
<g id="edge1" class="edge"><title>Node1&#45;&gt;Node2</title>
<path fill="none" stroke="midnightblue" d="M948.19,-241.726C928.747,-231.727 902.652,-218.307 885.828,-209.655"/>
<polygon fill="midnightblue" stroke="midnightblue" points="946.636,-244.863 957.13,-246.324 949.838,-238.638 946.636,-244.863"/>
</g>
<!-- Node8 -->
<g id="node8" class="node"><title>Node8</title>
<g id="a_node8"><a xlink:href="ParameterMgr_8cpp.html" target="_top" xlink:title="parameter/ParameterMgr.cpp">
<polygon fill="white" stroke="black" points="683,-0.5 683,-19.5 841,-19.5 841,-0.5 683,-0.5"/>
<text text-anchor="middle" x="762" y="-7.5" font-family="Verdana" font-size="10.00">parameter/ParameterMgr.cpp</text>
</a>
</g>
</g>
<!-- Node1&#45;&gt;Node8 -->
<g id="edge14" class="edge"><title>Node1&#45;&gt;Node8</title>
<path fill="none" stroke="midnightblue" d="M986.325,-237.97C1003.88,-211.436 1031.48,-159.493 1008,-123 967.053,-59.367 880.089,-31.4604 821.324,-19.5199"/>
<polygon fill="midnightblue" stroke="midnightblue" points="983.427,-236.007 980.636,-246.228 989.191,-239.978 983.427,-236.007"/>
</g>
<!-- Node3 -->
<g id="node3" class="node"><title>Node3</title>
<g id="a_node3"><a xlink:href="XmlDomainImportContext_8h.html" target="_top" xlink:title="parameter/XmlDomainImport\lContext.h">
<polygon fill="white" stroke="black" points="378,-123.5 378,-153.5 536,-153.5 536,-123.5 378,-123.5"/>
<text text-anchor="start" x="386" y="-141.5" font-family="Verdana" font-size="10.00">parameter/XmlDomainImport</text>
<text text-anchor="middle" x="457" y="-130.5" font-family="Verdana" font-size="10.00">Context.h</text>
</a>
</g>
</g>
<!-- Node2&#45;&gt;Node3 -->
<g id="edge2" class="edge"><title>Node2&#45;&gt;Node3</title>
<path fill="none" stroke="midnightblue" d="M799.976,-189.032C727.12,-178.51 612.463,-161.952 536.032,-150.914"/>
<polygon fill="midnightblue" stroke="midnightblue" points="799.573,-192.51 809.97,-190.475 800.573,-185.582 799.573,-192.51"/>
</g>
<!-- Node2&#45;&gt;Node8 -->
<g id="edge12" class="edge"><title>Node2&#45;&gt;Node8</title>
<path fill="none" stroke="midnightblue" d="M855.764,-182.425C849.568,-174.185 842.385,-163.894 837,-154 814.59,-112.826 821.566,-96.5235 798,-56 790.053,-42.335 778.203,-28.3963 770.294,-19.7271"/>
<polygon fill="midnightblue" stroke="midnightblue" points="853.081,-184.677 861.968,-190.445 858.618,-180.394 853.081,-184.677"/>
</g>
<!-- Node11 -->
<g id="node11" class="node"><title>Node11</title>
<g id="a_node11"><a xlink:href="SystemClass_8cpp.html" target="_top" xlink:title="parameter/SystemClass.cpp">
<polygon fill="white" stroke="black" points="845.5,-129 845.5,-148 998.5,-148 998.5,-129 845.5,-129"/>
<text text-anchor="middle" x="922" y="-136" font-family="Verdana" font-size="10.00">parameter/SystemClass.cpp</text>
</a>
</g>
</g>
<!-- Node2&#45;&gt;Node11 -->
<g id="edge13" class="edge"><title>Node2&#45;&gt;Node11</title>
<path fill="none" stroke="midnightblue" d="M883.254,-182.997C893.286,-171.736 906.319,-157.104 914.42,-148.009"/>
<polygon fill="midnightblue" stroke="midnightblue" points="880.632,-180.68 876.594,-190.475 885.859,-185.336 880.632,-180.68"/>
</g>
<!-- Node4 -->
<g id="node4" class="node"><title>Node4</title>
<g id="a_node4"><a xlink:href="ConfigurableDomain_8h.html" target="_top" xlink:title="parameter/ConfigurableDomain.h">
<polygon fill="white" stroke="black" points="190.5,-62 190.5,-81 367.5,-81 367.5,-62 190.5,-62"/>
<text text-anchor="middle" x="279" y="-69" font-family="Verdana" font-size="10.00">parameter/ConfigurableDomain.h</text>
</a>
</g>
</g>
<!-- Node3&#45;&gt;Node4 -->
<g id="edge3" class="edge"><title>Node3&#45;&gt;Node4</title>
<path fill="none" stroke="midnightblue" d="M408.929,-119.946C374.357,-107.321 329.251,-90.8502 302.296,-81.007"/>
<polygon fill="midnightblue" stroke="midnightblue" points="407.783,-123.253 418.377,-123.396 410.184,-116.678 407.783,-123.253"/>
</g>
<!-- Node5 -->
<g id="node5" class="node"><title>Node5</title>
<g id="a_node5"><a xlink:href="ConfigurableDomain_8cpp.html" target="_top" xlink:title="parameter/ConfigurableDomain.cpp">
<polygon fill="white" stroke="black" points="0,-0.5 0,-19.5 188,-19.5 188,-0.5 0,-0.5"/>
<text text-anchor="middle" x="94" y="-7.5" font-family="Verdana" font-size="10.00">parameter/ConfigurableDomain.cpp</text>
</a>
</g>
</g>
<!-- Node3&#45;&gt;Node5 -->
<g id="edge8" class="edge"><title>Node3&#45;&gt;Node5</title>
<path fill="none" stroke="midnightblue" d="M367.46,-133.221C311.54,-127.677 239.34,-115.145 181,-87 146.318,-70.2684 114.722,-35.8842 101.091,-19.7378"/>
<polygon fill="midnightblue" stroke="midnightblue" points="367.423,-136.733 377.705,-134.177 368.074,-129.763 367.423,-136.733"/>
</g>
<!-- Node3&#45;&gt;Node8 -->
<g id="edge10" class="edge"><title>Node3&#45;&gt;Node8</title>
<path fill="none" stroke="midnightblue" d="M432.711,-116.291C415.556,-98.7822 398.197,-73.9785 414,-56 431.471,-36.1249 585.532,-22.4995 682.725,-15.7958"/>
<polygon fill="midnightblue" stroke="midnightblue" points="430.335,-118.863 439.953,-123.307 435.206,-113.835 430.335,-118.863"/>
</g>
<!-- Node9 -->
<g id="node9" class="node"><title>Node9</title>
<g id="a_node9"><a xlink:href="DomainConfiguration_8cpp.html" target="_top" xlink:title="parameter/DomainConfiguration.cpp">
<polygon fill="white" stroke="black" points="423,-62 423,-81 615,-81 615,-62 423,-62"/>
<text text-anchor="middle" x="519" y="-69" font-family="Verdana" font-size="10.00">parameter/DomainConfiguration.cpp</text>
</a>
</g>
</g>
<!-- Node3&#45;&gt;Node9 -->
<g id="edge9" class="edge"><title>Node3&#45;&gt;Node9</title>
<path fill="none" stroke="midnightblue" d="M477.511,-115.997C488.828,-104.132 502.259,-90.0516 510.707,-81.1945"/>
<polygon fill="midnightblue" stroke="midnightblue" points="474.823,-113.744 470.453,-123.396 479.888,-118.576 474.823,-113.744"/>
</g>
<!-- Node10 -->
<g id="node10" class="node"><title>Node10</title>
<g id="a_node10"><a xlink:href="SelectionCriterionRule_8cpp.html" target="_top" xlink:title="parameter/SelectionCriterion\lRule.cpp">
<polygon fill="white" stroke="black" points="633.5,-56.5 633.5,-86.5 788.5,-86.5 788.5,-56.5 633.5,-56.5"/>
<text text-anchor="start" x="641.5" y="-74.5" font-family="Verdana" font-size="10.00">parameter/SelectionCriterion</text>
<text text-anchor="middle" x="711" y="-63.5" font-family="Verdana" font-size="10.00">Rule.cpp</text>
</a>
</g>
</g>
<!-- Node3&#45;&gt;Node10 -->
<g id="edge11" class="edge"><title>Node3&#45;&gt;Node10</title>
<path fill="none" stroke="midnightblue" d="M521.538,-120.984C563.026,-110.367 616.355,-96.7201 655.859,-86.6109"/>
<polygon fill="midnightblue" stroke="midnightblue" points="520.622,-117.606 511.802,-123.476 522.357,-124.387 520.622,-117.606"/>
</g>
<!-- Node4&#45;&gt;Node5 -->
<g id="edge4" class="edge"><title>Node4&#45;&gt;Node5</title>
<path fill="none" stroke="midnightblue" d="M242.872,-58.8806C206.913,-47.3152 152.58,-29.8407 120.457,-19.5091"/>
<polygon fill="midnightblue" stroke="midnightblue" points="241.903,-62.2452 252.494,-61.9751 244.046,-55.5814 241.903,-62.2452"/>
</g>
<!-- Node6 -->
<g id="node6" class="node"><title>Node6</title>
<g id="a_node6"><a xlink:href="ConfigurableDomains_8cpp.html" target="_top" xlink:title="parameter/ConfigurableDomains.cpp">
<polygon fill="white" stroke="black" points="206,-0.5 206,-19.5 400,-19.5 400,-0.5 206,-0.5"/>
<text text-anchor="middle" x="303" y="-7.5" font-family="Verdana" font-size="10.00">parameter/ConfigurableDomains.cpp</text>
</a>
</g>
</g>
<!-- Node4&#45;&gt;Node6 -->
<g id="edge5" class="edge"><title>Node4&#45;&gt;Node6</title>
<path fill="none" stroke="midnightblue" d="M286.262,-52.4968C290.677,-41.5497 296.113,-28.0746 299.568,-19.5091"/>
<polygon fill="midnightblue" stroke="midnightblue" points="282.934,-51.3918 282.439,-61.9751 289.425,-54.0104 282.934,-51.3918"/>
</g>
<!-- Node7 -->
<g id="node7" class="node"><title>Node7</title>
<g id="a_node7"><a xlink:href="ConfigurableElement_8cpp.html" target="_top" xlink:title="parameter/ConfigurableElement.cpp">
<polygon fill="white" stroke="black" points="418.5,-0.5 418.5,-19.5 609.5,-19.5 609.5,-0.5 418.5,-0.5"/>
<text text-anchor="middle" x="514" y="-7.5" font-family="Verdana" font-size="10.00">parameter/ConfigurableElement.cpp</text>
</a>
</g>
</g>
<!-- Node4&#45;&gt;Node7 -->
<g id="edge6" class="edge"><title>Node4&#45;&gt;Node7</title>
<path fill="none" stroke="midnightblue" d="M322.57,-59.4685C368.202,-47.9147 438.89,-30.0173 480.393,-19.5091"/>
<polygon fill="midnightblue" stroke="midnightblue" points="321.505,-56.1276 312.67,-61.9751 323.223,-62.9135 321.505,-56.1276"/>
</g>
<!-- Node4&#45;&gt;Node8 -->
<g id="edge7" class="edge"><title>Node4&#45;&gt;Node8</title>
<path fill="none" stroke="midnightblue" d="M347.416,-60.5471C358.632,-58.9807 370.136,-57.4135 381,-56 486.348,-42.2927 608.322,-28.1975 685.309,-19.5188"/>
<polygon fill="midnightblue" stroke="midnightblue" points="346.637,-57.122 337.223,-61.981 347.613,-64.0538 346.637,-57.122"/>
</g>
</g>
</svg>
