<?xml version="1.0" encoding="UTF-8" standalone="no"?>
<!DOCTYPE svg PUBLIC "-//W3C//DTD SVG 1.1//EN"
 "http://www.w3.org/Graphics/SVG/1.1/DTD/svg11.dtd">
<!-- Generated by graphviz version 2.36.0 (20140111.2315)
 -->
<!-- Title: parameter/Subsystem.h Pages: 1 -->
<svg width="1200pt" height="208pt"
 viewBox="0.00 0.00 1200.00 208.00" xmlns="http://www.w3.org/2000/svg" xmlns:xlink="http://www.w3.org/1999/xlink">
<g id="graph0" class="graph" transform="scale(1 1) rotate(0) translate(4 204)">
<title>parameter/Subsystem.h</title>
<polygon fill="white" stroke="none" points="-4,4 -4,-204 1196,-204 1196,4 -4,4"/>
<!-- Node1 -->
<g id="node1" class="node"><title>Node1</title>
<polygon fill="#bfbfbf" stroke="black" points="647,-180.5 647,-199.5 781,-199.5 781,-180.5 647,-180.5"/>
<text text-anchor="middle" x="714" y="-187.5" font-family="Verdana" font-size="10.00">parameter/Subsystem.h</text>
</g>
<!-- Node2 -->
<g id="node2" class="node"><title>Node2</title>
<g id="a_node2"><a xlink:href="BitwiseAreaConfiguration_8cpp.html" target="_top" xlink:title="parameter/BitwiseAreaConfiguration.cpp">
<polygon fill="white" stroke="black" points="0,-124.5 0,-143.5 210,-143.5 210,-124.5 0,-124.5"/>
<text text-anchor="middle" x="105" y="-131.5" font-family="Verdana" font-size="10.00">parameter/BitwiseAreaConfiguration.cpp</text>
</a>
</g>
</g>
<!-- Node1&#45;&gt;Node2 -->
<g id="edge1" class="edge"><title>Node1&#45;&gt;Node2</title>
<path fill="none" stroke="midnightblue" d="M636.675,-182.144C525.683,-172.302 321.338,-154.183 200.88,-143.502"/>
<polygon fill="midnightblue" stroke="midnightblue" points="636.522,-185.644 646.792,-183.041 637.14,-178.671 636.522,-185.644"/>
</g>
<!-- Node3 -->
<g id="node3" class="node"><title>Node3</title>
<g id="a_node3"><a xlink:href="DomainConfiguration_8cpp.html" target="_top" xlink:title="parameter/DomainConfiguration.cpp">
<polygon fill="white" stroke="black" points="228,-124.5 228,-143.5 420,-143.5 420,-124.5 228,-124.5"/>
<text text-anchor="middle" x="324" y="-131.5" font-family="Verdana" font-size="10.00">parameter/DomainConfiguration.cpp</text>
</a>
</g>
</g>
<!-- Node1&#45;&gt;Node3 -->
<g id="edge2" class="edge"><title>Node1&#45;&gt;Node3</title>
<path fill="none" stroke="midnightblue" d="M642.082,-179.042C568.423,-168.843 455.133,-153.157 385.508,-143.516"/>
<polygon fill="midnightblue" stroke="midnightblue" points="641.818,-182.539 652.203,-180.444 642.778,-175.605 641.818,-182.539"/>
</g>
<!-- Node4 -->
<g id="node4" class="node"><title>Node4</title>
<g id="a_node4"><a xlink:href="ParameterHandle_8cpp.html" target="_top" xlink:title="parameter/ParameterHandle.cpp">
<polygon fill="white" stroke="black" points="438.5,-124.5 438.5,-143.5 613.5,-143.5 613.5,-124.5 438.5,-124.5"/>
<text text-anchor="middle" x="526" y="-131.5" font-family="Verdana" font-size="10.00">parameter/ParameterHandle.cpp</text>
</a>
</g>
</g>
<!-- Node1&#45;&gt;Node4 -->
<g id="edge3" class="edge"><title>Node1&#45;&gt;Node4</title>
<path fill="none" stroke="midnightblue" d="M674.199,-177.568C638.734,-167.381 587.634,-152.703 555.65,-143.516"/>
<polygon fill="midnightblue" stroke="midnightblue" points="673.633,-181.047 684.211,-180.444 675.566,-174.319 673.633,-181.047"/>
</g>
<!-- Node5 -->
<g id="node5" class="node"><title>Node5</title>
<g id="a_node5"><a xlink:href="VirtualSubsystem_8h.html" target="_top" xlink:title="parameter/VirtualSubsystem.h">
<polygon fill="white" stroke="black" points="632,-124.5 632,-143.5 796,-143.5 796,-124.5 632,-124.5"/>
<text text-anchor="middle" x="714" y="-131.5" font-family="Verdana" font-size="10.00">parameter/VirtualSubsystem.h</text>
</a>
</g>
</g>
<!-- Node1&#45;&gt;Node5 -->
<g id="edge4" class="edge"><title>Node1&#45;&gt;Node5</title>
<path fill="none" stroke="midnightblue" d="M714,-169.805C714,-160.91 714,-150.78 714,-143.751"/>
<polygon fill="midnightblue" stroke="midnightblue" points="710.5,-170.083 714,-180.083 717.5,-170.083 710.5,-170.083"/>
</g>
<!-- Node7 -->
<g id="node7" class="node"><title>Node7</title>
<g id="a_node7"><a xlink:href="ParameterMgr_8cpp.html" target="_top" xlink:title="parameter/ParameterMgr.cpp">
<polygon fill="white" stroke="black" points="745,-6.5 745,-25.5 903,-25.5 903,-6.5 745,-6.5"/>
<text text-anchor="middle" x="824" y="-13.5" font-family="Verdana" font-size="10.00">parameter/ParameterMgr.cpp</text>
</a>
</g>
</g>
<!-- Node1&#45;&gt;Node7 -->
<g id="edge11" class="edge"><title>Node1&#45;&gt;Node7</title>
<path fill="none" stroke="midnightblue" d="M758.036,-177.012C775.274,-170.117 793.61,-159.621 805,-144 831.927,-107.072 827.912,-47.8476 825.244,-25.7161"/>
<polygon fill="midnightblue" stroke="midnightblue" points="756.795,-173.739 748.623,-180.482 759.217,-180.307 756.795,-173.739"/>
</g>
<!-- Node11 -->
<g id="node11" class="node"><title>Node11</title>
<g id="a_node11"><a xlink:href="Subsystem_8cpp.html" target="_top" xlink:title="parameter/Subsystem.cpp">
<polygon fill="white" stroke="black" points="852.5,-124.5 852.5,-143.5 997.5,-143.5 997.5,-124.5 852.5,-124.5"/>
<text text-anchor="middle" x="925" y="-131.5" font-family="Verdana" font-size="10.00">parameter/Subsystem.cpp</text>
</a>
</g>
</g>
<!-- Node1&#45;&gt;Node11 -->
<g id="edge12" class="edge"><title>Node1&#45;&gt;Node11</title>
<path fill="none" stroke="midnightblue" d="M757.142,-177.959C796.994,-167.76 855.363,-152.822 891.723,-143.516"/>
<polygon fill="midnightblue" stroke="midnightblue" points="756.254,-174.573 747.434,-180.444 757.989,-181.355 756.254,-174.573"/>
</g>
<!-- Node12 -->
<g id="node12" class="node"><title>Node12</title>
<g id="a_node12"><a xlink:href="SubsystemObject_8cpp.html" target="_top" xlink:title="parameter/SubsystemObject.cpp">
<polygon fill="white" stroke="black" points="1016,-124.5 1016,-143.5 1192,-143.5 1192,-124.5 1016,-124.5"/>
<text text-anchor="middle" x="1104" y="-131.5" font-family="Verdana" font-size="10.00">parameter/SubsystemObject.cpp</text>
</a>
</g>
</g>
<!-- Node1&#45;&gt;Node12 -->
<g id="edge13" class="edge"><title>Node1&#45;&gt;Node12</title>
<path fill="none" stroke="midnightblue" d="M785.918,-179.042C859.577,-168.843 972.867,-153.157 1042.49,-143.516"/>
<polygon fill="midnightblue" stroke="midnightblue" points="785.222,-175.605 775.797,-180.444 786.182,-182.539 785.222,-175.605"/>
</g>
<!-- Node6 -->
<g id="node6" class="node"><title>Node6</title>
<g id="a_node6"><a xlink:href="SubsystemLibrary_8h.html" target="_top" xlink:title="parameter/SubsystemLibrary.h">
<polygon fill="white" stroke="black" points="632,-68.5 632,-87.5 796,-87.5 796,-68.5 632,-68.5"/>
<text text-anchor="middle" x="714" y="-75.5" font-family="Verdana" font-size="10.00">parameter/SubsystemLibrary.h</text>
</a>
</g>
</g>
<!-- Node5&#45;&gt;Node6 -->
<g id="edge5" class="edge"><title>Node5&#45;&gt;Node6</title>
<path fill="none" stroke="midnightblue" d="M714,-113.805C714,-104.91 714,-94.7798 714,-87.7511"/>
<polygon fill="midnightblue" stroke="midnightblue" points="710.5,-114.083 714,-124.083 717.5,-114.083 710.5,-114.083"/>
</g>
<!-- Node9 -->
<g id="node9" class="node"><title>Node9</title>
<g id="a_node9"><a xlink:href="SystemClass_8cpp.html" target="_top" xlink:title="parameter/SystemClass.cpp">
<polygon fill="white" stroke="black" points="362.5,-6.5 362.5,-25.5 515.5,-25.5 515.5,-6.5 362.5,-6.5"/>
<text text-anchor="middle" x="439" y="-13.5" font-family="Verdana" font-size="10.00">parameter/SystemClass.cpp</text>
</a>
</g>
</g>
<!-- Node5&#45;&gt;Node9 -->
<g id="edge9" class="edge"><title>Node5&#45;&gt;Node9</title>
<path fill="none" stroke="midnightblue" d="M635.705,-123.169C553.686,-112.492 435.755,-95.9056 429,-88 413.797,-70.2084 426.317,-40.2574 434.04,-25.6013"/>
<polygon fill="midnightblue" stroke="midnightblue" points="635.403,-126.659 645.77,-124.473 636.302,-119.717 635.403,-126.659"/>
</g>
<!-- Node10 -->
<g id="node10" class="node"><title>Node10</title>
<g id="a_node10"><a xlink:href="VirtualSubsystem_8cpp.html" target="_top" xlink:title="parameter/VirtualSubsystem.cpp">
<polygon fill="white" stroke="black" points="438,-68.5 438,-87.5 614,-87.5 614,-68.5 438,-68.5"/>
<text text-anchor="middle" x="526" y="-75.5" font-family="Verdana" font-size="10.00">parameter/VirtualSubsystem.cpp</text>
</a>
</g>
</g>
<!-- Node5&#45;&gt;Node10 -->
<g id="edge10" class="edge"><title>Node5&#45;&gt;Node10</title>
<path fill="none" stroke="midnightblue" d="M674.199,-121.568C638.734,-111.381 587.634,-96.7034 555.65,-87.5164"/>
<polygon fill="midnightblue" stroke="midnightblue" points="673.633,-125.047 684.211,-124.444 675.566,-118.319 673.633,-125.047"/>
</g>
<!-- Node6&#45;&gt;Node7 -->
<g id="edge6" class="edge"><title>Node6&#45;&gt;Node7</title>
<path fill="none" stroke="midnightblue" d="M738.566,-63.6001C759.871,-51.9796 790.066,-35.5093 808.269,-25.5806"/>
<polygon fill="midnightblue" stroke="midnightblue" points="736.863,-60.5423 729.76,-68.4035 740.215,-66.6875 736.863,-60.5423"/>
</g>
<!-- Node8 -->
<g id="node8" class="node"><title>Node8</title>
<g id="a_node8"><a xlink:href="SubsystemElementBuilder_8cpp.html" target="_top" xlink:title="parameter/SubsystemElement\lBuilder.cpp">
<polygon fill="white" stroke="black" points="563,-1 563,-31 727,-31 727,-1 563,-1"/>
<text text-anchor="start" x="571" y="-19" font-family="Verdana" font-size="10.00">parameter/SubsystemElement</text>
<text text-anchor="middle" x="645" y="-8" font-family="Verdana" font-size="10.00">Builder.cpp</text>
</a>
</g>
</g>
<!-- Node6&#45;&gt;Node8 -->
<g id="edge7" class="edge"><title>Node6&#45;&gt;Node8</title>
<path fill="none" stroke="midnightblue" d="M696.514,-61.7947C685.68,-52.3738 671.86,-40.3562 661.262,-31.1408"/>
<polygon fill="midnightblue" stroke="midnightblue" points="694.271,-64.4828 704.114,-68.4035 698.865,-59.2005 694.271,-64.4828"/>
</g>
<!-- Node6&#45;&gt;Node9 -->
<g id="edge8" class="edge"><title>Node6&#45;&gt;Node9</title>
<path fill="none" stroke="midnightblue" d="M664.962,-66.3007C611.516,-54.6399 527.085,-36.2185 477.974,-25.5034"/>
<polygon fill="midnightblue" stroke="midnightblue" points="664.375,-69.755 674.891,-68.4672 665.867,-62.9159 664.375,-69.755"/>
</g>
</g>
</svg>
