<?xml version="1.0" encoding="UTF-8" standalone="no"?>
<!DOCTYPE svg PUBLIC "-//W3C//DTD SVG 1.1//EN"
 "http://www.w3.org/Graphics/SVG/1.1/DTD/svg11.dtd">
<!-- Generated by graphviz version 2.38.0 (20140413.2041)
 -->
<!-- Title: parameter/SubsystemObjectCreator.h Pages: 1 -->
<svg width="499pt" height="106pt"
 viewBox="0.00 0.00 499.00 106.00" xmlns="http://www.w3.org/2000/svg" xmlns:xlink="http://www.w3.org/1999/xlink">
<g id="graph0" class="graph" transform="scale(1 1) rotate(0) translate(4 102)">
<title>parameter/SubsystemObjectCreator.h</title>
<polygon fill="white" stroke="none" points="-4,4 -4,-102 495,-102 495,4 -4,4"/>
<!-- Node1 -->
<g id="node1" class="node"><title>Node1</title>
<polygon fill="#bfbfbf" stroke="black" points="163,-67.5 163,-97.5 318,-97.5 318,-67.5 163,-67.5"/>
<text text-anchor="start" x="171" y="-85.5" font-family="Verdana" font-size="10.00">parameter/SubsystemObject</text>
<text text-anchor="middle" x="240.5" y="-74.5" font-family="Verdana" font-size="10.00">Creator.h</text>
</g>
<!-- Node2 -->
<g id="node2" class="node"><title>Node2</title>
<g id="a_node2"><a xlink:href="Subsystem_8cpp.html" target="_top" xlink:title="parameter/Subsystem.cpp">
<polygon fill="white" stroke="black" points="0,-6 0,-25 145,-25 145,-6 0,-6"/>
<text text-anchor="middle" x="72.5" y="-13" font-family="Verdana" font-size="10.00">parameter/Subsystem.cpp</text>
</a>
</g>
</g>
<!-- Node1&#45;&gt;Node2 -->
<g id="edge1" class="edge"><title>Node1&#45;&gt;Node2</title>
<path fill="none" stroke="midnightblue" d="M194.711,-63.7838C162.136,-51.1807 119.82,-34.8082 94.4873,-25.007"/>
<polygon fill="midnightblue" stroke="midnightblue" points="193.457,-67.0517 204.047,-67.396 195.983,-60.5233 193.457,-67.0517"/>
</g>
<!-- Node3 -->
<g id="node3" class="node"><title>Node3</title>
<g id="a_node3"><a xlink:href="SubsystemObjectCreator_8cpp.html" target="_top" xlink:title="parameter/SubsystemObject\lCreator.cpp">
<polygon fill="white" stroke="black" points="163,-0.5 163,-30.5 318,-30.5 318,-0.5 163,-0.5"/>
<text text-anchor="start" x="171" y="-18.5" font-family="Verdana" font-size="10.00">parameter/SubsystemObject</text>
<text text-anchor="middle" x="240.5" y="-7.5" font-family="Verdana" font-size="10.00">Creator.cpp</text>
</a>
</g>
</g>
<!-- Node1&#45;&gt;Node3 -->
<g id="edge2" class="edge"><title>Node1&#45;&gt;Node3</title>
<path fill="none" stroke="midnightblue" d="M240.5,-57.1081C240.5,-48.1539 240.5,-38.3227 240.5,-30.5765"/>
<polygon fill="midnightblue" stroke="midnightblue" points="237,-57.3959 240.5,-67.396 244,-57.396 237,-57.3959"/>
</g>
<!-- Node4 -->
<g id="node4" class="node"><title>Node4</title>
<g id="a_node4"><a xlink:href="SubsystemObjectFactory_8h.html" target="_top" xlink:title="parameter/SubsystemObject\lFactory.h">
<polygon fill="white" stroke="black" points="336,-0.5 336,-30.5 491,-30.5 491,-0.5 336,-0.5"/>
<text text-anchor="start" x="344" y="-18.5" font-family="Verdana" font-size="10.00">parameter/SubsystemObject</text>
<text text-anchor="middle" x="413.5" y="-7.5" font-family="Verdana" font-size="10.00">Factory.h</text>
</a>
</g>
</g>
<!-- Node1&#45;&gt;Node4 -->
<g id="edge3" class="edge"><title>Node1&#45;&gt;Node4</title>
<path fill="none" stroke="midnightblue" d="M287.56,-63.8185C315.367,-53.3707 350.094,-40.3231 376.035,-30.5765"/>
<polygon fill="midnightblue" stroke="midnightblue" points="286.168,-60.6024 278.038,-67.396 288.631,-67.1551 286.168,-60.6024"/>
</g>
</g>
</svg>
