<?xml version="1.0" encoding="UTF-8" standalone="no"?>
<!DOCTYPE svg PUBLIC "-//W3C//DTD SVG 1.1//EN"
 "http://www.w3.org/Graphics/SVG/1.1/DTD/svg11.dtd">
<!-- Generated by graphviz version 2.38.0 (20140413.2041)
 -->
<!-- Title: parameter/SyncerSet.cpp Pages: 1 -->
<svg width="175pt" height="196pt"
 viewBox="0.00 0.00 174.50 196.00" xmlns="http://www.w3.org/2000/svg" xmlns:xlink="http://www.w3.org/1999/xlink">
<g id="graph0" class="graph" transform="scale(1 1) rotate(0) translate(4 192)">
<title>parameter/SyncerSet.cpp</title>
<polygon fill="white" stroke="none" points="-4,4 -4,-192 170.5,-192 170.5,4 -4,4"/>
<!-- Node1 -->
<g id="node1" class="node"><title>Node1</title>
<polygon fill="#bfbfbf" stroke="black" points="25.5,-168.5 25.5,-187.5 165.5,-187.5 165.5,-168.5 25.5,-168.5"/>
<text text-anchor="middle" x="95.5" y="-175.5" font-family="Verdana" font-size="10.00">parameter/SyncerSet.cpp</text>
</g>
<!-- Node2 -->
<g id="node2" class="node"><title>Node2</title>
<g id="a_node2"><a xlink:href="SyncerSet_8h.html" target="_top" xlink:title="SyncerSet.h">
<polygon fill="white" stroke="black" points="16,-112.5 16,-131.5 91,-131.5 91,-112.5 16,-112.5"/>
<text text-anchor="middle" x="53.5" y="-119.5" font-family="Verdana" font-size="10.00">SyncerSet.h</text>
</a>
</g>
</g>
<!-- Node1&#45;&gt;Node2 -->
<g id="edge1" class="edge"><title>Node1&#45;&gt;Node2</title>
<path fill="none" stroke="midnightblue" d="M88.5646,-168.083C82.5708,-160.377 73.7482,-149.033 66.4524,-139.653"/>
<polygon fill="midnightblue" stroke="midnightblue" points="69.2086,-137.496 60.3064,-131.751 63.6831,-141.793 69.2086,-137.496"/>
</g>
<!-- Node7 -->
<g id="node7" class="node"><title>Node7</title>
<g id="a_node7"><a xlink:href="Syncer_8h.html" target="_top" xlink:title="Syncer.h">
<polygon fill="white" stroke="black" points="108.5,-112.5 108.5,-131.5 166.5,-131.5 166.5,-112.5 108.5,-112.5"/>
<text text-anchor="middle" x="137.5" y="-119.5" font-family="Verdana" font-size="10.00">Syncer.h</text>
</a>
</g>
</g>
<!-- Node1&#45;&gt;Node7 -->
<g id="edge6" class="edge"><title>Node1&#45;&gt;Node7</title>
<path fill="none" stroke="midnightblue" d="M102.435,-168.083C108.429,-160.377 117.252,-149.033 124.548,-139.653"/>
<polygon fill="midnightblue" stroke="midnightblue" points="127.317,-141.793 130.694,-131.751 121.791,-137.496 127.317,-141.793"/>
</g>
<!-- Node3 -->
<g id="node3" class="node"><title>Node3</title>
<g id="a_node3"><a xlink:href="Results_8h.html" target="_top" xlink:title="Results.h">
<polygon fill="white" stroke="black" points="0,-56.5 0,-75.5 59,-75.5 59,-56.5 0,-56.5"/>
<text text-anchor="middle" x="29.5" y="-63.5" font-family="Verdana" font-size="10.00">Results.h</text>
</a>
</g>
</g>
<!-- Node2&#45;&gt;Node3 -->
<g id="edge2" class="edge"><title>Node2&#45;&gt;Node3</title>
<path fill="none" stroke="midnightblue" d="M49.5369,-112.083C46.2867,-104.77 41.5806,-94.1814 37.546,-85.1034"/>
<polygon fill="midnightblue" stroke="midnightblue" points="40.6492,-83.4677 33.3894,-75.7511 34.2525,-86.3107 40.6492,-83.4677"/>
</g>
<!-- Node6 -->
<g id="node6" class="node"><title>Node6</title>
<polygon fill="white" stroke="#bfbfbf" points="77.5,-56.5 77.5,-75.5 109.5,-75.5 109.5,-56.5 77.5,-56.5"/>
<text text-anchor="middle" x="93.5" y="-63.5" font-family="Verdana" font-size="10.00">set</text>
</g>
<!-- Node2&#45;&gt;Node6 -->
<g id="edge5" class="edge"><title>Node2&#45;&gt;Node6</title>
<path fill="none" stroke="midnightblue" d="M60.1052,-112.083C65.7552,-104.455 74.0448,-93.2645 80.9512,-83.9408"/>
<polygon fill="midnightblue" stroke="midnightblue" points="83.8779,-85.87 87.0177,-75.7511 78.2529,-81.7034 83.8779,-85.87"/>
</g>
<!-- Node4 -->
<g id="node4" class="node"><title>Node4</title>
<polygon fill="white" stroke="#bfbfbf" points="14.5,-0.5 14.5,-19.5 44.5,-19.5 44.5,-0.5 14.5,-0.5"/>
<text text-anchor="middle" x="29.5" y="-7.5" font-family="Verdana" font-size="10.00">list</text>
</g>
<!-- Node3&#45;&gt;Node4 -->
<g id="edge3" class="edge"><title>Node3&#45;&gt;Node4</title>
<path fill="none" stroke="midnightblue" d="M29.5,-56.083C29.5,-49.0059 29.5,-38.8611 29.5,-29.9865"/>
<polygon fill="midnightblue" stroke="midnightblue" points="33.0001,-29.751 29.5,-19.7511 26.0001,-29.7511 33.0001,-29.751"/>
</g>
<!-- Node5 -->
<g id="node5" class="node"><title>Node5</title>
<polygon fill="white" stroke="#bfbfbf" points="88.5,-0.5 88.5,-19.5 132.5,-19.5 132.5,-0.5 88.5,-0.5"/>
<text text-anchor="middle" x="110.5" y="-7.5" font-family="Verdana" font-size="10.00">string</text>
</g>
<!-- Node3&#45;&gt;Node5 -->
<g id="edge4" class="edge"><title>Node3&#45;&gt;Node5</title>
<path fill="none" stroke="midnightblue" d="M42.5141,-56.324C55.0316,-47.979 74.1817,-35.2122 88.9714,-25.3524"/>
<polygon fill="midnightblue" stroke="midnightblue" points="91.1392,-28.1137 97.5182,-19.6545 87.2563,-22.2894 91.1392,-28.1137"/>
</g>
<!-- Node7&#45;&gt;Node5 -->
<g id="edge7" class="edge"><title>Node7&#45;&gt;Node5</title>
<path fill="none" stroke="midnightblue" d="M135.381,-112.368C131.024,-94.617 120.973,-53.6664 115.065,-29.5974"/>
<polygon fill="midnightblue" stroke="midnightblue" points="118.392,-28.4688 112.609,-19.5914 111.594,-30.1375 118.392,-28.4688"/>
</g>
</g>
</svg>
