<?xml version="1.0" encoding="UTF-8" standalone="no"?>
<!DOCTYPE svg PUBLIC "-//W3C//DTD SVG 1.1//EN"
 "http://www.w3.org/Graphics/SVG/1.1/DTD/svg11.dtd">
<!-- Generated by graphviz version 2.38.0 (20140413.2041)
 -->
<!-- Title: /home/dawagner/dev/parameter&#45;framework/parameter/SystemClass.h Pages: 1 -->
<svg width="544pt" height="330pt"
 viewBox="0.00 0.00 544.00 330.00" xmlns="http://www.w3.org/2000/svg" xmlns:xlink="http://www.w3.org/1999/xlink">
<g id="graph0" class="graph" transform="scale(1 1) rotate(0) translate(4 326)">
<title>/home/dawagner/dev/parameter&#45;framework/parameter/SystemClass.h</title>
<polygon fill="white" stroke="none" points="-4,4 -4,-326 540,-326 540,4 -4,4"/>
<!-- Node1 -->
<g id="node1" class="node"><title>Node1</title>
<polygon fill="#bfbfbf" stroke="black" points="97.5,-280.5 97.5,-321.5 242.5,-321.5 242.5,-280.5 97.5,-280.5"/>
<text text-anchor="start" x="105.5" y="-309.5" font-family="Verdana" font-size="10.00">/home/dawagner/dev</text>
<text text-anchor="start" x="105.5" y="-298.5" font-family="Verdana" font-size="10.00">/parameter&#45;framework</text>
<text text-anchor="middle" x="170" y="-287.5" font-family="Verdana" font-size="10.00">/parameter/SystemClass.h</text>
</g>
<!-- Node2 -->
<g id="node2" class="node"><title>Node2</title>
<g id="a_node2"><a xlink:href="ConfigurableElement_8h.html" target="_top" xlink:title="ConfigurableElement.h">
<polygon fill="white" stroke="black" points="207.5,-168.5 207.5,-187.5 332.5,-187.5 332.5,-168.5 207.5,-168.5"/>
<text text-anchor="middle" x="270" y="-175.5" font-family="Verdana" font-size="10.00">ConfigurableElement.h</text>
</a>
</g>
</g>
<!-- Node1&#45;&gt;Node2 -->
<g id="edge1" class="edge"><title>Node1&#45;&gt;Node2</title>
<path fill="none" stroke="midnightblue" d="M186.289,-280.29C205.833,-256.642 238.238,-217.432 256.467,-195.375"/>
<polygon fill="midnightblue" stroke="midnightblue" points="259.241,-197.513 262.913,-187.575 253.845,-193.053 259.241,-197.513"/>
</g>
<!-- Node4 -->
<g id="node4" class="node"><title>Node4</title>
<polygon fill="white" stroke="#bfbfbf" points="54,-0.5 54,-19.5 98,-19.5 98,-0.5 54,-0.5"/>
<text text-anchor="middle" x="76" y="-7.5" font-family="Verdana" font-size="10.00">string</text>
</g>
<!-- Node1&#45;&gt;Node4 -->
<g id="edge20" class="edge"><title>Node1&#45;&gt;Node4</title>
<path fill="none" stroke="midnightblue" d="M99.873,-280.366C53.0446,-262.488 0,-230.804 0,-179 0,-179 0,-179 0,-121 0,-81.2757 33.9641,-45.5045 56.4821,-26.1536"/>
<polygon fill="midnightblue" stroke="midnightblue" points="58.9755,-28.6337 64.4572,-19.5672 54.518,-23.2364 58.9755,-28.6337"/>
</g>
<!-- Node7 -->
<g id="node7" class="node"><title>Node7</title>
<polygon fill="white" stroke="#bfbfbf" points="506,-56.5 506,-75.5 536,-75.5 536,-56.5 506,-56.5"/>
<text text-anchor="middle" x="521" y="-63.5" font-family="Verdana" font-size="10.00">list</text>
</g>
<!-- Node1&#45;&gt;Node7 -->
<g id="edge19" class="edge"><title>Node1&#45;&gt;Node7</title>
<path fill="none" stroke="midnightblue" d="M200.035,-280.483C234.24,-258.221 291.765,-220.67 341,-188 398.645,-149.749 466.26,-104.079 499.844,-81.3408"/>
<polygon fill="midnightblue" stroke="midnightblue" points="502.061,-84.0667 508.378,-75.5607 498.135,-78.271 502.061,-84.0667"/>
</g>
<!-- Node11 -->
<g id="node11" class="node"><title>Node11</title>
<g id="a_node11"><a xlink:href="SubsystemPlugins_8h.html" target="_top" xlink:title="SubsystemPlugins.h">
<polygon fill="white" stroke="black" points="59.5,-224.5 59.5,-243.5 172.5,-243.5 172.5,-224.5 59.5,-224.5"/>
<text text-anchor="middle" x="116" y="-231.5" font-family="Verdana" font-size="10.00">SubsystemPlugins.h</text>
</a>
</g>
</g>
<!-- Node1&#45;&gt;Node11 -->
<g id="edge14" class="edge"><title>Node1&#45;&gt;Node11</title>
<path fill="none" stroke="midnightblue" d="M153.798,-280.498C146.076,-271.203 136.943,-260.21 129.59,-251.358"/>
<polygon fill="midnightblue" stroke="midnightblue" points="132.271,-249.108 123.188,-243.652 126.886,-253.581 132.271,-249.108"/>
</g>
<!-- Node3 -->
<g id="node3" class="node"><title>Node3</title>
<g id="a_node3"><a xlink:href="Element_8h.html" target="_top" xlink:title="Element.h">
<polygon fill="white" stroke="black" points="237.5,-112.5 237.5,-131.5 302.5,-131.5 302.5,-112.5 237.5,-112.5"/>
<text text-anchor="middle" x="270" y="-119.5" font-family="Verdana" font-size="10.00">Element.h</text>
</a>
</g>
</g>
<!-- Node2&#45;&gt;Node3 -->
<g id="edge2" class="edge"><title>Node2&#45;&gt;Node3</title>
<path fill="none" stroke="midnightblue" d="M270,-168.083C270,-161.006 270,-150.861 270,-141.986"/>
<polygon fill="midnightblue" stroke="midnightblue" points="273.5,-141.751 270,-131.751 266.5,-141.751 273.5,-141.751"/>
</g>
<!-- Node2&#45;&gt;Node7 -->
<g id="edge13" class="edge"><title>Node2&#45;&gt;Node7</title>
<path fill="none" stroke="midnightblue" d="M289.696,-168.368C335.106,-148.468 447.047,-99.4097 496.657,-77.6683"/>
<polygon fill="midnightblue" stroke="midnightblue" points="498.227,-80.8018 505.981,-73.5822 495.417,-74.3905 498.227,-80.8018"/>
</g>
<!-- Node3&#45;&gt;Node4 -->
<g id="edge3" class="edge"><title>Node3&#45;&gt;Node4</title>
<path fill="none" stroke="midnightblue" d="M237.401,-115.387C208.206,-109.227 165.161,-97.2611 133,-76 114.102,-63.5069 97.6736,-43.1498 87.3723,-28.545"/>
<polygon fill="midnightblue" stroke="midnightblue" points="90.0321,-26.2312 81.5232,-19.9186 84.2384,-30.1596 90.0321,-26.2312"/>
</g>
<!-- Node5 -->
<g id="node5" class="node"><title>Node5</title>
<polygon fill="white" stroke="#bfbfbf" points="335.5,-0.5 335.5,-19.5 382.5,-19.5 382.5,-0.5 335.5,-0.5"/>
<text text-anchor="middle" x="359" y="-7.5" font-family="Verdana" font-size="10.00">vector</text>
</g>
<!-- Node3&#45;&gt;Node5 -->
<g id="edge4" class="edge"><title>Node3&#45;&gt;Node5</title>
<path fill="none" stroke="midnightblue" d="M302.506,-116.945C327.537,-111.927 360.553,-100.76 377,-76 386.581,-61.5769 379.087,-42.1283 371.048,-28.2724"/>
<polygon fill="midnightblue" stroke="midnightblue" points="373.918,-26.2636 365.598,-19.7039 368.012,-30.0202 373.918,-26.2636"/>
</g>
<!-- Node6 -->
<g id="node6" class="node"><title>Node6</title>
<polygon fill="white" stroke="#bfbfbf" points="242.5,-0.5 242.5,-19.5 295.5,-19.5 295.5,-0.5 242.5,-0.5"/>
<text text-anchor="middle" x="269" y="-7.5" font-family="Verdana" font-size="10.00">stdint.h</text>
</g>
<!-- Node3&#45;&gt;Node6 -->
<g id="edge5" class="edge"><title>Node3&#45;&gt;Node6</title>
<path fill="none" stroke="midnightblue" d="M269.254,-112.382C268.511,-103.33 267.422,-88.6773 267,-76 266.483,-60.4654 267.1,-42.8407 267.782,-29.8666"/>
<polygon fill="midnightblue" stroke="midnightblue" points="271.279,-30.0195 268.37,-19.8318 264.291,-29.6098 271.279,-30.0195"/>
</g>
<!-- Node3&#45;&gt;Node7 -->
<g id="edge6" class="edge"><title>Node3&#45;&gt;Node7</title>
<path fill="none" stroke="midnightblue" d="M302.724,-116.233C345.289,-109.661 422.029,-96.5444 495.953,-75.9163"/>
<polygon fill="midnightblue" stroke="midnightblue" points="497.227,-79.1928 505.889,-73.0923 495.313,-72.4595 497.227,-79.1928"/>
</g>
<!-- Node8 -->
<g id="node8" class="node"><title>Node8</title>
<polygon fill="white" stroke="#bfbfbf" points="424,-56.5 424,-75.5 488,-75.5 488,-56.5 424,-56.5"/>
<text text-anchor="middle" x="456" y="-63.5" font-family="Verdana" font-size="10.00">XmlSink.h</text>
</g>
<!-- Node3&#45;&gt;Node8 -->
<g id="edge7" class="edge"><title>Node3&#45;&gt;Node8</title>
<path fill="none" stroke="midnightblue" d="M299.472,-112.444C331.171,-103.241 381.732,-88.5617 416.775,-78.3879"/>
<polygon fill="midnightblue" stroke="midnightblue" points="418.038,-81.6658 426.666,-75.5164 416.086,-74.9434 418.038,-81.6658"/>
</g>
<!-- Node9 -->
<g id="node9" class="node"><title>Node9</title>
<polygon fill="white" stroke="#bfbfbf" points="142.5,-56.5 142.5,-75.5 219.5,-75.5 219.5,-56.5 142.5,-56.5"/>
<text text-anchor="middle" x="181" y="-63.5" font-family="Verdana" font-size="10.00">XmlSource.h</text>
</g>
<!-- Node3&#45;&gt;Node9 -->
<g id="edge8" class="edge"><title>Node3&#45;&gt;Node9</title>
<path fill="none" stroke="midnightblue" d="M255.701,-112.324C241.817,-103.9 220.508,-90.9709 204.196,-81.0741"/>
<polygon fill="midnightblue" stroke="midnightblue" points="205.629,-77.8495 195.264,-75.6545 201.998,-83.8341 205.629,-77.8495"/>
</g>
<!-- Node10 -->
<g id="node10" class="node"><title>Node10</title>
<g id="a_node10"><a xlink:href="PathNavigator_8h.html" target="_top" xlink:title="PathNavigator.h">
<polygon fill="white" stroke="black" points="276,-56.5 276,-75.5 368,-75.5 368,-56.5 276,-56.5"/>
<text text-anchor="middle" x="322" y="-63.5" font-family="Verdana" font-size="10.00">PathNavigator.h</text>
</a>
</g>
</g>
<!-- Node3&#45;&gt;Node10 -->
<g id="edge9" class="edge"><title>Node3&#45;&gt;Node10</title>
<path fill="none" stroke="midnightblue" d="M278.587,-112.083C286.159,-104.22 297.378,-92.5688 306.514,-83.0813"/>
<polygon fill="midnightblue" stroke="midnightblue" points="309.158,-85.3821 313.573,-75.7511 304.115,-80.5266 309.158,-85.3821"/>
</g>
<!-- Node10&#45;&gt;Node4 -->
<g id="edge11" class="edge"><title>Node10&#45;&gt;Node4</title>
<path fill="none" stroke="midnightblue" d="M283.021,-56.4435C234.63,-45.8213 153.006,-27.9038 108.066,-18.039"/>
<polygon fill="midnightblue" stroke="midnightblue" points="108.783,-14.6131 98.2656,-15.8876 107.283,-21.4503 108.783,-14.6131"/>
</g>
<!-- Node10&#45;&gt;Node5 -->
<g id="edge10" class="edge"><title>Node10&#45;&gt;Node5</title>
<path fill="none" stroke="midnightblue" d="M328.11,-56.083C333.282,-48.5341 340.846,-37.4948 347.194,-28.2298"/>
<polygon fill="midnightblue" stroke="midnightblue" points="350.239,-29.9787 353.004,-19.7511 344.464,-26.0221 350.239,-29.9787"/>
</g>
<!-- Node10&#45;&gt;Node6 -->
<g id="edge12" class="edge"><title>Node10&#45;&gt;Node6</title>
<path fill="none" stroke="midnightblue" d="M313.248,-56.083C305.53,-48.2195 294.095,-36.5688 284.783,-27.0813"/>
<polygon fill="midnightblue" stroke="midnightblue" points="287.092,-24.4363 277.589,-19.7511 282.096,-29.3396 287.092,-24.4363"/>
</g>
<!-- Node11&#45;&gt;Node4 -->
<g id="edge18" class="edge"><title>Node11&#45;&gt;Node4</title>
<path fill="none" stroke="midnightblue" d="M100.217,-224.467C87.7973,-216.769 71.3949,-204.179 64,-188 39.6131,-134.645 58.1576,-62.7036 69.2496,-29.3683"/>
<polygon fill="midnightblue" stroke="midnightblue" points="72.6592,-30.2208 72.6528,-19.6259 66.0508,-27.9123 72.6592,-30.2208"/>
</g>
<!-- Node12 -->
<g id="node12" class="node"><title>Node12</title>
<g id="a_node12"><a xlink:href="KindElement_8h.html" target="_top" xlink:title="KindElement.h">
<polygon fill="white" stroke="black" points="73,-168.5 73,-187.5 159,-187.5 159,-168.5 73,-168.5"/>
<text text-anchor="middle" x="116" y="-175.5" font-family="Verdana" font-size="10.00">KindElement.h</text>
</a>
</g>
</g>
<!-- Node11&#45;&gt;Node12 -->
<g id="edge15" class="edge"><title>Node11&#45;&gt;Node12</title>
<path fill="none" stroke="midnightblue" d="M116,-224.083C116,-217.006 116,-206.861 116,-197.986"/>
<polygon fill="midnightblue" stroke="midnightblue" points="119.5,-197.751 116,-187.751 112.5,-197.751 119.5,-197.751"/>
</g>
<!-- Node12&#45;&gt;Node3 -->
<g id="edge16" class="edge"><title>Node12&#45;&gt;Node3</title>
<path fill="none" stroke="midnightblue" d="M140.402,-168.444C166.197,-159.399 207.077,-145.064 236.018,-134.916"/>
<polygon fill="midnightblue" stroke="midnightblue" points="237.434,-138.128 245.712,-131.516 235.118,-131.523 237.434,-138.128"/>
</g>
<!-- Node12&#45;&gt;Node4 -->
<g id="edge17" class="edge"><title>Node12&#45;&gt;Node4</title>
<path fill="none" stroke="midnightblue" d="M113.849,-168.075C107.553,-141.945 89.0628,-65.2106 80.4764,-29.577"/>
<polygon fill="midnightblue" stroke="midnightblue" points="83.8099,-28.4699 78.0646,-19.5681 77.0047,-30.1098 83.8099,-28.4699"/>
</g>
</g>
</svg>
