<?xml version="1.0" encoding="UTF-8" standalone="no"?>
<!DOCTYPE svg PUBLIC "-//W3C//DTD SVG 1.1//EN"
 "http://www.w3.org/Graphics/SVG/1.1/DTD/svg11.dtd">
<!-- Generated by graphviz version 2.38.0 (20140413.2041)
 -->
<!-- Title: parameter/SystemClass.h Pages: 1 -->
<svg width="1330pt" height="420pt"
 viewBox="0.00 0.00 1329.50 420.00" xmlns="http://www.w3.org/2000/svg" xmlns:xlink="http://www.w3.org/1999/xlink">
<g id="graph0" class="graph" transform="scale(1 1) rotate(0) translate(4 416)">
<title>parameter/SystemClass.h</title>
<polygon fill="white" stroke="none" points="-4,4 -4,-416 1325.5,-416 1325.5,4 -4,4"/>
<!-- Node1 -->
<g id="node1" class="node"><title>Node1</title>
<polygon fill="#bfbfbf" stroke="black" points="795,-392.5 795,-411.5 937,-411.5 937,-392.5 795,-392.5"/>
<text text-anchor="middle" x="866" y="-399.5" font-family="Verdana" font-size="10.00">parameter/SystemClass.h</text>
</g>
<!-- Node2 -->
<g id="node2" class="node"><title>Node2</title>
<g id="a_node2"><a xlink:href="ConfigurableElement_8h.html" target="_top" xlink:title="ConfigurableElement.h">
<polygon fill="white" stroke="black" points="312.5,-280.5 312.5,-299.5 437.5,-299.5 437.5,-280.5 312.5,-280.5"/>
<text text-anchor="middle" x="375" y="-287.5" font-family="Verdana" font-size="10.00">ConfigurableElement.h</text>
</a>
</g>
</g>
<!-- Node1&#45;&gt;Node2 -->
<g id="edge1" class="edge"><title>Node1&#45;&gt;Node2</title>
<path fill="none" stroke="midnightblue" d="M824.512,-392.446C781.736,-383.567 713.13,-369.162 654,-356 571.508,-337.638 475.604,-315.014 420.437,-301.876"/>
<polygon fill="midnightblue" stroke="midnightblue" points="421.162,-298.451 410.623,-299.536 419.538,-305.26 421.162,-298.451"/>
</g>
<!-- Node5 -->
<g id="node5" class="node"><title>Node5</title>
<polygon fill="white" stroke="#bfbfbf" points="596,-0.5 596,-19.5 640,-19.5 640,-0.5 596,-0.5"/>
<text text-anchor="middle" x="618" y="-7.5" font-family="Verdana" font-size="10.00">string</text>
</g>
<!-- Node1&#45;&gt;Node5 -->
<g id="edge51" class="edge"><title>Node1&#45;&gt;Node5</title>
<path fill="none" stroke="midnightblue" d="M794.764,-399.399C587.609,-393.806 0,-370.898 0,-291 0,-291 0,-291 0,-121 0,-60.9726 457.772,-22.7908 585.346,-13.3156"/>
<polygon fill="midnightblue" stroke="midnightblue" points="585.923,-16.7828 595.64,-12.5605 585.411,-9.80159 585.923,-16.7828"/>
</g>
<!-- Node15 -->
<g id="node15" class="node"><title>Node15</title>
<polygon fill="white" stroke="#bfbfbf" points="1125,-0.5 1125,-19.5 1155,-19.5 1155,-0.5 1125,-0.5"/>
<text text-anchor="middle" x="1140" y="-7.5" font-family="Verdana" font-size="10.00">list</text>
</g>
<!-- Node1&#45;&gt;Node15 -->
<g id="edge50" class="edge"><title>Node1&#45;&gt;Node15</title>
<path fill="none" stroke="midnightblue" d="M937.34,-394.422C1044.86,-382.506 1236,-352.654 1236,-291 1236,-291 1236,-291 1236,-121 1236,-77.3147 1192.49,-42.5934 1164.05,-24.5665"/>
<polygon fill="midnightblue" stroke="midnightblue" points="1165.79,-21.5237 1155.42,-19.31 1162.14,-27.5017 1165.79,-21.5237"/>
</g>
<!-- Node16 -->
<g id="node16" class="node"><title>Node16</title>
<g id="a_node16"><a xlink:href="SubsystemPlugins_8h.html" target="_top" xlink:title="SubsystemPlugins.h">
<polygon fill="white" stroke="black" points="663.5,-336.5 663.5,-355.5 776.5,-355.5 776.5,-336.5 663.5,-336.5"/>
<text text-anchor="middle" x="720" y="-343.5" font-family="Verdana" font-size="10.00">SubsystemPlugins.h</text>
</a>
</g>
</g>
<!-- Node1&#45;&gt;Node16 -->
<g id="edge26" class="edge"><title>Node1&#45;&gt;Node16</title>
<path fill="none" stroke="midnightblue" d="M842.866,-392.444C818.518,-383.438 779.993,-369.189 752.577,-359.049"/>
<polygon fill="midnightblue" stroke="midnightblue" points="753.619,-355.703 743.026,-355.516 751.191,-362.268 753.619,-355.703"/>
</g>
<!-- Node18 -->
<g id="node18" class="node"><title>Node18</title>
<g id="a_node18"><a xlink:href="Results_8h.html" target="_top" xlink:title="Results.h">
<polygon fill="white" stroke="black" points="1110.5,-56.5 1110.5,-75.5 1169.5,-75.5 1169.5,-56.5 1110.5,-56.5"/>
<text text-anchor="middle" x="1140" y="-63.5" font-family="Verdana" font-size="10.00">Results.h</text>
</a>
</g>
</g>
<!-- Node1&#45;&gt;Node18 -->
<g id="edge31" class="edge"><title>Node1&#45;&gt;Node18</title>
<path fill="none" stroke="midnightblue" d="M937.259,-393.796C999.512,-383.098 1080,-356.585 1080,-291 1080,-291 1080,-291 1080,-177 1080,-139.883 1106.65,-103.378 1124.43,-83.1581"/>
<polygon fill="midnightblue" stroke="midnightblue" points="1127.24,-85.2762 1131.4,-75.5349 1122.07,-80.552 1127.24,-85.2762"/>
</g>
<!-- Node19 -->
<g id="node19" class="node"><title>Node19</title>
<g id="a_node19"><a xlink:href="Logger_8h.html" target="_top" xlink:title="log/Logger.h">
<polygon fill="white" stroke="black" points="828.5,-168.5 828.5,-187.5 903.5,-187.5 903.5,-168.5 828.5,-168.5"/>
<text text-anchor="middle" x="866" y="-175.5" font-family="Verdana" font-size="10.00">log/Logger.h</text>
</a>
</g>
</g>
<!-- Node1&#45;&gt;Node19 -->
<g id="edge34" class="edge"><title>Node1&#45;&gt;Node19</title>
<path fill="none" stroke="midnightblue" d="M866,-392.297C866,-359.633 866,-243.866 866,-197.957"/>
<polygon fill="midnightblue" stroke="midnightblue" points="869.5,-197.884 866,-187.884 862.5,-197.884 869.5,-197.884"/>
</g>
<!-- Node27 -->
<g id="node27" class="node"><title>Node27</title>
<polygon fill="white" stroke="#bfbfbf" points="1264.5,-336.5 1264.5,-355.5 1321.5,-355.5 1321.5,-336.5 1264.5,-336.5"/>
<text text-anchor="middle" x="1293" y="-343.5" font-family="Verdana" font-size="10.00">memory</text>
</g>
<!-- Node1&#45;&gt;Node27 -->
<g id="edge52" class="edge"><title>Node1&#45;&gt;Node27</title>
<path fill="none" stroke="midnightblue" d="M937.039,-394.6C1014.31,-387.19 1141.35,-373.7 1250,-356 1251.46,-355.762 1252.94,-355.509 1254.44,-355.244"/>
<polygon fill="midnightblue" stroke="midnightblue" points="1255.21,-358.66 1264.39,-353.362 1253.91,-351.783 1255.21,-358.66"/>
</g>
<!-- Node3 -->
<g id="node3" class="node"><title>Node3</title>
<polygon fill="white" stroke="#bfbfbf" points="66.5,-168.5 66.5,-187.5 179.5,-187.5 179.5,-168.5 66.5,-168.5"/>
<text text-anchor="middle" x="123" y="-175.5" font-family="Verdana" font-size="10.00">parameter_export.h</text>
</g>
<!-- Node2&#45;&gt;Node3 -->
<g id="edge2" class="edge"><title>Node2&#45;&gt;Node3</title>
<path fill="none" stroke="midnightblue" d="M355.226,-280.368C310.971,-261.051 203.776,-214.259 151.976,-191.648"/>
<polygon fill="midnightblue" stroke="midnightblue" points="153.247,-188.384 142.682,-187.591 150.447,-194.8 153.247,-188.384"/>
</g>
<!-- Node4 -->
<g id="node4" class="node"><title>Node4</title>
<g id="a_node4"><a xlink:href="Element_8h.html" target="_top" xlink:title="Element.h">
<polygon fill="white" stroke="black" points="342.5,-224.5 342.5,-243.5 407.5,-243.5 407.5,-224.5 342.5,-224.5"/>
<text text-anchor="middle" x="375" y="-231.5" font-family="Verdana" font-size="10.00">Element.h</text>
</a>
</g>
</g>
<!-- Node2&#45;&gt;Node4 -->
<g id="edge3" class="edge"><title>Node2&#45;&gt;Node4</title>
<path fill="none" stroke="midnightblue" d="M375,-280.083C375,-273.006 375,-262.861 375,-253.986"/>
<polygon fill="midnightblue" stroke="midnightblue" points="378.5,-253.751 375,-243.751 371.5,-253.751 378.5,-253.751"/>
</g>
<!-- Node6 -->
<g id="node6" class="node"><title>Node6</title>
<polygon fill="white" stroke="#bfbfbf" points="184.5,-112.5 184.5,-131.5 231.5,-131.5 231.5,-112.5 184.5,-112.5"/>
<text text-anchor="middle" x="208" y="-119.5" font-family="Verdana" font-size="10.00">vector</text>
</g>
<!-- Node2&#45;&gt;Node6 -->
<g id="edge25" class="edge"><title>Node2&#45;&gt;Node6</title>
<path fill="none" stroke="midnightblue" d="M324.706,-280.472C243.294,-265.518 88.5468,-231.936 57,-188 25.8661,-144.639 120.823,-129.942 174.247,-125.17"/>
<polygon fill="midnightblue" stroke="midnightblue" points="174.648,-128.649 184.328,-124.342 174.075,-121.672 174.648,-128.649"/>
</g>
<!-- Node2&#45;&gt;Node15 -->
<g id="edge24" class="edge"><title>Node2&#45;&gt;Node15</title>
<path fill="none" stroke="midnightblue" d="M437.635,-281.617C538.897,-268.707 744.169,-238.488 912,-188 1034.84,-151.047 1107.05,-182.863 1178,-76 1188.98,-59.4611 1173.56,-39.6687 1159.2,-26.3041"/>
<polygon fill="midnightblue" stroke="midnightblue" points="1161.34,-23.53 1151.5,-19.6021 1156.74,-28.8089 1161.34,-23.53"/>
</g>
<!-- Node4&#45;&gt;Node3 -->
<g id="edge4" class="edge"><title>Node4&#45;&gt;Node3</title>
<path fill="none" stroke="midnightblue" d="M342.314,-225.996C299.205,-216.758 222.944,-200.417 172.68,-189.646"/>
<polygon fill="midnightblue" stroke="midnightblue" points="173.193,-186.176 162.681,-187.503 171.726,-193.021 173.193,-186.176"/>
</g>
<!-- Node4&#45;&gt;Node5 -->
<g id="edge5" class="edge"><title>Node4&#45;&gt;Node5</title>
<path fill="none" stroke="midnightblue" d="M375.843,-224.245C378.259,-203.081 386.804,-148.216 413,-112 454.939,-54.0196 539.537,-27.6045 585.869,-17.0566"/>
<polygon fill="midnightblue" stroke="midnightblue" points="586.657,-20.467 595.689,-14.9288 585.175,-13.6258 586.657,-20.467"/>
</g>
<!-- Node4&#45;&gt;Node6 -->
<g id="edge6" class="edge"><title>Node4&#45;&gt;Node6</title>
<path fill="none" stroke="midnightblue" d="M342.476,-231.792C309.053,-228.794 257.692,-219.025 227,-188 214.995,-175.865 210.496,-156.587 208.85,-142.172"/>
<polygon fill="midnightblue" stroke="midnightblue" points="212.315,-141.583 208.053,-131.883 205.336,-142.124 212.315,-141.583"/>
</g>
<!-- Node7 -->
<g id="node7" class="node"><title>Node7</title>
<polygon fill="white" stroke="#bfbfbf" points="312.5,-56.5 312.5,-75.5 365.5,-75.5 365.5,-56.5 312.5,-56.5"/>
<text text-anchor="middle" x="339" y="-63.5" font-family="Verdana" font-size="10.00">stdint.h</text>
</g>
<!-- Node4&#45;&gt;Node7 -->
<g id="edge7" class="edge"><title>Node4&#45;&gt;Node7</title>
<path fill="none" stroke="midnightblue" d="M373.064,-224.075C367.398,-197.945 350.757,-121.211 343.029,-85.577"/>
<polygon fill="midnightblue" stroke="midnightblue" points="346.398,-84.5991 340.858,-75.5681 339.557,-86.0828 346.398,-84.5991"/>
</g>
<!-- Node8 -->
<g id="node8" class="node"><title>Node8</title>
<g id="a_node8"><a xlink:href="XmlSink_8h.html" target="_top" xlink:title="XmlSink.h">
<polygon fill="white" stroke="black" points="519,-168.5 519,-187.5 583,-187.5 583,-168.5 519,-168.5"/>
<text text-anchor="middle" x="551" y="-175.5" font-family="Verdana" font-size="10.00">XmlSink.h</text>
</a>
</g>
</g>
<!-- Node4&#45;&gt;Node8 -->
<g id="edge8" class="edge"><title>Node4&#45;&gt;Node8</title>
<path fill="none" stroke="midnightblue" d="M402.888,-224.444C432.754,-215.28 480.315,-200.688 513.456,-190.519"/>
<polygon fill="midnightblue" stroke="midnightblue" points="514.709,-193.796 523.243,-187.516 512.656,-187.104 514.709,-193.796"/>
</g>
<!-- Node13 -->
<g id="node13" class="node"><title>Node13</title>
<g id="a_node13"><a xlink:href="XmlSource_8h.html" target="_top" xlink:title="XmlSource.h">
<polygon fill="white" stroke="black" points="423.5,-168.5 423.5,-187.5 500.5,-187.5 500.5,-168.5 423.5,-168.5"/>
<text text-anchor="middle" x="462" y="-175.5" font-family="Verdana" font-size="10.00">XmlSource.h</text>
</a>
</g>
</g>
<!-- Node4&#45;&gt;Node13 -->
<g id="edge17" class="edge"><title>Node4&#45;&gt;Node13</title>
<path fill="none" stroke="midnightblue" d="M388.978,-224.324C402.55,-215.9 423.38,-202.971 439.325,-193.074"/>
<polygon fill="midnightblue" stroke="midnightblue" points="441.406,-195.902 448.057,-187.655 437.714,-189.954 441.406,-195.902"/>
</g>
<!-- Node14 -->
<g id="node14" class="node"><title>Node14</title>
<g id="a_node14"><a xlink:href="PathNavigator_8h.html" target="_top" xlink:title="PathNavigator.h">
<polygon fill="white" stroke="black" points="236,-168.5 236,-187.5 328,-187.5 328,-168.5 236,-168.5"/>
<text text-anchor="middle" x="282" y="-175.5" font-family="Verdana" font-size="10.00">PathNavigator.h</text>
</a>
</g>
</g>
<!-- Node4&#45;&gt;Node14 -->
<g id="edge20" class="edge"><title>Node4&#45;&gt;Node14</title>
<path fill="none" stroke="midnightblue" d="M360.058,-224.324C345.415,-215.822 322.866,-202.729 305.762,-192.797"/>
<polygon fill="midnightblue" stroke="midnightblue" points="307.31,-189.649 296.905,-187.655 303.795,-195.703 307.31,-189.649"/>
</g>
<!-- Node9 -->
<g id="node9" class="node"><title>Node9</title>
<g id="a_node9"><a xlink:href="XmlElement_8h.html" target="_top" xlink:title="XmlElement.h">
<polygon fill="white" stroke="black" points="422.5,-112.5 422.5,-131.5 505.5,-131.5 505.5,-112.5 422.5,-112.5"/>
<text text-anchor="middle" x="464" y="-119.5" font-family="Verdana" font-size="10.00">XmlElement.h</text>
</a>
</g>
</g>
<!-- Node8&#45;&gt;Node9 -->
<g id="edge9" class="edge"><title>Node8&#45;&gt;Node9</title>
<path fill="none" stroke="midnightblue" d="M537.022,-168.324C523.45,-159.9 502.62,-146.971 486.675,-137.074"/>
<polygon fill="midnightblue" stroke="midnightblue" points="488.286,-133.954 477.943,-131.655 484.594,-139.902 488.286,-133.954"/>
</g>
<!-- Node10 -->
<g id="node10" class="node"><title>Node10</title>
<g id="a_node10"><a xlink:href="XmlSerializingContext_8h.html" target="_top" xlink:title="XmlSerializingContext.h">
<polygon fill="white" stroke="black" points="524,-112.5 524,-131.5 654,-131.5 654,-112.5 524,-112.5"/>
<text text-anchor="middle" x="589" y="-119.5" font-family="Verdana" font-size="10.00">XmlSerializingContext.h</text>
</a>
</g>
</g>
<!-- Node8&#45;&gt;Node10 -->
<g id="edge12" class="edge"><title>Node8&#45;&gt;Node10</title>
<path fill="none" stroke="midnightblue" d="M557.275,-168.083C562.642,-160.455 570.518,-149.264 577.079,-139.941"/>
<polygon fill="midnightblue" stroke="midnightblue" points="579.949,-141.943 582.842,-131.751 574.225,-137.915 579.949,-141.943"/>
</g>
<!-- Node9&#45;&gt;Node5 -->
<g id="edge11" class="edge"><title>Node9&#45;&gt;Node5</title>
<path fill="none" stroke="midnightblue" d="M468.736,-112.287C476.545,-98.6338 493.333,-72.0973 514,-56 535.572,-39.1978 564.376,-27.3757 586.2,-20.0789"/>
<polygon fill="midnightblue" stroke="midnightblue" points="587.528,-23.3291 595.987,-16.9507 585.396,-16.6613 587.528,-23.3291"/>
</g>
<!-- Node9&#45;&gt;Node7 -->
<g id="edge10" class="edge"><title>Node9&#45;&gt;Node7</title>
<path fill="none" stroke="midnightblue" d="M444.193,-112.444C423.713,-103.596 391.517,-89.6875 368.135,-79.5865"/>
<polygon fill="midnightblue" stroke="midnightblue" points="369.282,-76.2692 358.714,-75.5164 366.506,-82.6953 369.282,-76.2692"/>
</g>
<!-- Node10&#45;&gt;Node5 -->
<g id="edge16" class="edge"><title>Node10&#45;&gt;Node5</title>
<path fill="none" stroke="midnightblue" d="M567.396,-112.442C542.195,-101.126 505.796,-79.8137 521,-56 535.208,-33.7469 563.566,-22.3307 585.968,-16.5785"/>
<polygon fill="midnightblue" stroke="midnightblue" points="586.813,-19.9756 595.769,-14.3156 585.238,-13.155 586.813,-19.9756"/>
</g>
<!-- Node11 -->
<g id="node11" class="node"><title>Node11</title>
<g id="a_node11"><a xlink:href="ErrorContext_8hpp.html" target="_top" xlink:title="ErrorContext.hpp">
<polygon fill="white" stroke="black" points="530,-56.5 530,-75.5 628,-75.5 628,-56.5 530,-56.5"/>
<text text-anchor="middle" x="579" y="-63.5" font-family="Verdana" font-size="10.00">ErrorContext.hpp</text>
</a>
</g>
</g>
<!-- Node10&#45;&gt;Node11 -->
<g id="edge13" class="edge"><title>Node10&#45;&gt;Node11</title>
<path fill="none" stroke="midnightblue" d="M587.349,-112.083C586.024,-104.927 584.118,-94.6353 582.461,-85.6911"/>
<polygon fill="midnightblue" stroke="midnightblue" points="585.883,-84.9466 580.621,-75.7511 579,-86.2212 585.883,-84.9466"/>
</g>
<!-- Node11&#45;&gt;Node5 -->
<g id="edge14" class="edge"><title>Node11&#45;&gt;Node5</title>
<path fill="none" stroke="midnightblue" d="M585.44,-56.083C590.949,-48.4554 599.031,-37.2645 605.765,-27.9408"/>
<polygon fill="midnightblue" stroke="midnightblue" points="608.662,-29.9071 611.68,-19.7511 602.987,-25.8087 608.662,-29.9071"/>
</g>
<!-- Node12 -->
<g id="node12" class="node"><title>Node12</title>
<g id="a_node12"><a xlink:href="NonCopyable_8hpp.html" target="_top" xlink:title="NonCopyable.hpp">
<polygon fill="white" stroke="black" points="737.5,-0.5 737.5,-19.5 838.5,-19.5 838.5,-0.5 737.5,-0.5"/>
<text text-anchor="middle" x="788" y="-7.5" font-family="Verdana" font-size="10.00">NonCopyable.hpp</text>
</a>
</g>
</g>
<!-- Node11&#45;&gt;Node12 -->
<g id="edge15" class="edge"><title>Node11&#45;&gt;Node12</title>
<path fill="none" stroke="midnightblue" d="M612.117,-56.4435C648.118,-47.1419 705.77,-32.246 745.186,-22.062"/>
<polygon fill="midnightblue" stroke="midnightblue" points="746.232,-25.4068 755.038,-19.5164 744.481,-18.6294 746.232,-25.4068"/>
</g>
<!-- Node13&#45;&gt;Node9 -->
<g id="edge18" class="edge"><title>Node13&#45;&gt;Node9</title>
<path fill="none" stroke="midnightblue" d="M462.33,-168.083C462.592,-161.006 462.968,-150.861 463.297,-141.986"/>
<polygon fill="midnightblue" stroke="midnightblue" points="466.803,-141.874 463.676,-131.751 459.808,-141.615 466.803,-141.874"/>
</g>
<!-- Node13&#45;&gt;Node10 -->
<g id="edge19" class="edge"><title>Node13&#45;&gt;Node10</title>
<path fill="none" stroke="midnightblue" d="M482.124,-168.444C503.024,-159.557 535.935,-145.563 559.716,-135.451"/>
<polygon fill="midnightblue" stroke="midnightblue" points="561.138,-138.65 568.971,-131.516 558.398,-132.208 561.138,-138.65"/>
</g>
<!-- Node14&#45;&gt;Node5 -->
<g id="edge22" class="edge"><title>Node14&#45;&gt;Node5</title>
<path fill="none" stroke="midnightblue" d="M280.483,-168.456C277.09,-146.299 271.482,-86.5885 303,-56 342.687,-17.4841 512.981,-11.6892 585.306,-10.9925"/>
<polygon fill="midnightblue" stroke="midnightblue" points="585.663,-14.4903 595.639,-10.9218 585.615,-7.49043 585.663,-14.4903"/>
</g>
<!-- Node14&#45;&gt;Node6 -->
<g id="edge21" class="edge"><title>Node14&#45;&gt;Node6</title>
<path fill="none" stroke="midnightblue" d="M270.111,-168.324C258.85,-160.107 241.713,-147.602 228.291,-137.807"/>
<polygon fill="midnightblue" stroke="midnightblue" points="230.247,-134.901 220.106,-131.834 226.12,-140.556 230.247,-134.901"/>
</g>
<!-- Node14&#45;&gt;Node7 -->
<g id="edge23" class="edge"><title>Node14&#45;&gt;Node7</title>
<path fill="none" stroke="midnightblue" d="M286.473,-168.368C295.796,-150.376 317.469,-108.55 329.866,-84.6267"/>
<polygon fill="midnightblue" stroke="midnightblue" points="333.055,-86.0805 334.548,-75.5914 326.84,-82.8599 333.055,-86.0805"/>
</g>
<!-- Node16&#45;&gt;Node5 -->
<g id="edge30" class="edge"><title>Node16&#45;&gt;Node5</title>
<path fill="none" stroke="midnightblue" d="M720,-336.442C720,-317.936 720,-272.812 720,-235 720,-235 720,-235 720,-177 720,-113.308 664.817,-53.5036 635.629,-26.3258"/>
<polygon fill="midnightblue" stroke="midnightblue" points="637.913,-23.6722 628.153,-19.5494 633.212,-28.8586 637.913,-23.6722"/>
</g>
<!-- Node17 -->
<g id="node17" class="node"><title>Node17</title>
<g id="a_node17"><a xlink:href="KindElement_8h.html" target="_top" xlink:title="KindElement.h">
<polygon fill="white" stroke="black" points="606,-280.5 606,-299.5 692,-299.5 692,-280.5 606,-280.5"/>
<text text-anchor="middle" x="649" y="-287.5" font-family="Verdana" font-size="10.00">KindElement.h</text>
</a>
</g>
</g>
<!-- Node16&#45;&gt;Node17 -->
<g id="edge27" class="edge"><title>Node16&#45;&gt;Node17</title>
<path fill="none" stroke="midnightblue" d="M708.593,-336.324C697.891,-328.185 681.659,-315.839 668.837,-306.087"/>
<polygon fill="midnightblue" stroke="midnightblue" points="670.693,-303.102 660.615,-299.834 666.456,-308.673 670.693,-303.102"/>
</g>
<!-- Node17&#45;&gt;Node4 -->
<g id="edge28" class="edge"><title>Node17&#45;&gt;Node4</title>
<path fill="none" stroke="midnightblue" d="M605.886,-280.503C554.423,-270.361 468.905,-253.507 417.649,-243.405"/>
<polygon fill="midnightblue" stroke="midnightblue" points="418.053,-239.918 407.565,-241.418 416.7,-246.786 418.053,-239.918"/>
</g>
<!-- Node17&#45;&gt;Node5 -->
<g id="edge29" class="edge"><title>Node17&#45;&gt;Node5</title>
<path fill="none" stroke="midnightblue" d="M651.4,-280.413C658.246,-254.608 676.531,-175.618 663,-112 656.406,-80.9992 639.6,-47.9748 628.497,-28.4318"/>
<polygon fill="midnightblue" stroke="midnightblue" points="631.497,-26.6289 623.434,-19.7557 625.451,-30.1568 631.497,-26.6289"/>
</g>
<!-- Node18&#45;&gt;Node5 -->
<g id="edge33" class="edge"><title>Node18&#45;&gt;Node5</title>
<path fill="none" stroke="midnightblue" d="M1110.38,-61.4844C1095.81,-59.7804 1077.99,-57.7329 1062,-56 907.825,-39.2932 723.317,-21.2024 650.156,-14.1048"/>
<polygon fill="midnightblue" stroke="midnightblue" points="650.478,-10.6196 640.187,-13.1388 649.803,-17.587 650.478,-10.6196"/>
</g>
<!-- Node18&#45;&gt;Node15 -->
<g id="edge32" class="edge"><title>Node18&#45;&gt;Node15</title>
<path fill="none" stroke="midnightblue" d="M1140,-56.083C1140,-49.0059 1140,-38.8611 1140,-29.9865"/>
<polygon fill="midnightblue" stroke="midnightblue" points="1143.5,-29.751 1140,-19.7511 1136.5,-29.7511 1143.5,-29.751"/>
</g>
<!-- Node19&#45;&gt;Node12 -->
<g id="edge49" class="edge"><title>Node19&#45;&gt;Node12</title>
<path fill="none" stroke="midnightblue" d="M861.806,-168.075C849.422,-141.719 812.846,-63.878 796.298,-28.6608"/>
<polygon fill="midnightblue" stroke="midnightblue" points="799.446,-27.1303 792.026,-19.5681 793.111,-30.1072 799.446,-27.1303"/>
</g>
<!-- Node20 -->
<g id="node20" class="node"><title>Node20</title>
<g id="a_node20"><a xlink:href="ILogger_8h.html" target="_top" xlink:title="log/ILogger.h">
<polygon fill="white" stroke="black" points="722.5,-56.5 722.5,-75.5 799.5,-75.5 799.5,-56.5 722.5,-56.5"/>
<text text-anchor="middle" x="761" y="-63.5" font-family="Verdana" font-size="10.00">log/ILogger.h</text>
</a>
</g>
</g>
<!-- Node19&#45;&gt;Node20 -->
<g id="edge35" class="edge"><title>Node19&#45;&gt;Node20</title>
<path fill="none" stroke="midnightblue" d="M857.761,-168.368C840.203,-149.974 798.868,-106.671 776.322,-83.0519"/>
<polygon fill="midnightblue" stroke="midnightblue" points="778.637,-80.4083 769.201,-75.5914 773.574,-85.2417 778.637,-80.4083"/>
</g>
<!-- Node21 -->
<g id="node21" class="node"><title>Node21</title>
<g id="a_node21"><a xlink:href="LogWrapper_8h.html" target="_top" xlink:title="log/LogWrapper.h">
<polygon fill="white" stroke="black" points="894,-112.5 894,-131.5 992,-131.5 992,-112.5 894,-112.5"/>
<text text-anchor="middle" x="943" y="-119.5" font-family="Verdana" font-size="10.00">log/LogWrapper.h</text>
</a>
</g>
</g>
<!-- Node19&#45;&gt;Node21 -->
<g id="edge37" class="edge"><title>Node19&#45;&gt;Node21</title>
<path fill="none" stroke="midnightblue" d="M878.371,-168.324C890.158,-160.058 908.132,-147.453 922.136,-137.632"/>
<polygon fill="midnightblue" stroke="midnightblue" points="924.482,-140.262 930.659,-131.655 920.462,-134.531 924.482,-140.262"/>
</g>
<!-- Node20&#45;&gt;Node5 -->
<g id="edge36" class="edge"><title>Node20&#45;&gt;Node5</title>
<path fill="none" stroke="midnightblue" d="M738.341,-56.4435C714.458,-47.4249 676.649,-33.1472 649.789,-23.0043"/>
<polygon fill="midnightblue" stroke="midnightblue" points="650.675,-19.5975 640.083,-19.339 648.202,-26.1461 650.675,-19.5975"/>
</g>
<!-- Node21&#45;&gt;Node5 -->
<g id="edge45" class="edge"><title>Node21&#45;&gt;Node5</title>
<path fill="none" stroke="midnightblue" d="M928.074,-112.484C903.661,-98.8631 853.358,-72.0776 808,-56 753.971,-36.8489 688.417,-23.3636 650.139,-16.4151"/>
<polygon fill="midnightblue" stroke="midnightblue" points="650.556,-12.9345 640.098,-14.6294 649.33,-19.8264 650.556,-12.9345"/>
</g>
<!-- Node21&#45;&gt;Node15 -->
<g id="edge48" class="edge"><title>Node21&#45;&gt;Node15</title>
<path fill="none" stroke="midnightblue" d="M973.844,-112.449C998.642,-104.855 1033.86,-92.4174 1062,-76 1085.64,-62.2095 1109.29,-41.2399 1124.25,-26.8705"/>
<polygon fill="midnightblue" stroke="midnightblue" points="1126.92,-29.1545 1131.61,-19.6541 1122.02,-24.1563 1126.92,-29.1545"/>
</g>
<!-- Node21&#45;&gt;Node20 -->
<g id="edge38" class="edge"><title>Node21&#45;&gt;Node20</title>
<path fill="none" stroke="midnightblue" d="M914.162,-112.444C883.144,-103.241 833.671,-88.5617 799.382,-78.3879"/>
<polygon fill="midnightblue" stroke="midnightblue" points="800.286,-75.0055 789.704,-75.5164 798.295,-81.7164 800.286,-75.0055"/>
</g>
<!-- Node22 -->
<g id="node22" class="node"><title>Node22</title>
<g id="a_node22"><a xlink:href="Utility_8h.html" target="_top" xlink:title="Utility.h">
<polygon fill="white" stroke="black" points="1002.5,-56.5 1002.5,-75.5 1053.5,-75.5 1053.5,-56.5 1002.5,-56.5"/>
<text text-anchor="middle" x="1028" y="-63.5" font-family="Verdana" font-size="10.00">Utility.h</text>
</a>
</g>
</g>
<!-- Node21&#45;&gt;Node22 -->
<g id="edge39" class="edge"><title>Node21&#45;&gt;Node22</title>
<path fill="none" stroke="midnightblue" d="M956.657,-112.324C969.916,-103.9 990.268,-90.9709 1005.85,-81.0741"/>
<polygon fill="midnightblue" stroke="midnightblue" points="1007.81,-83.9711 1014.38,-75.6545 1004.06,-78.0626 1007.81,-83.9711"/>
</g>
<!-- Node24 -->
<g id="node24" class="node"><title>Node24</title>
<polygon fill="white" stroke="#bfbfbf" points="887,-0.5 887,-19.5 943,-19.5 943,-0.5 887,-0.5"/>
<text text-anchor="middle" x="915" y="-7.5" font-family="Verdana" font-size="10.00">sstream</text>
</g>
<!-- Node21&#45;&gt;Node24 -->
<g id="edge46" class="edge"><title>Node21&#45;&gt;Node24</title>
<path fill="none" stroke="midnightblue" d="M938.213,-112.323C933.552,-103.465 926.653,-89.1821 923,-76 918.773,-60.7459 916.777,-42.8595 915.836,-29.7152"/>
<polygon fill="midnightblue" stroke="midnightblue" points="919.321,-29.3521 915.251,-19.5701 912.333,-29.755 919.321,-29.3521"/>
</g>
<!-- Node26 -->
<g id="node26" class="node"><title>Node26</title>
<polygon fill="white" stroke="#bfbfbf" points="932,-56.5 932,-75.5 984,-75.5 984,-56.5 932,-56.5"/>
<text text-anchor="middle" x="958" y="-63.5" font-family="Verdana" font-size="10.00">iterator</text>
</g>
<!-- Node21&#45;&gt;Node26 -->
<g id="edge47" class="edge"><title>Node21&#45;&gt;Node26</title>
<path fill="none" stroke="midnightblue" d="M945.477,-112.083C947.486,-104.849 950.386,-94.4087 952.89,-85.3968"/>
<polygon fill="midnightblue" stroke="midnightblue" points="956.265,-86.323 955.569,-75.7511 949.52,-84.4495 956.265,-86.323"/>
</g>
<!-- Node22&#45;&gt;Node5 -->
<g id="edge40" class="edge"><title>Node22&#45;&gt;Node5</title>
<path fill="none" stroke="midnightblue" d="M1002.47,-58.0202C999.297,-57.2748 996.083,-56.5788 993,-56 867.243,-32.393 715.317,-18.6287 650.186,-13.4182"/>
<polygon fill="midnightblue" stroke="midnightblue" points="650.378,-9.92261 640.134,-12.6273 649.829,-16.901 650.378,-9.92261"/>
</g>
<!-- Node22&#45;&gt;Node15 -->
<g id="edge41" class="edge"><title>Node22&#45;&gt;Node15</title>
<path fill="none" stroke="midnightblue" d="M1045.99,-56.324C1064.89,-47.2129 1094.72,-32.8309 1115.7,-22.7162"/>
<polygon fill="midnightblue" stroke="midnightblue" points="1117.43,-25.7653 1124.92,-18.2695 1114.39,-19.4599 1117.43,-25.7653"/>
</g>
<!-- Node23 -->
<g id="node23" class="node"><title>Node23</title>
<polygon fill="white" stroke="#bfbfbf" points="973,-0.5 973,-19.5 1011,-19.5 1011,-0.5 973,-0.5"/>
<text text-anchor="middle" x="992" y="-7.5" font-family="Verdana" font-size="10.00">map</text>
</g>
<!-- Node22&#45;&gt;Node23 -->
<g id="edge42" class="edge"><title>Node22&#45;&gt;Node23</title>
<path fill="none" stroke="midnightblue" d="M1022.06,-56.083C1017.02,-48.5341 1009.66,-37.4948 1003.49,-28.2298"/>
<polygon fill="midnightblue" stroke="midnightblue" points="1006.29,-26.1301 997.834,-19.7511 1000.47,-30.0131 1006.29,-26.1301"/>
</g>
<!-- Node22&#45;&gt;Node24 -->
<g id="edge43" class="edge"><title>Node22&#45;&gt;Node24</title>
<path fill="none" stroke="midnightblue" d="M1010.09,-56.4435C991.746,-47.6751 962.995,-33.9355 941.906,-23.8579"/>
<polygon fill="midnightblue" stroke="midnightblue" points="943.353,-20.6703 932.821,-19.5164 940.335,-26.9862 943.353,-20.6703"/>
</g>
<!-- Node25 -->
<g id="node25" class="node"><title>Node25</title>
<polygon fill="white" stroke="#bfbfbf" points="1029,-0.5 1029,-19.5 1085,-19.5 1085,-0.5 1029,-0.5"/>
<text text-anchor="middle" x="1057" y="-7.5" font-family="Verdana" font-size="10.00">numeric</text>
</g>
<!-- Node22&#45;&gt;Node25 -->
<g id="edge44" class="edge"><title>Node22&#45;&gt;Node25</title>
<path fill="none" stroke="midnightblue" d="M1032.79,-56.083C1036.76,-48.6913 1042.53,-37.9533 1047.43,-28.8111"/>
<polygon fill="midnightblue" stroke="midnightblue" points="1050.65,-30.217 1052.3,-19.7511 1044.49,-26.9051 1050.65,-30.217"/>
</g>
</g>
</svg>
