<?xml version="1.0" encoding="UTF-8" standalone="no"?>
<!DOCTYPE svg PUBLIC "-//W3C//DTD SVG 1.1//EN"
 "http://www.w3.org/Graphics/SVG/1.1/DTD/svg11.dtd">
<!-- Generated by graphviz version 2.38.0 (20140413.2041)
 -->
<!-- Title: test/test&#45;platform/TestPlatform.h Pages: 1 -->
<svg width="1220pt" height="319pt"
 viewBox="0.00 0.00 1219.50 319.00" xmlns="http://www.w3.org/2000/svg" xmlns:xlink="http://www.w3.org/1999/xlink">
<g id="graph0" class="graph" transform="scale(1 1) rotate(0) translate(4 315)">
<title>test/test&#45;platform/TestPlatform.h</title>
<polygon fill="white" stroke="none" points="-4,4 -4,-315 1215.5,-315 1215.5,4 -4,4"/>
<!-- Node1 -->
<g id="node1" class="node"><title>Node1</title>
<polygon fill="#bfbfbf" stroke="black" points="714.5,-280.5 714.5,-310.5 815.5,-310.5 815.5,-280.5 714.5,-280.5"/>
<text text-anchor="start" x="722.5" y="-298.5" font-family="Verdana" font-size="10.00">test/test&#45;platform</text>
<text text-anchor="middle" x="765" y="-287.5" font-family="Verdana" font-size="10.00">/TestPlatform.h</text>
</g>
<!-- Node2 -->
<g id="node2" class="node"><title>Node2</title>
<g id="a_node2"><a xlink:href="ParameterMgrPlatformConnector_8h.html" target="_top" xlink:title="ParameterMgrPlatformConnector.h">
<polygon fill="white" stroke="black" points="284.5,-168.5 284.5,-187.5 467.5,-187.5 467.5,-168.5 284.5,-168.5"/>
<text text-anchor="middle" x="376" y="-175.5" font-family="Verdana" font-size="10.00">ParameterMgrPlatformConnector.h</text>
</a>
</g>
</g>
<!-- Node1&#45;&gt;Node2 -->
<g id="edge1" class="edge"><title>Node1&#45;&gt;Node2</title>
<path fill="none" stroke="midnightblue" d="M717.69,-280.453C639.916,-257.361 486.526,-211.817 414.749,-190.505"/>
<polygon fill="midnightblue" stroke="midnightblue" points="415.353,-187.033 404.77,-187.542 413.36,-193.744 415.353,-187.033"/>
</g>
<!-- Node5 -->
<g id="node5" class="node"><title>Node5</title>
<polygon fill="white" stroke="#bfbfbf" points="650,-0.5 650,-19.5 694,-19.5 694,-0.5 650,-0.5"/>
<text text-anchor="middle" x="672" y="-7.5" font-family="Verdana" font-size="10.00">string</text>
</g>
<!-- Node1&#45;&gt;Node5 -->
<g id="edge38" class="edge"><title>Node1&#45;&gt;Node5</title>
<path fill="none" stroke="midnightblue" d="M714.214,-292.205C543.354,-283.817 0,-251.448 0,-179 0,-179 0,-179 0,-121 0,-52.3984 73.6958,-73.6048 140,-56 235.297,-30.6971 539.622,-16.3712 639.734,-12.2527"/>
<polygon fill="midnightblue" stroke="midnightblue" points="639.994,-15.7451 649.844,-11.8431 639.711,-8.75089 639.994,-15.7451"/>
</g>
<!-- Node11 -->
<g id="node11" class="node"><title>Node11</title>
<g id="a_node11"><a xlink:href="RemoteCommandHandlerTemplate_8h.html" target="_top" xlink:title="RemoteCommandHandlerTemplate.h">
<polygon fill="white" stroke="black" points="538,-168.5 538,-187.5 732,-187.5 732,-168.5 538,-168.5"/>
<text text-anchor="middle" x="635" y="-175.5" font-family="Verdana" font-size="10.00">RemoteCommandHandlerTemplate.h</text>
</a>
</g>
</g>
<!-- Node1&#45;&gt;Node11 -->
<g id="edge14" class="edge"><title>Node1&#45;&gt;Node11</title>
<path fill="none" stroke="midnightblue" d="M749.059,-280.337C724.572,-258.581 677.875,-217.093 652.488,-194.537"/>
<polygon fill="midnightblue" stroke="midnightblue" points="654.558,-191.695 644.758,-187.669 649.909,-196.928 654.558,-191.695"/>
</g>
<!-- Node14 -->
<g id="node14" class="node"><title>Node14</title>
<g id="a_node14"><a xlink:href="RemoteProcessorServer_8h.html" target="_top" xlink:title="RemoteProcessorServer.h">
<polygon fill="white" stroke="black" points="772,-224.5 772,-243.5 912,-243.5 912,-224.5 772,-224.5"/>
<text text-anchor="middle" x="842" y="-231.5" font-family="Verdana" font-size="10.00">RemoteProcessorServer.h</text>
</a>
</g>
</g>
<!-- Node1&#45;&gt;Node14 -->
<g id="edge21" class="edge"><title>Node1&#45;&gt;Node14</title>
<path fill="none" stroke="midnightblue" d="M783.248,-280.399C795.129,-271.218 810.607,-259.258 822.694,-249.918"/>
<polygon fill="midnightblue" stroke="midnightblue" points="825.023,-252.542 830.796,-243.658 820.743,-247.003 825.023,-252.542"/>
</g>
<!-- Node22 -->
<g id="node22" class="node"><title>Node22</title>
<polygon fill="white" stroke="#bfbfbf" points="930.5,-224.5 930.5,-243.5 989.5,-243.5 989.5,-224.5 930.5,-224.5"/>
<text text-anchor="middle" x="960" y="-231.5" font-family="Verdana" font-size="10.00">iostream</text>
</g>
<!-- Node1&#45;&gt;Node22 -->
<g id="edge39" class="edge"><title>Node1&#45;&gt;Node22</title>
<path fill="none" stroke="midnightblue" d="M811.212,-280.399C845.054,-270.073 890.42,-256.231 922.128,-246.556"/>
<polygon fill="midnightblue" stroke="midnightblue" points="923.367,-249.837 931.91,-243.571 921.324,-243.142 923.367,-249.837"/>
</g>
<!-- Node23 -->
<g id="node23" class="node"><title>Node23</title>
<polygon fill="white" stroke="#bfbfbf" points="1008,-224.5 1008,-243.5 1038,-243.5 1038,-224.5 1008,-224.5"/>
<text text-anchor="middle" x="1023" y="-231.5" font-family="Verdana" font-size="10.00">list</text>
</g>
<!-- Node1&#45;&gt;Node23 -->
<g id="edge40" class="edge"><title>Node1&#45;&gt;Node23</title>
<path fill="none" stroke="midnightblue" d="M815.93,-285.471C863.459,-276.574 936.135,-261.756 998,-244 998.1,-243.971 998.2,-243.943 998.3,-243.914"/>
<polygon fill="midnightblue" stroke="midnightblue" points="999.334,-247.258 1007.77,-240.845 997.176,-240.599 999.334,-247.258"/>
</g>
<!-- Node3 -->
<g id="node3" class="node"><title>Node3</title>
<polygon fill="white" stroke="#bfbfbf" points="379.5,-56.5 379.5,-75.5 492.5,-75.5 492.5,-56.5 379.5,-56.5"/>
<text text-anchor="middle" x="436" y="-63.5" font-family="Verdana" font-size="10.00">parameter_export.h</text>
</g>
<!-- Node2&#45;&gt;Node3 -->
<g id="edge2" class="edge"><title>Node2&#45;&gt;Node3</title>
<path fill="none" stroke="midnightblue" d="M383.231,-168.459C390.401,-159.706 401.389,-145.504 409,-132 417.521,-116.88 424.898,-98.5299 429.778,-85.1876"/>
<polygon fill="midnightblue" stroke="midnightblue" points="433.092,-86.3132 433.129,-75.7184 426.493,-83.9774 433.092,-86.3132"/>
</g>
<!-- Node4 -->
<g id="node4" class="node"><title>Node4</title>
<g id="a_node4"><a xlink:href="SelectionCriterionTypeInterface_8h.html" target="_top" xlink:title="SelectionCriterionTypeInterface.h">
<polygon fill="white" stroke="black" points="149.5,-56.5 149.5,-75.5 322.5,-75.5 322.5,-56.5 149.5,-56.5"/>
<text text-anchor="middle" x="236" y="-63.5" font-family="Verdana" font-size="10.00">SelectionCriterionTypeInterface.h</text>
</a>
</g>
</g>
<!-- Node2&#45;&gt;Node4 -->
<g id="edge3" class="edge"><title>Node2&#45;&gt;Node4</title>
<path fill="none" stroke="midnightblue" d="M284.288,-176.929C200.701,-174.678 85.9793,-165.354 57,-132 26.8787,-97.3314 82.1493,-81.1481 139.01,-73.5969"/>
<polygon fill="midnightblue" stroke="midnightblue" points="139.758,-77.0312 149.252,-72.328 138.897,-70.0843 139.758,-77.0312"/>
</g>
<!-- Node6 -->
<g id="node6" class="node"><title>Node6</title>
<g id="a_node6"><a xlink:href="SelectionCriterionInterface_8h.html" target="_top" xlink:title="SelectionCriterionInterface.h">
<polygon fill="white" stroke="black" points="248,-112.5 248,-131.5 400,-131.5 400,-112.5 248,-112.5"/>
<text text-anchor="middle" x="324" y="-119.5" font-family="Verdana" font-size="10.00">SelectionCriterionInterface.h</text>
</a>
</g>
</g>
<!-- Node2&#45;&gt;Node6 -->
<g id="edge5" class="edge"><title>Node2&#45;&gt;Node6</title>
<path fill="none" stroke="midnightblue" d="M367.413,-168.083C359.841,-160.22 348.622,-148.569 339.486,-139.081"/>
<polygon fill="midnightblue" stroke="midnightblue" points="341.885,-136.527 332.427,-131.751 336.842,-141.382 341.885,-136.527"/>
</g>
<!-- Node7 -->
<g id="node7" class="node"><title>Node7</title>
<g id="a_node7"><a xlink:href="ParameterHandle_8h.html" target="_top" xlink:title="ParameterHandle.h">
<polygon fill="white" stroke="black" points="456,-112.5 456,-131.5 566,-131.5 566,-112.5 456,-112.5"/>
<text text-anchor="middle" x="511" y="-119.5" font-family="Verdana" font-size="10.00">ParameterHandle.h</text>
</a>
</g>
</g>
<!-- Node2&#45;&gt;Node7 -->
<g id="edge8" class="edge"><title>Node2&#45;&gt;Node7</title>
<path fill="none" stroke="midnightblue" d="M397.391,-168.444C419.707,-159.517 454.903,-145.439 480.208,-135.317"/>
<polygon fill="midnightblue" stroke="midnightblue" points="481.724,-138.48 489.709,-131.516 479.124,-131.981 481.724,-138.48"/>
</g>
<!-- Node10 -->
<g id="node10" class="node"><title>Node10</title>
<g id="a_node10"><a xlink:href="ParameterMgrLoggerForward_8h.html" target="_top" xlink:title="ParameterMgrLoggerForward.h">
<polygon fill="white" stroke="black" points="66,-112.5 66,-131.5 230,-131.5 230,-112.5 66,-112.5"/>
<text text-anchor="middle" x="148" y="-119.5" font-family="Verdana" font-size="10.00">ParameterMgrLoggerForward.h</text>
</a>
</g>
</g>
<!-- Node2&#45;&gt;Node10 -->
<g id="edge13" class="edge"><title>Node2&#45;&gt;Node10</title>
<path fill="none" stroke="midnightblue" d="M339.873,-168.444C300.349,-159.083 236.903,-144.056 193.887,-133.868"/>
<polygon fill="midnightblue" stroke="midnightblue" points="194.496,-130.415 183.958,-131.516 192.882,-137.227 194.496,-130.415"/>
</g>
<!-- Node4&#45;&gt;Node5 -->
<g id="edge4" class="edge"><title>Node4&#45;&gt;Node5</title>
<path fill="none" stroke="midnightblue" d="M305.085,-56.4435C400.554,-44.6195 569.008,-23.7559 639.525,-15.0221"/>
<polygon fill="midnightblue" stroke="midnightblue" points="640.094,-18.4785 649.588,-13.7758 639.234,-11.5316 640.094,-18.4785"/>
</g>
<!-- Node6&#45;&gt;Node4 -->
<g id="edge7" class="edge"><title>Node6&#45;&gt;Node4</title>
<path fill="none" stroke="midnightblue" d="M309.861,-112.324C296.134,-103.9 275.064,-90.9709 258.936,-81.0741"/>
<polygon fill="midnightblue" stroke="midnightblue" points="260.457,-77.9016 250.104,-75.6545 256.796,-83.8678 260.457,-77.9016"/>
</g>
<!-- Node6&#45;&gt;Node5 -->
<g id="edge6" class="edge"><title>Node6&#45;&gt;Node5</title>
<path fill="none" stroke="midnightblue" d="M327.524,-112.1C333.739,-97.6803 348.097,-69.4715 370,-56 414.788,-28.4524 571.524,-16.5762 639.803,-12.6259"/>
<polygon fill="midnightblue" stroke="midnightblue" points="640.181,-16.1104 649.971,-12.0588 639.791,-9.12122 640.181,-16.1104"/>
</g>
<!-- Node7&#45;&gt;Node3 -->
<g id="edge9" class="edge"><title>Node7&#45;&gt;Node3</title>
<path fill="none" stroke="midnightblue" d="M498.95,-112.324C487.537,-104.107 470.169,-91.6017 456.565,-81.8069"/>
<polygon fill="midnightblue" stroke="midnightblue" points="458.43,-78.8366 448.269,-75.8339 454.34,-84.5174 458.43,-78.8366"/>
</g>
<!-- Node7&#45;&gt;Node5 -->
<g id="edge11" class="edge"><title>Node7&#45;&gt;Node5</title>
<path fill="none" stroke="midnightblue" d="M513.356,-112.112C517.48,-98.2178 527.301,-71.3576 545,-56 571.946,-32.6184 611.862,-21.1245 639.729,-15.6528"/>
<polygon fill="midnightblue" stroke="midnightblue" points="640.55,-19.0613 649.768,-13.8384 639.305,-12.1729 640.55,-19.0613"/>
</g>
<!-- Node8 -->
<g id="node8" class="node"><title>Node8</title>
<polygon fill="white" stroke="#bfbfbf" points="730.5,-0.5 730.5,-19.5 783.5,-19.5 783.5,-0.5 730.5,-0.5"/>
<text text-anchor="middle" x="757" y="-7.5" font-family="Verdana" font-size="10.00">stdint.h</text>
</g>
<!-- Node7&#45;&gt;Node8 -->
<g id="edge10" class="edge"><title>Node7&#45;&gt;Node8</title>
<path fill="none" stroke="midnightblue" d="M517.382,-112.369C528.23,-98.3357 551.667,-70.67 578,-56 602.217,-42.5091 675.466,-26.6984 720.406,-17.8663"/>
<polygon fill="midnightblue" stroke="midnightblue" points="721.207,-21.2763 730.356,-15.9338 719.872,-14.4047 721.207,-21.2763"/>
</g>
<!-- Node9 -->
<g id="node9" class="node"><title>Node9</title>
<polygon fill="white" stroke="#bfbfbf" points="587.5,-56.5 587.5,-75.5 634.5,-75.5 634.5,-56.5 587.5,-56.5"/>
<text text-anchor="middle" x="611" y="-63.5" font-family="Verdana" font-size="10.00">vector</text>
</g>
<!-- Node7&#45;&gt;Node9 -->
<g id="edge12" class="edge"><title>Node7&#45;&gt;Node9</title>
<path fill="none" stroke="midnightblue" d="M527.067,-112.324C542.958,-103.743 567.507,-90.486 585.958,-80.5224"/>
<polygon fill="midnightblue" stroke="midnightblue" points="587.837,-83.4857 594.973,-75.6545 584.511,-77.3264 587.837,-83.4857"/>
</g>
<!-- Node11&#45;&gt;Node9 -->
<g id="edge15" class="edge"><title>Node11&#45;&gt;Node9</title>
<path fill="none" stroke="midnightblue" d="M628.941,-168.179C623.325,-159.441 615.348,-145.452 612,-132 608.205,-116.753 608.242,-98.8659 609.065,-85.7195"/>
<polygon fill="midnightblue" stroke="midnightblue" points="612.568,-85.8297 609.915,-75.5725 605.593,-85.2456 612.568,-85.8297"/>
</g>
<!-- Node12 -->
<g id="node12" class="node"><title>Node12</title>
<g id="a_node12"><a xlink:href="RemoteCommandHandler_8h.html" target="_top" xlink:title="RemoteCommandHandler.h">
<polygon fill="white" stroke="black" points="621.5,-112.5 621.5,-131.5 770.5,-131.5 770.5,-112.5 621.5,-112.5"/>
<text text-anchor="middle" x="696" y="-119.5" font-family="Verdana" font-size="10.00">RemoteCommandHandler.h</text>
</a>
</g>
</g>
<!-- Node11&#45;&gt;Node12 -->
<g id="edge16" class="edge"><title>Node11&#45;&gt;Node12</title>
<path fill="none" stroke="midnightblue" d="M644.801,-168.324C653.818,-160.341 667.406,-148.313 678.318,-138.653"/>
<polygon fill="midnightblue" stroke="midnightblue" points="680.853,-141.083 686.021,-131.834 676.213,-135.842 680.853,-141.083"/>
</g>
<!-- Node12&#45;&gt;Node5 -->
<g id="edge20" class="edge"><title>Node12&#45;&gt;Node5</title>
<path fill="none" stroke="midnightblue" d="M694.117,-112.368C690.244,-94.617 681.309,-53.6664 676.058,-29.5974"/>
<polygon fill="midnightblue" stroke="midnightblue" points="679.426,-28.6155 673.874,-19.5914 672.587,-30.1077 679.426,-28.6155"/>
</g>
<!-- Node13 -->
<g id="node13" class="node"><title>Node13</title>
<g id="a_node13"><a xlink:href="RemoteCommand_8h.html" target="_top" xlink:title="RemoteCommand.h">
<polygon fill="white" stroke="black" points="738.5,-56.5 738.5,-75.5 851.5,-75.5 851.5,-56.5 738.5,-56.5"/>
<text text-anchor="middle" x="795" y="-63.5" font-family="Verdana" font-size="10.00">RemoteCommand.h</text>
</a>
</g>
</g>
<!-- Node12&#45;&gt;Node13 -->
<g id="edge17" class="edge"><title>Node12&#45;&gt;Node13</title>
<path fill="none" stroke="midnightblue" d="M711.906,-112.324C727.638,-103.743 751.942,-90.486 770.209,-80.5224"/>
<polygon fill="midnightblue" stroke="midnightblue" points="772.03,-83.5157 779.133,-75.6545 768.678,-77.3704 772.03,-83.5157"/>
</g>
<!-- Node13&#45;&gt;Node5 -->
<g id="edge19" class="edge"><title>Node13&#45;&gt;Node5</title>
<path fill="none" stroke="midnightblue" d="M775.51,-56.4435C755.358,-47.5961 723.677,-33.6875 700.669,-23.5865"/>
<polygon fill="midnightblue" stroke="midnightblue" points="701.962,-20.3316 691.399,-19.5164 699.148,-26.7411 701.962,-20.3316"/>
</g>
<!-- Node13&#45;&gt;Node8 -->
<g id="edge18" class="edge"><title>Node13&#45;&gt;Node8</title>
<path fill="none" stroke="midnightblue" d="M788.725,-56.083C783.358,-48.4554 775.482,-37.2645 768.921,-27.9408"/>
<polygon fill="midnightblue" stroke="midnightblue" points="771.775,-25.9149 763.158,-19.7511 766.051,-29.9434 771.775,-25.9149"/>
</g>
<!-- Node14&#45;&gt;Node8 -->
<g id="edge23" class="edge"><title>Node14&#45;&gt;Node8</title>
<path fill="none" stroke="midnightblue" d="M886.696,-224.476C907.226,-218.086 929.699,-207.025 942,-188 960.34,-159.635 955.59,-142.923 942,-112 927.193,-78.3068 912.464,-75.0922 881,-56 865.939,-46.8609 824.195,-32.4539 793.28,-22.4114"/>
<polygon fill="midnightblue" stroke="midnightblue" points="794.262,-19.0507 783.67,-19.3165 792.116,-25.7137 794.262,-19.0507"/>
</g>
<!-- Node15 -->
<g id="node15" class="node"><title>Node15</title>
<polygon fill="white" stroke="#bfbfbf" points="987.5,-0.5 987.5,-19.5 1136.5,-19.5 1136.5,-0.5 987.5,-0.5"/>
<text text-anchor="middle" x="1062" y="-7.5" font-family="Verdana" font-size="10.00">remote_processor_export.h</text>
</g>
<!-- Node14&#45;&gt;Node15 -->
<g id="edge22" class="edge"><title>Node14&#45;&gt;Node15</title>
<path fill="none" stroke="midnightblue" d="M880.065,-224.457C904.853,-217.554 936.934,-205.977 961,-188 1011.06,-150.603 1019.09,-132.397 1046,-76 1053.04,-61.2507 1057.17,-43.0918 1059.47,-29.7198"/>
<polygon fill="midnightblue" stroke="midnightblue" points="1062.93,-30.2077 1060.99,-19.7931 1056.02,-29.148 1062.93,-30.2077"/>
</g>
<!-- Node16 -->
<g id="node16" class="node"><title>Node16</title>
<g id="a_node16"><a xlink:href="RemoteProcessorServerInterface_8h.html" target="_top" xlink:title="RemoteProcessorServerInterface.h">
<polygon fill="white" stroke="black" points="750.5,-168.5 750.5,-187.5 933.5,-187.5 933.5,-168.5 750.5,-168.5"/>
<text text-anchor="middle" x="842" y="-175.5" font-family="Verdana" font-size="10.00">RemoteProcessorServerInterface.h</text>
</a>
</g>
</g>
<!-- Node14&#45;&gt;Node16 -->
<g id="edge24" class="edge"><title>Node14&#45;&gt;Node16</title>
<path fill="none" stroke="midnightblue" d="M842,-224.083C842,-217.006 842,-206.861 842,-197.986"/>
<polygon fill="midnightblue" stroke="midnightblue" points="845.5,-197.751 842,-187.751 838.5,-197.751 845.5,-197.751"/>
</g>
<!-- Node20 -->
<g id="node20" class="node"><title>Node20</title>
<polygon fill="white" stroke="#bfbfbf" points="1154.5,-0.5 1154.5,-19.5 1211.5,-19.5 1211.5,-0.5 1154.5,-0.5"/>
<text text-anchor="middle" x="1183" y="-7.5" font-family="Verdana" font-size="10.00">asio.hpp</text>
</g>
<!-- Node14&#45;&gt;Node20 -->
<g id="edge37" class="edge"><title>Node14&#45;&gt;Node20</title>
<path fill="none" stroke="midnightblue" d="M887.177,-224.457C917.125,-217.53 956.545,-205.927 988,-188 1066.36,-143.338 1139.75,-62.3965 1169.3,-27.6153"/>
<polygon fill="midnightblue" stroke="midnightblue" points="1172.09,-29.7277 1175.84,-19.8173 1166.73,-25.2284 1172.09,-29.7277"/>
</g>
<!-- Node16&#45;&gt;Node5 -->
<g id="edge36" class="edge"><title>Node16&#45;&gt;Node5</title>
<path fill="none" stroke="midnightblue" d="M834.299,-168.105C822.856,-155.115 800.406,-130.493 779,-112 758.279,-94.0985 749.268,-94.4124 729,-76 712.414,-60.9327 695.787,-41.3324 684.808,-27.6108"/>
<polygon fill="midnightblue" stroke="midnightblue" points="687.4,-25.2448 678.466,-19.5495 681.899,-29.573 687.4,-25.2448"/>
</g>
<!-- Node17 -->
<g id="node17" class="node"><title>Node17</title>
<g id="a_node17"><a xlink:href="RequestMessage_8h.html" target="_top" xlink:title="RequestMessage.h">
<polygon fill="white" stroke="black" points="826.5,-112.5 826.5,-131.5 933.5,-131.5 933.5,-112.5 826.5,-112.5"/>
<text text-anchor="middle" x="880" y="-119.5" font-family="Verdana" font-size="10.00">RequestMessage.h</text>
</a>
</g>
</g>
<!-- Node16&#45;&gt;Node17 -->
<g id="edge25" class="edge"><title>Node16&#45;&gt;Node17</title>
<path fill="none" stroke="midnightblue" d="M848.275,-168.083C853.642,-160.455 861.518,-149.264 868.079,-139.941"/>
<polygon fill="midnightblue" stroke="midnightblue" points="870.949,-141.943 873.842,-131.751 865.225,-137.915 870.949,-141.943"/>
</g>
<!-- Node17&#45;&gt;Node5 -->
<g id="edge35" class="edge"><title>Node17&#45;&gt;Node5</title>
<path fill="none" stroke="midnightblue" d="M879.924,-112.449C879.316,-98.5311 876.014,-71.0273 860,-56 848.662,-45.3604 755.221,-26.5434 704.488,-16.9637"/>
<polygon fill="midnightblue" stroke="midnightblue" points="704.828,-13.4667 694.355,-15.066 703.54,-20.3471 704.828,-13.4667"/>
</g>
<!-- Node17&#45;&gt;Node9 -->
<g id="edge34" class="edge"><title>Node17&#45;&gt;Node9</title>
<path fill="none" stroke="midnightblue" d="M837.376,-112.444C783.963,-101.721 693.52,-83.5653 644.686,-73.7621"/>
<polygon fill="midnightblue" stroke="midnightblue" points="645.132,-70.2821 634.639,-71.7454 643.754,-77.1452 645.132,-70.2821"/>
</g>
<!-- Node17&#45;&gt;Node13 -->
<g id="edge33" class="edge"><title>Node17&#45;&gt;Node13</title>
<path fill="none" stroke="midnightblue" d="M866.343,-112.324C853.084,-103.9 832.732,-90.9709 817.154,-81.0741"/>
<polygon fill="midnightblue" stroke="midnightblue" points="818.94,-78.0626 808.623,-75.6545 815.187,-83.9711 818.94,-78.0626"/>
</g>
<!-- Node17&#45;&gt;Node15 -->
<g id="edge26" class="edge"><title>Node17&#45;&gt;Node15</title>
<path fill="none" stroke="midnightblue" d="M933.598,-113.606C962.481,-107.432 997.35,-96.2227 1023,-76 1038.47,-63.8051 1049.18,-43.6514 1055.41,-29.0137"/>
<polygon fill="midnightblue" stroke="midnightblue" points="1058.74,-30.1093 1059.16,-19.5227 1052.23,-27.538 1058.74,-30.1093"/>
</g>
<!-- Node18 -->
<g id="node18" class="node"><title>Node18</title>
<g id="a_node18"><a xlink:href="Message_8h.html" target="_top" xlink:title="Message.h">
<polygon fill="white" stroke="black" points="946,-56.5 946,-75.5 1014,-75.5 1014,-56.5 946,-56.5"/>
<text text-anchor="middle" x="980" y="-63.5" font-family="Verdana" font-size="10.00">Message.h</text>
</a>
</g>
</g>
<!-- Node17&#45;&gt;Node18 -->
<g id="edge27" class="edge"><title>Node17&#45;&gt;Node18</title>
<path fill="none" stroke="midnightblue" d="M896.067,-112.324C911.958,-103.743 936.507,-90.486 954.958,-80.5224"/>
<polygon fill="midnightblue" stroke="midnightblue" points="956.837,-83.4857 963.973,-75.6545 953.511,-77.3264 956.837,-83.4857"/>
</g>
<!-- Node18&#45;&gt;Node5 -->
<g id="edge30" class="edge"><title>Node18&#45;&gt;Node5</title>
<path fill="none" stroke="midnightblue" d="M945.627,-59.1362C896.004,-50.6461 801.42,-34.3714 721,-20 715.708,-19.0543 710.097,-18.0372 704.634,-17.0392"/>
<polygon fill="midnightblue" stroke="midnightblue" points="704.901,-13.5299 694.434,-15.1673 703.638,-20.4149 704.901,-13.5299"/>
</g>
<!-- Node18&#45;&gt;Node15 -->
<g id="edge32" class="edge"><title>Node18&#45;&gt;Node15</title>
<path fill="none" stroke="midnightblue" d="M993.175,-56.324C1005.85,-47.979 1025.23,-35.2122 1040.21,-25.3524"/>
<polygon fill="midnightblue" stroke="midnightblue" points="1042.43,-28.0776 1048.86,-19.6545 1038.58,-22.2313 1042.43,-28.0776"/>
</g>
<!-- Node19 -->
<g id="node19" class="node"><title>Node19</title>
<g id="a_node19"><a xlink:href="NonCopyable_8hpp.html" target="_top" xlink:title="NonCopyable.hpp">
<polygon fill="white" stroke="black" points="868.5,-0.5 868.5,-19.5 969.5,-19.5 969.5,-0.5 868.5,-0.5"/>
<text text-anchor="middle" x="919" y="-7.5" font-family="Verdana" font-size="10.00">NonCopyable.hpp</text>
</a>
</g>
</g>
<!-- Node18&#45;&gt;Node19 -->
<g id="edge28" class="edge"><title>Node18&#45;&gt;Node19</title>
<path fill="none" stroke="midnightblue" d="M970.199,-56.324C961.182,-48.3414 947.594,-36.3128 936.682,-26.6529"/>
<polygon fill="midnightblue" stroke="midnightblue" points="938.787,-23.8416 928.979,-19.8339 934.147,-29.083 938.787,-23.8416"/>
</g>
<!-- Node18&#45;&gt;Node20 -->
<g id="edge29" class="edge"><title>Node18&#45;&gt;Node20</title>
<path fill="none" stroke="midnightblue" d="M1012.17,-56.4435C1048.09,-46.8886 1106.2,-31.4308 1144.5,-21.2409"/>
<polygon fill="midnightblue" stroke="midnightblue" points="1145.5,-24.5965 1154.27,-18.6433 1143.7,-17.8317 1145.5,-24.5965"/>
</g>
<!-- Node21 -->
<g id="node21" class="node"><title>Node21</title>
<polygon fill="white" stroke="#bfbfbf" points="801.5,-0.5 801.5,-19.5 850.5,-19.5 850.5,-0.5 801.5,-0.5"/>
<text text-anchor="middle" x="826" y="-7.5" font-family="Verdana" font-size="10.00">cstdint</text>
</g>
<!-- Node18&#45;&gt;Node21 -->
<g id="edge31" class="edge"><title>Node18&#45;&gt;Node21</title>
<path fill="none" stroke="midnightblue" d="M955.598,-56.4435C929.803,-47.3986 888.923,-33.064 859.982,-22.9158"/>
<polygon fill="midnightblue" stroke="midnightblue" points="860.882,-19.5226 850.288,-19.5164 858.566,-26.1283 860.882,-19.5226"/>
</g>
</g>
</svg>
