<?xml version="1.0" encoding="UTF-8" standalone="no"?>
<!DOCTYPE svg PUBLIC "-//W3C//DTD SVG 1.1//EN"
 "http://www.w3.org/Graphics/SVG/1.1/DTD/svg11.dtd">
<!-- Generated by graphviz version 2.38.0 (20140413.2041)
 -->
<!-- Title: parameter/TypeElement.h Pages: 1 -->
<svg width="501pt" height="252pt"
 viewBox="0.00 0.00 501.11 252.00" xmlns="http://www.w3.org/2000/svg" xmlns:xlink="http://www.w3.org/1999/xlink">
<g id="graph0" class="graph" transform="scale(1 1) rotate(0) translate(4 248)">
<title>parameter/TypeElement.h</title>
<polygon fill="white" stroke="none" points="-4,4 -4,-248 497.113,-248 497.113,4 -4,4"/>
<!-- Node1 -->
<g id="node1" class="node"><title>Node1</title>
<polygon fill="#bfbfbf" stroke="black" points="326,-224.5 326,-243.5 466,-243.5 466,-224.5 326,-224.5"/>
<text text-anchor="middle" x="396" y="-231.5" font-family="Verdana" font-size="10.00">parameter/TypeElement.h</text>
</g>
<!-- Node2 -->
<g id="node2" class="node"><title>Node2</title>
<g id="a_node2"><a xlink:href="Element_8h.html" target="_top" xlink:title="Element.h">
<polygon fill="white" stroke="black" points="205.5,-168.5 205.5,-187.5 270.5,-187.5 270.5,-168.5 205.5,-168.5"/>
<text text-anchor="middle" x="238" y="-175.5" font-family="Verdana" font-size="10.00">Element.h</text>
</a>
</g>
</g>
<!-- Node1&#45;&gt;Node2 -->
<g id="edge1" class="edge"><title>Node1&#45;&gt;Node2</title>
<path fill="none" stroke="midnightblue" d="M370.964,-224.444C344.384,-215.359 302.191,-200.939 272.477,-190.783"/>
<polygon fill="midnightblue" stroke="midnightblue" points="273.513,-187.439 262.918,-187.516 271.249,-194.062 273.513,-187.439"/>
</g>
<!-- Node3 -->
<g id="node3" class="node"><title>Node3</title>
<polygon fill="white" stroke="#bfbfbf" points="372,-0.5 372,-19.5 416,-19.5 416,-0.5 372,-0.5"/>
<text text-anchor="middle" x="394" y="-7.5" font-family="Verdana" font-size="10.00">string</text>
</g>
<!-- Node1&#45;&gt;Node3 -->
<g id="edge19" class="edge"><title>Node1&#45;&gt;Node3</title>
<path fill="none" stroke="midnightblue" d="M406.628,-224.22C437.203,-197.879 520.845,-117.543 483,-56 470.586,-35.8127 446.004,-24.3483 425.815,-18.05"/>
<polygon fill="midnightblue" stroke="midnightblue" points="426.613,-14.6385 416.038,-15.2829 424.707,-21.3739 426.613,-14.6385"/>
</g>
<!-- Node2&#45;&gt;Node3 -->
<g id="edge2" class="edge"><title>Node2&#45;&gt;Node3</title>
<path fill="none" stroke="midnightblue" d="M270.515,-175.278C325.54,-170.307 434.324,-150.992 468,-76 478.698,-52.1763 450.294,-33.6438 425.635,-22.5685"/>
<polygon fill="midnightblue" stroke="midnightblue" points="426.688,-19.2142 416.114,-18.5572 423.971,-25.6651 426.688,-19.2142"/>
</g>
<!-- Node4 -->
<g id="node4" class="node"><title>Node4</title>
<polygon fill="white" stroke="#bfbfbf" points="162.5,-56.5 162.5,-75.5 209.5,-75.5 209.5,-56.5 162.5,-56.5"/>
<text text-anchor="middle" x="186" y="-63.5" font-family="Verdana" font-size="10.00">vector</text>
</g>
<!-- Node2&#45;&gt;Node4 -->
<g id="edge3" class="edge"><title>Node2&#45;&gt;Node4</title>
<path fill="none" stroke="midnightblue" d="M233.92,-168.368C225.452,-150.456 205.818,-108.923 194.485,-84.9482"/>
<polygon fill="midnightblue" stroke="midnightblue" points="197.5,-83.1363 190.061,-75.5914 191.171,-86.128 197.5,-83.1363"/>
</g>
<!-- Node5 -->
<g id="node5" class="node"><title>Node5</title>
<polygon fill="white" stroke="#bfbfbf" points="69.5,-0.5 69.5,-19.5 122.5,-19.5 122.5,-0.5 69.5,-0.5"/>
<text text-anchor="middle" x="96" y="-7.5" font-family="Verdana" font-size="10.00">stdint.h</text>
</g>
<!-- Node2&#45;&gt;Node5 -->
<g id="edge4" class="edge"><title>Node2&#45;&gt;Node5</title>
<path fill="none" stroke="midnightblue" d="M205.226,-172.406C163.276,-165.777 94.1848,-152.079 79,-132 55.9559,-101.529 73.7477,-54.0472 86.3246,-28.5687"/>
<polygon fill="midnightblue" stroke="midnightblue" points="89.4402,-30.1635 90.9497,-19.6767 83.23,-26.9333 89.4402,-30.1635"/>
</g>
<!-- Node6 -->
<g id="node6" class="node"><title>Node6</title>
<polygon fill="white" stroke="#bfbfbf" points="0,-112.5 0,-131.5 30,-131.5 30,-112.5 0,-112.5"/>
<text text-anchor="middle" x="15" y="-119.5" font-family="Verdana" font-size="10.00">list</text>
</g>
<!-- Node2&#45;&gt;Node6 -->
<g id="edge5" class="edge"><title>Node2&#45;&gt;Node6</title>
<path fill="none" stroke="midnightblue" d="M205.209,-170.159C166.488,-161.904 100.234,-147.226 44,-132 42.7406,-131.659 41.4537,-131.3 40.1563,-130.929"/>
<polygon fill="midnightblue" stroke="midnightblue" points="40.8742,-127.491 30.2904,-127.974 38.8657,-134.196 40.8742,-127.491"/>
</g>
<!-- Node7 -->
<g id="node7" class="node"><title>Node7</title>
<g id="a_node7"><a xlink:href="XmlSink_8h.html" target="_top" xlink:title="XmlSink.h">
<polygon fill="white" stroke="black" points="236,-112.5 236,-131.5 300,-131.5 300,-112.5 236,-112.5"/>
<text text-anchor="middle" x="268" y="-119.5" font-family="Verdana" font-size="10.00">XmlSink.h</text>
</a>
</g>
</g>
<!-- Node2&#45;&gt;Node7 -->
<g id="edge6" class="edge"><title>Node2&#45;&gt;Node7</title>
<path fill="none" stroke="midnightblue" d="M242.954,-168.083C247.104,-160.613 253.153,-149.724 258.267,-140.52"/>
<polygon fill="midnightblue" stroke="midnightblue" points="261.341,-142.192 263.138,-131.751 255.222,-138.793 261.341,-142.192"/>
</g>
<!-- Node10 -->
<g id="node10" class="node"><title>Node10</title>
<g id="a_node10"><a xlink:href="XmlSource_8h.html" target="_top" xlink:title="XmlSource.h">
<polygon fill="white" stroke="black" points="318.5,-112.5 318.5,-131.5 395.5,-131.5 395.5,-112.5 318.5,-112.5"/>
<text text-anchor="middle" x="357" y="-119.5" font-family="Verdana" font-size="10.00">XmlSource.h</text>
</a>
</g>
</g>
<!-- Node2&#45;&gt;Node10 -->
<g id="edge12" class="edge"><title>Node2&#45;&gt;Node10</title>
<path fill="none" stroke="midnightblue" d="M256.856,-168.444C276.266,-159.636 306.73,-145.812 328.965,-135.722"/>
<polygon fill="midnightblue" stroke="midnightblue" points="330.572,-138.836 338.232,-131.516 327.68,-132.462 330.572,-138.836"/>
</g>
<!-- Node11 -->
<g id="node11" class="node"><title>Node11</title>
<g id="a_node11"><a xlink:href="PathNavigator_8h.html" target="_top" xlink:title="PathNavigator.h">
<polygon fill="white" stroke="black" points="88,-112.5 88,-131.5 180,-131.5 180,-112.5 88,-112.5"/>
<text text-anchor="middle" x="134" y="-119.5" font-family="Verdana" font-size="10.00">PathNavigator.h</text>
</a>
</g>
</g>
<!-- Node2&#45;&gt;Node11 -->
<g id="edge15" class="edge"><title>Node2&#45;&gt;Node11</title>
<path fill="none" stroke="midnightblue" d="M221.291,-168.324C204.688,-159.703 178.998,-146.364 159.78,-136.386"/>
<polygon fill="midnightblue" stroke="midnightblue" points="161.156,-133.156 150.668,-131.655 157.93,-139.369 161.156,-133.156"/>
</g>
<!-- Node8 -->
<g id="node8" class="node"><title>Node8</title>
<g id="a_node8"><a xlink:href="XmlElement_8h.html" target="_top" xlink:title="XmlElement.h">
<polygon fill="white" stroke="black" points="227.5,-56.5 227.5,-75.5 310.5,-75.5 310.5,-56.5 227.5,-56.5"/>
<text text-anchor="middle" x="269" y="-63.5" font-family="Verdana" font-size="10.00">XmlElement.h</text>
</a>
</g>
</g>
<!-- Node7&#45;&gt;Node8 -->
<g id="edge7" class="edge"><title>Node7&#45;&gt;Node8</title>
<path fill="none" stroke="midnightblue" d="M268.165,-112.083C268.296,-105.006 268.484,-94.8611 268.648,-85.9865"/>
<polygon fill="midnightblue" stroke="midnightblue" points="272.152,-85.8142 268.838,-75.7511 265.153,-85.6845 272.152,-85.8142"/>
</g>
<!-- Node9 -->
<g id="node9" class="node"><title>Node9</title>
<g id="a_node9"><a xlink:href="XmlSerializingContext_8h.html" target="_top" xlink:title="XmlSerializingContext.h">
<polygon fill="white" stroke="black" points="329,-56.5 329,-75.5 459,-75.5 459,-56.5 329,-56.5"/>
<text text-anchor="middle" x="394" y="-63.5" font-family="Verdana" font-size="10.00">XmlSerializingContext.h</text>
</a>
</g>
</g>
<!-- Node7&#45;&gt;Node9 -->
<g id="edge10" class="edge"><title>Node7&#45;&gt;Node9</title>
<path fill="none" stroke="midnightblue" d="M287.965,-112.444C308.609,-103.596 341.063,-89.6875 364.632,-79.5865"/>
<polygon fill="midnightblue" stroke="midnightblue" points="366.316,-82.6727 374.128,-75.5164 363.558,-76.2387 366.316,-82.6727"/>
</g>
<!-- Node8&#45;&gt;Node3 -->
<g id="edge9" class="edge"><title>Node8&#45;&gt;Node3</title>
<path fill="none" stroke="midnightblue" d="M288.807,-56.4435C309.287,-47.5961 341.483,-33.6875 364.865,-23.5865"/>
<polygon fill="midnightblue" stroke="midnightblue" points="366.494,-26.6953 374.286,-19.5164 363.718,-20.2692 366.494,-26.6953"/>
</g>
<!-- Node8&#45;&gt;Node5 -->
<g id="edge8" class="edge"><title>Node8&#45;&gt;Node5</title>
<path fill="none" stroke="midnightblue" d="M241.588,-56.4435C212.058,-47.2262 164.93,-32.5157 132.331,-22.3402"/>
<polygon fill="midnightblue" stroke="midnightblue" points="133.304,-18.9776 122.716,-19.339 131.219,-25.6597 133.304,-18.9776"/>
</g>
<!-- Node9&#45;&gt;Node3 -->
<g id="edge11" class="edge"><title>Node9&#45;&gt;Node3</title>
<path fill="none" stroke="midnightblue" d="M394,-56.083C394,-49.0059 394,-38.8611 394,-29.9865"/>
<polygon fill="midnightblue" stroke="midnightblue" points="397.5,-29.751 394,-19.7511 390.5,-29.7511 397.5,-29.751"/>
</g>
<!-- Node10&#45;&gt;Node8 -->
<g id="edge13" class="edge"><title>Node10&#45;&gt;Node8</title>
<path fill="none" stroke="midnightblue" d="M342.861,-112.324C329.134,-103.9 308.064,-90.9709 291.936,-81.0741"/>
<polygon fill="midnightblue" stroke="midnightblue" points="293.457,-77.9016 283.104,-75.6545 289.796,-83.8678 293.457,-77.9016"/>
</g>
<!-- Node10&#45;&gt;Node9 -->
<g id="edge14" class="edge"><title>Node10&#45;&gt;Node9</title>
<path fill="none" stroke="midnightblue" d="M363.11,-112.083C368.282,-104.534 375.846,-93.4948 382.194,-84.2298"/>
<polygon fill="midnightblue" stroke="midnightblue" points="385.239,-85.9787 388.004,-75.7511 379.464,-82.0221 385.239,-85.9787"/>
</g>
<!-- Node11&#45;&gt;Node3 -->
<g id="edge17" class="edge"><title>Node11&#45;&gt;Node3</title>
<path fill="none" stroke="midnightblue" d="M133.848,-112.369C134.103,-98.3371 136.785,-70.6725 153,-56 183.231,-28.6445 303.18,-17.0308 361.638,-12.9179"/>
<polygon fill="midnightblue" stroke="midnightblue" points="362.059,-16.3976 371.802,-12.2352 361.59,-9.41335 362.059,-16.3976"/>
</g>
<!-- Node11&#45;&gt;Node4 -->
<g id="edge16" class="edge"><title>Node11&#45;&gt;Node4</title>
<path fill="none" stroke="midnightblue" d="M142.587,-112.083C150.159,-104.22 161.378,-92.5688 170.514,-83.0813"/>
<polygon fill="midnightblue" stroke="midnightblue" points="173.158,-85.3821 177.573,-75.7511 168.115,-80.5266 173.158,-85.3821"/>
</g>
<!-- Node11&#45;&gt;Node5 -->
<g id="edge18" class="edge"><title>Node11&#45;&gt;Node5</title>
<path fill="none" stroke="midnightblue" d="M131.018,-112.368C124.858,-94.5366 110.611,-53.2953 102.312,-29.2717"/>
<polygon fill="midnightblue" stroke="midnightblue" points="105.541,-27.9005 98.9679,-19.5914 98.925,-30.1862 105.541,-27.9005"/>
</g>
</g>
</svg>
