<?xml version="1.0" encoding="UTF-8" standalone="no"?>
<!DOCTYPE svg PUBLIC "-//W3C//DTD SVG 1.1//EN"
 "http://www.w3.org/Graphics/SVG/1.1/DTD/svg11.dtd">
<!-- Generated by graphviz version 2.38.0 (20140413.2041)
 -->
<!-- Title: utility/Utility.cpp Pages: 1 -->
<svg width="414pt" height="140pt"
 viewBox="0.00 0.00 414.00 140.00" xmlns="http://www.w3.org/2000/svg" xmlns:xlink="http://www.w3.org/1999/xlink">
<g id="graph0" class="graph" transform="scale(1 1) rotate(0) translate(4 136)">
<title>utility/Utility.cpp</title>
<polygon fill="white" stroke="none" points="-4,4 -4,-136 410,-136 410,4 -4,4"/>
<!-- Node1 -->
<g id="node1" class="node"><title>Node1</title>
<polygon fill="#bfbfbf" stroke="black" points="227.5,-112.5 227.5,-131.5 318.5,-131.5 318.5,-112.5 227.5,-112.5"/>
<text text-anchor="middle" x="273" y="-119.5" font-family="Verdana" font-size="10.00">utility/Utility.cpp</text>
</g>
<!-- Node2 -->
<g id="node2" class="node"><title>Node2</title>
<g id="a_node2"><a xlink:href="Utility_8h.html" target="_top" xlink:title="Utility.h">
<polygon fill="white" stroke="black" points="124.5,-56.5 124.5,-75.5 175.5,-75.5 175.5,-56.5 124.5,-56.5"/>
<text text-anchor="middle" x="150" y="-63.5" font-family="Verdana" font-size="10.00">Utility.h</text>
</a>
</g>
</g>
<!-- Node1&#45;&gt;Node2 -->
<g id="edge1" class="edge"><title>Node1&#45;&gt;Node2</title>
<path fill="none" stroke="midnightblue" d="M253.51,-112.444C233.358,-103.596 201.677,-89.6875 178.669,-79.5865"/>
<polygon fill="midnightblue" stroke="midnightblue" points="179.962,-76.3316 169.399,-75.5164 177.148,-82.7411 179.962,-76.3316"/>
</g>
<!-- Node6 -->
<g id="node6" class="node"><title>Node6</title>
<polygon fill="white" stroke="#bfbfbf" points="240,-0.5 240,-19.5 296,-19.5 296,-0.5 240,-0.5"/>
<text text-anchor="middle" x="268" y="-7.5" font-family="Verdana" font-size="10.00">sstream</text>
</g>
<!-- Node1&#45;&gt;Node6 -->
<g id="edge7" class="edge"><title>Node1&#45;&gt;Node6</title>
<path fill="none" stroke="midnightblue" d="M271.013,-112.433C269.033,-103.424 266.129,-88.805 265,-76 263.634,-60.5077 264.604,-42.8798 265.794,-29.8938"/>
<polygon fill="midnightblue" stroke="midnightblue" points="269.285,-30.1563 266.842,-19.8471 262.323,-29.4298 269.285,-30.1563"/>
</g>
<!-- Node8 -->
<g id="node8" class="node"><title>Node8</title>
<polygon fill="white" stroke="#bfbfbf" points="274,-56.5 274,-75.5 326,-75.5 326,-56.5 274,-56.5"/>
<text text-anchor="middle" x="300" y="-63.5" font-family="Verdana" font-size="10.00">iterator</text>
</g>
<!-- Node1&#45;&gt;Node8 -->
<g id="edge8" class="edge"><title>Node1&#45;&gt;Node8</title>
<path fill="none" stroke="midnightblue" d="M277.459,-112.083C281.154,-104.691 286.523,-93.9533 291.094,-84.8111"/>
<polygon fill="midnightblue" stroke="midnightblue" points="294.283,-86.2606 295.624,-75.7511 288.022,-83.1301 294.283,-86.2606"/>
</g>
<!-- Node9 -->
<g id="node9" class="node"><title>Node9</title>
<polygon fill="white" stroke="#bfbfbf" points="344,-56.5 344,-75.5 406,-75.5 406,-56.5 344,-56.5"/>
<text text-anchor="middle" x="375" y="-63.5" font-family="Verdana" font-size="10.00">algorithm</text>
</g>
<!-- Node1&#45;&gt;Node9 -->
<g id="edge9" class="edge"><title>Node1&#45;&gt;Node9</title>
<path fill="none" stroke="midnightblue" d="M289.388,-112.324C305.671,-103.703 330.867,-90.3643 349.716,-80.3855"/>
<polygon fill="midnightblue" stroke="midnightblue" points="351.452,-83.4267 358.653,-75.6545 348.177,-77.2402 351.452,-83.4267"/>
</g>
<!-- Node3 -->
<g id="node3" class="node"><title>Node3</title>
<polygon fill="white" stroke="#bfbfbf" points="0,-0.5 0,-19.5 44,-19.5 44,-0.5 0,-0.5"/>
<text text-anchor="middle" x="22" y="-7.5" font-family="Verdana" font-size="10.00">string</text>
</g>
<!-- Node2&#45;&gt;Node3 -->
<g id="edge2" class="edge"><title>Node2&#45;&gt;Node3</title>
<path fill="none" stroke="midnightblue" d="M129.718,-56.4435C108.653,-47.5566 75.4832,-33.5632 51.5145,-23.4514"/>
<polygon fill="midnightblue" stroke="midnightblue" points="52.7612,-20.1787 42.1871,-19.5164 50.0403,-26.6283 52.7612,-20.1787"/>
</g>
<!-- Node4 -->
<g id="node4" class="node"><title>Node4</title>
<polygon fill="white" stroke="#bfbfbf" points="62,-0.5 62,-19.5 92,-19.5 92,-0.5 62,-0.5"/>
<text text-anchor="middle" x="77" y="-7.5" font-family="Verdana" font-size="10.00">list</text>
</g>
<!-- Node2&#45;&gt;Node4 -->
<g id="edge3" class="edge"><title>Node2&#45;&gt;Node4</title>
<path fill="none" stroke="midnightblue" d="M138.271,-56.324C127.163,-48.1066 110.258,-35.6017 97.0167,-25.8069"/>
<polygon fill="midnightblue" stroke="midnightblue" points="99.0631,-22.9671 88.9421,-19.8339 94.9001,-28.5948 99.0631,-22.9671"/>
</g>
<!-- Node5 -->
<g id="node5" class="node"><title>Node5</title>
<polygon fill="white" stroke="#bfbfbf" points="110,-0.5 110,-19.5 148,-19.5 148,-0.5 110,-0.5"/>
<text text-anchor="middle" x="129" y="-7.5" font-family="Verdana" font-size="10.00">map</text>
</g>
<!-- Node2&#45;&gt;Node5 -->
<g id="edge4" class="edge"><title>Node2&#45;&gt;Node5</title>
<path fill="none" stroke="midnightblue" d="M146.532,-56.083C143.688,-48.77 139.571,-38.1814 136.04,-29.1034"/>
<polygon fill="midnightblue" stroke="midnightblue" points="139.29,-27.8025 132.403,-19.7511 132.766,-30.3397 139.29,-27.8025"/>
</g>
<!-- Node2&#45;&gt;Node6 -->
<g id="edge5" class="edge"><title>Node2&#45;&gt;Node6</title>
<path fill="none" stroke="midnightblue" d="M168.697,-56.4435C187.944,-47.6356 218.152,-33.8116 240.2,-23.722"/>
<polygon fill="midnightblue" stroke="midnightblue" points="241.753,-26.8603 249.39,-19.5164 238.84,-20.4951 241.753,-26.8603"/>
</g>
<!-- Node7 -->
<g id="node7" class="node"><title>Node7</title>
<polygon fill="white" stroke="#bfbfbf" points="166,-0.5 166,-19.5 222,-19.5 222,-0.5 166,-0.5"/>
<text text-anchor="middle" x="194" y="-7.5" font-family="Verdana" font-size="10.00">numeric</text>
</g>
<!-- Node2&#45;&gt;Node7 -->
<g id="edge6" class="edge"><title>Node2&#45;&gt;Node7</title>
<path fill="none" stroke="midnightblue" d="M157.266,-56.083C163.545,-48.3768 172.788,-37.0333 180.431,-27.6531"/>
<polygon fill="midnightblue" stroke="midnightblue" points="183.266,-29.7143 186.869,-19.7511 177.839,-25.2926 183.266,-29.7143"/>
</g>
</g>
</svg>
