<?xml version="1.0" encoding="UTF-8" standalone="no"?>
<!DOCTYPE svg PUBLIC "-//W3C//DTD SVG 1.1//EN"
 "http://www.w3.org/Graphics/SVG/1.1/DTD/svg11.dtd">
<!-- Generated by graphviz version 2.38.0 (20140413.2041)
 -->
<!-- Title: parameter/VirtualSubsystem.h Pages: 1 -->
<svg width="1309pt" height="476pt"
 viewBox="0.00 0.00 1309.00 476.00" xmlns="http://www.w3.org/2000/svg" xmlns:xlink="http://www.w3.org/1999/xlink">
<g id="graph0" class="graph" transform="scale(1 1) rotate(0) translate(4 472)">
<title>parameter/VirtualSubsystem.h</title>
<polygon fill="white" stroke="none" points="-4,4 -4,-472 1305,-472 1305,4 -4,4"/>
<!-- Node1 -->
<g id="node1" class="node"><title>Node1</title>
<polygon fill="#bfbfbf" stroke="black" points="84,-448.5 84,-467.5 248,-467.5 248,-448.5 84,-448.5"/>
<text text-anchor="middle" x="166" y="-455.5" font-family="Verdana" font-size="10.00">parameter/VirtualSubsystem.h</text>
</g>
<!-- Node2 -->
<g id="node2" class="node"><title>Node2</title>
<g id="a_node2"><a xlink:href="Subsystem_8h.html" target="_top" xlink:title="Subsystem.h">
<polygon fill="white" stroke="black" points="293,-392.5 293,-411.5 373,-411.5 373,-392.5 293,-392.5"/>
<text text-anchor="middle" x="333" y="-399.5" font-family="Verdana" font-size="10.00">Subsystem.h</text>
</a>
</g>
</g>
<!-- Node1&#45;&gt;Node2 -->
<g id="edge1" class="edge"><title>Node1&#45;&gt;Node2</title>
<path fill="none" stroke="midnightblue" d="M192.462,-448.444C220.678,-439.32 265.54,-424.813 296.968,-414.651"/>
<polygon fill="midnightblue" stroke="midnightblue" points="298.224,-417.923 306.662,-411.516 296.07,-411.263 298.224,-417.923"/>
</g>
<!-- Node6 -->
<g id="node6" class="node"><title>Node6</title>
<polygon fill="white" stroke="#bfbfbf" points="587,-0.5 587,-19.5 631,-19.5 631,-0.5 587,-0.5"/>
<text text-anchor="middle" x="609" y="-7.5" font-family="Verdana" font-size="10.00">string</text>
</g>
<!-- Node1&#45;&gt;Node6 -->
<g id="edge57" class="edge"><title>Node1&#45;&gt;Node6</title>
<path fill="none" stroke="midnightblue" d="M124.111,-448.449C74.9351,-435.68 0,-406.465 0,-347 0,-347 0,-347 0,-121 0,-81.0766 25.9742,-73.2051 62,-56 153.868,-12.1258 473.493,-10.1428 576.639,-10.6859"/>
<polygon fill="midnightblue" stroke="midnightblue" points="576.735,-14.1865 586.757,-10.7513 576.78,-7.18663 576.735,-14.1865"/>
</g>
<!-- Node3 -->
<g id="node3" class="node"><title>Node3</title>
<polygon fill="white" stroke="#bfbfbf" points="277.5,-168.5 277.5,-187.5 390.5,-187.5 390.5,-168.5 277.5,-168.5"/>
<text text-anchor="middle" x="334" y="-175.5" font-family="Verdana" font-size="10.00">parameter_export.h</text>
</g>
<!-- Node2&#45;&gt;Node3 -->
<g id="edge2" class="edge"><title>Node2&#45;&gt;Node3</title>
<path fill="none" stroke="midnightblue" d="M333.039,-392.297C333.186,-359.633 333.708,-243.866 333.915,-197.957"/>
<polygon fill="midnightblue" stroke="midnightblue" points="337.415,-197.899 333.96,-187.884 330.415,-197.868 337.415,-197.899"/>
</g>
<!-- Node4 -->
<g id="node4" class="node"><title>Node4</title>
<g id="a_node4"><a xlink:href="ConfigurableElement_8h.html" target="_top" xlink:title="ConfigurableElement.h">
<polygon fill="white" stroke="black" points="468.5,-280.5 468.5,-299.5 593.5,-299.5 593.5,-280.5 468.5,-280.5"/>
<text text-anchor="middle" x="531" y="-287.5" font-family="Verdana" font-size="10.00">ConfigurableElement.h</text>
</a>
</g>
</g>
<!-- Node2&#45;&gt;Node4 -->
<g id="edge3" class="edge"><title>Node2&#45;&gt;Node4</title>
<path fill="none" stroke="midnightblue" d="M338.508,-392.058C347.559,-378.091 366.898,-351.132 390,-336 414.968,-319.645 446.308,-308.867 473.097,-301.972"/>
<polygon fill="midnightblue" stroke="midnightblue" points="474.239,-305.296 483.118,-299.517 472.573,-298.497 474.239,-305.296"/>
</g>
<!-- Node2&#45;&gt;Node6 -->
<g id="edge55" class="edge"><title>Node2&#45;&gt;Node6</title>
<path fill="none" stroke="midnightblue" d="M292.987,-398.113C261.012,-393.772 217.05,-382.946 189,-356 145.613,-314.321 138.719,-280.641 159,-224 193.656,-127.212 224.333,-98.3713 318,-56 405.333,-16.4943 520.841,-10.7184 576.403,-10.4559"/>
<polygon fill="midnightblue" stroke="midnightblue" points="576.686,-13.9562 586.691,-10.4686 576.695,-6.95617 576.686,-13.9562"/>
</g>
<!-- Node7 -->
<g id="node7" class="node"><title>Node7</title>
<polygon fill="white" stroke="#bfbfbf" points="309.5,-112.5 309.5,-131.5 356.5,-131.5 356.5,-112.5 309.5,-112.5"/>
<text text-anchor="middle" x="333" y="-119.5" font-family="Verdana" font-size="10.00">vector</text>
</g>
<!-- Node2&#45;&gt;Node7 -->
<g id="edge56" class="edge"><title>Node2&#45;&gt;Node7</title>
<path fill="none" stroke="midnightblue" d="M294.268,-392.426C246.916,-379.392 173,-349.654 173,-291 173,-291 173,-291 173,-233 173,-172.075 252.752,-142.348 299.644,-130.134"/>
<polygon fill="midnightblue" stroke="midnightblue" points="300.524,-133.522 309.391,-127.724 298.844,-126.727 300.524,-133.522"/>
</g>
<!-- Node16 -->
<g id="node16" class="node"><title>Node16</title>
<polygon fill="white" stroke="#bfbfbf" points="1050,-0.5 1050,-19.5 1080,-19.5 1080,-0.5 1050,-0.5"/>
<text text-anchor="middle" x="1065" y="-7.5" font-family="Verdana" font-size="10.00">list</text>
</g>
<!-- Node2&#45;&gt;Node16 -->
<g id="edge53" class="edge"><title>Node2&#45;&gt;Node16</title>
<path fill="none" stroke="midnightblue" d="M373.022,-399.925C538.038,-394.971 1157,-371.055 1157,-291 1157,-291 1157,-291 1157,-121 1157,-90.9022 1156.25,-79.9352 1138,-56 1125.59,-39.7241 1105.46,-27.9521 1089.48,-20.5402"/>
<polygon fill="midnightblue" stroke="midnightblue" points="1090.73,-17.2701 1080.17,-16.4874 1087.94,-23.6882 1090.73,-17.2701"/>
</g>
<!-- Node17 -->
<g id="node17" class="node"><title>Node17</title>
<g id="a_node17"><a xlink:href="ConfigurableElementWithMapping_8h.html" target="_top" xlink:title="ConfigurableElementWithMapping.h">
<polygon fill="white" stroke="black" points="459,-336.5 459,-355.5 645,-355.5 645,-336.5 459,-336.5"/>
<text text-anchor="middle" x="552" y="-343.5" font-family="Verdana" font-size="10.00">ConfigurableElementWithMapping.h</text>
</a>
</g>
</g>
<!-- Node2&#45;&gt;Node17 -->
<g id="edge27" class="edge"><title>Node2&#45;&gt;Node17</title>
<path fill="none" stroke="midnightblue" d="M367.701,-392.444C405.585,-383.102 466.349,-368.119 507.662,-357.933"/>
<polygon fill="midnightblue" stroke="midnightblue" points="508.59,-361.309 517.461,-355.516 506.914,-354.512 508.59,-361.309"/>
</g>
<!-- Node18 -->
<g id="node18" class="node"><title>Node18</title>
<g id="a_node18"><a xlink:href="Mapper_8h.html" target="_top" xlink:title="Mapper.h">
<polygon fill="white" stroke="black" points="28.5,-280.5 28.5,-299.5 89.5,-299.5 89.5,-280.5 28.5,-280.5"/>
<text text-anchor="middle" x="59" y="-287.5" font-family="Verdana" font-size="10.00">Mapper.h</text>
</a>
</g>
</g>
<!-- Node2&#45;&gt;Node18 -->
<g id="edge30" class="edge"><title>Node2&#45;&gt;Node18</title>
<path fill="none" stroke="midnightblue" d="M292.977,-396.793C235.89,-390.185 134.594,-376.029 104,-356 86.6459,-344.639 74.099,-324.04 66.7314,-309.068"/>
<polygon fill="midnightblue" stroke="midnightblue" points="69.8207,-307.409 62.4628,-299.786 63.4608,-310.333 69.8207,-307.409"/>
</g>
<!-- Node19 -->
<g id="node19" class="node"><title>Node19</title>
<g id="a_node19"><a xlink:href="MappingContext_8h.html" target="_top" xlink:title="MappingContext.h">
<polygon fill="white" stroke="black" points="201,-224.5 201,-243.5 305,-243.5 305,-224.5 201,-224.5"/>
<text text-anchor="middle" x="253" y="-231.5" font-family="Verdana" font-size="10.00">MappingContext.h</text>
</a>
</g>
</g>
<!-- Node2&#45;&gt;Node19 -->
<g id="edge32" class="edge"><title>Node2&#45;&gt;Node19</title>
<path fill="none" stroke="midnightblue" d="M328.699,-392.075C315.997,-365.719 278.483,-287.878 261.511,-252.661"/>
<polygon fill="midnightblue" stroke="midnightblue" points="264.624,-251.057 257.129,-243.568 258.318,-254.096 264.624,-251.057"/>
</g>
<!-- Node20 -->
<g id="node20" class="node"><title>Node20</title>
<g id="a_node20"><a xlink:href="Logger_8h.html" target="_top" xlink:title="log/Logger.h">
<polygon fill="white" stroke="black" points="928.5,-168.5 928.5,-187.5 1003.5,-187.5 1003.5,-168.5 928.5,-168.5"/>
<text text-anchor="middle" x="966" y="-175.5" font-family="Verdana" font-size="10.00">log/Logger.h</text>
</a>
</g>
</g>
<!-- Node2&#45;&gt;Node20 -->
<g id="edge37" class="edge"><title>Node2&#45;&gt;Node20</title>
<path fill="none" stroke="midnightblue" d="M373.127,-397.457C483.351,-387.11 788.068,-354.201 871,-300 911.838,-273.31 942.764,-223.104 957.132,-196.529"/>
<polygon fill="midnightblue" stroke="midnightblue" points="960.27,-198.081 961.814,-187.6 954.071,-194.831 960.27,-198.081"/>
</g>
<!-- Node28 -->
<g id="node28" class="node"><title>Node28</title>
<polygon fill="white" stroke="#bfbfbf" points="399,-336.5 399,-355.5 441,-355.5 441,-336.5 399,-336.5"/>
<text text-anchor="middle" x="420" y="-343.5" font-family="Verdana" font-size="10.00">stack</text>
</g>
<!-- Node2&#45;&gt;Node28 -->
<g id="edge54" class="edge"><title>Node2&#45;&gt;Node28</title>
<path fill="none" stroke="midnightblue" d="M346.978,-392.324C360.55,-383.9 381.38,-370.971 397.325,-361.074"/>
<polygon fill="midnightblue" stroke="midnightblue" points="399.406,-363.902 406.057,-355.655 395.714,-357.954 399.406,-363.902"/>
</g>
<!-- Node4&#45;&gt;Node3 -->
<g id="edge4" class="edge"><title>Node4&#45;&gt;Node3</title>
<path fill="none" stroke="midnightblue" d="M515.542,-280.368C481.377,-261.292 399.229,-215.422 358.187,-192.505"/>
<polygon fill="midnightblue" stroke="midnightblue" points="359.824,-189.411 349.386,-187.591 356.411,-195.523 359.824,-189.411"/>
</g>
<!-- Node5 -->
<g id="node5" class="node"><title>Node5</title>
<g id="a_node5"><a xlink:href="Element_8h.html" target="_top" xlink:title="Element.h">
<polygon fill="white" stroke="black" points="498.5,-224.5 498.5,-243.5 563.5,-243.5 563.5,-224.5 498.5,-224.5"/>
<text text-anchor="middle" x="531" y="-231.5" font-family="Verdana" font-size="10.00">Element.h</text>
</a>
</g>
</g>
<!-- Node4&#45;&gt;Node5 -->
<g id="edge5" class="edge"><title>Node4&#45;&gt;Node5</title>
<path fill="none" stroke="midnightblue" d="M531,-280.083C531,-273.006 531,-262.861 531,-253.986"/>
<polygon fill="midnightblue" stroke="midnightblue" points="534.5,-253.751 531,-243.751 527.5,-253.751 534.5,-253.751"/>
</g>
<!-- Node4&#45;&gt;Node16 -->
<g id="edge26" class="edge"><title>Node4&#45;&gt;Node16</title>
<path fill="none" stroke="midnightblue" d="M560.839,-280.416C611.81,-265.202 718.26,-231.019 802,-188 899.35,-137.989 1004.15,-58.8739 1046.09,-26.0453"/>
<polygon fill="midnightblue" stroke="midnightblue" points="1048.37,-28.7063 1054.06,-19.7698 1044.04,-23.2067 1048.37,-28.7063"/>
</g>
<!-- Node5&#45;&gt;Node3 -->
<g id="edge6" class="edge"><title>Node5&#45;&gt;Node3</title>
<path fill="none" stroke="midnightblue" d="M499.785,-224.444C466.067,-215.201 412.2,-200.436 375.068,-190.257"/>
<polygon fill="midnightblue" stroke="midnightblue" points="375.639,-186.785 365.069,-187.516 373.788,-193.536 375.639,-186.785"/>
</g>
<!-- Node5&#45;&gt;Node6 -->
<g id="edge7" class="edge"><title>Node5&#45;&gt;Node6</title>
<path fill="none" stroke="midnightblue" d="M547.817,-224.485C560.837,-216.875 577.964,-204.396 586,-188 600.87,-157.658 584.101,-145.564 588,-112 591.4,-82.7297 599.104,-49.3641 604.175,-29.2577"/>
<polygon fill="midnightblue" stroke="midnightblue" points="607.568,-30.1192 606.678,-19.5618 600.79,-28.3699 607.568,-30.1192"/>
</g>
<!-- Node5&#45;&gt;Node7 -->
<g id="edge8" class="edge"><title>Node5&#45;&gt;Node7</title>
<path fill="none" stroke="midnightblue" d="M513.303,-224.347C495.414,-215.508 467.052,-201.24 443,-188 412.394,-171.152 377.811,-150.432 355.73,-136.981"/>
<polygon fill="midnightblue" stroke="midnightblue" points="357.437,-133.923 347.08,-131.694 353.787,-139.895 357.437,-133.923"/>
</g>
<!-- Node8 -->
<g id="node8" class="node"><title>Node8</title>
<polygon fill="white" stroke="#bfbfbf" points="438.5,-56.5 438.5,-75.5 491.5,-75.5 491.5,-56.5 438.5,-56.5"/>
<text text-anchor="middle" x="465" y="-63.5" font-family="Verdana" font-size="10.00">stdint.h</text>
</g>
<!-- Node5&#45;&gt;Node8 -->
<g id="edge9" class="edge"><title>Node5&#45;&gt;Node8</title>
<path fill="none" stroke="midnightblue" d="M514.723,-224.498C501.835,-216.818 484.617,-204.238 476,-188 458.673,-155.347 459.914,-110.697 462.421,-85.777"/>
<polygon fill="midnightblue" stroke="midnightblue" points="465.932,-85.8914 463.638,-75.5477 458.981,-85.0639 465.932,-85.8914"/>
</g>
<!-- Node9 -->
<g id="node9" class="node"><title>Node9</title>
<g id="a_node9"><a xlink:href="XmlSink_8h.html" target="_top" xlink:title="XmlSink.h">
<polygon fill="white" stroke="black" points="729,-168.5 729,-187.5 793,-187.5 793,-168.5 729,-168.5"/>
<text text-anchor="middle" x="761" y="-175.5" font-family="Verdana" font-size="10.00">XmlSink.h</text>
</a>
</g>
</g>
<!-- Node5&#45;&gt;Node9 -->
<g id="edge10" class="edge"><title>Node5&#45;&gt;Node9</title>
<path fill="none" stroke="midnightblue" d="M563.953,-225.263C604.747,-215.685 674.282,-199.36 718.901,-188.884"/>
<polygon fill="midnightblue" stroke="midnightblue" points="719.914,-192.242 728.849,-186.548 718.314,-185.427 719.914,-192.242"/>
</g>
<!-- Node14 -->
<g id="node14" class="node"><title>Node14</title>
<g id="a_node14"><a xlink:href="XmlSource_8h.html" target="_top" xlink:title="XmlSource.h">
<polygon fill="white" stroke="black" points="633.5,-168.5 633.5,-187.5 710.5,-187.5 710.5,-168.5 633.5,-168.5"/>
<text text-anchor="middle" x="672" y="-175.5" font-family="Verdana" font-size="10.00">XmlSource.h</text>
</a>
</g>
</g>
<!-- Node5&#45;&gt;Node14 -->
<g id="edge19" class="edge"><title>Node5&#45;&gt;Node14</title>
<path fill="none" stroke="midnightblue" d="M553.342,-224.444C576.753,-215.478 613.736,-201.314 640.19,-191.183"/>
<polygon fill="midnightblue" stroke="midnightblue" points="641.676,-194.361 649.763,-187.516 639.172,-187.824 641.676,-194.361"/>
</g>
<!-- Node15 -->
<g id="node15" class="node"><title>Node15</title>
<g id="a_node15"><a xlink:href="PathNavigator_8h.html" target="_top" xlink:title="PathNavigator.h">
<polygon fill="white" stroke="black" points="485,-168.5 485,-187.5 577,-187.5 577,-168.5 485,-168.5"/>
<text text-anchor="middle" x="531" y="-175.5" font-family="Verdana" font-size="10.00">PathNavigator.h</text>
</a>
</g>
</g>
<!-- Node5&#45;&gt;Node15 -->
<g id="edge22" class="edge"><title>Node5&#45;&gt;Node15</title>
<path fill="none" stroke="midnightblue" d="M531,-224.083C531,-217.006 531,-206.861 531,-197.986"/>
<polygon fill="midnightblue" stroke="midnightblue" points="534.5,-197.751 531,-187.751 527.5,-197.751 534.5,-197.751"/>
</g>
<!-- Node10 -->
<g id="node10" class="node"><title>Node10</title>
<g id="a_node10"><a xlink:href="XmlElement_8h.html" target="_top" xlink:title="XmlElement.h">
<polygon fill="white" stroke="black" points="597.5,-112.5 597.5,-131.5 680.5,-131.5 680.5,-112.5 597.5,-112.5"/>
<text text-anchor="middle" x="639" y="-119.5" font-family="Verdana" font-size="10.00">XmlElement.h</text>
</a>
</g>
</g>
<!-- Node9&#45;&gt;Node10 -->
<g id="edge11" class="edge"><title>Node9&#45;&gt;Node10</title>
<path fill="none" stroke="midnightblue" d="M741.669,-168.444C721.68,-159.596 690.257,-145.687 667.436,-135.586"/>
<polygon fill="midnightblue" stroke="midnightblue" points="668.802,-132.363 658.241,-131.516 665.968,-138.764 668.802,-132.363"/>
</g>
<!-- Node11 -->
<g id="node11" class="node"><title>Node11</title>
<g id="a_node11"><a xlink:href="XmlSerializingContext_8h.html" target="_top" xlink:title="XmlSerializingContext.h">
<polygon fill="white" stroke="black" points="699,-112.5 699,-131.5 829,-131.5 829,-112.5 699,-112.5"/>
<text text-anchor="middle" x="764" y="-119.5" font-family="Verdana" font-size="10.00">XmlSerializingContext.h</text>
</a>
</g>
</g>
<!-- Node9&#45;&gt;Node11 -->
<g id="edge14" class="edge"><title>Node9&#45;&gt;Node11</title>
<path fill="none" stroke="midnightblue" d="M761.495,-168.083C761.889,-161.006 762.452,-150.861 762.945,-141.986"/>
<polygon fill="midnightblue" stroke="midnightblue" points="766.454,-141.93 763.514,-131.751 759.464,-141.542 766.454,-141.93"/>
</g>
<!-- Node10&#45;&gt;Node6 -->
<g id="edge13" class="edge"><title>Node10&#45;&gt;Node6</title>
<path fill="none" stroke="midnightblue" d="M636.646,-112.368C631.783,-94.5366 620.535,-53.2953 613.983,-29.2717"/>
<polygon fill="midnightblue" stroke="midnightblue" points="617.351,-28.3181 611.343,-19.5914 610.598,-30.16 617.351,-28.3181"/>
</g>
<!-- Node10&#45;&gt;Node8 -->
<g id="edge12" class="edge"><title>Node10&#45;&gt;Node8</title>
<path fill="none" stroke="midnightblue" d="M611.429,-112.444C581.642,-103.199 534.051,-88.4296 501.253,-78.2511"/>
<polygon fill="midnightblue" stroke="midnightblue" points="502.174,-74.8721 491.586,-75.2508 500.099,-81.5576 502.174,-74.8721"/>
</g>
<!-- Node11&#45;&gt;Node6 -->
<g id="edge18" class="edge"><title>Node11&#45;&gt;Node6</title>
<path fill="none" stroke="midnightblue" d="M740.553,-112.395C720.935,-104.573 692.743,-91.8474 671,-76 651.797,-62.0033 633.488,-41.6404 621.813,-27.4486"/>
<polygon fill="midnightblue" stroke="midnightblue" points="624.44,-25.1304 615.451,-19.5218 618.98,-29.5116 624.44,-25.1304"/>
</g>
<!-- Node12 -->
<g id="node12" class="node"><title>Node12</title>
<g id="a_node12"><a xlink:href="ErrorContext_8hpp.html" target="_top" xlink:title="ErrorContext.hpp">
<polygon fill="white" stroke="black" points="713,-56.5 713,-75.5 811,-75.5 811,-56.5 713,-56.5"/>
<text text-anchor="middle" x="762" y="-63.5" font-family="Verdana" font-size="10.00">ErrorContext.hpp</text>
</a>
</g>
</g>
<!-- Node11&#45;&gt;Node12 -->
<g id="edge15" class="edge"><title>Node11&#45;&gt;Node12</title>
<path fill="none" stroke="midnightblue" d="M763.67,-112.083C763.408,-105.006 763.032,-94.8611 762.703,-85.9865"/>
<polygon fill="midnightblue" stroke="midnightblue" points="766.192,-85.6147 762.324,-75.7511 759.197,-85.8738 766.192,-85.6147"/>
</g>
<!-- Node12&#45;&gt;Node6 -->
<g id="edge16" class="edge"><title>Node12&#45;&gt;Node6</title>
<path fill="none" stroke="midnightblue" d="M737.757,-56.4435C711.526,-47.1858 669.595,-32.3866 640.752,-22.2066"/>
<polygon fill="midnightblue" stroke="midnightblue" points="641.738,-18.8429 631.143,-18.8151 639.408,-25.4438 641.738,-18.8429"/>
</g>
<!-- Node13 -->
<g id="node13" class="node"><title>Node13</title>
<g id="a_node13"><a xlink:href="NonCopyable_8hpp.html" target="_top" xlink:title="NonCopyable.hpp">
<polygon fill="white" stroke="black" points="797.5,-0.5 797.5,-19.5 898.5,-19.5 898.5,-0.5 797.5,-0.5"/>
<text text-anchor="middle" x="848" y="-7.5" font-family="Verdana" font-size="10.00">NonCopyable.hpp</text>
</a>
</g>
</g>
<!-- Node12&#45;&gt;Node13 -->
<g id="edge17" class="edge"><title>Node12&#45;&gt;Node13</title>
<path fill="none" stroke="midnightblue" d="M775.817,-56.324C789.233,-47.9002 809.824,-34.9709 825.586,-25.0741"/>
<polygon fill="midnightblue" stroke="midnightblue" points="827.609,-27.9364 834.217,-19.6545 823.887,-22.0081 827.609,-27.9364"/>
</g>
<!-- Node14&#45;&gt;Node10 -->
<g id="edge20" class="edge"><title>Node14&#45;&gt;Node10</title>
<path fill="none" stroke="midnightblue" d="M666.551,-168.083C661.986,-160.613 655.332,-149.724 649.707,-140.52"/>
<polygon fill="midnightblue" stroke="midnightblue" points="652.549,-138.459 644.348,-131.751 646.576,-142.109 652.549,-138.459"/>
</g>
<!-- Node14&#45;&gt;Node11 -->
<g id="edge21" class="edge"><title>Node14&#45;&gt;Node11</title>
<path fill="none" stroke="midnightblue" d="M686.781,-168.324C701.267,-159.822 723.573,-146.729 740.493,-136.797"/>
<polygon fill="midnightblue" stroke="midnightblue" points="742.403,-139.735 749.255,-131.655 738.859,-133.698 742.403,-139.735"/>
</g>
<!-- Node15&#45;&gt;Node6 -->
<g id="edge24" class="edge"><title>Node15&#45;&gt;Node6</title>
<path fill="none" stroke="midnightblue" d="M530.806,-168.395C530.717,-147.562 532.8,-93.3794 555,-56 562.376,-43.5811 574.474,-33.0266 585.352,-25.2671"/>
<polygon fill="midnightblue" stroke="midnightblue" points="587.349,-28.1417 593.7,-19.6612 583.447,-22.3304 587.349,-28.1417"/>
</g>
<!-- Node15&#45;&gt;Node7 -->
<g id="edge23" class="edge"><title>Node15&#45;&gt;Node7</title>
<path fill="none" stroke="midnightblue" d="M499.626,-168.444C463.345,-158.549 403.853,-142.323 366.638,-132.174"/>
<polygon fill="midnightblue" stroke="midnightblue" points="367.338,-128.737 356.77,-129.483 365.496,-135.491 367.338,-128.737"/>
</g>
<!-- Node15&#45;&gt;Node8 -->
<g id="edge25" class="edge"><title>Node15&#45;&gt;Node8</title>
<path fill="none" stroke="midnightblue" d="M525.821,-168.368C514.977,-150.296 489.706,-108.176 475.384,-84.3074"/>
<polygon fill="midnightblue" stroke="midnightblue" points="478.301,-82.3656 470.155,-75.5914 472.299,-85.9671 478.301,-82.3656"/>
</g>
<!-- Node17&#45;&gt;Node4 -->
<g id="edge28" class="edge"><title>Node17&#45;&gt;Node4</title>
<path fill="none" stroke="midnightblue" d="M548.532,-336.083C545.688,-328.77 541.571,-318.181 538.04,-309.103"/>
<polygon fill="midnightblue" stroke="midnightblue" points="541.29,-307.803 534.403,-299.751 534.766,-310.34 541.29,-307.803"/>
</g>
<!-- Node17&#45;&gt;Node6 -->
<g id="edge29" class="edge"><title>Node17&#45;&gt;Node6</title>
<path fill="none" stroke="midnightblue" d="M608.653,-336.446C696.857,-321.512 857,-287.209 857,-235 857,-235 857,-235 857,-177 857,-146.902 859.514,-133.048 838,-112 793.919,-68.8752 760.021,-101.778 704,-76 688.546,-68.889 651.631,-42.4882 628.634,-25.5995"/>
<polygon fill="midnightblue" stroke="midnightblue" points="630.7,-22.7744 620.576,-19.6526 626.544,-28.4068 630.7,-22.7744"/>
</g>
<!-- Node18&#45;&gt;Node6 -->
<g id="edge31" class="edge"><title>Node18&#45;&gt;Node6</title>
<path fill="none" stroke="midnightblue" d="M59,-280.442C59,-261.936 59,-216.812 59,-179 59,-179 59,-179 59,-121 59,-90.2048 58.5071,-74.6667 83,-56 122.286,-26.0593 468.391,-14.6341 576.728,-11.7723"/>
<polygon fill="midnightblue" stroke="midnightblue" points="576.833,-15.2708 586.739,-11.5145 576.652,-8.27313 576.833,-15.2708"/>
</g>
<!-- Node19&#45;&gt;Node3 -->
<g id="edge33" class="edge"><title>Node19&#45;&gt;Node3</title>
<path fill="none" stroke="midnightblue" d="M266.014,-224.324C278.532,-215.979 297.682,-203.212 312.471,-193.352"/>
<polygon fill="midnightblue" stroke="midnightblue" points="314.639,-196.114 321.018,-187.655 310.756,-190.289 314.639,-196.114"/>
</g>
<!-- Node19&#45;&gt;Node6 -->
<g id="edge35" class="edge"><title>Node19&#45;&gt;Node6</title>
<path fill="none" stroke="midnightblue" d="M251.509,-224.407C250.024,-215.376 247.846,-200.74 247,-188 244.654,-152.656 245.161,-136.229 271,-112 358.601,-29.8557 510.305,-14.2936 576.518,-11.5089"/>
<polygon fill="midnightblue" stroke="midnightblue" points="576.883,-14.9984 586.755,-11.1533 576.64,-8.0026 576.883,-14.9984"/>
</g>
<!-- Node19&#45;&gt;Node7 -->
<g id="edge36" class="edge"><title>Node19&#45;&gt;Node7</title>
<path fill="none" stroke="midnightblue" d="M253.069,-224.219C253.578,-210.938 256.168,-185.444 268,-168 277.052,-154.655 291.485,-144.082 304.454,-136.546"/>
<polygon fill="midnightblue" stroke="midnightblue" points="306.431,-139.455 313.541,-131.6 303.085,-133.307 306.431,-139.455"/>
</g>
<!-- Node19&#45;&gt;Node8 -->
<g id="edge34" class="edge"><title>Node19&#45;&gt;Node8</title>
<path fill="none" stroke="midnightblue" d="M251.562,-224.256C249.83,-211.454 247.958,-187.063 255,-168 266.063,-138.049 273.294,-129.5 300,-112 339.162,-86.3385 392.683,-75.2166 428.014,-70.4588"/>
<polygon fill="midnightblue" stroke="midnightblue" points="428.865,-73.8802 438.359,-69.1775 428.005,-66.9333 428.865,-73.8802"/>
</g>
<!-- Node20&#45;&gt;Node13 -->
<g id="edge52" class="edge"><title>Node20&#45;&gt;Node13</title>
<path fill="none" stroke="midnightblue" d="M964.202,-168.494C959.399,-147.418 944.571,-91.8928 915,-56 904.214,-42.9077 888.646,-32.1345 875.23,-24.4149"/>
<polygon fill="midnightblue" stroke="midnightblue" points="876.825,-21.2977 866.372,-19.5675 873.464,-27.4384 876.825,-21.2977"/>
</g>
<!-- Node21 -->
<g id="node21" class="node"><title>Node21</title>
<g id="a_node21"><a xlink:href="ILogger_8h.html" target="_top" xlink:title="log/ILogger.h">
<polygon fill="white" stroke="black" points="829.5,-56.5 829.5,-75.5 906.5,-75.5 906.5,-56.5 829.5,-56.5"/>
<text text-anchor="middle" x="868" y="-63.5" font-family="Verdana" font-size="10.00">log/ILogger.h</text>
</a>
</g>
</g>
<!-- Node20&#45;&gt;Node21 -->
<g id="edge38" class="edge"><title>Node20&#45;&gt;Node21</title>
<path fill="none" stroke="midnightblue" d="M958.31,-168.368C941.994,-150.055 903.68,-107.049 882.577,-83.3624"/>
<polygon fill="midnightblue" stroke="midnightblue" points="884.92,-80.7298 875.654,-75.5914 879.693,-85.3863 884.92,-80.7298"/>
</g>
<!-- Node22 -->
<g id="node22" class="node"><title>Node22</title>
<g id="a_node22"><a xlink:href="LogWrapper_8h.html" target="_top" xlink:title="log/LogWrapper.h">
<polygon fill="white" stroke="black" points="1000,-112.5 1000,-131.5 1098,-131.5 1098,-112.5 1000,-112.5"/>
<text text-anchor="middle" x="1049" y="-119.5" font-family="Verdana" font-size="10.00">log/LogWrapper.h</text>
</a>
</g>
</g>
<!-- Node20&#45;&gt;Node22 -->
<g id="edge40" class="edge"><title>Node20&#45;&gt;Node22</title>
<path fill="none" stroke="midnightblue" d="M979.335,-168.324C992.162,-159.979 1011.78,-147.212 1026.94,-137.352"/>
<polygon fill="midnightblue" stroke="midnightblue" points="1029.22,-140.042 1035.7,-131.655 1025.41,-134.174 1029.22,-140.042"/>
</g>
<!-- Node21&#45;&gt;Node6 -->
<g id="edge39" class="edge"><title>Node21&#45;&gt;Node6</title>
<path fill="none" stroke="midnightblue" d="M829.225,-56.9157C778.059,-46.2478 688.919,-27.6627 641.249,-17.7236"/>
<polygon fill="midnightblue" stroke="midnightblue" points="641.682,-14.2389 631.178,-15.6241 640.253,-21.0915 641.682,-14.2389"/>
</g>
<!-- Node22&#45;&gt;Node6 -->
<g id="edge48" class="edge"><title>Node22&#45;&gt;Node6</title>
<path fill="none" stroke="midnightblue" d="M1035.11,-112.482C1011.41,-98.3563 961.209,-70.2345 915,-56 818.099,-26.1497 697.661,-15.852 641.131,-12.5032"/>
<polygon fill="midnightblue" stroke="midnightblue" points="641.2,-9.00171 631.021,-11.9389 640.81,-15.9908 641.2,-9.00171"/>
</g>
<!-- Node22&#45;&gt;Node16 -->
<g id="edge51" class="edge"><title>Node22&#45;&gt;Node16</title>
<path fill="none" stroke="midnightblue" d="M1050.26,-112.368C1052.84,-94.617 1058.79,-53.6664 1062.29,-29.5974"/>
<polygon fill="midnightblue" stroke="midnightblue" points="1065.77,-29.9911 1063.75,-19.5914 1058.85,-28.9835 1065.77,-29.9911"/>
</g>
<!-- Node22&#45;&gt;Node21 -->
<g id="edge41" class="edge"><title>Node22&#45;&gt;Node21</title>
<path fill="none" stroke="midnightblue" d="M1020.32,-112.444C989.473,-103.241 940.272,-88.5617 906.171,-78.3879"/>
<polygon fill="midnightblue" stroke="midnightblue" points="907.129,-75.0215 896.546,-75.5164 905.128,-81.7293 907.129,-75.0215"/>
</g>
<!-- Node23 -->
<g id="node23" class="node"><title>Node23</title>
<g id="a_node23"><a xlink:href="Utility_8h.html" target="_top" xlink:title="Utility.h">
<polygon fill="white" stroke="black" points="1185.5,-56.5 1185.5,-75.5 1236.5,-75.5 1236.5,-56.5 1185.5,-56.5"/>
<text text-anchor="middle" x="1211" y="-63.5" font-family="Verdana" font-size="10.00">Utility.h</text>
</a>
</g>
</g>
<!-- Node22&#45;&gt;Node23 -->
<g id="edge42" class="edge"><title>Node22&#45;&gt;Node23</title>
<path fill="none" stroke="midnightblue" d="M1074.67,-112.444C1101.92,-103.359 1145.18,-88.9388 1175.65,-78.7831"/>
<polygon fill="midnightblue" stroke="midnightblue" points="1177.07,-81.9992 1185.45,-75.5164 1174.86,-75.3584 1177.07,-81.9992"/>
</g>
<!-- Node25 -->
<g id="node25" class="node"><title>Node25</title>
<polygon fill="white" stroke="#bfbfbf" points="1245,-0.5 1245,-19.5 1301,-19.5 1301,-0.5 1245,-0.5"/>
<text text-anchor="middle" x="1273" y="-7.5" font-family="Verdana" font-size="10.00">sstream</text>
</g>
<!-- Node22&#45;&gt;Node25 -->
<g id="edge49" class="edge"><title>Node22&#45;&gt;Node25</title>
<path fill="none" stroke="midnightblue" d="M1098.06,-114.995C1148.89,-107.882 1223.95,-94.6075 1246,-76 1259.84,-64.3206 1266.71,-44.3763 1270.03,-29.6527"/>
<polygon fill="midnightblue" stroke="midnightblue" points="1273.51,-30.1132 1271.94,-19.6345 1266.63,-28.8016 1273.51,-30.1132"/>
</g>
<!-- Node27 -->
<g id="node27" class="node"><title>Node27</title>
<polygon fill="white" stroke="#bfbfbf" points="1077,-56.5 1077,-75.5 1129,-75.5 1129,-56.5 1077,-56.5"/>
<text text-anchor="middle" x="1103" y="-63.5" font-family="Verdana" font-size="10.00">iterator</text>
</g>
<!-- Node22&#45;&gt;Node27 -->
<g id="edge50" class="edge"><title>Node22&#45;&gt;Node27</title>
<path fill="none" stroke="midnightblue" d="M1057.92,-112.083C1065.78,-104.22 1077.43,-92.5688 1086.92,-83.0813"/>
<polygon fill="midnightblue" stroke="midnightblue" points="1089.65,-85.2971 1094.25,-75.7511 1084.7,-80.3473 1089.65,-85.2971"/>
</g>
<!-- Node23&#45;&gt;Node6 -->
<g id="edge43" class="edge"><title>Node23&#45;&gt;Node6</title>
<path fill="none" stroke="midnightblue" d="M1185.35,-61.5973C1171.37,-59.8029 1153.75,-57.6401 1138,-56 950.051,-36.4272 723.867,-19.3434 641.227,-13.3148"/>
<polygon fill="midnightblue" stroke="midnightblue" points="641.43,-9.82043 631.202,-12.5865 640.922,-16.802 641.43,-9.82043"/>
</g>
<!-- Node23&#45;&gt;Node16 -->
<g id="edge44" class="edge"><title>Node23&#45;&gt;Node16</title>
<path fill="none" stroke="midnightblue" d="M1187.87,-56.4435C1161.06,-46.5283 1117.06,-30.2564 1089.63,-20.1111"/>
<polygon fill="midnightblue" stroke="midnightblue" points="1090.6,-16.7351 1080,-16.5488 1088.17,-23.3005 1090.6,-16.7351"/>
</g>
<!-- Node24 -->
<g id="node24" class="node"><title>Node24</title>
<polygon fill="white" stroke="#bfbfbf" points="1189,-0.5 1189,-19.5 1227,-19.5 1227,-0.5 1189,-0.5"/>
<text text-anchor="middle" x="1208" y="-7.5" font-family="Verdana" font-size="10.00">map</text>
</g>
<!-- Node23&#45;&gt;Node24 -->
<g id="edge45" class="edge"><title>Node23&#45;&gt;Node24</title>
<path fill="none" stroke="midnightblue" d="M1210.5,-56.083C1210.11,-49.0059 1209.55,-38.8611 1209.05,-29.9865"/>
<polygon fill="midnightblue" stroke="midnightblue" points="1212.54,-29.5415 1208.49,-19.7511 1205.55,-29.9299 1212.54,-29.5415"/>
</g>
<!-- Node23&#45;&gt;Node25 -->
<g id="edge46" class="edge"><title>Node23&#45;&gt;Node25</title>
<path fill="none" stroke="midnightblue" d="M1220.96,-56.324C1230.13,-48.3414 1243.94,-36.3128 1255.03,-26.6529"/>
<polygon fill="midnightblue" stroke="midnightblue" points="1257.62,-29.041 1262.86,-19.8339 1253.02,-23.7624 1257.62,-29.041"/>
</g>
<!-- Node26 -->
<g id="node26" class="node"><title>Node26</title>
<polygon fill="white" stroke="#bfbfbf" points="1115,-0.5 1115,-19.5 1171,-19.5 1171,-0.5 1115,-0.5"/>
<text text-anchor="middle" x="1143" y="-7.5" font-family="Verdana" font-size="10.00">numeric</text>
</g>
<!-- Node23&#45;&gt;Node26 -->
<g id="edge47" class="edge"><title>Node23&#45;&gt;Node26</title>
<path fill="none" stroke="midnightblue" d="M1200.07,-56.324C1189.83,-48.1849 1174.28,-35.8395 1162,-26.0874"/>
<polygon fill="midnightblue" stroke="midnightblue" points="1164.13,-23.3119 1154.12,-19.8339 1159.78,-28.7937 1164.13,-23.3119"/>
</g>
</g>
</svg>
