<?xml version="1.0" encoding="UTF-8" standalone="no"?>
<!DOCTYPE svg PUBLIC "-//W3C//DTD SVG 1.1//EN"
 "http://www.w3.org/Graphics/SVG/1.1/DTD/svg11.dtd">
<!-- Generated by graphviz version 2.38.0 (20140413.2041)
 -->
<!-- Title: parameter/VirtualSubsystem.h Pages: 1 -->
<svg width="630pt" height="151pt"
 viewBox="0.00 0.00 630.00 151.00" xmlns="http://www.w3.org/2000/svg" xmlns:xlink="http://www.w3.org/1999/xlink">
<g id="graph0" class="graph" transform="scale(1 1) rotate(0) translate(4 147)">
<title>parameter/VirtualSubsystem.h</title>
<polygon fill="white" stroke="none" points="-4,4 -4,-147 626,-147 626,4 -4,4"/>
<!-- Node1 -->
<g id="node1" class="node"><title>Node1</title>
<polygon fill="#bfbfbf" stroke="black" points="336,-123.5 336,-142.5 500,-142.5 500,-123.5 336,-123.5"/>
<text text-anchor="middle" x="418" y="-130.5" font-family="Verdana" font-size="10.00">parameter/VirtualSubsystem.h</text>
</g>
<!-- Node2 -->
<g id="node2" class="node"><title>Node2</title>
<g id="a_node2"><a xlink:href="SubsystemLibrary_8h.html" target="_top" xlink:title="parameter/SubsystemLibrary.h">
<polygon fill="white" stroke="black" points="193,-67.5 193,-86.5 357,-86.5 357,-67.5 193,-67.5"/>
<text text-anchor="middle" x="275" y="-74.5" font-family="Verdana" font-size="10.00">parameter/SubsystemLibrary.h</text>
</a>
</g>
</g>
<!-- Node1&#45;&gt;Node2 -->
<g id="edge1" class="edge"><title>Node1&#45;&gt;Node2</title>
<path fill="none" stroke="midnightblue" d="M385.973,-119.906C359.088,-109.754 321.359,-95.5063 297.553,-86.5164"/>
<polygon fill="midnightblue" stroke="midnightblue" points="384.75,-123.185 395.341,-123.444 387.222,-116.636 384.75,-123.185"/>
</g>
<!-- Node5 -->
<g id="node5" class="node"><title>Node5</title>
<g id="a_node5"><a xlink:href="SystemClass_8cpp.html" target="_top" xlink:title="parameter/SystemClass.cpp">
<polygon fill="white" stroke="black" points="358.5,-6 358.5,-25 511.5,-25 511.5,-6 358.5,-6"/>
<text text-anchor="middle" x="435" y="-13" font-family="Verdana" font-size="10.00">parameter/SystemClass.cpp</text>
</a>
</g>
</g>
<!-- Node1&#45;&gt;Node5 -->
<g id="edge5" class="edge"><title>Node1&#45;&gt;Node5</title>
<path fill="none" stroke="midnightblue" d="M420.772,-113.164C424.496,-87.8651 430.962,-43.9353 433.707,-25.282"/>
<polygon fill="midnightblue" stroke="midnightblue" points="417.271,-112.916 419.278,-123.319 424.197,-113.935 417.271,-112.916"/>
</g>
<!-- Node6 -->
<g id="node6" class="node"><title>Node6</title>
<g id="a_node6"><a xlink:href="VirtualSubsystem_8cpp.html" target="_top" xlink:title="parameter/VirtualSubsystem.cpp">
<polygon fill="white" stroke="black" points="446,-67.5 446,-86.5 622,-86.5 622,-67.5 446,-67.5"/>
<text text-anchor="middle" x="534" y="-74.5" font-family="Verdana" font-size="10.00">parameter/VirtualSubsystem.cpp</text>
</a>
</g>
</g>
<!-- Node1&#45;&gt;Node6 -->
<g id="edge6" class="edge"><title>Node1&#45;&gt;Node6</title>
<path fill="none" stroke="midnightblue" d="M445.72,-119.096C467.392,-109.007 496.902,-95.2697 515.705,-86.5164"/>
<polygon fill="midnightblue" stroke="midnightblue" points="443.969,-116.05 436.381,-123.444 446.923,-122.396 443.969,-116.05"/>
</g>
<!-- Node3 -->
<g id="node3" class="node"><title>Node3</title>
<g id="a_node3"><a xlink:href="ParameterMgr_8cpp.html" target="_top" xlink:title="parameter/ParameterMgr.cpp">
<polygon fill="white" stroke="black" points="0,-6 0,-25 158,-25 158,-6 0,-6"/>
<text text-anchor="middle" x="79" y="-13" font-family="Verdana" font-size="10.00">parameter/ParameterMgr.cpp</text>
</a>
</g>
</g>
<!-- Node2&#45;&gt;Node3 -->
<g id="edge2" class="edge"><title>Node2&#45;&gt;Node3</title>
<path fill="none" stroke="midnightblue" d="M237.212,-64.5286C199.119,-52.9647 141.209,-35.3849 107.03,-25.0091"/>
<polygon fill="midnightblue" stroke="midnightblue" points="236.332,-67.9193 246.918,-67.4751 238.366,-61.2211 236.332,-67.9193"/>
</g>
<!-- Node4 -->
<g id="node4" class="node"><title>Node4</title>
<g id="a_node4"><a xlink:href="SubsystemElementBuilder_8cpp.html" target="_top" xlink:title="parameter/SubsystemElement\lBuilder.cpp">
<polygon fill="white" stroke="black" points="176,-0.5 176,-30.5 340,-30.5 340,-0.5 176,-0.5"/>
<text text-anchor="start" x="184" y="-18.5" font-family="Verdana" font-size="10.00">parameter/SubsystemElement</text>
<text text-anchor="middle" x="258" y="-7.5" font-family="Verdana" font-size="10.00">Builder.cpp</text>
</a>
</g>
</g>
<!-- Node2&#45;&gt;Node4 -->
<g id="edge3" class="edge"><title>Node2&#45;&gt;Node4</title>
<path fill="none" stroke="midnightblue" d="M269.805,-57.8158C267.297,-49.0409 264.336,-38.6761 262.007,-30.523"/>
<polygon fill="midnightblue" stroke="midnightblue" points="266.452,-58.8214 272.564,-67.4751 273.182,-56.8983 266.452,-58.8214"/>
</g>
<!-- Node2&#45;&gt;Node5 -->
<g id="edge4" class="edge"><title>Node2&#45;&gt;Node5</title>
<path fill="none" stroke="midnightblue" d="M307.449,-63.9329C338.547,-52.3683 384.692,-35.2083 412.118,-25.0091"/>
<polygon fill="midnightblue" stroke="midnightblue" points="306.077,-60.709 297.924,-67.4751 308.517,-67.27 306.077,-60.709"/>
</g>
</g>
</svg>
