<?xml version="1.0" encoding="UTF-8" standalone="no"?>
<!DOCTYPE svg PUBLIC "-//W3C//DTD SVG 1.1//EN"
 "http://www.w3.org/Graphics/SVG/1.1/DTD/svg11.dtd">
<!-- Generated by graphviz version 2.38.0 (20140413.2041)
 -->
<!-- Title: xmlserializer/XmlDocSink.h Pages: 1 -->
<svg width="1203pt" height="229pt"
 viewBox="0.00 0.00 1203.00 229.00" xmlns="http://www.w3.org/2000/svg" xmlns:xlink="http://www.w3.org/1999/xlink">
<g id="graph0" class="graph" transform="scale(1 1) rotate(0) translate(4 225)">
<title>xmlserializer/XmlDocSink.h</title>
<polygon fill="white" stroke="none" points="-4,4 -4,-225 1199,-225 1199,4 -4,4"/>
<!-- Node1 -->
<g id="node1" class="node"><title>Node1</title>
<polygon fill="#bfbfbf" stroke="black" points="424.5,-201.5 424.5,-220.5 570.5,-220.5 570.5,-201.5 424.5,-201.5"/>
<text text-anchor="middle" x="497.5" y="-208.5" font-family="Verdana" font-size="10.00">xmlserializer/XmlDocSink.h</text>
</g>
<!-- Node2 -->
<g id="node2" class="node"><title>Node2</title>
<g id="a_node2"><a xlink:href="ParameterMgr_8h.html" target="_top" xlink:title="parameter/ParameterMgr.h">
<polygon fill="white" stroke="black" points="751,-140 751,-159 898,-159 898,-140 751,-140"/>
<text text-anchor="middle" x="824.5" y="-147" font-family="Verdana" font-size="10.00">parameter/ParameterMgr.h</text>
</a>
</g>
</g>
<!-- Node1&#45;&gt;Node2 -->
<g id="edge1" class="edge"><title>Node1&#45;&gt;Node2</title>
<path fill="none" stroke="midnightblue" d="M554.563,-199.617C617.89,-188.094 718.893,-169.716 777.736,-159.009"/>
<polygon fill="midnightblue" stroke="midnightblue" points="553.563,-196.241 544.351,-201.475 554.816,-203.128 553.563,-196.241"/>
</g>
<!-- Node8 -->
<g id="node8" class="node"><title>Node8</title>
<g id="a_node8"><a xlink:href="XmlMemoryDocSink_8h.html" target="_top" xlink:title="xmlserializer/XmlMemoryDoc\lSink.h">
<polygon fill="white" stroke="black" points="247,-134.5 247,-164.5 402,-164.5 402,-134.5 247,-134.5"/>
<text text-anchor="start" x="255" y="-152.5" font-family="Verdana" font-size="10.00">xmlserializer/XmlMemoryDoc</text>
<text text-anchor="middle" x="324.5" y="-141.5" font-family="Verdana" font-size="10.00">Sink.h</text>
</a>
</g>
</g>
<!-- Node1&#45;&gt;Node8 -->
<g id="edge9" class="edge"><title>Node1&#45;&gt;Node8</title>
<path fill="none" stroke="midnightblue" d="M462.909,-198.103C434.759,-188.422 394.97,-174.737 365.273,-164.523"/>
<polygon fill="midnightblue" stroke="midnightblue" points="462.119,-201.532 472.713,-201.475 464.395,-194.913 462.119,-201.532"/>
</g>
<!-- Node11 -->
<g id="node11" class="node"><title>Node11</title>
<g id="a_node11"><a xlink:href="XmlStreamDocSink_8h.html" target="_top" xlink:title="xmlserializer/XmlStreamDoc\lSink.h">
<polygon fill="white" stroke="black" points="421.5,-134.5 421.5,-164.5 573.5,-164.5 573.5,-134.5 421.5,-134.5"/>
<text text-anchor="start" x="429.5" y="-152.5" font-family="Verdana" font-size="10.00">xmlserializer/XmlStreamDoc</text>
<text text-anchor="middle" x="497.5" y="-141.5" font-family="Verdana" font-size="10.00">Sink.h</text>
</a>
</g>
</g>
<!-- Node1&#45;&gt;Node11 -->
<g id="edge13" class="edge"><title>Node1&#45;&gt;Node11</title>
<path fill="none" stroke="midnightblue" d="M497.5,-191.235C497.5,-182.586 497.5,-172.497 497.5,-164.523"/>
<polygon fill="midnightblue" stroke="midnightblue" points="494,-191.475 497.5,-201.475 501,-191.475 494,-191.475"/>
</g>
<!-- Node3 -->
<g id="node3" class="node"><title>Node3</title>
<g id="a_node3"><a xlink:href="ParameterHandle_8cpp.html" target="_top" xlink:title="parameter/ParameterHandle.cpp">
<polygon fill="white" stroke="black" points="679,-73 679,-92 854,-92 854,-73 679,-73"/>
<text text-anchor="middle" x="766.5" y="-80" font-family="Verdana" font-size="10.00">parameter/ParameterHandle.cpp</text>
</a>
</g>
</g>
<!-- Node2&#45;&gt;Node3 -->
<g id="edge2" class="edge"><title>Node2&#45;&gt;Node3</title>
<path fill="none" stroke="midnightblue" d="M809.897,-132.135C798.554,-119.423 783.273,-102.298 774.198,-92.1273"/>
<polygon fill="midnightblue" stroke="midnightblue" points="807.408,-134.603 816.678,-139.734 812.631,-129.942 807.408,-134.603"/>
</g>
<!-- Node4 -->
<g id="node4" class="node"><title>Node4</title>
<g id="a_node4"><a xlink:href="ParameterMgr_8cpp.html" target="_top" xlink:title="parameter/ParameterMgr.cpp">
<polygon fill="white" stroke="black" points="332.5,-73 332.5,-92 490.5,-92 490.5,-73 332.5,-73"/>
<text text-anchor="middle" x="411.5" y="-80" font-family="Verdana" font-size="10.00">parameter/ParameterMgr.cpp</text>
</a>
</g>
</g>
<!-- Node2&#45;&gt;Node4 -->
<g id="edge3" class="edge"><title>Node2&#45;&gt;Node4</title>
<path fill="none" stroke="midnightblue" d="M758.484,-138.423C692.801,-128.355 589.145,-112.35 499.5,-98 487.574,-96.091 474.747,-93.9992 462.673,-92.0132"/>
<polygon fill="midnightblue" stroke="midnightblue" points="758.278,-141.932 768.692,-139.987 759.338,-135.013 758.278,-141.932"/>
</g>
<!-- Node5 -->
<g id="node5" class="node"><title>Node5</title>
<g id="a_node5"><a xlink:href="ParameterMgrFullConnector_8cpp.html" target="_top" xlink:title="parameter/ParameterMgrFull\lConnector.cpp">
<polygon fill="white" stroke="black" points="818.5,-0.5 818.5,-30.5 972.5,-30.5 972.5,-0.5 818.5,-0.5"/>
<text text-anchor="start" x="826.5" y="-18.5" font-family="Verdana" font-size="10.00">parameter/ParameterMgrFull</text>
<text text-anchor="middle" x="895.5" y="-7.5" font-family="Verdana" font-size="10.00">Connector.cpp</text>
</a>
</g>
</g>
<!-- Node2&#45;&gt;Node5 -->
<g id="edge4" class="edge"><title>Node2&#45;&gt;Node5</title>
<path fill="none" stroke="midnightblue" d="M839.213,-131.952C847.126,-122.478 856.639,-110.099 863.5,-98 876.173,-75.6537 886.059,-47.2933 891.315,-30.5979"/>
<polygon fill="midnightblue" stroke="midnightblue" points="836.38,-129.878 832.518,-139.744 841.69,-134.44 836.38,-129.878"/>
</g>
<!-- Node6 -->
<g id="node6" class="node"><title>Node6</title>
<g id="a_node6"><a xlink:href="ParameterMgrLogger_8h.html" target="_top" xlink:title="parameter/ParameterMgrLogger.h">
<polygon fill="white" stroke="black" points="910.5,-73 910.5,-92 1090.5,-92 1090.5,-73 910.5,-73"/>
<text text-anchor="middle" x="1000.5" y="-80" font-family="Verdana" font-size="10.00">parameter/ParameterMgrLogger.h</text>
</a>
</g>
</g>
<!-- Node2&#45;&gt;Node6 -->
<g id="edge5" class="edge"><title>Node2&#45;&gt;Node6</title>
<path fill="none" stroke="midnightblue" d="M857.613,-136.271C892.545,-123.37 946.683,-103.376 977.312,-92.0637"/>
<polygon fill="midnightblue" stroke="midnightblue" points="856.04,-133.121 847.871,-139.869 858.465,-139.687 856.04,-133.121"/>
</g>
<!-- Node7 -->
<g id="node7" class="node"><title>Node7</title>
<g id="a_node7"><a xlink:href="ParameterMgrPlatformConnector_8cpp.html" target="_top" xlink:title="parameter/ParameterMgrPlatform\lConnector.cpp">
<polygon fill="white" stroke="black" points="1016,-0.5 1016,-30.5 1195,-30.5 1195,-0.5 1016,-0.5"/>
<text text-anchor="start" x="1024" y="-18.5" font-family="Verdana" font-size="10.00">parameter/ParameterMgrPlatform</text>
<text text-anchor="middle" x="1105.5" y="-7.5" font-family="Verdana" font-size="10.00">Connector.cpp</text>
</a>
</g>
</g>
<!-- Node2&#45;&gt;Node7 -->
<g id="edge8" class="edge"><title>Node2&#45;&gt;Node7</title>
<path fill="none" stroke="midnightblue" d="M908.56,-144.105C979.885,-138.471 1074.51,-125.849 1099.5,-98 1115.99,-79.6263 1112.83,-48.5784 1109.12,-30.5734"/>
<polygon fill="midnightblue" stroke="midnightblue" points="907.924,-140.643 898.216,-144.887 908.452,-147.623 907.924,-140.643"/>
</g>
<!-- Node6&#45;&gt;Node5 -->
<g id="edge6" class="edge"><title>Node6&#45;&gt;Node5</title>
<path fill="none" stroke="midnightblue" d="M977.81,-67.4538C960.197,-56.5506 935.889,-41.503 918.259,-30.589"/>
<polygon fill="midnightblue" stroke="midnightblue" points="975.994,-70.4462 986.339,-72.7338 979.679,-64.4943 975.994,-70.4462"/>
</g>
<!-- Node6&#45;&gt;Node7 -->
<g id="edge7" class="edge"><title>Node6&#45;&gt;Node7</title>
<path fill="none" stroke="midnightblue" d="M1023.19,-67.4538C1040.8,-56.5506 1065.11,-41.503 1082.74,-30.589"/>
<polygon fill="midnightblue" stroke="midnightblue" points="1021.32,-64.4943 1014.66,-72.7338 1025.01,-70.4462 1021.32,-64.4943"/>
</g>
<!-- Node8&#45;&gt;Node4 -->
<g id="edge10" class="edge"><title>Node8&#45;&gt;Node4</title>
<path fill="none" stroke="midnightblue" d="M351.48,-128.343C367.715,-116.213 387.556,-101.389 399.863,-92.1945"/>
<polygon fill="midnightblue" stroke="midnightblue" points="349.294,-125.607 343.378,-134.396 353.484,-131.215 349.294,-125.607"/>
</g>
<!-- Node9 -->
<g id="node9" class="node"><title>Node9</title>
<g id="a_node9"><a xlink:href="XmlFileIncluderElement_8cpp.html" target="_top" xlink:title="parameter/XmlFileIncluder\lElement.cpp">
<polygon fill="white" stroke="black" points="0,-67.5 0,-97.5 141,-97.5 141,-67.5 0,-67.5"/>
<text text-anchor="start" x="8" y="-85.5" font-family="Verdana" font-size="10.00">parameter/XmlFileIncluder</text>
<text text-anchor="middle" x="70.5" y="-74.5" font-family="Verdana" font-size="10.00">Element.cpp</text>
</a>
</g>
</g>
<!-- Node8&#45;&gt;Node9 -->
<g id="edge11" class="edge"><title>Node8&#45;&gt;Node9</title>
<path fill="none" stroke="midnightblue" d="M259.962,-131.984C218.474,-121.367 165.145,-107.72 125.641,-97.6109"/>
<polygon fill="midnightblue" stroke="midnightblue" points="259.143,-135.387 269.698,-134.476 260.878,-128.606 259.143,-135.387"/>
</g>
<!-- Node10 -->
<g id="node10" class="node"><title>Node10</title>
<g id="a_node10"><a xlink:href="XmlMemoryDocSink_8cpp.html" target="_top" xlink:title="xmlserializer/XmlMemoryDoc\lSink.cpp">
<polygon fill="white" stroke="black" points="159,-67.5 159,-97.5 314,-97.5 314,-67.5 159,-67.5"/>
<text text-anchor="start" x="167" y="-85.5" font-family="Verdana" font-size="10.00">xmlserializer/XmlMemoryDoc</text>
<text text-anchor="middle" x="236.5" y="-74.5" font-family="Verdana" font-size="10.00">Sink.cpp</text>
</a>
</g>
</g>
<!-- Node8&#45;&gt;Node10 -->
<g id="edge12" class="edge"><title>Node8&#45;&gt;Node10</title>
<path fill="none" stroke="midnightblue" d="M297.357,-128.451C283.819,-118.452 267.773,-106.6 255.557,-97.5765"/>
<polygon fill="midnightblue" stroke="midnightblue" points="295.282,-131.27 305.405,-134.396 299.441,-125.639 295.282,-131.27"/>
</g>
<!-- Node11&#45;&gt;Node4 -->
<g id="edge14" class="edge"><title>Node11&#45;&gt;Node4</title>
<path fill="none" stroke="midnightblue" d="M470.83,-128.343C454.781,-116.213 435.168,-101.389 423.004,-92.1945"/>
<polygon fill="midnightblue" stroke="midnightblue" points="468.751,-131.158 478.839,-134.396 472.972,-125.574 468.751,-131.158"/>
</g>
<!-- Node12 -->
<g id="node12" class="node"><title>Node12</title>
<g id="a_node12"><a xlink:href="XmlStreamDocSink_8cpp.html" target="_top" xlink:title="xmlserializer/XmlStreamDoc\lSink.cpp">
<polygon fill="white" stroke="black" points="508.5,-67.5 508.5,-97.5 660.5,-97.5 660.5,-67.5 508.5,-67.5"/>
<text text-anchor="start" x="516.5" y="-85.5" font-family="Verdana" font-size="10.00">xmlserializer/XmlStreamDoc</text>
<text text-anchor="middle" x="584.5" y="-74.5" font-family="Verdana" font-size="10.00">Sink.cpp</text>
</a>
</g>
</g>
<!-- Node11&#45;&gt;Node12 -->
<g id="edge15" class="edge"><title>Node11&#45;&gt;Node12</title>
<path fill="none" stroke="midnightblue" d="M524.714,-128.168C538.018,-118.228 553.696,-106.514 565.659,-97.5765"/>
<polygon fill="midnightblue" stroke="midnightblue" points="522.294,-125.607 516.378,-134.396 526.484,-131.215 522.294,-125.607"/>
</g>
</g>
</svg>
