<?xml version="1.0" encoding="UTF-8" standalone="no"?>
<!DOCTYPE svg PUBLIC "-//W3C//DTD SVG 1.1//EN"
 "http://www.w3.org/Graphics/SVG/1.1/DTD/svg11.dtd">
<!-- Generated by graphviz version 2.36.0 (20140111.2315)
 -->
<!-- Title: parameter/XmlDomainExportContext.h Pages: 1 -->
<svg width="997pt" height="220pt"
 viewBox="0.00 0.00 997.00 220.00" xmlns="http://www.w3.org/2000/svg" xmlns:xlink="http://www.w3.org/1999/xlink">
<g id="graph0" class="graph" transform="scale(1 1) rotate(0) translate(4 216)">
<title>parameter/XmlDomainExportContext.h</title>
<polygon fill="white" stroke="none" points="-4,4 -4,-216 993,-216 993,4 -4,4"/>
<!-- Node1 -->
<g id="node1" class="node"><title>Node1</title>
<polygon fill="#bfbfbf" stroke="black" points="285.5,-181 285.5,-211 442.5,-211 442.5,-181 285.5,-181"/>
<text text-anchor="start" x="293.5" y="-199" font-family="Verdana" font-size="10.00">parameter/XmlDomainExport</text>
<text text-anchor="middle" x="364" y="-188" font-family="Verdana" font-size="10.00">Context.h</text>
</g>
<!-- Node2 -->
<g id="node2" class="node"><title>Node2</title>
<g id="a_node2"><a xlink:href="ConfigurableDomain_8cpp.html" target="_top" xlink:title="parameter/ConfigurableDomain.cpp">
<polygon fill="white" stroke="black" points="0,-124.5 0,-143.5 188,-143.5 188,-124.5 0,-124.5"/>
<text text-anchor="middle" x="94" y="-131.5" font-family="Verdana" font-size="10.00">parameter/ConfigurableDomain.cpp</text>
</a>
</g>
</g>
<!-- Node1&#45;&gt;Node2 -->
<g id="edge1" class="edge"><title>Node1&#45;&gt;Node2</title>
<path fill="none" stroke="midnightblue" d="M290.682,-178.707C239.546,-167.344 173.37,-152.638 132.307,-143.513"/>
<polygon fill="midnightblue" stroke="midnightblue" points="290.176,-182.18 300.697,-180.933 291.694,-175.347 290.176,-182.18"/>
</g>
<!-- Node3 -->
<g id="node3" class="node"><title>Node3</title>
<g id="a_node3"><a xlink:href="DomainConfiguration_8cpp.html" target="_top" xlink:title="parameter/DomainConfiguration.cpp">
<polygon fill="white" stroke="black" points="206,-124.5 206,-143.5 398,-143.5 398,-124.5 206,-124.5"/>
<text text-anchor="middle" x="302" y="-131.5" font-family="Verdana" font-size="10.00">parameter/DomainConfiguration.cpp</text>
</a>
</g>
</g>
<!-- Node1&#45;&gt;Node3 -->
<g id="edge2" class="edge"><title>Node1&#45;&gt;Node3</title>
<path fill="none" stroke="midnightblue" d="M341.909,-173.622C331.268,-163.324 319.097,-151.545 311.022,-143.731"/>
<polygon fill="midnightblue" stroke="midnightblue" points="339.687,-176.342 349.307,-180.781 344.555,-171.311 339.687,-176.342"/>
</g>
<!-- Node4 -->
<g id="node4" class="node"><title>Node4</title>
<g id="a_node4"><a xlink:href="ParameterMgr_8h.html" target="_top" xlink:title="parameter/ParameterMgr.h">
<polygon fill="white" stroke="black" points="553.5,-124.5 553.5,-143.5 700.5,-143.5 700.5,-124.5 553.5,-124.5"/>
<text text-anchor="middle" x="627" y="-131.5" font-family="Verdana" font-size="10.00">parameter/ParameterMgr.h</text>
</a>
</g>
</g>
<!-- Node1&#45;&gt;Node4 -->
<g id="edge3" class="edge"><title>Node1&#45;&gt;Node4</title>
<path fill="none" stroke="midnightblue" d="M435.417,-178.707C485.227,-167.344 549.688,-152.638 589.686,-143.513"/>
<polygon fill="midnightblue" stroke="midnightblue" points="434.633,-175.296 425.662,-180.933 436.19,-182.121 434.633,-175.296"/>
</g>
<!-- Node6 -->
<g id="node6" class="node"><title>Node6</title>
<g id="a_node6"><a xlink:href="ParameterMgr_8cpp.html" target="_top" xlink:title="parameter/ParameterMgr.cpp">
<polygon fill="white" stroke="black" points="297,-68.5 297,-87.5 455,-87.5 455,-68.5 297,-68.5"/>
<text text-anchor="middle" x="376" y="-75.5" font-family="Verdana" font-size="10.00">parameter/ParameterMgr.cpp</text>
</a>
</g>
</g>
<!-- Node1&#45;&gt;Node6 -->
<g id="edge11" class="edge"><title>Node1&#45;&gt;Node6</title>
<path fill="none" stroke="midnightblue" d="M388.008,-173.393C395.591,-165.046 403.025,-154.882 407,-144 414.636,-123.097 396.666,-99.8373 385.007,-87.604"/>
<polygon fill="midnightblue" stroke="midnightblue" points="385.265,-171.193 380.8,-180.802 390.282,-176.074 385.265,-171.193"/>
</g>
<!-- Node5 -->
<g id="node5" class="node"><title>Node5</title>
<g id="a_node5"><a xlink:href="ParameterHandle_8cpp.html" target="_top" xlink:title="parameter/ParameterHandle.cpp">
<polygon fill="white" stroke="black" points="473.5,-68.5 473.5,-87.5 648.5,-87.5 648.5,-68.5 473.5,-68.5"/>
<text text-anchor="middle" x="561" y="-75.5" font-family="Verdana" font-size="10.00">parameter/ParameterHandle.cpp</text>
</a>
</g>
</g>
<!-- Node4&#45;&gt;Node5 -->
<g id="edge4" class="edge"><title>Node4&#45;&gt;Node5</title>
<path fill="none" stroke="midnightblue" d="M608.446,-117.82C596.622,-108.145 581.714,-95.9481 571.797,-87.8339"/>
<polygon fill="midnightblue" stroke="midnightblue" points="606.44,-120.7 616.396,-124.324 610.873,-115.283 606.44,-120.7"/>
</g>
<!-- Node4&#45;&gt;Node6 -->
<g id="edge5" class="edge"><title>Node4&#45;&gt;Node6</title>
<path fill="none" stroke="midnightblue" d="M577.179,-122.281C529.747,-112.077 459.296,-96.9203 415.586,-87.5164"/>
<polygon fill="midnightblue" stroke="midnightblue" points="576.716,-125.762 587.228,-124.444 578.188,-118.918 576.716,-125.762"/>
</g>
<!-- Node7 -->
<g id="node7" class="node"><title>Node7</title>
<g id="a_node7"><a xlink:href="ParameterMgrFullConnector_8cpp.html" target="_top" xlink:title="parameter/ParameterMgrFull\lConnector.cpp">
<polygon fill="white" stroke="black" points="613,-1 613,-31 767,-31 767,-1 613,-1"/>
<text text-anchor="start" x="621" y="-19" font-family="Verdana" font-size="10.00">parameter/ParameterMgrFull</text>
<text text-anchor="middle" x="690" y="-8" font-family="Verdana" font-size="10.00">Connector.cpp</text>
</a>
</g>
</g>
<!-- Node4&#45;&gt;Node7 -->
<g id="edge6" class="edge"><title>Node4&#45;&gt;Node7</title>
<path fill="none" stroke="midnightblue" d="M639.283,-115.92C644.98,-107.671 651.657,-97.518 657,-88 667.713,-68.9171 678.003,-45.7547 684.165,-31.1919"/>
<polygon fill="midnightblue" stroke="midnightblue" points="636.286,-114.097 633.39,-124.288 642.009,-118.127 636.286,-114.097"/>
</g>
<!-- Node8 -->
<g id="node8" class="node"><title>Node8</title>
<g id="a_node8"><a xlink:href="ParameterMgrLogger_8h.html" target="_top" xlink:title="parameter/ParameterMgrLogger.h">
<polygon fill="white" stroke="black" points="705,-68.5 705,-87.5 885,-87.5 885,-68.5 705,-68.5"/>
<text text-anchor="middle" x="795" y="-75.5" font-family="Verdana" font-size="10.00">parameter/ParameterMgrLogger.h</text>
</a>
</g>
</g>
<!-- Node4&#45;&gt;Node8 -->
<g id="edge7" class="edge"><title>Node4&#45;&gt;Node8</title>
<path fill="none" stroke="midnightblue" d="M663.386,-121.304C695.042,-111.129 740.168,-96.6246 768.504,-87.5164"/>
<polygon fill="midnightblue" stroke="midnightblue" points="662.069,-118.051 653.62,-124.444 664.211,-124.715 662.069,-118.051"/>
</g>
<!-- Node9 -->
<g id="node9" class="node"><title>Node9</title>
<g id="a_node9"><a xlink:href="ParameterMgrPlatformConnector_8cpp.html" target="_top" xlink:title="parameter/ParameterMgrPlatform\lConnector.cpp">
<polygon fill="white" stroke="black" points="810.5,-1 810.5,-31 989.5,-31 989.5,-1 810.5,-1"/>
<text text-anchor="start" x="818.5" y="-19" font-family="Verdana" font-size="10.00">parameter/ParameterMgrPlatform</text>
<text text-anchor="middle" x="900" y="-8" font-family="Verdana" font-size="10.00">Connector.cpp</text>
</a>
</g>
</g>
<!-- Node4&#45;&gt;Node9 -->
<g id="edge10" class="edge"><title>Node4&#45;&gt;Node9</title>
<path fill="none" stroke="midnightblue" d="M710.735,-129.812C779.622,-125.292 869.724,-114.371 894,-88 907.992,-72.8012 906.282,-47.2178 903.402,-31.2664"/>
<polygon fill="midnightblue" stroke="midnightblue" points="710.499,-126.32 700.735,-130.434 710.933,-133.307 710.499,-126.32"/>
</g>
<!-- Node8&#45;&gt;Node7 -->
<g id="edge8" class="edge"><title>Node8&#45;&gt;Node7</title>
<path fill="none" stroke="midnightblue" d="M771.251,-63.4292C754.395,-53.7973 731.822,-40.8983 714.746,-31.1408"/>
<polygon fill="midnightblue" stroke="midnightblue" points="769.537,-66.4809 779.956,-68.4035 773.01,-60.4032 769.537,-66.4809"/>
</g>
<!-- Node8&#45;&gt;Node9 -->
<g id="edge9" class="edge"><title>Node8&#45;&gt;Node9</title>
<path fill="none" stroke="midnightblue" d="M818.749,-63.4292C835.605,-53.7973 858.178,-40.8983 875.254,-31.1408"/>
<polygon fill="midnightblue" stroke="midnightblue" points="816.99,-60.4032 810.044,-68.4035 820.463,-66.4809 816.99,-60.4032"/>
</g>
</g>
</svg>
