<?xml version="1.0" encoding="UTF-8" standalone="no"?>
<!DOCTYPE svg PUBLIC "-//W3C//DTD SVG 1.1//EN"
 "http://www.w3.org/Graphics/SVG/1.1/DTD/svg11.dtd">
<!-- Generated by graphviz version 2.38.0 (20140413.2041)
 -->
<!-- Title: /home/dawagner/dev/parameter&#45;framework/parameter/XmlDomainSerializingContext.h Pages: 1 -->
<svg width="1359pt" height="395pt"
 viewBox="0.00 0.00 1359.04 395.00" xmlns="http://www.w3.org/2000/svg" xmlns:xlink="http://www.w3.org/1999/xlink">
<g id="graph0" class="graph" transform="scale(1 1) rotate(0) translate(4 391)">
<title>/home/dawagner/dev/parameter&#45;framework/parameter/XmlDomainSerializingContext.h</title>
<polygon fill="white" stroke="none" points="-4,4 -4,-391 1355.04,-391 1355.04,4 -4,4"/>
<!-- Node1 -->
<g id="node1" class="node"><title>Node1</title>
<polygon fill="#bfbfbf" stroke="black" points="317.041,-334.5 317.041,-386.5 495.041,-386.5 495.041,-334.5 317.041,-334.5"/>
<text text-anchor="start" x="325.041" y="-374.5" font-family="Verdana" font-size="10.00">/home/dawagner/dev</text>
<text text-anchor="start" x="325.041" y="-363.5" font-family="Verdana" font-size="10.00">/parameter&#45;framework</text>
<text text-anchor="start" x="325.041" y="-352.5" font-family="Verdana" font-size="10.00">/parameter/XmlDomainSerializing</text>
<text text-anchor="middle" x="406.041" y="-341.5" font-family="Verdana" font-size="10.00">Context.h</text>
</g>
<!-- Node2 -->
<g id="node2" class="node"><title>Node2</title>
<g id="a_node2"><a xlink:href="XmlDomainImportContext_8h.html" target="_top" xlink:title="/home/dawagner/dev\l/parameter&#45;framework\l/parameter/XmlDomainImportContext.h">
<polygon fill="white" stroke="black" points="230.541,-256.5 230.541,-297.5 437.541,-297.5 437.541,-256.5 230.541,-256.5"/>
<text text-anchor="start" x="238.541" y="-285.5" font-family="Verdana" font-size="10.00">/home/dawagner/dev</text>
<text text-anchor="start" x="238.541" y="-274.5" font-family="Verdana" font-size="10.00">/parameter&#45;framework</text>
<text text-anchor="middle" x="334.041" y="-263.5" font-family="Verdana" font-size="10.00">/parameter/XmlDomainImportContext.h</text>
</a>
</g>
</g>
<!-- Node1&#45;&gt;Node2 -->
<g id="edge1" class="edge"><title>Node1&#45;&gt;Node2</title>
<path fill="none" stroke="midnightblue" d="M376.874,-326.485C368.223,-316.693 359.026,-306.282 351.381,-297.628"/>
<polygon fill="midnightblue" stroke="midnightblue" points="374.41,-328.983 383.654,-334.16 379.656,-324.348 374.41,-328.983"/>
</g>
<!-- Node4 -->
<g id="node4" class="node"><title>Node4</title>
<g id="a_node4"><a xlink:href="ConfigurableDomain_8cpp.html" target="_top" xlink:title="/home/dawagner/dev\l/parameter&#45;framework\l/parameter/ConfigurableDomain.cpp">
<polygon fill="white" stroke="black" points="10.5408,-89.5 10.5408,-130.5 201.541,-130.5 201.541,-89.5 10.5408,-89.5"/>
<text text-anchor="start" x="18.5408" y="-118.5" font-family="Verdana" font-size="10.00">/home/dawagner/dev</text>
<text text-anchor="start" x="18.5408" y="-107.5" font-family="Verdana" font-size="10.00">/parameter&#45;framework</text>
<text text-anchor="middle" x="106.041" y="-96.5" font-family="Verdana" font-size="10.00">/parameter/ConfigurableDomain.cpp</text>
</a>
</g>
</g>
<!-- Node1&#45;&gt;Node4 -->
<g id="edge11" class="edge"><title>Node1&#45;&gt;Node4</title>
<path fill="none" stroke="midnightblue" d="M306.665,-357.528C210.287,-349.487 69.9608,-320.036 9.04079,-220 -3.21101,-199.881 -2.73722,-187.4 9.04079,-167 18.2775,-151.002 34.0167,-139.166 50.1604,-130.606"/>
<polygon fill="midnightblue" stroke="midnightblue" points="306.487,-361.024 316.726,-358.303 307.025,-354.045 306.487,-361.024"/>
</g>
<!-- Node7 -->
<g id="node7" class="node"><title>Node7</title>
<g id="a_node7"><a xlink:href="ParameterMgr_8cpp.html" target="_top" xlink:title="/home/dawagner/dev\l/parameter&#45;framework\l/parameter/ParameterMgr.cpp">
<polygon fill="white" stroke="black" points="647.541,-89.5 647.541,-130.5 808.541,-130.5 808.541,-89.5 647.541,-89.5"/>
<text text-anchor="start" x="655.541" y="-118.5" font-family="Verdana" font-size="10.00">/home/dawagner/dev</text>
<text text-anchor="start" x="655.541" y="-107.5" font-family="Verdana" font-size="10.00">/parameter&#45;framework</text>
<text text-anchor="middle" x="728.041" y="-96.5" font-family="Verdana" font-size="10.00">/parameter/ParameterMgr.cpp</text>
</a>
</g>
</g>
<!-- Node1&#45;&gt;Node7 -->
<g id="edge25" class="edge"><title>Node1&#45;&gt;Node7</title>
<path fill="none" stroke="midnightblue" d="M505.264,-355.328C594.694,-349.238 716.674,-334.334 747.041,-298 787.43,-249.675 756.121,-167.929 738.265,-130.621"/>
<polygon fill="midnightblue" stroke="midnightblue" points="504.827,-351.849 495.076,-355.994 505.283,-358.834 504.827,-351.849"/>
</g>
<!-- Node8 -->
<g id="node8" class="node"><title>Node8</title>
<g id="a_node8"><a xlink:href="DomainConfiguration_8cpp.html" target="_top" xlink:title="/home/dawagner/dev\l/parameter&#45;framework\l/parameter/DomainConfiguration.cpp">
<polygon fill="white" stroke="black" points="467.541,-173 467.541,-214 662.541,-214 662.541,-173 467.541,-173"/>
<text text-anchor="start" x="475.541" y="-202" font-family="Verdana" font-size="10.00">/home/dawagner/dev</text>
<text text-anchor="start" x="475.541" y="-191" font-family="Verdana" font-size="10.00">/parameter&#45;framework</text>
<text text-anchor="middle" x="565.041" y="-180" font-family="Verdana" font-size="10.00">/parameter/DomainConfiguration.cpp</text>
</a>
</g>
</g>
<!-- Node1&#45;&gt;Node8 -->
<g id="edge24" class="edge"><title>Node1&#45;&gt;Node8</title>
<path fill="none" stroke="midnightblue" d="M437.227,-327.137C469.624,-293.517 519.266,-242.002 546.155,-214.099"/>
<polygon fill="midnightblue" stroke="midnightblue" points="434.608,-324.811 430.189,-334.44 439.649,-329.668 434.608,-324.811"/>
</g>
<!-- Node9 -->
<g id="node9" class="node"><title>Node9</title>
<g id="a_node9"><a xlink:href="SelectionCriterionRule_8cpp.html" target="_top" xlink:title="/home/dawagner/dev\l/parameter&#45;framework\l/parameter/SelectionCriterion\lRule.cpp">
<polygon fill="white" stroke="black" points="18.0408,-167.5 18.0408,-219.5 176.041,-219.5 176.041,-167.5 18.0408,-167.5"/>
<text text-anchor="start" x="26.0408" y="-207.5" font-family="Verdana" font-size="10.00">/home/dawagner/dev</text>
<text text-anchor="start" x="26.0408" y="-196.5" font-family="Verdana" font-size="10.00">/parameter&#45;framework</text>
<text text-anchor="start" x="26.0408" y="-185.5" font-family="Verdana" font-size="10.00">/parameter/SelectionCriterion</text>
<text text-anchor="middle" x="97.0408" y="-174.5" font-family="Verdana" font-size="10.00">Rule.cpp</text>
</a>
</g>
</g>
<!-- Node1&#45;&gt;Node9 -->
<g id="edge26" class="edge"><title>Node1&#45;&gt;Node9</title>
<path fill="none" stroke="midnightblue" d="M306.978,-334.109C278.311,-324.784 247.606,-312.798 221.041,-298 182.825,-276.712 145.139,-242.935 121.528,-219.796"/>
<polygon fill="midnightblue" stroke="midnightblue" points="306.022,-337.478 316.613,-337.17 308.142,-330.806 306.022,-337.478"/>
</g>
<!-- Node10 -->
<g id="node10" class="node"><title>Node10</title>
<g id="a_node10"><a xlink:href="XmlDomainExportContext_8h.html" target="_top" xlink:title="/home/dawagner/dev\l/parameter&#45;framework\l/parameter/XmlDomainExportContext.h">
<polygon fill="white" stroke="black" points="532.041,-256.5 532.041,-297.5 738.041,-297.5 738.041,-256.5 532.041,-256.5"/>
<text text-anchor="start" x="540.041" y="-285.5" font-family="Verdana" font-size="10.00">/home/dawagner/dev</text>
<text text-anchor="start" x="540.041" y="-274.5" font-family="Verdana" font-size="10.00">/parameter&#45;framework</text>
<text text-anchor="middle" x="635.041" y="-263.5" font-family="Verdana" font-size="10.00">/parameter/XmlDomainExportContext.h</text>
</a>
</g>
</g>
<!-- Node1&#45;&gt;Node10 -->
<g id="edge12" class="edge"><title>Node1&#45;&gt;Node10</title>
<path fill="none" stroke="midnightblue" d="M485.842,-331.099C517.001,-320.01 551.948,-307.572 580.182,-297.524"/>
<polygon fill="midnightblue" stroke="midnightblue" points="484.552,-327.843 476.305,-334.493 486.899,-334.438 484.552,-327.843"/>
</g>
<!-- Node3 -->
<g id="node3" class="node"><title>Node3</title>
<g id="a_node3"><a xlink:href="ConfigurableDomain_8h.html" target="_top" xlink:title="/home/dawagner/dev\l/parameter&#45;framework\l/parameter/ConfigurableDomain.h">
<polygon fill="white" stroke="black" points="232.041,-173 232.041,-214 412.041,-214 412.041,-173 232.041,-173"/>
<text text-anchor="start" x="240.041" y="-202" font-family="Verdana" font-size="10.00">/home/dawagner/dev</text>
<text text-anchor="start" x="240.041" y="-191" font-family="Verdana" font-size="10.00">/parameter&#45;framework</text>
<text text-anchor="middle" x="322.041" y="-180" font-family="Verdana" font-size="10.00">/parameter/ConfigurableDomain.h</text>
</a>
</g>
</g>
<!-- Node2&#45;&gt;Node3 -->
<g id="edge2" class="edge"><title>Node2&#45;&gt;Node3</title>
<path fill="none" stroke="midnightblue" d="M329.633,-246.065C328.06,-235.382 326.33,-223.63 324.919,-214.047"/>
<polygon fill="midnightblue" stroke="midnightblue" points="326.216,-246.888 331.136,-256.271 333.142,-245.868 326.216,-246.888"/>
</g>
<!-- Node2&#45;&gt;Node4 -->
<g id="edge7" class="edge"><title>Node2&#45;&gt;Node4</title>
<path fill="none" stroke="midnightblue" d="M273.329,-251.913C256.011,-243.372 237.844,-232.673 223.041,-220 201.022,-201.151 205.591,-187.44 185.041,-167 171.214,-153.248 153.697,-140.46 138.674,-130.587"/>
<polygon fill="midnightblue" stroke="midnightblue" points="272.302,-255.3 282.835,-256.435 275.308,-248.979 272.302,-255.3"/>
</g>
<!-- Node2&#45;&gt;Node7 -->
<g id="edge9" class="edge"><title>Node2&#45;&gt;Node7</title>
<path fill="none" stroke="midnightblue" d="M380.044,-251.059C394.053,-242.279 408.934,-231.661 421.041,-220 441.732,-200.071 434.001,-182.728 458.041,-167 526.311,-122.333 558.216,-147.85 638.041,-131 641.016,-130.372 644.046,-129.727 647.105,-129.071"/>
<polygon fill="midnightblue" stroke="midnightblue" points="378.188,-248.092 371.467,-256.281 381.829,-254.071 378.188,-248.092"/>
</g>
<!-- Node2&#45;&gt;Node8 -->
<g id="edge8" class="edge"><title>Node2&#45;&gt;Node8</title>
<path fill="none" stroke="midnightblue" d="M398.997,-253.083C433.896,-240.77 476.464,-225.751 509.762,-214.003"/>
<polygon fill="midnightblue" stroke="midnightblue" points="397.637,-249.851 389.371,-256.479 399.966,-256.452 397.637,-249.851"/>
</g>
<!-- Node2&#45;&gt;Node9 -->
<g id="edge10" class="edge"><title>Node2&#45;&gt;Node9</title>
<path fill="none" stroke="midnightblue" d="M267.618,-253.158C237.219,-242.705 201.112,-230.288 169.962,-219.576"/>
<polygon fill="midnightblue" stroke="midnightblue" points="266.679,-256.537 277.273,-256.479 268.955,-249.917 266.679,-256.537"/>
</g>
<!-- Node3&#45;&gt;Node4 -->
<g id="edge3" class="edge"><title>Node3&#45;&gt;Node4</title>
<path fill="none" stroke="midnightblue" d="M260.884,-169.425C228.33,-157.141 188.732,-142.201 157.73,-130.503"/>
<polygon fill="midnightblue" stroke="midnightblue" points="259.712,-172.723 270.303,-172.979 262.183,-166.174 259.712,-172.723"/>
</g>
<!-- Node5 -->
<g id="node5" class="node"><title>Node5</title>
<g id="a_node5"><a xlink:href="ConfigurableDomains_8cpp.html" target="_top" xlink:title="/home/dawagner/dev\l/parameter&#45;framework\l/parameter/ConfigurableDomains.cpp">
<polygon fill="white" stroke="black" points="219.541,-89.5 219.541,-130.5 416.541,-130.5 416.541,-89.5 219.541,-89.5"/>
<text text-anchor="start" x="227.541" y="-118.5" font-family="Verdana" font-size="10.00">/home/dawagner/dev</text>
<text text-anchor="start" x="227.541" y="-107.5" font-family="Verdana" font-size="10.00">/parameter&#45;framework</text>
<text text-anchor="middle" x="318.041" y="-96.5" font-family="Verdana" font-size="10.00">/parameter/ConfigurableDomains.cpp</text>
</a>
</g>
</g>
<!-- Node3&#45;&gt;Node5 -->
<g id="edge4" class="edge"><title>Node3&#45;&gt;Node5</title>
<path fill="none" stroke="midnightblue" d="M320.572,-162.565C320.047,-151.882 319.471,-140.13 319,-130.547"/>
<polygon fill="midnightblue" stroke="midnightblue" points="317.086,-162.955 321.073,-172.771 324.078,-162.612 317.086,-162.955"/>
</g>
<!-- Node6 -->
<g id="node6" class="node"><title>Node6</title>
<g id="a_node6"><a xlink:href="ConfigurableElement_8cpp.html" target="_top" xlink:title="/home/dawagner/dev\l/parameter&#45;framework\l/parameter/ConfigurableElement.cpp">
<polygon fill="white" stroke="black" points="435.041,-89.5 435.041,-130.5 629.041,-130.5 629.041,-89.5 435.041,-89.5"/>
<text text-anchor="start" x="443.041" y="-118.5" font-family="Verdana" font-size="10.00">/home/dawagner/dev</text>
<text text-anchor="start" x="443.041" y="-107.5" font-family="Verdana" font-size="10.00">/parameter&#45;framework</text>
<text text-anchor="middle" x="532.041" y="-96.5" font-family="Verdana" font-size="10.00">/parameter/ConfigurableElement.cpp</text>
</a>
</g>
</g>
<!-- Node3&#45;&gt;Node6 -->
<g id="edge5" class="edge"><title>Node3&#45;&gt;Node6</title>
<path fill="none" stroke="midnightblue" d="M381.907,-169.266C413.479,-157.013 451.776,-142.151 481.787,-130.503"/>
<polygon fill="midnightblue" stroke="midnightblue" points="380.397,-166.098 372.341,-172.979 382.93,-172.624 380.397,-166.098"/>
</g>
<!-- Node3&#45;&gt;Node7 -->
<g id="edge6" class="edge"><title>Node3&#45;&gt;Node7</title>
<path fill="none" stroke="midnightblue" d="M408.899,-170.709C414.69,-169.409 420.443,-168.16 426.041,-167 519.624,-147.608 544.252,-149.372 638.041,-131 641.025,-130.415 644.062,-129.807 647.128,-129.183"/>
<polygon fill="midnightblue" stroke="midnightblue" points="408.108,-167.3 399.138,-172.939 409.667,-174.124 408.108,-167.3"/>
</g>
<!-- Node10&#45;&gt;Node4 -->
<g id="edge13" class="edge"><title>Node10&#45;&gt;Node4</title>
<path fill="none" stroke="midnightblue" d="M657.901,-248.118C674.85,-223.93 691.74,-189.379 671.041,-167 636.154,-129.282 260.959,-137.862 210.041,-131 207.308,-130.632 204.538,-130.238 201.744,-129.823"/>
<polygon fill="midnightblue" stroke="midnightblue" points="655.061,-246.072 651.965,-256.204 660.704,-250.214 655.061,-246.072"/>
</g>
<!-- Node10&#45;&gt;Node7 -->
<g id="edge23" class="edge"><title>Node10&#45;&gt;Node7</title>
<path fill="none" stroke="midnightblue" d="M675.812,-250.36C686.423,-241.887 696.875,-231.613 704.041,-220 721.237,-192.132 726.188,-153.555 727.568,-130.554"/>
<polygon fill="midnightblue" stroke="midnightblue" points="673.583,-247.658 667.718,-256.481 677.805,-253.241 673.583,-247.658"/>
</g>
<!-- Node10&#45;&gt;Node8 -->
<g id="edge14" class="edge"><title>Node10&#45;&gt;Node8</title>
<path fill="none" stroke="midnightblue" d="M611.321,-248.383C601.636,-237.107 590.661,-224.329 581.83,-214.047"/>
<polygon fill="midnightblue" stroke="midnightblue" points="608.925,-250.966 618.096,-256.271 614.235,-246.405 608.925,-250.966"/>
</g>
<!-- Node11 -->
<g id="node11" class="node"><title>Node11</title>
<g id="a_node11"><a xlink:href="ParameterMgr_8h.html" target="_top" xlink:title="/home/dawagner/dev\l/parameter&#45;framework\l/parameter/ParameterMgr.h">
<polygon fill="white" stroke="black" points="899.041,-173 899.041,-214 1049.04,-214 1049.04,-173 899.041,-173"/>
<text text-anchor="start" x="907.041" y="-202" font-family="Verdana" font-size="10.00">/home/dawagner/dev</text>
<text text-anchor="start" x="907.041" y="-191" font-family="Verdana" font-size="10.00">/parameter&#45;framework</text>
<text text-anchor="middle" x="974.041" y="-180" font-family="Verdana" font-size="10.00">/parameter/ParameterMgr.h</text>
</a>
</g>
</g>
<!-- Node10&#45;&gt;Node11 -->
<g id="edge15" class="edge"><title>Node10&#45;&gt;Node11</title>
<path fill="none" stroke="midnightblue" d="M726.175,-254.09C780.27,-241.085 848.021,-224.797 899.012,-212.538"/>
<polygon fill="midnightblue" stroke="midnightblue" points="725.145,-250.738 716.24,-256.479 726.781,-257.544 725.145,-250.738"/>
</g>
<!-- Node11&#45;&gt;Node7 -->
<g id="edge17" class="edge"><title>Node11&#45;&gt;Node7</title>
<path fill="none" stroke="midnightblue" d="M905.343,-169.74C868.089,-157.398 822.52,-142.301 786.909,-130.503"/>
<polygon fill="midnightblue" stroke="midnightblue" points="904.524,-173.156 915.118,-172.979 906.726,-166.511 904.524,-173.156"/>
</g>
<!-- Node12 -->
<g id="node12" class="node"><title>Node12</title>
<g id="a_node12"><a xlink:href="ParameterHandle_8cpp.html" target="_top" xlink:title="/home/dawagner/dev\l/parameter&#45;framework\l/parameter/ParameterHandle.cpp">
<polygon fill="white" stroke="black" points="827.041,-89.5 827.041,-130.5 1005.04,-130.5 1005.04,-89.5 827.041,-89.5"/>
<text text-anchor="start" x="835.041" y="-118.5" font-family="Verdana" font-size="10.00">/home/dawagner/dev</text>
<text text-anchor="start" x="835.041" y="-107.5" font-family="Verdana" font-size="10.00">/parameter&#45;framework</text>
<text text-anchor="middle" x="916.041" y="-96.5" font-family="Verdana" font-size="10.00">/parameter/ParameterHandle.cpp</text>
</a>
</g>
</g>
<!-- Node11&#45;&gt;Node12 -->
<g id="edge16" class="edge"><title>Node11&#45;&gt;Node12</title>
<path fill="none" stroke="midnightblue" d="M954.153,-164.554C946.186,-153.359 937.198,-140.729 929.952,-130.547"/>
<polygon fill="midnightblue" stroke="midnightblue" points="951.351,-166.653 960.001,-172.771 957.054,-162.594 951.351,-166.653"/>
</g>
<!-- Node13 -->
<g id="node13" class="node"><title>Node13</title>
<g id="a_node13"><a xlink:href="ParameterMgrFullConnector_8cpp.html" target="_top" xlink:title="/home/dawagner/dev\l/parameter&#45;framework\l/parameter/ParameterMgrFull\lConnector.cpp">
<polygon fill="white" stroke="black" points="967.541,-0.5 967.541,-52.5 1124.54,-52.5 1124.54,-0.5 967.541,-0.5"/>
<text text-anchor="start" x="975.541" y="-40.5" font-family="Verdana" font-size="10.00">/home/dawagner/dev</text>
<text text-anchor="start" x="975.541" y="-29.5" font-family="Verdana" font-size="10.00">/parameter&#45;framework</text>
<text text-anchor="start" x="975.541" y="-18.5" font-family="Verdana" font-size="10.00">/parameter/ParameterMgrFull</text>
<text text-anchor="middle" x="1046.04" y="-7.5" font-family="Verdana" font-size="10.00">Connector.cpp</text>
</a>
</g>
</g>
<!-- Node11&#45;&gt;Node13 -->
<g id="edge18" class="edge"><title>Node11&#45;&gt;Node13</title>
<path fill="none" stroke="midnightblue" d="M994.684,-164.362C1001.5,-154.202 1008.69,-142.418 1014.04,-131 1026.01,-105.454 1034.94,-74.311 1040.28,-52.9003"/>
<polygon fill="midnightblue" stroke="midnightblue" points="991.646,-162.602 988.852,-172.822 997.409,-166.575 991.646,-162.602"/>
</g>
<!-- Node14 -->
<g id="node14" class="node"><title>Node14</title>
<g id="a_node14"><a xlink:href="ParameterMgrLogger_8h.html" target="_top" xlink:title="/home/dawagner/dev\l/parameter&#45;framework\l/parameter/ParameterMgrLogger.h">
<polygon fill="white" stroke="black" points="1061.54,-89.5 1061.54,-130.5 1244.54,-130.5 1244.54,-89.5 1061.54,-89.5"/>
<text text-anchor="start" x="1069.54" y="-118.5" font-family="Verdana" font-size="10.00">/home/dawagner/dev</text>
<text text-anchor="start" x="1069.54" y="-107.5" font-family="Verdana" font-size="10.00">/parameter&#45;framework</text>
<text text-anchor="middle" x="1153.04" y="-96.5" font-family="Verdana" font-size="10.00">/parameter/ParameterMgrLogger.h</text>
</a>
</g>
</g>
<!-- Node11&#45;&gt;Node14 -->
<g id="edge19" class="edge"><title>Node11&#45;&gt;Node14</title>
<path fill="none" stroke="midnightblue" d="M1026.12,-168.79C1052.82,-156.629 1084.96,-142 1110.21,-130.503"/>
<polygon fill="midnightblue" stroke="midnightblue" points="1024.57,-165.65 1016.92,-172.979 1027.47,-172.02 1024.57,-165.65"/>
</g>
<!-- Node15 -->
<g id="node15" class="node"><title>Node15</title>
<g id="a_node15"><a xlink:href="ParameterMgrPlatformConnector_8cpp.html" target="_top" xlink:title="/home/dawagner/dev\l/parameter&#45;framework\l/parameter/ParameterMgrPlatform\lConnector.cpp">
<polygon fill="white" stroke="black" points="1169.04,-0.5 1169.04,-52.5 1351.04,-52.5 1351.04,-0.5 1169.04,-0.5"/>
<text text-anchor="start" x="1177.04" y="-40.5" font-family="Verdana" font-size="10.00">/home/dawagner/dev</text>
<text text-anchor="start" x="1177.04" y="-29.5" font-family="Verdana" font-size="10.00">/parameter&#45;framework</text>
<text text-anchor="start" x="1177.04" y="-18.5" font-family="Verdana" font-size="10.00">/parameter/ParameterMgrPlatform</text>
<text text-anchor="middle" x="1260.04" y="-7.5" font-family="Verdana" font-size="10.00">Connector.cpp</text>
</a>
</g>
</g>
<!-- Node11&#45;&gt;Node15 -->
<g id="edge22" class="edge"><title>Node11&#45;&gt;Node15</title>
<path fill="none" stroke="midnightblue" d="M1059.44,-184.955C1132.29,-176.592 1229.09,-160.248 1254.04,-131 1272.26,-109.638 1270.51,-75.8774 1266.35,-52.7616"/>
<polygon fill="midnightblue" stroke="midnightblue" points="1058.88,-181.496 1049.33,-186.083 1059.66,-188.452 1058.88,-181.496"/>
</g>
<!-- Node14&#45;&gt;Node13 -->
<g id="edge20" class="edge"><title>Node14&#45;&gt;Node13</title>
<path fill="none" stroke="midnightblue" d="M1119.28,-83.2888C1106.48,-73.5328 1091.91,-62.4391 1079.16,-52.7281"/>
<polygon fill="midnightblue" stroke="midnightblue" points="1117.34,-86.2037 1127.41,-89.4787 1121.58,-80.6351 1117.34,-86.2037"/>
</g>
<!-- Node14&#45;&gt;Node15 -->
<g id="edge21" class="edge"><title>Node14&#45;&gt;Node15</title>
<path fill="none" stroke="midnightblue" d="M1186.8,-83.2888C1199.61,-73.5328 1214.17,-62.4391 1226.92,-52.7281"/>
<polygon fill="midnightblue" stroke="midnightblue" points="1184.5,-80.6351 1178.67,-89.4787 1188.75,-86.2037 1184.5,-80.6351"/>
</g>
</g>
</svg>
