<?xml version="1.0" encoding="UTF-8" standalone="no"?>
<!DOCTYPE svg PUBLIC "-//W3C//DTD SVG 1.1//EN"
 "http://www.w3.org/Graphics/SVG/1.1/DTD/svg11.dtd">
<!-- Generated by graphviz version 2.38.0 (20140413.2041)
 -->
<!-- Title: parameter/XmlElementSerializingContext.cpp Pages: 1 -->
<svg width="208pt" height="207pt"
 viewBox="0.00 0.00 207.50 207.00" xmlns="http://www.w3.org/2000/svg" xmlns:xlink="http://www.w3.org/1999/xlink">
<g id="graph0" class="graph" transform="scale(1 1) rotate(0) translate(4 203)">
<title>parameter/XmlElementSerializingContext.cpp</title>
<polygon fill="white" stroke="none" points="-4,4 -4,-203 203.5,-203 203.5,4 -4,4"/>
<!-- Node1 -->
<g id="node1" class="node"><title>Node1</title>
<polygon fill="#bfbfbf" stroke="black" points="22.5,-168.5 22.5,-198.5 199.5,-198.5 199.5,-168.5 22.5,-168.5"/>
<text text-anchor="start" x="30.5" y="-186.5" font-family="Verdana" font-size="10.00">parameter/XmlElementSerializing</text>
<text text-anchor="middle" x="111" y="-175.5" font-family="Verdana" font-size="10.00">Context.cpp</text>
</g>
<!-- Node2 -->
<g id="node2" class="node"><title>Node2</title>
<g id="a_node2"><a xlink:href="XmlElementSerializingContext_8h.html" target="_top" xlink:title="XmlElementSerializingContext.h">
<polygon fill="white" stroke="black" points="26,-112.5 26,-131.5 196,-131.5 196,-112.5 26,-112.5"/>
<text text-anchor="middle" x="111" y="-119.5" font-family="Verdana" font-size="10.00">XmlElementSerializingContext.h</text>
</a>
</g>
</g>
<!-- Node1&#45;&gt;Node2 -->
<g id="edge1" class="edge"><title>Node1&#45;&gt;Node2</title>
<path fill="none" stroke="midnightblue" d="M111,-168.399C111,-160.466 111,-150.458 111,-141.858"/>
<polygon fill="midnightblue" stroke="midnightblue" points="114.5,-141.658 111,-131.658 107.5,-141.658 114.5,-141.658"/>
</g>
<!-- Node3 -->
<g id="node3" class="node"><title>Node3</title>
<g id="a_node3"><a xlink:href="XmlSerializingContext_8h.html" target="_top" xlink:title="XmlSerializingContext.h">
<polygon fill="white" stroke="black" points="0,-56.5 0,-75.5 130,-75.5 130,-56.5 0,-56.5"/>
<text text-anchor="middle" x="65" y="-63.5" font-family="Verdana" font-size="10.00">XmlSerializingContext.h</text>
</a>
</g>
</g>
<!-- Node2&#45;&gt;Node3 -->
<g id="edge2" class="edge"><title>Node2&#45;&gt;Node3</title>
<path fill="none" stroke="midnightblue" d="M103.404,-112.083C96.7725,-104.298 86.979,-92.8015 78.9419,-83.3665"/>
<polygon fill="midnightblue" stroke="midnightblue" points="81.6037,-81.0939 72.4546,-75.7511 76.275,-85.6332 81.6037,-81.0939"/>
</g>
<!-- Node4 -->
<g id="node4" class="node"><title>Node4</title>
<polygon fill="white" stroke="#bfbfbf" points="89,-0.5 89,-19.5 133,-19.5 133,-0.5 89,-0.5"/>
<text text-anchor="middle" x="111" y="-7.5" font-family="Verdana" font-size="10.00">string</text>
</g>
<!-- Node2&#45;&gt;Node4 -->
<g id="edge4" class="edge"><title>Node2&#45;&gt;Node4</title>
<path fill="none" stroke="midnightblue" d="M118.887,-112.431C129.125,-100.24 145.008,-77.0297 139,-56 136.098,-45.8435 130.168,-35.747 124.51,-27.6991"/>
<polygon fill="midnightblue" stroke="midnightblue" points="127.219,-25.4786 118.412,-19.5891 121.624,-29.6853 127.219,-25.4786"/>
</g>
<!-- Node3&#45;&gt;Node4 -->
<g id="edge3" class="edge"><title>Node3&#45;&gt;Node4</title>
<path fill="none" stroke="midnightblue" d="M72.596,-56.083C79.2275,-48.2982 89.021,-36.8015 97.0581,-27.3665"/>
<polygon fill="midnightblue" stroke="midnightblue" points="99.725,-29.6332 103.545,-19.7511 94.3963,-25.0939 99.725,-29.6332"/>
</g>
</g>
</svg>
