<?xml version="1.0" encoding="UTF-8" standalone="no"?>
<!DOCTYPE svg PUBLIC "-//W3C//DTD SVG 1.1//EN"
 "http://www.w3.org/Graphics/SVG/1.1/DTD/svg11.dtd">
<!-- Generated by graphviz version 2.36.0 (20140111.2315)
 -->
<!-- Title: parameter/XmlElementSerializingContext.cpp Pages: 1 -->
<svg width="279pt" height="152pt"
 viewBox="0.00 0.00 279.00 152.00" xmlns="http://www.w3.org/2000/svg" xmlns:xlink="http://www.w3.org/1999/xlink">
<g id="graph0" class="graph" transform="scale(1 1) rotate(0) translate(4 148)">
<title>parameter/XmlElementSerializingContext.cpp</title>
<polygon fill="white" stroke="none" points="-4,4 -4,-148 275,-148 275,4 -4,4"/>
<!-- Node1 -->
<g id="node1" class="node"><title>Node1</title>
<polygon fill="#bfbfbf" stroke="black" points="92.5,-113 92.5,-143 269.5,-143 269.5,-113 92.5,-113"/>
<text text-anchor="start" x="100.5" y="-131" font-family="Verdana" font-size="10.00">parameter/XmlElementSerializing</text>
<text text-anchor="middle" x="181" y="-120" font-family="Verdana" font-size="10.00">Context.cpp</text>
</g>
<!-- Node2 -->
<g id="node2" class="node"><title>Node2</title>
<g id="a_node2"><a xlink:href="XmlElementSerializingContext_8h.html" target="_top" xlink:title="XmlElementSerializingContext.h">
<polygon fill="white" stroke="black" points="32,-56.5 32,-75.5 202,-75.5 202,-56.5 32,-56.5"/>
<text text-anchor="middle" x="117" y="-63.5" font-family="Verdana" font-size="10.00">XmlElementSerializingContext.h</text>
</a>
</g>
</g>
<!-- Node1&#45;&gt;Node2 -->
<g id="edge1" class="edge"><title>Node1&#45;&gt;Node2</title>
<path fill="none" stroke="midnightblue" d="M165.833,-112.781C156.149,-103.703 143.591,-91.9291 133.635,-82.5951"/>
<polygon fill="midnightblue" stroke="midnightblue" points="136.002,-80.0166 126.313,-75.7305 131.214,-85.1234 136.002,-80.0166"/>
</g>
<!-- Node5 -->
<g id="node5" class="node"><title>Node5</title>
<polygon fill="white" stroke="#bfbfbf" points="220.5,-56.5 220.5,-75.5 271.5,-75.5 271.5,-56.5 220.5,-56.5"/>
<text text-anchor="middle" x="246" y="-63.5" font-family="Verdana" font-size="10.00">stdlib.h</text>
</g>
<!-- Node1&#45;&gt;Node5 -->
<g id="edge4" class="edge"><title>Node1&#45;&gt;Node5</title>
<path fill="none" stroke="midnightblue" d="M196.404,-112.781C206.239,-103.703 218.993,-91.9291 229.105,-82.5951"/>
<polygon fill="midnightblue" stroke="midnightblue" points="231.568,-85.0852 236.542,-75.7305 226.82,-79.9415 231.568,-85.0852"/>
</g>
<!-- Node3 -->
<g id="node3" class="node"><title>Node3</title>
<polygon fill="white" stroke="#bfbfbf" points="0,-0.5 0,-19.5 130,-19.5 130,-0.5 0,-0.5"/>
<text text-anchor="middle" x="65" y="-7.5" font-family="Verdana" font-size="10.00">XmlSerializingContext.h</text>
</g>
<!-- Node2&#45;&gt;Node3 -->
<g id="edge2" class="edge"><title>Node2&#45;&gt;Node3</title>
<path fill="none" stroke="midnightblue" d="M108.413,-56.083C100.841,-48.2195 89.6218,-36.5688 80.4856,-27.0813"/>
<polygon fill="midnightblue" stroke="midnightblue" points="82.8845,-24.5266 73.427,-19.7511 77.8423,-29.3821 82.8845,-24.5266"/>
</g>
<!-- Node4 -->
<g id="node4" class="node"><title>Node4</title>
<polygon fill="white" stroke="#bfbfbf" points="148,-0.5 148,-19.5 192,-19.5 192,-0.5 148,-0.5"/>
<text text-anchor="middle" x="170" y="-7.5" font-family="Verdana" font-size="10.00">string</text>
</g>
<!-- Node2&#45;&gt;Node4 -->
<g id="edge3" class="edge"><title>Node2&#45;&gt;Node4</title>
<path fill="none" stroke="midnightblue" d="M125.752,-56.083C133.47,-48.2195 144.905,-36.5688 154.217,-27.0813"/>
<polygon fill="midnightblue" stroke="midnightblue" points="156.904,-29.3396 161.411,-19.7511 151.908,-24.4363 156.904,-29.3396"/>
</g>
</g>
</svg>
