<?xml version="1.0" encoding="UTF-8" standalone="no"?>
<!DOCTYPE svg PUBLIC "-//W3C//DTD SVG 1.1//EN"
 "http://www.w3.org/Graphics/SVG/1.1/DTD/svg11.dtd">
<!-- Generated by graphviz version 2.36.0 (20140111.2315)
 -->
<!-- Title: parameter/XmlFileIncluderElement.h Pages: 1 -->
<svg width="543pt" height="264pt"
 viewBox="0.00 0.00 543.00 264.00" xmlns="http://www.w3.org/2000/svg" xmlns:xlink="http://www.w3.org/1999/xlink">
<g id="graph0" class="graph" transform="scale(1 1) rotate(0) translate(4 260)">
<title>parameter/XmlFileIncluderElement.h</title>
<polygon fill="white" stroke="none" points="-4,4 -4,-260 539,-260 539,4 -4,4"/>
<!-- Node1 -->
<g id="node1" class="node"><title>Node1</title>
<polygon fill="#bfbfbf" stroke="black" points="-0.5,-225 -0.5,-255 140.5,-255 140.5,-225 -0.5,-225"/>
<text text-anchor="start" x="7.5" y="-243" font-family="Verdana" font-size="10.00">parameter/XmlFileIncluder</text>
<text text-anchor="middle" x="70" y="-232" font-family="Verdana" font-size="10.00">Element.h</text>
</g>
<!-- Node2 -->
<g id="node2" class="node"><title>Node2</title>
<g id="a_node2"><a xlink:href="KindElement_8h.html" target="_top" xlink:title="KindElement.h">
<polygon fill="white" stroke="black" points="63,-168.5 63,-187.5 149,-187.5 149,-168.5 63,-168.5"/>
<text text-anchor="middle" x="106" y="-175.5" font-family="Verdana" font-size="10.00">KindElement.h</text>
</a>
</g>
</g>
<!-- Node1&#45;&gt;Node2 -->
<g id="edge1" class="edge"><title>Node1&#45;&gt;Node2</title>
<path fill="none" stroke="midnightblue" d="M78.5315,-224.781C83.6009,-216.332 90.0711,-205.548 95.4584,-196.569"/>
<polygon fill="midnightblue" stroke="midnightblue" points="98.6179,-198.106 100.762,-187.731 92.6154,-194.505 98.6179,-198.106"/>
</g>
<!-- Node4 -->
<g id="node4" class="node"><title>Node4</title>
<polygon fill="white" stroke="#bfbfbf" points="70,-0.5 70,-19.5 114,-19.5 114,-0.5 70,-0.5"/>
<text text-anchor="middle" x="92" y="-7.5" font-family="Verdana" font-size="10.00">string</text>
</g>
<!-- Node1&#45;&gt;Node4 -->
<g id="edge14" class="edge"><title>Node1&#45;&gt;Node4</title>
<path fill="none" stroke="midnightblue" d="M64.3334,-224.986C60.5679,-214.891 55.9671,-200.842 54,-188 45.0213,-129.385 69.9176,-61.0278 83.6341,-29.1261"/>
<polygon fill="midnightblue" stroke="midnightblue" points="86.9286,-30.3311 87.7921,-19.7715 80.532,-27.4879 86.9286,-30.3311"/>
</g>
<!-- Node3 -->
<g id="node3" class="node"><title>Node3</title>
<g id="a_node3"><a xlink:href="Element_8h.html" target="_top" xlink:title="Element.h">
<polygon fill="white" stroke="black" points="230.5,-112.5 230.5,-131.5 295.5,-131.5 295.5,-112.5 230.5,-112.5"/>
<text text-anchor="middle" x="263" y="-119.5" font-family="Verdana" font-size="10.00">Element.h</text>
</a>
</g>
</g>
<!-- Node2&#45;&gt;Node3 -->
<g id="edge2" class="edge"><title>Node2&#45;&gt;Node3</title>
<path fill="none" stroke="midnightblue" d="M130.877,-168.444C157.289,-159.359 199.215,-144.939 228.742,-134.783"/>
<polygon fill="midnightblue" stroke="midnightblue" points="229.921,-138.079 238.239,-131.516 227.645,-131.459 229.921,-138.079"/>
</g>
<!-- Node2&#45;&gt;Node4 -->
<g id="edge13" class="edge"><title>Node2&#45;&gt;Node4</title>
<path fill="none" stroke="midnightblue" d="M105.247,-168.075C103.044,-141.945 96.572,-65.2106 93.5667,-29.577"/>
<polygon fill="midnightblue" stroke="midnightblue" points="97.0507,-29.2386 92.7226,-19.5681 90.0755,-29.8269 97.0507,-29.2386"/>
</g>
<!-- Node3&#45;&gt;Node4 -->
<g id="edge3" class="edge"><title>Node3&#45;&gt;Node4</title>
<path fill="none" stroke="midnightblue" d="M230.34,-116.559C201.314,-111.187 159.095,-99.7213 130,-76 115,-63.7699 104.639,-43.9437 98.5696,-29.3991"/>
<polygon fill="midnightblue" stroke="midnightblue" points="101.777,-27.9885 94.9031,-19.926 95.2486,-30.5152 101.777,-27.9885"/>
</g>
<!-- Node5 -->
<g id="node5" class="node"><title>Node5</title>
<polygon fill="white" stroke="#bfbfbf" points="488.5,-0.5 488.5,-19.5 535.5,-19.5 535.5,-0.5 488.5,-0.5"/>
<text text-anchor="middle" x="512" y="-7.5" font-family="Verdana" font-size="10.00">vector</text>
</g>
<!-- Node3&#45;&gt;Node5 -->
<g id="edge4" class="edge"><title>Node3&#45;&gt;Node5</title>
<path fill="none" stroke="midnightblue" d="M295.703,-117.973C349.731,-112.385 454.499,-98.8806 483,-76 497.282,-64.5341 504.747,-44.5561 508.502,-29.7662"/>
<polygon fill="midnightblue" stroke="midnightblue" points="511.987,-30.2111 510.701,-19.6946 505.148,-28.7177 511.987,-30.2111"/>
</g>
<!-- Node6 -->
<g id="node6" class="node"><title>Node6</title>
<polygon fill="white" stroke="#bfbfbf" points="395.5,-0.5 395.5,-19.5 448.5,-19.5 448.5,-0.5 395.5,-0.5"/>
<text text-anchor="middle" x="422" y="-7.5" font-family="Verdana" font-size="10.00">stdint.h</text>
</g>
<!-- Node3&#45;&gt;Node6 -->
<g id="edge5" class="edge"><title>Node3&#45;&gt;Node6</title>
<path fill="none" stroke="midnightblue" d="M295.52,-118.619C347.346,-114.073 444.986,-102.182 466,-76 479.268,-59.4693 460.168,-39.0299 443.136,-25.5346"/>
<polygon fill="midnightblue" stroke="midnightblue" points="445.196,-22.7042 435.092,-19.515 441.002,-28.3087 445.196,-22.7042"/>
</g>
<!-- Node7 -->
<g id="node7" class="node"><title>Node7</title>
<polygon fill="white" stroke="#bfbfbf" points="139,-56.5 139,-75.5 169,-75.5 169,-56.5 139,-56.5"/>
<text text-anchor="middle" x="154" y="-63.5" font-family="Verdana" font-size="10.00">list</text>
</g>
<!-- Node3&#45;&gt;Node7 -->
<g id="edge6" class="edge"><title>Node3&#45;&gt;Node7</title>
<path fill="none" stroke="midnightblue" d="M245.487,-112.324C227.2,-103.264 198.394,-88.9933 177.996,-78.8881"/>
<polygon fill="midnightblue" stroke="midnightblue" points="179.527,-75.7407 169.013,-74.4376 176.42,-82.0131 179.527,-75.7407"/>
</g>
<!-- Node8 -->
<g id="node8" class="node"><title>Node8</title>
<polygon fill="white" stroke="#bfbfbf" points="187,-56.5 187,-75.5 251,-75.5 251,-56.5 187,-56.5"/>
<text text-anchor="middle" x="219" y="-63.5" font-family="Verdana" font-size="10.00">XmlSink.h</text>
</g>
<!-- Node3&#45;&gt;Node8 -->
<g id="edge7" class="edge"><title>Node3&#45;&gt;Node8</title>
<path fill="none" stroke="midnightblue" d="M255.734,-112.083C249.455,-104.377 240.212,-93.0333 232.569,-83.6531"/>
<polygon fill="midnightblue" stroke="midnightblue" points="235.161,-81.2926 226.131,-75.7511 229.734,-85.7143 235.161,-81.2926"/>
</g>
<!-- Node9 -->
<g id="node9" class="node"><title>Node9</title>
<polygon fill="white" stroke="#bfbfbf" points="269.5,-56.5 269.5,-75.5 346.5,-75.5 346.5,-56.5 269.5,-56.5"/>
<text text-anchor="middle" x="308" y="-63.5" font-family="Verdana" font-size="10.00">XmlSource.h</text>
</g>
<!-- Node3&#45;&gt;Node9 -->
<g id="edge8" class="edge"><title>Node3&#45;&gt;Node9</title>
<path fill="none" stroke="midnightblue" d="M270.431,-112.083C276.853,-104.377 286.306,-93.0333 294.122,-83.6531"/>
<polygon fill="midnightblue" stroke="midnightblue" points="296.994,-85.674 300.707,-75.7511 291.617,-81.1927 296.994,-85.674"/>
</g>
<!-- Node10 -->
<g id="node10" class="node"><title>Node10</title>
<g id="a_node10"><a xlink:href="PathNavigator_8h.html" target="_top" xlink:title="PathNavigator.h">
<polygon fill="white" stroke="black" points="365,-56.5 365,-75.5 457,-75.5 457,-56.5 365,-56.5"/>
<text text-anchor="middle" x="411" y="-63.5" font-family="Verdana" font-size="10.00">PathNavigator.h</text>
</a>
</g>
</g>
<!-- Node3&#45;&gt;Node10 -->
<g id="edge9" class="edge"><title>Node3&#45;&gt;Node10</title>
<path fill="none" stroke="midnightblue" d="M286.451,-112.444C311.133,-103.438 350.185,-89.1891 377.977,-79.049"/>
<polygon fill="midnightblue" stroke="midnightblue" points="379.464,-82.2321 387.659,-75.5164 377.065,-75.6561 379.464,-82.2321"/>
</g>
<!-- Node10&#45;&gt;Node4 -->
<g id="edge11" class="edge"><title>Node10&#45;&gt;Node4</title>
<path fill="none" stroke="midnightblue" d="M364.955,-57.2056C299.469,-46.1202 181.08,-26.0794 124.206,-16.4518"/>
<polygon fill="midnightblue" stroke="midnightblue" points="124.451,-12.9435 114.007,-14.7253 123.282,-19.8453 124.451,-12.9435"/>
</g>
<!-- Node10&#45;&gt;Node5 -->
<g id="edge10" class="edge"><title>Node10&#45;&gt;Node5</title>
<path fill="none" stroke="midnightblue" d="M427.227,-56.324C443.351,-47.7034 468.3,-34.3643 486.964,-24.3855"/>
<polygon fill="midnightblue" stroke="midnightblue" points="488.644,-27.456 495.813,-19.6545 485.344,-21.283 488.644,-27.456"/>
</g>
<!-- Node10&#45;&gt;Node6 -->
<g id="edge12" class="edge"><title>Node10&#45;&gt;Node6</title>
<path fill="none" stroke="midnightblue" d="M412.816,-56.083C414.274,-48.9272 416.371,-38.6353 418.193,-29.6911"/>
<polygon fill="midnightblue" stroke="midnightblue" points="421.651,-30.2485 420.217,-19.7511 414.792,-28.8512 421.651,-30.2485"/>
</g>
</g>
</svg>
