<?xml version="1.0" encoding="UTF-8" standalone="no"?>
<!DOCTYPE svg PUBLIC "-//W3C//DTD SVG 1.1//EN"
 "http://www.w3.org/Graphics/SVG/1.1/DTD/svg11.dtd">
<!-- Generated by graphviz version 2.38.0 (20140413.2041)
 -->
<!-- Title: parameter/XmlFileIncluderElement.h Pages: 1 -->
<svg width="369pt" height="162pt"
 viewBox="0.00 0.00 369.00 162.00" xmlns="http://www.w3.org/2000/svg" xmlns:xlink="http://www.w3.org/1999/xlink">
<g id="graph0" class="graph" transform="scale(1 1) rotate(0) translate(4 158)">
<title>parameter/XmlFileIncluderElement.h</title>
<polygon fill="white" stroke="none" points="-4,4 -4,-158 365,-158 365,4 -4,4"/>
<!-- Node1 -->
<g id="node1" class="node"><title>Node1</title>
<polygon fill="#bfbfbf" stroke="black" points="121,-123.5 121,-153.5 262,-153.5 262,-123.5 121,-123.5"/>
<text text-anchor="start" x="129" y="-141.5" font-family="Verdana" font-size="10.00">parameter/XmlFileIncluder</text>
<text text-anchor="middle" x="191.5" y="-130.5" font-family="Verdana" font-size="10.00">Element.h</text>
</g>
<!-- Node2 -->
<g id="node2" class="node"><title>Node2</title>
<g id="a_node2"><a xlink:href="FileIncluderElementBuilder_8h.html" target="_top" xlink:title="parameter/FileIncluderElement\lBuilder.h">
<polygon fill="white" stroke="black" points="0,-56.5 0,-86.5 163,-86.5 163,-56.5 0,-56.5"/>
<text text-anchor="start" x="8" y="-74.5" font-family="Verdana" font-size="10.00">parameter/FileIncluderElement</text>
<text text-anchor="middle" x="81.5" y="-63.5" font-family="Verdana" font-size="10.00">Builder.h</text>
</a>
</g>
</g>
<!-- Node1&#45;&gt;Node2 -->
<g id="edge1" class="edge"><title>Node1&#45;&gt;Node2</title>
<path fill="none" stroke="midnightblue" d="M159,-118.296C141.788,-108.125 121.024,-95.8549 105.322,-86.5765"/>
<polygon fill="midnightblue" stroke="midnightblue" points="157.242,-121.322 167.632,-123.396 160.803,-115.295 157.242,-121.322"/>
</g>
<!-- Node3 -->
<g id="node3" class="node"><title>Node3</title>
<g id="a_node3"><a xlink:href="ParameterMgr_8cpp.html" target="_top" xlink:title="parameter/ParameterMgr.cpp">
<polygon fill="white" stroke="black" points="57.5,-0.5 57.5,-19.5 215.5,-19.5 215.5,-0.5 57.5,-0.5"/>
<text text-anchor="middle" x="136.5" y="-7.5" font-family="Verdana" font-size="10.00">parameter/ParameterMgr.cpp</text>
</a>
</g>
</g>
<!-- Node1&#45;&gt;Node3 -->
<g id="edge3" class="edge"><title>Node1&#45;&gt;Node3</title>
<path fill="none" stroke="midnightblue" d="M188.727,-113.242C186.136,-96.5153 181.295,-74.1198 172.5,-56 165.685,-41.959 153.807,-28.3203 145.568,-19.8075"/>
<polygon fill="midnightblue" stroke="midnightblue" points="185.283,-113.888 190.123,-123.313 192.217,-112.927 185.283,-113.888"/>
</g>
<!-- Node4 -->
<g id="node4" class="node"><title>Node4</title>
<g id="a_node4"><a xlink:href="XmlFileIncluderElement_8cpp.html" target="_top" xlink:title="parameter/XmlFileIncluder\lElement.cpp">
<polygon fill="white" stroke="black" points="220,-56.5 220,-86.5 361,-86.5 361,-56.5 220,-56.5"/>
<text text-anchor="start" x="228" y="-74.5" font-family="Verdana" font-size="10.00">parameter/XmlFileIncluder</text>
<text text-anchor="middle" x="290.5" y="-63.5" font-family="Verdana" font-size="10.00">Element.cpp</text>
</a>
</g>
</g>
<!-- Node1&#45;&gt;Node4 -->
<g id="edge4" class="edge"><title>Node1&#45;&gt;Node4</title>
<path fill="none" stroke="midnightblue" d="M221.606,-117.734C236.925,-107.676 255.188,-95.6847 269.06,-86.5765"/>
<polygon fill="midnightblue" stroke="midnightblue" points="219.42,-114.982 212.982,-123.396 223.262,-120.833 219.42,-114.982"/>
</g>
<!-- Node2&#45;&gt;Node3 -->
<g id="edge2" class="edge"><title>Node2&#45;&gt;Node3</title>
<path fill="none" stroke="midnightblue" d="M101.372,-49.0023C110.746,-38.8617 121.403,-27.3319 128.497,-19.6578"/>
<polygon fill="midnightblue" stroke="midnightblue" points="98.752,-46.6802 94.5342,-56.3993 103.892,-51.4318 98.752,-46.6802"/>
</g>
</g>
</svg>
