<?xml version="1.0" encoding="UTF-8" standalone="no"?>
<!DOCTYPE svg PUBLIC "-//W3C//DTD SVG 1.1//EN"
 "http://www.w3.org/Graphics/SVG/1.1/DTD/svg11.dtd">
<!-- Generated by graphviz version 2.38.0 (20140413.2041)
 -->
<!-- Title: parameter/XmlFileIncluderElement.cpp Pages: 1 -->
<svg width="848pt" height="375pt"
 viewBox="0.00 0.00 848.44 375.00" xmlns="http://www.w3.org/2000/svg" xmlns:xlink="http://www.w3.org/1999/xlink">
<g id="graph0" class="graph" transform="scale(1 1) rotate(0) translate(4 371)">
<title>parameter/XmlFileIncluderElement.cpp</title>
<polygon fill="white" stroke="none" points="-4,4 -4,-371 844.443,-371 844.443,4 -4,4"/>
<!-- Node1 -->
<g id="node1" class="node"><title>Node1</title>
<polygon fill="#bfbfbf" stroke="black" points="384.5,-336.5 384.5,-366.5 525.5,-366.5 525.5,-336.5 384.5,-336.5"/>
<text text-anchor="start" x="392.5" y="-354.5" font-family="Verdana" font-size="10.00">parameter/XmlFileIncluder</text>
<text text-anchor="middle" x="455" y="-343.5" font-family="Verdana" font-size="10.00">Element.cpp</text>
</g>
<!-- Node2 -->
<g id="node2" class="node"><title>Node2</title>
<g id="a_node2"><a xlink:href="XmlFileIncluderElement_8h.html" target="_top" xlink:title="XmlFileIncluderElement.h">
<polygon fill="white" stroke="black" points="168,-280.5 168,-299.5 304,-299.5 304,-280.5 168,-280.5"/>
<text text-anchor="middle" x="236" y="-287.5" font-family="Verdana" font-size="10.00">XmlFileIncluderElement.h</text>
</a>
</g>
</g>
<!-- Node1&#45;&gt;Node2 -->
<g id="edge1" class="edge"><title>Node1&#45;&gt;Node2</title>
<path fill="none" stroke="midnightblue" d="M403.377,-336.475C364.935,-326.03 313.138,-311.958 277.396,-302.247"/>
<polygon fill="midnightblue" stroke="midnightblue" points="277.877,-298.751 267.309,-299.506 276.042,-305.506 277.877,-298.751"/>
</g>
<!-- Node14 -->
<g id="node14" class="node"><title>Node14</title>
<g id="a_node14"><a xlink:href="XmlDocSource_8h.html" target="_top" xlink:title="XmlDocSource.h">
<polygon fill="white" stroke="black" points="302,-112.5 302,-131.5 398,-131.5 398,-112.5 302,-112.5"/>
<text text-anchor="middle" x="350" y="-119.5" font-family="Verdana" font-size="10.00">XmlDocSource.h</text>
</a>
</g>
</g>
<!-- Node1&#45;&gt;Node14 -->
<g id="edge23" class="edge"><title>Node1&#45;&gt;Node14</title>
<path fill="none" stroke="midnightblue" d="M452.177,-336.345C447.096,-312.425 435.217,-262.82 417,-224 402.106,-192.262 378.219,-159.054 363.354,-139.734"/>
<polygon fill="midnightblue" stroke="midnightblue" points="365.958,-137.382 357.041,-131.66 360.443,-141.694 365.958,-137.382"/>
</g>
<!-- Node15 -->
<g id="node15" class="node"><title>Node15</title>
<g id="a_node15"><a xlink:href="XmlMemoryDocSink_8h.html" target="_top" xlink:title="XmlMemoryDocSink.h">
<polygon fill="white" stroke="black" points="286,-224.5 286,-243.5 408,-243.5 408,-224.5 286,-224.5"/>
<text text-anchor="middle" x="347" y="-231.5" font-family="Verdana" font-size="10.00">XmlMemoryDocSink.h</text>
</a>
</g>
</g>
<!-- Node1&#45;&gt;Node15 -->
<g id="edge27" class="edge"><title>Node1&#45;&gt;Node15</title>
<path fill="none" stroke="midnightblue" d="M441.757,-336.337C421.59,-314.77 383.293,-273.813 362.082,-251.13"/>
<polygon fill="midnightblue" stroke="midnightblue" points="364.493,-248.583 355.107,-243.669 359.38,-253.364 364.493,-248.583"/>
</g>
<!-- Node17 -->
<g id="node17" class="node"><title>Node17</title>
<g id="a_node17"><a xlink:href="XmlElementSerializingContext_8h.html" target="_top" xlink:title="XmlElementSerializingContext.h">
<polygon fill="white" stroke="black" points="0,-112.5 0,-131.5 170,-131.5 170,-112.5 0,-112.5"/>
<text text-anchor="middle" x="85" y="-119.5" font-family="Verdana" font-size="10.00">XmlElementSerializingContext.h</text>
</a>
</g>
</g>
<!-- Node1&#45;&gt;Node17 -->
<g id="edge32" class="edge"><title>Node1&#45;&gt;Node17</title>
<path fill="none" stroke="midnightblue" d="M384.165,-344.15C309.087,-336.421 196.306,-321.661 159,-300 102.356,-267.111 89.0702,-180.302 85.9544,-141.822"/>
<polygon fill="midnightblue" stroke="midnightblue" points="89.4272,-141.294 85.2772,-131.545 82.4424,-141.754 89.4272,-141.294"/>
</g>
<!-- Node18 -->
<g id="node18" class="node"><title>Node18</title>
<g id="a_node18"><a xlink:href="ElementLibrary_8h.html" target="_top" xlink:title="ElementLibrary.h">
<polygon fill="white" stroke="black" points="570,-224.5 570,-243.5 666,-243.5 666,-224.5 570,-224.5"/>
<text text-anchor="middle" x="618" y="-231.5" font-family="Verdana" font-size="10.00">ElementLibrary.h</text>
</a>
</g>
</g>
<!-- Node1&#45;&gt;Node18 -->
<g id="edge35" class="edge"><title>Node1&#45;&gt;Node18</title>
<path fill="none" stroke="midnightblue" d="M460.288,-336.394C466.872,-320.61 479.549,-295.257 498,-280 517.418,-263.943 543.137,-253.287 565.784,-246.394"/>
<polygon fill="midnightblue" stroke="midnightblue" points="566.959,-249.699 575.606,-243.577 565.029,-242.97 566.959,-249.699"/>
</g>
<!-- Node20 -->
<g id="node20" class="node"><title>Node20</title>
<g id="a_node20"><a xlink:href="AutoLog_8h.html" target="_top" xlink:title="AutoLog.h">
<polygon fill="white" stroke="black" points="684.5,-224.5 684.5,-243.5 749.5,-243.5 749.5,-224.5 684.5,-224.5"/>
<text text-anchor="middle" x="717" y="-231.5" font-family="Verdana" font-size="10.00">AutoLog.h</text>
</a>
</g>
</g>
<!-- Node1&#45;&gt;Node20 -->
<g id="edge39" class="edge"><title>Node1&#45;&gt;Node20</title>
<path fill="none" stroke="midnightblue" d="M466.324,-336.305C479.954,-320.193 504.36,-294.299 531,-280 537.394,-276.568 621.717,-256.856 674.606,-244.687"/>
<polygon fill="midnightblue" stroke="midnightblue" points="675.449,-248.084 684.411,-242.434 673.882,-241.262 675.449,-248.084"/>
</g>
<!-- Node21 -->
<g id="node21" class="node"><title>Node21</title>
<polygon fill="white" stroke="#bfbfbf" points="540,-280.5 540,-299.5 596,-299.5 596,-280.5 540,-280.5"/>
<text text-anchor="middle" x="568" y="-287.5" font-family="Verdana" font-size="10.00">assert.h</text>
</g>
<!-- Node1&#45;&gt;Node21 -->
<g id="edge42" class="edge"><title>Node1&#45;&gt;Node21</title>
<path fill="none" stroke="midnightblue" d="M481.779,-336.399C500.062,-326.773 524.148,-314.09 542.215,-304.577"/>
<polygon fill="midnightblue" stroke="midnightblue" points="544.34,-307.414 551.557,-299.658 541.078,-301.22 544.34,-307.414"/>
</g>
<!-- Node22 -->
<g id="node22" class="node"><title>Node22</title>
<polygon fill="white" stroke="#bfbfbf" points="614,-280.5 614,-299.5 668,-299.5 668,-280.5 614,-280.5"/>
<text text-anchor="middle" x="641" y="-287.5" font-family="Verdana" font-size="10.00">fstream</text>
</g>
<!-- Node1&#45;&gt;Node22 -->
<g id="edge43" class="edge"><title>Node1&#45;&gt;Node22</title>
<path fill="none" stroke="midnightblue" d="M499.079,-336.399C531.219,-326.118 574.257,-312.351 604.482,-302.682"/>
<polygon fill="midnightblue" stroke="midnightblue" points="605.749,-305.951 614.207,-299.571 603.616,-299.284 605.749,-305.951"/>
</g>
<!-- Node3 -->
<g id="node3" class="node"><title>Node3</title>
<g id="a_node3"><a xlink:href="KindElement_8h.html" target="_top" xlink:title="KindElement.h">
<polygon fill="white" stroke="black" points="122,-224.5 122,-243.5 208,-243.5 208,-224.5 122,-224.5"/>
<text text-anchor="middle" x="165" y="-231.5" font-family="Verdana" font-size="10.00">KindElement.h</text>
</a>
</g>
</g>
<!-- Node2&#45;&gt;Node3 -->
<g id="edge2" class="edge"><title>Node2&#45;&gt;Node3</title>
<path fill="none" stroke="midnightblue" d="M224.593,-280.324C213.891,-272.185 197.659,-259.839 184.837,-250.087"/>
<polygon fill="midnightblue" stroke="midnightblue" points="186.693,-247.102 176.615,-243.834 182.456,-252.673 186.693,-247.102"/>
</g>
<!-- Node5 -->
<g id="node5" class="node"><title>Node5</title>
<polygon fill="white" stroke="#bfbfbf" points="456,-0.5 456,-19.5 500,-19.5 500,-0.5 456,-0.5"/>
<text text-anchor="middle" x="478" y="-7.5" font-family="Verdana" font-size="10.00">string</text>
</g>
<!-- Node2&#45;&gt;Node5 -->
<g id="edge22" class="edge"><title>Node2&#45;&gt;Node5</title>
<path fill="none" stroke="midnightblue" d="M236,-280.442C236,-261.936 236,-216.812 236,-179 236,-179 236,-179 236,-121 236,-30.069 379.353,-13.9484 445.394,-11.3465"/>
<polygon fill="midnightblue" stroke="midnightblue" points="445.781,-14.8363 455.667,-11.0271 445.563,-7.83968 445.781,-14.8363"/>
</g>
<!-- Node4 -->
<g id="node4" class="node"><title>Node4</title>
<g id="a_node4"><a xlink:href="Element_8h.html" target="_top" xlink:title="Element.h">
<polygon fill="white" stroke="black" points="585.5,-168.5 585.5,-187.5 650.5,-187.5 650.5,-168.5 585.5,-168.5"/>
<text text-anchor="middle" x="618" y="-175.5" font-family="Verdana" font-size="10.00">Element.h</text>
</a>
</g>
</g>
<!-- Node3&#45;&gt;Node4 -->
<g id="edge3" class="edge"><title>Node3&#45;&gt;Node4</title>
<path fill="none" stroke="midnightblue" d="M208.026,-227.871C294.613,-217.549 488.989,-194.379 575.303,-184.09"/>
<polygon fill="midnightblue" stroke="midnightblue" points="575.764,-187.56 585.279,-182.901 574.935,-180.609 575.764,-187.56"/>
</g>
<!-- Node3&#45;&gt;Node5 -->
<g id="edge21" class="edge"><title>Node3&#45;&gt;Node5</title>
<path fill="none" stroke="midnightblue" d="M166.557,-224.432C172.581,-192.245 195.345,-79.2196 222,-56 254.901,-27.3391 384.184,-16.3005 445.455,-12.6154"/>
<polygon fill="midnightblue" stroke="midnightblue" points="445.936,-16.0937 455.72,-12.0289 445.537,-9.10511 445.936,-16.0937"/>
</g>
<!-- Node4&#45;&gt;Node5 -->
<g id="edge4" class="edge"><title>Node4&#45;&gt;Node5</title>
<path fill="none" stroke="midnightblue" d="M623.332,-168.175C630.384,-155.273 640.935,-130.759 632,-112 608.461,-62.581 547.532,-34.0898 509.75,-20.6372"/>
<polygon fill="midnightblue" stroke="midnightblue" points="510.813,-17.3019 500.219,-17.3868 508.554,-23.9272 510.813,-17.3019"/>
</g>
<!-- Node6 -->
<g id="node6" class="node"><title>Node6</title>
<polygon fill="white" stroke="#bfbfbf" points="680.5,-56.5 680.5,-75.5 727.5,-75.5 727.5,-56.5 680.5,-56.5"/>
<text text-anchor="middle" x="704" y="-63.5" font-family="Verdana" font-size="10.00">vector</text>
</g>
<!-- Node4&#45;&gt;Node6 -->
<g id="edge5" class="edge"><title>Node4&#45;&gt;Node6</title>
<path fill="none" stroke="midnightblue" d="M628.769,-168.468C639.099,-159.944 654.745,-146.109 666,-132 677.692,-117.343 688.212,-98.7043 695.202,-85.1477"/>
<polygon fill="midnightblue" stroke="midnightblue" points="698.474,-86.4304 699.821,-75.9215 692.214,-83.2969 698.474,-86.4304"/>
</g>
<!-- Node7 -->
<g id="node7" class="node"><title>Node7</title>
<polygon fill="white" stroke="#bfbfbf" points="767.5,-0.5 767.5,-19.5 820.5,-19.5 820.5,-0.5 767.5,-0.5"/>
<text text-anchor="middle" x="794" y="-7.5" font-family="Verdana" font-size="10.00">stdint.h</text>
</g>
<!-- Node4&#45;&gt;Node7 -->
<g id="edge6" class="edge"><title>Node4&#45;&gt;Node7</title>
<path fill="none" stroke="midnightblue" d="M650.926,-169.9C707.596,-157.642 817.673,-133.657 819,-132 843.256,-101.714 820.751,-53.8141 805.457,-28.3143"/>
<polygon fill="midnightblue" stroke="midnightblue" points="808.343,-26.3289 800.061,-19.7214 802.415,-30.0514 808.343,-26.3289"/>
</g>
<!-- Node8 -->
<g id="node8" class="node"><title>Node8</title>
<polygon fill="white" stroke="#bfbfbf" points="498,-112.5 498,-131.5 528,-131.5 528,-112.5 498,-112.5"/>
<text text-anchor="middle" x="513" y="-119.5" font-family="Verdana" font-size="10.00">list</text>
</g>
<!-- Node4&#45;&gt;Node8 -->
<g id="edge7" class="edge"><title>Node4&#45;&gt;Node8</title>
<path fill="none" stroke="midnightblue" d="M601.13,-168.324C583.793,-159.408 556.641,-145.444 537.055,-135.371"/>
<polygon fill="midnightblue" stroke="midnightblue" points="538.618,-132.239 528.124,-130.778 535.416,-138.464 538.618,-132.239"/>
</g>
<!-- Node9 -->
<g id="node9" class="node"><title>Node9</title>
<g id="a_node9"><a xlink:href="XmlSink_8h.html" target="_top" xlink:title="XmlSink.h">
<polygon fill="white" stroke="black" points="416,-112.5 416,-131.5 480,-131.5 480,-112.5 416,-112.5"/>
<text text-anchor="middle" x="448" y="-119.5" font-family="Verdana" font-size="10.00">XmlSink.h</text>
</a>
</g>
</g>
<!-- Node4&#45;&gt;Node9 -->
<g id="edge8" class="edge"><title>Node4&#45;&gt;Node9</title>
<path fill="none" stroke="midnightblue" d="M591.063,-168.444C562.34,-159.32 516.671,-144.813 484.679,-134.651"/>
<polygon fill="midnightblue" stroke="midnightblue" points="485.401,-131.208 474.811,-131.516 483.282,-137.88 485.401,-131.208"/>
</g>
<!-- Node12 -->
<g id="node12" class="node"><title>Node12</title>
<g id="a_node12"><a xlink:href="XmlSource_8h.html" target="_top" xlink:title="XmlSource.h">
<polygon fill="white" stroke="black" points="546.5,-112.5 546.5,-131.5 623.5,-131.5 623.5,-112.5 546.5,-112.5"/>
<text text-anchor="middle" x="585" y="-119.5" font-family="Verdana" font-size="10.00">XmlSource.h</text>
</a>
</g>
</g>
<!-- Node4&#45;&gt;Node12 -->
<g id="edge14" class="edge"><title>Node4&#45;&gt;Node12</title>
<path fill="none" stroke="midnightblue" d="M612.551,-168.083C607.986,-160.613 601.332,-149.724 595.707,-140.52"/>
<polygon fill="midnightblue" stroke="midnightblue" points="598.549,-138.459 590.348,-131.751 592.576,-142.109 598.549,-138.459"/>
</g>
<!-- Node13 -->
<g id="node13" class="node"><title>Node13</title>
<g id="a_node13"><a xlink:href="PathNavigator_8h.html" target="_top" xlink:title="PathNavigator.h">
<polygon fill="white" stroke="black" points="718,-112.5 718,-131.5 810,-131.5 810,-112.5 718,-112.5"/>
<text text-anchor="middle" x="764" y="-119.5" font-family="Verdana" font-size="10.00">PathNavigator.h</text>
</a>
</g>
</g>
<!-- Node4&#45;&gt;Node13 -->
<g id="edge17" class="edge"><title>Node4&#45;&gt;Node13</title>
<path fill="none" stroke="midnightblue" d="M641.134,-168.444C665.482,-159.438 704.007,-145.189 731.423,-135.049"/>
<polygon fill="midnightblue" stroke="midnightblue" points="732.809,-138.268 740.974,-131.516 730.381,-131.703 732.809,-138.268"/>
</g>
<!-- Node10 -->
<g id="node10" class="node"><title>Node10</title>
<g id="a_node10"><a xlink:href="XmlElement_8h.html" target="_top" xlink:title="XmlElement.h">
<polygon fill="white" stroke="black" points="471.5,-56.5 471.5,-75.5 554.5,-75.5 554.5,-56.5 471.5,-56.5"/>
<text text-anchor="middle" x="513" y="-63.5" font-family="Verdana" font-size="10.00">XmlElement.h</text>
</a>
</g>
</g>
<!-- Node9&#45;&gt;Node10 -->
<g id="edge9" class="edge"><title>Node9&#45;&gt;Node10</title>
<path fill="none" stroke="midnightblue" d="M458.443,-112.324C468.146,-104.263 482.815,-92.0765 494.5,-82.3695"/>
<polygon fill="midnightblue" stroke="midnightblue" points="496.911,-84.9163 502.367,-75.8339 492.438,-79.532 496.911,-84.9163"/>
</g>
<!-- Node11 -->
<g id="node11" class="node"><title>Node11</title>
<g id="a_node11"><a xlink:href="XmlSerializingContext_8h.html" target="_top" xlink:title="XmlSerializingContext.h">
<polygon fill="white" stroke="black" points="285,-56.5 285,-75.5 415,-75.5 415,-56.5 285,-56.5"/>
<text text-anchor="middle" x="350" y="-63.5" font-family="Verdana" font-size="10.00">XmlSerializingContext.h</text>
</a>
</g>
</g>
<!-- Node9&#45;&gt;Node11 -->
<g id="edge12" class="edge"><title>Node9&#45;&gt;Node11</title>
<path fill="none" stroke="midnightblue" d="M432.255,-112.324C416.681,-103.743 392.623,-90.486 374.541,-80.5224"/>
<polygon fill="midnightblue" stroke="midnightblue" points="376.154,-77.4152 365.706,-75.6545 372.776,-83.546 376.154,-77.4152"/>
</g>
<!-- Node10&#45;&gt;Node5 -->
<g id="edge11" class="edge"><title>Node10&#45;&gt;Node5</title>
<path fill="none" stroke="midnightblue" d="M507.22,-56.083C502.328,-48.5341 495.173,-37.4948 489.167,-28.2298"/>
<polygon fill="midnightblue" stroke="midnightblue" points="492.048,-26.239 483.672,-19.7511 486.174,-30.0463 492.048,-26.239"/>
</g>
<!-- Node10&#45;&gt;Node7 -->
<g id="edge10" class="edge"><title>Node10&#45;&gt;Node7</title>
<path fill="none" stroke="midnightblue" d="M554.765,-56.974C609.661,-46.4246 705.219,-28.061 757.409,-18.0317"/>
<polygon fill="midnightblue" stroke="midnightblue" points="758.084,-21.4661 767.244,-16.1417 756.763,-14.5919 758.084,-21.4661"/>
</g>
<!-- Node11&#45;&gt;Node5 -->
<g id="edge13" class="edge"><title>Node11&#45;&gt;Node5</title>
<path fill="none" stroke="midnightblue" d="M370.282,-56.4435C391.347,-47.5566 424.517,-33.5632 448.486,-23.4514"/>
<polygon fill="midnightblue" stroke="midnightblue" points="449.96,-26.6283 457.813,-19.5164 447.239,-20.1787 449.96,-26.6283"/>
</g>
<!-- Node12&#45;&gt;Node10 -->
<g id="edge15" class="edge"><title>Node12&#45;&gt;Node10</title>
<path fill="none" stroke="midnightblue" d="M573.432,-112.324C562.58,-104.185 546.119,-91.8395 533.117,-82.0874"/>
<polygon fill="midnightblue" stroke="midnightblue" points="534.879,-79.0339 524.779,-75.8339 530.679,-84.6339 534.879,-79.0339"/>
</g>
<!-- Node12&#45;&gt;Node11 -->
<g id="edge16" class="edge"><title>Node12&#45;&gt;Node11</title>
<path fill="none" stroke="midnightblue" d="M547.764,-112.444C506.94,-103.063 441.357,-87.9926 397.016,-77.8036"/>
<polygon fill="midnightblue" stroke="midnightblue" points="397.592,-74.3449 387.062,-75.5164 396.024,-81.1671 397.592,-74.3449"/>
</g>
<!-- Node13&#45;&gt;Node5 -->
<g id="edge19" class="edge"><title>Node13&#45;&gt;Node5</title>
<path fill="none" stroke="midnightblue" d="M762.888,-112.255C760.59,-98.0583 753.937,-70.1628 736,-56 701.495,-28.7548 571.89,-16.993 510.557,-12.8694"/>
<polygon fill="midnightblue" stroke="midnightblue" points="510.488,-9.35781 500.284,-12.2076 510.038,-16.3433 510.488,-9.35781"/>
</g>
<!-- Node13&#45;&gt;Node6 -->
<g id="edge18" class="edge"><title>Node13&#45;&gt;Node6</title>
<path fill="none" stroke="midnightblue" d="M754.36,-112.324C745.49,-104.341 732.125,-92.3128 721.392,-82.6529"/>
<polygon fill="midnightblue" stroke="midnightblue" points="723.59,-79.922 713.815,-75.8339 718.907,-85.1251 723.59,-79.922"/>
</g>
<!-- Node13&#45;&gt;Node7 -->
<g id="edge20" class="edge"><title>Node13&#45;&gt;Node7</title>
<path fill="none" stroke="midnightblue" d="M766.354,-112.368C771.217,-94.5366 782.465,-53.2953 789.017,-29.2717"/>
<polygon fill="midnightblue" stroke="midnightblue" points="792.402,-30.16 791.657,-19.5914 785.649,-28.3181 792.402,-30.16"/>
</g>
<!-- Node14&#45;&gt;Node5 -->
<g id="edge26" class="edge"><title>Node14&#45;&gt;Node5</title>
<path fill="none" stroke="midnightblue" d="M367.532,-112.466C383.251,-104.34 406.469,-91.1282 424,-76 440.582,-61.6901 456.189,-41.9638 466.319,-28.0056"/>
<polygon fill="midnightblue" stroke="midnightblue" points="469.22,-29.9654 472.14,-19.7809 463.506,-25.9217 469.22,-29.9654"/>
</g>
<!-- Node14&#45;&gt;Node10 -->
<g id="edge24" class="edge"><title>Node14&#45;&gt;Node10</title>
<path fill="none" stroke="midnightblue" d="M375.828,-112.444C403.249,-103.359 446.777,-88.9388 477.432,-78.7831"/>
<polygon fill="midnightblue" stroke="midnightblue" points="478.901,-81.9837 487.293,-75.5164 476.7,-75.3389 478.901,-81.9837"/>
</g>
<!-- Node14&#45;&gt;Node11 -->
<g id="edge25" class="edge"><title>Node14&#45;&gt;Node11</title>
<path fill="none" stroke="midnightblue" d="M350,-112.083C350,-105.006 350,-94.8611 350,-85.9865"/>
<polygon fill="midnightblue" stroke="midnightblue" points="353.5,-85.751 350,-75.7511 346.5,-85.7511 353.5,-85.751"/>
</g>
<!-- Node15&#45;&gt;Node9 -->
<g id="edge31" class="edge"><title>Node15&#45;&gt;Node9</title>
<path fill="none" stroke="midnightblue" d="M354.925,-224.368C371.814,-205.974 411.575,-162.671 433.261,-139.052"/>
<polygon fill="midnightblue" stroke="midnightblue" points="435.926,-141.325 440.112,-131.591 430.77,-136.59 435.926,-141.325"/>
</g>
<!-- Node16 -->
<g id="node16" class="node"><title>Node16</title>
<g id="a_node16"><a xlink:href="XmlDocSink_8h.html" target="_top" xlink:title="XmlDocSink.h">
<polygon fill="white" stroke="black" points="286.5,-168.5 286.5,-187.5 369.5,-187.5 369.5,-168.5 286.5,-168.5"/>
<text text-anchor="middle" x="328" y="-175.5" font-family="Verdana" font-size="10.00">XmlDocSink.h</text>
</a>
</g>
</g>
<!-- Node15&#45;&gt;Node16 -->
<g id="edge28" class="edge"><title>Node15&#45;&gt;Node16</title>
<path fill="none" stroke="midnightblue" d="M343.863,-224.083C341.317,-216.849 337.644,-206.409 334.473,-197.397"/>
<polygon fill="midnightblue" stroke="midnightblue" points="337.7,-196.023 331.079,-187.751 331.097,-198.346 337.7,-196.023"/>
</g>
<!-- Node16&#45;&gt;Node11 -->
<g id="edge30" class="edge"><title>Node16&#45;&gt;Node11</title>
<path fill="none" stroke="midnightblue" d="M317.462,-168.292C303.858,-155.935 283.051,-132.53 293,-112 299.397,-98.7996 311.752,-88.3032 323.329,-80.7794"/>
<polygon fill="midnightblue" stroke="midnightblue" points="325.155,-83.7653 331.918,-75.6099 321.546,-77.7678 325.155,-83.7653"/>
</g>
<!-- Node16&#45;&gt;Node14 -->
<g id="edge29" class="edge"><title>Node16&#45;&gt;Node14</title>
<path fill="none" stroke="midnightblue" d="M331.633,-168.083C334.612,-160.77 338.926,-150.181 342.625,-141.103"/>
<polygon fill="midnightblue" stroke="midnightblue" points="345.903,-142.333 346.435,-131.751 339.42,-139.691 345.903,-142.333"/>
</g>
<!-- Node17&#45;&gt;Node5 -->
<g id="edge34" class="edge"><title>Node17&#45;&gt;Node5</title>
<path fill="none" stroke="midnightblue" d="M94.8759,-112.382C111.825,-98.109 148.103,-69.7757 184,-56 274.39,-21.3117 390.087,-13.2965 445.531,-11.4907"/>
<polygon fill="midnightblue" stroke="midnightblue" points="445.892,-14.9821 455.791,-11.2062 445.698,-7.98479 445.892,-14.9821"/>
</g>
<!-- Node17&#45;&gt;Node11 -->
<g id="edge33" class="edge"><title>Node17&#45;&gt;Node11</title>
<path fill="none" stroke="midnightblue" d="M126.99,-112.444C173.412,-102.984 248.228,-87.7384 298.24,-77.5472"/>
<polygon fill="midnightblue" stroke="midnightblue" points="299.107,-80.9427 308.206,-75.5164 297.709,-74.0837 299.107,-80.9427"/>
</g>
<!-- Node18&#45;&gt;Node4 -->
<g id="edge38" class="edge"><title>Node18&#45;&gt;Node4</title>
<path fill="none" stroke="midnightblue" d="M618,-224.083C618,-217.006 618,-206.861 618,-197.986"/>
<polygon fill="midnightblue" stroke="midnightblue" points="621.5,-197.751 618,-187.751 614.5,-197.751 621.5,-197.751"/>
</g>
<!-- Node18&#45;&gt;Node5 -->
<g id="edge37" class="edge"><title>Node18&#45;&gt;Node5</title>
<path fill="none" stroke="midnightblue" d="M666.151,-225.526C734.65,-212.392 848.824,-179.866 819,-112 804.193,-78.3068 791.123,-72.0419 758,-56 675.331,-15.9624 564.448,-10.3813 510.379,-10.2993"/>
<polygon fill="midnightblue" stroke="midnightblue" points="510.33,-6.79936 500.347,-10.3476 510.364,-13.7993 510.33,-6.79936"/>
</g>
<!-- Node19 -->
<g id="node19" class="node"><title>Node19</title>
<polygon fill="white" stroke="#bfbfbf" points="669,-168.5 669,-187.5 707,-187.5 707,-168.5 669,-168.5"/>
<text text-anchor="middle" x="688" y="-175.5" font-family="Verdana" font-size="10.00">map</text>
</g>
<!-- Node18&#45;&gt;Node19 -->
<g id="edge36" class="edge"><title>Node18&#45;&gt;Node19</title>
<path fill="none" stroke="midnightblue" d="M629.247,-224.324C639.797,-216.185 655.801,-203.839 668.442,-194.087"/>
<polygon fill="midnightblue" stroke="midnightblue" points="670.769,-196.713 676.549,-187.834 666.493,-191.171 670.769,-196.713"/>
</g>
<!-- Node20&#45;&gt;Node4 -->
<g id="edge40" class="edge"><title>Node20&#45;&gt;Node4</title>
<path fill="none" stroke="midnightblue" d="M701.094,-224.324C685.362,-215.743 661.058,-202.486 642.791,-192.522"/>
<polygon fill="midnightblue" stroke="midnightblue" points="644.322,-189.37 633.867,-187.655 640.97,-195.516 644.322,-189.37"/>
</g>
<!-- Node20&#45;&gt;Node5 -->
<g id="edge41" class="edge"><title>Node20&#45;&gt;Node5</title>
<path fill="none" stroke="midnightblue" d="M746.165,-224.375C765.948,-217.286 791.573,-205.525 809,-188 834.275,-162.581 848.084,-145.748 836,-112 825.142,-81.6761 818.06,-71.8132 790,-56 742.594,-29.2845 580.571,-16.9203 510.606,-12.7319"/>
<polygon fill="midnightblue" stroke="midnightblue" points="510.385,-9.21334 500.199,-12.129 509.98,-16.2016 510.385,-9.21334"/>
</g>
</g>
</svg>
