<?xml version="1.0" encoding="UTF-8" standalone="no"?>
<!DOCTYPE svg PUBLIC "-//W3C//DTD SVG 1.1//EN"
 "http://www.w3.org/Graphics/SVG/1.1/DTD/svg11.dtd">
<!-- Generated by graphviz version 2.38.0 (20140413.2041)
 -->
<!-- Title: xmlserializer/XmlMemoryDocSink.h Pages: 1 -->
<svg width="269pt" height="263pt"
 viewBox="0.00 0.00 268.50 263.00" xmlns="http://www.w3.org/2000/svg" xmlns:xlink="http://www.w3.org/1999/xlink">
<g id="graph0" class="graph" transform="scale(1 1) rotate(0) translate(4 259)">
<title>xmlserializer/XmlMemoryDocSink.h</title>
<polygon fill="white" stroke="none" points="-4,4 -4,-259 264.5,-259 264.5,4 -4,4"/>
<!-- Node1 -->
<g id="node1" class="node"><title>Node1</title>
<polygon fill="#bfbfbf" stroke="black" points="76.5,-224.5 76.5,-254.5 231.5,-254.5 231.5,-224.5 76.5,-224.5"/>
<text text-anchor="start" x="84.5" y="-242.5" font-family="Verdana" font-size="10.00">xmlserializer/XmlMemoryDoc</text>
<text text-anchor="middle" x="154" y="-231.5" font-family="Verdana" font-size="10.00">Sink.h</text>
</g>
<!-- Node2 -->
<g id="node2" class="node"><title>Node2</title>
<g id="a_node2"><a xlink:href="XmlDocSink_8h.html" target="_top" xlink:title="XmlDocSink.h">
<polygon fill="white" stroke="black" points="77.5,-168.5 77.5,-187.5 160.5,-187.5 160.5,-168.5 77.5,-168.5"/>
<text text-anchor="middle" x="119" y="-175.5" font-family="Verdana" font-size="10.00">XmlDocSink.h</text>
</a>
</g>
</g>
<!-- Node1&#45;&gt;Node2 -->
<g id="edge1" class="edge"><title>Node1&#45;&gt;Node2</title>
<path fill="none" stroke="midnightblue" d="M145.705,-224.399C140.777,-216.021 134.486,-205.327 129.249,-196.423"/>
<polygon fill="midnightblue" stroke="midnightblue" points="132.18,-194.503 124.093,-187.658 126.146,-198.052 132.18,-194.503"/>
</g>
<!-- Node8 -->
<g id="node8" class="node"><title>Node8</title>
<g id="a_node8"><a xlink:href="XmlSink_8h.html" target="_top" xlink:title="XmlSink.h">
<polygon fill="white" stroke="black" points="157,-112.5 157,-131.5 221,-131.5 221,-112.5 157,-112.5"/>
<text text-anchor="middle" x="189" y="-119.5" font-family="Verdana" font-size="10.00">XmlSink.h</text>
</a>
</g>
</g>
<!-- Node1&#45;&gt;Node8 -->
<g id="edge10" class="edge"><title>Node1&#45;&gt;Node8</title>
<path fill="none" stroke="midnightblue" d="M158.292,-224.337C164.627,-203.433 176.482,-164.31 183.464,-141.27"/>
<polygon fill="midnightblue" stroke="midnightblue" points="186.822,-142.255 186.373,-131.669 180.123,-140.225 186.822,-142.255"/>
</g>
<!-- Node3 -->
<g id="node3" class="node"><title>Node3</title>
<g id="a_node3"><a xlink:href="XmlDocSource_8h.html" target="_top" xlink:title="XmlDocSource.h">
<polygon fill="white" stroke="black" points="0,-112.5 0,-131.5 96,-131.5 96,-112.5 0,-112.5"/>
<text text-anchor="middle" x="48" y="-119.5" font-family="Verdana" font-size="10.00">XmlDocSource.h</text>
</a>
</g>
</g>
<!-- Node2&#45;&gt;Node3 -->
<g id="edge2" class="edge"><title>Node2&#45;&gt;Node3</title>
<path fill="none" stroke="midnightblue" d="M107.593,-168.324C96.8912,-160.185 80.6593,-147.839 67.8372,-138.087"/>
<polygon fill="midnightblue" stroke="midnightblue" points="69.6932,-135.102 59.6149,-131.834 65.4556,-140.673 69.6932,-135.102"/>
</g>
<!-- Node7 -->
<g id="node7" class="node"><title>Node7</title>
<g id="a_node7"><a xlink:href="XmlSerializingContext_8h.html" target="_top" xlink:title="XmlSerializingContext.h">
<polygon fill="white" stroke="black" points="29,-56.5 29,-75.5 159,-75.5 159,-56.5 29,-56.5"/>
<text text-anchor="middle" x="94" y="-63.5" font-family="Verdana" font-size="10.00">XmlSerializingContext.h</text>
</a>
</g>
</g>
<!-- Node2&#45;&gt;Node7 -->
<g id="edge9" class="edge"><title>Node2&#45;&gt;Node7</title>
<path fill="none" stroke="midnightblue" d="M117.175,-168.151C114.573,-155.628 109.603,-132.025 105,-112 102.993,-103.27 100.651,-93.619 98.6442,-85.5004"/>
<polygon fill="midnightblue" stroke="midnightblue" points="101.994,-84.467 96.1795,-75.61 95.2015,-86.1596 101.994,-84.467"/>
</g>
<!-- Node4 -->
<g id="node4" class="node"><title>Node4</title>
<g id="a_node4"><a xlink:href="XmlElement_8h.html" target="_top" xlink:title="XmlElement.h">
<polygon fill="white" stroke="black" points="177.5,-56.5 177.5,-75.5 260.5,-75.5 260.5,-56.5 177.5,-56.5"/>
<text text-anchor="middle" x="219" y="-63.5" font-family="Verdana" font-size="10.00">XmlElement.h</text>
</a>
</g>
</g>
<!-- Node3&#45;&gt;Node4 -->
<g id="edge3" class="edge"><title>Node3&#45;&gt;Node4</title>
<path fill="none" stroke="midnightblue" d="M75.0955,-112.444C103.988,-103.32 149.925,-88.8133 182.105,-78.6509"/>
<polygon fill="midnightblue" stroke="midnightblue" points="183.549,-81.8654 192.031,-75.5164 181.441,-75.1903 183.549,-81.8654"/>
</g>
<!-- Node6 -->
<g id="node6" class="node"><title>Node6</title>
<polygon fill="white" stroke="#bfbfbf" points="72,-0.5 72,-19.5 116,-19.5 116,-0.5 72,-0.5"/>
<text text-anchor="middle" x="94" y="-7.5" font-family="Verdana" font-size="10.00">string</text>
</g>
<!-- Node3&#45;&gt;Node6 -->
<g id="edge8" class="edge"><title>Node3&#45;&gt;Node6</title>
<path fill="none" stroke="midnightblue" d="M39.1958,-112.312C27.4066,-99.5816 9.16021,-75.2785 20,-56 29.0932,-39.8279 46.6122,-28.7912 62.3222,-21.6965"/>
<polygon fill="midnightblue" stroke="midnightblue" points="63.8803,-24.8395 71.7785,-17.7778 61.2004,-18.3728 63.8803,-24.8395"/>
</g>
<!-- Node3&#45;&gt;Node7 -->
<g id="edge6" class="edge"><title>Node3&#45;&gt;Node7</title>
<path fill="none" stroke="midnightblue" d="M55.596,-112.083C62.2275,-104.298 72.021,-92.8015 80.0581,-83.3665"/>
<polygon fill="midnightblue" stroke="midnightblue" points="82.725,-85.6332 86.5454,-75.7511 77.3963,-81.0939 82.725,-85.6332"/>
</g>
<!-- Node5 -->
<g id="node5" class="node"><title>Node5</title>
<polygon fill="white" stroke="#bfbfbf" points="192.5,-0.5 192.5,-19.5 245.5,-19.5 245.5,-0.5 192.5,-0.5"/>
<text text-anchor="middle" x="219" y="-7.5" font-family="Verdana" font-size="10.00">stdint.h</text>
</g>
<!-- Node4&#45;&gt;Node5 -->
<g id="edge4" class="edge"><title>Node4&#45;&gt;Node5</title>
<path fill="none" stroke="midnightblue" d="M219,-56.083C219,-49.0059 219,-38.8611 219,-29.9865"/>
<polygon fill="midnightblue" stroke="midnightblue" points="222.5,-29.751 219,-19.7511 215.5,-29.7511 222.5,-29.751"/>
</g>
<!-- Node4&#45;&gt;Node6 -->
<g id="edge5" class="edge"><title>Node4&#45;&gt;Node6</title>
<path fill="none" stroke="midnightblue" d="M199.193,-56.4435C178.713,-47.5961 146.517,-33.6875 123.135,-23.5865"/>
<polygon fill="midnightblue" stroke="midnightblue" points="124.282,-20.2692 113.714,-19.5164 121.506,-26.6953 124.282,-20.2692"/>
</g>
<!-- Node7&#45;&gt;Node6 -->
<g id="edge7" class="edge"><title>Node7&#45;&gt;Node6</title>
<path fill="none" stroke="midnightblue" d="M94,-56.083C94,-49.0059 94,-38.8611 94,-29.9865"/>
<polygon fill="midnightblue" stroke="midnightblue" points="97.5001,-29.751 94,-19.7511 90.5001,-29.7511 97.5001,-29.751"/>
</g>
<!-- Node8&#45;&gt;Node4 -->
<g id="edge11" class="edge"><title>Node8&#45;&gt;Node4</title>
<path fill="none" stroke="midnightblue" d="M193.954,-112.083C198.104,-104.613 204.153,-93.7244 209.267,-84.5199"/>
<polygon fill="midnightblue" stroke="midnightblue" points="212.341,-86.1924 214.138,-75.7511 206.222,-82.7929 212.341,-86.1924"/>
</g>
<!-- Node8&#45;&gt;Node7 -->
<g id="edge12" class="edge"><title>Node8&#45;&gt;Node7</title>
<path fill="none" stroke="midnightblue" d="M173.737,-112.324C158.779,-103.822 135.745,-90.7288 118.273,-80.7975"/>
<polygon fill="midnightblue" stroke="midnightblue" points="119.649,-77.5534 109.226,-75.6545 116.19,-83.639 119.649,-77.5534"/>
</g>
</g>
</svg>
