<?xml version="1.0" encoding="UTF-8" standalone="no"?>
<!DOCTYPE svg PUBLIC "-//W3C//DTD SVG 1.1//EN"
 "http://www.w3.org/Graphics/SVG/1.1/DTD/svg11.dtd">
<!-- Generated by graphviz version 2.38.0 (20140413.2041)
 -->
<!-- Title: /home/dawagner/dev/parameter&#45;framework/parameter/XmlParameterSerializingContext.h Pages: 1 -->
<svg width="943pt" height="150pt"
 viewBox="0.00 0.00 943.00 150.00" xmlns="http://www.w3.org/2000/svg" xmlns:xlink="http://www.w3.org/1999/xlink">
<g id="graph0" class="graph" transform="scale(1 1) rotate(0) translate(4 146)">
<title>/home/dawagner/dev/parameter&#45;framework/parameter/XmlParameterSerializingContext.h</title>
<polygon fill="white" stroke="none" points="-4,4 -4,-146 939,-146 939,4 -4,4"/>
<!-- Node1 -->
<g id="node1" class="node"><title>Node1</title>
<polygon fill="#bfbfbf" stroke="black" points="383,-89.5 383,-141.5 574,-141.5 574,-89.5 383,-89.5"/>
<text text-anchor="start" x="391" y="-129.5" font-family="Verdana" font-size="10.00">/home/dawagner/dev</text>
<text text-anchor="start" x="391" y="-118.5" font-family="Verdana" font-size="10.00">/parameter&#45;framework</text>
<text text-anchor="start" x="391" y="-107.5" font-family="Verdana" font-size="10.00">/parameter/XmlParameterSerializing</text>
<text text-anchor="middle" x="478.5" y="-96.5" font-family="Verdana" font-size="10.00">Context.h</text>
</g>
<!-- Node2 -->
<g id="node2" class="node"><title>Node2</title>
<g id="a_node2"><a xlink:href="ComponentInstance_8cpp.html" target="_top" xlink:title="/home/dawagner/dev\l/parameter&#45;framework\l/parameter/ComponentInstance.cpp">
<polygon fill="white" stroke="black" points="0,-6 0,-47 191,-47 191,-6 0,-6"/>
<text text-anchor="start" x="8" y="-35" font-family="Verdana" font-size="10.00">/home/dawagner/dev</text>
<text text-anchor="start" x="8" y="-24" font-family="Verdana" font-size="10.00">/parameter&#45;framework</text>
<text text-anchor="middle" x="95.5" y="-13" font-family="Verdana" font-size="10.00">/parameter/ComponentInstance.cpp</text>
</a>
</g>
</g>
<!-- Node1&#45;&gt;Node2 -->
<g id="edge1" class="edge"><title>Node1&#45;&gt;Node2</title>
<path fill="none" stroke="midnightblue" d="M372.872,-91.8285C320.636,-80.4612 256.684,-66.3111 199.5,-53 191.352,-51.1034 182.855,-49.0856 174.384,-47.0479"/>
<polygon fill="midnightblue" stroke="midnightblue" points="372.305,-95.287 382.82,-93.9907 373.792,-88.4467 372.305,-95.287"/>
</g>
<!-- Node3 -->
<g id="node3" class="node"><title>Node3</title>
<g id="a_node3"><a xlink:href="ComponentType_8cpp.html" target="_top" xlink:title="/home/dawagner/dev\l/parameter&#45;framework\l/parameter/ComponentType.cpp">
<polygon fill="white" stroke="black" points="209,-6 209,-47 380,-47 380,-6 209,-6"/>
<text text-anchor="start" x="217" y="-35" font-family="Verdana" font-size="10.00">/home/dawagner/dev</text>
<text text-anchor="start" x="217" y="-24" font-family="Verdana" font-size="10.00">/parameter&#45;framework</text>
<text text-anchor="middle" x="294.5" y="-13" font-family="Verdana" font-size="10.00">/parameter/ComponentType.cpp</text>
</a>
</g>
</g>
<!-- Node1&#45;&gt;Node3 -->
<g id="edge2" class="edge"><title>Node1&#45;&gt;Node3</title>
<path fill="none" stroke="midnightblue" d="M416.094,-84.9928C389.648,-72.4883 359.55,-58.2572 335.915,-47.0821"/>
<polygon fill="midnightblue" stroke="midnightblue" points="414.743,-88.2255 425.28,-89.336 417.735,-81.8973 414.743,-88.2255"/>
</g>
<!-- Node4 -->
<g id="node4" class="node"><title>Node4</title>
<g id="a_node4"><a xlink:href="ParameterMgr_8cpp.html" target="_top" xlink:title="/home/dawagner/dev\l/parameter&#45;framework\l/parameter/ParameterMgr.cpp">
<polygon fill="white" stroke="black" points="398,-6 398,-47 559,-47 559,-6 398,-6"/>
<text text-anchor="start" x="406" y="-35" font-family="Verdana" font-size="10.00">/home/dawagner/dev</text>
<text text-anchor="start" x="406" y="-24" font-family="Verdana" font-size="10.00">/parameter&#45;framework</text>
<text text-anchor="middle" x="478.5" y="-13" font-family="Verdana" font-size="10.00">/parameter/ParameterMgr.cpp</text>
</a>
</g>
</g>
<!-- Node1&#45;&gt;Node4 -->
<g id="edge3" class="edge"><title>Node1&#45;&gt;Node4</title>
<path fill="none" stroke="midnightblue" d="M478.5,-79.1554C478.5,-68.2096 478.5,-56.5492 478.5,-47.0821"/>
<polygon fill="midnightblue" stroke="midnightblue" points="475,-79.336 478.5,-89.336 482,-79.336 475,-79.336"/>
</g>
<!-- Node5 -->
<g id="node5" class="node"><title>Node5</title>
<g id="a_node5"><a xlink:href="Subsystem_8cpp.html" target="_top" xlink:title="/home/dawagner/dev\l/parameter&#45;framework\l/parameter/Subsystem.cpp">
<polygon fill="white" stroke="black" points="577.5,-6 577.5,-47 725.5,-47 725.5,-6 577.5,-6"/>
<text text-anchor="start" x="585.5" y="-35" font-family="Verdana" font-size="10.00">/home/dawagner/dev</text>
<text text-anchor="start" x="585.5" y="-24" font-family="Verdana" font-size="10.00">/parameter&#45;framework</text>
<text text-anchor="middle" x="651.5" y="-13" font-family="Verdana" font-size="10.00">/parameter/Subsystem.cpp</text>
</a>
</g>
</g>
<!-- Node1&#45;&gt;Node5 -->
<g id="edge4" class="edge"><title>Node1&#45;&gt;Node5</title>
<path fill="none" stroke="midnightblue" d="M537.501,-84.8289C562.288,-72.3641 590.436,-58.2084 612.561,-47.0821"/>
<polygon fill="midnightblue" stroke="midnightblue" points="535.9,-81.7163 528.539,-89.336 539.045,-87.97 535.9,-81.7163"/>
</g>
<!-- Node6 -->
<g id="node6" class="node"><title>Node6</title>
<g id="a_node6"><a xlink:href="XmlParameterSerializingContext_8cpp.html" target="_top" xlink:title="/home/dawagner/dev\l/parameter&#45;framework\l/parameter/XmlParameterSerializing\lContext.cpp">
<polygon fill="white" stroke="black" points="744,-0.5 744,-52.5 935,-52.5 935,-0.5 744,-0.5"/>
<text text-anchor="start" x="752" y="-40.5" font-family="Verdana" font-size="10.00">/home/dawagner/dev</text>
<text text-anchor="start" x="752" y="-29.5" font-family="Verdana" font-size="10.00">/parameter&#45;framework</text>
<text text-anchor="start" x="752" y="-18.5" font-family="Verdana" font-size="10.00">/parameter/XmlParameterSerializing</text>
<text text-anchor="middle" x="839.5" y="-7.5" font-family="Verdana" font-size="10.00">Context.cpp</text>
</a>
</g>
</g>
<!-- Node1&#45;&gt;Node6 -->
<g id="edge5" class="edge"><title>Node1&#45;&gt;Node6</title>
<path fill="none" stroke="midnightblue" d="M584.261,-89.1547C630.406,-78.0803 685.138,-64.9232 734.5,-53 737.6,-52.2512 740.751,-51.4895 743.933,-50.7197"/>
<polygon fill="midnightblue" stroke="midnightblue" points="583.155,-85.8207 574.248,-91.5576 584.788,-92.6275 583.155,-85.8207"/>
</g>
</g>
</svg>
