<?xml version="1.0" encoding="UTF-8" standalone="no"?>
<!DOCTYPE svg PUBLIC "-//W3C//DTD SVG 1.1//EN"
 "http://www.w3.org/Graphics/SVG/1.1/DTD/svg11.dtd">
<!-- Generated by graphviz version 2.38.0 (20140413.2041)
 -->
<!-- Title: xmlserializer/XmlSink.h Pages: 1 -->
<svg width="262pt" height="196pt"
 viewBox="0.00 0.00 262.00 196.00" xmlns="http://www.w3.org/2000/svg" xmlns:xlink="http://www.w3.org/1999/xlink">
<g id="graph0" class="graph" transform="scale(1 1) rotate(0) translate(4 192)">
<title>xmlserializer/XmlSink.h</title>
<polygon fill="white" stroke="none" points="-4,4 -4,-192 258,-192 258,4 -4,4"/>
<!-- Node1 -->
<g id="node1" class="node"><title>Node1</title>
<polygon fill="#bfbfbf" stroke="black" points="47,-168.5 47,-187.5 174,-187.5 174,-168.5 47,-168.5"/>
<text text-anchor="middle" x="110.5" y="-175.5" font-family="Verdana" font-size="10.00">xmlserializer/XmlSink.h</text>
</g>
<!-- Node2 -->
<g id="node2" class="node"><title>Node2</title>
<g id="a_node2"><a xlink:href="XmlElement_8h.html" target="_top" xlink:title="XmlElement.h">
<polygon fill="white" stroke="black" points="7,-112.5 7,-131.5 90,-131.5 90,-112.5 7,-112.5"/>
<text text-anchor="middle" x="48.5" y="-119.5" font-family="Verdana" font-size="10.00">XmlElement.h</text>
</a>
</g>
</g>
<!-- Node1&#45;&gt;Node2 -->
<g id="edge1" class="edge"><title>Node1&#45;&gt;Node2</title>
<path fill="none" stroke="midnightblue" d="M100.539,-168.324C91.3734,-160.341 77.5628,-148.313 66.4718,-138.653"/>
<polygon fill="midnightblue" stroke="midnightblue" points="68.4822,-135.762 58.6426,-131.834 63.8847,-141.041 68.4822,-135.762"/>
</g>
<!-- Node5 -->
<g id="node5" class="node"><title>Node5</title>
<g id="a_node5"><a xlink:href="XmlSerializingContext_8h.html" target="_top" xlink:title="XmlSerializingContext.h">
<polygon fill="white" stroke="black" points="108.5,-112.5 108.5,-131.5 238.5,-131.5 238.5,-112.5 108.5,-112.5"/>
<text text-anchor="middle" x="173.5" y="-119.5" font-family="Verdana" font-size="10.00">XmlSerializingContext.h</text>
</a>
</g>
</g>
<!-- Node1&#45;&gt;Node5 -->
<g id="edge4" class="edge"><title>Node1&#45;&gt;Node5</title>
<path fill="none" stroke="midnightblue" d="M120.622,-168.324C130.026,-160.263 144.244,-148.077 155.569,-138.369"/>
<polygon fill="midnightblue" stroke="midnightblue" points="157.879,-140.999 163.194,-131.834 153.323,-135.684 157.879,-140.999"/>
</g>
<!-- Node3 -->
<g id="node3" class="node"><title>Node3</title>
<polygon fill="white" stroke="#bfbfbf" points="0,-56.5 0,-75.5 53,-75.5 53,-56.5 0,-56.5"/>
<text text-anchor="middle" x="26.5" y="-63.5" font-family="Verdana" font-size="10.00">stdint.h</text>
</g>
<!-- Node2&#45;&gt;Node3 -->
<g id="edge2" class="edge"><title>Node2&#45;&gt;Node3</title>
<path fill="none" stroke="midnightblue" d="M44.8671,-112.083C41.8878,-104.77 37.5739,-94.1814 33.8755,-85.1034"/>
<polygon fill="midnightblue" stroke="midnightblue" points="37.0796,-83.6914 30.0653,-75.7511 30.597,-86.3326 37.0796,-83.6914"/>
</g>
<!-- Node4 -->
<g id="node4" class="node"><title>Node4</title>
<polygon fill="white" stroke="#bfbfbf" points="90.5,-0.5 90.5,-19.5 134.5,-19.5 134.5,-0.5 90.5,-0.5"/>
<text text-anchor="middle" x="112.5" y="-7.5" font-family="Verdana" font-size="10.00">string</text>
</g>
<!-- Node2&#45;&gt;Node4 -->
<g id="edge3" class="edge"><title>Node2&#45;&gt;Node4</title>
<path fill="none" stroke="midnightblue" d="M53.522,-112.368C64.0371,-94.2957 88.5428,-52.1764 102.43,-28.3074"/>
<polygon fill="midnightblue" stroke="midnightblue" points="105.498,-29.9951 107.501,-19.5914 99.4471,-26.4748 105.498,-29.9951"/>
</g>
<!-- Node5&#45;&gt;Node4 -->
<g id="edge8" class="edge"><title>Node5&#45;&gt;Node4</title>
<path fill="none" stroke="midnightblue" d="M165.46,-112.229C157.789,-103.527 146.281,-89.5648 138.5,-76 129.911,-61.0259 122.849,-42.6595 118.264,-29.2741"/>
<polygon fill="midnightblue" stroke="midnightblue" points="121.586,-28.1722 115.136,-19.7672 114.937,-30.3602 121.586,-28.1722"/>
</g>
<!-- Node6 -->
<g id="node6" class="node"><title>Node6</title>
<g id="a_node6"><a xlink:href="ErrorContext_8hpp.html" target="_top" xlink:title="ErrorContext.hpp">
<polygon fill="white" stroke="black" points="147.5,-56.5 147.5,-75.5 245.5,-75.5 245.5,-56.5 147.5,-56.5"/>
<text text-anchor="middle" x="196.5" y="-63.5" font-family="Verdana" font-size="10.00">ErrorContext.hpp</text>
</a>
</g>
</g>
<!-- Node5&#45;&gt;Node6 -->
<g id="edge5" class="edge"><title>Node5&#45;&gt;Node6</title>
<path fill="none" stroke="midnightblue" d="M177.298,-112.083C180.413,-104.77 184.923,-94.1814 188.789,-85.1034"/>
<polygon fill="midnightblue" stroke="midnightblue" points="192.074,-86.3229 192.773,-75.7511 185.634,-83.5798 192.074,-86.3229"/>
</g>
<!-- Node6&#45;&gt;Node4 -->
<g id="edge6" class="edge"><title>Node6&#45;&gt;Node4</title>
<path fill="none" stroke="midnightblue" d="M183.004,-56.324C169.9,-47.9002 149.788,-34.9709 134.393,-25.0741"/>
<polygon fill="midnightblue" stroke="midnightblue" points="136.267,-22.118 125.963,-19.6545 132.482,-28.0063 136.267,-22.118"/>
</g>
<!-- Node7 -->
<g id="node7" class="node"><title>Node7</title>
<g id="a_node7"><a xlink:href="NonCopyable_8hpp.html" target="_top" xlink:title="NonCopyable.hpp">
<polygon fill="white" stroke="black" points="153,-0.5 153,-19.5 254,-19.5 254,-0.5 153,-0.5"/>
<text text-anchor="middle" x="203.5" y="-7.5" font-family="Verdana" font-size="10.00">NonCopyable.hpp</text>
</a>
</g>
</g>
<!-- Node6&#45;&gt;Node7 -->
<g id="edge7" class="edge"><title>Node6&#45;&gt;Node7</title>
<path fill="none" stroke="midnightblue" d="M197.656,-56.083C198.584,-48.9272 199.918,-38.6353 201.077,-29.6911"/>
<polygon fill="midnightblue" stroke="midnightblue" points="204.551,-30.1181 202.366,-19.7511 197.609,-29.2181 204.551,-30.1181"/>
</g>
</g>
</svg>
