<?xml version="1.0" encoding="UTF-8" standalone="no"?>
<!DOCTYPE svg PUBLIC "-//W3C//DTD SVG 1.1//EN"
 "http://www.w3.org/Graphics/SVG/1.1/DTD/svg11.dtd">
<!-- Generated by graphviz version 2.38.0 (20140413.2041)
 -->
<!-- Title: xmlserializer/XmlSink.h Pages: 1 -->
<svg width="240pt" height="140pt"
 viewBox="0.00 0.00 239.50 140.00" xmlns="http://www.w3.org/2000/svg" xmlns:xlink="http://www.w3.org/1999/xlink">
<g id="graph0" class="graph" transform="scale(1 1) rotate(0) translate(4 136)">
<title>xmlserializer/XmlSink.h</title>
<polygon fill="white" stroke="none" points="-4,4 -4,-136 235.5,-136 235.5,4 -4,4"/>
<!-- Node1 -->
<g id="node1" class="node"><title>Node1</title>
<polygon fill="#bfbfbf" stroke="black" points="40,-112.5 40,-131.5 167,-131.5 167,-112.5 40,-112.5"/>
<text text-anchor="middle" x="103.5" y="-119.5" font-family="Verdana" font-size="10.00">xmlserializer/XmlSink.h</text>
</g>
<!-- Node2 -->
<g id="node2" class="node"><title>Node2</title>
<g id="a_node2"><a xlink:href="XmlElement_8h.html" target="_top" xlink:title="XmlElement.h">
<polygon fill="white" stroke="black" points="0,-56.5 0,-75.5 83,-75.5 83,-56.5 0,-56.5"/>
<text text-anchor="middle" x="41.5" y="-63.5" font-family="Verdana" font-size="10.00">XmlElement.h</text>
</a>
</g>
</g>
<!-- Node1&#45;&gt;Node2 -->
<g id="edge1" class="edge"><title>Node1&#45;&gt;Node2</title>
<path fill="none" stroke="midnightblue" d="M93.5386,-112.324C84.3734,-104.341 70.5628,-92.3128 59.4718,-82.6529"/>
<polygon fill="midnightblue" stroke="midnightblue" points="61.4822,-79.7624 51.6426,-75.8339 56.8847,-85.041 61.4822,-79.7624"/>
</g>
<!-- Node5 -->
<g id="node5" class="node"><title>Node5</title>
<g id="a_node5"><a xlink:href="XmlSerializingContext_8h.html" target="_top" xlink:title="XmlSerializingContext.h">
<polygon fill="white" stroke="black" points="101.5,-56.5 101.5,-75.5 231.5,-75.5 231.5,-56.5 101.5,-56.5"/>
<text text-anchor="middle" x="166.5" y="-63.5" font-family="Verdana" font-size="10.00">XmlSerializingContext.h</text>
</a>
</g>
</g>
<!-- Node1&#45;&gt;Node5 -->
<g id="edge4" class="edge"><title>Node1&#45;&gt;Node5</title>
<path fill="none" stroke="midnightblue" d="M113.622,-112.324C123.026,-104.263 137.244,-92.0765 148.569,-82.3695"/>
<polygon fill="midnightblue" stroke="midnightblue" points="150.879,-84.9993 156.194,-75.8339 146.323,-79.6844 150.879,-84.9993"/>
</g>
<!-- Node3 -->
<g id="node3" class="node"><title>Node3</title>
<polygon fill="white" stroke="#bfbfbf" points="15,-0.5 15,-19.5 68,-19.5 68,-0.5 15,-0.5"/>
<text text-anchor="middle" x="41.5" y="-7.5" font-family="Verdana" font-size="10.00">stdint.h</text>
</g>
<!-- Node2&#45;&gt;Node3 -->
<g id="edge2" class="edge"><title>Node2&#45;&gt;Node3</title>
<path fill="none" stroke="midnightblue" d="M41.5,-56.083C41.5,-49.0059 41.5,-38.8611 41.5,-29.9865"/>
<polygon fill="midnightblue" stroke="midnightblue" points="45.0001,-29.751 41.5,-19.7511 38.0001,-29.7511 45.0001,-29.751"/>
</g>
<!-- Node4 -->
<g id="node4" class="node"><title>Node4</title>
<polygon fill="white" stroke="#bfbfbf" points="115.5,-0.5 115.5,-19.5 159.5,-19.5 159.5,-0.5 115.5,-0.5"/>
<text text-anchor="middle" x="137.5" y="-7.5" font-family="Verdana" font-size="10.00">string</text>
</g>
<!-- Node2&#45;&gt;Node4 -->
<g id="edge3" class="edge"><title>Node2&#45;&gt;Node4</title>
<path fill="none" stroke="midnightblue" d="M56.9241,-56.324C72.0395,-47.8215 95.3154,-34.7288 112.971,-24.7975"/>
<polygon fill="midnightblue" stroke="midnightblue" points="115.114,-27.6077 122.114,-19.6545 111.683,-21.5066 115.114,-27.6077"/>
</g>
<!-- Node5&#45;&gt;Node4 -->
<g id="edge5" class="edge"><title>Node5&#45;&gt;Node4</title>
<path fill="none" stroke="midnightblue" d="M161.711,-56.083C157.742,-48.6913 151.975,-37.9533 147.065,-28.8111"/>
<polygon fill="midnightblue" stroke="midnightblue" points="150.014,-26.9051 142.2,-19.7511 143.847,-30.217 150.014,-26.9051"/>
</g>
</g>
</svg>
