<?xml version="1.0" encoding="UTF-8" standalone="no"?>
<!DOCTYPE svg PUBLIC "-//W3C//DTD SVG 1.1//EN"
 "http://www.w3.org/Graphics/SVG/1.1/DTD/svg11.dtd">
<!-- Generated by graphviz version 2.38.0 (20140413.2041)
 -->
<!-- Title: xmlserializer/XmlSerializingContext.cpp Pages: 1 -->
<svg width="316pt" height="207pt"
 viewBox="0.00 0.00 315.50 207.00" xmlns="http://www.w3.org/2000/svg" xmlns:xlink="http://www.w3.org/1999/xlink">
<g id="graph0" class="graph" transform="scale(1 1) rotate(0) translate(4 203)">
<title>xmlserializer/XmlSerializingContext.cpp</title>
<polygon fill="white" stroke="none" points="-4,4 -4,-203 311.5,-203 311.5,4 -4,4"/>
<!-- Node1 -->
<g id="node1" class="node"><title>Node1</title>
<polygon fill="#bfbfbf" stroke="black" points="123,-168.5 123,-198.5 269,-198.5 269,-168.5 123,-168.5"/>
<text text-anchor="start" x="131" y="-186.5" font-family="Verdana" font-size="10.00">xmlserializer/XmlSerializing</text>
<text text-anchor="middle" x="196" y="-175.5" font-family="Verdana" font-size="10.00">Context.cpp</text>
</g>
<!-- Node2 -->
<g id="node2" class="node"><title>Node2</title>
<g id="a_node2"><a xlink:href="XmlSerializingContext_8h.html" target="_top" xlink:title="XmlSerializingContext.h">
<polygon fill="white" stroke="black" points="0,-112.5 0,-131.5 130,-131.5 130,-112.5 0,-112.5"/>
<text text-anchor="middle" x="65" y="-119.5" font-family="Verdana" font-size="10.00">XmlSerializingContext.h</text>
</a>
</g>
</g>
<!-- Node1&#45;&gt;Node2 -->
<g id="edge1" class="edge"><title>Node1&#45;&gt;Node2</title>
<path fill="none" stroke="midnightblue" d="M164.955,-168.399C143.27,-158.55 114.541,-145.501 93.4495,-135.922"/>
<polygon fill="midnightblue" stroke="midnightblue" points="94.6139,-132.607 84.0617,-131.658 91.7191,-138.98 94.6139,-132.607"/>
</g>
<!-- Node6 -->
<g id="node6" class="node"><title>Node6</title>
<polygon fill="white" stroke="#bfbfbf" points="148,-112.5 148,-131.5 244,-131.5 244,-112.5 148,-112.5"/>
<text text-anchor="middle" x="196" y="-119.5" font-family="Verdana" font-size="10.00">libxml/xmlerror.h</text>
</g>
<!-- Node1&#45;&gt;Node6 -->
<g id="edge6" class="edge"><title>Node1&#45;&gt;Node6</title>
<path fill="none" stroke="midnightblue" d="M196,-168.399C196,-160.466 196,-150.458 196,-141.858"/>
<polygon fill="midnightblue" stroke="midnightblue" points="199.5,-141.658 196,-131.658 192.5,-141.658 199.5,-141.658"/>
</g>
<!-- Node7 -->
<g id="node7" class="node"><title>Node7</title>
<polygon fill="white" stroke="#bfbfbf" points="262.5,-112.5 262.5,-131.5 307.5,-131.5 307.5,-112.5 262.5,-112.5"/>
<text text-anchor="middle" x="285" y="-119.5" font-family="Verdana" font-size="10.00">cstdio</text>
</g>
<!-- Node1&#45;&gt;Node7 -->
<g id="edge7" class="edge"><title>Node1&#45;&gt;Node7</title>
<path fill="none" stroke="midnightblue" d="M217.092,-168.399C231.091,-159.04 249.411,-146.792 263.495,-137.377"/>
<polygon fill="midnightblue" stroke="midnightblue" points="265.682,-140.125 272.05,-131.658 261.791,-134.306 265.682,-140.125"/>
</g>
<!-- Node3 -->
<g id="node3" class="node"><title>Node3</title>
<g id="a_node3"><a xlink:href="ErrorContext_8hpp.html" target="_top" xlink:title="ErrorContext.hpp">
<polygon fill="white" stroke="black" points="55,-56.5 55,-75.5 153,-75.5 153,-56.5 55,-56.5"/>
<text text-anchor="middle" x="104" y="-63.5" font-family="Verdana" font-size="10.00">ErrorContext.hpp</text>
</a>
</g>
</g>
<!-- Node2&#45;&gt;Node3 -->
<g id="edge2" class="edge"><title>Node2&#45;&gt;Node3</title>
<path fill="none" stroke="midnightblue" d="M71.4401,-112.083C76.9489,-104.455 85.0312,-93.2645 91.765,-83.9408"/>
<polygon fill="midnightblue" stroke="midnightblue" points="94.6622,-85.9071 97.6798,-75.7511 88.9874,-81.8087 94.6622,-85.9071"/>
</g>
<!-- Node4 -->
<g id="node4" class="node"><title>Node4</title>
<polygon fill="white" stroke="#bfbfbf" points="5,-0.5 5,-19.5 49,-19.5 49,-0.5 5,-0.5"/>
<text text-anchor="middle" x="27" y="-7.5" font-family="Verdana" font-size="10.00">string</text>
</g>
<!-- Node2&#45;&gt;Node4 -->
<g id="edge5" class="edge"><title>Node2&#45;&gt;Node4</title>
<path fill="none" stroke="midnightblue" d="M61.0595,-112.489C56.9917,-103.525 50.6067,-88.9427 46,-76 40.456,-60.424 35.2696,-42.3467 31.7208,-29.2161"/>
<polygon fill="midnightblue" stroke="midnightblue" points="35.095,-28.2851 29.1531,-19.5133 28.328,-30.076 35.095,-28.2851"/>
</g>
<!-- Node3&#45;&gt;Node4 -->
<g id="edge3" class="edge"><title>Node3&#45;&gt;Node4</title>
<path fill="none" stroke="midnightblue" d="M91.6286,-56.324C79.8415,-48.0577 61.8677,-35.4527 47.8645,-25.6322"/>
<polygon fill="midnightblue" stroke="midnightblue" points="49.5376,-22.5307 39.3407,-19.6545 45.5184,-28.2619 49.5376,-22.5307"/>
</g>
<!-- Node5 -->
<g id="node5" class="node"><title>Node5</title>
<g id="a_node5"><a xlink:href="NonCopyable_8hpp.html" target="_top" xlink:title="NonCopyable.hpp">
<polygon fill="white" stroke="black" points="67.5,-0.5 67.5,-19.5 168.5,-19.5 168.5,-0.5 67.5,-0.5"/>
<text text-anchor="middle" x="118" y="-7.5" font-family="Verdana" font-size="10.00">NonCopyable.hpp</text>
</a>
</g>
</g>
<!-- Node3&#45;&gt;Node5 -->
<g id="edge4" class="edge"><title>Node3&#45;&gt;Node5</title>
<path fill="none" stroke="midnightblue" d="M106.312,-56.083C108.167,-48.9272 110.835,-38.6353 113.154,-29.6911"/>
<polygon fill="midnightblue" stroke="midnightblue" points="116.609,-30.3094 115.731,-19.7511 109.834,-28.5527 116.609,-30.3094"/>
</g>
</g>
</svg>
